0
SECTION
2
HEADER
0
ENDSEC
0
SECTION
2
TABLES
0
TABLE
2
LAYER
70
4
0
LAYER
2
CONTOURS_MINEURES
70
0
62
8
6
CONTINUOUS
0
LAYER
2
CONTOURS_MAJEURES
70
0
62
3
6
CONTINUOUS
0
LAYER
2
PARCELLE
70
0
62
4
6
CONTINUOUS
0
LAYER
2
POINTS_COTES
70
0
62
7
6
CONTINUOUS
0
ENDTAB
0
ENDSEC
0
SECTION
2
ENTITIES
0
POLYLINE
8
CONTOURS_MINEURES
66
1
70
0
0
VERTEX
8
CONTOURS_MINEURES
10
0.002
20
2.278
0
VERTEX
8
CONTOURS_MINEURES
10
0.720
20
2.278
0
VERTEX
8
CONTOURS_MINEURES
10
2.996
20
2.278
0
VERTEX
8
CONTOURS_MINEURES
10
4.779
20
1.778
0
VERTEX
8
CONTOURS_MINEURES
10
6.001
20
1.521
0
VERTEX
8
CONTOURS_MINEURES
10
7.893
20
1.108
0
VERTEX
8
CONTOURS_MINEURES
10
9.005
20
0.754
0
VERTEX
8
CONTOURS_MINEURES
10
11.245
20
0.754
0
VERTEX
8
CONTOURS_MINEURES
10
11.999
20
0.754
0
VERTEX
8
CONTOURS_MINEURES
10
12.601
20
0.601
0
VERTEX
8
CONTOURS_MINEURES
10
15.003
20
0.172
0
VERTEX
8
CONTOURS_MINEURES
10
15.796
20
-0.000
0
SEQEND
0
POLYLINE
8
CONTOURS_MINEURES
66
1
70
0
0
VERTEX
8
CONTOURS_MINEURES
10
95.721
20
-0.000
0
VERTEX
8
CONTOURS_MINEURES
10
95.916
20
0.079
0
VERTEX
8
CONTOURS_MINEURES
10
95.995
20
0.102
0
VERTEX
8
CONTOURS_MINEURES
10
98.898
20
0.102
0
VERTEX
8
CONTOURS_MINEURES
10
99.000
20
0.102
0
VERTEX
8
CONTOURS_MINEURES
10
99.132
20
0.132
0
VERTEX
8
CONTOURS_MINEURES
10
102.004
20
1.038
0
SEQEND
0
POLYLINE
8
CONTOURS_MINEURES
66
1
70
0
0
VERTEX
8
CONTOURS_MINEURES
10
0.002
20
4.548
0
VERTEX
8
CONTOURS_MINEURES
10
1.548
20
4.548
0
VERTEX
8
CONTOURS_MINEURES
10
2.996
20
4.548
0
VERTEX
8
CONTOURS_MINEURES
10
4.104
20
4.105
0
VERTEX
8
CONTOURS_MINEURES
10
6.001
20
3.698
0
VERTEX
8
CONTOURS_MINEURES
10
6.513
20
3.508
0
VERTEX
8
CONTOURS_MINEURES
10
8.366
20
2.996
0
VERTEX
8
CONTOURS_MINEURES
10
9.005
20
2.792
0
VERTEX
8
CONTOURS_MINEURES
10
9.209
20
2.792
0
VERTEX
8
CONTOURS_MINEURES
10
11.999
20
2.792
0
VERTEX
8
CONTOURS_MINEURES
10
14.230
20
2.224
0
VERTEX
8
CONTOURS_MINEURES
10
15.003
20
2.086
0
VERTEX
8
CONTOURS_MINEURES
10
16.164
20
1.834
0
VERTEX
8
CONTOURS_MINEURES
10
17.997
20
1.464
0
VERTEX
8
CONTOURS_MINEURES
10
19.465
20
1.464
0
VERTEX
8
CONTOURS_MINEURES
10
21.001
20
1.464
0
VERTEX
8
CONTOURS_MINEURES
10
23.437
20
0.559
0
VERTEX
8
CONTOURS_MINEURES
10
23.995
20
0.352
0
VERTEX
8
CONTOURS_MINEURES
10
24.254
20
0.258
0
VERTEX
8
CONTOURS_MINEURES
10
25.298
20
-0.000
0
SEQEND
0
POLYLINE
8
CONTOURS_MINEURES
66
1
70
0
0
VERTEX
8
CONTOURS_MINEURES
10
58.613
20
-0.000
0
VERTEX
8
CONTOURS_MINEURES
10
59.995
20
0.133
0
VERTEX
8
CONTOURS_MINEURES
10
62.866
20
0.133
0
VERTEX
8
CONTOURS_MINEURES
10
63.000
20
0.133
0
VERTEX
8
CONTOURS_MINEURES
10
63.133
20
0.133
0
VERTEX
8
CONTOURS_MINEURES
10
66.004
20
0.174
0
VERTEX
8
CONTOURS_MINEURES
10
68.908
20
0.090
0
VERTEX
8
CONTOURS_MINEURES
10
68.998
20
0.087
0
VERTEX
8
CONTOURS_MINEURES
10
69.085
20
0.087
0
VERTEX
8
CONTOURS_MINEURES
10
72.002
20
0.087
0
VERTEX
8
CONTOURS_MINEURES
10
72.751
20
-0.000
0
SEQEND
0
POLYLINE
8
CONTOURS_MINEURES
66
1
70
0
0
VERTEX
8
CONTOURS_MINEURES
10
83.400
20
-0.000
0
VERTEX
8
CONTOURS_MINEURES
10
83.999
20
0.102
0
VERTEX
8
CONTOURS_MINEURES
10
86.517
20
0.485
0
VERTEX
8
CONTOURS_MINEURES
10
87.003
20
0.536
0
VERTEX
8
CONTOURS_MINEURES
10
87.539
20
0.536
0
VERTEX
8
CONTOURS_MINEURES
10
89.997
20
0.536
0
VERTEX
8
CONTOURS_MINEURES
10
90.624
20
0.625
0
VERTEX
8
CONTOURS_MINEURES
10
93.001
20
1.129
0
VERTEX
8
CONTOURS_MINEURES
10
94.328
20
1.669
0
VERTEX
8
CONTOURS_MINEURES
10
95.995
20
2.132
0
VERTEX
8
CONTOURS_MINEURES
10
96.861
20
2.132
0
VERTEX
8
CONTOURS_MINEURES
10
99.000
20
2.132
0
VERTEX
8
CONTOURS_MINEURES
10
101.779
20
2.771
0
VERTEX
8
CONTOURS_MINEURES
10
102.004
20
2.842
0
SEQEND
0
POLYLINE
8
CONTOURS_MINEURES
66
1
70
0
0
VERTEX
8
CONTOURS_MINEURES
10
0.002
20
9.764
0
VERTEX
8
CONTOURS_MINEURES
10
0.765
20
9.764
0
VERTEX
8
CONTOURS_MINEURES
10
2.996
20
9.764
0
VERTEX
8
CONTOURS_MINEURES
10
4.826
20
8.998
0
VERTEX
8
CONTOURS_MINEURES
10
4.826
20
7.827
0
VERTEX
8
CONTOURS_MINEURES
10
4.826
20
6.002
0
VERTEX
8
CONTOURS_MINEURES
10
5.665
20
5.667
0
VERTEX
8
CONTOURS_MINEURES
10
6.001
20
5.594
0
VERTEX
8
CONTOURS_MINEURES
10
7.897
20
4.894
0
VERTEX
8
CONTOURS_MINEURES
10
9.005
20
4.587
0
VERTEX
8
CONTOURS_MINEURES
10
10.590
20
4.587
0
VERTEX
8
CONTOURS_MINEURES
10
11.999
20
4.587
0
VERTEX
8
CONTOURS_MINEURES
10
13.813
20
4.187
0
VERTEX
8
CONTOURS_MINEURES
10
15.003
20
3.887
0
VERTEX
8
CONTOURS_MINEURES
10
17.556
20
3.438
0
VERTEX
8
CONTOURS_MINEURES
10
17.997
20
3.352
0
VERTEX
8
CONTOURS_MINEURES
10
18.353
20
3.352
0
VERTEX
8
CONTOURS_MINEURES
10
21.001
20
3.352
0
VERTEX
8
CONTOURS_MINEURES
10
21.291
20
3.287
0
VERTEX
8
CONTOURS_MINEURES
10
22.141
20
2.996
0
VERTEX
8
CONTOURS_MINEURES
10
23.995
20
2.310
0
VERTEX
8
CONTOURS_MINEURES
10
25.692
20
1.691
0
VERTEX
8
CONTOURS_MINEURES
10
27.000
20
1.368
0
VERTEX
8
CONTOURS_MINEURES
10
28.372
20
1.368
0
VERTEX
8
CONTOURS_MINEURES
10
30.004
20
1.368
0
VERTEX
8
CONTOURS_MINEURES
10
31.712
20
1.287
0
VERTEX
8
CONTOURS_MINEURES
10
32.998
20
1.127
0
VERTEX
8
CONTOURS_MINEURES
10
34.098
20
1.097
0
VERTEX
8
CONTOURS_MINEURES
10
36.002
20
0.990
0
VERTEX
8
CONTOURS_MINEURES
10
38.007
20
0.990
0
VERTEX
8
CONTOURS_MINEURES
10
38.996
20
0.990
0
VERTEX
8
CONTOURS_MINEURES
10
40.021
20
1.022
0
VERTEX
8
CONTOURS_MINEURES
10
42.001
20
0.867
0
VERTEX
8
CONTOURS_MINEURES
10
44.622
20
0.382
0
VERTEX
8
CONTOURS_MINEURES
10
45.005
20
0.363
0
VERTEX
8
CONTOURS_MINEURES
10
45.368
20
0.363
0
VERTEX
8
CONTOURS_MINEURES
10
47.999
20
0.363
0
VERTEX
8
CONTOURS_MINEURES
10
48.302
20
0.302
0
VERTEX
8
CONTOURS_MINEURES
10
49.501
20
-0.000
0
SEQEND
0
POLYLINE
8
CONTOURS_MINEURES
66
1
70
0
0
VERTEX
8
CONTOURS_MINEURES
10
0.002
20
12.153
0
VERTEX
8
CONTOURS_MINEURES
10
0.150
20
12.153
0
VERTEX
8
CONTOURS_MINEURES
10
2.996
20
12.153
0
VERTEX
8
CONTOURS_MINEURES
10
3.127
20
12.005
0
VERTEX
8
CONTOURS_MINEURES
10
6.001
20
10.925
0
VERTEX
8
CONTOURS_MINEURES
10
8.066
20
9.938
0
VERTEX
8
CONTOURS_MINEURES
10
9.005
20
9.588
0
VERTEX
8
CONTOURS_MINEURES
10
9.592
20
9.588
0
VERTEX
8
CONTOURS_MINEURES
10
11.999
20
9.588
0
VERTEX
8
CONTOURS_MINEURES
10
12.434
20
9.434
0
VERTEX
8
CONTOURS_MINEURES
10
13.349
20
8.998
0
VERTEX
8
CONTOURS_MINEURES
10
13.349
20
7.652
0
VERTEX
8
CONTOURS_MINEURES
10
13.349
20
6.002
0
VERTEX
8
CONTOURS_MINEURES
10
15.003
20
5.586
0
VERTEX
8
CONTOURS_MINEURES
10
15.506
20
5.498
0
VERTEX
8
CONTOURS_MINEURES
10
17.997
20
5.008
0
VERTEX
8
CONTOURS_MINEURES
10
20.008
20
5.008
0
VERTEX
8
CONTOURS_MINEURES
10
21.001
20
5.008
0
VERTEX
8
CONTOURS_MINEURES
10
22.640
20
4.641
0
VERTEX
8
CONTOURS_MINEURES
10
23.995
20
4.177
0
VERTEX
8
CONTOURS_MINEURES
10
26.753
20
3.243
0
VERTEX
8
CONTOURS_MINEURES
10
27.000
20
3.186
0
VERTEX
8
CONTOURS_MINEURES
10
29.814
20
3.186
0
VERTEX
8
CONTOURS_MINEURES
10
30.004
20
3.186
0
VERTEX
8
CONTOURS_MINEURES
10
30.153
20
3.145
0
VERTEX
8
CONTOURS_MINEURES
10
31.202
20
2.996
0
VERTEX
8
CONTOURS_MINEURES
10
32.998
20
2.773
0
VERTEX
8
CONTOURS_MINEURES
10
35.705
20
2.699
0
VERTEX
8
CONTOURS_MINEURES
10
36.002
20
2.683
0
VERTEX
8
CONTOURS_MINEURES
10
36.315
20
2.683
0
VERTEX
8
CONTOURS_MINEURES
10
38.996
20
2.683
0
VERTEX
8
CONTOURS_MINEURES
10
41.773
20
2.769
0
VERTEX
8
CONTOURS_MINEURES
10
42.001
20
2.751
0
VERTEX
8
CONTOURS_MINEURES
10
42.302
20
2.695
0
VERTEX
8
CONTOURS_MINEURES
10
45.005
20
2.566
0
VERTEX
8
CONTOURS_MINEURES
10
47.570
20
2.566
0
VERTEX
8
CONTOURS_MINEURES
10
47.999
20
2.566
0
VERTEX
8
CONTOURS_MINEURES
10
50.140
20
2.135
0
VERTEX
8
CONTOURS_MINEURES
10
51.003
20
1.917
0
VERTEX
8
CONTOURS_MINEURES
10
52.008
20
1.990
0
VERTEX
8
CONTOURS_MINEURES
10
53.997
20
1.983
0
VERTEX
8
CONTOURS_MINEURES
10
55.013
20
1.983
0
VERTEX
8
CONTOURS_MINEURES
10
57.001
20
1.983
0
VERTEX
8
CONTOURS_MINEURES
10
59.284
20
2.284
0
VERTEX
8
CONTOURS_MINEURES
10
59.995
20
2.352
0
VERTEX
8
CONTOURS_MINEURES
10
60.641
20
2.352
0
VERTEX
8
CONTOURS_MINEURES
10
63.000
20
2.352
0
VERTEX
8
CONTOURS_MINEURES
10
65.350
20
2.343
0
VERTEX
8
CONTOURS_MINEURES
10
66.004
20
2.353
0
VERTEX
8
CONTOURS_MINEURES
10
66.666
20
2.334
0
VERTEX
8
CONTOURS_MINEURES
10
68.998
20
2.249
0
VERTEX
8
CONTOURS_MINEURES
10
71.254
20
2.249
0
VERTEX
8
CONTOURS_MINEURES
10
72.002
20
2.249
0
VERTEX
8
CONTOURS_MINEURES
10
72.846
20
2.152
0
VERTEX
8
CONTOURS_MINEURES
10
74.996
20
2.152
0
VERTEX
8
CONTOURS_MINEURES
10
77.367
20
2.364
0
VERTEX
8
CONTOURS_MINEURES
10
78.001
20
2.341
0
VERTEX
8
CONTOURS_MINEURES
10
78.657
20
2.341
0
VERTEX
8
CONTOURS_MINEURES
10
81.005
20
2.341
0
VERTEX
8
CONTOURS_MINEURES
10
83.571
20
2.568
0
VERTEX
8
CONTOURS_MINEURES
10
83.999
20
2.640
0
VERTEX
8
CONTOURS_MINEURES
10
84.308
20
2.687
0
VERTEX
8
CONTOURS_MINEURES
10
87.003
20
2.971
0
VERTEX
8
CONTOURS_MINEURES
10
89.973
20
2.971
0
VERTEX
8
CONTOURS_MINEURES
10
89.997
20
2.971
0
VERTEX
8
CONTOURS_MINEURES
10
90.169
20
2.996
0
VERTEX
8
CONTOURS_MINEURES
10
92.706
20
3.292
0
VERTEX
8
CONTOURS_MINEURES
10
93.001
20
3.294
0
VERTEX
8
CONTOURS_MINEURES
10
93.356
20
3.351
0
VERTEX
8
CONTOURS_MINEURES
10
95.995
20
3.953
0
VERTEX
8
CONTOURS_MINEURES
10
96.952
20
3.953
0
VERTEX
8
CONTOURS_MINEURES
10
99.000
20
3.953
0
VERTEX
8
CONTOURS_MINEURES
10
100.723
20
4.278
0
VERTEX
8
CONTOURS_MINEURES
10
102.004
20
4.378
0
SEQEND
0
POLYLINE
8
CONTOURS_MINEURES
66
1
70
0
0
VERTEX
8
CONTOURS_MINEURES
10
0.002
20
26.020
0
VERTEX
8
CONTOURS_MINEURES
10
2.015
20
26.020
0
VERTEX
8
CONTOURS_MINEURES
10
2.996
20
26.020
0
VERTEX
8
CONTOURS_MINEURES
10
3.658
20
24.661
0
VERTEX
8
CONTOURS_MINEURES
10
3.964
20
23.998
0
VERTEX
8
CONTOURS_MINEURES
10
3.964
20
23.033
0
VERTEX
8
CONTOURS_MINEURES
10
3.964
20
21.003
0
VERTEX
8
CONTOURS_MINEURES
10
4.799
20
19.800
0
VERTEX
8
CONTOURS_MINEURES
10
6.001
20
18.741
0
VERTEX
8
CONTOURS_MINEURES
10
7.097
20
17.996
0
VERTEX
8
CONTOURS_MINEURES
10
7.097
20
16.903
0
VERTEX
8
CONTOURS_MINEURES
10
7.097
20
15.000
0
VERTEX
8
CONTOURS_MINEURES
10
9.005
20
13.304
0
VERTEX
8
CONTOURS_MINEURES
10
10.304
20
13.304
0
VERTEX
8
CONTOURS_MINEURES
10
11.999
20
13.304
0
VERTEX
8
CONTOURS_MINEURES
10
12.697
20
12.700
0
VERTEX
8
CONTOURS_MINEURES
10
13.501
20
12.005
0
VERTEX
8
CONTOURS_MINEURES
10
14.611
20
11.612
0
VERTEX
8
CONTOURS_MINEURES
10
15.003
20
11.426
0
VERTEX
8
CONTOURS_MINEURES
10
15.932
20
11.072
0
VERTEX
8
CONTOURS_MINEURES
10
17.997
20
10.327
0
VERTEX
8
CONTOURS_MINEURES
10
19.325
20
10.327
0
VERTEX
8
CONTOURS_MINEURES
10
21.001
20
10.327
0
VERTEX
8
CONTOURS_MINEURES
10
21.995
20
9.996
0
VERTEX
8
CONTOURS_MINEURES
10
23.958
20
8.998
0
VERTEX
8
CONTOURS_MINEURES
10
23.958
20
6.039
0
VERTEX
8
CONTOURS_MINEURES
10
23.958
20
6.002
0
VERTEX
8
CONTOURS_MINEURES
10
23.988
20
5.996
0
VERTEX
8
CONTOURS_MINEURES
10
23.995
20
5.993
0
VERTEX
8
CONTOURS_MINEURES
10
24.009
20
5.989
0
VERTEX
8
CONTOURS_MINEURES
10
27.000
20
5.295
0
VERTEX
8
CONTOURS_MINEURES
10
27.706
20
5.295
0
VERTEX
8
CONTOURS_MINEURES
10
30.004
20
5.295
0
VERTEX
8
CONTOURS_MINEURES
10
31.807
20
4.806
0
VERTEX
8
CONTOURS_MINEURES
10
32.998
20
4.637
0
VERTEX
8
CONTOURS_MINEURES
10
34.407
20
4.592
0
VERTEX
8
CONTOURS_MINEURES
10
36.002
20
4.504
0
VERTEX
8
CONTOURS_MINEURES
10
37.504
20
4.504
0
VERTEX
8
CONTOURS_MINEURES
10
38.996
20
4.504
0
VERTEX
8
CONTOURS_MINEURES
10
40.445
20
4.553
0
VERTEX
8
CONTOURS_MINEURES
10
42.001
20
4.667
0
VERTEX
8
CONTOURS_MINEURES
10
43.698
20
4.694
0
VERTEX
8
CONTOURS_MINEURES
10
45.005
20
4.637
0
VERTEX
8
CONTOURS_MINEURES
10
46.639
20
4.637
0
VERTEX
8
CONTOURS_MINEURES
10
47.999
20
4.637
0
VERTEX
8
CONTOURS_MINEURES
10
49.676
20
4.324
0
VERTEX
8
CONTOURS_MINEURES
10
51.003
20
4.114
0
VERTEX
8
CONTOURS_MINEURES
10
52.047
20
4.044
0
VERTEX
8
CONTOURS_MINEURES
10
53.997
20
4.038
0
VERTEX
8
CONTOURS_MINEURES
10
55.960
20
4.038
0
VERTEX
8
CONTOURS_MINEURES
10
57.001
20
4.038
0
VERTEX
8
CONTOURS_MINEURES
10
58.136
20
4.135
0
VERTEX
8
CONTOURS_MINEURES
10
59.995
20
4.355
0
VERTEX
8
CONTOURS_MINEURES
10
61.641
20
4.355
0
VERTEX
8
CONTOURS_MINEURES
10
63.000
20
4.355
0
VERTEX
8
CONTOURS_MINEURES
10
64.651
20
4.350
0
VERTEX
8
CONTOURS_MINEURES
10
66.004
20
4.395
0
VERTEX
8
CONTOURS_MINEURES
10
67.480
20
4.478
0
VERTEX
8
CONTOURS_MINEURES
10
68.998
20
4.423
0
VERTEX
8
CONTOURS_MINEURES
10
70.576
20
4.423
0
VERTEX
8
CONTOURS_MINEURES
10
72.002
20
4.423
0
VERTEX
8
CONTOURS_MINEURES
10
73.553
20
4.552
0
VERTEX
8
CONTOURS_MINEURES
10
74.996
20
4.552
0
VERTEX
8
CONTOURS_MINEURES
10
76.329
20
4.668
0
VERTEX
8
CONTOURS_MINEURES
10
78.001
20
4.866
0
VERTEX
8
CONTOURS_MINEURES
10
79.869
20
4.866
0
VERTEX
8
CONTOURS_MINEURES
10
81.005
20
4.866
0
VERTEX
8
CONTOURS_MINEURES
10
82.056
20
4.947
0
VERTEX
8
CONTOURS_MINEURES
10
83.999
20
5.040
0
VERTEX
8
CONTOURS_MINEURES
10
85.885
20
4.883
0
VERTEX
8
CONTOURS_MINEURES
10
87.003
20
4.980
0
VERTEX
8
CONTOURS_MINEURES
10
88.979
20
4.980
0
VERTEX
8
CONTOURS_MINEURES
10
89.997
20
4.980
0
VERTEX
8
CONTOURS_MINEURES
10
90.912
20
5.087
0
VERTEX
8
CONTOURS_MINEURES
10
93.001
20
5.106
0
VERTEX
8
CONTOURS_MINEURES
10
95.502
20
5.507
0
VERTEX
8
CONTOURS_MINEURES
10
95.995
20
5.619
0
VERTEX
8
CONTOURS_MINEURES
10
98.617
20
5.619
0
VERTEX
8
CONTOURS_MINEURES
10
99.000
20
5.619
0
VERTEX
8
CONTOURS_MINEURES
10
99.322
20
5.680
0
VERTEX
8
CONTOURS_MINEURES
10
102.004
20
5.889
0
SEQEND
0
POLYLINE
8
CONTOURS_MINEURES
66
1
70
0
0
VERTEX
8
CONTOURS_MINEURES
10
0.002
20
38.730
0
VERTEX
8
CONTOURS_MINEURES
10
2.728
20
38.730
0
VERTEX
8
CONTOURS_MINEURES
10
2.996
20
38.730
0
VERTEX
8
CONTOURS_MINEURES
10
4.269
20
36.003
0
VERTEX
8
CONTOURS_MINEURES
10
4.841
20
34.842
0
VERTEX
8
CONTOURS_MINEURES
10
6.001
20
33.032
0
VERTEX
8
CONTOURS_MINEURES
10
6.023
20
32.996
0
VERTEX
8
CONTOURS_MINEURES
10
6.023
20
30.023
0
VERTEX
8
CONTOURS_MINEURES
10
6.023
20
30.001
0
VERTEX
8
CONTOURS_MINEURES
10
6.060
20
29.942
0
VERTEX
8
CONTOURS_MINEURES
10
7.664
20
27.005
0
VERTEX
8
CONTOURS_MINEURES
10
8.111
20
26.110
0
VERTEX
8
CONTOURS_MINEURES
10
9.005
20
25.126
0
VERTEX
8
CONTOURS_MINEURES
10
10.876
20
25.126
0
VERTEX
8
CONTOURS_MINEURES
10
11.999
20
25.126
0
VERTEX
8
CONTOURS_MINEURES
10
13.344
20
23.998
0
VERTEX
8
CONTOURS_MINEURES
10
13.344
20
22.344
0
VERTEX
8
CONTOURS_MINEURES
10
13.344
20
21.003
0
VERTEX
8
CONTOURS_MINEURES
10
15.003
20
20.060
0
VERTEX
8
CONTOURS_MINEURES
10
16.253
20
19.251
0
VERTEX
8
CONTOURS_MINEURES
10
17.960
20
17.996
0
VERTEX
8
CONTOURS_MINEURES
10
17.960
20
17.959
0
VERTEX
8
CONTOURS_MINEURES
10
17.960
20
15.000
0
VERTEX
8
CONTOURS_MINEURES
10
17.997
20
14.970
0
VERTEX
8
CONTOURS_MINEURES
10
20.971
20
14.970
0
VERTEX
8
CONTOURS_MINEURES
10
21.001
20
14.970
0
VERTEX
8
CONTOURS_MINEURES
10
21.076
20
14.925
0
VERTEX
8
CONTOURS_MINEURES
10
23.995
20
13.248
0
VERTEX
8
CONTOURS_MINEURES
10
24.933
20
12.939
0
VERTEX
8
CONTOURS_MINEURES
10
27.000
20
12.106
0
VERTEX
8
CONTOURS_MINEURES
10
29.903
20
12.106
0
VERTEX
8
CONTOURS_MINEURES
10
30.004
20
12.106
0
VERTEX
8
CONTOURS_MINEURES
10
30.337
20
12.005
0
VERTEX
8
CONTOURS_MINEURES
10
32.540
20
11.545
0
VERTEX
8
CONTOURS_MINEURES
10
32.998
20
11.103
0
VERTEX
8
CONTOURS_MINEURES
10
34.161
20
10.841
0
VERTEX
8
CONTOURS_MINEURES
10
36.002
20
10.296
0
VERTEX
8
CONTOURS_MINEURES
10
37.703
20
10.296
0
VERTEX
8
CONTOURS_MINEURES
10
38.996
20
10.296
0
VERTEX
8
CONTOURS_MINEURES
10
40.349
20
10.650
0
VERTEX
8
CONTOURS_MINEURES
10
42.001
20
10.420
0
VERTEX
8
CONTOURS_MINEURES
10
43.231
20
10.229
0
VERTEX
8
CONTOURS_MINEURES
10
45.005
20
10.287
0
VERTEX
8
CONTOURS_MINEURES
10
46.716
20
10.287
0
VERTEX
8
CONTOURS_MINEURES
10
47.999
20
10.287
0
VERTEX
8
CONTOURS_MINEURES
10
50.424
20
9.577
0
VERTEX
8
CONTOURS_MINEURES
10
51.003
20
9.476
0
VERTEX
8
CONTOURS_MINEURES
10
51.417
20
9.413
0
VERTEX
8
CONTOURS_MINEURES
10
53.997
20
9.043
0
VERTEX
8
CONTOURS_MINEURES
10
56.956
20
9.043
0
VERTEX
8
CONTOURS_MINEURES
10
57.001
20
9.043
0
VERTEX
8
CONTOURS_MINEURES
10
59.468
20
9.527
0
VERTEX
8
CONTOURS_MINEURES
10
59.995
20
9.505
0
VERTEX
8
CONTOURS_MINEURES
10
60.502
20
9.505
0
VERTEX
8
CONTOURS_MINEURES
10
63.000
20
9.505
0
VERTEX
8
CONTOURS_MINEURES
10
65.355
20
9.647
0
VERTEX
8
CONTOURS_MINEURES
10
66.004
20
9.643
0
VERTEX
8
CONTOURS_MINEURES
10
68.149
20
9.850
0
VERTEX
8
CONTOURS_MINEURES
10
68.998
20
9.897
0
VERTEX
8
CONTOURS_MINEURES
10
71.104
20
9.897
0
VERTEX
8
CONTOURS_MINEURES
10
72.002
20
9.897
0
VERTEX
8
CONTOURS_MINEURES
10
72.917
20
9.917
0
VERTEX
8
CONTOURS_MINEURES
10
74.996
20
10.153
0
VERTEX
8
CONTOURS_MINEURES
10
76.145
20
10.148
0
VERTEX
8
CONTOURS_MINEURES
10
78.001
20
10.379
0
VERTEX
8
CONTOURS_MINEURES
10
79.625
20
10.379
0
VERTEX
8
CONTOURS_MINEURES
10
81.005
20
10.379
0
VERTEX
8
CONTOURS_MINEURES
10
82.545
20
10.458
0
VERTEX
8
CONTOURS_MINEURES
10
83.999
20
10.447
0
VERTEX
8
CONTOURS_MINEURES
10
85.374
20
10.374
0
VERTEX
8
CONTOURS_MINEURES
10
87.003
20
10.231
0
VERTEX
8
CONTOURS_MINEURES
10
88.769
20
10.231
0
VERTEX
8
CONTOURS_MINEURES
10
89.997
20
10.231
0
VERTEX
8
CONTOURS_MINEURES
10
91.161
20
10.163
0
VERTEX
8
CONTOURS_MINEURES
10
93.001
20
10.184
0
VERTEX
8
CONTOURS_MINEURES
10
94.503
20
10.496
0
VERTEX
8
CONTOURS_MINEURES
10
95.995
20
10.547
0
VERTEX
8
CONTOURS_MINEURES
10
97.543
20
10.547
0
VERTEX
8
CONTOURS_MINEURES
10
99.000
20
10.547
0
VERTEX
8
CONTOURS_MINEURES
10
100.547
20
10.547
0
VERTEX
8
CONTOURS_MINEURES
10
102.004
20
10.684
0
SEQEND
0
POLYLINE
8
CONTOURS_MINEURES
66
1
70
0
0
VERTEX
8
CONTOURS_MINEURES
10
0.002
20
57.800
0
VERTEX
8
CONTOURS_MINEURES
10
2.202
20
57.800
0
VERTEX
8
CONTOURS_MINEURES
10
2.996
20
57.800
0
VERTEX
8
CONTOURS_MINEURES
10
3.269
20
57.005
0
VERTEX
8
CONTOURS_MINEURES
10
3.269
20
54.272
0
VERTEX
8
CONTOURS_MINEURES
10
3.269
20
53.999
0
VERTEX
8
CONTOURS_MINEURES
10
3.440
20
53.556
0
VERTEX
8
CONTOURS_MINEURES
10
4.368
20
51.003
0
VERTEX
8
CONTOURS_MINEURES
10
4.868
20
49.870
0
VERTEX
8
CONTOURS_MINEURES
10
5.716
20
47.996
0
VERTEX
8
CONTOURS_MINEURES
10
5.716
20
47.712
0
VERTEX
8
CONTOURS_MINEURES
10
5.716
20
45.001
0
VERTEX
8
CONTOURS_MINEURES
10
6.001
20
44.383
0
VERTEX
8
CONTOURS_MINEURES
10
6.730
20
42.732
0
VERTEX
8
CONTOURS_MINEURES
10
7.002
20
42.005
0
VERTEX
8
CONTOURS_MINEURES
10
7.002
20
40.001
0
VERTEX
8
CONTOURS_MINEURES
10
7.002
20
38.999
0
VERTEX
8
CONTOURS_MINEURES
10
7.621
20
37.618
0
VERTEX
8
CONTOURS_MINEURES
10
8.408
20
36.003
0
VERTEX
8
CONTOURS_MINEURES
10
9.005
20
35.104
0
VERTEX
8
CONTOURS_MINEURES
10
11.104
20
35.104
0
VERTEX
8
CONTOURS_MINEURES
10
11.999
20
35.104
0
VERTEX
8
CONTOURS_MINEURES
10
13.608
20
32.996
0
VERTEX
8
CONTOURS_MINEURES
10
13.608
20
31.392
0
VERTEX
8
CONTOURS_MINEURES
10
13.608
20
30.001
0
VERTEX
8
CONTOURS_MINEURES
10
14.155
20
29.155
0
VERTEX
8
CONTOURS_MINEURES
10
15.003
20
28.450
0
VERTEX
8
CONTOURS_MINEURES
10
16.874
20
27.005
0
VERTEX
8
CONTOURS_MINEURES
10
17.997
20
26.178
0
VERTEX
8
CONTOURS_MINEURES
10
18.823
20
26.178
0
VERTEX
8
CONTOURS_MINEURES
10
21.001
20
26.178
0
VERTEX
8
CONTOURS_MINEURES
10
22.351
20
25.354
0
VERTEX
8
CONTOURS_MINEURES
10
23.995
20
24.475
0
VERTEX
8
CONTOURS_MINEURES
10
25.088
20
23.998
0
VERTEX
8
CONTOURS_MINEURES
10
25.088
20
22.092
0
VERTEX
8
CONTOURS_MINEURES
10
25.088
20
21.003
0
VERTEX
8
CONTOURS_MINEURES
10
26.415
20
20.418
0
VERTEX
8
CONTOURS_MINEURES
10
27.000
20
20.296
0
VERTEX
8
CONTOURS_MINEURES
10
29.298
20
20.296
0
VERTEX
8
CONTOURS_MINEURES
10
30.004
20
20.296
0
VERTEX
8
CONTOURS_MINEURES
10
30.856
20
20.147
0
VERTEX
8
CONTOURS_MINEURES
10
32.998
20
19.571
0
VERTEX
8
CONTOURS_MINEURES
10
34.275
20
19.274
0
VERTEX
8
CONTOURS_MINEURES
10
36.002
20
19.079
0
VERTEX
8
CONTOURS_MINEURES
10
37.918
20
19.079
0
VERTEX
8
CONTOURS_MINEURES
10
38.996
20
19.079
0
VERTEX
8
CONTOURS_MINEURES
10
39.895
20
18.895
0
VERTEX
8
CONTOURS_MINEURES
10
42.001
20
18.492
0
VERTEX
8
CONTOURS_MINEURES
10
42.422
20
18.418
0
VERTEX
8
CONTOURS_MINEURES
10
45.005
20
18.073
0
VERTEX
8
CONTOURS_MINEURES
10
47.922
20
18.073
0
VERTEX
8
CONTOURS_MINEURES
10
47.999
20
18.073
0
VERTEX
8
CONTOURS_MINEURES
10
48.652
20
17.996
0
VERTEX
8
CONTOURS_MINEURES
10
48.652
20
17.345
0
VERTEX
8
CONTOURS_MINEURES
10
48.652
20
15.000
0
VERTEX
8
CONTOURS_MINEURES
10
50.587
20
14.585
0
VERTEX
8
CONTOURS_MINEURES
10
51.003
20
14.496
0
VERTEX
8
CONTOURS_MINEURES
10
51.623
20
14.380
0
VERTEX
8
CONTOURS_MINEURES
10
53.997
20
13.699
0
VERTEX
8
CONTOURS_MINEURES
10
55.696
20
13.699
0
VERTEX
8
CONTOURS_MINEURES
10
57.001
20
13.699
0
VERTEX
8
CONTOURS_MINEURES
10
58.603
20
13.607
0
VERTEX
8
CONTOURS_MINEURES
10
59.995
20
13.527
0
VERTEX
8
CONTOURS_MINEURES
10
61.473
20
13.527
0
VERTEX
8
CONTOURS_MINEURES
10
63.000
20
13.527
0
VERTEX
8
CONTOURS_MINEURES
10
64.826
20
13.826
0
VERTEX
8
CONTOURS_MINEURES
10
66.004
20
13.814
0
VERTEX
8
CONTOURS_MINEURES
10
67.083
20
13.921
0
VERTEX
8
CONTOURS_MINEURES
10
68.998
20
14.090
0
VERTEX
8
CONTOURS_MINEURES
10
71.089
20
14.090
0
VERTEX
8
CONTOURS_MINEURES
10
72.002
20
14.090
0
VERTEX
8
CONTOURS_MINEURES
10
72.878
20
14.124
0
VERTEX
8
CONTOURS_MINEURES
10
74.996
20
14.297
0
VERTEX
8
CONTOURS_MINEURES
10
75.709
20
14.290
0
VERTEX
8
CONTOURS_MINEURES
10
78.001
20
14.524
0
VERTEX
8
CONTOURS_MINEURES
10
80.527
20
14.524
0
VERTEX
8
CONTOURS_MINEURES
10
81.005
20
14.524
0
VERTEX
8
CONTOURS_MINEURES
10
81.492
20
14.513
0
VERTEX
8
CONTOURS_MINEURES
10
83.999
20
14.456
0
VERTEX
8
CONTOURS_MINEURES
10
86.402
20
14.401
0
VERTEX
8
CONTOURS_MINEURES
10
87.003
20
14.300
0
VERTEX
8
CONTOURS_MINEURES
10
87.703
20
14.300
0
VERTEX
8
CONTOURS_MINEURES
10
89.997
20
14.300
0
VERTEX
8
CONTOURS_MINEURES
10
92.270
20
14.271
0
VERTEX
8
CONTOURS_MINEURES
10
93.001
20
14.111
0
VERTEX
8
CONTOURS_MINEURES
10
95.043
20
14.047
0
VERTEX
8
CONTOURS_MINEURES
10
95.995
20
14.173
0
VERTEX
8
CONTOURS_MINEURES
10
98.170
20
14.173
0
VERTEX
8
CONTOURS_MINEURES
10
99.000
20
14.173
0
VERTEX
8
CONTOURS_MINEURES
10
99.830
20
14.173
0
VERTEX
8
CONTOURS_MINEURES
10
102.004
20
13.815
0
SEQEND
0
POLYLINE
8
CONTOURS_MINEURES
66
1
70
0
0
VERTEX
8
CONTOURS_MINEURES
10
3.991
20
68.999
0
VERTEX
8
CONTOURS_MINEURES
10
4.548
20
67.550
0
VERTEX
8
CONTOURS_MINEURES
10
5.142
20
66.003
0
VERTEX
8
CONTOURS_MINEURES
10
5.142
20
65.144
0
VERTEX
8
CONTOURS_MINEURES
10
5.142
20
62.997
0
VERTEX
8
CONTOURS_MINEURES
10
6.001
20
60.836
0
VERTEX
8
CONTOURS_MINEURES
10
6.360
20
60.001
0
VERTEX
8
CONTOURS_MINEURES
10
7.079
20
58.081
0
VERTEX
8
CONTOURS_MINEURES
10
7.503
20
57.005
0
VERTEX
8
CONTOURS_MINEURES
10
7.503
20
55.502
0
VERTEX
8
CONTOURS_MINEURES
10
7.503
20
53.999
0
VERTEX
8
CONTOURS_MINEURES
10
8.565
20
51.442
0
VERTEX
8
CONTOURS_MINEURES
10
8.742
20
51.003
0
VERTEX
8
CONTOURS_MINEURES
10
8.824
20
50.822
0
VERTEX
8
CONTOURS_MINEURES
10
9.005
20
50.359
0
VERTEX
8
CONTOURS_MINEURES
10
9.647
20
50.359
0
VERTEX
8
CONTOURS_MINEURES
10
11.999
20
50.359
0
VERTEX
8
CONTOURS_MINEURES
10
13.091
20
47.996
0
VERTEX
8
CONTOURS_MINEURES
10
13.091
20
46.907
0
VERTEX
8
CONTOURS_MINEURES
10
13.091
20
45.001
0
VERTEX
8
CONTOURS_MINEURES
10
13.696
20
43.698
0
VERTEX
8
CONTOURS_MINEURES
10
14.589
20
42.005
0
VERTEX
8
CONTOURS_MINEURES
10
14.589
20
39.413
0
VERTEX
8
CONTOURS_MINEURES
10
14.589
20
38.999
0
VERTEX
8
CONTOURS_MINEURES
10
14.746
20
38.742
0
VERTEX
8
CONTOURS_MINEURES
10
15.003
20
38.250
0
VERTEX
8
CONTOURS_MINEURES
10
16.440
20
36.003
0
VERTEX
8
CONTOURS_MINEURES
10
17.190
20
35.193
0
VERTEX
8
CONTOURS_MINEURES
10
17.997
20
34.285
0
VERTEX
8
CONTOURS_MINEURES
10
19.714
20
34.285
0
VERTEX
8
CONTOURS_MINEURES
10
21.001
20
34.285
0
VERTEX
8
CONTOURS_MINEURES
10
21.626
20
33.623
0
VERTEX
8
CONTOURS_MINEURES
10
22.425
20
32.996
0
VERTEX
8
CONTOURS_MINEURES
10
22.425
20
31.425
0
VERTEX
8
CONTOURS_MINEURES
10
22.425
20
30.001
0
VERTEX
8
CONTOURS_MINEURES
10
23.382
20
29.387
0
VERTEX
8
CONTOURS_MINEURES
10
23.995
20
29.060
0
VERTEX
8
CONTOURS_MINEURES
10
25.652
20
28.349
0
VERTEX
8
CONTOURS_MINEURES
10
27.000
20
27.743
0
VERTEX
8
CONTOURS_MINEURES
10
27.740
20
27.743
0
VERTEX
8
CONTOURS_MINEURES
10
30.004
20
27.743
0
VERTEX
8
CONTOURS_MINEURES
10
31.751
20
27.005
0
VERTEX
8
CONTOURS_MINEURES
10
32.604
20
26.609
0
VERTEX
8
CONTOURS_MINEURES
10
32.998
20
26.487
0
VERTEX
8
CONTOURS_MINEURES
10
34.926
20
25.928
0
VERTEX
8
CONTOURS_MINEURES
10
36.002
20
25.644
0
VERTEX
8
CONTOURS_MINEURES
10
37.358
20
25.644
0
VERTEX
8
CONTOURS_MINEURES
10
38.996
20
25.644
0
VERTEX
8
CONTOURS_MINEURES
10
40.356
20
25.359
0
VERTEX
8
CONTOURS_MINEURES
10
42.001
20
24.915
0
VERTEX
8
CONTOURS_MINEURES
10
44.727
20
24.277
0
VERTEX
8
CONTOURS_MINEURES
10
45.005
20
24.200
0
VERTEX
8
CONTOURS_MINEURES
10
47.798
20
24.200
0
VERTEX
8
CONTOURS_MINEURES
10
47.999
20
24.200
0
VERTEX
8
CONTOURS_MINEURES
10
48.161
20
24.161
0
VERTEX
8
CONTOURS_MINEURES
10
49.305
20
23.998
0
VERTEX
8
CONTOURS_MINEURES
10
49.305
20
22.696
0
VERTEX
8
CONTOURS_MINEURES
10
49.305
20
21.003
0
VERTEX
8
CONTOURS_MINEURES
10
51.003
20
20.802
0
VERTEX
8
CONTOURS_MINEURES
10
53.503
20
20.506
0
VERTEX
8
CONTOURS_MINEURES
10
53.997
20
20.411
0
VERTEX
8
CONTOURS_MINEURES
10
54.588
20
20.411
0
VERTEX
8
CONTOURS_MINEURES
10
57.001
20
20.411
0
VERTEX
8
CONTOURS_MINEURES
10
59.318
20
20.322
0
VERTEX
8
CONTOURS_MINEURES
10
59.995
20
20.296
0
VERTEX
8
CONTOURS_MINEURES
10
60.701
20
20.296
0
VERTEX
8
CONTOURS_MINEURES
10
63.000
20
20.296
0
VERTEX
8
CONTOURS_MINEURES
10
65.403
20
20.401
0
VERTEX
8
CONTOURS_MINEURES
10
66.004
20
20.463
0
VERTEX
8
CONTOURS_MINEURES
10
66.518
20
20.487
0
VERTEX
8
CONTOURS_MINEURES
10
68.998
20
20.524
0
VERTEX
8
CONTOURS_MINEURES
10
69.476
20
20.524
0
VERTEX
8
CONTOURS_MINEURES
10
72.002
20
20.524
0
VERTEX
8
CONTOURS_MINEURES
10
74.651
20
20.656
0
VERTEX
8
CONTOURS_MINEURES
10
74.996
20
20.670
0
VERTEX
8
CONTOURS_MINEURES
10
77.668
20
20.670
0
VERTEX
8
CONTOURS_MINEURES
10
78.001
20
20.685
0
VERTEX
8
CONTOURS_MINEURES
10
78.318
20
20.685
0
VERTEX
8
CONTOURS_MINEURES
10
81.005
20
20.685
0
VERTEX
8
CONTOURS_MINEURES
10
83.632
20
20.634
0
VERTEX
8
CONTOURS_MINEURES
10
83.999
20
20.630
0
VERTEX
8
CONTOURS_MINEURES
10
86.878
20
20.877
0
VERTEX
8
CONTOURS_MINEURES
10
87.003
20
20.876
0
VERTEX
8
CONTOURS_MINEURES
10
87.129
20
20.876
0
VERTEX
8
CONTOURS_MINEURES
10
89.997
20
20.876
0
VERTEX
8
CONTOURS_MINEURES
10
93.001
20
21.003
0
VERTEX
8
CONTOURS_MINEURES
10
95.995
20
20.770
0
VERTEX
8
CONTOURS_MINEURES
10
98.767
20
20.770
0
VERTEX
8
CONTOURS_MINEURES
10
99.000
20
20.770
0
VERTEX
8
CONTOURS_MINEURES
10
101.598
20
20.596
0
VERTEX
8
CONTOURS_MINEURES
10
102.004
20
20.564
0
SEQEND
0
POLYLINE
8
CONTOURS_MINEURES
66
1
70
0
0
VERTEX
8
CONTOURS_MINEURES
10
8.039
20
68.999
0
VERTEX
8
CONTOURS_MINEURES
10
9.005
20
66.582
0
VERTEX
8
CONTOURS_MINEURES
10
11.421
20
66.582
0
VERTEX
8
CONTOURS_MINEURES
10
11.999
20
66.582
0
VERTEX
8
CONTOURS_MINEURES
10
12.158
20
66.163
0
VERTEX
8
CONTOURS_MINEURES
10
12.221
20
66.003
0
VERTEX
8
CONTOURS_MINEURES
10
12.221
20
65.781
0
VERTEX
8
CONTOURS_MINEURES
10
12.221
20
62.997
0
VERTEX
8
CONTOURS_MINEURES
10
12.366
20
62.631
0
VERTEX
8
CONTOURS_MINEURES
10
13.462
20
60.001
0
VERTEX
8
CONTOURS_MINEURES
10
13.868
20
58.869
0
VERTEX
8
CONTOURS_MINEURES
10
14.730
20
57.005
0
VERTEX
8
CONTOURS_MINEURES
10
14.730
20
56.732
0
VERTEX
8
CONTOURS_MINEURES
10
14.730
20
53.999
0
VERTEX
8
CONTOURS_MINEURES
10
14.809
20
53.805
0
VERTEX
8
CONTOURS_MINEURES
10
15.003
20
53.458
0
VERTEX
8
CONTOURS_MINEURES
10
15.730
20
51.730
0
VERTEX
8
CONTOURS_MINEURES
10
16.165
20
51.003
0
VERTEX
8
CONTOURS_MINEURES
10
17.947
20
48.047
0
VERTEX
8
CONTOURS_MINEURES
10
17.973
20
47.996
0
VERTEX
8
CONTOURS_MINEURES
10
17.973
20
47.972
0
VERTEX
8
CONTOURS_MINEURES
10
17.973
20
45.001
0
VERTEX
8
CONTOURS_MINEURES
10
17.997
20
44.961
0
VERTEX
8
CONTOURS_MINEURES
10
18.037
20
44.961
0
VERTEX
8
CONTOURS_MINEURES
10
21.001
20
44.961
0
VERTEX
8
CONTOURS_MINEURES
10
22.008
20
43.013
0
VERTEX
8
CONTOURS_MINEURES
10
22.803
20
42.005
0
VERTEX
8
CONTOURS_MINEURES
10
22.803
20
40.196
0
VERTEX
8
CONTOURS_MINEURES
10
22.803
20
38.999
0
VERTEX
8
CONTOURS_MINEURES
10
23.995
20
37.545
0
VERTEX
8
CONTOURS_MINEURES
10
24.746
20
36.752
0
VERTEX
8
CONTOURS_MINEURES
10
25.712
20
36.003
0
VERTEX
8
CONTOURS_MINEURES
10
27.000
20
35.115
0
VERTEX
8
CONTOURS_MINEURES
10
29.116
20
35.115
0
VERTEX
8
CONTOURS_MINEURES
10
30.004
20
35.115
0
VERTEX
8
CONTOURS_MINEURES
10
31.270
20
34.267
0
VERTEX
8
CONTOURS_MINEURES
10
32.998
20
33.571
0
VERTEX
8
CONTOURS_MINEURES
10
35.046
20
32.996
0
VERTEX
8
CONTOURS_MINEURES
10
35.046
20
32.043
0
VERTEX
8
CONTOURS_MINEURES
10
35.046
20
30.001
0
VERTEX
8
CONTOURS_MINEURES
10
36.002
20
29.715
0
VERTEX
8
CONTOURS_MINEURES
10
38.711
20
29.715
0
VERTEX
8
CONTOURS_MINEURES
10
38.996
20
29.715
0
VERTEX
8
CONTOURS_MINEURES
10
39.359
20
29.639
0
VERTEX
8
CONTOURS_MINEURES
10
42.001
20
28.951
0
VERTEX
8
CONTOURS_MINEURES
10
43.597
20
28.596
0
VERTEX
8
CONTOURS_MINEURES
10
45.005
20
28.215
0
VERTEX
8
CONTOURS_MINEURES
10
46.789
20
28.215
0
VERTEX
8
CONTOURS_MINEURES
10
47.999
20
28.215
0
VERTEX
8
CONTOURS_MINEURES
10
49.017
20
28.020
0
VERTEX
8
CONTOURS_MINEURES
10
51.003
20
27.525
0
VERTEX
8
CONTOURS_MINEURES
10
53.808
20
27.194
0
VERTEX
8
CONTOURS_MINEURES
10
53.997
20
27.164
0
VERTEX
8
CONTOURS_MINEURES
10
54.156
20
27.164
0
VERTEX
8
CONTOURS_MINEURES
10
57.001
20
27.164
0
VERTEX
8
CONTOURS_MINEURES
10
57.170
20
27.174
0
VERTEX
8
CONTOURS_MINEURES
10
59.995
20
27.174
0
VERTEX
8
CONTOURS_MINEURES
10
62.830
20
27.174
0
VERTEX
8
CONTOURS_MINEURES
10
63.000
20
27.174
0
VERTEX
8
CONTOURS_MINEURES
10
63.153
20
27.158
0
VERTEX
8
CONTOURS_MINEURES
10
64.602
20
27.005
0
VERTEX
8
CONTOURS_MINEURES
10
65.876
20
26.877
0
VERTEX
8
CONTOURS_MINEURES
10
66.004
20
26.883
0
VERTEX
8
CONTOURS_MINEURES
10
66.124
20
26.885
0
VERTEX
8
CONTOURS_MINEURES
10
68.998
20
26.671
0
VERTEX
8
CONTOURS_MINEURES
10
69.332
20
26.671
0
VERTEX
8
CONTOURS_MINEURES
10
72.002
20
26.671
0
VERTEX
8
CONTOURS_MINEURES
10
74.364
20
26.370
0
VERTEX
8
CONTOURS_MINEURES
10
74.996
20
26.398
0
VERTEX
8
CONTOURS_MINEURES
10
77.321
20
26.325
0
VERTEX
8
CONTOURS_MINEURES
10
78.001
20
26.325
0
VERTEX
8
CONTOURS_MINEURES
10
80.326
20
26.325
0
VERTEX
8
CONTOURS_MINEURES
10
81.005
20
26.325
0
VERTEX
8
CONTOURS_MINEURES
10
81.694
20
26.313
0
VERTEX
8
CONTOURS_MINEURES
10
83.999
20
26.538
0
VERTEX
8
CONTOURS_MINEURES
10
84.428
20
26.575
0
VERTEX
8
CONTOURS_MINEURES
10
86.597
20
27.005
0
VERTEX
8
CONTOURS_MINEURES
10
86.878
20
27.130
0
VERTEX
8
CONTOURS_MINEURES
10
87.003
20
27.104
0
VERTEX
8
CONTOURS_MINEURES
10
89.898
20
27.104
0
VERTEX
8
CONTOURS_MINEURES
10
89.997
20
27.104
0
VERTEX
8
CONTOURS_MINEURES
10
90.076
20
27.083
0
VERTEX
8
CONTOURS_MINEURES
10
93.001
20
27.215
0
VERTEX
8
CONTOURS_MINEURES
10
95.842
20
27.158
0
VERTEX
8
CONTOURS_MINEURES
10
95.995
20
27.152
0
VERTEX
8
CONTOURS_MINEURES
10
96.143
20
27.152
0
VERTEX
8
CONTOURS_MINEURES
10
99.000
20
27.152
0
VERTEX
8
CONTOURS_MINEURES
10
99.159
20
27.163
0
VERTEX
8
CONTOURS_MINEURES
10
102.004
20
27.193
0
SEQEND
0
POLYLINE
8
CONTOURS_MINEURES
66
1
70
0
0
VERTEX
8
CONTOURS_MINEURES
10
15.091
20
68.999
0
VERTEX
8
CONTOURS_MINEURES
10
15.960
20
66.961
0
VERTEX
8
CONTOURS_MINEURES
10
16.163
20
66.003
0
VERTEX
8
CONTOURS_MINEURES
10
16.163
20
64.162
0
VERTEX
8
CONTOURS_MINEURES
10
16.163
20
62.997
0
VERTEX
8
CONTOURS_MINEURES
10
16.576
20
61.423
0
VERTEX
8
CONTOURS_MINEURES
10
17.050
20
60.001
0
VERTEX
8
CONTOURS_MINEURES
10
17.307
20
59.311
0
VERTEX
8
CONTOURS_MINEURES
10
17.997
20
57.671
0
VERTEX
8
CONTOURS_MINEURES
10
20.334
20
57.671
0
VERTEX
8
CONTOURS_MINEURES
10
21.001
20
57.671
0
VERTEX
8
CONTOURS_MINEURES
10
21.241
20
57.245
0
VERTEX
8
CONTOURS_MINEURES
10
21.290
20
57.005
0
VERTEX
8
CONTOURS_MINEURES
10
21.290
20
54.289
0
VERTEX
8
CONTOURS_MINEURES
10
21.290
20
53.999
0
VERTEX
8
CONTOURS_MINEURES
10
21.593
20
53.407
0
VERTEX
8
CONTOURS_MINEURES
10
22.864
20
51.003
0
VERTEX
8
CONTOURS_MINEURES
10
23.258
20
50.263
0
VERTEX
8
CONTOURS_MINEURES
10
23.995
20
49.361
0
VERTEX
8
CONTOURS_MINEURES
10
24.698
20
48.699
0
VERTEX
8
CONTOURS_MINEURES
10
25.370
20
47.996
0
VERTEX
8
CONTOURS_MINEURES
10
25.370
20
46.626
0
VERTEX
8
CONTOURS_MINEURES
10
25.370
20
45.001
0
VERTEX
8
CONTOURS_MINEURES
10
26.105
20
44.109
0
VERTEX
8
CONTOURS_MINEURES
10
27.000
20
43.226
0
VERTEX
8
CONTOURS_MINEURES
10
28.780
20
43.226
0
VERTEX
8
CONTOURS_MINEURES
10
30.004
20
43.226
0
VERTEX
8
CONTOURS_MINEURES
10
30.631
20
42.633
0
VERTEX
8
CONTOURS_MINEURES
10
31.191
20
42.005
0
VERTEX
8
CONTOURS_MINEURES
10
31.191
20
40.813
0
VERTEX
8
CONTOURS_MINEURES
10
31.191
20
38.999
0
VERTEX
8
CONTOURS_MINEURES
10
32.998
20
37.565
0
VERTEX
8
CONTOURS_MINEURES
10
34.095
20
37.096
0
VERTEX
8
CONTOURS_MINEURES
10
36.002
20
36.375
0
VERTEX
8
CONTOURS_MINEURES
10
36.374
20
36.375
0
VERTEX
8
CONTOURS_MINEURES
10
38.996
20
36.375
0
VERTEX
8
CONTOURS_MINEURES
10
40.587
20
36.003
0
VERTEX
8
CONTOURS_MINEURES
10
41.763
20
35.765
0
VERTEX
8
CONTOURS_MINEURES
10
42.001
20
35.704
0
VERTEX
8
CONTOURS_MINEURES
10
42.382
20
35.621
0
VERTEX
8
CONTOURS_MINEURES
10
45.005
20
35.231
0
VERTEX
8
CONTOURS_MINEURES
10
45.774
20
35.231
0
VERTEX
8
CONTOURS_MINEURES
10
47.999
20
35.231
0
VERTEX
8
CONTOURS_MINEURES
10
49.795
20
34.794
0
VERTEX
8
CONTOURS_MINEURES
10
51.003
20
34.567
0
VERTEX
8
CONTOURS_MINEURES
10
52.694
20
34.304
0
VERTEX
8
CONTOURS_MINEURES
10
53.997
20
34.212
0
VERTEX
8
CONTOURS_MINEURES
10
55.787
20
34.212
0
VERTEX
8
CONTOURS_MINEURES
10
57.001
20
34.212
0
VERTEX
8
CONTOURS_MINEURES
10
58.460
20
34.461
0
VERTEX
8
CONTOURS_MINEURES
10
59.995
20
34.571
0
VERTEX
8
CONTOURS_MINEURES
10
61.426
20
34.571
0
VERTEX
8
CONTOURS_MINEURES
10
63.000
20
34.571
0
VERTEX
8
CONTOURS_MINEURES
10
64.612
20
34.610
0
VERTEX
8
CONTOURS_MINEURES
10
66.004
20
34.416
0
VERTEX
8
CONTOURS_MINEURES
10
67.152
20
34.149
0
VERTEX
8
CONTOURS_MINEURES
10
68.998
20
33.487
0
VERTEX
8
CONTOURS_MINEURES
10
71.512
20
33.487
0
VERTEX
8
CONTOURS_MINEURES
10
72.002
20
33.487
0
VERTEX
8
CONTOURS_MINEURES
10
72.601
20
33.598
0
VERTEX
8
CONTOURS_MINEURES
10
74.996
20
33.293
0
VERTEX
8
CONTOURS_MINEURES
10
76.599
20
34.399
0
VERTEX
8
CONTOURS_MINEURES
10
78.001
20
34.977
0
VERTEX
8
CONTOURS_MINEURES
10
79.026
20
34.977
0
VERTEX
8
CONTOURS_MINEURES
10
81.005
20
34.977
0
VERTEX
8
CONTOURS_MINEURES
10
82.450
20
34.448
0
VERTEX
8
CONTOURS_MINEURES
10
83.999
20
34.759
0
VERTEX
8
CONTOURS_MINEURES
10
85.308
20
34.307
0
VERTEX
8
CONTOURS_MINEURES
10
87.003
20
33.986
0
VERTEX
8
CONTOURS_MINEURES
10
89.011
20
33.986
0
VERTEX
8
CONTOURS_MINEURES
10
89.997
20
33.986
0
VERTEX
8
CONTOURS_MINEURES
10
90.924
20
33.924
0
VERTEX
8
CONTOURS_MINEURES
10
93.001
20
33.308
0
VERTEX
8
CONTOURS_MINEURES
10
95.831
20
33.161
0
VERTEX
8
CONTOURS_MINEURES
10
95.995
20
33.181
0
VERTEX
8
CONTOURS_MINEURES
10
98.815
20
33.181
0
VERTEX
8
CONTOURS_MINEURES
10
99.000
20
33.181
0
VERTEX
8
CONTOURS_MINEURES
10
99.186
20
33.182
0
VERTEX
8
CONTOURS_MINEURES
10
102.004
20
33.493
0
SEQEND
0
POLYLINE
8
CONTOURS_MINEURES
66
1
70
0
0
VERTEX
8
CONTOURS_MINEURES
10
22.886
20
68.999
0
VERTEX
8
CONTOURS_MINEURES
10
23.515
20
66.484
0
VERTEX
8
CONTOURS_MINEURES
10
23.657
20
66.003
0
VERTEX
8
CONTOURS_MINEURES
10
23.657
20
65.664
0
VERTEX
8
CONTOURS_MINEURES
10
23.657
20
62.997
0
VERTEX
8
CONTOURS_MINEURES
10
23.995
20
61.654
0
VERTEX
8
CONTOURS_MINEURES
10
24.344
20
60.348
0
VERTEX
8
CONTOURS_MINEURES
10
24.457
20
60.001
0
VERTEX
8
CONTOURS_MINEURES
10
24.746
20
59.252
0
VERTEX
8
CONTOURS_MINEURES
10
25.528
20
57.005
0
VERTEX
8
CONTOURS_MINEURES
10
25.528
20
55.471
0
VERTEX
8
CONTOURS_MINEURES
10
25.528
20
53.999
0
VERTEX
8
CONTOURS_MINEURES
10
27.000
20
51.974
0
VERTEX
8
CONTOURS_MINEURES
10
27.973
20
51.974
0
VERTEX
8
CONTOURS_MINEURES
10
30.004
20
51.974
0
VERTEX
8
CONTOURS_MINEURES
10
30.443
20
51.442
0
VERTEX
8
CONTOURS_MINEURES
10
30.824
20
51.003
0
VERTEX
8
CONTOURS_MINEURES
10
32.071
20
50.072
0
VERTEX
8
CONTOURS_MINEURES
10
32.998
20
49.073
0
VERTEX
8
CONTOURS_MINEURES
10
33.556
20
48.555
0
VERTEX
8
CONTOURS_MINEURES
10
34.523
20
47.996
0
VERTEX
8
CONTOURS_MINEURES
10
34.523
20
46.521
0
VERTEX
8
CONTOURS_MINEURES
10
34.523
20
45.001
0
VERTEX
8
CONTOURS_MINEURES
10
36.002
20
44.068
0
VERTEX
8
CONTOURS_MINEURES
10
38.064
20
44.068
0
VERTEX
8
CONTOURS_MINEURES
10
38.996
20
44.068
0
VERTEX
8
CONTOURS_MINEURES
10
40.074
20
43.926
0
VERTEX
8
CONTOURS_MINEURES
10
42.001
20
43.583
0
VERTEX
8
CONTOURS_MINEURES
10
43.276
20
43.277
0
VERTEX
8
CONTOURS_MINEURES
10
45.005
20
43.185
0
VERTEX
8
CONTOURS_MINEURES
10
46.819
20
43.185
0
VERTEX
8
CONTOURS_MINEURES
10
47.999
20
43.185
0
VERTEX
8
CONTOURS_MINEURES
10
50.204
20
42.802
0
VERTEX
8
CONTOURS_MINEURES
10
51.003
20
42.604
0
VERTEX
8
CONTOURS_MINEURES
10
51.536
20
42.538
0
VERTEX
8
CONTOURS_MINEURES
10
53.997
20
42.460
0
VERTEX
8
CONTOURS_MINEURES
10
56.545
20
42.460
0
VERTEX
8
CONTOURS_MINEURES
10
57.001
20
42.460
0
VERTEX
8
CONTOURS_MINEURES
10
57.370
20
42.374
0
VERTEX
8
CONTOURS_MINEURES
10
59.319
20
42.005
0
VERTEX
8
CONTOURS_MINEURES
10
59.319
20
39.677
0
VERTEX
8
CONTOURS_MINEURES
10
59.319
20
38.999
0
VERTEX
8
CONTOURS_MINEURES
10
59.995
20
38.856
0
VERTEX
8
CONTOURS_MINEURES
10
62.857
20
38.856
0
VERTEX
8
CONTOURS_MINEURES
10
63.000
20
38.856
0
VERTEX
8
CONTOURS_MINEURES
10
65.731
20
38.726
0
VERTEX
8
CONTOURS_MINEURES
10
66.004
20
38.731
0
VERTEX
8
CONTOURS_MINEURES
10
66.322
20
38.681
0
VERTEX
8
CONTOURS_MINEURES
10
68.798
20
38.999
0
VERTEX
8
CONTOURS_MINEURES
10
68.798
20
41.805
0
VERTEX
8
CONTOURS_MINEURES
10
68.798
20
42.005
0
VERTEX
8
CONTOURS_MINEURES
10
68.998
20
42.021
0
VERTEX
8
CONTOURS_MINEURES
10
71.986
20
42.021
0
VERTEX
8
CONTOURS_MINEURES
10
72.002
20
42.021
0
VERTEX
8
CONTOURS_MINEURES
10
74.786
20
42.216
0
VERTEX
8
CONTOURS_MINEURES
10
74.996
20
42.222
0
VERTEX
8
CONTOURS_MINEURES
10
77.812
20
42.193
0
VERTEX
8
CONTOURS_MINEURES
10
78.001
20
42.197
0
VERTEX
8
CONTOURS_MINEURES
10
78.193
20
42.197
0
VERTEX
8
CONTOURS_MINEURES
10
81.005
20
42.197
0
VERTEX
8
CONTOURS_MINEURES
10
83.734
20
42.270
0
VERTEX
8
CONTOURS_MINEURES
10
83.999
20
42.303
0
VERTEX
8
CONTOURS_MINEURES
10
86.658
20
42.350
0
VERTEX
8
CONTOURS_MINEURES
10
87.003
20
42.316
0
VERTEX
8
CONTOURS_MINEURES
10
87.314
20
42.316
0
VERTEX
8
CONTOURS_MINEURES
10
89.997
20
42.316
0
VERTEX
8
CONTOURS_MINEURES
10
92.223
20
42.005
0
VERTEX
8
CONTOURS_MINEURES
10
92.223
20
41.226
0
VERTEX
8
CONTOURS_MINEURES
10
92.223
20
38.999
0
VERTEX
8
CONTOURS_MINEURES
10
93.001
20
38.755
0
VERTEX
8
CONTOURS_MINEURES
10
95.415
20
38.418
0
VERTEX
8
CONTOURS_MINEURES
10
95.995
20
38.490
0
VERTEX
8
CONTOURS_MINEURES
10
96.505
20
38.490
0
VERTEX
8
CONTOURS_MINEURES
10
99.000
20
38.490
0
VERTEX
8
CONTOURS_MINEURES
10
99.505
20
38.495
0
VERTEX
8
CONTOURS_MINEURES
10
102.004
20
38.635
0
SEQEND
0
POLYLINE
8
CONTOURS_MINEURES
66
1
70
0
0
VERTEX
8
CONTOURS_MINEURES
10
30.685
20
68.999
0
VERTEX
8
CONTOURS_MINEURES
10
31.252
20
67.751
0
VERTEX
8
CONTOURS_MINEURES
10
31.843
20
66.003
0
VERTEX
8
CONTOURS_MINEURES
10
31.843
20
64.157
0
VERTEX
8
CONTOURS_MINEURES
10
31.843
20
62.997
0
VERTEX
8
CONTOURS_MINEURES
10
32.998
20
60.466
0
VERTEX
8
CONTOURS_MINEURES
10
33.151
20
60.153
0
VERTEX
8
CONTOURS_MINEURES
10
33.246
20
60.001
0
VERTEX
8
CONTOURS_MINEURES
10
33.528
20
59.472
0
VERTEX
8
CONTOURS_MINEURES
10
34.834
20
57.005
0
VERTEX
8
CONTOURS_MINEURES
10
34.834
20
55.836
0
VERTEX
8
CONTOURS_MINEURES
10
34.834
20
53.999
0
VERTEX
8
CONTOURS_MINEURES
10
36.002
20
52.646
0
VERTEX
8
CONTOURS_MINEURES
10
37.354
20
52.646
0
VERTEX
8
CONTOURS_MINEURES
10
38.996
20
52.646
0
VERTEX
8
CONTOURS_MINEURES
10
39.954
20
51.958
0
VERTEX
8
CONTOURS_MINEURES
10
41.732
20
51.003
0
VERTEX
8
CONTOURS_MINEURES
10
42.001
20
50.904
0
VERTEX
8
CONTOURS_MINEURES
10
42.121
20
50.883
0
VERTEX
8
CONTOURS_MINEURES
10
45.005
20
50.106
0
VERTEX
8
CONTOURS_MINEURES
10
47.106
20
50.106
0
VERTEX
8
CONTOURS_MINEURES
10
47.999
20
50.106
0
VERTEX
8
CONTOURS_MINEURES
10
49.684
20
49.682
0
VERTEX
8
CONTOURS_MINEURES
10
51.003
20
49.415
0
VERTEX
8
CONTOURS_MINEURES
10
52.280
20
49.279
0
VERTEX
8
CONTOURS_MINEURES
10
53.997
20
49.105
0
VERTEX
8
CONTOURS_MINEURES
10
55.894
20
49.105
0
VERTEX
8
CONTOURS_MINEURES
10
57.001
20
49.105
0
VERTEX
8
CONTOURS_MINEURES
10
58.064
20
49.063
0
VERTEX
8
CONTOURS_MINEURES
10
59.995
20
48.582
0
VERTEX
8
CONTOURS_MINEURES
10
62.415
20
48.582
0
VERTEX
8
CONTOURS_MINEURES
10
63.000
20
48.582
0
VERTEX
8
CONTOURS_MINEURES
10
63.528
20
48.525
0
VERTEX
8
CONTOURS_MINEURES
10
66.004
20
48.295
0
VERTEX
8
CONTOURS_MINEURES
10
68.701
20
48.295
0
VERTEX
8
CONTOURS_MINEURES
10
68.998
20
48.280
0
VERTEX
8
CONTOURS_MINEURES
10
69.281
20
48.280
0
VERTEX
8
CONTOURS_MINEURES
10
72.002
20
48.280
0
VERTEX
8
CONTOURS_MINEURES
10
74.615
20
48.379
0
VERTEX
8
CONTOURS_MINEURES
10
74.996
20
48.384
0
VERTEX
8
CONTOURS_MINEURES
10
75.369
20
48.370
0
VERTEX
8
CONTOURS_MINEURES
10
78.001
20
48.431
0
VERTEX
8
CONTOURS_MINEURES
10
80.571
20
48.431
0
VERTEX
8
CONTOURS_MINEURES
10
81.005
20
48.431
0
VERTEX
8
CONTOURS_MINEURES
10
81.416
20
48.409
0
VERTEX
8
CONTOURS_MINEURES
10
83.999
20
48.678
0
VERTEX
8
CONTOURS_MINEURES
10
84.697
20
48.695
0
VERTEX
8
CONTOURS_MINEURES
10
87.003
20
48.450
0
VERTEX
8
CONTOURS_MINEURES
10
89.545
20
48.450
0
VERTEX
8
CONTOURS_MINEURES
10
89.997
20
48.450
0
VERTEX
8
CONTOURS_MINEURES
10
90.504
20
48.504
0
VERTEX
8
CONTOURS_MINEURES
10
93.001
20
48.147
0
VERTEX
8
CONTOURS_MINEURES
10
93.164
20
48.160
0
VERTEX
8
CONTOURS_MINEURES
10
95.995
20
48.326
0
VERTEX
8
CONTOURS_MINEURES
10
98.671
20
48.326
0
VERTEX
8
CONTOURS_MINEURES
10
99.000
20
48.326
0
VERTEX
8
CONTOURS_MINEURES
10
101.656
20
48.345
0
VERTEX
8
CONTOURS_MINEURES
10
102.004
20
48.333
0
SEQEND
0
POLYLINE
8
CONTOURS_MINEURES
66
1
70
0
0
VERTEX
8
CONTOURS_MINEURES
10
35.560
20
68.999
0
VERTEX
8
CONTOURS_MINEURES
10
36.002
20
68.087
0
VERTEX
8
CONTOURS_MINEURES
10
38.085
20
68.087
0
VERTEX
8
CONTOURS_MINEURES
10
38.996
20
68.087
0
VERTEX
8
CONTOURS_MINEURES
10
40.313
20
66.003
0
VERTEX
8
CONTOURS_MINEURES
10
40.313
20
64.315
0
VERTEX
8
CONTOURS_MINEURES
10
40.313
20
62.997
0
VERTEX
8
CONTOURS_MINEURES
10
42.001
20
60.983
0
VERTEX
8
CONTOURS_MINEURES
10
42.363
20
60.362
0
VERTEX
8
CONTOURS_MINEURES
10
42.691
20
60.001
0
VERTEX
8
CONTOURS_MINEURES
10
45.005
20
57.953
0
VERTEX
8
CONTOURS_MINEURES
10
45.952
20
57.953
0
VERTEX
8
CONTOURS_MINEURES
10
47.999
20
57.953
0
VERTEX
8
CONTOURS_MINEURES
10
48.513
20
57.519
0
VERTEX
8
CONTOURS_MINEURES
10
49.454
20
57.005
0
VERTEX
8
CONTOURS_MINEURES
10
49.454
20
55.549
0
VERTEX
8
CONTOURS_MINEURES
10
49.454
20
53.999
0
VERTEX
8
CONTOURS_MINEURES
10
50.459
20
53.456
0
VERTEX
8
CONTOURS_MINEURES
10
51.003
20
53.288
0
VERTEX
8
CONTOURS_MINEURES
10
51.827
20
53.175
0
VERTEX
8
CONTOURS_MINEURES
10
53.997
20
52.583
0
VERTEX
8
CONTOURS_MINEURES
10
55.581
20
52.583
0
VERTEX
8
CONTOURS_MINEURES
10
57.001
20
52.583
0
VERTEX
8
CONTOURS_MINEURES
10
58.479
20
52.520
0
VERTEX
8
CONTOURS_MINEURES
10
59.995
20
52.380
0
VERTEX
8
CONTOURS_MINEURES
10
61.377
20
52.380
0
VERTEX
8
CONTOURS_MINEURES
10
63.000
20
52.380
0
VERTEX
8
CONTOURS_MINEURES
10
64.787
20
52.217
0
VERTEX
8
CONTOURS_MINEURES
10
66.004
20
52.080
0
VERTEX
8
CONTOURS_MINEURES
10
66.982
20
51.981
0
VERTEX
8
CONTOURS_MINEURES
10
68.998
20
51.895
0
VERTEX
8
CONTOURS_MINEURES
10
69.893
20
51.895
0
VERTEX
8
CONTOURS_MINEURES
10
72.002
20
51.895
0
VERTEX
8
CONTOURS_MINEURES
10
72.841
20
51.842
0
VERTEX
8
CONTOURS_MINEURES
10
74.996
20
51.863
0
VERTEX
8
CONTOURS_MINEURES
10
77.203
20
51.798
0
VERTEX
8
CONTOURS_MINEURES
10
78.001
20
51.718
0
VERTEX
8
CONTOURS_MINEURES
10
78.717
20
51.718
0
VERTEX
8
CONTOURS_MINEURES
10
81.005
20
51.718
0
VERTEX
8
CONTOURS_MINEURES
10
81.764
20
51.763
0
VERTEX
8
CONTOURS_MINEURES
10
83.999
20
51.660
0
VERTEX
8
CONTOURS_MINEURES
10
86.286
20
51.719
0
VERTEX
8
CONTOURS_MINEURES
10
87.003
20
51.756
0
VERTEX
8
CONTOURS_MINEURES
10
89.245
20
51.756
0
VERTEX
8
CONTOURS_MINEURES
10
89.997
20
51.756
0
VERTEX
8
CONTOURS_MINEURES
10
90.794
20
51.798
0
VERTEX
8
CONTOURS_MINEURES
10
93.001
20
52.007
0
VERTEX
8
CONTOURS_MINEURES
10
94.020
20
52.022
0
VERTEX
8
CONTOURS_MINEURES
10
95.995
20
52.127
0
VERTEX
8
CONTOURS_MINEURES
10
97.122
20
52.127
0
VERTEX
8
CONTOURS_MINEURES
10
99.000
20
52.127
0
VERTEX
8
CONTOURS_MINEURES
10
100.924
20
52.080
0
VERTEX
8
CONTOURS_MINEURES
10
102.004
20
52.154
0
SEQEND
0
POLYLINE
8
CONTOURS_MINEURES
66
1
70
0
0
VERTEX
8
CONTOURS_MINEURES
10
44.720
20
68.999
0
VERTEX
8
CONTOURS_MINEURES
10
44.778
20
68.773
0
VERTEX
8
CONTOURS_MINEURES
10
45.005
20
68.418
0
VERTEX
8
CONTOURS_MINEURES
10
47.418
20
68.418
0
VERTEX
8
CONTOURS_MINEURES
10
47.999
20
68.418
0
VERTEX
8
CONTOURS_MINEURES
10
49.671
20
66.003
0
VERTEX
8
CONTOURS_MINEURES
10
49.671
20
64.671
0
VERTEX
8
CONTOURS_MINEURES
10
49.671
20
62.997
0
VERTEX
8
CONTOURS_MINEURES
10
51.003
20
61.612
0
VERTEX
8
CONTOURS_MINEURES
10
51.933
20
60.931
0
VERTEX
8
CONTOURS_MINEURES
10
53.540
20
60.001
0
VERTEX
8
CONTOURS_MINEURES
10
53.997
20
59.795
0
VERTEX
8
CONTOURS_MINEURES
10
56.795
20
59.795
0
VERTEX
8
CONTOURS_MINEURES
10
57.001
20
59.795
0
VERTEX
8
CONTOURS_MINEURES
10
59.065
20
59.070
0
VERTEX
8
CONTOURS_MINEURES
10
59.995
20
58.978
0
VERTEX
8
CONTOURS_MINEURES
10
61.022
20
58.978
0
VERTEX
8
CONTOURS_MINEURES
10
63.000
20
58.978
0
VERTEX
8
CONTOURS_MINEURES
10
64.546
20
58.547
0
VERTEX
8
CONTOURS_MINEURES
10
66.004
20
58.391
0
VERTEX
8
CONTOURS_MINEURES
10
67.786
20
58.218
0
VERTEX
8
CONTOURS_MINEURES
10
68.998
20
58.050
0
VERTEX
8
CONTOURS_MINEURES
10
70.046
20
58.050
0
VERTEX
8
CONTOURS_MINEURES
10
72.002
20
58.050
0
VERTEX
8
CONTOURS_MINEURES
10
74.080
20
57.922
0
VERTEX
8
CONTOURS_MINEURES
10
74.996
20
57.828
0
VERTEX
8
CONTOURS_MINEURES
10
77.439
20
57.565
0
VERTEX
8
CONTOURS_MINEURES
10
78.001
20
57.515
0
VERTEX
8
CONTOURS_MINEURES
10
78.511
20
57.515
0
VERTEX
8
CONTOURS_MINEURES
10
81.005
20
57.515
0
VERTEX
8
CONTOURS_MINEURES
10
83.338
20
57.666
0
VERTEX
8
CONTOURS_MINEURES
10
83.999
20
57.631
0
VERTEX
8
CONTOURS_MINEURES
10
84.613
20
57.618
0
VERTEX
8
CONTOURS_MINEURES
10
87.003
20
57.717
0
VERTEX
8
CONTOURS_MINEURES
10
89.286
20
57.717
0
VERTEX
8
CONTOURS_MINEURES
10
89.997
20
57.717
0
VERTEX
8
CONTOURS_MINEURES
10
90.720
20
57.726
0
VERTEX
8
CONTOURS_MINEURES
10
93.001
20
57.818
0
VERTEX
8
CONTOURS_MINEURES
10
95.157
20
57.844
0
VERTEX
8
CONTOURS_MINEURES
10
95.995
20
57.861
0
VERTEX
8
CONTOURS_MINEURES
10
98.141
20
57.861
0
VERTEX
8
CONTOURS_MINEURES
10
99.000
20
57.861
0
VERTEX
8
CONTOURS_MINEURES
10
99.996
20
57.999
0
VERTEX
8
CONTOURS_MINEURES
10
102.004
20
58.115
0
SEQEND
0
POLYLINE
8
CONTOURS_MINEURES
66
1
70
0
0
VERTEX
8
CONTOURS_MINEURES
10
53.827
20
68.999
0
VERTEX
8
CONTOURS_MINEURES
10
53.997
20
68.840
0
VERTEX
8
CONTOURS_MINEURES
10
54.157
20
68.840
0
VERTEX
8
CONTOURS_MINEURES
10
57.001
20
68.840
0
VERTEX
8
CONTOURS_MINEURES
10
58.607
20
67.610
0
VERTEX
8
CONTOURS_MINEURES
10
59.995
20
66.843
0
VERTEX
8
CONTOURS_MINEURES
10
62.157
20
66.843
0
VERTEX
8
CONTOURS_MINEURES
10
63.000
20
66.843
0
VERTEX
8
CONTOURS_MINEURES
10
63.563
20
66.565
0
VERTEX
8
CONTOURS_MINEURES
10
64.527
20
66.003
0
VERTEX
8
CONTOURS_MINEURES
10
64.527
20
64.475
0
VERTEX
8
CONTOURS_MINEURES
10
64.527
20
62.997
0
VERTEX
8
CONTOURS_MINEURES
10
66.004
20
62.323
0
VERTEX
8
CONTOURS_MINEURES
10
67.705
20
61.703
0
VERTEX
8
CONTOURS_MINEURES
10
68.998
20
61.469
0
VERTEX
8
CONTOURS_MINEURES
10
70.530
20
61.469
0
VERTEX
8
CONTOURS_MINEURES
10
72.002
20
61.469
0
VERTEX
8
CONTOURS_MINEURES
10
73.141
20
61.140
0
VERTEX
8
CONTOURS_MINEURES
10
74.996
20
60.912
0
VERTEX
8
CONTOURS_MINEURES
10
77.333
20
60.667
0
VERTEX
8
CONTOURS_MINEURES
10
78.001
20
60.549
0
VERTEX
8
CONTOURS_MINEURES
10
80.456
20
60.549
0
VERTEX
8
CONTOURS_MINEURES
10
81.005
20
60.549
0
VERTEX
8
CONTOURS_MINEURES
10
81.502
20
60.498
0
VERTEX
8
CONTOURS_MINEURES
10
83.999
20
60.343
0
VERTEX
8
CONTOURS_MINEURES
10
86.732
20
60.272
0
VERTEX
8
CONTOURS_MINEURES
10
87.003
20
60.268
0
VERTEX
8
CONTOURS_MINEURES
10
87.270
20
60.268
0
VERTEX
8
CONTOURS_MINEURES
10
89.997
20
60.268
0
VERTEX
8
CONTOURS_MINEURES
10
90.263
20
60.266
0
VERTEX
8
CONTOURS_MINEURES
10
93.001
20
60.308
0
VERTEX
8
CONTOURS_MINEURES
10
95.621
20
60.376
0
VERTEX
8
CONTOURS_MINEURES
10
95.995
20
60.374
0
VERTEX
8
CONTOURS_MINEURES
10
96.369
20
60.374
0
VERTEX
8
CONTOURS_MINEURES
10
99.000
20
60.374
0
VERTEX
8
CONTOURS_MINEURES
10
99.429
20
60.429
0
VERTEX
8
CONTOURS_MINEURES
10
102.004
20
60.847
0
SEQEND
0
POLYLINE
8
CONTOURS_MINEURES
66
1
70
0
0
VERTEX
8
CONTOURS_MINEURES
10
73.044
20
68.999
0
VERTEX
8
CONTOURS_MINEURES
10
74.996
20
68.189
0
VERTEX
8
CONTOURS_MINEURES
10
76.674
20
67.677
0
VERTEX
8
CONTOURS_MINEURES
10
78.001
20
67.287
0
VERTEX
8
CONTOURS_MINEURES
10
79.288
20
67.287
0
VERTEX
8
CONTOURS_MINEURES
10
81.005
20
67.287
0
VERTEX
8
CONTOURS_MINEURES
10
83.065
20
66.938
0
VERTEX
8
CONTOURS_MINEURES
10
83.999
20
66.765
0
VERTEX
8
CONTOURS_MINEURES
10
84.696
20
66.698
0
VERTEX
8
CONTOURS_MINEURES
10
87.003
20
66.642
0
VERTEX
8
CONTOURS_MINEURES
10
87.641
20
66.642
0
VERTEX
8
CONTOURS_MINEURES
10
89.997
20
66.642
0
VERTEX
8
CONTOURS_MINEURES
10
92.381
20
66.622
0
VERTEX
8
CONTOURS_MINEURES
10
93.001
20
66.562
0
VERTEX
8
CONTOURS_MINEURES
10
93.540
20
66.542
0
VERTEX
8
CONTOURS_MINEURES
10
95.995
20
66.524
0
VERTEX
8
CONTOURS_MINEURES
10
96.518
20
66.524
0
VERTEX
8
CONTOURS_MINEURES
10
99.000
20
66.524
0
VERTEX
8
CONTOURS_MINEURES
10
101.088
20
66.917
0
VERTEX
8
CONTOURS_MINEURES
10
102.004
20
66.976
0
SEQEND
0
POLYLINE
8
CONTOURS_MAJEURES
66
1
70
0
0
VERTEX
8
CONTOURS_MAJEURES
10
0.002
20
1.040
0
VERTEX
8
CONTOURS_MAJEURES
10
1.957
20
1.040
0
VERTEX
8
CONTOURS_MAJEURES
10
2.996
20
1.040
0
VERTEX
8
CONTOURS_MAJEURES
10
3.810
20
0.812
0
VERTEX
8
CONTOURS_MAJEURES
10
6.001
20
0.351
0
VERTEX
8
CONTOURS_MAJEURES
10
7.610
20
-0.000
0
SEQEND
0
POLYLINE
8
CONTOURS_MAJEURES
66
1
70
0
0
VERTEX
8
CONTOURS_MAJEURES
10
0.002
20
34.351
0
VERTEX
8
CONTOURS_MAJEURES
10
1.647
20
34.351
0
VERTEX
8
CONTOURS_MAJEURES
10
2.996
20
34.351
0
VERTEX
8
CONTOURS_MAJEURES
10
3.443
20
33.444
0
VERTEX
8
CONTOURS_MAJEURES
10
3.730
20
32.996
0
VERTEX
8
CONTOURS_MAJEURES
10
3.730
20
30.732
0
VERTEX
8
CONTOURS_MAJEURES
10
3.730
20
30.001
0
VERTEX
8
CONTOURS_MAJEURES
10
4.370
20
28.631
0
VERTEX
8
CONTOURS_MAJEURES
10
5.041
20
27.005
0
VERTEX
8
CONTOURS_MAJEURES
10
5.356
20
26.359
0
VERTEX
8
CONTOURS_MAJEURES
10
6.001
20
24.965
0
VERTEX
8
CONTOURS_MAJEURES
10
6.323
20
24.320
0
VERTEX
8
CONTOURS_MAJEURES
10
6.615
20
23.998
0
VERTEX
8
CONTOURS_MAJEURES
10
6.615
20
21.615
0
VERTEX
8
CONTOURS_MAJEURES
10
6.615
20
21.003
0
VERTEX
8
CONTOURS_MAJEURES
10
9.005
20
19.291
0
VERTEX
8
CONTOURS_MAJEURES
10
10.295
20
19.291
0
VERTEX
8
CONTOURS_MAJEURES
10
11.999
20
19.291
0
VERTEX
8
CONTOURS_MAJEURES
10
14.210
20
17.996
0
VERTEX
8
CONTOURS_MAJEURES
10
14.210
20
15.791
0
VERTEX
8
CONTOURS_MAJEURES
10
14.210
20
15.000
0
VERTEX
8
CONTOURS_MAJEURES
10
14.635
20
14.633
0
VERTEX
8
CONTOURS_MAJEURES
10
15.003
20
14.315
0
VERTEX
8
CONTOURS_MAJEURES
10
17.951
20
12.005
0
VERTEX
8
CONTOURS_MAJEURES
10
17.997
20
11.988
0
VERTEX
8
CONTOURS_MAJEURES
10
20.985
20
11.988
0
VERTEX
8
CONTOURS_MAJEURES
10
21.001
20
11.988
0
VERTEX
8
CONTOURS_MAJEURES
10
23.237
20
11.244
0
VERTEX
8
CONTOURS_MAJEURES
10
23.995
20
10.858
0
VERTEX
8
CONTOURS_MAJEURES
10
25.945
20
10.053
0
VERTEX
8
CONTOURS_MAJEURES
10
27.000
20
9.761
0
VERTEX
8
CONTOURS_MAJEURES
10
27.762
20
9.761
0
VERTEX
8
CONTOURS_MAJEURES
10
30.004
20
9.761
0
VERTEX
8
CONTOURS_MAJEURES
10
30.633
20
9.630
0
VERTEX
8
CONTOURS_MAJEURES
10
31.287
20
8.998
0
VERTEX
8
CONTOURS_MAJEURES
10
31.287
20
7.286
0
VERTEX
8
CONTOURS_MAJEURES
10
31.287
20
6.002
0
VERTEX
8
CONTOURS_MAJEURES
10
32.634
20
5.637
0
VERTEX
8
CONTOURS_MAJEURES
10
32.998
20
5.585
0
VERTEX
8
CONTOURS_MAJEURES
10
33.429
20
5.571
0
VERTEX
8
CONTOURS_MAJEURES
10
36.002
20
5.429
0
VERTEX
8
CONTOURS_MAJEURES
10
38.425
20
5.429
0
VERTEX
8
CONTOURS_MAJEURES
10
38.996
20
5.429
0
VERTEX
8
CONTOURS_MAJEURES
10
39.551
20
5.448
0
VERTEX
8
CONTOURS_MAJEURES
10
42.001
20
5.628
0
VERTEX
8
CONTOURS_MAJEURES
10
44.673
20
5.670
0
VERTEX
8
CONTOURS_MAJEURES
10
45.005
20
5.656
0
VERTEX
8
CONTOURS_MAJEURES
10
47.654
20
5.656
0
VERTEX
8
CONTOURS_MAJEURES
10
47.999
20
5.656
0
VERTEX
8
CONTOURS_MAJEURES
10
48.424
20
5.576
0
VERTEX
8
CONTOURS_MAJEURES
10
51.003
20
5.169
0
VERTEX
8
CONTOURS_MAJEURES
10
53.032
20
5.033
0
VERTEX
8
CONTOURS_MAJEURES
10
53.997
20
5.030
0
VERTEX
8
CONTOURS_MAJEURES
10
54.969
20
5.030
0
VERTEX
8
CONTOURS_MAJEURES
10
57.001
20
5.030
0
VERTEX
8
CONTOURS_MAJEURES
10
59.217
20
5.221
0
VERTEX
8
CONTOURS_MAJEURES
10
59.995
20
5.313
0
VERTEX
8
CONTOURS_MAJEURES
10
60.684
20
5.313
0
VERTEX
8
CONTOURS_MAJEURES
10
63.000
20
5.313
0
VERTEX
8
CONTOURS_MAJEURES
10
63.691
20
5.311
0
VERTEX
8
CONTOURS_MAJEURES
10
66.004
20
5.387
0
VERTEX
8
CONTOURS_MAJEURES
10
68.527
20
5.529
0
VERTEX
8
CONTOURS_MAJEURES
10
68.998
20
5.512
0
VERTEX
8
CONTOURS_MAJEURES
10
69.488
20
5.512
0
VERTEX
8
CONTOURS_MAJEURES
10
72.002
20
5.512
0
VERTEX
8
CONTOURS_MAJEURES
10
74.736
20
5.741
0
VERTEX
8
CONTOURS_MAJEURES
10
74.996
20
5.741
0
VERTEX
8
CONTOURS_MAJEURES
10
75.236
20
5.762
0
VERTEX
8
CONTOURS_MAJEURES
10
77.275
20
6.002
0
VERTEX
8
CONTOURS_MAJEURES
10
77.275
20
8.275
0
VERTEX
8
CONTOURS_MAJEURES
10
77.275
20
8.998
0
VERTEX
8
CONTOURS_MAJEURES
10
78.001
20
9.088
0
VERTEX
8
CONTOURS_MAJEURES
10
80.915
20
9.088
0
VERTEX
8
CONTOURS_MAJEURES
10
81.005
20
9.088
0
VERTEX
8
CONTOURS_MAJEURES
10
83.767
20
9.231
0
VERTEX
8
CONTOURS_MAJEURES
10
83.999
20
9.229
0
VERTEX
8
CONTOURS_MAJEURES
10
84.218
20
9.218
0
VERTEX
8
CONTOURS_MAJEURES
10
86.717
20
8.998
0
VERTEX
8
CONTOURS_MAJEURES
10
86.717
20
6.288
0
VERTEX
8
CONTOURS_MAJEURES
10
86.717
20
6.002
0
VERTEX
8
CONTOURS_MAJEURES
10
86.981
20
5.980
0
VERTEX
8
CONTOURS_MAJEURES
10
87.003
20
5.982
0
VERTEX
8
CONTOURS_MAJEURES
10
89.977
20
5.982
0
VERTEX
8
CONTOURS_MAJEURES
10
89.997
20
5.982
0
VERTEX
8
CONTOURS_MAJEURES
10
90.015
20
5.984
0
VERTEX
8
CONTOURS_MAJEURES
10
92.000
20
6.002
0
VERTEX
8
CONTOURS_MAJEURES
10
92.000
20
7.001
0
VERTEX
8
CONTOURS_MAJEURES
10
92.000
20
8.998
0
VERTEX
8
CONTOURS_MAJEURES
10
93.001
20
9.010
0
VERTEX
8
CONTOURS_MAJEURES
10
95.472
20
9.523
0
VERTEX
8
CONTOURS_MAJEURES
10
95.995
20
9.541
0
VERTEX
8
CONTOURS_MAJEURES
10
96.538
20
9.541
0
VERTEX
8
CONTOURS_MAJEURES
10
99.000
20
9.541
0
VERTEX
8
CONTOURS_MAJEURES
10
99.542
20
9.541
0
VERTEX
8
CONTOURS_MAJEURES
10
102.004
20
9.772
0
SEQEND
0
POLYLINE
8
CONTOURS_MAJEURES
66
1
70
0
0
VERTEX
8
CONTOURS_MAJEURES
10
17.293
20
68.999
0
VERTEX
8
CONTOURS_MAJEURES
10
17.503
20
68.505
0
VERTEX
8
CONTOURS_MAJEURES
10
17.997
20
66.180
0
VERTEX
8
CONTOURS_MAJEURES
10
18.174
20
66.180
0
VERTEX
8
CONTOURS_MAJEURES
10
21.001
20
66.180
0
VERTEX
8
CONTOURS_MAJEURES
10
21.054
20
66.003
0
VERTEX
8
CONTOURS_MAJEURES
10
21.054
20
63.049
0
VERTEX
8
CONTOURS_MAJEURES
10
21.054
20
62.997
0
VERTEX
8
CONTOURS_MAJEURES
10
21.071
20
62.927
0
VERTEX
8
CONTOURS_MAJEURES
10
22.031
20
60.001
0
VERTEX
8
CONTOURS_MAJEURES
10
22.738
20
58.743
0
VERTEX
8
CONTOURS_MAJEURES
10
23.093
20
57.005
0
VERTEX
8
CONTOURS_MAJEURES
10
23.093
20
56.100
0
VERTEX
8
CONTOURS_MAJEURES
10
23.093
20
53.999
0
VERTEX
8
CONTOURS_MAJEURES
10
23.995
20
52.237
0
VERTEX
8
CONTOURS_MAJEURES
10
24.934
20
51.003
0
VERTEX
8
CONTOURS_MAJEURES
10
25.998
20
50.001
0
VERTEX
8
CONTOURS_MAJEURES
10
27.000
20
48.954
0
VERTEX
8
CONTOURS_MAJEURES
10
29.047
20
48.954
0
VERTEX
8
CONTOURS_MAJEURES
10
30.004
20
48.954
0
VERTEX
8
CONTOURS_MAJEURES
10
30.551
20
48.546
0
VERTEX
8
CONTOURS_MAJEURES
10
31.061
20
47.996
0
VERTEX
8
CONTOURS_MAJEURES
10
31.061
20
46.939
0
VERTEX
8
CONTOURS_MAJEURES
10
31.061
20
45.001
0
VERTEX
8
CONTOURS_MAJEURES
10
32.057
20
44.059
0
VERTEX
8
CONTOURS_MAJEURES
10
32.998
20
43.004
0
VERTEX
8
CONTOURS_MAJEURES
10
34.650
20
42.005
0
VERTEX
8
CONTOURS_MAJEURES
10
34.650
20
40.652
0
VERTEX
8
CONTOURS_MAJEURES
10
34.650
20
38.999
0
VERTEX
8
CONTOURS_MAJEURES
10
35.597
20
38.594
0
VERTEX
8
CONTOURS_MAJEURES
10
36.002
20
38.441
0
VERTEX
8
CONTOURS_MAJEURES
10
38.439
20
38.441
0
VERTEX
8
CONTOURS_MAJEURES
10
38.996
20
38.441
0
VERTEX
8
CONTOURS_MAJEURES
10
39.727
20
38.270
0
VERTEX
8
CONTOURS_MAJEURES
10
42.001
20
38.016
0
VERTEX
8
CONTOURS_MAJEURES
10
43.913
20
37.909
0
VERTEX
8
CONTOURS_MAJEURES
10
45.005
20
37.691
0
VERTEX
8
CONTOURS_MAJEURES
10
46.692
20
37.691
0
VERTEX
8
CONTOURS_MAJEURES
10
47.999
20
37.691
0
VERTEX
8
CONTOURS_MAJEURES
10
49.399
20
37.399
0
VERTEX
8
CONTOURS_MAJEURES
10
51.003
20
36.806
0
VERTEX
8
CONTOURS_MAJEURES
10
51.766
20
36.766
0
VERTEX
8
CONTOURS_MAJEURES
10
53.997
20
36.524
0
VERTEX
8
CONTOURS_MAJEURES
10
56.479
20
36.524
0
VERTEX
8
CONTOURS_MAJEURES
10
57.001
20
36.524
0
VERTEX
8
CONTOURS_MAJEURES
10
58.963
20
37.036
0
VERTEX
8
CONTOURS_MAJEURES
10
59.995
20
36.818
0
VERTEX
8
CONTOURS_MAJEURES
10
60.813
20
36.818
0
VERTEX
8
CONTOURS_MAJEURES
10
63.000
20
36.818
0
VERTEX
8
CONTOURS_MAJEURES
10
63.780
20
36.781
0
VERTEX
8
CONTOURS_MAJEURES
10
66.004
20
36.823
0
VERTEX
8
CONTOURS_MAJEURES
10
68.590
20
36.411
0
VERTEX
8
CONTOURS_MAJEURES
10
68.998
20
36.464
0
VERTEX
8
CONTOURS_MAJEURES
10
71.540
20
36.464
0
VERTEX
8
CONTOURS_MAJEURES
10
72.002
20
36.464
0
VERTEX
8
CONTOURS_MAJEURES
10
72.521
20
36.521
0
VERTEX
8
CONTOURS_MAJEURES
10
74.996
20
36.887
0
VERTEX
8
CONTOURS_MAJEURES
10
75.868
20
36.873
0
VERTEX
8
CONTOURS_MAJEURES
10
78.001
20
37.341
0
VERTEX
8
CONTOURS_MAJEURES
10
79.663
20
37.341
0
VERTEX
8
CONTOURS_MAJEURES
10
81.005
20
37.341
0
VERTEX
8
CONTOURS_MAJEURES
10
82.385
20
37.384
0
VERTEX
8
CONTOURS_MAJEURES
10
83.999
20
36.977
0
VERTEX
8
CONTOURS_MAJEURES
10
86.402
20
36.003
0
VERTEX
8
CONTOURS_MAJEURES
10
86.849
20
35.849
0
VERTEX
8
CONTOURS_MAJEURES
10
87.003
20
35.820
0
VERTEX
8
CONTOURS_MAJEURES
10
87.186
20
35.820
0
VERTEX
8
CONTOURS_MAJEURES
10
89.997
20
35.820
0
VERTEX
8
CONTOURS_MAJEURES
10
92.641
20
35.642
0
VERTEX
8
CONTOURS_MAJEURES
10
93.001
20
35.535
0
VERTEX
8
CONTOURS_MAJEURES
10
93.493
20
35.510
0
VERTEX
8
CONTOURS_MAJEURES
10
95.995
20
35.818
0
VERTEX
8
CONTOURS_MAJEURES
10
96.180
20
35.818
0
VERTEX
8
CONTOURS_MAJEURES
10
99.000
20
35.818
0
VERTEX
8
CONTOURS_MAJEURES
10
101.845
20
35.843
0
VERTEX
8
CONTOURS_MAJEURES
10
102.004
20
35.861
0
SEQEND
0
POLYLINE
8
CONTOURS_MAJEURES
66
1
70
0
0
VERTEX
8
CONTOURS_MAJEURES
10
64.304
20
68.999
0
VERTEX
8
CONTOURS_MAJEURES
10
65.441
20
68.437
0
VERTEX
8
CONTOURS_MAJEURES
10
66.004
20
68.109
0
VERTEX
8
CONTOURS_MAJEURES
10
67.667
20
67.335
0
VERTEX
8
CONTOURS_MAJEURES
10
68.998
20
66.669
0
VERTEX
8
CONTOURS_MAJEURES
10
69.666
20
66.669
0
VERTEX
8
CONTOURS_MAJEURES
10
72.002
20
66.669
0
VERTEX
8
CONTOURS_MAJEURES
10
73.673
20
66.003
0
VERTEX
8
CONTOURS_MAJEURES
10
73.673
20
64.325
0
VERTEX
8
CONTOURS_MAJEURES
10
73.673
20
62.997
0
VERTEX
8
CONTOURS_MAJEURES
10
74.700
20
62.700
0
VERTEX
8
CONTOURS_MAJEURES
10
74.996
20
62.664
0
VERTEX
8
CONTOURS_MAJEURES
10
75.369
20
62.625
0
VERTEX
8
CONTOURS_MAJEURES
10
78.001
20
62.159
0
VERTEX
8
CONTOURS_MAJEURES
10
78.841
20
62.159
0
VERTEX
8
CONTOURS_MAJEURES
10
81.005
20
62.159
0
VERTEX
8
CONTOURS_MAJEURES
10
82.962
20
61.959
0
VERTEX
8
CONTOURS_MAJEURES
10
83.999
20
61.895
0
VERTEX
8
CONTOURS_MAJEURES
10
85.133
20
61.865
0
VERTEX
8
CONTOURS_MAJEURES
10
87.003
20
61.836
0
VERTEX
8
CONTOURS_MAJEURES
10
88.837
20
61.836
0
VERTEX
8
CONTOURS_MAJEURES
10
89.997
20
61.836
0
VERTEX
8
CONTOURS_MAJEURES
10
91.828
20
61.827
0
VERTEX
8
CONTOURS_MAJEURES
10
93.001
20
61.845
0
VERTEX
8
CONTOURS_MAJEURES
10
94.124
20
61.873
0
VERTEX
8
CONTOURS_MAJEURES
10
95.995
20
61.864
0
VERTEX
8
CONTOURS_MAJEURES
10
97.864
20
61.864
0
VERTEX
8
CONTOURS_MAJEURES
10
99.000
20
61.864
0
VERTEX
8
CONTOURS_MAJEURES
10
101.146
20
62.141
0
VERTEX
8
CONTOURS_MAJEURES
10
102.004
20
62.280
0
SEQEND
0
POLYLINE
8
PARCELLE
66
1
70
1
0
VERTEX
8
PARCELLE
10
63.103
20
50.506
0
VERTEX
8
PARCELLE
10
81.332
20
46.140
0
VERTEX
8
PARCELLE
10
82.591
20
21.595
0
VERTEX
8
PARCELLE
10
68.781
20
21.149
0
VERTEX
8
PARCELLE
10
56.418
20
20.340
0
VERTEX
8
PARCELLE
10
29.662
20
20.000
0
VERTEX
8
PARCELLE
10
20.000
20
20.599
0
VERTEX
8
PARCELLE
10
31.662
20
28.545
0
VERTEX
8
PARCELLE
10
47.719
20
39.742
0
VERTEX
8
PARCELLE
10
63.103
20
50.506
0
SEQEND
0
TEXT
8
POINTS_COTES
10
0.002
20
-0.000
40
1.0
1
329.2
0
TEXT
8
POINTS_COTES
10
21.001
20
2.996
40
1.0
1
334.6
0
TEXT
8
POINTS_COTES
10
42.001
20
6.002
40
1.0
1
340.4
0
TEXT
8
POINTS_COTES
10
63.000
20
8.998
40
1.0
1
340.7
0
TEXT
8
POINTS_COTES
10
83.999
20
12.005
40
1.0
1
342.3
0
TEXT
8
POINTS_COTES
10
0.002
20
17.996
40
1.0
1
337.8
0
TEXT
8
POINTS_COTES
10
21.001
20
21.003
40
1.0
1
342.1
0
TEXT
8
POINTS_COTES
10
42.001
20
23.998
40
1.0
1
344.6
0
TEXT
8
POINTS_COTES
10
63.000
20
27.005
40
1.0
1
346.9
0
TEXT
8
POINTS_COTES
10
83.999
20
30.001
40
1.0
1
348.1
0
TEXT
8
POINTS_COTES
10
0.002
20
36.003
40
1.0
1
340.4
0
TEXT
8
POINTS_COTES
10
21.001
20
38.999
40
1.0
1
346.3
0
TEXT
8
POINTS_COTES
10
42.001
20
42.005
40
1.0
1
350.4
0
TEXT
8
POINTS_COTES
10
63.000
20
45.001
40
1.0
1
352.7
0
TEXT
8
POINTS_COTES
10
83.999
20
47.996
40
1.0
1
352.5
0
TEXT
8
POINTS_COTES
10
0.002
20
53.999
40
1.0
1
342.9
0
TEXT
8
POINTS_COTES
10
21.001
20
57.005
40
1.0
1
348.8
0
TEXT
8
POINTS_COTES
10
42.001
20
60.001
40
1.0
1
354.8
0
TEXT
8
POINTS_COTES
10
63.000
20
62.997
40
1.0
1
358.7
0
TEXT
8
POINTS_COTES
10
83.999
20
66.003
40
1.0
1
360.7
0
ENDSEC
0
EOF
