0
SECTION
2
HEADER
0
ENDSEC
0
SECTION
2
TABLES
0
TABLE
2
LAYER
70
4
0
LAYER
2
CONTOURS_MINEURES
70
0
62
8
6
CONTINUOUS
0
LAYER
2
CONTOURS_MAJEURES
70
0
62
3
6
CONTINUOUS
0
LAYER
2
PARCELLE
70
0
62
4
6
CONTINUOUS
0
LAYER
2
POINTS_COTES
70
0
62
7
6
CONTINUOUS
0
ENDTAB
0
ENDSEC
0
SECTION
2
ENTITIES
0
POLYLINE
8
CONTOURS_MINEURES
66
1
70
0
0
VERTEX
8
CONTOURS_MINEURES
10
23.997
20
1.906
0
VERTEX
8
CONTOURS_MINEURES
10
22.439
20
1.434
0
VERTEX
8
CONTOURS_MINEURES
10
22.637
20
2.995
0
VERTEX
8
CONTOURS_MINEURES
10
23.033
20
3.963
0
VERTEX
8
CONTOURS_MINEURES
10
23.260
20
6.001
0
VERTEX
8
CONTOURS_MINEURES
10
23.260
20
8.259
0
VERTEX
8
CONTOURS_MINEURES
10
23.260
20
8.997
0
VERTEX
8
CONTOURS_MINEURES
10
23.997
20
10.156
0
VERTEX
8
CONTOURS_MINEURES
10
26.232
20
9.765
0
VERTEX
8
CONTOURS_MINEURES
10
26.999
20
10.318
0
VERTEX
8
CONTOURS_MINEURES
10
28.318
20
10.318
0
VERTEX
8
CONTOURS_MINEURES
10
30.002
20
10.318
0
VERTEX
8
CONTOURS_MINEURES
10
31.113
20
10.110
0
VERTEX
8
CONTOURS_MINEURES
10
30.536
20
8.997
0
VERTEX
8
CONTOURS_MINEURES
10
30.536
20
8.464
0
VERTEX
8
CONTOURS_MINEURES
10
30.536
20
6.001
0
VERTEX
8
CONTOURS_MINEURES
10
30.002
20
5.246
0
VERTEX
8
CONTOURS_MINEURES
10
27.754
20
5.246
0
VERTEX
8
CONTOURS_MINEURES
10
26.999
20
5.246
0
VERTEX
8
CONTOURS_MINEURES
10
25.413
20
2.995
0
VERTEX
8
CONTOURS_MINEURES
10
23.997
20
1.906
0
SEQEND
0
POLYLINE
8
CONTOURS_MINEURES
66
1
70
0
0
VERTEX
8
CONTOURS_MINEURES
10
17.508
20
-0.001
0
VERTEX
8
CONTOURS_MINEURES
10
17.621
20
0.380
0
VERTEX
8
CONTOURS_MINEURES
10
17.766
20
2.995
0
VERTEX
8
CONTOURS_MINEURES
10
18.003
20
4.325
0
VERTEX
8
CONTOURS_MINEURES
10
19.331
20
4.325
0
VERTEX
8
CONTOURS_MINEURES
10
21.005
20
4.325
0
VERTEX
8
CONTOURS_MINEURES
10
21.491
20
5.513
0
VERTEX
8
CONTOURS_MINEURES
10
21.545
20
6.001
0
VERTEX
8
CONTOURS_MINEURES
10
21.545
20
6.542
0
VERTEX
8
CONTOURS_MINEURES
10
21.545
20
8.997
0
VERTEX
8
CONTOURS_MINEURES
10
22.501
20
10.500
0
VERTEX
8
CONTOURS_MINEURES
10
23.476
20
12.004
0
VERTEX
8
CONTOURS_MINEURES
10
23.476
20
14.478
0
VERTEX
8
CONTOURS_MINEURES
10
23.476
20
14.999
0
VERTEX
8
CONTOURS_MINEURES
10
23.581
20
15.416
0
VERTEX
8
CONTOURS_MINEURES
10
23.997
20
15.885
0
VERTEX
8
CONTOURS_MINEURES
10
25.430
20
16.429
0
VERTEX
8
CONTOURS_MINEURES
10
26.999
20
17.006
0
VERTEX
8
CONTOURS_MINEURES
10
27.991
20
17.006
0
VERTEX
8
CONTOURS_MINEURES
10
30.002
20
17.006
0
VERTEX
8
CONTOURS_MINEURES
10
31.098
20
16.901
0
VERTEX
8
CONTOURS_MINEURES
10
33.004
20
17.786
0
VERTEX
8
CONTOURS_MINEURES
10
35.193
20
14.999
0
VERTEX
8
CONTOURS_MINEURES
10
35.193
20
14.195
0
VERTEX
8
CONTOURS_MINEURES
10
35.193
20
12.004
0
VERTEX
8
CONTOURS_MINEURES
10
34.027
20
10.976
0
VERTEX
8
CONTOURS_MINEURES
10
33.004
20
9.370
0
VERTEX
8
CONTOURS_MINEURES
10
32.811
20
8.997
0
VERTEX
8
CONTOURS_MINEURES
10
32.811
20
6.194
0
VERTEX
8
CONTOURS_MINEURES
10
32.811
20
6.001
0
VERTEX
8
CONTOURS_MINEURES
10
32.342
20
5.337
0
VERTEX
8
CONTOURS_MINEURES
10
30.486
20
2.995
0
VERTEX
8
CONTOURS_MINEURES
10
30.002
20
2.577
0
VERTEX
8
CONTOURS_MINEURES
10
27.418
20
2.577
0
VERTEX
8
CONTOURS_MINEURES
10
26.999
20
2.577
0
VERTEX
8
CONTOURS_MINEURES
10
24.719
20
0.719
0
VERTEX
8
CONTOURS_MINEURES
10
23.997
20
0.164
0
VERTEX
8
CONTOURS_MINEURES
10
23.450
20
-0.001
0
SEQEND
0
POLYLINE
8
CONTOURS_MINEURES
66
1
70
0
0
VERTEX
8
CONTOURS_MINEURES
10
45.004
20
27.041
0
VERTEX
8
CONTOURS_MINEURES
10
45.041
20
27.041
0
VERTEX
8
CONTOURS_MINEURES
10
47.995
20
27.041
0
VERTEX
8
CONTOURS_MINEURES
10
48.037
20
27.046
0
VERTEX
8
CONTOURS_MINEURES
10
50.998
20
27.217
0
VERTEX
8
CONTOURS_MINEURES
10
51.691
20
27.004
0
VERTEX
8
CONTOURS_MINEURES
10
54.000
20
25.374
0
VERTEX
8
CONTOURS_MINEURES
10
55.628
20
25.374
0
VERTEX
8
CONTOURS_MINEURES
10
57.003
20
25.374
0
VERTEX
8
CONTOURS_MINEURES
10
57.713
20
24.711
0
VERTEX
8
CONTOURS_MINEURES
10
58.807
20
23.997
0
VERTEX
8
CONTOURS_MINEURES
10
58.807
20
22.190
0
VERTEX
8
CONTOURS_MINEURES
10
58.807
20
21.001
0
VERTEX
8
CONTOURS_MINEURES
10
57.225
20
18.218
0
VERTEX
8
CONTOURS_MINEURES
10
57.139
20
17.995
0
VERTEX
8
CONTOURS_MINEURES
10
57.003
20
17.909
0
VERTEX
8
CONTOURS_MINEURES
10
54.086
20
17.909
0
VERTEX
8
CONTOURS_MINEURES
10
54.000
20
17.909
0
VERTEX
8
CONTOURS_MINEURES
10
51.366
20
17.628
0
VERTEX
8
CONTOURS_MINEURES
10
50.998
20
17.666
0
VERTEX
8
CONTOURS_MINEURES
10
50.730
20
17.728
0
VERTEX
8
CONTOURS_MINEURES
10
49.640
20
17.995
0
VERTEX
8
CONTOURS_MINEURES
10
47.995
20
18.492
0
VERTEX
8
CONTOURS_MINEURES
10
45.499
20
18.492
0
VERTEX
8
CONTOURS_MINEURES
10
45.004
20
18.492
0
VERTEX
8
CONTOURS_MINEURES
10
43.725
20
19.275
0
VERTEX
8
CONTOURS_MINEURES
10
42.001
20
19.822
0
VERTEX
8
CONTOURS_MINEURES
10
39.558
20
17.995
0
VERTEX
8
CONTOURS_MINEURES
10
39.151
20
17.843
0
VERTEX
8
CONTOURS_MINEURES
10
38.999
20
17.396
0
VERTEX
8
CONTOURS_MINEURES
10
38.398
20
17.396
0
VERTEX
8
CONTOURS_MINEURES
10
35.996
20
17.396
0
VERTEX
8
CONTOURS_MINEURES
10
34.351
20
17.995
0
VERTEX
8
CONTOURS_MINEURES
10
35.754
20
18.238
0
VERTEX
8
CONTOURS_MINEURES
10
35.996
20
19.135
0
VERTEX
8
CONTOURS_MINEURES
10
37.135
20
19.135
0
VERTEX
8
CONTOURS_MINEURES
10
38.999
20
19.135
0
VERTEX
8
CONTOURS_MINEURES
10
40.102
20
21.001
0
VERTEX
8
CONTOURS_MINEURES
10
40.102
20
22.897
0
VERTEX
8
CONTOURS_MINEURES
10
40.102
20
23.997
0
VERTEX
8
CONTOURS_MINEURES
10
42.001
20
24.698
0
VERTEX
8
CONTOURS_MINEURES
10
43.406
20
25.597
0
VERTEX
8
CONTOURS_MINEURES
10
44.863
20
27.004
0
VERTEX
8
CONTOURS_MINEURES
10
45.004
20
27.041
0
SEQEND
0
POLYLINE
8
CONTOURS_MINEURES
66
1
70
0
0
VERTEX
8
CONTOURS_MINEURES
10
16.344
20
-0.001
0
VERTEX
8
CONTOURS_MINEURES
10
16.724
20
1.275
0
VERTEX
8
CONTOURS_MINEURES
10
16.819
20
2.995
0
VERTEX
8
CONTOURS_MINEURES
10
17.213
20
5.211
0
VERTEX
8
CONTOURS_MINEURES
10
17.256
20
6.001
0
VERTEX
8
CONTOURS_MINEURES
10
17.256
20
6.746
0
VERTEX
8
CONTOURS_MINEURES
10
17.256
20
8.997
0
VERTEX
8
CONTOURS_MINEURES
10
18.003
20
10.742
0
VERTEX
8
CONTOURS_MINEURES
10
19.262
20
10.742
0
VERTEX
8
CONTOURS_MINEURES
10
21.005
20
10.742
0
VERTEX
8
CONTOURS_MINEURES
10
21.823
20
12.004
0
VERTEX
8
CONTOURS_MINEURES
10
21.823
20
12.823
0
VERTEX
8
CONTOURS_MINEURES
10
21.823
20
14.999
0
VERTEX
8
CONTOURS_MINEURES
10
22.260
20
16.738
0
VERTEX
8
CONTOURS_MINEURES
10
23.374
20
17.995
0
VERTEX
8
CONTOURS_MINEURES
10
23.056
20
18.940
0
VERTEX
8
CONTOURS_MINEURES
10
23.997
20
18.874
0
VERTEX
8
CONTOURS_MINEURES
10
25.439
20
19.558
0
VERTEX
8
CONTOURS_MINEURES
10
26.999
20
19.898
0
VERTEX
8
CONTOURS_MINEURES
10
28.900
20
19.898
0
VERTEX
8
CONTOURS_MINEURES
10
30.002
20
19.898
0
VERTEX
8
CONTOURS_MINEURES
10
30.857
20
20.146
0
VERTEX
8
CONTOURS_MINEURES
10
31.513
20
21.001
0
VERTEX
8
CONTOURS_MINEURES
10
31.513
20
22.509
0
VERTEX
8
CONTOURS_MINEURES
10
31.513
20
23.997
0
VERTEX
8
CONTOURS_MINEURES
10
32.500
20
24.503
0
VERTEX
8
CONTOURS_MINEURES
10
33.004
20
24.855
0
VERTEX
8
CONTOURS_MINEURES
10
35.044
20
26.047
0
VERTEX
8
CONTOURS_MINEURES
10
35.996
20
26.519
0
VERTEX
8
CONTOURS_MINEURES
10
36.480
20
26.519
0
VERTEX
8
CONTOURS_MINEURES
10
38.999
20
26.519
0
VERTEX
8
CONTOURS_MINEURES
10
39.789
20
27.004
0
VERTEX
8
CONTOURS_MINEURES
10
41.478
20
27.526
0
VERTEX
8
CONTOURS_MINEURES
10
42.001
20
27.710
0
VERTEX
8
CONTOURS_MINEURES
10
42.999
20
27.999
0
VERTEX
8
CONTOURS_MINEURES
10
45.004
20
28.531
0
VERTEX
8
CONTOURS_MINEURES
10
46.529
20
28.531
0
VERTEX
8
CONTOURS_MINEURES
10
47.995
20
28.531
0
VERTEX
8
CONTOURS_MINEURES
10
49.715
20
28.719
0
VERTEX
8
CONTOURS_MINEURES
10
50.998
20
28.793
0
VERTEX
8
CONTOURS_MINEURES
10
52.745
20
28.257
0
VERTEX
8
CONTOURS_MINEURES
10
54.000
20
27.832
0
VERTEX
8
CONTOURS_MINEURES
10
56.173
20
27.832
0
VERTEX
8
CONTOURS_MINEURES
10
57.003
20
27.832
0
VERTEX
8
CONTOURS_MINEURES
10
57.598
20
27.600
0
VERTEX
8
CONTOURS_MINEURES
10
59.140
20
27.004
0
VERTEX
8
CONTOURS_MINEURES
10
59.583
20
26.590
0
VERTEX
8
CONTOURS_MINEURES
10
59.995
20
26.322
0
VERTEX
8
CONTOURS_MINEURES
10
62.092
20
24.904
0
VERTEX
8
CONTOURS_MINEURES
10
62.997
20
24.283
0
VERTEX
8
CONTOURS_MINEURES
10
65.714
20
24.283
0
VERTEX
8
CONTOURS_MINEURES
10
66.000
20
24.283
0
VERTEX
8
CONTOURS_MINEURES
10
66.259
20
24.257
0
VERTEX
8
CONTOURS_MINEURES
10
66.588
20
23.997
0
VERTEX
8
CONTOURS_MINEURES
10
66.588
20
23.410
0
VERTEX
8
CONTOURS_MINEURES
10
66.588
20
21.001
0
VERTEX
8
CONTOURS_MINEURES
10
66.000
20
18.518
0
VERTEX
8
CONTOURS_MINEURES
10
65.478
20
18.518
0
VERTEX
8
CONTOURS_MINEURES
10
62.997
20
18.518
0
VERTEX
8
CONTOURS_MINEURES
10
62.919
20
18.073
0
VERTEX
8
CONTOURS_MINEURES
10
62.897
20
17.995
0
VERTEX
8
CONTOURS_MINEURES
10
62.080
20
15.914
0
VERTEX
8
CONTOURS_MINEURES
10
61.152
20
14.999
0
VERTEX
8
CONTOURS_MINEURES
10
61.152
20
13.158
0
VERTEX
8
CONTOURS_MINEURES
10
61.152
20
12.004
0
VERTEX
8
CONTOURS_MINEURES
10
59.995
20
11.269
0
VERTEX
8
CONTOURS_MINEURES
10
59.269
20
11.275
0
VERTEX
8
CONTOURS_MINEURES
10
57.003
20
10.830
0
VERTEX
8
CONTOURS_MINEURES
10
55.172
20
10.830
0
VERTEX
8
CONTOURS_MINEURES
10
54.000
20
10.830
0
VERTEX
8
CONTOURS_MINEURES
10
52.989
20
10.991
0
VERTEX
8
CONTOURS_MINEURES
10
50.998
20
11.199
0
VERTEX
8
CONTOURS_MINEURES
10
48.132
20
11.867
0
VERTEX
8
CONTOURS_MINEURES
10
47.995
20
11.905
0
VERTEX
8
CONTOURS_MINEURES
10
47.897
20
11.905
0
VERTEX
8
CONTOURS_MINEURES
10
45.004
20
11.905
0
VERTEX
8
CONTOURS_MINEURES
10
43.502
20
12.004
0
VERTEX
8
CONTOURS_MINEURES
10
43.502
20
13.501
0
VERTEX
8
CONTOURS_MINEURES
10
43.502
20
14.999
0
VERTEX
8
CONTOURS_MINEURES
10
42.100
20
15.097
0
VERTEX
8
CONTOURS_MINEURES
10
42.001
20
15.113
0
VERTEX
8
CONTOURS_MINEURES
10
41.918
20
15.082
0
VERTEX
8
CONTOURS_MINEURES
10
41.890
20
14.999
0
VERTEX
8
CONTOURS_MINEURES
10
41.890
20
14.888
0
VERTEX
8
CONTOURS_MINEURES
10
41.890
20
12.004
0
VERTEX
8
CONTOURS_MINEURES
10
38.999
20
9.495
0
VERTEX
8
CONTOURS_MINEURES
10
36.494
20
9.495
0
VERTEX
8
CONTOURS_MINEURES
10
35.996
20
9.495
0
VERTEX
8
CONTOURS_MINEURES
10
35.732
20
9.262
0
VERTEX
8
CONTOURS_MINEURES
10
35.563
20
8.997
0
VERTEX
8
CONTOURS_MINEURES
10
35.563
20
8.563
0
VERTEX
8
CONTOURS_MINEURES
10
35.563
20
6.001
0
VERTEX
8
CONTOURS_MINEURES
10
34.089
20
4.912
0
VERTEX
8
CONTOURS_MINEURES
10
33.004
20
4.136
0
VERTEX
8
CONTOURS_MINEURES
10
32.100
20
2.995
0
VERTEX
8
CONTOURS_MINEURES
10
30.002
20
1.183
0
VERTEX
8
CONTOURS_MINEURES
10
28.815
20
1.183
0
VERTEX
8
CONTOURS_MINEURES
10
26.999
20
1.183
0
VERTEX
8
CONTOURS_MINEURES
10
25.545
20
-0.001
0
SEQEND
0
POLYLINE
8
CONTOURS_MINEURES
66
1
70
0
0
VERTEX
8
CONTOURS_MINEURES
10
74.996
20
2.262
0
VERTEX
8
CONTOURS_MINEURES
10
74.264
20
2.262
0
VERTEX
8
CONTOURS_MINEURES
10
72.005
20
2.262
0
VERTEX
8
CONTOURS_MINEURES
10
69.467
20
2.531
0
VERTEX
8
CONTOURS_MINEURES
10
69.002
20
2.567
0
VERTEX
8
CONTOURS_MINEURES
10
66.563
20
2.433
0
VERTEX
8
CONTOURS_MINEURES
10
66.000
20
2.408
0
VERTEX
8
CONTOURS_MINEURES
10
65.412
20
2.408
0
VERTEX
8
CONTOURS_MINEURES
10
62.997
20
2.408
0
VERTEX
8
CONTOURS_MINEURES
10
60.383
20
2.607
0
VERTEX
8
CONTOURS_MINEURES
10
59.995
20
2.583
0
VERTEX
8
CONTOURS_MINEURES
10
59.736
20
2.735
0
VERTEX
8
CONTOURS_MINEURES
10
59.229
20
2.995
0
VERTEX
8
CONTOURS_MINEURES
10
57.723
20
3.718
0
VERTEX
8
CONTOURS_MINEURES
10
57.003
20
3.723
0
VERTEX
8
CONTOURS_MINEURES
10
56.275
20
3.723
0
VERTEX
8
CONTOURS_MINEURES
10
54.000
20
3.723
0
VERTEX
8
CONTOURS_MINEURES
10
52.428
20
4.427
0
VERTEX
8
CONTOURS_MINEURES
10
50.998
20
4.653
0
VERTEX
8
CONTOURS_MINEURES
10
50.130
20
5.132
0
VERTEX
8
CONTOURS_MINEURES
10
47.995
20
5.664
0
VERTEX
8
CONTOURS_MINEURES
10
45.339
20
5.664
0
VERTEX
8
CONTOURS_MINEURES
10
45.004
20
5.664
0
VERTEX
8
CONTOURS_MINEURES
10
44.705
20
5.702
0
VERTEX
8
CONTOURS_MINEURES
10
42.001
20
5.812
0
VERTEX
8
CONTOURS_MINEURES
10
41.692
20
5.692
0
VERTEX
8
CONTOURS_MINEURES
10
38.999
20
4.255
0
VERTEX
8
CONTOURS_MINEURES
10
37.740
20
4.255
0
VERTEX
8
CONTOURS_MINEURES
10
35.996
20
4.255
0
VERTEX
8
CONTOURS_MINEURES
10
35.273
20
3.721
0
VERTEX
8
CONTOURS_MINEURES
10
34.258
20
2.995
0
VERTEX
8
CONTOURS_MINEURES
10
33.004
20
2.235
0
VERTEX
8
CONTOURS_MINEURES
10
30.314
20
-0.001
0
SEQEND
0
POLYLINE
8
CONTOURS_MINEURES
66
1
70
0
0
VERTEX
8
CONTOURS_MINEURES
10
-0.002
20
35.841
0
VERTEX
8
CONTOURS_MINEURES
10
1.025
20
34.023
0
VERTEX
8
CONTOURS_MINEURES
10
3.001
20
34.608
0
VERTEX
8
CONTOURS_MINEURES
10
4.393
20
34.608
0
VERTEX
8
CONTOURS_MINEURES
10
6.003
20
34.608
0
VERTEX
8
CONTOURS_MINEURES
10
7.090
20
34.087
0
VERTEX
8
CONTOURS_MINEURES
10
8.995
20
33.771
0
VERTEX
8
CONTOURS_MINEURES
10
10.539
20
32.995
0
VERTEX
8
CONTOURS_MINEURES
10
10.539
20
31.540
0
VERTEX
8
CONTOURS_MINEURES
10
10.539
20
29.999
0
VERTEX
8
CONTOURS_MINEURES
10
11.998
20
27.685
0
VERTEX
8
CONTOURS_MINEURES
10
12.680
20
27.685
0
VERTEX
8
CONTOURS_MINEURES
10
15.000
20
27.685
0
VERTEX
8
CONTOURS_MINEURES
10
15.239
20
27.243
0
VERTEX
8
CONTOURS_MINEURES
10
15.567
20
27.004
0
VERTEX
8
CONTOURS_MINEURES
10
18.003
20
25.543
0
VERTEX
8
CONTOURS_MINEURES
10
19.546
20
25.543
0
VERTEX
8
CONTOURS_MINEURES
10
21.005
20
25.543
0
VERTEX
8
CONTOURS_MINEURES
10
22.564
20
25.437
0
VERTEX
8
CONTOURS_MINEURES
10
23.997
20
24.918
0
VERTEX
8
CONTOURS_MINEURES
10
24.946
20
24.947
0
VERTEX
8
CONTOURS_MINEURES
10
26.999
20
25.261
0
VERTEX
8
CONTOURS_MINEURES
10
28.261
20
25.261
0
VERTEX
8
CONTOURS_MINEURES
10
30.002
20
25.261
0
VERTEX
8
CONTOURS_MINEURES
10
31.153
20
25.851
0
VERTEX
8
CONTOURS_MINEURES
10
32.808
20
27.004
0
VERTEX
8
CONTOURS_MINEURES
10
33.004
20
27.102
0
VERTEX
8
CONTOURS_MINEURES
10
35.043
20
27.958
0
VERTEX
8
CONTOURS_MINEURES
10
35.996
20
28.156
0
VERTEX
8
CONTOURS_MINEURES
10
37.844
20
28.156
0
VERTEX
8
CONTOURS_MINEURES
10
38.999
20
28.156
0
VERTEX
8
CONTOURS_MINEURES
10
40.409
20
28.592
0
VERTEX
8
CONTOURS_MINEURES
10
42.001
20
29.150
0
VERTEX
8
CONTOURS_MINEURES
10
44.929
20
29.999
0
VERTEX
8
CONTOURS_MINEURES
10
44.929
20
32.921
0
VERTEX
8
CONTOURS_MINEURES
10
44.929
20
32.995
0
VERTEX
8
CONTOURS_MINEURES
10
44.983
20
33.016
0
VERTEX
8
CONTOURS_MINEURES
10
45.004
20
33.020
0
VERTEX
8
CONTOURS_MINEURES
10
45.028
20
33.020
0
VERTEX
8
CONTOURS_MINEURES
10
47.995
20
33.020
0
VERTEX
8
CONTOURS_MINEURES
10
50.656
20
33.337
0
VERTEX
8
CONTOURS_MINEURES
10
50.998
20
33.394
0
VERTEX
8
CONTOURS_MINEURES
10
51.294
20
33.292
0
VERTEX
8
CONTOURS_MINEURES
10
52.043
20
32.995
0
VERTEX
8
CONTOURS_MINEURES
10
52.043
20
31.952
0
VERTEX
8
CONTOURS_MINEURES
10
52.043
20
29.999
0
VERTEX
8
CONTOURS_MINEURES
10
54.000
20
29.337
0
VERTEX
8
CONTOURS_MINEURES
10
54.664
20
29.337
0
VERTEX
8
CONTOURS_MINEURES
10
57.003
20
29.337
0
VERTEX
8
CONTOURS_MINEURES
10
58.680
20
28.683
0
VERTEX
8
CONTOURS_MINEURES
10
59.995
20
28.175
0
VERTEX
8
CONTOURS_MINEURES
10
62.779
20
27.221
0
VERTEX
8
CONTOURS_MINEURES
10
62.997
20
27.202
0
VERTEX
8
CONTOURS_MINEURES
10
65.801
20
27.202
0
VERTEX
8
CONTOURS_MINEURES
10
66.000
20
27.202
0
VERTEX
8
CONTOURS_MINEURES
10
66.315
20
27.318
0
VERTEX
8
CONTOURS_MINEURES
10
68.852
20
27.004
0
VERTEX
8
CONTOURS_MINEURES
10
68.989
20
26.990
0
VERTEX
8
CONTOURS_MINEURES
10
69.002
20
26.979
0
VERTEX
8
CONTOURS_MINEURES
10
69.043
20
27.004
0
VERTEX
8
CONTOURS_MINEURES
10
72.005
20
28.590
0
VERTEX
8
CONTOURS_MINEURES
10
73.413
20
28.590
0
VERTEX
8
CONTOURS_MINEURES
10
74.996
20
28.590
0
SEQEND
0
POLYLINE
8
CONTOURS_MINEURES
66
1
70
0
0
VERTEX
8
CONTOURS_MINEURES
10
15.181
20
-0.001
0
VERTEX
8
CONTOURS_MINEURES
10
15.826
20
2.171
0
VERTEX
8
CONTOURS_MINEURES
10
15.872
20
2.995
0
VERTEX
8
CONTOURS_MINEURES
10
16.061
20
4.056
0
VERTEX
8
CONTOURS_MINEURES
10
16.166
20
6.001
0
VERTEX
8
CONTOURS_MINEURES
10
16.166
20
7.833
0
VERTEX
8
CONTOURS_MINEURES
10
16.166
20
8.997
0
VERTEX
8
CONTOURS_MINEURES
10
17.040
20
11.039
0
VERTEX
8
CONTOURS_MINEURES
10
17.248
20
12.004
0
VERTEX
8
CONTOURS_MINEURES
10
17.248
20
14.247
0
VERTEX
8
CONTOURS_MINEURES
10
17.248
20
14.999
0
VERTEX
8
CONTOURS_MINEURES
10
16.871
20
16.128
0
VERTEX
8
CONTOURS_MINEURES
10
17.833
20
17.995
0
VERTEX
8
CONTOURS_MINEURES
10
16.944
20
19.941
0
VERTEX
8
CONTOURS_MINEURES
10
15.000
20
20.141
0
VERTEX
8
CONTOURS_MINEURES
10
14.140
20
20.141
0
VERTEX
8
CONTOURS_MINEURES
10
11.998
20
20.141
0
VERTEX
8
CONTOURS_MINEURES
10
11.382
20
20.385
0
VERTEX
8
CONTOURS_MINEURES
10
8.995
20
20.945
0
VERTEX
8
CONTOURS_MINEURES
10
8.647
20
21.001
0
VERTEX
8
CONTOURS_MINEURES
10
8.647
20
23.649
0
VERTEX
8
CONTOURS_MINEURES
10
8.647
20
23.997
0
VERTEX
8
CONTOURS_MINEURES
10
6.003
20
24.774
0
VERTEX
8
CONTOURS_MINEURES
10
3.777
20
24.774
0
VERTEX
8
CONTOURS_MINEURES
10
3.001
20
24.774
0
VERTEX
8
CONTOURS_MINEURES
10
0.424
20
27.004
0
VERTEX
8
CONTOURS_MINEURES
10
0.396
20
27.400
0
VERTEX
8
CONTOURS_MINEURES
10
-0.002
20
27.763
0
SEQEND
0
POLYLINE
8
CONTOURS_MINEURES
66
1
70
0
0
VERTEX
8
CONTOURS_MINEURES
10
-0.002
20
38.721
0
VERTEX
8
CONTOURS_MINEURES
10
0.507
20
38.490
0
VERTEX
8
CONTOURS_MINEURES
10
3.001
20
36.961
0
VERTEX
8
CONTOURS_MINEURES
10
3.962
20
36.961
0
VERTEX
8
CONTOURS_MINEURES
10
6.003
20
36.961
0
VERTEX
8
CONTOURS_MINEURES
10
8.796
20
36.002
0
VERTEX
8
CONTOURS_MINEURES
10
8.931
20
35.937
0
VERTEX
8
CONTOURS_MINEURES
10
8.995
20
35.926
0
VERTEX
8
CONTOURS_MINEURES
10
9.146
20
35.850
0
VERTEX
8
CONTOURS_MINEURES
10
11.998
20
34.684
0
VERTEX
8
CONTOURS_MINEURES
10
13.684
20
34.684
0
VERTEX
8
CONTOURS_MINEURES
10
15.000
20
34.684
0
VERTEX
8
CONTOURS_MINEURES
10
17.432
20
32.995
0
VERTEX
8
CONTOURS_MINEURES
10
17.432
20
30.569
0
VERTEX
8
CONTOURS_MINEURES
10
17.432
20
29.999
0
VERTEX
8
CONTOURS_MINEURES
10
17.632
20
29.629
0
VERTEX
8
CONTOURS_MINEURES
10
18.003
20
29.359
0
VERTEX
8
CONTOURS_MINEURES
10
20.363
20
29.359
0
VERTEX
8
CONTOURS_MINEURES
10
21.005
20
29.359
0
VERTEX
8
CONTOURS_MINEURES
10
22.789
20
28.214
0
VERTEX
8
CONTOURS_MINEURES
10
23.997
20
27.326
0
VERTEX
8
CONTOURS_MINEURES
10
24.280
20
27.286
0
VERTEX
8
CONTOURS_MINEURES
10
26.999
20
27.380
0
VERTEX
8
CONTOURS_MINEURES
10
29.625
20
27.380
0
VERTEX
8
CONTOURS_MINEURES
10
30.002
20
27.380
0
VERTEX
8
CONTOURS_MINEURES
10
30.480
20
27.481
0
VERTEX
8
CONTOURS_MINEURES
10
33.004
20
28.744
0
VERTEX
8
CONTOURS_MINEURES
10
33.888
20
29.115
0
VERTEX
8
CONTOURS_MINEURES
10
35.996
20
29.553
0
VERTEX
8
CONTOURS_MINEURES
10
36.444
20
29.553
0
VERTEX
8
CONTOURS_MINEURES
10
38.999
20
29.553
0
VERTEX
8
CONTOURS_MINEURES
10
39.341
20
29.658
0
VERTEX
8
CONTOURS_MINEURES
10
40.315
20
29.999
0
VERTEX
8
CONTOURS_MINEURES
10
40.315
20
31.682
0
VERTEX
8
CONTOURS_MINEURES
10
40.315
20
32.995
0
VERTEX
8
CONTOURS_MINEURES
10
42.001
20
33.790
0
VERTEX
8
CONTOURS_MINEURES
10
43.590
20
34.411
0
VERTEX
8
CONTOURS_MINEURES
10
45.004
20
34.649
0
VERTEX
8
CONTOURS_MINEURES
10
46.650
20
34.649
0
VERTEX
8
CONTOURS_MINEURES
10
47.995
20
34.649
0
VERTEX
8
CONTOURS_MINEURES
10
49.202
20
34.793
0
VERTEX
8
CONTOURS_MINEURES
10
50.998
20
35.093
0
VERTEX
8
CONTOURS_MINEURES
10
52.556
20
34.555
0
VERTEX
8
CONTOURS_MINEURES
10
54.000
20
33.983
0
VERTEX
8
CONTOURS_MINEURES
10
54.987
20
33.983
0
VERTEX
8
CONTOURS_MINEURES
10
57.003
20
33.983
0
VERTEX
8
CONTOURS_MINEURES
10
59.165
20
32.995
0
VERTEX
8
CONTOURS_MINEURES
10
59.165
20
30.830
0
VERTEX
8
CONTOURS_MINEURES
10
59.165
20
29.999
0
VERTEX
8
CONTOURS_MINEURES
10
59.762
20
29.767
0
VERTEX
8
CONTOURS_MINEURES
10
59.995
20
29.677
0
VERTEX
8
CONTOURS_MINEURES
10
60.487
20
29.508
0
VERTEX
8
CONTOURS_MINEURES
10
62.997
20
29.290
0
VERTEX
8
CONTOURS_MINEURES
10
63.709
20
29.290
0
VERTEX
8
CONTOURS_MINEURES
10
66.000
20
29.290
0
VERTEX
8
CONTOURS_MINEURES
10
67.926
20
29.999
0
VERTEX
8
CONTOURS_MINEURES
10
67.926
20
31.073
0
VERTEX
8
CONTOURS_MINEURES
10
67.926
20
32.995
0
VERTEX
8
CONTOURS_MINEURES
10
69.002
20
33.811
0
VERTEX
8
CONTOURS_MINEURES
10
71.196
20
35.192
0
VERTEX
8
CONTOURS_MINEURES
10
72.005
20
35.721
0
VERTEX
8
CONTOURS_MINEURES
10
74.717
20
35.721
0
VERTEX
8
CONTOURS_MINEURES
10
74.996
20
35.721
0
SEQEND
0
POLYLINE
8
CONTOURS_MINEURES
66
1
70
0
0
VERTEX
8
CONTOURS_MINEURES
10
11.231
20
-0.001
0
VERTEX
8
CONTOURS_MINEURES
10
11.241
20
0.753
0
VERTEX
8
CONTOURS_MINEURES
10
11.905
20
2.995
0
VERTEX
8
CONTOURS_MINEURES
10
11.998
20
4.598
0
VERTEX
8
CONTOURS_MINEURES
10
13.399
20
4.598
0
VERTEX
8
CONTOURS_MINEURES
10
15.000
20
4.598
0
VERTEX
8
CONTOURS_MINEURES
10
15.076
20
6.001
0
VERTEX
8
CONTOURS_MINEURES
10
15.076
20
8.921
0
VERTEX
8
CONTOURS_MINEURES
10
15.076
20
8.997
0
VERTEX
8
CONTOURS_MINEURES
10
15.134
20
9.130
0
VERTEX
8
CONTOURS_MINEURES
10
15.754
20
12.004
0
VERTEX
8
CONTOURS_MINEURES
10
15.754
20
12.756
0
VERTEX
8
CONTOURS_MINEURES
10
15.754
20
14.999
0
VERTEX
8
CONTOURS_MINEURES
10
15.000
20
17.257
0
VERTEX
8
CONTOURS_MINEURES
10
14.261
20
17.257
0
VERTEX
8
CONTOURS_MINEURES
10
11.998
20
17.257
0
VERTEX
8
CONTOURS_MINEURES
10
10.932
20
17.995
0
VERTEX
8
CONTOURS_MINEURES
10
9.546
20
18.546
0
VERTEX
8
CONTOURS_MINEURES
10
8.995
20
18.676
0
VERTEX
8
CONTOURS_MINEURES
10
8.187
20
18.807
0
VERTEX
8
CONTOURS_MINEURES
10
6.003
20
19.106
0
VERTEX
8
CONTOURS_MINEURES
10
4.893
20
19.106
0
VERTEX
8
CONTOURS_MINEURES
10
3.001
20
19.106
0
VERTEX
8
CONTOURS_MINEURES
10
1.432
20
19.430
0
VERTEX
8
CONTOURS_MINEURES
10
-0.002
20
20.467
0
SEQEND
0
POLYLINE
8
CONTOURS_MINEURES
66
1
70
0
0
VERTEX
8
CONTOURS_MINEURES
10
51.101
20
-0.001
0
VERTEX
8
CONTOURS_MINEURES
10
51.051
20
0.051
0
VERTEX
8
CONTOURS_MINEURES
10
50.998
20
0.079
0
VERTEX
8
CONTOURS_MINEURES
10
50.569
20
0.427
0
VERTEX
8
CONTOURS_MINEURES
10
47.995
20
2.640
0
VERTEX
8
CONTOURS_MINEURES
10
47.641
20
2.640
0
VERTEX
8
CONTOURS_MINEURES
10
45.004
20
2.640
0
VERTEX
8
CONTOURS_MINEURES
10
44.807
20
2.798
0
VERTEX
8
CONTOURS_MINEURES
10
42.925
20
2.995
0
VERTEX
8
CONTOURS_MINEURES
10
42.105
20
3.099
0
VERTEX
8
CONTOURS_MINEURES
10
42.001
20
3.103
0
VERTEX
8
CONTOURS_MINEURES
10
41.722
20
2.995
0
VERTEX
8
CONTOURS_MINEURES
10
39.698
20
2.297
0
VERTEX
8
CONTOURS_MINEURES
10
38.999
20
2.315
0
VERTEX
8
CONTOURS_MINEURES
10
38.318
20
2.315
0
VERTEX
8
CONTOURS_MINEURES
10
35.996
20
2.315
0
VERTEX
8
CONTOURS_MINEURES
10
34.293
20
1.289
0
VERTEX
8
CONTOURS_MINEURES
10
33.004
20
0.508
0
VERTEX
8
CONTOURS_MINEURES
10
32.391
20
-0.001
0
SEQEND
0
POLYLINE
8
CONTOURS_MINEURES
66
1
70
0
0
VERTEX
8
CONTOURS_MINEURES
10
-0.002
20
43.944
0
VERTEX
8
CONTOURS_MINEURES
10
2.873
20
42.004
0
VERTEX
8
CONTOURS_MINEURES
10
2.873
20
41.876
0
VERTEX
8
CONTOURS_MINEURES
10
2.873
20
38.997
0
VERTEX
8
CONTOURS_MINEURES
10
3.001
20
38.919
0
VERTEX
8
CONTOURS_MINEURES
10
5.925
20
38.919
0
VERTEX
8
CONTOURS_MINEURES
10
6.003
20
38.919
0
VERTEX
8
CONTOURS_MINEURES
10
6.122
20
38.878
0
VERTEX
8
CONTOURS_MINEURES
10
8.995
20
37.573
0
VERTEX
8
CONTOURS_MINEURES
10
10.244
20
37.248
0
VERTEX
8
CONTOURS_MINEURES
10
11.998
20
36.791
0
VERTEX
8
CONTOURS_MINEURES
10
14.209
20
36.791
0
VERTEX
8
CONTOURS_MINEURES
10
15.000
20
36.791
0
VERTEX
8
CONTOURS_MINEURES
10
17.387
20
36.002
0
VERTEX
8
CONTOURS_MINEURES
10
18.003
20
35.614
0
VERTEX
8
CONTOURS_MINEURES
10
20.618
20
35.614
0
VERTEX
8
CONTOURS_MINEURES
10
21.005
20
35.614
0
VERTEX
8
CONTOURS_MINEURES
10
22.713
20
34.712
0
VERTEX
8
CONTOURS_MINEURES
10
23.997
20
33.506
0
VERTEX
8
CONTOURS_MINEURES
10
26.785
20
32.995
0
VERTEX
8
CONTOURS_MINEURES
10
26.785
20
30.213
0
VERTEX
8
CONTOURS_MINEURES
10
26.785
20
29.999
0
VERTEX
8
CONTOURS_MINEURES
10
26.972
20
29.973
0
VERTEX
8
CONTOURS_MINEURES
10
26.999
20
29.974
0
VERTEX
8
CONTOURS_MINEURES
10
27.025
20
29.974
0
VERTEX
8
CONTOURS_MINEURES
10
30.002
20
29.974
0
VERTEX
8
CONTOURS_MINEURES
10
30.124
20
29.999
0
VERTEX
8
CONTOURS_MINEURES
10
30.124
20
30.122
0
VERTEX
8
CONTOURS_MINEURES
10
30.124
20
32.995
0
VERTEX
8
CONTOURS_MINEURES
10
32.057
20
33.944
0
VERTEX
8
CONTOURS_MINEURES
10
33.004
20
33.931
0
VERTEX
8
CONTOURS_MINEURES
10
34.078
20
34.074
0
VERTEX
8
CONTOURS_MINEURES
10
35.996
20
34.854
0
VERTEX
8
CONTOURS_MINEURES
10
37.143
20
34.854
0
VERTEX
8
CONTOURS_MINEURES
10
38.999
20
34.854
0
VERTEX
8
CONTOURS_MINEURES
10
41.489
20
35.488
0
VERTEX
8
CONTOURS_MINEURES
10
42.001
20
35.730
0
VERTEX
8
CONTOURS_MINEURES
10
42.196
20
35.806
0
VERTEX
8
CONTOURS_MINEURES
10
43.357
20
36.002
0
VERTEX
8
CONTOURS_MINEURES
10
44.477
20
36.527
0
VERTEX
8
CONTOURS_MINEURES
10
45.004
20
36.591
0
VERTEX
8
CONTOURS_MINEURES
10
47.407
20
36.591
0
VERTEX
8
CONTOURS_MINEURES
10
47.995
20
36.591
0
VERTEX
8
CONTOURS_MINEURES
10
48.582
20
36.587
0
VERTEX
8
CONTOURS_MINEURES
10
50.998
20
37.197
0
VERTEX
8
CONTOURS_MINEURES
10
51.923
20
36.924
0
VERTEX
8
CONTOURS_MINEURES
10
53.287
20
36.002
0
VERTEX
8
CONTOURS_MINEURES
10
53.818
20
35.819
0
VERTEX
8
CONTOURS_MINEURES
10
54.000
20
35.746
0
VERTEX
8
CONTOURS_MINEURES
10
56.748
20
35.746
0
VERTEX
8
CONTOURS_MINEURES
10
57.003
20
35.746
0
VERTEX
8
CONTOURS_MINEURES
10
57.469
20
35.533
0
VERTEX
8
CONTOURS_MINEURES
10
59.995
20
34.640
0
VERTEX
8
CONTOURS_MINEURES
10
61.484
20
34.510
0
VERTEX
8
CONTOURS_MINEURES
10
62.997
20
35.344
0
VERTEX
8
CONTOURS_MINEURES
10
63.655
20
35.344
0
VERTEX
8
CONTOURS_MINEURES
10
66.000
20
35.344
0
VERTEX
8
CONTOURS_MINEURES
10
66.823
20
36.002
0
VERTEX
8
CONTOURS_MINEURES
10
69.002
20
38.114
0
VERTEX
8
CONTOURS_MINEURES
10
69.545
20
38.456
0
VERTEX
8
CONTOURS_MINEURES
10
70.560
20
38.997
0
VERTEX
8
CONTOURS_MINEURES
10
70.560
20
40.558
0
VERTEX
8
CONTOURS_MINEURES
10
70.560
20
42.004
0
VERTEX
8
CONTOURS_MINEURES
10
71.437
20
42.570
0
VERTEX
8
CONTOURS_MINEURES
10
72.005
20
42.908
0
VERTEX
8
CONTOURS_MINEURES
10
72.907
20
42.908
0
VERTEX
8
CONTOURS_MINEURES
10
74.996
20
42.908
0
SEQEND
0
POLYLINE
8
CONTOURS_MINEURES
66
1
70
0
0
VERTEX
8
CONTOURS_MINEURES
10
10.324
20
-0.001
0
VERTEX
8
CONTOURS_MINEURES
10
10.346
20
1.646
0
VERTEX
8
CONTOURS_MINEURES
10
10.746
20
2.995
0
VERTEX
8
CONTOURS_MINEURES
10
10.853
20
4.855
0
VERTEX
8
CONTOURS_MINEURES
10
10.684
20
6.001
0
VERTEX
8
CONTOURS_MINEURES
10
10.684
20
7.686
0
VERTEX
8
CONTOURS_MINEURES
10
10.684
20
8.997
0
VERTEX
8
CONTOURS_MINEURES
10
10.098
20
10.899
0
VERTEX
8
CONTOURS_MINEURES
10
10.562
20
12.004
0
VERTEX
8
CONTOURS_MINEURES
10
10.562
20
13.566
0
VERTEX
8
CONTOURS_MINEURES
10
10.562
20
14.999
0
VERTEX
8
CONTOURS_MINEURES
10
8.995
20
16.304
0
VERTEX
8
CONTOURS_MINEURES
10
7.499
20
16.497
0
VERTEX
8
CONTOURS_MINEURES
10
6.003
20
16.711
0
VERTEX
8
CONTOURS_MINEURES
10
4.288
20
16.711
0
VERTEX
8
CONTOURS_MINEURES
10
3.001
20
16.711
0
VERTEX
8
CONTOURS_MINEURES
10
1.798
20
16.794
0
VERTEX
8
CONTOURS_MINEURES
10
-0.002
20
17.249
0
SEQEND
0
POLYLINE
8
CONTOURS_MINEURES
66
1
70
0
0
VERTEX
8
CONTOURS_MINEURES
10
43.393
20
-0.001
0
VERTEX
8
CONTOURS_MINEURES
10
42.624
20
0.620
0
VERTEX
8
CONTOURS_MINEURES
10
42.001
20
0.685
0
VERTEX
8
CONTOURS_MINEURES
10
41.490
20
0.509
0
VERTEX
8
CONTOURS_MINEURES
10
38.999
20
0.574
0
VERTEX
8
CONTOURS_MINEURES
10
36.572
20
0.574
0
VERTEX
8
CONTOURS_MINEURES
10
35.996
20
0.574
0
VERTEX
8
CONTOURS_MINEURES
10
35.042
20
-0.001
0
SEQEND
0
POLYLINE
8
CONTOURS_MINEURES
66
1
70
0
0
VERTEX
8
CONTOURS_MINEURES
10
-0.002
20
49.832
0
VERTEX
8
CONTOURS_MINEURES
10
1.748
20
47.995
0
VERTEX
8
CONTOURS_MINEURES
10
1.748
20
46.249
0
VERTEX
8
CONTOURS_MINEURES
10
1.748
20
45.000
0
VERTEX
8
CONTOURS_MINEURES
10
3.001
20
44.175
0
VERTEX
8
CONTOURS_MINEURES
10
5.176
20
44.175
0
VERTEX
8
CONTOURS_MINEURES
10
6.003
20
44.175
0
VERTEX
8
CONTOURS_MINEURES
10
7.297
20
43.300
0
VERTEX
8
CONTOURS_MINEURES
10
8.995
20
42.274
0
VERTEX
8
CONTOURS_MINEURES
10
9.777
20
42.004
0
VERTEX
8
CONTOURS_MINEURES
10
9.777
20
41.221
0
VERTEX
8
CONTOURS_MINEURES
10
9.777
20
38.997
0
VERTEX
8
CONTOURS_MINEURES
10
11.538
20
38.539
0
VERTEX
8
CONTOURS_MINEURES
10
11.998
20
38.419
0
VERTEX
8
CONTOURS_MINEURES
10
12.577
20
38.419
0
VERTEX
8
CONTOURS_MINEURES
10
15.000
20
38.419
0
VERTEX
8
CONTOURS_MINEURES
10
15.867
20
38.133
0
VERTEX
8
CONTOURS_MINEURES
10
18.003
20
37.635
0
VERTEX
8
CONTOURS_MINEURES
10
19.640
20
37.635
0
VERTEX
8
CONTOURS_MINEURES
10
21.005
20
37.635
0
VERTEX
8
CONTOURS_MINEURES
10
23.000
20
37.000
0
VERTEX
8
CONTOURS_MINEURES
10
23.997
20
36.982
0
VERTEX
8
CONTOURS_MINEURES
10
25.813
20
37.186
0
VERTEX
8
CONTOURS_MINEURES
10
26.999
20
37.689
0
VERTEX
8
CONTOURS_MINEURES
10
28.690
20
37.689
0
VERTEX
8
CONTOURS_MINEURES
10
30.002
20
37.689
0
VERTEX
8
CONTOURS_MINEURES
10
31.329
20
37.674
0
VERTEX
8
CONTOURS_MINEURES
10
33.004
20
38.132
0
VERTEX
8
CONTOURS_MINEURES
10
35.718
20
38.997
0
VERTEX
8
CONTOURS_MINEURES
10
35.718
20
41.724
0
VERTEX
8
CONTOURS_MINEURES
10
35.718
20
42.004
0
VERTEX
8
CONTOURS_MINEURES
10
35.942
20
42.059
0
VERTEX
8
CONTOURS_MINEURES
10
35.996
20
42.087
0
VERTEX
8
CONTOURS_MINEURES
10
36.079
20
42.087
0
VERTEX
8
CONTOURS_MINEURES
10
38.999
20
42.087
0
VERTEX
8
CONTOURS_MINEURES
10
41.338
20
42.666
0
VERTEX
8
CONTOURS_MINEURES
10
42.001
20
42.808
0
VERTEX
8
CONTOURS_MINEURES
10
43.926
20
43.079
0
VERTEX
8
CONTOURS_MINEURES
10
45.004
20
43.066
0
VERTEX
8
CONTOURS_MINEURES
10
46.065
20
43.066
0
VERTEX
8
CONTOURS_MINEURES
10
47.995
20
43.066
0
VERTEX
8
CONTOURS_MINEURES
10
48.991
20
42.997
0
VERTEX
8
CONTOURS_MINEURES
10
50.998
20
42.986
0
VERTEX
8
CONTOURS_MINEURES
10
53.609
20
42.004
0
VERTEX
8
CONTOURS_MINEURES
10
53.609
20
39.390
0
VERTEX
8
CONTOURS_MINEURES
10
53.609
20
38.997
0
VERTEX
8
CONTOURS_MINEURES
10
53.911
20
38.908
0
VERTEX
8
CONTOURS_MINEURES
10
54.000
20
38.848
0
VERTEX
8
CONTOURS_MINEURES
10
54.151
20
38.848
0
VERTEX
8
CONTOURS_MINEURES
10
57.003
20
38.848
0
VERTEX
8
CONTOURS_MINEURES
10
59.360
20
38.362
0
VERTEX
8
CONTOURS_MINEURES
10
59.995
20
37.809
0
VERTEX
8
CONTOURS_MINEURES
10
61.812
20
38.997
0
VERTEX
8
CONTOURS_MINEURES
10
61.812
20
40.817
0
VERTEX
8
CONTOURS_MINEURES
10
61.812
20
42.004
0
VERTEX
8
CONTOURS_MINEURES
10
62.997
20
43.114
0
VERTEX
8
CONTOURS_MINEURES
10
64.109
20
43.114
0
VERTEX
8
CONTOURS_MINEURES
10
66.000
20
43.114
0
VERTEX
8
CONTOURS_MINEURES
10
66.729
20
44.272
0
VERTEX
8
CONTOURS_MINEURES
10
67.740
20
45.000
0
VERTEX
8
CONTOURS_MINEURES
10
67.740
20
46.259
0
VERTEX
8
CONTOURS_MINEURES
10
67.740
20
47.995
0
VERTEX
8
CONTOURS_MINEURES
10
69.002
20
50.135
0
VERTEX
8
CONTOURS_MINEURES
10
69.357
20
50.647
0
VERTEX
8
CONTOURS_MINEURES
10
69.706
20
51.002
0
VERTEX
8
CONTOURS_MINEURES
10
70.128
20
52.125
0
VERTEX
8
CONTOURS_MINEURES
10
70.533
20
53.998
0
VERTEX
8
CONTOURS_MINEURES
10
70.533
20
55.472
0
VERTEX
8
CONTOURS_MINEURES
10
70.533
20
57.004
0
VERTEX
8
CONTOURS_MINEURES
10
72.005
20
58.746
0
VERTEX
8
CONTOURS_MINEURES
10
73.744
20
58.746
0
VERTEX
8
CONTOURS_MINEURES
10
74.996
20
58.746
0
SEQEND
0
POLYLINE
8
CONTOURS_MINEURES
66
1
70
0
0
VERTEX
8
CONTOURS_MINEURES
10
9.417
20
-0.001
0
VERTEX
8
CONTOURS_MINEURES
10
9.452
20
2.539
0
VERTEX
8
CONTOURS_MINEURES
10
9.586
20
2.995
0
VERTEX
8
CONTOURS_MINEURES
10
9.623
20
3.623
0
VERTEX
8
CONTOURS_MINEURES
10
9.271
20
6.001
0
VERTEX
8
CONTOURS_MINEURES
10
9.271
20
6.276
0
VERTEX
8
CONTOURS_MINEURES
10
9.271
20
8.997
0
VERTEX
8
CONTOURS_MINEURES
10
8.995
20
9.892
0
VERTEX
8
CONTOURS_MINEURES
10
7.817
20
10.181
0
VERTEX
8
CONTOURS_MINEURES
10
6.003
20
10.862
0
VERTEX
8
CONTOURS_MINEURES
10
4.863
20
10.862
0
VERTEX
8
CONTOURS_MINEURES
10
3.001
20
10.862
0
VERTEX
8
CONTOURS_MINEURES
10
0.914
20
11.087
0
VERTEX
8
CONTOURS_MINEURES
10
-0.002
20
10.908
0
SEQEND
0
POLYLINE
8
CONTOURS_MINEURES
66
1
70
0
0
VERTEX
8
CONTOURS_MINEURES
10
-0.002
20
52.937
0
VERTEX
8
CONTOURS_MINEURES
10
1.059
20
52.061
0
VERTEX
8
CONTOURS_MINEURES
10
2.341
20
51.002
0
VERTEX
8
CONTOURS_MINEURES
10
3.001
20
50.310
0
VERTEX
8
CONTOURS_MINEURES
10
5.312
20
50.310
0
VERTEX
8
CONTOURS_MINEURES
10
6.003
20
50.310
0
VERTEX
8
CONTOURS_MINEURES
10
8.126
20
47.995
0
VERTEX
8
CONTOURS_MINEURES
10
8.126
20
45.870
0
VERTEX
8
CONTOURS_MINEURES
10
8.126
20
45.000
0
VERTEX
8
CONTOURS_MINEURES
10
8.645
20
44.649
0
VERTEX
8
CONTOURS_MINEURES
10
8.995
20
44.437
0
VERTEX
8
CONTOURS_MINEURES
10
9.858
20
44.139
0
VERTEX
8
CONTOURS_MINEURES
10
11.998
20
43.263
0
VERTEX
8
CONTOURS_MINEURES
10
13.259
20
43.263
0
VERTEX
8
CONTOURS_MINEURES
10
15.000
20
43.263
0
VERTEX
8
CONTOURS_MINEURES
10
16.170
20
43.172
0
VERTEX
8
CONTOURS_MINEURES
10
18.003
20
42.636
0
VERTEX
8
CONTOURS_MINEURES
10
20.372
20
42.636
0
VERTEX
8
CONTOURS_MINEURES
10
21.005
20
42.636
0
VERTEX
8
CONTOURS_MINEURES
10
21.739
20
42.739
0
VERTEX
8
CONTOURS_MINEURES
10
23.997
20
42.698
0
VERTEX
8
CONTOURS_MINEURES
10
24.860
20
42.865
0
VERTEX
8
CONTOURS_MINEURES
10
26.999
20
43.502
0
VERTEX
8
CONTOURS_MINEURES
10
28.501
20
43.502
0
VERTEX
8
CONTOURS_MINEURES
10
30.002
20
43.502
0
VERTEX
8
CONTOURS_MINEURES
10
32.680
20
44.676
0
VERTEX
8
CONTOURS_MINEURES
10
33.004
20
44.744
0
VERTEX
8
CONTOURS_MINEURES
10
33.209
20
44.795
0
VERTEX
8
CONTOURS_MINEURES
10
33.611
20
45.000
0
VERTEX
8
CONTOURS_MINEURES
10
33.611
20
45.607
0
VERTEX
8
CONTOURS_MINEURES
10
33.611
20
47.995
0
VERTEX
8
CONTOURS_MINEURES
10
34.999
20
48.998
0
VERTEX
8
CONTOURS_MINEURES
10
35.996
20
49.718
0
VERTEX
8
CONTOURS_MINEURES
10
37.279
20
49.718
0
VERTEX
8
CONTOURS_MINEURES
10
38.999
20
49.718
0
VERTEX
8
CONTOURS_MINEURES
10
40.825
20
49.824
0
VERTEX
8
CONTOURS_MINEURES
10
42.001
20
50.116
0
VERTEX
8
CONTOURS_MINEURES
10
42.900
20
50.102
0
VERTEX
8
CONTOURS_MINEURES
10
45.004
20
50.102
0
VERTEX
8
CONTOURS_MINEURES
10
45.899
20
50.102
0
VERTEX
8
CONTOURS_MINEURES
10
47.995
20
50.102
0
VERTEX
8
CONTOURS_MINEURES
10
50.339
20
50.343
0
VERTEX
8
CONTOURS_MINEURES
10
50.998
20
50.265
0
VERTEX
8
CONTOURS_MINEURES
10
51.780
20
50.219
0
VERTEX
8
CONTOURS_MINEURES
10
53.027
20
51.002
0
VERTEX
8
CONTOURS_MINEURES
10
53.217
20
51.784
0
VERTEX
8
CONTOURS_MINEURES
10
53.040
20
53.998
0
VERTEX
8
CONTOURS_MINEURES
10
53.040
20
54.960
0
VERTEX
8
CONTOURS_MINEURES
10
53.040
20
57.004
0
VERTEX
8
CONTOURS_MINEURES
10
53.372
20
59.373
0
VERTEX
8
CONTOURS_MINEURES
10
53.481
20
60.000
0
VERTEX
8
CONTOURS_MINEURES
10
54.000
20
60.658
0
VERTEX
8
CONTOURS_MINEURES
10
56.344
20
60.658
0
VERTEX
8
CONTOURS_MINEURES
10
57.003
20
60.658
0
VERTEX
8
CONTOURS_MINEURES
10
59.662
20
62.996
0
VERTEX
8
CONTOURS_MINEURES
10
59.662
20
63.330
0
VERTEX
8
CONTOURS_MINEURES
10
59.662
20
66.002
0
VERTEX
8
CONTOURS_MINEURES
10
59.869
20
66.128
0
VERTEX
8
CONTOURS_MINEURES
10
59.995
20
66.199
0
VERTEX
8
CONTOURS_MINEURES
10
60.348
20
66.355
0
VERTEX
8
CONTOURS_MINEURES
10
62.997
20
67.615
0
VERTEX
8
CONTOURS_MINEURES
10
64.383
20
67.615
0
VERTEX
8
CONTOURS_MINEURES
10
66.000
20
67.615
0
VERTEX
8
CONTOURS_MINEURES
10
68.197
20
68.998
0
VERTEX
8
CONTOURS_MINEURES
10
68.550
20
69.451
0
VERTEX
8
CONTOURS_MINEURES
10
69.002
20
70.321
0
VERTEX
8
CONTOURS_MINEURES
10
69.795
20
72.005
0
VERTEX
8
CONTOURS_MINEURES
10
69.795
20
72.796
0
VERTEX
8
CONTOURS_MINEURES
10
69.795
20
75.000
0
VERTEX
8
CONTOURS_MINEURES
10
70.116
20
76.885
0
VERTEX
8
CONTOURS_MINEURES
10
70.214
20
77.996
0
VERTEX
8
CONTOURS_MINEURES
10
70.214
20
79.209
0
VERTEX
8
CONTOURS_MINEURES
10
70.214
20
81.003
0
VERTEX
8
CONTOURS_MINEURES
10
70.546
20
82.458
0
VERTEX
8
CONTOURS_MINEURES
10
71.004
20
83.998
0
VERTEX
8
CONTOURS_MINEURES
10
71.404
20
84.600
0
VERTEX
8
CONTOURS_MINEURES
10
72.005
20
85.201
0
VERTEX
8
CONTOURS_MINEURES
10
73.800
20
85.201
0
VERTEX
8
CONTOURS_MINEURES
10
74.996
20
85.201
0
SEQEND
0
POLYLINE
8
CONTOURS_MINEURES
66
1
70
0
0
VERTEX
8
CONTOURS_MINEURES
10
7.949
20
-0.001
0
VERTEX
8
CONTOURS_MINEURES
10
8.008
20
2.006
0
VERTEX
8
CONTOURS_MINEURES
10
7.163
20
2.995
0
VERTEX
8
CONTOURS_MINEURES
10
6.003
20
4.131
0
VERTEX
8
CONTOURS_MINEURES
10
4.136
20
4.131
0
VERTEX
8
CONTOURS_MINEURES
10
3.001
20
4.131
0
VERTEX
8
CONTOURS_MINEURES
10
2.005
20
3.991
0
VERTEX
8
CONTOURS_MINEURES
10
-0.002
20
4.186
0
SEQEND
0
POLYLINE
8
CONTOURS_MINEURES
66
1
70
0
0
VERTEX
8
CONTOURS_MINEURES
10
74.996
20
128.478
0
VERTEX
8
CONTOURS_MINEURES
10
74.476
20
128.478
0
VERTEX
8
CONTOURS_MINEURES
10
72.005
20
128.478
0
VERTEX
8
CONTOURS_MINEURES
10
71.811
20
128.806
0
VERTEX
8
CONTOURS_MINEURES
10
71.689
20
128.999
0
VERTEX
8
CONTOURS_MINEURES
10
71.689
20
131.679
0
VERTEX
8
CONTOURS_MINEURES
10
71.689
20
131.995
0
VERTEX
8
CONTOURS_MINEURES
10
71.004
20
132.997
0
VERTEX
8
CONTOURS_MINEURES
10
69.588
20
135.001
0
VERTEX
8
CONTOURS_MINEURES
10
69.588
20
135.586
0
VERTEX
8
CONTOURS_MINEURES
10
69.588
20
137.997
0
VERTEX
8
CONTOURS_MINEURES
10
69.278
20
138.274
0
VERTEX
8
CONTOURS_MINEURES
10
69.002
20
138.469
0
VERTEX
8
CONTOURS_MINEURES
10
67.738
20
139.263
0
VERTEX
8
CONTOURS_MINEURES
10
66.000
20
140.517
0
VERTEX
8
CONTOURS_MINEURES
10
65.514
20
140.517
0
VERTEX
8
CONTOURS_MINEURES
10
62.997
20
140.517
0
VERTEX
8
CONTOURS_MINEURES
10
62.229
20
141.004
0
VERTEX
8
CONTOURS_MINEURES
10
61.932
20
142.067
0
VERTEX
8
CONTOURS_MINEURES
10
60.891
20
143.999
0
VERTEX
8
CONTOURS_MINEURES
10
60.891
20
144.894
0
VERTEX
8
CONTOURS_MINEURES
10
60.891
20
146.995
0
VERTEX
8
CONTOURS_MINEURES
10
62.392
20
147.601
0
VERTEX
8
CONTOURS_MINEURES
10
62.997
20
147.950
0
VERTEX
8
CONTOURS_MINEURES
10
63.951
20
147.950
0
VERTEX
8
CONTOURS_MINEURES
10
66.000
20
147.950
0
VERTEX
8
CONTOURS_MINEURES
10
67.465
20
148.535
0
VERTEX
8
CONTOURS_MINEURES
10
68.369
20
150.002
0
VERTEX
8
CONTOURS_MINEURES
10
69.002
20
150.534
0
VERTEX
8
CONTOURS_MINEURES
10
70.376
20
151.373
0
VERTEX
8
CONTOURS_MINEURES
10
72.005
20
152.383
0
VERTEX
8
CONTOURS_MINEURES
10
72.618
20
152.383
0
VERTEX
8
CONTOURS_MINEURES
10
74.996
20
152.383
0
SEQEND
0
POLYLINE
8
CONTOURS_MINEURES
66
1
70
0
0
VERTEX
8
CONTOURS_MINEURES
10
-0.002
20
58.324
0
VERTEX
8
CONTOURS_MINEURES
10
1.002
20
58.006
0
VERTEX
8
CONTOURS_MINEURES
10
2.185
20
57.004
0
VERTEX
8
CONTOURS_MINEURES
10
2.185
20
54.815
0
VERTEX
8
CONTOURS_MINEURES
10
2.185
20
53.998
0
VERTEX
8
CONTOURS_MINEURES
10
2.631
20
53.629
0
VERTEX
8
CONTOURS_MINEURES
10
3.001
20
53.324
0
VERTEX
8
CONTOURS_MINEURES
10
3.676
20
53.324
0
VERTEX
8
CONTOURS_MINEURES
10
6.003
20
53.324
0
VERTEX
8
CONTOURS_MINEURES
10
7.416
20
52.417
0
VERTEX
8
CONTOURS_MINEURES
10
8.871
20
51.002
0
VERTEX
8
CONTOURS_MINEURES
10
8.995
20
50.866
0
VERTEX
8
CONTOURS_MINEURES
10
10.831
20
49.834
0
VERTEX
8
CONTOURS_MINEURES
10
11.998
20
48.566
0
VERTEX
8
CONTOURS_MINEURES
10
14.431
20
48.566
0
VERTEX
8
CONTOURS_MINEURES
10
15.000
20
48.566
0
VERTEX
8
CONTOURS_MINEURES
10
15.734
20
48.730
0
VERTEX
8
CONTOURS_MINEURES
10
17.752
20
47.995
0
VERTEX
8
CONTOURS_MINEURES
10
17.752
20
45.249
0
VERTEX
8
CONTOURS_MINEURES
10
17.752
20
45.000
0
VERTEX
8
CONTOURS_MINEURES
10
17.984
20
44.982
0
VERTEX
8
CONTOURS_MINEURES
10
18.003
20
44.976
0
VERTEX
8
CONTOURS_MINEURES
10
18.026
20
44.976
0
VERTEX
8
CONTOURS_MINEURES
10
21.005
20
44.976
0
VERTEX
8
CONTOURS_MINEURES
10
21.171
20
45.000
0
VERTEX
8
CONTOURS_MINEURES
10
21.171
20
47.829
0
VERTEX
8
CONTOURS_MINEURES
10
21.171
20
47.995
0
VERTEX
8
CONTOURS_MINEURES
10
23.997
20
49.242
0
VERTEX
8
CONTOURS_MINEURES
10
25.159
20
49.838
0
VERTEX
8
CONTOURS_MINEURES
10
26.999
20
50.236
0
VERTEX
8
CONTOURS_MINEURES
10
27.765
20
50.236
0
VERTEX
8
CONTOURS_MINEURES
10
30.002
20
50.236
0
VERTEX
8
CONTOURS_MINEURES
10
30.725
20
51.002
0
VERTEX
8
CONTOURS_MINEURES
10
31.371
20
52.368
0
VERTEX
8
CONTOURS_MINEURES
10
31.796
20
53.998
0
VERTEX
8
CONTOURS_MINEURES
10
31.796
20
55.208
0
VERTEX
8
CONTOURS_MINEURES
10
31.796
20
57.004
0
VERTEX
8
CONTOURS_MINEURES
10
33.004
20
58.900
0
VERTEX
8
CONTOURS_MINEURES
10
33.442
20
59.562
0
VERTEX
8
CONTOURS_MINEURES
10
33.859
20
60.000
0
VERTEX
8
CONTOURS_MINEURES
10
35.158
20
62.157
0
VERTEX
8
CONTOURS_MINEURES
10
35.641
20
62.996
0
VERTEX
8
CONTOURS_MINEURES
10
35.641
20
63.352
0
VERTEX
8
CONTOURS_MINEURES
10
35.641
20
66.002
0
VERTEX
8
CONTOURS_MINEURES
10
35.755
20
66.243
0
VERTEX
8
CONTOURS_MINEURES
10
35.996
20
66.619
0
VERTEX
8
CONTOURS_MINEURES
10
36.614
20
66.619
0
VERTEX
8
CONTOURS_MINEURES
10
38.999
20
66.619
0
VERTEX
8
CONTOURS_MINEURES
10
41.132
20
68.998
0
VERTEX
8
CONTOURS_MINEURES
10
41.588
20
69.411
0
VERTEX
8
CONTOURS_MINEURES
10
42.001
20
69.687
0
VERTEX
8
CONTOURS_MINEURES
10
43.653
20
70.652
0
VERTEX
8
CONTOURS_MINEURES
10
45.004
20
71.474
0
VERTEX
8
CONTOURS_MINEURES
10
45.532
20
71.474
0
VERTEX
8
CONTOURS_MINEURES
10
47.995
20
71.474
0
VERTEX
8
CONTOURS_MINEURES
10
49.035
20
72.005
0
VERTEX
8
CONTOURS_MINEURES
10
49.035
20
73.963
0
VERTEX
8
CONTOURS_MINEURES
10
49.035
20
75.000
0
VERTEX
8
CONTOURS_MINEURES
10
50.998
20
76.185
0
VERTEX
8
CONTOURS_MINEURES
10
52.857
20
77.996
0
VERTEX
8
CONTOURS_MINEURES
10
52.857
20
79.141
0
VERTEX
8
CONTOURS_MINEURES
10
52.857
20
81.003
0
VERTEX
8
CONTOURS_MINEURES
10
53.294
20
81.707
0
VERTEX
8
CONTOURS_MINEURES
10
54.000
20
83.181
0
VERTEX
8
CONTOURS_MINEURES
10
56.184
20
83.181
0
VERTEX
8
CONTOURS_MINEURES
10
57.003
20
83.181
0
VERTEX
8
CONTOURS_MINEURES
10
57.246
20
83.755
0
VERTEX
8
CONTOURS_MINEURES
10
57.329
20
83.998
0
VERTEX
8
CONTOURS_MINEURES
10
57.502
20
84.499
0
VERTEX
8
CONTOURS_MINEURES
10
58.125
20
87.005
0
VERTEX
8
CONTOURS_MINEURES
10
58.125
20
88.128
0
VERTEX
8
CONTOURS_MINEURES
10
58.125
20
90.001
0
VERTEX
8
CONTOURS_MINEURES
10
58.829
20
91.168
0
VERTEX
8
CONTOURS_MINEURES
10
59.995
20
92.568
0
VERTEX
8
CONTOURS_MINEURES
10
60.169
20
92.822
0
VERTEX
8
CONTOURS_MINEURES
10
60.344
20
92.996
0
VERTEX
8
CONTOURS_MINEURES
10
61.413
20
94.583
0
VERTEX
8
CONTOURS_MINEURES
10
62.547
20
96.003
0
VERTEX
8
CONTOURS_MINEURES
10
62.547
20
98.549
0
VERTEX
8
CONTOURS_MINEURES
10
62.547
20
98.999
0
VERTEX
8
CONTOURS_MINEURES
10
62.769
20
99.227
0
VERTEX
8
CONTOURS_MINEURES
10
62.997
20
99.450
0
VERTEX
8
CONTOURS_MINEURES
10
63.448
20
99.450
0
VERTEX
8
CONTOURS_MINEURES
10
66.000
20
99.450
0
VERTEX
8
CONTOURS_MINEURES
10
67.230
20
100.774
0
VERTEX
8
CONTOURS_MINEURES
10
68.430
20
102.005
0
VERTEX
8
CONTOURS_MINEURES
10
68.430
20
104.430
0
VERTEX
8
CONTOURS_MINEURES
10
68.430
20
105.001
0
VERTEX
8
CONTOURS_MINEURES
10
68.664
20
105.338
0
VERTEX
8
CONTOURS_MINEURES
10
69.002
20
105.827
0
VERTEX
8
CONTOURS_MINEURES
10
70.469
20
107.996
0
VERTEX
8
CONTOURS_MINEURES
10
72.005
20
109.886
0
VERTEX
8
CONTOURS_MINEURES
10
73.885
20
109.886
0
VERTEX
8
CONTOURS_MINEURES
10
74.996
20
109.886
0
SEQEND
0
POLYLINE
8
CONTOURS_MINEURES
66
1
70
0
0
VERTEX
8
CONTOURS_MINEURES
10
2.960
20
-0.001
0
VERTEX
8
CONTOURS_MINEURES
10
-0.002
20
1.144
0
SEQEND
0
POLYLINE
8
CONTOURS_MINEURES
66
1
70
0
0
VERTEX
8
CONTOURS_MINEURES
10
-0.002
20
60.590
0
VERTEX
8
CONTOURS_MINEURES
10
1.318
20
60.000
0
VERTEX
8
CONTOURS_MINEURES
10
2.595
20
59.595
0
VERTEX
8
CONTOURS_MINEURES
10
3.001
20
59.251
0
VERTEX
8
CONTOURS_MINEURES
10
3.751
20
59.251
0
VERTEX
8
CONTOURS_MINEURES
10
6.003
20
59.251
0
VERTEX
8
CONTOURS_MINEURES
10
7.927
20
58.930
0
VERTEX
8
CONTOURS_MINEURES
10
8.995
20
57.552
0
VERTEX
8
CONTOURS_MINEURES
10
9.834
20
57.841
0
VERTEX
8
CONTOURS_MINEURES
10
11.998
20
57.177
0
VERTEX
8
CONTOURS_MINEURES
10
14.827
20
57.177
0
VERTEX
8
CONTOURS_MINEURES
10
15.000
20
57.177
0
VERTEX
8
CONTOURS_MINEURES
10
17.885
20
60.000
0
VERTEX
8
CONTOURS_MINEURES
10
18.003
20
60.207
0
VERTEX
8
CONTOURS_MINEURES
10
20.798
20
60.207
0
VERTEX
8
CONTOURS_MINEURES
10
21.005
20
60.207
0
VERTEX
8
CONTOURS_MINEURES
10
22.688
20
62.996
0
VERTEX
8
CONTOURS_MINEURES
10
22.688
20
64.687
0
VERTEX
8
CONTOURS_MINEURES
10
22.688
20
66.002
0
VERTEX
8
CONTOURS_MINEURES
10
23.266
20
66.734
0
VERTEX
8
CONTOURS_MINEURES
10
23.997
20
68.172
0
VERTEX
8
CONTOURS_MINEURES
10
24.418
20
68.998
0
VERTEX
8
CONTOURS_MINEURES
10
25.383
20
70.617
0
VERTEX
8
CONTOURS_MINEURES
10
26.171
20
72.005
0
VERTEX
8
CONTOURS_MINEURES
10
26.171
20
74.174
0
VERTEX
8
CONTOURS_MINEURES
10
26.171
20
75.000
0
VERTEX
8
CONTOURS_MINEURES
10
26.999
20
76.020
0
VERTEX
8
CONTOURS_MINEURES
10
28.022
20
76.020
0
VERTEX
8
CONTOURS_MINEURES
10
30.002
20
76.020
0
VERTEX
8
CONTOURS_MINEURES
10
30.833
20
77.167
0
VERTEX
8
CONTOURS_MINEURES
10
31.412
20
77.996
0
VERTEX
8
CONTOURS_MINEURES
10
31.412
20
79.408
0
VERTEX
8
CONTOURS_MINEURES
10
31.412
20
81.003
0
VERTEX
8
CONTOURS_MINEURES
10
33.004
20
83.058
0
VERTEX
8
CONTOURS_MINEURES
10
33.519
20
83.483
0
VERTEX
8
CONTOURS_MINEURES
10
34.334
20
83.998
0
VERTEX
8
CONTOURS_MINEURES
10
35.996
20
85.365
0
VERTEX
8
CONTOURS_MINEURES
10
37.634
20
85.365
0
VERTEX
8
CONTOURS_MINEURES
10
38.999
20
85.365
0
VERTEX
8
CONTOURS_MINEURES
10
40.028
20
85.974
0
VERTEX
8
CONTOURS_MINEURES
10
41.251
20
87.005
0
VERTEX
8
CONTOURS_MINEURES
10
41.251
20
89.252
0
VERTEX
8
CONTOURS_MINEURES
10
41.251
20
90.001
0
VERTEX
8
CONTOURS_MINEURES
10
42.001
20
91.142
0
VERTEX
8
CONTOURS_MINEURES
10
42.593
20
92.996
0
VERTEX
8
CONTOURS_MINEURES
10
43.444
20
94.558
0
VERTEX
8
CONTOURS_MINEURES
10
44.103
20
96.003
0
VERTEX
8
CONTOURS_MINEURES
10
44.103
20
96.902
0
VERTEX
8
CONTOURS_MINEURES
10
44.103
20
98.999
0
VERTEX
8
CONTOURS_MINEURES
10
45.004
20
101.176
0
VERTEX
8
CONTOURS_MINEURES
10
45.829
20
101.176
0
VERTEX
8
CONTOURS_MINEURES
10
47.995
20
101.176
0
VERTEX
8
CONTOURS_MINEURES
10
48.466
20
102.005
0
VERTEX
8
CONTOURS_MINEURES
10
48.466
20
104.531
0
VERTEX
8
CONTOURS_MINEURES
10
48.466
20
105.001
0
VERTEX
8
CONTOURS_MINEURES
10
49.276
20
106.718
0
VERTEX
8
CONTOURS_MINEURES
10
50.283
20
107.996
0
VERTEX
8
CONTOURS_MINEURES
10
50.998
20
108.696
0
VERTEX
8
CONTOURS_MINEURES
10
52.164
20
109.836
0
VERTEX
8
CONTOURS_MINEURES
10
53.415
20
111.003
0
VERTEX
8
CONTOURS_MINEURES
10
53.415
20
113.414
0
VERTEX
8
CONTOURS_MINEURES
10
53.415
20
113.999
0
VERTEX
8
CONTOURS_MINEURES
10
54.000
20
115.144
0
VERTEX
8
CONTOURS_MINEURES
10
55.859
20
115.144
0
VERTEX
8
CONTOURS_MINEURES
10
57.003
20
115.144
0
VERTEX
8
CONTOURS_MINEURES
10
57.697
20
117.005
0
VERTEX
8
CONTOURS_MINEURES
10
58.016
20
118.987
0
VERTEX
8
CONTOURS_MINEURES
10
58.222
20
120.001
0
VERTEX
8
CONTOURS_MINEURES
10
58.222
20
121.776
0
VERTEX
8
CONTOURS_MINEURES
10
58.222
20
122.997
0
VERTEX
8
CONTOURS_MINEURES
10
58.222
20
124.222
0
VERTEX
8
CONTOURS_MINEURES
10
58.425
20
126.003
0
VERTEX
8
CONTOURS_MINEURES
10
58.000
20
128.001
0
VERTEX
8
CONTOURS_MINEURES
10
57.687
20
128.999
0
VERTEX
8
CONTOURS_MINEURES
10
57.687
20
129.684
0
VERTEX
8
CONTOURS_MINEURES
10
57.687
20
131.995
0
VERTEX
8
CONTOURS_MINEURES
10
57.003
20
133.168
0
VERTEX
8
CONTOURS_MINEURES
10
55.831
20
133.168
0
VERTEX
8
CONTOURS_MINEURES
10
54.000
20
133.168
0
VERTEX
8
CONTOURS_MINEURES
10
53.353
20
134.353
0
VERTEX
8
CONTOURS_MINEURES
10
52.770
20
135.001
0
VERTEX
8
CONTOURS_MINEURES
10
52.770
20
136.229
0
VERTEX
8
CONTOURS_MINEURES
10
52.770
20
137.997
0
VERTEX
8
CONTOURS_MINEURES
10
50.998
20
138.999
0
VERTEX
8
CONTOURS_MINEURES
10
49.335
20
139.338
0
VERTEX
8
CONTOURS_MINEURES
10
47.995
20
140.600
0
VERTEX
8
CONTOURS_MINEURES
10
47.594
20
140.600
0
VERTEX
8
CONTOURS_MINEURES
10
45.004
20
140.600
0
VERTEX
8
CONTOURS_MINEURES
10
44.689
20
141.004
0
VERTEX
8
CONTOURS_MINEURES
10
45.004
20
141.185
0
VERTEX
8
CONTOURS_MINEURES
10
47.815
20
141.185
0
VERTEX
8
CONTOURS_MINEURES
10
47.995
20
141.185
0
VERTEX
8
CONTOURS_MINEURES
10
49.978
20
142.021
0
VERTEX
8
CONTOURS_MINEURES
10
50.998
20
143.058
0
VERTEX
8
CONTOURS_MINEURES
10
52.041
20
143.999
0
VERTEX
8
CONTOURS_MINEURES
10
52.041
20
145.954
0
VERTEX
8
CONTOURS_MINEURES
10
52.041
20
146.995
0
VERTEX
8
CONTOURS_MINEURES
10
54.000
20
148.290
0
VERTEX
8
CONTOURS_MINEURES
10
55.710
20
148.290
0
VERTEX
8
CONTOURS_MINEURES
10
57.003
20
148.290
0
VERTEX
8
CONTOURS_MINEURES
10
59.558
20
150.002
0
VERTEX
8
CONTOURS_MINEURES
10
59.995
20
150.425
0
VERTEX
8
CONTOURS_MINEURES
10
61.382
20
151.613
0
VERTEX
8
CONTOURS_MINEURES
10
62.997
20
152.748
0
VERTEX
8
CONTOURS_MINEURES
10
63.247
20
152.748
0
VERTEX
8
CONTOURS_MINEURES
10
66.000
20
152.748
0
VERTEX
8
CONTOURS_MINEURES
10
66.321
20
152.997
0
SEQEND
0
POLYLINE
8
CONTOURS_MINEURES
66
1
70
0
0
VERTEX
8
CONTOURS_MINEURES
10
-0.002
20
68.919
0
VERTEX
8
CONTOURS_MINEURES
10
0.045
20
68.951
0
VERTEX
8
CONTOURS_MINEURES
10
0.073
20
68.998
0
VERTEX
8
CONTOURS_MINEURES
10
1.440
20
70.561
0
VERTEX
8
CONTOURS_MINEURES
10
2.512
20
72.005
0
VERTEX
8
CONTOURS_MINEURES
10
2.512
20
74.513
0
VERTEX
8
CONTOURS_MINEURES
10
2.512
20
75.000
0
VERTEX
8
CONTOURS_MINEURES
10
2.748
20
75.253
0
VERTEX
8
CONTOURS_MINEURES
10
3.001
20
75.512
0
VERTEX
8
CONTOURS_MINEURES
10
5.491
20
75.512
0
VERTEX
8
CONTOURS_MINEURES
10
6.003
20
75.512
0
VERTEX
8
CONTOURS_MINEURES
10
7.907
20
76.907
0
VERTEX
8
CONTOURS_MINEURES
10
8.995
20
77.717
0
VERTEX
8
CONTOURS_MINEURES
10
9.177
20
77.814
0
VERTEX
8
CONTOURS_MINEURES
10
9.424
20
77.996
0
VERTEX
8
CONTOURS_MINEURES
10
9.424
20
78.425
0
VERTEX
8
CONTOURS_MINEURES
10
9.424
20
81.003
0
VERTEX
8
CONTOURS_MINEURES
10
11.998
20
82.946
0
VERTEX
8
CONTOURS_MINEURES
10
13.053
20
82.946
0
VERTEX
8
CONTOURS_MINEURES
10
15.000
20
82.946
0
VERTEX
8
CONTOURS_MINEURES
10
16.055
20
83.998
0
VERTEX
8
CONTOURS_MINEURES
10
17.211
20
84.791
0
VERTEX
8
CONTOURS_MINEURES
10
18.003
20
85.310
0
VERTEX
8
CONTOURS_MINEURES
10
19.695
20
85.310
0
VERTEX
8
CONTOURS_MINEURES
10
21.005
20
85.310
0
VERTEX
8
CONTOURS_MINEURES
10
23.021
20
87.005
0
VERTEX
8
CONTOURS_MINEURES
10
23.021
20
87.982
0
VERTEX
8
CONTOURS_MINEURES
10
23.021
20
90.001
0
VERTEX
8
CONTOURS_MINEURES
10
23.997
20
91.046
0
VERTEX
8
CONTOURS_MINEURES
10
24.734
20
92.260
0
VERTEX
8
CONTOURS_MINEURES
10
25.061
20
92.996
0
VERTEX
8
CONTOURS_MINEURES
10
26.047
20
95.050
0
VERTEX
8
CONTOURS_MINEURES
10
26.523
20
96.003
0
VERTEX
8
CONTOURS_MINEURES
10
26.523
20
96.478
0
VERTEX
8
CONTOURS_MINEURES
10
26.523
20
98.999
0
VERTEX
8
CONTOURS_MINEURES
10
26.999
20
100.183
0
VERTEX
8
CONTOURS_MINEURES
10
28.819
20
100.183
0
VERTEX
8
CONTOURS_MINEURES
10
30.002
20
100.183
0
VERTEX
8
CONTOURS_MINEURES
10
31.203
20
102.005
0
VERTEX
8
CONTOURS_MINEURES
10
31.203
20
103.803
0
VERTEX
8
CONTOURS_MINEURES
10
31.203
20
105.001
0
VERTEX
8
CONTOURS_MINEURES
10
33.004
20
105.988
0
VERTEX
8
CONTOURS_MINEURES
10
34.317
20
106.682
0
VERTEX
8
CONTOURS_MINEURES
10
35.996
20
107.750
0
VERTEX
8
CONTOURS_MINEURES
10
38.751
20
107.750
0
VERTEX
8
CONTOURS_MINEURES
10
38.999
20
107.750
0
VERTEX
8
CONTOURS_MINEURES
10
39.215
20
107.996
0
VERTEX
8
CONTOURS_MINEURES
10
39.524
20
108.523
0
VERTEX
8
CONTOURS_MINEURES
10
41.215
20
111.003
0
VERTEX
8
CONTOURS_MINEURES
10
41.215
20
111.788
0
VERTEX
8
CONTOURS_MINEURES
10
41.215
20
113.999
0
VERTEX
8
CONTOURS_MINEURES
10
42.001
20
116.361
0
VERTEX
8
CONTOURS_MINEURES
10
42.206
20
116.800
0
VERTEX
8
CONTOURS_MINEURES
10
42.292
20
117.005
0
VERTEX
8
CONTOURS_MINEURES
10
42.430
20
117.433
0
VERTEX
8
CONTOURS_MINEURES
10
43.297
20
120.001
0
VERTEX
8
CONTOURS_MINEURES
10
43.297
20
121.704
0
VERTEX
8
CONTOURS_MINEURES
10
43.297
20
122.997
0
VERTEX
8
CONTOURS_MINEURES
10
43.559
20
124.557
0
VERTEX
8
CONTOURS_MINEURES
10
43.764
20
126.003
0
VERTEX
8
CONTOURS_MINEURES
10
43.745
20
127.743
0
VERTEX
8
CONTOURS_MINEURES
10
42.402
20
128.999
0
VERTEX
8
CONTOURS_MINEURES
10
42.402
20
131.595
0
VERTEX
8
CONTOURS_MINEURES
10
42.402
20
131.995
0
VERTEX
8
CONTOURS_MINEURES
10
42.123
20
132.117
0
VERTEX
8
CONTOURS_MINEURES
10
42.001
20
132.120
0
VERTEX
8
CONTOURS_MINEURES
10
41.847
20
132.149
0
VERTEX
8
CONTOURS_MINEURES
10
38.999
20
132.454
0
VERTEX
8
CONTOURS_MINEURES
10
36.455
20
132.454
0
VERTEX
8
CONTOURS_MINEURES
10
35.996
20
132.454
0
VERTEX
8
CONTOURS_MINEURES
10
34.775
20
133.222
0
VERTEX
8
CONTOURS_MINEURES
10
33.004
20
132.437
0
VERTEX
8
CONTOURS_MINEURES
10
32.175
20
135.001
0
VERTEX
8
CONTOURS_MINEURES
10
32.175
20
135.829
0
VERTEX
8
CONTOURS_MINEURES
10
32.175
20
137.997
0
VERTEX
8
CONTOURS_MINEURES
10
33.004
20
138.513
0
VERTEX
8
CONTOURS_MINEURES
10
34.673
20
139.327
0
VERTEX
8
CONTOURS_MINEURES
10
35.996
20
140.584
0
VERTEX
8
CONTOURS_MINEURES
10
38.580
20
140.584
0
VERTEX
8
CONTOURS_MINEURES
10
38.999
20
140.584
0
VERTEX
8
CONTOURS_MINEURES
10
39.345
20
140.657
0
VERTEX
8
CONTOURS_MINEURES
10
39.382
20
141.004
0
VERTEX
8
CONTOURS_MINEURES
10
42.001
20
143.051
0
VERTEX
8
CONTOURS_MINEURES
10
43.464
20
143.999
0
VERTEX
8
CONTOURS_MINEURES
10
43.464
20
145.536
0
VERTEX
8
CONTOURS_MINEURES
10
43.464
20
146.995
0
VERTEX
8
CONTOURS_MINEURES
10
44.014
20
147.986
0
VERTEX
8
CONTOURS_MINEURES
10
45.004
20
148.836
0
VERTEX
8
CONTOURS_MINEURES
10
46.164
20
148.836
0
VERTEX
8
CONTOURS_MINEURES
10
47.995
20
148.836
0
VERTEX
8
CONTOURS_MINEURES
10
49.440
20
150.002
0
VERTEX
8
CONTOURS_MINEURES
10
50.649
20
152.649
0
VERTEX
8
CONTOURS_MINEURES
10
50.748
20
152.997
0
SEQEND
0
POLYLINE
8
CONTOURS_MINEURES
66
1
70
0
0
VERTEX
8
CONTOURS_MINEURES
10
30.002
20
132.344
0
VERTEX
8
CONTOURS_MINEURES
10
32.004
20
131.995
0
VERTEX
8
CONTOURS_MINEURES
10
32.004
20
130.996
0
VERTEX
8
CONTOURS_MINEURES
10
32.004
20
128.999
0
VERTEX
8
CONTOURS_MINEURES
10
30.212
20
128.790
0
VERTEX
8
CONTOURS_MINEURES
10
30.002
20
128.552
0
VERTEX
8
CONTOURS_MINEURES
10
27.448
20
128.552
0
VERTEX
8
CONTOURS_MINEURES
10
26.999
20
128.552
0
VERTEX
8
CONTOURS_MINEURES
10
26.482
20
128.999
0
VERTEX
8
CONTOURS_MINEURES
10
26.482
20
131.478
0
VERTEX
8
CONTOURS_MINEURES
10
26.482
20
131.995
0
VERTEX
8
CONTOURS_MINEURES
10
26.999
20
132.344
0
VERTEX
8
CONTOURS_MINEURES
10
29.653
20
132.344
0
VERTEX
8
CONTOURS_MINEURES
10
30.002
20
132.344
0
SEQEND
0
POLYLINE
8
CONTOURS_MINEURES
66
1
70
0
0
VERTEX
8
CONTOURS_MINEURES
10
25.949
20
152.997
0
VERTEX
8
CONTOURS_MINEURES
10
24.607
20
152.389
0
VERTEX
8
CONTOURS_MINEURES
10
23.997
20
152.302
0
VERTEX
8
CONTOURS_MINEURES
10
22.608
20
151.606
0
VERTEX
8
CONTOURS_MINEURES
10
21.005
20
151.363
0
VERTEX
8
CONTOURS_MINEURES
10
19.367
20
151.363
0
VERTEX
8
CONTOURS_MINEURES
10
18.003
20
151.363
0
VERTEX
8
CONTOURS_MINEURES
10
16.501
20
151.499
0
VERTEX
8
CONTOURS_MINEURES
10
15.000
20
150.002
0
VERTEX
8
CONTOURS_MINEURES
10
11.998
20
150.002
0
VERTEX
8
CONTOURS_MINEURES
10
9.669
20
149.327
0
VERTEX
8
CONTOURS_MINEURES
10
8.995
20
149.327
0
VERTEX
8
CONTOURS_MINEURES
10
8.550
20
149.555
0
VERTEX
8
CONTOURS_MINEURES
10
8.350
20
150.002
0
VERTEX
8
CONTOURS_MINEURES
10
7.898
20
151.100
0
VERTEX
8
CONTOURS_MINEURES
10
7.097
20
152.997
0
SEQEND
0
POLYLINE
8
CONTOURS_MINEURES
66
1
70
0
0
VERTEX
8
CONTOURS_MINEURES
10
-0.002
20
90.681
0
VERTEX
8
CONTOURS_MINEURES
10
1.390
20
91.607
0
VERTEX
8
CONTOURS_MINEURES
10
3.001
20
92.806
0
VERTEX
8
CONTOURS_MINEURES
10
3.191
20
92.806
0
VERTEX
8
CONTOURS_MINEURES
10
6.003
20
92.806
0
VERTEX
8
CONTOURS_MINEURES
10
6.124
20
92.875
0
VERTEX
8
CONTOURS_MINEURES
10
6.275
20
92.996
0
VERTEX
8
CONTOURS_MINEURES
10
8.995
20
95.930
0
VERTEX
8
CONTOURS_MINEURES
10
9.030
20
95.968
0
VERTEX
8
CONTOURS_MINEURES
10
9.062
20
96.003
0
VERTEX
8
CONTOURS_MINEURES
10
9.062
20
96.069
0
VERTEX
8
CONTOURS_MINEURES
10
9.062
20
98.999
0
VERTEX
8
CONTOURS_MINEURES
10
11.998
20
102.005
0
VERTEX
8
CONTOURS_MINEURES
10
15.000
20
102.005
0
VERTEX
8
CONTOURS_MINEURES
10
15.000
20
105.001
0
VERTEX
8
CONTOURS_MINEURES
10
16.519
20
106.481
0
VERTEX
8
CONTOURS_MINEURES
10
18.003
20
107.927
0
VERTEX
8
CONTOURS_MINEURES
10
20.935
20
107.927
0
VERTEX
8
CONTOURS_MINEURES
10
21.005
20
107.927
0
VERTEX
8
CONTOURS_MINEURES
10
21.059
20
107.996
0
VERTEX
8
CONTOURS_MINEURES
10
21.148
20
108.140
0
VERTEX
8
CONTOURS_MINEURES
10
23.239
20
111.003
0
VERTEX
8
CONTOURS_MINEURES
10
23.239
20
111.762
0
VERTEX
8
CONTOURS_MINEURES
10
23.239
20
113.999
0
VERTEX
8
CONTOURS_MINEURES
10
23.354
20
114.645
0
VERTEX
8
CONTOURS_MINEURES
10
22.647
20
117.005
0
VERTEX
8
CONTOURS_MINEURES
10
21.357
20
119.649
0
VERTEX
8
CONTOURS_MINEURES
10
21.191
20
120.001
0
VERTEX
8
CONTOURS_MINEURES
10
21.191
20
122.811
0
VERTEX
8
CONTOURS_MINEURES
10
21.191
20
122.997
0
VERTEX
8
CONTOURS_MINEURES
10
21.155
20
123.147
0
VERTEX
8
CONTOURS_MINEURES
10
21.005
20
123.215
0
VERTEX
8
CONTOURS_MINEURES
10
20.787
20
123.215
0
VERTEX
8
CONTOURS_MINEURES
10
18.003
20
123.215
0
VERTEX
8
CONTOURS_MINEURES
10
17.596
20
123.404
0
VERTEX
8
CONTOURS_MINEURES
10
15.000
20
124.087
0
VERTEX
8
CONTOURS_MINEURES
10
13.912
20
124.087
0
VERTEX
8
CONTOURS_MINEURES
10
11.998
20
124.087
0
VERTEX
8
CONTOURS_MINEURES
10
9.053
20
123.055
0
VERTEX
8
CONTOURS_MINEURES
10
8.995
20
123.598
0
VERTEX
8
CONTOURS_MINEURES
10
8.672
20
125.678
0
VERTEX
8
CONTOURS_MINEURES
10
8.792
20
126.003
0
VERTEX
8
CONTOURS_MINEURES
10
8.995
20
126.151
0
VERTEX
8
CONTOURS_MINEURES
10
10.801
20
127.197
0
VERTEX
8
CONTOURS_MINEURES
10
11.998
20
127.487
0
VERTEX
8
CONTOURS_MINEURES
10
13.484
20
127.487
0
VERTEX
8
CONTOURS_MINEURES
10
15.000
20
127.487
0
VERTEX
8
CONTOURS_MINEURES
10
16.014
20
127.988
0
VERTEX
8
CONTOURS_MINEURES
10
16.516
20
128.999
0
VERTEX
8
CONTOURS_MINEURES
10
16.516
20
130.482
0
VERTEX
8
CONTOURS_MINEURES
10
16.516
20
131.995
0
VERTEX
8
CONTOURS_MINEURES
10
18.003
20
133.156
0
VERTEX
8
CONTOURS_MINEURES
10
19.845
20
133.156
0
VERTEX
8
CONTOURS_MINEURES
10
21.005
20
133.156
0
VERTEX
8
CONTOURS_MINEURES
10
22.045
20
133.956
0
VERTEX
8
CONTOURS_MINEURES
10
23.611
20
135.001
0
VERTEX
8
CONTOURS_MINEURES
10
23.611
20
137.610
0
VERTEX
8
CONTOURS_MINEURES
10
23.611
20
137.997
0
VERTEX
8
CONTOURS_MINEURES
10
23.690
20
138.305
0
VERTEX
8
CONTOURS_MINEURES
10
23.997
20
138.361
0
VERTEX
8
CONTOURS_MINEURES
10
25.235
20
139.764
0
VERTEX
8
CONTOURS_MINEURES
10
26.999
20
140.450
0
VERTEX
8
CONTOURS_MINEURES
10
29.449
20
140.450
0
VERTEX
8
CONTOURS_MINEURES
10
30.002
20
140.450
0
VERTEX
8
CONTOURS_MINEURES
10
30.957
20
141.004
0
VERTEX
8
CONTOURS_MINEURES
10
31.586
20
142.419
0
VERTEX
8
CONTOURS_MINEURES
10
33.004
20
143.143
0
VERTEX
8
CONTOURS_MINEURES
10
34.144
20
143.999
0
VERTEX
8
CONTOURS_MINEURES
10
34.144
20
145.854
0
VERTEX
8
CONTOURS_MINEURES
10
34.144
20
146.995
0
VERTEX
8
CONTOURS_MINEURES
10
34.144
20
148.856
0
VERTEX
8
CONTOURS_MINEURES
10
34.894
20
150.002
0
VERTEX
8
CONTOURS_MINEURES
10
34.109
20
151.108
0
VERTEX
8
CONTOURS_MINEURES
10
33.004
20
151.945
0
VERTEX
8
CONTOURS_MINEURES
10
32.395
20
152.389
0
VERTEX
8
CONTOURS_MINEURES
10
31.053
20
152.997
0
SEQEND
0
POLYLINE
8
CONTOURS_MAJEURES
66
1
70
0
0
VERTEX
8
CONTOURS_MAJEURES
10
58.021
20
-0.001
0
VERTEX
8
CONTOURS_MAJEURES
10
57.380
20
0.376
0
VERTEX
8
CONTOURS_MAJEURES
10
57.003
20
0.569
0
VERTEX
8
CONTOURS_MAJEURES
10
56.431
20
0.569
0
VERTEX
8
CONTOURS_MAJEURES
10
54.000
20
0.569
0
VERTEX
8
CONTOURS_MAJEURES
10
52.806
20
1.803
0
VERTEX
8
CONTOURS_MAJEURES
10
50.998
20
2.754
0
VERTEX
8
CONTOURS_MAJEURES
10
50.701
20
2.995
0
VERTEX
8
CONTOURS_MAJEURES
10
48.957
20
3.958
0
VERTEX
8
CONTOURS_MAJEURES
10
47.995
20
4.197
0
VERTEX
8
CONTOURS_MAJEURES
10
46.799
20
4.197
0
VERTEX
8
CONTOURS_MAJEURES
10
45.004
20
4.197
0
VERTEX
8
CONTOURS_MAJEURES
10
43.405
20
4.400
0
VERTEX
8
CONTOURS_MAJEURES
10
42.001
20
4.457
0
VERTEX
8
CONTOURS_MAJEURES
10
39.484
20
3.481
0
VERTEX
8
CONTOURS_MAJEURES
10
38.999
20
3.222
0
VERTEX
8
CONTOURS_MAJEURES
10
38.772
20
3.222
0
VERTEX
8
CONTOURS_MAJEURES
10
35.996
20
3.222
0
VERTEX
8
CONTOURS_MAJEURES
10
35.866
20
3.126
0
VERTEX
8
CONTOURS_MAJEURES
10
35.683
20
2.995
0
VERTEX
8
CONTOURS_MAJEURES
10
33.004
20
1.372
0
VERTEX
8
CONTOURS_MAJEURES
10
31.353
20
-0.001
0
SEQEND
0
POLYLINE
8
CONTOURS_MAJEURES
66
1
70
0
0
VERTEX
8
CONTOURS_MAJEURES
10
-0.002
20
37.341
0
VERTEX
8
CONTOURS_MAJEURES
10
2.940
20
36.002
0
VERTEX
8
CONTOURS_MAJEURES
10
2.962
20
35.963
0
VERTEX
8
CONTOURS_MAJEURES
10
3.001
20
35.974
0
VERTEX
8
CONTOURS_MAJEURES
10
3.028
20
35.974
0
VERTEX
8
CONTOURS_MAJEURES
10
6.003
20
35.974
0
VERTEX
8
CONTOURS_MAJEURES
10
8.010
20
35.012
0
VERTEX
8
CONTOURS_MAJEURES
10
8.995
20
34.849
0
VERTEX
8
CONTOURS_MAJEURES
10
11.306
20
33.687
0
VERTEX
8
CONTOURS_MAJEURES
10
11.998
20
33.405
0
VERTEX
8
CONTOURS_MAJEURES
10
12.406
20
33.405
0
VERTEX
8
CONTOURS_MAJEURES
10
15.000
20
33.405
0
VERTEX
8
CONTOURS_MAJEURES
10
15.590
20
32.995
0
VERTEX
8
CONTOURS_MAJEURES
10
15.590
20
32.407
0
VERTEX
8
CONTOURS_MAJEURES
10
15.590
20
29.999
0
VERTEX
8
CONTOURS_MAJEURES
10
16.436
20
28.436
0
VERTEX
8
CONTOURS_MAJEURES
10
18.003
20
27.293
0
VERTEX
8
CONTOURS_MAJEURES
10
18.293
20
27.293
0
VERTEX
8
CONTOURS_MAJEURES
10
21.005
20
27.293
0
VERTEX
8
CONTOURS_MAJEURES
10
21.456
20
27.004
0
VERTEX
8
CONTOURS_MAJEURES
10
23.997
20
26.083
0
VERTEX
8
CONTOURS_MAJEURES
10
26.147
20
26.150
0
VERTEX
8
CONTOURS_MAJEURES
10
26.999
20
26.280
0
VERTEX
8
CONTOURS_MAJEURES
10
29.279
20
26.280
0
VERTEX
8
CONTOURS_MAJEURES
10
30.002
20
26.280
0
VERTEX
8
CONTOURS_MAJEURES
10
30.480
20
26.525
0
VERTEX
8
CONTOURS_MAJEURES
10
31.167
20
27.004
0
VERTEX
8
CONTOURS_MAJEURES
10
33.004
20
27.923
0
VERTEX
8
CONTOURS_MAJEURES
10
34.466
20
28.536
0
VERTEX
8
CONTOURS_MAJEURES
10
35.996
20
28.854
0
VERTEX
8
CONTOURS_MAJEURES
10
37.144
20
28.854
0
VERTEX
8
CONTOURS_MAJEURES
10
38.999
20
28.854
0
VERTEX
8
CONTOURS_MAJEURES
10
39.875
20
29.125
0
VERTEX
8
CONTOURS_MAJEURES
10
42.001
20
29.870
0
VERTEX
8
CONTOURS_MAJEURES
10
42.448
20
29.999
0
VERTEX
8
CONTOURS_MAJEURES
10
42.448
20
30.445
0
VERTEX
8
CONTOURS_MAJEURES
10
42.448
20
32.995
0
VERTEX
8
CONTOURS_MAJEURES
10
44.286
20
33.714
0
VERTEX
8
CONTOURS_MAJEURES
10
45.004
20
33.834
0
VERTEX
8
CONTOURS_MAJEURES
10
45.839
20
33.834
0
VERTEX
8
CONTOURS_MAJEURES
10
47.995
20
33.834
0
VERTEX
8
CONTOURS_MAJEURES
10
49.929
20
34.065
0
VERTEX
8
CONTOURS_MAJEURES
10
50.998
20
34.244
0
VERTEX
8
CONTOURS_MAJEURES
10
51.925
20
33.924
0
VERTEX
8
CONTOURS_MAJEURES
10
54.000
20
33.101
0
VERTEX
8
CONTOURS_MAJEURES
10
54.106
20
33.101
0
VERTEX
8
CONTOURS_MAJEURES
10
57.003
20
33.101
0
VERTEX
8
CONTOURS_MAJEURES
10
57.235
20
32.995
0
VERTEX
8
CONTOURS_MAJEURES
10
57.235
20
32.763
0
VERTEX
8
CONTOURS_MAJEURES
10
57.235
20
29.999
0
VERTEX
8
CONTOURS_MAJEURES
10
59.221
20
29.225
0
VERTEX
8
CONTOURS_MAJEURES
10
59.995
20
28.926
0
VERTEX
8
CONTOURS_MAJEURES
10
61.633
20
28.364
0
VERTEX
8
CONTOURS_MAJEURES
10
62.997
20
28.246
0
VERTEX
8
CONTOURS_MAJEURES
10
64.755
20
28.246
0
VERTEX
8
CONTOURS_MAJEURES
10
66.000
20
28.246
0
VERTEX
8
CONTOURS_MAJEURES
10
67.974
20
28.973
0
VERTEX
8
CONTOURS_MAJEURES
10
69.002
20
28.846
0
VERTEX
8
CONTOURS_MAJEURES
10
70.902
20
29.999
0
VERTEX
8
CONTOURS_MAJEURES
10
70.902
20
31.100
0
VERTEX
8
CONTOURS_MAJEURES
10
70.902
20
32.995
0
VERTEX
8
CONTOURS_MAJEURES
10
72.005
20
33.717
0
VERTEX
8
CONTOURS_MAJEURES
10
72.723
20
33.717
0
VERTEX
8
CONTOURS_MAJEURES
10
74.996
20
33.717
0
SEQEND
0
POLYLINE
8
CONTOURS_MAJEURES
66
1
70
0
0
VERTEX
8
CONTOURS_MAJEURES
10
11.685
20
-0.001
0
VERTEX
8
CONTOURS_MAJEURES
10
11.689
20
0.307
0
VERTEX
8
CONTOURS_MAJEURES
10
11.998
20
1.350
0
VERTEX
8
CONTOURS_MAJEURES
10
13.352
20
1.350
0
VERTEX
8
CONTOURS_MAJEURES
10
15.000
20
1.350
0
VERTEX
8
CONTOURS_MAJEURES
10
15.377
20
2.618
0
VERTEX
8
CONTOURS_MAJEURES
10
15.398
20
2.995
0
VERTEX
8
CONTOURS_MAJEURES
10
15.484
20
3.479
0
VERTEX
8
CONTOURS_MAJEURES
10
15.621
20
6.001
0
VERTEX
8
CONTOURS_MAJEURES
10
15.621
20
8.377
0
VERTEX
8
CONTOURS_MAJEURES
10
15.621
20
8.997
0
VERTEX
8
CONTOURS_MAJEURES
10
16.087
20
10.085
0
VERTEX
8
CONTOURS_MAJEURES
10
16.501
20
12.004
0
VERTEX
8
CONTOURS_MAJEURES
10
16.501
20
13.501
0
VERTEX
8
CONTOURS_MAJEURES
10
16.501
20
14.999
0
VERTEX
8
CONTOURS_MAJEURES
10
15.751
20
17.246
0
VERTEX
8
CONTOURS_MAJEURES
10
16.137
20
17.995
0
VERTEX
8
CONTOURS_MAJEURES
10
15.780
20
18.776
0
VERTEX
8
CONTOURS_MAJEURES
10
15.000
20
18.856
0
VERTEX
8
CONTOURS_MAJEURES
10
12.857
20
18.856
0
VERTEX
8
CONTOURS_MAJEURES
10
11.998
20
18.856
0
VERTEX
8
CONTOURS_MAJEURES
10
10.464
20
19.466
0
VERTEX
8
CONTOURS_MAJEURES
10
8.995
20
19.810
0
VERTEX
8
CONTOURS_MAJEURES
10
6.839
20
20.162
0
VERTEX
8
CONTOURS_MAJEURES
10
6.003
20
20.276
0
VERTEX
8
CONTOURS_MAJEURES
10
3.725
20
20.276
0
VERTEX
8
CONTOURS_MAJEURES
10
3.001
20
20.276
0
VERTEX
8
CONTOURS_MAJEURES
10
2.400
20
20.400
0
VERTEX
8
CONTOURS_MAJEURES
10
1.569
20
21.001
0
VERTEX
8
CONTOURS_MAJEURES
10
1.569
20
22.568
0
VERTEX
8
CONTOURS_MAJEURES
10
1.569
20
23.997
0
VERTEX
8
CONTOURS_MAJEURES
10
-0.002
20
25.360
0
SEQEND
0
POLYLINE
8
CONTOURS_MAJEURES
66
1
70
0
0
VERTEX
8
CONTOURS_MAJEURES
10
-0.002
20
59.372
0
VERTEX
8
CONTOURS_MAJEURES
10
1.798
20
58.800
0
VERTEX
8
CONTOURS_MAJEURES
10
3.001
20
57.783
0
VERTEX
8
CONTOURS_MAJEURES
10
5.223
20
57.783
0
VERTEX
8
CONTOURS_MAJEURES
10
6.003
20
57.783
0
VERTEX
8
CONTOURS_MAJEURES
10
6.670
20
57.671
0
VERTEX
8
CONTOURS_MAJEURES
10
7.187
20
57.004
0
VERTEX
8
CONTOURS_MAJEURES
10
7.187
20
55.815
0
VERTEX
8
CONTOURS_MAJEURES
10
7.187
20
53.998
0
VERTEX
8
CONTOURS_MAJEURES
10
8.289
20
53.290
0
VERTEX
8
CONTOURS_MAJEURES
10
8.995
20
52.603
0
VERTEX
8
CONTOURS_MAJEURES
10
11.791
20
51.209
0
VERTEX
8
CONTOURS_MAJEURES
10
11.998
20
51.177
0
VERTEX
8
CONTOURS_MAJEURES
10
12.173
20
51.177
0
VERTEX
8
CONTOURS_MAJEURES
10
15.000
20
51.177
0
VERTEX
8
CONTOURS_MAJEURES
10
15.410
20
51.411
0
VERTEX
8
CONTOURS_MAJEURES
10
18.003
20
52.371
0
VERTEX
8
CONTOURS_MAJEURES
10
19.633
20
52.371
0
VERTEX
8
CONTOURS_MAJEURES
10
21.005
20
52.371
0
VERTEX
8
CONTOURS_MAJEURES
10
22.900
20
53.998
0
VERTEX
8
CONTOURS_MAJEURES
10
22.900
20
55.100
0
VERTEX
8
CONTOURS_MAJEURES
10
22.900
20
57.004
0
VERTEX
8
CONTOURS_MAJEURES
10
23.448
20
57.554
0
VERTEX
8
CONTOURS_MAJEURES
10
23.997
20
58.161
0
VERTEX
8
CONTOURS_MAJEURES
10
25.178
20
58.822
0
VERTEX
8
CONTOURS_MAJEURES
10
26.018
20
60.000
0
VERTEX
8
CONTOURS_MAJEURES
10
26.468
20
60.530
0
VERTEX
8
CONTOURS_MAJEURES
10
26.999
20
61.340
0
VERTEX
8
CONTOURS_MAJEURES
10
28.659
20
61.340
0
VERTEX
8
CONTOURS_MAJEURES
10
30.002
20
61.340
0
VERTEX
8
CONTOURS_MAJEURES
10
30.916
20
62.996
0
VERTEX
8
CONTOURS_MAJEURES
10
30.916
20
65.087
0
VERTEX
8
CONTOURS_MAJEURES
10
30.916
20
66.002
0
VERTEX
8
CONTOURS_MAJEURES
10
31.540
20
67.537
0
VERTEX
8
CONTOURS_MAJEURES
10
32.159
20
68.998
0
VERTEX
8
CONTOURS_MAJEURES
10
32.427
20
69.576
0
VERTEX
8
CONTOURS_MAJEURES
10
33.004
20
70.540
0
VERTEX
8
CONTOURS_MAJEURES
10
34.141
20
72.005
0
VERTEX
8
CONTOURS_MAJEURES
10
34.141
20
73.143
0
VERTEX
8
CONTOURS_MAJEURES
10
34.141
20
75.000
0
VERTEX
8
CONTOURS_MAJEURES
10
35.030
20
75.968
0
VERTEX
8
CONTOURS_MAJEURES
10
35.996
20
76.720
0
VERTEX
8
CONTOURS_MAJEURES
10
37.720
20
76.720
0
VERTEX
8
CONTOURS_MAJEURES
10
38.999
20
76.720
0
VERTEX
8
CONTOURS_MAJEURES
10
39.802
20
77.195
0
VERTEX
8
CONTOURS_MAJEURES
10
41.761
20
77.996
0
VERTEX
8
CONTOURS_MAJEURES
10
41.761
20
80.762
0
VERTEX
8
CONTOURS_MAJEURES
10
41.761
20
81.003
0
VERTEX
8
CONTOURS_MAJEURES
10
41.928
20
81.076
0
VERTEX
8
CONTOURS_MAJEURES
10
42.001
20
81.110
0
VERTEX
8
CONTOURS_MAJEURES
10
42.376
20
81.377
0
VERTEX
8
CONTOURS_MAJEURES
10
45.004
20
82.975
0
VERTEX
8
CONTOURS_MAJEURES
10
46.025
20
82.975
0
VERTEX
8
CONTOURS_MAJEURES
10
47.995
20
82.975
0
VERTEX
8
CONTOURS_MAJEURES
10
48.673
20
83.998
0
VERTEX
8
CONTOURS_MAJEURES
10
49.240
20
85.758
0
VERTEX
8
CONTOURS_MAJEURES
10
49.542
20
87.005
0
VERTEX
8
CONTOURS_MAJEURES
10
49.542
20
88.548
0
VERTEX
8
CONTOURS_MAJEURES
10
49.542
20
90.001
0
VERTEX
8
CONTOURS_MAJEURES
10
49.782
20
91.214
0
VERTEX
8
CONTOURS_MAJEURES
10
50.428
20
92.996
0
VERTEX
8
CONTOURS_MAJEURES
10
50.998
20
94.571
0
VERTEX
8
CONTOURS_MAJEURES
10
51.788
20
96.003
0
VERTEX
8
CONTOURS_MAJEURES
10
51.788
20
98.210
0
VERTEX
8
CONTOURS_MAJEURES
10
51.788
20
98.999
0
VERTEX
8
CONTOURS_MAJEURES
10
53.011
20
99.989
0
VERTEX
8
CONTOURS_MAJEURES
10
54.000
20
100.752
0
VERTEX
8
CONTOURS_MAJEURES
10
55.251
20
100.752
0
VERTEX
8
CONTOURS_MAJEURES
10
57.003
20
100.752
0
VERTEX
8
CONTOURS_MAJEURES
10
58.276
20
102.005
0
VERTEX
8
CONTOURS_MAJEURES
10
58.276
20
103.280
0
VERTEX
8
CONTOURS_MAJEURES
10
58.276
20
105.001
0
VERTEX
8
CONTOURS_MAJEURES
10
58.918
20
106.079
0
VERTEX
8
CONTOURS_MAJEURES
10
59.995
20
107.889
0
VERTEX
8
CONTOURS_MAJEURES
10
60.074
20
107.996
0
VERTEX
8
CONTOURS_MAJEURES
10
61.554
20
109.441
0
VERTEX
8
CONTOURS_MAJEURES
10
62.219
20
111.003
0
VERTEX
8
CONTOURS_MAJEURES
10
62.219
20
113.222
0
VERTEX
8
CONTOURS_MAJEURES
10
62.219
20
113.999
0
VERTEX
8
CONTOURS_MAJEURES
10
62.405
20
114.592
0
VERTEX
8
CONTOURS_MAJEURES
10
62.997
20
116.337
0
VERTEX
8
CONTOURS_MAJEURES
10
63.664
20
116.337
0
VERTEX
8
CONTOURS_MAJEURES
10
66.000
20
116.337
0
VERTEX
8
CONTOURS_MAJEURES
10
66.245
20
117.005
0
VERTEX
8
CONTOURS_MAJEURES
10
66.750
20
119.252
0
VERTEX
8
CONTOURS_MAJEURES
10
66.866
20
120.001
0
VERTEX
8
CONTOURS_MAJEURES
10
66.866
20
122.133
0
VERTEX
8
CONTOURS_MAJEURES
10
66.866
20
122.997
0
VERTEX
8
CONTOURS_MAJEURES
10
66.790
20
123.788
0
VERTEX
8
CONTOURS_MAJEURES
10
66.530
20
126.003
0
VERTEX
8
CONTOURS_MAJEURES
10
66.000
20
126.966
0
VERTEX
8
CONTOURS_MAJEURES
10
65.035
20
126.966
0
VERTEX
8
CONTOURS_MAJEURES
10
62.997
20
126.966
0
VERTEX
8
CONTOURS_MAJEURES
10
62.341
20
128.345
0
VERTEX
8
CONTOURS_MAJEURES
10
62.120
20
128.999
0
VERTEX
8
CONTOURS_MAJEURES
10
62.120
20
129.875
0
VERTEX
8
CONTOURS_MAJEURES
10
62.120
20
131.995
0
VERTEX
8
CONTOURS_MAJEURES
10
61.547
20
133.549
0
VERTEX
8
CONTOURS_MAJEURES
10
60.771
20
135.001
0
VERTEX
8
CONTOURS_MAJEURES
10
60.771
20
137.222
0
VERTEX
8
CONTOURS_MAJEURES
10
60.771
20
137.997
0
VERTEX
8
CONTOURS_MAJEURES
10
59.995
20
138.540
0
VERTEX
8
CONTOURS_MAJEURES
10
58.572
20
139.574
0
VERTEX
8
CONTOURS_MAJEURES
10
57.003
20
140.298
0
VERTEX
8
CONTOURS_MAJEURES
10
54.705
20
140.298
0
VERTEX
8
CONTOURS_MAJEURES
10
54.000
20
140.298
0
VERTEX
8
CONTOURS_MAJEURES
10
52.646
20
141.004
0
VERTEX
8
CONTOURS_MAJEURES
10
54.000
20
142.133
0
VERTEX
8
CONTOURS_MAJEURES
10
55.133
20
142.133
0
VERTEX
8
CONTOURS_MAJEURES
10
57.003
20
142.133
0
VERTEX
8
CONTOURS_MAJEURES
10
57.966
20
143.999
0
VERTEX
8
CONTOURS_MAJEURES
10
57.966
20
146.030
0
VERTEX
8
CONTOURS_MAJEURES
10
57.966
20
146.995
0
VERTEX
8
CONTOURS_MAJEURES
10
59.995
20
148.444
0
VERTEX
8
CONTOURS_MAJEURES
10
61.103
20
148.892
0
VERTEX
8
CONTOURS_MAJEURES
10
62.997
20
149.981
0
VERTEX
8
CONTOURS_MAJEURES
10
65.979
20
149.981
0
VERTEX
8
CONTOURS_MAJEURES
10
66.000
20
149.981
0
VERTEX
8
CONTOURS_MAJEURES
10
66.014
20
149.987
0
VERTEX
8
CONTOURS_MAJEURES
10
66.023
20
150.002
0
VERTEX
8
CONTOURS_MAJEURES
10
69.002
20
152.505
0
VERTEX
8
CONTOURS_MAJEURES
10
69.809
20
152.997
0
SEQEND
0
POLYLINE
8
PARCELLE
66
1
70
1
0
VERTEX
8
PARCELLE
10
35.536
20
20.000
0
VERTEX
8
PARCELLE
10
33.674
20
32.833
0
VERTEX
8
PARCELLE
10
26.132
20
84.962
0
VERTEX
8
PARCELLE
10
20.000
20
125.091
0
VERTEX
8
PARCELLE
10
34.654
20
130.893
0
VERTEX
8
PARCELLE
10
41.585
20
133.572
0
VERTEX
8
PARCELLE
10
49.504
20
80.001
0
VERTEX
8
PARCELLE
10
53.728
20
50.687
0
VERTEX
8
PARCELLE
10
57.129
20
28.201
0
VERTEX
8
PARCELLE
10
53.990
20
27.049
0
VERTEX
8
PARCELLE
10
43.609
20
22.990
0
VERTEX
8
PARCELLE
10
35.536
20
20.000
0
SEQEND
0
TEXT
8
POINTS_COTES
10
-0.002
20
-0.001
40
1.0
1
399.7
0
TEXT
8
POINTS_COTES
10
45.004
20
6.001
40
1.0
1
388.8
0
TEXT
8
POINTS_COTES
10
11.998
20
14.999
40
1.0
1
392.0
0
TEXT
8
POINTS_COTES
10
57.003
20
21.001
40
1.0
1
384.2
0
TEXT
8
POINTS_COTES
10
23.997
20
29.999
40
1.0
1
392.7
0
TEXT
8
POINTS_COTES
10
69.002
20
36.002
40
1.0
1
392.0
0
TEXT
8
POINTS_COTES
10
35.996
20
45.000
40
1.0
1
396.4
0
TEXT
8
POINTS_COTES
10
3.001
20
53.998
40
1.0
1
399.5
0
TEXT
8
POINTS_COTES
10
47.995
20
60.000
40
1.0
1
397.8
0
TEXT
8
POINTS_COTES
10
15.000
20
68.998
40
1.0
1
402.1
0
TEXT
8
POINTS_COTES
10
59.995
20
75.000
40
1.0
1
398.0
0
TEXT
8
POINTS_COTES
10
26.999
20
83.998
40
1.0
1
401.8
0
TEXT
8
POINTS_COTES
10
72.005
20
90.001
40
1.0
1
397.3
0
TEXT
8
POINTS_COTES
10
38.999
20
98.999
40
1.0
1
401.9
0
TEXT
8
POINTS_COTES
10
6.003
20
107.996
40
1.0
1
406.1
0
TEXT
8
POINTS_COTES
10
50.998
20
113.999
40
1.0
1
401.3
0
TEXT
8
POINTS_COTES
10
18.003
20
122.997
40
1.0
1
405.1
0
TEXT
8
POINTS_COTES
10
62.997
20
128.999
40
1.0
1
399.8
0
TEXT
8
POINTS_COTES
10
30.002
20
137.997
40
1.0
1
403.8
0
TEXT
8
POINTS_COTES
10
74.996
20
143.999
40
1.0
1
397.5
0
TEXT
8
POINTS_COTES
10
42.001
20
152.997
40
1.0
1
404.2
0
ENDSEC
0
EOF
