0
SECTION
2
HEADER
0
ENDSEC
0
SECTION
2
TABLES
0
TABLE
2
LAYER
70
4
0
LAYER
2
CONTOURS_MINEURES
70
0
62
8
6
CONTINUOUS
0
LAYER
2
CONTOURS_MAJEURES
70
0
62
3
6
CONTINUOUS
0
LAYER
2
PARCELLE
70
0
62
4
6
CONTINUOUS
0
LAYER
2
POINTS_COTES
70
0
62
7
6
CONTINUOUS
0
ENDTAB
0
ENDSEC
0
SECTION
2
ENTITIES
0
POLYLINE
8
CONTOURS_MINEURES
66
1
70
0
0
VERTEX
8
CONTOURS_MINEURES
10
187.770
20
-0.003
0
VERTEX
8
CONTOURS_MINEURES
10
189.400
20
0.596
0
VERTEX
8
CONTOURS_MINEURES
10
189.998
20
0.862
0
VERTEX
8
CONTOURS_MINEURES
10
190.910
20
0.909
0
VERTEX
8
CONTOURS_MINEURES
10
194.998
20
1.008
0
VERTEX
8
CONTOURS_MINEURES
10
195.831
20
0.831
0
VERTEX
8
CONTOURS_MINEURES
10
199.997
20
0.491
0
VERTEX
8
CONTOURS_MINEURES
10
204.180
20
0.815
0
VERTEX
8
CONTOURS_MINEURES
10
204.997
20
0.777
0
VERTEX
8
CONTOURS_MINEURES
10
209.602
20
0.391
0
VERTEX
8
CONTOURS_MINEURES
10
209.996
20
0.380
0
VERTEX
8
CONTOURS_MINEURES
10
210.363
20
0.364
0
VERTEX
8
CONTOURS_MINEURES
10
212.496
20
-0.003
0
SEQEND
0
POLYLINE
8
CONTOURS_MINEURES
66
1
70
0
0
VERTEX
8
CONTOURS_MINEURES
10
245.937
20
-0.003
0
VERTEX
8
CONTOURS_MINEURES
10
250.004
20
1.391
0
VERTEX
8
CONTOURS_MINEURES
10
252.962
20
2.041
0
VERTEX
8
CONTOURS_MINEURES
10
255.003
20
2.370
0
VERTEX
8
CONTOURS_MINEURES
10
259.363
20
4.363
0
VERTEX
8
CONTOURS_MINEURES
10
260.003
20
4.436
0
VERTEX
8
CONTOURS_MINEURES
10
260.632
20
4.373
0
VERTEX
8
CONTOURS_MINEURES
10
261.431
20
5.004
0
VERTEX
8
CONTOURS_MINEURES
10
265.002
20
6.757
0
VERTEX
8
CONTOURS_MINEURES
10
268.492
20
6.512
0
VERTEX
8
CONTOURS_MINEURES
10
270.002
20
6.636
0
SEQEND
0
POLYLINE
8
CONTOURS_MINEURES
66
1
70
0
0
VERTEX
8
CONTOURS_MINEURES
10
181.010
20
-0.003
0
VERTEX
8
CONTOURS_MINEURES
10
184.999
20
3.409
0
VERTEX
8
CONTOURS_MINEURES
10
186.164
20
3.837
0
VERTEX
8
CONTOURS_MINEURES
10
188.788
20
5.004
0
VERTEX
8
CONTOURS_MINEURES
10
189.998
20
5.422
0
VERTEX
8
CONTOURS_MINEURES
10
194.404
20
5.598
0
VERTEX
8
CONTOURS_MINEURES
10
194.998
20
5.596
0
VERTEX
8
CONTOURS_MINEURES
10
198.861
20
5.004
0
VERTEX
8
CONTOURS_MINEURES
10
199.799
20
4.805
0
VERTEX
8
CONTOURS_MINEURES
10
199.997
20
4.789
0
VERTEX
8
CONTOURS_MINEURES
10
200.197
20
4.805
0
VERTEX
8
CONTOURS_MINEURES
10
204.997
20
4.585
0
VERTEX
8
CONTOURS_MINEURES
10
205.453
20
4.547
0
VERTEX
8
CONTOURS_MINEURES
10
209.996
20
4.419
0
VERTEX
8
CONTOURS_MINEURES
10
214.224
20
4.231
0
VERTEX
8
CONTOURS_MINEURES
10
214.996
20
4.098
0
VERTEX
8
CONTOURS_MINEURES
10
216.262
20
3.736
0
VERTEX
8
CONTOURS_MINEURES
10
219.996
20
3.713
0
VERTEX
8
CONTOURS_MINEURES
10
221.610
20
3.388
0
VERTEX
8
CONTOURS_MINEURES
10
224.995
20
3.646
0
VERTEX
8
CONTOURS_MINEURES
10
228.442
20
3.442
0
VERTEX
8
CONTOURS_MINEURES
10
230.005
20
3.162
0
VERTEX
8
CONTOURS_MINEURES
10
232.058
20
2.948
0
VERTEX
8
CONTOURS_MINEURES
10
235.005
20
2.719
0
VERTEX
8
CONTOURS_MINEURES
10
236.551
20
3.456
0
VERTEX
8
CONTOURS_MINEURES
10
240.004
20
3.283
0
VERTEX
8
CONTOURS_MINEURES
10
244.238
20
4.237
0
VERTEX
8
CONTOURS_MINEURES
10
245.004
20
4.540
0
VERTEX
8
CONTOURS_MINEURES
10
246.561
20
5.004
0
VERTEX
8
CONTOURS_MINEURES
10
250.004
20
5.666
0
VERTEX
8
CONTOURS_MINEURES
10
253.887
20
6.119
0
VERTEX
8
CONTOURS_MINEURES
10
255.003
20
6.361
0
VERTEX
8
CONTOURS_MINEURES
10
257.680
20
7.326
0
VERTEX
8
CONTOURS_MINEURES
10
260.003
20
9.054
0
VERTEX
8
CONTOURS_MINEURES
10
261.275
20
10.001
0
VERTEX
8
CONTOURS_MINEURES
10
263.570
20
11.431
0
VERTEX
8
CONTOURS_MINEURES
10
265.002
20
13.911
0
VERTEX
8
CONTOURS_MINEURES
10
267.467
20
14.997
0
VERTEX
8
CONTOURS_MINEURES
10
270.002
20
16.592
0
SEQEND
0
POLYLINE
8
CONTOURS_MINEURES
66
1
70
0
0
VERTEX
8
CONTOURS_MINEURES
10
171.782
20
-0.003
0
VERTEX
8
CONTOURS_MINEURES
10
175.000
20
1.283
0
VERTEX
8
CONTOURS_MINEURES
10
177.693
20
2.307
0
VERTEX
8
CONTOURS_MINEURES
10
179.999
20
3.314
0
VERTEX
8
CONTOURS_MINEURES
10
181.951
20
5.004
0
VERTEX
8
CONTOURS_MINEURES
10
183.671
20
6.331
0
VERTEX
8
CONTOURS_MINEURES
10
184.999
20
7.399
0
VERTEX
8
CONTOURS_MINEURES
10
188.554
20
8.557
0
VERTEX
8
CONTOURS_MINEURES
10
189.998
20
9.056
0
VERTEX
8
CONTOURS_MINEURES
10
190.907
20
9.092
0
VERTEX
8
CONTOURS_MINEURES
10
194.998
20
9.078
0
VERTEX
8
CONTOURS_MINEURES
10
196.088
20
8.911
0
VERTEX
8
CONTOURS_MINEURES
10
199.997
20
8.278
0
VERTEX
8
CONTOURS_MINEURES
10
202.808
20
7.813
0
VERTEX
8
CONTOURS_MINEURES
10
204.997
20
7.732
0
VERTEX
8
CONTOURS_MINEURES
10
207.497
20
7.502
0
VERTEX
8
CONTOURS_MINEURES
10
209.996
20
7.452
0
VERTEX
8
CONTOURS_MINEURES
10
212.320
20
7.326
0
VERTEX
8
CONTOURS_MINEURES
10
214.996
20
7.243
0
VERTEX
8
CONTOURS_MINEURES
10
217.763
20
7.236
0
VERTEX
8
CONTOURS_MINEURES
10
219.996
20
7.376
0
VERTEX
8
CONTOURS_MINEURES
10
222.585
20
7.592
0
VERTEX
8
CONTOURS_MINEURES
10
224.995
20
7.660
0
VERTEX
8
CONTOURS_MINEURES
10
227.395
20
7.607
0
VERTEX
8
CONTOURS_MINEURES
10
230.005
20
7.558
0
VERTEX
8
CONTOURS_MINEURES
10
232.490
20
7.487
0
VERTEX
8
CONTOURS_MINEURES
10
235.005
20
7.423
0
VERTEX
8
CONTOURS_MINEURES
10
237.433
20
7.431
0
VERTEX
8
CONTOURS_MINEURES
10
240.004
20
7.364
0
VERTEX
8
CONTOURS_MINEURES
10
242.366
20
7.641
0
VERTEX
8
CONTOURS_MINEURES
10
245.004
20
7.830
0
VERTEX
8
CONTOURS_MINEURES
10
248.539
20
8.537
0
VERTEX
8
CONTOURS_MINEURES
10
250.004
20
8.818
0
VERTEX
8
CONTOURS_MINEURES
10
251.063
20
8.942
0
VERTEX
8
CONTOURS_MINEURES
10
255.003
20
9.795
0
VERTEX
8
CONTOURS_MINEURES
10
255.155
20
9.849
0
VERTEX
8
CONTOURS_MINEURES
10
255.358
20
10.001
0
VERTEX
8
CONTOURS_MINEURES
10
258.307
20
11.695
0
VERTEX
8
CONTOURS_MINEURES
10
260.003
20
12.895
0
VERTEX
8
CONTOURS_MINEURES
10
261.298
20
13.702
0
VERTEX
8
CONTOURS_MINEURES
10
262.045
20
14.997
0
VERTEX
8
CONTOURS_MINEURES
10
263.537
20
16.465
0
VERTEX
8
CONTOURS_MINEURES
10
265.002
20
18.621
0
VERTEX
8
CONTOURS_MINEURES
10
266.696
20
20.004
0
VERTEX
8
CONTOURS_MINEURES
10
268.635
20
21.370
0
VERTEX
8
CONTOURS_MINEURES
10
270.002
20
23.845
0
SEQEND
0
POLYLINE
8
CONTOURS_MINEURES
66
1
70
0
0
VERTEX
8
CONTOURS_MINEURES
10
164.442
20
-0.003
0
VERTEX
8
CONTOURS_MINEURES
10
165.001
20
0.396
0
VERTEX
8
CONTOURS_MINEURES
10
167.859
20
2.141
0
VERTEX
8
CONTOURS_MINEURES
10
170.000
20
3.061
0
VERTEX
8
CONTOURS_MINEURES
10
174.482
20
5.004
0
VERTEX
8
CONTOURS_MINEURES
10
175.000
20
5.224
0
VERTEX
8
CONTOURS_MINEURES
10
178.443
20
6.560
0
VERTEX
8
CONTOURS_MINEURES
10
179.999
20
7.172
0
VERTEX
8
CONTOURS_MINEURES
10
181.597
20
8.404
0
VERTEX
8
CONTOURS_MINEURES
10
183.580
20
10.001
0
VERTEX
8
CONTOURS_MINEURES
10
184.373
20
10.626
0
VERTEX
8
CONTOURS_MINEURES
10
184.999
20
11.138
0
VERTEX
8
CONTOURS_MINEURES
10
187.914
20
12.084
0
VERTEX
8
CONTOURS_MINEURES
10
189.998
20
12.533
0
VERTEX
8
CONTOURS_MINEURES
10
192.385
20
12.386
0
VERTEX
8
CONTOURS_MINEURES
10
194.998
20
12.377
0
VERTEX
8
CONTOURS_MINEURES
10
198.089
20
11.908
0
VERTEX
8
CONTOURS_MINEURES
10
199.997
20
11.689
0
VERTEX
8
CONTOURS_MINEURES
10
201.451
20
11.453
0
VERTEX
8
CONTOURS_MINEURES
10
204.997
20
10.878
0
VERTEX
8
CONTOURS_MINEURES
10
205.775
20
10.778
0
VERTEX
8
CONTOURS_MINEURES
10
209.996
20
10.362
0
VERTEX
8
CONTOURS_MINEURES
10
214.943
20
10.053
0
VERTEX
8
CONTOURS_MINEURES
10
214.996
20
10.047
0
VERTEX
8
CONTOURS_MINEURES
10
215.041
20
10.046
0
VERTEX
8
CONTOURS_MINEURES
10
219.996
20
10.340
0
VERTEX
8
CONTOURS_MINEURES
10
224.313
20
10.682
0
VERTEX
8
CONTOURS_MINEURES
10
224.995
20
10.716
0
VERTEX
8
CONTOURS_MINEURES
10
225.705
20
10.708
0
VERTEX
8
CONTOURS_MINEURES
10
230.005
20
10.637
0
VERTEX
8
CONTOURS_MINEURES
10
234.479
20
10.526
0
VERTEX
8
CONTOURS_MINEURES
10
235.005
20
10.523
0
VERTEX
8
CONTOURS_MINEURES
10
235.559
20
10.554
0
VERTEX
8
CONTOURS_MINEURES
10
240.004
20
10.567
0
VERTEX
8
CONTOURS_MINEURES
10
244.152
20
10.852
0
VERTEX
8
CONTOURS_MINEURES
10
245.004
20
10.902
0
VERTEX
8
CONTOURS_MINEURES
10
248.449
20
11.554
0
VERTEX
8
CONTOURS_MINEURES
10
250.004
20
11.965
0
VERTEX
8
CONTOURS_MINEURES
10
252.709
20
12.704
0
VERTEX
8
CONTOURS_MINEURES
10
255.003
20
13.196
0
VERTEX
8
CONTOURS_MINEURES
10
256.148
20
13.853
0
VERTEX
8
CONTOURS_MINEURES
10
257.763
20
14.997
0
VERTEX
8
CONTOURS_MINEURES
10
260.003
20
16.513
0
VERTEX
8
CONTOURS_MINEURES
10
261.761
20
18.243
0
VERTEX
8
CONTOURS_MINEURES
10
262.958
20
20.004
0
VERTEX
8
CONTOURS_MINEURES
10
265.002
20
22.597
0
VERTEX
8
CONTOURS_MINEURES
10
266.413
20
23.591
0
VERTEX
8
CONTOURS_MINEURES
10
267.192
20
25.001
0
VERTEX
8
CONTOURS_MINEURES
10
270.002
20
29.333
0
SEQEND
0
POLYLINE
8
CONTOURS_MINEURES
66
1
70
0
0
VERTEX
8
CONTOURS_MINEURES
10
158.389
20
-0.003
0
VERTEX
8
CONTOURS_MINEURES
10
159.334
20
0.665
0
VERTEX
8
CONTOURS_MINEURES
10
160.001
20
1.171
0
VERTEX
8
CONTOURS_MINEURES
10
163.604
20
3.605
0
VERTEX
8
CONTOURS_MINEURES
10
165.001
20
4.604
0
VERTEX
8
CONTOURS_MINEURES
10
165.249
20
4.756
0
VERTEX
8
CONTOURS_MINEURES
10
165.827
20
5.004
0
VERTEX
8
CONTOURS_MINEURES
10
170.000
20
6.670
0
VERTEX
8
CONTOURS_MINEURES
10
173.057
20
8.059
0
VERTEX
8
CONTOURS_MINEURES
10
175.000
20
8.884
0
VERTEX
8
CONTOURS_MINEURES
10
175.804
20
9.196
0
VERTEX
8
CONTOURS_MINEURES
10
177.850
20
10.001
0
VERTEX
8
CONTOURS_MINEURES
10
179.999
20
10.846
0
VERTEX
8
CONTOURS_MINEURES
10
182.319
20
12.678
0
VERTEX
8
CONTOURS_MINEURES
10
184.999
20
14.866
0
VERTEX
8
CONTOURS_MINEURES
10
185.097
20
14.898
0
VERTEX
8
CONTOURS_MINEURES
10
185.554
20
14.997
0
VERTEX
8
CONTOURS_MINEURES
10
189.163
20
15.834
0
VERTEX
8
CONTOURS_MINEURES
10
189.998
20
15.922
0
VERTEX
8
CONTOURS_MINEURES
10
190.847
20
15.847
0
VERTEX
8
CONTOURS_MINEURES
10
194.998
20
15.607
0
VERTEX
8
CONTOURS_MINEURES
10
199.925
20
15.069
0
VERTEX
8
CONTOURS_MINEURES
10
199.997
20
15.062
0
VERTEX
8
CONTOURS_MINEURES
10
200.414
20
14.997
0
VERTEX
8
CONTOURS_MINEURES
10
204.357
20
14.358
0
VERTEX
8
CONTOURS_MINEURES
10
204.997
20
14.254
0
VERTEX
8
CONTOURS_MINEURES
10
208.769
20
13.770
0
VERTEX
8
CONTOURS_MINEURES
10
209.996
20
13.649
0
VERTEX
8
CONTOURS_MINEURES
10
211.435
20
13.559
0
VERTEX
8
CONTOURS_MINEURES
10
214.996
20
13.160
0
VERTEX
8
CONTOURS_MINEURES
10
218.053
20
13.056
0
VERTEX
8
CONTOURS_MINEURES
10
219.996
20
13.171
0
VERTEX
8
CONTOURS_MINEURES
10
221.688
20
13.305
0
VERTEX
8
CONTOURS_MINEURES
10
224.995
20
13.469
0
VERTEX
8
CONTOURS_MINEURES
10
228.435
20
13.431
0
VERTEX
8
CONTOURS_MINEURES
10
230.005
20
13.405
0
VERTEX
8
CONTOURS_MINEURES
10
231.639
20
13.365
0
VERTEX
8
CONTOURS_MINEURES
10
235.005
20
13.346
0
VERTEX
8
CONTOURS_MINEURES
10
238.552
20
13.546
0
VERTEX
8
CONTOURS_MINEURES
10
240.004
20
13.550
0
VERTEX
8
CONTOURS_MINEURES
10
241.359
20
13.643
0
VERTEX
8
CONTOURS_MINEURES
10
245.004
20
13.859
0
VERTEX
8
CONTOURS_MINEURES
10
245.962
20
14.040
0
VERTEX
8
CONTOURS_MINEURES
10
249.587
20
14.997
0
VERTEX
8
CONTOURS_MINEURES
10
249.917
20
15.084
0
VERTEX
8
CONTOURS_MINEURES
10
250.004
20
15.113
0
VERTEX
8
CONTOURS_MINEURES
10
253.798
20
16.204
0
VERTEX
8
CONTOURS_MINEURES
10
255.003
20
16.603
0
VERTEX
8
CONTOURS_MINEURES
10
259.953
20
20.004
0
VERTEX
8
CONTOURS_MINEURES
10
259.981
20
20.026
0
VERTEX
8
CONTOURS_MINEURES
10
260.003
20
20.043
0
VERTEX
8
CONTOURS_MINEURES
10
263.900
20
25.001
0
VERTEX
8
CONTOURS_MINEURES
10
264.153
20
25.849
0
VERTEX
8
CONTOURS_MINEURES
10
265.002
20
27.005
0
VERTEX
8
CONTOURS_MINEURES
10
266.921
20
29.997
0
VERTEX
8
CONTOURS_MINEURES
10
269.912
20
34.914
0
VERTEX
8
CONTOURS_MINEURES
10
269.952
20
35.005
0
VERTEX
8
CONTOURS_MINEURES
10
270.002
20
35.049
0
SEQEND
0
POLYLINE
8
CONTOURS_MINEURES
66
1
70
0
0
VERTEX
8
CONTOURS_MINEURES
10
129.749
20
-0.003
0
VERTEX
8
CONTOURS_MINEURES
10
130.004
20
0.241
0
VERTEX
8
CONTOURS_MINEURES
10
134.306
20
0.695
0
VERTEX
8
CONTOURS_MINEURES
10
135.003
20
0.771
0
VERTEX
8
CONTOURS_MINEURES
10
135.872
20
0.867
0
VERTEX
8
CONTOURS_MINEURES
10
140.003
20
1.035
0
VERTEX
8
CONTOURS_MINEURES
10
143.982
20
1.019
0
VERTEX
8
CONTOURS_MINEURES
10
145.002
20
1.053
0
VERTEX
8
CONTOURS_MINEURES
10
146.057
20
1.053
0
VERTEX
8
CONTOURS_MINEURES
10
150.002
20
1.002
0
VERTEX
8
CONTOURS_MINEURES
10
151.426
20
1.423
0
VERTEX
8
CONTOURS_MINEURES
10
155.002
20
2.256
0
VERTEX
8
CONTOURS_MINEURES
10
156.609
20
3.394
0
VERTEX
8
CONTOURS_MINEURES
10
158.735
20
5.004
0
VERTEX
8
CONTOURS_MINEURES
10
160.001
20
5.851
0
VERTEX
8
CONTOURS_MINEURES
10
162.600
20
7.403
0
VERTEX
8
CONTOURS_MINEURES
10
165.001
20
8.166
0
VERTEX
8
CONTOURS_MINEURES
10
169.646
20
10.001
0
VERTEX
8
CONTOURS_MINEURES
10
169.904
20
10.097
0
VERTEX
8
CONTOURS_MINEURES
10
170.000
20
10.138
0
VERTEX
8
CONTOURS_MINEURES
10
173.349
20
11.650
0
VERTEX
8
CONTOURS_MINEURES
10
175.000
20
12.517
0
VERTEX
8
CONTOURS_MINEURES
10
179.211
20
14.210
0
VERTEX
8
CONTOURS_MINEURES
10
179.999
20
14.519
0
VERTEX
8
CONTOURS_MINEURES
10
180.266
20
14.730
0
VERTEX
8
CONTOURS_MINEURES
10
180.593
20
14.997
0
VERTEX
8
CONTOURS_MINEURES
10
183.021
20
16.977
0
VERTEX
8
CONTOURS_MINEURES
10
184.999
20
18.550
0
VERTEX
8
CONTOURS_MINEURES
10
186.178
20
18.824
0
VERTEX
8
CONTOURS_MINEURES
10
189.998
20
19.228
0
VERTEX
8
CONTOURS_MINEURES
10
193.877
20
18.882
0
VERTEX
8
CONTOURS_MINEURES
10
194.998
20
18.817
0
VERTEX
8
CONTOURS_MINEURES
10
196.329
20
18.672
0
VERTEX
8
CONTOURS_MINEURES
10
199.997
20
18.324
0
VERTEX
8
CONTOURS_MINEURES
10
201.986
20
18.013
0
VERTEX
8
CONTOURS_MINEURES
10
204.997
20
17.636
0
VERTEX
8
CONTOURS_MINEURES
10
207.311
20
17.315
0
VERTEX
8
CONTOURS_MINEURES
10
209.996
20
16.973
0
VERTEX
8
CONTOURS_MINEURES
10
211.727
20
16.730
0
VERTEX
8
CONTOURS_MINEURES
10
214.996
20
16.343
0
VERTEX
8
CONTOURS_MINEURES
10
218.788
20
16.206
0
VERTEX
8
CONTOURS_MINEURES
10
219.996
20
16.061
0
VERTEX
8
CONTOURS_MINEURES
10
223.731
20
16.263
0
VERTEX
8
CONTOURS_MINEURES
10
224.995
20
16.245
0
VERTEX
8
CONTOURS_MINEURES
10
228.799
20
16.203
0
VERTEX
8
CONTOURS_MINEURES
10
230.005
20
16.220
0
VERTEX
8
CONTOURS_MINEURES
10
231.266
20
16.260
0
VERTEX
8
CONTOURS_MINEURES
10
235.005
20
16.238
0
VERTEX
8
CONTOURS_MINEURES
10
238.554
20
16.450
0
VERTEX
8
CONTOURS_MINEURES
10
240.004
20
16.579
0
VERTEX
8
CONTOURS_MINEURES
10
241.727
20
16.722
0
VERTEX
8
CONTOURS_MINEURES
10
245.004
20
16.928
0
VERTEX
8
CONTOURS_MINEURES
10
247.436
20
17.569
0
VERTEX
8
CONTOURS_MINEURES
10
250.004
20
18.418
0
VERTEX
8
CONTOURS_MINEURES
10
251.234
20
18.772
0
VERTEX
8
CONTOURS_MINEURES
10
254.952
20
20.004
0
VERTEX
8
CONTOURS_MINEURES
10
255.003
20
20.023
0
VERTEX
8
CONTOURS_MINEURES
10
257.849
20
22.156
0
VERTEX
8
CONTOURS_MINEURES
10
260.003
20
23.886
0
VERTEX
8
CONTOURS_MINEURES
10
260.879
20
25.001
0
VERTEX
8
CONTOURS_MINEURES
10
261.828
20
28.173
0
VERTEX
8
CONTOURS_MINEURES
10
263.168
20
29.997
0
VERTEX
8
CONTOURS_MINEURES
10
263.460
20
31.542
0
VERTEX
8
CONTOURS_MINEURES
10
264.978
20
35.005
0
VERTEX
8
CONTOURS_MINEURES
10
264.989
20
35.018
0
VERTEX
8
CONTOURS_MINEURES
10
265.002
20
35.030
0
VERTEX
8
CONTOURS_MINEURES
10
265.202
20
35.205
0
VERTEX
8
CONTOURS_MINEURES
10
270.002
20
39.471
0
SEQEND
0
POLYLINE
8
CONTOURS_MINEURES
66
1
70
0
0
VERTEX
8
CONTOURS_MINEURES
10
125.828
20
-0.003
0
VERTEX
8
CONTOURS_MINEURES
10
130.004
20
4.006
0
VERTEX
8
CONTOURS_MINEURES
10
130.905
20
4.101
0
VERTEX
8
CONTOURS_MINEURES
10
135.003
20
4.551
0
VERTEX
8
CONTOURS_MINEURES
10
139.141
20
5.004
0
VERTEX
8
CONTOURS_MINEURES
10
139.920
20
5.087
0
VERTEX
8
CONTOURS_MINEURES
10
140.003
20
5.098
0
VERTEX
8
CONTOURS_MINEURES
10
140.109
20
5.110
0
VERTEX
8
CONTOURS_MINEURES
10
145.002
20
5.271
0
VERTEX
8
CONTOURS_MINEURES
10
149.735
20
5.271
0
VERTEX
8
CONTOURS_MINEURES
10
150.002
20
5.283
0
VERTEX
8
CONTOURS_MINEURES
10
153.644
20
6.361
0
VERTEX
8
CONTOURS_MINEURES
10
155.002
20
6.919
0
VERTEX
8
CONTOURS_MINEURES
10
159.854
20
10.001
0
VERTEX
8
CONTOURS_MINEURES
10
159.948
20
10.054
0
VERTEX
8
CONTOURS_MINEURES
10
160.001
20
10.070
0
VERTEX
8
CONTOURS_MINEURES
10
160.096
20
10.095
0
VERTEX
8
CONTOURS_MINEURES
10
165.001
20
11.572
0
VERTEX
8
CONTOURS_MINEURES
10
167.494
20
12.505
0
VERTEX
8
CONTOURS_MINEURES
10
170.000
20
13.584
0
VERTEX
8
CONTOURS_MINEURES
10
170.974
20
14.024
0
VERTEX
8
CONTOURS_MINEURES
10
172.827
20
14.997
0
VERTEX
8
CONTOURS_MINEURES
10
175.000
20
16.136
0
VERTEX
8
CONTOURS_MINEURES
10
176.993
20
16.994
0
VERTEX
8
CONTOURS_MINEURES
10
179.999
20
18.236
0
VERTEX
8
CONTOURS_MINEURES
10
180.973
20
19.030
0
VERTEX
8
CONTOURS_MINEURES
10
182.198
20
20.004
0
VERTEX
8
CONTOURS_MINEURES
10
184.999
20
22.156
0
VERTEX
8
CONTOURS_MINEURES
10
187.554
20
22.447
0
VERTEX
8
CONTOURS_MINEURES
10
189.998
20
22.470
0
VERTEX
8
CONTOURS_MINEURES
10
192.772
20
22.229
0
VERTEX
8
CONTOURS_MINEURES
10
194.998
20
22.022
0
VERTEX
8
CONTOURS_MINEURES
10
196.845
20
21.851
0
VERTEX
8
CONTOURS_MINEURES
10
199.997
20
21.558
0
VERTEX
8
CONTOURS_MINEURES
10
203.906
20
21.095
0
VERTEX
8
CONTOURS_MINEURES
10
204.997
20
20.991
0
VERTEX
8
CONTOURS_MINEURES
10
209.635
20
20.365
0
VERTEX
8
CONTOURS_MINEURES
10
209.996
20
20.321
0
VERTEX
8
CONTOURS_MINEURES
10
212.258
20
20.004
0
VERTEX
8
CONTOURS_MINEURES
10
214.659
20
19.667
0
VERTEX
8
CONTOURS_MINEURES
10
214.996
20
19.627
0
VERTEX
8
CONTOURS_MINEURES
10
215.387
20
19.613
0
VERTEX
8
CONTOURS_MINEURES
10
219.996
20
19.060
0
VERTEX
8
CONTOURS_MINEURES
10
220.890
20
19.108
0
VERTEX
8
CONTOURS_MINEURES
10
224.995
20
19.051
0
VERTEX
8
CONTOURS_MINEURES
10
225.960
20
19.040
0
VERTEX
8
CONTOURS_MINEURES
10
230.005
20
19.098
0
VERTEX
8
CONTOURS_MINEURES
10
234.233
20
19.232
0
VERTEX
8
CONTOURS_MINEURES
10
235.005
20
19.227
0
VERTEX
8
CONTOURS_MINEURES
10
235.737
20
19.271
0
VERTEX
8
CONTOURS_MINEURES
10
240.004
20
19.651
0
VERTEX
8
CONTOURS_MINEURES
10
244.263
20
20.004
0
VERTEX
8
CONTOURS_MINEURES
10
244.934
20
20.074
0
VERTEX
8
CONTOURS_MINEURES
10
245.004
20
20.089
0
VERTEX
8
CONTOURS_MINEURES
10
245.134
20
20.134
0
VERTEX
8
CONTOURS_MINEURES
10
250.004
20
22.050
0
VERTEX
8
CONTOURS_MINEURES
10
253.044
20
23.043
0
VERTEX
8
CONTOURS_MINEURES
10
255.003
20
23.752
0
VERTEX
8
CONTOURS_MINEURES
10
255.717
20
24.287
0
VERTEX
8
CONTOURS_MINEURES
10
256.606
20
25.001
0
VERTEX
8
CONTOURS_MINEURES
10
258.048
20
28.044
0
VERTEX
8
CONTOURS_MINEURES
10
259.003
20
29.997
0
VERTEX
8
CONTOURS_MINEURES
10
259.179
20
30.822
0
VERTEX
8
CONTOURS_MINEURES
10
260.003
20
34.579
0
VERTEX
8
CONTOURS_MINEURES
10
260.070
20
34.937
0
VERTEX
8
CONTOURS_MINEURES
10
260.100
20
35.005
0
VERTEX
8
CONTOURS_MINEURES
10
262.322
20
37.683
0
VERTEX
8
CONTOURS_MINEURES
10
264.945
20
40.001
0
VERTEX
8
CONTOURS_MINEURES
10
264.978
20
40.025
0
VERTEX
8
CONTOURS_MINEURES
10
265.002
20
40.043
0
VERTEX
8
CONTOURS_MINEURES
10
267.871
20
42.130
0
VERTEX
8
CONTOURS_MINEURES
10
270.002
20
43.665
0
SEQEND
0
POLYLINE
8
CONTOURS_MINEURES
66
1
70
0
0
VERTEX
8
CONTOURS_MINEURES
10
120.803
20
-0.003
0
VERTEX
8
CONTOURS_MINEURES
10
123.034
20
1.970
0
VERTEX
8
CONTOURS_MINEURES
10
125.004
20
3.746
0
VERTEX
8
CONTOURS_MINEURES
10
126.329
20
5.004
0
VERTEX
8
CONTOURS_MINEURES
10
128.207
20
6.800
0
VERTEX
8
CONTOURS_MINEURES
10
130.004
20
7.519
0
VERTEX
8
CONTOURS_MINEURES
10
133.016
20
8.014
0
VERTEX
8
CONTOURS_MINEURES
10
135.003
20
8.225
0
VERTEX
8
CONTOURS_MINEURES
10
136.609
20
8.396
0
VERTEX
8
CONTOURS_MINEURES
10
140.003
20
8.855
0
VERTEX
8
CONTOURS_MINEURES
10
144.364
20
9.363
0
VERTEX
8
CONTOURS_MINEURES
10
145.002
20
9.384
0
VERTEX
8
CONTOURS_MINEURES
10
145.620
20
9.384
0
VERTEX
8
CONTOURS_MINEURES
10
150.002
20
9.572
0
VERTEX
8
CONTOURS_MINEURES
10
150.333
20
9.670
0
VERTEX
8
CONTOURS_MINEURES
10
151.138
20
10.001
0
VERTEX
8
CONTOURS_MINEURES
10
153.952
20
11.049
0
VERTEX
8
CONTOURS_MINEURES
10
155.002
20
11.428
0
VERTEX
8
CONTOURS_MINEURES
10
157.274
20
12.726
0
VERTEX
8
CONTOURS_MINEURES
10
160.001
20
13.564
0
VERTEX
8
CONTOURS_MINEURES
10
164.835
20
14.831
0
VERTEX
8
CONTOURS_MINEURES
10
165.001
20
14.881
0
VERTEX
8
CONTOURS_MINEURES
10
165.085
20
14.913
0
VERTEX
8
CONTOURS_MINEURES
10
165.281
20
14.997
0
VERTEX
8
CONTOURS_MINEURES
10
170.000
20
17.063
0
VERTEX
8
CONTOURS_MINEURES
10
174.469
20
19.473
0
VERTEX
8
CONTOURS_MINEURES
10
175.000
20
19.751
0
VERTEX
8
CONTOURS_MINEURES
10
175.588
20
20.004
0
VERTEX
8
CONTOURS_MINEURES
10
178.625
20
21.378
0
VERTEX
8
CONTOURS_MINEURES
10
179.999
20
22.014
0
VERTEX
8
CONTOURS_MINEURES
10
183.978
20
25.001
0
VERTEX
8
CONTOURS_MINEURES
10
184.538
20
25.461
0
VERTEX
8
CONTOURS_MINEURES
10
184.999
20
25.695
0
VERTEX
8
CONTOURS_MINEURES
10
185.661
20
25.663
0
VERTEX
8
CONTOURS_MINEURES
10
189.998
20
25.705
0
VERTEX
8
CONTOURS_MINEURES
10
194.744
20
25.254
0
VERTEX
8
CONTOURS_MINEURES
10
194.998
20
25.232
0
VERTEX
8
CONTOURS_MINEURES
10
197.411
20
25.001
0
VERTEX
8
CONTOURS_MINEURES
10
199.777
20
24.781
0
VERTEX
8
CONTOURS_MINEURES
10
199.997
20
24.761
0
VERTEX
8
CONTOURS_MINEURES
10
200.270
20
24.728
0
VERTEX
8
CONTOURS_MINEURES
10
204.997
20
24.278
0
VERTEX
8
CONTOURS_MINEURES
10
205.833
20
24.165
0
VERTEX
8
CONTOURS_MINEURES
10
209.996
20
23.652
0
VERTEX
8
CONTOURS_MINEURES
10
211.566
20
23.432
0
VERTEX
8
CONTOURS_MINEURES
10
214.996
20
22.952
0
VERTEX
8
CONTOURS_MINEURES
10
217.622
20
22.629
0
VERTEX
8
CONTOURS_MINEURES
10
219.996
20
22.309
0
VERTEX
8
CONTOURS_MINEURES
10
222.227
20
22.234
0
VERTEX
8
CONTOURS_MINEURES
10
224.995
20
22.188
0
VERTEX
8
CONTOURS_MINEURES
10
227.770
20
22.234
0
VERTEX
8
CONTOURS_MINEURES
10
230.005
20
22.349
0
VERTEX
8
CONTOURS_MINEURES
10
232.563
20
22.445
0
VERTEX
8
CONTOURS_MINEURES
10
235.005
20
22.617
0
VERTEX
8
CONTOURS_MINEURES
10
237.168
20
22.839
0
VERTEX
8
CONTOURS_MINEURES
10
240.004
20
23.406
0
VERTEX
8
CONTOURS_MINEURES
10
241.450
20
23.556
0
VERTEX
8
CONTOURS_MINEURES
10
245.004
20
24.305
0
VERTEX
8
CONTOURS_MINEURES
10
246.992
20
25.001
0
VERTEX
8
CONTOURS_MINEURES
10
250.004
20
26.330
0
VERTEX
8
CONTOURS_MINEURES
10
252.549
20
27.453
0
VERTEX
8
CONTOURS_MINEURES
10
254.160
20
29.997
0
VERTEX
8
CONTOURS_MINEURES
10
254.465
20
30.537
0
VERTEX
8
CONTOURS_MINEURES
10
255.003
20
33.045
0
VERTEX
8
CONTOURS_MINEURES
10
255.348
20
34.659
0
VERTEX
8
CONTOURS_MINEURES
10
255.424
20
35.005
0
VERTEX
8
CONTOURS_MINEURES
10
257.227
20
37.779
0
VERTEX
8
CONTOURS_MINEURES
10
259.292
20
40.001
0
VERTEX
8
CONTOURS_MINEURES
10
259.681
20
40.323
0
VERTEX
8
CONTOURS_MINEURES
10
260.003
20
40.556
0
VERTEX
8
CONTOURS_MINEURES
10
262.539
20
42.463
0
VERTEX
8
CONTOURS_MINEURES
10
265.002
20
44.224
0
VERTEX
8
CONTOURS_MINEURES
10
265.450
20
44.550
0
VERTEX
8
CONTOURS_MINEURES
10
266.071
20
44.998
0
VERTEX
8
CONTOURS_MINEURES
10
270.002
20
48.051
0
SEQEND
0
POLYLINE
8
CONTOURS_MINEURES
66
1
70
0
0
VERTEX
8
CONTOURS_MINEURES
10
114.003
20
-0.003
0
VERTEX
8
CONTOURS_MINEURES
10
114.608
20
0.393
0
VERTEX
8
CONTOURS_MINEURES
10
115.005
20
0.629
0
VERTEX
8
CONTOURS_MINEURES
10
116.796
20
1.790
0
VERTEX
8
CONTOURS_MINEURES
10
120.005
20
3.993
0
VERTEX
8
CONTOURS_MINEURES
10
120.541
20
4.467
0
VERTEX
8
CONTOURS_MINEURES
10
121.136
20
5.004
0
VERTEX
8
CONTOURS_MINEURES
10
125.004
20
8.518
0
VERTEX
8
CONTOURS_MINEURES
10
125.762
20
9.243
0
VERTEX
8
CONTOURS_MINEURES
10
127.654
20
10.001
0
VERTEX
8
CONTOURS_MINEURES
10
130.004
20
11.034
0
VERTEX
8
CONTOURS_MINEURES
10
131.184
20
11.180
0
VERTEX
8
CONTOURS_MINEURES
10
135.003
20
11.832
0
VERTEX
8
CONTOURS_MINEURES
10
137.811
20
12.191
0
VERTEX
8
CONTOURS_MINEURES
10
140.003
20
12.508
0
VERTEX
8
CONTOURS_MINEURES
10
142.243
20
12.758
0
VERTEX
8
CONTOURS_MINEURES
10
145.002
20
13.206
0
VERTEX
8
CONTOURS_MINEURES
10
148.763
20
13.759
0
VERTEX
8
CONTOURS_MINEURES
10
150.002
20
13.811
0
VERTEX
8
CONTOURS_MINEURES
10
150.866
20
14.133
0
VERTEX
8
CONTOURS_MINEURES
10
153.257
20
14.997
0
VERTEX
8
CONTOURS_MINEURES
10
155.002
20
15.528
0
VERTEX
8
CONTOURS_MINEURES
10
155.723
20
15.719
0
VERTEX
8
CONTOURS_MINEURES
10
160.001
20
16.993
0
VERTEX
8
CONTOURS_MINEURES
10
162.400
20
17.602
0
VERTEX
8
CONTOURS_MINEURES
10
165.001
20
18.318
0
VERTEX
8
CONTOURS_MINEURES
10
168.769
20
20.004
0
VERTEX
8
CONTOURS_MINEURES
10
169.551
20
20.454
0
VERTEX
8
CONTOURS_MINEURES
10
170.000
20
20.660
0
VERTEX
8
CONTOURS_MINEURES
10
172.663
20
22.339
0
VERTEX
8
CONTOURS_MINEURES
10
175.000
20
23.538
0
VERTEX
8
CONTOURS_MINEURES
10
176.007
20
23.994
0
VERTEX
8
CONTOURS_MINEURES
10
178.181
20
25.001
0
VERTEX
8
CONTOURS_MINEURES
10
179.369
20
25.631
0
VERTEX
8
CONTOURS_MINEURES
10
179.999
20
25.925
0
VERTEX
8
CONTOURS_MINEURES
10
182.234
20
27.764
0
VERTEX
8
CONTOURS_MINEURES
10
184.999
20
29.165
0
VERTEX
8
CONTOURS_MINEURES
10
188.972
20
28.971
0
VERTEX
8
CONTOURS_MINEURES
10
189.998
20
28.982
0
VERTEX
8
CONTOURS_MINEURES
10
191.121
20
28.875
0
VERTEX
8
CONTOURS_MINEURES
10
194.998
20
28.530
0
VERTEX
8
CONTOURS_MINEURES
10
196.622
20
28.374
0
VERTEX
8
CONTOURS_MINEURES
10
199.997
20
28.082
0
VERTEX
8
CONTOURS_MINEURES
10
202.826
20
27.828
0
VERTEX
8
CONTOURS_MINEURES
10
204.997
20
27.616
0
VERTEX
8
CONTOURS_MINEURES
10
207.717
20
27.279
0
VERTEX
8
CONTOURS_MINEURES
10
209.996
20
27.051
0
VERTEX
8
CONTOURS_MINEURES
10
211.879
20
26.882
0
VERTEX
8
CONTOURS_MINEURES
10
214.996
20
26.405
0
VERTEX
8
CONTOURS_MINEURES
10
216.352
20
26.355
0
VERTEX
8
CONTOURS_MINEURES
10
219.996
20
25.810
0
VERTEX
8
CONTOURS_MINEURES
10
224.362
20
25.633
0
VERTEX
8
CONTOURS_MINEURES
10
224.995
20
25.628
0
VERTEX
8
CONTOURS_MINEURES
10
225.649
20
25.653
0
VERTEX
8
CONTOURS_MINEURES
10
230.005
20
25.919
0
VERTEX
8
CONTOURS_MINEURES
10
231.023
20
26.018
0
VERTEX
8
CONTOURS_MINEURES
10
235.005
20
26.348
0
VERTEX
8
CONTOURS_MINEURES
10
237.129
20
27.123
0
VERTEX
8
CONTOURS_MINEURES
10
240.004
20
27.852
0
VERTEX
8
CONTOURS_MINEURES
10
241.730
20
28.273
0
VERTEX
8
CONTOURS_MINEURES
10
245.004
20
29.236
0
VERTEX
8
CONTOURS_MINEURES
10
246.634
20
29.997
0
VERTEX
8
CONTOURS_MINEURES
10
250.004
20
33.300
0
VERTEX
8
CONTOURS_MINEURES
10
250.619
20
34.388
0
VERTEX
8
CONTOURS_MINEURES
10
250.751
20
35.005
0
VERTEX
8
CONTOURS_MINEURES
10
252.137
20
37.137
0
VERTEX
8
CONTOURS_MINEURES
10
253.895
20
40.001
0
VERTEX
8
CONTOURS_MINEURES
10
255.003
20
40.973
0
VERTEX
8
CONTOURS_MINEURES
10
257.206
20
42.796
0
VERTEX
8
CONTOURS_MINEURES
10
260.003
20
44.827
0
VERTEX
8
CONTOURS_MINEURES
10
260.100
20
44.900
0
VERTEX
8
CONTOURS_MINEURES
10
260.236
20
44.998
0
VERTEX
8
CONTOURS_MINEURES
10
265.002
20
48.830
0
VERTEX
8
CONTOURS_MINEURES
10
266.536
20
50.005
0
VERTEX
8
CONTOURS_MINEURES
10
268.279
20
51.726
0
VERTEX
8
CONTOURS_MINEURES
10
270.002
20
53.269
0
SEQEND
0
POLYLINE
8
CONTOURS_MINEURES
66
1
70
0
0
VERTEX
8
CONTOURS_MINEURES
10
105.474
20
-0.003
0
VERTEX
8
CONTOURS_MINEURES
10
109.995
20
2.842
0
VERTEX
8
CONTOURS_MINEURES
10
111.301
20
3.699
0
VERTEX
8
CONTOURS_MINEURES
10
113.498
20
5.004
0
VERTEX
8
CONTOURS_MINEURES
10
115.005
20
5.969
0
VERTEX
8
CONTOURS_MINEURES
10
117.380
20
7.628
0
VERTEX
8
CONTOURS_MINEURES
10
120.005
20
9.701
0
VERTEX
8
CONTOURS_MINEURES
10
120.343
20
10.001
0
VERTEX
8
CONTOURS_MINEURES
10
122.735
20
12.269
0
VERTEX
8
CONTOURS_MINEURES
10
125.004
20
13.573
0
VERTEX
8
CONTOURS_MINEURES
10
129.635
20
14.628
0
VERTEX
8
CONTOURS_MINEURES
10
130.004
20
14.790
0
VERTEX
8
CONTOURS_MINEURES
10
131.670
20
14.997
0
VERTEX
8
CONTOURS_MINEURES
10
134.572
20
15.429
0
VERTEX
8
CONTOURS_MINEURES
10
135.003
20
15.458
0
VERTEX
8
CONTOURS_MINEURES
10
135.506
20
15.500
0
VERTEX
8
CONTOURS_MINEURES
10
140.003
20
16.196
0
VERTEX
8
CONTOURS_MINEURES
10
143.264
20
16.738
0
VERTEX
8
CONTOURS_MINEURES
10
145.002
20
16.916
0
VERTEX
8
CONTOURS_MINEURES
10
147.702
20
17.301
0
VERTEX
8
CONTOURS_MINEURES
10
150.002
20
17.668
0
VERTEX
8
CONTOURS_MINEURES
10
153.656
20
18.657
0
VERTEX
8
CONTOURS_MINEURES
10
155.002
20
19.067
0
VERTEX
8
CONTOURS_MINEURES
10
158.535
20
20.004
0
VERTEX
8
CONTOURS_MINEURES
10
160.001
20
20.480
0
VERTEX
8
CONTOURS_MINEURES
10
163.361
20
21.643
0
VERTEX
8
CONTOURS_MINEURES
10
165.001
20
22.259
0
VERTEX
8
CONTOURS_MINEURES
10
166.742
20
23.261
0
VERTEX
8
CONTOURS_MINEURES
10
170.000
20
24.755
0
VERTEX
8
CONTOURS_MINEURES
10
170.151
20
24.850
0
VERTEX
8
CONTOURS_MINEURES
10
170.445
20
25.001
0
VERTEX
8
CONTOURS_MINEURES
10
175.000
20
27.696
0
VERTEX
8
CONTOURS_MINEURES
10
176.504
20
28.494
0
VERTEX
8
CONTOURS_MINEURES
10
179.729
20
29.997
0
VERTEX
8
CONTOURS_MINEURES
10
179.999
20
30.150
0
VERTEX
8
CONTOURS_MINEURES
10
182.783
20
32.216
0
VERTEX
8
CONTOURS_MINEURES
10
184.999
20
33.006
0
VERTEX
8
CONTOURS_MINEURES
10
187.112
20
32.889
0
VERTEX
8
CONTOURS_MINEURES
10
189.998
20
32.829
0
VERTEX
8
CONTOURS_MINEURES
10
192.612
20
32.615
0
VERTEX
8
CONTOURS_MINEURES
10
194.998
20
32.343
0
VERTEX
8
CONTOURS_MINEURES
10
197.983
20
32.014
0
VERTEX
8
CONTOURS_MINEURES
10
199.997
20
31.816
0
VERTEX
8
CONTOURS_MINEURES
10
203.596
20
31.400
0
VERTEX
8
CONTOURS_MINEURES
10
204.997
20
31.228
0
VERTEX
8
CONTOURS_MINEURES
10
206.055
20
31.057
0
VERTEX
8
CONTOURS_MINEURES
10
209.996
20
30.590
0
VERTEX
8
CONTOURS_MINEURES
10
210.542
20
30.543
0
VERTEX
8
CONTOURS_MINEURES
10
214.996
20
30.060
0
VERTEX
8
CONTOURS_MINEURES
10
216.496
20
29.997
0
VERTEX
8
CONTOURS_MINEURES
10
219.872
20
29.874
0
VERTEX
8
CONTOURS_MINEURES
10
219.996
20
29.856
0
VERTEX
8
CONTOURS_MINEURES
10
220.143
20
29.850
0
VERTEX
8
CONTOURS_MINEURES
10
224.995
20
29.809
0
VERTEX
8
CONTOURS_MINEURES
10
230.005
20
29.997
0
VERTEX
8
CONTOURS_MINEURES
10
234.554
20
30.449
0
VERTEX
8
CONTOURS_MINEURES
10
235.005
20
30.544
0
VERTEX
8
CONTOURS_MINEURES
10
238.186
20
31.818
0
VERTEX
8
CONTOURS_MINEURES
10
240.004
20
32.816
0
VERTEX
8
CONTOURS_MINEURES
10
244.750
20
34.750
0
VERTEX
8
CONTOURS_MINEURES
10
245.004
20
34.834
0
VERTEX
8
CONTOURS_MINEURES
10
245.176
20
35.005
0
VERTEX
8
CONTOURS_MINEURES
10
247.354
20
37.653
0
VERTEX
8
CONTOURS_MINEURES
10
248.766
20
40.001
0
VERTEX
8
CONTOURS_MINEURES
10
250.004
20
41.257
0
VERTEX
8
CONTOURS_MINEURES
10
254.348
20
44.998
0
VERTEX
8
CONTOURS_MINEURES
10
254.687
20
45.314
0
VERTEX
8
CONTOURS_MINEURES
10
255.003
20
45.574
0
VERTEX
8
CONTOURS_MINEURES
10
258.440
20
48.440
0
VERTEX
8
CONTOURS_MINEURES
10
260.003
20
49.757
0
VERTEX
8
CONTOURS_MINEURES
10
260.315
20
50.005
0
VERTEX
8
CONTOURS_MINEURES
10
265.002
20
54.547
0
VERTEX
8
CONTOURS_MINEURES
10
265.231
20
54.773
0
VERTEX
8
CONTOURS_MINEURES
10
265.486
20
55.001
0
VERTEX
8
CONTOURS_MINEURES
10
270.002
20
59.045
0
SEQEND
0
POLYLINE
8
CONTOURS_MINEURES
66
1
70
0
0
VERTEX
8
CONTOURS_MINEURES
10
96.779
20
-0.003
0
VERTEX
8
CONTOURS_MINEURES
10
98.742
20
1.253
0
VERTEX
8
CONTOURS_MINEURES
10
99.996
20
2.044
0
VERTEX
8
CONTOURS_MINEURES
10
104.688
20
5.004
0
VERTEX
8
CONTOURS_MINEURES
10
104.874
20
5.125
0
VERTEX
8
CONTOURS_MINEURES
10
104.995
20
5.203
0
VERTEX
8
CONTOURS_MINEURES
10
107.909
20
7.089
0
VERTEX
8
CONTOURS_MINEURES
10
109.995
20
8.420
0
VERTEX
8
CONTOURS_MINEURES
10
112.456
20
10.001
0
VERTEX
8
CONTOURS_MINEURES
10
113.996
20
11.007
0
VERTEX
8
CONTOURS_MINEURES
10
115.005
20
11.736
0
VERTEX
8
CONTOURS_MINEURES
10
118.816
20
14.997
0
VERTEX
8
CONTOURS_MINEURES
10
119.462
20
15.541
0
VERTEX
8
CONTOURS_MINEURES
10
120.005
20
15.884
0
VERTEX
8
CONTOURS_MINEURES
10
121.624
20
16.618
0
VERTEX
8
CONTOURS_MINEURES
10
125.004
20
18.358
0
VERTEX
8
CONTOURS_MINEURES
10
129.077
20
19.076
0
VERTEX
8
CONTOURS_MINEURES
10
130.004
20
19.260
0
VERTEX
8
CONTOURS_MINEURES
10
130.651
20
19.356
0
VERTEX
8
CONTOURS_MINEURES
10
135.003
20
19.648
0
VERTEX
8
CONTOURS_MINEURES
10
139.253
20
20.004
0
VERTEX
8
CONTOURS_MINEURES
10
140.003
20
20.066
0
VERTEX
8
CONTOURS_MINEURES
10
144.431
20
20.576
0
VERTEX
8
CONTOURS_MINEURES
10
145.002
20
20.614
0
VERTEX
8
CONTOURS_MINEURES
10
145.707
20
20.708
0
VERTEX
8
CONTOURS_MINEURES
10
150.002
20
21.410
0
VERTEX
8
CONTOURS_MINEURES
10
152.814
20
22.190
0
VERTEX
8
CONTOURS_MINEURES
10
155.002
20
22.978
0
VERTEX
8
CONTOURS_MINEURES
10
159.713
20
24.713
0
VERTEX
8
CONTOURS_MINEURES
10
160.001
20
24.806
0
VERTEX
8
CONTOURS_MINEURES
10
160.146
20
24.856
0
VERTEX
8
CONTOURS_MINEURES
10
160.530
20
25.001
0
VERTEX
8
CONTOURS_MINEURES
10
165.001
20
26.948
0
VERTEX
8
CONTOURS_MINEURES
10
169.176
20
29.174
0
VERTEX
8
CONTOURS_MINEURES
10
170.000
20
29.628
0
VERTEX
8
CONTOURS_MINEURES
10
170.682
20
29.997
0
VERTEX
8
CONTOURS_MINEURES
10
173.390
20
31.610
0
VERTEX
8
CONTOURS_MINEURES
10
175.000
20
32.583
0
VERTEX
8
CONTOURS_MINEURES
10
179.540
20
35.005
0
VERTEX
8
CONTOURS_MINEURES
10
179.827
20
35.176
0
VERTEX
8
CONTOURS_MINEURES
10
179.999
20
35.260
0
VERTEX
8
CONTOURS_MINEURES
10
180.368
20
35.373
0
VERTEX
8
CONTOURS_MINEURES
10
184.999
20
37.338
0
VERTEX
8
CONTOURS_MINEURES
10
187.114
20
37.119
0
VERTEX
8
CONTOURS_MINEURES
10
189.998
20
37.056
0
VERTEX
8
CONTOURS_MINEURES
10
193.228
20
36.774
0
VERTEX
8
CONTOURS_MINEURES
10
194.998
20
36.619
0
VERTEX
8
CONTOURS_MINEURES
10
196.502
20
36.508
0
VERTEX
8
CONTOURS_MINEURES
10
199.997
20
36.147
0
VERTEX
8
CONTOURS_MINEURES
10
204.430
20
35.571
0
VERTEX
8
CONTOURS_MINEURES
10
204.997
20
35.465
0
VERTEX
8
CONTOURS_MINEURES
10
205.398
20
35.406
0
VERTEX
8
CONTOURS_MINEURES
10
207.891
20
35.005
0
VERTEX
8
CONTOURS_MINEURES
10
209.705
20
34.712
0
VERTEX
8
CONTOURS_MINEURES
10
209.996
20
34.678
0
VERTEX
8
CONTOURS_MINEURES
10
214.301
20
34.308
0
VERTEX
8
CONTOURS_MINEURES
10
214.996
20
34.233
0
VERTEX
8
CONTOURS_MINEURES
10
215.800
20
34.199
0
VERTEX
8
CONTOURS_MINEURES
10
219.996
20
34.041
0
VERTEX
8
CONTOURS_MINEURES
10
223.950
20
33.958
0
VERTEX
8
CONTOURS_MINEURES
10
224.995
20
33.949
0
VERTEX
8
CONTOURS_MINEURES
10
229.102
20
34.102
0
VERTEX
8
CONTOURS_MINEURES
10
230.005
20
34.136
0
VERTEX
8
CONTOURS_MINEURES
10
230.795
20
34.214
0
VERTEX
8
CONTOURS_MINEURES
10
234.570
20
35.005
0
VERTEX
8
CONTOURS_MINEURES
10
235.005
20
35.100
0
VERTEX
8
CONTOURS_MINEURES
10
235.252
20
35.251
0
VERTEX
8
CONTOURS_MINEURES
10
240.004
20
37.976
0
VERTEX
8
CONTOURS_MINEURES
10
241.425
20
38.581
0
VERTEX
8
CONTOURS_MINEURES
10
243.012
20
40.001
0
VERTEX
8
CONTOURS_MINEURES
10
245.004
20
41.536
0
VERTEX
8
CONTOURS_MINEURES
10
248.406
20
44.998
0
VERTEX
8
CONTOURS_MINEURES
10
250.004
20
46.500
0
VERTEX
8
CONTOURS_MINEURES
10
251.814
20
48.192
0
VERTEX
8
CONTOURS_MINEURES
10
254.016
20
50.005
0
VERTEX
8
CONTOURS_MINEURES
10
254.513
20
50.495
0
VERTEX
8
CONTOURS_MINEURES
10
255.003
20
50.979
0
VERTEX
8
CONTOURS_MINEURES
10
259.105
20
55.001
0
VERTEX
8
CONTOURS_MINEURES
10
259.557
20
55.447
0
VERTEX
8
CONTOURS_MINEURES
10
260.003
20
55.887
0
VERTEX
8
CONTOURS_MINEURES
10
262.066
20
57.936
0
VERTEX
8
CONTOURS_MINEURES
10
264.223
20
59.998
0
VERTEX
8
CONTOURS_MINEURES
10
265.002
20
60.658
0
VERTEX
8
CONTOURS_MINEURES
10
267.433
20
62.571
0
VERTEX
8
CONTOURS_MINEURES
10
270.002
20
64.077
0
SEQEND
0
POLYLINE
8
CONTOURS_MINEURES
66
1
70
0
0
VERTEX
8
CONTOURS_MINEURES
10
88.859
20
-0.003
0
VERTEX
8
CONTOURS_MINEURES
10
89.471
20
0.523
0
VERTEX
8
CONTOURS_MINEURES
10
89.997
20
0.920
0
VERTEX
8
CONTOURS_MINEURES
10
93.052
20
3.057
0
VERTEX
8
CONTOURS_MINEURES
10
94.996
20
4.420
0
VERTEX
8
CONTOURS_MINEURES
10
95.352
20
4.648
0
VERTEX
8
CONTOURS_MINEURES
10
95.917
20
5.004
0
VERTEX
8
CONTOURS_MINEURES
10
99.996
20
7.659
0
VERTEX
8
CONTOURS_MINEURES
10
101.414
20
8.583
0
VERTEX
8
CONTOURS_MINEURES
10
103.624
20
10.001
0
VERTEX
8
CONTOURS_MINEURES
10
104.995
20
10.881
0
VERTEX
8
CONTOURS_MINEURES
10
107.536
20
12.540
0
VERTEX
8
CONTOURS_MINEURES
10
109.995
20
14.136
0
VERTEX
8
CONTOURS_MINEURES
10
110.517
20
14.477
0
VERTEX
8
CONTOURS_MINEURES
10
111.237
20
14.997
0
VERTEX
8
CONTOURS_MINEURES
10
113.433
20
16.568
0
VERTEX
8
CONTOURS_MINEURES
10
115.005
20
17.677
0
VERTEX
8
CONTOURS_MINEURES
10
116.267
20
18.741
0
VERTEX
8
CONTOURS_MINEURES
10
118.269
20
20.004
0
VERTEX
8
CONTOURS_MINEURES
10
120.005
20
21.164
0
VERTEX
8
CONTOURS_MINEURES
10
122.598
20
22.409
0
VERTEX
8
CONTOURS_MINEURES
10
125.004
20
22.882
0
VERTEX
8
CONTOURS_MINEURES
10
126.817
20
23.189
0
VERTEX
8
CONTOURS_MINEURES
10
130.004
20
23.555
0
VERTEX
8
CONTOURS_MINEURES
10
133.782
20
23.780
0
VERTEX
8
CONTOURS_MINEURES
10
135.003
20
23.862
0
VERTEX
8
CONTOURS_MINEURES
10
139.106
20
24.105
0
VERTEX
8
CONTOURS_MINEURES
10
140.003
20
24.178
0
VERTEX
8
CONTOURS_MINEURES
10
140.741
20
24.263
0
VERTEX
8
CONTOURS_MINEURES
10
145.002
20
24.548
0
VERTEX
8
CONTOURS_MINEURES
10
148.384
20
25.001
0
VERTEX
8
CONTOURS_MINEURES
10
149.772
20
25.231
0
VERTEX
8
CONTOURS_MINEURES
10
150.002
20
25.255
0
VERTEX
8
CONTOURS_MINEURES
10
150.369
20
25.367
0
VERTEX
8
CONTOURS_MINEURES
10
155.002
20
27.091
0
VERTEX
8
CONTOURS_MINEURES
10
157.107
20
27.893
0
VERTEX
8
CONTOURS_MINEURES
10
160.001
20
29.439
0
VERTEX
8
CONTOURS_MINEURES
10
161.144
20
29.997
0
VERTEX
8
CONTOURS_MINEURES
10
165.001
20
32.166
0
VERTEX
8
CONTOURS_MINEURES
10
166.822
20
33.181
0
VERTEX
8
CONTOURS_MINEURES
10
170.000
20
35.005
0
VERTEX
8
CONTOURS_MINEURES
10
172.989
20
37.014
0
VERTEX
8
CONTOURS_MINEURES
10
175.000
20
38.386
0
VERTEX
8
CONTOURS_MINEURES
10
176.011
20
38.990
0
VERTEX
8
CONTOURS_MINEURES
10
178.081
20
40.001
0
VERTEX
8
CONTOURS_MINEURES
10
179.999
20
40.786
0
VERTEX
8
CONTOURS_MINEURES
10
183.351
20
41.648
0
VERTEX
8
CONTOURS_MINEURES
10
184.999
20
42.122
0
VERTEX
8
CONTOURS_MINEURES
10
188.223
20
41.776
0
VERTEX
8
CONTOURS_MINEURES
10
189.998
20
41.445
0
VERTEX
8
CONTOURS_MINEURES
10
193.900
20
41.098
0
VERTEX
8
CONTOURS_MINEURES
10
194.998
20
40.883
0
VERTEX
8
CONTOURS_MINEURES
10
195.825
20
40.828
0
VERTEX
8
CONTOURS_MINEURES
10
199.997
20
40.550
0
VERTEX
8
CONTOURS_MINEURES
10
200.497
20
40.501
0
VERTEX
8
CONTOURS_MINEURES
10
203.108
20
40.001
0
VERTEX
8
CONTOURS_MINEURES
10
204.997
20
39.646
0
VERTEX
8
CONTOURS_MINEURES
10
209.048
20
39.053
0
VERTEX
8
CONTOURS_MINEURES
10
209.996
20
38.900
0
VERTEX
8
CONTOURS_MINEURES
10
211.206
20
38.793
0
VERTEX
8
CONTOURS_MINEURES
10
214.996
20
38.500
0
VERTEX
8
CONTOURS_MINEURES
10
218.336
20
38.342
0
VERTEX
8
CONTOURS_MINEURES
10
219.996
20
38.279
0
VERTEX
8
CONTOURS_MINEURES
10
221.756
20
38.242
0
VERTEX
8
CONTOURS_MINEURES
10
224.995
20
38.159
0
VERTEX
8
CONTOURS_MINEURES
10
226.774
20
38.227
0
VERTEX
8
CONTOURS_MINEURES
10
230.005
20
38.593
0
VERTEX
8
CONTOURS_MINEURES
10
234.852
20
39.848
0
VERTEX
8
CONTOURS_MINEURES
10
235.005
20
39.882
0
VERTEX
8
CONTOURS_MINEURES
10
235.200
20
40.001
0
VERTEX
8
CONTOURS_MINEURES
10
237.968
20
42.036
0
VERTEX
8
CONTOURS_MINEURES
10
240.004
20
43.359
0
VERTEX
8
CONTOURS_MINEURES
10
242.073
20
44.998
0
VERTEX
8
CONTOURS_MINEURES
10
245.004
20
47.516
0
VERTEX
8
CONTOURS_MINEURES
10
247.662
20
50.005
0
VERTEX
8
CONTOURS_MINEURES
10
250.004
20
52.330
0
VERTEX
8
CONTOURS_MINEURES
10
251.348
20
53.657
0
VERTEX
8
CONTOURS_MINEURES
10
252.710
20
55.001
0
VERTEX
8
CONTOURS_MINEURES
10
255.003
20
57.278
0
VERTEX
8
CONTOURS_MINEURES
10
256.372
20
58.629
0
VERTEX
8
CONTOURS_MINEURES
10
257.759
20
59.998
0
VERTEX
8
CONTOURS_MINEURES
10
260.003
20
62.175
0
VERTEX
8
CONTOURS_MINEURES
10
263.423
20
65.005
0
VERTEX
8
CONTOURS_MINEURES
10
264.263
20
65.744
0
VERTEX
8
CONTOURS_MINEURES
10
265.002
20
66.211
0
VERTEX
8
CONTOURS_MINEURES
10
268.090
20
68.091
0
VERTEX
8
CONTOURS_MINEURES
10
270.002
20
69.311
0
SEQEND
0
POLYLINE
8
CONTOURS_MINEURES
66
1
70
0
0
VERTEX
8
CONTOURS_MINEURES
10
82.044
20
-0.003
0
VERTEX
8
CONTOURS_MINEURES
10
84.997
20
2.604
0
VERTEX
8
CONTOURS_MINEURES
10
86.287
20
3.712
0
VERTEX
8
CONTOURS_MINEURES
10
87.997
20
5.004
0
VERTEX
8
CONTOURS_MINEURES
10
89.997
20
6.511
0
VERTEX
8
CONTOURS_MINEURES
10
92.053
20
7.946
0
VERTEX
8
CONTOURS_MINEURES
10
94.996
20
10.001
0
VERTEX
8
CONTOURS_MINEURES
10
97.969
20
12.027
0
VERTEX
8
CONTOURS_MINEURES
10
99.996
20
13.350
0
VERTEX
8
CONTOURS_MINEURES
10
102.562
20
14.997
0
VERTEX
8
CONTOURS_MINEURES
10
103.999
20
15.995
0
VERTEX
8
CONTOURS_MINEURES
10
104.995
20
16.617
0
VERTEX
8
CONTOURS_MINEURES
10
109.952
20
20.004
0
VERTEX
8
CONTOURS_MINEURES
10
109.975
20
20.024
0
VERTEX
8
CONTOURS_MINEURES
10
109.995
20
20.038
0
VERTEX
8
CONTOURS_MINEURES
10
110.120
20
20.129
0
VERTEX
8
CONTOURS_MINEURES
10
115.005
20
23.783
0
VERTEX
8
CONTOURS_MINEURES
10
116.955
20
25.001
0
VERTEX
8
CONTOURS_MINEURES
10
118.631
20
26.374
0
VERTEX
8
CONTOURS_MINEURES
10
120.005
20
27.006
0
VERTEX
8
CONTOURS_MINEURES
10
122.333
20
27.327
0
VERTEX
8
CONTOURS_MINEURES
10
125.004
20
27.999
0
VERTEX
8
CONTOURS_MINEURES
10
126.737
20
28.266
0
VERTEX
8
CONTOURS_MINEURES
10
130.004
20
28.490
0
VERTEX
8
CONTOURS_MINEURES
10
133.610
20
28.605
0
VERTEX
8
CONTOURS_MINEURES
10
135.003
20
28.704
0
VERTEX
8
CONTOURS_MINEURES
10
136.212
20
28.790
0
VERTEX
8
CONTOURS_MINEURES
10
140.003
20
28.920
0
VERTEX
8
CONTOURS_MINEURES
10
144.258
20
29.253
0
VERTEX
8
CONTOURS_MINEURES
10
145.002
20
29.315
0
VERTEX
8
CONTOURS_MINEURES
10
145.588
20
29.412
0
VERTEX
8
CONTOURS_MINEURES
10
150.002
20
29.882
0
VERTEX
8
CONTOURS_MINEURES
10
150.381
20
29.997
0
VERTEX
8
CONTOURS_MINEURES
10
155.002
20
32.118
0
VERTEX
8
CONTOURS_MINEURES
10
160.001
20
35.005
0
VERTEX
8
CONTOURS_MINEURES
10
162.686
20
37.318
0
VERTEX
8
CONTOURS_MINEURES
10
165.001
20
38.289
0
VERTEX
8
CONTOURS_MINEURES
10
167.917
20
40.001
0
VERTEX
8
CONTOURS_MINEURES
10
169.125
20
40.875
0
VERTEX
8
CONTOURS_MINEURES
10
170.000
20
41.216
0
VERTEX
8
CONTOURS_MINEURES
10
172.734
20
42.734
0
VERTEX
8
CONTOURS_MINEURES
10
175.000
20
44.174
0
VERTEX
8
CONTOURS_MINEURES
10
177.788
20
44.998
0
VERTEX
8
CONTOURS_MINEURES
10
179.454
20
45.543
0
VERTEX
8
CONTOURS_MINEURES
10
179.999
20
45.562
0
VERTEX
8
CONTOURS_MINEURES
10
180.803
20
45.803
0
VERTEX
8
CONTOURS_MINEURES
10
184.999
20
47.030
0
VERTEX
8
CONTOURS_MINEURES
10
186.665
20
46.667
0
VERTEX
8
CONTOURS_MINEURES
10
189.998
20
45.979
0
VERTEX
8
CONTOURS_MINEURES
10
193.998
20
44.998
0
VERTEX
8
CONTOURS_MINEURES
10
194.998
20
44.802
0
VERTEX
8
CONTOURS_MINEURES
10
199.501
20
44.502
0
VERTEX
8
CONTOURS_MINEURES
10
199.997
20
44.468
0
VERTEX
8
CONTOURS_MINEURES
10
204.068
20
44.070
0
VERTEX
8
CONTOURS_MINEURES
10
204.997
20
43.892
0
VERTEX
8
CONTOURS_MINEURES
10
206.297
20
43.698
0
VERTEX
8
CONTOURS_MINEURES
10
209.996
20
43.202
0
VERTEX
8
CONTOURS_MINEURES
10
212.956
20
42.959
0
VERTEX
8
CONTOURS_MINEURES
10
214.996
20
42.801
0
VERTEX
8
CONTOURS_MINEURES
10
217.715
20
42.719
0
VERTEX
8
CONTOURS_MINEURES
10
219.996
20
42.609
0
VERTEX
8
CONTOURS_MINEURES
10
222.870
20
42.873
0
VERTEX
8
CONTOURS_MINEURES
10
224.995
20
42.810
0
VERTEX
8
CONTOURS_MINEURES
10
226.946
20
43.052
0
VERTEX
8
CONTOURS_MINEURES
10
230.005
20
43.919
0
VERTEX
8
CONTOURS_MINEURES
10
230.821
20
44.183
0
VERTEX
8
CONTOURS_MINEURES
10
233.225
20
44.998
0
VERTEX
8
CONTOURS_MINEURES
10
235.005
20
45.627
0
VERTEX
8
CONTOURS_MINEURES
10
237.557
20
47.449
0
VERTEX
8
CONTOURS_MINEURES
10
240.004
20
49.325
0
VERTEX
8
CONTOURS_MINEURES
10
240.801
20
50.005
0
VERTEX
8
CONTOURS_MINEURES
10
245.004
20
53.869
0
VERTEX
8
CONTOURS_MINEURES
10
246.145
20
55.001
0
VERTEX
8
CONTOURS_MINEURES
10
247.943
20
57.061
0
VERTEX
8
CONTOURS_MINEURES
10
250.004
20
58.858
0
VERTEX
8
CONTOURS_MINEURES
10
251.152
20
59.998
0
VERTEX
8
CONTOURS_MINEURES
10
252.900
20
62.104
0
VERTEX
8
CONTOURS_MINEURES
10
255.003
20
63.908
0
VERTEX
8
CONTOURS_MINEURES
10
256.138
20
65.005
0
VERTEX
8
CONTOURS_MINEURES
10
260.003
20
68.612
0
VERTEX
8
CONTOURS_MINEURES
10
260.742
20
69.263
0
VERTEX
8
CONTOURS_MINEURES
10
261.912
20
70.002
0
VERTEX
8
CONTOURS_MINEURES
10
265.002
20
72.720
0
VERTEX
8
CONTOURS_MINEURES
10
266.236
20
73.765
0
VERTEX
8
CONTOURS_MINEURES
10
267.641
20
74.998
0
VERTEX
8
CONTOURS_MINEURES
10
270.002
20
77.104
0
SEQEND
0
POLYLINE
8
CONTOURS_MINEURES
66
1
70
0
0
VERTEX
8
CONTOURS_MINEURES
10
75.426
20
-0.003
0
VERTEX
8
CONTOURS_MINEURES
10
79.998
20
4.933
0
VERTEX
8
CONTOURS_MINEURES
10
80.080
20
5.004
0
VERTEX
8
CONTOURS_MINEURES
10
82.802
20
7.198
0
VERTEX
8
CONTOURS_MINEURES
10
84.997
20
8.720
0
VERTEX
8
CONTOURS_MINEURES
10
86.764
20
10.001
0
VERTEX
8
CONTOURS_MINEURES
10
88.479
20
11.518
0
VERTEX
8
CONTOURS_MINEURES
10
89.997
20
12.499
0
VERTEX
8
CONTOURS_MINEURES
10
93.673
20
14.997
0
VERTEX
8
CONTOURS_MINEURES
10
94.419
20
15.575
0
VERTEX
8
CONTOURS_MINEURES
10
94.996
20
15.936
0
VERTEX
8
CONTOURS_MINEURES
10
97.809
20
17.814
0
VERTEX
8
CONTOURS_MINEURES
10
99.996
20
19.359
0
VERTEX
8
CONTOURS_MINEURES
10
100.376
20
19.623
0
VERTEX
8
CONTOURS_MINEURES
10
100.986
20
20.004
0
VERTEX
8
CONTOURS_MINEURES
10
104.995
20
23.104
0
VERTEX
8
CONTOURS_MINEURES
10
106.023
20
23.974
0
VERTEX
8
CONTOURS_MINEURES
10
107.471
20
25.001
0
VERTEX
8
CONTOURS_MINEURES
10
108.791
20
26.205
0
VERTEX
8
CONTOURS_MINEURES
10
109.995
20
27.284
0
VERTEX
8
CONTOURS_MINEURES
10
113.090
20
29.997
0
VERTEX
8
CONTOURS_MINEURES
10
114.092
20
30.910
0
VERTEX
8
CONTOURS_MINEURES
10
115.005
20
31.560
0
VERTEX
8
CONTOURS_MINEURES
10
117.442
20
32.438
0
VERTEX
8
CONTOURS_MINEURES
10
120.005
20
33.636
0
VERTEX
8
CONTOURS_MINEURES
10
121.203
20
33.804
0
VERTEX
8
CONTOURS_MINEURES
10
125.004
20
34.308
0
VERTEX
8
CONTOURS_MINEURES
10
125.644
20
34.364
0
VERTEX
8
CONTOURS_MINEURES
10
130.004
20
34.677
0
VERTEX
8
CONTOURS_MINEURES
10
130.318
20
34.690
0
VERTEX
8
CONTOURS_MINEURES
10
135.003
20
34.750
0
VERTEX
8
CONTOURS_MINEURES
10
136.485
20
35.005
0
VERTEX
8
CONTOURS_MINEURES
10
140.003
20
36.177
0
VERTEX
8
CONTOURS_MINEURES
10
142.565
20
37.441
0
VERTEX
8
CONTOURS_MINEURES
10
145.002
20
37.982
0
VERTEX
8
CONTOURS_MINEURES
10
148.432
20
38.432
0
VERTEX
8
CONTOURS_MINEURES
10
150.002
20
38.665
0
VERTEX
8
CONTOURS_MINEURES
10
150.939
20
39.064
0
VERTEX
8
CONTOURS_MINEURES
10
152.649
20
40.001
0
VERTEX
8
CONTOURS_MINEURES
10
155.002
20
41.277
0
VERTEX
8
CONTOURS_MINEURES
10
157.175
20
42.825
0
VERTEX
8
CONTOURS_MINEURES
10
160.001
20
44.250
0
VERTEX
8
CONTOURS_MINEURES
10
161.570
20
44.998
0
VERTEX
8
CONTOURS_MINEURES
10
163.927
20
46.073
0
VERTEX
8
CONTOURS_MINEURES
10
165.001
20
46.562
0
VERTEX
8
CONTOURS_MINEURES
10
167.917
20
47.919
0
VERTEX
8
CONTOURS_MINEURES
10
170.000
20
48.926
0
VERTEX
8
CONTOURS_MINEURES
10
170.638
20
49.366
0
VERTEX
8
CONTOURS_MINEURES
10
173.378
20
50.005
0
VERTEX
8
CONTOURS_MINEURES
10
175.000
20
50.413
0
VERTEX
8
CONTOURS_MINEURES
10
179.382
20
50.621
0
VERTEX
8
CONTOURS_MINEURES
10
179.999
20
50.617
0
VERTEX
8
CONTOURS_MINEURES
10
180.759
20
50.764
0
VERTEX
8
CONTOURS_MINEURES
10
184.999
20
52.154
0
VERTEX
8
CONTOURS_MINEURES
10
186.912
20
51.917
0
VERTEX
8
CONTOURS_MINEURES
10
189.998
20
51.095
0
VERTEX
8
CONTOURS_MINEURES
10
193.394
20
50.005
0
VERTEX
8
CONTOURS_MINEURES
10
194.998
20
49.594
0
VERTEX
8
CONTOURS_MINEURES
10
199.023
20
49.029
0
VERTEX
8
CONTOURS_MINEURES
10
199.997
20
48.953
0
VERTEX
8
CONTOURS_MINEURES
10
201.183
20
48.818
0
VERTEX
8
CONTOURS_MINEURES
10
204.997
20
48.477
0
VERTEX
8
CONTOURS_MINEURES
10
207.887
20
47.892
0
VERTEX
8
CONTOURS_MINEURES
10
209.996
20
47.601
0
VERTEX
8
CONTOURS_MINEURES
10
212.618
20
47.380
0
VERTEX
8
CONTOURS_MINEURES
10
214.996
20
47.150
0
VERTEX
8
CONTOURS_MINEURES
10
217.937
20
47.059
0
VERTEX
8
CONTOURS_MINEURES
10
219.996
20
47.276
0
VERTEX
8
CONTOURS_MINEURES
10
222.461
20
47.535
0
VERTEX
8
CONTOURS_MINEURES
10
224.995
20
48.202
0
VERTEX
8
CONTOURS_MINEURES
10
229.711
20
49.710
0
VERTEX
8
CONTOURS_MINEURES
10
230.005
20
49.798
0
VERTEX
8
CONTOURS_MINEURES
10
230.579
20
50.005
0
VERTEX
8
CONTOURS_MINEURES
10
233.836
20
51.173
0
VERTEX
8
CONTOURS_MINEURES
10
235.005
20
51.601
0
VERTEX
8
CONTOURS_MINEURES
10
238.787
20
55.001
0
VERTEX
8
CONTOURS_MINEURES
10
239.421
20
55.585
0
VERTEX
8
CONTOURS_MINEURES
10
240.004
20
56.504
0
VERTEX
8
CONTOURS_MINEURES
10
243.529
20
59.998
0
VERTEX
8
CONTOURS_MINEURES
10
245.004
20
61.622
0
VERTEX
8
CONTOURS_MINEURES
10
246.560
20
63.447
0
VERTEX
8
CONTOURS_MINEURES
10
248.182
20
65.005
0
VERTEX
8
CONTOURS_MINEURES
10
250.004
20
67.013
0
VERTEX
8
CONTOURS_MINEURES
10
251.383
20
68.623
0
VERTEX
8
CONTOURS_MINEURES
10
252.886
20
70.002
0
VERTEX
8
CONTOURS_MINEURES
10
253.963
20
71.041
0
VERTEX
8
CONTOURS_MINEURES
10
255.003
20
71.836
0
VERTEX
8
CONTOURS_MINEURES
10
256.697
20
73.305
0
VERTEX
8
CONTOURS_MINEURES
10
258.685
20
74.998
0
VERTEX
8
CONTOURS_MINEURES
10
260.003
20
76.130
0
VERTEX
8
CONTOURS_MINEURES
10
262.048
20
77.950
0
VERTEX
8
CONTOURS_MINEURES
10
264.307
20
79.994
0
VERTEX
8
CONTOURS_MINEURES
10
265.002
20
80.601
0
VERTEX
8
CONTOURS_MINEURES
10
267.360
20
82.641
0
VERTEX
8
CONTOURS_MINEURES
10
269.959
20
85.002
0
VERTEX
8
CONTOURS_MINEURES
10
269.988
20
85.015
0
VERTEX
8
CONTOURS_MINEURES
10
270.002
20
85.022
0
SEQEND
0
POLYLINE
8
CONTOURS_MINEURES
66
1
70
0
0
VERTEX
8
CONTOURS_MINEURES
10
105.724
20
169.996
0
VERTEX
8
CONTOURS_MINEURES
10
105.470
20
169.522
0
VERTEX
8
CONTOURS_MINEURES
10
104.995
20
169.015
0
VERTEX
8
CONTOURS_MINEURES
10
102.175
20
167.178
0
VERTEX
8
CONTOURS_MINEURES
10
99.996
20
165.562
0
VERTEX
8
CONTOURS_MINEURES
10
99.577
20
165.418
0
VERTEX
8
CONTOURS_MINEURES
10
98.478
20
165.000
0
VERTEX
8
CONTOURS_MINEURES
10
94.996
20
163.743
0
VERTEX
8
CONTOURS_MINEURES
10
91.827
20
163.170
0
VERTEX
8
CONTOURS_MINEURES
10
89.997
20
162.722
0
VERTEX
8
CONTOURS_MINEURES
10
88.215
20
163.219
0
VERTEX
8
CONTOURS_MINEURES
10
84.997
20
164.144
0
VERTEX
8
CONTOURS_MINEURES
10
84.424
20
164.427
0
VERTEX
8
CONTOURS_MINEURES
10
83.608
20
165.000
0
VERTEX
8
CONTOURS_MINEURES
10
81.468
20
166.469
0
VERTEX
8
CONTOURS_MINEURES
10
79.998
20
167.824
0
VERTEX
8
CONTOURS_MINEURES
10
78.867
20
168.866
0
VERTEX
8
CONTOURS_MINEURES
10
78.320
20
169.996
0
SEQEND
0
POLYLINE
8
CONTOURS_MINEURES
66
1
70
0
0
VERTEX
8
CONTOURS_MINEURES
10
69.140
20
-0.003
0
VERTEX
8
CONTOURS_MINEURES
10
69.999
20
2.500
0
VERTEX
8
CONTOURS_MINEURES
10
71.070
20
3.931
0
VERTEX
8
CONTOURS_MINEURES
10
72.022
20
5.004
0
VERTEX
8
CONTOURS_MINEURES
10
74.998
20
7.822
0
VERTEX
8
CONTOURS_MINEURES
10
76.131
20
8.869
0
VERTEX
8
CONTOURS_MINEURES
10
77.734
20
10.001
0
VERTEX
8
CONTOURS_MINEURES
10
79.998
20
11.874
0
VERTEX
8
CONTOURS_MINEURES
10
83.701
20
14.997
0
VERTEX
8
CONTOURS_MINEURES
10
84.997
20
16.101
0
VERTEX
8
CONTOURS_MINEURES
10
88.997
20
19.003
0
VERTEX
8
CONTOURS_MINEURES
10
89.997
20
19.739
0
VERTEX
8
CONTOURS_MINEURES
10
90.146
20
19.855
0
VERTEX
8
CONTOURS_MINEURES
10
90.386
20
20.004
0
VERTEX
8
CONTOURS_MINEURES
10
94.996
20
23.460
0
VERTEX
8
CONTOURS_MINEURES
10
95.853
20
24.145
0
VERTEX
8
CONTOURS_MINEURES
10
97.052
20
25.001
0
VERTEX
8
CONTOURS_MINEURES
10
99.996
20
27.387
0
VERTEX
8
CONTOURS_MINEURES
10
103.182
20
29.997
0
VERTEX
8
CONTOURS_MINEURES
10
104.995
20
31.499
0
VERTEX
8
CONTOURS_MINEURES
10
106.794
20
33.203
0
VERTEX
8
CONTOURS_MINEURES
10
108.770
20
35.005
0
VERTEX
8
CONTOURS_MINEURES
10
109.995
20
36.091
0
VERTEX
8
CONTOURS_MINEURES
10
112.358
20
37.361
0
VERTEX
8
CONTOURS_MINEURES
10
115.005
20
39.016
0
VERTEX
8
CONTOURS_MINEURES
10
115.754
20
39.253
0
VERTEX
8
CONTOURS_MINEURES
10
119.247
20
40.001
0
VERTEX
8
CONTOURS_MINEURES
10
119.844
20
40.161
0
VERTEX
8
CONTOURS_MINEURES
10
120.005
20
40.195
0
VERTEX
8
CONTOURS_MINEURES
10
124.110
20
40.895
0
VERTEX
8
CONTOURS_MINEURES
10
125.004
20
40.877
0
VERTEX
8
CONTOURS_MINEURES
10
126.396
20
41.392
0
VERTEX
8
CONTOURS_MINEURES
10
130.004
20
41.277
0
VERTEX
8
CONTOURS_MINEURES
10
132.468
20
42.534
0
VERTEX
8
CONTOURS_MINEURES
10
134.170
20
44.998
0
VERTEX
8
CONTOURS_MINEURES
10
135.003
20
45.874
0
VERTEX
8
CONTOURS_MINEURES
10
137.950
20
47.054
0
VERTEX
8
CONTOURS_MINEURES
10
140.003
20
47.171
0
VERTEX
8
CONTOURS_MINEURES
10
142.611
20
47.392
0
VERTEX
8
CONTOURS_MINEURES
10
145.002
20
47.671
0
VERTEX
8
CONTOURS_MINEURES
10
148.483
20
48.484
0
VERTEX
8
CONTOURS_MINEURES
10
150.002
20
48.779
0
VERTEX
8
CONTOURS_MINEURES
10
152.402
20
50.005
0
VERTEX
8
CONTOURS_MINEURES
10
154.157
20
50.849
0
VERTEX
8
CONTOURS_MINEURES
10
155.002
20
51.155
0
VERTEX
8
CONTOURS_MINEURES
10
156.971
20
51.973
0
VERTEX
8
CONTOURS_MINEURES
10
160.001
20
53.217
0
VERTEX
8
CONTOURS_MINEURES
10
161.228
20
53.775
0
VERTEX
8
CONTOURS_MINEURES
10
164.082
20
55.001
0
VERTEX
8
CONTOURS_MINEURES
10
165.001
20
55.339
0
VERTEX
8
CONTOURS_MINEURES
10
168.626
20
56.375
0
VERTEX
8
CONTOURS_MINEURES
10
170.000
20
56.599
0
VERTEX
8
CONTOURS_MINEURES
10
173.030
20
56.970
0
VERTEX
8
CONTOURS_MINEURES
10
175.000
20
57.138
0
VERTEX
8
CONTOURS_MINEURES
10
177.181
20
57.181
0
VERTEX
8
CONTOURS_MINEURES
10
179.999
20
57.162
0
VERTEX
8
CONTOURS_MINEURES
10
182.359
20
57.640
0
VERTEX
8
CONTOURS_MINEURES
10
184.999
20
58.112
0
VERTEX
8
CONTOURS_MINEURES
10
187.225
20
57.773
0
VERTEX
8
CONTOURS_MINEURES
10
189.998
20
57.431
0
VERTEX
8
CONTOURS_MINEURES
10
191.738
20
56.740
0
VERTEX
8
CONTOURS_MINEURES
10
194.998
20
55.655
0
VERTEX
8
CONTOURS_MINEURES
10
196.850
20
55.001
0
VERTEX
8
CONTOURS_MINEURES
10
199.997
20
54.098
0
VERTEX
8
CONTOURS_MINEURES
10
203.435
20
53.440
0
VERTEX
8
CONTOURS_MINEURES
10
204.997
20
53.295
0
VERTEX
8
CONTOURS_MINEURES
10
207.157
20
52.842
0
VERTEX
8
CONTOURS_MINEURES
10
209.996
20
52.236
0
VERTEX
8
CONTOURS_MINEURES
10
212.116
20
52.123
0
VERTEX
8
CONTOURS_MINEURES
10
214.996
20
51.799
0
VERTEX
8
CONTOURS_MINEURES
10
217.889
20
52.110
0
VERTEX
8
CONTOURS_MINEURES
10
219.996
20
52.603
0
VERTEX
8
CONTOURS_MINEURES
10
221.896
20
53.102
0
VERTEX
8
CONTOURS_MINEURES
10
224.995
20
54.031
0
VERTEX
8
CONTOURS_MINEURES
10
225.727
20
54.272
0
VERTEX
8
CONTOURS_MINEURES
10
227.948
20
55.001
0
VERTEX
8
CONTOURS_MINEURES
10
230.005
20
55.685
0
VERTEX
8
CONTOURS_MINEURES
10
233.157
20
56.848
0
VERTEX
8
CONTOURS_MINEURES
10
235.005
20
57.575
0
VERTEX
8
CONTOURS_MINEURES
10
236.267
20
58.737
0
VERTEX
8
CONTOURS_MINEURES
10
237.067
20
59.998
0
VERTEX
8
CONTOURS_MINEURES
10
239.550
20
64.550
0
VERTEX
8
CONTOURS_MINEURES
10
239.838
20
65.005
0
VERTEX
8
CONTOURS_MINEURES
10
240.004
20
65.390
0
VERTEX
8
CONTOURS_MINEURES
10
242.176
20
67.831
0
VERTEX
8
CONTOURS_MINEURES
10
244.142
20
70.002
0
VERTEX
8
CONTOURS_MINEURES
10
244.552
20
70.454
0
VERTEX
8
CONTOURS_MINEURES
10
245.004
20
70.944
0
VERTEX
8
CONTOURS_MINEURES
10
249.022
20
74.998
0
VERTEX
8
CONTOURS_MINEURES
10
249.537
20
75.464
0
VERTEX
8
CONTOURS_MINEURES
10
250.004
20
75.781
0
VERTEX
8
CONTOURS_MINEURES
10
253.091
20
78.084
0
VERTEX
8
CONTOURS_MINEURES
10
255.003
20
79.502
0
VERTEX
8
CONTOURS_MINEURES
10
255.573
20
79.994
0
VERTEX
8
CONTOURS_MINEURES
10
257.925
20
82.076
0
VERTEX
8
CONTOURS_MINEURES
10
260.003
20
83.885
0
VERTEX
8
CONTOURS_MINEURES
10
261.286
20
85.002
0
VERTEX
8
CONTOURS_MINEURES
10
265.002
20
86.667
0
VERTEX
8
CONTOURS_MINEURES
10
267.278
20
87.724
0
VERTEX
8
CONTOURS_MINEURES
10
270.002
20
89.084
0
SEQEND
0
POLYLINE
8
CONTOURS_MINEURES
66
1
70
0
0
VERTEX
8
CONTOURS_MINEURES
10
112.818
20
169.996
0
VERTEX
8
CONTOURS_MINEURES
10
109.995
20
165.617
0
VERTEX
8
CONTOURS_MINEURES
10
109.779
20
165.215
0
VERTEX
8
CONTOURS_MINEURES
10
109.578
20
165.000
0
VERTEX
8
CONTOURS_MINEURES
10
104.995
20
160.988
0
VERTEX
8
CONTOURS_MINEURES
10
104.353
20
160.646
0
VERTEX
8
CONTOURS_MINEURES
10
102.886
20
160.003
0
VERTEX
8
CONTOURS_MINEURES
10
99.996
20
158.392
0
VERTEX
8
CONTOURS_MINEURES
10
97.589
20
157.407
0
VERTEX
8
CONTOURS_MINEURES
10
94.996
20
156.768
0
VERTEX
8
CONTOURS_MINEURES
10
91.554
20
156.556
0
VERTEX
8
CONTOURS_MINEURES
10
89.997
20
156.200
0
VERTEX
8
CONTOURS_MINEURES
10
88.373
20
156.622
0
VERTEX
8
CONTOURS_MINEURES
10
84.997
20
157.312
0
VERTEX
8
CONTOURS_MINEURES
10
83.089
20
158.092
0
VERTEX
8
CONTOURS_MINEURES
10
79.998
20
159.744
0
VERTEX
8
CONTOURS_MINEURES
10
79.467
20
160.003
0
VERTEX
8
CONTOURS_MINEURES
10
74.998
20
163.353
0
VERTEX
8
CONTOURS_MINEURES
10
73.998
20
164.000
0
VERTEX
8
CONTOURS_MINEURES
10
73.422
20
165.000
0
VERTEX
8
CONTOURS_MINEURES
10
72.098
20
167.898
0
VERTEX
8
CONTOURS_MINEURES
10
70.859
20
169.996
0
SEQEND
0
POLYLINE
8
CONTOURS_MINEURES
66
1
70
0
0
VERTEX
8
CONTOURS_MINEURES
10
65.773
20
-0.003
0
VERTEX
8
CONTOURS_MINEURES
10
66.178
20
1.178
0
VERTEX
8
CONTOURS_MINEURES
10
67.031
20
5.004
0
VERTEX
8
CONTOURS_MINEURES
10
68.952
20
8.955
0
VERTEX
8
CONTOURS_MINEURES
10
69.261
20
10.001
0
VERTEX
8
CONTOURS_MINEURES
10
69.999
20
11.238
0
VERTEX
8
CONTOURS_MINEURES
10
71.829
20
13.168
0
VERTEX
8
CONTOURS_MINEURES
10
74.455
20
14.997
0
VERTEX
8
CONTOURS_MINEURES
10
74.998
20
15.560
0
VERTEX
8
CONTOURS_MINEURES
10
76.983
20
18.017
0
VERTEX
8
CONTOURS_MINEURES
10
79.591
20
20.004
0
VERTEX
8
CONTOURS_MINEURES
10
79.998
20
20.393
0
VERTEX
8
CONTOURS_MINEURES
10
82.253
20
22.747
0
VERTEX
8
CONTOURS_MINEURES
10
84.997
20
24.318
0
VERTEX
8
CONTOURS_MINEURES
10
85.906
20
25.001
0
VERTEX
8
CONTOURS_MINEURES
10
87.644
20
27.352
0
VERTEX
8
CONTOURS_MINEURES
10
89.997
20
28.869
0
VERTEX
8
CONTOURS_MINEURES
10
90.567
20
29.427
0
VERTEX
8
CONTOURS_MINEURES
10
91.435
20
29.997
0
VERTEX
8
CONTOURS_MINEURES
10
92.917
20
32.080
0
VERTEX
8
CONTOURS_MINEURES
10
94.996
20
33.717
0
VERTEX
8
CONTOURS_MINEURES
10
95.559
20
34.441
0
VERTEX
8
CONTOURS_MINEURES
10
96.448
20
35.005
0
VERTEX
8
CONTOURS_MINEURES
10
99.996
20
38.731
0
VERTEX
8
CONTOURS_MINEURES
10
100.539
20
39.458
0
VERTEX
8
CONTOURS_MINEURES
10
101.526
20
40.001
0
VERTEX
8
CONTOURS_MINEURES
10
104.995
20
42.575
0
VERTEX
8
CONTOURS_MINEURES
10
106.122
20
43.872
0
VERTEX
8
CONTOURS_MINEURES
10
108.897
20
44.998
0
VERTEX
8
CONTOURS_MINEURES
10
109.995
20
45.540
0
VERTEX
8
CONTOURS_MINEURES
10
111.404
20
46.406
0
VERTEX
8
CONTOURS_MINEURES
10
115.005
20
48.405
0
VERTEX
8
CONTOURS_MINEURES
10
116.167
20
48.842
0
VERTEX
8
CONTOURS_MINEURES
10
120.005
20
50.005
0
VERTEX
8
CONTOURS_MINEURES
10
125.004
20
50.734
0
VERTEX
8
CONTOURS_MINEURES
10
126.606
20
53.401
0
VERTEX
8
CONTOURS_MINEURES
10
128.665
20
55.001
0
VERTEX
8
CONTOURS_MINEURES
10
130.004
20
56.001
0
VERTEX
8
CONTOURS_MINEURES
10
133.264
20
56.739
0
VERTEX
8
CONTOURS_MINEURES
10
135.003
20
56.928
0
VERTEX
8
CONTOURS_MINEURES
10
138.039
20
56.964
0
VERTEX
8
CONTOURS_MINEURES
10
140.003
20
57.037
0
VERTEX
8
CONTOURS_MINEURES
10
142.360
20
57.357
0
VERTEX
8
CONTOURS_MINEURES
10
145.002
20
57.848
0
VERTEX
8
CONTOURS_MINEURES
10
148.027
20
58.024
0
VERTEX
8
CONTOURS_MINEURES
10
150.002
20
58.460
0
VERTEX
8
CONTOURS_MINEURES
10
154.850
20
59.998
0
VERTEX
8
CONTOURS_MINEURES
10
154.947
20
60.053
0
VERTEX
8
CONTOURS_MINEURES
10
155.002
20
60.055
0
VERTEX
8
CONTOURS_MINEURES
10
155.075
20
60.071
0
VERTEX
8
CONTOURS_MINEURES
10
160.001
20
61.983
0
VERTEX
8
CONTOURS_MINEURES
10
162.344
20
62.659
0
VERTEX
8
CONTOURS_MINEURES
10
165.001
20
62.859
0
VERTEX
8
CONTOURS_MINEURES
10
168.194
20
63.196
0
VERTEX
8
CONTOURS_MINEURES
10
170.000
20
63.500
0
VERTEX
8
CONTOURS_MINEURES
10
173.649
20
63.653
0
VERTEX
8
CONTOURS_MINEURES
10
175.000
20
63.770
0
VERTEX
8
CONTOURS_MINEURES
10
176.209
20
63.794
0
VERTEX
8
CONTOURS_MINEURES
10
179.999
20
64.207
0
VERTEX
8
CONTOURS_MINEURES
10
184.999
20
65.005
0
VERTEX
8
CONTOURS_MINEURES
10
189.998
20
64.634
0
VERTEX
8
CONTOURS_MINEURES
10
190.648
20
64.355
0
VERTEX
8
CONTOURS_MINEURES
10
194.998
20
62.794
0
VERTEX
8
CONTOURS_MINEURES
10
197.091
20
62.095
0
VERTEX
8
CONTOURS_MINEURES
10
199.997
20
60.693
0
VERTEX
8
CONTOURS_MINEURES
10
201.741
20
59.998
0
VERTEX
8
CONTOURS_MINEURES
10
204.997
20
59.112
0
VERTEX
8
CONTOURS_MINEURES
10
208.382
20
58.384
0
VERTEX
8
CONTOURS_MINEURES
10
209.996
20
57.905
0
VERTEX
8
CONTOURS_MINEURES
10
212.259
20
57.737
0
VERTEX
8
CONTOURS_MINEURES
10
214.996
20
57.467
0
VERTEX
8
CONTOURS_MINEURES
10
218.020
20
58.023
0
VERTEX
8
CONTOURS_MINEURES
10
219.996
20
58.514
0
VERTEX
8
CONTOURS_MINEURES
10
221.130
20
58.864
0
VERTEX
8
CONTOURS_MINEURES
10
224.995
20
59.910
0
VERTEX
8
CONTOURS_MINEURES
10
225.254
20
59.998
0
VERTEX
8
CONTOURS_MINEURES
10
228.668
20
61.335
0
VERTEX
8
CONTOURS_MINEURES
10
230.005
20
61.752
0
VERTEX
8
CONTOURS_MINEURES
10
233.130
20
63.127
0
VERTEX
8
CONTOURS_MINEURES
10
235.005
20
63.925
0
VERTEX
8
CONTOURS_MINEURES
10
235.689
20
65.005
0
VERTEX
8
CONTOURS_MINEURES
10
236.209
20
66.209
0
VERTEX
8
CONTOURS_MINEURES
10
238.057
20
70.002
0
VERTEX
8
CONTOURS_MINEURES
10
240.004
20
74.950
0
VERTEX
8
CONTOURS_MINEURES
10
240.027
20
74.975
0
VERTEX
8
CONTOURS_MINEURES
10
240.048
20
74.998
0
VERTEX
8
CONTOURS_MINEURES
10
245.004
20
79.825
0
VERTEX
8
CONTOURS_MINEURES
10
245.093
20
79.906
0
VERTEX
8
CONTOURS_MINEURES
10
245.224
20
79.994
0
VERTEX
8
CONTOURS_MINEURES
10
248.087
20
81.914
0
VERTEX
8
CONTOURS_MINEURES
10
250.004
20
83.151
0
VERTEX
8
CONTOURS_MINEURES
10
252.343
20
85.002
0
VERTEX
8
CONTOURS_MINEURES
10
255.003
20
86.095
0
VERTEX
8
CONTOURS_MINEURES
10
257.741
20
87.262
0
VERTEX
8
CONTOURS_MINEURES
10
260.003
20
88.301
0
VERTEX
8
CONTOURS_MINEURES
10
263.669
20
89.998
0
VERTEX
8
CONTOURS_MINEURES
10
264.327
20
90.673
0
VERTEX
8
CONTOURS_MINEURES
10
265.002
20
91.320
0
VERTEX
8
CONTOURS_MINEURES
10
268.478
20
94.995
0
VERTEX
8
CONTOURS_MINEURES
10
270.002
20
97.910
0
SEQEND
0
POLYLINE
8
CONTOURS_MINEURES
66
1
70
0
0
VERTEX
8
CONTOURS_MINEURES
10
124.004
20
169.996
0
VERTEX
8
CONTOURS_MINEURES
10
120.362
20
165.357
0
VERTEX
8
CONTOURS_MINEURES
10
120.075
20
165.000
0
VERTEX
8
CONTOURS_MINEURES
10
120.050
20
164.955
0
VERTEX
8
CONTOURS_MINEURES
10
120.005
20
164.907
0
VERTEX
8
CONTOURS_MINEURES
10
116.050
20
160.003
0
VERTEX
8
CONTOURS_MINEURES
10
115.539
20
159.468
0
VERTEX
8
CONTOURS_MINEURES
10
115.005
20
159.030
0
VERTEX
8
CONTOURS_MINEURES
10
110.393
20
154.996
0
VERTEX
8
CONTOURS_MINEURES
10
109.995
20
154.671
0
VERTEX
8
CONTOURS_MINEURES
10
109.069
20
154.071
0
VERTEX
8
CONTOURS_MINEURES
10
104.995
20
151.249
0
VERTEX
8
CONTOURS_MINEURES
10
104.232
20
150.763
0
VERTEX
8
CONTOURS_MINEURES
10
101.662
20
149.999
0
VERTEX
8
CONTOURS_MINEURES
10
100.436
20
149.560
0
VERTEX
8
CONTOURS_MINEURES
10
99.996
20
149.455
0
VERTEX
8
CONTOURS_MINEURES
10
96.014
20
148.982
0
VERTEX
8
CONTOURS_MINEURES
10
94.996
20
149.073
0
VERTEX
8
CONTOURS_MINEURES
10
94.381
20
149.385
0
VERTEX
8
CONTOURS_MINEURES
10
91.163
20
149.999
0
VERTEX
8
CONTOURS_MINEURES
10
89.997
20
150.206
0
VERTEX
8
CONTOURS_MINEURES
10
85.843
20
150.845
0
VERTEX
8
CONTOURS_MINEURES
10
84.997
20
150.999
0
VERTEX
8
CONTOURS_MINEURES
10
83.426
20
151.570
0
VERTEX
8
CONTOURS_MINEURES
10
79.998
20
152.842
0
VERTEX
8
CONTOURS_MINEURES
10
78.180
20
153.179
0
VERTEX
8
CONTOURS_MINEURES
10
74.998
20
154.169
0
VERTEX
8
CONTOURS_MINEURES
10
74.181
20
154.179
0
VERTEX
8
CONTOURS_MINEURES
10
71.709
20
154.996
0
VERTEX
8
CONTOURS_MINEURES
10
70.421
20
155.419
0
VERTEX
8
CONTOURS_MINEURES
10
69.999
20
155.667
0
VERTEX
8
CONTOURS_MINEURES
10
67.716
20
157.717
0
VERTEX
8
CONTOURS_MINEURES
10
66.528
20
160.003
0
VERTEX
8
CONTOURS_MINEURES
10
65.961
20
164.039
0
VERTEX
8
CONTOURS_MINEURES
10
65.636
20
165.000
0
VERTEX
8
CONTOURS_MINEURES
10
65.502
20
165.502
0
VERTEX
8
CONTOURS_MINEURES
10
65.362
20
169.996
0
SEQEND
0
POLYLINE
8
CONTOURS_MINEURES
66
1
70
0
0
VERTEX
8
CONTOURS_MINEURES
10
55.652
20
-0.003
0
VERTEX
8
CONTOURS_MINEURES
10
56.250
20
1.249
0
VERTEX
8
CONTOURS_MINEURES
10
57.631
20
5.004
0
VERTEX
8
CONTOURS_MINEURES
10
58.783
20
6.219
0
VERTEX
8
CONTOURS_MINEURES
10
60.000
20
8.650
0
VERTEX
8
CONTOURS_MINEURES
10
60.925
20
10.001
0
VERTEX
8
CONTOURS_MINEURES
10
64.999
20
13.998
0
VERTEX
8
CONTOURS_MINEURES
10
65.425
20
14.997
0
VERTEX
8
CONTOURS_MINEURES
10
67.305
20
17.695
0
VERTEX
8
CONTOURS_MINEURES
10
68.155
20
20.004
0
VERTEX
8
CONTOURS_MINEURES
10
69.999
20
22.952
0
VERTEX
8
CONTOURS_MINEURES
10
71.264
20
23.736
0
VERTEX
8
CONTOURS_MINEURES
10
72.227
20
25.001
0
VERTEX
8
CONTOURS_MINEURES
10
74.998
20
27.575
0
VERTEX
8
CONTOURS_MINEURES
10
76.453
20
28.544
0
VERTEX
8
CONTOURS_MINEURES
10
77.524
20
29.997
0
VERTEX
8
CONTOURS_MINEURES
10
79.998
20
32.424
0
VERTEX
8
CONTOURS_MINEURES
10
81.477
20
33.523
0
VERTEX
8
CONTOURS_MINEURES
10
82.575
20
35.005
0
VERTEX
8
CONTOURS_MINEURES
10
83.685
20
36.317
0
VERTEX
8
CONTOURS_MINEURES
10
84.997
20
37.199
0
VERTEX
8
CONTOURS_MINEURES
10
86.601
20
38.398
0
VERTEX
8
CONTOURS_MINEURES
10
87.997
20
40.001
0
VERTEX
8
CONTOURS_MINEURES
10
89.997
20
42.000
0
VERTEX
8
CONTOURS_MINEURES
10
91.618
20
43.377
0
VERTEX
8
CONTOURS_MINEURES
10
93.257
20
44.998
0
VERTEX
8
CONTOURS_MINEURES
10
94.996
20
46.839
0
VERTEX
8
CONTOURS_MINEURES
10
98.869
20
50.005
0
VERTEX
8
CONTOURS_MINEURES
10
99.996
20
50.781
0
VERTEX
8
CONTOURS_MINEURES
10
102.697
20
52.301
0
VERTEX
8
CONTOURS_MINEURES
10
104.995
20
52.422
0
VERTEX
8
CONTOURS_MINEURES
10
108.732
20
53.740
0
VERTEX
8
CONTOURS_MINEURES
10
109.995
20
54.174
0
VERTEX
8
CONTOURS_MINEURES
10
111.371
20
55.001
0
VERTEX
8
CONTOURS_MINEURES
10
113.672
20
56.331
0
VERTEX
8
CONTOURS_MINEURES
10
115.005
20
57.012
0
VERTEX
8
CONTOURS_MINEURES
10
118.798
20
58.792
0
VERTEX
8
CONTOURS_MINEURES
10
120.005
20
59.226
0
VERTEX
8
CONTOURS_MINEURES
10
120.588
20
59.415
0
VERTEX
8
CONTOURS_MINEURES
10
121.424
20
59.998
0
VERTEX
8
CONTOURS_MINEURES
10
125.004
20
62.525
0
VERTEX
8
CONTOURS_MINEURES
10
126.358
20
63.649
0
VERTEX
8
CONTOURS_MINEURES
10
127.189
20
65.005
0
VERTEX
8
CONTOURS_MINEURES
10
130.004
20
70.002
0
VERTEX
8
CONTOURS_MINEURES
10
135.003
20
72.894
0
VERTEX
8
CONTOURS_MINEURES
10
136.970
20
73.032
0
VERTEX
8
CONTOURS_MINEURES
10
140.003
20
73.135
0
VERTEX
8
CONTOURS_MINEURES
10
143.035
20
73.032
0
VERTEX
8
CONTOURS_MINEURES
10
145.002
20
73.095
0
VERTEX
8
CONTOURS_MINEURES
10
147.828
20
72.826
0
VERTEX
8
CONTOURS_MINEURES
10
150.002
20
72.887
0
VERTEX
8
CONTOURS_MINEURES
10
152.241
20
72.761
0
VERTEX
8
CONTOURS_MINEURES
10
155.002
20
72.890
0
VERTEX
8
CONTOURS_MINEURES
10
158.777
20
73.774
0
VERTEX
8
CONTOURS_MINEURES
10
160.001
20
74.219
0
VERTEX
8
CONTOURS_MINEURES
10
164.515
20
74.512
0
VERTEX
8
CONTOURS_MINEURES
10
165.001
20
74.550
0
VERTEX
8
CONTOURS_MINEURES
10
165.408
20
74.591
0
VERTEX
8
CONTOURS_MINEURES
10
166.945
20
74.998
0
VERTEX
8
CONTOURS_MINEURES
10
170.000
20
75.783
0
VERTEX
8
CONTOURS_MINEURES
10
173.512
20
76.485
0
VERTEX
8
CONTOURS_MINEURES
10
175.000
20
76.709
0
VERTEX
8
CONTOURS_MINEURES
10
176.736
20
76.733
0
VERTEX
8
CONTOURS_MINEURES
10
179.999
20
76.778
0
VERTEX
8
CONTOURS_MINEURES
10
184.795
20
75.202
0
VERTEX
8
CONTOURS_MINEURES
10
184.999
20
75.133
0
VERTEX
8
CONTOURS_MINEURES
10
185.118
20
75.117
0
VERTEX
8
CONTOURS_MINEURES
10
185.908
20
74.998
0
VERTEX
8
CONTOURS_MINEURES
10
189.998
20
74.429
0
VERTEX
8
CONTOURS_MINEURES
10
193.463
20
73.465
0
VERTEX
8
CONTOURS_MINEURES
10
194.998
20
72.905
0
VERTEX
8
CONTOURS_MINEURES
10
197.126
20
72.129
0
VERTEX
8
CONTOURS_MINEURES
10
199.997
20
70.673
0
VERTEX
8
CONTOURS_MINEURES
10
201.122
20
70.002
0
VERTEX
8
CONTOURS_MINEURES
10
203.874
20
68.879
0
VERTEX
8
CONTOURS_MINEURES
10
204.997
20
68.388
0
VERTEX
8
CONTOURS_MINEURES
10
208.295
20
66.706
0
VERTEX
8
CONTOURS_MINEURES
10
209.996
20
65.884
0
VERTEX
8
CONTOURS_MINEURES
10
213.474
20
65.005
0
VERTEX
8
CONTOURS_MINEURES
10
214.755
20
64.764
0
VERTEX
8
CONTOURS_MINEURES
10
214.996
20
64.736
0
VERTEX
8
CONTOURS_MINEURES
10
215.218
20
64.783
0
VERTEX
8
CONTOURS_MINEURES
10
216.587
20
65.005
0
VERTEX
8
CONTOURS_MINEURES
10
219.996
20
65.755
0
VERTEX
8
CONTOURS_MINEURES
10
223.167
20
66.832
0
VERTEX
8
CONTOURS_MINEURES
10
224.995
20
67.556
0
VERTEX
8
CONTOURS_MINEURES
10
226.619
20
68.382
0
VERTEX
8
CONTOURS_MINEURES
10
230.005
20
69.019
0
VERTEX
8
CONTOURS_MINEURES
10
231.972
20
70.002
0
VERTEX
8
CONTOURS_MINEURES
10
235.005
20
72.681
0
VERTEX
8
CONTOURS_MINEURES
10
235.697
20
74.998
0
VERTEX
8
CONTOURS_MINEURES
10
236.562
20
78.439
0
VERTEX
8
CONTOURS_MINEURES
10
237.606
20
79.994
0
VERTEX
8
CONTOURS_MINEURES
10
238.351
20
81.650
0
VERTEX
8
CONTOURS_MINEURES
10
240.004
20
83.991
0
VERTEX
8
CONTOURS_MINEURES
10
241.301
20
85.002
0
VERTEX
8
CONTOURS_MINEURES
10
245.004
20
86.328
0
VERTEX
8
CONTOURS_MINEURES
10
247.639
20
87.365
0
VERTEX
8
CONTOURS_MINEURES
10
250.004
20
87.887
0
VERTEX
8
CONTOURS_MINEURES
10
254.779
20
89.774
0
VERTEX
8
CONTOURS_MINEURES
10
255.003
20
89.866
0
VERTEX
8
CONTOURS_MINEURES
10
255.096
20
89.906
0
VERTEX
8
CONTOURS_MINEURES
10
255.297
20
89.998
0
VERTEX
8
CONTOURS_MINEURES
10
260.003
20
94.781
0
VERTEX
8
CONTOURS_MINEURES
10
260.108
20
94.889
0
VERTEX
8
CONTOURS_MINEURES
10
260.218
20
94.995
0
VERTEX
8
CONTOURS_MINEURES
10
262.295
20
97.706
0
VERTEX
8
CONTOURS_MINEURES
10
263.762
20
100.002
0
VERTEX
8
CONTOURS_MINEURES
10
265.002
20
103.974
0
VERTEX
8
CONTOURS_MINEURES
10
265.224
20
104.777
0
VERTEX
8
CONTOURS_MINEURES
10
265.280
20
104.999
0
VERTEX
8
CONTOURS_MINEURES
10
265.280
20
105.276
0
VERTEX
8
CONTOURS_MINEURES
10
265.280
20
109.995
0
VERTEX
8
CONTOURS_MINEURES
10
265.075
20
114.930
0
VERTEX
8
CONTOURS_MINEURES
10
265.071
20
115.002
0
VERTEX
8
CONTOURS_MINEURES
10
265.002
20
117.001
0
VERTEX
8
CONTOURS_MINEURES
10
264.894
20
119.891
0
VERTEX
8
CONTOURS_MINEURES
10
264.890
20
119.999
0
VERTEX
8
CONTOURS_MINEURES
10
264.887
20
120.114
0
VERTEX
8
CONTOURS_MINEURES
10
264.777
20
124.995
0
VERTEX
8
CONTOURS_MINEURES
10
264.777
20
129.777
0
VERTEX
8
CONTOURS_MINEURES
10
264.762
20
130.003
0
VERTEX
8
CONTOURS_MINEURES
10
265.002
20
131.876
0
VERTEX
8
CONTOURS_MINEURES
10
265.295
20
134.707
0
VERTEX
8
CONTOURS_MINEURES
10
265.402
20
134.999
0
VERTEX
8
CONTOURS_MINEURES
10
266.735
20
138.264
0
VERTEX
8
CONTOURS_MINEURES
10
267.992
20
139.996
0
VERTEX
8
CONTOURS_MINEURES
10
267.992
20
142.990
0
VERTEX
8
CONTOURS_MINEURES
10
268.068
20
145.003
0
VERTEX
8
CONTOURS_MINEURES
10
268.712
20
146.291
0
VERTEX
8
CONTOURS_MINEURES
10
270.002
20
148.661
0
SEQEND
0
POLYLINE
8
CONTOURS_MINEURES
66
1
70
0
0
VERTEX
8
CONTOURS_MINEURES
10
134.839
20
169.996
0
VERTEX
8
CONTOURS_MINEURES
10
134.549
20
169.542
0
VERTEX
8
CONTOURS_MINEURES
10
132.044
20
165.000
0
VERTEX
8
CONTOURS_MINEURES
10
131.432
20
163.572
0
VERTEX
8
CONTOURS_MINEURES
10
130.004
20
160.836
0
VERTEX
8
CONTOURS_MINEURES
10
129.791
20
160.003
0
VERTEX
8
CONTOURS_MINEURES
10
128.604
20
156.398
0
VERTEX
8
CONTOURS_MINEURES
10
127.760
20
154.996
0
VERTEX
8
CONTOURS_MINEURES
10
125.004
20
151.017
0
VERTEX
8
CONTOURS_MINEURES
10
123.230
20
149.999
0
VERTEX
8
CONTOURS_MINEURES
10
121.104
20
148.901
0
VERTEX
8
CONTOURS_MINEURES
10
120.005
20
148.901
0
VERTEX
8
CONTOURS_MINEURES
10
118.310
20
148.306
0
VERTEX
8
CONTOURS_MINEURES
10
115.005
20
146.727
0
VERTEX
8
CONTOURS_MINEURES
10
113.835
20
146.170
0
VERTEX
8
CONTOURS_MINEURES
10
111.999
20
145.003
0
VERTEX
8
CONTOURS_MINEURES
10
109.995
20
143.489
0
VERTEX
8
CONTOURS_MINEURES
10
107.940
20
142.053
0
VERTEX
8
CONTOURS_MINEURES
10
105.233
20
139.996
0
VERTEX
8
CONTOURS_MINEURES
10
105.152
20
139.839
0
VERTEX
8
CONTOURS_MINEURES
10
104.995
20
139.781
0
VERTEX
8
CONTOURS_MINEURES
10
104.761
20
139.761
0
VERTEX
8
CONTOURS_MINEURES
10
99.996
20
138.628
0
VERTEX
8
CONTOURS_MINEURES
10
96.035
20
138.957
0
VERTEX
8
CONTOURS_MINEURES
10
94.996
20
139.180
0
VERTEX
8
CONTOURS_MINEURES
10
93.820
20
139.996
0
VERTEX
8
CONTOURS_MINEURES
10
91.718
20
141.720
0
VERTEX
8
CONTOURS_MINEURES
10
89.997
20
142.955
0
VERTEX
8
CONTOURS_MINEURES
10
87.531
20
145.003
0
VERTEX
8
CONTOURS_MINEURES
10
84.997
20
145.909
0
VERTEX
8
CONTOURS_MINEURES
10
81.811
20
146.815
0
VERTEX
8
CONTOURS_MINEURES
10
79.998
20
147.376
0
VERTEX
8
CONTOURS_MINEURES
10
77.187
20
147.812
0
VERTEX
8
CONTOURS_MINEURES
10
74.998
20
148.084
0
VERTEX
8
CONTOURS_MINEURES
10
71.883
20
148.116
0
VERTEX
8
CONTOURS_MINEURES
10
69.999
20
147.484
0
VERTEX
8
CONTOURS_MINEURES
10
66.999
20
147.002
0
VERTEX
8
CONTOURS_MINEURES
10
64.999
20
148.637
0
VERTEX
8
CONTOURS_MINEURES
10
64.223
20
149.224
0
VERTEX
8
CONTOURS_MINEURES
10
63.830
20
149.999
0
VERTEX
8
CONTOURS_MINEURES
10
60.714
20
154.282
0
VERTEX
8
CONTOURS_MINEURES
10
60.145
20
154.996
0
VERTEX
8
CONTOURS_MINEURES
10
60.090
20
155.086
0
VERTEX
8
CONTOURS_MINEURES
10
60.000
20
155.246
0
VERTEX
8
CONTOURS_MINEURES
10
57.824
20
160.003
0
VERTEX
8
CONTOURS_MINEURES
10
57.432
20
162.569
0
VERTEX
8
CONTOURS_MINEURES
10
57.077
20
165.000
0
VERTEX
8
CONTOURS_MINEURES
10
56.956
20
166.955
0
VERTEX
8
CONTOURS_MINEURES
10
56.348
20
169.996
0
SEQEND
0
POLYLINE
8
CONTOURS_MINEURES
66
1
70
0
0
VERTEX
8
CONTOURS_MINEURES
10
42.012
20
-0.003
0
VERTEX
8
CONTOURS_MINEURES
10
42.662
20
2.339
0
VERTEX
8
CONTOURS_MINEURES
10
44.584
20
5.004
0
VERTEX
8
CONTOURS_MINEURES
10
44.616
20
5.388
0
VERTEX
8
CONTOURS_MINEURES
10
45.001
20
5.971
0
VERTEX
8
CONTOURS_MINEURES
10
46.042
20
8.960
0
VERTEX
8
CONTOURS_MINEURES
10
47.233
20
10.001
0
VERTEX
8
CONTOURS_MINEURES
10
47.754
20
12.245
0
VERTEX
8
CONTOURS_MINEURES
10
50.000
20
14.556
0
VERTEX
8
CONTOURS_MINEURES
10
50.126
20
14.871
0
VERTEX
8
CONTOURS_MINEURES
10
50.289
20
14.997
0
VERTEX
8
CONTOURS_MINEURES
10
50.682
20
15.680
0
VERTEX
8
CONTOURS_MINEURES
10
52.683
20
20.004
0
VERTEX
8
CONTOURS_MINEURES
10
53.603
20
21.400
0
VERTEX
8
CONTOURS_MINEURES
10
55.000
20
22.881
0
VERTEX
8
CONTOURS_MINEURES
10
56.077
20
23.925
0
VERTEX
8
CONTOURS_MINEURES
10
58.333
20
25.001
0
VERTEX
8
CONTOURS_MINEURES
10
59.557
20
25.444
0
VERTEX
8
CONTOURS_MINEURES
10
60.000
20
25.556
0
VERTEX
8
CONTOURS_MINEURES
10
63.456
20
26.543
0
VERTEX
8
CONTOURS_MINEURES
10
64.999
20
27.154
0
VERTEX
8
CONTOURS_MINEURES
10
66.556
20
29.997
0
VERTEX
8
CONTOURS_MINEURES
10
68.665
20
33.669
0
VERTEX
8
CONTOURS_MINEURES
10
69.380
20
35.005
0
VERTEX
8
CONTOURS_MINEURES
10
69.999
20
36.367
0
VERTEX
8
CONTOURS_MINEURES
10
71.583
20
38.418
0
VERTEX
8
CONTOURS_MINEURES
10
73.901
20
40.001
0
VERTEX
8
CONTOURS_MINEURES
10
74.998
20
40.834
0
VERTEX
8
CONTOURS_MINEURES
10
76.989
20
43.008
0
VERTEX
8
CONTOURS_MINEURES
10
79.016
20
44.998
0
VERTEX
8
CONTOURS_MINEURES
10
79.474
20
45.522
0
VERTEX
8
CONTOURS_MINEURES
10
79.998
20
45.808
0
VERTEX
8
CONTOURS_MINEURES
10
82.224
20
47.775
0
VERTEX
8
CONTOURS_MINEURES
10
84.997
20
49.802
0
VERTEX
8
CONTOURS_MINEURES
10
85.102
20
49.900
0
VERTEX
8
CONTOURS_MINEURES
10
85.239
20
50.005
0
VERTEX
8
CONTOURS_MINEURES
10
88.187
20
51.813
0
VERTEX
8
CONTOURS_MINEURES
10
89.997
20
52.503
0
VERTEX
8
CONTOURS_MINEURES
10
91.443
20
53.556
0
VERTEX
8
CONTOURS_MINEURES
10
92.728
20
55.001
0
VERTEX
8
CONTOURS_MINEURES
10
94.996
20
57.722
0
VERTEX
8
CONTOURS_MINEURES
10
96.327
20
58.668
0
VERTEX
8
CONTOURS_MINEURES
10
98.302
20
59.998
0
VERTEX
8
CONTOURS_MINEURES
10
99.996
20
63.390
0
VERTEX
8
CONTOURS_MINEURES
10
104.034
20
59.998
0
VERTEX
8
CONTOURS_MINEURES
10
104.784
20
59.786
0
VERTEX
8
CONTOURS_MINEURES
10
104.995
20
59.800
0
VERTEX
8
CONTOURS_MINEURES
10
106.082
20
59.998
0
VERTEX
8
CONTOURS_MINEURES
10
105.495
20
64.505
0
VERTEX
8
CONTOURS_MINEURES
10
109.995
20
64.742
0
VERTEX
8
CONTOURS_MINEURES
10
110.204
20
65.005
0
VERTEX
8
CONTOURS_MINEURES
10
112.444
20
67.559
0
VERTEX
8
CONTOURS_MINEURES
10
115.005
20
68.197
0
VERTEX
8
CONTOURS_MINEURES
10
116.811
20
70.002
0
VERTEX
8
CONTOURS_MINEURES
10
120.005
20
73.593
0
VERTEX
8
CONTOURS_MINEURES
10
120.742
20
74.998
0
VERTEX
8
CONTOURS_MINEURES
10
122.209
20
77.792
0
VERTEX
8
CONTOURS_MINEURES
10
124.188
20
79.994
0
VERTEX
8
CONTOURS_MINEURES
10
124.407
20
80.592
0
VERTEX
8
CONTOURS_MINEURES
10
125.004
20
81.077
0
VERTEX
8
CONTOURS_MINEURES
10
126.213
20
83.792
0
VERTEX
8
CONTOURS_MINEURES
10
127.343
20
85.002
0
VERTEX
8
CONTOURS_MINEURES
10
130.004
20
86.557
0
VERTEX
8
CONTOURS_MINEURES
10
132.707
20
87.297
0
VERTEX
8
CONTOURS_MINEURES
10
135.003
20
88.406
0
VERTEX
8
CONTOURS_MINEURES
10
136.632
20
88.370
0
VERTEX
8
CONTOURS_MINEURES
10
140.003
20
89.544
0
VERTEX
8
CONTOURS_MINEURES
10
140.487
20
89.515
0
VERTEX
8
CONTOURS_MINEURES
10
145.002
20
89.443
0
VERTEX
8
CONTOURS_MINEURES
10
146.844
20
89.998
0
VERTEX
8
CONTOURS_MINEURES
10
149.471
20
90.529
0
VERTEX
8
CONTOURS_MINEURES
10
150.002
20
90.739
0
VERTEX
8
CONTOURS_MINEURES
10
150.859
20
90.855
0
VERTEX
8
CONTOURS_MINEURES
10
155.002
20
90.604
0
VERTEX
8
CONTOURS_MINEURES
10
155.406
20
90.402
0
VERTEX
8
CONTOURS_MINEURES
10
155.756
20
89.998
0
VERTEX
8
CONTOURS_MINEURES
10
160.001
20
88.026
0
VERTEX
8
CONTOURS_MINEURES
10
163.054
20
88.053
0
VERTEX
8
CONTOURS_MINEURES
10
165.001
20
88.000
0
VERTEX
8
CONTOURS_MINEURES
10
166.760
20
88.240
0
VERTEX
8
CONTOURS_MINEURES
10
170.000
20
87.935
0
VERTEX
8
CONTOURS_MINEURES
10
172.563
20
87.563
0
VERTEX
8
CONTOURS_MINEURES
10
175.000
20
87.532
0
VERTEX
8
CONTOURS_MINEURES
10
177.633
20
87.633
0
VERTEX
8
CONTOURS_MINEURES
10
179.999
20
87.601
0
VERTEX
8
CONTOURS_MINEURES
10
183.033
20
86.966
0
VERTEX
8
CONTOURS_MINEURES
10
184.999
20
86.457
0
VERTEX
8
CONTOURS_MINEURES
10
189.209
20
85.791
0
VERTEX
8
CONTOURS_MINEURES
10
189.998
20
85.546
0
VERTEX
8
CONTOURS_MINEURES
10
190.443
20
85.447
0
VERTEX
8
CONTOURS_MINEURES
10
194.771
20
85.002
0
VERTEX
8
CONTOURS_MINEURES
10
194.956
20
84.960
0
VERTEX
8
CONTOURS_MINEURES
10
194.998
20
84.952
0
VERTEX
8
CONTOURS_MINEURES
10
199.055
20
84.058
0
VERTEX
8
CONTOURS_MINEURES
10
199.997
20
83.839
0
VERTEX
8
CONTOURS_MINEURES
10
201.640
20
83.357
0
VERTEX
8
CONTOURS_MINEURES
10
204.997
20
82.325
0
VERTEX
8
CONTOURS_MINEURES
10
208.910
20
81.083
0
VERTEX
8
CONTOURS_MINEURES
10
209.996
20
80.820
0
VERTEX
8
CONTOURS_MINEURES
10
210.778
20
80.777
0
VERTEX
8
CONTOURS_MINEURES
10
213.405
20
79.994
0
VERTEX
8
CONTOURS_MINEURES
10
214.996
20
78.995
0
VERTEX
8
CONTOURS_MINEURES
10
215.791
20
79.200
0
VERTEX
8
CONTOURS_MINEURES
10
219.996
20
78.359
0
VERTEX
8
CONTOURS_MINEURES
10
224.281
20
79.994
0
VERTEX
8
CONTOURS_MINEURES
10
224.995
20
80.263
0
VERTEX
8
CONTOURS_MINEURES
10
227.761
20
82.237
0
VERTEX
8
CONTOURS_MINEURES
10
230.005
20
83.161
0
VERTEX
8
CONTOURS_MINEURES
10
232.198
20
85.002
0
VERTEX
8
CONTOURS_MINEURES
10
234.053
20
85.954
0
VERTEX
8
CONTOURS_MINEURES
10
235.005
20
86.152
0
VERTEX
8
CONTOURS_MINEURES
10
238.641
20
88.636
0
VERTEX
8
CONTOURS_MINEURES
10
240.004
20
89.684
0
VERTEX
8
CONTOURS_MINEURES
10
241.309
20
89.998
0
VERTEX
8
CONTOURS_MINEURES
10
243.430
20
91.571
0
VERTEX
8
CONTOURS_MINEURES
10
245.004
20
92.534
0
VERTEX
8
CONTOURS_MINEURES
10
248.754
20
94.995
0
VERTEX
8
CONTOURS_MINEURES
10
249.425
20
95.575
0
VERTEX
8
CONTOURS_MINEURES
10
250.004
20
96.338
0
VERTEX
8
CONTOURS_MINEURES
10
252.944
20
100.002
0
VERTEX
8
CONTOURS_MINEURES
10
255.003
20
102.838
0
VERTEX
8
CONTOURS_MINEURES
10
255.659
20
104.343
0
VERTEX
8
CONTOURS_MINEURES
10
256.042
20
104.999
0
VERTEX
8
CONTOURS_MINEURES
10
256.084
20
106.079
0
VERTEX
8
CONTOURS_MINEURES
10
256.950
20
109.995
0
VERTEX
8
CONTOURS_MINEURES
10
256.835
20
111.829
0
VERTEX
8
CONTOURS_MINEURES
10
257.040
20
115.002
0
VERTEX
8
CONTOURS_MINEURES
10
257.094
20
117.909
0
VERTEX
8
CONTOURS_MINEURES
10
257.003
20
119.999
0
VERTEX
8
CONTOURS_MINEURES
10
256.748
20
123.251
0
VERTEX
8
CONTOURS_MINEURES
10
256.685
20
124.995
0
VERTEX
8
CONTOURS_MINEURES
10
256.571
20
126.565
0
VERTEX
8
CONTOURS_MINEURES
10
256.182
20
130.003
0
VERTEX
8
CONTOURS_MINEURES
10
255.784
20
134.218
0
VERTEX
8
CONTOURS_MINEURES
10
255.753
20
134.999
0
VERTEX
8
CONTOURS_MINEURES
10
256.059
20
136.055
0
VERTEX
8
CONTOURS_MINEURES
10
256.319
20
139.996
0
VERTEX
8
CONTOURS_MINEURES
10
256.857
20
143.146
0
VERTEX
8
CONTOURS_MINEURES
10
257.848
20
145.003
0
VERTEX
8
CONTOURS_MINEURES
10
260.003
20
148.206
0
VERTEX
8
CONTOURS_MINEURES
10
260.732
20
149.999
0
VERTEX
8
CONTOURS_MINEURES
10
265.002
20
154.763
0
VERTEX
8
CONTOURS_MINEURES
10
265.108
20
154.890
0
VERTEX
8
CONTOURS_MINEURES
10
265.288
20
154.996
0
VERTEX
8
CONTOURS_MINEURES
10
270.002
20
158.628
0
SEQEND
0
POLYLINE
8
CONTOURS_MINEURES
66
1
70
0
0
VERTEX
8
CONTOURS_MINEURES
10
155.206
20
169.996
0
VERTEX
8
CONTOURS_MINEURES
10
155.151
20
169.847
0
VERTEX
8
CONTOURS_MINEURES
10
155.002
20
169.470
0
VERTEX
8
CONTOURS_MINEURES
10
153.694
20
166.306
0
VERTEX
8
CONTOURS_MINEURES
10
153.113
20
165.000
0
VERTEX
8
CONTOURS_MINEURES
10
152.123
20
162.880
0
VERTEX
8
CONTOURS_MINEURES
10
150.583
20
160.003
0
VERTEX
8
CONTOURS_MINEURES
10
150.002
20
159.076
0
VERTEX
8
CONTOURS_MINEURES
10
148.555
20
156.445
0
VERTEX
8
CONTOURS_MINEURES
10
147.662
20
154.996
0
VERTEX
8
CONTOURS_MINEURES
10
146.278
20
153.721
0
VERTEX
8
CONTOURS_MINEURES
10
145.002
20
153.330
0
VERTEX
8
CONTOURS_MINEURES
10
140.971
20
149.999
0
VERTEX
8
CONTOURS_MINEURES
10
140.406
20
149.597
0
VERTEX
8
CONTOURS_MINEURES
10
140.003
20
149.423
0
VERTEX
8
CONTOURS_MINEURES
10
135.357
20
145.003
0
VERTEX
8
CONTOURS_MINEURES
10
135.213
20
144.793
0
VERTEX
8
CONTOURS_MINEURES
10
135.003
20
144.419
0
VERTEX
8
CONTOURS_MINEURES
10
132.214
20
139.996
0
VERTEX
8
CONTOURS_MINEURES
10
130.186
20
135.181
0
VERTEX
8
CONTOURS_MINEURES
10
130.165
20
134.999
0
VERTEX
8
CONTOURS_MINEURES
10
130.176
20
134.827
0
VERTEX
8
CONTOURS_MINEURES
10
130.004
20
134.729
0
VERTEX
8
CONTOURS_MINEURES
10
127.038
20
130.003
0
VERTEX
8
CONTOURS_MINEURES
10
126.204
20
128.801
0
VERTEX
8
CONTOURS_MINEURES
10
125.004
20
126.664
0
VERTEX
8
CONTOURS_MINEURES
10
123.728
20
126.274
0
VERTEX
8
CONTOURS_MINEURES
10
122.505
20
124.995
0
VERTEX
8
CONTOURS_MINEURES
10
121.005
20
123.996
0
VERTEX
8
CONTOURS_MINEURES
10
120.005
20
123.061
0
VERTEX
8
CONTOURS_MINEURES
10
115.005
20
119.999
0
VERTEX
8
CONTOURS_MINEURES
10
109.995
20
118.214
0
VERTEX
8
CONTOURS_MINEURES
10
107.495
20
117.501
0
VERTEX
8
CONTOURS_MINEURES
10
104.995
20
117.144
0
VERTEX
8
CONTOURS_MINEURES
10
101.424
20
115.002
0
VERTEX
8
CONTOURS_MINEURES
10
100.746
20
114.251
0
VERTEX
8
CONTOURS_MINEURES
10
99.996
20
113.235
0
VERTEX
8
CONTOURS_MINEURES
10
96.246
20
111.247
0
VERTEX
8
CONTOURS_MINEURES
10
94.996
20
110.412
0
VERTEX
8
CONTOURS_MINEURES
10
93.746
20
111.247
0
VERTEX
8
CONTOURS_MINEURES
10
89.997
20
111.998
0
VERTEX
8
CONTOURS_MINEURES
10
89.315
20
114.320
0
VERTEX
8
CONTOURS_MINEURES
10
89.597
20
115.002
0
VERTEX
8
CONTOURS_MINEURES
10
89.751
20
115.248
0
VERTEX
8
CONTOURS_MINEURES
10
89.997
20
115.939
0
VERTEX
8
CONTOURS_MINEURES
10
93.020
20
119.999
0
VERTEX
8
CONTOURS_MINEURES
10
94.996
20
123.266
0
VERTEX
8
CONTOURS_MINEURES
10
96.180
20
124.995
0
VERTEX
8
CONTOURS_MINEURES
10
95.732
20
129.266
0
VERTEX
8
CONTOURS_MINEURES
10
95.406
20
130.003
0
VERTEX
8
CONTOURS_MINEURES
10
95.170
20
130.176
0
VERTEX
8
CONTOURS_MINEURES
10
94.996
20
130.206
0
VERTEX
8
CONTOURS_MINEURES
10
91.355
20
131.360
0
VERTEX
8
CONTOURS_MINEURES
10
89.997
20
131.882
0
VERTEX
8
CONTOURS_MINEURES
10
87.054
20
132.058
0
VERTEX
8
CONTOURS_MINEURES
10
84.997
20
132.501
0
VERTEX
8
CONTOURS_MINEURES
10
82.164
20
132.834
0
VERTEX
8
CONTOURS_MINEURES
10
79.998
20
132.926
0
VERTEX
8
CONTOURS_MINEURES
10
76.748
20
134.999
0
VERTEX
8
CONTOURS_MINEURES
10
76.017
20
136.018
0
VERTEX
8
CONTOURS_MINEURES
10
74.998
20
137.835
0
VERTEX
8
CONTOURS_MINEURES
10
71.998
20
137.997
0
VERTEX
8
CONTOURS_MINEURES
10
69.999
20
138.290
0
VERTEX
8
CONTOURS_MINEURES
10
65.499
20
134.999
0
VERTEX
8
CONTOURS_MINEURES
10
65.146
20
134.852
0
VERTEX
8
CONTOURS_MINEURES
10
64.999
20
134.807
0
VERTEX
8
CONTOURS_MINEURES
10
64.761
20
134.761
0
VERTEX
8
CONTOURS_MINEURES
10
63.999
20
134.999
0
VERTEX
8
CONTOURS_MINEURES
10
60.000
20
135.966
0
VERTEX
8
CONTOURS_MINEURES
10
57.573
20
137.570
0
VERTEX
8
CONTOURS_MINEURES
10
56.212
20
139.996
0
VERTEX
8
CONTOURS_MINEURES
10
55.000
20
141.776
0
VERTEX
8
CONTOURS_MINEURES
10
53.092
20
145.003
0
VERTEX
8
CONTOURS_MINEURES
10
52.584
20
147.418
0
VERTEX
8
CONTOURS_MINEURES
10
51.824
20
149.999
0
VERTEX
8
CONTOURS_MINEURES
10
51.292
20
151.290
0
VERTEX
8
CONTOURS_MINEURES
10
51.197
20
154.996
0
VERTEX
8
CONTOURS_MINEURES
10
50.909
20
155.906
0
VERTEX
8
CONTOURS_MINEURES
10
50.800
20
160.003
0
VERTEX
8
CONTOURS_MINEURES
10
50.000
20
164.138
0
VERTEX
8
CONTOURS_MINEURES
10
49.779
20
165.000
0
VERTEX
8
CONTOURS_MINEURES
10
48.051
20
168.048
0
VERTEX
8
CONTOURS_MINEURES
10
45.942
20
169.996
0
SEQEND
0
POLYLINE
8
CONTOURS_MINEURES
66
1
70
0
0
VERTEX
8
CONTOURS_MINEURES
10
23.106
20
-0.003
0
VERTEX
8
CONTOURS_MINEURES
10
24.094
20
4.094
0
VERTEX
8
CONTOURS_MINEURES
10
24.527
20
5.004
0
VERTEX
8
CONTOURS_MINEURES
10
24.695
20
5.312
0
VERTEX
8
CONTOURS_MINEURES
10
25.003
20
6.003
0
VERTEX
8
CONTOURS_MINEURES
10
26.821
20
10.001
0
VERTEX
8
CONTOURS_MINEURES
10
27.815
20
12.186
0
VERTEX
8
CONTOURS_MINEURES
10
28.752
20
14.997
0
VERTEX
8
CONTOURS_MINEURES
10
30.002
20
17.308
0
VERTEX
8
CONTOURS_MINEURES
10
30.936
20
19.070
0
VERTEX
8
CONTOURS_MINEURES
10
31.431
20
20.004
0
VERTEX
8
CONTOURS_MINEURES
10
33.502
20
23.502
0
VERTEX
8
CONTOURS_MINEURES
10
34.364
20
25.001
0
VERTEX
8
CONTOURS_MINEURES
10
34.533
20
25.469
0
VERTEX
8
CONTOURS_MINEURES
10
35.002
20
26.666
0
VERTEX
8
CONTOURS_MINEURES
10
35.824
20
29.176
0
VERTEX
8
CONTOURS_MINEURES
10
36.278
20
29.997
0
VERTEX
8
CONTOURS_MINEURES
10
37.502
20
32.501
0
VERTEX
8
CONTOURS_MINEURES
10
39.168
20
35.005
0
VERTEX
8
CONTOURS_MINEURES
10
39.479
20
35.527
0
VERTEX
8
CONTOURS_MINEURES
10
40.001
20
36.004
0
VERTEX
8
CONTOURS_MINEURES
10
44.119
20
40.001
0
VERTEX
8
CONTOURS_MINEURES
10
44.601
20
40.401
0
VERTEX
8
CONTOURS_MINEURES
10
45.001
20
40.485
0
VERTEX
8
CONTOURS_MINEURES
10
46.001
20
41.000
0
VERTEX
8
CONTOURS_MINEURES
10
50.000
20
42.856
0
VERTEX
8
CONTOURS_MINEURES
10
51.667
20
43.332
0
VERTEX
8
CONTOURS_MINEURES
10
54.800
20
44.998
0
VERTEX
8
CONTOURS_MINEURES
10
55.000
20
45.133
0
VERTEX
8
CONTOURS_MINEURES
10
55.312
20
45.310
0
VERTEX
8
CONTOURS_MINEURES
10
60.000
20
47.116
0
VERTEX
8
CONTOURS_MINEURES
10
61.363
20
48.639
0
VERTEX
8
CONTOURS_MINEURES
10
62.419
20
50.005
0
VERTEX
8
CONTOURS_MINEURES
10
63.367
20
51.636
0
VERTEX
8
CONTOURS_MINEURES
10
64.582
20
55.001
0
VERTEX
8
CONTOURS_MINEURES
10
64.999
20
55.601
0
VERTEX
8
CONTOURS_MINEURES
10
67.074
20
59.998
0
VERTEX
8
CONTOURS_MINEURES
10
68.739
20
61.260
0
VERTEX
8
CONTOURS_MINEURES
10
69.945
20
65.005
0
VERTEX
8
CONTOURS_MINEURES
10
69.999
20
65.114
0
VERTEX
8
CONTOURS_MINEURES
10
74.244
20
70.002
0
VERTEX
8
CONTOURS_MINEURES
10
74.740
20
70.260
0
VERTEX
8
CONTOURS_MINEURES
10
74.998
20
70.397
0
VERTEX
8
CONTOURS_MINEURES
10
77.103
20
72.105
0
VERTEX
8
CONTOURS_MINEURES
10
79.998
20
74.067
0
VERTEX
8
CONTOURS_MINEURES
10
81.220
20
74.998
0
VERTEX
8
CONTOURS_MINEURES
10
83.985
20
76.009
0
VERTEX
8
CONTOURS_MINEURES
10
84.997
20
76.463
0
VERTEX
8
CONTOURS_MINEURES
10
88.693
20
78.691
0
VERTEX
8
CONTOURS_MINEURES
10
89.997
20
79.281
0
VERTEX
8
CONTOURS_MINEURES
10
90.473
20
79.519
0
VERTEX
8
CONTOURS_MINEURES
10
90.776
20
79.994
0
VERTEX
8
CONTOURS_MINEURES
10
94.996
20
82.319
0
VERTEX
8
CONTOURS_MINEURES
10
97.068
20
82.927
0
VERTEX
8
CONTOURS_MINEURES
10
99.930
20
85.002
0
VERTEX
8
CONTOURS_MINEURES
10
99.996
20
85.038
0
VERTEX
8
CONTOURS_MINEURES
10
103.615
20
86.381
0
VERTEX
8
CONTOURS_MINEURES
10
104.995
20
86.353
0
VERTEX
8
CONTOURS_MINEURES
10
107.925
20
87.070
0
VERTEX
8
CONTOURS_MINEURES
10
109.995
20
87.187
0
VERTEX
8
CONTOURS_MINEURES
10
112.611
20
87.390
0
VERTEX
8
CONTOURS_MINEURES
10
115.005
20
87.742
0
VERTEX
8
CONTOURS_MINEURES
10
118.795
20
88.789
0
VERTEX
8
CONTOURS_MINEURES
10
120.005
20
88.938
0
VERTEX
8
CONTOURS_MINEURES
10
120.914
20
89.090
0
VERTEX
8
CONTOURS_MINEURES
10
123.280
20
89.998
0
VERTEX
8
CONTOURS_MINEURES
10
125.004
20
91.247
0
VERTEX
8
CONTOURS_MINEURES
10
126.608
20
93.392
0
VERTEX
8
CONTOURS_MINEURES
10
130.004
20
94.995
0
VERTEX
8
CONTOURS_MINEURES
10
135.003
20
97.423
0
VERTEX
8
CONTOURS_MINEURES
10
137.102
20
97.900
0
VERTEX
8
CONTOURS_MINEURES
10
140.003
20
98.701
0
VERTEX
8
CONTOURS_MINEURES
10
141.253
20
98.750
0
VERTEX
8
CONTOURS_MINEURES
10
145.002
20
99.761
0
VERTEX
8
CONTOURS_MINEURES
10
145.336
20
100.002
0
VERTEX
8
CONTOURS_MINEURES
10
150.002
20
103.365
0
VERTEX
8
CONTOURS_MINEURES
10
154.475
20
104.999
0
VERTEX
8
CONTOURS_MINEURES
10
154.769
20
105.231
0
VERTEX
8
CONTOURS_MINEURES
10
155.002
20
105.311
0
VERTEX
8
CONTOURS_MINEURES
10
158.262
20
106.737
0
VERTEX
8
CONTOURS_MINEURES
10
160.001
20
107.620
0
VERTEX
8
CONTOURS_MINEURES
10
164.103
20
109.098
0
VERTEX
8
CONTOURS_MINEURES
10
165.001
20
109.075
0
VERTEX
8
CONTOURS_MINEURES
10
165.973
20
109.024
0
VERTEX
8
CONTOURS_MINEURES
10
170.000
20
109.527
0
VERTEX
8
CONTOURS_MINEURES
10
171.364
20
108.632
0
VERTEX
8
CONTOURS_MINEURES
10
175.000
20
105.887
0
VERTEX
8
CONTOURS_MINEURES
10
175.482
20
105.480
0
VERTEX
8
CONTOURS_MINEURES
10
176.290
20
104.999
0
VERTEX
8
CONTOURS_MINEURES
10
179.999
20
102.605
0
VERTEX
8
CONTOURS_MINEURES
10
181.487
20
100.002
0
VERTEX
8
CONTOURS_MINEURES
10
182.830
20
97.830
0
VERTEX
8
CONTOURS_MINEURES
10
184.999
20
95.720
0
VERTEX
8
CONTOURS_MINEURES
10
185.514
20
95.511
0
VERTEX
8
CONTOURS_MINEURES
10
185.942
20
94.995
0
VERTEX
8
CONTOURS_MINEURES
10
188.357
20
93.355
0
VERTEX
8
CONTOURS_MINEURES
10
189.998
20
91.969
0
VERTEX
8
CONTOURS_MINEURES
10
191.472
20
91.471
0
VERTEX
8
CONTOURS_MINEURES
10
193.254
20
89.998
0
VERTEX
8
CONTOURS_MINEURES
10
194.680
20
89.681
0
VERTEX
8
CONTOURS_MINEURES
10
194.998
20
89.648
0
VERTEX
8
CONTOURS_MINEURES
10
199.691
20
89.692
0
VERTEX
8
CONTOURS_MINEURES
10
199.997
20
89.656
0
VERTEX
8
CONTOURS_MINEURES
10
200.406
20
89.590
0
VERTEX
8
CONTOURS_MINEURES
10
204.997
20
89.590
0
VERTEX
8
CONTOURS_MINEURES
10
205.471
20
89.524
0
VERTEX
8
CONTOURS_MINEURES
10
209.996
20
89.396
0
VERTEX
8
CONTOURS_MINEURES
10
214.075
20
89.078
0
VERTEX
8
CONTOURS_MINEURES
10
214.996
20
89.047
0
VERTEX
8
CONTOURS_MINEURES
10
215.882
20
89.113
0
VERTEX
8
CONTOURS_MINEURES
10
219.996
20
89.303
0
VERTEX
8
CONTOURS_MINEURES
10
220.621
20
89.374
0
VERTEX
8
CONTOURS_MINEURES
10
222.995
20
89.998
0
VERTEX
8
CONTOURS_MINEURES
10
224.995
20
91.127
0
VERTEX
8
CONTOURS_MINEURES
10
227.142
20
92.853
0
VERTEX
8
CONTOURS_MINEURES
10
230.005
20
94.151
0
VERTEX
8
CONTOURS_MINEURES
10
230.618
20
94.382
0
VERTEX
8
CONTOURS_MINEURES
10
231.021
20
94.995
0
VERTEX
8
CONTOURS_MINEURES
10
235.005
20
99.638
0
VERTEX
8
CONTOURS_MINEURES
10
235.279
20
100.002
0
VERTEX
8
CONTOURS_MINEURES
10
237.330
20
102.675
0
VERTEX
8
CONTOURS_MINEURES
10
238.576
20
104.999
0
VERTEX
8
CONTOURS_MINEURES
10
238.988
20
106.015
0
VERTEX
8
CONTOURS_MINEURES
10
240.004
20
108.996
0
VERTEX
8
CONTOURS_MINEURES
10
240.887
20
109.995
0
VERTEX
8
CONTOURS_MINEURES
10
242.504
20
112.499
0
VERTEX
8
CONTOURS_MINEURES
10
243.186
20
115.002
0
VERTEX
8
CONTOURS_MINEURES
10
243.601
20
116.405
0
VERTEX
8
CONTOURS_MINEURES
10
243.258
20
119.999
0
VERTEX
8
CONTOURS_MINEURES
10
242.504
20
122.497
0
VERTEX
8
CONTOURS_MINEURES
10
242.648
20
124.995
0
VERTEX
8
CONTOURS_MINEURES
10
242.701
20
127.302
0
VERTEX
8
CONTOURS_MINEURES
10
242.453
20
130.003
0
VERTEX
8
CONTOURS_MINEURES
10
242.557
20
132.554
0
VERTEX
8
CONTOURS_MINEURES
10
242.704
20
134.999
0
VERTEX
8
CONTOURS_MINEURES
10
242.749
20
137.252
0
VERTEX
8
CONTOURS_MINEURES
10
242.983
20
139.996
0
VERTEX
8
CONTOURS_MINEURES
10
242.357
20
142.352
0
VERTEX
8
CONTOURS_MINEURES
10
240.303
20
145.003
0
VERTEX
8
CONTOURS_MINEURES
10
240.180
20
145.178
0
VERTEX
8
CONTOURS_MINEURES
10
240.004
20
145.263
0
VERTEX
8
CONTOURS_MINEURES
10
239.687
20
145.320
0
VERTEX
8
CONTOURS_MINEURES
10
235.005
20
146.991
0
VERTEX
8
CONTOURS_MINEURES
10
232.025
20
147.022
0
VERTEX
8
CONTOURS_MINEURES
10
230.005
20
147.704
0
VERTEX
8
CONTOURS_MINEURES
10
226.456
20
146.460
0
VERTEX
8
CONTOURS_MINEURES
10
226.302
20
149.999
0
VERTEX
8
CONTOURS_MINEURES
10
230.005
20
151.617
0
VERTEX
8
CONTOURS_MINEURES
10
232.736
20
152.267
0
VERTEX
8
CONTOURS_MINEURES
10
235.005
20
154.535
0
VERTEX
8
CONTOURS_MINEURES
10
235.259
20
154.996
0
VERTEX
8
CONTOURS_MINEURES
10
235.400
20
155.391
0
VERTEX
8
CONTOURS_MINEURES
10
238.113
20
160.003
0
VERTEX
8
CONTOURS_MINEURES
10
238.113
20
161.894
0
VERTEX
8
CONTOURS_MINEURES
10
240.004
20
164.118
0
VERTEX
8
CONTOURS_MINEURES
10
240.668
20
164.336
0
VERTEX
8
CONTOURS_MINEURES
10
243.004
20
165.000
0
VERTEX
8
CONTOURS_MINEURES
10
243.280
20
166.723
0
VERTEX
8
CONTOURS_MINEURES
10
243.658
20
169.996
0
SEQEND
0
POLYLINE
8
CONTOURS_MINEURES
66
1
70
0
0
VERTEX
8
CONTOURS_MINEURES
10
176.886
20
169.996
0
VERTEX
8
CONTOURS_MINEURES
10
176.562
20
168.435
0
VERTEX
8
CONTOURS_MINEURES
10
176.393
20
165.000
0
VERTEX
8
CONTOURS_MINEURES
10
175.686
20
160.689
0
VERTEX
8
CONTOURS_MINEURES
10
175.538
20
160.003
0
VERTEX
8
CONTOURS_MINEURES
10
175.448
20
159.554
0
VERTEX
8
CONTOURS_MINEURES
10
175.000
20
158.056
0
VERTEX
8
CONTOURS_MINEURES
10
173.942
20
156.055
0
VERTEX
8
CONTOURS_MINEURES
10
173.428
20
154.996
0
VERTEX
8
CONTOURS_MINEURES
10
172.222
20
152.775
0
VERTEX
8
CONTOURS_MINEURES
10
170.000
20
149.999
0
VERTEX
8
CONTOURS_MINEURES
10
165.001
20
145.877
0
VERTEX
8
CONTOURS_MINEURES
10
164.546
20
145.457
0
VERTEX
8
CONTOURS_MINEURES
10
164.103
20
145.003
0
VERTEX
8
CONTOURS_MINEURES
10
162.425
20
142.575
0
VERTEX
8
CONTOURS_MINEURES
10
160.953
20
139.996
0
VERTEX
8
CONTOURS_MINEURES
10
160.001
20
139.227
0
VERTEX
8
CONTOURS_MINEURES
10
157.443
20
137.555
0
VERTEX
8
CONTOURS_MINEURES
10
155.002
20
136.611
0
VERTEX
8
CONTOURS_MINEURES
10
153.632
20
134.999
0
VERTEX
8
CONTOURS_MINEURES
10
152.600
20
132.403
0
VERTEX
8
CONTOURS_MINEURES
10
151.691
20
130.003
0
VERTEX
8
CONTOURS_MINEURES
10
152.395
20
127.393
0
VERTEX
8
CONTOURS_MINEURES
10
154.168
20
124.995
0
VERTEX
8
CONTOURS_MINEURES
10
152.780
20
122.220
0
VERTEX
8
CONTOURS_MINEURES
10
151.729
20
119.999
0
VERTEX
8
CONTOURS_MINEURES
10
150.971
20
119.030
0
VERTEX
8
CONTOURS_MINEURES
10
150.002
20
118.932
0
VERTEX
8
CONTOURS_MINEURES
10
148.210
20
118.208
0
VERTEX
8
CONTOURS_MINEURES
10
145.002
20
116.754
0
VERTEX
8
CONTOURS_MINEURES
10
143.457
20
116.547
0
VERTEX
8
CONTOURS_MINEURES
10
141.049
20
115.002
0
VERTEX
8
CONTOURS_MINEURES
10
140.457
20
114.547
0
VERTEX
8
CONTOURS_MINEURES
10
140.003
20
114.552
0
VERTEX
8
CONTOURS_MINEURES
10
136.706
20
113.297
0
VERTEX
8
CONTOURS_MINEURES
10
135.003
20
113.041
0
VERTEX
8
CONTOURS_MINEURES
10
131.388
20
111.382
0
VERTEX
8
CONTOURS_MINEURES
10
130.004
20
110.887
0
VERTEX
8
CONTOURS_MINEURES
10
129.327
20
110.673
0
VERTEX
8
CONTOURS_MINEURES
10
129.171
20
109.995
0
VERTEX
8
CONTOURS_MINEURES
10
125.004
20
106.216
0
VERTEX
8
CONTOURS_MINEURES
10
123.922
20
106.080
0
VERTEX
8
CONTOURS_MINEURES
10
122.588
20
104.999
0
VERTEX
8
CONTOURS_MINEURES
10
120.005
20
103.851
0
VERTEX
8
CONTOURS_MINEURES
10
117.239
20
102.766
0
VERTEX
8
CONTOURS_MINEURES
10
115.005
20
102.084
0
VERTEX
8
CONTOURS_MINEURES
10
111.383
20
100.002
0
VERTEX
8
CONTOURS_MINEURES
10
110.706
20
99.291
0
VERTEX
8
CONTOURS_MINEURES
10
109.995
20
99.208
0
VERTEX
8
CONTOURS_MINEURES
10
108.940
20
98.946
0
VERTEX
8
CONTOURS_MINEURES
10
104.995
20
97.573
0
VERTEX
8
CONTOURS_MINEURES
10
101.139
20
96.139
0
VERTEX
8
CONTOURS_MINEURES
10
99.996
20
95.791
0
VERTEX
8
CONTOURS_MINEURES
10
99.196
20
95.796
0
VERTEX
8
CONTOURS_MINEURES
10
97.643
20
94.995
0
VERTEX
8
CONTOURS_MINEURES
10
95.810
20
94.182
0
VERTEX
8
CONTOURS_MINEURES
10
94.996
20
94.095
0
VERTEX
8
CONTOURS_MINEURES
10
91.810
20
93.183
0
VERTEX
8
CONTOURS_MINEURES
10
89.997
20
92.616
0
VERTEX
8
CONTOURS_MINEURES
10
85.729
20
90.730
0
VERTEX
8
CONTOURS_MINEURES
10
84.997
20
90.672
0
VERTEX
8
CONTOURS_MINEURES
10
83.283
20
89.998
0
VERTEX
8
CONTOURS_MINEURES
10
80.609
20
89.387
0
VERTEX
8
CONTOURS_MINEURES
10
79.998
20
89.440
0
VERTEX
8
CONTOURS_MINEURES
10
79.453
20
89.454
0
VERTEX
8
CONTOURS_MINEURES
10
74.998
20
89.722
0
VERTEX
8
CONTOURS_MINEURES
10
74.694
20
89.695
0
VERTEX
8
CONTOURS_MINEURES
10
69.999
20
89.969
0
VERTEX
8
CONTOURS_MINEURES
10
69.952
20
89.952
0
VERTEX
8
CONTOURS_MINEURES
10
69.832
20
89.998
0
VERTEX
8
CONTOURS_MINEURES
10
68.084
20
93.081
0
VERTEX
8
CONTOURS_MINEURES
10
68.268
20
94.995
0
VERTEX
8
CONTOURS_MINEURES
10
67.151
20
97.150
0
VERTEX
8
CONTOURS_MINEURES
10
67.114
20
100.002
0
VERTEX
8
CONTOURS_MINEURES
10
66.570
20
101.573
0
VERTEX
8
CONTOURS_MINEURES
10
65.134
20
104.999
0
VERTEX
8
CONTOURS_MINEURES
10
64.999
20
105.284
0
VERTEX
8
CONTOURS_MINEURES
10
63.124
20
108.121
0
VERTEX
8
CONTOURS_MINEURES
10
60.000
20
109.100
0
VERTEX
8
CONTOURS_MINEURES
10
58.636
20
108.632
0
VERTEX
8
CONTOURS_MINEURES
10
55.000
20
107.189
0
VERTEX
8
CONTOURS_MINEURES
10
51.800
20
108.196
0
VERTEX
8
CONTOURS_MINEURES
10
50.000
20
108.121
0
VERTEX
8
CONTOURS_MINEURES
10
49.101
20
109.096
0
VERTEX
8
CONTOURS_MINEURES
10
48.572
20
109.995
0
VERTEX
8
CONTOURS_MINEURES
10
47.778
20
112.777
0
VERTEX
8
CONTOURS_MINEURES
10
47.097
20
115.002
0
VERTEX
8
CONTOURS_MINEURES
10
46.897
20
118.104
0
VERTEX
8
CONTOURS_MINEURES
10
47.751
20
119.999
0
VERTEX
8
CONTOURS_MINEURES
10
46.088
20
123.909
0
VERTEX
8
CONTOURS_MINEURES
10
45.834
20
124.995
0
VERTEX
8
CONTOURS_MINEURES
10
45.001
20
125.691
0
VERTEX
8
CONTOURS_MINEURES
10
41.126
20
130.003
0
VERTEX
8
CONTOURS_MINEURES
10
40.635
20
130.636
0
VERTEX
8
CONTOURS_MINEURES
10
40.001
20
131.365
0
VERTEX
8
CONTOURS_MINEURES
10
37.393
20
134.999
0
VERTEX
8
CONTOURS_MINEURES
10
36.925
20
138.074
0
VERTEX
8
CONTOURS_MINEURES
10
36.231
20
139.996
0
VERTEX
8
CONTOURS_MINEURES
10
36.417
20
141.413
0
VERTEX
8
CONTOURS_MINEURES
10
36.609
20
145.003
0
VERTEX
8
CONTOURS_MINEURES
10
38.305
20
146.698
0
VERTEX
8
CONTOURS_MINEURES
10
40.001
20
148.277
0
VERTEX
8
CONTOURS_MINEURES
10
41.138
20
149.999
0
VERTEX
8
CONTOURS_MINEURES
10
42.281
20
152.718
0
VERTEX
8
CONTOURS_MINEURES
10
42.795
20
154.996
0
VERTEX
8
CONTOURS_MINEURES
10
42.742
20
157.740
0
VERTEX
8
CONTOURS_MINEURES
10
42.390
20
160.003
0
VERTEX
8
CONTOURS_MINEURES
10
41.594
20
161.595
0
VERTEX
8
CONTOURS_MINEURES
10
40.307
20
165.000
0
VERTEX
8
CONTOURS_MINEURES
10
40.001
20
165.315
0
VERTEX
8
CONTOURS_MINEURES
10
37.131
20
167.127
0
VERTEX
8
CONTOURS_MINEURES
10
35.002
20
169.339
0
VERTEX
8
CONTOURS_MINEURES
10
34.221
20
169.996
0
SEQEND
0
POLYLINE
8
CONTOURS_MINEURES
66
1
70
0
0
VERTEX
8
CONTOURS_MINEURES
10
219.996
20
143.939
0
VERTEX
8
CONTOURS_MINEURES
10
217.759
20
142.763
0
VERTEX
8
CONTOURS_MINEURES
10
217.496
20
145.003
0
VERTEX
8
CONTOURS_MINEURES
10
219.996
20
145.820
0
VERTEX
8
CONTOURS_MINEURES
10
222.737
20
145.003
0
VERTEX
8
CONTOURS_MINEURES
10
219.996
20
143.939
0
SEQEND
0
POLYLINE
8
CONTOURS_MINEURES
66
1
70
0
0
VERTEX
8
CONTOURS_MINEURES
10
209.996
20
140.781
0
VERTEX
8
CONTOURS_MINEURES
10
212.158
20
139.996
0
VERTEX
8
CONTOURS_MINEURES
10
209.996
20
138.957
0
VERTEX
8
CONTOURS_MINEURES
10
208.397
20
138.397
0
VERTEX
8
CONTOURS_MINEURES
10
205.997
20
139.996
0
VERTEX
8
CONTOURS_MINEURES
10
209.545
20
140.448
0
VERTEX
8
CONTOURS_MINEURES
10
209.996
20
140.781
0
SEQEND
0
POLYLINE
8
CONTOURS_MINEURES
66
1
70
0
0
VERTEX
8
CONTOURS_MINEURES
10
2.889
20
-0.003
0
VERTEX
8
CONTOURS_MINEURES
10
3.455
20
1.548
0
VERTEX
8
CONTOURS_MINEURES
10
5.005
20
3.550
0
VERTEX
8
CONTOURS_MINEURES
10
5.589
20
4.419
0
VERTEX
8
CONTOURS_MINEURES
10
5.794
20
5.004
0
VERTEX
8
CONTOURS_MINEURES
10
7.504
20
7.502
0
VERTEX
8
CONTOURS_MINEURES
10
9.026
20
10.001
0
VERTEX
8
CONTOURS_MINEURES
10
9.333
20
10.672
0
VERTEX
8
CONTOURS_MINEURES
10
10.004
20
11.125
0
VERTEX
8
CONTOURS_MINEURES
10
11.524
20
14.997
0
VERTEX
8
CONTOURS_MINEURES
10
11.862
20
18.143
0
VERTEX
8
CONTOURS_MINEURES
10
12.262
20
20.004
0
VERTEX
8
CONTOURS_MINEURES
10
13.563
20
23.561
0
VERTEX
8
CONTOURS_MINEURES
10
13.772
20
25.001
0
VERTEX
8
CONTOURS_MINEURES
10
15.004
20
27.832
0
VERTEX
8
CONTOURS_MINEURES
10
15.974
20
29.028
0
VERTEX
8
CONTOURS_MINEURES
10
16.809
20
29.997
0
VERTEX
8
CONTOURS_MINEURES
10
17.950
20
32.054
0
VERTEX
8
CONTOURS_MINEURES
10
20.003
20
34.427
0
VERTEX
8
CONTOURS_MINEURES
10
20.191
20
34.817
0
VERTEX
8
CONTOURS_MINEURES
10
20.249
20
35.005
0
VERTEX
8
CONTOURS_MINEURES
10
20.352
20
35.353
0
VERTEX
8
CONTOURS_MINEURES
10
21.670
20
40.001
0
VERTEX
8
CONTOURS_MINEURES
10
21.926
20
43.076
0
VERTEX
8
CONTOURS_MINEURES
10
22.554
20
44.998
0
VERTEX
8
CONTOURS_MINEURES
10
23.464
20
46.538
0
VERTEX
8
CONTOURS_MINEURES
10
25.003
20
48.079
0
VERTEX
8
CONTOURS_MINEURES
10
26.565
20
50.005
0
VERTEX
8
CONTOURS_MINEURES
10
28.284
20
51.722
0
VERTEX
8
CONTOURS_MINEURES
10
30.002
20
52.664
0
VERTEX
8
CONTOURS_MINEURES
10
34.030
20
55.001
0
VERTEX
8
CONTOURS_MINEURES
10
34.455
20
55.548
0
VERTEX
8
CONTOURS_MINEURES
10
35.002
20
55.715
0
VERTEX
8
CONTOURS_MINEURES
10
36.252
20
56.250
0
VERTEX
8
CONTOURS_MINEURES
10
40.001
20
57.666
0
VERTEX
8
CONTOURS_MINEURES
10
41.298
20
58.702
0
VERTEX
8
CONTOURS_MINEURES
10
43.001
20
59.998
0
VERTEX
8
CONTOURS_MINEURES
10
45.001
20
61.591
0
VERTEX
8
CONTOURS_MINEURES
10
46.531
20
63.472
0
VERTEX
8
CONTOURS_MINEURES
10
50.000
20
64.794
0
VERTEX
8
CONTOURS_MINEURES
10
50.500
20
65.005
0
VERTEX
8
CONTOURS_MINEURES
10
52.453
20
67.551
0
VERTEX
8
CONTOURS_MINEURES
10
55.000
20
68.003
0
VERTEX
8
CONTOURS_MINEURES
10
59.354
20
69.357
0
VERTEX
8
CONTOURS_MINEURES
10
60.000
20
69.632
0
VERTEX
8
CONTOURS_MINEURES
10
60.178
20
69.823
0
VERTEX
8
CONTOURS_MINEURES
10
60.555
20
70.002
0
VERTEX
8
CONTOURS_MINEURES
10
64.999
20
73.999
0
VERTEX
8
CONTOURS_MINEURES
10
65.655
20
74.998
0
VERTEX
8
CONTOURS_MINEURES
10
64.999
20
78.632
0
VERTEX
8
CONTOURS_MINEURES
10
63.999
20
78.995
0
VERTEX
8
CONTOURS_MINEURES
10
60.000
20
77.139
0
VERTEX
8
CONTOURS_MINEURES
10
57.037
20
77.034
0
VERTEX
8
CONTOURS_MINEURES
10
55.000
20
76.097
0
VERTEX
8
CONTOURS_MINEURES
10
50.000
20
74.998
0
VERTEX
8
CONTOURS_MINEURES
10
45.001
20
74.263
0
VERTEX
8
CONTOURS_MINEURES
10
42.728
20
74.998
0
VERTEX
8
CONTOURS_MINEURES
10
40.969
20
75.965
0
VERTEX
8
CONTOURS_MINEURES
10
40.537
20
79.994
0
VERTEX
8
CONTOURS_MINEURES
10
40.001
20
82.141
0
VERTEX
8
CONTOURS_MINEURES
10
37.779
20
85.002
0
VERTEX
8
CONTOURS_MINEURES
10
35.002
20
87.084
0
VERTEX
8
CONTOURS_MINEURES
10
33.752
20
88.749
0
VERTEX
8
CONTOURS_MINEURES
10
31.502
20
89.998
0
VERTEX
8
CONTOURS_MINEURES
10
30.002
20
91.247
0
VERTEX
8
CONTOURS_MINEURES
10
27.003
20
94.995
0
VERTEX
8
CONTOURS_MINEURES
10
26.253
20
98.750
0
VERTEX
8
CONTOURS_MINEURES
10
25.580
20
100.002
0
VERTEX
8
CONTOURS_MINEURES
10
25.503
20
100.502
0
VERTEX
8
CONTOURS_MINEURES
10
25.003
20
101.876
0
VERTEX
8
CONTOURS_MINEURES
10
23.614
20
104.999
0
VERTEX
8
CONTOURS_MINEURES
10
22.920
20
107.080
0
VERTEX
8
CONTOURS_MINEURES
10
21.461
20
109.995
0
VERTEX
8
CONTOURS_MINEURES
10
20.529
20
114.475
0
VERTEX
8
CONTOURS_MINEURES
10
20.316
20
115.002
0
VERTEX
8
CONTOURS_MINEURES
10
20.003
20
115.669
0
VERTEX
8
CONTOURS_MINEURES
10
17.972
20
117.969
0
VERTEX
8
CONTOURS_MINEURES
10
17.177
20
119.999
0
VERTEX
8
CONTOURS_MINEURES
10
15.004
20
122.171
0
VERTEX
8
CONTOURS_MINEURES
10
14.148
20
124.141
0
VERTEX
8
CONTOURS_MINEURES
10
13.955
20
124.995
0
VERTEX
8
CONTOURS_MINEURES
10
13.704
20
126.297
0
VERTEX
8
CONTOURS_MINEURES
10
13.139
20
130.003
0
VERTEX
8
CONTOURS_MINEURES
10
13.139
20
131.866
0
VERTEX
8
CONTOURS_MINEURES
10
12.573
20
134.999
0
VERTEX
8
CONTOURS_MINEURES
10
13.430
20
138.423
0
VERTEX
8
CONTOURS_MINEURES
10
13.954
20
139.996
0
VERTEX
8
CONTOURS_MINEURES
10
14.245
20
140.756
0
VERTEX
8
CONTOURS_MINEURES
10
15.004
20
143.865
0
VERTEX
8
CONTOURS_MINEURES
10
15.613
20
145.003
0
VERTEX
8
CONTOURS_MINEURES
10
16.404
20
148.600
0
VERTEX
8
CONTOURS_MINEURES
10
16.895
20
149.999
0
VERTEX
8
CONTOURS_MINEURES
10
17.696
20
152.690
0
VERTEX
8
CONTOURS_MINEURES
10
18.003
20
154.996
0
VERTEX
8
CONTOURS_MINEURES
10
18.239
20
156.763
0
VERTEX
8
CONTOURS_MINEURES
10
19.403
20
160.003
0
VERTEX
8
CONTOURS_MINEURES
10
20.003
20
163.001
0
VERTEX
8
CONTOURS_MINEURES
10
20.326
20
164.677
0
VERTEX
8
CONTOURS_MINEURES
10
20.247
20
165.000
0
VERTEX
8
CONTOURS_MINEURES
10
20.124
20
165.120
0
VERTEX
8
CONTOURS_MINEURES
10
20.003
20
165.526
0
VERTEX
8
CONTOURS_MINEURES
10
18.303
20
169.996
0
SEQEND
0
POLYLINE
8
CONTOURS_MINEURES
66
1
70
0
0
VERTEX
8
CONTOURS_MINEURES
10
197.952
20
169.996
0
VERTEX
8
CONTOURS_MINEURES
10
196.998
20
166.998
0
VERTEX
8
CONTOURS_MINEURES
10
198.331
20
165.000
0
VERTEX
8
CONTOURS_MINEURES
10
199.997
20
161.252
0
VERTEX
8
CONTOURS_MINEURES
10
200.452
20
160.003
0
VERTEX
8
CONTOURS_MINEURES
10
199.997
20
154.996
0
VERTEX
8
CONTOURS_MINEURES
10
194.998
20
152.289
0
VERTEX
8
CONTOURS_MINEURES
10
192.607
20
149.999
0
VERTEX
8
CONTOURS_MINEURES
10
192.607
20
147.393
0
VERTEX
8
CONTOURS_MINEURES
10
192.798
20
145.003
0
VERTEX
8
CONTOURS_MINEURES
10
194.050
20
144.053
0
VERTEX
8
CONTOURS_MINEURES
10
194.998
20
144.315
0
VERTEX
8
CONTOURS_MINEURES
10
195.388
20
144.612
0
VERTEX
8
CONTOURS_MINEURES
10
199.997
20
145.003
0
VERTEX
8
CONTOURS_MINEURES
10
204.997
20
147.955
0
VERTEX
8
CONTOURS_MINEURES
10
208.247
20
148.251
0
VERTEX
8
CONTOURS_MINEURES
10
209.996
20
149.222
0
VERTEX
8
CONTOURS_MINEURES
10
210.511
20
149.485
0
VERTEX
8
CONTOURS_MINEURES
10
212.279
20
149.999
0
VERTEX
8
CONTOURS_MINEURES
10
214.996
20
152.838
0
VERTEX
8
CONTOURS_MINEURES
10
215.716
20
154.277
0
VERTEX
8
CONTOURS_MINEURES
10
219.746
20
154.996
0
VERTEX
8
CONTOURS_MINEURES
10
219.440
20
155.552
0
VERTEX
8
CONTOURS_MINEURES
10
218.996
20
160.003
0
VERTEX
8
CONTOURS_MINEURES
10
216.735
20
161.741
0
VERTEX
8
CONTOURS_MINEURES
10
216.871
20
165.000
0
VERTEX
8
CONTOURS_MINEURES
10
214.996
20
169.088
0
VERTEX
8
CONTOURS_MINEURES
10
214.520
20
169.520
0
VERTEX
8
CONTOURS_MINEURES
10
214.470
20
169.996
0
SEQEND
0
POLYLINE
8
CONTOURS_MINEURES
66
1
70
0
0
VERTEX
8
CONTOURS_MINEURES
10
70.624
20
79.994
0
VERTEX
8
CONTOURS_MINEURES
10
69.999
20
80.450
0
VERTEX
8
CONTOURS_MINEURES
10
67.499
20
79.994
0
VERTEX
8
CONTOURS_MINEURES
10
69.999
20
79.727
0
VERTEX
8
CONTOURS_MINEURES
10
70.624
20
79.994
0
SEQEND
0
POLYLINE
8
CONTOURS_MINEURES
66
1
70
0
0
VERTEX
8
CONTOURS_MINEURES
10
224.560
20
134.565
0
VERTEX
8
CONTOURS_MINEURES
10
219.996
20
132.144
0
VERTEX
8
CONTOURS_MINEURES
10
218.867
20
131.131
0
VERTEX
8
CONTOURS_MINEURES
10
214.996
20
131.212
0
VERTEX
8
CONTOURS_MINEURES
10
212.905
20
130.003
0
VERTEX
8
CONTOURS_MINEURES
10
209.996
20
127.777
0
VERTEX
8
CONTOURS_MINEURES
10
208.055
20
126.940
0
VERTEX
8
CONTOURS_MINEURES
10
204.997
20
126.498
0
VERTEX
8
CONTOURS_MINEURES
10
203.890
20
126.104
0
VERTEX
8
CONTOURS_MINEURES
10
199.997
20
125.198
0
VERTEX
8
CONTOURS_MINEURES
10
199.670
20
124.995
0
VERTEX
8
CONTOURS_MINEURES
10
197.998
20
121.997
0
VERTEX
8
CONTOURS_MINEURES
10
194.998
20
121.684
0
VERTEX
8
CONTOURS_MINEURES
10
191.626
20
119.999
0
VERTEX
8
CONTOURS_MINEURES
10
194.998
20
115.974
0
VERTEX
8
CONTOURS_MINEURES
10
195.776
20
115.780
0
VERTEX
8
CONTOURS_MINEURES
10
196.942
20
115.002
0
VERTEX
8
CONTOURS_MINEURES
10
199.997
20
113.691
0
VERTEX
8
CONTOURS_MINEURES
10
203.295
20
113.298
0
VERTEX
8
CONTOURS_MINEURES
10
204.997
20
112.713
0
VERTEX
8
CONTOURS_MINEURES
10
208.074
20
111.921
0
VERTEX
8
CONTOURS_MINEURES
10
209.996
20
111.921
0
VERTEX
8
CONTOURS_MINEURES
10
213.330
20
109.995
0
VERTEX
8
CONTOURS_MINEURES
10
214.441
20
109.440
0
VERTEX
8
CONTOURS_MINEURES
10
214.996
20
109.354
0
VERTEX
8
CONTOURS_MINEURES
10
215.506
20
109.485
0
VERTEX
8
CONTOURS_MINEURES
10
216.919
20
109.995
0
VERTEX
8
CONTOURS_MINEURES
10
219.996
20
113.333
0
VERTEX
8
CONTOURS_MINEURES
10
220.551
20
114.446
0
VERTEX
8
CONTOURS_MINEURES
10
220.736
20
115.002
0
VERTEX
8
CONTOURS_MINEURES
10
221.424
20
116.430
0
VERTEX
8
CONTOURS_MINEURES
10
222.218
20
119.999
0
VERTEX
8
CONTOURS_MINEURES
10
223.329
20
123.330
0
VERTEX
8
CONTOURS_MINEURES
10
223.819
20
124.995
0
VERTEX
8
CONTOURS_MINEURES
10
224.195
20
125.797
0
VERTEX
8
CONTOURS_MINEURES
10
224.560
20
130.003
0
VERTEX
8
CONTOURS_MINEURES
10
224.560
20
134.565
0
SEQEND
0
POLYLINE
8
CONTOURS_MAJEURES
66
1
70
0
0
VERTEX
8
CONTOURS_MAJEURES
10
187.770
20
-0.003
0
VERTEX
8
CONTOURS_MAJEURES
10
189.400
20
0.596
0
VERTEX
8
CONTOURS_MAJEURES
10
189.998
20
0.862
0
VERTEX
8
CONTOURS_MAJEURES
10
190.910
20
0.909
0
VERTEX
8
CONTOURS_MAJEURES
10
194.998
20
1.008
0
VERTEX
8
CONTOURS_MAJEURES
10
195.831
20
0.831
0
VERTEX
8
CONTOURS_MAJEURES
10
199.997
20
0.491
0
VERTEX
8
CONTOURS_MAJEURES
10
204.180
20
0.815
0
VERTEX
8
CONTOURS_MAJEURES
10
204.997
20
0.777
0
VERTEX
8
CONTOURS_MAJEURES
10
209.602
20
0.391
0
VERTEX
8
CONTOURS_MAJEURES
10
209.996
20
0.380
0
VERTEX
8
CONTOURS_MAJEURES
10
210.363
20
0.364
0
VERTEX
8
CONTOURS_MAJEURES
10
212.496
20
-0.003
0
SEQEND
0
POLYLINE
8
CONTOURS_MAJEURES
66
1
70
0
0
VERTEX
8
CONTOURS_MAJEURES
10
245.937
20
-0.003
0
VERTEX
8
CONTOURS_MAJEURES
10
250.004
20
1.391
0
VERTEX
8
CONTOURS_MAJEURES
10
252.962
20
2.041
0
VERTEX
8
CONTOURS_MAJEURES
10
255.003
20
2.370
0
VERTEX
8
CONTOURS_MAJEURES
10
259.363
20
4.363
0
VERTEX
8
CONTOURS_MAJEURES
10
260.003
20
4.436
0
VERTEX
8
CONTOURS_MAJEURES
10
260.632
20
4.373
0
VERTEX
8
CONTOURS_MAJEURES
10
261.431
20
5.004
0
VERTEX
8
CONTOURS_MAJEURES
10
265.002
20
6.757
0
VERTEX
8
CONTOURS_MAJEURES
10
268.492
20
6.512
0
VERTEX
8
CONTOURS_MAJEURES
10
270.002
20
6.636
0
SEQEND
0
POLYLINE
8
CONTOURS_MAJEURES
66
1
70
0
0
VERTEX
8
CONTOURS_MAJEURES
10
129.749
20
-0.003
0
VERTEX
8
CONTOURS_MAJEURES
10
130.004
20
0.241
0
VERTEX
8
CONTOURS_MAJEURES
10
134.306
20
0.695
0
VERTEX
8
CONTOURS_MAJEURES
10
135.003
20
0.771
0
VERTEX
8
CONTOURS_MAJEURES
10
135.872
20
0.867
0
VERTEX
8
CONTOURS_MAJEURES
10
140.003
20
1.035
0
VERTEX
8
CONTOURS_MAJEURES
10
143.982
20
1.019
0
VERTEX
8
CONTOURS_MAJEURES
10
145.002
20
1.053
0
VERTEX
8
CONTOURS_MAJEURES
10
146.057
20
1.053
0
VERTEX
8
CONTOURS_MAJEURES
10
150.002
20
1.002
0
VERTEX
8
CONTOURS_MAJEURES
10
151.426
20
1.423
0
VERTEX
8
CONTOURS_MAJEURES
10
155.002
20
2.256
0
VERTEX
8
CONTOURS_MAJEURES
10
156.609
20
3.394
0
VERTEX
8
CONTOURS_MAJEURES
10
158.735
20
5.004
0
VERTEX
8
CONTOURS_MAJEURES
10
160.001
20
5.851
0
VERTEX
8
CONTOURS_MAJEURES
10
162.600
20
7.403
0
VERTEX
8
CONTOURS_MAJEURES
10
165.001
20
8.166
0
VERTEX
8
CONTOURS_MAJEURES
10
169.646
20
10.001
0
VERTEX
8
CONTOURS_MAJEURES
10
169.904
20
10.097
0
VERTEX
8
CONTOURS_MAJEURES
10
170.000
20
10.138
0
VERTEX
8
CONTOURS_MAJEURES
10
173.349
20
11.650
0
VERTEX
8
CONTOURS_MAJEURES
10
175.000
20
12.517
0
VERTEX
8
CONTOURS_MAJEURES
10
179.211
20
14.210
0
VERTEX
8
CONTOURS_MAJEURES
10
179.999
20
14.519
0
VERTEX
8
CONTOURS_MAJEURES
10
180.266
20
14.730
0
VERTEX
8
CONTOURS_MAJEURES
10
180.593
20
14.997
0
VERTEX
8
CONTOURS_MAJEURES
10
183.021
20
16.977
0
VERTEX
8
CONTOURS_MAJEURES
10
184.999
20
18.550
0
VERTEX
8
CONTOURS_MAJEURES
10
186.178
20
18.824
0
VERTEX
8
CONTOURS_MAJEURES
10
189.998
20
19.228
0
VERTEX
8
CONTOURS_MAJEURES
10
193.877
20
18.882
0
VERTEX
8
CONTOURS_MAJEURES
10
194.998
20
18.817
0
VERTEX
8
CONTOURS_MAJEURES
10
196.329
20
18.672
0
VERTEX
8
CONTOURS_MAJEURES
10
199.997
20
18.324
0
VERTEX
8
CONTOURS_MAJEURES
10
201.986
20
18.013
0
VERTEX
8
CONTOURS_MAJEURES
10
204.997
20
17.636
0
VERTEX
8
CONTOURS_MAJEURES
10
207.311
20
17.315
0
VERTEX
8
CONTOURS_MAJEURES
10
209.996
20
16.973
0
VERTEX
8
CONTOURS_MAJEURES
10
211.727
20
16.730
0
VERTEX
8
CONTOURS_MAJEURES
10
214.996
20
16.343
0
VERTEX
8
CONTOURS_MAJEURES
10
218.788
20
16.206
0
VERTEX
8
CONTOURS_MAJEURES
10
219.996
20
16.061
0
VERTEX
8
CONTOURS_MAJEURES
10
223.731
20
16.263
0
VERTEX
8
CONTOURS_MAJEURES
10
224.995
20
16.245
0
VERTEX
8
CONTOURS_MAJEURES
10
228.799
20
16.203
0
VERTEX
8
CONTOURS_MAJEURES
10
230.005
20
16.220
0
VERTEX
8
CONTOURS_MAJEURES
10
231.266
20
16.260
0
VERTEX
8
CONTOURS_MAJEURES
10
235.005
20
16.238
0
VERTEX
8
CONTOURS_MAJEURES
10
238.554
20
16.450
0
VERTEX
8
CONTOURS_MAJEURES
10
240.004
20
16.579
0
VERTEX
8
CONTOURS_MAJEURES
10
241.727
20
16.722
0
VERTEX
8
CONTOURS_MAJEURES
10
245.004
20
16.928
0
VERTEX
8
CONTOURS_MAJEURES
10
247.436
20
17.569
0
VERTEX
8
CONTOURS_MAJEURES
10
250.004
20
18.418
0
VERTEX
8
CONTOURS_MAJEURES
10
251.234
20
18.772
0
VERTEX
8
CONTOURS_MAJEURES
10
254.952
20
20.004
0
VERTEX
8
CONTOURS_MAJEURES
10
255.003
20
20.023
0
VERTEX
8
CONTOURS_MAJEURES
10
257.849
20
22.156
0
VERTEX
8
CONTOURS_MAJEURES
10
260.003
20
23.886
0
VERTEX
8
CONTOURS_MAJEURES
10
260.879
20
25.001
0
VERTEX
8
CONTOURS_MAJEURES
10
261.828
20
28.173
0
VERTEX
8
CONTOURS_MAJEURES
10
263.168
20
29.997
0
VERTEX
8
CONTOURS_MAJEURES
10
263.460
20
31.542
0
VERTEX
8
CONTOURS_MAJEURES
10
264.978
20
35.005
0
VERTEX
8
CONTOURS_MAJEURES
10
264.989
20
35.018
0
VERTEX
8
CONTOURS_MAJEURES
10
265.002
20
35.030
0
VERTEX
8
CONTOURS_MAJEURES
10
265.202
20
35.205
0
VERTEX
8
CONTOURS_MAJEURES
10
270.002
20
39.471
0
SEQEND
0
POLYLINE
8
CONTOURS_MAJEURES
66
1
70
0
0
VERTEX
8
CONTOURS_MAJEURES
10
96.779
20
-0.003
0
VERTEX
8
CONTOURS_MAJEURES
10
98.742
20
1.253
0
VERTEX
8
CONTOURS_MAJEURES
10
99.996
20
2.044
0
VERTEX
8
CONTOURS_MAJEURES
10
104.688
20
5.004
0
VERTEX
8
CONTOURS_MAJEURES
10
104.874
20
5.125
0
VERTEX
8
CONTOURS_MAJEURES
10
104.995
20
5.203
0
VERTEX
8
CONTOURS_MAJEURES
10
107.909
20
7.089
0
VERTEX
8
CONTOURS_MAJEURES
10
109.995
20
8.420
0
VERTEX
8
CONTOURS_MAJEURES
10
112.456
20
10.001
0
VERTEX
8
CONTOURS_MAJEURES
10
113.996
20
11.007
0
VERTEX
8
CONTOURS_MAJEURES
10
115.005
20
11.736
0
VERTEX
8
CONTOURS_MAJEURES
10
118.816
20
14.997
0
VERTEX
8
CONTOURS_MAJEURES
10
119.462
20
15.541
0
VERTEX
8
CONTOURS_MAJEURES
10
120.005
20
15.884
0
VERTEX
8
CONTOURS_MAJEURES
10
121.624
20
16.618
0
VERTEX
8
CONTOURS_MAJEURES
10
125.004
20
18.358
0
VERTEX
8
CONTOURS_MAJEURES
10
129.077
20
19.076
0
VERTEX
8
CONTOURS_MAJEURES
10
130.004
20
19.260
0
VERTEX
8
CONTOURS_MAJEURES
10
130.651
20
19.356
0
VERTEX
8
CONTOURS_MAJEURES
10
135.003
20
19.648
0
VERTEX
8
CONTOURS_MAJEURES
10
139.253
20
20.004
0
VERTEX
8
CONTOURS_MAJEURES
10
140.003
20
20.066
0
VERTEX
8
CONTOURS_MAJEURES
10
144.431
20
20.576
0
VERTEX
8
CONTOURS_MAJEURES
10
145.002
20
20.614
0
VERTEX
8
CONTOURS_MAJEURES
10
145.707
20
20.708
0
VERTEX
8
CONTOURS_MAJEURES
10
150.002
20
21.410
0
VERTEX
8
CONTOURS_MAJEURES
10
152.814
20
22.190
0
VERTEX
8
CONTOURS_MAJEURES
10
155.002
20
22.978
0
VERTEX
8
CONTOURS_MAJEURES
10
159.713
20
24.713
0
VERTEX
8
CONTOURS_MAJEURES
10
160.001
20
24.806
0
VERTEX
8
CONTOURS_MAJEURES
10
160.146
20
24.856
0
VERTEX
8
CONTOURS_MAJEURES
10
160.530
20
25.001
0
VERTEX
8
CONTOURS_MAJEURES
10
165.001
20
26.948
0
VERTEX
8
CONTOURS_MAJEURES
10
169.176
20
29.174
0
VERTEX
8
CONTOURS_MAJEURES
10
170.000
20
29.628
0
VERTEX
8
CONTOURS_MAJEURES
10
170.682
20
29.997
0
VERTEX
8
CONTOURS_MAJEURES
10
173.390
20
31.610
0
VERTEX
8
CONTOURS_MAJEURES
10
175.000
20
32.583
0
VERTEX
8
CONTOURS_MAJEURES
10
179.540
20
35.005
0
VERTEX
8
CONTOURS_MAJEURES
10
179.827
20
35.176
0
VERTEX
8
CONTOURS_MAJEURES
10
179.999
20
35.260
0
VERTEX
8
CONTOURS_MAJEURES
10
180.368
20
35.373
0
VERTEX
8
CONTOURS_MAJEURES
10
184.999
20
37.338
0
VERTEX
8
CONTOURS_MAJEURES
10
187.114
20
37.119
0
VERTEX
8
CONTOURS_MAJEURES
10
189.998
20
37.056
0
VERTEX
8
CONTOURS_MAJEURES
10
193.228
20
36.774
0
VERTEX
8
CONTOURS_MAJEURES
10
194.998
20
36.619
0
VERTEX
8
CONTOURS_MAJEURES
10
196.502
20
36.508
0
VERTEX
8
CONTOURS_MAJEURES
10
199.997
20
36.147
0
VERTEX
8
CONTOURS_MAJEURES
10
204.430
20
35.571
0
VERTEX
8
CONTOURS_MAJEURES
10
204.997
20
35.465
0
VERTEX
8
CONTOURS_MAJEURES
10
205.398
20
35.406
0
VERTEX
8
CONTOURS_MAJEURES
10
207.891
20
35.005
0
VERTEX
8
CONTOURS_MAJEURES
10
209.705
20
34.712
0
VERTEX
8
CONTOURS_MAJEURES
10
209.996
20
34.678
0
VERTEX
8
CONTOURS_MAJEURES
10
214.301
20
34.308
0
VERTEX
8
CONTOURS_MAJEURES
10
214.996
20
34.233
0
VERTEX
8
CONTOURS_MAJEURES
10
215.800
20
34.199
0
VERTEX
8
CONTOURS_MAJEURES
10
219.996
20
34.041
0
VERTEX
8
CONTOURS_MAJEURES
10
223.950
20
33.958
0
VERTEX
8
CONTOURS_MAJEURES
10
224.995
20
33.949
0
VERTEX
8
CONTOURS_MAJEURES
10
229.102
20
34.102
0
VERTEX
8
CONTOURS_MAJEURES
10
230.005
20
34.136
0
VERTEX
8
CONTOURS_MAJEURES
10
230.795
20
34.214
0
VERTEX
8
CONTOURS_MAJEURES
10
234.570
20
35.005
0
VERTEX
8
CONTOURS_MAJEURES
10
235.005
20
35.100
0
VERTEX
8
CONTOURS_MAJEURES
10
235.252
20
35.251
0
VERTEX
8
CONTOURS_MAJEURES
10
240.004
20
37.976
0
VERTEX
8
CONTOURS_MAJEURES
10
241.425
20
38.581
0
VERTEX
8
CONTOURS_MAJEURES
10
243.012
20
40.001
0
VERTEX
8
CONTOURS_MAJEURES
10
245.004
20
41.536
0
VERTEX
8
CONTOURS_MAJEURES
10
248.406
20
44.998
0
VERTEX
8
CONTOURS_MAJEURES
10
250.004
20
46.500
0
VERTEX
8
CONTOURS_MAJEURES
10
251.814
20
48.192
0
VERTEX
8
CONTOURS_MAJEURES
10
254.016
20
50.005
0
VERTEX
8
CONTOURS_MAJEURES
10
254.513
20
50.495
0
VERTEX
8
CONTOURS_MAJEURES
10
255.003
20
50.979
0
VERTEX
8
CONTOURS_MAJEURES
10
259.105
20
55.001
0
VERTEX
8
CONTOURS_MAJEURES
10
259.557
20
55.447
0
VERTEX
8
CONTOURS_MAJEURES
10
260.003
20
55.887
0
VERTEX
8
CONTOURS_MAJEURES
10
262.066
20
57.936
0
VERTEX
8
CONTOURS_MAJEURES
10
264.223
20
59.998
0
VERTEX
8
CONTOURS_MAJEURES
10
265.002
20
60.658
0
VERTEX
8
CONTOURS_MAJEURES
10
267.433
20
62.571
0
VERTEX
8
CONTOURS_MAJEURES
10
270.002
20
64.077
0
SEQEND
0
POLYLINE
8
CONTOURS_MAJEURES
66
1
70
0
0
VERTEX
8
CONTOURS_MAJEURES
10
65.773
20
-0.003
0
VERTEX
8
CONTOURS_MAJEURES
10
66.178
20
1.178
0
VERTEX
8
CONTOURS_MAJEURES
10
67.031
20
5.004
0
VERTEX
8
CONTOURS_MAJEURES
10
68.952
20
8.955
0
VERTEX
8
CONTOURS_MAJEURES
10
69.261
20
10.001
0
VERTEX
8
CONTOURS_MAJEURES
10
69.999
20
11.238
0
VERTEX
8
CONTOURS_MAJEURES
10
71.829
20
13.168
0
VERTEX
8
CONTOURS_MAJEURES
10
74.455
20
14.997
0
VERTEX
8
CONTOURS_MAJEURES
10
74.998
20
15.560
0
VERTEX
8
CONTOURS_MAJEURES
10
76.983
20
18.017
0
VERTEX
8
CONTOURS_MAJEURES
10
79.591
20
20.004
0
VERTEX
8
CONTOURS_MAJEURES
10
79.998
20
20.393
0
VERTEX
8
CONTOURS_MAJEURES
10
82.253
20
22.747
0
VERTEX
8
CONTOURS_MAJEURES
10
84.997
20
24.318
0
VERTEX
8
CONTOURS_MAJEURES
10
85.906
20
25.001
0
VERTEX
8
CONTOURS_MAJEURES
10
87.644
20
27.352
0
VERTEX
8
CONTOURS_MAJEURES
10
89.997
20
28.869
0
VERTEX
8
CONTOURS_MAJEURES
10
90.567
20
29.427
0
VERTEX
8
CONTOURS_MAJEURES
10
91.435
20
29.997
0
VERTEX
8
CONTOURS_MAJEURES
10
92.917
20
32.080
0
VERTEX
8
CONTOURS_MAJEURES
10
94.996
20
33.717
0
VERTEX
8
CONTOURS_MAJEURES
10
95.559
20
34.441
0
VERTEX
8
CONTOURS_MAJEURES
10
96.448
20
35.005
0
VERTEX
8
CONTOURS_MAJEURES
10
99.996
20
38.731
0
VERTEX
8
CONTOURS_MAJEURES
10
100.539
20
39.458
0
VERTEX
8
CONTOURS_MAJEURES
10
101.526
20
40.001
0
VERTEX
8
CONTOURS_MAJEURES
10
104.995
20
42.575
0
VERTEX
8
CONTOURS_MAJEURES
10
106.122
20
43.872
0
VERTEX
8
CONTOURS_MAJEURES
10
108.897
20
44.998
0
VERTEX
8
CONTOURS_MAJEURES
10
109.995
20
45.540
0
VERTEX
8
CONTOURS_MAJEURES
10
111.404
20
46.406
0
VERTEX
8
CONTOURS_MAJEURES
10
115.005
20
48.405
0
VERTEX
8
CONTOURS_MAJEURES
10
116.167
20
48.842
0
VERTEX
8
CONTOURS_MAJEURES
10
120.005
20
50.005
0
VERTEX
8
CONTOURS_MAJEURES
10
125.004
20
50.734
0
VERTEX
8
CONTOURS_MAJEURES
10
126.606
20
53.401
0
VERTEX
8
CONTOURS_MAJEURES
10
128.665
20
55.001
0
VERTEX
8
CONTOURS_MAJEURES
10
130.004
20
56.001
0
VERTEX
8
CONTOURS_MAJEURES
10
133.264
20
56.739
0
VERTEX
8
CONTOURS_MAJEURES
10
135.003
20
56.928
0
VERTEX
8
CONTOURS_MAJEURES
10
138.039
20
56.964
0
VERTEX
8
CONTOURS_MAJEURES
10
140.003
20
57.037
0
VERTEX
8
CONTOURS_MAJEURES
10
142.360
20
57.357
0
VERTEX
8
CONTOURS_MAJEURES
10
145.002
20
57.848
0
VERTEX
8
CONTOURS_MAJEURES
10
148.027
20
58.024
0
VERTEX
8
CONTOURS_MAJEURES
10
150.002
20
58.460
0
VERTEX
8
CONTOURS_MAJEURES
10
154.850
20
59.998
0
VERTEX
8
CONTOURS_MAJEURES
10
154.947
20
60.053
0
VERTEX
8
CONTOURS_MAJEURES
10
155.002
20
60.055
0
VERTEX
8
CONTOURS_MAJEURES
10
155.075
20
60.071
0
VERTEX
8
CONTOURS_MAJEURES
10
160.001
20
61.983
0
VERTEX
8
CONTOURS_MAJEURES
10
162.344
20
62.659
0
VERTEX
8
CONTOURS_MAJEURES
10
165.001
20
62.859
0
VERTEX
8
CONTOURS_MAJEURES
10
168.194
20
63.196
0
VERTEX
8
CONTOURS_MAJEURES
10
170.000
20
63.500
0
VERTEX
8
CONTOURS_MAJEURES
10
173.649
20
63.653
0
VERTEX
8
CONTOURS_MAJEURES
10
175.000
20
63.770
0
VERTEX
8
CONTOURS_MAJEURES
10
176.209
20
63.794
0
VERTEX
8
CONTOURS_MAJEURES
10
179.999
20
64.207
0
VERTEX
8
CONTOURS_MAJEURES
10
184.999
20
65.005
0
VERTEX
8
CONTOURS_MAJEURES
10
189.998
20
64.634
0
VERTEX
8
CONTOURS_MAJEURES
10
190.648
20
64.355
0
VERTEX
8
CONTOURS_MAJEURES
10
194.998
20
62.794
0
VERTEX
8
CONTOURS_MAJEURES
10
197.091
20
62.095
0
VERTEX
8
CONTOURS_MAJEURES
10
199.997
20
60.693
0
VERTEX
8
CONTOURS_MAJEURES
10
201.741
20
59.998
0
VERTEX
8
CONTOURS_MAJEURES
10
204.997
20
59.112
0
VERTEX
8
CONTOURS_MAJEURES
10
208.382
20
58.384
0
VERTEX
8
CONTOURS_MAJEURES
10
209.996
20
57.905
0
VERTEX
8
CONTOURS_MAJEURES
10
212.259
20
57.737
0
VERTEX
8
CONTOURS_MAJEURES
10
214.996
20
57.467
0
VERTEX
8
CONTOURS_MAJEURES
10
218.020
20
58.023
0
VERTEX
8
CONTOURS_MAJEURES
10
219.996
20
58.514
0
VERTEX
8
CONTOURS_MAJEURES
10
221.130
20
58.864
0
VERTEX
8
CONTOURS_MAJEURES
10
224.995
20
59.910
0
VERTEX
8
CONTOURS_MAJEURES
10
225.254
20
59.998
0
VERTEX
8
CONTOURS_MAJEURES
10
228.668
20
61.335
0
VERTEX
8
CONTOURS_MAJEURES
10
230.005
20
61.752
0
VERTEX
8
CONTOURS_MAJEURES
10
233.130
20
63.127
0
VERTEX
8
CONTOURS_MAJEURES
10
235.005
20
63.925
0
VERTEX
8
CONTOURS_MAJEURES
10
235.689
20
65.005
0
VERTEX
8
CONTOURS_MAJEURES
10
236.209
20
66.209
0
VERTEX
8
CONTOURS_MAJEURES
10
238.057
20
70.002
0
VERTEX
8
CONTOURS_MAJEURES
10
240.004
20
74.950
0
VERTEX
8
CONTOURS_MAJEURES
10
240.027
20
74.975
0
VERTEX
8
CONTOURS_MAJEURES
10
240.048
20
74.998
0
VERTEX
8
CONTOURS_MAJEURES
10
245.004
20
79.825
0
VERTEX
8
CONTOURS_MAJEURES
10
245.093
20
79.906
0
VERTEX
8
CONTOURS_MAJEURES
10
245.224
20
79.994
0
VERTEX
8
CONTOURS_MAJEURES
10
248.087
20
81.914
0
VERTEX
8
CONTOURS_MAJEURES
10
250.004
20
83.151
0
VERTEX
8
CONTOURS_MAJEURES
10
252.343
20
85.002
0
VERTEX
8
CONTOURS_MAJEURES
10
255.003
20
86.095
0
VERTEX
8
CONTOURS_MAJEURES
10
257.741
20
87.262
0
VERTEX
8
CONTOURS_MAJEURES
10
260.003
20
88.301
0
VERTEX
8
CONTOURS_MAJEURES
10
263.669
20
89.998
0
VERTEX
8
CONTOURS_MAJEURES
10
264.327
20
90.673
0
VERTEX
8
CONTOURS_MAJEURES
10
265.002
20
91.320
0
VERTEX
8
CONTOURS_MAJEURES
10
268.478
20
94.995
0
VERTEX
8
CONTOURS_MAJEURES
10
270.002
20
97.910
0
SEQEND
0
POLYLINE
8
CONTOURS_MAJEURES
66
1
70
0
0
VERTEX
8
CONTOURS_MAJEURES
10
124.004
20
169.996
0
VERTEX
8
CONTOURS_MAJEURES
10
120.362
20
165.357
0
VERTEX
8
CONTOURS_MAJEURES
10
120.075
20
165.000
0
VERTEX
8
CONTOURS_MAJEURES
10
120.050
20
164.955
0
VERTEX
8
CONTOURS_MAJEURES
10
120.005
20
164.907
0
VERTEX
8
CONTOURS_MAJEURES
10
116.050
20
160.003
0
VERTEX
8
CONTOURS_MAJEURES
10
115.539
20
159.468
0
VERTEX
8
CONTOURS_MAJEURES
10
115.005
20
159.030
0
VERTEX
8
CONTOURS_MAJEURES
10
110.393
20
154.996
0
VERTEX
8
CONTOURS_MAJEURES
10
109.995
20
154.671
0
VERTEX
8
CONTOURS_MAJEURES
10
109.069
20
154.071
0
VERTEX
8
CONTOURS_MAJEURES
10
104.995
20
151.249
0
VERTEX
8
CONTOURS_MAJEURES
10
104.232
20
150.763
0
VERTEX
8
CONTOURS_MAJEURES
10
101.662
20
149.999
0
VERTEX
8
CONTOURS_MAJEURES
10
100.436
20
149.560
0
VERTEX
8
CONTOURS_MAJEURES
10
99.996
20
149.455
0
VERTEX
8
CONTOURS_MAJEURES
10
96.014
20
148.982
0
VERTEX
8
CONTOURS_MAJEURES
10
94.996
20
149.073
0
VERTEX
8
CONTOURS_MAJEURES
10
94.381
20
149.385
0
VERTEX
8
CONTOURS_MAJEURES
10
91.163
20
149.999
0
VERTEX
8
CONTOURS_MAJEURES
10
89.997
20
150.206
0
VERTEX
8
CONTOURS_MAJEURES
10
85.843
20
150.845
0
VERTEX
8
CONTOURS_MAJEURES
10
84.997
20
150.999
0
VERTEX
8
CONTOURS_MAJEURES
10
83.426
20
151.570
0
VERTEX
8
CONTOURS_MAJEURES
10
79.998
20
152.842
0
VERTEX
8
CONTOURS_MAJEURES
10
78.180
20
153.179
0
VERTEX
8
CONTOURS_MAJEURES
10
74.998
20
154.169
0
VERTEX
8
CONTOURS_MAJEURES
10
74.181
20
154.179
0
VERTEX
8
CONTOURS_MAJEURES
10
71.709
20
154.996
0
VERTEX
8
CONTOURS_MAJEURES
10
70.421
20
155.419
0
VERTEX
8
CONTOURS_MAJEURES
10
69.999
20
155.667
0
VERTEX
8
CONTOURS_MAJEURES
10
67.716
20
157.717
0
VERTEX
8
CONTOURS_MAJEURES
10
66.528
20
160.003
0
VERTEX
8
CONTOURS_MAJEURES
10
65.961
20
164.039
0
VERTEX
8
CONTOURS_MAJEURES
10
65.636
20
165.000
0
VERTEX
8
CONTOURS_MAJEURES
10
65.502
20
165.502
0
VERTEX
8
CONTOURS_MAJEURES
10
65.362
20
169.996
0
SEQEND
0
POLYLINE
8
PARCELLE
66
1
70
1
0
VERTEX
8
PARCELLE
10
20.000
20
52.048
0
VERTEX
8
PARCELLE
10
26.042
20
54.986
0
VERTEX
8
PARCELLE
10
54.093
20
66.975
0
VERTEX
8
PARCELLE
10
119.776
20
94.871
0
VERTEX
8
PARCELLE
10
130.022
20
99.572
0
VERTEX
8
PARCELLE
10
137.536
20
102.788
0
VERTEX
8
PARCELLE
10
166.209
20
114.862
0
VERTEX
8
PARCELLE
10
173.524
20
118.178
0
VERTEX
8
PARCELLE
10
182.342
20
121.743
0
VERTEX
8
PARCELLE
10
209.173
20
132.563
0
VERTEX
8
PARCELLE
10
235.699
20
143.666
0
VERTEX
8
PARCELLE
10
245.070
20
147.835
0
VERTEX
8
PARCELLE
10
249.487
20
150.097
0
VERTEX
8
PARCELLE
10
250.212
20
150.659
0
VERTEX
8
PARCELLE
10
250.492
20
150.597
0
VERTEX
8
PARCELLE
10
250.655
20
149.917
0
VERTEX
8
PARCELLE
10
249.856
20
143.789
0
VERTEX
8
PARCELLE
10
247.939
20
135.604
0
VERTEX
8
PARCELLE
10
245.139
20
126.836
0
VERTEX
8
PARCELLE
10
241.084
20
116.280
0
VERTEX
8
PARCELLE
10
237.871
20
109.743
0
VERTEX
8
PARCELLE
10
233.220
20
102.228
0
VERTEX
8
PARCELLE
10
228.163
20
95.038
0
VERTEX
8
PARCELLE
10
225.046
20
91.686
0
VERTEX
8
PARCELLE
10
221.108
20
88.083
0
VERTEX
8
PARCELLE
10
219.125
20
86.490
0
VERTEX
8
PARCELLE
10
217.297
20
85.306
0
VERTEX
8
PARCELLE
10
212.698
20
82.856
0
VERTEX
8
PARCELLE
10
209.838
20
81.621
0
VERTEX
8
PARCELLE
10
203.845
20
79.902
0
VERTEX
8
PARCELLE
10
171.549
20
73.402
0
VERTEX
8
PARCELLE
10
154.496
20
68.796
0
VERTEX
8
PARCELLE
10
142.196
20
64.909
0
VERTEX
8
PARCELLE
10
134.096
20
62.038
0
VERTEX
8
PARCELLE
10
126.081
20
58.857
0
VERTEX
8
PARCELLE
10
117.451
20
55.011
0
VERTEX
8
PARCELLE
10
106.658
20
49.325
0
VERTEX
8
PARCELLE
10
102.693
20
47.300
0
VERTEX
8
PARCELLE
10
85.936
20
37.556
0
VERTEX
8
PARCELLE
10
70.276
20
27.285
0
VERTEX
8
PARCELLE
10
60.749
20
20.000
0
VERTEX
8
PARCELLE
10
38.965
20
37.280
0
VERTEX
8
PARCELLE
10
20.000
20
52.048
0
SEQEND
0
TEXT
8
POINTS_COTES
10
0.005
20
-0.003
40
1.0
1
108.3
0
TEXT
8
POINTS_COTES
10
204.997
20
5.004
40
1.0
1
72.2
0
TEXT
8
POINTS_COTES
10
135.003
20
14.997
40
1.0
1
87.8
0
TEXT
8
POINTS_COTES
10
64.999
20
25.001
40
1.0
1
103.8
0
TEXT
8
POINTS_COTES
10
270.002
20
29.997
40
1.0
1
76.2
0
TEXT
8
POINTS_COTES
10
199.997
20
40.001
40
1.0
1
91.7
0
TEXT
8
POINTS_COTES
10
130.004
20
50.005
40
1.0
1
99.1
0
TEXT
8
POINTS_COTES
10
60.000
20
59.998
40
1.0
1
106.6
0
TEXT
8
POINTS_COTES
10
265.002
20
65.005
40
1.0
1
91.6
0
TEXT
8
POINTS_COTES
10
194.998
20
74.998
40
1.0
1
102.3
0
TEXT
8
POINTS_COTES
10
125.004
20
85.002
40
1.0
1
104.3
0
TEXT
8
POINTS_COTES
10
55.000
20
94.995
40
1.0
1
106.7
0
TEXT
8
POINTS_COTES
10
260.003
20
100.002
40
1.0
1
102.9
0
TEXT
8
POINTS_COTES
10
189.998
20
109.995
40
1.0
1
107.5
0
TEXT
8
POINTS_COTES
10
120.005
20
119.999
40
1.0
1
104.2
0
TEXT
8
POINTS_COTES
10
50.000
20
130.003
40
1.0
1
105.2
0
TEXT
8
POINTS_COTES
10
255.003
20
134.999
40
1.0
1
104.2
0
TEXT
8
POINTS_COTES
10
184.999
20
145.003
40
1.0
1
107.6
0
TEXT
8
POINTS_COTES
10
115.005
20
154.996
40
1.0
1
100.6
0
TEXT
8
POINTS_COTES
10
45.001
20
165.000
40
1.0
1
105.1
0
TEXT
8
POINTS_COTES
10
250.004
20
169.996
40
1.0
1
105.8
0
ENDSEC
0
EOF
