0
SECTION
2
HEADER
0
ENDSEC
0
SECTION
2
TABLES
0
TABLE
2
LAYER
70
4
0
LAYER
2
CONTOURS_MINEURES
70
0
62
8
6
CONTINUOUS
0
LAYER
2
CONTOURS_MAJEURES
70
0
62
3
6
CONTINUOUS
0
LAYER
2
PARCELLE
70
0
62
4
6
CONTINUOUS
0
LAYER
2
POINTS_COTES
70
0
62
7
6
CONTINUOUS
0
ENDTAB
0
ENDSEC
0
SECTION
2
ENTITIES
0
POLYLINE
8
CONTOURS_MINEURES
66
1
70
0
0
VERTEX
8
CONTOURS_MINEURES
10
-0.001
20
23.958
0
VERTEX
8
CONTOURS_MINEURES
10
0.037
20
23.968
0
VERTEX
8
CONTOURS_MINEURES
10
0.052
20
24.005
0
VERTEX
8
CONTOURS_MINEURES
10
0.500
20
24.504
0
VERTEX
8
CONTOURS_MINEURES
10
2.864
20
27.000
0
VERTEX
8
CONTOURS_MINEURES
10
2.864
20
27.140
0
VERTEX
8
CONTOURS_MINEURES
10
2.864
20
29.996
0
VERTEX
8
CONTOURS_MINEURES
10
3.004
20
30.219
0
VERTEX
8
CONTOURS_MINEURES
10
3.911
20
30.907
0
VERTEX
8
CONTOURS_MINEURES
10
5.997
20
30.698
0
VERTEX
8
CONTOURS_MINEURES
10
8.300
20
30.698
0
VERTEX
8
CONTOURS_MINEURES
10
9.001
20
30.698
0
VERTEX
8
CONTOURS_MINEURES
10
9.439
20
30.435
0
VERTEX
8
CONTOURS_MINEURES
10
9.278
20
29.996
0
VERTEX
8
CONTOURS_MINEURES
10
9.278
20
27.276
0
VERTEX
8
CONTOURS_MINEURES
10
9.278
20
27.000
0
VERTEX
8
CONTOURS_MINEURES
10
9.168
20
26.834
0
VERTEX
8
CONTOURS_MINEURES
10
9.415
20
24.005
0
VERTEX
8
CONTOURS_MINEURES
10
9.122
20
21.119
0
VERTEX
8
CONTOURS_MINEURES
10
9.073
20
20.998
0
VERTEX
8
CONTOURS_MINEURES
10
9.073
20
20.926
0
VERTEX
8
CONTOURS_MINEURES
10
9.073
20
18.003
0
VERTEX
8
CONTOURS_MINEURES
10
9.001
20
17.167
0
VERTEX
8
CONTOURS_MINEURES
10
6.831
20
17.167
0
VERTEX
8
CONTOURS_MINEURES
10
5.997
20
17.167
0
VERTEX
8
CONTOURS_MINEURES
10
5.771
20
15.223
0
VERTEX
8
CONTOURS_MINEURES
10
5.790
20
14.996
0
VERTEX
8
CONTOURS_MINEURES
10
5.746
20
12.251
0
VERTEX
8
CONTOURS_MINEURES
10
5.755
20
12.000
0
VERTEX
8
CONTOURS_MINEURES
10
5.755
20
11.758
0
VERTEX
8
CONTOURS_MINEURES
10
5.755
20
9.005
0
VERTEX
8
CONTOURS_MINEURES
10
5.997
20
8.130
0
VERTEX
8
CONTOURS_MINEURES
10
8.127
20
8.130
0
VERTEX
8
CONTOURS_MINEURES
10
9.001
20
8.130
0
VERTEX
8
CONTOURS_MINEURES
10
9.631
20
5.998
0
VERTEX
8
CONTOURS_MINEURES
10
9.631
20
3.630
0
VERTEX
8
CONTOURS_MINEURES
10
9.631
20
3.002
0
VERTEX
8
CONTOURS_MINEURES
10
9.578
20
2.425
0
VERTEX
8
CONTOURS_MINEURES
10
9.001
20
1.685
0
VERTEX
8
CONTOURS_MINEURES
10
7.685
20
1.685
0
VERTEX
8
CONTOURS_MINEURES
10
5.997
20
1.685
0
VERTEX
8
CONTOURS_MINEURES
10
5.298
20
0.698
0
VERTEX
8
CONTOURS_MINEURES
10
3.004
20
0.232
0
VERTEX
8
CONTOURS_MINEURES
10
1.553
20
1.447
0
VERTEX
8
CONTOURS_MINEURES
10
-0.001
20
2.617
0
SEQEND
0
POLYLINE
8
CONTOURS_MINEURES
66
1
70
0
0
VERTEX
8
CONTOURS_MINEURES
10
-0.001
20
26.927
0
VERTEX
8
CONTOURS_MINEURES
10
0.069
20
27.000
0
VERTEX
8
CONTOURS_MINEURES
10
0.069
20
29.926
0
VERTEX
8
CONTOURS_MINEURES
10
0.069
20
29.996
0
VERTEX
8
CONTOURS_MINEURES
10
0.187
20
30.184
0
VERTEX
8
CONTOURS_MINEURES
10
2.002
20
33.003
0
VERTEX
8
CONTOURS_MINEURES
10
2.002
20
34.001
0
VERTEX
8
CONTOURS_MINEURES
10
2.002
20
35.998
0
VERTEX
8
CONTOURS_MINEURES
10
3.004
20
37.543
0
VERTEX
8
CONTOURS_MINEURES
10
4.490
20
37.492
0
VERTEX
8
CONTOURS_MINEURES
10
5.997
20
38.102
0
VERTEX
8
CONTOURS_MINEURES
10
6.899
20
38.102
0
VERTEX
8
CONTOURS_MINEURES
10
9.001
20
38.102
0
VERTEX
8
CONTOURS_MINEURES
10
9.973
20
38.033
0
VERTEX
8
CONTOURS_MINEURES
10
12.005
20
38.253
0
VERTEX
8
CONTOURS_MINEURES
10
14.943
20
39.005
0
VERTEX
8
CONTOURS_MINEURES
10
14.990
20
39.013
0
VERTEX
8
CONTOURS_MINEURES
10
14.999
20
39.020
0
VERTEX
8
CONTOURS_MINEURES
10
15.013
20
39.020
0
VERTEX
8
CONTOURS_MINEURES
10
18.003
20
39.020
0
VERTEX
8
CONTOURS_MINEURES
10
18.377
20
39.005
0
VERTEX
8
CONTOURS_MINEURES
10
20.709
20
38.717
0
VERTEX
8
CONTOURS_MINEURES
10
19.940
20
35.998
0
VERTEX
8
CONTOURS_MINEURES
10
19.940
20
34.941
0
VERTEX
8
CONTOURS_MINEURES
10
19.940
20
33.003
0
VERTEX
8
CONTOURS_MINEURES
10
19.071
20
31.930
0
VERTEX
8
CONTOURS_MINEURES
10
18.169
20
29.996
0
VERTEX
8
CONTOURS_MINEURES
10
18.169
20
27.167
0
VERTEX
8
CONTOURS_MINEURES
10
18.169
20
27.000
0
VERTEX
8
CONTOURS_MINEURES
10
18.003
20
26.784
0
VERTEX
8
CONTOURS_MINEURES
10
15.215
20
26.784
0
VERTEX
8
CONTOURS_MINEURES
10
14.999
20
26.784
0
VERTEX
8
CONTOURS_MINEURES
10
13.423
20
24.005
0
VERTEX
8
CONTOURS_MINEURES
10
12.782
20
23.224
0
VERTEX
8
CONTOURS_MINEURES
10
12.005
20
21.106
0
VERTEX
8
CONTOURS_MINEURES
10
11.962
20
20.998
0
VERTEX
8
CONTOURS_MINEURES
10
11.962
20
18.046
0
VERTEX
8
CONTOURS_MINEURES
10
11.962
20
18.003
0
VERTEX
8
CONTOURS_MINEURES
10
11.958
20
17.955
0
VERTEX
8
CONTOURS_MINEURES
10
11.044
20
14.996
0
VERTEX
8
CONTOURS_MINEURES
10
11.033
20
14.027
0
VERTEX
8
CONTOURS_MINEURES
10
11.491
20
12.000
0
VERTEX
8
CONTOURS_MINEURES
10
11.491
20
9.517
0
VERTEX
8
CONTOURS_MINEURES
10
11.491
20
9.005
0
VERTEX
8
CONTOURS_MINEURES
10
12.005
20
7.749
0
VERTEX
8
CONTOURS_MINEURES
10
12.432
20
6.426
0
VERTEX
8
CONTOURS_MINEURES
10
12.663
20
5.998
0
VERTEX
8
CONTOURS_MINEURES
10
12.663
20
5.339
0
VERTEX
8
CONTOURS_MINEURES
10
12.663
20
3.002
0
VERTEX
8
CONTOURS_MINEURES
10
12.486
20
0.479
0
VERTEX
8
CONTOURS_MINEURES
10
12.874
20
-0.004
0
SEQEND
0
POLYLINE
8
CONTOURS_MINEURES
66
1
70
0
0
VERTEX
8
CONTOURS_MINEURES
10
-0.001
20
38.347
0
VERTEX
8
CONTOURS_MINEURES
10
0.294
20
39.005
0
VERTEX
8
CONTOURS_MINEURES
10
1.304
20
40.700
0
VERTEX
8
CONTOURS_MINEURES
10
3.004
20
40.609
0
VERTEX
8
CONTOURS_MINEURES
10
4.009
20
40.011
0
VERTEX
8
CONTOURS_MINEURES
10
5.997
20
39.985
0
VERTEX
8
CONTOURS_MINEURES
10
6.980
20
39.985
0
VERTEX
8
CONTOURS_MINEURES
10
9.001
20
39.985
0
VERTEX
8
CONTOURS_MINEURES
10
10.268
20
40.269
0
VERTEX
8
CONTOURS_MINEURES
10
12.005
20
40.394
0
VERTEX
8
CONTOURS_MINEURES
10
13.377
20
40.628
0
VERTEX
8
CONTOURS_MINEURES
10
14.999
20
41.900
0
VERTEX
8
CONTOURS_MINEURES
10
17.902
20
41.900
0
VERTEX
8
CONTOURS_MINEURES
10
18.003
20
41.900
0
VERTEX
8
CONTOURS_MINEURES
10
18.107
20
41.896
0
VERTEX
8
CONTOURS_MINEURES
10
18.182
20
42.001
0
VERTEX
8
CONTOURS_MINEURES
10
18.182
20
42.180
0
VERTEX
8
CONTOURS_MINEURES
10
18.182
20
44.996
0
VERTEX
8
CONTOURS_MINEURES
10
19.614
20
46.615
0
VERTEX
8
CONTOURS_MINEURES
10
20.890
20
48.003
0
VERTEX
8
CONTOURS_MINEURES
10
20.911
20
48.088
0
VERTEX
8
CONTOURS_MINEURES
10
20.996
20
48.464
0
VERTEX
8
CONTOURS_MINEURES
10
21.154
20
48.161
0
VERTEX
8
CONTOURS_MINEURES
10
21.945
20
48.003
0
VERTEX
8
CONTOURS_MINEURES
10
24.000
20
47.475
0
VERTEX
8
CONTOURS_MINEURES
10
26.476
20
47.475
0
VERTEX
8
CONTOURS_MINEURES
10
27.004
20
47.475
0
VERTEX
8
CONTOURS_MINEURES
10
27.627
20
45.622
0
VERTEX
8
CONTOURS_MINEURES
10
27.735
20
44.996
0
VERTEX
8
CONTOURS_MINEURES
10
27.735
20
44.265
0
VERTEX
8
CONTOURS_MINEURES
10
27.735
20
42.001
0
VERTEX
8
CONTOURS_MINEURES
10
27.753
20
39.754
0
VERTEX
8
CONTOURS_MINEURES
10
27.793
20
39.005
0
VERTEX
8
CONTOURS_MINEURES
10
27.633
20
38.374
0
VERTEX
8
CONTOURS_MINEURES
10
27.004
20
36.135
0
VERTEX
8
CONTOURS_MINEURES
10
26.868
20
36.135
0
VERTEX
8
CONTOURS_MINEURES
10
24.000
20
36.135
0
VERTEX
8
CONTOURS_MINEURES
10
23.954
20
36.044
0
VERTEX
8
CONTOURS_MINEURES
10
23.946
20
35.998
0
VERTEX
8
CONTOURS_MINEURES
10
23.946
20
33.057
0
VERTEX
8
CONTOURS_MINEURES
10
23.946
20
33.003
0
VERTEX
8
CONTOURS_MINEURES
10
23.893
20
32.895
0
VERTEX
8
CONTOURS_MINEURES
10
22.166
20
29.996
0
VERTEX
8
CONTOURS_MINEURES
10
22.166
20
28.830
0
VERTEX
8
CONTOURS_MINEURES
10
22.166
20
27.000
0
VERTEX
8
CONTOURS_MINEURES
10
20.996
20
25.304
0
VERTEX
8
CONTOURS_MINEURES
10
19.917
20
24.005
0
VERTEX
8
CONTOURS_MINEURES
10
18.003
20
21.659
0
VERTEX
8
CONTOURS_MINEURES
10
15.659
20
21.659
0
VERTEX
8
CONTOURS_MINEURES
10
14.999
20
21.659
0
VERTEX
8
CONTOURS_MINEURES
10
14.701
20
21.297
0
VERTEX
8
CONTOURS_MINEURES
10
14.592
20
20.998
0
VERTEX
8
CONTOURS_MINEURES
10
14.592
20
20.591
0
VERTEX
8
CONTOURS_MINEURES
10
14.592
20
18.003
0
VERTEX
8
CONTOURS_MINEURES
10
13.705
20
16.296
0
VERTEX
8
CONTOURS_MINEURES
10
13.285
20
14.996
0
VERTEX
8
CONTOURS_MINEURES
10
13.559
20
13.556
0
VERTEX
8
CONTOURS_MINEURES
10
13.731
20
12.000
0
VERTEX
8
CONTOURS_MINEURES
10
13.731
20
10.273
0
VERTEX
8
CONTOURS_MINEURES
10
13.731
20
9.005
0
VERTEX
8
CONTOURS_MINEURES
10
14.041
20
8.043
0
VERTEX
8
CONTOURS_MINEURES
10
14.999
20
6.273
0
VERTEX
8
CONTOURS_MINEURES
10
17.727
20
6.273
0
VERTEX
8
CONTOURS_MINEURES
10
18.003
20
6.273
0
VERTEX
8
CONTOURS_MINEURES
10
18.107
20
6.103
0
VERTEX
8
CONTOURS_MINEURES
10
18.150
20
5.998
0
VERTEX
8
CONTOURS_MINEURES
10
18.150
20
5.850
0
VERTEX
8
CONTOURS_MINEURES
10
18.150
20
3.002
0
VERTEX
8
CONTOURS_MINEURES
10
18.980
20
0.977
0
VERTEX
8
CONTOURS_MINEURES
10
19.630
20
-0.004
0
SEQEND
0
POLYLINE
8
CONTOURS_MINEURES
66
1
70
0
0
VERTEX
8
CONTOURS_MINEURES
10
96.115
20
-0.004
0
VERTEX
8
CONTOURS_MINEURES
10
98.995
20
1.237
0
VERTEX
8
CONTOURS_MINEURES
10
100.759
20
1.237
0
VERTEX
8
CONTOURS_MINEURES
10
101.999
20
1.237
0
SEQEND
0
POLYLINE
8
CONTOURS_MINEURES
66
1
70
0
0
VERTEX
8
CONTOURS_MINEURES
10
83.649
20
-0.004
0
VERTEX
8
CONTOURS_MINEURES
10
83.780
20
0.213
0
VERTEX
8
CONTOURS_MINEURES
10
83.996
20
0.646
0
VERTEX
8
CONTOURS_MINEURES
10
84.646
20
0.646
0
VERTEX
8
CONTOURS_MINEURES
10
87.000
20
0.646
0
VERTEX
8
CONTOURS_MINEURES
10
88.417
20
3.002
0
VERTEX
8
CONTOURS_MINEURES
10
88.417
20
4.585
0
VERTEX
8
CONTOURS_MINEURES
10
88.417
20
5.998
0
VERTEX
8
CONTOURS_MINEURES
10
90.005
20
6.727
0
VERTEX
8
CONTOURS_MINEURES
10
92.129
20
6.870
0
VERTEX
8
CONTOURS_MINEURES
10
92.998
20
6.750
0
VERTEX
8
CONTOURS_MINEURES
10
93.749
20
6.750
0
VERTEX
8
CONTOURS_MINEURES
10
96.002
20
6.750
0
VERTEX
8
CONTOURS_MINEURES
10
96.629
20
6.628
0
VERTEX
8
CONTOURS_MINEURES
10
98.995
20
6.447
0
VERTEX
8
CONTOURS_MINEURES
10
101.550
20
6.447
0
VERTEX
8
CONTOURS_MINEURES
10
101.999
20
6.447
0
SEQEND
0
POLYLINE
8
CONTOURS_MINEURES
66
1
70
0
0
VERTEX
8
CONTOURS_MINEURES
10
-0.001
20
45.862
0
VERTEX
8
CONTOURS_MINEURES
10
0.653
20
45.651
0
VERTEX
8
CONTOURS_MINEURES
10
3.004
20
45.583
0
VERTEX
8
CONTOURS_MINEURES
10
4.846
20
44.996
0
VERTEX
8
CONTOURS_MINEURES
10
4.846
20
43.153
0
VERTEX
8
CONTOURS_MINEURES
10
4.846
20
42.001
0
VERTEX
8
CONTOURS_MINEURES
10
5.568
20
41.572
0
VERTEX
8
CONTOURS_MINEURES
10
5.997
20
41.566
0
VERTEX
8
CONTOURS_MINEURES
10
8.565
20
41.566
0
VERTEX
8
CONTOURS_MINEURES
10
9.001
20
41.566
0
VERTEX
8
CONTOURS_MINEURES
10
10.945
20
42.001
0
VERTEX
8
CONTOURS_MINEURES
10
10.945
20
43.058
0
VERTEX
8
CONTOURS_MINEURES
10
10.945
20
44.996
0
VERTEX
8
CONTOURS_MINEURES
10
12.005
20
45.366
0
VERTEX
8
CONTOURS_MINEURES
10
14.567
20
48.003
0
VERTEX
8
CONTOURS_MINEURES
10
14.738
20
48.264
0
VERTEX
8
CONTOURS_MINEURES
10
14.999
20
50.633
0
VERTEX
8
CONTOURS_MINEURES
10
17.636
20
50.633
0
VERTEX
8
CONTOURS_MINEURES
10
18.003
20
50.633
0
VERTEX
8
CONTOURS_MINEURES
10
18.074
20
50.928
0
VERTEX
8
CONTOURS_MINEURES
10
18.090
20
50.999
0
VERTEX
8
CONTOURS_MINEURES
10
18.090
20
53.918
0
VERTEX
8
CONTOURS_MINEURES
10
18.090
20
54.005
0
VERTEX
8
CONTOURS_MINEURES
10
18.125
20
54.128
0
VERTEX
8
CONTOURS_MINEURES
10
19.218
20
57.001
0
VERTEX
8
CONTOURS_MINEURES
10
20.446
20
59.446
0
VERTEX
8
CONTOURS_MINEURES
10
20.755
20
59.997
0
VERTEX
8
CONTOURS_MINEURES
10
20.755
20
62.762
0
VERTEX
8
CONTOURS_MINEURES
10
20.755
20
63.003
0
VERTEX
8
CONTOURS_MINEURES
10
20.835
20
63.165
0
VERTEX
8
CONTOURS_MINEURES
10
20.996
20
63.345
0
VERTEX
8
CONTOURS_MINEURES
10
21.310
20
63.317
0
VERTEX
8
CONTOURS_MINEURES
10
21.717
20
63.003
0
VERTEX
8
CONTOURS_MINEURES
10
21.717
20
62.282
0
VERTEX
8
CONTOURS_MINEURES
10
21.717
20
59.997
0
VERTEX
8
CONTOURS_MINEURES
10
23.016
20
59.015
0
VERTEX
8
CONTOURS_MINEURES
10
24.000
20
57.243
0
VERTEX
8
CONTOURS_MINEURES
10
26.762
20
57.243
0
VERTEX
8
CONTOURS_MINEURES
10
27.004
20
57.243
0
VERTEX
8
CONTOURS_MINEURES
10
27.054
20
57.051
0
VERTEX
8
CONTOURS_MINEURES
10
27.065
20
57.001
0
VERTEX
8
CONTOURS_MINEURES
10
27.123
20
56.882
0
VERTEX
8
CONTOURS_MINEURES
10
28.297
20
54.005
0
VERTEX
8
CONTOURS_MINEURES
10
28.297
20
52.297
0
VERTEX
8
CONTOURS_MINEURES
10
28.297
20
50.999
0
VERTEX
8
CONTOURS_MINEURES
10
29.225
20
48.776
0
VERTEX
8
CONTOURS_MINEURES
10
29.560
20
48.003
0
VERTEX
8
CONTOURS_MINEURES
10
29.671
20
47.675
0
VERTEX
8
CONTOURS_MINEURES
10
29.998
20
45.766
0
VERTEX
8
CONTOURS_MINEURES
10
30.091
20
45.090
0
VERTEX
8
CONTOURS_MINEURES
10
30.101
20
44.996
0
VERTEX
8
CONTOURS_MINEURES
10
30.101
20
44.894
0
VERTEX
8
CONTOURS_MINEURES
10
30.101
20
42.001
0
VERTEX
8
CONTOURS_MINEURES
10
30.213
20
39.220
0
VERTEX
8
CONTOURS_MINEURES
10
30.235
20
39.005
0
VERTEX
8
CONTOURS_MINEURES
10
30.218
20
38.784
0
VERTEX
8
CONTOURS_MINEURES
10
29.998
20
37.822
0
VERTEX
8
CONTOURS_MINEURES
10
29.628
20
36.369
0
VERTEX
8
CONTOURS_MINEURES
10
29.524
20
35.998
0
VERTEX
8
CONTOURS_MINEURES
10
29.524
20
33.476
0
VERTEX
8
CONTOURS_MINEURES
10
29.524
20
33.003
0
VERTEX
8
CONTOURS_MINEURES
10
28.991
20
31.991
0
VERTEX
8
CONTOURS_MINEURES
10
27.814
20
29.996
0
VERTEX
8
CONTOURS_MINEURES
10
27.814
20
29.186
0
VERTEX
8
CONTOURS_MINEURES
10
27.814
20
27.000
0
VERTEX
8
CONTOURS_MINEURES
10
27.004
20
25.758
0
VERTEX
8
CONTOURS_MINEURES
10
25.246
20
25.758
0
VERTEX
8
CONTOURS_MINEURES
10
24.000
20
25.758
0
VERTEX
8
CONTOURS_MINEURES
10
22.716
20
24.005
0
VERTEX
8
CONTOURS_MINEURES
10
22.025
20
22.975
0
VERTEX
8
CONTOURS_MINEURES
10
20.996
20
21.606
0
VERTEX
8
CONTOURS_MINEURES
10
20.482
20
20.998
0
VERTEX
8
CONTOURS_MINEURES
10
20.482
20
18.516
0
VERTEX
8
CONTOURS_MINEURES
10
20.482
20
18.003
0
VERTEX
8
CONTOURS_MINEURES
10
19.763
20
16.764
0
VERTEX
8
CONTOURS_MINEURES
10
18.755
20
14.996
0
VERTEX
8
CONTOURS_MINEURES
10
18.830
20
14.168
0
VERTEX
8
CONTOURS_MINEURES
10
19.146
20
12.000
0
VERTEX
8
CONTOURS_MINEURES
10
19.146
20
10.856
0
VERTEX
8
CONTOURS_MINEURES
10
19.146
20
9.005
0
VERTEX
8
CONTOURS_MINEURES
10
19.853
20
7.856
0
VERTEX
8
CONTOURS_MINEURES
10
20.614
20
5.998
0
VERTEX
8
CONTOURS_MINEURES
10
20.614
20
3.384
0
VERTEX
8
CONTOURS_MINEURES
10
20.614
20
3.002
0
VERTEX
8
CONTOURS_MINEURES
10
20.725
20
2.731
0
VERTEX
8
CONTOURS_MINEURES
10
20.996
20
2.322
0
VERTEX
8
CONTOURS_MINEURES
10
23.718
20
-0.004
0
SEQEND
0
POLYLINE
8
CONTOURS_MINEURES
66
1
70
0
0
VERTEX
8
CONTOURS_MINEURES
10
79.305
20
-0.004
0
VERTEX
8
CONTOURS_MINEURES
10
79.913
20
1.086
0
VERTEX
8
CONTOURS_MINEURES
10
81.003
20
2.821
0
VERTEX
8
CONTOURS_MINEURES
10
81.071
20
2.934
0
VERTEX
8
CONTOURS_MINEURES
10
81.105
20
3.002
0
VERTEX
8
CONTOURS_MINEURES
10
81.105
20
5.896
0
VERTEX
8
CONTOURS_MINEURES
10
81.105
20
5.998
0
VERTEX
8
CONTOURS_MINEURES
10
83.996
20
7.879
0
VERTEX
8
CONTOURS_MINEURES
10
85.121
20
7.879
0
VERTEX
8
CONTOURS_MINEURES
10
87.000
20
7.879
0
VERTEX
8
CONTOURS_MINEURES
10
89.942
20
8.942
0
VERTEX
8
CONTOURS_MINEURES
10
90.005
20
8.971
0
VERTEX
8
CONTOURS_MINEURES
10
90.036
20
8.973
0
VERTEX
8
CONTOURS_MINEURES
10
92.998
20
8.561
0
VERTEX
8
CONTOURS_MINEURES
10
95.559
20
8.561
0
VERTEX
8
CONTOURS_MINEURES
10
96.002
20
8.561
0
VERTEX
8
CONTOURS_MINEURES
10
98.141
20
8.147
0
VERTEX
8
CONTOURS_MINEURES
10
98.995
20
8.081
0
VERTEX
8
CONTOURS_MINEURES
10
99.918
20
8.081
0
VERTEX
8
CONTOURS_MINEURES
10
101.999
20
8.081
0
SEQEND
0
POLYLINE
8
CONTOURS_MINEURES
66
1
70
0
0
VERTEX
8
CONTOURS_MINEURES
10
-0.001
20
47.575
0
VERTEX
8
CONTOURS_MINEURES
10
1.948
20
46.947
0
VERTEX
8
CONTOURS_MINEURES
10
3.004
20
46.916
0
VERTEX
8
CONTOURS_MINEURES
10
4.588
20
46.412
0
VERTEX
8
CONTOURS_MINEURES
10
5.997
20
46.135
0
VERTEX
8
CONTOURS_MINEURES
10
7.134
20
46.135
0
VERTEX
8
CONTOURS_MINEURES
10
9.001
20
46.135
0
VERTEX
8
CONTOURS_MINEURES
10
11.741
20
47.738
0
VERTEX
8
CONTOURS_MINEURES
10
12.005
20
47.831
0
VERTEX
8
CONTOURS_MINEURES
10
12.173
20
48.003
0
VERTEX
8
CONTOURS_MINEURES
10
13.292
20
49.711
0
VERTEX
8
CONTOURS_MINEURES
10
13.434
20
50.999
0
VERTEX
8
CONTOURS_MINEURES
10
13.434
20
52.571
0
VERTEX
8
CONTOURS_MINEURES
10
13.434
20
54.005
0
VERTEX
8
CONTOURS_MINEURES
10
13.854
20
55.151
0
VERTEX
8
CONTOURS_MINEURES
10
14.173
20
57.001
0
VERTEX
8
CONTOURS_MINEURES
10
14.271
20
57.729
0
VERTEX
8
CONTOURS_MINEURES
10
14.999
20
59.854
0
VERTEX
8
CONTOURS_MINEURES
10
15.142
20
59.854
0
VERTEX
8
CONTOURS_MINEURES
10
18.003
20
59.854
0
VERTEX
8
CONTOURS_MINEURES
10
18.083
20
59.997
0
VERTEX
8
CONTOURS_MINEURES
10
18.083
20
60.077
0
VERTEX
8
CONTOURS_MINEURES
10
18.083
20
63.003
0
VERTEX
8
CONTOURS_MINEURES
10
19.042
20
64.959
0
VERTEX
8
CONTOURS_MINEURES
10
19.976
20
65.999
0
VERTEX
8
CONTOURS_MINEURES
10
19.976
20
67.020
0
VERTEX
8
CONTOURS_MINEURES
10
19.976
20
68.995
0
VERTEX
8
CONTOURS_MINEURES
10
20.996
20
69.920
0
VERTEX
8
CONTOURS_MINEURES
10
23.237
20
69.759
0
VERTEX
8
CONTOURS_MINEURES
10
24.000
20
69.823
0
VERTEX
8
CONTOURS_MINEURES
10
26.177
20
69.823
0
VERTEX
8
CONTOURS_MINEURES
10
27.004
20
69.823
0
VERTEX
8
CONTOURS_MINEURES
10
27.745
20
68.995
0
VERTEX
8
CONTOURS_MINEURES
10
27.745
20
66.740
0
VERTEX
8
CONTOURS_MINEURES
10
27.745
20
65.999
0
VERTEX
8
CONTOURS_MINEURES
10
27.981
20
65.022
0
VERTEX
8
CONTOURS_MINEURES
10
28.803
20
63.003
0
VERTEX
8
CONTOURS_MINEURES
10
28.803
20
61.197
0
VERTEX
8
CONTOURS_MINEURES
10
28.803
20
59.997
0
VERTEX
8
CONTOURS_MINEURES
10
29.050
20
59.048
0
VERTEX
8
CONTOURS_MINEURES
10
29.499
20
57.001
0
VERTEX
8
CONTOURS_MINEURES
10
29.998
20
55.978
0
VERTEX
8
CONTOURS_MINEURES
10
30.794
20
54.005
0
VERTEX
8
CONTOURS_MINEURES
10
30.794
20
51.796
0
VERTEX
8
CONTOURS_MINEURES
10
30.794
20
50.999
0
VERTEX
8
CONTOURS_MINEURES
10
31.067
20
49.933
0
VERTEX
8
CONTOURS_MINEURES
10
31.620
20
48.003
0
VERTEX
8
CONTOURS_MINEURES
10
31.788
20
46.789
0
VERTEX
8
CONTOURS_MINEURES
10
31.972
20
44.996
0
VERTEX
8
CONTOURS_MINEURES
10
31.972
20
43.027
0
VERTEX
8
CONTOURS_MINEURES
10
31.972
20
42.001
0
VERTEX
8
CONTOURS_MINEURES
10
32.012
20
41.014
0
VERTEX
8
CONTOURS_MINEURES
10
32.211
20
39.005
0
VERTEX
8
CONTOURS_MINEURES
10
32.055
20
36.946
0
VERTEX
8
CONTOURS_MINEURES
10
31.838
20
35.998
0
VERTEX
8
CONTOURS_MINEURES
10
31.838
20
34.838
0
VERTEX
8
CONTOURS_MINEURES
10
31.838
20
33.003
0
VERTEX
8
CONTOURS_MINEURES
10
31.234
20
31.765
0
VERTEX
8
CONTOURS_MINEURES
10
30.036
20
29.996
0
VERTEX
8
CONTOURS_MINEURES
10
30.036
20
29.958
0
VERTEX
8
CONTOURS_MINEURES
10
30.036
20
27.000
0
VERTEX
8
CONTOURS_MINEURES
10
29.998
20
26.944
0
VERTEX
8
CONTOURS_MINEURES
10
28.147
20
24.005
0
VERTEX
8
CONTOURS_MINEURES
10
27.912
20
23.093
0
VERTEX
8
CONTOURS_MINEURES
10
27.004
20
22.205
0
VERTEX
8
CONTOURS_MINEURES
10
25.205
20
22.205
0
VERTEX
8
CONTOURS_MINEURES
10
24.000
20
22.205
0
VERTEX
8
CONTOURS_MINEURES
10
23.516
20
21.483
0
VERTEX
8
CONTOURS_MINEURES
10
23.151
20
20.998
0
VERTEX
8
CONTOURS_MINEURES
10
23.151
20
20.152
0
VERTEX
8
CONTOURS_MINEURES
10
23.151
20
18.003
0
VERTEX
8
CONTOURS_MINEURES
10
22.773
20
16.224
0
VERTEX
8
CONTOURS_MINEURES
10
21.925
20
14.996
0
VERTEX
8
CONTOURS_MINEURES
10
22.129
20
13.130
0
VERTEX
8
CONTOURS_MINEURES
10
22.783
20
12.000
0
VERTEX
8
CONTOURS_MINEURES
10
22.783
20
10.786
0
VERTEX
8
CONTOURS_MINEURES
10
22.783
20
9.005
0
VERTEX
8
CONTOURS_MINEURES
10
24.000
20
7.856
0
VERTEX
8
CONTOURS_MINEURES
10
25.148
20
7.856
0
VERTEX
8
CONTOURS_MINEURES
10
27.004
20
7.856
0
VERTEX
8
CONTOURS_MINEURES
10
28.015
20
7.013
0
VERTEX
8
CONTOURS_MINEURES
10
29.532
20
5.998
0
VERTEX
8
CONTOURS_MINEURES
10
29.532
20
5.532
0
VERTEX
8
CONTOURS_MINEURES
10
29.532
20
3.002
0
VERTEX
8
CONTOURS_MINEURES
10
29.998
20
2.594
0
VERTEX
8
CONTOURS_MINEURES
10
31.589
20
1.588
0
VERTEX
8
CONTOURS_MINEURES
10
33.002
20
0.420
0
VERTEX
8
CONTOURS_MINEURES
10
35.572
20
0.420
0
VERTEX
8
CONTOURS_MINEURES
10
35.995
20
0.420
0
VERTEX
8
CONTOURS_MINEURES
10
36.245
20
0.246
0
VERTEX
8
CONTOURS_MINEURES
10
36.625
20
-0.004
0
SEQEND
0
POLYLINE
8
CONTOURS_MINEURES
66
1
70
0
0
VERTEX
8
CONTOURS_MINEURES
10
71.100
20
-0.004
0
VERTEX
8
CONTOURS_MINEURES
10
71.569
20
0.428
0
VERTEX
8
CONTOURS_MINEURES
10
72.001
20
0.826
0
VERTEX
8
CONTOURS_MINEURES
10
73.397
20
3.002
0
VERTEX
8
CONTOURS_MINEURES
10
73.397
20
4.602
0
VERTEX
8
CONTOURS_MINEURES
10
73.397
20
5.998
0
VERTEX
8
CONTOURS_MINEURES
10
74.995
20
7.022
0
VERTEX
8
CONTOURS_MINEURES
10
76.018
20
7.022
0
VERTEX
8
CONTOURS_MINEURES
10
77.999
20
7.022
0
VERTEX
8
CONTOURS_MINEURES
10
79.155
20
7.847
0
VERTEX
8
CONTOURS_MINEURES
10
81.003
20
8.886
0
VERTEX
8
CONTOURS_MINEURES
10
81.198
20
9.005
0
VERTEX
8
CONTOURS_MINEURES
10
81.198
20
11.805
0
VERTEX
8
CONTOURS_MINEURES
10
81.198
20
12.000
0
VERTEX
8
CONTOURS_MINEURES
10
83.996
20
13.492
0
VERTEX
8
CONTOURS_MINEURES
10
85.492
20
13.492
0
VERTEX
8
CONTOURS_MINEURES
10
87.000
20
13.492
0
VERTEX
8
CONTOURS_MINEURES
10
88.114
20
13.886
0
VERTEX
8
CONTOURS_MINEURES
10
90.005
20
14.459
0
VERTEX
8
CONTOURS_MINEURES
10
92.205
20
14.202
0
VERTEX
8
CONTOURS_MINEURES
10
92.998
20
14.038
0
VERTEX
8
CONTOURS_MINEURES
10
93.959
20
14.038
0
VERTEX
8
CONTOURS_MINEURES
10
96.002
20
14.038
0
VERTEX
8
CONTOURS_MINEURES
10
97.347
20
13.650
0
VERTEX
8
CONTOURS_MINEURES
10
98.995
20
13.128
0
VERTEX
8
CONTOURS_MINEURES
10
100.868
20
13.128
0
VERTEX
8
CONTOURS_MINEURES
10
101.999
20
13.128
0
SEQEND
0
POLYLINE
8
CONTOURS_MINEURES
66
1
70
0
0
VERTEX
8
CONTOURS_MINEURES
10
-0.001
20
48.937
0
VERTEX
8
CONTOURS_MINEURES
10
2.702
20
48.304
0
VERTEX
8
CONTOURS_MINEURES
10
3.004
20
48.283
0
VERTEX
8
CONTOURS_MINEURES
10
3.379
20
48.379
0
VERTEX
8
CONTOURS_MINEURES
10
4.480
20
48.003
0
VERTEX
8
CONTOURS_MINEURES
10
5.997
20
47.705
0
VERTEX
8
CONTOURS_MINEURES
10
8.703
20
47.705
0
VERTEX
8
CONTOURS_MINEURES
10
9.001
20
47.705
0
VERTEX
8
CONTOURS_MINEURES
10
9.511
20
48.003
0
VERTEX
8
CONTOURS_MINEURES
10
10.747
20
49.258
0
VERTEX
8
CONTOURS_MINEURES
10
11.769
20
50.999
0
VERTEX
8
CONTOURS_MINEURES
10
11.769
20
51.235
0
VERTEX
8
CONTOURS_MINEURES
10
11.769
20
54.005
0
VERTEX
8
CONTOURS_MINEURES
10
12.005
20
54.486
0
VERTEX
8
CONTOURS_MINEURES
10
12.680
20
56.326
0
VERTEX
8
CONTOURS_MINEURES
10
12.797
20
57.001
0
VERTEX
8
CONTOURS_MINEURES
10
13.060
20
58.942
0
VERTEX
8
CONTOURS_MINEURES
10
13.421
20
59.997
0
VERTEX
8
CONTOURS_MINEURES
10
13.421
20
61.582
0
VERTEX
8
CONTOURS_MINEURES
10
13.421
20
63.003
0
VERTEX
8
CONTOURS_MINEURES
10
14.024
20
65.024
0
VERTEX
8
CONTOURS_MINEURES
10
13.985
20
65.999
0
VERTEX
8
CONTOURS_MINEURES
10
13.985
20
67.014
0
VERTEX
8
CONTOURS_MINEURES
10
13.985
20
68.995
0
VERTEX
8
CONTOURS_MINEURES
10
14.999
20
70.773
0
VERTEX
8
CONTOURS_MINEURES
10
16.226
20
70.773
0
VERTEX
8
CONTOURS_MINEURES
10
18.003
20
70.773
0
VERTEX
8
CONTOURS_MINEURES
10
19.414
20
72.001
0
VERTEX
8
CONTOURS_MINEURES
10
20.345
20
72.653
0
VERTEX
8
CONTOURS_MINEURES
10
20.996
20
73.266
0
VERTEX
8
CONTOURS_MINEURES
10
22.787
20
73.788
0
VERTEX
8
CONTOURS_MINEURES
10
24.000
20
73.925
0
VERTEX
8
CONTOURS_MINEURES
10
25.930
20
73.925
0
VERTEX
8
CONTOURS_MINEURES
10
27.004
20
73.925
0
VERTEX
8
CONTOURS_MINEURES
10
28.613
20
73.611
0
VERTEX
8
CONTOURS_MINEURES
10
29.960
20
72.001
0
VERTEX
8
CONTOURS_MINEURES
10
29.998
20
71.952
0
VERTEX
8
CONTOURS_MINEURES
10
30.768
20
69.766
0
VERTEX
8
CONTOURS_MINEURES
10
30.651
20
68.995
0
VERTEX
8
CONTOURS_MINEURES
10
30.651
20
68.343
0
VERTEX
8
CONTOURS_MINEURES
10
30.651
20
65.999
0
VERTEX
8
CONTOURS_MINEURES
10
30.637
20
65.362
0
VERTEX
8
CONTOURS_MINEURES
10
30.962
20
63.003
0
VERTEX
8
CONTOURS_MINEURES
10
30.962
20
60.962
0
VERTEX
8
CONTOURS_MINEURES
10
30.962
20
59.997
0
VERTEX
8
CONTOURS_MINEURES
10
31.197
20
58.801
0
VERTEX
8
CONTOURS_MINEURES
10
31.504
20
57.001
0
VERTEX
8
CONTOURS_MINEURES
10
32.681
20
54.325
0
VERTEX
8
CONTOURS_MINEURES
10
32.810
20
54.005
0
VERTEX
8
CONTOURS_MINEURES
10
32.810
20
53.814
0
VERTEX
8
CONTOURS_MINEURES
10
32.810
20
50.999
0
VERTEX
8
CONTOURS_MINEURES
10
33.002
20
50.250
0
VERTEX
8
CONTOURS_MINEURES
10
35.247
20
50.250
0
VERTEX
8
CONTOURS_MINEURES
10
35.995
20
50.250
0
VERTEX
8
CONTOURS_MINEURES
10
36.423
20
48.430
0
VERTEX
8
CONTOURS_MINEURES
10
36.508
20
48.003
0
VERTEX
8
CONTOURS_MINEURES
10
36.577
20
47.420
0
VERTEX
8
CONTOURS_MINEURES
10
36.822
20
44.996
0
VERTEX
8
CONTOURS_MINEURES
10
36.822
20
42.825
0
VERTEX
8
CONTOURS_MINEURES
10
36.822
20
42.001
0
VERTEX
8
CONTOURS_MINEURES
10
37.005
20
40.012
0
VERTEX
8
CONTOURS_MINEURES
10
37.111
20
39.005
0
VERTEX
8
CONTOURS_MINEURES
10
37.158
20
37.841
0
VERTEX
8
CONTOURS_MINEURES
10
37.010
20
35.998
0
VERTEX
8
CONTOURS_MINEURES
10
37.010
20
34.986
0
VERTEX
8
CONTOURS_MINEURES
10
37.010
20
33.003
0
VERTEX
8
CONTOURS_MINEURES
10
35.995
20
30.759
0
VERTEX
8
CONTOURS_MINEURES
10
35.235
20
30.759
0
VERTEX
8
CONTOURS_MINEURES
10
33.002
20
30.759
0
VERTEX
8
CONTOURS_MINEURES
10
32.751
20
30.247
0
VERTEX
8
CONTOURS_MINEURES
10
32.582
20
29.996
0
VERTEX
8
CONTOURS_MINEURES
10
32.582
20
27.419
0
VERTEX
8
CONTOURS_MINEURES
10
32.582
20
27.000
0
VERTEX
8
CONTOURS_MINEURES
10
31.697
20
25.700
0
VERTEX
8
CONTOURS_MINEURES
10
30.826
20
24.005
0
VERTEX
8
CONTOURS_MINEURES
10
29.998
20
22.046
0
VERTEX
8
CONTOURS_MINEURES
10
29.782
20
21.214
0
VERTEX
8
CONTOURS_MINEURES
10
29.562
20
20.998
0
VERTEX
8
CONTOURS_MINEURES
10
29.562
20
18.439
0
VERTEX
8
CONTOURS_MINEURES
10
29.562
20
18.003
0
VERTEX
8
CONTOURS_MINEURES
10
29.611
20
15.384
0
VERTEX
8
CONTOURS_MINEURES
10
29.433
20
14.996
0
VERTEX
8
CONTOURS_MINEURES
10
29.652
20
14.650
0
VERTEX
8
CONTOURS_MINEURES
10
29.998
20
14.152
0
VERTEX
8
CONTOURS_MINEURES
10
32.639
20
12.000
0
VERTEX
8
CONTOURS_MINEURES
10
32.639
20
11.639
0
VERTEX
8
CONTOURS_MINEURES
10
32.639
20
9.005
0
VERTEX
8
CONTOURS_MINEURES
10
33.002
20
8.840
0
VERTEX
8
CONTOURS_MINEURES
10
33.165
20
8.840
0
VERTEX
8
CONTOURS_MINEURES
10
35.995
20
8.840
0
VERTEX
8
CONTOURS_MINEURES
10
38.159
20
8.163
0
VERTEX
8
CONTOURS_MINEURES
10
38.999
20
7.646
0
VERTEX
8
CONTOURS_MINEURES
10
40.646
20
7.646
0
VERTEX
8
CONTOURS_MINEURES
10
42.003
20
7.646
0
VERTEX
8
CONTOURS_MINEURES
10
44.059
20
5.998
0
VERTEX
8
CONTOURS_MINEURES
10
44.059
20
5.060
0
VERTEX
8
CONTOURS_MINEURES
10
44.059
20
3.002
0
VERTEX
8
CONTOURS_MINEURES
10
44.997
20
2.272
0
VERTEX
8
CONTOURS_MINEURES
10
47.889
20
0.107
0
VERTEX
8
CONTOURS_MINEURES
10
48.001
20
0.028
0
VERTEX
8
CONTOURS_MINEURES
10
48.033
20
0.028
0
VERTEX
8
CONTOURS_MINEURES
10
51.005
20
0.028
0
VERTEX
8
CONTOURS_MINEURES
10
51.039
20
-0.004
0
SEQEND
0
POLYLINE
8
CONTOURS_MINEURES
66
1
70
0
0
VERTEX
8
CONTOURS_MINEURES
10
-0.001
20
50.183
0
VERTEX
8
CONTOURS_MINEURES
10
1.069
20
49.932
0
VERTEX
8
CONTOURS_MINEURES
10
3.004
20
49.796
0
VERTEX
8
CONTOURS_MINEURES
10
5.408
20
50.410
0
VERTEX
8
CONTOURS_MINEURES
10
5.997
20
50.209
0
VERTEX
8
CONTOURS_MINEURES
10
6.789
20
50.209
0
VERTEX
8
CONTOURS_MINEURES
10
9.001
20
50.209
0
VERTEX
8
CONTOURS_MINEURES
10
9.393
20
50.607
0
VERTEX
8
CONTOURS_MINEURES
10
9.623
20
50.999
0
VERTEX
8
CONTOURS_MINEURES
10
9.623
20
53.383
0
VERTEX
8
CONTOURS_MINEURES
10
9.623
20
54.005
0
VERTEX
8
CONTOURS_MINEURES
10
10.220
20
55.220
0
VERTEX
8
CONTOURS_MINEURES
10
11.119
20
57.001
0
VERTEX
8
CONTOURS_MINEURES
10
11.664
20
59.657
0
VERTEX
8
CONTOURS_MINEURES
10
11.745
20
59.997
0
VERTEX
8
CONTOURS_MINEURES
10
11.745
20
62.743
0
VERTEX
8
CONTOURS_MINEURES
10
11.745
20
63.003
0
VERTEX
8
CONTOURS_MINEURES
10
11.730
20
63.278
0
VERTEX
8
CONTOURS_MINEURES
10
11.637
20
65.999
0
VERTEX
8
CONTOURS_MINEURES
10
11.637
20
68.628
0
VERTEX
8
CONTOURS_MINEURES
10
11.637
20
68.995
0
VERTEX
8
CONTOURS_MINEURES
10
11.710
20
69.290
0
VERTEX
8
CONTOURS_MINEURES
10
12.005
20
70.134
0
VERTEX
8
CONTOURS_MINEURES
10
12.884
20
72.001
0
VERTEX
8
CONTOURS_MINEURES
10
14.999
20
74.418
0
VERTEX
8
CONTOURS_MINEURES
10
15.579
20
74.418
0
VERTEX
8
CONTOURS_MINEURES
10
18.003
20
74.418
0
VERTEX
8
CONTOURS_MINEURES
10
18.343
20
74.656
0
VERTEX
8
CONTOURS_MINEURES
10
18.705
20
74.997
0
VERTEX
8
CONTOURS_MINEURES
10
18.705
20
77.299
0
VERTEX
8
CONTOURS_MINEURES
10
18.705
20
78.004
0
VERTEX
8
CONTOURS_MINEURES
10
20.001
20
78.999
0
VERTEX
8
CONTOURS_MINEURES
10
20.996
20
79.926
0
VERTEX
8
CONTOURS_MINEURES
10
21.850
20
80.147
0
VERTEX
8
CONTOURS_MINEURES
10
23.479
20
80.999
0
VERTEX
8
CONTOURS_MINEURES
10
23.874
20
81.125
0
VERTEX
8
CONTOURS_MINEURES
10
24.000
20
81.216
0
VERTEX
8
CONTOURS_MINEURES
10
26.787
20
81.216
0
VERTEX
8
CONTOURS_MINEURES
10
27.004
20
81.216
0
VERTEX
8
CONTOURS_MINEURES
10
27.304
20
81.299
0
VERTEX
8
CONTOURS_MINEURES
10
28.857
20
80.999
0
VERTEX
8
CONTOURS_MINEURES
10
29.998
20
80.828
0
VERTEX
8
CONTOURS_MINEURES
10
30.284
20
80.714
0
VERTEX
8
CONTOURS_MINEURES
10
31.199
20
80.999
0
VERTEX
8
CONTOURS_MINEURES
10
33.002
20
81.264
0
VERTEX
8
CONTOURS_MINEURES
10
35.731
20
81.264
0
VERTEX
8
CONTOURS_MINEURES
10
35.995
20
81.264
0
VERTEX
8
CONTOURS_MINEURES
10
36.232
20
80.999
0
VERTEX
8
CONTOURS_MINEURES
10
37.052
20
79.058
0
VERTEX
8
CONTOURS_MINEURES
10
37.404
20
78.004
0
VERTEX
8
CONTOURS_MINEURES
10
37.404
20
76.593
0
VERTEX
8
CONTOURS_MINEURES
10
37.404
20
74.997
0
VERTEX
8
CONTOURS_MINEURES
10
36.692
20
72.697
0
VERTEX
8
CONTOURS_MINEURES
10
36.341
20
72.001
0
VERTEX
8
CONTOURS_MINEURES
10
36.265
20
71.731
0
VERTEX
8
CONTOURS_MINEURES
10
35.995
20
70.140
0
VERTEX
8
CONTOURS_MINEURES
10
34.142
20
70.140
0
VERTEX
8
CONTOURS_MINEURES
10
33.002
20
70.140
0
VERTEX
8
CONTOURS_MINEURES
10
32.828
20
68.995
0
VERTEX
8
CONTOURS_MINEURES
10
32.828
20
66.173
0
VERTEX
8
CONTOURS_MINEURES
10
32.828
20
65.999
0
VERTEX
8
CONTOURS_MINEURES
10
32.767
20
63.237
0
VERTEX
8
CONTOURS_MINEURES
10
32.800
20
63.003
0
VERTEX
8
CONTOURS_MINEURES
10
32.800
20
62.801
0
VERTEX
8
CONTOURS_MINEURES
10
32.800
20
59.997
0
VERTEX
8
CONTOURS_MINEURES
10
33.002
20
58.967
0
VERTEX
8
CONTOURS_MINEURES
10
34.966
20
58.967
0
VERTEX
8
CONTOURS_MINEURES
10
35.995
20
58.967
0
VERTEX
8
CONTOURS_MINEURES
10
36.338
20
57.343
0
VERTEX
8
CONTOURS_MINEURES
10
36.391
20
57.001
0
VERTEX
8
CONTOURS_MINEURES
10
36.677
20
56.321
0
VERTEX
8
CONTOURS_MINEURES
10
37.673
20
54.005
0
VERTEX
8
CONTOURS_MINEURES
10
37.673
20
52.678
0
VERTEX
8
CONTOURS_MINEURES
10
37.673
20
50.999
0
VERTEX
8
CONTOURS_MINEURES
10
37.925
20
49.928
0
VERTEX
8
CONTOURS_MINEURES
10
38.307
20
48.003
0
VERTEX
8
CONTOURS_MINEURES
10
38.621
20
45.375
0
VERTEX
8
CONTOURS_MINEURES
10
38.659
20
44.996
0
VERTEX
8
CONTOURS_MINEURES
10
38.659
20
44.657
0
VERTEX
8
CONTOURS_MINEURES
10
38.659
20
42.001
0
VERTEX
8
CONTOURS_MINEURES
10
38.688
20
41.690
0
VERTEX
8
CONTOURS_MINEURES
10
38.971
20
39.005
0
VERTEX
8
CONTOURS_MINEURES
10
38.999
20
38.311
0
VERTEX
8
CONTOURS_MINEURES
10
41.310
20
38.311
0
VERTEX
8
CONTOURS_MINEURES
10
42.003
20
38.311
0
VERTEX
8
CONTOURS_MINEURES
10
42.139
20
35.998
0
VERTEX
8
CONTOURS_MINEURES
10
42.139
20
33.139
0
VERTEX
8
CONTOURS_MINEURES
10
42.139
20
33.003
0
VERTEX
8
CONTOURS_MINEURES
10
42.273
20
32.732
0
VERTEX
8
CONTOURS_MINEURES
10
42.003
20
30.269
0
VERTEX
8
CONTOURS_MINEURES
10
41.730
20
30.269
0
VERTEX
8
CONTOURS_MINEURES
10
38.999
20
30.269
0
VERTEX
8
CONTOURS_MINEURES
10
38.981
20
29.996
0
VERTEX
8
CONTOURS_MINEURES
10
38.981
20
29.978
0
VERTEX
8
CONTOURS_MINEURES
10
38.981
20
27.000
0
VERTEX
8
CONTOURS_MINEURES
10
38.999
20
26.801
0
VERTEX
8
CONTOURS_MINEURES
10
41.803
20
26.801
0
VERTEX
8
CONTOURS_MINEURES
10
42.003
20
26.801
0
VERTEX
8
CONTOURS_MINEURES
10
43.500
20
24.005
0
VERTEX
8
CONTOURS_MINEURES
10
44.997
20
22.000
0
VERTEX
8
CONTOURS_MINEURES
10
45.464
20
21.466
0
VERTEX
8
CONTOURS_MINEURES
10
46.908
20
20.998
0
VERTEX
8
CONTOURS_MINEURES
10
46.908
20
19.092
0
VERTEX
8
CONTOURS_MINEURES
10
46.908
20
18.003
0
VERTEX
8
CONTOURS_MINEURES
10
48.001
20
17.659
0
VERTEX
8
CONTOURS_MINEURES
10
50.662
20
17.659
0
VERTEX
8
CONTOURS_MINEURES
10
51.005
20
17.659
0
VERTEX
8
CONTOURS_MINEURES
10
51.709
20
17.295
0
VERTEX
8
CONTOURS_MINEURES
10
53.998
20
15.810
0
VERTEX
8
CONTOURS_MINEURES
10
54.480
20
15.478
0
VERTEX
8
CONTOURS_MINEURES
10
56.788
20
14.996
0
VERTEX
8
CONTOURS_MINEURES
10
57.002
20
14.846
0
VERTEX
8
CONTOURS_MINEURES
10
57.152
20
14.846
0
VERTEX
8
CONTOURS_MINEURES
10
59.996
20
14.846
0
VERTEX
8
CONTOURS_MINEURES
10
62.477
20
14.475
0
VERTEX
8
CONTOURS_MINEURES
10
63.000
20
14.197
0
VERTEX
8
CONTOURS_MINEURES
10
64.335
20
14.996
0
VERTEX
8
CONTOURS_MINEURES
10
65.829
20
15.171
0
VERTEX
8
CONTOURS_MINEURES
10
66.004
20
15.151
0
VERTEX
8
CONTOURS_MINEURES
10
66.158
20
15.151
0
VERTEX
8
CONTOURS_MINEURES
10
68.997
20
15.151
0
VERTEX
8
CONTOURS_MINEURES
10
69.680
20
14.996
0
VERTEX
8
CONTOURS_MINEURES
10
72.001
20
14.017
0
VERTEX
8
CONTOURS_MINEURES
10
73.613
20
13.613
0
VERTEX
8
CONTOURS_MINEURES
10
74.995
20
14.164
0
VERTEX
8
CONTOURS_MINEURES
10
77.164
20
14.164
0
VERTEX
8
CONTOURS_MINEURES
10
77.999
20
14.164
0
VERTEX
8
CONTOURS_MINEURES
10
78.405
20
14.591
0
VERTEX
8
CONTOURS_MINEURES
10
80.252
20
14.996
0
VERTEX
8
CONTOURS_MINEURES
10
81.003
20
15.251
0
VERTEX
8
CONTOURS_MINEURES
10
82.687
20
16.311
0
VERTEX
8
CONTOURS_MINEURES
10
83.996
20
16.399
0
VERTEX
8
CONTOURS_MINEURES
10
85.398
20
16.399
0
VERTEX
8
CONTOURS_MINEURES
10
87.000
20
16.399
0
VERTEX
8
CONTOURS_MINEURES
10
88.140
20
16.862
0
VERTEX
8
CONTOURS_MINEURES
10
90.005
20
17.823
0
VERTEX
8
CONTOURS_MINEURES
10
91.365
20
18.003
0
VERTEX
8
CONTOURS_MINEURES
10
91.365
20
19.364
0
VERTEX
8
CONTOURS_MINEURES
10
91.365
20
20.998
0
VERTEX
8
CONTOURS_MINEURES
10
92.998
20
21.203
0
VERTEX
8
CONTOURS_MINEURES
10
95.797
20
21.203
0
VERTEX
8
CONTOURS_MINEURES
10
96.002
20
21.203
0
VERTEX
8
CONTOURS_MINEURES
10
96.285
20
21.282
0
VERTEX
8
CONTOURS_MINEURES
10
97.564
20
20.998
0
VERTEX
8
CONTOURS_MINEURES
10
97.564
20
19.435
0
VERTEX
8
CONTOURS_MINEURES
10
97.564
20
18.003
0
VERTEX
8
CONTOURS_MINEURES
10
98.760
20
17.766
0
VERTEX
8
CONTOURS_MINEURES
10
98.995
20
17.509
0
VERTEX
8
CONTOURS_MINEURES
10
101.506
20
17.509
0
VERTEX
8
CONTOURS_MINEURES
10
101.999
20
17.509
0
SEQEND
0
POLYLINE
8
CONTOURS_MINEURES
66
1
70
0
0
VERTEX
8
CONTOURS_MINEURES
10
36.248
20
93.004
0
VERTEX
8
CONTOURS_MINEURES
10
36.248
20
92.751
0
VERTEX
8
CONTOURS_MINEURES
10
36.248
20
89.997
0
VERTEX
8
CONTOURS_MINEURES
10
37.396
20
88.398
0
VERTEX
8
CONTOURS_MINEURES
10
37.154
20
87.002
0
VERTEX
8
CONTOURS_MINEURES
10
37.154
20
85.155
0
VERTEX
8
CONTOURS_MINEURES
10
37.154
20
83.995
0
VERTEX
8
CONTOURS_MINEURES
10
38.999
20
81.992
0
VERTEX
8
CONTOURS_MINEURES
10
39.995
20
81.992
0
VERTEX
8
CONTOURS_MINEURES
10
42.003
20
81.992
0
VERTEX
8
CONTOURS_MINEURES
10
42.485
20
80.999
0
VERTEX
8
CONTOURS_MINEURES
10
42.466
20
80.536
0
VERTEX
8
CONTOURS_MINEURES
10
42.775
20
78.004
0
VERTEX
8
CONTOURS_MINEURES
10
42.775
20
77.228
0
VERTEX
8
CONTOURS_MINEURES
10
42.775
20
74.997
0
VERTEX
8
CONTOURS_MINEURES
10
42.003
20
72.001
0
VERTEX
8
CONTOURS_MINEURES
10
38.999
20
72.001
0
VERTEX
8
CONTOURS_MINEURES
10
38.344
20
69.650
0
VERTEX
8
CONTOURS_MINEURES
10
38.233
20
68.995
0
VERTEX
8
CONTOURS_MINEURES
10
38.233
20
68.231
0
VERTEX
8
CONTOURS_MINEURES
10
38.233
20
65.999
0
VERTEX
8
CONTOURS_MINEURES
10
37.778
20
64.221
0
VERTEX
8
CONTOURS_MINEURES
10
37.754
20
63.003
0
VERTEX
8
CONTOURS_MINEURES
10
37.754
20
61.757
0
VERTEX
8
CONTOURS_MINEURES
10
37.754
20
59.997
0
VERTEX
8
CONTOURS_MINEURES
10
37.971
20
58.971
0
VERTEX
8
CONTOURS_MINEURES
10
38.274
20
57.001
0
VERTEX
8
CONTOURS_MINEURES
10
38.999
20
55.280
0
VERTEX
8
CONTOURS_MINEURES
10
40.725
20
55.280
0
VERTEX
8
CONTOURS_MINEURES
10
42.003
20
55.280
0
VERTEX
8
CONTOURS_MINEURES
10
42.574
20
54.576
0
VERTEX
8
CONTOURS_MINEURES
10
42.678
20
54.005
0
VERTEX
8
CONTOURS_MINEURES
10
42.678
20
53.328
0
VERTEX
8
CONTOURS_MINEURES
10
42.678
20
50.999
0
VERTEX
8
CONTOURS_MINEURES
10
43.157
20
49.158
0
VERTEX
8
CONTOURS_MINEURES
10
43.239
20
48.003
0
VERTEX
8
CONTOURS_MINEURES
10
43.425
20
46.575
0
VERTEX
8
CONTOURS_MINEURES
10
43.635
20
44.996
0
VERTEX
8
CONTOURS_MINEURES
10
43.635
20
43.634
0
VERTEX
8
CONTOURS_MINEURES
10
43.635
20
42.001
0
VERTEX
8
CONTOURS_MINEURES
10
43.774
20
40.777
0
VERTEX
8
CONTOURS_MINEURES
10
44.117
20
39.005
0
VERTEX
8
CONTOURS_MINEURES
10
44.852
20
36.144
0
VERTEX
8
CONTOURS_MINEURES
10
44.861
20
35.998
0
VERTEX
8
CONTOURS_MINEURES
10
44.861
20
35.862
0
VERTEX
8
CONTOURS_MINEURES
10
44.861
20
33.003
0
VERTEX
8
CONTOURS_MINEURES
10
44.997
20
32.727
0
VERTEX
8
CONTOURS_MINEURES
10
45.935
20
32.063
0
VERTEX
8
CONTOURS_MINEURES
10
48.001
20
30.597
0
VERTEX
8
CONTOURS_MINEURES
10
48.602
20
30.597
0
VERTEX
8
CONTOURS_MINEURES
10
51.005
20
30.597
0
VERTEX
8
CONTOURS_MINEURES
10
51.871
20
29.996
0
VERTEX
8
CONTOURS_MINEURES
10
51.871
20
27.868
0
VERTEX
8
CONTOURS_MINEURES
10
51.871
20
27.000
0
VERTEX
8
CONTOURS_MINEURES
10
53.998
20
25.922
0
VERTEX
8
CONTOURS_MINEURES
10
56.133
20
24.872
0
VERTEX
8
CONTOURS_MINEURES
10
57.002
20
24.500
0
VERTEX
8
CONTOURS_MINEURES
10
57.497
20
24.500
0
VERTEX
8
CONTOURS_MINEURES
10
59.996
20
24.500
0
VERTEX
8
CONTOURS_MINEURES
10
60.367
20
24.375
0
VERTEX
8
CONTOURS_MINEURES
10
61.155
20
24.005
0
VERTEX
8
CONTOURS_MINEURES
10
62.370
20
23.375
0
VERTEX
8
CONTOURS_MINEURES
10
63.000
20
23.322
0
VERTEX
8
CONTOURS_MINEURES
10
63.735
20
23.269
0
VERTEX
8
CONTOURS_MINEURES
10
66.004
20
22.897
0
VERTEX
8
CONTOURS_MINEURES
10
67.894
20
22.897
0
VERTEX
8
CONTOURS_MINEURES
10
68.997
20
22.897
0
VERTEX
8
CONTOURS_MINEURES
10
70.340
20
22.661
0
VERTEX
8
CONTOURS_MINEURES
10
72.001
20
22.735
0
VERTEX
8
CONTOURS_MINEURES
10
73.055
20
22.947
0
VERTEX
8
CONTOURS_MINEURES
10
74.995
20
24.005
0
VERTEX
8
CONTOURS_MINEURES
10
77.999
20
24.005
0
VERTEX
8
CONTOURS_MINEURES
10
81.003
20
25.756
0
VERTEX
8
CONTOURS_MINEURES
10
82.840
20
25.162
0
VERTEX
8
CONTOURS_MINEURES
10
83.996
20
24.634
0
VERTEX
8
CONTOURS_MINEURES
10
86.370
20
24.634
0
VERTEX
8
CONTOURS_MINEURES
10
87.000
20
24.634
0
VERTEX
8
CONTOURS_MINEURES
10
87.343
20
24.347
0
VERTEX
8
CONTOURS_MINEURES
10
90.005
20
24.311
0
VERTEX
8
CONTOURS_MINEURES
10
90.258
20
24.259
0
VERTEX
8
CONTOURS_MINEURES
10
92.998
20
24.550
0
VERTEX
8
CONTOURS_MINEURES
10
95.456
20
24.550
0
VERTEX
8
CONTOURS_MINEURES
10
96.002
20
24.550
0
VERTEX
8
CONTOURS_MINEURES
10
97.965
20
25.036
0
VERTEX
8
CONTOURS_MINEURES
10
98.995
20
25.994
0
VERTEX
8
CONTOURS_MINEURES
10
100.005
20
25.994
0
VERTEX
8
CONTOURS_MINEURES
10
101.999
20
25.994
0
SEQEND
0
POLYLINE
8
CONTOURS_MINEURES
66
1
70
0
0
VERTEX
8
CONTOURS_MINEURES
10
-0.001
20
54.774
0
VERTEX
8
CONTOURS_MINEURES
10
2.493
20
54.515
0
VERTEX
8
CONTOURS_MINEURES
10
3.004
20
54.632
0
VERTEX
8
CONTOURS_MINEURES
10
4.566
20
55.438
0
VERTEX
8
CONTOURS_MINEURES
10
5.997
20
56.939
0
VERTEX
8
CONTOURS_MINEURES
10
6.059
20
56.939
0
VERTEX
8
CONTOURS_MINEURES
10
9.001
20
56.939
0
VERTEX
8
CONTOURS_MINEURES
10
9.032
20
57.001
0
VERTEX
8
CONTOURS_MINEURES
10
9.040
20
57.040
0
VERTEX
8
CONTOURS_MINEURES
10
9.742
20
59.997
0
VERTEX
8
CONTOURS_MINEURES
10
9.742
20
60.738
0
VERTEX
8
CONTOURS_MINEURES
10
9.742
20
63.003
0
VERTEX
8
CONTOURS_MINEURES
10
9.615
20
65.387
0
VERTEX
8
CONTOURS_MINEURES
10
9.594
20
65.999
0
VERTEX
8
CONTOURS_MINEURES
10
9.594
20
66.590
0
VERTEX
8
CONTOURS_MINEURES
10
9.594
20
68.995
0
VERTEX
8
CONTOURS_MINEURES
10
10.073
20
70.928
0
VERTEX
8
CONTOURS_MINEURES
10
10.448
20
72.001
0
VERTEX
8
CONTOURS_MINEURES
10
12.005
20
74.401
0
VERTEX
8
CONTOURS_MINEURES
10
12.526
20
74.997
0
VERTEX
8
CONTOURS_MINEURES
10
12.526
20
77.480
0
VERTEX
8
CONTOURS_MINEURES
10
12.526
20
78.004
0
VERTEX
8
CONTOURS_MINEURES
10
13.772
20
79.231
0
VERTEX
8
CONTOURS_MINEURES
10
14.999
20
80.635
0
VERTEX
8
CONTOURS_MINEURES
10
17.637
20
80.635
0
VERTEX
8
CONTOURS_MINEURES
10
18.003
20
80.635
0
VERTEX
8
CONTOURS_MINEURES
10
18.209
20
80.793
0
VERTEX
8
CONTOURS_MINEURES
10
18.430
20
80.999
0
VERTEX
8
CONTOURS_MINEURES
10
20.996
20
82.758
0
VERTEX
8
CONTOURS_MINEURES
10
21.936
20
83.058
0
VERTEX
8
CONTOURS_MINEURES
10
23.238
20
83.995
0
VERTEX
8
CONTOURS_MINEURES
10
23.238
20
86.238
0
VERTEX
8
CONTOURS_MINEURES
10
23.238
20
87.002
0
VERTEX
8
CONTOURS_MINEURES
10
23.784
20
87.217
0
VERTEX
8
CONTOURS_MINEURES
10
24.000
20
87.449
0
VERTEX
8
CONTOURS_MINEURES
10
24.449
20
87.449
0
VERTEX
8
CONTOURS_MINEURES
10
27.004
20
87.449
0
VERTEX
8
CONTOURS_MINEURES
10
29.081
20
87.919
0
VERTEX
8
CONTOURS_MINEURES
10
29.998
20
88.740
0
VERTEX
8
CONTOURS_MINEURES
10
31.323
20
88.676
0
VERTEX
8
CONTOURS_MINEURES
10
32.648
20
89.997
0
VERTEX
8
CONTOURS_MINEURES
10
32.648
20
92.650
0
VERTEX
8
CONTOURS_MINEURES
10
32.648
20
93.004
0
SEQEND
0
POLYLINE
8
CONTOURS_MINEURES
66
1
70
0
0
VERTEX
8
CONTOURS_MINEURES
10
43.802
20
93.004
0
VERTEX
8
CONTOURS_MINEURES
10
43.802
20
91.804
0
VERTEX
8
CONTOURS_MINEURES
10
43.802
20
89.997
0
VERTEX
8
CONTOURS_MINEURES
10
43.474
20
88.525
0
VERTEX
8
CONTOURS_MINEURES
10
43.210
20
87.002
0
VERTEX
8
CONTOURS_MINEURES
10
43.210
20
85.207
0
VERTEX
8
CONTOURS_MINEURES
10
43.210
20
83.995
0
VERTEX
8
CONTOURS_MINEURES
10
43.235
20
82.762
0
VERTEX
8
CONTOURS_MINEURES
10
44.090
20
80.999
0
VERTEX
8
CONTOURS_MINEURES
10
44.009
20
78.992
0
VERTEX
8
CONTOURS_MINEURES
10
44.130
20
78.004
0
VERTEX
8
CONTOURS_MINEURES
10
44.130
20
75.868
0
VERTEX
8
CONTOURS_MINEURES
10
44.130
20
74.997
0
VERTEX
8
CONTOURS_MINEURES
10
43.828
20
73.828
0
VERTEX
8
CONTOURS_MINEURES
10
43.749
20
72.001
0
VERTEX
8
CONTOURS_MINEURES
10
43.468
20
70.466
0
VERTEX
8
CONTOURS_MINEURES
10
43.867
20
68.995
0
VERTEX
8
CONTOURS_MINEURES
10
43.867
20
67.864
0
VERTEX
8
CONTOURS_MINEURES
10
43.867
20
65.999
0
VERTEX
8
CONTOURS_MINEURES
10
43.975
20
64.026
0
VERTEX
8
CONTOURS_MINEURES
10
43.531
20
63.003
0
VERTEX
8
CONTOURS_MINEURES
10
43.531
20
61.469
0
VERTEX
8
CONTOURS_MINEURES
10
43.531
20
59.997
0
VERTEX
8
CONTOURS_MINEURES
10
43.913
20
58.086
0
VERTEX
8
CONTOURS_MINEURES
10
44.235
20
57.001
0
VERTEX
8
CONTOURS_MINEURES
10
44.576
20
56.580
0
VERTEX
8
CONTOURS_MINEURES
10
44.997
20
54.266
0
VERTEX
8
CONTOURS_MINEURES
10
45.204
20
54.005
0
VERTEX
8
CONTOURS_MINEURES
10
45.204
20
53.798
0
VERTEX
8
CONTOURS_MINEURES
10
45.204
20
50.999
0
VERTEX
8
CONTOURS_MINEURES
10
45.947
20
48.951
0
VERTEX
8
CONTOURS_MINEURES
10
45.998
20
48.003
0
VERTEX
8
CONTOURS_MINEURES
10
46.683
20
46.684
0
VERTEX
8
CONTOURS_MINEURES
10
46.900
20
44.996
0
VERTEX
8
CONTOURS_MINEURES
10
46.900
20
43.098
0
VERTEX
8
CONTOURS_MINEURES
10
46.900
20
42.001
0
VERTEX
8
CONTOURS_MINEURES
10
47.284
20
41.286
0
VERTEX
8
CONTOURS_MINEURES
10
48.001
20
40.090
0
VERTEX
8
CONTOURS_MINEURES
10
49.088
20
40.090
0
VERTEX
8
CONTOURS_MINEURES
10
51.005
20
40.090
0
VERTEX
8
CONTOURS_MINEURES
10
53.998
20
39.005
0
VERTEX
8
CONTOURS_MINEURES
10
57.002
20
36.692
0
VERTEX
8
CONTOURS_MINEURES
10
57.693
20
36.692
0
VERTEX
8
CONTOURS_MINEURES
10
59.996
20
36.692
0
VERTEX
8
CONTOURS_MINEURES
10
61.077
20
35.998
0
VERTEX
8
CONTOURS_MINEURES
10
61.077
20
34.081
0
VERTEX
8
CONTOURS_MINEURES
10
61.077
20
33.003
0
VERTEX
8
CONTOURS_MINEURES
10
63.000
20
32.201
0
VERTEX
8
CONTOURS_MINEURES
10
65.167
20
32.165
0
VERTEX
8
CONTOURS_MINEURES
10
66.004
20
32.020
0
VERTEX
8
CONTOURS_MINEURES
10
68.019
20
32.020
0
VERTEX
8
CONTOURS_MINEURES
10
68.997
20
32.020
0
VERTEX
8
CONTOURS_MINEURES
10
70.842
20
31.842
0
VERTEX
8
CONTOURS_MINEURES
10
72.001
20
31.731
0
VERTEX
8
CONTOURS_MINEURES
10
72.584
20
32.417
0
VERTEX
8
CONTOURS_MINEURES
10
73.569
20
33.003
0
VERTEX
8
CONTOURS_MINEURES
10
73.569
20
34.572
0
VERTEX
8
CONTOURS_MINEURES
10
73.569
20
35.998
0
VERTEX
8
CONTOURS_MINEURES
10
73.906
20
37.092
0
VERTEX
8
CONTOURS_MINEURES
10
74.995
20
38.732
0
VERTEX
8
CONTOURS_MINEURES
10
77.726
20
38.732
0
VERTEX
8
CONTOURS_MINEURES
10
77.999
20
38.732
0
VERTEX
8
CONTOURS_MINEURES
10
78.077
20
39.005
0
VERTEX
8
CONTOURS_MINEURES
10
78.527
20
41.474
0
VERTEX
8
CONTOURS_MINEURES
10
79.067
20
42.001
0
VERTEX
8
CONTOURS_MINEURES
10
79.067
20
43.931
0
VERTEX
8
CONTOURS_MINEURES
10
79.067
20
44.996
0
VERTEX
8
CONTOURS_MINEURES
10
81.003
20
45.944
0
VERTEX
8
CONTOURS_MINEURES
10
83.122
20
45.875
0
VERTEX
8
CONTOURS_MINEURES
10
83.996
20
46.113
0
VERTEX
8
CONTOURS_MINEURES
10
85.885
20
46.113
0
VERTEX
8
CONTOURS_MINEURES
10
87.000
20
46.113
0
VERTEX
8
CONTOURS_MINEURES
10
88.736
20
46.734
0
VERTEX
8
CONTOURS_MINEURES
10
89.790
20
44.996
0
VERTEX
8
CONTOURS_MINEURES
10
89.790
20
42.215
0
VERTEX
8
CONTOURS_MINEURES
10
89.790
20
42.001
0
VERTEX
8
CONTOURS_MINEURES
10
89.895
20
41.892
0
VERTEX
8
CONTOURS_MINEURES
10
88.874
20
39.005
0
VERTEX
8
CONTOURS_MINEURES
10
89.062
20
38.062
0
VERTEX
8
CONTOURS_MINEURES
10
89.191
20
35.998
0
VERTEX
8
CONTOURS_MINEURES
10
89.191
20
33.814
0
VERTEX
8
CONTOURS_MINEURES
10
89.191
20
33.003
0
VERTEX
8
CONTOURS_MINEURES
10
90.005
20
32.171
0
VERTEX
8
CONTOURS_MINEURES
10
91.221
20
31.781
0
VERTEX
8
CONTOURS_MINEURES
10
92.998
20
30.933
0
VERTEX
8
CONTOURS_MINEURES
10
93.934
20
30.933
0
VERTEX
8
CONTOURS_MINEURES
10
96.002
20
30.933
0
VERTEX
8
CONTOURS_MINEURES
10
97.045
20
31.955
0
VERTEX
8
CONTOURS_MINEURES
10
97.712
20
33.003
0
VERTEX
8
CONTOURS_MINEURES
10
97.712
20
34.287
0
VERTEX
8
CONTOURS_MINEURES
10
97.712
20
35.998
0
VERTEX
8
CONTOURS_MINEURES
10
97.147
20
37.856
0
VERTEX
8
CONTOURS_MINEURES
10
97.000
20
39.005
0
VERTEX
8
CONTOURS_MINEURES
10
96.002
20
41.296
0
VERTEX
8
CONTOURS_MINEURES
10
95.295
20
41.296
0
VERTEX
8
CONTOURS_MINEURES
10
92.998
20
41.296
0
VERTEX
8
CONTOURS_MINEURES
10
90.432
20
42.001
0
VERTEX
8
CONTOURS_MINEURES
10
90.432
20
42.429
0
VERTEX
8
CONTOURS_MINEURES
10
90.432
20
44.996
0
VERTEX
8
CONTOURS_MINEURES
10
92.998
20
46.500
0
VERTEX
8
CONTOURS_MINEURES
10
94.500
20
46.500
0
VERTEX
8
CONTOURS_MINEURES
10
96.002
20
46.500
0
VERTEX
8
CONTOURS_MINEURES
10
96.475
20
47.528
0
VERTEX
8
CONTOURS_MINEURES
10
97.161
20
48.003
0
VERTEX
8
CONTOURS_MINEURES
10
98.995
20
48.733
0
VERTEX
8
CONTOURS_MINEURES
10
101.268
20
48.733
0
VERTEX
8
CONTOURS_MINEURES
10
101.999
20
48.733
0
SEQEND
0
POLYLINE
8
CONTOURS_MINEURES
66
1
70
0
0
VERTEX
8
CONTOURS_MINEURES
10
-0.001
20
57.001
0
VERTEX
8
CONTOURS_MINEURES
10
3.004
20
58.022
0
VERTEX
8
CONTOURS_MINEURES
10
4.226
20
59.997
0
VERTEX
8
CONTOURS_MINEURES
10
4.226
20
61.225
0
VERTEX
8
CONTOURS_MINEURES
10
4.226
20
63.003
0
VERTEX
8
CONTOURS_MINEURES
10
4.620
20
64.381
0
VERTEX
8
CONTOURS_MINEURES
10
4.531
20
65.999
0
VERTEX
8
CONTOURS_MINEURES
10
4.531
20
67.528
0
VERTEX
8
CONTOURS_MINEURES
10
4.531
20
68.995
0
VERTEX
8
CONTOURS_MINEURES
10
5.045
20
71.045
0
VERTEX
8
CONTOURS_MINEURES
10
5.343
20
72.001
0
VERTEX
8
CONTOURS_MINEURES
10
5.568
20
72.430
0
VERTEX
8
CONTOURS_MINEURES
10
5.997
20
73.176
0
VERTEX
8
CONTOURS_MINEURES
10
7.175
20
73.176
0
VERTEX
8
CONTOURS_MINEURES
10
9.001
20
73.176
0
VERTEX
8
CONTOURS_MINEURES
10
10.183
20
74.997
0
VERTEX
8
CONTOURS_MINEURES
10
10.183
20
76.180
0
VERTEX
8
CONTOURS_MINEURES
10
10.183
20
78.004
0
VERTEX
8
CONTOURS_MINEURES
10
12.005
20
80.427
0
VERTEX
8
CONTOURS_MINEURES
10
12.293
20
80.711
0
VERTEX
8
CONTOURS_MINEURES
10
12.546
20
80.999
0
VERTEX
8
CONTOURS_MINEURES
10
14.999
20
82.927
0
VERTEX
8
CONTOURS_MINEURES
10
16.069
20
82.927
0
VERTEX
8
CONTOURS_MINEURES
10
18.003
20
82.927
0
VERTEX
8
CONTOURS_MINEURES
10
19.462
20
83.995
0
VERTEX
8
CONTOURS_MINEURES
10
19.462
20
85.461
0
VERTEX
8
CONTOURS_MINEURES
10
19.462
20
87.002
0
VERTEX
8
CONTOURS_MINEURES
10
20.474
20
87.524
0
VERTEX
8
CONTOURS_MINEURES
10
20.996
20
87.942
0
VERTEX
8
CONTOURS_MINEURES
10
22.472
20
88.526
0
VERTEX
8
CONTOURS_MINEURES
10
23.848
20
89.997
0
VERTEX
8
CONTOURS_MINEURES
10
23.848
20
90.149
0
VERTEX
8
CONTOURS_MINEURES
10
23.848
20
93.004
0
SEQEND
0
POLYLINE
8
CONTOURS_MINEURES
66
1
70
0
0
VERTEX
8
CONTOURS_MINEURES
10
46.802
20
93.004
0
VERTEX
8
CONTOURS_MINEURES
10
46.802
20
91.197
0
VERTEX
8
CONTOURS_MINEURES
10
46.802
20
89.997
0
VERTEX
8
CONTOURS_MINEURES
10
46.499
20
88.499
0
VERTEX
8
CONTOURS_MINEURES
10
46.526
20
87.002
0
VERTEX
8
CONTOURS_MINEURES
10
46.526
20
85.471
0
VERTEX
8
CONTOURS_MINEURES
10
46.526
20
83.995
0
VERTEX
8
CONTOURS_MINEURES
10
46.250
20
82.745
0
VERTEX
8
CONTOURS_MINEURES
10
46.284
20
80.999
0
VERTEX
8
CONTOURS_MINEURES
10
46.147
20
79.151
0
VERTEX
8
CONTOURS_MINEURES
10
45.949
20
78.004
0
VERTEX
8
CONTOURS_MINEURES
10
45.949
20
77.050
0
VERTEX
8
CONTOURS_MINEURES
10
45.949
20
74.997
0
VERTEX
8
CONTOURS_MINEURES
10
45.804
20
72.807
0
VERTEX
8
CONTOURS_MINEURES
10
45.751
20
72.001
0
VERTEX
8
CONTOURS_MINEURES
10
46.016
20
70.981
0
VERTEX
8
CONTOURS_MINEURES
10
46.538
20
68.995
0
VERTEX
8
CONTOURS_MINEURES
10
46.538
20
67.536
0
VERTEX
8
CONTOURS_MINEURES
10
46.538
20
65.999
0
VERTEX
8
CONTOURS_MINEURES
10
48.001
20
64.054
0
VERTEX
8
CONTOURS_MINEURES
10
49.055
20
64.054
0
VERTEX
8
CONTOURS_MINEURES
10
51.005
20
64.054
0
VERTEX
8
CONTOURS_MINEURES
10
53.571
20
63.003
0
VERTEX
8
CONTOURS_MINEURES
10
53.571
20
62.574
0
VERTEX
8
CONTOURS_MINEURES
10
53.571
20
59.997
0
VERTEX
8
CONTOURS_MINEURES
10
53.781
20
59.780
0
VERTEX
8
CONTOURS_MINEURES
10
53.998
20
59.773
0
VERTEX
8
CONTOURS_MINEURES
10
54.302
20
59.694
0
VERTEX
8
CONTOURS_MINEURES
10
57.002
20
58.341
0
VERTEX
8
CONTOURS_MINEURES
10
58.341
20
58.341
0
VERTEX
8
CONTOURS_MINEURES
10
59.996
20
58.341
0
VERTEX
8
CONTOURS_MINEURES
10
62.518
20
57.481
0
VERTEX
8
CONTOURS_MINEURES
10
63.000
20
57.418
0
VERTEX
8
CONTOURS_MINEURES
10
63.454
20
57.454
0
VERTEX
8
CONTOURS_MINEURES
10
64.314
20
57.001
0
VERTEX
8
CONTOURS_MINEURES
10
65.437
20
56.435
0
VERTEX
8
CONTOURS_MINEURES
10
66.004
20
56.304
0
VERTEX
8
CONTOURS_MINEURES
10
68.301
20
56.304
0
VERTEX
8
CONTOURS_MINEURES
10
68.997
20
56.304
0
VERTEX
8
CONTOURS_MINEURES
10
69.986
20
56.015
0
VERTEX
8
CONTOURS_MINEURES
10
72.001
20
55.621
0
VERTEX
8
CONTOURS_MINEURES
10
74.745
20
54.005
0
VERTEX
8
CONTOURS_MINEURES
10
74.745
20
53.755
0
VERTEX
8
CONTOURS_MINEURES
10
74.745
20
50.999
0
VERTEX
8
CONTOURS_MINEURES
10
74.995
20
50.887
0
VERTEX
8
CONTOURS_MINEURES
10
75.107
20
50.887
0
VERTEX
8
CONTOURS_MINEURES
10
77.999
20
50.887
0
VERTEX
8
CONTOURS_MINEURES
10
80.767
20
50.763
0
VERTEX
8
CONTOURS_MINEURES
10
81.003
20
50.776
0
VERTEX
8
CONTOURS_MINEURES
10
81.649
20
50.999
0
VERTEX
8
CONTOURS_MINEURES
10
81.649
20
53.357
0
VERTEX
8
CONTOURS_MINEURES
10
81.649
20
54.005
0
VERTEX
8
CONTOURS_MINEURES
10
82.898
20
55.105
0
VERTEX
8
CONTOURS_MINEURES
10
83.996
20
55.085
0
VERTEX
8
CONTOURS_MINEURES
10
85.079
20
55.085
0
VERTEX
8
CONTOURS_MINEURES
10
87.000
20
55.085
0
VERTEX
8
CONTOURS_MINEURES
10
89.481
20
57.001
0
VERTEX
8
CONTOURS_MINEURES
10
90.005
20
57.446
0
VERTEX
8
CONTOURS_MINEURES
10
91.805
20
58.195
0
VERTEX
8
CONTOURS_MINEURES
10
92.998
20
59.847
0
VERTEX
8
CONTOURS_MINEURES
10
93.148
20
59.847
0
VERTEX
8
CONTOURS_MINEURES
10
96.002
20
59.847
0
VERTEX
8
CONTOURS_MINEURES
10
96.410
20
59.588
0
VERTEX
8
CONTOURS_MINEURES
10
98.995
20
57.851
0
VERTEX
8
CONTOURS_MINEURES
10
99.847
20
57.851
0
VERTEX
8
CONTOURS_MINEURES
10
101.999
20
57.851
0
SEQEND
0
POLYLINE
8
CONTOURS_MINEURES
66
1
70
0
0
VERTEX
8
CONTOURS_MINEURES
10
-0.001
20
59.814
0
VERTEX
8
CONTOURS_MINEURES
10
0.309
20
59.997
0
VERTEX
8
CONTOURS_MINEURES
10
0.309
20
62.693
0
VERTEX
8
CONTOURS_MINEURES
10
0.309
20
63.003
0
VERTEX
8
CONTOURS_MINEURES
10
0.600
20
63.603
0
VERTEX
8
CONTOURS_MINEURES
10
2.090
20
65.999
0
VERTEX
8
CONTOURS_MINEURES
10
2.090
20
66.910
0
VERTEX
8
CONTOURS_MINEURES
10
2.090
20
68.995
0
VERTEX
8
CONTOURS_MINEURES
10
3.004
20
70.574
0
VERTEX
8
CONTOURS_MINEURES
10
3.449
20
72.001
0
VERTEX
8
CONTOURS_MINEURES
10
4.326
20
73.673
0
VERTEX
8
CONTOURS_MINEURES
10
5.087
20
74.997
0
VERTEX
8
CONTOURS_MINEURES
10
5.087
20
75.911
0
VERTEX
8
CONTOURS_MINEURES
10
5.087
20
78.004
0
VERTEX
8
CONTOURS_MINEURES
10
5.454
20
78.547
0
VERTEX
8
CONTOURS_MINEURES
10
5.997
20
79.287
0
VERTEX
8
CONTOURS_MINEURES
10
7.714
20
79.287
0
VERTEX
8
CONTOURS_MINEURES
10
9.001
20
79.287
0
VERTEX
8
CONTOURS_MINEURES
10
10.308
20
80.999
0
VERTEX
8
CONTOURS_MINEURES
10
11.240
20
81.762
0
VERTEX
8
CONTOURS_MINEURES
10
12.005
20
82.479
0
VERTEX
8
CONTOURS_MINEURES
10
13.855
20
83.995
0
VERTEX
8
CONTOURS_MINEURES
10
13.855
20
85.144
0
VERTEX
8
CONTOURS_MINEURES
10
13.855
20
87.002
0
VERTEX
8
CONTOURS_MINEURES
10
14.999
20
87.785
0
VERTEX
8
CONTOURS_MINEURES
10
15.784
20
87.785
0
VERTEX
8
CONTOURS_MINEURES
10
18.003
20
87.785
0
VERTEX
8
CONTOURS_MINEURES
10
19.461
20
88.537
0
VERTEX
8
CONTOURS_MINEURES
10
20.996
20
89.769
0
VERTEX
8
CONTOURS_MINEURES
10
21.160
20
89.834
0
VERTEX
8
CONTOURS_MINEURES
10
21.313
20
89.997
0
VERTEX
8
CONTOURS_MINEURES
10
21.313
20
92.687
0
VERTEX
8
CONTOURS_MINEURES
10
21.313
20
93.004
0
SEQEND
0
POLYLINE
8
CONTOURS_MINEURES
66
1
70
0
0
VERTEX
8
CONTOURS_MINEURES
10
52.898
20
93.004
0
VERTEX
8
CONTOURS_MINEURES
10
52.898
20
91.102
0
VERTEX
8
CONTOURS_MINEURES
10
52.898
20
89.997
0
VERTEX
8
CONTOURS_MINEURES
10
53.250
20
87.751
0
VERTEX
8
CONTOURS_MINEURES
10
53.264
20
87.002
0
VERTEX
8
CONTOURS_MINEURES
10
53.264
20
86.264
0
VERTEX
8
CONTOURS_MINEURES
10
53.264
20
83.995
0
VERTEX
8
CONTOURS_MINEURES
10
53.049
20
83.045
0
VERTEX
8
CONTOURS_MINEURES
10
52.954
20
80.999
0
VERTEX
8
CONTOURS_MINEURES
10
52.502
20
79.501
0
VERTEX
8
CONTOURS_MINEURES
10
52.423
20
78.004
0
VERTEX
8
CONTOURS_MINEURES
10
52.423
20
76.579
0
VERTEX
8
CONTOURS_MINEURES
10
52.423
20
74.997
0
VERTEX
8
CONTOURS_MINEURES
10
52.127
20
73.125
0
VERTEX
8
CONTOURS_MINEURES
10
52.365
20
72.001
0
VERTEX
8
CONTOURS_MINEURES
10
53.136
20
71.135
0
VERTEX
8
CONTOURS_MINEURES
10
53.998
20
69.424
0
VERTEX
8
CONTOURS_MINEURES
10
55.500
20
68.995
0
VERTEX
8
CONTOURS_MINEURES
10
55.500
20
67.497
0
VERTEX
8
CONTOURS_MINEURES
10
55.500
20
65.999
0
VERTEX
8
CONTOURS_MINEURES
10
56.910
20
65.907
0
VERTEX
8
CONTOURS_MINEURES
10
57.002
20
65.812
0
VERTEX
8
CONTOURS_MINEURES
10
57.189
20
65.812
0
VERTEX
8
CONTOURS_MINEURES
10
59.996
20
65.812
0
VERTEX
8
CONTOURS_MINEURES
10
60.997
20
65.999
0
VERTEX
8
CONTOURS_MINEURES
10
60.997
20
66.998
0
VERTEX
8
CONTOURS_MINEURES
10
60.997
20
68.995
0
VERTEX
8
CONTOURS_MINEURES
10
62.499
20
69.496
0
VERTEX
8
CONTOURS_MINEURES
10
63.000
20
69.596
0
VERTEX
8
CONTOURS_MINEURES
10
63.735
20
69.731
0
VERTEX
8
CONTOURS_MINEURES
10
66.004
20
70.316
0
VERTEX
8
CONTOURS_MINEURES
10
67.319
20
70.316
0
VERTEX
8
CONTOURS_MINEURES
10
68.997
20
70.316
0
VERTEX
8
CONTOURS_MINEURES
10
70.775
20
70.774
0
VERTEX
8
CONTOURS_MINEURES
10
72.001
20
71.076
0
VERTEX
8
CONTOURS_MINEURES
10
72.714
20
71.285
0
VERTEX
8
CONTOURS_MINEURES
10
74.139
20
72.001
0
VERTEX
8
CONTOURS_MINEURES
10
74.995
20
72.415
0
VERTEX
8
CONTOURS_MINEURES
10
75.409
20
72.415
0
VERTEX
8
CONTOURS_MINEURES
10
77.999
20
72.415
0
VERTEX
8
CONTOURS_MINEURES
10
80.056
20
72.945
0
VERTEX
8
CONTOURS_MINEURES
10
81.003
20
73.169
0
VERTEX
8
CONTOURS_MINEURES
10
82.327
20
73.326
0
VERTEX
8
CONTOURS_MINEURES
10
83.996
20
73.388
0
VERTEX
8
CONTOURS_MINEURES
10
85.610
20
73.388
0
VERTEX
8
CONTOURS_MINEURES
10
87.000
20
73.388
0
VERTEX
8
CONTOURS_MINEURES
10
88.789
20
73.784
0
VERTEX
8
CONTOURS_MINEURES
10
90.005
20
74.088
0
VERTEX
8
CONTOURS_MINEURES
10
92.998
20
74.997
0
VERTEX
8
CONTOURS_MINEURES
10
96.002
20
74.997
0
VERTEX
8
CONTOURS_MINEURES
10
96.002
20
78.004
0
VERTEX
8
CONTOURS_MINEURES
10
98.995
20
79.607
0
VERTEX
8
CONTOURS_MINEURES
10
100.392
20
79.607
0
VERTEX
8
CONTOURS_MINEURES
10
101.999
20
79.607
0
SEQEND
0
POLYLINE
8
CONTOURS_MINEURES
66
1
70
0
0
VERTEX
8
CONTOURS_MINEURES
10
-0.001
20
71.382
0
VERTEX
8
CONTOURS_MINEURES
10
0.362
20
72.001
0
VERTEX
8
CONTOURS_MINEURES
10
1.585
20
73.416
0
VERTEX
8
CONTOURS_MINEURES
10
3.004
20
74.762
0
VERTEX
8
CONTOURS_MINEURES
10
3.084
20
74.916
0
VERTEX
8
CONTOURS_MINEURES
10
3.131
20
74.997
0
VERTEX
8
CONTOURS_MINEURES
10
3.131
20
77.876
0
VERTEX
8
CONTOURS_MINEURES
10
3.131
20
78.004
0
VERTEX
8
CONTOURS_MINEURES
10
4.287
20
79.715
0
VERTEX
8
CONTOURS_MINEURES
10
5.228
20
80.999
0
VERTEX
8
CONTOURS_MINEURES
10
5.997
20
81.655
0
VERTEX
8
CONTOURS_MINEURES
10
6.655
20
81.655
0
VERTEX
8
CONTOURS_MINEURES
10
9.001
20
81.655
0
VERTEX
8
CONTOURS_MINEURES
10
10.289
20
82.710
0
VERTEX
8
CONTOURS_MINEURES
10
11.662
20
83.995
0
VERTEX
8
CONTOURS_MINEURES
10
11.662
20
86.658
0
VERTEX
8
CONTOURS_MINEURES
10
11.662
20
87.002
0
VERTEX
8
CONTOURS_MINEURES
10
11.821
20
87.185
0
VERTEX
8
CONTOURS_MINEURES
10
12.005
20
87.294
0
VERTEX
8
CONTOURS_MINEURES
10
12.857
20
87.854
0
VERTEX
8
CONTOURS_MINEURES
10
14.999
20
89.321
0
VERTEX
8
CONTOURS_MINEURES
10
17.325
20
89.321
0
VERTEX
8
CONTOURS_MINEURES
10
18.003
20
89.321
0
VERTEX
8
CONTOURS_MINEURES
10
18.448
20
89.551
0
VERTEX
8
CONTOURS_MINEURES
10
19.004
20
89.997
0
VERTEX
8
CONTOURS_MINEURES
10
19.004
20
91.003
0
VERTEX
8
CONTOURS_MINEURES
10
19.004
20
93.004
0
SEQEND
0
POLYLINE
8
CONTOURS_MINEURES
66
1
70
0
0
VERTEX
8
CONTOURS_MINEURES
10
90.005
20
93.004
0
VERTEX
8
CONTOURS_MINEURES
10
90.005
20
89.997
0
VERTEX
8
CONTOURS_MINEURES
10
91.668
20
88.666
0
VERTEX
8
CONTOURS_MINEURES
10
92.998
20
88.336
0
VERTEX
8
CONTOURS_MINEURES
10
94.664
20
88.336
0
VERTEX
8
CONTOURS_MINEURES
10
96.002
20
88.336
0
VERTEX
8
CONTOURS_MINEURES
10
97.526
20
88.472
0
VERTEX
8
CONTOURS_MINEURES
10
98.995
20
88.361
0
VERTEX
8
CONTOURS_MINEURES
10
100.359
20
88.361
0
VERTEX
8
CONTOURS_MINEURES
10
101.999
20
88.361
0
SEQEND
0
POLYLINE
8
CONTOURS_MINEURES
66
1
70
0
0
VERTEX
8
CONTOURS_MINEURES
10
56.851
20
93.004
0
VERTEX
8
CONTOURS_MINEURES
10
56.851
20
92.853
0
VERTEX
8
CONTOURS_MINEURES
10
56.851
20
89.997
0
VERTEX
8
CONTOURS_MINEURES
10
57.002
20
89.551
0
VERTEX
8
CONTOURS_MINEURES
10
59.550
20
89.551
0
VERTEX
8
CONTOURS_MINEURES
10
59.996
20
89.551
0
VERTEX
8
CONTOURS_MINEURES
10
62.624
20
87.376
0
VERTEX
8
CONTOURS_MINEURES
10
63.000
20
87.048
0
VERTEX
8
CONTOURS_MINEURES
10
63.047
20
87.048
0
VERTEX
8
CONTOURS_MINEURES
10
63.751
20
87.002
0
VERTEX
8
CONTOURS_MINEURES
10
63.751
20
86.250
0
VERTEX
8
CONTOURS_MINEURES
10
63.751
20
83.995
0
VERTEX
8
CONTOURS_MINEURES
10
65.856
20
83.848
0
VERTEX
8
CONTOURS_MINEURES
10
66.004
20
83.843
0
VERTEX
8
CONTOURS_MINEURES
10
66.156
20
83.843
0
VERTEX
8
CONTOURS_MINEURES
10
68.997
20
83.843
0
VERTEX
8
CONTOURS_MINEURES
10
69.641
20
83.995
0
VERTEX
8
CONTOURS_MINEURES
10
69.641
20
84.639
0
VERTEX
8
CONTOURS_MINEURES
10
69.641
20
87.002
0
VERTEX
8
CONTOURS_MINEURES
10
71.555
20
87.447
0
VERTEX
8
CONTOURS_MINEURES
10
72.001
20
87.533
0
VERTEX
8
CONTOURS_MINEURES
10
72.660
20
87.661
0
VERTEX
8
CONTOURS_MINEURES
10
74.995
20
88.254
0
VERTEX
8
CONTOURS_MINEURES
10
76.743
20
88.254
0
VERTEX
8
CONTOURS_MINEURES
10
77.999
20
88.254
0
VERTEX
8
CONTOURS_MINEURES
10
79.482
20
88.518
0
VERTEX
8
CONTOURS_MINEURES
10
81.003
20
88.966
0
VERTEX
8
CONTOURS_MINEURES
10
83.622
20
89.997
0
VERTEX
8
CONTOURS_MINEURES
10
83.622
20
92.628
0
VERTEX
8
CONTOURS_MINEURES
10
83.622
20
93.004
0
SEQEND
0
POLYLINE
8
CONTOURS_MINEURES
66
1
70
0
0
VERTEX
8
CONTOURS_MINEURES
10
-0.001
20
78.478
0
VERTEX
8
CONTOURS_MINEURES
10
1.777
20
79.777
0
VERTEX
8
CONTOURS_MINEURES
10
3.004
20
80.710
0
VERTEX
8
CONTOURS_MINEURES
10
3.120
20
80.882
0
VERTEX
8
CONTOURS_MINEURES
10
3.206
20
80.999
0
VERTEX
8
CONTOURS_MINEURES
10
5.997
20
83.382
0
VERTEX
8
CONTOURS_MINEURES
10
8.386
20
83.382
0
VERTEX
8
CONTOURS_MINEURES
10
9.001
20
83.382
0
VERTEX
8
CONTOURS_MINEURES
10
9.339
20
83.658
0
VERTEX
8
CONTOURS_MINEURES
10
9.698
20
83.995
0
VERTEX
8
CONTOURS_MINEURES
10
9.698
20
84.693
0
VERTEX
8
CONTOURS_MINEURES
10
9.698
20
87.002
0
VERTEX
8
CONTOURS_MINEURES
10
10.769
20
88.234
0
VERTEX
8
CONTOURS_MINEURES
10
12.005
20
88.968
0
VERTEX
8
CONTOURS_MINEURES
10
13.572
20
89.997
0
VERTEX
8
CONTOURS_MINEURES
10
13.572
20
91.430
0
VERTEX
8
CONTOURS_MINEURES
10
13.572
20
93.004
0
SEQEND
0
POLYLINE
8
CONTOURS_MINEURES
66
1
70
0
0
VERTEX
8
CONTOURS_MINEURES
10
-0.001
20
81.924
0
VERTEX
8
CONTOURS_MINEURES
10
1.093
20
82.905
0
VERTEX
8
CONTOURS_MINEURES
10
3.004
20
83.375
0
VERTEX
8
CONTOURS_MINEURES
10
3.803
20
83.995
0
VERTEX
8
CONTOURS_MINEURES
10
3.803
20
84.798
0
VERTEX
8
CONTOURS_MINEURES
10
3.803
20
87.002
0
VERTEX
8
CONTOURS_MINEURES
10
4.874
20
88.125
0
VERTEX
8
CONTOURS_MINEURES
10
5.997
20
88.460
0
VERTEX
8
CONTOURS_MINEURES
10
7.459
20
88.460
0
VERTEX
8
CONTOURS_MINEURES
10
9.001
20
88.460
0
VERTEX
8
CONTOURS_MINEURES
10
9.717
20
89.284
0
VERTEX
8
CONTOURS_MINEURES
10
10.919
20
89.997
0
VERTEX
8
CONTOURS_MINEURES
10
10.919
20
91.917
0
VERTEX
8
CONTOURS_MINEURES
10
10.919
20
93.004
0
SEQEND
0
POLYLINE
8
CONTOURS_MINEURES
66
1
70
0
0
VERTEX
8
CONTOURS_MINEURES
10
-0.001
20
89.203
0
VERTEX
8
CONTOURS_MINEURES
10
2.601
20
89.596
0
VERTEX
8
CONTOURS_MINEURES
10
3.004
20
89.730
0
VERTEX
8
CONTOURS_MINEURES
10
3.134
20
89.867
0
VERTEX
8
CONTOURS_MINEURES
10
3.572
20
89.997
0
VERTEX
8
CONTOURS_MINEURES
10
3.572
20
92.433
0
VERTEX
8
CONTOURS_MINEURES
10
3.572
20
93.004
0
SEQEND
0
POLYLINE
8
CONTOURS_MAJEURES
66
1
70
0
0
VERTEX
8
CONTOURS_MAJEURES
10
-0.001
20
25.451
0
VERTEX
8
CONTOURS_MAJEURES
10
1.467
20
27.000
0
VERTEX
8
CONTOURS_MAJEURES
10
1.467
20
28.533
0
VERTEX
8
CONTOURS_MAJEURES
10
1.467
20
29.996
0
VERTEX
8
CONTOURS_MAJEURES
10
3.004
20
32.446
0
VERTEX
8
CONTOURS_MAJEURES
10
3.737
20
33.003
0
VERTEX
8
CONTOURS_MAJEURES
10
3.737
20
35.264
0
VERTEX
8
CONTOURS_MAJEURES
10
3.737
20
35.998
0
VERTEX
8
CONTOURS_MAJEURES
10
5.997
20
36.914
0
VERTEX
8
CONTOURS_MAJEURES
10
8.087
20
36.914
0
VERTEX
8
CONTOURS_MAJEURES
10
9.001
20
36.914
0
VERTEX
8
CONTOURS_MAJEURES
10
11.251
20
36.753
0
VERTEX
8
CONTOURS_MAJEURES
10
12.005
20
36.835
0
VERTEX
8
CONTOURS_MAJEURES
10
13.123
20
37.121
0
VERTEX
8
CONTOURS_MAJEURES
10
13.904
20
35.998
0
VERTEX
8
CONTOURS_MAJEURES
10
13.904
20
34.903
0
VERTEX
8
CONTOURS_MAJEURES
10
13.904
20
33.003
0
VERTEX
8
CONTOURS_MAJEURES
10
13.167
20
31.836
0
VERTEX
8
CONTOURS_MAJEURES
10
12.754
20
29.996
0
VERTEX
8
CONTOURS_MAJEURES
10
12.754
20
29.247
0
VERTEX
8
CONTOURS_MAJEURES
10
12.754
20
27.000
0
VERTEX
8
CONTOURS_MAJEURES
10
12.005
20
25.143
0
VERTEX
8
CONTOURS_MAJEURES
10
11.552
20
24.457
0
VERTEX
8
CONTOURS_MAJEURES
10
11.592
20
24.005
0
VERTEX
8
CONTOURS_MAJEURES
10
11.545
20
23.544
0
VERTEX
8
CONTOURS_MAJEURES
10
10.518
20
20.998
0
VERTEX
8
CONTOURS_MAJEURES
10
10.518
20
19.486
0
VERTEX
8
CONTOURS_MAJEURES
10
10.518
20
18.003
0
VERTEX
8
CONTOURS_MAJEURES
10
10.377
20
16.373
0
VERTEX
8
CONTOURS_MAJEURES
10
9.951
20
14.996
0
VERTEX
8
CONTOURS_MAJEURES
10
9.929
20
12.925
0
VERTEX
8
CONTOURS_MAJEURES
10
10.138
20
12.000
0
VERTEX
8
CONTOURS_MAJEURES
10
10.138
20
10.867
0
VERTEX
8
CONTOURS_MAJEURES
10
10.138
20
9.005
0
VERTEX
8
CONTOURS_MAJEURES
10
10.927
20
7.077
0
VERTEX
8
CONTOURS_MAJEURES
10
11.246
20
5.998
0
VERTEX
8
CONTOURS_MAJEURES
10
11.246
20
5.241
0
VERTEX
8
CONTOURS_MAJEURES
10
11.246
20
3.002
0
VERTEX
8
CONTOURS_MAJEURES
10
11.058
20
0.943
0
VERTEX
8
CONTOURS_MAJEURES
10
10.319
20
-0.004
0
SEQEND
0
POLYLINE
8
CONTOURS_MAJEURES
66
1
70
0
0
VERTEX
8
CONTOURS_MAJEURES
10
0.068
20
-0.004
0
VERTEX
8
CONTOURS_MAJEURES
10
-0.001
20
0.047
0
SEQEND
0
POLYLINE
8
CONTOURS_MAJEURES
66
1
70
0
0
VERTEX
8
CONTOURS_MAJEURES
10
62.828
20
-0.004
0
VERTEX
8
CONTOURS_MAJEURES
10
63.000
20
0.075
0
VERTEX
8
CONTOURS_MAJEURES
10
63.222
20
0.218
0
VERTEX
8
CONTOURS_MAJEURES
10
66.004
20
2.013
0
VERTEX
8
CONTOURS_MAJEURES
10
66.989
20
2.013
0
VERTEX
8
CONTOURS_MAJEURES
10
68.997
20
2.013
0
VERTEX
8
CONTOURS_MAJEURES
10
69.512
20
2.487
0
VERTEX
8
CONTOURS_MAJEURES
10
70.070
20
3.002
0
VERTEX
8
CONTOURS_MAJEURES
10
70.070
20
4.072
0
VERTEX
8
CONTOURS_MAJEURES
10
70.070
20
5.998
0
VERTEX
8
CONTOURS_MAJEURES
10
70.856
20
7.145
0
VERTEX
8
CONTOURS_MAJEURES
10
72.001
20
7.228
0
VERTEX
8
CONTOURS_MAJEURES
10
74.012
20
8.017
0
VERTEX
8
CONTOURS_MAJEURES
10
74.995
20
8.647
0
VERTEX
8
CONTOURS_MAJEURES
10
77.642
20
8.647
0
VERTEX
8
CONTOURS_MAJEURES
10
77.999
20
8.647
0
VERTEX
8
CONTOURS_MAJEURES
10
78.207
20
8.796
0
VERTEX
8
CONTOURS_MAJEURES
10
78.579
20
9.005
0
VERTEX
8
CONTOURS_MAJEURES
10
78.579
20
9.583
0
VERTEX
8
CONTOURS_MAJEURES
10
78.579
20
12.000
0
VERTEX
8
CONTOURS_MAJEURES
10
79.758
20
13.242
0
VERTEX
8
CONTOURS_MAJEURES
10
81.003
20
13.514
0
VERTEX
8
CONTOURS_MAJEURES
10
83.553
20
14.552
0
VERTEX
8
CONTOURS_MAJEURES
10
83.996
20
14.788
0
VERTEX
8
CONTOURS_MAJEURES
10
86.792
20
14.788
0
VERTEX
8
CONTOURS_MAJEURES
10
87.000
20
14.788
0
VERTEX
8
CONTOURS_MAJEURES
10
87.154
20
14.843
0
VERTEX
8
CONTOURS_MAJEURES
10
87.659
20
14.996
0
VERTEX
8
CONTOURS_MAJEURES
10
89.328
20
15.673
0
VERTEX
8
CONTOURS_MAJEURES
10
90.005
20
16.022
0
VERTEX
8
CONTOURS_MAJEURES
10
91.181
20
16.178
0
VERTEX
8
CONTOURS_MAJEURES
10
92.998
20
15.741
0
VERTEX
8
CONTOURS_MAJEURES
10
93.742
20
15.741
0
VERTEX
8
CONTOURS_MAJEURES
10
96.002
20
15.741
0
VERTEX
8
CONTOURS_MAJEURES
10
96.622
20
15.619
0
VERTEX
8
CONTOURS_MAJEURES
10
97.191
20
14.996
0
VERTEX
8
CONTOURS_MAJEURES
10
98.995
20
14.425
0
VERTEX
8
CONTOURS_MAJEURES
10
99.568
20
14.425
0
VERTEX
8
CONTOURS_MAJEURES
10
101.999
20
14.425
0
SEQEND
0
POLYLINE
8
CONTOURS_MAJEURES
66
1
70
0
0
VERTEX
8
CONTOURS_MAJEURES
10
-0.001
20
49.560
0
VERTEX
8
CONTOURS_MAJEURES
10
1.885
20
49.118
0
VERTEX
8
CONTOURS_MAJEURES
10
3.004
20
49.039
0
VERTEX
8
CONTOURS_MAJEURES
10
4.394
20
49.394
0
VERTEX
8
CONTOURS_MAJEURES
10
5.997
20
48.847
0
VERTEX
8
CONTOURS_MAJEURES
10
8.154
20
48.847
0
VERTEX
8
CONTOURS_MAJEURES
10
9.001
20
48.847
0
VERTEX
8
CONTOURS_MAJEURES
10
10.070
20
49.933
0
VERTEX
8
CONTOURS_MAJEURES
10
10.696
20
50.999
0
VERTEX
8
CONTOURS_MAJEURES
10
10.696
20
52.309
0
VERTEX
8
CONTOURS_MAJEURES
10
10.696
20
54.005
0
VERTEX
8
CONTOURS_MAJEURES
10
12.005
20
56.673
0
VERTEX
8
CONTOURS_MAJEURES
10
12.093
20
56.913
0
VERTEX
8
CONTOURS_MAJEURES
10
12.108
20
57.001
0
VERTEX
8
CONTOURS_MAJEURES
10
12.454
20
59.548
0
VERTEX
8
CONTOURS_MAJEURES
10
12.607
20
59.997
0
VERTEX
8
CONTOURS_MAJEURES
10
12.607
20
62.399
0
VERTEX
8
CONTOURS_MAJEURES
10
12.607
20
63.003
0
VERTEX
8
CONTOURS_MAJEURES
10
12.864
20
63.863
0
VERTEX
8
CONTOURS_MAJEURES
10
12.778
20
65.999
0
VERTEX
8
CONTOURS_MAJEURES
10
12.778
20
68.222
0
VERTEX
8
CONTOURS_MAJEURES
10
12.778
20
68.995
0
VERTEX
8
CONTOURS_MAJEURES
10
13.812
20
70.810
0
VERTEX
8
CONTOURS_MAJEURES
10
14.373
20
72.001
0
VERTEX
8
CONTOURS_MAJEURES
10
14.999
20
72.716
0
VERTEX
8
CONTOURS_MAJEURES
10
17.286
20
72.716
0
VERTEX
8
CONTOURS_MAJEURES
10
18.003
20
72.716
0
VERTEX
8
CONTOURS_MAJEURES
10
19.344
20
73.654
0
VERTEX
8
CONTOURS_MAJEURES
10
20.769
20
74.997
0
VERTEX
8
CONTOURS_MAJEURES
10
20.769
20
75.225
0
VERTEX
8
CONTOURS_MAJEURES
10
20.769
20
78.004
0
VERTEX
8
CONTOURS_MAJEURES
10
20.897
20
78.102
0
VERTEX
8
CONTOURS_MAJEURES
10
20.996
20
78.194
0
VERTEX
8
CONTOURS_MAJEURES
10
23.228
20
78.773
0
VERTEX
8
CONTOURS_MAJEURES
10
24.000
20
79.177
0
VERTEX
8
CONTOURS_MAJEURES
10
25.177
20
79.177
0
VERTEX
8
CONTOURS_MAJEURES
10
27.004
20
79.177
0
VERTEX
8
CONTOURS_MAJEURES
10
29.193
20
78.809
0
VERTEX
8
CONTOURS_MAJEURES
10
29.998
20
78.688
0
VERTEX
8
CONTOURS_MAJEURES
10
31.714
20
78.004
0
VERTEX
8
CONTOURS_MAJEURES
10
31.714
20
76.715
0
VERTEX
8
CONTOURS_MAJEURES
10
31.714
20
74.997
0
VERTEX
8
CONTOURS_MAJEURES
10
30.904
20
74.093
0
VERTEX
8
CONTOURS_MAJEURES
10
31.717
20
72.001
0
VERTEX
8
CONTOURS_MAJEURES
10
32.052
20
71.050
0
VERTEX
8
CONTOURS_MAJEURES
10
31.739
20
68.995
0
VERTEX
8
CONTOURS_MAJEURES
10
31.739
20
67.258
0
VERTEX
8
CONTOURS_MAJEURES
10
31.739
20
65.999
0
VERTEX
8
CONTOURS_MAJEURES
10
31.702
20
64.299
0
VERTEX
8
CONTOURS_MAJEURES
10
31.881
20
63.003
0
VERTEX
8
CONTOURS_MAJEURES
10
31.881
20
61.882
0
VERTEX
8
CONTOURS_MAJEURES
10
31.881
20
59.997
0
VERTEX
8
CONTOURS_MAJEURES
10
32.339
20
57.662
0
VERTEX
8
CONTOURS_MAJEURES
10
32.452
20
57.001
0
VERTEX
8
CONTOURS_MAJEURES
10
33.002
20
55.751
0
VERTEX
8
CONTOURS_MAJEURES
10
34.746
20
55.751
0
VERTEX
8
CONTOURS_MAJEURES
10
35.995
20
55.751
0
VERTEX
8
CONTOURS_MAJEURES
10
36.746
20
54.005
0
VERTEX
8
CONTOURS_MAJEURES
10
36.746
20
51.750
0
VERTEX
8
CONTOURS_MAJEURES
10
36.746
20
50.999
0
VERTEX
8
CONTOURS_MAJEURES
10
37.174
20
49.179
0
VERTEX
8
CONTOURS_MAJEURES
10
37.407
20
48.003
0
VERTEX
8
CONTOURS_MAJEURES
10
37.599
20
46.397
0
VERTEX
8
CONTOURS_MAJEURES
10
37.741
20
44.996
0
VERTEX
8
CONTOURS_MAJEURES
10
37.741
20
43.741
0
VERTEX
8
CONTOURS_MAJEURES
10
37.741
20
42.001
0
VERTEX
8
CONTOURS_MAJEURES
10
37.846
20
40.851
0
VERTEX
8
CONTOURS_MAJEURES
10
38.041
20
39.005
0
VERTEX
8
CONTOURS_MAJEURES
10
38.127
20
36.871
0
VERTEX
8
CONTOURS_MAJEURES
10
38.057
20
35.998
0
VERTEX
8
CONTOURS_MAJEURES
10
38.057
20
33.942
0
VERTEX
8
CONTOURS_MAJEURES
10
38.057
20
33.003
0
VERTEX
8
CONTOURS_MAJEURES
10
37.277
20
31.279
0
VERTEX
8
CONTOURS_MAJEURES
10
37.193
20
29.996
0
VERTEX
8
CONTOURS_MAJEURES
10
37.193
20
28.195
0
VERTEX
8
CONTOURS_MAJEURES
10
37.193
20
27.000
0
VERTEX
8
CONTOURS_MAJEURES
10
37.311
20
25.689
0
VERTEX
8
CONTOURS_MAJEURES
10
35.995
20
24.492
0
VERTEX
8
CONTOURS_MAJEURES
10
35.509
20
24.492
0
VERTEX
8
CONTOURS_MAJEURES
10
33.002
20
24.492
0
VERTEX
8
CONTOURS_MAJEURES
10
32.751
20
24.005
0
VERTEX
8
CONTOURS_MAJEURES
10
32.568
20
23.571
0
VERTEX
8
CONTOURS_MAJEURES
10
33.002
20
23.074
0
VERTEX
8
CONTOURS_MAJEURES
10
35.069
20
23.074
0
VERTEX
8
CONTOURS_MAJEURES
10
35.995
20
23.074
0
VERTEX
8
CONTOURS_MAJEURES
10
37.222
20
20.998
0
VERTEX
8
CONTOURS_MAJEURES
10
37.222
20
19.226
0
VERTEX
8
CONTOURS_MAJEURES
10
37.222
20
18.003
0
VERTEX
8
CONTOURS_MAJEURES
10
38.999
20
16.172
0
VERTEX
8
CONTOURS_MAJEURES
10
40.828
20
16.172
0
VERTEX
8
CONTOURS_MAJEURES
10
42.003
20
16.172
0
VERTEX
8
CONTOURS_MAJEURES
10
42.677
20
15.672
0
VERTEX
8
CONTOURS_MAJEURES
10
43.588
20
14.996
0
VERTEX
8
CONTOURS_MAJEURES
10
44.997
20
12.942
0
VERTEX
8
CONTOURS_MAJEURES
10
45.410
20
12.412
0
VERTEX
8
CONTOURS_MAJEURES
10
46.433
20
12.000
0
VERTEX
8
CONTOURS_MAJEURES
10
46.433
20
10.568
0
VERTEX
8
CONTOURS_MAJEURES
10
46.433
20
9.005
0
VERTEX
8
CONTOURS_MAJEURES
10
48.001
20
7.201
0
VERTEX
8
CONTOURS_MAJEURES
10
49.803
20
7.201
0
VERTEX
8
CONTOURS_MAJEURES
10
51.005
20
7.201
0
VERTEX
8
CONTOURS_MAJEURES
10
51.418
20
6.413
0
VERTEX
8
CONTOURS_MAJEURES
10
51.525
20
5.998
0
VERTEX
8
CONTOURS_MAJEURES
10
51.525
20
3.523
0
VERTEX
8
CONTOURS_MAJEURES
10
51.525
20
3.002
0
VERTEX
8
CONTOURS_MAJEURES
10
53.998
20
0.805
0
VERTEX
8
CONTOURS_MAJEURES
10
54.455
20
0.453
0
VERTEX
8
CONTOURS_MAJEURES
10
54.893
20
-0.004
0
SEQEND
0
POLYLINE
8
CONTOURS_MAJEURES
66
1
70
0
0
VERTEX
8
CONTOURS_MAJEURES
10
54.690
20
93.004
0
VERTEX
8
CONTOURS_MAJEURES
10
54.690
20
90.689
0
VERTEX
8
CONTOURS_MAJEURES
10
54.690
20
89.997
0
VERTEX
8
CONTOURS_MAJEURES
10
55.043
20
88.955
0
VERTEX
8
CONTOURS_MAJEURES
10
55.513
20
87.002
0
VERTEX
8
CONTOURS_MAJEURES
10
55.513
20
85.511
0
VERTEX
8
CONTOURS_MAJEURES
10
55.513
20
83.995
0
VERTEX
8
CONTOURS_MAJEURES
10
56.233
20
81.766
0
VERTEX
8
CONTOURS_MAJEURES
10
56.172
20
80.999
0
VERTEX
8
CONTOURS_MAJEURES
10
56.114
20
80.113
0
VERTEX
8
CONTOURS_MAJEURES
10
57.002
20
78.970
0
VERTEX
8
CONTOURS_MAJEURES
10
59.030
20
78.970
0
VERTEX
8
CONTOURS_MAJEURES
10
59.996
20
78.970
0
VERTEX
8
CONTOURS_MAJEURES
10
60.573
20
78.580
0
VERTEX
8
CONTOURS_MAJEURES
10
63.000
20
78.073
0
VERTEX
8
CONTOURS_MAJEURES
10
63.067
20
78.070
0
VERTEX
8
CONTOURS_MAJEURES
10
66.004
20
78.134
0
VERTEX
8
CONTOURS_MAJEURES
10
68.867
20
78.134
0
VERTEX
8
CONTOURS_MAJEURES
10
68.997
20
78.134
0
VERTEX
8
CONTOURS_MAJEURES
10
69.179
20
78.185
0
VERTEX
8
CONTOURS_MAJEURES
10
72.001
20
79.311
0
VERTEX
8
CONTOURS_MAJEURES
10
74.114
20
80.118
0
VERTEX
8
CONTOURS_MAJEURES
10
74.995
20
80.500
0
VERTEX
8
CONTOURS_MAJEURES
10
75.495
20
80.500
0
VERTEX
8
CONTOURS_MAJEURES
10
77.999
20
80.500
0
VERTEX
8
CONTOURS_MAJEURES
10
80.310
20
80.999
0
VERTEX
8
CONTOURS_MAJEURES
10
80.883
20
81.119
0
VERTEX
8
CONTOURS_MAJEURES
10
81.003
20
81.142
0
VERTEX
8
CONTOURS_MAJEURES
10
81.194
20
81.190
0
VERTEX
8
CONTOURS_MAJEURES
10
83.996
20
81.683
0
VERTEX
8
CONTOURS_MAJEURES
10
84.681
20
81.683
0
VERTEX
8
CONTOURS_MAJEURES
10
87.000
20
81.683
0
VERTEX
8
CONTOURS_MAJEURES
10
87.909
20
81.905
0
VERTEX
8
CONTOURS_MAJEURES
10
90.005
20
82.390
0
VERTEX
8
CONTOURS_MAJEURES
10
91.699
20
82.299
0
VERTEX
8
CONTOURS_MAJEURES
10
92.998
20
81.883
0
VERTEX
8
CONTOURS_MAJEURES
10
93.884
20
81.883
0
VERTEX
8
CONTOURS_MAJEURES
10
96.002
20
81.883
0
VERTEX
8
CONTOURS_MAJEURES
10
97.351
20
82.644
0
VERTEX
8
CONTOURS_MAJEURES
10
98.995
20
82.775
0
VERTEX
8
CONTOURS_MAJEURES
10
100.777
20
82.775
0
VERTEX
8
CONTOURS_MAJEURES
10
101.999
20
82.775
0
SEQEND
0
POLYLINE
8
CONTOURS_MAJEURES
66
1
70
0
0
VERTEX
8
CONTOURS_MAJEURES
10
-0.001
20
73.579
0
VERTEX
8
CONTOURS_MAJEURES
10
0.658
20
74.341
0
VERTEX
8
CONTOURS_MAJEURES
10
1.349
20
74.997
0
VERTEX
8
CONTOURS_MAJEURES
10
1.349
20
76.348
0
VERTEX
8
CONTOURS_MAJEURES
10
1.349
20
78.004
0
VERTEX
8
CONTOURS_MAJEURES
10
3.004
20
79.263
0
VERTEX
8
CONTOURS_MAJEURES
10
3.704
20
80.299
0
VERTEX
8
CONTOURS_MAJEURES
10
4.217
20
80.999
0
VERTEX
8
CONTOURS_MAJEURES
10
5.997
20
82.519
0
VERTEX
8
CONTOURS_MAJEURES
10
7.521
20
82.519
0
VERTEX
8
CONTOURS_MAJEURES
10
9.001
20
82.519
0
VERTEX
8
CONTOURS_MAJEURES
10
9.814
20
83.184
0
VERTEX
8
CONTOURS_MAJEURES
10
10.680
20
83.995
0
VERTEX
8
CONTOURS_MAJEURES
10
10.680
20
85.675
0
VERTEX
8
CONTOURS_MAJEURES
10
10.680
20
87.002
0
VERTEX
8
CONTOURS_MAJEURES
10
11.295
20
87.710
0
VERTEX
8
CONTOURS_MAJEURES
10
12.005
20
88.131
0
VERTEX
8
CONTOURS_MAJEURES
10
14.846
20
89.997
0
VERTEX
8
CONTOURS_MAJEURES
10
14.846
20
90.151
0
VERTEX
8
CONTOURS_MAJEURES
10
14.846
20
93.004
0
SEQEND
0
POLYLINE
8
PARCELLE
66
1
70
1
0
VERTEX
8
PARCELLE
10
22.965
20
58.416
0
VERTEX
8
PARCELLE
10
28.574
20
74.263
0
VERTEX
8
PARCELLE
10
84.011
20
50.232
0
VERTEX
8
PARCELLE
10
74.649
20
26.682
0
VERTEX
8
PARCELLE
10
72.046
20
20.000
0
VERTEX
8
PARCELLE
10
22.037
20
39.173
0
VERTEX
8
PARCELLE
10
22.225
20
40.101
0
VERTEX
8
PARCELLE
10
20.000
20
52.856
0
VERTEX
8
PARCELLE
10
22.965
20
58.416
0
SEQEND
0
TEXT
8
POINTS_COTES
10
-0.001
20
-0.004
40
1.0
1
280.0
0
TEXT
8
POINTS_COTES
10
63.000
20
3.002
40
1.0
1
290.7
0
TEXT
8
POINTS_COTES
10
20.996
20
9.005
40
1.0
1
286.3
0
TEXT
8
POINTS_COTES
10
83.996
20
12.000
40
1.0
1
287.9
0
TEXT
8
POINTS_COTES
10
42.003
20
18.003
40
1.0
1
290.4
0
TEXT
8
POINTS_COTES
10
-0.001
20
24.005
40
1.0
1
279.0
0
TEXT
8
POINTS_COTES
10
63.000
20
27.000
40
1.0
1
294.6
0
TEXT
8
POINTS_COTES
10
20.996
20
33.003
40
1.0
1
281.4
0
TEXT
8
POINTS_COTES
10
83.996
20
35.998
40
1.0
1
294.3
0
TEXT
8
POINTS_COTES
10
42.003
20
42.001
40
1.0
1
291.4
0
TEXT
8
POINTS_COTES
10
-0.001
20
48.003
40
1.0
1
287.5
0
TEXT
8
POINTS_COTES
10
63.000
20
50.999
40
1.0
1
295.8
0
TEXT
8
POINTS_COTES
10
20.996
20
57.001
40
1.0
1
283.8
0
TEXT
8
POINTS_COTES
10
83.996
20
59.997
40
1.0
1
298.4
0
TEXT
8
POINTS_COTES
10
42.003
20
65.999
40
1.0
1
293.6
0
TEXT
8
POINTS_COTES
10
-0.001
20
72.001
40
1.0
1
299.2
0
TEXT
8
POINTS_COTES
10
63.000
20
74.997
40
1.0
1
300.0
0
TEXT
8
POINTS_COTES
10
20.996
20
80.999
40
1.0
1
291.6
0
TEXT
8
POINTS_COTES
10
83.996
20
83.995
40
1.0
1
300.4
0
TEXT
8
POINTS_COTES
10
42.003
20
89.997
40
1.0
1
293.9
0
ENDSEC
0
EOF
