0
SECTION
2
HEADER
0
ENDSEC
0
SECTION
2
TABLES
0
TABLE
2
LAYER
70
4
0
LAYER
2
CONTOURS_MINEURES
70
0
62
8
6
CONTINUOUS
0
LAYER
2
CONTOURS_MAJEURES
70
0
62
3
6
CONTINUOUS
0
LAYER
2
PARCELLE
70
0
62
4
6
CONTINUOUS
0
LAYER
2
POINTS_COTES
70
0
62
7
6
CONTINUOUS
0
ENDTAB
0
ENDSEC
0
SECTION
2
ENTITIES
0
POLYLINE
8
CONTOURS_MINEURES
66
1
70
0
0
VERTEX
8
CONTOURS_MINEURES
10
108.281
20
-0.002
0
VERTEX
8
CONTOURS_MINEURES
10
108.281
20
1.721
0
VERTEX
8
CONTOURS_MINEURES
10
108.281
20
1.999
0
VERTEX
8
CONTOURS_MINEURES
10
109.997
20
3.425
0
VERTEX
8
CONTOURS_MINEURES
10
110.572
20
3.425
0
VERTEX
8
CONTOURS_MINEURES
10
112.000
20
3.425
0
SEQEND
0
POLYLINE
8
CONTOURS_MINEURES
66
1
70
0
0
VERTEX
8
CONTOURS_MINEURES
10
20.058
20
83.997
0
VERTEX
8
CONTOURS_MINEURES
10
20.016
20
83.980
0
VERTEX
8
CONTOURS_MINEURES
10
19.999
20
83.973
0
VERTEX
8
CONTOURS_MINEURES
10
18.020
20
83.973
0
VERTEX
8
CONTOURS_MINEURES
10
17.996
20
83.973
0
VERTEX
8
CONTOURS_MINEURES
10
17.969
20
83.970
0
VERTEX
8
CONTOURS_MINEURES
10
17.858
20
83.997
0
SEQEND
0
POLYLINE
8
CONTOURS_MINEURES
66
1
70
0
0
VERTEX
8
CONTOURS_MINEURES
10
104.710
20
-0.002
0
VERTEX
8
CONTOURS_MINEURES
10
104.710
20
1.288
0
VERTEX
8
CONTOURS_MINEURES
10
104.710
20
1.999
0
VERTEX
8
CONTOURS_MINEURES
10
105.386
20
3.385
0
VERTEX
8
CONTOURS_MINEURES
10
105.506
20
3.999
0
VERTEX
8
CONTOURS_MINEURES
10
105.506
20
5.506
0
VERTEX
8
CONTOURS_MINEURES
10
105.506
20
6.000
0
VERTEX
8
CONTOURS_MINEURES
10
106.001
20
6.343
0
VERTEX
8
CONTOURS_MINEURES
10
106.344
20
6.343
0
VERTEX
8
CONTOURS_MINEURES
10
108.004
20
6.343
0
VERTEX
8
CONTOURS_MINEURES
10
108.603
20
6.602
0
VERTEX
8
CONTOURS_MINEURES
10
109.997
20
7.167
0
VERTEX
8
CONTOURS_MINEURES
10
110.831
20
7.167
0
VERTEX
8
CONTOURS_MINEURES
10
112.000
20
7.167
0
SEQEND
0
POLYLINE
8
CONTOURS_MINEURES
66
1
70
0
0
VERTEX
8
CONTOURS_MINEURES
10
30.335
20
83.997
0
VERTEX
8
CONTOURS_MINEURES
10
30.003
20
83.764
0
VERTEX
8
CONTOURS_MINEURES
10
28.234
20
83.764
0
VERTEX
8
CONTOURS_MINEURES
10
28.000
20
83.764
0
VERTEX
8
CONTOURS_MINEURES
10
26.889
20
83.106
0
VERTEX
8
CONTOURS_MINEURES
10
25.997
20
82.372
0
VERTEX
8
CONTOURS_MINEURES
10
24.379
20
82.372
0
VERTEX
8
CONTOURS_MINEURES
10
24.005
20
82.372
0
VERTEX
8
CONTOURS_MINEURES
10
23.629
20
82.372
0
VERTEX
8
CONTOURS_MINEURES
10
22.002
20
82.372
0
VERTEX
8
CONTOURS_MINEURES
10
21.735
20
82.263
0
VERTEX
8
CONTOURS_MINEURES
10
21.047
20
81.996
0
VERTEX
8
CONTOURS_MINEURES
10
21.047
20
80.950
0
VERTEX
8
CONTOURS_MINEURES
10
21.047
20
79.996
0
VERTEX
8
CONTOURS_MINEURES
10
19.999
20
79.669
0
VERTEX
8
CONTOURS_MINEURES
10
19.671
20
79.669
0
VERTEX
8
CONTOURS_MINEURES
10
17.996
20
79.669
0
VERTEX
8
CONTOURS_MINEURES
10
16.482
20
79.515
0
VERTEX
8
CONTOURS_MINEURES
10
16.004
20
79.407
0
VERTEX
8
CONTOURS_MINEURES
10
14.590
20
79.407
0
VERTEX
8
CONTOURS_MINEURES
10
14.001
20
79.407
0
VERTEX
8
CONTOURS_MINEURES
10
13.251
20
79.247
0
VERTEX
8
CONTOURS_MINEURES
10
11.997
20
79.456
0
VERTEX
8
CONTOURS_MINEURES
10
10.543
20
79.456
0
VERTEX
8
CONTOURS_MINEURES
10
10.005
20
79.456
0
VERTEX
8
CONTOURS_MINEURES
10
9.465
20
79.456
0
VERTEX
8
CONTOURS_MINEURES
10
8.002
20
79.456
0
VERTEX
8
CONTOURS_MINEURES
10
7.334
20
79.996
0
VERTEX
8
CONTOURS_MINEURES
10
7.334
20
80.663
0
VERTEX
8
CONTOURS_MINEURES
10
7.334
20
81.996
0
VERTEX
8
CONTOURS_MINEURES
10
6.986
20
82.982
0
VERTEX
8
CONTOURS_MINEURES
10
7.172
20
83.997
0
SEQEND
0
POLYLINE
8
CONTOURS_MINEURES
66
1
70
0
0
VERTEX
8
CONTOURS_MINEURES
10
100.855
20
-0.002
0
VERTEX
8
CONTOURS_MINEURES
10
100.855
20
0.854
0
VERTEX
8
CONTOURS_MINEURES
10
100.855
20
1.999
0
VERTEX
8
CONTOURS_MINEURES
10
101.054
20
3.054
0
VERTEX
8
CONTOURS_MINEURES
10
101.264
20
3.999
0
VERTEX
8
CONTOURS_MINEURES
10
101.264
20
4.734
0
VERTEX
8
CONTOURS_MINEURES
10
101.264
20
6.000
0
VERTEX
8
CONTOURS_MINEURES
10
101.995
20
6.687
0
VERTEX
8
CONTOURS_MINEURES
10
102.683
20
6.687
0
VERTEX
8
CONTOURS_MINEURES
10
103.998
20
6.687
0
VERTEX
8
CONTOURS_MINEURES
10
105.793
20
7.793
0
VERTEX
8
CONTOURS_MINEURES
10
106.001
20
7.937
0
VERTEX
8
CONTOURS_MINEURES
10
107.940
20
7.937
0
VERTEX
8
CONTOURS_MINEURES
10
108.004
20
7.937
0
VERTEX
8
CONTOURS_MINEURES
10
108.152
20
8.001
0
VERTEX
8
CONTOURS_MINEURES
10
108.152
20
9.853
0
VERTEX
8
CONTOURS_MINEURES
10
108.152
20
10.002
0
VERTEX
8
CONTOURS_MINEURES
10
108.152
20
10.150
0
VERTEX
8
CONTOURS_MINEURES
10
108.152
20
12.002
0
VERTEX
8
CONTOURS_MINEURES
10
109.997
20
12.924
0
VERTEX
8
CONTOURS_MINEURES
10
111.077
20
12.924
0
VERTEX
8
CONTOURS_MINEURES
10
112.000
20
12.924
0
SEQEND
0
POLYLINE
8
CONTOURS_MINEURES
66
1
70
0
0
VERTEX
8
CONTOURS_MINEURES
10
112.000
20
78.759
0
VERTEX
8
CONTOURS_MINEURES
10
111.234
20
78.759
0
VERTEX
8
CONTOURS_MINEURES
10
109.997
20
78.759
0
VERTEX
8
CONTOURS_MINEURES
10
109.597
20
79.594
0
VERTEX
8
CONTOURS_MINEURES
10
109.395
20
79.996
0
VERTEX
8
CONTOURS_MINEURES
10
109.395
20
80.600
0
VERTEX
8
CONTOURS_MINEURES
10
109.395
20
81.996
0
VERTEX
8
CONTOURS_MINEURES
10
108.989
20
82.985
0
VERTEX
8
CONTOURS_MINEURES
10
108.525
20
83.997
0
SEQEND
0
POLYLINE
8
CONTOURS_MINEURES
66
1
70
0
0
VERTEX
8
CONTOURS_MINEURES
10
35.217
20
83.997
0
VERTEX
8
CONTOURS_MINEURES
10
33.999
20
83.200
0
VERTEX
8
CONTOURS_MINEURES
10
33.201
20
83.200
0
VERTEX
8
CONTOURS_MINEURES
10
31.996
20
83.200
0
VERTEX
8
CONTOURS_MINEURES
10
30.392
20
81.996
0
VERTEX
8
CONTOURS_MINEURES
10
30.392
20
81.606
0
VERTEX
8
CONTOURS_MINEURES
10
30.392
20
79.996
0
VERTEX
8
CONTOURS_MINEURES
10
30.003
20
79.652
0
VERTEX
8
CONTOURS_MINEURES
10
29.659
20
79.652
0
VERTEX
8
CONTOURS_MINEURES
10
28.000
20
79.652
0
VERTEX
8
CONTOURS_MINEURES
10
27.029
20
78.965
0
VERTEX
8
CONTOURS_MINEURES
10
25.997
20
78.244
0
VERTEX
8
CONTOURS_MINEURES
10
24.253
20
78.244
0
VERTEX
8
CONTOURS_MINEURES
10
24.005
20
78.244
0
VERTEX
8
CONTOURS_MINEURES
10
23.756
20
78.244
0
VERTEX
8
CONTOURS_MINEURES
10
22.002
20
78.244
0
VERTEX
8
CONTOURS_MINEURES
10
21.041
20
77.995
0
VERTEX
8
CONTOURS_MINEURES
10
21.041
20
76.960
0
VERTEX
8
CONTOURS_MINEURES
10
21.041
20
76.005
0
VERTEX
8
CONTOURS_MINEURES
10
21.041
20
75.045
0
VERTEX
8
CONTOURS_MINEURES
10
21.041
20
74.004
0
VERTEX
8
CONTOURS_MINEURES
10
20.186
20
73.818
0
VERTEX
8
CONTOURS_MINEURES
10
19.999
20
73.757
0
VERTEX
8
CONTOURS_MINEURES
10
19.751
20
73.757
0
VERTEX
8
CONTOURS_MINEURES
10
17.996
20
73.757
0
VERTEX
8
CONTOURS_MINEURES
10
17.666
20
73.673
0
VERTEX
8
CONTOURS_MINEURES
10
16.004
20
73.321
0
VERTEX
8
CONTOURS_MINEURES
10
14.685
20
73.321
0
VERTEX
8
CONTOURS_MINEURES
10
14.001
20
73.321
0
VERTEX
8
CONTOURS_MINEURES
10
12.945
20
72.950
0
VERTEX
8
CONTOURS_MINEURES
10
11.997
20
72.726
0
VERTEX
8
CONTOURS_MINEURES
10
11.278
20
72.726
0
VERTEX
8
CONTOURS_MINEURES
10
10.005
20
72.726
0
VERTEX
8
CONTOURS_MINEURES
10
9.282
20
72.726
0
VERTEX
8
CONTOURS_MINEURES
10
8.002
20
72.726
0
VERTEX
8
CONTOURS_MINEURES
10
6.205
20
72.004
0
VERTEX
8
CONTOURS_MINEURES
10
6.205
20
70.209
0
VERTEX
8
CONTOURS_MINEURES
10
6.205
20
70.003
0
VERTEX
8
CONTOURS_MINEURES
10
6.059
20
69.943
0
VERTEX
8
CONTOURS_MINEURES
10
5.999
20
69.910
0
VERTEX
8
CONTOURS_MINEURES
10
5.906
20
69.910
0
VERTEX
8
CONTOURS_MINEURES
10
3.996
20
69.910
0
VERTEX
8
CONTOURS_MINEURES
10
2.486
20
69.518
0
VERTEX
8
CONTOURS_MINEURES
10
2.004
20
69.272
0
VERTEX
8
CONTOURS_MINEURES
10
0.732
20
69.272
0
VERTEX
8
CONTOURS_MINEURES
10
0.001
20
69.272
0
SEQEND
0
POLYLINE
8
CONTOURS_MINEURES
66
1
70
0
0
VERTEX
8
CONTOURS_MINEURES
10
0.001
20
78.696
0
VERTEX
8
CONTOURS_MINEURES
10
1.302
20
78.696
0
VERTEX
8
CONTOURS_MINEURES
10
2.004
20
78.696
0
VERTEX
8
CONTOURS_MINEURES
10
2.647
20
79.996
0
VERTEX
8
CONTOURS_MINEURES
10
2.647
20
80.642
0
VERTEX
8
CONTOURS_MINEURES
10
2.647
20
81.996
0
VERTEX
8
CONTOURS_MINEURES
10
2.891
20
83.106
0
VERTEX
8
CONTOURS_MINEURES
10
3.024
20
83.997
0
SEQEND
0
POLYLINE
8
CONTOURS_MINEURES
66
1
70
0
0
VERTEX
8
CONTOURS_MINEURES
10
91.960
20
-0.002
0
VERTEX
8
CONTOURS_MINEURES
10
91.960
20
1.957
0
VERTEX
8
CONTOURS_MINEURES
10
91.960
20
1.999
0
VERTEX
8
CONTOURS_MINEURES
10
92.001
20
2.175
0
VERTEX
8
CONTOURS_MINEURES
10
93.828
20
2.175
0
VERTEX
8
CONTOURS_MINEURES
10
94.004
20
2.175
0
VERTEX
8
CONTOURS_MINEURES
10
94.405
20
3.597
0
VERTEX
8
CONTOURS_MINEURES
10
94.556
20
3.999
0
VERTEX
8
CONTOURS_MINEURES
10
94.556
20
4.553
0
VERTEX
8
CONTOURS_MINEURES
10
94.556
20
6.000
0
VERTEX
8
CONTOURS_MINEURES
10
95.366
20
6.633
0
VERTEX
8
CONTOURS_MINEURES
10
95.997
20
7.141
0
VERTEX
8
CONTOURS_MINEURES
10
96.857
20
7.141
0
VERTEX
8
CONTOURS_MINEURES
10
98.000
20
7.141
0
VERTEX
8
CONTOURS_MINEURES
10
98.860
20
7.141
0
VERTEX
8
CONTOURS_MINEURES
10
100.003
20
7.141
0
VERTEX
8
CONTOURS_MINEURES
10
100.945
20
8.001
0
VERTEX
8
CONTOURS_MINEURES
10
100.945
20
8.947
0
VERTEX
8
CONTOURS_MINEURES
10
100.945
20
10.002
0
VERTEX
8
CONTOURS_MINEURES
10
100.945
20
11.056
0
VERTEX
8
CONTOURS_MINEURES
10
100.945
20
12.002
0
VERTEX
8
CONTOURS_MINEURES
10
101.476
20
12.524
0
VERTEX
8
CONTOURS_MINEURES
10
101.995
20
12.726
0
VERTEX
8
CONTOURS_MINEURES
10
102.720
20
12.726
0
VERTEX
8
CONTOURS_MINEURES
10
103.998
20
12.726
0
VERTEX
8
CONTOURS_MINEURES
10
104.769
20
13.234
0
VERTEX
8
CONTOURS_MINEURES
10
106.001
20
13.773
0
VERTEX
8
CONTOURS_MINEURES
10
107.774
20
13.773
0
VERTEX
8
CONTOURS_MINEURES
10
108.004
20
13.773
0
VERTEX
8
CONTOURS_MINEURES
10
108.465
20
14.003
0
VERTEX
8
CONTOURS_MINEURES
10
108.465
20
15.541
0
VERTEX
8
CONTOURS_MINEURES
10
108.465
20
16.004
0
VERTEX
8
CONTOURS_MINEURES
10
109.997
20
17.157
0
VERTEX
8
CONTOURS_MINEURES
10
111.151
20
17.157
0
VERTEX
8
CONTOURS_MINEURES
10
112.000
20
17.157
0
SEQEND
0
POLYLINE
8
CONTOURS_MINEURES
66
1
70
0
0
VERTEX
8
CONTOURS_MINEURES
10
112.000
20
69.307
0
VERTEX
8
CONTOURS_MINEURES
10
110.693
20
69.307
0
VERTEX
8
CONTOURS_MINEURES
10
109.997
20
69.307
0
VERTEX
8
CONTOURS_MINEURES
10
109.458
20
70.003
0
VERTEX
8
CONTOURS_MINEURES
10
109.458
20
70.544
0
VERTEX
8
CONTOURS_MINEURES
10
109.458
20
72.004
0
VERTEX
8
CONTOURS_MINEURES
10
108.790
20
72.792
0
VERTEX
8
CONTOURS_MINEURES
10
108.209
20
74.004
0
VERTEX
8
CONTOURS_MINEURES
10
108.209
20
75.800
0
VERTEX
8
CONTOURS_MINEURES
10
108.209
20
76.005
0
VERTEX
8
CONTOURS_MINEURES
10
108.209
20
77.790
0
VERTEX
8
CONTOURS_MINEURES
10
108.209
20
77.995
0
VERTEX
8
CONTOURS_MINEURES
10
108.142
20
78.134
0
VERTEX
8
CONTOURS_MINEURES
10
108.004
20
78.408
0
VERTEX
8
CONTOURS_MINEURES
10
107.591
20
78.408
0
VERTEX
8
CONTOURS_MINEURES
10
106.001
20
78.408
0
VERTEX
8
CONTOURS_MINEURES
10
105.251
20
79.247
0
VERTEX
8
CONTOURS_MINEURES
10
104.859
20
79.996
0
VERTEX
8
CONTOURS_MINEURES
10
104.859
20
81.137
0
VERTEX
8
CONTOURS_MINEURES
10
104.859
20
81.996
0
VERTEX
8
CONTOURS_MINEURES
10
104.525
20
82.523
0
VERTEX
8
CONTOURS_MINEURES
10
103.998
20
83.615
0
VERTEX
8
CONTOURS_MINEURES
10
103.615
20
83.615
0
VERTEX
8
CONTOURS_MINEURES
10
101.995
20
83.615
0
VERTEX
8
CONTOURS_MINEURES
10
101.788
20
83.997
0
SEQEND
0
POLYLINE
8
CONTOURS_MINEURES
66
1
70
0
0
VERTEX
8
CONTOURS_MINEURES
10
52.426
20
83.997
0
VERTEX
8
CONTOURS_MINEURES
10
52.005
20
83.847
0
VERTEX
8
CONTOURS_MINEURES
10
50.152
20
83.847
0
VERTEX
8
CONTOURS_MINEURES
10
50.002
20
83.847
0
VERTEX
8
CONTOURS_MINEURES
10
49.805
20
83.801
0
VERTEX
8
CONTOURS_MINEURES
10
47.999
20
83.267
0
VERTEX
8
CONTOURS_MINEURES
10
46.726
20
83.267
0
VERTEX
8
CONTOURS_MINEURES
10
45.996
20
83.267
0
VERTEX
8
CONTOURS_MINEURES
10
45.114
20
83.111
0
VERTEX
8
CONTOURS_MINEURES
10
44.003
20
82.951
0
VERTEX
8
CONTOURS_MINEURES
10
43.048
20
82.951
0
VERTEX
8
CONTOURS_MINEURES
10
42.000
20
82.951
0
VERTEX
8
CONTOURS_MINEURES
10
41.320
20
82.676
0
VERTEX
8
CONTOURS_MINEURES
10
39.997
20
82.364
0
VERTEX
8
CONTOURS_MINEURES
10
38.371
20
82.364
0
VERTEX
8
CONTOURS_MINEURES
10
38.005
20
82.364
0
VERTEX
8
CONTOURS_MINEURES
10
37.637
20
82.364
0
VERTEX
8
CONTOURS_MINEURES
10
36.002
20
82.364
0
VERTEX
8
CONTOURS_MINEURES
10
35.334
20
81.996
0
VERTEX
8
CONTOURS_MINEURES
10
35.334
20
80.663
0
VERTEX
8
CONTOURS_MINEURES
10
35.334
20
79.996
0
VERTEX
8
CONTOURS_MINEURES
10
33.999
20
79.276
0
VERTEX
8
CONTOURS_MINEURES
10
32.716
20
79.276
0
VERTEX
8
CONTOURS_MINEURES
10
31.996
20
79.276
0
VERTEX
8
CONTOURS_MINEURES
10
30.530
20
77.995
0
VERTEX
8
CONTOURS_MINEURES
10
30.530
20
77.468
0
VERTEX
8
CONTOURS_MINEURES
10
30.530
20
76.005
0
VERTEX
8
CONTOURS_MINEURES
10
30.530
20
74.534
0
VERTEX
8
CONTOURS_MINEURES
10
30.530
20
74.004
0
VERTEX
8
CONTOURS_MINEURES
10
30.233
20
73.774
0
VERTEX
8
CONTOURS_MINEURES
10
30.003
20
73.649
0
VERTEX
8
CONTOURS_MINEURES
10
29.648
20
73.649
0
VERTEX
8
CONTOURS_MINEURES
10
28.000
20
73.649
0
VERTEX
8
CONTOURS_MINEURES
10
26.961
20
73.042
0
VERTEX
8
CONTOURS_MINEURES
10
25.997
20
72.467
0
VERTEX
8
CONTOURS_MINEURES
10
24.466
20
72.467
0
VERTEX
8
CONTOURS_MINEURES
10
24.005
20
72.467
0
VERTEX
8
CONTOURS_MINEURES
10
23.541
20
72.467
0
VERTEX
8
CONTOURS_MINEURES
10
22.002
20
72.467
0
VERTEX
8
CONTOURS_MINEURES
10
21.621
20
72.384
0
VERTEX
8
CONTOURS_MINEURES
10
20.463
20
72.004
0
VERTEX
8
CONTOURS_MINEURES
10
20.463
20
70.467
0
VERTEX
8
CONTOURS_MINEURES
10
20.463
20
70.003
0
VERTEX
8
CONTOURS_MINEURES
10
20.097
20
69.905
0
VERTEX
8
CONTOURS_MINEURES
10
19.999
20
69.859
0
VERTEX
8
CONTOURS_MINEURES
10
18.140
20
69.859
0
VERTEX
8
CONTOURS_MINEURES
10
17.996
20
69.859
0
VERTEX
8
CONTOURS_MINEURES
10
17.770
20
69.776
0
VERTEX
8
CONTOURS_MINEURES
10
16.004
20
69.291
0
VERTEX
8
CONTOURS_MINEURES
10
15.291
20
69.291
0
VERTEX
8
CONTOURS_MINEURES
10
14.001
20
69.291
0
VERTEX
8
CONTOURS_MINEURES
10
13.052
20
68.949
0
VERTEX
8
CONTOURS_MINEURES
10
11.997
20
68.327
0
VERTEX
8
CONTOURS_MINEURES
10
10.329
20
68.327
0
VERTEX
8
CONTOURS_MINEURES
10
10.005
20
68.327
0
VERTEX
8
CONTOURS_MINEURES
10
9.679
20
68.327
0
VERTEX
8
CONTOURS_MINEURES
10
8.002
20
68.327
0
VERTEX
8
CONTOURS_MINEURES
10
7.771
20
68.233
0
VERTEX
8
CONTOURS_MINEURES
10
7.351
20
68.002
0
VERTEX
8
CONTOURS_MINEURES
10
7.351
20
66.652
0
VERTEX
8
CONTOURS_MINEURES
10
7.351
20
66.001
0
VERTEX
8
CONTOURS_MINEURES
10
6.411
20
65.589
0
VERTEX
8
CONTOURS_MINEURES
10
5.999
20
65.372
0
VERTEX
8
CONTOURS_MINEURES
10
5.369
20
65.372
0
VERTEX
8
CONTOURS_MINEURES
10
3.996
20
65.372
0
VERTEX
8
CONTOURS_MINEURES
10
2.992
20
65.009
0
VERTEX
8
CONTOURS_MINEURES
10
2.004
20
64.629
0
VERTEX
8
CONTOURS_MINEURES
10
0.630
20
64.629
0
VERTEX
8
CONTOURS_MINEURES
10
0.001
20
64.629
0
SEQEND
0
POLYLINE
8
CONTOURS_MINEURES
66
1
70
0
0
VERTEX
8
CONTOURS_MINEURES
10
86.603
20
-0.002
0
VERTEX
8
CONTOURS_MINEURES
10
86.603
20
0.600
0
VERTEX
8
CONTOURS_MINEURES
10
86.603
20
1.999
0
VERTEX
8
CONTOURS_MINEURES
10
87.307
20
2.689
0
VERTEX
8
CONTOURS_MINEURES
10
87.860
20
3.999
0
VERTEX
8
CONTOURS_MINEURES
10
87.860
20
4.135
0
VERTEX
8
CONTOURS_MINEURES
10
87.860
20
6.000
0
VERTEX
8
CONTOURS_MINEURES
10
87.922
20
6.074
0
VERTEX
8
CONTOURS_MINEURES
10
87.995
20
6.153
0
VERTEX
8
CONTOURS_MINEURES
10
88.148
20
6.153
0
VERTEX
8
CONTOURS_MINEURES
10
89.998
20
6.153
0
VERTEX
8
CONTOURS_MINEURES
10
90.729
20
7.271
0
VERTEX
8
CONTOURS_MINEURES
10
91.591
20
8.001
0
VERTEX
8
CONTOURS_MINEURES
10
91.591
20
9.592
0
VERTEX
8
CONTOURS_MINEURES
10
91.591
20
10.002
0
VERTEX
8
CONTOURS_MINEURES
10
91.591
20
11.592
0
VERTEX
8
CONTOURS_MINEURES
10
91.591
20
12.002
0
VERTEX
8
CONTOURS_MINEURES
10
92.001
20
12.470
0
VERTEX
8
CONTOURS_MINEURES
10
93.536
20
12.470
0
VERTEX
8
CONTOURS_MINEURES
10
94.004
20
12.470
0
VERTEX
8
CONTOURS_MINEURES
10
95.840
20
14.003
0
VERTEX
8
CONTOURS_MINEURES
10
95.840
20
14.161
0
VERTEX
8
CONTOURS_MINEURES
10
95.840
20
16.004
0
VERTEX
8
CONTOURS_MINEURES
10
95.997
20
16.171
0
VERTEX
8
CONTOURS_MINEURES
10
97.833
20
16.171
0
VERTEX
8
CONTOURS_MINEURES
10
98.000
20
16.171
0
VERTEX
8
CONTOURS_MINEURES
10
99.836
20
16.171
0
VERTEX
8
CONTOURS_MINEURES
10
100.003
20
16.171
0
VERTEX
8
CONTOURS_MINEURES
10
100.980
20
17.023
0
VERTEX
8
CONTOURS_MINEURES
10
101.995
20
17.305
0
VERTEX
8
CONTOURS_MINEURES
10
103.298
20
17.305
0
VERTEX
8
CONTOURS_MINEURES
10
103.998
20
17.305
0
VERTEX
8
CONTOURS_MINEURES
10
104.393
20
17.610
0
VERTEX
8
CONTOURS_MINEURES
10
105.062
20
18.005
0
VERTEX
8
CONTOURS_MINEURES
10
105.062
20
19.067
0
VERTEX
8
CONTOURS_MINEURES
10
105.062
20
20.006
0
VERTEX
8
CONTOURS_MINEURES
10
105.429
20
20.574
0
VERTEX
8
CONTOURS_MINEURES
10
106.001
20
21.000
0
VERTEX
8
CONTOURS_MINEURES
10
107.003
20
21.000
0
VERTEX
8
CONTOURS_MINEURES
10
108.004
20
21.000
0
VERTEX
8
CONTOURS_MINEURES
10
108.845
20
21.995
0
VERTEX
8
CONTOURS_MINEURES
10
108.845
20
22.840
0
VERTEX
8
CONTOURS_MINEURES
10
108.845
20
23.996
0
VERTEX
8
CONTOURS_MINEURES
10
108.845
20
25.152
0
VERTEX
8
CONTOURS_MINEURES
10
108.845
20
25.997
0
VERTEX
8
CONTOURS_MINEURES
10
109.223
20
26.773
0
VERTEX
8
CONTOURS_MINEURES
10
109.997
20
27.731
0
VERTEX
8
CONTOURS_MINEURES
10
110.264
20
27.731
0
VERTEX
8
CONTOURS_MINEURES
10
112.000
20
27.731
0
SEQEND
0
POLYLINE
8
CONTOURS_MINEURES
66
1
70
0
0
VERTEX
8
CONTOURS_MINEURES
10
112.000
20
30.761
0
VERTEX
8
CONTOURS_MINEURES
10
111.237
20
30.761
0
VERTEX
8
CONTOURS_MINEURES
10
109.997
20
30.761
0
VERTEX
8
CONTOURS_MINEURES
10
109.724
20
31.725
0
VERTEX
8
CONTOURS_MINEURES
10
109.745
20
31.999
0
VERTEX
8
CONTOURS_MINEURES
10
109.745
20
33.747
0
VERTEX
8
CONTOURS_MINEURES
10
109.745
20
34.000
0
VERTEX
8
CONTOURS_MINEURES
10
109.892
20
35.895
0
VERTEX
8
CONTOURS_MINEURES
10
109.898
20
36.001
0
VERTEX
8
CONTOURS_MINEURES
10
109.898
20
36.100
0
VERTEX
8
CONTOURS_MINEURES
10
109.898
20
38.001
0
VERTEX
8
CONTOURS_MINEURES
10
109.898
20
38.100
0
VERTEX
8
CONTOURS_MINEURES
10
109.898
20
40.002
0
VERTEX
8
CONTOURS_MINEURES
10
109.861
20
41.867
0
VERTEX
8
CONTOURS_MINEURES
10
109.856
20
42.003
0
VERTEX
8
CONTOURS_MINEURES
10
109.856
20
43.862
0
VERTEX
8
CONTOURS_MINEURES
10
109.856
20
44.004
0
VERTEX
8
CONTOURS_MINEURES
10
109.494
20
45.500
0
VERTEX
8
CONTOURS_MINEURES
10
109.360
20
46.005
0
VERTEX
8
CONTOURS_MINEURES
10
109.360
20
47.366
0
VERTEX
8
CONTOURS_MINEURES
10
109.360
20
48.005
0
VERTEX
8
CONTOURS_MINEURES
10
109.360
20
48.641
0
VERTEX
8
CONTOURS_MINEURES
10
109.360
20
49.995
0
VERTEX
8
CONTOURS_MINEURES
10
109.100
20
51.095
0
VERTEX
8
CONTOURS_MINEURES
10
108.391
20
51.996
0
VERTEX
8
CONTOURS_MINEURES
10
108.391
20
53.608
0
VERTEX
8
CONTOURS_MINEURES
10
108.391
20
53.997
0
VERTEX
8
CONTOURS_MINEURES
10
108.289
20
54.282
0
VERTEX
8
CONTOURS_MINEURES
10
108.004
20
54.616
0
VERTEX
8
CONTOURS_MINEURES
10
106.621
20
54.616
0
VERTEX
8
CONTOURS_MINEURES
10
106.001
20
54.616
0
VERTEX
8
CONTOURS_MINEURES
10
105.473
20
55.470
0
VERTEX
8
CONTOURS_MINEURES
10
105.033
20
55.997
0
VERTEX
8
CONTOURS_MINEURES
10
105.033
20
57.031
0
VERTEX
8
CONTOURS_MINEURES
10
105.033
20
57.998
0
VERTEX
8
CONTOURS_MINEURES
10
104.837
20
58.836
0
VERTEX
8
CONTOURS_MINEURES
10
103.998
20
59.376
0
VERTEX
8
CONTOURS_MINEURES
10
103.375
20
59.376
0
VERTEX
8
CONTOURS_MINEURES
10
101.995
20
59.376
0
VERTEX
8
CONTOURS_MINEURES
10
101.591
20
59.999
0
VERTEX
8
CONTOURS_MINEURES
10
101.591
20
61.594
0
VERTEX
8
CONTOURS_MINEURES
10
101.591
20
62.000
0
VERTEX
8
CONTOURS_MINEURES
10
101.591
20
62.406
0
VERTEX
8
CONTOURS_MINEURES
10
101.591
20
64.000
0
VERTEX
8
CONTOURS_MINEURES
10
101.546
20
65.550
0
VERTEX
8
CONTOURS_MINEURES
10
101.110
20
66.001
0
VERTEX
8
CONTOURS_MINEURES
10
101.110
20
66.890
0
VERTEX
8
CONTOURS_MINEURES
10
101.110
20
68.002
0
VERTEX
8
CONTOURS_MINEURES
10
100.003
20
69.336
0
VERTEX
8
CONTOURS_MINEURES
10
98.667
20
69.336
0
VERTEX
8
CONTOURS_MINEURES
10
98.000
20
69.336
0
VERTEX
8
CONTOURS_MINEURES
10
97.332
20
69.336
0
VERTEX
8
CONTOURS_MINEURES
10
95.997
20
69.336
0
VERTEX
8
CONTOURS_MINEURES
10
95.748
20
69.753
0
VERTEX
8
CONTOURS_MINEURES
10
95.285
20
70.003
0
VERTEX
8
CONTOURS_MINEURES
10
95.285
20
70.717
0
VERTEX
8
CONTOURS_MINEURES
10
95.285
20
72.004
0
VERTEX
8
CONTOURS_MINEURES
10
94.681
20
72.683
0
VERTEX
8
CONTOURS_MINEURES
10
94.004
20
73.204
0
VERTEX
8
CONTOURS_MINEURES
10
92.803
20
73.204
0
VERTEX
8
CONTOURS_MINEURES
10
92.001
20
73.204
0
VERTEX
8
CONTOURS_MINEURES
10
91.701
20
73.704
0
VERTEX
8
CONTOURS_MINEURES
10
91.273
20
74.004
0
VERTEX
8
CONTOURS_MINEURES
10
91.273
20
75.278
0
VERTEX
8
CONTOURS_MINEURES
10
91.273
20
76.005
0
VERTEX
8
CONTOURS_MINEURES
10
91.273
20
76.729
0
VERTEX
8
CONTOURS_MINEURES
10
91.273
20
77.995
0
VERTEX
8
CONTOURS_MINEURES
10
89.998
20
78.929
0
VERTEX
8
CONTOURS_MINEURES
10
88.930
20
78.929
0
VERTEX
8
CONTOURS_MINEURES
10
87.995
20
78.929
0
VERTEX
8
CONTOURS_MINEURES
10
87.019
20
79.996
0
VERTEX
8
CONTOURS_MINEURES
10
87.019
20
81.016
0
VERTEX
8
CONTOURS_MINEURES
10
87.019
20
81.996
0
VERTEX
8
CONTOURS_MINEURES
10
86.650
20
82.646
0
VERTEX
8
CONTOURS_MINEURES
10
86.003
20
82.859
0
VERTEX
8
CONTOURS_MINEURES
10
84.863
20
82.859
0
VERTEX
8
CONTOURS_MINEURES
10
84.000
20
82.859
0
VERTEX
8
CONTOURS_MINEURES
10
83.137
20
82.859
0
VERTEX
8
CONTOURS_MINEURES
10
81.997
20
82.859
0
VERTEX
8
CONTOURS_MINEURES
10
81.388
20
83.386
0
VERTEX
8
CONTOURS_MINEURES
10
80.005
20
83.741
0
VERTEX
8
CONTOURS_MINEURES
10
79.748
20
83.741
0
VERTEX
8
CONTOURS_MINEURES
10
78.001
20
83.741
0
VERTEX
8
CONTOURS_MINEURES
10
76.351
20
83.645
0
VERTEX
8
CONTOURS_MINEURES
10
75.998
20
83.633
0
VERTEX
8
CONTOURS_MINEURES
10
75.634
20
83.633
0
VERTEX
8
CONTOURS_MINEURES
10
73.995
20
83.633
0
VERTEX
8
CONTOURS_MINEURES
10
72.726
20
83.271
0
VERTEX
8
CONTOURS_MINEURES
10
72.003
20
83.009
0
VERTEX
8
CONTOURS_MINEURES
10
71.014
20
83.009
0
VERTEX
8
CONTOURS_MINEURES
10
70.000
20
83.009
0
VERTEX
8
CONTOURS_MINEURES
10
69.011
20
83.009
0
VERTEX
8
CONTOURS_MINEURES
10
67.997
20
83.009
0
VERTEX
8
CONTOURS_MINEURES
10
67.311
20
82.685
0
VERTEX
8
CONTOURS_MINEURES
10
66.005
20
82.294
0
VERTEX
8
CONTOURS_MINEURES
10
65.706
20
82.294
0
VERTEX
8
CONTOURS_MINEURES
10
64.002
20
82.294
0
VERTEX
8
CONTOURS_MINEURES
10
63.152
20
81.996
0
VERTEX
8
CONTOURS_MINEURES
10
63.152
20
81.148
0
VERTEX
8
CONTOURS_MINEURES
10
63.152
20
79.996
0
VERTEX
8
CONTOURS_MINEURES
10
61.999
20
79.564
0
VERTEX
8
CONTOURS_MINEURES
10
60.428
20
79.564
0
VERTEX
8
CONTOURS_MINEURES
10
59.995
20
79.564
0
VERTEX
8
CONTOURS_MINEURES
10
59.516
20
79.514
0
VERTEX
8
CONTOURS_MINEURES
10
58.003
20
79.106
0
VERTEX
8
CONTOURS_MINEURES
10
56.890
20
79.106
0
VERTEX
8
CONTOURS_MINEURES
10
56.000
20
79.106
0
VERTEX
8
CONTOURS_MINEURES
10
55.110
20
79.106
0
VERTEX
8
CONTOURS_MINEURES
10
53.997
20
79.106
0
VERTEX
8
CONTOURS_MINEURES
10
53.033
20
78.963
0
VERTEX
8
CONTOURS_MINEURES
10
52.005
20
78.963
0
VERTEX
8
CONTOURS_MINEURES
10
51.036
20
78.963
0
VERTEX
8
CONTOURS_MINEURES
10
50.002
20
78.963
0
VERTEX
8
CONTOURS_MINEURES
10
49.000
20
78.995
0
VERTEX
8
CONTOURS_MINEURES
10
47.999
20
78.780
0
VERTEX
8
CONTOURS_MINEURES
10
46.782
20
78.780
0
VERTEX
8
CONTOURS_MINEURES
10
45.996
20
78.780
0
VERTEX
8
CONTOURS_MINEURES
10
45.328
20
78.665
0
VERTEX
8
CONTOURS_MINEURES
10
44.003
20
78.527
0
VERTEX
8
CONTOURS_MINEURES
10
43.471
20
78.527
0
VERTEX
8
CONTOURS_MINEURES
10
42.000
20
78.527
0
VERTEX
8
CONTOURS_MINEURES
10
41.570
20
78.425
0
VERTEX
8
CONTOURS_MINEURES
10
39.997
20
78.007
0
VERTEX
8
CONTOURS_MINEURES
10
38.017
20
78.007
0
VERTEX
8
CONTOURS_MINEURES
10
38.005
20
78.007
0
VERTEX
8
CONTOURS_MINEURES
10
36.014
20
78.007
0
VERTEX
8
CONTOURS_MINEURES
10
36.002
20
78.007
0
VERTEX
8
CONTOURS_MINEURES
10
35.979
20
77.995
0
VERTEX
8
CONTOURS_MINEURES
10
35.979
20
77.972
0
VERTEX
8
CONTOURS_MINEURES
10
35.979
20
76.005
0
VERTEX
8
CONTOURS_MINEURES
10
35.979
20
74.027
0
VERTEX
8
CONTOURS_MINEURES
10
35.979
20
74.004
0
VERTEX
8
CONTOURS_MINEURES
10
33.999
20
73.148
0
VERTEX
8
CONTOURS_MINEURES
10
33.142
20
73.148
0
VERTEX
8
CONTOURS_MINEURES
10
31.996
20
73.148
0
VERTEX
8
CONTOURS_MINEURES
10
31.352
20
72.650
0
VERTEX
8
CONTOURS_MINEURES
10
30.163
20
72.004
0
VERTEX
8
CONTOURS_MINEURES
10
30.163
20
70.163
0
VERTEX
8
CONTOURS_MINEURES
10
30.163
20
70.003
0
VERTEX
8
CONTOURS_MINEURES
10
30.003
20
69.915
0
VERTEX
8
CONTOURS_MINEURES
10
28.088
20
69.915
0
VERTEX
8
CONTOURS_MINEURES
10
28.000
20
69.915
0
VERTEX
8
CONTOURS_MINEURES
10
27.833
20
69.836
0
VERTEX
8
CONTOURS_MINEURES
10
25.997
20
68.858
0
VERTEX
8
CONTOURS_MINEURES
10
25.145
20
68.858
0
VERTEX
8
CONTOURS_MINEURES
10
24.005
20
68.858
0
VERTEX
8
CONTOURS_MINEURES
10
22.859
20
68.858
0
VERTEX
8
CONTOURS_MINEURES
10
22.002
20
68.858
0
VERTEX
8
CONTOURS_MINEURES
10
21.326
20
68.677
0
VERTEX
8
CONTOURS_MINEURES
10
19.999
20
68.065
0
VERTEX
8
CONTOURS_MINEURES
10
19.936
20
68.065
0
VERTEX
8
CONTOURS_MINEURES
10
17.996
20
68.065
0
VERTEX
8
CONTOURS_MINEURES
10
17.826
20
68.002
0
VERTEX
8
CONTOURS_MINEURES
10
17.826
20
66.172
0
VERTEX
8
CONTOURS_MINEURES
10
17.826
20
66.001
0
VERTEX
8
CONTOURS_MINEURES
10
16.004
20
65.228
0
VERTEX
8
CONTOURS_MINEURES
10
14.775
20
65.228
0
VERTEX
8
CONTOURS_MINEURES
10
14.001
20
65.228
0
VERTEX
8
CONTOURS_MINEURES
10
12.350
20
64.352
0
VERTEX
8
CONTOURS_MINEURES
10
11.997
20
64.170
0
VERTEX
8
CONTOURS_MINEURES
10
11.829
20
64.170
0
VERTEX
8
CONTOURS_MINEURES
10
10.005
20
64.170
0
VERTEX
8
CONTOURS_MINEURES
10
9.836
20
64.170
0
VERTEX
8
CONTOURS_MINEURES
10
8.002
20
64.170
0
VERTEX
8
CONTOURS_MINEURES
10
7.884
20
64.118
0
VERTEX
8
CONTOURS_MINEURES
10
7.661
20
64.000
0
VERTEX
8
CONTOURS_MINEURES
10
7.661
20
63.660
0
VERTEX
8
CONTOURS_MINEURES
10
7.661
20
62.000
0
VERTEX
8
CONTOURS_MINEURES
10
7.661
20
60.339
0
VERTEX
8
CONTOURS_MINEURES
10
7.661
20
59.999
0
VERTEX
8
CONTOURS_MINEURES
10
5.999
20
59.299
0
VERTEX
8
CONTOURS_MINEURES
10
4.697
20
59.299
0
VERTEX
8
CONTOURS_MINEURES
10
3.996
20
59.299
0
VERTEX
8
CONTOURS_MINEURES
10
3.000
20
58.999
0
VERTEX
8
CONTOURS_MINEURES
10
2.004
20
58.534
0
VERTEX
8
CONTOURS_MINEURES
10
0.537
20
58.534
0
VERTEX
8
CONTOURS_MINEURES
10
0.001
20
58.534
0
SEQEND
0
POLYLINE
8
CONTOURS_MINEURES
66
1
70
0
0
VERTEX
8
CONTOURS_MINEURES
10
76.758
20
-0.002
0
VERTEX
8
CONTOURS_MINEURES
10
76.758
20
1.240
0
VERTEX
8
CONTOURS_MINEURES
10
76.758
20
1.999
0
VERTEX
8
CONTOURS_MINEURES
10
78.001
20
3.487
0
VERTEX
8
CONTOURS_MINEURES
10
78.515
20
3.487
0
VERTEX
8
CONTOURS_MINEURES
10
80.005
20
3.487
0
VERTEX
8
CONTOURS_MINEURES
10
80.515
20
3.999
0
VERTEX
8
CONTOURS_MINEURES
10
80.515
20
5.488
0
VERTEX
8
CONTOURS_MINEURES
10
80.515
20
6.000
0
VERTEX
8
CONTOURS_MINEURES
10
81.997
20
7.801
0
VERTEX
8
CONTOURS_MINEURES
10
83.800
20
7.801
0
VERTEX
8
CONTOURS_MINEURES
10
84.000
20
7.801
0
VERTEX
8
CONTOURS_MINEURES
10
85.803
20
7.801
0
VERTEX
8
CONTOURS_MINEURES
10
86.003
20
7.801
0
VERTEX
8
CONTOURS_MINEURES
10
86.094
20
7.909
0
VERTEX
8
CONTOURS_MINEURES
10
86.179
20
8.001
0
VERTEX
8
CONTOURS_MINEURES
10
86.179
20
8.178
0
VERTEX
8
CONTOURS_MINEURES
10
86.179
20
10.002
0
VERTEX
8
CONTOURS_MINEURES
10
86.179
20
11.825
0
VERTEX
8
CONTOURS_MINEURES
10
86.179
20
12.002
0
VERTEX
8
CONTOURS_MINEURES
10
87.175
20
13.179
0
VERTEX
8
CONTOURS_MINEURES
10
87.872
20
14.003
0
VERTEX
8
CONTOURS_MINEURES
10
87.872
20
15.880
0
VERTEX
8
CONTOURS_MINEURES
10
87.872
20
16.004
0
VERTEX
8
CONTOURS_MINEURES
10
87.915
20
16.085
0
VERTEX
8
CONTOURS_MINEURES
10
87.995
20
16.230
0
VERTEX
8
CONTOURS_MINEURES
10
88.221
20
16.230
0
VERTEX
8
CONTOURS_MINEURES
10
89.998
20
16.230
0
VERTEX
8
CONTOURS_MINEURES
10
90.635
20
17.369
0
VERTEX
8
CONTOURS_MINEURES
10
90.991
20
18.005
0
VERTEX
8
CONTOURS_MINEURES
10
90.991
20
19.014
0
VERTEX
8
CONTOURS_MINEURES
10
90.991
20
20.006
0
VERTEX
8
CONTOURS_MINEURES
10
92.001
20
21.532
0
VERTEX
8
CONTOURS_MINEURES
10
92.468
20
21.532
0
VERTEX
8
CONTOURS_MINEURES
10
94.004
20
21.532
0
VERTEX
8
CONTOURS_MINEURES
10
94.246
20
21.754
0
VERTEX
8
CONTOURS_MINEURES
10
94.468
20
21.995
0
VERTEX
8
CONTOURS_MINEURES
10
94.468
20
22.461
0
VERTEX
8
CONTOURS_MINEURES
10
94.468
20
23.996
0
VERTEX
8
CONTOURS_MINEURES
10
94.468
20
24.462
0
VERTEX
8
CONTOURS_MINEURES
10
94.468
20
25.997
0
VERTEX
8
CONTOURS_MINEURES
10
95.188
20
26.809
0
VERTEX
8
CONTOURS_MINEURES
10
95.840
20
27.998
0
VERTEX
8
CONTOURS_MINEURES
10
95.840
20
29.841
0
VERTEX
8
CONTOURS_MINEURES
10
95.840
20
29.998
0
VERTEX
8
CONTOURS_MINEURES
10
95.884
20
30.111
0
VERTEX
8
CONTOURS_MINEURES
10
95.997
20
30.410
0
VERTEX
8
CONTOURS_MINEURES
10
97.587
20
30.410
0
VERTEX
8
CONTOURS_MINEURES
10
98.000
20
30.410
0
VERTEX
8
CONTOURS_MINEURES
10
98.412
20
30.410
0
VERTEX
8
CONTOURS_MINEURES
10
100.003
20
30.410
0
VERTEX
8
CONTOURS_MINEURES
10
100.659
20
31.999
0
VERTEX
8
CONTOURS_MINEURES
10
100.659
20
33.341
0
VERTEX
8
CONTOURS_MINEURES
10
100.659
20
34.000
0
VERTEX
8
CONTOURS_MINEURES
10
100.590
20
35.411
0
VERTEX
8
CONTOURS_MINEURES
10
100.614
20
36.001
0
VERTEX
8
CONTOURS_MINEURES
10
100.614
20
36.614
0
VERTEX
8
CONTOURS_MINEURES
10
100.614
20
38.001
0
VERTEX
8
CONTOURS_MINEURES
10
100.614
20
39.389
0
VERTEX
8
CONTOURS_MINEURES
10
100.614
20
40.002
0
VERTEX
8
CONTOURS_MINEURES
10
100.639
20
40.641
0
VERTEX
8
CONTOURS_MINEURES
10
100.312
20
42.003
0
VERTEX
8
CONTOURS_MINEURES
10
100.312
20
43.693
0
VERTEX
8
CONTOURS_MINEURES
10
100.312
20
44.004
0
VERTEX
8
CONTOURS_MINEURES
10
100.224
20
44.226
0
VERTEX
8
CONTOURS_MINEURES
10
100.003
20
44.533
0
VERTEX
8
CONTOURS_MINEURES
10
99.473
20
44.533
0
VERTEX
8
CONTOURS_MINEURES
10
98.000
20
44.533
0
VERTEX
8
CONTOURS_MINEURES
10
96.527
20
44.533
0
VERTEX
8
CONTOURS_MINEURES
10
95.997
20
44.533
0
VERTEX
8
CONTOURS_MINEURES
10
95.314
20
46.005
0
VERTEX
8
CONTOURS_MINEURES
10
95.314
20
47.320
0
VERTEX
8
CONTOURS_MINEURES
10
95.314
20
48.005
0
VERTEX
8
CONTOURS_MINEURES
10
95.314
20
49.314
0
VERTEX
8
CONTOURS_MINEURES
10
95.314
20
49.995
0
VERTEX
8
CONTOURS_MINEURES
10
95.264
20
50.731
0
VERTEX
8
CONTOURS_MINEURES
10
94.897
20
51.996
0
VERTEX
8
CONTOURS_MINEURES
10
94.897
20
52.892
0
VERTEX
8
CONTOURS_MINEURES
10
94.897
20
53.997
0
VERTEX
8
CONTOURS_MINEURES
10
94.630
20
54.625
0
VERTEX
8
CONTOURS_MINEURES
10
94.004
20
55.952
0
VERTEX
8
CONTOURS_MINEURES
10
92.047
20
55.952
0
VERTEX
8
CONTOURS_MINEURES
10
92.001
20
55.952
0
VERTEX
8
CONTOURS_MINEURES
10
91.987
20
55.983
0
VERTEX
8
CONTOURS_MINEURES
10
91.982
20
55.997
0
VERTEX
8
CONTOURS_MINEURES
10
91.982
20
56.016
0
VERTEX
8
CONTOURS_MINEURES
10
91.982
20
57.998
0
VERTEX
8
CONTOURS_MINEURES
10
91.970
20
58.029
0
VERTEX
8
CONTOURS_MINEURES
10
91.008
20
59.999
0
VERTEX
8
CONTOURS_MINEURES
10
91.008
20
61.007
0
VERTEX
8
CONTOURS_MINEURES
10
91.008
20
62.000
0
VERTEX
8
CONTOURS_MINEURES
10
91.008
20
63.008
0
VERTEX
8
CONTOURS_MINEURES
10
91.008
20
64.000
0
VERTEX
8
CONTOURS_MINEURES
10
89.998
20
65.168
0
VERTEX
8
CONTOURS_MINEURES
10
88.830
20
65.168
0
VERTEX
8
CONTOURS_MINEURES
10
87.995
20
65.168
0
VERTEX
8
CONTOURS_MINEURES
10
87.468
20
65.472
0
VERTEX
8
CONTOURS_MINEURES
10
86.750
20
66.001
0
VERTEX
8
CONTOURS_MINEURES
10
86.750
20
67.252
0
VERTEX
8
CONTOURS_MINEURES
10
86.750
20
68.002
0
VERTEX
8
CONTOURS_MINEURES
10
86.341
20
68.342
0
VERTEX
8
CONTOURS_MINEURES
10
86.003
20
68.489
0
VERTEX
8
CONTOURS_MINEURES
10
85.516
20
68.489
0
VERTEX
8
CONTOURS_MINEURES
10
84.000
20
68.489
0
VERTEX
8
CONTOURS_MINEURES
10
83.513
20
68.489
0
VERTEX
8
CONTOURS_MINEURES
10
81.997
20
68.489
0
VERTEX
8
CONTOURS_MINEURES
10
80.614
20
68.614
0
VERTEX
8
CONTOURS_MINEURES
10
80.005
20
68.894
0
VERTEX
8
CONTOURS_MINEURES
10
79.112
20
68.894
0
VERTEX
8
CONTOURS_MINEURES
10
78.001
20
68.894
0
VERTEX
8
CONTOURS_MINEURES
10
76.891
20
68.894
0
VERTEX
8
CONTOURS_MINEURES
10
75.998
20
69.216
0
VERTEX
8
CONTOURS_MINEURES
10
74.783
20
69.216
0
VERTEX
8
CONTOURS_MINEURES
10
73.995
20
69.216
0
VERTEX
8
CONTOURS_MINEURES
10
73.464
20
69.469
0
VERTEX
8
CONTOURS_MINEURES
10
72.003
20
69.763
0
VERTEX
8
CONTOURS_MINEURES
10
70.240
20
69.763
0
VERTEX
8
CONTOURS_MINEURES
10
70.000
20
69.763
0
VERTEX
8
CONTOURS_MINEURES
10
68.237
20
69.763
0
VERTEX
8
CONTOURS_MINEURES
10
67.997
20
69.763
0
VERTEX
8
CONTOURS_MINEURES
10
67.814
20
69.819
0
VERTEX
8
CONTOURS_MINEURES
10
66.005
20
69.651
0
VERTEX
8
CONTOURS_MINEURES
10
65.652
20
69.651
0
VERTEX
8
CONTOURS_MINEURES
10
64.002
20
69.651
0
VERTEX
8
CONTOURS_MINEURES
10
62.336
20
69.666
0
VERTEX
8
CONTOURS_MINEURES
10
61.999
20
69.758
0
VERTEX
8
CONTOURS_MINEURES
10
61.753
20
69.758
0
VERTEX
8
CONTOURS_MINEURES
10
59.995
20
69.758
0
VERTEX
8
CONTOURS_MINEURES
10
59.822
20
69.829
0
VERTEX
8
CONTOURS_MINEURES
10
58.759
20
70.003
0
VERTEX
8
CONTOURS_MINEURES
10
58.759
20
70.762
0
VERTEX
8
CONTOURS_MINEURES
10
58.759
20
72.004
0
VERTEX
8
CONTOURS_MINEURES
10
58.003
20
72.149
0
VERTEX
8
CONTOURS_MINEURES
10
56.146
20
72.149
0
VERTEX
8
CONTOURS_MINEURES
10
56.000
20
72.149
0
VERTEX
8
CONTOURS_MINEURES
10
54.143
20
72.149
0
VERTEX
8
CONTOURS_MINEURES
10
53.997
20
72.149
0
VERTEX
8
CONTOURS_MINEURES
10
53.852
20
72.149
0
VERTEX
8
CONTOURS_MINEURES
10
52.005
20
72.209
0
VERTEX
8
CONTOURS_MINEURES
10
51.799
20
72.209
0
VERTEX
8
CONTOURS_MINEURES
10
50.002
20
72.209
0
VERTEX
8
CONTOURS_MINEURES
10
49.791
20
72.214
0
VERTEX
8
CONTOURS_MINEURES
10
47.999
20
72.580
0
VERTEX
8
CONTOURS_MINEURES
10
46.572
20
72.580
0
VERTEX
8
CONTOURS_MINEURES
10
45.996
20
72.580
0
VERTEX
8
CONTOURS_MINEURES
10
45.471
20
72.530
0
VERTEX
8
CONTOURS_MINEURES
10
44.003
20
72.408
0
VERTEX
8
CONTOURS_MINEURES
10
42.405
20
72.408
0
VERTEX
8
CONTOURS_MINEURES
10
42.000
20
72.408
0
VERTEX
8
CONTOURS_MINEURES
10
41.672
20
72.331
0
VERTEX
8
CONTOURS_MINEURES
10
40.526
20
72.004
0
VERTEX
8
CONTOURS_MINEURES
10
40.526
20
70.531
0
VERTEX
8
CONTOURS_MINEURES
10
40.526
20
70.003
0
VERTEX
8
CONTOURS_MINEURES
10
40.097
20
69.903
0
VERTEX
8
CONTOURS_MINEURES
10
39.997
20
69.858
0
VERTEX
8
CONTOURS_MINEURES
10
38.149
20
69.858
0
VERTEX
8
CONTOURS_MINEURES
10
38.005
20
69.858
0
VERTEX
8
CONTOURS_MINEURES
10
37.860
20
69.858
0
VERTEX
8
CONTOURS_MINEURES
10
36.002
20
69.858
0
VERTEX
8
CONTOURS_MINEURES
10
34.644
20
69.359
0
VERTEX
8
CONTOURS_MINEURES
10
33.999
20
69.126
0
VERTEX
8
CONTOURS_MINEURES
10
33.121
20
69.126
0
VERTEX
8
CONTOURS_MINEURES
10
31.996
20
69.126
0
VERTEX
8
CONTOURS_MINEURES
10
30.352
20
68.352
0
VERTEX
8
CONTOURS_MINEURES
10
30.003
20
68.160
0
VERTEX
8
CONTOURS_MINEURES
10
29.845
20
68.160
0
VERTEX
8
CONTOURS_MINEURES
10
28.000
20
68.160
0
VERTEX
8
CONTOURS_MINEURES
10
27.667
20
68.002
0
VERTEX
8
CONTOURS_MINEURES
10
27.667
20
66.335
0
VERTEX
8
CONTOURS_MINEURES
10
27.667
20
66.001
0
VERTEX
8
CONTOURS_MINEURES
10
25.997
20
65.078
0
VERTEX
8
CONTOURS_MINEURES
10
24.925
20
65.078
0
VERTEX
8
CONTOURS_MINEURES
10
24.005
20
65.078
0
VERTEX
8
CONTOURS_MINEURES
10
23.081
20
65.078
0
VERTEX
8
CONTOURS_MINEURES
10
22.002
20
65.078
0
VERTEX
8
CONTOURS_MINEURES
10
21.296
20
64.705
0
VERTEX
8
CONTOURS_MINEURES
10
19.999
20
64.277
0
VERTEX
8
CONTOURS_MINEURES
10
18.273
20
64.277
0
VERTEX
8
CONTOURS_MINEURES
10
17.996
20
64.277
0
VERTEX
8
CONTOURS_MINEURES
10
17.444
20
64.000
0
VERTEX
8
CONTOURS_MINEURES
10
17.444
20
62.553
0
VERTEX
8
CONTOURS_MINEURES
10
17.444
20
62.000
0
VERTEX
8
CONTOURS_MINEURES
10
17.444
20
60.553
0
VERTEX
8
CONTOURS_MINEURES
10
17.444
20
59.999
0
VERTEX
8
CONTOURS_MINEURES
10
16.004
20
59.279
0
VERTEX
8
CONTOURS_MINEURES
10
15.282
20
59.279
0
VERTEX
8
CONTOURS_MINEURES
10
14.001
20
59.279
0
VERTEX
8
CONTOURS_MINEURES
10
13.121
20
58.877
0
VERTEX
8
CONTOURS_MINEURES
10
11.997
20
58.370
0
VERTEX
8
CONTOURS_MINEURES
10
11.627
20
58.370
0
VERTEX
8
CONTOURS_MINEURES
10
10.005
20
58.370
0
VERTEX
8
CONTOURS_MINEURES
10
8.374
20
58.370
0
VERTEX
8
CONTOURS_MINEURES
10
8.002
20
58.370
0
VERTEX
8
CONTOURS_MINEURES
10
7.135
20
57.998
0
VERTEX
8
CONTOURS_MINEURES
10
7.135
20
56.864
0
VERTEX
8
CONTOURS_MINEURES
10
7.135
20
55.997
0
VERTEX
8
CONTOURS_MINEURES
10
6.328
20
55.669
0
VERTEX
8
CONTOURS_MINEURES
10
5.999
20
55.504
0
VERTEX
8
CONTOURS_MINEURES
10
4.490
20
55.504
0
VERTEX
8
CONTOURS_MINEURES
10
3.996
20
55.504
0
VERTEX
8
CONTOURS_MINEURES
10
3.000
20
54.997
0
VERTEX
8
CONTOURS_MINEURES
10
2.004
20
54.541
0
VERTEX
8
CONTOURS_MINEURES
10
1.458
20
54.541
0
VERTEX
8
CONTOURS_MINEURES
10
0.001
20
54.541
0
SEQEND
0
POLYLINE
8
CONTOURS_MINEURES
66
1
70
0
0
VERTEX
8
CONTOURS_MINEURES
10
72.155
20
-0.002
0
VERTEX
8
CONTOURS_MINEURES
10
72.155
20
0.151
0
VERTEX
8
CONTOURS_MINEURES
10
72.155
20
1.999
0
VERTEX
8
CONTOURS_MINEURES
10
73.013
20
2.985
0
VERTEX
8
CONTOURS_MINEURES
10
73.729
20
3.999
0
VERTEX
8
CONTOURS_MINEURES
10
73.729
20
5.733
0
VERTEX
8
CONTOURS_MINEURES
10
73.729
20
6.000
0
VERTEX
8
CONTOURS_MINEURES
10
73.782
20
6.214
0
VERTEX
8
CONTOURS_MINEURES
10
73.995
20
6.485
0
VERTEX
8
CONTOURS_MINEURES
10
74.480
20
6.485
0
VERTEX
8
CONTOURS_MINEURES
10
75.998
20
6.485
0
VERTEX
8
CONTOURS_MINEURES
10
76.597
20
7.403
0
VERTEX
8
CONTOURS_MINEURES
10
77.051
20
8.001
0
VERTEX
8
CONTOURS_MINEURES
10
77.051
20
9.052
0
VERTEX
8
CONTOURS_MINEURES
10
77.051
20
10.002
0
VERTEX
8
CONTOURS_MINEURES
10
77.051
20
10.951
0
VERTEX
8
CONTOURS_MINEURES
10
77.051
20
12.002
0
VERTEX
8
CONTOURS_MINEURES
10
77.341
20
12.663
0
VERTEX
8
CONTOURS_MINEURES
10
78.001
20
13.760
0
VERTEX
8
CONTOURS_MINEURES
10
78.245
20
13.760
0
VERTEX
8
CONTOURS_MINEURES
10
80.005
20
13.760
0
VERTEX
8
CONTOURS_MINEURES
10
80.179
20
14.003
0
VERTEX
8
CONTOURS_MINEURES
10
80.179
20
14.178
0
VERTEX
8
CONTOURS_MINEURES
10
80.179
20
16.004
0
VERTEX
8
CONTOURS_MINEURES
10
80.855
20
17.151
0
VERTEX
8
CONTOURS_MINEURES
10
81.346
20
18.005
0
VERTEX
8
CONTOURS_MINEURES
10
81.346
20
19.351
0
VERTEX
8
CONTOURS_MINEURES
10
81.346
20
20.006
0
VERTEX
8
CONTOURS_MINEURES
10
81.506
20
20.496
0
VERTEX
8
CONTOURS_MINEURES
10
81.997
20
21.616
0
VERTEX
8
CONTOURS_MINEURES
10
82.378
20
21.616
0
VERTEX
8
CONTOURS_MINEURES
10
84.000
20
21.616
0
VERTEX
8
CONTOURS_MINEURES
10
85.621
20
21.616
0
VERTEX
8
CONTOURS_MINEURES
10
86.003
20
21.616
0
VERTEX
8
CONTOURS_MINEURES
10
86.107
20
21.891
0
VERTEX
8
CONTOURS_MINEURES
10
86.166
20
21.995
0
VERTEX
8
CONTOURS_MINEURES
10
86.166
20
22.159
0
VERTEX
8
CONTOURS_MINEURES
10
86.166
20
23.996
0
VERTEX
8
CONTOURS_MINEURES
10
86.166
20
25.833
0
VERTEX
8
CONTOURS_MINEURES
10
86.166
20
25.997
0
VERTEX
8
CONTOURS_MINEURES
10
86.733
20
27.265
0
VERTEX
8
CONTOURS_MINEURES
10
87.266
20
27.998
0
VERTEX
8
CONTOURS_MINEURES
10
87.266
20
29.266
0
VERTEX
8
CONTOURS_MINEURES
10
87.266
20
29.998
0
VERTEX
8
CONTOURS_MINEURES
10
87.995
20
31.275
0
VERTEX
8
CONTOURS_MINEURES
10
89.274
20
31.275
0
VERTEX
8
CONTOURS_MINEURES
10
89.998
20
31.275
0
VERTEX
8
CONTOURS_MINEURES
10
90.251
20
31.747
0
VERTEX
8
CONTOURS_MINEURES
10
90.339
20
31.999
0
VERTEX
8
CONTOURS_MINEURES
10
90.339
20
33.660
0
VERTEX
8
CONTOURS_MINEURES
10
90.339
20
34.000
0
VERTEX
8
CONTOURS_MINEURES
10
90.323
20
34.324
0
VERTEX
8
CONTOURS_MINEURES
10
90.239
20
36.001
0
VERTEX
8
CONTOURS_MINEURES
10
90.239
20
37.761
0
VERTEX
8
CONTOURS_MINEURES
10
90.239
20
38.001
0
VERTEX
8
CONTOURS_MINEURES
10
90.239
20
38.242
0
VERTEX
8
CONTOURS_MINEURES
10
90.239
20
40.002
0
VERTEX
8
CONTOURS_MINEURES
10
89.998
20
40.331
0
VERTEX
8
CONTOURS_MINEURES
10
88.325
20
40.331
0
VERTEX
8
CONTOURS_MINEURES
10
87.995
20
40.331
0
VERTEX
8
CONTOURS_MINEURES
10
87.145
20
41.150
0
VERTEX
8
CONTOURS_MINEURES
10
86.353
20
42.003
0
VERTEX
8
CONTOURS_MINEURES
10
86.353
20
43.652
0
VERTEX
8
CONTOURS_MINEURES
10
86.353
20
44.004
0
VERTEX
8
CONTOURS_MINEURES
10
86.288
20
44.290
0
VERTEX
8
CONTOURS_MINEURES
10
86.003
20
44.582
0
VERTEX
8
CONTOURS_MINEURES
10
85.424
20
44.582
0
VERTEX
8
CONTOURS_MINEURES
10
84.000
20
44.582
0
VERTEX
8
CONTOURS_MINEURES
10
82.576
20
44.582
0
VERTEX
8
CONTOURS_MINEURES
10
81.997
20
44.582
0
VERTEX
8
CONTOURS_MINEURES
10
81.111
20
45.115
0
VERTEX
8
CONTOURS_MINEURES
10
80.005
20
45.744
0
VERTEX
8
CONTOURS_MINEURES
10
78.263
20
45.744
0
VERTEX
8
CONTOURS_MINEURES
10
78.001
20
45.744
0
VERTEX
8
CONTOURS_MINEURES
10
77.860
20
45.863
0
VERTEX
8
CONTOURS_MINEURES
10
77.722
20
46.005
0
VERTEX
8
CONTOURS_MINEURES
10
77.722
20
47.726
0
VERTEX
8
CONTOURS_MINEURES
10
77.722
20
48.005
0
VERTEX
8
CONTOURS_MINEURES
10
77.722
20
48.283
0
VERTEX
8
CONTOURS_MINEURES
10
77.722
20
49.995
0
VERTEX
8
CONTOURS_MINEURES
10
77.139
20
51.134
0
VERTEX
8
CONTOURS_MINEURES
10
76.132
20
51.996
0
VERTEX
8
CONTOURS_MINEURES
10
76.132
20
52.129
0
VERTEX
8
CONTOURS_MINEURES
10
76.132
20
53.997
0
VERTEX
8
CONTOURS_MINEURES
10
75.998
20
54.139
0
VERTEX
8
CONTOURS_MINEURES
10
74.138
20
54.139
0
VERTEX
8
CONTOURS_MINEURES
10
73.995
20
54.139
0
VERTEX
8
CONTOURS_MINEURES
10
73.222
20
55.221
0
VERTEX
8
CONTOURS_MINEURES
10
72.003
20
55.780
0
VERTEX
8
CONTOURS_MINEURES
10
70.218
20
55.780
0
VERTEX
8
CONTOURS_MINEURES
10
70.000
20
55.780
0
VERTEX
8
CONTOURS_MINEURES
10
69.782
20
55.780
0
VERTEX
8
CONTOURS_MINEURES
10
67.997
20
55.780
0
VERTEX
8
CONTOURS_MINEURES
10
67.871
20
55.997
0
VERTEX
8
CONTOURS_MINEURES
10
67.871
20
57.871
0
VERTEX
8
CONTOURS_MINEURES
10
67.871
20
57.998
0
VERTEX
8
CONTOURS_MINEURES
10
66.005
20
59.872
0
VERTEX
8
CONTOURS_MINEURES
10
65.878
20
59.872
0
VERTEX
8
CONTOURS_MINEURES
10
64.002
20
59.872
0
VERTEX
8
CONTOURS_MINEURES
10
63.917
20
59.999
0
VERTEX
8
CONTOURS_MINEURES
10
63.917
20
60.084
0
VERTEX
8
CONTOURS_MINEURES
10
63.917
20
62.000
0
VERTEX
8
CONTOURS_MINEURES
10
63.917
20
62.084
0
VERTEX
8
CONTOURS_MINEURES
10
63.917
20
64.000
0
VERTEX
8
CONTOURS_MINEURES
10
63.009
20
65.010
0
VERTEX
8
CONTOURS_MINEURES
10
61.999
20
65.229
0
VERTEX
8
CONTOURS_MINEURES
10
60.768
20
65.229
0
VERTEX
8
CONTOURS_MINEURES
10
59.995
20
65.229
0
VERTEX
8
CONTOURS_MINEURES
10
58.180
20
65.824
0
VERTEX
8
CONTOURS_MINEURES
10
58.003
20
65.896
0
VERTEX
8
CONTOURS_MINEURES
10
57.898
20
65.896
0
VERTEX
8
CONTOURS_MINEURES
10
56.000
20
65.896
0
VERTEX
8
CONTOURS_MINEURES
10
54.103
20
65.896
0
VERTEX
8
CONTOURS_MINEURES
10
53.997
20
65.896
0
VERTEX
8
CONTOURS_MINEURES
10
53.903
20
65.907
0
VERTEX
8
CONTOURS_MINEURES
10
53.649
20
66.001
0
VERTEX
8
CONTOURS_MINEURES
10
53.649
20
66.351
0
VERTEX
8
CONTOURS_MINEURES
10
53.649
20
68.002
0
VERTEX
8
CONTOURS_MINEURES
10
52.435
20
68.434
0
VERTEX
8
CONTOURS_MINEURES
10
52.005
20
68.443
0
VERTEX
8
CONTOURS_MINEURES
10
51.563
20
68.443
0
VERTEX
8
CONTOURS_MINEURES
10
50.002
20
68.443
0
VERTEX
8
CONTOURS_MINEURES
10
48.828
20
68.830
0
VERTEX
8
CONTOURS_MINEURES
10
47.999
20
68.948
0
VERTEX
8
CONTOURS_MINEURES
10
47.052
20
68.948
0
VERTEX
8
CONTOURS_MINEURES
10
45.996
20
68.948
0
VERTEX
8
CONTOURS_MINEURES
10
44.627
20
68.628
0
VERTEX
8
CONTOURS_MINEURES
10
44.003
20
68.584
0
VERTEX
8
CONTOURS_MINEURES
10
42.583
20
68.584
0
VERTEX
8
CONTOURS_MINEURES
10
42.000
20
68.584
0
VERTEX
8
CONTOURS_MINEURES
10
41.528
20
68.474
0
VERTEX
8
CONTOURS_MINEURES
10
40.481
20
68.002
0
VERTEX
8
CONTOURS_MINEURES
10
40.481
20
66.484
0
VERTEX
8
CONTOURS_MINEURES
10
40.481
20
66.001
0
VERTEX
8
CONTOURS_MINEURES
10
39.997
20
65.761
0
VERTEX
8
CONTOURS_MINEURES
10
39.758
20
65.761
0
VERTEX
8
CONTOURS_MINEURES
10
38.005
20
65.761
0
VERTEX
8
CONTOURS_MINEURES
10
36.242
20
65.761
0
VERTEX
8
CONTOURS_MINEURES
10
36.002
20
65.761
0
VERTEX
8
CONTOURS_MINEURES
10
34.743
20
65.258
0
VERTEX
8
CONTOURS_MINEURES
10
33.999
20
65.264
0
VERTEX
8
CONTOURS_MINEURES
10
33.261
20
65.264
0
VERTEX
8
CONTOURS_MINEURES
10
31.996
20
65.264
0
VERTEX
8
CONTOURS_MINEURES
10
31.076
20
64.924
0
VERTEX
8
CONTOURS_MINEURES
10
30.003
20
64.181
0
VERTEX
8
CONTOURS_MINEURES
10
29.823
20
64.181
0
VERTEX
8
CONTOURS_MINEURES
10
28.000
20
64.181
0
VERTEX
8
CONTOURS_MINEURES
10
27.681
20
64.000
0
VERTEX
8
CONTOURS_MINEURES
10
27.681
20
62.318
0
VERTEX
8
CONTOURS_MINEURES
10
27.681
20
62.000
0
VERTEX
8
CONTOURS_MINEURES
10
27.681
20
60.318
0
VERTEX
8
CONTOURS_MINEURES
10
27.681
20
59.999
0
VERTEX
8
CONTOURS_MINEURES
10
26.572
20
59.425
0
VERTEX
8
CONTOURS_MINEURES
10
25.997
20
59.176
0
VERTEX
8
CONTOURS_MINEURES
10
24.824
20
59.176
0
VERTEX
8
CONTOURS_MINEURES
10
24.005
20
59.176
0
VERTEX
8
CONTOURS_MINEURES
10
23.181
20
59.176
0
VERTEX
8
CONTOURS_MINEURES
10
22.002
20
59.176
0
VERTEX
8
CONTOURS_MINEURES
10
21.109
20
58.890
0
VERTEX
8
CONTOURS_MINEURES
10
19.999
20
58.529
0
VERTEX
8
CONTOURS_MINEURES
10
18.527
20
58.529
0
VERTEX
8
CONTOURS_MINEURES
10
17.996
20
58.529
0
VERTEX
8
CONTOURS_MINEURES
10
16.957
20
57.998
0
VERTEX
8
CONTOURS_MINEURES
10
16.957
20
56.955
0
VERTEX
8
CONTOURS_MINEURES
10
16.957
20
55.997
0
VERTEX
8
CONTOURS_MINEURES
10
16.285
20
55.715
0
VERTEX
8
CONTOURS_MINEURES
10
16.004
20
55.623
0
VERTEX
8
CONTOURS_MINEURES
10
15.628
20
55.623
0
VERTEX
8
CONTOURS_MINEURES
10
14.001
20
55.623
0
VERTEX
8
CONTOURS_MINEURES
10
13.176
20
55.174
0
VERTEX
8
CONTOURS_MINEURES
10
11.997
20
54.669
0
VERTEX
8
CONTOURS_MINEURES
10
11.328
20
54.669
0
VERTEX
8
CONTOURS_MINEURES
10
10.005
20
54.669
0
VERTEX
8
CONTOURS_MINEURES
10
8.675
20
54.669
0
VERTEX
8
CONTOURS_MINEURES
10
8.002
20
54.669
0
VERTEX
8
CONTOURS_MINEURES
10
7.524
20
54.474
0
VERTEX
8
CONTOURS_MINEURES
10
6.571
20
53.997
0
VERTEX
8
CONTOURS_MINEURES
10
6.571
20
52.567
0
VERTEX
8
CONTOURS_MINEURES
10
6.571
20
51.996
0
VERTEX
8
CONTOURS_MINEURES
10
5.999
20
51.734
0
VERTEX
8
CONTOURS_MINEURES
10
4.258
20
51.734
0
VERTEX
8
CONTOURS_MINEURES
10
3.996
20
51.734
0
VERTEX
8
CONTOURS_MINEURES
10
3.411
20
51.408
0
VERTEX
8
CONTOURS_MINEURES
10
2.004
20
50.689
0
VERTEX
8
CONTOURS_MINEURES
10
1.309
20
50.689
0
VERTEX
8
CONTOURS_MINEURES
10
0.001
20
50.689
0
SEQEND
0
POLYLINE
8
CONTOURS_MINEURES
66
1
70
0
0
VERTEX
8
CONTOURS_MINEURES
10
58.942
20
-0.002
0
VERTEX
8
CONTOURS_MINEURES
10
58.942
20
0.941
0
VERTEX
8
CONTOURS_MINEURES
10
58.942
20
1.999
0
VERTEX
8
CONTOURS_MINEURES
10
59.449
20
2.547
0
VERTEX
8
CONTOURS_MINEURES
10
59.995
20
3.369
0
VERTEX
8
CONTOURS_MINEURES
10
61.368
20
3.369
0
VERTEX
8
CONTOURS_MINEURES
10
61.999
20
3.369
0
VERTEX
8
CONTOURS_MINEURES
10
62.238
20
3.760
0
VERTEX
8
CONTOURS_MINEURES
10
63.097
20
3.999
0
VERTEX
8
CONTOURS_MINEURES
10
63.097
20
5.097
0
VERTEX
8
CONTOURS_MINEURES
10
63.097
20
6.000
0
VERTEX
8
CONTOURS_MINEURES
10
63.774
20
6.228
0
VERTEX
8
CONTOURS_MINEURES
10
64.002
20
6.418
0
VERTEX
8
CONTOURS_MINEURES
10
65.586
20
6.418
0
VERTEX
8
CONTOURS_MINEURES
10
66.005
20
6.418
0
VERTEX
8
CONTOURS_MINEURES
10
67.736
20
8.001
0
VERTEX
8
CONTOURS_MINEURES
10
67.736
20
9.739
0
VERTEX
8
CONTOURS_MINEURES
10
67.736
20
10.002
0
VERTEX
8
CONTOURS_MINEURES
10
67.736
20
10.264
0
VERTEX
8
CONTOURS_MINEURES
10
67.736
20
12.002
0
VERTEX
8
CONTOURS_MINEURES
10
67.997
20
12.447
0
VERTEX
8
CONTOURS_MINEURES
10
69.555
20
12.447
0
VERTEX
8
CONTOURS_MINEURES
10
70.000
20
12.447
0
VERTEX
8
CONTOURS_MINEURES
10
71.558
20
12.447
0
VERTEX
8
CONTOURS_MINEURES
10
72.003
20
12.447
0
VERTEX
8
CONTOURS_MINEURES
10
72.584
20
14.003
0
VERTEX
8
CONTOURS_MINEURES
10
72.584
20
15.420
0
VERTEX
8
CONTOURS_MINEURES
10
72.584
20
16.004
0
VERTEX
8
CONTOURS_MINEURES
10
73.021
20
16.983
0
VERTEX
8
CONTOURS_MINEURES
10
73.477
20
18.005
0
VERTEX
8
CONTOURS_MINEURES
10
73.477
20
19.484
0
VERTEX
8
CONTOURS_MINEURES
10
73.477
20
20.006
0
VERTEX
8
CONTOURS_MINEURES
10
73.538
20
20.462
0
VERTEX
8
CONTOURS_MINEURES
10
73.995
20
21.919
0
VERTEX
8
CONTOURS_MINEURES
10
75.921
20
21.919
0
VERTEX
8
CONTOURS_MINEURES
10
75.998
20
21.919
0
VERTEX
8
CONTOURS_MINEURES
10
76.014
20
21.980
0
VERTEX
8
CONTOURS_MINEURES
10
76.019
20
21.995
0
VERTEX
8
CONTOURS_MINEURES
10
76.019
20
22.016
0
VERTEX
8
CONTOURS_MINEURES
10
76.019
20
23.996
0
VERTEX
8
CONTOURS_MINEURES
10
76.019
20
25.976
0
VERTEX
8
CONTOURS_MINEURES
10
76.019
20
25.997
0
VERTEX
8
CONTOURS_MINEURES
10
76.029
20
26.028
0
VERTEX
8
CONTOURS_MINEURES
10
76.847
20
27.998
0
VERTEX
8
CONTOURS_MINEURES
10
76.847
20
29.151
0
VERTEX
8
CONTOURS_MINEURES
10
76.847
20
29.998
0
VERTEX
8
CONTOURS_MINEURES
10
76.783
20
30.782
0
VERTEX
8
CONTOURS_MINEURES
10
76.762
20
31.999
0
VERTEX
8
CONTOURS_MINEURES
10
76.762
20
32.762
0
VERTEX
8
CONTOURS_MINEURES
10
76.762
20
34.000
0
VERTEX
8
CONTOURS_MINEURES
10
76.580
20
34.581
0
VERTEX
8
CONTOURS_MINEURES
10
75.998
20
34.849
0
VERTEX
8
CONTOURS_MINEURES
10
75.148
20
34.849
0
VERTEX
8
CONTOURS_MINEURES
10
73.995
20
34.849
0
VERTEX
8
CONTOURS_MINEURES
10
73.226
20
35.228
0
VERTEX
8
CONTOURS_MINEURES
10
72.003
20
35.960
0
VERTEX
8
CONTOURS_MINEURES
10
71.963
20
35.960
0
VERTEX
8
CONTOURS_MINEURES
10
70.000
20
35.960
0
VERTEX
8
CONTOURS_MINEURES
10
69.960
20
35.960
0
VERTEX
8
CONTOURS_MINEURES
10
67.997
20
35.960
0
VERTEX
8
CONTOURS_MINEURES
10
67.906
20
36.001
0
VERTEX
8
CONTOURS_MINEURES
10
67.906
20
37.910
0
VERTEX
8
CONTOURS_MINEURES
10
67.906
20
38.001
0
VERTEX
8
CONTOURS_MINEURES
10
67.906
20
38.092
0
VERTEX
8
CONTOURS_MINEURES
10
67.906
20
40.002
0
VERTEX
8
CONTOURS_MINEURES
10
66.859
20
40.860
0
VERTEX
8
CONTOURS_MINEURES
10
66.684
20
42.003
0
VERTEX
8
CONTOURS_MINEURES
10
66.684
20
42.686
0
VERTEX
8
CONTOURS_MINEURES
10
66.684
20
44.004
0
VERTEX
8
CONTOURS_MINEURES
10
66.005
20
45.662
0
VERTEX
8
CONTOURS_MINEURES
10
64.345
20
45.662
0
VERTEX
8
CONTOURS_MINEURES
10
64.002
20
45.662
0
VERTEX
8
CONTOURS_MINEURES
10
63.825
20
45.828
0
VERTEX
8
CONTOURS_MINEURES
10
63.479
20
46.005
0
VERTEX
8
CONTOURS_MINEURES
10
63.479
20
46.526
0
VERTEX
8
CONTOURS_MINEURES
10
63.479
20
48.005
0
VERTEX
8
CONTOURS_MINEURES
10
63.479
20
48.524
0
VERTEX
8
CONTOURS_MINEURES
10
63.479
20
49.995
0
VERTEX
8
CONTOURS_MINEURES
10
62.323
20
50.319
0
VERTEX
8
CONTOURS_MINEURES
10
61.999
20
50.602
0
VERTEX
8
CONTOURS_MINEURES
10
60.604
20
50.602
0
VERTEX
8
CONTOURS_MINEURES
10
59.995
20
50.602
0
VERTEX
8
CONTOURS_MINEURES
10
58.442
20
51.996
0
VERTEX
8
CONTOURS_MINEURES
10
58.442
20
53.556
0
VERTEX
8
CONTOURS_MINEURES
10
58.442
20
53.997
0
VERTEX
8
CONTOURS_MINEURES
10
58.800
20
55.197
0
VERTEX
8
CONTOURS_MINEURES
10
58.813
20
55.997
0
VERTEX
8
CONTOURS_MINEURES
10
58.813
20
57.185
0
VERTEX
8
CONTOURS_MINEURES
10
58.813
20
57.998
0
VERTEX
8
CONTOURS_MINEURES
10
58.462
20
58.458
0
VERTEX
8
CONTOURS_MINEURES
10
58.003
20
59.856
0
VERTEX
8
CONTOURS_MINEURES
10
56.143
20
59.856
0
VERTEX
8
CONTOURS_MINEURES
10
56.000
20
59.856
0
VERTEX
8
CONTOURS_MINEURES
10
55.857
20
59.856
0
VERTEX
8
CONTOURS_MINEURES
10
53.997
20
59.856
0
VERTEX
8
CONTOURS_MINEURES
10
53.907
20
59.908
0
VERTEX
8
CONTOURS_MINEURES
10
53.838
20
59.999
0
VERTEX
8
CONTOURS_MINEURES
10
53.838
20
60.159
0
VERTEX
8
CONTOURS_MINEURES
10
53.838
20
62.000
0
VERTEX
8
CONTOURS_MINEURES
10
53.838
20
63.840
0
VERTEX
8
CONTOURS_MINEURES
10
53.838
20
64.000
0
VERTEX
8
CONTOURS_MINEURES
10
52.201
20
64.197
0
VERTEX
8
CONTOURS_MINEURES
10
52.005
20
64.270
0
VERTEX
8
CONTOURS_MINEURES
10
51.735
20
64.270
0
VERTEX
8
CONTOURS_MINEURES
10
50.002
20
64.270
0
VERTEX
8
CONTOURS_MINEURES
10
48.172
20
64.173
0
VERTEX
8
CONTOURS_MINEURES
10
47.999
20
64.334
0
VERTEX
8
CONTOURS_MINEURES
10
47.665
20
64.334
0
VERTEX
8
CONTOURS_MINEURES
10
45.996
20
64.334
0
VERTEX
8
CONTOURS_MINEURES
10
45.807
20
64.190
0
VERTEX
8
CONTOURS_MINEURES
10
45.614
20
64.000
0
VERTEX
8
CONTOURS_MINEURES
10
45.614
20
63.617
0
VERTEX
8
CONTOURS_MINEURES
10
45.614
20
62.000
0
VERTEX
8
CONTOURS_MINEURES
10
45.614
20
61.616
0
VERTEX
8
CONTOURS_MINEURES
10
45.614
20
59.999
0
VERTEX
8
CONTOURS_MINEURES
10
45.614
20
58.382
0
VERTEX
8
CONTOURS_MINEURES
10
44.003
20
58.263
0
VERTEX
8
CONTOURS_MINEURES
10
43.738
20
58.263
0
VERTEX
8
CONTOURS_MINEURES
10
42.000
20
58.263
0
VERTEX
8
CONTOURS_MINEURES
10
41.672
20
58.326
0
VERTEX
8
CONTOURS_MINEURES
10
39.997
20
59.322
0
VERTEX
8
CONTOURS_MINEURES
10
39.323
20
59.322
0
VERTEX
8
CONTOURS_MINEURES
10
38.005
20
59.322
0
VERTEX
8
CONTOURS_MINEURES
10
36.679
20
59.322
0
VERTEX
8
CONTOURS_MINEURES
10
36.002
20
59.322
0
VERTEX
8
CONTOURS_MINEURES
10
35.506
20
59.504
0
VERTEX
8
CONTOURS_MINEURES
10
33.999
20
59.520
0
VERTEX
8
CONTOURS_MINEURES
10
32.475
20
59.520
0
VERTEX
8
CONTOURS_MINEURES
10
31.996
20
59.520
0
VERTEX
8
CONTOURS_MINEURES
10
30.900
20
58.898
0
VERTEX
8
CONTOURS_MINEURES
10
30.003
20
58.329
0
VERTEX
8
CONTOURS_MINEURES
10
28.331
20
58.329
0
VERTEX
8
CONTOURS_MINEURES
10
28.000
20
58.329
0
VERTEX
8
CONTOURS_MINEURES
10
27.783
20
58.216
0
VERTEX
8
CONTOURS_MINEURES
10
27.279
20
57.998
0
VERTEX
8
CONTOURS_MINEURES
10
27.279
20
56.718
0
VERTEX
8
CONTOURS_MINEURES
10
27.279
20
55.997
0
VERTEX
8
CONTOURS_MINEURES
10
25.997
20
55.468
0
VERTEX
8
CONTOURS_MINEURES
10
25.470
20
55.468
0
VERTEX
8
CONTOURS_MINEURES
10
24.005
20
55.468
0
VERTEX
8
CONTOURS_MINEURES
10
22.532
20
55.468
0
VERTEX
8
CONTOURS_MINEURES
10
22.002
20
55.468
0
VERTEX
8
CONTOURS_MINEURES
10
21.377
20
55.373
0
VERTEX
8
CONTOURS_MINEURES
10
19.999
20
55.004
0
VERTEX
8
CONTOURS_MINEURES
10
19.005
20
55.004
0
VERTEX
8
CONTOURS_MINEURES
10
17.996
20
55.004
0
VERTEX
8
CONTOURS_MINEURES
10
17.288
20
54.707
0
VERTEX
8
CONTOURS_MINEURES
10
16.004
20
54.284
0
VERTEX
8
CONTOURS_MINEURES
10
14.289
20
54.284
0
VERTEX
8
CONTOURS_MINEURES
10
14.001
20
54.284
0
VERTEX
8
CONTOURS_MINEURES
10
13.472
20
53.997
0
VERTEX
8
CONTOURS_MINEURES
10
13.472
20
52.524
0
VERTEX
8
CONTOURS_MINEURES
10
13.472
20
51.996
0
VERTEX
8
CONTOURS_MINEURES
10
11.997
20
51.138
0
VERTEX
8
CONTOURS_MINEURES
10
11.144
20
51.138
0
VERTEX
8
CONTOURS_MINEURES
10
10.005
20
51.138
0
VERTEX
8
CONTOURS_MINEURES
10
8.861
20
51.138
0
VERTEX
8
CONTOURS_MINEURES
10
8.002
20
51.138
0
VERTEX
8
CONTOURS_MINEURES
10
6.195
20
50.191
0
VERTEX
8
CONTOURS_MINEURES
10
5.999
20
50.101
0
VERTEX
8
CONTOURS_MINEURES
10
5.893
20
50.101
0
VERTEX
8
CONTOURS_MINEURES
10
3.996
20
50.101
0
VERTEX
8
CONTOURS_MINEURES
10
3.806
20
49.995
0
VERTEX
8
CONTOURS_MINEURES
10
3.806
20
48.196
0
VERTEX
8
CONTOURS_MINEURES
10
3.806
20
48.005
0
VERTEX
8
CONTOURS_MINEURES
10
3.806
20
47.814
0
VERTEX
8
CONTOURS_MINEURES
10
3.806
20
46.005
0
VERTEX
8
CONTOURS_MINEURES
10
2.727
20
45.279
0
VERTEX
8
CONTOURS_MINEURES
10
2.004
20
44.886
0
VERTEX
8
CONTOURS_MINEURES
10
0.884
20
44.886
0
VERTEX
8
CONTOURS_MINEURES
10
0.001
20
44.886
0
SEQEND
0
POLYLINE
8
CONTOURS_MINEURES
66
1
70
0
0
VERTEX
8
CONTOURS_MINEURES
10
44.195
20
-0.002
0
VERTEX
8
CONTOURS_MINEURES
10
44.195
20
1.806
0
VERTEX
8
CONTOURS_MINEURES
10
44.195
20
1.999
0
VERTEX
8
CONTOURS_MINEURES
10
45.270
20
2.728
0
VERTEX
8
CONTOURS_MINEURES
10
45.996
20
3.032
0
VERTEX
8
CONTOURS_MINEURES
10
46.964
20
3.032
0
VERTEX
8
CONTOURS_MINEURES
10
47.999
20
3.032
0
VERTEX
8
CONTOURS_MINEURES
10
49.492
20
3.999
0
VERTEX
8
CONTOURS_MINEURES
10
49.492
20
5.491
0
VERTEX
8
CONTOURS_MINEURES
10
49.492
20
6.000
0
VERTEX
8
CONTOURS_MINEURES
10
49.776
20
6.226
0
VERTEX
8
CONTOURS_MINEURES
10
50.002
20
6.334
0
VERTEX
8
CONTOURS_MINEURES
10
51.671
20
6.334
0
VERTEX
8
CONTOURS_MINEURES
10
52.005
20
6.334
0
VERTEX
8
CONTOURS_MINEURES
10
53.703
20
8.001
0
VERTEX
8
CONTOURS_MINEURES
10
53.703
20
9.706
0
VERTEX
8
CONTOURS_MINEURES
10
53.703
20
10.002
0
VERTEX
8
CONTOURS_MINEURES
10
53.703
20
10.297
0
VERTEX
8
CONTOURS_MINEURES
10
53.703
20
12.002
0
VERTEX
8
CONTOURS_MINEURES
10
53.748
20
12.253
0
VERTEX
8
CONTOURS_MINEURES
10
53.997
20
12.568
0
VERTEX
8
CONTOURS_MINEURES
10
55.434
20
12.568
0
VERTEX
8
CONTOURS_MINEURES
10
56.000
20
12.568
0
VERTEX
8
CONTOURS_MINEURES
10
56.566
20
12.568
0
VERTEX
8
CONTOURS_MINEURES
10
58.003
20
12.568
0
VERTEX
8
CONTOURS_MINEURES
10
59.118
20
14.003
0
VERTEX
8
CONTOURS_MINEURES
10
59.118
20
14.885
0
VERTEX
8
CONTOURS_MINEURES
10
59.118
20
16.004
0
VERTEX
8
CONTOURS_MINEURES
10
59.348
20
16.654
0
VERTEX
8
CONTOURS_MINEURES
10
59.995
20
17.304
0
VERTEX
8
CONTOURS_MINEURES
10
61.297
20
17.304
0
VERTEX
8
CONTOURS_MINEURES
10
61.999
20
17.304
0
VERTEX
8
CONTOURS_MINEURES
10
62.399
20
18.005
0
VERTEX
8
CONTOURS_MINEURES
10
62.399
20
19.605
0
VERTEX
8
CONTOURS_MINEURES
10
62.399
20
20.006
0
VERTEX
8
CONTOURS_MINEURES
10
62.423
20
20.428
0
VERTEX
8
CONTOURS_MINEURES
10
62.535
20
21.995
0
VERTEX
8
CONTOURS_MINEURES
10
62.535
20
23.461
0
VERTEX
8
CONTOURS_MINEURES
10
62.535
20
23.996
0
VERTEX
8
CONTOURS_MINEURES
10
62.535
20
24.531
0
VERTEX
8
CONTOURS_MINEURES
10
62.535
20
25.997
0
VERTEX
8
CONTOURS_MINEURES
10
61.999
20
26.902
0
VERTEX
8
CONTOURS_MINEURES
10
61.092
20
26.902
0
VERTEX
8
CONTOURS_MINEURES
10
59.995
20
26.902
0
VERTEX
8
CONTOURS_MINEURES
10
59.408
20
27.408
0
VERTEX
8
CONTOURS_MINEURES
10
58.723
20
27.998
0
VERTEX
8
CONTOURS_MINEURES
10
58.723
20
28.720
0
VERTEX
8
CONTOURS_MINEURES
10
58.723
20
29.998
0
VERTEX
8
CONTOURS_MINEURES
10
58.003
20
30.336
0
VERTEX
8
CONTOURS_MINEURES
10
56.338
20
30.336
0
VERTEX
8
CONTOURS_MINEURES
10
56.000
20
30.336
0
VERTEX
8
CONTOURS_MINEURES
10
55.662
20
30.336
0
VERTEX
8
CONTOURS_MINEURES
10
53.997
20
30.336
0
VERTEX
8
CONTOURS_MINEURES
10
52.442
20
30.438
0
VERTEX
8
CONTOURS_MINEURES
10
52.005
20
30.749
0
VERTEX
8
CONTOURS_MINEURES
10
50.753
20
30.749
0
VERTEX
8
CONTOURS_MINEURES
10
50.002
20
30.749
0
VERTEX
8
CONTOURS_MINEURES
10
49.190
20
31.188
0
VERTEX
8
CONTOURS_MINEURES
10
49.179
20
31.999
0
VERTEX
8
CONTOURS_MINEURES
10
49.179
20
32.821
0
VERTEX
8
CONTOURS_MINEURES
10
49.179
20
34.000
0
VERTEX
8
CONTOURS_MINEURES
10
48.804
20
34.804
0
VERTEX
8
CONTOURS_MINEURES
10
48.561
20
36.001
0
VERTEX
8
CONTOURS_MINEURES
10
48.561
20
36.563
0
VERTEX
8
CONTOURS_MINEURES
10
48.561
20
38.001
0
VERTEX
8
CONTOURS_MINEURES
10
48.561
20
39.440
0
VERTEX
8
CONTOURS_MINEURES
10
48.561
20
40.002
0
VERTEX
8
CONTOURS_MINEURES
10
47.999
20
40.760
0
VERTEX
8
CONTOURS_MINEURES
10
46.754
20
40.760
0
VERTEX
8
CONTOURS_MINEURES
10
45.996
20
40.760
0
VERTEX
8
CONTOURS_MINEURES
10
44.719
20
42.003
0
VERTEX
8
CONTOURS_MINEURES
10
44.719
20
42.722
0
VERTEX
8
CONTOURS_MINEURES
10
44.719
20
44.004
0
VERTEX
8
CONTOURS_MINEURES
10
44.476
20
44.478
0
VERTEX
8
CONTOURS_MINEURES
10
44.003
20
45.844
0
VERTEX
8
CONTOURS_MINEURES
10
43.843
20
45.844
0
VERTEX
8
CONTOURS_MINEURES
10
42.000
20
45.844
0
VERTEX
8
CONTOURS_MINEURES
10
41.943
20
46.005
0
VERTEX
8
CONTOURS_MINEURES
10
41.943
20
47.948
0
VERTEX
8
CONTOURS_MINEURES
10
41.943
20
48.005
0
VERTEX
8
CONTOURS_MINEURES
10
41.943
20
48.062
0
VERTEX
8
CONTOURS_MINEURES
10
41.943
20
49.995
0
VERTEX
8
CONTOURS_MINEURES
10
41.692
20
50.303
0
VERTEX
8
CONTOURS_MINEURES
10
40.248
20
51.996
0
VERTEX
8
CONTOURS_MINEURES
10
40.248
20
52.246
0
VERTEX
8
CONTOURS_MINEURES
10
40.248
20
53.997
0
VERTEX
8
CONTOURS_MINEURES
10
40.106
20
54.106
0
VERTEX
8
CONTOURS_MINEURES
10
39.997
20
54.178
0
VERTEX
8
CONTOURS_MINEURES
10
39.816
20
54.178
0
VERTEX
8
CONTOURS_MINEURES
10
38.005
20
54.178
0
VERTEX
8
CONTOURS_MINEURES
10
36.184
20
54.178
0
VERTEX
8
CONTOURS_MINEURES
10
36.002
20
54.178
0
VERTEX
8
CONTOURS_MINEURES
10
35.692
20
54.307
0
VERTEX
8
CONTOURS_MINEURES
10
33.999
20
54.896
0
VERTEX
8
CONTOURS_MINEURES
10
33.098
20
54.896
0
VERTEX
8
CONTOURS_MINEURES
10
31.996
20
54.896
0
VERTEX
8
CONTOURS_MINEURES
10
30.341
20
53.997
0
VERTEX
8
CONTOURS_MINEURES
10
30.341
20
53.657
0
VERTEX
8
CONTOURS_MINEURES
10
30.341
20
51.996
0
VERTEX
8
CONTOURS_MINEURES
10
30.003
20
51.683
0
VERTEX
8
CONTOURS_MINEURES
10
28.313
20
51.683
0
VERTEX
8
CONTOURS_MINEURES
10
28.000
20
51.683
0
VERTEX
8
CONTOURS_MINEURES
10
27.692
20
51.688
0
VERTEX
8
CONTOURS_MINEURES
10
25.997
20
51.424
0
VERTEX
8
CONTOURS_MINEURES
10
25.428
20
51.424
0
VERTEX
8
CONTOURS_MINEURES
10
24.005
20
51.424
0
VERTEX
8
CONTOURS_MINEURES
10
22.574
20
51.424
0
VERTEX
8
CONTOURS_MINEURES
10
22.002
20
51.424
0
VERTEX
8
CONTOURS_MINEURES
10
21.036
20
50.960
0
VERTEX
8
CONTOURS_MINEURES
10
19.999
20
50.913
0
VERTEX
8
CONTOURS_MINEURES
10
19.080
20
50.913
0
VERTEX
8
CONTOURS_MINEURES
10
17.996
20
50.913
0
VERTEX
8
CONTOURS_MINEURES
10
16.832
20
50.827
0
VERTEX
8
CONTOURS_MINEURES
10
16.004
20
50.417
0
VERTEX
8
CONTOURS_MINEURES
10
15.581
20
50.417
0
VERTEX
8
CONTOURS_MINEURES
10
14.001
20
50.417
0
VERTEX
8
CONTOURS_MINEURES
10
12.975
20
49.995
0
VERTEX
8
CONTOURS_MINEURES
10
12.975
20
48.976
0
VERTEX
8
CONTOURS_MINEURES
10
12.975
20
48.005
0
VERTEX
8
CONTOURS_MINEURES
10
12.975
20
47.029
0
VERTEX
8
CONTOURS_MINEURES
10
12.975
20
46.005
0
VERTEX
8
CONTOURS_MINEURES
10
11.997
20
45.364
0
VERTEX
8
CONTOURS_MINEURES
10
11.360
20
45.364
0
VERTEX
8
CONTOURS_MINEURES
10
10.005
20
45.364
0
VERTEX
8
CONTOURS_MINEURES
10
9.364
20
45.364
0
VERTEX
8
CONTOURS_MINEURES
10
8.002
20
45.364
0
VERTEX
8
CONTOURS_MINEURES
10
7.376
20
44.629
0
VERTEX
8
CONTOURS_MINEURES
10
5.999
20
44.161
0
VERTEX
8
CONTOURS_MINEURES
10
5.841
20
44.161
0
VERTEX
8
CONTOURS_MINEURES
10
3.996
20
44.161
0
VERTEX
8
CONTOURS_MINEURES
10
3.902
20
44.098
0
VERTEX
8
CONTOURS_MINEURES
10
3.728
20
44.004
0
VERTEX
8
CONTOURS_MINEURES
10
3.728
20
42.272
0
VERTEX
8
CONTOURS_MINEURES
10
3.728
20
42.003
0
VERTEX
8
CONTOURS_MINEURES
10
2.004
20
41.075
0
VERTEX
8
CONTOURS_MINEURES
10
1.074
20
41.075
0
VERTEX
8
CONTOURS_MINEURES
10
0.001
20
41.075
0
SEQEND
0
POLYLINE
8
CONTOURS_MINEURES
66
1
70
0
0
VERTEX
8
CONTOURS_MINEURES
10
31.257
20
-0.002
0
VERTEX
8
CONTOURS_MINEURES
10
31.257
20
0.739
0
VERTEX
8
CONTOURS_MINEURES
10
31.257
20
1.999
0
VERTEX
8
CONTOURS_MINEURES
10
30.904
20
3.095
0
VERTEX
8
CONTOURS_MINEURES
10
30.777
20
3.999
0
VERTEX
8
CONTOURS_MINEURES
10
30.777
20
4.776
0
VERTEX
8
CONTOURS_MINEURES
10
30.777
20
6.000
0
VERTEX
8
CONTOURS_MINEURES
10
30.118
20
7.886
0
VERTEX
8
CONTOURS_MINEURES
10
30.164
20
8.001
0
VERTEX
8
CONTOURS_MINEURES
10
30.164
20
9.840
0
VERTEX
8
CONTOURS_MINEURES
10
30.164
20
10.002
0
VERTEX
8
CONTOURS_MINEURES
10
30.164
20
10.163
0
VERTEX
8
CONTOURS_MINEURES
10
30.164
20
12.002
0
VERTEX
8
CONTOURS_MINEURES
10
30.611
20
13.393
0
VERTEX
8
CONTOURS_MINEURES
10
31.314
20
14.003
0
VERTEX
8
CONTOURS_MINEURES
10
31.314
20
15.320
0
VERTEX
8
CONTOURS_MINEURES
10
31.314
20
16.004
0
VERTEX
8
CONTOURS_MINEURES
10
31.445
20
16.557
0
VERTEX
8
CONTOURS_MINEURES
10
31.996
20
17.630
0
VERTEX
8
CONTOURS_MINEURES
10
32.371
20
17.630
0
VERTEX
8
CONTOURS_MINEURES
10
33.999
20
17.630
0
VERTEX
8
CONTOURS_MINEURES
10
34.206
20
18.005
0
VERTEX
8
CONTOURS_MINEURES
10
34.206
20
19.799
0
VERTEX
8
CONTOURS_MINEURES
10
34.206
20
20.006
0
VERTEX
8
CONTOURS_MINEURES
10
34.170
20
20.176
0
VERTEX
8
CONTOURS_MINEURES
10
34.769
20
21.995
0
VERTEX
8
CONTOURS_MINEURES
10
34.769
20
23.226
0
VERTEX
8
CONTOURS_MINEURES
10
34.769
20
23.996
0
VERTEX
8
CONTOURS_MINEURES
10
34.769
20
25.227
0
VERTEX
8
CONTOURS_MINEURES
10
34.769
20
25.997
0
VERTEX
8
CONTOURS_MINEURES
10
35.000
20
26.997
0
VERTEX
8
CONTOURS_MINEURES
10
34.941
20
27.998
0
VERTEX
8
CONTOURS_MINEURES
10
34.941
20
28.939
0
VERTEX
8
CONTOURS_MINEURES
10
34.941
20
29.998
0
VERTEX
8
CONTOURS_MINEURES
10
34.955
20
30.954
0
VERTEX
8
CONTOURS_MINEURES
10
33.999
20
31.421
0
VERTEX
8
CONTOURS_MINEURES
10
32.574
20
31.421
0
VERTEX
8
CONTOURS_MINEURES
10
31.996
20
31.421
0
VERTEX
8
CONTOURS_MINEURES
10
31.098
20
30.900
0
VERTEX
8
CONTOURS_MINEURES
10
30.003
20
31.070
0
VERTEX
8
CONTOURS_MINEURES
10
29.073
20
31.070
0
VERTEX
8
CONTOURS_MINEURES
10
28.000
20
31.070
0
VERTEX
8
CONTOURS_MINEURES
10
27.268
20
30.730
0
VERTEX
8
CONTOURS_MINEURES
10
25.997
20
30.373
0
VERTEX
8
CONTOURS_MINEURES
10
25.624
20
30.373
0
VERTEX
8
CONTOURS_MINEURES
10
24.005
20
30.373
0
VERTEX
8
CONTOURS_MINEURES
10
22.378
20
30.373
0
VERTEX
8
CONTOURS_MINEURES
10
22.002
20
30.373
0
VERTEX
8
CONTOURS_MINEURES
10
20.909
20
31.090
0
VERTEX
8
CONTOURS_MINEURES
10
19.999
20
31.734
0
VERTEX
8
CONTOURS_MINEURES
10
19.733
20
31.734
0
VERTEX
8
CONTOURS_MINEURES
10
17.996
20
31.734
0
VERTEX
8
CONTOURS_MINEURES
10
17.785
20
31.999
0
VERTEX
8
CONTOURS_MINEURES
10
17.785
20
33.789
0
VERTEX
8
CONTOURS_MINEURES
10
17.785
20
34.000
0
VERTEX
8
CONTOURS_MINEURES
10
16.004
20
35.672
0
VERTEX
8
CONTOURS_MINEURES
10
15.674
20
35.672
0
VERTEX
8
CONTOURS_MINEURES
10
14.001
20
35.672
0
VERTEX
8
CONTOURS_MINEURES
10
13.106
20
36.001
0
VERTEX
8
CONTOURS_MINEURES
10
13.106
20
37.108
0
VERTEX
8
CONTOURS_MINEURES
10
13.106
20
38.001
0
VERTEX
8
CONTOURS_MINEURES
10
13.106
20
38.895
0
VERTEX
8
CONTOURS_MINEURES
10
13.106
20
40.002
0
VERTEX
8
CONTOURS_MINEURES
10
11.997
20
40.427
0
VERTEX
8
CONTOURS_MINEURES
10
10.428
20
40.427
0
VERTEX
8
CONTOURS_MINEURES
10
10.005
20
40.427
0
VERTEX
8
CONTOURS_MINEURES
10
9.580
20
40.427
0
VERTEX
8
CONTOURS_MINEURES
10
8.002
20
40.427
0
VERTEX
8
CONTOURS_MINEURES
10
6.216
20
40.219
0
VERTEX
8
CONTOURS_MINEURES
10
5.999
20
40.144
0
VERTEX
8
CONTOURS_MINEURES
10
5.857
20
40.144
0
VERTEX
8
CONTOURS_MINEURES
10
3.996
20
40.144
0
VERTEX
8
CONTOURS_MINEURES
10
3.702
20
40.002
0
VERTEX
8
CONTOURS_MINEURES
10
3.702
20
38.296
0
VERTEX
8
CONTOURS_MINEURES
10
3.702
20
38.001
0
VERTEX
8
CONTOURS_MINEURES
10
3.702
20
37.707
0
VERTEX
8
CONTOURS_MINEURES
10
3.702
20
36.001
0
VERTEX
8
CONTOURS_MINEURES
10
2.004
20
35.271
0
VERTEX
8
CONTOURS_MINEURES
10
0.731
20
35.271
0
VERTEX
8
CONTOURS_MINEURES
10
0.001
20
35.271
0
SEQEND
0
POLYLINE
8
CONTOURS_MINEURES
66
1
70
0
0
VERTEX
8
CONTOURS_MINEURES
10
26.545
20
-0.002
0
VERTEX
8
CONTOURS_MINEURES
10
26.545
20
0.545
0
VERTEX
8
CONTOURS_MINEURES
10
26.545
20
1.999
0
VERTEX
8
CONTOURS_MINEURES
10
25.997
20
2.985
0
VERTEX
8
CONTOURS_MINEURES
10
24.987
20
2.985
0
VERTEX
8
CONTOURS_MINEURES
10
24.005
20
2.985
0
VERTEX
8
CONTOURS_MINEURES
10
23.018
20
2.985
0
VERTEX
8
CONTOURS_MINEURES
10
22.002
20
2.985
0
VERTEX
8
CONTOURS_MINEURES
10
20.926
20
3.999
0
VERTEX
8
CONTOURS_MINEURES
10
20.926
20
4.925
0
VERTEX
8
CONTOURS_MINEURES
10
20.926
20
6.000
0
VERTEX
8
CONTOURS_MINEURES
10
19.999
20
6.682
0
VERTEX
8
CONTOURS_MINEURES
10
19.317
20
6.682
0
VERTEX
8
CONTOURS_MINEURES
10
17.996
20
6.682
0
VERTEX
8
CONTOURS_MINEURES
10
17.171
20
7.173
0
VERTEX
8
CONTOURS_MINEURES
10
16.004
20
7.911
0
VERTEX
8
CONTOURS_MINEURES
10
14.091
20
7.911
0
VERTEX
8
CONTOURS_MINEURES
10
14.001
20
7.911
0
VERTEX
8
CONTOURS_MINEURES
10
13.896
20
8.001
0
VERTEX
8
CONTOURS_MINEURES
10
13.896
20
8.105
0
VERTEX
8
CONTOURS_MINEURES
10
13.896
20
10.002
0
VERTEX
8
CONTOURS_MINEURES
10
13.896
20
11.898
0
VERTEX
8
CONTOURS_MINEURES
10
13.896
20
12.002
0
VERTEX
8
CONTOURS_MINEURES
10
13.692
20
12.310
0
VERTEX
8
CONTOURS_MINEURES
10
12.862
20
14.003
0
VERTEX
8
CONTOURS_MINEURES
10
12.862
20
14.866
0
VERTEX
8
CONTOURS_MINEURES
10
12.862
20
16.004
0
VERTEX
8
CONTOURS_MINEURES
10
13.236
20
16.767
0
VERTEX
8
CONTOURS_MINEURES
10
13.621
20
18.005
0
VERTEX
8
CONTOURS_MINEURES
10
13.621
20
19.626
0
VERTEX
8
CONTOURS_MINEURES
10
13.621
20
20.006
0
VERTEX
8
CONTOURS_MINEURES
10
13.753
20
20.251
0
VERTEX
8
CONTOURS_MINEURES
10
14.001
20
20.917
0
VERTEX
8
CONTOURS_MINEURES
10
14.919
20
20.917
0
VERTEX
8
CONTOURS_MINEURES
10
16.004
20
20.917
0
VERTEX
8
CONTOURS_MINEURES
10
16.305
20
21.694
0
VERTEX
8
CONTOURS_MINEURES
10
16.483
20
21.995
0
VERTEX
8
CONTOURS_MINEURES
10
16.483
20
23.514
0
VERTEX
8
CONTOURS_MINEURES
10
16.483
20
23.996
0
VERTEX
8
CONTOURS_MINEURES
10
16.483
20
24.478
0
VERTEX
8
CONTOURS_MINEURES
10
16.483
20
25.997
0
VERTEX
8
CONTOURS_MINEURES
10
16.004
20
27.297
0
VERTEX
8
CONTOURS_MINEURES
10
14.702
20
27.297
0
VERTEX
8
CONTOURS_MINEURES
10
14.001
20
27.297
0
VERTEX
8
CONTOURS_MINEURES
10
13.836
20
27.833
0
VERTEX
8
CONTOURS_MINEURES
10
13.832
20
27.998
0
VERTEX
8
CONTOURS_MINEURES
10
13.832
20
28.166
0
VERTEX
8
CONTOURS_MINEURES
10
13.832
20
29.998
0
VERTEX
8
CONTOURS_MINEURES
10
13.176
20
30.822
0
VERTEX
8
CONTOURS_MINEURES
10
12.239
20
31.999
0
VERTEX
8
CONTOURS_MINEURES
10
12.239
20
32.240
0
VERTEX
8
CONTOURS_MINEURES
10
12.239
20
34.000
0
VERTEX
8
CONTOURS_MINEURES
10
11.997
20
34.112
0
VERTEX
8
CONTOURS_MINEURES
10
11.886
20
34.112
0
VERTEX
8
CONTOURS_MINEURES
10
10.005
20
34.112
0
VERTEX
8
CONTOURS_MINEURES
10
8.114
20
34.112
0
VERTEX
8
CONTOURS_MINEURES
10
8.002
20
34.112
0
VERTEX
8
CONTOURS_MINEURES
10
6.449
20
34.450
0
VERTEX
8
CONTOURS_MINEURES
10
5.999
20
34.417
0
VERTEX
8
CONTOURS_MINEURES
10
5.581
20
34.417
0
VERTEX
8
CONTOURS_MINEURES
10
3.996
20
34.417
0
VERTEX
8
CONTOURS_MINEURES
10
3.092
20
34.000
0
VERTEX
8
CONTOURS_MINEURES
10
3.092
20
32.907
0
VERTEX
8
CONTOURS_MINEURES
10
3.092
20
31.999
0
VERTEX
8
CONTOURS_MINEURES
10
2.561
20
31.440
0
VERTEX
8
CONTOURS_MINEURES
10
2.004
20
30.973
0
VERTEX
8
CONTOURS_MINEURES
10
0.976
20
30.973
0
VERTEX
8
CONTOURS_MINEURES
10
0.001
20
30.973
0
SEQEND
0
POLYLINE
8
CONTOURS_MINEURES
66
1
70
0
0
VERTEX
8
CONTOURS_MINEURES
10
13.411
20
-0.002
0
VERTEX
8
CONTOURS_MINEURES
10
13.411
20
0.586
0
VERTEX
8
CONTOURS_MINEURES
10
13.411
20
1.999
0
VERTEX
8
CONTOURS_MINEURES
10
11.997
20
3.124
0
VERTEX
8
CONTOURS_MINEURES
10
11.126
20
3.124
0
VERTEX
8
CONTOURS_MINEURES
10
10.005
20
3.124
0
VERTEX
8
CONTOURS_MINEURES
10
9.129
20
3.124
0
VERTEX
8
CONTOURS_MINEURES
10
8.002
20
3.124
0
VERTEX
8
CONTOURS_MINEURES
10
6.400
20
3.599
0
VERTEX
8
CONTOURS_MINEURES
10
5.999
20
3.672
0
VERTEX
8
CONTOURS_MINEURES
10
4.324
20
3.672
0
VERTEX
8
CONTOURS_MINEURES
10
3.996
20
3.672
0
VERTEX
8
CONTOURS_MINEURES
10
3.807
20
3.810
0
VERTEX
8
CONTOURS_MINEURES
10
2.004
20
3.869
0
VERTEX
8
CONTOURS_MINEURES
10
0.131
20
3.869
0
VERTEX
8
CONTOURS_MINEURES
10
0.001
20
3.869
0
SEQEND
0
POLYLINE
8
CONTOURS_MAJEURES
66
1
70
0
0
VERTEX
8
CONTOURS_MAJEURES
10
91.960
20
-0.002
0
VERTEX
8
CONTOURS_MAJEURES
10
91.960
20
1.957
0
VERTEX
8
CONTOURS_MAJEURES
10
91.960
20
1.999
0
VERTEX
8
CONTOURS_MAJEURES
10
92.001
20
2.175
0
VERTEX
8
CONTOURS_MAJEURES
10
93.828
20
2.175
0
VERTEX
8
CONTOURS_MAJEURES
10
94.004
20
2.175
0
VERTEX
8
CONTOURS_MAJEURES
10
94.405
20
3.597
0
VERTEX
8
CONTOURS_MAJEURES
10
94.556
20
3.999
0
VERTEX
8
CONTOURS_MAJEURES
10
94.556
20
4.553
0
VERTEX
8
CONTOURS_MAJEURES
10
94.556
20
6.000
0
VERTEX
8
CONTOURS_MAJEURES
10
95.366
20
6.633
0
VERTEX
8
CONTOURS_MAJEURES
10
95.997
20
7.141
0
VERTEX
8
CONTOURS_MAJEURES
10
96.857
20
7.141
0
VERTEX
8
CONTOURS_MAJEURES
10
98.000
20
7.141
0
VERTEX
8
CONTOURS_MAJEURES
10
98.860
20
7.141
0
VERTEX
8
CONTOURS_MAJEURES
10
100.003
20
7.141
0
VERTEX
8
CONTOURS_MAJEURES
10
100.945
20
8.001
0
VERTEX
8
CONTOURS_MAJEURES
10
100.945
20
8.947
0
VERTEX
8
CONTOURS_MAJEURES
10
100.945
20
10.002
0
VERTEX
8
CONTOURS_MAJEURES
10
100.945
20
11.056
0
VERTEX
8
CONTOURS_MAJEURES
10
100.945
20
12.002
0
VERTEX
8
CONTOURS_MAJEURES
10
101.476
20
12.524
0
VERTEX
8
CONTOURS_MAJEURES
10
101.995
20
12.726
0
VERTEX
8
CONTOURS_MAJEURES
10
102.720
20
12.726
0
VERTEX
8
CONTOURS_MAJEURES
10
103.998
20
12.726
0
VERTEX
8
CONTOURS_MAJEURES
10
104.769
20
13.234
0
VERTEX
8
CONTOURS_MAJEURES
10
106.001
20
13.773
0
VERTEX
8
CONTOURS_MAJEURES
10
107.774
20
13.773
0
VERTEX
8
CONTOURS_MAJEURES
10
108.004
20
13.773
0
VERTEX
8
CONTOURS_MAJEURES
10
108.465
20
14.003
0
VERTEX
8
CONTOURS_MAJEURES
10
108.465
20
15.541
0
VERTEX
8
CONTOURS_MAJEURES
10
108.465
20
16.004
0
VERTEX
8
CONTOURS_MAJEURES
10
109.997
20
17.157
0
VERTEX
8
CONTOURS_MAJEURES
10
111.151
20
17.157
0
VERTEX
8
CONTOURS_MAJEURES
10
112.000
20
17.157
0
SEQEND
0
POLYLINE
8
CONTOURS_MAJEURES
66
1
70
0
0
VERTEX
8
CONTOURS_MAJEURES
10
112.000
20
69.307
0
VERTEX
8
CONTOURS_MAJEURES
10
110.693
20
69.307
0
VERTEX
8
CONTOURS_MAJEURES
10
109.997
20
69.307
0
VERTEX
8
CONTOURS_MAJEURES
10
109.458
20
70.003
0
VERTEX
8
CONTOURS_MAJEURES
10
109.458
20
70.544
0
VERTEX
8
CONTOURS_MAJEURES
10
109.458
20
72.004
0
VERTEX
8
CONTOURS_MAJEURES
10
108.790
20
72.792
0
VERTEX
8
CONTOURS_MAJEURES
10
108.209
20
74.004
0
VERTEX
8
CONTOURS_MAJEURES
10
108.209
20
75.800
0
VERTEX
8
CONTOURS_MAJEURES
10
108.209
20
76.005
0
VERTEX
8
CONTOURS_MAJEURES
10
108.209
20
77.790
0
VERTEX
8
CONTOURS_MAJEURES
10
108.209
20
77.995
0
VERTEX
8
CONTOURS_MAJEURES
10
108.142
20
78.134
0
VERTEX
8
CONTOURS_MAJEURES
10
108.004
20
78.408
0
VERTEX
8
CONTOURS_MAJEURES
10
107.591
20
78.408
0
VERTEX
8
CONTOURS_MAJEURES
10
106.001
20
78.408
0
VERTEX
8
CONTOURS_MAJEURES
10
105.251
20
79.247
0
VERTEX
8
CONTOURS_MAJEURES
10
104.859
20
79.996
0
VERTEX
8
CONTOURS_MAJEURES
10
104.859
20
81.137
0
VERTEX
8
CONTOURS_MAJEURES
10
104.859
20
81.996
0
VERTEX
8
CONTOURS_MAJEURES
10
104.525
20
82.523
0
VERTEX
8
CONTOURS_MAJEURES
10
103.998
20
83.615
0
VERTEX
8
CONTOURS_MAJEURES
10
103.615
20
83.615
0
VERTEX
8
CONTOURS_MAJEURES
10
101.995
20
83.615
0
VERTEX
8
CONTOURS_MAJEURES
10
101.788
20
83.997
0
SEQEND
0
POLYLINE
8
CONTOURS_MAJEURES
66
1
70
0
0
VERTEX
8
CONTOURS_MAJEURES
10
52.426
20
83.997
0
VERTEX
8
CONTOURS_MAJEURES
10
52.005
20
83.847
0
VERTEX
8
CONTOURS_MAJEURES
10
50.152
20
83.847
0
VERTEX
8
CONTOURS_MAJEURES
10
50.002
20
83.847
0
VERTEX
8
CONTOURS_MAJEURES
10
49.805
20
83.801
0
VERTEX
8
CONTOURS_MAJEURES
10
47.999
20
83.267
0
VERTEX
8
CONTOURS_MAJEURES
10
46.726
20
83.267
0
VERTEX
8
CONTOURS_MAJEURES
10
45.996
20
83.267
0
VERTEX
8
CONTOURS_MAJEURES
10
45.114
20
83.111
0
VERTEX
8
CONTOURS_MAJEURES
10
44.003
20
82.951
0
VERTEX
8
CONTOURS_MAJEURES
10
43.048
20
82.951
0
VERTEX
8
CONTOURS_MAJEURES
10
42.000
20
82.951
0
VERTEX
8
CONTOURS_MAJEURES
10
41.320
20
82.676
0
VERTEX
8
CONTOURS_MAJEURES
10
39.997
20
82.364
0
VERTEX
8
CONTOURS_MAJEURES
10
38.371
20
82.364
0
VERTEX
8
CONTOURS_MAJEURES
10
38.005
20
82.364
0
VERTEX
8
CONTOURS_MAJEURES
10
37.637
20
82.364
0
VERTEX
8
CONTOURS_MAJEURES
10
36.002
20
82.364
0
VERTEX
8
CONTOURS_MAJEURES
10
35.334
20
81.996
0
VERTEX
8
CONTOURS_MAJEURES
10
35.334
20
80.663
0
VERTEX
8
CONTOURS_MAJEURES
10
35.334
20
79.996
0
VERTEX
8
CONTOURS_MAJEURES
10
33.999
20
79.276
0
VERTEX
8
CONTOURS_MAJEURES
10
32.716
20
79.276
0
VERTEX
8
CONTOURS_MAJEURES
10
31.996
20
79.276
0
VERTEX
8
CONTOURS_MAJEURES
10
30.530
20
77.995
0
VERTEX
8
CONTOURS_MAJEURES
10
30.530
20
77.468
0
VERTEX
8
CONTOURS_MAJEURES
10
30.530
20
76.005
0
VERTEX
8
CONTOURS_MAJEURES
10
30.530
20
74.534
0
VERTEX
8
CONTOURS_MAJEURES
10
30.530
20
74.004
0
VERTEX
8
CONTOURS_MAJEURES
10
30.233
20
73.774
0
VERTEX
8
CONTOURS_MAJEURES
10
30.003
20
73.649
0
VERTEX
8
CONTOURS_MAJEURES
10
29.648
20
73.649
0
VERTEX
8
CONTOURS_MAJEURES
10
28.000
20
73.649
0
VERTEX
8
CONTOURS_MAJEURES
10
26.961
20
73.042
0
VERTEX
8
CONTOURS_MAJEURES
10
25.997
20
72.467
0
VERTEX
8
CONTOURS_MAJEURES
10
24.466
20
72.467
0
VERTEX
8
CONTOURS_MAJEURES
10
24.005
20
72.467
0
VERTEX
8
CONTOURS_MAJEURES
10
23.541
20
72.467
0
VERTEX
8
CONTOURS_MAJEURES
10
22.002
20
72.467
0
VERTEX
8
CONTOURS_MAJEURES
10
21.621
20
72.384
0
VERTEX
8
CONTOURS_MAJEURES
10
20.463
20
72.004
0
VERTEX
8
CONTOURS_MAJEURES
10
20.463
20
70.467
0
VERTEX
8
CONTOURS_MAJEURES
10
20.463
20
70.003
0
VERTEX
8
CONTOURS_MAJEURES
10
20.097
20
69.905
0
VERTEX
8
CONTOURS_MAJEURES
10
19.999
20
69.859
0
VERTEX
8
CONTOURS_MAJEURES
10
18.140
20
69.859
0
VERTEX
8
CONTOURS_MAJEURES
10
17.996
20
69.859
0
VERTEX
8
CONTOURS_MAJEURES
10
17.770
20
69.776
0
VERTEX
8
CONTOURS_MAJEURES
10
16.004
20
69.291
0
VERTEX
8
CONTOURS_MAJEURES
10
15.291
20
69.291
0
VERTEX
8
CONTOURS_MAJEURES
10
14.001
20
69.291
0
VERTEX
8
CONTOURS_MAJEURES
10
13.052
20
68.949
0
VERTEX
8
CONTOURS_MAJEURES
10
11.997
20
68.327
0
VERTEX
8
CONTOURS_MAJEURES
10
10.329
20
68.327
0
VERTEX
8
CONTOURS_MAJEURES
10
10.005
20
68.327
0
VERTEX
8
CONTOURS_MAJEURES
10
9.679
20
68.327
0
VERTEX
8
CONTOURS_MAJEURES
10
8.002
20
68.327
0
VERTEX
8
CONTOURS_MAJEURES
10
7.771
20
68.233
0
VERTEX
8
CONTOURS_MAJEURES
10
7.351
20
68.002
0
VERTEX
8
CONTOURS_MAJEURES
10
7.351
20
66.652
0
VERTEX
8
CONTOURS_MAJEURES
10
7.351
20
66.001
0
VERTEX
8
CONTOURS_MAJEURES
10
6.411
20
65.589
0
VERTEX
8
CONTOURS_MAJEURES
10
5.999
20
65.372
0
VERTEX
8
CONTOURS_MAJEURES
10
5.369
20
65.372
0
VERTEX
8
CONTOURS_MAJEURES
10
3.996
20
65.372
0
VERTEX
8
CONTOURS_MAJEURES
10
2.992
20
65.009
0
VERTEX
8
CONTOURS_MAJEURES
10
2.004
20
64.629
0
VERTEX
8
CONTOURS_MAJEURES
10
0.630
20
64.629
0
VERTEX
8
CONTOURS_MAJEURES
10
0.001
20
64.629
0
SEQEND
0
POLYLINE
8
CONTOURS_MAJEURES
66
1
70
0
0
VERTEX
8
CONTOURS_MAJEURES
10
44.195
20
-0.002
0
VERTEX
8
CONTOURS_MAJEURES
10
44.195
20
1.806
0
VERTEX
8
CONTOURS_MAJEURES
10
44.195
20
1.999
0
VERTEX
8
CONTOURS_MAJEURES
10
45.270
20
2.728
0
VERTEX
8
CONTOURS_MAJEURES
10
45.996
20
3.032
0
VERTEX
8
CONTOURS_MAJEURES
10
46.964
20
3.032
0
VERTEX
8
CONTOURS_MAJEURES
10
47.999
20
3.032
0
VERTEX
8
CONTOURS_MAJEURES
10
49.492
20
3.999
0
VERTEX
8
CONTOURS_MAJEURES
10
49.492
20
5.491
0
VERTEX
8
CONTOURS_MAJEURES
10
49.492
20
6.000
0
VERTEX
8
CONTOURS_MAJEURES
10
49.776
20
6.226
0
VERTEX
8
CONTOURS_MAJEURES
10
50.002
20
6.334
0
VERTEX
8
CONTOURS_MAJEURES
10
51.671
20
6.334
0
VERTEX
8
CONTOURS_MAJEURES
10
52.005
20
6.334
0
VERTEX
8
CONTOURS_MAJEURES
10
53.703
20
8.001
0
VERTEX
8
CONTOURS_MAJEURES
10
53.703
20
9.706
0
VERTEX
8
CONTOURS_MAJEURES
10
53.703
20
10.002
0
VERTEX
8
CONTOURS_MAJEURES
10
53.703
20
10.297
0
VERTEX
8
CONTOURS_MAJEURES
10
53.703
20
12.002
0
VERTEX
8
CONTOURS_MAJEURES
10
53.748
20
12.253
0
VERTEX
8
CONTOURS_MAJEURES
10
53.997
20
12.568
0
VERTEX
8
CONTOURS_MAJEURES
10
55.434
20
12.568
0
VERTEX
8
CONTOURS_MAJEURES
10
56.000
20
12.568
0
VERTEX
8
CONTOURS_MAJEURES
10
56.566
20
12.568
0
VERTEX
8
CONTOURS_MAJEURES
10
58.003
20
12.568
0
VERTEX
8
CONTOURS_MAJEURES
10
59.118
20
14.003
0
VERTEX
8
CONTOURS_MAJEURES
10
59.118
20
14.885
0
VERTEX
8
CONTOURS_MAJEURES
10
59.118
20
16.004
0
VERTEX
8
CONTOURS_MAJEURES
10
59.348
20
16.654
0
VERTEX
8
CONTOURS_MAJEURES
10
59.995
20
17.304
0
VERTEX
8
CONTOURS_MAJEURES
10
61.297
20
17.304
0
VERTEX
8
CONTOURS_MAJEURES
10
61.999
20
17.304
0
VERTEX
8
CONTOURS_MAJEURES
10
62.399
20
18.005
0
VERTEX
8
CONTOURS_MAJEURES
10
62.399
20
19.605
0
VERTEX
8
CONTOURS_MAJEURES
10
62.399
20
20.006
0
VERTEX
8
CONTOURS_MAJEURES
10
62.423
20
20.428
0
VERTEX
8
CONTOURS_MAJEURES
10
62.535
20
21.995
0
VERTEX
8
CONTOURS_MAJEURES
10
62.535
20
23.461
0
VERTEX
8
CONTOURS_MAJEURES
10
62.535
20
23.996
0
VERTEX
8
CONTOURS_MAJEURES
10
62.535
20
24.531
0
VERTEX
8
CONTOURS_MAJEURES
10
62.535
20
25.997
0
VERTEX
8
CONTOURS_MAJEURES
10
61.999
20
26.902
0
VERTEX
8
CONTOURS_MAJEURES
10
61.092
20
26.902
0
VERTEX
8
CONTOURS_MAJEURES
10
59.995
20
26.902
0
VERTEX
8
CONTOURS_MAJEURES
10
59.408
20
27.408
0
VERTEX
8
CONTOURS_MAJEURES
10
58.723
20
27.998
0
VERTEX
8
CONTOURS_MAJEURES
10
58.723
20
28.720
0
VERTEX
8
CONTOURS_MAJEURES
10
58.723
20
29.998
0
VERTEX
8
CONTOURS_MAJEURES
10
58.003
20
30.336
0
VERTEX
8
CONTOURS_MAJEURES
10
56.338
20
30.336
0
VERTEX
8
CONTOURS_MAJEURES
10
56.000
20
30.336
0
VERTEX
8
CONTOURS_MAJEURES
10
55.662
20
30.336
0
VERTEX
8
CONTOURS_MAJEURES
10
53.997
20
30.336
0
VERTEX
8
CONTOURS_MAJEURES
10
52.442
20
30.438
0
VERTEX
8
CONTOURS_MAJEURES
10
52.005
20
30.749
0
VERTEX
8
CONTOURS_MAJEURES
10
50.753
20
30.749
0
VERTEX
8
CONTOURS_MAJEURES
10
50.002
20
30.749
0
VERTEX
8
CONTOURS_MAJEURES
10
49.190
20
31.188
0
VERTEX
8
CONTOURS_MAJEURES
10
49.179
20
31.999
0
VERTEX
8
CONTOURS_MAJEURES
10
49.179
20
32.821
0
VERTEX
8
CONTOURS_MAJEURES
10
49.179
20
34.000
0
VERTEX
8
CONTOURS_MAJEURES
10
48.804
20
34.804
0
VERTEX
8
CONTOURS_MAJEURES
10
48.561
20
36.001
0
VERTEX
8
CONTOURS_MAJEURES
10
48.561
20
36.563
0
VERTEX
8
CONTOURS_MAJEURES
10
48.561
20
38.001
0
VERTEX
8
CONTOURS_MAJEURES
10
48.561
20
39.440
0
VERTEX
8
CONTOURS_MAJEURES
10
48.561
20
40.002
0
VERTEX
8
CONTOURS_MAJEURES
10
47.999
20
40.760
0
VERTEX
8
CONTOURS_MAJEURES
10
46.754
20
40.760
0
VERTEX
8
CONTOURS_MAJEURES
10
45.996
20
40.760
0
VERTEX
8
CONTOURS_MAJEURES
10
44.719
20
42.003
0
VERTEX
8
CONTOURS_MAJEURES
10
44.719
20
42.722
0
VERTEX
8
CONTOURS_MAJEURES
10
44.719
20
44.004
0
VERTEX
8
CONTOURS_MAJEURES
10
44.476
20
44.478
0
VERTEX
8
CONTOURS_MAJEURES
10
44.003
20
45.844
0
VERTEX
8
CONTOURS_MAJEURES
10
43.843
20
45.844
0
VERTEX
8
CONTOURS_MAJEURES
10
42.000
20
45.844
0
VERTEX
8
CONTOURS_MAJEURES
10
41.943
20
46.005
0
VERTEX
8
CONTOURS_MAJEURES
10
41.943
20
47.948
0
VERTEX
8
CONTOURS_MAJEURES
10
41.943
20
48.005
0
VERTEX
8
CONTOURS_MAJEURES
10
41.943
20
48.062
0
VERTEX
8
CONTOURS_MAJEURES
10
41.943
20
49.995
0
VERTEX
8
CONTOURS_MAJEURES
10
41.692
20
50.303
0
VERTEX
8
CONTOURS_MAJEURES
10
40.248
20
51.996
0
VERTEX
8
CONTOURS_MAJEURES
10
40.248
20
52.246
0
VERTEX
8
CONTOURS_MAJEURES
10
40.248
20
53.997
0
VERTEX
8
CONTOURS_MAJEURES
10
40.106
20
54.106
0
VERTEX
8
CONTOURS_MAJEURES
10
39.997
20
54.178
0
VERTEX
8
CONTOURS_MAJEURES
10
39.816
20
54.178
0
VERTEX
8
CONTOURS_MAJEURES
10
38.005
20
54.178
0
VERTEX
8
CONTOURS_MAJEURES
10
36.184
20
54.178
0
VERTEX
8
CONTOURS_MAJEURES
10
36.002
20
54.178
0
VERTEX
8
CONTOURS_MAJEURES
10
35.692
20
54.307
0
VERTEX
8
CONTOURS_MAJEURES
10
33.999
20
54.896
0
VERTEX
8
CONTOURS_MAJEURES
10
33.098
20
54.896
0
VERTEX
8
CONTOURS_MAJEURES
10
31.996
20
54.896
0
VERTEX
8
CONTOURS_MAJEURES
10
30.341
20
53.997
0
VERTEX
8
CONTOURS_MAJEURES
10
30.341
20
53.657
0
VERTEX
8
CONTOURS_MAJEURES
10
30.341
20
51.996
0
VERTEX
8
CONTOURS_MAJEURES
10
30.003
20
51.683
0
VERTEX
8
CONTOURS_MAJEURES
10
28.313
20
51.683
0
VERTEX
8
CONTOURS_MAJEURES
10
28.000
20
51.683
0
VERTEX
8
CONTOURS_MAJEURES
10
27.692
20
51.688
0
VERTEX
8
CONTOURS_MAJEURES
10
25.997
20
51.424
0
VERTEX
8
CONTOURS_MAJEURES
10
25.428
20
51.424
0
VERTEX
8
CONTOURS_MAJEURES
10
24.005
20
51.424
0
VERTEX
8
CONTOURS_MAJEURES
10
22.574
20
51.424
0
VERTEX
8
CONTOURS_MAJEURES
10
22.002
20
51.424
0
VERTEX
8
CONTOURS_MAJEURES
10
21.036
20
50.960
0
VERTEX
8
CONTOURS_MAJEURES
10
19.999
20
50.913
0
VERTEX
8
CONTOURS_MAJEURES
10
19.080
20
50.913
0
VERTEX
8
CONTOURS_MAJEURES
10
17.996
20
50.913
0
VERTEX
8
CONTOURS_MAJEURES
10
16.832
20
50.827
0
VERTEX
8
CONTOURS_MAJEURES
10
16.004
20
50.417
0
VERTEX
8
CONTOURS_MAJEURES
10
15.581
20
50.417
0
VERTEX
8
CONTOURS_MAJEURES
10
14.001
20
50.417
0
VERTEX
8
CONTOURS_MAJEURES
10
12.975
20
49.995
0
VERTEX
8
CONTOURS_MAJEURES
10
12.975
20
48.976
0
VERTEX
8
CONTOURS_MAJEURES
10
12.975
20
48.005
0
VERTEX
8
CONTOURS_MAJEURES
10
12.975
20
47.029
0
VERTEX
8
CONTOURS_MAJEURES
10
12.975
20
46.005
0
VERTEX
8
CONTOURS_MAJEURES
10
11.997
20
45.364
0
VERTEX
8
CONTOURS_MAJEURES
10
11.360
20
45.364
0
VERTEX
8
CONTOURS_MAJEURES
10
10.005
20
45.364
0
VERTEX
8
CONTOURS_MAJEURES
10
9.364
20
45.364
0
VERTEX
8
CONTOURS_MAJEURES
10
8.002
20
45.364
0
VERTEX
8
CONTOURS_MAJEURES
10
7.376
20
44.629
0
VERTEX
8
CONTOURS_MAJEURES
10
5.999
20
44.161
0
VERTEX
8
CONTOURS_MAJEURES
10
5.841
20
44.161
0
VERTEX
8
CONTOURS_MAJEURES
10
3.996
20
44.161
0
VERTEX
8
CONTOURS_MAJEURES
10
3.902
20
44.098
0
VERTEX
8
CONTOURS_MAJEURES
10
3.728
20
44.004
0
VERTEX
8
CONTOURS_MAJEURES
10
3.728
20
42.272
0
VERTEX
8
CONTOURS_MAJEURES
10
3.728
20
42.003
0
VERTEX
8
CONTOURS_MAJEURES
10
2.004
20
41.075
0
VERTEX
8
CONTOURS_MAJEURES
10
1.074
20
41.075
0
VERTEX
8
CONTOURS_MAJEURES
10
0.001
20
41.075
0
SEQEND
0
POLYLINE
8
PARCELLE
66
1
70
1
0
VERTEX
8
PARCELLE
10
20.000
20
30.673
0
VERTEX
8
PARCELLE
10
55.652
20
49.462
0
VERTEX
8
PARCELLE
10
86.749
20
65.164
0
VERTEX
8
PARCELLE
10
93.368
20
51.541
0
VERTEX
8
PARCELLE
10
53.774
20
37.072
0
VERTEX
8
PARCELLE
10
41.986
20
29.972
0
VERTEX
8
PARCELLE
10
26.205
20
20.000
0
VERTEX
8
PARCELLE
10
20.000
20
30.673
0
SEQEND
0
TEXT
8
POINTS_COTES
10
0.001
20
-0.002
40
1.0
1
226.9
0
TEXT
8
POINTS_COTES
10
16.004
20
3.999
40
1.0
1
224.8
0
TEXT
8
POINTS_COTES
10
31.996
20
8.001
40
1.0
1
221.4
0
TEXT
8
POINTS_COTES
10
47.999
20
12.002
40
1.0
1
221.2
0
TEXT
8
POINTS_COTES
10
64.002
20
16.004
40
1.0
1
219.1
0
TEXT
8
POINTS_COTES
10
80.005
20
20.006
40
1.0
1
216.7
0
TEXT
8
POINTS_COTES
10
95.997
20
23.996
40
1.0
1
213.4
0
TEXT
8
POINTS_COTES
10
112.000
20
27.998
40
1.0
1
212.1
0
TEXT
8
POINTS_COTES
10
14.001
20
34.000
40
1.0
1
223.3
0
TEXT
8
POINTS_COTES
10
30.003
20
38.001
40
1.0
1
220.8
0
TEXT
8
POINTS_COTES
10
45.996
20
42.003
40
1.0
1
219.6
0
TEXT
8
POINTS_COTES
10
61.999
20
46.005
40
1.0
1
218.2
0
TEXT
8
POINTS_COTES
10
78.001
20
49.995
40
1.0
1
215.9
0
TEXT
8
POINTS_COTES
10
94.004
20
53.997
40
1.0
1
214.4
0
TEXT
8
POINTS_COTES
10
109.997
20
57.998
40
1.0
1
211.2
0
TEXT
8
POINTS_COTES
10
11.997
20
64.000
40
1.0
1
212.2
0
TEXT
8
POINTS_COTES
10
28.000
20
68.002
40
1.0
1
214.2
0
TEXT
8
POINTS_COTES
10
44.003
20
72.004
40
1.0
1
214.4
0
TEXT
8
POINTS_COTES
10
59.995
20
76.005
40
1.0
1
212.7
0
TEXT
8
POINTS_COTES
10
75.998
20
79.996
40
1.0
1
212.7
0
TEXT
8
POINTS_COTES
10
92.001
20
83.997
40
1.0
1
211.5
0
ENDSEC
0
EOF
