0
SECTION
2
HEADER
0
ENDSEC
0
SECTION
2
TABLES
0
TABLE
2
LAYER
70
4
0
LAYER
2
CONTOURS_MINEURES
70
0
62
8
6
CONTINUOUS
0
LAYER
2
CONTOURS_MAJEURES
70
0
62
3
6
CONTINUOUS
0
LAYER
2
PARCELLE
70
0
62
4
6
CONTINUOUS
0
LAYER
2
POINTS_COTES
70
0
62
7
6
CONTINUOUS
0
ENDTAB
0
ENDSEC
0
SECTION
2
ENTITIES
0
POLYLINE
8
CONTOURS_MINEURES
66
1
70
0
0
VERTEX
8
CONTOURS_MINEURES
10
140.002
20
169.167
0
VERTEX
8
CONTOURS_MINEURES
10
138.439
20
165.003
0
VERTEX
8
CONTOURS_MINEURES
10
138.439
20
161.560
0
VERTEX
8
CONTOURS_MINEURES
10
138.079
20
159.996
0
VERTEX
8
CONTOURS_MINEURES
10
138.079
20
156.921
0
VERTEX
8
CONTOURS_MINEURES
10
137.918
20
154.999
0
VERTEX
8
CONTOURS_MINEURES
10
135.001
20
150.627
0
VERTEX
8
CONTOURS_MINEURES
10
134.376
20
150.003
0
VERTEX
8
CONTOURS_MINEURES
10
132.693
20
147.306
0
VERTEX
8
CONTOURS_MINEURES
10
131.250
20
144.995
0
VERTEX
8
CONTOURS_MINEURES
10
130.000
20
143.330
0
VERTEX
8
CONTOURS_MINEURES
10
125.999
20
139.999
0
VERTEX
8
CONTOURS_MINEURES
10
126.249
20
138.750
0
VERTEX
8
CONTOURS_MINEURES
10
127.857
20
135.002
0
VERTEX
8
CONTOURS_MINEURES
10
124.999
20
129.995
0
VERTEX
8
CONTOURS_MINEURES
10
124.499
20
124.999
0
VERTEX
8
CONTOURS_MINEURES
10
122.141
20
122.857
0
VERTEX
8
CONTOURS_MINEURES
10
120.998
20
120.002
0
VERTEX
8
CONTOURS_MINEURES
10
120.554
20
119.446
0
VERTEX
8
CONTOURS_MINEURES
10
119.998
20
119.119
0
VERTEX
8
CONTOURS_MINEURES
10
115.330
20
119.668
0
VERTEX
8
CONTOURS_MINEURES
10
114.997
20
119.547
0
VERTEX
8
CONTOURS_MINEURES
10
114.612
20
119.617
0
VERTEX
8
CONTOURS_MINEURES
10
114.372
20
120.002
0
VERTEX
8
CONTOURS_MINEURES
10
109.996
20
122.188
0
VERTEX
8
CONTOURS_MINEURES
10
105.904
20
120.911
0
VERTEX
8
CONTOURS_MINEURES
10
104.995
20
120.627
0
VERTEX
8
CONTOURS_MINEURES
10
102.500
20
120.002
0
VERTEX
8
CONTOURS_MINEURES
10
100.912
20
119.092
0
VERTEX
8
CONTOURS_MINEURES
10
101.540
20
114.995
0
VERTEX
8
CONTOURS_MINEURES
10
101.252
20
111.247
0
VERTEX
8
CONTOURS_MINEURES
10
100.718
20
109.998
0
VERTEX
8
CONTOURS_MINEURES
10
100.005
20
108.499
0
VERTEX
8
CONTOURS_MINEURES
10
98.658
20
106.347
0
VERTEX
8
CONTOURS_MINEURES
10
96.822
20
105.002
0
VERTEX
8
CONTOURS_MINEURES
10
95.004
20
104.501
0
VERTEX
8
CONTOURS_MINEURES
10
91.090
20
103.913
0
VERTEX
8
CONTOURS_MINEURES
10
90.003
20
103.485
0
VERTEX
8
CONTOURS_MINEURES
10
87.371
20
102.366
0
VERTEX
8
CONTOURS_MINEURES
10
85.002
20
102.043
0
VERTEX
8
CONTOURS_MINEURES
10
82.751
20
102.248
0
VERTEX
8
CONTOURS_MINEURES
10
80.910
20
99.994
0
VERTEX
8
CONTOURS_MINEURES
10
80.001
20
99.469
0
VERTEX
8
CONTOURS_MINEURES
10
79.000
20
98.995
0
VERTEX
8
CONTOURS_MINEURES
10
75.000
20
99.439
0
VERTEX
8
CONTOURS_MINEURES
10
74.166
20
99.162
0
VERTEX
8
CONTOURS_MINEURES
10
69.999
20
99.162
0
VERTEX
8
CONTOURS_MINEURES
10
68.332
20
98.329
0
VERTEX
8
CONTOURS_MINEURES
10
64.997
20
97.496
0
VERTEX
8
CONTOURS_MINEURES
10
64.088
20
95.907
0
VERTEX
8
CONTOURS_MINEURES
10
59.996
20
94.998
0
VERTEX
8
CONTOURS_MINEURES
10
55.496
20
95.498
0
VERTEX
8
CONTOURS_MINEURES
10
54.995
20
95.553
0
VERTEX
8
CONTOURS_MINEURES
10
54.372
20
95.623
0
VERTEX
8
CONTOURS_MINEURES
10
50.005
20
97.809
0
VERTEX
8
CONTOURS_MINEURES
10
47.505
20
97.496
0
VERTEX
8
CONTOURS_MINEURES
10
45.004
20
97.330
0
VERTEX
8
CONTOURS_MINEURES
10
43.162
20
96.839
0
VERTEX
8
CONTOURS_MINEURES
10
41.822
20
94.998
0
VERTEX
8
CONTOURS_MINEURES
10
40.003
20
93.749
0
VERTEX
8
CONTOURS_MINEURES
10
35.002
20
94.998
0
VERTEX
8
CONTOURS_MINEURES
10
32.189
20
97.184
0
VERTEX
8
CONTOURS_MINEURES
10
30.001
20
97.184
0
VERTEX
8
CONTOURS_MINEURES
10
28.410
20
96.588
0
VERTEX
8
CONTOURS_MINEURES
10
25.625
20
94.998
0
VERTEX
8
CONTOURS_MINEURES
10
25.000
20
94.582
0
VERTEX
8
CONTOURS_MINEURES
10
22.884
20
92.116
0
VERTEX
8
CONTOURS_MINEURES
10
22.380
20
90.002
0
VERTEX
8
CONTOURS_MINEURES
10
19.999
20
86.158
0
VERTEX
8
CONTOURS_MINEURES
10
19.165
20
85.005
0
VERTEX
8
CONTOURS_MINEURES
10
16.248
20
81.250
0
VERTEX
8
CONTOURS_MINEURES
10
15.292
20
79.998
0
VERTEX
8
CONTOURS_MINEURES
10
15.276
20
79.720
0
VERTEX
8
CONTOURS_MINEURES
10
14.998
20
79.498
0
VERTEX
8
CONTOURS_MINEURES
10
13.123
20
76.875
0
VERTEX
8
CONTOURS_MINEURES
10
11.536
20
75.001
0
VERTEX
8
CONTOURS_MINEURES
10
11.174
20
73.826
0
VERTEX
8
CONTOURS_MINEURES
10
10.664
20
70.005
0
VERTEX
8
CONTOURS_MINEURES
10
9.997
20
69.604
0
VERTEX
8
CONTOURS_MINEURES
10
6.663
20
70.005
0
VERTEX
8
CONTOURS_MINEURES
10
5.996
20
71.004
0
VERTEX
8
CONTOURS_MINEURES
10
4.996
20
70.505
0
VERTEX
8
CONTOURS_MINEURES
10
4.746
20
70.255
0
VERTEX
8
CONTOURS_MINEURES
10
2.495
20
70.005
0
VERTEX
8
CONTOURS_MINEURES
10
-0.005
20
69.504
0
SEQEND
0
POLYLINE
8
CONTOURS_MINEURES
66
1
70
0
0
VERTEX
8
CONTOURS_MINEURES
10
140.002
20
91.001
0
VERTEX
8
CONTOURS_MINEURES
10
139.169
20
90.834
0
VERTEX
8
CONTOURS_MINEURES
10
139.169
20
90.002
0
VERTEX
8
CONTOURS_MINEURES
10
135.001
20
86.879
0
VERTEX
8
CONTOURS_MINEURES
10
134.212
20
85.005
0
VERTEX
8
CONTOURS_MINEURES
10
133.334
20
81.667
0
VERTEX
8
CONTOURS_MINEURES
10
131.364
20
79.998
0
VERTEX
8
CONTOURS_MINEURES
10
130.000
20
76.250
0
VERTEX
8
CONTOURS_MINEURES
10
129.444
20
75.557
0
VERTEX
8
CONTOURS_MINEURES
10
129.286
20
75.001
0
VERTEX
8
CONTOURS_MINEURES
10
130.000
20
74.002
0
VERTEX
8
CONTOURS_MINEURES
10
132.223
20
72.226
0
VERTEX
8
CONTOURS_MINEURES
10
134.001
20
70.005
0
VERTEX
8
CONTOURS_MINEURES
10
131.334
20
68.670
0
VERTEX
8
CONTOURS_MINEURES
10
130.000
20
68.184
0
VERTEX
8
CONTOURS_MINEURES
10
126.666
20
66.667
0
VERTEX
8
CONTOURS_MINEURES
10
124.999
20
66.667
0
VERTEX
8
CONTOURS_MINEURES
10
122.499
20
67.501
0
VERTEX
8
CONTOURS_MINEURES
10
119.998
20
66.333
0
VERTEX
8
CONTOURS_MINEURES
10
118.665
20
66.333
0
VERTEX
8
CONTOURS_MINEURES
10
114.997
20
65.415
0
VERTEX
8
CONTOURS_MINEURES
10
114.441
20
64.998
0
VERTEX
8
CONTOURS_MINEURES
10
114.997
20
63.748
0
VERTEX
8
CONTOURS_MINEURES
10
117.140
20
62.142
0
VERTEX
8
CONTOURS_MINEURES
10
115.935
20
60.001
0
VERTEX
8
CONTOURS_MINEURES
10
115.597
20
59.402
0
VERTEX
8
CONTOURS_MINEURES
10
114.997
20
58.638
0
VERTEX
8
CONTOURS_MINEURES
10
113.843
20
58.848
0
VERTEX
8
CONTOURS_MINEURES
10
109.996
20
58.336
0
VERTEX
8
CONTOURS_MINEURES
10
109.320
20
59.326
0
VERTEX
8
CONTOURS_MINEURES
10
108.746
20
60.001
0
VERTEX
8
CONTOURS_MINEURES
10
106.870
20
63.124
0
VERTEX
8
CONTOURS_MINEURES
10
106.359
20
64.998
0
VERTEX
8
CONTOURS_MINEURES
10
106.067
20
66.071
0
VERTEX
8
CONTOURS_MINEURES
10
104.995
20
67.144
0
VERTEX
8
CONTOURS_MINEURES
10
103.180
20
70.005
0
VERTEX
8
CONTOURS_MINEURES
10
100.005
20
71.948
0
VERTEX
8
CONTOURS_MINEURES
10
95.773
20
75.001
0
VERTEX
8
CONTOURS_MINEURES
10
95.242
20
75.239
0
VERTEX
8
CONTOURS_MINEURES
10
95.004
20
75.271
0
VERTEX
8
CONTOURS_MINEURES
10
94.604
20
75.401
0
VERTEX
8
CONTOURS_MINEURES
10
90.003
20
76.407
0
VERTEX
8
CONTOURS_MINEURES
10
87.752
20
77.250
0
VERTEX
8
CONTOURS_MINEURES
10
85.002
20
77.799
0
VERTEX
8
CONTOURS_MINEURES
10
81.563
20
76.563
0
VERTEX
8
CONTOURS_MINEURES
10
80.001
20
76.137
0
VERTEX
8
CONTOURS_MINEURES
10
78.810
20
75.001
0
VERTEX
8
CONTOURS_MINEURES
10
76.860
20
73.142
0
VERTEX
8
CONTOURS_MINEURES
10
75.000
20
71.368
0
VERTEX
8
CONTOURS_MINEURES
10
72.999
20
70.005
0
VERTEX
8
CONTOURS_MINEURES
10
71.249
20
68.753
0
VERTEX
8
CONTOURS_MINEURES
10
69.999
20
68.046
0
VERTEX
8
CONTOURS_MINEURES
10
68.156
20
66.842
0
VERTEX
8
CONTOURS_MINEURES
10
65.623
20
64.998
0
VERTEX
8
CONTOURS_MINEURES
10
65.331
20
64.664
0
VERTEX
8
CONTOURS_MINEURES
10
64.997
20
64.442
0
VERTEX
8
CONTOURS_MINEURES
10
62.573
20
62.424
0
VERTEX
8
CONTOURS_MINEURES
10
59.996
20
61.137
0
VERTEX
8
CONTOURS_MINEURES
10
58.860
20
61.137
0
VERTEX
8
CONTOURS_MINEURES
10
54.995
20
60.953
0
VERTEX
8
CONTOURS_MINEURES
10
50.005
20
60.001
0
VERTEX
8
CONTOURS_MINEURES
10
45.212
20
60.209
0
VERTEX
8
CONTOURS_MINEURES
10
45.004
20
60.251
0
VERTEX
8
CONTOURS_MINEURES
10
44.587
20
60.001
0
VERTEX
8
CONTOURS_MINEURES
10
40.003
20
56.768
0
VERTEX
8
CONTOURS_MINEURES
10
39.094
20
55.913
0
VERTEX
8
CONTOURS_MINEURES
10
36.252
20
55.005
0
VERTEX
8
CONTOURS_MINEURES
10
35.252
20
54.754
0
VERTEX
8
CONTOURS_MINEURES
10
35.002
20
54.710
0
VERTEX
8
CONTOURS_MINEURES
10
34.547
20
54.549
0
VERTEX
8
CONTOURS_MINEURES
10
30.001
20
53.574
0
VERTEX
8
CONTOURS_MINEURES
10
25.833
20
54.170
0
VERTEX
8
CONTOURS_MINEURES
10
25.000
20
54.170
0
VERTEX
8
CONTOURS_MINEURES
10
23.947
20
53.950
0
VERTEX
8
CONTOURS_MINEURES
10
19.999
20
53.753
0
VERTEX
8
CONTOURS_MINEURES
10
17.320
20
52.680
0
VERTEX
8
CONTOURS_MINEURES
10
14.998
20
52.292
0
VERTEX
8
CONTOURS_MINEURES
10
13.550
20
51.447
0
VERTEX
8
CONTOURS_MINEURES
10
9.997
20
50.343
0
VERTEX
8
CONTOURS_MINEURES
10
9.640
20
49.997
0
VERTEX
8
CONTOURS_MINEURES
10
4.996
20
45.358
0
VERTEX
8
CONTOURS_MINEURES
10
4.651
20
45.345
0
VERTEX
8
CONTOURS_MINEURES
10
4.440
20
45.001
0
VERTEX
8
CONTOURS_MINEURES
10
2.217
20
42.780
0
VERTEX
8
CONTOURS_MINEURES
10
0.828
20
40.004
0
VERTEX
8
CONTOURS_MINEURES
10
2.054
20
37.059
0
VERTEX
8
CONTOURS_MINEURES
10
3.177
20
34.997
0
VERTEX
8
CONTOURS_MINEURES
10
2.795
20
32.199
0
VERTEX
8
CONTOURS_MINEURES
10
2.245
20
30.001
0
VERTEX
8
CONTOURS_MINEURES
10
-0.005
20
28.127
0
SEQEND
0
POLYLINE
8
CONTOURS_MINEURES
66
1
70
0
0
VERTEX
8
CONTOURS_MINEURES
10
140.002
20
29.424
0
VERTEX
8
CONTOURS_MINEURES
10
137.502
20
30.001
0
VERTEX
8
CONTOURS_MINEURES
10
135.716
20
30.714
0
VERTEX
8
CONTOURS_MINEURES
10
135.001
20
30.882
0
VERTEX
8
CONTOURS_MINEURES
10
133.334
20
31.666
0
VERTEX
8
CONTOURS_MINEURES
10
130.000
20
33.123
0
VERTEX
8
CONTOURS_MINEURES
10
129.118
20
34.115
0
VERTEX
8
CONTOURS_MINEURES
10
127.000
20
34.997
0
VERTEX
8
CONTOURS_MINEURES
10
125.587
20
35.586
0
VERTEX
8
CONTOURS_MINEURES
10
124.999
20
36.428
0
VERTEX
8
CONTOURS_MINEURES
10
123.863
20
38.866
0
VERTEX
8
CONTOURS_MINEURES
10
123.484
20
40.004
0
VERTEX
8
CONTOURS_MINEURES
10
121.948
20
41.952
0
VERTEX
8
CONTOURS_MINEURES
10
119.998
20
42.807
0
VERTEX
8
CONTOURS_MINEURES
10
116.889
20
43.110
0
VERTEX
8
CONTOURS_MINEURES
10
114.997
20
43.815
0
VERTEX
8
CONTOURS_MINEURES
10
110.496
20
44.501
0
VERTEX
8
CONTOURS_MINEURES
10
109.996
20
44.529
0
VERTEX
8
CONTOURS_MINEURES
10
106.424
20
45.001
0
VERTEX
8
CONTOURS_MINEURES
10
105.151
20
45.157
0
VERTEX
8
CONTOURS_MINEURES
10
104.995
20
45.239
0
VERTEX
8
CONTOURS_MINEURES
10
101.430
20
46.428
0
VERTEX
8
CONTOURS_MINEURES
10
100.005
20
48.332
0
VERTEX
8
CONTOURS_MINEURES
10
98.923
20
48.917
0
VERTEX
8
CONTOURS_MINEURES
10
97.504
20
49.997
0
VERTEX
8
CONTOURS_MINEURES
10
95.004
20
51.818
0
VERTEX
8
CONTOURS_MINEURES
10
92.816
20
52.814
0
VERTEX
8
CONTOURS_MINEURES
10
90.003
20
53.216
0
VERTEX
8
CONTOURS_MINEURES
10
88.574
20
53.574
0
VERTEX
8
CONTOURS_MINEURES
10
85.002
20
53.909
0
VERTEX
8
CONTOURS_MINEURES
10
81.095
20
53.909
0
VERTEX
8
CONTOURS_MINEURES
10
80.001
20
53.836
0
VERTEX
8
CONTOURS_MINEURES
10
76.166
20
49.997
0
VERTEX
8
CONTOURS_MINEURES
10
75.000
20
48.652
0
VERTEX
8
CONTOURS_MINEURES
10
72.790
20
47.209
0
VERTEX
8
CONTOURS_MINEURES
10
69.999
20
45.715
0
VERTEX
8
CONTOURS_MINEURES
10
69.165
20
45.001
0
VERTEX
8
CONTOURS_MINEURES
10
66.998
20
43.002
0
VERTEX
8
CONTOURS_MINEURES
10
64.997
20
41.555
0
VERTEX
8
CONTOURS_MINEURES
10
60.830
20
40.837
0
VERTEX
8
CONTOURS_MINEURES
10
59.996
20
40.610
0
VERTEX
8
CONTOURS_MINEURES
10
59.496
20
40.504
0
VERTEX
8
CONTOURS_MINEURES
10
58.329
20
40.004
0
VERTEX
8
CONTOURS_MINEURES
10
54.995
20
38.892
0
VERTEX
8
CONTOURS_MINEURES
10
53.997
20
39.003
0
VERTEX
8
CONTOURS_MINEURES
10
50.005
20
39.575
0
VERTEX
8
CONTOURS_MINEURES
10
48.505
20
40.004
0
VERTEX
8
CONTOURS_MINEURES
10
45.950
20
40.950
0
VERTEX
8
CONTOURS_MINEURES
10
45.004
20
41.210
0
VERTEX
8
CONTOURS_MINEURES
10
42.321
20
42.320
0
VERTEX
8
CONTOURS_MINEURES
10
40.003
20
42.881
0
VERTEX
8
CONTOURS_MINEURES
10
38.064
20
41.942
0
VERTEX
8
CONTOURS_MINEURES
10
35.002
20
40.317
0
VERTEX
8
CONTOURS_MINEURES
10
34.823
20
40.183
0
VERTEX
8
CONTOURS_MINEURES
10
34.617
20
40.004
0
VERTEX
8
CONTOURS_MINEURES
10
31.876
20
38.127
0
VERTEX
8
CONTOURS_MINEURES
10
30.001
20
36.363
0
VERTEX
8
CONTOURS_MINEURES
10
27.751
20
34.997
0
VERTEX
8
CONTOURS_MINEURES
10
26.170
20
33.828
0
VERTEX
8
CONTOURS_MINEURES
10
25.000
20
33.102
0
VERTEX
8
CONTOURS_MINEURES
10
22.804
20
32.194
0
VERTEX
8
CONTOURS_MINEURES
10
19.999
20
30.893
0
VERTEX
8
CONTOURS_MINEURES
10
15.206
20
30.209
0
VERTEX
8
CONTOURS_MINEURES
10
14.998
20
30.152
0
VERTEX
8
CONTOURS_MINEURES
10
14.846
20
30.001
0
VERTEX
8
CONTOURS_MINEURES
10
12.316
20
27.683
0
VERTEX
8
CONTOURS_MINEURES
10
9.997
20
25.156
0
VERTEX
8
CONTOURS_MINEURES
10
9.941
20
25.060
0
VERTEX
8
CONTOURS_MINEURES
10
9.912
20
25.004
0
VERTEX
8
CONTOURS_MINEURES
10
7.732
20
22.264
0
VERTEX
8
CONTOURS_MINEURES
10
5.381
20
19.997
0
VERTEX
8
CONTOURS_MINEURES
10
4.996
20
19.652
0
VERTEX
8
CONTOURS_MINEURES
10
4.579
20
19.580
0
VERTEX
8
CONTOURS_MINEURES
10
-0.005
20
17.443
0
SEQEND
0
POLYLINE
8
CONTOURS_MINEURES
66
1
70
0
0
VERTEX
8
CONTOURS_MINEURES
10
140.002
20
19.844
0
VERTEX
8
CONTOURS_MINEURES
10
139.848
20
19.842
0
VERTEX
8
CONTOURS_MINEURES
10
135.001
20
19.793
0
VERTEX
8
CONTOURS_MINEURES
10
134.801
20
19.797
0
VERTEX
8
CONTOURS_MINEURES
10
130.000
20
18.748
0
VERTEX
8
CONTOURS_MINEURES
10
125.636
20
19.361
0
VERTEX
8
CONTOURS_MINEURES
10
124.999
20
19.318
0
VERTEX
8
CONTOURS_MINEURES
10
122.585
20
19.997
0
VERTEX
8
CONTOURS_MINEURES
10
121.101
20
21.101
0
VERTEX
8
CONTOURS_MINEURES
10
119.998
20
21.785
0
VERTEX
8
CONTOURS_MINEURES
10
117.319
20
22.679
0
VERTEX
8
CONTOURS_MINEURES
10
114.997
20
23.377
0
VERTEX
8
CONTOURS_MINEURES
10
113.770
20
23.776
0
VERTEX
8
CONTOURS_MINEURES
10
112.042
20
25.004
0
VERTEX
8
CONTOURS_MINEURES
10
109.996
20
27.253
0
VERTEX
8
CONTOURS_MINEURES
10
108.654
20
28.660
0
VERTEX
8
CONTOURS_MINEURES
10
106.940
20
30.001
0
VERTEX
8
CONTOURS_MINEURES
10
105.916
20
30.921
0
VERTEX
8
CONTOURS_MINEURES
10
104.995
20
31.129
0
VERTEX
8
CONTOURS_MINEURES
10
103.156
20
31.841
0
VERTEX
8
CONTOURS_MINEURES
10
100.005
20
32.998
0
VERTEX
8
CONTOURS_MINEURES
10
98.425
20
33.419
0
VERTEX
8
CONTOURS_MINEURES
10
95.004
20
34.997
0
VERTEX
8
CONTOURS_MINEURES
10
90.003
20
36.785
0
VERTEX
8
CONTOURS_MINEURES
10
86.402
20
36.399
0
VERTEX
8
CONTOURS_MINEURES
10
85.002
20
36.590
0
VERTEX
8
CONTOURS_MINEURES
10
83.908
20
36.092
0
VERTEX
8
CONTOURS_MINEURES
10
81.501
20
34.997
0
VERTEX
8
CONTOURS_MINEURES
10
80.001
20
34.462
0
VERTEX
8
CONTOURS_MINEURES
10
77.768
20
32.231
0
VERTEX
8
CONTOURS_MINEURES
10
75.000
20
30.441
0
VERTEX
8
CONTOURS_MINEURES
10
73.845
20
30.001
0
VERTEX
8
CONTOURS_MINEURES
10
69.999
20
28.751
0
VERTEX
8
CONTOURS_MINEURES
10
66.998
20
28.002
0
VERTEX
8
CONTOURS_MINEURES
10
64.997
20
27.563
0
VERTEX
8
CONTOURS_MINEURES
10
61.771
20
26.777
0
VERTEX
8
CONTOURS_MINEURES
10
59.996
20
26.313
0
VERTEX
8
CONTOURS_MINEURES
10
55.917
20
25.925
0
VERTEX
8
CONTOURS_MINEURES
10
54.995
20
25.837
0
VERTEX
8
CONTOURS_MINEURES
10
54.051
20
25.949
0
VERTEX
8
CONTOURS_MINEURES
10
50.005
20
25.949
0
VERTEX
8
CONTOURS_MINEURES
10
45.004
20
25.004
0
VERTEX
8
CONTOURS_MINEURES
10
41.253
20
23.752
0
VERTEX
8
CONTOURS_MINEURES
10
40.003
20
23.001
0
VERTEX
8
CONTOURS_MINEURES
10
38.003
20
22.000
0
VERTEX
8
CONTOURS_MINEURES
10
35.002
20
20.497
0
VERTEX
8
CONTOURS_MINEURES
10
33.335
20
19.997
0
VERTEX
8
CONTOURS_MINEURES
10
30.001
20
19.426
0
VERTEX
8
CONTOURS_MINEURES
10
25.695
20
19.303
0
VERTEX
8
CONTOURS_MINEURES
10
25.000
20
18.861
0
VERTEX
8
CONTOURS_MINEURES
10
21.304
20
15.000
0
VERTEX
8
CONTOURS_MINEURES
10
25.000
20
10.753
0
VERTEX
8
CONTOURS_MINEURES
10
25.441
20
10.445
0
VERTEX
8
CONTOURS_MINEURES
10
26.154
20
10.004
0
VERTEX
8
CONTOURS_MINEURES
10
25.000
20
8.752
0
VERTEX
8
CONTOURS_MINEURES
10
23.783
20
6.214
0
VERTEX
8
CONTOURS_MINEURES
10
23.548
20
4.996
0
VERTEX
8
CONTOURS_MINEURES
10
21.666
20
3.331
0
VERTEX
8
CONTOURS_MINEURES
10
19.999
20
2.798
0
VERTEX
8
CONTOURS_MINEURES
10
17.607
20
2.607
0
VERTEX
8
CONTOURS_MINEURES
10
14.998
20
2.104
0
VERTEX
8
CONTOURS_MINEURES
10
13.101
20
3.101
0
VERTEX
8
CONTOURS_MINEURES
10
9.997
20
2.782
0
VERTEX
8
CONTOURS_MINEURES
10
7.728
20
2.267
0
VERTEX
8
CONTOURS_MINEURES
10
4.996
20
2.017
0
VERTEX
8
CONTOURS_MINEURES
10
3.341
20
1.653
0
VERTEX
8
CONTOURS_MINEURES
10
1.982
20
-0.000
0
SEQEND
0
POLYLINE
8
CONTOURS_MINEURES
66
1
70
0
0
VERTEX
8
CONTOURS_MINEURES
10
134.465
20
-0.000
0
VERTEX
8
CONTOURS_MINEURES
10
134.424
20
0.577
0
VERTEX
8
CONTOURS_MINEURES
10
133.834
20
4.996
0
VERTEX
8
CONTOURS_MINEURES
10
133.834
20
8.835
0
VERTEX
8
CONTOURS_MINEURES
10
130.000
20
9.426
0
VERTEX
8
CONTOURS_MINEURES
10
126.805
20
8.196
0
VERTEX
8
CONTOURS_MINEURES
10
124.999
20
7.174
0
VERTEX
8
CONTOURS_MINEURES
10
122.999
20
4.996
0
VERTEX
8
CONTOURS_MINEURES
10
121.629
20
3.367
0
VERTEX
8
CONTOURS_MINEURES
10
119.998
20
1.738
0
VERTEX
8
CONTOURS_MINEURES
10
115.585
20
0.588
0
VERTEX
8
CONTOURS_MINEURES
10
114.997
20
0.454
0
VERTEX
8
CONTOURS_MINEURES
10
114.330
20
0.666
0
VERTEX
8
CONTOURS_MINEURES
10
109.996
20
2.172
0
VERTEX
8
CONTOURS_MINEURES
10
105.662
20
4.996
0
VERTEX
8
CONTOURS_MINEURES
10
104.995
20
5.553
0
VERTEX
8
CONTOURS_MINEURES
10
102.837
20
7.838
0
VERTEX
8
CONTOURS_MINEURES
10
100.005
20
7.838
0
VERTEX
8
CONTOURS_MINEURES
10
98.404
20
8.401
0
VERTEX
8
CONTOURS_MINEURES
10
95.004
20
8.335
0
VERTEX
8
CONTOURS_MINEURES
10
91.461
20
8.543
0
VERTEX
8
CONTOURS_MINEURES
10
90.003
20
8.446
0
VERTEX
8
CONTOURS_MINEURES
10
86.632
20
8.371
0
VERTEX
8
CONTOURS_MINEURES
10
85.002
20
8.559
0
VERTEX
8
CONTOURS_MINEURES
10
83.930
20
8.931
0
VERTEX
8
CONTOURS_MINEURES
10
81.876
20
10.004
0
VERTEX
8
CONTOURS_MINEURES
10
81.053
20
13.948
0
VERTEX
8
CONTOURS_MINEURES
10
80.953
20
15.000
0
VERTEX
8
CONTOURS_MINEURES
10
81.053
20
16.052
0
VERTEX
8
CONTOURS_MINEURES
10
80.001
20
15.769
0
VERTEX
8
CONTOURS_MINEURES
10
79.488
20
15.513
0
VERTEX
8
CONTOURS_MINEURES
10
78.889
20
15.000
0
VERTEX
8
CONTOURS_MINEURES
10
75.000
20
10.004
0
VERTEX
8
CONTOURS_MINEURES
10
69.999
20
9.385
0
VERTEX
8
CONTOURS_MINEURES
10
68.279
20
8.283
0
VERTEX
8
CONTOURS_MINEURES
10
64.997
20
7.442
0
VERTEX
8
CONTOURS_MINEURES
10
63.155
20
6.841
0
VERTEX
8
CONTOURS_MINEURES
10
62.436
20
4.996
0
VERTEX
8
CONTOURS_MINEURES
10
61.007
20
3.987
0
VERTEX
8
CONTOURS_MINEURES
10
59.996
20
1.968
0
VERTEX
8
CONTOURS_MINEURES
10
58.613
20
1.382
0
VERTEX
8
CONTOURS_MINEURES
10
54.995
20
0.278
0
VERTEX
8
CONTOURS_MINEURES
10
54.758
20
0.238
0
VERTEX
8
CONTOURS_MINEURES
10
52.500
20
-0.000
0
SEQEND
0
POLYLINE
8
CONTOURS_MINEURES
66
1
70
0
0
VERTEX
8
CONTOURS_MINEURES
10
78.718
20
-0.000
0
VERTEX
8
CONTOURS_MINEURES
10
76.959
20
1.958
0
VERTEX
8
CONTOURS_MINEURES
10
75.000
20
3.622
0
VERTEX
8
CONTOURS_MINEURES
10
72.156
20
2.841
0
VERTEX
8
CONTOURS_MINEURES
10
69.999
20
2.841
0
VERTEX
8
CONTOURS_MINEURES
10
67.098
20
-0.000
0
SEQEND
0
POLYLINE
8
CONTOURS_MAJEURES
66
1
70
0
0
VERTEX
8
CONTOURS_MAJEURES
10
140.002
20
169.167
0
VERTEX
8
CONTOURS_MAJEURES
10
138.439
20
165.003
0
VERTEX
8
CONTOURS_MAJEURES
10
138.439
20
161.560
0
VERTEX
8
CONTOURS_MAJEURES
10
138.079
20
159.996
0
VERTEX
8
CONTOURS_MAJEURES
10
138.079
20
156.921
0
VERTEX
8
CONTOURS_MAJEURES
10
137.918
20
154.999
0
VERTEX
8
CONTOURS_MAJEURES
10
135.001
20
150.627
0
VERTEX
8
CONTOURS_MAJEURES
10
134.376
20
150.003
0
VERTEX
8
CONTOURS_MAJEURES
10
132.693
20
147.306
0
VERTEX
8
CONTOURS_MAJEURES
10
131.250
20
144.995
0
VERTEX
8
CONTOURS_MAJEURES
10
130.000
20
143.330
0
VERTEX
8
CONTOURS_MAJEURES
10
125.999
20
139.999
0
VERTEX
8
CONTOURS_MAJEURES
10
126.249
20
138.750
0
VERTEX
8
CONTOURS_MAJEURES
10
127.857
20
135.002
0
VERTEX
8
CONTOURS_MAJEURES
10
124.999
20
129.995
0
VERTEX
8
CONTOURS_MAJEURES
10
124.499
20
124.999
0
VERTEX
8
CONTOURS_MAJEURES
10
122.141
20
122.857
0
VERTEX
8
CONTOURS_MAJEURES
10
120.998
20
120.002
0
VERTEX
8
CONTOURS_MAJEURES
10
120.554
20
119.446
0
VERTEX
8
CONTOURS_MAJEURES
10
119.998
20
119.119
0
VERTEX
8
CONTOURS_MAJEURES
10
115.330
20
119.668
0
VERTEX
8
CONTOURS_MAJEURES
10
114.997
20
119.547
0
VERTEX
8
CONTOURS_MAJEURES
10
114.612
20
119.617
0
VERTEX
8
CONTOURS_MAJEURES
10
114.372
20
120.002
0
VERTEX
8
CONTOURS_MAJEURES
10
109.996
20
122.188
0
VERTEX
8
CONTOURS_MAJEURES
10
105.904
20
120.911
0
VERTEX
8
CONTOURS_MAJEURES
10
104.995
20
120.627
0
VERTEX
8
CONTOURS_MAJEURES
10
102.500
20
120.002
0
VERTEX
8
CONTOURS_MAJEURES
10
100.912
20
119.092
0
VERTEX
8
CONTOURS_MAJEURES
10
101.540
20
114.995
0
VERTEX
8
CONTOURS_MAJEURES
10
101.252
20
111.247
0
VERTEX
8
CONTOURS_MAJEURES
10
100.718
20
109.998
0
VERTEX
8
CONTOURS_MAJEURES
10
100.005
20
108.499
0
VERTEX
8
CONTOURS_MAJEURES
10
98.658
20
106.347
0
VERTEX
8
CONTOURS_MAJEURES
10
96.822
20
105.002
0
VERTEX
8
CONTOURS_MAJEURES
10
95.004
20
104.501
0
VERTEX
8
CONTOURS_MAJEURES
10
91.090
20
103.913
0
VERTEX
8
CONTOURS_MAJEURES
10
90.003
20
103.485
0
VERTEX
8
CONTOURS_MAJEURES
10
87.371
20
102.366
0
VERTEX
8
CONTOURS_MAJEURES
10
85.002
20
102.043
0
VERTEX
8
CONTOURS_MAJEURES
10
82.751
20
102.248
0
VERTEX
8
CONTOURS_MAJEURES
10
80.910
20
99.994
0
VERTEX
8
CONTOURS_MAJEURES
10
80.001
20
99.469
0
VERTEX
8
CONTOURS_MAJEURES
10
79.000
20
98.995
0
VERTEX
8
CONTOURS_MAJEURES
10
75.000
20
99.439
0
VERTEX
8
CONTOURS_MAJEURES
10
74.166
20
99.162
0
VERTEX
8
CONTOURS_MAJEURES
10
69.999
20
99.162
0
VERTEX
8
CONTOURS_MAJEURES
10
68.332
20
98.329
0
VERTEX
8
CONTOURS_MAJEURES
10
64.997
20
97.496
0
VERTEX
8
CONTOURS_MAJEURES
10
64.088
20
95.907
0
VERTEX
8
CONTOURS_MAJEURES
10
59.996
20
94.998
0
VERTEX
8
CONTOURS_MAJEURES
10
55.496
20
95.498
0
VERTEX
8
CONTOURS_MAJEURES
10
54.995
20
95.553
0
VERTEX
8
CONTOURS_MAJEURES
10
54.372
20
95.623
0
VERTEX
8
CONTOURS_MAJEURES
10
50.005
20
97.809
0
VERTEX
8
CONTOURS_MAJEURES
10
47.505
20
97.496
0
VERTEX
8
CONTOURS_MAJEURES
10
45.004
20
97.330
0
VERTEX
8
CONTOURS_MAJEURES
10
43.162
20
96.839
0
VERTEX
8
CONTOURS_MAJEURES
10
41.822
20
94.998
0
VERTEX
8
CONTOURS_MAJEURES
10
40.003
20
93.749
0
VERTEX
8
CONTOURS_MAJEURES
10
35.002
20
94.998
0
VERTEX
8
CONTOURS_MAJEURES
10
32.189
20
97.184
0
VERTEX
8
CONTOURS_MAJEURES
10
30.001
20
97.184
0
VERTEX
8
CONTOURS_MAJEURES
10
28.410
20
96.588
0
VERTEX
8
CONTOURS_MAJEURES
10
25.625
20
94.998
0
VERTEX
8
CONTOURS_MAJEURES
10
25.000
20
94.582
0
VERTEX
8
CONTOURS_MAJEURES
10
22.884
20
92.116
0
VERTEX
8
CONTOURS_MAJEURES
10
22.380
20
90.002
0
VERTEX
8
CONTOURS_MAJEURES
10
19.999
20
86.158
0
VERTEX
8
CONTOURS_MAJEURES
10
19.165
20
85.005
0
VERTEX
8
CONTOURS_MAJEURES
10
16.248
20
81.250
0
VERTEX
8
CONTOURS_MAJEURES
10
15.292
20
79.998
0
VERTEX
8
CONTOURS_MAJEURES
10
15.276
20
79.720
0
VERTEX
8
CONTOURS_MAJEURES
10
14.998
20
79.498
0
VERTEX
8
CONTOURS_MAJEURES
10
13.123
20
76.875
0
VERTEX
8
CONTOURS_MAJEURES
10
11.536
20
75.001
0
VERTEX
8
CONTOURS_MAJEURES
10
11.174
20
73.826
0
VERTEX
8
CONTOURS_MAJEURES
10
10.664
20
70.005
0
VERTEX
8
CONTOURS_MAJEURES
10
9.997
20
69.604
0
VERTEX
8
CONTOURS_MAJEURES
10
6.663
20
70.005
0
VERTEX
8
CONTOURS_MAJEURES
10
5.996
20
71.004
0
VERTEX
8
CONTOURS_MAJEURES
10
4.996
20
70.505
0
VERTEX
8
CONTOURS_MAJEURES
10
4.746
20
70.255
0
VERTEX
8
CONTOURS_MAJEURES
10
2.495
20
70.005
0
VERTEX
8
CONTOURS_MAJEURES
10
-0.005
20
69.504
0
SEQEND
0
POLYLINE
8
CONTOURS_MAJEURES
66
1
70
0
0
VERTEX
8
CONTOURS_MAJEURES
10
78.718
20
-0.000
0
VERTEX
8
CONTOURS_MAJEURES
10
76.959
20
1.958
0
VERTEX
8
CONTOURS_MAJEURES
10
75.000
20
3.622
0
VERTEX
8
CONTOURS_MAJEURES
10
72.156
20
2.841
0
VERTEX
8
CONTOURS_MAJEURES
10
69.999
20
2.841
0
VERTEX
8
CONTOURS_MAJEURES
10
67.098
20
-0.000
0
SEQEND
0
POLYLINE
8
PARCELLE
66
1
70
1
0
VERTEX
8
PARCELLE
10
62.403
20
69.997
0
VERTEX
8
PARCELLE
10
55.258
20
104.590
0
VERTEX
8
PARCELLE
10
29.162
20
104.261
0
VERTEX
8
PARCELLE
10
20.000
20
133.207
0
VERTEX
8
PARCELLE
10
91.318
20
152.812
0
VERTEX
8
PARCELLE
10
118.663
20
64.566
0
VERTEX
8
PARCELLE
10
120.046
20
60.209
0
VERTEX
8
PARCELLE
10
94.731
20
54.160
0
VERTEX
8
PARCELLE
10
103.782
20
20.470
0
VERTEX
8
PARCELLE
10
74.396
20
20.000
0
VERTEX
8
PARCELLE
10
72.736
20
20.003
0
VERTEX
8
PARCELLE
10
62.403
20
69.997
0
SEQEND
0
TEXT
8
POINTS_COTES
10
-0.005
20
-0.000
40
1.0
1
37.7
0
TEXT
8
POINTS_COTES
10
104.995
20
4.996
40
1.0
1
39.0
0
TEXT
8
POINTS_COTES
10
64.997
20
15.000
40
1.0
1
38.8
0
TEXT
8
POINTS_COTES
10
25.000
20
25.004
40
1.0
1
37.6
0
TEXT
8
POINTS_COTES
10
130.000
20
30.001
40
1.0
1
37.1
0
TEXT
8
POINTS_COTES
10
90.003
20
40.004
40
1.0
1
37.8
0
TEXT
8
POINTS_COTES
10
50.005
20
49.997
40
1.0
1
36.4
0
TEXT
8
POINTS_COTES
10
9.997
20
60.001
40
1.0
1
35.5
0
TEXT
8
POINTS_COTES
10
114.997
20
64.998
40
1.0
1
36.0
0
TEXT
8
POINTS_COTES
10
75.000
20
75.001
40
1.0
1
35.8
0
TEXT
8
POINTS_COTES
10
35.002
20
85.005
40
1.0
1
35.3
0
TEXT
8
POINTS_COTES
10
140.002
20
90.002
40
1.0
1
36.0
0
TEXT
8
POINTS_COTES
10
100.005
20
99.994
40
1.0
1
35.4
0
TEXT
8
POINTS_COTES
10
59.996
20
109.998
40
1.0
1
34.8
0
TEXT
8
POINTS_COTES
10
19.999
20
120.002
40
1.0
1
34.4
0
TEXT
8
POINTS_COTES
10
124.999
20
124.999
40
1.0
1
35.0
0
TEXT
8
POINTS_COTES
10
85.002
20
135.002
40
1.0
1
34.6
0
TEXT
8
POINTS_COTES
10
45.004
20
144.995
40
1.0
1
34.5
0
TEXT
8
POINTS_COTES
10
4.996
20
154.999
40
1.0
1
34.2
0
TEXT
8
POINTS_COTES
10
109.996
20
159.996
40
1.0
1
34.7
0
TEXT
8
POINTS_COTES
10
69.999
20
169.999
40
1.0
1
34.2
0
ENDSEC
0
EOF
