0
SECTION
2
HEADER
0
ENDSEC
0
SECTION
2
TABLES
0
TABLE
2
LAYER
70
4
0
LAYER
2
CONTOURS_MINEURES
70
0
62
8
6
CONTINUOUS
0
LAYER
2
CONTOURS_MAJEURES
70
0
62
3
6
CONTINUOUS
0
LAYER
2
PARCELLE
70
0
62
4
6
CONTINUOUS
0
LAYER
2
POINTS_COTES
70
0
62
7
6
CONTINUOUS
0
ENDTAB
0
ENDSEC
0
SECTION
2
ENTITIES
0
POLYLINE
8
CONTOURS_MINEURES
66
1
70
0
0
VERTEX
8
CONTOURS_MINEURES
10
6.229
20
70.001
0
VERTEX
8
CONTOURS_MINEURES
10
6.229
20
69.767
0
VERTEX
8
CONTOURS_MINEURES
10
6.229
20
68.000
0
VERTEX
8
CONTOURS_MINEURES
10
5.995
20
67.760
0
VERTEX
8
CONTOURS_MINEURES
10
4.242
20
67.760
0
VERTEX
8
CONTOURS_MINEURES
10
4.003
20
67.760
0
VERTEX
8
CONTOURS_MINEURES
10
2.142
20
65.999
0
VERTEX
8
CONTOURS_MINEURES
10
2.142
20
64.139
0
VERTEX
8
CONTOURS_MINEURES
10
2.142
20
63.998
0
VERTEX
8
CONTOURS_MINEURES
10
2.059
20
63.940
0
VERTEX
8
CONTOURS_MINEURES
10
2.001
20
63.886
0
VERTEX
8
CONTOURS_MINEURES
10
0.112
20
63.886
0
VERTEX
8
CONTOURS_MINEURES
10
-0.001
20
63.886
0
SEQEND
0
POLYLINE
8
CONTOURS_MINEURES
66
1
70
0
0
VERTEX
8
CONTOURS_MINEURES
10
-0.001
20
53.225
0
VERTEX
8
CONTOURS_MINEURES
10
1.220
20
53.225
0
VERTEX
8
CONTOURS_MINEURES
10
2.001
20
53.225
0
VERTEX
8
CONTOURS_MINEURES
10
2.651
20
52.005
0
VERTEX
8
CONTOURS_MINEURES
10
2.651
20
50.653
0
VERTEX
8
CONTOURS_MINEURES
10
2.651
20
50.004
0
VERTEX
8
CONTOURS_MINEURES
10
2.534
20
49.472
0
VERTEX
8
CONTOURS_MINEURES
10
2.001
20
48.441
0
VERTEX
8
CONTOURS_MINEURES
10
1.563
20
48.441
0
VERTEX
8
CONTOURS_MINEURES
10
-0.001
20
48.441
0
SEQEND
0
POLYLINE
8
CONTOURS_MINEURES
66
1
70
0
0
VERTEX
8
CONTOURS_MINEURES
10
10.831
20
70.001
0
VERTEX
8
CONTOURS_MINEURES
10
10.831
20
69.169
0
VERTEX
8
CONTOURS_MINEURES
10
10.831
20
68.000
0
VERTEX
8
CONTOURS_MINEURES
10
9.999
20
66.638
0
VERTEX
8
CONTOURS_MINEURES
10
9.360
20
66.638
0
VERTEX
8
CONTOURS_MINEURES
10
7.997
20
66.638
0
VERTEX
8
CONTOURS_MINEURES
10
7.384
20
65.999
0
VERTEX
8
CONTOURS_MINEURES
10
7.384
20
64.611
0
VERTEX
8
CONTOURS_MINEURES
10
7.384
20
63.998
0
VERTEX
8
CONTOURS_MINEURES
10
5.995
20
63.331
0
VERTEX
8
CONTOURS_MINEURES
10
4.667
20
63.331
0
VERTEX
8
CONTOURS_MINEURES
10
4.003
20
63.331
0
VERTEX
8
CONTOURS_MINEURES
10
3.216
20
62.784
0
VERTEX
8
CONTOURS_MINEURES
10
2.383
20
61.997
0
VERTEX
8
CONTOURS_MINEURES
10
2.383
20
60.378
0
VERTEX
8
CONTOURS_MINEURES
10
2.383
20
59.997
0
VERTEX
8
CONTOURS_MINEURES
10
2.383
20
59.616
0
VERTEX
8
CONTOURS_MINEURES
10
2.383
20
57.996
0
VERTEX
8
CONTOURS_MINEURES
10
2.361
20
57.636
0
VERTEX
8
CONTOURS_MINEURES
10
2.001
20
56.996
0
VERTEX
8
CONTOURS_MINEURES
10
1.000
20
56.996
0
VERTEX
8
CONTOURS_MINEURES
10
-0.001
20
56.996
0
SEQEND
0
POLYLINE
8
CONTOURS_MINEURES
66
1
70
0
0
VERTEX
8
CONTOURS_MINEURES
10
20.184
20
70.001
0
VERTEX
8
CONTOURS_MINEURES
10
20.184
20
68.185
0
VERTEX
8
CONTOURS_MINEURES
10
20.184
20
68.000
0
VERTEX
8
CONTOURS_MINEURES
10
20.155
20
67.843
0
VERTEX
8
CONTOURS_MINEURES
10
20.264
20
65.999
0
VERTEX
8
CONTOURS_MINEURES
10
20.264
20
65.734
0
VERTEX
8
CONTOURS_MINEURES
10
20.264
20
63.998
0
VERTEX
8
CONTOURS_MINEURES
10
20.242
20
63.755
0
VERTEX
8
CONTOURS_MINEURES
10
19.999
20
62.798
0
VERTEX
8
CONTOURS_MINEURES
10
19.198
20
62.798
0
VERTEX
8
CONTOURS_MINEURES
10
17.997
20
62.798
0
VERTEX
8
CONTOURS_MINEURES
10
17.672
20
61.997
0
VERTEX
8
CONTOURS_MINEURES
10
17.672
20
60.321
0
VERTEX
8
CONTOURS_MINEURES
10
17.672
20
59.997
0
VERTEX
8
CONTOURS_MINEURES
10
17.672
20
59.672
0
VERTEX
8
CONTOURS_MINEURES
10
17.672
20
57.996
0
VERTEX
8
CONTOURS_MINEURES
10
16.780
20
57.211
0
VERTEX
8
CONTOURS_MINEURES
10
15.995
20
57.190
0
VERTEX
8
CONTOURS_MINEURES
10
15.193
20
57.190
0
VERTEX
8
CONTOURS_MINEURES
10
14.003
20
57.190
0
VERTEX
8
CONTOURS_MINEURES
10
12.807
20
57.190
0
VERTEX
8
CONTOURS_MINEURES
10
12.001
20
57.190
0
VERTEX
8
CONTOURS_MINEURES
10
11.075
20
57.070
0
VERTEX
8
CONTOURS_MINEURES
10
9.999
20
57.354
0
VERTEX
8
CONTOURS_MINEURES
10
8.639
20
57.354
0
VERTEX
8
CONTOURS_MINEURES
10
7.997
20
57.354
0
VERTEX
8
CONTOURS_MINEURES
10
6.853
20
55.995
0
VERTEX
8
CONTOURS_MINEURES
10
6.853
20
54.858
0
VERTEX
8
CONTOURS_MINEURES
10
6.853
20
54.005
0
VERTEX
8
CONTOURS_MINEURES
10
6.881
20
53.120
0
VERTEX
8
CONTOURS_MINEURES
10
7.167
20
52.005
0
VERTEX
8
CONTOURS_MINEURES
10
7.167
20
51.175
0
VERTEX
8
CONTOURS_MINEURES
10
7.167
20
50.004
0
VERTEX
8
CONTOURS_MINEURES
10
7.039
20
48.960
0
VERTEX
8
CONTOURS_MINEURES
10
6.822
20
48.003
0
VERTEX
8
CONTOURS_MINEURES
10
6.822
20
46.829
0
VERTEX
8
CONTOURS_MINEURES
10
6.822
20
46.002
0
VERTEX
8
CONTOURS_MINEURES
10
6.822
20
45.175
0
VERTEX
8
CONTOURS_MINEURES
10
6.822
20
44.002
0
VERTEX
8
CONTOURS_MINEURES
10
6.458
20
43.539
0
VERTEX
8
CONTOURS_MINEURES
10
5.995
20
43.175
0
VERTEX
8
CONTOURS_MINEURES
10
5.172
20
43.175
0
VERTEX
8
CONTOURS_MINEURES
10
4.003
20
43.175
0
VERTEX
8
CONTOURS_MINEURES
10
3.360
20
42.643
0
VERTEX
8
CONTOURS_MINEURES
10
2.001
20
42.451
0
VERTEX
8
CONTOURS_MINEURES
10
0.450
20
42.451
0
VERTEX
8
CONTOURS_MINEURES
10
-0.001
20
42.451
0
SEQEND
0
POLYLINE
8
CONTOURS_MINEURES
66
1
70
0
0
VERTEX
8
CONTOURS_MINEURES
10
25.264
20
70.001
0
VERTEX
8
CONTOURS_MINEURES
10
25.264
20
69.260
0
VERTEX
8
CONTOURS_MINEURES
10
25.264
20
68.000
0
VERTEX
8
CONTOURS_MINEURES
10
25.204
20
66.799
0
VERTEX
8
CONTOURS_MINEURES
10
25.098
20
65.999
0
VERTEX
8
CONTOURS_MINEURES
10
25.098
20
64.905
0
VERTEX
8
CONTOURS_MINEURES
10
25.098
20
63.998
0
VERTEX
8
CONTOURS_MINEURES
10
25.019
20
63.012
0
VERTEX
8
CONTOURS_MINEURES
10
25.081
20
61.997
0
VERTEX
8
CONTOURS_MINEURES
10
25.081
20
60.920
0
VERTEX
8
CONTOURS_MINEURES
10
25.081
20
59.997
0
VERTEX
8
CONTOURS_MINEURES
10
25.081
20
58.919
0
VERTEX
8
CONTOURS_MINEURES
10
25.081
20
57.996
0
VERTEX
8
CONTOURS_MINEURES
10
24.185
20
56.177
0
VERTEX
8
CONTOURS_MINEURES
10
24.112
20
55.995
0
VERTEX
8
CONTOURS_MINEURES
10
24.112
20
55.887
0
VERTEX
8
CONTOURS_MINEURES
10
24.112
20
54.005
0
VERTEX
8
CONTOURS_MINEURES
10
24.060
20
53.949
0
VERTEX
8
CONTOURS_MINEURES
10
24.003
20
53.924
0
VERTEX
8
CONTOURS_MINEURES
10
22.082
20
53.924
0
VERTEX
8
CONTOURS_MINEURES
10
22.001
20
53.924
0
VERTEX
8
CONTOURS_MINEURES
10
21.794
20
53.798
0
VERTEX
8
CONTOURS_MINEURES
10
19.999
20
52.672
0
VERTEX
8
CONTOURS_MINEURES
10
18.664
20
52.672
0
VERTEX
8
CONTOURS_MINEURES
10
17.997
20
52.672
0
VERTEX
8
CONTOURS_MINEURES
10
17.346
20
52.655
0
VERTEX
8
CONTOURS_MINEURES
10
15.995
20
52.076
0
VERTEX
8
CONTOURS_MINEURES
10
14.074
20
52.076
0
VERTEX
8
CONTOURS_MINEURES
10
14.003
20
52.076
0
VERTEX
8
CONTOURS_MINEURES
10
12.073
20
52.076
0
VERTEX
8
CONTOURS_MINEURES
10
12.001
20
52.076
0
VERTEX
8
CONTOURS_MINEURES
10
11.940
20
52.065
0
VERTEX
8
CONTOURS_MINEURES
10
11.942
20
52.005
0
VERTEX
8
CONTOURS_MINEURES
10
11.942
20
51.946
0
VERTEX
8
CONTOURS_MINEURES
10
11.942
20
50.004
0
VERTEX
8
CONTOURS_MINEURES
10
11.554
20
48.450
0
VERTEX
8
CONTOURS_MINEURES
10
11.494
20
48.003
0
VERTEX
8
CONTOURS_MINEURES
10
11.494
20
47.496
0
VERTEX
8
CONTOURS_MINEURES
10
11.494
20
46.002
0
VERTEX
8
CONTOURS_MINEURES
10
11.494
20
44.508
0
VERTEX
8
CONTOURS_MINEURES
10
11.494
20
44.002
0
VERTEX
8
CONTOURS_MINEURES
10
9.999
20
42.103
0
VERTEX
8
CONTOURS_MINEURES
10
9.897
20
42.103
0
VERTEX
8
CONTOURS_MINEURES
10
7.997
20
42.103
0
VERTEX
8
CONTOURS_MINEURES
10
7.952
20
42.046
0
VERTEX
8
CONTOURS_MINEURES
10
7.895
20
42.001
0
VERTEX
8
CONTOURS_MINEURES
10
7.895
20
41.899
0
VERTEX
8
CONTOURS_MINEURES
10
7.895
20
40.000
0
VERTEX
8
CONTOURS_MINEURES
10
6.844
20
39.151
0
VERTEX
8
CONTOURS_MINEURES
10
5.995
20
39.017
0
VERTEX
8
CONTOURS_MINEURES
10
4.982
20
39.017
0
VERTEX
8
CONTOURS_MINEURES
10
4.003
20
39.017
0
VERTEX
8
CONTOURS_MINEURES
10
2.975
20
38.972
0
VERTEX
8
CONTOURS_MINEURES
10
2.001
20
38.841
0
VERTEX
8
CONTOURS_MINEURES
10
1.159
20
38.841
0
VERTEX
8
CONTOURS_MINEURES
10
-0.001
20
38.841
0
SEQEND
0
POLYLINE
8
CONTOURS_MINEURES
66
1
70
0
0
VERTEX
8
CONTOURS_MINEURES
10
34.773
20
70.001
0
VERTEX
8
CONTOURS_MINEURES
10
34.773
20
68.769
0
VERTEX
8
CONTOURS_MINEURES
10
34.773
20
68.000
0
VERTEX
8
CONTOURS_MINEURES
10
34.530
20
67.473
0
VERTEX
8
CONTOURS_MINEURES
10
34.388
20
65.999
0
VERTEX
8
CONTOURS_MINEURES
10
34.388
20
65.614
0
VERTEX
8
CONTOURS_MINEURES
10
34.388
20
63.998
0
VERTEX
8
CONTOURS_MINEURES
10
34.289
20
62.283
0
VERTEX
8
CONTOURS_MINEURES
10
34.263
20
61.997
0
VERTEX
8
CONTOURS_MINEURES
10
34.263
20
61.738
0
VERTEX
8
CONTOURS_MINEURES
10
34.263
20
59.997
0
VERTEX
8
CONTOURS_MINEURES
10
34.263
20
58.255
0
VERTEX
8
CONTOURS_MINEURES
10
34.263
20
57.996
0
VERTEX
8
CONTOURS_MINEURES
10
34.268
20
57.732
0
VERTEX
8
CONTOURS_MINEURES
10
34.046
20
55.995
0
VERTEX
8
CONTOURS_MINEURES
10
34.046
20
55.953
0
VERTEX
8
CONTOURS_MINEURES
10
34.046
20
54.005
0
VERTEX
8
CONTOURS_MINEURES
10
34.003
20
53.922
0
VERTEX
8
CONTOURS_MINEURES
10
33.920
20
53.922
0
VERTEX
8
CONTOURS_MINEURES
10
32.001
20
53.922
0
VERTEX
8
CONTOURS_MINEURES
10
31.352
20
52.653
0
VERTEX
8
CONTOURS_MINEURES
10
29.999
20
52.122
0
VERTEX
8
CONTOURS_MINEURES
10
28.114
20
52.122
0
VERTEX
8
CONTOURS_MINEURES
10
27.997
20
52.122
0
VERTEX
8
CONTOURS_MINEURES
10
27.880
20
52.122
0
VERTEX
8
CONTOURS_MINEURES
10
26.005
20
52.122
0
VERTEX
8
CONTOURS_MINEURES
10
25.949
20
52.061
0
VERTEX
8
CONTOURS_MINEURES
10
25.818
20
52.005
0
VERTEX
8
CONTOURS_MINEURES
10
25.818
20
50.191
0
VERTEX
8
CONTOURS_MINEURES
10
25.818
20
50.004
0
VERTEX
8
CONTOURS_MINEURES
10
24.003
20
49.163
0
VERTEX
8
CONTOURS_MINEURES
10
23.162
20
49.163
0
VERTEX
8
CONTOURS_MINEURES
10
22.001
20
49.163
0
VERTEX
8
CONTOURS_MINEURES
10
20.571
20
48.003
0
VERTEX
8
CONTOURS_MINEURES
10
20.571
20
46.574
0
VERTEX
8
CONTOURS_MINEURES
10
20.571
20
46.002
0
VERTEX
8
CONTOURS_MINEURES
10
20.571
20
45.431
0
VERTEX
8
CONTOURS_MINEURES
10
20.571
20
44.002
0
VERTEX
8
CONTOURS_MINEURES
10
19.999
20
42.317
0
VERTEX
8
CONTOURS_MINEURES
10
19.683
20
42.317
0
VERTEX
8
CONTOURS_MINEURES
10
17.997
20
42.317
0
VERTEX
8
CONTOURS_MINEURES
10
17.925
20
42.072
0
VERTEX
8
CONTOURS_MINEURES
10
17.825
20
42.001
0
VERTEX
8
CONTOURS_MINEURES
10
17.825
20
41.829
0
VERTEX
8
CONTOURS_MINEURES
10
17.825
20
40.000
0
VERTEX
8
CONTOURS_MINEURES
10
17.637
20
38.358
0
VERTEX
8
CONTOURS_MINEURES
10
16.440
20
37.999
0
VERTEX
8
CONTOURS_MINEURES
10
16.440
20
37.555
0
VERTEX
8
CONTOURS_MINEURES
10
16.440
20
35.998
0
VERTEX
8
CONTOURS_MINEURES
10
16.109
20
35.884
0
VERTEX
8
CONTOURS_MINEURES
10
15.995
20
35.817
0
VERTEX
8
CONTOURS_MINEURES
10
15.814
20
35.817
0
VERTEX
8
CONTOURS_MINEURES
10
14.003
20
35.817
0
VERTEX
8
CONTOURS_MINEURES
10
12.183
20
35.817
0
VERTEX
8
CONTOURS_MINEURES
10
12.001
20
35.817
0
VERTEX
8
CONTOURS_MINEURES
10
11.876
20
35.873
0
VERTEX
8
CONTOURS_MINEURES
10
9.999
20
35.109
0
VERTEX
8
CONTOURS_MINEURES
10
9.109
20
35.109
0
VERTEX
8
CONTOURS_MINEURES
10
7.997
20
35.109
0
VERTEX
8
CONTOURS_MINEURES
10
7.163
20
34.831
0
VERTEX
8
CONTOURS_MINEURES
10
5.995
20
34.706
0
VERTEX
8
CONTOURS_MINEURES
10
4.708
20
34.706
0
VERTEX
8
CONTOURS_MINEURES
10
4.003
20
34.706
0
VERTEX
8
CONTOURS_MINEURES
10
2.649
20
33.998
0
VERTEX
8
CONTOURS_MINEURES
10
2.649
20
33.350
0
VERTEX
8
CONTOURS_MINEURES
10
2.649
20
31.997
0
VERTEX
8
CONTOURS_MINEURES
10
2.649
20
31.350
0
VERTEX
8
CONTOURS_MINEURES
10
2.649
20
29.996
0
VERTEX
8
CONTOURS_MINEURES
10
2.417
20
29.581
0
VERTEX
8
CONTOURS_MINEURES
10
2.001
20
29.181
0
VERTEX
8
CONTOURS_MINEURES
10
0.815
20
29.181
0
VERTEX
8
CONTOURS_MINEURES
10
-0.001
20
29.181
0
SEQEND
0
POLYLINE
8
CONTOURS_MINEURES
66
1
70
0
0
VERTEX
8
CONTOURS_MINEURES
10
67.598
20
70.001
0
VERTEX
8
CONTOURS_MINEURES
10
67.598
20
68.400
0
VERTEX
8
CONTOURS_MINEURES
10
67.598
20
68.000
0
VERTEX
8
CONTOURS_MINEURES
10
66.005
20
67.680
0
VERTEX
8
CONTOURS_MINEURES
10
65.685
20
67.680
0
VERTEX
8
CONTOURS_MINEURES
10
64.003
20
67.680
0
VERTEX
8
CONTOURS_MINEURES
10
63.174
20
68.000
0
VERTEX
8
CONTOURS_MINEURES
10
63.174
20
69.173
0
VERTEX
8
CONTOURS_MINEURES
10
63.174
20
70.001
0
SEQEND
0
POLYLINE
8
CONTOURS_MINEURES
66
1
70
0
0
VERTEX
8
CONTOURS_MINEURES
10
52.418
20
70.001
0
VERTEX
8
CONTOURS_MINEURES
10
52.418
20
68.417
0
VERTEX
8
CONTOURS_MINEURES
10
52.418
20
68.000
0
VERTEX
8
CONTOURS_MINEURES
10
52.112
20
67.889
0
VERTEX
8
CONTOURS_MINEURES
10
52.001
20
67.767
0
VERTEX
8
CONTOURS_MINEURES
10
51.768
20
67.767
0
VERTEX
8
CONTOURS_MINEURES
10
49.999
20
67.767
0
VERTEX
8
CONTOURS_MINEURES
10
48.731
20
67.266
0
VERTEX
8
CONTOURS_MINEURES
10
47.997
20
66.307
0
VERTEX
8
CONTOURS_MINEURES
10
47.690
20
66.307
0
VERTEX
8
CONTOURS_MINEURES
10
46.005
20
66.307
0
VERTEX
8
CONTOURS_MINEURES
10
45.534
20
65.999
0
VERTEX
8
CONTOURS_MINEURES
10
45.534
20
65.528
0
VERTEX
8
CONTOURS_MINEURES
10
45.534
20
63.998
0
VERTEX
8
CONTOURS_MINEURES
10
45.389
20
63.383
0
VERTEX
8
CONTOURS_MINEURES
10
44.584
20
61.997
0
VERTEX
8
CONTOURS_MINEURES
10
44.584
20
60.578
0
VERTEX
8
CONTOURS_MINEURES
10
44.584
20
59.997
0
VERTEX
8
CONTOURS_MINEURES
10
44.584
20
59.416
0
VERTEX
8
CONTOURS_MINEURES
10
44.584
20
57.996
0
VERTEX
8
CONTOURS_MINEURES
10
44.308
20
57.691
0
VERTEX
8
CONTOURS_MINEURES
10
44.249
20
55.995
0
VERTEX
8
CONTOURS_MINEURES
10
44.249
20
55.751
0
VERTEX
8
CONTOURS_MINEURES
10
44.249
20
54.005
0
VERTEX
8
CONTOURS_MINEURES
10
44.003
20
52.838
0
VERTEX
8
CONTOURS_MINEURES
10
42.835
20
52.838
0
VERTEX
8
CONTOURS_MINEURES
10
42.001
20
52.838
0
VERTEX
8
CONTOURS_MINEURES
10
41.167
20
52.838
0
VERTEX
8
CONTOURS_MINEURES
10
39.999
20
52.838
0
VERTEX
8
CONTOURS_MINEURES
10
39.829
20
52.174
0
VERTEX
8
CONTOURS_MINEURES
10
39.786
20
52.005
0
VERTEX
8
CONTOURS_MINEURES
10
39.786
20
50.217
0
VERTEX
8
CONTOURS_MINEURES
10
39.786
20
50.004
0
VERTEX
8
CONTOURS_MINEURES
10
39.443
20
49.448
0
VERTEX
8
CONTOURS_MINEURES
10
38.894
20
48.003
0
VERTEX
8
CONTOURS_MINEURES
10
38.894
20
46.899
0
VERTEX
8
CONTOURS_MINEURES
10
38.894
20
46.002
0
VERTEX
8
CONTOURS_MINEURES
10
38.894
20
44.898
0
VERTEX
8
CONTOURS_MINEURES
10
38.894
20
44.002
0
VERTEX
8
CONTOURS_MINEURES
10
38.864
20
43.135
0
VERTEX
8
CONTOURS_MINEURES
10
37.997
20
42.144
0
VERTEX
8
CONTOURS_MINEURES
10
37.854
20
42.144
0
VERTEX
8
CONTOURS_MINEURES
10
36.005
20
42.144
0
VERTEX
8
CONTOURS_MINEURES
10
34.379
20
42.376
0
VERTEX
8
CONTOURS_MINEURES
10
34.003
20
42.241
0
VERTEX
8
CONTOURS_MINEURES
10
33.763
20
42.241
0
VERTEX
8
CONTOURS_MINEURES
10
32.001
20
42.241
0
VERTEX
8
CONTOURS_MINEURES
10
31.572
20
42.001
0
VERTEX
8
CONTOURS_MINEURES
10
31.572
20
40.429
0
VERTEX
8
CONTOURS_MINEURES
10
31.572
20
40.000
0
VERTEX
8
CONTOURS_MINEURES
10
31.715
20
39.714
0
VERTEX
8
CONTOURS_MINEURES
10
31.637
20
37.999
0
VERTEX
8
CONTOURS_MINEURES
10
31.637
20
36.362
0
VERTEX
8
CONTOURS_MINEURES
10
31.637
20
35.998
0
VERTEX
8
CONTOURS_MINEURES
10
31.620
20
35.617
0
VERTEX
8
CONTOURS_MINEURES
10
31.701
20
33.998
0
VERTEX
8
CONTOURS_MINEURES
10
31.701
20
32.297
0
VERTEX
8
CONTOURS_MINEURES
10
31.701
20
31.997
0
VERTEX
8
CONTOURS_MINEURES
10
31.701
20
31.697
0
VERTEX
8
CONTOURS_MINEURES
10
31.701
20
29.996
0
VERTEX
8
CONTOURS_MINEURES
10
30.548
20
29.448
0
VERTEX
8
CONTOURS_MINEURES
10
29.999
20
29.205
0
VERTEX
8
CONTOURS_MINEURES
10
28.788
20
29.205
0
VERTEX
8
CONTOURS_MINEURES
10
27.997
20
29.205
0
VERTEX
8
CONTOURS_MINEURES
10
27.209
20
29.205
0
VERTEX
8
CONTOURS_MINEURES
10
26.005
20
29.205
0
VERTEX
8
CONTOURS_MINEURES
10
25.251
20
28.749
0
VERTEX
8
CONTOURS_MINEURES
10
24.428
20
27.995
0
VERTEX
8
CONTOURS_MINEURES
10
24.428
20
26.419
0
VERTEX
8
CONTOURS_MINEURES
10
24.428
20
25.995
0
VERTEX
8
CONTOURS_MINEURES
10
24.152
20
25.846
0
VERTEX
8
CONTOURS_MINEURES
10
24.003
20
25.780
0
VERTEX
8
CONTOURS_MINEURES
10
23.788
20
25.780
0
VERTEX
8
CONTOURS_MINEURES
10
22.001
20
25.780
0
VERTEX
8
CONTOURS_MINEURES
10
20.666
20
25.331
0
VERTEX
8
CONTOURS_MINEURES
10
19.999
20
25.133
0
VERTEX
8
CONTOURS_MINEURES
10
18.863
20
25.133
0
VERTEX
8
CONTOURS_MINEURES
10
17.997
20
25.133
0
VERTEX
8
CONTOURS_MINEURES
10
16.306
20
24.005
0
VERTEX
8
CONTOURS_MINEURES
10
16.306
20
23.694
0
VERTEX
8
CONTOURS_MINEURES
10
16.306
20
22.004
0
VERTEX
8
CONTOURS_MINEURES
10
15.995
20
21.758
0
VERTEX
8
CONTOURS_MINEURES
10
15.750
20
21.758
0
VERTEX
8
CONTOURS_MINEURES
10
14.003
20
21.758
0
VERTEX
8
CONTOURS_MINEURES
10
13.757
20
21.758
0
VERTEX
8
CONTOURS_MINEURES
10
12.001
20
21.758
0
VERTEX
8
CONTOURS_MINEURES
10
11.549
20
21.552
0
VERTEX
8
CONTOURS_MINEURES
10
9.999
20
20.861
0
VERTEX
8
CONTOURS_MINEURES
10
9.141
20
20.861
0
VERTEX
8
CONTOURS_MINEURES
10
7.997
20
20.861
0
VERTEX
8
CONTOURS_MINEURES
10
7.246
20
20.754
0
VERTEX
8
CONTOURS_MINEURES
10
6.541
20
20.003
0
VERTEX
8
CONTOURS_MINEURES
10
6.541
20
19.458
0
VERTEX
8
CONTOURS_MINEURES
10
6.541
20
18.003
0
VERTEX
8
CONTOURS_MINEURES
10
6.541
20
16.547
0
VERTEX
8
CONTOURS_MINEURES
10
6.541
20
16.002
0
VERTEX
8
CONTOURS_MINEURES
10
6.191
20
15.806
0
VERTEX
8
CONTOURS_MINEURES
10
5.995
20
15.573
0
VERTEX
8
CONTOURS_MINEURES
10
5.568
20
15.573
0
VERTEX
8
CONTOURS_MINEURES
10
4.003
20
15.573
0
VERTEX
8
CONTOURS_MINEURES
10
2.938
20
15.066
0
VERTEX
8
CONTOURS_MINEURES
10
2.001
20
14.001
0
VERTEX
8
CONTOURS_MINEURES
10
-0.001
20
14.001
0
SEQEND
0
POLYLINE
8
CONTOURS_MINEURES
66
1
70
0
0
VERTEX
8
CONTOURS_MINEURES
10
77.996
20
67.218
0
VERTEX
8
CONTOURS_MINEURES
10
77.019
20
67.018
0
VERTEX
8
CONTOURS_MINEURES
10
76.005
20
66.799
0
VERTEX
8
CONTOURS_MINEURES
10
75.204
20
66.799
0
VERTEX
8
CONTOURS_MINEURES
10
74.003
20
66.799
0
VERTEX
8
CONTOURS_MINEURES
10
73.202
20
66.799
0
VERTEX
8
CONTOURS_MINEURES
10
72.001
20
66.799
0
VERTEX
8
CONTOURS_MINEURES
10
70.426
20
66.426
0
VERTEX
8
CONTOURS_MINEURES
10
69.999
20
66.369
0
VERTEX
8
CONTOURS_MINEURES
10
69.628
20
66.369
0
VERTEX
8
CONTOURS_MINEURES
10
67.996
20
66.369
0
VERTEX
8
CONTOURS_MINEURES
10
67.254
20
65.999
0
VERTEX
8
CONTOURS_MINEURES
10
67.254
20
65.253
0
VERTEX
8
CONTOURS_MINEURES
10
67.254
20
63.998
0
VERTEX
8
CONTOURS_MINEURES
10
66.005
20
63.501
0
VERTEX
8
CONTOURS_MINEURES
10
64.500
20
63.501
0
VERTEX
8
CONTOURS_MINEURES
10
64.003
20
63.501
0
VERTEX
8
CONTOURS_MINEURES
10
62.413
20
63.587
0
VERTEX
8
CONTOURS_MINEURES
10
62.001
20
63.331
0
VERTEX
8
CONTOURS_MINEURES
10
61.333
20
63.331
0
VERTEX
8
CONTOURS_MINEURES
10
59.999
20
63.331
0
VERTEX
8
CONTOURS_MINEURES
10
58.679
20
62.680
0
VERTEX
8
CONTOURS_MINEURES
10
57.996
20
62.998
0
VERTEX
8
CONTOURS_MINEURES
10
57.001
20
62.998
0
VERTEX
8
CONTOURS_MINEURES
10
56.005
20
62.998
0
VERTEX
8
CONTOURS_MINEURES
10
55.004
20
62.998
0
VERTEX
8
CONTOURS_MINEURES
10
54.003
20
62.998
0
VERTEX
8
CONTOURS_MINEURES
10
53.377
20
61.997
0
VERTEX
8
CONTOURS_MINEURES
10
53.377
20
60.622
0
VERTEX
8
CONTOURS_MINEURES
10
53.377
20
59.997
0
VERTEX
8
CONTOURS_MINEURES
10
53.377
20
59.371
0
VERTEX
8
CONTOURS_MINEURES
10
53.377
20
57.996
0
VERTEX
8
CONTOURS_MINEURES
10
52.001
20
56.495
0
VERTEX
8
CONTOURS_MINEURES
10
51.500
20
56.495
0
VERTEX
8
CONTOURS_MINEURES
10
49.999
20
56.495
0
VERTEX
8
CONTOURS_MINEURES
10
49.638
20
55.995
0
VERTEX
8
CONTOURS_MINEURES
10
49.638
20
54.364
0
VERTEX
8
CONTOURS_MINEURES
10
49.638
20
54.005
0
VERTEX
8
CONTOURS_MINEURES
10
49.331
20
53.338
0
VERTEX
8
CONTOURS_MINEURES
10
48.743
20
52.005
0
VERTEX
8
CONTOURS_MINEURES
10
48.743
20
51.259
0
VERTEX
8
CONTOURS_MINEURES
10
48.743
20
50.004
0
VERTEX
8
CONTOURS_MINEURES
10
48.764
20
48.770
0
VERTEX
8
CONTOURS_MINEURES
10
48.716
20
48.003
0
VERTEX
8
CONTOURS_MINEURES
10
48.716
20
46.721
0
VERTEX
8
CONTOURS_MINEURES
10
48.716
20
46.002
0
VERTEX
8
CONTOURS_MINEURES
10
48.716
20
45.283
0
VERTEX
8
CONTOURS_MINEURES
10
48.716
20
44.002
0
VERTEX
8
CONTOURS_MINEURES
10
48.739
20
43.259
0
VERTEX
8
CONTOURS_MINEURES
10
48.867
20
42.001
0
VERTEX
8
CONTOURS_MINEURES
10
48.867
20
40.870
0
VERTEX
8
CONTOURS_MINEURES
10
48.867
20
40.000
0
VERTEX
8
CONTOURS_MINEURES
10
48.703
20
39.294
0
VERTEX
8
CONTOURS_MINEURES
10
48.469
20
37.999
0
VERTEX
8
CONTOURS_MINEURES
10
48.469
20
36.471
0
VERTEX
8
CONTOURS_MINEURES
10
48.469
20
35.998
0
VERTEX
8
CONTOURS_MINEURES
10
48.241
20
35.754
0
VERTEX
8
CONTOURS_MINEURES
10
47.997
20
35.655
0
VERTEX
8
CONTOURS_MINEURES
10
47.655
20
35.655
0
VERTEX
8
CONTOURS_MINEURES
10
46.005
20
35.655
0
VERTEX
8
CONTOURS_MINEURES
10
44.932
20
35.070
0
VERTEX
8
CONTOURS_MINEURES
10
44.051
20
33.998
0
VERTEX
8
CONTOURS_MINEURES
10
44.051
20
32.045
0
VERTEX
8
CONTOURS_MINEURES
10
44.051
20
31.997
0
VERTEX
8
CONTOURS_MINEURES
10
44.051
20
31.949
0
VERTEX
8
CONTOURS_MINEURES
10
44.051
20
29.996
0
VERTEX
8
CONTOURS_MINEURES
10
44.003
20
29.958
0
VERTEX
8
CONTOURS_MINEURES
10
43.965
20
29.958
0
VERTEX
8
CONTOURS_MINEURES
10
42.001
20
29.958
0
VERTEX
8
CONTOURS_MINEURES
10
40.037
20
29.958
0
VERTEX
8
CONTOURS_MINEURES
10
39.999
20
29.958
0
VERTEX
8
CONTOURS_MINEURES
10
38.156
20
27.995
0
VERTEX
8
CONTOURS_MINEURES
10
38.156
20
26.154
0
VERTEX
8
CONTOURS_MINEURES
10
38.156
20
25.995
0
VERTEX
8
CONTOURS_MINEURES
10
37.997
20
25.857
0
VERTEX
8
CONTOURS_MINEURES
10
37.859
20
25.857
0
VERTEX
8
CONTOURS_MINEURES
10
36.005
20
25.857
0
VERTEX
8
CONTOURS_MINEURES
10
34.629
20
25.373
0
VERTEX
8
CONTOURS_MINEURES
10
34.003
20
24.991
0
VERTEX
8
CONTOURS_MINEURES
10
33.011
20
24.991
0
VERTEX
8
CONTOURS_MINEURES
10
32.001
20
24.991
0
VERTEX
8
CONTOURS_MINEURES
10
30.387
20
24.005
0
VERTEX
8
CONTOURS_MINEURES
10
30.387
20
22.392
0
VERTEX
8
CONTOURS_MINEURES
10
30.387
20
22.004
0
VERTEX
8
CONTOURS_MINEURES
10
30.151
20
21.852
0
VERTEX
8
CONTOURS_MINEURES
10
29.999
20
21.715
0
VERTEX
8
CONTOURS_MINEURES
10
29.710
20
21.715
0
VERTEX
8
CONTOURS_MINEURES
10
27.997
20
21.715
0
VERTEX
8
CONTOURS_MINEURES
10
26.293
20
21.715
0
VERTEX
8
CONTOURS_MINEURES
10
26.005
20
21.715
0
VERTEX
8
CONTOURS_MINEURES
10
24.710
20
21.298
0
VERTEX
8
CONTOURS_MINEURES
10
24.003
20
20.289
0
VERTEX
8
CONTOURS_MINEURES
10
22.287
20
20.289
0
VERTEX
8
CONTOURS_MINEURES
10
22.001
20
20.289
0
VERTEX
8
CONTOURS_MINEURES
10
21.518
20
20.003
0
VERTEX
8
CONTOURS_MINEURES
10
21.518
20
18.485
0
VERTEX
8
CONTOURS_MINEURES
10
21.518
20
18.003
0
VERTEX
8
CONTOURS_MINEURES
10
21.518
20
16.485
0
VERTEX
8
CONTOURS_MINEURES
10
21.518
20
16.002
0
VERTEX
8
CONTOURS_MINEURES
10
20.414
20
15.587
0
VERTEX
8
CONTOURS_MINEURES
10
19.999
20
15.121
0
VERTEX
8
CONTOURS_MINEURES
10
18.878
20
15.121
0
VERTEX
8
CONTOURS_MINEURES
10
17.997
20
15.121
0
VERTEX
8
CONTOURS_MINEURES
10
16.620
20
14.626
0
VERTEX
8
CONTOURS_MINEURES
10
15.995
20
14.334
0
VERTEX
8
CONTOURS_MINEURES
10
14.335
20
14.334
0
VERTEX
8
CONTOURS_MINEURES
10
14.003
20
14.334
0
VERTEX
8
CONTOURS_MINEURES
10
13.670
20
14.334
0
VERTEX
8
CONTOURS_MINEURES
10
12.001
20
14.334
0
VERTEX
8
CONTOURS_MINEURES
10
11.260
20
14.001
0
VERTEX
8
CONTOURS_MINEURES
10
11.260
20
12.741
0
VERTEX
8
CONTOURS_MINEURES
10
11.260
20
12.000
0
VERTEX
8
CONTOURS_MINEURES
10
10.395
20
11.605
0
VERTEX
8
CONTOURS_MINEURES
10
9.999
20
11.150
0
VERTEX
8
CONTOURS_MINEURES
10
8.848
20
11.150
0
VERTEX
8
CONTOURS_MINEURES
10
7.997
20
11.150
0
VERTEX
8
CONTOURS_MINEURES
10
7.288
20
9.999
0
VERTEX
8
CONTOURS_MINEURES
10
7.288
20
9.291
0
VERTEX
8
CONTOURS_MINEURES
10
7.288
20
7.999
0
VERTEX
8
CONTOURS_MINEURES
10
7.288
20
6.706
0
VERTEX
8
CONTOURS_MINEURES
10
7.288
20
5.998
0
VERTEX
8
CONTOURS_MINEURES
10
6.846
20
4.847
0
VERTEX
8
CONTOURS_MINEURES
10
6.474
20
3.997
0
VERTEX
8
CONTOURS_MINEURES
10
6.474
20
2.475
0
VERTEX
8
CONTOURS_MINEURES
10
6.474
20
1.996
0
VERTEX
8
CONTOURS_MINEURES
10
6.245
20
1.746
0
VERTEX
8
CONTOURS_MINEURES
10
5.995
20
1.241
0
VERTEX
8
CONTOURS_MINEURES
10
5.242
20
1.241
0
VERTEX
8
CONTOURS_MINEURES
10
4.003
20
1.241
0
VERTEX
8
CONTOURS_MINEURES
10
3.214
20
-0.004
0
SEQEND
0
POLYLINE
8
CONTOURS_MINEURES
66
1
70
0
0
VERTEX
8
CONTOURS_MINEURES
10
77.996
20
63.189
0
VERTEX
8
CONTOURS_MINEURES
10
77.448
20
63.447
0
VERTEX
8
CONTOURS_MINEURES
10
76.005
20
63.040
0
VERTEX
8
CONTOURS_MINEURES
10
74.962
20
63.040
0
VERTEX
8
CONTOURS_MINEURES
10
74.003
20
63.040
0
VERTEX
8
CONTOURS_MINEURES
10
73.043
20
63.040
0
VERTEX
8
CONTOURS_MINEURES
10
72.001
20
63.040
0
VERTEX
8
CONTOURS_MINEURES
10
71.219
20
62.779
0
VERTEX
8
CONTOURS_MINEURES
10
69.999
20
62.978
0
VERTEX
8
CONTOURS_MINEURES
10
68.978
20
62.978
0
VERTEX
8
CONTOURS_MINEURES
10
67.996
20
62.978
0
VERTEX
8
CONTOURS_MINEURES
10
66.271
20
62.264
0
VERTEX
8
CONTOURS_MINEURES
10
66.005
20
62.159
0
VERTEX
8
CONTOURS_MINEURES
10
65.844
20
62.159
0
VERTEX
8
CONTOURS_MINEURES
10
64.003
20
62.159
0
VERTEX
8
CONTOURS_MINEURES
10
63.832
20
62.168
0
VERTEX
8
CONTOURS_MINEURES
10
63.558
20
61.997
0
VERTEX
8
CONTOURS_MINEURES
10
63.558
20
61.553
0
VERTEX
8
CONTOURS_MINEURES
10
63.558
20
59.997
0
VERTEX
8
CONTOURS_MINEURES
10
63.558
20
59.552
0
VERTEX
8
CONTOURS_MINEURES
10
63.558
20
57.996
0
VERTEX
8
CONTOURS_MINEURES
10
63.354
20
57.347
0
VERTEX
8
CONTOURS_MINEURES
10
63.002
20
55.995
0
VERTEX
8
CONTOURS_MINEURES
10
63.002
20
55.000
0
VERTEX
8
CONTOURS_MINEURES
10
63.002
20
54.005
0
VERTEX
8
CONTOURS_MINEURES
10
62.613
20
52.616
0
VERTEX
8
CONTOURS_MINEURES
10
62.580
20
52.005
0
VERTEX
8
CONTOURS_MINEURES
10
62.580
20
50.583
0
VERTEX
8
CONTOURS_MINEURES
10
62.580
20
50.004
0
VERTEX
8
CONTOURS_MINEURES
10
62.294
20
49.710
0
VERTEX
8
CONTOURS_MINEURES
10
62.001
20
49.375
0
VERTEX
8
CONTOURS_MINEURES
10
61.372
20
49.375
0
VERTEX
8
CONTOURS_MINEURES
10
59.999
20
49.375
0
VERTEX
8
CONTOURS_MINEURES
10
59.211
20
48.790
0
VERTEX
8
CONTOURS_MINEURES
10
58.664
20
48.003
0
VERTEX
8
CONTOURS_MINEURES
10
58.664
20
46.669
0
VERTEX
8
CONTOURS_MINEURES
10
58.664
20
46.002
0
VERTEX
8
CONTOURS_MINEURES
10
58.664
20
44.668
0
VERTEX
8
CONTOURS_MINEURES
10
58.664
20
44.002
0
VERTEX
8
CONTOURS_MINEURES
10
58.350
20
43.648
0
VERTEX
8
CONTOURS_MINEURES
10
57.996
20
42.401
0
VERTEX
8
CONTOURS_MINEURES
10
56.403
20
42.401
0
VERTEX
8
CONTOURS_MINEURES
10
56.005
20
42.401
0
VERTEX
8
CONTOURS_MINEURES
10
55.605
20
42.401
0
VERTEX
8
CONTOURS_MINEURES
10
54.003
20
42.401
0
VERTEX
8
CONTOURS_MINEURES
10
53.906
20
42.098
0
VERTEX
8
CONTOURS_MINEURES
10
53.909
20
42.001
0
VERTEX
8
CONTOURS_MINEURES
10
53.909
20
40.094
0
VERTEX
8
CONTOURS_MINEURES
10
53.909
20
40.000
0
VERTEX
8
CONTOURS_MINEURES
10
53.878
20
39.875
0
VERTEX
8
CONTOURS_MINEURES
10
53.610
20
37.999
0
VERTEX
8
CONTOURS_MINEURES
10
53.610
20
36.391
0
VERTEX
8
CONTOURS_MINEURES
10
53.610
20
35.998
0
VERTEX
8
CONTOURS_MINEURES
10
52.001
20
34.655
0
VERTEX
8
CONTOURS_MINEURES
10
51.343
20
34.655
0
VERTEX
8
CONTOURS_MINEURES
10
49.999
20
34.655
0
VERTEX
8
CONTOURS_MINEURES
10
49.682
20
34.314
0
VERTEX
8
CONTOURS_MINEURES
10
48.898
20
33.998
0
VERTEX
8
CONTOURS_MINEURES
10
48.898
20
32.897
0
VERTEX
8
CONTOURS_MINEURES
10
48.898
20
31.997
0
VERTEX
8
CONTOURS_MINEURES
10
48.898
20
30.896
0
VERTEX
8
CONTOURS_MINEURES
10
48.898
20
29.996
0
VERTEX
8
CONTOURS_MINEURES
10
48.368
20
29.625
0
VERTEX
8
CONTOURS_MINEURES
10
47.997
20
29.557
0
VERTEX
8
CONTOURS_MINEURES
10
47.559
20
29.557
0
VERTEX
8
CONTOURS_MINEURES
10
46.005
20
29.557
0
VERTEX
8
CONTOURS_MINEURES
10
44.367
20
28.359
0
VERTEX
8
CONTOURS_MINEURES
10
44.003
20
28.071
0
VERTEX
8
CONTOURS_MINEURES
10
42.076
20
28.071
0
VERTEX
8
CONTOURS_MINEURES
10
42.001
20
28.071
0
VERTEX
8
CONTOURS_MINEURES
10
41.925
20
28.071
0
VERTEX
8
CONTOURS_MINEURES
10
39.999
20
28.071
0
VERTEX
8
CONTOURS_MINEURES
10
39.928
20
27.995
0
VERTEX
8
CONTOURS_MINEURES
10
39.928
20
27.925
0
VERTEX
8
CONTOURS_MINEURES
10
39.928
20
25.995
0
VERTEX
8
CONTOURS_MINEURES
10
37.997
20
24.326
0
VERTEX
8
CONTOURS_MINEURES
10
36.327
20
24.326
0
VERTEX
8
CONTOURS_MINEURES
10
36.005
20
24.326
0
VERTEX
8
CONTOURS_MINEURES
10
35.766
20
24.242
0
VERTEX
8
CONTOURS_MINEURES
10
35.378
20
24.005
0
VERTEX
8
CONTOURS_MINEURES
10
35.378
20
23.378
0
VERTEX
8
CONTOURS_MINEURES
10
35.378
20
22.004
0
VERTEX
8
CONTOURS_MINEURES
10
34.003
20
21.119
0
VERTEX
8
CONTOURS_MINEURES
10
32.887
20
21.119
0
VERTEX
8
CONTOURS_MINEURES
10
32.001
20
21.119
0
VERTEX
8
CONTOURS_MINEURES
10
31.322
20
20.682
0
VERTEX
8
CONTOURS_MINEURES
10
30.567
20
20.003
0
VERTEX
8
CONTOURS_MINEURES
10
30.567
20
19.435
0
VERTEX
8
CONTOURS_MINEURES
10
30.567
20
18.003
0
VERTEX
8
CONTOURS_MINEURES
10
30.567
20
16.570
0
VERTEX
8
CONTOURS_MINEURES
10
30.567
20
16.002
0
VERTEX
8
CONTOURS_MINEURES
10
29.999
20
15.512
0
VERTEX
8
CONTOURS_MINEURES
10
28.487
20
15.512
0
VERTEX
8
CONTOURS_MINEURES
10
27.997
20
15.512
0
VERTEX
8
CONTOURS_MINEURES
10
26.493
20
15.512
0
VERTEX
8
CONTOURS_MINEURES
10
26.005
20
15.512
0
VERTEX
8
CONTOURS_MINEURES
10
24.371
20
14.001
0
VERTEX
8
CONTOURS_MINEURES
10
24.371
20
13.633
0
VERTEX
8
CONTOURS_MINEURES
10
24.371
20
12.000
0
VERTEX
8
CONTOURS_MINEURES
10
24.003
20
11.615
0
VERTEX
8
CONTOURS_MINEURES
10
23.617
20
11.615
0
VERTEX
8
CONTOURS_MINEURES
10
22.001
20
11.615
0
VERTEX
8
CONTOURS_MINEURES
10
21.036
20
10.964
0
VERTEX
8
CONTOURS_MINEURES
10
19.999
20
10.484
0
VERTEX
8
CONTOURS_MINEURES
10
19.514
20
10.484
0
VERTEX
8
CONTOURS_MINEURES
10
17.997
20
10.484
0
VERTEX
8
CONTOURS_MINEURES
10
17.144
20
9.999
0
VERTEX
8
CONTOURS_MINEURES
10
17.144
20
8.851
0
VERTEX
8
CONTOURS_MINEURES
10
17.144
20
7.999
0
VERTEX
8
CONTOURS_MINEURES
10
17.144
20
6.850
0
VERTEX
8
CONTOURS_MINEURES
10
17.144
20
5.998
0
VERTEX
8
CONTOURS_MINEURES
10
15.995
20
4.732
0
VERTEX
8
CONTOURS_MINEURES
10
14.735
20
4.732
0
VERTEX
8
CONTOURS_MINEURES
10
14.003
20
4.732
0
VERTEX
8
CONTOURS_MINEURES
10
13.268
20
4.732
0
VERTEX
8
CONTOURS_MINEURES
10
12.001
20
4.732
0
VERTEX
8
CONTOURS_MINEURES
10
11.622
20
4.376
0
VERTEX
8
CONTOURS_MINEURES
10
11.438
20
3.997
0
VERTEX
8
CONTOURS_MINEURES
10
11.438
20
3.434
0
VERTEX
8
CONTOURS_MINEURES
10
11.438
20
1.996
0
VERTEX
8
CONTOURS_MINEURES
10
10.893
20
1.103
0
VERTEX
8
CONTOURS_MINEURES
10
9.999
20
0.580
0
VERTEX
8
CONTOURS_MINEURES
10
8.582
20
0.580
0
VERTEX
8
CONTOURS_MINEURES
10
7.997
20
0.580
0
VERTEX
8
CONTOURS_MINEURES
10
7.717
20
0.275
0
VERTEX
8
CONTOURS_MINEURES
10
7.579
20
-0.004
0
SEQEND
0
POLYLINE
8
CONTOURS_MINEURES
66
1
70
0
0
VERTEX
8
CONTOURS_MINEURES
10
77.996
20
38.702
0
VERTEX
8
CONTOURS_MINEURES
10
76.270
20
37.999
0
VERTEX
8
CONTOURS_MINEURES
10
76.270
20
37.732
0
VERTEX
8
CONTOURS_MINEURES
10
76.270
20
35.998
0
VERTEX
8
CONTOURS_MINEURES
10
76.005
20
35.665
0
VERTEX
8
CONTOURS_MINEURES
10
75.671
20
35.665
0
VERTEX
8
CONTOURS_MINEURES
10
74.003
20
35.665
0
VERTEX
8
CONTOURS_MINEURES
10
72.334
20
35.665
0
VERTEX
8
CONTOURS_MINEURES
10
72.001
20
35.665
0
VERTEX
8
CONTOURS_MINEURES
10
70.181
20
33.998
0
VERTEX
8
CONTOURS_MINEURES
10
70.181
20
32.179
0
VERTEX
8
CONTOURS_MINEURES
10
70.181
20
31.997
0
VERTEX
8
CONTOURS_MINEURES
10
70.181
20
31.815
0
VERTEX
8
CONTOURS_MINEURES
10
70.181
20
29.996
0
VERTEX
8
CONTOURS_MINEURES
10
70.038
20
29.957
0
VERTEX
8
CONTOURS_MINEURES
10
69.999
20
29.952
0
VERTEX
8
CONTOURS_MINEURES
10
68.041
20
29.952
0
VERTEX
8
CONTOURS_MINEURES
10
67.996
20
29.952
0
VERTEX
8
CONTOURS_MINEURES
10
67.879
20
29.878
0
VERTEX
8
CONTOURS_MINEURES
10
66.005
20
29.329
0
VERTEX
8
CONTOURS_MINEURES
10
65.338
20
29.329
0
VERTEX
8
CONTOURS_MINEURES
10
64.003
20
29.329
0
VERTEX
8
CONTOURS_MINEURES
10
62.610
20
27.995
0
VERTEX
8
CONTOURS_MINEURES
10
62.610
20
27.386
0
VERTEX
8
CONTOURS_MINEURES
10
62.610
20
25.995
0
VERTEX
8
CONTOURS_MINEURES
10
62.001
20
25.816
0
VERTEX
8
CONTOURS_MINEURES
10
60.178
20
25.816
0
VERTEX
8
CONTOURS_MINEURES
10
59.999
20
25.816
0
VERTEX
8
CONTOURS_MINEURES
10
59.734
20
25.732
0
VERTEX
8
CONTOURS_MINEURES
10
57.996
20
25.556
0
VERTEX
8
CONTOURS_MINEURES
10
57.558
20
25.556
0
VERTEX
8
CONTOURS_MINEURES
10
56.005
20
25.556
0
VERTEX
8
CONTOURS_MINEURES
10
54.444
20
25.556
0
VERTEX
8
CONTOURS_MINEURES
10
54.003
20
25.556
0
VERTEX
8
CONTOURS_MINEURES
10
52.628
20
25.371
0
VERTEX
8
CONTOURS_MINEURES
10
52.001
20
24.388
0
VERTEX
8
CONTOURS_MINEURES
10
50.384
20
24.388
0
VERTEX
8
CONTOURS_MINEURES
10
49.999
20
24.388
0
VERTEX
8
CONTOURS_MINEURES
10
49.755
20
24.248
0
VERTEX
8
CONTOURS_MINEURES
10
49.331
20
24.005
0
VERTEX
8
CONTOURS_MINEURES
10
49.331
20
22.671
0
VERTEX
8
CONTOURS_MINEURES
10
49.331
20
22.004
0
VERTEX
8
CONTOURS_MINEURES
10
47.997
20
21.204
0
VERTEX
8
CONTOURS_MINEURES
10
47.200
20
21.204
0
VERTEX
8
CONTOURS_MINEURES
10
46.005
20
21.204
0
VERTEX
8
CONTOURS_MINEURES
10
45.095
20
20.913
0
VERTEX
8
CONTOURS_MINEURES
10
45.004
20
20.003
0
VERTEX
8
CONTOURS_MINEURES
10
45.004
20
19.003
0
VERTEX
8
CONTOURS_MINEURES
10
45.004
20
18.003
0
VERTEX
8
CONTOURS_MINEURES
10
45.004
20
17.002
0
VERTEX
8
CONTOURS_MINEURES
10
45.004
20
16.002
0
VERTEX
8
CONTOURS_MINEURES
10
45.254
20
15.251
0
VERTEX
8
CONTOURS_MINEURES
10
44.897
20
14.001
0
VERTEX
8
CONTOURS_MINEURES
10
44.897
20
13.108
0
VERTEX
8
CONTOURS_MINEURES
10
44.897
20
12.000
0
VERTEX
8
CONTOURS_MINEURES
10
44.629
20
11.375
0
VERTEX
8
CONTOURS_MINEURES
10
44.476
20
9.999
0
VERTEX
8
CONTOURS_MINEURES
10
44.476
20
8.471
0
VERTEX
8
CONTOURS_MINEURES
10
44.476
20
7.999
0
VERTEX
8
CONTOURS_MINEURES
10
44.476
20
7.526
0
VERTEX
8
CONTOURS_MINEURES
10
44.476
20
5.998
0
VERTEX
8
CONTOURS_MINEURES
10
44.003
20
5.640
0
VERTEX
8
CONTOURS_MINEURES
10
43.645
20
5.640
0
VERTEX
8
CONTOURS_MINEURES
10
42.001
20
5.640
0
VERTEX
8
CONTOURS_MINEURES
10
40.357
20
5.640
0
VERTEX
8
CONTOURS_MINEURES
10
39.999
20
5.640
0
VERTEX
8
CONTOURS_MINEURES
10
38.566
20
5.429
0
VERTEX
8
CONTOURS_MINEURES
10
37.997
20
5.459
0
VERTEX
8
CONTOURS_MINEURES
10
37.460
20
5.459
0
VERTEX
8
CONTOURS_MINEURES
10
36.005
20
5.459
0
VERTEX
8
CONTOURS_MINEURES
10
34.712
20
4.706
0
VERTEX
8
CONTOURS_MINEURES
10
34.003
20
4.721
0
VERTEX
8
CONTOURS_MINEURES
10
33.279
20
4.721
0
VERTEX
8
CONTOURS_MINEURES
10
32.001
20
4.721
0
VERTEX
8
CONTOURS_MINEURES
10
31.000
20
4.998
0
VERTEX
8
CONTOURS_MINEURES
10
31.029
20
3.997
0
VERTEX
8
CONTOURS_MINEURES
10
31.029
20
2.968
0
VERTEX
8
CONTOURS_MINEURES
10
31.029
20
1.996
0
VERTEX
8
CONTOURS_MINEURES
10
30.194
20
1.802
0
VERTEX
8
CONTOURS_MINEURES
10
29.999
20
1.578
0
VERTEX
8
CONTOURS_MINEURES
10
29.580
20
1.578
0
VERTEX
8
CONTOURS_MINEURES
10
27.997
20
1.578
0
VERTEX
8
CONTOURS_MINEURES
10
26.422
20
1.578
0
VERTEX
8
CONTOURS_MINEURES
10
26.005
20
1.578
0
VERTEX
8
CONTOURS_MINEURES
10
24.385
20
-0.004
0
SEQEND
0
POLYLINE
8
CONTOURS_MINEURES
66
1
70
0
0
VERTEX
8
CONTOURS_MINEURES
10
77.996
20
53.085
0
VERTEX
8
CONTOURS_MINEURES
10
76.164
20
52.165
0
VERTEX
8
CONTOURS_MINEURES
10
76.005
20
52.171
0
VERTEX
8
CONTOURS_MINEURES
10
75.838
20
52.171
0
VERTEX
8
CONTOURS_MINEURES
10
74.003
20
52.171
0
VERTEX
8
CONTOURS_MINEURES
10
72.168
20
52.171
0
VERTEX
8
CONTOURS_MINEURES
10
72.001
20
52.171
0
VERTEX
8
CONTOURS_MINEURES
10
71.852
20
52.153
0
VERTEX
8
CONTOURS_MINEURES
10
71.852
20
52.005
0
VERTEX
8
CONTOURS_MINEURES
10
71.852
20
50.152
0
VERTEX
8
CONTOURS_MINEURES
10
71.852
20
50.004
0
VERTEX
8
CONTOURS_MINEURES
10
69.999
20
48.279
0
VERTEX
8
CONTOURS_MINEURES
10
68.273
20
48.279
0
VERTEX
8
CONTOURS_MINEURES
10
67.996
20
48.279
0
VERTEX
8
CONTOURS_MINEURES
10
67.893
20
48.107
0
VERTEX
8
CONTOURS_MINEURES
10
67.797
20
48.003
0
VERTEX
8
CONTOURS_MINEURES
10
67.797
20
47.803
0
VERTEX
8
CONTOURS_MINEURES
10
67.797
20
46.002
0
VERTEX
8
CONTOURS_MINEURES
10
67.797
20
45.802
0
VERTEX
8
CONTOURS_MINEURES
10
67.797
20
44.002
0
VERTEX
8
CONTOURS_MINEURES
10
67.333
20
43.335
0
VERTEX
8
CONTOURS_MINEURES
10
66.669
20
42.001
0
VERTEX
8
CONTOURS_MINEURES
10
66.669
20
41.334
0
VERTEX
8
CONTOURS_MINEURES
10
66.669
20
40.000
0
VERTEX
8
CONTOURS_MINEURES
10
67.996
20
38.666
0
VERTEX
8
CONTOURS_MINEURES
10
68.664
20
38.666
0
VERTEX
8
CONTOURS_MINEURES
10
69.999
20
38.666
0
VERTEX
8
CONTOURS_MINEURES
10
70.666
20
38.666
0
VERTEX
8
CONTOURS_MINEURES
10
72.001
20
38.222
0
VERTEX
8
CONTOURS_MINEURES
10
73.780
20
38.222
0
VERTEX
8
CONTOURS_MINEURES
10
74.003
20
38.222
0
VERTEX
8
CONTOURS_MINEURES
10
75.782
20
38.222
0
VERTEX
8
CONTOURS_MINEURES
10
76.005
20
38.222
0
VERTEX
8
CONTOURS_MINEURES
10
76.801
20
40.000
0
VERTEX
8
CONTOURS_MINEURES
10
76.801
20
41.200
0
VERTEX
8
CONTOURS_MINEURES
10
76.801
20
42.001
0
VERTEX
8
CONTOURS_MINEURES
10
77.230
20
43.232
0
VERTEX
8
CONTOURS_MINEURES
10
77.200
20
44.002
0
VERTEX
8
CONTOURS_MINEURES
10
77.200
20
44.802
0
VERTEX
8
CONTOURS_MINEURES
10
77.200
20
46.002
0
VERTEX
8
CONTOURS_MINEURES
10
77.200
20
46.803
0
VERTEX
8
CONTOURS_MINEURES
10
77.200
20
48.003
0
VERTEX
8
CONTOURS_MINEURES
10
77.996
20
48.544
0
SEQEND
0
POLYLINE
8
CONTOURS_MINEURES
66
1
70
0
0
VERTEX
8
CONTOURS_MINEURES
10
77.996
20
15.001
0
VERTEX
8
CONTOURS_MINEURES
10
76.934
20
15.068
0
VERTEX
8
CONTOURS_MINEURES
10
76.005
20
15.442
0
VERTEX
8
CONTOURS_MINEURES
10
75.444
20
15.442
0
VERTEX
8
CONTOURS_MINEURES
10
74.003
20
15.442
0
VERTEX
8
CONTOURS_MINEURES
10
72.561
20
15.442
0
VERTEX
8
CONTOURS_MINEURES
10
72.001
20
15.442
0
VERTEX
8
CONTOURS_MINEURES
10
71.517
20
15.519
0
VERTEX
8
CONTOURS_MINEURES
10
70.923
20
16.002
0
VERTEX
8
CONTOURS_MINEURES
10
70.923
20
17.079
0
VERTEX
8
CONTOURS_MINEURES
10
70.923
20
18.003
0
VERTEX
8
CONTOURS_MINEURES
10
70.923
20
18.926
0
VERTEX
8
CONTOURS_MINEURES
10
70.923
20
20.003
0
VERTEX
8
CONTOURS_MINEURES
10
70.443
20
20.448
0
VERTEX
8
CONTOURS_MINEURES
10
69.999
20
20.604
0
VERTEX
8
CONTOURS_MINEURES
10
68.597
20
20.604
0
VERTEX
8
CONTOURS_MINEURES
10
67.996
20
20.604
0
VERTEX
8
CONTOURS_MINEURES
10
67.143
20
20.861
0
VERTEX
8
CONTOURS_MINEURES
10
66.005
20
21.640
0
VERTEX
8
CONTOURS_MINEURES
10
65.641
20
21.640
0
VERTEX
8
CONTOURS_MINEURES
10
64.003
20
21.640
0
VERTEX
8
CONTOURS_MINEURES
10
63.767
20
21.769
0
VERTEX
8
CONTOURS_MINEURES
10
62.001
20
21.352
0
VERTEX
8
CONTOURS_MINEURES
10
60.651
20
21.352
0
VERTEX
8
CONTOURS_MINEURES
10
59.999
20
21.352
0
VERTEX
8
CONTOURS_MINEURES
10
59.235
20
21.241
0
VERTEX
8
CONTOURS_MINEURES
10
57.996
20
20.934
0
VERTEX
8
CONTOURS_MINEURES
10
57.070
20
20.934
0
VERTEX
8
CONTOURS_MINEURES
10
56.005
20
20.934
0
VERTEX
8
CONTOURS_MINEURES
10
54.935
20
20.934
0
VERTEX
8
CONTOURS_MINEURES
10
54.003
20
20.934
0
VERTEX
8
CONTOURS_MINEURES
10
52.678
20
20.003
0
VERTEX
8
CONTOURS_MINEURES
10
52.678
20
19.327
0
VERTEX
8
CONTOURS_MINEURES
10
52.678
20
18.003
0
VERTEX
8
CONTOURS_MINEURES
10
52.678
20
17.326
0
VERTEX
8
CONTOURS_MINEURES
10
52.678
20
16.002
0
VERTEX
8
CONTOURS_MINEURES
10
52.001
20
15.060
0
VERTEX
8
CONTOURS_MINEURES
10
50.941
20
15.060
0
VERTEX
8
CONTOURS_MINEURES
10
49.999
20
15.060
0
VERTEX
8
CONTOURS_MINEURES
10
49.436
20
14.001
0
VERTEX
8
CONTOURS_MINEURES
10
49.436
20
12.563
0
VERTEX
8
CONTOURS_MINEURES
10
49.436
20
12.000
0
VERTEX
8
CONTOURS_MINEURES
10
49.248
20
11.250
0
VERTEX
8
CONTOURS_MINEURES
10
48.935
20
9.999
0
VERTEX
8
CONTOURS_MINEURES
10
48.935
20
9.062
0
VERTEX
8
CONTOURS_MINEURES
10
48.935
20
7.999
0
VERTEX
8
CONTOURS_MINEURES
10
48.935
20
7.061
0
VERTEX
8
CONTOURS_MINEURES
10
48.935
20
5.998
0
VERTEX
8
CONTOURS_MINEURES
10
47.997
20
4.813
0
VERTEX
8
CONTOURS_MINEURES
10
47.184
20
4.813
0
VERTEX
8
CONTOURS_MINEURES
10
46.005
20
4.813
0
VERTEX
8
CONTOURS_MINEURES
10
44.834
20
3.997
0
VERTEX
8
CONTOURS_MINEURES
10
44.834
20
2.827
0
VERTEX
8
CONTOURS_MINEURES
10
44.834
20
1.996
0
VERTEX
8
CONTOURS_MINEURES
10
44.268
20
1.731
0
VERTEX
8
CONTOURS_MINEURES
10
44.003
20
1.697
0
VERTEX
8
CONTOURS_MINEURES
10
43.703
20
1.697
0
VERTEX
8
CONTOURS_MINEURES
10
42.001
20
1.697
0
VERTEX
8
CONTOURS_MINEURES
10
40.298
20
1.697
0
VERTEX
8
CONTOURS_MINEURES
10
39.999
20
1.697
0
VERTEX
8
CONTOURS_MINEURES
10
38.224
20
1.769
0
VERTEX
8
CONTOURS_MINEURES
10
37.997
20
1.761
0
VERTEX
8
CONTOURS_MINEURES
10
36.240
20
1.761
0
VERTEX
8
CONTOURS_MINEURES
10
36.005
20
1.761
0
VERTEX
8
CONTOURS_MINEURES
10
35.619
20
1.611
0
VERTEX
8
CONTOURS_MINEURES
10
34.003
20
0.889
0
VERTEX
8
CONTOURS_MINEURES
10
33.109
20
0.889
0
VERTEX
8
CONTOURS_MINEURES
10
32.001
20
0.889
0
VERTEX
8
CONTOURS_MINEURES
10
31.276
20
0.720
0
VERTEX
8
CONTOURS_MINEURES
10
30.646
20
-0.004
0
SEQEND
0
POLYLINE
8
CONTOURS_MINEURES
66
1
70
0
0
VERTEX
8
CONTOURS_MINEURES
10
77.996
20
5.313
0
VERTEX
8
CONTOURS_MINEURES
10
77.148
20
5.145
0
VERTEX
8
CONTOURS_MINEURES
10
76.005
20
5.109
0
VERTEX
8
CONTOURS_MINEURES
10
74.893
20
5.109
0
VERTEX
8
CONTOURS_MINEURES
10
74.003
20
5.109
0
VERTEX
8
CONTOURS_MINEURES
10
72.891
20
5.109
0
VERTEX
8
CONTOURS_MINEURES
10
72.001
20
5.109
0
VERTEX
8
CONTOURS_MINEURES
10
70.879
20
4.877
0
VERTEX
8
CONTOURS_MINEURES
10
69.999
20
4.743
0
VERTEX
8
CONTOURS_MINEURES
10
68.743
20
4.743
0
VERTEX
8
CONTOURS_MINEURES
10
67.996
20
4.743
0
VERTEX
8
CONTOURS_MINEURES
10
66.461
20
4.456
0
VERTEX
8
CONTOURS_MINEURES
10
66.005
20
4.486
0
VERTEX
8
CONTOURS_MINEURES
10
65.516
20
4.486
0
VERTEX
8
CONTOURS_MINEURES
10
64.003
20
4.486
0
VERTEX
8
CONTOURS_MINEURES
10
63.408
20
4.592
0
VERTEX
8
CONTOURS_MINEURES
10
62.001
20
4.936
0
VERTEX
8
CONTOURS_MINEURES
10
61.061
20
4.936
0
VERTEX
8
CONTOURS_MINEURES
10
59.999
20
4.936
0
VERTEX
8
CONTOURS_MINEURES
10
58.818
20
5.177
0
VERTEX
8
CONTOURS_MINEURES
10
57.996
20
5.382
0
VERTEX
8
CONTOURS_MINEURES
10
56.618
20
5.382
0
VERTEX
8
CONTOURS_MINEURES
10
56.005
20
5.382
0
VERTEX
8
CONTOURS_MINEURES
10
55.389
20
5.382
0
VERTEX
8
CONTOURS_MINEURES
10
54.003
20
5.382
0
VERTEX
8
CONTOURS_MINEURES
10
53.155
20
4.845
0
VERTEX
8
CONTOURS_MINEURES
10
52.106
20
3.997
0
VERTEX
8
CONTOURS_MINEURES
10
52.106
20
3.892
0
VERTEX
8
CONTOURS_MINEURES
10
52.106
20
1.996
0
VERTEX
8
CONTOURS_MINEURES
10
52.001
20
1.924
0
VERTEX
8
CONTOURS_MINEURES
10
51.928
20
1.924
0
VERTEX
8
CONTOURS_MINEURES
10
49.999
20
1.924
0
VERTEX
8
CONTOURS_MINEURES
10
49.129
20
0.865
0
VERTEX
8
CONTOURS_MINEURES
10
47.997
20
0.775
0
VERTEX
8
CONTOURS_MINEURES
10
46.781
20
0.775
0
VERTEX
8
CONTOURS_MINEURES
10
46.005
20
0.775
0
VERTEX
8
CONTOURS_MINEURES
10
45.474
20
0.526
0
VERTEX
8
CONTOURS_MINEURES
10
44.003
20
0.336
0
VERTEX
8
CONTOURS_MINEURES
10
42.341
20
0.336
0
VERTEX
8
CONTOURS_MINEURES
10
42.001
20
0.336
0
VERTEX
8
CONTOURS_MINEURES
10
41.660
20
0.336
0
VERTEX
8
CONTOURS_MINEURES
10
39.999
20
0.336
0
VERTEX
8
CONTOURS_MINEURES
10
39.644
20
0.350
0
VERTEX
8
CONTOURS_MINEURES
10
37.997
20
0.290
0
VERTEX
8
CONTOURS_MINEURES
10
37.704
20
0.290
0
VERTEX
8
CONTOURS_MINEURES
10
36.005
20
0.290
0
VERTEX
8
CONTOURS_MINEURES
10
35.250
20
-0.004
0
SEQEND
0
POLYLINE
8
CONTOURS_MINEURES
66
1
70
0
0
VERTEX
8
CONTOURS_MINEURES
10
77.996
20
0.383
0
VERTEX
8
CONTOURS_MINEURES
10
76.739
20
-0.004
0
SEQEND
0
POLYLINE
8
CONTOURS_MAJEURES
66
1
70
0
0
VERTEX
8
CONTOURS_MAJEURES
10
-0.001
20
53.225
0
VERTEX
8
CONTOURS_MAJEURES
10
1.220
20
53.225
0
VERTEX
8
CONTOURS_MAJEURES
10
2.001
20
53.225
0
VERTEX
8
CONTOURS_MAJEURES
10
2.651
20
52.005
0
VERTEX
8
CONTOURS_MAJEURES
10
2.651
20
50.653
0
VERTEX
8
CONTOURS_MAJEURES
10
2.651
20
50.004
0
VERTEX
8
CONTOURS_MAJEURES
10
2.534
20
49.472
0
VERTEX
8
CONTOURS_MAJEURES
10
2.001
20
48.441
0
VERTEX
8
CONTOURS_MAJEURES
10
1.563
20
48.441
0
VERTEX
8
CONTOURS_MAJEURES
10
-0.001
20
48.441
0
SEQEND
0
POLYLINE
8
CONTOURS_MAJEURES
66
1
70
0
0
VERTEX
8
CONTOURS_MAJEURES
10
10.831
20
70.001
0
VERTEX
8
CONTOURS_MAJEURES
10
10.831
20
69.169
0
VERTEX
8
CONTOURS_MAJEURES
10
10.831
20
68.000
0
VERTEX
8
CONTOURS_MAJEURES
10
9.999
20
66.638
0
VERTEX
8
CONTOURS_MAJEURES
10
9.360
20
66.638
0
VERTEX
8
CONTOURS_MAJEURES
10
7.997
20
66.638
0
VERTEX
8
CONTOURS_MAJEURES
10
7.384
20
65.999
0
VERTEX
8
CONTOURS_MAJEURES
10
7.384
20
64.611
0
VERTEX
8
CONTOURS_MAJEURES
10
7.384
20
63.998
0
VERTEX
8
CONTOURS_MAJEURES
10
5.995
20
63.331
0
VERTEX
8
CONTOURS_MAJEURES
10
4.667
20
63.331
0
VERTEX
8
CONTOURS_MAJEURES
10
4.003
20
63.331
0
VERTEX
8
CONTOURS_MAJEURES
10
3.216
20
62.784
0
VERTEX
8
CONTOURS_MAJEURES
10
2.383
20
61.997
0
VERTEX
8
CONTOURS_MAJEURES
10
2.383
20
60.378
0
VERTEX
8
CONTOURS_MAJEURES
10
2.383
20
59.997
0
VERTEX
8
CONTOURS_MAJEURES
10
2.383
20
59.616
0
VERTEX
8
CONTOURS_MAJEURES
10
2.383
20
57.996
0
VERTEX
8
CONTOURS_MAJEURES
10
2.361
20
57.636
0
VERTEX
8
CONTOURS_MAJEURES
10
2.001
20
56.996
0
VERTEX
8
CONTOURS_MAJEURES
10
1.000
20
56.996
0
VERTEX
8
CONTOURS_MAJEURES
10
-0.001
20
56.996
0
SEQEND
0
POLYLINE
8
CONTOURS_MAJEURES
66
1
70
0
0
VERTEX
8
CONTOURS_MAJEURES
10
77.996
20
67.218
0
VERTEX
8
CONTOURS_MAJEURES
10
77.019
20
67.018
0
VERTEX
8
CONTOURS_MAJEURES
10
76.005
20
66.799
0
VERTEX
8
CONTOURS_MAJEURES
10
75.204
20
66.799
0
VERTEX
8
CONTOURS_MAJEURES
10
74.003
20
66.799
0
VERTEX
8
CONTOURS_MAJEURES
10
73.202
20
66.799
0
VERTEX
8
CONTOURS_MAJEURES
10
72.001
20
66.799
0
VERTEX
8
CONTOURS_MAJEURES
10
70.426
20
66.426
0
VERTEX
8
CONTOURS_MAJEURES
10
69.999
20
66.369
0
VERTEX
8
CONTOURS_MAJEURES
10
69.628
20
66.369
0
VERTEX
8
CONTOURS_MAJEURES
10
67.996
20
66.369
0
VERTEX
8
CONTOURS_MAJEURES
10
67.254
20
65.999
0
VERTEX
8
CONTOURS_MAJEURES
10
67.254
20
65.253
0
VERTEX
8
CONTOURS_MAJEURES
10
67.254
20
63.998
0
VERTEX
8
CONTOURS_MAJEURES
10
66.005
20
63.501
0
VERTEX
8
CONTOURS_MAJEURES
10
64.500
20
63.501
0
VERTEX
8
CONTOURS_MAJEURES
10
64.003
20
63.501
0
VERTEX
8
CONTOURS_MAJEURES
10
62.413
20
63.587
0
VERTEX
8
CONTOURS_MAJEURES
10
62.001
20
63.331
0
VERTEX
8
CONTOURS_MAJEURES
10
61.333
20
63.331
0
VERTEX
8
CONTOURS_MAJEURES
10
59.999
20
63.331
0
VERTEX
8
CONTOURS_MAJEURES
10
58.679
20
62.680
0
VERTEX
8
CONTOURS_MAJEURES
10
57.996
20
62.998
0
VERTEX
8
CONTOURS_MAJEURES
10
57.001
20
62.998
0
VERTEX
8
CONTOURS_MAJEURES
10
56.005
20
62.998
0
VERTEX
8
CONTOURS_MAJEURES
10
55.004
20
62.998
0
VERTEX
8
CONTOURS_MAJEURES
10
54.003
20
62.998
0
VERTEX
8
CONTOURS_MAJEURES
10
53.377
20
61.997
0
VERTEX
8
CONTOURS_MAJEURES
10
53.377
20
60.622
0
VERTEX
8
CONTOURS_MAJEURES
10
53.377
20
59.997
0
VERTEX
8
CONTOURS_MAJEURES
10
53.377
20
59.371
0
VERTEX
8
CONTOURS_MAJEURES
10
53.377
20
57.996
0
VERTEX
8
CONTOURS_MAJEURES
10
52.001
20
56.495
0
VERTEX
8
CONTOURS_MAJEURES
10
51.500
20
56.495
0
VERTEX
8
CONTOURS_MAJEURES
10
49.999
20
56.495
0
VERTEX
8
CONTOURS_MAJEURES
10
49.638
20
55.995
0
VERTEX
8
CONTOURS_MAJEURES
10
49.638
20
54.364
0
VERTEX
8
CONTOURS_MAJEURES
10
49.638
20
54.005
0
VERTEX
8
CONTOURS_MAJEURES
10
49.331
20
53.338
0
VERTEX
8
CONTOURS_MAJEURES
10
48.743
20
52.005
0
VERTEX
8
CONTOURS_MAJEURES
10
48.743
20
51.259
0
VERTEX
8
CONTOURS_MAJEURES
10
48.743
20
50.004
0
VERTEX
8
CONTOURS_MAJEURES
10
48.764
20
48.770
0
VERTEX
8
CONTOURS_MAJEURES
10
48.716
20
48.003
0
VERTEX
8
CONTOURS_MAJEURES
10
48.716
20
46.721
0
VERTEX
8
CONTOURS_MAJEURES
10
48.716
20
46.002
0
VERTEX
8
CONTOURS_MAJEURES
10
48.716
20
45.283
0
VERTEX
8
CONTOURS_MAJEURES
10
48.716
20
44.002
0
VERTEX
8
CONTOURS_MAJEURES
10
48.739
20
43.259
0
VERTEX
8
CONTOURS_MAJEURES
10
48.867
20
42.001
0
VERTEX
8
CONTOURS_MAJEURES
10
48.867
20
40.870
0
VERTEX
8
CONTOURS_MAJEURES
10
48.867
20
40.000
0
VERTEX
8
CONTOURS_MAJEURES
10
48.703
20
39.294
0
VERTEX
8
CONTOURS_MAJEURES
10
48.469
20
37.999
0
VERTEX
8
CONTOURS_MAJEURES
10
48.469
20
36.471
0
VERTEX
8
CONTOURS_MAJEURES
10
48.469
20
35.998
0
VERTEX
8
CONTOURS_MAJEURES
10
48.241
20
35.754
0
VERTEX
8
CONTOURS_MAJEURES
10
47.997
20
35.655
0
VERTEX
8
CONTOURS_MAJEURES
10
47.655
20
35.655
0
VERTEX
8
CONTOURS_MAJEURES
10
46.005
20
35.655
0
VERTEX
8
CONTOURS_MAJEURES
10
44.932
20
35.070
0
VERTEX
8
CONTOURS_MAJEURES
10
44.051
20
33.998
0
VERTEX
8
CONTOURS_MAJEURES
10
44.051
20
32.045
0
VERTEX
8
CONTOURS_MAJEURES
10
44.051
20
31.997
0
VERTEX
8
CONTOURS_MAJEURES
10
44.051
20
31.949
0
VERTEX
8
CONTOURS_MAJEURES
10
44.051
20
29.996
0
VERTEX
8
CONTOURS_MAJEURES
10
44.003
20
29.958
0
VERTEX
8
CONTOURS_MAJEURES
10
43.965
20
29.958
0
VERTEX
8
CONTOURS_MAJEURES
10
42.001
20
29.958
0
VERTEX
8
CONTOURS_MAJEURES
10
40.037
20
29.958
0
VERTEX
8
CONTOURS_MAJEURES
10
39.999
20
29.958
0
VERTEX
8
CONTOURS_MAJEURES
10
38.156
20
27.995
0
VERTEX
8
CONTOURS_MAJEURES
10
38.156
20
26.154
0
VERTEX
8
CONTOURS_MAJEURES
10
38.156
20
25.995
0
VERTEX
8
CONTOURS_MAJEURES
10
37.997
20
25.857
0
VERTEX
8
CONTOURS_MAJEURES
10
37.859
20
25.857
0
VERTEX
8
CONTOURS_MAJEURES
10
36.005
20
25.857
0
VERTEX
8
CONTOURS_MAJEURES
10
34.629
20
25.373
0
VERTEX
8
CONTOURS_MAJEURES
10
34.003
20
24.991
0
VERTEX
8
CONTOURS_MAJEURES
10
33.011
20
24.991
0
VERTEX
8
CONTOURS_MAJEURES
10
32.001
20
24.991
0
VERTEX
8
CONTOURS_MAJEURES
10
30.387
20
24.005
0
VERTEX
8
CONTOURS_MAJEURES
10
30.387
20
22.392
0
VERTEX
8
CONTOURS_MAJEURES
10
30.387
20
22.004
0
VERTEX
8
CONTOURS_MAJEURES
10
30.151
20
21.852
0
VERTEX
8
CONTOURS_MAJEURES
10
29.999
20
21.715
0
VERTEX
8
CONTOURS_MAJEURES
10
29.710
20
21.715
0
VERTEX
8
CONTOURS_MAJEURES
10
27.997
20
21.715
0
VERTEX
8
CONTOURS_MAJEURES
10
26.293
20
21.715
0
VERTEX
8
CONTOURS_MAJEURES
10
26.005
20
21.715
0
VERTEX
8
CONTOURS_MAJEURES
10
24.710
20
21.298
0
VERTEX
8
CONTOURS_MAJEURES
10
24.003
20
20.289
0
VERTEX
8
CONTOURS_MAJEURES
10
22.287
20
20.289
0
VERTEX
8
CONTOURS_MAJEURES
10
22.001
20
20.289
0
VERTEX
8
CONTOURS_MAJEURES
10
21.518
20
20.003
0
VERTEX
8
CONTOURS_MAJEURES
10
21.518
20
18.485
0
VERTEX
8
CONTOURS_MAJEURES
10
21.518
20
18.003
0
VERTEX
8
CONTOURS_MAJEURES
10
21.518
20
16.485
0
VERTEX
8
CONTOURS_MAJEURES
10
21.518
20
16.002
0
VERTEX
8
CONTOURS_MAJEURES
10
20.414
20
15.587
0
VERTEX
8
CONTOURS_MAJEURES
10
19.999
20
15.121
0
VERTEX
8
CONTOURS_MAJEURES
10
18.878
20
15.121
0
VERTEX
8
CONTOURS_MAJEURES
10
17.997
20
15.121
0
VERTEX
8
CONTOURS_MAJEURES
10
16.620
20
14.626
0
VERTEX
8
CONTOURS_MAJEURES
10
15.995
20
14.334
0
VERTEX
8
CONTOURS_MAJEURES
10
14.335
20
14.334
0
VERTEX
8
CONTOURS_MAJEURES
10
14.003
20
14.334
0
VERTEX
8
CONTOURS_MAJEURES
10
13.670
20
14.334
0
VERTEX
8
CONTOURS_MAJEURES
10
12.001
20
14.334
0
VERTEX
8
CONTOURS_MAJEURES
10
11.260
20
14.001
0
VERTEX
8
CONTOURS_MAJEURES
10
11.260
20
12.741
0
VERTEX
8
CONTOURS_MAJEURES
10
11.260
20
12.000
0
VERTEX
8
CONTOURS_MAJEURES
10
10.395
20
11.605
0
VERTEX
8
CONTOURS_MAJEURES
10
9.999
20
11.150
0
VERTEX
8
CONTOURS_MAJEURES
10
8.848
20
11.150
0
VERTEX
8
CONTOURS_MAJEURES
10
7.997
20
11.150
0
VERTEX
8
CONTOURS_MAJEURES
10
7.288
20
9.999
0
VERTEX
8
CONTOURS_MAJEURES
10
7.288
20
9.291
0
VERTEX
8
CONTOURS_MAJEURES
10
7.288
20
7.999
0
VERTEX
8
CONTOURS_MAJEURES
10
7.288
20
6.706
0
VERTEX
8
CONTOURS_MAJEURES
10
7.288
20
5.998
0
VERTEX
8
CONTOURS_MAJEURES
10
6.846
20
4.847
0
VERTEX
8
CONTOURS_MAJEURES
10
6.474
20
3.997
0
VERTEX
8
CONTOURS_MAJEURES
10
6.474
20
2.475
0
VERTEX
8
CONTOURS_MAJEURES
10
6.474
20
1.996
0
VERTEX
8
CONTOURS_MAJEURES
10
6.245
20
1.746
0
VERTEX
8
CONTOURS_MAJEURES
10
5.995
20
1.241
0
VERTEX
8
CONTOURS_MAJEURES
10
5.242
20
1.241
0
VERTEX
8
CONTOURS_MAJEURES
10
4.003
20
1.241
0
VERTEX
8
CONTOURS_MAJEURES
10
3.214
20
-0.004
0
SEQEND
0
POLYLINE
8
CONTOURS_MAJEURES
66
1
70
0
0
VERTEX
8
CONTOURS_MAJEURES
10
77.996
20
0.383
0
VERTEX
8
CONTOURS_MAJEURES
10
76.739
20
-0.004
0
SEQEND
0
POLYLINE
8
PARCELLE
66
1
70
1
0
VERTEX
8
PARCELLE
10
38.300
20
20.000
0
VERTEX
8
PARCELLE
10
31.928
20
26.349
0
VERTEX
8
PARCELLE
10
28.024
20
30.239
0
VERTEX
8
PARCELLE
10
20.000
20
38.442
0
VERTEX
8
PARCELLE
10
40.174
20
51.060
0
VERTEX
8
PARCELLE
10
58.351
20
33.338
0
VERTEX
8
PARCELLE
10
46.566
20
25.491
0
VERTEX
8
PARCELLE
10
38.300
20
20.000
0
SEQEND
0
TEXT
8
POINTS_COTES
10
-0.001
20
-0.004
40
1.0
1
74.6
0
TEXT
8
POINTS_COTES
10
64.003
20
1.996
40
1.0
1
79.1
0
TEXT
8
POINTS_COTES
10
47.997
20
5.998
40
1.0
1
77.5
0
TEXT
8
POINTS_COTES
10
32.001
20
9.999
40
1.0
1
76.7
0
TEXT
8
POINTS_COTES
10
15.995
20
14.001
40
1.0
1
75.1
0
TEXT
8
POINTS_COTES
10
-0.001
20
18.003
40
1.0
1
73.7
0
TEXT
8
POINTS_COTES
10
64.003
20
20.003
40
1.0
1
78.4
0
TEXT
8
POINTS_COTES
10
47.997
20
24.005
40
1.0
1
76.9
0
TEXT
8
POINTS_COTES
10
32.001
20
27.995
40
1.0
1
74.5
0
TEXT
8
POINTS_COTES
10
15.995
20
31.997
40
1.0
1
73.2
0
TEXT
8
POINTS_COTES
10
-0.001
20
35.998
40
1.0
1
72.5
0
TEXT
8
POINTS_COTES
10
64.003
20
37.999
40
1.0
1
77.0
0
TEXT
8
POINTS_COTES
10
47.997
20
42.001
40
1.0
1
74.7
0
TEXT
8
POINTS_COTES
10
32.001
20
46.002
40
1.0
1
73.8
0
TEXT
8
POINTS_COTES
10
15.995
20
50.004
40
1.0
1
72.0
0
TEXT
8
POINTS_COTES
10
-0.001
20
54.005
40
1.0
1
70.2
0
TEXT
8
POINTS_COTES
10
64.003
20
55.995
40
1.0
1
76.2
0
TEXT
8
POINTS_COTES
10
47.997
20
59.997
40
1.0
1
74.2
0
TEXT
8
POINTS_COTES
10
32.001
20
63.998
40
1.0
1
72.9
0
TEXT
8
POINTS_COTES
10
15.995
20
68.000
40
1.0
1
70.5
0
ENDSEC
0
EOF
