0
SECTION
2
HEADER
0
ENDSEC
0
SECTION
2
TABLES
0
TABLE
2
LAYER
70
4
0
LAYER
2
CONTOURS_MINEURES
70
0
62
8
6
CONTINUOUS
0
LAYER
2
CONTOURS_MAJEURES
70
0
62
3
6
CONTINUOUS
0
LAYER
2
PARCELLE
70
0
62
4
6
CONTINUOUS
0
LAYER
2
POINTS_COTES
70
0
62
7
6
CONTINUOUS
0
ENDTAB
0
ENDSEC
0
SECTION
2
ENTITIES
0
POLYLINE
8
CONTOURS_MINEURES
66
1
70
0
0
VERTEX
8
CONTOURS_MINEURES
10
166.667
20
85.003
0
VERTEX
8
CONTOURS_MINEURES
10
165.001
20
84.071
0
VERTEX
8
CONTOURS_MINEURES
10
161.819
20
83.182
0
VERTEX
8
CONTOURS_MINEURES
10
160.001
20
82.560
0
VERTEX
8
CONTOURS_MINEURES
10
155.228
20
79.996
0
VERTEX
8
CONTOURS_MINEURES
10
155.001
20
79.440
0
VERTEX
8
CONTOURS_MINEURES
10
153.183
20
76.816
0
VERTEX
8
CONTOURS_MINEURES
10
152.144
20
74.999
0
VERTEX
8
CONTOURS_MINEURES
10
150.001
20
74.000
0
VERTEX
8
CONTOURS_MINEURES
10
146.924
20
73.077
0
VERTEX
8
CONTOURS_MINEURES
10
145.001
20
72.795
0
VERTEX
8
CONTOURS_MINEURES
10
142.626
20
72.376
0
VERTEX
8
CONTOURS_MINEURES
10
140.001
20
72.615
0
VERTEX
8
CONTOURS_MINEURES
10
137.768
20
72.767
0
VERTEX
8
CONTOURS_MINEURES
10
135.002
20
73.096
0
VERTEX
8
CONTOURS_MINEURES
10
130.668
20
74.333
0
VERTEX
8
CONTOURS_MINEURES
10
130.002
20
74.500
0
VERTEX
8
CONTOURS_MINEURES
10
129.557
20
74.555
0
VERTEX
8
CONTOURS_MINEURES
10
128.002
20
74.999
0
VERTEX
8
CONTOURS_MINEURES
10
125.002
20
75.966
0
VERTEX
8
CONTOURS_MINEURES
10
121.326
20
76.322
0
VERTEX
8
CONTOURS_MINEURES
10
120.002
20
77.043
0
VERTEX
8
CONTOURS_MINEURES
10
115.940
20
75.936
0
VERTEX
8
CONTOURS_MINEURES
10
115.002
20
75.881
0
VERTEX
8
CONTOURS_MINEURES
10
113.931
20
76.070
0
VERTEX
8
CONTOURS_MINEURES
10
110.002
20
76.332
0
VERTEX
8
CONTOURS_MINEURES
10
106.947
20
76.942
0
VERTEX
8
CONTOURS_MINEURES
10
105.003
20
77.497
0
VERTEX
8
CONTOURS_MINEURES
10
100.628
20
79.371
0
VERTEX
8
CONTOURS_MINEURES
10
100.003
20
79.371
0
VERTEX
8
CONTOURS_MINEURES
10
99.503
20
79.496
0
VERTEX
8
CONTOURS_MINEURES
10
95.003
20
79.496
0
VERTEX
8
CONTOURS_MINEURES
10
90.003
20
79.996
0
VERTEX
8
CONTOURS_MINEURES
10
86.253
20
81.247
0
VERTEX
8
CONTOURS_MINEURES
10
85.003
20
82.857
0
VERTEX
8
CONTOURS_MINEURES
10
83.753
20
83.751
0
VERTEX
8
CONTOURS_MINEURES
10
80.003
20
84.502
0
VERTEX
8
CONTOURS_MINEURES
10
79.726
20
84.725
0
VERTEX
8
CONTOURS_MINEURES
10
75.004
20
84.252
0
VERTEX
8
CONTOURS_MINEURES
10
70.956
20
84.049
0
VERTEX
8
CONTOURS_MINEURES
10
70.004
20
84.202
0
VERTEX
8
CONTOURS_MINEURES
10
69.051
20
85.003
0
SEQEND
0
POLYLINE
8
CONTOURS_MINEURES
66
1
70
0
0
VERTEX
8
CONTOURS_MINEURES
10
200.000
20
76.248
0
VERTEX
8
CONTOURS_MINEURES
10
196.250
20
76.248
0
VERTEX
8
CONTOURS_MINEURES
10
195.000
20
75.908
0
VERTEX
8
CONTOURS_MINEURES
10
193.571
20
76.427
0
VERTEX
8
CONTOURS_MINEURES
10
190.000
20
78.608
0
VERTEX
8
CONTOURS_MINEURES
10
188.333
20
79.996
0
VERTEX
8
CONTOURS_MINEURES
10
187.174
20
82.173
0
VERTEX
8
CONTOURS_MINEURES
10
185.000
20
81.922
0
VERTEX
8
CONTOURS_MINEURES
10
183.214
20
81.784
0
VERTEX
8
CONTOURS_MINEURES
10
180.000
20
79.996
0
VERTEX
8
CONTOURS_MINEURES
10
178.572
20
76.427
0
VERTEX
8
CONTOURS_MINEURES
10
178.000
20
74.999
0
VERTEX
8
CONTOURS_MINEURES
10
176.915
20
73.086
0
VERTEX
8
CONTOURS_MINEURES
10
175.000
20
70.266
0
VERTEX
8
CONTOURS_MINEURES
10
174.896
20
70.107
0
VERTEX
8
CONTOURS_MINEURES
10
174.750
20
70.003
0
VERTEX
8
CONTOURS_MINEURES
10
172.262
20
67.737
0
VERTEX
8
CONTOURS_MINEURES
10
170.001
20
67.030
0
VERTEX
8
CONTOURS_MINEURES
10
165.870
20
65.866
0
VERTEX
8
CONTOURS_MINEURES
10
165.001
20
65.766
0
VERTEX
8
CONTOURS_MINEURES
10
164.546
20
65.451
0
VERTEX
8
CONTOURS_MINEURES
10
163.462
20
64.995
0
VERTEX
8
CONTOURS_MINEURES
10
160.001
20
61.783
0
VERTEX
8
CONTOURS_MINEURES
10
158.959
20
61.040
0
VERTEX
8
CONTOURS_MINEURES
10
157.728
20
59.999
0
VERTEX
8
CONTOURS_MINEURES
10
155.001
20
57.693
0
VERTEX
8
CONTOURS_MINEURES
10
153.479
20
55.002
0
VERTEX
8
CONTOURS_MINEURES
10
152.106
20
52.894
0
VERTEX
8
CONTOURS_MINEURES
10
150.001
20
51.361
0
VERTEX
8
CONTOURS_MINEURES
10
145.557
20
50.551
0
VERTEX
8
CONTOURS_MINEURES
10
145.001
20
50.430
0
VERTEX
8
CONTOURS_MINEURES
10
142.501
20
52.499
0
VERTEX
8
CONTOURS_MINEURES
10
140.001
20
53.088
0
VERTEX
8
CONTOURS_MINEURES
10
136.581
20
55.002
0
VERTEX
8
CONTOURS_MINEURES
10
136.002
20
56.002
0
VERTEX
8
CONTOURS_MINEURES
10
135.002
20
56.306
0
VERTEX
8
CONTOURS_MINEURES
10
132.694
20
57.309
0
VERTEX
8
CONTOURS_MINEURES
10
130.002
20
58.654
0
VERTEX
8
CONTOURS_MINEURES
10
128.908
20
58.906
0
VERTEX
8
CONTOURS_MINEURES
10
125.002
20
59.464
0
VERTEX
8
CONTOURS_MINEURES
10
121.214
20
58.788
0
VERTEX
8
CONTOURS_MINEURES
10
120.002
20
58.947
0
VERTEX
8
CONTOURS_MINEURES
10
118.891
20
58.889
0
VERTEX
8
CONTOURS_MINEURES
10
115.002
20
59.000
0
VERTEX
8
CONTOURS_MINEURES
10
114.081
20
59.079
0
VERTEX
8
CONTOURS_MINEURES
10
110.002
20
59.305
0
VERTEX
8
CONTOURS_MINEURES
10
106.028
20
58.974
0
VERTEX
8
CONTOURS_MINEURES
10
105.003
20
59.024
0
VERTEX
8
CONTOURS_MINEURES
10
100.878
20
59.125
0
VERTEX
8
CONTOURS_MINEURES
10
100.003
20
59.079
0
VERTEX
8
CONTOURS_MINEURES
10
99.303
20
59.299
0
VERTEX
8
CONTOURS_MINEURES
10
95.003
20
59.673
0
VERTEX
8
CONTOURS_MINEURES
10
94.832
20
59.829
0
VERTEX
8
CONTOURS_MINEURES
10
94.351
20
59.999
0
VERTEX
8
CONTOURS_MINEURES
10
92.225
20
62.220
0
VERTEX
8
CONTOURS_MINEURES
10
90.003
20
62.323
0
VERTEX
8
CONTOURS_MINEURES
10
87.146
20
62.854
0
VERTEX
8
CONTOURS_MINEURES
10
85.003
20
63.842
0
VERTEX
8
CONTOURS_MINEURES
10
83.884
20
63.877
0
VERTEX
8
CONTOURS_MINEURES
10
80.003
20
64.123
0
VERTEX
8
CONTOURS_MINEURES
10
75.670
20
64.329
0
VERTEX
8
CONTOURS_MINEURES
10
75.004
20
64.361
0
VERTEX
8
CONTOURS_MINEURES
10
74.440
20
64.432
0
VERTEX
8
CONTOURS_MINEURES
10
70.004
20
64.842
0
VERTEX
8
CONTOURS_MINEURES
10
69.235
20
64.995
0
VERTEX
8
CONTOURS_MINEURES
10
65.004
20
66.276
0
VERTEX
8
CONTOURS_MINEURES
10
61.985
20
66.979
0
VERTEX
8
CONTOURS_MINEURES
10
60.004
20
68.000
0
VERTEX
8
CONTOURS_MINEURES
10
55.629
20
70.003
0
VERTEX
8
CONTOURS_MINEURES
10
55.261
20
70.259
0
VERTEX
8
CONTOURS_MINEURES
10
55.004
20
70.558
0
VERTEX
8
CONTOURS_MINEURES
10
50.794
20
74.999
0
VERTEX
8
CONTOURS_MINEURES
10
50.421
20
75.416
0
VERTEX
8
CONTOURS_MINEURES
10
50.004
20
75.749
0
VERTEX
8
CONTOURS_MINEURES
10
48.338
20
76.665
0
VERTEX
8
CONTOURS_MINEURES
10
45.005
20
78.746
0
VERTEX
8
CONTOURS_MINEURES
10
41.671
20
79.996
0
VERTEX
8
CONTOURS_MINEURES
10
40.288
20
80.279
0
VERTEX
8
CONTOURS_MINEURES
10
40.005
20
80.353
0
VERTEX
8
CONTOURS_MINEURES
10
36.459
20
81.452
0
VERTEX
8
CONTOURS_MINEURES
10
35.005
20
81.700
0
VERTEX
8
CONTOURS_MINEURES
10
32.652
20
82.352
0
VERTEX
8
CONTOURS_MINEURES
10
30.005
20
83.236
0
VERTEX
8
CONTOURS_MINEURES
10
25.505
20
85.003
0
SEQEND
0
POLYLINE
8
CONTOURS_MINEURES
66
1
70
0
0
VERTEX
8
CONTOURS_MINEURES
10
200.000
20
39.001
0
VERTEX
8
CONTOURS_MINEURES
10
196.410
20
38.590
0
VERTEX
8
CONTOURS_MINEURES
10
195.000
20
38.103
0
VERTEX
8
CONTOURS_MINEURES
10
191.087
20
38.914
0
VERTEX
8
CONTOURS_MINEURES
10
190.000
20
38.959
0
VERTEX
8
CONTOURS_MINEURES
10
187.222
20
40.002
0
VERTEX
8
CONTOURS_MINEURES
10
186.333
20
41.335
0
VERTEX
8
CONTOURS_MINEURES
10
185.000
20
41.819
0
VERTEX
8
CONTOURS_MINEURES
10
182.778
20
42.223
0
VERTEX
8
CONTOURS_MINEURES
10
180.000
20
43.611
0
VERTEX
8
CONTOURS_MINEURES
10
175.938
20
44.062
0
VERTEX
8
CONTOURS_MINEURES
10
175.000
20
43.636
0
VERTEX
8
CONTOURS_MINEURES
10
173.788
20
41.213
0
VERTEX
8
CONTOURS_MINEURES
10
171.667
20
40.002
0
VERTEX
8
CONTOURS_MINEURES
10
170.834
20
39.168
0
VERTEX
8
CONTOURS_MINEURES
10
170.001
20
38.750
0
VERTEX
8
CONTOURS_MINEURES
10
169.048
20
39.048
0
VERTEX
8
CONTOURS_MINEURES
10
165.001
20
39.724
0
VERTEX
8
CONTOURS_MINEURES
10
164.783
20
39.784
0
VERTEX
8
CONTOURS_MINEURES
10
164.001
20
40.002
0
VERTEX
8
CONTOURS_MINEURES
10
160.667
20
40.668
0
VERTEX
8
CONTOURS_MINEURES
10
160.001
20
40.802
0
VERTEX
8
CONTOURS_MINEURES
10
159.413
20
40.590
0
VERTEX
8
CONTOURS_MINEURES
10
155.001
20
40.314
0
VERTEX
8
CONTOURS_MINEURES
10
153.572
20
40.002
0
VERTEX
8
CONTOURS_MINEURES
10
150.001
20
39.376
0
VERTEX
8
CONTOURS_MINEURES
10
145.514
20
39.489
0
VERTEX
8
CONTOURS_MINEURES
10
145.001
20
39.430
0
VERTEX
8
CONTOURS_MINEURES
10
144.557
20
39.557
0
VERTEX
8
CONTOURS_MINEURES
10
143.668
20
40.002
0
VERTEX
8
CONTOURS_MINEURES
10
140.889
20
40.889
0
VERTEX
8
CONTOURS_MINEURES
10
140.001
20
41.280
0
VERTEX
8
CONTOURS_MINEURES
10
135.899
20
40.899
0
VERTEX
8
CONTOURS_MINEURES
10
135.002
20
41.298
0
VERTEX
8
CONTOURS_MINEURES
10
133.252
20
41.751
0
VERTEX
8
CONTOURS_MINEURES
10
130.002
20
42.759
0
VERTEX
8
CONTOURS_MINEURES
10
128.490
20
43.488
0
VERTEX
8
CONTOURS_MINEURES
10
125.002
20
43.750
0
VERTEX
8
CONTOURS_MINEURES
10
120.457
20
44.544
0
VERTEX
8
CONTOURS_MINEURES
10
120.002
20
44.830
0
VERTEX
8
CONTOURS_MINEURES
10
119.878
20
44.875
0
VERTEX
8
CONTOURS_MINEURES
10
116.252
20
44.999
0
VERTEX
8
CONTOURS_MINEURES
10
115.002
20
45.099
0
VERTEX
8
CONTOURS_MINEURES
10
111.901
20
46.896
0
VERTEX
8
CONTOURS_MINEURES
10
110.002
20
46.971
0
VERTEX
8
CONTOURS_MINEURES
10
107.948
20
47.052
0
VERTEX
8
CONTOURS_MINEURES
10
105.003
20
47.825
0
VERTEX
8
CONTOURS_MINEURES
10
103.520
20
48.513
0
VERTEX
8
CONTOURS_MINEURES
10
100.003
20
48.830
0
VERTEX
8
CONTOURS_MINEURES
10
97.756
20
49.995
0
VERTEX
8
CONTOURS_MINEURES
10
96.779
20
51.773
0
VERTEX
8
CONTOURS_MINEURES
10
95.003
20
51.998
0
VERTEX
8
CONTOURS_MINEURES
10
91.418
20
53.585
0
VERTEX
8
CONTOURS_MINEURES
10
90.003
20
54.429
0
VERTEX
8
CONTOURS_MINEURES
10
89.537
20
54.536
0
VERTEX
8
CONTOURS_MINEURES
10
88.867
20
55.002
0
VERTEX
8
CONTOURS_MINEURES
10
85.003
20
57.525
0
VERTEX
8
CONTOURS_MINEURES
10
82.428
20
57.576
0
VERTEX
8
CONTOURS_MINEURES
10
80.003
20
58.367
0
VERTEX
8
CONTOURS_MINEURES
10
78.484
20
58.481
0
VERTEX
8
CONTOURS_MINEURES
10
75.004
20
58.548
0
VERTEX
8
CONTOURS_MINEURES
10
71.262
20
58.741
0
VERTEX
8
CONTOURS_MINEURES
10
70.004
20
58.865
0
VERTEX
8
CONTOURS_MINEURES
10
68.536
20
58.532
0
VERTEX
8
CONTOURS_MINEURES
10
65.004
20
58.450
0
VERTEX
8
CONTOURS_MINEURES
10
62.372
20
57.369
0
VERTEX
8
CONTOURS_MINEURES
10
60.004
20
57.144
0
VERTEX
8
CONTOURS_MINEURES
10
57.666
20
57.338
0
VERTEX
8
CONTOURS_MINEURES
10
55.004
20
56.847
0
VERTEX
8
CONTOURS_MINEURES
10
52.822
20
57.183
0
VERTEX
8
CONTOURS_MINEURES
10
50.004
20
56.962
0
VERTEX
8
CONTOURS_MINEURES
10
47.624
20
57.382
0
VERTEX
8
CONTOURS_MINEURES
10
45.005
20
57.382
0
VERTEX
8
CONTOURS_MINEURES
10
42.613
20
57.609
0
VERTEX
8
CONTOURS_MINEURES
10
40.005
20
58.636
0
VERTEX
8
CONTOURS_MINEURES
10
39.139
20
59.134
0
VERTEX
8
CONTOURS_MINEURES
10
38.048
20
59.999
0
VERTEX
8
CONTOURS_MINEURES
10
35.005
20
63.330
0
VERTEX
8
CONTOURS_MINEURES
10
33.060
20
64.995
0
VERTEX
8
CONTOURS_MINEURES
10
30.005
20
66.831
0
VERTEX
8
CONTOURS_MINEURES
10
27.846
20
67.840
0
VERTEX
8
CONTOURS_MINEURES
10
25.005
20
69.632
0
VERTEX
8
CONTOURS_MINEURES
10
23.755
20
70.003
0
VERTEX
8
CONTOURS_MINEURES
10
20.005
20
71.202
0
VERTEX
8
CONTOURS_MINEURES
10
16.723
20
71.726
0
VERTEX
8
CONTOURS_MINEURES
10
14.995
20
72.001
0
VERTEX
8
CONTOURS_MINEURES
10
12.495
20
74.999
0
VERTEX
8
CONTOURS_MINEURES
10
9.995
20
78.122
0
VERTEX
8
CONTOURS_MINEURES
10
8.779
20
78.780
0
VERTEX
8
CONTOURS_MINEURES
10
6.534
20
79.996
0
VERTEX
8
CONTOURS_MINEURES
10
4.995
20
80.381
0
VERTEX
8
CONTOURS_MINEURES
10
0.380
20
80.381
0
VERTEX
8
CONTOURS_MINEURES
10
-0.005
20
80.585
0
SEQEND
0
POLYLINE
8
CONTOURS_MINEURES
66
1
70
0
0
VERTEX
8
CONTOURS_MINEURES
10
200.000
20
28.068
0
VERTEX
8
CONTOURS_MINEURES
10
196.250
20
25.002
0
VERTEX
8
CONTOURS_MINEURES
10
195.391
20
24.611
0
VERTEX
8
CONTOURS_MINEURES
10
195.000
20
24.199
0
VERTEX
8
CONTOURS_MINEURES
10
191.538
20
21.543
0
VERTEX
8
CONTOURS_MINEURES
10
190.000
20
20.505
0
VERTEX
8
CONTOURS_MINEURES
10
189.535
20
20.470
0
VERTEX
8
CONTOURS_MINEURES
10
189.231
20
20.006
0
VERTEX
8
CONTOURS_MINEURES
10
185.000
20
18.575
0
VERTEX
8
CONTOURS_MINEURES
10
182.250
20
17.251
0
VERTEX
8
CONTOURS_MINEURES
10
180.000
20
17.309
0
VERTEX
8
CONTOURS_MINEURES
10
177.429
20
17.573
0
VERTEX
8
CONTOURS_MINEURES
10
175.000
20
15.952
0
VERTEX
8
CONTOURS_MINEURES
10
173.572
20
16.429
0
VERTEX
8
CONTOURS_MINEURES
10
170.001
20
18.533
0
VERTEX
8
CONTOURS_MINEURES
10
169.207
20
19.211
0
VERTEX
8
CONTOURS_MINEURES
10
168.649
20
20.006
0
VERTEX
8
CONTOURS_MINEURES
10
166.688
20
21.692
0
VERTEX
8
CONTOURS_MINEURES
10
165.001
20
22.081
0
VERTEX
8
CONTOURS_MINEURES
10
162.655
20
22.658
0
VERTEX
8
CONTOURS_MINEURES
10
160.001
20
23.165
0
VERTEX
8
CONTOURS_MINEURES
10
155.785
20
24.218
0
VERTEX
8
CONTOURS_MINEURES
10
155.001
20
24.072
0
VERTEX
8
CONTOURS_MINEURES
10
154.260
20
24.262
0
VERTEX
8
CONTOURS_MINEURES
10
150.001
20
24.602
0
VERTEX
8
CONTOURS_MINEURES
10
145.492
20
24.512
0
VERTEX
8
CONTOURS_MINEURES
10
145.001
20
24.655
0
VERTEX
8
CONTOURS_MINEURES
10
144.677
20
24.677
0
VERTEX
8
CONTOURS_MINEURES
10
142.918
20
25.002
0
VERTEX
8
CONTOURS_MINEURES
10
140.001
20
26.459
0
VERTEX
8
CONTOURS_MINEURES
10
137.085
20
27.917
0
VERTEX
8
CONTOURS_MINEURES
10
135.002
20
29.341
0
VERTEX
8
CONTOURS_MINEURES
10
134.677
20
29.674
0
VERTEX
8
CONTOURS_MINEURES
10
132.918
20
29.998
0
VERTEX
8
CONTOURS_MINEURES
10
130.585
20
30.581
0
VERTEX
8
CONTOURS_MINEURES
10
130.002
20
30.812
0
VERTEX
8
CONTOURS_MINEURES
10
128.602
20
31.397
0
VERTEX
8
CONTOURS_MINEURES
10
125.002
20
33.159
0
VERTEX
8
CONTOURS_MINEURES
10
124.169
20
34.995
0
VERTEX
8
CONTOURS_MINEURES
10
122.815
20
37.811
0
VERTEX
8
CONTOURS_MINEURES
10
120.002
20
39.328
0
VERTEX
8
CONTOURS_MINEURES
10
117.815
20
40.002
0
VERTEX
8
CONTOURS_MINEURES
10
115.746
20
40.745
0
VERTEX
8
CONTOURS_MINEURES
10
115.002
20
40.771
0
VERTEX
8
CONTOURS_MINEURES
10
113.980
20
41.024
0
VERTEX
8
CONTOURS_MINEURES
10
110.002
20
41.876
0
VERTEX
8
CONTOURS_MINEURES
10
108.058
20
43.056
0
VERTEX
8
CONTOURS_MINEURES
10
105.003
20
43.571
0
VERTEX
8
CONTOURS_MINEURES
10
103.960
20
43.957
0
VERTEX
8
CONTOURS_MINEURES
10
100.220
20
44.999
0
VERTEX
8
CONTOURS_MINEURES
10
100.072
20
45.068
0
VERTEX
8
CONTOURS_MINEURES
10
100.003
20
45.074
0
VERTEX
8
CONTOURS_MINEURES
10
99.847
20
45.155
0
VERTEX
8
CONTOURS_MINEURES
10
95.003
20
48.162
0
VERTEX
8
CONTOURS_MINEURES
10
93.655
20
48.648
0
VERTEX
8
CONTOURS_MINEURES
10
91.029
20
49.995
0
VERTEX
8
CONTOURS_MINEURES
10
90.003
20
50.607
0
VERTEX
8
CONTOURS_MINEURES
10
86.432
20
51.426
0
VERTEX
8
CONTOURS_MINEURES
10
85.003
20
52.420
0
VERTEX
8
CONTOURS_MINEURES
10
80.110
20
54.896
0
VERTEX
8
CONTOURS_MINEURES
10
80.003
20
54.935
0
VERTEX
8
CONTOURS_MINEURES
10
79.945
20
54.944
0
VERTEX
8
CONTOURS_MINEURES
10
79.549
20
55.002
0
VERTEX
8
CONTOURS_MINEURES
10
75.320
20
55.319
0
VERTEX
8
CONTOURS_MINEURES
10
75.004
20
55.325
0
VERTEX
8
CONTOURS_MINEURES
10
74.663
20
55.342
0
VERTEX
8
CONTOURS_MINEURES
10
70.004
20
55.799
0
VERTEX
8
CONTOURS_MINEURES
10
66.490
20
55.002
0
VERTEX
8
CONTOURS_MINEURES
10
65.518
20
54.488
0
VERTEX
8
CONTOURS_MINEURES
10
65.004
20
54.446
0
VERTEX
8
CONTOURS_MINEURES
10
62.109
20
52.894
0
VERTEX
8
CONTOURS_MINEURES
10
60.004
20
51.481
0
VERTEX
8
CONTOURS_MINEURES
10
55.367
20
50.358
0
VERTEX
8
CONTOURS_MINEURES
10
55.004
20
50.304
0
VERTEX
8
CONTOURS_MINEURES
10
54.710
20
50.290
0
VERTEX
8
CONTOURS_MINEURES
10
52.921
20
49.995
0
VERTEX
8
CONTOURS_MINEURES
10
50.004
20
49.683
0
VERTEX
8
CONTOURS_MINEURES
10
45.771
20
49.229
0
VERTEX
8
CONTOURS_MINEURES
10
45.005
20
49.064
0
VERTEX
8
CONTOURS_MINEURES
10
41.126
20
48.874
0
VERTEX
8
CONTOURS_MINEURES
10
40.005
20
48.533
0
VERTEX
8
CONTOURS_MINEURES
10
38.005
20
47.996
0
VERTEX
8
CONTOURS_MINEURES
10
35.005
20
47.996
0
VERTEX
8
CONTOURS_MINEURES
10
32.005
20
46.997
0
VERTEX
8
CONTOURS_MINEURES
10
30.005
20
47.159
0
VERTEX
8
CONTOURS_MINEURES
10
27.088
20
47.080
0
VERTEX
8
CONTOURS_MINEURES
10
25.005
20
47.675
0
VERTEX
8
CONTOURS_MINEURES
10
20.943
20
49.995
0
VERTEX
8
CONTOURS_MINEURES
10
20.005
20
50.532
0
VERTEX
8
CONTOURS_MINEURES
10
15.965
20
50.964
0
VERTEX
8
CONTOURS_MINEURES
10
14.995
20
51.068
0
VERTEX
8
CONTOURS_MINEURES
10
13.841
20
51.151
0
VERTEX
8
CONTOURS_MINEURES
10
9.995
20
50.450
0
VERTEX
8
CONTOURS_MINEURES
10
6.424
20
51.426
0
VERTEX
8
CONTOURS_MINEURES
10
4.995
20
51.816
0
VERTEX
8
CONTOURS_MINEURES
10
2.195
20
52.198
0
VERTEX
8
CONTOURS_MINEURES
10
-0.005
20
53.055
0
SEQEND
0
POLYLINE
8
CONTOURS_MINEURES
66
1
70
0
0
VERTEX
8
CONTOURS_MINEURES
10
160.659
20
-0.002
0
VERTEX
8
CONTOURS_MINEURES
10
160.863
20
0.861
0
VERTEX
8
CONTOURS_MINEURES
10
160.001
20
2.502
0
VERTEX
8
CONTOURS_MINEURES
10
158.334
20
5.005
0
VERTEX
8
CONTOURS_MINEURES
10
155.001
20
7.178
0
VERTEX
8
CONTOURS_MINEURES
10
153.453
20
8.455
0
VERTEX
8
CONTOURS_MINEURES
10
151.580
20
10.002
0
VERTEX
8
CONTOURS_MINEURES
10
150.001
20
12.143
0
VERTEX
8
CONTOURS_MINEURES
10
149.150
20
14.148
0
VERTEX
8
CONTOURS_MINEURES
10
148.711
20
14.998
0
VERTEX
8
CONTOURS_MINEURES
10
146.495
20
16.494
0
VERTEX
8
CONTOURS_MINEURES
10
145.001
20
17.055
0
VERTEX
8
CONTOURS_MINEURES
10
142.746
20
17.256
0
VERTEX
8
CONTOURS_MINEURES
10
140.001
20
17.360
0
VERTEX
8
CONTOURS_MINEURES
10
137.409
20
17.409
0
VERTEX
8
CONTOURS_MINEURES
10
135.002
20
18.253
0
VERTEX
8
CONTOURS_MINEURES
10
134.068
20
19.071
0
VERTEX
8
CONTOURS_MINEURES
10
133.602
20
20.006
0
VERTEX
8
CONTOURS_MINEURES
10
130.002
20
22.816
0
VERTEX
8
CONTOURS_MINEURES
10
128.616
20
23.617
0
VERTEX
8
CONTOURS_MINEURES
10
125.884
20
25.002
0
VERTEX
8
CONTOURS_MINEURES
10
125.002
20
25.402
0
VERTEX
8
CONTOURS_MINEURES
10
123.685
20
28.682
0
VERTEX
8
CONTOURS_MINEURES
10
122.936
20
29.998
0
VERTEX
8
CONTOURS_MINEURES
10
120.002
20
34.532
0
VERTEX
8
CONTOURS_MINEURES
10
119.695
20
34.688
0
VERTEX
8
CONTOURS_MINEURES
10
118.891
20
34.995
0
VERTEX
8
CONTOURS_MINEURES
10
115.002
20
36.493
0
VERTEX
8
CONTOURS_MINEURES
10
111.748
20
36.743
0
VERTEX
8
CONTOURS_MINEURES
10
110.002
20
37.155
0
VERTEX
8
CONTOURS_MINEURES
10
105.738
20
40.002
0
VERTEX
8
CONTOURS_MINEURES
10
105.280
20
40.280
0
VERTEX
8
CONTOURS_MINEURES
10
105.003
20
40.327
0
VERTEX
8
CONTOURS_MINEURES
10
101.590
20
41.589
0
VERTEX
8
CONTOURS_MINEURES
10
100.003
20
42.031
0
VERTEX
8
CONTOURS_MINEURES
10
95.336
20
44.999
0
VERTEX
8
CONTOURS_MINEURES
10
95.003
20
45.206
0
VERTEX
8
CONTOURS_MINEURES
10
91.481
20
46.476
0
VERTEX
8
CONTOURS_MINEURES
10
90.003
20
47.234
0
VERTEX
8
CONTOURS_MINEURES
10
87.216
20
47.784
0
VERTEX
8
CONTOURS_MINEURES
10
85.003
20
48.243
0
VERTEX
8
CONTOURS_MINEURES
10
83.503
20
48.496
0
VERTEX
8
CONTOURS_MINEURES
10
80.003
20
49.113
0
VERTEX
8
CONTOURS_MINEURES
10
75.535
20
49.463
0
VERTEX
8
CONTOURS_MINEURES
10
75.004
20
49.478
0
VERTEX
8
CONTOURS_MINEURES
10
70.153
20
49.846
0
VERTEX
8
CONTOURS_MINEURES
10
70.004
20
49.835
0
VERTEX
8
CONTOURS_MINEURES
10
69.782
20
49.773
0
VERTEX
8
CONTOURS_MINEURES
10
65.004
20
49.383
0
VERTEX
8
CONTOURS_MINEURES
10
64.036
20
49.028
0
VERTEX
8
CONTOURS_MINEURES
10
60.004
20
47.030
0
VERTEX
8
CONTOURS_MINEURES
10
58.280
20
46.722
0
VERTEX
8
CONTOURS_MINEURES
10
55.004
20
46.072
0
VERTEX
8
CONTOURS_MINEURES
10
50.254
20
45.248
0
VERTEX
8
CONTOURS_MINEURES
10
50.004
20
45.222
0
VERTEX
8
CONTOURS_MINEURES
10
49.803
20
45.200
0
VERTEX
8
CONTOURS_MINEURES
10
48.868
20
44.999
0
VERTEX
8
CONTOURS_MINEURES
10
45.005
20
44.260
0
VERTEX
8
CONTOURS_MINEURES
10
41.505
20
43.500
0
VERTEX
8
CONTOURS_MINEURES
10
40.005
20
42.921
0
VERTEX
8
CONTOURS_MINEURES
10
37.606
20
42.399
0
VERTEX
8
CONTOURS_MINEURES
10
35.005
20
41.192
0
VERTEX
8
CONTOURS_MINEURES
10
32.302
20
40.002
0
VERTEX
8
CONTOURS_MINEURES
10
30.561
20
39.446
0
VERTEX
8
CONTOURS_MINEURES
10
30.005
20
39.168
0
VERTEX
8
CONTOURS_MINEURES
10
26.522
20
38.484
0
VERTEX
8
CONTOURS_MINEURES
10
25.005
20
37.532
0
VERTEX
8
CONTOURS_MINEURES
10
21.989
20
38.015
0
VERTEX
8
CONTOURS_MINEURES
10
20.005
20
37.880
0
VERTEX
8
CONTOURS_MINEURES
10
17.463
20
37.536
0
VERTEX
8
CONTOURS_MINEURES
10
14.995
20
35.871
0
VERTEX
8
CONTOURS_MINEURES
10
13.595
20
34.995
0
VERTEX
8
CONTOURS_MINEURES
10
9.995
20
32.628
0
VERTEX
8
CONTOURS_MINEURES
10
6.534
20
31.536
0
VERTEX
8
CONTOURS_MINEURES
10
4.995
20
31.426
0
VERTEX
8
CONTOURS_MINEURES
10
3.745
20
31.247
0
VERTEX
8
CONTOURS_MINEURES
10
-0.005
20
30.198
0
SEQEND
0
POLYLINE
8
CONTOURS_MINEURES
66
1
70
0
0
VERTEX
8
CONTOURS_MINEURES
10
200.000
20
20.385
0
VERTEX
8
CONTOURS_MINEURES
10
199.739
20
20.266
0
VERTEX
8
CONTOURS_MINEURES
10
199.491
20
20.006
0
VERTEX
8
CONTOURS_MINEURES
10
196.531
20
18.471
0
VERTEX
8
CONTOURS_MINEURES
10
195.000
20
17.297
0
VERTEX
8
CONTOURS_MINEURES
10
193.404
20
16.596
0
VERTEX
8
CONTOURS_MINEURES
10
190.408
20
14.998
0
VERTEX
8
CONTOURS_MINEURES
10
190.093
20
14.905
0
VERTEX
8
CONTOURS_MINEURES
10
190.000
20
14.851
0
VERTEX
8
CONTOURS_MINEURES
10
189.733
20
14.732
0
VERTEX
8
CONTOURS_MINEURES
10
185.000
20
13.060
0
VERTEX
8
CONTOURS_MINEURES
10
182.680
20
12.320
0
VERTEX
8
CONTOURS_MINEURES
10
180.000
20
11.169
0
VERTEX
8
CONTOURS_MINEURES
10
178.787
20
10.002
0
VERTEX
8
CONTOURS_MINEURES
10
176.823
20
8.181
0
VERTEX
8
CONTOURS_MINEURES
10
176.459
20
5.005
0
VERTEX
8
CONTOURS_MINEURES
10
176.267
20
3.736
0
VERTEX
8
CONTOURS_MINEURES
10
175.612
20
-0.002
0
SEQEND
0
POLYLINE
8
CONTOURS_MINEURES
66
1
70
0
0
VERTEX
8
CONTOURS_MINEURES
10
133.278
20
-0.002
0
VERTEX
8
CONTOURS_MINEURES
10
133.079
20
1.924
0
VERTEX
8
CONTOURS_MINEURES
10
134.002
20
5.005
0
VERTEX
8
CONTOURS_MINEURES
10
131.540
20
6.543
0
VERTEX
8
CONTOURS_MINEURES
10
130.002
20
7.966
0
VERTEX
8
CONTOURS_MINEURES
10
129.168
20
9.169
0
VERTEX
8
CONTOURS_MINEURES
10
128.335
20
10.002
0
VERTEX
8
CONTOURS_MINEURES
10
126.805
20
11.804
0
VERTEX
8
CONTOURS_MINEURES
10
125.002
20
13.547
0
VERTEX
8
CONTOURS_MINEURES
10
124.827
20
14.823
0
VERTEX
8
CONTOURS_MINEURES
10
124.802
20
14.998
0
VERTEX
8
CONTOURS_MINEURES
10
124.765
20
15.235
0
VERTEX
8
CONTOURS_MINEURES
10
124.353
20
20.006
0
VERTEX
8
CONTOURS_MINEURES
10
123.293
20
23.294
0
VERTEX
8
CONTOURS_MINEURES
10
122.489
20
25.002
0
VERTEX
8
CONTOURS_MINEURES
10
121.777
20
26.775
0
VERTEX
8
CONTOURS_MINEURES
10
120.002
20
29.893
0
VERTEX
8
CONTOURS_MINEURES
10
119.820
20
29.998
0
VERTEX
8
CONTOURS_MINEURES
10
116.628
20
31.623
0
VERTEX
8
CONTOURS_MINEURES
10
115.002
20
32.242
0
VERTEX
8
CONTOURS_MINEURES
10
112.571
20
32.428
0
VERTEX
8
CONTOURS_MINEURES
10
110.002
20
33.339
0
VERTEX
8
CONTOURS_MINEURES
10
108.860
20
33.853
0
VERTEX
8
CONTOURS_MINEURES
10
105.003
20
34.582
0
VERTEX
8
CONTOURS_MINEURES
10
103.429
20
34.995
0
VERTEX
8
CONTOURS_MINEURES
10
100.003
20
37.642
0
VERTEX
8
CONTOURS_MINEURES
10
99.335
20
39.333
0
VERTEX
8
CONTOURS_MINEURES
10
97.384
20
40.002
0
VERTEX
8
CONTOURS_MINEURES
10
95.003
20
41.221
0
VERTEX
8
CONTOURS_MINEURES
10
92.584
20
42.420
0
VERTEX
8
CONTOURS_MINEURES
10
90.003
20
44.053
0
VERTEX
8
CONTOURS_MINEURES
10
89.342
20
44.338
0
VERTEX
8
CONTOURS_MINEURES
10
85.003
20
44.999
0
VERTEX
8
CONTOURS_MINEURES
10
80.726
20
45.720
0
VERTEX
8
CONTOURS_MINEURES
10
80.003
20
45.848
0
VERTEX
8
CONTOURS_MINEURES
10
79.081
20
45.920
0
VERTEX
8
CONTOURS_MINEURES
10
75.004
20
46.032
0
VERTEX
8
CONTOURS_MINEURES
10
73.884
20
46.117
0
VERTEX
8
CONTOURS_MINEURES
10
70.004
20
45.838
0
VERTEX
8
CONTOURS_MINEURES
10
67.004
20
44.999
0
VERTEX
8
CONTOURS_MINEURES
10
65.311
20
44.692
0
VERTEX
8
CONTOURS_MINEURES
10
65.004
20
44.564
0
VERTEX
8
CONTOURS_MINEURES
10
61.273
20
43.730
0
VERTEX
8
CONTOURS_MINEURES
10
60.004
20
43.397
0
VERTEX
8
CONTOURS_MINEURES
10
57.921
20
42.917
0
VERTEX
8
CONTOURS_MINEURES
10
55.004
20
42.431
0
VERTEX
8
CONTOURS_MINEURES
10
52.883
20
42.122
0
VERTEX
8
CONTOURS_MINEURES
10
50.004
20
41.319
0
VERTEX
8
CONTOURS_MINEURES
10
45.282
20
40.002
0
VERTEX
8
CONTOURS_MINEURES
10
45.062
20
39.945
0
VERTEX
8
CONTOURS_MINEURES
10
45.005
20
39.917
0
VERTEX
8
CONTOURS_MINEURES
10
44.873
20
39.870
0
VERTEX
8
CONTOURS_MINEURES
10
40.005
20
38.217
0
VERTEX
8
CONTOURS_MINEURES
10
37.602
20
37.401
0
VERTEX
8
CONTOURS_MINEURES
10
35.005
20
36.549
0
VERTEX
8
CONTOURS_MINEURES
10
33.828
20
36.173
0
VERTEX
8
CONTOURS_MINEURES
10
31.476
20
34.995
0
VERTEX
8
CONTOURS_MINEURES
10
30.005
20
34.320
0
VERTEX
8
CONTOURS_MINEURES
10
28.338
20
33.329
0
VERTEX
8
CONTOURS_MINEURES
10
25.005
20
31.628
0
VERTEX
8
CONTOURS_MINEURES
10
23.443
20
31.560
0
VERTEX
8
CONTOURS_MINEURES
10
20.839
20
29.998
0
VERTEX
8
CONTOURS_MINEURES
10
20.005
20
29.285
0
VERTEX
8
CONTOURS_MINEURES
10
15.997
20
25.002
0
VERTEX
8
CONTOURS_MINEURES
10
15.416
20
24.582
0
VERTEX
8
CONTOURS_MINEURES
10
14.995
20
23.878
0
VERTEX
8
CONTOURS_MINEURES
10
12.955
20
20.006
0
VERTEX
8
CONTOURS_MINEURES
10
12.276
20
17.282
0
VERTEX
8
CONTOURS_MINEURES
10
11.424
20
14.998
0
VERTEX
8
CONTOURS_MINEURES
10
10.944
20
14.050
0
VERTEX
8
CONTOURS_MINEURES
10
10.083
20
10.002
0
VERTEX
8
CONTOURS_MINEURES
10
9.995
20
9.679
0
VERTEX
8
CONTOURS_MINEURES
10
8.884
20
10.002
0
VERTEX
8
CONTOURS_MINEURES
10
6.056
20
11.062
0
VERTEX
8
CONTOURS_MINEURES
10
4.995
20
11.095
0
VERTEX
8
CONTOURS_MINEURES
10
3.866
20
11.130
0
VERTEX
8
CONTOURS_MINEURES
10
-0.005
20
11.364
0
SEQEND
0
POLYLINE
8
CONTOURS_MINEURES
66
1
70
0
0
VERTEX
8
CONTOURS_MINEURES
10
200.000
20
15.877
0
VERTEX
8
CONTOURS_MINEURES
10
199.422
20
15.577
0
VERTEX
8
CONTOURS_MINEURES
10
198.666
20
14.998
0
VERTEX
8
CONTOURS_MINEURES
10
195.000
20
13.333
0
VERTEX
8
CONTOURS_MINEURES
10
192.430
20
12.570
0
VERTEX
8
CONTOURS_MINEURES
10
190.000
20
11.177
0
VERTEX
8
CONTOURS_MINEURES
10
187.377
20
10.002
0
VERTEX
8
CONTOURS_MINEURES
10
185.736
20
9.266
0
VERTEX
8
CONTOURS_MINEURES
10
185.000
20
8.753
0
VERTEX
8
CONTOURS_MINEURES
10
182.769
20
7.772
0
VERTEX
8
CONTOURS_MINEURES
10
180.000
20
6.626
0
VERTEX
8
CONTOURS_MINEURES
10
179.159
20
5.846
0
VERTEX
8
CONTOURS_MINEURES
10
179.063
20
5.005
0
VERTEX
8
CONTOURS_MINEURES
10
178.530
20
1.471
0
VERTEX
8
CONTOURS_MINEURES
10
178.272
20
-0.002
0
SEQEND
0
POLYLINE
8
CONTOURS_MINEURES
66
1
70
0
0
VERTEX
8
CONTOURS_MINEURES
10
124.403
20
-0.002
0
VERTEX
8
CONTOURS_MINEURES
10
123.951
20
3.952
0
VERTEX
8
CONTOURS_MINEURES
10
124.006
20
5.005
0
VERTEX
8
CONTOURS_MINEURES
10
123.836
20
6.170
0
VERTEX
8
CONTOURS_MINEURES
10
123.276
20
10.002
0
VERTEX
8
CONTOURS_MINEURES
10
122.881
20
12.879
0
VERTEX
8
CONTOURS_MINEURES
10
122.580
20
14.998
0
VERTEX
8
CONTOURS_MINEURES
10
122.134
20
17.871
0
VERTEX
8
CONTOURS_MINEURES
10
121.949
20
20.006
0
VERTEX
8
CONTOURS_MINEURES
10
121.475
20
21.477
0
VERTEX
8
CONTOURS_MINEURES
10
120.002
20
24.604
0
VERTEX
8
CONTOURS_MINEURES
10
119.684
20
25.002
0
VERTEX
8
CONTOURS_MINEURES
10
115.002
20
28.433
0
VERTEX
8
CONTOURS_MINEURES
10
114.073
20
29.070
0
VERTEX
8
CONTOURS_MINEURES
10
111.086
20
29.998
0
VERTEX
8
CONTOURS_MINEURES
10
110.002
20
30.383
0
VERTEX
8
CONTOURS_MINEURES
10
106.819
20
31.813
0
VERTEX
8
CONTOURS_MINEURES
10
105.003
20
32.157
0
VERTEX
8
CONTOURS_MINEURES
10
102.075
20
32.924
0
VERTEX
8
CONTOURS_MINEURES
10
100.003
20
33.720
0
VERTEX
8
CONTOURS_MINEURES
10
99.265
20
34.258
0
VERTEX
8
CONTOURS_MINEURES
10
98.223
20
34.995
0
VERTEX
8
CONTOURS_MINEURES
10
97.311
20
37.306
0
VERTEX
8
CONTOURS_MINEURES
10
95.003
20
38.097
0
VERTEX
8
CONTOURS_MINEURES
10
93.933
20
38.930
0
VERTEX
8
CONTOURS_MINEURES
10
91.732
20
40.002
0
VERTEX
8
CONTOURS_MINEURES
10
90.003
20
41.096
0
VERTEX
8
CONTOURS_MINEURES
10
87.276
20
42.273
0
VERTEX
8
CONTOURS_MINEURES
10
85.003
20
42.619
0
VERTEX
8
CONTOURS_MINEURES
10
82.014
20
42.989
0
VERTEX
8
CONTOURS_MINEURES
10
80.003
20
43.279
0
VERTEX
8
CONTOURS_MINEURES
10
78.258
20
43.255
0
VERTEX
8
CONTOURS_MINEURES
10
75.004
20
43.317
0
VERTEX
8
CONTOURS_MINEURES
10
73.101
20
43.098
0
VERTEX
8
CONTOURS_MINEURES
10
70.004
20
42.953
0
VERTEX
8
CONTOURS_MINEURES
10
67.504
20
42.500
0
VERTEX
8
CONTOURS_MINEURES
10
65.004
20
41.461
0
VERTEX
8
CONTOURS_MINEURES
10
63.811
20
41.194
0
VERTEX
8
CONTOURS_MINEURES
10
60.004
20
40.194
0
VERTEX
8
CONTOURS_MINEURES
10
59.171
20
40.002
0
VERTEX
8
CONTOURS_MINEURES
10
55.004
20
39.134
0
VERTEX
8
CONTOURS_MINEURES
10
53.534
20
38.529
0
VERTEX
8
CONTOURS_MINEURES
10
50.004
20
37.607
0
VERTEX
8
CONTOURS_MINEURES
10
47.935
20
37.067
0
VERTEX
8
CONTOURS_MINEURES
10
45.005
20
35.637
0
VERTEX
8
CONTOURS_MINEURES
10
43.175
20
34.995
0
VERTEX
8
CONTOURS_MINEURES
10
40.636
20
34.364
0
VERTEX
8
CONTOURS_MINEURES
10
40.005
20
34.173
0
VERTEX
8
CONTOURS_MINEURES
10
38.767
20
33.758
0
VERTEX
8
CONTOURS_MINEURES
10
35.005
20
32.759
0
VERTEX
8
CONTOURS_MINEURES
10
30.246
20
29.998
0
VERTEX
8
CONTOURS_MINEURES
10
30.155
20
29.848
0
VERTEX
8
CONTOURS_MINEURES
10
30.005
20
29.635
0
VERTEX
8
CONTOURS_MINEURES
10
27.898
20
27.108
0
VERTEX
8
CONTOURS_MINEURES
10
26.021
20
25.002
0
VERTEX
8
CONTOURS_MINEURES
10
25.005
20
24.229
0
VERTEX
8
CONTOURS_MINEURES
10
22.376
20
22.633
0
VERTEX
8
CONTOURS_MINEURES
10
20.142
20
20.006
0
VERTEX
8
CONTOURS_MINEURES
10
20.005
20
19.761
0
VERTEX
8
CONTOURS_MINEURES
10
18.196
20
16.806
0
VERTEX
8
CONTOURS_MINEURES
10
17.365
20
14.998
0
VERTEX
8
CONTOURS_MINEURES
10
14.995
20
11.196
0
VERTEX
8
CONTOURS_MINEURES
10
14.593
20
10.403
0
VERTEX
8
CONTOURS_MINEURES
10
14.508
20
10.002
0
VERTEX
8
CONTOURS_MINEURES
10
14.324
20
9.331
0
VERTEX
8
CONTOURS_MINEURES
10
12.929
20
5.005
0
VERTEX
8
CONTOURS_MINEURES
10
12.146
20
2.851
0
VERTEX
8
CONTOURS_MINEURES
10
11.513
20
-0.002
0
SEQEND
0
POLYLINE
8
CONTOURS_MINEURES
66
1
70
0
0
VERTEX
8
CONTOURS_MINEURES
10
200.000
20
12.752
0
VERTEX
8
CONTOURS_MINEURES
10
195.555
20
10.557
0
VERTEX
8
CONTOURS_MINEURES
10
195.000
20
10.304
0
VERTEX
8
CONTOURS_MINEURES
10
194.766
20
10.235
0
VERTEX
8
CONTOURS_MINEURES
10
194.359
20
10.002
0
VERTEX
8
CONTOURS_MINEURES
10
190.000
20
7.503
0
VERTEX
8
CONTOURS_MINEURES
10
188.274
20
6.730
0
VERTEX
8
CONTOURS_MINEURES
10
185.802
20
5.005
0
VERTEX
8
CONTOURS_MINEURES
10
185.000
20
3.988
0
VERTEX
8
CONTOURS_MINEURES
10
182.035
20
-0.002
0
SEQEND
0
POLYLINE
8
CONTOURS_MINEURES
66
1
70
0
0
VERTEX
8
CONTOURS_MINEURES
10
121.799
20
-0.002
0
VERTEX
8
CONTOURS_MINEURES
10
121.614
20
1.612
0
VERTEX
8
CONTOURS_MINEURES
10
121.794
20
5.005
0
VERTEX
8
CONTOURS_MINEURES
10
121.246
20
8.759
0
VERTEX
8
CONTOURS_MINEURES
10
121.064
20
10.002
0
VERTEX
8
CONTOURS_MINEURES
10
120.936
20
10.935
0
VERTEX
8
CONTOURS_MINEURES
10
120.358
20
14.998
0
VERTEX
8
CONTOURS_MINEURES
10
120.002
20
17.287
0
VERTEX
8
CONTOURS_MINEURES
10
119.393
20
19.396
0
VERTEX
8
CONTOURS_MINEURES
10
119.176
20
20.006
0
VERTEX
8
CONTOURS_MINEURES
10
115.684
20
24.321
0
VERTEX
8
CONTOURS_MINEURES
10
115.139
20
25.002
0
VERTEX
8
CONTOURS_MINEURES
10
115.002
20
25.102
0
VERTEX
8
CONTOURS_MINEURES
10
112.097
20
27.095
0
VERTEX
8
CONTOURS_MINEURES
10
110.002
20
27.746
0
VERTEX
8
CONTOURS_MINEURES
10
105.473
20
29.529
0
VERTEX
8
CONTOURS_MINEURES
10
105.003
20
29.760
0
VERTEX
8
CONTOURS_MINEURES
10
104.855
20
29.851
0
VERTEX
8
CONTOURS_MINEURES
10
104.424
20
29.998
0
VERTEX
8
CONTOURS_MINEURES
10
100.003
20
31.698
0
VERTEX
8
CONTOURS_MINEURES
10
98.094
20
33.087
0
VERTEX
8
CONTOURS_MINEURES
10
95.398
20
34.995
0
VERTEX
8
CONTOURS_MINEURES
10
95.286
20
35.279
0
VERTEX
8
CONTOURS_MINEURES
10
95.003
20
35.376
0
VERTEX
8
CONTOURS_MINEURES
10
92.404
20
37.399
0
VERTEX
8
CONTOURS_MINEURES
10
90.003
20
38.568
0
VERTEX
8
CONTOURS_MINEURES
10
85.688
20
40.002
0
VERTEX
8
CONTOURS_MINEURES
10
85.210
20
40.209
0
VERTEX
8
CONTOURS_MINEURES
10
85.003
20
40.240
0
VERTEX
8
CONTOURS_MINEURES
10
84.732
20
40.274
0
VERTEX
8
CONTOURS_MINEURES
10
80.003
20
40.955
0
VERTEX
8
CONTOURS_MINEURES
10
75.900
20
40.898
0
VERTEX
8
CONTOURS_MINEURES
10
75.004
20
40.915
0
VERTEX
8
CONTOURS_MINEURES
10
70.384
20
40.382
0
VERTEX
8
CONTOURS_MINEURES
10
70.004
20
40.365
0
VERTEX
8
CONTOURS_MINEURES
10
69.697
20
40.309
0
VERTEX
8
CONTOURS_MINEURES
10
68.959
20
40.002
0
VERTEX
8
CONTOURS_MINEURES
10
65.004
20
38.688
0
VERTEX
8
CONTOURS_MINEURES
10
61.938
20
38.065
0
VERTEX
8
CONTOURS_MINEURES
10
60.004
20
37.458
0
VERTEX
8
CONTOURS_MINEURES
10
56.574
20
36.566
0
VERTEX
8
CONTOURS_MINEURES
10
55.004
20
36.239
0
VERTEX
8
CONTOURS_MINEURES
10
51.976
20
34.995
0
VERTEX
8
CONTOURS_MINEURES
10
50.549
20
34.450
0
VERTEX
8
CONTOURS_MINEURES
10
50.004
20
34.157
0
VERTEX
8
CONTOURS_MINEURES
10
48.708
20
33.699
0
VERTEX
8
CONTOURS_MINEURES
10
45.005
20
32.421
0
VERTEX
8
CONTOURS_MINEURES
10
43.063
20
31.939
0
VERTEX
8
CONTOURS_MINEURES
10
40.005
20
31.010
0
VERTEX
8
CONTOURS_MINEURES
10
36.986
20
29.998
0
VERTEX
8
CONTOURS_MINEURES
10
35.005
20
27.900
0
VERTEX
8
CONTOURS_MINEURES
10
33.915
20
26.091
0
VERTEX
8
CONTOURS_MINEURES
10
33.146
20
25.002
0
VERTEX
8
CONTOURS_MINEURES
10
30.005
20
21.942
0
VERTEX
8
CONTOURS_MINEURES
10
27.422
20
20.006
0
VERTEX
8
CONTOURS_MINEURES
10
26.012
20
18.997
0
VERTEX
8
CONTOURS_MINEURES
10
25.005
20
17.266
0
VERTEX
8
CONTOURS_MINEURES
10
23.593
20
14.998
0
VERTEX
8
CONTOURS_MINEURES
10
21.986
20
13.019
0
VERTEX
8
CONTOURS_MINEURES
10
20.401
20
10.002
0
VERTEX
8
CONTOURS_MINEURES
10
20.005
20
9.151
0
VERTEX
8
CONTOURS_MINEURES
10
18.479
20
6.528
0
VERTEX
8
CONTOURS_MINEURES
10
17.810
20
5.005
0
VERTEX
8
CONTOURS_MINEURES
10
15.663
20
0.665
0
VERTEX
8
CONTOURS_MINEURES
10
15.349
20
-0.002
0
SEQEND
0
POLYLINE
8
CONTOURS_MINEURES
66
1
70
0
0
VERTEX
8
CONTOURS_MINEURES
10
200.000
20
9.956
0
VERTEX
8
CONTOURS_MINEURES
10
196.461
20
8.542
0
VERTEX
8
CONTOURS_MINEURES
10
195.000
20
7.432
0
VERTEX
8
CONTOURS_MINEURES
10
191.367
20
5.005
0
VERTEX
8
CONTOURS_MINEURES
10
190.717
20
4.287
0
VERTEX
8
CONTOURS_MINEURES
10
190.000
20
3.244
0
VERTEX
8
CONTOURS_MINEURES
10
187.268
20
-0.002
0
SEQEND
0
POLYLINE
8
CONTOURS_MINEURES
66
1
70
0
0
VERTEX
8
CONTOURS_MINEURES
10
118.782
20
-0.002
0
VERTEX
8
CONTOURS_MINEURES
10
119.176
20
4.178
0
VERTEX
8
CONTOURS_MINEURES
10
119.123
20
5.005
0
VERTEX
8
CONTOURS_MINEURES
10
118.158
20
8.159
0
VERTEX
8
CONTOURS_MINEURES
10
117.701
20
10.002
0
VERTEX
8
CONTOURS_MINEURES
10
117.081
20
12.921
0
VERTEX
8
CONTOURS_MINEURES
10
116.531
20
14.998
0
VERTEX
8
CONTOURS_MINEURES
10
116.188
20
16.186
0
VERTEX
8
CONTOURS_MINEURES
10
115.002
20
19.517
0
VERTEX
8
CONTOURS_MINEURES
10
114.828
20
20.006
0
VERTEX
8
CONTOURS_MINEURES
10
112.671
20
22.672
0
VERTEX
8
CONTOURS_MINEURES
10
110.294
20
25.002
0
VERTEX
8
CONTOURS_MINEURES
10
110.121
20
25.120
0
VERTEX
8
CONTOURS_MINEURES
10
110.002
20
25.157
0
VERTEX
8
CONTOURS_MINEURES
10
109.746
20
25.258
0
VERTEX
8
CONTOURS_MINEURES
10
105.003
20
27.597
0
VERTEX
8
CONTOURS_MINEURES
10
103.511
20
28.507
0
VERTEX
8
CONTOURS_MINEURES
10
100.003
20
29.710
0
VERTEX
8
CONTOURS_MINEURES
10
99.558
20
29.998
0
VERTEX
8
CONTOURS_MINEURES
10
96.923
20
31.917
0
VERTEX
8
CONTOURS_MINEURES
10
95.003
20
33.276
0
VERTEX
8
CONTOURS_MINEURES
10
91.996
20
34.995
0
VERTEX
8
CONTOURS_MINEURES
10
90.875
20
35.868
0
VERTEX
8
CONTOURS_MINEURES
10
90.003
20
36.292
0
VERTEX
8
CONTOURS_MINEURES
10
88.064
20
36.936
0
VERTEX
8
CONTOURS_MINEURES
10
85.003
20
37.954
0
VERTEX
8
CONTOURS_MINEURES
10
83.245
20
38.242
0
VERTEX
8
CONTOURS_MINEURES
10
80.003
20
38.689
0
VERTEX
8
CONTOURS_MINEURES
10
76.363
20
38.641
0
VERTEX
8
CONTOURS_MINEURES
10
75.004
20
38.641
0
VERTEX
8
CONTOURS_MINEURES
10
71.710
20
38.293
0
VERTEX
8
CONTOURS_MINEURES
10
70.004
20
38.138
0
VERTEX
8
CONTOURS_MINEURES
10
66.819
20
36.812
0
VERTEX
8
CONTOURS_MINEURES
10
65.004
20
36.209
0
VERTEX
8
CONTOURS_MINEURES
10
63.996
20
36.004
0
VERTEX
8
CONTOURS_MINEURES
10
60.780
20
34.995
0
VERTEX
8
CONTOURS_MINEURES
10
60.004
20
34.764
0
VERTEX
8
CONTOURS_MINEURES
10
56.177
20
33.823
0
VERTEX
8
CONTOURS_MINEURES
10
55.004
20
33.464
0
VERTEX
8
CONTOURS_MINEURES
10
52.495
20
32.506
0
VERTEX
8
CONTOURS_MINEURES
10
50.004
20
31.165
0
VERTEX
8
CONTOURS_MINEURES
10
46.699
20
29.998
0
VERTEX
8
CONTOURS_MINEURES
10
45.534
20
29.470
0
VERTEX
8
CONTOURS_MINEURES
10
45.005
20
29.028
0
VERTEX
8
CONTOURS_MINEURES
10
41.556
20
26.553
0
VERTEX
8
CONTOURS_MINEURES
10
40.005
20
25.586
0
VERTEX
8
CONTOURS_MINEURES
10
39.442
20
25.002
0
VERTEX
8
CONTOURS_MINEURES
10
36.934
20
23.074
0
VERTEX
8
CONTOURS_MINEURES
10
35.005
20
21.146
0
VERTEX
8
CONTOURS_MINEURES
10
33.838
20
20.006
0
VERTEX
8
CONTOURS_MINEURES
10
30.005
20
15.892
0
VERTEX
8
CONTOURS_MINEURES
10
29.484
20
15.520
0
VERTEX
8
CONTOURS_MINEURES
10
29.181
20
14.998
0
VERTEX
8
CONTOURS_MINEURES
10
27.105
20
12.900
0
VERTEX
8
CONTOURS_MINEURES
10
25.318
20
10.002
0
VERTEX
8
CONTOURS_MINEURES
10
25.005
20
9.464
0
VERTEX
8
CONTOURS_MINEURES
10
22.568
20
5.005
0
VERTEX
8
CONTOURS_MINEURES
10
21.334
20
1.329
0
VERTEX
8
CONTOURS_MINEURES
10
20.807
20
-0.002
0
SEQEND
0
POLYLINE
8
CONTOURS_MINEURES
66
1
70
0
0
VERTEX
8
CONTOURS_MINEURES
10
200.000
20
7.685
0
VERTEX
8
CONTOURS_MINEURES
10
198.084
20
6.919
0
VERTEX
8
CONTOURS_MINEURES
10
195.564
20
5.005
0
VERTEX
8
CONTOURS_MINEURES
10
195.000
20
4.297
0
VERTEX
8
CONTOURS_MINEURES
10
192.959
20
2.041
0
VERTEX
8
CONTOURS_MINEURES
10
191.553
20
-0.002
0
SEQEND
0
POLYLINE
8
CONTOURS_MINEURES
66
1
70
0
0
VERTEX
8
CONTOURS_MINEURES
10
114.881
20
-0.002
0
VERTEX
8
CONTOURS_MINEURES
10
114.683
20
4.685
0
VERTEX
8
CONTOURS_MINEURES
10
114.665
20
5.005
0
VERTEX
8
CONTOURS_MINEURES
10
113.981
20
8.981
0
VERTEX
8
CONTOURS_MINEURES
10
113.685
20
10.002
0
VERTEX
8
CONTOURS_MINEURES
10
113.197
20
11.806
0
VERTEX
8
CONTOURS_MINEURES
10
112.616
20
14.998
0
VERTEX
8
CONTOURS_MINEURES
10
110.746
20
19.261
0
VERTEX
8
CONTOURS_MINEURES
10
110.481
20
20.006
0
VERTEX
8
CONTOURS_MINEURES
10
110.267
20
20.270
0
VERTEX
8
CONTOURS_MINEURES
10
110.002
20
20.529
0
VERTEX
8
CONTOURS_MINEURES
10
105.880
20
25.002
0
VERTEX
8
CONTOURS_MINEURES
10
105.003
20
25.435
0
VERTEX
8
CONTOURS_MINEURES
10
102.167
20
27.164
0
VERTEX
8
CONTOURS_MINEURES
10
100.003
20
27.906
0
VERTEX
8
CONTOURS_MINEURES
10
96.781
20
29.998
0
VERTEX
8
CONTOURS_MINEURES
10
95.752
20
30.747
0
VERTEX
8
CONTOURS_MINEURES
10
95.003
20
31.277
0
VERTEX
8
CONTOURS_MINEURES
10
92.012
20
32.987
0
VERTEX
8
CONTOURS_MINEURES
10
90.003
20
34.069
0
VERTEX
8
CONTOURS_MINEURES
10
89.254
20
34.246
0
VERTEX
8
CONTOURS_MINEURES
10
87.058
20
34.995
0
VERTEX
8
CONTOURS_MINEURES
10
85.003
20
35.678
0
VERTEX
8
CONTOURS_MINEURES
10
81.292
20
36.286
0
VERTEX
8
CONTOURS_MINEURES
10
80.003
20
36.464
0
VERTEX
8
CONTOURS_MINEURES
10
78.556
20
36.444
0
VERTEX
8
CONTOURS_MINEURES
10
75.004
20
36.444
0
VERTEX
8
CONTOURS_MINEURES
10
73.694
20
36.306
0
VERTEX
8
CONTOURS_MINEURES
10
70.004
20
35.970
0
VERTEX
8
CONTOURS_MINEURES
10
67.660
20
34.995
0
VERTEX
8
CONTOURS_MINEURES
10
65.784
20
34.215
0
VERTEX
8
CONTOURS_MINEURES
10
65.004
20
33.688
0
VERTEX
8
CONTOURS_MINEURES
10
63.143
20
33.135
0
VERTEX
8
CONTOURS_MINEURES
10
60.004
20
32.202
0
VERTEX
8
CONTOURS_MINEURES
10
58.235
20
31.767
0
VERTEX
8
CONTOURS_MINEURES
10
55.004
20
30.777
0
VERTEX
8
CONTOURS_MINEURES
10
54.440
20
30.562
0
VERTEX
8
CONTOURS_MINEURES
10
53.393
20
29.998
0
VERTEX
8
CONTOURS_MINEURES
10
51.348
20
28.656
0
VERTEX
8
CONTOURS_MINEURES
10
50.004
20
27.654
0
VERTEX
8
CONTOURS_MINEURES
10
48.179
20
26.826
0
VERTEX
8
CONTOURS_MINEURES
10
45.993
20
25.002
0
VERTEX
8
CONTOURS_MINEURES
10
45.423
20
24.584
0
VERTEX
8
CONTOURS_MINEURES
10
45.005
20
24.244
0
VERTEX
8
CONTOURS_MINEURES
10
42.171
20
22.171
0
VERTEX
8
CONTOURS_MINEURES
10
40.005
20
20.630
0
VERTEX
8
CONTOURS_MINEURES
10
39.651
20
20.359
0
VERTEX
8
CONTOURS_MINEURES
10
39.298
20
20.006
0
VERTEX
8
CONTOURS_MINEURES
10
37.020
20
17.987
0
VERTEX
8
CONTOURS_MINEURES
10
35.005
20
15.797
0
VERTEX
8
CONTOURS_MINEURES
10
34.255
20
14.998
0
VERTEX
8
CONTOURS_MINEURES
10
30.005
20
10.279
0
VERTEX
8
CONTOURS_MINEURES
10
29.867
20
10.140
0
VERTEX
8
CONTOURS_MINEURES
10
29.782
20
10.002
0
VERTEX
8
CONTOURS_MINEURES
10
29.473
20
9.470
0
VERTEX
8
CONTOURS_MINEURES
10
26.770
20
5.005
0
VERTEX
8
CONTOURS_MINEURES
10
25.005
20
0.961
0
VERTEX
8
CONTOURS_MINEURES
10
24.624
20
-0.002
0
SEQEND
0
POLYLINE
8
CONTOURS_MINEURES
66
1
70
0
0
VERTEX
8
CONTOURS_MINEURES
10
200.000
20
5.414
0
VERTEX
8
CONTOURS_MINEURES
10
199.707
20
5.297
0
VERTEX
8
CONTOURS_MINEURES
10
199.323
20
5.005
0
VERTEX
8
CONTOURS_MINEURES
10
196.666
20
1.667
0
VERTEX
8
CONTOURS_MINEURES
10
195.394
20
-0.002
0
SEQEND
0
POLYLINE
8
CONTOURS_MINEURES
66
1
70
0
0
VERTEX
8
CONTOURS_MINEURES
10
111.851
20
-0.002
0
VERTEX
8
CONTOURS_MINEURES
10
111.776
20
1.774
0
VERTEX
8
CONTOURS_MINEURES
10
111.597
20
5.005
0
VERTEX
8
CONTOURS_MINEURES
10
111.364
20
6.366
0
VERTEX
8
CONTOURS_MINEURES
10
110.306
20
10.002
0
VERTEX
8
CONTOURS_MINEURES
10
110.002
20
11.126
0
VERTEX
8
CONTOURS_MINEURES
10
109.331
20
14.328
0
VERTEX
8
CONTOURS_MINEURES
10
109.057
20
14.998
0
VERTEX
8
CONTOURS_MINEURES
10
107.998
20
17.998
0
VERTEX
8
CONTOURS_MINEURES
10
106.579
20
20.006
0
VERTEX
8
CONTOURS_MINEURES
10
105.003
20
21.699
0
VERTEX
8
CONTOURS_MINEURES
10
103.521
20
23.522
0
VERTEX
8
CONTOURS_MINEURES
10
102.166
20
25.002
0
VERTEX
8
CONTOURS_MINEURES
10
100.823
20
25.821
0
VERTEX
8
CONTOURS_MINEURES
10
100.003
20
26.102
0
VERTEX
8
CONTOURS_MINEURES
10
96.859
20
28.144
0
VERTEX
8
CONTOURS_MINEURES
10
95.003
20
29.220
0
VERTEX
8
CONTOURS_MINEURES
10
94.469
20
29.465
0
VERTEX
8
CONTOURS_MINEURES
10
93.563
20
29.998
0
VERTEX
8
CONTOURS_MINEURES
10
90.003
20
31.915
0
VERTEX
8
CONTOURS_MINEURES
10
87.512
20
32.505
0
VERTEX
8
CONTOURS_MINEURES
10
85.003
20
33.360
0
VERTEX
8
CONTOURS_MINEURES
10
80.958
20
34.040
0
VERTEX
8
CONTOURS_MINEURES
10
80.003
20
34.178
0
VERTEX
8
CONTOURS_MINEURES
10
79.234
20
34.226
0
VERTEX
8
CONTOURS_MINEURES
10
75.004
20
34.226
0
VERTEX
8
CONTOURS_MINEURES
10
74.194
20
34.186
0
VERTEX
8
CONTOURS_MINEURES
10
70.004
20
33.805
0
VERTEX
8
CONTOURS_MINEURES
10
67.313
20
32.688
0
VERTEX
8
CONTOURS_MINEURES
10
65.004
20
31.126
0
VERTEX
8
CONTOURS_MINEURES
10
61.211
20
29.998
0
VERTEX
8
CONTOURS_MINEURES
10
60.004
20
29.564
0
VERTEX
8
CONTOURS_MINEURES
10
59.129
20
29.124
0
VERTEX
8
CONTOURS_MINEURES
10
55.004
20
27.409
0
VERTEX
8
CONTOURS_MINEURES
10
53.551
20
26.455
0
VERTEX
8
CONTOURS_MINEURES
10
51.602
20
25.002
0
VERTEX
8
CONTOURS_MINEURES
10
50.004
20
23.678
0
VERTEX
8
CONTOURS_MINEURES
10
47.886
20
22.122
0
VERTEX
8
CONTOURS_MINEURES
10
45.279
20
20.006
0
VERTEX
8
CONTOURS_MINEURES
10
45.005
20
19.802
0
VERTEX
8
CONTOURS_MINEURES
10
43.868
20
18.867
0
VERTEX
8
CONTOURS_MINEURES
10
40.005
20
15.817
0
VERTEX
8
CONTOURS_MINEURES
10
39.571
20
15.432
0
VERTEX
8
CONTOURS_MINEURES
10
39.171
20
14.998
0
VERTEX
8
CONTOURS_MINEURES
10
35.005
20
10.751
0
VERTEX
8
CONTOURS_MINEURES
10
34.323
20
10.002
0
VERTEX
8
CONTOURS_MINEURES
10
32.453
20
7.555
0
VERTEX
8
CONTOURS_MINEURES
10
30.948
20
5.005
0
VERTEX
8
CONTOURS_MINEURES
10
30.005
20
3.177
0
VERTEX
8
CONTOURS_MINEURES
10
28.467
20
-0.002
0
SEQEND
0
POLYLINE
8
CONTOURS_MINEURES
66
1
70
0
0
VERTEX
8
CONTOURS_MINEURES
10
200.000
20
0.286
0
VERTEX
8
CONTOURS_MINEURES
10
199.780
20
-0.002
0
SEQEND
0
POLYLINE
8
CONTOURS_MINEURES
66
1
70
0
0
VERTEX
8
CONTOURS_MINEURES
10
108.907
20
-0.002
0
VERTEX
8
CONTOURS_MINEURES
10
108.888
20
1.114
0
VERTEX
8
CONTOURS_MINEURES
10
108.698
20
5.005
0
VERTEX
8
CONTOURS_MINEURES
10
108.381
20
6.626
0
VERTEX
8
CONTOURS_MINEURES
10
107.620
20
10.002
0
VERTEX
8
CONTOURS_MINEURES
10
107.167
20
12.165
0
VERTEX
8
CONTOURS_MINEURES
10
106.009
20
14.998
0
VERTEX
8
CONTOURS_MINEURES
10
105.746
20
15.742
0
VERTEX
8
CONTOURS_MINEURES
10
105.003
20
16.794
0
VERTEX
8
CONTOURS_MINEURES
10
103.023
20
20.006
0
VERTEX
8
CONTOURS_MINEURES
10
101.669
20
21.671
0
VERTEX
8
CONTOURS_MINEURES
10
100.003
20
23.491
0
VERTEX
8
CONTOURS_MINEURES
10
98.548
20
25.002
0
VERTEX
8
CONTOURS_MINEURES
10
95.003
20
27.057
0
VERTEX
8
CONTOURS_MINEURES
10
92.985
20
27.982
0
VERTEX
8
CONTOURS_MINEURES
10
90.003
20
29.739
0
VERTEX
8
CONTOURS_MINEURES
10
89.003
20
29.998
0
VERTEX
8
CONTOURS_MINEURES
10
85.770
20
30.764
0
VERTEX
8
CONTOURS_MINEURES
10
85.003
20
31.026
0
VERTEX
8
CONTOURS_MINEURES
10
83.767
20
31.233
0
VERTEX
8
CONTOURS_MINEURES
10
80.003
20
31.776
0
VERTEX
8
CONTOURS_MINEURES
10
76.972
20
31.965
0
VERTEX
8
CONTOURS_MINEURES
10
75.004
20
31.965
0
VERTEX
8
CONTOURS_MINEURES
10
71.813
20
31.807
0
VERTEX
8
CONTOURS_MINEURES
10
70.004
20
31.642
0
VERTEX
8
CONTOURS_MINEURES
10
68.842
20
31.160
0
VERTEX
8
CONTOURS_MINEURES
10
67.125
20
29.998
0
VERTEX
8
CONTOURS_MINEURES
10
65.004
20
28.541
0
VERTEX
8
CONTOURS_MINEURES
10
62.286
20
27.282
0
VERTEX
8
CONTOURS_MINEURES
10
60.004
20
26.461
0
VERTEX
8
CONTOURS_MINEURES
10
57.103
20
25.002
0
VERTEX
8
CONTOURS_MINEURES
10
55.846
20
24.161
0
VERTEX
8
CONTOURS_MINEURES
10
55.004
20
23.429
0
VERTEX
8
CONTOURS_MINEURES
10
50.800
20
20.006
0
VERTEX
8
CONTOURS_MINEURES
10
50.307
20
19.702
0
VERTEX
8
CONTOURS_MINEURES
10
50.004
20
19.474
0
VERTEX
8
CONTOURS_MINEURES
10
47.817
20
17.815
0
VERTEX
8
CONTOURS_MINEURES
10
45.005
20
15.731
0
VERTEX
8
CONTOURS_MINEURES
10
44.113
20
14.998
0
VERTEX
8
CONTOURS_MINEURES
10
41.900
20
13.104
0
VERTEX
8
CONTOURS_MINEURES
10
40.005
20
11.086
0
VERTEX
8
CONTOURS_MINEURES
10
38.940
20
10.002
0
VERTEX
8
CONTOURS_MINEURES
10
35.213
20
5.213
0
VERTEX
8
CONTOURS_MINEURES
10
35.043
20
5.005
0
VERTEX
8
CONTOURS_MINEURES
10
35.028
20
4.982
0
VERTEX
8
CONTOURS_MINEURES
10
35.005
20
4.941
0
VERTEX
8
CONTOURS_MINEURES
10
32.195
20
-0.002
0
SEQEND
0
POLYLINE
8
CONTOURS_MINEURES
66
1
70
0
0
VERTEX
8
CONTOURS_MINEURES
10
106.098
20
-0.002
0
VERTEX
8
CONTOURS_MINEURES
10
106.031
20
3.975
0
VERTEX
8
CONTOURS_MINEURES
10
105.981
20
5.005
0
VERTEX
8
CONTOURS_MINEURES
10
105.003
20
10.002
0
VERTEX
8
CONTOURS_MINEURES
10
102.985
20
14.998
0
VERTEX
8
CONTOURS_MINEURES
10
100.003
20
19.546
0
VERTEX
8
CONTOURS_MINEURES
10
99.818
20
19.821
0
VERTEX
8
CONTOURS_MINEURES
10
99.665
20
20.006
0
VERTEX
8
CONTOURS_MINEURES
10
95.003
20
24.827
0
VERTEX
8
CONTOURS_MINEURES
10
94.911
20
24.910
0
VERTEX
8
CONTOURS_MINEURES
10
94.767
20
25.002
0
VERTEX
8
CONTOURS_MINEURES
10
91.502
20
26.499
0
VERTEX
8
CONTOURS_MINEURES
10
90.003
20
27.382
0
VERTEX
8
CONTOURS_MINEURES
10
86.787
20
28.216
0
VERTEX
8
CONTOURS_MINEURES
10
85.003
20
28.808
0
VERTEX
8
CONTOURS_MINEURES
10
83.922
20
28.918
0
VERTEX
8
CONTOURS_MINEURES
10
80.003
20
29.431
0
VERTEX
8
CONTOURS_MINEURES
10
75.304
20
29.698
0
VERTEX
8
CONTOURS_MINEURES
10
75.004
20
29.727
0
VERTEX
8
CONTOURS_MINEURES
10
70.484
20
29.519
0
VERTEX
8
CONTOURS_MINEURES
10
70.004
20
29.461
0
VERTEX
8
CONTOURS_MINEURES
10
68.004
20
28.000
0
VERTEX
8
CONTOURS_MINEURES
10
65.004
20
25.939
0
VERTEX
8
CONTOURS_MINEURES
10
62.981
20
25.002
0
VERTEX
8
CONTOURS_MINEURES
10
60.004
20
22.813
0
VERTEX
8
CONTOURS_MINEURES
10
58.321
20
21.687
0
VERTEX
8
CONTOURS_MINEURES
10
56.387
20
20.006
0
VERTEX
8
CONTOURS_MINEURES
10
55.004
20
19.095
0
VERTEX
8
CONTOURS_MINEURES
10
52.472
20
17.534
0
VERTEX
8
CONTOURS_MINEURES
10
50.004
20
15.681
0
VERTEX
8
CONTOURS_MINEURES
10
49.104
20
14.998
0
VERTEX
8
CONTOURS_MINEURES
10
45.005
20
11.526
0
VERTEX
8
CONTOURS_MINEURES
10
44.183
20
10.823
0
VERTEX
8
CONTOURS_MINEURES
10
43.412
20
10.002
0
VERTEX
8
CONTOURS_MINEURES
10
40.005
20
6.372
0
VERTEX
8
CONTOURS_MINEURES
10
38.889
20
5.005
0
VERTEX
8
CONTOURS_MINEURES
10
37.365
20
2.642
0
VERTEX
8
CONTOURS_MINEURES
10
35.850
20
-0.002
0
SEQEND
0
POLYLINE
8
CONTOURS_MINEURES
66
1
70
0
0
VERTEX
8
CONTOURS_MINEURES
10
103.260
20
-0.002
0
VERTEX
8
CONTOURS_MINEURES
10
103.289
20
1.714
0
VERTEX
8
CONTOURS_MINEURES
10
103.235
20
5.005
0
VERTEX
8
CONTOURS_MINEURES
10
102.699
20
7.699
0
VERTEX
8
CONTOURS_MINEURES
10
102.209
20
10.002
0
VERTEX
8
CONTOURS_MINEURES
10
100.003
20
14.936
0
VERTEX
8
CONTOURS_MINEURES
10
99.972
20
14.998
0
VERTEX
8
CONTOURS_MINEURES
10
97.973
20
17.973
0
VERTEX
8
CONTOURS_MINEURES
10
96.287
20
20.006
0
VERTEX
8
CONTOURS_MINEURES
10
95.003
20
21.333
0
VERTEX
8
CONTOURS_MINEURES
10
93.073
20
23.073
0
VERTEX
8
CONTOURS_MINEURES
10
90.050
20
25.002
0
VERTEX
8
CONTOURS_MINEURES
10
90.018
20
25.017
0
VERTEX
8
CONTOURS_MINEURES
10
90.003
20
25.026
0
VERTEX
8
CONTOURS_MINEURES
10
89.971
20
25.034
0
VERTEX
8
CONTOURS_MINEURES
10
85.003
20
26.682
0
VERTEX
8
CONTOURS_MINEURES
10
81.992
20
26.989
0
VERTEX
8
CONTOURS_MINEURES
10
80.003
20
27.249
0
VERTEX
8
CONTOURS_MINEURES
10
77.619
20
27.384
0
VERTEX
8
CONTOURS_MINEURES
10
75.004
20
27.636
0
VERTEX
8
CONTOURS_MINEURES
10
72.484
20
27.520
0
VERTEX
8
CONTOURS_MINEURES
10
70.004
20
27.220
0
VERTEX
8
CONTOURS_MINEURES
10
66.967
20
25.002
0
VERTEX
8
CONTOURS_MINEURES
10
66.123
20
23.884
0
VERTEX
8
CONTOURS_MINEURES
10
65.004
20
22.616
0
VERTEX
8
CONTOURS_MINEURES
10
61.573
20
20.006
0
VERTEX
8
CONTOURS_MINEURES
10
60.619
20
19.389
0
VERTEX
8
CONTOURS_MINEURES
10
60.004
20
19.010
0
VERTEX
8
CONTOURS_MINEURES
10
56.739
20
16.735
0
VERTEX
8
CONTOURS_MINEURES
10
55.004
20
15.593
0
VERTEX
8
CONTOURS_MINEURES
10
54.636
20
15.367
0
VERTEX
8
CONTOURS_MINEURES
10
54.146
20
14.998
0
VERTEX
8
CONTOURS_MINEURES
10
50.004
20
11.667
0
VERTEX
8
CONTOURS_MINEURES
10
48.052
20
10.002
0
VERTEX
8
CONTOURS_MINEURES
10
46.663
20
8.345
0
VERTEX
8
CONTOURS_MINEURES
10
45.005
20
6.897
0
VERTEX
8
CONTOURS_MINEURES
10
43.232
20
5.005
0
VERTEX
8
CONTOURS_MINEURES
10
40.005
20
0.773
0
VERTEX
8
CONTOURS_MINEURES
10
39.701
20
0.302
0
VERTEX
8
CONTOURS_MINEURES
10
39.527
20
-0.002
0
SEQEND
0
POLYLINE
8
CONTOURS_MINEURES
66
1
70
0
0
VERTEX
8
CONTOURS_MINEURES
10
100.403
20
-0.002
0
VERTEX
8
CONTOURS_MINEURES
10
100.480
20
4.527
0
VERTEX
8
CONTOURS_MINEURES
10
100.472
20
5.005
0
VERTEX
8
CONTOURS_MINEURES
10
100.394
20
5.397
0
VERTEX
8
CONTOURS_MINEURES
10
100.003
20
7.240
0
VERTEX
8
CONTOURS_MINEURES
10
99.486
20
9.485
0
VERTEX
8
CONTOURS_MINEURES
10
99.366
20
10.002
0
VERTEX
8
CONTOURS_MINEURES
10
98.722
20
11.281
0
VERTEX
8
CONTOURS_MINEURES
10
96.886
20
14.998
0
VERTEX
8
CONTOURS_MINEURES
10
96.128
20
16.125
0
VERTEX
8
CONTOURS_MINEURES
10
95.003
20
17.481
0
VERTEX
8
CONTOURS_MINEURES
10
92.600
20
20.006
0
VERTEX
8
CONTOURS_MINEURES
10
91.235
20
21.236
0
VERTEX
8
CONTOURS_MINEURES
10
90.003
20
22.022
0
VERTEX
8
CONTOURS_MINEURES
10
86.196
20
23.810
0
VERTEX
8
CONTOURS_MINEURES
10
85.003
20
24.429
0
VERTEX
8
CONTOURS_MINEURES
10
80.628
20
25.002
0
VERTEX
8
CONTOURS_MINEURES
10
80.061
20
25.060
0
VERTEX
8
CONTOURS_MINEURES
10
80.003
20
25.067
0
VERTEX
8
CONTOURS_MINEURES
10
79.934
20
25.071
0
VERTEX
8
CONTOURS_MINEURES
10
75.004
20
25.545
0
VERTEX
8
CONTOURS_MINEURES
10
74.484
20
25.522
0
VERTEX
8
CONTOURS_MINEURES
10
70.189
20
25.002
0
VERTEX
8
CONTOURS_MINEURES
10
70.004
20
24.961
0
VERTEX
8
CONTOURS_MINEURES
10
67.871
20
22.137
0
VERTEX
8
CONTOURS_MINEURES
10
65.991
20
20.006
0
VERTEX
8
CONTOURS_MINEURES
10
65.004
20
19.055
0
VERTEX
8
CONTOURS_MINEURES
10
62.542
20
17.463
0
VERTEX
8
CONTOURS_MINEURES
10
60.004
20
15.900
0
VERTEX
8
CONTOURS_MINEURES
10
58.709
20
14.998
0
VERTEX
8
CONTOURS_MINEURES
10
56.849
20
13.155
0
VERTEX
8
CONTOURS_MINEURES
10
55.004
20
11.571
0
VERTEX
8
CONTOURS_MINEURES
10
53.046
20
10.002
0
VERTEX
8
CONTOURS_MINEURES
10
51.533
20
8.474
0
VERTEX
8
CONTOURS_MINEURES
10
50.004
20
6.652
0
VERTEX
8
CONTOURS_MINEURES
10
49.253
20
5.756
0
VERTEX
8
CONTOURS_MINEURES
10
48.393
20
5.005
0
VERTEX
8
CONTOURS_MINEURES
10
46.911
20
3.096
0
VERTEX
8
CONTOURS_MINEURES
10
45.005
20
0.821
0
VERTEX
8
CONTOURS_MINEURES
10
44.398
20
-0.002
0
SEQEND
0
POLYLINE
8
CONTOURS_MINEURES
66
1
70
0
0
VERTEX
8
CONTOURS_MINEURES
10
97.349
20
-0.002
0
VERTEX
8
CONTOURS_MINEURES
10
97.443
20
2.561
0
VERTEX
8
CONTOURS_MINEURES
10
97.488
20
5.005
0
VERTEX
8
CONTOURS_MINEURES
10
97.023
20
7.024
0
VERTEX
8
CONTOURS_MINEURES
10
96.336
20
10.002
0
VERTEX
8
CONTOURS_MINEURES
10
95.003
20
12.650
0
VERTEX
8
CONTOURS_MINEURES
10
94.113
20
14.108
0
VERTEX
8
CONTOURS_MINEURES
10
93.600
20
14.998
0
VERTEX
8
CONTOURS_MINEURES
10
90.003
20
18.763
0
VERTEX
8
CONTOURS_MINEURES
10
89.273
20
19.274
0
VERTEX
8
CONTOURS_MINEURES
10
88.266
20
20.006
0
VERTEX
8
CONTOURS_MINEURES
10
85.003
20
21.698
0
VERTEX
8
CONTOURS_MINEURES
10
83.054
20
21.954
0
VERTEX
8
CONTOURS_MINEURES
10
80.003
20
22.424
0
VERTEX
8
CONTOURS_MINEURES
10
77.246
20
22.761
0
VERTEX
8
CONTOURS_MINEURES
10
75.004
20
22.617
0
VERTEX
8
CONTOURS_MINEURES
10
71.150
20
21.151
0
VERTEX
8
CONTOURS_MINEURES
10
70.004
20
20.899
0
VERTEX
8
CONTOURS_MINEURES
10
69.619
20
20.390
0
VERTEX
8
CONTOURS_MINEURES
10
69.280
20
20.006
0
VERTEX
8
CONTOURS_MINEURES
10
65.004
20
15.885
0
VERTEX
8
CONTOURS_MINEURES
10
64.465
20
15.537
0
VERTEX
8
CONTOURS_MINEURES
10
63.590
20
14.998
0
VERTEX
8
CONTOURS_MINEURES
10
60.004
20
11.859
0
VERTEX
8
CONTOURS_MINEURES
10
59.071
20
10.934
0
VERTEX
8
CONTOURS_MINEURES
10
57.985
20
10.002
0
VERTEX
8
CONTOURS_MINEURES
10
56.480
20
8.527
0
VERTEX
8
CONTOURS_MINEURES
10
55.004
20
6.775
0
VERTEX
8
CONTOURS_MINEURES
10
54.123
20
5.885
0
VERTEX
8
CONTOURS_MINEURES
10
53.385
20
5.005
0
VERTEX
8
CONTOURS_MINEURES
10
50.147
20
0.141
0
VERTEX
8
CONTOURS_MINEURES
10
50.047
20
-0.002
0
SEQEND
0
POLYLINE
8
CONTOURS_MINEURES
66
1
70
0
0
VERTEX
8
CONTOURS_MINEURES
10
94.133
20
-0.002
0
VERTEX
8
CONTOURS_MINEURES
10
94.146
20
0.856
0
VERTEX
8
CONTOURS_MINEURES
10
94.331
20
5.005
0
VERTEX
8
CONTOURS_MINEURES
10
93.375
20
8.375
0
VERTEX
8
CONTOURS_MINEURES
10
92.944
20
10.002
0
VERTEX
8
CONTOURS_MINEURES
10
91.830
20
11.827
0
VERTEX
8
CONTOURS_MINEURES
10
90.003
20
14.998
0
VERTEX
8
CONTOURS_MINEURES
10
87.061
20
17.059
0
VERTEX
8
CONTOURS_MINEURES
10
85.003
20
18.553
0
VERTEX
8
CONTOURS_MINEURES
10
83.702
20
18.702
0
VERTEX
8
CONTOURS_MINEURES
10
80.003
20
19.620
0
VERTEX
8
CONTOURS_MINEURES
10
75.752
20
19.256
0
VERTEX
8
CONTOURS_MINEURES
10
75.004
20
19.125
0
VERTEX
8
CONTOURS_MINEURES
10
73.786
20
18.786
0
VERTEX
8
CONTOURS_MINEURES
10
70.004
20
17.155
0
VERTEX
8
CONTOURS_MINEURES
10
67.752
20
14.998
0
VERTEX
8
CONTOURS_MINEURES
10
66.327
20
13.675
0
VERTEX
8
CONTOURS_MINEURES
10
65.004
20
12.000
0
VERTEX
8
CONTOURS_MINEURES
10
62.740
20
10.002
0
VERTEX
8
CONTOURS_MINEURES
10
60.004
20
7.268
0
VERTEX
8
CONTOURS_MINEURES
10
58.861
20
6.147
0
VERTEX
8
CONTOURS_MINEURES
10
57.899
20
5.005
0
VERTEX
8
CONTOURS_MINEURES
10
55.004
20
1.023
0
VERTEX
8
CONTOURS_MINEURES
10
54.284
20
-0.002
0
SEQEND
0
POLYLINE
8
CONTOURS_MINEURES
66
1
70
0
0
VERTEX
8
CONTOURS_MINEURES
10
90.510
20
-0.002
0
VERTEX
8
CONTOURS_MINEURES
10
90.575
20
4.433
0
VERTEX
8
CONTOURS_MINEURES
10
90.600
20
5.005
0
VERTEX
8
CONTOURS_MINEURES
10
90.468
20
5.470
0
VERTEX
8
CONTOURS_MINEURES
10
90.003
20
7.226
0
VERTEX
8
CONTOURS_MINEURES
10
89.032
20
10.002
0
VERTEX
8
CONTOURS_MINEURES
10
85.003
20
14.609
0
VERTEX
8
CONTOURS_MINEURES
10
82.670
20
14.998
0
VERTEX
8
CONTOURS_MINEURES
10
80.277
20
15.272
0
VERTEX
8
CONTOURS_MINEURES
10
80.003
20
15.340
0
VERTEX
8
CONTOURS_MINEURES
10
79.688
20
15.313
0
VERTEX
8
CONTOURS_MINEURES
10
77.898
20
14.998
0
VERTEX
8
CONTOURS_MINEURES
10
75.004
20
14.540
0
VERTEX
8
CONTOURS_MINEURES
10
71.370
20
13.632
0
VERTEX
8
CONTOURS_MINEURES
10
70.004
20
13.545
0
VERTEX
8
CONTOURS_MINEURES
10
68.166
20
11.839
0
VERTEX
8
CONTOURS_MINEURES
10
66.714
20
10.002
0
VERTEX
8
CONTOURS_MINEURES
10
66.208
20
8.799
0
VERTEX
8
CONTOURS_MINEURES
10
65.004
20
6.754
0
VERTEX
8
CONTOURS_MINEURES
10
63.254
20
5.005
0
VERTEX
8
CONTOURS_MINEURES
10
61.888
20
3.118
0
VERTEX
8
CONTOURS_MINEURES
10
60.004
20
1.830
0
VERTEX
8
CONTOURS_MINEURES
10
58.677
20
-0.002
0
SEQEND
0
POLYLINE
8
CONTOURS_MINEURES
66
1
70
0
0
VERTEX
8
CONTOURS_MINEURES
10
86.058
20
-0.002
0
VERTEX
8
CONTOURS_MINEURES
10
86.078
20
1.074
0
VERTEX
8
CONTOURS_MINEURES
10
86.219
20
5.005
0
VERTEX
8
CONTOURS_MINEURES
10
85.003
20
8.071
0
VERTEX
8
CONTOURS_MINEURES
10
84.069
20
9.068
0
VERTEX
8
CONTOURS_MINEURES
10
82.261
20
10.002
0
VERTEX
8
CONTOURS_MINEURES
10
80.003
20
10.662
0
VERTEX
8
CONTOURS_MINEURES
10
75.449
20
10.447
0
VERTEX
8
CONTOURS_MINEURES
10
75.004
20
10.376
0
VERTEX
8
CONTOURS_MINEURES
10
74.704
20
10.301
0
VERTEX
8
CONTOURS_MINEURES
10
70.004
20
10.002
0
VERTEX
8
CONTOURS_MINEURES
10
68.522
20
6.486
0
VERTEX
8
CONTOURS_MINEURES
10
67.651
20
5.005
0
VERTEX
8
CONTOURS_MINEURES
10
65.901
20
0.897
0
VERTEX
8
CONTOURS_MINEURES
10
65.718
20
-0.002
0
SEQEND
0
POLYLINE
8
CONTOURS_MAJEURES
66
1
70
0
0
VERTEX
8
CONTOURS_MAJEURES
10
160.659
20
-0.002
0
VERTEX
8
CONTOURS_MAJEURES
10
160.863
20
0.861
0
VERTEX
8
CONTOURS_MAJEURES
10
160.001
20
2.502
0
VERTEX
8
CONTOURS_MAJEURES
10
158.334
20
5.005
0
VERTEX
8
CONTOURS_MAJEURES
10
155.001
20
7.178
0
VERTEX
8
CONTOURS_MAJEURES
10
153.453
20
8.455
0
VERTEX
8
CONTOURS_MAJEURES
10
151.580
20
10.002
0
VERTEX
8
CONTOURS_MAJEURES
10
150.001
20
12.143
0
VERTEX
8
CONTOURS_MAJEURES
10
149.150
20
14.148
0
VERTEX
8
CONTOURS_MAJEURES
10
148.711
20
14.998
0
VERTEX
8
CONTOURS_MAJEURES
10
146.495
20
16.494
0
VERTEX
8
CONTOURS_MAJEURES
10
145.001
20
17.055
0
VERTEX
8
CONTOURS_MAJEURES
10
142.746
20
17.256
0
VERTEX
8
CONTOURS_MAJEURES
10
140.001
20
17.360
0
VERTEX
8
CONTOURS_MAJEURES
10
137.409
20
17.409
0
VERTEX
8
CONTOURS_MAJEURES
10
135.002
20
18.253
0
VERTEX
8
CONTOURS_MAJEURES
10
134.068
20
19.071
0
VERTEX
8
CONTOURS_MAJEURES
10
133.602
20
20.006
0
VERTEX
8
CONTOURS_MAJEURES
10
130.002
20
22.816
0
VERTEX
8
CONTOURS_MAJEURES
10
128.616
20
23.617
0
VERTEX
8
CONTOURS_MAJEURES
10
125.884
20
25.002
0
VERTEX
8
CONTOURS_MAJEURES
10
125.002
20
25.402
0
VERTEX
8
CONTOURS_MAJEURES
10
123.685
20
28.682
0
VERTEX
8
CONTOURS_MAJEURES
10
122.936
20
29.998
0
VERTEX
8
CONTOURS_MAJEURES
10
120.002
20
34.532
0
VERTEX
8
CONTOURS_MAJEURES
10
119.695
20
34.688
0
VERTEX
8
CONTOURS_MAJEURES
10
118.891
20
34.995
0
VERTEX
8
CONTOURS_MAJEURES
10
115.002
20
36.493
0
VERTEX
8
CONTOURS_MAJEURES
10
111.748
20
36.743
0
VERTEX
8
CONTOURS_MAJEURES
10
110.002
20
37.155
0
VERTEX
8
CONTOURS_MAJEURES
10
105.738
20
40.002
0
VERTEX
8
CONTOURS_MAJEURES
10
105.280
20
40.280
0
VERTEX
8
CONTOURS_MAJEURES
10
105.003
20
40.327
0
VERTEX
8
CONTOURS_MAJEURES
10
101.590
20
41.589
0
VERTEX
8
CONTOURS_MAJEURES
10
100.003
20
42.031
0
VERTEX
8
CONTOURS_MAJEURES
10
95.336
20
44.999
0
VERTEX
8
CONTOURS_MAJEURES
10
95.003
20
45.206
0
VERTEX
8
CONTOURS_MAJEURES
10
91.481
20
46.476
0
VERTEX
8
CONTOURS_MAJEURES
10
90.003
20
47.234
0
VERTEX
8
CONTOURS_MAJEURES
10
87.216
20
47.784
0
VERTEX
8
CONTOURS_MAJEURES
10
85.003
20
48.243
0
VERTEX
8
CONTOURS_MAJEURES
10
83.503
20
48.496
0
VERTEX
8
CONTOURS_MAJEURES
10
80.003
20
49.113
0
VERTEX
8
CONTOURS_MAJEURES
10
75.535
20
49.463
0
VERTEX
8
CONTOURS_MAJEURES
10
75.004
20
49.478
0
VERTEX
8
CONTOURS_MAJEURES
10
70.153
20
49.846
0
VERTEX
8
CONTOURS_MAJEURES
10
70.004
20
49.835
0
VERTEX
8
CONTOURS_MAJEURES
10
69.782
20
49.773
0
VERTEX
8
CONTOURS_MAJEURES
10
65.004
20
49.383
0
VERTEX
8
CONTOURS_MAJEURES
10
64.036
20
49.028
0
VERTEX
8
CONTOURS_MAJEURES
10
60.004
20
47.030
0
VERTEX
8
CONTOURS_MAJEURES
10
58.280
20
46.722
0
VERTEX
8
CONTOURS_MAJEURES
10
55.004
20
46.072
0
VERTEX
8
CONTOURS_MAJEURES
10
50.254
20
45.248
0
VERTEX
8
CONTOURS_MAJEURES
10
50.004
20
45.222
0
VERTEX
8
CONTOURS_MAJEURES
10
49.803
20
45.200
0
VERTEX
8
CONTOURS_MAJEURES
10
48.868
20
44.999
0
VERTEX
8
CONTOURS_MAJEURES
10
45.005
20
44.260
0
VERTEX
8
CONTOURS_MAJEURES
10
41.505
20
43.500
0
VERTEX
8
CONTOURS_MAJEURES
10
40.005
20
42.921
0
VERTEX
8
CONTOURS_MAJEURES
10
37.606
20
42.399
0
VERTEX
8
CONTOURS_MAJEURES
10
35.005
20
41.192
0
VERTEX
8
CONTOURS_MAJEURES
10
32.302
20
40.002
0
VERTEX
8
CONTOURS_MAJEURES
10
30.561
20
39.446
0
VERTEX
8
CONTOURS_MAJEURES
10
30.005
20
39.168
0
VERTEX
8
CONTOURS_MAJEURES
10
26.522
20
38.484
0
VERTEX
8
CONTOURS_MAJEURES
10
25.005
20
37.532
0
VERTEX
8
CONTOURS_MAJEURES
10
21.989
20
38.015
0
VERTEX
8
CONTOURS_MAJEURES
10
20.005
20
37.880
0
VERTEX
8
CONTOURS_MAJEURES
10
17.463
20
37.536
0
VERTEX
8
CONTOURS_MAJEURES
10
14.995
20
35.871
0
VERTEX
8
CONTOURS_MAJEURES
10
13.595
20
34.995
0
VERTEX
8
CONTOURS_MAJEURES
10
9.995
20
32.628
0
VERTEX
8
CONTOURS_MAJEURES
10
6.534
20
31.536
0
VERTEX
8
CONTOURS_MAJEURES
10
4.995
20
31.426
0
VERTEX
8
CONTOURS_MAJEURES
10
3.745
20
31.247
0
VERTEX
8
CONTOURS_MAJEURES
10
-0.005
20
30.198
0
SEQEND
0
POLYLINE
8
CONTOURS_MAJEURES
66
1
70
0
0
VERTEX
8
CONTOURS_MAJEURES
10
200.000
20
20.385
0
VERTEX
8
CONTOURS_MAJEURES
10
199.739
20
20.266
0
VERTEX
8
CONTOURS_MAJEURES
10
199.491
20
20.006
0
VERTEX
8
CONTOURS_MAJEURES
10
196.531
20
18.471
0
VERTEX
8
CONTOURS_MAJEURES
10
195.000
20
17.297
0
VERTEX
8
CONTOURS_MAJEURES
10
193.404
20
16.596
0
VERTEX
8
CONTOURS_MAJEURES
10
190.408
20
14.998
0
VERTEX
8
CONTOURS_MAJEURES
10
190.093
20
14.905
0
VERTEX
8
CONTOURS_MAJEURES
10
190.000
20
14.851
0
VERTEX
8
CONTOURS_MAJEURES
10
189.733
20
14.732
0
VERTEX
8
CONTOURS_MAJEURES
10
185.000
20
13.060
0
VERTEX
8
CONTOURS_MAJEURES
10
182.680
20
12.320
0
VERTEX
8
CONTOURS_MAJEURES
10
180.000
20
11.169
0
VERTEX
8
CONTOURS_MAJEURES
10
178.787
20
10.002
0
VERTEX
8
CONTOURS_MAJEURES
10
176.823
20
8.181
0
VERTEX
8
CONTOURS_MAJEURES
10
176.459
20
5.005
0
VERTEX
8
CONTOURS_MAJEURES
10
176.267
20
3.736
0
VERTEX
8
CONTOURS_MAJEURES
10
175.612
20
-0.002
0
SEQEND
0
POLYLINE
8
CONTOURS_MAJEURES
66
1
70
0
0
VERTEX
8
CONTOURS_MAJEURES
10
114.881
20
-0.002
0
VERTEX
8
CONTOURS_MAJEURES
10
114.683
20
4.685
0
VERTEX
8
CONTOURS_MAJEURES
10
114.665
20
5.005
0
VERTEX
8
CONTOURS_MAJEURES
10
113.981
20
8.981
0
VERTEX
8
CONTOURS_MAJEURES
10
113.685
20
10.002
0
VERTEX
8
CONTOURS_MAJEURES
10
113.197
20
11.806
0
VERTEX
8
CONTOURS_MAJEURES
10
112.616
20
14.998
0
VERTEX
8
CONTOURS_MAJEURES
10
110.746
20
19.261
0
VERTEX
8
CONTOURS_MAJEURES
10
110.481
20
20.006
0
VERTEX
8
CONTOURS_MAJEURES
10
110.267
20
20.270
0
VERTEX
8
CONTOURS_MAJEURES
10
110.002
20
20.529
0
VERTEX
8
CONTOURS_MAJEURES
10
105.880
20
25.002
0
VERTEX
8
CONTOURS_MAJEURES
10
105.003
20
25.435
0
VERTEX
8
CONTOURS_MAJEURES
10
102.167
20
27.164
0
VERTEX
8
CONTOURS_MAJEURES
10
100.003
20
27.906
0
VERTEX
8
CONTOURS_MAJEURES
10
96.781
20
29.998
0
VERTEX
8
CONTOURS_MAJEURES
10
95.752
20
30.747
0
VERTEX
8
CONTOURS_MAJEURES
10
95.003
20
31.277
0
VERTEX
8
CONTOURS_MAJEURES
10
92.012
20
32.987
0
VERTEX
8
CONTOURS_MAJEURES
10
90.003
20
34.069
0
VERTEX
8
CONTOURS_MAJEURES
10
89.254
20
34.246
0
VERTEX
8
CONTOURS_MAJEURES
10
87.058
20
34.995
0
VERTEX
8
CONTOURS_MAJEURES
10
85.003
20
35.678
0
VERTEX
8
CONTOURS_MAJEURES
10
81.292
20
36.286
0
VERTEX
8
CONTOURS_MAJEURES
10
80.003
20
36.464
0
VERTEX
8
CONTOURS_MAJEURES
10
78.556
20
36.444
0
VERTEX
8
CONTOURS_MAJEURES
10
75.004
20
36.444
0
VERTEX
8
CONTOURS_MAJEURES
10
73.694
20
36.306
0
VERTEX
8
CONTOURS_MAJEURES
10
70.004
20
35.970
0
VERTEX
8
CONTOURS_MAJEURES
10
67.660
20
34.995
0
VERTEX
8
CONTOURS_MAJEURES
10
65.784
20
34.215
0
VERTEX
8
CONTOURS_MAJEURES
10
65.004
20
33.688
0
VERTEX
8
CONTOURS_MAJEURES
10
63.143
20
33.135
0
VERTEX
8
CONTOURS_MAJEURES
10
60.004
20
32.202
0
VERTEX
8
CONTOURS_MAJEURES
10
58.235
20
31.767
0
VERTEX
8
CONTOURS_MAJEURES
10
55.004
20
30.777
0
VERTEX
8
CONTOURS_MAJEURES
10
54.440
20
30.562
0
VERTEX
8
CONTOURS_MAJEURES
10
53.393
20
29.998
0
VERTEX
8
CONTOURS_MAJEURES
10
51.348
20
28.656
0
VERTEX
8
CONTOURS_MAJEURES
10
50.004
20
27.654
0
VERTEX
8
CONTOURS_MAJEURES
10
48.179
20
26.826
0
VERTEX
8
CONTOURS_MAJEURES
10
45.993
20
25.002
0
VERTEX
8
CONTOURS_MAJEURES
10
45.423
20
24.584
0
VERTEX
8
CONTOURS_MAJEURES
10
45.005
20
24.244
0
VERTEX
8
CONTOURS_MAJEURES
10
42.171
20
22.171
0
VERTEX
8
CONTOURS_MAJEURES
10
40.005
20
20.630
0
VERTEX
8
CONTOURS_MAJEURES
10
39.651
20
20.359
0
VERTEX
8
CONTOURS_MAJEURES
10
39.298
20
20.006
0
VERTEX
8
CONTOURS_MAJEURES
10
37.020
20
17.987
0
VERTEX
8
CONTOURS_MAJEURES
10
35.005
20
15.797
0
VERTEX
8
CONTOURS_MAJEURES
10
34.255
20
14.998
0
VERTEX
8
CONTOURS_MAJEURES
10
30.005
20
10.279
0
VERTEX
8
CONTOURS_MAJEURES
10
29.867
20
10.140
0
VERTEX
8
CONTOURS_MAJEURES
10
29.782
20
10.002
0
VERTEX
8
CONTOURS_MAJEURES
10
29.473
20
9.470
0
VERTEX
8
CONTOURS_MAJEURES
10
26.770
20
5.005
0
VERTEX
8
CONTOURS_MAJEURES
10
25.005
20
0.961
0
VERTEX
8
CONTOURS_MAJEURES
10
24.624
20
-0.002
0
SEQEND
0
POLYLINE
8
CONTOURS_MAJEURES
66
1
70
0
0
VERTEX
8
CONTOURS_MAJEURES
10
200.000
20
5.414
0
VERTEX
8
CONTOURS_MAJEURES
10
199.707
20
5.297
0
VERTEX
8
CONTOURS_MAJEURES
10
199.323
20
5.005
0
VERTEX
8
CONTOURS_MAJEURES
10
196.666
20
1.667
0
VERTEX
8
CONTOURS_MAJEURES
10
195.394
20
-0.002
0
SEQEND
0
POLYLINE
8
CONTOURS_MAJEURES
66
1
70
0
0
VERTEX
8
CONTOURS_MAJEURES
10
100.403
20
-0.002
0
VERTEX
8
CONTOURS_MAJEURES
10
100.480
20
4.527
0
VERTEX
8
CONTOURS_MAJEURES
10
100.472
20
5.005
0
VERTEX
8
CONTOURS_MAJEURES
10
100.394
20
5.397
0
VERTEX
8
CONTOURS_MAJEURES
10
100.003
20
7.240
0
VERTEX
8
CONTOURS_MAJEURES
10
99.486
20
9.485
0
VERTEX
8
CONTOURS_MAJEURES
10
99.366
20
10.002
0
VERTEX
8
CONTOURS_MAJEURES
10
98.722
20
11.281
0
VERTEX
8
CONTOURS_MAJEURES
10
96.886
20
14.998
0
VERTEX
8
CONTOURS_MAJEURES
10
96.128
20
16.125
0
VERTEX
8
CONTOURS_MAJEURES
10
95.003
20
17.481
0
VERTEX
8
CONTOURS_MAJEURES
10
92.600
20
20.006
0
VERTEX
8
CONTOURS_MAJEURES
10
91.235
20
21.236
0
VERTEX
8
CONTOURS_MAJEURES
10
90.003
20
22.022
0
VERTEX
8
CONTOURS_MAJEURES
10
86.196
20
23.810
0
VERTEX
8
CONTOURS_MAJEURES
10
85.003
20
24.429
0
VERTEX
8
CONTOURS_MAJEURES
10
80.628
20
25.002
0
VERTEX
8
CONTOURS_MAJEURES
10
80.061
20
25.060
0
VERTEX
8
CONTOURS_MAJEURES
10
80.003
20
25.067
0
VERTEX
8
CONTOURS_MAJEURES
10
79.934
20
25.071
0
VERTEX
8
CONTOURS_MAJEURES
10
75.004
20
25.545
0
VERTEX
8
CONTOURS_MAJEURES
10
74.484
20
25.522
0
VERTEX
8
CONTOURS_MAJEURES
10
70.189
20
25.002
0
VERTEX
8
CONTOURS_MAJEURES
10
70.004
20
24.961
0
VERTEX
8
CONTOURS_MAJEURES
10
67.871
20
22.137
0
VERTEX
8
CONTOURS_MAJEURES
10
65.991
20
20.006
0
VERTEX
8
CONTOURS_MAJEURES
10
65.004
20
19.055
0
VERTEX
8
CONTOURS_MAJEURES
10
62.542
20
17.463
0
VERTEX
8
CONTOURS_MAJEURES
10
60.004
20
15.900
0
VERTEX
8
CONTOURS_MAJEURES
10
58.709
20
14.998
0
VERTEX
8
CONTOURS_MAJEURES
10
56.849
20
13.155
0
VERTEX
8
CONTOURS_MAJEURES
10
55.004
20
11.571
0
VERTEX
8
CONTOURS_MAJEURES
10
53.046
20
10.002
0
VERTEX
8
CONTOURS_MAJEURES
10
51.533
20
8.474
0
VERTEX
8
CONTOURS_MAJEURES
10
50.004
20
6.652
0
VERTEX
8
CONTOURS_MAJEURES
10
49.253
20
5.756
0
VERTEX
8
CONTOURS_MAJEURES
10
48.393
20
5.005
0
VERTEX
8
CONTOURS_MAJEURES
10
46.911
20
3.096
0
VERTEX
8
CONTOURS_MAJEURES
10
45.005
20
0.821
0
VERTEX
8
CONTOURS_MAJEURES
10
44.398
20
-0.002
0
SEQEND
0
POLYLINE
8
PARCELLE
66
1
70
1
0
VERTEX
8
PARCELLE
10
87.187
20
28.955
0
VERTEX
8
PARCELLE
10
86.297
20
28.991
0
VERTEX
8
PARCELLE
10
63.077
20
25.820
0
VERTEX
8
PARCELLE
10
20.000
20
20.000
0
VERTEX
8
PARCELLE
10
20.470
20
31.935
0
VERTEX
8
PARCELLE
10
21.376
20
47.372
0
VERTEX
8
PARCELLE
10
22.441
20
65.336
0
VERTEX
8
PARCELLE
10
33.317
20
64.984
0
VERTEX
8
PARCELLE
10
47.241
20
64.391
0
VERTEX
8
PARCELLE
10
74.588
20
63.406
0
VERTEX
8
PARCELLE
10
129.748
20
61.881
0
VERTEX
8
PARCELLE
10
166.006
20
61.059
0
VERTEX
8
PARCELLE
10
181.460
20
60.573
0
VERTEX
8
PARCELLE
10
180.369
20
43.229
0
VERTEX
8
PARCELLE
10
178.999
20
27.405
0
VERTEX
8
PARCELLE
10
178.829
20
27.396
0
VERTEX
8
PARCELLE
10
168.762
20
27.542
0
VERTEX
8
PARCELLE
10
164.541
20
27.334
0
VERTEX
8
PARCELLE
10
153.666
20
27.696
0
VERTEX
8
PARCELLE
10
145.218
20
27.779
0
VERTEX
8
PARCELLE
10
129.813
20
28.095
0
VERTEX
8
PARCELLE
10
121.026
20
28.181
0
VERTEX
8
PARCELLE
10
98.094
20
28.813
0
VERTEX
8
PARCELLE
10
87.187
20
28.955
0
SEQEND
0
TEXT
8
POINTS_COTES
10
-0.005
20
-0.002
40
1.0
1
16.7
0
TEXT
8
POINTS_COTES
10
180.000
20
-0.002
40
1.0
1
16.6
0
TEXT
8
POINTS_COTES
10
155.001
20
5.005
40
1.0
1
15.1
0
TEXT
8
POINTS_COTES
10
130.002
20
10.002
40
1.0
1
15.9
0
TEXT
8
POINTS_COTES
10
105.003
20
14.998
40
1.0
1
22.3
0
TEXT
8
POINTS_COTES
10
80.003
20
20.006
40
1.0
1
26.9
0
TEXT
8
POINTS_COTES
10
55.004
20
25.002
40
1.0
1
21.7
0
TEXT
8
POINTS_COTES
10
30.005
20
29.998
40
1.0
1
17.0
0
TEXT
8
POINTS_COTES
10
4.995
20
34.995
40
1.0
1
14.8
0
TEXT
8
POINTS_COTES
10
185.000
20
34.995
40
1.0
1
13.2
0
TEXT
8
POINTS_COTES
10
160.001
20
40.002
40
1.0
1
13.0
0
TEXT
8
POINTS_COTES
10
135.002
20
44.999
40
1.0
1
12.8
0
TEXT
8
POINTS_COTES
10
110.002
20
49.995
40
1.0
1
12.5
0
TEXT
8
POINTS_COTES
10
85.003
20
55.002
40
1.0
1
13.5
0
TEXT
8
POINTS_COTES
10
60.004
20
59.999
40
1.0
1
12.5
0
TEXT
8
POINTS_COTES
10
35.005
20
64.995
40
1.0
1
12.9
0
TEXT
8
POINTS_COTES
10
9.995
20
70.003
40
1.0
1
13.2
0
TEXT
8
POINTS_COTES
10
190.000
20
70.003
40
1.0
1
12.4
0
TEXT
8
POINTS_COTES
10
165.001
20
74.999
40
1.0
1
11.5
0
TEXT
8
POINTS_COTES
10
140.001
20
79.996
40
1.0
1
10.6
0
TEXT
8
POINTS_COTES
10
115.002
20
85.003
40
1.0
1
10.7
0
ENDSEC
0
EOF
