0
SECTION
2
HEADER
0
ENDSEC
0
SECTION
2
TABLES
0
TABLE
2
LAYER
70
4
0
LAYER
2
CONTOURS_MINEURES
70
0
62
8
6
CONTINUOUS
0
LAYER
2
CONTOURS_MAJEURES
70
0
62
3
6
CONTINUOUS
0
LAYER
2
PARCELLE
70
0
62
4
6
CONTINUOUS
0
LAYER
2
POINTS_COTES
70
0
62
7
6
CONTINUOUS
0
ENDTAB
0
ENDSEC
0
SECTION
2
ENTITIES
0
POLYLINE
8
CONTOURS_MINEURES
66
1
70
0
0
VERTEX
8
CONTOURS_MINEURES
10
-0.004
20
58.863
0
VERTEX
8
CONTOURS_MINEURES
10
1.833
20
59.999
0
VERTEX
8
CONTOURS_MINEURES
10
2.544
20
60.455
0
VERTEX
8
CONTOURS_MINEURES
10
2.438
20
62.995
0
VERTEX
8
CONTOURS_MINEURES
10
2.438
20
63.558
0
VERTEX
8
CONTOURS_MINEURES
10
2.438
20
66.001
0
VERTEX
8
CONTOURS_MINEURES
10
3.002
20
67.927
0
VERTEX
8
CONTOURS_MINEURES
10
4.153
20
67.845
0
VERTEX
8
CONTOURS_MINEURES
10
3.937
20
68.997
0
VERTEX
8
CONTOURS_MINEURES
10
5.497
20
71.502
0
VERTEX
8
CONTOURS_MINEURES
10
5.915
20
72.004
0
VERTEX
8
CONTOURS_MINEURES
10
5.915
20
72.085
0
VERTEX
8
CONTOURS_MINEURES
10
5.915
20
74.999
0
VERTEX
8
CONTOURS_MINEURES
10
5.631
20
77.629
0
VERTEX
8
CONTOURS_MINEURES
10
5.758
20
77.995
0
VERTEX
8
CONTOURS_MINEURES
10
5.758
20
80.763
0
VERTEX
8
CONTOURS_MINEURES
10
5.758
20
81.001
0
VERTEX
8
CONTOURS_MINEURES
10
5.996
20
81.429
0
VERTEX
8
CONTOURS_MINEURES
10
8.572
20
81.429
0
VERTEX
8
CONTOURS_MINEURES
10
9.001
20
81.429
0
VERTEX
8
CONTOURS_MINEURES
10
10.499
20
82.499
0
VERTEX
8
CONTOURS_MINEURES
10
9.652
20
81.001
0
VERTEX
8
CONTOURS_MINEURES
10
9.652
20
80.348
0
VERTEX
8
CONTOURS_MINEURES
10
9.652
20
77.995
0
VERTEX
8
CONTOURS_MINEURES
10
9.180
20
77.816
0
VERTEX
8
CONTOURS_MINEURES
10
9.039
20
74.999
0
VERTEX
8
CONTOURS_MINEURES
10
9.039
20
74.962
0
VERTEX
8
CONTOURS_MINEURES
10
9.039
20
72.004
0
VERTEX
8
CONTOURS_MINEURES
10
9.367
20
69.364
0
VERTEX
8
CONTOURS_MINEURES
10
9.337
20
68.997
0
VERTEX
8
CONTOURS_MINEURES
10
9.274
20
68.725
0
VERTEX
8
CONTOURS_MINEURES
10
9.204
20
66.001
0
VERTEX
8
CONTOURS_MINEURES
10
9.204
20
63.198
0
VERTEX
8
CONTOURS_MINEURES
10
9.204
20
62.995
0
VERTEX
8
CONTOURS_MINEURES
10
9.134
20
62.862
0
VERTEX
8
CONTOURS_MINEURES
10
9.001
20
62.364
0
VERTEX
8
CONTOURS_MINEURES
10
6.629
20
62.364
0
VERTEX
8
CONTOURS_MINEURES
10
5.996
20
62.364
0
VERTEX
8
CONTOURS_MINEURES
10
3.568
20
59.999
0
VERTEX
8
CONTOURS_MINEURES
10
3.002
20
59.432
0
VERTEX
8
CONTOURS_MINEURES
10
1.123
20
57.003
0
VERTEX
8
CONTOURS_MINEURES
10
1.123
20
55.876
0
VERTEX
8
CONTOURS_MINEURES
10
1.123
20
53.997
0
VERTEX
8
CONTOURS_MINEURES
10
-0.004
20
52.137
0
SEQEND
0
POLYLINE
8
CONTOURS_MINEURES
66
1
70
0
0
VERTEX
8
CONTOURS_MINEURES
10
27.670
20
113.998
0
VERTEX
8
CONTOURS_MINEURES
10
27.670
20
111.672
0
VERTEX
8
CONTOURS_MINEURES
10
27.670
20
111.002
0
VERTEX
8
CONTOURS_MINEURES
10
27.404
20
110.597
0
VERTEX
8
CONTOURS_MINEURES
10
27.000
20
109.499
0
VERTEX
8
CONTOURS_MINEURES
10
25.858
20
107.995
0
VERTEX
8
CONTOURS_MINEURES
10
25.858
20
106.138
0
VERTEX
8
CONTOURS_MINEURES
10
25.858
20
105.000
0
VERTEX
8
CONTOURS_MINEURES
10
25.030
20
103.968
0
VERTEX
8
CONTOURS_MINEURES
10
24.667
20
102.004
0
VERTEX
8
CONTOURS_MINEURES
10
24.094
20
99.096
0
VERTEX
8
CONTOURS_MINEURES
10
24.070
20
98.997
0
VERTEX
8
CONTOURS_MINEURES
10
24.070
20
98.923
0
VERTEX
8
CONTOURS_MINEURES
10
24.070
20
96.002
0
VERTEX
8
CONTOURS_MINEURES
10
23.995
20
95.501
0
VERTEX
8
CONTOURS_MINEURES
10
23.496
20
95.501
0
VERTEX
8
CONTOURS_MINEURES
10
21.001
20
95.501
0
VERTEX
8
CONTOURS_MINEURES
10
19.964
20
94.032
0
VERTEX
8
CONTOURS_MINEURES
10
20.333
20
92.995
0
VERTEX
8
CONTOURS_MINEURES
10
20.630
20
92.625
0
VERTEX
8
CONTOURS_MINEURES
10
21.001
20
91.123
0
VERTEX
8
CONTOURS_MINEURES
10
22.872
20
91.123
0
VERTEX
8
CONTOURS_MINEURES
10
23.995
20
91.123
0
VERTEX
8
CONTOURS_MINEURES
10
24.149
20
90.153
0
VERTEX
8
CONTOURS_MINEURES
10
24.143
20
89.999
0
VERTEX
8
CONTOURS_MINEURES
10
24.143
20
89.852
0
VERTEX
8
CONTOURS_MINEURES
10
24.143
20
87.004
0
VERTEX
8
CONTOURS_MINEURES
10
23.995
20
86.628
0
VERTEX
8
CONTOURS_MINEURES
10
21.375
20
86.628
0
VERTEX
8
CONTOURS_MINEURES
10
21.001
20
86.628
0
VERTEX
8
CONTOURS_MINEURES
10
19.991
20
83.997
0
VERTEX
8
CONTOURS_MINEURES
10
19.119
20
82.877
0
VERTEX
8
CONTOURS_MINEURES
10
18.197
20
81.001
0
VERTEX
8
CONTOURS_MINEURES
10
18.197
20
78.197
0
VERTEX
8
CONTOURS_MINEURES
10
18.197
20
77.995
0
VERTEX
8
CONTOURS_MINEURES
10
17.995
20
77.712
0
VERTEX
8
CONTOURS_MINEURES
10
16.380
20
76.615
0
VERTEX
8
CONTOURS_MINEURES
10
15.538
20
74.999
0
VERTEX
8
CONTOURS_MINEURES
10
15.538
20
72.541
0
VERTEX
8
CONTOURS_MINEURES
10
15.538
20
72.004
0
VERTEX
8
CONTOURS_MINEURES
10
15.396
20
71.606
0
VERTEX
8
CONTOURS_MINEURES
10
15.259
20
68.997
0
VERTEX
8
CONTOURS_MINEURES
10
15.001
20
67.304
0
VERTEX
8
CONTOURS_MINEURES
10
13.302
20
67.304
0
VERTEX
8
CONTOURS_MINEURES
10
11.996
20
67.304
0
VERTEX
8
CONTOURS_MINEURES
10
11.748
20
66.249
0
VERTEX
8
CONTOURS_MINEURES
10
11.742
20
66.001
0
VERTEX
8
CONTOURS_MINEURES
10
11.742
20
65.746
0
VERTEX
8
CONTOURS_MINEURES
10
11.742
20
62.995
0
VERTEX
8
CONTOURS_MINEURES
10
10.788
20
61.207
0
VERTEX
8
CONTOURS_MINEURES
10
10.467
20
59.999
0
VERTEX
8
CONTOURS_MINEURES
10
9.001
20
58.175
0
VERTEX
8
CONTOURS_MINEURES
10
7.172
20
58.175
0
VERTEX
8
CONTOURS_MINEURES
10
5.996
20
58.175
0
VERTEX
8
CONTOURS_MINEURES
10
4.824
20
57.003
0
VERTEX
8
CONTOURS_MINEURES
10
4.824
20
55.173
0
VERTEX
8
CONTOURS_MINEURES
10
4.824
20
53.997
0
VERTEX
8
CONTOURS_MINEURES
10
3.002
20
52.073
0
VERTEX
8
CONTOURS_MINEURES
10
2.086
20
51.001
0
VERTEX
8
CONTOURS_MINEURES
10
1.714
20
49.717
0
VERTEX
8
CONTOURS_MINEURES
10
0.961
20
48.005
0
VERTEX
8
CONTOURS_MINEURES
10
0.961
20
47.040
0
VERTEX
8
CONTOURS_MINEURES
10
0.961
20
44.999
0
VERTEX
8
CONTOURS_MINEURES
10
-0.004
20
42.266
0
SEQEND
0
POLYLINE
8
CONTOURS_MINEURES
66
1
70
0
0
VERTEX
8
CONTOURS_MINEURES
10
-0.004
20
69.470
0
VERTEX
8
CONTOURS_MINEURES
10
1.322
20
70.677
0
VERTEX
8
CONTOURS_MINEURES
10
1.618
20
72.004
0
VERTEX
8
CONTOURS_MINEURES
10
1.618
20
73.620
0
VERTEX
8
CONTOURS_MINEURES
10
1.618
20
74.999
0
VERTEX
8
CONTOURS_MINEURES
10
2.115
20
75.883
0
VERTEX
8
CONTOURS_MINEURES
10
2.354
20
77.995
0
VERTEX
8
CONTOURS_MINEURES
10
2.354
20
80.354
0
VERTEX
8
CONTOURS_MINEURES
10
2.354
20
81.001
0
VERTEX
8
CONTOURS_MINEURES
10
3.002
20
82.499
0
VERTEX
8
CONTOURS_MINEURES
10
4.125
20
83.997
0
VERTEX
8
CONTOURS_MINEURES
10
5.170
20
86.174
0
VERTEX
8
CONTOURS_MINEURES
10
5.695
20
87.004
0
VERTEX
8
CONTOURS_MINEURES
10
5.695
20
87.305
0
VERTEX
8
CONTOURS_MINEURES
10
5.695
20
89.999
0
VERTEX
8
CONTOURS_MINEURES
10
5.996
20
91.261
0
VERTEX
8
CONTOURS_MINEURES
10
7.736
20
91.261
0
VERTEX
8
CONTOURS_MINEURES
10
9.001
20
91.261
0
VERTEX
8
CONTOURS_MINEURES
10
9.795
20
92.201
0
VERTEX
8
CONTOURS_MINEURES
10
10.374
20
92.995
0
VERTEX
8
CONTOURS_MINEURES
10
10.998
20
95.000
0
VERTEX
8
CONTOURS_MINEURES
10
11.337
20
96.002
0
VERTEX
8
CONTOURS_MINEURES
10
11.337
20
96.661
0
VERTEX
8
CONTOURS_MINEURES
10
11.337
20
98.997
0
VERTEX
8
CONTOURS_MINEURES
10
11.597
20
101.603
0
VERTEX
8
CONTOURS_MINEURES
10
11.613
20
102.004
0
VERTEX
8
CONTOURS_MINEURES
10
11.397
20
102.603
0
VERTEX
8
CONTOURS_MINEURES
10
11.996
20
104.001
0
VERTEX
8
CONTOURS_MINEURES
10
13.999
20
104.001
0
VERTEX
8
CONTOURS_MINEURES
10
15.001
20
104.001
0
VERTEX
8
CONTOURS_MINEURES
10
15.899
20
105.000
0
VERTEX
8
CONTOURS_MINEURES
10
15.899
20
105.898
0
VERTEX
8
CONTOURS_MINEURES
10
15.899
20
107.995
0
VERTEX
8
CONTOURS_MINEURES
10
17.484
20
108.509
0
VERTEX
8
CONTOURS_MINEURES
10
17.995
20
108.653
0
VERTEX
8
CONTOURS_MINEURES
10
19.922
20
111.002
0
VERTEX
8
CONTOURS_MINEURES
10
19.922
20
112.922
0
VERTEX
8
CONTOURS_MINEURES
10
19.922
20
113.998
0
SEQEND
0
POLYLINE
8
CONTOURS_MINEURES
66
1
70
0
0
VERTEX
8
CONTOURS_MINEURES
10
33.851
20
113.998
0
VERTEX
8
CONTOURS_MINEURES
10
33.851
20
111.851
0
VERTEX
8
CONTOURS_MINEURES
10
33.851
20
111.002
0
VERTEX
8
CONTOURS_MINEURES
10
33.587
20
110.415
0
VERTEX
8
CONTOURS_MINEURES
10
33.000
20
109.177
0
VERTEX
8
CONTOURS_MINEURES
10
31.175
20
109.177
0
VERTEX
8
CONTOURS_MINEURES
10
29.995
20
109.177
0
VERTEX
8
CONTOURS_MINEURES
10
29.528
20
108.464
0
VERTEX
8
CONTOURS_MINEURES
10
29.355
20
107.995
0
VERTEX
8
CONTOURS_MINEURES
10
29.355
20
107.356
0
VERTEX
8
CONTOURS_MINEURES
10
29.355
20
105.000
0
VERTEX
8
CONTOURS_MINEURES
10
28.949
20
103.954
0
VERTEX
8
CONTOURS_MINEURES
10
28.216
20
102.004
0
VERTEX
8
CONTOURS_MINEURES
10
28.015
20
100.985
0
VERTEX
8
CONTOURS_MINEURES
10
27.646
20
98.997
0
VERTEX
8
CONTOURS_MINEURES
10
27.646
20
98.351
0
VERTEX
8
CONTOURS_MINEURES
10
27.646
20
96.002
0
VERTEX
8
CONTOURS_MINEURES
10
27.519
20
95.481
0
VERTEX
8
CONTOURS_MINEURES
10
27.000
20
93.997
0
VERTEX
8
CONTOURS_MINEURES
10
26.673
20
92.995
0
VERTEX
8
CONTOURS_MINEURES
10
26.718
20
92.713
0
VERTEX
8
CONTOURS_MINEURES
10
26.606
20
89.999
0
VERTEX
8
CONTOURS_MINEURES
10
26.606
20
87.397
0
VERTEX
8
CONTOURS_MINEURES
10
26.606
20
87.004
0
VERTEX
8
CONTOURS_MINEURES
10
26.351
20
86.354
0
VERTEX
8
CONTOURS_MINEURES
10
25.326
20
83.997
0
VERTEX
8
CONTOURS_MINEURES
10
23.995
20
82.206
0
VERTEX
8
CONTOURS_MINEURES
10
22.791
20
82.206
0
VERTEX
8
CONTOURS_MINEURES
10
21.001
20
82.206
0
VERTEX
8
CONTOURS_MINEURES
10
20.473
20
81.528
0
VERTEX
8
CONTOURS_MINEURES
10
20.214
20
81.001
0
VERTEX
8
CONTOURS_MINEURES
10
20.214
20
80.215
0
VERTEX
8
CONTOURS_MINEURES
10
20.214
20
77.995
0
VERTEX
8
CONTOURS_MINEURES
10
18.275
20
75.278
0
VERTEX
8
CONTOURS_MINEURES
10
18.122
20
74.999
0
VERTEX
8
CONTOURS_MINEURES
10
18.122
20
74.873
0
VERTEX
8
CONTOURS_MINEURES
10
18.122
20
72.004
0
VERTEX
8
CONTOURS_MINEURES
10
17.995
20
71.717
0
VERTEX
8
CONTOURS_MINEURES
10
17.280
20
69.715
0
VERTEX
8
CONTOURS_MINEURES
10
17.242
20
68.997
0
VERTEX
8
CONTOURS_MINEURES
10
17.106
20
68.108
0
VERTEX
8
CONTOURS_MINEURES
10
16.675
20
66.001
0
VERTEX
8
CONTOURS_MINEURES
10
16.675
20
64.320
0
VERTEX
8
CONTOURS_MINEURES
10
16.675
20
62.995
0
VERTEX
8
CONTOURS_MINEURES
10
16.586
20
61.409
0
VERTEX
8
CONTOURS_MINEURES
10
15.757
20
59.999
0
VERTEX
8
CONTOURS_MINEURES
10
15.001
20
58.773
0
VERTEX
8
CONTOURS_MINEURES
10
13.225
20
58.773
0
VERTEX
8
CONTOURS_MINEURES
10
11.996
20
58.773
0
VERTEX
8
CONTOURS_MINEURES
10
10.753
20
57.003
0
VERTEX
8
CONTOURS_MINEURES
10
10.753
20
55.756
0
VERTEX
8
CONTOURS_MINEURES
10
10.753
20
53.997
0
VERTEX
8
CONTOURS_MINEURES
10
10.186
20
52.811
0
VERTEX
8
CONTOURS_MINEURES
10
9.001
20
52.635
0
VERTEX
8
CONTOURS_MINEURES
10
7.362
20
52.635
0
VERTEX
8
CONTOURS_MINEURES
10
5.996
20
52.635
0
VERTEX
8
CONTOURS_MINEURES
10
4.440
20
51.001
0
VERTEX
8
CONTOURS_MINEURES
10
4.109
20
49.893
0
VERTEX
8
CONTOURS_MINEURES
10
3.002
20
48.427
0
VERTEX
8
CONTOURS_MINEURES
10
2.816
20
48.005
0
VERTEX
8
CONTOURS_MINEURES
10
2.816
20
45.184
0
VERTEX
8
CONTOURS_MINEURES
10
2.816
20
44.999
0
VERTEX
8
CONTOURS_MINEURES
10
2.715
20
44.713
0
VERTEX
8
CONTOURS_MINEURES
10
1.389
20
42.003
0
VERTEX
8
CONTOURS_MINEURES
10
1.389
20
40.610
0
VERTEX
8
CONTOURS_MINEURES
10
1.389
20
38.996
0
VERTEX
8
CONTOURS_MINEURES
10
-0.004
20
36.873
0
SEQEND
0
POLYLINE
8
CONTOURS_MINEURES
66
1
70
0
0
VERTEX
8
CONTOURS_MINEURES
10
-0.004
20
75.959
0
VERTEX
8
CONTOURS_MINEURES
10
0.730
20
77.263
0
VERTEX
8
CONTOURS_MINEURES
10
0.813
20
77.995
0
VERTEX
8
CONTOURS_MINEURES
10
0.813
20
78.812
0
VERTEX
8
CONTOURS_MINEURES
10
0.813
20
81.001
0
VERTEX
8
CONTOURS_MINEURES
10
1.431
20
82.432
0
VERTEX
8
CONTOURS_MINEURES
10
2.172
20
83.997
0
VERTEX
8
CONTOURS_MINEURES
10
3.002
20
85.724
0
VERTEX
8
CONTOURS_MINEURES
10
3.811
20
87.004
0
VERTEX
8
CONTOURS_MINEURES
10
3.811
20
89.189
0
VERTEX
8
CONTOURS_MINEURES
10
3.811
20
89.999
0
VERTEX
8
CONTOURS_MINEURES
10
4.066
20
91.064
0
VERTEX
8
CONTOURS_MINEURES
10
4.614
20
92.995
0
VERTEX
8
CONTOURS_MINEURES
10
4.676
20
94.320
0
VERTEX
8
CONTOURS_MINEURES
10
4.854
20
96.002
0
VERTEX
8
CONTOURS_MINEURES
10
4.854
20
97.144
0
VERTEX
8
CONTOURS_MINEURES
10
4.854
20
98.997
0
VERTEX
8
CONTOURS_MINEURES
10
4.878
20
100.881
0
VERTEX
8
CONTOURS_MINEURES
10
4.802
20
102.004
0
VERTEX
8
CONTOURS_MINEURES
10
4.175
20
103.826
0
VERTEX
8
CONTOURS_MINEURES
10
4.000
20
105.000
0
VERTEX
8
CONTOURS_MINEURES
10
4.000
20
105.998
0
VERTEX
8
CONTOURS_MINEURES
10
4.000
20
107.995
0
VERTEX
8
CONTOURS_MINEURES
10
4.437
20
109.560
0
VERTEX
8
CONTOURS_MINEURES
10
5.017
20
111.002
0
VERTEX
8
CONTOURS_MINEURES
10
5.017
20
113.018
0
VERTEX
8
CONTOURS_MINEURES
10
5.017
20
113.998
0
SEQEND
0
POLYLINE
8
CONTOURS_MINEURES
66
1
70
0
0
VERTEX
8
CONTOURS_MINEURES
10
36.487
20
113.998
0
VERTEX
8
CONTOURS_MINEURES
10
36.487
20
113.516
0
VERTEX
8
CONTOURS_MINEURES
10
36.487
20
111.002
0
VERTEX
8
CONTOURS_MINEURES
10
36.294
20
110.712
0
VERTEX
8
CONTOURS_MINEURES
10
36.005
20
110.223
0
VERTEX
8
CONTOURS_MINEURES
10
35.314
20
108.687
0
VERTEX
8
CONTOURS_MINEURES
10
34.987
20
107.995
0
VERTEX
8
CONTOURS_MINEURES
10
34.987
20
106.015
0
VERTEX
8
CONTOURS_MINEURES
10
34.987
20
105.000
0
VERTEX
8
CONTOURS_MINEURES
10
34.503
20
103.502
0
VERTEX
8
CONTOURS_MINEURES
10
34.351
20
102.004
0
VERTEX
8
CONTOURS_MINEURES
10
34.670
20
100.334
0
VERTEX
8
CONTOURS_MINEURES
10
34.156
20
98.997
0
VERTEX
8
CONTOURS_MINEURES
10
34.156
20
97.154
0
VERTEX
8
CONTOURS_MINEURES
10
34.156
20
96.002
0
VERTEX
8
CONTOURS_MINEURES
10
34.202
20
94.799
0
VERTEX
8
CONTOURS_MINEURES
10
33.000
20
93.596
0
VERTEX
8
CONTOURS_MINEURES
10
30.596
20
93.596
0
VERTEX
8
CONTOURS_MINEURES
10
29.995
20
93.596
0
VERTEX
8
CONTOURS_MINEURES
10
29.877
20
93.113
0
VERTEX
8
CONTOURS_MINEURES
10
29.836
20
92.995
0
VERTEX
8
CONTOURS_MINEURES
10
29.827
20
92.827
0
VERTEX
8
CONTOURS_MINEURES
10
29.541
20
89.999
0
VERTEX
8
CONTOURS_MINEURES
10
29.541
20
87.458
0
VERTEX
8
CONTOURS_MINEURES
10
29.541
20
87.004
0
VERTEX
8
CONTOURS_MINEURES
10
29.308
20
84.687
0
VERTEX
8
CONTOURS_MINEURES
10
28.555
20
83.997
0
VERTEX
8
CONTOURS_MINEURES
10
27.000
20
81.923
0
VERTEX
8
CONTOURS_MINEURES
10
26.506
20
81.001
0
VERTEX
8
CONTOURS_MINEURES
10
26.506
20
78.489
0
VERTEX
8
CONTOURS_MINEURES
10
26.506
20
77.995
0
VERTEX
8
CONTOURS_MINEURES
10
26.287
20
75.711
0
VERTEX
8
CONTOURS_MINEURES
10
24.961
20
74.999
0
VERTEX
8
CONTOURS_MINEURES
10
24.961
20
72.966
0
VERTEX
8
CONTOURS_MINEURES
10
24.961
20
72.004
0
VERTEX
8
CONTOURS_MINEURES
10
24.746
20
71.252
0
VERTEX
8
CONTOURS_MINEURES
10
23.995
20
68.997
0
VERTEX
8
CONTOURS_MINEURES
10
21.001
20
68.997
0
VERTEX
8
CONTOURS_MINEURES
10
20.513
20
66.487
0
VERTEX
8
CONTOURS_MINEURES
10
20.121
20
66.001
0
VERTEX
8
CONTOURS_MINEURES
10
20.121
20
65.121
0
VERTEX
8
CONTOURS_MINEURES
10
20.121
20
62.995
0
VERTEX
8
CONTOURS_MINEURES
10
19.850
20
61.146
0
VERTEX
8
CONTOURS_MINEURES
10
19.577
20
59.999
0
VERTEX
8
CONTOURS_MINEURES
10
19.577
20
58.580
0
VERTEX
8
CONTOURS_MINEURES
10
19.999
20
57.003
0
VERTEX
8
CONTOURS_MINEURES
10
19.999
20
54.999
0
VERTEX
8
CONTOURS_MINEURES
10
19.999
20
53.997
0
VERTEX
8
CONTOURS_MINEURES
10
19.927
20
52.927
0
VERTEX
8
CONTOURS_MINEURES
10
19.999
20
51.001
0
VERTEX
8
CONTOURS_MINEURES
10
19.198
20
49.204
0
VERTEX
8
CONTOURS_MINEURES
10
18.779
20
48.005
0
VERTEX
8
CONTOURS_MINEURES
10
18.779
20
47.221
0
VERTEX
8
CONTOURS_MINEURES
10
18.779
20
44.999
0
VERTEX
8
CONTOURS_MINEURES
10
17.995
20
44.100
0
VERTEX
8
CONTOURS_MINEURES
10
15.001
20
44.999
0
VERTEX
8
CONTOURS_MINEURES
10
15.001
20
48.005
0
VERTEX
8
CONTOURS_MINEURES
10
11.996
20
48.005
0
VERTEX
8
CONTOURS_MINEURES
10
9.600
20
48.604
0
VERTEX
8
CONTOURS_MINEURES
10
9.001
20
48.321
0
VERTEX
8
CONTOURS_MINEURES
10
6.312
20
48.321
0
VERTEX
8
CONTOURS_MINEURES
10
5.996
20
48.321
0
VERTEX
8
CONTOURS_MINEURES
10
5.923
20
48.078
0
VERTEX
8
CONTOURS_MINEURES
10
5.869
20
48.005
0
VERTEX
8
CONTOURS_MINEURES
10
5.869
20
47.877
0
VERTEX
8
CONTOURS_MINEURES
10
5.869
20
44.999
0
VERTEX
8
CONTOURS_MINEURES
10
3.002
20
42.303
0
VERTEX
8
CONTOURS_MINEURES
10
2.855
20
42.003
0
VERTEX
8
CONTOURS_MINEURES
10
2.855
20
39.143
0
VERTEX
8
CONTOURS_MINEURES
10
2.855
20
38.996
0
VERTEX
8
CONTOURS_MINEURES
10
2.578
20
38.574
0
VERTEX
8
CONTOURS_MINEURES
10
0.830
20
36.001
0
VERTEX
8
CONTOURS_MINEURES
10
-0.004
20
34.539
0
SEQEND
0
POLYLINE
8
CONTOURS_MINEURES
66
1
70
0
0
VERTEX
8
CONTOURS_MINEURES
10
-0.004
20
82.424
0
VERTEX
8
CONTOURS_MINEURES
10
0.741
20
83.997
0
VERTEX
8
CONTOURS_MINEURES
10
1.430
20
85.432
0
VERTEX
8
CONTOURS_MINEURES
10
2.260
20
87.004
0
VERTEX
8
CONTOURS_MINEURES
10
2.260
20
89.260
0
VERTEX
8
CONTOURS_MINEURES
10
2.260
20
89.999
0
VERTEX
8
CONTOURS_MINEURES
10
2.442
20
90.557
0
VERTEX
8
CONTOURS_MINEURES
10
2.897
20
92.995
0
VERTEX
8
CONTOURS_MINEURES
10
2.905
20
93.092
0
VERTEX
8
CONTOURS_MINEURES
10
2.991
20
96.002
0
VERTEX
8
CONTOURS_MINEURES
10
2.991
20
98.986
0
VERTEX
8
CONTOURS_MINEURES
10
2.991
20
98.997
0
VERTEX
8
CONTOURS_MINEURES
10
2.987
20
99.012
0
VERTEX
8
CONTOURS_MINEURES
10
2.846
20
102.004
0
VERTEX
8
CONTOURS_MINEURES
10
2.296
20
104.296
0
VERTEX
8
CONTOURS_MINEURES
10
1.651
20
105.000
0
VERTEX
8
CONTOURS_MINEURES
10
1.651
20
106.346
0
VERTEX
8
CONTOURS_MINEURES
10
1.651
20
107.995
0
VERTEX
8
CONTOURS_MINEURES
10
2.151
20
110.151
0
VERTEX
8
CONTOURS_MINEURES
10
2.022
20
111.002
0
VERTEX
8
CONTOURS_MINEURES
10
2.022
20
111.979
0
VERTEX
8
CONTOURS_MINEURES
10
2.022
20
113.998
0
SEQEND
0
POLYLINE
8
CONTOURS_MINEURES
66
1
70
0
0
VERTEX
8
CONTOURS_MINEURES
10
43.128
20
113.998
0
VERTEX
8
CONTOURS_MINEURES
10
43.128
20
112.874
0
VERTEX
8
CONTOURS_MINEURES
10
43.128
20
111.002
0
VERTEX
8
CONTOURS_MINEURES
10
42.679
20
110.326
0
VERTEX
8
CONTOURS_MINEURES
10
42.005
20
109.602
0
VERTEX
8
CONTOURS_MINEURES
10
40.606
20
109.602
0
VERTEX
8
CONTOURS_MINEURES
10
39.000
20
109.602
0
VERTEX
8
CONTOURS_MINEURES
10
38.359
20
108.638
0
VERTEX
8
CONTOURS_MINEURES
10
37.980
20
107.995
0
VERTEX
8
CONTOURS_MINEURES
10
37.980
20
106.975
0
VERTEX
8
CONTOURS_MINEURES
10
37.980
20
105.000
0
VERTEX
8
CONTOURS_MINEURES
10
37.654
20
103.351
0
VERTEX
8
CONTOURS_MINEURES
10
37.532
20
102.004
0
VERTEX
8
CONTOURS_MINEURES
10
37.746
20
100.745
0
VERTEX
8
CONTOURS_MINEURES
10
39.000
20
99.464
0
VERTEX
8
CONTOURS_MINEURES
10
41.539
20
99.464
0
VERTEX
8
CONTOURS_MINEURES
10
42.005
20
99.464
0
VERTEX
8
CONTOURS_MINEURES
10
42.267
20
99.260
0
VERTEX
8
CONTOURS_MINEURES
10
42.591
20
98.997
0
VERTEX
8
CONTOURS_MINEURES
10
42.591
20
98.411
0
VERTEX
8
CONTOURS_MINEURES
10
42.591
20
96.002
0
VERTEX
8
CONTOURS_MINEURES
10
43.680
20
94.677
0
VERTEX
8
CONTOURS_MINEURES
10
44.999
20
93.221
0
VERTEX
8
CONTOURS_MINEURES
10
45.091
20
92.995
0
VERTEX
8
CONTOURS_MINEURES
10
45.062
20
92.933
0
VERTEX
8
CONTOURS_MINEURES
10
44.999
20
92.738
0
VERTEX
8
CONTOURS_MINEURES
10
43.786
20
91.213
0
VERTEX
8
CONTOURS_MINEURES
10
43.816
20
89.999
0
VERTEX
8
CONTOURS_MINEURES
10
43.816
20
88.816
0
VERTEX
8
CONTOURS_MINEURES
10
43.816
20
87.004
0
VERTEX
8
CONTOURS_MINEURES
10
43.053
20
85.951
0
VERTEX
8
CONTOURS_MINEURES
10
42.476
20
83.997
0
VERTEX
8
CONTOURS_MINEURES
10
42.005
20
82.755
0
VERTEX
8
CONTOURS_MINEURES
10
40.246
20
82.755
0
VERTEX
8
CONTOURS_MINEURES
10
39.000
20
82.755
0
VERTEX
8
CONTOURS_MINEURES
10
38.066
20
81.001
0
VERTEX
8
CONTOURS_MINEURES
10
38.066
20
78.932
0
VERTEX
8
CONTOURS_MINEURES
10
38.066
20
77.995
0
VERTEX
8
CONTOURS_MINEURES
10
37.397
20
76.602
0
VERTEX
8
CONTOURS_MINEURES
10
36.352
20
74.999
0
VERTEX
8
CONTOURS_MINEURES
10
36.352
20
72.351
0
VERTEX
8
CONTOURS_MINEURES
10
36.352
20
72.004
0
VERTEX
8
CONTOURS_MINEURES
10
36.005
20
71.513
0
VERTEX
8
CONTOURS_MINEURES
10
34.220
20
68.997
0
VERTEX
8
CONTOURS_MINEURES
10
34.202
20
67.799
0
VERTEX
8
CONTOURS_MINEURES
10
33.751
20
66.001
0
VERTEX
8
CONTOURS_MINEURES
10
33.751
20
65.250
0
VERTEX
8
CONTOURS_MINEURES
10
33.751
20
62.995
0
VERTEX
8
CONTOURS_MINEURES
10
33.690
20
62.307
0
VERTEX
8
CONTOURS_MINEURES
10
33.000
20
61.441
0
VERTEX
8
CONTOURS_MINEURES
10
31.553
20
61.441
0
VERTEX
8
CONTOURS_MINEURES
10
29.995
20
61.441
0
VERTEX
8
CONTOURS_MINEURES
10
29.377
20
59.999
0
VERTEX
8
CONTOURS_MINEURES
10
29.184
20
59.188
0
VERTEX
8
CONTOURS_MINEURES
10
28.417
20
57.003
0
VERTEX
8
CONTOURS_MINEURES
10
28.417
20
55.581
0
VERTEX
8
CONTOURS_MINEURES
10
28.417
20
53.997
0
VERTEX
8
CONTOURS_MINEURES
10
28.535
20
52.536
0
VERTEX
8
CONTOURS_MINEURES
10
29.193
20
51.001
0
VERTEX
8
CONTOURS_MINEURES
10
29.995
20
50.213
0
VERTEX
8
CONTOURS_MINEURES
10
30.786
20
50.213
0
VERTEX
8
CONTOURS_MINEURES
10
33.000
20
50.213
0
VERTEX
8
CONTOURS_MINEURES
10
34.670
20
49.337
0
VERTEX
8
CONTOURS_MINEURES
10
36.005
20
48.519
0
VERTEX
8
CONTOURS_MINEURES
10
37.032
20
49.032
0
VERTEX
8
CONTOURS_MINEURES
10
36.804
20
48.005
0
VERTEX
8
CONTOURS_MINEURES
10
36.804
20
47.204
0
VERTEX
8
CONTOURS_MINEURES
10
36.804
20
44.999
0
VERTEX
8
CONTOURS_MINEURES
10
37.203
20
43.201
0
VERTEX
8
CONTOURS_MINEURES
10
37.612
20
42.003
0
VERTEX
8
CONTOURS_MINEURES
10
37.612
20
40.390
0
VERTEX
8
CONTOURS_MINEURES
10
37.612
20
38.996
0
VERTEX
8
CONTOURS_MINEURES
10
37.652
20
37.349
0
VERTEX
8
CONTOURS_MINEURES
10
38.207
20
36.001
0
VERTEX
8
CONTOURS_MINEURES
10
36.005
20
33.830
0
VERTEX
8
CONTOURS_MINEURES
10
35.325
20
33.683
0
VERTEX
8
CONTOURS_MINEURES
10
33.966
20
33.005
0
VERTEX
8
CONTOURS_MINEURES
10
33.966
20
30.965
0
VERTEX
8
CONTOURS_MINEURES
10
33.966
20
29.998
0
VERTEX
8
CONTOURS_MINEURES
10
33.166
20
29.833
0
VERTEX
8
CONTOURS_MINEURES
10
33.000
20
29.770
0
VERTEX
8
CONTOURS_MINEURES
10
32.771
20
29.770
0
VERTEX
8
CONTOURS_MINEURES
10
29.995
20
29.770
0
VERTEX
8
CONTOURS_MINEURES
10
27.612
20
29.386
0
VERTEX
8
CONTOURS_MINEURES
10
27.000
20
29.368
0
VERTEX
8
CONTOURS_MINEURES
10
26.450
20
29.450
0
VERTEX
8
CONTOURS_MINEURES
10
23.995
20
29.466
0
VERTEX
8
CONTOURS_MINEURES
10
23.463
20
29.466
0
VERTEX
8
CONTOURS_MINEURES
10
21.001
20
29.466
0
VERTEX
8
CONTOURS_MINEURES
10
20.518
20
29.517
0
VERTEX
8
CONTOURS_MINEURES
10
17.995
20
29.502
0
VERTEX
8
CONTOURS_MINEURES
10
17.563
20
29.566
0
VERTEX
8
CONTOURS_MINEURES
10
16.598
20
29.998
0
VERTEX
8
CONTOURS_MINEURES
10
16.598
20
31.602
0
VERTEX
8
CONTOURS_MINEURES
10
16.598
20
33.005
0
VERTEX
8
CONTOURS_MINEURES
10
15.001
20
34.036
0
VERTEX
8
CONTOURS_MINEURES
10
13.967
20
34.036
0
VERTEX
8
CONTOURS_MINEURES
10
11.996
20
34.036
0
VERTEX
8
CONTOURS_MINEURES
10
10.132
20
36.001
0
VERTEX
8
CONTOURS_MINEURES
10
9.001
20
37.008
0
VERTEX
8
CONTOURS_MINEURES
10
7.007
20
37.008
0
VERTEX
8
CONTOURS_MINEURES
10
5.996
20
37.008
0
VERTEX
8
CONTOURS_MINEURES
10
4.340
20
37.340
0
VERTEX
8
CONTOURS_MINEURES
10
3.002
20
37.187
0
VERTEX
8
CONTOURS_MINEURES
10
2.196
20
36.001
0
VERTEX
8
CONTOURS_MINEURES
10
1.135
20
34.140
0
VERTEX
8
CONTOURS_MINEURES
10
0.557
20
33.005
0
VERTEX
8
CONTOURS_MINEURES
10
0.557
20
32.444
0
VERTEX
8
CONTOURS_MINEURES
10
0.557
20
29.998
0
VERTEX
8
CONTOURS_MINEURES
10
-0.004
20
28.813
0
SEQEND
0
POLYLINE
8
CONTOURS_MINEURES
66
1
70
0
0
VERTEX
8
CONTOURS_MINEURES
10
-0.004
20
85.180
0
VERTEX
8
CONTOURS_MINEURES
10
0.959
20
87.004
0
VERTEX
8
CONTOURS_MINEURES
10
0.959
20
87.963
0
VERTEX
8
CONTOURS_MINEURES
10
0.959
20
89.999
0
VERTEX
8
CONTOURS_MINEURES
10
1.460
20
91.536
0
VERTEX
8
CONTOURS_MINEURES
10
1.732
20
92.995
0
VERTEX
8
CONTOURS_MINEURES
10
1.828
20
94.170
0
VERTEX
8
CONTOURS_MINEURES
10
1.882
20
96.002
0
VERTEX
8
CONTOURS_MINEURES
10
1.882
20
97.881
0
VERTEX
8
CONTOURS_MINEURES
10
1.882
20
98.997
0
VERTEX
8
CONTOURS_MINEURES
10
1.506
20
100.493
0
VERTEX
8
CONTOURS_MINEURES
10
1.436
20
102.004
0
VERTEX
8
CONTOURS_MINEURES
10
1.158
20
103.162
0
VERTEX
8
CONTOURS_MINEURES
10
-0.004
20
104.429
0
SEQEND
0
POLYLINE
8
CONTOURS_MINEURES
66
1
70
0
0
VERTEX
8
CONTOURS_MINEURES
10
47.711
20
48.005
0
VERTEX
8
CONTOURS_MINEURES
10
46.793
20
49.793
0
VERTEX
8
CONTOURS_MINEURES
10
44.999
20
50.364
0
VERTEX
8
CONTOURS_MINEURES
10
44.092
20
51.001
0
VERTEX
8
CONTOURS_MINEURES
10
44.412
20
51.588
0
VERTEX
8
CONTOURS_MINEURES
10
44.674
20
53.997
0
VERTEX
8
CONTOURS_MINEURES
10
44.674
20
56.676
0
VERTEX
8
CONTOURS_MINEURES
10
44.674
20
57.003
0
VERTEX
8
CONTOURS_MINEURES
10
44.999
20
57.322
0
VERTEX
8
CONTOURS_MINEURES
10
46.001
20
57.003
0
VERTEX
8
CONTOURS_MINEURES
10
46.001
20
54.999
0
VERTEX
8
CONTOURS_MINEURES
10
46.001
20
53.997
0
VERTEX
8
CONTOURS_MINEURES
10
48.005
20
53.141
0
VERTEX
8
CONTOURS_MINEURES
10
50.143
20
53.141
0
VERTEX
8
CONTOURS_MINEURES
10
50.999
20
53.141
0
VERTEX
8
CONTOURS_MINEURES
10
52.788
20
52.784
0
VERTEX
8
CONTOURS_MINEURES
10
54.004
20
52.620
0
VERTEX
8
CONTOURS_MINEURES
10
55.962
20
52.038
0
VERTEX
8
CONTOURS_MINEURES
10
56.550
20
53.997
0
VERTEX
8
CONTOURS_MINEURES
10
56.550
20
54.448
0
VERTEX
8
CONTOURS_MINEURES
10
56.550
20
57.003
0
VERTEX
8
CONTOURS_MINEURES
10
56.999
20
57.902
0
VERTEX
8
CONTOURS_MINEURES
10
57.900
20
57.902
0
VERTEX
8
CONTOURS_MINEURES
10
60.004
20
57.902
0
VERTEX
8
CONTOURS_MINEURES
10
60.753
20
57.752
0
VERTEX
8
CONTOURS_MINEURES
10
62.998
20
57.548
0
VERTEX
8
CONTOURS_MINEURES
10
63.285
20
57.003
0
VERTEX
8
CONTOURS_MINEURES
10
63.285
20
54.283
0
VERTEX
8
CONTOURS_MINEURES
10
63.285
20
53.997
0
VERTEX
8
CONTOURS_MINEURES
10
62.998
20
53.775
0
VERTEX
8
CONTOURS_MINEURES
10
60.325
20
53.676
0
VERTEX
8
CONTOURS_MINEURES
10
60.797
20
51.001
0
VERTEX
8
CONTOURS_MINEURES
10
60.004
20
50.038
0
VERTEX
8
CONTOURS_MINEURES
10
59.038
20
50.038
0
VERTEX
8
CONTOURS_MINEURES
10
56.999
20
50.038
0
VERTEX
8
CONTOURS_MINEURES
10
54.723
20
48.005
0
VERTEX
8
CONTOURS_MINEURES
10
54.723
20
47.284
0
VERTEX
8
CONTOURS_MINEURES
10
54.723
20
44.999
0
VERTEX
8
CONTOURS_MINEURES
10
54.004
20
44.526
0
VERTEX
8
CONTOURS_MINEURES
10
53.517
20
44.513
0
VERTEX
8
CONTOURS_MINEURES
10
50.999
20
44.656
0
VERTEX
8
CONTOURS_MINEURES
10
50.657
20
44.656
0
VERTEX
8
CONTOURS_MINEURES
10
48.005
20
44.656
0
VERTEX
8
CONTOURS_MINEURES
10
47.711
20
44.999
0
VERTEX
8
CONTOURS_MINEURES
10
47.711
20
47.712
0
VERTEX
8
CONTOURS_MINEURES
10
47.711
20
48.005
0
SEQEND
0
POLYLINE
8
CONTOURS_MINEURES
66
1
70
0
0
VERTEX
8
CONTOURS_MINEURES
10
79.375
20
113.998
0
VERTEX
8
CONTOURS_MINEURES
10
79.375
20
112.375
0
VERTEX
8
CONTOURS_MINEURES
10
79.375
20
111.002
0
VERTEX
8
CONTOURS_MINEURES
10
79.607
20
109.606
0
VERTEX
8
CONTOURS_MINEURES
10
80.498
20
107.995
0
VERTEX
8
CONTOURS_MINEURES
10
80.498
20
105.499
0
VERTEX
8
CONTOURS_MINEURES
10
80.498
20
105.000
0
VERTEX
8
CONTOURS_MINEURES
10
80.570
20
104.572
0
VERTEX
8
CONTOURS_MINEURES
10
80.997
20
102.004
0
VERTEX
8
CONTOURS_MINEURES
10
84.003
20
102.004
0
VERTEX
8
CONTOURS_MINEURES
10
84.362
20
99.358
0
VERTEX
8
CONTOURS_MINEURES
10
84.362
20
98.997
0
VERTEX
8
CONTOURS_MINEURES
10
84.362
20
96.361
0
VERTEX
8
CONTOURS_MINEURES
10
84.362
20
96.002
0
VERTEX
8
CONTOURS_MINEURES
10
84.557
20
93.552
0
VERTEX
8
CONTOURS_MINEURES
10
85.001
20
92.995
0
VERTEX
8
CONTOURS_MINEURES
10
84.502
20
90.499
0
VERTEX
8
CONTOURS_MINEURES
10
85.200
20
89.999
0
VERTEX
8
CONTOURS_MINEURES
10
85.200
20
88.801
0
VERTEX
8
CONTOURS_MINEURES
10
85.200
20
87.004
0
VERTEX
8
CONTOURS_MINEURES
10
86.469
20
86.473
0
VERTEX
8
CONTOURS_MINEURES
10
86.099
20
83.997
0
VERTEX
8
CONTOURS_MINEURES
10
85.999
20
82.000
0
VERTEX
8
CONTOURS_MINEURES
10
86.521
20
81.001
0
VERTEX
8
CONTOURS_MINEURES
10
86.521
20
80.523
0
VERTEX
8
CONTOURS_MINEURES
10
86.521
20
77.995
0
VERTEX
8
CONTOURS_MINEURES
10
86.997
20
75.374
0
VERTEX
8
CONTOURS_MINEURES
10
87.197
20
75.199
0
VERTEX
8
CONTOURS_MINEURES
10
87.228
20
74.999
0
VERTEX
8
CONTOURS_MINEURES
10
87.228
20
74.769
0
VERTEX
8
CONTOURS_MINEURES
10
87.228
20
72.004
0
VERTEX
8
CONTOURS_MINEURES
10
89.281
20
71.282
0
VERTEX
8
CONTOURS_MINEURES
10
90.002
20
70.435
0
VERTEX
8
CONTOURS_MINEURES
10
91.565
20
70.435
0
VERTEX
8
CONTOURS_MINEURES
10
92.997
20
70.435
0
VERTEX
8
CONTOURS_MINEURES
10
94.221
20
70.222
0
VERTEX
8
CONTOURS_MINEURES
10
94.374
20
68.997
0
VERTEX
8
CONTOURS_MINEURES
10
94.742
20
67.741
0
VERTEX
8
CONTOURS_MINEURES
10
95.000
20
66.001
0
VERTEX
8
CONTOURS_MINEURES
10
95.000
20
64.999
0
VERTEX
8
CONTOURS_MINEURES
10
95.000
20
62.995
0
VERTEX
8
CONTOURS_MINEURES
10
93.842
20
62.152
0
VERTEX
8
CONTOURS_MINEURES
10
92.997
20
62.165
0
VERTEX
8
CONTOURS_MINEURES
10
90.832
20
62.165
0
VERTEX
8
CONTOURS_MINEURES
10
90.002
20
62.165
0
VERTEX
8
CONTOURS_MINEURES
10
88.199
20
61.197
0
VERTEX
8
CONTOURS_MINEURES
10
86.997
20
60.579
0
VERTEX
8
CONTOURS_MINEURES
10
86.569
20
60.427
0
VERTEX
8
CONTOURS_MINEURES
10
86.180
20
59.999
0
VERTEX
8
CONTOURS_MINEURES
10
84.003
20
58.524
0
VERTEX
8
CONTOURS_MINEURES
10
82.477
20
58.524
0
VERTEX
8
CONTOURS_MINEURES
10
80.997
20
58.524
0
VERTEX
8
CONTOURS_MINEURES
10
79.946
20
58.055
0
VERTEX
8
CONTOURS_MINEURES
10
78.752
20
57.003
0
VERTEX
8
CONTOURS_MINEURES
10
78.752
20
56.252
0
VERTEX
8
CONTOURS_MINEURES
10
78.752
20
53.997
0
VERTEX
8
CONTOURS_MINEURES
10
78.003
20
52.564
0
VERTEX
8
CONTOURS_MINEURES
10
77.381
20
51.001
0
VERTEX
8
CONTOURS_MINEURES
10
76.210
20
49.792
0
VERTEX
8
CONTOURS_MINEURES
10
75.707
20
48.005
0
VERTEX
8
CONTOURS_MINEURES
10
75.707
20
47.296
0
VERTEX
8
CONTOURS_MINEURES
10
75.707
20
44.999
0
VERTEX
8
CONTOURS_MINEURES
10
74.998
20
44.315
0
VERTEX
8
CONTOURS_MINEURES
10
72.687
20
44.315
0
VERTEX
8
CONTOURS_MINEURES
10
72.003
20
44.315
0
VERTEX
8
CONTOURS_MINEURES
10
70.091
20
43.092
0
VERTEX
8
CONTOURS_MINEURES
10
68.998
20
42.517
0
VERTEX
8
CONTOURS_MINEURES
10
66.517
20
42.517
0
VERTEX
8
CONTOURS_MINEURES
10
66.004
20
42.517
0
VERTEX
8
CONTOURS_MINEURES
10
65.323
20
42.681
0
VERTEX
8
CONTOURS_MINEURES
10
65.145
20
42.003
0
VERTEX
8
CONTOURS_MINEURES
10
65.145
20
41.144
0
VERTEX
8
CONTOURS_MINEURES
10
65.145
20
38.996
0
VERTEX
8
CONTOURS_MINEURES
10
63.666
20
38.331
0
VERTEX
8
CONTOURS_MINEURES
10
62.998
20
37.523
0
VERTEX
8
CONTOURS_MINEURES
10
61.893
20
37.106
0
VERTEX
8
CONTOURS_MINEURES
10
60.004
20
36.961
0
VERTEX
8
CONTOURS_MINEURES
10
57.962
20
36.961
0
VERTEX
8
CONTOURS_MINEURES
10
56.999
20
36.961
0
VERTEX
8
CONTOURS_MINEURES
10
55.787
20
37.784
0
VERTEX
8
CONTOURS_MINEURES
10
54.004
20
37.601
0
VERTEX
8
CONTOURS_MINEURES
10
52.410
20
37.590
0
VERTEX
8
CONTOURS_MINEURES
10
50.999
20
37.835
0
VERTEX
8
CONTOURS_MINEURES
10
49.165
20
37.835
0
VERTEX
8
CONTOURS_MINEURES
10
48.005
20
37.835
0
VERTEX
8
CONTOURS_MINEURES
10
46.201
20
37.199
0
VERTEX
8
CONTOURS_MINEURES
10
44.999
20
37.482
0
VERTEX
8
CONTOURS_MINEURES
10
43.923
20
36.001
0
VERTEX
8
CONTOURS_MINEURES
10
43.054
20
34.951
0
VERTEX
8
CONTOURS_MINEURES
10
42.005
20
33.936
0
VERTEX
8
CONTOURS_MINEURES
10
41.071
20
33.936
0
VERTEX
8
CONTOURS_MINEURES
10
39.000
20
33.936
0
VERTEX
8
CONTOURS_MINEURES
10
38.061
20
33.005
0
VERTEX
8
CONTOURS_MINEURES
10
38.061
20
30.941
0
VERTEX
8
CONTOURS_MINEURES
10
38.061
20
29.998
0
VERTEX
8
CONTOURS_MINEURES
10
36.005
20
28.201
0
VERTEX
8
CONTOURS_MINEURES
10
35.010
20
27.995
0
VERTEX
8
CONTOURS_MINEURES
10
33.000
20
27.231
0
VERTEX
8
CONTOURS_MINEURES
10
30.224
20
27.231
0
VERTEX
8
CONTOURS_MINEURES
10
29.995
20
27.231
0
VERTEX
8
CONTOURS_MINEURES
10
29.798
20
27.200
0
VERTEX
8
CONTOURS_MINEURES
10
27.000
20
27.115
0
VERTEX
8
CONTOURS_MINEURES
10
24.486
20
27.492
0
VERTEX
8
CONTOURS_MINEURES
10
23.995
20
27.495
0
VERTEX
8
CONTOURS_MINEURES
10
21.493
20
27.495
0
VERTEX
8
CONTOURS_MINEURES
10
21.001
20
27.495
0
VERTEX
8
CONTOURS_MINEURES
10
18.729
20
27.734
0
VERTEX
8
CONTOURS_MINEURES
10
17.995
20
27.729
0
VERTEX
8
CONTOURS_MINEURES
10
16.020
20
28.022
0
VERTEX
8
CONTOURS_MINEURES
10
15.001
20
28.478
0
VERTEX
8
CONTOURS_MINEURES
10
13.521
20
28.478
0
VERTEX
8
CONTOURS_MINEURES
10
11.996
20
28.478
0
VERTEX
8
CONTOURS_MINEURES
10
10.762
20
28.764
0
VERTEX
8
CONTOURS_MINEURES
10
10.270
20
29.998
0
VERTEX
8
CONTOURS_MINEURES
10
10.270
20
31.731
0
VERTEX
8
CONTOURS_MINEURES
10
10.270
20
33.005
0
VERTEX
8
CONTOURS_MINEURES
10
9.001
20
34.331
0
VERTEX
8
CONTOURS_MINEURES
10
7.326
20
34.331
0
VERTEX
8
CONTOURS_MINEURES
10
5.996
20
34.331
0
VERTEX
8
CONTOURS_MINEURES
10
4.424
20
34.428
0
VERTEX
8
CONTOURS_MINEURES
10
3.002
20
34.747
0
VERTEX
8
CONTOURS_MINEURES
10
2.114
20
33.005
0
VERTEX
8
CONTOURS_MINEURES
10
2.114
20
30.886
0
VERTEX
8
CONTOURS_MINEURES
10
2.114
20
29.998
0
VERTEX
8
CONTOURS_MINEURES
10
1.322
20
28.324
0
VERTEX
8
CONTOURS_MINEURES
10
0.936
20
27.003
0
VERTEX
8
CONTOURS_MINEURES
10
-0.004
20
25.013
0
SEQEND
0
POLYLINE
8
CONTOURS_MINEURES
66
1
70
0
0
VERTEX
8
CONTOURS_MINEURES
10
-0.004
20
91.038
0
VERTEX
8
CONTOURS_MINEURES
10
0.478
20
92.515
0
VERTEX
8
CONTOURS_MINEURES
10
0.567
20
92.995
0
VERTEX
8
CONTOURS_MINEURES
10
0.750
20
95.247
0
VERTEX
8
CONTOURS_MINEURES
10
0.773
20
96.002
0
VERTEX
8
CONTOURS_MINEURES
10
0.773
20
96.776
0
VERTEX
8
CONTOURS_MINEURES
10
0.773
20
98.997
0
VERTEX
8
CONTOURS_MINEURES
10
0.026
20
101.974
0
VERTEX
8
CONTOURS_MINEURES
10
0.025
20
102.004
0
VERTEX
8
CONTOURS_MINEURES
10
0.019
20
102.027
0
VERTEX
8
CONTOURS_MINEURES
10
-0.004
20
102.052
0
SEQEND
0
POLYLINE
8
CONTOURS_MINEURES
66
1
70
0
0
VERTEX
8
CONTOURS_MINEURES
10
68.998
20
95.100
0
VERTEX
8
CONTOURS_MINEURES
10
68.100
20
95.100
0
VERTEX
8
CONTOURS_MINEURES
10
66.004
20
95.100
0
VERTEX
8
CONTOURS_MINEURES
10
65.687
20
96.002
0
VERTEX
8
CONTOURS_MINEURES
10
65.687
20
96.317
0
VERTEX
8
CONTOURS_MINEURES
10
65.687
20
98.997
0
VERTEX
8
CONTOURS_MINEURES
10
65.553
20
101.553
0
VERTEX
8
CONTOURS_MINEURES
10
65.071
20
102.004
0
VERTEX
8
CONTOURS_MINEURES
10
64.540
20
103.540
0
VERTEX
8
CONTOURS_MINEURES
10
62.998
20
103.668
0
VERTEX
8
CONTOURS_MINEURES
10
60.276
20
104.727
0
VERTEX
8
CONTOURS_MINEURES
10
60.004
20
104.880
0
VERTEX
8
CONTOURS_MINEURES
10
59.884
20
104.880
0
VERTEX
8
CONTOURS_MINEURES
10
56.999
20
104.880
0
VERTEX
8
CONTOURS_MINEURES
10
56.914
20
104.915
0
VERTEX
8
CONTOURS_MINEURES
10
56.749
20
105.000
0
VERTEX
8
CONTOURS_MINEURES
10
56.749
20
107.746
0
VERTEX
8
CONTOURS_MINEURES
10
56.749
20
107.995
0
VERTEX
8
CONTOURS_MINEURES
10
54.004
20
109.570
0
VERTEX
8
CONTOURS_MINEURES
10
52.264
20
109.736
0
VERTEX
8
CONTOURS_MINEURES
10
50.999
20
109.857
0
VERTEX
8
CONTOURS_MINEURES
10
49.858
20
109.857
0
VERTEX
8
CONTOURS_MINEURES
10
48.005
20
109.857
0
VERTEX
8
CONTOURS_MINEURES
10
47.040
20
108.960
0
VERTEX
8
CONTOURS_MINEURES
10
45.637
20
107.995
0
VERTEX
8
CONTOURS_MINEURES
10
45.637
20
105.635
0
VERTEX
8
CONTOURS_MINEURES
10
45.637
20
105.000
0
VERTEX
8
CONTOURS_MINEURES
10
45.563
20
102.566
0
VERTEX
8
CONTOURS_MINEURES
10
45.581
20
102.004
0
VERTEX
8
CONTOURS_MINEURES
10
47.575
20
99.427
0
VERTEX
8
CONTOURS_MINEURES
10
47.958
20
98.997
0
VERTEX
8
CONTOURS_MINEURES
10
47.958
20
98.951
0
VERTEX
8
CONTOURS_MINEURES
10
47.958
20
96.002
0
VERTEX
8
CONTOURS_MINEURES
10
48.005
20
95.501
0
VERTEX
8
CONTOURS_MINEURES
10
50.500
20
95.501
0
VERTEX
8
CONTOURS_MINEURES
10
50.999
20
95.501
0
VERTEX
8
CONTOURS_MINEURES
10
51.119
20
92.995
0
VERTEX
8
CONTOURS_MINEURES
10
50.999
20
92.669
0
VERTEX
8
CONTOURS_MINEURES
10
50.674
20
92.669
0
VERTEX
8
CONTOURS_MINEURES
10
48.005
20
92.669
0
VERTEX
8
CONTOURS_MINEURES
10
47.149
20
90.852
0
VERTEX
8
CONTOURS_MINEURES
10
46.874
20
89.999
0
VERTEX
8
CONTOURS_MINEURES
10
46.874
20
88.873
0
VERTEX
8
CONTOURS_MINEURES
10
46.874
20
87.004
0
VERTEX
8
CONTOURS_MINEURES
10
45.540
20
84.538
0
VERTEX
8
CONTOURS_MINEURES
10
45.265
20
83.997
0
VERTEX
8
CONTOURS_MINEURES
10
45.278
20
83.719
0
VERTEX
8
CONTOURS_MINEURES
10
44.999
20
83.204
0
VERTEX
8
CONTOURS_MINEURES
10
44.258
20
81.001
0
VERTEX
8
CONTOURS_MINEURES
10
44.258
20
78.739
0
VERTEX
8
CONTOURS_MINEURES
10
44.258
20
77.995
0
VERTEX
8
CONTOURS_MINEURES
10
44.426
20
75.573
0
VERTEX
8
CONTOURS_MINEURES
10
44.054
20
74.999
0
VERTEX
8
CONTOURS_MINEURES
10
44.054
20
74.053
0
VERTEX
8
CONTOURS_MINEURES
10
44.054
20
72.004
0
VERTEX
8
CONTOURS_MINEURES
10
43.261
20
70.258
0
VERTEX
8
CONTOURS_MINEURES
10
44.999
20
69.544
0
VERTEX
8
CONTOURS_MINEURES
10
46.502
20
70.500
0
VERTEX
8
CONTOURS_MINEURES
10
48.005
20
71.660
0
VERTEX
8
CONTOURS_MINEURES
10
48.347
20
71.660
0
VERTEX
8
CONTOURS_MINEURES
10
50.999
20
71.660
0
VERTEX
8
CONTOURS_MINEURES
10
51.187
20
71.816
0
VERTEX
8
CONTOURS_MINEURES
10
51.600
20
72.004
0
VERTEX
8
CONTOURS_MINEURES
10
51.600
20
72.603
0
VERTEX
8
CONTOURS_MINEURES
10
51.600
20
74.999
0
VERTEX
8
CONTOURS_MINEURES
10
53.542
20
75.460
0
VERTEX
8
CONTOURS_MINEURES
10
54.004
20
75.383
0
VERTEX
8
CONTOURS_MINEURES
10
54.281
20
75.276
0
VERTEX
8
CONTOURS_MINEURES
10
55.921
20
74.999
0
VERTEX
8
CONTOURS_MINEURES
10
55.921
20
73.082
0
VERTEX
8
CONTOURS_MINEURES
10
55.921
20
72.004
0
VERTEX
8
CONTOURS_MINEURES
10
56.999
20
71.706
0
VERTEX
8
CONTOURS_MINEURES
10
57.296
20
71.706
0
VERTEX
8
CONTOURS_MINEURES
10
60.004
20
71.706
0
VERTEX
8
CONTOURS_MINEURES
10
62.484
20
71.487
0
VERTEX
8
CONTOURS_MINEURES
10
62.998
20
70.868
0
VERTEX
8
CONTOURS_MINEURES
10
65.553
20
69.448
0
VERTEX
8
CONTOURS_MINEURES
10
65.687
20
72.004
0
VERTEX
8
CONTOURS_MINEURES
10
65.687
20
74.684
0
VERTEX
8
CONTOURS_MINEURES
10
65.687
20
74.999
0
VERTEX
8
CONTOURS_MINEURES
10
66.004
20
75.260
0
VERTEX
8
CONTOURS_MINEURES
10
68.738
20
75.260
0
VERTEX
8
CONTOURS_MINEURES
10
68.998
20
75.260
0
VERTEX
8
CONTOURS_MINEURES
10
70.212
20
77.995
0
VERTEX
8
CONTOURS_MINEURES
10
70.212
20
79.209
0
VERTEX
8
CONTOURS_MINEURES
10
70.212
20
81.001
0
VERTEX
8
CONTOURS_MINEURES
10
71.141
20
81.861
0
VERTEX
8
CONTOURS_MINEURES
10
71.409
20
83.997
0
VERTEX
8
CONTOURS_MINEURES
10
71.046
20
86.046
0
VERTEX
8
CONTOURS_MINEURES
10
70.801
20
87.004
0
VERTEX
8
CONTOURS_MINEURES
10
70.801
20
88.202
0
VERTEX
8
CONTOURS_MINEURES
10
70.801
20
89.999
0
VERTEX
8
CONTOURS_MINEURES
10
71.002
20
91.997
0
VERTEX
8
CONTOURS_MINEURES
10
70.024
20
92.995
0
VERTEX
8
CONTOURS_MINEURES
10
68.998
20
95.100
0
SEQEND
0
POLYLINE
8
CONTOURS_MINEURES
66
1
70
0
0
VERTEX
8
CONTOURS_MINEURES
10
122.995
20
28.569
0
VERTEX
8
CONTOURS_MINEURES
10
121.671
20
29.998
0
VERTEX
8
CONTOURS_MINEURES
10
121.671
20
31.676
0
VERTEX
8
CONTOURS_MINEURES
10
121.671
20
33.005
0
VERTEX
8
CONTOURS_MINEURES
10
120.001
20
34.769
0
VERTEX
8
CONTOURS_MINEURES
10
118.231
20
34.769
0
VERTEX
8
CONTOURS_MINEURES
10
116.995
20
34.769
0
VERTEX
8
CONTOURS_MINEURES
10
116.049
20
36.001
0
VERTEX
8
CONTOURS_MINEURES
10
114.001
20
38.854
0
VERTEX
8
CONTOURS_MINEURES
10
113.915
20
38.910
0
VERTEX
8
CONTOURS_MINEURES
10
113.790
20
38.996
0
VERTEX
8
CONTOURS_MINEURES
10
113.790
20
39.207
0
VERTEX
8
CONTOURS_MINEURES
10
113.790
20
42.003
0
VERTEX
8
CONTOURS_MINEURES
10
110.996
20
43.849
0
VERTEX
8
CONTOURS_MINEURES
10
109.847
20
43.849
0
VERTEX
8
CONTOURS_MINEURES
10
108.001
20
43.849
0
VERTEX
8
CONTOURS_MINEURES
10
105.819
20
44.178
0
VERTEX
8
CONTOURS_MINEURES
10
104.996
20
43.909
0
VERTEX
8
CONTOURS_MINEURES
10
103.798
20
43.800
0
VERTEX
8
CONTOURS_MINEURES
10
102.601
20
44.999
0
VERTEX
8
CONTOURS_MINEURES
10
102.601
20
47.404
0
VERTEX
8
CONTOURS_MINEURES
10
102.601
20
48.005
0
VERTEX
8
CONTOURS_MINEURES
10
102.274
20
48.278
0
VERTEX
8
CONTOURS_MINEURES
10
102.002
20
49.004
0
VERTEX
8
CONTOURS_MINEURES
10
99.998
20
49.004
0
VERTEX
8
CONTOURS_MINEURES
10
98.996
20
49.004
0
VERTEX
8
CONTOURS_MINEURES
10
98.187
20
50.191
0
VERTEX
8
CONTOURS_MINEURES
10
97.998
20
51.001
0
VERTEX
8
CONTOURS_MINEURES
10
96.002
20
53.854
0
VERTEX
8
CONTOURS_MINEURES
10
95.871
20
53.866
0
VERTEX
8
CONTOURS_MINEURES
10
92.997
20
53.997
0
VERTEX
8
CONTOURS_MINEURES
10
92.997
20
57.003
0
VERTEX
8
CONTOURS_MINEURES
10
90.002
20
57.003
0
VERTEX
8
CONTOURS_MINEURES
10
90.002
20
53.997
0
VERTEX
8
CONTOURS_MINEURES
10
88.596
20
52.403
0
VERTEX
8
CONTOURS_MINEURES
10
86.997
20
52.213
0
VERTEX
8
CONTOURS_MINEURES
10
85.657
20
51.001
0
VERTEX
8
CONTOURS_MINEURES
10
84.003
20
49.791
0
VERTEX
8
CONTOURS_MINEURES
10
82.211
20
49.791
0
VERTEX
8
CONTOURS_MINEURES
10
80.997
20
49.791
0
VERTEX
8
CONTOURS_MINEURES
10
80.217
20
48.786
0
VERTEX
8
CONTOURS_MINEURES
10
79.524
20
48.005
0
VERTEX
8
CONTOURS_MINEURES
10
79.524
20
46.478
0
VERTEX
8
CONTOURS_MINEURES
10
79.524
20
44.999
0
VERTEX
8
CONTOURS_MINEURES
10
78.003
20
43.374
0
VERTEX
8
CONTOURS_MINEURES
10
76.554
20
42.003
0
VERTEX
8
CONTOURS_MINEURES
10
76.554
20
40.553
0
VERTEX
8
CONTOURS_MINEURES
10
76.554
20
38.996
0
VERTEX
8
CONTOURS_MINEURES
10
75.988
20
38.009
0
VERTEX
8
CONTOURS_MINEURES
10
74.998
20
37.822
0
VERTEX
8
CONTOURS_MINEURES
10
73.824
20
37.822
0
VERTEX
8
CONTOURS_MINEURES
10
72.003
20
37.822
0
VERTEX
8
CONTOURS_MINEURES
10
70.986
20
37.014
0
VERTEX
8
CONTOURS_MINEURES
10
68.998
20
36.162
0
VERTEX
8
CONTOURS_MINEURES
10
66.165
20
36.162
0
VERTEX
8
CONTOURS_MINEURES
10
66.004
20
36.162
0
VERTEX
8
CONTOURS_MINEURES
10
65.892
20
36.112
0
VERTEX
8
CONTOURS_MINEURES
10
65.801
20
36.001
0
VERTEX
8
CONTOURS_MINEURES
10
62.998
20
33.678
0
VERTEX
8
CONTOURS_MINEURES
10
62.368
20
33.636
0
VERTEX
8
CONTOURS_MINEURES
10
60.004
20
33.731
0
VERTEX
8
CONTOURS_MINEURES
10
57.727
20
33.731
0
VERTEX
8
CONTOURS_MINEURES
10
56.999
20
33.731
0
VERTEX
8
CONTOURS_MINEURES
10
55.436
20
34.568
0
VERTEX
8
CONTOURS_MINEURES
10
54.004
20
35.122
0
VERTEX
8
CONTOURS_MINEURES
10
53.261
20
35.260
0
VERTEX
8
CONTOURS_MINEURES
10
51.872
20
36.001
0
VERTEX
8
CONTOURS_MINEURES
10
50.999
20
36.152
0
VERTEX
8
CONTOURS_MINEURES
10
50.848
20
36.152
0
VERTEX
8
CONTOURS_MINEURES
10
48.005
20
36.152
0
VERTEX
8
CONTOURS_MINEURES
10
47.575
20
36.001
0
VERTEX
8
CONTOURS_MINEURES
10
44.999
20
34.475
0
VERTEX
8
CONTOURS_MINEURES
10
44.334
20
33.671
0
VERTEX
8
CONTOURS_MINEURES
10
43.645
20
33.005
0
VERTEX
8
CONTOURS_MINEURES
10
43.645
20
31.358
0
VERTEX
8
CONTOURS_MINEURES
10
43.645
20
29.998
0
VERTEX
8
CONTOURS_MINEURES
10
42.005
20
28.426
0
VERTEX
8
CONTOURS_MINEURES
10
40.577
20
28.426
0
VERTEX
8
CONTOURS_MINEURES
10
39.000
20
28.426
0
VERTEX
8
CONTOURS_MINEURES
10
37.343
20
27.003
0
VERTEX
8
CONTOURS_MINEURES
10
36.005
20
25.449
0
VERTEX
8
CONTOURS_MINEURES
10
35.041
20
24.961
0
VERTEX
8
CONTOURS_MINEURES
10
33.000
20
24.603
0
VERTEX
8
CONTOURS_MINEURES
10
32.394
20
24.603
0
VERTEX
8
CONTOURS_MINEURES
10
29.995
20
24.603
0
VERTEX
8
CONTOURS_MINEURES
10
27.472
20
24.469
0
VERTEX
8
CONTOURS_MINEURES
10
27.000
20
24.452
0
VERTEX
8
CONTOURS_MINEURES
10
24.307
20
24.308
0
VERTEX
8
CONTOURS_MINEURES
10
23.995
20
24.381
0
VERTEX
8
CONTOURS_MINEURES
10
23.612
20
24.381
0
VERTEX
8
CONTOURS_MINEURES
10
21.001
20
24.381
0
VERTEX
8
CONTOURS_MINEURES
10
20.528
20
24.469
0
VERTEX
8
CONTOURS_MINEURES
10
17.995
20
24.046
0
VERTEX
8
CONTOURS_MINEURES
10
17.247
20
23.996
0
VERTEX
8
CONTOURS_MINEURES
10
17.247
20
21.749
0
VERTEX
8
CONTOURS_MINEURES
10
17.247
20
21.000
0
VERTEX
8
CONTOURS_MINEURES
10
17.496
20
20.501
0
VERTEX
8
CONTOURS_MINEURES
10
17.496
20
18.005
0
VERTEX
8
CONTOURS_MINEURES
10
17.496
20
17.504
0
VERTEX
8
CONTOURS_MINEURES
10
17.496
20
14.998
0
VERTEX
8
CONTOURS_MINEURES
10
17.995
20
14.811
0
VERTEX
8
CONTOURS_MINEURES
10
19.874
20
13.875
0
VERTEX
8
CONTOURS_MINEURES
10
21.001
20
12.751
0
VERTEX
8
CONTOURS_MINEURES
10
23.247
20
12.751
0
VERTEX
8
CONTOURS_MINEURES
10
23.995
20
12.751
0
VERTEX
8
CONTOURS_MINEURES
10
24.997
20
12.002
0
VERTEX
8
CONTOURS_MINEURES
10
25.712
20
10.714
0
VERTEX
8
CONTOURS_MINEURES
10
27.000
20
9.998
0
VERTEX
8
CONTOURS_MINEURES
10
27.473
20
9.470
0
VERTEX
8
CONTOURS_MINEURES
10
29.995
20
9.330
0
VERTEX
8
CONTOURS_MINEURES
10
32.666
20
9.330
0
VERTEX
8
CONTOURS_MINEURES
10
33.000
20
9.330
0
VERTEX
8
CONTOURS_MINEURES
10
33.194
20
9.190
0
VERTEX
8
CONTOURS_MINEURES
10
33.859
20
8.996
0
VERTEX
8
CONTOURS_MINEURES
10
33.859
20
8.140
0
VERTEX
8
CONTOURS_MINEURES
10
33.859
20
6.000
0
VERTEX
8
CONTOURS_MINEURES
10
36.005
20
4.638
0
VERTEX
8
CONTOURS_MINEURES
10
36.861
20
3.860
0
VERTEX
8
CONTOURS_MINEURES
10
38.251
20
3.004
0
VERTEX
8
CONTOURS_MINEURES
10
39.000
20
2.145
0
VERTEX
8
CONTOURS_MINEURES
10
39.858
20
2.145
0
VERTEX
8
CONTOURS_MINEURES
10
42.005
20
2.145
0
VERTEX
8
CONTOURS_MINEURES
10
42.330
20
0.325
0
VERTEX
8
CONTOURS_MINEURES
10
42.886
20
-0.002
0
SEQEND
0
POLYLINE
8
CONTOURS_MINEURES
66
1
70
0
0
VERTEX
8
CONTOURS_MINEURES
10
64.924
20
88.080
0
VERTEX
8
CONTOURS_MINEURES
10
64.924
20
89.999
0
VERTEX
8
CONTOURS_MINEURES
10
64.465
20
91.462
0
VERTEX
8
CONTOURS_MINEURES
10
63.494
20
92.995
0
VERTEX
8
CONTOURS_MINEURES
10
62.998
20
93.770
0
VERTEX
8
CONTOURS_MINEURES
10
61.688
20
94.686
0
VERTEX
8
CONTOURS_MINEURES
10
60.004
20
95.955
0
VERTEX
8
CONTOURS_MINEURES
10
57.046
20
95.955
0
VERTEX
8
CONTOURS_MINEURES
10
56.999
20
95.955
0
VERTEX
8
CONTOURS_MINEURES
10
56.856
20
95.859
0
VERTEX
8
CONTOURS_MINEURES
10
54.004
20
95.859
0
VERTEX
8
CONTOURS_MINEURES
10
53.499
20
93.500
0
VERTEX
8
CONTOURS_MINEURES
10
53.523
20
92.995
0
VERTEX
8
CONTOURS_MINEURES
10
53.243
20
92.237
0
VERTEX
8
CONTOURS_MINEURES
10
52.395
20
89.999
0
VERTEX
8
CONTOURS_MINEURES
10
52.395
20
88.395
0
VERTEX
8
CONTOURS_MINEURES
10
52.395
20
87.004
0
VERTEX
8
CONTOURS_MINEURES
10
52.374
20
85.629
0
VERTEX
8
CONTOURS_MINEURES
10
51.272
20
83.997
0
VERTEX
8
CONTOURS_MINEURES
10
51.439
20
81.440
0
VERTEX
8
CONTOURS_MINEURES
10
52.716
20
81.001
0
VERTEX
8
CONTOURS_MINEURES
10
52.716
20
79.283
0
VERTEX
8
CONTOURS_MINEURES
10
52.716
20
77.995
0
VERTEX
8
CONTOURS_MINEURES
10
54.004
20
77.779
0
VERTEX
8
CONTOURS_MINEURES
10
56.012
20
77.008
0
VERTEX
8
CONTOURS_MINEURES
10
56.999
20
76.841
0
VERTEX
8
CONTOURS_MINEURES
10
58.156
20
76.841
0
VERTEX
8
CONTOURS_MINEURES
10
60.004
20
76.841
0
VERTEX
8
CONTOURS_MINEURES
10
62.785
20
77.781
0
VERTEX
8
CONTOURS_MINEURES
10
62.998
20
77.762
0
VERTEX
8
CONTOURS_MINEURES
10
63.243
20
77.995
0
VERTEX
8
CONTOURS_MINEURES
10
63.243
20
78.240
0
VERTEX
8
CONTOURS_MINEURES
10
63.243
20
81.001
0
VERTEX
8
CONTOURS_MINEURES
10
63.700
20
81.700
0
VERTEX
8
CONTOURS_MINEURES
10
65.369
20
83.997
0
VERTEX
8
CONTOURS_MINEURES
10
65.345
20
84.656
0
VERTEX
8
CONTOURS_MINEURES
10
64.924
20
87.004
0
VERTEX
8
CONTOURS_MINEURES
10
64.924
20
88.080
0
SEQEND
0
POLYLINE
8
CONTOURS_MINEURES
66
1
70
0
0
VERTEX
8
CONTOURS_MINEURES
10
2.565
20
20.565
0
VERTEX
8
CONTOURS_MINEURES
10
3.002
20
20.227
0
VERTEX
8
CONTOURS_MINEURES
10
5.757
20
18.005
0
VERTEX
8
CONTOURS_MINEURES
10
5.757
20
15.239
0
VERTEX
8
CONTOURS_MINEURES
10
5.757
20
14.998
0
VERTEX
8
CONTOURS_MINEURES
10
5.874
20
14.876
0
VERTEX
8
CONTOURS_MINEURES
10
5.996
20
14.840
0
VERTEX
8
CONTOURS_MINEURES
10
6.154
20
14.840
0
VERTEX
8
CONTOURS_MINEURES
10
9.001
20
14.840
0
VERTEX
8
CONTOURS_MINEURES
10
9.195
20
14.805
0
VERTEX
8
CONTOURS_MINEURES
10
9.857
20
14.998
0
VERTEX
8
CONTOURS_MINEURES
10
9.857
20
17.146
0
VERTEX
8
CONTOURS_MINEURES
10
9.857
20
18.005
0
VERTEX
8
CONTOURS_MINEURES
10
11.345
20
18.656
0
VERTEX
8
CONTOURS_MINEURES
10
11.568
20
21.000
0
VERTEX
8
CONTOURS_MINEURES
10
11.568
20
23.568
0
VERTEX
8
CONTOURS_MINEURES
10
11.568
20
23.996
0
VERTEX
8
CONTOURS_MINEURES
10
10.038
20
25.037
0
VERTEX
8
CONTOURS_MINEURES
10
9.001
20
26.573
0
VERTEX
8
CONTOURS_MINEURES
10
8.572
20
26.573
0
VERTEX
8
CONTOURS_MINEURES
10
5.996
20
26.573
0
VERTEX
8
CONTOURS_MINEURES
10
3.159
20
26.844
0
VERTEX
8
CONTOURS_MINEURES
10
3.002
20
26.669
0
VERTEX
8
CONTOURS_MINEURES
10
2.719
20
23.996
0
VERTEX
8
CONTOURS_MINEURES
10
2.719
20
21.282
0
VERTEX
8
CONTOURS_MINEURES
10
2.719
20
21.000
0
VERTEX
8
CONTOURS_MINEURES
10
2.565
20
20.565
0
SEQEND
0
POLYLINE
8
CONTOURS_MINEURES
66
1
70
0
0
VERTEX
8
CONTOURS_MINEURES
10
28.089
20
1.911
0
VERTEX
8
CONTOURS_MINEURES
10
28.997
20
3.004
0
VERTEX
8
CONTOURS_MINEURES
10
28.997
20
5.002
0
VERTEX
8
CONTOURS_MINEURES
10
27.000
20
4.716
0
VERTEX
8
CONTOURS_MINEURES
10
25.999
20
4.003
0
VERTEX
8
CONTOURS_MINEURES
10
25.908
20
3.004
0
VERTEX
8
CONTOURS_MINEURES
10
26.727
20
2.731
0
VERTEX
8
CONTOURS_MINEURES
10
27.000
20
2.432
0
VERTEX
8
CONTOURS_MINEURES
10
28.089
20
1.911
0
SEQEND
0
POLYLINE
8
CONTOURS_MINEURES
66
1
70
0
0
VERTEX
8
CONTOURS_MINEURES
10
80.436
20
-0.002
0
VERTEX
8
CONTOURS_MINEURES
10
80.997
20
0.562
0
VERTEX
8
CONTOURS_MINEURES
10
83.439
20
0.562
0
VERTEX
8
CONTOURS_MINEURES
10
84.003
20
0.562
0
VERTEX
8
CONTOURS_MINEURES
10
84.901
20
0.900
0
VERTEX
8
CONTOURS_MINEURES
10
86.997
20
1.501
0
VERTEX
8
CONTOURS_MINEURES
10
88.235
20
1.766
0
VERTEX
8
CONTOURS_MINEURES
10
90.002
20
1.668
0
VERTEX
8
CONTOURS_MINEURES
10
91.333
20
1.668
0
VERTEX
8
CONTOURS_MINEURES
10
92.997
20
1.668
0
VERTEX
8
CONTOURS_MINEURES
10
94.765
20
1.766
0
VERTEX
8
CONTOURS_MINEURES
10
96.002
20
2.128
0
VERTEX
8
CONTOURS_MINEURES
10
96.619
20
2.385
0
VERTEX
8
CONTOURS_MINEURES
10
97.499
20
3.004
0
VERTEX
8
CONTOURS_MINEURES
10
97.998
20
4.003
0
VERTEX
8
CONTOURS_MINEURES
10
98.996
20
4.752
0
VERTEX
8
CONTOURS_MINEURES
10
100.249
20
4.752
0
VERTEX
8
CONTOURS_MINEURES
10
102.002
20
4.752
0
VERTEX
8
CONTOURS_MINEURES
10
104.996
20
6.000
0
VERTEX
8
CONTOURS_MINEURES
10
104.996
20
8.996
0
VERTEX
8
CONTOURS_MINEURES
10
108.001
20
12.002
0
VERTEX
8
CONTOURS_MINEURES
10
110.996
20
12.002
0
VERTEX
8
CONTOURS_MINEURES
10
114.001
20
12.654
0
VERTEX
8
CONTOURS_MINEURES
10
114.882
20
12.883
0
VERTEX
8
CONTOURS_MINEURES
10
116.995
20
12.002
0
VERTEX
8
CONTOURS_MINEURES
10
120.001
20
12.002
0
VERTEX
8
CONTOURS_MINEURES
10
121.634
20
13.364
0
VERTEX
8
CONTOURS_MINEURES
10
122.995
20
13.875
0
SEQEND
0
POLYLINE
8
CONTOURS_MINEURES
66
1
70
0
0
VERTEX
8
CONTOURS_MINEURES
10
122.995
20
24.543
0
VERTEX
8
CONTOURS_MINEURES
10
120.868
20
27.003
0
VERTEX
8
CONTOURS_MINEURES
10
120.001
20
27.958
0
VERTEX
8
CONTOURS_MINEURES
10
119.043
20
27.958
0
VERTEX
8
CONTOURS_MINEURES
10
116.995
20
27.958
0
VERTEX
8
CONTOURS_MINEURES
10
115.432
20
29.998
0
VERTEX
8
CONTOURS_MINEURES
10
115.432
20
31.435
0
VERTEX
8
CONTOURS_MINEURES
10
115.432
20
33.005
0
VERTEX
8
CONTOURS_MINEURES
10
114.001
20
35.050
0
VERTEX
8
CONTOURS_MINEURES
10
113.142
20
35.145
0
VERTEX
8
CONTOURS_MINEURES
10
112.908
20
36.001
0
VERTEX
8
CONTOURS_MINEURES
10
111.753
20
36.755
0
VERTEX
8
CONTOURS_MINEURES
10
110.996
20
37.279
0
VERTEX
8
CONTOURS_MINEURES
10
109.718
20
37.279
0
VERTEX
8
CONTOURS_MINEURES
10
108.001
20
37.279
0
VERTEX
8
CONTOURS_MINEURES
10
106.213
20
37.214
0
VERTEX
8
CONTOURS_MINEURES
10
104.996
20
36.989
0
VERTEX
8
CONTOURS_MINEURES
10
104.057
20
36.940
0
VERTEX
8
CONTOURS_MINEURES
10
102.092
20
36.001
0
VERTEX
8
CONTOURS_MINEURES
10
102.002
20
35.934
0
VERTEX
8
CONTOURS_MINEURES
10
99.063
20
35.934
0
VERTEX
8
CONTOURS_MINEURES
10
98.996
20
35.934
0
VERTEX
8
CONTOURS_MINEURES
10
97.307
20
34.695
0
VERTEX
8
CONTOURS_MINEURES
10
96.002
20
33.879
0
VERTEX
8
CONTOURS_MINEURES
10
94.384
20
33.005
0
VERTEX
8
CONTOURS_MINEURES
10
94.384
20
31.617
0
VERTEX
8
CONTOURS_MINEURES
10
94.384
20
29.998
0
VERTEX
8
CONTOURS_MINEURES
10
93.619
20
29.379
0
VERTEX
8
CONTOURS_MINEURES
10
92.997
20
29.077
0
VERTEX
8
CONTOURS_MINEURES
10
90.924
20
29.077
0
VERTEX
8
CONTOURS_MINEURES
10
90.002
20
29.077
0
VERTEX
8
CONTOURS_MINEURES
10
87.204
20
27.003
0
VERTEX
8
CONTOURS_MINEURES
10
87.125
20
26.875
0
VERTEX
8
CONTOURS_MINEURES
10
86.997
20
26.788
0
VERTEX
8
CONTOURS_MINEURES
10
84.003
20
23.996
0
VERTEX
8
CONTOURS_MINEURES
10
80.997
20
23.996
0
VERTEX
8
CONTOURS_MINEURES
10
80.997
20
21.000
0
VERTEX
8
CONTOURS_MINEURES
10
78.447
20
20.557
0
VERTEX
8
CONTOURS_MINEURES
10
78.623
20
18.005
0
VERTEX
8
CONTOURS_MINEURES
10
78.623
20
17.383
0
VERTEX
8
CONTOURS_MINEURES
10
78.623
20
14.998
0
VERTEX
8
CONTOURS_MINEURES
10
78.003
20
14.560
0
VERTEX
8
CONTOURS_MINEURES
10
75.899
20
14.099
0
VERTEX
8
CONTOURS_MINEURES
10
74.998
20
13.270
0
VERTEX
8
CONTOURS_MINEURES
10
73.731
20
13.270
0
VERTEX
8
CONTOURS_MINEURES
10
72.003
20
13.270
0
VERTEX
8
CONTOURS_MINEURES
10
70.937
20
12.002
0
VERTEX
8
CONTOURS_MINEURES
10
69.516
20
11.484
0
VERTEX
8
CONTOURS_MINEURES
10
68.998
20
11.118
0
VERTEX
8
CONTOURS_MINEURES
10
66.884
20
11.118
0
VERTEX
8
CONTOURS_MINEURES
10
66.004
20
11.118
0
VERTEX
8
CONTOURS_MINEURES
10
62.998
20
8.996
0
VERTEX
8
CONTOURS_MINEURES
10
62.998
20
6.000
0
VERTEX
8
CONTOURS_MINEURES
10
60.004
20
3.473
0
VERTEX
8
CONTOURS_MINEURES
10
57.468
20
3.473
0
VERTEX
8
CONTOURS_MINEURES
10
56.999
20
3.473
0
VERTEX
8
CONTOURS_MINEURES
10
56.680
20
3.323
0
VERTEX
8
CONTOURS_MINEURES
10
56.423
20
3.004
0
VERTEX
8
CONTOURS_MINEURES
10
56.001
20
2.002
0
VERTEX
8
CONTOURS_MINEURES
10
55.876
20
-0.002
0
SEQEND
0
POLYLINE
8
CONTOURS_MINEURES
66
1
70
0
0
VERTEX
8
CONTOURS_MINEURES
10
62.000
20
89.999
0
VERTEX
8
CONTOURS_MINEURES
10
60.004
20
91.477
0
VERTEX
8
CONTOURS_MINEURES
10
58.481
20
91.477
0
VERTEX
8
CONTOURS_MINEURES
10
56.999
20
91.477
0
VERTEX
8
CONTOURS_MINEURES
10
56.069
20
90.929
0
VERTEX
8
CONTOURS_MINEURES
10
55.413
20
89.999
0
VERTEX
8
CONTOURS_MINEURES
10
55.413
20
88.414
0
VERTEX
8
CONTOURS_MINEURES
10
55.413
20
87.004
0
VERTEX
8
CONTOURS_MINEURES
10
55.883
20
85.117
0
VERTEX
8
CONTOURS_MINEURES
10
55.838
20
83.997
0
VERTEX
8
CONTOURS_MINEURES
10
56.999
20
83.079
0
VERTEX
8
CONTOURS_MINEURES
10
57.920
20
83.079
0
VERTEX
8
CONTOURS_MINEURES
10
60.004
20
83.079
0
VERTEX
8
CONTOURS_MINEURES
10
61.728
20
83.997
0
VERTEX
8
CONTOURS_MINEURES
10
61.542
20
85.541
0
VERTEX
8
CONTOURS_MINEURES
10
62.000
20
87.004
0
VERTEX
8
CONTOURS_MINEURES
10
62.000
20
89.001
0
VERTEX
8
CONTOURS_MINEURES
10
62.000
20
89.999
0
SEQEND
0
POLYLINE
8
CONTOURS_MINEURES
66
1
70
0
0
VERTEX
8
CONTOURS_MINEURES
10
71.647
20
3.360
0
VERTEX
8
CONTOURS_MINEURES
10
70.601
20
3.004
0
VERTEX
8
CONTOURS_MINEURES
10
71.565
20
2.566
0
VERTEX
8
CONTOURS_MINEURES
10
72.003
20
2.575
0
VERTEX
8
CONTOURS_MINEURES
10
72.431
20
2.575
0
VERTEX
8
CONTOURS_MINEURES
10
74.998
20
2.575
0
VERTEX
8
CONTOURS_MINEURES
10
75.222
20
2.781
0
VERTEX
8
CONTOURS_MINEURES
10
75.380
20
3.004
0
VERTEX
8
CONTOURS_MINEURES
10
75.524
20
3.529
0
VERTEX
8
CONTOURS_MINEURES
10
74.998
20
4.911
0
VERTEX
8
CONTOURS_MINEURES
10
73.909
20
4.911
0
VERTEX
8
CONTOURS_MINEURES
10
72.003
20
4.911
0
VERTEX
8
CONTOURS_MINEURES
10
71.647
20
3.360
0
SEQEND
0
POLYLINE
8
CONTOURS_MAJEURES
66
1
70
0
0
VERTEX
8
CONTOURS_MAJEURES
10
43.128
20
113.998
0
VERTEX
8
CONTOURS_MAJEURES
10
43.128
20
112.874
0
VERTEX
8
CONTOURS_MAJEURES
10
43.128
20
111.002
0
VERTEX
8
CONTOURS_MAJEURES
10
42.679
20
110.326
0
VERTEX
8
CONTOURS_MAJEURES
10
42.005
20
109.602
0
VERTEX
8
CONTOURS_MAJEURES
10
40.606
20
109.602
0
VERTEX
8
CONTOURS_MAJEURES
10
39.000
20
109.602
0
VERTEX
8
CONTOURS_MAJEURES
10
38.359
20
108.638
0
VERTEX
8
CONTOURS_MAJEURES
10
37.980
20
107.995
0
VERTEX
8
CONTOURS_MAJEURES
10
37.980
20
106.975
0
VERTEX
8
CONTOURS_MAJEURES
10
37.980
20
105.000
0
VERTEX
8
CONTOURS_MAJEURES
10
37.654
20
103.351
0
VERTEX
8
CONTOURS_MAJEURES
10
37.532
20
102.004
0
VERTEX
8
CONTOURS_MAJEURES
10
37.746
20
100.745
0
VERTEX
8
CONTOURS_MAJEURES
10
39.000
20
99.464
0
VERTEX
8
CONTOURS_MAJEURES
10
41.539
20
99.464
0
VERTEX
8
CONTOURS_MAJEURES
10
42.005
20
99.464
0
VERTEX
8
CONTOURS_MAJEURES
10
42.267
20
99.260
0
VERTEX
8
CONTOURS_MAJEURES
10
42.591
20
98.997
0
VERTEX
8
CONTOURS_MAJEURES
10
42.591
20
98.411
0
VERTEX
8
CONTOURS_MAJEURES
10
42.591
20
96.002
0
VERTEX
8
CONTOURS_MAJEURES
10
43.680
20
94.677
0
VERTEX
8
CONTOURS_MAJEURES
10
44.999
20
93.221
0
VERTEX
8
CONTOURS_MAJEURES
10
45.091
20
92.995
0
VERTEX
8
CONTOURS_MAJEURES
10
45.062
20
92.933
0
VERTEX
8
CONTOURS_MAJEURES
10
44.999
20
92.738
0
VERTEX
8
CONTOURS_MAJEURES
10
43.786
20
91.213
0
VERTEX
8
CONTOURS_MAJEURES
10
43.816
20
89.999
0
VERTEX
8
CONTOURS_MAJEURES
10
43.816
20
88.816
0
VERTEX
8
CONTOURS_MAJEURES
10
43.816
20
87.004
0
VERTEX
8
CONTOURS_MAJEURES
10
43.053
20
85.951
0
VERTEX
8
CONTOURS_MAJEURES
10
42.476
20
83.997
0
VERTEX
8
CONTOURS_MAJEURES
10
42.005
20
82.755
0
VERTEX
8
CONTOURS_MAJEURES
10
40.246
20
82.755
0
VERTEX
8
CONTOURS_MAJEURES
10
39.000
20
82.755
0
VERTEX
8
CONTOURS_MAJEURES
10
38.066
20
81.001
0
VERTEX
8
CONTOURS_MAJEURES
10
38.066
20
78.932
0
VERTEX
8
CONTOURS_MAJEURES
10
38.066
20
77.995
0
VERTEX
8
CONTOURS_MAJEURES
10
37.397
20
76.602
0
VERTEX
8
CONTOURS_MAJEURES
10
36.352
20
74.999
0
VERTEX
8
CONTOURS_MAJEURES
10
36.352
20
72.351
0
VERTEX
8
CONTOURS_MAJEURES
10
36.352
20
72.004
0
VERTEX
8
CONTOURS_MAJEURES
10
36.005
20
71.513
0
VERTEX
8
CONTOURS_MAJEURES
10
34.220
20
68.997
0
VERTEX
8
CONTOURS_MAJEURES
10
34.202
20
67.799
0
VERTEX
8
CONTOURS_MAJEURES
10
33.751
20
66.001
0
VERTEX
8
CONTOURS_MAJEURES
10
33.751
20
65.250
0
VERTEX
8
CONTOURS_MAJEURES
10
33.751
20
62.995
0
VERTEX
8
CONTOURS_MAJEURES
10
33.690
20
62.307
0
VERTEX
8
CONTOURS_MAJEURES
10
33.000
20
61.441
0
VERTEX
8
CONTOURS_MAJEURES
10
31.553
20
61.441
0
VERTEX
8
CONTOURS_MAJEURES
10
29.995
20
61.441
0
VERTEX
8
CONTOURS_MAJEURES
10
29.377
20
59.999
0
VERTEX
8
CONTOURS_MAJEURES
10
29.184
20
59.188
0
VERTEX
8
CONTOURS_MAJEURES
10
28.417
20
57.003
0
VERTEX
8
CONTOURS_MAJEURES
10
28.417
20
55.581
0
VERTEX
8
CONTOURS_MAJEURES
10
28.417
20
53.997
0
VERTEX
8
CONTOURS_MAJEURES
10
28.535
20
52.536
0
VERTEX
8
CONTOURS_MAJEURES
10
29.193
20
51.001
0
VERTEX
8
CONTOURS_MAJEURES
10
29.995
20
50.213
0
VERTEX
8
CONTOURS_MAJEURES
10
30.786
20
50.213
0
VERTEX
8
CONTOURS_MAJEURES
10
33.000
20
50.213
0
VERTEX
8
CONTOURS_MAJEURES
10
34.670
20
49.337
0
VERTEX
8
CONTOURS_MAJEURES
10
36.005
20
48.519
0
VERTEX
8
CONTOURS_MAJEURES
10
37.032
20
49.032
0
VERTEX
8
CONTOURS_MAJEURES
10
36.804
20
48.005
0
VERTEX
8
CONTOURS_MAJEURES
10
36.804
20
47.204
0
VERTEX
8
CONTOURS_MAJEURES
10
36.804
20
44.999
0
VERTEX
8
CONTOURS_MAJEURES
10
37.203
20
43.201
0
VERTEX
8
CONTOURS_MAJEURES
10
37.612
20
42.003
0
VERTEX
8
CONTOURS_MAJEURES
10
37.612
20
40.390
0
VERTEX
8
CONTOURS_MAJEURES
10
37.612
20
38.996
0
VERTEX
8
CONTOURS_MAJEURES
10
37.652
20
37.349
0
VERTEX
8
CONTOURS_MAJEURES
10
38.207
20
36.001
0
VERTEX
8
CONTOURS_MAJEURES
10
36.005
20
33.830
0
VERTEX
8
CONTOURS_MAJEURES
10
35.325
20
33.683
0
VERTEX
8
CONTOURS_MAJEURES
10
33.966
20
33.005
0
VERTEX
8
CONTOURS_MAJEURES
10
33.966
20
30.965
0
VERTEX
8
CONTOURS_MAJEURES
10
33.966
20
29.998
0
VERTEX
8
CONTOURS_MAJEURES
10
33.166
20
29.833
0
VERTEX
8
CONTOURS_MAJEURES
10
33.000
20
29.770
0
VERTEX
8
CONTOURS_MAJEURES
10
32.771
20
29.770
0
VERTEX
8
CONTOURS_MAJEURES
10
29.995
20
29.770
0
VERTEX
8
CONTOURS_MAJEURES
10
27.612
20
29.386
0
VERTEX
8
CONTOURS_MAJEURES
10
27.000
20
29.368
0
VERTEX
8
CONTOURS_MAJEURES
10
26.450
20
29.450
0
VERTEX
8
CONTOURS_MAJEURES
10
23.995
20
29.466
0
VERTEX
8
CONTOURS_MAJEURES
10
23.463
20
29.466
0
VERTEX
8
CONTOURS_MAJEURES
10
21.001
20
29.466
0
VERTEX
8
CONTOURS_MAJEURES
10
20.518
20
29.517
0
VERTEX
8
CONTOURS_MAJEURES
10
17.995
20
29.502
0
VERTEX
8
CONTOURS_MAJEURES
10
17.563
20
29.566
0
VERTEX
8
CONTOURS_MAJEURES
10
16.598
20
29.998
0
VERTEX
8
CONTOURS_MAJEURES
10
16.598
20
31.602
0
VERTEX
8
CONTOURS_MAJEURES
10
16.598
20
33.005
0
VERTEX
8
CONTOURS_MAJEURES
10
15.001
20
34.036
0
VERTEX
8
CONTOURS_MAJEURES
10
13.967
20
34.036
0
VERTEX
8
CONTOURS_MAJEURES
10
11.996
20
34.036
0
VERTEX
8
CONTOURS_MAJEURES
10
10.132
20
36.001
0
VERTEX
8
CONTOURS_MAJEURES
10
9.001
20
37.008
0
VERTEX
8
CONTOURS_MAJEURES
10
7.007
20
37.008
0
VERTEX
8
CONTOURS_MAJEURES
10
5.996
20
37.008
0
VERTEX
8
CONTOURS_MAJEURES
10
4.340
20
37.340
0
VERTEX
8
CONTOURS_MAJEURES
10
3.002
20
37.187
0
VERTEX
8
CONTOURS_MAJEURES
10
2.196
20
36.001
0
VERTEX
8
CONTOURS_MAJEURES
10
1.135
20
34.140
0
VERTEX
8
CONTOURS_MAJEURES
10
0.557
20
33.005
0
VERTEX
8
CONTOURS_MAJEURES
10
0.557
20
32.444
0
VERTEX
8
CONTOURS_MAJEURES
10
0.557
20
29.998
0
VERTEX
8
CONTOURS_MAJEURES
10
-0.004
20
28.813
0
SEQEND
0
POLYLINE
8
CONTOURS_MAJEURES
66
1
70
0
0
VERTEX
8
CONTOURS_MAJEURES
10
-0.004
20
85.180
0
VERTEX
8
CONTOURS_MAJEURES
10
0.959
20
87.004
0
VERTEX
8
CONTOURS_MAJEURES
10
0.959
20
87.963
0
VERTEX
8
CONTOURS_MAJEURES
10
0.959
20
89.999
0
VERTEX
8
CONTOURS_MAJEURES
10
1.460
20
91.536
0
VERTEX
8
CONTOURS_MAJEURES
10
1.732
20
92.995
0
VERTEX
8
CONTOURS_MAJEURES
10
1.828
20
94.170
0
VERTEX
8
CONTOURS_MAJEURES
10
1.882
20
96.002
0
VERTEX
8
CONTOURS_MAJEURES
10
1.882
20
97.881
0
VERTEX
8
CONTOURS_MAJEURES
10
1.882
20
98.997
0
VERTEX
8
CONTOURS_MAJEURES
10
1.506
20
100.493
0
VERTEX
8
CONTOURS_MAJEURES
10
1.436
20
102.004
0
VERTEX
8
CONTOURS_MAJEURES
10
1.158
20
103.162
0
VERTEX
8
CONTOURS_MAJEURES
10
-0.004
20
104.429
0
SEQEND
0
POLYLINE
8
CONTOURS_MAJEURES
66
1
70
0
0
VERTEX
8
CONTOURS_MAJEURES
10
47.711
20
48.005
0
VERTEX
8
CONTOURS_MAJEURES
10
46.793
20
49.793
0
VERTEX
8
CONTOURS_MAJEURES
10
44.999
20
50.364
0
VERTEX
8
CONTOURS_MAJEURES
10
44.092
20
51.001
0
VERTEX
8
CONTOURS_MAJEURES
10
44.412
20
51.588
0
VERTEX
8
CONTOURS_MAJEURES
10
44.674
20
53.997
0
VERTEX
8
CONTOURS_MAJEURES
10
44.674
20
56.676
0
VERTEX
8
CONTOURS_MAJEURES
10
44.674
20
57.003
0
VERTEX
8
CONTOURS_MAJEURES
10
44.999
20
57.322
0
VERTEX
8
CONTOURS_MAJEURES
10
46.001
20
57.003
0
VERTEX
8
CONTOURS_MAJEURES
10
46.001
20
54.999
0
VERTEX
8
CONTOURS_MAJEURES
10
46.001
20
53.997
0
VERTEX
8
CONTOURS_MAJEURES
10
48.005
20
53.141
0
VERTEX
8
CONTOURS_MAJEURES
10
50.143
20
53.141
0
VERTEX
8
CONTOURS_MAJEURES
10
50.999
20
53.141
0
VERTEX
8
CONTOURS_MAJEURES
10
52.788
20
52.784
0
VERTEX
8
CONTOURS_MAJEURES
10
54.004
20
52.620
0
VERTEX
8
CONTOURS_MAJEURES
10
55.962
20
52.038
0
VERTEX
8
CONTOURS_MAJEURES
10
56.550
20
53.997
0
VERTEX
8
CONTOURS_MAJEURES
10
56.550
20
54.448
0
VERTEX
8
CONTOURS_MAJEURES
10
56.550
20
57.003
0
VERTEX
8
CONTOURS_MAJEURES
10
56.999
20
57.902
0
VERTEX
8
CONTOURS_MAJEURES
10
57.900
20
57.902
0
VERTEX
8
CONTOURS_MAJEURES
10
60.004
20
57.902
0
VERTEX
8
CONTOURS_MAJEURES
10
60.753
20
57.752
0
VERTEX
8
CONTOURS_MAJEURES
10
62.998
20
57.548
0
VERTEX
8
CONTOURS_MAJEURES
10
63.285
20
57.003
0
VERTEX
8
CONTOURS_MAJEURES
10
63.285
20
54.283
0
VERTEX
8
CONTOURS_MAJEURES
10
63.285
20
53.997
0
VERTEX
8
CONTOURS_MAJEURES
10
62.998
20
53.775
0
VERTEX
8
CONTOURS_MAJEURES
10
60.325
20
53.676
0
VERTEX
8
CONTOURS_MAJEURES
10
60.797
20
51.001
0
VERTEX
8
CONTOURS_MAJEURES
10
60.004
20
50.038
0
VERTEX
8
CONTOURS_MAJEURES
10
59.038
20
50.038
0
VERTEX
8
CONTOURS_MAJEURES
10
56.999
20
50.038
0
VERTEX
8
CONTOURS_MAJEURES
10
54.723
20
48.005
0
VERTEX
8
CONTOURS_MAJEURES
10
54.723
20
47.284
0
VERTEX
8
CONTOURS_MAJEURES
10
54.723
20
44.999
0
VERTEX
8
CONTOURS_MAJEURES
10
54.004
20
44.526
0
VERTEX
8
CONTOURS_MAJEURES
10
53.517
20
44.513
0
VERTEX
8
CONTOURS_MAJEURES
10
50.999
20
44.656
0
VERTEX
8
CONTOURS_MAJEURES
10
50.657
20
44.656
0
VERTEX
8
CONTOURS_MAJEURES
10
48.005
20
44.656
0
VERTEX
8
CONTOURS_MAJEURES
10
47.711
20
44.999
0
VERTEX
8
CONTOURS_MAJEURES
10
47.711
20
47.712
0
VERTEX
8
CONTOURS_MAJEURES
10
47.711
20
48.005
0
SEQEND
0
POLYLINE
8
PARCELLE
66
1
70
1
0
VERTEX
8
PARCELLE
10
72.693
20
95.340
0
VERTEX
8
PARCELLE
10
103.203
20
57.044
0
VERTEX
8
PARCELLE
10
73.271
20
28.464
0
VERTEX
8
PARCELLE
10
73.150
20
28.366
0
VERTEX
8
PARCELLE
10
73.030
20
28.276
0
VERTEX
8
PARCELLE
10
72.909
20
28.178
0
VERTEX
8
PARCELLE
10
72.789
20
28.078
0
VERTEX
8
PARCELLE
10
72.668
20
27.990
0
VERTEX
8
PARCELLE
10
72.547
20
27.890
0
VERTEX
8
PARCELLE
10
72.436
20
27.792
0
VERTEX
8
PARCELLE
10
72.316
20
27.704
0
VERTEX
8
PARCELLE
10
72.195
20
27.604
0
VERTEX
8
PARCELLE
10
72.073
20
27.506
0
VERTEX
8
PARCELLE
10
71.953
20
27.416
0
VERTEX
8
PARCELLE
10
71.832
20
27.318
0
VERTEX
8
PARCELLE
10
71.711
20
27.218
0
VERTEX
8
PARCELLE
10
71.591
20
27.130
0
VERTEX
8
PARCELLE
10
71.470
20
27.030
0
VERTEX
8
PARCELLE
10
71.349
20
26.932
0
VERTEX
8
PARCELLE
10
71.229
20
26.844
0
VERTEX
8
PARCELLE
10
71.107
20
26.744
0
VERTEX
8
PARCELLE
10
70.986
20
26.646
0
VERTEX
8
PARCELLE
10
70.866
20
26.556
0
VERTEX
8
PARCELLE
10
70.755
20
26.458
0
VERTEX
8
PARCELLE
10
70.634
20
26.368
0
VERTEX
8
PARCELLE
10
70.514
20
26.280
0
VERTEX
8
PARCELLE
10
70.393
20
26.180
0
VERTEX
8
PARCELLE
10
70.272
20
26.092
0
VERTEX
8
PARCELLE
10
70.161
20
26.002
0
VERTEX
8
PARCELLE
10
70.041
20
25.914
0
VERTEX
8
PARCELLE
10
69.920
20
25.816
0
VERTEX
8
PARCELLE
10
69.809
20
25.726
0
VERTEX
8
PARCELLE
10
69.689
20
25.638
0
VERTEX
8
PARCELLE
10
69.568
20
25.548
0
VERTEX
8
PARCELLE
10
69.457
20
25.470
0
VERTEX
8
PARCELLE
10
69.336
20
25.380
0
VERTEX
8
PARCELLE
10
69.226
20
25.292
0
VERTEX
8
PARCELLE
10
69.106
20
25.212
0
VERTEX
8
PARCELLE
10
68.995
20
25.124
0
VERTEX
8
PARCELLE
10
68.874
20
25.045
0
VERTEX
8
PARCELLE
10
68.763
20
24.956
0
VERTEX
8
PARCELLE
10
68.652
20
24.877
0
VERTEX
8
PARCELLE
10
68.542
20
24.797
0
VERTEX
8
PARCELLE
10
68.422
20
24.719
0
VERTEX
8
PARCELLE
10
68.311
20
24.639
0
VERTEX
8
PARCELLE
10
68.200
20
24.561
0
VERTEX
8
PARCELLE
10
68.090
20
24.491
0
VERTEX
8
PARCELLE
10
67.979
20
24.413
0
VERTEX
8
PARCELLE
10
67.868
20
24.344
0
VERTEX
8
PARCELLE
10
67.758
20
24.265
0
VERTEX
8
PARCELLE
10
67.647
20
24.196
0
VERTEX
8
PARCELLE
10
67.536
20
24.126
0
VERTEX
8
PARCELLE
10
67.436
20
24.058
0
VERTEX
8
PARCELLE
10
67.325
20
23.988
0
VERTEX
8
PARCELLE
10
67.215
20
23.920
0
VERTEX
8
PARCELLE
10
67.104
20
23.861
0
VERTEX
8
PARCELLE
10
67.004
20
23.792
0
VERTEX
8
PARCELLE
10
66.893
20
23.733
0
VERTEX
8
PARCELLE
10
66.783
20
23.663
0
VERTEX
8
PARCELLE
10
66.682
20
23.605
0
VERTEX
8
PARCELLE
10
66.572
20
23.545
0
VERTEX
8
PARCELLE
10
66.461
20
23.486
0
VERTEX
8
PARCELLE
10
66.352
20
23.428
0
VERTEX
8
PARCELLE
10
66.250
20
23.368
0
VERTEX
8
PARCELLE
10
66.140
20
23.310
0
VERTEX
8
PARCELLE
10
66.029
20
23.250
0
VERTEX
8
PARCELLE
10
65.920
20
23.201
0
VERTEX
8
PARCELLE
10
65.809
20
23.143
0
VERTEX
8
PARCELLE
10
65.699
20
23.083
0
VERTEX
8
PARCELLE
10
65.588
20
23.034
0
VERTEX
8
PARCELLE
10
65.478
20
22.976
0
VERTEX
8
PARCELLE
10
65.367
20
22.926
0
VERTEX
8
PARCELLE
10
65.257
20
22.877
0
VERTEX
8
PARCELLE
10
65.137
20
22.819
0
VERTEX
8
PARCELLE
10
65.026
20
22.769
0
VERTEX
8
PARCELLE
10
64.906
20
22.720
0
VERTEX
8
PARCELLE
10
64.795
20
22.672
0
VERTEX
8
PARCELLE
10
64.674
20
22.622
0
VERTEX
8
PARCELLE
10
64.555
20
22.573
0
VERTEX
8
PARCELLE
10
64.434
20
22.525
0
VERTEX
8
PARCELLE
10
64.314
20
22.475
0
VERTEX
8
PARCELLE
10
64.193
20
22.426
0
VERTEX
8
PARCELLE
10
64.073
20
22.378
0
VERTEX
8
PARCELLE
10
63.943
20
22.329
0
VERTEX
8
PARCELLE
10
63.822
20
22.279
0
VERTEX
8
PARCELLE
10
63.692
20
22.231
0
VERTEX
8
PARCELLE
10
63.562
20
22.182
0
VERTEX
8
PARCELLE
10
63.431
20
22.133
0
VERTEX
8
PARCELLE
10
63.301
20
22.085
0
VERTEX
8
PARCELLE
10
63.171
20
22.045
0
VERTEX
8
PARCELLE
10
63.031
20
21.996
0
VERTEX
8
PARCELLE
10
62.899
20
21.948
0
VERTEX
8
PARCELLE
10
62.759
20
21.899
0
VERTEX
8
PARCELLE
10
62.619
20
21.850
0
VERTEX
8
PARCELLE
10
62.479
20
21.802
0
VERTEX
8
PARCELLE
10
62.328
20
21.753
0
VERTEX
8
PARCELLE
10
62.188
20
21.714
0
VERTEX
8
PARCELLE
10
62.038
20
21.666
0
VERTEX
8
PARCELLE
10
61.888
20
21.617
0
VERTEX
8
PARCELLE
10
61.737
20
21.569
0
VERTEX
8
PARCELLE
10
61.586
20
21.519
0
VERTEX
8
PARCELLE
10
61.437
20
21.470
0
VERTEX
8
PARCELLE
10
61.286
20
21.431
0
VERTEX
8
PARCELLE
10
61.125
20
21.383
0
VERTEX
8
PARCELLE
10
60.965
20
21.334
0
VERTEX
8
PARCELLE
10
60.805
20
21.297
0
VERTEX
8
PARCELLE
10
60.655
20
21.247
0
VERTEX
8
PARCELLE
10
60.494
20
21.199
0
VERTEX
8
PARCELLE
10
60.324
20
21.161
0
VERTEX
8
PARCELLE
10
60.163
20
21.112
0
VERTEX
8
PARCELLE
10
60.003
20
21.073
0
VERTEX
8
PARCELLE
10
59.833
20
21.025
0
VERTEX
8
PARCELLE
10
59.672
20
20.986
0
VERTEX
8
PARCELLE
10
59.502
20
20.937
0
VERTEX
8
PARCELLE
10
59.343
20
20.899
0
VERTEX
8
PARCELLE
10
59.171
20
20.860
0
VERTEX
8
PARCELLE
10
59.001
20
20.821
0
VERTEX
8
PARCELLE
10
58.831
20
20.784
0
VERTEX
8
PARCELLE
10
58.661
20
20.745
0
VERTEX
8
PARCELLE
10
58.500
20
20.706
0
VERTEX
8
PARCELLE
10
58.330
20
20.668
0
VERTEX
8
PARCELLE
10
58.160
20
20.629
0
VERTEX
8
PARCELLE
10
57.990
20
20.590
0
VERTEX
8
PARCELLE
10
57.810
20
20.562
0
VERTEX
8
PARCELLE
10
57.640
20
20.524
0
VERTEX
8
PARCELLE
10
57.469
20
20.495
0
VERTEX
8
PARCELLE
10
57.299
20
20.457
0
VERTEX
8
PARCELLE
10
57.129
20
20.428
0
VERTEX
8
PARCELLE
10
56.959
20
20.399
0
VERTEX
8
PARCELLE
10
56.789
20
20.370
0
VERTEX
8
PARCELLE
10
56.618
20
20.343
0
VERTEX
8
PARCELLE
10
56.448
20
20.314
0
VERTEX
8
PARCELLE
10
56.278
20
20.285
0
VERTEX
8
PARCELLE
10
56.108
20
20.256
0
VERTEX
8
PARCELLE
10
55.938
20
20.238
0
VERTEX
8
PARCELLE
10
55.768
20
20.209
0
VERTEX
8
PARCELLE
10
55.597
20
20.191
0
VERTEX
8
PARCELLE
10
55.427
20
20.172
0
VERTEX
8
PARCELLE
10
55.257
20
20.154
0
VERTEX
8
PARCELLE
10
55.087
20
20.135
0
VERTEX
8
PARCELLE
10
54.926
20
20.116
0
VERTEX
8
PARCELLE
10
54.757
20
20.108
0
VERTEX
8
PARCELLE
10
54.597
20
20.090
0
VERTEX
8
PARCELLE
10
54.427
20
20.081
0
VERTEX
8
PARCELLE
10
54.266
20
20.062
0
VERTEX
8
PARCELLE
10
54.097
20
20.054
0
VERTEX
8
PARCELLE
10
53.936
20
20.045
0
VERTEX
8
PARCELLE
10
53.766
20
20.036
0
VERTEX
8
PARCELLE
10
53.607
20
20.028
0
VERTEX
8
PARCELLE
10
53.446
20
20.019
0
VERTEX
8
PARCELLE
10
53.287
20
20.020
0
VERTEX
8
PARCELLE
10
53.126
20
20.012
0
VERTEX
8
PARCELLE
10
52.956
20
20.013
0
VERTEX
8
PARCELLE
10
52.797
20
20.004
0
VERTEX
8
PARCELLE
10
52.636
20
20.006
0
VERTEX
8
PARCELLE
10
52.477
20
20.008
0
VERTEX
8
PARCELLE
10
52.316
20
20.009
0
VERTEX
8
PARCELLE
10
52.157
20
20.000
0
VERTEX
8
PARCELLE
10
52.007
20
20.011
0
VERTEX
8
PARCELLE
10
51.847
20
20.012
0
VERTEX
8
PARCELLE
10
51.687
20
20.014
0
VERTEX
8
PARCELLE
10
51.527
20
20.015
0
VERTEX
8
PARCELLE
10
51.367
20
20.027
0
VERTEX
8
PARCELLE
10
51.217
20
20.028
0
VERTEX
8
PARCELLE
10
51.057
20
20.029
0
VERTEX
8
PARCELLE
10
50.898
20
20.041
0
VERTEX
8
PARCELLE
10
50.747
20
20.052
0
VERTEX
8
PARCELLE
10
50.588
20
20.053
0
VERTEX
8
PARCELLE
10
50.438
20
20.064
0
VERTEX
8
PARCELLE
10
50.277
20
20.075
0
VERTEX
8
PARCELLE
10
50.118
20
20.087
0
VERTEX
8
PARCELLE
10
49.968
20
20.098
0
VERTEX
8
PARCELLE
10
49.818
20
20.109
0
VERTEX
8
PARCELLE
10
49.658
20
20.120
0
VERTEX
8
PARCELLE
10
49.508
20
20.132
0
VERTEX
8
PARCELLE
10
49.349
20
20.144
0
VERTEX
8
PARCELLE
10
49.199
20
20.155
0
VERTEX
8
PARCELLE
10
49.049
20
20.166
0
VERTEX
8
PARCELLE
10
48.889
20
20.187
0
VERTEX
8
PARCELLE
10
48.739
20
20.198
0
VERTEX
8
PARCELLE
10
48.589
20
20.210
0
VERTEX
8
PARCELLE
10
48.430
20
20.231
0
VERTEX
8
PARCELLE
10
48.279
20
20.242
0
VERTEX
8
PARCELLE
10
48.130
20
20.253
0
VERTEX
8
PARCELLE
10
47.970
20
20.275
0
VERTEX
8
PARCELLE
10
47.820
20
20.286
0
VERTEX
8
PARCELLE
10
47.671
20
20.307
0
VERTEX
8
PARCELLE
10
47.521
20
20.318
0
VERTEX
8
PARCELLE
10
47.371
20
20.339
0
VERTEX
8
PARCELLE
10
47.211
20
20.352
0
VERTEX
8
PARCELLE
10
47.061
20
20.373
0
VERTEX
8
PARCELLE
10
46.911
20
20.394
0
VERTEX
8
PARCELLE
10
46.762
20
20.405
0
VERTEX
8
PARCELLE
10
46.612
20
20.426
0
VERTEX
8
PARCELLE
10
46.462
20
20.448
0
VERTEX
8
PARCELLE
10
46.312
20
20.459
0
VERTEX
8
PARCELLE
10
46.152
20
20.480
0
VERTEX
8
PARCELLE
10
46.002
20
20.501
0
VERTEX
8
PARCELLE
10
45.852
20
20.522
0
VERTEX
8
PARCELLE
10
45.703
20
20.534
0
VERTEX
8
PARCELLE
10
45.553
20
20.555
0
VERTEX
8
PARCELLE
10
45.403
20
20.576
0
VERTEX
8
PARCELLE
10
45.254
20
20.597
0
VERTEX
8
PARCELLE
10
45.104
20
20.618
0
VERTEX
8
PARCELLE
10
44.954
20
20.630
0
VERTEX
8
PARCELLE
10
44.804
20
20.651
0
VERTEX
8
PARCELLE
10
44.655
20
20.672
0
VERTEX
8
PARCELLE
10
44.505
20
20.693
0
VERTEX
8
PARCELLE
10
44.355
20
20.714
0
VERTEX
8
PARCELLE
10
44.195
20
20.736
0
VERTEX
8
PARCELLE
10
44.045
20
20.757
0
VERTEX
8
PARCELLE
10
43.895
20
20.768
0
VERTEX
8
PARCELLE
10
43.746
20
20.789
0
VERTEX
8
PARCELLE
10
43.596
20
20.811
0
VERTEX
8
PARCELLE
10
43.446
20
20.832
0
VERTEX
8
PARCELLE
10
43.296
20
20.853
0
VERTEX
8
PARCELLE
10
43.147
20
20.874
0
VERTEX
8
PARCELLE
10
42.997
20
20.895
0
VERTEX
8
PARCELLE
10
42.847
20
20.917
0
VERTEX
8
PARCELLE
10
42.698
20
20.938
0
VERTEX
8
PARCELLE
10
42.548
20
20.959
0
VERTEX
8
PARCELLE
10
42.398
20
20.980
0
VERTEX
8
PARCELLE
10
42.248
20
21.001
0
VERTEX
8
PARCELLE
10
42.098
20
21.014
0
VERTEX
8
PARCELLE
10
41.948
20
21.035
0
VERTEX
8
PARCELLE
10
41.798
20
21.056
0
VERTEX
8
PARCELLE
10
41.648
20
21.077
0
VERTEX
8
PARCELLE
10
41.499
20
21.098
0
VERTEX
8
PARCELLE
10
20.000
20
45.554
0
VERTEX
8
PARCELLE
10
52.043
20
91.127
0
VERTEX
8
PARCELLE
10
72.693
20
95.340
0
SEQEND
0
TEXT
8
POINTS_COTES
10
-0.004
20
-0.002
40
1.0
1
11.0
0
TEXT
8
POINTS_COTES
10
116.995
20
3.004
40
1.0
1
12.6
0
TEXT
8
POINTS_COTES
10
108.001
20
8.996
40
1.0
1
12.8
0
TEXT
8
POINTS_COTES
10
98.996
20
14.998
40
1.0
1
13.2
0
TEXT
8
POINTS_COTES
10
90.002
20
21.000
40
1.0
1
13.4
0
TEXT
8
POINTS_COTES
10
80.997
20
27.003
40
1.0
1
12.9
0
TEXT
8
POINTS_COTES
10
72.003
20
33.005
40
1.0
1
12.7
0
TEXT
8
POINTS_COTES
10
62.998
20
38.996
40
1.0
1
10.7
0
TEXT
8
POINTS_COTES
10
54.004
20
44.999
40
1.0
1
9.9
0
TEXT
8
POINTS_COTES
10
44.999
20
51.001
40
1.0
1
9.9
0
TEXT
8
POINTS_COTES
10
36.005
20
57.003
40
1.0
1
10.9
0
TEXT
8
POINTS_COTES
10
27.000
20
62.995
40
1.0
1
9.3
0
TEXT
8
POINTS_COTES
10
17.995
20
68.997
40
1.0
1
8.4
0
TEXT
8
POINTS_COTES
10
9.001
20
74.999
40
1.0
1
6.0
0
TEXT
8
POINTS_COTES
10
-0.004
20
81.001
40
1.0
1
8.5
0
TEXT
8
POINTS_COTES
10
116.995
20
83.997
40
1.0
1
11.6
0
TEXT
8
POINTS_COTES
10
108.001
20
89.999
40
1.0
1
11.6
0
TEXT
8
POINTS_COTES
10
98.996
20
96.002
40
1.0
1
11.4
0
TEXT
8
POINTS_COTES
10
90.002
20
102.004
40
1.0
1
11.3
0
TEXT
8
POINTS_COTES
10
80.997
20
107.995
40
1.0
1
11.0
0
TEXT
8
POINTS_COTES
10
72.003
20
113.998
40
1.0
1
10.8
0
ENDSEC
0
EOF
