0
SECTION
2
HEADER
0
ENDSEC
0
SECTION
2
TABLES
0
TABLE
2
LAYER
70
4
0
LAYER
2
CONTOURS_MINEURES
70
0
62
8
6
CONTINUOUS
0
LAYER
2
CONTOURS_MAJEURES
70
0
62
3
6
CONTINUOUS
0
LAYER
2
PARCELLE
70
0
62
4
6
CONTINUOUS
0
LAYER
2
POINTS_COTES
70
0
62
7
6
CONTINUOUS
0
ENDTAB
0
ENDSEC
0
SECTION
2
ENTITIES
0
POLYLINE
8
CONTOURS_MINEURES
66
1
70
0
0
VERTEX
8
CONTOURS_MINEURES
10
7.115
20
75.998
0
VERTEX
8
CONTOURS_MINEURES
10
6.602
20
75.396
0
VERTEX
8
CONTOURS_MINEURES
10
6.000
20
74.968
0
VERTEX
8
CONTOURS_MINEURES
10
4.970
20
74.968
0
VERTEX
8
CONTOURS_MINEURES
10
4.001
20
74.968
0
VERTEX
8
CONTOURS_MINEURES
10
3.031
20
74.968
0
VERTEX
8
CONTOURS_MINEURES
10
2.001
20
74.968
0
VERTEX
8
CONTOURS_MINEURES
10
0.935
20
73.998
0
VERTEX
8
CONTOURS_MINEURES
10
0.935
20
73.064
0
VERTEX
8
CONTOURS_MINEURES
10
0.935
20
71.997
0
VERTEX
8
CONTOURS_MINEURES
10
0.935
20
70.930
0
VERTEX
8
CONTOURS_MINEURES
10
0.935
20
69.996
0
VERTEX
8
CONTOURS_MINEURES
10
0.493
20
69.505
0
VERTEX
8
CONTOURS_MINEURES
10
0.001
20
69.121
0
SEQEND
0
POLYLINE
8
CONTOURS_MINEURES
66
1
70
0
0
VERTEX
8
CONTOURS_MINEURES
10
14.660
20
75.998
0
VERTEX
8
CONTOURS_MINEURES
10
14.378
20
75.619
0
VERTEX
8
CONTOURS_MINEURES
10
13.999
20
75.063
0
VERTEX
8
CONTOURS_MINEURES
10
13.064
20
75.063
0
VERTEX
8
CONTOURS_MINEURES
10
11.999
20
75.063
0
VERTEX
8
CONTOURS_MINEURES
10
11.497
20
74.500
0
VERTEX
8
CONTOURS_MINEURES
10
10.923
20
73.998
0
VERTEX
8
CONTOURS_MINEURES
10
10.923
20
72.920
0
VERTEX
8
CONTOURS_MINEURES
10
10.923
20
71.997
0
VERTEX
8
CONTOURS_MINEURES
10
10.923
20
70.920
0
VERTEX
8
CONTOURS_MINEURES
10
10.923
20
69.996
0
VERTEX
8
CONTOURS_MINEURES
10
10.439
20
69.556
0
VERTEX
8
CONTOURS_MINEURES
10
10.000
20
69.164
0
VERTEX
8
CONTOURS_MINEURES
10
8.832
20
69.164
0
VERTEX
8
CONTOURS_MINEURES
10
8.000
20
69.164
0
VERTEX
8
CONTOURS_MINEURES
10
6.644
20
67.995
0
VERTEX
8
CONTOURS_MINEURES
10
6.644
20
66.639
0
VERTEX
8
CONTOURS_MINEURES
10
6.644
20
65.995
0
VERTEX
8
CONTOURS_MINEURES
10
6.000
20
65.576
0
VERTEX
8
CONTOURS_MINEURES
10
4.422
20
65.576
0
VERTEX
8
CONTOURS_MINEURES
10
4.001
20
65.576
0
VERTEX
8
CONTOURS_MINEURES
10
3.580
20
65.576
0
VERTEX
8
CONTOURS_MINEURES
10
2.001
20
65.576
0
VERTEX
8
CONTOURS_MINEURES
10
1.100
20
64.902
0
VERTEX
8
CONTOURS_MINEURES
10
0.001
20
64.319
0
SEQEND
0
POLYLINE
8
CONTOURS_MINEURES
66
1
70
0
0
VERTEX
8
CONTOURS_MINEURES
10
21.089
20
75.998
0
VERTEX
8
CONTOURS_MINEURES
10
20.655
20
75.341
0
VERTEX
8
CONTOURS_MINEURES
10
20.127
20
73.998
0
VERTEX
8
CONTOURS_MINEURES
10
20.127
20
73.868
0
VERTEX
8
CONTOURS_MINEURES
10
20.127
20
71.997
0
VERTEX
8
CONTOURS_MINEURES
10
20.127
20
70.126
0
VERTEX
8
CONTOURS_MINEURES
10
20.127
20
69.996
0
VERTEX
8
CONTOURS_MINEURES
10
19.998
20
69.615
0
VERTEX
8
CONTOURS_MINEURES
10
18.379
20
69.615
0
VERTEX
8
CONTOURS_MINEURES
10
17.998
20
69.615
0
VERTEX
8
CONTOURS_MINEURES
10
16.379
20
69.615
0
VERTEX
8
CONTOURS_MINEURES
10
15.999
20
69.615
0
VERTEX
8
CONTOURS_MINEURES
10
14.856
20
67.995
0
VERTEX
8
CONTOURS_MINEURES
10
14.856
20
66.852
0
VERTEX
8
CONTOURS_MINEURES
10
14.856
20
65.995
0
VERTEX
8
CONTOURS_MINEURES
10
14.473
20
65.523
0
VERTEX
8
CONTOURS_MINEURES
10
13.999
20
65.142
0
VERTEX
8
CONTOURS_MINEURES
10
13.142
20
65.142
0
VERTEX
8
CONTOURS_MINEURES
10
11.999
20
65.142
0
VERTEX
8
CONTOURS_MINEURES
10
11.349
20
64.652
0
VERTEX
8
CONTOURS_MINEURES
10
10.400
20
64.005
0
VERTEX
8
CONTOURS_MINEURES
10
10.400
20
62.404
0
VERTEX
8
CONTOURS_MINEURES
10
10.400
20
62.004
0
VERTEX
8
CONTOURS_MINEURES
10
10.400
20
61.604
0
VERTEX
8
CONTOURS_MINEURES
10
10.400
20
60.003
0
VERTEX
8
CONTOURS_MINEURES
10
10.000
20
59.744
0
VERTEX
8
CONTOURS_MINEURES
10
8.259
20
59.744
0
VERTEX
8
CONTOURS_MINEURES
10
8.000
20
59.744
0
VERTEX
8
CONTOURS_MINEURES
10
7.443
20
59.446
0
VERTEX
8
CONTOURS_MINEURES
10
6.000
20
58.636
0
VERTEX
8
CONTOURS_MINEURES
10
5.367
20
58.636
0
VERTEX
8
CONTOURS_MINEURES
10
4.001
20
58.636
0
VERTEX
8
CONTOURS_MINEURES
10
2.634
20
58.636
0
VERTEX
8
CONTOURS_MINEURES
10
2.001
20
58.636
0
VERTEX
8
CONTOURS_MINEURES
10
1.601
20
58.403
0
VERTEX
8
CONTOURS_MINEURES
10
0.484
20
58.003
0
VERTEX
8
CONTOURS_MINEURES
10
0.484
20
57.520
0
VERTEX
8
CONTOURS_MINEURES
10
0.484
20
56.002
0
VERTEX
8
CONTOURS_MINEURES
10
0.001
20
55.827
0
SEQEND
0
POLYLINE
8
CONTOURS_MINEURES
66
1
70
0
0
VERTEX
8
CONTOURS_MINEURES
10
25.079
20
75.998
0
VERTEX
8
CONTOURS_MINEURES
10
24.664
20
75.332
0
VERTEX
8
CONTOURS_MINEURES
10
23.997
20
74.450
0
VERTEX
8
CONTOURS_MINEURES
10
23.545
20
74.450
0
VERTEX
8
CONTOURS_MINEURES
10
21.998
20
74.450
0
VERTEX
8
CONTOURS_MINEURES
10
21.817
20
74.178
0
VERTEX
8
CONTOURS_MINEURES
10
21.747
20
73.998
0
VERTEX
8
CONTOURS_MINEURES
10
21.747
20
72.248
0
VERTEX
8
CONTOURS_MINEURES
10
21.747
20
71.997
0
VERTEX
8
CONTOURS_MINEURES
10
21.747
20
71.746
0
VERTEX
8
CONTOURS_MINEURES
10
21.747
20
69.996
0
VERTEX
8
CONTOURS_MINEURES
10
21.617
20
69.616
0
VERTEX
8
CONTOURS_MINEURES
10
21.524
20
67.995
0
VERTEX
8
CONTOURS_MINEURES
10
21.524
20
67.521
0
VERTEX
8
CONTOURS_MINEURES
10
21.524
20
65.995
0
VERTEX
8
CONTOURS_MINEURES
10
21.279
20
64.720
0
VERTEX
8
CONTOURS_MINEURES
10
20.652
20
64.005
0
VERTEX
8
CONTOURS_MINEURES
10
20.652
20
63.350
0
VERTEX
8
CONTOURS_MINEURES
10
20.652
20
62.004
0
VERTEX
8
CONTOURS_MINEURES
10
20.652
20
60.658
0
VERTEX
8
CONTOURS_MINEURES
10
20.652
20
60.003
0
VERTEX
8
CONTOURS_MINEURES
10
20.314
20
59.687
0
VERTEX
8
CONTOURS_MINEURES
10
19.998
20
59.445
0
VERTEX
8
CONTOURS_MINEURES
10
19.440
20
59.445
0
VERTEX
8
CONTOURS_MINEURES
10
17.998
20
59.445
0
VERTEX
8
CONTOURS_MINEURES
10
17.440
20
59.445
0
VERTEX
8
CONTOURS_MINEURES
10
15.999
20
59.445
0
VERTEX
8
CONTOURS_MINEURES
10
15.172
20
58.830
0
VERTEX
8
CONTOURS_MINEURES
10
14.061
20
58.003
0
VERTEX
8
CONTOURS_MINEURES
10
14.061
20
56.064
0
VERTEX
8
CONTOURS_MINEURES
10
14.061
20
56.002
0
VERTEX
8
CONTOURS_MINEURES
10
13.999
20
55.968
0
VERTEX
8
CONTOURS_MINEURES
10
12.033
20
55.968
0
VERTEX
8
CONTOURS_MINEURES
10
11.999
20
55.968
0
VERTEX
8
CONTOURS_MINEURES
10
11.944
20
55.946
0
VERTEX
8
CONTOURS_MINEURES
10
10.000
20
55.101
0
VERTEX
8
CONTOURS_MINEURES
10
8.900
20
55.101
0
VERTEX
8
CONTOURS_MINEURES
10
8.000
20
55.101
0
VERTEX
8
CONTOURS_MINEURES
10
6.019
20
54.001
0
VERTEX
8
CONTOURS_MINEURES
10
6.019
20
53.982
0
VERTEX
8
CONTOURS_MINEURES
10
6.019
20
52.000
0
VERTEX
8
CONTOURS_MINEURES
10
6.000
20
51.993
0
VERTEX
8
CONTOURS_MINEURES
10
4.008
20
51.993
0
VERTEX
8
CONTOURS_MINEURES
10
4.001
20
51.993
0
VERTEX
8
CONTOURS_MINEURES
10
3.993
20
51.993
0
VERTEX
8
CONTOURS_MINEURES
10
2.001
20
51.993
0
VERTEX
8
CONTOURS_MINEURES
10
0.334
20
51.668
0
VERTEX
8
CONTOURS_MINEURES
10
0.001
20
51.535
0
SEQEND
0
POLYLINE
8
CONTOURS_MINEURES
66
1
70
0
0
VERTEX
8
CONTOURS_MINEURES
10
29.756
20
75.998
0
VERTEX
8
CONTOURS_MINEURES
10
27.996
20
74.194
0
VERTEX
8
CONTOURS_MINEURES
10
26.193
20
74.194
0
VERTEX
8
CONTOURS_MINEURES
10
25.997
20
74.194
0
VERTEX
8
CONTOURS_MINEURES
10
25.921
20
74.073
0
VERTEX
8
CONTOURS_MINEURES
10
25.864
20
73.998
0
VERTEX
8
CONTOURS_MINEURES
10
25.864
20
73.865
0
VERTEX
8
CONTOURS_MINEURES
10
25.864
20
71.997
0
VERTEX
8
CONTOURS_MINEURES
10
25.864
20
70.129
0
VERTEX
8
CONTOURS_MINEURES
10
25.864
20
69.996
0
VERTEX
8
CONTOURS_MINEURES
10
25.856
20
69.856
0
VERTEX
8
CONTOURS_MINEURES
10
25.997
20
68.149
0
VERTEX
8
CONTOURS_MINEURES
10
27.843
20
68.149
0
VERTEX
8
CONTOURS_MINEURES
10
27.996
20
68.149
0
VERTEX
8
CONTOURS_MINEURES
10
28.028
20
68.027
0
VERTEX
8
CONTOURS_MINEURES
10
28.023
20
67.995
0
VERTEX
8
CONTOURS_MINEURES
10
28.023
20
67.968
0
VERTEX
8
CONTOURS_MINEURES
10
28.023
20
65.995
0
VERTEX
8
CONTOURS_MINEURES
10
27.996
20
65.331
0
VERTEX
8
CONTOURS_MINEURES
10
27.330
20
65.331
0
VERTEX
8
CONTOURS_MINEURES
10
25.997
20
65.331
0
VERTEX
8
CONTOURS_MINEURES
10
25.972
20
64.030
0
VERTEX
8
CONTOURS_MINEURES
10
25.966
20
64.005
0
VERTEX
8
CONTOURS_MINEURES
10
25.966
20
63.974
0
VERTEX
8
CONTOURS_MINEURES
10
25.966
20
62.004
0
VERTEX
8
CONTOURS_MINEURES
10
25.966
20
61.973
0
VERTEX
8
CONTOURS_MINEURES
10
25.966
20
60.003
0
VERTEX
8
CONTOURS_MINEURES
10
25.597
20
59.603
0
VERTEX
8
CONTOURS_MINEURES
10
24.156
20
58.003
0
VERTEX
8
CONTOURS_MINEURES
10
24.156
20
57.844
0
VERTEX
8
CONTOURS_MINEURES
10
24.156
20
56.002
0
VERTEX
8
CONTOURS_MINEURES
10
23.997
20
55.905
0
VERTEX
8
CONTOURS_MINEURES
10
22.094
20
55.905
0
VERTEX
8
CONTOURS_MINEURES
10
21.998
20
55.905
0
VERTEX
8
CONTOURS_MINEURES
10
20.808
20
55.191
0
VERTEX
8
CONTOURS_MINEURES
10
19.998
20
54.664
0
VERTEX
8
CONTOURS_MINEURES
10
18.661
20
54.664
0
VERTEX
8
CONTOURS_MINEURES
10
17.998
20
54.664
0
VERTEX
8
CONTOURS_MINEURES
10
17.336
20
54.664
0
VERTEX
8
CONTOURS_MINEURES
10
15.999
20
54.664
0
VERTEX
8
CONTOURS_MINEURES
10
14.674
20
54.001
0
VERTEX
8
CONTOURS_MINEURES
10
14.674
20
52.675
0
VERTEX
8
CONTOURS_MINEURES
10
14.674
20
52.000
0
VERTEX
8
CONTOURS_MINEURES
10
14.194
20
51.805
0
VERTEX
8
CONTOURS_MINEURES
10
13.999
20
51.739
0
VERTEX
8
CONTOURS_MINEURES
10
13.738
20
51.739
0
VERTEX
8
CONTOURS_MINEURES
10
11.999
20
51.739
0
VERTEX
8
CONTOURS_MINEURES
10
10.690
20
51.309
0
VERTEX
8
CONTOURS_MINEURES
10
10.000
20
51.309
0
VERTEX
8
CONTOURS_MINEURES
10
9.309
20
51.309
0
VERTEX
8
CONTOURS_MINEURES
10
8.000
20
51.309
0
VERTEX
8
CONTOURS_MINEURES
10
6.856
20
50.855
0
VERTEX
8
CONTOURS_MINEURES
10
6.000
20
50.522
0
VERTEX
8
CONTOURS_MINEURES
10
5.478
20
50.522
0
VERTEX
8
CONTOURS_MINEURES
10
4.001
20
50.522
0
VERTEX
8
CONTOURS_MINEURES
10
2.523
20
50.522
0
VERTEX
8
CONTOURS_MINEURES
10
2.001
20
50.522
0
VERTEX
8
CONTOURS_MINEURES
10
1.564
20
50.437
0
VERTEX
8
CONTOURS_MINEURES
10
0.474
20
49.999
0
VERTEX
8
CONTOURS_MINEURES
10
0.474
20
48.472
0
VERTEX
8
CONTOURS_MINEURES
10
0.474
20
47.999
0
VERTEX
8
CONTOURS_MINEURES
10
0.474
20
46.471
0
VERTEX
8
CONTOURS_MINEURES
10
0.474
20
45.998
0
VERTEX
8
CONTOURS_MINEURES
10
0.001
20
45.831
0
SEQEND
0
POLYLINE
8
CONTOURS_MINEURES
66
1
70
0
0
VERTEX
8
CONTOURS_MINEURES
10
39.044
20
75.998
0
VERTEX
8
CONTOURS_MINEURES
10
38.915
20
74.914
0
VERTEX
8
CONTOURS_MINEURES
10
39.121
20
73.998
0
VERTEX
8
CONTOURS_MINEURES
10
39.121
20
72.877
0
VERTEX
8
CONTOURS_MINEURES
10
39.121
20
71.997
0
VERTEX
8
CONTOURS_MINEURES
10
39.121
20
71.117
0
VERTEX
8
CONTOURS_MINEURES
10
39.121
20
69.996
0
VERTEX
8
CONTOURS_MINEURES
10
38.866
20
68.862
0
VERTEX
8
CONTOURS_MINEURES
10
38.795
20
67.995
0
VERTEX
8
CONTOURS_MINEURES
10
38.795
20
67.199
0
VERTEX
8
CONTOURS_MINEURES
10
38.795
20
65.995
0
VERTEX
8
CONTOURS_MINEURES
10
38.440
20
65.554
0
VERTEX
8
CONTOURS_MINEURES
10
37.995
20
64.473
0
VERTEX
8
CONTOURS_MINEURES
10
36.466
20
64.473
0
VERTEX
8
CONTOURS_MINEURES
10
35.995
20
64.473
0
VERTEX
8
CONTOURS_MINEURES
10
35.525
20
64.473
0
VERTEX
8
CONTOURS_MINEURES
10
33.995
20
64.473
0
VERTEX
8
CONTOURS_MINEURES
10
33.755
20
64.005
0
VERTEX
8
CONTOURS_MINEURES
10
33.755
20
63.765
0
VERTEX
8
CONTOURS_MINEURES
10
33.755
20
62.004
0
VERTEX
8
CONTOURS_MINEURES
10
33.755
20
60.243
0
VERTEX
8
CONTOURS_MINEURES
10
33.755
20
60.003
0
VERTEX
8
CONTOURS_MINEURES
10
32.810
20
59.188
0
VERTEX
8
CONTOURS_MINEURES
10
31.996
20
58.090
0
VERTEX
8
CONTOURS_MINEURES
10
30.083
20
58.090
0
VERTEX
8
CONTOURS_MINEURES
10
29.996
20
58.090
0
VERTEX
8
CONTOURS_MINEURES
10
29.924
20
58.003
0
VERTEX
8
CONTOURS_MINEURES
10
29.924
20
56.074
0
VERTEX
8
CONTOURS_MINEURES
10
29.924
20
56.002
0
VERTEX
8
CONTOURS_MINEURES
10
27.996
20
54.771
0
VERTEX
8
CONTOURS_MINEURES
10
26.767
20
54.771
0
VERTEX
8
CONTOURS_MINEURES
10
25.997
20
54.771
0
VERTEX
8
CONTOURS_MINEURES
10
24.779
20
54.001
0
VERTEX
8
CONTOURS_MINEURES
10
24.779
20
53.219
0
VERTEX
8
CONTOURS_MINEURES
10
24.779
20
52.000
0
VERTEX
8
CONTOURS_MINEURES
10
24.230
20
51.767
0
VERTEX
8
CONTOURS_MINEURES
10
23.997
20
51.625
0
VERTEX
8
CONTOURS_MINEURES
10
23.622
20
51.625
0
VERTEX
8
CONTOURS_MINEURES
10
21.998
20
51.625
0
VERTEX
8
CONTOURS_MINEURES
10
20.881
20
51.117
0
VERTEX
8
CONTOURS_MINEURES
10
19.998
20
50.507
0
VERTEX
8
CONTOURS_MINEURES
10
18.506
20
50.507
0
VERTEX
8
CONTOURS_MINEURES
10
17.998
20
50.507
0
VERTEX
8
CONTOURS_MINEURES
10
16.506
20
50.507
0
VERTEX
8
CONTOURS_MINEURES
10
15.999
20
50.507
0
VERTEX
8
CONTOURS_MINEURES
10
15.638
20
50.361
0
VERTEX
8
CONTOURS_MINEURES
10
14.570
20
49.999
0
VERTEX
8
CONTOURS_MINEURES
10
14.570
20
48.570
0
VERTEX
8
CONTOURS_MINEURES
10
14.570
20
47.999
0
VERTEX
8
CONTOURS_MINEURES
10
14.570
20
47.427
0
VERTEX
8
CONTOURS_MINEURES
10
14.570
20
45.998
0
VERTEX
8
CONTOURS_MINEURES
10
14.126
20
45.871
0
VERTEX
8
CONTOURS_MINEURES
10
13.999
20
45.833
0
VERTEX
8
CONTOURS_MINEURES
10
12.164
20
45.833
0
VERTEX
8
CONTOURS_MINEURES
10
11.999
20
45.833
0
VERTEX
8
CONTOURS_MINEURES
10
11.851
20
45.850
0
VERTEX
8
CONTOURS_MINEURES
10
10.000
20
45.850
0
VERTEX
8
CONTOURS_MINEURES
10
9.851
20
45.850
0
VERTEX
8
CONTOURS_MINEURES
10
8.000
20
45.850
0
VERTEX
8
CONTOURS_MINEURES
10
7.784
20
45.782
0
VERTEX
8
CONTOURS_MINEURES
10
6.000
20
45.120
0
VERTEX
8
CONTOURS_MINEURES
10
5.123
20
45.120
0
VERTEX
8
CONTOURS_MINEURES
10
4.001
20
45.120
0
VERTEX
8
CONTOURS_MINEURES
10
2.878
20
45.120
0
VERTEX
8
CONTOURS_MINEURES
10
2.001
20
45.120
0
VERTEX
8
CONTOURS_MINEURES
10
0.493
20
44.489
0
VERTEX
8
CONTOURS_MINEURES
10
0.001
20
44.315
0
SEQEND
0
POLYLINE
8
CONTOURS_MINEURES
66
1
70
0
0
VERTEX
8
CONTOURS_MINEURES
10
43.299
20
75.998
0
VERTEX
8
CONTOURS_MINEURES
10
43.379
20
74.624
0
VERTEX
8
CONTOURS_MINEURES
10
43.458
20
73.998
0
VERTEX
8
CONTOURS_MINEURES
10
43.458
20
73.451
0
VERTEX
8
CONTOURS_MINEURES
10
43.458
20
71.997
0
VERTEX
8
CONTOURS_MINEURES
10
43.458
20
71.450
0
VERTEX
8
CONTOURS_MINEURES
10
43.458
20
69.996
0
VERTEX
8
CONTOURS_MINEURES
10
43.341
20
68.659
0
VERTEX
8
CONTOURS_MINEURES
10
43.316
20
67.995
0
VERTEX
8
CONTOURS_MINEURES
10
43.316
20
67.307
0
VERTEX
8
CONTOURS_MINEURES
10
43.316
20
65.995
0
VERTEX
8
CONTOURS_MINEURES
10
42.794
20
65.209
0
VERTEX
8
CONTOURS_MINEURES
10
42.456
20
64.005
0
VERTEX
8
CONTOURS_MINEURES
10
42.456
20
62.456
0
VERTEX
8
CONTOURS_MINEURES
10
42.456
20
62.004
0
VERTEX
8
CONTOURS_MINEURES
10
42.456
20
60.455
0
VERTEX
8
CONTOURS_MINEURES
10
42.456
20
60.003
0
VERTEX
8
CONTOURS_MINEURES
10
42.005
20
59.275
0
VERTEX
8
CONTOURS_MINEURES
10
40.733
20
59.275
0
VERTEX
8
CONTOURS_MINEURES
10
40.005
20
59.275
0
VERTEX
8
CONTOURS_MINEURES
10
38.790
20
58.003
0
VERTEX
8
CONTOURS_MINEURES
10
38.790
20
57.211
0
VERTEX
8
CONTOURS_MINEURES
10
38.790
20
56.002
0
VERTEX
8
CONTOURS_MINEURES
10
37.995
20
55.335
0
VERTEX
8
CONTOURS_MINEURES
10
37.328
20
55.335
0
VERTEX
8
CONTOURS_MINEURES
10
35.995
20
55.335
0
VERTEX
8
CONTOURS_MINEURES
10
34.662
20
55.335
0
VERTEX
8
CONTOURS_MINEURES
10
33.995
20
55.335
0
VERTEX
8
CONTOURS_MINEURES
10
33.148
20
54.848
0
VERTEX
8
CONTOURS_MINEURES
10
31.996
20
54.011
0
VERTEX
8
CONTOURS_MINEURES
10
31.986
20
54.011
0
VERTEX
8
CONTOURS_MINEURES
10
29.996
20
54.011
0
VERTEX
8
CONTOURS_MINEURES
10
29.981
20
54.001
0
VERTEX
8
CONTOURS_MINEURES
10
29.981
20
52.015
0
VERTEX
8
CONTOURS_MINEURES
10
29.981
20
52.000
0
VERTEX
8
CONTOURS_MINEURES
10
27.996
20
50.973
0
VERTEX
8
CONTOURS_MINEURES
10
27.024
20
50.973
0
VERTEX
8
CONTOURS_MINEURES
10
25.997
20
50.973
0
VERTEX
8
CONTOURS_MINEURES
10
25.314
20
50.683
0
VERTEX
8
CONTOURS_MINEURES
10
24.197
20
49.999
0
VERTEX
8
CONTOURS_MINEURES
10
24.197
20
49.799
0
VERTEX
8
CONTOURS_MINEURES
10
24.197
20
47.999
0
VERTEX
8
CONTOURS_MINEURES
10
24.197
20
46.198
0
VERTEX
8
CONTOURS_MINEURES
10
24.197
20
45.998
0
VERTEX
8
CONTOURS_MINEURES
10
24.068
20
45.927
0
VERTEX
8
CONTOURS_MINEURES
10
23.997
20
45.898
0
VERTEX
8
CONTOURS_MINEURES
10
23.898
20
45.898
0
VERTEX
8
CONTOURS_MINEURES
10
21.998
20
45.898
0
VERTEX
8
CONTOURS_MINEURES
10
20.717
20
45.278
0
VERTEX
8
CONTOURS_MINEURES
10
19.998
20
44.773
0
VERTEX
8
CONTOURS_MINEURES
10
19.222
20
44.773
0
VERTEX
8
CONTOURS_MINEURES
10
17.998
20
44.773
0
VERTEX
8
CONTOURS_MINEURES
10
16.774
20
44.773
0
VERTEX
8
CONTOURS_MINEURES
10
15.999
20
44.773
0
VERTEX
8
CONTOURS_MINEURES
10
15.395
20
44.601
0
VERTEX
8
CONTOURS_MINEURES
10
13.999
20
44.187
0
VERTEX
8
CONTOURS_MINEURES
10
13.810
20
44.187
0
VERTEX
8
CONTOURS_MINEURES
10
11.999
20
44.187
0
VERTEX
8
CONTOURS_MINEURES
10
10.370
20
44.368
0
VERTEX
8
CONTOURS_MINEURES
10
10.000
20
44.368
0
VERTEX
8
CONTOURS_MINEURES
10
8.370
20
44.368
0
VERTEX
8
CONTOURS_MINEURES
10
8.000
20
44.368
0
VERTEX
8
CONTOURS_MINEURES
10
6.824
20
43.997
0
VERTEX
8
CONTOURS_MINEURES
10
6.824
20
43.173
0
VERTEX
8
CONTOURS_MINEURES
10
6.824
20
41.996
0
VERTEX
8
CONTOURS_MINEURES
10
6.000
20
41.674
0
VERTEX
8
CONTOURS_MINEURES
10
4.323
20
41.674
0
VERTEX
8
CONTOURS_MINEURES
10
4.001
20
41.674
0
VERTEX
8
CONTOURS_MINEURES
10
2.324
20
41.674
0
VERTEX
8
CONTOURS_MINEURES
10
2.001
20
41.674
0
VERTEX
8
CONTOURS_MINEURES
10
0.931
20
41.067
0
VERTEX
8
CONTOURS_MINEURES
10
0.001
20
40.604
0
SEQEND
0
POLYLINE
8
CONTOURS_MINEURES
66
1
70
0
0
VERTEX
8
CONTOURS_MINEURES
10
47.218
20
75.998
0
VERTEX
8
CONTOURS_MINEURES
10
47.256
20
75.250
0
VERTEX
8
CONTOURS_MINEURES
10
47.047
20
73.998
0
VERTEX
8
CONTOURS_MINEURES
10
47.047
20
73.041
0
VERTEX
8
CONTOURS_MINEURES
10
47.047
20
71.997
0
VERTEX
8
CONTOURS_MINEURES
10
47.047
20
70.953
0
VERTEX
8
CONTOURS_MINEURES
10
47.047
20
69.996
0
VERTEX
8
CONTOURS_MINEURES
10
46.981
20
68.972
0
VERTEX
8
CONTOURS_MINEURES
10
46.772
20
67.995
0
VERTEX
8
CONTOURS_MINEURES
10
46.772
20
67.227
0
VERTEX
8
CONTOURS_MINEURES
10
46.772
20
65.995
0
VERTEX
8
CONTOURS_MINEURES
10
46.004
20
64.229
0
VERTEX
8
CONTOURS_MINEURES
10
44.230
20
64.229
0
VERTEX
8
CONTOURS_MINEURES
10
44.004
20
64.229
0
VERTEX
8
CONTOURS_MINEURES
10
43.915
20
64.094
0
VERTEX
8
CONTOURS_MINEURES
10
43.890
20
64.005
0
VERTEX
8
CONTOURS_MINEURES
10
43.890
20
63.890
0
VERTEX
8
CONTOURS_MINEURES
10
43.890
20
62.004
0
VERTEX
8
CONTOURS_MINEURES
10
43.890
20
61.889
0
VERTEX
8
CONTOURS_MINEURES
10
43.890
20
60.003
0
VERTEX
8
CONTOURS_MINEURES
10
43.703
20
59.701
0
VERTEX
8
CONTOURS_MINEURES
10
42.603
20
58.003
0
VERTEX
8
CONTOURS_MINEURES
10
42.603
20
57.404
0
VERTEX
8
CONTOURS_MINEURES
10
42.603
20
56.002
0
VERTEX
8
CONTOURS_MINEURES
10
42.364
20
55.642
0
VERTEX
8
CONTOURS_MINEURES
10
42.005
20
55.368
0
VERTEX
8
CONTOURS_MINEURES
10
41.371
20
55.368
0
VERTEX
8
CONTOURS_MINEURES
10
40.005
20
55.368
0
VERTEX
8
CONTOURS_MINEURES
10
38.445
20
54.001
0
VERTEX
8
CONTOURS_MINEURES
10
38.445
20
53.553
0
VERTEX
8
CONTOURS_MINEURES
10
38.445
20
52.000
0
VERTEX
8
CONTOURS_MINEURES
10
37.995
20
51.566
0
VERTEX
8
CONTOURS_MINEURES
10
37.561
20
51.566
0
VERTEX
8
CONTOURS_MINEURES
10
35.995
20
51.566
0
VERTEX
8
CONTOURS_MINEURES
10
34.429
20
51.566
0
VERTEX
8
CONTOURS_MINEURES
10
33.995
20
51.566
0
VERTEX
8
CONTOURS_MINEURES
10
33.092
20
51.097
0
VERTEX
8
CONTOURS_MINEURES
10
31.996
20
50.509
0
VERTEX
8
CONTOURS_MINEURES
10
30.505
20
50.509
0
VERTEX
8
CONTOURS_MINEURES
10
29.996
20
50.509
0
VERTEX
8
CONTOURS_MINEURES
10
29.039
20
49.999
0
VERTEX
8
CONTOURS_MINEURES
10
29.039
20
48.957
0
VERTEX
8
CONTOURS_MINEURES
10
29.039
20
47.999
0
VERTEX
8
CONTOURS_MINEURES
10
29.039
20
46.956
0
VERTEX
8
CONTOURS_MINEURES
10
29.039
20
45.998
0
VERTEX
8
CONTOURS_MINEURES
10
28.434
20
45.560
0
VERTEX
8
CONTOURS_MINEURES
10
27.996
20
45.420
0
VERTEX
8
CONTOURS_MINEURES
10
26.575
20
45.420
0
VERTEX
8
CONTOURS_MINEURES
10
25.997
20
45.420
0
VERTEX
8
CONTOURS_MINEURES
10
25.078
20
44.917
0
VERTEX
8
CONTOURS_MINEURES
10
23.997
20
44.474
0
VERTEX
8
CONTOURS_MINEURES
10
22.474
20
44.474
0
VERTEX
8
CONTOURS_MINEURES
10
21.998
20
44.474
0
VERTEX
8
CONTOURS_MINEURES
10
21.676
20
44.319
0
VERTEX
8
CONTOURS_MINEURES
10
21.219
20
43.997
0
VERTEX
8
CONTOURS_MINEURES
10
21.219
20
42.776
0
VERTEX
8
CONTOURS_MINEURES
10
21.219
20
41.996
0
VERTEX
8
CONTOURS_MINEURES
10
20.581
20
41.413
0
VERTEX
8
CONTOURS_MINEURES
10
19.998
20
41.117
0
VERTEX
8
CONTOURS_MINEURES
10
19.119
20
41.117
0
VERTEX
8
CONTOURS_MINEURES
10
17.998
20
41.117
0
VERTEX
8
CONTOURS_MINEURES
10
16.877
20
41.117
0
VERTEX
8
CONTOURS_MINEURES
10
15.999
20
41.117
0
VERTEX
8
CONTOURS_MINEURES
10
14.090
20
40.087
0
VERTEX
8
CONTOURS_MINEURES
10
13.999
20
40.051
0
VERTEX
8
CONTOURS_MINEURES
10
13.944
20
40.051
0
VERTEX
8
CONTOURS_MINEURES
10
11.999
20
40.051
0
VERTEX
8
CONTOURS_MINEURES
10
11.935
20
40.060
0
VERTEX
8
CONTOURS_MINEURES
10
10.000
20
40.188
0
VERTEX
8
CONTOURS_MINEURES
10
8.193
20
40.188
0
VERTEX
8
CONTOURS_MINEURES
10
8.000
20
40.188
0
VERTEX
8
CONTOURS_MINEURES
10
7.059
20
39.996
0
VERTEX
8
CONTOURS_MINEURES
10
7.059
20
38.936
0
VERTEX
8
CONTOURS_MINEURES
10
7.059
20
37.995
0
VERTEX
8
CONTOURS_MINEURES
10
6.000
20
37.778
0
VERTEX
8
CONTOURS_MINEURES
10
4.219
20
37.778
0
VERTEX
8
CONTOURS_MINEURES
10
4.001
20
37.778
0
VERTEX
8
CONTOURS_MINEURES
10
2.219
20
37.778
0
VERTEX
8
CONTOURS_MINEURES
10
2.001
20
37.778
0
VERTEX
8
CONTOURS_MINEURES
10
1.219
20
37.216
0
VERTEX
8
CONTOURS_MINEURES
10
0.001
20
36.355
0
SEQEND
0
POLYLINE
8
CONTOURS_MINEURES
66
1
70
0
0
VERTEX
8
CONTOURS_MINEURES
10
60.142
20
75.998
0
VERTEX
8
CONTOURS_MINEURES
10
60.002
20
75.598
0
VERTEX
8
CONTOURS_MINEURES
10
59.602
20
75.598
0
VERTEX
8
CONTOURS_MINEURES
10
58.002
20
75.598
0
VERTEX
8
CONTOURS_MINEURES
10
57.202
20
75.198
0
VERTEX
8
CONTOURS_MINEURES
10
56.002
20
74.945
0
VERTEX
8
CONTOURS_MINEURES
10
55.055
20
74.945
0
VERTEX
8
CONTOURS_MINEURES
10
54.003
20
74.945
0
VERTEX
8
CONTOURS_MINEURES
10
53.584
20
73.998
0
VERTEX
8
CONTOURS_MINEURES
10
53.584
20
73.579
0
VERTEX
8
CONTOURS_MINEURES
10
53.584
20
71.997
0
VERTEX
8
CONTOURS_MINEURES
10
53.584
20
70.415
0
VERTEX
8
CONTOURS_MINEURES
10
53.584
20
69.996
0
VERTEX
8
CONTOURS_MINEURES
10
52.003
20
68.053
0
VERTEX
8
CONTOURS_MINEURES
10
50.060
20
68.053
0
VERTEX
8
CONTOURS_MINEURES
10
50.003
20
68.053
0
VERTEX
8
CONTOURS_MINEURES
10
49.946
20
68.053
0
VERTEX
8
CONTOURS_MINEURES
10
48.004
20
68.053
0
VERTEX
8
CONTOURS_MINEURES
10
47.991
20
67.995
0
VERTEX
8
CONTOURS_MINEURES
10
47.991
20
66.007
0
VERTEX
8
CONTOURS_MINEURES
10
47.991
20
65.995
0
VERTEX
8
CONTOURS_MINEURES
10
47.982
20
65.973
0
VERTEX
8
CONTOURS_MINEURES
10
47.382
20
64.005
0
VERTEX
8
CONTOURS_MINEURES
10
47.382
20
63.383
0
VERTEX
8
CONTOURS_MINEURES
10
47.382
20
62.004
0
VERTEX
8
CONTOURS_MINEURES
10
47.382
20
60.625
0
VERTEX
8
CONTOURS_MINEURES
10
47.382
20
60.003
0
VERTEX
8
CONTOURS_MINEURES
10
47.046
20
58.960
0
VERTEX
8
CONTOURS_MINEURES
10
46.004
20
58.115
0
VERTEX
8
CONTOURS_MINEURES
10
44.117
20
58.115
0
VERTEX
8
CONTOURS_MINEURES
10
44.004
20
58.115
0
VERTEX
8
CONTOURS_MINEURES
10
43.931
20
58.003
0
VERTEX
8
CONTOURS_MINEURES
10
43.931
20
56.075
0
VERTEX
8
CONTOURS_MINEURES
10
43.931
20
56.002
0
VERTEX
8
CONTOURS_MINEURES
10
43.162
20
54.844
0
VERTEX
8
CONTOURS_MINEURES
10
42.060
20
54.001
0
VERTEX
8
CONTOURS_MINEURES
10
42.060
20
52.056
0
VERTEX
8
CONTOURS_MINEURES
10
42.060
20
52.000
0
VERTEX
8
CONTOURS_MINEURES
10
42.045
20
51.960
0
VERTEX
8
CONTOURS_MINEURES
10
42.005
20
51.926
0
VERTEX
8
CONTOURS_MINEURES
10
41.930
20
51.926
0
VERTEX
8
CONTOURS_MINEURES
10
40.005
20
51.926
0
VERTEX
8
CONTOURS_MINEURES
10
38.497
20
50.500
0
VERTEX
8
CONTOURS_MINEURES
10
37.995
20
50.015
0
VERTEX
8
CONTOURS_MINEURES
10
36.011
20
50.015
0
VERTEX
8
CONTOURS_MINEURES
10
35.995
20
50.015
0
VERTEX
8
CONTOURS_MINEURES
10
35.980
20
50.015
0
VERTEX
8
CONTOURS_MINEURES
10
33.995
20
50.015
0
VERTEX
8
CONTOURS_MINEURES
10
33.966
20
49.999
0
VERTEX
8
CONTOURS_MINEURES
10
33.966
20
49.970
0
VERTEX
8
CONTOURS_MINEURES
10
33.966
20
47.999
0
VERTEX
8
CONTOURS_MINEURES
10
33.966
20
46.028
0
VERTEX
8
CONTOURS_MINEURES
10
33.966
20
45.998
0
VERTEX
8
CONTOURS_MINEURES
10
31.996
20
44.650
0
VERTEX
8
CONTOURS_MINEURES
10
30.649
20
44.650
0
VERTEX
8
CONTOURS_MINEURES
10
29.996
20
44.650
0
VERTEX
8
CONTOURS_MINEURES
10
29.617
20
44.376
0
VERTEX
8
CONTOURS_MINEURES
10
28.435
20
43.997
0
VERTEX
8
CONTOURS_MINEURES
10
28.435
20
42.436
0
VERTEX
8
CONTOURS_MINEURES
10
28.435
20
41.996
0
VERTEX
8
CONTOURS_MINEURES
10
27.996
20
41.743
0
VERTEX
8
CONTOURS_MINEURES
10
26.250
20
41.743
0
VERTEX
8
CONTOURS_MINEURES
10
25.997
20
41.743
0
VERTEX
8
CONTOURS_MINEURES
10
25.032
20
40.961
0
VERTEX
8
CONTOURS_MINEURES
10
23.997
20
40.581
0
VERTEX
8
CONTOURS_MINEURES
10
22.583
20
40.581
0
VERTEX
8
CONTOURS_MINEURES
10
21.998
20
40.581
0
VERTEX
8
CONTOURS_MINEURES
10
21.692
20
40.301
0
VERTEX
8
CONTOURS_MINEURES
10
21.089
20
39.996
0
VERTEX
8
CONTOURS_MINEURES
10
21.089
20
39.086
0
VERTEX
8
CONTOURS_MINEURES
10
21.089
20
37.995
0
VERTEX
8
CONTOURS_MINEURES
10
20.642
20
37.354
0
VERTEX
8
CONTOURS_MINEURES
10
19.998
20
37.131
0
VERTEX
8
CONTOURS_MINEURES
10
19.130
20
37.131
0
VERTEX
8
CONTOURS_MINEURES
10
17.998
20
37.131
0
VERTEX
8
CONTOURS_MINEURES
10
16.867
20
37.131
0
VERTEX
8
CONTOURS_MINEURES
10
15.999
20
37.131
0
VERTEX
8
CONTOURS_MINEURES
10
14.329
20
36.005
0
VERTEX
8
CONTOURS_MINEURES
10
14.329
20
34.335
0
VERTEX
8
CONTOURS_MINEURES
10
14.329
20
34.004
0
VERTEX
8
CONTOURS_MINEURES
10
14.329
20
33.674
0
VERTEX
8
CONTOURS_MINEURES
10
14.329
20
32.004
0
VERTEX
8
CONTOURS_MINEURES
10
13.999
20
31.827
0
VERTEX
8
CONTOURS_MINEURES
10
12.175
20
31.827
0
VERTEX
8
CONTOURS_MINEURES
10
11.999
20
31.827
0
VERTEX
8
CONTOURS_MINEURES
10
10.194
20
31.809
0
VERTEX
8
CONTOURS_MINEURES
10
10.000
20
31.791
0
VERTEX
8
CONTOURS_MINEURES
10
9.787
20
31.791
0
VERTEX
8
CONTOURS_MINEURES
10
8.000
20
31.791
0
VERTEX
8
CONTOURS_MINEURES
10
7.655
20
31.658
0
VERTEX
8
CONTOURS_MINEURES
10
6.000
20
31.267
0
VERTEX
8
CONTOURS_MINEURES
10
5.264
20
31.267
0
VERTEX
8
CONTOURS_MINEURES
10
4.001
20
31.267
0
VERTEX
8
CONTOURS_MINEURES
10
2.737
20
31.267
0
VERTEX
8
CONTOURS_MINEURES
10
2.001
20
31.267
0
VERTEX
8
CONTOURS_MINEURES
10
1.309
20
30.695
0
VERTEX
8
CONTOURS_MINEURES
10
0.405
20
30.003
0
VERTEX
8
CONTOURS_MINEURES
10
0.405
20
29.599
0
VERTEX
8
CONTOURS_MINEURES
10
0.405
20
28.002
0
VERTEX
8
CONTOURS_MINEURES
10
0.001
20
27.748
0
SEQEND
0
POLYLINE
8
CONTOURS_MINEURES
66
1
70
0
0
VERTEX
8
CONTOURS_MINEURES
10
64.327
20
75.998
0
VERTEX
8
CONTOURS_MINEURES
10
64.001
20
74.507
0
VERTEX
8
CONTOURS_MINEURES
10
63.492
20
74.507
0
VERTEX
8
CONTOURS_MINEURES
10
62.001
20
74.507
0
VERTEX
8
CONTOURS_MINEURES
10
61.833
20
73.998
0
VERTEX
8
CONTOURS_MINEURES
10
61.833
20
73.829
0
VERTEX
8
CONTOURS_MINEURES
10
61.833
20
71.997
0
VERTEX
8
CONTOURS_MINEURES
10
61.833
20
70.165
0
VERTEX
8
CONTOURS_MINEURES
10
61.833
20
69.996
0
VERTEX
8
CONTOURS_MINEURES
10
61.760
20
69.755
0
VERTEX
8
CONTOURS_MINEURES
10
61.438
20
67.995
0
VERTEX
8
CONTOURS_MINEURES
10
61.438
20
66.558
0
VERTEX
8
CONTOURS_MINEURES
10
61.438
20
65.995
0
VERTEX
8
CONTOURS_MINEURES
10
61.069
20
64.932
0
VERTEX
8
CONTOURS_MINEURES
10
60.518
20
64.005
0
VERTEX
8
CONTOURS_MINEURES
10
60.518
20
62.521
0
VERTEX
8
CONTOURS_MINEURES
10
60.518
20
62.004
0
VERTEX
8
CONTOURS_MINEURES
10
60.518
20
61.487
0
VERTEX
8
CONTOURS_MINEURES
10
60.518
20
60.003
0
VERTEX
8
CONTOURS_MINEURES
10
60.232
20
59.773
0
VERTEX
8
CONTOURS_MINEURES
10
60.002
20
59.274
0
VERTEX
8
CONTOURS_MINEURES
10
59.272
20
59.274
0
VERTEX
8
CONTOURS_MINEURES
10
58.002
20
59.274
0
VERTEX
8
CONTOURS_MINEURES
10
57.291
20
58.713
0
VERTEX
8
CONTOURS_MINEURES
10
56.853
20
58.003
0
VERTEX
8
CONTOURS_MINEURES
10
56.853
20
56.853
0
VERTEX
8
CONTOURS_MINEURES
10
56.853
20
56.002
0
VERTEX
8
CONTOURS_MINEURES
10
56.444
20
55.560
0
VERTEX
8
CONTOURS_MINEURES
10
56.002
20
54.905
0
VERTEX
8
CONTOURS_MINEURES
10
55.098
20
54.905
0
VERTEX
8
CONTOURS_MINEURES
10
54.003
20
54.905
0
VERTEX
8
CONTOURS_MINEURES
10
53.062
20
55.060
0
VERTEX
8
CONTOURS_MINEURES
10
52.003
20
55.186
0
VERTEX
8
CONTOURS_MINEURES
10
50.819
20
55.186
0
VERTEX
8
CONTOURS_MINEURES
10
50.003
20
55.186
0
VERTEX
8
CONTOURS_MINEURES
10
49.188
20
55.186
0
VERTEX
8
CONTOURS_MINEURES
10
48.004
20
55.186
0
VERTEX
8
CONTOURS_MINEURES
10
47.619
20
54.386
0
VERTEX
8
CONTOURS_MINEURES
10
46.004
20
54.111
0
VERTEX
8
CONTOURS_MINEURES
10
44.114
20
54.111
0
VERTEX
8
CONTOURS_MINEURES
10
44.004
20
54.111
0
VERTEX
8
CONTOURS_MINEURES
10
43.960
20
54.045
0
VERTEX
8
CONTOURS_MINEURES
10
43.903
20
54.001
0
VERTEX
8
CONTOURS_MINEURES
10
43.903
20
53.900
0
VERTEX
8
CONTOURS_MINEURES
10
43.903
20
52.000
0
VERTEX
8
CONTOURS_MINEURES
10
43.382
20
50.622
0
VERTEX
8
CONTOURS_MINEURES
10
42.657
20
49.999
0
VERTEX
8
CONTOURS_MINEURES
10
42.657
20
49.347
0
VERTEX
8
CONTOURS_MINEURES
10
42.657
20
47.999
0
VERTEX
8
CONTOURS_MINEURES
10
42.657
20
46.650
0
VERTEX
8
CONTOURS_MINEURES
10
42.657
20
45.998
0
VERTEX
8
CONTOURS_MINEURES
10
42.380
20
45.623
0
VERTEX
8
CONTOURS_MINEURES
10
42.005
20
45.300
0
VERTEX
8
CONTOURS_MINEURES
10
41.307
20
45.300
0
VERTEX
8
CONTOURS_MINEURES
10
40.005
20
45.300
0
VERTEX
8
CONTOURS_MINEURES
10
39.406
20
44.593
0
VERTEX
8
CONTOURS_MINEURES
10
38.726
20
43.997
0
VERTEX
8
CONTOURS_MINEURES
10
38.726
20
42.724
0
VERTEX
8
CONTOURS_MINEURES
10
38.726
20
41.996
0
VERTEX
8
CONTOURS_MINEURES
10
38.372
20
41.621
0
VERTEX
8
CONTOURS_MINEURES
10
37.995
20
41.373
0
VERTEX
8
CONTOURS_MINEURES
10
37.371
20
41.373
0
VERTEX
8
CONTOURS_MINEURES
10
35.995
20
41.373
0
VERTEX
8
CONTOURS_MINEURES
10
35.372
20
41.373
0
VERTEX
8
CONTOURS_MINEURES
10
33.995
20
41.373
0
VERTEX
8
CONTOURS_MINEURES
10
33.120
20
40.872
0
VERTEX
8
CONTOURS_MINEURES
10
31.996
20
40.194
0
VERTEX
8
CONTOURS_MINEURES
10
30.195
20
40.194
0
VERTEX
8
CONTOURS_MINEURES
10
29.996
20
40.194
0
VERTEX
8
CONTOURS_MINEURES
10
29.666
20
39.996
0
VERTEX
8
CONTOURS_MINEURES
10
29.666
20
38.325
0
VERTEX
8
CONTOURS_MINEURES
10
29.666
20
37.995
0
VERTEX
8
CONTOURS_MINEURES
10
28.827
20
37.168
0
VERTEX
8
CONTOURS_MINEURES
10
27.996
20
36.173
0
VERTEX
8
CONTOURS_MINEURES
10
27.828
20
36.173
0
VERTEX
8
CONTOURS_MINEURES
10
25.997
20
36.173
0
VERTEX
8
CONTOURS_MINEURES
10
25.791
20
36.005
0
VERTEX
8
CONTOURS_MINEURES
10
25.791
20
35.799
0
VERTEX
8
CONTOURS_MINEURES
10
25.791
20
34.004
0
VERTEX
8
CONTOURS_MINEURES
10
25.791
20
33.798
0
VERTEX
8
CONTOURS_MINEURES
10
25.791
20
32.004
0
VERTEX
8
CONTOURS_MINEURES
10
25.159
20
30.841
0
VERTEX
8
CONTOURS_MINEURES
10
23.997
20
30.097
0
VERTEX
8
CONTOURS_MINEURES
10
22.091
20
30.097
0
VERTEX
8
CONTOURS_MINEURES
10
21.998
20
30.097
0
VERTEX
8
CONTOURS_MINEURES
10
20.562
20
30.568
0
VERTEX
8
CONTOURS_MINEURES
10
19.998
20
30.351
0
VERTEX
8
CONTOURS_MINEURES
10
18.346
20
30.351
0
VERTEX
8
CONTOURS_MINEURES
10
17.998
20
30.351
0
VERTEX
8
CONTOURS_MINEURES
10
17.650
20
30.351
0
VERTEX
8
CONTOURS_MINEURES
10
15.999
20
30.351
0
VERTEX
8
CONTOURS_MINEURES
10
14.999
20
30.003
0
VERTEX
8
CONTOURS_MINEURES
10
14.999
20
29.002
0
VERTEX
8
CONTOURS_MINEURES
10
14.999
20
28.002
0
VERTEX
8
CONTOURS_MINEURES
10
13.999
20
27.782
0
VERTEX
8
CONTOURS_MINEURES
10
12.219
20
27.782
0
VERTEX
8
CONTOURS_MINEURES
10
11.999
20
27.782
0
VERTEX
8
CONTOURS_MINEURES
10
10.341
20
27.660
0
VERTEX
8
CONTOURS_MINEURES
10
10.000
20
27.528
0
VERTEX
8
CONTOURS_MINEURES
10
8.473
20
27.528
0
VERTEX
8
CONTOURS_MINEURES
10
8.000
20
27.528
0
VERTEX
8
CONTOURS_MINEURES
10
6.916
20
27.086
0
VERTEX
8
CONTOURS_MINEURES
10
6.000
20
26.577
0
VERTEX
8
CONTOURS_MINEURES
10
4.576
20
26.577
0
VERTEX
8
CONTOURS_MINEURES
10
4.001
20
26.577
0
VERTEX
8
CONTOURS_MINEURES
10
3.426
20
26.577
0
VERTEX
8
CONTOURS_MINEURES
10
2.001
20
26.577
0
VERTEX
8
CONTOURS_MINEURES
10
0.978
20
26.001
0
VERTEX
8
CONTOURS_MINEURES
10
0.978
20
24.978
0
VERTEX
8
CONTOURS_MINEURES
10
0.978
20
24.000
0
VERTEX
8
CONTOURS_MINEURES
10
0.318
20
23.683
0
VERTEX
8
CONTOURS_MINEURES
10
0.001
20
23.482
0
SEQEND
0
POLYLINE
8
CONTOURS_MINEURES
66
1
70
0
0
VERTEX
8
CONTOURS_MINEURES
10
68.000
20
59.892
0
VERTEX
8
CONTOURS_MINEURES
10
67.889
20
59.892
0
VERTEX
8
CONTOURS_MINEURES
10
66.000
20
59.892
0
VERTEX
8
CONTOURS_MINEURES
10
64.842
20
59.162
0
VERTEX
8
CONTOURS_MINEURES
10
64.001
20
58.513
0
VERTEX
8
CONTOURS_MINEURES
10
62.511
20
58.513
0
VERTEX
8
CONTOURS_MINEURES
10
62.001
20
58.513
0
VERTEX
8
CONTOURS_MINEURES
10
61.719
20
58.285
0
VERTEX
8
CONTOURS_MINEURES
10
61.588
20
58.003
0
VERTEX
8
CONTOURS_MINEURES
10
61.588
20
57.589
0
VERTEX
8
CONTOURS_MINEURES
10
61.588
20
56.002
0
VERTEX
8
CONTOURS_MINEURES
10
60.876
20
55.127
0
VERTEX
8
CONTOURS_MINEURES
10
60.479
20
54.001
0
VERTEX
8
CONTOURS_MINEURES
10
60.479
20
52.478
0
VERTEX
8
CONTOURS_MINEURES
10
60.479
20
52.000
0
VERTEX
8
CONTOURS_MINEURES
10
60.334
20
51.668
0
VERTEX
8
CONTOURS_MINEURES
10
60.002
20
51.017
0
VERTEX
8
CONTOURS_MINEURES
10
59.018
20
51.017
0
VERTEX
8
CONTOURS_MINEURES
10
58.002
20
51.017
0
VERTEX
8
CONTOURS_MINEURES
10
57.078
20
49.999
0
VERTEX
8
CONTOURS_MINEURES
10
57.078
20
49.075
0
VERTEX
8
CONTOURS_MINEURES
10
57.078
20
47.999
0
VERTEX
8
CONTOURS_MINEURES
10
57.078
20
46.923
0
VERTEX
8
CONTOURS_MINEURES
10
57.078
20
45.998
0
VERTEX
8
CONTOURS_MINEURES
10
56.002
20
44.619
0
VERTEX
8
CONTOURS_MINEURES
10
55.381
20
44.619
0
VERTEX
8
CONTOURS_MINEURES
10
54.003
20
44.619
0
VERTEX
8
CONTOURS_MINEURES
10
52.273
20
43.997
0
VERTEX
8
CONTOURS_MINEURES
10
52.273
20
43.727
0
VERTEX
8
CONTOURS_MINEURES
10
52.273
20
41.996
0
VERTEX
8
CONTOURS_MINEURES
10
52.065
20
41.935
0
VERTEX
8
CONTOURS_MINEURES
10
52.003
20
41.877
0
VERTEX
8
CONTOURS_MINEURES
10
51.884
20
41.877
0
VERTEX
8
CONTOURS_MINEURES
10
50.003
20
41.877
0
VERTEX
8
CONTOURS_MINEURES
10
49.884
20
41.877
0
VERTEX
8
CONTOURS_MINEURES
10
48.004
20
41.877
0
VERTEX
8
CONTOURS_MINEURES
10
46.123
20
41.877
0
VERTEX
8
CONTOURS_MINEURES
10
46.004
20
41.890
0
VERTEX
8
CONTOURS_MINEURES
10
45.898
20
41.890
0
VERTEX
8
CONTOURS_MINEURES
10
44.004
20
41.890
0
VERTEX
8
CONTOURS_MINEURES
10
43.235
20
41.227
0
VERTEX
8
CONTOURS_MINEURES
10
42.005
20
40.125
0
VERTEX
8
CONTOURS_MINEURES
10
40.134
20
40.125
0
VERTEX
8
CONTOURS_MINEURES
10
40.005
20
40.125
0
VERTEX
8
CONTOURS_MINEURES
10
39.942
20
40.058
0
VERTEX
8
CONTOURS_MINEURES
10
39.847
20
39.996
0
VERTEX
8
CONTOURS_MINEURES
10
39.847
20
39.839
0
VERTEX
8
CONTOURS_MINEURES
10
39.847
20
37.995
0
VERTEX
8
CONTOURS_MINEURES
10
39.062
20
36.938
0
VERTEX
8
CONTOURS_MINEURES
10
38.431
20
36.005
0
VERTEX
8
CONTOURS_MINEURES
10
38.431
20
34.438
0
VERTEX
8
CONTOURS_MINEURES
10
38.431
20
34.004
0
VERTEX
8
CONTOURS_MINEURES
10
38.431
20
33.570
0
VERTEX
8
CONTOURS_MINEURES
10
38.431
20
32.004
0
VERTEX
8
CONTOURS_MINEURES
10
38.309
20
31.690
0
VERTEX
8
CONTOURS_MINEURES
10
37.995
20
30.003
0
VERTEX
8
CONTOURS_MINEURES
10
35.995
20
30.003
0
VERTEX
8
CONTOURS_MINEURES
10
33.995
20
30.003
0
VERTEX
8
CONTOURS_MINEURES
10
33.995
20
28.002
0
VERTEX
8
CONTOURS_MINEURES
10
32.432
20
27.565
0
VERTEX
8
CONTOURS_MINEURES
10
31.996
20
27.321
0
VERTEX
8
CONTOURS_MINEURES
10
31.316
20
27.321
0
VERTEX
8
CONTOURS_MINEURES
10
29.996
20
27.321
0
VERTEX
8
CONTOURS_MINEURES
10
28.249
20
26.001
0
VERTEX
8
CONTOURS_MINEURES
10
28.249
20
25.749
0
VERTEX
8
CONTOURS_MINEURES
10
28.249
20
24.000
0
VERTEX
8
CONTOURS_MINEURES
10
27.996
20
23.931
0
VERTEX
8
CONTOURS_MINEURES
10
26.066
20
23.931
0
VERTEX
8
CONTOURS_MINEURES
10
25.997
20
23.931
0
VERTEX
8
CONTOURS_MINEURES
10
25.917
20
23.920
0
VERTEX
8
CONTOURS_MINEURES
10
23.997
20
23.821
0
VERTEX
8
CONTOURS_MINEURES
10
22.177
20
23.821
0
VERTEX
8
CONTOURS_MINEURES
10
21.998
20
23.821
0
VERTEX
8
CONTOURS_MINEURES
10
21.789
20
23.792
0
VERTEX
8
CONTOURS_MINEURES
10
20.933
20
24.000
0
VERTEX
8
CONTOURS_MINEURES
10
20.933
20
25.065
0
VERTEX
8
CONTOURS_MINEURES
10
20.933
20
26.001
0
VERTEX
8
CONTOURS_MINEURES
10
19.998
20
26.284
0
VERTEX
8
CONTOURS_MINEURES
10
18.281
20
26.284
0
VERTEX
8
CONTOURS_MINEURES
10
17.998
20
26.284
0
VERTEX
8
CONTOURS_MINEURES
10
17.715
20
26.284
0
VERTEX
8
CONTOURS_MINEURES
10
15.999
20
26.284
0
VERTEX
8
CONTOURS_MINEURES
10
14.342
20
26.001
0
VERTEX
8
CONTOURS_MINEURES
10
14.342
20
25.658
0
VERTEX
8
CONTOURS_MINEURES
10
14.342
20
24.000
0
VERTEX
8
CONTOURS_MINEURES
10
13.999
20
23.945
0
VERTEX
8
CONTOURS_MINEURES
10
12.054
20
23.945
0
VERTEX
8
CONTOURS_MINEURES
10
11.999
20
23.945
0
VERTEX
8
CONTOURS_MINEURES
10
11.912
20
23.913
0
VERTEX
8
CONTOURS_MINEURES
10
10.000
20
23.301
0
VERTEX
8
CONTOURS_MINEURES
10
8.699
20
23.301
0
VERTEX
8
CONTOURS_MINEURES
10
8.000
20
23.301
0
VERTEX
8
CONTOURS_MINEURES
10
6.490
20
22.489
0
VERTEX
8
CONTOURS_MINEURES
10
6.000
20
22.257
0
VERTEX
8
CONTOURS_MINEURES
10
5.743
20
22.257
0
VERTEX
8
CONTOURS_MINEURES
10
4.001
20
22.257
0
VERTEX
8
CONTOURS_MINEURES
10
3.744
20
22.257
0
VERTEX
8
CONTOURS_MINEURES
10
2.001
20
22.257
0
VERTEX
8
CONTOURS_MINEURES
10
1.827
20
22.173
0
VERTEX
8
CONTOURS_MINEURES
10
1.555
20
22.000
0
VERTEX
8
CONTOURS_MINEURES
10
1.555
20
20.446
0
VERTEX
8
CONTOURS_MINEURES
10
1.555
20
19.999
0
VERTEX
8
CONTOURS_MINEURES
10
1.555
20
19.552
0
VERTEX
8
CONTOURS_MINEURES
10
1.555
20
17.998
0
VERTEX
8
CONTOURS_MINEURES
10
0.665
20
17.334
0
VERTEX
8
CONTOURS_MINEURES
10
0.001
20
16.855
0
SEQEND
0
POLYLINE
8
CONTOURS_MINEURES
66
1
70
0
0
VERTEX
8
CONTOURS_MINEURES
10
65.921
20
75.998
0
VERTEX
8
CONTOURS_MINEURES
10
65.898
20
75.896
0
VERTEX
8
CONTOURS_MINEURES
10
65.755
20
73.998
0
VERTEX
8
CONTOURS_MINEURES
10
65.755
20
73.752
0
VERTEX
8
CONTOURS_MINEURES
10
65.755
20
71.997
0
VERTEX
8
CONTOURS_MINEURES
10
65.755
20
70.242
0
VERTEX
8
CONTOURS_MINEURES
10
65.755
20
69.996
0
VERTEX
8
CONTOURS_MINEURES
10
65.918
20
68.078
0
VERTEX
8
CONTOURS_MINEURES
10
65.905
20
67.995
0
VERTEX
8
CONTOURS_MINEURES
10
65.905
20
67.900
0
VERTEX
8
CONTOURS_MINEURES
10
65.905
20
65.995
0
VERTEX
8
CONTOURS_MINEURES
10
66.000
20
65.058
0
VERTEX
8
CONTOURS_MINEURES
10
66.941
20
65.058
0
VERTEX
8
CONTOURS_MINEURES
10
68.000
20
65.058
0
SEQEND
0
POLYLINE
8
CONTOURS_MINEURES
66
1
70
0
0
VERTEX
8
CONTOURS_MINEURES
10
68.000
20
55.595
0
VERTEX
8
CONTOURS_MINEURES
10
66.407
20
55.595
0
VERTEX
8
CONTOURS_MINEURES
10
66.000
20
55.595
0
VERTEX
8
CONTOURS_MINEURES
10
64.123
20
54.001
0
VERTEX
8
CONTOURS_MINEURES
10
64.123
20
52.123
0
VERTEX
8
CONTOURS_MINEURES
10
64.123
20
52.000
0
VERTEX
8
CONTOURS_MINEURES
10
64.001
20
51.778
0
VERTEX
8
CONTOURS_MINEURES
10
62.223
20
51.778
0
VERTEX
8
CONTOURS_MINEURES
10
62.001
20
51.778
0
VERTEX
8
CONTOURS_MINEURES
10
61.460
20
50.541
0
VERTEX
8
CONTOURS_MINEURES
10
61.184
20
49.999
0
VERTEX
8
CONTOURS_MINEURES
10
61.184
20
48.816
0
VERTEX
8
CONTOURS_MINEURES
10
61.184
20
47.999
0
VERTEX
8
CONTOURS_MINEURES
10
61.184
20
47.181
0
VERTEX
8
CONTOURS_MINEURES
10
61.184
20
45.998
0
VERTEX
8
CONTOURS_MINEURES
10
60.374
20
44.370
0
VERTEX
8
CONTOURS_MINEURES
10
60.233
20
43.997
0
VERTEX
8
CONTOURS_MINEURES
10
60.233
20
43.765
0
VERTEX
8
CONTOURS_MINEURES
10
60.233
20
41.996
0
VERTEX
8
CONTOURS_MINEURES
10
60.193
20
41.805
0
VERTEX
8
CONTOURS_MINEURES
10
60.002
20
41.565
0
VERTEX
8
CONTOURS_MINEURES
10
59.570
20
41.565
0
VERTEX
8
CONTOURS_MINEURES
10
58.002
20
41.565
0
VERTEX
8
CONTOURS_MINEURES
10
57.357
20
40.641
0
VERTEX
8
CONTOURS_MINEURES
10
56.701
20
39.996
0
VERTEX
8
CONTOURS_MINEURES
10
56.701
20
38.694
0
VERTEX
8
CONTOURS_MINEURES
10
56.701
20
37.995
0
VERTEX
8
CONTOURS_MINEURES
10
56.334
20
37.664
0
VERTEX
8
CONTOURS_MINEURES
10
56.002
20
37.310
0
VERTEX
8
CONTOURS_MINEURES
10
55.314
20
37.310
0
VERTEX
8
CONTOURS_MINEURES
10
54.003
20
37.310
0
VERTEX
8
CONTOURS_MINEURES
10
53.195
20
36.809
0
VERTEX
8
CONTOURS_MINEURES
10
52.636
20
36.005
0
VERTEX
8
CONTOURS_MINEURES
10
52.636
20
34.638
0
VERTEX
8
CONTOURS_MINEURES
10
52.636
20
34.004
0
VERTEX
8
CONTOURS_MINEURES
10
52.636
20
32.637
0
VERTEX
8
CONTOURS_MINEURES
10
52.636
20
32.004
0
VERTEX
8
CONTOURS_MINEURES
10
52.286
20
31.720
0
VERTEX
8
CONTOURS_MINEURES
10
52.003
20
31.228
0
VERTEX
8
CONTOURS_MINEURES
10
50.779
20
31.228
0
VERTEX
8
CONTOURS_MINEURES
10
50.003
20
31.228
0
VERTEX
8
CONTOURS_MINEURES
10
49.228
20
31.228
0
VERTEX
8
CONTOURS_MINEURES
10
48.004
20
31.228
0
VERTEX
8
CONTOURS_MINEURES
10
46.685
20
31.322
0
VERTEX
8
CONTOURS_MINEURES
10
46.004
20
31.187
0
VERTEX
8
CONTOURS_MINEURES
10
45.188
20
31.187
0
VERTEX
8
CONTOURS_MINEURES
10
44.004
20
31.187
0
VERTEX
8
CONTOURS_MINEURES
10
43.261
20
30.003
0
VERTEX
8
CONTOURS_MINEURES
10
43.261
20
29.259
0
VERTEX
8
CONTOURS_MINEURES
10
43.261
20
28.002
0
VERTEX
8
CONTOURS_MINEURES
10
42.005
20
26.988
0
VERTEX
8
CONTOURS_MINEURES
10
41.018
20
26.988
0
VERTEX
8
CONTOURS_MINEURES
10
40.005
20
26.988
0
VERTEX
8
CONTOURS_MINEURES
10
39.462
20
26.542
0
VERTEX
8
CONTOURS_MINEURES
10
38.439
20
26.001
0
VERTEX
8
CONTOURS_MINEURES
10
38.439
20
24.443
0
VERTEX
8
CONTOURS_MINEURES
10
38.439
20
24.000
0
VERTEX
8
CONTOURS_MINEURES
10
38.121
20
23.874
0
VERTEX
8
CONTOURS_MINEURES
10
37.995
20
23.874
0
VERTEX
8
CONTOURS_MINEURES
10
37.868
20
23.874
0
VERTEX
8
CONTOURS_MINEURES
10
35.995
20
23.874
0
VERTEX
8
CONTOURS_MINEURES
10
35.869
20
23.874
0
VERTEX
8
CONTOURS_MINEURES
10
33.995
20
23.874
0
VERTEX
8
CONTOURS_MINEURES
10
32.493
20
23.503
0
VERTEX
8
CONTOURS_MINEURES
10
31.996
20
23.425
0
VERTEX
8
CONTOURS_MINEURES
10
30.571
20
23.425
0
VERTEX
8
CONTOURS_MINEURES
10
29.996
20
23.425
0
VERTEX
8
CONTOURS_MINEURES
10
29.288
20
23.292
0
VERTEX
8
CONTOURS_MINEURES
10
27.996
20
22.935
0
VERTEX
8
CONTOURS_MINEURES
10
27.061
20
22.935
0
VERTEX
8
CONTOURS_MINEURES
10
25.997
20
22.935
0
VERTEX
8
CONTOURS_MINEURES
10
24.771
20
22.774
0
VERTEX
8
CONTOURS_MINEURES
10
23.997
20
22.734
0
VERTEX
8
CONTOURS_MINEURES
10
23.264
20
22.734
0
VERTEX
8
CONTOURS_MINEURES
10
21.998
20
22.734
0
VERTEX
8
CONTOURS_MINEURES
10
20.528
20
22.530
0
VERTEX
8
CONTOURS_MINEURES
10
19.998
20
22.659
0
VERTEX
8
CONTOURS_MINEURES
10
18.657
20
22.659
0
VERTEX
8
CONTOURS_MINEURES
10
17.998
20
22.659
0
VERTEX
8
CONTOURS_MINEURES
10
17.340
20
22.659
0
VERTEX
8
CONTOURS_MINEURES
10
15.999
20
22.659
0
VERTEX
8
CONTOURS_MINEURES
10
14.130
20
22.131
0
VERTEX
8
CONTOURS_MINEURES
10
13.999
20
22.110
0
VERTEX
8
CONTOURS_MINEURES
10
13.889
20
22.110
0
VERTEX
8
CONTOURS_MINEURES
10
11.999
20
22.110
0
VERTEX
8
CONTOURS_MINEURES
10
11.699
20
22.000
0
VERTEX
8
CONTOURS_MINEURES
10
11.699
20
20.299
0
VERTEX
8
CONTOURS_MINEURES
10
11.699
20
19.999
0
VERTEX
8
CONTOURS_MINEURES
10
11.699
20
19.699
0
VERTEX
8
CONTOURS_MINEURES
10
11.699
20
17.998
0
VERTEX
8
CONTOURS_MINEURES
10
10.548
20
17.450
0
VERTEX
8
CONTOURS_MINEURES
10
10.000
20
17.066
0
VERTEX
8
CONTOURS_MINEURES
10
9.068
20
17.066
0
VERTEX
8
CONTOURS_MINEURES
10
8.000
20
17.066
0
VERTEX
8
CONTOURS_MINEURES
10
6.667
20
15.997
0
VERTEX
8
CONTOURS_MINEURES
10
6.667
20
15.330
0
VERTEX
8
CONTOURS_MINEURES
10
6.667
20
13.997
0
VERTEX
8
CONTOURS_MINEURES
10
6.000
20
13.148
0
VERTEX
8
CONTOURS_MINEURES
10
4.848
20
13.148
0
VERTEX
8
CONTOURS_MINEURES
10
4.001
20
13.148
0
VERTEX
8
CONTOURS_MINEURES
10
3.153
20
13.148
0
VERTEX
8
CONTOURS_MINEURES
10
2.001
20
13.148
0
VERTEX
8
CONTOURS_MINEURES
10
0.783
20
11.996
0
VERTEX
8
CONTOURS_MINEURES
10
0.783
20
10.777
0
VERTEX
8
CONTOURS_MINEURES
10
0.783
20
9.995
0
VERTEX
8
CONTOURS_MINEURES
10
0.783
20
9.217
0
VERTEX
8
CONTOURS_MINEURES
10
0.783
20
8.005
0
VERTEX
8
CONTOURS_MINEURES
10
0.001
20
6.852
0
SEQEND
0
POLYLINE
8
CONTOURS_MINEURES
66
1
70
0
0
VERTEX
8
CONTOURS_MINEURES
10
68.000
20
51.448
0
VERTEX
8
CONTOURS_MINEURES
10
67.448
20
51.448
0
VERTEX
8
CONTOURS_MINEURES
10
66.000
20
51.448
0
VERTEX
8
CONTOURS_MINEURES
10
65.425
20
49.999
0
VERTEX
8
CONTOURS_MINEURES
10
65.425
20
48.574
0
VERTEX
8
CONTOURS_MINEURES
10
65.425
20
47.999
0
VERTEX
8
CONTOURS_MINEURES
10
65.425
20
47.423
0
VERTEX
8
CONTOURS_MINEURES
10
65.425
20
45.998
0
VERTEX
8
CONTOURS_MINEURES
10
65.285
20
44.713
0
VERTEX
8
CONTOURS_MINEURES
10
64.712
20
43.997
0
VERTEX
8
CONTOURS_MINEURES
10
64.712
20
43.286
0
VERTEX
8
CONTOURS_MINEURES
10
64.712
20
41.996
0
VERTEX
8
CONTOURS_MINEURES
10
64.001
20
40.396
0
VERTEX
8
CONTOURS_MINEURES
10
63.601
20
40.396
0
VERTEX
8
CONTOURS_MINEURES
10
62.001
20
40.396
0
VERTEX
8
CONTOURS_MINEURES
10
61.932
20
40.065
0
VERTEX
8
CONTOURS_MINEURES
10
61.876
20
39.996
0
VERTEX
8
CONTOURS_MINEURES
10
61.876
20
39.871
0
VERTEX
8
CONTOURS_MINEURES
10
61.876
20
37.995
0
VERTEX
8
CONTOURS_MINEURES
10
60.852
20
37.148
0
VERTEX
8
CONTOURS_MINEURES
10
60.002
20
36.239
0
VERTEX
8
CONTOURS_MINEURES
10
59.766
20
36.239
0
VERTEX
8
CONTOURS_MINEURES
10
58.002
20
36.239
0
VERTEX
8
CONTOURS_MINEURES
10
57.878
20
36.128
0
VERTEX
8
CONTOURS_MINEURES
10
57.763
20
36.005
0
VERTEX
8
CONTOURS_MINEURES
10
57.763
20
34.243
0
VERTEX
8
CONTOURS_MINEURES
10
57.763
20
34.004
0
VERTEX
8
CONTOURS_MINEURES
10
57.763
20
33.765
0
VERTEX
8
CONTOURS_MINEURES
10
57.763
20
32.004
0
VERTEX
8
CONTOURS_MINEURES
10
56.692
20
31.313
0
VERTEX
8
CONTOURS_MINEURES
10
56.002
20
30.408
0
VERTEX
8
CONTOURS_MINEURES
10
55.597
20
30.408
0
VERTEX
8
CONTOURS_MINEURES
10
54.003
20
30.408
0
VERTEX
8
CONTOURS_MINEURES
10
53.779
20
30.227
0
VERTEX
8
CONTOURS_MINEURES
10
53.650
20
30.003
0
VERTEX
8
CONTOURS_MINEURES
10
53.650
20
28.355
0
VERTEX
8
CONTOURS_MINEURES
10
53.650
20
28.002
0
VERTEX
8
CONTOURS_MINEURES
10
53.262
20
27.261
0
VERTEX
8
CONTOURS_MINEURES
10
52.464
20
26.001
0
VERTEX
8
CONTOURS_MINEURES
10
52.464
20
25.539
0
VERTEX
8
CONTOURS_MINEURES
10
52.464
20
24.000
0
VERTEX
8
CONTOURS_MINEURES
10
52.003
20
22.431
0
VERTEX
8
CONTOURS_MINEURES
10
51.572
20
22.431
0
VERTEX
8
CONTOURS_MINEURES
10
50.003
20
22.431
0
VERTEX
8
CONTOURS_MINEURES
10
48.434
20
22.431
0
VERTEX
8
CONTOURS_MINEURES
10
48.004
20
22.431
0
VERTEX
8
CONTOURS_MINEURES
10
46.895
20
22.891
0
VERTEX
8
CONTOURS_MINEURES
10
46.004
20
22.766
0
VERTEX
8
CONTOURS_MINEURES
10
44.771
20
22.766
0
VERTEX
8
CONTOURS_MINEURES
10
44.004
20
22.766
0
VERTEX
8
CONTOURS_MINEURES
10
43.513
20
22.491
0
VERTEX
8
CONTOURS_MINEURES
10
42.005
20
22.941
0
VERTEX
8
CONTOURS_MINEURES
10
40.946
20
22.941
0
VERTEX
8
CONTOURS_MINEURES
10
40.005
20
22.941
0
VERTEX
8
CONTOURS_MINEURES
10
39.329
20
22.673
0
VERTEX
8
CONTOURS_MINEURES
10
37.995
20
22.669
0
VERTEX
8
CONTOURS_MINEURES
10
36.664
20
22.669
0
VERTEX
8
CONTOURS_MINEURES
10
35.995
20
22.669
0
VERTEX
8
CONTOURS_MINEURES
10
34.664
20
22.669
0
VERTEX
8
CONTOURS_MINEURES
10
33.995
20
22.669
0
VERTEX
8
CONTOURS_MINEURES
10
33.459
20
22.536
0
VERTEX
8
CONTOURS_MINEURES
10
31.996
20
22.307
0
VERTEX
8
CONTOURS_MINEURES
10
31.689
20
22.307
0
VERTEX
8
CONTOURS_MINEURES
10
29.996
20
22.307
0
VERTEX
8
CONTOURS_MINEURES
10
28.355
20
22.000
0
VERTEX
8
CONTOURS_MINEURES
10
28.355
20
21.641
0
VERTEX
8
CONTOURS_MINEURES
10
28.355
20
19.999
0
VERTEX
8
CONTOURS_MINEURES
10
28.355
20
19.641
0
VERTEX
8
CONTOURS_MINEURES
10
28.355
20
17.998
0
VERTEX
8
CONTOURS_MINEURES
10
27.996
20
17.904
0
VERTEX
8
CONTOURS_MINEURES
10
27.903
20
17.904
0
VERTEX
8
CONTOURS_MINEURES
10
25.997
20
17.904
0
VERTEX
8
CONTOURS_MINEURES
10
25.864
20
17.865
0
VERTEX
8
CONTOURS_MINEURES
10
23.997
20
17.442
0
VERTEX
8
CONTOURS_MINEURES
10
23.442
20
17.442
0
VERTEX
8
CONTOURS_MINEURES
10
21.998
20
17.442
0
VERTEX
8
CONTOURS_MINEURES
10
20.812
20
17.184
0
VERTEX
8
CONTOURS_MINEURES
10
19.998
20
16.783
0
VERTEX
8
CONTOURS_MINEURES
10
19.213
20
16.783
0
VERTEX
8
CONTOURS_MINEURES
10
17.998
20
16.783
0
VERTEX
8
CONTOURS_MINEURES
10
16.784
20
16.783
0
VERTEX
8
CONTOURS_MINEURES
10
15.999
20
16.783
0
VERTEX
8
CONTOURS_MINEURES
10
14.420
20
15.997
0
VERTEX
8
CONTOURS_MINEURES
10
14.420
20
14.418
0
VERTEX
8
CONTOURS_MINEURES
10
14.420
20
13.997
0
VERTEX
8
CONTOURS_MINEURES
10
14.236
20
13.760
0
VERTEX
8
CONTOURS_MINEURES
10
13.999
20
13.441
0
VERTEX
8
CONTOURS_MINEURES
10
13.443
20
13.441
0
VERTEX
8
CONTOURS_MINEURES
10
11.999
20
13.441
0
VERTEX
8
CONTOURS_MINEURES
10
11.009
20
11.996
0
VERTEX
8
CONTOURS_MINEURES
10
11.009
20
11.005
0
VERTEX
8
CONTOURS_MINEURES
10
11.009
20
9.995
0
VERTEX
8
CONTOURS_MINEURES
10
11.009
20
9.010
0
VERTEX
8
CONTOURS_MINEURES
10
11.009
20
8.005
0
VERTEX
8
CONTOURS_MINEURES
10
10.828
20
7.177
0
VERTEX
8
CONTOURS_MINEURES
10
10.255
20
6.005
0
VERTEX
8
CONTOURS_MINEURES
10
10.255
20
4.260
0
VERTEX
8
CONTOURS_MINEURES
10
10.255
20
4.004
0
VERTEX
8
CONTOURS_MINEURES
10
10.217
20
3.786
0
VERTEX
8
CONTOURS_MINEURES
10
10.000
20
2.903
0
VERTEX
8
CONTOURS_MINEURES
10
9.100
20
2.903
0
VERTEX
8
CONTOURS_MINEURES
10
8.000
20
2.903
0
VERTEX
8
CONTOURS_MINEURES
10
7.780
20
2.003
0
VERTEX
8
CONTOURS_MINEURES
10
7.780
20
1.783
0
VERTEX
8
CONTOURS_MINEURES
10
7.780
20
0.002
0
SEQEND
0
POLYLINE
8
CONTOURS_MINEURES
66
1
70
0
0
VERTEX
8
CONTOURS_MINEURES
10
68.000
20
37.395
0
VERTEX
8
CONTOURS_MINEURES
10
66.604
20
37.395
0
VERTEX
8
CONTOURS_MINEURES
10
66.000
20
37.395
0
VERTEX
8
CONTOURS_MINEURES
10
64.467
20
36.005
0
VERTEX
8
CONTOURS_MINEURES
10
64.467
20
34.471
0
VERTEX
8
CONTOURS_MINEURES
10
64.467
20
34.004
0
VERTEX
8
CONTOURS_MINEURES
10
64.467
20
33.538
0
VERTEX
8
CONTOURS_MINEURES
10
64.467
20
32.004
0
VERTEX
8
CONTOURS_MINEURES
10
64.001
20
31.680
0
VERTEX
8
CONTOURS_MINEURES
10
62.325
20
31.680
0
VERTEX
8
CONTOURS_MINEURES
10
62.001
20
31.680
0
VERTEX
8
CONTOURS_MINEURES
10
60.967
20
31.037
0
VERTEX
8
CONTOURS_MINEURES
10
60.002
20
30.234
0
VERTEX
8
CONTOURS_MINEURES
10
58.233
20
30.234
0
VERTEX
8
CONTOURS_MINEURES
10
58.002
20
30.234
0
VERTEX
8
CONTOURS_MINEURES
10
57.862
20
30.143
0
VERTEX
8
CONTOURS_MINEURES
10
57.754
20
30.003
0
VERTEX
8
CONTOURS_MINEURES
10
57.754
20
29.755
0
VERTEX
8
CONTOURS_MINEURES
10
57.754
20
28.002
0
VERTEX
8
CONTOURS_MINEURES
10
57.113
20
27.113
0
VERTEX
8
CONTOURS_MINEURES
10
56.241
20
26.001
0
VERTEX
8
CONTOURS_MINEURES
10
56.241
20
25.762
0
VERTEX
8
CONTOURS_MINEURES
10
56.241
20
24.000
0
VERTEX
8
CONTOURS_MINEURES
10
56.167
20
23.836
0
VERTEX
8
CONTOURS_MINEURES
10
56.002
20
23.178
0
VERTEX
8
CONTOURS_MINEURES
10
55.180
20
23.178
0
VERTEX
8
CONTOURS_MINEURES
10
54.003
20
23.178
0
VERTEX
8
CONTOURS_MINEURES
10
53.627
20
22.000
0
VERTEX
8
CONTOURS_MINEURES
10
53.627
20
20.375
0
VERTEX
8
CONTOURS_MINEURES
10
53.627
20
19.999
0
VERTEX
8
CONTOURS_MINEURES
10
53.627
20
18.374
0
VERTEX
8
CONTOURS_MINEURES
10
53.627
20
17.998
0
VERTEX
8
CONTOURS_MINEURES
10
53.455
20
17.450
0
VERTEX
8
CONTOURS_MINEURES
10
53.178
20
15.997
0
VERTEX
8
CONTOURS_MINEURES
10
53.178
20
14.822
0
VERTEX
8
CONTOURS_MINEURES
10
53.178
20
13.997
0
VERTEX
8
CONTOURS_MINEURES
10
52.561
20
12.555
0
VERTEX
8
CONTOURS_MINEURES
10
52.524
20
11.996
0
VERTEX
8
CONTOURS_MINEURES
10
52.524
20
10.516
0
VERTEX
8
CONTOURS_MINEURES
10
52.524
20
9.995
0
VERTEX
8
CONTOURS_MINEURES
10
52.524
20
9.477
0
VERTEX
8
CONTOURS_MINEURES
10
52.524
20
8.005
0
VERTEX
8
CONTOURS_MINEURES
10
52.476
20
7.532
0
VERTEX
8
CONTOURS_MINEURES
10
52.003
20
7.210
0
VERTEX
8
CONTOURS_MINEURES
10
51.208
20
7.210
0
VERTEX
8
CONTOURS_MINEURES
10
50.003
20
7.210
0
VERTEX
8
CONTOURS_MINEURES
10
48.798
20
7.210
0
VERTEX
8
CONTOURS_MINEURES
10
48.004
20
7.210
0
VERTEX
8
CONTOURS_MINEURES
10
47.384
20
7.385
0
VERTEX
8
CONTOURS_MINEURES
10
47.020
20
8.005
0
VERTEX
8
CONTOURS_MINEURES
10
47.020
20
8.984
0
VERTEX
8
CONTOURS_MINEURES
10
47.020
20
9.995
0
VERTEX
8
CONTOURS_MINEURES
10
47.020
20
11.011
0
VERTEX
8
CONTOURS_MINEURES
10
47.020
20
11.996
0
VERTEX
8
CONTOURS_MINEURES
10
46.004
20
12.817
0
VERTEX
8
CONTOURS_MINEURES
10
45.184
20
12.817
0
VERTEX
8
CONTOURS_MINEURES
10
44.004
20
12.817
0
VERTEX
8
CONTOURS_MINEURES
10
43.256
20
13.248
0
VERTEX
8
CONTOURS_MINEURES
10
42.896
20
13.997
0
VERTEX
8
CONTOURS_MINEURES
10
42.896
20
14.888
0
VERTEX
8
CONTOURS_MINEURES
10
42.896
20
15.997
0
VERTEX
8
CONTOURS_MINEURES
10
42.005
20
16.590
0
VERTEX
8
CONTOURS_MINEURES
10
41.413
20
16.590
0
VERTEX
8
CONTOURS_MINEURES
10
40.005
20
16.590
0
VERTEX
8
CONTOURS_MINEURES
10
38.841
20
16.840
0
VERTEX
8
CONTOURS_MINEURES
10
37.995
20
16.834
0
VERTEX
8
CONTOURS_MINEURES
10
37.158
20
16.834
0
VERTEX
8
CONTOURS_MINEURES
10
35.995
20
16.834
0
VERTEX
8
CONTOURS_MINEURES
10
34.832
20
16.834
0
VERTEX
8
CONTOURS_MINEURES
10
33.995
20
16.834
0
VERTEX
8
CONTOURS_MINEURES
10
32.760
20
16.762
0
VERTEX
8
CONTOURS_MINEURES
10
31.996
20
16.548
0
VERTEX
8
CONTOURS_MINEURES
10
31.446
20
16.548
0
VERTEX
8
CONTOURS_MINEURES
10
29.996
20
16.548
0
VERTEX
8
CONTOURS_MINEURES
10
28.462
20
16.463
0
VERTEX
8
CONTOURS_MINEURES
10
27.996
20
16.341
0
VERTEX
8
CONTOURS_MINEURES
10
26.340
20
16.341
0
VERTEX
8
CONTOURS_MINEURES
10
25.997
20
16.341
0
VERTEX
8
CONTOURS_MINEURES
10
24.824
20
15.997
0
VERTEX
8
CONTOURS_MINEURES
10
24.824
20
14.824
0
VERTEX
8
CONTOURS_MINEURES
10
24.824
20
13.997
0
VERTEX
8
CONTOURS_MINEURES
10
24.611
20
13.382
0
VERTEX
8
CONTOURS_MINEURES
10
23.997
20
12.648
0
VERTEX
8
CONTOURS_MINEURES
10
22.650
20
12.648
0
VERTEX
8
CONTOURS_MINEURES
10
21.998
20
12.648
0
VERTEX
8
CONTOURS_MINEURES
10
21.783
20
12.210
0
VERTEX
8
CONTOURS_MINEURES
10
21.543
20
11.996
0
VERTEX
8
CONTOURS_MINEURES
10
21.543
20
11.541
0
VERTEX
8
CONTOURS_MINEURES
10
21.543
20
9.995
0
VERTEX
8
CONTOURS_MINEURES
10
21.543
20
8.458
0
VERTEX
8
CONTOURS_MINEURES
10
21.543
20
8.005
0
VERTEX
8
CONTOURS_MINEURES
10
21.452
20
7.460
0
VERTEX
8
CONTOURS_MINEURES
10
21.228
20
6.005
0
VERTEX
8
CONTOURS_MINEURES
10
21.228
20
4.773
0
VERTEX
8
CONTOURS_MINEURES
10
21.228
20
4.004
0
VERTEX
8
CONTOURS_MINEURES
10
21.191
20
3.197
0
VERTEX
8
CONTOURS_MINEURES
10
21.273
20
2.003
0
VERTEX
8
CONTOURS_MINEURES
10
21.273
20
0.727
0
VERTEX
8
CONTOURS_MINEURES
10
21.273
20
0.002
0
SEQEND
0
POLYLINE
8
CONTOURS_MINEURES
66
1
70
0
0
VERTEX
8
CONTOURS_MINEURES
10
68.000
20
31.312
0
VERTEX
8
CONTOURS_MINEURES
10
66.692
20
31.312
0
VERTEX
8
CONTOURS_MINEURES
10
66.000
20
31.312
0
VERTEX
8
CONTOURS_MINEURES
10
64.042
20
30.003
0
VERTEX
8
CONTOURS_MINEURES
10
64.042
20
29.961
0
VERTEX
8
CONTOURS_MINEURES
10
64.042
20
28.002
0
VERTEX
8
CONTOURS_MINEURES
10
64.022
20
27.981
0
VERTEX
8
CONTOURS_MINEURES
10
64.001
20
27.967
0
VERTEX
8
CONTOURS_MINEURES
10
62.036
20
27.967
0
VERTEX
8
CONTOURS_MINEURES
10
62.001
20
27.967
0
VERTEX
8
CONTOURS_MINEURES
10
61.751
20
27.752
0
VERTEX
8
CONTOURS_MINEURES
10
60.002
20
26.214
0
VERTEX
8
CONTOURS_MINEURES
10
59.788
20
26.214
0
VERTEX
8
CONTOURS_MINEURES
10
58.002
20
26.214
0
VERTEX
8
CONTOURS_MINEURES
10
57.835
20
26.001
0
VERTEX
8
CONTOURS_MINEURES
10
57.835
20
24.168
0
VERTEX
8
CONTOURS_MINEURES
10
57.835
20
24.000
0
VERTEX
8
CONTOURS_MINEURES
10
57.262
20
22.740
0
VERTEX
8
CONTOURS_MINEURES
10
57.077
20
22.000
0
VERTEX
8
CONTOURS_MINEURES
10
57.077
20
21.075
0
VERTEX
8
CONTOURS_MINEURES
10
57.077
20
19.999
0
VERTEX
8
CONTOURS_MINEURES
10
57.077
20
18.923
0
VERTEX
8
CONTOURS_MINEURES
10
57.077
20
17.998
0
VERTEX
8
CONTOURS_MINEURES
10
56.943
20
16.939
0
VERTEX
8
CONTOURS_MINEURES
10
56.660
20
15.997
0
VERTEX
8
CONTOURS_MINEURES
10
56.660
20
15.340
0
VERTEX
8
CONTOURS_MINEURES
10
56.660
20
13.997
0
VERTEX
8
CONTOURS_MINEURES
10
56.555
20
13.443
0
VERTEX
8
CONTOURS_MINEURES
10
56.528
20
11.996
0
VERTEX
8
CONTOURS_MINEURES
10
56.528
20
10.521
0
VERTEX
8
CONTOURS_MINEURES
10
56.528
20
9.995
0
VERTEX
8
CONTOURS_MINEURES
10
56.528
20
9.472
0
VERTEX
8
CONTOURS_MINEURES
10
56.528
20
8.005
0
VERTEX
8
CONTOURS_MINEURES
10
56.485
20
6.488
0
VERTEX
8
CONTOURS_MINEURES
10
56.503
20
6.005
0
VERTEX
8
CONTOURS_MINEURES
10
56.503
20
5.503
0
VERTEX
8
CONTOURS_MINEURES
10
56.503
20
4.004
0
VERTEX
8
CONTOURS_MINEURES
10
56.729
20
3.276
0
VERTEX
8
CONTOURS_MINEURES
10
56.596
20
2.003
0
VERTEX
8
CONTOURS_MINEURES
10
56.596
20
0.597
0
VERTEX
8
CONTOURS_MINEURES
10
56.596
20
0.002
0
SEQEND
0
POLYLINE
8
CONTOURS_MINEURES
66
1
70
0
0
VERTEX
8
CONTOURS_MINEURES
10
68.000
20
27.185
0
VERTEX
8
CONTOURS_MINEURES
10
67.183
20
27.185
0
VERTEX
8
CONTOURS_MINEURES
10
66.000
20
27.185
0
VERTEX
8
CONTOURS_MINEURES
10
65.415
20
26.587
0
VERTEX
8
CONTOURS_MINEURES
10
64.514
20
26.001
0
VERTEX
8
CONTOURS_MINEURES
10
64.514
20
24.514
0
VERTEX
8
CONTOURS_MINEURES
10
64.514
20
24.000
0
VERTEX
8
CONTOURS_MINEURES
10
64.001
20
23.206
0
VERTEX
8
CONTOURS_MINEURES
10
63.206
20
23.206
0
VERTEX
8
CONTOURS_MINEURES
10
62.001
20
23.206
0
VERTEX
8
CONTOURS_MINEURES
10
61.607
20
22.394
0
VERTEX
8
CONTOURS_MINEURES
10
61.194
20
22.000
0
VERTEX
8
CONTOURS_MINEURES
10
61.194
20
21.192
0
VERTEX
8
CONTOURS_MINEURES
10
61.194
20
19.999
0
VERTEX
8
CONTOURS_MINEURES
10
61.194
20
19.191
0
VERTEX
8
CONTOURS_MINEURES
10
61.194
20
17.998
0
VERTEX
8
CONTOURS_MINEURES
10
60.682
20
17.317
0
VERTEX
8
CONTOURS_MINEURES
10
60.002
20
16.816
0
VERTEX
8
CONTOURS_MINEURES
10
58.820
20
16.816
0
VERTEX
8
CONTOURS_MINEURES
10
58.002
20
16.816
0
VERTEX
8
CONTOURS_MINEURES
10
57.755
20
15.997
0
VERTEX
8
CONTOURS_MINEURES
10
57.755
20
14.243
0
VERTEX
8
CONTOURS_MINEURES
10
57.755
20
13.997
0
VERTEX
8
CONTOURS_MINEURES
10
57.477
20
12.521
0
VERTEX
8
CONTOURS_MINEURES
10
57.467
20
11.996
0
VERTEX
8
CONTOURS_MINEURES
10
57.467
20
11.460
0
VERTEX
8
CONTOURS_MINEURES
10
57.467
20
9.995
0
VERTEX
8
CONTOURS_MINEURES
10
57.467
20
8.538
0
VERTEX
8
CONTOURS_MINEURES
10
57.467
20
8.005
0
VERTEX
8
CONTOURS_MINEURES
10
57.451
20
7.454
0
VERTEX
8
CONTOURS_MINEURES
10
57.506
20
6.005
0
VERTEX
8
CONTOURS_MINEURES
10
57.506
20
4.500
0
VERTEX
8
CONTOURS_MINEURES
10
57.506
20
4.004
0
VERTEX
8
CONTOURS_MINEURES
10
58.002
20
2.406
0
VERTEX
8
CONTOURS_MINEURES
10
58.405
20
2.406
0
VERTEX
8
CONTOURS_MINEURES
10
60.002
20
2.406
0
VERTEX
8
CONTOURS_MINEURES
10
60.223
20
2.003
0
VERTEX
8
CONTOURS_MINEURES
10
60.223
20
0.224
0
VERTEX
8
CONTOURS_MINEURES
10
60.223
20
0.002
0
SEQEND
0
POLYLINE
8
CONTOURS_MINEURES
66
1
70
0
0
VERTEX
8
CONTOURS_MINEURES
10
64.022
20
0.002
0
VERTEX
8
CONTOURS_MINEURES
10
64.022
20
1.982
0
VERTEX
8
CONTOURS_MINEURES
10
64.022
20
2.003
0
VERTEX
8
CONTOURS_MINEURES
10
66.000
20
3.829
0
VERTEX
8
CONTOURS_MINEURES
10
66.175
20
3.829
0
VERTEX
8
CONTOURS_MINEURES
10
68.000
20
3.829
0
SEQEND
0
POLYLINE
8
CONTOURS_MINEURES
66
1
70
0
0
VERTEX
8
CONTOURS_MINEURES
10
68.000
20
12.755
0
VERTEX
8
CONTOURS_MINEURES
10
66.759
20
12.755
0
VERTEX
8
CONTOURS_MINEURES
10
66.000
20
12.755
0
VERTEX
8
CONTOURS_MINEURES
10
65.742
20
12.255
0
VERTEX
8
CONTOURS_MINEURES
10
64.001
20
12.675
0
VERTEX
8
CONTOURS_MINEURES
10
62.680
20
12.675
0
VERTEX
8
CONTOURS_MINEURES
10
62.001
20
12.675
0
VERTEX
8
CONTOURS_MINEURES
10
61.607
20
12.390
0
VERTEX
8
CONTOURS_MINEURES
10
61.388
20
11.996
0
VERTEX
8
CONTOURS_MINEURES
10
61.388
20
11.383
0
VERTEX
8
CONTOURS_MINEURES
10
61.388
20
9.995
0
VERTEX
8
CONTOURS_MINEURES
10
61.388
20
9.385
0
VERTEX
8
CONTOURS_MINEURES
10
61.388
20
8.005
0
VERTEX
8
CONTOURS_MINEURES
10
61.455
20
7.458
0
VERTEX
8
CONTOURS_MINEURES
10
60.963
20
6.005
0
VERTEX
8
CONTOURS_MINEURES
10
60.963
20
5.042
0
VERTEX
8
CONTOURS_MINEURES
10
60.963
20
4.004
0
VERTEX
8
CONTOURS_MINEURES
10
61.982
20
2.023
0
VERTEX
8
CONTOURS_MINEURES
10
61.992
20
2.003
0
VERTEX
8
CONTOURS_MINEURES
10
61.992
20
1.994
0
VERTEX
8
CONTOURS_MINEURES
10
61.992
20
0.002
0
SEQEND
0
POLYLINE
8
CONTOURS_MAJEURES
66
1
70
0
0
VERTEX
8
CONTOURS_MAJEURES
10
29.756
20
75.998
0
VERTEX
8
CONTOURS_MAJEURES
10
27.996
20
74.194
0
VERTEX
8
CONTOURS_MAJEURES
10
26.193
20
74.194
0
VERTEX
8
CONTOURS_MAJEURES
10
25.997
20
74.194
0
VERTEX
8
CONTOURS_MAJEURES
10
25.921
20
74.073
0
VERTEX
8
CONTOURS_MAJEURES
10
25.864
20
73.998
0
VERTEX
8
CONTOURS_MAJEURES
10
25.864
20
73.865
0
VERTEX
8
CONTOURS_MAJEURES
10
25.864
20
71.997
0
VERTEX
8
CONTOURS_MAJEURES
10
25.864
20
70.129
0
VERTEX
8
CONTOURS_MAJEURES
10
25.864
20
69.996
0
VERTEX
8
CONTOURS_MAJEURES
10
25.856
20
69.856
0
VERTEX
8
CONTOURS_MAJEURES
10
25.997
20
68.149
0
VERTEX
8
CONTOURS_MAJEURES
10
27.843
20
68.149
0
VERTEX
8
CONTOURS_MAJEURES
10
27.996
20
68.149
0
VERTEX
8
CONTOURS_MAJEURES
10
28.028
20
68.027
0
VERTEX
8
CONTOURS_MAJEURES
10
28.023
20
67.995
0
VERTEX
8
CONTOURS_MAJEURES
10
28.023
20
67.968
0
VERTEX
8
CONTOURS_MAJEURES
10
28.023
20
65.995
0
VERTEX
8
CONTOURS_MAJEURES
10
27.996
20
65.331
0
VERTEX
8
CONTOURS_MAJEURES
10
27.330
20
65.331
0
VERTEX
8
CONTOURS_MAJEURES
10
25.997
20
65.331
0
VERTEX
8
CONTOURS_MAJEURES
10
25.972
20
64.030
0
VERTEX
8
CONTOURS_MAJEURES
10
25.966
20
64.005
0
VERTEX
8
CONTOURS_MAJEURES
10
25.966
20
63.974
0
VERTEX
8
CONTOURS_MAJEURES
10
25.966
20
62.004
0
VERTEX
8
CONTOURS_MAJEURES
10
25.966
20
61.973
0
VERTEX
8
CONTOURS_MAJEURES
10
25.966
20
60.003
0
VERTEX
8
CONTOURS_MAJEURES
10
25.597
20
59.603
0
VERTEX
8
CONTOURS_MAJEURES
10
24.156
20
58.003
0
VERTEX
8
CONTOURS_MAJEURES
10
24.156
20
57.844
0
VERTEX
8
CONTOURS_MAJEURES
10
24.156
20
56.002
0
VERTEX
8
CONTOURS_MAJEURES
10
23.997
20
55.905
0
VERTEX
8
CONTOURS_MAJEURES
10
22.094
20
55.905
0
VERTEX
8
CONTOURS_MAJEURES
10
21.998
20
55.905
0
VERTEX
8
CONTOURS_MAJEURES
10
20.808
20
55.191
0
VERTEX
8
CONTOURS_MAJEURES
10
19.998
20
54.664
0
VERTEX
8
CONTOURS_MAJEURES
10
18.661
20
54.664
0
VERTEX
8
CONTOURS_MAJEURES
10
17.998
20
54.664
0
VERTEX
8
CONTOURS_MAJEURES
10
17.336
20
54.664
0
VERTEX
8
CONTOURS_MAJEURES
10
15.999
20
54.664
0
VERTEX
8
CONTOURS_MAJEURES
10
14.674
20
54.001
0
VERTEX
8
CONTOURS_MAJEURES
10
14.674
20
52.675
0
VERTEX
8
CONTOURS_MAJEURES
10
14.674
20
52.000
0
VERTEX
8
CONTOURS_MAJEURES
10
14.194
20
51.805
0
VERTEX
8
CONTOURS_MAJEURES
10
13.999
20
51.739
0
VERTEX
8
CONTOURS_MAJEURES
10
13.738
20
51.739
0
VERTEX
8
CONTOURS_MAJEURES
10
11.999
20
51.739
0
VERTEX
8
CONTOURS_MAJEURES
10
10.690
20
51.309
0
VERTEX
8
CONTOURS_MAJEURES
10
10.000
20
51.309
0
VERTEX
8
CONTOURS_MAJEURES
10
9.309
20
51.309
0
VERTEX
8
CONTOURS_MAJEURES
10
8.000
20
51.309
0
VERTEX
8
CONTOURS_MAJEURES
10
6.856
20
50.855
0
VERTEX
8
CONTOURS_MAJEURES
10
6.000
20
50.522
0
VERTEX
8
CONTOURS_MAJEURES
10
5.478
20
50.522
0
VERTEX
8
CONTOURS_MAJEURES
10
4.001
20
50.522
0
VERTEX
8
CONTOURS_MAJEURES
10
2.523
20
50.522
0
VERTEX
8
CONTOURS_MAJEURES
10
2.001
20
50.522
0
VERTEX
8
CONTOURS_MAJEURES
10
1.564
20
50.437
0
VERTEX
8
CONTOURS_MAJEURES
10
0.474
20
49.999
0
VERTEX
8
CONTOURS_MAJEURES
10
0.474
20
48.472
0
VERTEX
8
CONTOURS_MAJEURES
10
0.474
20
47.999
0
VERTEX
8
CONTOURS_MAJEURES
10
0.474
20
46.471
0
VERTEX
8
CONTOURS_MAJEURES
10
0.474
20
45.998
0
VERTEX
8
CONTOURS_MAJEURES
10
0.001
20
45.831
0
SEQEND
0
POLYLINE
8
CONTOURS_MAJEURES
66
1
70
0
0
VERTEX
8
CONTOURS_MAJEURES
10
64.327
20
75.998
0
VERTEX
8
CONTOURS_MAJEURES
10
64.001
20
74.507
0
VERTEX
8
CONTOURS_MAJEURES
10
63.492
20
74.507
0
VERTEX
8
CONTOURS_MAJEURES
10
62.001
20
74.507
0
VERTEX
8
CONTOURS_MAJEURES
10
61.833
20
73.998
0
VERTEX
8
CONTOURS_MAJEURES
10
61.833
20
73.829
0
VERTEX
8
CONTOURS_MAJEURES
10
61.833
20
71.997
0
VERTEX
8
CONTOURS_MAJEURES
10
61.833
20
70.165
0
VERTEX
8
CONTOURS_MAJEURES
10
61.833
20
69.996
0
VERTEX
8
CONTOURS_MAJEURES
10
61.760
20
69.755
0
VERTEX
8
CONTOURS_MAJEURES
10
61.438
20
67.995
0
VERTEX
8
CONTOURS_MAJEURES
10
61.438
20
66.558
0
VERTEX
8
CONTOURS_MAJEURES
10
61.438
20
65.995
0
VERTEX
8
CONTOURS_MAJEURES
10
61.069
20
64.932
0
VERTEX
8
CONTOURS_MAJEURES
10
60.518
20
64.005
0
VERTEX
8
CONTOURS_MAJEURES
10
60.518
20
62.521
0
VERTEX
8
CONTOURS_MAJEURES
10
60.518
20
62.004
0
VERTEX
8
CONTOURS_MAJEURES
10
60.518
20
61.487
0
VERTEX
8
CONTOURS_MAJEURES
10
60.518
20
60.003
0
VERTEX
8
CONTOURS_MAJEURES
10
60.232
20
59.773
0
VERTEX
8
CONTOURS_MAJEURES
10
60.002
20
59.274
0
VERTEX
8
CONTOURS_MAJEURES
10
59.272
20
59.274
0
VERTEX
8
CONTOURS_MAJEURES
10
58.002
20
59.274
0
VERTEX
8
CONTOURS_MAJEURES
10
57.291
20
58.713
0
VERTEX
8
CONTOURS_MAJEURES
10
56.853
20
58.003
0
VERTEX
8
CONTOURS_MAJEURES
10
56.853
20
56.853
0
VERTEX
8
CONTOURS_MAJEURES
10
56.853
20
56.002
0
VERTEX
8
CONTOURS_MAJEURES
10
56.444
20
55.560
0
VERTEX
8
CONTOURS_MAJEURES
10
56.002
20
54.905
0
VERTEX
8
CONTOURS_MAJEURES
10
55.098
20
54.905
0
VERTEX
8
CONTOURS_MAJEURES
10
54.003
20
54.905
0
VERTEX
8
CONTOURS_MAJEURES
10
53.062
20
55.060
0
VERTEX
8
CONTOURS_MAJEURES
10
52.003
20
55.186
0
VERTEX
8
CONTOURS_MAJEURES
10
50.819
20
55.186
0
VERTEX
8
CONTOURS_MAJEURES
10
50.003
20
55.186
0
VERTEX
8
CONTOURS_MAJEURES
10
49.188
20
55.186
0
VERTEX
8
CONTOURS_MAJEURES
10
48.004
20
55.186
0
VERTEX
8
CONTOURS_MAJEURES
10
47.619
20
54.386
0
VERTEX
8
CONTOURS_MAJEURES
10
46.004
20
54.111
0
VERTEX
8
CONTOURS_MAJEURES
10
44.114
20
54.111
0
VERTEX
8
CONTOURS_MAJEURES
10
44.004
20
54.111
0
VERTEX
8
CONTOURS_MAJEURES
10
43.960
20
54.045
0
VERTEX
8
CONTOURS_MAJEURES
10
43.903
20
54.001
0
VERTEX
8
CONTOURS_MAJEURES
10
43.903
20
53.900
0
VERTEX
8
CONTOURS_MAJEURES
10
43.903
20
52.000
0
VERTEX
8
CONTOURS_MAJEURES
10
43.382
20
50.622
0
VERTEX
8
CONTOURS_MAJEURES
10
42.657
20
49.999
0
VERTEX
8
CONTOURS_MAJEURES
10
42.657
20
49.347
0
VERTEX
8
CONTOURS_MAJEURES
10
42.657
20
47.999
0
VERTEX
8
CONTOURS_MAJEURES
10
42.657
20
46.650
0
VERTEX
8
CONTOURS_MAJEURES
10
42.657
20
45.998
0
VERTEX
8
CONTOURS_MAJEURES
10
42.380
20
45.623
0
VERTEX
8
CONTOURS_MAJEURES
10
42.005
20
45.300
0
VERTEX
8
CONTOURS_MAJEURES
10
41.307
20
45.300
0
VERTEX
8
CONTOURS_MAJEURES
10
40.005
20
45.300
0
VERTEX
8
CONTOURS_MAJEURES
10
39.406
20
44.593
0
VERTEX
8
CONTOURS_MAJEURES
10
38.726
20
43.997
0
VERTEX
8
CONTOURS_MAJEURES
10
38.726
20
42.724
0
VERTEX
8
CONTOURS_MAJEURES
10
38.726
20
41.996
0
VERTEX
8
CONTOURS_MAJEURES
10
38.372
20
41.621
0
VERTEX
8
CONTOURS_MAJEURES
10
37.995
20
41.373
0
VERTEX
8
CONTOURS_MAJEURES
10
37.371
20
41.373
0
VERTEX
8
CONTOURS_MAJEURES
10
35.995
20
41.373
0
VERTEX
8
CONTOURS_MAJEURES
10
35.372
20
41.373
0
VERTEX
8
CONTOURS_MAJEURES
10
33.995
20
41.373
0
VERTEX
8
CONTOURS_MAJEURES
10
33.120
20
40.872
0
VERTEX
8
CONTOURS_MAJEURES
10
31.996
20
40.194
0
VERTEX
8
CONTOURS_MAJEURES
10
30.195
20
40.194
0
VERTEX
8
CONTOURS_MAJEURES
10
29.996
20
40.194
0
VERTEX
8
CONTOURS_MAJEURES
10
29.666
20
39.996
0
VERTEX
8
CONTOURS_MAJEURES
10
29.666
20
38.325
0
VERTEX
8
CONTOURS_MAJEURES
10
29.666
20
37.995
0
VERTEX
8
CONTOURS_MAJEURES
10
28.827
20
37.168
0
VERTEX
8
CONTOURS_MAJEURES
10
27.996
20
36.173
0
VERTEX
8
CONTOURS_MAJEURES
10
27.828
20
36.173
0
VERTEX
8
CONTOURS_MAJEURES
10
25.997
20
36.173
0
VERTEX
8
CONTOURS_MAJEURES
10
25.791
20
36.005
0
VERTEX
8
CONTOURS_MAJEURES
10
25.791
20
35.799
0
VERTEX
8
CONTOURS_MAJEURES
10
25.791
20
34.004
0
VERTEX
8
CONTOURS_MAJEURES
10
25.791
20
33.798
0
VERTEX
8
CONTOURS_MAJEURES
10
25.791
20
32.004
0
VERTEX
8
CONTOURS_MAJEURES
10
25.159
20
30.841
0
VERTEX
8
CONTOURS_MAJEURES
10
23.997
20
30.097
0
VERTEX
8
CONTOURS_MAJEURES
10
22.091
20
30.097
0
VERTEX
8
CONTOURS_MAJEURES
10
21.998
20
30.097
0
VERTEX
8
CONTOURS_MAJEURES
10
20.562
20
30.568
0
VERTEX
8
CONTOURS_MAJEURES
10
19.998
20
30.351
0
VERTEX
8
CONTOURS_MAJEURES
10
18.346
20
30.351
0
VERTEX
8
CONTOURS_MAJEURES
10
17.998
20
30.351
0
VERTEX
8
CONTOURS_MAJEURES
10
17.650
20
30.351
0
VERTEX
8
CONTOURS_MAJEURES
10
15.999
20
30.351
0
VERTEX
8
CONTOURS_MAJEURES
10
14.999
20
30.003
0
VERTEX
8
CONTOURS_MAJEURES
10
14.999
20
29.002
0
VERTEX
8
CONTOURS_MAJEURES
10
14.999
20
28.002
0
VERTEX
8
CONTOURS_MAJEURES
10
13.999
20
27.782
0
VERTEX
8
CONTOURS_MAJEURES
10
12.219
20
27.782
0
VERTEX
8
CONTOURS_MAJEURES
10
11.999
20
27.782
0
VERTEX
8
CONTOURS_MAJEURES
10
10.341
20
27.660
0
VERTEX
8
CONTOURS_MAJEURES
10
10.000
20
27.528
0
VERTEX
8
CONTOURS_MAJEURES
10
8.473
20
27.528
0
VERTEX
8
CONTOURS_MAJEURES
10
8.000
20
27.528
0
VERTEX
8
CONTOURS_MAJEURES
10
6.916
20
27.086
0
VERTEX
8
CONTOURS_MAJEURES
10
6.000
20
26.577
0
VERTEX
8
CONTOURS_MAJEURES
10
4.576
20
26.577
0
VERTEX
8
CONTOURS_MAJEURES
10
4.001
20
26.577
0
VERTEX
8
CONTOURS_MAJEURES
10
3.426
20
26.577
0
VERTEX
8
CONTOURS_MAJEURES
10
2.001
20
26.577
0
VERTEX
8
CONTOURS_MAJEURES
10
0.978
20
26.001
0
VERTEX
8
CONTOURS_MAJEURES
10
0.978
20
24.978
0
VERTEX
8
CONTOURS_MAJEURES
10
0.978
20
24.000
0
VERTEX
8
CONTOURS_MAJEURES
10
0.318
20
23.683
0
VERTEX
8
CONTOURS_MAJEURES
10
0.001
20
23.482
0
SEQEND
0
POLYLINE
8
CONTOURS_MAJEURES
66
1
70
0
0
VERTEX
8
CONTOURS_MAJEURES
10
68.000
20
31.312
0
VERTEX
8
CONTOURS_MAJEURES
10
66.692
20
31.312
0
VERTEX
8
CONTOURS_MAJEURES
10
66.000
20
31.312
0
VERTEX
8
CONTOURS_MAJEURES
10
64.042
20
30.003
0
VERTEX
8
CONTOURS_MAJEURES
10
64.042
20
29.961
0
VERTEX
8
CONTOURS_MAJEURES
10
64.042
20
28.002
0
VERTEX
8
CONTOURS_MAJEURES
10
64.022
20
27.981
0
VERTEX
8
CONTOURS_MAJEURES
10
64.001
20
27.967
0
VERTEX
8
CONTOURS_MAJEURES
10
62.036
20
27.967
0
VERTEX
8
CONTOURS_MAJEURES
10
62.001
20
27.967
0
VERTEX
8
CONTOURS_MAJEURES
10
61.751
20
27.752
0
VERTEX
8
CONTOURS_MAJEURES
10
60.002
20
26.214
0
VERTEX
8
CONTOURS_MAJEURES
10
59.788
20
26.214
0
VERTEX
8
CONTOURS_MAJEURES
10
58.002
20
26.214
0
VERTEX
8
CONTOURS_MAJEURES
10
57.835
20
26.001
0
VERTEX
8
CONTOURS_MAJEURES
10
57.835
20
24.168
0
VERTEX
8
CONTOURS_MAJEURES
10
57.835
20
24.000
0
VERTEX
8
CONTOURS_MAJEURES
10
57.262
20
22.740
0
VERTEX
8
CONTOURS_MAJEURES
10
57.077
20
22.000
0
VERTEX
8
CONTOURS_MAJEURES
10
57.077
20
21.075
0
VERTEX
8
CONTOURS_MAJEURES
10
57.077
20
19.999
0
VERTEX
8
CONTOURS_MAJEURES
10
57.077
20
18.923
0
VERTEX
8
CONTOURS_MAJEURES
10
57.077
20
17.998
0
VERTEX
8
CONTOURS_MAJEURES
10
56.943
20
16.939
0
VERTEX
8
CONTOURS_MAJEURES
10
56.660
20
15.997
0
VERTEX
8
CONTOURS_MAJEURES
10
56.660
20
15.340
0
VERTEX
8
CONTOURS_MAJEURES
10
56.660
20
13.997
0
VERTEX
8
CONTOURS_MAJEURES
10
56.555
20
13.443
0
VERTEX
8
CONTOURS_MAJEURES
10
56.528
20
11.996
0
VERTEX
8
CONTOURS_MAJEURES
10
56.528
20
10.521
0
VERTEX
8
CONTOURS_MAJEURES
10
56.528
20
9.995
0
VERTEX
8
CONTOURS_MAJEURES
10
56.528
20
9.472
0
VERTEX
8
CONTOURS_MAJEURES
10
56.528
20
8.005
0
VERTEX
8
CONTOURS_MAJEURES
10
56.485
20
6.488
0
VERTEX
8
CONTOURS_MAJEURES
10
56.503
20
6.005
0
VERTEX
8
CONTOURS_MAJEURES
10
56.503
20
5.503
0
VERTEX
8
CONTOURS_MAJEURES
10
56.503
20
4.004
0
VERTEX
8
CONTOURS_MAJEURES
10
56.729
20
3.276
0
VERTEX
8
CONTOURS_MAJEURES
10
56.596
20
2.003
0
VERTEX
8
CONTOURS_MAJEURES
10
56.596
20
0.597
0
VERTEX
8
CONTOURS_MAJEURES
10
56.596
20
0.002
0
SEQEND
0
POLYLINE
8
PARCELLE
66
1
70
1
0
VERTEX
8
PARCELLE
10
42.954
20
22.207
0
VERTEX
8
PARCELLE
10
24.382
20
20.000
0
VERTEX
8
PARCELLE
10
23.071
20
29.889
0
VERTEX
8
PARCELLE
10
20.862
20
46.618
0
VERTEX
8
PARCELLE
10
20.000
20
53.107
0
VERTEX
8
PARCELLE
10
49.618
20
56.307
0
VERTEX
8
PARCELLE
10
43.340
20
33.255
0
VERTEX
8
PARCELLE
10
42.604
20
30.382
0
VERTEX
8
PARCELLE
10
42.165
20
27.437
0
VERTEX
8
PARCELLE
10
42.954
20
22.207
0
SEQEND
0
TEXT
8
POINTS_COTES
10
0.001
20
0.002
40
1.0
1
174.5
0
TEXT
8
POINTS_COTES
10
66.000
20
2.003
40
1.0
1
183.1
0
TEXT
8
POINTS_COTES
10
62.001
20
6.005
40
1.0
1
185.1
0
TEXT
8
POINTS_COTES
10
58.002
20
9.995
40
1.0
1
183.1
0
TEXT
8
POINTS_COTES
10
54.003
20
13.997
40
1.0
1
178.8
0
TEXT
8
POINTS_COTES
10
50.003
20
17.998
40
1.0
1
176.1
0
TEXT
8
POINTS_COTES
10
46.004
20
22.000
40
1.0
1
176.4
0
TEXT
8
POINTS_COTES
10
42.005
20
26.001
40
1.0
1
174.7
0
TEXT
8
POINTS_COTES
10
37.995
20
30.003
40
1.0
1
172.0
0
TEXT
8
POINTS_COTES
10
33.995
20
34.004
40
1.0
1
171.8
0
TEXT
8
POINTS_COTES
10
29.996
20
37.995
40
1.0
1
170.2
0
TEXT
8
POINTS_COTES
10
25.997
20
41.996
40
1.0
1
167.8
0
TEXT
8
POINTS_COTES
10
21.998
20
45.998
40
1.0
1
163.9
0
TEXT
8
POINTS_COTES
10
17.998
20
49.999
40
1.0
1
162.5
0
TEXT
8
POINTS_COTES
10
13.999
20
54.001
40
1.0
1
159.7
0
TEXT
8
POINTS_COTES
10
10.000
20
58.003
40
1.0
1
157.1
0
TEXT
8
POINTS_COTES
10
6.000
20
62.004
40
1.0
1
155.1
0
TEXT
8
POINTS_COTES
10
2.001
20
65.995
40
1.0
1
153.7
0
TEXT
8
POINTS_COTES
10
68.000
20
67.995
40
1.0
1
172.1
0
TEXT
8
POINTS_COTES
10
64.001
20
71.997
40
1.0
1
170.1
0
TEXT
8
POINTS_COTES
10
60.002
20
75.998
40
1.0
1
167.9
0
ENDSEC
0
EOF
