0
SECTION
2
HEADER
0
ENDSEC
0
SECTION
2
TABLES
0
TABLE
2
LAYER
70
4
0
LAYER
2
CONTOURS_MINEURES
70
0
62
8
6
CONTINUOUS
0
LAYER
2
CONTOURS_MAJEURES
70
0
62
3
6
CONTINUOUS
0
LAYER
2
PARCELLE
70
0
62
4
6
CONTINUOUS
0
LAYER
2
POINTS_COTES
70
0
62
7
6
CONTINUOUS
0
ENDTAB
0
ENDSEC
0
SECTION
2
ENTITIES
0
POLYLINE
8
CONTOURS_MINEURES
66
1
70
0
0
VERTEX
8
CONTOURS_MINEURES
10
96.657
20
170.004
0
VERTEX
8
CONTOURS_MINEURES
10
96.093
20
166.093
0
VERTEX
8
CONTOURS_MINEURES
10
95.670
20
164.996
0
VERTEX
8
CONTOURS_MINEURES
10
94.997
20
163.980
0
VERTEX
8
CONTOURS_MINEURES
10
91.124
20
163.876
0
VERTEX
8
CONTOURS_MINEURES
10
90.658
20
160.000
0
VERTEX
8
CONTOURS_MINEURES
10
90.004
20
158.776
0
VERTEX
8
CONTOURS_MINEURES
10
86.616
20
155.004
0
VERTEX
8
CONTOURS_MINEURES
10
85.001
20
153.106
0
VERTEX
8
CONTOURS_MINEURES
10
81.568
20
149.996
0
VERTEX
8
CONTOURS_MINEURES
10
79.997
20
149.351
0
VERTEX
8
CONTOURS_MINEURES
10
75.564
20
149.436
0
VERTEX
8
CONTOURS_MINEURES
10
75.004
20
148.433
0
VERTEX
8
CONTOURS_MINEURES
10
70.107
20
149.996
0
VERTEX
8
CONTOURS_MINEURES
10
74.426
20
150.575
0
VERTEX
8
CONTOURS_MINEURES
10
75.004
20
150.678
0
VERTEX
8
CONTOURS_MINEURES
10
79.218
20
150.778
0
VERTEX
8
CONTOURS_MINEURES
10
79.997
20
152.368
0
VERTEX
8
CONTOURS_MINEURES
10
82.271
20
155.004
0
VERTEX
8
CONTOURS_MINEURES
10
85.001
20
156.733
0
VERTEX
8
CONTOURS_MINEURES
10
88.679
20
160.000
0
VERTEX
8
CONTOURS_MINEURES
10
88.970
20
161.033
0
VERTEX
8
CONTOURS_MINEURES
10
88.336
20
164.996
0
VERTEX
8
CONTOURS_MINEURES
10
88.872
20
168.871
0
VERTEX
8
CONTOURS_MINEURES
10
89.071
20
170.004
0
SEQEND
0
POLYLINE
8
CONTOURS_MINEURES
66
1
70
0
0
VERTEX
8
CONTOURS_MINEURES
10
53.973
20
156.030
0
VERTEX
8
CONTOURS_MINEURES
10
55.001
20
155.822
0
VERTEX
8
CONTOURS_MINEURES
10
55.443
20
155.445
0
VERTEX
8
CONTOURS_MINEURES
10
55.933
20
155.004
0
VERTEX
8
CONTOURS_MINEURES
10
60.004
20
151.155
0
VERTEX
8
CONTOURS_MINEURES
10
64.413
20
150.582
0
VERTEX
8
CONTOURS_MINEURES
10
64.997
20
150.329
0
VERTEX
8
CONTOURS_MINEURES
10
65.291
20
150.291
0
VERTEX
8
CONTOURS_MINEURES
10
69.783
20
149.996
0
VERTEX
8
CONTOURS_MINEURES
10
68.333
20
146.665
0
VERTEX
8
CONTOURS_MINEURES
10
64.997
20
146.450
0
VERTEX
8
CONTOURS_MINEURES
10
63.036
20
148.033
0
VERTEX
8
CONTOURS_MINEURES
10
60.004
20
147.022
0
VERTEX
8
CONTOURS_MINEURES
10
58.644
20
148.638
0
VERTEX
8
CONTOURS_MINEURES
10
55.001
20
149.585
0
VERTEX
8
CONTOURS_MINEURES
10
54.777
20
149.773
0
VERTEX
8
CONTOURS_MINEURES
10
54.250
20
149.996
0
VERTEX
8
CONTOURS_MINEURES
10
53.207
20
153.208
0
VERTEX
8
CONTOURS_MINEURES
10
51.605
20
155.004
0
VERTEX
8
CONTOURS_MINEURES
10
53.973
20
156.030
0
SEQEND
0
POLYLINE
8
CONTOURS_MINEURES
66
1
70
0
0
VERTEX
8
CONTOURS_MINEURES
10
98.916
20
170.004
0
VERTEX
8
CONTOURS_MINEURES
10
98.733
20
168.736
0
VERTEX
8
CONTOURS_MINEURES
10
97.292
20
164.996
0
VERTEX
8
CONTOURS_MINEURES
10
94.997
20
161.531
0
VERTEX
8
CONTOURS_MINEURES
10
93.508
20
161.491
0
VERTEX
8
CONTOURS_MINEURES
10
93.328
20
160.000
0
VERTEX
8
CONTOURS_MINEURES
10
91.410
20
156.411
0
VERTEX
8
CONTOURS_MINEURES
10
90.318
20
155.004
0
VERTEX
8
CONTOURS_MINEURES
10
90.192
20
154.815
0
VERTEX
8
CONTOURS_MINEURES
10
90.004
20
154.545
0
VERTEX
8
CONTOURS_MINEURES
10
85.723
20
149.996
0
VERTEX
8
CONTOURS_MINEURES
10
85.001
20
149.419
0
VERTEX
8
CONTOURS_MINEURES
10
83.333
20
148.331
0
VERTEX
8
CONTOURS_MINEURES
10
79.997
20
146.960
0
VERTEX
8
CONTOURS_MINEURES
10
78.000
20
146.998
0
VERTEX
8
CONTOURS_MINEURES
10
76.884
20
145.000
0
VERTEX
8
CONTOURS_MINEURES
10
75.004
20
144.441
0
VERTEX
8
CONTOURS_MINEURES
10
70.970
20
144.032
0
VERTEX
8
CONTOURS_MINEURES
10
70.001
20
143.575
0
VERTEX
8
CONTOURS_MINEURES
10
66.434
20
143.565
0
VERTEX
8
CONTOURS_MINEURES
10
64.997
20
143.080
0
VERTEX
8
CONTOURS_MINEURES
10
62.648
20
142.649
0
VERTEX
8
CONTOURS_MINEURES
10
60.004
20
142.823
0
VERTEX
8
CONTOURS_MINEURES
10
56.176
20
143.826
0
VERTEX
8
CONTOURS_MINEURES
10
55.001
20
143.741
0
VERTEX
8
CONTOURS_MINEURES
10
52.316
20
145.000
0
VERTEX
8
CONTOURS_MINEURES
10
51.057
20
146.058
0
VERTEX
8
CONTOURS_MINEURES
10
49.997
20
146.507
0
VERTEX
8
CONTOURS_MINEURES
10
46.844
20
149.996
0
VERTEX
8
CONTOURS_MINEURES
10
46.488
20
151.485
0
VERTEX
8
CONTOURS_MINEURES
10
45.004
20
154.098
0
VERTEX
8
CONTOURS_MINEURES
10
44.405
20
155.004
0
VERTEX
8
CONTOURS_MINEURES
10
45.004
20
156.702
0
VERTEX
8
CONTOURS_MINEURES
10
46.920
20
160.000
0
VERTEX
8
CONTOURS_MINEURES
10
49.997
20
160.822
0
VERTEX
8
CONTOURS_MINEURES
10
54.891
20
160.109
0
VERTEX
8
CONTOURS_MINEURES
10
55.001
20
160.095
0
VERTEX
8
CONTOURS_MINEURES
10
55.078
20
160.078
0
VERTEX
8
CONTOURS_MINEURES
10
55.152
20
160.000
0
VERTEX
8
CONTOURS_MINEURES
10
57.770
20
157.769
0
VERTEX
8
CONTOURS_MINEURES
10
60.004
20
155.755
0
VERTEX
8
CONTOURS_MINEURES
10
60.438
20
155.438
0
VERTEX
8
CONTOURS_MINEURES
10
61.191
20
155.004
0
VERTEX
8
CONTOURS_MINEURES
10
64.997
20
153.355
0
VERTEX
8
CONTOURS_MINEURES
10
67.967
20
152.968
0
VERTEX
8
CONTOURS_MINEURES
10
70.001
20
152.835
0
VERTEX
8
CONTOURS_MINEURES
10
71.912
20
153.091
0
VERTEX
8
CONTOURS_MINEURES
10
75.004
20
153.641
0
VERTEX
8
CONTOURS_MINEURES
10
76.332
20
153.672
0
VERTEX
8
CONTOURS_MINEURES
10
76.984
20
155.004
0
VERTEX
8
CONTOURS_MINEURES
10
79.997
20
156.952
0
VERTEX
8
CONTOURS_MINEURES
10
83.869
20
160.000
0
VERTEX
8
CONTOURS_MINEURES
10
84.003
20
160.996
0
VERTEX
8
CONTOURS_MINEURES
10
84.777
20
164.996
0
VERTEX
8
CONTOURS_MINEURES
10
84.766
20
165.231
0
VERTEX
8
CONTOURS_MINEURES
10
85.001
20
166.152
0
VERTEX
8
CONTOURS_MINEURES
10
85.679
20
170.004
0
SEQEND
0
POLYLINE
8
CONTOURS_MINEURES
66
1
70
0
0
VERTEX
8
CONTOURS_MINEURES
10
27.996
20
162.991
0
VERTEX
8
CONTOURS_MINEURES
10
27.532
20
160.000
0
VERTEX
8
CONTOURS_MINEURES
10
26.355
20
158.647
0
VERTEX
8
CONTOURS_MINEURES
10
25.128
20
155.004
0
VERTEX
8
CONTOURS_MINEURES
10
25.090
20
154.914
0
VERTEX
8
CONTOURS_MINEURES
10
25.000
20
154.818
0
VERTEX
8
CONTOURS_MINEURES
10
24.565
20
154.568
0
VERTEX
8
CONTOURS_MINEURES
10
24.625
20
155.004
0
VERTEX
8
CONTOURS_MINEURES
10
24.000
20
156.003
0
VERTEX
8
CONTOURS_MINEURES
10
21.098
20
160.000
0
VERTEX
8
CONTOURS_MINEURES
10
24.042
20
160.957
0
VERTEX
8
CONTOURS_MINEURES
10
25.000
20
161.733
0
VERTEX
8
CONTOURS_MINEURES
10
27.996
20
162.991
0
SEQEND
0
POLYLINE
8
CONTOURS_MINEURES
66
1
70
0
0
VERTEX
8
CONTOURS_MINEURES
10
100.690
20
170.004
0
VERTEX
8
CONTOURS_MINEURES
10
100.515
20
169.489
0
VERTEX
8
CONTOURS_MINEURES
10
100.001
20
167.816
0
VERTEX
8
CONTOURS_MINEURES
10
98.914
20
164.996
0
VERTEX
8
CONTOURS_MINEURES
10
96.793
20
161.793
0
VERTEX
8
CONTOURS_MINEURES
10
95.546
20
160.000
0
VERTEX
8
CONTOURS_MINEURES
10
95.274
20
159.723
0
VERTEX
8
CONTOURS_MINEURES
10
94.997
20
159.381
0
VERTEX
8
CONTOURS_MINEURES
10
91.600
20
155.004
0
VERTEX
8
CONTOURS_MINEURES
10
90.958
20
154.047
0
VERTEX
8
CONTOURS_MINEURES
10
90.004
20
152.673
0
VERTEX
8
CONTOURS_MINEURES
10
87.485
20
149.996
0
VERTEX
8
CONTOURS_MINEURES
10
85.001
20
148.012
0
VERTEX
8
CONTOURS_MINEURES
10
80.385
20
145.000
0
VERTEX
8
CONTOURS_MINEURES
10
80.145
20
144.852
0
VERTEX
8
CONTOURS_MINEURES
10
79.997
20
144.820
0
VERTEX
8
CONTOURS_MINEURES
10
79.709
20
144.711
0
VERTEX
8
CONTOURS_MINEURES
10
75.004
20
143.314
0
VERTEX
8
CONTOURS_MINEURES
10
71.995
20
143.008
0
VERTEX
8
CONTOURS_MINEURES
10
70.001
20
142.068
0
VERTEX
8
CONTOURS_MINEURES
10
67.939
20
142.062
0
VERTEX
8
CONTOURS_MINEURES
10
64.997
20
141.069
0
VERTEX
8
CONTOURS_MINEURES
10
60.189
20
140.188
0
VERTEX
8
CONTOURS_MINEURES
10
60.004
20
140.200
0
VERTEX
8
CONTOURS_MINEURES
10
59.737
20
140.270
0
VERTEX
8
CONTOURS_MINEURES
10
56.054
20
140.003
0
VERTEX
8
CONTOURS_MINEURES
10
55.043
20
139.961
0
VERTEX
8
CONTOURS_MINEURES
10
55.001
20
139.945
0
VERTEX
8
CONTOURS_MINEURES
10
54.546
20
140.003
0
VERTEX
8
CONTOURS_MINEURES
10
49.997
20
141.095
0
VERTEX
8
CONTOURS_MINEURES
10
46.707
20
141.707
0
VERTEX
8
CONTOURS_MINEURES
10
45.004
20
143.491
0
VERTEX
8
CONTOURS_MINEURES
10
44.028
20
144.025
0
VERTEX
8
CONTOURS_MINEURES
10
43.098
20
145.000
0
VERTEX
8
CONTOURS_MINEURES
10
40.429
20
149.568
0
VERTEX
8
CONTOURS_MINEURES
10
40.120
20
149.996
0
VERTEX
8
CONTOURS_MINEURES
10
40.000
20
150.189
0
VERTEX
8
CONTOURS_MINEURES
10
37.844
20
152.845
0
VERTEX
8
CONTOURS_MINEURES
10
36.873
20
155.004
0
VERTEX
8
CONTOURS_MINEURES
10
36.426
20
158.572
0
VERTEX
8
CONTOURS_MINEURES
10
39.546
20
160.000
0
VERTEX
8
CONTOURS_MINEURES
10
40.000
20
160.114
0
VERTEX
8
CONTOURS_MINEURES
10
42.172
20
162.828
0
VERTEX
8
CONTOURS_MINEURES
10
45.004
20
163.612
0
VERTEX
8
CONTOURS_MINEURES
10
48.537
20
163.536
0
VERTEX
8
CONTOURS_MINEURES
10
49.997
20
163.926
0
VERTEX
8
CONTOURS_MINEURES
10
51.252
20
163.743
0
VERTEX
8
CONTOURS_MINEURES
10
55.001
20
163.268
0
VERTEX
8
CONTOURS_MINEURES
10
57.671
20
162.666
0
VERTEX
8
CONTOURS_MINEURES
10
60.004
20
160.213
0
VERTEX
8
CONTOURS_MINEURES
10
60.246
20
160.000
0
VERTEX
8
CONTOURS_MINEURES
10
62.992
20
157.994
0
VERTEX
8
CONTOURS_MINEURES
10
64.997
20
156.837
0
VERTEX
8
CONTOURS_MINEURES
10
68.829
20
156.173
0
VERTEX
8
CONTOURS_MINEURES
10
70.001
20
156.140
0
VERTEX
8
CONTOURS_MINEURES
10
73.010
20
156.995
0
VERTEX
8
CONTOURS_MINEURES
10
75.004
20
156.938
0
VERTEX
8
CONTOURS_MINEURES
10
79.250
20
159.253
0
VERTEX
8
CONTOURS_MINEURES
10
79.997
20
159.736
0
VERTEX
8
CONTOURS_MINEURES
10
80.333
20
160.000
0
VERTEX
8
CONTOURS_MINEURES
10
80.886
20
164.109
0
VERTEX
8
CONTOURS_MINEURES
10
81.057
20
164.996
0
VERTEX
8
CONTOURS_MINEURES
10
80.857
20
169.143
0
VERTEX
8
CONTOURS_MINEURES
10
81.076
20
170.004
0
SEQEND
0
POLYLINE
8
CONTOURS_MINEURES
66
1
70
0
0
VERTEX
8
CONTOURS_MINEURES
10
35.998
20
164.996
0
VERTEX
8
CONTOURS_MINEURES
10
34.997
20
162.418
0
VERTEX
8
CONTOURS_MINEURES
10
34.131
20
160.866
0
VERTEX
8
CONTOURS_MINEURES
10
33.978
20
160.000
0
VERTEX
8
CONTOURS_MINEURES
10
30.004
20
155.996
0
VERTEX
8
CONTOURS_MINEURES
10
29.542
20
155.465
0
VERTEX
8
CONTOURS_MINEURES
10
29.387
20
155.004
0
VERTEX
8
CONTOURS_MINEURES
10
28.068
20
151.934
0
VERTEX
8
CONTOURS_MINEURES
10
26.266
20
149.996
0
VERTEX
8
CONTOURS_MINEURES
10
25.864
20
149.134
0
VERTEX
8
CONTOURS_MINEURES
10
25.000
20
148.596
0
VERTEX
8
CONTOURS_MINEURES
10
22.739
20
147.258
0
VERTEX
8
CONTOURS_MINEURES
10
19.997
20
145.433
0
VERTEX
8
CONTOURS_MINEURES
10
19.624
20
145.373
0
VERTEX
8
CONTOURS_MINEURES
10
19.373
20
145.000
0
VERTEX
8
CONTOURS_MINEURES
10
18.226
20
141.775
0
VERTEX
8
CONTOURS_MINEURES
10
18.062
20
140.003
0
VERTEX
8
CONTOURS_MINEURES
10
19.245
20
135.750
0
VERTEX
8
CONTOURS_MINEURES
10
19.459
20
134.996
0
VERTEX
8
CONTOURS_MINEURES
10
19.552
20
134.550
0
VERTEX
8
CONTOURS_MINEURES
10
19.997
20
133.406
0
VERTEX
8
CONTOURS_MINEURES
10
20.869
20
129.999
0
VERTEX
8
CONTOURS_MINEURES
10
21.280
20
126.285
0
VERTEX
8
CONTOURS_MINEURES
10
21.036
20
125.003
0
VERTEX
8
CONTOURS_MINEURES
10
20.901
20
124.098
0
VERTEX
8
CONTOURS_MINEURES
10
20.761
20
119.996
0
VERTEX
8
CONTOURS_MINEURES
10
21.644
20
116.645
0
VERTEX
8
CONTOURS_MINEURES
10
22.378
20
114.999
0
VERTEX
8
CONTOURS_MINEURES
10
24.781
20
110.222
0
VERTEX
8
CONTOURS_MINEURES
10
24.648
20
110.003
0
VERTEX
8
CONTOURS_MINEURES
10
19.997
20
107.608
0
VERTEX
8
CONTOURS_MINEURES
10
18.570
20
110.003
0
VERTEX
8
CONTOURS_MINEURES
10
18.011
20
113.012
0
VERTEX
8
CONTOURS_MINEURES
10
16.109
20
114.999
0
VERTEX
8
CONTOURS_MINEURES
10
15.536
20
119.463
0
VERTEX
8
CONTOURS_MINEURES
10
16.229
20
119.996
0
VERTEX
8
CONTOURS_MINEURES
10
15.004
20
120.582
0
VERTEX
8
CONTOURS_MINEURES
10
13.790
20
123.788
0
VERTEX
8
CONTOURS_MINEURES
10
11.713
20
125.003
0
VERTEX
8
CONTOURS_MINEURES
10
10.000
20
126.290
0
VERTEX
8
CONTOURS_MINEURES
10
6.430
20
129.999
0
VERTEX
8
CONTOURS_MINEURES
10
6.178
20
131.179
0
VERTEX
8
CONTOURS_MINEURES
10
4.997
20
131.452
0
VERTEX
8
CONTOURS_MINEURES
10
3.172
20
134.996
0
VERTEX
8
CONTOURS_MINEURES
10
2.098
20
137.903
0
VERTEX
8
CONTOURS_MINEURES
10
1.735
20
140.003
0
VERTEX
8
CONTOURS_MINEURES
10
2.301
20
142.303
0
VERTEX
8
CONTOURS_MINEURES
10
3.966
20
145.000
0
VERTEX
8
CONTOURS_MINEURES
10
4.667
20
145.329
0
VERTEX
8
CONTOURS_MINEURES
10
4.997
20
145.730
0
VERTEX
8
CONTOURS_MINEURES
10
9.890
20
149.996
0
VERTEX
8
CONTOURS_MINEURES
10
10.000
20
150.059
0
VERTEX
8
CONTOURS_MINEURES
10
14.434
20
150.566
0
VERTEX
8
CONTOURS_MINEURES
10
15.004
20
151.609
0
VERTEX
8
CONTOURS_MINEURES
10
18.644
20
155.004
0
VERTEX
8
CONTOURS_MINEURES
10
18.290
20
158.293
0
VERTEX
8
CONTOURS_MINEURES
10
18.969
20
160.000
0
VERTEX
8
CONTOURS_MINEURES
10
19.997
20
162.625
0
VERTEX
8
CONTOURS_MINEURES
10
21.789
20
163.207
0
VERTEX
8
CONTOURS_MINEURES
10
23.995
20
164.996
0
VERTEX
8
CONTOURS_MINEURES
10
25.000
20
165.221
0
VERTEX
8
CONTOURS_MINEURES
10
29.285
20
165.716
0
VERTEX
8
CONTOURS_MINEURES
10
30.004
20
166.088
0
VERTEX
8
CONTOURS_MINEURES
10
31.745
20
166.743
0
VERTEX
8
CONTOURS_MINEURES
10
34.997
20
165.532
0
VERTEX
8
CONTOURS_MINEURES
10
35.998
20
164.996
0
SEQEND
0
POLYLINE
8
CONTOURS_MINEURES
66
1
70
0
0
VERTEX
8
CONTOURS_MINEURES
10
25.332
20
95.333
0
VERTEX
8
CONTOURS_MINEURES
10
25.429
20
95.002
0
VERTEX
8
CONTOURS_MINEURES
10
25.208
20
94.795
0
VERTEX
8
CONTOURS_MINEURES
10
25.000
20
93.594
0
VERTEX
8
CONTOURS_MINEURES
10
24.802
20
95.002
0
VERTEX
8
CONTOURS_MINEURES
10
24.712
20
95.291
0
VERTEX
8
CONTOURS_MINEURES
10
23.499
20
99.999
0
VERTEX
8
CONTOURS_MINEURES
10
24.152
20
104.148
0
VERTEX
8
CONTOURS_MINEURES
10
23.529
20
104.995
0
VERTEX
8
CONTOURS_MINEURES
10
25.000
20
109.287
0
VERTEX
8
CONTOURS_MINEURES
10
25.429
20
104.995
0
VERTEX
8
CONTOURS_MINEURES
10
25.823
20
100.821
0
VERTEX
8
CONTOURS_MINEURES
10
26.659
20
99.999
0
VERTEX
8
CONTOURS_MINEURES
10
25.332
20
95.333
0
SEQEND
0
POLYLINE
8
CONTOURS_MINEURES
66
1
70
0
0
VERTEX
8
CONTOURS_MINEURES
10
102.015
20
170.004
0
VERTEX
8
CONTOURS_MINEURES
10
101.505
20
168.498
0
VERTEX
8
CONTOURS_MINEURES
10
100.428
20
164.996
0
VERTEX
8
CONTOURS_MINEURES
10
100.304
20
164.693
0
VERTEX
8
CONTOURS_MINEURES
10
100.001
20
164.302
0
VERTEX
8
CONTOURS_MINEURES
10
97.009
20
160.000
0
VERTEX
8
CONTOURS_MINEURES
10
96.013
20
158.986
0
VERTEX
8
CONTOURS_MINEURES
10
94.997
20
157.729
0
VERTEX
8
CONTOURS_MINEURES
10
92.882
20
155.004
0
VERTEX
8
CONTOURS_MINEURES
10
91.723
20
153.279
0
VERTEX
8
CONTOURS_MINEURES
10
90.004
20
150.801
0
VERTEX
8
CONTOURS_MINEURES
10
89.247
20
149.996
0
VERTEX
8
CONTOURS_MINEURES
10
85.001
20
146.604
0
VERTEX
8
CONTOURS_MINEURES
10
82.542
20
145.000
0
VERTEX
8
CONTOURS_MINEURES
10
80.970
20
144.028
0
VERTEX
8
CONTOURS_MINEURES
10
79.997
20
143.821
0
VERTEX
8
CONTOURS_MINEURES
10
78.106
20
143.107
0
VERTEX
8
CONTOURS_MINEURES
10
75.004
20
142.186
0
VERTEX
8
CONTOURS_MINEURES
10
73.020
20
141.984
0
VERTEX
8
CONTOURS_MINEURES
10
70.001
20
140.561
0
VERTEX
8
CONTOURS_MINEURES
10
69.444
20
140.559
0
VERTEX
8
CONTOURS_MINEURES
10
67.797
20
140.003
0
VERTEX
8
CONTOURS_MINEURES
10
64.997
20
139.130
0
VERTEX
8
CONTOURS_MINEURES
10
63.711
20
138.714
0
VERTEX
8
CONTOURS_MINEURES
10
60.004
20
137.972
0
VERTEX
8
CONTOURS_MINEURES
10
57.149
20
137.853
0
VERTEX
8
CONTOURS_MINEURES
10
55.001
20
137.034
0
VERTEX
8
CONTOURS_MINEURES
10
52.666
20
137.333
0
VERTEX
8
CONTOURS_MINEURES
10
49.997
20
136.057
0
VERTEX
8
CONTOURS_MINEURES
10
45.524
20
134.996
0
VERTEX
8
CONTOURS_MINEURES
10
45.004
20
134.811
0
VERTEX
8
CONTOURS_MINEURES
10
43.080
20
134.996
0
VERTEX
8
CONTOURS_MINEURES
10
40.000
20
135.523
0
VERTEX
8
CONTOURS_MINEURES
10
37.278
20
137.279
0
VERTEX
8
CONTOURS_MINEURES
10
36.177
20
140.003
0
VERTEX
8
CONTOURS_MINEURES
10
34.997
20
141.593
0
VERTEX
8
CONTOURS_MINEURES
10
32.581
20
142.582
0
VERTEX
8
CONTOURS_MINEURES
10
30.985
20
145.000
0
VERTEX
8
CONTOURS_MINEURES
10
30.494
20
145.490
0
VERTEX
8
CONTOURS_MINEURES
10
30.004
20
145.678
0
VERTEX
8
CONTOURS_MINEURES
10
29.788
20
145.215
0
VERTEX
8
CONTOURS_MINEURES
10
29.442
20
145.000
0
VERTEX
8
CONTOURS_MINEURES
10
28.225
20
141.780
0
VERTEX
8
CONTOURS_MINEURES
10
27.002
20
140.003
0
VERTEX
8
CONTOURS_MINEURES
10
27.528
20
137.525
0
VERTEX
8
CONTOURS_MINEURES
10
27.250
20
134.996
0
VERTEX
8
CONTOURS_MINEURES
10
27.460
20
132.455
0
VERTEX
8
CONTOURS_MINEURES
10
27.341
20
129.999
0
VERTEX
8
CONTOURS_MINEURES
10
26.604
20
128.398
0
VERTEX
8
CONTOURS_MINEURES
10
25.479
20
125.003
0
VERTEX
8
CONTOURS_MINEURES
10
25.000
20
123.143
0
VERTEX
8
CONTOURS_MINEURES
10
24.594
20
120.402
0
VERTEX
8
CONTOURS_MINEURES
10
24.580
20
119.996
0
VERTEX
8
CONTOURS_MINEURES
10
24.668
20
119.664
0
VERTEX
8
CONTOURS_MINEURES
10
25.000
20
118.918
0
VERTEX
8
CONTOURS_MINEURES
10
25.850
20
114.999
0
VERTEX
8
CONTOURS_MINEURES
10
26.665
20
111.665
0
VERTEX
8
CONTOURS_MINEURES
10
27.126
20
110.003
0
VERTEX
8
CONTOURS_MINEURES
10
28.098
20
106.903
0
VERTEX
8
CONTOURS_MINEURES
10
28.288
20
104.995
0
VERTEX
8
CONTOURS_MINEURES
10
28.436
20
103.430
0
VERTEX
8
CONTOURS_MINEURES
10
30.004
20
101.889
0
VERTEX
8
CONTOURS_MINEURES
10
30.675
20
99.999
0
VERTEX
8
CONTOURS_MINEURES
10
30.909
20
95.908
0
VERTEX
8
CONTOURS_MINEURES
10
30.899
20
95.002
0
VERTEX
8
CONTOURS_MINEURES
10
30.004
20
90.353
0
VERTEX
8
CONTOURS_MINEURES
10
29.820
20
90.180
0
VERTEX
8
CONTOURS_MINEURES
10
29.788
20
89.995
0
VERTEX
8
CONTOURS_MINEURES
10
29.718
20
89.710
0
VERTEX
8
CONTOURS_MINEURES
10
27.368
20
84.999
0
VERTEX
8
CONTOURS_MINEURES
10
26.926
20
81.926
0
VERTEX
8
CONTOURS_MINEURES
10
27.093
20
80.002
0
VERTEX
8
CONTOURS_MINEURES
10
26.421
20
78.580
0
VERTEX
8
CONTOURS_MINEURES
10
26.454
20
74.995
0
VERTEX
8
CONTOURS_MINEURES
10
26.692
20
73.306
0
VERTEX
8
CONTOURS_MINEURES
10
27.291
20
69.998
0
VERTEX
8
CONTOURS_MINEURES
10
26.042
20
68.958
0
VERTEX
8
CONTOURS_MINEURES
10
25.058
20
65.002
0
VERTEX
8
CONTOURS_MINEURES
10
25.028
20
64.974
0
VERTEX
8
CONTOURS_MINEURES
10
25.000
20
64.934
0
VERTEX
8
CONTOURS_MINEURES
10
24.598
20
64.599
0
VERTEX
8
CONTOURS_MINEURES
10
19.997
20
61.858
0
VERTEX
8
CONTOURS_MINEURES
10
17.778
20
62.220
0
VERTEX
8
CONTOURS_MINEURES
10
15.004
20
60.450
0
VERTEX
8
CONTOURS_MINEURES
10
14.448
20
60.551
0
VERTEX
8
CONTOURS_MINEURES
10
10.000
20
61.518
0
VERTEX
8
CONTOURS_MINEURES
10
8.283
20
61.713
0
VERTEX
8
CONTOURS_MINEURES
10
4.997
20
62.944
0
VERTEX
8
CONTOURS_MINEURES
10
3.299
20
63.299
0
VERTEX
8
CONTOURS_MINEURES
10
0.004
20
63.476
0
SEQEND
0
POLYLINE
8
CONTOURS_MINEURES
66
1
70
0
0
VERTEX
8
CONTOURS_MINEURES
10
0.004
20
141.317
0
VERTEX
8
CONTOURS_MINEURES
10
2.276
20
145.000
0
VERTEX
8
CONTOURS_MINEURES
10
4.127
20
145.870
0
VERTEX
8
CONTOURS_MINEURES
10
4.997
20
146.926
0
VERTEX
8
CONTOURS_MINEURES
10
8.518
20
149.996
0
VERTEX
8
CONTOURS_MINEURES
10
10.000
20
150.848
0
VERTEX
8
CONTOURS_MINEURES
10
13.726
20
151.275
0
VERTEX
8
CONTOURS_MINEURES
10
15.004
20
153.612
0
VERTEX
8
CONTOURS_MINEURES
10
16.496
20
155.004
0
VERTEX
8
CONTOURS_MINEURES
10
16.352
20
156.352
0
VERTEX
8
CONTOURS_MINEURES
10
17.801
20
160.000
0
VERTEX
8
CONTOURS_MINEURES
10
19.603
20
164.602
0
VERTEX
8
CONTOURS_MINEURES
10
19.729
20
164.996
0
VERTEX
8
CONTOURS_MINEURES
10
19.872
20
165.121
0
VERTEX
8
CONTOURS_MINEURES
10
19.997
20
165.196
0
VERTEX
8
CONTOURS_MINEURES
10
20.293
20
165.293
0
VERTEX
8
CONTOURS_MINEURES
10
25.000
20
166.344
0
VERTEX
8
CONTOURS_MINEURES
10
28.279
20
166.723
0
VERTEX
8
CONTOURS_MINEURES
10
30.004
20
167.615
0
VERTEX
8
CONTOURS_MINEURES
10
34.181
20
169.186
0
VERTEX
8
CONTOURS_MINEURES
10
34.997
20
168.882
0
VERTEX
8
CONTOURS_MINEURES
10
37.409
20
167.590
0
VERTEX
8
CONTOURS_MINEURES
10
40.000
20
166.884
0
VERTEX
8
CONTOURS_MINEURES
10
41.397
20
166.394
0
VERTEX
8
CONTOURS_MINEURES
10
45.004
20
167.111
0
VERTEX
8
CONTOURS_MINEURES
10
47.337
20
167.337
0
VERTEX
8
CONTOURS_MINEURES
10
49.997
20
167.290
0
VERTEX
8
CONTOURS_MINEURES
10
53.150
20
166.849
0
VERTEX
8
CONTOURS_MINEURES
10
55.001
20
166.895
0
VERTEX
8
CONTOURS_MINEURES
10
56.955
20
166.952
0
VERTEX
8
CONTOURS_MINEURES
10
60.004
20
165.615
0
VERTEX
8
CONTOURS_MINEURES
10
61.668
20
164.996
0
VERTEX
8
CONTOURS_MINEURES
10
64.997
20
162.589
0
VERTEX
8
CONTOURS_MINEURES
10
69.216
20
164.213
0
VERTEX
8
CONTOURS_MINEURES
10
70.001
20
164.108
0
VERTEX
8
CONTOURS_MINEURES
10
71.741
20
164.996
0
VERTEX
8
CONTOURS_MINEURES
10
70.728
20
165.725
0
VERTEX
8
CONTOURS_MINEURES
10
71.869
20
170.004
0
SEQEND
0
POLYLINE
8
CONTOURS_MINEURES
66
1
70
0
0
VERTEX
8
CONTOURS_MINEURES
10
0.004
20
73.995
0
VERTEX
8
CONTOURS_MINEURES
10
1.502
20
73.496
0
VERTEX
8
CONTOURS_MINEURES
10
4.997
20
72.255
0
VERTEX
8
CONTOURS_MINEURES
10
8.442
20
69.998
0
VERTEX
8
CONTOURS_MINEURES
10
8.895
20
68.894
0
VERTEX
8
CONTOURS_MINEURES
10
10.000
20
69.039
0
VERTEX
8
CONTOURS_MINEURES
10
13.364
20
68.361
0
VERTEX
8
CONTOURS_MINEURES
10
15.004
20
68.596
0
VERTEX
8
CONTOURS_MINEURES
10
16.123
20
68.878
0
VERTEX
8
CONTOURS_MINEURES
10
17.242
20
69.998
0
VERTEX
8
CONTOURS_MINEURES
10
18.912
20
71.084
0
VERTEX
8
CONTOURS_MINEURES
10
19.997
20
72.219
0
VERTEX
8
CONTOURS_MINEURES
10
21.934
20
74.995
0
VERTEX
8
CONTOURS_MINEURES
10
21.972
20
76.971
0
VERTEX
8
CONTOURS_MINEURES
10
21.804
20
80.002
0
VERTEX
8
CONTOURS_MINEURES
10
21.459
20
83.538
0
VERTEX
8
CONTOURS_MINEURES
10
21.115
20
84.999
0
VERTEX
8
CONTOURS_MINEURES
10
20.923
20
89.070
0
VERTEX
8
CONTOURS_MINEURES
10
20.722
20
89.995
0
VERTEX
8
CONTOURS_MINEURES
10
20.459
20
94.540
0
VERTEX
8
CONTOURS_MINEURES
10
20.394
20
95.002
0
VERTEX
8
CONTOURS_MINEURES
10
19.997
20
96.269
0
VERTEX
8
CONTOURS_MINEURES
10
19.103
20
99.104
0
VERTEX
8
CONTOURS_MINEURES
10
19.207
20
99.999
0
VERTEX
8
CONTOURS_MINEURES
10
18.718
20
101.278
0
VERTEX
8
CONTOURS_MINEURES
10
17.731
20
104.995
0
VERTEX
8
CONTOURS_MINEURES
10
15.004
20
109.075
0
VERTEX
8
CONTOURS_MINEURES
10
14.455
20
110.003
0
VERTEX
8
CONTOURS_MINEURES
10
13.137
20
113.135
0
VERTEX
8
CONTOURS_MINEURES
10
12.830
20
114.999
0
VERTEX
8
CONTOURS_MINEURES
10
11.929
20
118.070
0
VERTEX
8
CONTOURS_MINEURES
10
11.810
20
119.996
0
VERTEX
8
CONTOURS_MINEURES
10
11.313
20
121.309
0
VERTEX
8
CONTOURS_MINEURES
10
10.000
20
122.077
0
VERTEX
8
CONTOURS_MINEURES
10
7.788
20
125.003
0
VERTEX
8
CONTOURS_MINEURES
10
4.997
20
127.858
0
VERTEX
8
CONTOURS_MINEURES
10
4.069
20
129.071
0
VERTEX
8
CONTOURS_MINEURES
10
3.505
20
129.999
0
VERTEX
8
CONTOURS_MINEURES
10
1.311
20
133.688
0
VERTEX
8
CONTOURS_MINEURES
10
0.637
20
134.996
0
VERTEX
8
CONTOURS_MINEURES
10
0.004
20
136.711
0
SEQEND
0
POLYLINE
8
CONTOURS_MINEURES
66
1
70
0
0
VERTEX
8
CONTOURS_MINEURES
10
103.341
20
170.004
0
VERTEX
8
CONTOURS_MINEURES
10
102.495
20
167.508
0
VERTEX
8
CONTOURS_MINEURES
10
101.723
20
164.996
0
VERTEX
8
CONTOURS_MINEURES
10
101.224
20
163.775
0
VERTEX
8
CONTOURS_MINEURES
10
100.001
20
162.198
0
VERTEX
8
CONTOURS_MINEURES
10
98.472
20
160.000
0
VERTEX
8
CONTOURS_MINEURES
10
96.751
20
158.249
0
VERTEX
8
CONTOURS_MINEURES
10
94.997
20
156.077
0
VERTEX
8
CONTOURS_MINEURES
10
94.164
20
155.004
0
VERTEX
8
CONTOURS_MINEURES
10
92.489
20
152.511
0
VERTEX
8
CONTOURS_MINEURES
10
90.744
20
149.996
0
VERTEX
8
CONTOURS_MINEURES
10
90.004
20
149.016
0
VERTEX
8
CONTOURS_MINEURES
10
85.987
20
145.985
0
VERTEX
8
CONTOURS_MINEURES
10
85.001
20
145.197
0
VERTEX
8
CONTOURS_MINEURES
10
84.699
20
145.000
0
VERTEX
8
CONTOURS_MINEURES
10
81.794
20
143.205
0
VERTEX
8
CONTOURS_MINEURES
10
79.997
20
142.821
0
VERTEX
8
CONTOURS_MINEURES
10
76.503
20
141.503
0
VERTEX
8
CONTOURS_MINEURES
10
75.004
20
141.058
0
VERTEX
8
CONTOURS_MINEURES
10
74.046
20
140.961
0
VERTEX
8
CONTOURS_MINEURES
10
72.015
20
140.003
0
VERTEX
8
CONTOURS_MINEURES
10
70.001
20
139.047
0
VERTEX
8
CONTOURS_MINEURES
10
68.301
20
138.303
0
VERTEX
8
CONTOURS_MINEURES
10
64.997
20
137.272
0
VERTEX
8
CONTOURS_MINEURES
10
60.975
20
135.970
0
VERTEX
8
CONTOURS_MINEURES
10
60.004
20
135.776
0
VERTEX
8
CONTOURS_MINEURES
10
59.256
20
135.744
0
VERTEX
8
CONTOURS_MINEURES
10
57.292
20
134.996
0
VERTEX
8
CONTOURS_MINEURES
10
55.001
20
134.035
0
VERTEX
8
CONTOURS_MINEURES
10
51.918
20
133.078
0
VERTEX
8
CONTOURS_MINEURES
10
49.997
20
131.206
0
VERTEX
8
CONTOURS_MINEURES
10
47.917
20
129.999
0
VERTEX
8
CONTOURS_MINEURES
10
45.004
20
128.600
0
VERTEX
8
CONTOURS_MINEURES
10
41.753
20
128.250
0
VERTEX
8
CONTOURS_MINEURES
10
40.000
20
126.893
0
VERTEX
8
CONTOURS_MINEURES
10
38.120
20
126.881
0
VERTEX
8
CONTOURS_MINEURES
10
35.388
20
125.003
0
VERTEX
8
CONTOURS_MINEURES
10
35.111
20
124.889
0
VERTEX
8
CONTOURS_MINEURES
10
34.997
20
124.734
0
VERTEX
8
CONTOURS_MINEURES
10
32.334
20
122.666
0
VERTEX
8
CONTOURS_MINEURES
10
30.004
20
120.622
0
VERTEX
8
CONTOURS_MINEURES
10
29.713
20
119.996
0
VERTEX
8
CONTOURS_MINEURES
10
27.414
20
117.585
0
VERTEX
8
CONTOURS_MINEURES
10
27.975
20
114.999
0
VERTEX
8
CONTOURS_MINEURES
10
28.373
20
113.371
0
VERTEX
8
CONTOURS_MINEURES
10
29.306
20
110.003
0
VERTEX
8
CONTOURS_MINEURES
10
30.004
20
107.777
0
VERTEX
8
CONTOURS_MINEURES
10
30.621
20
105.614
0
VERTEX
8
CONTOURS_MINEURES
10
30.763
20
104.995
0
VERTEX
8
CONTOURS_MINEURES
10
31.145
20
103.853
0
VERTEX
8
CONTOURS_MINEURES
10
32.514
20
99.999
0
VERTEX
8
CONTOURS_MINEURES
10
32.648
20
97.649
0
VERTEX
8
CONTOURS_MINEURES
10
32.621
20
95.002
0
VERTEX
8
CONTOURS_MINEURES
10
32.052
20
92.049
0
VERTEX
8
CONTOURS_MINEURES
10
31.373
20
89.995
0
VERTEX
8
CONTOURS_MINEURES
10
30.854
20
89.145
0
VERTEX
8
CONTOURS_MINEURES
10
30.272
20
84.999
0
VERTEX
8
CONTOURS_MINEURES
10
30.219
20
84.783
0
VERTEX
8
CONTOURS_MINEURES
10
30.292
20
80.002
0
VERTEX
8
CONTOURS_MINEURES
10
30.004
20
76.536
0
VERTEX
8
CONTOURS_MINEURES
10
29.510
20
75.489
0
VERTEX
8
CONTOURS_MINEURES
10
29.514
20
74.995
0
VERTEX
8
CONTOURS_MINEURES
10
30.004
20
71.519
0
VERTEX
8
CONTOURS_MINEURES
10
30.070
20
69.998
0
VERTEX
8
CONTOURS_MINEURES
10
30.062
20
69.941
0
VERTEX
8
CONTOURS_MINEURES
10
30.004
20
69.828
0
VERTEX
8
CONTOURS_MINEURES
10
27.369
20
67.633
0
VERTEX
8
CONTOURS_MINEURES
10
26.715
20
65.002
0
VERTEX
8
CONTOURS_MINEURES
10
25.826
20
64.175
0
VERTEX
8
CONTOURS_MINEURES
10
25.000
20
62.997
0
VERTEX
8
CONTOURS_MINEURES
10
21.393
20
59.994
0
VERTEX
8
CONTOURS_MINEURES
10
20.445
20
59.547
0
VERTEX
8
CONTOURS_MINEURES
10
19.997
20
59.269
0
VERTEX
8
CONTOURS_MINEURES
10
18.265
20
58.262
0
VERTEX
8
CONTOURS_MINEURES
10
15.004
20
57.712
0
VERTEX
8
CONTOURS_MINEURES
10
12.112
20
57.886
0
VERTEX
8
CONTOURS_MINEURES
10
10.000
20
57.102
0
VERTEX
8
CONTOURS_MINEURES
10
7.707
20
57.704
0
VERTEX
8
CONTOURS_MINEURES
10
4.997
20
58.257
0
VERTEX
8
CONTOURS_MINEURES
10
3.404
20
58.401
0
VERTEX
8
CONTOURS_MINEURES
10
0.004
20
58.797
0
SEQEND
0
POLYLINE
8
CONTOURS_MINEURES
66
1
70
0
0
VERTEX
8
CONTOURS_MINEURES
10
0.004
20
144.055
0
VERTEX
8
CONTOURS_MINEURES
10
0.587
20
145.000
0
VERTEX
8
CONTOURS_MINEURES
10
3.587
20
146.410
0
VERTEX
8
CONTOURS_MINEURES
10
4.997
20
148.123
0
VERTEX
8
CONTOURS_MINEURES
10
7.145
20
149.996
0
VERTEX
8
CONTOURS_MINEURES
10
10.000
20
151.638
0
VERTEX
8
CONTOURS_MINEURES
10
13.019
20
151.983
0
VERTEX
8
CONTOURS_MINEURES
10
14.670
20
155.004
0
VERTEX
8
CONTOURS_MINEURES
10
15.004
20
155.900
0
VERTEX
8
CONTOURS_MINEURES
10
16.633
20
160.000
0
VERTEX
8
CONTOURS_MINEURES
10
17.683
20
162.681
0
VERTEX
8
CONTOURS_MINEURES
10
18.424
20
164.996
0
VERTEX
8
CONTOURS_MINEURES
10
19.265
20
165.730
0
VERTEX
8
CONTOURS_MINEURES
10
19.997
20
166.170
0
VERTEX
8
CONTOURS_MINEURES
10
21.737
20
166.738
0
VERTEX
8
CONTOURS_MINEURES
10
25.000
20
167.466
0
VERTEX
8
CONTOURS_MINEURES
10
27.273
20
167.729
0
VERTEX
8
CONTOURS_MINEURES
10
30.004
20
169.141
0
VERTEX
8
CONTOURS_MINEURES
10
32.297
20
170.004
0
SEQEND
0
POLYLINE
8
CONTOURS_MINEURES
66
1
70
0
0
VERTEX
8
CONTOURS_MINEURES
10
0.004
20
78.684
0
VERTEX
8
CONTOURS_MINEURES
10
1.520
20
78.481
0
VERTEX
8
CONTOURS_MINEURES
10
4.997
20
78.881
0
VERTEX
8
CONTOURS_MINEURES
10
8.210
20
78.211
0
VERTEX
8
CONTOURS_MINEURES
10
10.000
20
77.268
0
VERTEX
8
CONTOURS_MINEURES
10
13.776
20
76.224
0
VERTEX
8
CONTOURS_MINEURES
10
15.004
20
76.983
0
VERTEX
8
CONTOURS_MINEURES
10
16.087
20
80.002
0
VERTEX
8
CONTOURS_MINEURES
10
16.012
20
81.011
0
VERTEX
8
CONTOURS_MINEURES
10
16.402
20
84.999
0
VERTEX
8
CONTOURS_MINEURES
10
15.993
20
89.006
0
VERTEX
8
CONTOURS_MINEURES
10
15.955
20
89.995
0
VERTEX
8
CONTOURS_MINEURES
10
16.012
20
93.992
0
VERTEX
8
CONTOURS_MINEURES
10
15.958
20
95.002
0
VERTEX
8
CONTOURS_MINEURES
10
15.729
20
95.728
0
VERTEX
8
CONTOURS_MINEURES
10
16.226
20
99.999
0
VERTEX
8
CONTOURS_MINEURES
10
15.004
20
103.200
0
VERTEX
8
CONTOURS_MINEURES
10
14.237
20
104.229
0
VERTEX
8
CONTOURS_MINEURES
10
14.068
20
104.995
0
VERTEX
8
CONTOURS_MINEURES
10
13.233
20
106.767
0
VERTEX
8
CONTOURS_MINEURES
10
11.318
20
110.003
0
VERTEX
8
CONTOURS_MINEURES
10
10.928
20
110.929
0
VERTEX
8
CONTOURS_MINEURES
10
10.258
20
114.999
0
VERTEX
8
CONTOURS_MINEURES
10
10.000
20
115.876
0
VERTEX
8
CONTOURS_MINEURES
10
8.946
20
118.943
0
VERTEX
8
CONTOURS_MINEURES
10
8.756
20
119.996
0
VERTEX
8
CONTOURS_MINEURES
10
4.997
20
124.800
0
VERTEX
8
CONTOURS_MINEURES
10
4.857
20
125.003
0
VERTEX
8
CONTOURS_MINEURES
10
2.754
20
127.755
0
VERTEX
8
CONTOURS_MINEURES
10
1.390
20
129.999
0
VERTEX
8
CONTOURS_MINEURES
10
0.004
20
132.329
0
SEQEND
0
POLYLINE
8
CONTOURS_MINEURES
66
1
70
0
0
VERTEX
8
CONTOURS_MINEURES
10
104.666
20
170.004
0
VERTEX
8
CONTOURS_MINEURES
10
103.485
20
166.517
0
VERTEX
8
CONTOURS_MINEURES
10
103.017
20
164.996
0
VERTEX
8
CONTOURS_MINEURES
10
102.144
20
162.856
0
VERTEX
8
CONTOURS_MINEURES
10
100.001
20
160.095
0
VERTEX
8
CONTOURS_MINEURES
10
99.935
20
160.000
0
VERTEX
8
CONTOURS_MINEURES
10
97.490
20
157.511
0
VERTEX
8
CONTOURS_MINEURES
10
95.464
20
155.004
0
VERTEX
8
CONTOURS_MINEURES
10
94.997
20
154.336
0
VERTEX
8
CONTOURS_MINEURES
10
93.255
20
151.743
0
VERTEX
8
CONTOURS_MINEURES
10
92.043
20
149.996
0
VERTEX
8
CONTOURS_MINEURES
10
90.004
20
147.296
0
VERTEX
8
CONTOURS_MINEURES
10
86.961
20
145.000
0
VERTEX
8
CONTOURS_MINEURES
10
85.993
20
144.009
0
VERTEX
8
CONTOURS_MINEURES
10
85.001
20
143.854
0
VERTEX
8
CONTOURS_MINEURES
10
82.618
20
142.382
0
VERTEX
8
CONTOURS_MINEURES
10
79.997
20
141.822
0
VERTEX
8
CONTOURS_MINEURES
10
75.176
20
140.003
0
VERTEX
8
CONTOURS_MINEURES
10
75.073
20
139.934
0
VERTEX
8
CONTOURS_MINEURES
10
75.004
20
139.908
0
VERTEX
8
CONTOURS_MINEURES
10
74.817
20
139.816
0
VERTEX
8
CONTOURS_MINEURES
10
70.001
20
137.530
0
VERTEX
8
CONTOURS_MINEURES
10
65.604
20
135.603
0
VERTEX
8
CONTOURS_MINEURES
10
64.997
20
135.414
0
VERTEX
8
CONTOURS_MINEURES
10
63.706
20
134.996
0
VERTEX
8
CONTOURS_MINEURES
10
61.043
20
133.956
0
VERTEX
8
CONTOURS_MINEURES
10
60.004
20
133.607
0
VERTEX
8
CONTOURS_MINEURES
10
56.438
20
131.435
0
VERTEX
8
CONTOURS_MINEURES
10
55.001
20
130.832
0
VERTEX
8
CONTOURS_MINEURES
10
54.364
20
130.635
0
VERTEX
8
CONTOURS_MINEURES
10
53.712
20
129.999
0
VERTEX
8
CONTOURS_MINEURES
10
49.997
20
127.450
0
VERTEX
8
CONTOURS_MINEURES
10
45.613
20
125.003
0
VERTEX
8
CONTOURS_MINEURES
10
45.004
20
124.495
0
VERTEX
8
CONTOURS_MINEURES
10
42.219
20
122.783
0
VERTEX
8
CONTOURS_MINEURES
10
40.000
20
120.448
0
VERTEX
8
CONTOURS_MINEURES
10
39.681
20
120.316
0
VERTEX
8
CONTOURS_MINEURES
10
39.445
20
119.996
0
VERTEX
8
CONTOURS_MINEURES
10
34.997
20
118.682
0
VERTEX
8
CONTOURS_MINEURES
10
30.143
20
114.999
0
VERTEX
8
CONTOURS_MINEURES
10
30.124
20
114.880
0
VERTEX
8
CONTOURS_MINEURES
10
31.354
20
110.003
0
VERTEX
8
CONTOURS_MINEURES
10
32.165
20
107.162
0
VERTEX
8
CONTOURS_MINEURES
10
32.662
20
104.995
0
VERTEX
8
CONTOURS_MINEURES
10
33.998
20
100.998
0
VERTEX
8
CONTOURS_MINEURES
10
34.353
20
99.999
0
VERTEX
8
CONTOURS_MINEURES
10
34.388
20
99.390
0
VERTEX
8
CONTOURS_MINEURES
10
34.343
20
95.002
0
VERTEX
8
CONTOURS_MINEURES
10
34.186
20
94.189
0
VERTEX
8
CONTOURS_MINEURES
10
32.800
20
89.995
0
VERTEX
8
CONTOURS_MINEURES
10
31.739
20
88.259
0
VERTEX
8
CONTOURS_MINEURES
10
31.281
20
84.999
0
VERTEX
8
CONTOURS_MINEURES
10
31.033
20
83.969
0
VERTEX
8
CONTOURS_MINEURES
10
31.093
20
80.002
0
VERTEX
8
CONTOURS_MINEURES
10
30.738
20
75.731
0
VERTEX
8
CONTOURS_MINEURES
10
30.624
20
74.995
0
VERTEX
8
CONTOURS_MINEURES
10
30.830
20
74.169
0
VERTEX
8
CONTOURS_MINEURES
10
31.010
20
69.998
0
VERTEX
8
CONTOURS_MINEURES
10
30.884
20
69.118
0
VERTEX
8
CONTOURS_MINEURES
10
30.004
20
67.397
0
VERTEX
8
CONTOURS_MINEURES
10
28.697
20
66.307
0
VERTEX
8
CONTOURS_MINEURES
10
28.372
20
65.002
0
VERTEX
8
CONTOURS_MINEURES
10
26.624
20
63.377
0
VERTEX
8
CONTOURS_MINEURES
10
25.000
20
61.060
0
VERTEX
8
CONTOURS_MINEURES
10
23.720
20
59.994
0
VERTEX
8
CONTOURS_MINEURES
10
21.191
20
58.802
0
VERTEX
8
CONTOURS_MINEURES
10
19.997
20
58.061
0
VERTEX
8
CONTOURS_MINEURES
10
15.379
20
55.374
0
VERTEX
8
CONTOURS_MINEURES
10
15.004
20
55.310
0
VERTEX
8
CONTOURS_MINEURES
10
14.671
20
55.330
0
VERTEX
8
CONTOURS_MINEURES
10
13.777
20
54.998
0
VERTEX
8
CONTOURS_MINEURES
10
10.289
20
54.710
0
VERTEX
8
CONTOURS_MINEURES
10
10.000
20
54.525
0
VERTEX
8
CONTOURS_MINEURES
10
5.029
20
54.966
0
VERTEX
8
CONTOURS_MINEURES
10
4.997
20
54.946
0
VERTEX
8
CONTOURS_MINEURES
10
4.072
20
54.998
0
VERTEX
8
CONTOURS_MINEURES
10
0.341
20
55.335
0
VERTEX
8
CONTOURS_MINEURES
10
0.004
20
55.375
0
SEQEND
0
POLYLINE
8
CONTOURS_MINEURES
66
1
70
0
0
VERTEX
8
CONTOURS_MINEURES
10
0.004
20
145.520
0
VERTEX
8
CONTOURS_MINEURES
10
3.047
20
146.951
0
VERTEX
8
CONTOURS_MINEURES
10
4.997
20
149.320
0
VERTEX
8
CONTOURS_MINEURES
10
5.772
20
149.996
0
VERTEX
8
CONTOURS_MINEURES
10
10.000
20
152.427
0
VERTEX
8
CONTOURS_MINEURES
10
12.311
20
152.691
0
VERTEX
8
CONTOURS_MINEURES
10
13.575
20
155.004
0
VERTEX
8
CONTOURS_MINEURES
10
15.004
20
158.839
0
VERTEX
8
CONTOURS_MINEURES
10
15.465
20
160.000
0
VERTEX
8
CONTOURS_MINEURES
10
15.762
20
160.759
0
VERTEX
8
CONTOURS_MINEURES
10
17.119
20
164.996
0
VERTEX
8
CONTOURS_MINEURES
10
18.658
20
166.339
0
VERTEX
8
CONTOURS_MINEURES
10
19.997
20
167.145
0
VERTEX
8
CONTOURS_MINEURES
10
23.181
20
168.183
0
VERTEX
8
CONTOURS_MINEURES
10
25.000
20
168.589
0
VERTEX
8
CONTOURS_MINEURES
10
26.268
20
168.736
0
VERTEX
8
CONTOURS_MINEURES
10
28.720
20
170.004
0
SEQEND
0
POLYLINE
8
CONTOURS_MINEURES
66
1
70
0
0
VERTEX
8
CONTOURS_MINEURES
10
0.004
20
82.500
0
VERTEX
8
CONTOURS_MINEURES
10
3.478
20
83.479
0
VERTEX
8
CONTOURS_MINEURES
10
4.997
20
83.634
0
VERTEX
8
CONTOURS_MINEURES
10
6.674
20
83.324
0
VERTEX
8
CONTOURS_MINEURES
10
10.000
20
84.642
0
VERTEX
8
CONTOURS_MINEURES
10
10.268
20
84.731
0
VERTEX
8
CONTOURS_MINEURES
10
10.309
20
84.999
0
VERTEX
8
CONTOURS_MINEURES
10
10.000
20
86.954
0
VERTEX
8
CONTOURS_MINEURES
10
9.041
20
89.037
0
VERTEX
8
CONTOURS_MINEURES
10
9.444
20
89.995
0
VERTEX
8
CONTOURS_MINEURES
10
10.000
20
95.002
0
VERTEX
8
CONTOURS_MINEURES
10
11.281
20
98.720
0
VERTEX
8
CONTOURS_MINEURES
10
11.571
20
99.999
0
VERTEX
8
CONTOURS_MINEURES
10
10.901
20
100.898
0
VERTEX
8
CONTOURS_MINEURES
10
10.000
20
104.995
0
VERTEX
8
CONTOURS_MINEURES
10
8.323
20
108.324
0
VERTEX
8
CONTOURS_MINEURES
10
8.019
20
110.003
0
VERTEX
8
CONTOURS_MINEURES
10
7.835
20
112.165
0
VERTEX
8
CONTOURS_MINEURES
10
7.288
20
114.999
0
VERTEX
8
CONTOURS_MINEURES
10
6.702
20
116.702
0
VERTEX
8
CONTOURS_MINEURES
10
6.109
20
119.996
0
VERTEX
8
CONTOURS_MINEURES
10
4.997
20
121.417
0
VERTEX
8
CONTOURS_MINEURES
10
2.535
20
125.003
0
VERTEX
8
CONTOURS_MINEURES
10
1.438
20
126.438
0
VERTEX
8
CONTOURS_MINEURES
10
0.004
20
128.798
0
SEQEND
0
POLYLINE
8
CONTOURS_MINEURES
66
1
70
0
0
VERTEX
8
CONTOURS_MINEURES
10
106.018
20
170.004
0
VERTEX
8
CONTOURS_MINEURES
10
105.004
20
167.089
0
VERTEX
8
CONTOURS_MINEURES
10
104.475
20
165.526
0
VERTEX
8
CONTOURS_MINEURES
10
104.312
20
164.996
0
VERTEX
8
CONTOURS_MINEURES
10
103.064
20
161.938
0
VERTEX
8
CONTOURS_MINEURES
10
101.560
20
160.000
0
VERTEX
8
CONTOURS_MINEURES
10
100.001
20
158.578
0
VERTEX
8
CONTOURS_MINEURES
10
98.228
20
156.774
0
VERTEX
8
CONTOURS_MINEURES
10
96.798
20
155.004
0
VERTEX
8
CONTOURS_MINEURES
10
94.997
20
152.428
0
VERTEX
8
CONTOURS_MINEURES
10
94.021
20
150.975
0
VERTEX
8
CONTOURS_MINEURES
10
93.342
20
149.996
0
VERTEX
8
CONTOURS_MINEURES
10
90.004
20
145.576
0
VERTEX
8
CONTOURS_MINEURES
10
89.241
20
145.000
0
VERTEX
8
CONTOURS_MINEURES
10
87.148
20
142.856
0
VERTEX
8
CONTOURS_MINEURES
10
85.001
20
142.522
0
VERTEX
8
CONTOURS_MINEURES
10
83.443
20
141.559
0
VERTEX
8
CONTOURS_MINEURES
10
79.997
20
140.823
0
VERTEX
8
CONTOURS_MINEURES
10
77.825
20
140.003
0
VERTEX
8
CONTOURS_MINEURES
10
76.137
20
138.867
0
VERTEX
8
CONTOURS_MINEURES
10
75.004
20
138.435
0
VERTEX
8
CONTOURS_MINEURES
10
71.933
20
136.930
0
VERTEX
8
CONTOURS_MINEURES
10
70.001
20
136.013
0
VERTEX
8
CONTOURS_MINEURES
10
67.681
20
134.996
0
VERTEX
8
CONTOURS_MINEURES
10
66.103
20
133.891
0
VERTEX
8
CONTOURS_MINEURES
10
64.997
20
133.259
0
VERTEX
8
CONTOURS_MINEURES
10
62.654
20
132.345
0
VERTEX
8
CONTOURS_MINEURES
10
60.004
20
131.453
0
VERTEX
8
CONTOURS_MINEURES
10
57.617
20
129.999
0
VERTEX
8
CONTOURS_MINEURES
10
56.286
20
128.716
0
VERTEX
8
CONTOURS_MINEURES
10
55.001
20
127.144
0
VERTEX
8
CONTOURS_MINEURES
10
51.675
20
125.003
0
VERTEX
8
CONTOURS_MINEURES
10
49.997
20
123.580
0
VERTEX
8
CONTOURS_MINEURES
10
45.704
20
119.996
0
VERTEX
8
CONTOURS_MINEURES
10
45.148
20
119.852
0
VERTEX
8
CONTOURS_MINEURES
10
45.004
20
119.811
0
VERTEX
8
CONTOURS_MINEURES
10
44.718
20
119.710
0
VERTEX
8
CONTOURS_MINEURES
10
40.000
20
118.351
0
VERTEX
8
CONTOURS_MINEURES
10
36.898
20
116.898
0
VERTEX
8
CONTOURS_MINEURES
10
34.997
20
116.336
0
VERTEX
8
CONTOURS_MINEURES
10
33.235
20
114.999
0
VERTEX
8
CONTOURS_MINEURES
10
32.779
20
112.222
0
VERTEX
8
CONTOURS_MINEURES
10
33.339
20
110.003
0
VERTEX
8
CONTOURS_MINEURES
10
33.708
20
108.710
0
VERTEX
8
CONTOURS_MINEURES
10
34.560
20
104.995
0
VERTEX
8
CONTOURS_MINEURES
10
34.997
20
103.689
0
VERTEX
8
CONTOURS_MINEURES
10
35.999
20
99.999
0
VERTEX
8
CONTOURS_MINEURES
10
35.962
20
95.966
0
VERTEX
8
CONTOURS_MINEURES
10
35.908
20
95.002
0
VERTEX
8
CONTOURS_MINEURES
10
35.596
20
94.403
0
VERTEX
8
CONTOURS_MINEURES
10
34.997
20
92.326
0
VERTEX
8
CONTOURS_MINEURES
10
34.227
20
89.995
0
VERTEX
8
CONTOURS_MINEURES
10
32.624
20
87.373
0
VERTEX
8
CONTOURS_MINEURES
10
32.291
20
84.999
0
VERTEX
8
CONTOURS_MINEURES
10
31.846
20
83.155
0
VERTEX
8
CONTOURS_MINEURES
10
31.894
20
80.002
0
VERTEX
8
CONTOURS_MINEURES
10
31.611
20
76.607
0
VERTEX
8
CONTOURS_MINEURES
10
31.362
20
74.995
0
VERTEX
8
CONTOURS_MINEURES
10
31.812
20
73.185
0
VERTEX
8
CONTOURS_MINEURES
10
31.950
20
69.998
0
VERTEX
8
CONTOURS_MINEURES
10
31.707
20
68.294
0
VERTEX
8
CONTOURS_MINEURES
10
30.023
20
65.002
0
VERTEX
8
CONTOURS_MINEURES
10
30.015
20
64.991
0
VERTEX
8
CONTOURS_MINEURES
10
30.004
20
64.979
0
VERTEX
8
CONTOURS_MINEURES
10
27.422
20
62.578
0
VERTEX
8
CONTOURS_MINEURES
10
25.611
20
59.994
0
VERTEX
8
CONTOURS_MINEURES
10
25.000
20
59.501
0
VERTEX
8
CONTOURS_MINEURES
10
21.937
20
58.057
0
VERTEX
8
CONTOURS_MINEURES
10
19.997
20
56.853
0
VERTEX
8
CONTOURS_MINEURES
10
16.810
20
54.998
0
VERTEX
8
CONTOURS_MINEURES
10
15.004
20
54.320
0
VERTEX
8
CONTOURS_MINEURES
10
11.010
20
53.990
0
VERTEX
8
CONTOURS_MINEURES
10
10.000
20
53.342
0
VERTEX
8
CONTOURS_MINEURES
10
6.329
20
53.668
0
VERTEX
8
CONTOURS_MINEURES
10
4.997
20
52.864
0
VERTEX
8
CONTOURS_MINEURES
10
1.966
20
53.035
0
VERTEX
8
CONTOURS_MINEURES
10
0.004
20
51.338
0
SEQEND
0
POLYLINE
8
CONTOURS_MINEURES
66
1
70
0
0
VERTEX
8
CONTOURS_MINEURES
10
0.004
20
146.314
0
VERTEX
8
CONTOURS_MINEURES
10
2.507
20
147.491
0
VERTEX
8
CONTOURS_MINEURES
10
4.568
20
149.996
0
VERTEX
8
CONTOURS_MINEURES
10
4.792
20
150.201
0
VERTEX
8
CONTOURS_MINEURES
10
4.997
20
150.271
0
VERTEX
8
CONTOURS_MINEURES
10
5.803
20
150.803
0
VERTEX
8
CONTOURS_MINEURES
10
10.000
20
153.216
0
VERTEX
8
CONTOURS_MINEURES
10
11.603
20
153.399
0
VERTEX
8
CONTOURS_MINEURES
10
12.480
20
155.004
0
VERTEX
8
CONTOURS_MINEURES
10
13.949
20
158.947
0
VERTEX
8
CONTOURS_MINEURES
10
14.518
20
160.000
0
VERTEX
8
CONTOURS_MINEURES
10
14.590
20
160.413
0
VERTEX
8
CONTOURS_MINEURES
10
15.004
20
162.468
0
VERTEX
8
CONTOURS_MINEURES
10
15.813
20
164.996
0
VERTEX
8
CONTOURS_MINEURES
10
18.051
20
166.948
0
VERTEX
8
CONTOURS_MINEURES
10
19.997
20
168.119
0
VERTEX
8
CONTOURS_MINEURES
10
24.625
20
169.628
0
VERTEX
8
CONTOURS_MINEURES
10
25.000
20
169.712
0
VERTEX
8
CONTOURS_MINEURES
10
25.262
20
169.742
0
VERTEX
8
CONTOURS_MINEURES
10
25.768
20
170.004
0
SEQEND
0
POLYLINE
8
CONTOURS_MINEURES
66
1
70
0
0
VERTEX
8
CONTOURS_MINEURES
10
0.004
20
87.302
0
VERTEX
8
CONTOURS_MINEURES
10
1.752
20
88.245
0
VERTEX
8
CONTOURS_MINEURES
10
2.318
20
89.995
0
VERTEX
8
CONTOURS_MINEURES
10
3.550
20
93.552
0
VERTEX
8
CONTOURS_MINEURES
10
4.249
20
95.002
0
VERTEX
8
CONTOURS_MINEURES
10
4.484
20
95.515
0
VERTEX
8
CONTOURS_MINEURES
10
4.997
20
97.124
0
VERTEX
8
CONTOURS_MINEURES
10
6.115
20
99.999
0
VERTEX
8
CONTOURS_MINEURES
10
5.850
20
104.144
0
VERTEX
8
CONTOURS_MINEURES
10
5.649
20
104.995
0
VERTEX
8
CONTOURS_MINEURES
10
5.431
20
105.429
0
VERTEX
8
CONTOURS_MINEURES
10
4.997
20
107.830
0
VERTEX
8
CONTOURS_MINEURES
10
4.650
20
109.655
0
VERTEX
8
CONTOURS_MINEURES
10
4.681
20
110.003
0
VERTEX
8
CONTOURS_MINEURES
10
4.652
20
110.348
0
VERTEX
8
CONTOURS_MINEURES
10
4.327
20
114.999
0
VERTEX
8
CONTOURS_MINEURES
10
3.637
20
118.635
0
VERTEX
8
CONTOURS_MINEURES
10
3.515
20
119.996
0
VERTEX
8
CONTOURS_MINEURES
10
0.675
20
124.330
0
VERTEX
8
CONTOURS_MINEURES
10
0.213
20
125.003
0
VERTEX
8
CONTOURS_MINEURES
10
0.122
20
125.122
0
VERTEX
8
CONTOURS_MINEURES
10
0.004
20
125.316
0
SEQEND
0
POLYLINE
8
CONTOURS_MINEURES
66
1
70
0
0
VERTEX
8
CONTOURS_MINEURES
10
107.378
20
170.004
0
VERTEX
8
CONTOURS_MINEURES
10
105.976
20
165.971
0
VERTEX
8
CONTOURS_MINEURES
10
105.697
20
164.996
0
VERTEX
8
CONTOURS_MINEURES
10
105.004
20
163.521
0
VERTEX
8
CONTOURS_MINEURES
10
103.983
20
161.020
0
VERTEX
8
CONTOURS_MINEURES
10
103.192
20
160.000
0
VERTEX
8
CONTOURS_MINEURES
10
100.001
20
157.089
0
VERTEX
8
CONTOURS_MINEURES
10
98.967
20
156.036
0
VERTEX
8
CONTOURS_MINEURES
10
98.133
20
155.004
0
VERTEX
8
CONTOURS_MINEURES
10
94.997
20
150.521
0
VERTEX
8
CONTOURS_MINEURES
10
94.787
20
150.207
0
VERTEX
8
CONTOURS_MINEURES
10
94.640
20
149.996
0
VERTEX
8
CONTOURS_MINEURES
10
93.536
20
148.534
0
VERTEX
8
CONTOURS_MINEURES
10
91.365
20
145.000
0
VERTEX
8
CONTOURS_MINEURES
10
90.004
20
143.447
0
VERTEX
8
CONTOURS_MINEURES
10
88.302
20
141.703
0
VERTEX
8
CONTOURS_MINEURES
10
85.001
20
141.189
0
VERTEX
8
CONTOURS_MINEURES
10
84.267
20
140.736
0
VERTEX
8
CONTOURS_MINEURES
10
80.839
20
140.003
0
VERTEX
8
CONTOURS_MINEURES
10
80.284
20
139.716
0
VERTEX
8
CONTOURS_MINEURES
10
79.997
20
139.683
0
VERTEX
8
CONTOURS_MINEURES
10
77.200
20
137.801
0
VERTEX
8
CONTOURS_MINEURES
10
75.004
20
136.962
0
VERTEX
8
CONTOURS_MINEURES
10
70.992
20
134.996
0
VERTEX
8
CONTOURS_MINEURES
10
70.526
20
134.471
0
VERTEX
8
CONTOURS_MINEURES
10
70.001
20
134.195
0
VERTEX
8
CONTOURS_MINEURES
10
67.531
20
132.466
0
VERTEX
8
CONTOURS_MINEURES
10
64.997
20
131.019
0
VERTEX
8
CONTOURS_MINEURES
10
64.264
20
130.733
0
VERTEX
8
CONTOURS_MINEURES
10
62.084
20
129.999
0
VERTEX
8
CONTOURS_MINEURES
10
60.692
20
129.311
0
VERTEX
8
CONTOURS_MINEURES
10
60.004
20
128.891
0
VERTEX
8
CONTOURS_MINEURES
10
58.024
20
126.981
0
VERTEX
8
CONTOURS_MINEURES
10
56.405
20
125.003
0
VERTEX
8
CONTOURS_MINEURES
10
55.986
20
124.017
0
VERTEX
8
CONTOURS_MINEURES
10
55.001
20
122.485
0
VERTEX
8
CONTOURS_MINEURES
10
52.005
20
119.996
0
VERTEX
8
CONTOURS_MINEURES
10
49.997
20
119.532
0
VERTEX
8
CONTOURS_MINEURES
10
46.396
20
118.603
0
VERTEX
8
CONTOURS_MINEURES
10
45.004
20
118.201
0
VERTEX
8
CONTOURS_MINEURES
10
42.228
20
117.224
0
VERTEX
8
CONTOURS_MINEURES
10
40.000
20
116.582
0
VERTEX
8
CONTOURS_MINEURES
10
36.621
20
114.999
0
VERTEX
8
CONTOURS_MINEURES
10
36.007
20
113.991
0
VERTEX
8
CONTOURS_MINEURES
10
35.440
20
110.003
0
VERTEX
8
CONTOURS_MINEURES
10
36.557
20
106.556
0
VERTEX
8
CONTOURS_MINEURES
10
36.487
20
104.995
0
VERTEX
8
CONTOURS_MINEURES
10
36.626
20
103.369
0
VERTEX
8
CONTOURS_MINEURES
10
37.541
20
99.999
0
VERTEX
8
CONTOURS_MINEURES
10
37.518
20
97.520
0
VERTEX
8
CONTOURS_MINEURES
10
37.377
20
95.002
0
VERTEX
8
CONTOURS_MINEURES
10
36.563
20
93.435
0
VERTEX
8
CONTOURS_MINEURES
10
35.570
20
89.995
0
VERTEX
8
CONTOURS_MINEURES
10
34.997
20
88.921
0
VERTEX
8
CONTOURS_MINEURES
10
33.510
20
86.487
0
VERTEX
8
CONTOURS_MINEURES
10
33.301
20
84.999
0
VERTEX
8
CONTOURS_MINEURES
10
32.659
20
82.342
0
VERTEX
8
CONTOURS_MINEURES
10
32.695
20
80.002
0
VERTEX
8
CONTOURS_MINEURES
10
32.485
20
77.483
0
VERTEX
8
CONTOURS_MINEURES
10
32.100
20
74.995
0
VERTEX
8
CONTOURS_MINEURES
10
32.795
20
72.201
0
VERTEX
8
CONTOURS_MINEURES
10
32.891
20
69.998
0
VERTEX
8
CONTOURS_MINEURES
10
32.529
20
67.471
0
VERTEX
8
CONTOURS_MINEURES
10
31.266
20
65.002
0
VERTEX
8
CONTOURS_MINEURES
10
30.718
20
64.286
0
VERTEX
8
CONTOURS_MINEURES
10
30.004
20
63.438
0
VERTEX
8
CONTOURS_MINEURES
10
28.220
20
61.779
0
VERTEX
8
CONTOURS_MINEURES
10
26.969
20
59.994
0
VERTEX
8
CONTOURS_MINEURES
10
25.000
20
58.404
0
VERTEX
8
CONTOURS_MINEURES
10
22.683
20
57.312
0
VERTEX
8
CONTOURS_MINEURES
10
19.997
20
55.645
0
VERTEX
8
CONTOURS_MINEURES
10
18.886
20
54.998
0
VERTEX
8
CONTOURS_MINEURES
10
15.004
20
53.540
0
VERTEX
8
CONTOURS_MINEURES
10
11.731
20
53.270
0
VERTEX
8
CONTOURS_MINEURES
10
10.000
20
52.160
0
VERTEX
8
CONTOURS_MINEURES
10
7.628
20
52.370
0
VERTEX
8
CONTOURS_MINEURES
10
4.997
20
50.782
0
VERTEX
8
CONTOURS_MINEURES
10
4.170
20
50.829
0
VERTEX
8
CONTOURS_MINEURES
10
3.214
20
50.002
0
VERTEX
8
CONTOURS_MINEURES
10
0.607
20
49.398
0
VERTEX
8
CONTOURS_MINEURES
10
0.004
20
48.368
0
SEQEND
0
POLYLINE
8
CONTOURS_MINEURES
66
1
70
0
0
VERTEX
8
CONTOURS_MINEURES
10
0.004
20
147.109
0
VERTEX
8
CONTOURS_MINEURES
10
1.967
20
148.032
0
VERTEX
8
CONTOURS_MINEURES
10
3.584
20
149.996
0
VERTEX
8
CONTOURS_MINEURES
10
4.322
20
150.672
0
VERTEX
8
CONTOURS_MINEURES
10
4.997
20
150.904
0
VERTEX
8
CONTOURS_MINEURES
10
7.656
20
152.658
0
VERTEX
8
CONTOURS_MINEURES
10
10.000
20
154.005
0
VERTEX
8
CONTOURS_MINEURES
10
10.896
20
154.108
0
VERTEX
8
CONTOURS_MINEURES
10
11.385
20
155.004
0
VERTEX
8
CONTOURS_MINEURES
10
12.206
20
157.206
0
VERTEX
8
CONTOURS_MINEURES
10
13.715
20
160.000
0
VERTEX
8
CONTOURS_MINEURES
10
13.906
20
161.096
0
VERTEX
8
CONTOURS_MINEURES
10
14.692
20
164.996
0
VERTEX
8
CONTOURS_MINEURES
10
14.797
20
165.204
0
VERTEX
8
CONTOURS_MINEURES
10
15.004
20
165.429
0
VERTEX
8
CONTOURS_MINEURES
10
17.444
20
167.556
0
VERTEX
8
CONTOURS_MINEURES
10
19.997
20
169.093
0
VERTEX
8
CONTOURS_MINEURES
10
22.790
20
170.004
0
SEQEND
0
POLYLINE
8
CONTOURS_MINEURES
66
1
70
0
0
VERTEX
8
CONTOURS_MINEURES
10
0.004
20
96.265
0
VERTEX
8
CONTOURS_MINEURES
10
1.178
20
98.824
0
VERTEX
8
CONTOURS_MINEURES
10
1.552
20
99.999
0
VERTEX
8
CONTOURS_MINEURES
10
1.475
20
101.471
0
VERTEX
8
CONTOURS_MINEURES
10
1.944
20
104.995
0
VERTEX
8
CONTOURS_MINEURES
10
1.633
20
106.629
0
VERTEX
8
CONTOURS_MINEURES
10
1.938
20
110.003
0
VERTEX
8
CONTOURS_MINEURES
10
1.653
20
113.349
0
VERTEX
8
CONTOURS_MINEURES
10
1.538
20
114.999
0
VERTEX
8
CONTOURS_MINEURES
10
1.293
20
116.289
0
VERTEX
8
CONTOURS_MINEURES
10
0.962
20
119.996
0
VERTEX
8
CONTOURS_MINEURES
10
0.004
20
121.457
0
SEQEND
0
POLYLINE
8
CONTOURS_MINEURES
66
1
70
0
0
VERTEX
8
CONTOURS_MINEURES
10
108.739
20
170.004
0
VERTEX
8
CONTOURS_MINEURES
10
108.065
20
168.066
0
VERTEX
8
CONTOURS_MINEURES
10
107.188
20
164.996
0
VERTEX
8
CONTOURS_MINEURES
10
105.004
20
160.349
0
VERTEX
8
CONTOURS_MINEURES
10
104.903
20
160.101
0
VERTEX
8
CONTOURS_MINEURES
10
104.825
20
160.000
0
VERTEX
8
CONTOURS_MINEURES
10
100.001
20
155.599
0
VERTEX
8
CONTOURS_MINEURES
10
99.705
20
155.299
0
VERTEX
8
CONTOURS_MINEURES
10
99.467
20
155.004
0
VERTEX
8
CONTOURS_MINEURES
10
98.222
20
153.223
0
VERTEX
8
CONTOURS_MINEURES
10
96.366
20
149.996
0
VERTEX
8
CONTOURS_MINEURES
10
96.105
20
148.890
0
VERTEX
8
CONTOURS_MINEURES
10
94.997
20
147.581
0
VERTEX
8
CONTOURS_MINEURES
10
93.411
20
145.000
0
VERTEX
8
CONTOURS_MINEURES
10
90.004
20
141.112
0
VERTEX
8
CONTOURS_MINEURES
10
89.456
20
140.551
0
VERTEX
8
CONTOURS_MINEURES
10
85.942
20
140.003
0
VERTEX
8
CONTOURS_MINEURES
10
85.258
20
139.745
0
VERTEX
8
CONTOURS_MINEURES
10
85.001
20
139.737
0
VERTEX
8
CONTOURS_MINEURES
10
81.880
20
138.119
0
VERTEX
8
CONTOURS_MINEURES
10
79.997
20
137.901
0
VERTEX
8
CONTOURS_MINEURES
10
78.264
20
136.734
0
VERTEX
8
CONTOURS_MINEURES
10
75.004
20
135.489
0
VERTEX
8
CONTOURS_MINEURES
10
73.997
20
134.996
0
VERTEX
8
CONTOURS_MINEURES
10
72.120
20
132.880
0
VERTEX
8
CONTOURS_MINEURES
10
70.001
20
131.770
0
VERTEX
8
CONTOURS_MINEURES
10
68.958
20
131.040
0
VERTEX
8
CONTOURS_MINEURES
10
67.136
20
129.999
0
VERTEX
8
CONTOURS_MINEURES
10
64.997
20
128.276
0
VERTEX
8
CONTOURS_MINEURES
10
62.807
20
127.194
0
VERTEX
8
CONTOURS_MINEURES
10
60.004
20
125.481
0
VERTEX
8
CONTOURS_MINEURES
10
59.761
20
125.246
0
VERTEX
8
CONTOURS_MINEURES
10
59.562
20
125.003
0
VERTEX
8
CONTOURS_MINEURES
10
58.200
20
121.801
0
VERTEX
8
CONTOURS_MINEURES
10
57.038
20
119.996
0
VERTEX
8
CONTOURS_MINEURES
10
55.619
20
119.378
0
VERTEX
8
CONTOURS_MINEURES
10
55.001
20
119.114
0
VERTEX
8
CONTOURS_MINEURES
10
53.855
20
118.851
0
VERTEX
8
CONTOURS_MINEURES
10
49.997
20
117.961
0
VERTEX
8
CONTOURS_MINEURES
10
47.644
20
117.354
0
VERTEX
8
CONTOURS_MINEURES
10
45.004
20
116.592
0
VERTEX
8
CONTOURS_MINEURES
10
40.480
20
114.999
0
VERTEX
8
CONTOURS_MINEURES
10
40.264
20
114.736
0
VERTEX
8
CONTOURS_MINEURES
10
40.000
20
114.347
0
VERTEX
8
CONTOURS_MINEURES
10
38.356
20
111.645
0
VERTEX
8
CONTOURS_MINEURES
10
38.122
20
110.003
0
VERTEX
8
CONTOURS_MINEURES
10
38.582
20
108.584
0
VERTEX
8
CONTOURS_MINEURES
10
38.423
20
104.995
0
VERTEX
8
CONTOURS_MINEURES
10
38.742
20
101.256
0
VERTEX
8
CONTOURS_MINEURES
10
39.083
20
99.999
0
VERTEX
8
CONTOURS_MINEURES
10
39.074
20
99.074
0
VERTEX
8
CONTOURS_MINEURES
10
38.847
20
95.002
0
VERTEX
8
CONTOURS_MINEURES
10
37.530
20
92.467
0
VERTEX
8
CONTOURS_MINEURES
10
36.816
20
89.995
0
VERTEX
8
CONTOURS_MINEURES
10
34.997
20
86.586
0
VERTEX
8
CONTOURS_MINEURES
10
34.395
20
85.601
0
VERTEX
8
CONTOURS_MINEURES
10
34.310
20
84.999
0
VERTEX
8
CONTOURS_MINEURES
10
33.472
20
81.528
0
VERTEX
8
CONTOURS_MINEURES
10
33.495
20
80.002
0
VERTEX
8
CONTOURS_MINEURES
10
33.359
20
78.359
0
VERTEX
8
CONTOURS_MINEURES
10
32.838
20
74.995
0
VERTEX
8
CONTOURS_MINEURES
10
33.778
20
71.218
0
VERTEX
8
CONTOURS_MINEURES
10
33.831
20
69.998
0
VERTEX
8
CONTOURS_MINEURES
10
33.352
20
66.648
0
VERTEX
8
CONTOURS_MINEURES
10
32.510
20
65.002
0
VERTEX
8
CONTOURS_MINEURES
10
31.421
20
63.581
0
VERTEX
8
CONTOURS_MINEURES
10
30.004
20
61.897
0
VERTEX
8
CONTOURS_MINEURES
10
29.018
20
60.981
0
VERTEX
8
CONTOURS_MINEURES
10
28.327
20
59.994
0
VERTEX
8
CONTOURS_MINEURES
10
25.000
20
57.307
0
VERTEX
8
CONTOURS_MINEURES
10
23.430
20
56.567
0
VERTEX
8
CONTOURS_MINEURES
10
20.902
20
54.998
0
VERTEX
8
CONTOURS_MINEURES
10
19.997
20
54.627
0
VERTEX
8
CONTOURS_MINEURES
10
19.417
20
54.418
0
VERTEX
8
CONTOURS_MINEURES
10
15.004
20
52.761
0
VERTEX
8
CONTOURS_MINEURES
10
12.452
20
52.550
0
VERTEX
8
CONTOURS_MINEURES
10
10.000
20
50.977
0
VERTEX
8
CONTOURS_MINEURES
10
8.928
20
51.072
0
VERTEX
8
CONTOURS_MINEURES
10
7.153
20
50.002
0
VERTEX
8
CONTOURS_MINEURES
10
4.997
20
49.314
0
VERTEX
8
CONTOURS_MINEURES
10
1.500
20
48.505
0
VERTEX
8
CONTOURS_MINEURES
10
0.004
20
45.949
0
SEQEND
0
POLYLINE
8
CONTOURS_MINEURES
66
1
70
0
0
VERTEX
8
CONTOURS_MINEURES
10
0.004
20
147.903
0
VERTEX
8
CONTOURS_MINEURES
10
1.427
20
148.572
0
VERTEX
8
CONTOURS_MINEURES
10
2.599
20
149.996
0
VERTEX
8
CONTOURS_MINEURES
10
3.852
20
151.144
0
VERTEX
8
CONTOURS_MINEURES
10
4.997
20
151.537
0
VERTEX
8
CONTOURS_MINEURES
10
9.509
20
154.512
0
VERTEX
8
CONTOURS_MINEURES
10
10.000
20
154.794
0
VERTEX
8
CONTOURS_MINEURES
10
10.188
20
154.816
0
VERTEX
8
CONTOURS_MINEURES
10
10.290
20
155.004
0
VERTEX
8
CONTOURS_MINEURES
10
10.462
20
155.465
0
VERTEX
8
CONTOURS_MINEURES
10
12.912
20
160.000
0
VERTEX
8
CONTOURS_MINEURES
10
13.222
20
161.779
0
VERTEX
8
CONTOURS_MINEURES
10
13.870
20
164.996
0
VERTEX
8
CONTOURS_MINEURES
10
14.251
20
165.750
0
VERTEX
8
CONTOURS_MINEURES
10
15.004
20
166.567
0
VERTEX
8
CONTOURS_MINEURES
10
16.837
20
168.165
0
VERTEX
8
CONTOURS_MINEURES
10
19.892
20
170.004
0
SEQEND
0
POLYLINE
8
CONTOURS_MINEURES
66
1
70
0
0
VERTEX
8
CONTOURS_MINEURES
10
154.485
20
0.004
0
VERTEX
8
CONTOURS_MINEURES
10
154.997
20
0.585
0
SEQEND
0
POLYLINE
8
CONTOURS_MINEURES
66
1
70
0
0
VERTEX
8
CONTOURS_MINEURES
10
110.118
20
170.004
0
VERTEX
8
CONTOURS_MINEURES
10
110.098
20
169.903
0
VERTEX
8
CONTOURS_MINEURES
10
109.997
20
169.613
0
VERTEX
8
CONTOURS_MINEURES
10
108.678
20
164.996
0
VERTEX
8
CONTOURS_MINEURES
10
107.508
20
162.505
0
VERTEX
8
CONTOURS_MINEURES
10
106.372
20
160.000
0
VERTEX
8
CONTOURS_MINEURES
10
105.893
20
159.111
0
VERTEX
8
CONTOURS_MINEURES
10
105.004
20
158.356
0
VERTEX
8
CONTOURS_MINEURES
10
101.244
20
155.004
0
VERTEX
8
CONTOURS_MINEURES
10
100.873
20
154.130
0
VERTEX
8
CONTOURS_MINEURES
10
100.001
20
153.033
0
VERTEX
8
CONTOURS_MINEURES
10
98.254
20
149.996
0
VERTEX
8
CONTOURS_MINEURES
10
97.633
20
147.364
0
VERTEX
8
CONTOURS_MINEURES
10
95.631
20
145.000
0
VERTEX
8
CONTOURS_MINEURES
10
95.408
20
144.589
0
VERTEX
8
CONTOURS_MINEURES
10
94.997
20
143.934
0
VERTEX
8
CONTOURS_MINEURES
10
91.939
20
140.003
0
VERTEX
8
CONTOURS_MINEURES
10
90.004
20
138.307
0
VERTEX
8
CONTOURS_MINEURES
10
87.602
20
137.400
0
VERTEX
8
CONTOURS_MINEURES
10
85.001
20
137.312
0
VERTEX
8
CONTOURS_MINEURES
10
83.476
20
136.521
0
VERTEX
8
CONTOURS_MINEURES
10
79.997
20
136.119
0
VERTEX
8
CONTOURS_MINEURES
10
79.327
20
135.668
0
VERTEX
8
CONTOURS_MINEURES
10
77.568
20
134.996
0
VERTEX
8
CONTOURS_MINEURES
10
75.004
20
132.743
0
VERTEX
8
CONTOURS_MINEURES
10
73.713
20
131.288
0
VERTEX
8
CONTOURS_MINEURES
10
71.252
20
129.999
0
VERTEX
8
CONTOURS_MINEURES
10
70.001
20
128.696
0
VERTEX
8
CONTOURS_MINEURES
10
65.571
20
125.576
0
VERTEX
8
CONTOURS_MINEURES
10
64.997
20
125.114
0
VERTEX
8
CONTOURS_MINEURES
10
64.923
20
125.077
0
VERTEX
8
CONTOURS_MINEURES
10
64.802
20
125.003
0
VERTEX
8
CONTOURS_MINEURES
10
64.203
20
124.206
0
VERTEX
8
CONTOURS_MINEURES
10
61.228
20
119.996
0
VERTEX
8
CONTOURS_MINEURES
10
60.004
20
119.703
0
VERTEX
8
CONTOURS_MINEURES
10
56.724
20
118.275
0
VERTEX
8
CONTOURS_MINEURES
10
55.001
20
117.541
0
VERTEX
8
CONTOURS_MINEURES
10
51.808
20
116.808
0
VERTEX
8
CONTOURS_MINEURES
10
49.997
20
116.390
0
VERTEX
8
CONTOURS_MINEURES
10
48.892
20
116.105
0
VERTEX
8
CONTOURS_MINEURES
10
45.060
20
114.999
0
VERTEX
8
CONTOURS_MINEURES
10
45.029
20
114.975
0
VERTEX
8
CONTOURS_MINEURES
10
45.004
20
114.944
0
VERTEX
8
CONTOURS_MINEURES
10
42.772
20
112.232
0
VERTEX
8
CONTOURS_MINEURES
10
41.262
20
110.003
0
VERTEX
8
CONTOURS_MINEURES
10
40.862
20
105.857
0
VERTEX
8
CONTOURS_MINEURES
10
40.463
20
104.995
0
VERTEX
8
CONTOURS_MINEURES
10
40.913
20
100.910
0
VERTEX
8
CONTOURS_MINEURES
10
40.670
20
99.999
0
VERTEX
8
CONTOURS_MINEURES
10
40.551
20
99.449
0
VERTEX
8
CONTOURS_MINEURES
10
40.309
20
95.002
0
VERTEX
8
CONTOURS_MINEURES
10
40.210
20
94.792
0
VERTEX
8
CONTOURS_MINEURES
10
40.000
20
94.394
0
VERTEX
8
CONTOURS_MINEURES
10
38.497
20
91.500
0
VERTEX
8
CONTOURS_MINEURES
10
38.063
20
89.995
0
VERTEX
8
CONTOURS_MINEURES
10
35.851
20
85.851
0
VERTEX
8
CONTOURS_MINEURES
10
35.380
20
84.999
0
VERTEX
8
CONTOURS_MINEURES
10
35.273
20
84.722
0
VERTEX
8
CONTOURS_MINEURES
10
34.997
20
83.661
0
VERTEX
8
CONTOURS_MINEURES
10
34.285
20
80.714
0
VERTEX
8
CONTOURS_MINEURES
10
34.296
20
80.002
0
VERTEX
8
CONTOURS_MINEURES
10
34.232
20
79.236
0
VERTEX
8
CONTOURS_MINEURES
10
33.576
20
74.995
0
VERTEX
8
CONTOURS_MINEURES
10
34.761
20
70.234
0
VERTEX
8
CONTOURS_MINEURES
10
34.771
20
69.998
0
VERTEX
8
CONTOURS_MINEURES
10
34.174
20
65.825
0
VERTEX
8
CONTOURS_MINEURES
10
33.753
20
65.002
0
VERTEX
8
CONTOURS_MINEURES
10
32.124
20
62.876
0
VERTEX
8
CONTOURS_MINEURES
10
30.004
20
60.357
0
VERTEX
8
CONTOURS_MINEURES
10
29.816
20
60.182
0
VERTEX
8
CONTOURS_MINEURES
10
29.685
20
59.994
0
VERTEX
8
CONTOURS_MINEURES
10
25.000
20
56.210
0
VERTEX
8
CONTOURS_MINEURES
10
24.176
20
55.821
0
VERTEX
8
CONTOURS_MINEURES
10
22.849
20
54.998
0
VERTEX
8
CONTOURS_MINEURES
10
19.997
20
53.830
0
VERTEX
8
CONTOURS_MINEURES
10
18.170
20
53.170
0
VERTEX
8
CONTOURS_MINEURES
10
15.004
20
51.982
0
VERTEX
8
CONTOURS_MINEURES
10
13.173
20
51.830
0
VERTEX
8
CONTOURS_MINEURES
10
10.323
20
50.002
0
VERTEX
8
CONTOURS_MINEURES
10
10.000
20
49.872
0
VERTEX
8
CONTOURS_MINEURES
10
9.717
20
49.719
0
VERTEX
8
CONTOURS_MINEURES
10
4.997
20
48.213
0
VERTEX
8
CONTOURS_MINEURES
10
2.393
20
47.611
0
VERTEX
8
CONTOURS_MINEURES
10
0.868
20
45.005
0
VERTEX
8
CONTOURS_MINEURES
10
0.004
20
44.029
0
SEQEND
0
POLYLINE
8
CONTOURS_MINEURES
66
1
70
0
0
VERTEX
8
CONTOURS_MINEURES
10
0.004
20
148.697
0
VERTEX
8
CONTOURS_MINEURES
10
0.887
20
149.113
0
VERTEX
8
CONTOURS_MINEURES
10
1.614
20
149.996
0
VERTEX
8
CONTOURS_MINEURES
10
3.383
20
151.615
0
VERTEX
8
CONTOURS_MINEURES
10
4.997
20
152.169
0
VERTEX
8
CONTOURS_MINEURES
10
9.295
20
155.004
0
VERTEX
8
CONTOURS_MINEURES
10
9.546
20
155.457
0
VERTEX
8
CONTOURS_MINEURES
10
10.000
20
156.097
0
VERTEX
8
CONTOURS_MINEURES
10
12.109
20
160.000
0
VERTEX
8
CONTOURS_MINEURES
10
12.538
20
162.462
0
VERTEX
8
CONTOURS_MINEURES
10
13.048
20
164.996
0
VERTEX
8
CONTOURS_MINEURES
10
13.706
20
166.295
0
VERTEX
8
CONTOURS_MINEURES
10
15.004
20
167.705
0
VERTEX
8
CONTOURS_MINEURES
10
16.230
20
168.774
0
VERTEX
8
CONTOURS_MINEURES
10
18.273
20
170.004
0
SEQEND
0
POLYLINE
8
CONTOURS_MINEURES
66
1
70
0
0
VERTEX
8
CONTOURS_MINEURES
10
151.786
20
0.004
0
VERTEX
8
CONTOURS_MINEURES
10
154.997
20
3.641
0
SEQEND
0
POLYLINE
8
CONTOURS_MINEURES
66
1
70
0
0
VERTEX
8
CONTOURS_MINEURES
10
111.727
20
170.004
0
VERTEX
8
CONTOURS_MINEURES
10
111.441
20
168.559
0
VERTEX
8
CONTOURS_MINEURES
10
110.205
20
164.996
0
VERTEX
8
CONTOURS_MINEURES
10
110.139
20
164.854
0
VERTEX
8
CONTOURS_MINEURES
10
109.997
20
164.607
0
VERTEX
8
CONTOURS_MINEURES
10
107.908
20
160.000
0
VERTEX
8
CONTOURS_MINEURES
10
106.892
20
158.111
0
VERTEX
8
CONTOURS_MINEURES
10
105.004
20
156.509
0
VERTEX
8
CONTOURS_MINEURES
10
103.316
20
155.004
0
VERTEX
8
CONTOURS_MINEURES
10
102.328
20
152.675
0
VERTEX
8
CONTOURS_MINEURES
10
100.197
20
149.996
0
VERTEX
8
CONTOURS_MINEURES
10
100.001
20
149.397
0
VERTEX
8
CONTOURS_MINEURES
10
99.160
20
145.839
0
VERTEX
8
CONTOURS_MINEURES
10
98.450
20
145.000
0
VERTEX
8
CONTOURS_MINEURES
10
97.234
20
142.766
0
VERTEX
8
CONTOURS_MINEURES
10
95.502
20
140.003
0
VERTEX
8
CONTOURS_MINEURES
10
95.326
20
139.674
0
VERTEX
8
CONTOURS_MINEURES
10
94.997
20
139.063
0
VERTEX
8
CONTOURS_MINEURES
10
90.644
20
135.638
0
VERTEX
8
CONTOURS_MINEURES
10
90.004
20
135.077
0
VERTEX
8
CONTOURS_MINEURES
10
89.946
20
135.055
0
VERTEX
8
CONTOURS_MINEURES
10
88.217
20
134.996
0
VERTEX
8
CONTOURS_MINEURES
10
85.224
20
134.773
0
VERTEX
8
CONTOURS_MINEURES
10
85.001
20
134.512
0
VERTEX
8
CONTOURS_MINEURES
10
83.977
20
133.974
0
VERTEX
8
CONTOURS_MINEURES
10
79.997
20
131.604
0
VERTEX
8
CONTOURS_MINEURES
10
77.603
20
129.999
0
VERTEX
8
CONTOURS_MINEURES
10
76.220
20
128.782
0
VERTEX
8
CONTOURS_MINEURES
10
75.004
20
127.817
0
VERTEX
8
CONTOURS_MINEURES
10
72.450
20
125.003
0
VERTEX
8
CONTOURS_MINEURES
10
70.001
20
123.074
0
VERTEX
8
CONTOURS_MINEURES
10
68.600
20
121.397
0
VERTEX
8
CONTOURS_MINEURES
10
67.670
20
119.996
0
VERTEX
8
CONTOURS_MINEURES
10
64.997
20
119.188
0
VERTEX
8
CONTOURS_MINEURES
10
64.102
20
119.100
0
VERTEX
8
CONTOURS_MINEURES
10
60.004
20
118.119
0
VERTEX
8
CONTOURS_MINEURES
10
57.828
20
117.172
0
VERTEX
8
CONTOURS_MINEURES
10
55.001
20
115.967
0
VERTEX
8
CONTOURS_MINEURES
10
50.785
20
114.999
0
VERTEX
8
CONTOURS_MINEURES
10
49.997
20
114.497
0
VERTEX
8
CONTOURS_MINEURES
10
47.476
20
112.525
0
VERTEX
8
CONTOURS_MINEURES
10
45.486
20
110.003
0
VERTEX
8
CONTOURS_MINEURES
10
45.243
20
109.763
0
VERTEX
8
CONTOURS_MINEURES
10
45.004
20
109.407
0
VERTEX
8
CONTOURS_MINEURES
10
42.965
20
104.995
0
VERTEX
8
CONTOURS_MINEURES
10
43.167
20
103.161
0
VERTEX
8
CONTOURS_MINEURES
10
42.324
20
99.999
0
VERTEX
8
CONTOURS_MINEURES
10
41.911
20
98.091
0
VERTEX
8
CONTOURS_MINEURES
10
41.742
20
95.002
0
VERTEX
8
CONTOURS_MINEURES
10
41.187
20
93.815
0
VERTEX
8
CONTOURS_MINEURES
10
40.000
20
91.565
0
VERTEX
8
CONTOURS_MINEURES
10
39.464
20
90.532
0
VERTEX
8
CONTOURS_MINEURES
10
39.309
20
89.995
0
VERTEX
8
CONTOURS_MINEURES
10
38.519
20
88.516
0
VERTEX
8
CONTOURS_MINEURES
10
36.577
20
84.999
0
VERTEX
8
CONTOURS_MINEURES
10
36.138
20
83.860
0
VERTEX
8
CONTOURS_MINEURES
10
35.133
20
80.002
0
VERTEX
8
CONTOURS_MINEURES
10
35.107
20
79.892
0
VERTEX
8
CONTOURS_MINEURES
10
34.997
20
79.406
0
VERTEX
8
CONTOURS_MINEURES
10
34.314
20
74.995
0
VERTEX
8
CONTOURS_MINEURES
10
34.997
20
72.252
0
VERTEX
8
CONTOURS_MINEURES
10
35.670
20
69.998
0
VERTEX
8
CONTOURS_MINEURES
10
35.726
20
69.270
0
VERTEX
8
CONTOURS_MINEURES
10
34.997
20
65.002
0
VERTEX
8
CONTOURS_MINEURES
10
32.827
20
62.170
0
VERTEX
8
CONTOURS_MINEURES
10
30.996
20
59.994
0
VERTEX
8
CONTOURS_MINEURES
10
30.004
20
59.066
0
VERTEX
8
CONTOURS_MINEURES
10
25.604
20
55.601
0
VERTEX
8
CONTOURS_MINEURES
10
25.000
20
55.113
0
VERTEX
8
CONTOURS_MINEURES
10
24.922
20
55.076
0
VERTEX
8
CONTOURS_MINEURES
10
24.796
20
54.998
0
VERTEX
8
CONTOURS_MINEURES
10
19.997
20
53.032
0
VERTEX
8
CONTOURS_MINEURES
10
16.924
20
51.923
0
VERTEX
8
CONTOURS_MINEURES
10
15.004
20
51.202
0
VERTEX
8
CONTOURS_MINEURES
10
13.894
20
51.110
0
VERTEX
8
CONTOURS_MINEURES
10
12.166
20
50.002
0
VERTEX
8
CONTOURS_MINEURES
10
10.000
20
49.132
0
VERTEX
8
CONTOURS_MINEURES
10
8.098
20
48.102
0
VERTEX
8
CONTOURS_MINEURES
10
4.997
20
47.113
0
VERTEX
8
CONTOURS_MINEURES
10
3.286
20
46.717
0
VERTEX
8
CONTOURS_MINEURES
10
2.284
20
45.005
0
VERTEX
8
CONTOURS_MINEURES
10
0.004
20
42.430
0
SEQEND
0
POLYLINE
8
CONTOURS_MINEURES
66
1
70
0
0
VERTEX
8
CONTOURS_MINEURES
10
0.004
20
149.492
0
VERTEX
8
CONTOURS_MINEURES
10
0.347
20
149.653
0
VERTEX
8
CONTOURS_MINEURES
10
0.629
20
149.996
0
VERTEX
8
CONTOURS_MINEURES
10
2.913
20
152.086
0
VERTEX
8
CONTOURS_MINEURES
10
4.997
20
152.802
0
VERTEX
8
CONTOURS_MINEURES
10
8.336
20
155.004
0
VERTEX
8
CONTOURS_MINEURES
10
8.929
20
156.074
0
VERTEX
8
CONTOURS_MINEURES
10
10.000
20
157.584
0
VERTEX
8
CONTOURS_MINEURES
10
11.305
20
160.000
0
VERTEX
8
CONTOURS_MINEURES
10
11.854
20
163.145
0
VERTEX
8
CONTOURS_MINEURES
10
12.227
20
164.996
0
VERTEX
8
CONTOURS_MINEURES
10
13.161
20
166.841
0
VERTEX
8
CONTOURS_MINEURES
10
15.004
20
168.843
0
VERTEX
8
CONTOURS_MINEURES
10
15.623
20
169.383
0
VERTEX
8
CONTOURS_MINEURES
10
16.655
20
170.004
0
SEQEND
0
POLYLINE
8
CONTOURS_MINEURES
66
1
70
0
0
VERTEX
8
CONTOURS_MINEURES
10
149.141
20
0.004
0
VERTEX
8
CONTOURS_MINEURES
10
149.582
20
0.426
0
VERTEX
8
CONTOURS_MINEURES
10
150.005
20
0.823
0
VERTEX
8
CONTOURS_MINEURES
10
153.787
20
5.001
0
VERTEX
8
CONTOURS_MINEURES
10
154.367
20
5.632
0
VERTEX
8
CONTOURS_MINEURES
10
154.997
20
6.204
0
SEQEND
0
POLYLINE
8
CONTOURS_MINEURES
66
1
70
0
0
VERTEX
8
CONTOURS_MINEURES
10
113.336
20
170.004
0
VERTEX
8
CONTOURS_MINEURES
10
112.784
20
167.214
0
VERTEX
8
CONTOURS_MINEURES
10
112.015
20
164.996
0
VERTEX
8
CONTOURS_MINEURES
10
111.376
20
163.619
0
VERTEX
8
CONTOURS_MINEURES
10
109.997
20
161.219
0
VERTEX
8
CONTOURS_MINEURES
10
109.444
20
160.000
0
VERTEX
8
CONTOURS_MINEURES
10
107.890
20
157.112
0
VERTEX
8
CONTOURS_MINEURES
10
105.407
20
155.004
0
VERTEX
8
CONTOURS_MINEURES
10
105.004
20
154.100
0
VERTEX
8
CONTOURS_MINEURES
10
103.783
20
151.219
0
VERTEX
8
CONTOURS_MINEURES
10
102.810
20
149.996
0
VERTEX
8
CONTOURS_MINEURES
10
101.746
20
146.743
0
VERTEX
8
CONTOURS_MINEURES
10
101.353
20
145.000
0
VERTEX
8
CONTOURS_MINEURES
10
100.001
20
142.670
0
VERTEX
8
CONTOURS_MINEURES
10
99.060
20
140.942
0
VERTEX
8
CONTOURS_MINEURES
10
98.471
20
140.003
0
VERTEX
8
CONTOURS_MINEURES
10
97.262
20
137.737
0
VERTEX
8
CONTOURS_MINEURES
10
95.786
20
134.996
0
VERTEX
8
CONTOURS_MINEURES
10
94.997
20
133.787
0
VERTEX
8
CONTOURS_MINEURES
10
92.701
20
132.297
0
VERTEX
8
CONTOURS_MINEURES
10
90.206
20
129.999
0
VERTEX
8
CONTOURS_MINEURES
10
90.004
20
129.796
0
VERTEX
8
CONTOURS_MINEURES
10
88.797
20
128.793
0
VERTEX
8
CONTOURS_MINEURES
10
85.001
20
125.800
0
VERTEX
8
CONTOURS_MINEURES
10
84.412
20
125.591
0
VERTEX
8
CONTOURS_MINEURES
10
83.942
20
125.003
0
VERTEX
8
CONTOURS_MINEURES
10
79.997
20
122.132
0
VERTEX
8
CONTOURS_MINEURES
10
78.560
20
121.436
0
VERTEX
8
CONTOURS_MINEURES
10
76.687
20
119.996
0
VERTEX
8
CONTOURS_MINEURES
10
75.432
20
119.568
0
VERTEX
8
CONTOURS_MINEURES
10
75.004
20
119.479
0
VERTEX
8
CONTOURS_MINEURES
10
71.588
20
118.410
0
VERTEX
8
CONTOURS_MINEURES
10
70.001
20
118.321
0
VERTEX
8
CONTOURS_MINEURES
10
68.315
20
118.312
0
VERTEX
8
CONTOURS_MINEURES
10
64.997
20
117.310
0
VERTEX
8
CONTOURS_MINEURES
10
62.022
20
117.019
0
VERTEX
8
CONTOURS_MINEURES
10
60.004
20
116.535
0
VERTEX
8
CONTOURS_MINEURES
10
58.933
20
116.069
0
VERTEX
8
CONTOURS_MINEURES
10
56.422
20
114.999
0
VERTEX
8
CONTOURS_MINEURES
10
55.001
20
113.903
0
VERTEX
8
CONTOURS_MINEURES
10
50.359
20
110.364
0
VERTEX
8
CONTOURS_MINEURES
10
49.997
20
110.134
0
VERTEX
8
CONTOURS_MINEURES
10
49.923
20
110.076
0
VERTEX
8
CONTOURS_MINEURES
10
49.866
20
110.003
0
VERTEX
8
CONTOURS_MINEURES
10
47.419
20
107.581
0
VERTEX
8
CONTOURS_MINEURES
10
45.678
20
104.995
0
VERTEX
8
CONTOURS_MINEURES
10
45.004
20
103.847
0
VERTEX
8
CONTOURS_MINEURES
10
43.979
20
99.999
0
VERTEX
8
CONTOURS_MINEURES
10
43.270
20
96.734
0
VERTEX
8
CONTOURS_MINEURES
10
43.176
20
95.002
0
VERTEX
8
CONTOURS_MINEURES
10
42.163
20
92.838
0
VERTEX
8
CONTOURS_MINEURES
10
40.664
20
89.995
0
VERTEX
8
CONTOURS_MINEURES
10
40.000
20
89.030
0
VERTEX
8
CONTOURS_MINEURES
10
37.774
20
84.999
0
VERTEX
8
CONTOURS_MINEURES
10
37.002
20
82.997
0
VERTEX
8
CONTOURS_MINEURES
10
36.222
20
80.002
0
VERTEX
8
CONTOURS_MINEURES
10
35.992
20
79.006
0
VERTEX
8
CONTOURS_MINEURES
10
35.078
20
74.995
0
VERTEX
8
CONTOURS_MINEURES
10
35.091
20
74.900
0
VERTEX
8
CONTOURS_MINEURES
10
36.555
20
69.998
0
VERTEX
8
CONTOURS_MINEURES
10
36.686
20
68.312
0
VERTEX
8
CONTOURS_MINEURES
10
36.120
20
65.002
0
VERTEX
8
CONTOURS_MINEURES
10
34.997
20
63.379
0
VERTEX
8
CONTOURS_MINEURES
10
33.531
20
61.465
0
VERTEX
8
CONTOURS_MINEURES
10
32.293
20
59.994
0
VERTEX
8
CONTOURS_MINEURES
10
30.004
20
57.851
0
VERTEX
8
CONTOURS_MINEURES
10
26.380
20
54.998
0
VERTEX
8
CONTOURS_MINEURES
10
25.608
20
54.391
0
VERTEX
8
CONTOURS_MINEURES
10
25.000
20
54.136
0
VERTEX
8
CONTOURS_MINEURES
10
23.788
20
53.788
0
VERTEX
8
CONTOURS_MINEURES
10
19.997
20
52.235
0
VERTEX
8
CONTOURS_MINEURES
10
15.677
20
50.675
0
VERTEX
8
CONTOURS_MINEURES
10
15.004
20
50.423
0
VERTEX
8
CONTOURS_MINEURES
10
14.615
20
50.390
0
VERTEX
8
CONTOURS_MINEURES
10
14.009
20
50.002
0
VERTEX
8
CONTOURS_MINEURES
10
10.000
20
48.392
0
VERTEX
8
CONTOURS_MINEURES
10
6.478
20
46.485
0
VERTEX
8
CONTOURS_MINEURES
10
4.997
20
46.012
0
VERTEX
8
CONTOURS_MINEURES
10
4.179
20
45.823
0
VERTEX
8
CONTOURS_MINEURES
10
3.701
20
45.005
0
VERTEX
8
CONTOURS_MINEURES
10
0.004
20
40.830
0
SEQEND
0
POLYLINE
8
CONTOURS_MINEURES
66
1
70
0
0
VERTEX
8
CONTOURS_MINEURES
10
0.004
20
150.325
0
VERTEX
8
CONTOURS_MINEURES
10
2.443
20
152.558
0
VERTEX
8
CONTOURS_MINEURES
10
4.997
20
153.435
0
VERTEX
8
CONTOURS_MINEURES
10
7.376
20
155.004
0
VERTEX
8
CONTOURS_MINEURES
10
8.311
20
156.691
0
VERTEX
8
CONTOURS_MINEURES
10
10.000
20
159.071
0
VERTEX
8
CONTOURS_MINEURES
10
10.502
20
160.000
0
VERTEX
8
CONTOURS_MINEURES
10
11.170
20
163.828
0
VERTEX
8
CONTOURS_MINEURES
10
11.405
20
164.996
0
VERTEX
8
CONTOURS_MINEURES
10
12.615
20
167.387
0
VERTEX
8
CONTOURS_MINEURES
10
15.004
20
169.981
0
VERTEX
8
CONTOURS_MINEURES
10
15.016
20
169.992
0
VERTEX
8
CONTOURS_MINEURES
10
15.036
20
170.004
0
SEQEND
0
POLYLINE
8
CONTOURS_MINEURES
66
1
70
0
0
VERTEX
8
CONTOURS_MINEURES
10
146.601
20
0.004
0
VERTEX
8
CONTOURS_MINEURES
10
148.341
20
1.666
0
VERTEX
8
CONTOURS_MINEURES
10
150.005
20
3.231
0
VERTEX
8
CONTOURS_MINEURES
10
151.607
20
5.001
0
VERTEX
8
CONTOURS_MINEURES
10
153.231
20
6.769
0
VERTEX
8
CONTOURS_MINEURES
10
154.997
20
8.372
0
SEQEND
0
POLYLINE
8
CONTOURS_MINEURES
66
1
70
0
0
VERTEX
8
CONTOURS_MINEURES
10
114.945
20
170.004
0
VERTEX
8
CONTOURS_MINEURES
10
114.128
20
165.870
0
VERTEX
8
CONTOURS_MINEURES
10
113.825
20
164.996
0
VERTEX
8
CONTOURS_MINEURES
10
112.613
20
162.384
0
VERTEX
8
CONTOURS_MINEURES
10
111.243
20
160.000
0
VERTEX
8
CONTOURS_MINEURES
10
109.997
20
158.173
0
VERTEX
8
CONTOURS_MINEURES
10
108.889
20
156.113
0
VERTEX
8
CONTOURS_MINEURES
10
107.582
20
155.004
0
VERTEX
8
CONTOURS_MINEURES
10
105.633
20
150.627
0
VERTEX
8
CONTOURS_MINEURES
10
105.461
20
149.996
0
VERTEX
8
CONTOURS_MINEURES
10
105.363
20
149.637
0
VERTEX
8
CONTOURS_MINEURES
10
105.004
20
147.864
0
VERTEX
8
CONTOURS_MINEURES
10
104.358
20
145.000
0
VERTEX
8
CONTOURS_MINEURES
10
103.468
20
143.465
0
VERTEX
8
CONTOURS_MINEURES
10
101.345
20
140.003
0
VERTEX
8
CONTOURS_MINEURES
10
100.861
20
139.142
0
VERTEX
8
CONTOURS_MINEURES
10
100.001
20
137.305
0
VERTEX
8
CONTOURS_MINEURES
10
99.197
20
135.800
0
VERTEX
8
CONTOURS_MINEURES
10
98.765
20
134.996
0
VERTEX
8
CONTOURS_MINEURES
10
96.451
20
131.451
0
VERTEX
8
CONTOURS_MINEURES
10
95.639
20
129.999
0
VERTEX
8
CONTOURS_MINEURES
10
95.454
20
129.543
0
VERTEX
8
CONTOURS_MINEURES
10
94.997
20
128.944
0
VERTEX
8
CONTOURS_MINEURES
10
91.083
20
125.003
0
VERTEX
8
CONTOURS_MINEURES
10
90.004
20
123.819
0
VERTEX
8
CONTOURS_MINEURES
10
88.061
20
121.940
0
VERTEX
8
CONTOURS_MINEURES
10
85.847
20
119.996
0
VERTEX
8
CONTOURS_MINEURES
10
85.001
20
119.602
0
VERTEX
8
CONTOURS_MINEURES
10
84.253
20
119.249
0
VERTEX
8
CONTOURS_MINEURES
10
79.997
20
117.423
0
VERTEX
8
CONTOURS_MINEURES
10
78.190
20
116.807
0
VERTEX
8
CONTOURS_MINEURES
10
75.004
20
116.148
0
VERTEX
8
CONTOURS_MINEURES
10
74.128
20
115.874
0
VERTEX
8
CONTOURS_MINEURES
10
70.001
20
115.642
0
VERTEX
8
CONTOURS_MINEURES
10
65.617
20
115.619
0
VERTEX
8
CONTOURS_MINEURES
10
64.997
20
115.431
0
VERTEX
8
CONTOURS_MINEURES
10
60.580
20
114.999
0
VERTEX
8
CONTOURS_MINEURES
10
60.108
20
114.895
0
VERTEX
8
CONTOURS_MINEURES
10
60.004
20
114.904
0
VERTEX
8
CONTOURS_MINEURES
10
59.629
20
114.624
0
VERTEX
8
CONTOURS_MINEURES
10
55.001
20
111.056
0
VERTEX
8
CONTOURS_MINEURES
10
53.619
20
110.003
0
VERTEX
8
CONTOURS_MINEURES
10
49.997
20
105.797
0
VERTEX
8
CONTOURS_MINEURES
10
49.594
20
105.399
0
VERTEX
8
CONTOURS_MINEURES
10
49.323
20
104.995
0
VERTEX
8
CONTOURS_MINEURES
10
48.362
20
103.359
0
VERTEX
8
CONTOURS_MINEURES
10
46.055
20
99.999
0
VERTEX
8
CONTOURS_MINEURES
10
45.004
20
97.100
0
VERTEX
8
CONTOURS_MINEURES
10
44.630
20
95.376
0
VERTEX
8
CONTOURS_MINEURES
10
44.610
20
95.002
0
VERTEX
8
CONTOURS_MINEURES
10
43.139
20
91.861
0
VERTEX
8
CONTOURS_MINEURES
10
42.156
20
89.995
0
VERTEX
8
CONTOURS_MINEURES
10
40.000
20
86.863
0
VERTEX
8
CONTOURS_MINEURES
10
38.971
20
84.999
0
VERTEX
8
CONTOURS_MINEURES
10
37.866
20
82.134
0
VERTEX
8
CONTOURS_MINEURES
10
37.311
20
80.002
0
VERTEX
8
CONTOURS_MINEURES
10
36.877
20
78.121
0
VERTEX
8
CONTOURS_MINEURES
10
36.165
20
74.995
0
VERTEX
8
CONTOURS_MINEURES
10
36.353
20
73.640
0
VERTEX
8
CONTOURS_MINEURES
10
37.441
20
69.998
0
VERTEX
8
CONTOURS_MINEURES
10
37.645
20
67.354
0
VERTEX
8
CONTOURS_MINEURES
10
37.243
20
65.002
0
VERTEX
8
CONTOURS_MINEURES
10
34.997
20
61.756
0
VERTEX
8
CONTOURS_MINEURES
10
34.234
20
60.760
0
VERTEX
8
CONTOURS_MINEURES
10
33.590
20
59.994
0
VERTEX
8
CONTOURS_MINEURES
10
30.004
20
56.637
0
VERTEX
8
CONTOURS_MINEURES
10
27.922
20
54.998
0
VERTEX
8
CONTOURS_MINEURES
10
26.288
20
53.713
0
VERTEX
8
CONTOURS_MINEURES
10
25.000
20
53.172
0
VERTEX
8
CONTOURS_MINEURES
10
22.434
20
52.436
0
VERTEX
8
CONTOURS_MINEURES
10
19.997
20
51.437
0
VERTEX
8
CONTOURS_MINEURES
10
16.020
20
50.002
0
VERTEX
8
CONTOURS_MINEURES
10
15.423
20
49.582
0
VERTEX
8
CONTOURS_MINEURES
10
15.004
20
49.585
0
VERTEX
8
CONTOURS_MINEURES
10
14.433
20
49.432
0
VERTEX
8
CONTOURS_MINEURES
10
10.000
20
47.651
0
VERTEX
8
CONTOURS_MINEURES
10
5.113
20
45.005
0
VERTEX
8
CONTOURS_MINEURES
10
4.997
20
44.859
0
VERTEX
8
CONTOURS_MINEURES
10
0.730
20
39.998
0
VERTEX
8
CONTOURS_MINEURES
10
0.482
20
39.520
0
VERTEX
8
CONTOURS_MINEURES
10
0.004
20
39.091
0
SEQEND
0
POLYLINE
8
CONTOURS_MINEURES
66
1
70
0
0
VERTEX
8
CONTOURS_MINEURES
10
0.004
20
151.227
0
VERTEX
8
CONTOURS_MINEURES
10
1.973
20
153.029
0
VERTEX
8
CONTOURS_MINEURES
10
4.997
20
154.067
0
VERTEX
8
CONTOURS_MINEURES
10
6.417
20
155.004
0
VERTEX
8
CONTOURS_MINEURES
10
7.693
20
157.308
0
VERTEX
8
CONTOURS_MINEURES
10
9.604
20
160.000
0
VERTEX
8
CONTOURS_MINEURES
10
9.702
20
160.298
0
VERTEX
8
CONTOURS_MINEURES
10
10.000
20
161.727
0
VERTEX
8
CONTOURS_MINEURES
10
10.486
20
164.511
0
VERTEX
8
CONTOURS_MINEURES
10
10.584
20
164.996
0
VERTEX
8
CONTOURS_MINEURES
10
12.070
20
167.933
0
VERTEX
8
CONTOURS_MINEURES
10
13.977
20
170.004
0
SEQEND
0
POLYLINE
8
CONTOURS_MINEURES
66
1
70
0
0
VERTEX
8
CONTOURS_MINEURES
10
144.014
20
0.004
0
VERTEX
8
CONTOURS_MINEURES
10
144.503
20
0.501
0
VERTEX
8
CONTOURS_MINEURES
10
145.001
20
0.902
0
VERTEX
8
CONTOURS_MINEURES
10
147.099
20
2.906
0
VERTEX
8
CONTOURS_MINEURES
10
149.326
20
5.001
0
VERTEX
8
CONTOURS_MINEURES
10
150.005
20
5.630
0
VERTEX
8
CONTOURS_MINEURES
10
152.095
20
7.905
0
VERTEX
8
CONTOURS_MINEURES
10
154.400
20
9.997
0
VERTEX
8
CONTOURS_MINEURES
10
154.997
20
10.805
0
SEQEND
0
POLYLINE
8
CONTOURS_MINEURES
66
1
70
0
0
VERTEX
8
CONTOURS_MINEURES
10
116.806
20
170.004
0
VERTEX
8
CONTOURS_MINEURES
10
115.851
20
165.847
0
VERTEX
8
CONTOURS_MINEURES
10
115.746
20
164.996
0
VERTEX
8
CONTOURS_MINEURES
10
115.693
20
164.305
0
VERTEX
8
CONTOURS_MINEURES
10
115.001
20
163.630
0
VERTEX
8
CONTOURS_MINEURES
10
113.850
20
161.149
0
VERTEX
8
CONTOURS_MINEURES
10
113.190
20
160.000
0
VERTEX
8
CONTOURS_MINEURES
10
109.997
20
155.318
0
VERTEX
8
CONTOURS_MINEURES
10
109.887
20
155.114
0
VERTEX
8
CONTOURS_MINEURES
10
109.758
20
155.004
0
VERTEX
8
CONTOURS_MINEURES
10
109.565
20
154.570
0
VERTEX
8
CONTOURS_MINEURES
10
108.314
20
149.996
0
VERTEX
8
CONTOURS_MINEURES
10
107.607
20
147.391
0
VERTEX
8
CONTOURS_MINEURES
10
107.123
20
145.000
0
VERTEX
8
CONTOURS_MINEURES
10
106.506
20
143.497
0
VERTEX
8
CONTOURS_MINEURES
10
105.004
20
141.450
0
VERTEX
8
CONTOURS_MINEURES
10
104.117
20
140.003
0
VERTEX
8
CONTOURS_MINEURES
10
102.636
20
137.366
0
VERTEX
8
CONTOURS_MINEURES
10
101.525
20
134.996
0
VERTEX
8
CONTOURS_MINEURES
10
100.001
20
131.046
0
VERTEX
8
CONTOURS_MINEURES
10
99.415
20
129.999
0
VERTEX
8
CONTOURS_MINEURES
10
98.145
20
126.857
0
VERTEX
8
CONTOURS_MINEURES
10
96.728
20
125.003
0
VERTEX
8
CONTOURS_MINEURES
10
96.146
20
123.854
0
VERTEX
8
CONTOURS_MINEURES
10
94.997
20
122.373
0
VERTEX
8
CONTOURS_MINEURES
10
92.843
20
119.996
0
VERTEX
8
CONTOURS_MINEURES
10
90.929
20
119.071
0
VERTEX
8
CONTOURS_MINEURES
10
90.004
20
118.666
0
VERTEX
8
CONTOURS_MINEURES
10
87.214
20
117.209
0
VERTEX
8
CONTOURS_MINEURES
10
85.001
20
116.180
0
VERTEX
8
CONTOURS_MINEURES
10
82.499
20
114.999
0
VERTEX
8
CONTOURS_MINEURES
10
81.160
20
113.838
0
VERTEX
8
CONTOURS_MINEURES
10
79.997
20
112.897
0
VERTEX
8
CONTOURS_MINEURES
10
77.571
20
112.571
0
VERTEX
8
CONTOURS_MINEURES
10
75.004
20
111.791
0
VERTEX
8
CONTOURS_MINEURES
10
73.381
20
111.624
0
VERTEX
8
CONTOURS_MINEURES
10
70.001
20
111.240
0
VERTEX
8
CONTOURS_MINEURES
10
68.774
20
111.227
0
VERTEX
8
CONTOURS_MINEURES
10
64.997
20
111.739
0
VERTEX
8
CONTOURS_MINEURES
10
63.575
20
111.425
0
VERTEX
8
CONTOURS_MINEURES
10
60.004
20
111.721
0
VERTEX
8
CONTOURS_MINEURES
10
57.695
20
110.003
0
VERTEX
8
CONTOURS_MINEURES
10
56.433
20
108.569
0
VERTEX
8
CONTOURS_MINEURES
10
55.001
20
107.812
0
VERTEX
8
CONTOURS_MINEURES
10
52.506
20
104.995
0
VERTEX
8
CONTOURS_MINEURES
10
51.584
20
103.411
0
VERTEX
8
CONTOURS_MINEURES
10
49.997
20
101.711
0
VERTEX
8
CONTOURS_MINEURES
10
48.821
20
99.999
0
VERTEX
8
CONTOURS_MINEURES
10
48.152
20
98.152
0
VERTEX
8
CONTOURS_MINEURES
10
46.548
20
95.002
0
VERTEX
8
CONTOURS_MINEURES
10
45.004
20
92.782
0
VERTEX
8
CONTOURS_MINEURES
10
44.116
20
90.884
0
VERTEX
8
CONTOURS_MINEURES
10
43.647
20
89.995
0
VERTEX
8
CONTOURS_MINEURES
10
40.668
20
85.665
0
VERTEX
8
CONTOURS_MINEURES
10
40.319
20
84.999
0
VERTEX
8
CONTOURS_MINEURES
10
40.000
20
84.564
0
VERTEX
8
CONTOURS_MINEURES
10
38.730
20
81.271
0
VERTEX
8
CONTOURS_MINEURES
10
38.400
20
80.002
0
VERTEX
8
CONTOURS_MINEURES
10
37.762
20
77.235
0
VERTEX
8
CONTOURS_MINEURES
10
37.251
20
74.995
0
VERTEX
8
CONTOURS_MINEURES
10
37.615
20
72.380
0
VERTEX
8
CONTOURS_MINEURES
10
38.327
20
69.998
0
VERTEX
8
CONTOURS_MINEURES
10
38.604
20
66.396
0
VERTEX
8
CONTOURS_MINEURES
10
38.366
20
65.002
0
VERTEX
8
CONTOURS_MINEURES
10
34.997
20
60.132
0
VERTEX
8
CONTOURS_MINEURES
10
34.937
20
60.054
0
VERTEX
8
CONTOURS_MINEURES
10
34.887
20
59.994
0
VERTEX
8
CONTOURS_MINEURES
10
30.004
20
55.423
0
VERTEX
8
CONTOURS_MINEURES
10
29.464
20
54.998
0
VERTEX
8
CONTOURS_MINEURES
10
26.967
20
53.034
0
VERTEX
8
CONTOURS_MINEURES
10
25.000
20
52.208
0
VERTEX
8
CONTOURS_MINEURES
10
21.080
20
51.083
0
VERTEX
8
CONTOURS_MINEURES
10
19.997
20
50.640
0
VERTEX
8
CONTOURS_MINEURES
10
18.229
20
50.002
0
VERTEX
8
CONTOURS_MINEURES
10
16.334
20
48.671
0
VERTEX
8
CONTOURS_MINEURES
10
15.004
20
48.678
0
VERTEX
8
CONTOURS_MINEURES
10
13.193
20
48.194
0
VERTEX
8
CONTOURS_MINEURES
10
10.000
20
46.911
0
VERTEX
8
CONTOURS_MINEURES
10
6.480
20
45.005
0
VERTEX
8
CONTOURS_MINEURES
10
4.997
20
43.135
0
VERTEX
8
CONTOURS_MINEURES
10
2.243
20
39.998
0
VERTEX
8
CONTOURS_MINEURES
10
1.477
20
38.523
0
VERTEX
8
CONTOURS_MINEURES
10
0.004
20
37.202
0
SEQEND
0
POLYLINE
8
CONTOURS_MINEURES
66
1
70
0
0
VERTEX
8
CONTOURS_MINEURES
10
0.004
20
152.128
0
VERTEX
8
CONTOURS_MINEURES
10
1.503
20
153.500
0
VERTEX
8
CONTOURS_MINEURES
10
4.997
20
154.700
0
VERTEX
8
CONTOURS_MINEURES
10
5.457
20
155.004
0
VERTEX
8
CONTOURS_MINEURES
10
7.075
20
157.924
0
VERTEX
8
CONTOURS_MINEURES
10
8.549
20
160.000
0
VERTEX
8
CONTOURS_MINEURES
10
8.907
20
161.092
0
VERTEX
8
CONTOURS_MINEURES
10
9.722
20
164.996
0
VERTEX
8
CONTOURS_MINEURES
10
10.000
20
165.467
0
VERTEX
8
CONTOURS_MINEURES
10
11.525
20
168.478
0
VERTEX
8
CONTOURS_MINEURES
10
12.929
20
170.004
0
SEQEND
0
POLYLINE
8
CONTOURS_MINEURES
66
1
70
0
0
VERTEX
8
CONTOURS_MINEURES
10
141.345
20
0.004
0
VERTEX
8
CONTOURS_MINEURES
10
143.158
20
1.844
0
VERTEX
8
CONTOURS_MINEURES
10
145.001
20
3.327
0
VERTEX
8
CONTOURS_MINEURES
10
145.858
20
4.145
0
VERTEX
8
CONTOURS_MINEURES
10
146.767
20
5.001
0
VERTEX
8
CONTOURS_MINEURES
10
150.005
20
8.003
0
VERTEX
8
CONTOURS_MINEURES
10
150.959
20
9.042
0
VERTEX
8
CONTOURS_MINEURES
10
152.011
20
9.997
0
VERTEX
8
CONTOURS_MINEURES
10
154.997
20
14.036
0
SEQEND
0
POLYLINE
8
CONTOURS_MINEURES
66
1
70
0
0
VERTEX
8
CONTOURS_MINEURES
10
154.997
20
157.502
0
VERTEX
8
CONTOURS_MINEURES
10
153.333
20
160.000
0
VERTEX
8
CONTOURS_MINEURES
10
153.548
20
163.546
0
VERTEX
8
CONTOURS_MINEURES
10
152.632
20
164.996
0
VERTEX
8
CONTOURS_MINEURES
10
153.269
20
166.730
0
VERTEX
8
CONTOURS_MINEURES
10
154.472
20
170.004
0
SEQEND
0
POLYLINE
8
CONTOURS_MINEURES
66
1
70
0
0
VERTEX
8
CONTOURS_MINEURES
10
118.676
20
170.004
0
VERTEX
8
CONTOURS_MINEURES
10
118.280
20
168.278
0
VERTEX
8
CONTOURS_MINEURES
10
117.875
20
164.996
0
VERTEX
8
CONTOURS_MINEURES
10
117.671
20
162.330
0
VERTEX
8
CONTOURS_MINEURES
10
115.281
20
160.000
0
VERTEX
8
CONTOURS_MINEURES
10
115.001
20
159.643
0
VERTEX
8
CONTOURS_MINEURES
10
112.471
20
155.004
0
VERTEX
8
CONTOURS_MINEURES
10
111.551
20
151.551
0
VERTEX
8
CONTOURS_MINEURES
10
111.442
20
149.996
0
VERTEX
8
CONTOURS_MINEURES
10
111.193
20
148.802
0
VERTEX
8
CONTOURS_MINEURES
10
109.997
20
145.683
0
VERTEX
8
CONTOURS_MINEURES
10
109.851
20
145.146
0
VERTEX
8
CONTOURS_MINEURES
10
109.822
20
145.000
0
VERTEX
8
CONTOURS_MINEURES
10
108.419
20
141.583
0
VERTEX
8
CONTOURS_MINEURES
10
107.260
20
140.003
0
VERTEX
8
CONTOURS_MINEURES
10
105.004
20
136.649
0
VERTEX
8
CONTOURS_MINEURES
10
104.410
20
135.591
0
VERTEX
8
CONTOURS_MINEURES
10
104.131
20
134.996
0
VERTEX
8
CONTOURS_MINEURES
10
103.584
20
133.577
0
VERTEX
8
CONTOURS_MINEURES
10
102.729
20
129.999
0
VERTEX
8
CONTOURS_MINEURES
10
101.529
20
126.529
0
VERTEX
8
CONTOURS_MINEURES
10
101.373
20
125.003
0
VERTEX
8
CONTOURS_MINEURES
10
100.001
20
122.102
0
VERTEX
8
CONTOURS_MINEURES
10
99.293
20
120.704
0
VERTEX
8
CONTOURS_MINEURES
10
98.743
20
119.996
0
VERTEX
8
CONTOURS_MINEURES
10
94.997
20
117.884
0
VERTEX
8
CONTOURS_MINEURES
10
93.053
20
116.945
0
VERTEX
8
CONTOURS_MINEURES
10
90.004
20
115.610
0
VERTEX
8
CONTOURS_MINEURES
10
88.834
20
114.999
0
VERTEX
8
CONTOURS_MINEURES
10
86.726
20
113.277
0
VERTEX
8
CONTOURS_MINEURES
10
85.001
20
110.883
0
VERTEX
8
CONTOURS_MINEURES
10
84.529
20
110.474
0
VERTEX
8
CONTOURS_MINEURES
10
83.947
20
110.003
0
VERTEX
8
CONTOURS_MINEURES
10
81.748
20
108.250
0
VERTEX
8
CONTOURS_MINEURES
10
79.997
20
107.438
0
VERTEX
8
CONTOURS_MINEURES
10
77.309
20
107.306
0
VERTEX
8
CONTOURS_MINEURES
10
75.004
20
107.072
0
VERTEX
8
CONTOURS_MINEURES
10
73.128
20
106.873
0
VERTEX
8
CONTOURS_MINEURES
10
70.001
20
106.793
0
VERTEX
8
CONTOURS_MINEURES
10
67.920
20
107.078
0
VERTEX
8
CONTOURS_MINEURES
10
64.997
20
106.843
0
VERTEX
8
CONTOURS_MINEURES
10
62.458
20
107.456
0
VERTEX
8
CONTOURS_MINEURES
10
60.004
20
107.766
0
VERTEX
8
CONTOURS_MINEURES
10
58.708
20
106.293
0
VERTEX
8
CONTOURS_MINEURES
10
56.251
20
104.995
0
VERTEX
8
CONTOURS_MINEURES
10
55.001
20
103.991
0
VERTEX
8
CONTOURS_MINEURES
10
53.531
20
101.467
0
VERTEX
8
CONTOURS_MINEURES
10
52.160
20
99.999
0
VERTEX
8
CONTOURS_MINEURES
10
51.242
20
98.755
0
VERTEX
8
CONTOURS_MINEURES
10
49.997
20
97.595
0
VERTEX
8
CONTOURS_MINEURES
10
48.677
20
95.002
0
VERTEX
8
CONTOURS_MINEURES
10
45.637
20
90.630
0
VERTEX
8
CONTOURS_MINEURES
10
45.279
20
89.995
0
VERTEX
8
CONTOURS_MINEURES
10
45.202
20
89.797
0
VERTEX
8
CONTOURS_MINEURES
10
45.004
20
89.604
0
VERTEX
8
CONTOURS_MINEURES
10
42.593
20
84.999
0
VERTEX
8
CONTOURS_MINEURES
10
40.000
20
81.461
0
VERTEX
8
CONTOURS_MINEURES
10
39.594
20
80.408
0
VERTEX
8
CONTOURS_MINEURES
10
39.489
20
80.002
0
VERTEX
8
CONTOURS_MINEURES
10
38.647
20
76.350
0
VERTEX
8
CONTOURS_MINEURES
10
38.338
20
74.995
0
VERTEX
8
CONTOURS_MINEURES
10
38.877
20
71.120
0
VERTEX
8
CONTOURS_MINEURES
10
39.212
20
69.998
0
VERTEX
8
CONTOURS_MINEURES
10
39.564
20
65.438
0
VERTEX
8
CONTOURS_MINEURES
10
39.489
20
65.002
0
VERTEX
8
CONTOURS_MINEURES
10
38.339
20
63.339
0
VERTEX
8
CONTOURS_MINEURES
10
36.183
20
59.994
0
VERTEX
8
CONTOURS_MINEURES
10
35.744
20
59.249
0
VERTEX
8
CONTOURS_MINEURES
10
34.997
20
58.698
0
VERTEX
8
CONTOURS_MINEURES
10
31.000
20
54.998
0
VERTEX
8
CONTOURS_MINEURES
10
30.004
20
54.210
0
VERTEX
8
CONTOURS_MINEURES
10
27.647
20
52.356
0
VERTEX
8
CONTOURS_MINEURES
10
25.000
20
51.245
0
VERTEX
8
CONTOURS_MINEURES
10
20.668
20
50.002
0
VERTEX
8
CONTOURS_MINEURES
10
19.997
20
49.691
0
VERTEX
8
CONTOURS_MINEURES
10
17.245
20
47.759
0
VERTEX
8
CONTOURS_MINEURES
10
15.004
20
47.771
0
VERTEX
8
CONTOURS_MINEURES
10
11.953
20
46.956
0
VERTEX
8
CONTOURS_MINEURES
10
10.000
20
46.171
0
VERTEX
8
CONTOURS_MINEURES
10
7.847
20
45.005
0
VERTEX
8
CONTOURS_MINEURES
10
4.997
20
41.411
0
VERTEX
8
CONTOURS_MINEURES
10
3.756
20
39.998
0
VERTEX
8
CONTOURS_MINEURES
10
2.473
20
37.527
0
VERTEX
8
CONTOURS_MINEURES
10
0.004
20
35.313
0
SEQEND
0
POLYLINE
8
CONTOURS_MINEURES
66
1
70
0
0
VERTEX
8
CONTOURS_MINEURES
10
0.004
20
153.029
0
VERTEX
8
CONTOURS_MINEURES
10
1.033
20
153.971
0
VERTEX
8
CONTOURS_MINEURES
10
4.039
20
155.004
0
VERTEX
8
CONTOURS_MINEURES
10
4.997
20
155.904
0
VERTEX
8
CONTOURS_MINEURES
10
6.458
20
158.541
0
VERTEX
8
CONTOURS_MINEURES
10
7.493
20
160.000
0
VERTEX
8
CONTOURS_MINEURES
10
8.111
20
161.887
0
VERTEX
8
CONTOURS_MINEURES
10
8.760
20
164.996
0
VERTEX
8
CONTOURS_MINEURES
10
10.000
20
167.090
0
VERTEX
8
CONTOURS_MINEURES
10
10.979
20
169.024
0
VERTEX
8
CONTOURS_MINEURES
10
11.881
20
170.004
0
SEQEND
0
POLYLINE
8
CONTOURS_MINEURES
66
1
70
0
0
VERTEX
8
CONTOURS_MINEURES
10
138.269
20
0.004
0
VERTEX
8
CONTOURS_MINEURES
10
139.997
20
1.345
0
VERTEX
8
CONTOURS_MINEURES
10
141.813
20
3.188
0
VERTEX
8
CONTOURS_MINEURES
10
144.067
20
5.001
0
VERTEX
8
CONTOURS_MINEURES
10
144.501
20
5.500
0
VERTEX
8
CONTOURS_MINEURES
10
145.001
20
5.808
0
VERTEX
8
CONTOURS_MINEURES
10
149.552
20
9.997
0
VERTEX
8
CONTOURS_MINEURES
10
149.717
20
10.285
0
VERTEX
8
CONTOURS_MINEURES
10
150.005
20
10.535
0
VERTEX
8
CONTOURS_MINEURES
10
153.276
20
15.005
0
VERTEX
8
CONTOURS_MINEURES
10
154.997
20
16.921
0
SEQEND
0
POLYLINE
8
CONTOURS_MINEURES
66
1
70
0
0
VERTEX
8
CONTOURS_MINEURES
10
154.997
20
124.212
0
VERTEX
8
CONTOURS_MINEURES
10
154.498
20
124.502
0
VERTEX
8
CONTOURS_MINEURES
10
151.253
20
125.003
0
VERTEX
8
CONTOURS_MINEURES
10
150.222
20
125.220
0
VERTEX
8
CONTOURS_MINEURES
10
150.005
20
125.241
0
VERTEX
8
CONTOURS_MINEURES
10
149.620
20
125.387
0
VERTEX
8
CONTOURS_MINEURES
10
145.001
20
127.601
0
VERTEX
8
CONTOURS_MINEURES
10
143.667
20
128.667
0
VERTEX
8
CONTOURS_MINEURES
10
141.469
20
129.999
0
VERTEX
8
CONTOURS_MINEURES
10
140.656
20
130.657
0
VERTEX
8
CONTOURS_MINEURES
10
139.997
20
131.189
0
VERTEX
8
CONTOURS_MINEURES
10
137.648
20
132.645
0
VERTEX
8
CONTOURS_MINEURES
10
135.005
20
134.996
0
VERTEX
8
CONTOURS_MINEURES
10
133.418
20
140.003
0
VERTEX
8
CONTOURS_MINEURES
10
132.803
20
142.801
0
VERTEX
8
CONTOURS_MINEURES
10
132.966
20
145.000
0
VERTEX
8
CONTOURS_MINEURES
10
132.888
20
147.114
0
VERTEX
8
CONTOURS_MINEURES
10
132.730
20
149.996
0
VERTEX
8
CONTOURS_MINEURES
10
132.398
20
152.604
0
VERTEX
8
CONTOURS_MINEURES
10
132.449
20
155.004
0
VERTEX
8
CONTOURS_MINEURES
10
131.919
20
156.919
0
VERTEX
8
CONTOURS_MINEURES
10
130.001
20
160.000
0
VERTEX
8
CONTOURS_MINEURES
10
128.448
20
163.446
0
VERTEX
8
CONTOURS_MINEURES
10
126.537
20
164.996
0
VERTEX
8
CONTOURS_MINEURES
10
124.997
20
166.537
0
VERTEX
8
CONTOURS_MINEURES
10
124.675
20
165.319
0
VERTEX
8
CONTOURS_MINEURES
10
120.004
20
164.996
0
VERTEX
8
CONTOURS_MINEURES
10
119.648
20
160.355
0
VERTEX
8
CONTOURS_MINEURES
10
119.284
20
160.000
0
VERTEX
8
CONTOURS_MINEURES
10
116.669
20
156.669
0
VERTEX
8
CONTOURS_MINEURES
10
116.269
20
155.004
0
VERTEX
8
CONTOURS_MINEURES
10
115.001
20
150.497
0
VERTEX
8
CONTOURS_MINEURES
10
114.966
20
149.996
0
VERTEX
8
CONTOURS_MINEURES
10
114.111
20
145.888
0
VERTEX
8
CONTOURS_MINEURES
10
113.770
20
145.000
0
VERTEX
8
CONTOURS_MINEURES
10
111.821
20
141.825
0
VERTEX
8
CONTOURS_MINEURES
10
111.304
20
140.003
0
VERTEX
8
CONTOURS_MINEURES
10
111.120
20
138.880
0
VERTEX
8
CONTOURS_MINEURES
10
109.997
20
138.543
0
VERTEX
8
CONTOURS_MINEURES
10
108.050
20
134.996
0
VERTEX
8
CONTOURS_MINEURES
10
107.650
20
132.348
0
VERTEX
8
CONTOURS_MINEURES
10
106.669
20
129.999
0
VERTEX
8
CONTOURS_MINEURES
10
106.172
20
126.171
0
VERTEX
8
CONTOURS_MINEURES
10
106.316
20
125.003
0
VERTEX
8
CONTOURS_MINEURES
10
105.004
20
121.247
0
VERTEX
8
CONTOURS_MINEURES
10
104.645
20
119.996
0
VERTEX
8
CONTOURS_MINEURES
10
103.373
20
116.628
0
VERTEX
8
CONTOURS_MINEURES
10
100.001
20
116.360
0
VERTEX
8
CONTOURS_MINEURES
10
96.131
20
114.999
0
VERTEX
8
CONTOURS_MINEURES
10
95.384
20
114.613
0
VERTEX
8
CONTOURS_MINEURES
10
94.997
20
114.642
0
VERTEX
8
CONTOURS_MINEURES
10
93.711
20
113.712
0
VERTEX
8
CONTOURS_MINEURES
10
90.004
20
111.174
0
VERTEX
8
CONTOURS_MINEURES
10
89.359
20
110.647
0
VERTEX
8
CONTOURS_MINEURES
10
88.895
20
110.003
0
VERTEX
8
CONTOURS_MINEURES
10
85.464
20
105.459
0
VERTEX
8
CONTOURS_MINEURES
10
85.138
20
104.995
0
VERTEX
8
CONTOURS_MINEURES
10
85.073
20
104.923
0
VERTEX
8
CONTOURS_MINEURES
10
85.001
20
104.897
0
VERTEX
8
CONTOURS_MINEURES
10
84.835
20
104.830
0
VERTEX
8
CONTOURS_MINEURES
10
79.997
20
102.964
0
VERTEX
8
CONTOURS_MINEURES
10
77.355
20
102.352
0
VERTEX
8
CONTOURS_MINEURES
10
75.004
20
102.233
0
VERTEX
8
CONTOURS_MINEURES
10
72.832
20
102.168
0
VERTEX
8
CONTOURS_MINEURES
10
70.001
20
101.945
0
VERTEX
8
CONTOURS_MINEURES
10
66.740
20
101.739
0
VERTEX
8
CONTOURS_MINEURES
10
64.997
20
101.604
0
VERTEX
8
CONTOURS_MINEURES
10
62.905
20
102.092
0
VERTEX
8
CONTOURS_MINEURES
10
60.004
20
102.032
0
VERTEX
8
CONTOURS_MINEURES
10
57.271
20
99.999
0
VERTEX
8
CONTOURS_MINEURES
10
55.905
20
99.095
0
VERTEX
8
CONTOURS_MINEURES
10
55.001
20
98.750
0
VERTEX
8
CONTOURS_MINEURES
10
53.408
20
96.592
0
VERTEX
8
CONTOURS_MINEURES
10
51.702
20
95.002
0
VERTEX
8
CONTOURS_MINEURES
10
51.022
20
93.977
0
VERTEX
8
CONTOURS_MINEURES
10
49.997
20
92.945
0
VERTEX
8
CONTOURS_MINEURES
10
48.333
20
89.995
0
VERTEX
8
CONTOURS_MINEURES
10
47.402
20
87.596
0
VERTEX
8
CONTOURS_MINEURES
10
45.004
20
85.259
0
VERTEX
8
CONTOURS_MINEURES
10
44.868
20
84.999
0
VERTEX
8
CONTOURS_MINEURES
10
44.495
20
84.491
0
VERTEX
8
CONTOURS_MINEURES
10
41.895
20
80.002
0
VERTEX
8
CONTOURS_MINEURES
10
40.000
20
77.498
0
VERTEX
8
CONTOURS_MINEURES
10
39.532
20
75.464
0
VERTEX
8
CONTOURS_MINEURES
10
39.425
20
74.995
0
VERTEX
8
CONTOURS_MINEURES
10
40.000
20
70.857
0
VERTEX
8
CONTOURS_MINEURES
10
40.182
20
69.998
0
VERTEX
8
CONTOURS_MINEURES
10
40.786
20
65.787
0
VERTEX
8
CONTOURS_MINEURES
10
40.705
20
65.002
0
VERTEX
8
CONTOURS_MINEURES
10
40.561
20
64.441
0
VERTEX
8
CONTOURS_MINEURES
10
40.000
20
63.906
0
VERTEX
8
CONTOURS_MINEURES
10
37.479
20
59.994
0
VERTEX
8
CONTOURS_MINEURES
10
36.560
20
58.434
0
VERTEX
8
CONTOURS_MINEURES
10
34.997
20
57.280
0
VERTEX
8
CONTOURS_MINEURES
10
32.531
20
54.998
0
VERTEX
8
CONTOURS_MINEURES
10
30.004
20
52.997
0
VERTEX
8
CONTOURS_MINEURES
10
28.326
20
51.677
0
VERTEX
8
CONTOURS_MINEURES
10
25.000
20
50.281
0
VERTEX
8
CONTOURS_MINEURES
10
24.027
20
50.002
0
VERTEX
8
CONTOURS_MINEURES
10
19.997
20
48.140
0
VERTEX
8
CONTOURS_MINEURES
10
18.156
20
46.847
0
VERTEX
8
CONTOURS_MINEURES
10
15.004
20
46.864
0
VERTEX
8
CONTOURS_MINEURES
10
10.713
20
45.717
0
VERTEX
8
CONTOURS_MINEURES
10
10.000
20
45.431
0
VERTEX
8
CONTOURS_MINEURES
10
9.214
20
45.005
0
VERTEX
8
CONTOURS_MINEURES
10
6.190
20
41.192
0
VERTEX
8
CONTOURS_MINEURES
10
5.243
20
39.998
0
VERTEX
8
CONTOURS_MINEURES
10
5.219
20
39.776
0
VERTEX
8
CONTOURS_MINEURES
10
4.997
20
39.473
0
VERTEX
8
CONTOURS_MINEURES
10
3.468
20
36.531
0
VERTEX
8
CONTOURS_MINEURES
10
1.763
20
35.001
0
VERTEX
8
CONTOURS_MINEURES
10
0.004
20
31.677
0
SEQEND
0
POLYLINE
8
CONTOURS_MINEURES
66
1
70
0
0
VERTEX
8
CONTOURS_MINEURES
10
0.004
20
153.931
0
VERTEX
8
CONTOURS_MINEURES
10
0.563
20
154.443
0
VERTEX
8
CONTOURS_MINEURES
10
2.196
20
155.004
0
VERTEX
8
CONTOURS_MINEURES
10
4.997
20
157.636
0
VERTEX
8
CONTOURS_MINEURES
10
5.840
20
159.158
0
VERTEX
8
CONTOURS_MINEURES
10
6.438
20
160.000
0
VERTEX
8
CONTOURS_MINEURES
10
7.316
20
162.681
0
VERTEX
8
CONTOURS_MINEURES
10
7.799
20
164.996
0
VERTEX
8
CONTOURS_MINEURES
10
10.000
20
168.713
0
VERTEX
8
CONTOURS_MINEURES
10
10.434
20
169.570
0
VERTEX
8
CONTOURS_MINEURES
10
10.833
20
170.004
0
SEQEND
0
POLYLINE
8
CONTOURS_MINEURES
66
1
70
0
0
VERTEX
8
CONTOURS_MINEURES
10
134.717
20
0.004
0
VERTEX
8
CONTOURS_MINEURES
10
134.871
20
0.137
0
VERTEX
8
CONTOURS_MINEURES
10
135.005
20
0.197
0
VERTEX
8
CONTOURS_MINEURES
10
135.787
20
0.787
0
VERTEX
8
CONTOURS_MINEURES
10
139.997
20
4.053
0
VERTEX
8
CONTOURS_MINEURES
10
140.468
20
4.531
0
VERTEX
8
CONTOURS_MINEURES
10
141.052
20
5.001
0
VERTEX
8
CONTOURS_MINEURES
10
142.890
20
7.109
0
VERTEX
8
CONTOURS_MINEURES
10
145.001
20
8.410
0
VERTEX
8
CONTOURS_MINEURES
10
146.725
20
9.997
0
VERTEX
8
CONTOURS_MINEURES
10
147.920
20
12.083
0
VERTEX
8
CONTOURS_MINEURES
10
150.005
20
13.896
0
VERTEX
8
CONTOURS_MINEURES
10
150.816
20
15.005
0
VERTEX
8
CONTOURS_MINEURES
10
154.997
20
19.659
0
SEQEND
0
POLYLINE
8
CONTOURS_MINEURES
66
1
70
0
0
VERTEX
8
CONTOURS_MINEURES
10
154.997
20
72.853
0
VERTEX
8
CONTOURS_MINEURES
10
154.613
20
74.995
0
VERTEX
8
CONTOURS_MINEURES
10
153.000
20
77.999
0
VERTEX
8
CONTOURS_MINEURES
10
152.501
20
80.002
0
VERTEX
8
CONTOURS_MINEURES
10
151.240
20
81.238
0
VERTEX
8
CONTOURS_MINEURES
10
150.005
20
82.857
0
VERTEX
8
CONTOURS_MINEURES
10
148.239
20
84.999
0
VERTEX
8
CONTOURS_MINEURES
10
147.145
20
87.140
0
VERTEX
8
CONTOURS_MINEURES
10
145.001
20
88.924
0
VERTEX
8
CONTOURS_MINEURES
10
143.816
20
89.995
0
VERTEX
8
CONTOURS_MINEURES
10
142.230
20
92.229
0
VERTEX
8
CONTOURS_MINEURES
10
140.261
20
95.002
0
VERTEX
8
CONTOURS_MINEURES
10
139.997
20
95.240
0
VERTEX
8
CONTOURS_MINEURES
10
137.184
20
97.184
0
VERTEX
8
CONTOURS_MINEURES
10
135.005
20
99.696
0
VERTEX
8
CONTOURS_MINEURES
10
134.620
20
99.999
0
VERTEX
8
CONTOURS_MINEURES
10
132.225
20
102.220
0
VERTEX
8
CONTOURS_MINEURES
10
130.716
20
104.995
0
VERTEX
8
CONTOURS_MINEURES
10
130.330
20
105.325
0
VERTEX
8
CONTOURS_MINEURES
10
130.001
20
105.621
0
VERTEX
8
CONTOURS_MINEURES
10
128.529
20
106.468
0
VERTEX
8
CONTOURS_MINEURES
10
124.997
20
108.125
0
VERTEX
8
CONTOURS_MINEURES
10
123.982
20
108.984
0
VERTEX
8
CONTOURS_MINEURES
10
122.392
20
110.003
0
VERTEX
8
CONTOURS_MINEURES
10
120.004
20
111.040
0
VERTEX
8
CONTOURS_MINEURES
10
117.882
20
112.879
0
VERTEX
8
CONTOURS_MINEURES
10
115.001
20
114.384
0
VERTEX
8
CONTOURS_MINEURES
10
112.682
20
112.318
0
VERTEX
8
CONTOURS_MINEURES
10
109.997
20
111.073
0
VERTEX
8
CONTOURS_MINEURES
10
108.799
20
110.003
0
VERTEX
8
CONTOURS_MINEURES
10
107.281
20
107.719
0
VERTEX
8
CONTOURS_MINEURES
10
105.004
20
107.542
0
VERTEX
8
CONTOURS_MINEURES
10
103.244
20
108.241
0
VERTEX
8
CONTOURS_MINEURES
10
100.251
20
110.003
0
VERTEX
8
CONTOURS_MINEURES
10
100.001
20
110.106
0
VERTEX
8
CONTOURS_MINEURES
10
99.933
20
110.071
0
VERTEX
8
CONTOURS_MINEURES
10
94.997
20
110.444
0
VERTEX
8
CONTOURS_MINEURES
10
94.388
20
110.003
0
VERTEX
8
CONTOURS_MINEURES
10
92.915
20
107.083
0
VERTEX
8
CONTOURS_MINEURES
10
90.881
20
104.995
0
VERTEX
8
CONTOURS_MINEURES
10
90.004
20
104.299
0
VERTEX
8
CONTOURS_MINEURES
10
87.957
20
102.044
0
VERTEX
8
CONTOURS_MINEURES
10
85.001
20
100.979
0
VERTEX
8
CONTOURS_MINEURES
10
82.595
20
99.999
0
VERTEX
8
CONTOURS_MINEURES
10
80.980
20
99.018
0
VERTEX
8
CONTOURS_MINEURES
10
79.997
20
98.732
0
VERTEX
8
CONTOURS_MINEURES
10
77.057
20
97.945
0
VERTEX
8
CONTOURS_MINEURES
10
75.004
20
97.489
0
VERTEX
8
CONTOURS_MINEURES
10
72.096
20
97.095
0
VERTEX
8
CONTOURS_MINEURES
10
70.001
20
96.943
0
VERTEX
8
CONTOURS_MINEURES
10
68.164
20
96.836
0
VERTEX
8
CONTOURS_MINEURES
10
64.997
20
96.445
0
VERTEX
8
CONTOURS_MINEURES
10
60.691
20
95.690
0
VERTEX
8
CONTOURS_MINEURES
10
60.004
20
95.677
0
VERTEX
8
CONTOURS_MINEURES
10
59.598
20
95.408
0
VERTEX
8
CONTOURS_MINEURES
10
58.536
20
95.002
0
VERTEX
8
CONTOURS_MINEURES
10
56.057
20
93.945
0
VERTEX
8
CONTOURS_MINEURES
10
55.001
20
93.209
0
VERTEX
8
CONTOURS_MINEURES
10
53.719
20
91.277
0
VERTEX
8
CONTOURS_MINEURES
10
52.445
20
89.995
0
VERTEX
8
CONTOURS_MINEURES
10
49.997
20
86.415
0
VERTEX
8
CONTOURS_MINEURES
10
49.601
20
85.395
0
VERTEX
8
CONTOURS_MINEURES
10
49.194
20
84.999
0
VERTEX
8
CONTOURS_MINEURES
10
47.461
20
82.540
0
VERTEX
8
CONTOURS_MINEURES
10
45.594
20
80.002
0
VERTEX
8
CONTOURS_MINEURES
10
45.306
20
79.699
0
VERTEX
8
CONTOURS_MINEURES
10
45.004
20
79.436
0
VERTEX
8
CONTOURS_MINEURES
10
41.579
20
74.995
0
VERTEX
8
CONTOURS_MINEURES
10
40.982
20
74.014
0
VERTEX
8
CONTOURS_MINEURES
10
41.830
20
69.998
0
VERTEX
8
CONTOURS_MINEURES
10
42.228
20
67.227
0
VERTEX
8
CONTOURS_MINEURES
10
41.998
20
65.002
0
VERTEX
8
CONTOURS_MINEURES
10
41.589
20
63.412
0
VERTEX
8
CONTOURS_MINEURES
10
40.000
20
61.895
0
VERTEX
8
CONTOURS_MINEURES
10
38.775
20
59.994
0
VERTEX
8
CONTOURS_MINEURES
10
37.376
20
57.619
0
VERTEX
8
CONTOURS_MINEURES
10
34.997
20
55.863
0
VERTEX
8
CONTOURS_MINEURES
10
34.063
20
54.998
0
VERTEX
8
CONTOURS_MINEURES
10
30.004
20
51.784
0
VERTEX
8
CONTOURS_MINEURES
10
29.005
20
50.999
0
VERTEX
8
CONTOURS_MINEURES
10
26.630
20
50.002
0
VERTEX
8
CONTOURS_MINEURES
10
25.000
20
48.533
0
VERTEX
8
CONTOURS_MINEURES
10
22.947
20
47.951
0
VERTEX
8
CONTOURS_MINEURES
10
19.997
20
46.588
0
VERTEX
8
CONTOURS_MINEURES
10
19.067
20
45.935
0
VERTEX
8
CONTOURS_MINEURES
10
15.004
20
45.957
0
VERTEX
8
CONTOURS_MINEURES
10
11.442
20
45.005
0
VERTEX
8
CONTOURS_MINEURES
10
10.000
20
44.271
0
VERTEX
8
CONTOURS_MINEURES
10
6.612
20
39.998
0
VERTEX
8
CONTOURS_MINEURES
10
6.451
20
38.546
0
VERTEX
8
CONTOURS_MINEURES
10
4.997
20
36.560
0
VERTEX
8
CONTOURS_MINEURES
10
4.464
20
35.534
0
VERTEX
8
CONTOURS_MINEURES
10
3.870
20
35.001
0
VERTEX
8
CONTOURS_MINEURES
10
2.601
20
32.604
0
VERTEX
8
CONTOURS_MINEURES
10
1.320
20
30.005
0
VERTEX
8
CONTOURS_MINEURES
10
0.836
20
29.170
0
VERTEX
8
CONTOURS_MINEURES
10
0.004
20
28.281
0
SEQEND
0
POLYLINE
8
CONTOURS_MINEURES
66
1
70
0
0
VERTEX
8
CONTOURS_MINEURES
10
0.004
20
154.832
0
VERTEX
8
CONTOURS_MINEURES
10
0.093
20
154.914
0
VERTEX
8
CONTOURS_MINEURES
10
0.354
20
155.004
0
VERTEX
8
CONTOURS_MINEURES
10
4.997
20
159.368
0
VERTEX
8
CONTOURS_MINEURES
10
5.222
20
159.775
0
VERTEX
8
CONTOURS_MINEURES
10
5.382
20
160.000
0
VERTEX
8
CONTOURS_MINEURES
10
6.520
20
163.475
0
VERTEX
8
CONTOURS_MINEURES
10
6.838
20
164.996
0
VERTEX
8
CONTOURS_MINEURES
10
9.516
20
169.520
0
VERTEX
8
CONTOURS_MINEURES
10
9.698
20
170.004
0
SEQEND
0
POLYLINE
8
CONTOURS_MINEURES
66
1
70
0
0
VERTEX
8
CONTOURS_MINEURES
10
130.289
20
0.004
0
VERTEX
8
CONTOURS_MINEURES
10
132.825
20
2.181
0
VERTEX
8
CONTOURS_MINEURES
10
135.005
20
3.162
0
VERTEX
8
CONTOURS_MINEURES
10
137.442
20
5.001
0
VERTEX
8
CONTOURS_MINEURES
10
139.997
20
7.248
0
VERTEX
8
CONTOURS_MINEURES
10
141.278
20
8.718
0
VERTEX
8
CONTOURS_MINEURES
10
143.354
20
9.997
0
VERTEX
8
CONTOURS_MINEURES
10
145.001
20
11.921
0
VERTEX
8
CONTOURS_MINEURES
10
146.124
20
13.881
0
VERTEX
8
CONTOURS_MINEURES
10
147.416
20
15.005
0
VERTEX
8
CONTOURS_MINEURES
10
147.849
20
17.157
0
VERTEX
8
CONTOURS_MINEURES
10
150.005
20
18.034
0
VERTEX
8
CONTOURS_MINEURES
10
151.663
20
20.001
0
VERTEX
8
CONTOURS_MINEURES
10
152.133
20
22.868
0
VERTEX
8
CONTOURS_MINEURES
10
154.997
20
24.012
0
SEQEND
0
POLYLINE
8
CONTOURS_MINEURES
66
1
70
0
0
VERTEX
8
CONTOURS_MINEURES
10
154.997
20
41.148
0
VERTEX
8
CONTOURS_MINEURES
10
151.461
20
43.545
0
VERTEX
8
CONTOURS_MINEURES
10
150.005
20
44.356
0
VERTEX
8
CONTOURS_MINEURES
10
149.107
20
44.106
0
VERTEX
8
CONTOURS_MINEURES
10
145.001
20
42.965
0
VERTEX
8
CONTOURS_MINEURES
10
141.189
20
43.813
0
VERTEX
8
CONTOURS_MINEURES
10
139.997
20
43.532
0
VERTEX
8
CONTOURS_MINEURES
10
138.957
20
43.962
0
VERTEX
8
CONTOURS_MINEURES
10
138.978
20
45.005
0
VERTEX
8
CONTOURS_MINEURES
10
138.717
20
46.286
0
VERTEX
8
CONTOURS_MINEURES
10
137.418
20
50.002
0
VERTEX
8
CONTOURS_MINEURES
10
136.792
20
51.790
0
VERTEX
8
CONTOURS_MINEURES
10
135.005
20
53.918
0
VERTEX
8
CONTOURS_MINEURES
10
134.188
20
54.998
0
VERTEX
8
CONTOURS_MINEURES
10
130.001
20
58.011
0
VERTEX
8
CONTOURS_MINEURES
10
128.548
20
58.544
0
VERTEX
8
CONTOURS_MINEURES
10
127.186
20
59.994
0
VERTEX
8
CONTOURS_MINEURES
10
124.997
20
61.906
0
VERTEX
8
CONTOURS_MINEURES
10
123.132
20
63.131
0
VERTEX
8
CONTOURS_MINEURES
10
122.259
20
65.002
0
VERTEX
8
CONTOURS_MINEURES
10
120.004
20
68.043
0
VERTEX
8
CONTOURS_MINEURES
10
118.699
20
69.998
0
VERTEX
8
CONTOURS_MINEURES
10
117.342
20
72.336
0
VERTEX
8
CONTOURS_MINEURES
10
116.590
20
74.995
0
VERTEX
8
CONTOURS_MINEURES
10
116.218
20
76.213
0
VERTEX
8
CONTOURS_MINEURES
10
115.001
20
79.657
0
VERTEX
8
CONTOURS_MINEURES
10
114.805
20
79.806
0
VERTEX
8
CONTOURS_MINEURES
10
114.801
20
80.002
0
VERTEX
8
CONTOURS_MINEURES
10
114.445
20
80.557
0
VERTEX
8
CONTOURS_MINEURES
10
111.141
20
84.999
0
VERTEX
8
CONTOURS_MINEURES
10
110.681
20
85.682
0
VERTEX
8
CONTOURS_MINEURES
10
109.997
20
86.377
0
VERTEX
8
CONTOURS_MINEURES
10
108.125
20
88.121
0
VERTEX
8
CONTOURS_MINEURES
10
106.913
20
89.995
0
VERTEX
8
CONTOURS_MINEURES
10
106.123
20
91.117
0
VERTEX
8
CONTOURS_MINEURES
10
105.004
20
91.829
0
VERTEX
8
CONTOURS_MINEURES
10
101.054
20
95.002
0
VERTEX
8
CONTOURS_MINEURES
10
100.001
20
95.871
0
VERTEX
8
CONTOURS_MINEURES
10
97.232
20
97.234
0
VERTEX
8
CONTOURS_MINEURES
10
94.997
20
97.987
0
VERTEX
8
CONTOURS_MINEURES
10
93.086
20
98.087
0
VERTEX
8
CONTOURS_MINEURES
10
90.004
20
97.316
0
VERTEX
8
CONTOURS_MINEURES
10
86.331
20
96.331
0
VERTEX
8
CONTOURS_MINEURES
10
85.001
20
95.616
0
VERTEX
8
CONTOURS_MINEURES
10
84.619
20
95.384
0
VERTEX
8
CONTOURS_MINEURES
10
83.306
20
95.002
0
VERTEX
8
CONTOURS_MINEURES
10
79.997
20
93.119
0
VERTEX
8
CONTOURS_MINEURES
10
77.990
20
92.990
0
VERTEX
8
CONTOURS_MINEURES
10
75.004
20
92.018
0
VERTEX
8
CONTOURS_MINEURES
10
73.318
20
91.683
0
VERTEX
8
CONTOURS_MINEURES
10
70.001
20
91.338
0
VERTEX
8
CONTOURS_MINEURES
10
65.712
20
90.710
0
VERTEX
8
CONTOURS_MINEURES
10
64.997
20
90.606
0
VERTEX
8
CONTOURS_MINEURES
10
60.458
20
89.995
0
VERTEX
8
CONTOURS_MINEURES
10
60.070
20
89.929
0
VERTEX
8
CONTOURS_MINEURES
10
60.004
20
89.931
0
VERTEX
8
CONTOURS_MINEURES
10
59.718
20
89.710
0
VERTEX
8
CONTOURS_MINEURES
10
55.001
20
86.193
0
VERTEX
8
CONTOURS_MINEURES
10
54.162
20
84.999
0
VERTEX
8
CONTOURS_MINEURES
10
52.308
20
82.690
0
VERTEX
8
CONTOURS_MINEURES
10
50.149
20
80.002
0
VERTEX
8
CONTOURS_MINEURES
10
49.997
20
79.859
0
VERTEX
8
CONTOURS_MINEURES
10
47.628
20
77.370
0
VERTEX
8
CONTOURS_MINEURES
10
45.004
20
75.082
0
VERTEX
8
CONTOURS_MINEURES
10
44.937
20
74.995
0
VERTEX
8
CONTOURS_MINEURES
10
43.072
20
71.928
0
VERTEX
8
CONTOURS_MINEURES
10
43.479
20
69.998
0
VERTEX
8
CONTOURS_MINEURES
10
43.670
20
68.666
0
VERTEX
8
CONTOURS_MINEURES
10
43.291
20
65.002
0
VERTEX
8
CONTOURS_MINEURES
10
42.618
20
62.382
0
VERTEX
8
CONTOURS_MINEURES
10
40.116
20
59.994
0
VERTEX
8
CONTOURS_MINEURES
10
40.000
20
59.873
0
VERTEX
8
CONTOURS_MINEURES
10
38.192
20
56.803
0
VERTEX
8
CONTOURS_MINEURES
10
35.746
20
54.998
0
VERTEX
8
CONTOURS_MINEURES
10
34.997
20
54.297
0
VERTEX
8
CONTOURS_MINEURES
10
32.733
20
52.732
0
VERTEX
8
CONTOURS_MINEURES
10
30.004
20
50.572
0
VERTEX
8
CONTOURS_MINEURES
10
29.685
20
50.321
0
VERTEX
8
CONTOURS_MINEURES
10
28.925
20
50.002
0
VERTEX
8
CONTOURS_MINEURES
10
25.000
20
46.464
0
VERTEX
8
CONTOURS_MINEURES
10
20.055
20
45.063
0
VERTEX
8
CONTOURS_MINEURES
10
19.997
20
45.036
0
VERTEX
8
CONTOURS_MINEURES
10
19.979
20
45.023
0
VERTEX
8
CONTOURS_MINEURES
10
15.004
20
45.051
0
VERTEX
8
CONTOURS_MINEURES
10
14.834
20
45.005
0
VERTEX
8
CONTOURS_MINEURES
10
10.000
20
42.545
0
VERTEX
8
CONTOURS_MINEURES
10
7.981
20
39.998
0
VERTEX
8
CONTOURS_MINEURES
10
7.683
20
37.315
0
VERTEX
8
CONTOURS_MINEURES
10
5.989
20
35.001
0
VERTEX
8
CONTOURS_MINEURES
10
4.997
20
32.860
0
VERTEX
8
CONTOURS_MINEURES
10
3.590
20
30.005
0
VERTEX
8
CONTOURS_MINEURES
10
2.271
20
27.731
0
VERTEX
8
CONTOURS_MINEURES
10
0.004
20
25.310
0
SEQEND
0
POLYLINE
8
CONTOURS_MINEURES
66
1
70
0
0
VERTEX
8
CONTOURS_MINEURES
10
0.004
20
157.101
0
VERTEX
8
CONTOURS_MINEURES
10
3.190
20
160.000
0
VERTEX
8
CONTOURS_MINEURES
10
4.997
20
162.047
0
VERTEX
8
CONTOURS_MINEURES
10
5.725
20
164.270
0
VERTEX
8
CONTOURS_MINEURES
10
5.876
20
164.996
0
VERTEX
8
CONTOURS_MINEURES
10
7.156
20
167.158
0
VERTEX
8
CONTOURS_MINEURES
10
8.222
20
170.004
0
SEQEND
0
POLYLINE
8
CONTOURS_MINEURES
66
1
70
0
0
VERTEX
8
CONTOURS_MINEURES
10
0.004
20
20.626
0
VERTEX
8
CONTOURS_MINEURES
10
0.049
20
20.001
0
VERTEX
8
CONTOURS_MINEURES
10
0.524
20
15.525
0
VERTEX
8
CONTOURS_MINEURES
10
0.535
20
15.005
0
VERTEX
8
CONTOURS_MINEURES
10
0.358
20
14.650
0
VERTEX
8
CONTOURS_MINEURES
10
0.004
20
13.761
0
SEQEND
0
POLYLINE
8
CONTOURS_MINEURES
66
1
70
0
0
VERTEX
8
CONTOURS_MINEURES
10
126.258
20
0.004
0
VERTEX
8
CONTOURS_MINEURES
10
130.001
20
3.557
0
VERTEX
8
CONTOURS_MINEURES
10
130.779
20
4.224
0
VERTEX
8
CONTOURS_MINEURES
10
132.503
20
5.001
0
VERTEX
8
CONTOURS_MINEURES
10
133.176
20
6.826
0
VERTEX
8
CONTOURS_MINEURES
10
135.005
20
7.656
0
VERTEX
8
CONTOURS_MINEURES
10
138.102
20
9.997
0
VERTEX
8
CONTOURS_MINEURES
10
138.410
20
11.589
0
VERTEX
8
CONTOURS_MINEURES
10
139.997
20
12.564
0
VERTEX
8
CONTOURS_MINEURES
10
141.709
20
15.005
0
VERTEX
8
CONTOURS_MINEURES
10
143.145
20
18.148
0
VERTEX
8
CONTOURS_MINEURES
10
143.083
20
20.001
0
VERTEX
8
CONTOURS_MINEURES
10
142.444
20
22.555
0
VERTEX
8
CONTOURS_MINEURES
10
142.444
20
24.998
0
VERTEX
8
CONTOURS_MINEURES
10
141.505
20
26.507
0
VERTEX
8
CONTOURS_MINEURES
10
139.997
20
26.528
0
VERTEX
8
CONTOURS_MINEURES
10
137.284
20
27.284
0
VERTEX
8
CONTOURS_MINEURES
10
135.005
20
26.641
0
VERTEX
8
CONTOURS_MINEURES
10
133.323
20
26.680
0
VERTEX
8
CONTOURS_MINEURES
10
130.001
20
25.807
0
VERTEX
8
CONTOURS_MINEURES
10
128.933
20
26.066
0
VERTEX
8
CONTOURS_MINEURES
10
124.997
20
25.595
0
VERTEX
8
CONTOURS_MINEURES
10
122.081
20
27.080
0
VERTEX
8
CONTOURS_MINEURES
10
121.863
20
30.005
0
VERTEX
8
CONTOURS_MINEURES
10
121.473
20
31.475
0
VERTEX
8
CONTOURS_MINEURES
10
120.004
20
31.927
0
VERTEX
8
CONTOURS_MINEURES
10
117.689
20
35.001
0
VERTEX
8
CONTOURS_MINEURES
10
115.001
20
38.914
0
VERTEX
8
CONTOURS_MINEURES
10
113.657
20
39.998
0
VERTEX
8
CONTOURS_MINEURES
10
112.378
20
42.380
0
VERTEX
8
CONTOURS_MINEURES
10
109.997
20
43.314
0
VERTEX
8
CONTOURS_MINEURES
10
106.953
20
45.005
0
VERTEX
8
CONTOURS_MINEURES
10
106.358
20
46.360
0
VERTEX
8
CONTOURS_MINEURES
10
105.004
20
47.166
0
VERTEX
8
CONTOURS_MINEURES
10
103.640
20
48.639
0
VERTEX
8
CONTOURS_MINEURES
10
100.801
20
50.002
0
VERTEX
8
CONTOURS_MINEURES
10
102.239
20
52.763
0
VERTEX
8
CONTOURS_MINEURES
10
102.127
20
54.998
0
VERTEX
8
CONTOURS_MINEURES
10
101.637
20
56.632
0
VERTEX
8
CONTOURS_MINEURES
10
100.001
20
57.829
0
VERTEX
8
CONTOURS_MINEURES
10
98.088
20
59.994
0
VERTEX
8
CONTOURS_MINEURES
10
96.778
20
61.777
0
VERTEX
8
CONTOURS_MINEURES
10
94.997
20
62.999
0
VERTEX
8
CONTOURS_MINEURES
10
90.885
20
65.002
0
VERTEX
8
CONTOURS_MINEURES
10
90.258
20
65.256
0
VERTEX
8
CONTOURS_MINEURES
10
90.004
20
65.418
0
VERTEX
8
CONTOURS_MINEURES
10
89.121
20
65.884
0
VERTEX
8
CONTOURS_MINEURES
10
85.001
20
67.879
0
VERTEX
8
CONTOURS_MINEURES
10
82.741
20
69.998
0
VERTEX
8
CONTOURS_MINEURES
10
79.997
20
72.572
0
VERTEX
8
CONTOURS_MINEURES
10
78.918
20
73.914
0
VERTEX
8
CONTOURS_MINEURES
10
77.242
20
74.995
0
VERTEX
8
CONTOURS_MINEURES
10
75.004
20
76.967
0
VERTEX
8
CONTOURS_MINEURES
10
73.769
20
78.766
0
VERTEX
8
CONTOURS_MINEURES
10
72.061
20
80.002
0
VERTEX
8
CONTOURS_MINEURES
10
70.001
20
81.031
0
VERTEX
8
CONTOURS_MINEURES
10
68.923
20
81.078
0
VERTEX
8
CONTOURS_MINEURES
10
64.997
20
81.601
0
VERTEX
8
CONTOURS_MINEURES
10
62.501
20
82.500
0
VERTEX
8
CONTOURS_MINEURES
10
60.004
20
82.602
0
VERTEX
8
CONTOURS_MINEURES
10
55.751
20
80.002
0
VERTEX
8
CONTOURS_MINEURES
10
55.301
20
79.702
0
VERTEX
8
CONTOURS_MINEURES
10
55.001
20
79.696
0
VERTEX
8
CONTOURS_MINEURES
10
51.536
20
76.536
0
VERTEX
8
CONTOURS_MINEURES
10
49.997
20
75.090
0
VERTEX
8
CONTOURS_MINEURES
10
49.950
20
75.041
0
VERTEX
8
CONTOURS_MINEURES
10
49.897
20
74.995
0
VERTEX
8
CONTOURS_MINEURES
10
48.946
20
73.943
0
VERTEX
8
CONTOURS_MINEURES
10
45.351
20
69.998
0
VERTEX
8
CONTOURS_MINEURES
10
45.274
20
69.728
0
VERTEX
8
CONTOURS_MINEURES
10
45.004
20
69.062
0
VERTEX
8
CONTOURS_MINEURES
10
44.584
20
65.002
0
VERTEX
8
CONTOURS_MINEURES
10
43.646
20
61.353
0
VERTEX
8
CONTOURS_MINEURES
10
42.223
20
59.994
0
VERTEX
8
CONTOURS_MINEURES
10
40.000
20
57.672
0
VERTEX
8
CONTOURS_MINEURES
10
39.009
20
55.988
0
VERTEX
8
CONTOURS_MINEURES
10
37.667
20
54.998
0
VERTEX
8
CONTOURS_MINEURES
10
34.997
20
52.500
0
VERTEX
8
CONTOURS_MINEURES
10
31.382
20
50.002
0
VERTEX
8
CONTOURS_MINEURES
10
30.973
20
49.032
0
VERTEX
8
CONTOURS_MINEURES
10
30.004
20
48.719
0
VERTEX
8
CONTOURS_MINEURES
10
25.807
20
45.005
0
VERTEX
8
CONTOURS_MINEURES
10
25.000
20
44.250
0
VERTEX
8
CONTOURS_MINEURES
10
21.854
20
43.146
0
VERTEX
8
CONTOURS_MINEURES
10
19.997
20
43.042
0
VERTEX
8
CONTOURS_MINEURES
10
18.150
20
43.153
0
VERTEX
8
CONTOURS_MINEURES
10
15.004
20
43.190
0
VERTEX
8
CONTOURS_MINEURES
10
11.668
20
41.667
0
VERTEX
8
CONTOURS_MINEURES
10
10.000
20
40.818
0
VERTEX
8
CONTOURS_MINEURES
10
9.350
20
39.998
0
VERTEX
8
CONTOURS_MINEURES
10
8.916
20
36.084
0
VERTEX
8
CONTOURS_MINEURES
10
8.123
20
35.001
0
VERTEX
8
CONTOURS_MINEURES
10
6.506
20
31.512
0
VERTEX
8
CONTOURS_MINEURES
10
6.102
20
30.005
0
VERTEX
8
CONTOURS_MINEURES
10
5.697
20
29.304
0
VERTEX
8
CONTOURS_MINEURES
10
4.997
20
28.518
0
VERTEX
8
CONTOURS_MINEURES
10
3.705
20
26.293
0
VERTEX
8
CONTOURS_MINEURES
10
2.493
20
24.998
0
VERTEX
8
CONTOURS_MINEURES
10
2.925
20
22.075
0
VERTEX
8
CONTOURS_MINEURES
10
3.075
20
20.001
0
VERTEX
8
CONTOURS_MINEURES
10
3.259
20
18.263
0
VERTEX
8
CONTOURS_MINEURES
10
3.332
20
15.005
0
VERTEX
8
CONTOURS_MINEURES
10
2.221
20
12.781
0
VERTEX
8
CONTOURS_MINEURES
10
1.112
20
9.997
0
VERTEX
8
CONTOURS_MINEURES
10
0.754
20
9.247
0
VERTEX
8
CONTOURS_MINEURES
10
0.448
20
5.001
0
VERTEX
8
CONTOURS_MINEURES
10
0.572
20
4.432
0
VERTEX
8
CONTOURS_MINEURES
10
1.562
20
0.004
0
SEQEND
0
POLYLINE
8
CONTOURS_MINEURES
66
1
70
0
0
VERTEX
8
CONTOURS_MINEURES
10
0.004
20
159.689
0
VERTEX
8
CONTOURS_MINEURES
10
0.345
20
160.000
0
VERTEX
8
CONTOURS_MINEURES
10
2.926
20
162.925
0
VERTEX
8
CONTOURS_MINEURES
10
4.670
20
164.996
0
VERTEX
8
CONTOURS_MINEURES
10
4.746
20
165.248
0
VERTEX
8
CONTOURS_MINEURES
10
4.997
20
165.332
0
VERTEX
8
CONTOURS_MINEURES
10
6.746
20
170.004
0
SEQEND
0
POLYLINE
8
CONTOURS_MINEURES
66
1
70
0
0
VERTEX
8
CONTOURS_MINEURES
10
118.773
20
0.004
0
VERTEX
8
CONTOURS_MINEURES
10
117.039
20
2.965
0
VERTEX
8
CONTOURS_MINEURES
10
120.004
20
4.707
0
VERTEX
8
CONTOURS_MINEURES
10
120.041
20
4.965
0
VERTEX
8
CONTOURS_MINEURES
10
120.204
20
5.001
0
VERTEX
8
CONTOURS_MINEURES
10
120.004
20
5.140
0
VERTEX
8
CONTOURS_MINEURES
10
116.197
20
6.196
0
VERTEX
8
CONTOURS_MINEURES
10
115.001
20
6.774
0
VERTEX
8
CONTOURS_MINEURES
10
112.560
20
9.997
0
VERTEX
8
CONTOURS_MINEURES
10
112.142
20
12.143
0
VERTEX
8
CONTOURS_MINEURES
10
113.055
20
15.005
0
VERTEX
8
CONTOURS_MINEURES
10
115.001
20
18.336
0
VERTEX
8
CONTOURS_MINEURES
10
115.662
20
19.341
0
VERTEX
8
CONTOURS_MINEURES
10
115.474
20
20.001
0
VERTEX
8
CONTOURS_MINEURES
10
115.408
20
20.408
0
VERTEX
8
CONTOURS_MINEURES
10
115.327
20
24.998
0
VERTEX
8
CONTOURS_MINEURES
10
115.001
20
25.554
0
VERTEX
8
CONTOURS_MINEURES
10
111.561
20
26.562
0
VERTEX
8
CONTOURS_MINEURES
10
109.997
20
26.755
0
VERTEX
8
CONTOURS_MINEURES
10
106.925
20
28.079
0
VERTEX
8
CONTOURS_MINEURES
10
105.004
20
28.659
0
VERTEX
8
CONTOURS_MINEURES
10
102.343
20
30.005
0
VERTEX
8
CONTOURS_MINEURES
10
101.238
20
31.240
0
VERTEX
8
CONTOURS_MINEURES
10
100.001
20
31.807
0
VERTEX
8
CONTOURS_MINEURES
10
97.732
20
32.736
0
VERTEX
8
CONTOURS_MINEURES
10
95.664
20
35.001
0
VERTEX
8
CONTOURS_MINEURES
10
95.452
20
35.456
0
VERTEX
8
CONTOURS_MINEURES
10
94.997
20
35.601
0
VERTEX
8
CONTOURS_MINEURES
10
92.583
20
37.582
0
VERTEX
8
CONTOURS_MINEURES
10
90.004
20
39.698
0
VERTEX
8
CONTOURS_MINEURES
10
89.663
20
39.998
0
VERTEX
8
CONTOURS_MINEURES
10
85.001
20
44.664
0
VERTEX
8
CONTOURS_MINEURES
10
84.783
20
44.788
0
VERTEX
8
CONTOURS_MINEURES
10
84.694
20
45.005
0
VERTEX
8
CONTOURS_MINEURES
10
79.997
20
49.602
0
VERTEX
8
CONTOURS_MINEURES
10
78.822
20
50.002
0
VERTEX
8
CONTOURS_MINEURES
10
75.742
20
50.740
0
VERTEX
8
CONTOURS_MINEURES
10
75.004
20
51.757
0
VERTEX
8
CONTOURS_MINEURES
10
71.752
20
53.249
0
VERTEX
8
CONTOURS_MINEURES
10
70.001
20
53.999
0
VERTEX
8
CONTOURS_MINEURES
10
67.940
20
54.998
0
VERTEX
8
CONTOURS_MINEURES
10
66.280
20
56.279
0
VERTEX
8
CONTOURS_MINEURES
10
64.997
20
59.540
0
VERTEX
8
CONTOURS_MINEURES
10
64.442
20
59.994
0
VERTEX
8
CONTOURS_MINEURES
10
64.442
20
64.446
0
VERTEX
8
CONTOURS_MINEURES
10
60.004
20
63.636
0
VERTEX
8
CONTOURS_MINEURES
10
59.609
20
65.002
0
VERTEX
8
CONTOURS_MINEURES
10
58.892
20
68.888
0
VERTEX
8
CONTOURS_MINEURES
10
57.919
20
69.998
0
VERTEX
8
CONTOURS_MINEURES
10
55.960
20
70.957
0
VERTEX
8
CONTOURS_MINEURES
10
55.001
20
70.919
0
VERTEX
8
CONTOURS_MINEURES
10
50.076
20
70.078
0
VERTEX
8
CONTOURS_MINEURES
10
49.997
20
70.024
0
VERTEX
8
CONTOURS_MINEURES
10
49.974
20
69.998
0
VERTEX
8
CONTOURS_MINEURES
10
48.879
20
66.120
0
VERTEX
8
CONTOURS_MINEURES
10
48.426
20
65.002
0
VERTEX
8
CONTOURS_MINEURES
10
47.789
20
62.209
0
VERTEX
8
CONTOURS_MINEURES
10
45.004
20
61.605
0
VERTEX
8
CONTOURS_MINEURES
10
44.675
20
60.324
0
VERTEX
8
CONTOURS_MINEURES
10
44.330
20
59.994
0
VERTEX
8
CONTOURS_MINEURES
10
40.000
20
55.471
0
VERTEX
8
CONTOURS_MINEURES
10
39.825
20
55.173
0
VERTEX
8
CONTOURS_MINEURES
10
39.587
20
54.998
0
VERTEX
8
CONTOURS_MINEURES
10
34.997
20
50.703
0
VERTEX
8
CONTOURS_MINEURES
10
33.983
20
50.002
0
VERTEX
8
CONTOURS_MINEURES
10
32.802
20
47.201
0
VERTEX
8
CONTOURS_MINEURES
10
30.004
20
46.300
0
VERTEX
8
CONTOURS_MINEURES
10
28.541
20
45.005
0
VERTEX
8
CONTOURS_MINEURES
10
25.000
20
41.688
0
VERTEX
8
CONTOURS_MINEURES
10
23.749
20
41.250
0
VERTEX
8
CONTOURS_MINEURES
10
19.997
20
41.039
0
VERTEX
8
CONTOURS_MINEURES
10
16.266
20
41.264
0
VERTEX
8
CONTOURS_MINEURES
10
15.004
20
41.278
0
VERTEX
8
CONTOURS_MINEURES
10
12.199
20
39.998
0
VERTEX
8
CONTOURS_MINEURES
10
10.760
20
35.760
0
VERTEX
8
CONTOURS_MINEURES
10
10.402
20
35.001
0
VERTEX
8
CONTOURS_MINEURES
10
10.351
20
34.651
0
VERTEX
8
CONTOURS_MINEURES
10
10.000
20
33.698
0
VERTEX
8
CONTOURS_MINEURES
10
9.011
20
30.005
0
VERTEX
8
CONTOURS_MINEURES
10
7.540
20
27.460
0
VERTEX
8
CONTOURS_MINEURES
10
5.345
20
24.998
0
VERTEX
8
CONTOURS_MINEURES
10
5.350
20
24.644
0
VERTEX
8
CONTOURS_MINEURES
10
6.084
20
20.001
0
VERTEX
8
CONTOURS_MINEURES
10
6.175
20
16.181
0
VERTEX
8
CONTOURS_MINEURES
10
6.142
20
15.005
0
VERTEX
8
CONTOURS_MINEURES
10
5.855
20
14.145
0
VERTEX
8
CONTOURS_MINEURES
10
4.997
20
12.739
0
VERTEX
8
CONTOURS_MINEURES
10
4.084
20
10.913
0
VERTEX
8
CONTOURS_MINEURES
10
3.719
20
9.997
0
VERTEX
8
CONTOURS_MINEURES
10
2.518
20
7.481
0
VERTEX
8
CONTOURS_MINEURES
10
2.340
20
5.001
0
VERTEX
8
CONTOURS_MINEURES
10
2.990
20
2.013
0
VERTEX
8
CONTOURS_MINEURES
10
3.439
20
0.004
0
SEQEND
0
POLYLINE
8
CONTOURS_MINEURES
66
1
70
0
0
VERTEX
8
CONTOURS_MINEURES
10
0.004
20
164.015
0
VERTEX
8
CONTOURS_MINEURES
10
0.830
20
164.996
0
VERTEX
8
CONTOURS_MINEURES
10
1.801
20
168.202
0
VERTEX
8
CONTOURS_MINEURES
10
4.997
20
169.274
0
VERTEX
8
CONTOURS_MINEURES
10
5.270
20
170.004
0
SEQEND
0
POLYLINE
8
CONTOURS_MINEURES
66
1
70
0
0
VERTEX
8
CONTOURS_MINEURES
10
93.999
20
0.004
0
VERTEX
8
CONTOURS_MINEURES
10
94.209
20
4.212
0
VERTEX
8
CONTOURS_MINEURES
10
93.420
20
5.001
0
VERTEX
8
CONTOURS_MINEURES
10
90.004
20
8.822
0
VERTEX
8
CONTOURS_MINEURES
10
89.560
20
9.553
0
VERTEX
8
CONTOURS_MINEURES
10
87.780
20
9.997
0
VERTEX
8
CONTOURS_MINEURES
10
85.001
20
10.734
0
VERTEX
8
CONTOURS_MINEURES
10
83.252
20
13.255
0
VERTEX
8
CONTOURS_MINEURES
10
81.079
20
15.005
0
VERTEX
8
CONTOURS_MINEURES
10
80.676
20
15.682
0
VERTEX
8
CONTOURS_MINEURES
10
79.997
20
15.956
0
VERTEX
8
CONTOURS_MINEURES
10
78.172
20
18.174
0
VERTEX
8
CONTOURS_MINEURES
10
75.857
20
20.001
0
VERTEX
8
CONTOURS_MINEURES
10
75.568
20
20.565
0
VERTEX
8
CONTOURS_MINEURES
10
75.004
20
21.000
0
VERTEX
8
CONTOURS_MINEURES
10
70.334
20
24.998
0
VERTEX
8
CONTOURS_MINEURES
10
70.118
20
25.115
0
VERTEX
8
CONTOURS_MINEURES
10
70.001
20
25.139
0
VERTEX
8
CONTOURS_MINEURES
10
66.862
20
26.864
0
VERTEX
8
CONTOURS_MINEURES
10
64.997
20
27.564
0
VERTEX
8
CONTOURS_MINEURES
10
63.274
20
28.277
0
VERTEX
8
CONTOURS_MINEURES
10
60.004
20
29.208
0
VERTEX
8
CONTOURS_MINEURES
10
59.018
20
30.005
0
VERTEX
8
CONTOURS_MINEURES
10
58.657
20
31.350
0
VERTEX
8
CONTOURS_MINEURES
10
57.605
20
35.001
0
VERTEX
8
CONTOURS_MINEURES
10
56.197
20
38.803
0
VERTEX
8
CONTOURS_MINEURES
10
55.592
20
39.998
0
VERTEX
8
CONTOURS_MINEURES
10
55.001
20
41.309
0
VERTEX
8
CONTOURS_MINEURES
10
53.109
20
43.112
0
VERTEX
8
CONTOURS_MINEURES
10
51.023
20
45.005
0
VERTEX
8
CONTOURS_MINEURES
10
49.997
20
45.789
0
VERTEX
8
CONTOURS_MINEURES
10
47.244
20
47.247
0
VERTEX
8
CONTOURS_MINEURES
10
45.004
20
48.244
0
VERTEX
8
CONTOURS_MINEURES
10
43.519
20
48.518
0
VERTEX
8
CONTOURS_MINEURES
10
42.033
20
50.002
0
VERTEX
8
CONTOURS_MINEURES
10
40.000
20
50.384
0
VERTEX
8
CONTOURS_MINEURES
10
39.519
20
50.002
0
VERTEX
8
CONTOURS_MINEURES
10
38.652
20
46.352
0
VERTEX
8
CONTOURS_MINEURES
10
34.997
20
46.239
0
VERTEX
8
CONTOURS_MINEURES
10
34.631
20
45.371
0
VERTEX
8
CONTOURS_MINEURES
10
33.495
20
45.005
0
VERTEX
8
CONTOURS_MINEURES
10
32.906
20
42.095
0
VERTEX
8
CONTOURS_MINEURES
10
30.004
20
42.131
0
VERTEX
8
CONTOURS_MINEURES
10
27.484
20
39.998
0
VERTEX
8
CONTOURS_MINEURES
10
25.000
20
38.246
0
VERTEX
8
CONTOURS_MINEURES
10
23.273
20
38.273
0
VERTEX
8
CONTOURS_MINEURES
10
19.997
20
37.866
0
VERTEX
8
CONTOURS_MINEURES
10
16.694
20
38.307
0
VERTEX
8
CONTOURS_MINEURES
10
15.004
20
37.659
0
VERTEX
8
CONTOURS_MINEURES
10
13.749
20
35.001
0
VERTEX
8
CONTOURS_MINEURES
10
13.278
20
31.729
0
VERTEX
8
CONTOURS_MINEURES
10
12.642
20
30.005
0
VERTEX
8
CONTOURS_MINEURES
10
12.090
20
27.913
0
VERTEX
8
CONTOURS_MINEURES
10
10.000
20
26.683
0
VERTEX
8
CONTOURS_MINEURES
10
9.383
20
25.615
0
VERTEX
8
CONTOURS_MINEURES
10
8.832
20
24.998
0
VERTEX
8
CONTOURS_MINEURES
10
8.886
20
21.113
0
VERTEX
8
CONTOURS_MINEURES
10
9.062
20
20.001
0
VERTEX
8
CONTOURS_MINEURES
10
9.084
20
19.086
0
VERTEX
8
CONTOURS_MINEURES
10
8.968
20
15.005
0
VERTEX
8
CONTOURS_MINEURES
10
7.976
20
12.024
0
VERTEX
8
CONTOURS_MINEURES
10
6.739
20
9.997
0
VERTEX
8
CONTOURS_MINEURES
10
6.358
20
8.638
0
VERTEX
8
CONTOURS_MINEURES
10
4.997
20
7.212
0
VERTEX
8
CONTOURS_MINEURES
10
4.282
20
5.716
0
VERTEX
8
CONTOURS_MINEURES
10
4.231
20
5.001
0
VERTEX
8
CONTOURS_MINEURES
10
4.997
20
1.482
0
VERTEX
8
CONTOURS_MINEURES
10
5.551
20
0.558
0
VERTEX
8
CONTOURS_MINEURES
10
5.672
20
0.004
0
SEQEND
0
POLYLINE
8
CONTOURS_MINEURES
66
1
70
0
0
VERTEX
8
CONTOURS_MINEURES
10
61.876
20
0.004
0
VERTEX
8
CONTOURS_MINEURES
10
61.003
20
1.004
0
VERTEX
8
CONTOURS_MINEURES
10
60.004
20
1.960
0
VERTEX
8
CONTOURS_MINEURES
10
58.253
20
5.001
0
VERTEX
8
CONTOURS_MINEURES
10
55.001
20
7.599
0
VERTEX
8
CONTOURS_MINEURES
10
53.153
20
8.152
0
VERTEX
8
CONTOURS_MINEURES
10
49.997
20
9.997
0
VERTEX
8
CONTOURS_MINEURES
10
47.158
20
12.157
0
VERTEX
8
CONTOURS_MINEURES
10
45.004
20
12.559
0
VERTEX
8
CONTOURS_MINEURES
10
41.112
20
15.005
0
VERTEX
8
CONTOURS_MINEURES
10
40.485
20
15.488
0
VERTEX
8
CONTOURS_MINEURES
10
40.000
20
15.702
0
VERTEX
8
CONTOURS_MINEURES
10
38.750
20
16.254
0
VERTEX
8
CONTOURS_MINEURES
10
34.997
20
17.276
0
VERTEX
8
CONTOURS_MINEURES
10
31.431
20
18.574
0
VERTEX
8
CONTOURS_MINEURES
10
30.004
20
18.891
0
VERTEX
8
CONTOURS_MINEURES
10
29.365
20
19.363
0
VERTEX
8
CONTOURS_MINEURES
10
26.668
20
20.001
0
VERTEX
8
CONTOURS_MINEURES
10
25.000
20
21.000
0
VERTEX
8
CONTOURS_MINEURES
10
23.124
20
23.124
0
VERTEX
8
CONTOURS_MINEURES
10
19.997
20
24.165
0
VERTEX
8
CONTOURS_MINEURES
10
17.223
20
22.777
0
VERTEX
8
CONTOURS_MINEURES
10
15.004
20
23.332
0
VERTEX
8
CONTOURS_MINEURES
10
14.056
20
20.001
0
VERTEX
8
CONTOURS_MINEURES
10
13.159
20
16.847
0
VERTEX
8
CONTOURS_MINEURES
10
13.070
20
15.005
0
VERTEX
8
CONTOURS_MINEURES
10
10.506
20
10.504
0
VERTEX
8
CONTOURS_MINEURES
10
10.313
20
9.997
0
VERTEX
8
CONTOURS_MINEURES
10
10.000
20
9.449
0
VERTEX
8
CONTOURS_MINEURES
10
9.026
20
5.973
0
VERTEX
8
CONTOURS_MINEURES
10
8.098
20
5.001
0
VERTEX
8
CONTOURS_MINEURES
10
8.811
20
3.813
0
VERTEX
8
CONTOURS_MINEURES
10
9.643
20
0.004
0
SEQEND
0
POLYLINE
8
CONTOURS_MINEURES
66
1
70
0
0
VERTEX
8
CONTOURS_MINEURES
10
34.543
20
0.004
0
VERTEX
8
CONTOURS_MINEURES
10
30.004
20
2.472
0
VERTEX
8
CONTOURS_MINEURES
10
27.155
20
2.156
0
VERTEX
8
CONTOURS_MINEURES
10
25.000
20
3.606
0
VERTEX
8
CONTOURS_MINEURES
10
23.461
20
3.463
0
VERTEX
8
CONTOURS_MINEURES
10
19.997
20
3.650
0
VERTEX
8
CONTOURS_MINEURES
10
17.712
20
2.291
0
VERTEX
8
CONTOURS_MINEURES
10
17.453
20
0.004
0
SEQEND
0
POLYLINE
8
CONTOURS_MAJEURES
66
1
70
0
0
VERTEX
8
CONTOURS_MAJEURES
10
100.690
20
170.004
0
VERTEX
8
CONTOURS_MAJEURES
10
100.515
20
169.489
0
VERTEX
8
CONTOURS_MAJEURES
10
100.001
20
167.816
0
VERTEX
8
CONTOURS_MAJEURES
10
98.914
20
164.996
0
VERTEX
8
CONTOURS_MAJEURES
10
96.793
20
161.793
0
VERTEX
8
CONTOURS_MAJEURES
10
95.546
20
160.000
0
VERTEX
8
CONTOURS_MAJEURES
10
95.274
20
159.723
0
VERTEX
8
CONTOURS_MAJEURES
10
94.997
20
159.381
0
VERTEX
8
CONTOURS_MAJEURES
10
91.600
20
155.004
0
VERTEX
8
CONTOURS_MAJEURES
10
90.958
20
154.047
0
VERTEX
8
CONTOURS_MAJEURES
10
90.004
20
152.673
0
VERTEX
8
CONTOURS_MAJEURES
10
87.485
20
149.996
0
VERTEX
8
CONTOURS_MAJEURES
10
85.001
20
148.012
0
VERTEX
8
CONTOURS_MAJEURES
10
80.385
20
145.000
0
VERTEX
8
CONTOURS_MAJEURES
10
80.145
20
144.852
0
VERTEX
8
CONTOURS_MAJEURES
10
79.997
20
144.820
0
VERTEX
8
CONTOURS_MAJEURES
10
79.709
20
144.711
0
VERTEX
8
CONTOURS_MAJEURES
10
75.004
20
143.314
0
VERTEX
8
CONTOURS_MAJEURES
10
71.995
20
143.008
0
VERTEX
8
CONTOURS_MAJEURES
10
70.001
20
142.068
0
VERTEX
8
CONTOURS_MAJEURES
10
67.939
20
142.062
0
VERTEX
8
CONTOURS_MAJEURES
10
64.997
20
141.069
0
VERTEX
8
CONTOURS_MAJEURES
10
60.189
20
140.188
0
VERTEX
8
CONTOURS_MAJEURES
10
60.004
20
140.200
0
VERTEX
8
CONTOURS_MAJEURES
10
59.737
20
140.270
0
VERTEX
8
CONTOURS_MAJEURES
10
56.054
20
140.003
0
VERTEX
8
CONTOURS_MAJEURES
10
55.043
20
139.961
0
VERTEX
8
CONTOURS_MAJEURES
10
55.001
20
139.945
0
VERTEX
8
CONTOURS_MAJEURES
10
54.546
20
140.003
0
VERTEX
8
CONTOURS_MAJEURES
10
49.997
20
141.095
0
VERTEX
8
CONTOURS_MAJEURES
10
46.707
20
141.707
0
VERTEX
8
CONTOURS_MAJEURES
10
45.004
20
143.491
0
VERTEX
8
CONTOURS_MAJEURES
10
44.028
20
144.025
0
VERTEX
8
CONTOURS_MAJEURES
10
43.098
20
145.000
0
VERTEX
8
CONTOURS_MAJEURES
10
40.429
20
149.568
0
VERTEX
8
CONTOURS_MAJEURES
10
40.120
20
149.996
0
VERTEX
8
CONTOURS_MAJEURES
10
40.000
20
150.189
0
VERTEX
8
CONTOURS_MAJEURES
10
37.844
20
152.845
0
VERTEX
8
CONTOURS_MAJEURES
10
36.873
20
155.004
0
VERTEX
8
CONTOURS_MAJEURES
10
36.426
20
158.572
0
VERTEX
8
CONTOURS_MAJEURES
10
39.546
20
160.000
0
VERTEX
8
CONTOURS_MAJEURES
10
40.000
20
160.114
0
VERTEX
8
CONTOURS_MAJEURES
10
42.172
20
162.828
0
VERTEX
8
CONTOURS_MAJEURES
10
45.004
20
163.612
0
VERTEX
8
CONTOURS_MAJEURES
10
48.537
20
163.536
0
VERTEX
8
CONTOURS_MAJEURES
10
49.997
20
163.926
0
VERTEX
8
CONTOURS_MAJEURES
10
51.252
20
163.743
0
VERTEX
8
CONTOURS_MAJEURES
10
55.001
20
163.268
0
VERTEX
8
CONTOURS_MAJEURES
10
57.671
20
162.666
0
VERTEX
8
CONTOURS_MAJEURES
10
60.004
20
160.213
0
VERTEX
8
CONTOURS_MAJEURES
10
60.246
20
160.000
0
VERTEX
8
CONTOURS_MAJEURES
10
62.992
20
157.994
0
VERTEX
8
CONTOURS_MAJEURES
10
64.997
20
156.837
0
VERTEX
8
CONTOURS_MAJEURES
10
68.829
20
156.173
0
VERTEX
8
CONTOURS_MAJEURES
10
70.001
20
156.140
0
VERTEX
8
CONTOURS_MAJEURES
10
73.010
20
156.995
0
VERTEX
8
CONTOURS_MAJEURES
10
75.004
20
156.938
0
VERTEX
8
CONTOURS_MAJEURES
10
79.250
20
159.253
0
VERTEX
8
CONTOURS_MAJEURES
10
79.997
20
159.736
0
VERTEX
8
CONTOURS_MAJEURES
10
80.333
20
160.000
0
VERTEX
8
CONTOURS_MAJEURES
10
80.886
20
164.109
0
VERTEX
8
CONTOURS_MAJEURES
10
81.057
20
164.996
0
VERTEX
8
CONTOURS_MAJEURES
10
80.857
20
169.143
0
VERTEX
8
CONTOURS_MAJEURES
10
81.076
20
170.004
0
SEQEND
0
POLYLINE
8
CONTOURS_MAJEURES
66
1
70
0
0
VERTEX
8
CONTOURS_MAJEURES
10
35.998
20
164.996
0
VERTEX
8
CONTOURS_MAJEURES
10
34.997
20
162.418
0
VERTEX
8
CONTOURS_MAJEURES
10
34.131
20
160.866
0
VERTEX
8
CONTOURS_MAJEURES
10
33.978
20
160.000
0
VERTEX
8
CONTOURS_MAJEURES
10
30.004
20
155.996
0
VERTEX
8
CONTOURS_MAJEURES
10
29.542
20
155.465
0
VERTEX
8
CONTOURS_MAJEURES
10
29.387
20
155.004
0
VERTEX
8
CONTOURS_MAJEURES
10
28.068
20
151.934
0
VERTEX
8
CONTOURS_MAJEURES
10
26.266
20
149.996
0
VERTEX
8
CONTOURS_MAJEURES
10
25.864
20
149.134
0
VERTEX
8
CONTOURS_MAJEURES
10
25.000
20
148.596
0
VERTEX
8
CONTOURS_MAJEURES
10
22.739
20
147.258
0
VERTEX
8
CONTOURS_MAJEURES
10
19.997
20
145.433
0
VERTEX
8
CONTOURS_MAJEURES
10
19.624
20
145.373
0
VERTEX
8
CONTOURS_MAJEURES
10
19.373
20
145.000
0
VERTEX
8
CONTOURS_MAJEURES
10
18.226
20
141.775
0
VERTEX
8
CONTOURS_MAJEURES
10
18.062
20
140.003
0
VERTEX
8
CONTOURS_MAJEURES
10
19.245
20
135.750
0
VERTEX
8
CONTOURS_MAJEURES
10
19.459
20
134.996
0
VERTEX
8
CONTOURS_MAJEURES
10
19.552
20
134.550
0
VERTEX
8
CONTOURS_MAJEURES
10
19.997
20
133.406
0
VERTEX
8
CONTOURS_MAJEURES
10
20.869
20
129.999
0
VERTEX
8
CONTOURS_MAJEURES
10
21.280
20
126.285
0
VERTEX
8
CONTOURS_MAJEURES
10
21.036
20
125.003
0
VERTEX
8
CONTOURS_MAJEURES
10
20.901
20
124.098
0
VERTEX
8
CONTOURS_MAJEURES
10
20.761
20
119.996
0
VERTEX
8
CONTOURS_MAJEURES
10
21.644
20
116.645
0
VERTEX
8
CONTOURS_MAJEURES
10
22.378
20
114.999
0
VERTEX
8
CONTOURS_MAJEURES
10
24.781
20
110.222
0
VERTEX
8
CONTOURS_MAJEURES
10
24.648
20
110.003
0
VERTEX
8
CONTOURS_MAJEURES
10
19.997
20
107.608
0
VERTEX
8
CONTOURS_MAJEURES
10
18.570
20
110.003
0
VERTEX
8
CONTOURS_MAJEURES
10
18.011
20
113.012
0
VERTEX
8
CONTOURS_MAJEURES
10
16.109
20
114.999
0
VERTEX
8
CONTOURS_MAJEURES
10
15.536
20
119.463
0
VERTEX
8
CONTOURS_MAJEURES
10
16.229
20
119.996
0
VERTEX
8
CONTOURS_MAJEURES
10
15.004
20
120.582
0
VERTEX
8
CONTOURS_MAJEURES
10
13.790
20
123.788
0
VERTEX
8
CONTOURS_MAJEURES
10
11.713
20
125.003
0
VERTEX
8
CONTOURS_MAJEURES
10
10.000
20
126.290
0
VERTEX
8
CONTOURS_MAJEURES
10
6.430
20
129.999
0
VERTEX
8
CONTOURS_MAJEURES
10
6.178
20
131.179
0
VERTEX
8
CONTOURS_MAJEURES
10
4.997
20
131.452
0
VERTEX
8
CONTOURS_MAJEURES
10
3.172
20
134.996
0
VERTEX
8
CONTOURS_MAJEURES
10
2.098
20
137.903
0
VERTEX
8
CONTOURS_MAJEURES
10
1.735
20
140.003
0
VERTEX
8
CONTOURS_MAJEURES
10
2.301
20
142.303
0
VERTEX
8
CONTOURS_MAJEURES
10
3.966
20
145.000
0
VERTEX
8
CONTOURS_MAJEURES
10
4.667
20
145.329
0
VERTEX
8
CONTOURS_MAJEURES
10
4.997
20
145.730
0
VERTEX
8
CONTOURS_MAJEURES
10
9.890
20
149.996
0
VERTEX
8
CONTOURS_MAJEURES
10
10.000
20
150.059
0
VERTEX
8
CONTOURS_MAJEURES
10
14.434
20
150.566
0
VERTEX
8
CONTOURS_MAJEURES
10
15.004
20
151.609
0
VERTEX
8
CONTOURS_MAJEURES
10
18.644
20
155.004
0
VERTEX
8
CONTOURS_MAJEURES
10
18.290
20
158.293
0
VERTEX
8
CONTOURS_MAJEURES
10
18.969
20
160.000
0
VERTEX
8
CONTOURS_MAJEURES
10
19.997
20
162.625
0
VERTEX
8
CONTOURS_MAJEURES
10
21.789
20
163.207
0
VERTEX
8
CONTOURS_MAJEURES
10
23.995
20
164.996
0
VERTEX
8
CONTOURS_MAJEURES
10
25.000
20
165.221
0
VERTEX
8
CONTOURS_MAJEURES
10
29.285
20
165.716
0
VERTEX
8
CONTOURS_MAJEURES
10
30.004
20
166.088
0
VERTEX
8
CONTOURS_MAJEURES
10
31.745
20
166.743
0
VERTEX
8
CONTOURS_MAJEURES
10
34.997
20
165.532
0
VERTEX
8
CONTOURS_MAJEURES
10
35.998
20
164.996
0
SEQEND
0
POLYLINE
8
CONTOURS_MAJEURES
66
1
70
0
0
VERTEX
8
CONTOURS_MAJEURES
10
25.332
20
95.333
0
VERTEX
8
CONTOURS_MAJEURES
10
25.429
20
95.002
0
VERTEX
8
CONTOURS_MAJEURES
10
25.208
20
94.795
0
VERTEX
8
CONTOURS_MAJEURES
10
25.000
20
93.594
0
VERTEX
8
CONTOURS_MAJEURES
10
24.802
20
95.002
0
VERTEX
8
CONTOURS_MAJEURES
10
24.712
20
95.291
0
VERTEX
8
CONTOURS_MAJEURES
10
23.499
20
99.999
0
VERTEX
8
CONTOURS_MAJEURES
10
24.152
20
104.148
0
VERTEX
8
CONTOURS_MAJEURES
10
23.529
20
104.995
0
VERTEX
8
CONTOURS_MAJEURES
10
25.000
20
109.287
0
VERTEX
8
CONTOURS_MAJEURES
10
25.429
20
104.995
0
VERTEX
8
CONTOURS_MAJEURES
10
25.823
20
100.821
0
VERTEX
8
CONTOURS_MAJEURES
10
26.659
20
99.999
0
VERTEX
8
CONTOURS_MAJEURES
10
25.332
20
95.333
0
SEQEND
0
POLYLINE
8
CONTOURS_MAJEURES
66
1
70
0
0
VERTEX
8
CONTOURS_MAJEURES
10
107.378
20
170.004
0
VERTEX
8
CONTOURS_MAJEURES
10
105.976
20
165.971
0
VERTEX
8
CONTOURS_MAJEURES
10
105.697
20
164.996
0
VERTEX
8
CONTOURS_MAJEURES
10
105.004
20
163.521
0
VERTEX
8
CONTOURS_MAJEURES
10
103.983
20
161.020
0
VERTEX
8
CONTOURS_MAJEURES
10
103.192
20
160.000
0
VERTEX
8
CONTOURS_MAJEURES
10
100.001
20
157.089
0
VERTEX
8
CONTOURS_MAJEURES
10
98.967
20
156.036
0
VERTEX
8
CONTOURS_MAJEURES
10
98.133
20
155.004
0
VERTEX
8
CONTOURS_MAJEURES
10
94.997
20
150.521
0
VERTEX
8
CONTOURS_MAJEURES
10
94.787
20
150.207
0
VERTEX
8
CONTOURS_MAJEURES
10
94.640
20
149.996
0
VERTEX
8
CONTOURS_MAJEURES
10
93.536
20
148.534
0
VERTEX
8
CONTOURS_MAJEURES
10
91.365
20
145.000
0
VERTEX
8
CONTOURS_MAJEURES
10
90.004
20
143.447
0
VERTEX
8
CONTOURS_MAJEURES
10
88.302
20
141.703
0
VERTEX
8
CONTOURS_MAJEURES
10
85.001
20
141.189
0
VERTEX
8
CONTOURS_MAJEURES
10
84.267
20
140.736
0
VERTEX
8
CONTOURS_MAJEURES
10
80.839
20
140.003
0
VERTEX
8
CONTOURS_MAJEURES
10
80.284
20
139.716
0
VERTEX
8
CONTOURS_MAJEURES
10
79.997
20
139.683
0
VERTEX
8
CONTOURS_MAJEURES
10
77.200
20
137.801
0
VERTEX
8
CONTOURS_MAJEURES
10
75.004
20
136.962
0
VERTEX
8
CONTOURS_MAJEURES
10
70.992
20
134.996
0
VERTEX
8
CONTOURS_MAJEURES
10
70.526
20
134.471
0
VERTEX
8
CONTOURS_MAJEURES
10
70.001
20
134.195
0
VERTEX
8
CONTOURS_MAJEURES
10
67.531
20
132.466
0
VERTEX
8
CONTOURS_MAJEURES
10
64.997
20
131.019
0
VERTEX
8
CONTOURS_MAJEURES
10
64.264
20
130.733
0
VERTEX
8
CONTOURS_MAJEURES
10
62.084
20
129.999
0
VERTEX
8
CONTOURS_MAJEURES
10
60.692
20
129.311
0
VERTEX
8
CONTOURS_MAJEURES
10
60.004
20
128.891
0
VERTEX
8
CONTOURS_MAJEURES
10
58.024
20
126.981
0
VERTEX
8
CONTOURS_MAJEURES
10
56.405
20
125.003
0
VERTEX
8
CONTOURS_MAJEURES
10
55.986
20
124.017
0
VERTEX
8
CONTOURS_MAJEURES
10
55.001
20
122.485
0
VERTEX
8
CONTOURS_MAJEURES
10
52.005
20
119.996
0
VERTEX
8
CONTOURS_MAJEURES
10
49.997
20
119.532
0
VERTEX
8
CONTOURS_MAJEURES
10
46.396
20
118.603
0
VERTEX
8
CONTOURS_MAJEURES
10
45.004
20
118.201
0
VERTEX
8
CONTOURS_MAJEURES
10
42.228
20
117.224
0
VERTEX
8
CONTOURS_MAJEURES
10
40.000
20
116.582
0
VERTEX
8
CONTOURS_MAJEURES
10
36.621
20
114.999
0
VERTEX
8
CONTOURS_MAJEURES
10
36.007
20
113.991
0
VERTEX
8
CONTOURS_MAJEURES
10
35.440
20
110.003
0
VERTEX
8
CONTOURS_MAJEURES
10
36.557
20
106.556
0
VERTEX
8
CONTOURS_MAJEURES
10
36.487
20
104.995
0
VERTEX
8
CONTOURS_MAJEURES
10
36.626
20
103.369
0
VERTEX
8
CONTOURS_MAJEURES
10
37.541
20
99.999
0
VERTEX
8
CONTOURS_MAJEURES
10
37.518
20
97.520
0
VERTEX
8
CONTOURS_MAJEURES
10
37.377
20
95.002
0
VERTEX
8
CONTOURS_MAJEURES
10
36.563
20
93.435
0
VERTEX
8
CONTOURS_MAJEURES
10
35.570
20
89.995
0
VERTEX
8
CONTOURS_MAJEURES
10
34.997
20
88.921
0
VERTEX
8
CONTOURS_MAJEURES
10
33.510
20
86.487
0
VERTEX
8
CONTOURS_MAJEURES
10
33.301
20
84.999
0
VERTEX
8
CONTOURS_MAJEURES
10
32.659
20
82.342
0
VERTEX
8
CONTOURS_MAJEURES
10
32.695
20
80.002
0
VERTEX
8
CONTOURS_MAJEURES
10
32.485
20
77.483
0
VERTEX
8
CONTOURS_MAJEURES
10
32.100
20
74.995
0
VERTEX
8
CONTOURS_MAJEURES
10
32.795
20
72.201
0
VERTEX
8
CONTOURS_MAJEURES
10
32.891
20
69.998
0
VERTEX
8
CONTOURS_MAJEURES
10
32.529
20
67.471
0
VERTEX
8
CONTOURS_MAJEURES
10
31.266
20
65.002
0
VERTEX
8
CONTOURS_MAJEURES
10
30.718
20
64.286
0
VERTEX
8
CONTOURS_MAJEURES
10
30.004
20
63.438
0
VERTEX
8
CONTOURS_MAJEURES
10
28.220
20
61.779
0
VERTEX
8
CONTOURS_MAJEURES
10
26.969
20
59.994
0
VERTEX
8
CONTOURS_MAJEURES
10
25.000
20
58.404
0
VERTEX
8
CONTOURS_MAJEURES
10
22.683
20
57.312
0
VERTEX
8
CONTOURS_MAJEURES
10
19.997
20
55.645
0
VERTEX
8
CONTOURS_MAJEURES
10
18.886
20
54.998
0
VERTEX
8
CONTOURS_MAJEURES
10
15.004
20
53.540
0
VERTEX
8
CONTOURS_MAJEURES
10
11.731
20
53.270
0
VERTEX
8
CONTOURS_MAJEURES
10
10.000
20
52.160
0
VERTEX
8
CONTOURS_MAJEURES
10
7.628
20
52.370
0
VERTEX
8
CONTOURS_MAJEURES
10
4.997
20
50.782
0
VERTEX
8
CONTOURS_MAJEURES
10
4.170
20
50.829
0
VERTEX
8
CONTOURS_MAJEURES
10
3.214
20
50.002
0
VERTEX
8
CONTOURS_MAJEURES
10
0.607
20
49.398
0
VERTEX
8
CONTOURS_MAJEURES
10
0.004
20
48.368
0
SEQEND
0
POLYLINE
8
CONTOURS_MAJEURES
66
1
70
0
0
VERTEX
8
CONTOURS_MAJEURES
10
0.004
20
147.109
0
VERTEX
8
CONTOURS_MAJEURES
10
1.967
20
148.032
0
VERTEX
8
CONTOURS_MAJEURES
10
3.584
20
149.996
0
VERTEX
8
CONTOURS_MAJEURES
10
4.322
20
150.672
0
VERTEX
8
CONTOURS_MAJEURES
10
4.997
20
150.904
0
VERTEX
8
CONTOURS_MAJEURES
10
7.656
20
152.658
0
VERTEX
8
CONTOURS_MAJEURES
10
10.000
20
154.005
0
VERTEX
8
CONTOURS_MAJEURES
10
10.896
20
154.108
0
VERTEX
8
CONTOURS_MAJEURES
10
11.385
20
155.004
0
VERTEX
8
CONTOURS_MAJEURES
10
12.206
20
157.206
0
VERTEX
8
CONTOURS_MAJEURES
10
13.715
20
160.000
0
VERTEX
8
CONTOURS_MAJEURES
10
13.906
20
161.096
0
VERTEX
8
CONTOURS_MAJEURES
10
14.692
20
164.996
0
VERTEX
8
CONTOURS_MAJEURES
10
14.797
20
165.204
0
VERTEX
8
CONTOURS_MAJEURES
10
15.004
20
165.429
0
VERTEX
8
CONTOURS_MAJEURES
10
17.444
20
167.556
0
VERTEX
8
CONTOURS_MAJEURES
10
19.997
20
169.093
0
VERTEX
8
CONTOURS_MAJEURES
10
22.790
20
170.004
0
SEQEND
0
POLYLINE
8
CONTOURS_MAJEURES
66
1
70
0
0
VERTEX
8
CONTOURS_MAJEURES
10
0.004
20
96.265
0
VERTEX
8
CONTOURS_MAJEURES
10
1.178
20
98.824
0
VERTEX
8
CONTOURS_MAJEURES
10
1.552
20
99.999
0
VERTEX
8
CONTOURS_MAJEURES
10
1.475
20
101.471
0
VERTEX
8
CONTOURS_MAJEURES
10
1.944
20
104.995
0
VERTEX
8
CONTOURS_MAJEURES
10
1.633
20
106.629
0
VERTEX
8
CONTOURS_MAJEURES
10
1.938
20
110.003
0
VERTEX
8
CONTOURS_MAJEURES
10
1.653
20
113.349
0
VERTEX
8
CONTOURS_MAJEURES
10
1.538
20
114.999
0
VERTEX
8
CONTOURS_MAJEURES
10
1.293
20
116.289
0
VERTEX
8
CONTOURS_MAJEURES
10
0.962
20
119.996
0
VERTEX
8
CONTOURS_MAJEURES
10
0.004
20
121.457
0
SEQEND
0
POLYLINE
8
CONTOURS_MAJEURES
66
1
70
0
0
VERTEX
8
CONTOURS_MAJEURES
10
146.601
20
0.004
0
VERTEX
8
CONTOURS_MAJEURES
10
148.341
20
1.666
0
VERTEX
8
CONTOURS_MAJEURES
10
150.005
20
3.231
0
VERTEX
8
CONTOURS_MAJEURES
10
151.607
20
5.001
0
VERTEX
8
CONTOURS_MAJEURES
10
153.231
20
6.769
0
VERTEX
8
CONTOURS_MAJEURES
10
154.997
20
8.372
0
SEQEND
0
POLYLINE
8
CONTOURS_MAJEURES
66
1
70
0
0
VERTEX
8
CONTOURS_MAJEURES
10
114.945
20
170.004
0
VERTEX
8
CONTOURS_MAJEURES
10
114.128
20
165.870
0
VERTEX
8
CONTOURS_MAJEURES
10
113.825
20
164.996
0
VERTEX
8
CONTOURS_MAJEURES
10
112.613
20
162.384
0
VERTEX
8
CONTOURS_MAJEURES
10
111.243
20
160.000
0
VERTEX
8
CONTOURS_MAJEURES
10
109.997
20
158.173
0
VERTEX
8
CONTOURS_MAJEURES
10
108.889
20
156.113
0
VERTEX
8
CONTOURS_MAJEURES
10
107.582
20
155.004
0
VERTEX
8
CONTOURS_MAJEURES
10
105.633
20
150.627
0
VERTEX
8
CONTOURS_MAJEURES
10
105.461
20
149.996
0
VERTEX
8
CONTOURS_MAJEURES
10
105.363
20
149.637
0
VERTEX
8
CONTOURS_MAJEURES
10
105.004
20
147.864
0
VERTEX
8
CONTOURS_MAJEURES
10
104.358
20
145.000
0
VERTEX
8
CONTOURS_MAJEURES
10
103.468
20
143.465
0
VERTEX
8
CONTOURS_MAJEURES
10
101.345
20
140.003
0
VERTEX
8
CONTOURS_MAJEURES
10
100.861
20
139.142
0
VERTEX
8
CONTOURS_MAJEURES
10
100.001
20
137.305
0
VERTEX
8
CONTOURS_MAJEURES
10
99.197
20
135.800
0
VERTEX
8
CONTOURS_MAJEURES
10
98.765
20
134.996
0
VERTEX
8
CONTOURS_MAJEURES
10
96.451
20
131.451
0
VERTEX
8
CONTOURS_MAJEURES
10
95.639
20
129.999
0
VERTEX
8
CONTOURS_MAJEURES
10
95.454
20
129.543
0
VERTEX
8
CONTOURS_MAJEURES
10
94.997
20
128.944
0
VERTEX
8
CONTOURS_MAJEURES
10
91.083
20
125.003
0
VERTEX
8
CONTOURS_MAJEURES
10
90.004
20
123.819
0
VERTEX
8
CONTOURS_MAJEURES
10
88.061
20
121.940
0
VERTEX
8
CONTOURS_MAJEURES
10
85.847
20
119.996
0
VERTEX
8
CONTOURS_MAJEURES
10
85.001
20
119.602
0
VERTEX
8
CONTOURS_MAJEURES
10
84.253
20
119.249
0
VERTEX
8
CONTOURS_MAJEURES
10
79.997
20
117.423
0
VERTEX
8
CONTOURS_MAJEURES
10
78.190
20
116.807
0
VERTEX
8
CONTOURS_MAJEURES
10
75.004
20
116.148
0
VERTEX
8
CONTOURS_MAJEURES
10
74.128
20
115.874
0
VERTEX
8
CONTOURS_MAJEURES
10
70.001
20
115.642
0
VERTEX
8
CONTOURS_MAJEURES
10
65.617
20
115.619
0
VERTEX
8
CONTOURS_MAJEURES
10
64.997
20
115.431
0
VERTEX
8
CONTOURS_MAJEURES
10
60.580
20
114.999
0
VERTEX
8
CONTOURS_MAJEURES
10
60.108
20
114.895
0
VERTEX
8
CONTOURS_MAJEURES
10
60.004
20
114.904
0
VERTEX
8
CONTOURS_MAJEURES
10
59.629
20
114.624
0
VERTEX
8
CONTOURS_MAJEURES
10
55.001
20
111.056
0
VERTEX
8
CONTOURS_MAJEURES
10
53.619
20
110.003
0
VERTEX
8
CONTOURS_MAJEURES
10
49.997
20
105.797
0
VERTEX
8
CONTOURS_MAJEURES
10
49.594
20
105.399
0
VERTEX
8
CONTOURS_MAJEURES
10
49.323
20
104.995
0
VERTEX
8
CONTOURS_MAJEURES
10
48.362
20
103.359
0
VERTEX
8
CONTOURS_MAJEURES
10
46.055
20
99.999
0
VERTEX
8
CONTOURS_MAJEURES
10
45.004
20
97.100
0
VERTEX
8
CONTOURS_MAJEURES
10
44.630
20
95.376
0
VERTEX
8
CONTOURS_MAJEURES
10
44.610
20
95.002
0
VERTEX
8
CONTOURS_MAJEURES
10
43.139
20
91.861
0
VERTEX
8
CONTOURS_MAJEURES
10
42.156
20
89.995
0
VERTEX
8
CONTOURS_MAJEURES
10
40.000
20
86.863
0
VERTEX
8
CONTOURS_MAJEURES
10
38.971
20
84.999
0
VERTEX
8
CONTOURS_MAJEURES
10
37.866
20
82.134
0
VERTEX
8
CONTOURS_MAJEURES
10
37.311
20
80.002
0
VERTEX
8
CONTOURS_MAJEURES
10
36.877
20
78.121
0
VERTEX
8
CONTOURS_MAJEURES
10
36.165
20
74.995
0
VERTEX
8
CONTOURS_MAJEURES
10
36.353
20
73.640
0
VERTEX
8
CONTOURS_MAJEURES
10
37.441
20
69.998
0
VERTEX
8
CONTOURS_MAJEURES
10
37.645
20
67.354
0
VERTEX
8
CONTOURS_MAJEURES
10
37.243
20
65.002
0
VERTEX
8
CONTOURS_MAJEURES
10
34.997
20
61.756
0
VERTEX
8
CONTOURS_MAJEURES
10
34.234
20
60.760
0
VERTEX
8
CONTOURS_MAJEURES
10
33.590
20
59.994
0
VERTEX
8
CONTOURS_MAJEURES
10
30.004
20
56.637
0
VERTEX
8
CONTOURS_MAJEURES
10
27.922
20
54.998
0
VERTEX
8
CONTOURS_MAJEURES
10
26.288
20
53.713
0
VERTEX
8
CONTOURS_MAJEURES
10
25.000
20
53.172
0
VERTEX
8
CONTOURS_MAJEURES
10
22.434
20
52.436
0
VERTEX
8
CONTOURS_MAJEURES
10
19.997
20
51.437
0
VERTEX
8
CONTOURS_MAJEURES
10
16.020
20
50.002
0
VERTEX
8
CONTOURS_MAJEURES
10
15.423
20
49.582
0
VERTEX
8
CONTOURS_MAJEURES
10
15.004
20
49.585
0
VERTEX
8
CONTOURS_MAJEURES
10
14.433
20
49.432
0
VERTEX
8
CONTOURS_MAJEURES
10
10.000
20
47.651
0
VERTEX
8
CONTOURS_MAJEURES
10
5.113
20
45.005
0
VERTEX
8
CONTOURS_MAJEURES
10
4.997
20
44.859
0
VERTEX
8
CONTOURS_MAJEURES
10
0.730
20
39.998
0
VERTEX
8
CONTOURS_MAJEURES
10
0.482
20
39.520
0
VERTEX
8
CONTOURS_MAJEURES
10
0.004
20
39.091
0
SEQEND
0
POLYLINE
8
CONTOURS_MAJEURES
66
1
70
0
0
VERTEX
8
CONTOURS_MAJEURES
10
0.004
20
151.227
0
VERTEX
8
CONTOURS_MAJEURES
10
1.973
20
153.029
0
VERTEX
8
CONTOURS_MAJEURES
10
4.997
20
154.067
0
VERTEX
8
CONTOURS_MAJEURES
10
6.417
20
155.004
0
VERTEX
8
CONTOURS_MAJEURES
10
7.693
20
157.308
0
VERTEX
8
CONTOURS_MAJEURES
10
9.604
20
160.000
0
VERTEX
8
CONTOURS_MAJEURES
10
9.702
20
160.298
0
VERTEX
8
CONTOURS_MAJEURES
10
10.000
20
161.727
0
VERTEX
8
CONTOURS_MAJEURES
10
10.486
20
164.511
0
VERTEX
8
CONTOURS_MAJEURES
10
10.584
20
164.996
0
VERTEX
8
CONTOURS_MAJEURES
10
12.070
20
167.933
0
VERTEX
8
CONTOURS_MAJEURES
10
13.977
20
170.004
0
SEQEND
0
POLYLINE
8
CONTOURS_MAJEURES
66
1
70
0
0
VERTEX
8
CONTOURS_MAJEURES
10
130.289
20
0.004
0
VERTEX
8
CONTOURS_MAJEURES
10
132.825
20
2.181
0
VERTEX
8
CONTOURS_MAJEURES
10
135.005
20
3.162
0
VERTEX
8
CONTOURS_MAJEURES
10
137.442
20
5.001
0
VERTEX
8
CONTOURS_MAJEURES
10
139.997
20
7.248
0
VERTEX
8
CONTOURS_MAJEURES
10
141.278
20
8.718
0
VERTEX
8
CONTOURS_MAJEURES
10
143.354
20
9.997
0
VERTEX
8
CONTOURS_MAJEURES
10
145.001
20
11.921
0
VERTEX
8
CONTOURS_MAJEURES
10
146.124
20
13.881
0
VERTEX
8
CONTOURS_MAJEURES
10
147.416
20
15.005
0
VERTEX
8
CONTOURS_MAJEURES
10
147.849
20
17.157
0
VERTEX
8
CONTOURS_MAJEURES
10
150.005
20
18.034
0
VERTEX
8
CONTOURS_MAJEURES
10
151.663
20
20.001
0
VERTEX
8
CONTOURS_MAJEURES
10
152.133
20
22.868
0
VERTEX
8
CONTOURS_MAJEURES
10
154.997
20
24.012
0
SEQEND
0
POLYLINE
8
CONTOURS_MAJEURES
66
1
70
0
0
VERTEX
8
CONTOURS_MAJEURES
10
154.997
20
41.148
0
VERTEX
8
CONTOURS_MAJEURES
10
151.461
20
43.545
0
VERTEX
8
CONTOURS_MAJEURES
10
150.005
20
44.356
0
VERTEX
8
CONTOURS_MAJEURES
10
149.107
20
44.106
0
VERTEX
8
CONTOURS_MAJEURES
10
145.001
20
42.965
0
VERTEX
8
CONTOURS_MAJEURES
10
141.189
20
43.813
0
VERTEX
8
CONTOURS_MAJEURES
10
139.997
20
43.532
0
VERTEX
8
CONTOURS_MAJEURES
10
138.957
20
43.962
0
VERTEX
8
CONTOURS_MAJEURES
10
138.978
20
45.005
0
VERTEX
8
CONTOURS_MAJEURES
10
138.717
20
46.286
0
VERTEX
8
CONTOURS_MAJEURES
10
137.418
20
50.002
0
VERTEX
8
CONTOURS_MAJEURES
10
136.792
20
51.790
0
VERTEX
8
CONTOURS_MAJEURES
10
135.005
20
53.918
0
VERTEX
8
CONTOURS_MAJEURES
10
134.188
20
54.998
0
VERTEX
8
CONTOURS_MAJEURES
10
130.001
20
58.011
0
VERTEX
8
CONTOURS_MAJEURES
10
128.548
20
58.544
0
VERTEX
8
CONTOURS_MAJEURES
10
127.186
20
59.994
0
VERTEX
8
CONTOURS_MAJEURES
10
124.997
20
61.906
0
VERTEX
8
CONTOURS_MAJEURES
10
123.132
20
63.131
0
VERTEX
8
CONTOURS_MAJEURES
10
122.259
20
65.002
0
VERTEX
8
CONTOURS_MAJEURES
10
120.004
20
68.043
0
VERTEX
8
CONTOURS_MAJEURES
10
118.699
20
69.998
0
VERTEX
8
CONTOURS_MAJEURES
10
117.342
20
72.336
0
VERTEX
8
CONTOURS_MAJEURES
10
116.590
20
74.995
0
VERTEX
8
CONTOURS_MAJEURES
10
116.218
20
76.213
0
VERTEX
8
CONTOURS_MAJEURES
10
115.001
20
79.657
0
VERTEX
8
CONTOURS_MAJEURES
10
114.805
20
79.806
0
VERTEX
8
CONTOURS_MAJEURES
10
114.801
20
80.002
0
VERTEX
8
CONTOURS_MAJEURES
10
114.445
20
80.557
0
VERTEX
8
CONTOURS_MAJEURES
10
111.141
20
84.999
0
VERTEX
8
CONTOURS_MAJEURES
10
110.681
20
85.682
0
VERTEX
8
CONTOURS_MAJEURES
10
109.997
20
86.377
0
VERTEX
8
CONTOURS_MAJEURES
10
108.125
20
88.121
0
VERTEX
8
CONTOURS_MAJEURES
10
106.913
20
89.995
0
VERTEX
8
CONTOURS_MAJEURES
10
106.123
20
91.117
0
VERTEX
8
CONTOURS_MAJEURES
10
105.004
20
91.829
0
VERTEX
8
CONTOURS_MAJEURES
10
101.054
20
95.002
0
VERTEX
8
CONTOURS_MAJEURES
10
100.001
20
95.871
0
VERTEX
8
CONTOURS_MAJEURES
10
97.232
20
97.234
0
VERTEX
8
CONTOURS_MAJEURES
10
94.997
20
97.987
0
VERTEX
8
CONTOURS_MAJEURES
10
93.086
20
98.087
0
VERTEX
8
CONTOURS_MAJEURES
10
90.004
20
97.316
0
VERTEX
8
CONTOURS_MAJEURES
10
86.331
20
96.331
0
VERTEX
8
CONTOURS_MAJEURES
10
85.001
20
95.616
0
VERTEX
8
CONTOURS_MAJEURES
10
84.619
20
95.384
0
VERTEX
8
CONTOURS_MAJEURES
10
83.306
20
95.002
0
VERTEX
8
CONTOURS_MAJEURES
10
79.997
20
93.119
0
VERTEX
8
CONTOURS_MAJEURES
10
77.990
20
92.990
0
VERTEX
8
CONTOURS_MAJEURES
10
75.004
20
92.018
0
VERTEX
8
CONTOURS_MAJEURES
10
73.318
20
91.683
0
VERTEX
8
CONTOURS_MAJEURES
10
70.001
20
91.338
0
VERTEX
8
CONTOURS_MAJEURES
10
65.712
20
90.710
0
VERTEX
8
CONTOURS_MAJEURES
10
64.997
20
90.606
0
VERTEX
8
CONTOURS_MAJEURES
10
60.458
20
89.995
0
VERTEX
8
CONTOURS_MAJEURES
10
60.070
20
89.929
0
VERTEX
8
CONTOURS_MAJEURES
10
60.004
20
89.931
0
VERTEX
8
CONTOURS_MAJEURES
10
59.718
20
89.710
0
VERTEX
8
CONTOURS_MAJEURES
10
55.001
20
86.193
0
VERTEX
8
CONTOURS_MAJEURES
10
54.162
20
84.999
0
VERTEX
8
CONTOURS_MAJEURES
10
52.308
20
82.690
0
VERTEX
8
CONTOURS_MAJEURES
10
50.149
20
80.002
0
VERTEX
8
CONTOURS_MAJEURES
10
49.997
20
79.859
0
VERTEX
8
CONTOURS_MAJEURES
10
47.628
20
77.370
0
VERTEX
8
CONTOURS_MAJEURES
10
45.004
20
75.082
0
VERTEX
8
CONTOURS_MAJEURES
10
44.937
20
74.995
0
VERTEX
8
CONTOURS_MAJEURES
10
43.072
20
71.928
0
VERTEX
8
CONTOURS_MAJEURES
10
43.479
20
69.998
0
VERTEX
8
CONTOURS_MAJEURES
10
43.670
20
68.666
0
VERTEX
8
CONTOURS_MAJEURES
10
43.291
20
65.002
0
VERTEX
8
CONTOURS_MAJEURES
10
42.618
20
62.382
0
VERTEX
8
CONTOURS_MAJEURES
10
40.116
20
59.994
0
VERTEX
8
CONTOURS_MAJEURES
10
40.000
20
59.873
0
VERTEX
8
CONTOURS_MAJEURES
10
38.192
20
56.803
0
VERTEX
8
CONTOURS_MAJEURES
10
35.746
20
54.998
0
VERTEX
8
CONTOURS_MAJEURES
10
34.997
20
54.297
0
VERTEX
8
CONTOURS_MAJEURES
10
32.733
20
52.732
0
VERTEX
8
CONTOURS_MAJEURES
10
30.004
20
50.572
0
VERTEX
8
CONTOURS_MAJEURES
10
29.685
20
50.321
0
VERTEX
8
CONTOURS_MAJEURES
10
28.925
20
50.002
0
VERTEX
8
CONTOURS_MAJEURES
10
25.000
20
46.464
0
VERTEX
8
CONTOURS_MAJEURES
10
20.055
20
45.063
0
VERTEX
8
CONTOURS_MAJEURES
10
19.997
20
45.036
0
VERTEX
8
CONTOURS_MAJEURES
10
19.979
20
45.023
0
VERTEX
8
CONTOURS_MAJEURES
10
15.004
20
45.051
0
VERTEX
8
CONTOURS_MAJEURES
10
14.834
20
45.005
0
VERTEX
8
CONTOURS_MAJEURES
10
10.000
20
42.545
0
VERTEX
8
CONTOURS_MAJEURES
10
7.981
20
39.998
0
VERTEX
8
CONTOURS_MAJEURES
10
7.683
20
37.315
0
VERTEX
8
CONTOURS_MAJEURES
10
5.989
20
35.001
0
VERTEX
8
CONTOURS_MAJEURES
10
4.997
20
32.860
0
VERTEX
8
CONTOURS_MAJEURES
10
3.590
20
30.005
0
VERTEX
8
CONTOURS_MAJEURES
10
2.271
20
27.731
0
VERTEX
8
CONTOURS_MAJEURES
10
0.004
20
25.310
0
SEQEND
0
POLYLINE
8
CONTOURS_MAJEURES
66
1
70
0
0
VERTEX
8
CONTOURS_MAJEURES
10
0.004
20
157.101
0
VERTEX
8
CONTOURS_MAJEURES
10
3.190
20
160.000
0
VERTEX
8
CONTOURS_MAJEURES
10
4.997
20
162.047
0
VERTEX
8
CONTOURS_MAJEURES
10
5.725
20
164.270
0
VERTEX
8
CONTOURS_MAJEURES
10
5.876
20
164.996
0
VERTEX
8
CONTOURS_MAJEURES
10
7.156
20
167.158
0
VERTEX
8
CONTOURS_MAJEURES
10
8.222
20
170.004
0
SEQEND
0
POLYLINE
8
CONTOURS_MAJEURES
66
1
70
0
0
VERTEX
8
CONTOURS_MAJEURES
10
0.004
20
20.626
0
VERTEX
8
CONTOURS_MAJEURES
10
0.049
20
20.001
0
VERTEX
8
CONTOURS_MAJEURES
10
0.524
20
15.525
0
VERTEX
8
CONTOURS_MAJEURES
10
0.535
20
15.005
0
VERTEX
8
CONTOURS_MAJEURES
10
0.358
20
14.650
0
VERTEX
8
CONTOURS_MAJEURES
10
0.004
20
13.761
0
SEQEND
0
POLYLINE
8
CONTOURS_MAJEURES
66
1
70
0
0
VERTEX
8
CONTOURS_MAJEURES
10
34.543
20
0.004
0
VERTEX
8
CONTOURS_MAJEURES
10
30.004
20
2.472
0
VERTEX
8
CONTOURS_MAJEURES
10
27.155
20
2.156
0
VERTEX
8
CONTOURS_MAJEURES
10
25.000
20
3.606
0
VERTEX
8
CONTOURS_MAJEURES
10
23.461
20
3.463
0
VERTEX
8
CONTOURS_MAJEURES
10
19.997
20
3.650
0
VERTEX
8
CONTOURS_MAJEURES
10
17.712
20
2.291
0
VERTEX
8
CONTOURS_MAJEURES
10
17.453
20
0.004
0
SEQEND
0
POLYLINE
8
PARCELLE
66
1
70
1
0
VERTEX
8
PARCELLE
10
27.434
20
151.257
0
VERTEX
8
PARCELLE
10
72.692
20
119.429
0
VERTEX
8
PARCELLE
10
91.063
20
101.322
0
VERTEX
8
PARCELLE
10
139.863
20
53.229
0
VERTEX
8
PARCELLE
10
115.569
20
20.000
0
VERTEX
8
PARCELLE
10
95.931
20
37.378
0
VERTEX
8
PARCELLE
10
50.644
20
77.479
0
VERTEX
8
PARCELLE
10
33.755
20
92.436
0
VERTEX
8
PARCELLE
10
31.941
20
98.915
0
VERTEX
8
PARCELLE
10
28.227
20
107.946
0
VERTEX
8
PARCELLE
10
26.005
20
114.668
0
VERTEX
8
PARCELLE
10
24.600
20
118.725
0
VERTEX
8
PARCELLE
10
22.655
20
125.136
0
VERTEX
8
PARCELLE
10
20.971
20
132.812
0
VERTEX
8
PARCELLE
10
20.536
20
136.961
0
VERTEX
8
PARCELLE
10
20.156
20
140.580
0
VERTEX
8
PARCELLE
10
20.000
20
143.429
0
VERTEX
8
PARCELLE
10
20.399
20
145.743
0
VERTEX
8
PARCELLE
10
21.055
20
147.496
0
VERTEX
8
PARCELLE
10
22.235
20
148.805
0
VERTEX
8
PARCELLE
10
23.040
20
149.377
0
VERTEX
8
PARCELLE
10
24.995
20
150.009
0
VERTEX
8
PARCELLE
10
27.434
20
151.257
0
SEQEND
0
TEXT
8
POINTS_COTES
10
0.004
20
0.004
40
1.0
1
120.3
0
TEXT
8
POINTS_COTES
10
120.004
20
5.001
40
1.0
1
124.0
0
TEXT
8
POINTS_COTES
10
79.997
20
15.005
40
1.0
1
126.1
0
TEXT
8
POINTS_COTES
10
40.000
20
24.998
40
1.0
1
127.3
0
TEXT
8
POINTS_COTES
10
0.004
20
35.001
40
1.0
1
114.3
0
TEXT
8
POINTS_COTES
10
120.004
20
39.998
40
1.0
1
121.2
0
TEXT
8
POINTS_COTES
10
79.997
20
50.002
40
1.0
1
124.0
0
TEXT
8
POINTS_COTES
10
40.000
20
59.994
40
1.0
1
119.9
0
TEXT
8
POINTS_COTES
10
0.004
20
69.998
40
1.0
1
91.3
0
TEXT
8
POINTS_COTES
10
120.004
20
74.995
40
1.0
1
119.4
0
TEXT
8
POINTS_COTES
10
79.997
20
84.999
40
1.0
1
121.3
0
TEXT
8
POINTS_COTES
10
40.000
20
95.002
40
1.0
1
103.6
0
TEXT
8
POINTS_COTES
10
0.004
20
104.995
40
1.0
1
101.1
0
TEXT
8
POINTS_COTES
10
120.004
20
110.003
40
1.0
1
118.1
0
TEXT
8
POINTS_COTES
10
79.997
20
119.996
40
1.0
1
108.6
0
TEXT
8
POINTS_COTES
10
40.000
20
129.999
40
1.0
1
93.0
0
TEXT
8
POINTS_COTES
10
0.004
20
140.003
40
1.0
1
91.0
0
TEXT
8
POINTS_COTES
10
120.004
20
145.000
40
1.0
1
117.2
0
TEXT
8
POINTS_COTES
10
79.997
20
155.004
40
1.0
1
86.6
0
TEXT
8
POINTS_COTES
10
40.000
20
164.996
40
1.0
1
91.3
0
ENDSEC
0
EOF
