0
SECTION
2
HEADER
0
ENDSEC
0
SECTION
2
TABLES
0
TABLE
2
LAYER
70
4
0
LAYER
2
CONTOURS_MINEURES
70
0
62
8
6
CONTINUOUS
0
LAYER
2
CONTOURS_MAJEURES
70
0
62
3
6
CONTINUOUS
0
LAYER
2
PARCELLE
70
0
62
4
6
CONTINUOUS
0
LAYER
2
POINTS_COTES
70
0
62
7
6
CONTINUOUS
0
ENDTAB
0
ENDSEC
0
SECTION
2
ENTITIES
0
POLYLINE
8
CONTOURS_MINEURES
66
1
70
0
0
VERTEX
8
CONTOURS_MINEURES
10
134.711
20
-0.001
0
VERTEX
8
CONTOURS_MINEURES
10
134.917
20
0.079
0
VERTEX
8
CONTOURS_MINEURES
10
134.997
20
0.100
0
VERTEX
8
CONTOURS_MINEURES
10
135.109
20
0.111
0
VERTEX
8
CONTOURS_MINEURES
10
138.330
20
-0.001
0
SEQEND
0
POLYLINE
8
CONTOURS_MINEURES
66
1
70
0
0
VERTEX
8
CONTOURS_MINEURES
10
123.980
20
-0.001
0
VERTEX
8
CONTOURS_MINEURES
10
124.998
20
0.795
0
VERTEX
8
CONTOURS_MINEURES
10
127.318
20
2.677
0
VERTEX
8
CONTOURS_MINEURES
10
129.997
20
3.718
0
VERTEX
8
CONTOURS_MINEURES
10
130.917
20
4.076
0
VERTEX
8
CONTOURS_MINEURES
10
134.420
20
4.995
0
VERTEX
8
CONTOURS_MINEURES
10
134.837
20
5.155
0
VERTEX
8
CONTOURS_MINEURES
10
134.997
20
5.174
0
VERTEX
8
CONTOURS_MINEURES
10
135.189
20
5.188
0
VERTEX
8
CONTOURS_MINEURES
10
139.996
20
5.735
0
VERTEX
8
CONTOURS_MINEURES
10
143.246
20
4.995
0
VERTEX
8
CONTOURS_MINEURES
10
144.996
20
2.081
0
VERTEX
8
CONTOURS_MINEURES
10
145.671
20
0.674
0
VERTEX
8
CONTOURS_MINEURES
10
145.442
20
-0.001
0
SEQEND
0
POLYLINE
8
CONTOURS_MINEURES
66
1
70
0
0
VERTEX
8
CONTOURS_MINEURES
10
111.666
20
-0.001
0
VERTEX
8
CONTOURS_MINEURES
10
113.484
20
1.513
0
VERTEX
8
CONTOURS_MINEURES
10
114.999
20
3.330
0
VERTEX
8
CONTOURS_MINEURES
10
117.272
20
4.995
0
VERTEX
8
CONTOURS_MINEURES
10
119.998
20
6.934
0
VERTEX
8
CONTOURS_MINEURES
10
121.556
20
8.443
0
VERTEX
8
CONTOURS_MINEURES
10
124.998
20
9.567
0
VERTEX
8
CONTOURS_MINEURES
10
126.536
20
10.003
0
VERTEX
8
CONTOURS_MINEURES
10
129.060
20
10.940
0
VERTEX
8
CONTOURS_MINEURES
10
129.997
20
10.920
0
VERTEX
8
CONTOURS_MINEURES
10
130.831
20
10.835
0
VERTEX
8
CONTOURS_MINEURES
10
134.997
20
11.486
0
VERTEX
8
CONTOURS_MINEURES
10
136.458
20
11.463
0
VERTEX
8
CONTOURS_MINEURES
10
139.996
20
11.762
0
VERTEX
8
CONTOURS_MINEURES
10
142.014
20
12.983
0
VERTEX
8
CONTOURS_MINEURES
10
144.996
20
13.009
0
VERTEX
8
CONTOURS_MINEURES
10
148.203
20
13.208
0
VERTEX
8
CONTOURS_MINEURES
10
149.995
20
13.304
0
VERTEX
8
CONTOURS_MINEURES
10
152.387
20
12.388
0
VERTEX
8
CONTOURS_MINEURES
10
154.357
20
10.003
0
VERTEX
8
CONTOURS_MINEURES
10
154.873
20
5.127
0
VERTEX
8
CONTOURS_MINEURES
10
154.862
20
4.995
0
VERTEX
8
CONTOURS_MINEURES
10
154.363
20
0.639
0
VERTEX
8
CONTOURS_MINEURES
10
154.156
20
-0.001
0
SEQEND
0
POLYLINE
8
CONTOURS_MINEURES
66
1
70
0
0
VERTEX
8
CONTOURS_MINEURES
10
100.123
20
-0.001
0
VERTEX
8
CONTOURS_MINEURES
10
101.722
20
3.275
0
VERTEX
8
CONTOURS_MINEURES
10
103.750
20
4.995
0
VERTEX
8
CONTOURS_MINEURES
10
104.239
20
5.757
0
VERTEX
8
CONTOURS_MINEURES
10
105.000
20
6.343
0
VERTEX
8
CONTOURS_MINEURES
10
106.301
20
8.699
0
VERTEX
8
CONTOURS_MINEURES
10
107.714
20
10.003
0
VERTEX
8
CONTOURS_MINEURES
10
110.000
20
12.759
0
VERTEX
8
CONTOURS_MINEURES
10
110.915
20
14.084
0
VERTEX
8
CONTOURS_MINEURES
10
111.756
20
14.999
0
VERTEX
8
CONTOURS_MINEURES
10
113.153
20
16.844
0
VERTEX
8
CONTOURS_MINEURES
10
114.999
20
18.155
0
VERTEX
8
CONTOURS_MINEURES
10
116.166
20
18.830
0
VERTEX
8
CONTOURS_MINEURES
10
118.683
20
19.996
0
VERTEX
8
CONTOURS_MINEURES
10
119.998
20
20.622
0
VERTEX
8
CONTOURS_MINEURES
10
123.180
20
21.816
0
VERTEX
8
CONTOURS_MINEURES
10
124.998
20
22.173
0
VERTEX
8
CONTOURS_MINEURES
10
127.125
20
22.126
0
VERTEX
8
CONTOURS_MINEURES
10
129.997
20
22.126
0
VERTEX
8
CONTOURS_MINEURES
10
131.721
20
21.722
0
VERTEX
8
CONTOURS_MINEURES
10
134.997
20
20.954
0
VERTEX
8
CONTOURS_MINEURES
10
139.520
20
20.472
0
VERTEX
8
CONTOURS_MINEURES
10
139.996
20
20.396
0
VERTEX
8
CONTOURS_MINEURES
10
140.830
20
19.996
0
VERTEX
8
CONTOURS_MINEURES
10
143.645
20
18.645
0
VERTEX
8
CONTOURS_MINEURES
10
144.996
20
18.663
0
VERTEX
8
CONTOURS_MINEURES
10
148.269
20
18.271
0
VERTEX
8
CONTOURS_MINEURES
10
149.995
20
18.403
0
VERTEX
8
CONTOURS_MINEURES
10
153.022
20
16.977
0
VERTEX
8
CONTOURS_MINEURES
10
155.005
20
16.482
0
VERTEX
8
CONTOURS_MINEURES
10
156.061
20
16.054
0
VERTEX
8
CONTOURS_MINEURES
10
156.702
20
14.999
0
VERTEX
8
CONTOURS_MINEURES
10
158.805
20
11.202
0
VERTEX
8
CONTOURS_MINEURES
10
159.689
20
10.003
0
VERTEX
8
CONTOURS_MINEURES
10
159.716
20
9.714
0
VERTEX
8
CONTOURS_MINEURES
10
160.005
20
8.421
0
VERTEX
8
CONTOURS_MINEURES
10
160.817
20
4.995
0
VERTEX
8
CONTOURS_MINEURES
10
160.764
20
0.758
0
VERTEX
8
CONTOURS_MINEURES
10
160.805
20
-0.001
0
SEQEND
0
POLYLINE
8
CONTOURS_MINEURES
66
1
70
0
0
VERTEX
8
CONTOURS_MINEURES
10
76.253
20
-0.001
0
VERTEX
8
CONTOURS_MINEURES
10
80.003
20
4.995
0
VERTEX
8
CONTOURS_MINEURES
10
82.003
20
8.000
0
VERTEX
8
CONTOURS_MINEURES
10
83.336
20
10.003
0
VERTEX
8
CONTOURS_MINEURES
10
84.739
20
14.736
0
VERTEX
8
CONTOURS_MINEURES
10
84.871
20
14.999
0
VERTEX
8
CONTOURS_MINEURES
10
85.002
20
15.216
0
VERTEX
8
CONTOURS_MINEURES
10
87.621
20
17.378
0
VERTEX
8
CONTOURS_MINEURES
10
90.002
20
18.700
0
VERTEX
8
CONTOURS_MINEURES
10
92.918
20
19.996
0
VERTEX
8
CONTOURS_MINEURES
10
95.001
20
20.732
0
VERTEX
8
CONTOURS_MINEURES
10
97.084
20
22.082
0
VERTEX
8
CONTOURS_MINEURES
10
100.001
20
23.872
0
VERTEX
8
CONTOURS_MINEURES
10
100.715
20
24.288
0
VERTEX
8
CONTOURS_MINEURES
10
102.188
20
25.003
0
VERTEX
8
CONTOURS_MINEURES
10
105.000
20
26.958
0
VERTEX
8
CONTOURS_MINEURES
10
108.684
20
29.999
0
VERTEX
8
CONTOURS_MINEURES
10
109.479
20
30.520
0
VERTEX
8
CONTOURS_MINEURES
10
110.000
20
30.640
0
VERTEX
8
CONTOURS_MINEURES
10
110.641
20
30.640
0
VERTEX
8
CONTOURS_MINEURES
10
114.999
20
31.381
0
VERTEX
8
CONTOURS_MINEURES
10
118.147
20
31.850
0
VERTEX
8
CONTOURS_MINEURES
10
119.998
20
31.921
0
VERTEX
8
CONTOURS_MINEURES
10
121.885
20
31.885
0
VERTEX
8
CONTOURS_MINEURES
10
124.998
20
32.052
0
VERTEX
8
CONTOURS_MINEURES
10
127.892
20
32.103
0
VERTEX
8
CONTOURS_MINEURES
10
129.997
20
32.141
0
VERTEX
8
CONTOURS_MINEURES
10
133.475
20
31.520
0
VERTEX
8
CONTOURS_MINEURES
10
134.997
20
31.457
0
VERTEX
8
CONTOURS_MINEURES
10
136.247
20
31.249
0
VERTEX
8
CONTOURS_MINEURES
10
139.996
20
30.333
0
VERTEX
8
CONTOURS_MINEURES
10
140.451
20
29.999
0
VERTEX
8
CONTOURS_MINEURES
10
143.210
20
28.215
0
VERTEX
8
CONTOURS_MINEURES
10
144.996
20
27.370
0
VERTEX
8
CONTOURS_MINEURES
10
148.187
20
26.810
0
VERTEX
8
CONTOURS_MINEURES
10
149.995
20
26.373
0
VERTEX
8
CONTOURS_MINEURES
10
154.692
20
25.315
0
VERTEX
8
CONTOURS_MINEURES
10
155.005
20
25.206
0
VERTEX
8
CONTOURS_MINEURES
10
155.630
20
25.003
0
VERTEX
8
CONTOURS_MINEURES
10
158.623
20
23.619
0
VERTEX
8
CONTOURS_MINEURES
10
160.005
20
22.900
0
VERTEX
8
CONTOURS_MINEURES
10
163.923
20
19.996
0
VERTEX
8
CONTOURS_MINEURES
10
164.441
20
19.433
0
VERTEX
8
CONTOURS_MINEURES
10
165.004
20
17.331
0
VERTEX
8
CONTOURS_MINEURES
10
165.618
20
14.999
0
VERTEX
8
CONTOURS_MINEURES
10
166.328
20
11.325
0
VERTEX
8
CONTOURS_MINEURES
10
166.433
20
10.003
0
VERTEX
8
CONTOURS_MINEURES
10
167.119
20
7.114
0
VERTEX
8
CONTOURS_MINEURES
10
167.623
20
4.995
0
VERTEX
8
CONTOURS_MINEURES
10
168.177
20
1.825
0
VERTEX
8
CONTOURS_MINEURES
10
168.307
20
-0.001
0
SEQEND
0
POLYLINE
8
CONTOURS_MINEURES
66
1
70
0
0
VERTEX
8
CONTOURS_MINEURES
10
45.584
20
-0.001
0
VERTEX
8
CONTOURS_MINEURES
10
47.496
20
2.497
0
VERTEX
8
CONTOURS_MINEURES
10
49.469
20
4.995
0
VERTEX
8
CONTOURS_MINEURES
10
49.768
20
5.223
0
VERTEX
8
CONTOURS_MINEURES
10
49.996
20
5.552
0
VERTEX
8
CONTOURS_MINEURES
10
54.206
20
10.003
0
VERTEX
8
CONTOURS_MINEURES
10
54.741
20
10.257
0
VERTEX
8
CONTOURS_MINEURES
10
54.995
20
10.602
0
VERTEX
8
CONTOURS_MINEURES
10
57.619
20
14.999
0
VERTEX
8
CONTOURS_MINEURES
10
58.950
20
16.051
0
VERTEX
8
CONTOURS_MINEURES
10
60.005
20
17.172
0
VERTEX
8
CONTOURS_MINEURES
10
64.198
20
19.996
0
VERTEX
8
CONTOURS_MINEURES
10
64.762
20
20.239
0
VERTEX
8
CONTOURS_MINEURES
10
65.005
20
20.413
0
VERTEX
8
CONTOURS_MINEURES
10
65.719
20
20.711
0
VERTEX
8
CONTOURS_MINEURES
10
70.004
20
21.873
0
VERTEX
8
CONTOURS_MINEURES
10
72.385
20
22.619
0
VERTEX
8
CONTOURS_MINEURES
10
75.004
20
24.344
0
VERTEX
8
CONTOURS_MINEURES
10
76.670
20
25.003
0
VERTEX
8
CONTOURS_MINEURES
10
80.003
20
26.669
0
VERTEX
8
CONTOURS_MINEURES
10
81.757
20
28.246
0
VERTEX
8
CONTOURS_MINEURES
10
82.944
20
29.999
0
VERTEX
8
CONTOURS_MINEURES
10
85.002
20
32.331
0
VERTEX
8
CONTOURS_MINEURES
10
86.669
20
33.330
0
VERTEX
8
CONTOURS_MINEURES
10
89.708
20
34.996
0
VERTEX
8
CONTOURS_MINEURES
10
89.928
20
35.069
0
VERTEX
8
CONTOURS_MINEURES
10
90.002
20
35.110
0
VERTEX
8
CONTOURS_MINEURES
10
93.526
20
36.473
0
VERTEX
8
CONTOURS_MINEURES
10
95.001
20
36.914
0
VERTEX
8
CONTOURS_MINEURES
10
97.728
20
37.727
0
VERTEX
8
CONTOURS_MINEURES
10
100.001
20
38.559
0
VERTEX
8
CONTOURS_MINEURES
10
101.042
20
38.960
0
VERTEX
8
CONTOURS_MINEURES
10
105.000
20
39.599
0
VERTEX
8
CONTOURS_MINEURES
10
109.523
20
39.526
0
VERTEX
8
CONTOURS_MINEURES
10
110.000
20
39.586
0
VERTEX
8
CONTOURS_MINEURES
10
110.416
20
39.586
0
VERTEX
8
CONTOURS_MINEURES
10
111.764
20
40.003
0
VERTEX
8
CONTOURS_MINEURES
10
114.034
20
40.968
0
VERTEX
8
CONTOURS_MINEURES
10
114.999
20
41.198
0
VERTEX
8
CONTOURS_MINEURES
10
116.278
20
41.281
0
VERTEX
8
CONTOURS_MINEURES
10
119.998
20
41.524
0
VERTEX
8
CONTOURS_MINEURES
10
123.198
20
41.802
0
VERTEX
8
CONTOURS_MINEURES
10
124.998
20
42.095
0
VERTEX
8
CONTOURS_MINEURES
10
127.141
20
42.145
0
VERTEX
8
CONTOURS_MINEURES
10
129.997
20
42.335
0
VERTEX
8
CONTOURS_MINEURES
10
132.497
20
42.502
0
VERTEX
8
CONTOURS_MINEURES
10
134.997
20
42.668
0
VERTEX
8
CONTOURS_MINEURES
10
137.550
20
42.555
0
VERTEX
8
CONTOURS_MINEURES
10
139.996
20
42.555
0
VERTEX
8
CONTOURS_MINEURES
10
142.923
20
40.003
0
VERTEX
8
CONTOURS_MINEURES
10
144.996
20
37.424
0
VERTEX
8
CONTOURS_MINEURES
10
146.450
20
36.453
0
VERTEX
8
CONTOURS_MINEURES
10
149.995
20
35.354
0
VERTEX
8
CONTOURS_MINEURES
10
150.678
20
34.996
0
VERTEX
8
CONTOURS_MINEURES
10
153.719
20
33.713
0
VERTEX
8
CONTOURS_MINEURES
10
155.005
20
33.018
0
VERTEX
8
CONTOURS_MINEURES
10
158.659
20
31.345
0
VERTEX
8
CONTOURS_MINEURES
10
160.005
20
30.971
0
VERTEX
8
CONTOURS_MINEURES
10
164.379
20
29.999
0
VERTEX
8
CONTOURS_MINEURES
10
164.942
20
29.937
0
VERTEX
8
CONTOURS_MINEURES
10
165.004
20
29.895
0
VERTEX
8
CONTOURS_MINEURES
10
165.267
20
29.736
0
VERTEX
8
CONTOURS_MINEURES
10
170.004
20
27.197
0
VERTEX
8
CONTOURS_MINEURES
10
171.157
20
26.156
0
VERTEX
8
CONTOURS_MINEURES
10
172.575
20
25.003
0
VERTEX
8
CONTOURS_MINEURES
10
175.003
20
21.598
0
VERTEX
8
CONTOURS_MINEURES
10
175.618
20
20.612
0
VERTEX
8
CONTOURS_MINEURES
10
175.933
20
19.996
0
VERTEX
8
CONTOURS_MINEURES
10
176.215
20
18.784
0
VERTEX
8
CONTOURS_MINEURES
10
176.531
20
14.999
0
VERTEX
8
CONTOURS_MINEURES
10
176.954
20
11.953
0
VERTEX
8
CONTOURS_MINEURES
10
177.289
20
10.003
0
VERTEX
8
CONTOURS_MINEURES
10
177.225
20
7.777
0
VERTEX
8
CONTOURS_MINEURES
10
177.564
20
4.995
0
VERTEX
8
CONTOURS_MINEURES
10
178.151
20
3.145
0
VERTEX
8
CONTOURS_MINEURES
10
179.050
20
-0.001
0
SEQEND
0
POLYLINE
8
CONTOURS_MINEURES
66
1
70
0
0
VERTEX
8
CONTOURS_MINEURES
10
27.052
20
-0.001
0
VERTEX
8
CONTOURS_MINEURES
10
27.641
20
2.354
0
VERTEX
8
CONTOURS_MINEURES
10
29.998
20
4.455
0
VERTEX
8
CONTOURS_MINEURES
10
30.767
20
4.995
0
VERTEX
8
CONTOURS_MINEURES
10
33.331
20
6.664
0
VERTEX
8
CONTOURS_MINEURES
10
34.997
20
7.557
0
VERTEX
8
CONTOURS_MINEURES
10
37.760
20
10.003
0
VERTEX
8
CONTOURS_MINEURES
10
39.997
20
11.106
0
VERTEX
8
CONTOURS_MINEURES
10
43.538
20
13.542
0
VERTEX
8
CONTOURS_MINEURES
10
44.996
20
14.461
0
VERTEX
8
CONTOURS_MINEURES
10
45.381
20
14.615
0
VERTEX
8
CONTOURS_MINEURES
10
45.682
20
14.999
0
VERTEX
8
CONTOURS_MINEURES
10
49.996
20
18.096
0
VERTEX
8
CONTOURS_MINEURES
10
51.281
20
18.711
0
VERTEX
8
CONTOURS_MINEURES
10
52.591
20
19.996
0
VERTEX
8
CONTOURS_MINEURES
10
54.048
20
20.944
0
VERTEX
8
CONTOURS_MINEURES
10
54.995
20
21.486
0
VERTEX
8
CONTOURS_MINEURES
10
57.218
20
22.782
0
VERTEX
8
CONTOURS_MINEURES
10
59.841
20
25.003
0
VERTEX
8
CONTOURS_MINEURES
10
60.005
20
25.118
0
VERTEX
8
CONTOURS_MINEURES
10
63.274
20
26.733
0
VERTEX
8
CONTOURS_MINEURES
10
65.005
20
27.648
0
VERTEX
8
CONTOURS_MINEURES
10
66.823
20
28.183
0
VERTEX
8
CONTOURS_MINEURES
10
69.655
20
29.999
0
VERTEX
8
CONTOURS_MINEURES
10
69.883
20
30.120
0
VERTEX
8
CONTOURS_MINEURES
10
70.004
20
30.187
0
VERTEX
8
CONTOURS_MINEURES
10
70.656
20
30.651
0
VERTEX
8
CONTOURS_MINEURES
10
75.004
20
33.410
0
VERTEX
8
CONTOURS_MINEURES
10
76.003
20
33.997
0
VERTEX
8
CONTOURS_MINEURES
10
77.003
20
34.996
0
VERTEX
8
CONTOURS_MINEURES
10
80.003
20
37.205
0
VERTEX
8
CONTOURS_MINEURES
10
82.679
20
40.003
0
VERTEX
8
CONTOURS_MINEURES
10
83.865
20
41.140
0
VERTEX
8
CONTOURS_MINEURES
10
85.002
20
42.293
0
VERTEX
8
CONTOURS_MINEURES
10
89.585
20
44.583
0
VERTEX
8
CONTOURS_MINEURES
10
90.002
20
44.750
0
VERTEX
8
CONTOURS_MINEURES
10
90.602
20
45.000
0
VERTEX
8
CONTOURS_MINEURES
10
95.001
20
47.498
0
VERTEX
8
CONTOURS_MINEURES
10
99.584
20
49.996
0
VERTEX
8
CONTOURS_MINEURES
10
99.873
20
50.125
0
VERTEX
8
CONTOURS_MINEURES
10
100.001
20
50.205
0
VERTEX
8
CONTOURS_MINEURES
10
103.485
20
51.514
0
VERTEX
8
CONTOURS_MINEURES
10
105.000
20
52.439
0
VERTEX
8
CONTOURS_MINEURES
10
109.545
20
54.548
0
VERTEX
8
CONTOURS_MINEURES
10
110.000
20
54.681
0
VERTEX
8
CONTOURS_MINEURES
10
111.111
20
55.004
0
VERTEX
8
CONTOURS_MINEURES
10
114.363
20
55.640
0
VERTEX
8
CONTOURS_MINEURES
10
114.999
20
55.857
0
VERTEX
8
CONTOURS_MINEURES
10
115.999
20
56.003
0
VERTEX
8
CONTOURS_MINEURES
10
119.998
20
55.761
0
VERTEX
8
CONTOURS_MINEURES
10
120.693
20
55.698
0
VERTEX
8
CONTOURS_MINEURES
10
124.998
20
56.128
0
VERTEX
8
CONTOURS_MINEURES
10
128.295
20
56.705
0
VERTEX
8
CONTOURS_MINEURES
10
129.997
20
56.780
0
VERTEX
8
CONTOURS_MINEURES
10
131.948
20
56.953
0
VERTEX
8
CONTOURS_MINEURES
10
134.997
20
56.877
0
VERTEX
8
CONTOURS_MINEURES
10
137.024
20
57.029
0
VERTEX
8
CONTOURS_MINEURES
10
139.996
20
56.859
0
VERTEX
8
CONTOURS_MINEURES
10
142.950
20
57.956
0
VERTEX
8
CONTOURS_MINEURES
10
144.996
20
58.549
0
VERTEX
8
CONTOURS_MINEURES
10
146.547
20
58.449
0
VERTEX
8
CONTOURS_MINEURES
10
149.995
20
58.449
0
VERTEX
8
CONTOURS_MINEURES
10
151.799
20
58.201
0
VERTEX
8
CONTOURS_MINEURES
10
155.005
20
58.479
0
VERTEX
8
CONTOURS_MINEURES
10
158.814
20
58.810
0
VERTEX
8
CONTOURS_MINEURES
10
160.005
20
58.959
0
VERTEX
8
CONTOURS_MINEURES
10
163.523
20
58.520
0
VERTEX
8
CONTOURS_MINEURES
10
165.004
20
58.401
0
VERTEX
8
CONTOURS_MINEURES
10
167.432
20
57.430
0
VERTEX
8
CONTOURS_MINEURES
10
167.580
20
55.004
0
VERTEX
8
CONTOURS_MINEURES
10
168.152
20
51.851
0
VERTEX
8
CONTOURS_MINEURES
10
168.754
20
49.996
0
VERTEX
8
CONTOURS_MINEURES
10
170.004
20
47.220
0
VERTEX
8
CONTOURS_MINEURES
10
170.837
20
45.832
0
VERTEX
8
CONTOURS_MINEURES
10
171.056
20
45.000
0
VERTEX
8
CONTOURS_MINEURES
10
173.640
20
41.366
0
VERTEX
8
CONTOURS_MINEURES
10
174.486
20
40.003
0
VERTEX
8
CONTOURS_MINEURES
10
174.744
20
39.744
0
VERTEX
8
CONTOURS_MINEURES
10
175.003
20
39.485
0
VERTEX
8
CONTOURS_MINEURES
10
177.957
20
34.996
0
VERTEX
8
CONTOURS_MINEURES
10
178.451
20
33.445
0
VERTEX
8
CONTOURS_MINEURES
10
180.003
20
31.398
0
VERTEX
8
CONTOURS_MINEURES
10
181.299
20
29.999
0
VERTEX
8
CONTOURS_MINEURES
10
183.415
20
28.413
0
VERTEX
8
CONTOURS_MINEURES
10
185.002
20
26.776
0
VERTEX
8
CONTOURS_MINEURES
10
186.721
20
25.003
0
VERTEX
8
CONTOURS_MINEURES
10
188.930
20
21.069
0
VERTEX
8
CONTOURS_MINEURES
10
189.560
20
19.996
0
VERTEX
8
CONTOURS_MINEURES
10
189.845
20
15.155
0
VERTEX
8
CONTOURS_MINEURES
10
189.870
20
14.999
0
VERTEX
8
CONTOURS_MINEURES
10
190.001
20
12.501
0
VERTEX
8
CONTOURS_MINEURES
10
190.144
20
10.003
0
VERTEX
8
CONTOURS_MINEURES
10
190.137
20
9.867
0
VERTEX
8
CONTOURS_MINEURES
10
190.137
20
4.995
0
VERTEX
8
CONTOURS_MINEURES
10
191.088
20
1.085
0
VERTEX
8
CONTOURS_MINEURES
10
191.251
20
-0.001
0
SEQEND
0
POLYLINE
8
CONTOURS_MINEURES
66
1
70
0
0
VERTEX
8
CONTOURS_MINEURES
10
0.001
20
17.270
0
VERTEX
8
CONTOURS_MINEURES
10
2.309
20
17.690
0
VERTEX
8
CONTOURS_MINEURES
10
5.001
20
17.057
0
VERTEX
8
CONTOURS_MINEURES
10
7.941
20
17.057
0
VERTEX
8
CONTOURS_MINEURES
10
10.000
20
16.665
0
VERTEX
8
CONTOURS_MINEURES
10
12.414
20
17.584
0
VERTEX
8
CONTOURS_MINEURES
10
14.999
20
17.882
0
VERTEX
8
CONTOURS_MINEURES
10
17.343
20
17.341
0
VERTEX
8
CONTOURS_MINEURES
10
19.999
20
16.850
0
VERTEX
8
CONTOURS_MINEURES
10
23.570
20
14.999
0
VERTEX
8
CONTOURS_MINEURES
10
24.998
20
14.500
0
VERTEX
8
CONTOURS_MINEURES
10
25.332
20
14.666
0
VERTEX
8
CONTOURS_MINEURES
10
28.998
20
14.999
0
VERTEX
8
CONTOURS_MINEURES
10
29.998
20
15.092
0
VERTEX
8
CONTOURS_MINEURES
10
33.838
20
16.158
0
VERTEX
8
CONTOURS_MINEURES
10
34.997
20
16.377
0
VERTEX
8
CONTOURS_MINEURES
10
37.558
20
17.436
0
VERTEX
8
CONTOURS_MINEURES
10
39.997
20
18.122
0
VERTEX
8
CONTOURS_MINEURES
10
41.022
20
18.971
0
VERTEX
8
CONTOURS_MINEURES
10
43.330
20
19.996
0
VERTEX
8
CONTOURS_MINEURES
10
44.996
20
20.981
0
VERTEX
8
CONTOURS_MINEURES
10
48.154
20
23.158
0
VERTEX
8
CONTOURS_MINEURES
10
49.996
20
24.565
0
VERTEX
8
CONTOURS_MINEURES
10
50.261
20
24.737
0
VERTEX
8
CONTOURS_MINEURES
10
50.725
20
25.003
0
VERTEX
8
CONTOURS_MINEURES
10
54.995
20
28.204
0
VERTEX
8
CONTOURS_MINEURES
10
58.027
20
29.999
0
VERTEX
8
CONTOURS_MINEURES
10
60.005
20
30.999
0
VERTEX
8
CONTOURS_MINEURES
10
62.505
20
32.498
0
VERTEX
8
CONTOURS_MINEURES
10
65.005
20
33.700
0
VERTEX
8
CONTOURS_MINEURES
10
65.851
20
34.150
0
VERTEX
8
CONTOURS_MINEURES
10
67.391
20
34.996
0
VERTEX
8
CONTOURS_MINEURES
10
70.004
20
36.595
0
VERTEX
8
CONTOURS_MINEURES
10
71.903
20
38.101
0
VERTEX
8
CONTOURS_MINEURES
10
74.379
20
40.003
0
VERTEX
8
CONTOURS_MINEURES
10
75.004
20
40.525
0
VERTEX
8
CONTOURS_MINEURES
10
77.462
20
42.542
0
VERTEX
8
CONTOURS_MINEURES
10
80.003
20
44.189
0
VERTEX
8
CONTOURS_MINEURES
10
80.417
20
44.586
0
VERTEX
8
CONTOURS_MINEURES
10
80.825
20
45.000
0
VERTEX
8
CONTOURS_MINEURES
10
82.808
20
47.192
0
VERTEX
8
CONTOURS_MINEURES
10
85.002
20
49.838
0
VERTEX
8
CONTOURS_MINEURES
10
85.235
20
49.996
0
VERTEX
8
CONTOURS_MINEURES
10
90.002
20
53.870
0
VERTEX
8
CONTOURS_MINEURES
10
90.668
20
54.336
0
VERTEX
8
CONTOURS_MINEURES
10
91.668
20
55.004
0
VERTEX
8
CONTOURS_MINEURES
10
95.001
20
56.938
0
VERTEX
8
CONTOURS_MINEURES
10
97.066
20
57.936
0
VERTEX
8
CONTOURS_MINEURES
10
100.001
20
59.655
0
VERTEX
8
CONTOURS_MINEURES
10
100.589
20
60.000
0
VERTEX
8
CONTOURS_MINEURES
10
103.515
20
61.484
0
VERTEX
8
CONTOURS_MINEURES
10
105.000
20
62.457
0
VERTEX
8
CONTOURS_MINEURES
10
109.697
20
64.996
0
VERTEX
8
CONTOURS_MINEURES
10
109.886
20
65.110
0
VERTEX
8
CONTOURS_MINEURES
10
110.000
20
65.197
0
VERTEX
8
CONTOURS_MINEURES
10
113.333
20
66.666
0
VERTEX
8
CONTOURS_MINEURES
10
114.999
20
67.928
0
VERTEX
8
CONTOURS_MINEURES
10
119.472
20
70.004
0
VERTEX
8
CONTOURS_MINEURES
10
119.915
20
70.087
0
VERTEX
8
CONTOURS_MINEURES
10
119.998
20
70.112
0
VERTEX
8
CONTOURS_MINEURES
10
124.785
20
70.216
0
VERTEX
8
CONTOURS_MINEURES
10
124.998
20
70.245
0
VERTEX
8
CONTOURS_MINEURES
10
125.254
20
70.260
0
VERTEX
8
CONTOURS_MINEURES
10
129.997
20
70.135
0
VERTEX
8
CONTOURS_MINEURES
10
133.330
20
70.004
0
VERTEX
8
CONTOURS_MINEURES
10
134.841
20
69.847
0
VERTEX
8
CONTOURS_MINEURES
10
134.997
20
69.852
0
VERTEX
8
CONTOURS_MINEURES
10
135.309
20
70.004
0
VERTEX
8
CONTOURS_MINEURES
10
139.104
20
70.896
0
VERTEX
8
CONTOURS_MINEURES
10
139.996
20
70.977
0
VERTEX
8
CONTOURS_MINEURES
10
143.402
20
71.596
0
VERTEX
8
CONTOURS_MINEURES
10
144.996
20
71.910
0
VERTEX
8
CONTOURS_MINEURES
10
146.929
20
71.936
0
VERTEX
8
CONTOURS_MINEURES
10
149.995
20
72.163
0
VERTEX
8
CONTOURS_MINEURES
10
152.431
20
72.433
0
VERTEX
8
CONTOURS_MINEURES
10
155.005
20
72.660
0
VERTEX
8
CONTOURS_MINEURES
10
158.005
20
73.002
0
VERTEX
8
CONTOURS_MINEURES
10
160.005
20
73.057
0
VERTEX
8
CONTOURS_MINEURES
10
161.976
20
73.030
0
VERTEX
8
CONTOURS_MINEURES
10
165.004
20
73.469
0
VERTEX
8
CONTOURS_MINEURES
10
168.261
20
73.259
0
VERTEX
8
CONTOURS_MINEURES
10
170.004
20
73.085
0
VERTEX
8
CONTOURS_MINEURES
10
172.450
20
72.555
0
VERTEX
8
CONTOURS_MINEURES
10
175.003
20
72.036
0
VERTEX
8
CONTOURS_MINEURES
10
176.561
20
71.561
0
VERTEX
8
CONTOURS_MINEURES
10
180.003
20
70.659
0
VERTEX
8
CONTOURS_MINEURES
10
181.055
20
70.004
0
VERTEX
8
CONTOURS_MINEURES
10
182.324
20
67.321
0
VERTEX
8
CONTOURS_MINEURES
10
184.065
20
64.996
0
VERTEX
8
CONTOURS_MINEURES
10
184.466
20
64.461
0
VERTEX
8
CONTOURS_MINEURES
10
185.002
20
63.886
0
VERTEX
8
CONTOURS_MINEURES
10
187.839
20
60.000
0
VERTEX
8
CONTOURS_MINEURES
10
189.376
20
55.628
0
VERTEX
8
CONTOURS_MINEURES
10
189.349
20
55.004
0
VERTEX
8
CONTOURS_MINEURES
10
188.450
20
51.550
0
VERTEX
8
CONTOURS_MINEURES
10
188.045
20
49.996
0
VERTEX
8
CONTOURS_MINEURES
10
188.450
20
48.446
0
VERTEX
8
CONTOURS_MINEURES
10
189.002
20
45.000
0
VERTEX
8
CONTOURS_MINEURES
10
190.001
20
43.810
0
VERTEX
8
CONTOURS_MINEURES
10
191.819
20
41.820
0
VERTEX
8
CONTOURS_MINEURES
10
194.001
20
40.003
0
VERTEX
8
CONTOURS_MINEURES
10
195.001
20
39.396
0
VERTEX
8
CONTOURS_MINEURES
10
198.334
20
36.665
0
VERTEX
8
CONTOURS_MINEURES
10
200.000
20
35.451
0
VERTEX
8
CONTOURS_MINEURES
10
200.294
20
35.290
0
VERTEX
8
CONTOURS_MINEURES
10
201.000
20
34.996
0
VERTEX
8
CONTOURS_MINEURES
10
205.000
20
33.971
0
VERTEX
8
CONTOURS_MINEURES
10
207.499
20
32.498
0
VERTEX
8
CONTOURS_MINEURES
10
209.999
20
31.394
0
VERTEX
8
CONTOURS_MINEURES
10
211.016
20
31.016
0
VERTEX
8
CONTOURS_MINEURES
10
211.999
20
29.999
0
VERTEX
8
CONTOURS_MINEURES
10
212.068
20
27.932
0
VERTEX
8
CONTOURS_MINEURES
10
209.999
20
27.779
0
VERTEX
8
CONTOURS_MINEURES
10
206.052
20
25.003
0
VERTEX
8
CONTOURS_MINEURES
10
205.000
20
24.414
0
VERTEX
8
CONTOURS_MINEURES
10
200.162
20
24.842
0
VERTEX
8
CONTOURS_MINEURES
10
200.000
20
24.447
0
VERTEX
8
CONTOURS_MINEURES
10
199.394
20
20.603
0
VERTEX
8
CONTOURS_MINEURES
10
199.460
20
19.996
0
VERTEX
8
CONTOURS_MINEURES
10
199.853
20
15.146
0
VERTEX
8
CONTOURS_MINEURES
10
199.849
20
14.999
0
VERTEX
8
CONTOURS_MINEURES
10
199.853
20
14.852
0
VERTEX
8
CONTOURS_MINEURES
10
199.853
20
10.003
0
VERTEX
8
CONTOURS_MINEURES
10
199.849
20
9.851
0
VERTEX
8
CONTOURS_MINEURES
10
199.267
20
4.995
0
VERTEX
8
CONTOURS_MINEURES
10
199.321
20
4.317
0
VERTEX
8
CONTOURS_MINEURES
10
199.488
20
-0.001
0
SEQEND
0
POLYLINE
8
CONTOURS_MINEURES
66
1
70
0
0
VERTEX
8
CONTOURS_MINEURES
10
206.818
20
-0.001
0
VERTEX
8
CONTOURS_MINEURES
10
209.999
20
2.497
0
VERTEX
8
CONTOURS_MINEURES
10
213.888
20
1.109
0
VERTEX
8
CONTOURS_MINEURES
10
214.999
20
0.623
0
VERTEX
8
CONTOURS_MINEURES
10
215.249
20
0.249
0
VERTEX
8
CONTOURS_MINEURES
10
215.399
20
-0.001
0
SEQEND
0
POLYLINE
8
CONTOURS_MINEURES
66
1
70
0
0
VERTEX
8
CONTOURS_MINEURES
10
0.001
20
40.558
0
VERTEX
8
CONTOURS_MINEURES
10
1.177
20
41.179
0
VERTEX
8
CONTOURS_MINEURES
10
5.001
20
41.752
0
VERTEX
8
CONTOURS_MINEURES
10
7.059
20
42.061
0
VERTEX
8
CONTOURS_MINEURES
10
10.000
20
41.156
0
VERTEX
8
CONTOURS_MINEURES
10
12.500
20
40.003
0
VERTEX
8
CONTOURS_MINEURES
10
14.999
20
39.467
0
VERTEX
8
CONTOURS_MINEURES
10
18.289
20
38.290
0
VERTEX
8
CONTOURS_MINEURES
10
19.999
20
37.500
0
VERTEX
8
CONTOURS_MINEURES
10
23.610
20
34.996
0
VERTEX
8
CONTOURS_MINEURES
10
24.998
20
33.910
0
VERTEX
8
CONTOURS_MINEURES
10
26.998
20
31.998
0
VERTEX
8
CONTOURS_MINEURES
10
28.911
20
29.999
0
VERTEX
8
CONTOURS_MINEURES
10
29.998
20
28.612
0
VERTEX
8
CONTOURS_MINEURES
10
30.959
20
29.039
0
VERTEX
8
CONTOURS_MINEURES
10
34.997
20
28.750
0
VERTEX
8
CONTOURS_MINEURES
10
35.943
20
29.054
0
VERTEX
8
CONTOURS_MINEURES
10
39.997
20
28.334
0
VERTEX
8
CONTOURS_MINEURES
10
41.133
20
28.864
0
VERTEX
8
CONTOURS_MINEURES
10
44.163
20
29.999
0
VERTEX
8
CONTOURS_MINEURES
10
44.996
20
30.318
0
VERTEX
8
CONTOURS_MINEURES
10
47.554
20
32.440
0
VERTEX
8
CONTOURS_MINEURES
10
49.996
20
34.663
0
VERTEX
8
CONTOURS_MINEURES
10
50.551
20
34.996
0
VERTEX
8
CONTOURS_MINEURES
10
53.256
20
36.738
0
VERTEX
8
CONTOURS_MINEURES
10
54.995
20
38.158
0
VERTEX
8
CONTOURS_MINEURES
10
56.294
20
38.705
0
VERTEX
8
CONTOURS_MINEURES
10
60.005
20
40.003
0
VERTEX
8
CONTOURS_MINEURES
10
65.005
20
42.446
0
VERTEX
8
CONTOURS_MINEURES
10
66.559
20
43.447
0
VERTEX
8
CONTOURS_MINEURES
10
70.004
20
44.397
0
VERTEX
8
CONTOURS_MINEURES
10
70.749
20
45.000
0
VERTEX
8
CONTOURS_MINEURES
10
72.731
20
47.271
0
VERTEX
8
CONTOURS_MINEURES
10
75.004
20
48.843
0
VERTEX
8
CONTOURS_MINEURES
10
76.768
20
49.996
0
VERTEX
8
CONTOURS_MINEURES
10
78.536
20
51.465
0
VERTEX
8
CONTOURS_MINEURES
10
80.003
20
52.036
0
VERTEX
8
CONTOURS_MINEURES
10
81.954
20
55.004
0
VERTEX
8
CONTOURS_MINEURES
10
84.574
20
59.572
0
VERTEX
8
CONTOURS_MINEURES
10
84.826
20
60.000
0
VERTEX
8
CONTOURS_MINEURES
10
85.002
20
60.294
0
VERTEX
8
CONTOURS_MINEURES
10
88.002
20
61.999
0
VERTEX
8
CONTOURS_MINEURES
10
90.002
20
62.621
0
VERTEX
8
CONTOURS_MINEURES
10
94.850
20
64.845
0
VERTEX
8
CONTOURS_MINEURES
10
95.001
20
64.917
0
VERTEX
8
CONTOURS_MINEURES
10
95.168
20
64.996
0
VERTEX
8
CONTOURS_MINEURES
10
98.407
20
66.592
0
VERTEX
8
CONTOURS_MINEURES
10
100.001
20
67.590
0
VERTEX
8
CONTOURS_MINEURES
10
103.293
20
70.004
0
VERTEX
8
CONTOURS_MINEURES
10
105.000
20
70.676
0
VERTEX
8
CONTOURS_MINEURES
10
108.169
20
71.834
0
VERTEX
8
CONTOURS_MINEURES
10
110.000
20
72.478
0
VERTEX
8
CONTOURS_MINEURES
10
113.713
20
73.715
0
VERTEX
8
CONTOURS_MINEURES
10
114.999
20
74.110
0
VERTEX
8
CONTOURS_MINEURES
10
115.749
20
74.251
0
VERTEX
8
CONTOURS_MINEURES
10
118.213
20
75.000
0
VERTEX
8
CONTOURS_MINEURES
10
119.998
20
75.819
0
VERTEX
8
CONTOURS_MINEURES
10
121.218
20
76.219
0
VERTEX
8
CONTOURS_MINEURES
10
124.998
20
77.018
0
VERTEX
8
CONTOURS_MINEURES
10
127.717
20
77.279
0
VERTEX
8
CONTOURS_MINEURES
10
129.997
20
77.887
0
VERTEX
8
CONTOURS_MINEURES
10
133.711
20
78.712
0
VERTEX
8
CONTOURS_MINEURES
10
134.997
20
78.872
0
VERTEX
8
CONTOURS_MINEURES
10
135.954
20
79.040
0
VERTEX
8
CONTOURS_MINEURES
10
138.458
20
79.997
0
VERTEX
8
CONTOURS_MINEURES
10
139.996
20
80.623
0
VERTEX
8
CONTOURS_MINEURES
10
142.853
20
82.143
0
VERTEX
8
CONTOURS_MINEURES
10
144.512
20
85.004
0
VERTEX
8
CONTOURS_MINEURES
10
144.768
20
85.231
0
VERTEX
8
CONTOURS_MINEURES
10
144.996
20
85.581
0
VERTEX
8
CONTOURS_MINEURES
10
145.596
20
85.604
0
VERTEX
8
CONTOURS_MINEURES
10
149.995
20
85.773
0
VERTEX
8
CONTOURS_MINEURES
10
153.237
20
86.768
0
VERTEX
8
CONTOURS_MINEURES
10
155.005
20
87.225
0
VERTEX
8
CONTOURS_MINEURES
10
157.349
20
87.658
0
VERTEX
8
CONTOURS_MINEURES
10
160.005
20
88.865
0
VERTEX
8
CONTOURS_MINEURES
10
164.052
20
89.049
0
VERTEX
8
CONTOURS_MINEURES
10
165.004
20
88.825
0
VERTEX
8
CONTOURS_MINEURES
10
165.718
20
90.001
0
VERTEX
8
CONTOURS_MINEURES
10
167.213
20
92.789
0
VERTEX
8
CONTOURS_MINEURES
10
167.643
20
94.997
0
VERTEX
8
CONTOURS_MINEURES
10
170.004
20
96.545
0
VERTEX
8
CONTOURS_MINEURES
10
173.170
20
96.833
0
VERTEX
8
CONTOURS_MINEURES
10
175.003
20
97.684
0
VERTEX
8
CONTOURS_MINEURES
10
177.343
20
97.341
0
VERTEX
8
CONTOURS_MINEURES
10
180.003
20
96.092
0
VERTEX
8
CONTOURS_MINEURES
10
181.299
20
94.997
0
VERTEX
8
CONTOURS_MINEURES
10
181.156
20
91.154
0
VERTEX
8
CONTOURS_MINEURES
10
182.002
20
90.001
0
VERTEX
8
CONTOURS_MINEURES
10
184.288
20
85.718
0
VERTEX
8
CONTOURS_MINEURES
10
183.335
20
85.004
0
VERTEX
8
CONTOURS_MINEURES
10
185.002
20
84.448
0
VERTEX
8
CONTOURS_MINEURES
10
186.335
20
81.332
0
VERTEX
8
CONTOURS_MINEURES
10
186.113
20
79.997
0
VERTEX
8
CONTOURS_MINEURES
10
185.771
20
79.228
0
VERTEX
8
CONTOURS_MINEURES
10
185.512
20
75.000
0
VERTEX
8
CONTOURS_MINEURES
10
188.072
20
73.072
0
VERTEX
8
CONTOURS_MINEURES
10
189.668
20
70.004
0
VERTEX
8
CONTOURS_MINEURES
10
190.001
20
69.422
0
VERTEX
8
CONTOURS_MINEURES
10
192.044
20
67.042
0
VERTEX
8
CONTOURS_MINEURES
10
195.001
20
64.996
0
VERTEX
8
CONTOURS_MINEURES
10
197.609
20
62.607
0
VERTEX
8
CONTOURS_MINEURES
10
198.637
20
60.000
0
VERTEX
8
CONTOURS_MINEURES
10
199.706
20
55.298
0
VERTEX
8
CONTOURS_MINEURES
10
199.789
20
55.004
0
VERTEX
8
CONTOURS_MINEURES
10
199.783
20
54.786
0
VERTEX
8
CONTOURS_MINEURES
10
200.000
20
54.288
0
VERTEX
8
CONTOURS_MINEURES
10
200.834
20
54.169
0
VERTEX
8
CONTOURS_MINEURES
10
205.000
20
51.874
0
VERTEX
8
CONTOURS_MINEURES
10
209.464
20
50.533
0
VERTEX
8
CONTOURS_MINEURES
10
209.999
20
50.425
0
VERTEX
8
CONTOURS_MINEURES
10
211.499
20
49.996
0
VERTEX
8
CONTOURS_MINEURES
10
214.124
20
49.122
0
VERTEX
8
CONTOURS_MINEURES
10
214.999
20
48.701
0
VERTEX
8
CONTOURS_MINEURES
10
217.855
20
47.855
0
VERTEX
8
CONTOURS_MINEURES
10
219.998
20
46.873
0
SEQEND
0
POLYLINE
8
CONTOURS_MINEURES
66
1
70
0
0
VERTEX
8
CONTOURS_MINEURES
10
0.001
20
74.488
0
VERTEX
8
CONTOURS_MINEURES
10
3.303
20
73.303
0
VERTEX
8
CONTOURS_MINEURES
10
5.001
20
72.752
0
VERTEX
8
CONTOURS_MINEURES
10
8.462
20
71.541
0
VERTEX
8
CONTOURS_MINEURES
10
10.000
20
71.179
0
VERTEX
8
CONTOURS_MINEURES
10
11.081
20
71.084
0
VERTEX
8
CONTOURS_MINEURES
10
12.666
20
70.004
0
VERTEX
8
CONTOURS_MINEURES
10
14.999
20
68.335
0
VERTEX
8
CONTOURS_MINEURES
10
16.749
20
66.749
0
VERTEX
8
CONTOURS_MINEURES
10
17.799
20
64.996
0
VERTEX
8
CONTOURS_MINEURES
10
18.777
20
63.775
0
VERTEX
8
CONTOURS_MINEURES
10
19.999
20
61.763
0
VERTEX
8
CONTOURS_MINEURES
10
21.999
20
60.000
0
VERTEX
8
CONTOURS_MINEURES
10
23.447
20
58.449
0
VERTEX
8
CONTOURS_MINEURES
10
24.998
20
56.253
0
VERTEX
8
CONTOURS_MINEURES
10
25.439
20
55.004
0
VERTEX
8
CONTOURS_MINEURES
10
27.230
20
52.232
0
VERTEX
8
CONTOURS_MINEURES
10
29.308
20
49.996
0
VERTEX
8
CONTOURS_MINEURES
10
29.634
20
49.633
0
VERTEX
8
CONTOURS_MINEURES
10
29.998
20
49.227
0
VERTEX
8
CONTOURS_MINEURES
10
31.050
20
48.944
0
VERTEX
8
CONTOURS_MINEURES
10
34.997
20
47.776
0
VERTEX
8
CONTOURS_MINEURES
10
38.944
20
48.944
0
VERTEX
8
CONTOURS_MINEURES
10
39.997
20
48.997
0
VERTEX
8
CONTOURS_MINEURES
10
41.049
20
49.996
0
VERTEX
8
CONTOURS_MINEURES
10
43.434
20
51.561
0
VERTEX
8
CONTOURS_MINEURES
10
44.996
20
52.083
0
VERTEX
8
CONTOURS_MINEURES
10
47.996
20
53.001
0
VERTEX
8
CONTOURS_MINEURES
10
49.996
20
53.839
0
VERTEX
8
CONTOURS_MINEURES
10
50.995
20
54.002
0
VERTEX
8
CONTOURS_MINEURES
10
54.995
20
54.881
0
VERTEX
8
CONTOURS_MINEURES
10
55.123
20
54.875
0
VERTEX
8
CONTOURS_MINEURES
10
56.248
20
55.004
0
VERTEX
8
CONTOURS_MINEURES
10
59.710
20
55.298
0
VERTEX
8
CONTOURS_MINEURES
10
60.005
20
55.329
0
VERTEX
8
CONTOURS_MINEURES
10
60.561
20
55.559
0
VERTEX
8
CONTOURS_MINEURES
10
65.005
20
56.669
0
VERTEX
8
CONTOURS_MINEURES
10
67.732
20
57.729
0
VERTEX
8
CONTOURS_MINEURES
10
70.004
20
58.685
0
VERTEX
8
CONTOURS_MINEURES
10
70.881
20
59.123
0
VERTEX
8
CONTOURS_MINEURES
10
74.170
20
60.000
0
VERTEX
8
CONTOURS_MINEURES
10
75.004
20
60.244
0
VERTEX
8
CONTOURS_MINEURES
10
75.374
20
60.370
0
VERTEX
8
CONTOURS_MINEURES
10
80.003
20
62.092
0
VERTEX
8
CONTOURS_MINEURES
10
81.626
20
64.996
0
VERTEX
8
CONTOURS_MINEURES
10
82.799
20
67.203
0
VERTEX
8
CONTOURS_MINEURES
10
85.002
20
69.646
0
VERTEX
8
CONTOURS_MINEURES
10
85.955
20
70.004
0
VERTEX
8
CONTOURS_MINEURES
10
89.316
20
70.689
0
VERTEX
8
CONTOURS_MINEURES
10
90.002
20
70.937
0
VERTEX
8
CONTOURS_MINEURES
10
91.270
20
71.272
0
VERTEX
8
CONTOURS_MINEURES
10
95.001
20
72.161
0
VERTEX
8
CONTOURS_MINEURES
10
97.034
20
72.969
0
VERTEX
8
CONTOURS_MINEURES
10
100.001
20
73.884
0
VERTEX
8
CONTOURS_MINEURES
10
103.387
20
75.000
0
VERTEX
8
CONTOURS_MINEURES
10
104.334
20
75.666
0
VERTEX
8
CONTOURS_MINEURES
10
105.000
20
76.041
0
VERTEX
8
CONTOURS_MINEURES
10
108.333
20
78.331
0
VERTEX
8
CONTOURS_MINEURES
10
110.000
20
79.516
0
VERTEX
8
CONTOURS_MINEURES
10
110.287
20
79.710
0
VERTEX
8
CONTOURS_MINEURES
10
110.925
20
79.997
0
VERTEX
8
CONTOURS_MINEURES
10
114.999
20
82.115
0
VERTEX
8
CONTOURS_MINEURES
10
119.229
20
84.234
0
VERTEX
8
CONTOURS_MINEURES
10
119.998
20
84.626
0
VERTEX
8
CONTOURS_MINEURES
10
120.272
20
84.730
0
VERTEX
8
CONTOURS_MINEURES
10
120.998
20
85.004
0
VERTEX
8
CONTOURS_MINEURES
10
124.998
20
86.908
0
VERTEX
8
CONTOURS_MINEURES
10
127.094
20
87.905
0
VERTEX
8
CONTOURS_MINEURES
10
129.997
20
89.287
0
VERTEX
8
CONTOURS_MINEURES
10
131.497
20
90.001
0
VERTEX
8
CONTOURS_MINEURES
10
133.811
20
91.186
0
VERTEX
8
CONTOURS_MINEURES
10
134.997
20
91.841
0
VERTEX
8
CONTOURS_MINEURES
10
136.964
20
93.031
0
VERTEX
8
CONTOURS_MINEURES
10
139.996
20
94.202
0
VERTEX
8
CONTOURS_MINEURES
10
140.996
20
94.997
0
VERTEX
8
CONTOURS_MINEURES
10
143.178
20
96.818
0
VERTEX
8
CONTOURS_MINEURES
10
144.996
20
97.546
0
VERTEX
8
CONTOURS_MINEURES
10
149.823
20
99.832
0
VERTEX
8
CONTOURS_MINEURES
10
149.995
20
99.893
0
VERTEX
8
CONTOURS_MINEURES
10
150.100
20
99.900
0
VERTEX
8
CONTOURS_MINEURES
10
151.665
20
100.004
0
VERTEX
8
CONTOURS_MINEURES
10
155.005
20
100.232
0
VERTEX
8
CONTOURS_MINEURES
10
158.448
20
101.561
0
VERTEX
8
CONTOURS_MINEURES
10
160.005
20
101.866
0
VERTEX
8
CONTOURS_MINEURES
10
163.397
20
103.395
0
VERTEX
8
CONTOURS_MINEURES
10
165.004
20
104.002
0
VERTEX
8
CONTOURS_MINEURES
10
165.638
20
104.367
0
VERTEX
8
CONTOURS_MINEURES
10
168.218
20
105.001
0
VERTEX
8
CONTOURS_MINEURES
10
170.004
20
105.500
0
VERTEX
8
CONTOURS_MINEURES
10
173.692
20
106.311
0
VERTEX
8
CONTOURS_MINEURES
10
175.003
20
106.818
0
VERTEX
8
CONTOURS_MINEURES
10
177.644
20
107.358
0
VERTEX
8
CONTOURS_MINEURES
10
180.003
20
108.786
0
VERTEX
8
CONTOURS_MINEURES
10
184.034
20
109.030
0
VERTEX
8
CONTOURS_MINEURES
10
185.002
20
108.798
0
VERTEX
8
CONTOURS_MINEURES
10
187.145
20
107.856
0
VERTEX
8
CONTOURS_MINEURES
10
190.001
20
106.666
0
VERTEX
8
CONTOURS_MINEURES
10
190.977
20
105.976
0
VERTEX
8
CONTOURS_MINEURES
10
191.335
20
105.001
0
VERTEX
8
CONTOURS_MINEURES
10
192.106
20
102.897
0
VERTEX
8
CONTOURS_MINEURES
10
193.473
20
100.004
0
VERTEX
8
CONTOURS_MINEURES
10
195.001
20
96.332
0
VERTEX
8
CONTOURS_MINEURES
10
195.132
20
95.129
0
VERTEX
8
CONTOURS_MINEURES
10
195.133
20
94.997
0
VERTEX
8
CONTOURS_MINEURES
10
195.136
20
94.862
0
VERTEX
8
CONTOURS_MINEURES
10
195.501
20
90.001
0
VERTEX
8
CONTOURS_MINEURES
10
195.517
20
89.485
0
VERTEX
8
CONTOURS_MINEURES
10
195.428
20
85.004
0
VERTEX
8
CONTOURS_MINEURES
10
195.001
20
80.354
0
VERTEX
8
CONTOURS_MINEURES
10
194.938
20
80.060
0
VERTEX
8
CONTOURS_MINEURES
10
194.932
20
79.997
0
VERTEX
8
CONTOURS_MINEURES
10
194.913
20
79.909
0
VERTEX
8
CONTOURS_MINEURES
10
194.376
20
75.000
0
VERTEX
8
CONTOURS_MINEURES
10
195.001
20
74.246
0
VERTEX
8
CONTOURS_MINEURES
10
196.845
20
71.847
0
VERTEX
8
CONTOURS_MINEURES
10
200.000
20
70.951
0
VERTEX
8
CONTOURS_MINEURES
10
200.841
20
70.844
0
VERTEX
8
CONTOURS_MINEURES
10
203.333
20
70.004
0
VERTEX
8
CONTOURS_MINEURES
10
204.307
20
69.311
0
VERTEX
8
CONTOURS_MINEURES
10
205.000
20
68.596
0
VERTEX
8
CONTOURS_MINEURES
10
206.949
20
66.948
0
VERTEX
8
CONTOURS_MINEURES
10
209.999
20
65.382
0
VERTEX
8
CONTOURS_MINEURES
10
210.305
20
65.303
0
VERTEX
8
CONTOURS_MINEURES
10
211.249
20
64.996
0
VERTEX
8
CONTOURS_MINEURES
10
213.845
20
63.843
0
VERTEX
8
CONTOURS_MINEURES
10
214.999
20
62.855
0
VERTEX
8
CONTOURS_MINEURES
10
216.998
20
61.999
0
VERTEX
8
CONTOURS_MINEURES
10
219.998
20
61.895
0
SEQEND
0
POLYLINE
8
CONTOURS_MINEURES
66
1
70
0
0
VERTEX
8
CONTOURS_MINEURES
10
0.001
20
88.127
0
VERTEX
8
CONTOURS_MINEURES
10
1.563
20
88.439
0
VERTEX
8
CONTOURS_MINEURES
10
4.412
20
90.001
0
VERTEX
8
CONTOURS_MINEURES
10
5.001
20
90.323
0
VERTEX
8
CONTOURS_MINEURES
10
9.394
20
90.606
0
VERTEX
8
CONTOURS_MINEURES
10
10.000
20
90.741
0
VERTEX
8
CONTOURS_MINEURES
10
10.606
20
90.606
0
VERTEX
8
CONTOURS_MINEURES
10
14.000
20
90.001
0
VERTEX
8
CONTOURS_MINEURES
10
14.999
20
89.828
0
VERTEX
8
CONTOURS_MINEURES
10
18.783
20
88.785
0
VERTEX
8
CONTOURS_MINEURES
10
19.999
20
88.127
0
VERTEX
8
CONTOURS_MINEURES
10
21.561
20
86.566
0
VERTEX
8
CONTOURS_MINEURES
10
22.499
20
85.004
0
VERTEX
8
CONTOURS_MINEURES
10
23.499
20
83.502
0
VERTEX
8
CONTOURS_MINEURES
10
24.267
20
79.997
0
VERTEX
8
CONTOURS_MINEURES
10
24.998
20
77.998
0
VERTEX
8
CONTOURS_MINEURES
10
26.021
20
76.022
0
VERTEX
8
CONTOURS_MINEURES
10
28.460
20
75.000
0
VERTEX
8
CONTOURS_MINEURES
10
29.998
20
74.334
0
VERTEX
8
CONTOURS_MINEURES
10
32.498
20
72.502
0
VERTEX
8
CONTOURS_MINEURES
10
34.997
20
70.189
0
VERTEX
8
CONTOURS_MINEURES
10
35.122
20
70.129
0
VERTEX
8
CONTOURS_MINEURES
10
35.310
20
70.004
0
VERTEX
8
CONTOURS_MINEURES
10
38.122
20
68.126
0
VERTEX
8
CONTOURS_MINEURES
10
39.997
20
66.874
0
VERTEX
8
CONTOURS_MINEURES
10
42.643
20
67.647
0
VERTEX
8
CONTOURS_MINEURES
10
44.996
20
68.262
0
VERTEX
8
CONTOURS_MINEURES
10
46.534
20
68.463
0
VERTEX
8
CONTOURS_MINEURES
10
49.996
20
70.004
0
VERTEX
8
CONTOURS_MINEURES
10
53.745
20
68.752
0
VERTEX
8
CONTOURS_MINEURES
10
54.995
20
68.891
0
VERTEX
8
CONTOURS_MINEURES
10
59.204
20
69.203
0
VERTEX
8
CONTOURS_MINEURES
10
60.005
20
69.432
0
VERTEX
8
CONTOURS_MINEURES
10
60.440
20
69.568
0
VERTEX
8
CONTOURS_MINEURES
10
62.227
20
70.004
0
VERTEX
8
CONTOURS_MINEURES
10
65.005
20
70.407
0
VERTEX
8
CONTOURS_MINEURES
10
69.195
20
70.812
0
VERTEX
8
CONTOURS_MINEURES
10
70.004
20
70.812
0
VERTEX
8
CONTOURS_MINEURES
10
70.813
20
70.812
0
VERTEX
8
CONTOURS_MINEURES
10
75.004
20
71.440
0
VERTEX
8
CONTOURS_MINEURES
10
76.497
20
71.496
0
VERTEX
8
CONTOURS_MINEURES
10
80.003
20
71.934
0
VERTEX
8
CONTOURS_MINEURES
10
84.149
20
74.147
0
VERTEX
8
CONTOURS_MINEURES
10
85.002
20
74.661
0
VERTEX
8
CONTOURS_MINEURES
10
85.285
20
74.718
0
VERTEX
8
CONTOURS_MINEURES
10
86.063
20
75.000
0
VERTEX
8
CONTOURS_MINEURES
10
88.291
20
76.710
0
VERTEX
8
CONTOURS_MINEURES
10
90.002
20
77.953
0
VERTEX
8
CONTOURS_MINEURES
10
91.325
20
78.674
0
VERTEX
8
CONTOURS_MINEURES
10
92.905
20
79.997
0
VERTEX
8
CONTOURS_MINEURES
10
94.046
20
80.954
0
VERTEX
8
CONTOURS_MINEURES
10
95.001
20
81.805
0
VERTEX
8
CONTOURS_MINEURES
10
96.984
20
83.018
0
VERTEX
8
CONTOURS_MINEURES
10
100.001
20
84.491
0
VERTEX
8
CONTOURS_MINEURES
10
100.910
20
85.004
0
VERTEX
8
CONTOURS_MINEURES
10
105.000
20
87.096
0
VERTEX
8
CONTOURS_MINEURES
10
106.812
20
88.190
0
VERTEX
8
CONTOURS_MINEURES
10
109.629
20
90.001
0
VERTEX
8
CONTOURS_MINEURES
10
109.846
20
90.154
0
VERTEX
8
CONTOURS_MINEURES
10
110.000
20
90.264
0
VERTEX
8
CONTOURS_MINEURES
10
110.769
20
90.769
0
VERTEX
8
CONTOURS_MINEURES
10
114.999
20
93.551
0
VERTEX
8
CONTOURS_MINEURES
10
117.618
20
94.997
0
VERTEX
8
CONTOURS_MINEURES
10
119.998
20
96.350
0
VERTEX
8
CONTOURS_MINEURES
10
122.211
20
97.788
0
VERTEX
8
CONTOURS_MINEURES
10
124.998
20
99.598
0
VERTEX
8
CONTOURS_MINEURES
10
125.680
20
100.004
0
VERTEX
8
CONTOURS_MINEURES
10
128.387
20
101.613
0
VERTEX
8
CONTOURS_MINEURES
10
129.997
20
102.378
0
VERTEX
8
CONTOURS_MINEURES
10
131.777
20
103.222
0
VERTEX
8
CONTOURS_MINEURES
10
134.997
20
104.751
0
VERTEX
8
CONTOURS_MINEURES
10
136.108
20
105.001
0
VERTEX
8
CONTOURS_MINEURES
10
139.996
20
105.898
0
VERTEX
8
CONTOURS_MINEURES
10
142.536
20
107.459
0
VERTEX
8
CONTOURS_MINEURES
10
144.996
20
107.817
0
VERTEX
8
CONTOURS_MINEURES
10
148.686
20
108.689
0
VERTEX
8
CONTOURS_MINEURES
10
149.995
20
109.050
0
VERTEX
8
CONTOURS_MINEURES
10
150.794
20
109.201
0
VERTEX
8
CONTOURS_MINEURES
10
152.620
20
109.997
0
VERTEX
8
CONTOURS_MINEURES
10
155.005
20
110.960
0
VERTEX
8
CONTOURS_MINEURES
10
158.187
20
111.818
0
VERTEX
8
CONTOURS_MINEURES
10
160.005
20
112.729
0
VERTEX
8
CONTOURS_MINEURES
10
164.766
20
115.005
0
VERTEX
8
CONTOURS_MINEURES
10
164.921
20
115.088
0
VERTEX
8
CONTOURS_MINEURES
10
165.004
20
115.133
0
VERTEX
8
CONTOURS_MINEURES
10
168.522
20
116.485
0
VERTEX
8
CONTOURS_MINEURES
10
170.004
20
117.669
0
VERTEX
8
CONTOURS_MINEURES
10
173.503
20
120.001
0
VERTEX
8
CONTOURS_MINEURES
10
174.403
20
120.601
0
VERTEX
8
CONTOURS_MINEURES
10
175.003
20
120.910
0
VERTEX
8
CONTOURS_MINEURES
10
176.307
20
121.305
0
VERTEX
8
CONTOURS_MINEURES
10
180.003
20
122.069
0
VERTEX
8
CONTOURS_MINEURES
10
182.578
20
122.424
0
VERTEX
8
CONTOURS_MINEURES
10
185.002
20
122.758
0
VERTEX
8
CONTOURS_MINEURES
10
188.097
20
121.905
0
VERTEX
8
CONTOURS_MINEURES
10
190.001
20
121.429
0
VERTEX
8
CONTOURS_MINEURES
10
195.001
20
120.001
0
VERTEX
8
CONTOURS_MINEURES
10
197.257
20
115.005
0
VERTEX
8
CONTOURS_MINEURES
10
197.992
20
112.993
0
VERTEX
8
CONTOURS_MINEURES
10
198.191
20
109.997
0
VERTEX
8
CONTOURS_MINEURES
10
198.131
20
106.869
0
VERTEX
8
CONTOURS_MINEURES
10
198.306
20
105.001
0
VERTEX
8
CONTOURS_MINEURES
10
198.450
20
103.452
0
VERTEX
8
CONTOURS_MINEURES
10
198.249
20
100.004
0
VERTEX
8
CONTOURS_MINEURES
10
198.422
20
98.423
0
VERTEX
8
CONTOURS_MINEURES
10
198.444
20
94.997
0
VERTEX
8
CONTOURS_MINEURES
10
198.514
20
91.486
0
VERTEX
8
CONTOURS_MINEURES
10
198.625
20
90.001
0
VERTEX
8
CONTOURS_MINEURES
10
198.742
20
86.261
0
VERTEX
8
CONTOURS_MINEURES
10
198.718
20
85.004
0
VERTEX
8
CONTOURS_MINEURES
10
198.587
20
83.589
0
VERTEX
8
CONTOURS_MINEURES
10
199.231
20
79.997
0
VERTEX
8
CONTOURS_MINEURES
10
200.000
20
77.803
0
VERTEX
8
CONTOURS_MINEURES
10
203.103
20
76.895
0
VERTEX
8
CONTOURS_MINEURES
10
205.000
20
76.341
0
VERTEX
8
CONTOURS_MINEURES
10
207.115
20
75.000
0
VERTEX
8
CONTOURS_MINEURES
10
209.292
20
74.293
0
VERTEX
8
CONTOURS_MINEURES
10
209.999
20
74.052
0
VERTEX
8
CONTOURS_MINEURES
10
211.086
20
73.914
0
VERTEX
8
CONTOURS_MINEURES
10
214.999
20
73.700
0
VERTEX
8
CONTOURS_MINEURES
10
216.460
20
73.540
0
VERTEX
8
CONTOURS_MINEURES
10
219.998
20
73.711
0
SEQEND
0
POLYLINE
8
CONTOURS_MINEURES
66
1
70
0
0
VERTEX
8
CONTOURS_MINEURES
10
0.001
20
100.815
0
VERTEX
8
CONTOURS_MINEURES
10
2.154
20
102.850
0
VERTEX
8
CONTOURS_MINEURES
10
4.080
20
105.001
0
VERTEX
8
CONTOURS_MINEURES
10
5.001
20
106.207
0
VERTEX
8
CONTOURS_MINEURES
10
7.245
20
107.754
0
VERTEX
8
CONTOURS_MINEURES
10
9.583
20
109.997
0
VERTEX
8
CONTOURS_MINEURES
10
10.000
20
110.331
0
VERTEX
8
CONTOURS_MINEURES
10
10.455
20
110.452
0
VERTEX
8
CONTOURS_MINEURES
10
14.999
20
110.650
0
VERTEX
8
CONTOURS_MINEURES
10
18.749
20
109.997
0
VERTEX
8
CONTOURS_MINEURES
10
19.999
20
109.734
0
VERTEX
8
CONTOURS_MINEURES
10
22.367
20
107.368
0
VERTEX
8
CONTOURS_MINEURES
10
24.998
20
105.239
0
VERTEX
8
CONTOURS_MINEURES
10
25.083
20
105.001
0
VERTEX
8
CONTOURS_MINEURES
10
25.109
20
104.890
0
VERTEX
8
CONTOURS_MINEURES
10
27.103
20
100.004
0
VERTEX
8
CONTOURS_MINEURES
10
27.658
20
97.661
0
VERTEX
8
CONTOURS_MINEURES
10
28.729
20
94.997
0
VERTEX
8
CONTOURS_MINEURES
10
28.986
20
93.986
0
VERTEX
8
CONTOURS_MINEURES
10
29.998
20
92.166
0
VERTEX
8
CONTOURS_MINEURES
10
33.146
20
91.851
0
VERTEX
8
CONTOURS_MINEURES
10
34.997
20
91.666
0
VERTEX
8
CONTOURS_MINEURES
10
39.542
20
90.455
0
VERTEX
8
CONTOURS_MINEURES
10
39.997
20
90.357
0
VERTEX
8
CONTOURS_MINEURES
10
40.247
20
90.250
0
VERTEX
8
CONTOURS_MINEURES
10
40.663
20
90.001
0
VERTEX
8
CONTOURS_MINEURES
10
43.240
20
88.245
0
VERTEX
8
CONTOURS_MINEURES
10
44.996
20
86.582
0
VERTEX
8
CONTOURS_MINEURES
10
46.067
20
86.075
0
VERTEX
8
CONTOURS_MINEURES
10
47.723
20
85.004
0
VERTEX
8
CONTOURS_MINEURES
10
49.996
20
83.866
0
VERTEX
8
CONTOURS_MINEURES
10
51.558
20
83.439
0
VERTEX
8
CONTOURS_MINEURES
10
54.995
20
82.292
0
VERTEX
8
CONTOURS_MINEURES
10
57.199
20
82.200
0
VERTEX
8
CONTOURS_MINEURES
10
60.005
20
82.500
0
VERTEX
8
CONTOURS_MINEURES
10
62.597
20
82.408
0
VERTEX
8
CONTOURS_MINEURES
10
65.005
20
82.408
0
VERTEX
8
CONTOURS_MINEURES
10
68.425
20
83.423
0
VERTEX
8
CONTOURS_MINEURES
10
70.004
20
83.502
0
VERTEX
8
CONTOURS_MINEURES
10
73.337
20
85.004
0
VERTEX
8
CONTOURS_MINEURES
10
74.486
20
85.521
0
VERTEX
8
CONTOURS_MINEURES
10
75.004
20
85.837
0
VERTEX
8
CONTOURS_MINEURES
10
76.253
20
86.253
0
VERTEX
8
CONTOURS_MINEURES
10
80.003
20
87.752
0
VERTEX
8
CONTOURS_MINEURES
10
83.931
20
88.930
0
VERTEX
8
CONTOURS_MINEURES
10
85.002
20
89.319
0
VERTEX
8
CONTOURS_MINEURES
10
85.315
20
89.688
0
VERTEX
8
CONTOURS_MINEURES
10
85.885
20
90.001
0
VERTEX
8
CONTOURS_MINEURES
10
90.002
20
91.841
0
VERTEX
8
CONTOURS_MINEURES
10
95.001
20
94.997
0
VERTEX
8
CONTOURS_MINEURES
10
98.711
20
96.289
0
VERTEX
8
CONTOURS_MINEURES
10
100.001
20
96.905
0
VERTEX
8
CONTOURS_MINEURES
10
102.064
20
97.938
0
VERTEX
8
CONTOURS_MINEURES
10
105.000
20
99.306
0
VERTEX
8
CONTOURS_MINEURES
10
106.035
20
100.004
0
VERTEX
8
CONTOURS_MINEURES
10
108.380
20
101.623
0
VERTEX
8
CONTOURS_MINEURES
10
110.000
20
102.558
0
VERTEX
8
CONTOURS_MINEURES
10
114.230
20
105.001
0
VERTEX
8
CONTOURS_MINEURES
10
114.701
20
105.299
0
VERTEX
8
CONTOURS_MINEURES
10
114.999
20
105.477
0
VERTEX
8
CONTOURS_MINEURES
10
117.793
20
107.205
0
VERTEX
8
CONTOURS_MINEURES
10
119.998
20
108.570
0
VERTEX
8
CONTOURS_MINEURES
10
122.067
20
109.997
0
VERTEX
8
CONTOURS_MINEURES
10
123.710
20
111.287
0
VERTEX
8
CONTOURS_MINEURES
10
124.998
20
111.977
0
VERTEX
8
CONTOURS_MINEURES
10
129.247
20
114.254
0
VERTEX
8
CONTOURS_MINEURES
10
129.997
20
114.655
0
VERTEX
8
CONTOURS_MINEURES
10
130.247
20
114.754
0
VERTEX
8
CONTOURS_MINEURES
10
130.880
20
115.005
0
VERTEX
8
CONTOURS_MINEURES
10
134.997
20
116.631
0
VERTEX
8
CONTOURS_MINEURES
10
137.682
20
117.318
0
VERTEX
8
CONTOURS_MINEURES
10
139.996
20
118.208
0
VERTEX
8
CONTOURS_MINEURES
10
143.496
20
120.001
0
VERTEX
8
CONTOURS_MINEURES
10
144.512
20
120.485
0
VERTEX
8
CONTOURS_MINEURES
10
144.996
20
121.000
0
VERTEX
8
CONTOURS_MINEURES
10
146.424
20
121.429
0
VERTEX
8
CONTOURS_MINEURES
10
149.995
20
122.115
0
VERTEX
8
CONTOURS_MINEURES
10
152.142
20
122.856
0
VERTEX
8
CONTOURS_MINEURES
10
155.005
20
124.165
0
VERTEX
8
CONTOURS_MINEURES
10
155.450
20
124.553
0
VERTEX
8
CONTOURS_MINEURES
10
156.005
20
124.998
0
VERTEX
8
CONTOURS_MINEURES
10
157.148
20
127.859
0
VERTEX
8
CONTOURS_MINEURES
10
160.005
20
130.005
0
VERTEX
8
CONTOURS_MINEURES
10
162.732
20
132.276
0
VERTEX
8
CONTOURS_MINEURES
10
165.004
20
134.169
0
VERTEX
8
CONTOURS_MINEURES
10
165.517
20
134.489
0
VERTEX
8
CONTOURS_MINEURES
10
166.181
20
135.001
0
VERTEX
8
CONTOURS_MINEURES
10
170.004
20
136.857
0
VERTEX
8
CONTOURS_MINEURES
10
172.248
20
137.755
0
VERTEX
8
CONTOURS_MINEURES
10
174.786
20
139.998
0
VERTEX
8
CONTOURS_MINEURES
10
175.003
20
140.096
0
VERTEX
8
CONTOURS_MINEURES
10
175.155
20
140.150
0
VERTEX
8
CONTOURS_MINEURES
10
180.003
20
141.097
0
VERTEX
8
CONTOURS_MINEURES
10
181.669
20
141.667
0
VERTEX
8
CONTOURS_MINEURES
10
185.002
20
142.189
0
VERTEX
8
CONTOURS_MINEURES
10
187.729
20
142.274
0
VERTEX
8
CONTOURS_MINEURES
10
190.001
20
142.144
0
VERTEX
8
CONTOURS_MINEURES
10
193.847
20
141.153
0
VERTEX
8
CONTOURS_MINEURES
10
195.001
20
141.071
0
VERTEX
8
CONTOURS_MINEURES
10
195.601
20
140.599
0
VERTEX
8
CONTOURS_MINEURES
10
196.112
20
139.998
0
VERTEX
8
CONTOURS_MINEURES
10
197.942
20
137.940
0
VERTEX
8
CONTOURS_MINEURES
10
199.688
20
135.001
0
VERTEX
8
CONTOURS_MINEURES
10
200.000
20
134.446
0
VERTEX
8
CONTOURS_MINEURES
10
202.424
20
130.005
0
VERTEX
8
CONTOURS_MINEURES
10
202.976
20
127.978
0
VERTEX
8
CONTOURS_MINEURES
10
204.166
20
124.998
0
VERTEX
8
CONTOURS_MINEURES
10
205.000
20
121.875
0
VERTEX
8
CONTOURS_MINEURES
10
205.349
20
120.001
0
VERTEX
8
CONTOURS_MINEURES
10
205.555
20
115.560
0
VERTEX
8
CONTOURS_MINEURES
10
205.543
20
115.005
0
VERTEX
8
CONTOURS_MINEURES
10
205.521
20
114.483
0
VERTEX
8
CONTOURS_MINEURES
10
205.222
20
109.997
0
VERTEX
8
CONTOURS_MINEURES
10
205.222
20
105.223
0
VERTEX
8
CONTOURS_MINEURES
10
205.208
20
105.001
0
VERTEX
8
CONTOURS_MINEURES
10
205.244
20
104.757
0
VERTEX
8
CONTOURS_MINEURES
10
205.125
20
100.004
0
VERTEX
8
CONTOURS_MINEURES
10
205.192
20
99.812
0
VERTEX
8
CONTOURS_MINEURES
10
205.000
20
94.997
0
VERTEX
8
CONTOURS_MINEURES
10
208.181
20
90.001
0
VERTEX
8
CONTOURS_MINEURES
10
209.069
20
89.071
0
VERTEX
8
CONTOURS_MINEURES
10
209.999
20
88.668
0
VERTEX
8
CONTOURS_MINEURES
10
211.142
20
88.859
0
VERTEX
8
CONTOURS_MINEURES
10
214.999
20
88.650
0
VERTEX
8
CONTOURS_MINEURES
10
217.498
20
90.001
0
VERTEX
8
CONTOURS_MINEURES
10
219.998
20
91.388
0
SEQEND
0
POLYLINE
8
CONTOURS_MINEURES
66
1
70
0
0
VERTEX
8
CONTOURS_MINEURES
10
163.113
20
195.003
0
VERTEX
8
CONTOURS_MINEURES
10
160.005
20
193.357
0
VERTEX
8
CONTOURS_MINEURES
10
157.030
20
192.974
0
VERTEX
8
CONTOURS_MINEURES
10
155.005
20
192.611
0
VERTEX
8
CONTOURS_MINEURES
10
153.074
20
193.072
0
VERTEX
8
CONTOURS_MINEURES
10
149.995
20
193.446
0
VERTEX
8
CONTOURS_MINEURES
10
147.978
20
195.003
0
SEQEND
0
POLYLINE
8
CONTOURS_MINEURES
66
1
70
0
0
VERTEX
8
CONTOURS_MINEURES
10
0.001
20
117.261
0
VERTEX
8
CONTOURS_MINEURES
10
4.048
20
120.001
0
VERTEX
8
CONTOURS_MINEURES
10
4.592
20
120.409
0
VERTEX
8
CONTOURS_MINEURES
10
5.001
20
120.589
0
VERTEX
8
CONTOURS_MINEURES
10
9.286
20
124.998
0
VERTEX
8
CONTOURS_MINEURES
10
9.468
20
125.530
0
VERTEX
8
CONTOURS_MINEURES
10
10.000
20
125.656
0
VERTEX
8
CONTOURS_MINEURES
10
11.316
20
126.315
0
VERTEX
8
CONTOURS_MINEURES
10
14.999
20
128.058
0
VERTEX
8
CONTOURS_MINEURES
10
17.187
20
127.814
0
VERTEX
8
CONTOURS_MINEURES
10
19.999
20
128.106
0
VERTEX
8
CONTOURS_MINEURES
10
22.646
20
127.649
0
VERTEX
8
CONTOURS_MINEURES
10
24.998
20
125.788
0
VERTEX
8
CONTOURS_MINEURES
10
25.347
20
124.998
0
VERTEX
8
CONTOURS_MINEURES
10
27.295
20
122.297
0
VERTEX
8
CONTOURS_MINEURES
10
28.540
20
120.001
0
VERTEX
8
CONTOURS_MINEURES
10
29.998
20
116.504
0
VERTEX
8
CONTOURS_MINEURES
10
30.533
20
115.540
0
VERTEX
8
CONTOURS_MINEURES
10
30.935
20
115.005
0
VERTEX
8
CONTOURS_MINEURES
10
32.498
20
112.501
0
VERTEX
8
CONTOURS_MINEURES
10
34.060
20
109.997
0
VERTEX
8
CONTOURS_MINEURES
10
34.372
20
109.373
0
VERTEX
8
CONTOURS_MINEURES
10
34.997
20
107.999
0
VERTEX
8
CONTOURS_MINEURES
10
36.247
20
106.250
0
VERTEX
8
CONTOURS_MINEURES
10
39.997
20
105.179
0
VERTEX
8
CONTOURS_MINEURES
10
43.645
20
106.351
0
VERTEX
8
CONTOURS_MINEURES
10
44.996
20
106.613
0
VERTEX
8
CONTOURS_MINEURES
10
46.347
20
106.351
0
VERTEX
8
CONTOURS_MINEURES
10
49.162
20
105.001
0
VERTEX
8
CONTOURS_MINEURES
10
49.746
20
104.751
0
VERTEX
8
CONTOURS_MINEURES
10
49.996
20
104.631
0
VERTEX
8
CONTOURS_MINEURES
10
53.567
20
103.573
0
VERTEX
8
CONTOURS_MINEURES
10
54.995
20
103.573
0
VERTEX
8
CONTOURS_MINEURES
10
56.469
20
103.531
0
VERTEX
8
CONTOURS_MINEURES
10
60.005
20
103.752
0
VERTEX
8
CONTOURS_MINEURES
10
63.876
20
103.873
0
VERTEX
8
CONTOURS_MINEURES
10
65.005
20
103.795
0
VERTEX
8
CONTOURS_MINEURES
10
66.171
20
103.835
0
VERTEX
8
CONTOURS_MINEURES
10
70.004
20
103.596
0
VERTEX
8
CONTOURS_MINEURES
10
71.290
20
103.716
0
VERTEX
8
CONTOURS_MINEURES
10
75.004
20
103.423
0
VERTEX
8
CONTOURS_MINEURES
10
79.066
20
104.064
0
VERTEX
8
CONTOURS_MINEURES
10
80.003
20
104.232
0
VERTEX
8
CONTOURS_MINEURES
10
80.628
20
104.376
0
VERTEX
8
CONTOURS_MINEURES
10
82.503
20
105.001
0
VERTEX
8
CONTOURS_MINEURES
10
85.002
20
106.428
0
VERTEX
8
CONTOURS_MINEURES
10
88.002
20
105.001
0
VERTEX
8
CONTOURS_MINEURES
10
89.567
20
104.566
0
VERTEX
8
CONTOURS_MINEURES
10
90.002
20
104.525
0
VERTEX
8
CONTOURS_MINEURES
10
90.347
20
104.656
0
VERTEX
8
CONTOURS_MINEURES
10
91.668
20
105.001
0
VERTEX
8
CONTOURS_MINEURES
10
95.001
20
106.904
0
VERTEX
8
CONTOURS_MINEURES
10
96.384
20
108.615
0
VERTEX
8
CONTOURS_MINEURES
10
98.422
20
109.997
0
VERTEX
8
CONTOURS_MINEURES
10
100.001
20
111.153
0
VERTEX
8
CONTOURS_MINEURES
10
102.778
20
112.223
0
VERTEX
8
CONTOURS_MINEURES
10
105.000
20
113.079
0
VERTEX
8
CONTOURS_MINEURES
10
107.778
20
115.005
0
VERTEX
8
CONTOURS_MINEURES
10
110.000
20
116.542
0
VERTEX
8
CONTOURS_MINEURES
10
111.874
20
118.127
0
VERTEX
8
CONTOURS_MINEURES
10
114.736
20
120.001
0
VERTEX
8
CONTOURS_MINEURES
10
114.999
20
120.264
0
VERTEX
8
CONTOURS_MINEURES
10
117.431
20
122.567
0
VERTEX
8
CONTOURS_MINEURES
10
119.998
20
124.129
0
VERTEX
8
CONTOURS_MINEURES
10
121.537
20
124.998
0
VERTEX
8
CONTOURS_MINEURES
10
123.844
20
126.153
0
VERTEX
8
CONTOURS_MINEURES
10
124.998
20
126.552
0
VERTEX
8
CONTOURS_MINEURES
10
127.379
20
127.620
0
VERTEX
8
CONTOURS_MINEURES
10
129.759
20
130.005
0
VERTEX
8
CONTOURS_MINEURES
10
129.831
20
130.172
0
VERTEX
8
CONTOURS_MINEURES
10
129.997
20
130.338
0
VERTEX
8
CONTOURS_MINEURES
10
131.247
20
131.254
0
VERTEX
8
CONTOURS_MINEURES
10
134.997
20
133.931
0
VERTEX
8
CONTOURS_MINEURES
10
135.552
20
134.446
0
VERTEX
8
CONTOURS_MINEURES
10
136.068
20
135.001
0
VERTEX
8
CONTOURS_MINEURES
10
139.996
20
137.500
0
VERTEX
8
CONTOURS_MINEURES
10
141.096
20
138.899
0
VERTEX
8
CONTOURS_MINEURES
10
142.111
20
139.998
0
VERTEX
8
CONTOURS_MINEURES
10
143.525
20
141.471
0
VERTEX
8
CONTOURS_MINEURES
10
144.996
20
143.264
0
VERTEX
8
CONTOURS_MINEURES
10
146.107
20
143.892
0
VERTEX
8
CONTOURS_MINEURES
10
149.995
20
144.833
0
VERTEX
8
CONTOURS_MINEURES
10
150.830
20
145.005
0
VERTEX
8
CONTOURS_MINEURES
10
153.614
20
146.393
0
VERTEX
8
CONTOURS_MINEURES
10
152.500
20
150.002
0
VERTEX
8
CONTOURS_MINEURES
10
151.224
20
151.227
0
VERTEX
8
CONTOURS_MINEURES
10
150.451
20
154.998
0
VERTEX
8
CONTOURS_MINEURES
10
150.484
20
155.486
0
VERTEX
8
CONTOURS_MINEURES
10
151.440
20
159.994
0
VERTEX
8
CONTOURS_MINEURES
10
152.357
20
162.641
0
VERTEX
8
CONTOURS_MINEURES
10
155.005
20
163.937
0
VERTEX
8
CONTOURS_MINEURES
10
155.882
20
164.123
0
VERTEX
8
CONTOURS_MINEURES
10
157.005
20
165.002
0
VERTEX
8
CONTOURS_MINEURES
10
158.261
20
166.745
0
VERTEX
8
CONTOURS_MINEURES
10
160.005
20
168.125
0
VERTEX
8
CONTOURS_MINEURES
10
161.735
20
168.269
0
VERTEX
8
CONTOURS_MINEURES
10
165.004
20
169.998
0
VERTEX
8
CONTOURS_MINEURES
10
166.433
20
173.567
0
VERTEX
8
CONTOURS_MINEURES
10
165.913
20
174.995
0
VERTEX
8
CONTOURS_MINEURES
10
165.718
20
175.710
0
VERTEX
8
CONTOURS_MINEURES
10
165.389
20
180.002
0
VERTEX
8
CONTOURS_MINEURES
10
165.389
20
184.614
0
VERTEX
8
CONTOURS_MINEURES
10
165.560
20
184.999
0
VERTEX
8
CONTOURS_MINEURES
10
165.231
20
185.226
0
VERTEX
8
CONTOURS_MINEURES
10
165.004
20
185.177
0
VERTEX
8
CONTOURS_MINEURES
10
164.912
20
185.091
0
VERTEX
8
CONTOURS_MINEURES
10
160.005
20
185.857
0
VERTEX
8
CONTOURS_MINEURES
10
156.472
20
186.464
0
VERTEX
8
CONTOURS_MINEURES
10
155.005
20
186.262
0
VERTEX
8
CONTOURS_MINEURES
10
153.453
20
186.547
0
VERTEX
8
CONTOURS_MINEURES
10
149.995
20
187.080
0
VERTEX
8
CONTOURS_MINEURES
10
148.004
20
188.005
0
VERTEX
8
CONTOURS_MINEURES
10
145.771
20
189.995
0
VERTEX
8
CONTOURS_MINEURES
10
144.996
20
190.596
0
VERTEX
8
CONTOURS_MINEURES
10
143.402
20
193.406
0
VERTEX
8
CONTOURS_MINEURES
10
143.077
20
195.003
0
SEQEND
0
POLYLINE
8
CONTOURS_MINEURES
66
1
70
0
0
VERTEX
8
CONTOURS_MINEURES
10
202.500
20
195.003
0
VERTEX
8
CONTOURS_MINEURES
10
200.000
20
192.499
0
VERTEX
8
CONTOURS_MINEURES
10
199.091
20
190.905
0
VERTEX
8
CONTOURS_MINEURES
10
199.231
20
189.995
0
VERTEX
8
CONTOURS_MINEURES
10
198.929
20
186.069
0
VERTEX
8
CONTOURS_MINEURES
10
198.929
20
184.999
0
VERTEX
8
CONTOURS_MINEURES
10
199.063
20
184.062
0
VERTEX
8
CONTOURS_MINEURES
10
199.643
20
180.002
0
VERTEX
8
CONTOURS_MINEURES
10
200.000
20
179.168
0
VERTEX
8
CONTOURS_MINEURES
10
201.471
20
176.468
0
VERTEX
8
CONTOURS_MINEURES
10
201.786
20
174.995
0
VERTEX
8
CONTOURS_MINEURES
10
204.166
20
170.831
0
VERTEX
8
CONTOURS_MINEURES
10
204.444
20
169.998
0
VERTEX
8
CONTOURS_MINEURES
10
200.000
20
167.647
0
VERTEX
8
CONTOURS_MINEURES
10
197.955
20
167.046
0
VERTEX
8
CONTOURS_MINEURES
10
196.251
20
165.002
0
VERTEX
8
CONTOURS_MINEURES
10
196.786
20
161.783
0
VERTEX
8
CONTOURS_MINEURES
10
200.000
20
161.997
0
VERTEX
8
CONTOURS_MINEURES
10
204.286
20
159.994
0
VERTEX
8
CONTOURS_MINEURES
10
205.000
20
159.281
0
VERTEX
8
CONTOURS_MINEURES
10
207.307
20
157.304
0
VERTEX
8
CONTOURS_MINEURES
10
207.000
20
154.998
0
VERTEX
8
CONTOURS_MINEURES
10
208.749
20
151.251
0
VERTEX
8
CONTOURS_MINEURES
10
209.564
20
150.002
0
VERTEX
8
CONTOURS_MINEURES
10
209.999
20
147.503
0
VERTEX
8
CONTOURS_MINEURES
10
210.199
20
145.205
0
VERTEX
8
CONTOURS_MINEURES
10
210.293
20
145.005
0
VERTEX
8
CONTOURS_MINEURES
10
210.344
20
144.660
0
VERTEX
8
CONTOURS_MINEURES
10
211.249
20
139.998
0
VERTEX
8
CONTOURS_MINEURES
10
212.588
20
137.589
0
VERTEX
8
CONTOURS_MINEURES
10
214.142
20
135.001
0
VERTEX
8
CONTOURS_MINEURES
10
214.999
20
133.336
0
VERTEX
8
CONTOURS_MINEURES
10
216.577
20
130.005
0
VERTEX
8
CONTOURS_MINEURES
10
217.345
20
127.348
0
VERTEX
8
CONTOURS_MINEURES
10
217.736
20
124.998
0
VERTEX
8
CONTOURS_MINEURES
10
217.089
20
122.908
0
VERTEX
8
CONTOURS_MINEURES
10
216.443
20
120.001
0
VERTEX
8
CONTOURS_MINEURES
10
215.788
20
115.794
0
VERTEX
8
CONTOURS_MINEURES
10
215.554
20
115.005
0
VERTEX
8
CONTOURS_MINEURES
10
215.383
20
110.382
0
VERTEX
8
CONTOURS_MINEURES
10
215.475
20
109.997
0
VERTEX
8
CONTOURS_MINEURES
10
218.332
20
106.666
0
VERTEX
8
CONTOURS_MINEURES
10
219.443
20
105.001
0
VERTEX
8
CONTOURS_MINEURES
10
219.760
20
104.763
0
VERTEX
8
CONTOURS_MINEURES
10
219.998
20
104.715
0
SEQEND
0
POLYLINE
8
CONTOURS_MINEURES
66
1
70
0
0
VERTEX
8
CONTOURS_MINEURES
10
0.001
20
173.329
0
VERTEX
8
CONTOURS_MINEURES
10
1.580
20
169.998
0
VERTEX
8
CONTOURS_MINEURES
10
1.201
20
168.799
0
VERTEX
8
CONTOURS_MINEURES
10
0.001
20
166.251
0
SEQEND
0
POLYLINE
8
CONTOURS_MINEURES
66
1
70
0
0
VERTEX
8
CONTOURS_MINEURES
10
0.001
20
149.669
0
VERTEX
8
CONTOURS_MINEURES
10
0.239
20
149.764
0
VERTEX
8
CONTOURS_MINEURES
10
5.001
20
149.547
0
VERTEX
8
CONTOURS_MINEURES
10
5.626
20
149.377
0
VERTEX
8
CONTOURS_MINEURES
10
10.000
20
147.596
0
VERTEX
8
CONTOURS_MINEURES
10
12.916
20
147.920
0
VERTEX
8
CONTOURS_MINEURES
10
14.999
20
147.063
0
VERTEX
8
CONTOURS_MINEURES
10
18.571
20
146.433
0
VERTEX
8
CONTOURS_MINEURES
10
19.999
20
145.805
0
VERTEX
8
CONTOURS_MINEURES
10
24.564
20
145.440
0
VERTEX
8
CONTOURS_MINEURES
10
24.998
20
145.249
0
VERTEX
8
CONTOURS_MINEURES
10
25.099
20
145.106
0
VERTEX
8
CONTOURS_MINEURES
10
25.301
20
145.005
0
VERTEX
8
CONTOURS_MINEURES
10
26.109
20
143.892
0
VERTEX
8
CONTOURS_MINEURES
10
28.937
20
139.998
0
VERTEX
8
CONTOURS_MINEURES
10
29.998
20
137.083
0
VERTEX
8
CONTOURS_MINEURES
10
30.692
20
135.695
0
VERTEX
8
CONTOURS_MINEURES
10
30.831
20
135.001
0
VERTEX
8
CONTOURS_MINEURES
10
34.997
20
130.972
0
VERTEX
8
CONTOURS_MINEURES
10
35.489
20
130.496
0
VERTEX
8
CONTOURS_MINEURES
10
36.032
20
130.005
0
VERTEX
8
CONTOURS_MINEURES
10
37.785
20
127.790
0
VERTEX
8
CONTOURS_MINEURES
10
39.997
20
125.739
0
VERTEX
8
CONTOURS_MINEURES
10
40.484
20
125.486
0
VERTEX
8
CONTOURS_MINEURES
10
40.737
20
124.998
0
VERTEX
8
CONTOURS_MINEURES
10
42.048
20
122.051
0
VERTEX
8
CONTOURS_MINEURES
10
44.702
20
120.001
0
VERTEX
8
CONTOURS_MINEURES
10
44.996
20
119.866
0
VERTEX
8
CONTOURS_MINEURES
10
46.663
20
120.001
0
VERTEX
8
CONTOURS_MINEURES
10
49.996
20
120.358
0
VERTEX
8
CONTOURS_MINEURES
10
52.495
20
120.001
0
VERTEX
8
CONTOURS_MINEURES
10
54.762
20
119.769
0
VERTEX
8
CONTOURS_MINEURES
10
54.995
20
119.631
0
VERTEX
8
CONTOURS_MINEURES
10
55.413
20
119.585
0
VERTEX
8
CONTOURS_MINEURES
10
60.005
20
117.753
0
VERTEX
8
CONTOURS_MINEURES
10
61.557
20
118.451
0
VERTEX
8
CONTOURS_MINEURES
10
64.290
20
120.001
0
VERTEX
8
CONTOURS_MINEURES
10
65.005
20
120.385
0
VERTEX
8
CONTOURS_MINEURES
10
68.338
20
121.667
0
VERTEX
8
CONTOURS_MINEURES
10
70.004
20
122.902
0
VERTEX
8
CONTOURS_MINEURES
10
72.035
20
122.968
0
VERTEX
8
CONTOURS_MINEURES
10
75.004
20
122.968
0
VERTEX
8
CONTOURS_MINEURES
10
77.882
20
122.878
0
VERTEX
8
CONTOURS_MINEURES
10
80.003
20
123.157
0
VERTEX
8
CONTOURS_MINEURES
10
81.525
20
123.477
0
VERTEX
8
CONTOURS_MINEURES
10
85.002
20
123.477
0
VERTEX
8
CONTOURS_MINEURES
10
86.492
20
123.509
0
VERTEX
8
CONTOURS_MINEURES
10
89.669
20
124.998
0
VERTEX
8
CONTOURS_MINEURES
10
89.888
20
125.111
0
VERTEX
8
CONTOURS_MINEURES
10
90.002
20
125.198
0
VERTEX
8
CONTOURS_MINEURES
10
90.716
20
125.713
0
VERTEX
8
CONTOURS_MINEURES
10
95.001
20
128.336
0
VERTEX
8
CONTOURS_MINEURES
10
96.201
20
128.803
0
VERTEX
8
CONTOURS_MINEURES
10
100.001
20
130.005
0
VERTEX
8
CONTOURS_MINEURES
10
101.001
20
134.002
0
VERTEX
8
CONTOURS_MINEURES
10
101.945
20
135.001
0
VERTEX
8
CONTOURS_MINEURES
10
102.693
20
137.692
0
VERTEX
8
CONTOURS_MINEURES
10
102.858
20
139.998
0
VERTEX
8
CONTOURS_MINEURES
10
103.846
20
141.153
0
VERTEX
8
CONTOURS_MINEURES
10
105.000
20
142.729
0
VERTEX
8
CONTOURS_MINEURES
10
106.786
20
145.005
0
VERTEX
8
CONTOURS_MINEURES
10
108.448
20
146.556
0
VERTEX
8
CONTOURS_MINEURES
10
110.000
20
148.753
0
VERTEX
8
CONTOURS_MINEURES
10
111.499
20
150.002
0
VERTEX
8
CONTOURS_MINEURES
10
114.999
20
154.998
0
VERTEX
8
CONTOURS_MINEURES
10
119.998
20
157.996
0
VERTEX
8
CONTOURS_MINEURES
10
120.966
20
159.027
0
VERTEX
8
CONTOURS_MINEURES
10
122.306
20
159.994
0
VERTEX
8
CONTOURS_MINEURES
10
124.350
20
160.644
0
VERTEX
8
CONTOURS_MINEURES
10
124.998
20
161.163
0
VERTEX
8
CONTOURS_MINEURES
10
127.057
20
162.056
0
VERTEX
8
CONTOURS_MINEURES
10
129.997
20
163.076
0
VERTEX
8
CONTOURS_MINEURES
10
131.279
20
163.718
0
VERTEX
8
CONTOURS_MINEURES
10
133.568
20
165.002
0
VERTEX
8
CONTOURS_MINEURES
10
134.997
20
167.857
0
VERTEX
8
CONTOURS_MINEURES
10
135.934
20
169.998
0
VERTEX
8
CONTOURS_MINEURES
10
138.411
20
171.583
0
VERTEX
8
CONTOURS_MINEURES
10
139.996
20
172.705
0
VERTEX
8
CONTOURS_MINEURES
10
141.054
20
173.938
0
VERTEX
8
CONTOURS_MINEURES
10
141.371
20
174.995
0
VERTEX
8
CONTOURS_MINEURES
10
142.153
20
177.842
0
VERTEX
8
CONTOURS_MINEURES
10
142.111
20
180.002
0
VERTEX
8
CONTOURS_MINEURES
10
142.288
20
182.292
0
VERTEX
8
CONTOURS_MINEURES
10
142.865
20
184.999
0
VERTEX
8
CONTOURS_MINEURES
10
143.056
20
186.938
0
VERTEX
8
CONTOURS_MINEURES
10
141.549
20
189.995
0
VERTEX
8
CONTOURS_MINEURES
10
140.986
20
190.987
0
VERTEX
8
CONTOURS_MINEURES
10
140.171
20
195.003
0
SEQEND
0
POLYLINE
8
CONTOURS_MINEURES
66
1
70
0
0
VERTEX
8
CONTOURS_MINEURES
10
219.998
20
162.999
0
VERTEX
8
CONTOURS_MINEURES
10
218.089
20
159.994
0
VERTEX
8
CONTOURS_MINEURES
10
217.150
20
157.844
0
VERTEX
8
CONTOURS_MINEURES
10
216.829
20
154.998
0
VERTEX
8
CONTOURS_MINEURES
10
217.547
20
152.451
0
VERTEX
8
CONTOURS_MINEURES
10
218.375
20
150.002
0
VERTEX
8
CONTOURS_MINEURES
10
218.654
20
148.659
0
VERTEX
8
CONTOURS_MINEURES
10
219.998
20
147.163
0
SEQEND
0
POLYLINE
8
CONTOURS_MINEURES
66
1
70
0
0
VERTEX
8
CONTOURS_MINEURES
10
7.941
20
195.003
0
VERTEX
8
CONTOURS_MINEURES
10
7.174
20
192.825
0
VERTEX
8
CONTOURS_MINEURES
10
5.938
20
189.995
0
VERTEX
8
CONTOURS_MINEURES
10
5.186
20
185.184
0
VERTEX
8
CONTOURS_MINEURES
10
5.167
20
184.999
0
VERTEX
8
CONTOURS_MINEURES
10
5.607
20
180.608
0
VERTEX
8
CONTOURS_MINEURES
10
5.953
20
180.002
0
VERTEX
8
CONTOURS_MINEURES
10
5.910
20
179.092
0
VERTEX
8
CONTOURS_MINEURES
10
5.001
20
177.141
0
VERTEX
8
CONTOURS_MINEURES
10
4.167
20
175.829
0
VERTEX
8
CONTOURS_MINEURES
10
0.001
20
175.829
0
SEQEND
0
POLYLINE
8
CONTOURS_MINEURES
66
1
70
0
0
VERTEX
8
CONTOURS_MINEURES
10
25.211
20
195.003
0
VERTEX
8
CONTOURS_MINEURES
10
24.998
20
193.890
0
VERTEX
8
CONTOURS_MINEURES
10
23.749
20
191.247
0
VERTEX
8
CONTOURS_MINEURES
10
22.306
20
189.995
0
VERTEX
8
CONTOURS_MINEURES
10
24.998
20
184.999
0
VERTEX
8
CONTOURS_MINEURES
10
25.314
20
180.318
0
VERTEX
8
CONTOURS_MINEURES
10
25.271
20
180.002
0
VERTEX
8
CONTOURS_MINEURES
10
25.046
20
175.042
0
VERTEX
8
CONTOURS_MINEURES
10
25.056
20
174.995
0
VERTEX
8
CONTOURS_MINEURES
10
25.075
20
174.918
0
VERTEX
8
CONTOURS_MINEURES
10
24.998
20
173.746
0
VERTEX
8
CONTOURS_MINEURES
10
24.557
20
169.998
0
VERTEX
8
CONTOURS_MINEURES
10
24.686
20
169.686
0
VERTEX
8
CONTOURS_MINEURES
10
24.998
20
167.857
0
VERTEX
8
CONTOURS_MINEURES
10
25.292
20
165.296
0
VERTEX
8
CONTOURS_MINEURES
10
25.326
20
165.002
0
VERTEX
8
CONTOURS_MINEURES
10
27.060
20
162.059
0
VERTEX
8
CONTOURS_MINEURES
10
27.018
20
159.994
0
VERTEX
8
CONTOURS_MINEURES
10
28.028
20
156.966
0
VERTEX
8
CONTOURS_MINEURES
10
28.141
20
154.998
0
VERTEX
8
CONTOURS_MINEURES
10
28.504
20
153.505
0
VERTEX
8
CONTOURS_MINEURES
10
29.998
20
150.519
0
VERTEX
8
CONTOURS_MINEURES
10
30.623
20
150.002
0
VERTEX
8
CONTOURS_MINEURES
10
33.831
20
148.836
0
VERTEX
8
CONTOURS_MINEURES
10
34.997
20
148.584
0
VERTEX
8
CONTOURS_MINEURES
10
38.351
20
148.357
0
VERTEX
8
CONTOURS_MINEURES
10
39.997
20
148.222
0
VERTEX
8
CONTOURS_MINEURES
10
41.996
20
148.003
0
VERTEX
8
CONTOURS_MINEURES
10
44.996
20
148.424
0
VERTEX
8
CONTOURS_MINEURES
10
48.301
20
148.308
0
VERTEX
8
CONTOURS_MINEURES
10
49.996
20
147.876
0
VERTEX
8
CONTOURS_MINEURES
10
52.495
20
147.503
0
VERTEX
8
CONTOURS_MINEURES
10
54.995
20
147.329
0
VERTEX
8
CONTOURS_MINEURES
10
59.767
20
149.764
0
VERTEX
8
CONTOURS_MINEURES
10
60.005
20
149.288
0
VERTEX
8
CONTOURS_MINEURES
10
60.390
20
149.617
0
VERTEX
8
CONTOURS_MINEURES
10
60.719
20
150.002
0
VERTEX
8
CONTOURS_MINEURES
10
64.255
20
150.751
0
VERTEX
8
CONTOURS_MINEURES
10
65.005
20
151.035
0
VERTEX
8
CONTOURS_MINEURES
10
66.671
20
151.667
0
VERTEX
8
CONTOURS_MINEURES
10
70.004
20
152.391
0
VERTEX
8
CONTOURS_MINEURES
10
72.311
20
152.692
0
VERTEX
8
CONTOURS_MINEURES
10
74.619
20
154.998
0
VERTEX
8
CONTOURS_MINEURES
10
75.004
20
155.292
0
VERTEX
8
CONTOURS_MINEURES
10
77.966
20
157.034
0
VERTEX
8
CONTOURS_MINEURES
10
80.003
20
158.924
0
VERTEX
8
CONTOURS_MINEURES
10
80.444
20
159.554
0
VERTEX
8
CONTOURS_MINEURES
10
80.753
20
159.994
0
VERTEX
8
CONTOURS_MINEURES
10
85.002
20
162.832
0
VERTEX
8
CONTOURS_MINEURES
10
89.476
20
164.475
0
VERTEX
8
CONTOURS_MINEURES
10
90.002
20
164.501
0
VERTEX
8
CONTOURS_MINEURES
10
90.265
20
164.738
0
VERTEX
8
CONTOURS_MINEURES
10
90.771
20
165.002
0
VERTEX
8
CONTOURS_MINEURES
10
95.001
20
168.666
0
VERTEX
8
CONTOURS_MINEURES
10
95.954
20
169.047
0
VERTEX
8
CONTOURS_MINEURES
10
96.540
20
169.998
0
VERTEX
8
CONTOURS_MINEURES
10
100.001
20
172.644
0
VERTEX
8
CONTOURS_MINEURES
10
103.215
20
173.210
0
VERTEX
8
CONTOURS_MINEURES
10
105.000
20
173.210
0
VERTEX
8
CONTOURS_MINEURES
10
108.125
20
171.872
0
VERTEX
8
CONTOURS_MINEURES
10
109.166
20
174.995
0
VERTEX
8
CONTOURS_MINEURES
10
110.000
20
175.496
0
VERTEX
8
CONTOURS_MINEURES
10
113.214
20
176.783
0
VERTEX
8
CONTOURS_MINEURES
10
114.999
20
177.081
0
VERTEX
8
CONTOURS_MINEURES
10
118.570
20
178.572
0
VERTEX
8
CONTOURS_MINEURES
10
119.998
20
179.525
0
VERTEX
8
CONTOURS_MINEURES
10
120.237
20
179.764
0
VERTEX
8
CONTOURS_MINEURES
10
120.498
20
180.002
0
VERTEX
8
CONTOURS_MINEURES
10
124.998
20
184.499
0
VERTEX
8
CONTOURS_MINEURES
10
125.398
20
184.999
0
VERTEX
8
CONTOURS_MINEURES
10
127.498
20
187.497
0
VERTEX
8
CONTOURS_MINEURES
10
129.997
20
188.961
0
VERTEX
8
CONTOURS_MINEURES
10
131.108
20
189.995
0
VERTEX
8
CONTOURS_MINEURES
10
132.897
20
192.098
0
VERTEX
8
CONTOURS_MINEURES
10
132.586
20
195.003
0
SEQEND
0
POLYLINE
8
CONTOURS_MINEURES
66
1
70
0
0
VERTEX
8
CONTOURS_MINEURES
10
59.787
20
139.998
0
VERTEX
8
CONTOURS_MINEURES
10
59.805
20
139.798
0
VERTEX
8
CONTOURS_MINEURES
10
60.005
20
139.581
0
VERTEX
8
CONTOURS_MINEURES
10
60.283
20
139.720
0
VERTEX
8
CONTOURS_MINEURES
10
62.505
20
139.998
0
VERTEX
8
CONTOURS_MINEURES
10
60.390
20
140.383
0
VERTEX
8
CONTOURS_MINEURES
10
60.005
20
140.713
0
VERTEX
8
CONTOURS_MINEURES
10
59.767
20
140.236
0
VERTEX
8
CONTOURS_MINEURES
10
59.787
20
139.998
0
SEQEND
0
POLYLINE
8
CONTOURS_MINEURES
66
1
70
0
0
VERTEX
8
CONTOURS_MINEURES
10
44.996
20
195.003
0
VERTEX
8
CONTOURS_MINEURES
10
41.335
20
193.662
0
VERTEX
8
CONTOURS_MINEURES
10
39.997
20
193.582
0
VERTEX
8
CONTOURS_MINEURES
10
36.479
20
191.479
0
VERTEX
8
CONTOURS_MINEURES
10
34.997
20
191.998
0
VERTEX
8
CONTOURS_MINEURES
10
34.362
20
190.631
0
VERTEX
8
CONTOURS_MINEURES
10
34.243
20
189.995
0
VERTEX
8
CONTOURS_MINEURES
10
32.892
20
187.891
0
VERTEX
8
CONTOURS_MINEURES
10
30.857
20
184.999
0
VERTEX
8
CONTOURS_MINEURES
10
30.712
20
184.285
0
VERTEX
8
CONTOURS_MINEURES
10
29.998
20
181.335
0
VERTEX
8
CONTOURS_MINEURES
10
29.816
20
180.002
0
VERTEX
8
CONTOURS_MINEURES
10
29.807
20
179.811
0
VERTEX
8
CONTOURS_MINEURES
10
29.998
20
178.889
0
VERTEX
8
CONTOURS_MINEURES
10
30.873
20
175.871
0
VERTEX
8
CONTOURS_MINEURES
10
31.705
20
174.995
0
VERTEX
8
CONTOURS_MINEURES
10
32.855
20
172.853
0
VERTEX
8
CONTOURS_MINEURES
10
34.997
20
171.445
0
VERTEX
8
CONTOURS_MINEURES
10
36.664
20
171.664
0
VERTEX
8
CONTOURS_MINEURES
10
37.497
20
169.998
0
VERTEX
8
CONTOURS_MINEURES
10
34.997
20
165.771
0
VERTEX
8
CONTOURS_MINEURES
10
34.734
20
165.265
0
VERTEX
8
CONTOURS_MINEURES
10
34.775
20
165.002
0
VERTEX
8
CONTOURS_MINEURES
10
33.979
20
161.015
0
VERTEX
8
CONTOURS_MINEURES
10
33.940
20
159.994
0
VERTEX
8
CONTOURS_MINEURES
10
34.350
20
159.348
0
VERTEX
8
CONTOURS_MINEURES
10
34.997
20
158.917
0
VERTEX
8
CONTOURS_MINEURES
10
37.289
20
157.704
0
VERTEX
8
CONTOURS_MINEURES
10
39.997
20
156.441
0
VERTEX
8
CONTOURS_MINEURES
10
42.093
20
157.093
0
VERTEX
8
CONTOURS_MINEURES
10
44.996
20
157.425
0
VERTEX
8
CONTOURS_MINEURES
10
46.548
20
158.444
0
VERTEX
8
CONTOURS_MINEURES
10
48.099
20
159.994
0
VERTEX
8
CONTOURS_MINEURES
10
49.996
20
161.166
0
VERTEX
8
CONTOURS_MINEURES
10
52.495
20
159.994
0
VERTEX
8
CONTOURS_MINEURES
10
53.917
20
158.917
0
VERTEX
8
CONTOURS_MINEURES
10
54.995
20
158.509
0
VERTEX
8
CONTOURS_MINEURES
10
55.711
20
159.281
0
VERTEX
8
CONTOURS_MINEURES
10
56.408
20
159.994
0
VERTEX
8
CONTOURS_MINEURES
10
60.005
20
164.000
0
VERTEX
8
CONTOURS_MINEURES
10
60.859
20
165.002
0
VERTEX
8
CONTOURS_MINEURES
10
62.541
20
167.464
0
VERTEX
8
CONTOURS_MINEURES
10
63.982
20
169.998
0
VERTEX
8
CONTOURS_MINEURES
10
64.323
20
170.680
0
VERTEX
8
CONTOURS_MINEURES
10
65.005
20
171.797
0
VERTEX
8
CONTOURS_MINEURES
10
67.167
20
174.995
0
VERTEX
8
CONTOURS_MINEURES
10
67.290
20
177.284
0
VERTEX
8
CONTOURS_MINEURES
10
68.066
20
180.002
0
VERTEX
8
CONTOURS_MINEURES
10
67.636
20
182.632
0
VERTEX
8
CONTOURS_MINEURES
10
67.304
20
184.999
0
VERTEX
8
CONTOURS_MINEURES
10
67.216
20
187.209
0
VERTEX
8
CONTOURS_MINEURES
10
66.086
20
189.995
0
VERTEX
8
CONTOURS_MINEURES
10
65.977
20
194.029
0
VERTEX
8
CONTOURS_MINEURES
10
66.134
20
195.003
0
SEQEND
0
POLYLINE
8
CONTOURS_MINEURES
66
1
70
0
0
VERTEX
8
CONTOURS_MINEURES
10
40.084
20
184.911
0
VERTEX
8
CONTOURS_MINEURES
10
40.175
20
184.999
0
VERTEX
8
CONTOURS_MINEURES
10
40.099
20
185.101
0
VERTEX
8
CONTOURS_MINEURES
10
39.997
20
185.093
0
VERTEX
8
CONTOURS_MINEURES
10
39.893
20
184.999
0
VERTEX
8
CONTOURS_MINEURES
10
39.997
20
184.814
0
VERTEX
8
CONTOURS_MINEURES
10
40.084
20
184.911
0
SEQEND
0
POLYLINE
8
CONTOURS_MAJEURES
66
1
70
0
0
VERTEX
8
CONTOURS_MAJEURES
10
123.980
20
-0.001
0
VERTEX
8
CONTOURS_MAJEURES
10
124.998
20
0.795
0
VERTEX
8
CONTOURS_MAJEURES
10
127.318
20
2.677
0
VERTEX
8
CONTOURS_MAJEURES
10
129.997
20
3.718
0
VERTEX
8
CONTOURS_MAJEURES
10
130.917
20
4.076
0
VERTEX
8
CONTOURS_MAJEURES
10
134.420
20
4.995
0
VERTEX
8
CONTOURS_MAJEURES
10
134.837
20
5.155
0
VERTEX
8
CONTOURS_MAJEURES
10
134.997
20
5.174
0
VERTEX
8
CONTOURS_MAJEURES
10
135.189
20
5.188
0
VERTEX
8
CONTOURS_MAJEURES
10
139.996
20
5.735
0
VERTEX
8
CONTOURS_MAJEURES
10
143.246
20
4.995
0
VERTEX
8
CONTOURS_MAJEURES
10
144.996
20
2.081
0
VERTEX
8
CONTOURS_MAJEURES
10
145.671
20
0.674
0
VERTEX
8
CONTOURS_MAJEURES
10
145.442
20
-0.001
0
SEQEND
0
POLYLINE
8
CONTOURS_MAJEURES
66
1
70
0
0
VERTEX
8
CONTOURS_MAJEURES
10
27.052
20
-0.001
0
VERTEX
8
CONTOURS_MAJEURES
10
27.641
20
2.354
0
VERTEX
8
CONTOURS_MAJEURES
10
29.998
20
4.455
0
VERTEX
8
CONTOURS_MAJEURES
10
30.767
20
4.995
0
VERTEX
8
CONTOURS_MAJEURES
10
33.331
20
6.664
0
VERTEX
8
CONTOURS_MAJEURES
10
34.997
20
7.557
0
VERTEX
8
CONTOURS_MAJEURES
10
37.760
20
10.003
0
VERTEX
8
CONTOURS_MAJEURES
10
39.997
20
11.106
0
VERTEX
8
CONTOURS_MAJEURES
10
43.538
20
13.542
0
VERTEX
8
CONTOURS_MAJEURES
10
44.996
20
14.461
0
VERTEX
8
CONTOURS_MAJEURES
10
45.381
20
14.615
0
VERTEX
8
CONTOURS_MAJEURES
10
45.682
20
14.999
0
VERTEX
8
CONTOURS_MAJEURES
10
49.996
20
18.096
0
VERTEX
8
CONTOURS_MAJEURES
10
51.281
20
18.711
0
VERTEX
8
CONTOURS_MAJEURES
10
52.591
20
19.996
0
VERTEX
8
CONTOURS_MAJEURES
10
54.048
20
20.944
0
VERTEX
8
CONTOURS_MAJEURES
10
54.995
20
21.486
0
VERTEX
8
CONTOURS_MAJEURES
10
57.218
20
22.782
0
VERTEX
8
CONTOURS_MAJEURES
10
59.841
20
25.003
0
VERTEX
8
CONTOURS_MAJEURES
10
60.005
20
25.118
0
VERTEX
8
CONTOURS_MAJEURES
10
63.274
20
26.733
0
VERTEX
8
CONTOURS_MAJEURES
10
65.005
20
27.648
0
VERTEX
8
CONTOURS_MAJEURES
10
66.823
20
28.183
0
VERTEX
8
CONTOURS_MAJEURES
10
69.655
20
29.999
0
VERTEX
8
CONTOURS_MAJEURES
10
69.883
20
30.120
0
VERTEX
8
CONTOURS_MAJEURES
10
70.004
20
30.187
0
VERTEX
8
CONTOURS_MAJEURES
10
70.656
20
30.651
0
VERTEX
8
CONTOURS_MAJEURES
10
75.004
20
33.410
0
VERTEX
8
CONTOURS_MAJEURES
10
76.003
20
33.997
0
VERTEX
8
CONTOURS_MAJEURES
10
77.003
20
34.996
0
VERTEX
8
CONTOURS_MAJEURES
10
80.003
20
37.205
0
VERTEX
8
CONTOURS_MAJEURES
10
82.679
20
40.003
0
VERTEX
8
CONTOURS_MAJEURES
10
83.865
20
41.140
0
VERTEX
8
CONTOURS_MAJEURES
10
85.002
20
42.293
0
VERTEX
8
CONTOURS_MAJEURES
10
89.585
20
44.583
0
VERTEX
8
CONTOURS_MAJEURES
10
90.002
20
44.750
0
VERTEX
8
CONTOURS_MAJEURES
10
90.602
20
45.000
0
VERTEX
8
CONTOURS_MAJEURES
10
95.001
20
47.498
0
VERTEX
8
CONTOURS_MAJEURES
10
99.584
20
49.996
0
VERTEX
8
CONTOURS_MAJEURES
10
99.873
20
50.125
0
VERTEX
8
CONTOURS_MAJEURES
10
100.001
20
50.205
0
VERTEX
8
CONTOURS_MAJEURES
10
103.485
20
51.514
0
VERTEX
8
CONTOURS_MAJEURES
10
105.000
20
52.439
0
VERTEX
8
CONTOURS_MAJEURES
10
109.545
20
54.548
0
VERTEX
8
CONTOURS_MAJEURES
10
110.000
20
54.681
0
VERTEX
8
CONTOURS_MAJEURES
10
111.111
20
55.004
0
VERTEX
8
CONTOURS_MAJEURES
10
114.363
20
55.640
0
VERTEX
8
CONTOURS_MAJEURES
10
114.999
20
55.857
0
VERTEX
8
CONTOURS_MAJEURES
10
115.999
20
56.003
0
VERTEX
8
CONTOURS_MAJEURES
10
119.998
20
55.761
0
VERTEX
8
CONTOURS_MAJEURES
10
120.693
20
55.698
0
VERTEX
8
CONTOURS_MAJEURES
10
124.998
20
56.128
0
VERTEX
8
CONTOURS_MAJEURES
10
128.295
20
56.705
0
VERTEX
8
CONTOURS_MAJEURES
10
129.997
20
56.780
0
VERTEX
8
CONTOURS_MAJEURES
10
131.948
20
56.953
0
VERTEX
8
CONTOURS_MAJEURES
10
134.997
20
56.877
0
VERTEX
8
CONTOURS_MAJEURES
10
137.024
20
57.029
0
VERTEX
8
CONTOURS_MAJEURES
10
139.996
20
56.859
0
VERTEX
8
CONTOURS_MAJEURES
10
142.950
20
57.956
0
VERTEX
8
CONTOURS_MAJEURES
10
144.996
20
58.549
0
VERTEX
8
CONTOURS_MAJEURES
10
146.547
20
58.449
0
VERTEX
8
CONTOURS_MAJEURES
10
149.995
20
58.449
0
VERTEX
8
CONTOURS_MAJEURES
10
151.799
20
58.201
0
VERTEX
8
CONTOURS_MAJEURES
10
155.005
20
58.479
0
VERTEX
8
CONTOURS_MAJEURES
10
158.814
20
58.810
0
VERTEX
8
CONTOURS_MAJEURES
10
160.005
20
58.959
0
VERTEX
8
CONTOURS_MAJEURES
10
163.523
20
58.520
0
VERTEX
8
CONTOURS_MAJEURES
10
165.004
20
58.401
0
VERTEX
8
CONTOURS_MAJEURES
10
167.432
20
57.430
0
VERTEX
8
CONTOURS_MAJEURES
10
167.580
20
55.004
0
VERTEX
8
CONTOURS_MAJEURES
10
168.152
20
51.851
0
VERTEX
8
CONTOURS_MAJEURES
10
168.754
20
49.996
0
VERTEX
8
CONTOURS_MAJEURES
10
170.004
20
47.220
0
VERTEX
8
CONTOURS_MAJEURES
10
170.837
20
45.832
0
VERTEX
8
CONTOURS_MAJEURES
10
171.056
20
45.000
0
VERTEX
8
CONTOURS_MAJEURES
10
173.640
20
41.366
0
VERTEX
8
CONTOURS_MAJEURES
10
174.486
20
40.003
0
VERTEX
8
CONTOURS_MAJEURES
10
174.744
20
39.744
0
VERTEX
8
CONTOURS_MAJEURES
10
175.003
20
39.485
0
VERTEX
8
CONTOURS_MAJEURES
10
177.957
20
34.996
0
VERTEX
8
CONTOURS_MAJEURES
10
178.451
20
33.445
0
VERTEX
8
CONTOURS_MAJEURES
10
180.003
20
31.398
0
VERTEX
8
CONTOURS_MAJEURES
10
181.299
20
29.999
0
VERTEX
8
CONTOURS_MAJEURES
10
183.415
20
28.413
0
VERTEX
8
CONTOURS_MAJEURES
10
185.002
20
26.776
0
VERTEX
8
CONTOURS_MAJEURES
10
186.721
20
25.003
0
VERTEX
8
CONTOURS_MAJEURES
10
188.930
20
21.069
0
VERTEX
8
CONTOURS_MAJEURES
10
189.560
20
19.996
0
VERTEX
8
CONTOURS_MAJEURES
10
189.845
20
15.155
0
VERTEX
8
CONTOURS_MAJEURES
10
189.870
20
14.999
0
VERTEX
8
CONTOURS_MAJEURES
10
190.001
20
12.501
0
VERTEX
8
CONTOURS_MAJEURES
10
190.144
20
10.003
0
VERTEX
8
CONTOURS_MAJEURES
10
190.137
20
9.867
0
VERTEX
8
CONTOURS_MAJEURES
10
190.137
20
4.995
0
VERTEX
8
CONTOURS_MAJEURES
10
191.088
20
1.085
0
VERTEX
8
CONTOURS_MAJEURES
10
191.251
20
-0.001
0
SEQEND
0
POLYLINE
8
CONTOURS_MAJEURES
66
1
70
0
0
VERTEX
8
CONTOURS_MAJEURES
10
0.001
20
100.815
0
VERTEX
8
CONTOURS_MAJEURES
10
2.154
20
102.850
0
VERTEX
8
CONTOURS_MAJEURES
10
4.080
20
105.001
0
VERTEX
8
CONTOURS_MAJEURES
10
5.001
20
106.207
0
VERTEX
8
CONTOURS_MAJEURES
10
7.245
20
107.754
0
VERTEX
8
CONTOURS_MAJEURES
10
9.583
20
109.997
0
VERTEX
8
CONTOURS_MAJEURES
10
10.000
20
110.331
0
VERTEX
8
CONTOURS_MAJEURES
10
10.455
20
110.452
0
VERTEX
8
CONTOURS_MAJEURES
10
14.999
20
110.650
0
VERTEX
8
CONTOURS_MAJEURES
10
18.749
20
109.997
0
VERTEX
8
CONTOURS_MAJEURES
10
19.999
20
109.734
0
VERTEX
8
CONTOURS_MAJEURES
10
22.367
20
107.368
0
VERTEX
8
CONTOURS_MAJEURES
10
24.998
20
105.239
0
VERTEX
8
CONTOURS_MAJEURES
10
25.083
20
105.001
0
VERTEX
8
CONTOURS_MAJEURES
10
25.109
20
104.890
0
VERTEX
8
CONTOURS_MAJEURES
10
27.103
20
100.004
0
VERTEX
8
CONTOURS_MAJEURES
10
27.658
20
97.661
0
VERTEX
8
CONTOURS_MAJEURES
10
28.729
20
94.997
0
VERTEX
8
CONTOURS_MAJEURES
10
28.986
20
93.986
0
VERTEX
8
CONTOURS_MAJEURES
10
29.998
20
92.166
0
VERTEX
8
CONTOURS_MAJEURES
10
33.146
20
91.851
0
VERTEX
8
CONTOURS_MAJEURES
10
34.997
20
91.666
0
VERTEX
8
CONTOURS_MAJEURES
10
39.542
20
90.455
0
VERTEX
8
CONTOURS_MAJEURES
10
39.997
20
90.357
0
VERTEX
8
CONTOURS_MAJEURES
10
40.247
20
90.250
0
VERTEX
8
CONTOURS_MAJEURES
10
40.663
20
90.001
0
VERTEX
8
CONTOURS_MAJEURES
10
43.240
20
88.245
0
VERTEX
8
CONTOURS_MAJEURES
10
44.996
20
86.582
0
VERTEX
8
CONTOURS_MAJEURES
10
46.067
20
86.075
0
VERTEX
8
CONTOURS_MAJEURES
10
47.723
20
85.004
0
VERTEX
8
CONTOURS_MAJEURES
10
49.996
20
83.866
0
VERTEX
8
CONTOURS_MAJEURES
10
51.558
20
83.439
0
VERTEX
8
CONTOURS_MAJEURES
10
54.995
20
82.292
0
VERTEX
8
CONTOURS_MAJEURES
10
57.199
20
82.200
0
VERTEX
8
CONTOURS_MAJEURES
10
60.005
20
82.500
0
VERTEX
8
CONTOURS_MAJEURES
10
62.597
20
82.408
0
VERTEX
8
CONTOURS_MAJEURES
10
65.005
20
82.408
0
VERTEX
8
CONTOURS_MAJEURES
10
68.425
20
83.423
0
VERTEX
8
CONTOURS_MAJEURES
10
70.004
20
83.502
0
VERTEX
8
CONTOURS_MAJEURES
10
73.337
20
85.004
0
VERTEX
8
CONTOURS_MAJEURES
10
74.486
20
85.521
0
VERTEX
8
CONTOURS_MAJEURES
10
75.004
20
85.837
0
VERTEX
8
CONTOURS_MAJEURES
10
76.253
20
86.253
0
VERTEX
8
CONTOURS_MAJEURES
10
80.003
20
87.752
0
VERTEX
8
CONTOURS_MAJEURES
10
83.931
20
88.930
0
VERTEX
8
CONTOURS_MAJEURES
10
85.002
20
89.319
0
VERTEX
8
CONTOURS_MAJEURES
10
85.315
20
89.688
0
VERTEX
8
CONTOURS_MAJEURES
10
85.885
20
90.001
0
VERTEX
8
CONTOURS_MAJEURES
10
90.002
20
91.841
0
VERTEX
8
CONTOURS_MAJEURES
10
95.001
20
94.997
0
VERTEX
8
CONTOURS_MAJEURES
10
98.711
20
96.289
0
VERTEX
8
CONTOURS_MAJEURES
10
100.001
20
96.905
0
VERTEX
8
CONTOURS_MAJEURES
10
102.064
20
97.938
0
VERTEX
8
CONTOURS_MAJEURES
10
105.000
20
99.306
0
VERTEX
8
CONTOURS_MAJEURES
10
106.035
20
100.004
0
VERTEX
8
CONTOURS_MAJEURES
10
108.380
20
101.623
0
VERTEX
8
CONTOURS_MAJEURES
10
110.000
20
102.558
0
VERTEX
8
CONTOURS_MAJEURES
10
114.230
20
105.001
0
VERTEX
8
CONTOURS_MAJEURES
10
114.701
20
105.299
0
VERTEX
8
CONTOURS_MAJEURES
10
114.999
20
105.477
0
VERTEX
8
CONTOURS_MAJEURES
10
117.793
20
107.205
0
VERTEX
8
CONTOURS_MAJEURES
10
119.998
20
108.570
0
VERTEX
8
CONTOURS_MAJEURES
10
122.067
20
109.997
0
VERTEX
8
CONTOURS_MAJEURES
10
123.710
20
111.287
0
VERTEX
8
CONTOURS_MAJEURES
10
124.998
20
111.977
0
VERTEX
8
CONTOURS_MAJEURES
10
129.247
20
114.254
0
VERTEX
8
CONTOURS_MAJEURES
10
129.997
20
114.655
0
VERTEX
8
CONTOURS_MAJEURES
10
130.247
20
114.754
0
VERTEX
8
CONTOURS_MAJEURES
10
130.880
20
115.005
0
VERTEX
8
CONTOURS_MAJEURES
10
134.997
20
116.631
0
VERTEX
8
CONTOURS_MAJEURES
10
137.682
20
117.318
0
VERTEX
8
CONTOURS_MAJEURES
10
139.996
20
118.208
0
VERTEX
8
CONTOURS_MAJEURES
10
143.496
20
120.001
0
VERTEX
8
CONTOURS_MAJEURES
10
144.512
20
120.485
0
VERTEX
8
CONTOURS_MAJEURES
10
144.996
20
121.000
0
VERTEX
8
CONTOURS_MAJEURES
10
146.424
20
121.429
0
VERTEX
8
CONTOURS_MAJEURES
10
149.995
20
122.115
0
VERTEX
8
CONTOURS_MAJEURES
10
152.142
20
122.856
0
VERTEX
8
CONTOURS_MAJEURES
10
155.005
20
124.165
0
VERTEX
8
CONTOURS_MAJEURES
10
155.450
20
124.553
0
VERTEX
8
CONTOURS_MAJEURES
10
156.005
20
124.998
0
VERTEX
8
CONTOURS_MAJEURES
10
157.148
20
127.859
0
VERTEX
8
CONTOURS_MAJEURES
10
160.005
20
130.005
0
VERTEX
8
CONTOURS_MAJEURES
10
162.732
20
132.276
0
VERTEX
8
CONTOURS_MAJEURES
10
165.004
20
134.169
0
VERTEX
8
CONTOURS_MAJEURES
10
165.517
20
134.489
0
VERTEX
8
CONTOURS_MAJEURES
10
166.181
20
135.001
0
VERTEX
8
CONTOURS_MAJEURES
10
170.004
20
136.857
0
VERTEX
8
CONTOURS_MAJEURES
10
172.248
20
137.755
0
VERTEX
8
CONTOURS_MAJEURES
10
174.786
20
139.998
0
VERTEX
8
CONTOURS_MAJEURES
10
175.003
20
140.096
0
VERTEX
8
CONTOURS_MAJEURES
10
175.155
20
140.150
0
VERTEX
8
CONTOURS_MAJEURES
10
180.003
20
141.097
0
VERTEX
8
CONTOURS_MAJEURES
10
181.669
20
141.667
0
VERTEX
8
CONTOURS_MAJEURES
10
185.002
20
142.189
0
VERTEX
8
CONTOURS_MAJEURES
10
187.729
20
142.274
0
VERTEX
8
CONTOURS_MAJEURES
10
190.001
20
142.144
0
VERTEX
8
CONTOURS_MAJEURES
10
193.847
20
141.153
0
VERTEX
8
CONTOURS_MAJEURES
10
195.001
20
141.071
0
VERTEX
8
CONTOURS_MAJEURES
10
195.601
20
140.599
0
VERTEX
8
CONTOURS_MAJEURES
10
196.112
20
139.998
0
VERTEX
8
CONTOURS_MAJEURES
10
197.942
20
137.940
0
VERTEX
8
CONTOURS_MAJEURES
10
199.688
20
135.001
0
VERTEX
8
CONTOURS_MAJEURES
10
200.000
20
134.446
0
VERTEX
8
CONTOURS_MAJEURES
10
202.424
20
130.005
0
VERTEX
8
CONTOURS_MAJEURES
10
202.976
20
127.978
0
VERTEX
8
CONTOURS_MAJEURES
10
204.166
20
124.998
0
VERTEX
8
CONTOURS_MAJEURES
10
205.000
20
121.875
0
VERTEX
8
CONTOURS_MAJEURES
10
205.349
20
120.001
0
VERTEX
8
CONTOURS_MAJEURES
10
205.555
20
115.560
0
VERTEX
8
CONTOURS_MAJEURES
10
205.543
20
115.005
0
VERTEX
8
CONTOURS_MAJEURES
10
205.521
20
114.483
0
VERTEX
8
CONTOURS_MAJEURES
10
205.222
20
109.997
0
VERTEX
8
CONTOURS_MAJEURES
10
205.222
20
105.223
0
VERTEX
8
CONTOURS_MAJEURES
10
205.208
20
105.001
0
VERTEX
8
CONTOURS_MAJEURES
10
205.244
20
104.757
0
VERTEX
8
CONTOURS_MAJEURES
10
205.125
20
100.004
0
VERTEX
8
CONTOURS_MAJEURES
10
205.192
20
99.812
0
VERTEX
8
CONTOURS_MAJEURES
10
205.000
20
94.997
0
VERTEX
8
CONTOURS_MAJEURES
10
208.181
20
90.001
0
VERTEX
8
CONTOURS_MAJEURES
10
209.069
20
89.071
0
VERTEX
8
CONTOURS_MAJEURES
10
209.999
20
88.668
0
VERTEX
8
CONTOURS_MAJEURES
10
211.142
20
88.859
0
VERTEX
8
CONTOURS_MAJEURES
10
214.999
20
88.650
0
VERTEX
8
CONTOURS_MAJEURES
10
217.498
20
90.001
0
VERTEX
8
CONTOURS_MAJEURES
10
219.998
20
91.388
0
SEQEND
0
POLYLINE
8
CONTOURS_MAJEURES
66
1
70
0
0
VERTEX
8
CONTOURS_MAJEURES
10
163.113
20
195.003
0
VERTEX
8
CONTOURS_MAJEURES
10
160.005
20
193.357
0
VERTEX
8
CONTOURS_MAJEURES
10
157.030
20
192.974
0
VERTEX
8
CONTOURS_MAJEURES
10
155.005
20
192.611
0
VERTEX
8
CONTOURS_MAJEURES
10
153.074
20
193.072
0
VERTEX
8
CONTOURS_MAJEURES
10
149.995
20
193.446
0
VERTEX
8
CONTOURS_MAJEURES
10
147.978
20
195.003
0
SEQEND
0
POLYLINE
8
CONTOURS_MAJEURES
66
1
70
0
0
VERTEX
8
CONTOURS_MAJEURES
10
40.084
20
184.911
0
VERTEX
8
CONTOURS_MAJEURES
10
40.175
20
184.999
0
VERTEX
8
CONTOURS_MAJEURES
10
40.099
20
185.101
0
VERTEX
8
CONTOURS_MAJEURES
10
39.997
20
185.093
0
VERTEX
8
CONTOURS_MAJEURES
10
39.893
20
184.999
0
VERTEX
8
CONTOURS_MAJEURES
10
39.997
20
184.814
0
VERTEX
8
CONTOURS_MAJEURES
10
40.084
20
184.911
0
SEQEND
0
POLYLINE
8
PARCELLE
66
1
70
1
0
VERTEX
8
PARCELLE
10
20.000
20
62.226
0
VERTEX
8
PARCELLE
10
27.168
20
72.924
0
VERTEX
8
PARCELLE
10
40.849
20
93.386
0
VERTEX
8
PARCELLE
10
61.457
20
125.527
0
VERTEX
8
PARCELLE
10
73.041
20
143.988
0
VERTEX
8
PARCELLE
10
73.355
20
144.485
0
VERTEX
8
PARCELLE
10
78.100
20
148.730
0
VERTEX
8
PARCELLE
10
96.837
20
167.831
0
VERTEX
8
PARCELLE
10
107.807
20
178.686
0
VERTEX
8
PARCELLE
10
123.992
20
173.854
0
VERTEX
8
PARCELLE
10
154.453
20
165.474
0
VERTEX
8
PARCELLE
10
181.003
20
158.176
0
VERTEX
8
PARCELLE
10
202.242
20
152.712
0
VERTEX
8
PARCELLE
10
202.127
20
152.214
0
VERTEX
8
PARCELLE
10
178.818
20
49.202
0
VERTEX
8
PARCELLE
10
172.222
20
20.000
0
VERTEX
8
PARCELLE
10
134.965
20
25.061
0
VERTEX
8
PARCELLE
10
116.971
20
27.641
0
VERTEX
8
PARCELLE
10
112.920
20
28.603
0
VERTEX
8
PARCELLE
10
69.254
20
45.317
0
VERTEX
8
PARCELLE
10
20.000
20
62.226
0
SEQEND
0
TEXT
8
POINTS_COTES
10
0.001
20
-0.001
40
1.0
1
125.6
0
TEXT
8
POINTS_COTES
10
0.001
20
10.003
40
1.0
1
125.8
0
TEXT
8
POINTS_COTES
10
0.001
20
19.996
40
1.0
1
126.1
0
TEXT
8
POINTS_COTES
10
0.001
20
29.999
40
1.0
1
126.4
0
TEXT
8
POINTS_COTES
10
0.001
20
40.003
40
1.0
1
127.0
0
TEXT
8
POINTS_COTES
10
0.001
20
49.996
40
1.0
1
127.5
0
TEXT
8
POINTS_COTES
10
0.001
20
60.000
40
1.0
1
127.4
0
TEXT
8
POINTS_COTES
10
0.001
20
70.004
40
1.0
1
127.7
0
TEXT
8
POINTS_COTES
10
0.001
20
79.997
40
1.0
1
128.4
0
TEXT
8
POINTS_COTES
10
0.001
20
90.001
40
1.0
1
129.2
0
TEXT
8
POINTS_COTES
10
0.001
20
100.004
40
1.0
1
129.9
0
TEXT
8
POINTS_COTES
10
0.001
20
109.997
40
1.0
1
130.6
0
TEXT
8
POINTS_COTES
10
0.001
20
120.001
40
1.0
1
131.2
0
TEXT
8
POINTS_COTES
10
0.001
20
130.005
40
1.0
1
131.5
0
TEXT
8
POINTS_COTES
10
0.001
20
139.998
40
1.0
1
131.7
0
TEXT
8
POINTS_COTES
10
0.001
20
150.002
40
1.0
1
132.0
0
TEXT
8
POINTS_COTES
10
0.001
20
159.994
40
1.0
1
132.2
0
TEXT
8
POINTS_COTES
10
0.001
20
169.998
40
1.0
1
131.9
0
TEXT
8
POINTS_COTES
10
0.001
20
180.002
40
1.0
1
131.8
0
TEXT
8
POINTS_COTES
10
0.001
20
189.995
40
1.0
1
131.9
0
ENDSEC
0
EOF
