0
SECTION
2
HEADER
0
ENDSEC
0
SECTION
2
TABLES
0
TABLE
2
LAYER
70
4
0
LAYER
2
CONTOURS_MINEURES
70
0
62
8
6
CONTINUOUS
0
LAYER
2
CONTOURS_MAJEURES
70
0
62
3
6
CONTINUOUS
0
LAYER
2
PARCELLE
70
0
62
4
6
CONTINUOUS
0
LAYER
2
POINTS_COTES
70
0
62
7
6
CONTINUOUS
0
ENDTAB
0
ENDSEC
0
SECTION
2
ENTITIES
0
POLYLINE
8
CONTOURS_MINEURES
66
1
70
0
0
VERTEX
8
CONTOURS_MINEURES
10
0.000
20
6.002
0
VERTEX
8
CONTOURS_MINEURES
10
2.003
20
6.002
0
VERTEX
8
CONTOURS_MINEURES
10
2.003
20
8.003
0
VERTEX
8
CONTOURS_MINEURES
10
2.003
20
10.004
0
VERTEX
8
CONTOURS_MINEURES
10
3.995
20
10.168
0
VERTEX
8
CONTOURS_MINEURES
10
5.834
20
10.168
0
VERTEX
8
CONTOURS_MINEURES
10
5.998
20
10.168
0
VERTEX
8
CONTOURS_MINEURES
10
7.535
20
10.470
0
VERTEX
8
CONTOURS_MINEURES
10
8.001
20
10.601
0
VERTEX
8
CONTOURS_MINEURES
10
8.599
20
10.601
0
VERTEX
8
CONTOURS_MINEURES
10
10.004
20
10.601
0
VERTEX
8
CONTOURS_MINEURES
10
11.143
20
10.861
0
VERTEX
8
CONTOURS_MINEURES
10
11.997
20
11.823
0
VERTEX
8
CONTOURS_MINEURES
10
12.179
20
11.823
0
VERTEX
8
CONTOURS_MINEURES
10
14.000
20
11.823
0
VERTEX
8
CONTOURS_MINEURES
10
14.250
20
12.005
0
VERTEX
8
CONTOURS_MINEURES
10
14.250
20
13.755
0
VERTEX
8
CONTOURS_MINEURES
10
14.250
20
14.005
0
VERTEX
8
CONTOURS_MINEURES
10
16.003
20
15.995
0
VERTEX
8
CONTOURS_MINEURES
10
17.995
20
15.995
0
VERTEX
8
CONTOURS_MINEURES
10
19.998
20
15.995
0
VERTEX
8
CONTOURS_MINEURES
10
19.998
20
17.996
0
VERTEX
8
CONTOURS_MINEURES
10
21.212
20
19.997
0
VERTEX
8
CONTOURS_MINEURES
10
21.212
20
20.785
0
VERTEX
8
CONTOURS_MINEURES
10
21.212
20
21.997
0
VERTEX
8
CONTOURS_MINEURES
10
21.212
20
23.210
0
VERTEX
8
CONTOURS_MINEURES
10
21.212
20
23.998
0
VERTEX
8
CONTOURS_MINEURES
10
22.001
20
24.999
0
VERTEX
8
CONTOURS_MINEURES
10
23.002
20
24.999
0
VERTEX
8
CONTOURS_MINEURES
10
24.004
20
24.999
0
VERTEX
8
CONTOURS_MINEURES
10
24.963
20
24.962
0
VERTEX
8
CONTOURS_MINEURES
10
25.996
20
24.248
0
VERTEX
8
CONTOURS_MINEURES
10
26.246
20
24.248
0
VERTEX
8
CONTOURS_MINEURES
10
27.999
20
24.248
0
VERTEX
8
CONTOURS_MINEURES
10
29.475
20
24.525
0
VERTEX
8
CONTOURS_MINEURES
10
30.002
20
24.908
0
VERTEX
8
CONTOURS_MINEURES
10
30.913
20
24.908
0
VERTEX
8
CONTOURS_MINEURES
10
32.005
20
24.908
0
VERTEX
8
CONTOURS_MINEURES
10
32.911
20
24.908
0
VERTEX
8
CONTOURS_MINEURES
10
33.997
20
24.908
0
VERTEX
8
CONTOURS_MINEURES
10
34.524
20
24.525
0
VERTEX
8
CONTOURS_MINEURES
10
36.000
20
24.132
0
VERTEX
8
CONTOURS_MINEURES
10
37.870
20
24.132
0
VERTEX
8
CONTOURS_MINEURES
10
38.003
20
24.132
0
VERTEX
8
CONTOURS_MINEURES
10
38.225
20
23.998
0
VERTEX
8
CONTOURS_MINEURES
10
38.225
20
23.776
0
VERTEX
8
CONTOURS_MINEURES
10
38.225
20
21.997
0
VERTEX
8
CONTOURS_MINEURES
10
38.225
20
20.219
0
VERTEX
8
CONTOURS_MINEURES
10
38.225
20
19.997
0
VERTEX
8
CONTOURS_MINEURES
10
39.996
20
18.996
0
VERTEX
8
CONTOURS_MINEURES
10
40.997
20
18.996
0
VERTEX
8
CONTOURS_MINEURES
10
41.999
20
18.996
0
VERTEX
8
CONTOURS_MINEURES
10
43.455
20
18.542
0
VERTEX
8
CONTOURS_MINEURES
10
44.002
20
18.312
0
VERTEX
8
CONTOURS_MINEURES
10
44.318
20
18.312
0
VERTEX
8
CONTOURS_MINEURES
10
46.005
20
18.312
0
VERTEX
8
CONTOURS_MINEURES
10
46.319
20
18.312
0
VERTEX
8
CONTOURS_MINEURES
10
47.997
20
18.312
0
VERTEX
8
CONTOURS_MINEURES
10
49.882
20
18.114
0
VERTEX
8
CONTOURS_MINEURES
10
50.000
20
18.096
0
VERTEX
8
CONTOURS_MINEURES
10
50.100
20
18.096
0
VERTEX
8
CONTOURS_MINEURES
10
52.003
20
18.096
0
VERTEX
8
CONTOURS_MINEURES
10
52.067
20
18.060
0
VERTEX
8
CONTOURS_MINEURES
10
52.145
20
17.996
0
VERTEX
8
CONTOURS_MINEURES
10
52.145
20
16.138
0
VERTEX
8
CONTOURS_MINEURES
10
52.145
20
15.995
0
VERTEX
8
CONTOURS_MINEURES
10
52.335
20
15.664
0
VERTEX
8
CONTOURS_MINEURES
10
53.089
20
14.005
0
VERTEX
8
CONTOURS_MINEURES
10
53.089
20
12.914
0
VERTEX
8
CONTOURS_MINEURES
10
53.089
20
12.005
0
VERTEX
8
CONTOURS_MINEURES
10
53.562
20
11.570
0
VERTEX
8
CONTOURS_MINEURES
10
53.995
20
11.528
0
VERTEX
8
CONTOURS_MINEURES
10
54.472
20
11.528
0
VERTEX
8
CONTOURS_MINEURES
10
55.998
20
11.528
0
VERTEX
8
CONTOURS_MINEURES
10
57.391
20
11.396
0
VERTEX
8
CONTOURS_MINEURES
10
58.001
20
11.304
0
VERTEX
8
CONTOURS_MINEURES
10
59.303
20
11.304
0
VERTEX
8
CONTOURS_MINEURES
10
60.004
20
11.304
0
VERTEX
8
CONTOURS_MINEURES
10
60.701
20
11.304
0
VERTEX
8
CONTOURS_MINEURES
10
61.996
20
11.304
0
VERTEX
8
CONTOURS_MINEURES
10
62.397
20
11.604
0
VERTEX
8
CONTOURS_MINEURES
10
62.821
20
12.005
0
VERTEX
8
CONTOURS_MINEURES
10
62.821
20
13.182
0
VERTEX
8
CONTOURS_MINEURES
10
62.821
20
14.005
0
VERTEX
8
CONTOURS_MINEURES
10
63.999
20
14.529
0
VERTEX
8
CONTOURS_MINEURES
10
65.475
20
14.529
0
VERTEX
8
CONTOURS_MINEURES
10
66.002
20
14.529
0
VERTEX
8
CONTOURS_MINEURES
10
66.892
20
15.111
0
VERTEX
8
CONTOURS_MINEURES
10
68.005
20
15.272
0
VERTEX
8
CONTOURS_MINEURES
10
68.730
20
15.272
0
VERTEX
8
CONTOURS_MINEURES
10
69.997
20
15.272
0
VERTEX
8
CONTOURS_MINEURES
10
71.052
20
15.995
0
VERTEX
8
CONTOURS_MINEURES
10
71.052
20
17.048
0
VERTEX
8
CONTOURS_MINEURES
10
71.052
20
17.996
0
VERTEX
8
CONTOURS_MINEURES
10
72.000
20
18.746
0
SEQEND
0
POLYLINE
8
CONTOURS_MINEURES
66
1
70
0
0
VERTEX
8
CONTOURS_MINEURES
10
0.000
20
15.357
0
VERTEX
8
CONTOURS_MINEURES
10
1.361
20
15.357
0
VERTEX
8
CONTOURS_MINEURES
10
2.003
20
15.357
0
VERTEX
8
CONTOURS_MINEURES
10
2.558
20
15.441
0
VERTEX
8
CONTOURS_MINEURES
10
3.786
20
15.995
0
VERTEX
8
CONTOURS_MINEURES
10
3.786
20
17.785
0
VERTEX
8
CONTOURS_MINEURES
10
3.786
20
17.996
0
VERTEX
8
CONTOURS_MINEURES
10
3.924
20
18.067
0
VERTEX
8
CONTOURS_MINEURES
10
3.995
20
18.263
0
VERTEX
8
CONTOURS_MINEURES
10
4.262
20
18.263
0
VERTEX
8
CONTOURS_MINEURES
10
5.998
20
18.263
0
VERTEX
8
CONTOURS_MINEURES
10
6.812
20
19.184
0
VERTEX
8
CONTOURS_MINEURES
10
7.000
20
19.997
0
VERTEX
8
CONTOURS_MINEURES
10
7.000
20
20.997
0
VERTEX
8
CONTOURS_MINEURES
10
7.000
20
21.997
0
VERTEX
8
CONTOURS_MINEURES
10
7.000
20
22.998
0
VERTEX
8
CONTOURS_MINEURES
10
7.000
20
23.998
0
VERTEX
8
CONTOURS_MINEURES
10
7.501
20
24.498
0
VERTEX
8
CONTOURS_MINEURES
10
8.001
20
24.665
0
VERTEX
8
CONTOURS_MINEURES
10
8.669
20
24.665
0
VERTEX
8
CONTOURS_MINEURES
10
10.004
20
24.665
0
VERTEX
8
CONTOURS_MINEURES
10
10.840
20
24.837
0
VERTEX
8
CONTOURS_MINEURES
10
11.997
20
25.389
0
VERTEX
8
CONTOURS_MINEURES
10
12.608
20
25.389
0
VERTEX
8
CONTOURS_MINEURES
10
14.000
20
25.389
0
VERTEX
8
CONTOURS_MINEURES
10
14.632
20
25.999
0
VERTEX
8
CONTOURS_MINEURES
10
14.632
20
27.368
0
VERTEX
8
CONTOURS_MINEURES
10
14.632
20
28.000
0
VERTEX
8
CONTOURS_MINEURES
10
16.003
20
28.500
0
VERTEX
8
CONTOURS_MINEURES
10
16.501
20
28.500
0
VERTEX
8
CONTOURS_MINEURES
10
17.995
20
28.500
0
VERTEX
8
CONTOURS_MINEURES
10
19.497
20
28.500
0
VERTEX
8
CONTOURS_MINEURES
10
19.998
20
28.500
0
VERTEX
8
CONTOURS_MINEURES
10
21.147
20
28.853
0
VERTEX
8
CONTOURS_MINEURES
10
22.001
20
29.658
0
VERTEX
8
CONTOURS_MINEURES
10
23.660
20
29.658
0
VERTEX
8
CONTOURS_MINEURES
10
24.004
20
29.658
0
VERTEX
8
CONTOURS_MINEURES
10
24.349
20
29.654
0
VERTEX
8
CONTOURS_MINEURES
10
24.602
20
30.001
0
VERTEX
8
CONTOURS_MINEURES
10
24.602
20
30.601
0
VERTEX
8
CONTOURS_MINEURES
10
24.602
20
32.001
0
VERTEX
8
CONTOURS_MINEURES
10
25.996
20
32.643
0
VERTEX
8
CONTOURS_MINEURES
10
26.638
20
32.643
0
VERTEX
8
CONTOURS_MINEURES
10
27.999
20
32.643
0
VERTEX
8
CONTOURS_MINEURES
10
29.188
20
32.815
0
VERTEX
8
CONTOURS_MINEURES
10
30.002
20
33.357
0
VERTEX
8
CONTOURS_MINEURES
10
31.360
20
33.357
0
VERTEX
8
CONTOURS_MINEURES
10
32.005
20
33.357
0
VERTEX
8
CONTOURS_MINEURES
10
32.647
20
33.357
0
VERTEX
8
CONTOURS_MINEURES
10
33.997
20
33.357
0
VERTEX
8
CONTOURS_MINEURES
10
35.937
20
33.939
0
VERTEX
8
CONTOURS_MINEURES
10
36.000
20
33.933
0
VERTEX
8
CONTOURS_MINEURES
10
37.934
20
33.933
0
VERTEX
8
CONTOURS_MINEURES
10
38.003
20
33.933
0
VERTEX
8
CONTOURS_MINEURES
10
38.157
20
34.002
0
VERTEX
8
CONTOURS_MINEURES
10
38.157
20
35.849
0
VERTEX
8
CONTOURS_MINEURES
10
38.157
20
36.003
0
VERTEX
8
CONTOURS_MINEURES
10
38.157
20
37.850
0
VERTEX
8
CONTOURS_MINEURES
10
38.157
20
38.004
0
VERTEX
8
CONTOURS_MINEURES
10
39.707
20
38.293
0
VERTEX
8
CONTOURS_MINEURES
10
39.996
20
38.317
0
VERTEX
8
CONTOURS_MINEURES
10
40.310
20
38.317
0
VERTEX
8
CONTOURS_MINEURES
10
41.999
20
38.317
0
VERTEX
8
CONTOURS_MINEURES
10
43.501
20
38.004
0
VERTEX
8
CONTOURS_MINEURES
10
43.501
20
36.503
0
VERTEX
8
CONTOURS_MINEURES
10
43.501
20
36.003
0
VERTEX
8
CONTOURS_MINEURES
10
43.501
20
34.502
0
VERTEX
8
CONTOURS_MINEURES
10
43.501
20
34.002
0
VERTEX
8
CONTOURS_MINEURES
10
43.788
20
33.789
0
VERTEX
8
CONTOURS_MINEURES
10
44.002
20
33.780
0
VERTEX
8
CONTOURS_MINEURES
10
45.782
20
33.780
0
VERTEX
8
CONTOURS_MINEURES
10
46.005
20
33.780
0
VERTEX
8
CONTOURS_MINEURES
10
46.226
20
33.780
0
VERTEX
8
CONTOURS_MINEURES
10
47.997
20
33.780
0
VERTEX
8
CONTOURS_MINEURES
10
48.569
20
33.430
0
VERTEX
8
CONTOURS_MINEURES
10
50.000
20
32.319
0
VERTEX
8
CONTOURS_MINEURES
10
51.685
20
32.319
0
VERTEX
8
CONTOURS_MINEURES
10
52.003
20
32.319
0
VERTEX
8
CONTOURS_MINEURES
10
52.208
20
32.208
0
VERTEX
8
CONTOURS_MINEURES
10
52.800
20
32.001
0
VERTEX
8
CONTOURS_MINEURES
10
52.800
20
31.201
0
VERTEX
8
CONTOURS_MINEURES
10
52.800
20
30.001
0
VERTEX
8
CONTOURS_MINEURES
10
53.359
20
29.362
0
VERTEX
8
CONTOURS_MINEURES
10
53.995
20
29.286
0
VERTEX
8
CONTOURS_MINEURES
10
54.710
20
29.286
0
VERTEX
8
CONTOURS_MINEURES
10
55.998
20
29.286
0
VERTEX
8
CONTOURS_MINEURES
10
56.722
20
29.277
0
VERTEX
8
CONTOURS_MINEURES
10
58.001
20
29.128
0
VERTEX
8
CONTOURS_MINEURES
10
59.130
20
29.128
0
VERTEX
8
CONTOURS_MINEURES
10
60.004
20
29.128
0
VERTEX
8
CONTOURS_MINEURES
10
61.127
20
29.128
0
VERTEX
8
CONTOURS_MINEURES
10
61.996
20
29.128
0
VERTEX
8
CONTOURS_MINEURES
10
62.909
20
29.089
0
VERTEX
8
CONTOURS_MINEURES
10
63.999
20
29.750
0
VERTEX
8
CONTOURS_MINEURES
10
65.752
20
29.750
0
VERTEX
8
CONTOURS_MINEURES
10
66.002
20
29.750
0
VERTEX
8
CONTOURS_MINEURES
10
66.328
20
29.675
0
VERTEX
8
CONTOURS_MINEURES
10
66.503
20
30.001
0
VERTEX
8
CONTOURS_MINEURES
10
66.503
20
30.501
0
VERTEX
8
CONTOURS_MINEURES
10
66.503
20
32.001
0
VERTEX
8
CONTOURS_MINEURES
10
67.786
20
32.220
0
VERTEX
8
CONTOURS_MINEURES
10
68.005
20
32.458
0
VERTEX
8
CONTOURS_MINEURES
10
68.460
20
32.458
0
VERTEX
8
CONTOURS_MINEURES
10
69.997
20
32.458
0
VERTEX
8
CONTOURS_MINEURES
10
71.753
20
34.002
0
VERTEX
8
CONTOURS_MINEURES
10
71.753
20
35.756
0
VERTEX
8
CONTOURS_MINEURES
10
71.753
20
36.003
0
VERTEX
8
CONTOURS_MINEURES
10
71.753
20
36.250
0
VERTEX
8
CONTOURS_MINEURES
10
71.753
20
38.004
0
VERTEX
8
CONTOURS_MINEURES
10
71.944
20
38.060
0
VERTEX
8
CONTOURS_MINEURES
10
72.000
20
38.147
0
SEQEND
0
POLYLINE
8
CONTOURS_MINEURES
66
1
70
0
0
VERTEX
8
CONTOURS_MINEURES
10
0.000
20
28.419
0
VERTEX
8
CONTOURS_MINEURES
10
1.583
20
28.419
0
VERTEX
8
CONTOURS_MINEURES
10
2.003
20
28.419
0
VERTEX
8
CONTOURS_MINEURES
10
2.891
20
29.109
0
VERTEX
8
CONTOURS_MINEURES
10
3.995
20
29.162
0
VERTEX
8
CONTOURS_MINEURES
10
5.159
20
29.162
0
VERTEX
8
CONTOURS_MINEURES
10
5.998
20
29.162
0
VERTEX
8
CONTOURS_MINEURES
10
6.841
20
28.841
0
VERTEX
8
CONTOURS_MINEURES
10
8.001
20
28.937
0
VERTEX
8
CONTOURS_MINEURES
10
8.940
20
28.937
0
VERTEX
8
CONTOURS_MINEURES
10
10.004
20
28.937
0
VERTEX
8
CONTOURS_MINEURES
10
11.013
20
28.988
0
VERTEX
8
CONTOURS_MINEURES
10
11.997
20
28.994
0
VERTEX
8
CONTOURS_MINEURES
10
13.004
20
28.994
0
VERTEX
8
CONTOURS_MINEURES
10
14.000
20
28.994
0
VERTEX
8
CONTOURS_MINEURES
10
15.659
20
29.657
0
VERTEX
8
CONTOURS_MINEURES
10
16.003
20
29.783
0
VERTEX
8
CONTOURS_MINEURES
10
17.778
20
29.783
0
VERTEX
8
CONTOURS_MINEURES
10
17.995
20
29.783
0
VERTEX
8
CONTOURS_MINEURES
10
18.213
20
29.783
0
VERTEX
8
CONTOURS_MINEURES
10
19.998
20
29.783
0
VERTEX
8
CONTOURS_MINEURES
10
20.165
20
29.834
0
VERTEX
8
CONTOURS_MINEURES
10
20.342
20
30.001
0
VERTEX
8
CONTOURS_MINEURES
10
20.342
20
30.344
0
VERTEX
8
CONTOURS_MINEURES
10
20.342
20
32.001
0
VERTEX
8
CONTOURS_MINEURES
10
22.001
20
32.908
0
VERTEX
8
CONTOURS_MINEURES
10
23.096
20
32.908
0
VERTEX
8
CONTOURS_MINEURES
10
24.004
20
32.908
0
VERTEX
8
CONTOURS_MINEURES
10
25.797
20
34.002
0
VERTEX
8
CONTOURS_MINEURES
10
25.797
20
34.202
0
VERTEX
8
CONTOURS_MINEURES
10
25.797
20
36.003
0
VERTEX
8
CONTOURS_MINEURES
10
25.797
20
36.203
0
VERTEX
8
CONTOURS_MINEURES
10
25.797
20
38.004
0
VERTEX
8
CONTOURS_MINEURES
10
25.920
20
38.080
0
VERTEX
8
CONTOURS_MINEURES
10
25.996
20
38.140
0
VERTEX
8
CONTOURS_MINEURES
10
26.132
20
38.140
0
VERTEX
8
CONTOURS_MINEURES
10
27.999
20
38.140
0
VERTEX
8
CONTOURS_MINEURES
10
29.361
20
38.644
0
VERTEX
8
CONTOURS_MINEURES
10
30.002
20
38.914
0
VERTEX
8
CONTOURS_MINEURES
10
31.093
20
38.914
0
VERTEX
8
CONTOURS_MINEURES
10
32.005
20
38.914
0
VERTEX
8
CONTOURS_MINEURES
10
32.912
20
38.914
0
VERTEX
8
CONTOURS_MINEURES
10
33.997
20
38.914
0
VERTEX
8
CONTOURS_MINEURES
10
34.928
20
39.075
0
VERTEX
8
CONTOURS_MINEURES
10
36.000
20
39.404
0
VERTEX
8
CONTOURS_MINEURES
10
37.402
20
39.404
0
VERTEX
8
CONTOURS_MINEURES
10
38.003
20
39.404
0
VERTEX
8
CONTOURS_MINEURES
10
38.507
20
39.498
0
VERTEX
8
CONTOURS_MINEURES
10
39.996
20
39.625
0
VERTEX
8
CONTOURS_MINEURES
10
41.619
20
39.625
0
VERTEX
8
CONTOURS_MINEURES
10
41.999
20
39.625
0
VERTEX
8
CONTOURS_MINEURES
10
42.479
20
39.525
0
VERTEX
8
CONTOURS_MINEURES
10
44.002
20
39.106
0
VERTEX
8
CONTOURS_MINEURES
10
44.901
20
39.106
0
VERTEX
8
CONTOURS_MINEURES
10
46.005
20
39.106
0
VERTEX
8
CONTOURS_MINEURES
10
47.102
20
39.106
0
VERTEX
8
CONTOURS_MINEURES
10
47.997
20
39.106
0
VERTEX
8
CONTOURS_MINEURES
10
49.877
20
38.004
0
VERTEX
8
CONTOURS_MINEURES
10
49.877
20
37.881
0
VERTEX
8
CONTOURS_MINEURES
10
49.877
20
36.003
0
VERTEX
8
CONTOURS_MINEURES
10
49.877
20
34.125
0
VERTEX
8
CONTOURS_MINEURES
10
49.877
20
34.002
0
VERTEX
8
CONTOURS_MINEURES
10
50.000
20
33.907
0
VERTEX
8
CONTOURS_MINEURES
10
50.095
20
33.907
0
VERTEX
8
CONTOURS_MINEURES
10
52.003
20
33.907
0
VERTEX
8
CONTOURS_MINEURES
10
53.235
20
33.239
0
VERTEX
8
CONTOURS_MINEURES
10
53.995
20
32.974
0
VERTEX
8
CONTOURS_MINEURES
10
55.024
20
32.974
0
VERTEX
8
CONTOURS_MINEURES
10
55.998
20
32.974
0
VERTEX
8
CONTOURS_MINEURES
10
56.773
20
32.775
0
VERTEX
8
CONTOURS_MINEURES
10
58.001
20
32.696
0
VERTEX
8
CONTOURS_MINEURES
10
58.696
20
32.696
0
VERTEX
8
CONTOURS_MINEURES
10
60.004
20
32.696
0
VERTEX
8
CONTOURS_MINEURES
10
60.695
20
32.696
0
VERTEX
8
CONTOURS_MINEURES
10
61.996
20
32.696
0
VERTEX
8
CONTOURS_MINEURES
10
63.086
20
32.913
0
VERTEX
8
CONTOURS_MINEURES
10
63.999
20
33.136
0
VERTEX
8
CONTOURS_MINEURES
10
65.135
20
33.136
0
VERTEX
8
CONTOURS_MINEURES
10
66.002
20
33.136
0
VERTEX
8
CONTOURS_MINEURES
10
66.743
20
33.262
0
VERTEX
8
CONTOURS_MINEURES
10
67.424
20
34.002
0
VERTEX
8
CONTOURS_MINEURES
10
67.424
20
34.582
0
VERTEX
8
CONTOURS_MINEURES
10
67.424
20
36.003
0
VERTEX
8
CONTOURS_MINEURES
10
67.424
20
37.423
0
VERTEX
8
CONTOURS_MINEURES
10
67.424
20
38.004
0
VERTEX
8
CONTOURS_MINEURES
10
67.862
20
38.147
0
VERTEX
8
CONTOURS_MINEURES
10
68.005
20
38.214
0
VERTEX
8
CONTOURS_MINEURES
10
68.215
20
38.214
0
VERTEX
8
CONTOURS_MINEURES
10
69.997
20
38.214
0
VERTEX
8
CONTOURS_MINEURES
10
71.383
20
38.620
0
VERTEX
8
CONTOURS_MINEURES
10
72.000
20
39.576
0
SEQEND
0
POLYLINE
8
CONTOURS_MINEURES
66
1
70
0
0
VERTEX
8
CONTOURS_MINEURES
10
0.000
20
32.881
0
VERTEX
8
CONTOURS_MINEURES
10
1.123
20
32.881
0
VERTEX
8
CONTOURS_MINEURES
10
2.003
20
32.881
0
VERTEX
8
CONTOURS_MINEURES
10
2.690
20
32.691
0
VERTEX
8
CONTOURS_MINEURES
10
3.995
20
32.734
0
VERTEX
8
CONTOURS_MINEURES
10
4.729
20
32.734
0
VERTEX
8
CONTOURS_MINEURES
10
5.998
20
32.734
0
VERTEX
8
CONTOURS_MINEURES
10
7.718
20
32.285
0
VERTEX
8
CONTOURS_MINEURES
10
8.001
20
32.211
0
VERTEX
8
CONTOURS_MINEURES
10
9.795
20
32.211
0
VERTEX
8
CONTOURS_MINEURES
10
10.004
20
32.211
0
VERTEX
8
CONTOURS_MINEURES
10
11.777
20
32.222
0
VERTEX
8
CONTOURS_MINEURES
10
11.997
20
32.198
0
VERTEX
8
CONTOURS_MINEURES
10
12.193
20
32.198
0
VERTEX
8
CONTOURS_MINEURES
10
14.000
20
32.198
0
VERTEX
8
CONTOURS_MINEURES
10
15.307
20
32.696
0
VERTEX
8
CONTOURS_MINEURES
10
16.003
20
32.811
0
VERTEX
8
CONTOURS_MINEURES
10
16.809
20
32.811
0
VERTEX
8
CONTOURS_MINEURES
10
17.995
20
32.811
0
VERTEX
8
CONTOURS_MINEURES
10
19.187
20
32.811
0
VERTEX
8
CONTOURS_MINEURES
10
19.998
20
32.811
0
VERTEX
8
CONTOURS_MINEURES
10
21.985
20
34.002
0
VERTEX
8
CONTOURS_MINEURES
10
21.985
20
34.018
0
VERTEX
8
CONTOURS_MINEURES
10
21.985
20
36.003
0
VERTEX
8
CONTOURS_MINEURES
10
21.985
20
37.987
0
VERTEX
8
CONTOURS_MINEURES
10
21.985
20
38.004
0
VERTEX
8
CONTOURS_MINEURES
10
21.994
20
38.011
0
VERTEX
8
CONTOURS_MINEURES
10
22.001
20
38.015
0
VERTEX
8
CONTOURS_MINEURES
10
22.012
20
38.015
0
VERTEX
8
CONTOURS_MINEURES
10
24.004
20
38.015
0
VERTEX
8
CONTOURS_MINEURES
10
25.231
20
38.772
0
VERTEX
8
CONTOURS_MINEURES
10
25.996
20
39.375
0
VERTEX
8
CONTOURS_MINEURES
10
27.368
20
39.375
0
VERTEX
8
CONTOURS_MINEURES
10
27.999
20
39.375
0
VERTEX
8
CONTOURS_MINEURES
10
28.459
20
39.545
0
VERTEX
8
CONTOURS_MINEURES
10
29.547
20
40.004
0
VERTEX
8
CONTOURS_MINEURES
10
29.547
20
41.550
0
VERTEX
8
CONTOURS_MINEURES
10
29.547
20
42.005
0
VERTEX
8
CONTOURS_MINEURES
10
30.002
20
42.197
0
VERTEX
8
CONTOURS_MINEURES
10
30.195
20
42.197
0
VERTEX
8
CONTOURS_MINEURES
10
32.005
20
42.197
0
VERTEX
8
CONTOURS_MINEURES
10
32.197
20
42.197
0
VERTEX
8
CONTOURS_MINEURES
10
33.997
20
42.197
0
VERTEX
8
CONTOURS_MINEURES
10
35.417
20
42.585
0
VERTEX
8
CONTOURS_MINEURES
10
36.000
20
42.769
0
VERTEX
8
CONTOURS_MINEURES
10
36.770
20
42.769
0
VERTEX
8
CONTOURS_MINEURES
10
38.003
20
42.769
0
VERTEX
8
CONTOURS_MINEURES
10
39.133
20
42.867
0
VERTEX
8
CONTOURS_MINEURES
10
39.996
20
42.856
0
VERTEX
8
CONTOURS_MINEURES
10
41.142
20
42.856
0
VERTEX
8
CONTOURS_MINEURES
10
41.999
20
42.856
0
VERTEX
8
CONTOURS_MINEURES
10
42.642
20
42.644
0
VERTEX
8
CONTOURS_MINEURES
10
44.002
20
42.289
0
VERTEX
8
CONTOURS_MINEURES
10
45.718
20
42.289
0
VERTEX
8
CONTOURS_MINEURES
10
46.005
20
42.289
0
VERTEX
8
CONTOURS_MINEURES
10
46.289
20
42.289
0
VERTEX
8
CONTOURS_MINEURES
10
47.997
20
42.289
0
VERTEX
8
CONTOURS_MINEURES
10
48.228
20
42.234
0
VERTEX
8
CONTOURS_MINEURES
10
48.683
20
42.005
0
VERTEX
8
CONTOURS_MINEURES
10
48.683
20
41.320
0
VERTEX
8
CONTOURS_MINEURES
10
48.683
20
40.004
0
VERTEX
8
CONTOURS_MINEURES
10
50.000
20
39.328
0
VERTEX
8
CONTOURS_MINEURES
10
51.326
20
39.328
0
VERTEX
8
CONTOURS_MINEURES
10
52.003
20
39.328
0
VERTEX
8
CONTOURS_MINEURES
10
53.295
20
38.707
0
VERTEX
8
CONTOURS_MINEURES
10
53.995
20
38.333
0
VERTEX
8
CONTOURS_MINEURES
10
55.668
20
38.333
0
VERTEX
8
CONTOURS_MINEURES
10
55.998
20
38.333
0
VERTEX
8
CONTOURS_MINEURES
10
56.176
20
38.181
0
VERTEX
8
CONTOURS_MINEURES
10
57.405
20
38.004
0
VERTEX
8
CONTOURS_MINEURES
10
57.405
20
36.598
0
VERTEX
8
CONTOURS_MINEURES
10
57.405
20
36.003
0
VERTEX
8
CONTOURS_MINEURES
10
57.405
20
35.408
0
VERTEX
8
CONTOURS_MINEURES
10
57.405
20
34.002
0
VERTEX
8
CONTOURS_MINEURES
10
57.879
20
33.881
0
VERTEX
8
CONTOURS_MINEURES
10
58.001
20
33.873
0
VERTEX
8
CONTOURS_MINEURES
10
59.874
20
33.873
0
VERTEX
8
CONTOURS_MINEURES
10
60.004
20
33.873
0
VERTEX
8
CONTOURS_MINEURES
10
61.867
20
33.873
0
VERTEX
8
CONTOURS_MINEURES
10
61.996
20
33.873
0
VERTEX
8
CONTOURS_MINEURES
10
62.104
20
33.894
0
VERTEX
8
CONTOURS_MINEURES
10
62.547
20
34.002
0
VERTEX
8
CONTOURS_MINEURES
10
62.547
20
34.552
0
VERTEX
8
CONTOURS_MINEURES
10
62.547
20
36.003
0
VERTEX
8
CONTOURS_MINEURES
10
62.547
20
36.553
0
VERTEX
8
CONTOURS_MINEURES
10
62.547
20
38.004
0
VERTEX
8
CONTOURS_MINEURES
10
63.803
20
38.200
0
VERTEX
8
CONTOURS_MINEURES
10
63.999
20
38.194
0
VERTEX
8
CONTOURS_MINEURES
10
64.190
20
38.194
0
VERTEX
8
CONTOURS_MINEURES
10
66.002
20
38.194
0
VERTEX
8
CONTOURS_MINEURES
10
67.367
20
38.641
0
VERTEX
8
CONTOURS_MINEURES
10
68.005
20
38.939
0
VERTEX
8
CONTOURS_MINEURES
10
68.936
20
38.939
0
VERTEX
8
CONTOURS_MINEURES
10
69.997
20
38.939
0
VERTEX
8
CONTOURS_MINEURES
10
70.822
20
39.181
0
VERTEX
8
CONTOURS_MINEURES
10
71.354
20
40.004
0
VERTEX
8
CONTOURS_MINEURES
10
71.354
20
41.360
0
VERTEX
8
CONTOURS_MINEURES
10
71.354
20
42.005
0
VERTEX
8
CONTOURS_MINEURES
10
71.730
20
42.274
0
VERTEX
8
CONTOURS_MINEURES
10
72.000
20
42.627
0
SEQEND
0
POLYLINE
8
CONTOURS_MINEURES
66
1
70
0
0
VERTEX
8
CONTOURS_MINEURES
10
0.000
20
38.629
0
VERTEX
8
CONTOURS_MINEURES
10
1.377
20
38.629
0
VERTEX
8
CONTOURS_MINEURES
10
2.003
20
38.629
0
VERTEX
8
CONTOURS_MINEURES
10
2.494
20
38.497
0
VERTEX
8
CONTOURS_MINEURES
10
3.995
20
38.058
0
VERTEX
8
CONTOURS_MINEURES
10
4.050
20
38.058
0
VERTEX
8
CONTOURS_MINEURES
10
5.998
20
38.058
0
VERTEX
8
CONTOURS_MINEURES
10
6.149
20
38.004
0
VERTEX
8
CONTOURS_MINEURES
10
6.149
20
36.153
0
VERTEX
8
CONTOURS_MINEURES
10
6.149
20
36.003
0
VERTEX
8
CONTOURS_MINEURES
10
6.149
20
34.152
0
VERTEX
8
CONTOURS_MINEURES
10
6.149
20
34.002
0
VERTEX
8
CONTOURS_MINEURES
10
8.001
20
33.518
0
VERTEX
8
CONTOURS_MINEURES
10
8.486
20
33.518
0
VERTEX
8
CONTOURS_MINEURES
10
10.004
20
33.518
0
VERTEX
8
CONTOURS_MINEURES
10
10.483
20
33.521
0
VERTEX
8
CONTOURS_MINEURES
10
11.997
20
33.354
0
VERTEX
8
CONTOURS_MINEURES
10
13.351
20
33.354
0
VERTEX
8
CONTOURS_MINEURES
10
14.000
20
33.354
0
VERTEX
8
CONTOURS_MINEURES
10
14.469
20
33.533
0
VERTEX
8
CONTOURS_MINEURES
10
16.003
20
33.787
0
VERTEX
8
CONTOURS_MINEURES
10
17.781
20
33.787
0
VERTEX
8
CONTOURS_MINEURES
10
17.995
20
33.787
0
VERTEX
8
CONTOURS_MINEURES
10
18.210
20
33.787
0
VERTEX
8
CONTOURS_MINEURES
10
19.998
20
33.787
0
VERTEX
8
CONTOURS_MINEURES
10
20.356
20
34.002
0
VERTEX
8
CONTOURS_MINEURES
10
20.356
20
35.645
0
VERTEX
8
CONTOURS_MINEURES
10
20.356
20
36.003
0
VERTEX
8
CONTOURS_MINEURES
10
20.356
20
36.361
0
VERTEX
8
CONTOURS_MINEURES
10
20.356
20
38.004
0
VERTEX
8
CONTOURS_MINEURES
10
21.271
20
38.733
0
VERTEX
8
CONTOURS_MINEURES
10
22.001
20
39.133
0
VERTEX
8
CONTOURS_MINEURES
10
23.131
20
39.133
0
VERTEX
8
CONTOURS_MINEURES
10
24.004
20
39.133
0
VERTEX
8
CONTOURS_MINEURES
10
24.542
20
39.464
0
VERTEX
8
CONTOURS_MINEURES
10
25.227
20
40.004
0
VERTEX
8
CONTOURS_MINEURES
10
25.227
20
41.233
0
VERTEX
8
CONTOURS_MINEURES
10
25.227
20
42.005
0
VERTEX
8
CONTOURS_MINEURES
10
25.996
20
42.586
0
VERTEX
8
CONTOURS_MINEURES
10
27.415
20
42.586
0
VERTEX
8
CONTOURS_MINEURES
10
27.999
20
42.586
0
VERTEX
8
CONTOURS_MINEURES
10
29.090
20
43.088
0
VERTEX
8
CONTOURS_MINEURES
10
30.002
20
43.472
0
VERTEX
8
CONTOURS_MINEURES
10
31.479
20
43.472
0
VERTEX
8
CONTOURS_MINEURES
10
32.005
20
43.472
0
VERTEX
8
CONTOURS_MINEURES
10
33.474
20
43.472
0
VERTEX
8
CONTOURS_MINEURES
10
33.997
20
43.472
0
VERTEX
8
CONTOURS_MINEURES
10
34.410
20
43.585
0
VERTEX
8
CONTOURS_MINEURES
10
35.708
20
43.995
0
VERTEX
8
CONTOURS_MINEURES
10
35.708
20
45.704
0
VERTEX
8
CONTOURS_MINEURES
10
35.708
20
45.996
0
VERTEX
8
CONTOURS_MINEURES
10
35.708
20
46.287
0
VERTEX
8
CONTOURS_MINEURES
10
35.708
20
47.996
0
VERTEX
8
CONTOURS_MINEURES
10
35.919
20
48.078
0
VERTEX
8
CONTOURS_MINEURES
10
36.000
20
48.101
0
VERTEX
8
CONTOURS_MINEURES
10
36.105
20
48.101
0
VERTEX
8
CONTOURS_MINEURES
10
38.003
20
48.101
0
VERTEX
8
CONTOURS_MINEURES
10
38.102
20
48.095
0
VERTEX
8
CONTOURS_MINEURES
10
39.996
20
48.068
0
VERTEX
8
CONTOURS_MINEURES
10
41.927
20
48.068
0
VERTEX
8
CONTOURS_MINEURES
10
41.999
20
48.068
0
VERTEX
8
CONTOURS_MINEURES
10
42.049
20
48.047
0
VERTEX
8
CONTOURS_MINEURES
10
42.181
20
47.996
0
VERTEX
8
CONTOURS_MINEURES
10
42.181
20
47.815
0
VERTEX
8
CONTOURS_MINEURES
10
42.181
20
45.996
0
VERTEX
8
CONTOURS_MINEURES
10
42.181
20
45.814
0
VERTEX
8
CONTOURS_MINEURES
10
42.181
20
43.995
0
VERTEX
8
CONTOURS_MINEURES
10
43.548
20
43.545
0
VERTEX
8
CONTOURS_MINEURES
10
44.002
20
43.426
0
VERTEX
8
CONTOURS_MINEURES
10
44.574
20
43.426
0
VERTEX
8
CONTOURS_MINEURES
10
46.005
20
43.426
0
VERTEX
8
CONTOURS_MINEURES
10
47.428
20
43.426
0
VERTEX
8
CONTOURS_MINEURES
10
47.997
20
43.426
0
VERTEX
8
CONTOURS_MINEURES
10
49.151
20
43.151
0
VERTEX
8
CONTOURS_MINEURES
10
50.000
20
42.724
0
VERTEX
8
CONTOURS_MINEURES
10
51.279
20
42.724
0
VERTEX
8
CONTOURS_MINEURES
10
52.003
20
42.724
0
VERTEX
8
CONTOURS_MINEURES
10
52.449
20
42.451
0
VERTEX
8
CONTOURS_MINEURES
10
53.236
20
42.005
0
VERTEX
8
CONTOURS_MINEURES
10
53.236
20
40.767
0
VERTEX
8
CONTOURS_MINEURES
10
53.236
20
40.004
0
VERTEX
8
CONTOURS_MINEURES
10
53.995
20
39.599
0
VERTEX
8
CONTOURS_MINEURES
10
54.401
20
39.599
0
VERTEX
8
CONTOURS_MINEURES
10
55.998
20
39.599
0
VERTEX
8
CONTOURS_MINEURES
10
56.859
20
38.864
0
VERTEX
8
CONTOURS_MINEURES
10
58.001
20
38.699
0
VERTEX
8
CONTOURS_MINEURES
10
59.308
20
38.699
0
VERTEX
8
CONTOURS_MINEURES
10
60.004
20
38.699
0
VERTEX
8
CONTOURS_MINEURES
10
60.697
20
38.699
0
VERTEX
8
CONTOURS_MINEURES
10
61.996
20
38.699
0
VERTEX
8
CONTOURS_MINEURES
10
63.126
20
38.876
0
VERTEX
8
CONTOURS_MINEURES
10
63.999
20
38.850
0
VERTEX
8
CONTOURS_MINEURES
10
64.846
20
38.850
0
VERTEX
8
CONTOURS_MINEURES
10
66.002
20
38.850
0
VERTEX
8
CONTOURS_MINEURES
10
66.873
20
39.135
0
VERTEX
8
CONTOURS_MINEURES
10
68.005
20
39.664
0
VERTEX
8
CONTOURS_MINEURES
10
69.658
20
39.664
0
VERTEX
8
CONTOURS_MINEURES
10
69.997
20
39.664
0
VERTEX
8
CONTOURS_MINEURES
10
70.261
20
39.741
0
VERTEX
8
CONTOURS_MINEURES
10
70.431
20
40.004
0
VERTEX
8
CONTOURS_MINEURES
10
70.431
20
40.438
0
VERTEX
8
CONTOURS_MINEURES
10
70.431
20
42.005
0
VERTEX
8
CONTOURS_MINEURES
10
71.344
20
42.657
0
VERTEX
8
CONTOURS_MINEURES
10
72.000
20
43.515
0
SEQEND
0
POLYLINE
8
CONTOURS_MINEURES
66
1
70
0
0
VERTEX
8
CONTOURS_MINEURES
10
0.000
20
42.550
0
VERTEX
8
CONTOURS_MINEURES
10
0.549
20
42.550
0
VERTEX
8
CONTOURS_MINEURES
10
2.003
20
42.550
0
VERTEX
8
CONTOURS_MINEURES
10
3.531
20
42.005
0
VERTEX
8
CONTOURS_MINEURES
10
3.531
20
40.471
0
VERTEX
8
CONTOURS_MINEURES
10
3.531
20
40.004
0
VERTEX
8
CONTOURS_MINEURES
10
3.897
20
39.906
0
VERTEX
8
CONTOURS_MINEURES
10
3.995
20
39.877
0
VERTEX
8
CONTOURS_MINEURES
10
5.871
20
39.877
0
VERTEX
8
CONTOURS_MINEURES
10
5.998
20
39.877
0
VERTEX
8
CONTOURS_MINEURES
10
6.199
20
39.804
0
VERTEX
8
CONTOURS_MINEURES
10
8.001
20
39.303
0
VERTEX
8
CONTOURS_MINEURES
10
8.703
20
39.303
0
VERTEX
8
CONTOURS_MINEURES
10
10.004
20
39.303
0
VERTEX
8
CONTOURS_MINEURES
10
10.962
20
38.966
0
VERTEX
8
CONTOURS_MINEURES
10
11.997
20
38.790
0
VERTEX
8
CONTOURS_MINEURES
10
12.784
20
38.790
0
VERTEX
8
CONTOURS_MINEURES
10
14.000
20
38.790
0
VERTEX
8
CONTOURS_MINEURES
10
14.933
20
39.073
0
VERTEX
8
CONTOURS_MINEURES
10
16.003
20
39.017
0
VERTEX
8
CONTOURS_MINEURES
10
17.012
20
39.017
0
VERTEX
8
CONTOURS_MINEURES
10
17.995
20
39.017
0
VERTEX
8
CONTOURS_MINEURES
10
18.983
20
39.017
0
VERTEX
8
CONTOURS_MINEURES
10
19.998
20
39.017
0
VERTEX
8
CONTOURS_MINEURES
10
20.547
20
39.455
0
VERTEX
8
CONTOURS_MINEURES
10
21.551
20
40.004
0
VERTEX
8
CONTOURS_MINEURES
10
21.551
20
40.454
0
VERTEX
8
CONTOURS_MINEURES
10
21.551
20
42.005
0
VERTEX
8
CONTOURS_MINEURES
10
22.001
20
42.274
0
VERTEX
8
CONTOURS_MINEURES
10
23.734
20
42.274
0
VERTEX
8
CONTOURS_MINEURES
10
24.004
20
42.274
0
VERTEX
8
CONTOURS_MINEURES
10
25.073
20
43.073
0
VERTEX
8
CONTOURS_MINEURES
10
25.996
20
43.770
0
VERTEX
8
CONTOURS_MINEURES
10
26.223
20
43.770
0
VERTEX
8
CONTOURS_MINEURES
10
27.999
20
43.770
0
VERTEX
8
CONTOURS_MINEURES
10
28.487
20
43.995
0
VERTEX
8
CONTOURS_MINEURES
10
28.487
20
45.508
0
VERTEX
8
CONTOURS_MINEURES
10
28.487
20
45.996
0
VERTEX
8
CONTOURS_MINEURES
10
28.487
20
46.483
0
VERTEX
8
CONTOURS_MINEURES
10
28.487
20
47.996
0
VERTEX
8
CONTOURS_MINEURES
10
29.447
20
48.551
0
VERTEX
8
CONTOURS_MINEURES
10
30.002
20
48.948
0
VERTEX
8
CONTOURS_MINEURES
10
30.955
20
48.948
0
VERTEX
8
CONTOURS_MINEURES
10
32.005
20
48.948
0
VERTEX
8
CONTOURS_MINEURES
10
33.049
20
48.948
0
VERTEX
8
CONTOURS_MINEURES
10
33.997
20
48.948
0
VERTEX
8
CONTOURS_MINEURES
10
34.754
20
49.241
0
VERTEX
8
CONTOURS_MINEURES
10
36.000
20
49.594
0
VERTEX
8
CONTOURS_MINEURES
10
37.600
20
49.594
0
VERTEX
8
CONTOURS_MINEURES
10
38.003
20
49.594
0
VERTEX
8
CONTOURS_MINEURES
10
39.504
20
49.504
0
VERTEX
8
CONTOURS_MINEURES
10
39.996
20
49.497
0
VERTEX
8
CONTOURS_MINEURES
10
40.496
20
49.497
0
VERTEX
8
CONTOURS_MINEURES
10
41.999
20
49.497
0
VERTEX
8
CONTOURS_MINEURES
10
43.055
20
49.052
0
VERTEX
8
CONTOURS_MINEURES
10
44.002
20
48.691
0
VERTEX
8
CONTOURS_MINEURES
10
45.309
20
48.691
0
VERTEX
8
CONTOURS_MINEURES
10
46.005
20
48.691
0
VERTEX
8
CONTOURS_MINEURES
10
47.305
20
48.691
0
VERTEX
8
CONTOURS_MINEURES
10
47.997
20
48.691
0
VERTEX
8
CONTOURS_MINEURES
10
48.529
20
48.529
0
VERTEX
8
CONTOURS_MINEURES
10
50.000
20
48.106
0
VERTEX
8
CONTOURS_MINEURES
10
51.893
20
48.106
0
VERTEX
8
CONTOURS_MINEURES
10
52.003
20
48.106
0
VERTEX
8
CONTOURS_MINEURES
10
52.184
20
47.996
0
VERTEX
8
CONTOURS_MINEURES
10
52.184
20
46.178
0
VERTEX
8
CONTOURS_MINEURES
10
52.184
20
45.996
0
VERTEX
8
CONTOURS_MINEURES
10
52.184
20
44.177
0
VERTEX
8
CONTOURS_MINEURES
10
52.184
20
43.995
0
VERTEX
8
CONTOURS_MINEURES
10
53.308
20
43.309
0
VERTEX
8
CONTOURS_MINEURES
10
53.995
20
42.919
0
VERTEX
8
CONTOURS_MINEURES
10
55.078
20
42.919
0
VERTEX
8
CONTOURS_MINEURES
10
55.998
20
42.919
0
VERTEX
8
CONTOURS_MINEURES
10
56.421
20
42.425
0
VERTEX
8
CONTOURS_MINEURES
10
57.007
20
42.005
0
VERTEX
8
CONTOURS_MINEURES
10
57.007
20
40.997
0
VERTEX
8
CONTOURS_MINEURES
10
57.007
20
40.004
0
VERTEX
8
CONTOURS_MINEURES
10
57.543
20
39.547
0
VERTEX
8
CONTOURS_MINEURES
10
58.001
20
39.481
0
VERTEX
8
CONTOURS_MINEURES
10
58.525
20
39.481
0
VERTEX
8
CONTOURS_MINEURES
10
60.004
20
39.481
0
VERTEX
8
CONTOURS_MINEURES
10
61.475
20
39.481
0
VERTEX
8
CONTOURS_MINEURES
10
61.996
20
39.481
0
VERTEX
8
CONTOURS_MINEURES
10
62.450
20
39.552
0
VERTEX
8
CONTOURS_MINEURES
10
63.999
20
39.506
0
VERTEX
8
CONTOURS_MINEURES
10
65.503
20
39.506
0
VERTEX
8
CONTOURS_MINEURES
10
66.002
20
39.506
0
VERTEX
8
CONTOURS_MINEURES
10
66.378
20
39.629
0
VERTEX
8
CONTOURS_MINEURES
10
67.182
20
40.004
0
VERTEX
8
CONTOURS_MINEURES
10
67.182
20
41.183
0
VERTEX
8
CONTOURS_MINEURES
10
67.182
20
42.005
0
VERTEX
8
CONTOURS_MINEURES
10
68.005
20
42.354
0
VERTEX
8
CONTOURS_MINEURES
10
68.355
20
42.354
0
VERTEX
8
CONTOURS_MINEURES
10
69.997
20
42.354
0
VERTEX
8
CONTOURS_MINEURES
10
70.958
20
43.040
0
VERTEX
8
CONTOURS_MINEURES
10
71.688
20
43.995
0
VERTEX
8
CONTOURS_MINEURES
10
71.688
20
45.684
0
VERTEX
8
CONTOURS_MINEURES
10
71.688
20
45.996
0
VERTEX
8
CONTOURS_MINEURES
10
71.688
20
46.308
0
VERTEX
8
CONTOURS_MINEURES
10
71.688
20
47.996
0
VERTEX
8
CONTOURS_MINEURES
10
72.000
20
48.478
0
SEQEND
0
POLYLINE
8
CONTOURS_MINEURES
66
1
70
0
0
VERTEX
8
CONTOURS_MINEURES
10
0.000
20
49.526
0
VERTEX
8
CONTOURS_MINEURES
10
0.471
20
49.526
0
VERTEX
8
CONTOURS_MINEURES
10
2.003
20
49.526
0
VERTEX
8
CONTOURS_MINEURES
10
3.082
20
49.080
0
VERTEX
8
CONTOURS_MINEURES
10
3.995
20
48.530
0
VERTEX
8
CONTOURS_MINEURES
10
4.530
20
48.530
0
VERTEX
8
CONTOURS_MINEURES
10
5.998
20
48.530
0
VERTEX
8
CONTOURS_MINEURES
10
6.827
20
47.996
0
VERTEX
8
CONTOURS_MINEURES
10
6.827
20
47.169
0
VERTEX
8
CONTOURS_MINEURES
10
6.827
20
45.996
0
VERTEX
8
CONTOURS_MINEURES
10
6.827
20
45.168
0
VERTEX
8
CONTOURS_MINEURES
10
6.827
20
43.995
0
VERTEX
8
CONTOURS_MINEURES
10
8.001
20
43.587
0
VERTEX
8
CONTOURS_MINEURES
10
9.594
20
43.587
0
VERTEX
8
CONTOURS_MINEURES
10
10.004
20
43.587
0
VERTEX
8
CONTOURS_MINEURES
10
10.696
20
43.305
0
VERTEX
8
CONTOURS_MINEURES
10
11.997
20
42.782
0
VERTEX
8
CONTOURS_MINEURES
10
12.778
20
42.782
0
VERTEX
8
CONTOURS_MINEURES
10
14.000
20
42.782
0
VERTEX
8
CONTOURS_MINEURES
10
15.353
20
42.651
0
VERTEX
8
CONTOURS_MINEURES
10
16.003
20
42.424
0
VERTEX
8
CONTOURS_MINEURES
10
17.575
20
42.424
0
VERTEX
8
CONTOURS_MINEURES
10
17.995
20
42.424
0
VERTEX
8
CONTOURS_MINEURES
10
19.576
20
42.424
0
VERTEX
8
CONTOURS_MINEURES
10
19.998
20
42.424
0
VERTEX
8
CONTOURS_MINEURES
10
20.737
20
42.740
0
VERTEX
8
CONTOURS_MINEURES
10
22.001
20
43.494
0
VERTEX
8
CONTOURS_MINEURES
10
22.505
20
43.494
0
VERTEX
8
CONTOURS_MINEURES
10
24.004
20
43.494
0
VERTEX
8
CONTOURS_MINEURES
10
24.673
20
43.995
0
VERTEX
8
CONTOURS_MINEURES
10
24.673
20
45.323
0
VERTEX
8
CONTOURS_MINEURES
10
24.673
20
45.996
0
VERTEX
8
CONTOURS_MINEURES
10
24.673
20
46.668
0
VERTEX
8
CONTOURS_MINEURES
10
24.673
20
47.996
0
VERTEX
8
CONTOURS_MINEURES
10
25.335
20
48.661
0
VERTEX
8
CONTOURS_MINEURES
10
25.996
20
49.197
0
VERTEX
8
CONTOURS_MINEURES
10
27.198
20
49.197
0
VERTEX
8
CONTOURS_MINEURES
10
27.999
20
49.197
0
VERTEX
8
CONTOURS_MINEURES
10
28.507
20
49.490
0
VERTEX
8
CONTOURS_MINEURES
10
29.214
20
49.997
0
VERTEX
8
CONTOURS_MINEURES
10
29.214
20
51.211
0
VERTEX
8
CONTOURS_MINEURES
10
29.214
20
51.998
0
VERTEX
8
CONTOURS_MINEURES
10
30.002
20
52.462
0
VERTEX
8
CONTOURS_MINEURES
10
30.466
20
52.462
0
VERTEX
8
CONTOURS_MINEURES
10
32.005
20
52.462
0
VERTEX
8
CONTOURS_MINEURES
10
32.467
20
52.462
0
VERTEX
8
CONTOURS_MINEURES
10
33.997
20
52.462
0
VERTEX
8
CONTOURS_MINEURES
10
34.618
20
52.618
0
VERTEX
8
CONTOURS_MINEURES
10
36.000
20
52.965
0
VERTEX
8
CONTOURS_MINEURES
10
37.035
20
52.965
0
VERTEX
8
CONTOURS_MINEURES
10
38.003
20
52.965
0
VERTEX
8
CONTOURS_MINEURES
10
39.090
20
52.907
0
VERTEX
8
CONTOURS_MINEURES
10
39.996
20
52.991
0
VERTEX
8
CONTOURS_MINEURES
10
41.005
20
52.991
0
VERTEX
8
CONTOURS_MINEURES
10
41.999
20
52.991
0
VERTEX
8
CONTOURS_MINEURES
10
42.663
20
52.662
0
VERTEX
8
CONTOURS_MINEURES
10
44.002
20
52.086
0
VERTEX
8
CONTOURS_MINEURES
10
45.917
20
52.086
0
VERTEX
8
CONTOURS_MINEURES
10
46.005
20
52.086
0
VERTEX
8
CONTOURS_MINEURES
10
46.092
20
52.086
0
VERTEX
8
CONTOURS_MINEURES
10
47.997
20
52.086
0
VERTEX
8
CONTOURS_MINEURES
10
48.059
20
52.060
0
VERTEX
8
CONTOURS_MINEURES
10
48.270
20
51.998
0
VERTEX
8
CONTOURS_MINEURES
10
48.270
20
50.270
0
VERTEX
8
CONTOURS_MINEURES
10
48.270
20
49.997
0
VERTEX
8
CONTOURS_MINEURES
10
49.595
20
49.593
0
VERTEX
8
CONTOURS_MINEURES
10
50.000
20
49.476
0
VERTEX
8
CONTOURS_MINEURES
10
50.521
20
49.476
0
VERTEX
8
CONTOURS_MINEURES
10
52.003
20
49.476
0
VERTEX
8
CONTOURS_MINEURES
10
53.308
20
48.686
0
VERTEX
8
CONTOURS_MINEURES
10
53.995
20
48.314
0
VERTEX
8
CONTOURS_MINEURES
10
54.313
20
48.314
0
VERTEX
8
CONTOURS_MINEURES
10
55.998
20
48.314
0
VERTEX
8
CONTOURS_MINEURES
10
56.174
20
48.173
0
VERTEX
8
CONTOURS_MINEURES
10
56.228
20
47.996
0
VERTEX
8
CONTOURS_MINEURES
10
56.228
20
47.766
0
VERTEX
8
CONTOURS_MINEURES
10
56.228
20
45.996
0
VERTEX
8
CONTOURS_MINEURES
10
56.228
20
44.225
0
VERTEX
8
CONTOURS_MINEURES
10
56.228
20
43.995
0
VERTEX
8
CONTOURS_MINEURES
10
57.043
20
43.043
0
VERTEX
8
CONTOURS_MINEURES
10
58.001
20
42.356
0
VERTEX
8
CONTOURS_MINEURES
10
58.354
20
42.356
0
VERTEX
8
CONTOURS_MINEURES
10
60.004
20
42.356
0
VERTEX
8
CONTOURS_MINEURES
10
61.645
20
42.356
0
VERTEX
8
CONTOURS_MINEURES
10
61.996
20
42.356
0
VERTEX
8
CONTOURS_MINEURES
10
62.219
20
42.226
0
VERTEX
8
CONTOURS_MINEURES
10
63.999
20
42.171
0
VERTEX
8
CONTOURS_MINEURES
10
65.835
20
42.171
0
VERTEX
8
CONTOURS_MINEURES
10
66.002
20
42.171
0
VERTEX
8
CONTOURS_MINEURES
10
66.280
20
42.281
0
VERTEX
8
CONTOURS_MINEURES
10
68.005
20
43.013
0
VERTEX
8
CONTOURS_MINEURES
10
69.015
20
43.013
0
VERTEX
8
CONTOURS_MINEURES
10
69.997
20
43.013
0
VERTEX
8
CONTOURS_MINEURES
10
70.572
20
43.424
0
VERTEX
8
CONTOURS_MINEURES
10
71.009
20
43.995
0
VERTEX
8
CONTOURS_MINEURES
10
71.009
20
45.005
0
VERTEX
8
CONTOURS_MINEURES
10
71.009
20
45.996
0
VERTEX
8
CONTOURS_MINEURES
10
71.009
20
46.986
0
VERTEX
8
CONTOURS_MINEURES
10
71.009
20
47.996
0
VERTEX
8
CONTOURS_MINEURES
10
72.000
20
49.526
0
SEQEND
0
POLYLINE
8
CONTOURS_MINEURES
66
1
70
0
0
VERTEX
8
CONTOURS_MINEURES
10
2.750
20
66.003
0
VERTEX
8
CONTOURS_MINEURES
10
2.750
20
64.753
0
VERTEX
8
CONTOURS_MINEURES
10
2.750
20
64.003
0
VERTEX
8
CONTOURS_MINEURES
10
2.451
20
63.552
0
VERTEX
8
CONTOURS_MINEURES
10
2.003
20
62.943
0
VERTEX
8
CONTOURS_MINEURES
10
1.061
20
62.943
0
VERTEX
8
CONTOURS_MINEURES
10
0.000
20
62.943
0
SEQEND
0
POLYLINE
8
CONTOURS_MINEURES
66
1
70
0
0
VERTEX
8
CONTOURS_MINEURES
10
10.414
20
66.003
0
VERTEX
8
CONTOURS_MINEURES
10
10.414
20
64.414
0
VERTEX
8
CONTOURS_MINEURES
10
10.414
20
64.003
0
VERTEX
8
CONTOURS_MINEURES
10
10.027
20
62.024
0
VERTEX
8
CONTOURS_MINEURES
10
10.022
20
62.002
0
VERTEX
8
CONTOURS_MINEURES
10
10.022
20
61.984
0
VERTEX
8
CONTOURS_MINEURES
10
10.022
20
60.001
0
VERTEX
8
CONTOURS_MINEURES
10
10.022
20
59.984
0
VERTEX
8
CONTOURS_MINEURES
10
10.022
20
58.000
0
VERTEX
8
CONTOURS_MINEURES
10
10.044
20
57.960
0
VERTEX
8
CONTOURS_MINEURES
10
10.677
20
56.000
0
VERTEX
8
CONTOURS_MINEURES
10
10.677
20
54.675
0
VERTEX
8
CONTOURS_MINEURES
10
10.677
20
53.999
0
VERTEX
8
CONTOURS_MINEURES
10
11.001
20
52.998
0
VERTEX
8
CONTOURS_MINEURES
10
11.997
20
52.467
0
VERTEX
8
CONTOURS_MINEURES
10
12.466
20
52.467
0
VERTEX
8
CONTOURS_MINEURES
10
14.000
20
52.467
0
VERTEX
8
CONTOURS_MINEURES
10
14.353
20
51.998
0
VERTEX
8
CONTOURS_MINEURES
10
14.353
20
50.350
0
VERTEX
8
CONTOURS_MINEURES
10
14.353
20
49.997
0
VERTEX
8
CONTOURS_MINEURES
10
14.834
20
48.830
0
VERTEX
8
CONTOURS_MINEURES
10
16.003
20
48.247
0
VERTEX
8
CONTOURS_MINEURES
10
16.252
20
48.247
0
VERTEX
8
CONTOURS_MINEURES
10
17.995
20
48.247
0
VERTEX
8
CONTOURS_MINEURES
10
19.747
20
48.247
0
VERTEX
8
CONTOURS_MINEURES
10
19.998
20
48.247
0
VERTEX
8
CONTOURS_MINEURES
10
21.085
20
48.912
0
VERTEX
8
CONTOURS_MINEURES
10
22.001
20
48.964
0
VERTEX
8
CONTOURS_MINEURES
10
22.970
20
48.964
0
VERTEX
8
CONTOURS_MINEURES
10
24.004
20
48.964
0
VERTEX
8
CONTOURS_MINEURES
10
24.518
20
49.481
0
VERTEX
8
CONTOURS_MINEURES
10
25.155
20
49.997
0
VERTEX
8
CONTOURS_MINEURES
10
25.155
20
51.154
0
VERTEX
8
CONTOURS_MINEURES
10
25.155
20
51.998
0
VERTEX
8
CONTOURS_MINEURES
10
25.996
20
52.655
0
VERTEX
8
CONTOURS_MINEURES
10
26.654
20
52.655
0
VERTEX
8
CONTOURS_MINEURES
10
27.999
20
52.655
0
VERTEX
8
CONTOURS_MINEURES
10
29.485
20
53.482
0
VERTEX
8
CONTOURS_MINEURES
10
30.002
20
53.787
0
VERTEX
8
CONTOURS_MINEURES
10
31.793
20
53.787
0
VERTEX
8
CONTOURS_MINEURES
10
32.005
20
53.787
0
VERTEX
8
CONTOURS_MINEURES
10
33.786
20
53.787
0
VERTEX
8
CONTOURS_MINEURES
10
33.997
20
53.787
0
VERTEX
8
CONTOURS_MINEURES
10
34.841
20
53.999
0
VERTEX
8
CONTOURS_MINEURES
10
34.841
20
55.157
0
VERTEX
8
CONTOURS_MINEURES
10
34.841
20
56.000
0
VERTEX
8
CONTOURS_MINEURES
10
35.753
20
56.247
0
VERTEX
8
CONTOURS_MINEURES
10
36.000
20
56.289
0
VERTEX
8
CONTOURS_MINEURES
10
36.290
20
56.289
0
VERTEX
8
CONTOURS_MINEURES
10
38.003
20
56.289
0
VERTEX
8
CONTOURS_MINEURES
10
39.583
20
56.414
0
VERTEX
8
CONTOURS_MINEURES
10
39.996
20
56.441
0
VERTEX
8
CONTOURS_MINEURES
10
40.438
20
56.441
0
VERTEX
8
CONTOURS_MINEURES
10
41.999
20
56.441
0
VERTEX
8
CONTOURS_MINEURES
10
43.046
20
56.000
0
VERTEX
8
CONTOURS_MINEURES
10
43.046
20
54.953
0
VERTEX
8
CONTOURS_MINEURES
10
43.046
20
53.999
0
VERTEX
8
CONTOURS_MINEURES
10
43.685
20
53.682
0
VERTEX
8
CONTOURS_MINEURES
10
44.002
20
53.546
0
VERTEX
8
CONTOURS_MINEURES
10
44.455
20
53.546
0
VERTEX
8
CONTOURS_MINEURES
10
46.005
20
53.546
0
VERTEX
8
CONTOURS_MINEURES
10
47.546
20
53.546
0
VERTEX
8
CONTOURS_MINEURES
10
47.997
20
53.546
0
VERTEX
8
CONTOURS_MINEURES
10
49.091
20
53.091
0
VERTEX
8
CONTOURS_MINEURES
10
50.000
20
52.825
0
VERTEX
8
CONTOURS_MINEURES
10
51.175
20
52.825
0
VERTEX
8
CONTOURS_MINEURES
10
52.003
20
52.825
0
VERTEX
8
CONTOURS_MINEURES
10
53.819
20
51.998
0
VERTEX
8
CONTOURS_MINEURES
10
53.819
20
50.174
0
VERTEX
8
CONTOURS_MINEURES
10
53.819
20
49.997
0
VERTEX
8
CONTOURS_MINEURES
10
53.995
20
49.902
0
VERTEX
8
CONTOURS_MINEURES
10
55.903
20
49.902
0
VERTEX
8
CONTOURS_MINEURES
10
55.998
20
49.902
0
VERTEX
8
CONTOURS_MINEURES
10
57.057
20
49.054
0
VERTEX
8
CONTOURS_MINEURES
10
57.379
20
47.996
0
VERTEX
8
CONTOURS_MINEURES
10
57.379
20
46.617
0
VERTEX
8
CONTOURS_MINEURES
10
57.379
20
45.996
0
VERTEX
8
CONTOURS_MINEURES
10
57.379
20
45.375
0
VERTEX
8
CONTOURS_MINEURES
10
57.379
20
43.995
0
VERTEX
8
CONTOURS_MINEURES
10
57.665
20
43.661
0
VERTEX
8
CONTOURS_MINEURES
10
58.001
20
43.420
0
VERTEX
8
CONTOURS_MINEURES
10
59.426
20
43.420
0
VERTEX
8
CONTOURS_MINEURES
10
60.004
20
43.420
0
VERTEX
8
CONTOURS_MINEURES
10
60.579
20
43.420
0
VERTEX
8
CONTOURS_MINEURES
10
61.996
20
43.420
0
VERTEX
8
CONTOURS_MINEURES
10
62.893
20
42.896
0
VERTEX
8
CONTOURS_MINEURES
10
63.999
20
42.862
0
VERTEX
8
CONTOURS_MINEURES
10
65.140
20
42.862
0
VERTEX
8
CONTOURS_MINEURES
10
66.002
20
42.862
0
VERTEX
8
CONTOURS_MINEURES
10
67.438
20
43.431
0
VERTEX
8
CONTOURS_MINEURES
10
68.005
20
43.672
0
VERTEX
8
CONTOURS_MINEURES
10
69.674
20
43.672
0
VERTEX
8
CONTOURS_MINEURES
10
69.997
20
43.672
0
VERTEX
8
CONTOURS_MINEURES
10
70.187
20
43.807
0
VERTEX
8
CONTOURS_MINEURES
10
70.330
20
43.995
0
VERTEX
8
CONTOURS_MINEURES
10
70.330
20
44.327
0
VERTEX
8
CONTOURS_MINEURES
10
70.330
20
45.996
0
VERTEX
8
CONTOURS_MINEURES
10
70.330
20
47.664
0
VERTEX
8
CONTOURS_MINEURES
10
70.330
20
47.996
0
VERTEX
8
CONTOURS_MINEURES
10
70.941
20
48.939
0
VERTEX
8
CONTOURS_MINEURES
10
71.568
20
49.997
0
VERTEX
8
CONTOURS_MINEURES
10
71.568
20
50.429
0
VERTEX
8
CONTOURS_MINEURES
10
71.568
20
51.998
0
VERTEX
8
CONTOURS_MINEURES
10
71.592
20
52.406
0
VERTEX
8
CONTOURS_MINEURES
10
72.000
20
53.278
0
SEQEND
0
POLYLINE
8
CONTOURS_MINEURES
66
1
70
0
0
VERTEX
8
CONTOURS_MINEURES
10
14.185
20
66.003
0
VERTEX
8
CONTOURS_MINEURES
10
14.185
20
64.188
0
VERTEX
8
CONTOURS_MINEURES
10
14.185
20
64.003
0
VERTEX
8
CONTOURS_MINEURES
10
14.000
20
63.122
0
VERTEX
8
CONTOURS_MINEURES
10
12.878
20
63.122
0
VERTEX
8
CONTOURS_MINEURES
10
11.997
20
63.122
0
VERTEX
8
CONTOURS_MINEURES
10
11.754
20
62.002
0
VERTEX
8
CONTOURS_MINEURES
10
11.754
20
60.245
0
VERTEX
8
CONTOURS_MINEURES
10
11.754
20
60.001
0
VERTEX
8
CONTOURS_MINEURES
10
11.754
20
58.244
0
VERTEX
8
CONTOURS_MINEURES
10
11.754
20
58.000
0
VERTEX
8
CONTOURS_MINEURES
10
11.997
20
57.569
0
VERTEX
8
CONTOURS_MINEURES
10
13.568
20
57.569
0
VERTEX
8
CONTOURS_MINEURES
10
14.000
20
57.569
0
VERTEX
8
CONTOURS_MINEURES
10
14.937
20
56.000
0
VERTEX
8
CONTOURS_MINEURES
10
14.937
20
54.935
0
VERTEX
8
CONTOURS_MINEURES
10
14.937
20
53.999
0
VERTEX
8
CONTOURS_MINEURES
10
16.003
20
52.680
0
VERTEX
8
CONTOURS_MINEURES
10
17.316
20
52.680
0
VERTEX
8
CONTOURS_MINEURES
10
17.995
20
52.680
0
VERTEX
8
CONTOURS_MINEURES
10
18.678
20
52.680
0
VERTEX
8
CONTOURS_MINEURES
10
19.998
20
52.680
0
VERTEX
8
CONTOURS_MINEURES
10
21.221
20
52.777
0
VERTEX
8
CONTOURS_MINEURES
10
22.001
20
52.731
0
VERTEX
8
CONTOURS_MINEURES
10
23.270
20
52.731
0
VERTEX
8
CONTOURS_MINEURES
10
24.004
20
52.731
0
VERTEX
8
CONTOURS_MINEURES
10
25.825
20
53.999
0
VERTEX
8
CONTOURS_MINEURES
10
25.825
20
54.170
0
VERTEX
8
CONTOURS_MINEURES
10
25.825
20
56.000
0
VERTEX
8
CONTOURS_MINEURES
10
25.996
20
56.121
0
VERTEX
8
CONTOURS_MINEURES
10
27.878
20
56.121
0
VERTEX
8
CONTOURS_MINEURES
10
27.999
20
56.121
0
VERTEX
8
CONTOURS_MINEURES
10
28.193
20
56.193
0
VERTEX
8
CONTOURS_MINEURES
10
30.002
20
57.200
0
VERTEX
8
CONTOURS_MINEURES
10
30.803
20
57.200
0
VERTEX
8
CONTOURS_MINEURES
10
32.005
20
57.200
0
VERTEX
8
CONTOURS_MINEURES
10
33.200
20
57.200
0
VERTEX
8
CONTOURS_MINEURES
10
33.997
20
57.200
0
VERTEX
8
CONTOURS_MINEURES
10
34.627
20
57.371
0
VERTEX
8
CONTOURS_MINEURES
10
36.000
20
57.605
0
VERTEX
8
CONTOURS_MINEURES
10
37.608
20
57.605
0
VERTEX
8
CONTOURS_MINEURES
10
38.003
20
57.605
0
VERTEX
8
CONTOURS_MINEURES
10
38.368
20
57.634
0
VERTEX
8
CONTOURS_MINEURES
10
39.996
20
57.740
0
VERTEX
8
CONTOURS_MINEURES
10
41.738
20
57.740
0
VERTEX
8
CONTOURS_MINEURES
10
41.999
20
57.740
0
VERTEX
8
CONTOURS_MINEURES
10
42.449
20
57.551
0
VERTEX
8
CONTOURS_MINEURES
10
44.002
20
57.007
0
VERTEX
8
CONTOURS_MINEURES
10
45.010
20
57.007
0
VERTEX
8
CONTOURS_MINEURES
10
46.005
20
57.007
0
VERTEX
8
CONTOURS_MINEURES
10
46.993
20
57.007
0
VERTEX
8
CONTOURS_MINEURES
10
47.997
20
57.007
0
VERTEX
8
CONTOURS_MINEURES
10
48.748
20
56.750
0
VERTEX
8
CONTOURS_MINEURES
10
50.000
20
56.189
0
VERTEX
8
CONTOURS_MINEURES
10
51.813
20
56.189
0
VERTEX
8
CONTOURS_MINEURES
10
52.003
20
56.189
0
VERTEX
8
CONTOURS_MINEURES
10
52.534
20
56.000
0
VERTEX
8
CONTOURS_MINEURES
10
52.534
20
54.532
0
VERTEX
8
CONTOURS_MINEURES
10
52.534
20
53.999
0
VERTEX
8
CONTOURS_MINEURES
10
53.995
20
53.479
0
VERTEX
8
CONTOURS_MINEURES
10
55.478
20
53.479
0
VERTEX
8
CONTOURS_MINEURES
10
55.998
20
53.479
0
VERTEX
8
CONTOURS_MINEURES
10
57.862
20
51.998
0
VERTEX
8
CONTOURS_MINEURES
10
57.862
20
50.136
0
VERTEX
8
CONTOURS_MINEURES
10
57.862
20
49.997
0
VERTEX
8
CONTOURS_MINEURES
10
57.939
20
49.936
0
VERTEX
8
CONTOURS_MINEURES
10
58.001
20
49.733
0
VERTEX
8
CONTOURS_MINEURES
10
59.739
20
49.733
0
VERTEX
8
CONTOURS_MINEURES
10
60.004
20
49.733
0
VERTEX
8
CONTOURS_MINEURES
10
60.267
20
49.733
0
VERTEX
8
CONTOURS_MINEURES
10
61.996
20
49.733
0
VERTEX
8
CONTOURS_MINEURES
10
62.529
20
48.528
0
VERTEX
8
CONTOURS_MINEURES
10
62.834
20
47.996
0
VERTEX
8
CONTOURS_MINEURES
10
62.834
20
47.160
0
VERTEX
8
CONTOURS_MINEURES
10
62.834
20
45.996
0
VERTEX
8
CONTOURS_MINEURES
10
62.834
20
44.832
0
VERTEX
8
CONTOURS_MINEURES
10
62.834
20
43.995
0
VERTEX
8
CONTOURS_MINEURES
10
63.568
20
43.566
0
VERTEX
8
CONTOURS_MINEURES
10
63.999
20
43.553
0
VERTEX
8
CONTOURS_MINEURES
10
64.444
20
43.553
0
VERTEX
8
CONTOURS_MINEURES
10
66.002
20
43.553
0
VERTEX
8
CONTOURS_MINEURES
10
67.117
20
43.995
0
VERTEX
8
CONTOURS_MINEURES
10
67.117
20
44.882
0
VERTEX
8
CONTOURS_MINEURES
10
67.117
20
45.996
0
VERTEX
8
CONTOURS_MINEURES
10
67.117
20
46.883
0
VERTEX
8
CONTOURS_MINEURES
10
67.117
20
47.996
0
VERTEX
8
CONTOURS_MINEURES
10
68.005
20
48.672
0
VERTEX
8
CONTOURS_MINEURES
10
69.325
20
48.672
0
VERTEX
8
CONTOURS_MINEURES
10
69.997
20
48.672
0
VERTEX
8
CONTOURS_MINEURES
10
70.783
20
49.997
0
VERTEX
8
CONTOURS_MINEURES
10
70.783
20
51.213
0
VERTEX
8
CONTOURS_MINEURES
10
70.783
20
51.998
0
VERTEX
8
CONTOURS_MINEURES
10
70.851
20
53.147
0
VERTEX
8
CONTOURS_MINEURES
10
71.249
20
53.999
0
VERTEX
8
CONTOURS_MINEURES
10
71.249
20
55.249
0
VERTEX
8
CONTOURS_MINEURES
10
71.249
20
56.000
0
VERTEX
8
CONTOURS_MINEURES
10
71.265
20
56.734
0
VERTEX
8
CONTOURS_MINEURES
10
71.322
20
58.000
0
VERTEX
8
CONTOURS_MINEURES
10
71.322
20
59.323
0
VERTEX
8
CONTOURS_MINEURES
10
71.322
20
60.001
0
VERTEX
8
CONTOURS_MINEURES
10
71.322
20
60.679
0
VERTEX
8
CONTOURS_MINEURES
10
71.322
20
62.002
0
VERTEX
8
CONTOURS_MINEURES
10
71.214
20
63.217
0
VERTEX
8
CONTOURS_MINEURES
10
71.129
20
64.003
0
VERTEX
8
CONTOURS_MINEURES
10
71.129
20
64.873
0
VERTEX
8
CONTOURS_MINEURES
10
71.129
20
66.003
0
SEQEND
0
POLYLINE
8
CONTOURS_MINEURES
66
1
70
0
0
VERTEX
8
CONTOURS_MINEURES
10
15.868
20
66.003
0
VERTEX
8
CONTOURS_MINEURES
10
15.868
20
65.869
0
VERTEX
8
CONTOURS_MINEURES
10
15.868
20
64.003
0
VERTEX
8
CONTOURS_MINEURES
10
15.832
20
63.832
0
VERTEX
8
CONTOURS_MINEURES
10
15.872
20
62.002
0
VERTEX
8
CONTOURS_MINEURES
10
15.872
20
61.871
0
VERTEX
8
CONTOURS_MINEURES
10
15.872
20
60.001
0
VERTEX
8
CONTOURS_MINEURES
10
15.872
20
58.131
0
VERTEX
8
CONTOURS_MINEURES
10
15.872
20
58.000
0
VERTEX
8
CONTOURS_MINEURES
10
16.003
20
57.750
0
VERTEX
8
CONTOURS_MINEURES
10
17.746
20
57.750
0
VERTEX
8
CONTOURS_MINEURES
10
17.995
20
57.750
0
VERTEX
8
CONTOURS_MINEURES
10
18.245
20
57.750
0
VERTEX
8
CONTOURS_MINEURES
10
19.998
20
57.750
0
VERTEX
8
CONTOURS_MINEURES
10
20.284
20
57.715
0
VERTEX
8
CONTOURS_MINEURES
10
22.001
20
57.286
0
VERTEX
8
CONTOURS_MINEURES
10
23.288
20
57.286
0
VERTEX
8
CONTOURS_MINEURES
10
24.004
20
57.286
0
VERTEX
8
CONTOURS_MINEURES
10
25.480
20
58.000
0
VERTEX
8
CONTOURS_MINEURES
10
25.480
20
58.519
0
VERTEX
8
CONTOURS_MINEURES
10
25.480
20
60.001
0
VERTEX
8
CONTOURS_MINEURES
10
25.480
20
61.483
0
VERTEX
8
CONTOURS_MINEURES
10
25.480
20
62.002
0
VERTEX
8
CONTOURS_MINEURES
10
25.996
20
62.231
0
VERTEX
8
CONTOURS_MINEURES
10
27.769
20
62.231
0
VERTEX
8
CONTOURS_MINEURES
10
27.999
20
62.231
0
VERTEX
8
CONTOURS_MINEURES
10
28.168
20
62.171
0
VERTEX
8
CONTOURS_MINEURES
10
30.002
20
62.736
0
VERTEX
8
CONTOURS_MINEURES
10
31.271
20
62.736
0
VERTEX
8
CONTOURS_MINEURES
10
32.005
20
62.736
0
VERTEX
8
CONTOURS_MINEURES
10
33.267
20
62.736
0
VERTEX
8
CONTOURS_MINEURES
10
33.997
20
62.736
0
VERTEX
8
CONTOURS_MINEURES
10
34.686
20
62.690
0
VERTEX
8
CONTOURS_MINEURES
10
36.000
20
62.911
0
VERTEX
8
CONTOURS_MINEURES
10
36.911
20
62.911
0
VERTEX
8
CONTOURS_MINEURES
10
38.003
20
62.911
0
VERTEX
8
CONTOURS_MINEURES
10
39.024
20
62.978
0
VERTEX
8
CONTOURS_MINEURES
10
39.996
20
63.028
0
VERTEX
8
CONTOURS_MINEURES
10
41.023
20
63.028
0
VERTEX
8
CONTOURS_MINEURES
10
41.999
20
63.028
0
VERTEX
8
CONTOURS_MINEURES
10
43.408
20
62.595
0
VERTEX
8
CONTOURS_MINEURES
10
44.002
20
62.662
0
VERTEX
8
CONTOURS_MINEURES
10
44.662
20
62.662
0
VERTEX
8
CONTOURS_MINEURES
10
46.005
20
62.662
0
VERTEX
8
CONTOURS_MINEURES
10
47.340
20
62.662
0
VERTEX
8
CONTOURS_MINEURES
10
47.997
20
62.662
0
VERTEX
8
CONTOURS_MINEURES
10
49.360
20
62.002
0
VERTEX
8
CONTOURS_MINEURES
10
49.360
20
61.363
0
VERTEX
8
CONTOURS_MINEURES
10
49.360
20
60.001
0
VERTEX
8
CONTOURS_MINEURES
10
49.360
20
59.363
0
VERTEX
8
CONTOURS_MINEURES
10
49.360
20
58.000
0
VERTEX
8
CONTOURS_MINEURES
10
49.836
20
57.837
0
VERTEX
8
CONTOURS_MINEURES
10
50.000
20
57.764
0
VERTEX
8
CONTOURS_MINEURES
10
50.236
20
57.764
0
VERTEX
8
CONTOURS_MINEURES
10
52.003
20
57.764
0
VERTEX
8
CONTOURS_MINEURES
10
52.367
20
57.634
0
VERTEX
8
CONTOURS_MINEURES
10
53.995
20
57.155
0
VERTEX
8
CONTOURS_MINEURES
10
55.152
20
57.155
0
VERTEX
8
CONTOURS_MINEURES
10
55.998
20
57.155
0
VERTEX
8
CONTOURS_MINEURES
10
57.015
20
57.015
0
VERTEX
8
CONTOURS_MINEURES
10
58.001
20
56.433
0
VERTEX
8
CONTOURS_MINEURES
10
59.570
20
56.433
0
VERTEX
8
CONTOURS_MINEURES
10
60.004
20
56.433
0
VERTEX
8
CONTOURS_MINEURES
10
60.436
20
56.433
0
VERTEX
8
CONTOURS_MINEURES
10
61.996
20
56.433
0
VERTEX
8
CONTOURS_MINEURES
10
62.411
20
56.414
0
VERTEX
8
CONTOURS_MINEURES
10
62.551
20
56.000
0
VERTEX
8
CONTOURS_MINEURES
10
62.551
20
54.553
0
VERTEX
8
CONTOURS_MINEURES
10
62.551
20
53.999
0
VERTEX
8
CONTOURS_MINEURES
10
62.797
20
53.198
0
VERTEX
8
CONTOURS_MINEURES
10
63.549
20
51.998
0
VERTEX
8
CONTOURS_MINEURES
10
63.549
20
50.447
0
VERTEX
8
CONTOURS_MINEURES
10
63.549
20
49.997
0
VERTEX
8
CONTOURS_MINEURES
10
63.687
20
49.685
0
VERTEX
8
CONTOURS_MINEURES
10
63.999
20
49.140
0
VERTEX
8
CONTOURS_MINEURES
10
64.858
20
49.140
0
VERTEX
8
CONTOURS_MINEURES
10
66.002
20
49.140
0
VERTEX
8
CONTOURS_MINEURES
10
68.005
20
49.997
0
VERTEX
8
CONTOURS_MINEURES
10
69.997
20
49.997
0
VERTEX
8
CONTOURS_MINEURES
10
69.997
20
51.998
0
VERTEX
8
CONTOURS_MINEURES
10
70.109
20
53.888
0
VERTEX
8
CONTOURS_MINEURES
10
70.161
20
53.999
0
VERTEX
8
CONTOURS_MINEURES
10
70.161
20
54.162
0
VERTEX
8
CONTOURS_MINEURES
10
70.161
20
56.000
0
VERTEX
8
CONTOURS_MINEURES
10
70.200
20
57.798
0
VERTEX
8
CONTOURS_MINEURES
10
70.209
20
58.000
0
VERTEX
8
CONTOURS_MINEURES
10
70.209
20
58.212
0
VERTEX
8
CONTOURS_MINEURES
10
70.209
20
60.001
0
VERTEX
8
CONTOURS_MINEURES
10
70.209
20
61.791
0
VERTEX
8
CONTOURS_MINEURES
10
70.209
20
62.002
0
VERTEX
8
CONTOURS_MINEURES
10
70.192
20
62.196
0
VERTEX
8
CONTOURS_MINEURES
10
69.997
20
64.003
0
VERTEX
8
CONTOURS_MINEURES
10
69.997
20
66.003
0
SEQEND
0
POLYLINE
8
CONTOURS_MAJEURES
66
1
70
0
0
VERTEX
8
CONTOURS_MAJEURES
10
0.000
20
32.881
0
VERTEX
8
CONTOURS_MAJEURES
10
1.123
20
32.881
0
VERTEX
8
CONTOURS_MAJEURES
10
2.003
20
32.881
0
VERTEX
8
CONTOURS_MAJEURES
10
2.690
20
32.691
0
VERTEX
8
CONTOURS_MAJEURES
10
3.995
20
32.734
0
VERTEX
8
CONTOURS_MAJEURES
10
4.729
20
32.734
0
VERTEX
8
CONTOURS_MAJEURES
10
5.998
20
32.734
0
VERTEX
8
CONTOURS_MAJEURES
10
7.718
20
32.285
0
VERTEX
8
CONTOURS_MAJEURES
10
8.001
20
32.211
0
VERTEX
8
CONTOURS_MAJEURES
10
9.795
20
32.211
0
VERTEX
8
CONTOURS_MAJEURES
10
10.004
20
32.211
0
VERTEX
8
CONTOURS_MAJEURES
10
11.777
20
32.222
0
VERTEX
8
CONTOURS_MAJEURES
10
11.997
20
32.198
0
VERTEX
8
CONTOURS_MAJEURES
10
12.193
20
32.198
0
VERTEX
8
CONTOURS_MAJEURES
10
14.000
20
32.198
0
VERTEX
8
CONTOURS_MAJEURES
10
15.307
20
32.696
0
VERTEX
8
CONTOURS_MAJEURES
10
16.003
20
32.811
0
VERTEX
8
CONTOURS_MAJEURES
10
16.809
20
32.811
0
VERTEX
8
CONTOURS_MAJEURES
10
17.995
20
32.811
0
VERTEX
8
CONTOURS_MAJEURES
10
19.187
20
32.811
0
VERTEX
8
CONTOURS_MAJEURES
10
19.998
20
32.811
0
VERTEX
8
CONTOURS_MAJEURES
10
21.985
20
34.002
0
VERTEX
8
CONTOURS_MAJEURES
10
21.985
20
34.018
0
VERTEX
8
CONTOURS_MAJEURES
10
21.985
20
36.003
0
VERTEX
8
CONTOURS_MAJEURES
10
21.985
20
37.987
0
VERTEX
8
CONTOURS_MAJEURES
10
21.985
20
38.004
0
VERTEX
8
CONTOURS_MAJEURES
10
21.994
20
38.011
0
VERTEX
8
CONTOURS_MAJEURES
10
22.001
20
38.015
0
VERTEX
8
CONTOURS_MAJEURES
10
22.012
20
38.015
0
VERTEX
8
CONTOURS_MAJEURES
10
24.004
20
38.015
0
VERTEX
8
CONTOURS_MAJEURES
10
25.231
20
38.772
0
VERTEX
8
CONTOURS_MAJEURES
10
25.996
20
39.375
0
VERTEX
8
CONTOURS_MAJEURES
10
27.368
20
39.375
0
VERTEX
8
CONTOURS_MAJEURES
10
27.999
20
39.375
0
VERTEX
8
CONTOURS_MAJEURES
10
28.459
20
39.545
0
VERTEX
8
CONTOURS_MAJEURES
10
29.547
20
40.004
0
VERTEX
8
CONTOURS_MAJEURES
10
29.547
20
41.550
0
VERTEX
8
CONTOURS_MAJEURES
10
29.547
20
42.005
0
VERTEX
8
CONTOURS_MAJEURES
10
30.002
20
42.197
0
VERTEX
8
CONTOURS_MAJEURES
10
30.195
20
42.197
0
VERTEX
8
CONTOURS_MAJEURES
10
32.005
20
42.197
0
VERTEX
8
CONTOURS_MAJEURES
10
32.197
20
42.197
0
VERTEX
8
CONTOURS_MAJEURES
10
33.997
20
42.197
0
VERTEX
8
CONTOURS_MAJEURES
10
35.417
20
42.585
0
VERTEX
8
CONTOURS_MAJEURES
10
36.000
20
42.769
0
VERTEX
8
CONTOURS_MAJEURES
10
36.770
20
42.769
0
VERTEX
8
CONTOURS_MAJEURES
10
38.003
20
42.769
0
VERTEX
8
CONTOURS_MAJEURES
10
39.133
20
42.867
0
VERTEX
8
CONTOURS_MAJEURES
10
39.996
20
42.856
0
VERTEX
8
CONTOURS_MAJEURES
10
41.142
20
42.856
0
VERTEX
8
CONTOURS_MAJEURES
10
41.999
20
42.856
0
VERTEX
8
CONTOURS_MAJEURES
10
42.642
20
42.644
0
VERTEX
8
CONTOURS_MAJEURES
10
44.002
20
42.289
0
VERTEX
8
CONTOURS_MAJEURES
10
45.718
20
42.289
0
VERTEX
8
CONTOURS_MAJEURES
10
46.005
20
42.289
0
VERTEX
8
CONTOURS_MAJEURES
10
46.289
20
42.289
0
VERTEX
8
CONTOURS_MAJEURES
10
47.997
20
42.289
0
VERTEX
8
CONTOURS_MAJEURES
10
48.228
20
42.234
0
VERTEX
8
CONTOURS_MAJEURES
10
48.683
20
42.005
0
VERTEX
8
CONTOURS_MAJEURES
10
48.683
20
41.320
0
VERTEX
8
CONTOURS_MAJEURES
10
48.683
20
40.004
0
VERTEX
8
CONTOURS_MAJEURES
10
50.000
20
39.328
0
VERTEX
8
CONTOURS_MAJEURES
10
51.326
20
39.328
0
VERTEX
8
CONTOURS_MAJEURES
10
52.003
20
39.328
0
VERTEX
8
CONTOURS_MAJEURES
10
53.295
20
38.707
0
VERTEX
8
CONTOURS_MAJEURES
10
53.995
20
38.333
0
VERTEX
8
CONTOURS_MAJEURES
10
55.668
20
38.333
0
VERTEX
8
CONTOURS_MAJEURES
10
55.998
20
38.333
0
VERTEX
8
CONTOURS_MAJEURES
10
56.176
20
38.181
0
VERTEX
8
CONTOURS_MAJEURES
10
57.405
20
38.004
0
VERTEX
8
CONTOURS_MAJEURES
10
57.405
20
36.598
0
VERTEX
8
CONTOURS_MAJEURES
10
57.405
20
36.003
0
VERTEX
8
CONTOURS_MAJEURES
10
57.405
20
35.408
0
VERTEX
8
CONTOURS_MAJEURES
10
57.405
20
34.002
0
VERTEX
8
CONTOURS_MAJEURES
10
57.879
20
33.881
0
VERTEX
8
CONTOURS_MAJEURES
10
58.001
20
33.873
0
VERTEX
8
CONTOURS_MAJEURES
10
59.874
20
33.873
0
VERTEX
8
CONTOURS_MAJEURES
10
60.004
20
33.873
0
VERTEX
8
CONTOURS_MAJEURES
10
61.867
20
33.873
0
VERTEX
8
CONTOURS_MAJEURES
10
61.996
20
33.873
0
VERTEX
8
CONTOURS_MAJEURES
10
62.104
20
33.894
0
VERTEX
8
CONTOURS_MAJEURES
10
62.547
20
34.002
0
VERTEX
8
CONTOURS_MAJEURES
10
62.547
20
34.552
0
VERTEX
8
CONTOURS_MAJEURES
10
62.547
20
36.003
0
VERTEX
8
CONTOURS_MAJEURES
10
62.547
20
36.553
0
VERTEX
8
CONTOURS_MAJEURES
10
62.547
20
38.004
0
VERTEX
8
CONTOURS_MAJEURES
10
63.803
20
38.200
0
VERTEX
8
CONTOURS_MAJEURES
10
63.999
20
38.194
0
VERTEX
8
CONTOURS_MAJEURES
10
64.190
20
38.194
0
VERTEX
8
CONTOURS_MAJEURES
10
66.002
20
38.194
0
VERTEX
8
CONTOURS_MAJEURES
10
67.367
20
38.641
0
VERTEX
8
CONTOURS_MAJEURES
10
68.005
20
38.939
0
VERTEX
8
CONTOURS_MAJEURES
10
68.936
20
38.939
0
VERTEX
8
CONTOURS_MAJEURES
10
69.997
20
38.939
0
VERTEX
8
CONTOURS_MAJEURES
10
70.822
20
39.181
0
VERTEX
8
CONTOURS_MAJEURES
10
71.354
20
40.004
0
VERTEX
8
CONTOURS_MAJEURES
10
71.354
20
41.360
0
VERTEX
8
CONTOURS_MAJEURES
10
71.354
20
42.005
0
VERTEX
8
CONTOURS_MAJEURES
10
71.730
20
42.274
0
VERTEX
8
CONTOURS_MAJEURES
10
72.000
20
42.627
0
SEQEND
0
POLYLINE
8
CONTOURS_MAJEURES
66
1
70
0
0
VERTEX
8
CONTOURS_MAJEURES
10
14.185
20
66.003
0
VERTEX
8
CONTOURS_MAJEURES
10
14.185
20
64.188
0
VERTEX
8
CONTOURS_MAJEURES
10
14.185
20
64.003
0
VERTEX
8
CONTOURS_MAJEURES
10
14.000
20
63.122
0
VERTEX
8
CONTOURS_MAJEURES
10
12.878
20
63.122
0
VERTEX
8
CONTOURS_MAJEURES
10
11.997
20
63.122
0
VERTEX
8
CONTOURS_MAJEURES
10
11.754
20
62.002
0
VERTEX
8
CONTOURS_MAJEURES
10
11.754
20
60.245
0
VERTEX
8
CONTOURS_MAJEURES
10
11.754
20
60.001
0
VERTEX
8
CONTOURS_MAJEURES
10
11.754
20
58.244
0
VERTEX
8
CONTOURS_MAJEURES
10
11.754
20
58.000
0
VERTEX
8
CONTOURS_MAJEURES
10
11.997
20
57.569
0
VERTEX
8
CONTOURS_MAJEURES
10
13.568
20
57.569
0
VERTEX
8
CONTOURS_MAJEURES
10
14.000
20
57.569
0
VERTEX
8
CONTOURS_MAJEURES
10
14.937
20
56.000
0
VERTEX
8
CONTOURS_MAJEURES
10
14.937
20
54.935
0
VERTEX
8
CONTOURS_MAJEURES
10
14.937
20
53.999
0
VERTEX
8
CONTOURS_MAJEURES
10
16.003
20
52.680
0
VERTEX
8
CONTOURS_MAJEURES
10
17.316
20
52.680
0
VERTEX
8
CONTOURS_MAJEURES
10
17.995
20
52.680
0
VERTEX
8
CONTOURS_MAJEURES
10
18.678
20
52.680
0
VERTEX
8
CONTOURS_MAJEURES
10
19.998
20
52.680
0
VERTEX
8
CONTOURS_MAJEURES
10
21.221
20
52.777
0
VERTEX
8
CONTOURS_MAJEURES
10
22.001
20
52.731
0
VERTEX
8
CONTOURS_MAJEURES
10
23.270
20
52.731
0
VERTEX
8
CONTOURS_MAJEURES
10
24.004
20
52.731
0
VERTEX
8
CONTOURS_MAJEURES
10
25.825
20
53.999
0
VERTEX
8
CONTOURS_MAJEURES
10
25.825
20
54.170
0
VERTEX
8
CONTOURS_MAJEURES
10
25.825
20
56.000
0
VERTEX
8
CONTOURS_MAJEURES
10
25.996
20
56.121
0
VERTEX
8
CONTOURS_MAJEURES
10
27.878
20
56.121
0
VERTEX
8
CONTOURS_MAJEURES
10
27.999
20
56.121
0
VERTEX
8
CONTOURS_MAJEURES
10
28.193
20
56.193
0
VERTEX
8
CONTOURS_MAJEURES
10
30.002
20
57.200
0
VERTEX
8
CONTOURS_MAJEURES
10
30.803
20
57.200
0
VERTEX
8
CONTOURS_MAJEURES
10
32.005
20
57.200
0
VERTEX
8
CONTOURS_MAJEURES
10
33.200
20
57.200
0
VERTEX
8
CONTOURS_MAJEURES
10
33.997
20
57.200
0
VERTEX
8
CONTOURS_MAJEURES
10
34.627
20
57.371
0
VERTEX
8
CONTOURS_MAJEURES
10
36.000
20
57.605
0
VERTEX
8
CONTOURS_MAJEURES
10
37.608
20
57.605
0
VERTEX
8
CONTOURS_MAJEURES
10
38.003
20
57.605
0
VERTEX
8
CONTOURS_MAJEURES
10
38.368
20
57.634
0
VERTEX
8
CONTOURS_MAJEURES
10
39.996
20
57.740
0
VERTEX
8
CONTOURS_MAJEURES
10
41.738
20
57.740
0
VERTEX
8
CONTOURS_MAJEURES
10
41.999
20
57.740
0
VERTEX
8
CONTOURS_MAJEURES
10
42.449
20
57.551
0
VERTEX
8
CONTOURS_MAJEURES
10
44.002
20
57.007
0
VERTEX
8
CONTOURS_MAJEURES
10
45.010
20
57.007
0
VERTEX
8
CONTOURS_MAJEURES
10
46.005
20
57.007
0
VERTEX
8
CONTOURS_MAJEURES
10
46.993
20
57.007
0
VERTEX
8
CONTOURS_MAJEURES
10
47.997
20
57.007
0
VERTEX
8
CONTOURS_MAJEURES
10
48.748
20
56.750
0
VERTEX
8
CONTOURS_MAJEURES
10
50.000
20
56.189
0
VERTEX
8
CONTOURS_MAJEURES
10
51.813
20
56.189
0
VERTEX
8
CONTOURS_MAJEURES
10
52.003
20
56.189
0
VERTEX
8
CONTOURS_MAJEURES
10
52.534
20
56.000
0
VERTEX
8
CONTOURS_MAJEURES
10
52.534
20
54.532
0
VERTEX
8
CONTOURS_MAJEURES
10
52.534
20
53.999
0
VERTEX
8
CONTOURS_MAJEURES
10
53.995
20
53.479
0
VERTEX
8
CONTOURS_MAJEURES
10
55.478
20
53.479
0
VERTEX
8
CONTOURS_MAJEURES
10
55.998
20
53.479
0
VERTEX
8
CONTOURS_MAJEURES
10
57.862
20
51.998
0
VERTEX
8
CONTOURS_MAJEURES
10
57.862
20
50.136
0
VERTEX
8
CONTOURS_MAJEURES
10
57.862
20
49.997
0
VERTEX
8
CONTOURS_MAJEURES
10
57.939
20
49.936
0
VERTEX
8
CONTOURS_MAJEURES
10
58.001
20
49.733
0
VERTEX
8
CONTOURS_MAJEURES
10
59.739
20
49.733
0
VERTEX
8
CONTOURS_MAJEURES
10
60.004
20
49.733
0
VERTEX
8
CONTOURS_MAJEURES
10
60.267
20
49.733
0
VERTEX
8
CONTOURS_MAJEURES
10
61.996
20
49.733
0
VERTEX
8
CONTOURS_MAJEURES
10
62.529
20
48.528
0
VERTEX
8
CONTOURS_MAJEURES
10
62.834
20
47.996
0
VERTEX
8
CONTOURS_MAJEURES
10
62.834
20
47.160
0
VERTEX
8
CONTOURS_MAJEURES
10
62.834
20
45.996
0
VERTEX
8
CONTOURS_MAJEURES
10
62.834
20
44.832
0
VERTEX
8
CONTOURS_MAJEURES
10
62.834
20
43.995
0
VERTEX
8
CONTOURS_MAJEURES
10
63.568
20
43.566
0
VERTEX
8
CONTOURS_MAJEURES
10
63.999
20
43.553
0
VERTEX
8
CONTOURS_MAJEURES
10
64.444
20
43.553
0
VERTEX
8
CONTOURS_MAJEURES
10
66.002
20
43.553
0
VERTEX
8
CONTOURS_MAJEURES
10
67.117
20
43.995
0
VERTEX
8
CONTOURS_MAJEURES
10
67.117
20
44.882
0
VERTEX
8
CONTOURS_MAJEURES
10
67.117
20
45.996
0
VERTEX
8
CONTOURS_MAJEURES
10
67.117
20
46.883
0
VERTEX
8
CONTOURS_MAJEURES
10
67.117
20
47.996
0
VERTEX
8
CONTOURS_MAJEURES
10
68.005
20
48.672
0
VERTEX
8
CONTOURS_MAJEURES
10
69.325
20
48.672
0
VERTEX
8
CONTOURS_MAJEURES
10
69.997
20
48.672
0
VERTEX
8
CONTOURS_MAJEURES
10
70.783
20
49.997
0
VERTEX
8
CONTOURS_MAJEURES
10
70.783
20
51.213
0
VERTEX
8
CONTOURS_MAJEURES
10
70.783
20
51.998
0
VERTEX
8
CONTOURS_MAJEURES
10
70.851
20
53.147
0
VERTEX
8
CONTOURS_MAJEURES
10
71.249
20
53.999
0
VERTEX
8
CONTOURS_MAJEURES
10
71.249
20
55.249
0
VERTEX
8
CONTOURS_MAJEURES
10
71.249
20
56.000
0
VERTEX
8
CONTOURS_MAJEURES
10
71.265
20
56.734
0
VERTEX
8
CONTOURS_MAJEURES
10
71.322
20
58.000
0
VERTEX
8
CONTOURS_MAJEURES
10
71.322
20
59.323
0
VERTEX
8
CONTOURS_MAJEURES
10
71.322
20
60.001
0
VERTEX
8
CONTOURS_MAJEURES
10
71.322
20
60.679
0
VERTEX
8
CONTOURS_MAJEURES
10
71.322
20
62.002
0
VERTEX
8
CONTOURS_MAJEURES
10
71.214
20
63.217
0
VERTEX
8
CONTOURS_MAJEURES
10
71.129
20
64.003
0
VERTEX
8
CONTOURS_MAJEURES
10
71.129
20
64.873
0
VERTEX
8
CONTOURS_MAJEURES
10
71.129
20
66.003
0
SEQEND
0
POLYLINE
8
PARCELLE
66
1
70
1
0
VERTEX
8
PARCELLE
10
25.107
20
20.000
0
VERTEX
8
PARCELLE
10
20.000
20
39.914
0
VERTEX
8
PARCELLE
10
31.180
20
42.539
0
VERTEX
8
PARCELLE
10
44.893
20
45.701
0
VERTEX
8
PARCELLE
10
48.459
20
46.387
0
VERTEX
8
PARCELLE
10
50.218
20
39.859
0
VERTEX
8
PARCELLE
10
51.637
20
34.282
0
VERTEX
8
PARCELLE
10
52.244
20
31.869
0
VERTEX
8
PARCELLE
10
32.026
20
23.473
0
VERTEX
8
PARCELLE
10
25.107
20
20.000
0
SEQEND
0
TEXT
8
POINTS_COTES
10
0.000
20
-0.000
40
1.0
1
1.5
0
TEXT
8
POINTS_COTES
10
50.000
20
2.001
40
1.0
1
1.7
0
TEXT
8
POINTS_COTES
10
25.996
20
6.002
40
1.0
1
1.5
0
TEXT
8
POINTS_COTES
10
2.003
20
10.004
40
1.0
1
2.0
0
TEXT
8
POINTS_COTES
10
52.003
20
12.005
40
1.0
1
1.9
0
TEXT
8
POINTS_COTES
10
27.999
20
15.995
40
1.0
1
1.9
0
TEXT
8
POINTS_COTES
10
3.995
20
19.997
40
1.0
1
3.1
0
TEXT
8
POINTS_COTES
10
53.995
20
21.997
40
1.0
1
2.3
0
TEXT
8
POINTS_COTES
10
30.002
20
25.999
40
1.0
1
2.1
0
TEXT
8
POINTS_COTES
10
5.998
20
30.001
40
1.0
1
4.4
0
TEXT
8
POINTS_COTES
10
55.998
20
32.001
40
1.0
1
3.3
0
TEXT
8
POINTS_COTES
10
32.005
20
36.003
40
1.0
1
3.3
0
TEXT
8
POINTS_COTES
10
8.001
20
40.004
40
1.0
1
7.3
0
TEXT
8
POINTS_COTES
10
58.001
20
42.005
40
1.0
1
7.7
0
TEXT
8
POINTS_COTES
10
33.997
20
45.996
40
1.0
1
6.4
0
TEXT
8
POINTS_COTES
10
10.004
20
49.997
40
1.0
1
8.5
0
TEXT
8
POINTS_COTES
10
60.004
20
51.998
40
1.0
1
10.1
0
TEXT
8
POINTS_COTES
10
36.000
20
56.000
40
1.0
1
8.8
0
TEXT
8
POINTS_COTES
10
11.997
20
60.001
40
1.0
1
10.1
0
TEXT
8
POINTS_COTES
10
61.996
20
62.002
40
1.0
1
11.7
0
TEXT
8
POINTS_COTES
10
38.003
20
66.003
40
1.0
1
11.8
0
ENDSEC
0
EOF
