0
SECTION
2
HEADER
0
ENDSEC
0
SECTION
2
TABLES
0
TABLE
2
LAYER
70
4
0
LAYER
2
CONTOURS_MINEURES
70
0
62
8
6
CONTINUOUS
0
LAYER
2
CONTOURS_MAJEURES
70
0
62
3
6
CONTINUOUS
0
LAYER
2
PARCELLE
70
0
62
4
6
CONTINUOUS
0
LAYER
2
POINTS_COTES
70
0
62
7
6
CONTINUOUS
0
ENDTAB
0
ENDSEC
0
SECTION
2
ENTITIES
0
POLYLINE
8
CONTOURS_MINEURES
66
1
70
0
0
VERTEX
8
CONTOURS_MINEURES
10
-0.001
20
0.623
0
VERTEX
8
CONTOURS_MINEURES
10
0.525
20
-0.001
0
SEQEND
0
POLYLINE
8
CONTOURS_MINEURES
66
1
70
0
0
VERTEX
8
CONTOURS_MINEURES
10
-0.001
20
19.107
0
VERTEX
8
CONTOURS_MINEURES
10
3.030
20
18.030
0
VERTEX
8
CONTOURS_MINEURES
10
4.996
20
15.998
0
VERTEX
8
CONTOURS_MINEURES
10
5.585
20
15.587
0
VERTEX
8
CONTOURS_MINEURES
10
5.965
20
14.999
0
VERTEX
8
CONTOURS_MINEURES
10
10.002
20
12.397
0
VERTEX
8
CONTOURS_MINEURES
10
13.289
20
11.712
0
VERTEX
8
CONTOURS_MINEURES
10
14.999
20
11.356
0
VERTEX
8
CONTOURS_MINEURES
10
15.764
20
10.767
0
VERTEX
8
CONTOURS_MINEURES
10
16.758
20
10.003
0
VERTEX
8
CONTOURS_MINEURES
10
20.005
20
7.072
0
VERTEX
8
CONTOURS_MINEURES
10
21.236
20
4.995
0
VERTEX
8
CONTOURS_MINEURES
10
22.429
20
2.423
0
VERTEX
8
CONTOURS_MINEURES
10
24.902
20
-0.001
0
SEQEND
0
POLYLINE
8
CONTOURS_MINEURES
66
1
70
0
0
VERTEX
8
CONTOURS_MINEURES
10
88.169
20
-0.001
0
VERTEX
8
CONTOURS_MINEURES
10
90.005
20
0.653
0
VERTEX
8
CONTOURS_MINEURES
10
91.254
20
1.248
0
VERTEX
8
CONTOURS_MINEURES
10
95.001
20
1.825
0
VERTEX
8
CONTOURS_MINEURES
10
97.316
20
2.314
0
VERTEX
8
CONTOURS_MINEURES
10
99.997
20
2.177
0
VERTEX
8
CONTOURS_MINEURES
10
103.669
20
1.331
0
VERTEX
8
CONTOURS_MINEURES
10
105.004
20
2.350
0
VERTEX
8
CONTOURS_MINEURES
10
108.001
20
1.997
0
VERTEX
8
CONTOURS_MINEURES
10
110.000
20
1.498
0
VERTEX
8
CONTOURS_MINEURES
10
111.249
20
1.248
0
VERTEX
8
CONTOURS_MINEURES
10
111.873
20
-0.001
0
SEQEND
0
POLYLINE
8
CONTOURS_MINEURES
66
1
70
0
0
VERTEX
8
CONTOURS_MINEURES
10
-0.001
20
28.840
0
VERTEX
8
CONTOURS_MINEURES
10
4.475
20
29.479
0
VERTEX
8
CONTOURS_MINEURES
10
4.996
20
29.479
0
VERTEX
8
CONTOURS_MINEURES
10
5.778
20
29.219
0
VERTEX
8
CONTOURS_MINEURES
10
10.002
20
28.215
0
VERTEX
8
CONTOURS_MINEURES
10
12.110
20
27.111
0
VERTEX
8
CONTOURS_MINEURES
10
14.999
20
25.490
0
VERTEX
8
CONTOURS_MINEURES
10
15.487
20
25.003
0
VERTEX
8
CONTOURS_MINEURES
10
17.468
20
22.465
0
VERTEX
8
CONTOURS_MINEURES
10
18.533
20
19.996
0
VERTEX
8
CONTOURS_MINEURES
10
20.005
20
18.253
0
VERTEX
8
CONTOURS_MINEURES
10
21.364
20
16.357
0
VERTEX
8
CONTOURS_MINEURES
10
21.922
20
14.999
0
VERTEX
8
CONTOURS_MINEURES
10
23.143
20
13.141
0
VERTEX
8
CONTOURS_MINEURES
10
24.752
20
10.003
0
VERTEX
8
CONTOURS_MINEURES
10
25.001
20
9.618
0
VERTEX
8
CONTOURS_MINEURES
10
27.376
20
7.375
0
VERTEX
8
CONTOURS_MINEURES
10
29.442
20
4.995
0
VERTEX
8
CONTOURS_MINEURES
10
29.998
20
4.396
0
VERTEX
8
CONTOURS_MINEURES
10
32.445
20
2.442
0
VERTEX
8
CONTOURS_MINEURES
10
35.004
20
0.739
0
VERTEX
8
CONTOURS_MINEURES
10
35.374
20
0.369
0
VERTEX
8
CONTOURS_MINEURES
10
36.294
20
-0.001
0
SEQEND
0
POLYLINE
8
CONTOURS_MINEURES
66
1
70
0
0
VERTEX
8
CONTOURS_MINEURES
10
65.402
20
-0.001
0
VERTEX
8
CONTOURS_MINEURES
10
69.315
20
0.683
0
VERTEX
8
CONTOURS_MINEURES
10
69.999
20
0.820
0
VERTEX
8
CONTOURS_MINEURES
10
70.933
20
0.933
0
VERTEX
8
CONTOURS_MINEURES
10
74.995
20
1.181
0
VERTEX
8
CONTOURS_MINEURES
10
78.448
20
1.550
0
VERTEX
8
CONTOURS_MINEURES
10
80.002
20
1.616
0
VERTEX
8
CONTOURS_MINEURES
10
82.344
20
2.341
0
VERTEX
8
CONTOURS_MINEURES
10
84.998
20
3.065
0
VERTEX
8
CONTOURS_MINEURES
10
88.271
20
4.995
0
VERTEX
8
CONTOURS_MINEURES
10
90.005
20
5.642
0
VERTEX
8
CONTOURS_MINEURES
10
93.656
20
6.343
0
VERTEX
8
CONTOURS_MINEURES
10
95.001
20
6.799
0
VERTEX
8
CONTOURS_MINEURES
10
98.019
20
6.978
0
VERTEX
8
CONTOURS_MINEURES
10
99.997
20
7.599
0
VERTEX
8
CONTOURS_MINEURES
10
102.728
20
10.003
0
VERTEX
8
CONTOURS_MINEURES
10
105.004
20
11.962
0
VERTEX
8
CONTOURS_MINEURES
10
107.614
20
12.389
0
VERTEX
8
CONTOURS_MINEURES
10
110.000
20
14.427
0
VERTEX
8
CONTOURS_MINEURES
10
111.570
20
14.999
0
VERTEX
8
CONTOURS_MINEURES
10
114.558
20
15.437
0
VERTEX
8
CONTOURS_MINEURES
10
114.996
20
15.525
0
VERTEX
8
CONTOURS_MINEURES
10
119.398
20
15.602
0
VERTEX
8
CONTOURS_MINEURES
10
120.003
20
15.682
0
VERTEX
8
CONTOURS_MINEURES
10
120.835
20
15.832
0
VERTEX
8
CONTOURS_MINEURES
10
124.999
20
15.905
0
VERTEX
8
CONTOURS_MINEURES
10
126.038
20
16.039
0
VERTEX
8
CONTOURS_MINEURES
10
129.995
20
15.985
0
VERTEX
8
CONTOURS_MINEURES
10
133.908
20
16.091
0
VERTEX
8
CONTOURS_MINEURES
10
135.002
20
16.648
0
VERTEX
8
CONTOURS_MINEURES
10
137.500
20
17.497
0
VERTEX
8
CONTOURS_MINEURES
10
139.998
20
17.336
0
VERTEX
8
CONTOURS_MINEURES
10
144.838
20
14.999
0
VERTEX
8
CONTOURS_MINEURES
10
144.853
20
14.848
0
VERTEX
8
CONTOURS_MINEURES
10
145.005
20
13.334
0
VERTEX
8
CONTOURS_MINEURES
10
145.248
20
10.246
0
VERTEX
8
CONTOURS_MINEURES
10
145.299
20
10.003
0
VERTEX
8
CONTOURS_MINEURES
10
145.560
20
5.552
0
VERTEX
8
CONTOURS_MINEURES
10
145.593
20
4.995
0
VERTEX
8
CONTOURS_MINEURES
10
145.718
20
4.282
0
VERTEX
8
CONTOURS_MINEURES
10
146.254
20
-0.001
0
SEQEND
0
POLYLINE
8
CONTOURS_MINEURES
66
1
70
0
0
VERTEX
8
CONTOURS_MINEURES
10
-0.001
20
38.492
0
VERTEX
8
CONTOURS_MINEURES
10
1.289
20
38.711
0
VERTEX
8
CONTOURS_MINEURES
10
4.996
20
39.697
0
VERTEX
8
CONTOURS_MINEURES
10
5.337
20
39.662
0
VERTEX
8
CONTOURS_MINEURES
10
10.002
20
39.884
0
VERTEX
8
CONTOURS_MINEURES
10
14.270
20
39.273
0
VERTEX
8
CONTOURS_MINEURES
10
14.999
20
38.873
0
VERTEX
8
CONTOURS_MINEURES
10
18.432
20
34.996
0
VERTEX
8
CONTOURS_MINEURES
10
19.261
20
34.253
0
VERTEX
8
CONTOURS_MINEURES
10
20.005
20
33.379
0
VERTEX
8
CONTOURS_MINEURES
10
21.773
20
31.767
0
VERTEX
8
CONTOURS_MINEURES
10
22.258
20
29.999
0
VERTEX
8
CONTOURS_MINEURES
10
25.001
20
26.412
0
VERTEX
8
CONTOURS_MINEURES
10
26.146
20
26.148
0
VERTEX
8
CONTOURS_MINEURES
10
27.037
20
25.003
0
VERTEX
8
CONTOURS_MINEURES
10
29.581
20
20.413
0
VERTEX
8
CONTOURS_MINEURES
10
29.805
20
19.996
0
VERTEX
8
CONTOURS_MINEURES
10
29.998
20
19.746
0
VERTEX
8
CONTOURS_MINEURES
10
31.759
20
14.999
0
VERTEX
8
CONTOURS_MINEURES
10
32.867
20
12.867
0
VERTEX
8
CONTOURS_MINEURES
10
34.800
20
10.003
0
VERTEX
8
CONTOURS_MINEURES
10
35.004
20
9.824
0
VERTEX
8
CONTOURS_MINEURES
10
40.001
20
4.995
0
VERTEX
8
CONTOURS_MINEURES
10
44.997
20
2.827
0
VERTEX
8
CONTOURS_MINEURES
10
47.149
20
2.847
0
VERTEX
8
CONTOURS_MINEURES
10
50.003
20
2.518
0
VERTEX
8
CONTOURS_MINEURES
10
52.309
20
2.689
0
VERTEX
8
CONTOURS_MINEURES
10
55.000
20
2.938
0
VERTEX
8
CONTOURS_MINEURES
10
57.890
20
2.889
0
VERTEX
8
CONTOURS_MINEURES
10
59.996
20
2.957
0
VERTEX
8
CONTOURS_MINEURES
10
61.710
20
3.285
0
VERTEX
8
CONTOURS_MINEURES
10
65.003
20
3.423
0
VERTEX
8
CONTOURS_MINEURES
10
66.341
20
3.657
0
VERTEX
8
CONTOURS_MINEURES
10
69.999
20
4.389
0
VERTEX
8
CONTOURS_MINEURES
10
74.995
20
4.995
0
VERTEX
8
CONTOURS_MINEURES
10
80.002
20
5.218
0
VERTEX
8
CONTOURS_MINEURES
10
80.224
20
5.218
0
VERTEX
8
CONTOURS_MINEURES
10
84.998
20
6.374
0
VERTEX
8
CONTOURS_MINEURES
10
86.871
20
6.868
0
VERTEX
8
CONTOURS_MINEURES
10
90.005
20
8.038
0
VERTEX
8
CONTOURS_MINEURES
10
91.650
20
8.354
0
VERTEX
8
CONTOURS_MINEURES
10
95.001
20
9.491
0
VERTEX
8
CONTOURS_MINEURES
10
95.483
20
9.520
0
VERTEX
8
CONTOURS_MINEURES
10
97.020
20
10.003
0
VERTEX
8
CONTOURS_MINEURES
10
99.499
20
10.501
0
VERTEX
8
CONTOURS_MINEURES
10
99.997
20
10.619
0
VERTEX
8
CONTOURS_MINEURES
10
104.834
20
14.999
0
VERTEX
8
CONTOURS_MINEURES
10
104.911
20
15.091
0
VERTEX
8
CONTOURS_MINEURES
10
105.004
20
15.156
0
VERTEX
8
CONTOURS_MINEURES
10
105.226
20
15.222
0
VERTEX
8
CONTOURS_MINEURES
10
110.000
20
16.860
0
VERTEX
8
CONTOURS_MINEURES
10
112.735
20
17.260
0
VERTEX
8
CONTOURS_MINEURES
10
114.996
20
17.717
0
VERTEX
8
CONTOURS_MINEURES
10
117.240
20
17.756
0
VERTEX
8
CONTOURS_MINEURES
10
120.003
20
18.119
0
VERTEX
8
CONTOURS_MINEURES
10
123.809
20
18.806
0
VERTEX
8
CONTOURS_MINEURES
10
124.999
20
18.827
0
VERTEX
8
CONTOURS_MINEURES
10
129.391
20
19.392
0
VERTEX
8
CONTOURS_MINEURES
10
129.995
20
19.384
0
VERTEX
8
CONTOURS_MINEURES
10
130.592
20
19.400
0
VERTEX
8
CONTOURS_MINEURES
10
131.762
20
19.996
0
VERTEX
8
CONTOURS_MINEURES
10
135.002
20
21.016
0
VERTEX
8
CONTOURS_MINEURES
10
138.290
20
21.707
0
VERTEX
8
CONTOURS_MINEURES
10
139.998
20
22.658
0
VERTEX
8
CONTOURS_MINEURES
10
144.657
20
24.655
0
VERTEX
8
CONTOURS_MINEURES
10
145.005
20
24.669
0
VERTEX
8
CONTOURS_MINEURES
10
145.451
20
24.556
0
VERTEX
8
CONTOURS_MINEURES
10
146.091
20
25.003
0
VERTEX
8
CONTOURS_MINEURES
10
149.413
20
25.591
0
VERTEX
8
CONTOURS_MINEURES
10
150.001
20
26.156
0
VERTEX
8
CONTOURS_MINEURES
10
154.283
20
29.286
0
VERTEX
8
CONTOURS_MINEURES
10
154.997
20
29.483
0
VERTEX
8
CONTOURS_MINEURES
10
156.499
20
28.501
0
VERTEX
8
CONTOURS_MINEURES
10
156.363
20
29.999
0
VERTEX
8
CONTOURS_MINEURES
10
158.001
20
32.997
0
VERTEX
8
CONTOURS_MINEURES
10
159.861
20
34.996
0
VERTEX
8
CONTOURS_MINEURES
10
159.937
20
35.063
0
VERTEX
8
CONTOURS_MINEURES
10
160.004
20
35.552
0
VERTEX
8
CONTOURS_MINEURES
10
160.420
20
35.413
0
VERTEX
8
CONTOURS_MINEURES
10
163.335
20
34.996
0
VERTEX
8
CONTOURS_MINEURES
10
162.502
20
32.498
0
VERTEX
8
CONTOURS_MINEURES
10
164.001
20
29.999
0
VERTEX
8
CONTOURS_MINEURES
10
163.890
20
28.889
0
VERTEX
8
CONTOURS_MINEURES
10
165.000
20
26.669
0
VERTEX
8
CONTOURS_MINEURES
10
165.999
20
25.003
0
VERTEX
8
CONTOURS_MINEURES
10
168.944
20
23.949
0
VERTEX
8
CONTOURS_MINEURES
10
169.996
20
23.000
0
VERTEX
8
CONTOURS_MINEURES
10
173.334
20
19.996
0
VERTEX
8
CONTOURS_MINEURES
10
175.003
20
17.854
0
VERTEX
8
CONTOURS_MINEURES
10
179.000
20
18.996
0
VERTEX
8
CONTOURS_MINEURES
10
179.999
20
18.746
0
SEQEND
0
POLYLINE
8
CONTOURS_MINEURES
66
1
70
0
0
VERTEX
8
CONTOURS_MINEURES
10
179.999
20
12.501
0
VERTEX
8
CONTOURS_MINEURES
10
177.858
20
12.144
0
VERTEX
8
CONTOURS_MINEURES
10
175.003
20
11.002
0
VERTEX
8
CONTOURS_MINEURES
10
174.447
20
10.003
0
VERTEX
8
CONTOURS_MINEURES
10
175.003
20
9.548
0
VERTEX
8
CONTOURS_MINEURES
10
175.387
20
9.618
0
VERTEX
8
CONTOURS_MINEURES
10
179.999
20
9.001
0
SEQEND
0
POLYLINE
8
CONTOURS_MINEURES
66
1
70
0
0
VERTEX
8
CONTOURS_MINEURES
10
-0.001
20
49.019
0
VERTEX
8
CONTOURS_MINEURES
10
2.248
20
49.996
0
VERTEX
8
CONTOURS_MINEURES
10
4.996
20
51.076
0
VERTEX
8
CONTOURS_MINEURES
10
6.035
20
51.035
0
VERTEX
8
CONTOURS_MINEURES
10
10.002
20
50.959
0
VERTEX
8
CONTOURS_MINEURES
10
12.632
20
49.996
0
VERTEX
8
CONTOURS_MINEURES
10
14.999
20
49.234
0
VERTEX
8
CONTOURS_MINEURES
10
18.735
20
48.728
0
VERTEX
8
CONTOURS_MINEURES
10
20.005
20
48.479
0
VERTEX
8
CONTOURS_MINEURES
10
22.028
20
47.974
0
VERTEX
8
CONTOURS_MINEURES
10
25.001
20
49.163
0
VERTEX
8
CONTOURS_MINEURES
10
27.083
20
49.996
0
VERTEX
8
CONTOURS_MINEURES
10
29.026
20
50.970
0
VERTEX
8
CONTOURS_MINEURES
10
29.998
20
51.127
0
VERTEX
8
CONTOURS_MINEURES
10
30.699
20
50.697
0
VERTEX
8
CONTOURS_MINEURES
10
31.458
20
49.996
0
VERTEX
8
CONTOURS_MINEURES
10
35.004
20
46.135
0
VERTEX
8
CONTOURS_MINEURES
10
35.366
20
45.362
0
VERTEX
8
CONTOURS_MINEURES
10
35.629
20
45.000
0
VERTEX
8
CONTOURS_MINEURES
10
37.275
20
42.729
0
VERTEX
8
CONTOURS_MINEURES
10
38.967
20
40.003
0
VERTEX
8
CONTOURS_MINEURES
10
40.001
20
36.248
0
VERTEX
8
CONTOURS_MINEURES
10
40.334
20
34.996
0
VERTEX
8
CONTOURS_MINEURES
10
40.001
20
29.999
0
VERTEX
8
CONTOURS_MINEURES
10
41.764
20
25.003
0
VERTEX
8
CONTOURS_MINEURES
10
42.316
20
22.316
0
VERTEX
8
CONTOURS_MINEURES
10
41.899
20
19.996
0
VERTEX
8
CONTOURS_MINEURES
10
42.074
20
17.073
0
VERTEX
8
CONTOURS_MINEURES
10
41.929
20
14.999
0
VERTEX
8
CONTOURS_MINEURES
10
43.141
20
11.859
0
VERTEX
8
CONTOURS_MINEURES
10
43.877
20
10.003
0
VERTEX
8
CONTOURS_MINEURES
10
44.422
20
9.427
0
VERTEX
8
CONTOURS_MINEURES
10
44.997
20
9.031
0
VERTEX
8
CONTOURS_MINEURES
10
46.225
20
8.775
0
VERTEX
8
CONTOURS_MINEURES
10
50.003
20
7.196
0
VERTEX
8
CONTOURS_MINEURES
10
52.249
20
7.246
0
VERTEX
8
CONTOURS_MINEURES
10
55.000
20
7.549
0
VERTEX
8
CONTOURS_MINEURES
10
57.498
20
7.499
0
VERTEX
8
CONTOURS_MINEURES
10
59.996
20
7.525
0
VERTEX
8
CONTOURS_MINEURES
10
62.578
20
7.578
0
VERTEX
8
CONTOURS_MINEURES
10
65.003
20
7.722
0
VERTEX
8
CONTOURS_MINEURES
10
68.395
20
8.395
0
VERTEX
8
CONTOURS_MINEURES
10
69.999
20
8.808
0
VERTEX
8
CONTOURS_MINEURES
10
71.030
20
8.969
0
VERTEX
8
CONTOURS_MINEURES
10
74.995
20
9.203
0
VERTEX
8
CONTOURS_MINEURES
10
78.876
20
8.877
0
VERTEX
8
CONTOURS_MINEURES
10
80.002
20
8.927
0
VERTEX
8
CONTOURS_MINEURES
10
83.925
20
8.927
0
VERTEX
8
CONTOURS_MINEURES
10
84.998
20
9.187
0
VERTEX
8
CONTOURS_MINEURES
10
88.087
20
10.003
0
VERTEX
8
CONTOURS_MINEURES
10
89.540
20
10.466
0
VERTEX
8
CONTOURS_MINEURES
10
90.005
20
10.462
0
VERTEX
8
CONTOURS_MINEURES
10
90.530
20
10.529
0
VERTEX
8
CONTOURS_MINEURES
10
95.001
20
11.732
0
VERTEX
8
CONTOURS_MINEURES
10
97.721
20
12.279
0
VERTEX
8
CONTOURS_MINEURES
10
99.997
20
12.820
0
VERTEX
8
CONTOURS_MINEURES
10
102.403
20
14.999
0
VERTEX
8
CONTOURS_MINEURES
10
103.594
20
16.406
0
VERTEX
8
CONTOURS_MINEURES
10
105.004
20
17.397
0
VERTEX
8
CONTOURS_MINEURES
10
108.409
20
18.404
0
VERTEX
8
CONTOURS_MINEURES
10
110.000
20
18.950
0
VERTEX
8
CONTOURS_MINEURES
10
110.912
20
19.084
0
VERTEX
8
CONTOURS_MINEURES
10
114.996
20
19.908
0
VERTEX
8
CONTOURS_MINEURES
10
115.082
20
19.909
0
VERTEX
8
CONTOURS_MINEURES
10
115.738
20
19.996
0
VERTEX
8
CONTOURS_MINEURES
10
119.578
20
20.421
0
VERTEX
8
CONTOURS_MINEURES
10
120.003
20
20.492
0
VERTEX
8
CONTOURS_MINEURES
10
120.656
20
20.650
0
VERTEX
8
CONTOURS_MINEURES
10
124.999
20
21.406
0
VERTEX
8
CONTOURS_MINEURES
10
128.252
20
21.743
0
VERTEX
8
CONTOURS_MINEURES
10
129.995
20
22.264
0
VERTEX
8
CONTOURS_MINEURES
10
133.694
20
23.695
0
VERTEX
8
CONTOURS_MINEURES
10
135.002
20
24.107
0
VERTEX
8
CONTOURS_MINEURES
10
135.741
20
24.262
0
VERTEX
8
CONTOURS_MINEURES
10
137.072
20
25.003
0
VERTEX
8
CONTOURS_MINEURES
10
139.998
20
26.342
0
VERTEX
8
CONTOURS_MINEURES
10
142.699
20
27.698
0
VERTEX
8
CONTOURS_MINEURES
10
145.005
20
28.654
0
VERTEX
8
CONTOURS_MINEURES
10
146.148
20
28.856
0
VERTEX
8
CONTOURS_MINEURES
10
147.336
20
29.999
0
VERTEX
8
CONTOURS_MINEURES
10
150.001
20
32.148
0
VERTEX
8
CONTOURS_MINEURES
10
151.766
20
33.230
0
VERTEX
8
CONTOURS_MINEURES
10
153.116
20
34.996
0
VERTEX
8
CONTOURS_MINEURES
10
154.028
20
35.967
0
VERTEX
8
CONTOURS_MINEURES
10
154.997
20
37.024
0
VERTEX
8
CONTOURS_MINEURES
10
156.576
20
38.424
0
VERTEX
8
CONTOURS_MINEURES
10
156.793
20
40.003
0
VERTEX
8
CONTOURS_MINEURES
10
157.043
20
42.045
0
VERTEX
8
CONTOURS_MINEURES
10
157.554
20
45.000
0
VERTEX
8
CONTOURS_MINEURES
10
157.959
20
47.956
0
VERTEX
8
CONTOURS_MINEURES
10
157.794
20
49.996
0
VERTEX
8
CONTOURS_MINEURES
10
158.025
20
51.975
0
VERTEX
8
CONTOURS_MINEURES
10
158.679
20
55.004
0
VERTEX
8
CONTOURS_MINEURES
10
159.017
20
55.988
0
VERTEX
8
CONTOURS_MINEURES
10
160.004
20
58.141
0
VERTEX
8
CONTOURS_MINEURES
10
162.936
20
57.936
0
VERTEX
8
CONTOURS_MINEURES
10
165.000
20
57.033
0
VERTEX
8
CONTOURS_MINEURES
10
168.821
20
55.004
0
VERTEX
8
CONTOURS_MINEURES
10
169.496
20
54.503
0
VERTEX
8
CONTOURS_MINEURES
10
169.996
20
54.002
0
VERTEX
8
CONTOURS_MINEURES
10
171.109
20
53.891
0
VERTEX
8
CONTOURS_MINEURES
10
175.003
20
53.891
0
VERTEX
8
CONTOURS_MINEURES
10
176.430
20
53.573
0
VERTEX
8
CONTOURS_MINEURES
10
179.999
20
52.632
0
SEQEND
0
POLYLINE
8
CONTOURS_MINEURES
66
1
70
0
0
VERTEX
8
CONTOURS_MINEURES
10
-0.001
20
62.701
0
VERTEX
8
CONTOURS_MINEURES
10
2.562
20
62.562
0
VERTEX
8
CONTOURS_MINEURES
10
4.996
20
62.623
0
VERTEX
8
CONTOURS_MINEURES
10
7.499
20
62.498
0
VERTEX
8
CONTOURS_MINEURES
10
10.002
20
62.235
0
VERTEX
8
CONTOURS_MINEURES
10
13.182
20
61.817
0
VERTEX
8
CONTOURS_MINEURES
10
14.999
20
61.763
0
VERTEX
8
CONTOURS_MINEURES
10
17.293
20
62.706
0
VERTEX
8
CONTOURS_MINEURES
10
20.005
20
63.937
0
VERTEX
8
CONTOURS_MINEURES
10
20.926
20
64.996
0
VERTEX
8
CONTOURS_MINEURES
10
22.820
20
67.183
0
VERTEX
8
CONTOURS_MINEURES
10
25.001
20
67.871
0
VERTEX
8
CONTOURS_MINEURES
10
26.885
20
68.116
0
VERTEX
8
CONTOURS_MINEURES
10
29.998
20
69.133
0
VERTEX
8
CONTOURS_MINEURES
10
34.876
20
64.996
0
VERTEX
8
CONTOURS_MINEURES
10
34.910
20
64.902
0
VERTEX
8
CONTOURS_MINEURES
10
35.004
20
64.758
0
VERTEX
8
CONTOURS_MINEURES
10
35.718
20
64.283
0
VERTEX
8
CONTOURS_MINEURES
10
40.001
20
61.153
0
VERTEX
8
CONTOURS_MINEURES
10
40.536
20
60.535
0
VERTEX
8
CONTOURS_MINEURES
10
41.071
20
60.000
0
VERTEX
8
CONTOURS_MINEURES
10
42.726
20
57.275
0
VERTEX
8
CONTOURS_MINEURES
10
44.105
20
55.004
0
VERTEX
8
CONTOURS_MINEURES
10
44.997
20
52.500
0
VERTEX
8
CONTOURS_MINEURES
10
45.252
20
50.252
0
VERTEX
8
CONTOURS_MINEURES
10
45.359
20
49.996
0
VERTEX
8
CONTOURS_MINEURES
10
45.488
20
49.506
0
VERTEX
8
CONTOURS_MINEURES
10
46.849
20
45.000
0
VERTEX
8
CONTOURS_MINEURES
10
47.647
20
42.355
0
VERTEX
8
CONTOURS_MINEURES
10
48.556
20
40.003
0
VERTEX
8
CONTOURS_MINEURES
10
48.752
20
38.751
0
VERTEX
8
CONTOURS_MINEURES
10
49.447
20
34.996
0
VERTEX
8
CONTOURS_MINEURES
10
49.503
20
30.499
0
VERTEX
8
CONTOURS_MINEURES
10
49.527
20
29.999
0
VERTEX
8
CONTOURS_MINEURES
10
49.538
20
29.535
0
VERTEX
8
CONTOURS_MINEURES
10
48.825
20
25.003
0
VERTEX
8
CONTOURS_MINEURES
10
48.172
20
21.828
0
VERTEX
8
CONTOURS_MINEURES
10
48.027
20
19.996
0
VERTEX
8
CONTOURS_MINEURES
10
49.262
20
15.739
0
VERTEX
8
CONTOURS_MINEURES
10
49.223
20
14.999
0
VERTEX
8
CONTOURS_MINEURES
10
49.397
20
14.394
0
VERTEX
8
CONTOURS_MINEURES
10
50.003
20
14.016
0
VERTEX
8
CONTOURS_MINEURES
10
50.955
20
14.047
0
VERTEX
8
CONTOURS_MINEURES
10
55.000
20
13.493
0
VERTEX
8
CONTOURS_MINEURES
10
56.485
20
13.514
0
VERTEX
8
CONTOURS_MINEURES
10
59.996
20
13.377
0
VERTEX
8
CONTOURS_MINEURES
10
61.580
20
13.418
0
VERTEX
8
CONTOURS_MINEURES
10
65.003
20
13.253
0
VERTEX
8
CONTOURS_MINEURES
10
68.913
20
13.913
0
VERTEX
8
CONTOURS_MINEURES
10
69.999
20
14.157
0
VERTEX
8
CONTOURS_MINEURES
10
70.779
20
14.218
0
VERTEX
8
CONTOURS_MINEURES
10
74.995
20
14.050
0
VERTEX
8
CONTOURS_MINEURES
10
76.052
20
13.944
0
VERTEX
8
CONTOURS_MINEURES
10
80.002
20
12.911
0
VERTEX
8
CONTOURS_MINEURES
10
82.090
20
12.911
0
VERTEX
8
CONTOURS_MINEURES
10
84.998
20
12.416
0
VERTEX
8
CONTOURS_MINEURES
10
86.959
20
13.042
0
VERTEX
8
CONTOURS_MINEURES
10
90.005
20
13.011
0
VERTEX
8
CONTOURS_MINEURES
10
93.452
20
13.451
0
VERTEX
8
CONTOURS_MINEURES
10
95.001
20
13.868
0
VERTEX
8
CONTOURS_MINEURES
10
95.943
20
14.057
0
VERTEX
8
CONTOURS_MINEURES
10
99.904
20
14.999
0
VERTEX
8
CONTOURS_MINEURES
10
99.997
20
15.028
0
VERTEX
8
CONTOURS_MINEURES
10
102.276
20
17.721
0
VERTEX
8
CONTOURS_MINEURES
10
105.004
20
19.637
0
VERTEX
8
CONTOURS_MINEURES
10
106.215
20
19.996
0
VERTEX
8
CONTOURS_MINEURES
10
108.899
20
21.099
0
VERTEX
8
CONTOURS_MINEURES
10
110.000
20
21.166
0
VERTEX
8
CONTOURS_MINEURES
10
111.261
20
21.260
0
VERTEX
8
CONTOURS_MINEURES
10
114.996
20
21.966
0
VERTEX
8
CONTOURS_MINEURES
10
117.730
20
22.268
0
VERTEX
8
CONTOURS_MINEURES
10
120.003
20
22.650
0
VERTEX
8
CONTOURS_MINEURES
10
123.494
20
23.495
0
VERTEX
8
CONTOURS_MINEURES
10
124.999
20
23.757
0
VERTEX
8
CONTOURS_MINEURES
10
126.126
20
23.874
0
VERTEX
8
CONTOURS_MINEURES
10
129.902
20
25.003
0
VERTEX
8
CONTOURS_MINEURES
10
129.995
20
25.033
0
VERTEX
8
CONTOURS_MINEURES
10
133.502
20
26.500
0
VERTEX
8
CONTOURS_MINEURES
10
135.002
20
27.248
0
VERTEX
8
CONTOURS_MINEURES
10
139.276
20
29.277
0
VERTEX
8
CONTOURS_MINEURES
10
139.998
20
29.608
0
VERTEX
8
CONTOURS_MINEURES
10
140.778
20
29.999
0
VERTEX
8
CONTOURS_MINEURES
10
143.532
20
31.469
0
VERTEX
8
CONTOURS_MINEURES
10
145.005
20
32.640
0
VERTEX
8
CONTOURS_MINEURES
10
147.765
20
34.996
0
VERTEX
8
CONTOURS_MINEURES
10
150.001
20
37.938
0
VERTEX
8
CONTOURS_MINEURES
10
151.000
20
39.002
0
VERTEX
8
CONTOURS_MINEURES
10
151.918
20
40.003
0
VERTEX
8
CONTOURS_MINEURES
10
152.714
20
42.286
0
VERTEX
8
CONTOURS_MINEURES
10
153.422
20
45.000
0
VERTEX
8
CONTOURS_MINEURES
10
153.117
20
48.116
0
VERTEX
8
CONTOURS_MINEURES
10
152.977
20
49.996
0
VERTEX
8
CONTOURS_MINEURES
10
153.060
20
51.938
0
VERTEX
8
CONTOURS_MINEURES
10
153.528
20
55.004
0
VERTEX
8
CONTOURS_MINEURES
10
154.997
20
58.572
0
VERTEX
8
CONTOURS_MINEURES
10
155.362
20
59.635
0
VERTEX
8
CONTOURS_MINEURES
10
155.530
20
60.000
0
VERTEX
8
CONTOURS_MINEURES
10
156.865
20
63.132
0
VERTEX
8
CONTOURS_MINEURES
10
159.169
20
64.996
0
VERTEX
8
CONTOURS_MINEURES
10
160.004
20
66.085
0
VERTEX
8
CONTOURS_MINEURES
10
162.943
20
67.942
0
VERTEX
8
CONTOURS_MINEURES
10
165.000
20
69.207
0
VERTEX
8
CONTOURS_MINEURES
10
169.621
20
69.628
0
VERTEX
8
CONTOURS_MINEURES
10
169.996
20
69.677
0
VERTEX
8
CONTOURS_MINEURES
10
170.597
20
69.403
0
VERTEX
8
CONTOURS_MINEURES
10
175.003
20
67.821
0
VERTEX
8
CONTOURS_MINEURES
10
177.821
20
67.821
0
VERTEX
8
CONTOURS_MINEURES
10
179.999
20
67.764
0
SEQEND
0
POLYLINE
8
CONTOURS_MINEURES
66
1
70
0
0
VERTEX
8
CONTOURS_MINEURES
10
-0.001
20
76.785
0
VERTEX
8
CONTOURS_MINEURES
10
1.611
20
76.612
0
VERTEX
8
CONTOURS_MINEURES
10
4.996
20
76.379
0
VERTEX
8
CONTOURS_MINEURES
10
8.088
20
76.911
0
VERTEX
8
CONTOURS_MINEURES
10
10.002
20
78.419
0
VERTEX
8
CONTOURS_MINEURES
10
14.062
20
79.060
0
VERTEX
8
CONTOURS_MINEURES
10
14.999
20
79.420
0
VERTEX
8
CONTOURS_MINEURES
10
19.797
20
79.789
0
VERTEX
8
CONTOURS_MINEURES
10
20.005
20
79.789
0
VERTEX
8
CONTOURS_MINEURES
10
20.197
20
79.805
0
VERTEX
8
CONTOURS_MINEURES
10
25.001
20
78.203
0
VERTEX
8
CONTOURS_MINEURES
10
26.795
20
78.203
0
VERTEX
8
CONTOURS_MINEURES
10
29.998
20
77.015
0
VERTEX
8
CONTOURS_MINEURES
10
31.689
20
76.688
0
VERTEX
8
CONTOURS_MINEURES
10
35.004
20
76.230
0
VERTEX
8
CONTOURS_MINEURES
10
38.638
20
75.000
0
VERTEX
8
CONTOURS_MINEURES
10
39.635
20
74.635
0
VERTEX
8
CONTOURS_MINEURES
10
40.001
20
74.319
0
VERTEX
8
CONTOURS_MINEURES
10
42.142
20
72.859
0
VERTEX
8
CONTOURS_MINEURES
10
44.997
20
71.179
0
VERTEX
8
CONTOURS_MINEURES
10
45.378
20
70.385
0
VERTEX
8
CONTOURS_MINEURES
10
45.653
20
70.004
0
VERTEX
8
CONTOURS_MINEURES
10
47.427
20
67.427
0
VERTEX
8
CONTOURS_MINEURES
10
48.087
20
64.996
0
VERTEX
8
CONTOURS_MINEURES
10
48.625
20
61.376
0
VERTEX
8
CONTOURS_MINEURES
10
49.023
20
60.000
0
VERTEX
8
CONTOURS_MINEURES
10
49.169
20
59.167
0
VERTEX
8
CONTOURS_MINEURES
10
50.003
20
56.349
0
VERTEX
8
CONTOURS_MINEURES
10
50.617
20
55.617
0
VERTEX
8
CONTOURS_MINEURES
10
50.949
20
55.004
0
VERTEX
8
CONTOURS_MINEURES
10
52.335
20
52.667
0
VERTEX
8
CONTOURS_MINEURES
10
54.091
20
49.996
0
VERTEX
8
CONTOURS_MINEURES
10
54.355
20
49.351
0
VERTEX
8
CONTOURS_MINEURES
10
55.000
20
47.998
0
VERTEX
8
CONTOURS_MINEURES
10
56.362
20
45.000
0
VERTEX
8
CONTOURS_MINEURES
10
57.679
20
42.683
0
VERTEX
8
CONTOURS_MINEURES
10
59.996
20
40.003
0
VERTEX
8
CONTOURS_MINEURES
10
64.855
20
34.996
0
VERTEX
8
CONTOURS_MINEURES
10
65.003
20
34.542
0
VERTEX
8
CONTOURS_MINEURES
10
66.113
20
31.110
0
VERTEX
8
CONTOURS_MINEURES
10
66.853
20
29.999
0
VERTEX
8
CONTOURS_MINEURES
10
67.941
20
27.060
0
VERTEX
8
CONTOURS_MINEURES
10
67.813
20
25.003
0
VERTEX
8
CONTOURS_MINEURES
10
69.999
20
23.872
0
VERTEX
8
CONTOURS_MINEURES
10
73.885
20
21.108
0
VERTEX
8
CONTOURS_MINEURES
10
74.995
20
20.234
0
VERTEX
8
CONTOURS_MINEURES
10
75.239
20
19.996
0
VERTEX
8
CONTOURS_MINEURES
10
78.374
20
18.372
0
VERTEX
8
CONTOURS_MINEURES
10
80.002
20
17.781
0
VERTEX
8
CONTOURS_MINEURES
10
83.094
20
16.903
0
VERTEX
8
CONTOURS_MINEURES
10
84.998
20
16.998
0
VERTEX
8
CONTOURS_MINEURES
10
86.739
20
16.737
0
VERTEX
8
CONTOURS_MINEURES
10
90.005
20
16.640
0
VERTEX
8
CONTOURS_MINEURES
10
92.448
20
17.552
0
VERTEX
8
CONTOURS_MINEURES
10
95.001
20
16.973
0
VERTEX
8
CONTOURS_MINEURES
10
96.958
20
16.956
0
VERTEX
8
CONTOURS_MINEURES
10
99.997
20
17.899
0
VERTEX
8
CONTOURS_MINEURES
10
100.959
20
19.036
0
VERTEX
8
CONTOURS_MINEURES
10
102.325
20
19.996
0
VERTEX
8
CONTOURS_MINEURES
10
105.004
20
22.608
0
VERTEX
8
CONTOURS_MINEURES
10
106.698
20
23.304
0
VERTEX
8
CONTOURS_MINEURES
10
110.000
20
23.505
0
VERTEX
8
CONTOURS_MINEURES
10
113.785
20
23.789
0
VERTEX
8
CONTOURS_MINEURES
10
114.996
20
24.018
0
VERTEX
8
CONTOURS_MINEURES
10
115.883
20
24.116
0
VERTEX
8
CONTOURS_MINEURES
10
120.003
20
24.809
0
VERTEX
8
CONTOURS_MINEURES
10
120.806
20
25.003
0
VERTEX
8
CONTOURS_MINEURES
10
123.801
20
26.201
0
VERTEX
8
CONTOURS_MINEURES
10
124.999
20
26.330
0
VERTEX
8
CONTOURS_MINEURES
10
127.077
20
27.081
0
VERTEX
8
CONTOURS_MINEURES
10
129.995
20
28.025
0
VERTEX
8
CONTOURS_MINEURES
10
131.389
20
28.608
0
VERTEX
8
CONTOURS_MINEURES
10
134.178
20
29.999
0
VERTEX
8
CONTOURS_MINEURES
10
134.684
20
30.316
0
VERTEX
8
CONTOURS_MINEURES
10
135.002
20
30.484
0
VERTEX
8
CONTOURS_MINEURES
10
135.943
20
30.941
0
VERTEX
8
CONTOURS_MINEURES
10
139.998
20
33.053
0
VERTEX
8
CONTOURS_MINEURES
10
141.267
20
33.730
0
VERTEX
8
CONTOURS_MINEURES
10
142.859
20
34.996
0
VERTEX
8
CONTOURS_MINEURES
10
145.005
20
38.000
0
VERTEX
8
CONTOURS_MINEURES
10
146.477
20
40.003
0
VERTEX
8
CONTOURS_MINEURES
10
147.157
20
42.156
0
VERTEX
8
CONTOURS_MINEURES
10
148.407
20
45.000
0
VERTEX
8
CONTOURS_MINEURES
10
149.077
20
45.924
0
VERTEX
8
CONTOURS_MINEURES
10
148.939
20
49.996
0
VERTEX
8
CONTOURS_MINEURES
10
149.142
20
50.857
0
VERTEX
8
CONTOURS_MINEURES
10
149.208
20
55.004
0
VERTEX
8
CONTOURS_MINEURES
10
149.175
20
59.174
0
VERTEX
8
CONTOURS_MINEURES
10
148.902
20
60.000
0
VERTEX
8
CONTOURS_MINEURES
10
148.944
20
63.939
0
VERTEX
8
CONTOURS_MINEURES
10
146.082
20
64.996
0
VERTEX
8
CONTOURS_MINEURES
10
145.837
20
69.169
0
VERTEX
8
CONTOURS_MINEURES
10
146.670
20
70.004
0
VERTEX
8
CONTOURS_MINEURES
10
148.300
20
71.705
0
VERTEX
8
CONTOURS_MINEURES
10
150.001
20
73.202
0
VERTEX
8
CONTOURS_MINEURES
10
154.997
20
75.000
0
VERTEX
8
CONTOURS_MINEURES
10
156.228
20
78.768
0
VERTEX
8
CONTOURS_MINEURES
10
156.829
20
79.997
0
VERTEX
8
CONTOURS_MINEURES
10
160.004
20
83.423
0
VERTEX
8
CONTOURS_MINEURES
10
161.669
20
83.335
0
VERTEX
8
CONTOURS_MINEURES
10
165.000
20
82.667
0
VERTEX
8
CONTOURS_MINEURES
10
167.665
20
82.667
0
VERTEX
8
CONTOURS_MINEURES
10
169.996
20
82.813
0
VERTEX
8
CONTOURS_MINEURES
10
172.872
20
82.873
0
VERTEX
8
CONTOURS_MINEURES
10
175.003
20
82.561
0
VERTEX
8
CONTOURS_MINEURES
10
178.704
20
81.295
0
VERTEX
8
CONTOURS_MINEURES
10
179.999
20
80.998
0
SEQEND
0
POLYLINE
8
CONTOURS_MINEURES
66
1
70
0
0
VERTEX
8
CONTOURS_MINEURES
10
-0.001
20
89.916
0
VERTEX
8
CONTOURS_MINEURES
10
3.715
20
88.719
0
VERTEX
8
CONTOURS_MINEURES
10
4.996
20
88.703
0
VERTEX
8
CONTOURS_MINEURES
10
8.202
20
88.204
0
VERTEX
8
CONTOURS_MINEURES
10
10.002
20
88.335
0
VERTEX
8
CONTOURS_MINEURES
10
11.511
20
88.492
0
VERTEX
8
CONTOURS_MINEURES
10
14.999
20
89.303
0
VERTEX
8
CONTOURS_MINEURES
10
15.612
20
89.389
0
VERTEX
8
CONTOURS_MINEURES
10
18.754
20
90.001
0
VERTEX
8
CONTOURS_MINEURES
10
19.613
20
90.392
0
VERTEX
8
CONTOURS_MINEURES
10
20.005
20
90.572
0
VERTEX
8
CONTOURS_MINEURES
10
23.693
20
91.309
0
VERTEX
8
CONTOURS_MINEURES
10
25.001
20
91.195
0
VERTEX
8
CONTOURS_MINEURES
10
26.310
20
91.309
0
VERTEX
8
CONTOURS_MINEURES
10
29.998
20
91.309
0
VERTEX
8
CONTOURS_MINEURES
10
34.432
20
90.572
0
VERTEX
8
CONTOURS_MINEURES
10
35.004
20
90.667
0
VERTEX
8
CONTOURS_MINEURES
10
35.480
20
90.476
0
VERTEX
8
CONTOURS_MINEURES
10
37.859
20
90.001
0
VERTEX
8
CONTOURS_MINEURES
10
40.001
20
89.644
0
VERTEX
8
CONTOURS_MINEURES
10
42.866
20
87.870
0
VERTEX
8
CONTOURS_MINEURES
10
44.997
20
87.459
0
VERTEX
8
CONTOURS_MINEURES
10
46.248
20
86.253
0
VERTEX
8
CONTOURS_MINEURES
10
46.627
20
85.004
0
VERTEX
8
CONTOURS_MINEURES
10
47.642
20
82.359
0
VERTEX
8
CONTOURS_MINEURES
10
48.399
20
79.997
0
VERTEX
8
CONTOURS_MINEURES
10
50.003
20
75.536
0
VERTEX
8
CONTOURS_MINEURES
10
50.329
20
75.326
0
VERTEX
8
CONTOURS_MINEURES
10
51.156
20
75.000
0
VERTEX
8
CONTOURS_MINEURES
10
55.000
20
73.439
0
VERTEX
8
CONTOURS_MINEURES
10
56.863
20
71.867
0
VERTEX
8
CONTOURS_MINEURES
10
58.434
20
70.004
0
VERTEX
8
CONTOURS_MINEURES
10
58.860
20
68.866
0
VERTEX
8
CONTOURS_MINEURES
10
59.470
20
64.996
0
VERTEX
8
CONTOURS_MINEURES
10
59.626
20
64.626
0
VERTEX
8
CONTOURS_MINEURES
10
59.996
20
63.180
0
VERTEX
8
CONTOURS_MINEURES
10
60.775
20
60.777
0
VERTEX
8
CONTOURS_MINEURES
10
60.792
20
60.000
0
VERTEX
8
CONTOURS_MINEURES
10
61.164
20
58.834
0
VERTEX
8
CONTOURS_MINEURES
10
62.788
20
55.004
0
VERTEX
8
CONTOURS_MINEURES
10
64.144
20
50.855
0
VERTEX
8
CONTOURS_MINEURES
10
64.389
20
49.996
0
VERTEX
8
CONTOURS_MINEURES
10
64.597
20
49.591
0
VERTEX
8
CONTOURS_MINEURES
10
65.003
20
49.088
0
VERTEX
8
CONTOURS_MINEURES
10
69.354
20
45.000
0
VERTEX
8
CONTOURS_MINEURES
10
69.999
20
44.460
0
VERTEX
8
CONTOURS_MINEURES
10
72.459
20
42.464
0
VERTEX
8
CONTOURS_MINEURES
10
74.995
20
41.049
0
VERTEX
8
CONTOURS_MINEURES
10
76.448
20
41.454
0
VERTEX
8
CONTOURS_MINEURES
10
80.002
20
41.859
0
VERTEX
8
CONTOURS_MINEURES
10
83.234
20
41.767
0
VERTEX
8
CONTOURS_MINEURES
10
84.998
20
41.307
0
VERTEX
8
CONTOURS_MINEURES
10
87.001
20
40.003
0
VERTEX
8
CONTOURS_MINEURES
10
88.304
20
38.303
0
VERTEX
8
CONTOURS_MINEURES
10
90.005
20
37.631
0
VERTEX
8
CONTOURS_MINEURES
10
94.287
20
35.711
0
VERTEX
8
CONTOURS_MINEURES
10
95.001
20
35.362
0
VERTEX
8
CONTOURS_MINEURES
10
95.833
20
34.996
0
VERTEX
8
CONTOURS_MINEURES
10
96.874
20
33.122
0
VERTEX
8
CONTOURS_MINEURES
10
98.748
20
29.999
0
VERTEX
8
CONTOURS_MINEURES
10
98.075
20
28.078
0
VERTEX
8
CONTOURS_MINEURES
10
96.250
20
25.003
0
VERTEX
8
CONTOURS_MINEURES
10
99.997
20
22.647
0
VERTEX
8
CONTOURS_MINEURES
10
102.554
20
25.003
0
VERTEX
8
CONTOURS_MINEURES
10
105.004
20
26.918
0
VERTEX
8
CONTOURS_MINEURES
10
107.536
20
27.467
0
VERTEX
8
CONTOURS_MINEURES
10
110.000
20
27.197
0
VERTEX
8
CONTOURS_MINEURES
10
112.167
20
27.170
0
VERTEX
8
CONTOURS_MINEURES
10
114.996
20
27.627
0
VERTEX
8
CONTOURS_MINEURES
10
117.574
20
27.575
0
VERTEX
8
CONTOURS_MINEURES
10
120.003
20
28.251
0
VERTEX
8
CONTOURS_MINEURES
10
121.252
20
28.750
0
VERTEX
8
CONTOURS_MINEURES
10
124.999
20
29.153
0
VERTEX
8
CONTOURS_MINEURES
10
127.341
20
29.999
0
VERTEX
8
CONTOURS_MINEURES
10
128.933
20
31.061
0
VERTEX
8
CONTOURS_MINEURES
10
129.995
20
31.348
0
VERTEX
8
CONTOURS_MINEURES
10
132.242
20
32.754
0
VERTEX
8
CONTOURS_MINEURES
10
135.002
20
34.213
0
VERTEX
8
CONTOURS_MINEURES
10
136.616
20
34.996
0
VERTEX
8
CONTOURS_MINEURES
10
138.166
20
36.832
0
VERTEX
8
CONTOURS_MINEURES
10
139.998
20
38.189
0
VERTEX
8
CONTOURS_MINEURES
10
141.288
20
40.003
0
VERTEX
8
CONTOURS_MINEURES
10
142.719
20
42.719
0
VERTEX
8
CONTOURS_MINEURES
10
144.164
20
45.000
0
VERTEX
8
CONTOURS_MINEURES
10
144.474
20
45.530
0
VERTEX
8
CONTOURS_MINEURES
10
145.005
20
46.249
0
VERTEX
8
CONTOURS_MINEURES
10
146.579
20
48.422
0
VERTEX
8
CONTOURS_MINEURES
10
146.525
20
49.996
0
VERTEX
8
CONTOURS_MINEURES
10
147.191
20
52.813
0
VERTEX
8
CONTOURS_MINEURES
10
147.225
20
55.004
0
VERTEX
8
CONTOURS_MINEURES
10
147.208
20
57.207
0
VERTEX
8
CONTOURS_MINEURES
10
146.286
20
60.000
0
VERTEX
8
CONTOURS_MINEURES
10
146.300
20
61.295
0
VERTEX
8
CONTOURS_MINEURES
10
145.005
20
61.774
0
VERTEX
8
CONTOURS_MINEURES
10
143.092
20
63.088
0
VERTEX
8
CONTOURS_MINEURES
10
139.998
20
63.671
0
VERTEX
8
CONTOURS_MINEURES
10
136.151
20
63.848
0
VERTEX
8
CONTOURS_MINEURES
10
135.002
20
63.769
0
VERTEX
8
CONTOURS_MINEURES
10
132.951
20
62.950
0
VERTEX
8
CONTOURS_MINEURES
10
129.995
20
62.694
0
VERTEX
8
CONTOURS_MINEURES
10
126.475
20
63.520
0
VERTEX
8
CONTOURS_MINEURES
10
124.999
20
63.352
0
VERTEX
8
CONTOURS_MINEURES
10
124.257
20
64.254
0
VERTEX
8
CONTOURS_MINEURES
10
124.071
20
64.996
0
VERTEX
8
CONTOURS_MINEURES
10
124.487
20
69.491
0
VERTEX
8
CONTOURS_MINEURES
10
124.424
20
70.004
0
VERTEX
8
CONTOURS_MINEURES
10
124.414
20
70.589
0
VERTEX
8
CONTOURS_MINEURES
10
124.999
20
71.143
0
VERTEX
8
CONTOURS_MINEURES
10
127.319
20
72.324
0
VERTEX
8
CONTOURS_MINEURES
10
129.995
20
73.662
0
VERTEX
8
CONTOURS_MINEURES
10
131.206
20
73.791
0
VERTEX
8
CONTOURS_MINEURES
10
132.777
20
75.000
0
VERTEX
8
CONTOURS_MINEURES
10
135.002
20
77.142
0
VERTEX
8
CONTOURS_MINEURES
10
136.251
20
78.748
0
VERTEX
8
CONTOURS_MINEURES
10
137.286
20
79.997
0
VERTEX
8
CONTOURS_MINEURES
10
138.467
20
81.531
0
VERTEX
8
CONTOURS_MINEURES
10
139.998
20
82.795
0
VERTEX
8
CONTOURS_MINEURES
10
141.136
20
83.866
0
VERTEX
8
CONTOURS_MINEURES
10
141.924
20
85.004
0
VERTEX
8
CONTOURS_MINEURES
10
145.005
20
87.502
0
VERTEX
8
CONTOURS_MINEURES
10
146.718
20
88.288
0
VERTEX
8
CONTOURS_MINEURES
10
150.001
20
88.595
0
VERTEX
8
CONTOURS_MINEURES
10
153.025
20
88.028
0
VERTEX
8
CONTOURS_MINEURES
10
154.997
20
88.173
0
VERTEX
8
CONTOURS_MINEURES
10
156.270
20
88.730
0
VERTEX
8
CONTOURS_MINEURES
10
160.004
20
89.732
0
VERTEX
8
CONTOURS_MINEURES
10
164.001
20
89.001
0
VERTEX
8
CONTOURS_MINEURES
10
165.000
20
88.912
0
VERTEX
8
CONTOURS_MINEURES
10
169.199
20
89.203
0
VERTEX
8
CONTOURS_MINEURES
10
169.996
20
89.203
0
VERTEX
8
CONTOURS_MINEURES
10
170.787
20
89.212
0
VERTEX
8
CONTOURS_MINEURES
10
175.003
20
89.168
0
VERTEX
8
CONTOURS_MINEURES
10
178.883
20
88.885
0
VERTEX
8
CONTOURS_MINEURES
10
179.999
20
88.791
0
SEQEND
0
POLYLINE
8
CONTOURS_MINEURES
66
1
70
0
0
VERTEX
8
CONTOURS_MINEURES
10
-0.001
20
106.395
0
VERTEX
8
CONTOURS_MINEURES
10
0.922
20
105.923
0
VERTEX
8
CONTOURS_MINEURES
10
2.606
20
105.001
0
VERTEX
8
CONTOURS_MINEURES
10
4.996
20
103.384
0
VERTEX
8
CONTOURS_MINEURES
10
7.346
20
102.350
0
VERTEX
8
CONTOURS_MINEURES
10
8.834
20
100.004
0
VERTEX
8
CONTOURS_MINEURES
10
10.002
20
98.335
0
VERTEX
8
CONTOURS_MINEURES
10
10.585
20
99.420
0
VERTEX
8
CONTOURS_MINEURES
10
11.348
20
100.004
0
VERTEX
8
CONTOURS_MINEURES
10
14.999
20
102.717
0
VERTEX
8
CONTOURS_MINEURES
10
16.819
20
103.184
0
VERTEX
8
CONTOURS_MINEURES
10
20.005
20
103.046
0
VERTEX
8
CONTOURS_MINEURES
10
22.372
20
102.634
0
VERTEX
8
CONTOURS_MINEURES
10
25.001
20
102.177
0
VERTEX
8
CONTOURS_MINEURES
10
28.249
20
101.753
0
VERTEX
8
CONTOURS_MINEURES
10
29.998
20
101.631
0
VERTEX
8
CONTOURS_MINEURES
10
32.334
20
102.336
0
VERTEX
8
CONTOURS_MINEURES
10
35.004
20
103.184
0
VERTEX
8
CONTOURS_MINEURES
10
37.261
20
102.261
0
VERTEX
8
CONTOURS_MINEURES
10
40.001
20
100.410
0
VERTEX
8
CONTOURS_MINEURES
10
40.395
20
100.004
0
VERTEX
8
CONTOURS_MINEURES
10
43.194
20
98.198
0
VERTEX
8
CONTOURS_MINEURES
10
44.997
20
97.464
0
VERTEX
8
CONTOURS_MINEURES
10
48.866
20
98.866
0
VERTEX
8
CONTOURS_MINEURES
10
49.860
20
94.997
0
VERTEX
8
CONTOURS_MINEURES
10
50.003
20
94.703
0
VERTEX
8
CONTOURS_MINEURES
10
52.002
20
91.999
0
VERTEX
8
CONTOURS_MINEURES
10
55.000
20
91.756
0
VERTEX
8
CONTOURS_MINEURES
10
57.095
20
90.001
0
VERTEX
8
CONTOURS_MINEURES
10
58.160
20
88.165
0
VERTEX
8
CONTOURS_MINEURES
10
59.996
20
87.355
0
VERTEX
8
CONTOURS_MINEURES
10
61.426
20
85.004
0
VERTEX
8
CONTOURS_MINEURES
10
62.352
20
82.648
0
VERTEX
8
CONTOURS_MINEURES
10
63.364
20
79.997
0
VERTEX
8
CONTOURS_MINEURES
10
64.627
20
75.375
0
VERTEX
8
CONTOURS_MINEURES
10
64.775
20
75.000
0
VERTEX
8
CONTOURS_MINEURES
10
65.003
20
74.595
0
VERTEX
8
CONTOURS_MINEURES
10
66.810
20
71.811
0
VERTEX
8
CONTOURS_MINEURES
10
68.208
20
70.004
0
VERTEX
8
CONTOURS_MINEURES
10
69.999
20
67.791
0
VERTEX
8
CONTOURS_MINEURES
10
71.688
20
66.689
0
VERTEX
8
CONTOURS_MINEURES
10
72.102
20
64.996
0
VERTEX
8
CONTOURS_MINEURES
10
72.305
20
62.690
0
VERTEX
8
CONTOURS_MINEURES
10
72.404
20
60.000
0
VERTEX
8
CONTOURS_MINEURES
10
74.995
20
55.004
0
VERTEX
8
CONTOURS_MINEURES
10
80.002
20
53.723
0
VERTEX
8
CONTOURS_MINEURES
10
82.758
20
52.759
0
VERTEX
8
CONTOURS_MINEURES
10
84.998
20
51.387
0
VERTEX
8
CONTOURS_MINEURES
10
86.136
20
49.996
0
VERTEX
8
CONTOURS_MINEURES
10
90.005
20
47.016
0
VERTEX
8
CONTOURS_MINEURES
10
94.261
20
45.000
0
VERTEX
8
CONTOURS_MINEURES
10
94.768
20
44.767
0
VERTEX
8
CONTOURS_MINEURES
10
95.001
20
44.697
0
VERTEX
8
CONTOURS_MINEURES
10
95.409
20
44.592
0
VERTEX
8
CONTOURS_MINEURES
10
99.997
20
43.751
0
VERTEX
8
CONTOURS_MINEURES
10
102.369
20
42.370
0
VERTEX
8
CONTOURS_MINEURES
10
103.517
20
40.003
0
VERTEX
8
CONTOURS_MINEURES
10
105.004
20
37.791
0
VERTEX
8
CONTOURS_MINEURES
10
107.107
20
37.104
0
VERTEX
8
CONTOURS_MINEURES
10
110.000
20
36.411
0
VERTEX
8
CONTOURS_MINEURES
10
114.639
20
34.996
0
VERTEX
8
CONTOURS_MINEURES
10
114.905
20
34.905
0
VERTEX
8
CONTOURS_MINEURES
10
114.996
20
34.903
0
VERTEX
8
CONTOURS_MINEURES
10
115.092
20
34.900
0
VERTEX
8
CONTOURS_MINEURES
10
120.003
20
33.747
0
VERTEX
8
CONTOURS_MINEURES
10
123.312
20
33.309
0
VERTEX
8
CONTOURS_MINEURES
10
124.999
20
33.643
0
VERTEX
8
CONTOURS_MINEURES
10
125.811
20
34.184
0
VERTEX
8
CONTOURS_MINEURES
10
128.819
20
34.996
0
VERTEX
8
CONTOURS_MINEURES
10
129.995
20
35.973
0
VERTEX
8
CONTOURS_MINEURES
10
131.470
20
38.528
0
VERTEX
8
CONTOURS_MINEURES
10
132.894
20
40.003
0
VERTEX
8
CONTOURS_MINEURES
10
135.002
20
42.184
0
VERTEX
8
CONTOURS_MINEURES
10
136.463
20
43.539
0
VERTEX
8
CONTOURS_MINEURES
10
139.998
20
44.747
0
VERTEX
8
CONTOURS_MINEURES
10
140.158
20
45.000
0
VERTEX
8
CONTOURS_MINEURES
10
141.945
20
48.053
0
VERTEX
8
CONTOURS_MINEURES
10
143.380
20
49.996
0
VERTEX
8
CONTOURS_MINEURES
10
145.005
20
53.777
0
VERTEX
8
CONTOURS_MINEURES
10
145.239
20
54.769
0
VERTEX
8
CONTOURS_MINEURES
10
145.243
20
55.004
0
VERTEX
8
CONTOURS_MINEURES
10
145.241
20
55.240
0
VERTEX
8
CONTOURS_MINEURES
10
145.005
20
55.955
0
VERTEX
8
CONTOURS_MINEURES
10
142.317
20
60.000
0
VERTEX
8
CONTOURS_MINEURES
10
140.943
20
60.944
0
VERTEX
8
CONTOURS_MINEURES
10
139.998
20
61.122
0
VERTEX
8
CONTOURS_MINEURES
10
138.822
20
61.176
0
VERTEX
8
CONTOURS_MINEURES
10
135.002
20
60.914
0
VERTEX
8
CONTOURS_MINEURES
10
132.713
20
60.000
0
VERTEX
8
CONTOURS_MINEURES
10
131.374
20
58.624
0
VERTEX
8
CONTOURS_MINEURES
10
129.995
20
58.139
0
VERTEX
8
CONTOURS_MINEURES
10
127.114
20
57.884
0
VERTEX
8
CONTOURS_MINEURES
10
124.999
20
57.628
0
VERTEX
8
CONTOURS_MINEURES
10
122.553
20
60.000
0
VERTEX
8
CONTOURS_MINEURES
10
121.402
20
61.399
0
VERTEX
8
CONTOURS_MINEURES
10
120.502
20
64.996
0
VERTEX
8
CONTOURS_MINEURES
10
120.554
20
65.548
0
VERTEX
8
CONTOURS_MINEURES
10
120.003
20
70.004
0
VERTEX
8
CONTOURS_MINEURES
10
119.891
20
74.889
0
VERTEX
8
CONTOURS_MINEURES
10
119.770
20
75.000
0
VERTEX
8
CONTOURS_MINEURES
10
118.572
20
76.428
0
VERTEX
8
CONTOURS_MINEURES
10
115.890
20
79.997
0
VERTEX
8
CONTOURS_MINEURES
10
115.859
20
80.860
0
VERTEX
8
CONTOURS_MINEURES
10
114.996
20
82.500
0
VERTEX
8
CONTOURS_MINEURES
10
114.355
20
85.004
0
VERTEX
8
CONTOURS_MINEURES
10
114.239
20
85.761
0
VERTEX
8
CONTOURS_MINEURES
10
114.996
20
88.573
0
VERTEX
8
CONTOURS_MINEURES
10
115.552
20
90.001
0
VERTEX
8
CONTOURS_MINEURES
10
117.240
20
92.757
0
VERTEX
8
CONTOURS_MINEURES
10
120.003
20
94.442
0
VERTEX
8
CONTOURS_MINEURES
10
121.430
20
94.997
0
VERTEX
8
CONTOURS_MINEURES
10
124.999
20
98.574
0
VERTEX
8
CONTOURS_MINEURES
10
125.475
20
99.528
0
VERTEX
8
CONTOURS_MINEURES
10
125.713
20
100.004
0
VERTEX
8
CONTOURS_MINEURES
10
128.330
20
103.335
0
VERTEX
8
CONTOURS_MINEURES
10
129.495
20
105.001
0
VERTEX
8
CONTOURS_MINEURES
10
129.817
20
105.179
0
VERTEX
8
CONTOURS_MINEURES
10
129.995
20
105.179
0
VERTEX
8
CONTOURS_MINEURES
10
131.247
20
105.001
0
VERTEX
8
CONTOURS_MINEURES
10
134.000
20
104.002
0
VERTEX
8
CONTOURS_MINEURES
10
135.002
20
103.930
0
VERTEX
8
CONTOURS_MINEURES
10
138.000
20
102.003
0
VERTEX
8
CONTOURS_MINEURES
10
139.998
20
101.004
0
VERTEX
8
CONTOURS_MINEURES
10
142.501
20
102.503
0
VERTEX
8
CONTOURS_MINEURES
10
145.005
20
102.860
0
VERTEX
8
CONTOURS_MINEURES
10
146.075
20
103.930
0
VERTEX
8
CONTOURS_MINEURES
10
150.001
20
102.394
0
VERTEX
8
CONTOURS_MINEURES
10
152.499
20
102.503
0
VERTEX
8
CONTOURS_MINEURES
10
154.997
20
102.846
0
VERTEX
8
CONTOURS_MINEURES
10
158.931
20
105.001
0
VERTEX
8
CONTOURS_MINEURES
10
159.637
20
105.366
0
VERTEX
8
CONTOURS_MINEURES
10
160.004
20
105.834
0
VERTEX
8
CONTOURS_MINEURES
10
160.414
20
105.412
0
VERTEX
8
CONTOURS_MINEURES
10
161.203
20
105.001
0
VERTEX
8
CONTOURS_MINEURES
10
165.000
20
100.686
0
VERTEX
8
CONTOURS_MINEURES
10
165.405
20
100.410
0
VERTEX
8
CONTOURS_MINEURES
10
169.996
20
101.050
0
VERTEX
8
CONTOURS_MINEURES
10
173.401
20
101.603
0
VERTEX
8
CONTOURS_MINEURES
10
175.003
20
101.908
0
VERTEX
8
CONTOURS_MINEURES
10
177.964
20
102.965
0
VERTEX
8
CONTOURS_MINEURES
10
179.999
20
103.169
0
SEQEND
0
POLYLINE
8
CONTOURS_MINEURES
66
1
70
0
0
VERTEX
8
CONTOURS_MINEURES
10
55.384
20
150.002
0
VERTEX
8
CONTOURS_MINEURES
10
55.000
20
149.829
0
VERTEX
8
CONTOURS_MINEURES
10
52.456
20
147.549
0
VERTEX
8
CONTOURS_MINEURES
10
50.760
20
145.005
0
VERTEX
8
CONTOURS_MINEURES
10
50.760
20
140.757
0
VERTEX
8
CONTOURS_MINEURES
10
51.788
20
139.998
0
VERTEX
8
CONTOURS_MINEURES
10
50.697
20
139.304
0
VERTEX
8
CONTOURS_MINEURES
10
50.003
20
139.165
0
VERTEX
8
CONTOURS_MINEURES
10
48.613
20
138.610
0
VERTEX
8
CONTOURS_MINEURES
10
44.997
20
137.241
0
VERTEX
8
CONTOURS_MINEURES
10
41.363
20
136.364
0
VERTEX
8
CONTOURS_MINEURES
10
40.001
20
136.201
0
VERTEX
8
CONTOURS_MINEURES
10
39.001
20
136.001
0
VERTEX
8
CONTOURS_MINEURES
10
35.718
20
135.001
0
VERTEX
8
CONTOURS_MINEURES
10
35.004
20
132.503
0
VERTEX
8
CONTOURS_MINEURES
10
34.619
20
130.389
0
VERTEX
8
CONTOURS_MINEURES
10
34.619
20
130.005
0
VERTEX
8
CONTOURS_MINEURES
10
34.170
20
129.170
0
VERTEX
8
CONTOURS_MINEURES
10
35.004
20
129.290
0
VERTEX
8
CONTOURS_MINEURES
10
35.718
20
129.290
0
VERTEX
8
CONTOURS_MINEURES
10
40.001
20
126.667
0
VERTEX
8
CONTOURS_MINEURES
10
40.909
20
125.908
0
VERTEX
8
CONTOURS_MINEURES
10
41.874
20
124.998
0
VERTEX
8
CONTOURS_MINEURES
10
44.997
20
120.455
0
VERTEX
8
CONTOURS_MINEURES
10
45.623
20
120.001
0
VERTEX
8
CONTOURS_MINEURES
10
48.543
20
118.544
0
VERTEX
8
CONTOURS_MINEURES
10
50.003
20
118.752
0
VERTEX
8
CONTOURS_MINEURES
10
52.694
20
117.311
0
VERTEX
8
CONTOURS_MINEURES
10
55.000
20
115.837
0
VERTEX
8
CONTOURS_MINEURES
10
55.768
20
115.773
0
VERTEX
8
CONTOURS_MINEURES
10
56.873
20
115.005
0
VERTEX
8
CONTOURS_MINEURES
10
58.608
20
113.614
0
VERTEX
8
CONTOURS_MINEURES
10
59.996
20
112.369
0
VERTEX
8
CONTOURS_MINEURES
10
62.499
20
112.501
0
VERTEX
8
CONTOURS_MINEURES
10
63.462
20
109.997
0
VERTEX
8
CONTOURS_MINEURES
10
61.955
20
108.042
0
VERTEX
8
CONTOURS_MINEURES
10
59.996
20
106.250
0
VERTEX
8
CONTOURS_MINEURES
10
59.479
20
105.518
0
VERTEX
8
CONTOURS_MINEURES
10
59.460
20
105.001
0
VERTEX
8
CONTOURS_MINEURES
10
59.621
20
104.626
0
VERTEX
8
CONTOURS_MINEURES
10
59.996
20
100.004
0
VERTEX
8
CONTOURS_MINEURES
10
63.519
20
94.997
0
VERTEX
8
CONTOURS_MINEURES
10
64.185
20
94.181
0
VERTEX
8
CONTOURS_MINEURES
10
65.003
20
90.001
0
VERTEX
8
CONTOURS_MINEURES
10
67.831
20
87.832
0
VERTEX
8
CONTOURS_MINEURES
10
69.999
20
85.968
0
VERTEX
8
CONTOURS_MINEURES
10
71.961
20
85.004
0
VERTEX
8
CONTOURS_MINEURES
10
73.188
20
83.193
0
VERTEX
8
CONTOURS_MINEURES
10
74.995
20
81.135
0
VERTEX
8
CONTOURS_MINEURES
10
75.467
20
80.469
0
VERTEX
8
CONTOURS_MINEURES
10
75.802
20
79.997
0
VERTEX
8
CONTOURS_MINEURES
10
77.345
20
77.346
0
VERTEX
8
CONTOURS_MINEURES
10
78.593
20
75.000
0
VERTEX
8
CONTOURS_MINEURES
10
79.275
20
74.275
0
VERTEX
8
CONTOURS_MINEURES
10
80.002
20
73.202
0
VERTEX
8
CONTOURS_MINEURES
10
82.962
20
70.004
0
VERTEX
8
CONTOURS_MINEURES
10
83.876
20
68.880
0
VERTEX
8
CONTOURS_MINEURES
10
84.998
20
68.335
0
VERTEX
8
CONTOURS_MINEURES
10
89.787
20
64.996
0
VERTEX
8
CONTOURS_MINEURES
10
89.910
20
64.902
0
VERTEX
8
CONTOURS_MINEURES
10
90.005
20
64.824
0
VERTEX
8
CONTOURS_MINEURES
10
90.298
20
64.703
0
VERTEX
8
CONTOURS_MINEURES
10
95.001
20
62.050
0
VERTEX
8
CONTOURS_MINEURES
10
96.428
20
61.428
0
VERTEX
8
CONTOURS_MINEURES
10
98.998
20
60.000
0
VERTEX
8
CONTOURS_MINEURES
10
99.997
20
59.260
0
VERTEX
8
CONTOURS_MINEURES
10
101.949
20
56.951
0
VERTEX
8
CONTOURS_MINEURES
10
102.739
20
55.004
0
VERTEX
8
CONTOURS_MINEURES
10
105.004
20
51.832
0
VERTEX
8
CONTOURS_MINEURES
10
108.168
20
51.832
0
VERTEX
8
CONTOURS_MINEURES
10
110.000
20
52.619
0
VERTEX
8
CONTOURS_MINEURES
10
113.925
20
53.931
0
VERTEX
8
CONTOURS_MINEURES
10
114.996
20
53.638
0
VERTEX
8
CONTOURS_MINEURES
10
115.935
20
54.065
0
VERTEX
8
CONTOURS_MINEURES
10
115.622
20
55.004
0
VERTEX
8
CONTOURS_MINEURES
10
115.274
20
55.281
0
VERTEX
8
CONTOURS_MINEURES
10
116.192
20
60.000
0
VERTEX
8
CONTOURS_MINEURES
10
116.013
20
63.982
0
VERTEX
8
CONTOURS_MINEURES
10
115.653
20
64.996
0
VERTEX
8
CONTOURS_MINEURES
10
114.996
20
67.600
0
VERTEX
8
CONTOURS_MINEURES
10
113.886
20
68.891
0
VERTEX
8
CONTOURS_MINEURES
10
113.772
20
70.004
0
VERTEX
8
CONTOURS_MINEURES
10
110.000
20
74.513
0
VERTEX
8
CONTOURS_MINEURES
10
109.636
20
74.637
0
VERTEX
8
CONTOURS_MINEURES
10
109.355
20
75.000
0
VERTEX
8
CONTOURS_MINEURES
10
107.502
20
77.498
0
VERTEX
8
CONTOURS_MINEURES
10
105.388
20
79.997
0
VERTEX
8
CONTOURS_MINEURES
10
105.289
20
80.283
0
VERTEX
8
CONTOURS_MINEURES
10
105.004
20
81.818
0
VERTEX
8
CONTOURS_MINEURES
10
104.549
20
85.004
0
VERTEX
8
CONTOURS_MINEURES
10
104.330
20
85.677
0
VERTEX
8
CONTOURS_MINEURES
10
102.617
20
90.001
0
VERTEX
8
CONTOURS_MINEURES
10
102.617
20
92.615
0
VERTEX
8
CONTOURS_MINEURES
10
102.071
20
94.997
0
VERTEX
8
CONTOURS_MINEURES
10
101.130
20
98.871
0
VERTEX
8
CONTOURS_MINEURES
10
101.427
20
100.004
0
VERTEX
8
CONTOURS_MINEURES
10
102.308
20
102.310
0
VERTEX
8
CONTOURS_MINEURES
10
102.813
20
105.001
0
VERTEX
8
CONTOURS_MINEURES
10
103.109
20
106.891
0
VERTEX
8
CONTOURS_MINEURES
10
105.004
20
109.116
0
VERTEX
8
CONTOURS_MINEURES
10
108.751
20
109.997
0
VERTEX
8
CONTOURS_MINEURES
10
109.800
20
110.198
0
VERTEX
8
CONTOURS_MINEURES
10
110.000
20
110.225
0
VERTEX
8
CONTOURS_MINEURES
10
112.835
20
115.005
0
VERTEX
8
CONTOURS_MINEURES
10
114.996
20
117.669
0
VERTEX
8
CONTOURS_MINEURES
10
118.334
20
120.001
0
VERTEX
8
CONTOURS_MINEURES
10
119.502
20
120.501
0
VERTEX
8
CONTOURS_MINEURES
10
120.003
20
120.584
0
VERTEX
8
CONTOURS_MINEURES
10
120.606
20
120.604
0
VERTEX
8
CONTOURS_MINEURES
10
124.374
20
120.001
0
VERTEX
8
CONTOURS_MINEURES
10
124.999
20
119.870
0
VERTEX
8
CONTOURS_MINEURES
10
129.018
20
119.024
0
VERTEX
8
CONTOURS_MINEURES
10
129.995
20
118.877
0
VERTEX
8
CONTOURS_MINEURES
10
130.829
20
119.168
0
VERTEX
8
CONTOURS_MINEURES
10
135.002
20
119.689
0
VERTEX
8
CONTOURS_MINEURES
10
135.626
20
120.001
0
VERTEX
8
CONTOURS_MINEURES
10
138.580
20
121.419
0
VERTEX
8
CONTOURS_MINEURES
10
139.998
20
121.909
0
VERTEX
8
CONTOURS_MINEURES
10
141.591
20
121.591
0
VERTEX
8
CONTOURS_MINEURES
10
145.005
20
120.501
0
VERTEX
8
CONTOURS_MINEURES
10
146.254
20
120.001
0
VERTEX
8
CONTOURS_MINEURES
10
148.792
20
118.792
0
VERTEX
8
CONTOURS_MINEURES
10
150.001
20
116.254
0
VERTEX
8
CONTOURS_MINEURES
10
154.997
20
115.005
0
VERTEX
8
CONTOURS_MINEURES
10
157.858
20
120.001
0
VERTEX
8
CONTOURS_MINEURES
10
158.531
20
121.471
0
VERTEX
8
CONTOURS_MINEURES
10
160.004
20
121.596
0
VERTEX
8
CONTOURS_MINEURES
10
161.090
20
121.087
0
VERTEX
8
CONTOURS_MINEURES
10
162.346
20
120.001
0
VERTEX
8
CONTOURS_MINEURES
10
163.584
20
118.585
0
VERTEX
8
CONTOURS_MINEURES
10
165.000
20
115.956
0
VERTEX
8
CONTOURS_MINEURES
10
168.267
20
116.734
0
VERTEX
8
CONTOURS_MINEURES
10
169.996
20
116.878
0
VERTEX
8
CONTOURS_MINEURES
10
173.751
20
118.752
0
VERTEX
8
CONTOURS_MINEURES
10
175.003
20
119.287
0
VERTEX
8
CONTOURS_MINEURES
10
175.684
20
120.001
0
VERTEX
8
CONTOURS_MINEURES
10
178.699
20
121.302
0
VERTEX
8
CONTOURS_MINEURES
10
179.999
20
122.111
0
SEQEND
0
POLYLINE
8
CONTOURS_MINEURES
66
1
70
0
0
VERTEX
8
CONTOURS_MINEURES
10
4.996
20
120.001
0
VERTEX
8
CONTOURS_MINEURES
10
9.502
20
119.501
0
VERTEX
8
CONTOURS_MINEURES
10
10.002
20
119.002
0
VERTEX
8
CONTOURS_MINEURES
10
11.251
20
118.752
0
VERTEX
8
CONTOURS_MINEURES
10
14.999
20
119.287
0
VERTEX
8
CONTOURS_MINEURES
10
15.226
20
119.774
0
VERTEX
8
CONTOURS_MINEURES
10
15.356
20
120.001
0
VERTEX
8
CONTOURS_MINEURES
10
14.999
20
120.556
0
VERTEX
8
CONTOURS_MINEURES
10
11.002
20
121.000
0
VERTEX
8
CONTOURS_MINEURES
10
10.002
20
121.667
0
VERTEX
8
CONTOURS_MINEURES
10
8.000
20
122.000
0
VERTEX
8
CONTOURS_MINEURES
10
4.996
20
120.001
0
SEQEND
0
POLYLINE
8
CONTOURS_MINEURES
66
1
70
0
0
VERTEX
8
CONTOURS_MINEURES
10
139.998
20
55.487
0
VERTEX
8
CONTOURS_MINEURES
10
135.002
20
55.004
0
VERTEX
8
CONTOURS_MINEURES
10
139.998
20
53.968
0
VERTEX
8
CONTOURS_MINEURES
10
140.318
20
55.004
0
VERTEX
8
CONTOURS_MINEURES
10
139.998
20
55.487
0
SEQEND
0
POLYLINE
8
CONTOURS_MINEURES
66
1
70
0
0
VERTEX
8
CONTOURS_MINEURES
10
179.999
20
139.998
0
VERTEX
8
CONTOURS_MINEURES
10
177.189
20
142.189
0
VERTEX
8
CONTOURS_MINEURES
10
175.911
20
145.005
0
VERTEX
8
CONTOURS_MINEURES
10
177.501
20
147.503
0
VERTEX
8
CONTOURS_MINEURES
10
177.648
20
150.002
0
SEQEND
0
POLYLINE
8
CONTOURS_MINEURES
66
1
70
0
0
VERTEX
8
CONTOURS_MINEURES
10
83.332
20
150.002
0
VERTEX
8
CONTOURS_MINEURES
10
83.927
20
146.076
0
VERTEX
8
CONTOURS_MINEURES
10
84.031
20
145.005
0
VERTEX
8
CONTOURS_MINEURES
10
84.998
20
143.002
0
VERTEX
8
CONTOURS_MINEURES
10
85.624
20
140.624
0
VERTEX
8
CONTOURS_MINEURES
10
85.864
20
139.998
0
VERTEX
8
CONTOURS_MINEURES
10
86.416
20
136.417
0
VERTEX
8
CONTOURS_MINEURES
10
87.835
20
135.001
0
VERTEX
8
CONTOURS_MINEURES
10
88.698
20
131.308
0
VERTEX
8
CONTOURS_MINEURES
10
85.713
20
130.005
0
VERTEX
8
CONTOURS_MINEURES
10
89.036
20
129.036
0
VERTEX
8
CONTOURS_MINEURES
10
90.005
20
128.753
0
VERTEX
8
CONTOURS_MINEURES
10
91.308
20
128.699
0
VERTEX
8
CONTOURS_MINEURES
10
95.001
20
128.038
0
VERTEX
8
CONTOURS_MINEURES
10
96.666
20
128.336
0
VERTEX
8
CONTOURS_MINEURES
10
99.997
20
127.897
0
VERTEX
8
CONTOURS_MINEURES
10
102.974
20
127.975
0
VERTEX
8
CONTOURS_MINEURES
10
105.004
20
128.028
0
VERTEX
8
CONTOURS_MINEURES
10
107.029
20
127.975
0
VERTEX
8
CONTOURS_MINEURES
10
110.000
20
127.897
0
VERTEX
8
CONTOURS_MINEURES
10
111.508
20
128.493
0
VERTEX
8
CONTOURS_MINEURES
10
114.996
20
128.493
0
VERTEX
8
CONTOURS_MINEURES
10
118.491
20
128.493
0
VERTEX
8
CONTOURS_MINEURES
10
120.003
20
128.733
0
VERTEX
8
CONTOURS_MINEURES
10
121.233
20
128.772
0
VERTEX
8
CONTOURS_MINEURES
10
124.999
20
129.020
0
VERTEX
8
CONTOURS_MINEURES
10
125.966
20
129.036
0
VERTEX
8
CONTOURS_MINEURES
10
129.995
20
129.468
0
VERTEX
8
CONTOURS_MINEURES
10
130.562
20
129.438
0
VERTEX
8
CONTOURS_MINEURES
10
135.002
20
129.523
0
VERTEX
8
CONTOURS_MINEURES
10
135.354
20
129.652
0
VERTEX
8
CONTOURS_MINEURES
10
139.165
20
130.005
0
VERTEX
8
CONTOURS_MINEURES
10
139.735
20
130.268
0
VERTEX
8
CONTOURS_MINEURES
10
139.998
20
130.283
0
VERTEX
8
CONTOURS_MINEURES
10
145.005
20
130.005
0
VERTEX
8
CONTOURS_MINEURES
10
150.001
20
131.254
0
VERTEX
8
CONTOURS_MINEURES
10
152.811
20
132.191
0
VERTEX
8
CONTOURS_MINEURES
10
154.997
20
132.191
0
VERTEX
8
CONTOURS_MINEURES
10
157.121
20
132.125
0
VERTEX
8
CONTOURS_MINEURES
10
160.004
20
132.125
0
VERTEX
8
CONTOURS_MINEURES
10
163.066
20
131.939
0
VERTEX
8
CONTOURS_MINEURES
10
165.000
20
132.146
0
VERTEX
8
CONTOURS_MINEURES
10
167.398
20
132.403
0
VERTEX
8
CONTOURS_MINEURES
10
169.996
20
132.762
0
VERTEX
8
CONTOURS_MINEURES
10
172.826
20
132.177
0
VERTEX
8
CONTOURS_MINEURES
10
175.003
20
132.276
0
VERTEX
8
CONTOURS_MINEURES
10
176.925
20
131.927
0
VERTEX
8
CONTOURS_MINEURES
10
179.999
20
132.245
0
SEQEND
0
POLYLINE
8
CONTOURS_MINEURES
66
1
70
0
0
VERTEX
8
CONTOURS_MINEURES
10
94.224
20
150.002
0
VERTEX
8
CONTOURS_MINEURES
10
94.206
20
149.207
0
VERTEX
8
CONTOURS_MINEURES
10
93.629
20
145.005
0
VERTEX
8
CONTOURS_MINEURES
10
95.001
20
141.667
0
VERTEX
8
CONTOURS_MINEURES
10
96.400
20
141.400
0
VERTEX
8
CONTOURS_MINEURES
10
99.997
20
141.086
0
VERTEX
8
CONTOURS_MINEURES
10
103.573
20
143.575
0
VERTEX
8
CONTOURS_MINEURES
10
105.004
20
144.767
0
VERTEX
8
CONTOURS_MINEURES
10
105.221
20
144.788
0
VERTEX
8
CONTOURS_MINEURES
10
106.669
20
145.005
0
VERTEX
8
CONTOURS_MINEURES
10
110.000
20
145.531
0
VERTEX
8
CONTOURS_MINEURES
10
114.853
20
145.148
0
VERTEX
8
CONTOURS_MINEURES
10
114.996
20
145.114
0
VERTEX
8
CONTOURS_MINEURES
10
118.815
20
146.191
0
VERTEX
8
CONTOURS_MINEURES
10
120.003
20
146.433
0
VERTEX
8
CONTOURS_MINEURES
10
122.334
20
147.337
0
VERTEX
8
CONTOURS_MINEURES
10
124.999
20
148.185
0
VERTEX
8
CONTOURS_MINEURES
10
127.219
20
147.781
0
VERTEX
8
CONTOURS_MINEURES
10
129.995
20
150.002
0
SEQEND
0
POLYLINE
8
CONTOURS_MAJEURES
66
1
70
0
0
VERTEX
8
CONTOURS_MAJEURES
10
-0.001
20
49.019
0
VERTEX
8
CONTOURS_MAJEURES
10
2.248
20
49.996
0
VERTEX
8
CONTOURS_MAJEURES
10
4.996
20
51.076
0
VERTEX
8
CONTOURS_MAJEURES
10
6.035
20
51.035
0
VERTEX
8
CONTOURS_MAJEURES
10
10.002
20
50.959
0
VERTEX
8
CONTOURS_MAJEURES
10
12.632
20
49.996
0
VERTEX
8
CONTOURS_MAJEURES
10
14.999
20
49.234
0
VERTEX
8
CONTOURS_MAJEURES
10
18.735
20
48.728
0
VERTEX
8
CONTOURS_MAJEURES
10
20.005
20
48.479
0
VERTEX
8
CONTOURS_MAJEURES
10
22.028
20
47.974
0
VERTEX
8
CONTOURS_MAJEURES
10
25.001
20
49.163
0
VERTEX
8
CONTOURS_MAJEURES
10
27.083
20
49.996
0
VERTEX
8
CONTOURS_MAJEURES
10
29.026
20
50.970
0
VERTEX
8
CONTOURS_MAJEURES
10
29.998
20
51.127
0
VERTEX
8
CONTOURS_MAJEURES
10
30.699
20
50.697
0
VERTEX
8
CONTOURS_MAJEURES
10
31.458
20
49.996
0
VERTEX
8
CONTOURS_MAJEURES
10
35.004
20
46.135
0
VERTEX
8
CONTOURS_MAJEURES
10
35.366
20
45.362
0
VERTEX
8
CONTOURS_MAJEURES
10
35.629
20
45.000
0
VERTEX
8
CONTOURS_MAJEURES
10
37.275
20
42.729
0
VERTEX
8
CONTOURS_MAJEURES
10
38.967
20
40.003
0
VERTEX
8
CONTOURS_MAJEURES
10
40.001
20
36.248
0
VERTEX
8
CONTOURS_MAJEURES
10
40.334
20
34.996
0
VERTEX
8
CONTOURS_MAJEURES
10
40.001
20
29.999
0
VERTEX
8
CONTOURS_MAJEURES
10
41.764
20
25.003
0
VERTEX
8
CONTOURS_MAJEURES
10
42.316
20
22.316
0
VERTEX
8
CONTOURS_MAJEURES
10
41.899
20
19.996
0
VERTEX
8
CONTOURS_MAJEURES
10
42.074
20
17.073
0
VERTEX
8
CONTOURS_MAJEURES
10
41.929
20
14.999
0
VERTEX
8
CONTOURS_MAJEURES
10
43.141
20
11.859
0
VERTEX
8
CONTOURS_MAJEURES
10
43.877
20
10.003
0
VERTEX
8
CONTOURS_MAJEURES
10
44.422
20
9.427
0
VERTEX
8
CONTOURS_MAJEURES
10
44.997
20
9.031
0
VERTEX
8
CONTOURS_MAJEURES
10
46.225
20
8.775
0
VERTEX
8
CONTOURS_MAJEURES
10
50.003
20
7.196
0
VERTEX
8
CONTOURS_MAJEURES
10
52.249
20
7.246
0
VERTEX
8
CONTOURS_MAJEURES
10
55.000
20
7.549
0
VERTEX
8
CONTOURS_MAJEURES
10
57.498
20
7.499
0
VERTEX
8
CONTOURS_MAJEURES
10
59.996
20
7.525
0
VERTEX
8
CONTOURS_MAJEURES
10
62.578
20
7.578
0
VERTEX
8
CONTOURS_MAJEURES
10
65.003
20
7.722
0
VERTEX
8
CONTOURS_MAJEURES
10
68.395
20
8.395
0
VERTEX
8
CONTOURS_MAJEURES
10
69.999
20
8.808
0
VERTEX
8
CONTOURS_MAJEURES
10
71.030
20
8.969
0
VERTEX
8
CONTOURS_MAJEURES
10
74.995
20
9.203
0
VERTEX
8
CONTOURS_MAJEURES
10
78.876
20
8.877
0
VERTEX
8
CONTOURS_MAJEURES
10
80.002
20
8.927
0
VERTEX
8
CONTOURS_MAJEURES
10
83.925
20
8.927
0
VERTEX
8
CONTOURS_MAJEURES
10
84.998
20
9.187
0
VERTEX
8
CONTOURS_MAJEURES
10
88.087
20
10.003
0
VERTEX
8
CONTOURS_MAJEURES
10
89.540
20
10.466
0
VERTEX
8
CONTOURS_MAJEURES
10
90.005
20
10.462
0
VERTEX
8
CONTOURS_MAJEURES
10
90.530
20
10.529
0
VERTEX
8
CONTOURS_MAJEURES
10
95.001
20
11.732
0
VERTEX
8
CONTOURS_MAJEURES
10
97.721
20
12.279
0
VERTEX
8
CONTOURS_MAJEURES
10
99.997
20
12.820
0
VERTEX
8
CONTOURS_MAJEURES
10
102.403
20
14.999
0
VERTEX
8
CONTOURS_MAJEURES
10
103.594
20
16.406
0
VERTEX
8
CONTOURS_MAJEURES
10
105.004
20
17.397
0
VERTEX
8
CONTOURS_MAJEURES
10
108.409
20
18.404
0
VERTEX
8
CONTOURS_MAJEURES
10
110.000
20
18.950
0
VERTEX
8
CONTOURS_MAJEURES
10
110.912
20
19.084
0
VERTEX
8
CONTOURS_MAJEURES
10
114.996
20
19.908
0
VERTEX
8
CONTOURS_MAJEURES
10
115.082
20
19.909
0
VERTEX
8
CONTOURS_MAJEURES
10
115.738
20
19.996
0
VERTEX
8
CONTOURS_MAJEURES
10
119.578
20
20.421
0
VERTEX
8
CONTOURS_MAJEURES
10
120.003
20
20.492
0
VERTEX
8
CONTOURS_MAJEURES
10
120.656
20
20.650
0
VERTEX
8
CONTOURS_MAJEURES
10
124.999
20
21.406
0
VERTEX
8
CONTOURS_MAJEURES
10
128.252
20
21.743
0
VERTEX
8
CONTOURS_MAJEURES
10
129.995
20
22.264
0
VERTEX
8
CONTOURS_MAJEURES
10
133.694
20
23.695
0
VERTEX
8
CONTOURS_MAJEURES
10
135.002
20
24.107
0
VERTEX
8
CONTOURS_MAJEURES
10
135.741
20
24.262
0
VERTEX
8
CONTOURS_MAJEURES
10
137.072
20
25.003
0
VERTEX
8
CONTOURS_MAJEURES
10
139.998
20
26.342
0
VERTEX
8
CONTOURS_MAJEURES
10
142.699
20
27.698
0
VERTEX
8
CONTOURS_MAJEURES
10
145.005
20
28.654
0
VERTEX
8
CONTOURS_MAJEURES
10
146.148
20
28.856
0
VERTEX
8
CONTOURS_MAJEURES
10
147.336
20
29.999
0
VERTEX
8
CONTOURS_MAJEURES
10
150.001
20
32.148
0
VERTEX
8
CONTOURS_MAJEURES
10
151.766
20
33.230
0
VERTEX
8
CONTOURS_MAJEURES
10
153.116
20
34.996
0
VERTEX
8
CONTOURS_MAJEURES
10
154.028
20
35.967
0
VERTEX
8
CONTOURS_MAJEURES
10
154.997
20
37.024
0
VERTEX
8
CONTOURS_MAJEURES
10
156.576
20
38.424
0
VERTEX
8
CONTOURS_MAJEURES
10
156.793
20
40.003
0
VERTEX
8
CONTOURS_MAJEURES
10
157.043
20
42.045
0
VERTEX
8
CONTOURS_MAJEURES
10
157.554
20
45.000
0
VERTEX
8
CONTOURS_MAJEURES
10
157.959
20
47.956
0
VERTEX
8
CONTOURS_MAJEURES
10
157.794
20
49.996
0
VERTEX
8
CONTOURS_MAJEURES
10
158.025
20
51.975
0
VERTEX
8
CONTOURS_MAJEURES
10
158.679
20
55.004
0
VERTEX
8
CONTOURS_MAJEURES
10
159.017
20
55.988
0
VERTEX
8
CONTOURS_MAJEURES
10
160.004
20
58.141
0
VERTEX
8
CONTOURS_MAJEURES
10
162.936
20
57.936
0
VERTEX
8
CONTOURS_MAJEURES
10
165.000
20
57.033
0
VERTEX
8
CONTOURS_MAJEURES
10
168.821
20
55.004
0
VERTEX
8
CONTOURS_MAJEURES
10
169.496
20
54.503
0
VERTEX
8
CONTOURS_MAJEURES
10
169.996
20
54.002
0
VERTEX
8
CONTOURS_MAJEURES
10
171.109
20
53.891
0
VERTEX
8
CONTOURS_MAJEURES
10
175.003
20
53.891
0
VERTEX
8
CONTOURS_MAJEURES
10
176.430
20
53.573
0
VERTEX
8
CONTOURS_MAJEURES
10
179.999
20
52.632
0
SEQEND
0
POLYLINE
8
CONTOURS_MAJEURES
66
1
70
0
0
VERTEX
8
CONTOURS_MAJEURES
10
55.384
20
150.002
0
VERTEX
8
CONTOURS_MAJEURES
10
55.000
20
149.829
0
VERTEX
8
CONTOURS_MAJEURES
10
52.456
20
147.549
0
VERTEX
8
CONTOURS_MAJEURES
10
50.760
20
145.005
0
VERTEX
8
CONTOURS_MAJEURES
10
50.760
20
140.757
0
VERTEX
8
CONTOURS_MAJEURES
10
51.788
20
139.998
0
VERTEX
8
CONTOURS_MAJEURES
10
50.697
20
139.304
0
VERTEX
8
CONTOURS_MAJEURES
10
50.003
20
139.165
0
VERTEX
8
CONTOURS_MAJEURES
10
48.613
20
138.610
0
VERTEX
8
CONTOURS_MAJEURES
10
44.997
20
137.241
0
VERTEX
8
CONTOURS_MAJEURES
10
41.363
20
136.364
0
VERTEX
8
CONTOURS_MAJEURES
10
40.001
20
136.201
0
VERTEX
8
CONTOURS_MAJEURES
10
39.001
20
136.001
0
VERTEX
8
CONTOURS_MAJEURES
10
35.718
20
135.001
0
VERTEX
8
CONTOURS_MAJEURES
10
35.004
20
132.503
0
VERTEX
8
CONTOURS_MAJEURES
10
34.619
20
130.389
0
VERTEX
8
CONTOURS_MAJEURES
10
34.619
20
130.005
0
VERTEX
8
CONTOURS_MAJEURES
10
34.170
20
129.170
0
VERTEX
8
CONTOURS_MAJEURES
10
35.004
20
129.290
0
VERTEX
8
CONTOURS_MAJEURES
10
35.718
20
129.290
0
VERTEX
8
CONTOURS_MAJEURES
10
40.001
20
126.667
0
VERTEX
8
CONTOURS_MAJEURES
10
40.909
20
125.908
0
VERTEX
8
CONTOURS_MAJEURES
10
41.874
20
124.998
0
VERTEX
8
CONTOURS_MAJEURES
10
44.997
20
120.455
0
VERTEX
8
CONTOURS_MAJEURES
10
45.623
20
120.001
0
VERTEX
8
CONTOURS_MAJEURES
10
48.543
20
118.544
0
VERTEX
8
CONTOURS_MAJEURES
10
50.003
20
118.752
0
VERTEX
8
CONTOURS_MAJEURES
10
52.694
20
117.311
0
VERTEX
8
CONTOURS_MAJEURES
10
55.000
20
115.837
0
VERTEX
8
CONTOURS_MAJEURES
10
55.768
20
115.773
0
VERTEX
8
CONTOURS_MAJEURES
10
56.873
20
115.005
0
VERTEX
8
CONTOURS_MAJEURES
10
58.608
20
113.614
0
VERTEX
8
CONTOURS_MAJEURES
10
59.996
20
112.369
0
VERTEX
8
CONTOURS_MAJEURES
10
62.499
20
112.501
0
VERTEX
8
CONTOURS_MAJEURES
10
63.462
20
109.997
0
VERTEX
8
CONTOURS_MAJEURES
10
61.955
20
108.042
0
VERTEX
8
CONTOURS_MAJEURES
10
59.996
20
106.250
0
VERTEX
8
CONTOURS_MAJEURES
10
59.479
20
105.518
0
VERTEX
8
CONTOURS_MAJEURES
10
59.460
20
105.001
0
VERTEX
8
CONTOURS_MAJEURES
10
59.621
20
104.626
0
VERTEX
8
CONTOURS_MAJEURES
10
59.996
20
100.004
0
VERTEX
8
CONTOURS_MAJEURES
10
63.519
20
94.997
0
VERTEX
8
CONTOURS_MAJEURES
10
64.185
20
94.181
0
VERTEX
8
CONTOURS_MAJEURES
10
65.003
20
90.001
0
VERTEX
8
CONTOURS_MAJEURES
10
67.831
20
87.832
0
VERTEX
8
CONTOURS_MAJEURES
10
69.999
20
85.968
0
VERTEX
8
CONTOURS_MAJEURES
10
71.961
20
85.004
0
VERTEX
8
CONTOURS_MAJEURES
10
73.188
20
83.193
0
VERTEX
8
CONTOURS_MAJEURES
10
74.995
20
81.135
0
VERTEX
8
CONTOURS_MAJEURES
10
75.467
20
80.469
0
VERTEX
8
CONTOURS_MAJEURES
10
75.802
20
79.997
0
VERTEX
8
CONTOURS_MAJEURES
10
77.345
20
77.346
0
VERTEX
8
CONTOURS_MAJEURES
10
78.593
20
75.000
0
VERTEX
8
CONTOURS_MAJEURES
10
79.275
20
74.275
0
VERTEX
8
CONTOURS_MAJEURES
10
80.002
20
73.202
0
VERTEX
8
CONTOURS_MAJEURES
10
82.962
20
70.004
0
VERTEX
8
CONTOURS_MAJEURES
10
83.876
20
68.880
0
VERTEX
8
CONTOURS_MAJEURES
10
84.998
20
68.335
0
VERTEX
8
CONTOURS_MAJEURES
10
89.787
20
64.996
0
VERTEX
8
CONTOURS_MAJEURES
10
89.910
20
64.902
0
VERTEX
8
CONTOURS_MAJEURES
10
90.005
20
64.824
0
VERTEX
8
CONTOURS_MAJEURES
10
90.298
20
64.703
0
VERTEX
8
CONTOURS_MAJEURES
10
95.001
20
62.050
0
VERTEX
8
CONTOURS_MAJEURES
10
96.428
20
61.428
0
VERTEX
8
CONTOURS_MAJEURES
10
98.998
20
60.000
0
VERTEX
8
CONTOURS_MAJEURES
10
99.997
20
59.260
0
VERTEX
8
CONTOURS_MAJEURES
10
101.949
20
56.951
0
VERTEX
8
CONTOURS_MAJEURES
10
102.739
20
55.004
0
VERTEX
8
CONTOURS_MAJEURES
10
105.004
20
51.832
0
VERTEX
8
CONTOURS_MAJEURES
10
108.168
20
51.832
0
VERTEX
8
CONTOURS_MAJEURES
10
110.000
20
52.619
0
VERTEX
8
CONTOURS_MAJEURES
10
113.925
20
53.931
0
VERTEX
8
CONTOURS_MAJEURES
10
114.996
20
53.638
0
VERTEX
8
CONTOURS_MAJEURES
10
115.935
20
54.065
0
VERTEX
8
CONTOURS_MAJEURES
10
115.622
20
55.004
0
VERTEX
8
CONTOURS_MAJEURES
10
115.274
20
55.281
0
VERTEX
8
CONTOURS_MAJEURES
10
116.192
20
60.000
0
VERTEX
8
CONTOURS_MAJEURES
10
116.013
20
63.982
0
VERTEX
8
CONTOURS_MAJEURES
10
115.653
20
64.996
0
VERTEX
8
CONTOURS_MAJEURES
10
114.996
20
67.600
0
VERTEX
8
CONTOURS_MAJEURES
10
113.886
20
68.891
0
VERTEX
8
CONTOURS_MAJEURES
10
113.772
20
70.004
0
VERTEX
8
CONTOURS_MAJEURES
10
110.000
20
74.513
0
VERTEX
8
CONTOURS_MAJEURES
10
109.636
20
74.637
0
VERTEX
8
CONTOURS_MAJEURES
10
109.355
20
75.000
0
VERTEX
8
CONTOURS_MAJEURES
10
107.502
20
77.498
0
VERTEX
8
CONTOURS_MAJEURES
10
105.388
20
79.997
0
VERTEX
8
CONTOURS_MAJEURES
10
105.289
20
80.283
0
VERTEX
8
CONTOURS_MAJEURES
10
105.004
20
81.818
0
VERTEX
8
CONTOURS_MAJEURES
10
104.549
20
85.004
0
VERTEX
8
CONTOURS_MAJEURES
10
104.330
20
85.677
0
VERTEX
8
CONTOURS_MAJEURES
10
102.617
20
90.001
0
VERTEX
8
CONTOURS_MAJEURES
10
102.617
20
92.615
0
VERTEX
8
CONTOURS_MAJEURES
10
102.071
20
94.997
0
VERTEX
8
CONTOURS_MAJEURES
10
101.130
20
98.871
0
VERTEX
8
CONTOURS_MAJEURES
10
101.427
20
100.004
0
VERTEX
8
CONTOURS_MAJEURES
10
102.308
20
102.310
0
VERTEX
8
CONTOURS_MAJEURES
10
102.813
20
105.001
0
VERTEX
8
CONTOURS_MAJEURES
10
103.109
20
106.891
0
VERTEX
8
CONTOURS_MAJEURES
10
105.004
20
109.116
0
VERTEX
8
CONTOURS_MAJEURES
10
108.751
20
109.997
0
VERTEX
8
CONTOURS_MAJEURES
10
109.800
20
110.198
0
VERTEX
8
CONTOURS_MAJEURES
10
110.000
20
110.225
0
VERTEX
8
CONTOURS_MAJEURES
10
112.835
20
115.005
0
VERTEX
8
CONTOURS_MAJEURES
10
114.996
20
117.669
0
VERTEX
8
CONTOURS_MAJEURES
10
118.334
20
120.001
0
VERTEX
8
CONTOURS_MAJEURES
10
119.502
20
120.501
0
VERTEX
8
CONTOURS_MAJEURES
10
120.003
20
120.584
0
VERTEX
8
CONTOURS_MAJEURES
10
120.606
20
120.604
0
VERTEX
8
CONTOURS_MAJEURES
10
124.374
20
120.001
0
VERTEX
8
CONTOURS_MAJEURES
10
124.999
20
119.870
0
VERTEX
8
CONTOURS_MAJEURES
10
129.018
20
119.024
0
VERTEX
8
CONTOURS_MAJEURES
10
129.995
20
118.877
0
VERTEX
8
CONTOURS_MAJEURES
10
130.829
20
119.168
0
VERTEX
8
CONTOURS_MAJEURES
10
135.002
20
119.689
0
VERTEX
8
CONTOURS_MAJEURES
10
135.626
20
120.001
0
VERTEX
8
CONTOURS_MAJEURES
10
138.580
20
121.419
0
VERTEX
8
CONTOURS_MAJEURES
10
139.998
20
121.909
0
VERTEX
8
CONTOURS_MAJEURES
10
141.591
20
121.591
0
VERTEX
8
CONTOURS_MAJEURES
10
145.005
20
120.501
0
VERTEX
8
CONTOURS_MAJEURES
10
146.254
20
120.001
0
VERTEX
8
CONTOURS_MAJEURES
10
148.792
20
118.792
0
VERTEX
8
CONTOURS_MAJEURES
10
150.001
20
116.254
0
VERTEX
8
CONTOURS_MAJEURES
10
154.997
20
115.005
0
VERTEX
8
CONTOURS_MAJEURES
10
157.858
20
120.001
0
VERTEX
8
CONTOURS_MAJEURES
10
158.531
20
121.471
0
VERTEX
8
CONTOURS_MAJEURES
10
160.004
20
121.596
0
VERTEX
8
CONTOURS_MAJEURES
10
161.090
20
121.087
0
VERTEX
8
CONTOURS_MAJEURES
10
162.346
20
120.001
0
VERTEX
8
CONTOURS_MAJEURES
10
163.584
20
118.585
0
VERTEX
8
CONTOURS_MAJEURES
10
165.000
20
115.956
0
VERTEX
8
CONTOURS_MAJEURES
10
168.267
20
116.734
0
VERTEX
8
CONTOURS_MAJEURES
10
169.996
20
116.878
0
VERTEX
8
CONTOURS_MAJEURES
10
173.751
20
118.752
0
VERTEX
8
CONTOURS_MAJEURES
10
175.003
20
119.287
0
VERTEX
8
CONTOURS_MAJEURES
10
175.684
20
120.001
0
VERTEX
8
CONTOURS_MAJEURES
10
178.699
20
121.302
0
VERTEX
8
CONTOURS_MAJEURES
10
179.999
20
122.111
0
SEQEND
0
POLYLINE
8
CONTOURS_MAJEURES
66
1
70
0
0
VERTEX
8
CONTOURS_MAJEURES
10
4.996
20
120.001
0
VERTEX
8
CONTOURS_MAJEURES
10
9.502
20
119.501
0
VERTEX
8
CONTOURS_MAJEURES
10
10.002
20
119.002
0
VERTEX
8
CONTOURS_MAJEURES
10
11.251
20
118.752
0
VERTEX
8
CONTOURS_MAJEURES
10
14.999
20
119.287
0
VERTEX
8
CONTOURS_MAJEURES
10
15.226
20
119.774
0
VERTEX
8
CONTOURS_MAJEURES
10
15.356
20
120.001
0
VERTEX
8
CONTOURS_MAJEURES
10
14.999
20
120.556
0
VERTEX
8
CONTOURS_MAJEURES
10
11.002
20
121.000
0
VERTEX
8
CONTOURS_MAJEURES
10
10.002
20
121.667
0
VERTEX
8
CONTOURS_MAJEURES
10
8.000
20
122.000
0
VERTEX
8
CONTOURS_MAJEURES
10
4.996
20
120.001
0
SEQEND
0
POLYLINE
8
CONTOURS_MAJEURES
66
1
70
0
0
VERTEX
8
CONTOURS_MAJEURES
10
139.998
20
55.487
0
VERTEX
8
CONTOURS_MAJEURES
10
135.002
20
55.004
0
VERTEX
8
CONTOURS_MAJEURES
10
139.998
20
53.968
0
VERTEX
8
CONTOURS_MAJEURES
10
140.318
20
55.004
0
VERTEX
8
CONTOURS_MAJEURES
10
139.998
20
55.487
0
SEQEND
0
POLYLINE
8
PARCELLE
66
1
70
1
0
VERTEX
8
PARCELLE
10
25.331
20
20.000
0
VERTEX
8
PARCELLE
10
24.876
20
28.485
0
VERTEX
8
PARCELLE
10
24.430
20
35.701
0
VERTEX
8
PARCELLE
10
24.097
20
45.754
0
VERTEX
8
PARCELLE
10
23.565
20
59.972
0
VERTEX
8
PARCELLE
10
23.158
20
68.307
0
VERTEX
8
PARCELLE
10
22.985
20
71.805
0
VERTEX
8
PARCELLE
10
22.405
20
85.166
0
VERTEX
8
PARCELLE
10
21.814
20
96.799
0
VERTEX
8
PARCELLE
10
21.226
20
107.512
0
VERTEX
8
PARCELLE
10
20.699
20
118.585
0
VERTEX
8
PARCELLE
10
20.155
20
125.932
0
VERTEX
8
PARCELLE
10
20.000
20
127.930
0
VERTEX
8
PARCELLE
10
32.203
20
127.349
0
VERTEX
8
PARCELLE
10
48.916
20
126.703
0
VERTEX
8
PARCELLE
10
63.907
20
125.911
0
VERTEX
8
PARCELLE
10
73.925
20
125.785
0
VERTEX
8
PARCELLE
10
84.295
20
126.016
0
VERTEX
8
PARCELLE
10
94.876
20
126.355
0
VERTEX
8
PARCELLE
10
110.008
20
127.080
0
VERTEX
8
PARCELLE
10
126.324
20
128.055
0
VERTEX
8
PARCELLE
10
140.407
20
128.738
0
VERTEX
8
PARCELLE
10
150.320
20
129.432
0
VERTEX
8
PARCELLE
10
161.502
20
129.918
0
VERTEX
8
PARCELLE
10
164.292
20
130.056
0
VERTEX
8
PARCELLE
10
164.098
20
128.059
0
VERTEX
8
PARCELLE
10
163.416
20
121.172
0
VERTEX
8
PARCELLE
10
162.117
20
108.075
0
VERTEX
8
PARCELLE
10
160.977
20
96.405
0
VERTEX
8
PARCELLE
10
159.989
20
87.213
0
VERTEX
8
PARCELLE
10
159.105
20
78.837
0
VERTEX
8
PARCELLE
10
158.942
20
77.110
0
VERTEX
8
PARCELLE
10
156.937
20
76.406
0
VERTEX
8
PARCELLE
10
154.220
20
75.438
0
VERTEX
8
PARCELLE
10
142.932
20
71.358
0
VERTEX
8
PARCELLE
10
131.794
20
67.466
0
VERTEX
8
PARCELLE
10
121.107
20
63.630
0
VERTEX
8
PARCELLE
10
107.632
20
58.888
0
VERTEX
8
PARCELLE
10
94.970
20
54.338
0
VERTEX
8
PARCELLE
10
83.109
20
50.053
0
VERTEX
8
PARCELLE
10
70.759
20
45.710
0
VERTEX
8
PARCELLE
10
60.171
20
41.774
0
VERTEX
8
PARCELLE
10
55.548
20
40.051
0
VERTEX
8
PARCELLE
10
52.439
20
35.998
0
VERTEX
8
PARCELLE
10
47.439
20
29.353
0
VERTEX
8
PARCELLE
10
44.947
20
26.415
0
VERTEX
8
PARCELLE
10
39.094
20
24.551
0
VERTEX
8
PARCELLE
10
34.523
20
23.038
0
VERTEX
8
PARCELLE
10
29.642
20
21.416
0
VERTEX
8
PARCELLE
10
27.336
20
20.664
0
VERTEX
8
PARCELLE
10
25.331
20
20.000
0
SEQEND
0
TEXT
8
POINTS_COTES
10
-0.001
20
-0.001
40
1.0
1
26.0
0
TEXT
8
POINTS_COTES
10
99.997
20
4.995
40
1.0
1
27.2
0
TEXT
8
POINTS_COTES
10
14.999
20
14.999
40
1.0
1
27.4
0
TEXT
8
POINTS_COTES
10
114.996
20
19.996
40
1.0
1
30.0
0
TEXT
8
POINTS_COTES
10
29.998
20
29.999
40
1.0
1
29.4
0
TEXT
8
POINTS_COTES
10
129.995
20
34.996
40
1.0
1
33.9
0
TEXT
8
POINTS_COTES
10
44.997
20
45.000
40
1.0
1
30.7
0
TEXT
8
POINTS_COTES
10
145.005
20
49.996
40
1.0
1
33.6
0
TEXT
8
POINTS_COTES
10
59.996
20
60.000
40
1.0
1
32.9
0
TEXT
8
POINTS_COTES
10
160.004
20
64.996
40
1.0
1
30.9
0
TEXT
8
POINTS_COTES
10
74.995
20
75.000
40
1.0
1
34.8
0
TEXT
8
POINTS_COTES
10
175.003
20
79.997
40
1.0
1
31.8
0
TEXT
8
POINTS_COTES
10
90.005
20
90.001
40
1.0
1
35.6
0
TEXT
8
POINTS_COTES
10
4.996
20
100.004
40
1.0
1
33.8
0
TEXT
8
POINTS_COTES
10
105.004
20
105.001
40
1.0
1
34.9
0
TEXT
8
POINTS_COTES
10
20.005
20
115.005
40
1.0
1
34.8
0
TEXT
8
POINTS_COTES
10
120.003
20
120.001
40
1.0
1
34.9
0
TEXT
8
POINTS_COTES
10
35.004
20
130.005
40
1.0
1
35.0
0
TEXT
8
POINTS_COTES
10
135.002
20
135.001
40
1.0
1
36.2
0
TEXT
8
POINTS_COTES
10
50.003
20
145.005
40
1.0
1
35.0
0
TEXT
8
POINTS_COTES
10
150.001
20
150.002
40
1.0
1
36.3
0
ENDSEC
0
EOF
