0
SECTION
2
HEADER
0
ENDSEC
0
SECTION
2
TABLES
0
TABLE
2
LAYER
70
4
0
LAYER
2
CONTOURS_MINEURES
70
0
62
8
6
CONTINUOUS
0
LAYER
2
CONTOURS_MAJEURES
70
0
62
3
6
CONTINUOUS
0
LAYER
2
PARCELLE
70
0
62
4
6
CONTINUOUS
0
LAYER
2
POINTS_COTES
70
0
62
7
6
CONTINUOUS
0
ENDTAB
0
ENDSEC
0
SECTION
2
ENTITIES
0
POLYLINE
8
CONTOURS_MINEURES
66
1
70
0
0
VERTEX
8
CONTOURS_MINEURES
10
-0.002
20
1.042
0
VERTEX
8
CONTOURS_MINEURES
10
0.336
20
0.006
0
SEQEND
0
POLYLINE
8
CONTOURS_MINEURES
66
1
70
0
0
VERTEX
8
CONTOURS_MINEURES
10
-0.002
20
101.208
0
VERTEX
8
CONTOURS_MINEURES
10
0.720
20
99.725
0
VERTEX
8
CONTOURS_MINEURES
10
0.872
20
99.005
0
VERTEX
8
CONTOURS_MINEURES
10
0.872
20
98.131
0
VERTEX
8
CONTOURS_MINEURES
10
0.872
20
95.998
0
VERTEX
8
CONTOURS_MINEURES
10
-0.002
20
93.502
0
SEQEND
0
POLYLINE
8
CONTOURS_MINEURES
66
1
70
0
0
VERTEX
8
CONTOURS_MINEURES
10
-0.002
20
76.026
0
VERTEX
8
CONTOURS_MINEURES
10
0.350
20
75.349
0
VERTEX
8
CONTOURS_MINEURES
10
0.523
20
74.996
0
VERTEX
8
CONTOURS_MINEURES
10
0.523
20
74.472
0
VERTEX
8
CONTOURS_MINEURES
10
0.523
20
72.000
0
VERTEX
8
CONTOURS_MINEURES
10
1.056
20
70.945
0
VERTEX
8
CONTOURS_MINEURES
10
1.851
20
69.005
0
VERTEX
8
CONTOURS_MINEURES
10
1.979
20
67.980
0
VERTEX
8
CONTOURS_MINEURES
10
2.673
20
65.998
0
VERTEX
8
CONTOURS_MINEURES
10
2.673
20
63.332
0
VERTEX
8
CONTOURS_MINEURES
10
2.673
20
63.002
0
VERTEX
8
CONTOURS_MINEURES
10
3.004
20
61.165
0
VERTEX
8
CONTOURS_MINEURES
10
3.177
20
60.170
0
VERTEX
8
CONTOURS_MINEURES
10
3.276
20
59.996
0
VERTEX
8
CONTOURS_MINEURES
10
3.423
20
59.576
0
VERTEX
8
CONTOURS_MINEURES
10
3.922
20
57.000
0
VERTEX
8
CONTOURS_MINEURES
10
3.922
20
54.922
0
VERTEX
8
CONTOURS_MINEURES
10
3.922
20
54.004
0
VERTEX
8
CONTOURS_MINEURES
10
4.098
20
52.906
0
VERTEX
8
CONTOURS_MINEURES
10
4.168
20
50.998
0
VERTEX
8
CONTOURS_MINEURES
10
4.168
20
49.167
0
VERTEX
8
CONTOURS_MINEURES
10
4.168
20
48.002
0
VERTEX
8
CONTOURS_MINEURES
10
4.147
20
46.854
0
VERTEX
8
CONTOURS_MINEURES
10
3.785
20
44.995
0
VERTEX
8
CONTOURS_MINEURES
10
3.004
20
42.749
0
VERTEX
8
CONTOURS_MINEURES
10
2.841
20
42.162
0
VERTEX
8
CONTOURS_MINEURES
10
2.748
20
42.000
0
VERTEX
8
CONTOURS_MINEURES
10
2.748
20
41.745
0
VERTEX
8
CONTOURS_MINEURES
10
2.748
20
39.004
0
VERTEX
8
CONTOURS_MINEURES
10
1.911
20
37.911
0
VERTEX
8
CONTOURS_MINEURES
10
0.839
20
35.997
0
VERTEX
8
CONTOURS_MINEURES
10
0.599
20
35.398
0
VERTEX
8
CONTOURS_MINEURES
10
-0.002
20
35.086
0
SEQEND
0
POLYLINE
8
CONTOURS_MINEURES
66
1
70
0
0
VERTEX
8
CONTOURS_MINEURES
10
4.501
20
102.001
0
VERTEX
8
CONTOURS_MINEURES
10
4.127
20
100.877
0
VERTEX
8
CONTOURS_MINEURES
10
4.582
20
99.005
0
VERTEX
8
CONTOURS_MINEURES
10
4.582
20
97.583
0
VERTEX
8
CONTOURS_MINEURES
10
4.582
20
95.998
0
VERTEX
8
CONTOURS_MINEURES
10
3.882
20
95.120
0
VERTEX
8
CONTOURS_MINEURES
10
3.004
20
93.565
0
VERTEX
8
CONTOURS_MINEURES
10
2.744
20
93.003
0
VERTEX
8
CONTOURS_MINEURES
10
2.327
20
92.326
0
VERTEX
8
CONTOURS_MINEURES
10
0.845
20
89.996
0
VERTEX
8
CONTOURS_MINEURES
10
0.845
20
89.152
0
VERTEX
8
CONTOURS_MINEURES
10
0.845
20
87.001
0
VERTEX
8
CONTOURS_MINEURES
10
0.673
20
86.328
0
VERTEX
8
CONTOURS_MINEURES
10
0.345
20
84.005
0
VERTEX
8
CONTOURS_MINEURES
10
0.410
20
83.592
0
VERTEX
8
CONTOURS_MINEURES
10
1.114
20
80.998
0
VERTEX
8
CONTOURS_MINEURES
10
1.114
20
79.115
0
VERTEX
8
CONTOURS_MINEURES
10
1.114
20
78.003
0
VERTEX
8
CONTOURS_MINEURES
10
1.762
20
76.760
0
VERTEX
8
CONTOURS_MINEURES
10
2.625
20
74.996
0
VERTEX
8
CONTOURS_MINEURES
10
2.625
20
72.377
0
VERTEX
8
CONTOURS_MINEURES
10
2.625
20
72.000
0
VERTEX
8
CONTOURS_MINEURES
10
3.004
20
71.251
0
VERTEX
8
CONTOURS_MINEURES
10
3.664
20
69.665
0
VERTEX
8
CONTOURS_MINEURES
10
4.127
20
69.005
0
VERTEX
8
CONTOURS_MINEURES
10
5.382
20
66.617
0
VERTEX
8
CONTOURS_MINEURES
10
5.592
20
65.998
0
VERTEX
8
CONTOURS_MINEURES
10
5.592
20
63.409
0
VERTEX
8
CONTOURS_MINEURES
10
5.592
20
63.002
0
VERTEX
8
CONTOURS_MINEURES
10
5.652
20
62.654
0
VERTEX
8
CONTOURS_MINEURES
10
5.999
20
62.046
0
VERTEX
8
CONTOURS_MINEURES
10
6.955
20
62.046
0
VERTEX
8
CONTOURS_MINEURES
10
9.005
20
62.046
0
VERTEX
8
CONTOURS_MINEURES
10
9.493
20
60.486
0
VERTEX
8
CONTOURS_MINEURES
10
9.853
20
59.996
0
VERTEX
8
CONTOURS_MINEURES
10
10.581
20
58.419
0
VERTEX
8
CONTOURS_MINEURES
10
11.037
20
57.000
0
VERTEX
8
CONTOURS_MINEURES
10
11.037
20
54.967
0
VERTEX
8
CONTOURS_MINEURES
10
11.037
20
54.004
0
VERTEX
8
CONTOURS_MINEURES
10
11.140
20
53.141
0
VERTEX
8
CONTOURS_MINEURES
10
11.717
20
50.998
0
VERTEX
8
CONTOURS_MINEURES
10
11.717
20
48.285
0
VERTEX
8
CONTOURS_MINEURES
10
11.717
20
48.002
0
VERTEX
8
CONTOURS_MINEURES
10
11.713
20
47.714
0
VERTEX
8
CONTOURS_MINEURES
10
12.000
20
45.897
0
VERTEX
8
CONTOURS_MINEURES
10
12.110
20
44.995
0
VERTEX
8
CONTOURS_MINEURES
10
12.136
20
44.859
0
VERTEX
8
CONTOURS_MINEURES
10
12.220
20
42.000
0
VERTEX
8
CONTOURS_MINEURES
10
12.220
20
39.224
0
VERTEX
8
CONTOURS_MINEURES
10
12.220
20
39.004
0
VERTEX
8
CONTOURS_MINEURES
10
12.092
20
36.090
0
VERTEX
8
CONTOURS_MINEURES
10
12.090
20
35.997
0
VERTEX
8
CONTOURS_MINEURES
10
12.080
20
35.917
0
VERTEX
8
CONTOURS_MINEURES
10
12.080
20
33.002
0
VERTEX
8
CONTOURS_MINEURES
10
12.080
20
30.075
0
VERTEX
8
CONTOURS_MINEURES
10
12.080
20
29.995
0
VERTEX
8
CONTOURS_MINEURES
10
12.071
20
29.925
0
VERTEX
8
CONTOURS_MINEURES
10
12.000
20
29.246
0
VERTEX
8
CONTOURS_MINEURES
10
11.609
20
26.999
0
VERTEX
8
CONTOURS_MINEURES
10
10.646
20
25.358
0
VERTEX
8
CONTOURS_MINEURES
10
10.062
20
24.004
0
VERTEX
8
CONTOURS_MINEURES
10
10.062
20
22.943
0
VERTEX
8
CONTOURS_MINEURES
10
10.062
20
20.997
0
VERTEX
8
CONTOURS_MINEURES
10
9.005
20
18.546
0
VERTEX
8
CONTOURS_MINEURES
10
6.545
20
18.546
0
VERTEX
8
CONTOURS_MINEURES
10
5.999
20
18.546
0
VERTEX
8
CONTOURS_MINEURES
10
5.738
20
18.262
0
VERTEX
8
CONTOURS_MINEURES
10
5.699
20
18.001
0
VERTEX
8
CONTOURS_MINEURES
10
5.699
20
17.701
0
VERTEX
8
CONTOURS_MINEURES
10
5.699
20
14.995
0
VERTEX
8
CONTOURS_MINEURES
10
5.400
20
12.598
0
VERTEX
8
CONTOURS_MINEURES
10
5.290
20
11.999
0
VERTEX
8
CONTOURS_MINEURES
10
5.325
20
11.325
0
VERTEX
8
CONTOURS_MINEURES
10
5.447
20
9.003
0
VERTEX
8
CONTOURS_MINEURES
10
5.447
20
6.551
0
VERTEX
8
CONTOURS_MINEURES
10
5.447
20
5.997
0
VERTEX
8
CONTOURS_MINEURES
10
5.022
20
3.978
0
VERTEX
8
CONTOURS_MINEURES
10
5.063
20
3.001
0
VERTEX
8
CONTOURS_MINEURES
10
4.978
20
1.980
0
VERTEX
8
CONTOURS_MINEURES
10
4.063
20
0.006
0
SEQEND
0
POLYLINE
8
CONTOURS_MINEURES
66
1
70
0
0
VERTEX
8
CONTOURS_MINEURES
10
12.494
20
102.001
0
VERTEX
8
CONTOURS_MINEURES
10
12.174
20
99.179
0
VERTEX
8
CONTOURS_MINEURES
10
12.195
20
99.005
0
VERTEX
8
CONTOURS_MINEURES
10
12.195
20
98.810
0
VERTEX
8
CONTOURS_MINEURES
10
12.195
20
95.998
0
VERTEX
8
CONTOURS_MINEURES
10
12.000
20
95.781
0
VERTEX
8
CONTOURS_MINEURES
10
9.262
20
93.003
0
VERTEX
8
CONTOURS_MINEURES
10
9.114
20
92.893
0
VERTEX
8
CONTOURS_MINEURES
10
9.005
20
92.769
0
VERTEX
8
CONTOURS_MINEURES
10
8.771
20
92.769
0
VERTEX
8
CONTOURS_MINEURES
10
5.999
20
92.769
0
VERTEX
8
CONTOURS_MINEURES
10
3.687
20
89.996
0
VERTEX
8
CONTOURS_MINEURES
10
3.687
20
87.684
0
VERTEX
8
CONTOURS_MINEURES
10
3.687
20
87.001
0
VERTEX
8
CONTOURS_MINEURES
10
3.004
20
84.754
0
VERTEX
8
CONTOURS_MINEURES
10
2.851
20
84.157
0
VERTEX
8
CONTOURS_MINEURES
10
2.830
20
84.005
0
VERTEX
8
CONTOURS_MINEURES
10
3.004
20
82.897
0
VERTEX
8
CONTOURS_MINEURES
10
3.257
20
81.252
0
VERTEX
8
CONTOURS_MINEURES
10
3.223
20
80.998
0
VERTEX
8
CONTOURS_MINEURES
10
3.223
20
80.779
0
VERTEX
8
CONTOURS_MINEURES
10
3.223
20
78.003
0
VERTEX
8
CONTOURS_MINEURES
10
3.353
20
77.652
0
VERTEX
8
CONTOURS_MINEURES
10
4.423
20
74.996
0
VERTEX
8
CONTOURS_MINEURES
10
4.423
20
73.576
0
VERTEX
8
CONTOURS_MINEURES
10
4.423
20
72.000
0
VERTEX
8
CONTOURS_MINEURES
10
4.886
20
70.888
0
VERTEX
8
CONTOURS_MINEURES
10
5.999
20
69.301
0
VERTEX
8
CONTOURS_MINEURES
10
8.707
20
69.301
0
VERTEX
8
CONTOURS_MINEURES
10
9.005
20
69.301
0
VERTEX
8
CONTOURS_MINEURES
10
9.125
20
69.124
0
VERTEX
8
CONTOURS_MINEURES
10
9.213
20
69.005
0
VERTEX
8
CONTOURS_MINEURES
10
9.473
20
68.535
0
VERTEX
8
CONTOURS_MINEURES
10
10.845
20
65.998
0
VERTEX
8
CONTOURS_MINEURES
10
10.845
20
64.158
0
VERTEX
8
CONTOURS_MINEURES
10
10.845
20
63.002
0
VERTEX
8
CONTOURS_MINEURES
10
11.121
20
62.120
0
VERTEX
8
CONTOURS_MINEURES
10
12.000
20
60.921
0
VERTEX
8
CONTOURS_MINEURES
10
12.444
20
59.996
0
VERTEX
8
CONTOURS_MINEURES
10
13.036
20
58.036
0
VERTEX
8
CONTOURS_MINEURES
10
13.596
20
57.000
0
VERTEX
8
CONTOURS_MINEURES
10
13.596
20
55.601
0
VERTEX
8
CONTOURS_MINEURES
10
13.596
20
54.004
0
VERTEX
8
CONTOURS_MINEURES
10
14.603
20
51.391
0
VERTEX
8
CONTOURS_MINEURES
10
14.679
20
50.998
0
VERTEX
8
CONTOURS_MINEURES
10
14.679
20
50.681
0
VERTEX
8
CONTOURS_MINEURES
10
14.679
20
48.002
0
VERTEX
8
CONTOURS_MINEURES
10
14.995
20
46.968
0
VERTEX
8
CONTOURS_MINEURES
10
16.029
20
46.968
0
VERTEX
8
CONTOURS_MINEURES
10
18.001
20
46.968
0
VERTEX
8
CONTOURS_MINEURES
10
18.374
20
45.369
0
VERTEX
8
CONTOURS_MINEURES
10
18.534
20
44.995
0
VERTEX
8
CONTOURS_MINEURES
10
18.637
20
44.360
0
VERTEX
8
CONTOURS_MINEURES
10
18.965
20
42.000
0
VERTEX
8
CONTOURS_MINEURES
10
18.965
20
39.968
0
VERTEX
8
CONTOURS_MINEURES
10
18.965
20
39.004
0
VERTEX
8
CONTOURS_MINEURES
10
18.929
20
36.929
0
VERTEX
8
CONTOURS_MINEURES
10
18.905
20
35.997
0
VERTEX
8
CONTOURS_MINEURES
10
18.890
20
35.109
0
VERTEX
8
CONTOURS_MINEURES
10
18.737
20
33.002
0
VERTEX
8
CONTOURS_MINEURES
10
18.737
20
30.733
0
VERTEX
8
CONTOURS_MINEURES
10
18.737
20
29.995
0
VERTEX
8
CONTOURS_MINEURES
10
18.511
20
27.509
0
VERTEX
8
CONTOURS_MINEURES
10
18.464
20
26.999
0
VERTEX
8
CONTOURS_MINEURES
10
18.384
20
26.616
0
VERTEX
8
CONTOURS_MINEURES
10
18.001
20
25.041
0
VERTEX
8
CONTOURS_MINEURES
10
16.961
20
25.041
0
VERTEX
8
CONTOURS_MINEURES
10
14.995
20
25.041
0
VERTEX
8
CONTOURS_MINEURES
10
14.641
20
24.004
0
VERTEX
8
CONTOURS_MINEURES
10
14.641
20
21.353
0
VERTEX
8
CONTOURS_MINEURES
10
14.641
20
20.997
0
VERTEX
8
CONTOURS_MINEURES
10
14.434
20
20.435
0
VERTEX
8
CONTOURS_MINEURES
10
13.579
20
18.001
0
VERTEX
8
CONTOURS_MINEURES
10
13.579
20
16.579
0
VERTEX
8
CONTOURS_MINEURES
10
13.579
20
14.995
0
VERTEX
8
CONTOURS_MINEURES
10
13.454
20
13.453
0
VERTEX
8
CONTOURS_MINEURES
10
13.318
20
11.999
0
VERTEX
8
CONTOURS_MINEURES
10
13.163
20
10.836
0
VERTEX
8
CONTOURS_MINEURES
10
13.245
20
9.003
0
VERTEX
8
CONTOURS_MINEURES
10
13.245
20
7.754
0
VERTEX
8
CONTOURS_MINEURES
10
13.245
20
5.997
0
VERTEX
8
CONTOURS_MINEURES
10
12.901
20
5.096
0
VERTEX
8
CONTOURS_MINEURES
10
12.419
20
3.001
0
VERTEX
8
CONTOURS_MINEURES
10
12.000
20
2.346
0
VERTEX
8
CONTOURS_MINEURES
10
10.891
20
1.115
0
VERTEX
8
CONTOURS_MINEURES
10
10.456
20
0.006
0
SEQEND
0
POLYLINE
8
CONTOURS_MINEURES
66
1
70
0
0
VERTEX
8
CONTOURS_MINEURES
10
18.439
20
102.001
0
VERTEX
8
CONTOURS_MINEURES
10
18.605
20
99.609
0
VERTEX
8
CONTOURS_MINEURES
10
18.894
20
99.005
0
VERTEX
8
CONTOURS_MINEURES
10
18.894
20
98.110
0
VERTEX
8
CONTOURS_MINEURES
10
18.894
20
95.998
0
VERTEX
8
CONTOURS_MINEURES
10
18.001
20
94.688
0
VERTEX
8
CONTOURS_MINEURES
10
16.311
20
94.688
0
VERTEX
8
CONTOURS_MINEURES
10
14.995
20
94.688
0
VERTEX
8
CONTOURS_MINEURES
10
13.498
20
93.003
0
VERTEX
8
CONTOURS_MINEURES
10
12.568
20
92.433
0
VERTEX
8
CONTOURS_MINEURES
10
12.000
20
91.863
0
VERTEX
8
CONTOURS_MINEURES
10
10.929
20
91.071
0
VERTEX
8
CONTOURS_MINEURES
10
9.992
20
89.996
0
VERTEX
8
CONTOURS_MINEURES
10
9.992
20
89.009
0
VERTEX
8
CONTOURS_MINEURES
10
9.992
20
87.001
0
VERTEX
8
CONTOURS_MINEURES
10
9.513
20
86.492
0
VERTEX
8
CONTOURS_MINEURES
10
9.005
20
85.528
0
VERTEX
8
CONTOURS_MINEURES
10
7.527
20
85.528
0
VERTEX
8
CONTOURS_MINEURES
10
5.999
20
85.528
0
VERTEX
8
CONTOURS_MINEURES
10
5.268
20
84.005
0
VERTEX
8
CONTOURS_MINEURES
10
5.366
20
83.370
0
VERTEX
8
CONTOURS_MINEURES
10
5.049
20
80.998
0
VERTEX
8
CONTOURS_MINEURES
10
5.049
20
78.952
0
VERTEX
8
CONTOURS_MINEURES
10
5.049
20
78.003
0
VERTEX
8
CONTOURS_MINEURES
10
5.999
20
75.439
0
VERTEX
8
CONTOURS_MINEURES
10
8.561
20
75.439
0
VERTEX
8
CONTOURS_MINEURES
10
9.005
20
75.439
0
VERTEX
8
CONTOURS_MINEURES
10
9.186
20
74.996
0
VERTEX
8
CONTOURS_MINEURES
10
9.186
20
72.181
0
VERTEX
8
CONTOURS_MINEURES
10
9.186
20
72.000
0
VERTEX
8
CONTOURS_MINEURES
10
10.323
20
70.323
0
VERTEX
8
CONTOURS_MINEURES
10
11.293
20
69.005
0
VERTEX
8
CONTOURS_MINEURES
10
12.000
20
67.727
0
VERTEX
8
CONTOURS_MINEURES
10
12.779
20
65.998
0
VERTEX
8
CONTOURS_MINEURES
10
12.779
20
65.219
0
VERTEX
8
CONTOURS_MINEURES
10
12.779
20
63.002
0
VERTEX
8
CONTOURS_MINEURES
10
13.640
20
61.356
0
VERTEX
8
CONTOURS_MINEURES
10
14.293
20
59.996
0
VERTEX
8
CONTOURS_MINEURES
10
14.456
20
59.456
0
VERTEX
8
CONTOURS_MINEURES
10
14.995
20
58.457
0
VERTEX
8
CONTOURS_MINEURES
10
16.539
20
58.457
0
VERTEX
8
CONTOURS_MINEURES
10
18.001
20
58.457
0
VERTEX
8
CONTOURS_MINEURES
10
18.675
20
57.000
0
VERTEX
8
CONTOURS_MINEURES
10
18.675
20
56.326
0
VERTEX
8
CONTOURS_MINEURES
10
18.675
20
54.004
0
VERTEX
8
CONTOURS_MINEURES
10
19.253
20
52.254
0
VERTEX
8
CONTOURS_MINEURES
10
19.947
20
50.998
0
VERTEX
8
CONTOURS_MINEURES
10
19.947
20
49.052
0
VERTEX
8
CONTOURS_MINEURES
10
19.947
20
48.002
0
VERTEX
8
CONTOURS_MINEURES
10
20.146
20
47.148
0
VERTEX
8
CONTOURS_MINEURES
10
20.997
20
45.172
0
VERTEX
8
CONTOURS_MINEURES
10
21.173
20
45.172
0
VERTEX
8
CONTOURS_MINEURES
10
24.003
20
45.172
0
VERTEX
8
CONTOURS_MINEURES
10
24.060
20
44.995
0
VERTEX
8
CONTOURS_MINEURES
10
24.379
20
42.376
0
VERTEX
8
CONTOURS_MINEURES
10
24.433
20
42.000
0
VERTEX
8
CONTOURS_MINEURES
10
24.433
20
39.435
0
VERTEX
8
CONTOURS_MINEURES
10
24.433
20
39.004
0
VERTEX
8
CONTOURS_MINEURES
10
24.412
20
38.593
0
VERTEX
8
CONTOURS_MINEURES
10
24.363
20
35.997
0
VERTEX
8
CONTOURS_MINEURES
10
24.329
20
33.328
0
VERTEX
8
CONTOURS_MINEURES
10
24.313
20
33.002
0
VERTEX
8
CONTOURS_MINEURES
10
24.313
20
32.690
0
VERTEX
8
CONTOURS_MINEURES
10
24.313
20
29.995
0
VERTEX
8
CONTOURS_MINEURES
10
24.294
20
29.704
0
VERTEX
8
CONTOURS_MINEURES
10
24.130
20
26.999
0
VERTEX
8
CONTOURS_MINEURES
10
24.003
20
26.088
0
VERTEX
8
CONTOURS_MINEURES
10
23.088
20
26.088
0
VERTEX
8
CONTOURS_MINEURES
10
20.997
20
26.088
0
VERTEX
8
CONTOURS_MINEURES
10
20.636
20
24.364
0
VERTEX
8
CONTOURS_MINEURES
10
20.549
20
24.004
0
VERTEX
8
CONTOURS_MINEURES
10
20.549
20
23.554
0
VERTEX
8
CONTOURS_MINEURES
10
20.549
20
20.997
0
VERTEX
8
CONTOURS_MINEURES
10
20.405
20
20.405
0
VERTEX
8
CONTOURS_MINEURES
10
19.988
20
18.001
0
VERTEX
8
CONTOURS_MINEURES
10
19.988
20
16.007
0
VERTEX
8
CONTOURS_MINEURES
10
19.988
20
14.995
0
VERTEX
8
CONTOURS_MINEURES
10
19.910
20
13.908
0
VERTEX
8
CONTOURS_MINEURES
10
19.486
20
11.999
0
VERTEX
8
CONTOURS_MINEURES
10
19.233
20
10.767
0
VERTEX
8
CONTOURS_MINEURES
10
19.099
20
9.003
0
VERTEX
8
CONTOURS_MINEURES
10
19.099
20
7.902
0
VERTEX
8
CONTOURS_MINEURES
10
19.099
20
5.997
0
VERTEX
8
CONTOURS_MINEURES
10
18.434
20
3.434
0
VERTEX
8
CONTOURS_MINEURES
10
18.307
20
3.001
0
VERTEX
8
CONTOURS_MINEURES
10
18.205
20
2.798
0
VERTEX
8
CONTOURS_MINEURES
10
18.001
20
2.419
0
VERTEX
8
CONTOURS_MINEURES
10
17.417
20
2.419
0
VERTEX
8
CONTOURS_MINEURES
10
14.995
20
2.419
0
VERTEX
8
CONTOURS_MINEURES
10
13.387
20
0.006
0
SEQEND
0
POLYLINE
8
CONTOURS_MINEURES
66
1
70
0
0
VERTEX
8
CONTOURS_MINEURES
10
20.743
20
102.001
0
VERTEX
8
CONTOURS_MINEURES
10
20.760
20
101.764
0
VERTEX
8
CONTOURS_MINEURES
10
20.997
20
101.269
0
VERTEX
8
CONTOURS_MINEURES
10
21.731
20
101.269
0
VERTEX
8
CONTOURS_MINEURES
10
24.003
20
101.269
0
VERTEX
8
CONTOURS_MINEURES
10
24.786
20
99.005
0
VERTEX
8
CONTOURS_MINEURES
10
24.786
20
96.785
0
VERTEX
8
CONTOURS_MINEURES
10
24.786
20
95.998
0
VERTEX
8
CONTOURS_MINEURES
10
24.003
20
94.077
0
VERTEX
8
CONTOURS_MINEURES
10
22.925
20
94.077
0
VERTEX
8
CONTOURS_MINEURES
10
20.997
20
94.077
0
VERTEX
8
CONTOURS_MINEURES
10
20.311
20
93.003
0
VERTEX
8
CONTOURS_MINEURES
10
18.974
20
92.026
0
VERTEX
8
CONTOURS_MINEURES
10
18.001
20
91.372
0
VERTEX
8
CONTOURS_MINEURES
10
16.371
20
91.372
0
VERTEX
8
CONTOURS_MINEURES
10
14.995
20
91.372
0
VERTEX
8
CONTOURS_MINEURES
10
14.144
20
90.851
0
VERTEX
8
CONTOURS_MINEURES
10
13.293
20
89.996
0
VERTEX
8
CONTOURS_MINEURES
10
13.293
20
88.293
0
VERTEX
8
CONTOURS_MINEURES
10
13.293
20
87.001
0
VERTEX
8
CONTOURS_MINEURES
10
12.000
20
85.521
0
VERTEX
8
CONTOURS_MINEURES
10
11.264
20
84.741
0
VERTEX
8
CONTOURS_MINEURES
10
10.877
20
84.005
0
VERTEX
8
CONTOURS_MINEURES
10
10.602
20
82.602
0
VERTEX
8
CONTOURS_MINEURES
10
10.025
20
80.998
0
VERTEX
8
CONTOURS_MINEURES
10
10.025
20
79.978
0
VERTEX
8
CONTOURS_MINEURES
10
10.025
20
78.003
0
VERTEX
8
CONTOURS_MINEURES
10
10.639
20
76.363
0
VERTEX
8
CONTOURS_MINEURES
10
11.196
20
74.996
0
VERTEX
8
CONTOURS_MINEURES
10
11.196
20
74.192
0
VERTEX
8
CONTOURS_MINEURES
10
11.196
20
72.000
0
VERTEX
8
CONTOURS_MINEURES
10
11.521
20
71.521
0
VERTEX
8
CONTOURS_MINEURES
10
12.000
20
70.870
0
VERTEX
8
CONTOURS_MINEURES
10
13.259
20
69.005
0
VERTEX
8
CONTOURS_MINEURES
10
14.038
20
66.959
0
VERTEX
8
CONTOURS_MINEURES
10
14.471
20
65.998
0
VERTEX
8
CONTOURS_MINEURES
10
14.471
20
63.527
0
VERTEX
8
CONTOURS_MINEURES
10
14.471
20
63.002
0
VERTEX
8
CONTOURS_MINEURES
10
14.995
20
62.000
0
VERTEX
8
CONTOURS_MINEURES
10
16.999
20
62.000
0
VERTEX
8
CONTOURS_MINEURES
10
18.001
20
62.000
0
VERTEX
8
CONTOURS_MINEURES
10
18.916
20
59.996
0
VERTEX
8
CONTOURS_MINEURES
10
20.161
20
57.836
0
VERTEX
8
CONTOURS_MINEURES
10
20.547
20
57.000
0
VERTEX
8
CONTOURS_MINEURES
10
20.547
20
54.454
0
VERTEX
8
CONTOURS_MINEURES
10
20.547
20
54.004
0
VERTEX
8
CONTOURS_MINEURES
10
20.659
20
53.666
0
VERTEX
8
CONTOURS_MINEURES
10
20.997
20
53.055
0
VERTEX
8
CONTOURS_MINEURES
10
21.946
20
53.055
0
VERTEX
8
CONTOURS_MINEURES
10
24.003
20
53.055
0
VERTEX
8
CONTOURS_MINEURES
10
24.976
20
50.998
0
VERTEX
8
CONTOURS_MINEURES
10
24.976
20
50.024
0
VERTEX
8
CONTOURS_MINEURES
10
24.976
20
48.002
0
VERTEX
8
CONTOURS_MINEURES
10
25.486
20
46.513
0
VERTEX
8
CONTOURS_MINEURES
10
25.980
20
44.995
0
VERTEX
8
CONTOURS_MINEURES
10
26.091
20
44.088
0
VERTEX
8
CONTOURS_MINEURES
10
26.391
20
42.000
0
VERTEX
8
CONTOURS_MINEURES
10
26.391
20
41.393
0
VERTEX
8
CONTOURS_MINEURES
10
26.391
20
39.004
0
VERTEX
8
CONTOURS_MINEURES
10
26.272
20
36.726
0
VERTEX
8
CONTOURS_MINEURES
10
26.259
20
35.997
0
VERTEX
8
CONTOURS_MINEURES
10
26.249
20
35.248
0
VERTEX
8
CONTOURS_MINEURES
10
26.139
20
33.002
0
VERTEX
8
CONTOURS_MINEURES
10
26.139
20
30.857
0
VERTEX
8
CONTOURS_MINEURES
10
26.139
20
29.995
0
VERTEX
8
CONTOURS_MINEURES
10
26.005
20
27.992
0
VERTEX
8
CONTOURS_MINEURES
10
25.945
20
26.999
0
VERTEX
8
CONTOURS_MINEURES
10
25.774
20
25.776
0
VERTEX
8
CONTOURS_MINEURES
10
25.537
20
24.004
0
VERTEX
8
CONTOURS_MINEURES
10
25.537
20
22.464
0
VERTEX
8
CONTOURS_MINEURES
10
25.537
20
20.997
0
VERTEX
8
CONTOURS_MINEURES
10
25.424
20
19.575
0
VERTEX
8
CONTOURS_MINEURES
10
25.257
20
18.001
0
VERTEX
8
CONTOURS_MINEURES
10
25.257
20
16.254
0
VERTEX
8
CONTOURS_MINEURES
10
25.257
20
14.995
0
VERTEX
8
CONTOURS_MINEURES
10
25.037
20
13.960
0
VERTEX
8
CONTOURS_MINEURES
10
24.734
20
11.999
0
VERTEX
8
CONTOURS_MINEURES
10
24.599
20
11.403
0
VERTEX
8
CONTOURS_MINEURES
10
24.282
20
9.003
0
VERTEX
8
CONTOURS_MINEURES
10
24.282
20
8.723
0
VERTEX
8
CONTOURS_MINEURES
10
24.282
20
5.997
0
VERTEX
8
CONTOURS_MINEURES
10
24.003
20
4.724
0
VERTEX
8
CONTOURS_MINEURES
10
22.274
20
4.724
0
VERTEX
8
CONTOURS_MINEURES
10
20.997
20
4.724
0
VERTEX
8
CONTOURS_MINEURES
10
20.494
20
3.001
0
VERTEX
8
CONTOURS_MINEURES
10
19.659
20
1.343
0
VERTEX
8
CONTOURS_MINEURES
10
18.940
20
0.006
0
SEQEND
0
POLYLINE
8
CONTOURS_MINEURES
66
1
70
0
0
VERTEX
8
CONTOURS_MINEURES
10
25.562
20
102.001
0
VERTEX
8
CONTOURS_MINEURES
10
26.998
20
99.144
0
VERTEX
8
CONTOURS_MINEURES
10
27.062
20
99.069
0
VERTEX
8
CONTOURS_MINEURES
10
27.102
20
99.005
0
VERTEX
8
CONTOURS_MINEURES
10
27.102
20
98.901
0
VERTEX
8
CONTOURS_MINEURES
10
27.102
20
95.998
0
VERTEX
8
CONTOURS_MINEURES
10
26.998
20
94.800
0
VERTEX
8
CONTOURS_MINEURES
10
26.791
20
93.003
0
VERTEX
8
CONTOURS_MINEURES
10
25.314
20
91.686
0
VERTEX
8
CONTOURS_MINEURES
10
24.003
20
90.866
0
VERTEX
8
CONTOURS_MINEURES
10
21.867
20
90.866
0
VERTEX
8
CONTOURS_MINEURES
10
20.997
20
90.866
0
VERTEX
8
CONTOURS_MINEURES
10
20.495
20
90.500
0
VERTEX
8
CONTOURS_MINEURES
10
19.745
20
89.996
0
VERTEX
8
CONTOURS_MINEURES
10
19.745
20
88.745
0
VERTEX
8
CONTOURS_MINEURES
10
19.745
20
87.001
0
VERTEX
8
CONTOURS_MINEURES
10
18.802
20
86.199
0
VERTEX
8
CONTOURS_MINEURES
10
18.001
20
85.486
0
VERTEX
8
CONTOURS_MINEURES
10
16.482
20
85.486
0
VERTEX
8
CONTOURS_MINEURES
10
14.995
20
85.486
0
VERTEX
8
CONTOURS_MINEURES
10
13.687
20
84.005
0
VERTEX
8
CONTOURS_MINEURES
10
13.158
20
82.842
0
VERTEX
8
CONTOURS_MINEURES
10
12.212
20
80.998
0
VERTEX
8
CONTOURS_MINEURES
10
12.212
20
80.786
0
VERTEX
8
CONTOURS_MINEURES
10
12.212
20
78.003
0
VERTEX
8
CONTOURS_MINEURES
10
13.182
20
76.183
0
VERTEX
8
CONTOURS_MINEURES
10
13.383
20
74.996
0
VERTEX
8
CONTOURS_MINEURES
10
13.383
20
73.613
0
VERTEX
8
CONTOURS_MINEURES
10
13.383
20
72.000
0
VERTEX
8
CONTOURS_MINEURES
10
14.995
20
69.346
0
VERTEX
8
CONTOURS_MINEURES
10
17.659
20
69.346
0
VERTEX
8
CONTOURS_MINEURES
10
18.001
20
69.346
0
VERTEX
8
CONTOURS_MINEURES
10
18.155
20
69.005
0
VERTEX
8
CONTOURS_MINEURES
10
18.881
20
66.881
0
VERTEX
8
CONTOURS_MINEURES
10
18.937
20
65.998
0
VERTEX
8
CONTOURS_MINEURES
10
18.937
20
63.938
0
VERTEX
8
CONTOURS_MINEURES
10
18.937
20
63.002
0
VERTEX
8
CONTOURS_MINEURES
10
19.880
20
61.116
0
VERTEX
8
CONTOURS_MINEURES
10
20.392
20
59.996
0
VERTEX
8
CONTOURS_MINEURES
10
20.997
20
58.946
0
VERTEX
8
CONTOURS_MINEURES
10
22.949
20
58.946
0
VERTEX
8
CONTOURS_MINEURES
10
24.003
20
58.946
0
VERTEX
8
CONTOURS_MINEURES
10
25.289
20
57.000
0
VERTEX
8
CONTOURS_MINEURES
10
25.289
20
55.291
0
VERTEX
8
CONTOURS_MINEURES
10
25.289
20
54.004
0
VERTEX
8
CONTOURS_MINEURES
10
26.713
20
51.284
0
VERTEX
8
CONTOURS_MINEURES
10
26.848
20
50.998
0
VERTEX
8
CONTOURS_MINEURES
10
26.848
20
48.152
0
VERTEX
8
CONTOURS_MINEURES
10
26.848
20
48.002
0
VERTEX
8
CONTOURS_MINEURES
10
26.998
20
47.565
0
VERTEX
8
CONTOURS_MINEURES
10
27.915
20
44.995
0
VERTEX
8
CONTOURS_MINEURES
10
28.176
20
43.174
0
VERTEX
8
CONTOURS_MINEURES
10
28.428
20
42.000
0
VERTEX
8
CONTOURS_MINEURES
10
28.428
20
40.574
0
VERTEX
8
CONTOURS_MINEURES
10
28.428
20
39.004
0
VERTEX
8
CONTOURS_MINEURES
10
28.353
20
37.648
0
VERTEX
8
CONTOURS_MINEURES
10
28.262
20
35.997
0
VERTEX
8
CONTOURS_MINEURES
10
28.064
20
34.935
0
VERTEX
8
CONTOURS_MINEURES
10
27.969
20
33.002
0
VERTEX
8
CONTOURS_MINEURES
10
27.969
20
30.967
0
VERTEX
8
CONTOURS_MINEURES
10
27.969
20
29.995
0
VERTEX
8
CONTOURS_MINEURES
10
27.823
20
27.822
0
VERTEX
8
CONTOURS_MINEURES
10
27.745
20
26.999
0
VERTEX
8
CONTOURS_MINEURES
10
27.626
20
26.373
0
VERTEX
8
CONTOURS_MINEURES
10
27.334
20
24.004
0
VERTEX
8
CONTOURS_MINEURES
10
27.334
20
23.668
0
VERTEX
8
CONTOURS_MINEURES
10
27.334
20
20.997
0
VERTEX
8
CONTOURS_MINEURES
10
27.125
20
18.128
0
VERTEX
8
CONTOURS_MINEURES
10
27.109
20
18.001
0
VERTEX
8
CONTOURS_MINEURES
10
27.109
20
17.891
0
VERTEX
8
CONTOURS_MINEURES
10
27.109
20
14.995
0
VERTEX
8
CONTOURS_MINEURES
10
26.998
20
14.378
0
VERTEX
8
CONTOURS_MINEURES
10
26.581
20
12.416
0
VERTEX
8
CONTOURS_MINEURES
10
26.516
20
11.999
0
VERTEX
8
CONTOURS_MINEURES
10
26.053
20
9.949
0
VERTEX
8
CONTOURS_MINEURES
10
25.928
20
9.003
0
VERTEX
8
CONTOURS_MINEURES
10
25.928
20
7.071
0
VERTEX
8
CONTOURS_MINEURES
10
25.928
20
5.997
0
VERTEX
8
CONTOURS_MINEURES
10
25.627
20
4.626
0
VERTEX
8
CONTOURS_MINEURES
10
25.223
20
3.001
0
VERTEX
8
CONTOURS_MINEURES
10
24.914
20
2.089
0
VERTEX
8
CONTOURS_MINEURES
10
24.133
20
0.006
0
SEQEND
0
POLYLINE
8
CONTOURS_MINEURES
66
1
70
0
0
VERTEX
8
CONTOURS_MINEURES
10
27.528
20
102.001
0
VERTEX
8
CONTOURS_MINEURES
10
28.661
20
100.662
0
VERTEX
8
CONTOURS_MINEURES
10
29.716
20
99.005
0
VERTEX
8
CONTOURS_MINEURES
10
29.716
20
96.286
0
VERTEX
8
CONTOURS_MINEURES
10
29.716
20
95.998
0
VERTEX
8
CONTOURS_MINEURES
10
29.689
20
95.685
0
VERTEX
8
CONTOURS_MINEURES
10
29.372
20
93.003
0
VERTEX
8
CONTOURS_MINEURES
10
26.998
20
90.119
0
VERTEX
8
CONTOURS_MINEURES
10
26.933
20
90.061
0
VERTEX
8
CONTOURS_MINEURES
10
26.829
20
89.996
0
VERTEX
8
CONTOURS_MINEURES
10
26.829
20
89.827
0
VERTEX
8
CONTOURS_MINEURES
10
26.829
20
87.001
0
VERTEX
8
CONTOURS_MINEURES
10
24.003
20
84.842
0
VERTEX
8
CONTOURS_MINEURES
10
23.162
20
84.842
0
VERTEX
8
CONTOURS_MINEURES
10
20.997
20
84.842
0
VERTEX
8
CONTOURS_MINEURES
10
20.544
20
84.458
0
VERTEX
8
CONTOURS_MINEURES
10
20.035
20
84.005
0
VERTEX
8
CONTOURS_MINEURES
10
19.278
20
82.723
0
VERTEX
8
CONTOURS_MINEURES
10
18.294
20
80.998
0
VERTEX
8
CONTOURS_MINEURES
10
18.294
20
80.706
0
VERTEX
8
CONTOURS_MINEURES
10
18.294
20
78.003
0
VERTEX
8
CONTOURS_MINEURES
10
18.865
20
75.863
0
VERTEX
8
CONTOURS_MINEURES
10
18.900
20
74.996
0
VERTEX
8
CONTOURS_MINEURES
10
18.900
20
72.899
0
VERTEX
8
CONTOURS_MINEURES
10
18.900
20
72.000
0
VERTEX
8
CONTOURS_MINEURES
10
18.937
20
71.064
0
VERTEX
8
CONTOURS_MINEURES
10
19.867
20
69.005
0
VERTEX
8
CONTOURS_MINEURES
10
20.155
20
68.160
0
VERTEX
8
CONTOURS_MINEURES
10
20.292
20
65.998
0
VERTEX
8
CONTOURS_MINEURES
10
20.292
20
65.293
0
VERTEX
8
CONTOURS_MINEURES
10
20.292
20
63.002
0
VERTEX
8
CONTOURS_MINEURES
10
20.997
20
61.594
0
VERTEX
8
CONTOURS_MINEURES
10
22.405
20
61.594
0
VERTEX
8
CONTOURS_MINEURES
10
24.003
20
61.594
0
VERTEX
8
CONTOURS_MINEURES
10
24.558
20
60.553
0
VERTEX
8
CONTOURS_MINEURES
10
24.828
20
59.996
0
VERTEX
8
CONTOURS_MINEURES
10
26.948
20
57.050
0
VERTEX
8
CONTOURS_MINEURES
10
26.981
20
57.000
0
VERTEX
8
CONTOURS_MINEURES
10
26.981
20
56.983
0
VERTEX
8
CONTOURS_MINEURES
10
26.981
20
54.004
0
VERTEX
8
CONTOURS_MINEURES
10
26.998
20
53.972
0
VERTEX
8
CONTOURS_MINEURES
10
28.007
20
52.007
0
VERTEX
8
CONTOURS_MINEURES
10
28.664
20
50.998
0
VERTEX
8
CONTOURS_MINEURES
10
28.664
20
49.662
0
VERTEX
8
CONTOURS_MINEURES
10
28.664
20
48.002
0
VERTEX
8
CONTOURS_MINEURES
10
29.791
20
45.208
0
VERTEX
8
CONTOURS_MINEURES
10
29.867
20
44.995
0
VERTEX
8
CONTOURS_MINEURES
10
29.884
20
44.876
0
VERTEX
8
CONTOURS_MINEURES
10
30.004
20
44.319
0
VERTEX
8
CONTOURS_MINEURES
10
30.680
20
44.319
0
VERTEX
8
CONTOURS_MINEURES
10
32.999
20
44.319
0
VERTEX
8
CONTOURS_MINEURES
10
33.487
20
42.000
0
VERTEX
8
CONTOURS_MINEURES
10
33.487
20
39.490
0
VERTEX
8
CONTOURS_MINEURES
10
33.487
20
39.004
0
VERTEX
8
CONTOURS_MINEURES
10
33.522
20
38.481
0
VERTEX
8
CONTOURS_MINEURES
10
33.369
20
35.997
0
VERTEX
8
CONTOURS_MINEURES
10
33.296
20
35.701
0
VERTEX
8
CONTOURS_MINEURES
10
32.999
20
34.222
0
VERTEX
8
CONTOURS_MINEURES
10
31.224
20
34.222
0
VERTEX
8
CONTOURS_MINEURES
10
30.004
20
34.222
0
VERTEX
8
CONTOURS_MINEURES
10
29.812
20
33.193
0
VERTEX
8
CONTOURS_MINEURES
10
29.802
20
33.002
0
VERTEX
8
CONTOURS_MINEURES
10
29.802
20
32.800
0
VERTEX
8
CONTOURS_MINEURES
10
29.802
20
29.995
0
VERTEX
8
CONTOURS_MINEURES
10
29.788
20
29.780
0
VERTEX
8
CONTOURS_MINEURES
10
29.524
20
26.999
0
VERTEX
8
CONTOURS_MINEURES
10
29.121
20
24.883
0
VERTEX
8
CONTOURS_MINEURES
10
29.013
20
24.004
0
VERTEX
8
CONTOURS_MINEURES
10
29.013
20
21.988
0
VERTEX
8
CONTOURS_MINEURES
10
29.013
20
20.997
0
VERTEX
8
CONTOURS_MINEURES
10
28.935
20
19.932
0
VERTEX
8
CONTOURS_MINEURES
10
28.691
20
18.001
0
VERTEX
8
CONTOURS_MINEURES
10
28.691
20
16.308
0
VERTEX
8
CONTOURS_MINEURES
10
28.691
20
14.995
0
VERTEX
8
CONTOURS_MINEURES
10
28.405
20
13.401
0
VERTEX
8
CONTOURS_MINEURES
10
28.190
20
11.999
0
VERTEX
8
CONTOURS_MINEURES
10
27.901
20
11.099
0
VERTEX
8
CONTOURS_MINEURES
10
27.511
20
9.003
0
VERTEX
8
CONTOURS_MINEURES
10
27.511
20
6.510
0
VERTEX
8
CONTOURS_MINEURES
10
27.511
20
5.997
0
VERTEX
8
CONTOURS_MINEURES
10
27.383
20
5.613
0
VERTEX
8
CONTOURS_MINEURES
10
26.998
20
3.766
0
VERTEX
8
CONTOURS_MINEURES
10
26.808
20
3.001
0
VERTEX
8
CONTOURS_MINEURES
10
26.098
20
0.905
0
VERTEX
8
CONTOURS_MINEURES
10
25.761
20
0.006
0
SEQEND
0
POLYLINE
8
CONTOURS_MINEURES
66
1
70
0
0
VERTEX
8
CONTOURS_MINEURES
10
33.393
20
102.001
0
VERTEX
8
CONTOURS_MINEURES
10
34.371
20
100.372
0
VERTEX
8
CONTOURS_MINEURES
10
35.026
20
99.005
0
VERTEX
8
CONTOURS_MINEURES
10
35.026
20
98.026
0
VERTEX
8
CONTOURS_MINEURES
10
35.026
20
95.998
0
VERTEX
8
CONTOURS_MINEURES
10
35.388
20
93.618
0
VERTEX
8
CONTOURS_MINEURES
10
35.300
20
93.003
0
VERTEX
8
CONTOURS_MINEURES
10
34.733
20
91.268
0
VERTEX
8
CONTOURS_MINEURES
10
33.250
20
89.996
0
VERTEX
8
CONTOURS_MINEURES
10
33.250
20
89.747
0
VERTEX
8
CONTOURS_MINEURES
10
33.250
20
87.001
0
VERTEX
8
CONTOURS_MINEURES
10
32.999
20
86.808
0
VERTEX
8
CONTOURS_MINEURES
10
30.196
20
86.808
0
VERTEX
8
CONTOURS_MINEURES
10
30.004
20
86.808
0
VERTEX
8
CONTOURS_MINEURES
10
27.499
20
84.504
0
VERTEX
8
CONTOURS_MINEURES
10
26.998
20
84.036
0
VERTEX
8
CONTOURS_MINEURES
10
26.958
20
84.005
0
VERTEX
8
CONTOURS_MINEURES
10
26.887
20
83.894
0
VERTEX
8
CONTOURS_MINEURES
10
25.001
20
80.998
0
VERTEX
8
CONTOURS_MINEURES
10
25.001
20
80.000
0
VERTEX
8
CONTOURS_MINEURES
10
25.001
20
78.003
0
VERTEX
8
CONTOURS_MINEURES
10
24.797
20
77.205
0
VERTEX
8
CONTOURS_MINEURES
10
24.884
20
74.996
0
VERTEX
8
CONTOURS_MINEURES
10
24.884
20
72.881
0
VERTEX
8
CONTOURS_MINEURES
10
24.884
20
72.000
0
VERTEX
8
CONTOURS_MINEURES
10
24.590
20
71.413
0
VERTEX
8
CONTOURS_MINEURES
10
24.651
20
69.005
0
VERTEX
8
CONTOURS_MINEURES
10
24.843
20
66.842
0
VERTEX
8
CONTOURS_MINEURES
10
24.697
20
65.998
0
VERTEX
8
CONTOURS_MINEURES
10
24.697
20
65.303
0
VERTEX
8
CONTOURS_MINEURES
10
24.697
20
63.002
0
VERTEX
8
CONTOURS_MINEURES
10
25.500
20
61.499
0
VERTEX
8
CONTOURS_MINEURES
10
26.228
20
59.996
0
VERTEX
8
CONTOURS_MINEURES
10
26.998
20
58.926
0
VERTEX
8
CONTOURS_MINEURES
10
27.970
20
57.969
0
VERTEX
8
CONTOURS_MINEURES
10
28.642
20
57.000
0
VERTEX
8
CONTOURS_MINEURES
10
28.642
20
55.361
0
VERTEX
8
CONTOURS_MINEURES
10
28.642
20
54.004
0
VERTEX
8
CONTOURS_MINEURES
10
29.104
20
53.105
0
VERTEX
8
CONTOURS_MINEURES
10
30.004
20
51.721
0
VERTEX
8
CONTOURS_MINEURES
10
32.278
20
51.721
0
VERTEX
8
CONTOURS_MINEURES
10
32.999
20
51.721
0
VERTEX
8
CONTOURS_MINEURES
10
33.443
20
50.998
0
VERTEX
8
CONTOURS_MINEURES
10
33.443
20
50.555
0
VERTEX
8
CONTOURS_MINEURES
10
33.443
20
48.002
0
VERTEX
8
CONTOURS_MINEURES
10
33.822
20
47.179
0
VERTEX
8
CONTOURS_MINEURES
10
34.725
20
44.995
0
VERTEX
8
CONTOURS_MINEURES
10
35.388
20
42.614
0
VERTEX
8
CONTOURS_MINEURES
10
35.518
20
42.000
0
VERTEX
8
CONTOURS_MINEURES
10
35.518
20
41.514
0
VERTEX
8
CONTOURS_MINEURES
10
35.518
20
39.004
0
VERTEX
8
CONTOURS_MINEURES
10
35.700
20
36.302
0
VERTEX
8
CONTOURS_MINEURES
10
35.681
20
35.997
0
VERTEX
8
CONTOURS_MINEURES
10
35.152
20
33.852
0
VERTEX
8
CONTOURS_MINEURES
10
34.981
20
33.002
0
VERTEX
8
CONTOURS_MINEURES
10
34.981
20
31.977
0
VERTEX
8
CONTOURS_MINEURES
10
34.981
20
29.995
0
VERTEX
8
CONTOURS_MINEURES
10
34.843
20
28.837
0
VERTEX
8
CONTOURS_MINEURES
10
34.452
20
26.999
0
VERTEX
8
CONTOURS_MINEURES
10
34.142
20
25.860
0
VERTEX
8
CONTOURS_MINEURES
10
33.769
20
24.004
0
VERTEX
8
CONTOURS_MINEURES
10
33.769
20
23.233
0
VERTEX
8
CONTOURS_MINEURES
10
33.769
20
20.997
0
VERTEX
8
CONTOURS_MINEURES
10
33.375
20
18.376
0
VERTEX
8
CONTOURS_MINEURES
10
33.300
20
18.001
0
VERTEX
8
CONTOURS_MINEURES
10
33.300
20
17.701
0
VERTEX
8
CONTOURS_MINEURES
10
33.300
20
14.995
0
VERTEX
8
CONTOURS_MINEURES
10
32.999
20
13.176
0
VERTEX
8
CONTOURS_MINEURES
10
31.822
20
13.176
0
VERTEX
8
CONTOURS_MINEURES
10
30.004
20
13.176
0
VERTEX
8
CONTOURS_MINEURES
10
29.824
20
11.999
0
VERTEX
8
CONTOURS_MINEURES
10
29.138
20
9.866
0
VERTEX
8
CONTOURS_MINEURES
10
28.977
20
9.003
0
VERTEX
8
CONTOURS_MINEURES
10
28.977
20
7.977
0
VERTEX
8
CONTOURS_MINEURES
10
28.977
20
5.997
0
VERTEX
8
CONTOURS_MINEURES
10
28.484
20
4.515
0
VERTEX
8
CONTOURS_MINEURES
10
28.168
20
3.001
0
VERTEX
8
CONTOURS_MINEURES
10
27.443
20
0.449
0
VERTEX
8
CONTOURS_MINEURES
10
27.329
20
0.006
0
SEQEND
0
POLYLINE
8
CONTOURS_MINEURES
66
1
70
0
0
VERTEX
8
CONTOURS_MINEURES
10
35.857
20
102.001
0
VERTEX
8
CONTOURS_MINEURES
10
35.913
20
101.909
0
VERTEX
8
CONTOURS_MINEURES
10
36.005
20
101.715
0
VERTEX
8
CONTOURS_MINEURES
10
37.821
20
99.005
0
VERTEX
8
CONTOURS_MINEURES
10
37.821
20
97.822
0
VERTEX
8
CONTOURS_MINEURES
10
37.821
20
95.998
0
VERTEX
8
CONTOURS_MINEURES
10
38.028
20
95.026
0
VERTEX
8
CONTOURS_MINEURES
10
39.000
20
93.736
0
VERTEX
8
CONTOURS_MINEURES
10
41.262
20
93.736
0
VERTEX
8
CONTOURS_MINEURES
10
41.996
20
93.736
0
VERTEX
8
CONTOURS_MINEURES
10
42.257
20
93.263
0
VERTEX
8
CONTOURS_MINEURES
10
42.452
20
93.003
0
VERTEX
8
CONTOURS_MINEURES
10
42.780
20
92.218
0
VERTEX
8
CONTOURS_MINEURES
10
43.379
20
89.996
0
VERTEX
8
CONTOURS_MINEURES
10
43.379
20
88.617
0
VERTEX
8
CONTOURS_MINEURES
10
43.379
20
87.001
0
VERTEX
8
CONTOURS_MINEURES
10
41.996
20
85.528
0
VERTEX
8
CONTOURS_MINEURES
10
40.473
20
85.528
0
VERTEX
8
CONTOURS_MINEURES
10
39.000
20
85.528
0
VERTEX
8
CONTOURS_MINEURES
10
37.802
20
85.203
0
VERTEX
8
CONTOURS_MINEURES
10
36.005
20
84.249
0
VERTEX
8
CONTOURS_MINEURES
10
35.617
20
84.005
0
VERTEX
8
CONTOURS_MINEURES
10
32.999
20
82.381
0
VERTEX
8
CONTOURS_MINEURES
10
31.621
20
82.381
0
VERTEX
8
CONTOURS_MINEURES
10
30.004
20
82.381
0
VERTEX
8
CONTOURS_MINEURES
10
29.030
20
80.998
0
VERTEX
8
CONTOURS_MINEURES
10
29.030
20
80.028
0
VERTEX
8
CONTOURS_MINEURES
10
29.030
20
78.003
0
VERTEX
8
CONTOURS_MINEURES
10
28.648
20
76.647
0
VERTEX
8
CONTOURS_MINEURES
10
28.024
20
74.996
0
VERTEX
8
CONTOURS_MINEURES
10
28.024
20
73.973
0
VERTEX
8
CONTOURS_MINEURES
10
28.024
20
72.000
0
VERTEX
8
CONTOURS_MINEURES
10
26.998
20
70.356
0
VERTEX
8
CONTOURS_MINEURES
10
26.548
20
69.455
0
VERTEX
8
CONTOURS_MINEURES
10
26.559
20
69.005
0
VERTEX
8
CONTOURS_MINEURES
10
26.595
20
68.600
0
VERTEX
8
CONTOURS_MINEURES
10
26.144
20
65.998
0
VERTEX
8
CONTOURS_MINEURES
10
26.144
20
63.856
0
VERTEX
8
CONTOURS_MINEURES
10
26.144
20
63.002
0
VERTEX
8
CONTOURS_MINEURES
10
26.442
20
62.444
0
VERTEX
8
CONTOURS_MINEURES
10
26.998
20
61.297
0
VERTEX
8
CONTOURS_MINEURES
10
27.888
20
59.996
0
VERTEX
8
CONTOURS_MINEURES
10
28.953
20
58.948
0
VERTEX
8
CONTOURS_MINEURES
10
30.004
20
57.431
0
VERTEX
8
CONTOURS_MINEURES
10
32.568
20
57.431
0
VERTEX
8
CONTOURS_MINEURES
10
32.999
20
57.431
0
VERTEX
8
CONTOURS_MINEURES
10
33.295
20
57.000
0
VERTEX
8
CONTOURS_MINEURES
10
33.295
20
54.299
0
VERTEX
8
CONTOURS_MINEURES
10
33.295
20
54.004
0
VERTEX
8
CONTOURS_MINEURES
10
33.795
20
53.208
0
VERTEX
8
CONTOURS_MINEURES
10
35.151
20
50.998
0
VERTEX
8
CONTOURS_MINEURES
10
35.151
20
48.853
0
VERTEX
8
CONTOURS_MINEURES
10
35.151
20
48.002
0
VERTEX
8
CONTOURS_MINEURES
10
36.005
20
46.146
0
VERTEX
8
CONTOURS_MINEURES
10
36.427
20
44.995
0
VERTEX
8
CONTOURS_MINEURES
10
36.864
20
42.859
0
VERTEX
8
CONTOURS_MINEURES
10
37.116
20
42.000
0
VERTEX
8
CONTOURS_MINEURES
10
37.116
20
40.889
0
VERTEX
8
CONTOURS_MINEURES
10
37.116
20
39.004
0
VERTEX
8
CONTOURS_MINEURES
10
37.210
20
37.795
0
VERTEX
8
CONTOURS_MINEURES
10
37.300
20
35.997
0
VERTEX
8
CONTOURS_MINEURES
10
36.974
20
33.970
0
VERTEX
8
CONTOURS_MINEURES
10
36.861
20
33.002
0
VERTEX
8
CONTOURS_MINEURES
10
36.861
20
32.143
0
VERTEX
8
CONTOURS_MINEURES
10
36.861
20
29.995
0
VERTEX
8
CONTOURS_MINEURES
10
36.714
20
29.286
0
VERTEX
8
CONTOURS_MINEURES
10
36.341
20
26.999
0
VERTEX
8
CONTOURS_MINEURES
10
36.287
20
26.718
0
VERTEX
8
CONTOURS_MINEURES
10
36.005
20
25.392
0
VERTEX
8
CONTOURS_MINEURES
10
35.708
20
24.300
0
VERTEX
8
CONTOURS_MINEURES
10
35.648
20
24.004
0
VERTEX
8
CONTOURS_MINEURES
10
35.648
20
21.354
0
VERTEX
8
CONTOURS_MINEURES
10
35.648
20
20.997
0
VERTEX
8
CONTOURS_MINEURES
10
35.585
20
20.579
0
VERTEX
8
CONTOURS_MINEURES
10
35.068
20
18.001
0
VERTEX
8
CONTOURS_MINEURES
10
35.068
20
15.932
0
VERTEX
8
CONTOURS_MINEURES
10
35.068
20
14.995
0
VERTEX
8
CONTOURS_MINEURES
10
34.883
20
13.877
0
VERTEX
8
CONTOURS_MINEURES
10
34.502
20
11.999
0
VERTEX
8
CONTOURS_MINEURES
10
34.138
20
10.865
0
VERTEX
8
CONTOURS_MINEURES
10
33.511
20
9.003
0
VERTEX
8
CONTOURS_MINEURES
10
33.511
20
8.491
0
VERTEX
8
CONTOURS_MINEURES
10
33.511
20
5.997
0
VERTEX
8
CONTOURS_MINEURES
10
32.999
20
4.675
0
VERTEX
8
CONTOURS_MINEURES
10
31.325
20
4.675
0
VERTEX
8
CONTOURS_MINEURES
10
30.004
20
4.675
0
VERTEX
8
CONTOURS_MINEURES
10
29.585
20
3.418
0
VERTEX
8
CONTOURS_MINEURES
10
29.498
20
3.001
0
VERTEX
8
CONTOURS_MINEURES
10
29.299
20
2.298
0
VERTEX
8
CONTOURS_MINEURES
10
28.708
20
0.006
0
SEQEND
0
POLYLINE
8
CONTOURS_MINEURES
66
1
70
0
0
VERTEX
8
CONTOURS_MINEURES
10
42.196
20
102.001
0
VERTEX
8
CONTOURS_MINEURES
10
43.284
20
100.289
0
VERTEX
8
CONTOURS_MINEURES
10
44.123
20
99.005
0
VERTEX
8
CONTOURS_MINEURES
10
44.123
20
96.877
0
VERTEX
8
CONTOURS_MINEURES
10
44.123
20
95.998
0
VERTEX
8
CONTOURS_MINEURES
10
44.435
20
95.434
0
VERTEX
8
CONTOURS_MINEURES
10
45.002
20
94.678
0
VERTEX
8
CONTOURS_MINEURES
10
45.688
20
93.689
0
VERTEX
8
CONTOURS_MINEURES
10
46.192
20
93.003
0
VERTEX
8
CONTOURS_MINEURES
10
46.767
20
91.231
0
VERTEX
8
CONTOURS_MINEURES
10
47.223
20
89.996
0
VERTEX
8
CONTOURS_MINEURES
10
47.223
20
89.222
0
VERTEX
8
CONTOURS_MINEURES
10
47.223
20
87.001
0
VERTEX
8
CONTOURS_MINEURES
10
46.570
20
85.431
0
VERTEX
8
CONTOURS_MINEURES
10
45.392
20
84.005
0
VERTEX
8
CONTOURS_MINEURES
10
45.002
20
83.779
0
VERTEX
8
CONTOURS_MINEURES
10
43.158
20
82.842
0
VERTEX
8
CONTOURS_MINEURES
10
41.996
20
82.074
0
VERTEX
8
CONTOURS_MINEURES
10
40.072
20
82.074
0
VERTEX
8
CONTOURS_MINEURES
10
39.000
20
82.074
0
VERTEX
8
CONTOURS_MINEURES
10
37.483
20
80.998
0
VERTEX
8
CONTOURS_MINEURES
10
37.483
20
79.520
0
VERTEX
8
CONTOURS_MINEURES
10
37.483
20
78.003
0
VERTEX
8
CONTOURS_MINEURES
10
36.744
20
77.261
0
VERTEX
8
CONTOURS_MINEURES
10
36.005
20
76.130
0
VERTEX
8
CONTOURS_MINEURES
10
35.003
20
74.996
0
VERTEX
8
CONTOURS_MINEURES
10
35.003
20
72.999
0
VERTEX
8
CONTOURS_MINEURES
10
35.003
20
72.000
0
VERTEX
8
CONTOURS_MINEURES
10
34.055
20
70.948
0
VERTEX
8
CONTOURS_MINEURES
10
32.999
20
69.400
0
VERTEX
8
CONTOURS_MINEURES
10
30.399
20
69.400
0
VERTEX
8
CONTOURS_MINEURES
10
30.004
20
69.400
0
VERTEX
8
CONTOURS_MINEURES
10
29.753
20
69.005
0
VERTEX
8
CONTOURS_MINEURES
10
28.778
20
67.224
0
VERTEX
8
CONTOURS_MINEURES
10
28.309
20
65.998
0
VERTEX
8
CONTOURS_MINEURES
10
28.309
20
64.309
0
VERTEX
8
CONTOURS_MINEURES
10
28.309
20
63.002
0
VERTEX
8
CONTOURS_MINEURES
10
29.565
20
60.434
0
VERTEX
8
CONTOURS_MINEURES
10
29.865
20
59.996
0
VERTEX
8
CONTOURS_MINEURES
10
29.935
20
59.927
0
VERTEX
8
CONTOURS_MINEURES
10
30.004
20
59.828
0
VERTEX
8
CONTOURS_MINEURES
10
30.172
20
59.828
0
VERTEX
8
CONTOURS_MINEURES
10
32.999
20
59.828
0
VERTEX
8
CONTOURS_MINEURES
10
34.937
20
57.000
0
VERTEX
8
CONTOURS_MINEURES
10
34.937
20
55.936
0
VERTEX
8
CONTOURS_MINEURES
10
34.937
20
54.004
0
VERTEX
8
CONTOURS_MINEURES
10
36.005
20
52.305
0
VERTEX
8
CONTOURS_MINEURES
10
36.546
20
51.540
0
VERTEX
8
CONTOURS_MINEURES
10
36.674
20
50.998
0
VERTEX
8
CONTOURS_MINEURES
10
36.674
20
48.671
0
VERTEX
8
CONTOURS_MINEURES
10
36.674
20
48.002
0
VERTEX
8
CONTOURS_MINEURES
10
37.083
20
46.920
0
VERTEX
8
CONTOURS_MINEURES
10
37.789
20
44.995
0
VERTEX
8
CONTOURS_MINEURES
10
37.994
20
43.989
0
VERTEX
8
CONTOURS_MINEURES
10
38.577
20
42.000
0
VERTEX
8
CONTOURS_MINEURES
10
38.577
20
39.428
0
VERTEX
8
CONTOURS_MINEURES
10
38.577
20
39.004
0
VERTEX
8
CONTOURS_MINEURES
10
38.794
20
36.204
0
VERTEX
8
CONTOURS_MINEURES
10
38.805
20
35.997
0
VERTEX
8
CONTOURS_MINEURES
10
38.767
20
35.764
0
VERTEX
8
CONTOURS_MINEURES
10
38.446
20
33.002
0
VERTEX
8
CONTOURS_MINEURES
10
38.446
20
30.552
0
VERTEX
8
CONTOURS_MINEURES
10
38.446
20
29.995
0
VERTEX
8
CONTOURS_MINEURES
10
38.028
20
27.972
0
VERTEX
8
CONTOURS_MINEURES
10
37.869
20
26.999
0
VERTEX
8
CONTOURS_MINEURES
10
37.567
20
25.438
0
VERTEX
8
CONTOURS_MINEURES
10
37.262
20
24.004
0
VERTEX
8
CONTOURS_MINEURES
10
37.262
20
22.259
0
VERTEX
8
CONTOURS_MINEURES
10
37.262
20
20.997
0
VERTEX
8
CONTOURS_MINEURES
10
37.206
20
19.796
0
VERTEX
8
CONTOURS_MINEURES
10
36.843
20
18.001
0
VERTEX
8
CONTOURS_MINEURES
10
36.843
20
15.836
0
VERTEX
8
CONTOURS_MINEURES
10
36.843
20
14.995
0
VERTEX
8
CONTOURS_MINEURES
10
36.716
20
14.284
0
VERTEX
8
CONTOURS_MINEURES
10
36.208
20
11.999
0
VERTEX
8
CONTOURS_MINEURES
10
36.005
20
11.421
0
VERTEX
8
CONTOURS_MINEURES
10
35.417
20
9.590
0
VERTEX
8
CONTOURS_MINEURES
10
35.219
20
9.003
0
VERTEX
8
CONTOURS_MINEURES
10
35.219
20
6.783
0
VERTEX
8
CONTOURS_MINEURES
10
35.219
20
5.997
0
VERTEX
8
CONTOURS_MINEURES
10
34.725
20
4.721
0
VERTEX
8
CONTOURS_MINEURES
10
34.142
20
3.001
0
VERTEX
8
CONTOURS_MINEURES
10
33.168
20
0.174
0
VERTEX
8
CONTOURS_MINEURES
10
33.128
20
0.006
0
SEQEND
0
POLYLINE
8
CONTOURS_MINEURES
66
1
70
0
0
VERTEX
8
CONTOURS_MINEURES
10
45.528
20
102.001
0
VERTEX
8
CONTOURS_MINEURES
10
46.489
20
100.493
0
VERTEX
8
CONTOURS_MINEURES
10
47.609
20
99.005
0
VERTEX
8
CONTOURS_MINEURES
10
47.609
20
96.388
0
VERTEX
8
CONTOURS_MINEURES
10
47.609
20
95.998
0
VERTEX
8
CONTOURS_MINEURES
10
47.768
20
95.770
0
VERTEX
8
CONTOURS_MINEURES
10
47.997
20
95.458
0
VERTEX
8
CONTOURS_MINEURES
10
48.539
20
95.458
0
VERTEX
8
CONTOURS_MINEURES
10
51.003
20
95.458
0
VERTEX
8
CONTOURS_MINEURES
10
51.916
20
93.916
0
VERTEX
8
CONTOURS_MINEURES
10
52.352
20
93.003
0
VERTEX
8
CONTOURS_MINEURES
10
52.724
20
91.275
0
VERTEX
8
CONTOURS_MINEURES
10
53.026
20
89.996
0
VERTEX
8
CONTOURS_MINEURES
10
53.026
20
89.024
0
VERTEX
8
CONTOURS_MINEURES
10
53.026
20
87.001
0
VERTEX
8
CONTOURS_MINEURES
10
52.791
20
85.212
0
VERTEX
8
CONTOURS_MINEURES
10
52.305
20
84.005
0
VERTEX
8
CONTOURS_MINEURES
10
51.939
20
83.065
0
VERTEX
8
CONTOURS_MINEURES
10
51.003
20
82.669
0
VERTEX
8
CONTOURS_MINEURES
10
49.333
20
82.669
0
VERTEX
8
CONTOURS_MINEURES
10
47.997
20
82.669
0
VERTEX
8
CONTOURS_MINEURES
10
45.648
20
81.647
0
VERTEX
8
CONTOURS_MINEURES
10
45.002
20
81.274
0
VERTEX
8
CONTOURS_MINEURES
10
44.819
20
81.181
0
VERTEX
8
CONTOURS_MINEURES
10
44.542
20
80.998
0
VERTEX
8
CONTOURS_MINEURES
10
44.542
20
80.541
0
VERTEX
8
CONTOURS_MINEURES
10
44.542
20
78.003
0
VERTEX
8
CONTOURS_MINEURES
10
43.486
20
76.511
0
VERTEX
8
CONTOURS_MINEURES
10
41.996
20
75.621
0
VERTEX
8
CONTOURS_MINEURES
10
39.623
20
75.621
0
VERTEX
8
CONTOURS_MINEURES
10
39.000
20
75.621
0
VERTEX
8
CONTOURS_MINEURES
10
38.689
20
75.308
0
VERTEX
8
CONTOURS_MINEURES
10
38.485
20
74.996
0
VERTEX
8
CONTOURS_MINEURES
10
38.485
20
72.516
0
VERTEX
8
CONTOURS_MINEURES
10
38.485
20
72.000
0
VERTEX
8
CONTOURS_MINEURES
10
37.454
20
70.454
0
VERTEX
8
CONTOURS_MINEURES
10
36.621
20
69.005
0
VERTEX
8
CONTOURS_MINEURES
10
36.403
20
68.605
0
VERTEX
8
CONTOURS_MINEURES
10
36.005
20
67.752
0
VERTEX
8
CONTOURS_MINEURES
10
35.077
20
65.998
0
VERTEX
8
CONTOURS_MINEURES
10
35.077
20
65.073
0
VERTEX
8
CONTOURS_MINEURES
10
35.077
20
63.002
0
VERTEX
8
CONTOURS_MINEURES
10
35.451
20
62.448
0
VERTEX
8
CONTOURS_MINEURES
10
35.183
20
59.996
0
VERTEX
8
CONTOURS_MINEURES
10
36.005
20
58.498
0
VERTEX
8
CONTOURS_MINEURES
10
36.664
20
57.659
0
VERTEX
8
CONTOURS_MINEURES
10
36.652
20
57.000
0
VERTEX
8
CONTOURS_MINEURES
10
36.652
20
56.353
0
VERTEX
8
CONTOURS_MINEURES
10
36.652
20
54.004
0
VERTEX
8
CONTOURS_MINEURES
10
37.627
20
52.626
0
VERTEX
8
CONTOURS_MINEURES
10
38.011
20
50.998
0
VERTEX
8
CONTOURS_MINEURES
10
38.011
20
50.008
0
VERTEX
8
CONTOURS_MINEURES
10
38.011
20
48.002
0
VERTEX
8
CONTOURS_MINEURES
10
39.000
20
45.384
0
VERTEX
8
CONTOURS_MINEURES
10
39.388
20
45.384
0
VERTEX
8
CONTOURS_MINEURES
10
41.996
20
45.384
0
VERTEX
8
CONTOURS_MINEURES
10
42.152
20
44.995
0
VERTEX
8
CONTOURS_MINEURES
10
42.780
20
42.782
0
VERTEX
8
CONTOURS_MINEURES
10
42.975
20
42.000
0
VERTEX
8
CONTOURS_MINEURES
10
42.975
20
41.024
0
VERTEX
8
CONTOURS_MINEURES
10
42.975
20
39.004
0
VERTEX
8
CONTOURS_MINEURES
10
43.063
20
37.937
0
VERTEX
8
CONTOURS_MINEURES
10
43.206
20
35.997
0
VERTEX
8
CONTOURS_MINEURES
10
43.003
20
34.005
0
VERTEX
8
CONTOURS_MINEURES
10
42.944
20
33.002
0
VERTEX
8
CONTOURS_MINEURES
10
42.944
20
30.944
0
VERTEX
8
CONTOURS_MINEURES
10
42.944
20
29.995
0
VERTEX
8
CONTOURS_MINEURES
10
42.810
20
29.184
0
VERTEX
8
CONTOURS_MINEURES
10
42.384
20
26.999
0
VERTEX
8
CONTOURS_MINEURES
10
41.996
20
24.950
0
VERTEX
8
CONTOURS_MINEURES
10
39.946
20
24.950
0
VERTEX
8
CONTOURS_MINEURES
10
39.000
20
24.950
0
VERTEX
8
CONTOURS_MINEURES
10
38.847
20
24.157
0
VERTEX
8
CONTOURS_MINEURES
10
38.814
20
24.004
0
VERTEX
8
CONTOURS_MINEURES
10
38.814
20
23.817
0
VERTEX
8
CONTOURS_MINEURES
10
38.814
20
20.997
0
VERTEX
8
CONTOURS_MINEURES
10
38.689
20
18.313
0
VERTEX
8
CONTOURS_MINEURES
10
38.626
20
18.001
0
VERTEX
8
CONTOURS_MINEURES
10
38.626
20
17.626
0
VERTEX
8
CONTOURS_MINEURES
10
38.626
20
14.995
0
VERTEX
8
CONTOURS_MINEURES
10
38.229
20
12.771
0
VERTEX
8
CONTOURS_MINEURES
10
38.057
20
11.999
0
VERTEX
8
CONTOURS_MINEURES
10
37.545
20
10.544
0
VERTEX
8
CONTOURS_MINEURES
10
37.029
20
9.003
0
VERTEX
8
CONTOURS_MINEURES
10
37.029
20
7.976
0
VERTEX
8
CONTOURS_MINEURES
10
37.029
20
5.997
0
VERTEX
8
CONTOURS_MINEURES
10
36.861
20
5.141
0
VERTEX
8
CONTOURS_MINEURES
10
36.005
20
3.056
0
VERTEX
8
CONTOURS_MINEURES
10
35.987
20
3.001
0
VERTEX
8
CONTOURS_MINEURES
10
35.977
20
2.973
0
VERTEX
8
CONTOURS_MINEURES
10
35.275
20
0.006
0
SEQEND
0
POLYLINE
8
CONTOURS_MINEURES
66
1
70
0
0
VERTEX
8
CONTOURS_MINEURES
10
51.844
20
102.001
0
VERTEX
8
CONTOURS_MINEURES
10
52.745
20
100.748
0
VERTEX
8
CONTOURS_MINEURES
10
53.591
20
99.005
0
VERTEX
8
CONTOURS_MINEURES
10
53.591
20
96.407
0
VERTEX
8
CONTOURS_MINEURES
10
53.591
20
95.998
0
VERTEX
8
CONTOURS_MINEURES
10
53.742
20
95.743
0
VERTEX
8
CONTOURS_MINEURES
10
53.998
20
95.207
0
VERTEX
8
CONTOURS_MINEURES
10
54.943
20
93.003
0
VERTEX
8
CONTOURS_MINEURES
10
55.278
20
91.276
0
VERTEX
8
CONTOURS_MINEURES
10
55.550
20
89.996
0
VERTEX
8
CONTOURS_MINEURES
10
55.550
20
88.449
0
VERTEX
8
CONTOURS_MINEURES
10
55.550
20
87.001
0
VERTEX
8
CONTOURS_MINEURES
10
55.347
20
85.349
0
VERTEX
8
CONTOURS_MINEURES
10
55.211
20
84.005
0
VERTEX
8
CONTOURS_MINEURES
10
54.986
20
83.016
0
VERTEX
8
CONTOURS_MINEURES
10
54.326
20
80.998
0
VERTEX
8
CONTOURS_MINEURES
10
54.326
20
78.329
0
VERTEX
8
CONTOURS_MINEURES
10
54.326
20
78.003
0
VERTEX
8
CONTOURS_MINEURES
10
53.998
20
76.499
0
VERTEX
8
CONTOURS_MINEURES
10
53.418
20
75.578
0
VERTEX
8
CONTOURS_MINEURES
10
52.909
20
74.996
0
VERTEX
8
CONTOURS_MINEURES
10
52.909
20
73.907
0
VERTEX
8
CONTOURS_MINEURES
10
52.909
20
72.000
0
VERTEX
8
CONTOURS_MINEURES
10
51.003
20
70.767
0
VERTEX
8
CONTOURS_MINEURES
10
49.765
20
70.767
0
VERTEX
8
CONTOURS_MINEURES
10
47.997
20
70.767
0
VERTEX
8
CONTOURS_MINEURES
10
46.675
20
70.326
0
VERTEX
8
CONTOURS_MINEURES
10
45.002
20
69.353
0
VERTEX
8
CONTOURS_MINEURES
10
44.682
20
69.005
0
VERTEX
8
CONTOURS_MINEURES
10
43.048
20
67.952
0
VERTEX
8
CONTOURS_MINEURES
10
42.071
20
65.998
0
VERTEX
8
CONTOURS_MINEURES
10
42.071
20
63.077
0
VERTEX
8
CONTOURS_MINEURES
10
42.071
20
63.002
0
VERTEX
8
CONTOURS_MINEURES
10
42.049
20
62.949
0
VERTEX
8
CONTOURS_MINEURES
10
41.996
20
62.771
0
VERTEX
8
CONTOURS_MINEURES
10
41.765
20
62.771
0
VERTEX
8
CONTOURS_MINEURES
10
39.000
20
62.771
0
VERTEX
8
CONTOURS_MINEURES
10
38.193
20
59.996
0
VERTEX
8
CONTOURS_MINEURES
10
38.548
20
59.543
0
VERTEX
8
CONTOURS_MINEURES
10
38.501
20
57.000
0
VERTEX
8
CONTOURS_MINEURES
10
38.501
20
54.504
0
VERTEX
8
CONTOURS_MINEURES
10
38.501
20
54.004
0
VERTEX
8
CONTOURS_MINEURES
10
38.708
20
53.711
0
VERTEX
8
CONTOURS_MINEURES
10
39.000
20
52.473
0
VERTEX
8
CONTOURS_MINEURES
10
40.526
20
52.473
0
VERTEX
8
CONTOURS_MINEURES
10
41.996
20
52.473
0
VERTEX
8
CONTOURS_MINEURES
10
42.475
20
50.998
0
VERTEX
8
CONTOURS_MINEURES
10
42.475
20
48.480
0
VERTEX
8
CONTOURS_MINEURES
10
42.475
20
48.002
0
VERTEX
8
CONTOURS_MINEURES
10
42.611
20
47.386
0
VERTEX
8
CONTOURS_MINEURES
10
43.569
20
44.995
0
VERTEX
8
CONTOURS_MINEURES
10
43.885
20
43.883
0
VERTEX
8
CONTOURS_MINEURES
10
44.353
20
42.000
0
VERTEX
8
CONTOURS_MINEURES
10
44.353
20
39.650
0
VERTEX
8
CONTOURS_MINEURES
10
44.353
20
39.004
0
VERTEX
8
CONTOURS_MINEURES
10
44.566
20
36.433
0
VERTEX
8
CONTOURS_MINEURES
10
44.598
20
35.997
0
VERTEX
8
CONTOURS_MINEURES
10
44.552
20
35.550
0
VERTEX
8
CONTOURS_MINEURES
10
44.403
20
33.002
0
VERTEX
8
CONTOURS_MINEURES
10
44.403
20
32.403
0
VERTEX
8
CONTOURS_MINEURES
10
44.403
20
29.995
0
VERTEX
8
CONTOURS_MINEURES
10
44.062
20
27.936
0
VERTEX
8
CONTOURS_MINEURES
10
43.880
20
26.999
0
VERTEX
8
CONTOURS_MINEURES
10
43.618
20
25.621
0
VERTEX
8
CONTOURS_MINEURES
10
43.325
20
24.004
0
VERTEX
8
CONTOURS_MINEURES
10
43.325
20
22.327
0
VERTEX
8
CONTOURS_MINEURES
10
43.325
20
20.997
0
VERTEX
8
CONTOURS_MINEURES
10
43.286
20
19.711
0
VERTEX
8
CONTOURS_MINEURES
10
43.207
20
18.001
0
VERTEX
8
CONTOURS_MINEURES
10
43.207
20
16.207
0
VERTEX
8
CONTOURS_MINEURES
10
43.207
20
14.995
0
VERTEX
8
CONTOURS_MINEURES
10
43.195
20
13.800
0
VERTEX
8
CONTOURS_MINEURES
10
42.872
20
11.999
0
VERTEX
8
CONTOURS_MINEURES
10
41.996
20
9.230
0
VERTEX
8
CONTOURS_MINEURES
10
39.226
20
9.230
0
VERTEX
8
CONTOURS_MINEURES
10
39.000
20
9.230
0
VERTEX
8
CONTOURS_MINEURES
10
38.924
20
9.003
0
VERTEX
8
CONTOURS_MINEURES
10
38.924
20
6.073
0
VERTEX
8
CONTOURS_MINEURES
10
38.924
20
5.997
0
VERTEX
8
CONTOURS_MINEURES
10
38.446
20
3.556
0
VERTEX
8
CONTOURS_MINEURES
10
38.218
20
3.001
0
VERTEX
8
CONTOURS_MINEURES
10
37.962
20
1.963
0
VERTEX
8
CONTOURS_MINEURES
10
37.870
20
0.006
0
SEQEND
0
POLYLINE
8
CONTOURS_MINEURES
66
1
70
0
0
VERTEX
8
CONTOURS_MINEURES
10
54.973
20
102.001
0
VERTEX
8
CONTOURS_MINEURES
10
55.589
20
100.415
0
VERTEX
8
CONTOURS_MINEURES
10
56.189
20
99.005
0
VERTEX
8
CONTOURS_MINEURES
10
56.189
20
98.190
0
VERTEX
8
CONTOURS_MINEURES
10
56.189
20
95.998
0
VERTEX
8
CONTOURS_MINEURES
10
57.004
20
93.959
0
VERTEX
8
CONTOURS_MINEURES
10
57.960
20
93.959
0
VERTEX
8
CONTOURS_MINEURES
10
59.999
20
93.959
0
VERTEX
8
CONTOURS_MINEURES
10
60.346
20
93.003
0
VERTEX
8
CONTOURS_MINEURES
10
60.429
20
92.573
0
VERTEX
8
CONTOURS_MINEURES
10
60.940
20
89.996
0
VERTEX
8
CONTOURS_MINEURES
10
60.940
20
87.938
0
VERTEX
8
CONTOURS_MINEURES
10
60.940
20
87.001
0
VERTEX
8
CONTOURS_MINEURES
10
60.732
20
84.735
0
VERTEX
8
CONTOURS_MINEURES
10
60.660
20
84.005
0
VERTEX
8
CONTOURS_MINEURES
10
60.484
20
83.520
0
VERTEX
8
CONTOURS_MINEURES
10
60.039
20
80.998
0
VERTEX
8
CONTOURS_MINEURES
10
60.039
20
78.042
0
VERTEX
8
CONTOURS_MINEURES
10
60.039
20
78.003
0
VERTEX
8
CONTOURS_MINEURES
10
60.029
20
77.973
0
VERTEX
8
CONTOURS_MINEURES
10
59.999
20
77.880
0
VERTEX
8
CONTOURS_MINEURES
10
59.877
20
77.880
0
VERTEX
8
CONTOURS_MINEURES
10
57.004
20
77.880
0
VERTEX
8
CONTOURS_MINEURES
10
55.957
20
74.996
0
VERTEX
8
CONTOURS_MINEURES
10
55.957
20
73.043
0
VERTEX
8
CONTOURS_MINEURES
10
55.957
20
72.000
0
VERTEX
8
CONTOURS_MINEURES
10
55.383
20
70.620
0
VERTEX
8
CONTOURS_MINEURES
10
54.777
20
69.005
0
VERTEX
8
CONTOURS_MINEURES
10
53.998
20
68.231
0
VERTEX
8
CONTOURS_MINEURES
10
52.729
20
67.731
0
VERTEX
8
CONTOURS_MINEURES
10
51.003
20
67.236
0
VERTEX
8
CONTOURS_MINEURES
10
49.765
20
67.236
0
VERTEX
8
CONTOURS_MINEURES
10
47.997
20
67.236
0
VERTEX
8
CONTOURS_MINEURES
10
45.930
20
65.998
0
VERTEX
8
CONTOURS_MINEURES
10
45.930
20
65.070
0
VERTEX
8
CONTOURS_MINEURES
10
45.930
20
63.002
0
VERTEX
8
CONTOURS_MINEURES
10
45.002
20
60.998
0
VERTEX
8
CONTOURS_MINEURES
10
44.709
20
60.288
0
VERTEX
8
CONTOURS_MINEURES
10
44.621
20
59.996
0
VERTEX
8
CONTOURS_MINEURES
10
44.608
20
59.603
0
VERTEX
8
CONTOURS_MINEURES
10
44.147
20
57.000
0
VERTEX
8
CONTOURS_MINEURES
10
44.147
20
56.148
0
VERTEX
8
CONTOURS_MINEURES
10
44.147
20
54.004
0
VERTEX
8
CONTOURS_MINEURES
10
43.990
20
52.009
0
VERTEX
8
CONTOURS_MINEURES
10
44.319
20
50.998
0
VERTEX
8
CONTOURS_MINEURES
10
44.319
20
50.318
0
VERTEX
8
CONTOURS_MINEURES
10
44.319
20
48.002
0
VERTEX
8
CONTOURS_MINEURES
10
44.978
20
45.019
0
VERTEX
8
CONTOURS_MINEURES
10
44.987
20
44.995
0
VERTEX
8
CONTOURS_MINEURES
10
44.991
20
44.984
0
VERTEX
8
CONTOURS_MINEURES
10
45.002
20
44.940
0
VERTEX
8
CONTOURS_MINEURES
10
45.833
20
42.000
0
VERTEX
8
CONTOURS_MINEURES
10
45.833
20
39.835
0
VERTEX
8
CONTOURS_MINEURES
10
45.833
20
39.004
0
VERTEX
8
CONTOURS_MINEURES
10
46.019
20
37.019
0
VERTEX
8
CONTOURS_MINEURES
10
45.930
20
35.997
0
VERTEX
8
CONTOURS_MINEURES
10
45.877
20
35.122
0
VERTEX
8
CONTOURS_MINEURES
10
45.767
20
33.002
0
VERTEX
8
CONTOURS_MINEURES
10
45.767
20
32.234
0
VERTEX
8
CONTOURS_MINEURES
10
45.767
20
29.995
0
VERTEX
8
CONTOURS_MINEURES
10
45.382
20
27.380
0
VERTEX
8
CONTOURS_MINEURES
10
45.370
20
26.999
0
VERTEX
8
CONTOURS_MINEURES
10
45.382
20
26.619
0
VERTEX
8
CONTOURS_MINEURES
10
45.002
20
24.919
0
VERTEX
8
CONTOURS_MINEURES
10
44.835
20
24.004
0
VERTEX
8
CONTOURS_MINEURES
10
44.835
20
23.838
0
VERTEX
8
CONTOURS_MINEURES
10
44.835
20
20.997
0
VERTEX
8
CONTOURS_MINEURES
10
44.752
20
18.250
0
VERTEX
8
CONTOURS_MINEURES
10
44.741
20
18.001
0
VERTEX
8
CONTOURS_MINEURES
10
44.741
20
17.741
0
VERTEX
8
CONTOURS_MINEURES
10
44.741
20
14.995
0
VERTEX
8
CONTOURS_MINEURES
10
44.713
20
12.287
0
VERTEX
8
CONTOURS_MINEURES
10
44.662
20
11.999
0
VERTEX
8
CONTOURS_MINEURES
10
44.505
20
11.504
0
VERTEX
8
CONTOURS_MINEURES
10
44.323
20
9.003
0
VERTEX
8
CONTOURS_MINEURES
10
44.323
20
6.676
0
VERTEX
8
CONTOURS_MINEURES
10
44.323
20
5.997
0
VERTEX
8
CONTOURS_MINEURES
10
44.097
20
5.095
0
VERTEX
8
CONTOURS_MINEURES
10
44.191
20
3.001
0
VERTEX
8
CONTOURS_MINEURES
10
45.002
20
0.236
0
VERTEX
8
CONTOURS_MINEURES
10
45.073
20
0.077
0
VERTEX
8
CONTOURS_MINEURES
10
45.107
20
0.006
0
SEQEND
0
POLYLINE
8
CONTOURS_MINEURES
66
1
70
0
0
VERTEX
8
CONTOURS_MINEURES
10
60.510
20
102.001
0
VERTEX
8
CONTOURS_MINEURES
10
61.075
20
100.077
0
VERTEX
8
CONTOURS_MINEURES
10
61.548
20
99.005
0
VERTEX
8
CONTOURS_MINEURES
10
61.548
20
97.547
0
VERTEX
8
CONTOURS_MINEURES
10
61.548
20
95.998
0
VERTEX
8
CONTOURS_MINEURES
10
62.462
20
93.544
0
VERTEX
8
CONTOURS_MINEURES
10
62.658
20
93.003
0
VERTEX
8
CONTOURS_MINEURES
10
63.005
20
91.199
0
VERTEX
8
CONTOURS_MINEURES
10
63.190
20
90.182
0
VERTEX
8
CONTOURS_MINEURES
10
63.229
20
89.996
0
VERTEX
8
CONTOURS_MINEURES
10
63.229
20
89.773
0
VERTEX
8
CONTOURS_MINEURES
10
63.229
20
87.001
0
VERTEX
8
CONTOURS_MINEURES
10
63.255
20
86.751
0
VERTEX
8
CONTOURS_MINEURES
10
63.005
20
84.696
0
VERTEX
8
CONTOURS_MINEURES
10
62.937
20
84.005
0
VERTEX
8
CONTOURS_MINEURES
10
62.154
20
81.850
0
VERTEX
8
CONTOURS_MINEURES
10
62.003
20
80.998
0
VERTEX
8
CONTOURS_MINEURES
10
62.003
20
80.000
0
VERTEX
8
CONTOURS_MINEURES
10
62.003
20
78.003
0
VERTEX
8
CONTOURS_MINEURES
10
61.510
20
76.492
0
VERTEX
8
CONTOURS_MINEURES
10
61.034
20
74.996
0
VERTEX
8
CONTOURS_MINEURES
10
61.034
20
73.965
0
VERTEX
8
CONTOURS_MINEURES
10
61.034
20
72.000
0
VERTEX
8
CONTOURS_MINEURES
10
59.999
20
69.165
0
VERTEX
8
CONTOURS_MINEURES
10
59.839
20
69.165
0
VERTEX
8
CONTOURS_MINEURES
10
57.004
20
69.165
0
VERTEX
8
CONTOURS_MINEURES
10
56.957
20
69.052
0
VERTEX
8
CONTOURS_MINEURES
10
56.939
20
69.005
0
VERTEX
8
CONTOURS_MINEURES
10
53.998
20
66.084
0
VERTEX
8
CONTOURS_MINEURES
10
53.780
20
65.998
0
VERTEX
8
CONTOURS_MINEURES
10
53.780
20
65.780
0
VERTEX
8
CONTOURS_MINEURES
10
53.780
20
63.002
0
VERTEX
8
CONTOURS_MINEURES
10
52.320
20
61.680
0
VERTEX
8
CONTOURS_MINEURES
10
51.048
20
59.996
0
VERTEX
8
CONTOURS_MINEURES
10
51.003
20
59.838
0
VERTEX
8
CONTOURS_MINEURES
10
48.155
20
59.838
0
VERTEX
8
CONTOURS_MINEURES
10
47.997
20
59.838
0
VERTEX
8
CONTOURS_MINEURES
10
47.493
20
57.504
0
VERTEX
8
CONTOURS_MINEURES
10
47.391
20
57.000
0
VERTEX
8
CONTOURS_MINEURES
10
47.391
20
54.610
0
VERTEX
8
CONTOURS_MINEURES
10
47.391
20
54.004
0
VERTEX
8
CONTOURS_MINEURES
10
47.331
20
53.336
0
VERTEX
8
CONTOURS_MINEURES
10
46.889
20
50.998
0
VERTEX
8
CONTOURS_MINEURES
10
46.889
20
49.110
0
VERTEX
8
CONTOURS_MINEURES
10
46.889
20
48.002
0
VERTEX
8
CONTOURS_MINEURES
10
47.182
20
47.184
0
VERTEX
8
CONTOURS_MINEURES
10
47.135
20
44.995
0
VERTEX
8
CONTOURS_MINEURES
10
47.166
20
42.831
0
VERTEX
8
CONTOURS_MINEURES
10
47.401
20
42.000
0
VERTEX
8
CONTOURS_MINEURES
10
47.401
20
41.404
0
VERTEX
8
CONTOURS_MINEURES
10
47.401
20
39.004
0
VERTEX
8
CONTOURS_MINEURES
10
47.452
20
38.457
0
VERTEX
8
CONTOURS_MINEURES
10
47.238
20
35.997
0
VERTEX
8
CONTOURS_MINEURES
10
47.109
20
33.889
0
VERTEX
8
CONTOURS_MINEURES
10
47.063
20
33.002
0
VERTEX
8
CONTOURS_MINEURES
10
47.063
20
30.932
0
VERTEX
8
CONTOURS_MINEURES
10
47.063
20
29.995
0
VERTEX
8
CONTOURS_MINEURES
10
46.902
20
28.900
0
VERTEX
8
CONTOURS_MINEURES
10
46.846
20
26.999
0
VERTEX
8
CONTOURS_MINEURES
10
46.902
20
25.099
0
VERTEX
8
CONTOURS_MINEURES
10
46.657
20
24.004
0
VERTEX
8
CONTOURS_MINEURES
10
46.657
20
22.659
0
VERTEX
8
CONTOURS_MINEURES
10
46.657
20
20.997
0
VERTEX
8
CONTOURS_MINEURES
10
46.866
20
19.133
0
VERTEX
8
CONTOURS_MINEURES
10
46.816
20
18.001
0
VERTEX
8
CONTOURS_MINEURES
10
46.816
20
16.180
0
VERTEX
8
CONTOURS_MINEURES
10
46.816
20
14.995
0
VERTEX
8
CONTOURS_MINEURES
10
46.799
20
13.796
0
VERTEX
8
CONTOURS_MINEURES
10
47.207
20
11.999
0
VERTEX
8
CONTOURS_MINEURES
10
47.759
20
9.242
0
VERTEX
8
CONTOURS_MINEURES
10
47.731
20
9.003
0
VERTEX
8
CONTOURS_MINEURES
10
47.731
20
8.737
0
VERTEX
8
CONTOURS_MINEURES
10
47.731
20
5.997
0
VERTEX
8
CONTOURS_MINEURES
10
47.997
20
5.158
0
VERTEX
8
CONTOURS_MINEURES
10
48.838
20
5.158
0
VERTEX
8
CONTOURS_MINEURES
10
51.003
20
5.158
0
VERTEX
8
CONTOURS_MINEURES
10
51.820
20
3.001
0
VERTEX
8
CONTOURS_MINEURES
10
52.452
20
1.455
0
VERTEX
8
CONTOURS_MINEURES
10
53.410
20
0.006
0
SEQEND
0
POLYLINE
8
CONTOURS_MINEURES
66
1
70
0
0
VERTEX
8
CONTOURS_MINEURES
10
62.555
20
102.001
0
VERTEX
8
CONTOURS_MINEURES
10
62.657
20
101.654
0
VERTEX
8
CONTOURS_MINEURES
10
63.005
20
100.865
0
VERTEX
8
CONTOURS_MINEURES
10
63.798
20
99.005
0
VERTEX
8
CONTOURS_MINEURES
10
63.798
20
96.794
0
VERTEX
8
CONTOURS_MINEURES
10
63.798
20
95.998
0
VERTEX
8
CONTOURS_MINEURES
10
64.231
20
94.773
0
VERTEX
8
CONTOURS_MINEURES
10
64.864
20
93.003
0
VERTEX
8
CONTOURS_MINEURES
10
65.039
20
92.038
0
VERTEX
8
CONTOURS_MINEURES
10
65.464
20
89.996
0
VERTEX
8
CONTOURS_MINEURES
10
65.464
20
87.537
0
VERTEX
8
CONTOURS_MINEURES
10
65.464
20
87.001
0
VERTEX
8
CONTOURS_MINEURES
10
65.751
20
84.255
0
VERTEX
8
CONTOURS_MINEURES
10
65.721
20
84.005
0
VERTEX
8
CONTOURS_MINEURES
10
65.493
20
83.495
0
VERTEX
8
CONTOURS_MINEURES
10
64.936
20
80.998
0
VERTEX
8
CONTOURS_MINEURES
10
64.936
20
79.934
0
VERTEX
8
CONTOURS_MINEURES
10
64.936
20
78.003
0
VERTEX
8
CONTOURS_MINEURES
10
64.143
20
76.860
0
VERTEX
8
CONTOURS_MINEURES
10
63.005
20
75.056
0
VERTEX
8
CONTOURS_MINEURES
10
62.990
20
75.011
0
VERTEX
8
CONTOURS_MINEURES
10
62.986
20
74.996
0
VERTEX
8
CONTOURS_MINEURES
10
62.986
20
72.020
0
VERTEX
8
CONTOURS_MINEURES
10
62.986
20
72.000
0
VERTEX
8
CONTOURS_MINEURES
10
62.975
20
71.970
0
VERTEX
8
CONTOURS_MINEURES
10
62.175
20
69.005
0
VERTEX
8
CONTOURS_MINEURES
10
61.610
20
67.393
0
VERTEX
8
CONTOURS_MINEURES
10
60.645
20
65.998
0
VERTEX
8
CONTOURS_MINEURES
10
60.645
20
63.646
0
VERTEX
8
CONTOURS_MINEURES
10
60.645
20
63.002
0
VERTEX
8
CONTOURS_MINEURES
10
59.999
20
61.499
0
VERTEX
8
CONTOURS_MINEURES
10
58.502
20
61.499
0
VERTEX
8
CONTOURS_MINEURES
10
57.004
20
61.499
0
VERTEX
8
CONTOURS_MINEURES
10
55.812
20
59.996
0
VERTEX
8
CONTOURS_MINEURES
10
55.061
20
58.937
0
VERTEX
8
CONTOURS_MINEURES
10
54.332
20
57.000
0
VERTEX
8
CONTOURS_MINEURES
10
54.332
20
56.667
0
VERTEX
8
CONTOURS_MINEURES
10
54.332
20
54.004
0
VERTEX
8
CONTOURS_MINEURES
10
53.998
20
53.145
0
VERTEX
8
CONTOURS_MINEURES
10
53.411
20
51.587
0
VERTEX
8
CONTOURS_MINEURES
10
53.276
20
50.998
0
VERTEX
8
CONTOURS_MINEURES
10
53.276
20
48.724
0
VERTEX
8
CONTOURS_MINEURES
10
53.276
20
48.002
0
VERTEX
8
CONTOURS_MINEURES
10
52.928
20
46.069
0
VERTEX
8
CONTOURS_MINEURES
10
52.895
20
44.995
0
VERTEX
8
CONTOURS_MINEURES
10
52.452
20
43.546
0
VERTEX
8
CONTOURS_MINEURES
10
52.477
20
42.000
0
VERTEX
8
CONTOURS_MINEURES
10
52.477
20
40.478
0
VERTEX
8
CONTOURS_MINEURES
10
52.477
20
39.004
0
VERTEX
8
CONTOURS_MINEURES
10
52.149
20
37.853
0
VERTEX
8
CONTOURS_MINEURES
10
51.889
20
35.997
0
VERTEX
8
CONTOURS_MINEURES
10
51.658
20
33.657
0
VERTEX
8
CONTOURS_MINEURES
10
51.593
20
33.002
0
VERTEX
8
CONTOURS_MINEURES
10
51.593
20
32.409
0
VERTEX
8
CONTOURS_MINEURES
10
51.593
20
29.995
0
VERTEX
8
CONTOURS_MINEURES
10
51.593
20
29.404
0
VERTEX
8
CONTOURS_MINEURES
10
51.487
20
26.999
0
VERTEX
8
CONTOURS_MINEURES
10
51.593
20
24.594
0
VERTEX
8
CONTOURS_MINEURES
10
51.752
20
24.004
0
VERTEX
8
CONTOURS_MINEURES
10
51.752
20
23.252
0
VERTEX
8
CONTOURS_MINEURES
10
51.752
20
20.997
0
VERTEX
8
CONTOURS_MINEURES
10
52.121
20
19.879
0
VERTEX
8
CONTOURS_MINEURES
10
52.484
20
18.001
0
VERTEX
8
CONTOURS_MINEURES
10
52.484
20
16.482
0
VERTEX
8
CONTOURS_MINEURES
10
52.484
20
14.995
0
VERTEX
8
CONTOURS_MINEURES
10
53.602
20
12.395
0
VERTEX
8
CONTOURS_MINEURES
10
53.729
20
11.999
0
VERTEX
8
CONTOURS_MINEURES
10
53.788
20
11.789
0
VERTEX
8
CONTOURS_MINEURES
10
53.998
20
11.276
0
VERTEX
8
CONTOURS_MINEURES
10
54.594
20
9.597
0
VERTEX
8
CONTOURS_MINEURES
10
54.985
20
9.003
0
VERTEX
8
CONTOURS_MINEURES
10
54.985
20
8.016
0
VERTEX
8
CONTOURS_MINEURES
10
54.985
20
5.997
0
VERTEX
8
CONTOURS_MINEURES
10
56.643
20
3.361
0
VERTEX
8
CONTOURS_MINEURES
10
56.840
20
3.001
0
VERTEX
8
CONTOURS_MINEURES
10
56.906
20
2.903
0
VERTEX
8
CONTOURS_MINEURES
10
57.004
20
2.765
0
VERTEX
8
CONTOURS_MINEURES
10
57.240
20
2.765
0
VERTEX
8
CONTOURS_MINEURES
10
59.999
20
2.765
0
VERTEX
8
CONTOURS_MINEURES
10
61.845
20
0.006
0
SEQEND
0
POLYLINE
8
CONTOURS_MINEURES
66
1
70
0
0
VERTEX
8
CONTOURS_MINEURES
10
65.055
20
102.001
0
VERTEX
8
CONTOURS_MINEURES
10
66.000
20
99.005
0
VERTEX
8
CONTOURS_MINEURES
10
66.000
20
95.998
0
VERTEX
8
CONTOURS_MINEURES
10
68.996
20
95.998
0
VERTEX
8
CONTOURS_MINEURES
10
69.915
20
93.919
0
VERTEX
8
CONTOURS_MINEURES
10
70.178
20
93.003
0
VERTEX
8
CONTOURS_MINEURES
10
70.617
20
91.381
0
VERTEX
8
CONTOURS_MINEURES
10
70.948
20
89.996
0
VERTEX
8
CONTOURS_MINEURES
10
70.948
20
88.946
0
VERTEX
8
CONTOURS_MINEURES
10
70.948
20
87.001
0
VERTEX
8
CONTOURS_MINEURES
10
71.061
20
86.063
0
VERTEX
8
CONTOURS_MINEURES
10
71.648
20
84.005
0
VERTEX
8
CONTOURS_MINEURES
10
71.577
20
83.580
0
VERTEX
8
CONTOURS_MINEURES
10
71.518
20
80.998
0
VERTEX
8
CONTOURS_MINEURES
10
71.518
20
78.485
0
VERTEX
8
CONTOURS_MINEURES
10
71.518
20
78.003
0
VERTEX
8
CONTOURS_MINEURES
10
70.737
20
76.261
0
VERTEX
8
CONTOURS_MINEURES
10
69.819
20
74.996
0
VERTEX
8
CONTOURS_MINEURES
10
69.819
20
72.821
0
VERTEX
8
CONTOURS_MINEURES
10
69.819
20
72.000
0
VERTEX
8
CONTOURS_MINEURES
10
68.996
20
70.778
0
VERTEX
8
CONTOURS_MINEURES
10
67.773
20
70.778
0
VERTEX
8
CONTOURS_MINEURES
10
66.000
20
70.778
0
VERTEX
8
CONTOURS_MINEURES
10
65.322
20
69.683
0
VERTEX
8
CONTOURS_MINEURES
10
65.056
20
69.005
0
VERTEX
8
CONTOURS_MINEURES
10
64.070
20
67.067
0
VERTEX
8
CONTOURS_MINEURES
10
63.532
20
65.998
0
VERTEX
8
CONTOURS_MINEURES
10
63.532
20
65.471
0
VERTEX
8
CONTOURS_MINEURES
10
63.532
20
63.002
0
VERTEX
8
CONTOURS_MINEURES
10
63.005
20
61.499
0
VERTEX
8
CONTOURS_MINEURES
10
62.488
20
59.996
0
VERTEX
8
CONTOURS_MINEURES
10
61.866
20
58.135
0
VERTEX
8
CONTOURS_MINEURES
10
61.303
20
57.000
0
VERTEX
8
CONTOURS_MINEURES
10
61.303
20
55.701
0
VERTEX
8
CONTOURS_MINEURES
10
61.303
20
54.004
0
VERTEX
8
CONTOURS_MINEURES
10
60.062
20
51.060
0
VERTEX
8
CONTOURS_MINEURES
10
60.039
20
50.998
0
VERTEX
8
CONTOURS_MINEURES
10
60.039
20
50.958
0
VERTEX
8
CONTOURS_MINEURES
10
60.039
20
48.002
0
VERTEX
8
CONTOURS_MINEURES
10
60.040
20
47.961
0
VERTEX
8
CONTOURS_MINEURES
10
59.999
20
47.751
0
VERTEX
8
CONTOURS_MINEURES
10
59.750
20
47.751
0
VERTEX
8
CONTOURS_MINEURES
10
57.004
20
47.751
0
VERTEX
8
CONTOURS_MINEURES
10
56.569
20
44.995
0
VERTEX
8
CONTOURS_MINEURES
10
56.300
20
44.294
0
VERTEX
8
CONTOURS_MINEURES
10
55.480
20
42.000
0
VERTEX
8
CONTOURS_MINEURES
10
55.480
20
40.522
0
VERTEX
8
CONTOURS_MINEURES
10
55.480
20
39.004
0
VERTEX
8
CONTOURS_MINEURES
10
54.973
20
38.029
0
VERTEX
8
CONTOURS_MINEURES
10
53.998
20
35.997
0
VERTEX
8
CONTOURS_MINEURES
10
53.703
20
33.002
0
VERTEX
8
CONTOURS_MINEURES
10
53.703
20
30.291
0
VERTEX
8
CONTOURS_MINEURES
10
53.703
20
29.995
0
VERTEX
8
CONTOURS_MINEURES
10
53.703
20
27.295
0
VERTEX
8
CONTOURS_MINEURES
10
53.690
20
26.999
0
VERTEX
8
CONTOURS_MINEURES
10
53.703
20
26.704
0
VERTEX
8
CONTOURS_MINEURES
10
53.998
20
25.601
0
VERTEX
8
CONTOURS_MINEURES
10
54.585
20
24.004
0
VERTEX
8
CONTOURS_MINEURES
10
54.585
20
23.417
0
VERTEX
8
CONTOURS_MINEURES
10
54.585
20
20.997
0
VERTEX
8
CONTOURS_MINEURES
10
55.337
20
19.336
0
VERTEX
8
CONTOURS_MINEURES
10
55.872
20
18.001
0
VERTEX
8
CONTOURS_MINEURES
10
55.872
20
16.127
0
VERTEX
8
CONTOURS_MINEURES
10
55.872
20
14.995
0
VERTEX
8
CONTOURS_MINEURES
10
57.004
20
12.765
0
VERTEX
8
CONTOURS_MINEURES
10
57.770
20
12.765
0
VERTEX
8
CONTOURS_MINEURES
10
59.999
20
12.765
0
VERTEX
8
CONTOURS_MINEURES
10
60.330
20
12.329
0
VERTEX
8
CONTOURS_MINEURES
10
60.413
20
11.999
0
VERTEX
8
CONTOURS_MINEURES
10
61.333
20
10.332
0
VERTEX
8
CONTOURS_MINEURES
10
62.395
20
9.003
0
VERTEX
8
CONTOURS_MINEURES
10
62.395
20
6.607
0
VERTEX
8
CONTOURS_MINEURES
10
62.395
20
5.997
0
VERTEX
8
CONTOURS_MINEURES
10
62.626
20
5.619
0
VERTEX
8
CONTOURS_MINEURES
10
63.005
20
5.248
0
VERTEX
8
CONTOURS_MINEURES
10
64.941
20
3.001
0
VERTEX
8
CONTOURS_MINEURES
10
65.318
20
2.319
0
VERTEX
8
CONTOURS_MINEURES
10
66.000
20
1.435
0
VERTEX
8
CONTOURS_MINEURES
10
67.430
20
1.435
0
VERTEX
8
CONTOURS_MINEURES
10
68.996
20
1.435
0
VERTEX
8
CONTOURS_MINEURES
10
70.103
20
0.006
0
SEQEND
0
POLYLINE
8
CONTOURS_MINEURES
66
1
70
0
0
VERTEX
8
CONTOURS_MINEURES
10
70.959
20
102.001
0
VERTEX
8
CONTOURS_MINEURES
10
71.239
20
101.241
0
VERTEX
8
CONTOURS_MINEURES
10
71.754
20
99.005
0
VERTEX
8
CONTOURS_MINEURES
10
71.754
20
96.247
0
VERTEX
8
CONTOURS_MINEURES
10
71.754
20
95.998
0
VERTEX
8
CONTOURS_MINEURES
10
71.829
20
95.827
0
VERTEX
8
CONTOURS_MINEURES
10
72.002
20
95.228
0
VERTEX
8
CONTOURS_MINEURES
10
72.751
20
93.003
0
VERTEX
8
CONTOURS_MINEURES
10
73.292
20
91.291
0
VERTEX
8
CONTOURS_MINEURES
10
73.734
20
89.996
0
VERTEX
8
CONTOURS_MINEURES
10
73.734
20
88.263
0
VERTEX
8
CONTOURS_MINEURES
10
73.734
20
87.001
0
VERTEX
8
CONTOURS_MINEURES
10
74.106
20
84.896
0
VERTEX
8
CONTOURS_MINEURES
10
74.334
20
84.005
0
VERTEX
8
CONTOURS_MINEURES
10
74.442
20
81.555
0
VERTEX
8
CONTOURS_MINEURES
10
74.432
20
80.998
0
VERTEX
8
CONTOURS_MINEURES
10
74.432
20
80.433
0
VERTEX
8
CONTOURS_MINEURES
10
74.432
20
78.003
0
VERTEX
8
CONTOURS_MINEURES
10
74.103
20
77.105
0
VERTEX
8
CONTOURS_MINEURES
10
73.957
20
74.996
0
VERTEX
8
CONTOURS_MINEURES
10
73.957
20
73.040
0
VERTEX
8
CONTOURS_MINEURES
10
73.957
20
72.000
0
VERTEX
8
CONTOURS_MINEURES
10
73.484
20
70.518
0
VERTEX
8
CONTOURS_MINEURES
10
72.430
20
69.005
0
VERTEX
8
CONTOURS_MINEURES
10
72.002
20
68.372
0
VERTEX
8
CONTOURS_MINEURES
10
71.109
20
66.891
0
VERTEX
8
CONTOURS_MINEURES
10
70.362
20
65.998
0
VERTEX
8
CONTOURS_MINEURES
10
70.362
20
64.636
0
VERTEX
8
CONTOURS_MINEURES
10
70.362
20
63.002
0
VERTEX
8
CONTOURS_MINEURES
10
68.996
20
60.497
0
VERTEX
8
CONTOURS_MINEURES
10
66.500
20
60.497
0
VERTEX
8
CONTOURS_MINEURES
10
66.000
20
60.497
0
VERTEX
8
CONTOURS_MINEURES
10
65.832
20
59.996
0
VERTEX
8
CONTOURS_MINEURES
10
65.252
20
57.749
0
VERTEX
8
CONTOURS_MINEURES
10
64.965
20
57.000
0
VERTEX
8
CONTOURS_MINEURES
10
64.965
20
55.964
0
VERTEX
8
CONTOURS_MINEURES
10
64.965
20
54.004
0
VERTEX
8
CONTOURS_MINEURES
10
64.532
20
52.472
0
VERTEX
8
CONTOURS_MINEURES
10
63.991
20
50.998
0
VERTEX
8
CONTOURS_MINEURES
10
63.991
20
48.987
0
VERTEX
8
CONTOURS_MINEURES
10
63.991
20
48.002
0
VERTEX
8
CONTOURS_MINEURES
10
64.067
20
46.061
0
VERTEX
8
CONTOURS_MINEURES
10
64.080
20
44.995
0
VERTEX
8
CONTOURS_MINEURES
10
63.005
20
42.845
0
VERTEX
8
CONTOURS_MINEURES
10
62.675
20
42.329
0
VERTEX
8
CONTOURS_MINEURES
10
62.558
20
42.000
0
VERTEX
8
CONTOURS_MINEURES
10
62.558
20
39.449
0
VERTEX
8
CONTOURS_MINEURES
10
62.558
20
39.004
0
VERTEX
8
CONTOURS_MINEURES
10
62.087
20
38.085
0
VERTEX
8
CONTOURS_MINEURES
10
60.863
20
35.997
0
VERTEX
8
CONTOURS_MINEURES
10
59.999
20
33.501
0
VERTEX
8
CONTOURS_MINEURES
10
59.500
20
33.501
0
VERTEX
8
CONTOURS_MINEURES
10
57.004
20
33.501
0
VERTEX
8
CONTOURS_MINEURES
10
56.839
20
33.002
0
VERTEX
8
CONTOURS_MINEURES
10
56.839
20
32.837
0
VERTEX
8
CONTOURS_MINEURES
10
56.839
20
29.995
0
VERTEX
8
CONTOURS_MINEURES
10
56.839
20
29.830
0
VERTEX
8
CONTOURS_MINEURES
10
56.839
20
26.999
0
VERTEX
8
CONTOURS_MINEURES
10
57.004
20
26.615
0
VERTEX
8
CONTOURS_MINEURES
10
59.615
20
26.615
0
VERTEX
8
CONTOURS_MINEURES
10
59.999
20
26.615
0
VERTEX
8
CONTOURS_MINEURES
10
60.888
20
24.889
0
VERTEX
8
CONTOURS_MINEURES
10
61.622
20
24.004
0
VERTEX
8
CONTOURS_MINEURES
10
61.622
20
22.620
0
VERTEX
8
CONTOURS_MINEURES
10
61.622
20
20.997
0
VERTEX
8
CONTOURS_MINEURES
10
63.005
20
18.825
0
VERTEX
8
CONTOURS_MINEURES
10
63.360
20
18.356
0
VERTEX
8
CONTOURS_MINEURES
10
63.594
20
18.001
0
VERTEX
8
CONTOURS_MINEURES
10
63.594
20
15.585
0
VERTEX
8
CONTOURS_MINEURES
10
63.594
20
14.995
0
VERTEX
8
CONTOURS_MINEURES
10
63.722
20
14.278
0
VERTEX
8
CONTOURS_MINEURES
10
64.412
20
11.999
0
VERTEX
8
CONTOURS_MINEURES
10
66.000
20
10.021
0
VERTEX
8
CONTOURS_MINEURES
10
67.018
20
10.021
0
VERTEX
8
CONTOURS_MINEURES
10
68.996
20
10.021
0
VERTEX
8
CONTOURS_MINEURES
10
69.855
20
9.003
0
VERTEX
8
CONTOURS_MINEURES
10
69.855
20
6.856
0
VERTEX
8
CONTOURS_MINEURES
10
69.855
20
5.997
0
VERTEX
8
CONTOURS_MINEURES
10
70.893
20
4.892
0
VERTEX
8
CONTOURS_MINEURES
10
72.002
20
3.750
0
VERTEX
8
CONTOURS_MINEURES
10
72.715
20
3.001
0
VERTEX
8
CONTOURS_MINEURES
10
73.713
20
1.717
0
VERTEX
8
CONTOURS_MINEURES
10
74.997
20
0.236
0
VERTEX
8
CONTOURS_MINEURES
10
77.772
20
0.236
0
VERTEX
8
CONTOURS_MINEURES
10
78.003
20
0.236
0
VERTEX
8
CONTOURS_MINEURES
10
78.133
20
0.136
0
VERTEX
8
CONTOURS_MINEURES
10
78.282
20
0.006
0
SEQEND
0
POLYLINE
8
CONTOURS_MINEURES
66
1
70
0
0
VERTEX
8
CONTOURS_MINEURES
10
74.083
20
102.001
0
VERTEX
8
CONTOURS_MINEURES
10
74.786
20
99.216
0
VERTEX
8
CONTOURS_MINEURES
10
74.841
20
99.005
0
VERTEX
8
CONTOURS_MINEURES
10
74.841
20
96.155
0
VERTEX
8
CONTOURS_MINEURES
10
74.841
20
95.998
0
VERTEX
8
CONTOURS_MINEURES
10
74.997
20
95.444
0
VERTEX
8
CONTOURS_MINEURES
10
77.446
20
95.444
0
VERTEX
8
CONTOURS_MINEURES
10
78.003
20
95.444
0
VERTEX
8
CONTOURS_MINEURES
10
78.931
20
93.003
0
VERTEX
8
CONTOURS_MINEURES
10
79.180
20
91.822
0
VERTEX
8
CONTOURS_MINEURES
10
79.879
20
89.996
0
VERTEX
8
CONTOURS_MINEURES
10
79.879
20
88.877
0
VERTEX
8
CONTOURS_MINEURES
10
79.879
20
87.001
0
VERTEX
8
CONTOURS_MINEURES
10
80.064
20
86.066
0
VERTEX
8
CONTOURS_MINEURES
10
80.064
20
84.005
0
VERTEX
8
CONTOURS_MINEURES
10
80.368
20
81.631
0
VERTEX
8
CONTOURS_MINEURES
10
80.399
20
80.998
0
VERTEX
8
CONTOURS_MINEURES
10
80.399
20
78.602
0
VERTEX
8
CONTOURS_MINEURES
10
80.399
20
78.003
0
VERTEX
8
CONTOURS_MINEURES
10
80.368
20
77.370
0
VERTEX
8
CONTOURS_MINEURES
10
80.883
20
74.996
0
VERTEX
8
CONTOURS_MINEURES
10
80.883
20
72.115
0
VERTEX
8
CONTOURS_MINEURES
10
80.883
20
72.000
0
VERTEX
8
CONTOURS_MINEURES
10
80.835
20
71.837
0
VERTEX
8
CONTOURS_MINEURES
10
80.735
20
69.005
0
VERTEX
8
CONTOURS_MINEURES
10
79.950
20
67.050
0
VERTEX
8
CONTOURS_MINEURES
10
79.287
20
65.998
0
VERTEX
8
CONTOURS_MINEURES
10
79.287
20
64.714
0
VERTEX
8
CONTOURS_MINEURES
10
79.287
20
63.002
0
VERTEX
8
CONTOURS_MINEURES
10
78.842
20
62.160
0
VERTEX
8
CONTOURS_MINEURES
10
78.003
20
60.574
0
VERTEX
8
CONTOURS_MINEURES
10
75.575
20
60.574
0
VERTEX
8
CONTOURS_MINEURES
10
74.997
20
60.574
0
VERTEX
8
CONTOURS_MINEURES
10
74.797
20
60.196
0
VERTEX
8
CONTOURS_MINEURES
10
74.657
20
59.996
0
VERTEX
8
CONTOURS_MINEURES
10
73.695
20
58.302
0
VERTEX
8
CONTOURS_MINEURES
10
73.000
20
57.000
0
VERTEX
8
CONTOURS_MINEURES
10
73.000
20
56.001
0
VERTEX
8
CONTOURS_MINEURES
10
73.000
20
54.004
0
VERTEX
8
CONTOURS_MINEURES
10
72.002
20
51.857
0
VERTEX
8
CONTOURS_MINEURES
10
71.770
20
51.229
0
VERTEX
8
CONTOURS_MINEURES
10
71.674
20
50.998
0
VERTEX
8
CONTOURS_MINEURES
10
71.674
20
50.671
0
VERTEX
8
CONTOURS_MINEURES
10
71.674
20
48.002
0
VERTEX
8
CONTOURS_MINEURES
10
71.680
20
47.680
0
VERTEX
8
CONTOURS_MINEURES
10
71.308
20
44.995
0
VERTEX
8
CONTOURS_MINEURES
10
71.239
20
42.760
0
VERTEX
8
CONTOURS_MINEURES
10
70.813
20
42.000
0
VERTEX
8
CONTOURS_MINEURES
10
70.813
20
40.188
0
VERTEX
8
CONTOURS_MINEURES
10
70.813
20
39.004
0
VERTEX
8
CONTOURS_MINEURES
10
68.996
20
36.561
0
VERTEX
8
CONTOURS_MINEURES
10
68.434
20
36.561
0
VERTEX
8
CONTOURS_MINEURES
10
66.000
20
36.561
0
VERTEX
8
CONTOURS_MINEURES
10
65.811
20
36.187
0
VERTEX
8
CONTOURS_MINEURES
10
65.592
20
35.997
0
VERTEX
8
CONTOURS_MINEURES
10
65.427
20
33.575
0
VERTEX
8
CONTOURS_MINEURES
10
64.877
20
33.002
0
VERTEX
8
CONTOURS_MINEURES
10
64.877
20
31.874
0
VERTEX
8
CONTOURS_MINEURES
10
64.877
20
29.995
0
VERTEX
8
CONTOURS_MINEURES
10
65.038
20
29.032
0
VERTEX
8
CONTOURS_MINEURES
10
65.194
20
26.999
0
VERTEX
8
CONTOURS_MINEURES
10
66.000
20
26.161
0
VERTEX
8
CONTOURS_MINEURES
10
68.157
20
26.161
0
VERTEX
8
CONTOURS_MINEURES
10
68.996
20
26.161
0
VERTEX
8
CONTOURS_MINEURES
10
70.587
20
24.004
0
VERTEX
8
CONTOURS_MINEURES
10
70.587
20
22.589
0
VERTEX
8
CONTOURS_MINEURES
10
70.587
20
20.997
0
VERTEX
8
CONTOURS_MINEURES
10
72.002
20
18.601
0
VERTEX
8
CONTOURS_MINEURES
10
72.251
20
18.251
0
VERTEX
8
CONTOURS_MINEURES
10
72.232
20
18.001
0
VERTEX
8
CONTOURS_MINEURES
10
72.232
20
17.770
0
VERTEX
8
CONTOURS_MINEURES
10
72.232
20
14.995
0
VERTEX
8
CONTOURS_MINEURES
10
72.518
20
12.516
0
VERTEX
8
CONTOURS_MINEURES
10
72.639
20
11.999
0
VERTEX
8
CONTOURS_MINEURES
10
73.792
20
10.794
0
VERTEX
8
CONTOURS_MINEURES
10
74.997
20
9.157
0
VERTEX
8
CONTOURS_MINEURES
10
75.151
20
9.157
0
VERTEX
8
CONTOURS_MINEURES
10
78.003
20
9.157
0
VERTEX
8
CONTOURS_MINEURES
10
78.130
20
9.003
0
VERTEX
8
CONTOURS_MINEURES
10
78.130
20
6.125
0
VERTEX
8
CONTOURS_MINEURES
10
78.130
20
5.997
0
VERTEX
8
CONTOURS_MINEURES
10
80.998
20
3.632
0
SEQEND
0
POLYLINE
8
CONTOURS_MINEURES
66
1
70
0
0
VERTEX
8
CONTOURS_MINEURES
10
80.998
20
52.853
0
VERTEX
8
CONTOURS_MINEURES
10
79.824
20
50.998
0
VERTEX
8
CONTOURS_MINEURES
10
79.824
20
49.176
0
VERTEX
8
CONTOURS_MINEURES
10
79.824
20
48.002
0
VERTEX
8
CONTOURS_MINEURES
10
79.226
20
46.223
0
VERTEX
8
CONTOURS_MINEURES
10
78.708
20
44.995
0
VERTEX
8
CONTOURS_MINEURES
10
78.824
20
44.175
0
VERTEX
8
CONTOURS_MINEURES
10
79.254
20
42.000
0
VERTEX
8
CONTOURS_MINEURES
10
79.254
20
40.255
0
VERTEX
8
CONTOURS_MINEURES
10
79.254
20
39.004
0
VERTEX
8
CONTOURS_MINEURES
10
79.214
20
37.789
0
VERTEX
8
CONTOURS_MINEURES
10
79.354
20
35.997
0
VERTEX
8
CONTOURS_MINEURES
10
79.534
20
34.466
0
VERTEX
8
CONTOURS_MINEURES
10
79.625
20
33.002
0
VERTEX
8
CONTOURS_MINEURES
10
79.625
20
31.624
0
VERTEX
8
CONTOURS_MINEURES
10
79.625
20
29.995
0
VERTEX
8
CONTOURS_MINEURES
10
79.693
20
28.690
0
VERTEX
8
CONTOURS_MINEURES
10
79.879
20
26.999
0
VERTEX
8
CONTOURS_MINEURES
10
80.164
20
24.838
0
VERTEX
8
CONTOURS_MINEURES
10
80.153
20
24.004
0
VERTEX
8
CONTOURS_MINEURES
10
80.153
20
21.845
0
VERTEX
8
CONTOURS_MINEURES
10
80.153
20
20.997
0
VERTEX
8
CONTOURS_MINEURES
10
80.108
20
20.106
0
VERTEX
8
CONTOURS_MINEURES
10
80.556
20
18.001
0
VERTEX
8
CONTOURS_MINEURES
10
80.556
20
15.438
0
VERTEX
8
CONTOURS_MINEURES
10
80.556
20
14.995
0
VERTEX
8
CONTOURS_MINEURES
10
80.624
20
14.620
0
VERTEX
8
CONTOURS_MINEURES
10
80.998
20
13.958
0
SEQEND
0
POLYLINE
8
CONTOURS_MINEURES
66
1
70
0
0
VERTEX
8
CONTOURS_MINEURES
10
80.241
20
102.001
0
VERTEX
8
CONTOURS_MINEURES
10
80.998
20
100.157
0
SEQEND
0
POLYLINE
8
CONTOURS_MAJEURES
66
1
70
0
0
VERTEX
8
CONTOURS_MAJEURES
10
12.494
20
102.001
0
VERTEX
8
CONTOURS_MAJEURES
10
12.174
20
99.179
0
VERTEX
8
CONTOURS_MAJEURES
10
12.195
20
99.005
0
VERTEX
8
CONTOURS_MAJEURES
10
12.195
20
98.810
0
VERTEX
8
CONTOURS_MAJEURES
10
12.195
20
95.998
0
VERTEX
8
CONTOURS_MAJEURES
10
12.000
20
95.781
0
VERTEX
8
CONTOURS_MAJEURES
10
9.262
20
93.003
0
VERTEX
8
CONTOURS_MAJEURES
10
9.114
20
92.893
0
VERTEX
8
CONTOURS_MAJEURES
10
9.005
20
92.769
0
VERTEX
8
CONTOURS_MAJEURES
10
8.771
20
92.769
0
VERTEX
8
CONTOURS_MAJEURES
10
5.999
20
92.769
0
VERTEX
8
CONTOURS_MAJEURES
10
3.687
20
89.996
0
VERTEX
8
CONTOURS_MAJEURES
10
3.687
20
87.684
0
VERTEX
8
CONTOURS_MAJEURES
10
3.687
20
87.001
0
VERTEX
8
CONTOURS_MAJEURES
10
3.004
20
84.754
0
VERTEX
8
CONTOURS_MAJEURES
10
2.851
20
84.157
0
VERTEX
8
CONTOURS_MAJEURES
10
2.830
20
84.005
0
VERTEX
8
CONTOURS_MAJEURES
10
3.004
20
82.897
0
VERTEX
8
CONTOURS_MAJEURES
10
3.257
20
81.252
0
VERTEX
8
CONTOURS_MAJEURES
10
3.223
20
80.998
0
VERTEX
8
CONTOURS_MAJEURES
10
3.223
20
80.779
0
VERTEX
8
CONTOURS_MAJEURES
10
3.223
20
78.003
0
VERTEX
8
CONTOURS_MAJEURES
10
3.353
20
77.652
0
VERTEX
8
CONTOURS_MAJEURES
10
4.423
20
74.996
0
VERTEX
8
CONTOURS_MAJEURES
10
4.423
20
73.576
0
VERTEX
8
CONTOURS_MAJEURES
10
4.423
20
72.000
0
VERTEX
8
CONTOURS_MAJEURES
10
4.886
20
70.888
0
VERTEX
8
CONTOURS_MAJEURES
10
5.999
20
69.301
0
VERTEX
8
CONTOURS_MAJEURES
10
8.707
20
69.301
0
VERTEX
8
CONTOURS_MAJEURES
10
9.005
20
69.301
0
VERTEX
8
CONTOURS_MAJEURES
10
9.125
20
69.124
0
VERTEX
8
CONTOURS_MAJEURES
10
9.213
20
69.005
0
VERTEX
8
CONTOURS_MAJEURES
10
9.473
20
68.535
0
VERTEX
8
CONTOURS_MAJEURES
10
10.845
20
65.998
0
VERTEX
8
CONTOURS_MAJEURES
10
10.845
20
64.158
0
VERTEX
8
CONTOURS_MAJEURES
10
10.845
20
63.002
0
VERTEX
8
CONTOURS_MAJEURES
10
11.121
20
62.120
0
VERTEX
8
CONTOURS_MAJEURES
10
12.000
20
60.921
0
VERTEX
8
CONTOURS_MAJEURES
10
12.444
20
59.996
0
VERTEX
8
CONTOURS_MAJEURES
10
13.036
20
58.036
0
VERTEX
8
CONTOURS_MAJEURES
10
13.596
20
57.000
0
VERTEX
8
CONTOURS_MAJEURES
10
13.596
20
55.601
0
VERTEX
8
CONTOURS_MAJEURES
10
13.596
20
54.004
0
VERTEX
8
CONTOURS_MAJEURES
10
14.603
20
51.391
0
VERTEX
8
CONTOURS_MAJEURES
10
14.679
20
50.998
0
VERTEX
8
CONTOURS_MAJEURES
10
14.679
20
50.681
0
VERTEX
8
CONTOURS_MAJEURES
10
14.679
20
48.002
0
VERTEX
8
CONTOURS_MAJEURES
10
14.995
20
46.968
0
VERTEX
8
CONTOURS_MAJEURES
10
16.029
20
46.968
0
VERTEX
8
CONTOURS_MAJEURES
10
18.001
20
46.968
0
VERTEX
8
CONTOURS_MAJEURES
10
18.374
20
45.369
0
VERTEX
8
CONTOURS_MAJEURES
10
18.534
20
44.995
0
VERTEX
8
CONTOURS_MAJEURES
10
18.637
20
44.360
0
VERTEX
8
CONTOURS_MAJEURES
10
18.965
20
42.000
0
VERTEX
8
CONTOURS_MAJEURES
10
18.965
20
39.968
0
VERTEX
8
CONTOURS_MAJEURES
10
18.965
20
39.004
0
VERTEX
8
CONTOURS_MAJEURES
10
18.929
20
36.929
0
VERTEX
8
CONTOURS_MAJEURES
10
18.905
20
35.997
0
VERTEX
8
CONTOURS_MAJEURES
10
18.890
20
35.109
0
VERTEX
8
CONTOURS_MAJEURES
10
18.737
20
33.002
0
VERTEX
8
CONTOURS_MAJEURES
10
18.737
20
30.733
0
VERTEX
8
CONTOURS_MAJEURES
10
18.737
20
29.995
0
VERTEX
8
CONTOURS_MAJEURES
10
18.511
20
27.509
0
VERTEX
8
CONTOURS_MAJEURES
10
18.464
20
26.999
0
VERTEX
8
CONTOURS_MAJEURES
10
18.384
20
26.616
0
VERTEX
8
CONTOURS_MAJEURES
10
18.001
20
25.041
0
VERTEX
8
CONTOURS_MAJEURES
10
16.961
20
25.041
0
VERTEX
8
CONTOURS_MAJEURES
10
14.995
20
25.041
0
VERTEX
8
CONTOURS_MAJEURES
10
14.641
20
24.004
0
VERTEX
8
CONTOURS_MAJEURES
10
14.641
20
21.353
0
VERTEX
8
CONTOURS_MAJEURES
10
14.641
20
20.997
0
VERTEX
8
CONTOURS_MAJEURES
10
14.434
20
20.435
0
VERTEX
8
CONTOURS_MAJEURES
10
13.579
20
18.001
0
VERTEX
8
CONTOURS_MAJEURES
10
13.579
20
16.579
0
VERTEX
8
CONTOURS_MAJEURES
10
13.579
20
14.995
0
VERTEX
8
CONTOURS_MAJEURES
10
13.454
20
13.453
0
VERTEX
8
CONTOURS_MAJEURES
10
13.318
20
11.999
0
VERTEX
8
CONTOURS_MAJEURES
10
13.163
20
10.836
0
VERTEX
8
CONTOURS_MAJEURES
10
13.245
20
9.003
0
VERTEX
8
CONTOURS_MAJEURES
10
13.245
20
7.754
0
VERTEX
8
CONTOURS_MAJEURES
10
13.245
20
5.997
0
VERTEX
8
CONTOURS_MAJEURES
10
12.901
20
5.096
0
VERTEX
8
CONTOURS_MAJEURES
10
12.419
20
3.001
0
VERTEX
8
CONTOURS_MAJEURES
10
12.000
20
2.346
0
VERTEX
8
CONTOURS_MAJEURES
10
10.891
20
1.115
0
VERTEX
8
CONTOURS_MAJEURES
10
10.456
20
0.006
0
SEQEND
0
POLYLINE
8
CONTOURS_MAJEURES
66
1
70
0
0
VERTEX
8
CONTOURS_MAJEURES
10
33.393
20
102.001
0
VERTEX
8
CONTOURS_MAJEURES
10
34.371
20
100.372
0
VERTEX
8
CONTOURS_MAJEURES
10
35.026
20
99.005
0
VERTEX
8
CONTOURS_MAJEURES
10
35.026
20
98.026
0
VERTEX
8
CONTOURS_MAJEURES
10
35.026
20
95.998
0
VERTEX
8
CONTOURS_MAJEURES
10
35.388
20
93.618
0
VERTEX
8
CONTOURS_MAJEURES
10
35.300
20
93.003
0
VERTEX
8
CONTOURS_MAJEURES
10
34.733
20
91.268
0
VERTEX
8
CONTOURS_MAJEURES
10
33.250
20
89.996
0
VERTEX
8
CONTOURS_MAJEURES
10
33.250
20
89.747
0
VERTEX
8
CONTOURS_MAJEURES
10
33.250
20
87.001
0
VERTEX
8
CONTOURS_MAJEURES
10
32.999
20
86.808
0
VERTEX
8
CONTOURS_MAJEURES
10
30.196
20
86.808
0
VERTEX
8
CONTOURS_MAJEURES
10
30.004
20
86.808
0
VERTEX
8
CONTOURS_MAJEURES
10
27.499
20
84.504
0
VERTEX
8
CONTOURS_MAJEURES
10
26.998
20
84.036
0
VERTEX
8
CONTOURS_MAJEURES
10
26.958
20
84.005
0
VERTEX
8
CONTOURS_MAJEURES
10
26.887
20
83.894
0
VERTEX
8
CONTOURS_MAJEURES
10
25.001
20
80.998
0
VERTEX
8
CONTOURS_MAJEURES
10
25.001
20
80.000
0
VERTEX
8
CONTOURS_MAJEURES
10
25.001
20
78.003
0
VERTEX
8
CONTOURS_MAJEURES
10
24.797
20
77.205
0
VERTEX
8
CONTOURS_MAJEURES
10
24.884
20
74.996
0
VERTEX
8
CONTOURS_MAJEURES
10
24.884
20
72.881
0
VERTEX
8
CONTOURS_MAJEURES
10
24.884
20
72.000
0
VERTEX
8
CONTOURS_MAJEURES
10
24.590
20
71.413
0
VERTEX
8
CONTOURS_MAJEURES
10
24.651
20
69.005
0
VERTEX
8
CONTOURS_MAJEURES
10
24.843
20
66.842
0
VERTEX
8
CONTOURS_MAJEURES
10
24.697
20
65.998
0
VERTEX
8
CONTOURS_MAJEURES
10
24.697
20
65.303
0
VERTEX
8
CONTOURS_MAJEURES
10
24.697
20
63.002
0
VERTEX
8
CONTOURS_MAJEURES
10
25.500
20
61.499
0
VERTEX
8
CONTOURS_MAJEURES
10
26.228
20
59.996
0
VERTEX
8
CONTOURS_MAJEURES
10
26.998
20
58.926
0
VERTEX
8
CONTOURS_MAJEURES
10
27.970
20
57.969
0
VERTEX
8
CONTOURS_MAJEURES
10
28.642
20
57.000
0
VERTEX
8
CONTOURS_MAJEURES
10
28.642
20
55.361
0
VERTEX
8
CONTOURS_MAJEURES
10
28.642
20
54.004
0
VERTEX
8
CONTOURS_MAJEURES
10
29.104
20
53.105
0
VERTEX
8
CONTOURS_MAJEURES
10
30.004
20
51.721
0
VERTEX
8
CONTOURS_MAJEURES
10
32.278
20
51.721
0
VERTEX
8
CONTOURS_MAJEURES
10
32.999
20
51.721
0
VERTEX
8
CONTOURS_MAJEURES
10
33.443
20
50.998
0
VERTEX
8
CONTOURS_MAJEURES
10
33.443
20
50.555
0
VERTEX
8
CONTOURS_MAJEURES
10
33.443
20
48.002
0
VERTEX
8
CONTOURS_MAJEURES
10
33.822
20
47.179
0
VERTEX
8
CONTOURS_MAJEURES
10
34.725
20
44.995
0
VERTEX
8
CONTOURS_MAJEURES
10
35.388
20
42.614
0
VERTEX
8
CONTOURS_MAJEURES
10
35.518
20
42.000
0
VERTEX
8
CONTOURS_MAJEURES
10
35.518
20
41.514
0
VERTEX
8
CONTOURS_MAJEURES
10
35.518
20
39.004
0
VERTEX
8
CONTOURS_MAJEURES
10
35.700
20
36.302
0
VERTEX
8
CONTOURS_MAJEURES
10
35.681
20
35.997
0
VERTEX
8
CONTOURS_MAJEURES
10
35.152
20
33.852
0
VERTEX
8
CONTOURS_MAJEURES
10
34.981
20
33.002
0
VERTEX
8
CONTOURS_MAJEURES
10
34.981
20
31.977
0
VERTEX
8
CONTOURS_MAJEURES
10
34.981
20
29.995
0
VERTEX
8
CONTOURS_MAJEURES
10
34.843
20
28.837
0
VERTEX
8
CONTOURS_MAJEURES
10
34.452
20
26.999
0
VERTEX
8
CONTOURS_MAJEURES
10
34.142
20
25.860
0
VERTEX
8
CONTOURS_MAJEURES
10
33.769
20
24.004
0
VERTEX
8
CONTOURS_MAJEURES
10
33.769
20
23.233
0
VERTEX
8
CONTOURS_MAJEURES
10
33.769
20
20.997
0
VERTEX
8
CONTOURS_MAJEURES
10
33.375
20
18.376
0
VERTEX
8
CONTOURS_MAJEURES
10
33.300
20
18.001
0
VERTEX
8
CONTOURS_MAJEURES
10
33.300
20
17.701
0
VERTEX
8
CONTOURS_MAJEURES
10
33.300
20
14.995
0
VERTEX
8
CONTOURS_MAJEURES
10
32.999
20
13.176
0
VERTEX
8
CONTOURS_MAJEURES
10
31.822
20
13.176
0
VERTEX
8
CONTOURS_MAJEURES
10
30.004
20
13.176
0
VERTEX
8
CONTOURS_MAJEURES
10
29.824
20
11.999
0
VERTEX
8
CONTOURS_MAJEURES
10
29.138
20
9.866
0
VERTEX
8
CONTOURS_MAJEURES
10
28.977
20
9.003
0
VERTEX
8
CONTOURS_MAJEURES
10
28.977
20
7.977
0
VERTEX
8
CONTOURS_MAJEURES
10
28.977
20
5.997
0
VERTEX
8
CONTOURS_MAJEURES
10
28.484
20
4.515
0
VERTEX
8
CONTOURS_MAJEURES
10
28.168
20
3.001
0
VERTEX
8
CONTOURS_MAJEURES
10
27.443
20
0.449
0
VERTEX
8
CONTOURS_MAJEURES
10
27.329
20
0.006
0
SEQEND
0
POLYLINE
8
CONTOURS_MAJEURES
66
1
70
0
0
VERTEX
8
CONTOURS_MAJEURES
10
54.973
20
102.001
0
VERTEX
8
CONTOURS_MAJEURES
10
55.589
20
100.415
0
VERTEX
8
CONTOURS_MAJEURES
10
56.189
20
99.005
0
VERTEX
8
CONTOURS_MAJEURES
10
56.189
20
98.190
0
VERTEX
8
CONTOURS_MAJEURES
10
56.189
20
95.998
0
VERTEX
8
CONTOURS_MAJEURES
10
57.004
20
93.959
0
VERTEX
8
CONTOURS_MAJEURES
10
57.960
20
93.959
0
VERTEX
8
CONTOURS_MAJEURES
10
59.999
20
93.959
0
VERTEX
8
CONTOURS_MAJEURES
10
60.346
20
93.003
0
VERTEX
8
CONTOURS_MAJEURES
10
60.429
20
92.573
0
VERTEX
8
CONTOURS_MAJEURES
10
60.940
20
89.996
0
VERTEX
8
CONTOURS_MAJEURES
10
60.940
20
87.938
0
VERTEX
8
CONTOURS_MAJEURES
10
60.940
20
87.001
0
VERTEX
8
CONTOURS_MAJEURES
10
60.732
20
84.735
0
VERTEX
8
CONTOURS_MAJEURES
10
60.660
20
84.005
0
VERTEX
8
CONTOURS_MAJEURES
10
60.484
20
83.520
0
VERTEX
8
CONTOURS_MAJEURES
10
60.039
20
80.998
0
VERTEX
8
CONTOURS_MAJEURES
10
60.039
20
78.042
0
VERTEX
8
CONTOURS_MAJEURES
10
60.039
20
78.003
0
VERTEX
8
CONTOURS_MAJEURES
10
60.029
20
77.973
0
VERTEX
8
CONTOURS_MAJEURES
10
59.999
20
77.880
0
VERTEX
8
CONTOURS_MAJEURES
10
59.877
20
77.880
0
VERTEX
8
CONTOURS_MAJEURES
10
57.004
20
77.880
0
VERTEX
8
CONTOURS_MAJEURES
10
55.957
20
74.996
0
VERTEX
8
CONTOURS_MAJEURES
10
55.957
20
73.043
0
VERTEX
8
CONTOURS_MAJEURES
10
55.957
20
72.000
0
VERTEX
8
CONTOURS_MAJEURES
10
55.383
20
70.620
0
VERTEX
8
CONTOURS_MAJEURES
10
54.777
20
69.005
0
VERTEX
8
CONTOURS_MAJEURES
10
53.998
20
68.231
0
VERTEX
8
CONTOURS_MAJEURES
10
52.729
20
67.731
0
VERTEX
8
CONTOURS_MAJEURES
10
51.003
20
67.236
0
VERTEX
8
CONTOURS_MAJEURES
10
49.765
20
67.236
0
VERTEX
8
CONTOURS_MAJEURES
10
47.997
20
67.236
0
VERTEX
8
CONTOURS_MAJEURES
10
45.930
20
65.998
0
VERTEX
8
CONTOURS_MAJEURES
10
45.930
20
65.070
0
VERTEX
8
CONTOURS_MAJEURES
10
45.930
20
63.002
0
VERTEX
8
CONTOURS_MAJEURES
10
45.002
20
60.998
0
VERTEX
8
CONTOURS_MAJEURES
10
44.709
20
60.288
0
VERTEX
8
CONTOURS_MAJEURES
10
44.621
20
59.996
0
VERTEX
8
CONTOURS_MAJEURES
10
44.608
20
59.603
0
VERTEX
8
CONTOURS_MAJEURES
10
44.147
20
57.000
0
VERTEX
8
CONTOURS_MAJEURES
10
44.147
20
56.148
0
VERTEX
8
CONTOURS_MAJEURES
10
44.147
20
54.004
0
VERTEX
8
CONTOURS_MAJEURES
10
43.990
20
52.009
0
VERTEX
8
CONTOURS_MAJEURES
10
44.319
20
50.998
0
VERTEX
8
CONTOURS_MAJEURES
10
44.319
20
50.318
0
VERTEX
8
CONTOURS_MAJEURES
10
44.319
20
48.002
0
VERTEX
8
CONTOURS_MAJEURES
10
44.978
20
45.019
0
VERTEX
8
CONTOURS_MAJEURES
10
44.987
20
44.995
0
VERTEX
8
CONTOURS_MAJEURES
10
44.991
20
44.984
0
VERTEX
8
CONTOURS_MAJEURES
10
45.002
20
44.940
0
VERTEX
8
CONTOURS_MAJEURES
10
45.833
20
42.000
0
VERTEX
8
CONTOURS_MAJEURES
10
45.833
20
39.835
0
VERTEX
8
CONTOURS_MAJEURES
10
45.833
20
39.004
0
VERTEX
8
CONTOURS_MAJEURES
10
46.019
20
37.019
0
VERTEX
8
CONTOURS_MAJEURES
10
45.930
20
35.997
0
VERTEX
8
CONTOURS_MAJEURES
10
45.877
20
35.122
0
VERTEX
8
CONTOURS_MAJEURES
10
45.767
20
33.002
0
VERTEX
8
CONTOURS_MAJEURES
10
45.767
20
32.234
0
VERTEX
8
CONTOURS_MAJEURES
10
45.767
20
29.995
0
VERTEX
8
CONTOURS_MAJEURES
10
45.382
20
27.380
0
VERTEX
8
CONTOURS_MAJEURES
10
45.370
20
26.999
0
VERTEX
8
CONTOURS_MAJEURES
10
45.382
20
26.619
0
VERTEX
8
CONTOURS_MAJEURES
10
45.002
20
24.919
0
VERTEX
8
CONTOURS_MAJEURES
10
44.835
20
24.004
0
VERTEX
8
CONTOURS_MAJEURES
10
44.835
20
23.838
0
VERTEX
8
CONTOURS_MAJEURES
10
44.835
20
20.997
0
VERTEX
8
CONTOURS_MAJEURES
10
44.752
20
18.250
0
VERTEX
8
CONTOURS_MAJEURES
10
44.741
20
18.001
0
VERTEX
8
CONTOURS_MAJEURES
10
44.741
20
17.741
0
VERTEX
8
CONTOURS_MAJEURES
10
44.741
20
14.995
0
VERTEX
8
CONTOURS_MAJEURES
10
44.713
20
12.287
0
VERTEX
8
CONTOURS_MAJEURES
10
44.662
20
11.999
0
VERTEX
8
CONTOURS_MAJEURES
10
44.505
20
11.504
0
VERTEX
8
CONTOURS_MAJEURES
10
44.323
20
9.003
0
VERTEX
8
CONTOURS_MAJEURES
10
44.323
20
6.676
0
VERTEX
8
CONTOURS_MAJEURES
10
44.323
20
5.997
0
VERTEX
8
CONTOURS_MAJEURES
10
44.097
20
5.095
0
VERTEX
8
CONTOURS_MAJEURES
10
44.191
20
3.001
0
VERTEX
8
CONTOURS_MAJEURES
10
45.002
20
0.236
0
VERTEX
8
CONTOURS_MAJEURES
10
45.073
20
0.077
0
VERTEX
8
CONTOURS_MAJEURES
10
45.107
20
0.006
0
SEQEND
0
POLYLINE
8
CONTOURS_MAJEURES
66
1
70
0
0
VERTEX
8
CONTOURS_MAJEURES
10
74.083
20
102.001
0
VERTEX
8
CONTOURS_MAJEURES
10
74.786
20
99.216
0
VERTEX
8
CONTOURS_MAJEURES
10
74.841
20
99.005
0
VERTEX
8
CONTOURS_MAJEURES
10
74.841
20
96.155
0
VERTEX
8
CONTOURS_MAJEURES
10
74.841
20
95.998
0
VERTEX
8
CONTOURS_MAJEURES
10
74.997
20
95.444
0
VERTEX
8
CONTOURS_MAJEURES
10
77.446
20
95.444
0
VERTEX
8
CONTOURS_MAJEURES
10
78.003
20
95.444
0
VERTEX
8
CONTOURS_MAJEURES
10
78.931
20
93.003
0
VERTEX
8
CONTOURS_MAJEURES
10
79.180
20
91.822
0
VERTEX
8
CONTOURS_MAJEURES
10
79.879
20
89.996
0
VERTEX
8
CONTOURS_MAJEURES
10
79.879
20
88.877
0
VERTEX
8
CONTOURS_MAJEURES
10
79.879
20
87.001
0
VERTEX
8
CONTOURS_MAJEURES
10
80.064
20
86.066
0
VERTEX
8
CONTOURS_MAJEURES
10
80.064
20
84.005
0
VERTEX
8
CONTOURS_MAJEURES
10
80.368
20
81.631
0
VERTEX
8
CONTOURS_MAJEURES
10
80.399
20
80.998
0
VERTEX
8
CONTOURS_MAJEURES
10
80.399
20
78.602
0
VERTEX
8
CONTOURS_MAJEURES
10
80.399
20
78.003
0
VERTEX
8
CONTOURS_MAJEURES
10
80.368
20
77.370
0
VERTEX
8
CONTOURS_MAJEURES
10
80.883
20
74.996
0
VERTEX
8
CONTOURS_MAJEURES
10
80.883
20
72.115
0
VERTEX
8
CONTOURS_MAJEURES
10
80.883
20
72.000
0
VERTEX
8
CONTOURS_MAJEURES
10
80.835
20
71.837
0
VERTEX
8
CONTOURS_MAJEURES
10
80.735
20
69.005
0
VERTEX
8
CONTOURS_MAJEURES
10
79.950
20
67.050
0
VERTEX
8
CONTOURS_MAJEURES
10
79.287
20
65.998
0
VERTEX
8
CONTOURS_MAJEURES
10
79.287
20
64.714
0
VERTEX
8
CONTOURS_MAJEURES
10
79.287
20
63.002
0
VERTEX
8
CONTOURS_MAJEURES
10
78.842
20
62.160
0
VERTEX
8
CONTOURS_MAJEURES
10
78.003
20
60.574
0
VERTEX
8
CONTOURS_MAJEURES
10
75.575
20
60.574
0
VERTEX
8
CONTOURS_MAJEURES
10
74.997
20
60.574
0
VERTEX
8
CONTOURS_MAJEURES
10
74.797
20
60.196
0
VERTEX
8
CONTOURS_MAJEURES
10
74.657
20
59.996
0
VERTEX
8
CONTOURS_MAJEURES
10
73.695
20
58.302
0
VERTEX
8
CONTOURS_MAJEURES
10
73.000
20
57.000
0
VERTEX
8
CONTOURS_MAJEURES
10
73.000
20
56.001
0
VERTEX
8
CONTOURS_MAJEURES
10
73.000
20
54.004
0
VERTEX
8
CONTOURS_MAJEURES
10
72.002
20
51.857
0
VERTEX
8
CONTOURS_MAJEURES
10
71.770
20
51.229
0
VERTEX
8
CONTOURS_MAJEURES
10
71.674
20
50.998
0
VERTEX
8
CONTOURS_MAJEURES
10
71.674
20
50.671
0
VERTEX
8
CONTOURS_MAJEURES
10
71.674
20
48.002
0
VERTEX
8
CONTOURS_MAJEURES
10
71.680
20
47.680
0
VERTEX
8
CONTOURS_MAJEURES
10
71.308
20
44.995
0
VERTEX
8
CONTOURS_MAJEURES
10
71.239
20
42.760
0
VERTEX
8
CONTOURS_MAJEURES
10
70.813
20
42.000
0
VERTEX
8
CONTOURS_MAJEURES
10
70.813
20
40.188
0
VERTEX
8
CONTOURS_MAJEURES
10
70.813
20
39.004
0
VERTEX
8
CONTOURS_MAJEURES
10
68.996
20
36.561
0
VERTEX
8
CONTOURS_MAJEURES
10
68.434
20
36.561
0
VERTEX
8
CONTOURS_MAJEURES
10
66.000
20
36.561
0
VERTEX
8
CONTOURS_MAJEURES
10
65.811
20
36.187
0
VERTEX
8
CONTOURS_MAJEURES
10
65.592
20
35.997
0
VERTEX
8
CONTOURS_MAJEURES
10
65.427
20
33.575
0
VERTEX
8
CONTOURS_MAJEURES
10
64.877
20
33.002
0
VERTEX
8
CONTOURS_MAJEURES
10
64.877
20
31.874
0
VERTEX
8
CONTOURS_MAJEURES
10
64.877
20
29.995
0
VERTEX
8
CONTOURS_MAJEURES
10
65.038
20
29.032
0
VERTEX
8
CONTOURS_MAJEURES
10
65.194
20
26.999
0
VERTEX
8
CONTOURS_MAJEURES
10
66.000
20
26.161
0
VERTEX
8
CONTOURS_MAJEURES
10
68.157
20
26.161
0
VERTEX
8
CONTOURS_MAJEURES
10
68.996
20
26.161
0
VERTEX
8
CONTOURS_MAJEURES
10
70.587
20
24.004
0
VERTEX
8
CONTOURS_MAJEURES
10
70.587
20
22.589
0
VERTEX
8
CONTOURS_MAJEURES
10
70.587
20
20.997
0
VERTEX
8
CONTOURS_MAJEURES
10
72.002
20
18.601
0
VERTEX
8
CONTOURS_MAJEURES
10
72.251
20
18.251
0
VERTEX
8
CONTOURS_MAJEURES
10
72.232
20
18.001
0
VERTEX
8
CONTOURS_MAJEURES
10
72.232
20
17.770
0
VERTEX
8
CONTOURS_MAJEURES
10
72.232
20
14.995
0
VERTEX
8
CONTOURS_MAJEURES
10
72.518
20
12.516
0
VERTEX
8
CONTOURS_MAJEURES
10
72.639
20
11.999
0
VERTEX
8
CONTOURS_MAJEURES
10
73.792
20
10.794
0
VERTEX
8
CONTOURS_MAJEURES
10
74.997
20
9.157
0
VERTEX
8
CONTOURS_MAJEURES
10
75.151
20
9.157
0
VERTEX
8
CONTOURS_MAJEURES
10
78.003
20
9.157
0
VERTEX
8
CONTOURS_MAJEURES
10
78.130
20
9.003
0
VERTEX
8
CONTOURS_MAJEURES
10
78.130
20
6.125
0
VERTEX
8
CONTOURS_MAJEURES
10
78.130
20
5.997
0
VERTEX
8
CONTOURS_MAJEURES
10
80.998
20
3.632
0
SEQEND
0
POLYLINE
8
PARCELLE
66
1
70
1
0
VERTEX
8
PARCELLE
10
30.145
20
22.926
0
VERTEX
8
PARCELLE
10
20.000
20
24.166
0
VERTEX
8
PARCELLE
10
21.888
20
71.097
0
VERTEX
8
PARCELLE
10
63.405
20
83.474
0
VERTEX
8
PARCELLE
10
55.249
20
20.000
0
VERTEX
8
PARCELLE
10
30.145
20
22.926
0
SEQEND
0
TEXT
8
POINTS_COTES
10
-0.002
20
0.006
40
1.0
1
67.9
0
TEXT
8
POINTS_COTES
10
63.005
20
3.001
40
1.0
1
82.6
0
TEXT
8
POINTS_COTES
10
41.996
20
9.003
40
1.0
1
79.0
0
TEXT
8
POINTS_COTES
10
20.997
20
14.995
40
1.0
1
71.3
0
TEXT
8
POINTS_COTES
10
-0.002
20
20.997
40
1.0
1
68.4
0
TEXT
8
POINTS_COTES
10
63.005
20
24.004
40
1.0
1
84.3
0
TEXT
8
POINTS_COTES
10
41.996
20
29.995
40
1.0
1
77.3
0
TEXT
8
POINTS_COTES
10
20.997
20
35.997
40
1.0
1
70.8
0
TEXT
8
POINTS_COTES
10
-0.002
20
42.000
40
1.0
1
67.6
0
TEXT
8
POINTS_COTES
10
63.005
20
44.995
40
1.0
1
83.7
0
TEXT
8
POINTS_COTES
10
41.996
20
50.998
40
1.0
1
78.7
0
TEXT
8
POINTS_COTES
10
20.997
20
57.000
40
1.0
1
72.2
0
TEXT
8
POINTS_COTES
10
-0.002
20
63.002
40
1.0
1
67.1
0
TEXT
8
POINTS_COTES
10
63.005
20
65.998
40
1.0
1
82.8
0
TEXT
8
POINTS_COTES
10
41.996
20
72.000
40
1.0
1
78.2
0
TEXT
8
POINTS_COTES
10
20.997
20
78.003
40
1.0
1
74.7
0
TEXT
8
POINTS_COTES
10
-0.002
20
84.005
40
1.0
1
68.9
0
TEXT
8
POINTS_COTES
10
63.005
20
87.001
40
1.0
1
80.9
0
TEXT
8
POINTS_COTES
10
41.996
20
93.003
40
1.0
1
75.9
0
TEXT
8
POINTS_COTES
10
20.997
20
99.005
40
1.0
1
71.7
0
ENDSEC
0
EOF
