0
SECTION
2
HEADER
9
$ACADVER
1
AC1015
9
$INSBASE
10
0.0
20
0.0
30
0.0
9
$EXTMIN
10
0.000
20
0.000
30
107.0
9
$EXTMAX
10
112.000
20
100.000
30
159.0
9
$LIMMIN
10
0.000
20
0.000
9
$LIMMAX
10
112.000
20
100.000
0
ENDSEC
0
SECTION
2
TABLES
0
TABLE
2
LTYPE
70
2
0
LTYPE
2
CONTINUOUS
70
0
3
Solid line
72
65
73
0
40
0.0
0
LTYPE
2
DASHED
70
0
3
Dashed
72
65
73
2
40
6.0
49
3.0
49
-3.0
0
ENDTAB
0
TABLE
2
LAYER
70
3
0
LAYER
2
0
70
0
62
7
6
CONTINUOUS
0
LAYER
2
CONTOURS_MAJOR
70
0
62
3
6
CONTINUOUS
0
LAYER
2
CONTOURS_MINOR
70
0
62
1
6
DASHED
0
ENDTAB
0
ENDSEC
0
SECTION
2
BLOCKS
0
ENDSEC
0
SECTION
2
ENTITIES
0
LWPOLYLINE
8
CONTOURS_MINOR
62
1
90
2
70
0
38
107.0
10
111.727
20
0.000
10
112.000
20
0.207
0
LWPOLYLINE
8
CONTOURS_MINOR
62
1
90
2
70
0
38
108.0
10
110.634
20
0.000
10
112.000
20
1.037
0
LWPOLYLINE
8
CONTOURS_MINOR
62
1
90
4
70
0
38
109.0
10
107.602
20
0.000
10
108.000
20
0.341
10
110.000
20
0.341
10
112.000
20
1.867
0
LWPOLYLINE
8
CONTOURS_MAJOR
62
3
90
6
70
0
38
110.0
10
106.654
20
0.000
10
108.000
20
1.154
10
110.000
20
1.154
10
111.106
20
2.000
10
111.106
20
4.000
10
112.000
20
4.778
0
LWPOLYLINE
8
CONTOURS_MINOR
62
1
90
9
70
0
38
111.0
10
101.756
20
0.000
10
102.000
20
0.262
10
104.000
20
0.262
10
106.000
20
0.262
10
108.000
20
1.967
10
110.000
20
1.967
10
110.043
20
2.000
10
110.043
20
4.000
10
112.000
20
5.704
0
LWPOLYLINE
8
CONTOURS_MINOR
62
1
90
11
70
0
38
112.0
10
100.969
20
0.000
10
102.000
20
1.105
10
104.000
20
1.105
10
106.000
20
1.105
10
107.050
20
2.000
10
107.050
20
4.000
10
108.000
20
4.793
10
110.000
20
4.793
10
111.364
20
6.000
10
111.364
20
8.000
10
112.000
20
9.062
0
LWPOLYLINE
8
CONTOURS_MINOR
62
1
90
14
70
0
38
113.0
10
100.181
20
0.000
10
102.000
20
1.949
10
104.000
20
1.949
10
106.000
20
1.949
10
106.059
20
2.000
10
106.059
20
4.000
10
108.000
20
5.620
10
110.000
20
5.620
10
110.430
20
6.000
10
110.430
20
8.000
10
111.705
20
10.000
10
111.705
20
12.000
10
111.705
20
14.000
10
112.000
20
14.988
0
LWPOLYLINE
8
CONTOURS_MINOR
62
1
90
18
70
0
38
114.0
10
97.432
20
0.000
10
98.000
20
0.664
10
100.000
20
0.664
10
101.245
20
2.000
10
101.245
20
4.000
10
102.000
20
4.783
10
104.000
20
4.783
10
106.000
20
4.783
10
107.460
20
6.000
10
107.460
20
8.000
10
108.000
20
8.584
10
110.000
20
8.584
10
110.967
20
10.000
10
110.967
20
12.000
10
110.967
20
14.000
10
111.635
20
16.000
10
111.635
20
18.000
10
112.000
20
18.686
0
LWPOLYLINE
8
CONTOURS_MAJOR
62
3
90
18
70
0
38
115.0
10
96.694
20
0.000
10
98.000
20
1.526
10
100.000
20
1.526
10
100.442
20
2.000
10
100.442
20
4.000
10
102.000
20
5.617
10
104.000
20
5.617
10
106.000
20
5.617
10
106.460
20
6.000
10
106.460
20
8.000
10
108.000
20
9.665
10
110.000
20
9.665
10
110.229
20
10.000
10
110.229
20
12.000
10
110.229
20
14.000
10
111.015
20
16.000
10
111.015
20
18.000
10
112.000
20
19.849
0
LWPOLYLINE
8
CONTOURS_MINOR
62
1
90
23
70
0
38
116.0
10
93.934
20
0.000
10
94.000
20
0.036
10
96.000
20
0.036
10
97.756
20
2.000
10
97.756
20
4.000
10
98.000
20
4.357
10
100.000
20
4.357
10
101.586
20
6.000
10
101.586
20
8.000
10
102.000
20
8.482
10
104.000
20
8.482
10
106.000
20
8.482
10
107.423
20
10.000
10
107.423
20
12.000
10
107.423
20
14.000
10
108.000
20
15.038
10
110.000
20
15.038
10
110.396
20
16.000
10
110.396
20
18.000
10
111.587
20
20.000
10
111.587
20
22.000
10
111.587
20
24.000
10
112.000
20
24.576
0
LWPOLYLINE
8
CONTOURS_MINOR
62
1
90
23
70
0
38
117.0
10
92.842
20
0.000
10
94.000
20
0.642
10
96.000
20
0.642
10
97.214
20
2.000
10
97.214
20
4.000
10
98.000
20
5.151
10
100.000
20
5.151
10
100.820
20
6.000
10
100.820
20
8.000
10
102.000
20
9.375
10
104.000
20
9.375
10
106.000
20
9.375
10
106.586
20
10.000
10
106.586
20
12.000
10
106.586
20
14.000
10
107.768
20
16.000
10
107.768
20
18.000
10
108.000
20
18.267
10
110.000
20
18.267
10
111.112
20
20.000
10
111.112
20
22.000
10
111.112
20
24.000
10
112.000
20
25.238
0
LWPOLYLINE
8
CONTOURS_MINOR
62
1
90
32
70
0
38
118.0
10
75.862
20
0.000
10
76.000
20
0.009
10
78.000
20
0.009
10
80.000
20
0.081
10
82.000
20
0.081
10
84.000
20
0.118
10
86.000
20
0.118
10
88.000
20
0.118
10
90.000
20
0.080
10
92.000
20
0.080
10
94.000
20
1.248
10
96.000
20
1.248
10
96.672
20
2.000
10
96.672
20
4.000
10
98.000
20
5.944
10
100.000
20
5.944
10
100.054
20
6.000
10
100.054
20
8.000
10
101.820
20
10.000
10
101.820
20
12.000
10
101.820
20
14.000
10
102.000
20
14.294
10
104.000
20
14.294
10
106.000
20
14.294
10
107.123
20
16.000
10
107.123
20
18.000
10
108.000
20
19.007
10
110.000
20
19.007
10
110.637
20
20.000
10
110.637
20
22.000
10
110.637
20
24.000
10
112.000
20
25.901
0
LWPOLYLINE
8
CONTOURS_MINOR
62
1
90
9
70
0
38
119.0
10
47.875
20
0.000
10
48.000
20
0.025
10
50.000
20
0.025
10
52.000
20
0.278
10
54.000
20
0.278
10
56.000
20
0.278
10
58.000
20
0.093
10
60.000
20
0.093
10
61.556
20
0.000
0
LWPOLYLINE
8
CONTOURS_MINOR
62
1
90
39
70
0
38
119.0
10
64.255
20
0.000
10
66.000
20
0.223
10
68.000
20
0.223
10
70.000
20
0.364
10
72.000
20
0.364
10
74.000
20
0.364
10
76.000
20
0.446
10
78.000
20
0.446
10
80.000
20
0.468
10
82.000
20
0.468
10
84.000
20
0.464
10
86.000
20
0.464
10
88.000
20
0.464
10
90.000
20
0.429
10
92.000
20
0.429
10
94.000
20
1.855
10
96.000
20
1.855
10
96.130
20
2.000
10
96.130
20
4.000
10
97.635
20
6.000
10
97.635
20
8.000
10
98.000
20
8.628
10
100.000
20
8.628
10
101.219
20
10.000
10
101.219
20
12.000
10
101.219
20
14.000
10
102.000
20
15.275
10
104.000
20
15.275
10
106.000
20
15.275
10
106.477
20
16.000
10
106.477
20
18.000
10
108.000
20
19.748
10
110.000
20
19.748
10
110.162
20
20.000
10
110.162
20
22.000
10
110.162
20
24.000
10
111.596
20
26.000
10
111.596
20
28.000
10
112.000
20
28.791
0
LWPOLYLINE
8
CONTOURS_MAJOR
62
3
90
48
70
0
38
120.0
10
46.313
20
0.000
10
48.000
20
0.336
10
50.000
20
0.336
10
52.000
20
0.612
10
54.000
20
0.612
10
56.000
20
0.612
10
58.000
20
0.534
10
60.000
20
0.534
10
62.000
20
0.542
10
64.000
20
0.542
10
66.000
20
0.768
10
68.000
20
0.768
10
70.000
20
0.863
10
72.000
20
0.863
10
74.000
20
0.863
10
76.000
20
0.884
10
78.000
20
0.884
10
80.000
20
0.855
10
82.000
20
0.855
10
84.000
20
0.810
10
86.000
20
0.810
10
88.000
20
0.810
10
90.000
20
0.778
10
92.000
20
0.778
10
93.643
20
2.000
10
93.643
20
4.000
10
94.000
20
4.388
10
96.000
20
4.388
10
97.242
20
6.000
10
97.242
20
8.000
10
98.000
20
9.304
10
100.000
20
9.304
10
100.619
20
10.000
10
100.619
20
12.000
10
100.619
20
14.000
10
101.889
20
16.000
10
101.889
20
18.000
10
102.000
20
18.149
10
104.000
20
18.149
10
106.000
20
18.149
10
107.661
20
20.000
10
107.661
20
22.000
10
107.661
20
24.000
10
108.000
20
24.437
10
110.000
20
24.437
10
111.121
20
26.000
10
111.121
20
28.000
10
112.000
20
29.721
0
LWPOLYLINE
8
CONTOURS_MINOR
62
1
90
52
70
0
38
121.0
10
43.521
20
0.000
10
44.000
20
0.264
10
46.000
20
0.264
10
48.000
20
0.648
10
50.000
20
0.648
10
52.000
20
0.946
10
54.000
20
0.946
10
56.000
20
0.946
10
58.000
20
0.976
10
60.000
20
0.976
10
62.000
20
1.118
10
64.000
20
1.118
10
66.000
20
1.313
10
68.000
20
1.313
10
70.000
20
1.362
10
72.000
20
1.362
10
74.000
20
1.362
10
76.000
20
1.322
10
78.000
20
1.322
10
80.000
20
1.242
10
82.000
20
1.242
10
84.000
20
1.156
10
86.000
20
1.156
10
88.000
20
1.156
10
90.000
20
1.127
10
92.000
20
1.127
10
93.174
20
2.000
10
93.174
20
4.000
10
94.000
20
4.898
10
96.000
20
4.898
10
96.849
20
6.000
10
96.849
20
8.000
10
98.000
20
9.980
10
100.000
20
9.980
10
100.018
20
10.000
10
100.018
20
12.000
10
100.018
20
14.000
10
101.463
20
16.000
10
101.463
20
18.000
10
102.000
20
18.722
10
104.000
20
18.722
10
106.000
20
18.722
10
107.147
20
20.000
10
107.147
20
22.000
10
107.147
20
24.000
10
108.000
20
25.099
10
110.000
20
25.099
10
110.646
20
26.000
10
110.646
20
28.000
10
111.641
20
30.000
10
111.641
20
32.000
10
112.000
20
32.722
0
LWPOLYLINE
8
CONTOURS_MINOR
62
1
90
52
70
0
38
122.0
10
42.922
20
0.000
10
44.000
20
0.593
10
46.000
20
0.593
10
48.000
20
0.960
10
50.000
20
0.960
10
52.000
20
1.281
10
54.000
20
1.281
10
56.000
20
1.281
10
58.000
20
1.417
10
60.000
20
1.417
10
62.000
20
1.695
10
64.000
20
1.695
10
66.000
20
1.858
10
68.000
20
1.858
10
70.000
20
1.860
10
72.000
20
1.860
10
74.000
20
1.860
10
76.000
20
1.759
10
78.000
20
1.759
10
80.000
20
1.629
10
82.000
20
1.629
10
84.000
20
1.502
10
86.000
20
1.502
10
88.000
20
1.502
10
90.000
20
1.476
10
92.000
20
1.476
10
92.704
20
2.000
10
92.704
20
4.000
10
94.000
20
5.408
10
96.000
20
5.408
10
96.456
20
6.000
10
96.456
20
8.000
10
97.697
20
10.000
10
97.697
20
12.000
10
97.697
20
14.000
10
98.000
20
14.571
10
100.000
20
14.571
10
101.036
20
16.000
10
101.036
20
18.000
10
102.000
20
19.295
10
104.000
20
19.295
10
106.000
20
19.295
10
106.632
20
20.000
10
106.632
20
22.000
10
106.632
20
24.000
10
108.000
20
25.762
10
110.000
20
25.762
10
110.171
20
26.000
10
110.171
20
28.000
10
111.128
20
30.000
10
111.128
20
32.000
10
112.000
20
33.753
0
LWPOLYLINE
8
CONTOURS_MINOR
62
1
90
59
70
0
38
123.0
10
42.323
20
0.000
10
44.000
20
0.923
10
46.000
20
0.923
10
48.000
20
1.271
10
50.000
20
1.271
10
52.000
20
1.615
10
54.000
20
1.615
10
56.000
20
1.615
10
58.000
20
1.859
10
60.000
20
1.859
10
60.810
20
2.000
10
60.810
20
4.000
10
62.000
20
4.180
10
64.000
20
4.180
10
66.000
20
4.227
10
68.000
20
4.227
10
70.000
20
4.194
10
72.000
20
4.194
10
74.000
20
4.194
10
76.000
20
4.112
10
78.000
20
4.112
10
80.000
20
4.010
10
82.000
20
4.010
10
82.167
20
4.000
10
82.167
20
2.000
10
84.000
20
1.848
10
86.000
20
1.848
10
88.000
20
1.848
10
90.000
20
1.825
10
92.000
20
1.825
10
92.235
20
2.000
10
92.235
20
4.000
10
94.000
20
5.918
10
96.000
20
5.918
10
96.063
20
6.000
10
96.063
20
8.000
10
97.384
20
10.000
10
97.384
20
12.000
10
97.384
20
14.000
10
98.000
20
15.159
10
100.000
20
15.159
10
100.610
20
16.000
10
100.610
20
18.000
10
102.000
20
19.868
10
104.000
20
19.868
10
106.000
20
19.868
10
106.118
20
20.000
10
106.118
20
22.000
10
106.118
20
24.000
10
107.658
20
26.000
10
107.658
20
28.000
10
108.000
20
28.696
10
110.000
20
28.696
10
110.615
20
30.000
10
110.615
20
32.000
10
111.633
20
34.000
10
111.633
20
36.000
10
111.633
20
38.000
10
112.000
20
38.620
0
LWPOLYLINE
8
CONTOURS_MINOR
62
1
90
58
70
0
38
124.0
10
37.636
20
0.000
10
38.000
20
0.185
10
40.000
20
0.185
10
42.000
20
0.185
10
44.000
20
1.252
10
46.000
20
1.252
10
48.000
20
1.583
10
50.000
20
1.583
10
52.000
20
1.950
10
54.000
20
1.950
10
56.000
20
1.950
10
56.361
20
2.000
10
56.361
20
4.000
10
58.000
20
4.328
10
60.000
20
4.328
10
62.000
20
4.562
10
64.000
20
4.562
10
66.000
20
4.533
10
68.000
20
4.533
10
70.000
20
4.464
10
72.000
20
4.464
10
74.000
20
4.464
10
76.000
20
4.362
10
78.000
20
4.362
10
80.000
20
4.257
10
82.000
20
4.257
10
84.000
20
4.147
10
86.000
20
4.147
10
88.000
20
4.147
10
90.000
20
4.172
10
92.000
20
4.172
10
93.727
20
6.000
10
93.727
20
8.000
10
94.000
20
8.393
10
96.000
20
8.393
10
97.072
20
10.000
10
97.072
20
12.000
10
97.072
20
14.000
10
98.000
20
15.747
10
100.000
20
15.747
10
100.183
20
16.000
10
100.183
20
18.000
10
101.703
20
20.000
10
101.703
20
22.000
10
101.703
20
24.000
10
102.000
20
24.537
10
104.000
20
24.537
10
106.000
20
24.537
10
107.123
20
26.000
10
107.123
20
28.000
10
108.000
20
29.783
10
110.000
20
29.783
10
110.103
20
30.000
10
110.103
20
32.000
10
111.150
20
34.000
10
111.150
20
36.000
10
111.150
20
38.000
10
112.000
20
39.437
0
LWPOLYLINE
8
CONTOURS_MAJOR
62
3
90
60
70
0
38
125.0
10
36.846
20
0.000
10
38.000
20
0.588
10
40.000
20
0.588
10
42.000
20
0.588
10
44.000
20
1.582
10
46.000
20
1.582
10
48.000
20
1.894
10
50.000
20
1.894
10
50.571
20
2.000
10
50.571
20
4.000
10
52.000
20
4.383
10
54.000
20
4.383
10
56.000
20
4.383
10
58.000
20
4.810
10
60.000
20
4.810
10
62.000
20
4.945
10
64.000
20
4.945
10
66.000
20
4.839
10
68.000
20
4.839
10
70.000
20
4.733
10
72.000
20
4.733
10
74.000
20
4.733
10
76.000
20
4.611
10
78.000
20
4.611
10
80.000
20
4.505
10
82.000
20
4.505
10
84.000
20
4.408
10
86.000
20
4.408
10
88.000
20
4.408
10
90.000
20
4.515
10
92.000
20
4.515
10
93.403
20
6.000
10
93.403
20
8.000
10
94.000
20
8.862
10
96.000
20
8.862
10
96.759
20
10.000
10
96.759
20
12.000
10
96.759
20
14.000
10
97.850
20
16.000
10
97.850
20
18.000
10
98.000
20
18.286
10
100.000
20
18.286
10
101.318
20
20.000
10
101.318
20
22.000
10
101.318
20
24.000
10
102.000
20
25.233
10
104.000
20
25.233
10
106.000
20
25.233
10
106.588
20
26.000
10
106.588
20
28.000
10
107.560
20
30.000
10
107.560
20
32.000
10
108.000
20
32.734
10
110.000
20
32.734
10
110.667
20
34.000
10
110.667
20
36.000
10
110.667
20
38.000
10
111.865
20
40.000
10
111.865
20
42.000
10
112.000
20
42.411
0
LWPOLYLINE
8
CONTOURS_MINOR
62
1
90
60
70
0
38
126.0
10
36.055
20
0.000
10
38.000
20
0.990
10
40.000
20
0.990
10
42.000
20
0.990
10
44.000
20
1.911
10
46.000
20
1.911
10
46.581
20
2.000
10
46.581
20
4.000
10
48.000
20
4.283
10
50.000
20
4.283
10
52.000
20
4.833
10
54.000
20
4.833
10
56.000
20
4.833
10
58.000
20
5.292
10
60.000
20
5.292
10
62.000
20
5.327
10
64.000
20
5.327
10
66.000
20
5.145
10
68.000
20
5.145
10
70.000
20
5.003
10
72.000
20
5.003
10
74.000
20
5.003
10
76.000
20
4.860
10
78.000
20
4.860
10
80.000
20
4.752
10
82.000
20
4.752
10
84.000
20
4.670
10
86.000
20
4.670
10
88.000
20
4.670
10
90.000
20
4.859
10
92.000
20
4.859
10
93.078
20
6.000
10
93.078
20
8.000
10
94.000
20
9.330
10
96.000
20
9.330
10
96.447
20
10.000
10
96.447
20
12.000
10
96.447
20
14.000
10
97.587
20
16.000
10
97.587
20
18.000
10
98.000
20
18.787
10
100.000
20
18.787
10
100.933
20
20.000
10
100.933
20
22.000
10
100.933
20
24.000
10
102.000
20
25.930
10
104.000
20
25.930
10
106.000
20
25.930
10
106.053
20
26.000
10
106.053
20
28.000
10
107.011
20
30.000
10
107.011
20
32.000
10
108.000
20
33.651
10
110.000
20
33.651
10
110.184
20
34.000
10
110.184
20
36.000
10
110.184
20
38.000
10
111.429
20
40.000
10
111.429
20
42.000
10
112.000
20
43.735
0
LWPOLYLINE
8
CONTOURS_MINOR
62
1
90
64
70
0
38
127.0
10
32.873
20
0.000
10
34.000
20
0.357
10
36.000
20
0.357
10
38.000
20
1.392
10
40.000
20
1.392
10
42.000
20
1.392
10
43.348
20
2.000
10
43.348
20
4.000
10
44.000
20
4.269
10
46.000
20
4.269
10
48.000
20
4.711
10
50.000
20
4.711
10
52.000
20
5.284
10
54.000
20
5.284
10
56.000
20
5.284
10
58.000
20
5.773
10
60.000
20
5.773
10
62.000
20
5.709
10
64.000
20
5.709
10
66.000
20
5.452
10
68.000
20
5.452
10
70.000
20
5.272
10
72.000
20
5.272
10
74.000
20
5.272
10
76.000
20
5.110
10
78.000
20
5.110
10
80.000
20
5.000
10
82.000
20
5.000
10
84.000
20
4.932
10
86.000
20
4.932
10
88.000
20
4.932
10
90.000
20
5.203
10
92.000
20
5.203
10
92.753
20
6.000
10
92.753
20
8.000
10
94.000
20
9.799
10
96.000
20
9.799
10
96.134
20
10.000
10
96.134
20
12.000
10
96.134
20
14.000
10
97.325
20
16.000
10
97.325
20
18.000
10
98.000
20
19.288
10
100.000
20
19.288
10
100.547
20
20.000
10
100.547
20
22.000
10
100.547
20
24.000
10
101.673
20
26.000
10
101.673
20
28.000
10
102.000
20
29.034
10
104.000
20
29.034
10
106.000
20
29.034
10
106.462
20
30.000
10
106.462
20
32.000
10
107.575
20
34.000
10
107.575
20
36.000
10
107.575
20
38.000
10
108.000
20
38.428
10
110.000
20
38.428
10
110.993
20
40.000
10
110.993
20
42.000
10
111.655
20
44.000
10
111.655
20
46.000
10
112.000
20
47.250
0
LWPOLYLINE
8
CONTOURS_MINOR
62
1
90
73
70
0
38
128.0
10
29.702
20
0.000
10
30.000
20
0.077
10
32.000
20
0.077
10
34.000
20
0.741
10
36.000
20
0.741
10
38.000
20
1.795
10
40.000
20
1.795
10
42.000
20
1.795
10
42.455
20
2.000
10
42.455
20
4.000
10
44.000
20
4.638
10
46.000
20
4.638
10
48.000
20
5.139
10
50.000
20
5.139
10
52.000
20
5.734
10
54.000
20
5.734
10
56.000
20
5.734
10
57.054
20
6.000
10
57.054
20
8.000
10
58.000
20
8.190
10
60.000
20
8.190
10
62.000
20
8.069
10
64.000
20
8.069
10
64.466
20
8.000
10
64.466
20
6.000
10
66.000
20
5.758
10
68.000
20
5.758
10
70.000
20
5.542
10
72.000
20
5.542
10
74.000
20
5.542
10
76.000
20
5.359
10
78.000
20
5.359
10
80.000
20
5.248
10
82.000
20
5.248
10
84.000
20
5.194
10
86.000
20
5.194
10
88.000
20
5.194
10
90.000
20
5.546
10
92.000
20
5.546
10
92.429
20
6.000
10
92.429
20
8.000
10
93.826
20
10.000
10
93.826
20
12.000
10
93.826
20
14.000
10
94.000
20
14.247
10
96.000
20
14.247
10
97.062
20
16.000
10
97.062
20
18.000
10
98.000
20
19.789
10
100.000
20
19.789
10
100.162
20
20.000
10
100.162
20
22.000
10
100.162
20
24.000
10
101.309
20
26.000
10
101.309
20
28.000
10
101.941
20
30.000
10
101.941
20
32.000
10
102.000
20
32.219
10
104.000
20
32.219
10
106.000
20
32.219
10
106.890
20
34.000
10
106.890
20
36.000
10
106.890
20
38.000
10
108.000
20
39.117
10
110.000
20
39.117
10
110.558
20
40.000
10
110.558
20
42.000
10
111.224
20
44.000
10
111.224
20
46.000
10
111.756
20
48.000
10
111.756
20
50.000
10
111.756
20
52.000
10
112.000
20
52.484
0
LWPOLYLINE
8
CONTOURS_MINOR
62
1
90
73
70
0
38
129.0
10
28.638
20
0.000
10
30.000
20
0.354
10
32.000
20
0.354
10
34.000
20
1.125
10
36.000
20
1.125
10
37.646
20
2.000
10
37.646
20
4.000
10
38.000
20
4.176
10
40.000
20
4.176
10
42.000
20
4.176
10
44.000
20
5.007
10
46.000
20
5.007
10
48.000
20
5.567
10
50.000
20
5.567
10
51.423
20
6.000
10
51.423
20
8.000
10
52.000
20
8.210
10
54.000
20
8.210
10
56.000
20
8.210
10
58.000
20
8.548
10
60.000
20
8.548
10
62.000
20
8.355
10
64.000
20
8.355
10
66.000
20
8.052
10
68.000
20
8.052
10
68.462
20
8.000
10
68.462
20
6.000
10
70.000
20
5.811
10
72.000
20
5.811
10
74.000
20
5.811
10
76.000
20
5.608
10
78.000
20
5.608
10
80.000
20
5.495
10
82.000
20
5.495
10
84.000
20
5.455
10
86.000
20
5.455
10
88.000
20
5.455
10
90.000
20
5.890
10
92.000
20
5.890
10
92.104
20
6.000
10
92.104
20
8.000
10
93.522
20
10.000
10
93.522
20
12.000
10
93.522
20
14.000
10
94.000
20
14.681
10
96.000
20
14.681
10
96.799
20
16.000
10
96.799
20
18.000
10
97.840
20
20.000
10
97.840
20
22.000
10
97.840
20
24.000
10
98.000
20
24.365
10
100.000
20
24.365
10
100.945
20
26.000
10
100.945
20
28.000
10
101.576
20
30.000
10
101.576
20
32.000
10
102.000
20
33.589
10
104.000
20
33.589
10
106.000
20
33.589
10
106.205
20
34.000
10
106.205
20
36.000
10
106.205
20
38.000
10
108.000
20
39.807
10
110.000
20
39.807
10
110.122
20
40.000
10
110.122
20
42.000
10
110.793
20
44.000
10
110.793
20
46.000
10
111.286
20
48.000
10
111.286
20
50.000
10
111.286
20
52.000
10
112.000
20
53.414
0
LWPOLYLINE
8
CONTOURS_MAJOR
62
3
90
77
70
0
38
130.0
10
25.688
20
0.000
10
26.000
20
0.113
10
28.000
20
0.113
10
30.000
20
0.630
10
32.000
20
0.630
10
34.000
20
1.509
10
36.000
20
1.509
10
36.924
20
2.000
10
36.924
20
4.000
10
38.000
20
4.536
10
40.000
20
4.536
10
42.000
20
4.536
10
44.000
20
5.376
10
46.000
20
5.376
10
48.000
20
5.996
10
50.000
20
5.996
10
50.014
20
6.000
10
50.014
20
8.000
10
52.000
20
8.723
10
54.000
20
8.723
10
56.000
20
8.723
10
58.000
20
8.907
10
60.000
20
8.907
10
62.000
20
8.642
10
64.000
20
8.642
10
66.000
20
8.299
10
68.000
20
8.299
10
70.000
20
8.069
10
72.000
20
8.069
10
74.000
20
8.069
10
74.690
20
8.000
10
74.690
20
6.000
10
76.000
20
5.858
10
78.000
20
5.858
10
80.000
20
5.743
10
82.000
20
5.743
10
84.000
20
5.717
10
86.000
20
5.717
10
88.000
20
5.717
10
89.227
20
6.000
10
89.227
20
8.000
10
90.000
20
8.291
10
92.000
20
8.291
10
93.218
20
10.000
10
93.218
20
12.000
10
93.218
20
14.000
10
94.000
20
15.115
10
96.000
20
15.115
10
96.536
20
16.000
10
96.536
20
18.000
10
97.564
20
20.000
10
97.564
20
22.000
10
97.564
20
24.000
10
98.000
20
24.994
10
100.000
20
24.994
10
100.582
20
26.000
10
100.582
20
28.000
10
101.210
20
30.000
10
101.210
20
32.000
10
101.723
20
34.000
10
101.723
20
36.000
10
101.723
20
38.000
10
102.000
20
38.478
10
104.000
20
38.478
10
106.000
20
38.478
10
107.512
20
40.000
10
107.512
20
42.000
10
108.000
20
42.923
10
110.000
20
42.923
10
110.362
20
44.000
10
110.362
20
46.000
10
110.817
20
48.000
10
110.817
20
50.000
10
110.817
20
52.000
10
111.684
20
54.000
10
111.684
20
56.000
10
112.000
20
56.242
0
LWPOLYLINE
8
CONTOURS_MINOR
62
1
90
77
70
0
38
131.0
10
24.906
20
0.000
10
26.000
20
0.394
10
28.000
20
0.394
10
30.000
20
0.906
10
32.000
20
0.906
10
34.000
20
1.893
10
36.000
20
1.893
10
36.202
20
2.000
10
36.202
20
4.000
10
38.000
20
4.896
10
40.000
20
4.896
10
42.000
20
4.896
10
44.000
20
5.745
10
46.000
20
5.745
10
46.821
20
6.000
10
46.821
20
8.000
10
48.000
20
8.579
10
50.000
20
8.579
10
52.000
20
9.236
10
54.000
20
9.236
10
56.000
20
9.236
10
58.000
20
9.265
10
60.000
20
9.265
10
62.000
20
8.928
10
64.000
20
8.928
10
66.000
20
8.546
10
68.000
20
8.546
10
70.000
20
8.299
10
72.000
20
8.299
10
74.000
20
8.299
10
76.000
20
8.104
10
78.000
20
8.104
10
79.830
20
8.000
10
79.830
20
6.000
10
80.000
20
5.990
10
82.000
20
5.990
10
84.000
20
5.979
10
86.000
20
5.979
10
88.000
20
5.979
10
88.091
20
6.000
10
88.091
20
8.000
10
90.000
20
8.718
10
92.000
20
8.718
10
92.913
20
10.000
10
92.913
20
12.000
10
92.913
20
14.000
10
94.000
20
15.549
10
96.000
20
15.549
10
96.273
20
16.000
10
96.273
20
18.000
10
97.288
20
20.000
10
97.288
20
22.000
10
97.288
20
24.000
10
98.000
20
25.623
10
100.000
20
25.623
10
100.218
20
26.000
10
100.218
20
28.000
10
100.845
20
30.000
10
100.845
20
32.000
10
101.328
20
34.000
10
101.328
20
36.000
10
101.328
20
38.000
10
102.000
20
39.160
10
104.000
20
39.160
10
106.000
20
39.160
10
106.834
20
40.000
10
106.834
20
42.000
10
107.925
20
44.000
10
107.925
20
46.000
10
108.000
20
46.356
10
110.000
20
46.356
10
110.347
20
48.000
10
110.347
20
50.000
10
110.347
20
52.000
10
110.829
20
54.000
10
110.829
20
56.000
10
112.000
20
56.895
0
LWPOLYLINE
8
CONTOURS_MINOR
62
1
90
73
70
0
38
132.0
10
24.125
20
0.000
10
26.000
20
0.676
10
28.000
20
0.676
10
30.000
20
1.182
10
32.000
20
1.182
10
33.609
20
2.000
10
33.609
20
4.000
10
34.000
20
4.219
10
36.000
20
4.219
10
38.000
20
5.255
10
40.000
20
5.255
10
42.000
20
5.255
10
43.739
20
6.000
10
43.739
20
8.000
10
44.000
20
8.167
10
46.000
20
8.167
10
48.000
20
9.164
10
50.000
20
9.164
10
52.000
20
9.749
10
54.000
20
9.749
10
56.000
20
9.749
10
58.000
20
9.624
10
60.000
20
9.624
10
62.000
20
9.215
10
64.000
20
9.215
10
66.000
20
8.794
10
68.000
20
8.794
10
70.000
20
8.529
10
72.000
20
8.529
10
74.000
20
8.529
10
76.000
20
8.346
10
78.000
20
8.346
10
80.000
20
8.271
10
82.000
20
8.271
10
84.000
20
8.322
10
86.000
20
8.322
10
88.000
20
8.322
10
90.000
20
9.145
10
92.000
20
9.145
10
92.609
20
10.000
10
92.609
20
12.000
10
92.609
20
14.000
10
94.000
20
15.983
10
96.000
20
15.983
10
96.011
20
16.000
10
96.011
20
18.000
10
97.012
20
20.000
10
97.012
20
22.000
10
97.012
20
24.000
10
97.868
20
26.000
10
97.868
20
28.000
10
98.000
20
28.468
10
100.000
20
28.468
10
100.479
20
30.000
10
100.479
20
32.000
10
100.933
20
34.000
10
100.933
20
36.000
10
100.933
20
38.000
10
102.000
20
39.843
10
104.000
20
39.843
10
106.000
20
39.843
10
106.156
20
40.000
10
106.156
20
42.000
10
107.457
20
44.000
10
107.457
20
46.000
10
107.922
20
48.000
10
107.922
20
50.000
10
107.922
20
52.000
10
107.990
20
54.000
10
107.990
20
56.000
10
108.000
20
56.022
10
110.000
20
56.022
10
112.000
20
57.549
0
LWPOLYLINE
8
CONTOURS_MINOR
62
1
90
85
70
0
38
133.0
10
19.481
20
0.000
10
20.000
20
0.267
10
22.000
20
0.267
10
24.000
20
0.267
10
26.000
20
0.958
10
28.000
20
0.958
10
30.000
20
1.459
10
32.000
20
1.459
10
33.065
20
2.000
10
33.065
20
4.000
10
34.000
20
4.522
10
36.000
20
4.522
10
38.000
20
5.615
10
40.000
20
5.615
10
42.000
20
5.615
10
42.899
20
6.000
10
42.899
20
8.000
10
44.000
20
8.706
10
46.000
20
8.706
10
48.000
20
9.749
10
50.000
20
9.749
10
50.915
20
10.000
10
50.915
20
12.000
10
50.915
20
14.000
10
52.000
20
14.178
10
54.000
20
14.178
10
56.000
20
14.178
10
57.821
20
14.000
10
57.821
20
12.000
10
57.821
20
10.000
10
58.000
20
9.982
10
60.000
20
9.982
10
62.000
20
9.501
10
64.000
20
9.501
10
66.000
20
9.041
10
68.000
20
9.041
10
70.000
20
8.759
10
72.000
20
8.759
10
74.000
20
8.759
10
76.000
20
8.588
10
78.000
20
8.588
10
80.000
20
8.554
10
82.000
20
8.554
10
84.000
20
8.673
10
86.000
20
8.673
10
88.000
20
8.673
10
90.000
20
9.573
10
92.000
20
9.573
10
92.304
20
10.000
10
92.304
20
12.000
10
92.304
20
14.000
10
93.674
20
16.000
10
93.674
20
18.000
10
94.000
20
18.529
10
96.000
20
18.529
10
96.737
20
20.000
10
96.737
20
22.000
10
96.737
20
24.000
10
97.537
20
26.000
10
97.537
20
28.000
10
98.000
20
29.637
10
100.000
20
29.637
10
100.113
20
30.000
10
100.113
20
32.000
10
100.538
20
34.000
10
100.538
20
36.000
10
100.538
20
38.000
10
101.757
20
40.000
10
101.757
20
42.000
10
102.000
20
42.535
10
104.000
20
42.535
10
106.000
20
42.535
10
106.988
20
44.000
10
106.988
20
46.000
10
107.622
20
48.000
10
107.622
20
50.000
10
107.622
20
52.000
10
107.666
20
54.000
10
107.666
20
56.000
10
108.000
20
56.738
10
110.000
20
56.738
10
111.700
20
58.000
10
111.700
20
60.000
10
111.700
20
62.000
10
112.000
20
62.221
0
LWPOLYLINE
8
CONTOURS_MINOR
62
1
90
85
70
0
38
134.0
10
18.864
20
0.000
10
20.000
20
0.585
10
22.000
20
0.585
10
24.000
20
0.585
10
26.000
20
1.239
10
28.000
20
1.239
10
30.000
20
1.735
10
32.000
20
1.735
10
32.522
20
2.000
10
32.522
20
4.000
10
34.000
20
4.825
10
36.000
20
4.825
10
38.000
20
5.975
10
40.000
20
5.975
10
42.000
20
5.975
10
42.059
20
6.000
10
42.059
20
8.000
10
44.000
20
9.245
10
46.000
20
9.245
10
47.421
20
10.000
10
47.421
20
12.000
10
47.421
20
14.000
10
48.000
20
14.205
10
50.000
20
14.205
10
52.000
20
14.527
10
54.000
20
14.527
10
56.000
20
14.527
10
58.000
20
14.293
10
60.000
20
14.293
10
61.124
20
14.000
10
61.124
20
12.000
10
61.124
20
10.000
10
62.000
20
9.788
10
64.000
20
9.788
10
66.000
20
9.288
10
68.000
20
9.288
10
70.000
20
8.989
10
72.000
20
8.989
10
74.000
20
8.989
10
76.000
20
8.831
10
78.000
20
8.831
10
80.000
20
8.836
10
82.000
20
8.836
10
84.000
20
9.023
10
86.000
20
9.023
10
88.000
20
9.023
10
90.000
20
10.000
10
92.000
20
10.000
10
92.000
20
10.000
10
92.000
20
12.000
10
92.000
20
14.000
10
93.334
20
16.000
10
93.334
20
18.000
10
94.000
20
19.080
10
96.000
20
19.080
10
96.461
20
20.000
10
96.461
20
22.000
10
96.461
20
24.000
10
97.207
20
26.000
10
97.207
20
28.000
10
97.789
20
30.000
10
97.789
20
32.000
10
98.000
20
33.314
10
100.000
20
33.314
10
100.142
20
34.000
10
100.142
20
36.000
10
100.142
20
38.000
10
101.441
20
40.000
10
101.441
20
42.000
10
102.000
20
43.229
10
104.000
20
43.229
10
106.000
20
43.229
10
106.520
20
44.000
10
106.520
20
46.000
10
107.322
20
48.000
10
107.322
20
50.000
10
107.322
20
52.000
10
107.341
20
54.000
10
107.341
20
56.000
10
108.000
20
57.455
10
110.000
20
57.455
10
110.734
20
58.000
10
110.734
20
60.000
10
110.734
20
62.000
10
112.000
20
62.932
0
LWPOLYLINE
8
CONTOURS_MAJOR
62
3
90
85
70
0
38
135.0
10
18.247
20
0.000
10
20.000
20
0.903
10
22.000
20
0.903
10
24.000
20
0.903
10
26.000
20
1.521
10
28.000
20
1.521
10
29.954
20
2.000
10
29.954
20
4.000
10
30.000
20
4.013
10
32.000
20
4.013
10
34.000
20
5.129
10
36.000
20
5.129
10
37.511
20
6.000
10
37.511
20
8.000
10
38.000
20
8.434
10
40.000
20
8.434
10
42.000
20
8.434
10
44.000
20
9.784
10
46.000
20
9.784
10
46.406
20
10.000
10
46.406
20
12.000
10
46.406
20
14.000
10
48.000
20
14.566
10
50.000
20
14.566
10
52.000
20
14.876
10
54.000
20
14.876
10
56.000
20
14.876
10
58.000
20
14.601
10
60.000
20
14.601
10
62.000
20
14.078
10
64.000
20
14.078
10
64.243
20
14.000
10
64.243
20
12.000
10
64.243
20
10.000
10
66.000
20
9.535
10
68.000
20
9.535
10
70.000
20
9.218
10
72.000
20
9.218
10
74.000
20
9.218
10
76.000
20
9.073
10
78.000
20
9.073
10
80.000
20
9.119
10
82.000
20
9.119
10
84.000
20
9.373
10
86.000
20
9.373
10
88.000
20
9.373
10
89.283
20
10.000
10
89.283
20
12.000
10
89.283
20
14.000
10
90.000
20
14.509
10
92.000
20
14.509
10
92.995
20
16.000
10
92.995
20
18.000
10
94.000
20
19.631
10
96.000
20
19.631
10
96.185
20
20.000
10
96.185
20
22.000
10
96.185
20
24.000
10
96.876
20
26.000
10
96.876
20
28.000
10
97.484
20
30.000
10
97.484
20
32.000
10
97.815
20
34.000
10
97.815
20
36.000
10
97.815
20
38.000
10
98.000
20
38.305
10
100.000
20
38.305
10
101.125
20
40.000
10
101.125
20
42.000
10
102.000
20
43.924
10
104.000
20
43.924
10
106.000
20
43.924
10
106.052
20
44.000
10
106.052
20
46.000
10
107.022
20
48.000
10
107.022
20
50.000
10
107.022
20
52.000
10
107.016
20
54.000
10
107.016
20
56.000
10
107.889
20
58.000
10
107.889
20
60.000
10
107.889
20
62.000
10
108.000
20
62.138
10
110.000
20
62.138
10
112.000
20
63.644
0
LWPOLYLINE
8
CONTOURS_MINOR
62
1
90
89
70
0
38
136.0
10
15.707
20
0.000
10
16.000
20
0.198
10
18.000
20
0.198
10
20.000
20
1.221
10
22.000
20
1.221
10
24.000
20
1.221
10
26.000
20
1.803
10
28.000
20
1.803
10
28.805
20
2.000
10
28.805
20
4.000
10
30.000
20
4.330
10
32.000
20
4.330
10
34.000
20
5.432
10
36.000
20
5.432
10
36.984
20
6.000
10
36.984
20
8.000
10
38.000
20
8.900
10
40.000
20
8.900
10
42.000
20
8.900
10
43.595
20
10.000
10
43.595
20
12.000
10
43.595
20
14.000
10
44.000
20
14.236
10
46.000
20
14.236
10
48.000
20
14.926
10
50.000
20
14.926
10
52.000
20
15.225
10
54.000
20
15.225
10
56.000
20
15.225
10
58.000
20
14.909
10
60.000
20
14.909
10
62.000
20
14.377
10
64.000
20
14.377
10
65.178
20
14.000
10
65.178
20
12.000
10
65.178
20
10.000
10
66.000
20
9.782
10
68.000
20
9.782
10
70.000
20
9.448
10
72.000
20
9.448
10
74.000
20
9.448
10
76.000
20
9.315
10
78.000
20
9.315
10
80.000
20
9.401
10
82.000
20
9.401
10
84.000
20
9.723
10
86.000
20
9.723
10
88.000
20
9.723
10
88.566
20
10.000
10
88.566
20
12.000
10
88.566
20
14.000
10
90.000
20
15.018
10
92.000
20
15.018
10
92.655
20
16.000
10
92.655
20
18.000
10
93.877
20
20.000
10
93.877
20
22.000
10
93.877
20
24.000
10
94.000
20
24.333
10
96.000
20
24.333
10
96.545
20
26.000
10
96.545
20
28.000
10
97.179
20
30.000
10
97.179
20
32.000
10
97.525
20
34.000
10
97.525
20
36.000
10
97.525
20
38.000
10
98.000
20
38.781
10
100.000
20
38.781
10
100.809
20
40.000
10
100.809
20
42.000
10
101.816
20
44.000
10
101.816
20
46.000
10
102.000
20
46.539
10
104.000
20
46.539
10
106.000
20
46.539
10
106.723
20
48.000
10
106.723
20
50.000
10
106.723
20
52.000
10
106.692
20
54.000
10
106.692
20
56.000
10
107.425
20
58.000
10
107.425
20
60.000
10
107.425
20
62.000
10
108.000
20
62.711
10
110.000
20
62.711
10
111.636
20
64.000
10
111.636
20
66.000
10
112.000
20
66.372
0
LWPOLYLINE
8
CONTOURS_MINOR
62
1
90
89
70
0
38
137.0
10
15.218
20
0.000
10
16.000
20
0.528
10
18.000
20
0.528
10
20.000
20
1.539
10
22.000
20
1.539
10
24.000
20
1.539
10
25.657
20
2.000
10
25.657
20
4.000
10
26.000
20
4.092
10
28.000
20
4.092
10
30.000
20
4.648
10
32.000
20
4.648
10
34.000
20
5.736
10
36.000
20
5.736
10
36.458
20
6.000
10
36.458
20
8.000
10
38.000
20
9.366
10
40.000
20
9.366
10
42.000
20
9.366
10
42.919
20
10.000
10
42.919
20
12.000
10
42.919
20
14.000
10
44.000
20
14.629
10
46.000
20
14.629
10
48.000
20
15.286
10
50.000
20
15.286
10
52.000
20
15.574
10
54.000
20
15.574
10
56.000
20
15.574
10
58.000
20
15.217
10
60.000
20
15.217
10
62.000
20
14.676
10
64.000
20
14.676
10
66.000
20
14.037
10
68.000
20
14.037
10
68.158
20
14.000
10
68.158
20
12.000
10
68.158
20
10.000
10
70.000
20
9.678
10
72.000
20
9.678
10
74.000
20
9.678
10
76.000
20
9.557
10
78.000
20
9.557
10
80.000
20
9.684
10
82.000
20
9.684
10
83.684
20
10.000
10
83.684
20
12.000
10
83.684
20
14.000
10
84.000
20
14.120
10
86.000
20
14.120
10
88.000
20
14.120
10
90.000
20
15.527
10
92.000
20
15.527
10
92.316
20
16.000
10
92.316
20
18.000
10
93.504
20
20.000
10
93.504
20
22.000
10
93.504
20
24.000
10
94.000
20
25.343
10
96.000
20
25.343
10
96.215
20
26.000
10
96.215
20
28.000
10
96.873
20
30.000
10
96.873
20
32.000
10
97.236
20
34.000
10
97.236
20
36.000
10
97.236
20
38.000
10
98.000
20
39.257
10
100.000
20
39.257
10
100.493
20
40.000
10
100.493
20
42.000
10
101.609
20
44.000
10
101.609
20
46.000
10
102.000
20
47.145
10
104.000
20
47.145
10
106.000
20
47.145
10
106.423
20
48.000
10
106.423
20
50.000
10
106.423
20
52.000
10
106.367
20
54.000
10
106.367
20
56.000
10
106.961
20
58.000
10
106.961
20
60.000
10
106.961
20
62.000
10
108.000
20
63.284
10
110.000
20
63.284
10
110.909
20
64.000
10
110.909
20
66.000
10
112.000
20
67.115
0
LWPOLYLINE
8
CONTOURS_MINOR
62
1
90
89
70
0
38
138.0
10
14.729
20
0.000
10
16.000
20
0.858
10
18.000
20
0.858
10
20.000
20
1.857
10
22.000
20
1.857
10
24.000
20
1.857
10
24.514
20
2.000
10
24.514
20
4.000
10
26.000
20
4.399
10
28.000
20
4.399
10
30.000
20
4.965
10
32.000
20
4.965
10
33.923
20
6.000
10
33.923
20
8.000
10
34.000
20
8.050
10
36.000
20
8.050
10
38.000
20
9.832
10
40.000
20
9.832
10
42.000
20
9.832
10
42.243
20
10.000
10
42.243
20
12.000
10
42.243
20
14.000
10
44.000
20
15.022
10
46.000
20
15.022
10
48.000
20
15.647
10
50.000
20
15.647
10
52.000
20
15.923
10
54.000
20
15.923
10
56.000
20
15.923
10
58.000
20
15.525
10
60.000
20
15.525
10
62.000
20
14.975
10
64.000
20
14.975
10
66.000
20
14.341
10
68.000
20
14.341
10
69.474
20
14.000
10
69.474
20
12.000
10
69.474
20
10.000
10
70.000
20
9.908
10
72.000
20
9.908
10
74.000
20
9.908
10
76.000
20
9.799
10
78.000
20
9.799
10
80.000
20
9.966
10
82.000
20
9.966
10
82.180
20
10.000
10
82.180
20
12.000
10
82.180
20
14.000
10
84.000
20
14.693
10
86.000
20
14.693
10
88.000
20
14.693
10
89.940
20
16.000
10
89.940
20
18.000
10
90.000
20
18.045
10
92.000
20
18.045
10
93.131
20
20.000
10
93.131
20
22.000
10
93.131
20
24.000
10
93.878
20
26.000
10
93.878
20
28.000
10
94.000
20
28.317
10
96.000
20
28.317
10
96.568
20
30.000
10
96.568
20
32.000
10
96.946
20
34.000
10
96.946
20
36.000
10
96.946
20
38.000
10
98.000
20
39.733
10
100.000
20
39.733
10
100.177
20
40.000
10
100.177
20
42.000
10
101.402
20
44.000
10
101.402
20
46.000
10
102.000
20
47.752
10
104.000
20
47.752
10
106.000
20
47.752
10
106.123
20
48.000
10
106.123
20
50.000
10
106.123
20
52.000
10
106.042
20
54.000
10
106.042
20
56.000
10
106.497
20
58.000
10
106.497
20
60.000
10
106.497
20
62.000
10
108.000
20
63.857
10
110.000
20
63.857
10
110.182
20
64.000
10
110.182
20
66.000
10
112.000
20
67.859
0
LWPOLYLINE
8
CONTOURS_MINOR
62
1
90
89
70
0
38
139.0
10
14.240
20
0.000
10
16.000
20
1.188
10
18.000
20
1.188
10
19.635
20
2.000
10
19.635
20
4.000
10
20.000
20
4.175
10
22.000
20
4.175
10
24.000
20
4.175
10
26.000
20
4.707
10
28.000
20
4.707
10
30.000
20
5.283
10
32.000
20
5.283
10
33.333
20
6.000
10
33.333
20
8.000
10
34.000
20
8.431
10
36.000
20
8.431
10
37.731
20
10.000
10
37.731
20
12.000
10
37.731
20
14.000
10
38.000
20
14.313
10
40.000
20
14.313
10
42.000
20
14.313
10
44.000
20
15.415
10
46.000
20
15.415
10
47.974
20
16.000
10
47.974
20
18.000
10
48.000
20
18.006
10
50.000
20
18.006
10
52.000
20
18.226
10
54.000
20
18.226
10
56.000
20
18.226
10
57.182
20
18.000
10
57.182
20
16.000
10
58.000
20
15.834
10
60.000
20
15.834
10
62.000
20
15.274
10
64.000
20
15.274
10
66.000
20
14.645
10
68.000
20
14.645
10
70.000
20
14.191
10
72.000
20
14.191
10
74.000
20
14.191
10
76.000
20
14.066
10
78.000
20
14.066
10
80.000
20
14.443
10
82.000
20
14.443
10
84.000
20
15.266
10
86.000
20
15.266
10
88.000
20
15.266
10
89.089
20
16.000
10
89.089
20
18.000
10
90.000
20
18.690
10
92.000
20
18.690
10
92.757
20
20.000
10
92.757
20
22.000
10
92.757
20
24.000
10
93.531
20
26.000
10
93.531
20
28.000
10
94.000
20
29.222
10
96.000
20
29.222
10
96.263
20
30.000
10
96.263
20
32.000
10
96.657
20
34.000
10
96.657
20
36.000
10
96.657
20
38.000
10
97.876
20
40.000
10
97.876
20
42.000
10
98.000
20
42.142
10
100.000
20
42.142
10
101.195
20
44.000
10
101.195
20
46.000
10
101.866
20
48.000
10
101.866
20
50.000
10
101.866
20
52.000
10
101.792
20
54.000
10
101.792
20
56.000
10
102.000
20
57.851
10
104.000
20
57.851
10
106.000
20
57.851
10
106.032
20
58.000
10
106.032
20
60.000
10
106.032
20
62.000
10
107.693
20
64.000
10
107.693
20
66.000
10
108.000
20
66.273
10
110.000
20
66.273
10
111.708
20
68.000
10
111.708
20
70.000
10
112.000
20
70.544
0
LWPOLYLINE
8
CONTOURS_MAJOR
62
3
90
91
70
0
38
140.0
10
11.788
20
0.000
10
12.000
20
0.177
10
14.000
20
0.177
10
16.000
20
1.518
10
18.000
20
1.518
10
18.970
20
2.000
10
18.970
20
4.000
10
20.000
20
4.494
10
22.000
20
4.494
10
24.000
20
4.494
10
26.000
20
5.014
10
28.000
20
5.014
10
30.000
20
5.600
10
32.000
20
5.600
10
32.743
20
6.000
10
32.743
20
8.000
10
34.000
20
8.813
10
36.000
20
8.813
10
37.309
20
10.000
10
37.309
20
12.000
10
37.309
20
14.000
10
38.000
20
14.802
10
40.000
20
14.802
10
42.000
20
14.802
10
44.000
20
15.807
10
46.000
20
15.807
10
46.649
20
16.000
10
46.649
20
18.000
10
48.000
20
18.312
10
50.000
20
18.312
10
52.000
20
18.515
10
54.000
20
18.515
10
56.000
20
18.515
10
58.000
20
18.141
10
60.000
20
18.141
10
60.487
20
18.000
10
60.487
20
16.000
10
62.000
20
15.572
10
64.000
20
15.572
10
66.000
20
14.950
10
68.000
20
14.950
10
70.000
20
14.510
10
72.000
20
14.510
10
74.000
20
14.510
10
76.000
20
14.455
10
78.000
20
14.455
10
80.000
20
14.947
10
82.000
20
14.947
10
84.000
20
15.840
10
86.000
20
15.840
10
88.000
20
15.840
10
88.238
20
16.000
10
88.238
20
18.000
10
90.000
20
19.335
10
92.000
20
19.335
10
92.384
20
20.000
10
92.384
20
22.000
10
92.384
20
24.000
10
93.184
20
26.000
10
93.184
20
28.000
10
93.953
20
30.000
10
93.953
20
32.000
10
94.000
20
32.199
10
96.000
20
32.199
10
96.368
20
34.000
10
96.368
20
36.000
10
96.368
20
38.000
10
97.594
20
40.000
10
97.594
20
42.000
10
98.000
20
42.464
10
100.000
20
42.464
10
100.988
20
44.000
10
100.988
20
46.000
10
101.638
20
48.000
10
101.638
20
50.000
10
101.638
20
52.000
10
101.554
20
54.000
10
101.554
20
56.000
10
101.735
20
58.000
10
101.735
20
60.000
10
101.735
20
62.000
10
102.000
20
62.458
10
104.000
20
62.458
10
106.000
20
62.458
10
107.283
20
64.000
10
107.283
20
66.000
10
108.000
20
66.638
10
110.000
20
66.638
10
111.348
20
68.000
10
111.348
20
70.000
10
112.000
20
71.215
0
LWPOLYLINE
8
CONTOURS_MINOR
62
1
90
91
70
0
38
141.0
10
11.371
20
0.000
10
12.000
20
0.525
10
14.000
20
0.525
10
16.000
20
1.848
10
18.000
20
1.848
10
18.306
20
2.000
10
18.306
20
4.000
10
20.000
20
4.813
10
22.000
20
4.813
10
24.000
20
4.813
10
26.000
20
5.321
10
28.000
20
5.321
10
30.000
20
5.917
10
32.000
20
5.917
10
32.153
20
6.000
10
32.153
20
8.000
10
34.000
20
9.195
10
36.000
20
9.195
10
36.888
20
10.000
10
36.888
20
12.000
10
36.888
20
14.000
10
38.000
20
15.291
10
40.000
20
15.291
10
42.000
20
15.291
10
43.480
20
16.000
10
43.480
20
18.000
10
44.000
20
18.184
10
46.000
20
18.184
10
48.000
20
18.619
10
50.000
20
18.619
10
52.000
20
18.805
10
54.000
20
18.805
10
56.000
20
18.805
10
58.000
20
18.446
10
60.000
20
18.446
10
61.545
20
18.000
10
61.545
20
16.000
10
62.000
20
15.871
10
64.000
20
15.871
10
66.000
20
15.254
10
68.000
20
15.254
10
70.000
20
14.828
10
72.000
20
14.828
10
74.000
20
14.828
10
76.000
20
14.844
10
78.000
20
14.844
10
80.000
20
15.451
10
82.000
20
15.451
10
83.204
20
16.000
10
83.204
20
18.000
10
84.000
20
18.503
10
86.000
20
18.503
10
88.000
20
18.503
10
90.000
20
19.981
10
92.000
20
19.981
10
92.011
20
20.000
10
92.011
20
22.000
10
92.011
20
24.000
10
92.837
20
26.000
10
92.837
20
28.000
10
93.614
20
30.000
10
93.614
20
32.000
10
94.000
20
33.617
10
96.000
20
33.617
10
96.078
20
34.000
10
96.078
20
36.000
10
96.078
20
38.000
10
97.313
20
40.000
10
97.313
20
42.000
10
98.000
20
42.786
10
100.000
20
42.786
10
100.781
20
44.000
10
100.781
20
46.000
10
101.411
20
48.000
10
101.411
20
50.000
10
101.411
20
52.000
10
101.315
20
54.000
10
101.315
20
56.000
10
101.449
20
58.000
10
101.449
20
60.000
10
101.449
20
62.000
10
102.000
20
62.951
10
104.000
20
62.951
10
106.000
20
62.951
10
106.873
20
64.000
10
106.873
20
66.000
10
108.000
20
67.002
10
110.000
20
67.002
10
110.987
20
68.000
10
110.987
20
70.000
10
112.000
20
71.886
0
LWPOLYLINE
8
CONTOURS_MINOR
62
1
90
94
70
0
38
142.0
10
10.954
20
0.000
10
12.000
20
0.873
10
14.000
20
0.873
10
15.714
20
2.000
10
15.714
20
4.000
10
16.000
20
4.205
10
18.000
20
4.205
10
20.000
20
5.132
10
22.000
20
5.132
10
24.000
20
5.132
10
26.000
20
5.628
10
28.000
20
5.628
10
29.241
20
6.000
10
29.241
20
8.000
10
30.000
20
8.240
10
32.000
20
8.240
10
34.000
20
9.576
10
36.000
20
9.576
10
36.467
20
10.000
10
36.467
20
12.000
10
36.467
20
14.000
10
38.000
20
15.780
10
40.000
20
15.780
10
42.000
20
15.780
10
42.459
20
16.000
10
42.459
20
18.000
10
44.000
20
18.544
10
46.000
20
18.544
10
48.000
20
18.925
10
50.000
20
18.925
10
52.000
20
19.094
10
54.000
20
19.094
10
56.000
20
19.094
10
58.000
20
18.752
10
60.000
20
18.752
10
62.000
20
18.207
10
64.000
20
18.207
10
64.564
20
18.000
10
64.564
20
16.000
10
66.000
20
15.559
10
68.000
20
15.559
10
70.000
20
15.146
10
72.000
20
15.146
10
74.000
20
15.146
10
76.000
20
15.233
10
78.000
20
15.233
10
80.000
20
15.955
10
82.000
20
15.955
10
82.099
20
16.000
10
82.099
20
18.000
10
84.000
20
19.203
10
86.000
20
19.203
10
88.000
20
19.203
10
89.081
20
20.000
10
89.081
20
22.000
10
89.081
20
24.000
10
90.000
20
24.815
10
92.000
20
24.815
10
92.490
20
26.000
10
92.490
20
28.000
10
93.275
20
30.000
10
93.275
20
32.000
10
93.773
20
34.000
10
93.773
20
36.000
10
93.773
20
38.000
10
94.000
20
38.333
10
96.000
20
38.333
10
97.031
20
40.000
10
97.031
20
42.000
10
98.000
20
43.108
10
100.000
20
43.108
10
100.573
20
44.000
10
100.573
20
46.000
10
101.183
20
48.000
10
101.183
20
50.000
10
101.183
20
52.000
10
101.076
20
54.000
10
101.076
20
56.000
10
101.164
20
58.000
10
101.164
20
60.000
10
101.164
20
62.000
10
102.000
20
63.443
10
104.000
20
63.443
10
106.000
20
63.443
10
106.463
20
64.000
10
106.463
20
66.000
10
108.000
20
67.366
10
110.000
20
67.366
10
110.627
20
68.000
10
110.627
20
70.000
10
111.775
20
72.000
10
111.775
20
74.000
10
111.775
20
76.000
10
112.000
20
76.410
0
LWPOLYLINE
8
CONTOURS_MINOR
62
1
90
94
70
0
38
143.0
10
10.538
20
0.000
10
12.000
20
1.221
10
14.000
20
1.221
10
15.185
20
2.000
10
15.185
20
4.000
10
16.000
20
4.586
10
18.000
20
4.586
10
20.000
20
5.451
10
22.000
20
5.451
10
24.000
20
5.451
10
26.000
20
5.935
10
28.000
20
5.935
10
28.215
20
6.000
10
28.215
20
8.000
10
30.000
20
8.565
10
32.000
20
8.565
10
34.000
20
9.958
10
36.000
20
9.958
10
36.046
20
10.000
10
36.046
20
12.000
10
36.046
20
14.000
10
37.706
20
16.000
10
37.706
20
18.000
10
38.000
20
18.249
10
40.000
20
18.249
10
42.000
20
18.249
10
44.000
20
18.905
10
46.000
20
18.905
10
48.000
20
19.231
10
50.000
20
19.231
10
52.000
20
19.384
10
54.000
20
19.384
10
56.000
20
19.384
10
58.000
20
19.058
10
60.000
20
19.058
10
62.000
20
18.570
10
64.000
20
18.570
10
65.554
20
18.000
10
65.554
20
16.000
10
66.000
20
15.863
10
68.000
20
15.863
10
70.000
20
15.465
10
72.000
20
15.465
10
74.000
20
15.465
10
76.000
20
15.623
10
78.000
20
15.623
10
79.032
20
16.000
10
79.032
20
18.000
10
80.000
20
18.714
10
82.000
20
18.714
10
84.000
20
19.902
10
86.000
20
19.902
10
88.000
20
19.902
10
88.133
20
20.000
10
88.133
20
22.000
10
88.133
20
24.000
10
90.000
20
25.655
10
92.000
20
25.655
10
92.142
20
26.000
10
92.142
20
28.000
10
92.936
20
30.000
10
92.936
20
32.000
10
93.461
20
34.000
10
93.461
20
36.000
10
93.461
20
38.000
10
94.000
20
38.788
10
96.000
20
38.788
10
96.749
20
40.000
10
96.749
20
42.000
10
98.000
20
43.430
10
100.000
20
43.430
10
100.366
20
44.000
10
100.366
20
46.000
10
100.956
20
48.000
10
100.956
20
50.000
10
100.956
20
52.000
10
100.838
20
54.000
10
100.838
20
56.000
10
100.879
20
58.000
10
100.879
20
60.000
10
100.879
20
62.000
10
102.000
20
63.936
10
104.000
20
63.936
10
106.000
20
63.936
10
106.053
20
64.000
10
106.053
20
66.000
10
108.000
20
67.730
10
110.000
20
67.730
10
110.267
20
68.000
10
110.267
20
70.000
10
111.504
20
72.000
10
111.504
20
74.000
10
111.504
20
76.000
10
112.000
20
76.904
0
LWPOLYLINE
8
CONTOURS_MINOR
62
1
90
94
70
0
38
144.0
10
10.121
20
0.000
10
12.000
20
1.569
10
14.000
20
1.569
10
14.656
20
2.000
10
14.656
20
4.000
10
16.000
20
4.966
10
18.000
20
4.966
10
20.000
20
5.770
10
22.000
20
5.770
10
24.000
20
5.770
10
24.954
20
6.000
10
24.954
20
8.000
10
26.000
20
8.312
10
28.000
20
8.312
10
30.000
20
8.890
10
32.000
20
8.890
10
33.587
20
10.000
10
33.587
20
12.000
10
33.587
20
14.000
10
34.000
20
14.578
10
36.000
20
14.578
10
37.171
20
16.000
10
37.171
20
18.000
10
38.000
20
18.703
10
40.000
20
18.703
10
42.000
20
18.703
10
44.000
20
19.265
10
46.000
20
19.265
10
48.000
20
19.538
10
50.000
20
19.538
10
52.000
20
19.673
10
54.000
20
19.673
10
56.000
20
19.673
10
58.000
20
19.364
10
60.000
20
19.364
10
62.000
20
18.933
10
64.000
20
18.933
10
66.000
20
18.284
10
68.000
20
18.284
10
68.894
20
18.000
10
68.894
20
16.000
10
70.000
20
15.783
10
72.000
20
15.783
10
74.000
20
15.783
10
75.915
20
16.000
10
75.915
20
18.000
10
76.000
20
18.030
10
78.000
20
18.030
10
80.000
20
19.498
10
82.000
20
19.498
10
82.853
20
20.000
10
82.853
20
22.000
10
82.853
20
24.000
10
84.000
20
24.642
10
86.000
20
24.642
10
88.000
20
24.642
10
89.510
20
26.000
10
89.510
20
28.000
10
90.000
20
28.502
10
92.000
20
28.502
10
92.597
20
30.000
10
92.597
20
32.000
10
93.150
20
34.000
10
93.150
20
36.000
10
93.150
20
38.000
10
94.000
20
39.244
10
96.000
20
39.244
10
96.468
20
40.000
10
96.468
20
42.000
10
98.000
20
43.752
10
100.000
20
43.752
10
100.159
20
44.000
10
100.159
20
46.000
10
100.728
20
48.000
10
100.728
20
50.000
10
100.728
20
52.000
10
100.599
20
54.000
10
100.599
20
56.000
10
100.593
20
58.000
10
100.593
20
60.000
10
100.593
20
62.000
10
101.733
20
64.000
10
101.733
20
66.000
10
102.000
20
66.254
10
104.000
20
66.254
10
106.000
20
66.254
10
107.917
20
68.000
10
107.917
20
70.000
10
108.000
20
70.108
10
110.000
20
70.108
10
111.233
20
72.000
10
111.233
20
74.000
10
111.233
20
76.000
10
112.000
20
77.398
0
LWPOLYLINE
8
CONTOURS_MAJOR
62
3
90
93
70
0
38
145.0
10
5.507
20
0.000
10
6.000
20
0.421
10
8.000
20
0.421
10
10.000
20
0.421
10
12.000
20
1.917
10
14.000
20
1.917
10
14.127
20
2.000
10
14.127
20
4.000
10
16.000
20
5.346
10
18.000
20
5.346
10
19.720
20
6.000
10
19.720
20
8.000
10
20.000
20
8.149
10
22.000
20
8.149
10
24.000
20
8.149
10
26.000
20
8.708
10
28.000
20
8.708
10
30.000
20
9.214
10
32.000
20
9.214
10
33.123
20
10.000
10
33.123
20
12.000
10
33.123
20
14.000
10
34.000
20
15.227
10
36.000
20
15.227
10
36.636
20
16.000
10
36.636
20
18.000
10
38.000
20
19.156
10
40.000
20
19.156
10
42.000
20
19.156
10
44.000
20
19.625
10
46.000
20
19.625
10
48.000
20
19.844
10
50.000
20
19.844
10
52.000
20
19.962
10
54.000
20
19.962
10
56.000
20
19.962
10
58.000
20
19.670
10
60.000
20
19.670
10
62.000
20
19.296
10
64.000
20
19.296
10
66.000
20
18.799
10
68.000
20
18.799
10
70.000
20
18.269
10
72.000
20
18.269
10
74.000
20
18.269
10
76.000
20
19.015
10
78.000
20
19.015
10
79.471
20
20.000
10
79.471
20
22.000
10
79.471
20
24.000
10
80.000
20
24.365
10
82.000
20
24.365
10
84.000
20
25.388
10
86.000
20
25.388
10
88.000
20
25.388
10
88.680
20
26.000
10
88.680
20
28.000
10
90.000
20
29.353
10
92.000
20
29.353
10
92.258
20
30.000
10
92.258
20
32.000
10
92.838
20
34.000
10
92.838
20
36.000
10
92.838
20
38.000
10
94.000
20
39.699
10
96.000
20
39.699
10
96.186
20
40.000
10
96.186
20
42.000
10
97.941
20
44.000
10
97.941
20
46.000
10
98.000
20
46.189
10
100.000
20
46.189
10
100.501
20
48.000
10
100.501
20
50.000
10
100.501
20
52.000
10
100.360
20
54.000
10
100.360
20
56.000
10
100.308
20
58.000
10
100.308
20
60.000
10
100.308
20
62.000
10
101.425
20
64.000
10
101.425
20
66.000
10
102.000
20
66.546
10
104.000
20
66.546
10
106.000
20
66.546
10
107.596
20
68.000
10
107.596
20
70.000
10
108.000
20
70.524
10
110.000
20
70.524
10
110.962
20
72.000
10
110.962
20
74.000
10
110.962
20
76.000
10
112.000
20
77.891
0
LWPOLYLINE
8
CONTOURS_MAJOR
62
3
90
4
70
0
38
145.0
10
0.228
20
100.000
10
0.228
20
98.000
10
0.228
20
96.000
10
0.000
20
95.634
0
LWPOLYLINE
8
CONTOURS_MINOR
62
1
90
101
70
0
38
146.0
10
4.813
20
0.000
10
6.000
20
1.015
10
8.000
20
1.015
10
10.000
20
1.015
10
11.372
20
2.000
10
11.372
20
4.000
10
12.000
20
4.533
10
14.000
20
4.533
10
16.000
20
5.726
10
18.000
20
5.726
10
18.720
20
6.000
10
18.720
20
8.000
10
20.000
20
8.683
10
22.000
20
8.683
10
24.000
20
8.683
10
26.000
20
9.103
10
28.000
20
9.103
10
30.000
20
9.539
10
32.000
20
9.539
10
32.659
20
10.000
10
32.659
20
12.000
10
32.659
20
14.000
10
34.000
20
15.877
10
36.000
20
15.877
10
36.102
20
16.000
10
36.102
20
18.000
10
38.000
20
19.610
10
40.000
20
19.610
10
42.000
20
19.610
10
44.000
20
19.986
10
46.000
20
19.986
10
46.151
20
20.000
10
46.151
20
22.000
10
46.151
20
24.000
10
48.000
20
24.205
10
50.000
20
24.205
10
52.000
20
24.333
10
54.000
20
24.333
10
56.000
20
24.333
10
57.832
20
24.000
10
57.832
20
22.000
10
57.832
20
20.000
10
58.000
20
19.976
10
60.000
20
19.976
10
62.000
20
19.659
10
64.000
20
19.659
10
66.000
20
19.314
10
68.000
20
19.314
10
70.000
20
19.109
10
72.000
20
19.109
10
74.000
20
19.109
10
76.000
20
20.000
10
78.000
20
20.000
10
78.000
20
20.000
10
78.000
20
22.000
10
78.000
20
24.000
10
80.000
20
25.381
10
82.000
20
25.381
10
83.544
20
26.000
10
83.544
20
28.000
10
84.000
20
28.171
10
86.000
20
28.171
10
88.000
20
28.171
10
89.778
20
30.000
10
89.778
20
32.000
10
90.000
20
32.249
10
92.000
20
32.249
10
92.526
20
34.000
10
92.526
20
36.000
10
92.526
20
38.000
10
93.865
20
40.000
10
93.865
20
42.000
10
94.000
20
42.098
10
96.000
20
42.098
10
97.685
20
44.000
10
97.685
20
46.000
10
98.000
20
47.012
10
100.000
20
47.012
10
100.273
20
48.000
10
100.273
20
50.000
10
100.273
20
52.000
10
100.122
20
54.000
10
100.122
20
56.000
10
100.023
20
58.000
10
100.023
20
60.000
10
100.023
20
62.000
10
101.118
20
64.000
10
101.118
20
66.000
10
102.000
20
66.838
10
104.000
20
66.838
10
106.000
20
66.838
10
107.276
20
68.000
10
107.276
20
70.000
10
108.000
20
70.940
10
110.000
20
70.940
10
110.691
20
72.000
10
110.691
20
74.000
10
110.691
20
76.000
10
111.777
20
78.000
10
111.777
20
80.000
10
112.000
20
80.230
0
LWPOLYLINE
8
CONTOURS_MINOR
62
1
90
6
70
0
38
146.0
10
1.982
20
100.000
10
1.982
20
98.000
10
1.982
20
96.000
10
0.757
20
94.000
10
0.757
20
92.000
10
0.000
20
90.213
0
LWPOLYLINE
8
CONTOURS_MINOR
62
1
90
105
70
0
38
147.0
10
4.118
20
0.000
10
6.000
20
1.608
10
8.000
20
1.608
10
10.000
20
1.608
10
10.545
20
2.000
10
10.545
20
4.000
10
12.000
20
5.235
10
14.000
20
5.235
10
15.591
20
6.000
10
15.591
20
8.000
10
16.000
20
8.281
10
18.000
20
8.281
10
20.000
20
9.216
10
22.000
20
9.216
10
24.000
20
9.216
10
26.000
20
9.498
10
28.000
20
9.498
10
30.000
20
9.864
10
32.000
20
9.864
10
32.195
20
10.000
10
32.195
20
12.000
10
32.195
20
14.000
10
33.489
20
16.000
10
33.489
20
18.000
10
34.000
20
18.635
10
36.000
20
18.635
10
37.851
20
20.000
10
37.851
20
22.000
10
37.851
20
24.000
10
38.000
20
24.101
10
40.000
20
24.101
10
42.000
20
24.101
10
44.000
20
24.485
10
46.000
20
24.485
10
48.000
20
24.625
10
50.000
20
24.625
10
52.000
20
24.716
10
54.000
20
24.716
10
56.000
20
24.716
10
58.000
20
24.421
10
60.000
20
24.421
10
62.000
20
24.037
10
64.000
20
24.037
10
64.308
20
24.000
10
64.308
20
22.000
10
64.308
20
20.000
10
66.000
20
19.830
10
68.000
20
19.830
10
70.000
20
19.950
10
72.000
20
19.950
10
74.000
20
19.950
10
74.113
20
20.000
10
74.113
20
22.000
10
74.113
20
24.000
10
76.000
20
25.258
10
78.000
20
25.258
10
79.204
20
26.000
10
79.204
20
28.000
10
80.000
20
28.377
10
82.000
20
28.377
10
84.000
20
29.124
10
86.000
20
29.124
10
88.000
20
29.124
10
88.852
20
30.000
10
88.852
20
32.000
10
90.000
20
33.285
10
92.000
20
33.285
10
92.215
20
34.000
10
92.215
20
36.000
10
92.215
20
38.000
10
93.466
20
40.000
10
93.466
20
42.000
10
94.000
20
42.387
10
96.000
20
42.387
10
97.429
20
44.000
10
97.429
20
46.000
10
98.000
20
47.835
10
100.000
20
47.835
10
100.046
20
48.000
10
100.046
20
50.000
10
100.046
20
52.000
10
100.000
20
52.580
10
98.000
20
52.580
10
97.870
20
54.000
10
97.870
20
56.000
10
97.765
20
58.000
10
97.765
20
60.000
10
97.765
20
62.000
10
98.000
20
62.517
10
100.000
20
62.517
10
100.811
20
64.000
10
100.811
20
66.000
10
102.000
20
67.130
10
104.000
20
67.130
10
106.000
20
67.130
10
106.955
20
68.000
10
106.955
20
70.000
10
108.000
20
71.356
10
110.000
20
71.356
10
110.420
20
72.000
10
110.420
20
74.000
10
110.420
20
76.000
10
111.491
20
78.000
10
111.491
20
80.000
10
112.000
20
80.525
0
LWPOLYLINE
8
CONTOURS_MINOR
62
1
90
18
70
0
38
147.0
10
5.500
20
100.000
10
5.500
20
98.000
10
5.500
20
96.000
10
4.705
20
94.000
10
4.705
20
92.000
10
4.613
20
90.000
10
4.613
20
88.000
10
4.351
20
86.000
10
4.351
20
84.000
10
4.351
20
82.000
10
4.000
20
81.375
10
2.000
20
81.375
10
1.405
20
80.000
10
1.405
20
78.000
10
0.627
20
76.000
10
0.627
20
74.000
10
0.627
20
72.000
10
0.000
20
70.950
0
LWPOLYLINE
8
CONTOURS_MINOR
62
1
90
97
70
0
38
148.0
10
0.000
20
0.830
10
2.000
20
1.865
10
4.000
20
1.865
10
4.300
20
2.000
10
4.300
20
4.000
10
6.000
20
5.046
10
8.000
20
5.046
10
10.000
20
5.046
10
12.000
20
5.937
10
14.000
20
5.937
10
14.131
20
6.000
10
14.131
20
8.000
10
16.000
20
9.286
10
18.000
20
9.286
10
20.000
20
9.749
10
22.000
20
9.749
10
24.000
20
9.749
10
26.000
20
9.893
10
28.000
20
9.893
10
28.635
20
10.000
10
28.635
20
12.000
10
28.635
20
14.000
10
30.000
20
14.598
10
32.000
20
14.598
10
32.858
20
16.000
10
32.858
20
18.000
10
34.000
20
19.420
10
36.000
20
19.420
10
36.787
20
20.000
10
36.787
20
22.000
10
36.787
20
24.000
10
38.000
20
24.820
10
40.000
20
24.820
10
42.000
20
24.820
10
44.000
20
24.990
10
46.000
20
24.990
10
48.000
20
25.044
10
50.000
20
25.044
10
52.000
20
25.100
10
54.000
20
25.100
10
56.000
20
25.100
10
58.000
20
24.879
10
60.000
20
24.879
10
62.000
20
24.658
10
64.000
20
24.658
10
66.000
20
24.580
10
68.000
20
24.580
10
70.000
20
25.106
10
72.000
20
25.106
10
74.000
20
25.106
10
75.299
20
26.000
10
75.299
20
28.000
10
76.000
20
28.378
10
78.000
20
28.378
10
80.000
20
29.343
10
82.000
20
29.343
10
83.789
20
30.000
10
83.789
20
32.000
10
84.000
20
32.070
10
86.000
20
32.070
10
88.000
20
32.070
10
89.752
20
34.000
10
89.752
20
36.000
10
89.752
20
38.000
10
90.000
20
38.207
10
92.000
20
38.207
10
93.068
20
40.000
10
93.068
20
42.000
10
94.000
20
42.676
10
96.000
20
42.676
10
97.173
20
44.000
10
97.173
20
46.000
10
97.775
20
48.000
10
97.775
20
50.000
10
97.775
20
52.000
10
97.605
20
54.000
10
97.605
20
56.000
10
97.510
20
58.000
10
97.510
20
60.000
10
97.510
20
62.000
10
98.000
20
63.079
10
100.000
20
63.079
10
100.504
20
64.000
10
100.504
20
66.000
10
102.000
20
67.422
10
104.000
20
67.422
10
106.000
20
67.422
10
106.635
20
68.000
10
106.635
20
70.000
10
108.000
20
71.771
10
110.000
20
71.771
10
110.149
20
72.000
10
110.149
20
74.000
10
110.149
20
76.000
10
111.205
20
78.000
10
111.205
20
80.000
10
112.000
20
80.820
0
LWPOLYLINE
8
CONTOURS_MINOR
62
1
90
27
70
0
38
148.0
10
14.036
20
100.000
10
14.036
20
98.000
10
14.036
20
96.000
10
14.000
20
95.933
10
12.000
20
95.933
10
11.194
20
94.000
10
11.194
20
92.000
10
11.213
20
90.000
10
11.213
20
88.000
10
11.559
20
86.000
10
11.559
20
84.000
10
11.559
20
82.000
10
11.000
20
80.000
10
11.000
20
78.000
10
10.196
20
76.000
10
10.196
20
74.000
10
10.196
20
72.000
10
10.000
20
71.565
10
8.000
20
71.565
10
6.000
20
71.565
10
5.357
20
70.000
10
5.357
20
68.000
10
4.000
20
66.566
10
2.000
20
66.566
10
0.750
20
66.000
10
0.750
20
64.000
10
0.000
20
63.739
0
LWPOLYLINE
8
CONTOURS_MINOR
62
1
90
93
70
0
38
149.0
10
112.000
20
81.115
10
110.918
20
80.000
10
110.918
20
78.000
10
110.000
20
76.246
10
108.000
20
76.246
10
107.865
20
76.000
10
107.865
20
74.000
10
107.865
20
72.000
10
106.314
20
70.000
10
106.314
20
68.000
10
106.000
20
67.714
10
104.000
20
67.714
10
102.000
20
67.714
10
100.197
20
66.000
10
100.197
20
64.000
10
100.000
20
63.640
10
98.000
20
63.640
10
97.255
20
62.000
10
97.255
20
60.000
10
97.255
20
58.000
10
97.340
20
56.000
10
97.340
20
54.000
10
97.493
20
52.000
10
97.493
20
50.000
10
97.493
20
48.000
10
96.917
20
46.000
10
96.917
20
44.000
10
96.000
20
42.965
10
94.000
20
42.965
10
92.669
20
42.000
10
92.669
20
40.000
10
92.000
20
38.876
10
90.000
20
38.876
10
88.952
20
38.000
10
88.952
20
36.000
10
88.952
20
34.000
10
88.000
20
32.952
10
86.000
20
32.952
10
84.000
20
32.952
10
82.000
20
32.277
10
80.000
20
32.277
10
79.407
20
32.000
10
79.407
20
30.000
10
78.000
20
29.300
10
76.000
20
29.300
10
74.000
20
28.234
10
72.000
20
28.234
10
70.000
20
28.234
10
69.455
20
28.000
10
69.455
20
26.000
10
68.000
20
25.446
10
66.000
20
25.446
10
64.000
20
25.280
10
62.000
20
25.280
10
60.000
20
25.336
10
58.000
20
25.336
10
56.000
20
25.483
10
54.000
20
25.483
10
52.000
20
25.483
10
50.000
20
25.463
10
48.000
20
25.463
10
46.000
20
25.495
10
44.000
20
25.495
10
42.000
20
25.540
10
40.000
20
25.540
10
38.000
20
25.540
10
36.000
20
24.765
10
34.000
20
24.765
10
33.000
20
24.000
10
33.000
20
22.000
10
33.000
20
20.000
10
32.227
20
18.000
10
32.227
20
16.000
10
32.000
20
15.629
10
30.000
20
15.629
10
28.000
20
15.090
10
26.000
20
15.090
10
24.000
20
15.432
10
22.000
20
15.432
10
20.000
20
15.432
10
18.000
20
15.261
10
16.000
20
15.261
10
14.000
20
15.091
10
12.000
20
15.091
10
10.000
20
15.125
10
8.000
20
15.125
10
6.000
20
15.125
10
4.000
20
14.372
10
2.000
20
14.372
10
1.673
20
14.000
10
1.673
20
12.000
10
1.673
20
10.000
10
0.000
20
8.178
0
LWPOLYLINE
8
CONTOURS_MINOR
62
1
90
36
70
0
38
149.0
10
19.607
20
100.000
10
19.607
20
98.000
10
19.607
20
96.000
10
19.027
20
94.000
10
19.027
20
92.000
10
18.000
20
90.000
10
16.000
20
90.000
10
16.000
20
90.000
10
16.000
20
88.000
10
16.000
20
88.000
10
18.000
20
88.000
10
18.057
20
86.000
10
18.057
20
84.000
10
18.057
20
82.000
10
18.000
20
80.667
10
16.000
20
80.667
10
15.974
20
80.000
10
15.974
20
78.000
10
15.612
20
76.000
10
15.612
20
74.000
10
15.612
20
72.000
10
15.347
20
70.000
10
15.347
20
68.000
10
14.151
20
66.000
10
14.151
20
64.000
10
14.000
20
63.875
10
12.000
20
63.875
10
10.000
20
62.757
10
8.000
20
62.757
10
6.000
20
62.757
10
4.000
20
62.023
10
2.000
20
62.023
10
1.951
20
62.000
10
1.951
20
60.000
10
1.951
20
58.000
10
0.000
20
57.252
0
LWPOLYLINE
8
CONTOURS_MAJOR
62
3
90
112
70
0
38
150.0
10
112.000
20
81.410
10
110.632
20
80.000
10
110.632
20
78.000
10
110.000
20
76.792
10
108.000
20
76.792
10
107.566
20
76.000
10
107.566
20
74.000
10
107.566
20
72.000
10
106.000
20
70.008
10
104.000
20
70.008
10
102.000
20
70.008
10
101.992
20
70.000
10
101.992
20
68.000
10
100.000
20
66.131
10
98.000
20
66.131
10
97.888
20
66.000
10
97.888
20
64.000
10
97.000
20
62.000
10
97.000
20
60.000
10
97.000
20
58.000
10
97.075
20
56.000
10
97.075
20
54.000
10
97.211
20
52.000
10
97.211
20
50.000
10
97.211
20
48.000
10
96.661
20
46.000
10
96.661
20
44.000
10
96.000
20
43.254
10
94.000
20
43.254
10
92.271
20
42.000
10
92.271
20
40.000
10
92.000
20
39.545
10
90.000
20
39.545
10
88.152
20
38.000
10
88.152
20
36.000
10
88.152
20
34.000
10
88.000
20
33.833
10
86.000
20
33.833
10
84.000
20
33.833
10
82.000
20
33.143
10
80.000
20
33.143
10
78.000
20
32.238
10
76.000
20
32.238
10
75.543
20
32.000
10
75.543
20
30.000
10
74.000
20
29.210
10
72.000
20
29.210
10
70.000
20
29.210
10
68.000
20
28.375
10
66.000
20
28.375
10
64.615
20
28.000
10
64.615
20
26.000
10
64.000
20
25.901
10
62.000
20
25.901
10
60.000
20
25.794
10
58.000
20
25.794
10
56.000
20
25.866
10
54.000
20
25.866
10
52.000
20
25.866
10
50.000
20
25.883
10
48.000
20
25.883
10
46.000
20
26.000
10
44.000
20
26.000
10
44.000
20
26.000
10
44.000
20
28.000
10
42.000
20
29.895
10
40.000
20
29.895
10
38.000
20
29.895
10
37.905
20
30.000
10
37.905
20
32.000
10
38.000
20
32.167
10
40.000
20
32.167
10
42.000
20
32.167
10
42.543
20
34.000
10
42.543
20
36.000
10
42.543
20
38.000
10
42.500
20
40.000
10
42.500
20
42.000
10
42.000
20
43.030
10
40.000
20
43.030
10
38.000
20
43.030
10
36.000
20
43.429
10
34.000
20
43.429
10
32.000
20
42.571
10
30.000
20
42.571
10
29.158
20
42.000
10
29.158
20
40.000
10
28.000
20
39.511
10
26.000
20
39.511
10
24.000
20
39.318
10
22.000
20
39.318
10
20.000
20
39.318
10
18.000
20
38.810
10
16.000
20
38.810
10
15.244
20
38.000
10
15.244
20
36.000
10
15.244
20
34.000
10
14.000
20
32.667
10
12.000
20
32.667
10
11.300
20
32.000
10
11.300
20
30.000
10
10.000
20
29.000
10
8.000
20
29.000
10
6.000
20
29.000
10
4.844
20
28.000
10
4.844
20
26.000
10
4.000
20
25.255
10
2.000
20
25.255
10
0.061
20
24.000
10
0.061
20
22.000
10
0.061
20
20.000
10
0.000
20
19.944
0
LWPOLYLINE
8
CONTOURS_MAJOR
62
3
90
39
70
0
38
150.0
10
29.046
20
100.000
10
29.046
20
98.000
10
29.046
20
96.000
10
28.526
20
94.000
10
28.526
20
92.000
10
28.000
20
90.571
10
26.000
20
90.571
10
25.771
20
90.000
10
25.771
20
88.000
10
24.865
20
86.000
10
24.865
20
84.000
10
24.865
20
82.000
10
24.243
20
80.000
10
24.243
20
78.000
10
24.424
20
76.000
10
24.424
20
74.000
10
24.424
20
72.000
10
24.491
20
70.000
10
24.491
20
68.000
10
24.000
20
66.600
10
22.000
20
66.600
10
20.000
20
66.600
10
19.789
20
66.000
10
19.789
20
64.000
10
18.000
20
62.478
10
16.000
20
62.478
10
15.429
20
62.000
10
15.429
20
60.000
10
15.429
20
58.000
10
14.000
20
57.070
10
12.000
20
57.070
10
10.000
20
56.629
10
8.000
20
56.629
10
6.000
20
56.629
10
4.000
20
56.216
10
2.000
20
56.216
10
1.467
20
56.000
10
1.467
20
54.000
10
0.000
20
53.290
0
LWPOLYLINE
8
CONTOURS_MINOR
62
1
90
108
70
0
38
151.0
10
36.212
20
100.000
10
36.212
20
98.000
10
36.212
20
96.000
10
36.000
20
94.364
10
34.000
20
94.364
10
33.913
20
94.000
10
33.913
20
92.000
10
33.550
20
90.000
10
33.550
20
88.000
10
32.609
20
86.000
10
32.609
20
84.000
10
32.609
20
82.000
10
32.261
20
80.000
10
32.261
20
78.000
10
33.212
20
76.000
10
33.212
20
74.000
10
33.212
20
72.000
10
32.634
20
70.000
10
32.634
20
68.000
10
32.000
20
66.818
10
30.000
20
66.818
10
29.654
20
66.000
10
29.654
20
64.000
10
28.903
20
62.000
10
28.903
20
60.000
10
28.903
20
58.000
10
30.000
20
56.640
10
32.000
20
56.640
10
33.600
20
56.000
10
33.600
20
54.000
10
34.000
20
53.932
10
36.000
20
53.932
10
38.000
20
53.286
10
40.000
20
53.286
10
42.000
20
53.286
10
44.000
20
52.452
10
46.000
20
52.452
10
46.197
20
52.000
10
46.197
20
50.000
10
46.197
20
48.000
10
46.791
20
46.000
10
46.791
20
44.000
10
46.883
20
42.000
10
46.883
20
40.000
10
46.667
20
38.000
10
46.667
20
36.000
10
46.667
20
34.000
10
46.930
20
32.000
10
46.930
20
30.000
10
48.000
20
29.309
10
50.000
20
29.309
10
52.000
20
28.730
10
54.000
20
28.730
10
56.000
20
28.730
10
58.000
20
28.588
10
60.000
20
28.588
10
62.000
20
28.866
10
64.000
20
28.866
10
66.000
20
29.417
10
68.000
20
29.417
10
69.493
20
30.000
10
69.493
20
32.000
10
70.000
20
32.224
10
72.000
20
32.224
10
74.000
20
32.224
10
76.000
20
33.228
10
78.000
20
33.228
10
79.975
20
34.000
10
79.975
20
36.000
10
79.975
20
38.000
10
80.000
20
38.010
10
82.000
20
38.010
10
84.000
20
38.736
10
86.000
20
38.736
10
88.000
20
38.736
10
89.626
20
40.000
10
89.626
20
42.000
10
90.000
20
42.164
10
92.000
20
42.164
10
94.000
20
43.543
10
96.000
20
43.543
10
96.405
20
44.000
10
96.405
20
46.000
10
96.930
20
48.000
10
96.930
20
50.000
10
96.930
20
52.000
10
96.811
20
54.000
10
96.811
20
56.000
10
96.745
20
58.000
10
96.745
20
60.000
10
96.745
20
62.000
10
97.578
20
64.000
10
97.578
20
66.000
10
98.000
20
66.496
10
100.000
20
66.496
10
101.603
20
68.000
10
101.603
20
70.000
10
102.000
20
70.389
10
104.000
20
70.389
10
106.000
20
70.389
10
107.266
20
72.000
10
107.266
20
74.000
10
107.266
20
76.000
10
108.000
20
77.339
10
110.000
20
77.339
10
110.346
20
78.000
10
110.346
20
80.000
10
112.000
20
81.705
0
LWPOLYLINE
8
CONTOURS_MINOR
62
1
90
7
70
0
38
151.0
10
0.000
20
42.000
10
0.000
20
42.000
10
0.000
20
40.000
10
0.522
20
38.000
10
0.522
20
36.000
10
0.522
20
34.000
10
0.000
20
33.333
0
LWPOLYLINE
8
CONTOURS_MINOR
62
1
90
101
70
0
38
152.0
10
42.640
20
100.000
10
42.640
20
98.000
10
42.640
20
96.000
10
43.222
20
94.000
10
43.222
20
92.000
10
43.429
20
90.000
10
43.429
20
88.000
10
43.507
20
86.000
10
43.507
20
84.000
10
43.507
20
82.000
10
44.000
20
80.381
10
46.000
20
80.381
10
46.110
20
80.000
10
46.110
20
78.000
10
46.164
20
76.000
10
46.164
20
74.000
10
46.164
20
72.000
10
46.000
20
70.909
10
44.000
20
70.909
10
43.762
20
70.000
10
43.762
20
68.000
10
44.000
20
67.444
10
46.000
20
67.444
10
46.963
20
66.000
10
46.963
20
64.000
10
48.000
20
63.364
10
50.000
20
63.364
10
51.277
20
62.000
10
51.277
20
60.000
10
51.277
20
58.000
10
50.907
20
56.000
10
50.907
20
54.000
10
50.471
20
52.000
10
50.471
20
50.000
10
50.471
20
48.000
10
50.640
20
46.000
10
50.640
20
44.000
10
50.639
20
42.000
10
50.639
20
40.000
10
50.396
20
38.000
10
50.396
20
36.000
10
50.396
20
34.000
10
51.653
20
32.000
10
51.653
20
30.000
10
52.000
20
29.854
10
54.000
20
29.854
10
56.000
20
29.854
10
58.000
20
29.658
10
60.000
20
29.658
10
62.000
20
29.897
10
64.000
20
29.897
10
64.370
20
30.000
10
64.370
20
32.000
10
66.000
20
32.540
10
68.000
20
32.540
10
70.000
20
33.400
10
72.000
20
33.400
10
74.000
20
33.400
10
75.397
20
34.000
10
75.397
20
36.000
10
75.397
20
38.000
10
76.000
20
38.233
10
78.000
20
38.233
10
80.000
20
38.962
10
82.000
20
38.962
10
84.000
20
39.645
10
86.000
20
39.645
10
88.000
20
39.645
10
88.456
20
40.000
10
88.456
20
42.000
10
90.000
20
42.675
10
92.000
20
42.675
10
94.000
20
43.832
10
96.000
20
43.832
10
96.149
20
44.000
10
96.149
20
46.000
10
96.648
20
48.000
10
96.648
20
50.000
10
96.648
20
52.000
10
96.546
20
54.000
10
96.546
20
56.000
10
96.490
20
58.000
10
96.490
20
60.000
10
96.490
20
62.000
10
97.267
20
64.000
10
97.267
20
66.000
10
98.000
20
66.861
10
100.000
20
66.861
10
101.214
20
68.000
10
101.214
20
70.000
10
102.000
20
70.770
10
104.000
20
70.770
10
106.000
20
70.770
10
106.967
20
72.000
10
106.967
20
74.000
10
106.967
20
76.000
10
108.000
20
77.885
10
110.000
20
77.885
10
110.060
20
78.000
10
110.060
20
80.000
10
112.000
20
82.000
0
LWPOLYLINE
8
CONTOURS_MINOR
62
1
90
100
70
0
38
153.0
10
47.400
20
100.000
10
47.400
20
98.000
10
47.400
20
96.000
10
47.636
20
94.000
10
47.636
20
92.000
10
48.000
20
91.030
10
50.000
20
91.030
10
50.618
20
90.000
10
50.618
20
88.000
10
51.366
20
86.000
10
51.366
20
84.000
10
51.366
20
82.000
10
51.292
20
80.000
10
51.292
20
78.000
10
51.404
20
76.000
10
51.404
20
74.000
10
51.404
20
72.000
10
51.673
20
70.000
10
51.673
20
68.000
10
52.000
20
67.526
10
54.000
20
67.526
10
56.000
20
67.526
10
56.690
20
66.000
10
56.690
20
64.000
10
57.581
20
62.000
10
57.581
20
60.000
10
57.581
20
58.000
10
56.879
20
56.000
10
56.879
20
54.000
10
56.000
20
52.531
10
54.000
20
52.531
10
52.000
20
52.531
10
51.778
20
52.000
10
51.778
20
50.000
10
51.778
20
48.000
10
51.973
20
46.000
10
51.973
20
44.000
10
52.000
20
43.810
10
54.000
20
43.810
10
56.000
20
43.810
10
56.422
20
42.000
10
56.422
20
40.000
10
56.915
20
38.000
10
56.915
20
36.000
10
56.915
20
34.000
10
58.000
20
33.360
10
60.000
20
33.360
10
62.000
20
33.314
10
64.000
20
33.314
10
66.000
20
33.767
10
68.000
20
33.767
10
68.559
20
34.000
10
68.559
20
36.000
10
68.559
20
38.000
10
70.000
20
38.685
10
72.000
20
38.685
10
74.000
20
38.685
10
76.000
20
39.291
10
78.000
20
39.291
10
80.000
20
39.914
10
82.000
20
39.914
10
82.257
20
40.000
10
82.257
20
42.000
10
84.000
20
42.646
10
86.000
20
42.646
10
88.000
20
42.646
10
90.000
20
43.187
10
92.000
20
43.187
10
93.582
20
44.000
10
93.582
20
46.000
10
94.000
20
46.488
10
96.000
20
46.488
10
96.366
20
48.000
10
96.366
20
50.000
10
96.366
20
52.000
10
96.281
20
54.000
10
96.281
20
56.000
10
96.235
20
58.000
10
96.235
20
60.000
10
96.235
20
62.000
10
96.957
20
64.000
10
96.957
20
66.000
10
98.000
20
67.226
10
100.000
20
67.226
10
100.825
20
68.000
10
100.825
20
70.000
10
102.000
20
71.150
10
104.000
20
71.150
10
106.000
20
71.150
10
106.668
20
72.000
10
106.668
20
74.000
10
106.668
20
76.000
10
107.696
20
78.000
10
107.696
20
80.000
10
108.000
20
80.369
10
110.000
20
80.369
10
111.555
20
82.000
10
111.555
20
84.000
10
111.555
20
86.000
10
112.000
20
86.335
0
LWPOLYLINE
8
CONTOURS_MINOR
62
1
90
95
70
0
38
154.0
10
57.244
20
100.000
10
57.244
20
98.000
10
57.244
20
96.000
10
57.579
20
94.000
10
57.579
20
92.000
10
58.000
20
91.360
10
60.000
20
91.360
10
60.944
20
90.000
10
60.944
20
88.000
10
61.787
20
86.000
10
61.787
20
84.000
10
61.787
20
82.000
10
62.000
20
80.571
10
64.000
20
80.571
10
64.190
20
80.000
10
64.190
20
78.000
10
64.000
20
77.000
10
62.000
20
77.000
10
61.902
20
76.000
10
61.902
20
74.000
10
61.902
20
72.000
10
62.000
20
71.200
10
64.000
20
71.200
10
64.140
20
70.000
10
64.140
20
68.000
10
64.343
20
66.000
10
64.343
20
64.000
10
64.640
20
62.000
10
64.640
20
60.000
10
64.640
20
58.000
10
64.417
20
56.000
10
64.417
20
54.000
10
64.000
20
53.524
10
62.000
20
53.524
10
60.316
20
52.000
10
60.316
20
50.000
10
60.316
20
48.000
10
60.333
20
46.000
10
60.333
20
44.000
10
61.933
20
42.000
10
61.933
20
40.000
10
62.000
20
39.963
10
64.000
20
39.963
10
66.000
20
39.780
10
68.000
20
39.780
10
69.250
20
40.000
10
69.250
20
42.000
10
70.000
20
42.300
10
72.000
20
42.300
10
74.000
20
42.300
10
76.000
20
43.031
10
78.000
20
43.031
10
80.000
20
43.556
10
82.000
20
43.556
10
84.000
20
43.704
10
86.000
20
43.704
10
88.000
20
43.704
10
90.000
20
43.698
10
92.000
20
43.698
10
92.587
20
44.000
10
92.587
20
46.000
10
94.000
20
47.651
10
96.000
20
47.651
10
96.085
20
48.000
10
96.085
20
50.000
10
96.085
20
52.000
10
96.016
20
54.000
10
96.016
20
56.000
10
96.000
20
56.857
10
94.000
20
56.857
10
93.950
20
58.000
10
93.950
20
60.000
10
93.950
20
62.000
10
94.000
20
62.074
10
96.000
20
62.074
10
96.646
20
64.000
10
96.646
20
66.000
10
98.000
20
67.591
10
100.000
20
67.591
10
100.436
20
68.000
10
100.436
20
70.000
10
102.000
20
71.531
10
104.000
20
71.531
10
106.000
20
71.531
10
106.368
20
72.000
10
106.368
20
74.000
10
106.368
20
76.000
10
107.310
20
78.000
10
107.310
20
80.000
10
108.000
20
80.836
10
110.000
20
80.836
10
111.109
20
82.000
10
111.109
20
84.000
10
111.109
20
86.000
10
112.000
20
86.670
0
LWPOLYLINE
8
CONTOURS_MAJOR
62
3
90
80
70
0
38
155.0
10
74.550
20
100.000
10
74.550
20
98.000
10
74.550
20
96.000
10
75.692
20
94.000
10
75.692
20
92.000
10
76.000
20
91.636
10
78.000
20
91.636
10
80.000
20
90.083
10
82.000
20
90.083
10
82.077
20
90.000
10
82.077
20
88.000
10
82.000
20
87.500
10
80.000
20
87.500
10
79.829
20
86.000
10
79.829
20
84.000
10
79.829
20
82.000
10
78.529
20
80.000
10
78.529
20
78.000
10
78.000
20
77.021
10
76.000
20
77.021
10
75.324
20
76.000
10
75.324
20
74.000
10
75.324
20
72.000
10
74.000
20
70.082
10
72.000
20
70.082
10
70.000
20
70.082
10
69.935
20
70.000
10
69.935
20
68.000
10
69.365
20
66.000
10
69.365
20
64.000
10
70.000
20
62.862
10
72.000
20
62.862
10
74.000
20
62.862
10
74.347
20
62.000
10
74.347
20
60.000
10
74.347
20
58.000
10
76.000
20
56.126
10
78.000
20
56.126
10
78.150
20
56.000
10
78.150
20
54.000
10
80.000
20
52.477
10
82.000
20
52.477
10
82.620
20
52.000
10
82.620
20
50.000
10
82.620
20
48.000
10
84.000
20
47.021
10
86.000
20
47.021
10
88.000
20
47.021
10
90.000
20
46.471
10
92.000
20
46.471
10
93.310
20
48.000
10
93.310
20
50.000
10
93.310
20
52.000
10
93.331
20
54.000
10
93.331
20
56.000
10
93.327
20
58.000
10
93.327
20
60.000
10
93.327
20
62.000
10
94.000
20
63.000
10
96.000
20
63.000
10
96.335
20
64.000
10
96.335
20
66.000
10
98.000
20
67.956
10
100.000
20
67.956
10
100.047
20
68.000
10
100.047
20
70.000
10
102.000
20
71.912
10
104.000
20
71.912
10
106.000
20
71.912
10
106.069
20
72.000
10
106.069
20
74.000
10
106.069
20
76.000
10
106.925
20
78.000
10
106.925
20
80.000
10
108.000
20
81.304
10
110.000
20
81.304
10
110.664
20
82.000
10
110.664
20
84.000
10
110.664
20
86.000
10
112.000
20
87.005
0
LWPOLYLINE
8
CONTOURS_MINOR
62
1
90
75
70
0
38
156.0
10
92.630
20
100.000
10
92.630
20
98.000
10
92.630
20
96.000
10
92.949
20
94.000
10
92.949
20
92.000
10
92.252
20
90.000
10
92.252
20
88.000
10
92.000
20
87.659
10
90.000
20
87.659
10
88.667
20
86.000
10
88.667
20
84.000
10
88.667
20
82.000
10
88.000
20
81.320
10
86.000
20
81.320
10
84.000
20
81.320
10
82.706
20
80.000
10
82.706
20
78.000
10
82.000
20
76.800
10
80.000
20
76.800
10
79.520
20
76.000
10
79.520
20
74.000
10
79.520
20
72.000
10
78.310
20
70.000
10
78.310
20
68.000
10
78.000
20
67.458
10
76.000
20
67.458
10
75.314
20
66.000
10
75.314
20
64.000
10
75.736
20
62.000
10
75.736
20
60.000
10
75.736
20
58.000
10
76.000
20
57.701
10
78.000
20
57.701
10
80.000
20
56.021
10
82.000
20
56.021
10
82.027
20
56.000
10
82.027
20
54.000
10
84.000
20
52.596
10
86.000
20
52.596
10
88.000
20
52.596
10
88.969
20
52.000
10
88.969
20
50.000
10
88.969
20
48.000
10
90.000
20
47.621
10
92.000
20
47.621
10
92.325
20
48.000
10
92.325
20
50.000
10
92.325
20
52.000
10
92.619
20
54.000
10
92.619
20
56.000
10
92.704
20
58.000
10
92.704
20
60.000
10
92.704
20
62.000
10
94.000
20
63.926
10
96.000
20
63.926
10
96.025
20
64.000
10
96.025
20
66.000
10
97.326
20
68.000
10
97.326
20
70.000
10
98.000
20
70.698
10
100.000
20
70.698
10
101.361
20
72.000
10
101.361
20
74.000
10
101.361
20
76.000
10
102.000
20
76.710
10
104.000
20
76.710
10
106.000
20
76.710
10
106.539
20
78.000
10
106.539
20
80.000
10
108.000
20
81.771
10
110.000
20
81.771
10
110.218
20
82.000
10
110.218
20
84.000
10
110.218
20
86.000
10
112.000
20
87.340
0
LWPOLYLINE
8
CONTOURS_MINOR
62
1
90
59
70
0
38
157.0
10
97.299
20
100.000
10
97.299
20
98.000
10
97.299
20
96.000
10
97.044
20
94.000
10
97.044
20
92.000
10
96.064
20
90.000
10
96.064
20
88.000
10
96.000
20
87.910
10
94.000
20
87.910
10
92.667
20
86.000
10
92.667
20
84.000
10
92.667
20
82.000
10
92.000
20
81.135
10
90.000
20
81.135
10
88.895
20
80.000
10
88.895
20
78.000
10
88.000
20
76.741
10
86.000
20
76.741
10
84.000
20
76.741
10
83.583
20
76.000
10
83.583
20
74.000
10
83.583
20
72.000
10
82.806
20
70.000
10
82.806
20
68.000
10
82.085
20
66.000
10
82.085
20
64.000
10
82.545
20
62.000
10
82.545
20
60.000
10
82.545
20
58.000
10
84.000
20
57.256
10
86.000
20
57.256
10
88.000
20
57.256
10
90.000
20
57.000
10
92.000
20
57.000
10
92.081
20
58.000
10
92.081
20
60.000
10
92.081
20
62.000
10
92.797
20
64.000
10
92.797
20
66.000
10
94.000
20
67.115
10
96.000
20
67.115
10
96.559
20
68.000
10
96.559
20
70.000
10
98.000
20
71.492
10
100.000
20
71.492
10
100.531
20
72.000
10
100.531
20
74.000
10
100.531
20
76.000
10
102.000
20
77.631
10
104.000
20
77.631
10
106.000
20
77.631
10
106.154
20
78.000
10
106.154
20
80.000
10
107.430
20
82.000
10
107.430
20
84.000
10
107.430
20
86.000
10
108.000
20
86.464
10
110.000
20
86.464
10
112.000
20
87.675
0
LWPOLYLINE
8
CONTOURS_MINOR
62
1
90
29
70
0
38
158.0
10
101.553
20
100.000
10
101.553
20
98.000
10
101.553
20
96.000
10
101.057
20
94.000
10
101.057
20
92.000
10
100.346
20
90.000
10
100.346
20
88.000
10
100.000
20
87.053
10
98.000
20
87.053
10
97.565
20
86.000
10
97.565
20
84.000
10
97.565
20
82.000
10
97.037
20
80.000
10
97.037
20
78.000
10
98.000
20
77.469
10
100.000
20
77.469
10
100.356
20
78.000
10
100.356
20
80.000
10
102.000
20
81.364
10
104.000
20
81.364
10
106.000
20
81.364
10
106.313
20
82.000
10
106.313
20
84.000
10
106.313
20
86.000
10
108.000
20
87.373
10
110.000
20
87.373
10
111.917
20
88.000
10
111.917
20
90.000
10
112.000
20
90.049
0
LWPOLYLINE
8
CONTOURS_MINOR
62
1
90
4
70
0
38
159.0
10
112.000
20
95.027
10
111.073
20
94.000
10
111.073
20
92.000
10
112.000
20
91.689
0
ENDSEC
0
EOF