0
SECTION
2
HEADER
0
ENDSEC
0
SECTION
2
TABLES
0
TABLE
2
LAYER
70
4
0
LAYER
2
CONTOURS_MINEURES
70
0
62
8
6
CONTINUOUS
0
LAYER
2
CONTOURS_MAJEURES
70
0
62
3
6
CONTINUOUS
0
LAYER
2
PARCELLE
70
0
62
4
6
CONTINUOUS
0
LAYER
2
POINTS_COTES
70
0
62
7
6
CONTINUOUS
0
ENDTAB
0
ENDSEC
0
SECTION
2
ENTITIES
0
POLYLINE
8
CONTOURS_MINEURES
66
1
70
0
0
VERTEX
8
CONTOURS_MINEURES
10
9.841
20
205.002
0
VERTEX
8
CONTOURS_MINEURES
10
5.001
20
203.550
0
VERTEX
8
CONTOURS_MINEURES
10
1.714
20
203.283
0
VERTEX
8
CONTOURS_MINEURES
10
-0.005
20
203.181
0
SEQEND
0
POLYLINE
8
CONTOURS_MINEURES
66
1
70
0
0
VERTEX
8
CONTOURS_MINEURES
10
15.991
20
205.002
0
VERTEX
8
CONTOURS_MINEURES
10
15.539
20
204.464
0
VERTEX
8
CONTOURS_MINEURES
10
15.002
20
203.834
0
VERTEX
8
CONTOURS_MINEURES
10
13.511
20
203.510
0
VERTEX
8
CONTOURS_MINEURES
10
9.996
20
202.010
0
VERTEX
8
CONTOURS_MINEURES
10
6.754
20
201.752
0
VERTEX
8
CONTOURS_MINEURES
10
5.001
20
201.226
0
VERTEX
8
CONTOURS_MINEURES
10
3.862
20
201.134
0
VERTEX
8
CONTOURS_MINEURES
10
-0.005
20
200.905
0
SEQEND
0
POLYLINE
8
CONTOURS_MINEURES
66
1
70
0
0
VERTEX
8
CONTOURS_MINEURES
10
19.521
20
205.002
0
VERTEX
8
CONTOURS_MINEURES
10
17.457
20
202.541
0
VERTEX
8
CONTOURS_MINEURES
10
15.287
20
199.994
0
VERTEX
8
CONTOURS_MINEURES
10
15.002
20
199.527
0
VERTEX
8
CONTOURS_MINEURES
10
11.523
20
198.471
0
VERTEX
8
CONTOURS_MINEURES
10
9.996
20
198.443
0
VERTEX
8
CONTOURS_MINEURES
10
6.918
20
198.078
0
VERTEX
8
CONTOURS_MINEURES
10
5.001
20
197.987
0
VERTEX
8
CONTOURS_MINEURES
10
2.648
20
197.646
0
VERTEX
8
CONTOURS_MINEURES
10
-0.005
20
197.342
0
SEQEND
0
POLYLINE
8
CONTOURS_MINEURES
66
1
70
0
0
VERTEX
8
CONTOURS_MINEURES
10
170.000
20
48.981
0
VERTEX
8
CONTOURS_MINEURES
10
169.449
20
49.450
0
VERTEX
8
CONTOURS_MINEURES
10
168.685
20
50.003
0
VERTEX
8
CONTOURS_MINEURES
10
166.947
20
51.946
0
VERTEX
8
CONTOURS_MINEURES
10
165.004
20
53.717
0
VERTEX
8
CONTOURS_MINEURES
10
162.900
20
54.999
0
VERTEX
8
CONTOURS_MINEURES
10
161.197
20
56.196
0
VERTEX
8
CONTOURS_MINEURES
10
159.998
20
56.903
0
VERTEX
8
CONTOURS_MINEURES
10
158.307
20
58.304
0
VERTEX
8
CONTOURS_MINEURES
10
156.086
20
59.996
0
VERTEX
8
CONTOURS_MINEURES
10
155.798
20
60.793
0
VERTEX
8
CONTOURS_MINEURES
10
155.003
20
61.498
0
VERTEX
8
CONTOURS_MINEURES
10
151.911
20
65.003
0
VERTEX
8
CONTOURS_MINEURES
10
149.996
20
68.514
0
VERTEX
8
CONTOURS_MINEURES
10
148.827
20
69.999
0
VERTEX
8
CONTOURS_MINEURES
10
149.996
20
71.526
0
VERTEX
8
CONTOURS_MINEURES
10
152.895
20
72.892
0
VERTEX
8
CONTOURS_MINEURES
10
155.003
20
74.021
0
VERTEX
8
CONTOURS_MINEURES
10
155.566
20
74.433
0
VERTEX
8
CONTOURS_MINEURES
10
156.027
20
74.996
0
VERTEX
8
CONTOURS_MINEURES
10
159.998
20
77.925
0
VERTEX
8
CONTOURS_MINEURES
10
162.559
20
80.003
0
VERTEX
8
CONTOURS_MINEURES
10
164.031
20
80.975
0
VERTEX
8
CONTOURS_MINEURES
10
165.004
20
81.844
0
VERTEX
8
CONTOURS_MINEURES
10
168.334
20
85.000
0
VERTEX
8
CONTOURS_MINEURES
10
169.204
20
85.796
0
VERTEX
8
CONTOURS_MINEURES
10
170.000
20
86.427
0
SEQEND
0
POLYLINE
8
CONTOURS_MINEURES
66
1
70
0
0
VERTEX
8
CONTOURS_MINEURES
10
27.187
20
205.002
0
VERTEX
8
CONTOURS_MINEURES
10
25.657
20
204.348
0
VERTEX
8
CONTOURS_MINEURES
10
25.004
20
203.977
0
VERTEX
8
CONTOURS_MINEURES
10
22.779
20
202.776
0
VERTEX
8
CONTOURS_MINEURES
10
19.998
20
201.362
0
VERTEX
8
CONTOURS_MINEURES
10
19.375
20
200.619
0
VERTEX
8
CONTOURS_MINEURES
10
18.842
20
199.994
0
VERTEX
8
CONTOURS_MINEURES
10
17.046
20
197.042
0
VERTEX
8
CONTOURS_MINEURES
10
15.891
20
194.998
0
VERTEX
8
CONTOURS_MINEURES
10
15.553
20
194.447
0
VERTEX
8
CONTOURS_MINEURES
10
15.002
20
193.922
0
VERTEX
8
CONTOURS_MINEURES
10
13.925
20
193.922
0
VERTEX
8
CONTOURS_MINEURES
10
9.996
20
193.849
0
VERTEX
8
CONTOURS_MINEURES
10
6.339
20
193.660
0
VERTEX
8
CONTOURS_MINEURES
10
5.001
20
193.666
0
VERTEX
8
CONTOURS_MINEURES
10
1.812
20
193.185
0
VERTEX
8
CONTOURS_MINEURES
10
-0.005
20
192.956
0
SEQEND
0
POLYLINE
8
CONTOURS_MINEURES
66
1
70
0
0
VERTEX
8
CONTOURS_MINEURES
10
-0.005
20
1.532
0
VERTEX
8
CONTOURS_MINEURES
10
2.116
20
5.002
0
VERTEX
8
CONTOURS_MINEURES
10
2.211
20
7.787
0
VERTEX
8
CONTOURS_MINEURES
10
2.698
20
9.998
0
VERTEX
8
CONTOURS_MINEURES
10
5.001
20
12.392
0
VERTEX
8
CONTOURS_MINEURES
10
8.904
20
11.091
0
VERTEX
8
CONTOURS_MINEURES
10
9.996
20
10.263
0
VERTEX
8
CONTOURS_MINEURES
10
10.172
20
10.174
0
VERTEX
8
CONTOURS_MINEURES
10
10.504
20
9.998
0
VERTEX
8
CONTOURS_MINEURES
10
15.002
20
7.847
0
VERTEX
8
CONTOURS_MINEURES
10
18.646
20
6.354
0
VERTEX
8
CONTOURS_MINEURES
10
19.998
20
6.251
0
VERTEX
8
CONTOURS_MINEURES
10
20.949
20
5.952
0
VERTEX
8
CONTOURS_MINEURES
10
25.004
20
5.102
0
VERTEX
8
CONTOURS_MINEURES
10
25.217
20
5.002
0
VERTEX
8
CONTOURS_MINEURES
10
27.386
20
2.388
0
VERTEX
8
CONTOURS_MINEURES
10
29.999
20
1.743
0
VERTEX
8
CONTOURS_MINEURES
10
30.809
20
0.816
0
VERTEX
8
CONTOURS_MINEURES
10
33.425
20
0.006
0
SEQEND
0
POLYLINE
8
CONTOURS_MINEURES
66
1
70
0
0
VERTEX
8
CONTOURS_MINEURES
10
42.798
20
0.006
0
VERTEX
8
CONTOURS_MINEURES
10
44.399
20
0.603
0
VERTEX
8
CONTOURS_MINEURES
10
44.996
20
0.774
0
VERTEX
8
CONTOURS_MINEURES
10
47.036
20
0.006
0
SEQEND
0
POLYLINE
8
CONTOURS_MINEURES
66
1
70
0
0
VERTEX
8
CONTOURS_MINEURES
10
170.000
20
42.193
0
VERTEX
8
CONTOURS_MINEURES
10
166.683
20
44.995
0
VERTEX
8
CONTOURS_MINEURES
10
165.776
20
45.769
0
VERTEX
8
CONTOURS_MINEURES
10
165.004
20
46.326
0
VERTEX
8
CONTOURS_MINEURES
10
160.713
20
49.287
0
VERTEX
8
CONTOURS_MINEURES
10
159.998
20
49.793
0
VERTEX
8
CONTOURS_MINEURES
10
159.618
20
50.003
0
VERTEX
8
CONTOURS_MINEURES
10
156.736
20
51.736
0
VERTEX
8
CONTOURS_MINEURES
10
155.003
20
52.691
0
VERTEX
8
CONTOURS_MINEURES
10
151.680
20
54.999
0
VERTEX
8
CONTOURS_MINEURES
10
150.842
20
55.843
0
VERTEX
8
CONTOURS_MINEURES
10
149.996
20
56.349
0
VERTEX
8
CONTOURS_MINEURES
10
145.698
20
59.298
0
VERTEX
8
CONTOURS_MINEURES
10
145.001
20
59.790
0
VERTEX
8
CONTOURS_MINEURES
10
144.894
20
59.889
0
VERTEX
8
CONTOURS_MINEURES
10
144.780
20
59.996
0
VERTEX
8
CONTOURS_MINEURES
10
141.664
20
63.334
0
VERTEX
8
CONTOURS_MINEURES
10
140.128
20
65.003
0
VERTEX
8
CONTOURS_MINEURES
10
139.995
20
65.186
0
VERTEX
8
CONTOURS_MINEURES
10
139.094
20
69.098
0
VERTEX
8
CONTOURS_MINEURES
10
138.803
20
69.999
0
VERTEX
8
CONTOURS_MINEURES
10
138.337
20
71.658
0
VERTEX
8
CONTOURS_MINEURES
10
137.888
20
74.996
0
VERTEX
8
CONTOURS_MINEURES
10
137.154
20
77.843
0
VERTEX
8
CONTOURS_MINEURES
10
137.113
20
80.003
0
VERTEX
8
CONTOURS_MINEURES
10
137.541
20
82.545
0
VERTEX
8
CONTOURS_MINEURES
10
137.341
20
85.000
0
VERTEX
8
CONTOURS_MINEURES
10
138.568
20
88.569
0
VERTEX
8
CONTOURS_MINEURES
10
139.129
20
89.996
0
VERTEX
8
CONTOURS_MINEURES
10
139.381
20
90.612
0
VERTEX
8
CONTOURS_MINEURES
10
139.995
20
92.942
0
VERTEX
8
CONTOURS_MINEURES
10
142.940
20
92.942
0
VERTEX
8
CONTOURS_MINEURES
10
145.001
20
91.817
0
VERTEX
8
CONTOURS_MINEURES
10
147.499
20
89.996
0
VERTEX
8
CONTOURS_MINEURES
10
149.996
20
88.497
0
VERTEX
8
CONTOURS_MINEURES
10
152.608
20
89.996
0
VERTEX
8
CONTOURS_MINEURES
10
155.003
20
91.016
0
VERTEX
8
CONTOURS_MINEURES
10
159.582
20
94.586
0
VERTEX
8
CONTOURS_MINEURES
10
159.998
20
94.920
0
VERTEX
8
CONTOURS_MINEURES
10
160.045
20
94.956
0
VERTEX
8
CONTOURS_MINEURES
10
160.109
20
95.004
0
VERTEX
8
CONTOURS_MINEURES
10
162.686
20
97.318
0
VERTEX
8
CONTOURS_MINEURES
10
165.004
20
99.889
0
VERTEX
8
CONTOURS_MINEURES
10
165.095
20
100.000
0
VERTEX
8
CONTOURS_MINEURES
10
167.733
20
102.267
0
VERTEX
8
CONTOURS_MINEURES
10
170.000
20
104.283
0
SEQEND
0
POLYLINE
8
CONTOURS_MINEURES
66
1
70
0
0
VERTEX
8
CONTOURS_MINEURES
10
35.298
20
205.002
0
VERTEX
8
CONTOURS_MINEURES
10
35.102
20
204.895
0
VERTEX
8
CONTOURS_MINEURES
10
34.995
20
204.863
0
VERTEX
8
CONTOURS_MINEURES
10
34.735
20
204.742
0
VERTEX
8
CONTOURS_MINEURES
10
29.999
20
202.615
0
VERTEX
8
CONTOURS_MINEURES
10
28.167
20
201.831
0
VERTEX
8
CONTOURS_MINEURES
10
25.004
20
200.034
0
VERTEX
8
CONTOURS_MINEURES
10
24.931
20
199.994
0
VERTEX
8
CONTOURS_MINEURES
10
22.312
20
197.685
0
VERTEX
8
CONTOURS_MINEURES
10
19.998
20
195.278
0
VERTEX
8
CONTOURS_MINEURES
10
19.840
20
194.998
0
VERTEX
8
CONTOURS_MINEURES
10
18.002
20
191.998
0
VERTEX
8
CONTOURS_MINEURES
10
15.906
20
190.002
0
VERTEX
8
CONTOURS_MINEURES
10
15.539
20
189.465
0
VERTEX
8
CONTOURS_MINEURES
10
15.002
20
189.145
0
VERTEX
8
CONTOURS_MINEURES
10
10.854
20
189.145
0
VERTEX
8
CONTOURS_MINEURES
10
9.996
20
189.079
0
VERTEX
8
CONTOURS_MINEURES
10
9.079
20
189.084
0
VERTEX
8
CONTOURS_MINEURES
10
5.001
20
189.105
0
VERTEX
8
CONTOURS_MINEURES
10
1.425
20
188.574
0
VERTEX
8
CONTOURS_MINEURES
10
-0.005
20
188.568
0
SEQEND
0
POLYLINE
8
CONTOURS_MINEURES
66
1
70
0
0
VERTEX
8
CONTOURS_MINEURES
10
-0.005
20
21.528
0
VERTEX
8
CONTOURS_MINEURES
10
4.763
20
20.002
0
VERTEX
8
CONTOURS_MINEURES
10
4.942
20
19.944
0
VERTEX
8
CONTOURS_MINEURES
10
5.001
20
19.946
0
VERTEX
8
CONTOURS_MINEURES
10
5.131
20
19.872
0
VERTEX
8
CONTOURS_MINEURES
10
9.996
20
18.677
0
VERTEX
8
CONTOURS_MINEURES
10
12.550
20
17.550
0
VERTEX
8
CONTOURS_MINEURES
10
15.002
20
15.495
0
VERTEX
8
CONTOURS_MINEURES
10
19.234
20
15.761
0
VERTEX
8
CONTOURS_MINEURES
10
19.998
20
15.252
0
VERTEX
8
CONTOURS_MINEURES
10
24.337
20
14.995
0
VERTEX
8
CONTOURS_MINEURES
10
24.929
20
14.920
0
VERTEX
8
CONTOURS_MINEURES
10
25.004
20
14.899
0
VERTEX
8
CONTOURS_MINEURES
10
25.236
20
14.762
0
VERTEX
8
CONTOURS_MINEURES
10
29.999
20
12.559
0
VERTEX
8
CONTOURS_MINEURES
10
31.896
20
11.895
0
VERTEX
8
CONTOURS_MINEURES
10
34.995
20
10.345
0
VERTEX
8
CONTOURS_MINEURES
10
36.083
20
9.998
0
VERTEX
8
CONTOURS_MINEURES
10
39.042
20
9.042
0
VERTEX
8
CONTOURS_MINEURES
10
40.001
20
8.392
0
VERTEX
8
CONTOURS_MINEURES
10
40.928
20
9.071
0
VERTEX
8
CONTOURS_MINEURES
10
44.996
20
7.883
0
VERTEX
8
CONTOURS_MINEURES
10
46.827
20
6.829
0
VERTEX
8
CONTOURS_MINEURES
10
50.003
20
5.948
0
VERTEX
8
CONTOURS_MINEURES
10
50.597
20
5.596
0
VERTEX
8
CONTOURS_MINEURES
10
51.430
20
5.002
0
VERTEX
8
CONTOURS_MINEURES
10
53.386
20
3.390
0
VERTEX
8
CONTOURS_MINEURES
10
54.998
20
2.608
0
VERTEX
8
CONTOURS_MINEURES
10
59.631
20
0.006
0
SEQEND
0
POLYLINE
8
CONTOURS_MINEURES
66
1
70
0
0
VERTEX
8
CONTOURS_MINEURES
10
156.359
20
0.006
0
VERTEX
8
CONTOURS_MINEURES
10
157.783
20
2.221
0
VERTEX
8
CONTOURS_MINEURES
10
159.704
20
5.002
0
VERTEX
8
CONTOURS_MINEURES
10
159.998
20
5.418
0
VERTEX
8
CONTOURS_MINEURES
10
161.881
20
8.119
0
VERTEX
8
CONTOURS_MINEURES
10
164.154
20
9.998
0
VERTEX
8
CONTOURS_MINEURES
10
165.004
20
11.020
0
VERTEX
8
CONTOURS_MINEURES
10
166.718
20
13.280
0
VERTEX
8
CONTOURS_MINEURES
10
168.019
20
14.995
0
VERTEX
8
CONTOURS_MINEURES
10
170.000
20
16.382
0
SEQEND
0
POLYLINE
8
CONTOURS_MINEURES
66
1
70
0
0
VERTEX
8
CONTOURS_MINEURES
10
170.000
20
34.446
0
VERTEX
8
CONTOURS_MINEURES
10
169.597
20
35.002
0
VERTEX
8
CONTOURS_MINEURES
10
167.291
20
37.290
0
VERTEX
8
CONTOURS_MINEURES
10
165.004
20
39.749
0
VERTEX
8
CONTOURS_MINEURES
10
164.877
20
39.872
0
VERTEX
8
CONTOURS_MINEURES
10
164.787
20
39.999
0
VERTEX
8
CONTOURS_MINEURES
10
162.277
20
42.273
0
VERTEX
8
CONTOURS_MINEURES
10
159.998
20
43.833
0
VERTEX
8
CONTOURS_MINEURES
10
159.282
20
44.279
0
VERTEX
8
CONTOURS_MINEURES
10
158.039
20
44.995
0
VERTEX
8
CONTOURS_MINEURES
10
155.003
20
46.749
0
VERTEX
8
CONTOURS_MINEURES
10
152.894
20
47.893
0
VERTEX
8
CONTOURS_MINEURES
10
149.996
20
49.849
0
VERTEX
8
CONTOURS_MINEURES
10
149.759
20
50.003
0
VERTEX
8
CONTOURS_MINEURES
10
146.900
20
51.903
0
VERTEX
8
CONTOURS_MINEURES
10
145.001
20
53.126
0
VERTEX
8
CONTOURS_MINEURES
10
143.969
20
53.969
0
VERTEX
8
CONTOURS_MINEURES
10
142.776
20
54.999
0
VERTEX
8
CONTOURS_MINEURES
10
141.331
20
56.333
0
VERTEX
8
CONTOURS_MINEURES
10
139.995
20
57.584
0
VERTEX
8
CONTOURS_MINEURES
10
139.290
20
59.290
0
VERTEX
8
CONTOURS_MINEURES
10
139.007
20
59.996
0
VERTEX
8
CONTOURS_MINEURES
10
137.949
20
62.952
0
VERTEX
8
CONTOURS_MINEURES
10
137.231
20
65.003
0
VERTEX
8
CONTOURS_MINEURES
10
136.813
20
66.817
0
VERTEX
8
CONTOURS_MINEURES
10
135.784
20
69.999
0
VERTEX
8
CONTOURS_MINEURES
10
135.000
20
72.793
0
VERTEX
8
CONTOURS_MINEURES
10
133.938
20
74.996
0
VERTEX
8
CONTOURS_MINEURES
10
132.880
20
77.879
0
VERTEX
8
CONTOURS_MINEURES
10
131.784
20
80.003
0
VERTEX
8
CONTOURS_MINEURES
10
131.660
20
81.660
0
VERTEX
8
CONTOURS_MINEURES
10
130.752
20
85.000
0
VERTEX
8
CONTOURS_MINEURES
10
131.395
20
86.391
0
VERTEX
8
CONTOURS_MINEURES
10
132.758
20
89.996
0
VERTEX
8
CONTOURS_MINEURES
10
135.000
20
94.016
0
VERTEX
8
CONTOURS_MINEURES
10
135.286
20
94.716
0
VERTEX
8
CONTOURS_MINEURES
10
135.362
20
95.004
0
VERTEX
8
CONTOURS_MINEURES
10
135.499
20
95.503
0
VERTEX
8
CONTOURS_MINEURES
10
137.527
20
100.000
0
VERTEX
8
CONTOURS_MINEURES
10
138.405
20
101.590
0
VERTEX
8
CONTOURS_MINEURES
10
139.634
20
104.996
0
VERTEX
8
CONTOURS_MINEURES
10
139.995
20
105.338
0
VERTEX
8
CONTOURS_MINEURES
10
143.889
20
106.109
0
VERTEX
8
CONTOURS_MINEURES
10
145.001
20
107.019
0
VERTEX
8
CONTOURS_MINEURES
10
148.201
20
108.204
0
VERTEX
8
CONTOURS_MINEURES
10
149.996
20
108.116
0
VERTEX
8
CONTOURS_MINEURES
10
151.839
20
108.161
0
VERTEX
8
CONTOURS_MINEURES
10
155.003
20
108.349
0
VERTEX
8
CONTOURS_MINEURES
10
156.435
20
108.568
0
VERTEX
8
CONTOURS_MINEURES
10
159.998
20
108.945
0
VERTEX
8
CONTOURS_MINEURES
10
160.806
20
109.195
0
VERTEX
8
CONTOURS_MINEURES
10
164.647
20
110.004
0
VERTEX
8
CONTOURS_MINEURES
10
165.004
20
110.107
0
VERTEX
8
CONTOURS_MINEURES
10
165.114
20
110.114
0
VERTEX
8
CONTOURS_MINEURES
10
170.000
20
110.921
0
SEQEND
0
POLYLINE
8
CONTOURS_MINEURES
66
1
70
0
0
VERTEX
8
CONTOURS_MINEURES
10
170.000
20
189.817
0
VERTEX
8
CONTOURS_MINEURES
10
169.924
20
189.926
0
VERTEX
8
CONTOURS_MINEURES
10
169.706
20
190.002
0
VERTEX
8
CONTOURS_MINEURES
10
165.004
20
193.778
0
VERTEX
8
CONTOURS_MINEURES
10
162.233
20
194.998
0
VERTEX
8
CONTOURS_MINEURES
10
162.605
20
197.600
0
VERTEX
8
CONTOURS_MINEURES
10
159.998
20
196.950
0
VERTEX
8
CONTOURS_MINEURES
10
157.768
20
197.229
0
VERTEX
8
CONTOURS_MINEURES
10
155.003
20
199.303
0
VERTEX
8
CONTOURS_MINEURES
10
152.933
20
199.994
0
VERTEX
8
CONTOURS_MINEURES
10
153.143
20
203.142
0
VERTEX
8
CONTOURS_MINEURES
10
149.996
20
202.416
0
VERTEX
8
CONTOURS_MINEURES
10
147.998
20
201.997
0
VERTEX
8
CONTOURS_MINEURES
10
145.001
20
203.750
0
VERTEX
8
CONTOURS_MINEURES
10
144.197
20
204.198
0
VERTEX
8
CONTOURS_MINEURES
10
139.995
20
204.069
0
VERTEX
8
CONTOURS_MINEURES
10
139.541
20
204.547
0
VERTEX
8
CONTOURS_MINEURES
10
138.272
20
205.002
0
SEQEND
0
POLYLINE
8
CONTOURS_MINEURES
66
1
70
0
0
VERTEX
8
CONTOURS_MINEURES
10
164.587
20
205.002
0
VERTEX
8
CONTOURS_MINEURES
10
164.879
20
204.877
0
VERTEX
8
CONTOURS_MINEURES
10
165.004
20
204.793
0
VERTEX
8
CONTOURS_MINEURES
10
165.504
20
204.501
0
VERTEX
8
CONTOURS_MINEURES
10
170.000
20
201.043
0
SEQEND
0
POLYLINE
8
CONTOURS_MINEURES
66
1
70
0
0
VERTEX
8
CONTOURS_MINEURES
10
43.484
20
205.002
0
VERTEX
8
CONTOURS_MINEURES
10
40.001
20
203.423
0
VERTEX
8
CONTOURS_MINEURES
10
37.786
20
202.210
0
VERTEX
8
CONTOURS_MINEURES
10
34.995
20
201.398
0
VERTEX
8
CONTOURS_MINEURES
10
31.998
20
199.994
0
VERTEX
8
CONTOURS_MINEURES
10
29.999
20
198.184
0
VERTEX
8
CONTOURS_MINEURES
10
28.380
20
196.618
0
VERTEX
8
CONTOURS_MINEURES
10
26.561
20
194.998
0
VERTEX
8
CONTOURS_MINEURES
10
25.004
20
193.638
0
VERTEX
8
CONTOURS_MINEURES
10
21.216
20
190.002
0
VERTEX
8
CONTOURS_MINEURES
10
19.998
20
188.642
0
VERTEX
8
CONTOURS_MINEURES
10
18.522
20
186.482
0
VERTEX
8
CONTOURS_MINEURES
10
16.041
20
185.005
0
VERTEX
8
CONTOURS_MINEURES
10
15.476
20
184.530
0
VERTEX
8
CONTOURS_MINEURES
10
15.002
20
184.344
0
VERTEX
8
CONTOURS_MINEURES
10
14.287
20
184.290
0
VERTEX
8
CONTOURS_MINEURES
10
9.996
20
183.963
0
VERTEX
8
CONTOURS_MINEURES
10
9.002
20
184.009
0
VERTEX
8
CONTOURS_MINEURES
10
5.001
20
184.028
0
VERTEX
8
CONTOURS_MINEURES
10
0.991
20
184.009
0
VERTEX
8
CONTOURS_MINEURES
10
-0.005
20
184.072
0
SEQEND
0
POLYLINE
8
CONTOURS_MINEURES
66
1
70
0
0
VERTEX
8
CONTOURS_MINEURES
10
-0.005
20
30.637
0
VERTEX
8
CONTOURS_MINEURES
10
3.863
20
31.133
0
VERTEX
8
CONTOURS_MINEURES
10
5.001
20
30.940
0
VERTEX
8
CONTOURS_MINEURES
10
5.527
20
30.522
0
VERTEX
8
CONTOURS_MINEURES
10
7.272
20
29.995
0
VERTEX
8
CONTOURS_MINEURES
10
9.996
20
29.264
0
VERTEX
8
CONTOURS_MINEURES
10
12.536
20
27.533
0
VERTEX
8
CONTOURS_MINEURES
10
15.002
20
26.342
0
VERTEX
8
CONTOURS_MINEURES
10
16.070
20
24.999
0
VERTEX
8
CONTOURS_MINEURES
10
16.924
20
23.077
0
VERTEX
8
CONTOURS_MINEURES
10
18.808
20
20.002
0
VERTEX
8
CONTOURS_MINEURES
10
19.998
20
19.211
0
VERTEX
8
CONTOURS_MINEURES
10
20.839
20
19.161
0
VERTEX
8
CONTOURS_MINEURES
10
25.004
20
18.708
0
VERTEX
8
CONTOURS_MINEURES
10
28.415
20
18.414
0
VERTEX
8
CONTOURS_MINEURES
10
29.999
20
18.181
0
VERTEX
8
CONTOURS_MINEURES
10
32.042
20
17.955
0
VERTEX
8
CONTOURS_MINEURES
10
34.995
20
17.299
0
VERTEX
8
CONTOURS_MINEURES
10
36.844
20
16.845
0
VERTEX
8
CONTOURS_MINEURES
10
40.001
20
16.461
0
VERTEX
8
CONTOURS_MINEURES
10
41.158
20
16.154
0
VERTEX
8
CONTOURS_MINEURES
10
44.650
20
14.995
0
VERTEX
8
CONTOURS_MINEURES
10
44.811
20
14.810
0
VERTEX
8
CONTOURS_MINEURES
10
44.996
20
14.760
0
VERTEX
8
CONTOURS_MINEURES
10
45.497
20
14.495
0
VERTEX
8
CONTOURS_MINEURES
10
50.003
20
11.818
0
VERTEX
8
CONTOURS_MINEURES
10
53.150
20
9.998
0
VERTEX
8
CONTOURS_MINEURES
10
54.311
20
9.311
0
VERTEX
8
CONTOURS_MINEURES
10
54.998
20
8.821
0
VERTEX
8
CONTOURS_MINEURES
10
57.704
20
7.703
0
VERTEX
8
CONTOURS_MINEURES
10
60.004
20
5.716
0
VERTEX
8
CONTOURS_MINEURES
10
60.468
20
5.466
0
VERTEX
8
CONTOURS_MINEURES
10
61.331
20
5.002
0
VERTEX
8
CONTOURS_MINEURES
10
64.021
20
4.023
0
VERTEX
8
CONTOURS_MINEURES
10
64.999
20
3.360
0
VERTEX
8
CONTOURS_MINEURES
10
67.131
20
2.137
0
VERTEX
8
CONTOURS_MINEURES
10
69.440
20
0.006
0
SEQEND
0
POLYLINE
8
CONTOURS_MINEURES
66
1
70
0
0
VERTEX
8
CONTOURS_MINEURES
10
140.731
20
0.006
0
VERTEX
8
CONTOURS_MINEURES
10
142.379
20
2.385
0
VERTEX
8
CONTOURS_MINEURES
10
144.277
20
5.002
0
VERTEX
8
CONTOURS_MINEURES
10
144.605
20
5.397
0
VERTEX
8
CONTOURS_MINEURES
10
145.001
20
6.039
0
VERTEX
8
CONTOURS_MINEURES
10
147.499
20
9.998
0
VERTEX
8
CONTOURS_MINEURES
10
148.442
20
11.553
0
VERTEX
8
CONTOURS_MINEURES
10
149.996
20
13.814
0
VERTEX
8
CONTOURS_MINEURES
10
150.968
20
14.995
0
VERTEX
8
CONTOURS_MINEURES
10
155.003
20
17.453
0
VERTEX
8
CONTOURS_MINEURES
10
158.636
20
20.002
0
VERTEX
8
CONTOURS_MINEURES
10
158.999
20
21.001
0
VERTEX
8
CONTOURS_MINEURES
10
159.998
20
24.772
0
VERTEX
8
CONTOURS_MINEURES
10
160.068
20
24.999
0
VERTEX
8
CONTOURS_MINEURES
10
161.182
20
28.813
0
VERTEX
8
CONTOURS_MINEURES
10
161.467
20
29.995
0
VERTEX
8
CONTOURS_MINEURES
10
161.846
20
33.154
0
VERTEX
8
CONTOURS_MINEURES
10
161.324
20
35.002
0
VERTEX
8
CONTOURS_MINEURES
10
160.653
20
35.656
0
VERTEX
8
CONTOURS_MINEURES
10
159.998
20
36.567
0
VERTEX
8
CONTOURS_MINEURES
10
156.823
20
39.999
0
VERTEX
8
CONTOURS_MINEURES
10
155.701
20
40.697
0
VERTEX
8
CONTOURS_MINEURES
10
155.003
20
41.100
0
VERTEX
8
CONTOURS_MINEURES
10
152.261
20
42.259
0
VERTEX
8
CONTOURS_MINEURES
10
149.996
20
43.650
0
VERTEX
8
CONTOURS_MINEURES
10
148.123
20
44.995
0
VERTEX
8
CONTOURS_MINEURES
10
145.001
20
47.057
0
VERTEX
8
CONTOURS_MINEURES
10
141.180
20
50.003
0
VERTEX
8
CONTOURS_MINEURES
10
140.528
20
50.535
0
VERTEX
8
CONTOURS_MINEURES
10
139.995
20
50.996
0
VERTEX
8
CONTOURS_MINEURES
10
138.216
20
54.999
0
VERTEX
8
CONTOURS_MINEURES
10
137.276
20
57.276
0
VERTEX
8
CONTOURS_MINEURES
10
136.185
20
59.996
0
VERTEX
8
CONTOURS_MINEURES
10
135.872
20
60.870
0
VERTEX
8
CONTOURS_MINEURES
10
135.000
20
63.361
0
VERTEX
8
CONTOURS_MINEURES
10
134.305
20
64.307
0
VERTEX
8
CONTOURS_MINEURES
10
133.933
20
65.003
0
VERTEX
8
CONTOURS_MINEURES
10
132.698
20
67.305
0
VERTEX
8
CONTOURS_MINEURES
10
131.228
20
69.999
0
VERTEX
8
CONTOURS_MINEURES
10
130.004
20
72.498
0
VERTEX
8
CONTOURS_MINEURES
10
129.158
20
74.151
0
VERTEX
8
CONTOURS_MINEURES
10
128.726
20
74.996
0
VERTEX
8
CONTOURS_MINEURES
10
127.448
20
77.553
0
VERTEX
8
CONTOURS_MINEURES
10
126.250
20
80.003
0
VERTEX
8
CONTOURS_MINEURES
10
126.026
20
81.029
0
VERTEX
8
CONTOURS_MINEURES
10
124.998
20
83.834
0
VERTEX
8
CONTOURS_MINEURES
10
124.699
20
84.701
0
VERTEX
8
CONTOURS_MINEURES
10
124.605
20
85.000
0
VERTEX
8
CONTOURS_MINEURES
10
124.541
20
85.457
0
VERTEX
8
CONTOURS_MINEURES
10
124.998
20
89.663
0
VERTEX
8
CONTOURS_MINEURES
10
125.036
20
89.996
0
VERTEX
8
CONTOURS_MINEURES
10
126.890
20
93.111
0
VERTEX
8
CONTOURS_MINEURES
10
127.972
20
95.004
0
VERTEX
8
CONTOURS_MINEURES
10
130.004
20
97.063
0
VERTEX
8
CONTOURS_MINEURES
10
131.467
20
98.537
0
VERTEX
8
CONTOURS_MINEURES
10
132.603
20
100.000
0
VERTEX
8
CONTOURS_MINEURES
10
135.000
20
102.516
0
VERTEX
8
CONTOURS_MINEURES
10
135.883
20
104.113
0
VERTEX
8
CONTOURS_MINEURES
10
136.201
20
104.996
0
VERTEX
8
CONTOURS_MINEURES
10
139.995
20
108.589
0
VERTEX
8
CONTOURS_MINEURES
10
141.175
20
108.823
0
VERTEX
8
CONTOURS_MINEURES
10
142.619
20
110.004
0
VERTEX
8
CONTOURS_MINEURES
10
143.717
20
111.285
0
VERTEX
8
CONTOURS_MINEURES
10
145.001
20
112.601
0
VERTEX
8
CONTOURS_MINEURES
10
146.608
20
113.394
0
VERTEX
8
CONTOURS_MINEURES
10
148.145
20
115.000
0
VERTEX
8
CONTOURS_MINEURES
10
149.996
20
116.452
0
VERTEX
8
CONTOURS_MINEURES
10
152.778
20
117.221
0
VERTEX
8
CONTOURS_MINEURES
10
155.003
20
119.664
0
VERTEX
8
CONTOURS_MINEURES
10
156.430
20
119.997
0
VERTEX
8
CONTOURS_MINEURES
10
159.518
20
120.478
0
VERTEX
8
CONTOURS_MINEURES
10
159.998
20
120.860
0
VERTEX
8
CONTOURS_MINEURES
10
164.239
20
120.763
0
VERTEX
8
CONTOURS_MINEURES
10
165.004
20
120.968
0
VERTEX
8
CONTOURS_MINEURES
10
166.447
20
121.443
0
VERTEX
8
CONTOURS_MINEURES
10
170.000
20
121.362
0
SEQEND
0
POLYLINE
8
CONTOURS_MINEURES
66
1
70
0
0
VERTEX
8
CONTOURS_MINEURES
10
170.000
20
184.266
0
VERTEX
8
CONTOURS_MINEURES
10
169.566
20
184.571
0
VERTEX
8
CONTOURS_MINEURES
10
169.052
20
185.005
0
VERTEX
8
CONTOURS_MINEURES
10
167.388
20
187.389
0
VERTEX
8
CONTOURS_MINEURES
10
165.004
20
188.222
0
VERTEX
8
CONTOURS_MINEURES
10
164.061
20
189.060
0
VERTEX
8
CONTOURS_MINEURES
10
162.870
20
190.002
0
VERTEX
8
CONTOURS_MINEURES
10
159.998
20
192.222
0
VERTEX
8
CONTOURS_MINEURES
10
158.287
20
193.287
0
VERTEX
8
CONTOURS_MINEURES
10
155.003
20
194.896
0
VERTEX
8
CONTOURS_MINEURES
10
154.934
20
194.930
0
VERTEX
8
CONTOURS_MINEURES
10
154.801
20
194.998
0
VERTEX
8
CONTOURS_MINEURES
10
149.996
20
197.581
0
VERTEX
8
CONTOURS_MINEURES
10
148.345
20
198.343
0
VERTEX
8
CONTOURS_MINEURES
10
145.001
20
199.963
0
VERTEX
8
CONTOURS_MINEURES
10
144.933
20
199.994
0
VERTEX
8
CONTOURS_MINEURES
10
141.761
20
201.761
0
VERTEX
8
CONTOURS_MINEURES
10
139.995
20
201.707
0
VERTEX
8
CONTOURS_MINEURES
10
138.393
20
203.396
0
VERTEX
8
CONTOURS_MINEURES
10
135.000
20
204.611
0
VERTEX
8
CONTOURS_MINEURES
10
134.091
20
205.002
0
SEQEND
0
POLYLINE
8
CONTOURS_MINEURES
66
1
70
0
0
VERTEX
8
CONTOURS_MINEURES
10
58.965
20
205.002
0
VERTEX
8
CONTOURS_MINEURES
10
55.885
20
204.115
0
VERTEX
8
CONTOURS_MINEURES
10
54.998
20
203.696
0
VERTEX
8
CONTOURS_MINEURES
10
52.181
20
202.819
0
VERTEX
8
CONTOURS_MINEURES
10
50.003
20
202.086
0
VERTEX
8
CONTOURS_MINEURES
10
48.584
20
201.413
0
VERTEX
8
CONTOURS_MINEURES
10
44.996
20
200.277
0
VERTEX
8
CONTOURS_MINEURES
10
43.886
20
199.994
0
VERTEX
8
CONTOURS_MINEURES
10
41.094
20
198.902
0
VERTEX
8
CONTOURS_MINEURES
10
40.001
20
198.537
0
VERTEX
8
CONTOURS_MINEURES
10
36.756
20
196.756
0
VERTEX
8
CONTOURS_MINEURES
10
34.995
20
195.686
0
VERTEX
8
CONTOURS_MINEURES
10
34.229
20
194.998
0
VERTEX
8
CONTOURS_MINEURES
10
32.025
20
192.973
0
VERTEX
8
CONTOURS_MINEURES
10
29.999
20
191.329
0
VERTEX
8
CONTOURS_MINEURES
10
28.456
20
190.002
0
VERTEX
8
CONTOURS_MINEURES
10
26.744
20
188.261
0
VERTEX
8
CONTOURS_MINEURES
10
25.004
20
186.604
0
VERTEX
8
CONTOURS_MINEURES
10
23.584
20
185.005
0
VERTEX
8
CONTOURS_MINEURES
10
19.998
20
181.611
0
VERTEX
8
CONTOURS_MINEURES
10
19.123
20
180.875
0
VERTEX
8
CONTOURS_MINEURES
10
16.884
20
179.998
0
VERTEX
8
CONTOURS_MINEURES
10
15.002
20
179.243
0
VERTEX
8
CONTOURS_MINEURES
10
14.218
20
179.215
0
VERTEX
8
CONTOURS_MINEURES
10
9.996
20
178.899
0
VERTEX
8
CONTOURS_MINEURES
10
5.916
20
179.082
0
VERTEX
8
CONTOURS_MINEURES
10
5.001
20
179.169
0
VERTEX
8
CONTOURS_MINEURES
10
4.255
20
179.254
0
VERTEX
8
CONTOURS_MINEURES
10
-0.005
20
179.523
0
SEQEND
0
POLYLINE
8
CONTOURS_MINEURES
66
1
70
0
0
VERTEX
8
CONTOURS_MINEURES
10
-0.005
20
43.367
0
VERTEX
8
CONTOURS_MINEURES
10
2.709
20
42.708
0
VERTEX
8
CONTOURS_MINEURES
10
5.001
20
42.088
0
VERTEX
8
CONTOURS_MINEURES
10
6.535
20
41.533
0
VERTEX
8
CONTOURS_MINEURES
10
9.930
20
39.999
0
VERTEX
8
CONTOURS_MINEURES
10
9.996
20
39.956
0
VERTEX
8
CONTOURS_MINEURES
10
12.861
20
37.861
0
VERTEX
8
CONTOURS_MINEURES
10
15.002
20
36.477
0
VERTEX
8
CONTOURS_MINEURES
10
16.514
20
35.002
0
VERTEX
8
CONTOURS_MINEURES
10
18.069
20
33.069
0
VERTEX
8
CONTOURS_MINEURES
10
19.998
20
31.901
0
VERTEX
8
CONTOURS_MINEURES
10
21.023
20
31.021
0
VERTEX
8
CONTOURS_MINEURES
10
22.526
20
29.995
0
VERTEX
8
CONTOURS_MINEURES
10
25.004
20
27.638
0
VERTEX
8
CONTOURS_MINEURES
10
26.362
20
26.357
0
VERTEX
8
CONTOURS_MINEURES
10
29.444
20
24.999
0
VERTEX
8
CONTOURS_MINEURES
10
29.999
20
24.694
0
VERTEX
8
CONTOURS_MINEURES
10
32.631
20
22.634
0
VERTEX
8
CONTOURS_MINEURES
10
34.995
20
21.561
0
VERTEX
8
CONTOURS_MINEURES
10
36.136
20
21.141
0
VERTEX
8
CONTOURS_MINEURES
10
38.097
20
20.002
0
VERTEX
8
CONTOURS_MINEURES
10
39.625
20
19.627
0
VERTEX
8
CONTOURS_MINEURES
10
40.001
20
19.581
0
VERTEX
8
CONTOURS_MINEURES
10
43.618
20
18.621
0
VERTEX
8
CONTOURS_MINEURES
10
44.996
20
18.163
0
VERTEX
8
CONTOURS_MINEURES
10
47.749
20
17.748
0
VERTEX
8
CONTOURS_MINEURES
10
50.003
20
16.812
0
VERTEX
8
CONTOURS_MINEURES
10
54.645
20
15.348
0
VERTEX
8
CONTOURS_MINEURES
10
54.998
20
15.330
0
VERTEX
8
CONTOURS_MINEURES
10
55.306
20
15.303
0
VERTEX
8
CONTOURS_MINEURES
10
56.936
20
14.995
0
VERTEX
8
CONTOURS_MINEURES
10
60.004
20
14.183
0
VERTEX
8
CONTOURS_MINEURES
10
61.795
20
13.204
0
VERTEX
8
CONTOURS_MINEURES
10
64.999
20
11.787
0
VERTEX
8
CONTOURS_MINEURES
10
65.964
20
10.964
0
VERTEX
8
CONTOURS_MINEURES
10
67.426
20
9.998
0
VERTEX
8
CONTOURS_MINEURES
10
69.995
20
8.317
0
VERTEX
8
CONTOURS_MINEURES
10
71.827
20
6.831
0
VERTEX
8
CONTOURS_MINEURES
10
74.176
20
5.002
0
VERTEX
8
CONTOURS_MINEURES
10
74.654
20
4.656
0
VERTEX
8
CONTOURS_MINEURES
10
75.001
20
4.366
0
VERTEX
8
CONTOURS_MINEURES
10
77.839
20
0.006
0
SEQEND
0
POLYLINE
8
CONTOURS_MINEURES
66
1
70
0
0
VERTEX
8
CONTOURS_MINEURES
10
132.683
20
0.006
0
VERTEX
8
CONTOURS_MINEURES
10
135.000
20
2.861
0
VERTEX
8
CONTOURS_MINEURES
10
135.560
20
4.442
0
VERTEX
8
CONTOURS_MINEURES
10
135.754
20
5.002
0
VERTEX
8
CONTOURS_MINEURES
10
136.248
20
6.251
0
VERTEX
8
CONTOURS_MINEURES
10
137.867
20
9.998
0
VERTEX
8
CONTOURS_MINEURES
10
139.571
20
14.571
0
VERTEX
8
CONTOURS_MINEURES
10
139.747
20
14.995
0
VERTEX
8
CONTOURS_MINEURES
10
139.850
20
15.140
0
VERTEX
8
CONTOURS_MINEURES
10
139.995
20
15.397
0
VERTEX
8
CONTOURS_MINEURES
10
142.140
20
17.141
0
VERTEX
8
CONTOURS_MINEURES
10
145.001
20
19.497
0
VERTEX
8
CONTOURS_MINEURES
10
145.302
20
19.700
0
VERTEX
8
CONTOURS_MINEURES
10
145.741
20
20.002
0
VERTEX
8
CONTOURS_MINEURES
10
146.304
20
21.306
0
VERTEX
8
CONTOURS_MINEURES
10
148.130
20
24.999
0
VERTEX
8
CONTOURS_MINEURES
10
148.680
20
26.316
0
VERTEX
8
CONTOURS_MINEURES
10
149.996
20
28.774
0
VERTEX
8
CONTOURS_MINEURES
10
150.576
20
29.995
0
VERTEX
8
CONTOURS_MINEURES
10
150.055
20
34.944
0
VERTEX
8
CONTOURS_MINEURES
10
150.062
20
35.002
0
VERTEX
8
CONTOURS_MINEURES
10
149.996
20
35.060
0
VERTEX
8
CONTOURS_MINEURES
10
147.454
20
37.456
0
VERTEX
8
CONTOURS_MINEURES
10
145.613
20
39.999
0
VERTEX
8
CONTOURS_MINEURES
10
145.001
20
40.421
0
VERTEX
8
CONTOURS_MINEURES
10
140.033
20
44.995
0
VERTEX
8
CONTOURS_MINEURES
10
139.995
20
45.025
0
VERTEX
8
CONTOURS_MINEURES
10
138.054
20
48.057
0
VERTEX
8
CONTOURS_MINEURES
10
137.437
20
50.003
0
VERTEX
8
CONTOURS_MINEURES
10
135.666
20
54.333
0
VERTEX
8
CONTOURS_MINEURES
10
135.370
20
54.999
0
VERTEX
8
CONTOURS_MINEURES
10
135.261
20
55.261
0
VERTEX
8
CONTOURS_MINEURES
10
135.000
20
55.914
0
VERTEX
8
CONTOURS_MINEURES
10
131.591
20
59.996
0
VERTEX
8
CONTOURS_MINEURES
10
130.919
20
60.912
0
VERTEX
8
CONTOURS_MINEURES
10
130.004
20
62.621
0
VERTEX
8
CONTOURS_MINEURES
10
129.082
20
64.081
0
VERTEX
8
CONTOURS_MINEURES
10
128.692
20
65.003
0
VERTEX
8
CONTOURS_MINEURES
10
127.118
20
67.883
0
VERTEX
8
CONTOURS_MINEURES
10
125.957
20
69.999
0
VERTEX
8
CONTOURS_MINEURES
10
125.633
20
70.633
0
VERTEX
8
CONTOURS_MINEURES
10
124.998
20
71.873
0
VERTEX
8
CONTOURS_MINEURES
10
123.159
20
74.996
0
VERTEX
8
CONTOURS_MINEURES
10
122.005
20
77.003
0
VERTEX
8
CONTOURS_MINEURES
10
120.577
20
80.003
0
VERTEX
8
CONTOURS_MINEURES
10
120.430
20
80.430
0
VERTEX
8
CONTOURS_MINEURES
10
120.003
20
81.788
0
VERTEX
8
CONTOURS_MINEURES
10
119.226
20
84.224
0
VERTEX
8
CONTOURS_MINEURES
10
118.910
20
85.000
0
VERTEX
8
CONTOURS_MINEURES
10
118.395
20
88.392
0
VERTEX
8
CONTOURS_MINEURES
10
118.007
20
89.996
0
VERTEX
8
CONTOURS_MINEURES
10
118.420
20
91.579
0
VERTEX
8
CONTOURS_MINEURES
10
120.003
20
94.555
0
VERTEX
8
CONTOURS_MINEURES
10
120.239
20
95.004
0
VERTEX
8
CONTOURS_MINEURES
10
122.700
20
97.302
0
VERTEX
8
CONTOURS_MINEURES
10
124.998
20
99.291
0
VERTEX
8
CONTOURS_MINEURES
10
125.698
20
100.000
0
VERTEX
8
CONTOURS_MINEURES
10
127.945
20
102.055
0
VERTEX
8
CONTOURS_MINEURES
10
130.004
20
103.890
0
VERTEX
8
CONTOURS_MINEURES
10
131.064
20
104.996
0
VERTEX
8
CONTOURS_MINEURES
10
133.582
20
106.418
0
VERTEX
8
CONTOURS_MINEURES
10
135.000
20
107.110
0
VERTEX
8
CONTOURS_MINEURES
10
138.055
20
110.004
0
VERTEX
8
CONTOURS_MINEURES
10
139.995
20
113.980
0
VERTEX
8
CONTOURS_MINEURES
10
140.466
20
114.530
0
VERTEX
8
CONTOURS_MINEURES
10
140.926
20
115.000
0
VERTEX
8
CONTOURS_MINEURES
10
145.001
20
118.647
0
VERTEX
8
CONTOURS_MINEURES
10
146.655
20
119.997
0
VERTEX
8
CONTOURS_MINEURES
10
149.996
20
123.371
0
VERTEX
8
CONTOURS_MINEURES
10
150.956
20
124.044
0
VERTEX
8
CONTOURS_MINEURES
10
152.190
20
125.004
0
VERTEX
8
CONTOURS_MINEURES
10
153.840
20
126.165
0
VERTEX
8
CONTOURS_MINEURES
10
155.003
20
127.188
0
VERTEX
8
CONTOURS_MINEURES
10
158.799
20
130.001
0
VERTEX
8
CONTOURS_MINEURES
10
159.424
20
130.574
0
VERTEX
8
CONTOURS_MINEURES
10
159.998
20
131.052
0
VERTEX
8
CONTOURS_MINEURES
10
162.928
20
132.925
0
VERTEX
8
CONTOURS_MINEURES
10
165.004
20
134.103
0
VERTEX
8
CONTOURS_MINEURES
10
166.494
20
134.997
0
VERTEX
8
CONTOURS_MINEURES
10
168.541
20
136.459
0
VERTEX
8
CONTOURS_MINEURES
10
170.000
20
137.198
0
SEQEND
0
POLYLINE
8
CONTOURS_MINEURES
66
1
70
0
0
VERTEX
8
CONTOURS_MINEURES
10
170.000
20
180.905
0
VERTEX
8
CONTOURS_MINEURES
10
167.596
20
182.595
0
VERTEX
8
CONTOURS_MINEURES
10
165.004
20
184.787
0
VERTEX
8
CONTOURS_MINEURES
10
164.773
20
185.005
0
VERTEX
8
CONTOURS_MINEURES
10
162.247
20
187.250
0
VERTEX
8
CONTOURS_MINEURES
10
159.998
20
189.028
0
VERTEX
8
CONTOURS_MINEURES
10
159.336
20
189.340
0
VERTEX
8
CONTOURS_MINEURES
10
158.469
20
190.002
0
VERTEX
8
CONTOURS_MINEURES
10
156.332
20
191.331
0
VERTEX
8
CONTOURS_MINEURES
10
155.003
20
191.983
0
VERTEX
8
CONTOURS_MINEURES
10
152.983
20
192.982
0
VERTEX
8
CONTOURS_MINEURES
10
149.996
20
194.512
0
VERTEX
8
CONTOURS_MINEURES
10
148.890
20
194.998
0
VERTEX
8
CONTOURS_MINEURES
10
146.229
20
196.226
0
VERTEX
8
CONTOURS_MINEURES
10
145.001
20
196.821
0
VERTEX
8
CONTOURS_MINEURES
10
141.605
20
198.387
0
VERTEX
8
CONTOURS_MINEURES
10
139.995
20
198.992
0
VERTEX
8
CONTOURS_MINEURES
10
139.553
20
199.553
0
VERTEX
8
CONTOURS_MINEURES
10
139.379
20
199.994
0
VERTEX
8
CONTOURS_MINEURES
10
137.245
20
202.245
0
VERTEX
8
CONTOURS_MINEURES
10
135.000
20
203.049
0
VERTEX
8
CONTOURS_MINEURES
10
130.458
20
205.002
0
SEQEND
0
POLYLINE
8
CONTOURS_MINEURES
66
1
70
0
0
VERTEX
8
CONTOURS_MINEURES
10
72.389
20
205.002
0
VERTEX
8
CONTOURS_MINEURES
10
70.585
20
204.412
0
VERTEX
8
CONTOURS_MINEURES
10
69.995
20
204.251
0
VERTEX
8
CONTOURS_MINEURES
10
68.697
20
203.701
0
VERTEX
8
CONTOURS_MINEURES
10
64.999
20
202.302
0
VERTEX
8
CONTOURS_MINEURES
10
63.340
20
201.658
0
VERTEX
8
CONTOURS_MINEURES
10
60.256
20
199.994
0
VERTEX
8
CONTOURS_MINEURES
10
60.122
20
199.877
0
VERTEX
8
CONTOURS_MINEURES
10
60.004
20
199.791
0
VERTEX
8
CONTOURS_MINEURES
10
59.493
20
199.485
0
VERTEX
8
CONTOURS_MINEURES
10
54.998
20
196.757
0
VERTEX
8
CONTOURS_MINEURES
10
53.763
20
196.233
0
VERTEX
8
CONTOURS_MINEURES
10
51.395
20
194.998
0
VERTEX
8
CONTOURS_MINEURES
10
50.003
20
194.253
0
VERTEX
8
CONTOURS_MINEURES
10
48.652
20
193.650
0
VERTEX
8
CONTOURS_MINEURES
10
44.996
20
191.901
0
VERTEX
8
CONTOURS_MINEURES
10
43.569
20
191.429
0
VERTEX
8
CONTOURS_MINEURES
10
40.001
20
190.288
0
VERTEX
8
CONTOURS_MINEURES
10
39.815
20
190.188
0
VERTEX
8
CONTOURS_MINEURES
10
39.340
20
190.002
0
VERTEX
8
CONTOURS_MINEURES
10
34.995
20
187.557
0
VERTEX
8
CONTOURS_MINEURES
10
32.301
20
185.005
0
VERTEX
8
CONTOURS_MINEURES
10
31.106
20
183.896
0
VERTEX
8
CONTOURS_MINEURES
10
29.999
20
183.068
0
VERTEX
8
CONTOURS_MINEURES
10
26.816
20
179.998
0
VERTEX
8
CONTOURS_MINEURES
10
25.901
20
179.100
0
VERTEX
8
CONTOURS_MINEURES
10
25.004
20
178.404
0
VERTEX
8
CONTOURS_MINEURES
10
23.292
20
176.710
0
VERTEX
8
CONTOURS_MINEURES
10
19.998
20
175.034
0
VERTEX
8
CONTOURS_MINEURES
10
19.866
20
175.001
0
VERTEX
8
CONTOURS_MINEURES
10
15.002
20
173.867
0
VERTEX
8
CONTOURS_MINEURES
10
11.292
20
173.708
0
VERTEX
8
CONTOURS_MINEURES
10
9.996
20
173.807
0
VERTEX
8
CONTOURS_MINEURES
10
8.969
20
173.974
0
VERTEX
8
CONTOURS_MINEURES
10
5.001
20
174.383
0
VERTEX
8
CONTOURS_MINEURES
10
-0.005
20
175.001
0
SEQEND
0
POLYLINE
8
CONTOURS_MINEURES
66
1
70
0
0
VERTEX
8
CONTOURS_MINEURES
10
-0.005
20
49.030
0
VERTEX
8
CONTOURS_MINEURES
10
1.294
20
48.703
0
VERTEX
8
CONTOURS_MINEURES
10
5.001
20
47.803
0
VERTEX
8
CONTOURS_MINEURES
10
8.484
20
46.511
0
VERTEX
8
CONTOURS_MINEURES
10
9.996
20
45.830
0
VERTEX
8
CONTOURS_MINEURES
10
10.576
20
45.575
0
VERTEX
8
CONTOURS_MINEURES
10
11.917
20
44.995
0
VERTEX
8
CONTOURS_MINEURES
10
15.002
20
43.410
0
VERTEX
8
CONTOURS_MINEURES
10
16.474
20
41.471
0
VERTEX
8
CONTOURS_MINEURES
10
17.579
20
39.999
0
VERTEX
8
CONTOURS_MINEURES
10
19.998
20
37.612
0
VERTEX
8
CONTOURS_MINEURES
10
21.957
20
36.958
0
VERTEX
8
CONTOURS_MINEURES
10
25.004
20
35.057
0
VERTEX
8
CONTOURS_MINEURES
10
25.044
20
35.042
0
VERTEX
8
CONTOURS_MINEURES
10
25.093
20
35.002
0
VERTEX
8
CONTOURS_MINEURES
10
27.886
20
32.884
0
VERTEX
8
CONTOURS_MINEURES
10
29.999
20
31.560
0
VERTEX
8
CONTOURS_MINEURES
10
32.448
20
29.995
0
VERTEX
8
CONTOURS_MINEURES
10
34.995
20
28.319
0
VERTEX
8
CONTOURS_MINEURES
10
37.723
20
27.722
0
VERTEX
8
CONTOURS_MINEURES
10
40.001
20
26.859
0
VERTEX
8
CONTOURS_MINEURES
10
43.906
20
26.089
0
VERTEX
8
CONTOURS_MINEURES
10
44.996
20
26.517
0
VERTEX
8
CONTOURS_MINEURES
10
49.299
20
25.701
0
VERTEX
8
CONTOURS_MINEURES
10
50.003
20
25.847
0
VERTEX
8
CONTOURS_MINEURES
10
50.443
20
25.439
0
VERTEX
8
CONTOURS_MINEURES
10
54.498
20
24.999
0
VERTEX
8
CONTOURS_MINEURES
10
54.882
20
24.882
0
VERTEX
8
CONTOURS_MINEURES
10
54.998
20
24.852
0
VERTEX
8
CONTOURS_MINEURES
10
55.276
20
24.721
0
VERTEX
8
CONTOURS_MINEURES
10
60.004
20
21.418
0
VERTEX
8
CONTOURS_MINEURES
10
60.548
20
20.547
0
VERTEX
8
CONTOURS_MINEURES
10
61.235
20
20.002
0
VERTEX
8
CONTOURS_MINEURES
10
64.999
20
18.639
0
VERTEX
8
CONTOURS_MINEURES
10
67.247
20
17.247
0
VERTEX
8
CONTOURS_MINEURES
10
69.995
20
16.269
0
VERTEX
8
CONTOURS_MINEURES
10
73.051
20
14.995
0
VERTEX
8
CONTOURS_MINEURES
10
75.001
20
13.373
0
VERTEX
8
CONTOURS_MINEURES
10
76.415
20
11.413
0
VERTEX
8
CONTOURS_MINEURES
10
77.451
20
9.998
0
VERTEX
8
CONTOURS_MINEURES
10
79.996
20
6.118
0
VERTEX
8
CONTOURS_MINEURES
10
82.299
20
5.002
0
VERTEX
8
CONTOURS_MINEURES
10
84.125
20
4.126
0
VERTEX
8
CONTOURS_MINEURES
10
85.003
20
3.797
0
VERTEX
8
CONTOURS_MINEURES
10
86.393
20
3.611
0
VERTEX
8
CONTOURS_MINEURES
10
89.998
20
2.920
0
VERTEX
8
CONTOURS_MINEURES
10
92.449
20
2.451
0
VERTEX
8
CONTOURS_MINEURES
10
95.004
20
2.107
0
VERTEX
8
CONTOURS_MINEURES
10
98.510
20
1.495
0
VERTEX
8
CONTOURS_MINEURES
10
99.999
20
1.364
0
VERTEX
8
CONTOURS_MINEURES
10
101.489
20
1.495
0
VERTEX
8
CONTOURS_MINEURES
10
104.995
20
1.528
0
VERTEX
8
CONTOURS_MINEURES
10
107.743
20
2.260
0
VERTEX
8
CONTOURS_MINEURES
10
110.001
20
2.682
0
VERTEX
8
CONTOURS_MINEURES
10
113.190
20
3.195
0
VERTEX
8
CONTOURS_MINEURES
10
114.996
20
3.443
0
VERTEX
8
CONTOURS_MINEURES
10
118.949
20
3.950
0
VERTEX
8
CONTOURS_MINEURES
10
120.003
20
4.085
0
VERTEX
8
CONTOURS_MINEURES
10
123.999
20
5.002
0
VERTEX
8
CONTOURS_MINEURES
10
124.826
20
5.174
0
VERTEX
8
CONTOURS_MINEURES
10
124.998
20
5.231
0
VERTEX
8
CONTOURS_MINEURES
10
127.274
20
7.273
0
VERTEX
8
CONTOURS_MINEURES
10
130.004
20
9.676
0
VERTEX
8
CONTOURS_MINEURES
10
130.169
20
9.834
0
VERTEX
8
CONTOURS_MINEURES
10
130.279
20
9.998
0
VERTEX
8
CONTOURS_MINEURES
10
130.886
20
10.880
0
VERTEX
8
CONTOURS_MINEURES
10
133.692
20
14.995
0
VERTEX
8
CONTOURS_MINEURES
10
134.391
20
15.604
0
VERTEX
8
CONTOURS_MINEURES
10
135.000
20
16.082
0
VERTEX
8
CONTOURS_MINEURES
10
136.627
20
18.371
0
VERTEX
8
CONTOURS_MINEURES
10
137.548
20
20.002
0
VERTEX
8
CONTOURS_MINEURES
10
138.386
20
23.389
0
VERTEX
8
CONTOURS_MINEURES
10
138.765
20
24.999
0
VERTEX
8
CONTOURS_MINEURES
10
138.864
20
26.130
0
VERTEX
8
CONTOURS_MINEURES
10
139.476
20
29.995
0
VERTEX
8
CONTOURS_MINEURES
10
139.222
20
34.228
0
VERTEX
8
CONTOURS_MINEURES
10
139.253
20
35.002
0
VERTEX
8
CONTOURS_MINEURES
10
139.087
20
35.911
0
VERTEX
8
CONTOURS_MINEURES
10
138.226
20
39.999
0
VERTEX
8
CONTOURS_MINEURES
10
137.355
20
42.640
0
VERTEX
8
CONTOURS_MINEURES
10
136.244
20
44.995
0
VERTEX
8
CONTOURS_MINEURES
10
135.757
20
45.755
0
VERTEX
8
CONTOURS_MINEURES
10
135.000
20
48.143
0
VERTEX
8
CONTOURS_MINEURES
10
133.556
20
50.003
0
VERTEX
8
CONTOURS_MINEURES
10
131.780
20
51.779
0
VERTEX
8
CONTOURS_MINEURES
10
130.004
20
54.000
0
VERTEX
8
CONTOURS_MINEURES
10
129.152
20
54.999
0
VERTEX
8
CONTOURS_MINEURES
10
127.074
20
57.924
0
VERTEX
8
CONTOURS_MINEURES
10
125.520
20
59.996
0
VERTEX
8
CONTOURS_MINEURES
10
125.318
20
60.316
0
VERTEX
8
CONTOURS_MINEURES
10
124.998
20
61.073
0
VERTEX
8
CONTOURS_MINEURES
10
122.974
20
65.003
0
VERTEX
8
CONTOURS_MINEURES
10
121.785
20
66.786
0
VERTEX
8
CONTOURS_MINEURES
10
120.003
20
69.999
0
VERTEX
8
CONTOURS_MINEURES
10
118.012
20
73.010
0
VERTEX
8
CONTOURS_MINEURES
10
117.378
20
74.996
0
VERTEX
8
CONTOURS_MINEURES
10
114.996
20
79.786
0
VERTEX
8
CONTOURS_MINEURES
10
114.847
20
80.003
0
VERTEX
8
CONTOURS_MINEURES
10
114.715
20
80.285
0
VERTEX
8
CONTOURS_MINEURES
10
112.426
20
85.000
0
VERTEX
8
CONTOURS_MINEURES
10
111.912
20
88.084
0
VERTEX
8
CONTOURS_MINEURES
10
111.447
20
89.996
0
VERTEX
8
CONTOURS_MINEURES
10
111.964
20
91.963
0
VERTEX
8
CONTOURS_MINEURES
10
112.621
20
95.004
0
VERTEX
8
CONTOURS_MINEURES
10
114.996
20
97.883
0
VERTEX
8
CONTOURS_MINEURES
10
116.022
20
98.976
0
VERTEX
8
CONTOURS_MINEURES
10
117.314
20
100.000
0
VERTEX
8
CONTOURS_MINEURES
10
120.003
20
102.055
0
VERTEX
8
CONTOURS_MINEURES
10
121.579
20
103.420
0
VERTEX
8
CONTOURS_MINEURES
10
123.878
20
104.996
0
VERTEX
8
CONTOURS_MINEURES
10
124.998
20
105.432
0
VERTEX
8
CONTOURS_MINEURES
10
128.023
20
106.978
0
VERTEX
8
CONTOURS_MINEURES
10
130.004
20
107.816
0
VERTEX
8
CONTOURS_MINEURES
10
131.400
20
108.604
0
VERTEX
8
CONTOURS_MINEURES
10
134.267
20
110.004
0
VERTEX
8
CONTOURS_MINEURES
10
134.604
20
110.399
0
VERTEX
8
CONTOURS_MINEURES
10
135.000
20
110.830
0
VERTEX
8
CONTOURS_MINEURES
10
136.966
20
115.000
0
VERTEX
8
CONTOURS_MINEURES
10
137.870
20
117.126
0
VERTEX
8
CONTOURS_MINEURES
10
139.889
20
119.997
0
VERTEX
8
CONTOURS_MINEURES
10
139.995
20
120.194
0
VERTEX
8
CONTOURS_MINEURES
10
142.216
20
122.783
0
VERTEX
8
CONTOURS_MINEURES
10
144.553
20
125.004
0
VERTEX
8
CONTOURS_MINEURES
10
144.743
20
125.261
0
VERTEX
8
CONTOURS_MINEURES
10
145.001
20
125.484
0
VERTEX
8
CONTOURS_MINEURES
10
149.785
20
130.001
0
VERTEX
8
CONTOURS_MINEURES
10
149.876
20
130.121
0
VERTEX
8
CONTOURS_MINEURES
10
149.996
20
130.234
0
VERTEX
8
CONTOURS_MINEURES
10
154.361
20
134.997
0
VERTEX
8
CONTOURS_MINEURES
10
154.616
20
135.384
0
VERTEX
8
CONTOURS_MINEURES
10
155.003
20
135.822
0
VERTEX
8
CONTOURS_MINEURES
10
158.689
20
140.004
0
VERTEX
8
CONTOURS_MINEURES
10
159.998
20
141.691
0
VERTEX
8
CONTOURS_MINEURES
10
161.699
20
143.303
0
VERTEX
8
CONTOURS_MINEURES
10
163.083
20
145.001
0
VERTEX
8
CONTOURS_MINEURES
10
165.004
20
147.036
0
VERTEX
8
CONTOURS_MINEURES
10
167.145
20
147.856
0
VERTEX
8
CONTOURS_MINEURES
10
170.000
20
148.853
0
SEQEND
0
POLYLINE
8
CONTOURS_MINEURES
66
1
70
0
0
VERTEX
8
CONTOURS_MINEURES
10
170.000
20
177.438
0
VERTEX
8
CONTOURS_MINEURES
10
168.194
20
178.192
0
VERTEX
8
CONTOURS_MINEURES
10
166.510
20
179.998
0
VERTEX
8
CONTOURS_MINEURES
10
165.625
20
180.620
0
VERTEX
8
CONTOURS_MINEURES
10
165.004
20
181.145
0
VERTEX
8
CONTOURS_MINEURES
10
160.922
20
185.005
0
VERTEX
8
CONTOURS_MINEURES
10
160.433
20
185.440
0
VERTEX
8
CONTOURS_MINEURES
10
159.998
20
185.784
0
VERTEX
8
CONTOURS_MINEURES
10
157.131
20
187.134
0
VERTEX
8
CONTOURS_MINEURES
10
155.003
20
188.757
0
VERTEX
8
CONTOURS_MINEURES
10
154.183
20
189.184
0
VERTEX
8
CONTOURS_MINEURES
10
153.118
20
190.002
0
VERTEX
8
CONTOURS_MINEURES
10
151.031
20
191.034
0
VERTEX
8
CONTOURS_MINEURES
10
149.996
20
191.564
0
VERTEX
8
CONTOURS_MINEURES
10
147.210
20
192.789
0
VERTEX
8
CONTOURS_MINEURES
10
145.001
20
193.520
0
VERTEX
8
CONTOURS_MINEURES
10
143.789
20
193.789
0
VERTEX
8
CONTOURS_MINEURES
10
140.918
20
194.998
0
VERTEX
8
CONTOURS_MINEURES
10
139.995
20
195.345
0
VERTEX
8
CONTOURS_MINEURES
10
137.947
20
197.946
0
VERTEX
8
CONTOURS_MINEURES
10
137.139
20
199.994
0
VERTEX
8
CONTOURS_MINEURES
10
136.096
20
201.094
0
VERTEX
8
CONTOURS_MINEURES
10
135.000
20
201.487
0
VERTEX
8
CONTOURS_MINEURES
10
132.393
20
202.608
0
VERTEX
8
CONTOURS_MINEURES
10
130.004
20
203.382
0
VERTEX
8
CONTOURS_MINEURES
10
126.609
20
205.002
0
SEQEND
0
POLYLINE
8
CONTOURS_MINEURES
66
1
70
0
0
VERTEX
8
CONTOURS_MINEURES
10
-0.005
20
57.676
0
VERTEX
8
CONTOURS_MINEURES
10
3.529
20
54.999
0
VERTEX
8
CONTOURS_MINEURES
10
4.346
20
54.345
0
VERTEX
8
CONTOURS_MINEURES
10
5.001
20
54.161
0
VERTEX
8
CONTOURS_MINEURES
10
7.082
20
52.917
0
VERTEX
8
CONTOURS_MINEURES
10
9.996
20
51.153
0
VERTEX
8
CONTOURS_MINEURES
10
10.835
20
50.839
0
VERTEX
8
CONTOURS_MINEURES
10
12.010
20
50.003
0
VERTEX
8
CONTOURS_MINEURES
10
14.089
20
49.089
0
VERTEX
8
CONTOURS_MINEURES
10
15.002
20
48.694
0
VERTEX
8
CONTOURS_MINEURES
10
17.181
20
47.180
0
VERTEX
8
CONTOURS_MINEURES
10
18.340
20
44.995
0
VERTEX
8
CONTOURS_MINEURES
10
19.056
20
44.053
0
VERTEX
8
CONTOURS_MINEURES
10
19.998
20
42.798
0
VERTEX
8
CONTOURS_MINEURES
10
24.014
20
40.987
0
VERTEX
8
CONTOURS_MINEURES
10
25.004
20
40.619
0
VERTEX
8
CONTOURS_MINEURES
10
26.346
20
39.999
0
VERTEX
8
CONTOURS_MINEURES
10
29.024
20
39.024
0
VERTEX
8
CONTOURS_MINEURES
10
29.999
20
38.238
0
VERTEX
8
CONTOURS_MINEURES
10
33.824
20
36.174
0
VERTEX
8
CONTOURS_MINEURES
10
34.995
20
35.666
0
VERTEX
8
CONTOURS_MINEURES
10
36.872
20
35.002
0
VERTEX
8
CONTOURS_MINEURES
10
40.001
20
34.102
0
VERTEX
8
CONTOURS_MINEURES
10
44.069
20
34.073
0
VERTEX
8
CONTOURS_MINEURES
10
44.996
20
34.241
0
VERTEX
8
CONTOURS_MINEURES
10
49.423
20
34.422
0
VERTEX
8
CONTOURS_MINEURES
10
50.003
20
34.459
0
VERTEX
8
CONTOURS_MINEURES
10
50.756
20
34.247
0
VERTEX
8
CONTOURS_MINEURES
10
54.998
20
32.923
0
VERTEX
8
CONTOURS_MINEURES
10
58.920
20
31.079
0
VERTEX
8
CONTOURS_MINEURES
10
60.004
20
30.710
0
VERTEX
8
CONTOURS_MINEURES
10
61.253
20
29.995
0
VERTEX
8
CONTOURS_MINEURES
10
63.569
20
28.564
0
VERTEX
8
CONTOURS_MINEURES
10
64.999
20
27.457
0
VERTEX
8
CONTOURS_MINEURES
10
67.457
20
24.999
0
VERTEX
8
CONTOURS_MINEURES
10
69.995
20
21.614
0
VERTEX
8
CONTOURS_MINEURES
10
70.693
20
20.699
0
VERTEX
8
CONTOURS_MINEURES
10
71.312
20
20.002
0
VERTEX
8
CONTOURS_MINEURES
10
75.001
20
18.299
0
VERTEX
8
CONTOURS_MINEURES
10
79.716
20
15.276
0
VERTEX
8
CONTOURS_MINEURES
10
79.996
20
15.090
0
VERTEX
8
CONTOURS_MINEURES
10
80.460
20
14.995
0
VERTEX
8
CONTOURS_MINEURES
10
83.551
20
13.546
0
VERTEX
8
CONTOURS_MINEURES
10
85.003
20
12.847
0
VERTEX
8
CONTOURS_MINEURES
10
87.153
20
12.149
0
VERTEX
8
CONTOURS_MINEURES
10
89.998
20
11.473
0
VERTEX
8
CONTOURS_MINEURES
10
94.060
20
10.941
0
VERTEX
8
CONTOURS_MINEURES
10
95.004
20
10.824
0
VERTEX
8
CONTOURS_MINEURES
10
99.280
20
10.718
0
VERTEX
8
CONTOURS_MINEURES
10
99.999
20
10.712
0
VERTEX
8
CONTOURS_MINEURES
10
104.176
20
10.817
0
VERTEX
8
CONTOURS_MINEURES
10
104.995
20
10.899
0
VERTEX
8
CONTOURS_MINEURES
10
106.017
20
11.018
0
VERTEX
8
CONTOURS_MINEURES
10
110.001
20
11.318
0
VERTEX
8
CONTOURS_MINEURES
10
111.590
20
11.588
0
VERTEX
8
CONTOURS_MINEURES
10
114.996
20
12.140
0
VERTEX
8
CONTOURS_MINEURES
10
117.500
20
12.497
0
VERTEX
8
CONTOURS_MINEURES
10
120.003
20
13.293
0
VERTEX
8
CONTOURS_MINEURES
10
122.719
20
14.995
0
VERTEX
8
CONTOURS_MINEURES
10
124.998
20
16.108
0
VERTEX
8
CONTOURS_MINEURES
10
127.147
20
17.853
0
VERTEX
8
CONTOURS_MINEURES
10
130.004
20
19.921
0
VERTEX
8
CONTOURS_MINEURES
10
130.048
20
19.959
0
VERTEX
8
CONTOURS_MINEURES
10
130.103
20
20.002
0
VERTEX
8
CONTOURS_MINEURES
10
130.186
20
20.184
0
VERTEX
8
CONTOURS_MINEURES
10
132.242
20
24.999
0
VERTEX
8
CONTOURS_MINEURES
10
132.737
20
27.262
0
VERTEX
8
CONTOURS_MINEURES
10
133.201
20
29.995
0
VERTEX
8
CONTOURS_MINEURES
10
133.479
20
33.478
0
VERTEX
8
CONTOURS_MINEURES
10
133.373
20
35.002
0
VERTEX
8
CONTOURS_MINEURES
10
132.360
20
37.359
0
VERTEX
8
CONTOURS_MINEURES
10
131.877
20
39.999
0
VERTEX
8
CONTOURS_MINEURES
10
131.130
20
41.125
0
VERTEX
8
CONTOURS_MINEURES
10
130.004
20
43.607
0
VERTEX
8
CONTOURS_MINEURES
10
129.535
20
44.527
0
VERTEX
8
CONTOURS_MINEURES
10
129.403
20
44.995
0
VERTEX
8
CONTOURS_MINEURES
10
127.975
20
47.025
0
VERTEX
8
CONTOURS_MINEURES
10
125.872
20
50.003
0
VERTEX
8
CONTOURS_MINEURES
10
124.998
20
51.050
0
VERTEX
8
CONTOURS_MINEURES
10
123.087
20
53.088
0
VERTEX
8
CONTOURS_MINEURES
10
122.057
20
54.999
0
VERTEX
8
CONTOURS_MINEURES
10
121.205
20
56.202
0
VERTEX
8
CONTOURS_MINEURES
10
120.003
20
58.255
0
VERTEX
8
CONTOURS_MINEURES
10
119.313
20
59.307
0
VERTEX
8
CONTOURS_MINEURES
10
118.947
20
59.996
0
VERTEX
8
CONTOURS_MINEURES
10
117.577
20
62.577
0
VERTEX
8
CONTOURS_MINEURES
10
115.930
20
65.003
0
VERTEX
8
CONTOURS_MINEURES
10
114.996
20
66.604
0
VERTEX
8
CONTOURS_MINEURES
10
113.765
20
68.768
0
VERTEX
8
CONTOURS_MINEURES
10
113.021
20
69.999
0
VERTEX
8
CONTOURS_MINEURES
10
111.645
20
73.351
0
VERTEX
8
CONTOURS_MINEURES
10
110.942
20
74.996
0
VERTEX
8
CONTOURS_MINEURES
10
110.001
20
76.352
0
VERTEX
8
CONTOURS_MINEURES
10
107.305
20
80.003
0
VERTEX
8
CONTOURS_MINEURES
10
106.551
20
81.557
0
VERTEX
8
CONTOURS_MINEURES
10
105.211
20
85.000
0
VERTEX
8
CONTOURS_MINEURES
10
104.995
20
87.141
0
VERTEX
8
CONTOURS_MINEURES
10
104.737
20
89.738
0
VERTEX
8
CONTOURS_MINEURES
10
104.727
20
89.996
0
VERTEX
8
CONTOURS_MINEURES
10
104.758
20
90.233
0
VERTEX
8
CONTOURS_MINEURES
10
104.995
20
91.599
0
VERTEX
8
CONTOURS_MINEURES
10
105.594
20
95.004
0
VERTEX
8
CONTOURS_MINEURES
10
106.488
20
96.494
0
VERTEX
8
CONTOURS_MINEURES
10
108.290
20
100.000
0
VERTEX
8
CONTOURS_MINEURES
10
110.001
20
101.480
0
VERTEX
8
CONTOURS_MINEURES
10
111.938
20
103.059
0
VERTEX
8
CONTOURS_MINEURES
10
114.608
20
104.996
0
VERTEX
8
CONTOURS_MINEURES
10
114.996
20
105.152
0
VERTEX
8
CONTOURS_MINEURES
10
118.402
20
106.597
0
VERTEX
8
CONTOURS_MINEURES
10
120.003
20
107.183
0
VERTEX
8
CONTOURS_MINEURES
10
123.461
20
108.463
0
VERTEX
8
CONTOURS_MINEURES
10
124.998
20
109.060
0
VERTEX
8
CONTOURS_MINEURES
10
125.622
20
109.379
0
VERTEX
8
CONTOURS_MINEURES
10
127.097
20
110.004
0
VERTEX
8
CONTOURS_MINEURES
10
130.004
20
112.814
0
VERTEX
8
CONTOURS_MINEURES
10
131.010
20
113.994
0
VERTEX
8
CONTOURS_MINEURES
10
131.933
20
115.000
0
VERTEX
8
CONTOURS_MINEURES
10
133.296
20
116.704
0
VERTEX
8
CONTOURS_MINEURES
10
135.000
20
118.706
0
VERTEX
8
CONTOURS_MINEURES
10
135.385
20
119.611
0
VERTEX
8
CONTOURS_MINEURES
10
135.656
20
119.997
0
VERTEX
8
CONTOURS_MINEURES
10
136.420
20
121.421
0
VERTEX
8
CONTOURS_MINEURES
10
138.430
20
125.004
0
VERTEX
8
CONTOURS_MINEURES
10
139.995
20
128.941
0
VERTEX
8
CONTOURS_MINEURES
10
140.446
20
129.550
0
VERTEX
8
CONTOURS_MINEURES
10
140.968
20
130.001
0
VERTEX
8
CONTOURS_MINEURES
10
142.917
20
132.080
0
VERTEX
8
CONTOURS_MINEURES
10
145.001
20
134.885
0
VERTEX
8
CONTOURS_MINEURES
10
145.049
20
134.949
0
VERTEX
8
CONTOURS_MINEURES
10
145.101
20
134.997
0
VERTEX
8
CONTOURS_MINEURES
10
145.435
20
135.432
0
VERTEX
8
CONTOURS_MINEURES
10
149.060
20
140.004
0
VERTEX
8
CONTOURS_MINEURES
10
149.570
20
140.431
0
VERTEX
8
CONTOURS_MINEURES
10
149.996
20
140.917
0
VERTEX
8
CONTOURS_MINEURES
10
153.482
20
145.001
0
VERTEX
8
CONTOURS_MINEURES
10
155.003
20
146.666
0
VERTEX
8
CONTOURS_MINEURES
10
156.791
20
148.208
0
VERTEX
8
CONTOURS_MINEURES
10
158.154
20
149.997
0
VERTEX
8
CONTOURS_MINEURES
10
159.998
20
151.739
0
VERTEX
8
CONTOURS_MINEURES
10
161.860
20
153.142
0
VERTEX
8
CONTOURS_MINEURES
10
163.464
20
155.005
0
VERTEX
8
CONTOURS_MINEURES
10
165.004
20
157.003
0
VERTEX
8
CONTOURS_MINEURES
10
169.412
20
160.001
0
VERTEX
8
CONTOURS_MINEURES
10
170.000
20
160.770
0
SEQEND
0
POLYLINE
8
CONTOURS_MINEURES
66
1
70
0
0
VERTEX
8
CONTOURS_MINEURES
10
170.000
20
172.153
0
VERTEX
8
CONTOURS_MINEURES
10
167.439
20
175.001
0
VERTEX
8
CONTOURS_MINEURES
10
165.721
20
175.719
0
VERTEX
8
CONTOURS_MINEURES
10
165.004
20
176.488
0
VERTEX
8
CONTOURS_MINEURES
10
162.615
20
177.613
0
VERTEX
8
CONTOURS_MINEURES
10
160.822
20
179.998
0
VERTEX
8
CONTOURS_MINEURES
10
159.998
20
180.753
0
VERTEX
8
CONTOURS_MINEURES
10
156.031
20
183.974
0
VERTEX
8
CONTOURS_MINEURES
10
155.003
20
184.742
0
VERTEX
8
CONTOURS_MINEURES
10
154.741
20
185.005
0
VERTEX
8
CONTOURS_MINEURES
10
151.623
20
186.628
0
VERTEX
8
CONTOURS_MINEURES
10
149.996
20
187.877
0
VERTEX
8
CONTOURS_MINEURES
10
145.001
20
190.002
0
VERTEX
8
CONTOURS_MINEURES
10
140.904
20
190.909
0
VERTEX
8
CONTOURS_MINEURES
10
139.995
20
191.292
0
VERTEX
8
CONTOURS_MINEURES
10
137.397
20
194.998
0
VERTEX
8
CONTOURS_MINEURES
10
136.341
20
196.340
0
VERTEX
8
CONTOURS_MINEURES
10
135.000
20
199.739
0
VERTEX
8
CONTOURS_MINEURES
10
134.743
20
199.994
0
VERTEX
8
CONTOURS_MINEURES
10
130.004
20
201.531
0
VERTEX
8
CONTOURS_MINEURES
10
127.068
20
202.932
0
VERTEX
8
CONTOURS_MINEURES
10
124.998
20
203.323
0
VERTEX
8
CONTOURS_MINEURES
10
123.200
20
203.199
0
VERTEX
8
CONTOURS_MINEURES
10
120.003
20
204.503
0
VERTEX
8
CONTOURS_MINEURES
10
119.482
20
204.481
0
VERTEX
8
CONTOURS_MINEURES
10
114.996
20
204.716
0
VERTEX
8
CONTOURS_MINEURES
10
110.620
20
204.382
0
VERTEX
8
CONTOURS_MINEURES
10
110.001
20
204.304
0
VERTEX
8
CONTOURS_MINEURES
10
109.247
20
204.248
0
VERTEX
8
CONTOURS_MINEURES
10
104.995
20
203.835
0
VERTEX
8
CONTOURS_MINEURES
10
101.692
20
203.305
0
VERTEX
8
CONTOURS_MINEURES
10
99.999
20
203.238
0
VERTEX
8
CONTOURS_MINEURES
10
97.293
20
202.708
0
VERTEX
8
CONTOURS_MINEURES
10
95.004
20
202.621
0
VERTEX
8
CONTOURS_MINEURES
10
92.510
20
202.489
0
VERTEX
8
CONTOURS_MINEURES
10
89.998
20
202.336
0
VERTEX
8
CONTOURS_MINEURES
10
87.167
20
202.164
0
VERTEX
8
CONTOURS_MINEURES
10
85.003
20
202.227
0
VERTEX
8
CONTOURS_MINEURES
10
82.205
20
202.204
0
VERTEX
8
CONTOURS_MINEURES
10
79.996
20
202.158
0
VERTEX
8
CONTOURS_MINEURES
10
76.270
20
201.267
0
VERTEX
8
CONTOURS_MINEURES
10
75.001
20
201.110
0
VERTEX
8
CONTOURS_MINEURES
10
74.161
20
200.835
0
VERTEX
8
CONTOURS_MINEURES
10
71.080
20
199.994
0
VERTEX
8
CONTOURS_MINEURES
10
69.995
20
199.382
0
VERTEX
8
CONTOURS_MINEURES
10
66.748
20
196.747
0
VERTEX
8
CONTOURS_MINEURES
10
64.999
20
195.308
0
VERTEX
8
CONTOURS_MINEURES
10
64.835
20
195.163
0
VERTEX
8
CONTOURS_MINEURES
10
64.607
20
194.998
0
VERTEX
8
CONTOURS_MINEURES
10
60.004
20
191.205
0
VERTEX
8
CONTOURS_MINEURES
10
59.289
20
190.715
0
VERTEX
8
CONTOURS_MINEURES
10
58.061
20
190.002
0
VERTEX
8
CONTOURS_MINEURES
10
54.998
20
188.051
0
VERTEX
8
CONTOURS_MINEURES
10
50.343
20
185.346
0
VERTEX
8
CONTOURS_MINEURES
10
50.003
20
185.147
0
VERTEX
8
CONTOURS_MINEURES
10
49.907
20
185.101
0
VERTEX
8
CONTOURS_MINEURES
10
49.756
20
185.005
0
VERTEX
8
CONTOURS_MINEURES
10
44.996
20
182.341
0
VERTEX
8
CONTOURS_MINEURES
10
40.167
20
180.165
0
VERTEX
8
CONTOURS_MINEURES
10
40.001
20
180.088
0
VERTEX
8
CONTOURS_MINEURES
10
39.828
20
179.998
0
VERTEX
8
CONTOURS_MINEURES
10
34.995
20
177.431
0
VERTEX
8
CONTOURS_MINEURES
10
31.843
20
175.001
0
VERTEX
8
CONTOURS_MINEURES
10
30.762
20
174.238
0
VERTEX
8
CONTOURS_MINEURES
10
29.999
20
173.666
0
VERTEX
8
CONTOURS_MINEURES
10
25.119
20
170.005
0
VERTEX
8
CONTOURS_MINEURES
10
25.004
20
169.930
0
VERTEX
8
CONTOURS_MINEURES
10
24.886
20
169.887
0
VERTEX
8
CONTOURS_MINEURES
10
19.998
20
167.662
0
VERTEX
8
CONTOURS_MINEURES
10
17.357
20
167.645
0
VERTEX
8
CONTOURS_MINEURES
10
15.002
20
167.888
0
VERTEX
8
CONTOURS_MINEURES
10
13.131
20
168.134
0
VERTEX
8
CONTOURS_MINEURES
10
9.996
20
168.372
0
VERTEX
8
CONTOURS_MINEURES
10
8.475
20
168.480
0
VERTEX
8
CONTOURS_MINEURES
10
5.001
20
169.105
0
VERTEX
8
CONTOURS_MINEURES
10
0.271
20
169.729
0
VERTEX
8
CONTOURS_MINEURES
10
-0.005
20
169.753
0
SEQEND
0
POLYLINE
8
CONTOURS_MINEURES
66
1
70
0
0
VERTEX
8
CONTOURS_MINEURES
10
-0.005
20
63.646
0
VERTEX
8
CONTOURS_MINEURES
10
2.267
20
62.269
0
VERTEX
8
CONTOURS_MINEURES
10
5.001
20
60.655
0
VERTEX
8
CONTOURS_MINEURES
10
7.176
20
59.996
0
VERTEX
8
CONTOURS_MINEURES
10
9.164
20
59.163
0
VERTEX
8
CONTOURS_MINEURES
10
9.996
20
58.514
0
VERTEX
8
CONTOURS_MINEURES
10
12.869
20
57.129
0
VERTEX
8
CONTOURS_MINEURES
10
15.002
20
56.213
0
VERTEX
8
CONTOURS_MINEURES
10
15.382
20
55.379
0
VERTEX
8
CONTOURS_MINEURES
10
16.142
20
54.999
0
VERTEX
8
CONTOURS_MINEURES
10
19.998
20
50.513
0
VERTEX
8
CONTOURS_MINEURES
10
20.305
20
50.309
0
VERTEX
8
CONTOURS_MINEURES
10
21.162
20
50.003
0
VERTEX
8
CONTOURS_MINEURES
10
25.004
20
48.444
0
VERTEX
8
CONTOURS_MINEURES
10
27.283
20
47.280
0
VERTEX
8
CONTOURS_MINEURES
10
29.999
20
46.042
0
VERTEX
8
CONTOURS_MINEURES
10
32.297
20
44.995
0
VERTEX
8
CONTOURS_MINEURES
10
34.237
20
44.237
0
VERTEX
8
CONTOURS_MINEURES
10
34.995
20
43.950
0
VERTEX
8
CONTOURS_MINEURES
10
36.433
20
43.560
0
VERTEX
8
CONTOURS_MINEURES
10
40.001
20
42.635
0
VERTEX
8
CONTOURS_MINEURES
10
43.091
20
41.905
0
VERTEX
8
CONTOURS_MINEURES
10
44.996
20
41.566
0
VERTEX
8
CONTOURS_MINEURES
10
46.256
20
41.256
0
VERTEX
8
CONTOURS_MINEURES
10
50.003
20
40.490
0
VERTEX
8
CONTOURS_MINEURES
10
50.416
20
40.412
0
VERTEX
8
CONTOURS_MINEURES
10
52.001
20
39.999
0
VERTEX
8
CONTOURS_MINEURES
10
54.546
20
39.547
0
VERTEX
8
CONTOURS_MINEURES
10
54.998
20
39.366
0
VERTEX
8
CONTOURS_MINEURES
10
58.525
20
38.523
0
VERTEX
8
CONTOURS_MINEURES
10
60.004
20
37.937
0
VERTEX
8
CONTOURS_MINEURES
10
62.191
20
37.190
0
VERTEX
8
CONTOURS_MINEURES
10
64.999
20
35.835
0
VERTEX
8
CONTOURS_MINEURES
10
65.551
20
35.554
0
VERTEX
8
CONTOURS_MINEURES
10
66.265
20
35.002
0
VERTEX
8
CONTOURS_MINEURES
10
68.545
20
33.550
0
VERTEX
8
CONTOURS_MINEURES
10
69.995
20
32.226
0
VERTEX
8
CONTOURS_MINEURES
10
72.120
20
29.995
0
VERTEX
8
CONTOURS_MINEURES
10
73.459
20
28.456
0
VERTEX
8
CONTOURS_MINEURES
10
75.001
20
25.985
0
VERTEX
8
CONTOURS_MINEURES
10
75.296
20
25.294
0
VERTEX
8
CONTOURS_MINEURES
10
75.415
20
24.999
0
VERTEX
8
CONTOURS_MINEURES
10
76.014
20
23.986
0
VERTEX
8
CONTOURS_MINEURES
10
78.312
20
20.002
0
VERTEX
8
CONTOURS_MINEURES
10
79.996
20
18.883
0
VERTEX
8
CONTOURS_MINEURES
10
81.403
20
18.595
0
VERTEX
8
CONTOURS_MINEURES
10
85.003
20
17.611
0
VERTEX
8
CONTOURS_MINEURES
10
87.390
20
17.388
0
VERTEX
8
CONTOURS_MINEURES
10
89.998
20
17.041
0
VERTEX
8
CONTOURS_MINEURES
10
93.127
20
16.873
0
VERTEX
8
CONTOURS_MINEURES
10
95.004
20
16.924
0
VERTEX
8
CONTOURS_MINEURES
10
98.087
20
16.912
0
VERTEX
8
CONTOURS_MINEURES
10
99.999
20
16.974
0
VERTEX
8
CONTOURS_MINEURES
10
102.235
20
17.236
0
VERTEX
8
CONTOURS_MINEURES
10
104.995
20
17.368
0
VERTEX
8
CONTOURS_MINEURES
10
107.944
20
17.945
0
VERTEX
8
CONTOURS_MINEURES
10
110.001
20
18.080
0
VERTEX
8
CONTOURS_MINEURES
10
113.958
20
18.962
0
VERTEX
8
CONTOURS_MINEURES
10
114.996
20
19.071
0
VERTEX
8
CONTOURS_MINEURES
10
115.793
20
19.205
0
VERTEX
8
CONTOURS_MINEURES
10
117.318
20
20.002
0
VERTEX
8
CONTOURS_MINEURES
10
120.003
20
24.021
0
VERTEX
8
CONTOURS_MINEURES
10
120.384
20
24.618
0
VERTEX
8
CONTOURS_MINEURES
10
120.558
20
24.999
0
VERTEX
8
CONTOURS_MINEURES
10
121.758
20
28.240
0
VERTEX
8
CONTOURS_MINEURES
10
122.350
20
29.995
0
VERTEX
8
CONTOURS_MINEURES
10
122.684
20
32.314
0
VERTEX
8
CONTOURS_MINEURES
10
122.802
20
35.002
0
VERTEX
8
CONTOURS_MINEURES
10
122.406
20
37.406
0
VERTEX
8
CONTOURS_MINEURES
10
121.979
20
39.999
0
VERTEX
8
CONTOURS_MINEURES
10
120.261
20
44.737
0
VERTEX
8
CONTOURS_MINEURES
10
120.164
20
44.995
0
VERTEX
8
CONTOURS_MINEURES
10
120.003
20
45.213
0
VERTEX
8
CONTOURS_MINEURES
10
117.179
20
50.003
0
VERTEX
8
CONTOURS_MINEURES
10
114.996
20
54.473
0
VERTEX
8
CONTOURS_MINEURES
10
114.824
20
54.827
0
VERTEX
8
CONTOURS_MINEURES
10
114.740
20
54.999
0
VERTEX
8
CONTOURS_MINEURES
10
114.505
20
55.491
0
VERTEX
8
CONTOURS_MINEURES
10
111.978
20
59.996
0
VERTEX
8
CONTOURS_MINEURES
10
110.001
20
62.957
0
VERTEX
8
CONTOURS_MINEURES
10
109.136
20
64.138
0
VERTEX
8
CONTOURS_MINEURES
10
108.592
20
65.003
0
VERTEX
8
CONTOURS_MINEURES
10
107.243
20
67.247
0
VERTEX
8
CONTOURS_MINEURES
10
105.078
20
69.999
0
VERTEX
8
CONTOURS_MINEURES
10
104.995
20
70.142
0
VERTEX
8
CONTOURS_MINEURES
10
102.041
20
74.996
0
VERTEX
8
CONTOURS_MINEURES
10
101.255
20
76.254
0
VERTEX
8
CONTOURS_MINEURES
10
99.999
20
79.054
0
VERTEX
8
CONTOURS_MINEURES
10
99.607
20
80.003
0
VERTEX
8
CONTOURS_MINEURES
10
98.545
20
83.545
0
VERTEX
8
CONTOURS_MINEURES
10
98.198
20
85.000
0
VERTEX
8
CONTOURS_MINEURES
10
97.947
20
87.053
0
VERTEX
8
CONTOURS_MINEURES
10
97.816
20
89.996
0
VERTEX
8
CONTOURS_MINEURES
10
98.305
20
93.305
0
VERTEX
8
CONTOURS_MINEURES
10
98.441
20
95.004
0
VERTEX
8
CONTOURS_MINEURES
10
98.899
20
96.105
0
VERTEX
8
CONTOURS_MINEURES
10
99.999
20
100.000
0
VERTEX
8
CONTOURS_MINEURES
10
104.019
20
104.996
0
VERTEX
8
CONTOURS_MINEURES
10
104.733
20
105.259
0
VERTEX
8
CONTOURS_MINEURES
10
104.995
20
105.368
0
VERTEX
8
CONTOURS_MINEURES
10
108.343
20
106.655
0
VERTEX
8
CONTOURS_MINEURES
10
110.001
20
107.169
0
VERTEX
8
CONTOURS_MINEURES
10
113.407
20
108.411
0
VERTEX
8
CONTOURS_MINEURES
10
114.996
20
109.049
0
VERTEX
8
CONTOURS_MINEURES
10
115.667
20
109.333
0
VERTEX
8
CONTOURS_MINEURES
10
117.500
20
110.004
0
VERTEX
8
CONTOURS_MINEURES
10
120.003
20
111.845
0
VERTEX
8
CONTOURS_MINEURES
10
124.077
20
115.000
0
VERTEX
8
CONTOURS_MINEURES
10
124.585
20
115.413
0
VERTEX
8
CONTOURS_MINEURES
10
124.998
20
115.798
0
VERTEX
8
CONTOURS_MINEURES
10
128.909
20
119.997
0
VERTEX
8
CONTOURS_MINEURES
10
129.415
20
120.586
0
VERTEX
8
CONTOURS_MINEURES
10
130.004
20
121.127
0
VERTEX
8
CONTOURS_MINEURES
10
133.841
20
125.004
0
VERTEX
8
CONTOURS_MINEURES
10
135.000
20
126.154
0
VERTEX
8
CONTOURS_MINEURES
10
136.755
20
130.001
0
VERTEX
8
CONTOURS_MINEURES
10
137.768
20
132.770
0
VERTEX
8
CONTOURS_MINEURES
10
138.562
20
134.997
0
VERTEX
8
CONTOURS_MINEURES
10
138.894
20
136.100
0
VERTEX
8
CONTOURS_MINEURES
10
139.995
20
138.717
0
VERTEX
8
CONTOURS_MINEURES
10
140.989
20
140.004
0
VERTEX
8
CONTOURS_MINEURES
10
142.918
20
142.083
0
VERTEX
8
CONTOURS_MINEURES
10
145.001
20
144.069
0
VERTEX
8
CONTOURS_MINEURES
10
145.509
20
144.493
0
VERTEX
8
CONTOURS_MINEURES
10
145.954
20
145.001
0
VERTEX
8
CONTOURS_MINEURES
10
147.878
20
147.119
0
VERTEX
8
CONTOURS_MINEURES
10
149.996
20
149.171
0
VERTEX
8
CONTOURS_MINEURES
10
150.753
20
149.997
0
VERTEX
8
CONTOURS_MINEURES
10
152.677
20
152.324
0
VERTEX
8
CONTOURS_MINEURES
10
155.003
20
154.188
0
VERTEX
8
CONTOURS_MINEURES
10
155.867
20
155.005
0
VERTEX
8
CONTOURS_MINEURES
10
157.782
20
157.221
0
VERTEX
8
CONTOURS_MINEURES
10
159.998
20
160.001
0
VERTEX
8
CONTOURS_MINEURES
10
160.171
20
164.825
0
VERTEX
8
CONTOURS_MINEURES
10
160.259
20
164.998
0
VERTEX
8
CONTOURS_MINEURES
10
159.998
20
166.388
0
VERTEX
8
CONTOURS_MINEURES
10
159.611
20
169.618
0
VERTEX
8
CONTOURS_MINEURES
10
159.443
20
170.005
0
VERTEX
8
CONTOURS_MINEURES
10
158.376
20
173.379
0
VERTEX
8
CONTOURS_MINEURES
10
156.529
20
175.001
0
VERTEX
8
CONTOURS_MINEURES
10
155.003
20
176.146
0
VERTEX
8
CONTOURS_MINEURES
10
151.540
20
179.998
0
VERTEX
8
CONTOURS_MINEURES
10
149.996
20
181.557
0
VERTEX
8
CONTOURS_MINEURES
10
148.331
20
183.336
0
VERTEX
8
CONTOURS_MINEURES
10
146.421
20
185.005
0
VERTEX
8
CONTOURS_MINEURES
10
145.001
20
185.638
0
VERTEX
8
CONTOURS_MINEURES
10
141.512
20
186.520
0
VERTEX
8
CONTOURS_MINEURES
10
139.995
20
186.946
0
VERTEX
8
CONTOURS_MINEURES
10
136.624
20
190.002
0
VERTEX
8
CONTOURS_MINEURES
10
135.000
20
193.333
0
VERTEX
8
CONTOURS_MINEURES
10
134.041
20
194.039
0
VERTEX
8
CONTOURS_MINEURES
10
133.300
20
194.998
0
VERTEX
8
CONTOURS_MINEURES
10
130.004
20
198.261
0
VERTEX
8
CONTOURS_MINEURES
10
127.425
20
199.994
0
VERTEX
8
CONTOURS_MINEURES
10
124.998
20
200.454
0
VERTEX
8
CONTOURS_MINEURES
10
120.126
20
200.118
0
VERTEX
8
CONTOURS_MINEURES
10
120.003
20
200.168
0
VERTEX
8
CONTOURS_MINEURES
10
115.998
20
199.994
0
VERTEX
8
CONTOURS_MINEURES
10
115.158
20
199.833
0
VERTEX
8
CONTOURS_MINEURES
10
114.996
20
199.806
0
VERTEX
8
CONTOURS_MINEURES
10
111.730
20
198.265
0
VERTEX
8
CONTOURS_MINEURES
10
110.001
20
198.462
0
VERTEX
8
CONTOURS_MINEURES
10
107.036
20
197.957
0
VERTEX
8
CONTOURS_MINEURES
10
104.995
20
198.170
0
VERTEX
8
CONTOURS_MINEURES
10
103.261
20
198.260
0
VERTEX
8
CONTOURS_MINEURES
10
99.999
20
198.034
0
VERTEX
8
CONTOURS_MINEURES
10
98.025
20
198.019
0
VERTEX
8
CONTOURS_MINEURES
10
95.004
20
197.802
0
VERTEX
8
CONTOURS_MINEURES
10
92.485
20
197.512
0
VERTEX
8
CONTOURS_MINEURES
10
89.998
20
197.246
0
VERTEX
8
CONTOURS_MINEURES
10
86.921
20
196.917
0
VERTEX
8
CONTOURS_MINEURES
10
85.003
20
196.699
0
VERTEX
8
CONTOURS_MINEURES
10
81.217
20
196.217
0
VERTEX
8
CONTOURS_MINEURES
10
79.996
20
196.197
0
VERTEX
8
CONTOURS_MINEURES
10
79.177
20
195.817
0
VERTEX
8
CONTOURS_MINEURES
10
77.971
20
194.998
0
VERTEX
8
CONTOURS_MINEURES
10
75.001
20
192.904
0
VERTEX
8
CONTOURS_MINEURES
10
70.638
20
190.002
0
VERTEX
8
CONTOURS_MINEURES
10
70.241
20
189.756
0
VERTEX
8
CONTOURS_MINEURES
10
69.995
20
189.589
0
VERTEX
8
CONTOURS_MINEURES
10
68.196
20
188.203
0
VERTEX
8
CONTOURS_MINEURES
10
64.999
20
185.745
0
VERTEX
8
CONTOURS_MINEURES
10
64.013
20
185.005
0
VERTEX
8
CONTOURS_MINEURES
10
60.004
20
182.175
0
VERTEX
8
CONTOURS_MINEURES
10
58.658
20
181.344
0
VERTEX
8
CONTOURS_MINEURES
10
56.622
20
179.998
0
VERTEX
8
CONTOURS_MINEURES
10
54.998
20
178.964
0
VERTEX
8
CONTOURS_MINEURES
10
52.473
20
177.527
0
VERTEX
8
CONTOURS_MINEURES
10
50.003
20
176.018
0
VERTEX
8
CONTOURS_MINEURES
10
49.333
20
175.670
0
VERTEX
8
CONTOURS_MINEURES
10
47.870
20
175.001
0
VERTEX
8
CONTOURS_MINEURES
10
44.996
20
173.711
0
VERTEX
8
CONTOURS_MINEURES
10
42.846
20
172.850
0
VERTEX
8
CONTOURS_MINEURES
10
40.001
20
171.712
0
VERTEX
8
CONTOURS_MINEURES
10
38.909
20
171.095
0
VERTEX
8
CONTOURS_MINEURES
10
37.026
20
170.005
0
VERTEX
8
CONTOURS_MINEURES
10
35.761
20
169.239
0
VERTEX
8
CONTOURS_MINEURES
10
34.995
20
168.901
0
VERTEX
8
CONTOURS_MINEURES
10
32.684
20
167.314
0
VERTEX
8
CONTOURS_MINEURES
10
29.999
20
165.541
0
VERTEX
8
CONTOURS_MINEURES
10
29.157
20
164.998
0
VERTEX
8
CONTOURS_MINEURES
10
26.745
20
163.256
0
VERTEX
8
CONTOURS_MINEURES
10
25.004
20
162.552
0
VERTEX
8
CONTOURS_MINEURES
10
23.097
20
161.905
0
VERTEX
8
CONTOURS_MINEURES
10
19.998
20
161.599
0
VERTEX
8
CONTOURS_MINEURES
10
16.519
20
161.518
0
VERTEX
8
CONTOURS_MINEURES
10
15.002
20
161.700
0
VERTEX
8
CONTOURS_MINEURES
10
11.980
20
161.981
0
VERTEX
8
CONTOURS_MINEURES
10
9.996
20
162.304
0
VERTEX
8
CONTOURS_MINEURES
10
7.460
20
162.538
0
VERTEX
8
CONTOURS_MINEURES
10
5.001
20
162.499
0
VERTEX
8
CONTOURS_MINEURES
10
2.537
20
162.538
0
VERTEX
8
CONTOURS_MINEURES
10
-0.005
20
162.850
0
SEQEND
0
POLYLINE
8
CONTOURS_MINEURES
66
1
70
0
0
VERTEX
8
CONTOURS_MINEURES
10
-0.005
20
67.779
0
VERTEX
8
CONTOURS_MINEURES
10
4.203
20
65.800
0
VERTEX
8
CONTOURS_MINEURES
10
5.001
20
65.677
0
VERTEX
8
CONTOURS_MINEURES
10
5.640
20
65.642
0
VERTEX
8
CONTOURS_MINEURES
10
9.779
20
65.003
0
VERTEX
8
CONTOURS_MINEURES
10
9.996
20
64.973
0
VERTEX
8
CONTOURS_MINEURES
10
10.038
20
64.961
0
VERTEX
8
CONTOURS_MINEURES
10
15.002
20
62.975
0
VERTEX
8
CONTOURS_MINEURES
10
17.532
20
59.996
0
VERTEX
8
CONTOURS_MINEURES
10
18.304
20
58.301
0
VERTEX
8
CONTOURS_MINEURES
10
19.998
20
57.454
0
VERTEX
8
CONTOURS_MINEURES
10
23.561
20
56.440
0
VERTEX
8
CONTOURS_MINEURES
10
25.004
20
56.048
0
VERTEX
8
CONTOURS_MINEURES
10
29.123
20
54.999
0
VERTEX
8
CONTOURS_MINEURES
10
29.999
20
54.593
0
VERTEX
8
CONTOURS_MINEURES
10
34.031
20
54.036
0
VERTEX
8
CONTOURS_MINEURES
10
34.995
20
53.637
0
VERTEX
8
CONTOURS_MINEURES
10
37.248
20
52.751
0
VERTEX
8
CONTOURS_MINEURES
10
40.001
20
51.377
0
VERTEX
8
CONTOURS_MINEURES
10
40.897
20
50.899
0
VERTEX
8
CONTOURS_MINEURES
10
44.122
20
50.003
0
VERTEX
8
CONTOURS_MINEURES
10
44.996
20
49.725
0
VERTEX
8
CONTOURS_MINEURES
10
45.358
20
49.641
0
VERTEX
8
CONTOURS_MINEURES
10
50.003
20
48.949
0
VERTEX
8
CONTOURS_MINEURES
10
51.320
20
48.682
0
VERTEX
8
CONTOURS_MINEURES
10
54.998
20
48.045
0
VERTEX
8
CONTOURS_MINEURES
10
57.446
20
47.444
0
VERTEX
8
CONTOURS_MINEURES
10
60.004
20
46.566
0
VERTEX
8
CONTOURS_MINEURES
10
64.999
20
44.995
0
VERTEX
8
CONTOURS_MINEURES
10
69.995
20
42.551
0
VERTEX
8
CONTOURS_MINEURES
10
71.606
20
41.607
0
VERTEX
8
CONTOURS_MINEURES
10
73.091
20
39.999
0
VERTEX
8
CONTOURS_MINEURES
10
75.001
20
38.210
0
VERTEX
8
CONTOURS_MINEURES
10
76.444
20
36.446
0
VERTEX
8
CONTOURS_MINEURES
10
76.856
20
35.002
0
VERTEX
8
CONTOURS_MINEURES
10
78.060
20
33.061
0
VERTEX
8
CONTOURS_MINEURES
10
78.902
20
29.995
0
VERTEX
8
CONTOURS_MINEURES
10
79.229
20
29.228
0
VERTEX
8
CONTOURS_MINEURES
10
79.996
20
27.326
0
VERTEX
8
CONTOURS_MINEURES
10
81.476
20
26.476
0
VERTEX
8
CONTOURS_MINEURES
10
82.656
20
24.999
0
VERTEX
8
CONTOURS_MINEURES
10
85.003
20
23.369
0
VERTEX
8
CONTOURS_MINEURES
10
87.308
20
22.693
0
VERTEX
8
CONTOURS_MINEURES
10
89.998
20
22.060
0
VERTEX
8
CONTOURS_MINEURES
10
92.216
20
22.216
0
VERTEX
8
CONTOURS_MINEURES
10
95.004
20
22.442
0
VERTEX
8
CONTOURS_MINEURES
10
97.342
20
22.660
0
VERTEX
8
CONTOURS_MINEURES
10
99.999
20
23.424
0
VERTEX
8
CONTOURS_MINEURES
10
101.126
20
23.872
0
VERTEX
8
CONTOURS_MINEURES
10
103.481
20
24.999
0
VERTEX
8
CONTOURS_MINEURES
10
104.475
20
25.519
0
VERTEX
8
CONTOURS_MINEURES
10
104.995
20
26.161
0
VERTEX
8
CONTOURS_MINEURES
10
106.916
20
28.078
0
VERTEX
8
CONTOURS_MINEURES
10
107.999
20
29.995
0
VERTEX
8
CONTOURS_MINEURES
10
109.715
20
34.716
0
VERTEX
8
CONTOURS_MINEURES
10
109.874
20
35.002
0
VERTEX
8
CONTOURS_MINEURES
10
109.874
20
35.129
0
VERTEX
8
CONTOURS_MINEURES
10
110.001
20
35.835
0
VERTEX
8
CONTOURS_MINEURES
10
110.658
20
39.999
0
VERTEX
8
CONTOURS_MINEURES
10
110.823
20
44.173
0
VERTEX
8
CONTOURS_MINEURES
10
110.620
20
44.995
0
VERTEX
8
CONTOURS_MINEURES
10
110.402
20
45.397
0
VERTEX
8
CONTOURS_MINEURES
10
110.001
20
46.442
0
VERTEX
8
CONTOURS_MINEURES
10
108.332
20
50.003
0
VERTEX
8
CONTOURS_MINEURES
10
107.679
20
52.320
0
VERTEX
8
CONTOURS_MINEURES
10
106.465
20
54.999
0
VERTEX
8
CONTOURS_MINEURES
10
106.013
20
56.015
0
VERTEX
8
CONTOURS_MINEURES
10
104.995
20
58.360
0
VERTEX
8
CONTOURS_MINEURES
10
104.139
20
59.996
0
VERTEX
8
CONTOURS_MINEURES
10
102.951
20
62.044
0
VERTEX
8
CONTOURS_MINEURES
10
101.006
20
65.003
0
VERTEX
8
CONTOURS_MINEURES
10
100.579
20
65.583
0
VERTEX
8
CONTOURS_MINEURES
10
99.999
20
66.356
0
VERTEX
8
CONTOURS_MINEURES
10
97.011
20
69.999
0
VERTEX
8
CONTOURS_MINEURES
10
96.178
20
71.174
0
VERTEX
8
CONTOURS_MINEURES
10
95.004
20
73.173
0
VERTEX
8
CONTOURS_MINEURES
10
93.956
20
74.996
0
VERTEX
8
CONTOURS_MINEURES
10
93.468
20
76.532
0
VERTEX
8
CONTOURS_MINEURES
10
92.311
20
80.003
0
VERTEX
8
CONTOURS_MINEURES
10
91.302
20
83.699
0
VERTEX
8
CONTOURS_MINEURES
10
90.953
20
85.000
0
VERTEX
8
CONTOURS_MINEURES
10
90.838
20
85.838
0
VERTEX
8
CONTOURS_MINEURES
10
90.116
20
89.996
0
VERTEX
8
CONTOURS_MINEURES
10
90.506
20
94.496
0
VERTEX
8
CONTOURS_MINEURES
10
90.545
20
95.004
0
VERTEX
8
CONTOURS_MINEURES
10
90.920
20
95.924
0
VERTEX
8
CONTOURS_MINEURES
10
92.755
20
100.000
0
VERTEX
8
CONTOURS_MINEURES
10
93.606
20
101.395
0
VERTEX
8
CONTOURS_MINEURES
10
95.004
20
104.244
0
VERTEX
8
CONTOURS_MINEURES
10
95.394
20
104.996
0
VERTEX
8
CONTOURS_MINEURES
10
99.999
20
107.743
0
VERTEX
8
CONTOURS_MINEURES
10
101.649
20
108.350
0
VERTEX
8
CONTOURS_MINEURES
10
104.995
20
109.741
0
VERTEX
8
CONTOURS_MINEURES
10
105.184
20
109.814
0
VERTEX
8
CONTOURS_MINEURES
10
105.796
20
110.004
0
VERTEX
8
CONTOURS_MINEURES
10
108.278
20
111.724
0
VERTEX
8
CONTOURS_MINEURES
10
110.001
20
112.717
0
VERTEX
8
CONTOURS_MINEURES
10
111.299
20
113.702
0
VERTEX
8
CONTOURS_MINEURES
10
113.485
20
115.000
0
VERTEX
8
CONTOURS_MINEURES
10
114.996
20
115.991
0
VERTEX
8
CONTOURS_MINEURES
10
117.224
20
117.773
0
VERTEX
8
CONTOURS_MINEURES
10
120.003
20
119.564
0
VERTEX
8
CONTOURS_MINEURES
10
120.242
20
119.758
0
VERTEX
8
CONTOURS_MINEURES
10
120.498
20
119.997
0
VERTEX
8
CONTOURS_MINEURES
10
122.707
20
122.294
0
VERTEX
8
CONTOURS_MINEURES
10
124.998
20
124.549
0
VERTEX
8
CONTOURS_MINEURES
10
125.208
20
124.794
0
VERTEX
8
CONTOURS_MINEURES
10
125.437
20
125.004
0
VERTEX
8
CONTOURS_MINEURES
10
127.680
20
127.324
0
VERTEX
8
CONTOURS_MINEURES
10
130.004
20
128.941
0
VERTEX
8
CONTOURS_MINEURES
10
131.072
20
130.001
0
VERTEX
8
CONTOURS_MINEURES
10
132.584
20
132.417
0
VERTEX
8
CONTOURS_MINEURES
10
134.741
20
134.997
0
VERTEX
8
CONTOURS_MINEURES
10
135.000
20
135.363
0
VERTEX
8
CONTOURS_MINEURES
10
136.072
20
138.929
0
VERTEX
8
CONTOURS_MINEURES
10
136.524
20
140.004
0
VERTEX
8
CONTOURS_MINEURES
10
138.086
20
143.092
0
VERTEX
8
CONTOURS_MINEURES
10
138.753
20
145.001
0
VERTEX
8
CONTOURS_MINEURES
10
139.088
20
145.908
0
VERTEX
8
CONTOURS_MINEURES
10
139.995
20
147.061
0
VERTEX
8
CONTOURS_MINEURES
10
142.722
20
149.997
0
VERTEX
8
CONTOURS_MINEURES
10
145.001
20
153.220
0
VERTEX
8
CONTOURS_MINEURES
10
145.739
20
154.266
0
VERTEX
8
CONTOURS_MINEURES
10
146.631
20
155.005
0
VERTEX
8
CONTOURS_MINEURES
10
149.996
20
158.140
0
VERTEX
8
CONTOURS_MINEURES
10
150.881
20
159.118
0
VERTEX
8
CONTOURS_MINEURES
10
151.899
20
160.001
0
VERTEX
8
CONTOURS_MINEURES
10
152.905
20
162.094
0
VERTEX
8
CONTOURS_MINEURES
10
153.283
20
164.998
0
VERTEX
8
CONTOURS_MINEURES
10
151.483
20
168.518
0
VERTEX
8
CONTOURS_MINEURES
10
150.824
20
170.005
0
VERTEX
8
CONTOURS_MINEURES
10
150.479
20
170.487
0
VERTEX
8
CONTOURS_MINEURES
10
149.996
20
170.974
0
VERTEX
8
CONTOURS_MINEURES
10
145.354
20
175.001
0
VERTEX
8
CONTOURS_MINEURES
10
145.001
20
175.501
0
VERTEX
8
CONTOURS_MINEURES
10
141.139
20
179.998
0
VERTEX
8
CONTOURS_MINEURES
10
139.995
20
180.619
0
VERTEX
8
CONTOURS_MINEURES
10
136.859
20
181.862
0
VERTEX
8
CONTOURS_MINEURES
10
135.000
20
183.421
0
VERTEX
8
CONTOURS_MINEURES
10
131.963
20
185.005
0
VERTEX
8
CONTOURS_MINEURES
10
130.653
20
185.654
0
VERTEX
8
CONTOURS_MINEURES
10
130.004
20
186.239
0
VERTEX
8
CONTOURS_MINEURES
10
127.369
20
187.635
0
VERTEX
8
CONTOURS_MINEURES
10
124.998
20
188.818
0
VERTEX
8
CONTOURS_MINEURES
10
123.888
20
188.891
0
VERTEX
8
CONTOURS_MINEURES
10
120.003
20
187.975
0
VERTEX
8
CONTOURS_MINEURES
10
117.307
20
187.696
0
VERTEX
8
CONTOURS_MINEURES
10
114.996
20
187.808
0
VERTEX
8
CONTOURS_MINEURES
10
112.872
20
187.877
0
VERTEX
8
CONTOURS_MINEURES
10
110.001
20
188.233
0
VERTEX
8
CONTOURS_MINEURES
10
106.071
20
188.927
0
VERTEX
8
CONTOURS_MINEURES
10
104.995
20
189.012
0
VERTEX
8
CONTOURS_MINEURES
10
104.078
20
189.085
0
VERTEX
8
CONTOURS_MINEURES
10
99.999
20
189.686
0
VERTEX
8
CONTOURS_MINEURES
10
95.060
20
189.946
0
VERTEX
8
CONTOURS_MINEURES
10
95.004
20
189.952
0
VERTEX
8
CONTOURS_MINEURES
10
90.539
20
189.462
0
VERTEX
8
CONTOURS_MINEURES
10
89.998
20
189.457
0
VERTEX
8
CONTOURS_MINEURES
10
89.374
20
189.377
0
VERTEX
8
CONTOURS_MINEURES
10
85.003
20
188.965
0
VERTEX
8
CONTOURS_MINEURES
10
81.584
20
188.417
0
VERTEX
8
CONTOURS_MINEURES
10
79.996
20
188.214
0
VERTEX
8
CONTOURS_MINEURES
10
76.354
20
185.005
0
VERTEX
8
CONTOURS_MINEURES
10
75.001
20
183.832
0
VERTEX
8
CONTOURS_MINEURES
10
72.701
20
182.299
0
VERTEX
8
CONTOURS_MINEURES
10
69.995
20
180.369
0
VERTEX
8
CONTOURS_MINEURES
10
69.787
20
180.206
0
VERTEX
8
CONTOURS_MINEURES
10
69.501
20
179.998
0
VERTEX
8
CONTOURS_MINEURES
10
64.999
20
176.798
0
VERTEX
8
CONTOURS_MINEURES
10
62.115
20
175.001
0
VERTEX
8
CONTOURS_MINEURES
10
60.856
20
174.150
0
VERTEX
8
CONTOURS_MINEURES
10
60.004
20
173.687
0
VERTEX
8
CONTOURS_MINEURES
10
57.814
20
172.191
0
VERTEX
8
CONTOURS_MINEURES
10
54.998
20
170.578
0
VERTEX
8
CONTOURS_MINEURES
10
53.905
20
170.005
0
VERTEX
8
CONTOURS_MINEURES
10
51.455
20
168.549
0
VERTEX
8
CONTOURS_MINEURES
10
50.003
20
167.729
0
VERTEX
8
CONTOURS_MINEURES
10
45.533
20
165.534
0
VERTEX
8
CONTOURS_MINEURES
10
44.996
20
165.254
0
VERTEX
8
CONTOURS_MINEURES
10
44.815
20
165.180
0
VERTEX
8
CONTOURS_MINEURES
10
44.409
20
164.998
0
VERTEX
8
CONTOURS_MINEURES
10
40.001
20
162.954
0
VERTEX
8
CONTOURS_MINEURES
10
38.041
20
161.958
0
VERTEX
8
CONTOURS_MINEURES
10
34.995
20
160.191
0
VERTEX
8
CONTOURS_MINEURES
10
34.728
20
160.001
0
VERTEX
8
CONTOURS_MINEURES
10
31.837
20
158.163
0
VERTEX
8
CONTOURS_MINEURES
10
29.999
20
157.393
0
VERTEX
8
CONTOURS_MINEURES
10
25.777
20
155.778
0
VERTEX
8
CONTOURS_MINEURES
10
25.004
20
155.465
0
VERTEX
8
CONTOURS_MINEURES
10
24.592
20
155.416
0
VERTEX
8
CONTOURS_MINEURES
10
22.760
20
155.005
0
VERTEX
8
CONTOURS_MINEURES
10
20.443
20
154.560
0
VERTEX
8
CONTOURS_MINEURES
10
19.998
20
154.471
0
VERTEX
8
CONTOURS_MINEURES
10
16.129
20
153.876
0
VERTEX
8
CONTOURS_MINEURES
10
15.002
20
153.467
0
VERTEX
8
CONTOURS_MINEURES
10
11.506
20
153.495
0
VERTEX
8
CONTOURS_MINEURES
10
9.996
20
153.563
0
VERTEX
8
CONTOURS_MINEURES
10
8.631
20
153.636
0
VERTEX
8
CONTOURS_MINEURES
10
5.001
20
153.744
0
VERTEX
8
CONTOURS_MINEURES
10
1.020
20
153.980
0
VERTEX
8
CONTOURS_MINEURES
10
-0.005
20
154.003
0
SEQEND
0
POLYLINE
8
CONTOURS_MINEURES
66
1
70
0
0
VERTEX
8
CONTOURS_MINEURES
10
-0.005
20
74.561
0
VERTEX
8
CONTOURS_MINEURES
10
2.875
20
72.874
0
VERTEX
8
CONTOURS_MINEURES
10
5.001
20
72.436
0
VERTEX
8
CONTOURS_MINEURES
10
6.611
20
71.610
0
VERTEX
8
CONTOURS_MINEURES
10
9.996
20
71.435
0
VERTEX
8
CONTOURS_MINEURES
10
14.846
20
70.156
0
VERTEX
8
CONTOURS_MINEURES
10
15.002
20
70.125
0
VERTEX
8
CONTOURS_MINEURES
10
15.335
20
69.999
0
VERTEX
8
CONTOURS_MINEURES
10
18.399
20
68.401
0
VERTEX
8
CONTOURS_MINEURES
10
19.472
20
65.003
0
VERTEX
8
CONTOURS_MINEURES
10
19.998
20
64.288
0
VERTEX
8
CONTOURS_MINEURES
10
23.233
20
63.231
0
VERTEX
8
CONTOURS_MINEURES
10
25.004
20
61.665
0
VERTEX
8
CONTOURS_MINEURES
10
28.651
20
61.347
0
VERTEX
8
CONTOURS_MINEURES
10
29.999
20
61.285
0
VERTEX
8
CONTOURS_MINEURES
10
31.306
20
61.305
0
VERTEX
8
CONTOURS_MINEURES
10
34.995
20
62.107
0
VERTEX
8
CONTOURS_MINEURES
10
38.871
20
61.126
0
VERTEX
8
CONTOURS_MINEURES
10
40.001
20
60.851
0
VERTEX
8
CONTOURS_MINEURES
10
40.570
20
60.566
0
VERTEX
8
CONTOURS_MINEURES
10
41.147
20
59.996
0
VERTEX
8
CONTOURS_MINEURES
10
44.996
20
57.549
0
VERTEX
8
CONTOURS_MINEURES
10
48.918
20
56.082
0
VERTEX
8
CONTOURS_MINEURES
10
50.003
20
55.532
0
VERTEX
8
CONTOURS_MINEURES
10
50.416
20
55.413
0
VERTEX
8
CONTOURS_MINEURES
10
53.823
20
54.999
0
VERTEX
8
CONTOURS_MINEURES
10
54.998
20
54.875
0
VERTEX
8
CONTOURS_MINEURES
10
55.147
20
54.850
0
VERTEX
8
CONTOURS_MINEURES
10
60.004
20
54.193
0
VERTEX
8
CONTOURS_MINEURES
10
63.736
20
53.736
0
VERTEX
8
CONTOURS_MINEURES
10
64.999
20
53.394
0
VERTEX
8
CONTOURS_MINEURES
10
68.366
20
53.370
0
VERTEX
8
CONTOURS_MINEURES
10
69.995
20
52.936
0
VERTEX
8
CONTOURS_MINEURES
10
72.645
20
52.354
0
VERTEX
8
CONTOURS_MINEURES
10
75.001
20
52.470
0
VERTEX
8
CONTOURS_MINEURES
10
79.079
20
54.081
0
VERTEX
8
CONTOURS_MINEURES
10
79.996
20
53.784
0
VERTEX
8
CONTOURS_MINEURES
10
82.044
20
52.955
0
VERTEX
8
CONTOURS_MINEURES
10
85.003
20
53.421
0
VERTEX
8
CONTOURS_MINEURES
10
86.365
20
54.999
0
VERTEX
8
CONTOURS_MINEURES
10
88.333
20
56.665
0
VERTEX
8
CONTOURS_MINEURES
10
89.998
20
59.996
0
VERTEX
8
CONTOURS_MINEURES
10
90.453
20
64.548
0
VERTEX
8
CONTOURS_MINEURES
10
90.258
20
65.003
0
VERTEX
8
CONTOURS_MINEURES
10
90.125
20
65.130
0
VERTEX
8
CONTOURS_MINEURES
10
89.998
20
65.468
0
VERTEX
8
CONTOURS_MINEURES
10
87.903
20
67.904
0
VERTEX
8
CONTOURS_MINEURES
10
88.177
20
69.999
0
VERTEX
8
CONTOURS_MINEURES
10
88.010
20
71.988
0
VERTEX
8
CONTOURS_MINEURES
10
86.880
20
74.996
0
VERTEX
8
CONTOURS_MINEURES
10
86.491
20
76.488
0
VERTEX
8
CONTOURS_MINEURES
10
85.575
20
80.003
0
VERTEX
8
CONTOURS_MINEURES
10
85.468
20
80.469
0
VERTEX
8
CONTOURS_MINEURES
10
85.003
20
82.648
0
VERTEX
8
CONTOURS_MINEURES
10
84.529
20
85.000
0
VERTEX
8
CONTOURS_MINEURES
10
84.499
20
85.503
0
VERTEX
8
CONTOURS_MINEURES
10
84.064
20
89.996
0
VERTEX
8
CONTOURS_MINEURES
10
84.064
20
94.065
0
VERTEX
8
CONTOURS_MINEURES
10
84.013
20
95.004
0
VERTEX
8
CONTOURS_MINEURES
10
85.003
20
98.512
0
VERTEX
8
CONTOURS_MINEURES
10
85.509
20
100.000
0
VERTEX
8
CONTOURS_MINEURES
10
86.298
20
101.295
0
VERTEX
8
CONTOURS_MINEURES
10
88.496
20
104.996
0
VERTEX
8
CONTOURS_MINEURES
10
89.274
20
105.722
0
VERTEX
8
CONTOURS_MINEURES
10
89.998
20
106.175
0
VERTEX
8
CONTOURS_MINEURES
10
93.079
20
108.078
0
VERTEX
8
CONTOURS_MINEURES
10
95.004
20
109.419
0
VERTEX
8
CONTOURS_MINEURES
10
96.062
20
110.004
0
VERTEX
8
CONTOURS_MINEURES
10
97.777
20
112.227
0
VERTEX
8
CONTOURS_MINEURES
10
99.999
20
114.472
0
VERTEX
8
CONTOURS_MINEURES
10
100.603
20
115.000
0
VERTEX
8
CONTOURS_MINEURES
10
102.892
20
117.104
0
VERTEX
8
CONTOURS_MINEURES
10
104.995
20
118.844
0
VERTEX
8
CONTOURS_MINEURES
10
106.815
20
119.997
0
VERTEX
8
CONTOURS_MINEURES
10
110.001
20
122.143
0
VERTEX
8
CONTOURS_MINEURES
10
111.717
20
123.284
0
VERTEX
8
CONTOURS_MINEURES
10
113.833
20
125.004
0
VERTEX
8
CONTOURS_MINEURES
10
114.996
20
126.122
0
VERTEX
8
CONTOURS_MINEURES
10
117.091
20
127.910
0
VERTEX
8
CONTOURS_MINEURES
10
120.003
20
130.001
0
VERTEX
8
CONTOURS_MINEURES
10
122.164
20
132.835
0
VERTEX
8
CONTOURS_MINEURES
10
124.551
20
134.997
0
VERTEX
8
CONTOURS_MINEURES
10
124.998
20
135.610
0
VERTEX
8
CONTOURS_MINEURES
10
126.617
20
138.385
0
VERTEX
8
CONTOURS_MINEURES
10
127.830
20
140.004
0
VERTEX
8
CONTOURS_MINEURES
10
130.004
20
142.847
0
VERTEX
8
CONTOURS_MINEURES
10
130.842
20
144.163
0
VERTEX
8
CONTOURS_MINEURES
10
131.509
20
145.001
0
VERTEX
8
CONTOURS_MINEURES
10
135.000
20
149.141
0
VERTEX
8
CONTOURS_MINEURES
10
135.231
20
149.766
0
VERTEX
8
CONTOURS_MINEURES
10
135.413
20
149.997
0
VERTEX
8
CONTOURS_MINEURES
10
136.754
20
153.246
0
VERTEX
8
CONTOURS_MINEURES
10
137.397
20
155.005
0
VERTEX
8
CONTOURS_MINEURES
10
137.794
20
157.207
0
VERTEX
8
CONTOURS_MINEURES
10
139.020
20
160.001
0
VERTEX
8
CONTOURS_MINEURES
10
139.995
20
163.332
0
VERTEX
8
CONTOURS_MINEURES
10
140.980
20
164.998
0
VERTEX
8
CONTOURS_MINEURES
10
139.995
20
166.765
0
VERTEX
8
CONTOURS_MINEURES
10
137.177
20
170.005
0
VERTEX
8
CONTOURS_MINEURES
10
135.573
20
170.579
0
VERTEX
8
CONTOURS_MINEURES
10
135.000
20
171.028
0
VERTEX
8
CONTOURS_MINEURES
10
133.976
20
171.028
0
VERTEX
8
CONTOURS_MINEURES
10
130.004
20
170.662
0
VERTEX
8
CONTOURS_MINEURES
10
125.832
20
170.005
0
VERTEX
8
CONTOURS_MINEURES
10
125.110
20
169.892
0
VERTEX
8
CONTOURS_MINEURES
10
124.998
20
169.894
0
VERTEX
8
CONTOURS_MINEURES
10
124.564
20
170.005
0
VERTEX
8
CONTOURS_MINEURES
10
121.282
20
171.285
0
VERTEX
8
CONTOURS_MINEURES
10
120.003
20
171.697
0
VERTEX
8
CONTOURS_MINEURES
10
116.248
20
173.752
0
VERTEX
8
CONTOURS_MINEURES
10
114.996
20
174.224
0
VERTEX
8
CONTOURS_MINEURES
10
114.548
20
174.553
0
VERTEX
8
CONTOURS_MINEURES
10
114.394
20
175.001
0
VERTEX
8
CONTOURS_MINEURES
10
110.001
20
178.642
0
VERTEX
8
CONTOURS_MINEURES
10
106.504
20
178.492
0
VERTEX
8
CONTOURS_MINEURES
10
104.995
20
178.951
0
VERTEX
8
CONTOURS_MINEURES
10
103.996
20
178.999
0
VERTEX
8
CONTOURS_MINEURES
10
99.999
20
178.963
0
VERTEX
8
CONTOURS_MINEURES
10
98.992
20
178.990
0
VERTEX
8
CONTOURS_MINEURES
10
95.004
20
179.061
0
VERTEX
8
CONTOURS_MINEURES
10
90.624
20
179.373
0
VERTEX
8
CONTOURS_MINEURES
10
89.998
20
179.385
0
VERTEX
8
CONTOURS_MINEURES
10
85.736
20
179.264
0
VERTEX
8
CONTOURS_MINEURES
10
85.003
20
179.236
0
VERTEX
8
CONTOURS_MINEURES
10
84.113
20
179.110
0
VERTEX
8
CONTOURS_MINEURES
10
79.996
20
178.662
0
VERTEX
8
CONTOURS_MINEURES
10
78.041
20
176.958
0
VERTEX
8
CONTOURS_MINEURES
10
75.889
20
175.001
0
VERTEX
8
CONTOURS_MINEURES
10
75.001
20
174.194
0
VERTEX
8
CONTOURS_MINEURES
10
71.797
20
171.804
0
VERTEX
8
CONTOURS_MINEURES
10
69.995
20
170.469
0
VERTEX
8
CONTOURS_MINEURES
10
69.281
20
170.005
0
VERTEX
8
CONTOURS_MINEURES
10
64.999
20
167.752
0
VERTEX
8
CONTOURS_MINEURES
10
63.188
20
166.813
0
VERTEX
8
CONTOURS_MINEURES
10
60.544
20
164.998
0
VERTEX
8
CONTOURS_MINEURES
10
60.004
20
164.673
0
VERTEX
8
CONTOURS_MINEURES
10
59.248
20
164.243
0
VERTEX
8
CONTOURS_MINEURES
10
54.998
20
161.829
0
VERTEX
8
CONTOURS_MINEURES
10
51.430
20
160.001
0
VERTEX
8
CONTOURS_MINEURES
10
50.003
20
159.287
0
VERTEX
8
CONTOURS_MINEURES
10
47.096
20
157.906
0
VERTEX
8
CONTOURS_MINEURES
10
44.996
20
156.932
0
VERTEX
8
CONTOURS_MINEURES
10
41.288
20
155.005
0
VERTEX
8
CONTOURS_MINEURES
10
40.428
20
154.577
0
VERTEX
8
CONTOURS_MINEURES
10
40.001
20
154.414
0
VERTEX
8
CONTOURS_MINEURES
10
38.881
20
153.885
0
VERTEX
8
CONTOURS_MINEURES
10
34.995
20
152.154
0
VERTEX
8
CONTOURS_MINEURES
10
30.083
20
149.997
0
VERTEX
8
CONTOURS_MINEURES
10
30.023
20
149.974
0
VERTEX
8
CONTOURS_MINEURES
10
29.999
20
149.964
0
VERTEX
8
CONTOURS_MINEURES
10
25.971
20
149.030
0
VERTEX
8
CONTOURS_MINEURES
10
25.004
20
148.806
0
VERTEX
8
CONTOURS_MINEURES
10
23.464
20
148.460
0
VERTEX
8
CONTOURS_MINEURES
10
19.998
20
147.754
0
VERTEX
8
CONTOURS_MINEURES
10
16.527
20
146.526
0
VERTEX
8
CONTOURS_MINEURES
10
15.002
20
146.028
0
VERTEX
8
CONTOURS_MINEURES
10
11.239
20
146.242
0
VERTEX
8
CONTOURS_MINEURES
10
9.996
20
146.294
0
VERTEX
8
CONTOURS_MINEURES
10
8.637
20
146.360
0
VERTEX
8
CONTOURS_MINEURES
10
5.001
20
146.632
0
VERTEX
8
CONTOURS_MINEURES
10
1.697
20
146.700
0
VERTEX
8
CONTOURS_MINEURES
10
-0.005
20
146.734
0
SEQEND
0
POLYLINE
8
CONTOURS_MINEURES
66
1
70
0
0
VERTEX
8
CONTOURS_MINEURES
10
-0.005
20
84.890
0
VERTEX
8
CONTOURS_MINEURES
10
2.382
20
82.386
0
VERTEX
8
CONTOURS_MINEURES
10
5.001
20
80.230
0
VERTEX
8
CONTOURS_MINEURES
10
5.351
20
80.003
0
VERTEX
8
CONTOURS_MINEURES
10
7.985
20
77.987
0
VERTEX
8
CONTOURS_MINEURES
10
9.996
20
77.248
0
VERTEX
8
CONTOURS_MINEURES
10
13.370
20
76.629
0
VERTEX
8
CONTOURS_MINEURES
10
15.002
20
76.283
0
VERTEX
8
CONTOURS_MINEURES
10
19.608
20
75.387
0
VERTEX
8
CONTOURS_MINEURES
10
19.998
20
75.284
0
VERTEX
8
CONTOURS_MINEURES
10
20.254
20
75.252
0
VERTEX
8
CONTOURS_MINEURES
10
25.004
20
75.139
0
VERTEX
8
CONTOURS_MINEURES
10
25.616
20
74.996
0
VERTEX
8
CONTOURS_MINEURES
10
28.765
20
73.761
0
VERTEX
8
CONTOURS_MINEURES
10
29.999
20
73.725
0
VERTEX
8
CONTOURS_MINEURES
10
31.309
20
73.686
0
VERTEX
8
CONTOURS_MINEURES
10
34.995
20
73.535
0
VERTEX
8
CONTOURS_MINEURES
10
36.675
20
73.319
0
VERTEX
8
CONTOURS_MINEURES
10
40.001
20
72.944
0
VERTEX
8
CONTOURS_MINEURES
10
43.414
20
71.582
0
VERTEX
8
CONTOURS_MINEURES
10
44.996
20
70.940
0
VERTEX
8
CONTOURS_MINEURES
10
45.759
20
70.761
0
VERTEX
8
CONTOURS_MINEURES
10
46.903
20
69.999
0
VERTEX
8
CONTOURS_MINEURES
10
50.003
20
66.869
0
VERTEX
8
CONTOURS_MINEURES
10
53.690
20
65.003
0
VERTEX
8
CONTOURS_MINEURES
10
54.459
20
64.463
0
VERTEX
8
CONTOURS_MINEURES
10
54.998
20
64.181
0
VERTEX
8
CONTOURS_MINEURES
10
55.931
20
64.069
0
VERTEX
8
CONTOURS_MINEURES
10
60.004
20
63.244
0
VERTEX
8
CONTOURS_MINEURES
10
61.588
20
63.415
0
VERTEX
8
CONTOURS_MINEURES
10
64.999
20
63.785
0
VERTEX
8
CONTOURS_MINEURES
10
66.167
20
63.832
0
VERTEX
8
CONTOURS_MINEURES
10
69.995
20
63.783
0
VERTEX
8
CONTOURS_MINEURES
10
71.141
20
63.857
0
VERTEX
8
CONTOURS_MINEURES
10
73.392
20
65.003
0
VERTEX
8
CONTOURS_MINEURES
10
75.001
20
65.885
0
VERTEX
8
CONTOURS_MINEURES
10
76.627
20
69.999
0
VERTEX
8
CONTOURS_MINEURES
10
77.595
20
72.401
0
VERTEX
8
CONTOURS_MINEURES
10
78.050
20
74.996
0
VERTEX
8
CONTOURS_MINEURES
10
78.411
20
76.586
0
VERTEX
8
CONTOURS_MINEURES
10
78.726
20
80.003
0
VERTEX
8
CONTOURS_MINEURES
10
78.863
20
81.137
0
VERTEX
8
CONTOURS_MINEURES
10
78.805
20
85.000
0
VERTEX
8
CONTOURS_MINEURES
10
78.958
20
86.039
0
VERTEX
8
CONTOURS_MINEURES
10
78.790
20
89.996
0
VERTEX
8
CONTOURS_MINEURES
10
78.651
20
93.655
0
VERTEX
8
CONTOURS_MINEURES
10
78.780
20
95.004
0
VERTEX
8
CONTOURS_MINEURES
10
78.848
20
96.153
0
VERTEX
8
CONTOURS_MINEURES
10
79.231
20
100.000
0
VERTEX
8
CONTOURS_MINEURES
10
79.996
20
102.815
0
VERTEX
8
CONTOURS_MINEURES
10
80.712
20
104.283
0
VERTEX
8
CONTOURS_MINEURES
10
81.121
20
104.996
0
VERTEX
8
CONTOURS_MINEURES
10
85.003
20
108.743
0
VERTEX
8
CONTOURS_MINEURES
10
85.654
20
109.351
0
VERTEX
8
CONTOURS_MINEURES
10
86.699
20
110.004
0
VERTEX
8
CONTOURS_MINEURES
10
89.998
20
114.322
0
VERTEX
8
CONTOURS_MINEURES
10
90.578
20
115.000
0
VERTEX
8
CONTOURS_MINEURES
10
92.628
20
117.371
0
VERTEX
8
CONTOURS_MINEURES
10
95.004
20
119.716
0
VERTEX
8
CONTOURS_MINEURES
10
95.267
20
119.997
0
VERTEX
8
CONTOURS_MINEURES
10
97.569
20
122.433
0
VERTEX
8
CONTOURS_MINEURES
10
99.999
20
124.549
0
VERTEX
8
CONTOURS_MINEURES
10
100.548
20
125.004
0
VERTEX
8
CONTOURS_MINEURES
10
102.798
20
127.201
0
VERTEX
8
CONTOURS_MINEURES
10
104.995
20
129.149
0
VERTEX
8
CONTOURS_MINEURES
10
105.467
20
129.529
0
VERTEX
8
CONTOURS_MINEURES
10
105.945
20
130.001
0
VERTEX
8
CONTOURS_MINEURES
10
110.001
20
134.100
0
VERTEX
8
CONTOURS_MINEURES
10
110.452
20
134.546
0
VERTEX
8
CONTOURS_MINEURES
10
110.898
20
134.997
0
VERTEX
8
CONTOURS_MINEURES
10
112.822
20
137.177
0
VERTEX
8
CONTOURS_MINEURES
10
114.996
20
139.448
0
VERTEX
8
CONTOURS_MINEURES
10
115.269
20
139.732
0
VERTEX
8
CONTOURS_MINEURES
10
115.491
20
140.004
0
VERTEX
8
CONTOURS_MINEURES
10
116.598
20
141.603
0
VERTEX
8
CONTOURS_MINEURES
10
118.787
20
145.001
0
VERTEX
8
CONTOURS_MINEURES
10
120.003
20
149.046
0
VERTEX
8
CONTOURS_MINEURES
10
120.380
20
149.997
0
VERTEX
8
CONTOURS_MINEURES
10
120.003
20
152.223
0
VERTEX
8
CONTOURS_MINEURES
10
119.344
20
155.005
0
VERTEX
8
CONTOURS_MINEURES
10
117.199
20
157.203
0
VERTEX
8
CONTOURS_MINEURES
10
114.996
20
158.176
0
VERTEX
8
CONTOURS_MINEURES
10
110.658
20
159.344
0
VERTEX
8
CONTOURS_MINEURES
10
110.001
20
159.644
0
VERTEX
8
CONTOURS_MINEURES
10
109.713
20
159.714
0
VERTEX
8
CONTOURS_MINEURES
10
107.726
20
160.001
0
VERTEX
8
CONTOURS_MINEURES
10
104.995
20
160.578
0
VERTEX
8
CONTOURS_MINEURES
10
101.758
20
164.998
0
VERTEX
8
CONTOURS_MINEURES
10
99.999
20
169.036
0
VERTEX
8
CONTOURS_MINEURES
10
98.572
20
170.005
0
VERTEX
8
CONTOURS_MINEURES
10
95.594
20
170.595
0
VERTEX
8
CONTOURS_MINEURES
10
95.004
20
170.609
0
VERTEX
8
CONTOURS_MINEURES
10
94.389
20
170.619
0
VERTEX
8
CONTOURS_MINEURES
10
89.998
20
170.583
0
VERTEX
8
CONTOURS_MINEURES
10
89.438
20
170.565
0
VERTEX
8
CONTOURS_MINEURES
10
85.003
20
170.220
0
VERTEX
8
CONTOURS_MINEURES
10
84.811
20
170.196
0
VERTEX
8
CONTOURS_MINEURES
10
83.811
20
170.005
0
VERTEX
8
CONTOURS_MINEURES
10
80.637
20
169.364
0
VERTEX
8
CONTOURS_MINEURES
10
79.996
20
169.270
0
VERTEX
8
CONTOURS_MINEURES
10
76.000
20
165.999
0
VERTEX
8
CONTOURS_MINEURES
10
75.001
20
165.163
0
VERTEX
8
CONTOURS_MINEURES
10
74.898
20
165.100
0
VERTEX
8
CONTOURS_MINEURES
10
74.702
20
164.998
0
VERTEX
8
CONTOURS_MINEURES
10
69.995
20
162.796
0
VERTEX
8
CONTOURS_MINEURES
10
68.127
20
161.869
0
VERTEX
8
CONTOURS_MINEURES
10
64.999
20
160.146
0
VERTEX
8
CONTOURS_MINEURES
10
64.775
20
160.001
0
VERTEX
8
CONTOURS_MINEURES
10
62.026
20
157.979
0
VERTEX
8
CONTOURS_MINEURES
10
60.004
20
156.709
0
VERTEX
8
CONTOURS_MINEURES
10
56.987
20
155.005
0
VERTEX
8
CONTOURS_MINEURES
10
55.796
20
154.207
0
VERTEX
8
CONTOURS_MINEURES
10
54.998
20
153.731
0
VERTEX
8
CONTOURS_MINEURES
10
52.265
20
152.265
0
VERTEX
8
CONTOURS_MINEURES
10
50.003
20
151.033
0
VERTEX
8
CONTOURS_MINEURES
10
47.142
20
149.997
0
VERTEX
8
CONTOURS_MINEURES
10
45.511
20
149.483
0
VERTEX
8
CONTOURS_MINEURES
10
44.996
20
149.341
0
VERTEX
8
CONTOURS_MINEURES
10
44.008
20
149.009
0
VERTEX
8
CONTOURS_MINEURES
10
40.001
20
147.499
0
VERTEX
8
CONTOURS_MINEURES
10
38.293
20
146.705
0
VERTEX
8
CONTOURS_MINEURES
10
34.995
20
145.332
0
VERTEX
8
CONTOURS_MINEURES
10
34.758
20
145.238
0
VERTEX
8
CONTOURS_MINEURES
10
34.162
20
145.001
0
VERTEX
8
CONTOURS_MINEURES
10
29.999
20
143.658
0
VERTEX
8
CONTOURS_MINEURES
10
28.334
20
143.335
0
VERTEX
8
CONTOURS_MINEURES
10
25.004
20
142.705
0
VERTEX
8
CONTOURS_MINEURES
10
22.718
20
142.286
0
VERTEX
8
CONTOURS_MINEURES
10
19.998
20
141.462
0
VERTEX
8
CONTOURS_MINEURES
10
15.704
20
140.004
0
VERTEX
8
CONTOURS_MINEURES
10
15.203
20
139.803
0
VERTEX
8
CONTOURS_MINEURES
10
15.002
20
139.689
0
VERTEX
8
CONTOURS_MINEURES
10
14.654
20
139.656
0
VERTEX
8
CONTOURS_MINEURES
10
9.996
20
139.538
0
VERTEX
8
CONTOURS_MINEURES
10
5.388
20
139.616
0
VERTEX
8
CONTOURS_MINEURES
10
5.001
20
139.644
0
VERTEX
8
CONTOURS_MINEURES
10
4.716
20
139.719
0
VERTEX
8
CONTOURS_MINEURES
10
1.783
20
140.004
0
VERTEX
8
CONTOURS_MINEURES
10
-0.005
20
140.167
0
SEQEND
0
POLYLINE
8
CONTOURS_MINEURES
66
1
70
0
0
VERTEX
8
CONTOURS_MINEURES
10
-0.005
20
89.578
0
VERTEX
8
CONTOURS_MINEURES
10
3.621
20
88.618
0
VERTEX
8
CONTOURS_MINEURES
10
5.001
20
87.069
0
VERTEX
8
CONTOURS_MINEURES
10
8.579
20
85.000
0
VERTEX
8
CONTOURS_MINEURES
10
9.996
20
84.180
0
VERTEX
8
CONTOURS_MINEURES
10
13.716
20
83.716
0
VERTEX
8
CONTOURS_MINEURES
10
15.002
20
83.272
0
VERTEX
8
CONTOURS_MINEURES
10
17.303
20
82.304
0
VERTEX
8
CONTOURS_MINEURES
10
19.998
20
80.983
0
VERTEX
8
CONTOURS_MINEURES
10
24.170
20
80.003
0
VERTEX
8
CONTOURS_MINEURES
10
24.911
20
79.910
0
VERTEX
8
CONTOURS_MINEURES
10
25.004
20
79.908
0
VERTEX
8
CONTOURS_MINEURES
10
25.128
20
79.879
0
VERTEX
8
CONTOURS_MINEURES
10
29.999
20
78.776
0
VERTEX
8
CONTOURS_MINEURES
10
33.681
20
78.687
0
VERTEX
8
CONTOURS_MINEURES
10
34.995
20
78.642
0
VERTEX
8
CONTOURS_MINEURES
10
38.712
20
78.714
0
VERTEX
8
CONTOURS_MINEURES
10
40.001
20
78.580
0
VERTEX
8
CONTOURS_MINEURES
10
42.280
20
77.719
0
VERTEX
8
CONTOURS_MINEURES
10
44.996
20
77.384
0
VERTEX
8
CONTOURS_MINEURES
10
48.779
20
76.220
0
VERTEX
8
CONTOURS_MINEURES
10
50.003
20
76.292
0
VERTEX
8
CONTOURS_MINEURES
10
54.037
20
75.959
0
VERTEX
8
CONTOURS_MINEURES
10
54.998
20
75.912
0
VERTEX
8
CONTOURS_MINEURES
10
55.986
20
75.984
0
VERTEX
8
CONTOURS_MINEURES
10
60.004
20
75.876
0
VERTEX
8
CONTOURS_MINEURES
10
63.961
20
76.036
0
VERTEX
8
CONTOURS_MINEURES
10
64.999
20
76.427
0
VERTEX
8
CONTOURS_MINEURES
10
67.323
20
77.674
0
VERTEX
8
CONTOURS_MINEURES
10
69.995
20
79.603
0
VERTEX
8
CONTOURS_MINEURES
10
70.177
20
79.821
0
VERTEX
8
CONTOURS_MINEURES
10
70.262
20
80.003
0
VERTEX
8
CONTOURS_MINEURES
10
70.366
20
80.373
0
VERTEX
8
CONTOURS_MINEURES
10
72.280
20
85.000
0
VERTEX
8
CONTOURS_MINEURES
10
73.332
20
88.331
0
VERTEX
8
CONTOURS_MINEURES
10
73.939
20
89.996
0
VERTEX
8
CONTOURS_MINEURES
10
74.186
20
90.811
0
VERTEX
8
CONTOURS_MINEURES
10
75.001
20
94.041
0
VERTEX
8
CONTOURS_MINEURES
10
75.093
20
95.004
0
VERTEX
8
CONTOURS_MINEURES
10
75.367
20
99.634
0
VERTEX
8
CONTOURS_MINEURES
10
75.403
20
100.000
0
VERTEX
8
CONTOURS_MINEURES
10
75.553
20
100.552
0
VERTEX
8
CONTOURS_MINEURES
10
76.493
20
104.996
0
VERTEX
8
CONTOURS_MINEURES
10
77.632
20
107.367
0
VERTEX
8
CONTOURS_MINEURES
10
79.084
20
110.004
0
VERTEX
8
CONTOURS_MINEURES
10
79.211
20
110.790
0
VERTEX
8
CONTOURS_MINEURES
10
79.996
20
112.627
0
VERTEX
8
CONTOURS_MINEURES
10
80.938
20
114.060
0
VERTEX
8
CONTOURS_MINEURES
10
81.416
20
115.000
0
VERTEX
8
CONTOURS_MINEURES
10
82.681
20
117.317
0
VERTEX
8
CONTOURS_MINEURES
10
84.551
20
119.997
0
VERTEX
8
CONTOURS_MINEURES
10
85.003
20
120.668
0
VERTEX
8
CONTOURS_MINEURES
10
89.033
20
125.004
0
VERTEX
8
CONTOURS_MINEURES
10
89.391
20
125.611
0
VERTEX
8
CONTOURS_MINEURES
10
89.998
20
126.200
0
VERTEX
8
CONTOURS_MINEURES
10
91.698
20
128.304
0
VERTEX
8
CONTOURS_MINEURES
10
93.141
20
130.001
0
VERTEX
8
CONTOURS_MINEURES
10
93.781
20
131.221
0
VERTEX
8
CONTOURS_MINEURES
10
95.004
20
132.757
0
VERTEX
8
CONTOURS_MINEURES
10
96.783
20
134.997
0
VERTEX
8
CONTOURS_MINEURES
10
97.475
20
137.528
0
VERTEX
8
CONTOURS_MINEURES
10
99.035
20
140.004
0
VERTEX
8
CONTOURS_MINEURES
10
98.899
20
143.900
0
VERTEX
8
CONTOURS_MINEURES
10
98.032
20
145.001
0
VERTEX
8
CONTOURS_MINEURES
10
95.004
20
147.221
0
VERTEX
8
CONTOURS_MINEURES
10
93.049
20
148.046
0
VERTEX
8
CONTOURS_MINEURES
10
91.212
20
149.997
0
VERTEX
8
CONTOURS_MINEURES
10
90.562
20
150.561
0
VERTEX
8
CONTOURS_MINEURES
10
89.998
20
153.336
0
VERTEX
8
CONTOURS_MINEURES
10
88.749
20
155.005
0
VERTEX
8
CONTOURS_MINEURES
10
85.003
20
156.822
0
VERTEX
8
CONTOURS_MINEURES
10
83.751
20
156.254
0
VERTEX
8
CONTOURS_MINEURES
10
79.996
20
155.504
0
VERTEX
8
CONTOURS_MINEURES
10
78.331
20
155.005
0
VERTEX
8
CONTOURS_MINEURES
10
75.001
20
153.574
0
VERTEX
8
CONTOURS_MINEURES
10
72.776
20
152.223
0
VERTEX
8
CONTOURS_MINEURES
10
69.995
20
152.283
0
VERTEX
8
CONTOURS_MINEURES
10
65.688
20
150.688
0
VERTEX
8
CONTOURS_MINEURES
10
64.999
20
150.251
0
VERTEX
8
CONTOURS_MINEURES
10
64.608
20
149.997
0
VERTEX
8
CONTOURS_MINEURES
10
60.004
20
147.417
0
VERTEX
8
CONTOURS_MINEURES
10
58.619
20
146.383
0
VERTEX
8
CONTOURS_MINEURES
10
55.415
20
145.001
0
VERTEX
8
CONTOURS_MINEURES
10
54.998
20
144.838
0
VERTEX
8
CONTOURS_MINEURES
10
51.328
20
143.675
0
VERTEX
8
CONTOURS_MINEURES
10
50.003
20
143.348
0
VERTEX
8
CONTOURS_MINEURES
10
48.028
20
143.030
0
VERTEX
8
CONTOURS_MINEURES
10
44.996
20
142.248
0
VERTEX
8
CONTOURS_MINEURES
10
43.288
20
141.713
0
VERTEX
8
CONTOURS_MINEURES
10
40.001
20
141.178
0
VERTEX
8
CONTOURS_MINEURES
10
36.635
20
140.004
0
VERTEX
8
CONTOURS_MINEURES
10
34.995
20
139.383
0
VERTEX
8
CONTOURS_MINEURES
10
31.614
20
138.386
0
VERTEX
8
CONTOURS_MINEURES
10
29.999
20
137.976
0
VERTEX
8
CONTOURS_MINEURES
10
27.579
20
137.423
0
VERTEX
8
CONTOURS_MINEURES
10
25.004
20
136.732
0
VERTEX
8
CONTOURS_MINEURES
10
20.725
20
134.997
0
VERTEX
8
CONTOURS_MINEURES
10
20.236
20
134.759
0
VERTEX
8
CONTOURS_MINEURES
10
19.998
20
134.699
0
VERTEX
8
CONTOURS_MINEURES
10
16.817
20
133.182
0
VERTEX
8
CONTOURS_MINEURES
10
15.002
20
132.588
0
VERTEX
8
CONTOURS_MINEURES
10
12.583
20
132.415
0
VERTEX
8
CONTOURS_MINEURES
10
9.996
20
132.037
0
VERTEX
8
CONTOURS_MINEURES
10
6.999
20
131.999
0
VERTEX
8
CONTOURS_MINEURES
10
5.001
20
132.122
0
VERTEX
8
CONTOURS_MINEURES
10
2.254
20
132.742
0
VERTEX
8
CONTOURS_MINEURES
10
-0.005
20
133.137
0
SEQEND
0
POLYLINE
8
CONTOURS_MINEURES
66
1
70
0
0
VERTEX
8
CONTOURS_MINEURES
10
-0.005
20
97.204
0
VERTEX
8
CONTOURS_MINEURES
10
1.634
20
96.640
0
VERTEX
8
CONTOURS_MINEURES
10
5.001
20
95.960
0
VERTEX
8
CONTOURS_MINEURES
10
5.639
20
95.641
0
VERTEX
8
CONTOURS_MINEURES
10
9.497
20
95.004
0
VERTEX
8
CONTOURS_MINEURES
10
9.918
20
94.925
0
VERTEX
8
CONTOURS_MINEURES
10
9.996
20
94.902
0
VERTEX
8
CONTOURS_MINEURES
10
10.144
20
94.856
0
VERTEX
8
CONTOURS_MINEURES
10
15.002
20
93.085
0
VERTEX
8
CONTOURS_MINEURES
10
16.844
20
91.842
0
VERTEX
8
CONTOURS_MINEURES
10
19.998
20
91.047
0
VERTEX
8
CONTOURS_MINEURES
10
24.417
20
90.583
0
VERTEX
8
CONTOURS_MINEURES
10
25.004
20
90.529
0
VERTEX
8
CONTOURS_MINEURES
10
29.960
20
90.036
0
VERTEX
8
CONTOURS_MINEURES
10
29.999
20
90.035
0
VERTEX
8
CONTOURS_MINEURES
10
30.036
20
90.033
0
VERTEX
8
CONTOURS_MINEURES
10
30.217
20
89.996
0
VERTEX
8
CONTOURS_MINEURES
10
34.995
20
88.733
0
VERTEX
8
CONTOURS_MINEURES
10
38.036
20
88.035
0
VERTEX
8
CONTOURS_MINEURES
10
40.001
20
87.611
0
VERTEX
8
CONTOURS_MINEURES
10
42.469
20
87.527
0
VERTEX
8
CONTOURS_MINEURES
10
44.996
20
89.053
0
VERTEX
8
CONTOURS_MINEURES
10
47.082
20
89.996
0
VERTEX
8
CONTOURS_MINEURES
10
50.003
20
91.943
0
VERTEX
8
CONTOURS_MINEURES
10
52.001
20
93.001
0
VERTEX
8
CONTOURS_MINEURES
10
54.998
20
93.369
0
VERTEX
8
CONTOURS_MINEURES
10
56.142
20
93.859
0
VERTEX
8
CONTOURS_MINEURES
10
60.004
20
94.288
0
VERTEX
8
CONTOURS_MINEURES
10
60.588
20
94.418
0
VERTEX
8
CONTOURS_MINEURES
10
61.409
20
95.004
0
VERTEX
8
CONTOURS_MINEURES
10
62.814
20
97.814
0
VERTEX
8
CONTOURS_MINEURES
10
64.054
20
100.000
0
VERTEX
8
CONTOURS_MINEURES
10
64.397
20
100.603
0
VERTEX
8
CONTOURS_MINEURES
10
64.999
20
102.186
0
VERTEX
8
CONTOURS_MINEURES
10
65.802
20
104.996
0
VERTEX
8
CONTOURS_MINEURES
10
67.880
20
107.117
0
VERTEX
8
CONTOURS_MINEURES
10
69.995
20
107.832
0
VERTEX
8
CONTOURS_MINEURES
10
73.749
20
110.004
0
VERTEX
8
CONTOURS_MINEURES
10
75.001
20
111.624
0
VERTEX
8
CONTOURS_MINEURES
10
75.469
20
114.532
0
VERTEX
8
CONTOURS_MINEURES
10
75.669
20
115.000
0
VERTEX
8
CONTOURS_MINEURES
10
76.096
20
116.096
0
VERTEX
8
CONTOURS_MINEURES
10
76.550
20
119.997
0
VERTEX
8
CONTOURS_MINEURES
10
76.654
20
123.348
0
VERTEX
8
CONTOURS_MINEURES
10
77.681
20
125.004
0
VERTEX
8
CONTOURS_MINEURES
10
77.783
20
127.787
0
VERTEX
8
CONTOURS_MINEURES
10
77.130
20
130.001
0
VERTEX
8
CONTOURS_MINEURES
10
75.395
20
134.603
0
VERTEX
8
CONTOURS_MINEURES
10
75.301
20
134.997
0
VERTEX
8
CONTOURS_MINEURES
10
75.001
20
135.373
0
VERTEX
8
CONTOURS_MINEURES
10
71.571
20
136.573
0
VERTEX
8
CONTOURS_MINEURES
10
69.995
20
136.603
0
VERTEX
8
CONTOURS_MINEURES
10
68.422
20
136.573
0
VERTEX
8
CONTOURS_MINEURES
10
64.999
20
137.154
0
VERTEX
8
CONTOURS_MINEURES
10
62.359
20
137.358
0
VERTEX
8
CONTOURS_MINEURES
10
60.004
20
137.012
0
VERTEX
8
CONTOURS_MINEURES
10
56.644
20
136.643
0
VERTEX
8
CONTOURS_MINEURES
10
54.998
20
136.142
0
VERTEX
8
CONTOURS_MINEURES
10
54.123
20
135.874
0
VERTEX
8
CONTOURS_MINEURES
10
50.864
20
134.997
0
VERTEX
8
CONTOURS_MINEURES
10
50.003
20
134.402
0
VERTEX
8
CONTOURS_MINEURES
10
49.392
20
134.388
0
VERTEX
8
CONTOURS_MINEURES
10
44.996
20
133.102
0
VERTEX
8
CONTOURS_MINEURES
10
42.272
20
132.726
0
VERTEX
8
CONTOURS_MINEURES
10
40.001
20
132.655
0
VERTEX
8
CONTOURS_MINEURES
10
38.299
20
131.699
0
VERTEX
8
CONTOURS_MINEURES
10
34.995
20
131.373
0
VERTEX
8
CONTOURS_MINEURES
10
30.599
20
130.600
0
VERTEX
8
CONTOURS_MINEURES
10
29.999
20
130.392
0
VERTEX
8
CONTOURS_MINEURES
10
28.449
20
130.001
0
VERTEX
8
CONTOURS_MINEURES
10
26.392
20
128.613
0
VERTEX
8
CONTOURS_MINEURES
10
25.004
20
128.573
0
VERTEX
8
CONTOURS_MINEURES
10
23.532
20
128.531
0
VERTEX
8
CONTOURS_MINEURES
10
19.998
20
127.267
0
VERTEX
8
CONTOURS_MINEURES
10
16.668
20
126.670
0
VERTEX
8
CONTOURS_MINEURES
10
15.002
20
126.025
0
VERTEX
8
CONTOURS_MINEURES
10
14.123
20
125.882
0
VERTEX
8
CONTOURS_MINEURES
10
9.996
20
125.500
0
VERTEX
8
CONTOURS_MINEURES
10
5.406
20
125.409
0
VERTEX
8
CONTOURS_MINEURES
10
5.001
20
125.404
0
VERTEX
8
CONTOURS_MINEURES
10
0.601
20
125.609
0
VERTEX
8
CONTOURS_MINEURES
10
-0.005
20
125.718
0
SEQEND
0
POLYLINE
8
CONTOURS_MINEURES
66
1
70
0
0
VERTEX
8
CONTOURS_MINEURES
10
22.575
20
97.576
0
VERTEX
8
CONTOURS_MINEURES
10
25.004
20
97.374
0
VERTEX
8
CONTOURS_MINEURES
10
27.664
20
97.340
0
VERTEX
8
CONTOURS_MINEURES
10
29.999
20
97.468
0
VERTEX
8
CONTOURS_MINEURES
10
32.745
20
97.750
0
VERTEX
8
CONTOURS_MINEURES
10
34.995
20
97.623
0
VERTEX
8
CONTOURS_MINEURES
10
37.541
20
97.459
0
VERTEX
8
CONTOURS_MINEURES
10
40.001
20
97.823
0
VERTEX
8
CONTOURS_MINEURES
10
44.593
20
99.597
0
VERTEX
8
CONTOURS_MINEURES
10
44.996
20
99.792
0
VERTEX
8
CONTOURS_MINEURES
10
45.354
20
100.000
0
VERTEX
8
CONTOURS_MINEURES
10
48.018
20
101.980
0
VERTEX
8
CONTOURS_MINEURES
10
50.003
20
103.314
0
VERTEX
8
CONTOURS_MINEURES
10
51.603
20
104.996
0
VERTEX
8
CONTOURS_MINEURES
10
52.866
20
107.134
0
VERTEX
8
CONTOURS_MINEURES
10
54.998
20
107.917
0
VERTEX
8
CONTOURS_MINEURES
10
57.552
20
110.004
0
VERTEX
8
CONTOURS_MINEURES
10
57.316
20
112.317
0
VERTEX
8
CONTOURS_MINEURES
10
56.742
20
115.000
0
VERTEX
8
CONTOURS_MINEURES
10
54.998
20
116.462
0
VERTEX
8
CONTOURS_MINEURES
10
52.687
20
117.312
0
VERTEX
8
CONTOURS_MINEURES
10
50.003
20
118.250
0
VERTEX
8
CONTOURS_MINEURES
10
48.572
20
118.569
0
VERTEX
8
CONTOURS_MINEURES
10
44.996
20
118.627
0
VERTEX
8
CONTOURS_MINEURES
10
41.428
20
118.569
0
VERTEX
8
CONTOURS_MINEURES
10
40.001
20
118.703
0
VERTEX
8
CONTOURS_MINEURES
10
35.876
20
119.117
0
VERTEX
8
CONTOURS_MINEURES
10
34.995
20
119.151
0
VERTEX
8
CONTOURS_MINEURES
10
34.071
20
119.073
0
VERTEX
8
CONTOURS_MINEURES
10
29.999
20
118.366
0
VERTEX
8
CONTOURS_MINEURES
10
26.873
20
118.127
0
VERTEX
8
CONTOURS_MINEURES
10
25.004
20
117.818
0
VERTEX
8
CONTOURS_MINEURES
10
22.322
20
117.677
0
VERTEX
8
CONTOURS_MINEURES
10
19.998
20
117.378
0
VERTEX
8
CONTOURS_MINEURES
10
17.441
20
117.439
0
VERTEX
8
CONTOURS_MINEURES
10
15.002
20
117.152
0
VERTEX
8
CONTOURS_MINEURES
10
10.057
20
115.060
0
VERTEX
8
CONTOURS_MINEURES
10
9.996
20
115.042
0
VERTEX
8
CONTOURS_MINEURES
10
9.896
20
115.000
0
VERTEX
8
CONTOURS_MINEURES
10
5.001
20
110.628
0
VERTEX
8
CONTOURS_MINEURES
10
4.462
20
110.542
0
VERTEX
8
CONTOURS_MINEURES
10
3.157
20
110.004
0
VERTEX
8
CONTOURS_MINEURES
10
4.521
20
109.524
0
VERTEX
8
CONTOURS_MINEURES
10
5.001
20
109.002
0
VERTEX
8
CONTOURS_MINEURES
10
7.089
20
104.996
0
VERTEX
8
CONTOURS_MINEURES
10
8.801
20
103.801
0
VERTEX
8
CONTOURS_MINEURES
10
9.996
20
103.317
0
VERTEX
8
CONTOURS_MINEURES
10
13.363
20
101.637
0
VERTEX
8
CONTOURS_MINEURES
10
15.002
20
100.811
0
VERTEX
8
CONTOURS_MINEURES
10
15.644
20
100.641
0
VERTEX
8
CONTOURS_MINEURES
10
16.093
20
100.000
0
VERTEX
8
CONTOURS_MINEURES
10
19.998
20
97.808
0
VERTEX
8
CONTOURS_MINEURES
10
22.575
20
97.576
0
SEQEND
0
POLYLINE
8
CONTOURS_MAJEURES
66
1
70
0
0
VERTEX
8
CONTOURS_MAJEURES
10
35.298
20
205.002
0
VERTEX
8
CONTOURS_MAJEURES
10
35.102
20
204.895
0
VERTEX
8
CONTOURS_MAJEURES
10
34.995
20
204.863
0
VERTEX
8
CONTOURS_MAJEURES
10
34.735
20
204.742
0
VERTEX
8
CONTOURS_MAJEURES
10
29.999
20
202.615
0
VERTEX
8
CONTOURS_MAJEURES
10
28.167
20
201.831
0
VERTEX
8
CONTOURS_MAJEURES
10
25.004
20
200.034
0
VERTEX
8
CONTOURS_MAJEURES
10
24.931
20
199.994
0
VERTEX
8
CONTOURS_MAJEURES
10
22.312
20
197.685
0
VERTEX
8
CONTOURS_MAJEURES
10
19.998
20
195.278
0
VERTEX
8
CONTOURS_MAJEURES
10
19.840
20
194.998
0
VERTEX
8
CONTOURS_MAJEURES
10
18.002
20
191.998
0
VERTEX
8
CONTOURS_MAJEURES
10
15.906
20
190.002
0
VERTEX
8
CONTOURS_MAJEURES
10
15.539
20
189.465
0
VERTEX
8
CONTOURS_MAJEURES
10
15.002
20
189.145
0
VERTEX
8
CONTOURS_MAJEURES
10
10.854
20
189.145
0
VERTEX
8
CONTOURS_MAJEURES
10
9.996
20
189.079
0
VERTEX
8
CONTOURS_MAJEURES
10
9.079
20
189.084
0
VERTEX
8
CONTOURS_MAJEURES
10
5.001
20
189.105
0
VERTEX
8
CONTOURS_MAJEURES
10
1.425
20
188.574
0
VERTEX
8
CONTOURS_MAJEURES
10
-0.005
20
188.568
0
SEQEND
0
POLYLINE
8
CONTOURS_MAJEURES
66
1
70
0
0
VERTEX
8
CONTOURS_MAJEURES
10
-0.005
20
21.528
0
VERTEX
8
CONTOURS_MAJEURES
10
4.763
20
20.002
0
VERTEX
8
CONTOURS_MAJEURES
10
4.942
20
19.944
0
VERTEX
8
CONTOURS_MAJEURES
10
5.001
20
19.946
0
VERTEX
8
CONTOURS_MAJEURES
10
5.131
20
19.872
0
VERTEX
8
CONTOURS_MAJEURES
10
9.996
20
18.677
0
VERTEX
8
CONTOURS_MAJEURES
10
12.550
20
17.550
0
VERTEX
8
CONTOURS_MAJEURES
10
15.002
20
15.495
0
VERTEX
8
CONTOURS_MAJEURES
10
19.234
20
15.761
0
VERTEX
8
CONTOURS_MAJEURES
10
19.998
20
15.252
0
VERTEX
8
CONTOURS_MAJEURES
10
24.337
20
14.995
0
VERTEX
8
CONTOURS_MAJEURES
10
24.929
20
14.920
0
VERTEX
8
CONTOURS_MAJEURES
10
25.004
20
14.899
0
VERTEX
8
CONTOURS_MAJEURES
10
25.236
20
14.762
0
VERTEX
8
CONTOURS_MAJEURES
10
29.999
20
12.559
0
VERTEX
8
CONTOURS_MAJEURES
10
31.896
20
11.895
0
VERTEX
8
CONTOURS_MAJEURES
10
34.995
20
10.345
0
VERTEX
8
CONTOURS_MAJEURES
10
36.083
20
9.998
0
VERTEX
8
CONTOURS_MAJEURES
10
39.042
20
9.042
0
VERTEX
8
CONTOURS_MAJEURES
10
40.001
20
8.392
0
VERTEX
8
CONTOURS_MAJEURES
10
40.928
20
9.071
0
VERTEX
8
CONTOURS_MAJEURES
10
44.996
20
7.883
0
VERTEX
8
CONTOURS_MAJEURES
10
46.827
20
6.829
0
VERTEX
8
CONTOURS_MAJEURES
10
50.003
20
5.948
0
VERTEX
8
CONTOURS_MAJEURES
10
50.597
20
5.596
0
VERTEX
8
CONTOURS_MAJEURES
10
51.430
20
5.002
0
VERTEX
8
CONTOURS_MAJEURES
10
53.386
20
3.390
0
VERTEX
8
CONTOURS_MAJEURES
10
54.998
20
2.608
0
VERTEX
8
CONTOURS_MAJEURES
10
59.631
20
0.006
0
SEQEND
0
POLYLINE
8
CONTOURS_MAJEURES
66
1
70
0
0
VERTEX
8
CONTOURS_MAJEURES
10
156.359
20
0.006
0
VERTEX
8
CONTOURS_MAJEURES
10
157.783
20
2.221
0
VERTEX
8
CONTOURS_MAJEURES
10
159.704
20
5.002
0
VERTEX
8
CONTOURS_MAJEURES
10
159.998
20
5.418
0
VERTEX
8
CONTOURS_MAJEURES
10
161.881
20
8.119
0
VERTEX
8
CONTOURS_MAJEURES
10
164.154
20
9.998
0
VERTEX
8
CONTOURS_MAJEURES
10
165.004
20
11.020
0
VERTEX
8
CONTOURS_MAJEURES
10
166.718
20
13.280
0
VERTEX
8
CONTOURS_MAJEURES
10
168.019
20
14.995
0
VERTEX
8
CONTOURS_MAJEURES
10
170.000
20
16.382
0
SEQEND
0
POLYLINE
8
CONTOURS_MAJEURES
66
1
70
0
0
VERTEX
8
CONTOURS_MAJEURES
10
170.000
20
34.446
0
VERTEX
8
CONTOURS_MAJEURES
10
169.597
20
35.002
0
VERTEX
8
CONTOURS_MAJEURES
10
167.291
20
37.290
0
VERTEX
8
CONTOURS_MAJEURES
10
165.004
20
39.749
0
VERTEX
8
CONTOURS_MAJEURES
10
164.877
20
39.872
0
VERTEX
8
CONTOURS_MAJEURES
10
164.787
20
39.999
0
VERTEX
8
CONTOURS_MAJEURES
10
162.277
20
42.273
0
VERTEX
8
CONTOURS_MAJEURES
10
159.998
20
43.833
0
VERTEX
8
CONTOURS_MAJEURES
10
159.282
20
44.279
0
VERTEX
8
CONTOURS_MAJEURES
10
158.039
20
44.995
0
VERTEX
8
CONTOURS_MAJEURES
10
155.003
20
46.749
0
VERTEX
8
CONTOURS_MAJEURES
10
152.894
20
47.893
0
VERTEX
8
CONTOURS_MAJEURES
10
149.996
20
49.849
0
VERTEX
8
CONTOURS_MAJEURES
10
149.759
20
50.003
0
VERTEX
8
CONTOURS_MAJEURES
10
146.900
20
51.903
0
VERTEX
8
CONTOURS_MAJEURES
10
145.001
20
53.126
0
VERTEX
8
CONTOURS_MAJEURES
10
143.969
20
53.969
0
VERTEX
8
CONTOURS_MAJEURES
10
142.776
20
54.999
0
VERTEX
8
CONTOURS_MAJEURES
10
141.331
20
56.333
0
VERTEX
8
CONTOURS_MAJEURES
10
139.995
20
57.584
0
VERTEX
8
CONTOURS_MAJEURES
10
139.290
20
59.290
0
VERTEX
8
CONTOURS_MAJEURES
10
139.007
20
59.996
0
VERTEX
8
CONTOURS_MAJEURES
10
137.949
20
62.952
0
VERTEX
8
CONTOURS_MAJEURES
10
137.231
20
65.003
0
VERTEX
8
CONTOURS_MAJEURES
10
136.813
20
66.817
0
VERTEX
8
CONTOURS_MAJEURES
10
135.784
20
69.999
0
VERTEX
8
CONTOURS_MAJEURES
10
135.000
20
72.793
0
VERTEX
8
CONTOURS_MAJEURES
10
133.938
20
74.996
0
VERTEX
8
CONTOURS_MAJEURES
10
132.880
20
77.879
0
VERTEX
8
CONTOURS_MAJEURES
10
131.784
20
80.003
0
VERTEX
8
CONTOURS_MAJEURES
10
131.660
20
81.660
0
VERTEX
8
CONTOURS_MAJEURES
10
130.752
20
85.000
0
VERTEX
8
CONTOURS_MAJEURES
10
131.395
20
86.391
0
VERTEX
8
CONTOURS_MAJEURES
10
132.758
20
89.996
0
VERTEX
8
CONTOURS_MAJEURES
10
135.000
20
94.016
0
VERTEX
8
CONTOURS_MAJEURES
10
135.286
20
94.716
0
VERTEX
8
CONTOURS_MAJEURES
10
135.362
20
95.004
0
VERTEX
8
CONTOURS_MAJEURES
10
135.499
20
95.503
0
VERTEX
8
CONTOURS_MAJEURES
10
137.527
20
100.000
0
VERTEX
8
CONTOURS_MAJEURES
10
138.405
20
101.590
0
VERTEX
8
CONTOURS_MAJEURES
10
139.634
20
104.996
0
VERTEX
8
CONTOURS_MAJEURES
10
139.995
20
105.338
0
VERTEX
8
CONTOURS_MAJEURES
10
143.889
20
106.109
0
VERTEX
8
CONTOURS_MAJEURES
10
145.001
20
107.019
0
VERTEX
8
CONTOURS_MAJEURES
10
148.201
20
108.204
0
VERTEX
8
CONTOURS_MAJEURES
10
149.996
20
108.116
0
VERTEX
8
CONTOURS_MAJEURES
10
151.839
20
108.161
0
VERTEX
8
CONTOURS_MAJEURES
10
155.003
20
108.349
0
VERTEX
8
CONTOURS_MAJEURES
10
156.435
20
108.568
0
VERTEX
8
CONTOURS_MAJEURES
10
159.998
20
108.945
0
VERTEX
8
CONTOURS_MAJEURES
10
160.806
20
109.195
0
VERTEX
8
CONTOURS_MAJEURES
10
164.647
20
110.004
0
VERTEX
8
CONTOURS_MAJEURES
10
165.004
20
110.107
0
VERTEX
8
CONTOURS_MAJEURES
10
165.114
20
110.114
0
VERTEX
8
CONTOURS_MAJEURES
10
170.000
20
110.921
0
SEQEND
0
POLYLINE
8
CONTOURS_MAJEURES
66
1
70
0
0
VERTEX
8
CONTOURS_MAJEURES
10
170.000
20
189.817
0
VERTEX
8
CONTOURS_MAJEURES
10
169.924
20
189.926
0
VERTEX
8
CONTOURS_MAJEURES
10
169.706
20
190.002
0
VERTEX
8
CONTOURS_MAJEURES
10
165.004
20
193.778
0
VERTEX
8
CONTOURS_MAJEURES
10
162.233
20
194.998
0
VERTEX
8
CONTOURS_MAJEURES
10
162.605
20
197.600
0
VERTEX
8
CONTOURS_MAJEURES
10
159.998
20
196.950
0
VERTEX
8
CONTOURS_MAJEURES
10
157.768
20
197.229
0
VERTEX
8
CONTOURS_MAJEURES
10
155.003
20
199.303
0
VERTEX
8
CONTOURS_MAJEURES
10
152.933
20
199.994
0
VERTEX
8
CONTOURS_MAJEURES
10
153.143
20
203.142
0
VERTEX
8
CONTOURS_MAJEURES
10
149.996
20
202.416
0
VERTEX
8
CONTOURS_MAJEURES
10
147.998
20
201.997
0
VERTEX
8
CONTOURS_MAJEURES
10
145.001
20
203.750
0
VERTEX
8
CONTOURS_MAJEURES
10
144.197
20
204.198
0
VERTEX
8
CONTOURS_MAJEURES
10
139.995
20
204.069
0
VERTEX
8
CONTOURS_MAJEURES
10
139.541
20
204.547
0
VERTEX
8
CONTOURS_MAJEURES
10
138.272
20
205.002
0
SEQEND
0
POLYLINE
8
CONTOURS_MAJEURES
66
1
70
0
0
VERTEX
8
CONTOURS_MAJEURES
10
164.587
20
205.002
0
VERTEX
8
CONTOURS_MAJEURES
10
164.879
20
204.877
0
VERTEX
8
CONTOURS_MAJEURES
10
165.004
20
204.793
0
VERTEX
8
CONTOURS_MAJEURES
10
165.504
20
204.501
0
VERTEX
8
CONTOURS_MAJEURES
10
170.000
20
201.043
0
SEQEND
0
POLYLINE
8
CONTOURS_MAJEURES
66
1
70
0
0
VERTEX
8
CONTOURS_MAJEURES
10
-0.005
20
63.646
0
VERTEX
8
CONTOURS_MAJEURES
10
2.267
20
62.269
0
VERTEX
8
CONTOURS_MAJEURES
10
5.001
20
60.655
0
VERTEX
8
CONTOURS_MAJEURES
10
7.176
20
59.996
0
VERTEX
8
CONTOURS_MAJEURES
10
9.164
20
59.163
0
VERTEX
8
CONTOURS_MAJEURES
10
9.996
20
58.514
0
VERTEX
8
CONTOURS_MAJEURES
10
12.869
20
57.129
0
VERTEX
8
CONTOURS_MAJEURES
10
15.002
20
56.213
0
VERTEX
8
CONTOURS_MAJEURES
10
15.382
20
55.379
0
VERTEX
8
CONTOURS_MAJEURES
10
16.142
20
54.999
0
VERTEX
8
CONTOURS_MAJEURES
10
19.998
20
50.513
0
VERTEX
8
CONTOURS_MAJEURES
10
20.305
20
50.309
0
VERTEX
8
CONTOURS_MAJEURES
10
21.162
20
50.003
0
VERTEX
8
CONTOURS_MAJEURES
10
25.004
20
48.444
0
VERTEX
8
CONTOURS_MAJEURES
10
27.283
20
47.280
0
VERTEX
8
CONTOURS_MAJEURES
10
29.999
20
46.042
0
VERTEX
8
CONTOURS_MAJEURES
10
32.297
20
44.995
0
VERTEX
8
CONTOURS_MAJEURES
10
34.237
20
44.237
0
VERTEX
8
CONTOURS_MAJEURES
10
34.995
20
43.950
0
VERTEX
8
CONTOURS_MAJEURES
10
36.433
20
43.560
0
VERTEX
8
CONTOURS_MAJEURES
10
40.001
20
42.635
0
VERTEX
8
CONTOURS_MAJEURES
10
43.091
20
41.905
0
VERTEX
8
CONTOURS_MAJEURES
10
44.996
20
41.566
0
VERTEX
8
CONTOURS_MAJEURES
10
46.256
20
41.256
0
VERTEX
8
CONTOURS_MAJEURES
10
50.003
20
40.490
0
VERTEX
8
CONTOURS_MAJEURES
10
50.416
20
40.412
0
VERTEX
8
CONTOURS_MAJEURES
10
52.001
20
39.999
0
VERTEX
8
CONTOURS_MAJEURES
10
54.546
20
39.547
0
VERTEX
8
CONTOURS_MAJEURES
10
54.998
20
39.366
0
VERTEX
8
CONTOURS_MAJEURES
10
58.525
20
38.523
0
VERTEX
8
CONTOURS_MAJEURES
10
60.004
20
37.937
0
VERTEX
8
CONTOURS_MAJEURES
10
62.191
20
37.190
0
VERTEX
8
CONTOURS_MAJEURES
10
64.999
20
35.835
0
VERTEX
8
CONTOURS_MAJEURES
10
65.551
20
35.554
0
VERTEX
8
CONTOURS_MAJEURES
10
66.265
20
35.002
0
VERTEX
8
CONTOURS_MAJEURES
10
68.545
20
33.550
0
VERTEX
8
CONTOURS_MAJEURES
10
69.995
20
32.226
0
VERTEX
8
CONTOURS_MAJEURES
10
72.120
20
29.995
0
VERTEX
8
CONTOURS_MAJEURES
10
73.459
20
28.456
0
VERTEX
8
CONTOURS_MAJEURES
10
75.001
20
25.985
0
VERTEX
8
CONTOURS_MAJEURES
10
75.296
20
25.294
0
VERTEX
8
CONTOURS_MAJEURES
10
75.415
20
24.999
0
VERTEX
8
CONTOURS_MAJEURES
10
76.014
20
23.986
0
VERTEX
8
CONTOURS_MAJEURES
10
78.312
20
20.002
0
VERTEX
8
CONTOURS_MAJEURES
10
79.996
20
18.883
0
VERTEX
8
CONTOURS_MAJEURES
10
81.403
20
18.595
0
VERTEX
8
CONTOURS_MAJEURES
10
85.003
20
17.611
0
VERTEX
8
CONTOURS_MAJEURES
10
87.390
20
17.388
0
VERTEX
8
CONTOURS_MAJEURES
10
89.998
20
17.041
0
VERTEX
8
CONTOURS_MAJEURES
10
93.127
20
16.873
0
VERTEX
8
CONTOURS_MAJEURES
10
95.004
20
16.924
0
VERTEX
8
CONTOURS_MAJEURES
10
98.087
20
16.912
0
VERTEX
8
CONTOURS_MAJEURES
10
99.999
20
16.974
0
VERTEX
8
CONTOURS_MAJEURES
10
102.235
20
17.236
0
VERTEX
8
CONTOURS_MAJEURES
10
104.995
20
17.368
0
VERTEX
8
CONTOURS_MAJEURES
10
107.944
20
17.945
0
VERTEX
8
CONTOURS_MAJEURES
10
110.001
20
18.080
0
VERTEX
8
CONTOURS_MAJEURES
10
113.958
20
18.962
0
VERTEX
8
CONTOURS_MAJEURES
10
114.996
20
19.071
0
VERTEX
8
CONTOURS_MAJEURES
10
115.793
20
19.205
0
VERTEX
8
CONTOURS_MAJEURES
10
117.318
20
20.002
0
VERTEX
8
CONTOURS_MAJEURES
10
120.003
20
24.021
0
VERTEX
8
CONTOURS_MAJEURES
10
120.384
20
24.618
0
VERTEX
8
CONTOURS_MAJEURES
10
120.558
20
24.999
0
VERTEX
8
CONTOURS_MAJEURES
10
121.758
20
28.240
0
VERTEX
8
CONTOURS_MAJEURES
10
122.350
20
29.995
0
VERTEX
8
CONTOURS_MAJEURES
10
122.684
20
32.314
0
VERTEX
8
CONTOURS_MAJEURES
10
122.802
20
35.002
0
VERTEX
8
CONTOURS_MAJEURES
10
122.406
20
37.406
0
VERTEX
8
CONTOURS_MAJEURES
10
121.979
20
39.999
0
VERTEX
8
CONTOURS_MAJEURES
10
120.261
20
44.737
0
VERTEX
8
CONTOURS_MAJEURES
10
120.164
20
44.995
0
VERTEX
8
CONTOURS_MAJEURES
10
120.003
20
45.213
0
VERTEX
8
CONTOURS_MAJEURES
10
117.179
20
50.003
0
VERTEX
8
CONTOURS_MAJEURES
10
114.996
20
54.473
0
VERTEX
8
CONTOURS_MAJEURES
10
114.824
20
54.827
0
VERTEX
8
CONTOURS_MAJEURES
10
114.740
20
54.999
0
VERTEX
8
CONTOURS_MAJEURES
10
114.505
20
55.491
0
VERTEX
8
CONTOURS_MAJEURES
10
111.978
20
59.996
0
VERTEX
8
CONTOURS_MAJEURES
10
110.001
20
62.957
0
VERTEX
8
CONTOURS_MAJEURES
10
109.136
20
64.138
0
VERTEX
8
CONTOURS_MAJEURES
10
108.592
20
65.003
0
VERTEX
8
CONTOURS_MAJEURES
10
107.243
20
67.247
0
VERTEX
8
CONTOURS_MAJEURES
10
105.078
20
69.999
0
VERTEX
8
CONTOURS_MAJEURES
10
104.995
20
70.142
0
VERTEX
8
CONTOURS_MAJEURES
10
102.041
20
74.996
0
VERTEX
8
CONTOURS_MAJEURES
10
101.255
20
76.254
0
VERTEX
8
CONTOURS_MAJEURES
10
99.999
20
79.054
0
VERTEX
8
CONTOURS_MAJEURES
10
99.607
20
80.003
0
VERTEX
8
CONTOURS_MAJEURES
10
98.545
20
83.545
0
VERTEX
8
CONTOURS_MAJEURES
10
98.198
20
85.000
0
VERTEX
8
CONTOURS_MAJEURES
10
97.947
20
87.053
0
VERTEX
8
CONTOURS_MAJEURES
10
97.816
20
89.996
0
VERTEX
8
CONTOURS_MAJEURES
10
98.305
20
93.305
0
VERTEX
8
CONTOURS_MAJEURES
10
98.441
20
95.004
0
VERTEX
8
CONTOURS_MAJEURES
10
98.899
20
96.105
0
VERTEX
8
CONTOURS_MAJEURES
10
99.999
20
100.000
0
VERTEX
8
CONTOURS_MAJEURES
10
104.019
20
104.996
0
VERTEX
8
CONTOURS_MAJEURES
10
104.733
20
105.259
0
VERTEX
8
CONTOURS_MAJEURES
10
104.995
20
105.368
0
VERTEX
8
CONTOURS_MAJEURES
10
108.343
20
106.655
0
VERTEX
8
CONTOURS_MAJEURES
10
110.001
20
107.169
0
VERTEX
8
CONTOURS_MAJEURES
10
113.407
20
108.411
0
VERTEX
8
CONTOURS_MAJEURES
10
114.996
20
109.049
0
VERTEX
8
CONTOURS_MAJEURES
10
115.667
20
109.333
0
VERTEX
8
CONTOURS_MAJEURES
10
117.500
20
110.004
0
VERTEX
8
CONTOURS_MAJEURES
10
120.003
20
111.845
0
VERTEX
8
CONTOURS_MAJEURES
10
124.077
20
115.000
0
VERTEX
8
CONTOURS_MAJEURES
10
124.585
20
115.413
0
VERTEX
8
CONTOURS_MAJEURES
10
124.998
20
115.798
0
VERTEX
8
CONTOURS_MAJEURES
10
128.909
20
119.997
0
VERTEX
8
CONTOURS_MAJEURES
10
129.415
20
120.586
0
VERTEX
8
CONTOURS_MAJEURES
10
130.004
20
121.127
0
VERTEX
8
CONTOURS_MAJEURES
10
133.841
20
125.004
0
VERTEX
8
CONTOURS_MAJEURES
10
135.000
20
126.154
0
VERTEX
8
CONTOURS_MAJEURES
10
136.755
20
130.001
0
VERTEX
8
CONTOURS_MAJEURES
10
137.768
20
132.770
0
VERTEX
8
CONTOURS_MAJEURES
10
138.562
20
134.997
0
VERTEX
8
CONTOURS_MAJEURES
10
138.894
20
136.100
0
VERTEX
8
CONTOURS_MAJEURES
10
139.995
20
138.717
0
VERTEX
8
CONTOURS_MAJEURES
10
140.989
20
140.004
0
VERTEX
8
CONTOURS_MAJEURES
10
142.918
20
142.083
0
VERTEX
8
CONTOURS_MAJEURES
10
145.001
20
144.069
0
VERTEX
8
CONTOURS_MAJEURES
10
145.509
20
144.493
0
VERTEX
8
CONTOURS_MAJEURES
10
145.954
20
145.001
0
VERTEX
8
CONTOURS_MAJEURES
10
147.878
20
147.119
0
VERTEX
8
CONTOURS_MAJEURES
10
149.996
20
149.171
0
VERTEX
8
CONTOURS_MAJEURES
10
150.753
20
149.997
0
VERTEX
8
CONTOURS_MAJEURES
10
152.677
20
152.324
0
VERTEX
8
CONTOURS_MAJEURES
10
155.003
20
154.188
0
VERTEX
8
CONTOURS_MAJEURES
10
155.867
20
155.005
0
VERTEX
8
CONTOURS_MAJEURES
10
157.782
20
157.221
0
VERTEX
8
CONTOURS_MAJEURES
10
159.998
20
160.001
0
VERTEX
8
CONTOURS_MAJEURES
10
160.171
20
164.825
0
VERTEX
8
CONTOURS_MAJEURES
10
160.259
20
164.998
0
VERTEX
8
CONTOURS_MAJEURES
10
159.998
20
166.388
0
VERTEX
8
CONTOURS_MAJEURES
10
159.611
20
169.618
0
VERTEX
8
CONTOURS_MAJEURES
10
159.443
20
170.005
0
VERTEX
8
CONTOURS_MAJEURES
10
158.376
20
173.379
0
VERTEX
8
CONTOURS_MAJEURES
10
156.529
20
175.001
0
VERTEX
8
CONTOURS_MAJEURES
10
155.003
20
176.146
0
VERTEX
8
CONTOURS_MAJEURES
10
151.540
20
179.998
0
VERTEX
8
CONTOURS_MAJEURES
10
149.996
20
181.557
0
VERTEX
8
CONTOURS_MAJEURES
10
148.331
20
183.336
0
VERTEX
8
CONTOURS_MAJEURES
10
146.421
20
185.005
0
VERTEX
8
CONTOURS_MAJEURES
10
145.001
20
185.638
0
VERTEX
8
CONTOURS_MAJEURES
10
141.512
20
186.520
0
VERTEX
8
CONTOURS_MAJEURES
10
139.995
20
186.946
0
VERTEX
8
CONTOURS_MAJEURES
10
136.624
20
190.002
0
VERTEX
8
CONTOURS_MAJEURES
10
135.000
20
193.333
0
VERTEX
8
CONTOURS_MAJEURES
10
134.041
20
194.039
0
VERTEX
8
CONTOURS_MAJEURES
10
133.300
20
194.998
0
VERTEX
8
CONTOURS_MAJEURES
10
130.004
20
198.261
0
VERTEX
8
CONTOURS_MAJEURES
10
127.425
20
199.994
0
VERTEX
8
CONTOURS_MAJEURES
10
124.998
20
200.454
0
VERTEX
8
CONTOURS_MAJEURES
10
120.126
20
200.118
0
VERTEX
8
CONTOURS_MAJEURES
10
120.003
20
200.168
0
VERTEX
8
CONTOURS_MAJEURES
10
115.998
20
199.994
0
VERTEX
8
CONTOURS_MAJEURES
10
115.158
20
199.833
0
VERTEX
8
CONTOURS_MAJEURES
10
114.996
20
199.806
0
VERTEX
8
CONTOURS_MAJEURES
10
111.730
20
198.265
0
VERTEX
8
CONTOURS_MAJEURES
10
110.001
20
198.462
0
VERTEX
8
CONTOURS_MAJEURES
10
107.036
20
197.957
0
VERTEX
8
CONTOURS_MAJEURES
10
104.995
20
198.170
0
VERTEX
8
CONTOURS_MAJEURES
10
103.261
20
198.260
0
VERTEX
8
CONTOURS_MAJEURES
10
99.999
20
198.034
0
VERTEX
8
CONTOURS_MAJEURES
10
98.025
20
198.019
0
VERTEX
8
CONTOURS_MAJEURES
10
95.004
20
197.802
0
VERTEX
8
CONTOURS_MAJEURES
10
92.485
20
197.512
0
VERTEX
8
CONTOURS_MAJEURES
10
89.998
20
197.246
0
VERTEX
8
CONTOURS_MAJEURES
10
86.921
20
196.917
0
VERTEX
8
CONTOURS_MAJEURES
10
85.003
20
196.699
0
VERTEX
8
CONTOURS_MAJEURES
10
81.217
20
196.217
0
VERTEX
8
CONTOURS_MAJEURES
10
79.996
20
196.197
0
VERTEX
8
CONTOURS_MAJEURES
10
79.177
20
195.817
0
VERTEX
8
CONTOURS_MAJEURES
10
77.971
20
194.998
0
VERTEX
8
CONTOURS_MAJEURES
10
75.001
20
192.904
0
VERTEX
8
CONTOURS_MAJEURES
10
70.638
20
190.002
0
VERTEX
8
CONTOURS_MAJEURES
10
70.241
20
189.756
0
VERTEX
8
CONTOURS_MAJEURES
10
69.995
20
189.589
0
VERTEX
8
CONTOURS_MAJEURES
10
68.196
20
188.203
0
VERTEX
8
CONTOURS_MAJEURES
10
64.999
20
185.745
0
VERTEX
8
CONTOURS_MAJEURES
10
64.013
20
185.005
0
VERTEX
8
CONTOURS_MAJEURES
10
60.004
20
182.175
0
VERTEX
8
CONTOURS_MAJEURES
10
58.658
20
181.344
0
VERTEX
8
CONTOURS_MAJEURES
10
56.622
20
179.998
0
VERTEX
8
CONTOURS_MAJEURES
10
54.998
20
178.964
0
VERTEX
8
CONTOURS_MAJEURES
10
52.473
20
177.527
0
VERTEX
8
CONTOURS_MAJEURES
10
50.003
20
176.018
0
VERTEX
8
CONTOURS_MAJEURES
10
49.333
20
175.670
0
VERTEX
8
CONTOURS_MAJEURES
10
47.870
20
175.001
0
VERTEX
8
CONTOURS_MAJEURES
10
44.996
20
173.711
0
VERTEX
8
CONTOURS_MAJEURES
10
42.846
20
172.850
0
VERTEX
8
CONTOURS_MAJEURES
10
40.001
20
171.712
0
VERTEX
8
CONTOURS_MAJEURES
10
38.909
20
171.095
0
VERTEX
8
CONTOURS_MAJEURES
10
37.026
20
170.005
0
VERTEX
8
CONTOURS_MAJEURES
10
35.761
20
169.239
0
VERTEX
8
CONTOURS_MAJEURES
10
34.995
20
168.901
0
VERTEX
8
CONTOURS_MAJEURES
10
32.684
20
167.314
0
VERTEX
8
CONTOURS_MAJEURES
10
29.999
20
165.541
0
VERTEX
8
CONTOURS_MAJEURES
10
29.157
20
164.998
0
VERTEX
8
CONTOURS_MAJEURES
10
26.745
20
163.256
0
VERTEX
8
CONTOURS_MAJEURES
10
25.004
20
162.552
0
VERTEX
8
CONTOURS_MAJEURES
10
23.097
20
161.905
0
VERTEX
8
CONTOURS_MAJEURES
10
19.998
20
161.599
0
VERTEX
8
CONTOURS_MAJEURES
10
16.519
20
161.518
0
VERTEX
8
CONTOURS_MAJEURES
10
15.002
20
161.700
0
VERTEX
8
CONTOURS_MAJEURES
10
11.980
20
161.981
0
VERTEX
8
CONTOURS_MAJEURES
10
9.996
20
162.304
0
VERTEX
8
CONTOURS_MAJEURES
10
7.460
20
162.538
0
VERTEX
8
CONTOURS_MAJEURES
10
5.001
20
162.499
0
VERTEX
8
CONTOURS_MAJEURES
10
2.537
20
162.538
0
VERTEX
8
CONTOURS_MAJEURES
10
-0.005
20
162.850
0
SEQEND
0
POLYLINE
8
CONTOURS_MAJEURES
66
1
70
0
0
VERTEX
8
CONTOURS_MAJEURES
10
-0.005
20
97.204
0
VERTEX
8
CONTOURS_MAJEURES
10
1.634
20
96.640
0
VERTEX
8
CONTOURS_MAJEURES
10
5.001
20
95.960
0
VERTEX
8
CONTOURS_MAJEURES
10
5.639
20
95.641
0
VERTEX
8
CONTOURS_MAJEURES
10
9.497
20
95.004
0
VERTEX
8
CONTOURS_MAJEURES
10
9.918
20
94.925
0
VERTEX
8
CONTOURS_MAJEURES
10
9.996
20
94.902
0
VERTEX
8
CONTOURS_MAJEURES
10
10.144
20
94.856
0
VERTEX
8
CONTOURS_MAJEURES
10
15.002
20
93.085
0
VERTEX
8
CONTOURS_MAJEURES
10
16.844
20
91.842
0
VERTEX
8
CONTOURS_MAJEURES
10
19.998
20
91.047
0
VERTEX
8
CONTOURS_MAJEURES
10
24.417
20
90.583
0
VERTEX
8
CONTOURS_MAJEURES
10
25.004
20
90.529
0
VERTEX
8
CONTOURS_MAJEURES
10
29.960
20
90.036
0
VERTEX
8
CONTOURS_MAJEURES
10
29.999
20
90.035
0
VERTEX
8
CONTOURS_MAJEURES
10
30.036
20
90.033
0
VERTEX
8
CONTOURS_MAJEURES
10
30.217
20
89.996
0
VERTEX
8
CONTOURS_MAJEURES
10
34.995
20
88.733
0
VERTEX
8
CONTOURS_MAJEURES
10
38.036
20
88.035
0
VERTEX
8
CONTOURS_MAJEURES
10
40.001
20
87.611
0
VERTEX
8
CONTOURS_MAJEURES
10
42.469
20
87.527
0
VERTEX
8
CONTOURS_MAJEURES
10
44.996
20
89.053
0
VERTEX
8
CONTOURS_MAJEURES
10
47.082
20
89.996
0
VERTEX
8
CONTOURS_MAJEURES
10
50.003
20
91.943
0
VERTEX
8
CONTOURS_MAJEURES
10
52.001
20
93.001
0
VERTEX
8
CONTOURS_MAJEURES
10
54.998
20
93.369
0
VERTEX
8
CONTOURS_MAJEURES
10
56.142
20
93.859
0
VERTEX
8
CONTOURS_MAJEURES
10
60.004
20
94.288
0
VERTEX
8
CONTOURS_MAJEURES
10
60.588
20
94.418
0
VERTEX
8
CONTOURS_MAJEURES
10
61.409
20
95.004
0
VERTEX
8
CONTOURS_MAJEURES
10
62.814
20
97.814
0
VERTEX
8
CONTOURS_MAJEURES
10
64.054
20
100.000
0
VERTEX
8
CONTOURS_MAJEURES
10
64.397
20
100.603
0
VERTEX
8
CONTOURS_MAJEURES
10
64.999
20
102.186
0
VERTEX
8
CONTOURS_MAJEURES
10
65.802
20
104.996
0
VERTEX
8
CONTOURS_MAJEURES
10
67.880
20
107.117
0
VERTEX
8
CONTOURS_MAJEURES
10
69.995
20
107.832
0
VERTEX
8
CONTOURS_MAJEURES
10
73.749
20
110.004
0
VERTEX
8
CONTOURS_MAJEURES
10
75.001
20
111.624
0
VERTEX
8
CONTOURS_MAJEURES
10
75.469
20
114.532
0
VERTEX
8
CONTOURS_MAJEURES
10
75.669
20
115.000
0
VERTEX
8
CONTOURS_MAJEURES
10
76.096
20
116.096
0
VERTEX
8
CONTOURS_MAJEURES
10
76.550
20
119.997
0
VERTEX
8
CONTOURS_MAJEURES
10
76.654
20
123.348
0
VERTEX
8
CONTOURS_MAJEURES
10
77.681
20
125.004
0
VERTEX
8
CONTOURS_MAJEURES
10
77.783
20
127.787
0
VERTEX
8
CONTOURS_MAJEURES
10
77.130
20
130.001
0
VERTEX
8
CONTOURS_MAJEURES
10
75.395
20
134.603
0
VERTEX
8
CONTOURS_MAJEURES
10
75.301
20
134.997
0
VERTEX
8
CONTOURS_MAJEURES
10
75.001
20
135.373
0
VERTEX
8
CONTOURS_MAJEURES
10
71.571
20
136.573
0
VERTEX
8
CONTOURS_MAJEURES
10
69.995
20
136.603
0
VERTEX
8
CONTOURS_MAJEURES
10
68.422
20
136.573
0
VERTEX
8
CONTOURS_MAJEURES
10
64.999
20
137.154
0
VERTEX
8
CONTOURS_MAJEURES
10
62.359
20
137.358
0
VERTEX
8
CONTOURS_MAJEURES
10
60.004
20
137.012
0
VERTEX
8
CONTOURS_MAJEURES
10
56.644
20
136.643
0
VERTEX
8
CONTOURS_MAJEURES
10
54.998
20
136.142
0
VERTEX
8
CONTOURS_MAJEURES
10
54.123
20
135.874
0
VERTEX
8
CONTOURS_MAJEURES
10
50.864
20
134.997
0
VERTEX
8
CONTOURS_MAJEURES
10
50.003
20
134.402
0
VERTEX
8
CONTOURS_MAJEURES
10
49.392
20
134.388
0
VERTEX
8
CONTOURS_MAJEURES
10
44.996
20
133.102
0
VERTEX
8
CONTOURS_MAJEURES
10
42.272
20
132.726
0
VERTEX
8
CONTOURS_MAJEURES
10
40.001
20
132.655
0
VERTEX
8
CONTOURS_MAJEURES
10
38.299
20
131.699
0
VERTEX
8
CONTOURS_MAJEURES
10
34.995
20
131.373
0
VERTEX
8
CONTOURS_MAJEURES
10
30.599
20
130.600
0
VERTEX
8
CONTOURS_MAJEURES
10
29.999
20
130.392
0
VERTEX
8
CONTOURS_MAJEURES
10
28.449
20
130.001
0
VERTEX
8
CONTOURS_MAJEURES
10
26.392
20
128.613
0
VERTEX
8
CONTOURS_MAJEURES
10
25.004
20
128.573
0
VERTEX
8
CONTOURS_MAJEURES
10
23.532
20
128.531
0
VERTEX
8
CONTOURS_MAJEURES
10
19.998
20
127.267
0
VERTEX
8
CONTOURS_MAJEURES
10
16.668
20
126.670
0
VERTEX
8
CONTOURS_MAJEURES
10
15.002
20
126.025
0
VERTEX
8
CONTOURS_MAJEURES
10
14.123
20
125.882
0
VERTEX
8
CONTOURS_MAJEURES
10
9.996
20
125.500
0
VERTEX
8
CONTOURS_MAJEURES
10
5.406
20
125.409
0
VERTEX
8
CONTOURS_MAJEURES
10
5.001
20
125.404
0
VERTEX
8
CONTOURS_MAJEURES
10
0.601
20
125.609
0
VERTEX
8
CONTOURS_MAJEURES
10
-0.005
20
125.718
0
SEQEND
0
POLYLINE
8
PARCELLE
66
1
70
1
0
VERTEX
8
PARCELLE
10
82.676
20
20.000
0
VERTEX
8
PARCELLE
10
74.145
20
31.624
0
VERTEX
8
PARCELLE
10
67.666
20
46.867
0
VERTEX
8
PARCELLE
10
64.880
20
47.251
0
VERTEX
8
PARCELLE
10
40.168
20
73.466
0
VERTEX
8
PARCELLE
10
39.624
20
79.614
0
VERTEX
8
PARCELLE
10
38.022
20
120.124
0
VERTEX
8
PARCELLE
10
26.948
20
120.354
0
VERTEX
8
PARCELLE
10
23.784
20
128.573
0
VERTEX
8
PARCELLE
10
20.000
20
160.872
0
VERTEX
8
PARCELLE
10
26.696
20
161.950
0
VERTEX
8
PARCELLE
10
41.721
20
168.546
0
VERTEX
8
PARCELLE
10
61.046
20
178.679
0
VERTEX
8
PARCELLE
10
73.465
20
182.313
0
VERTEX
8
PARCELLE
10
84.181
20
185.651
0
VERTEX
8
PARCELLE
10
93.319
20
186.936
0
VERTEX
8
PARCELLE
10
103.142
20
187.606
0
VERTEX
8
PARCELLE
10
112.967
20
187.417
0
VERTEX
8
PARCELLE
10
126.548
20
185.946
0
VERTEX
8
PARCELLE
10
134.110
20
184.339
0
VERTEX
8
PARCELLE
10
152.271
20
177.401
0
VERTEX
8
PARCELLE
10
140.950
20
180.112
0
VERTEX
8
PARCELLE
10
133.000
20
179.794
0
VERTEX
8
PARCELLE
10
120.059
20
177.974
0
VERTEX
8
PARCELLE
10
112.402
20
174.817
0
VERTEX
8
PARCELLE
10
108.038
20
172.019
0
VERTEX
8
PARCELLE
10
99.220
20
164.198
0
VERTEX
8
PARCELLE
10
88.130
20
153.821
0
VERTEX
8
PARCELLE
10
102.288
20
101.391
0
VERTEX
8
PARCELLE
10
83.419
20
91.883
0
VERTEX
8
PARCELLE
10
96.985
20
38.130
0
VERTEX
8
PARCELLE
10
88.591
20
27.418
0
VERTEX
8
PARCELLE
10
82.676
20
20.000
0
SEQEND
0
TEXT
8
POINTS_COTES
10
-0.005
20
0.006
40
1.0
1
17.9
0
TEXT
8
POINTS_COTES
10
15.002
20
9.998
40
1.0
1
18.6
0
TEXT
8
POINTS_COTES
10
29.999
20
20.002
40
1.0
1
22.9
0
TEXT
8
POINTS_COTES
10
44.996
20
29.995
40
1.0
1
26.6
0
TEXT
8
POINTS_COTES
10
60.004
20
39.999
40
1.0
1
30.5
0
TEXT
8
POINTS_COTES
10
75.001
20
50.003
40
1.0
1
33.6
0
TEXT
8
POINTS_COTES
10
89.998
20
59.996
40
1.0
1
34.0
0
TEXT
8
POINTS_COTES
10
104.995
20
69.999
40
1.0
1
30.0
0
TEXT
8
POINTS_COTES
10
120.003
20
80.003
40
1.0
1
24.2
0
TEXT
8
POINTS_COTES
10
135.000
20
89.996
40
1.0
1
19.4
0
TEXT
8
POINTS_COTES
10
149.996
20
100.000
40
1.0
1
18.8
0
TEXT
8
POINTS_COTES
10
165.004
20
110.004
40
1.0
1
20.0
0
TEXT
8
POINTS_COTES
10
5.001
20
125.004
40
1.0
1
40.1
0
TEXT
8
POINTS_COTES
10
19.998
20
134.997
40
1.0
1
37.9
0
TEXT
8
POINTS_COTES
10
34.995
20
145.001
40
1.0
1
36.1
0
TEXT
8
POINTS_COTES
10
50.003
20
155.005
40
1.0
1
35.1
0
TEXT
8
POINTS_COTES
10
64.999
20
164.998
40
1.0
1
34.7
0
TEXT
8
POINTS_COTES
10
79.996
20
175.001
40
1.0
1
34.7
0
TEXT
8
POINTS_COTES
10
95.004
20
185.005
40
1.0
1
33.0
0
TEXT
8
POINTS_COTES
10
110.001
20
194.998
40
1.0
1
30.6
0
TEXT
8
POINTS_COTES
10
124.998
20
205.002
40
1.0
1
26.8
0
ENDSEC
0
EOF
