0
SECTION
2
HEADER
0
ENDSEC
0
SECTION
2
TABLES
0
TABLE
2
LAYER
70
4
0
LAYER
2
CONTOURS_MINEURES
70
0
62
8
6
CONTINUOUS
0
LAYER
2
CONTOURS_MAJEURES
70
0
62
3
6
CONTINUOUS
0
LAYER
2
PARCELLE
70
0
62
4
6
CONTINUOUS
0
LAYER
2
POINTS_COTES
70
0
62
7
6
CONTINUOUS
0
ENDTAB
0
ENDSEC
0
SECTION
2
ENTITIES
0
POLYLINE
8
CONTOURS_MINEURES
66
1
70
0
0
VERTEX
8
CONTOURS_MINEURES
10
93.193
20
0.001
0
VERTEX
8
CONTOURS_MINEURES
10
93.156
20
0.161
0
VERTEX
8
CONTOURS_MINEURES
10
92.996
20
0.238
0
VERTEX
8
CONTOURS_MINEURES
10
90.965
20
0.963
0
VERTEX
8
CONTOURS_MINEURES
10
90.004
20
2.061
0
VERTEX
8
CONTOURS_MINEURES
10
87.940
20
2.061
0
VERTEX
8
CONTOURS_MINEURES
10
87.002
20
2.061
0
VERTEX
8
CONTOURS_MINEURES
10
85.286
20
2.997
0
VERTEX
8
CONTOURS_MINEURES
10
85.286
20
4.715
0
VERTEX
8
CONTOURS_MINEURES
10
85.286
20
6.003
0
VERTEX
8
CONTOURS_MINEURES
10
84.790
20
6.792
0
VERTEX
8
CONTOURS_MINEURES
10
84.480
20
8.999
0
VERTEX
8
CONTOURS_MINEURES
10
85.426
20
10.572
0
VERTEX
8
CONTOURS_MINEURES
10
87.002
20
11.287
0
VERTEX
8
CONTOURS_MINEURES
10
87.712
20
11.287
0
VERTEX
8
CONTOURS_MINEURES
10
90.004
20
11.287
0
VERTEX
8
CONTOURS_MINEURES
10
91.772
20
11.995
0
VERTEX
8
CONTOURS_MINEURES
10
91.772
20
13.771
0
VERTEX
8
CONTOURS_MINEURES
10
91.772
20
15.001
0
VERTEX
8
CONTOURS_MINEURES
10
92.996
20
15.214
0
VERTEX
8
CONTOURS_MINEURES
10
93.175
20
15.180
0
VERTEX
8
CONTOURS_MINEURES
10
95.998
20
15.043
0
VERTEX
8
CONTOURS_MINEURES
10
98.959
20
15.043
0
VERTEX
8
CONTOURS_MINEURES
10
99.000
20
15.043
0
VERTEX
8
CONTOURS_MINEURES
10
99.039
20
15.040
0
VERTEX
8
CONTOURS_MINEURES
10
99.334
20
15.001
0
VERTEX
8
CONTOURS_MINEURES
10
99.334
20
14.667
0
VERTEX
8
CONTOURS_MINEURES
10
99.334
20
11.995
0
VERTEX
8
CONTOURS_MINEURES
10
101.641
20
11.634
0
VERTEX
8
CONTOURS_MINEURES
10
102.003
20
11.515
0
VERTEX
8
CONTOURS_MINEURES
10
103.843
20
10.836
0
VERTEX
8
CONTOURS_MINEURES
10
105.005
20
10.105
0
VERTEX
8
CONTOURS_MINEURES
10
106.892
20
10.105
0
VERTEX
8
CONTOURS_MINEURES
10
107.997
20
10.105
0
VERTEX
8
CONTOURS_MINEURES
10
108.806
20
9.807
0
VERTEX
8
CONTOURS_MINEURES
10
109.326
20
8.999
0
VERTEX
8
CONTOURS_MINEURES
10
109.936
20
7.064
0
VERTEX
8
CONTOURS_MINEURES
10
110.551
20
6.003
0
VERTEX
8
CONTOURS_MINEURES
10
110.551
20
5.555
0
VERTEX
8
CONTOURS_MINEURES
10
110.551
20
2.997
0
VERTEX
8
CONTOURS_MINEURES
10
110.757
20
2.755
0
VERTEX
8
CONTOURS_MINEURES
10
110.999
20
2.678
0
VERTEX
8
CONTOURS_MINEURES
10
111.306
20
2.690
0
VERTEX
8
CONTOURS_MINEURES
10
114.001
20
2.363
0
VERTEX
8
CONTOURS_MINEURES
10
116.368
20
2.363
0
VERTEX
8
CONTOURS_MINEURES
10
117.003
20
2.363
0
VERTEX
8
CONTOURS_MINEURES
10
117.733
20
2.266
0
VERTEX
8
CONTOURS_MINEURES
10
119.995
20
1.623
0
VERTEX
8
CONTOURS_MINEURES
10
121.621
20
1.623
0
VERTEX
8
CONTOURS_MINEURES
10
122.997
20
1.623
0
VERTEX
8
CONTOURS_MINEURES
10
124.226
20
1.227
0
VERTEX
8
CONTOURS_MINEURES
10
125.999
20
0.624
0
VERTEX
8
CONTOURS_MINEURES
10
128.662
20
0.001
0
SEQEND
0
POLYLINE
8
CONTOURS_MINEURES
66
1
70
0
0
VERTEX
8
CONTOURS_MINEURES
10
26.465
20
0.001
0
VERTEX
8
CONTOURS_MINEURES
10
26.999
20
0.142
0
VERTEX
8
CONTOURS_MINEURES
10
29.860
20
0.142
0
VERTEX
8
CONTOURS_MINEURES
10
30.002
20
0.142
0
VERTEX
8
CONTOURS_MINEURES
10
32.873
20
0.132
0
VERTEX
8
CONTOURS_MINEURES
10
33.004
20
0.134
0
VERTEX
8
CONTOURS_MINEURES
10
33.266
20
0.263
0
VERTEX
8
CONTOURS_MINEURES
10
35.995
20
1.205
0
VERTEX
8
CONTOURS_MINEURES
10
37.791
20
1.205
0
VERTEX
8
CONTOURS_MINEURES
10
38.998
20
1.205
0
VERTEX
8
CONTOURS_MINEURES
10
41.048
20
2.047
0
VERTEX
8
CONTOURS_MINEURES
10
42.000
20
2.317
0
VERTEX
8
CONTOURS_MINEURES
10
42.681
20
2.317
0
VERTEX
8
CONTOURS_MINEURES
10
45.002
20
2.317
0
VERTEX
8
CONTOURS_MINEURES
10
46.651
20
2.997
0
VERTEX
8
CONTOURS_MINEURES
10
46.651
20
4.648
0
VERTEX
8
CONTOURS_MINEURES
10
46.651
20
6.003
0
VERTEX
8
CONTOURS_MINEURES
10
47.737
20
6.270
0
VERTEX
8
CONTOURS_MINEURES
10
48.004
20
6.443
0
VERTEX
8
CONTOURS_MINEURES
10
50.006
20
6.995
0
VERTEX
8
CONTOURS_MINEURES
10
50.996
20
7.606
0
VERTEX
8
CONTOURS_MINEURES
10
52.602
20
7.606
0
VERTEX
8
CONTOURS_MINEURES
10
53.998
20
7.606
0
VERTEX
8
CONTOURS_MINEURES
10
56.400
20
8.400
0
VERTEX
8
CONTOURS_MINEURES
10
57.001
20
8.477
0
VERTEX
8
CONTOURS_MINEURES
10
57.540
20
8.461
0
VERTEX
8
CONTOURS_MINEURES
10
59.467
20
8.999
0
VERTEX
8
CONTOURS_MINEURES
10
60.003
20
9.088
0
VERTEX
8
CONTOURS_MINEURES
10
62.916
20
9.088
0
VERTEX
8
CONTOURS_MINEURES
10
63.005
20
9.088
0
VERTEX
8
CONTOURS_MINEURES
10
63.090
20
9.084
0
VERTEX
8
CONTOURS_MINEURES
10
63.445
20
8.999
0
VERTEX
8
CONTOURS_MINEURES
10
65.997
20
7.913
0
VERTEX
8
CONTOURS_MINEURES
10
68.120
20
6.880
0
VERTEX
8
CONTOURS_MINEURES
10
68.999
20
6.532
0
VERTEX
8
CONTOURS_MINEURES
10
69.529
20
6.532
0
VERTEX
8
CONTOURS_MINEURES
10
72.001
20
6.532
0
VERTEX
8
CONTOURS_MINEURES
10
73.031
20
6.003
0
VERTEX
8
CONTOURS_MINEURES
10
73.031
20
4.028
0
VERTEX
8
CONTOURS_MINEURES
10
73.031
20
2.997
0
VERTEX
8
CONTOURS_MINEURES
10
75.004
20
2.177
0
VERTEX
8
CONTOURS_MINEURES
10
76.693
20
1.693
0
VERTEX
8
CONTOURS_MINEURES
10
77.995
20
1.041
0
VERTEX
8
CONTOURS_MINEURES
10
79.955
20
1.041
0
VERTEX
8
CONTOURS_MINEURES
10
80.997
20
1.041
0
VERTEX
8
CONTOURS_MINEURES
10
83.660
20
0.340
0
VERTEX
8
CONTOURS_MINEURES
10
84.000
20
0.857
0
VERTEX
8
CONTOURS_MINEURES
10
84.360
20
0.001
0
SEQEND
0
POLYLINE
8
CONTOURS_MINEURES
66
1
70
0
0
VERTEX
8
CONTOURS_MINEURES
10
21.176
20
0.001
0
VERTEX
8
CONTOURS_MINEURES
10
23.015
20
0.981
0
VERTEX
8
CONTOURS_MINEURES
10
23.997
20
1.590
0
VERTEX
8
CONTOURS_MINEURES
10
26.068
20
2.067
0
VERTEX
8
CONTOURS_MINEURES
10
26.999
20
2.313
0
VERTEX
8
CONTOURS_MINEURES
10
27.685
20
2.313
0
VERTEX
8
CONTOURS_MINEURES
10
30.002
20
2.313
0
VERTEX
8
CONTOURS_MINEURES
10
30.689
20
2.310
0
VERTEX
8
CONTOURS_MINEURES
10
33.004
20
2.345
0
VERTEX
8
CONTOURS_MINEURES
10
34.321
20
2.997
0
VERTEX
8
CONTOURS_MINEURES
10
34.321
20
4.680
0
VERTEX
8
CONTOURS_MINEURES
10
34.321
20
6.003
0
VERTEX
8
CONTOURS_MINEURES
10
35.995
20
6.738
0
VERTEX
8
CONTOURS_MINEURES
10
38.262
20
6.738
0
VERTEX
8
CONTOURS_MINEURES
10
38.998
20
6.738
0
VERTEX
8
CONTOURS_MINEURES
10
40.112
20
7.116
0
VERTEX
8
CONTOURS_MINEURES
10
42.000
20
7.678
0
VERTEX
8
CONTOURS_MINEURES
10
43.678
20
7.678
0
VERTEX
8
CONTOURS_MINEURES
10
45.002
20
7.678
0
VERTEX
8
CONTOURS_MINEURES
10
46.064
20
7.939
0
VERTEX
8
CONTOURS_MINEURES
10
47.706
20
8.999
0
VERTEX
8
CONTOURS_MINEURES
10
48.004
20
9.142
0
VERTEX
8
CONTOURS_MINEURES
10
48.257
20
9.252
0
VERTEX
8
CONTOURS_MINEURES
10
50.996
20
10.321
0
VERTEX
8
CONTOURS_MINEURES
10
52.674
20
10.321
0
VERTEX
8
CONTOURS_MINEURES
10
53.998
20
10.321
0
VERTEX
8
CONTOURS_MINEURES
10
55.385
20
10.611
0
VERTEX
8
CONTOURS_MINEURES
10
57.001
20
11.488
0
VERTEX
8
CONTOURS_MINEURES
10
58.481
20
11.995
0
VERTEX
8
CONTOURS_MINEURES
10
58.481
20
13.477
0
VERTEX
8
CONTOURS_MINEURES
10
58.481
20
15.001
0
VERTEX
8
CONTOURS_MINEURES
10
59.699
20
15.305
0
VERTEX
8
CONTOURS_MINEURES
10
60.003
20
15.420
0
VERTEX
8
CONTOURS_MINEURES
10
60.422
20
15.420
0
VERTEX
8
CONTOURS_MINEURES
10
63.005
20
15.420
0
VERTEX
8
CONTOURS_MINEURES
10
63.444
20
15.441
0
VERTEX
8
CONTOURS_MINEURES
10
65.997
20
15.347
0
VERTEX
8
CONTOURS_MINEURES
10
68.815
20
15.185
0
VERTEX
8
CONTOURS_MINEURES
10
68.999
20
15.206
0
VERTEX
8
CONTOURS_MINEURES
10
71.796
20
15.206
0
VERTEX
8
CONTOURS_MINEURES
10
72.001
20
15.206
0
VERTEX
8
CONTOURS_MINEURES
10
72.346
20
15.345
0
VERTEX
8
CONTOURS_MINEURES
10
75.004
20
16.116
0
VERTEX
8
CONTOURS_MINEURES
10
76.384
20
16.614
0
VERTEX
8
CONTOURS_MINEURES
10
77.995
20
17.641
0
VERTEX
8
CONTOURS_MINEURES
10
80.641
20
17.641
0
VERTEX
8
CONTOURS_MINEURES
10
80.997
20
17.641
0
VERTEX
8
CONTOURS_MINEURES
10
81.748
20
17.997
0
VERTEX
8
CONTOURS_MINEURES
10
83.493
20
18.505
0
VERTEX
8
CONTOURS_MINEURES
10
84.000
20
18.868
0
VERTEX
8
CONTOURS_MINEURES
10
85.109
20
19.108
0
VERTEX
8
CONTOURS_MINEURES
10
87.002
20
19.294
0
VERTEX
8
CONTOURS_MINEURES
10
88.297
20
19.294
0
VERTEX
8
CONTOURS_MINEURES
10
90.004
20
19.294
0
VERTEX
8
CONTOURS_MINEURES
10
91.544
20
19.456
0
VERTEX
8
CONTOURS_MINEURES
10
92.996
20
19.218
0
VERTEX
8
CONTOURS_MINEURES
10
95.020
20
18.977
0
VERTEX
8
CONTOURS_MINEURES
10
95.998
20
18.831
0
VERTEX
8
CONTOURS_MINEURES
10
96.831
20
18.831
0
VERTEX
8
CONTOURS_MINEURES
10
99.000
20
18.831
0
VERTEX
8
CONTOURS_MINEURES
10
101.302
20
18.699
0
VERTEX
8
CONTOURS_MINEURES
10
102.003
20
18.825
0
VERTEX
8
CONTOURS_MINEURES
10
102.825
20
18.820
0
VERTEX
8
CONTOURS_MINEURES
10
105.005
20
18.508
0
VERTEX
8
CONTOURS_MINEURES
10
107.488
20
18.508
0
VERTEX
8
CONTOURS_MINEURES
10
107.997
20
18.508
0
VERTEX
8
CONTOURS_MINEURES
10
108.259
20
18.260
0
VERTEX
8
CONTOURS_MINEURES
10
109.054
20
17.997
0
VERTEX
8
CONTOURS_MINEURES
10
110.283
20
17.283
0
VERTEX
8
CONTOURS_MINEURES
10
110.999
20
17.146
0
VERTEX
8
CONTOURS_MINEURES
10
112.148
20
16.148
0
VERTEX
8
CONTOURS_MINEURES
10
114.001
20
15.329
0
VERTEX
8
CONTOURS_MINEURES
10
114.330
20
15.329
0
VERTEX
8
CONTOURS_MINEURES
10
117.003
20
15.329
0
VERTEX
8
CONTOURS_MINEURES
10
117.423
20
15.001
0
VERTEX
8
CONTOURS_MINEURES
10
117.423
20
12.416
0
VERTEX
8
CONTOURS_MINEURES
10
117.423
20
11.995
0
VERTEX
8
CONTOURS_MINEURES
10
117.803
20
11.194
0
VERTEX
8
CONTOURS_MINEURES
10
118.763
20
8.999
0
VERTEX
8
CONTOURS_MINEURES
10
119.150
20
8.153
0
VERTEX
8
CONTOURS_MINEURES
10
119.995
20
7.805
0
VERTEX
8
CONTOURS_MINEURES
10
121.800
20
7.805
0
VERTEX
8
CONTOURS_MINEURES
10
122.997
20
7.805
0
VERTEX
8
CONTOURS_MINEURES
10
125.249
20
6.752
0
VERTEX
8
CONTOURS_MINEURES
10
125.999
20
6.336
0
VERTEX
8
CONTOURS_MINEURES
10
126.750
20
6.003
0
VERTEX
8
CONTOURS_MINEURES
10
126.750
20
3.748
0
VERTEX
8
CONTOURS_MINEURES
10
126.750
20
2.997
0
VERTEX
8
CONTOURS_MINEURES
10
129.002
20
2.262
0
VERTEX
8
CONTOURS_MINEURES
10
129.738
20
2.262
0
VERTEX
8
CONTOURS_MINEURES
10
132.004
20
2.262
0
VERTEX
8
CONTOURS_MINEURES
10
133.386
20
1.385
0
VERTEX
8
CONTOURS_MINEURES
10
134.996
20
1.325
0
VERTEX
8
CONTOURS_MINEURES
10
135.945
20
0.948
0
VERTEX
8
CONTOURS_MINEURES
10
137.998
20
0.520
0
VERTEX
8
CONTOURS_MINEURES
10
140.481
20
0.520
0
VERTEX
8
CONTOURS_MINEURES
10
141.000
20
0.520
0
VERTEX
8
CONTOURS_MINEURES
10
141.412
20
0.412
0
VERTEX
8
CONTOURS_MINEURES
10
141.678
20
0.001
0
SEQEND
0
POLYLINE
8
CONTOURS_MINEURES
66
1
70
0
0
VERTEX
8
CONTOURS_MINEURES
10
14.805
20
0.001
0
VERTEX
8
CONTOURS_MINEURES
10
14.918
20
0.084
0
VERTEX
8
CONTOURS_MINEURES
10
15.001
20
0.110
0
VERTEX
8
CONTOURS_MINEURES
10
15.307
20
0.307
0
VERTEX
8
CONTOURS_MINEURES
10
18.003
20
2.052
0
VERTEX
8
CONTOURS_MINEURES
10
18.947
20
2.052
0
VERTEX
8
CONTOURS_MINEURES
10
20.995
20
2.052
0
VERTEX
8
CONTOURS_MINEURES
10
21.612
20
2.381
0
VERTEX
8
CONTOURS_MINEURES
10
22.606
20
2.997
0
VERTEX
8
CONTOURS_MINEURES
10
22.606
20
4.610
0
VERTEX
8
CONTOURS_MINEURES
10
22.606
20
6.003
0
VERTEX
8
CONTOURS_MINEURES
10
23.997
20
6.660
0
VERTEX
8
CONTOURS_MINEURES
10
24.972
20
6.976
0
VERTEX
8
CONTOURS_MINEURES
10
26.999
20
7.395
0
VERTEX
8
CONTOURS_MINEURES
10
28.607
20
7.395
0
VERTEX
8
CONTOURS_MINEURES
10
30.002
20
7.395
0
VERTEX
8
CONTOURS_MINEURES
10
31.737
20
7.735
0
VERTEX
8
CONTOURS_MINEURES
10
33.004
20
7.756
0
VERTEX
8
CONTOURS_MINEURES
10
35.456
20
8.459
0
VERTEX
8
CONTOURS_MINEURES
10
35.995
20
8.696
0
VERTEX
8
CONTOURS_MINEURES
10
36.300
20
8.696
0
VERTEX
8
CONTOURS_MINEURES
10
38.998
20
8.696
0
VERTEX
8
CONTOURS_MINEURES
10
39.893
20
8.999
0
VERTEX
8
CONTOURS_MINEURES
10
42.000
20
9.751
0
VERTEX
8
CONTOURS_MINEURES
10
44.249
20
9.751
0
VERTEX
8
CONTOURS_MINEURES
10
45.002
20
9.751
0
VERTEX
8
CONTOURS_MINEURES
10
46.444
20
10.438
0
VERTEX
8
CONTOURS_MINEURES
10
48.004
20
11.187
0
VERTEX
8
CONTOURS_MINEURES
10
49.865
20
11.995
0
VERTEX
8
CONTOURS_MINEURES
10
49.865
20
13.131
0
VERTEX
8
CONTOURS_MINEURES
10
49.865
20
15.001
0
VERTEX
8
CONTOURS_MINEURES
10
50.662
20
15.336
0
VERTEX
8
CONTOURS_MINEURES
10
50.996
20
15.459
0
VERTEX
8
CONTOURS_MINEURES
10
51.455
20
15.459
0
VERTEX
8
CONTOURS_MINEURES
10
53.998
20
15.459
0
VERTEX
8
CONTOURS_MINEURES
10
54.817
20
15.818
0
VERTEX
8
CONTOURS_MINEURES
10
57.001
20
16.684
0
VERTEX
8
CONTOURS_MINEURES
10
58.053
20
16.946
0
VERTEX
8
CONTOURS_MINEURES
10
60.003
20
17.680
0
VERTEX
8
CONTOURS_MINEURES
10
62.688
20
17.680
0
VERTEX
8
CONTOURS_MINEURES
10
63.005
20
17.680
0
VERTEX
8
CONTOURS_MINEURES
10
65.819
20
17.819
0
VERTEX
8
CONTOURS_MINEURES
10
65.997
20
17.812
0
VERTEX
8
CONTOURS_MINEURES
10
66.193
20
17.801
0
VERTEX
8
CONTOURS_MINEURES
10
67.873
20
17.997
0
VERTEX
8
CONTOURS_MINEURES
10
68.999
20
18.086
0
VERTEX
8
CONTOURS_MINEURES
10
69.088
20
18.086
0
VERTEX
8
CONTOURS_MINEURES
10
72.001
20
18.086
0
VERTEX
8
CONTOURS_MINEURES
10
74.288
20
18.714
0
VERTEX
8
CONTOURS_MINEURES
10
75.004
20
18.978
0
VERTEX
8
CONTOURS_MINEURES
10
76.928
20
19.931
0
VERTEX
8
CONTOURS_MINEURES
10
77.995
20
20.348
0
VERTEX
8
CONTOURS_MINEURES
10
78.650
20
20.348
0
VERTEX
8
CONTOURS_MINEURES
10
80.997
20
20.348
0
VERTEX
8
CONTOURS_MINEURES
10
81.504
20
20.496
0
VERTEX
8
CONTOURS_MINEURES
10
82.213
20
21.004
0
VERTEX
8
CONTOURS_MINEURES
10
82.213
20
22.787
0
VERTEX
8
CONTOURS_MINEURES
10
82.213
20
23.999
0
VERTEX
8
CONTOURS_MINEURES
10
83.498
20
24.500
0
VERTEX
8
CONTOURS_MINEURES
10
84.000
20
24.909
0
VERTEX
8
CONTOURS_MINEURES
10
85.812
20
25.187
0
VERTEX
8
CONTOURS_MINEURES
10
87.002
20
25.478
0
VERTEX
8
CONTOURS_MINEURES
10
88.523
20
25.478
0
VERTEX
8
CONTOURS_MINEURES
10
90.004
20
25.478
0
VERTEX
8
CONTOURS_MINEURES
10
91.190
20
25.187
0
VERTEX
8
CONTOURS_MINEURES
10
92.996
20
24.950
0
VERTEX
8
CONTOURS_MINEURES
10
95.332
20
24.664
0
VERTEX
8
CONTOURS_MINEURES
10
95.998
20
24.570
0
VERTEX
8
CONTOURS_MINEURES
10
98.428
20
24.570
0
VERTEX
8
CONTOURS_MINEURES
10
99.000
20
24.570
0
VERTEX
8
CONTOURS_MINEURES
10
99.736
20
24.733
0
VERTEX
8
CONTOURS_MINEURES
10
102.003
20
25.028
0
VERTEX
8
CONTOURS_MINEURES
10
102.796
20
24.791
0
VERTEX
8
CONTOURS_MINEURES
10
105.005
20
24.783
0
VERTEX
8
CONTOURS_MINEURES
10
107.213
20
24.783
0
VERTEX
8
CONTOURS_MINEURES
10
107.997
20
24.783
0
VERTEX
8
CONTOURS_MINEURES
10
108.432
20
24.434
0
VERTEX
8
CONTOURS_MINEURES
10
109.681
20
23.999
0
VERTEX
8
CONTOURS_MINEURES
10
109.681
20
22.318
0
VERTEX
8
CONTOURS_MINEURES
10
109.681
20
21.004
0
VERTEX
8
CONTOURS_MINEURES
10
110.358
20
20.362
0
VERTEX
8
CONTOURS_MINEURES
10
110.999
20
20.151
0
VERTEX
8
CONTOURS_MINEURES
10
113.474
20
18.525
0
VERTEX
8
CONTOURS_MINEURES
10
114.001
20
18.143
0
VERTEX
8
CONTOURS_MINEURES
10
116.858
20
18.143
0
VERTEX
8
CONTOURS_MINEURES
10
117.003
20
18.143
0
VERTEX
8
CONTOURS_MINEURES
10
117.083
20
18.077
0
VERTEX
8
CONTOURS_MINEURES
10
117.170
20
17.997
0
VERTEX
8
CONTOURS_MINEURES
10
119.995
20
15.633
0
VERTEX
8
CONTOURS_MINEURES
10
120.628
20
15.633
0
VERTEX
8
CONTOURS_MINEURES
10
122.997
20
15.633
0
VERTEX
8
CONTOURS_MINEURES
10
123.370
20
15.373
0
VERTEX
8
CONTOURS_MINEURES
10
123.781
20
15.001
0
VERTEX
8
CONTOURS_MINEURES
10
123.781
20
14.216
0
VERTEX
8
CONTOURS_MINEURES
10
123.781
20
11.995
0
VERTEX
8
CONTOURS_MINEURES
10
124.350
20
10.349
0
VERTEX
8
CONTOURS_MINEURES
10
125.999
20
9.481
0
VERTEX
8
CONTOURS_MINEURES
10
126.259
20
9.258
0
VERTEX
8
CONTOURS_MINEURES
10
126.608
20
8.999
0
VERTEX
8
CONTOURS_MINEURES
10
129.002
20
7.564
0
VERTEX
8
CONTOURS_MINEURES
10
130.566
20
7.564
0
VERTEX
8
CONTOURS_MINEURES
10
132.004
20
7.564
0
VERTEX
8
CONTOURS_MINEURES
10
132.901
20
6.901
0
VERTEX
8
CONTOURS_MINEURES
10
134.518
20
6.003
0
VERTEX
8
CONTOURS_MINEURES
10
134.518
20
3.476
0
VERTEX
8
CONTOURS_MINEURES
10
134.518
20
2.997
0
VERTEX
8
CONTOURS_MINEURES
10
134.810
20
2.811
0
VERTEX
8
CONTOURS_MINEURES
10
134.996
20
2.804
0
VERTEX
8
CONTOURS_MINEURES
10
137.006
20
2.007
0
VERTEX
8
CONTOURS_MINEURES
10
137.998
20
1.800
0
VERTEX
8
CONTOURS_MINEURES
10
139.198
20
1.800
0
VERTEX
8
CONTOURS_MINEURES
10
141.000
20
1.800
0
VERTEX
8
CONTOURS_MINEURES
10
142.430
20
1.428
0
VERTEX
8
CONTOURS_MINEURES
10
143.350
20
0.001
0
SEQEND
0
POLYLINE
8
CONTOURS_MINEURES
66
1
70
0
0
VERTEX
8
CONTOURS_MINEURES
10
7.036
20
0.001
0
VERTEX
8
CONTOURS_MINEURES
10
8.996
20
0.818
0
VERTEX
8
CONTOURS_MINEURES
10
11.180
20
0.818
0
VERTEX
8
CONTOURS_MINEURES
10
11.999
20
0.818
0
VERTEX
8
CONTOURS_MINEURES
10
13.259
20
1.739
0
VERTEX
8
CONTOURS_MINEURES
10
15.001
20
2.289
0
VERTEX
8
CONTOURS_MINEURES
10
16.103
20
2.997
0
VERTEX
8
CONTOURS_MINEURES
10
16.103
20
4.899
0
VERTEX
8
CONTOURS_MINEURES
10
16.103
20
6.003
0
VERTEX
8
CONTOURS_MINEURES
10
18.003
20
7.114
0
VERTEX
8
CONTOURS_MINEURES
10
19.885
20
7.114
0
VERTEX
8
CONTOURS_MINEURES
10
20.995
20
7.114
0
VERTEX
8
CONTOURS_MINEURES
10
22.832
20
7.837
0
VERTEX
8
CONTOURS_MINEURES
10
23.997
20
8.386
0
VERTEX
8
CONTOURS_MINEURES
10
25.883
20
8.999
0
VERTEX
8
CONTOURS_MINEURES
10
26.651
20
9.347
0
VERTEX
8
CONTOURS_MINEURES
10
26.999
20
9.421
0
VERTEX
8
CONTOURS_MINEURES
10
27.422
20
9.421
0
VERTEX
8
CONTOURS_MINEURES
10
30.002
20
9.421
0
VERTEX
8
CONTOURS_MINEURES
10
32.160
20
9.841
0
VERTEX
8
CONTOURS_MINEURES
10
33.004
20
10.011
0
VERTEX
8
CONTOURS_MINEURES
10
34.610
20
10.386
0
VERTEX
8
CONTOURS_MINEURES
10
35.995
20
10.596
0
VERTEX
8
CONTOURS_MINEURES
10
37.596
20
10.596
0
VERTEX
8
CONTOURS_MINEURES
10
38.998
20
10.596
0
VERTEX
8
CONTOURS_MINEURES
10
41.711
20
11.706
0
VERTEX
8
CONTOURS_MINEURES
10
42.000
20
11.809
0
VERTEX
8
CONTOURS_MINEURES
10
42.186
20
11.809
0
VERTEX
8
CONTOURS_MINEURES
10
45.002
20
11.809
0
VERTEX
8
CONTOURS_MINEURES
10
45.391
20
11.995
0
VERTEX
8
CONTOURS_MINEURES
10
45.391
20
12.384
0
VERTEX
8
CONTOURS_MINEURES
10
45.391
20
15.001
0
VERTEX
8
CONTOURS_MINEURES
10
47.121
20
15.883
0
VERTEX
8
CONTOURS_MINEURES
10
48.004
20
16.198
0
VERTEX
8
CONTOURS_MINEURES
10
49.271
20
16.729
0
VERTEX
8
CONTOURS_MINEURES
10
50.996
20
17.367
0
VERTEX
8
CONTOURS_MINEURES
10
53.367
20
17.367
0
VERTEX
8
CONTOURS_MINEURES
10
53.998
20
17.367
0
VERTEX
8
CONTOURS_MINEURES
10
55.434
20
17.997
0
VERTEX
8
CONTOURS_MINEURES
10
57.001
20
18.651
0
VERTEX
8
CONTOURS_MINEURES
10
58.805
20
19.197
0
VERTEX
8
CONTOURS_MINEURES
10
60.003
20
19.320
0
VERTEX
8
CONTOURS_MINEURES
10
61.684
20
19.320
0
VERTEX
8
CONTOURS_MINEURES
10
63.005
20
19.320
0
VERTEX
8
CONTOURS_MINEURES
10
64.627
20
19.374
0
VERTEX
8
CONTOURS_MINEURES
10
65.997
20
19.628
0
VERTEX
8
CONTOURS_MINEURES
10
67.988
20
19.991
0
VERTEX
8
CONTOURS_MINEURES
10
68.999
20
20.071
0
VERTEX
8
CONTOURS_MINEURES
10
71.070
20
20.071
0
VERTEX
8
CONTOURS_MINEURES
10
72.001
20
20.071
0
VERTEX
8
CONTOURS_MINEURES
10
72.732
20
20.272
0
VERTEX
8
CONTOURS_MINEURES
10
74.715
20
21.004
0
VERTEX
8
CONTOURS_MINEURES
10
74.715
20
23.711
0
VERTEX
8
CONTOURS_MINEURES
10
74.715
20
23.999
0
VERTEX
8
CONTOURS_MINEURES
10
75.004
20
24.084
0
VERTEX
8
CONTOURS_MINEURES
10
77.087
20
24.908
0
VERTEX
8
CONTOURS_MINEURES
10
77.995
20
25.381
0
VERTEX
8
CONTOURS_MINEURES
10
79.380
20
25.381
0
VERTEX
8
CONTOURS_MINEURES
10
80.997
20
25.381
0
VERTEX
8
CONTOURS_MINEURES
10
82.161
20
25.834
0
VERTEX
8
CONTOURS_MINEURES
10
83.584
20
26.995
0
VERTEX
8
CONTOURS_MINEURES
10
83.584
20
29.585
0
VERTEX
8
CONTOURS_MINEURES
10
83.584
20
30.002
0
VERTEX
8
CONTOURS_MINEURES
10
84.000
20
30.268
0
VERTEX
8
CONTOURS_MINEURES
10
86.322
20
30.680
0
VERTEX
8
CONTOURS_MINEURES
10
87.002
20
30.786
0
VERTEX
8
CONTOURS_MINEURES
10
87.788
20
30.786
0
VERTEX
8
CONTOURS_MINEURES
10
90.004
20
30.786
0
VERTEX
8
CONTOURS_MINEURES
10
92.680
20
30.318
0
VERTEX
8
CONTOURS_MINEURES
10
92.996
20
30.273
0
VERTEX
8
CONTOURS_MINEURES
10
95.331
20
30.002
0
VERTEX
8
CONTOURS_MINEURES
10
95.331
20
29.334
0
VERTEX
8
CONTOURS_MINEURES
10
95.331
20
26.995
0
VERTEX
8
CONTOURS_MINEURES
10
95.998
20
26.902
0
VERTEX
8
CONTOURS_MINEURES
10
96.092
20
26.902
0
VERTEX
8
CONTOURS_MINEURES
10
99.000
20
26.902
0
VERTEX
8
CONTOURS_MINEURES
10
99.422
20
26.995
0
VERTEX
8
CONTOURS_MINEURES
10
99.422
20
27.417
0
VERTEX
8
CONTOURS_MINEURES
10
99.422
20
30.002
0
VERTEX
8
CONTOURS_MINEURES
10
101.549
20
30.455
0
VERTEX
8
CONTOURS_MINEURES
10
102.003
20
30.469
0
VERTEX
8
CONTOURS_MINEURES
10
102.284
20
30.283
0
VERTEX
8
CONTOURS_MINEURES
10
104.135
20
30.002
0
VERTEX
8
CONTOURS_MINEURES
10
104.135
20
27.866
0
VERTEX
8
CONTOURS_MINEURES
10
104.135
20
26.995
0
VERTEX
8
CONTOURS_MINEURES
10
104.804
20
26.795
0
VERTEX
8
CONTOURS_MINEURES
10
105.005
20
26.794
0
VERTEX
8
CONTOURS_MINEURES
10
105.206
20
26.794
0
VERTEX
8
CONTOURS_MINEURES
10
107.997
20
26.794
0
VERTEX
8
CONTOURS_MINEURES
10
109.548
20
25.547
0
VERTEX
8
CONTOURS_MINEURES
10
110.999
20
25.043
0
VERTEX
8
CONTOURS_MINEURES
10
111.801
20
24.800
0
VERTEX
8
CONTOURS_MINEURES
10
113.150
20
23.999
0
VERTEX
8
CONTOURS_MINEURES
10
113.150
20
23.150
0
VERTEX
8
CONTOURS_MINEURES
10
113.150
20
21.004
0
VERTEX
8
CONTOURS_MINEURES
10
114.001
20
20.387
0
VERTEX
8
CONTOURS_MINEURES
10
114.617
20
20.387
0
VERTEX
8
CONTOURS_MINEURES
10
117.003
20
20.387
0
VERTEX
8
CONTOURS_MINEURES
10
118.309
20
19.309
0
VERTEX
8
CONTOURS_MINEURES
10
119.726
20
17.997
0
VERTEX
8
CONTOURS_MINEURES
10
119.995
20
17.772
0
VERTEX
8
CONTOURS_MINEURES
10
122.772
20
17.772
0
VERTEX
8
CONTOURS_MINEURES
10
122.997
20
17.772
0
VERTEX
8
CONTOURS_MINEURES
10
124.634
20
16.635
0
VERTEX
8
CONTOURS_MINEURES
10
125.999
20
15.398
0
VERTEX
8
CONTOURS_MINEURES
10
126.579
20
15.001
0
VERTEX
8
CONTOURS_MINEURES
10
126.579
20
12.575
0
VERTEX
8
CONTOURS_MINEURES
10
126.579
20
11.995
0
VERTEX
8
CONTOURS_MINEURES
10
127.882
20
10.877
0
VERTEX
8
CONTOURS_MINEURES
10
129.002
20
10.045
0
VERTEX
8
CONTOURS_MINEURES
10
130.956
20
10.045
0
VERTEX
8
CONTOURS_MINEURES
10
132.004
20
10.045
0
VERTEX
8
CONTOURS_MINEURES
10
132.698
20
9.694
0
VERTEX
8
CONTOURS_MINEURES
10
133.145
20
8.999
0
VERTEX
8
CONTOURS_MINEURES
10
134.210
20
8.212
0
VERTEX
8
CONTOURS_MINEURES
10
134.996
20
7.776
0
VERTEX
8
CONTOURS_MINEURES
10
136.289
20
7.294
0
VERTEX
8
CONTOURS_MINEURES
10
137.998
20
6.164
0
VERTEX
8
CONTOURS_MINEURES
10
140.840
20
6.164
0
VERTEX
8
CONTOURS_MINEURES
10
141.000
20
6.164
0
VERTEX
8
CONTOURS_MINEURES
10
141.320
20
6.003
0
VERTEX
8
CONTOURS_MINEURES
10
141.320
20
3.317
0
VERTEX
8
CONTOURS_MINEURES
10
141.320
20
2.997
0
VERTEX
8
CONTOURS_MINEURES
10
143.448
20
2.443
0
VERTEX
8
CONTOURS_MINEURES
10
144.002
20
1.583
0
VERTEX
8
CONTOURS_MINEURES
10
145.301
20
1.297
0
VERTEX
8
CONTOURS_MINEURES
10
145.738
20
0.001
0
SEQEND
0
POLYLINE
8
CONTOURS_MINEURES
66
1
70
0
0
VERTEX
8
CONTOURS_MINEURES
10
0.000
20
7.870
0
VERTEX
8
CONTOURS_MINEURES
10
1.870
20
7.870
0
VERTEX
8
CONTOURS_MINEURES
10
3.002
20
7.870
0
VERTEX
8
CONTOURS_MINEURES
10
4.258
20
7.746
0
VERTEX
8
CONTOURS_MINEURES
10
6.005
20
7.921
0
VERTEX
8
CONTOURS_MINEURES
10
7.574
20
7.575
0
VERTEX
8
CONTOURS_MINEURES
10
8.996
20
7.871
0
VERTEX
8
CONTOURS_MINEURES
10
10.127
20
7.871
0
VERTEX
8
CONTOURS_MINEURES
10
11.999
20
7.871
0
VERTEX
8
CONTOURS_MINEURES
10
13.694
20
7.695
0
VERTEX
8
CONTOURS_MINEURES
10
15.001
20
8.355
0
VERTEX
8
CONTOURS_MINEURES
10
17.364
20
8.999
0
VERTEX
8
CONTOURS_MINEURES
10
18.003
20
9.228
0
VERTEX
8
CONTOURS_MINEURES
10
20.766
20
9.228
0
VERTEX
8
CONTOURS_MINEURES
10
20.995
20
9.228
0
VERTEX
8
CONTOURS_MINEURES
10
22.448
20
10.545
0
VERTEX
8
CONTOURS_MINEURES
10
23.997
20
10.551
0
VERTEX
8
CONTOURS_MINEURES
10
24.992
20
11.002
0
VERTEX
8
CONTOURS_MINEURES
10
26.999
20
11.432
0
VERTEX
8
CONTOURS_MINEURES
10
29.437
20
11.432
0
VERTEX
8
CONTOURS_MINEURES
10
30.002
20
11.432
0
VERTEX
8
CONTOURS_MINEURES
10
30.474
20
11.523
0
VERTEX
8
CONTOURS_MINEURES
10
32.804
20
11.995
0
VERTEX
8
CONTOURS_MINEURES
10
32.804
20
14.801
0
VERTEX
8
CONTOURS_MINEURES
10
32.804
20
15.001
0
VERTEX
8
CONTOURS_MINEURES
10
32.945
20
15.060
0
VERTEX
8
CONTOURS_MINEURES
10
33.004
20
15.061
0
VERTEX
8
CONTOURS_MINEURES
10
33.067
20
15.064
0
VERTEX
8
CONTOURS_MINEURES
10
35.995
20
15.656
0
VERTEX
8
CONTOURS_MINEURES
10
38.342
20
15.656
0
VERTEX
8
CONTOURS_MINEURES
10
38.998
20
15.656
0
VERTEX
8
CONTOURS_MINEURES
10
40.097
20
16.098
0
VERTEX
8
CONTOURS_MINEURES
10
42.000
20
17.006
0
VERTEX
8
CONTOURS_MINEURES
10
42.993
20
17.006
0
VERTEX
8
CONTOURS_MINEURES
10
45.002
20
17.006
0
VERTEX
8
CONTOURS_MINEURES
10
45.660
20
17.341
0
VERTEX
8
CONTOURS_MINEURES
10
47.504
20
17.997
0
VERTEX
8
CONTOURS_MINEURES
10
48.004
20
18.231
0
VERTEX
8
CONTOURS_MINEURES
10
48.428
20
18.423
0
VERTEX
8
CONTOURS_MINEURES
10
50.996
20
19.655
0
VERTEX
8
CONTOURS_MINEURES
10
52.343
20
19.655
0
VERTEX
8
CONTOURS_MINEURES
10
53.998
20
19.655
0
VERTEX
8
CONTOURS_MINEURES
10
56.083
20
20.085
0
VERTEX
8
CONTOURS_MINEURES
10
57.001
20
20.468
0
VERTEX
8
CONTOURS_MINEURES
10
57.412
20
20.592
0
VERTEX
8
CONTOURS_MINEURES
10
60.003
20
20.858
0
VERTEX
8
CONTOURS_MINEURES
10
60.149
20
20.858
0
VERTEX
8
CONTOURS_MINEURES
10
63.005
20
20.858
0
VERTEX
8
CONTOURS_MINEURES
10
63.146
20
20.862
0
VERTEX
8
CONTOURS_MINEURES
10
63.907
20
21.004
0
VERTEX
8
CONTOURS_MINEURES
10
63.907
20
23.096
0
VERTEX
8
CONTOURS_MINEURES
10
63.907
20
23.999
0
VERTEX
8
CONTOURS_MINEURES
10
65.608
20
24.388
0
VERTEX
8
CONTOURS_MINEURES
10
65.997
20
24.431
0
VERTEX
8
CONTOURS_MINEURES
10
68.132
20
24.865
0
VERTEX
8
CONTOURS_MINEURES
10
68.999
20
24.995
0
VERTEX
8
CONTOURS_MINEURES
10
69.997
20
24.995
0
VERTEX
8
CONTOURS_MINEURES
10
72.001
20
24.995
0
VERTEX
8
CONTOURS_MINEURES
10
73.285
20
25.280
0
VERTEX
8
CONTOURS_MINEURES
10
75.004
20
25.787
0
VERTEX
8
CONTOURS_MINEURES
10
75.869
20
26.129
0
VERTEX
8
CONTOURS_MINEURES
10
77.532
20
26.995
0
VERTEX
8
CONTOURS_MINEURES
10
77.532
20
29.536
0
VERTEX
8
CONTOURS_MINEURES
10
77.532
20
30.002
0
VERTEX
8
CONTOURS_MINEURES
10
77.995
20
30.273
0
VERTEX
8
CONTOURS_MINEURES
10
80.725
20
30.273
0
VERTEX
8
CONTOURS_MINEURES
10
80.997
20
30.273
0
VERTEX
8
CONTOURS_MINEURES
10
81.688
20
30.691
0
VERTEX
8
CONTOURS_MINEURES
10
84.000
20
32.170
0
VERTEX
8
CONTOURS_MINEURES
10
84.704
20
32.295
0
VERTEX
8
CONTOURS_MINEURES
10
87.002
20
32.652
0
VERTEX
8
CONTOURS_MINEURES
10
89.658
20
32.652
0
VERTEX
8
CONTOURS_MINEURES
10
90.004
20
32.652
0
VERTEX
8
CONTOURS_MINEURES
10
90.422
20
32.579
0
VERTEX
8
CONTOURS_MINEURES
10
92.996
20
32.212
0
VERTEX
8
CONTOURS_MINEURES
10
93.887
20
32.108
0
VERTEX
8
CONTOURS_MINEURES
10
95.998
20
32.156
0
VERTEX
8
CONTOURS_MINEURES
10
98.157
20
32.156
0
VERTEX
8
CONTOURS_MINEURES
10
99.000
20
32.156
0
VERTEX
8
CONTOURS_MINEURES
10
99.695
20
32.304
0
VERTEX
8
CONTOURS_MINEURES
10
102.003
20
32.377
0
VERTEX
8
CONTOURS_MINEURES
10
103.435
20
31.431
0
VERTEX
8
CONTOURS_MINEURES
10
105.005
20
31.192
0
VERTEX
8
CONTOURS_MINEURES
10
106.808
20
31.192
0
VERTEX
8
CONTOURS_MINEURES
10
107.997
20
31.192
0
VERTEX
8
CONTOURS_MINEURES
10
110.248
20
30.002
0
VERTEX
8
CONTOURS_MINEURES
10
110.248
20
29.250
0
VERTEX
8
CONTOURS_MINEURES
10
110.248
20
26.995
0
VERTEX
8
CONTOURS_MINEURES
10
110.664
20
26.661
0
VERTEX
8
CONTOURS_MINEURES
10
110.999
20
26.544
0
VERTEX
8
CONTOURS_MINEURES
10
112.956
20
25.952
0
VERTEX
8
CONTOURS_MINEURES
10
114.001
20
25.332
0
VERTEX
8
CONTOURS_MINEURES
10
115.336
20
25.332
0
VERTEX
8
CONTOURS_MINEURES
10
117.003
20
25.332
0
VERTEX
8
CONTOURS_MINEURES
10
118.975
20
23.999
0
VERTEX
8
CONTOURS_MINEURES
10
118.975
20
22.978
0
VERTEX
8
CONTOURS_MINEURES
10
118.975
20
21.004
0
VERTEX
8
CONTOURS_MINEURES
10
119.535
20
20.542
0
VERTEX
8
CONTOURS_MINEURES
10
119.995
20
20.116
0
VERTEX
8
CONTOURS_MINEURES
10
122.111
20
20.116
0
VERTEX
8
CONTOURS_MINEURES
10
122.997
20
20.116
0
VERTEX
8
CONTOURS_MINEURES
10
125.753
20
17.997
0
VERTEX
8
CONTOURS_MINEURES
10
125.898
20
17.896
0
VERTEX
8
CONTOURS_MINEURES
10
125.999
20
17.805
0
VERTEX
8
CONTOURS_MINEURES
10
126.615
20
17.383
0
VERTEX
8
CONTOURS_MINEURES
10
129.002
20
16.192
0
VERTEX
8
CONTOURS_MINEURES
10
130.811
20
16.192
0
VERTEX
8
CONTOURS_MINEURES
10
132.004
20
16.192
0
VERTEX
8
CONTOURS_MINEURES
10
133.737
20
15.001
0
VERTEX
8
CONTOURS_MINEURES
10
133.737
20
13.259
0
VERTEX
8
CONTOURS_MINEURES
10
133.737
20
11.995
0
VERTEX
8
CONTOURS_MINEURES
10
134.574
20
11.572
0
VERTEX
8
CONTOURS_MINEURES
10
134.996
20
10.916
0
VERTEX
8
CONTOURS_MINEURES
10
137.179
20
8.999
0
VERTEX
8
CONTOURS_MINEURES
10
137.775
20
8.777
0
VERTEX
8
CONTOURS_MINEURES
10
137.998
20
8.629
0
VERTEX
8
CONTOURS_MINEURES
10
138.369
20
8.629
0
VERTEX
8
CONTOURS_MINEURES
10
141.000
20
8.629
0
VERTEX
8
CONTOURS_MINEURES
10
141.745
20
8.256
0
VERTEX
8
CONTOURS_MINEURES
10
144.002
20
8.650
0
VERTEX
8
CONTOURS_MINEURES
10
146.655
20
8.650
0
VERTEX
8
CONTOURS_MINEURES
10
147.005
20
8.308
0
VERTEX
8
CONTOURS_MINEURES
10
149.306
20
8.308
0
VERTEX
8
CONTOURS_MINEURES
10
149.996
20
8.308
0
VERTEX
8
CONTOURS_MINEURES
10
151.816
20
7.819
0
VERTEX
8
CONTOURS_MINEURES
10
152.999
20
6.313
0
VERTEX
8
CONTOURS_MINEURES
10
153.427
20
6.003
0
VERTEX
8
CONTOURS_MINEURES
10
153.427
20
3.426
0
VERTEX
8
CONTOURS_MINEURES
10
153.427
20
2.997
0
VERTEX
8
CONTOURS_MINEURES
10
156.001
20
1.896
0
VERTEX
8
CONTOURS_MINEURES
10
157.900
20
1.896
0
VERTEX
8
CONTOURS_MINEURES
10
159.003
20
1.896
0
VERTEX
8
CONTOURS_MINEURES
10
159.402
20
2.597
0
VERTEX
8
CONTOURS_MINEURES
10
161.451
20
2.997
0
VERTEX
8
CONTOURS_MINEURES
10
161.451
20
3.543
0
VERTEX
8
CONTOURS_MINEURES
10
161.451
20
6.003
0
VERTEX
8
CONTOURS_MINEURES
10
161.995
20
6.238
0
VERTEX
8
CONTOURS_MINEURES
10
163.716
20
7.282
0
VERTEX
8
CONTOURS_MINEURES
10
164.997
20
7.143
0
VERTEX
8
CONTOURS_MINEURES
10
166.139
20
7.143
0
VERTEX
8
CONTOURS_MINEURES
10
167.999
20
7.143
0
VERTEX
8
CONTOURS_MINEURES
10
170.553
20
6.451
0
VERTEX
8
CONTOURS_MINEURES
10
171.002
20
6.309
0
VERTEX
8
CONTOURS_MINEURES
10
171.231
20
6.232
0
VERTEX
8
CONTOURS_MINEURES
10
171.911
20
6.003
0
VERTEX
8
CONTOURS_MINEURES
10
171.911
20
5.092
0
VERTEX
8
CONTOURS_MINEURES
10
171.911
20
2.997
0
VERTEX
8
CONTOURS_MINEURES
10
173.503
20
2.497
0
VERTEX
8
CONTOURS_MINEURES
10
174.004
20
2.347
0
SEQEND
0
POLYLINE
8
CONTOURS_MINEURES
66
1
70
0
0
VERTEX
8
CONTOURS_MINEURES
10
0.000
20
16.867
0
VERTEX
8
CONTOURS_MINEURES
10
1.133
20
16.867
0
VERTEX
8
CONTOURS_MINEURES
10
3.002
20
16.867
0
VERTEX
8
CONTOURS_MINEURES
10
5.307
20
17.300
0
VERTEX
8
CONTOURS_MINEURES
10
6.005
20
17.533
0
VERTEX
8
CONTOURS_MINEURES
10
6.448
20
17.553
0
VERTEX
8
CONTOURS_MINEURES
10
8.996
20
17.102
0
VERTEX
8
CONTOURS_MINEURES
10
9.893
20
17.102
0
VERTEX
8
CONTOURS_MINEURES
10
11.999
20
17.102
0
VERTEX
8
CONTOURS_MINEURES
10
14.156
20
17.154
0
VERTEX
8
CONTOURS_MINEURES
10
15.001
20
17.048
0
VERTEX
8
CONTOURS_MINEURES
10
16.090
20
16.910
0
VERTEX
8
CONTOURS_MINEURES
10
17.875
20
17.997
0
VERTEX
8
CONTOURS_MINEURES
10
18.003
20
18.025
0
VERTEX
8
CONTOURS_MINEURES
10
20.966
20
18.025
0
VERTEX
8
CONTOURS_MINEURES
10
20.995
20
18.025
0
VERTEX
8
CONTOURS_MINEURES
10
21.046
20
18.048
0
VERTEX
8
CONTOURS_MINEURES
10
23.997
20
18.073
0
VERTEX
8
CONTOURS_MINEURES
10
24.131
20
18.132
0
VERTEX
8
CONTOURS_MINEURES
10
26.249
20
17.997
0
VERTEX
8
CONTOURS_MINEURES
10
26.999
20
17.976
0
VERTEX
8
CONTOURS_MINEURES
10
29.981
20
17.976
0
VERTEX
8
CONTOURS_MINEURES
10
30.002
20
17.976
0
VERTEX
8
CONTOURS_MINEURES
10
30.016
20
17.982
0
VERTEX
8
CONTOURS_MINEURES
10
30.752
20
17.997
0
VERTEX
8
CONTOURS_MINEURES
10
32.869
20
18.132
0
VERTEX
8
CONTOURS_MINEURES
10
33.004
20
18.217
0
VERTEX
8
CONTOURS_MINEURES
10
35.190
20
18.807
0
VERTEX
8
CONTOURS_MINEURES
10
35.995
20
18.699
0
VERTEX
8
CONTOURS_MINEURES
10
36.696
20
18.699
0
VERTEX
8
CONTOURS_MINEURES
10
38.998
20
18.699
0
VERTEX
8
CONTOURS_MINEURES
10
39.883
20
20.117
0
VERTEX
8
CONTOURS_MINEURES
10
42.000
20
19.931
0
VERTEX
8
CONTOURS_MINEURES
10
43.931
20
19.931
0
VERTEX
8
CONTOURS_MINEURES
10
45.002
20
19.931
0
VERTEX
8
CONTOURS_MINEURES
10
47.687
20
20.686
0
VERTEX
8
CONTOURS_MINEURES
10
48.004
20
20.834
0
VERTEX
8
CONTOURS_MINEURES
10
48.378
20
21.004
0
VERTEX
8
CONTOURS_MINEURES
10
48.378
20
21.378
0
VERTEX
8
CONTOURS_MINEURES
10
48.378
20
23.999
0
VERTEX
8
CONTOURS_MINEURES
10
49.797
20
25.200
0
VERTEX
8
CONTOURS_MINEURES
10
50.996
20
25.405
0
VERTEX
8
CONTOURS_MINEURES
10
52.404
20
25.405
0
VERTEX
8
CONTOURS_MINEURES
10
53.998
20
25.405
0
VERTEX
8
CONTOURS_MINEURES
10
55.459
20
25.457
0
VERTEX
8
CONTOURS_MINEURES
10
57.001
20
25.782
0
VERTEX
8
CONTOURS_MINEURES
10
58.041
20
25.957
0
VERTEX
8
CONTOURS_MINEURES
10
60.003
20
25.964
0
VERTEX
8
CONTOURS_MINEURES
10
61.972
20
25.964
0
VERTEX
8
CONTOURS_MINEURES
10
63.005
20
25.964
0
VERTEX
8
CONTOURS_MINEURES
10
63.844
20
26.155
0
VERTEX
8
CONTOURS_MINEURES
10
65.997
20
26.396
0
VERTEX
8
CONTOURS_MINEURES
10
66.496
20
26.497
0
VERTEX
8
CONTOURS_MINEURES
10
68.999
20
26.873
0
VERTEX
8
CONTOURS_MINEURES
10
71.879
20
26.873
0
VERTEX
8
CONTOURS_MINEURES
10
72.001
20
26.873
0
VERTEX
8
CONTOURS_MINEURES
10
72.551
20
26.995
0
VERTEX
8
CONTOURS_MINEURES
10
72.551
20
29.451
0
VERTEX
8
CONTOURS_MINEURES
10
72.551
20
30.002
0
VERTEX
8
CONTOURS_MINEURES
10
74.278
20
30.726
0
VERTEX
8
CONTOURS_MINEURES
10
75.004
20
30.781
0
VERTEX
8
CONTOURS_MINEURES
10
76.462
20
31.462
0
VERTEX
8
CONTOURS_MINEURES
10
77.995
20
32.361
0
VERTEX
8
CONTOURS_MINEURES
10
78.633
20
32.361
0
VERTEX
8
CONTOURS_MINEURES
10
80.997
20
32.361
0
VERTEX
8
CONTOURS_MINEURES
10
82.050
20
32.997
0
VERTEX
8
CONTOURS_MINEURES
10
82.857
20
34.141
0
VERTEX
8
CONTOURS_MINEURES
10
84.000
20
34.314
0
VERTEX
8
CONTOURS_MINEURES
10
85.501
20
34.501
0
VERTEX
8
CONTOURS_MINEURES
10
87.002
20
34.773
0
VERTEX
8
CONTOURS_MINEURES
10
88.775
20
34.773
0
VERTEX
8
CONTOURS_MINEURES
10
90.004
20
34.773
0
VERTEX
8
CONTOURS_MINEURES
10
91.461
20
34.540
0
VERTEX
8
CONTOURS_MINEURES
10
92.996
20
34.567
0
VERTEX
8
CONTOURS_MINEURES
10
94.809
20
34.814
0
VERTEX
8
CONTOURS_MINEURES
10
95.998
20
34.849
0
VERTEX
8
CONTOURS_MINEURES
10
97.152
20
34.849
0
VERTEX
8
CONTOURS_MINEURES
10
99.000
20
34.849
0
VERTEX
8
CONTOURS_MINEURES
10
100.668
20
34.668
0
VERTEX
8
CONTOURS_MINEURES
10
102.003
20
34.725
0
VERTEX
8
CONTOURS_MINEURES
10
103.951
20
32.997
0
VERTEX
8
CONTOURS_MINEURES
10
104.585
20
32.578
0
VERTEX
8
CONTOURS_MINEURES
10
105.005
20
32.515
0
VERTEX
8
CONTOURS_MINEURES
10
105.487
20
32.515
0
VERTEX
8
CONTOURS_MINEURES
10
107.997
20
32.515
0
VERTEX
8
CONTOURS_MINEURES
10
109.025
20
31.971
0
VERTEX
8
CONTOURS_MINEURES
10
110.999
20
30.995
0
VERTEX
8
CONTOURS_MINEURES
10
112.024
20
31.025
0
VERTEX
8
CONTOURS_MINEURES
10
114.001
20
30.199
0
VERTEX
8
CONTOURS_MINEURES
10
114.198
20
30.199
0
VERTEX
8
CONTOURS_MINEURES
10
117.003
20
30.199
0
VERTEX
8
CONTOURS_MINEURES
10
117.248
20
30.247
0
VERTEX
8
CONTOURS_MINEURES
10
117.705
20
30.002
0
VERTEX
8
CONTOURS_MINEURES
10
117.705
20
27.700
0
VERTEX
8
CONTOURS_MINEURES
10
117.705
20
26.995
0
VERTEX
8
CONTOURS_MINEURES
10
119.995
20
26.002
0
VERTEX
8
CONTOURS_MINEURES
10
122.002
20
26.002
0
VERTEX
8
CONTOURS_MINEURES
10
122.997
20
26.002
0
VERTEX
8
CONTOURS_MINEURES
10
124.897
20
25.100
0
VERTEX
8
CONTOURS_MINEURES
10
125.999
20
24.798
0
VERTEX
8
CONTOURS_MINEURES
10
128.726
20
24.274
0
VERTEX
8
CONTOURS_MINEURES
10
129.002
20
24.232
0
VERTEX
8
CONTOURS_MINEURES
10
129.234
20
24.232
0
VERTEX
8
CONTOURS_MINEURES
10
132.004
20
24.232
0
VERTEX
8
CONTOURS_MINEURES
10
132.939
20
23.999
0
VERTEX
8
CONTOURS_MINEURES
10
132.939
20
21.940
0
VERTEX
8
CONTOURS_MINEURES
10
132.939
20
21.004
0
VERTEX
8
CONTOURS_MINEURES
10
134.996
20
20.243
0
VERTEX
8
CONTOURS_MINEURES
10
136.317
20
19.681
0
VERTEX
8
CONTOURS_MINEURES
10
137.998
20
19.120
0
VERTEX
8
CONTOURS_MINEURES
10
139.879
20
19.120
0
VERTEX
8
CONTOURS_MINEURES
10
141.000
20
19.120
0
VERTEX
8
CONTOURS_MINEURES
10
141.966
20
18.965
0
VERTEX
8
CONTOURS_MINEURES
10
144.002
20
18.941
0
VERTEX
8
CONTOURS_MINEURES
10
146.333
20
18.670
0
VERTEX
8
CONTOURS_MINEURES
10
147.005
20
18.571
0
VERTEX
8
CONTOURS_MINEURES
10
147.576
20
18.571
0
VERTEX
8
CONTOURS_MINEURES
10
149.996
20
18.571
0
VERTEX
8
CONTOURS_MINEURES
10
150.469
20
18.470
0
VERTEX
8
CONTOURS_MINEURES
10
152.999
20
18.321
0
VERTEX
8
CONTOURS_MINEURES
10
155.358
20
17.997
0
VERTEX
8
CONTOURS_MINEURES
10
156.001
20
17.910
0
VERTEX
8
CONTOURS_MINEURES
10
158.916
20
17.910
0
VERTEX
8
CONTOURS_MINEURES
10
159.003
20
17.910
0
VERTEX
8
CONTOURS_MINEURES
10
159.103
20
17.897
0
VERTEX
8
CONTOURS_MINEURES
10
161.995
20
17.507
0
VERTEX
8
CONTOURS_MINEURES
10
164.004
20
17.006
0
VERTEX
8
CONTOURS_MINEURES
10
164.997
20
16.683
0
VERTEX
8
CONTOURS_MINEURES
10
166.682
20
16.683
0
VERTEX
8
CONTOURS_MINEURES
10
167.999
20
16.683
0
VERTEX
8
CONTOURS_MINEURES
10
170.016
20
15.984
0
VERTEX
8
CONTOURS_MINEURES
10
171.002
20
15.643
0
VERTEX
8
CONTOURS_MINEURES
10
172.803
20
15.001
0
VERTEX
8
CONTOURS_MINEURES
10
172.803
20
13.799
0
VERTEX
8
CONTOURS_MINEURES
10
172.803
20
11.995
0
VERTEX
8
CONTOURS_MINEURES
10
174.004
20
11.544
0
SEQEND
0
POLYLINE
8
CONTOURS_MINEURES
66
1
70
0
0
VERTEX
8
CONTOURS_MINEURES
10
0.000
20
25.633
0
VERTEX
8
CONTOURS_MINEURES
10
1.638
20
25.633
0
VERTEX
8
CONTOURS_MINEURES
10
3.002
20
25.633
0
VERTEX
8
CONTOURS_MINEURES
10
4.297
20
25.291
0
VERTEX
8
CONTOURS_MINEURES
10
6.005
20
24.902
0
VERTEX
8
CONTOURS_MINEURES
10
6.570
20
24.565
0
VERTEX
8
CONTOURS_MINEURES
10
7.140
20
23.999
0
VERTEX
8
CONTOURS_MINEURES
10
7.140
20
22.141
0
VERTEX
8
CONTOURS_MINEURES
10
7.140
20
21.004
0
VERTEX
8
CONTOURS_MINEURES
10
8.185
20
20.188
0
VERTEX
8
CONTOURS_MINEURES
10
8.996
20
20.080
0
VERTEX
8
CONTOURS_MINEURES
10
11.076
20
20.080
0
VERTEX
8
CONTOURS_MINEURES
10
11.999
20
20.080
0
VERTEX
8
CONTOURS_MINEURES
10
12.905
20
20.096
0
VERTEX
8
CONTOURS_MINEURES
10
15.001
20
19.832
0
VERTEX
8
CONTOURS_MINEURES
10
17.821
20
20.821
0
VERTEX
8
CONTOURS_MINEURES
10
18.003
20
20.862
0
VERTEX
8
CONTOURS_MINEURES
10
18.144
20
20.862
0
VERTEX
8
CONTOURS_MINEURES
10
20.995
20
20.862
0
VERTEX
8
CONTOURS_MINEURES
10
21.311
20
21.004
0
VERTEX
8
CONTOURS_MINEURES
10
21.311
20
21.319
0
VERTEX
8
CONTOURS_MINEURES
10
21.311
20
23.999
0
VERTEX
8
CONTOURS_MINEURES
10
22.972
20
25.022
0
VERTEX
8
CONTOURS_MINEURES
10
23.997
20
25.292
0
VERTEX
8
CONTOURS_MINEURES
10
26.022
20
26.020
0
VERTEX
8
CONTOURS_MINEURES
10
26.999
20
26.301
0
VERTEX
8
CONTOURS_MINEURES
10
29.306
20
26.301
0
VERTEX
8
CONTOURS_MINEURES
10
30.002
20
26.301
0
VERTEX
8
CONTOURS_MINEURES
10
30.608
20
26.390
0
VERTEX
8
CONTOURS_MINEURES
10
31.467
20
26.995
0
VERTEX
8
CONTOURS_MINEURES
10
31.467
20
28.463
0
VERTEX
8
CONTOURS_MINEURES
10
31.467
20
30.002
0
VERTEX
8
CONTOURS_MINEURES
10
32.430
20
30.574
0
VERTEX
8
CONTOURS_MINEURES
10
33.004
20
30.792
0
VERTEX
8
CONTOURS_MINEURES
10
34.816
20
31.816
0
VERTEX
8
CONTOURS_MINEURES
10
35.995
20
32.206
0
VERTEX
8
CONTOURS_MINEURES
10
36.788
20
32.206
0
VERTEX
8
CONTOURS_MINEURES
10
38.998
20
32.206
0
VERTEX
8
CONTOURS_MINEURES
10
40.376
20
32.997
0
VERTEX
8
CONTOURS_MINEURES
10
41.459
20
33.539
0
VERTEX
8
CONTOURS_MINEURES
10
42.000
20
33.868
0
VERTEX
8
CONTOURS_MINEURES
10
44.133
20
33.868
0
VERTEX
8
CONTOURS_MINEURES
10
45.002
20
33.868
0
VERTEX
8
CONTOURS_MINEURES
10
46.459
20
34.456
0
VERTEX
8
CONTOURS_MINEURES
10
48.004
20
34.562
0
VERTEX
8
CONTOURS_MINEURES
10
49.641
20
34.360
0
VERTEX
8
CONTOURS_MINEURES
10
50.558
20
36.004
0
VERTEX
8
CONTOURS_MINEURES
10
50.558
20
38.561
0
VERTEX
8
CONTOURS_MINEURES
10
50.558
20
39.000
0
VERTEX
8
CONTOURS_MINEURES
10
50.996
20
39.148
0
VERTEX
8
CONTOURS_MINEURES
10
53.849
20
39.148
0
VERTEX
8
CONTOURS_MINEURES
10
53.998
20
39.148
0
VERTEX
8
CONTOURS_MINEURES
10
54.245
20
39.246
0
VERTEX
8
CONTOURS_MINEURES
10
57.001
20
39.283
0
VERTEX
8
CONTOURS_MINEURES
10
60.003
20
39.000
0
VERTEX
8
CONTOURS_MINEURES
10
60.003
20
36.004
0
VERTEX
8
CONTOURS_MINEURES
10
63.005
20
36.004
0
VERTEX
8
CONTOURS_MINEURES
10
65.997
20
35.503
0
VERTEX
8
CONTOURS_MINEURES
10
67.798
20
36.004
0
VERTEX
8
CONTOURS_MINEURES
10
67.798
20
37.202
0
VERTEX
8
CONTOURS_MINEURES
10
67.798
20
39.000
0
VERTEX
8
CONTOURS_MINEURES
10
68.999
20
39.249
0
VERTEX
8
CONTOURS_MINEURES
10
69.249
20
39.249
0
VERTEX
8
CONTOURS_MINEURES
10
72.001
20
39.249
0
VERTEX
8
CONTOURS_MINEURES
10
72.377
20
39.374
0
VERTEX
8
CONTOURS_MINEURES
10
75.004
20
39.199
0
VERTEX
8
CONTOURS_MINEURES
10
76.400
20
40.597
0
VERTEX
8
CONTOURS_MINEURES
10
77.995
20
40.169
0
VERTEX
8
CONTOURS_MINEURES
10
79.167
20
40.169
0
VERTEX
8
CONTOURS_MINEURES
10
80.997
20
40.169
0
VERTEX
8
CONTOURS_MINEURES
10
81.936
20
41.059
0
VERTEX
8
CONTOURS_MINEURES
10
84.000
20
40.830
0
VERTEX
8
CONTOURS_MINEURES
10
84.861
20
41.136
0
VERTEX
8
CONTOURS_MINEURES
10
87.002
20
41.101
0
VERTEX
8
CONTOURS_MINEURES
10
89.108
20
41.101
0
VERTEX
8
CONTOURS_MINEURES
10
90.004
20
41.101
0
VERTEX
8
CONTOURS_MINEURES
10
90.869
20
41.129
0
VERTEX
8
CONTOURS_MINEURES
10
92.996
20
41.234
0
VERTEX
8
CONTOURS_MINEURES
10
95.598
20
41.596
0
VERTEX
8
CONTOURS_MINEURES
10
95.998
20
41.687
0
VERTEX
8
CONTOURS_MINEURES
10
96.307
20
41.687
0
VERTEX
8
CONTOURS_MINEURES
10
99.000
20
41.687
0
VERTEX
8
CONTOURS_MINEURES
10
101.363
20
41.357
0
VERTEX
8
CONTOURS_MINEURES
10
102.003
20
41.252
0
VERTEX
8
CONTOURS_MINEURES
10
103.460
20
40.454
0
VERTEX
8
CONTOURS_MINEURES
10
103.811
20
39.000
0
VERTEX
8
CONTOURS_MINEURES
10
103.811
20
37.809
0
VERTEX
8
CONTOURS_MINEURES
10
103.811
20
36.004
0
VERTEX
8
CONTOURS_MINEURES
10
105.005
20
34.976
0
VERTEX
8
CONTOURS_MINEURES
10
106.974
20
34.976
0
VERTEX
8
CONTOURS_MINEURES
10
107.997
20
34.976
0
VERTEX
8
CONTOURS_MINEURES
10
109.821
20
32.997
0
VERTEX
8
CONTOURS_MINEURES
10
110.999
20
32.415
0
VERTEX
8
CONTOURS_MINEURES
10
113.488
20
32.486
0
VERTEX
8
CONTOURS_MINEURES
10
114.001
20
32.272
0
VERTEX
8
CONTOURS_MINEURES
10
116.276
20
32.272
0
VERTEX
8
CONTOURS_MINEURES
10
117.003
20
32.272
0
VERTEX
8
CONTOURS_MINEURES
10
119.827
20
32.829
0
VERTEX
8
CONTOURS_MINEURES
10
119.995
20
32.739
0
VERTEX
8
CONTOURS_MINEURES
10
122.739
20
32.739
0
VERTEX
8
CONTOURS_MINEURES
10
122.997
20
32.739
0
VERTEX
8
CONTOURS_MINEURES
10
123.340
20
32.656
0
VERTEX
8
CONTOURS_MINEURES
10
125.999
20
32.046
0
VERTEX
8
CONTOURS_MINEURES
10
127.102
20
31.897
0
VERTEX
8
CONTOURS_MINEURES
10
129.002
20
31.710
0
VERTEX
8
CONTOURS_MINEURES
10
130.291
20
31.710
0
VERTEX
8
CONTOURS_MINEURES
10
132.004
20
31.710
0
VERTEX
8
CONTOURS_MINEURES
10
133.455
20
31.455
0
VERTEX
8
CONTOURS_MINEURES
10
134.996
20
31.089
0
VERTEX
8
CONTOURS_MINEURES
10
135.800
20
30.804
0
VERTEX
8
CONTOURS_MINEURES
10
137.998
20
30.457
0
VERTEX
8
CONTOURS_MINEURES
10
138.454
20
30.457
0
VERTEX
8
CONTOURS_MINEURES
10
141.000
20
30.457
0
VERTEX
8
CONTOURS_MINEURES
10
141.484
20
30.484
0
VERTEX
8
CONTOURS_MINEURES
10
144.002
20
30.433
0
VERTEX
8
CONTOURS_MINEURES
10
146.722
20
30.284
0
VERTEX
8
CONTOURS_MINEURES
10
147.005
20
30.292
0
VERTEX
8
CONTOURS_MINEURES
10
147.295
20
30.292
0
VERTEX
8
CONTOURS_MINEURES
10
149.996
20
30.292
0
VERTEX
8
CONTOURS_MINEURES
10
150.461
20
30.002
0
VERTEX
8
CONTOURS_MINEURES
10
150.461
20
29.536
0
VERTEX
8
CONTOURS_MINEURES
10
150.461
20
26.995
0
VERTEX
8
CONTOURS_MINEURES
10
151.927
20
25.926
0
VERTEX
8
CONTOURS_MINEURES
10
152.999
20
25.813
0
VERTEX
8
CONTOURS_MINEURES
10
154.392
20
25.605
0
VERTEX
8
CONTOURS_MINEURES
10
156.001
20
25.453
0
VERTEX
8
CONTOURS_MINEURES
10
157.458
20
25.453
0
VERTEX
8
CONTOURS_MINEURES
10
159.003
20
25.453
0
VERTEX
8
CONTOURS_MINEURES
10
160.061
20
25.058
0
VERTEX
8
CONTOURS_MINEURES
10
161.995
20
24.759
0
VERTEX
8
CONTOURS_MINEURES
10
164.483
20
24.512
0
VERTEX
8
CONTOURS_MINEURES
10
164.997
20
24.677
0
VERTEX
8
CONTOURS_MINEURES
10
165.676
20
24.677
0
VERTEX
8
CONTOURS_MINEURES
10
167.999
20
24.677
0
VERTEX
8
CONTOURS_MINEURES
10
170.908
20
23.999
0
VERTEX
8
CONTOURS_MINEURES
10
170.908
20
21.097
0
VERTEX
8
CONTOURS_MINEURES
10
170.908
20
21.004
0
VERTEX
8
CONTOURS_MINEURES
10
170.983
20
20.985
0
VERTEX
8
CONTOURS_MINEURES
10
171.002
20
20.979
0
VERTEX
8
CONTOURS_MINEURES
10
171.036
20
20.969
0
VERTEX
8
CONTOURS_MINEURES
10
174.004
20
20.127
0
SEQEND
0
POLYLINE
8
CONTOURS_MINEURES
66
1
70
0
0
VERTEX
8
CONTOURS_MINEURES
10
0.000
20
34.911
0
VERTEX
8
CONTOURS_MINEURES
10
1.092
20
34.911
0
VERTEX
8
CONTOURS_MINEURES
10
3.002
20
34.911
0
VERTEX
8
CONTOURS_MINEURES
10
4.754
20
34.751
0
VERTEX
8
CONTOURS_MINEURES
10
6.005
20
34.777
0
VERTEX
8
CONTOURS_MINEURES
10
8.606
20
33.389
0
VERTEX
8
CONTOURS_MINEURES
10
8.996
20
33.279
0
VERTEX
8
CONTOURS_MINEURES
10
9.278
20
33.279
0
VERTEX
8
CONTOURS_MINEURES
10
11.999
20
33.279
0
VERTEX
8
CONTOURS_MINEURES
10
14.719
20
33.279
0
VERTEX
8
CONTOURS_MINEURES
10
15.001
20
33.331
0
VERTEX
8
CONTOURS_MINEURES
10
15.282
20
33.279
0
VERTEX
8
CONTOURS_MINEURES
10
16.502
20
32.997
0
VERTEX
8
CONTOURS_MINEURES
10
17.503
20
32.498
0
VERTEX
8
CONTOURS_MINEURES
10
18.003
20
32.767
0
VERTEX
8
CONTOURS_MINEURES
10
18.233
20
32.767
0
VERTEX
8
CONTOURS_MINEURES
10
20.995
20
32.767
0
VERTEX
8
CONTOURS_MINEURES
10
23.397
20
32.398
0
VERTEX
8
CONTOURS_MINEURES
10
23.997
20
32.719
0
VERTEX
8
CONTOURS_MINEURES
10
24.158
20
32.837
0
VERTEX
8
CONTOURS_MINEURES
10
24.998
20
32.997
0
VERTEX
8
CONTOURS_MINEURES
10
26.068
20
33.930
0
VERTEX
8
CONTOURS_MINEURES
10
26.999
20
33.870
0
VERTEX
8
CONTOURS_MINEURES
10
29.130
20
33.870
0
VERTEX
8
CONTOURS_MINEURES
10
30.002
20
33.870
0
VERTEX
8
CONTOURS_MINEURES
10
31.288
20
34.286
0
VERTEX
8
CONTOURS_MINEURES
10
33.004
20
35.310
0
VERTEX
8
CONTOURS_MINEURES
10
33.370
20
35.636
0
VERTEX
8
CONTOURS_MINEURES
10
33.974
20
36.004
0
VERTEX
8
CONTOURS_MINEURES
10
33.974
20
38.028
0
VERTEX
8
CONTOURS_MINEURES
10
33.974
20
39.000
0
VERTEX
8
CONTOURS_MINEURES
10
35.995
20
40.920
0
VERTEX
8
CONTOURS_MINEURES
10
37.920
20
40.920
0
VERTEX
8
CONTOURS_MINEURES
10
38.998
20
40.920
0
VERTEX
8
CONTOURS_MINEURES
10
40.723
20
40.721
0
VERTEX
8
CONTOURS_MINEURES
10
42.000
20
41.285
0
VERTEX
8
CONTOURS_MINEURES
10
42.712
20
41.285
0
VERTEX
8
CONTOURS_MINEURES
10
45.002
20
41.285
0
VERTEX
8
CONTOURS_MINEURES
10
45.552
20
41.447
0
VERTEX
8
CONTOURS_MINEURES
10
47.851
20
41.995
0
VERTEX
8
CONTOURS_MINEURES
10
48.004
20
42.135
0
VERTEX
8
CONTOURS_MINEURES
10
48.978
20
44.024
0
VERTEX
8
CONTOURS_MINEURES
10
50.996
20
44.899
0
VERTEX
8
CONTOURS_MINEURES
10
53.896
20
44.899
0
VERTEX
8
CONTOURS_MINEURES
10
53.998
20
44.899
0
VERTEX
8
CONTOURS_MINEURES
10
54.065
20
44.936
0
VERTEX
8
CONTOURS_MINEURES
10
54.359
20
45.002
0
VERTEX
8
CONTOURS_MINEURES
10
54.359
20
47.638
0
VERTEX
8
CONTOURS_MINEURES
10
54.359
20
47.998
0
VERTEX
8
CONTOURS_MINEURES
10
57.001
20
49.468
0
VERTEX
8
CONTOURS_MINEURES
10
59.558
20
51.004
0
VERTEX
8
CONTOURS_MINEURES
10
60.003
20
51.137
0
VERTEX
8
CONTOURS_MINEURES
10
62.872
20
51.137
0
VERTEX
8
CONTOURS_MINEURES
10
63.005
20
51.137
0
VERTEX
8
CONTOURS_MINEURES
10
63.149
20
51.149
0
VERTEX
8
CONTOURS_MINEURES
10
65.997
20
51.609
0
VERTEX
8
CONTOURS_MINEURES
10
68.999
20
51.004
0
VERTEX
8
CONTOURS_MINEURES
10
72.001
20
51.004
0
VERTEX
8
CONTOURS_MINEURES
10
75.004
20
50.897
0
VERTEX
8
CONTOURS_MINEURES
10
76.873
20
51.004
0
VERTEX
8
CONTOURS_MINEURES
10
77.995
20
51.062
0
VERTEX
8
CONTOURS_MINEURES
10
80.940
20
51.062
0
VERTEX
8
CONTOURS_MINEURES
10
80.997
20
51.062
0
VERTEX
8
CONTOURS_MINEURES
10
83.415
20
51.588
0
VERTEX
8
CONTOURS_MINEURES
10
84.000
20
51.724
0
VERTEX
8
CONTOURS_MINEURES
10
84.835
20
51.838
0
VERTEX
8
CONTOURS_MINEURES
10
87.002
20
52.246
0
VERTEX
8
CONTOURS_MINEURES
10
88.759
20
52.246
0
VERTEX
8
CONTOURS_MINEURES
10
90.004
20
52.246
0
VERTEX
8
CONTOURS_MINEURES
10
91.208
20
52.210
0
VERTEX
8
CONTOURS_MINEURES
10
92.996
20
52.310
0
VERTEX
8
CONTOURS_MINEURES
10
94.645
20
52.650
0
VERTEX
8
CONTOURS_MINEURES
10
95.998
20
52.779
0
VERTEX
8
CONTOURS_MINEURES
10
97.222
20
52.779
0
VERTEX
8
CONTOURS_MINEURES
10
99.000
20
52.779
0
VERTEX
8
CONTOURS_MINEURES
10
101.148
20
53.147
0
VERTEX
8
CONTOURS_MINEURES
10
102.003
20
53.134
0
VERTEX
8
CONTOURS_MINEURES
10
103.800
20
52.798
0
VERTEX
8
CONTOURS_MINEURES
10
105.005
20
52.616
0
VERTEX
8
CONTOURS_MINEURES
10
106.387
20
52.616
0
VERTEX
8
CONTOURS_MINEURES
10
107.997
20
52.616
0
VERTEX
8
CONTOURS_MINEURES
10
109.792
20
52.208
0
VERTEX
8
CONTOURS_MINEURES
10
110.999
20
51.857
0
VERTEX
8
CONTOURS_MINEURES
10
113.889
20
51.116
0
VERTEX
8
CONTOURS_MINEURES
10
114.001
20
51.106
0
VERTEX
8
CONTOURS_MINEURES
10
114.103
20
51.106
0
VERTEX
8
CONTOURS_MINEURES
10
117.003
20
51.106
0
VERTEX
8
CONTOURS_MINEURES
10
117.084
20
51.085
0
VERTEX
8
CONTOURS_MINEURES
10
117.502
20
51.004
0
VERTEX
8
CONTOURS_MINEURES
10
119.283
20
50.288
0
VERTEX
8
CONTOURS_MINEURES
10
119.995
20
50.093
0
VERTEX
8
CONTOURS_MINEURES
10
120.905
20
50.093
0
VERTEX
8
CONTOURS_MINEURES
10
122.997
20
50.093
0
VERTEX
8
CONTOURS_MINEURES
10
124.020
20
49.022
0
VERTEX
8
CONTOURS_MINEURES
10
125.999
20
48.636
0
VERTEX
8
CONTOURS_MINEURES
10
127.441
20
47.998
0
VERTEX
8
CONTOURS_MINEURES
10
127.441
20
46.440
0
VERTEX
8
CONTOURS_MINEURES
10
127.441
20
45.002
0
VERTEX
8
CONTOURS_MINEURES
10
129.002
20
43.554
0
VERTEX
8
CONTOURS_MINEURES
10
130.558
20
43.554
0
VERTEX
8
CONTOURS_MINEURES
10
132.004
20
43.554
0
VERTEX
8
CONTOURS_MINEURES
10
132.720
20
42.715
0
VERTEX
8
CONTOURS_MINEURES
10
134.996
20
42.185
0
VERTEX
8
CONTOURS_MINEURES
10
135.146
20
42.146
0
VERTEX
8
CONTOURS_MINEURES
10
136.497
20
41.995
0
VERTEX
8
CONTOURS_MINEURES
10
137.498
20
41.496
0
VERTEX
8
CONTOURS_MINEURES
10
137.998
20
40.613
0
VERTEX
8
CONTOURS_MINEURES
10
139.615
20
40.613
0
VERTEX
8
CONTOURS_MINEURES
10
141.000
20
40.613
0
VERTEX
8
CONTOURS_MINEURES
10
141.808
20
39.806
0
VERTEX
8
CONTOURS_MINEURES
10
143.627
20
39.000
0
VERTEX
8
CONTOURS_MINEURES
10
143.627
20
38.625
0
VERTEX
8
CONTOURS_MINEURES
10
143.627
20
36.004
0
VERTEX
8
CONTOURS_MINEURES
10
144.002
20
35.964
0
VERTEX
8
CONTOURS_MINEURES
10
146.683
20
35.682
0
VERTEX
8
CONTOURS_MINEURES
10
147.005
20
35.696
0
VERTEX
8
CONTOURS_MINEURES
10
147.311
20
35.696
0
VERTEX
8
CONTOURS_MINEURES
10
149.996
20
35.696
0
VERTEX
8
CONTOURS_MINEURES
10
152.277
20
35.281
0
VERTEX
8
CONTOURS_MINEURES
10
152.999
20
34.405
0
VERTEX
8
CONTOURS_MINEURES
10
155.539
20
32.997
0
VERTEX
8
CONTOURS_MINEURES
10
156.001
20
32.895
0
VERTEX
8
CONTOURS_MINEURES
10
156.103
20
32.895
0
VERTEX
8
CONTOURS_MINEURES
10
159.003
20
32.895
0
VERTEX
8
CONTOURS_MINEURES
10
161.319
20
32.320
0
VERTEX
8
CONTOURS_MINEURES
10
161.995
20
31.806
0
VERTEX
8
CONTOURS_MINEURES
10
162.775
20
32.219
0
VERTEX
8
CONTOURS_MINEURES
10
164.472
20
32.997
0
VERTEX
8
CONTOURS_MINEURES
10
164.997
20
33.311
0
VERTEX
8
CONTOURS_MINEURES
10
167.686
20
33.311
0
VERTEX
8
CONTOURS_MINEURES
10
167.999
20
33.311
0
VERTEX
8
CONTOURS_MINEURES
10
168.225
20
33.224
0
VERTEX
8
CONTOURS_MINEURES
10
168.656
20
32.997
0
VERTEX
8
CONTOURS_MINEURES
10
171.002
20
32.256
0
VERTEX
8
CONTOURS_MINEURES
10
172.789
20
31.214
0
VERTEX
8
CONTOURS_MINEURES
10
174.004
20
30.419
0
SEQEND
0
POLYLINE
8
CONTOURS_MINEURES
66
1
70
0
0
VERTEX
8
CONTOURS_MINEURES
10
0.000
20
48.754
0
VERTEX
8
CONTOURS_MINEURES
10
0.756
20
48.754
0
VERTEX
8
CONTOURS_MINEURES
10
3.002
20
48.754
0
VERTEX
8
CONTOURS_MINEURES
10
6.005
20
47.998
0
VERTEX
8
CONTOURS_MINEURES
10
6.005
20
45.002
0
VERTEX
8
CONTOURS_MINEURES
10
8.996
20
44.453
0
VERTEX
8
CONTOURS_MINEURES
10
11.450
20
44.453
0
VERTEX
8
CONTOURS_MINEURES
10
11.999
20
44.453
0
VERTEX
8
CONTOURS_MINEURES
10
12.537
20
44.462
0
VERTEX
8
CONTOURS_MINEURES
10
15.001
20
44.825
0
VERTEX
8
CONTOURS_MINEURES
10
15.274
20
45.002
0
VERTEX
8
CONTOURS_MINEURES
10
15.274
20
47.725
0
VERTEX
8
CONTOURS_MINEURES
10
15.274
20
47.998
0
VERTEX
8
CONTOURS_MINEURES
10
17.574
20
50.575
0
VERTEX
8
CONTOURS_MINEURES
10
17.972
20
51.004
0
VERTEX
8
CONTOURS_MINEURES
10
17.989
20
51.019
0
VERTEX
8
CONTOURS_MINEURES
10
18.003
20
51.022
0
VERTEX
8
CONTOURS_MINEURES
10
20.977
20
51.022
0
VERTEX
8
CONTOURS_MINEURES
10
20.995
20
51.022
0
VERTEX
8
CONTOURS_MINEURES
10
23.188
20
51.812
0
VERTEX
8
CONTOURS_MINEURES
10
23.997
20
52.048
0
VERTEX
8
CONTOURS_MINEURES
10
26.999
20
54.000
0
VERTEX
8
CONTOURS_MINEURES
10
30.002
20
54.000
0
VERTEX
8
CONTOURS_MINEURES
10
30.002
20
56.996
0
VERTEX
8
CONTOURS_MINEURES
10
33.004
20
58.263
0
VERTEX
8
CONTOURS_MINEURES
10
35.420
20
59.424
0
VERTEX
8
CONTOURS_MINEURES
10
35.995
20
59.568
0
VERTEX
8
CONTOURS_MINEURES
10
36.429
20
59.568
0
VERTEX
8
CONTOURS_MINEURES
10
38.998
20
59.568
0
VERTEX
8
CONTOURS_MINEURES
10
39.881
20
60.002
0
VERTEX
8
CONTOURS_MINEURES
10
39.881
20
60.883
0
VERTEX
8
CONTOURS_MINEURES
10
39.881
20
62.998
0
VERTEX
8
CONTOURS_MINEURES
10
41.502
20
63.496
0
VERTEX
8
CONTOURS_MINEURES
10
42.000
20
63.631
0
VERTEX
8
CONTOURS_MINEURES
10
42.632
20
63.631
0
VERTEX
8
CONTOURS_MINEURES
10
45.002
20
63.631
0
VERTEX
8
CONTOURS_MINEURES
10
47.037
20
63.967
0
VERTEX
8
CONTOURS_MINEURES
10
48.004
20
64.264
0
VERTEX
8
CONTOURS_MINEURES
10
50.109
20
63.890
0
VERTEX
8
CONTOURS_MINEURES
10
50.996
20
64.082
0
VERTEX
8
CONTOURS_MINEURES
10
52.078
20
64.082
0
VERTEX
8
CONTOURS_MINEURES
10
53.998
20
64.082
0
VERTEX
8
CONTOURS_MINEURES
10
56.705
20
63.294
0
VERTEX
8
CONTOURS_MINEURES
10
57.001
20
63.422
0
VERTEX
8
CONTOURS_MINEURES
10
57.538
20
63.536
0
VERTEX
8
CONTOURS_MINEURES
10
60.003
20
63.911
0
VERTEX
8
CONTOURS_MINEURES
10
62.093
20
63.911
0
VERTEX
8
CONTOURS_MINEURES
10
63.005
20
63.911
0
VERTEX
8
CONTOURS_MINEURES
10
63.589
20
63.585
0
VERTEX
8
CONTOURS_MINEURES
10
65.321
20
62.998
0
VERTEX
8
CONTOURS_MINEURES
10
65.321
20
60.679
0
VERTEX
8
CONTOURS_MINEURES
10
65.321
20
60.002
0
VERTEX
8
CONTOURS_MINEURES
10
65.824
20
59.828
0
VERTEX
8
CONTOURS_MINEURES
10
65.997
20
59.838
0
VERTEX
8
CONTOURS_MINEURES
10
66.184
20
59.814
0
VERTEX
8
CONTOURS_MINEURES
10
68.999
20
58.932
0
VERTEX
8
CONTOURS_MINEURES
10
70.933
20
58.932
0
VERTEX
8
CONTOURS_MINEURES
10
72.001
20
58.932
0
VERTEX
8
CONTOURS_MINEURES
10
73.236
20
58.765
0
VERTEX
8
CONTOURS_MINEURES
10
75.004
20
58.398
0
VERTEX
8
CONTOURS_MINEURES
10
76.431
20
58.430
0
VERTEX
8
CONTOURS_MINEURES
10
77.995
20
58.020
0
VERTEX
8
CONTOURS_MINEURES
10
79.975
20
58.020
0
VERTEX
8
CONTOURS_MINEURES
10
80.997
20
58.020
0
VERTEX
8
CONTOURS_MINEURES
10
82.467
20
58.468
0
VERTEX
8
CONTOURS_MINEURES
10
84.000
20
58.886
0
VERTEX
8
CONTOURS_MINEURES
10
86.076
20
59.075
0
VERTEX
8
CONTOURS_MINEURES
10
87.002
20
59.213
0
VERTEX
8
CONTOURS_MINEURES
10
87.790
20
59.213
0
VERTEX
8
CONTOURS_MINEURES
10
90.004
20
59.213
0
VERTEX
8
CONTOURS_MINEURES
10
92.092
20
59.094
0
VERTEX
8
CONTOURS_MINEURES
10
92.996
20
59.063
0
VERTEX
8
CONTOURS_MINEURES
10
93.742
20
59.255
0
VERTEX
8
CONTOURS_MINEURES
10
95.998
20
59.061
0
VERTEX
8
CONTOURS_MINEURES
10
98.060
20
59.061
0
VERTEX
8
CONTOURS_MINEURES
10
99.000
20
59.061
0
VERTEX
8
CONTOURS_MINEURES
10
99.828
20
59.174
0
VERTEX
8
CONTOURS_MINEURES
10
102.003
20
59.145
0
VERTEX
8
CONTOURS_MINEURES
10
104.344
20
59.340
0
VERTEX
8
CONTOURS_MINEURES
10
105.005
20
59.255
0
VERTEX
8
CONTOURS_MINEURES
10
105.749
20
59.255
0
VERTEX
8
CONTOURS_MINEURES
10
107.997
20
59.255
0
VERTEX
8
CONTOURS_MINEURES
10
108.962
20
59.035
0
VERTEX
8
CONTOURS_MINEURES
10
110.999
20
59.094
0
VERTEX
8
CONTOURS_MINEURES
10
113.050
20
59.049
0
VERTEX
8
CONTOURS_MINEURES
10
114.001
20
58.969
0
VERTEX
8
CONTOURS_MINEURES
10
115.972
20
58.969
0
VERTEX
8
CONTOURS_MINEURES
10
117.003
20
58.969
0
VERTEX
8
CONTOURS_MINEURES
10
118.336
20
58.663
0
VERTEX
8
CONTOURS_MINEURES
10
119.995
20
58.096
0
VERTEX
8
CONTOURS_MINEURES
10
121.094
20
58.096
0
VERTEX
8
CONTOURS_MINEURES
10
122.997
20
58.096
0
VERTEX
8
CONTOURS_MINEURES
10
125.300
20
56.996
0
VERTEX
8
CONTOURS_MINEURES
10
125.300
20
56.298
0
VERTEX
8
CONTOURS_MINEURES
10
125.300
20
54.000
0
VERTEX
8
CONTOURS_MINEURES
10
125.999
20
53.602
0
VERTEX
8
CONTOURS_MINEURES
10
127.625
20
52.626
0
VERTEX
8
CONTOURS_MINEURES
10
129.002
20
51.127
0
VERTEX
8
CONTOURS_MINEURES
10
131.881
20
51.127
0
VERTEX
8
CONTOURS_MINEURES
10
132.004
20
51.127
0
VERTEX
8
CONTOURS_MINEURES
10
132.074
20
51.074
0
VERTEX
8
CONTOURS_MINEURES
10
132.203
20
51.004
0
VERTEX
8
CONTOURS_MINEURES
10
134.996
20
49.996
0
VERTEX
8
CONTOURS_MINEURES
10
136.968
20
49.972
0
VERTEX
8
CONTOURS_MINEURES
10
137.998
20
49.793
0
VERTEX
8
CONTOURS_MINEURES
10
139.791
20
49.793
0
VERTEX
8
CONTOURS_MINEURES
10
141.000
20
49.793
0
VERTEX
8
CONTOURS_MINEURES
10
142.514
20
49.488
0
VERTEX
8
CONTOURS_MINEURES
10
144.002
20
49.249
0
VERTEX
8
CONTOURS_MINEURES
10
145.059
20
49.055
0
VERTEX
8
CONTOURS_MINEURES
10
147.005
20
48.613
0
VERTEX
8
CONTOURS_MINEURES
10
147.617
20
48.613
0
VERTEX
8
CONTOURS_MINEURES
10
149.996
20
48.613
0
VERTEX
8
CONTOURS_MINEURES
10
150.497
20
48.499
0
VERTEX
8
CONTOURS_MINEURES
10
152.999
20
48.041
0
VERTEX
8
CONTOURS_MINEURES
10
153.460
20
47.998
0
VERTEX
8
CONTOURS_MINEURES
10
153.460
20
45.463
0
VERTEX
8
CONTOURS_MINEURES
10
153.460
20
45.002
0
VERTEX
8
CONTOURS_MINEURES
10
155.792
20
44.793
0
VERTEX
8
CONTOURS_MINEURES
10
156.001
20
44.771
0
VERTEX
8
CONTOURS_MINEURES
10
156.232
20
44.771
0
VERTEX
8
CONTOURS_MINEURES
10
159.003
20
44.771
0
VERTEX
8
CONTOURS_MINEURES
10
161.584
20
44.589
0
VERTEX
8
CONTOURS_MINEURES
10
161.995
20
44.541
0
VERTEX
8
CONTOURS_MINEURES
10
162.553
20
44.443
0
VERTEX
8
CONTOURS_MINEURES
10
164.997
20
44.107
0
VERTEX
8
CONTOURS_MINEURES
10
165.891
20
44.107
0
VERTEX
8
CONTOURS_MINEURES
10
167.999
20
44.107
0
VERTEX
8
CONTOURS_MINEURES
10
170.001
20
44.000
0
VERTEX
8
CONTOURS_MINEURES
10
171.002
20
43.877
0
VERTEX
8
CONTOURS_MINEURES
10
172.317
20
43.685
0
VERTEX
8
CONTOURS_MINEURES
10
174.004
20
43.565
0
SEQEND
0
POLYLINE
8
CONTOURS_MINEURES
66
1
70
0
0
VERTEX
8
CONTOURS_MINEURES
10
0.000
20
52.387
0
VERTEX
8
CONTOURS_MINEURES
10
1.617
20
52.387
0
VERTEX
8
CONTOURS_MINEURES
10
3.002
20
52.387
0
VERTEX
8
CONTOURS_MINEURES
10
4.283
20
52.282
0
VERTEX
8
CONTOURS_MINEURES
10
6.005
20
51.936
0
VERTEX
8
CONTOURS_MINEURES
10
8.200
20
51.802
0
VERTEX
8
CONTOURS_MINEURES
10
8.996
20
52.003
0
VERTEX
8
CONTOURS_MINEURES
10
10.998
20
52.003
0
VERTEX
8
CONTOURS_MINEURES
10
11.999
20
52.003
0
VERTEX
8
CONTOURS_MINEURES
10
14.460
20
53.461
0
VERTEX
8
CONTOURS_MINEURES
10
15.001
20
53.765
0
VERTEX
8
CONTOURS_MINEURES
10
15.130
20
53.872
0
VERTEX
8
CONTOURS_MINEURES
10
15.660
20
54.000
0
VERTEX
8
CONTOURS_MINEURES
10
15.660
20
54.657
0
VERTEX
8
CONTOURS_MINEURES
10
15.660
20
56.996
0
VERTEX
8
CONTOURS_MINEURES
10
18.003
20
57.572
0
VERTEX
8
CONTOURS_MINEURES
10
20.421
20
57.572
0
VERTEX
8
CONTOURS_MINEURES
10
20.995
20
57.572
0
VERTEX
8
CONTOURS_MINEURES
10
22.845
20
58.149
0
VERTEX
8
CONTOURS_MINEURES
10
23.997
20
58.297
0
VERTEX
8
CONTOURS_MINEURES
10
25.761
20
58.762
0
VERTEX
8
CONTOURS_MINEURES
10
26.999
20
59.317
0
VERTEX
8
CONTOURS_MINEURES
10
27.683
20
59.317
0
VERTEX
8
CONTOURS_MINEURES
10
30.002
20
59.317
0
VERTEX
8
CONTOURS_MINEURES
10
31.542
20
60.002
0
VERTEX
8
CONTOURS_MINEURES
10
31.542
20
61.539
0
VERTEX
8
CONTOURS_MINEURES
10
31.542
20
62.998
0
VERTEX
8
CONTOURS_MINEURES
10
33.004
20
63.788
0
VERTEX
8
CONTOURS_MINEURES
10
34.418
20
64.583
0
VERTEX
8
CONTOURS_MINEURES
10
35.995
20
64.897
0
VERTEX
8
CONTOURS_MINEURES
10
37.892
20
64.897
0
VERTEX
8
CONTOURS_MINEURES
10
38.998
20
64.897
0
VERTEX
8
CONTOURS_MINEURES
10
39.844
20
65.157
0
VERTEX
8
CONTOURS_MINEURES
10
42.000
20
65.741
0
VERTEX
8
CONTOURS_MINEURES
10
44.739
20
65.741
0
VERTEX
8
CONTOURS_MINEURES
10
45.002
20
65.741
0
VERTEX
8
CONTOURS_MINEURES
10
45.228
20
65.778
0
VERTEX
8
CONTOURS_MINEURES
10
45.964
20
66.005
0
VERTEX
8
CONTOURS_MINEURES
10
48.004
20
66.997
0
VERTEX
8
CONTOURS_MINEURES
10
49.529
20
67.531
0
VERTEX
8
CONTOURS_MINEURES
10
50.996
20
67.917
0
VERTEX
8
CONTOURS_MINEURES
10
52.082
20
67.917
0
VERTEX
8
CONTOURS_MINEURES
10
53.998
20
67.917
0
VERTEX
8
CONTOURS_MINEURES
10
56.013
20
69.000
0
VERTEX
8
CONTOURS_MINEURES
10
56.013
20
69.986
0
VERTEX
8
CONTOURS_MINEURES
10
56.013
20
71.996
0
VERTEX
8
CONTOURS_MINEURES
10
57.001
20
72.755
0
VERTEX
8
CONTOURS_MINEURES
10
58.746
20
73.744
0
VERTEX
8
CONTOURS_MINEURES
10
60.003
20
74.366
0
VERTEX
8
CONTOURS_MINEURES
10
62.369
20
74.366
0
VERTEX
8
CONTOURS_MINEURES
10
63.005
20
74.366
0
VERTEX
8
CONTOURS_MINEURES
10
63.984
20
74.018
0
VERTEX
8
CONTOURS_MINEURES
10
65.997
20
73.914
0
VERTEX
8
CONTOURS_MINEURES
10
67.680
20
73.681
0
VERTEX
8
CONTOURS_MINEURES
10
68.999
20
72.190
0
VERTEX
8
CONTOURS_MINEURES
10
71.808
20
72.190
0
VERTEX
8
CONTOURS_MINEURES
10
72.001
20
72.190
0
VERTEX
8
CONTOURS_MINEURES
10
72.183
20
72.178
0
VERTEX
8
CONTOURS_MINEURES
10
72.463
20
71.996
0
VERTEX
8
CONTOURS_MINEURES
10
72.463
20
71.535
0
VERTEX
8
CONTOURS_MINEURES
10
72.463
20
69.000
0
VERTEX
8
CONTOURS_MINEURES
10
75.004
20
67.567
0
VERTEX
8
CONTOURS_MINEURES
10
76.222
20
67.780
0
VERTEX
8
CONTOURS_MINEURES
10
77.995
20
67.234
0
VERTEX
8
CONTOURS_MINEURES
10
79.766
20
67.234
0
VERTEX
8
CONTOURS_MINEURES
10
80.997
20
67.234
0
VERTEX
8
CONTOURS_MINEURES
10
82.532
20
69.000
0
VERTEX
8
CONTOURS_MINEURES
10
82.532
20
70.465
0
VERTEX
8
CONTOURS_MINEURES
10
82.532
20
71.996
0
VERTEX
8
CONTOURS_MINEURES
10
84.000
20
74.540
0
VERTEX
8
CONTOURS_MINEURES
10
84.187
20
74.815
0
VERTEX
8
CONTOURS_MINEURES
10
84.300
20
75.002
0
VERTEX
8
CONTOURS_MINEURES
10
87.002
20
75.879
0
VERTEX
8
CONTOURS_MINEURES
10
89.126
20
75.879
0
VERTEX
8
CONTOURS_MINEURES
10
90.004
20
75.879
0
VERTEX
8
CONTOURS_MINEURES
10
92.138
20
75.862
0
VERTEX
8
CONTOURS_MINEURES
10
92.996
20
76.142
0
VERTEX
8
CONTOURS_MINEURES
10
94.638
20
76.641
0
VERTEX
8
CONTOURS_MINEURES
10
95.998
20
76.447
0
VERTEX
8
CONTOURS_MINEURES
10
97.553
20
76.447
0
VERTEX
8
CONTOURS_MINEURES
10
99.000
20
76.447
0
VERTEX
8
CONTOURS_MINEURES
10
99.803
20
75.803
0
VERTEX
8
CONTOURS_MINEURES
10
101.134
20
75.002
0
VERTEX
8
CONTOURS_MINEURES
10
101.380
20
74.378
0
VERTEX
8
CONTOURS_MINEURES
10
102.003
20
73.349
0
VERTEX
8
CONTOURS_MINEURES
10
102.262
20
72.256
0
VERTEX
8
CONTOURS_MINEURES
10
102.775
20
71.996
0
VERTEX
8
CONTOURS_MINEURES
10
102.775
20
69.770
0
VERTEX
8
CONTOURS_MINEURES
10
102.775
20
69.000
0
VERTEX
8
CONTOURS_MINEURES
10
105.005
20
68.115
0
VERTEX
8
CONTOURS_MINEURES
10
107.113
20
68.115
0
VERTEX
8
CONTOURS_MINEURES
10
107.997
20
68.115
0
VERTEX
8
CONTOURS_MINEURES
10
109.821
20
67.825
0
VERTEX
8
CONTOURS_MINEURES
10
110.999
20
67.880
0
VERTEX
8
CONTOURS_MINEURES
10
112.519
20
67.483
0
VERTEX
8
CONTOURS_MINEURES
10
114.001
20
67.197
0
VERTEX
8
CONTOURS_MINEURES
10
115.196
20
67.197
0
VERTEX
8
CONTOURS_MINEURES
10
117.003
20
67.197
0
VERTEX
8
CONTOURS_MINEURES
10
119.050
20
66.005
0
VERTEX
8
CONTOURS_MINEURES
10
119.684
20
65.692
0
VERTEX
8
CONTOURS_MINEURES
10
119.995
20
65.557
0
VERTEX
8
CONTOURS_MINEURES
10
120.442
20
65.557
0
VERTEX
8
CONTOURS_MINEURES
10
122.997
20
65.557
0
VERTEX
8
CONTOURS_MINEURES
10
124.172
20
64.828
0
VERTEX
8
CONTOURS_MINEURES
10
125.999
20
63.800
0
VERTEX
8
CONTOURS_MINEURES
10
127.077
20
62.998
0
VERTEX
8
CONTOURS_MINEURES
10
127.077
20
61.078
0
VERTEX
8
CONTOURS_MINEURES
10
127.077
20
60.002
0
VERTEX
8
CONTOURS_MINEURES
10
128.357
20
59.357
0
VERTEX
8
CONTOURS_MINEURES
10
129.002
20
59.039
0
VERTEX
8
CONTOURS_MINEURES
10
131.042
20
59.039
0
VERTEX
8
CONTOURS_MINEURES
10
132.004
20
59.039
0
VERTEX
8
CONTOURS_MINEURES
10
133.828
20
58.169
0
VERTEX
8
CONTOURS_MINEURES
10
134.996
20
57.646
0
VERTEX
8
CONTOURS_MINEURES
10
137.947
20
57.046
0
VERTEX
8
CONTOURS_MINEURES
10
137.998
20
57.033
0
VERTEX
8
CONTOURS_MINEURES
10
138.035
20
57.033
0
VERTEX
8
CONTOURS_MINEURES
10
141.000
20
57.033
0
VERTEX
8
CONTOURS_MINEURES
10
141.172
20
56.996
0
VERTEX
8
CONTOURS_MINEURES
10
141.172
20
54.171
0
VERTEX
8
CONTOURS_MINEURES
10
141.172
20
54.000
0
VERTEX
8
CONTOURS_MINEURES
10
143.436
20
53.435
0
VERTEX
8
CONTOURS_MINEURES
10
144.002
20
53.354
0
VERTEX
8
CONTOURS_MINEURES
10
144.776
20
53.228
0
VERTEX
8
CONTOURS_MINEURES
10
147.005
20
53.066
0
VERTEX
8
CONTOURS_MINEURES
10
147.937
20
53.066
0
VERTEX
8
CONTOURS_MINEURES
10
149.996
20
53.066
0
VERTEX
8
CONTOURS_MINEURES
10
151.192
20
52.807
0
VERTEX
8
CONTOURS_MINEURES
10
152.999
20
53.012
0
VERTEX
8
CONTOURS_MINEURES
10
154.696
20
52.697
0
VERTEX
8
CONTOURS_MINEURES
10
156.001
20
52.456
0
VERTEX
8
CONTOURS_MINEURES
10
157.456
20
52.456
0
VERTEX
8
CONTOURS_MINEURES
10
159.003
20
52.456
0
VERTEX
8
CONTOURS_MINEURES
10
160.205
20
52.208
0
VERTEX
8
CONTOURS_MINEURES
10
161.995
20
52.022
0
VERTEX
8
CONTOURS_MINEURES
10
162.968
20
51.976
0
VERTEX
8
CONTOURS_MINEURES
10
164.997
20
51.684
0
VERTEX
8
CONTOURS_MINEURES
10
165.678
20
51.684
0
VERTEX
8
CONTOURS_MINEURES
10
167.999
20
51.684
0
VERTEX
8
CONTOURS_MINEURES
10
170.345
20
51.660
0
VERTEX
8
CONTOURS_MINEURES
10
171.002
20
51.666
0
VERTEX
8
CONTOURS_MINEURES
10
171.679
20
51.681
0
VERTEX
8
CONTOURS_MINEURES
10
174.004
20
51.630
0
SEQEND
0
POLYLINE
8
CONTOURS_MINEURES
66
1
70
0
0
VERTEX
8
CONTOURS_MINEURES
10
0.000
20
59.469
0
VERTEX
8
CONTOURS_MINEURES
10
0.533
20
59.469
0
VERTEX
8
CONTOURS_MINEURES
10
3.002
20
59.469
0
VERTEX
8
CONTOURS_MINEURES
10
5.947
20
59.944
0
VERTEX
8
CONTOURS_MINEURES
10
6.005
20
59.935
0
VERTEX
8
CONTOURS_MINEURES
10
6.166
20
60.002
0
VERTEX
8
CONTOURS_MINEURES
10
6.166
20
62.836
0
VERTEX
8
CONTOURS_MINEURES
10
6.166
20
62.998
0
VERTEX
8
CONTOURS_MINEURES
10
8.996
20
64.383
0
VERTEX
8
CONTOURS_MINEURES
10
10.616
20
64.383
0
VERTEX
8
CONTOURS_MINEURES
10
11.999
20
64.383
0
VERTEX
8
CONTOURS_MINEURES
10
13.255
20
64.747
0
VERTEX
8
CONTOURS_MINEURES
10
15.001
20
65.346
0
VERTEX
8
CONTOURS_MINEURES
10
17.555
20
65.556
0
VERTEX
8
CONTOURS_MINEURES
10
18.003
20
65.604
0
VERTEX
8
CONTOURS_MINEURES
10
18.402
20
65.604
0
VERTEX
8
CONTOURS_MINEURES
10
20.995
20
65.604
0
VERTEX
8
CONTOURS_MINEURES
10
21.295
20
65.704
0
VERTEX
8
CONTOURS_MINEURES
10
23.997
20
65.846
0
VERTEX
8
CONTOURS_MINEURES
10
24.880
20
66.005
0
VERTEX
8
CONTOURS_MINEURES
10
25.970
20
67.032
0
VERTEX
8
CONTOURS_MINEURES
10
26.999
20
67.387
0
VERTEX
8
CONTOURS_MINEURES
10
28.385
20
67.387
0
VERTEX
8
CONTOURS_MINEURES
10
30.002
20
67.387
0
VERTEX
8
CONTOURS_MINEURES
10
30.739
20
68.264
0
VERTEX
8
CONTOURS_MINEURES
10
32.003
20
69.000
0
VERTEX
8
CONTOURS_MINEURES
10
32.003
20
70.997
0
VERTEX
8
CONTOURS_MINEURES
10
32.003
20
71.996
0
VERTEX
8
CONTOURS_MINEURES
10
33.004
20
72.952
0
VERTEX
8
CONTOURS_MINEURES
10
34.154
20
73.846
0
VERTEX
8
CONTOURS_MINEURES
10
35.995
20
75.002
0
VERTEX
8
CONTOURS_MINEURES
10
38.998
20
75.002
0
VERTEX
8
CONTOURS_MINEURES
10
42.000
20
77.000
0
VERTEX
8
CONTOURS_MINEURES
10
43.001
20
77.000
0
VERTEX
8
CONTOURS_MINEURES
10
45.002
20
77.000
0
VERTEX
8
CONTOURS_MINEURES
10
47.804
20
77.798
0
VERTEX
8
CONTOURS_MINEURES
10
48.004
20
77.891
0
VERTEX
8
CONTOURS_MINEURES
10
48.064
20
77.938
0
VERTEX
8
CONTOURS_MINEURES
10
48.191
20
77.998
0
VERTEX
8
CONTOURS_MINEURES
10
48.191
20
78.186
0
VERTEX
8
CONTOURS_MINEURES
10
48.191
20
81.005
0
VERTEX
8
CONTOURS_MINEURES
10
50.996
20
82.610
0
VERTEX
8
CONTOURS_MINEURES
10
52.390
20
82.610
0
VERTEX
8
CONTOURS_MINEURES
10
53.998
20
82.610
0
VERTEX
8
CONTOURS_MINEURES
10
54.977
20
81.982
0
VERTEX
8
CONTOURS_MINEURES
10
57.001
20
82.779
0
VERTEX
8
CONTOURS_MINEURES
10
58.032
20
82.034
0
VERTEX
8
CONTOURS_MINEURES
10
60.003
20
82.248
0
VERTEX
8
CONTOURS_MINEURES
10
61.759
20
82.248
0
VERTEX
8
CONTOURS_MINEURES
10
63.005
20
82.248
0
VERTEX
8
CONTOURS_MINEURES
10
64.676
20
82.328
0
VERTEX
8
CONTOURS_MINEURES
10
65.997
20
82.247
0
VERTEX
8
CONTOURS_MINEURES
10
67.395
20
82.400
0
VERTEX
8
CONTOURS_MINEURES
10
68.999
20
82.618
0
VERTEX
8
CONTOURS_MINEURES
10
70.616
20
82.618
0
VERTEX
8
CONTOURS_MINEURES
10
72.001
20
82.618
0
VERTEX
8
CONTOURS_MINEURES
10
73.787
20
82.787
0
VERTEX
8
CONTOURS_MINEURES
10
75.004
20
82.847
0
VERTEX
8
CONTOURS_MINEURES
10
76.357
20
82.645
0
VERTEX
8
CONTOURS_MINEURES
10
77.995
20
82.383
0
VERTEX
8
CONTOURS_MINEURES
10
79.377
20
82.383
0
VERTEX
8
CONTOURS_MINEURES
10
80.997
20
82.383
0
VERTEX
8
CONTOURS_MINEURES
10
82.659
20
82.342
0
VERTEX
8
CONTOURS_MINEURES
10
84.000
20
82.053
0
VERTEX
8
CONTOURS_MINEURES
10
85.040
20
82.042
0
VERTEX
8
CONTOURS_MINEURES
10
87.002
20
82.375
0
VERTEX
8
CONTOURS_MINEURES
10
88.631
20
82.375
0
VERTEX
8
CONTOURS_MINEURES
10
90.004
20
82.375
0
VERTEX
8
CONTOURS_MINEURES
10
91.367
20
82.370
0
VERTEX
8
CONTOURS_MINEURES
10
92.996
20
82.546
0
VERTEX
8
CONTOURS_MINEURES
10
94.807
20
82.812
0
VERTEX
8
CONTOURS_MINEURES
10
95.998
20
82.938
0
VERTEX
8
CONTOURS_MINEURES
10
97.063
20
82.938
0
VERTEX
8
CONTOURS_MINEURES
10
99.000
20
82.938
0
VERTEX
8
CONTOURS_MINEURES
10
100.861
20
82.861
0
VERTEX
8
CONTOURS_MINEURES
10
102.003
20
82.639
0
VERTEX
8
CONTOURS_MINEURES
10
104.784
20
81.005
0
VERTEX
8
CONTOURS_MINEURES
10
104.784
20
80.784
0
VERTEX
8
CONTOURS_MINEURES
10
104.784
20
77.998
0
VERTEX
8
CONTOURS_MINEURES
10
105.005
20
77.738
0
VERTEX
8
CONTOURS_MINEURES
10
105.265
20
77.738
0
VERTEX
8
CONTOURS_MINEURES
10
107.997
20
77.738
0
VERTEX
8
CONTOURS_MINEURES
10
109.907
20
76.909
0
VERTEX
8
CONTOURS_MINEURES
10
110.999
20
76.421
0
VERTEX
8
CONTOURS_MINEURES
10
112.072
20
76.074
0
VERTEX
8
CONTOURS_MINEURES
10
114.001
20
75.616
0
VERTEX
8
CONTOURS_MINEURES
10
116.388
20
75.616
0
VERTEX
8
CONTOURS_MINEURES
10
117.003
20
75.616
0
VERTEX
8
CONTOURS_MINEURES
10
117.459
20
75.459
0
VERTEX
8
CONTOURS_MINEURES
10
118.972
20
75.002
0
VERTEX
8
CONTOURS_MINEURES
10
119.995
20
74.660
0
VERTEX
8
CONTOURS_MINEURES
10
122.655
20
74.660
0
VERTEX
8
CONTOURS_MINEURES
10
122.997
20
74.660
0
VERTEX
8
CONTOURS_MINEURES
10
123.547
20
74.452
0
VERTEX
8
CONTOURS_MINEURES
10
125.999
20
73.425
0
VERTEX
8
CONTOURS_MINEURES
10
128.208
20
72.791
0
VERTEX
8
CONTOURS_MINEURES
10
129.002
20
72.630
0
VERTEX
8
CONTOURS_MINEURES
10
129.635
20
72.630
0
VERTEX
8
CONTOURS_MINEURES
10
132.004
20
72.630
0
VERTEX
8
CONTOURS_MINEURES
10
134.298
20
71.996
0
VERTEX
8
CONTOURS_MINEURES
10
134.298
20
69.699
0
VERTEX
8
CONTOURS_MINEURES
10
134.298
20
69.000
0
VERTEX
8
CONTOURS_MINEURES
10
134.720
20
68.724
0
VERTEX
8
CONTOURS_MINEURES
10
134.996
20
68.301
0
VERTEX
8
CONTOURS_MINEURES
10
137.223
20
66.005
0
VERTEX
8
CONTOURS_MINEURES
10
137.737
20
65.743
0
VERTEX
8
CONTOURS_MINEURES
10
137.998
20
65.514
0
VERTEX
8
CONTOURS_MINEURES
10
138.488
20
65.514
0
VERTEX
8
CONTOURS_MINEURES
10
141.000
20
65.514
0
VERTEX
8
CONTOURS_MINEURES
10
142.599
20
64.599
0
VERTEX
8
CONTOURS_MINEURES
10
144.002
20
63.427
0
VERTEX
8
CONTOURS_MINEURES
10
145.899
20
64.106
0
VERTEX
8
CONTOURS_MINEURES
10
147.005
20
63.913
0
VERTEX
8
CONTOURS_MINEURES
10
149.086
20
63.913
0
VERTEX
8
CONTOURS_MINEURES
10
149.996
20
63.913
0
VERTEX
8
CONTOURS_MINEURES
10
150.689
20
63.692
0
VERTEX
8
CONTOURS_MINEURES
10
152.999
20
64.334
0
VERTEX
8
CONTOURS_MINEURES
10
154.344
20
64.345
0
VERTEX
8
CONTOURS_MINEURES
10
156.001
20
64.331
0
VERTEX
8
CONTOURS_MINEURES
10
157.671
20
64.331
0
VERTEX
8
CONTOURS_MINEURES
10
159.003
20
64.331
0
VERTEX
8
CONTOURS_MINEURES
10
160.601
20
64.603
0
VERTEX
8
CONTOURS_MINEURES
10
161.995
20
64.485
0
VERTEX
8
CONTOURS_MINEURES
10
163.774
20
64.223
0
VERTEX
8
CONTOURS_MINEURES
10
164.997
20
64.223
0
VERTEX
8
CONTOURS_MINEURES
10
166.220
20
64.223
0
VERTEX
8
CONTOURS_MINEURES
10
167.999
20
64.223
0
VERTEX
8
CONTOURS_MINEURES
10
169.895
20
64.106
0
VERTEX
8
CONTOURS_MINEURES
10
171.002
20
63.815
0
VERTEX
8
CONTOURS_MINEURES
10
171.674
20
63.671
0
VERTEX
8
CONTOURS_MINEURES
10
174.004
20
63.795
0
SEQEND
0
POLYLINE
8
CONTOURS_MINEURES
66
1
70
0
0
VERTEX
8
CONTOURS_MINEURES
10
0.000
20
68.563
0
VERTEX
8
CONTOURS_MINEURES
10
0.438
20
68.563
0
VERTEX
8
CONTOURS_MINEURES
10
3.002
20
68.563
0
VERTEX
8
CONTOURS_MINEURES
10
3.318
20
68.685
0
VERTEX
8
CONTOURS_MINEURES
10
4.053
20
69.000
0
VERTEX
8
CONTOURS_MINEURES
10
4.053
20
70.947
0
VERTEX
8
CONTOURS_MINEURES
10
4.053
20
71.996
0
VERTEX
8
CONTOURS_MINEURES
10
6.005
20
72.778
0
VERTEX
8
CONTOURS_MINEURES
10
7.521
20
73.479
0
VERTEX
8
CONTOURS_MINEURES
10
8.996
20
74.182
0
VERTEX
8
CONTOURS_MINEURES
10
9.815
20
74.182
0
VERTEX
8
CONTOURS_MINEURES
10
11.999
20
74.182
0
VERTEX
8
CONTOURS_MINEURES
10
12.975
20
75.002
0
VERTEX
8
CONTOURS_MINEURES
10
14.062
20
75.940
0
VERTEX
8
CONTOURS_MINEURES
10
15.001
20
76.218
0
VERTEX
8
CONTOURS_MINEURES
10
17.437
20
77.434
0
VERTEX
8
CONTOURS_MINEURES
10
18.003
20
77.752
0
VERTEX
8
CONTOURS_MINEURES
10
18.249
20
77.752
0
VERTEX
8
CONTOURS_MINEURES
10
20.995
20
77.752
0
VERTEX
8
CONTOURS_MINEURES
10
21.381
20
77.998
0
VERTEX
8
CONTOURS_MINEURES
10
21.381
20
78.385
0
VERTEX
8
CONTOURS_MINEURES
10
21.381
20
81.005
0
VERTEX
8
CONTOURS_MINEURES
10
23.086
20
81.914
0
VERTEX
8
CONTOURS_MINEURES
10
23.997
20
82.231
0
VERTEX
8
CONTOURS_MINEURES
10
26.821
20
84.000
0
VERTEX
8
CONTOURS_MINEURES
10
26.821
20
84.178
0
VERTEX
8
CONTOURS_MINEURES
10
26.821
20
86.996
0
VERTEX
8
CONTOURS_MINEURES
10
26.999
20
87.112
0
VERTEX
8
CONTOURS_MINEURES
10
29.886
20
87.112
0
VERTEX
8
CONTOURS_MINEURES
10
30.002
20
87.112
0
VERTEX
8
CONTOURS_MINEURES
10
31.202
20
88.199
0
VERTEX
8
CONTOURS_MINEURES
10
33.004
20
89.767
0
VERTEX
8
CONTOURS_MINEURES
10
33.200
20
89.806
0
VERTEX
8
CONTOURS_MINEURES
10
33.284
20
90.003
0
VERTEX
8
CONTOURS_MINEURES
10
35.110
20
90.889
0
VERTEX
8
CONTOURS_MINEURES
10
35.995
20
91.209
0
VERTEX
8
CONTOURS_MINEURES
10
37.788
20
91.209
0
VERTEX
8
CONTOURS_MINEURES
10
38.998
20
91.209
0
VERTEX
8
CONTOURS_MINEURES
10
40.688
20
91.690
0
VERTEX
8
CONTOURS_MINEURES
10
42.000
20
91.889
0
VERTEX
8
CONTOURS_MINEURES
10
43.890
20
91.889
0
VERTEX
8
CONTOURS_MINEURES
10
45.002
20
91.889
0
VERTEX
8
CONTOURS_MINEURES
10
46.050
20
91.953
0
VERTEX
8
CONTOURS_MINEURES
10
48.004
20
92.260
0
VERTEX
8
CONTOURS_MINEURES
10
50.876
20
92.879
0
VERTEX
8
CONTOURS_MINEURES
10
50.996
20
92.872
0
VERTEX
8
CONTOURS_MINEURES
10
51.123
20
92.872
0
VERTEX
8
CONTOURS_MINEURES
10
53.998
20
92.872
0
VERTEX
8
CONTOURS_MINEURES
10
55.753
20
91.754
0
VERTEX
8
CONTOURS_MINEURES
10
57.001
20
91.097
0
VERTEX
8
CONTOURS_MINEURES
10
59.218
20
90.003
0
VERTEX
8
CONTOURS_MINEURES
10
59.643
20
89.643
0
VERTEX
8
CONTOURS_MINEURES
10
60.003
20
89.498
0
VERTEX
8
CONTOURS_MINEURES
10
62.501
20
89.498
0
VERTEX
8
CONTOURS_MINEURES
10
63.005
20
89.498
0
VERTEX
8
CONTOURS_MINEURES
10
63.547
20
89.458
0
VERTEX
8
CONTOURS_MINEURES
10
65.997
20
89.262
0
VERTEX
8
CONTOURS_MINEURES
10
68.835
20
89.839
0
VERTEX
8
CONTOURS_MINEURES
10
68.999
20
89.862
0
VERTEX
8
CONTOURS_MINEURES
10
69.140
20
89.862
0
VERTEX
8
CONTOURS_MINEURES
10
72.001
20
89.862
0
VERTEX
8
CONTOURS_MINEURES
10
72.126
20
89.877
0
VERTEX
8
CONTOURS_MINEURES
10
75.004
20
89.918
0
VERTEX
8
CONTOURS_MINEURES
10
75.107
20
89.899
0
VERTEX
8
CONTOURS_MINEURES
10
77.995
20
89.436
0
VERTEX
8
CONTOURS_MINEURES
10
78.561
20
89.436
0
VERTEX
8
CONTOURS_MINEURES
10
80.997
20
89.436
0
VERTEX
8
CONTOURS_MINEURES
10
82.815
20
88.816
0
VERTEX
8
CONTOURS_MINEURES
10
84.000
20
88.446
0
VERTEX
8
CONTOURS_MINEURES
10
85.576
20
88.424
0
VERTEX
8
CONTOURS_MINEURES
10
87.002
20
88.206
0
VERTEX
8
CONTOURS_MINEURES
10
88.210
20
88.206
0
VERTEX
8
CONTOURS_MINEURES
10
90.004
20
88.206
0
VERTEX
8
CONTOURS_MINEURES
10
91.803
20
88.195
0
VERTEX
8
CONTOURS_MINEURES
10
92.996
20
88.225
0
VERTEX
8
CONTOURS_MINEURES
10
94.247
20
88.249
0
VERTEX
8
CONTOURS_MINEURES
10
95.998
20
88.614
0
VERTEX
8
CONTOURS_MINEURES
10
97.385
20
88.614
0
VERTEX
8
CONTOURS_MINEURES
10
99.000
20
88.614
0
VERTEX
8
CONTOURS_MINEURES
10
100.469
20
88.532
0
VERTEX
8
CONTOURS_MINEURES
10
102.003
20
88.515
0
VERTEX
8
CONTOURS_MINEURES
10
103.259
20
88.254
0
VERTEX
8
CONTOURS_MINEURES
10
105.005
20
87.522
0
VERTEX
8
CONTOURS_MINEURES
10
105.528
20
87.522
0
VERTEX
8
CONTOURS_MINEURES
10
107.997
20
87.522
0
VERTEX
8
CONTOURS_MINEURES
10
110.209
20
86.996
0
VERTEX
8
CONTOURS_MINEURES
10
110.209
20
86.208
0
VERTEX
8
CONTOURS_MINEURES
10
110.209
20
84.000
0
VERTEX
8
CONTOURS_MINEURES
10
110.999
20
83.801
0
VERTEX
8
CONTOURS_MINEURES
10
113.259
20
83.260
0
VERTEX
8
CONTOURS_MINEURES
10
114.001
20
83.076
0
VERTEX
8
CONTOURS_MINEURES
10
116.076
20
83.076
0
VERTEX
8
CONTOURS_MINEURES
10
117.003
20
83.076
0
VERTEX
8
CONTOURS_MINEURES
10
118.289
20
82.713
0
VERTEX
8
CONTOURS_MINEURES
10
119.995
20
82.223
0
VERTEX
8
CONTOURS_MINEURES
10
121.216
20
82.223
0
VERTEX
8
CONTOURS_MINEURES
10
122.997
20
82.223
0
VERTEX
8
CONTOURS_MINEURES
10
123.913
20
81.918
0
VERTEX
8
CONTOURS_MINEURES
10
125.999
20
81.331
0
VERTEX
8
CONTOURS_MINEURES
10
127.458
20
81.005
0
VERTEX
8
CONTOURS_MINEURES
10
127.458
20
79.459
0
VERTEX
8
CONTOURS_MINEURES
10
127.458
20
77.998
0
VERTEX
8
CONTOURS_MINEURES
10
129.002
20
77.590
0
VERTEX
8
CONTOURS_MINEURES
10
129.411
20
77.590
0
VERTEX
8
CONTOURS_MINEURES
10
132.004
20
77.590
0
VERTEX
8
CONTOURS_MINEURES
10
134.512
20
77.514
0
VERTEX
8
CONTOURS_MINEURES
10
134.996
20
77.553
0
VERTEX
8
CONTOURS_MINEURES
10
137.331
20
77.332
0
VERTEX
8
CONTOURS_MINEURES
10
137.998
20
77.367
0
VERTEX
8
CONTOURS_MINEURES
10
138.630
20
77.367
0
VERTEX
8
CONTOURS_MINEURES
10
141.000
20
77.367
0
VERTEX
8
CONTOURS_MINEURES
10
142.507
20
76.506
0
VERTEX
8
CONTOURS_MINEURES
10
144.002
20
76.319
0
VERTEX
8
CONTOURS_MINEURES
10
146.598
20
75.408
0
VERTEX
8
CONTOURS_MINEURES
10
147.005
20
75.241
0
VERTEX
8
CONTOURS_MINEURES
10
147.243
20
75.241
0
VERTEX
8
CONTOURS_MINEURES
10
149.996
20
75.241
0
VERTEX
8
CONTOURS_MINEURES
10
150.417
20
75.002
0
VERTEX
8
CONTOURS_MINEURES
10
151.532
20
73.533
0
VERTEX
8
CONTOURS_MINEURES
10
152.999
20
72.532
0
VERTEX
8
CONTOURS_MINEURES
10
153.347
20
72.345
0
VERTEX
8
CONTOURS_MINEURES
10
154.615
20
71.996
0
VERTEX
8
CONTOURS_MINEURES
10
154.615
20
70.613
0
VERTEX
8
CONTOURS_MINEURES
10
154.615
20
69.000
0
VERTEX
8
CONTOURS_MINEURES
10
156.001
20
68.536
0
VERTEX
8
CONTOURS_MINEURES
10
158.538
20
68.536
0
VERTEX
8
CONTOURS_MINEURES
10
159.003
20
68.536
0
VERTEX
8
CONTOURS_MINEURES
10
159.411
20
68.592
0
VERTEX
8
CONTOURS_MINEURES
10
161.995
20
68.815
0
VERTEX
8
CONTOURS_MINEURES
10
164.777
20
68.781
0
VERTEX
8
CONTOURS_MINEURES
10
164.997
20
68.781
0
VERTEX
8
CONTOURS_MINEURES
10
165.217
20
68.781
0
VERTEX
8
CONTOURS_MINEURES
10
167.999
20
68.781
0
VERTEX
8
CONTOURS_MINEURES
10
170.328
20
68.328
0
VERTEX
8
CONTOURS_MINEURES
10
171.002
20
68.220
0
VERTEX
8
CONTOURS_MINEURES
10
171.900
20
68.104
0
VERTEX
8
CONTOURS_MINEURES
10
174.004
20
67.646
0
SEQEND
0
POLYLINE
8
CONTOURS_MINEURES
66
1
70
0
0
VERTEX
8
CONTOURS_MINEURES
10
76.091
20
99.001
0
VERTEX
8
CONTOURS_MINEURES
10
77.995
20
98.564
0
VERTEX
8
CONTOURS_MINEURES
10
80.560
20
98.564
0
VERTEX
8
CONTOURS_MINEURES
10
80.997
20
98.564
0
VERTEX
8
CONTOURS_MINEURES
10
82.719
20
97.723
0
VERTEX
8
CONTOURS_MINEURES
10
84.000
20
96.970
0
VERTEX
8
CONTOURS_MINEURES
10
85.892
20
96.005
0
VERTEX
8
CONTOURS_MINEURES
10
85.892
20
94.110
0
VERTEX
8
CONTOURS_MINEURES
10
85.892
20
92.998
0
VERTEX
8
CONTOURS_MINEURES
10
86.648
20
92.645
0
VERTEX
8
CONTOURS_MINEURES
10
87.002
20
92.570
0
VERTEX
8
CONTOURS_MINEURES
10
87.431
20
92.570
0
VERTEX
8
CONTOURS_MINEURES
10
90.004
20
92.570
0
VERTEX
8
CONTOURS_MINEURES
10
92.407
20
92.409
0
VERTEX
8
CONTOURS_MINEURES
10
92.996
20
92.427
0
VERTEX
8
CONTOURS_MINEURES
10
93.556
20
92.440
0
VERTEX
8
CONTOURS_MINEURES
10
95.998
20
92.386
0
VERTEX
8
CONTOURS_MINEURES
10
98.387
20
92.386
0
VERTEX
8
CONTOURS_MINEURES
10
99.000
20
92.386
0
VERTEX
8
CONTOURS_MINEURES
10
99.623
20
92.377
0
VERTEX
8
CONTOURS_MINEURES
10
102.003
20
92.006
0
VERTEX
8
CONTOURS_MINEURES
10
103.318
20
91.686
0
VERTEX
8
CONTOURS_MINEURES
10
105.005
20
91.230
0
VERTEX
8
CONTOURS_MINEURES
10
106.230
20
91.230
0
VERTEX
8
CONTOURS_MINEURES
10
107.997
20
91.230
0
VERTEX
8
CONTOURS_MINEURES
10
110.533
20
90.468
0
VERTEX
8
CONTOURS_MINEURES
10
110.999
20
90.309
0
VERTEX
8
CONTOURS_MINEURES
10
111.224
20
90.227
0
VERTEX
8
CONTOURS_MINEURES
10
112.174
20
90.003
0
VERTEX
8
CONTOURS_MINEURES
10
113.615
20
89.617
0
VERTEX
8
CONTOURS_MINEURES
10
114.001
20
89.540
0
VERTEX
8
CONTOURS_MINEURES
10
114.463
20
89.540
0
VERTEX
8
CONTOURS_MINEURES
10
117.003
20
89.540
0
VERTEX
8
CONTOURS_MINEURES
10
118.939
20
88.942
0
VERTEX
8
CONTOURS_MINEURES
10
119.995
20
88.708
0
VERTEX
8
CONTOURS_MINEURES
10
121.288
20
88.708
0
VERTEX
8
CONTOURS_MINEURES
10
122.997
20
88.708
0
VERTEX
8
CONTOURS_MINEURES
10
124.341
20
88.342
0
VERTEX
8
CONTOURS_MINEURES
10
125.999
20
87.922
0
VERTEX
8
CONTOURS_MINEURES
10
126.766
20
87.763
0
VERTEX
8
CONTOURS_MINEURES
10
129.002
20
87.186
0
VERTEX
8
CONTOURS_MINEURES
10
131.814
20
87.186
0
VERTEX
8
CONTOURS_MINEURES
10
132.004
20
87.186
0
VERTEX
8
CONTOURS_MINEURES
10
132.163
20
87.156
0
VERTEX
8
CONTOURS_MINEURES
10
133.385
20
86.996
0
VERTEX
8
CONTOURS_MINEURES
10
133.385
20
85.383
0
VERTEX
8
CONTOURS_MINEURES
10
133.385
20
84.000
0
VERTEX
8
CONTOURS_MINEURES
10
134.996
20
83.782
0
VERTEX
8
CONTOURS_MINEURES
10
137.553
20
83.556
0
VERTEX
8
CONTOURS_MINEURES
10
137.998
20
83.524
0
VERTEX
8
CONTOURS_MINEURES
10
140.523
20
83.524
0
VERTEX
8
CONTOURS_MINEURES
10
141.000
20
83.524
0
VERTEX
8
CONTOURS_MINEURES
10
141.960
20
83.043
0
VERTEX
8
CONTOURS_MINEURES
10
144.002
20
82.289
0
VERTEX
8
CONTOURS_MINEURES
10
144.765
20
81.765
0
VERTEX
8
CONTOURS_MINEURES
10
145.820
20
81.005
0
VERTEX
8
CONTOURS_MINEURES
10
145.820
20
79.819
0
VERTEX
8
CONTOURS_MINEURES
10
145.820
20
77.998
0
VERTEX
8
CONTOURS_MINEURES
10
147.005
20
77.510
0
VERTEX
8
CONTOURS_MINEURES
10
149.509
20
77.510
0
VERTEX
8
CONTOURS_MINEURES
10
149.996
20
77.510
0
VERTEX
8
CONTOURS_MINEURES
10
151.129
20
76.868
0
VERTEX
8
CONTOURS_MINEURES
10
152.999
20
75.961
0
VERTEX
8
CONTOURS_MINEURES
10
155.536
20
75.002
0
VERTEX
8
CONTOURS_MINEURES
10
155.839
20
74.840
0
VERTEX
8
CONTOURS_MINEURES
10
156.001
20
74.796
0
VERTEX
8
CONTOURS_MINEURES
10
156.207
20
74.796
0
VERTEX
8
CONTOURS_MINEURES
10
159.003
20
74.796
0
VERTEX
8
CONTOURS_MINEURES
10
161.676
20
74.682
0
VERTEX
8
CONTOURS_MINEURES
10
161.995
20
74.703
0
VERTEX
8
CONTOURS_MINEURES
10
162.296
20
74.700
0
VERTEX
8
CONTOURS_MINEURES
10
164.997
20
74.589
0
VERTEX
8
CONTOURS_MINEURES
10
167.586
20
74.589
0
VERTEX
8
CONTOURS_MINEURES
10
167.999
20
74.589
0
VERTEX
8
CONTOURS_MINEURES
10
168.484
20
74.518
0
VERTEX
8
CONTOURS_MINEURES
10
171.002
20
74.229
0
VERTEX
8
CONTOURS_MINEURES
10
173.038
20
74.035
0
VERTEX
8
CONTOURS_MINEURES
10
174.004
20
73.825
0
SEQEND
0
POLYLINE
8
CONTOURS_MINEURES
66
1
70
0
0
VERTEX
8
CONTOURS_MINEURES
10
0.000
20
77.210
0
VERTEX
8
CONTOURS_MINEURES
10
0.790
20
77.210
0
VERTEX
8
CONTOURS_MINEURES
10
3.002
20
77.210
0
VERTEX
8
CONTOURS_MINEURES
10
3.580
20
77.422
0
VERTEX
8
CONTOURS_MINEURES
10
4.670
20
77.998
0
VERTEX
8
CONTOURS_MINEURES
10
4.670
20
79.334
0
VERTEX
8
CONTOURS_MINEURES
10
4.670
20
81.005
0
VERTEX
8
CONTOURS_MINEURES
10
5.581
20
81.428
0
VERTEX
8
CONTOURS_MINEURES
10
6.005
20
81.630
0
VERTEX
8
CONTOURS_MINEURES
10
7.625
20
82.378
0
VERTEX
8
CONTOURS_MINEURES
10
8.996
20
83.083
0
VERTEX
8
CONTOURS_MINEURES
10
11.079
20
83.083
0
VERTEX
8
CONTOURS_MINEURES
10
11.999
20
83.083
0
VERTEX
8
CONTOURS_MINEURES
10
12.670
20
83.330
0
VERTEX
8
CONTOURS_MINEURES
10
15.001
20
83.566
0
VERTEX
8
CONTOURS_MINEURES
10
15.291
20
83.711
0
VERTEX
8
CONTOURS_MINEURES
10
18.003
20
83.969
0
VERTEX
8
CONTOURS_MINEURES
10
20.963
20
83.969
0
VERTEX
8
CONTOURS_MINEURES
10
20.995
20
83.969
0
VERTEX
8
CONTOURS_MINEURES
10
21.015
20
83.980
0
VERTEX
8
CONTOURS_MINEURES
10
21.075
20
84.000
0
VERTEX
8
CONTOURS_MINEURES
10
21.075
20
84.080
0
VERTEX
8
CONTOURS_MINEURES
10
21.075
20
86.996
0
VERTEX
8
CONTOURS_MINEURES
10
22.825
20
88.170
0
VERTEX
8
CONTOURS_MINEURES
10
23.997
20
88.489
0
VERTEX
8
CONTOURS_MINEURES
10
26.999
20
90.003
0
VERTEX
8
CONTOURS_MINEURES
10
30.002
20
90.003
0
VERTEX
8
CONTOURS_MINEURES
10
33.004
20
92.136
0
VERTEX
8
CONTOURS_MINEURES
10
33.584
20
92.418
0
VERTEX
8
CONTOURS_MINEURES
10
35.190
20
92.998
0
VERTEX
8
CONTOURS_MINEURES
10
35.190
20
95.196
0
VERTEX
8
CONTOURS_MINEURES
10
35.190
20
96.005
0
VERTEX
8
CONTOURS_MINEURES
10
35.663
20
96.338
0
VERTEX
8
CONTOURS_MINEURES
10
35.995
20
96.401
0
VERTEX
8
CONTOURS_MINEURES
10
36.392
20
96.401
0
VERTEX
8
CONTOURS_MINEURES
10
38.998
20
96.401
0
VERTEX
8
CONTOURS_MINEURES
10
40.877
20
97.126
0
VERTEX
8
CONTOURS_MINEURES
10
42.000
20
97.282
0
VERTEX
8
CONTOURS_MINEURES
10
43.280
20
97.282
0
VERTEX
8
CONTOURS_MINEURES
10
45.002
20
97.282
0
VERTEX
8
CONTOURS_MINEURES
10
46.519
20
97.488
0
VERTEX
8
CONTOURS_MINEURES
10
48.004
20
97.579
0
VERTEX
8
CONTOURS_MINEURES
10
49.214
20
97.790
0
VERTEX
8
CONTOURS_MINEURES
10
50.996
20
97.882
0
VERTEX
8
CONTOURS_MINEURES
10
52.877
20
97.882
0
VERTEX
8
CONTOURS_MINEURES
10
53.998
20
97.882
0
VERTEX
8
CONTOURS_MINEURES
10
55.708
20
97.295
0
VERTEX
8
CONTOURS_MINEURES
10
57.001
20
97.270
0
VERTEX
8
CONTOURS_MINEURES
10
58.802
20
97.802
0
VERTEX
8
CONTOURS_MINEURES
10
60.003
20
97.723
0
VERTEX
8
CONTOURS_MINEURES
10
61.725
20
97.723
0
VERTEX
8
CONTOURS_MINEURES
10
63.005
20
97.723
0
VERTEX
8
CONTOURS_MINEURES
10
65.946
20
99.001
0
SEQEND
0
POLYLINE
8
CONTOURS_MINEURES
66
1
70
0
0
VERTEX
8
CONTOURS_MINEURES
10
102.234
20
99.001
0
VERTEX
8
CONTOURS_MINEURES
10
105.005
20
97.891
0
VERTEX
8
CONTOURS_MINEURES
10
106.889
20
97.891
0
VERTEX
8
CONTOURS_MINEURES
10
107.997
20
97.891
0
VERTEX
8
CONTOURS_MINEURES
10
109.763
20
97.239
0
VERTEX
8
CONTOURS_MINEURES
10
110.999
20
96.712
0
VERTEX
8
CONTOURS_MINEURES
10
111.484
20
96.489
0
VERTEX
8
CONTOURS_MINEURES
10
112.969
20
96.005
0
VERTEX
8
CONTOURS_MINEURES
10
112.969
20
94.032
0
VERTEX
8
CONTOURS_MINEURES
10
112.969
20
92.998
0
VERTEX
8
CONTOURS_MINEURES
10
113.726
20
92.724
0
VERTEX
8
CONTOURS_MINEURES
10
114.001
20
92.659
0
VERTEX
8
CONTOURS_MINEURES
10
114.342
20
92.659
0
VERTEX
8
CONTOURS_MINEURES
10
117.003
20
92.659
0
VERTEX
8
CONTOURS_MINEURES
10
119.021
20
92.023
0
VERTEX
8
CONTOURS_MINEURES
10
119.995
20
91.749
0
VERTEX
8
CONTOURS_MINEURES
10
121.247
20
91.749
0
VERTEX
8
CONTOURS_MINEURES
10
122.997
20
91.749
0
VERTEX
8
CONTOURS_MINEURES
10
124.704
20
91.295
0
VERTEX
8
CONTOURS_MINEURES
10
125.999
20
90.910
0
VERTEX
8
CONTOURS_MINEURES
10
126.759
20
90.761
0
VERTEX
8
CONTOURS_MINEURES
10
129.002
20
90.320
0
VERTEX
8
CONTOURS_MINEURES
10
131.686
20
90.320
0
VERTEX
8
CONTOURS_MINEURES
10
132.004
20
90.320
0
VERTEX
8
CONTOURS_MINEURES
10
132.273
20
90.272
0
VERTEX
8
CONTOURS_MINEURES
10
133.832
20
90.003
0
VERTEX
8
CONTOURS_MINEURES
10
134.810
20
89.817
0
VERTEX
8
CONTOURS_MINEURES
10
134.996
20
89.792
0
VERTEX
8
CONTOURS_MINEURES
10
137.874
20
89.879
0
VERTEX
8
CONTOURS_MINEURES
10
137.998
20
89.867
0
VERTEX
8
CONTOURS_MINEURES
10
138.134
20
89.867
0
VERTEX
8
CONTOURS_MINEURES
10
141.000
20
89.867
0
VERTEX
8
CONTOURS_MINEURES
10
141.200
20
89.802
0
VERTEX
8
CONTOURS_MINEURES
10
144.002
20
89.924
0
VERTEX
8
CONTOURS_MINEURES
10
145.538
20
88.534
0
VERTEX
8
CONTOURS_MINEURES
10
147.005
20
87.156
0
VERTEX
8
CONTOURS_MINEURES
10
149.837
20
87.156
0
VERTEX
8
CONTOURS_MINEURES
10
149.996
20
87.156
0
VERTEX
8
CONTOURS_MINEURES
10
150.092
20
87.092
0
VERTEX
8
CONTOURS_MINEURES
10
150.192
20
86.996
0
VERTEX
8
CONTOURS_MINEURES
10
150.192
20
86.801
0
VERTEX
8
CONTOURS_MINEURES
10
150.192
20
84.000
0
VERTEX
8
CONTOURS_MINEURES
10
151.936
20
82.940
0
VERTEX
8
CONTOURS_MINEURES
10
152.999
20
82.092
0
VERTEX
8
CONTOURS_MINEURES
10
155.723
20
81.005
0
VERTEX
8
CONTOURS_MINEURES
10
155.723
20
80.726
0
VERTEX
8
CONTOURS_MINEURES
10
155.723
20
77.998
0
VERTEX
8
CONTOURS_MINEURES
10
156.001
20
77.920
0
VERTEX
8
CONTOURS_MINEURES
10
158.925
20
77.920
0
VERTEX
8
CONTOURS_MINEURES
10
159.003
20
77.920
0
VERTEX
8
CONTOURS_MINEURES
10
159.084
20
77.917
0
VERTEX
8
CONTOURS_MINEURES
10
161.995
20
77.711
0
VERTEX
8
CONTOURS_MINEURES
10
164.655
20
77.657
0
VERTEX
8
CONTOURS_MINEURES
10
164.997
20
77.641
0
VERTEX
8
CONTOURS_MINEURES
10
165.355
20
77.641
0
VERTEX
8
CONTOURS_MINEURES
10
167.999
20
77.641
0
VERTEX
8
CONTOURS_MINEURES
10
170.577
20
77.575
0
VERTEX
8
CONTOURS_MINEURES
10
171.002
20
77.516
0
VERTEX
8
CONTOURS_MINEURES
10
171.547
20
77.453
0
VERTEX
8
CONTOURS_MINEURES
10
174.004
20
77.588
0
SEQEND
0
POLYLINE
8
CONTOURS_MINEURES
66
1
70
0
0
VERTEX
8
CONTOURS_MINEURES
10
0.000
20
88.588
0
VERTEX
8
CONTOURS_MINEURES
10
1.590
20
88.588
0
VERTEX
8
CONTOURS_MINEURES
10
3.002
20
88.588
0
VERTEX
8
CONTOURS_MINEURES
10
3.920
20
89.084
0
VERTEX
8
CONTOURS_MINEURES
10
6.005
20
90.003
0
VERTEX
8
CONTOURS_MINEURES
10
8.996
20
91.201
0
VERTEX
8
CONTOURS_MINEURES
10
10.798
20
91.201
0
VERTEX
8
CONTOURS_MINEURES
10
11.999
20
91.201
0
VERTEX
8
CONTOURS_MINEURES
10
13.586
20
91.587
0
VERTEX
8
CONTOURS_MINEURES
10
15.001
20
91.840
0
VERTEX
8
CONTOURS_MINEURES
10
15.970
20
92.031
0
VERTEX
8
CONTOURS_MINEURES
10
18.003
20
92.632
0
VERTEX
8
CONTOURS_MINEURES
10
20.628
20
92.632
0
VERTEX
8
CONTOURS_MINEURES
10
20.995
20
92.632
0
VERTEX
8
CONTOURS_MINEURES
10
21.895
20
92.998
0
VERTEX
8
CONTOURS_MINEURES
10
21.895
20
93.900
0
VERTEX
8
CONTOURS_MINEURES
10
21.895
20
96.005
0
VERTEX
8
CONTOURS_MINEURES
10
23.494
20
96.507
0
VERTEX
8
CONTOURS_MINEURES
10
23.997
20
96.660
0
VERTEX
8
CONTOURS_MINEURES
10
24.901
20
96.907
0
VERTEX
8
CONTOURS_MINEURES
10
26.999
20
97.430
0
VERTEX
8
CONTOURS_MINEURES
10
28.573
20
97.430
0
VERTEX
8
CONTOURS_MINEURES
10
30.002
20
97.430
0
VERTEX
8
CONTOURS_MINEURES
10
32.136
20
98.135
0
VERTEX
8
CONTOURS_MINEURES
10
33.004
20
98.515
0
VERTEX
8
CONTOURS_MINEURES
10
33.289
20
98.715
0
VERTEX
8
CONTOURS_MINEURES
10
34.799
20
99.001
0
SEQEND
0
POLYLINE
8
CONTOURS_MINEURES
66
1
70
0
0
VERTEX
8
CONTOURS_MINEURES
10
113.342
20
99.001
0
VERTEX
8
CONTOURS_MINEURES
10
113.793
20
98.793
0
VERTEX
8
CONTOURS_MINEURES
10
114.001
20
98.726
0
VERTEX
8
CONTOURS_MINEURES
10
114.277
20
98.726
0
VERTEX
8
CONTOURS_MINEURES
10
117.003
20
98.726
0
VERTEX
8
CONTOURS_MINEURES
10
117.402
20
98.601
0
VERTEX
8
CONTOURS_MINEURES
10
119.995
20
97.698
0
VERTEX
8
CONTOURS_MINEURES
10
121.692
20
97.698
0
VERTEX
8
CONTOURS_MINEURES
10
122.997
20
97.698
0
VERTEX
8
CONTOURS_MINEURES
10
124.861
20
97.141
0
VERTEX
8
CONTOURS_MINEURES
10
125.999
20
96.768
0
VERTEX
8
CONTOURS_MINEURES
10
126.607
20
96.611
0
VERTEX
8
CONTOURS_MINEURES
10
129.002
20
96.187
0
VERTEX
8
CONTOURS_MINEURES
10
131.822
20
96.187
0
VERTEX
8
CONTOURS_MINEURES
10
132.004
20
96.187
0
VERTEX
8
CONTOURS_MINEURES
10
132.174
20
96.175
0
VERTEX
8
CONTOURS_MINEURES
10
133.136
20
96.005
0
VERTEX
8
CONTOURS_MINEURES
10
133.136
20
94.867
0
VERTEX
8
CONTOURS_MINEURES
10
133.136
20
92.998
0
VERTEX
8
CONTOURS_MINEURES
10
134.715
20
92.717
0
VERTEX
8
CONTOURS_MINEURES
10
134.996
20
92.669
0
VERTEX
8
CONTOURS_MINEURES
10
135.317
20
92.678
0
VERTEX
8
CONTOURS_MINEURES
10
137.998
20
92.629
0
VERTEX
8
CONTOURS_MINEURES
10
140.630
20
92.629
0
VERTEX
8
CONTOURS_MINEURES
10
141.000
20
92.629
0
VERTEX
8
CONTOURS_MINEURES
10
142.689
20
92.998
0
VERTEX
8
CONTOURS_MINEURES
10
142.689
20
94.314
0
VERTEX
8
CONTOURS_MINEURES
10
142.689
20
96.005
0
VERTEX
8
CONTOURS_MINEURES
10
143.754
20
96.253
0
VERTEX
8
CONTOURS_MINEURES
10
144.002
20
96.294
0
VERTEX
8
CONTOURS_MINEURES
10
146.744
20
96.005
0
VERTEX
8
CONTOURS_MINEURES
10
146.744
20
95.744
0
VERTEX
8
CONTOURS_MINEURES
10
146.744
20
92.998
0
VERTEX
8
CONTOURS_MINEURES
10
146.975
20
92.968
0
VERTEX
8
CONTOURS_MINEURES
10
147.005
20
92.935
0
VERTEX
8
CONTOURS_MINEURES
10
147.068
20
92.935
0
VERTEX
8
CONTOURS_MINEURES
10
149.996
20
92.935
0
VERTEX
8
CONTOURS_MINEURES
10
150.297
20
92.699
0
VERTEX
8
CONTOURS_MINEURES
10
152.999
20
90.511
0
VERTEX
8
CONTOURS_MINEURES
10
154.148
20
91.150
0
VERTEX
8
CONTOURS_MINEURES
10
156.001
20
92.194
0
VERTEX
8
CONTOURS_MINEURES
10
156.807
20
92.194
0
VERTEX
8
CONTOURS_MINEURES
10
159.003
20
92.194
0
VERTEX
8
CONTOURS_MINEURES
10
161.995
20
92.998
0
VERTEX
8
CONTOURS_MINEURES
10
164.997
20
92.084
0
VERTEX
8
CONTOURS_MINEURES
10
167.082
20
92.084
0
VERTEX
8
CONTOURS_MINEURES
10
167.999
20
92.084
0
VERTEX
8
CONTOURS_MINEURES
10
168.944
20
92.055
0
VERTEX
8
CONTOURS_MINEURES
10
171.002
20
91.366
0
VERTEX
8
CONTOURS_MINEURES
10
173.578
20
90.428
0
VERTEX
8
CONTOURS_MINEURES
10
174.004
20
90.207
0
SEQEND
0
POLYLINE
8
CONTOURS_MINEURES
66
1
70
0
0
VERTEX
8
CONTOURS_MINEURES
10
0.000
20
96.979
0
VERTEX
8
CONTOURS_MINEURES
10
2.026
20
96.979
0
VERTEX
8
CONTOURS_MINEURES
10
3.002
20
96.979
0
VERTEX
8
CONTOURS_MINEURES
10
4.562
20
97.561
0
VERTEX
8
CONTOURS_MINEURES
10
6.005
20
98.128
0
VERTEX
8
CONTOURS_MINEURES
10
8.640
20
99.001
0
SEQEND
0
POLYLINE
8
CONTOURS_MINEURES
66
1
70
0
0
VERTEX
8
CONTOURS_MINEURES
10
152.734
20
99.001
0
VERTEX
8
CONTOURS_MINEURES
10
152.999
20
98.923
0
VERTEX
8
CONTOURS_MINEURES
10
155.000
20
98.002
0
VERTEX
8
CONTOURS_MINEURES
10
156.001
20
98.262
0
VERTEX
8
CONTOURS_MINEURES
10
156.742
20
98.262
0
VERTEX
8
CONTOURS_MINEURES
10
159.003
20
98.262
0
VERTEX
8
CONTOURS_MINEURES
10
159.658
20
98.345
0
VERTEX
8
CONTOURS_MINEURES
10
161.995
20
97.963
0
VERTEX
8
CONTOURS_MINEURES
10
163.485
20
97.492
0
VERTEX
8
CONTOURS_MINEURES
10
164.997
20
97.273
0
VERTEX
8
CONTOURS_MINEURES
10
166.728
20
97.273
0
VERTEX
8
CONTOURS_MINEURES
10
167.999
20
97.273
0
VERTEX
8
CONTOURS_MINEURES
10
168.980
20
96.984
0
VERTEX
8
CONTOURS_MINEURES
10
171.002
20
96.542
0
VERTEX
8
CONTOURS_MINEURES
10
172.199
20
96.005
0
VERTEX
8
CONTOURS_MINEURES
10
172.199
20
94.198
0
VERTEX
8
CONTOURS_MINEURES
10
172.199
20
92.998
0
VERTEX
8
CONTOURS_MINEURES
10
174.004
20
92.062
0
SEQEND
0
POLYLINE
8
CONTOURS_MINEURES
66
1
70
0
0
VERTEX
8
CONTOURS_MINEURES
10
128.090
20
99.001
0
VERTEX
8
CONTOURS_MINEURES
10
128.814
20
98.814
0
VERTEX
8
CONTOURS_MINEURES
10
129.002
20
98.780
0
VERTEX
8
CONTOURS_MINEURES
10
129.223
20
98.780
0
VERTEX
8
CONTOURS_MINEURES
10
132.004
20
98.780
0
VERTEX
8
CONTOURS_MINEURES
10
134.596
20
98.601
0
VERTEX
8
CONTOURS_MINEURES
10
134.996
20
98.530
0
VERTEX
8
CONTOURS_MINEURES
10
135.477
20
98.521
0
VERTEX
8
CONTOURS_MINEURES
10
137.998
20
98.521
0
VERTEX
8
CONTOURS_MINEURES
10
140.519
20
98.521
0
VERTEX
8
CONTOURS_MINEURES
10
141.000
20
98.521
0
VERTEX
8
CONTOURS_MINEURES
10
141.390
20
98.612
0
VERTEX
8
CONTOURS_MINEURES
10
143.752
20
99.001
0
SEQEND
0
POLYLINE
8
CONTOURS_MINEURES
66
1
70
0
0
VERTEX
8
CONTOURS_MINEURES
10
164.904
20
99.001
0
VERTEX
8
CONTOURS_MINEURES
10
164.975
20
98.978
0
VERTEX
8
CONTOURS_MINEURES
10
164.997
20
98.975
0
VERTEX
8
CONTOURS_MINEURES
10
165.023
20
98.975
0
VERTEX
8
CONTOURS_MINEURES
10
167.999
20
98.975
0
VERTEX
8
CONTOURS_MINEURES
10
170.297
20
98.298
0
VERTEX
8
CONTOURS_MINEURES
10
171.002
20
98.144
0
VERTEX
8
CONTOURS_MINEURES
10
172.561
20
97.445
0
VERTEX
8
CONTOURS_MINEURES
10
174.004
20
96.994
0
SEQEND
0
POLYLINE
8
CONTOURS_MINEURES
66
1
70
0
0
VERTEX
8
CONTOURS_MINEURES
10
173.972
20
99.001
0
VERTEX
8
CONTOURS_MINEURES
10
174.004
20
98.991
0
SEQEND
0
POLYLINE
8
CONTOURS_MAJEURES
66
1
70
0
0
VERTEX
8
CONTOURS_MAJEURES
10
12.842
20
0.001
0
VERTEX
8
CONTOURS_MAJEURES
10
14.089
20
0.911
0
VERTEX
8
CONTOURS_MAJEURES
10
15.001
20
1.199
0
VERTEX
8
CONTOURS_MAJEURES
10
17.800
20
2.997
0
VERTEX
8
CONTOURS_MAJEURES
10
17.800
20
3.201
0
VERTEX
8
CONTOURS_MAJEURES
10
17.800
20
6.003
0
VERTEX
8
CONTOURS_MAJEURES
10
18.003
20
6.122
0
VERTEX
8
CONTOURS_MAJEURES
10
20.876
20
6.122
0
VERTEX
8
CONTOURS_MAJEURES
10
20.995
20
6.122
0
VERTEX
8
CONTOURS_MAJEURES
10
21.192
20
6.200
0
VERTEX
8
CONTOURS_MAJEURES
10
23.997
20
7.523
0
VERTEX
8
CONTOURS_MAJEURES
10
26.255
20
8.257
0
VERTEX
8
CONTOURS_MAJEURES
10
26.999
20
8.410
0
VERTEX
8
CONTOURS_MAJEURES
10
27.590
20
8.410
0
VERTEX
8
CONTOURS_MAJEURES
10
30.002
20
8.410
0
VERTEX
8
CONTOURS_MAJEURES
10
33.004
20
8.999
0
VERTEX
8
CONTOURS_MAJEURES
10
35.430
20
9.565
0
VERTEX
8
CONTOURS_MAJEURES
10
35.995
20
9.651
0
VERTEX
8
CONTOURS_MAJEURES
10
36.649
20
9.651
0
VERTEX
8
CONTOURS_MAJEURES
10
38.998
20
9.651
0
VERTEX
8
CONTOURS_MAJEURES
10
40.105
20
10.104
0
VERTEX
8
CONTOURS_MAJEURES
10
42.000
20
10.780
0
VERTEX
8
CONTOURS_MAJEURES
10
43.217
20
10.780
0
VERTEX
8
CONTOURS_MAJEURES
10
45.002
20
10.780
0
VERTEX
8
CONTOURS_MAJEURES
10
47.551
20
11.995
0
VERTEX
8
CONTOURS_MAJEURES
10
47.551
20
14.547
0
VERTEX
8
CONTOURS_MAJEURES
10
47.551
20
15.001
0
VERTEX
8
CONTOURS_MAJEURES
10
47.851
20
15.154
0
VERTEX
8
CONTOURS_MAJEURES
10
48.004
20
15.209
0
VERTEX
8
CONTOURS_MAJEURES
10
49.966
20
16.032
0
VERTEX
8
CONTOURS_MAJEURES
10
50.996
20
16.413
0
VERTEX
8
CONTOURS_MAJEURES
10
52.411
20
16.413
0
VERTEX
8
CONTOURS_MAJEURES
10
53.998
20
16.413
0
VERTEX
8
CONTOURS_MAJEURES
10
56.523
20
17.520
0
VERTEX
8
CONTOURS_MAJEURES
10
57.001
20
17.710
0
VERTEX
8
CONTOURS_MAJEURES
10
57.231
20
17.767
0
VERTEX
8
CONTOURS_MAJEURES
10
57.841
20
17.997
0
VERTEX
8
CONTOURS_MAJEURES
10
59.501
20
18.499
0
VERTEX
8
CONTOURS_MAJEURES
10
60.003
20
18.551
0
VERTEX
8
CONTOURS_MAJEURES
10
62.452
20
18.551
0
VERTEX
8
CONTOURS_MAJEURES
10
63.005
20
18.551
0
VERTEX
8
CONTOURS_MAJEURES
10
65.367
20
18.630
0
VERTEX
8
CONTOURS_MAJEURES
10
65.997
20
18.746
0
VERTEX
8
CONTOURS_MAJEURES
10
66.911
20
18.913
0
VERTEX
8
CONTOURS_MAJEURES
10
68.999
20
19.079
0
VERTEX
8
CONTOURS_MAJEURES
10
70.079
20
19.079
0
VERTEX
8
CONTOURS_MAJEURES
10
72.001
20
19.079
0
VERTEX
8
CONTOURS_MAJEURES
10
73.510
20
19.493
0
VERTEX
8
CONTOURS_MAJEURES
10
75.004
20
20.044
0
VERTEX
8
CONTOURS_MAJEURES
10
76.941
20
21.004
0
VERTEX
8
CONTOURS_MAJEURES
10
76.941
20
22.060
0
VERTEX
8
CONTOURS_MAJEURES
10
76.941
20
23.999
0
VERTEX
8
CONTOURS_MAJEURES
10
77.697
20
24.298
0
VERTEX
8
CONTOURS_MAJEURES
10
77.995
20
24.454
0
VERTEX
8
CONTOURS_MAJEURES
10
78.451
20
24.454
0
VERTEX
8
CONTOURS_MAJEURES
10
80.997
20
24.454
0
VERTEX
8
CONTOURS_MAJEURES
10
82.830
20
25.167
0
VERTEX
8
CONTOURS_MAJEURES
10
84.000
20
26.122
0
VERTEX
8
CONTOURS_MAJEURES
10
84.758
20
26.238
0
VERTEX
8
CONTOURS_MAJEURES
10
87.002
20
26.786
0
VERTEX
8
CONTOURS_MAJEURES
10
87.212
20
26.786
0
VERTEX
8
CONTOURS_MAJEURES
10
90.004
20
26.786
0
VERTEX
8
CONTOURS_MAJEURES
10
92.240
20
26.238
0
VERTEX
8
CONTOURS_MAJEURES
10
92.996
20
26.139
0
VERTEX
8
CONTOURS_MAJEURES
10
93.974
20
26.019
0
VERTEX
8
CONTOURS_MAJEURES
10
95.998
20
25.736
0
VERTEX
8
CONTOURS_MAJEURES
10
97.260
20
25.736
0
VERTEX
8
CONTOURS_MAJEURES
10
99.000
20
25.736
0
VERTEX
8
CONTOURS_MAJEURES
10
101.237
20
26.231
0
VERTEX
8
CONTOURS_MAJEURES
10
102.003
20
26.331
0
VERTEX
8
CONTOURS_MAJEURES
10
103.800
20
25.793
0
VERTEX
8
CONTOURS_MAJEURES
10
105.005
20
25.789
0
VERTEX
8
CONTOURS_MAJEURES
10
106.210
20
25.789
0
VERTEX
8
CONTOURS_MAJEURES
10
107.997
20
25.789
0
VERTEX
8
CONTOURS_MAJEURES
10
108.990
20
24.990
0
VERTEX
8
CONTOURS_MAJEURES
10
110.999
20
24.292
0
VERTEX
8
CONTOURS_MAJEURES
10
111.224
20
24.224
0
VERTEX
8
CONTOURS_MAJEURES
10
111.602
20
23.999
0
VERTEX
8
CONTOURS_MAJEURES
10
111.602
20
21.606
0
VERTEX
8
CONTOURS_MAJEURES
10
111.602
20
21.004
0
VERTEX
8
CONTOURS_MAJEURES
10
114.001
20
19.265
0
VERTEX
8
CONTOURS_MAJEURES
10
115.737
20
19.265
0
VERTEX
8
CONTOURS_MAJEURES
10
117.003
20
19.265
0
VERTEX
8
CONTOURS_MAJEURES
10
117.696
20
18.693
0
VERTEX
8
CONTOURS_MAJEURES
10
118.448
20
17.997
0
VERTEX
8
CONTOURS_MAJEURES
10
119.995
20
16.702
0
VERTEX
8
CONTOURS_MAJEURES
10
121.700
20
16.702
0
VERTEX
8
CONTOURS_MAJEURES
10
122.997
20
16.702
0
VERTEX
8
CONTOURS_MAJEURES
10
124.002
20
16.004
0
VERTEX
8
CONTOURS_MAJEURES
10
125.109
20
15.001
0
VERTEX
8
CONTOURS_MAJEURES
10
125.109
20
12.886
0
VERTEX
8
CONTOURS_MAJEURES
10
125.109
20
11.995
0
VERTEX
8
CONTOURS_MAJEURES
10
125.338
20
11.334
0
VERTEX
8
CONTOURS_MAJEURES
10
125.999
20
10.986
0
VERTEX
8
CONTOURS_MAJEURES
10
127.071
20
10.068
0
VERTEX
8
CONTOURS_MAJEURES
10
128.508
20
8.999
0
VERTEX
8
CONTOURS_MAJEURES
10
129.002
20
8.703
0
VERTEX
8
CONTOURS_MAJEURES
10
131.707
20
8.703
0
VERTEX
8
CONTOURS_MAJEURES
10
132.004
20
8.703
0
VERTEX
8
CONTOURS_MAJEURES
10
133.555
20
7.557
0
VERTEX
8
CONTOURS_MAJEURES
10
134.996
20
6.757
0
VERTEX
8
CONTOURS_MAJEURES
10
135.546
20
6.552
0
VERTEX
8
CONTOURS_MAJEURES
10
136.376
20
6.003
0
VERTEX
8
CONTOURS_MAJEURES
10
136.376
20
4.621
0
VERTEX
8
CONTOURS_MAJEURES
10
136.376
20
2.997
0
VERTEX
8
CONTOURS_MAJEURES
10
137.536
20
2.536
0
VERTEX
8
CONTOURS_MAJEURES
10
137.998
20
2.440
0
VERTEX
8
CONTOURS_MAJEURES
10
138.556
20
2.440
0
VERTEX
8
CONTOURS_MAJEURES
10
141.000
20
2.440
0
VERTEX
8
CONTOURS_MAJEURES
10
142.939
20
1.936
0
VERTEX
8
CONTOURS_MAJEURES
10
144.002
20
0.286
0
VERTEX
8
CONTOURS_MAJEURES
10
144.237
20
0.235
0
VERTEX
8
CONTOURS_MAJEURES
10
144.315
20
0.001
0
SEQEND
0
POLYLINE
8
CONTOURS_MAJEURES
66
1
70
0
0
VERTEX
8
CONTOURS_MAJEURES
10
0.000
20
43.221
0
VERTEX
8
CONTOURS_MAJEURES
10
1.778
20
43.221
0
VERTEX
8
CONTOURS_MAJEURES
10
3.002
20
43.221
0
VERTEX
8
CONTOURS_MAJEURES
10
3.890
20
42.885
0
VERTEX
8
CONTOURS_MAJEURES
10
6.005
20
42.537
0
VERTEX
8
CONTOURS_MAJEURES
10
8.355
20
41.995
0
VERTEX
8
CONTOURS_MAJEURES
10
8.788
20
41.786
0
VERTEX
8
CONTOURS_MAJEURES
10
8.996
20
41.762
0
VERTEX
8
CONTOURS_MAJEURES
10
9.230
20
41.762
0
VERTEX
8
CONTOURS_MAJEURES
10
11.999
20
41.762
0
VERTEX
8
CONTOURS_MAJEURES
10
14.841
20
41.835
0
VERTEX
8
CONTOURS_MAJEURES
10
15.001
20
41.845
0
VERTEX
8
CONTOURS_MAJEURES
10
15.161
20
41.835
0
VERTEX
8
CONTOURS_MAJEURES
10
15.668
20
41.995
0
VERTEX
8
CONTOURS_MAJEURES
10
18.003
20
42.775
0
VERTEX
8
CONTOURS_MAJEURES
10
18.779
20
42.775
0
VERTEX
8
CONTOURS_MAJEURES
10
20.995
20
42.775
0
VERTEX
8
CONTOURS_MAJEURES
10
23.550
20
45.002
0
VERTEX
8
CONTOURS_MAJEURES
10
23.550
20
45.448
0
VERTEX
8
CONTOURS_MAJEURES
10
23.550
20
47.998
0
VERTEX
8
CONTOURS_MAJEURES
10
23.997
20
48.465
0
VERTEX
8
CONTOURS_MAJEURES
10
26.999
20
51.004
0
VERTEX
8
CONTOURS_MAJEURES
10
30.002
20
51.004
0
VERTEX
8
CONTOURS_MAJEURES
10
32.861
20
54.000
0
VERTEX
8
CONTOURS_MAJEURES
10
32.861
20
54.143
0
VERTEX
8
CONTOURS_MAJEURES
10
32.861
20
56.996
0
VERTEX
8
CONTOURS_MAJEURES
10
33.004
20
57.056
0
VERTEX
8
CONTOURS_MAJEURES
10
33.119
20
57.111
0
VERTEX
8
CONTOURS_MAJEURES
10
35.995
20
57.830
0
VERTEX
8
CONTOURS_MAJEURES
10
38.165
20
57.830
0
VERTEX
8
CONTOURS_MAJEURES
10
38.998
20
57.830
0
VERTEX
8
CONTOURS_MAJEURES
10
40.635
20
58.636
0
VERTEX
8
CONTOURS_MAJEURES
10
42.000
20
58.749
0
VERTEX
8
CONTOURS_MAJEURES
10
43.251
20
58.749
0
VERTEX
8
CONTOURS_MAJEURES
10
45.002
20
58.749
0
VERTEX
8
CONTOURS_MAJEURES
10
46.228
20
58.775
0
VERTEX
8
CONTOURS_MAJEURES
10
47.557
20
60.002
0
VERTEX
8
CONTOURS_MAJEURES
10
47.557
20
60.448
0
VERTEX
8
CONTOURS_MAJEURES
10
47.557
20
62.998
0
VERTEX
8
CONTOURS_MAJEURES
10
47.941
20
63.061
0
VERTEX
8
CONTOURS_MAJEURES
10
48.004
20
63.081
0
VERTEX
8
CONTOURS_MAJEURES
10
48.470
20
62.998
0
VERTEX
8
CONTOURS_MAJEURES
10
48.470
20
62.532
0
VERTEX
8
CONTOURS_MAJEURES
10
48.470
20
60.002
0
VERTEX
8
CONTOURS_MAJEURES
10
50.996
20
58.774
0
VERTEX
8
CONTOURS_MAJEURES
10
52.772
20
58.774
0
VERTEX
8
CONTOURS_MAJEURES
10
53.998
20
58.774
0
VERTEX
8
CONTOURS_MAJEURES
10
56.591
20
57.406
0
VERTEX
8
CONTOURS_MAJEURES
10
57.001
20
57.187
0
VERTEX
8
CONTOURS_MAJEURES
10
57.220
20
57.216
0
VERTEX
8
CONTOURS_MAJEURES
10
60.003
20
57.463
0
VERTEX
8
CONTOURS_MAJEURES
10
62.538
20
57.463
0
VERTEX
8
CONTOURS_MAJEURES
10
63.005
20
57.463
0
VERTEX
8
CONTOURS_MAJEURES
10
63.351
20
57.343
0
VERTEX
8
CONTOURS_MAJEURES
10
65.997
20
57.489
0
VERTEX
8
CONTOURS_MAJEURES
10
68.865
20
57.130
0
VERTEX
8
CONTOURS_MAJEURES
10
68.999
20
57.088
0
VERTEX
8
CONTOURS_MAJEURES
10
69.091
20
57.088
0
VERTEX
8
CONTOURS_MAJEURES
10
72.001
20
57.088
0
VERTEX
8
CONTOURS_MAJEURES
10
72.684
20
56.996
0
VERTEX
8
CONTOURS_MAJEURES
10
72.684
20
54.681
0
VERTEX
8
CONTOURS_MAJEURES
10
72.684
20
54.000
0
VERTEX
8
CONTOURS_MAJEURES
10
75.004
20
53.545
0
VERTEX
8
CONTOURS_MAJEURES
10
76.924
20
52.927
0
VERTEX
8
CONTOURS_MAJEURES
10
77.995
20
52.982
0
VERTEX
8
CONTOURS_MAJEURES
10
79.015
20
52.982
0
VERTEX
8
CONTOURS_MAJEURES
10
80.997
20
52.982
0
VERTEX
8
CONTOURS_MAJEURES
10
81.835
20
53.164
0
VERTEX
8
CONTOURS_MAJEURES
10
84.000
20
53.669
0
VERTEX
8
CONTOURS_MAJEURES
10
86.430
20
54.000
0
VERTEX
8
CONTOURS_MAJEURES
10
86.430
20
56.425
0
VERTEX
8
CONTOURS_MAJEURES
10
86.430
20
56.996
0
VERTEX
8
CONTOURS_MAJEURES
10
87.002
20
57.081
0
VERTEX
8
CONTOURS_MAJEURES
10
89.919
20
57.081
0
VERTEX
8
CONTOURS_MAJEURES
10
90.004
20
57.081
0
VERTEX
8
CONTOURS_MAJEURES
10
90.085
20
57.076
0
VERTEX
8
CONTOURS_MAJEURES
10
92.398
20
56.996
0
VERTEX
8
CONTOURS_MAJEURES
10
92.398
20
54.599
0
VERTEX
8
CONTOURS_MAJEURES
10
92.398
20
54.000
0
VERTEX
8
CONTOURS_MAJEURES
10
92.978
20
53.982
0
VERTEX
8
CONTOURS_MAJEURES
10
92.996
20
53.983
0
VERTEX
8
CONTOURS_MAJEURES
10
93.077
20
54.000
0
VERTEX
8
CONTOURS_MAJEURES
10
93.077
20
56.915
0
VERTEX
8
CONTOURS_MAJEURES
10
93.077
20
56.996
0
VERTEX
8
CONTOURS_MAJEURES
10
95.401
20
57.594
0
VERTEX
8
CONTOURS_MAJEURES
10
95.998
20
57.542
0
VERTEX
8
CONTOURS_MAJEURES
10
96.544
20
57.542
0
VERTEX
8
CONTOURS_MAJEURES
10
99.000
20
57.542
0
VERTEX
8
CONTOURS_MAJEURES
10
101.162
20
57.837
0
VERTEX
8
CONTOURS_MAJEURES
10
102.003
20
57.826
0
VERTEX
8
CONTOURS_MAJEURES
10
102.908
20
57.902
0
VERTEX
8
CONTOURS_MAJEURES
10
105.005
20
57.629
0
VERTEX
8
CONTOURS_MAJEURES
10
107.366
20
57.629
0
VERTEX
8
CONTOURS_MAJEURES
10
107.997
20
57.629
0
VERTEX
8
CONTOURS_MAJEURES
10
110.784
20
56.996
0
VERTEX
8
CONTOURS_MAJEURES
10
110.784
20
56.782
0
VERTEX
8
CONTOURS_MAJEURES
10
110.784
20
54.000
0
VERTEX
8
CONTOURS_MAJEURES
10
110.999
20
53.937
0
VERTEX
8
CONTOURS_MAJEURES
10
111.083
20
53.916
0
VERTEX
8
CONTOURS_MAJEURES
10
114.001
20
53.644
0
VERTEX
8
CONTOURS_MAJEURES
10
116.647
20
53.644
0
VERTEX
8
CONTOURS_MAJEURES
10
117.003
20
53.644
0
VERTEX
8
CONTOURS_MAJEURES
10
119.106
20
53.109
0
VERTEX
8
CONTOURS_MAJEURES
10
119.995
20
52.937
0
VERTEX
8
CONTOURS_MAJEURES
10
121.932
20
52.937
0
VERTEX
8
CONTOURS_MAJEURES
10
122.997
20
52.937
0
VERTEX
8
CONTOURS_MAJEURES
10
125.399
20
51.603
0
VERTEX
8
CONTOURS_MAJEURES
10
125.999
20
51.262
0
VERTEX
8
CONTOURS_MAJEURES
10
126.161
20
51.165
0
VERTEX
8
CONTOURS_MAJEURES
10
126.308
20
51.004
0
VERTEX
8
CONTOURS_MAJEURES
10
129.002
20
49.306
0
VERTEX
8
CONTOURS_MAJEURES
10
130.309
20
49.306
0
VERTEX
8
CONTOURS_MAJEURES
10
132.004
20
49.306
0
VERTEX
8
CONTOURS_MAJEURES
10
134.688
20
48.307
0
VERTEX
8
CONTOURS_MAJEURES
10
134.996
20
48.196
0
VERTEX
8
CONTOURS_MAJEURES
10
135.191
20
48.193
0
VERTEX
8
CONTOURS_MAJEURES
10
136.317
20
47.998
0
VERTEX
8
CONTOURS_MAJEURES
10
136.317
20
46.679
0
VERTEX
8
CONTOURS_MAJEURES
10
136.317
20
45.002
0
VERTEX
8
CONTOURS_MAJEURES
10
137.648
20
44.651
0
VERTEX
8
CONTOURS_MAJEURES
10
137.998
20
44.612
0
VERTEX
8
CONTOURS_MAJEURES
10
140.611
20
44.612
0
VERTEX
8
CONTOURS_MAJEURES
10
141.000
20
44.612
0
VERTEX
8
CONTOURS_MAJEURES
10
141.443
20
44.559
0
VERTEX
8
CONTOURS_MAJEURES
10
144.002
20
43.959
0
VERTEX
8
CONTOURS_MAJEURES
10
145.209
20
43.794
0
VERTEX
8
CONTOURS_MAJEURES
10
147.005
20
43.400
0
VERTEX
8
CONTOURS_MAJEURES
10
148.402
20
43.400
0
VERTEX
8
CONTOURS_MAJEURES
10
149.996
20
43.400
0
VERTEX
8
CONTOURS_MAJEURES
10
151.823
20
43.173
0
VERTEX
8
CONTOURS_MAJEURES
10
152.999
20
42.970
0
VERTEX
8
CONTOURS_MAJEURES
10
153.892
20
42.890
0
VERTEX
8
CONTOURS_MAJEURES
10
156.001
20
42.668
0
VERTEX
8
CONTOURS_MAJEURES
10
158.331
20
42.668
0
VERTEX
8
CONTOURS_MAJEURES
10
159.003
20
42.668
0
VERTEX
8
CONTOURS_MAJEURES
10
159.629
20
42.624
0
VERTEX
8
CONTOURS_MAJEURES
10
161.995
20
42.346
0
VERTEX
8
CONTOURS_MAJEURES
10
163.996
20
41.995
0
VERTEX
8
CONTOURS_MAJEURES
10
164.997
20
41.496
0
VERTEX
8
CONTOURS_MAJEURES
10
167.499
20
41.496
0
VERTEX
8
CONTOURS_MAJEURES
10
167.999
20
41.496
0
VERTEX
8
CONTOURS_MAJEURES
10
169.905
20
40.902
0
VERTEX
8
CONTOURS_MAJEURES
10
171.002
20
40.133
0
VERTEX
8
CONTOURS_MAJEURES
10
171.766
20
39.762
0
VERTEX
8
CONTOURS_MAJEURES
10
172.108
20
39.000
0
VERTEX
8
CONTOURS_MAJEURES
10
172.108
20
37.108
0
VERTEX
8
CONTOURS_MAJEURES
10
172.108
20
36.004
0
VERTEX
8
CONTOURS_MAJEURES
10
173.276
20
35.275
0
VERTEX
8
CONTOURS_MAJEURES
10
173.816
20
32.997
0
VERTEX
8
CONTOURS_MAJEURES
10
174.004
20
32.875
0
SEQEND
0
POLYLINE
8
CONTOURS_MAJEURES
66
1
70
0
0
VERTEX
8
CONTOURS_MAJEURES
10
86.856
20
99.001
0
VERTEX
8
CONTOURS_MAJEURES
10
87.002
20
98.930
0
VERTEX
8
CONTOURS_MAJEURES
10
89.934
20
98.930
0
VERTEX
8
CONTOURS_MAJEURES
10
90.004
20
98.930
0
VERTEX
8
CONTOURS_MAJEURES
10
90.082
20
98.923
0
VERTEX
8
CONTOURS_MAJEURES
10
92.996
20
98.275
0
VERTEX
8
CONTOURS_MAJEURES
10
94.904
20
97.909
0
VERTEX
8
CONTOURS_MAJEURES
10
95.998
20
97.881
0
VERTEX
8
CONTOURS_MAJEURES
10
97.121
20
97.881
0
VERTEX
8
CONTOURS_MAJEURES
10
99.000
20
97.881
0
VERTEX
8
CONTOURS_MAJEURES
10
100.295
20
97.297
0
VERTEX
8
CONTOURS_MAJEURES
10
102.003
20
96.997
0
VERTEX
8
CONTOURS_MAJEURES
10
104.943
20
96.067
0
VERTEX
8
CONTOURS_MAJEURES
10
105.005
20
96.042
0
VERTEX
8
CONTOURS_MAJEURES
10
105.042
20
96.042
0
VERTEX
8
CONTOURS_MAJEURES
10
107.997
20
96.042
0
VERTEX
8
CONTOURS_MAJEURES
10
108.097
20
96.005
0
VERTEX
8
CONTOURS_MAJEURES
10
108.097
20
93.099
0
VERTEX
8
CONTOURS_MAJEURES
10
108.097
20
92.998
0
VERTEX
8
CONTOURS_MAJEURES
10
110.999
20
92.011
0
VERTEX
8
CONTOURS_MAJEURES
10
112.475
20
91.476
0
VERTEX
8
CONTOURS_MAJEURES
10
114.001
20
91.115
0
VERTEX
8
CONTOURS_MAJEURES
10
115.889
20
91.115
0
VERTEX
8
CONTOURS_MAJEURES
10
117.003
20
91.115
0
VERTEX
8
CONTOURS_MAJEURES
10
117.848
20
90.849
0
VERTEX
8
CONTOURS_MAJEURES
10
119.995
20
90.244
0
VERTEX
8
CONTOURS_MAJEURES
10
122.756
20
90.244
0
VERTEX
8
CONTOURS_MAJEURES
10
122.997
20
90.244
0
VERTEX
8
CONTOURS_MAJEURES
10
123.904
20
90.003
0
VERTEX
8
CONTOURS_MAJEURES
10
125.552
20
89.554
0
VERTEX
8
CONTOURS_MAJEURES
10
125.999
20
89.441
0
VERTEX
8
CONTOURS_MAJEURES
10
128.022
20
89.022
0
VERTEX
8
CONTOURS_MAJEURES
10
129.002
20
88.768
0
VERTEX
8
CONTOURS_MAJEURES
10
130.234
20
88.768
0
VERTEX
8
CONTOURS_MAJEURES
10
132.004
20
88.768
0
VERTEX
8
CONTOURS_MAJEURES
10
133.487
20
88.486
0
VERTEX
8
CONTOURS_MAJEURES
10
134.996
20
88.289
0
VERTEX
8
CONTOURS_MAJEURES
10
136.327
20
88.329
0
VERTEX
8
CONTOURS_MAJEURES
10
137.998
20
88.168
0
VERTEX
8
CONTOURS_MAJEURES
10
139.830
20
88.168
0
VERTEX
8
CONTOURS_MAJEURES
10
141.000
20
88.168
0
VERTEX
8
CONTOURS_MAJEURES
10
143.702
20
87.297
0
VERTEX
8
CONTOURS_MAJEURES
10
144.002
20
87.310
0
VERTEX
8
CONTOURS_MAJEURES
10
144.167
20
87.161
0
VERTEX
8
CONTOURS_MAJEURES
10
144.342
20
86.996
0
VERTEX
8
CONTOURS_MAJEURES
10
144.342
20
86.657
0
VERTEX
8
CONTOURS_MAJEURES
10
144.342
20
84.000
0
VERTEX
8
CONTOURS_MAJEURES
10
145.919
20
82.917
0
VERTEX
8
CONTOURS_MAJEURES
10
147.005
20
82.136
0
VERTEX
8
CONTOURS_MAJEURES
10
148.867
20
82.136
0
VERTEX
8
CONTOURS_MAJEURES
10
149.996
20
82.136
0
VERTEX
8
CONTOURS_MAJEURES
10
150.701
20
81.707
0
VERTEX
8
CONTOURS_MAJEURES
10
151.581
20
81.005
0
VERTEX
8
CONTOURS_MAJEURES
10
151.581
20
79.418
0
VERTEX
8
CONTOURS_MAJEURES
10
151.581
20
77.998
0
VERTEX
8
CONTOURS_MAJEURES
10
152.999
20
77.310
0
VERTEX
8
CONTOURS_MAJEURES
10
154.108
20
76.891
0
VERTEX
8
CONTOURS_MAJEURES
10
156.001
20
76.360
0
VERTEX
8
CONTOURS_MAJEURES
10
157.361
20
76.360
0
VERTEX
8
CONTOURS_MAJEURES
10
159.003
20
76.360
0
VERTEX
8
CONTOURS_MAJEURES
10
160.710
20
76.289
0
VERTEX
8
CONTOURS_MAJEURES
10
161.995
20
76.198
0
VERTEX
8
CONTOURS_MAJEURES
10
163.169
20
76.174
0
VERTEX
8
CONTOURS_MAJEURES
10
164.997
20
76.089
0
VERTEX
8
CONTOURS_MAJEURES
10
166.910
20
76.089
0
VERTEX
8
CONTOURS_MAJEURES
10
167.999
20
76.089
0
VERTEX
8
CONTOURS_MAJEURES
10
169.061
20
76.062
0
VERTEX
8
CONTOURS_MAJEURES
10
171.002
20
75.794
0
VERTEX
8
CONTOURS_MAJEURES
10
173.497
20
75.508
0
VERTEX
8
CONTOURS_MAJEURES
10
174.004
20
75.536
0
SEQEND
0
POLYLINE
8
CONTOURS_MAJEURES
66
1
70
0
0
VERTEX
8
CONTOURS_MAJEURES
10
0.000
20
82.813
0
VERTEX
8
CONTOURS_MAJEURES
10
1.812
20
82.813
0
VERTEX
8
CONTOURS_MAJEURES
10
3.002
20
82.813
0
VERTEX
8
CONTOURS_MAJEURES
10
3.815
20
83.190
0
VERTEX
8
CONTOURS_MAJEURES
10
5.513
20
84.000
0
VERTEX
8
CONTOURS_MAJEURES
10
5.513
20
86.506
0
VERTEX
8
CONTOURS_MAJEURES
10
5.513
20
86.996
0
VERTEX
8
CONTOURS_MAJEURES
10
5.833
20
87.168
0
VERTEX
8
CONTOURS_MAJEURES
10
6.005
20
87.244
0
VERTEX
8
CONTOURS_MAJEURES
10
6.432
20
87.426
0
VERTEX
8
CONTOURS_MAJEURES
10
8.996
20
88.650
0
VERTEX
8
CONTOURS_MAJEURES
10
10.648
20
88.650
0
VERTEX
8
CONTOURS_MAJEURES
10
11.999
20
88.650
0
VERTEX
8
CONTOURS_MAJEURES
10
13.208
20
88.791
0
VERTEX
8
CONTOURS_MAJEURES
10
15.001
20
89.088
0
VERTEX
8
CONTOURS_MAJEURES
10
15.791
20
89.212
0
VERTEX
8
CONTOURS_MAJEURES
10
18.003
20
89.627
0
VERTEX
8
CONTOURS_MAJEURES
10
20.621
20
89.627
0
VERTEX
8
CONTOURS_MAJEURES
10
20.995
20
89.627
0
VERTEX
8
CONTOURS_MAJEURES
10
21.219
20
89.778
0
VERTEX
8
CONTOURS_MAJEURES
10
22.045
20
90.003
0
VERTEX
8
CONTOURS_MAJEURES
10
23.997
20
90.798
0
VERTEX
8
CONTOURS_MAJEURES
10
25.254
20
91.744
0
VERTEX
8
CONTOURS_MAJEURES
10
26.999
20
92.127
0
VERTEX
8
CONTOURS_MAJEURES
10
29.129
20
92.127
0
VERTEX
8
CONTOURS_MAJEURES
10
30.002
20
92.127
0
VERTEX
8
CONTOURS_MAJEURES
10
31.895
20
92.998
0
VERTEX
8
CONTOURS_MAJEURES
10
31.895
20
94.109
0
VERTEX
8
CONTOURS_MAJEURES
10
31.895
20
96.005
0
VERTEX
8
CONTOURS_MAJEURES
10
33.004
20
96.491
0
VERTEX
8
CONTOURS_MAJEURES
10
34.476
20
97.527
0
VERTEX
8
CONTOURS_MAJEURES
10
35.995
20
97.814
0
VERTEX
8
CONTOURS_MAJEURES
10
37.808
20
97.814
0
VERTEX
8
CONTOURS_MAJEURES
10
38.998
20
97.814
0
VERTEX
8
CONTOURS_MAJEURES
10
39.855
20
98.145
0
VERTEX
8
CONTOURS_MAJEURES
10
42.000
20
98.443
0
VERTEX
8
CONTOURS_MAJEURES
10
44.444
20
98.443
0
VERTEX
8
CONTOURS_MAJEURES
10
45.002
20
98.443
0
VERTEX
8
CONTOURS_MAJEURES
10
45.494
20
98.510
0
VERTEX
8
CONTOURS_MAJEURES
10
48.004
20
98.664
0
VERTEX
8
CONTOURS_MAJEURES
10
48.291
20
98.714
0
VERTEX
8
CONTOURS_MAJEURES
10
50.996
20
98.855
0
VERTEX
8
CONTOURS_MAJEURES
10
53.852
20
98.855
0
VERTEX
8
CONTOURS_MAJEURES
10
53.998
20
98.855
0
VERTEX
8
CONTOURS_MAJEURES
10
54.221
20
98.778
0
VERTEX
8
CONTOURS_MAJEURES
10
57.001
20
98.724
0
VERTEX
8
CONTOURS_MAJEURES
10
57.936
20
99.001
0
SEQEND
0
POLYLINE
8
PARCELLE
66
1
70
1
0
VERTEX
8
PARCELLE
10
155.210
20
81.711
0
VERTEX
8
PARCELLE
10
149.173
20
41.805
0
VERTEX
8
PARCELLE
10
146.584
20
41.890
0
VERTEX
8
PARCELLE
10
144.198
20
42.172
0
VERTEX
8
PARCELLE
10
137.491
20
43.405
0
VERTEX
8
PARCELLE
10
120.330
20
47.932
0
VERTEX
8
PARCELLE
10
113.637
20
49.425
0
VERTEX
8
PARCELLE
10
110.771
20
49.792
0
VERTEX
8
PARCELLE
10
107.085
20
50.046
0
VERTEX
8
PARCELLE
10
101.447
20
50.070
0
VERTEX
8
PARCELLE
10
96.826
20
49.774
0
VERTEX
8
PARCELLE
10
91.942
20
49.231
0
VERTEX
8
PARCELLE
10
85.034
20
48.038
0
VERTEX
8
PARCELLE
10
79.845
20
46.829
0
VERTEX
8
PARCELLE
10
70.643
20
44.320
0
VERTEX
8
PARCELLE
10
63.290
20
41.672
0
VERTEX
8
PARCELLE
10
54.474
20
37.522
0
VERTEX
8
PARCELLE
10
51.872
20
36.158
0
VERTEX
8
PARCELLE
10
35.952
20
27.070
0
VERTEX
8
PARCELLE
10
23.179
20
20.000
0
VERTEX
8
PARCELLE
10
20.000
20
38.948
0
VERTEX
8
PARCELLE
10
29.498
20
43.332
0
VERTEX
8
PARCELLE
10
33.051
20
44.836
0
VERTEX
8
PARCELLE
10
40.796
20
49.787
0
VERTEX
8
PARCELLE
10
51.731
20
54.936
0
VERTEX
8
PARCELLE
10
58.396
20
57.760
0
VERTEX
8
PARCELLE
10
70.196
20
62.392
0
VERTEX
8
PARCELLE
10
82.547
20
66.061
0
VERTEX
8
PARCELLE
10
110.475
20
73.226
0
VERTEX
8
PARCELLE
10
120.629
20
76.046
0
VERTEX
8
PARCELLE
10
138.207
20
79.695
0
VERTEX
8
PARCELLE
10
142.993
20
80.499
0
VERTEX
8
PARCELLE
10
150.559
20
81.435
0
VERTEX
8
PARCELLE
10
155.210
20
81.711
0
SEQEND
0
TEXT
8
POINTS_COTES
10
0.000
20
0.001
40
1.0
1
11.8
0
TEXT
8
POINTS_COTES
10
122.997
20
2.997
40
1.0
1
6.0
0
TEXT
8
POINTS_COTES
10
68.999
20
8.999
40
1.0
1
5.6
0
TEXT
8
POINTS_COTES
10
15.001
20
15.001
40
1.0
1
14.0
0
TEXT
8
POINTS_COTES
10
137.998
20
17.997
40
1.0
1
14.7
0
TEXT
8
POINTS_COTES
10
84.000
20
23.999
40
1.0
1
8.2
0
TEXT
8
POINTS_COTES
10
30.002
20
30.002
40
1.0
1
17.4
0
TEXT
8
POINTS_COTES
10
152.999
20
32.997
40
1.0
1
18.8
0
TEXT
8
POINTS_COTES
10
99.000
20
39.000
40
1.0
1
15.8
0
TEXT
8
POINTS_COTES
10
45.002
20
45.002
40
1.0
1
19.7
0
TEXT
8
POINTS_COTES
10
167.999
20
47.998
40
1.0
1
21.4
0
TEXT
8
POINTS_COTES
10
114.001
20
54.000
40
1.0
1
20.1
0
TEXT
8
POINTS_COTES
10
60.003
20
60.002
40
1.0
1
20.8
0
TEXT
8
POINTS_COTES
10
6.005
20
66.005
40
1.0
1
25.8
0
TEXT
8
POINTS_COTES
10
129.002
20
69.000
40
1.0
1
24.8
0
TEXT
8
POINTS_COTES
10
75.004
20
75.002
40
1.0
1
23.3
0
TEXT
8
POINTS_COTES
10
20.995
20
81.005
40
1.0
1
27.1
0
TEXT
8
POINTS_COTES
10
144.002
20
84.000
40
1.0
1
29.9
0
TEXT
8
POINTS_COTES
10
90.004
20
90.003
40
1.0
1
28.0
0
TEXT
8
POINTS_COTES
10
35.995
20
96.005
40
1.0
1
28.7
0
TEXT
8
POINTS_COTES
10
159.003
20
99.001
40
1.0
1
35.6
0
ENDSEC
0
EOF
