0
SECTION
2
HEADER
0
ENDSEC
0
SECTION
2
TABLES
0
TABLE
2
LAYER
70
4
0
LAYER
2
CONTOURS_MINEURES
70
0
62
8
6
CONTINUOUS
0
LAYER
2
CONTOURS_MAJEURES
70
0
62
3
6
CONTINUOUS
0
LAYER
2
PARCELLE
70
0
62
4
6
CONTINUOUS
0
LAYER
2
POINTS_COTES
70
0
62
7
6
CONTINUOUS
0
ENDTAB
0
ENDSEC
0
SECTION
2
ENTITIES
0
POLYLINE
8
CONTOURS_MINEURES
66
1
70
0
0
VERTEX
8
CONTOURS_MINEURES
10
72.145
20
4.004
0
VERTEX
8
CONTOURS_MINEURES
10
72.145
20
2.151
0
VERTEX
8
CONTOURS_MINEURES
10
72.145
20
2.003
0
VERTEX
8
CONTOURS_MINEURES
10
72.111
20
1.889
0
VERTEX
8
CONTOURS_MINEURES
10
71.996
20
1.431
0
VERTEX
8
CONTOURS_MINEURES
10
71.425
20
1.431
0
VERTEX
8
CONTOURS_MINEURES
10
69.998
20
1.431
0
VERTEX
8
CONTOURS_MINEURES
10
69.808
20
1.812
0
VERTEX
8
CONTOURS_MINEURES
10
69.599
20
2.003
0
VERTEX
8
CONTOURS_MINEURES
10
69.599
20
2.403
0
VERTEX
8
CONTOURS_MINEURES
10
69.599
20
4.004
0
VERTEX
8
CONTOURS_MINEURES
10
69.998
20
4.404
0
VERTEX
8
CONTOURS_MINEURES
10
70.398
20
4.404
0
VERTEX
8
CONTOURS_MINEURES
10
71.996
20
4.404
0
VERTEX
8
CONTOURS_MINEURES
10
72.145
20
4.004
0
SEQEND
0
POLYLINE
8
CONTOURS_MINEURES
66
1
70
0
0
VERTEX
8
CONTOURS_MINEURES
10
41.590
20
0.002
0
VERTEX
8
CONTOURS_MINEURES
10
41.999
20
0.695
0
VERTEX
8
CONTOURS_MINEURES
10
43.305
20
0.695
0
VERTEX
8
CONTOURS_MINEURES
10
43.997
20
0.695
0
VERTEX
8
CONTOURS_MINEURES
10
44.446
20
2.003
0
VERTEX
8
CONTOURS_MINEURES
10
44.446
20
3.556
0
VERTEX
8
CONTOURS_MINEURES
10
44.446
20
4.004
0
VERTEX
8
CONTOURS_MINEURES
10
44.820
20
5.184
0
VERTEX
8
CONTOURS_MINEURES
10
45.026
20
6.005
0
VERTEX
8
CONTOURS_MINEURES
10
45.026
20
7.030
0
VERTEX
8
CONTOURS_MINEURES
10
45.026
20
8.005
0
VERTEX
8
CONTOURS_MINEURES
10
45.611
20
9.605
0
VERTEX
8
CONTOURS_MINEURES
10
45.696
20
9.995
0
VERTEX
8
CONTOURS_MINEURES
10
45.696
20
10.303
0
VERTEX
8
CONTOURS_MINEURES
10
45.696
20
11.996
0
VERTEX
8
CONTOURS_MINEURES
10
45.696
20
12.304
0
VERTEX
8
CONTOURS_MINEURES
10
45.696
20
13.997
0
VERTEX
8
CONTOURS_MINEURES
10
46.005
20
14.622
0
VERTEX
8
CONTOURS_MINEURES
10
46.629
20
14.622
0
VERTEX
8
CONTOURS_MINEURES
10
48.003
20
14.622
0
VERTEX
8
CONTOURS_MINEURES
10
48.938
20
15.061
0
VERTEX
8
CONTOURS_MINEURES
10
50.000
20
15.426
0
VERTEX
8
CONTOURS_MINEURES
10
51.427
20
15.426
0
VERTEX
8
CONTOURS_MINEURES
10
51.998
20
15.426
0
VERTEX
8
CONTOURS_MINEURES
10
53.425
20
15.426
0
VERTEX
8
CONTOURS_MINEURES
10
53.996
20
15.426
0
VERTEX
8
CONTOURS_MINEURES
10
55.334
20
14.663
0
VERTEX
8
CONTOURS_MINEURES
10
56.004
20
14.319
0
VERTEX
8
CONTOURS_MINEURES
10
57.679
20
14.319
0
VERTEX
8
CONTOURS_MINEURES
10
58.002
20
14.319
0
VERTEX
8
CONTOURS_MINEURES
10
58.527
20
14.523
0
VERTEX
8
CONTOURS_MINEURES
10
59.999
20
14.997
0
VERTEX
8
CONTOURS_MINEURES
10
60.998
20
14.997
0
VERTEX
8
CONTOURS_MINEURES
10
61.997
20
14.997
0
VERTEX
8
CONTOURS_MINEURES
10
62.417
20
15.579
0
VERTEX
8
CONTOURS_MINEURES
10
62.824
20
15.997
0
VERTEX
8
CONTOURS_MINEURES
10
62.824
20
17.174
0
VERTEX
8
CONTOURS_MINEURES
10
62.824
20
17.998
0
VERTEX
8
CONTOURS_MINEURES
10
64.005
20
19.378
0
VERTEX
8
CONTOURS_MINEURES
10
65.383
20
19.378
0
VERTEX
8
CONTOURS_MINEURES
10
66.003
20
19.378
0
VERTEX
8
CONTOURS_MINEURES
10
66.623
20
19.378
0
VERTEX
8
CONTOURS_MINEURES
10
68.001
20
19.378
0
VERTEX
8
CONTOURS_MINEURES
10
68.474
20
19.525
0
VERTEX
8
CONTOURS_MINEURES
10
69.384
20
19.999
0
VERTEX
8
CONTOURS_MINEURES
10
69.384
20
20.615
0
VERTEX
8
CONTOURS_MINEURES
10
69.384
20
22.000
0
VERTEX
8
CONTOURS_MINEURES
10
69.998
20
22.276
0
VERTEX
8
CONTOURS_MINEURES
10
71.720
20
22.276
0
VERTEX
8
CONTOURS_MINEURES
10
71.996
20
22.276
0
VERTEX
8
CONTOURS_MINEURES
10
72.570
20
22.571
0
VERTEX
8
CONTOURS_MINEURES
10
74.004
20
23.091
0
SEQEND
0
POLYLINE
8
CONTOURS_MINEURES
66
1
70
0
0
VERTEX
8
CONTOURS_MINEURES
10
0.005
20
5.104
0
VERTEX
8
CONTOURS_MINEURES
10
1.104
20
5.104
0
VERTEX
8
CONTOURS_MINEURES
10
2.003
20
5.104
0
VERTEX
8
CONTOURS_MINEURES
10
2.820
20
5.186
0
VERTEX
8
CONTOURS_MINEURES
10
4.001
20
5.004
0
VERTEX
8
CONTOURS_MINEURES
10
4.999
20
5.004
0
VERTEX
8
CONTOURS_MINEURES
10
5.998
20
5.004
0
VERTEX
8
CONTOURS_MINEURES
10
6.997
20
5.004
0
VERTEX
8
CONTOURS_MINEURES
10
7.996
20
5.004
0
VERTEX
8
CONTOURS_MINEURES
10
9.446
20
4.560
0
VERTEX
8
CONTOURS_MINEURES
10
10.004
20
4.389
0
VERTEX
8
CONTOURS_MINEURES
10
11.618
20
4.389
0
VERTEX
8
CONTOURS_MINEURES
10
12.002
20
4.389
0
VERTEX
8
CONTOURS_MINEURES
10
12.245
20
4.248
0
VERTEX
8
CONTOURS_MINEURES
10
12.335
20
4.004
0
VERTEX
8
CONTOURS_MINEURES
10
12.335
20
3.670
0
VERTEX
8
CONTOURS_MINEURES
10
12.335
20
2.003
0
VERTEX
8
CONTOURS_MINEURES
10
12.914
20
0.916
0
VERTEX
8
CONTOURS_MINEURES
10
13.106
20
0.002
0
SEQEND
0
POLYLINE
8
CONTOURS_MINEURES
66
1
70
0
0
VERTEX
8
CONTOURS_MINEURES
10
0.005
20
22.508
0
VERTEX
8
CONTOURS_MINEURES
10
0.513
20
22.508
0
VERTEX
8
CONTOURS_MINEURES
10
2.003
20
22.508
0
VERTEX
8
CONTOURS_MINEURES
10
2.392
20
22.389
0
VERTEX
8
CONTOURS_MINEURES
10
4.001
20
22.176
0
VERTEX
8
CONTOURS_MINEURES
10
5.822
20
22.176
0
VERTEX
8
CONTOURS_MINEURES
10
5.998
20
22.176
0
VERTEX
8
CONTOURS_MINEURES
10
6.174
20
22.176
0
VERTEX
8
CONTOURS_MINEURES
10
7.996
20
22.176
0
VERTEX
8
CONTOURS_MINEURES
10
8.799
20
22.000
0
VERTEX
8
CONTOURS_MINEURES
10
8.799
20
21.199
0
VERTEX
8
CONTOURS_MINEURES
10
8.799
20
19.999
0
VERTEX
8
CONTOURS_MINEURES
10
9.593
20
19.590
0
VERTEX
8
CONTOURS_MINEURES
10
10.004
20
19.590
0
VERTEX
8
CONTOURS_MINEURES
10
10.413
20
19.590
0
VERTEX
8
CONTOURS_MINEURES
10
12.002
20
19.590
0
VERTEX
8
CONTOURS_MINEURES
10
12.488
20
19.512
0
VERTEX
8
CONTOURS_MINEURES
10
14.000
20
18.873
0
VERTEX
8
CONTOURS_MINEURES
10
14.874
20
18.873
0
VERTEX
8
CONTOURS_MINEURES
10
15.997
20
18.873
0
VERTEX
8
CONTOURS_MINEURES
10
17.281
20
18.713
0
VERTEX
8
CONTOURS_MINEURES
10
17.995
20
18.518
0
VERTEX
8
CONTOURS_MINEURES
10
19.482
20
18.518
0
VERTEX
8
CONTOURS_MINEURES
10
20.003
20
18.518
0
VERTEX
8
CONTOURS_MINEURES
10
20.522
20
18.518
0
VERTEX
8
CONTOURS_MINEURES
10
22.001
20
18.518
0
VERTEX
8
CONTOURS_MINEURES
10
23.675
20
18.322
0
VERTEX
8
CONTOURS_MINEURES
10
23.999
20
18.277
0
VERTEX
8
CONTOURS_MINEURES
10
24.277
20
18.277
0
VERTEX
8
CONTOURS_MINEURES
10
25.996
20
18.277
0
VERTEX
8
CONTOURS_MINEURES
10
26.398
20
18.398
0
VERTEX
8
CONTOURS_MINEURES
10
28.005
20
18.427
0
VERTEX
8
CONTOURS_MINEURES
10
29.574
20
18.427
0
VERTEX
8
CONTOURS_MINEURES
10
30.002
20
18.427
0
VERTEX
8
CONTOURS_MINEURES
10
31.518
20
18.481
0
VERTEX
8
CONTOURS_MINEURES
10
32.000
20
19.999
0
VERTEX
8
CONTOURS_MINEURES
10
33.998
20
19.999
0
VERTEX
8
CONTOURS_MINEURES
10
35.995
20
19.999
0
VERTEX
8
CONTOURS_MINEURES
10
35.995
20
22.000
0
VERTEX
8
CONTOURS_MINEURES
10
37.695
20
22.307
0
VERTEX
8
CONTOURS_MINEURES
10
38.004
20
22.706
0
VERTEX
8
CONTOURS_MINEURES
10
38.709
20
22.706
0
VERTEX
8
CONTOURS_MINEURES
10
40.001
20
22.706
0
VERTEX
8
CONTOURS_MINEURES
10
41.714
20
23.715
0
VERTEX
8
CONTOURS_MINEURES
10
41.999
20
23.875
0
VERTEX
8
CONTOURS_MINEURES
10
42.124
20
23.875
0
VERTEX
8
CONTOURS_MINEURES
10
43.997
20
23.875
0
VERTEX
8
CONTOURS_MINEURES
10
45.431
20
23.429
0
VERTEX
8
CONTOURS_MINEURES
10
46.005
20
23.564
0
VERTEX
8
CONTOURS_MINEURES
10
46.441
20
23.564
0
VERTEX
8
CONTOURS_MINEURES
10
48.003
20
23.564
0
VERTEX
8
CONTOURS_MINEURES
10
49.163
20
23.162
0
VERTEX
8
CONTOURS_MINEURES
10
50.000
20
23.151
0
VERTEX
8
CONTOURS_MINEURES
10
51.150
20
23.151
0
VERTEX
8
CONTOURS_MINEURES
10
51.998
20
23.151
0
VERTEX
8
CONTOURS_MINEURES
10
52.846
20
23.151
0
VERTEX
8
CONTOURS_MINEURES
10
53.996
20
23.151
0
VERTEX
8
CONTOURS_MINEURES
10
55.334
20
23.334
0
VERTEX
8
CONTOURS_MINEURES
10
56.004
20
23.263
0
VERTEX
8
CONTOURS_MINEURES
10
57.266
20
23.263
0
VERTEX
8
CONTOURS_MINEURES
10
58.002
20
23.263
0
VERTEX
8
CONTOURS_MINEURES
10
58.520
20
23.482
0
VERTEX
8
CONTOURS_MINEURES
10
59.615
20
24.000
0
VERTEX
8
CONTOURS_MINEURES
10
59.615
20
25.616
0
VERTEX
8
CONTOURS_MINEURES
10
59.615
20
26.001
0
VERTEX
8
CONTOURS_MINEURES
10
59.615
20
26.386
0
VERTEX
8
CONTOURS_MINEURES
10
59.615
20
28.002
0
VERTEX
8
CONTOURS_MINEURES
10
59.880
20
28.121
0
VERTEX
8
CONTOURS_MINEURES
10
59.999
20
28.143
0
VERTEX
8
CONTOURS_MINEURES
10
60.140
20
28.143
0
VERTEX
8
CONTOURS_MINEURES
10
61.997
20
28.143
0
VERTEX
8
CONTOURS_MINEURES
10
62.415
20
28.419
0
VERTEX
8
CONTOURS_MINEURES
10
64.005
20
29.467
0
VERTEX
8
CONTOURS_MINEURES
10
64.540
20
29.467
0
VERTEX
8
CONTOURS_MINEURES
10
66.003
20
29.467
0
VERTEX
8
CONTOURS_MINEURES
10
66.538
20
29.467
0
VERTEX
8
CONTOURS_MINEURES
10
68.001
20
29.467
0
VERTEX
8
CONTOURS_MINEURES
10
69.055
20
30.003
0
VERTEX
8
CONTOURS_MINEURES
10
69.055
20
31.059
0
VERTEX
8
CONTOURS_MINEURES
10
69.055
20
32.004
0
VERTEX
8
CONTOURS_MINEURES
10
69.687
20
32.316
0
VERTEX
8
CONTOURS_MINEURES
10
69.998
20
32.440
0
VERTEX
8
CONTOURS_MINEURES
10
70.434
20
32.440
0
VERTEX
8
CONTOURS_MINEURES
10
71.996
20
32.440
0
VERTEX
8
CONTOURS_MINEURES
10
73.272
20
32.733
0
VERTEX
8
CONTOURS_MINEURES
10
74.004
20
32.950
0
SEQEND
0
POLYLINE
8
CONTOURS_MINEURES
66
1
70
0
0
VERTEX
8
CONTOURS_MINEURES
10
0.005
20
29.320
0
VERTEX
8
CONTOURS_MINEURES
10
1.321
20
29.320
0
VERTEX
8
CONTOURS_MINEURES
10
2.003
20
29.320
0
VERTEX
8
CONTOURS_MINEURES
10
2.868
20
29.137
0
VERTEX
8
CONTOURS_MINEURES
10
4.001
20
28.876
0
VERTEX
8
CONTOURS_MINEURES
10
4.873
20
28.876
0
VERTEX
8
CONTOURS_MINEURES
10
5.998
20
28.876
0
VERTEX
8
CONTOURS_MINEURES
10
6.871
20
28.876
0
VERTEX
8
CONTOURS_MINEURES
10
7.996
20
28.876
0
VERTEX
8
CONTOURS_MINEURES
10
8.775
20
28.778
0
VERTEX
8
CONTOURS_MINEURES
10
10.004
20
28.502
0
VERTEX
8
CONTOURS_MINEURES
10
10.504
20
28.502
0
VERTEX
8
CONTOURS_MINEURES
10
12.002
20
28.502
0
VERTEX
8
CONTOURS_MINEURES
10
13.539
20
28.002
0
VERTEX
8
CONTOURS_MINEURES
10
13.539
20
26.463
0
VERTEX
8
CONTOURS_MINEURES
10
13.539
20
26.001
0
VERTEX
8
CONTOURS_MINEURES
10
13.539
20
25.539
0
VERTEX
8
CONTOURS_MINEURES
10
13.539
20
24.000
0
VERTEX
8
CONTOURS_MINEURES
10
14.000
20
23.829
0
VERTEX
8
CONTOURS_MINEURES
10
14.171
20
23.829
0
VERTEX
8
CONTOURS_MINEURES
10
15.997
20
23.829
0
VERTEX
8
CONTOURS_MINEURES
10
17.215
20
23.219
0
VERTEX
8
CONTOURS_MINEURES
10
17.995
20
23.024
0
VERTEX
8
CONTOURS_MINEURES
10
19.023
20
23.024
0
VERTEX
8
CONTOURS_MINEURES
10
20.003
20
23.024
0
VERTEX
8
CONTOURS_MINEURES
10
20.978
20
23.024
0
VERTEX
8
CONTOURS_MINEURES
10
22.001
20
23.024
0
VERTEX
8
CONTOURS_MINEURES
10
22.796
20
22.796
0
VERTEX
8
CONTOURS_MINEURES
10
23.999
20
22.660
0
VERTEX
8
CONTOURS_MINEURES
10
25.337
20
22.660
0
VERTEX
8
CONTOURS_MINEURES
10
25.996
20
22.660
0
VERTEX
8
CONTOURS_MINEURES
10
27.075
20
22.926
0
VERTEX
8
CONTOURS_MINEURES
10
28.005
20
23.077
0
VERTEX
8
CONTOURS_MINEURES
10
29.080
20
23.077
0
VERTEX
8
CONTOURS_MINEURES
10
30.002
20
23.077
0
VERTEX
8
CONTOURS_MINEURES
10
30.650
20
23.352
0
VERTEX
8
CONTOURS_MINEURES
10
31.172
20
24.000
0
VERTEX
8
CONTOURS_MINEURES
10
31.172
20
25.172
0
VERTEX
8
CONTOURS_MINEURES
10
31.172
20
26.001
0
VERTEX
8
CONTOURS_MINEURES
10
31.172
20
27.172
0
VERTEX
8
CONTOURS_MINEURES
10
31.172
20
28.002
0
VERTEX
8
CONTOURS_MINEURES
10
31.544
20
28.459
0
VERTEX
8
CONTOURS_MINEURES
10
32.000
20
28.682
0
VERTEX
8
CONTOURS_MINEURES
10
32.679
20
28.682
0
VERTEX
8
CONTOURS_MINEURES
10
33.998
20
28.682
0
VERTEX
8
CONTOURS_MINEURES
10
34.677
20
28.682
0
VERTEX
8
CONTOURS_MINEURES
10
35.995
20
28.682
0
VERTEX
8
CONTOURS_MINEURES
10
36.916
20
29.086
0
VERTEX
8
CONTOURS_MINEURES
10
38.004
20
29.488
0
VERTEX
8
CONTOURS_MINEURES
10
39.488
20
29.488
0
VERTEX
8
CONTOURS_MINEURES
10
40.001
20
29.488
0
VERTEX
8
CONTOURS_MINEURES
10
41.834
20
29.838
0
VERTEX
8
CONTOURS_MINEURES
10
41.999
20
29.869
0
VERTEX
8
CONTOURS_MINEURES
10
42.132
20
29.869
0
VERTEX
8
CONTOURS_MINEURES
10
43.997
20
29.869
0
VERTEX
8
CONTOURS_MINEURES
10
44.145
20
29.855
0
VERTEX
8
CONTOURS_MINEURES
10
46.005
20
29.763
0
VERTEX
8
CONTOURS_MINEURES
10
47.763
20
29.763
0
VERTEX
8
CONTOURS_MINEURES
10
48.003
20
29.763
0
VERTEX
8
CONTOURS_MINEURES
10
49.893
20
29.895
0
VERTEX
8
CONTOURS_MINEURES
10
50.000
20
29.868
0
VERTEX
8
CONTOURS_MINEURES
10
50.135
20
29.868
0
VERTEX
8
CONTOURS_MINEURES
10
51.998
20
29.868
0
VERTEX
8
CONTOURS_MINEURES
10
53.861
20
29.868
0
VERTEX
8
CONTOURS_MINEURES
10
53.996
20
29.868
0
VERTEX
8
CONTOURS_MINEURES
10
54.382
20
30.003
0
VERTEX
8
CONTOURS_MINEURES
10
54.382
20
31.619
0
VERTEX
8
CONTOURS_MINEURES
10
54.382
20
32.004
0
VERTEX
8
CONTOURS_MINEURES
10
56.004
20
32.767
0
VERTEX
8
CONTOURS_MINEURES
10
57.239
20
32.767
0
VERTEX
8
CONTOURS_MINEURES
10
58.002
20
32.767
0
VERTEX
8
CONTOURS_MINEURES
10
59.273
20
33.277
0
VERTEX
8
CONTOURS_MINEURES
10
59.999
20
33.482
0
VERTEX
8
CONTOURS_MINEURES
10
60.520
20
33.482
0
VERTEX
8
CONTOURS_MINEURES
10
61.997
20
33.482
0
VERTEX
8
CONTOURS_MINEURES
10
63.202
20
34.004
0
VERTEX
8
CONTOURS_MINEURES
10
63.202
20
34.805
0
VERTEX
8
CONTOURS_MINEURES
10
63.202
20
36.005
0
VERTEX
8
CONTOURS_MINEURES
10
63.202
20
37.199
0
VERTEX
8
CONTOURS_MINEURES
10
63.202
20
37.995
0
VERTEX
8
CONTOURS_MINEURES
10
63.802
20
38.197
0
VERTEX
8
CONTOURS_MINEURES
10
64.005
20
38.286
0
VERTEX
8
CONTOURS_MINEURES
10
64.296
20
38.286
0
VERTEX
8
CONTOURS_MINEURES
10
66.003
20
38.286
0
VERTEX
8
CONTOURS_MINEURES
10
66.294
20
38.286
0
VERTEX
8
CONTOURS_MINEURES
10
68.001
20
38.286
0
VERTEX
8
CONTOURS_MINEURES
10
68.390
20
38.385
0
VERTEX
8
CONTOURS_MINEURES
10
69.998
20
39.079
0
VERTEX
8
CONTOURS_MINEURES
10
70.914
20
39.079
0
VERTEX
8
CONTOURS_MINEURES
10
71.996
20
39.079
0
VERTEX
8
CONTOURS_MINEURES
10
73.259
20
39.253
0
VERTEX
8
CONTOURS_MINEURES
10
74.004
20
39.448
0
SEQEND
0
POLYLINE
8
CONTOURS_MINEURES
66
1
70
0
0
VERTEX
8
CONTOURS_MINEURES
10
0.005
20
33.736
0
VERTEX
8
CONTOURS_MINEURES
10
1.735
20
33.736
0
VERTEX
8
CONTOURS_MINEURES
10
2.003
20
33.736
0
VERTEX
8
CONTOURS_MINEURES
10
3.561
20
33.565
0
VERTEX
8
CONTOURS_MINEURES
10
4.001
20
33.441
0
VERTEX
8
CONTOURS_MINEURES
10
4.563
20
33.441
0
VERTEX
8
CONTOURS_MINEURES
10
5.998
20
33.441
0
VERTEX
8
CONTOURS_MINEURES
10
6.561
20
33.441
0
VERTEX
8
CONTOURS_MINEURES
10
7.996
20
33.441
0
VERTEX
8
CONTOURS_MINEURES
10
8.665
20
33.337
0
VERTEX
8
CONTOURS_MINEURES
10
10.004
20
33.085
0
VERTEX
8
CONTOURS_MINEURES
10
10.922
20
33.085
0
VERTEX
8
CONTOURS_MINEURES
10
12.002
20
33.085
0
VERTEX
8
CONTOURS_MINEURES
10
12.852
20
32.855
0
VERTEX
8
CONTOURS_MINEURES
10
14.000
20
32.483
0
VERTEX
8
CONTOURS_MINEURES
10
14.478
20
32.483
0
VERTEX
8
CONTOURS_MINEURES
10
15.997
20
32.483
0
VERTEX
8
CONTOURS_MINEURES
10
17.210
20
32.004
0
VERTEX
8
CONTOURS_MINEURES
10
17.210
20
30.789
0
VERTEX
8
CONTOURS_MINEURES
10
17.210
20
30.003
0
VERTEX
8
CONTOURS_MINEURES
10
17.786
20
29.793
0
VERTEX
8
CONTOURS_MINEURES
10
17.995
20
29.688
0
VERTEX
8
CONTOURS_MINEURES
10
18.310
20
29.688
0
VERTEX
8
CONTOURS_MINEURES
10
20.003
20
29.688
0
VERTEX
8
CONTOURS_MINEURES
10
20.317
20
29.688
0
VERTEX
8
CONTOURS_MINEURES
10
22.001
20
29.688
0
VERTEX
8
CONTOURS_MINEURES
10
23.474
20
29.478
0
VERTEX
8
CONTOURS_MINEURES
10
23.999
20
29.252
0
VERTEX
8
CONTOURS_MINEURES
10
24.748
20
29.252
0
VERTEX
8
CONTOURS_MINEURES
10
25.996
20
29.252
0
VERTEX
8
CONTOURS_MINEURES
10
27.402
20
29.403
0
VERTEX
8
CONTOURS_MINEURES
10
28.005
20
29.555
0
VERTEX
8
CONTOURS_MINEURES
10
29.555
20
29.555
0
VERTEX
8
CONTOURS_MINEURES
10
30.002
20
29.555
0
VERTEX
8
CONTOURS_MINEURES
10
30.203
20
29.801
0
VERTEX
8
CONTOURS_MINEURES
10
30.614
20
30.003
0
VERTEX
8
CONTOURS_MINEURES
10
30.614
20
30.615
0
VERTEX
8
CONTOURS_MINEURES
10
30.614
20
32.004
0
VERTEX
8
CONTOURS_MINEURES
10
31.262
20
32.743
0
VERTEX
8
CONTOURS_MINEURES
10
32.000
20
33.019
0
VERTEX
8
CONTOURS_MINEURES
10
33.014
20
33.019
0
VERTEX
8
CONTOURS_MINEURES
10
33.998
20
33.019
0
VERTEX
8
CONTOURS_MINEURES
10
35.011
20
33.019
0
VERTEX
8
CONTOURS_MINEURES
10
35.995
20
33.019
0
VERTEX
8
CONTOURS_MINEURES
10
36.620
20
33.381
0
VERTEX
8
CONTOURS_MINEURES
10
38.004
20
33.807
0
VERTEX
8
CONTOURS_MINEURES
10
39.804
20
33.807
0
VERTEX
8
CONTOURS_MINEURES
10
40.001
20
33.807
0
VERTEX
8
CONTOURS_MINEURES
10
40.159
20
33.846
0
VERTEX
8
CONTOURS_MINEURES
10
40.762
20
34.004
0
VERTEX
8
CONTOURS_MINEURES
10
40.762
20
34.767
0
VERTEX
8
CONTOURS_MINEURES
10
40.762
20
36.005
0
VERTEX
8
CONTOURS_MINEURES
10
40.762
20
36.763
0
VERTEX
8
CONTOURS_MINEURES
10
40.762
20
37.995
0
VERTEX
8
CONTOURS_MINEURES
10
41.693
20
38.301
0
VERTEX
8
CONTOURS_MINEURES
10
41.999
20
38.351
0
VERTEX
8
CONTOURS_MINEURES
10
42.355
20
38.351
0
VERTEX
8
CONTOURS_MINEURES
10
43.997
20
38.351
0
VERTEX
8
CONTOURS_MINEURES
10
45.582
20
38.416
0
VERTEX
8
CONTOURS_MINEURES
10
46.005
20
38.487
0
VERTEX
8
CONTOURS_MINEURES
10
47.511
20
38.487
0
VERTEX
8
CONTOURS_MINEURES
10
48.003
20
38.487
0
VERTEX
8
CONTOURS_MINEURES
10
48.617
20
38.610
0
VERTEX
8
CONTOURS_MINEURES
10
50.000
20
39.022
0
VERTEX
8
CONTOURS_MINEURES
10
50.972
20
39.022
0
VERTEX
8
CONTOURS_MINEURES
10
51.998
20
39.022
0
VERTEX
8
CONTOURS_MINEURES
10
53.024
20
39.022
0
VERTEX
8
CONTOURS_MINEURES
10
53.996
20
39.022
0
VERTEX
8
CONTOURS_MINEURES
10
55.436
20
39.429
0
VERTEX
8
CONTOURS_MINEURES
10
56.004
20
39.625
0
VERTEX
8
CONTOURS_MINEURES
10
56.374
20
39.625
0
VERTEX
8
CONTOURS_MINEURES
10
58.002
20
39.625
0
VERTEX
8
CONTOURS_MINEURES
10
58.293
20
39.704
0
VERTEX
8
CONTOURS_MINEURES
10
58.683
20
39.996
0
VERTEX
8
CONTOURS_MINEURES
10
58.683
20
40.678
0
VERTEX
8
CONTOURS_MINEURES
10
58.683
20
41.996
0
VERTEX
8
CONTOURS_MINEURES
10
59.999
20
42.641
0
VERTEX
8
CONTOURS_MINEURES
10
61.353
20
42.641
0
VERTEX
8
CONTOURS_MINEURES
10
61.997
20
42.641
0
VERTEX
8
CONTOURS_MINEURES
10
63.853
20
43.997
0
VERTEX
8
CONTOURS_MINEURES
10
63.853
20
44.149
0
VERTEX
8
CONTOURS_MINEURES
10
63.853
20
45.998
0
VERTEX
8
CONTOURS_MINEURES
10
63.955
20
46.048
0
VERTEX
8
CONTOURS_MINEURES
10
64.005
20
46.056
0
VERTEX
8
CONTOURS_MINEURES
10
65.945
20
46.056
0
VERTEX
8
CONTOURS_MINEURES
10
66.003
20
46.056
0
VERTEX
8
CONTOURS_MINEURES
10
66.061
20
46.056
0
VERTEX
8
CONTOURS_MINEURES
10
68.001
20
46.056
0
VERTEX
8
CONTOURS_MINEURES
10
69.786
20
46.211
0
VERTEX
8
CONTOURS_MINEURES
10
69.998
20
46.213
0
VERTEX
8
CONTOURS_MINEURES
10
70.213
20
46.213
0
VERTEX
8
CONTOURS_MINEURES
10
71.996
20
46.213
0
VERTEX
8
CONTOURS_MINEURES
10
72.219
20
46.220
0
VERTEX
8
CONTOURS_MINEURES
10
74.004
20
46.148
0
SEQEND
0
POLYLINE
8
CONTOURS_MINEURES
66
1
70
0
0
VERTEX
8
CONTOURS_MINEURES
10
0.005
20
42.781
0
VERTEX
8
CONTOURS_MINEURES
10
1.219
20
42.781
0
VERTEX
8
CONTOURS_MINEURES
10
2.003
20
42.781
0
VERTEX
8
CONTOURS_MINEURES
10
2.622
20
42.617
0
VERTEX
8
CONTOURS_MINEURES
10
4.001
20
42.271
0
VERTEX
8
CONTOURS_MINEURES
10
4.275
20
42.271
0
VERTEX
8
CONTOURS_MINEURES
10
5.998
20
42.271
0
VERTEX
8
CONTOURS_MINEURES
10
7.721
20
42.271
0
VERTEX
8
CONTOURS_MINEURES
10
7.996
20
42.271
0
VERTEX
8
CONTOURS_MINEURES
10
8.846
20
41.996
0
VERTEX
8
CONTOURS_MINEURES
10
8.846
20
40.842
0
VERTEX
8
CONTOURS_MINEURES
10
8.846
20
39.996
0
VERTEX
8
CONTOURS_MINEURES
10
10.004
20
39.625
0
VERTEX
8
CONTOURS_MINEURES
10
11.632
20
39.625
0
VERTEX
8
CONTOURS_MINEURES
10
12.002
20
39.625
0
VERTEX
8
CONTOURS_MINEURES
10
12.493
20
39.504
0
VERTEX
8
CONTOURS_MINEURES
10
14.000
20
39.310
0
VERTEX
8
CONTOURS_MINEURES
10
14.684
20
39.310
0
VERTEX
8
CONTOURS_MINEURES
10
15.997
20
39.310
0
VERTEX
8
CONTOURS_MINEURES
10
16.796
20
39.195
0
VERTEX
8
CONTOURS_MINEURES
10
17.995
20
39.070
0
VERTEX
8
CONTOURS_MINEURES
10
19.074
20
39.070
0
VERTEX
8
CONTOURS_MINEURES
10
20.003
20
39.070
0
VERTEX
8
CONTOURS_MINEURES
10
20.927
20
39.070
0
VERTEX
8
CONTOURS_MINEURES
10
22.001
20
39.070
0
VERTEX
8
CONTOURS_MINEURES
10
22.984
20
39.011
0
VERTEX
8
CONTOURS_MINEURES
10
23.999
20
39.226
0
VERTEX
8
CONTOURS_MINEURES
10
25.228
20
39.226
0
VERTEX
8
CONTOURS_MINEURES
10
25.996
20
39.226
0
VERTEX
8
CONTOURS_MINEURES
10
26.644
20
39.350
0
VERTEX
8
CONTOURS_MINEURES
10
27.670
20
39.996
0
VERTEX
8
CONTOURS_MINEURES
10
27.670
20
40.329
0
VERTEX
8
CONTOURS_MINEURES
10
27.670
20
41.996
0
VERTEX
8
CONTOURS_MINEURES
10
27.896
20
42.105
0
VERTEX
8
CONTOURS_MINEURES
10
28.005
20
42.119
0
VERTEX
8
CONTOURS_MINEURES
10
28.127
20
42.119
0
VERTEX
8
CONTOURS_MINEURES
10
30.002
20
42.119
0
VERTEX
8
CONTOURS_MINEURES
10
31.585
20
42.412
0
VERTEX
8
CONTOURS_MINEURES
10
32.000
20
42.460
0
VERTEX
8
CONTOURS_MINEURES
10
32.463
20
42.460
0
VERTEX
8
CONTOURS_MINEURES
10
33.998
20
42.460
0
VERTEX
8
CONTOURS_MINEURES
10
35.532
20
42.460
0
VERTEX
8
CONTOURS_MINEURES
10
35.995
20
42.460
0
VERTEX
8
CONTOURS_MINEURES
10
36.468
20
42.467
0
VERTEX
8
CONTOURS_MINEURES
10
38.004
20
42.697
0
VERTEX
8
CONTOURS_MINEURES
10
39.302
20
42.697
0
VERTEX
8
CONTOURS_MINEURES
10
40.001
20
42.697
0
VERTEX
8
CONTOURS_MINEURES
10
41.130
20
42.866
0
VERTEX
8
CONTOURS_MINEURES
10
41.999
20
42.857
0
VERTEX
8
CONTOURS_MINEURES
10
43.137
20
42.857
0
VERTEX
8
CONTOURS_MINEURES
10
43.997
20
42.857
0
VERTEX
8
CONTOURS_MINEURES
10
44.942
20
42.938
0
VERTEX
8
CONTOURS_MINEURES
10
46.005
20
43.059
0
VERTEX
8
CONTOURS_MINEURES
10
46.941
20
43.059
0
VERTEX
8
CONTOURS_MINEURES
10
48.003
20
43.059
0
VERTEX
8
CONTOURS_MINEURES
10
49.245
20
43.241
0
VERTEX
8
CONTOURS_MINEURES
10
50.000
20
43.344
0
VERTEX
8
CONTOURS_MINEURES
10
50.652
20
43.344
0
VERTEX
8
CONTOURS_MINEURES
10
51.998
20
43.344
0
VERTEX
8
CONTOURS_MINEURES
10
53.344
20
43.344
0
VERTEX
8
CONTOURS_MINEURES
10
53.996
20
43.344
0
VERTEX
8
CONTOURS_MINEURES
10
54.532
20
43.462
0
VERTEX
8
CONTOURS_MINEURES
10
56.004
20
43.732
0
VERTEX
8
CONTOURS_MINEURES
10
56.269
20
43.732
0
VERTEX
8
CONTOURS_MINEURES
10
58.002
20
43.732
0
VERTEX
8
CONTOURS_MINEURES
10
58.501
20
43.997
0
VERTEX
8
CONTOURS_MINEURES
10
58.501
20
45.498
0
VERTEX
8
CONTOURS_MINEURES
10
58.501
20
45.998
0
VERTEX
8
CONTOURS_MINEURES
10
59.480
20
46.518
0
VERTEX
8
CONTOURS_MINEURES
10
59.999
20
46.589
0
VERTEX
8
CONTOURS_MINEURES
10
60.589
20
46.589
0
VERTEX
8
CONTOURS_MINEURES
10
61.997
20
46.589
0
VERTEX
8
CONTOURS_MINEURES
10
62.940
20
47.059
0
VERTEX
8
CONTOURS_MINEURES
10
64.005
20
47.212
0
VERTEX
8
CONTOURS_MINEURES
10
64.790
20
47.212
0
VERTEX
8
CONTOURS_MINEURES
10
66.003
20
47.212
0
VERTEX
8
CONTOURS_MINEURES
10
67.215
20
47.212
0
VERTEX
8
CONTOURS_MINEURES
10
68.001
20
47.212
0
VERTEX
8
CONTOURS_MINEURES
10
68.723
20
47.275
0
VERTEX
8
CONTOURS_MINEURES
10
69.998
20
47.289
0
VERTEX
8
CONTOURS_MINEURES
10
71.287
20
47.289
0
VERTEX
8
CONTOURS_MINEURES
10
71.996
20
47.289
0
VERTEX
8
CONTOURS_MINEURES
10
73.335
20
47.332
0
VERTEX
8
CONTOURS_MINEURES
10
74.004
20
47.305
0
SEQEND
0
POLYLINE
8
CONTOURS_MINEURES
66
1
70
0
0
VERTEX
8
CONTOURS_MINEURES
10
0.005
20
47.060
0
VERTEX
8
CONTOURS_MINEURES
10
0.943
20
47.060
0
VERTEX
8
CONTOURS_MINEURES
10
2.003
20
47.060
0
VERTEX
8
CONTOURS_MINEURES
10
3.196
20
46.803
0
VERTEX
8
CONTOURS_MINEURES
10
4.001
20
46.764
0
VERTEX
8
CONTOURS_MINEURES
10
4.765
20
46.764
0
VERTEX
8
CONTOURS_MINEURES
10
5.998
20
46.764
0
VERTEX
8
CONTOURS_MINEURES
10
7.231
20
46.764
0
VERTEX
8
CONTOURS_MINEURES
10
7.996
20
46.764
0
VERTEX
8
CONTOURS_MINEURES
10
9.444
20
47.440
0
VERTEX
8
CONTOURS_MINEURES
10
10.004
20
47.465
0
VERTEX
8
CONTOURS_MINEURES
10
11.469
20
47.465
0
VERTEX
8
CONTOURS_MINEURES
10
12.002
20
47.465
0
VERTEX
8
CONTOURS_MINEURES
10
12.389
20
47.611
0
VERTEX
8
CONTOURS_MINEURES
10
13.600
20
47.999
0
VERTEX
8
CONTOURS_MINEURES
10
13.600
20
49.599
0
VERTEX
8
CONTOURS_MINEURES
10
13.600
20
49.999
0
VERTEX
8
CONTOURS_MINEURES
10
13.600
20
51.600
0
VERTEX
8
CONTOURS_MINEURES
10
13.600
20
52.000
0
VERTEX
8
CONTOURS_MINEURES
10
14.000
20
52.062
0
VERTEX
8
CONTOURS_MINEURES
10
15.935
20
52.062
0
VERTEX
8
CONTOURS_MINEURES
10
15.997
20
52.062
0
VERTEX
8
CONTOURS_MINEURES
10
16.062
20
52.065
0
VERTEX
8
CONTOURS_MINEURES
10
16.425
20
52.000
0
VERTEX
8
CONTOURS_MINEURES
10
16.425
20
51.571
0
VERTEX
8
CONTOURS_MINEURES
10
16.425
20
49.999
0
VERTEX
8
CONTOURS_MINEURES
10
16.425
20
48.427
0
VERTEX
8
CONTOURS_MINEURES
10
16.425
20
47.999
0
VERTEX
8
CONTOURS_MINEURES
10
17.635
20
47.638
0
VERTEX
8
CONTOURS_MINEURES
10
17.995
20
47.583
0
VERTEX
8
CONTOURS_MINEURES
10
19.586
20
47.583
0
VERTEX
8
CONTOURS_MINEURES
10
20.003
20
47.583
0
VERTEX
8
CONTOURS_MINEURES
10
20.418
20
47.583
0
VERTEX
8
CONTOURS_MINEURES
10
22.001
20
47.583
0
VERTEX
8
CONTOURS_MINEURES
10
23.063
20
47.062
0
VERTEX
8
CONTOURS_MINEURES
10
23.999
20
46.894
0
VERTEX
8
CONTOURS_MINEURES
10
25.102
20
46.894
0
VERTEX
8
CONTOURS_MINEURES
10
25.996
20
46.894
0
VERTEX
8
CONTOURS_MINEURES
10
26.974
20
47.025
0
VERTEX
8
CONTOURS_MINEURES
10
28.005
20
47.011
0
VERTEX
8
CONTOURS_MINEURES
10
29.016
20
47.011
0
VERTEX
8
CONTOURS_MINEURES
10
30.002
20
47.011
0
VERTEX
8
CONTOURS_MINEURES
10
31.069
20
47.067
0
VERTEX
8
CONTOURS_MINEURES
10
32.000
20
47.159
0
VERTEX
8
CONTOURS_MINEURES
10
32.838
20
47.159
0
VERTEX
8
CONTOURS_MINEURES
10
33.998
20
47.159
0
VERTEX
8
CONTOURS_MINEURES
10
34.836
20
47.159
0
VERTEX
8
CONTOURS_MINEURES
10
35.995
20
47.159
0
VERTEX
8
CONTOURS_MINEURES
10
36.828
20
47.169
0
VERTEX
8
CONTOURS_MINEURES
10
38.004
20
47.155
0
VERTEX
8
CONTOURS_MINEURES
10
39.159
20
47.155
0
VERTEX
8
CONTOURS_MINEURES
10
40.001
20
47.155
0
VERTEX
8
CONTOURS_MINEURES
10
41.011
20
47.009
0
VERTEX
8
CONTOURS_MINEURES
10
41.999
20
46.998
0
VERTEX
8
CONTOURS_MINEURES
10
42.998
20
46.998
0
VERTEX
8
CONTOURS_MINEURES
10
43.997
20
46.998
0
VERTEX
8
CONTOURS_MINEURES
10
44.990
20
46.988
0
VERTEX
8
CONTOURS_MINEURES
10
46.005
20
47.066
0
VERTEX
8
CONTOURS_MINEURES
10
47.072
20
47.066
0
VERTEX
8
CONTOURS_MINEURES
10
48.003
20
47.066
0
VERTEX
8
CONTOURS_MINEURES
10
49.251
20
47.248
0
VERTEX
8
CONTOURS_MINEURES
10
50.000
20
47.351
0
VERTEX
8
CONTOURS_MINEURES
10
50.647
20
47.351
0
VERTEX
8
CONTOURS_MINEURES
10
51.998
20
47.351
0
VERTEX
8
CONTOURS_MINEURES
10
52.644
20
47.351
0
VERTEX
8
CONTOURS_MINEURES
10
53.996
20
47.351
0
VERTEX
8
CONTOURS_MINEURES
10
54.548
20
47.448
0
VERTEX
8
CONTOURS_MINEURES
10
56.004
20
47.774
0
VERTEX
8
CONTOURS_MINEURES
10
57.777
20
47.774
0
VERTEX
8
CONTOURS_MINEURES
10
58.002
20
47.774
0
VERTEX
8
CONTOURS_MINEURES
10
58.148
20
47.852
0
VERTEX
8
CONTOURS_MINEURES
10
59.222
20
47.999
0
VERTEX
8
CONTOURS_MINEURES
10
59.222
20
49.221
0
VERTEX
8
CONTOURS_MINEURES
10
59.222
20
49.999
0
VERTEX
8
CONTOURS_MINEURES
10
59.222
20
51.222
0
VERTEX
8
CONTOURS_MINEURES
10
59.222
20
52.000
0
VERTEX
8
CONTOURS_MINEURES
10
59.906
20
52.094
0
VERTEX
8
CONTOURS_MINEURES
10
59.999
20
52.100
0
VERTEX
8
CONTOURS_MINEURES
10
60.098
20
52.100
0
VERTEX
8
CONTOURS_MINEURES
10
61.997
20
52.100
0
VERTEX
8
CONTOURS_MINEURES
10
62.088
20
52.091
0
VERTEX
8
CONTOURS_MINEURES
10
64.005
20
52.358
0
VERTEX
8
CONTOURS_MINEURES
10
65.646
20
52.358
0
VERTEX
8
CONTOURS_MINEURES
10
66.003
20
52.358
0
VERTEX
8
CONTOURS_MINEURES
10
66.360
20
52.358
0
VERTEX
8
CONTOURS_MINEURES
10
68.001
20
52.358
0
VERTEX
8
CONTOURS_MINEURES
10
69.623
20
52.376
0
VERTEX
8
CONTOURS_MINEURES
10
69.998
20
52.342
0
VERTEX
8
CONTOURS_MINEURES
10
70.340
20
52.342
0
VERTEX
8
CONTOURS_MINEURES
10
71.996
20
52.342
0
VERTEX
8
CONTOURS_MINEURES
10
73.612
20
52.391
0
VERTEX
8
CONTOURS_MINEURES
10
74.004
20
52.419
0
SEQEND
0
POLYLINE
8
CONTOURS_MINEURES
66
1
70
0
0
VERTEX
8
CONTOURS_MINEURES
10
23.293
20
56.002
0
VERTEX
8
CONTOURS_MINEURES
10
23.293
20
55.296
0
VERTEX
8
CONTOURS_MINEURES
10
23.293
20
54.001
0
VERTEX
8
CONTOURS_MINEURES
10
23.999
20
53.827
0
VERTEX
8
CONTOURS_MINEURES
10
25.822
20
53.827
0
VERTEX
8
CONTOURS_MINEURES
10
25.996
20
53.827
0
VERTEX
8
CONTOURS_MINEURES
10
26.173
20
53.824
0
VERTEX
8
CONTOURS_MINEURES
10
28.005
20
53.551
0
VERTEX
8
CONTOURS_MINEURES
10
28.454
20
53.551
0
VERTEX
8
CONTOURS_MINEURES
10
30.002
20
53.551
0
VERTEX
8
CONTOURS_MINEURES
10
31.394
20
53.394
0
VERTEX
8
CONTOURS_MINEURES
10
32.000
20
53.420
0
VERTEX
8
CONTOURS_MINEURES
10
32.580
20
53.420
0
VERTEX
8
CONTOURS_MINEURES
10
33.998
20
53.420
0
VERTEX
8
CONTOURS_MINEURES
10
35.415
20
53.420
0
VERTEX
8
CONTOURS_MINEURES
10
35.995
20
53.420
0
VERTEX
8
CONTOURS_MINEURES
10
36.585
20
53.414
0
VERTEX
8
CONTOURS_MINEURES
10
38.004
20
53.327
0
VERTEX
8
CONTOURS_MINEURES
10
38.676
20
53.327
0
VERTEX
8
CONTOURS_MINEURES
10
40.001
20
53.327
0
VERTEX
8
CONTOURS_MINEURES
10
41.161
20
53.161
0
VERTEX
8
CONTOURS_MINEURES
10
41.999
20
53.061
0
VERTEX
8
CONTOURS_MINEURES
10
42.938
20
53.061
0
VERTEX
8
CONTOURS_MINEURES
10
43.997
20
53.061
0
VERTEX
8
CONTOURS_MINEURES
10
44.991
20
52.991
0
VERTEX
8
CONTOURS_MINEURES
10
46.005
20
52.982
0
VERTEX
8
CONTOURS_MINEURES
10
47.023
20
52.982
0
VERTEX
8
CONTOURS_MINEURES
10
48.003
20
52.982
0
VERTEX
8
CONTOURS_MINEURES
10
48.894
20
53.108
0
VERTEX
8
CONTOURS_MINEURES
10
50.000
20
53.099
0
VERTEX
8
CONTOURS_MINEURES
10
51.097
20
53.099
0
VERTEX
8
CONTOURS_MINEURES
10
51.998
20
53.099
0
VERTEX
8
CONTOURS_MINEURES
10
52.899
20
53.099
0
VERTEX
8
CONTOURS_MINEURES
10
53.996
20
53.099
0
VERTEX
8
CONTOURS_MINEURES
10
54.763
20
53.237
0
VERTEX
8
CONTOURS_MINEURES
10
56.004
20
53.349
0
VERTEX
8
CONTOURS_MINEURES
10
57.351
20
53.349
0
VERTEX
8
CONTOURS_MINEURES
10
58.002
20
53.349
0
VERTEX
8
CONTOURS_MINEURES
10
58.574
20
53.427
0
VERTEX
8
CONTOURS_MINEURES
10
59.999
20
53.519
0
VERTEX
8
CONTOURS_MINEURES
10
61.515
20
53.519
0
VERTEX
8
CONTOURS_MINEURES
10
61.997
20
53.519
0
VERTEX
8
CONTOURS_MINEURES
10
63.392
20
53.390
0
VERTEX
8
CONTOURS_MINEURES
10
64.005
20
53.476
0
VERTEX
8
CONTOURS_MINEURES
10
64.530
20
53.476
0
VERTEX
8
CONTOURS_MINEURES
10
66.003
20
53.476
0
VERTEX
8
CONTOURS_MINEURES
10
67.476
20
53.476
0
VERTEX
8
CONTOURS_MINEURES
10
68.001
20
53.476
0
VERTEX
8
CONTOURS_MINEURES
10
68.519
20
53.481
0
VERTEX
8
CONTOURS_MINEURES
10
69.998
20
53.347
0
VERTEX
8
CONTOURS_MINEURES
10
71.343
20
53.347
0
VERTEX
8
CONTOURS_MINEURES
10
71.996
20
53.347
0
VERTEX
8
CONTOURS_MINEURES
10
72.633
20
53.367
0
VERTEX
8
CONTOURS_MINEURES
10
74.004
20
53.467
0
SEQEND
0
POLYLINE
8
CONTOURS_MINEURES
66
1
70
0
0
VERTEX
8
CONTOURS_MINEURES
10
0.005
20
53.480
0
VERTEX
8
CONTOURS_MINEURES
10
1.483
20
53.480
0
VERTEX
8
CONTOURS_MINEURES
10
2.003
20
53.480
0
VERTEX
8
CONTOURS_MINEURES
10
2.553
20
53.450
0
VERTEX
8
CONTOURS_MINEURES
10
4.001
20
53.409
0
VERTEX
8
CONTOURS_MINEURES
10
5.407
20
53.409
0
VERTEX
8
CONTOURS_MINEURES
10
5.998
20
53.409
0
VERTEX
8
CONTOURS_MINEURES
10
6.589
20
53.409
0
VERTEX
8
CONTOURS_MINEURES
10
7.996
20
53.409
0
VERTEX
8
CONTOURS_MINEURES
10
9.822
20
53.819
0
VERTEX
8
CONTOURS_MINEURES
10
10.004
20
53.893
0
VERTEX
8
CONTOURS_MINEURES
10
10.112
20
53.893
0
VERTEX
8
CONTOURS_MINEURES
10
12.002
20
53.893
0
VERTEX
8
CONTOURS_MINEURES
10
12.910
20
54.001
0
VERTEX
8
CONTOURS_MINEURES
10
12.910
20
55.092
0
VERTEX
8
CONTOURS_MINEURES
10
12.910
20
56.002
0
SEQEND
0
POLYLINE
8
CONTOURS_MAJEURES
66
1
70
0
0
VERTEX
8
CONTOURS_MAJEURES
10
72.145
20
4.004
0
VERTEX
8
CONTOURS_MAJEURES
10
72.145
20
2.151
0
VERTEX
8
CONTOURS_MAJEURES
10
72.145
20
2.003
0
VERTEX
8
CONTOURS_MAJEURES
10
72.111
20
1.889
0
VERTEX
8
CONTOURS_MAJEURES
10
71.996
20
1.431
0
VERTEX
8
CONTOURS_MAJEURES
10
71.425
20
1.431
0
VERTEX
8
CONTOURS_MAJEURES
10
69.998
20
1.431
0
VERTEX
8
CONTOURS_MAJEURES
10
69.808
20
1.812
0
VERTEX
8
CONTOURS_MAJEURES
10
69.599
20
2.003
0
VERTEX
8
CONTOURS_MAJEURES
10
69.599
20
2.403
0
VERTEX
8
CONTOURS_MAJEURES
10
69.599
20
4.004
0
VERTEX
8
CONTOURS_MAJEURES
10
69.998
20
4.404
0
VERTEX
8
CONTOURS_MAJEURES
10
70.398
20
4.404
0
VERTEX
8
CONTOURS_MAJEURES
10
71.996
20
4.404
0
VERTEX
8
CONTOURS_MAJEURES
10
72.145
20
4.004
0
SEQEND
0
POLYLINE
8
CONTOURS_MAJEURES
66
1
70
0
0
VERTEX
8
CONTOURS_MAJEURES
10
0.005
20
42.781
0
VERTEX
8
CONTOURS_MAJEURES
10
1.219
20
42.781
0
VERTEX
8
CONTOURS_MAJEURES
10
2.003
20
42.781
0
VERTEX
8
CONTOURS_MAJEURES
10
2.622
20
42.617
0
VERTEX
8
CONTOURS_MAJEURES
10
4.001
20
42.271
0
VERTEX
8
CONTOURS_MAJEURES
10
4.275
20
42.271
0
VERTEX
8
CONTOURS_MAJEURES
10
5.998
20
42.271
0
VERTEX
8
CONTOURS_MAJEURES
10
7.721
20
42.271
0
VERTEX
8
CONTOURS_MAJEURES
10
7.996
20
42.271
0
VERTEX
8
CONTOURS_MAJEURES
10
8.846
20
41.996
0
VERTEX
8
CONTOURS_MAJEURES
10
8.846
20
40.842
0
VERTEX
8
CONTOURS_MAJEURES
10
8.846
20
39.996
0
VERTEX
8
CONTOURS_MAJEURES
10
10.004
20
39.625
0
VERTEX
8
CONTOURS_MAJEURES
10
11.632
20
39.625
0
VERTEX
8
CONTOURS_MAJEURES
10
12.002
20
39.625
0
VERTEX
8
CONTOURS_MAJEURES
10
12.493
20
39.504
0
VERTEX
8
CONTOURS_MAJEURES
10
14.000
20
39.310
0
VERTEX
8
CONTOURS_MAJEURES
10
14.684
20
39.310
0
VERTEX
8
CONTOURS_MAJEURES
10
15.997
20
39.310
0
VERTEX
8
CONTOURS_MAJEURES
10
16.796
20
39.195
0
VERTEX
8
CONTOURS_MAJEURES
10
17.995
20
39.070
0
VERTEX
8
CONTOURS_MAJEURES
10
19.074
20
39.070
0
VERTEX
8
CONTOURS_MAJEURES
10
20.003
20
39.070
0
VERTEX
8
CONTOURS_MAJEURES
10
20.927
20
39.070
0
VERTEX
8
CONTOURS_MAJEURES
10
22.001
20
39.070
0
VERTEX
8
CONTOURS_MAJEURES
10
22.984
20
39.011
0
VERTEX
8
CONTOURS_MAJEURES
10
23.999
20
39.226
0
VERTEX
8
CONTOURS_MAJEURES
10
25.228
20
39.226
0
VERTEX
8
CONTOURS_MAJEURES
10
25.996
20
39.226
0
VERTEX
8
CONTOURS_MAJEURES
10
26.644
20
39.350
0
VERTEX
8
CONTOURS_MAJEURES
10
27.670
20
39.996
0
VERTEX
8
CONTOURS_MAJEURES
10
27.670
20
40.329
0
VERTEX
8
CONTOURS_MAJEURES
10
27.670
20
41.996
0
VERTEX
8
CONTOURS_MAJEURES
10
27.896
20
42.105
0
VERTEX
8
CONTOURS_MAJEURES
10
28.005
20
42.119
0
VERTEX
8
CONTOURS_MAJEURES
10
28.127
20
42.119
0
VERTEX
8
CONTOURS_MAJEURES
10
30.002
20
42.119
0
VERTEX
8
CONTOURS_MAJEURES
10
31.585
20
42.412
0
VERTEX
8
CONTOURS_MAJEURES
10
32.000
20
42.460
0
VERTEX
8
CONTOURS_MAJEURES
10
32.463
20
42.460
0
VERTEX
8
CONTOURS_MAJEURES
10
33.998
20
42.460
0
VERTEX
8
CONTOURS_MAJEURES
10
35.532
20
42.460
0
VERTEX
8
CONTOURS_MAJEURES
10
35.995
20
42.460
0
VERTEX
8
CONTOURS_MAJEURES
10
36.468
20
42.467
0
VERTEX
8
CONTOURS_MAJEURES
10
38.004
20
42.697
0
VERTEX
8
CONTOURS_MAJEURES
10
39.302
20
42.697
0
VERTEX
8
CONTOURS_MAJEURES
10
40.001
20
42.697
0
VERTEX
8
CONTOURS_MAJEURES
10
41.130
20
42.866
0
VERTEX
8
CONTOURS_MAJEURES
10
41.999
20
42.857
0
VERTEX
8
CONTOURS_MAJEURES
10
43.137
20
42.857
0
VERTEX
8
CONTOURS_MAJEURES
10
43.997
20
42.857
0
VERTEX
8
CONTOURS_MAJEURES
10
44.942
20
42.938
0
VERTEX
8
CONTOURS_MAJEURES
10
46.005
20
43.059
0
VERTEX
8
CONTOURS_MAJEURES
10
46.941
20
43.059
0
VERTEX
8
CONTOURS_MAJEURES
10
48.003
20
43.059
0
VERTEX
8
CONTOURS_MAJEURES
10
49.245
20
43.241
0
VERTEX
8
CONTOURS_MAJEURES
10
50.000
20
43.344
0
VERTEX
8
CONTOURS_MAJEURES
10
50.652
20
43.344
0
VERTEX
8
CONTOURS_MAJEURES
10
51.998
20
43.344
0
VERTEX
8
CONTOURS_MAJEURES
10
53.344
20
43.344
0
VERTEX
8
CONTOURS_MAJEURES
10
53.996
20
43.344
0
VERTEX
8
CONTOURS_MAJEURES
10
54.532
20
43.462
0
VERTEX
8
CONTOURS_MAJEURES
10
56.004
20
43.732
0
VERTEX
8
CONTOURS_MAJEURES
10
56.269
20
43.732
0
VERTEX
8
CONTOURS_MAJEURES
10
58.002
20
43.732
0
VERTEX
8
CONTOURS_MAJEURES
10
58.501
20
43.997
0
VERTEX
8
CONTOURS_MAJEURES
10
58.501
20
45.498
0
VERTEX
8
CONTOURS_MAJEURES
10
58.501
20
45.998
0
VERTEX
8
CONTOURS_MAJEURES
10
59.480
20
46.518
0
VERTEX
8
CONTOURS_MAJEURES
10
59.999
20
46.589
0
VERTEX
8
CONTOURS_MAJEURES
10
60.589
20
46.589
0
VERTEX
8
CONTOURS_MAJEURES
10
61.997
20
46.589
0
VERTEX
8
CONTOURS_MAJEURES
10
62.940
20
47.059
0
VERTEX
8
CONTOURS_MAJEURES
10
64.005
20
47.212
0
VERTEX
8
CONTOURS_MAJEURES
10
64.790
20
47.212
0
VERTEX
8
CONTOURS_MAJEURES
10
66.003
20
47.212
0
VERTEX
8
CONTOURS_MAJEURES
10
67.215
20
47.212
0
VERTEX
8
CONTOURS_MAJEURES
10
68.001
20
47.212
0
VERTEX
8
CONTOURS_MAJEURES
10
68.723
20
47.275
0
VERTEX
8
CONTOURS_MAJEURES
10
69.998
20
47.289
0
VERTEX
8
CONTOURS_MAJEURES
10
71.287
20
47.289
0
VERTEX
8
CONTOURS_MAJEURES
10
71.996
20
47.289
0
VERTEX
8
CONTOURS_MAJEURES
10
73.335
20
47.332
0
VERTEX
8
CONTOURS_MAJEURES
10
74.004
20
47.305
0
SEQEND
0
POLYLINE
8
PARCELLE
66
1
70
1
0
VERTEX
8
PARCELLE
10
21.042
20
20.000
0
VERTEX
8
PARCELLE
10
20.000
20
37.170
0
VERTEX
8
PARCELLE
10
54.640
20
36.711
0
VERTEX
8
PARCELLE
10
54.895
20
21.296
0
VERTEX
8
PARCELLE
10
52.275
20
21.197
0
VERTEX
8
PARCELLE
10
21.042
20
20.000
0
SEQEND
0
TEXT
8
POINTS_COTES
10
0.005
20
0.002
40
1.0
1
5.9
0
TEXT
8
POINTS_COTES
10
33.998
20
2.003
40
1.0
1
6.7
0
TEXT
8
POINTS_COTES
10
68.001
20
4.004
40
1.0
1
5.1
0
TEXT
8
POINTS_COTES
10
25.996
20
8.005
40
1.0
1
6.8
0
TEXT
8
POINTS_COTES
10
59.999
20
9.995
40
1.0
1
5.9
0
TEXT
8
POINTS_COTES
10
17.995
20
13.997
40
1.0
1
6.7
0
TEXT
8
POINTS_COTES
10
51.998
20
15.997
40
1.0
1
6.1
0
TEXT
8
POINTS_COTES
10
10.004
20
19.999
40
1.0
1
7.1
0
TEXT
8
POINTS_COTES
10
43.997
20
22.000
40
1.0
1
6.7
0
TEXT
8
POINTS_COTES
10
2.003
20
26.001
40
1.0
1
7.4
0
TEXT
8
POINTS_COTES
10
35.995
20
28.002
40
1.0
1
7.7
0
TEXT
8
POINTS_COTES
10
69.998
20
30.003
40
1.0
1
6.8
0
TEXT
8
POINTS_COTES
10
28.005
20
34.004
40
1.0
1
9.6
0
TEXT
8
POINTS_COTES
10
61.997
20
36.005
40
1.0
1
8.1
0
TEXT
8
POINTS_COTES
10
20.003
20
39.996
40
1.0
1
10.3
0
TEXT
8
POINTS_COTES
10
53.996
20
41.996
40
1.0
1
9.4
0
TEXT
8
POINTS_COTES
10
12.002
20
45.998
40
1.0
1
10.7
0
TEXT
8
POINTS_COTES
10
46.005
20
47.999
40
1.0
1
11.5
0
TEXT
8
POINTS_COTES
10
4.001
20
52.000
40
1.0
1
11.5
0
TEXT
8
POINTS_COTES
10
38.004
20
54.001
40
1.0
1
12.3
0
TEXT
8
POINTS_COTES
10
71.996
20
56.002
40
1.0
1
12.7
0
ENDSEC
0
EOF
