0
SECTION
2
HEADER
0
ENDSEC
0
SECTION
2
TABLES
0
TABLE
2
LAYER
70
4
0
LAYER
2
CONTOURS_MINEURES
70
0
62
8
6
CONTINUOUS
0
LAYER
2
CONTOURS_MAJEURES
70
0
62
3
6
CONTINUOUS
0
LAYER
2
PARCELLE
70
0
62
4
6
CONTINUOUS
0
LAYER
2
POINTS_COTES
70
0
62
7
6
CONTINUOUS
0
ENDTAB
0
ENDSEC
0
SECTION
2
ENTITIES
0
POLYLINE
8
CONTOURS_MINEURES
66
1
70
0
0
VERTEX
8
CONTOURS_MINEURES
10
5.474
20
64.005
0
VERTEX
8
CONTOURS_MINEURES
10
4.358
20
63.643
0
VERTEX
8
CONTOURS_MINEURES
10
3.997
20
63.577
0
VERTEX
8
CONTOURS_MINEURES
10
3.569
20
63.577
0
VERTEX
8
CONTOURS_MINEURES
10
1.998
20
63.577
0
VERTEX
8
CONTOURS_MINEURES
10
0.520
20
63.484
0
VERTEX
8
CONTOURS_MINEURES
10
-0.001
20
63.441
0
SEQEND
0
POLYLINE
8
CONTOURS_MINEURES
66
1
70
0
0
VERTEX
8
CONTOURS_MINEURES
10
33.108
20
64.005
0
VERTEX
8
CONTOURS_MINEURES
10
32.215
20
63.787
0
VERTEX
8
CONTOURS_MINEURES
10
31.998
20
63.729
0
VERTEX
8
CONTOURS_MINEURES
10
31.722
20
63.729
0
VERTEX
8
CONTOURS_MINEURES
10
29.999
20
63.729
0
VERTEX
8
CONTOURS_MINEURES
10
28.276
20
63.729
0
VERTEX
8
CONTOURS_MINEURES
10
28.001
20
63.729
0
VERTEX
8
CONTOURS_MINEURES
10
27.683
20
63.687
0
VERTEX
8
CONTOURS_MINEURES
10
26.002
20
63.498
0
VERTEX
8
CONTOURS_MINEURES
10
24.510
20
63.498
0
VERTEX
8
CONTOURS_MINEURES
10
24.004
20
63.498
0
VERTEX
8
CONTOURS_MINEURES
10
23.441
20
63.442
0
VERTEX
8
CONTOURS_MINEURES
10
22.005
20
63.291
0
VERTEX
8
CONTOURS_MINEURES
10
20.712
20
63.291
0
VERTEX
8
CONTOURS_MINEURES
10
19.996
20
63.291
0
VERTEX
8
CONTOURS_MINEURES
10
19.224
20
63.232
0
VERTEX
8
CONTOURS_MINEURES
10
17.997
20
63.050
0
VERTEX
8
CONTOURS_MINEURES
10
16.953
20
63.050
0
VERTEX
8
CONTOURS_MINEURES
10
15.999
20
63.050
0
VERTEX
8
CONTOURS_MINEURES
10
14.999
20
63.004
0
VERTEX
8
CONTOURS_MINEURES
10
14.000
20
63.039
0
VERTEX
8
CONTOURS_MINEURES
10
13.036
20
63.039
0
VERTEX
8
CONTOURS_MINEURES
10
12.001
20
63.039
0
VERTEX
8
CONTOURS_MINEURES
10
10.967
20
63.039
0
VERTEX
8
CONTOURS_MINEURES
10
10.003
20
63.039
0
VERTEX
8
CONTOURS_MINEURES
10
9.090
20
62.918
0
VERTEX
8
CONTOURS_MINEURES
10
8.004
20
62.765
0
VERTEX
8
CONTOURS_MINEURES
10
6.759
20
62.765
0
VERTEX
8
CONTOURS_MINEURES
10
5.995
20
62.765
0
VERTEX
8
CONTOURS_MINEURES
10
5.421
20
62.579
0
VERTEX
8
CONTOURS_MINEURES
10
3.997
20
62.319
0
VERTEX
8
CONTOURS_MINEURES
10
2.312
20
62.319
0
VERTEX
8
CONTOURS_MINEURES
10
1.998
20
62.319
0
VERTEX
8
CONTOURS_MINEURES
10
1.702
20
62.300
0
VERTEX
8
CONTOURS_MINEURES
10
-0.001
20
62.158
0
SEQEND
0
POLYLINE
8
CONTOURS_MINEURES
66
1
70
0
0
VERTEX
8
CONTOURS_MINEURES
10
41.165
20
64.005
0
VERTEX
8
CONTOURS_MINEURES
10
40.277
20
63.730
0
VERTEX
8
CONTOURS_MINEURES
10
40.003
20
63.592
0
VERTEX
8
CONTOURS_MINEURES
10
39.590
20
63.592
0
VERTEX
8
CONTOURS_MINEURES
10
38.004
20
63.592
0
VERTEX
8
CONTOURS_MINEURES
10
36.810
20
63.193
0
VERTEX
8
CONTOURS_MINEURES
10
35.995
20
62.869
0
VERTEX
8
CONTOURS_MINEURES
10
34.861
20
62.869
0
VERTEX
8
CONTOURS_MINEURES
10
33.996
20
62.869
0
VERTEX
8
CONTOURS_MINEURES
10
33.301
20
62.700
0
VERTEX
8
CONTOURS_MINEURES
10
31.998
20
62.349
0
VERTEX
8
CONTOURS_MINEURES
10
30.344
20
62.349
0
VERTEX
8
CONTOURS_MINEURES
10
29.999
20
62.349
0
VERTEX
8
CONTOURS_MINEURES
10
29.655
20
62.349
0
VERTEX
8
CONTOURS_MINEURES
10
28.001
20
62.349
0
VERTEX
8
CONTOURS_MINEURES
10
26.097
20
62.099
0
VERTEX
8
CONTOURS_MINEURES
10
26.002
20
62.089
0
VERTEX
8
CONTOURS_MINEURES
10
25.918
20
62.089
0
VERTEX
8
CONTOURS_MINEURES
10
24.004
20
62.089
0
VERTEX
8
CONTOURS_MINEURES
10
23.147
20
62.004
0
VERTEX
8
CONTOURS_MINEURES
10
23.147
20
61.147
0
VERTEX
8
CONTOURS_MINEURES
10
23.147
20
60.003
0
VERTEX
8
CONTOURS_MINEURES
10
23.147
20
58.860
0
VERTEX
8
CONTOURS_MINEURES
10
23.147
20
58.003
0
VERTEX
8
CONTOURS_MINEURES
10
22.106
20
57.902
0
VERTEX
8
CONTOURS_MINEURES
10
22.005
20
57.894
0
VERTEX
8
CONTOURS_MINEURES
10
20.104
20
57.894
0
VERTEX
8
CONTOURS_MINEURES
10
19.996
20
57.894
0
VERTEX
8
CONTOURS_MINEURES
10
19.876
20
57.882
0
VERTEX
8
CONTOURS_MINEURES
10
17.997
20
57.739
0
VERTEX
8
CONTOURS_MINEURES
10
16.262
20
57.739
0
VERTEX
8
CONTOURS_MINEURES
10
15.999
20
57.739
0
VERTEX
8
CONTOURS_MINEURES
10
14.344
20
57.658
0
VERTEX
8
CONTOURS_MINEURES
10
14.000
20
57.628
0
VERTEX
8
CONTOURS_MINEURES
10
12.375
20
57.628
0
VERTEX
8
CONTOURS_MINEURES
10
12.001
20
57.628
0
VERTEX
8
CONTOURS_MINEURES
10
11.628
20
57.628
0
VERTEX
8
CONTOURS_MINEURES
10
10.003
20
57.628
0
VERTEX
8
CONTOURS_MINEURES
10
9.629
20
57.628
0
VERTEX
8
CONTOURS_MINEURES
10
8.004
20
57.424
0
VERTEX
8
CONTOURS_MINEURES
10
7.423
20
57.424
0
VERTEX
8
CONTOURS_MINEURES
10
5.995
20
57.424
0
VERTEX
8
CONTOURS_MINEURES
10
4.794
20
57.204
0
VERTEX
8
CONTOURS_MINEURES
10
3.997
20
57.099
0
VERTEX
8
CONTOURS_MINEURES
10
3.094
20
57.099
0
VERTEX
8
CONTOURS_MINEURES
10
1.998
20
57.099
0
VERTEX
8
CONTOURS_MINEURES
10
0.982
20
57.019
0
VERTEX
8
CONTOURS_MINEURES
10
-0.001
20
56.895
0
SEQEND
0
POLYLINE
8
CONTOURS_MINEURES
66
1
70
0
0
VERTEX
8
CONTOURS_MINEURES
10
47.767
20
64.005
0
VERTEX
8
CONTOURS_MINEURES
10
45.998
20
63.139
0
VERTEX
8
CONTOURS_MINEURES
10
44.864
20
63.139
0
VERTEX
8
CONTOURS_MINEURES
10
44.000
20
63.139
0
VERTEX
8
CONTOURS_MINEURES
10
43.135
20
63.139
0
VERTEX
8
CONTOURS_MINEURES
10
42.001
20
63.139
0
VERTEX
8
CONTOURS_MINEURES
10
41.135
20
62.871
0
VERTEX
8
CONTOURS_MINEURES
10
40.003
20
62.301
0
VERTEX
8
CONTOURS_MINEURES
10
38.301
20
62.301
0
VERTEX
8
CONTOURS_MINEURES
10
38.004
20
62.301
0
VERTEX
8
CONTOURS_MINEURES
10
37.781
20
62.226
0
VERTEX
8
CONTOURS_MINEURES
10
37.221
20
62.004
0
VERTEX
8
CONTOURS_MINEURES
10
37.221
20
61.224
0
VERTEX
8
CONTOURS_MINEURES
10
37.221
20
60.003
0
VERTEX
8
CONTOURS_MINEURES
10
37.221
20
59.223
0
VERTEX
8
CONTOURS_MINEURES
10
37.221
20
58.003
0
VERTEX
8
CONTOURS_MINEURES
10
36.351
20
57.648
0
VERTEX
8
CONTOURS_MINEURES
10
35.995
20
57.513
0
VERTEX
8
CONTOURS_MINEURES
10
34.486
20
57.513
0
VERTEX
8
CONTOURS_MINEURES
10
33.996
20
57.513
0
VERTEX
8
CONTOURS_MINEURES
10
33.365
20
57.371
0
VERTEX
8
CONTOURS_MINEURES
10
31.998
20
57.022
0
VERTEX
8
CONTOURS_MINEURES
10
30.979
20
57.022
0
VERTEX
8
CONTOURS_MINEURES
10
29.999
20
57.022
0
VERTEX
8
CONTOURS_MINEURES
10
29.020
20
57.022
0
VERTEX
8
CONTOURS_MINEURES
10
28.001
20
57.022
0
VERTEX
8
CONTOURS_MINEURES
10
27.094
20
56.909
0
VERTEX
8
CONTOURS_MINEURES
10
26.002
20
56.705
0
VERTEX
8
CONTOURS_MINEURES
10
24.706
20
56.705
0
VERTEX
8
CONTOURS_MINEURES
10
24.004
20
56.705
0
VERTEX
8
CONTOURS_MINEURES
10
23.362
20
56.644
0
VERTEX
8
CONTOURS_MINEURES
10
22.005
20
56.543
0
VERTEX
8
CONTOURS_MINEURES
10
21.462
20
56.543
0
VERTEX
8
CONTOURS_MINEURES
10
19.996
20
56.543
0
VERTEX
8
CONTOURS_MINEURES
10
18.373
20
56.378
0
VERTEX
8
CONTOURS_MINEURES
10
17.997
20
56.349
0
VERTEX
8
CONTOURS_MINEURES
10
17.650
20
56.349
0
VERTEX
8
CONTOURS_MINEURES
10
15.999
20
56.349
0
VERTEX
8
CONTOURS_MINEURES
10
15.668
20
56.333
0
VERTEX
8
CONTOURS_MINEURES
10
14.000
20
56.189
0
VERTEX
8
CONTOURS_MINEURES
10
13.813
20
56.189
0
VERTEX
8
CONTOURS_MINEURES
10
12.001
20
56.189
0
VERTEX
8
CONTOURS_MINEURES
10
10.190
20
56.189
0
VERTEX
8
CONTOURS_MINEURES
10
10.003
20
56.189
0
VERTEX
8
CONTOURS_MINEURES
10
8.191
20
56.189
0
VERTEX
8
CONTOURS_MINEURES
10
8.004
20
56.165
0
VERTEX
8
CONTOURS_MINEURES
10
6.159
20
56.165
0
VERTEX
8
CONTOURS_MINEURES
10
5.995
20
56.165
0
VERTEX
8
CONTOURS_MINEURES
10
5.857
20
56.140
0
VERTEX
8
CONTOURS_MINEURES
10
4.814
20
56.002
0
VERTEX
8
CONTOURS_MINEURES
10
4.814
20
54.819
0
VERTEX
8
CONTOURS_MINEURES
10
4.814
20
54.001
0
VERTEX
8
CONTOURS_MINEURES
10
3.997
20
53.877
0
VERTEX
8
CONTOURS_MINEURES
10
2.122
20
53.877
0
VERTEX
8
CONTOURS_MINEURES
10
1.998
20
53.877
0
VERTEX
8
CONTOURS_MINEURES
10
0.351
20
53.649
0
VERTEX
8
CONTOURS_MINEURES
10
-0.001
20
53.595
0
SEQEND
0
POLYLINE
8
CONTOURS_MINEURES
66
1
70
0
0
VERTEX
8
CONTOURS_MINEURES
10
54.574
20
64.005
0
VERTEX
8
CONTOURS_MINEURES
10
54.234
20
63.774
0
VERTEX
8
CONTOURS_MINEURES
10
54.003
20
63.783
0
VERTEX
8
CONTOURS_MINEURES
10
52.227
20
63.783
0
VERTEX
8
CONTOURS_MINEURES
10
52.005
20
63.783
0
VERTEX
8
CONTOURS_MINEURES
10
51.718
20
63.719
0
VERTEX
8
CONTOURS_MINEURES
10
49.995
20
62.893
0
VERTEX
8
CONTOURS_MINEURES
10
49.107
20
62.893
0
VERTEX
8
CONTOURS_MINEURES
10
47.997
20
62.893
0
VERTEX
8
CONTOURS_MINEURES
10
46.020
20
62.026
0
VERTEX
8
CONTOURS_MINEURES
10
45.998
20
62.015
0
VERTEX
8
CONTOURS_MINEURES
10
45.987
20
62.015
0
VERTEX
8
CONTOURS_MINEURES
10
44.000
20
62.015
0
VERTEX
8
CONTOURS_MINEURES
10
42.012
20
62.015
0
VERTEX
8
CONTOURS_MINEURES
10
42.001
20
62.015
0
VERTEX
8
CONTOURS_MINEURES
10
41.993
20
62.013
0
VERTEX
8
CONTOURS_MINEURES
10
41.976
20
62.004
0
VERTEX
8
CONTOURS_MINEURES
10
41.976
20
61.978
0
VERTEX
8
CONTOURS_MINEURES
10
41.976
20
60.003
0
VERTEX
8
CONTOURS_MINEURES
10
41.976
20
58.028
0
VERTEX
8
CONTOURS_MINEURES
10
41.976
20
58.003
0
VERTEX
8
CONTOURS_MINEURES
10
40.003
20
56.933
0
VERTEX
8
CONTOURS_MINEURES
10
38.934
20
56.933
0
VERTEX
8
CONTOURS_MINEURES
10
38.004
20
56.933
0
VERTEX
8
CONTOURS_MINEURES
10
37.341
20
56.662
0
VERTEX
8
CONTOURS_MINEURES
10
35.995
20
56.151
0
VERTEX
8
CONTOURS_MINEURES
10
35.845
20
56.151
0
VERTEX
8
CONTOURS_MINEURES
10
33.996
20
56.151
0
VERTEX
8
CONTOURS_MINEURES
10
33.330
20
56.002
0
VERTEX
8
CONTOURS_MINEURES
10
33.330
20
54.668
0
VERTEX
8
CONTOURS_MINEURES
10
33.330
20
54.001
0
VERTEX
8
CONTOURS_MINEURES
10
31.998
20
53.697
0
VERTEX
8
CONTOURS_MINEURES
10
30.302
20
53.697
0
VERTEX
8
CONTOURS_MINEURES
10
29.999
20
53.697
0
VERTEX
8
CONTOURS_MINEURES
10
29.696
20
53.697
0
VERTEX
8
CONTOURS_MINEURES
10
28.001
20
53.697
0
VERTEX
8
CONTOURS_MINEURES
10
26.571
20
53.431
0
VERTEX
8
CONTOURS_MINEURES
10
26.002
20
53.364
0
VERTEX
8
CONTOURS_MINEURES
10
25.366
20
53.364
0
VERTEX
8
CONTOURS_MINEURES
10
24.004
20
53.364
0
VERTEX
8
CONTOURS_MINEURES
10
22.732
20
53.273
0
VERTEX
8
CONTOURS_MINEURES
10
22.005
20
53.179
0
VERTEX
8
CONTOURS_MINEURES
10
20.821
20
53.179
0
VERTEX
8
CONTOURS_MINEURES
10
19.996
20
53.179
0
VERTEX
8
CONTOURS_MINEURES
10
18.928
20
53.069
0
VERTEX
8
CONTOURS_MINEURES
10
17.997
20
52.906
0
VERTEX
8
CONTOURS_MINEURES
10
17.093
20
52.906
0
VERTEX
8
CONTOURS_MINEURES
10
15.999
20
52.906
0
VERTEX
8
CONTOURS_MINEURES
10
14.818
20
52.819
0
VERTEX
8
CONTOURS_MINEURES
10
14.000
20
52.749
0
VERTEX
8
CONTOURS_MINEURES
10
13.252
20
52.749
0
VERTEX
8
CONTOURS_MINEURES
10
12.001
20
52.749
0
VERTEX
8
CONTOURS_MINEURES
10
10.751
20
52.749
0
VERTEX
8
CONTOURS_MINEURES
10
10.003
20
52.749
0
VERTEX
8
CONTOURS_MINEURES
10
9.255
20
52.749
0
VERTEX
8
CONTOURS_MINEURES
10
8.004
20
52.817
0
VERTEX
8
CONTOURS_MINEURES
10
6.815
20
52.817
0
VERTEX
8
CONTOURS_MINEURES
10
5.995
20
52.817
0
VERTEX
8
CONTOURS_MINEURES
10
4.582
20
52.586
0
VERTEX
8
CONTOURS_MINEURES
10
3.997
20
52.497
0
VERTEX
8
CONTOURS_MINEURES
10
3.500
20
52.497
0
VERTEX
8
CONTOURS_MINEURES
10
1.998
20
52.497
0
VERTEX
8
CONTOURS_MINEURES
10
1.562
20
52.437
0
VERTEX
8
CONTOURS_MINEURES
10
-0.001
20
52.196
0
SEQEND
0
POLYLINE
8
CONTOURS_MINEURES
66
1
70
0
0
VERTEX
8
CONTOURS_MINEURES
10
66.005
20
57.492
0
VERTEX
8
CONTOURS_MINEURES
10
65.623
20
57.621
0
VERTEX
8
CONTOURS_MINEURES
10
63.996
20
57.702
0
VERTEX
8
CONTOURS_MINEURES
10
63.696
20
57.702
0
VERTEX
8
CONTOURS_MINEURES
10
61.998
20
57.702
0
VERTEX
8
CONTOURS_MINEURES
10
60.270
20
57.731
0
VERTEX
8
CONTOURS_MINEURES
10
59.999
20
57.689
0
VERTEX
8
CONTOURS_MINEURES
10
58.314
20
57.689
0
VERTEX
8
CONTOURS_MINEURES
10
58.000
20
57.689
0
VERTEX
8
CONTOURS_MINEURES
10
57.687
20
57.689
0
VERTEX
8
CONTOURS_MINEURES
10
56.002
20
57.689
0
VERTEX
8
CONTOURS_MINEURES
10
54.173
20
57.832
0
VERTEX
8
CONTOURS_MINEURES
10
54.003
20
57.792
0
VERTEX
8
CONTOURS_MINEURES
10
52.215
20
57.792
0
VERTEX
8
CONTOURS_MINEURES
10
52.005
20
57.792
0
VERTEX
8
CONTOURS_MINEURES
10
51.809
20
57.807
0
VERTEX
8
CONTOURS_MINEURES
10
49.995
20
57.141
0
VERTEX
8
CONTOURS_MINEURES
10
49.135
20
57.141
0
VERTEX
8
CONTOURS_MINEURES
10
47.997
20
57.141
0
VERTEX
8
CONTOURS_MINEURES
10
47.453
20
56.546
0
VERTEX
8
CONTOURS_MINEURES
10
45.998
20
56.324
0
VERTEX
8
CONTOURS_MINEURES
10
44.322
20
56.324
0
VERTEX
8
CONTOURS_MINEURES
10
44.000
20
56.324
0
VERTEX
8
CONTOURS_MINEURES
10
43.678
20
56.324
0
VERTEX
8
CONTOURS_MINEURES
10
42.001
20
56.324
0
VERTEX
8
CONTOURS_MINEURES
10
41.271
20
56.002
0
VERTEX
8
CONTOURS_MINEURES
10
41.271
20
54.732
0
VERTEX
8
CONTOURS_MINEURES
10
41.271
20
54.001
0
VERTEX
8
CONTOURS_MINEURES
10
40.003
20
53.313
0
VERTEX
8
CONTOURS_MINEURES
10
39.316
20
53.313
0
VERTEX
8
CONTOURS_MINEURES
10
38.004
20
53.313
0
VERTEX
8
CONTOURS_MINEURES
10
37.171
20
52.829
0
VERTEX
8
CONTOURS_MINEURES
10
35.995
20
52.576
0
VERTEX
8
CONTOURS_MINEURES
10
35.419
20
52.576
0
VERTEX
8
CONTOURS_MINEURES
10
33.996
20
52.576
0
VERTEX
8
CONTOURS_MINEURES
10
32.408
20
52.411
0
VERTEX
8
CONTOURS_MINEURES
10
31.998
20
52.318
0
VERTEX
8
CONTOURS_MINEURES
10
31.681
20
52.318
0
VERTEX
8
CONTOURS_MINEURES
10
29.999
20
52.318
0
VERTEX
8
CONTOURS_MINEURES
10
28.318
20
52.318
0
VERTEX
8
CONTOURS_MINEURES
10
28.001
20
52.318
0
VERTEX
8
CONTOURS_MINEURES
10
27.733
20
52.268
0
VERTEX
8
CONTOURS_MINEURES
10
26.002
20
52.065
0
VERTEX
8
CONTOURS_MINEURES
10
24.068
20
52.065
0
VERTEX
8
CONTOURS_MINEURES
10
24.004
20
52.065
0
VERTEX
8
CONTOURS_MINEURES
10
23.943
20
52.061
0
VERTEX
8
CONTOURS_MINEURES
10
23.478
20
52.000
0
VERTEX
8
CONTOURS_MINEURES
10
23.478
20
51.474
0
VERTEX
8
CONTOURS_MINEURES
10
23.478
20
49.999
0
VERTEX
8
CONTOURS_MINEURES
10
23.478
20
48.525
0
VERTEX
8
CONTOURS_MINEURES
10
23.478
20
47.999
0
VERTEX
8
CONTOURS_MINEURES
10
22.005
20
47.791
0
VERTEX
8
CONTOURS_MINEURES
10
20.204
20
47.791
0
VERTEX
8
CONTOURS_MINEURES
10
19.996
20
47.791
0
VERTEX
8
CONTOURS_MINEURES
10
18.475
20
47.521
0
VERTEX
8
CONTOURS_MINEURES
10
17.997
20
47.375
0
VERTEX
8
CONTOURS_MINEURES
10
17.375
20
47.375
0
VERTEX
8
CONTOURS_MINEURES
10
15.999
20
47.375
0
VERTEX
8
CONTOURS_MINEURES
10
14.727
20
47.271
0
VERTEX
8
CONTOURS_MINEURES
10
14.000
20
47.298
0
VERTEX
8
CONTOURS_MINEURES
10
12.702
20
47.298
0
VERTEX
8
CONTOURS_MINEURES
10
12.001
20
47.298
0
VERTEX
8
CONTOURS_MINEURES
10
11.301
20
47.298
0
VERTEX
8
CONTOURS_MINEURES
10
10.003
20
47.298
0
VERTEX
8
CONTOURS_MINEURES
10
8.624
20
47.378
0
VERTEX
8
CONTOURS_MINEURES
10
8.004
20
47.309
0
VERTEX
8
CONTOURS_MINEURES
10
7.312
20
47.309
0
VERTEX
8
CONTOURS_MINEURES
10
5.995
20
47.309
0
VERTEX
8
CONTOURS_MINEURES
10
5.107
20
47.109
0
VERTEX
8
CONTOURS_MINEURES
10
3.997
20
46.875
0
VERTEX
8
CONTOURS_MINEURES
10
3.120
20
46.875
0
VERTEX
8
CONTOURS_MINEURES
10
1.998
20
46.875
0
VERTEX
8
CONTOURS_MINEURES
10
0.652
20
46.651
0
VERTEX
8
CONTOURS_MINEURES
10
-0.001
20
46.528
0
SEQEND
0
POLYLINE
8
CONTOURS_MINEURES
66
1
70
0
0
VERTEX
8
CONTOURS_MINEURES
10
66.005
20
47.881
0
VERTEX
8
CONTOURS_MINEURES
10
65.457
20
47.999
0
VERTEX
8
CONTOURS_MINEURES
10
65.457
20
49.454
0
VERTEX
8
CONTOURS_MINEURES
10
65.457
20
49.999
0
VERTEX
8
CONTOURS_MINEURES
10
65.457
20
50.545
0
VERTEX
8
CONTOURS_MINEURES
10
65.457
20
52.000
0
VERTEX
8
CONTOURS_MINEURES
10
64.216
20
52.219
0
VERTEX
8
CONTOURS_MINEURES
10
63.996
20
52.281
0
VERTEX
8
CONTOURS_MINEURES
10
63.716
20
52.281
0
VERTEX
8
CONTOURS_MINEURES
10
61.998
20
52.281
0
VERTEX
8
CONTOURS_MINEURES
10
60.855
20
52.000
0
VERTEX
8
CONTOURS_MINEURES
10
60.855
20
50.857
0
VERTEX
8
CONTOURS_MINEURES
10
60.855
20
49.999
0
VERTEX
8
CONTOURS_MINEURES
10
60.855
20
49.142
0
VERTEX
8
CONTOURS_MINEURES
10
60.855
20
47.999
0
VERTEX
8
CONTOURS_MINEURES
10
59.999
20
47.665
0
VERTEX
8
CONTOURS_MINEURES
10
59.666
20
47.665
0
VERTEX
8
CONTOURS_MINEURES
10
58.000
20
47.665
0
VERTEX
8
CONTOURS_MINEURES
10
56.335
20
47.665
0
VERTEX
8
CONTOURS_MINEURES
10
56.002
20
47.665
0
VERTEX
8
CONTOURS_MINEURES
10
54.465
20
47.537
0
VERTEX
8
CONTOURS_MINEURES
10
54.003
20
47.699
0
VERTEX
8
CONTOURS_MINEURES
10
53.704
20
47.699
0
VERTEX
8
CONTOURS_MINEURES
10
52.005
20
47.699
0
VERTEX
8
CONTOURS_MINEURES
10
51.664
20
47.659
0
VERTEX
8
CONTOURS_MINEURES
10
49.995
20
47.293
0
VERTEX
8
CONTOURS_MINEURES
10
48.702
20
47.293
0
VERTEX
8
CONTOURS_MINEURES
10
47.997
20
47.293
0
VERTEX
8
CONTOURS_MINEURES
10
47.312
20
47.313
0
VERTEX
8
CONTOURS_MINEURES
10
45.998
20
47.259
0
VERTEX
8
CONTOURS_MINEURES
10
44.739
20
47.259
0
VERTEX
8
CONTOURS_MINEURES
10
44.000
20
47.259
0
VERTEX
8
CONTOURS_MINEURES
10
42.740
20
47.259
0
VERTEX
8
CONTOURS_MINEURES
10
42.001
20
47.259
0
VERTEX
8
CONTOURS_MINEURES
10
41.359
20
47.356
0
VERTEX
8
CONTOURS_MINEURES
10
40.003
20
47.211
0
VERTEX
8
CONTOURS_MINEURES
10
38.791
20
47.211
0
VERTEX
8
CONTOURS_MINEURES
10
38.004
20
47.211
0
VERTEX
8
CONTOURS_MINEURES
10
37.246
20
47.243
0
VERTEX
8
CONTOURS_MINEURES
10
35.995
20
46.974
0
VERTEX
8
CONTOURS_MINEURES
10
35.020
20
46.974
0
VERTEX
8
CONTOURS_MINEURES
10
33.996
20
46.974
0
VERTEX
8
CONTOURS_MINEURES
10
33.113
20
46.882
0
VERTEX
8
CONTOURS_MINEURES
10
31.998
20
46.890
0
VERTEX
8
CONTOURS_MINEURES
10
30.891
20
46.890
0
VERTEX
8
CONTOURS_MINEURES
10
29.999
20
46.890
0
VERTEX
8
CONTOURS_MINEURES
10
29.108
20
46.890
0
VERTEX
8
CONTOURS_MINEURES
10
28.001
20
46.890
0
VERTEX
8
CONTOURS_MINEURES
10
26.808
20
46.804
0
VERTEX
8
CONTOURS_MINEURES
10
26.002
20
46.706
0
VERTEX
8
CONTOURS_MINEURES
10
24.711
20
46.706
0
VERTEX
8
CONTOURS_MINEURES
10
24.004
20
46.706
0
VERTEX
8
CONTOURS_MINEURES
10
22.367
20
46.360
0
VERTEX
8
CONTOURS_MINEURES
10
22.005
20
46.309
0
VERTEX
8
CONTOURS_MINEURES
10
21.692
20
46.309
0
VERTEX
8
CONTOURS_MINEURES
10
19.996
20
46.309
0
VERTEX
8
CONTOURS_MINEURES
10
19.732
20
46.262
0
VERTEX
8
CONTOURS_MINEURES
10
18.861
20
45.998
0
VERTEX
8
CONTOURS_MINEURES
10
18.861
20
44.862
0
VERTEX
8
CONTOURS_MINEURES
10
18.861
20
43.997
0
VERTEX
8
CONTOURS_MINEURES
10
17.997
20
43.728
0
VERTEX
8
CONTOURS_MINEURES
10
17.728
20
43.728
0
VERTEX
8
CONTOURS_MINEURES
10
15.999
20
43.728
0
VERTEX
8
CONTOURS_MINEURES
10
14.193
20
43.804
0
VERTEX
8
CONTOURS_MINEURES
10
14.000
20
43.807
0
VERTEX
8
CONTOURS_MINEURES
10
12.191
20
43.807
0
VERTEX
8
CONTOURS_MINEURES
10
12.001
20
43.807
0
VERTEX
8
CONTOURS_MINEURES
10
10.192
20
43.807
0
VERTEX
8
CONTOURS_MINEURES
10
10.003
20
43.807
0
VERTEX
8
CONTOURS_MINEURES
10
8.376
20
43.625
0
VERTEX
8
CONTOURS_MINEURES
10
8.004
20
43.572
0
VERTEX
8
CONTOURS_MINEURES
10
7.578
20
43.572
0
VERTEX
8
CONTOURS_MINEURES
10
5.995
20
43.572
0
VERTEX
8
CONTOURS_MINEURES
10
4.715
20
43.277
0
VERTEX
8
CONTOURS_MINEURES
10
3.997
20
43.149
0
VERTEX
8
CONTOURS_MINEURES
10
3.150
20
43.149
0
VERTEX
8
CONTOURS_MINEURES
10
1.998
20
43.149
0
VERTEX
8
CONTOURS_MINEURES
10
1.006
20
42.989
0
VERTEX
8
CONTOURS_MINEURES
10
-0.001
20
42.807
0
SEQEND
0
POLYLINE
8
CONTOURS_MINEURES
66
1
70
0
0
VERTEX
8
CONTOURS_MINEURES
10
66.005
20
32.484
0
VERTEX
8
CONTOURS_MINEURES
10
64.909
20
33.095
0
VERTEX
8
CONTOURS_MINEURES
10
63.996
20
33.741
0
VERTEX
8
CONTOURS_MINEURES
10
63.733
20
33.741
0
VERTEX
8
CONTOURS_MINEURES
10
61.998
20
33.741
0
VERTEX
8
CONTOURS_MINEURES
10
60.887
20
34.004
0
VERTEX
8
CONTOURS_MINEURES
10
60.887
20
34.894
0
VERTEX
8
CONTOURS_MINEURES
10
60.887
20
36.005
0
VERTEX
8
CONTOURS_MINEURES
10
60.887
20
36.889
0
VERTEX
8
CONTOURS_MINEURES
10
60.887
20
37.995
0
VERTEX
8
CONTOURS_MINEURES
10
59.999
20
38.211
0
VERTEX
8
CONTOURS_MINEURES
10
58.216
20
38.211
0
VERTEX
8
CONTOURS_MINEURES
10
58.000
20
38.211
0
VERTEX
8
CONTOURS_MINEURES
10
56.218
20
38.211
0
VERTEX
8
CONTOURS_MINEURES
10
56.002
20
38.211
0
VERTEX
8
CONTOURS_MINEURES
10
54.824
20
38.817
0
VERTEX
8
CONTOURS_MINEURES
10
54.003
20
39.836
0
VERTEX
8
CONTOURS_MINEURES
10
52.165
20
39.836
0
VERTEX
8
CONTOURS_MINEURES
10
52.005
20
39.836
0
VERTEX
8
CONTOURS_MINEURES
10
51.875
20
39.866
0
VERTEX
8
CONTOURS_MINEURES
10
49.995
20
39.653
0
VERTEX
8
CONTOURS_MINEURES
10
48.340
20
39.653
0
VERTEX
8
CONTOURS_MINEURES
10
47.997
20
39.653
0
VERTEX
8
CONTOURS_MINEURES
10
47.868
20
39.866
0
VERTEX
8
CONTOURS_MINEURES
10
47.476
20
39.996
0
VERTEX
8
CONTOURS_MINEURES
10
47.476
20
40.518
0
VERTEX
8
CONTOURS_MINEURES
10
47.476
20
41.996
0
VERTEX
8
CONTOURS_MINEURES
10
46.464
20
42.462
0
VERTEX
8
CONTOURS_MINEURES
10
45.998
20
42.475
0
VERTEX
8
CONTOURS_MINEURES
10
45.520
20
42.475
0
VERTEX
8
CONTOURS_MINEURES
10
44.000
20
42.475
0
VERTEX
8
CONTOURS_MINEURES
10
43.521
20
42.475
0
VERTEX
8
CONTOURS_MINEURES
10
42.001
20
42.475
0
VERTEX
8
CONTOURS_MINEURES
10
41.435
20
42.563
0
VERTEX
8
CONTOURS_MINEURES
10
40.003
20
43.062
0
VERTEX
8
CONTOURS_MINEURES
10
39.069
20
43.062
0
VERTEX
8
CONTOURS_MINEURES
10
38.004
20
43.062
0
VERTEX
8
CONTOURS_MINEURES
10
36.885
20
43.110
0
VERTEX
8
CONTOURS_MINEURES
10
35.995
20
43.176
0
VERTEX
8
CONTOURS_MINEURES
10
34.817
20
43.176
0
VERTEX
8
CONTOURS_MINEURES
10
33.996
20
43.176
0
VERTEX
8
CONTOURS_MINEURES
10
33.140
20
43.140
0
VERTEX
8
CONTOURS_MINEURES
10
31.998
20
43.152
0
VERTEX
8
CONTOURS_MINEURES
10
31.154
20
43.152
0
VERTEX
8
CONTOURS_MINEURES
10
29.999
20
43.152
0
VERTEX
8
CONTOURS_MINEURES
10
28.844
20
43.152
0
VERTEX
8
CONTOURS_MINEURES
10
28.001
20
43.152
0
VERTEX
8
CONTOURS_MINEURES
10
26.961
20
43.037
0
VERTEX
8
CONTOURS_MINEURES
10
26.002
20
42.880
0
VERTEX
8
CONTOURS_MINEURES
10
24.887
20
42.880
0
VERTEX
8
CONTOURS_MINEURES
10
24.004
20
42.880
0
VERTEX
8
CONTOURS_MINEURES
10
23.354
20
42.646
0
VERTEX
8
CONTOURS_MINEURES
10
22.005
20
42.368
0
VERTEX
8
CONTOURS_MINEURES
10
20.369
20
42.368
0
VERTEX
8
CONTOURS_MINEURES
10
19.996
20
42.368
0
VERTEX
8
CONTOURS_MINEURES
10
18.070
20
42.070
0
VERTEX
8
CONTOURS_MINEURES
10
17.997
20
42.047
0
VERTEX
8
CONTOURS_MINEURES
10
16.049
20
42.047
0
VERTEX
8
CONTOURS_MINEURES
10
15.999
20
42.047
0
VERTEX
8
CONTOURS_MINEURES
10
15.946
20
42.049
0
VERTEX
8
CONTOURS_MINEURES
10
14.000
20
42.083
0
VERTEX
8
CONTOURS_MINEURES
10
13.914
20
42.083
0
VERTEX
8
CONTOURS_MINEURES
10
12.001
20
42.083
0
VERTEX
8
CONTOURS_MINEURES
10
11.915
20
42.083
0
VERTEX
8
CONTOURS_MINEURES
10
10.003
20
42.083
0
VERTEX
8
CONTOURS_MINEURES
10
9.925
20
42.074
0
VERTEX
8
CONTOURS_MINEURES
10
9.378
20
41.996
0
VERTEX
8
CONTOURS_MINEURES
10
9.378
20
41.371
0
VERTEX
8
CONTOURS_MINEURES
10
9.378
20
39.996
0
VERTEX
8
CONTOURS_MINEURES
10
8.210
20
39.790
0
VERTEX
8
CONTOURS_MINEURES
10
8.004
20
39.769
0
VERTEX
8
CONTOURS_MINEURES
10
7.777
20
39.769
0
VERTEX
8
CONTOURS_MINEURES
10
5.995
20
39.769
0
VERTEX
8
CONTOURS_MINEURES
10
4.539
20
39.453
0
VERTEX
8
CONTOURS_MINEURES
10
3.997
20
39.336
0
VERTEX
8
CONTOURS_MINEURES
10
3.337
20
39.336
0
VERTEX
8
CONTOURS_MINEURES
10
1.998
20
39.336
0
VERTEX
8
CONTOURS_MINEURES
10
0.897
20
39.097
0
VERTEX
8
CONTOURS_MINEURES
10
-0.001
20
38.946
0
SEQEND
0
POLYLINE
8
CONTOURS_MINEURES
66
1
70
0
0
VERTEX
8
CONTOURS_MINEURES
10
61.869
20
0.002
0
VERTEX
8
CONTOURS_MINEURES
10
61.998
20
0.070
0
VERTEX
8
CONTOURS_MINEURES
10
63.928
20
0.070
0
VERTEX
8
CONTOURS_MINEURES
10
63.996
20
0.070
0
VERTEX
8
CONTOURS_MINEURES
10
64.071
20
0.076
0
VERTEX
8
CONTOURS_MINEURES
10
66.005
20
0.749
0
SEQEND
0
POLYLINE
8
CONTOURS_MINEURES
66
1
70
0
0
VERTEX
8
CONTOURS_MINEURES
10
66.005
20
24.538
0
VERTEX
8
CONTOURS_MINEURES
10
64.557
20
24.559
0
VERTEX
8
CONTOURS_MINEURES
10
63.996
20
24.692
0
VERTEX
8
CONTOURS_MINEURES
10
63.306
20
24.692
0
VERTEX
8
CONTOURS_MINEURES
10
61.998
20
24.692
0
VERTEX
8
CONTOURS_MINEURES
10
60.855
20
24.858
0
VERTEX
8
CONTOURS_MINEURES
10
59.999
20
25.103
0
VERTEX
8
CONTOURS_MINEURES
10
58.898
20
25.103
0
VERTEX
8
CONTOURS_MINEURES
10
58.000
20
25.103
0
VERTEX
8
CONTOURS_MINEURES
10
56.899
20
25.103
0
VERTEX
8
CONTOURS_MINEURES
10
56.002
20
25.103
0
VERTEX
8
CONTOURS_MINEURES
10
55.172
20
25.171
0
VERTEX
8
CONTOURS_MINEURES
10
54.003
20
25.513
0
VERTEX
8
CONTOURS_MINEURES
10
53.516
20
25.513
0
VERTEX
8
CONTOURS_MINEURES
10
52.005
20
25.513
0
VERTEX
8
CONTOURS_MINEURES
10
51.414
20
26.001
0
VERTEX
8
CONTOURS_MINEURES
10
51.414
20
27.414
0
VERTEX
8
CONTOURS_MINEURES
10
51.414
20
28.002
0
VERTEX
8
CONTOURS_MINEURES
10
50.647
20
28.651
0
VERTEX
8
CONTOURS_MINEURES
10
49.995
20
29.145
0
VERTEX
8
CONTOURS_MINEURES
10
49.139
20
29.145
0
VERTEX
8
CONTOURS_MINEURES
10
47.997
20
29.145
0
VERTEX
8
CONTOURS_MINEURES
10
47.468
20
30.003
0
VERTEX
8
CONTOURS_MINEURES
10
47.468
20
31.474
0
VERTEX
8
CONTOURS_MINEURES
10
47.468
20
32.004
0
VERTEX
8
CONTOURS_MINEURES
10
45.998
20
33.591
0
VERTEX
8
CONTOURS_MINEURES
10
44.412
20
33.591
0
VERTEX
8
CONTOURS_MINEURES
10
44.000
20
33.591
0
VERTEX
8
CONTOURS_MINEURES
10
43.587
20
33.591
0
VERTEX
8
CONTOURS_MINEURES
10
42.001
20
33.591
0
VERTEX
8
CONTOURS_MINEURES
10
41.105
20
34.004
0
VERTEX
8
CONTOURS_MINEURES
10
41.105
20
34.901
0
VERTEX
8
CONTOURS_MINEURES
10
41.105
20
36.005
0
VERTEX
8
CONTOURS_MINEURES
10
41.105
20
37.103
0
VERTEX
8
CONTOURS_MINEURES
10
41.105
20
37.995
0
VERTEX
8
CONTOURS_MINEURES
10
40.003
20
38.473
0
VERTEX
8
CONTOURS_MINEURES
10
38.481
20
38.473
0
VERTEX
8
CONTOURS_MINEURES
10
38.004
20
38.473
0
VERTEX
8
CONTOURS_MINEURES
10
36.351
20
38.350
0
VERTEX
8
CONTOURS_MINEURES
10
35.995
20
38.395
0
VERTEX
8
CONTOURS_MINEURES
10
34.396
20
38.395
0
VERTEX
8
CONTOURS_MINEURES
10
33.996
20
38.395
0
VERTEX
8
CONTOURS_MINEURES
10
33.624
20
38.368
0
VERTEX
8
CONTOURS_MINEURES
10
31.998
20
38.518
0
VERTEX
8
CONTOURS_MINEURES
10
31.475
20
38.518
0
VERTEX
8
CONTOURS_MINEURES
10
29.999
20
38.518
0
VERTEX
8
CONTOURS_MINEURES
10
28.523
20
38.518
0
VERTEX
8
CONTOURS_MINEURES
10
28.001
20
38.518
0
VERTEX
8
CONTOURS_MINEURES
10
27.571
20
38.425
0
VERTEX
8
CONTOURS_MINEURES
10
26.002
20
38.385
0
VERTEX
8
CONTOURS_MINEURES
10
25.613
20
38.385
0
VERTEX
8
CONTOURS_MINEURES
10
24.004
20
38.385
0
VERTEX
8
CONTOURS_MINEURES
10
22.067
20
38.057
0
VERTEX
8
CONTOURS_MINEURES
10
22.005
20
38.042
0
VERTEX
8
CONTOURS_MINEURES
10
20.044
20
38.042
0
VERTEX
8
CONTOURS_MINEURES
10
19.996
20
38.042
0
VERTEX
8
CONTOURS_MINEURES
10
19.955
20
38.035
0
VERTEX
8
CONTOURS_MINEURES
10
17.997
20
38.015
0
VERTEX
8
CONTOURS_MINEURES
10
17.977
20
38.015
0
VERTEX
8
CONTOURS_MINEURES
10
15.999
20
38.015
0
VERTEX
8
CONTOURS_MINEURES
10
15.599
20
37.995
0
VERTEX
8
CONTOURS_MINEURES
10
15.599
20
36.403
0
VERTEX
8
CONTOURS_MINEURES
10
15.599
20
36.005
0
VERTEX
8
CONTOURS_MINEURES
10
15.599
20
35.605
0
VERTEX
8
CONTOURS_MINEURES
10
15.599
20
34.004
0
VERTEX
8
CONTOURS_MINEURES
10
14.121
20
33.883
0
VERTEX
8
CONTOURS_MINEURES
10
14.000
20
33.908
0
VERTEX
8
CONTOURS_MINEURES
10
13.904
20
33.908
0
VERTEX
8
CONTOURS_MINEURES
10
12.001
20
33.908
0
VERTEX
8
CONTOURS_MINEURES
10
11.905
20
33.908
0
VERTEX
8
CONTOURS_MINEURES
10
10.003
20
33.908
0
VERTEX
8
CONTOURS_MINEURES
10
8.305
20
33.703
0
VERTEX
8
CONTOURS_MINEURES
10
8.004
20
33.645
0
VERTEX
8
CONTOURS_MINEURES
10
6.356
20
33.645
0
VERTEX
8
CONTOURS_MINEURES
10
5.995
20
33.645
0
VERTEX
8
CONTOURS_MINEURES
10
4.703
20
33.297
0
VERTEX
8
CONTOURS_MINEURES
10
3.997
20
32.975
0
VERTEX
8
CONTOURS_MINEURES
10
2.968
20
32.975
0
VERTEX
8
CONTOURS_MINEURES
10
1.998
20
32.975
0
VERTEX
8
CONTOURS_MINEURES
10
0.570
20
32.575
0
VERTEX
8
CONTOURS_MINEURES
10
-0.001
20
32.428
0
SEQEND
0
POLYLINE
8
CONTOURS_MINEURES
66
1
70
0
0
VERTEX
8
CONTOURS_MINEURES
10
27.751
20
0.002
0
VERTEX
8
CONTOURS_MINEURES
10
28.001
20
0.156
0
VERTEX
8
CONTOURS_MINEURES
10
29.845
20
0.156
0
VERTEX
8
CONTOURS_MINEURES
10
29.999
20
0.156
0
VERTEX
8
CONTOURS_MINEURES
10
30.153
20
0.156
0
VERTEX
8
CONTOURS_MINEURES
10
31.998
20
0.156
0
VERTEX
8
CONTOURS_MINEURES
10
33.843
20
0.156
0
VERTEX
8
CONTOURS_MINEURES
10
33.996
20
0.108
0
VERTEX
8
CONTOURS_MINEURES
10
35.890
20
0.108
0
VERTEX
8
CONTOURS_MINEURES
10
35.995
20
0.108
0
VERTEX
8
CONTOURS_MINEURES
10
36.129
20
0.136
0
VERTEX
8
CONTOURS_MINEURES
10
38.004
20
0.926
0
VERTEX
8
CONTOURS_MINEURES
10
38.927
20
0.926
0
VERTEX
8
CONTOURS_MINEURES
10
40.003
20
0.926
0
VERTEX
8
CONTOURS_MINEURES
10
41.848
20
1.849
0
VERTEX
8
CONTOURS_MINEURES
10
42.001
20
1.934
0
VERTEX
8
CONTOURS_MINEURES
10
42.070
20
1.934
0
VERTEX
8
CONTOURS_MINEURES
10
44.000
20
1.934
0
VERTEX
8
CONTOURS_MINEURES
10
45.929
20
1.934
0
VERTEX
8
CONTOURS_MINEURES
10
45.998
20
1.934
0
VERTEX
8
CONTOURS_MINEURES
10
46.042
20
1.959
0
VERTEX
8
CONTOURS_MINEURES
10
46.165
20
2.003
0
VERTEX
8
CONTOURS_MINEURES
10
46.165
20
2.170
0
VERTEX
8
CONTOURS_MINEURES
10
46.165
20
4.004
0
VERTEX
8
CONTOURS_MINEURES
10
47.239
20
4.763
0
VERTEX
8
CONTOURS_MINEURES
10
47.997
20
4.884
0
VERTEX
8
CONTOURS_MINEURES
10
48.876
20
4.884
0
VERTEX
8
CONTOURS_MINEURES
10
49.995
20
4.884
0
VERTEX
8
CONTOURS_MINEURES
10
51.476
20
4.530
0
VERTEX
8
CONTOURS_MINEURES
10
52.005
20
4.458
0
VERTEX
8
CONTOURS_MINEURES
10
52.459
20
4.458
0
VERTEX
8
CONTOURS_MINEURES
10
54.003
20
4.458
0
VERTEX
8
CONTOURS_MINEURES
10
54.836
20
4.837
0
VERTEX
8
CONTOURS_MINEURES
10
56.002
20
5.396
0
VERTEX
8
CONTOURS_MINEURES
10
56.610
20
5.396
0
VERTEX
8
CONTOURS_MINEURES
10
58.000
20
5.396
0
VERTEX
8
CONTOURS_MINEURES
10
59.391
20
5.396
0
VERTEX
8
CONTOURS_MINEURES
10
59.999
20
5.396
0
VERTEX
8
CONTOURS_MINEURES
10
60.873
20
6.005
0
VERTEX
8
CONTOURS_MINEURES
10
60.873
20
6.880
0
VERTEX
8
CONTOURS_MINEURES
10
60.873
20
8.005
0
VERTEX
8
CONTOURS_MINEURES
10
61.215
20
8.784
0
VERTEX
8
CONTOURS_MINEURES
10
61.998
20
9.796
0
VERTEX
8
CONTOURS_MINEURES
10
63.796
20
9.796
0
VERTEX
8
CONTOURS_MINEURES
10
63.996
20
9.796
0
VERTEX
8
CONTOURS_MINEURES
10
64.283
20
9.711
0
VERTEX
8
CONTOURS_MINEURES
10
64.247
20
9.995
0
VERTEX
8
CONTOURS_MINEURES
10
64.247
20
10.245
0
VERTEX
8
CONTOURS_MINEURES
10
64.247
20
11.996
0
VERTEX
8
CONTOURS_MINEURES
10
64.247
20
12.246
0
VERTEX
8
CONTOURS_MINEURES
10
64.247
20
13.997
0
VERTEX
8
CONTOURS_MINEURES
10
63.996
20
14.088
0
VERTEX
8
CONTOURS_MINEURES
10
62.088
20
14.088
0
VERTEX
8
CONTOURS_MINEURES
10
61.998
20
14.088
0
VERTEX
8
CONTOURS_MINEURES
10
61.855
20
14.139
0
VERTEX
8
CONTOURS_MINEURES
10
59.999
20
15.034
0
VERTEX
8
CONTOURS_MINEURES
10
58.963
20
15.034
0
VERTEX
8
CONTOURS_MINEURES
10
58.000
20
15.034
0
VERTEX
8
CONTOURS_MINEURES
10
56.964
20
15.034
0
VERTEX
8
CONTOURS_MINEURES
10
56.002
20
15.034
0
VERTEX
8
CONTOURS_MINEURES
10
54.966
20
15.034
0
VERTEX
8
CONTOURS_MINEURES
10
54.003
20
15.185
0
VERTEX
8
CONTOURS_MINEURES
10
53.191
20
15.185
0
VERTEX
8
CONTOURS_MINEURES
10
52.005
20
15.185
0
VERTEX
8
CONTOURS_MINEURES
10
51.096
20
14.902
0
VERTEX
8
CONTOURS_MINEURES
10
49.995
20
14.754
0
VERTEX
8
CONTOURS_MINEURES
10
49.239
20
14.754
0
VERTEX
8
CONTOURS_MINEURES
10
47.997
20
14.754
0
VERTEX
8
CONTOURS_MINEURES
10
46.787
20
14.786
0
VERTEX
8
CONTOURS_MINEURES
10
45.998
20
14.879
0
VERTEX
8
CONTOURS_MINEURES
10
45.117
20
14.879
0
VERTEX
8
CONTOURS_MINEURES
10
44.000
20
14.879
0
VERTEX
8
CONTOURS_MINEURES
10
42.883
20
14.879
0
VERTEX
8
CONTOURS_MINEURES
10
42.001
20
14.879
0
VERTEX
8
CONTOURS_MINEURES
10
40.103
20
15.997
0
VERTEX
8
CONTOURS_MINEURES
10
40.103
20
16.097
0
VERTEX
8
CONTOURS_MINEURES
10
40.103
20
17.998
0
VERTEX
8
CONTOURS_MINEURES
10
40.003
20
18.141
0
VERTEX
8
CONTOURS_MINEURES
10
38.147
20
18.141
0
VERTEX
8
CONTOURS_MINEURES
10
38.004
20
18.141
0
VERTEX
8
CONTOURS_MINEURES
10
37.037
20
19.036
0
VERTEX
8
CONTOURS_MINEURES
10
35.995
20
19.999
0
VERTEX
8
CONTOURS_MINEURES
10
35.995
20
22.000
0
VERTEX
8
CONTOURS_MINEURES
10
35.995
20
24.000
0
VERTEX
8
CONTOURS_MINEURES
10
33.996
20
24.000
0
VERTEX
8
CONTOURS_MINEURES
10
31.998
20
25.035
0
VERTEX
8
CONTOURS_MINEURES
10
31.033
20
25.035
0
VERTEX
8
CONTOURS_MINEURES
10
29.999
20
25.035
0
VERTEX
8
CONTOURS_MINEURES
10
29.034
20
25.035
0
VERTEX
8
CONTOURS_MINEURES
10
28.001
20
25.035
0
VERTEX
8
CONTOURS_MINEURES
10
26.335
20
25.668
0
VERTEX
8
CONTOURS_MINEURES
10
26.002
20
25.808
0
VERTEX
8
CONTOURS_MINEURES
10
25.809
20
25.808
0
VERTEX
8
CONTOURS_MINEURES
10
24.004
20
25.808
0
VERTEX
8
CONTOURS_MINEURES
10
22.255
20
25.751
0
VERTEX
8
CONTOURS_MINEURES
10
22.005
20
25.743
0
VERTEX
8
CONTOURS_MINEURES
10
21.746
20
25.743
0
VERTEX
8
CONTOURS_MINEURES
10
19.996
20
25.743
0
VERTEX
8
CONTOURS_MINEURES
10
19.785
20
25.791
0
VERTEX
8
CONTOURS_MINEURES
10
19.463
20
26.001
0
VERTEX
8
CONTOURS_MINEURES
10
19.463
20
27.468
0
VERTEX
8
CONTOURS_MINEURES
10
19.463
20
28.002
0
VERTEX
8
CONTOURS_MINEURES
10
17.997
20
28.451
0
VERTEX
8
CONTOURS_MINEURES
10
16.447
20
28.451
0
VERTEX
8
CONTOURS_MINEURES
10
15.999
20
28.451
0
VERTEX
8
CONTOURS_MINEURES
10
15.312
20
28.690
0
VERTEX
8
CONTOURS_MINEURES
10
14.000
20
29.195
0
VERTEX
8
CONTOURS_MINEURES
10
13.193
20
29.195
0
VERTEX
8
CONTOURS_MINEURES
10
12.001
20
29.195
0
VERTEX
8
CONTOURS_MINEURES
10
10.810
20
29.195
0
VERTEX
8
CONTOURS_MINEURES
10
10.003
20
29.195
0
VERTEX
8
CONTOURS_MINEURES
10
9.078
20
28.928
0
VERTEX
8
CONTOURS_MINEURES
10
8.004
20
28.877
0
VERTEX
8
CONTOURS_MINEURES
10
6.874
20
28.877
0
VERTEX
8
CONTOURS_MINEURES
10
5.995
20
28.877
0
VERTEX
8
CONTOURS_MINEURES
10
4.246
20
28.002
0
VERTEX
8
CONTOURS_MINEURES
10
4.246
20
26.251
0
VERTEX
8
CONTOURS_MINEURES
10
4.246
20
26.001
0
VERTEX
8
CONTOURS_MINEURES
10
4.130
20
25.868
0
VERTEX
8
CONTOURS_MINEURES
10
3.997
20
25.823
0
VERTEX
8
CONTOURS_MINEURES
10
3.819
20
25.823
0
VERTEX
8
CONTOURS_MINEURES
10
1.998
20
25.823
0
VERTEX
8
CONTOURS_MINEURES
10
0.775
20
25.225
0
VERTEX
8
CONTOURS_MINEURES
10
-0.001
20
25.020
0
SEQEND
0
POLYLINE
8
CONTOURS_MAJEURES
66
1
70
0
0
VERTEX
8
CONTOURS_MAJEURES
10
54.574
20
64.005
0
VERTEX
8
CONTOURS_MAJEURES
10
54.234
20
63.774
0
VERTEX
8
CONTOURS_MAJEURES
10
54.003
20
63.783
0
VERTEX
8
CONTOURS_MAJEURES
10
52.227
20
63.783
0
VERTEX
8
CONTOURS_MAJEURES
10
52.005
20
63.783
0
VERTEX
8
CONTOURS_MAJEURES
10
51.718
20
63.719
0
VERTEX
8
CONTOURS_MAJEURES
10
49.995
20
62.893
0
VERTEX
8
CONTOURS_MAJEURES
10
49.107
20
62.893
0
VERTEX
8
CONTOURS_MAJEURES
10
47.997
20
62.893
0
VERTEX
8
CONTOURS_MAJEURES
10
46.020
20
62.026
0
VERTEX
8
CONTOURS_MAJEURES
10
45.998
20
62.015
0
VERTEX
8
CONTOURS_MAJEURES
10
45.987
20
62.015
0
VERTEX
8
CONTOURS_MAJEURES
10
44.000
20
62.015
0
VERTEX
8
CONTOURS_MAJEURES
10
42.012
20
62.015
0
VERTEX
8
CONTOURS_MAJEURES
10
42.001
20
62.015
0
VERTEX
8
CONTOURS_MAJEURES
10
41.993
20
62.013
0
VERTEX
8
CONTOURS_MAJEURES
10
41.976
20
62.004
0
VERTEX
8
CONTOURS_MAJEURES
10
41.976
20
61.978
0
VERTEX
8
CONTOURS_MAJEURES
10
41.976
20
60.003
0
VERTEX
8
CONTOURS_MAJEURES
10
41.976
20
58.028
0
VERTEX
8
CONTOURS_MAJEURES
10
41.976
20
58.003
0
VERTEX
8
CONTOURS_MAJEURES
10
40.003
20
56.933
0
VERTEX
8
CONTOURS_MAJEURES
10
38.934
20
56.933
0
VERTEX
8
CONTOURS_MAJEURES
10
38.004
20
56.933
0
VERTEX
8
CONTOURS_MAJEURES
10
37.341
20
56.662
0
VERTEX
8
CONTOURS_MAJEURES
10
35.995
20
56.151
0
VERTEX
8
CONTOURS_MAJEURES
10
35.845
20
56.151
0
VERTEX
8
CONTOURS_MAJEURES
10
33.996
20
56.151
0
VERTEX
8
CONTOURS_MAJEURES
10
33.330
20
56.002
0
VERTEX
8
CONTOURS_MAJEURES
10
33.330
20
54.668
0
VERTEX
8
CONTOURS_MAJEURES
10
33.330
20
54.001
0
VERTEX
8
CONTOURS_MAJEURES
10
31.998
20
53.697
0
VERTEX
8
CONTOURS_MAJEURES
10
30.302
20
53.697
0
VERTEX
8
CONTOURS_MAJEURES
10
29.999
20
53.697
0
VERTEX
8
CONTOURS_MAJEURES
10
29.696
20
53.697
0
VERTEX
8
CONTOURS_MAJEURES
10
28.001
20
53.697
0
VERTEX
8
CONTOURS_MAJEURES
10
26.571
20
53.431
0
VERTEX
8
CONTOURS_MAJEURES
10
26.002
20
53.364
0
VERTEX
8
CONTOURS_MAJEURES
10
25.366
20
53.364
0
VERTEX
8
CONTOURS_MAJEURES
10
24.004
20
53.364
0
VERTEX
8
CONTOURS_MAJEURES
10
22.732
20
53.273
0
VERTEX
8
CONTOURS_MAJEURES
10
22.005
20
53.179
0
VERTEX
8
CONTOURS_MAJEURES
10
20.821
20
53.179
0
VERTEX
8
CONTOURS_MAJEURES
10
19.996
20
53.179
0
VERTEX
8
CONTOURS_MAJEURES
10
18.928
20
53.069
0
VERTEX
8
CONTOURS_MAJEURES
10
17.997
20
52.906
0
VERTEX
8
CONTOURS_MAJEURES
10
17.093
20
52.906
0
VERTEX
8
CONTOURS_MAJEURES
10
15.999
20
52.906
0
VERTEX
8
CONTOURS_MAJEURES
10
14.818
20
52.819
0
VERTEX
8
CONTOURS_MAJEURES
10
14.000
20
52.749
0
VERTEX
8
CONTOURS_MAJEURES
10
13.252
20
52.749
0
VERTEX
8
CONTOURS_MAJEURES
10
12.001
20
52.749
0
VERTEX
8
CONTOURS_MAJEURES
10
10.751
20
52.749
0
VERTEX
8
CONTOURS_MAJEURES
10
10.003
20
52.749
0
VERTEX
8
CONTOURS_MAJEURES
10
9.255
20
52.749
0
VERTEX
8
CONTOURS_MAJEURES
10
8.004
20
52.817
0
VERTEX
8
CONTOURS_MAJEURES
10
6.815
20
52.817
0
VERTEX
8
CONTOURS_MAJEURES
10
5.995
20
52.817
0
VERTEX
8
CONTOURS_MAJEURES
10
4.582
20
52.586
0
VERTEX
8
CONTOURS_MAJEURES
10
3.997
20
52.497
0
VERTEX
8
CONTOURS_MAJEURES
10
3.500
20
52.497
0
VERTEX
8
CONTOURS_MAJEURES
10
1.998
20
52.497
0
VERTEX
8
CONTOURS_MAJEURES
10
1.562
20
52.437
0
VERTEX
8
CONTOURS_MAJEURES
10
-0.001
20
52.196
0
SEQEND
0
POLYLINE
8
CONTOURS_MAJEURES
66
1
70
0
0
VERTEX
8
CONTOURS_MAJEURES
10
27.751
20
0.002
0
VERTEX
8
CONTOURS_MAJEURES
10
28.001
20
0.156
0
VERTEX
8
CONTOURS_MAJEURES
10
29.845
20
0.156
0
VERTEX
8
CONTOURS_MAJEURES
10
29.999
20
0.156
0
VERTEX
8
CONTOURS_MAJEURES
10
30.153
20
0.156
0
VERTEX
8
CONTOURS_MAJEURES
10
31.998
20
0.156
0
VERTEX
8
CONTOURS_MAJEURES
10
33.843
20
0.156
0
VERTEX
8
CONTOURS_MAJEURES
10
33.996
20
0.108
0
VERTEX
8
CONTOURS_MAJEURES
10
35.890
20
0.108
0
VERTEX
8
CONTOURS_MAJEURES
10
35.995
20
0.108
0
VERTEX
8
CONTOURS_MAJEURES
10
36.129
20
0.136
0
VERTEX
8
CONTOURS_MAJEURES
10
38.004
20
0.926
0
VERTEX
8
CONTOURS_MAJEURES
10
38.927
20
0.926
0
VERTEX
8
CONTOURS_MAJEURES
10
40.003
20
0.926
0
VERTEX
8
CONTOURS_MAJEURES
10
41.848
20
1.849
0
VERTEX
8
CONTOURS_MAJEURES
10
42.001
20
1.934
0
VERTEX
8
CONTOURS_MAJEURES
10
42.070
20
1.934
0
VERTEX
8
CONTOURS_MAJEURES
10
44.000
20
1.934
0
VERTEX
8
CONTOURS_MAJEURES
10
45.929
20
1.934
0
VERTEX
8
CONTOURS_MAJEURES
10
45.998
20
1.934
0
VERTEX
8
CONTOURS_MAJEURES
10
46.042
20
1.959
0
VERTEX
8
CONTOURS_MAJEURES
10
46.165
20
2.003
0
VERTEX
8
CONTOURS_MAJEURES
10
46.165
20
2.170
0
VERTEX
8
CONTOURS_MAJEURES
10
46.165
20
4.004
0
VERTEX
8
CONTOURS_MAJEURES
10
47.239
20
4.763
0
VERTEX
8
CONTOURS_MAJEURES
10
47.997
20
4.884
0
VERTEX
8
CONTOURS_MAJEURES
10
48.876
20
4.884
0
VERTEX
8
CONTOURS_MAJEURES
10
49.995
20
4.884
0
VERTEX
8
CONTOURS_MAJEURES
10
51.476
20
4.530
0
VERTEX
8
CONTOURS_MAJEURES
10
52.005
20
4.458
0
VERTEX
8
CONTOURS_MAJEURES
10
52.459
20
4.458
0
VERTEX
8
CONTOURS_MAJEURES
10
54.003
20
4.458
0
VERTEX
8
CONTOURS_MAJEURES
10
54.836
20
4.837
0
VERTEX
8
CONTOURS_MAJEURES
10
56.002
20
5.396
0
VERTEX
8
CONTOURS_MAJEURES
10
56.610
20
5.396
0
VERTEX
8
CONTOURS_MAJEURES
10
58.000
20
5.396
0
VERTEX
8
CONTOURS_MAJEURES
10
59.391
20
5.396
0
VERTEX
8
CONTOURS_MAJEURES
10
59.999
20
5.396
0
VERTEX
8
CONTOURS_MAJEURES
10
60.873
20
6.005
0
VERTEX
8
CONTOURS_MAJEURES
10
60.873
20
6.880
0
VERTEX
8
CONTOURS_MAJEURES
10
60.873
20
8.005
0
VERTEX
8
CONTOURS_MAJEURES
10
61.215
20
8.784
0
VERTEX
8
CONTOURS_MAJEURES
10
61.998
20
9.796
0
VERTEX
8
CONTOURS_MAJEURES
10
63.796
20
9.796
0
VERTEX
8
CONTOURS_MAJEURES
10
63.996
20
9.796
0
VERTEX
8
CONTOURS_MAJEURES
10
64.283
20
9.711
0
VERTEX
8
CONTOURS_MAJEURES
10
64.247
20
9.995
0
VERTEX
8
CONTOURS_MAJEURES
10
64.247
20
10.245
0
VERTEX
8
CONTOURS_MAJEURES
10
64.247
20
11.996
0
VERTEX
8
CONTOURS_MAJEURES
10
64.247
20
12.246
0
VERTEX
8
CONTOURS_MAJEURES
10
64.247
20
13.997
0
VERTEX
8
CONTOURS_MAJEURES
10
63.996
20
14.088
0
VERTEX
8
CONTOURS_MAJEURES
10
62.088
20
14.088
0
VERTEX
8
CONTOURS_MAJEURES
10
61.998
20
14.088
0
VERTEX
8
CONTOURS_MAJEURES
10
61.855
20
14.139
0
VERTEX
8
CONTOURS_MAJEURES
10
59.999
20
15.034
0
VERTEX
8
CONTOURS_MAJEURES
10
58.963
20
15.034
0
VERTEX
8
CONTOURS_MAJEURES
10
58.000
20
15.034
0
VERTEX
8
CONTOURS_MAJEURES
10
56.964
20
15.034
0
VERTEX
8
CONTOURS_MAJEURES
10
56.002
20
15.034
0
VERTEX
8
CONTOURS_MAJEURES
10
54.966
20
15.034
0
VERTEX
8
CONTOURS_MAJEURES
10
54.003
20
15.185
0
VERTEX
8
CONTOURS_MAJEURES
10
53.191
20
15.185
0
VERTEX
8
CONTOURS_MAJEURES
10
52.005
20
15.185
0
VERTEX
8
CONTOURS_MAJEURES
10
51.096
20
14.902
0
VERTEX
8
CONTOURS_MAJEURES
10
49.995
20
14.754
0
VERTEX
8
CONTOURS_MAJEURES
10
49.239
20
14.754
0
VERTEX
8
CONTOURS_MAJEURES
10
47.997
20
14.754
0
VERTEX
8
CONTOURS_MAJEURES
10
46.787
20
14.786
0
VERTEX
8
CONTOURS_MAJEURES
10
45.998
20
14.879
0
VERTEX
8
CONTOURS_MAJEURES
10
45.117
20
14.879
0
VERTEX
8
CONTOURS_MAJEURES
10
44.000
20
14.879
0
VERTEX
8
CONTOURS_MAJEURES
10
42.883
20
14.879
0
VERTEX
8
CONTOURS_MAJEURES
10
42.001
20
14.879
0
VERTEX
8
CONTOURS_MAJEURES
10
40.103
20
15.997
0
VERTEX
8
CONTOURS_MAJEURES
10
40.103
20
16.097
0
VERTEX
8
CONTOURS_MAJEURES
10
40.103
20
17.998
0
VERTEX
8
CONTOURS_MAJEURES
10
40.003
20
18.141
0
VERTEX
8
CONTOURS_MAJEURES
10
38.147
20
18.141
0
VERTEX
8
CONTOURS_MAJEURES
10
38.004
20
18.141
0
VERTEX
8
CONTOURS_MAJEURES
10
37.037
20
19.036
0
VERTEX
8
CONTOURS_MAJEURES
10
35.995
20
19.999
0
VERTEX
8
CONTOURS_MAJEURES
10
35.995
20
22.000
0
VERTEX
8
CONTOURS_MAJEURES
10
35.995
20
24.000
0
VERTEX
8
CONTOURS_MAJEURES
10
33.996
20
24.000
0
VERTEX
8
CONTOURS_MAJEURES
10
31.998
20
25.035
0
VERTEX
8
CONTOURS_MAJEURES
10
31.033
20
25.035
0
VERTEX
8
CONTOURS_MAJEURES
10
29.999
20
25.035
0
VERTEX
8
CONTOURS_MAJEURES
10
29.034
20
25.035
0
VERTEX
8
CONTOURS_MAJEURES
10
28.001
20
25.035
0
VERTEX
8
CONTOURS_MAJEURES
10
26.335
20
25.668
0
VERTEX
8
CONTOURS_MAJEURES
10
26.002
20
25.808
0
VERTEX
8
CONTOURS_MAJEURES
10
25.809
20
25.808
0
VERTEX
8
CONTOURS_MAJEURES
10
24.004
20
25.808
0
VERTEX
8
CONTOURS_MAJEURES
10
22.255
20
25.751
0
VERTEX
8
CONTOURS_MAJEURES
10
22.005
20
25.743
0
VERTEX
8
CONTOURS_MAJEURES
10
21.746
20
25.743
0
VERTEX
8
CONTOURS_MAJEURES
10
19.996
20
25.743
0
VERTEX
8
CONTOURS_MAJEURES
10
19.785
20
25.791
0
VERTEX
8
CONTOURS_MAJEURES
10
19.463
20
26.001
0
VERTEX
8
CONTOURS_MAJEURES
10
19.463
20
27.468
0
VERTEX
8
CONTOURS_MAJEURES
10
19.463
20
28.002
0
VERTEX
8
CONTOURS_MAJEURES
10
17.997
20
28.451
0
VERTEX
8
CONTOURS_MAJEURES
10
16.447
20
28.451
0
VERTEX
8
CONTOURS_MAJEURES
10
15.999
20
28.451
0
VERTEX
8
CONTOURS_MAJEURES
10
15.312
20
28.690
0
VERTEX
8
CONTOURS_MAJEURES
10
14.000
20
29.195
0
VERTEX
8
CONTOURS_MAJEURES
10
13.193
20
29.195
0
VERTEX
8
CONTOURS_MAJEURES
10
12.001
20
29.195
0
VERTEX
8
CONTOURS_MAJEURES
10
10.810
20
29.195
0
VERTEX
8
CONTOURS_MAJEURES
10
10.003
20
29.195
0
VERTEX
8
CONTOURS_MAJEURES
10
9.078
20
28.928
0
VERTEX
8
CONTOURS_MAJEURES
10
8.004
20
28.877
0
VERTEX
8
CONTOURS_MAJEURES
10
6.874
20
28.877
0
VERTEX
8
CONTOURS_MAJEURES
10
5.995
20
28.877
0
VERTEX
8
CONTOURS_MAJEURES
10
4.246
20
28.002
0
VERTEX
8
CONTOURS_MAJEURES
10
4.246
20
26.251
0
VERTEX
8
CONTOURS_MAJEURES
10
4.246
20
26.001
0
VERTEX
8
CONTOURS_MAJEURES
10
4.130
20
25.868
0
VERTEX
8
CONTOURS_MAJEURES
10
3.997
20
25.823
0
VERTEX
8
CONTOURS_MAJEURES
10
3.819
20
25.823
0
VERTEX
8
CONTOURS_MAJEURES
10
1.998
20
25.823
0
VERTEX
8
CONTOURS_MAJEURES
10
0.775
20
25.225
0
VERTEX
8
CONTOURS_MAJEURES
10
-0.001
20
25.020
0
SEQEND
0
POLYLINE
8
PARCELLE
66
1
70
1
0
VERTEX
8
PARCELLE
10
40.172
20
45.704
0
VERTEX
8
PARCELLE
10
47.419
20
25.675
0
VERTEX
8
PARCELLE
10
26.233
20
20.000
0
VERTEX
8
PARCELLE
10
20.000
20
39.143
0
VERTEX
8
PARCELLE
10
40.172
20
45.704
0
SEQEND
0
TEXT
8
POINTS_COTES
10
-0.001
20
0.002
40
1.0
1
70.5
0
TEXT
8
POINTS_COTES
10
44.000
20
2.003
40
1.0
1
70.0
0
TEXT
8
POINTS_COTES
10
19.996
20
6.005
40
1.0
1
70.4
0
TEXT
8
POINTS_COTES
10
63.996
20
8.005
40
1.0
1
69.9
0
TEXT
8
POINTS_COTES
10
40.003
20
11.996
40
1.0
1
70.3
0
TEXT
8
POINTS_COTES
10
15.999
20
15.997
40
1.0
1
70.5
0
TEXT
8
POINTS_COTES
10
59.999
20
17.998
40
1.0
1
69.9
0
TEXT
8
POINTS_COTES
10
35.995
20
22.000
40
1.0
1
70.0
0
TEXT
8
POINTS_COTES
10
12.001
20
26.001
40
1.0
1
70.3
0
TEXT
8
POINTS_COTES
10
56.002
20
28.002
40
1.0
1
68.8
0
TEXT
8
POINTS_COTES
10
31.998
20
32.004
40
1.0
1
69.5
0
TEXT
8
POINTS_COTES
10
8.004
20
36.005
40
1.0
1
68.9
0
TEXT
8
POINTS_COTES
10
52.005
20
37.995
40
1.0
1
68.2
0
TEXT
8
POINTS_COTES
10
28.001
20
41.996
40
1.0
1
68.5
0
TEXT
8
POINTS_COTES
10
3.997
20
45.998
40
1.0
1
66.5
0
TEXT
8
POINTS_COTES
10
47.997
20
47.999
40
1.0
1
66.8
0
TEXT
8
POINTS_COTES
10
24.004
20
52.000
40
1.0
1
66.0
0
TEXT
8
POINTS_COTES
10
-0.001
20
56.002
40
1.0
1
63.7
0
TEXT
8
POINTS_COTES
10
44.000
20
58.003
40
1.0
1
65.0
0
TEXT
8
POINTS_COTES
10
19.996
20
62.004
40
1.0
1
62.9
0
TEXT
8
POINTS_COTES
10
63.996
20
64.005
40
1.0
1
65.4
0
ENDSEC
0
EOF
