0
SECTION
2
HEADER
0
ENDSEC
0
SECTION
2
TABLES
0
TABLE
2
LAYER
70
4
0
LAYER
2
CONTOURS_MINEURES
70
0
62
8
6
CONTINUOUS
0
LAYER
2
CONTOURS_MAJEURES
70
0
62
3
6
CONTINUOUS
0
LAYER
2
PARCELLE
70
0
62
4
6
CONTINUOUS
0
LAYER
2
POINTS_COTES
70
0
62
7
6
CONTINUOUS
0
ENDTAB
0
ENDSEC
0
SECTION
2
ENTITIES
0
POLYLINE
8
CONTOURS_MINEURES
66
1
70
0
0
VERTEX
8
CONTOURS_MINEURES
10
-0.003
20
24.392
0
VERTEX
8
CONTOURS_MINEURES
10
0.355
20
23.996
0
VERTEX
8
CONTOURS_MINEURES
10
0.355
20
21.357
0
VERTEX
8
CONTOURS_MINEURES
10
0.355
20
21.000
0
VERTEX
8
CONTOURS_MINEURES
10
-0.003
20
20.424
0
SEQEND
0
POLYLINE
8
CONTOURS_MINEURES
66
1
70
0
0
VERTEX
8
CONTOURS_MINEURES
10
-0.003
20
33.134
0
VERTEX
8
CONTOURS_MINEURES
10
0.091
20
33.099
0
VERTEX
8
CONTOURS_MINEURES
10
0.232
20
33.005
0
VERTEX
8
CONTOURS_MINEURES
10
0.232
20
32.769
0
VERTEX
8
CONTOURS_MINEURES
10
0.232
20
29.998
0
VERTEX
8
CONTOURS_MINEURES
10
1.763
20
28.763
0
VERTEX
8
CONTOURS_MINEURES
10
3.003
20
27.764
0
VERTEX
8
CONTOURS_MINEURES
10
3.907
20
27.003
0
VERTEX
8
CONTOURS_MINEURES
10
4.889
20
25.890
0
VERTEX
8
CONTOURS_MINEURES
10
5.998
20
24.354
0
VERTEX
8
CONTOURS_MINEURES
10
8.646
20
24.354
0
VERTEX
8
CONTOURS_MINEURES
10
9.003
20
24.354
0
VERTEX
8
CONTOURS_MINEURES
10
9.168
20
24.161
0
VERTEX
8
CONTOURS_MINEURES
10
9.303
20
23.996
0
VERTEX
8
CONTOURS_MINEURES
10
9.303
20
21.300
0
VERTEX
8
CONTOURS_MINEURES
10
9.303
20
21.000
0
VERTEX
8
CONTOURS_MINEURES
10
9.003
20
20.501
0
VERTEX
8
CONTOURS_MINEURES
10
6.499
20
20.501
0
VERTEX
8
CONTOURS_MINEURES
10
5.998
20
20.501
0
VERTEX
8
CONTOURS_MINEURES
10
5.147
20
18.856
0
VERTEX
8
CONTOURS_MINEURES
10
4.558
20
18.005
0
VERTEX
8
CONTOURS_MINEURES
10
3.602
20
17.403
0
VERTEX
8
CONTOURS_MINEURES
10
3.003
20
16.861
0
VERTEX
8
CONTOURS_MINEURES
10
1.239
20
14.998
0
VERTEX
8
CONTOURS_MINEURES
10
1.239
20
13.760
0
VERTEX
8
CONTOURS_MINEURES
10
1.239
20
12.002
0
VERTEX
8
CONTOURS_MINEURES
10
-0.003
20
10.852
0
SEQEND
0
POLYLINE
8
CONTOURS_MINEURES
66
1
70
0
0
VERTEX
8
CONTOURS_MINEURES
10
-0.003
20
39.426
0
VERTEX
8
CONTOURS_MINEURES
10
0.284
20
39.284
0
VERTEX
8
CONTOURS_MINEURES
10
0.969
20
38.996
0
VERTEX
8
CONTOURS_MINEURES
10
0.969
20
38.027
0
VERTEX
8
CONTOURS_MINEURES
10
0.969
20
36.001
0
VERTEX
8
CONTOURS_MINEURES
10
2.458
20
35.458
0
VERTEX
8
CONTOURS_MINEURES
10
3.003
20
35.094
0
VERTEX
8
CONTOURS_MINEURES
10
4.128
20
34.131
0
VERTEX
8
CONTOURS_MINEURES
10
5.408
20
33.005
0
VERTEX
8
CONTOURS_MINEURES
10
5.408
20
30.591
0
VERTEX
8
CONTOURS_MINEURES
10
5.408
20
29.998
0
VERTEX
8
CONTOURS_MINEURES
10
5.998
20
29.486
0
VERTEX
8
CONTOURS_MINEURES
10
8.489
20
29.486
0
VERTEX
8
CONTOURS_MINEURES
10
9.003
20
29.486
0
VERTEX
8
CONTOURS_MINEURES
10
10.445
20
28.556
0
VERTEX
8
CONTOURS_MINEURES
10
11.998
20
27.431
0
VERTEX
8
CONTOURS_MINEURES
10
12.231
20
27.234
0
VERTEX
8
CONTOURS_MINEURES
10
12.560
20
27.003
0
VERTEX
8
CONTOURS_MINEURES
10
14.002
20
24.998
0
VERTEX
8
CONTOURS_MINEURES
10
14.665
20
23.996
0
VERTEX
8
CONTOURS_MINEURES
10
14.665
20
23.658
0
VERTEX
8
CONTOURS_MINEURES
10
14.665
20
21.000
0
VERTEX
8
CONTOURS_MINEURES
10
13.835
20
19.170
0
VERTEX
8
CONTOURS_MINEURES
10
13.190
20
18.005
0
VERTEX
8
CONTOURS_MINEURES
10
11.998
20
17.228
0
VERTEX
8
CONTOURS_MINEURES
10
10.597
20
16.405
0
VERTEX
8
CONTOURS_MINEURES
10
9.003
20
15.288
0
VERTEX
8
CONTOURS_MINEURES
10
8.714
20
15.288
0
VERTEX
8
CONTOURS_MINEURES
10
5.998
20
15.288
0
VERTEX
8
CONTOURS_MINEURES
10
5.820
20
15.176
0
VERTEX
8
CONTOURS_MINEURES
10
5.623
20
14.998
0
VERTEX
8
CONTOURS_MINEURES
10
5.623
20
12.377
0
VERTEX
8
CONTOURS_MINEURES
10
5.623
20
12.002
0
VERTEX
8
CONTOURS_MINEURES
10
3.003
20
10.089
0
VERTEX
8
CONTOURS_MINEURES
10
1.830
20
8.996
0
VERTEX
8
CONTOURS_MINEURES
10
-0.003
20
7.169
0
SEQEND
0
POLYLINE
8
CONTOURS_MINEURES
66
1
70
0
0
VERTEX
8
CONTOURS_MINEURES
10
-0.003
20
48.664
0
VERTEX
8
CONTOURS_MINEURES
10
0.315
20
48.322
0
VERTEX
8
CONTOURS_MINEURES
10
0.686
20
48.005
0
VERTEX
8
CONTOURS_MINEURES
10
0.686
20
45.688
0
VERTEX
8
CONTOURS_MINEURES
10
0.686
20
44.999
0
VERTEX
8
CONTOURS_MINEURES
10
2.201
20
42.802
0
VERTEX
8
CONTOURS_MINEURES
10
2.686
20
42.003
0
VERTEX
8
CONTOURS_MINEURES
10
2.898
20
41.898
0
VERTEX
8
CONTOURS_MINEURES
10
3.003
20
41.855
0
VERTEX
8
CONTOURS_MINEURES
10
3.751
20
41.251
0
VERTEX
8
CONTOURS_MINEURES
10
5.998
20
39.535
0
VERTEX
8
CONTOURS_MINEURES
10
6.536
20
39.535
0
VERTEX
8
CONTOURS_MINEURES
10
9.003
20
39.535
0
VERTEX
8
CONTOURS_MINEURES
10
9.426
20
38.996
0
VERTEX
8
CONTOURS_MINEURES
10
9.426
20
36.424
0
VERTEX
8
CONTOURS_MINEURES
10
9.426
20
36.001
0
VERTEX
8
CONTOURS_MINEURES
10
10.632
20
34.634
0
VERTEX
8
CONTOURS_MINEURES
10
11.998
20
33.544
0
VERTEX
8
CONTOURS_MINEURES
10
12.578
20
33.005
0
VERTEX
8
CONTOURS_MINEURES
10
12.578
20
30.578
0
VERTEX
8
CONTOURS_MINEURES
10
12.578
20
29.998
0
VERTEX
8
CONTOURS_MINEURES
10
13.892
20
28.889
0
VERTEX
8
CONTOURS_MINEURES
10
15.004
20
28.105
0
VERTEX
8
CONTOURS_MINEURES
10
16.106
20
28.105
0
VERTEX
8
CONTOURS_MINEURES
10
17.999
20
28.105
0
VERTEX
8
CONTOURS_MINEURES
10
19.831
20
27.003
0
VERTEX
8
CONTOURS_MINEURES
10
21.005
20
25.557
0
VERTEX
8
CONTOURS_MINEURES
10
21.790
20
24.784
0
VERTEX
8
CONTOURS_MINEURES
10
22.656
20
23.996
0
VERTEX
8
CONTOURS_MINEURES
10
22.656
20
22.345
0
VERTEX
8
CONTOURS_MINEURES
10
22.656
20
21.000
0
VERTEX
8
CONTOURS_MINEURES
10
22.083
20
19.922
0
VERTEX
8
CONTOURS_MINEURES
10
21.478
20
18.005
0
VERTEX
8
CONTOURS_MINEURES
10
21.005
20
17.707
0
VERTEX
8
CONTOURS_MINEURES
10
19.328
20
16.675
0
VERTEX
8
CONTOURS_MINEURES
10
17.999
20
15.948
0
VERTEX
8
CONTOURS_MINEURES
10
15.950
20
15.948
0
VERTEX
8
CONTOURS_MINEURES
10
15.004
20
15.948
0
VERTEX
8
CONTOURS_MINEURES
10
13.595
20
14.998
0
VERTEX
8
CONTOURS_MINEURES
10
13.595
20
13.407
0
VERTEX
8
CONTOURS_MINEURES
10
13.595
20
12.002
0
VERTEX
8
CONTOURS_MINEURES
10
11.998
20
10.980
0
VERTEX
8
CONTOURS_MINEURES
10
10.747
20
10.252
0
VERTEX
8
CONTOURS_MINEURES
10
9.003
20
9.208
0
VERTEX
8
CONTOURS_MINEURES
10
8.791
20
9.208
0
VERTEX
8
CONTOURS_MINEURES
10
5.998
20
9.208
0
VERTEX
8
CONTOURS_MINEURES
10
5.718
20
8.996
0
VERTEX
8
CONTOURS_MINEURES
10
3.377
20
6.375
0
VERTEX
8
CONTOURS_MINEURES
10
3.045
20
6.000
0
VERTEX
8
CONTOURS_MINEURES
10
3.045
20
3.047
0
VERTEX
8
CONTOURS_MINEURES
10
3.045
20
3.004
0
VERTEX
8
CONTOURS_MINEURES
10
3.026
20
2.981
0
VERTEX
8
CONTOURS_MINEURES
10
3.003
20
2.954
0
VERTEX
8
CONTOURS_MINEURES
10
1.619
20
1.382
0
VERTEX
8
CONTOURS_MINEURES
10
0.647
20
-0.002
0
SEQEND
0
POLYLINE
8
CONTOURS_MINEURES
66
1
70
0
0
VERTEX
8
CONTOURS_MINEURES
10
-0.003
20
57.295
0
VERTEX
8
CONTOURS_MINEURES
10
0.359
20
57.003
0
VERTEX
8
CONTOURS_MINEURES
10
0.359
20
54.359
0
VERTEX
8
CONTOURS_MINEURES
10
0.359
20
53.997
0
VERTEX
8
CONTOURS_MINEURES
10
1.634
20
52.632
0
VERTEX
8
CONTOURS_MINEURES
10
3.003
20
51.362
0
VERTEX
8
CONTOURS_MINEURES
10
3.311
20
51.001
0
VERTEX
8
CONTOURS_MINEURES
10
4.524
20
49.527
0
VERTEX
8
CONTOURS_MINEURES
10
5.777
20
48.005
0
VERTEX
8
CONTOURS_MINEURES
10
5.777
20
47.784
0
VERTEX
8
CONTOURS_MINEURES
10
5.777
20
44.999
0
VERTEX
8
CONTOURS_MINEURES
10
5.849
20
44.850
0
VERTEX
8
CONTOURS_MINEURES
10
5.998
20
44.699
0
VERTEX
8
CONTOURS_MINEURES
10
6.298
20
44.699
0
VERTEX
8
CONTOURS_MINEURES
10
9.003
20
44.699
0
VERTEX
8
CONTOURS_MINEURES
10
10.040
20
43.040
0
VERTEX
8
CONTOURS_MINEURES
10
10.825
20
42.003
0
VERTEX
8
CONTOURS_MINEURES
10
11.998
20
40.446
0
VERTEX
8
CONTOURS_MINEURES
10
12.587
20
39.585
0
VERTEX
8
CONTOURS_MINEURES
10
12.871
20
38.996
0
VERTEX
8
CONTOURS_MINEURES
10
12.871
20
38.127
0
VERTEX
8
CONTOURS_MINEURES
10
12.871
20
36.001
0
VERTEX
8
CONTOURS_MINEURES
10
15.004
20
34.004
0
VERTEX
8
CONTOURS_MINEURES
10
16.003
20
34.004
0
VERTEX
8
CONTOURS_MINEURES
10
17.999
20
34.004
0
VERTEX
8
CONTOURS_MINEURES
10
19.271
20
33.005
0
VERTEX
8
CONTOURS_MINEURES
10
19.271
20
31.270
0
VERTEX
8
CONTOURS_MINEURES
10
19.271
20
29.998
0
VERTEX
8
CONTOURS_MINEURES
10
21.005
20
28.875
0
VERTEX
8
CONTOURS_MINEURES
10
22.140
20
28.137
0
VERTEX
8
CONTOURS_MINEURES
10
24.000
20
27.492
0
VERTEX
8
CONTOURS_MINEURES
10
26.506
20
27.492
0
VERTEX
8
CONTOURS_MINEURES
10
26.995
20
27.492
0
VERTEX
8
CONTOURS_MINEURES
10
27.844
20
27.003
0
VERTEX
8
CONTOURS_MINEURES
10
30.001
20
24.681
0
VERTEX
8
CONTOURS_MINEURES
10
30.782
20
23.996
0
VERTEX
8
CONTOURS_MINEURES
10
30.782
20
21.782
0
VERTEX
8
CONTOURS_MINEURES
10
30.782
20
21.000
0
VERTEX
8
CONTOURS_MINEURES
10
30.551
20
20.450
0
VERTEX
8
CONTOURS_MINEURES
10
30.038
20
18.005
0
VERTEX
8
CONTOURS_MINEURES
10
30.024
20
17.982
0
VERTEX
8
CONTOURS_MINEURES
10
30.001
20
17.959
0
VERTEX
8
CONTOURS_MINEURES
10
29.885
20
17.889
0
VERTEX
8
CONTOURS_MINEURES
10
26.995
20
15.974
0
VERTEX
8
CONTOURS_MINEURES
10
26.023
20
15.974
0
VERTEX
8
CONTOURS_MINEURES
10
24.000
20
15.974
0
VERTEX
8
CONTOURS_MINEURES
10
22.259
20
14.998
0
VERTEX
8
CONTOURS_MINEURES
10
22.259
20
13.744
0
VERTEX
8
CONTOURS_MINEURES
10
22.259
20
12.002
0
VERTEX
8
CONTOURS_MINEURES
10
21.454
20
11.551
0
VERTEX
8
CONTOURS_MINEURES
10
21.005
20
11.414
0
VERTEX
8
CONTOURS_MINEURES
10
19.776
20
10.772
0
VERTEX
8
CONTOURS_MINEURES
10
17.999
20
9.810
0
VERTEX
8
CONTOURS_MINEURES
10
17.188
20
9.810
0
VERTEX
8
CONTOURS_MINEURES
10
15.004
20
9.810
0
VERTEX
8
CONTOURS_MINEURES
10
13.702
20
8.996
0
VERTEX
8
CONTOURS_MINEURES
10
12.829
20
8.168
0
VERTEX
8
CONTOURS_MINEURES
10
11.998
20
7.476
0
VERTEX
8
CONTOURS_MINEURES
10
11.214
20
6.785
0
VERTEX
8
CONTOURS_MINEURES
10
10.430
20
6.000
0
VERTEX
8
CONTOURS_MINEURES
10
10.430
20
4.431
0
VERTEX
8
CONTOURS_MINEURES
10
10.430
20
3.004
0
VERTEX
8
CONTOURS_MINEURES
10
9.003
20
1.394
0
VERTEX
8
CONTOURS_MINEURES
10
7.393
20
1.394
0
VERTEX
8
CONTOURS_MINEURES
10
5.998
20
1.394
0
VERTEX
8
CONTOURS_MINEURES
10
5.384
20
0.613
0
VERTEX
8
CONTOURS_MINEURES
10
4.852
20
-0.002
0
SEQEND
0
POLYLINE
8
CONTOURS_MINEURES
66
1
70
0
0
VERTEX
8
CONTOURS_MINEURES
10
-0.003
20
64.068
0
VERTEX
8
CONTOURS_MINEURES
10
2.101
20
62.995
0
VERTEX
8
CONTOURS_MINEURES
10
2.101
20
62.096
0
VERTEX
8
CONTOURS_MINEURES
10
2.101
20
59.999
0
VERTEX
8
CONTOURS_MINEURES
10
3.003
20
59.297
0
VERTEX
8
CONTOURS_MINEURES
10
4.131
20
58.132
0
VERTEX
8
CONTOURS_MINEURES
10
5.296
20
57.003
0
VERTEX
8
CONTOURS_MINEURES
10
5.296
20
54.701
0
VERTEX
8
CONTOURS_MINEURES
10
5.296
20
53.997
0
VERTEX
8
CONTOURS_MINEURES
10
5.998
20
53.164
0
VERTEX
8
CONTOURS_MINEURES
10
6.833
20
53.164
0
VERTEX
8
CONTOURS_MINEURES
10
9.003
20
53.164
0
VERTEX
8
CONTOURS_MINEURES
10
9.882
20
51.879
0
VERTEX
8
CONTOURS_MINEURES
10
10.482
20
51.001
0
VERTEX
8
CONTOURS_MINEURES
10
11.998
20
48.822
0
VERTEX
8
CONTOURS_MINEURES
10
12.340
20
48.346
0
VERTEX
8
CONTOURS_MINEURES
10
12.542
20
48.005
0
VERTEX
8
CONTOURS_MINEURES
10
12.542
20
47.462
0
VERTEX
8
CONTOURS_MINEURES
10
12.542
20
44.999
0
VERTEX
8
CONTOURS_MINEURES
10
13.534
20
43.533
0
VERTEX
8
CONTOURS_MINEURES
10
14.601
20
42.003
0
VERTEX
8
CONTOURS_MINEURES
10
14.765
20
41.763
0
VERTEX
8
CONTOURS_MINEURES
10
15.004
20
41.268
0
VERTEX
8
CONTOURS_MINEURES
10
15.736
20
41.268
0
VERTEX
8
CONTOURS_MINEURES
10
17.999
20
41.268
0
VERTEX
8
CONTOURS_MINEURES
10
18.858
20
38.996
0
VERTEX
8
CONTOURS_MINEURES
10
18.858
20
36.857
0
VERTEX
8
CONTOURS_MINEURES
10
18.858
20
36.001
0
VERTEX
8
CONTOURS_MINEURES
10
21.005
20
34.182
0
VERTEX
8
CONTOURS_MINEURES
10
23.117
20
33.005
0
VERTEX
8
CONTOURS_MINEURES
10
23.117
20
32.118
0
VERTEX
8
CONTOURS_MINEURES
10
23.117
20
29.998
0
VERTEX
8
CONTOURS_MINEURES
10
23.652
20
29.650
0
VERTEX
8
CONTOURS_MINEURES
10
24.000
20
29.530
0
VERTEX
8
CONTOURS_MINEURES
10
24.469
20
29.530
0
VERTEX
8
CONTOURS_MINEURES
10
26.995
20
29.530
0
VERTEX
8
CONTOURS_MINEURES
10
28.110
20
28.887
0
VERTEX
8
CONTOURS_MINEURES
10
30.001
20
27.797
0
VERTEX
8
CONTOURS_MINEURES
10
30.705
20
27.707
0
VERTEX
8
CONTOURS_MINEURES
10
32.291
20
27.003
0
VERTEX
8
CONTOURS_MINEURES
10
32.996
20
26.411
0
VERTEX
8
CONTOURS_MINEURES
10
35.411
20
26.411
0
VERTEX
8
CONTOURS_MINEURES
10
36.002
20
26.411
0
VERTEX
8
CONTOURS_MINEURES
10
37.633
20
23.996
0
VERTEX
8
CONTOURS_MINEURES
10
37.633
20
22.365
0
VERTEX
8
CONTOURS_MINEURES
10
37.633
20
21.000
0
VERTEX
8
CONTOURS_MINEURES
10
36.984
20
18.987
0
VERTEX
8
CONTOURS_MINEURES
10
36.537
20
18.005
0
VERTEX
8
CONTOURS_MINEURES
10
36.002
20
16.848
0
VERTEX
8
CONTOURS_MINEURES
10
34.152
20
16.848
0
VERTEX
8
CONTOURS_MINEURES
10
32.996
20
16.848
0
VERTEX
8
CONTOURS_MINEURES
10
32.276
20
15.721
0
VERTEX
8
CONTOURS_MINEURES
10
31.566
20
14.998
0
VERTEX
8
CONTOURS_MINEURES
10
31.566
20
13.567
0
VERTEX
8
CONTOURS_MINEURES
10
31.566
20
12.002
0
VERTEX
8
CONTOURS_MINEURES
10
30.001
20
10.432
0
VERTEX
8
CONTOURS_MINEURES
10
29.102
20
9.895
0
VERTEX
8
CONTOURS_MINEURES
10
26.995
20
9.074
0
VERTEX
8
CONTOURS_MINEURES
10
24.078
20
9.074
0
VERTEX
8
CONTOURS_MINEURES
10
24.000
20
9.074
0
VERTEX
8
CONTOURS_MINEURES
10
23.950
20
9.046
0
VERTEX
8
CONTOURS_MINEURES
10
23.786
20
8.996
0
VERTEX
8
CONTOURS_MINEURES
10
21.932
20
8.069
0
VERTEX
8
CONTOURS_MINEURES
10
21.005
20
7.553
0
VERTEX
8
CONTOURS_MINEURES
10
20.180
20
6.822
0
VERTEX
8
CONTOURS_MINEURES
10
18.847
20
6.000
0
VERTEX
8
CONTOURS_MINEURES
10
18.847
20
3.849
0
VERTEX
8
CONTOURS_MINEURES
10
18.847
20
3.004
0
VERTEX
8
CONTOURS_MINEURES
10
17.999
20
2.235
0
VERTEX
8
CONTOURS_MINEURES
10
15.770
20
2.235
0
VERTEX
8
CONTOURS_MINEURES
10
15.004
20
2.235
0
VERTEX
8
CONTOURS_MINEURES
10
14.033
20
0.970
0
VERTEX
8
CONTOURS_MINEURES
10
12.714
20
-0.002
0
SEQEND
0
POLYLINE
8
CONTOURS_MINEURES
66
1
70
0
0
VERTEX
8
CONTOURS_MINEURES
10
-0.003
20
67.121
0
VERTEX
8
CONTOURS_MINEURES
10
0.743
20
66.745
0
VERTEX
8
CONTOURS_MINEURES
10
2.583
20
66.001
0
VERTEX
8
CONTOURS_MINEURES
10
3.003
20
65.803
0
VERTEX
8
CONTOURS_MINEURES
10
3.721
20
65.280
0
VERTEX
8
CONTOURS_MINEURES
10
5.998
20
63.644
0
VERTEX
8
CONTOURS_MINEURES
10
6.647
20
63.644
0
VERTEX
8
CONTOURS_MINEURES
10
9.003
20
63.644
0
VERTEX
8
CONTOURS_MINEURES
10
9.816
20
62.995
0
VERTEX
8
CONTOURS_MINEURES
10
9.816
20
60.812
0
VERTEX
8
CONTOURS_MINEURES
10
9.816
20
59.999
0
VERTEX
8
CONTOURS_MINEURES
10
11.998
20
57.319
0
VERTEX
8
CONTOURS_MINEURES
10
12.150
20
57.154
0
VERTEX
8
CONTOURS_MINEURES
10
12.264
20
57.003
0
VERTEX
8
CONTOURS_MINEURES
10
12.264
20
56.738
0
VERTEX
8
CONTOURS_MINEURES
10
12.264
20
53.997
0
VERTEX
8
CONTOURS_MINEURES
10
12.783
20
53.215
0
VERTEX
8
CONTOURS_MINEURES
10
14.341
20
51.001
0
VERTEX
8
CONTOURS_MINEURES
10
14.617
20
50.615
0
VERTEX
8
CONTOURS_MINEURES
10
15.004
20
49.962
0
VERTEX
8
CONTOURS_MINEURES
10
16.960
20
49.962
0
VERTEX
8
CONTOURS_MINEURES
10
17.999
20
49.962
0
VERTEX
8
CONTOURS_MINEURES
10
19.118
20
48.005
0
VERTEX
8
CONTOURS_MINEURES
10
19.118
20
46.117
0
VERTEX
8
CONTOURS_MINEURES
10
19.118
20
44.999
0
VERTEX
8
CONTOURS_MINEURES
10
19.551
20
43.452
0
VERTEX
8
CONTOURS_MINEURES
10
20.247
20
42.003
0
VERTEX
8
CONTOURS_MINEURES
10
21.005
20
39.999
0
VERTEX
8
CONTOURS_MINEURES
10
21.396
20
39.388
0
VERTEX
8
CONTOURS_MINEURES
10
21.629
20
38.996
0
VERTEX
8
CONTOURS_MINEURES
10
21.629
20
38.372
0
VERTEX
8
CONTOURS_MINEURES
10
21.629
20
36.001
0
VERTEX
8
CONTOURS_MINEURES
10
24.000
20
34.726
0
VERTEX
8
CONTOURS_MINEURES
10
25.721
20
34.726
0
VERTEX
8
CONTOURS_MINEURES
10
26.995
20
34.726
0
VERTEX
8
CONTOURS_MINEURES
10
28.357
20
34.362
0
VERTEX
8
CONTOURS_MINEURES
10
29.718
20
33.005
0
VERTEX
8
CONTOURS_MINEURES
10
29.718
20
30.281
0
VERTEX
8
CONTOURS_MINEURES
10
29.718
20
29.998
0
VERTEX
8
CONTOURS_MINEURES
10
30.001
20
29.835
0
VERTEX
8
CONTOURS_MINEURES
10
32.509
20
29.511
0
VERTEX
8
CONTOURS_MINEURES
10
32.996
20
29.295
0
VERTEX
8
CONTOURS_MINEURES
10
33.702
20
29.295
0
VERTEX
8
CONTOURS_MINEURES
10
36.002
20
29.295
0
VERTEX
8
CONTOURS_MINEURES
10
37.984
20
28.985
0
VERTEX
8
CONTOURS_MINEURES
10
38.997
20
28.484
0
VERTEX
8
CONTOURS_MINEURES
10
40.517
20
28.484
0
VERTEX
8
CONTOURS_MINEURES
10
42.003
20
28.484
0
VERTEX
8
CONTOURS_MINEURES
10
43.420
20
28.420
0
VERTEX
8
CONTOURS_MINEURES
10
44.998
20
27.423
0
VERTEX
8
CONTOURS_MINEURES
10
45.489
20
27.003
0
VERTEX
8
CONTOURS_MINEURES
10
44.998
20
24.998
0
VERTEX
8
CONTOURS_MINEURES
10
44.748
20
24.247
0
VERTEX
8
CONTOURS_MINEURES
10
44.808
20
23.996
0
VERTEX
8
CONTOURS_MINEURES
10
44.808
20
23.806
0
VERTEX
8
CONTOURS_MINEURES
10
44.808
20
21.000
0
VERTEX
8
CONTOURS_MINEURES
10
43.500
20
19.503
0
VERTEX
8
CONTOURS_MINEURES
10
42.360
20
18.005
0
VERTEX
8
CONTOURS_MINEURES
10
42.003
20
17.432
0
VERTEX
8
CONTOURS_MINEURES
10
41.430
20
17.432
0
VERTEX
8
CONTOURS_MINEURES
10
38.997
20
17.432
0
VERTEX
8
CONTOURS_MINEURES
10
37.999
20
14.998
0
VERTEX
8
CONTOURS_MINEURES
10
37.999
20
13.001
0
VERTEX
8
CONTOURS_MINEURES
10
37.999
20
12.002
0
VERTEX
8
CONTOURS_MINEURES
10
37.631
20
10.367
0
VERTEX
8
CONTOURS_MINEURES
10
36.658
20
8.996
0
VERTEX
8
CONTOURS_MINEURES
10
36.450
20
8.548
0
VERTEX
8
CONTOURS_MINEURES
10
36.002
20
8.140
0
VERTEX
8
CONTOURS_MINEURES
10
33.855
20
8.140
0
VERTEX
8
CONTOURS_MINEURES
10
32.996
20
8.140
0
VERTEX
8
CONTOURS_MINEURES
10
31.887
20
7.110
0
VERTEX
8
CONTOURS_MINEURES
10
30.447
20
6.000
0
VERTEX
8
CONTOURS_MINEURES
10
30.447
20
3.451
0
VERTEX
8
CONTOURS_MINEURES
10
30.447
20
3.004
0
VERTEX
8
CONTOURS_MINEURES
10
30.174
20
2.831
0
VERTEX
8
CONTOURS_MINEURES
10
30.001
20
2.690
0
VERTEX
8
CONTOURS_MINEURES
10
28.233
20
1.766
0
VERTEX
8
CONTOURS_MINEURES
10
26.995
20
0.576
0
VERTEX
8
CONTOURS_MINEURES
10
24.576
20
0.576
0
VERTEX
8
CONTOURS_MINEURES
10
24.000
20
0.576
0
VERTEX
8
CONTOURS_MINEURES
10
23.635
20
0.364
0
VERTEX
8
CONTOURS_MINEURES
10
23.349
20
-0.002
0
SEQEND
0
POLYLINE
8
CONTOURS_MINEURES
66
1
70
0
0
VERTEX
8
CONTOURS_MINEURES
10
-0.003
20
73.283
0
VERTEX
8
CONTOURS_MINEURES
10
0.729
20
72.733
0
VERTEX
8
CONTOURS_MINEURES
10
2.281
20
72.004
0
VERTEX
8
CONTOURS_MINEURES
10
2.281
20
71.282
0
VERTEX
8
CONTOURS_MINEURES
10
2.281
20
68.997
0
VERTEX
8
CONTOURS_MINEURES
10
2.760
20
68.756
0
VERTEX
8
CONTOURS_MINEURES
10
3.003
20
68.658
0
VERTEX
8
CONTOURS_MINEURES
10
3.838
20
68.161
0
VERTEX
8
CONTOURS_MINEURES
10
5.998
20
66.903
0
VERTEX
8
CONTOURS_MINEURES
10
6.902
20
66.903
0
VERTEX
8
CONTOURS_MINEURES
10
9.003
20
66.903
0
VERTEX
8
CONTOURS_MINEURES
10
9.573
20
66.571
0
VERTEX
8
CONTOURS_MINEURES
10
10.525
20
66.001
0
VERTEX
8
CONTOURS_MINEURES
10
11.998
20
64.859
0
VERTEX
8
CONTOURS_MINEURES
10
13.089
20
64.086
0
VERTEX
8
CONTOURS_MINEURES
10
14.374
20
62.995
0
VERTEX
8
CONTOURS_MINEURES
10
14.374
20
62.366
0
VERTEX
8
CONTOURS_MINEURES
10
14.374
20
59.999
0
VERTEX
8
CONTOURS_MINEURES
10
14.676
20
59.672
0
VERTEX
8
CONTOURS_MINEURES
10
15.004
20
59.235
0
VERTEX
8
CONTOURS_MINEURES
10
15.768
20
59.235
0
VERTEX
8
CONTOURS_MINEURES
10
17.999
20
59.235
0
VERTEX
8
CONTOURS_MINEURES
10
19.019
20
58.020
0
VERTEX
8
CONTOURS_MINEURES
10
19.679
20
57.003
0
VERTEX
8
CONTOURS_MINEURES
10
19.679
20
55.323
0
VERTEX
8
CONTOURS_MINEURES
10
19.679
20
53.997
0
VERTEX
8
CONTOURS_MINEURES
10
20.207
20
53.201
0
VERTEX
8
CONTOURS_MINEURES
10
21.005
20
51.857
0
VERTEX
8
CONTOURS_MINEURES
10
21.625
20
51.001
0
VERTEX
8
CONTOURS_MINEURES
10
22.503
20
49.503
0
VERTEX
8
CONTOURS_MINEURES
10
23.192
20
48.005
0
VERTEX
8
CONTOURS_MINEURES
10
23.192
20
45.810
0
VERTEX
8
CONTOURS_MINEURES
10
23.192
20
44.999
0
VERTEX
8
CONTOURS_MINEURES
10
23.415
20
44.413
0
VERTEX
8
CONTOURS_MINEURES
10
24.000
20
42.003
0
VERTEX
8
CONTOURS_MINEURES
10
26.995
20
42.003
0
VERTEX
8
CONTOURS_MINEURES
10
30.001
20
39.722
0
VERTEX
8
CONTOURS_MINEURES
10
30.618
20
39.615
0
VERTEX
8
CONTOURS_MINEURES
10
32.996
20
39.104
0
VERTEX
8
CONTOURS_MINEURES
10
35.895
20
39.104
0
VERTEX
8
CONTOURS_MINEURES
10
36.002
20
39.104
0
VERTEX
8
CONTOURS_MINEURES
10
36.069
20
39.063
0
VERTEX
8
CONTOURS_MINEURES
10
38.997
20
38.996
0
VERTEX
8
CONTOURS_MINEURES
10
38.997
20
36.001
0
VERTEX
8
CONTOURS_MINEURES
10
42.003
20
36.001
0
VERTEX
8
CONTOURS_MINEURES
10
44.998
20
36.001
0
VERTEX
8
CONTOURS_MINEURES
10
44.998
20
38.996
0
VERTEX
8
CONTOURS_MINEURES
10
47.244
20
39.757
0
VERTEX
8
CONTOURS_MINEURES
10
48.004
20
39.915
0
VERTEX
8
CONTOURS_MINEURES
10
48.919
20
39.915
0
VERTEX
8
CONTOURS_MINEURES
10
50.999
20
39.915
0
VERTEX
8
CONTOURS_MINEURES
10
51.681
20
39.678
0
VERTEX
8
CONTOURS_MINEURES
10
53.065
20
38.996
0
VERTEX
8
CONTOURS_MINEURES
10
53.065
20
38.060
0
VERTEX
8
CONTOURS_MINEURES
10
53.065
20
36.001
0
VERTEX
8
CONTOURS_MINEURES
10
54.005
20
35.065
0
VERTEX
8
CONTOURS_MINEURES
10
54.684
20
33.005
0
VERTEX
8
CONTOURS_MINEURES
10
54.684
20
30.680
0
VERTEX
8
CONTOURS_MINEURES
10
54.684
20
29.998
0
VERTEX
8
CONTOURS_MINEURES
10
54.677
20
29.326
0
VERTEX
8
CONTOURS_MINEURES
10
54.005
20
27.557
0
VERTEX
8
CONTOURS_MINEURES
10
53.770
20
27.003
0
VERTEX
8
CONTOURS_MINEURES
10
53.663
20
26.661
0
VERTEX
8
CONTOURS_MINEURES
10
52.830
20
23.996
0
VERTEX
8
CONTOURS_MINEURES
10
52.830
20
22.171
0
VERTEX
8
CONTOURS_MINEURES
10
52.830
20
21.000
0
VERTEX
8
CONTOURS_MINEURES
10
52.094
20
19.909
0
VERTEX
8
CONTOURS_MINEURES
10
50.999
20
18.080
0
VERTEX
8
CONTOURS_MINEURES
10
48.079
20
18.080
0
VERTEX
8
CONTOURS_MINEURES
10
48.004
20
18.080
0
VERTEX
8
CONTOURS_MINEURES
10
47.932
20
18.005
0
VERTEX
8
CONTOURS_MINEURES
10
47.160
20
15.842
0
VERTEX
8
CONTOURS_MINEURES
10
46.630
20
14.998
0
VERTEX
8
CONTOURS_MINEURES
10
46.630
20
13.629
0
VERTEX
8
CONTOURS_MINEURES
10
46.630
20
12.002
0
VERTEX
8
CONTOURS_MINEURES
10
45.802
20
11.198
0
VERTEX
8
CONTOURS_MINEURES
10
44.998
20
10.033
0
VERTEX
8
CONTOURS_MINEURES
10
44.433
20
8.996
0
VERTEX
8
CONTOURS_MINEURES
10
43.555
20
7.444
0
VERTEX
8
CONTOURS_MINEURES
10
42.553
20
6.000
0
VERTEX
8
CONTOURS_MINEURES
10
42.553
20
3.555
0
VERTEX
8
CONTOURS_MINEURES
10
42.553
20
3.004
0
VERTEX
8
CONTOURS_MINEURES
10
42.316
20
2.690
0
VERTEX
8
CONTOURS_MINEURES
10
42.003
20
2.389
0
VERTEX
8
CONTOURS_MINEURES
10
41.388
20
2.389
0
VERTEX
8
CONTOURS_MINEURES
10
38.997
20
2.389
0
VERTEX
8
CONTOURS_MINEURES
10
37.825
20
1.828
0
VERTEX
8
CONTOURS_MINEURES
10
36.002
20
0.567
0
VERTEX
8
CONTOURS_MINEURES
10
33.565
20
0.567
0
VERTEX
8
CONTOURS_MINEURES
10
32.996
20
0.567
0
VERTEX
8
CONTOURS_MINEURES
10
32.650
20
0.346
0
VERTEX
8
CONTOURS_MINEURES
10
32.220
20
-0.002
0
SEQEND
0
POLYLINE
8
CONTOURS_MINEURES
66
1
70
0
0
VERTEX
8
CONTOURS_MINEURES
10
-0.003
20
76.931
0
VERTEX
8
CONTOURS_MINEURES
10
2.195
20
74.999
0
VERTEX
8
CONTOURS_MINEURES
10
2.656
20
74.654
0
VERTEX
8
CONTOURS_MINEURES
10
3.003
20
74.490
0
VERTEX
8
CONTOURS_MINEURES
10
4.175
20
73.827
0
VERTEX
8
CONTOURS_MINEURES
10
5.998
20
72.826
0
VERTEX
8
CONTOURS_MINEURES
10
6.823
20
72.826
0
VERTEX
8
CONTOURS_MINEURES
10
9.003
20
72.826
0
VERTEX
8
CONTOURS_MINEURES
10
10.401
20
72.004
0
VERTEX
8
CONTOURS_MINEURES
10
10.401
20
70.600
0
VERTEX
8
CONTOURS_MINEURES
10
10.401
20
68.997
0
VERTEX
8
CONTOURS_MINEURES
10
11.410
20
68.409
0
VERTEX
8
CONTOURS_MINEURES
10
11.998
20
68.057
0
VERTEX
8
CONTOURS_MINEURES
10
13.401
20
67.399
0
VERTEX
8
CONTOURS_MINEURES
10
15.004
20
66.447
0
VERTEX
8
CONTOURS_MINEURES
10
17.553
20
66.447
0
VERTEX
8
CONTOURS_MINEURES
10
17.999
20
66.447
0
VERTEX
8
CONTOURS_MINEURES
10
18.841
20
66.001
0
VERTEX
8
CONTOURS_MINEURES
10
20.125
20
65.121
0
VERTEX
8
CONTOURS_MINEURES
10
21.005
20
64.255
0
VERTEX
8
CONTOURS_MINEURES
10
22.371
20
62.995
0
VERTEX
8
CONTOURS_MINEURES
10
22.371
20
61.365
0
VERTEX
8
CONTOURS_MINEURES
10
22.371
20
59.999
0
VERTEX
8
CONTOURS_MINEURES
10
24.000
20
57.734
0
VERTEX
8
CONTOURS_MINEURES
10
24.731
20
57.734
0
VERTEX
8
CONTOURS_MINEURES
10
26.995
20
57.734
0
VERTEX
8
CONTOURS_MINEURES
10
27.293
20
57.300
0
VERTEX
8
CONTOURS_MINEURES
10
27.562
20
57.003
0
VERTEX
8
CONTOURS_MINEURES
10
27.562
20
54.564
0
VERTEX
8
CONTOURS_MINEURES
10
27.562
20
53.997
0
VERTEX
8
CONTOURS_MINEURES
10
30.001
20
51.611
0
VERTEX
8
CONTOURS_MINEURES
10
30.280
20
51.280
0
VERTEX
8
CONTOURS_MINEURES
10
30.623
20
51.001
0
VERTEX
8
CONTOURS_MINEURES
10
32.996
20
49.204
0
VERTEX
8
CONTOURS_MINEURES
10
34.800
20
49.204
0
VERTEX
8
CONTOURS_MINEURES
10
36.002
20
49.204
0
VERTEX
8
CONTOURS_MINEURES
10
36.725
20
48.728
0
VERTEX
8
CONTOURS_MINEURES
10
38.269
20
48.005
0
VERTEX
8
CONTOURS_MINEURES
10
38.269
20
45.730
0
VERTEX
8
CONTOURS_MINEURES
10
38.269
20
44.999
0
VERTEX
8
CONTOURS_MINEURES
10
38.997
20
44.584
0
VERTEX
8
CONTOURS_MINEURES
10
41.587
20
44.584
0
VERTEX
8
CONTOURS_MINEURES
10
42.003
20
44.584
0
VERTEX
8
CONTOURS_MINEURES
10
43.616
20
43.616
0
VERTEX
8
CONTOURS_MINEURES
10
44.998
20
43.266
0
VERTEX
8
CONTOURS_MINEURES
10
46.029
20
43.031
0
VERTEX
8
CONTOURS_MINEURES
10
48.004
20
43.283
0
VERTEX
8
CONTOURS_MINEURES
10
49.719
20
43.283
0
VERTEX
8
CONTOURS_MINEURES
10
50.999
20
43.283
0
VERTEX
8
CONTOURS_MINEURES
10
53.188
20
42.817
0
VERTEX
8
CONTOURS_MINEURES
10
54.005
20
42.622
0
VERTEX
8
CONTOURS_MINEURES
10
54.445
20
42.444
0
VERTEX
8
CONTOURS_MINEURES
10
55.106
20
42.003
0
VERTEX
8
CONTOURS_MINEURES
10
57.000
20
39.192
0
VERTEX
8
CONTOURS_MINEURES
10
57.195
20
39.192
0
VERTEX
8
CONTOURS_MINEURES
10
59.995
20
39.192
0
VERTEX
8
CONTOURS_MINEURES
10
60.086
20
38.996
0
VERTEX
8
CONTOURS_MINEURES
10
60.086
20
36.091
0
VERTEX
8
CONTOURS_MINEURES
10
60.086
20
36.001
0
VERTEX
8
CONTOURS_MINEURES
10
60.616
20
33.624
0
VERTEX
8
CONTOURS_MINEURES
10
60.637
20
33.005
0
VERTEX
8
CONTOURS_MINEURES
10
60.637
20
32.363
0
VERTEX
8
CONTOURS_MINEURES
10
60.637
20
29.998
0
VERTEX
8
CONTOURS_MINEURES
10
60.596
20
29.399
0
VERTEX
8
CONTOURS_MINEURES
10
60.576
20
27.003
0
VERTEX
8
CONTOURS_MINEURES
10
59.995
20
24.116
0
VERTEX
8
CONTOURS_MINEURES
10
57.119
20
24.116
0
VERTEX
8
CONTOURS_MINEURES
10
57.000
20
24.116
0
VERTEX
8
CONTOURS_MINEURES
10
56.968
20
24.027
0
VERTEX
8
CONTOURS_MINEURES
10
56.960
20
23.996
0
VERTEX
8
CONTOURS_MINEURES
10
56.960
20
21.040
0
VERTEX
8
CONTOURS_MINEURES
10
56.960
20
21.000
0
VERTEX
8
CONTOURS_MINEURES
10
56.909
20
20.910
0
VERTEX
8
CONTOURS_MINEURES
10
55.146
20
18.005
0
VERTEX
8
CONTOURS_MINEURES
10
54.005
20
16.041
0
VERTEX
8
CONTOURS_MINEURES
10
53.564
20
15.439
0
VERTEX
8
CONTOURS_MINEURES
10
53.499
20
14.998
0
VERTEX
8
CONTOURS_MINEURES
10
53.499
20
14.494
0
VERTEX
8
CONTOURS_MINEURES
10
53.499
20
12.002
0
VERTEX
8
CONTOURS_MINEURES
10
53.294
20
9.706
0
VERTEX
8
CONTOURS_MINEURES
10
52.949
20
8.996
0
VERTEX
8
CONTOURS_MINEURES
10
52.335
20
7.664
0
VERTEX
8
CONTOURS_MINEURES
10
51.096
20
6.000
0
VERTEX
8
CONTOURS_MINEURES
10
51.096
20
3.101
0
VERTEX
8
CONTOURS_MINEURES
10
51.096
20
3.004
0
VERTEX
8
CONTOURS_MINEURES
10
50.999
20
2.833
0
VERTEX
8
CONTOURS_MINEURES
10
48.175
20
2.833
0
VERTEX
8
CONTOURS_MINEURES
10
48.004
20
2.833
0
VERTEX
8
CONTOURS_MINEURES
10
46.232
20
-0.002
0
SEQEND
0
POLYLINE
8
CONTOURS_MINEURES
66
1
70
0
0
VERTEX
8
CONTOURS_MINEURES
10
-0.003
20
84.253
0
VERTEX
8
CONTOURS_MINEURES
10
0.142
20
84.142
0
VERTEX
8
CONTOURS_MINEURES
10
0.253
20
83.997
0
VERTEX
8
CONTOURS_MINEURES
10
3.003
20
81.471
0
VERTEX
8
CONTOURS_MINEURES
10
3.284
20
81.283
0
VERTEX
8
CONTOURS_MINEURES
10
3.535
20
81.001
0
VERTEX
8
CONTOURS_MINEURES
10
3.535
20
78.529
0
VERTEX
8
CONTOURS_MINEURES
10
3.535
20
77.995
0
VERTEX
8
CONTOURS_MINEURES
10
5.066
20
77.063
0
VERTEX
8
CONTOURS_MINEURES
10
5.998
20
76.235
0
VERTEX
8
CONTOURS_MINEURES
10
7.763
20
76.235
0
VERTEX
8
CONTOURS_MINEURES
10
9.003
20
76.235
0
VERTEX
8
CONTOURS_MINEURES
10
9.942
20
75.938
0
VERTEX
8
CONTOURS_MINEURES
10
10.950
20
74.999
0
VERTEX
8
CONTOURS_MINEURES
10
11.998
20
74.488
0
VERTEX
8
CONTOURS_MINEURES
10
13.688
20
73.687
0
VERTEX
8
CONTOURS_MINEURES
10
15.004
20
72.824
0
VERTEX
8
CONTOURS_MINEURES
10
17.179
20
72.824
0
VERTEX
8
CONTOURS_MINEURES
10
17.999
20
72.824
0
VERTEX
8
CONTOURS_MINEURES
10
19.541
20
72.004
0
VERTEX
8
CONTOURS_MINEURES
10
19.541
20
70.539
0
VERTEX
8
CONTOURS_MINEURES
10
19.541
20
68.997
0
VERTEX
8
CONTOURS_MINEURES
10
21.005
20
68.311
0
VERTEX
8
CONTOURS_MINEURES
10
22.643
20
67.640
0
VERTEX
8
CONTOURS_MINEURES
10
24.000
20
66.696
0
VERTEX
8
CONTOURS_MINEURES
10
24.695
20
66.696
0
VERTEX
8
CONTOURS_MINEURES
10
26.995
20
66.696
0
VERTEX
8
CONTOURS_MINEURES
10
27.399
20
66.404
0
VERTEX
8
CONTOURS_MINEURES
10
27.854
20
66.001
0
VERTEX
8
CONTOURS_MINEURES
10
30.001
20
63.547
0
VERTEX
8
CONTOURS_MINEURES
10
30.392
20
62.995
0
VERTEX
8
CONTOURS_MINEURES
10
30.392
20
62.604
0
VERTEX
8
CONTOURS_MINEURES
10
30.392
20
59.999
0
VERTEX
8
CONTOURS_MINEURES
10
31.460
20
58.463
0
VERTEX
8
CONTOURS_MINEURES
10
32.669
20
57.003
0
VERTEX
8
CONTOURS_MINEURES
10
32.669
20
56.674
0
VERTEX
8
CONTOURS_MINEURES
10
32.669
20
53.997
0
VERTEX
8
CONTOURS_MINEURES
10
32.818
20
53.819
0
VERTEX
8
CONTOURS_MINEURES
10
32.996
20
53.674
0
VERTEX
8
CONTOURS_MINEURES
10
33.320
20
53.674
0
VERTEX
8
CONTOURS_MINEURES
10
36.002
20
53.674
0
VERTEX
8
CONTOURS_MINEURES
10
37.105
20
52.893
0
VERTEX
8
CONTOURS_MINEURES
10
38.997
20
51.445
0
VERTEX
8
CONTOURS_MINEURES
10
39.442
20
51.445
0
VERTEX
8
CONTOURS_MINEURES
10
42.003
20
51.445
0
VERTEX
8
CONTOURS_MINEURES
10
42.293
20
51.291
0
VERTEX
8
CONTOURS_MINEURES
10
42.859
20
51.001
0
VERTEX
8
CONTOURS_MINEURES
10
44.255
20
50.258
0
VERTEX
8
CONTOURS_MINEURES
10
44.998
20
49.905
0
VERTEX
8
CONTOURS_MINEURES
10
46.238
20
49.242
0
VERTEX
8
CONTOURS_MINEURES
10
48.004
20
48.929
0
VERTEX
8
CONTOURS_MINEURES
10
50.075
20
48.929
0
VERTEX
8
CONTOURS_MINEURES
10
50.999
20
48.929
0
VERTEX
8
CONTOURS_MINEURES
10
53.850
20
48.159
0
VERTEX
8
CONTOURS_MINEURES
10
54.005
20
48.111
0
VERTEX
8
CONTOURS_MINEURES
10
54.249
20
48.005
0
VERTEX
8
CONTOURS_MINEURES
10
54.249
20
45.244
0
VERTEX
8
CONTOURS_MINEURES
10
54.249
20
44.999
0
VERTEX
8
CONTOURS_MINEURES
10
56.207
20
44.206
0
VERTEX
8
CONTOURS_MINEURES
10
57.000
20
43.677
0
VERTEX
8
CONTOURS_MINEURES
10
58.321
20
43.677
0
VERTEX
8
CONTOURS_MINEURES
10
59.995
20
43.677
0
VERTEX
8
CONTOURS_MINEURES
10
61.817
20
42.003
0
VERTEX
8
CONTOURS_MINEURES
10
63.001
20
39.290
0
VERTEX
8
CONTOURS_MINEURES
10
63.097
20
39.093
0
VERTEX
8
CONTOURS_MINEURES
10
63.114
20
38.996
0
VERTEX
8
CONTOURS_MINEURES
10
63.114
20
38.883
0
VERTEX
8
CONTOURS_MINEURES
10
63.114
20
36.001
0
VERTEX
8
CONTOURS_MINEURES
10
63.218
20
33.223
0
VERTEX
8
CONTOURS_MINEURES
10
63.202
20
33.005
0
VERTEX
8
CONTOURS_MINEURES
10
63.202
20
30.200
0
VERTEX
8
CONTOURS_MINEURES
10
63.202
20
29.998
0
VERTEX
8
CONTOURS_MINEURES
10
63.001
20
27.003
0
VERTEX
8
CONTOURS_MINEURES
10
62.605
20
23.996
0
VERTEX
8
CONTOURS_MINEURES
10
62.605
20
23.602
0
VERTEX
8
CONTOURS_MINEURES
10
62.605
20
21.000
0
VERTEX
8
CONTOURS_MINEURES
10
61.952
20
19.049
0
VERTEX
8
CONTOURS_MINEURES
10
61.423
20
18.005
0
VERTEX
8
CONTOURS_MINEURES
10
59.995
20
16.178
0
VERTEX
8
CONTOURS_MINEURES
10
58.175
20
16.178
0
VERTEX
8
CONTOURS_MINEURES
10
57.000
20
16.178
0
VERTEX
8
CONTOURS_MINEURES
10
56.185
20
14.998
0
VERTEX
8
CONTOURS_MINEURES
10
56.185
20
12.817
0
VERTEX
8
CONTOURS_MINEURES
10
56.185
20
12.002
0
VERTEX
8
CONTOURS_MINEURES
10
56.111
20
9.888
0
VERTEX
8
CONTOURS_MINEURES
10
56.038
20
8.996
0
VERTEX
8
CONTOURS_MINEURES
10
55.602
20
7.598
0
VERTEX
8
CONTOURS_MINEURES
10
55.560
20
6.000
0
VERTEX
8
CONTOURS_MINEURES
10
55.560
20
4.444
0
VERTEX
8
CONTOURS_MINEURES
10
55.560
20
3.004
0
VERTEX
8
CONTOURS_MINEURES
10
55.321
20
1.683
0
VERTEX
8
CONTOURS_MINEURES
10
54.411
20
-0.002
0
SEQEND
0
POLYLINE
8
CONTOURS_MINEURES
66
1
70
0
0
VERTEX
8
CONTOURS_MINEURES
10
5.031
20
87.004
0
VERTEX
8
CONTOURS_MINEURES
10
5.998
20
86.093
0
VERTEX
8
CONTOURS_MINEURES
10
8.093
20
86.093
0
VERTEX
8
CONTOURS_MINEURES
10
9.003
20
86.093
0
VERTEX
8
CONTOURS_MINEURES
10
10.409
20
85.408
0
VERTEX
8
CONTOURS_MINEURES
10
11.998
20
84.308
0
VERTEX
8
CONTOURS_MINEURES
10
12.309
20
83.997
0
VERTEX
8
CONTOURS_MINEURES
10
15.004
20
81.892
0
VERTEX
8
CONTOURS_MINEURES
10
15.895
20
81.892
0
VERTEX
8
CONTOURS_MINEURES
10
17.999
20
81.892
0
VERTEX
8
CONTOURS_MINEURES
10
19.101
20
81.001
0
VERTEX
8
CONTOURS_MINEURES
10
19.101
20
79.097
0
VERTEX
8
CONTOURS_MINEURES
10
19.101
20
77.995
0
VERTEX
8
CONTOURS_MINEURES
10
20.140
20
77.132
0
VERTEX
8
CONTOURS_MINEURES
10
21.005
20
76.321
0
VERTEX
8
CONTOURS_MINEURES
10
22.669
20
74.999
0
VERTEX
8
CONTOURS_MINEURES
10
23.614
20
74.613
0
VERTEX
8
CONTOURS_MINEURES
10
24.000
20
74.390
0
VERTEX
8
CONTOURS_MINEURES
10
24.609
20
74.390
0
VERTEX
8
CONTOURS_MINEURES
10
26.995
20
74.390
0
VERTEX
8
CONTOURS_MINEURES
10
29.821
20
72.004
0
VERTEX
8
CONTOURS_MINEURES
10
29.821
20
71.823
0
VERTEX
8
CONTOURS_MINEURES
10
29.821
20
68.997
0
VERTEX
8
CONTOURS_MINEURES
10
29.925
20
68.921
0
VERTEX
8
CONTOURS_MINEURES
10
30.001
20
68.854
0
VERTEX
8
CONTOURS_MINEURES
10
32.335
20
66.001
0
VERTEX
8
CONTOURS_MINEURES
10
32.996
20
65.104
0
VERTEX
8
CONTOURS_MINEURES
10
35.106
20
65.104
0
VERTEX
8
CONTOURS_MINEURES
10
36.002
20
65.104
0
VERTEX
8
CONTOURS_MINEURES
10
37.428
20
62.995
0
VERTEX
8
CONTOURS_MINEURES
10
37.428
20
61.568
0
VERTEX
8
CONTOURS_MINEURES
10
37.428
20
59.999
0
VERTEX
8
CONTOURS_MINEURES
10
38.035
20
59.037
0
VERTEX
8
CONTOURS_MINEURES
10
38.997
20
58.241
0
VERTEX
8
CONTOURS_MINEURES
10
40.760
20
58.241
0
VERTEX
8
CONTOURS_MINEURES
10
42.003
20
58.241
0
VERTEX
8
CONTOURS_MINEURES
10
44.162
20
57.003
0
VERTEX
8
CONTOURS_MINEURES
10
44.162
20
54.836
0
VERTEX
8
CONTOURS_MINEURES
10
44.162
20
53.997
0
VERTEX
8
CONTOURS_MINEURES
10
44.708
20
53.707
0
VERTEX
8
CONTOURS_MINEURES
10
44.998
20
53.558
0
VERTEX
8
CONTOURS_MINEURES
10
45.947
20
53.051
0
VERTEX
8
CONTOURS_MINEURES
10
48.004
20
51.999
0
VERTEX
8
CONTOURS_MINEURES
10
49.002
20
51.999
0
VERTEX
8
CONTOURS_MINEURES
10
50.999
20
51.999
0
VERTEX
8
CONTOURS_MINEURES
10
51.765
20
51.765
0
VERTEX
8
CONTOURS_MINEURES
10
53.232
20
51.001
0
VERTEX
8
CONTOURS_MINEURES
10
54.005
20
50.762
0
VERTEX
8
CONTOURS_MINEURES
10
54.426
20
50.580
0
VERTEX
8
CONTOURS_MINEURES
10
57.000
20
49.590
0
VERTEX
8
CONTOURS_MINEURES
10
58.584
20
49.590
0
VERTEX
8
CONTOURS_MINEURES
10
59.995
20
49.590
0
VERTEX
8
CONTOURS_MINEURES
10
62.462
20
48.005
0
VERTEX
8
CONTOURS_MINEURES
10
62.462
20
47.467
0
VERTEX
8
CONTOURS_MINEURES
10
62.462
20
44.999
0
VERTEX
8
CONTOURS_MINEURES
10
63.001
20
44.519
0
VERTEX
8
CONTOURS_MINEURES
10
64.419
20
43.422
0
VERTEX
8
CONTOURS_MINEURES
10
65.274
20
42.003
0
VERTEX
8
CONTOURS_MINEURES
10
65.513
20
41.518
0
VERTEX
8
CONTOURS_MINEURES
10
65.939
20
38.996
0
VERTEX
8
CONTOURS_MINEURES
10
65.939
20
36.057
0
VERTEX
8
CONTOURS_MINEURES
10
65.939
20
36.001
0
VERTEX
8
CONTOURS_MINEURES
10
65.941
20
35.946
0
VERTEX
8
CONTOURS_MINEURES
10
65.719
20
33.005
0
VERTEX
8
CONTOURS_MINEURES
10
65.719
20
32.727
0
VERTEX
8
CONTOURS_MINEURES
10
65.719
20
29.998
0
VERTEX
8
CONTOURS_MINEURES
10
65.699
20
29.701
0
VERTEX
8
CONTOURS_MINEURES
10
65.517
20
27.003
0
VERTEX
8
CONTOURS_MINEURES
10
65.378
20
24.616
0
VERTEX
8
CONTOURS_MINEURES
10
65.294
20
23.996
0
VERTEX
8
CONTOURS_MINEURES
10
65.294
20
23.294
0
VERTEX
8
CONTOURS_MINEURES
10
65.294
20
21.000
0
VERTEX
8
CONTOURS_MINEURES
10
64.929
20
19.933
0
VERTEX
8
CONTOURS_MINEURES
10
64.619
20
18.005
0
VERTEX
8
CONTOURS_MINEURES
10
63.999
20
17.003
0
VERTEX
8
CONTOURS_MINEURES
10
63.001
20
16.342
0
VERTEX
8
CONTOURS_MINEURES
10
61.933
20
14.998
0
VERTEX
8
CONTOURS_MINEURES
10
61.933
20
13.934
0
VERTEX
8
CONTOURS_MINEURES
10
61.933
20
12.002
0
VERTEX
8
CONTOURS_MINEURES
10
61.863
20
10.133
0
VERTEX
8
CONTOURS_MINEURES
10
61.821
20
8.996
0
VERTEX
8
CONTOURS_MINEURES
10
61.650
20
7.346
0
VERTEX
8
CONTOURS_MINEURES
10
61.627
20
6.000
0
VERTEX
8
CONTOURS_MINEURES
10
61.627
20
4.631
0
VERTEX
8
CONTOURS_MINEURES
10
61.627
20
3.004
0
VERTEX
8
CONTOURS_MINEURES
10
61.451
20
1.547
0
VERTEX
8
CONTOURS_MINEURES
10
61.264
20
-0.002
0
SEQEND
0
POLYLINE
8
CONTOURS_MINEURES
66
1
70
0
0
VERTEX
8
CONTOURS_MINEURES
10
21.297
20
87.004
0
VERTEX
8
CONTOURS_MINEURES
10
24.000
20
84.981
0
VERTEX
8
CONTOURS_MINEURES
10
24.980
20
84.981
0
VERTEX
8
CONTOURS_MINEURES
10
26.995
20
84.981
0
VERTEX
8
CONTOURS_MINEURES
10
27.639
20
84.641
0
VERTEX
8
CONTOURS_MINEURES
10
28.383
20
83.997
0
VERTEX
8
CONTOURS_MINEURES
10
30.001
20
82.200
0
VERTEX
8
CONTOURS_MINEURES
10
30.433
20
81.434
0
VERTEX
8
CONTOURS_MINEURES
10
30.724
20
81.001
0
VERTEX
8
CONTOURS_MINEURES
10
30.724
20
80.276
0
VERTEX
8
CONTOURS_MINEURES
10
30.724
20
77.995
0
VERTEX
8
CONTOURS_MINEURES
10
32.208
20
75.788
0
VERTEX
8
CONTOURS_MINEURES
10
32.708
20
74.999
0
VERTEX
8
CONTOURS_MINEURES
10
32.849
20
74.852
0
VERTEX
8
CONTOURS_MINEURES
10
32.996
20
74.571
0
VERTEX
8
CONTOURS_MINEURES
10
33.426
20
74.571
0
VERTEX
8
CONTOURS_MINEURES
10
36.002
20
74.571
0
VERTEX
8
CONTOURS_MINEURES
10
37.304
20
72.004
0
VERTEX
8
CONTOURS_MINEURES
10
37.304
20
70.304
0
VERTEX
8
CONTOURS_MINEURES
10
37.304
20
68.997
0
VERTEX
8
CONTOURS_MINEURES
10
38.040
20
68.039
0
VERTEX
8
CONTOURS_MINEURES
10
38.463
20
66.001
0
VERTEX
8
CONTOURS_MINEURES
10
38.997
20
65.270
0
VERTEX
8
CONTOURS_MINEURES
10
39.728
20
65.270
0
VERTEX
8
CONTOURS_MINEURES
10
42.003
20
65.270
0
VERTEX
8
CONTOURS_MINEURES
10
44.453
20
63.541
0
VERTEX
8
CONTOURS_MINEURES
10
44.998
20
63.189
0
VERTEX
8
CONTOURS_MINEURES
10
45.306
20
62.995
0
VERTEX
8
CONTOURS_MINEURES
10
45.306
20
60.306
0
VERTEX
8
CONTOURS_MINEURES
10
45.306
20
59.999
0
VERTEX
8
CONTOURS_MINEURES
10
47.148
20
59.146
0
VERTEX
8
CONTOURS_MINEURES
10
48.004
20
58.736
0
VERTEX
8
CONTOURS_MINEURES
10
49.267
20
58.736
0
VERTEX
8
CONTOURS_MINEURES
10
50.999
20
58.736
0
VERTEX
8
CONTOURS_MINEURES
10
52.456
20
58.456
0
VERTEX
8
CONTOURS_MINEURES
10
54.005
20
57.962
0
VERTEX
8
CONTOURS_MINEURES
10
55.602
20
57.003
0
VERTEX
8
CONTOURS_MINEURES
10
55.602
20
55.400
0
VERTEX
8
CONTOURS_MINEURES
10
55.602
20
53.997
0
VERTEX
8
CONTOURS_MINEURES
10
56.438
20
53.435
0
VERTEX
8
CONTOURS_MINEURES
10
57.000
20
53.123
0
VERTEX
8
CONTOURS_MINEURES
10
57.873
20
53.123
0
VERTEX
8
CONTOURS_MINEURES
10
59.995
20
53.123
0
VERTEX
8
CONTOURS_MINEURES
10
62.467
20
51.001
0
VERTEX
8
CONTOURS_MINEURES
10
63.001
20
50.668
0
VERTEX
8
CONTOURS_MINEURES
10
64.793
20
49.799
0
VERTEX
8
CONTOURS_MINEURES
10
65.996
20
49.015
0
VERTEX
8
CONTOURS_MINEURES
10
67.988
20
49.015
0
VERTEX
8
CONTOURS_MINEURES
10
69.001
20
49.015
0
VERTEX
8
CONTOURS_MINEURES
10
70.323
20
48.005
0
VERTEX
8
CONTOURS_MINEURES
10
70.323
20
46.325
0
VERTEX
8
CONTOURS_MINEURES
10
70.323
20
44.999
0
VERTEX
8
CONTOURS_MINEURES
10
71.032
20
44.034
0
VERTEX
8
CONTOURS_MINEURES
10
71.755
20
42.003
0
VERTEX
8
CONTOURS_MINEURES
10
71.996
20
40.090
0
VERTEX
8
CONTOURS_MINEURES
10
72.149
20
39.149
0
VERTEX
8
CONTOURS_MINEURES
10
72.171
20
38.996
0
VERTEX
8
CONTOURS_MINEURES
10
72.171
20
38.823
0
VERTEX
8
CONTOURS_MINEURES
10
72.171
20
36.001
0
VERTEX
8
CONTOURS_MINEURES
10
72.112
20
35.885
0
VERTEX
8
CONTOURS_MINEURES
10
72.219
20
33.005
0
VERTEX
8
CONTOURS_MINEURES
10
72.219
20
30.221
0
VERTEX
8
CONTOURS_MINEURES
10
72.219
20
29.998
0
VERTEX
8
CONTOURS_MINEURES
10
71.996
20
29.040
0
VERTEX
8
CONTOURS_MINEURES
10
71.516
20
27.483
0
VERTEX
8
CONTOURS_MINEURES
10
71.477
20
27.003
0
VERTEX
8
CONTOURS_MINEURES
10
71.437
20
26.441
0
VERTEX
8
CONTOURS_MINEURES
10
70.963
20
23.996
0
VERTEX
8
CONTOURS_MINEURES
10
70.963
20
22.034
0
VERTEX
8
CONTOURS_MINEURES
10
70.963
20
21.000
0
VERTEX
8
CONTOURS_MINEURES
10
71.073
20
18.929
0
VERTEX
8
CONTOURS_MINEURES
10
70.934
20
18.005
0
VERTEX
8
CONTOURS_MINEURES
10
69.462
20
15.461
0
VERTEX
8
CONTOURS_MINEURES
10
69.301
20
14.998
0
VERTEX
8
CONTOURS_MINEURES
10
69.301
20
12.302
0
VERTEX
8
CONTOURS_MINEURES
10
69.301
20
12.002
0
VERTEX
8
CONTOURS_MINEURES
10
69.117
20
11.887
0
VERTEX
8
CONTOURS_MINEURES
10
69.001
20
11.602
0
VERTEX
8
CONTOURS_MINEURES
10
68.601
20
11.602
0
VERTEX
8
CONTOURS_MINEURES
10
65.996
20
11.602
0
VERTEX
8
CONTOURS_MINEURES
10
64.791
20
8.996
0
VERTEX
8
CONTOURS_MINEURES
10
64.637
20
7.637
0
VERTEX
8
CONTOURS_MINEURES
10
64.028
20
6.000
0
VERTEX
8
CONTOURS_MINEURES
10
64.028
20
4.972
0
VERTEX
8
CONTOURS_MINEURES
10
64.028
20
3.004
0
VERTEX
8
CONTOURS_MINEURES
10
63.804
20
0.804
0
VERTEX
8
CONTOURS_MINEURES
10
63.692
20
-0.002
0
SEQEND
0
POLYLINE
8
CONTOURS_MINEURES
66
1
70
0
0
VERTEX
8
CONTOURS_MINEURES
10
32.215
20
87.004
0
VERTEX
8
CONTOURS_MINEURES
10
32.996
20
85.760
0
VERTEX
8
CONTOURS_MINEURES
10
34.758
20
85.760
0
VERTEX
8
CONTOURS_MINEURES
10
36.002
20
85.760
0
VERTEX
8
CONTOURS_MINEURES
10
37.085
20
83.997
0
VERTEX
8
CONTOURS_MINEURES
10
37.952
20
82.952
0
VERTEX
8
CONTOURS_MINEURES
10
38.997
20
81.693
0
VERTEX
8
CONTOURS_MINEURES
10
41.309
20
81.693
0
VERTEX
8
CONTOURS_MINEURES
10
42.003
20
81.693
0
VERTEX
8
CONTOURS_MINEURES
10
42.302
20
81.301
0
VERTEX
8
CONTOURS_MINEURES
10
42.502
20
81.001
0
VERTEX
8
CONTOURS_MINEURES
10
42.502
20
78.496
0
VERTEX
8
CONTOURS_MINEURES
10
42.502
20
77.995
0
VERTEX
8
CONTOURS_MINEURES
10
44.998
20
75.127
0
VERTEX
8
CONTOURS_MINEURES
10
45.229
20
74.999
0
VERTEX
8
CONTOURS_MINEURES
10
46.531
20
73.532
0
VERTEX
8
CONTOURS_MINEURES
10
48.004
20
72.821
0
VERTEX
8
CONTOURS_MINEURES
10
48.821
20
72.821
0
VERTEX
8
CONTOURS_MINEURES
10
50.999
20
72.821
0
VERTEX
8
CONTOURS_MINEURES
10
52.228
20
72.004
0
VERTEX
8
CONTOURS_MINEURES
10
52.228
20
70.774
0
VERTEX
8
CONTOURS_MINEURES
10
52.228
20
68.997
0
VERTEX
8
CONTOURS_MINEURES
10
53.052
20
68.047
0
VERTEX
8
CONTOURS_MINEURES
10
54.005
20
67.374
0
VERTEX
8
CONTOURS_MINEURES
10
56.168
20
66.833
0
VERTEX
8
CONTOURS_MINEURES
10
57.000
20
66.284
0
VERTEX
8
CONTOURS_MINEURES
10
59.712
20
66.284
0
VERTEX
8
CONTOURS_MINEURES
10
59.995
20
66.284
0
VERTEX
8
CONTOURS_MINEURES
10
60.160
20
66.166
0
VERTEX
8
CONTOURS_MINEURES
10
60.401
20
66.001
0
VERTEX
8
CONTOURS_MINEURES
10
63.001
20
63.252
0
VERTEX
8
CONTOURS_MINEURES
10
63.106
20
63.101
0
VERTEX
8
CONTOURS_MINEURES
10
63.173
20
62.995
0
VERTEX
8
CONTOURS_MINEURES
10
63.173
20
60.172
0
VERTEX
8
CONTOURS_MINEURES
10
63.173
20
59.999
0
VERTEX
8
CONTOURS_MINEURES
10
63.273
20
59.727
0
VERTEX
8
CONTOURS_MINEURES
10
64.332
20
57.003
0
VERTEX
8
CONTOURS_MINEURES
10
64.332
20
55.667
0
VERTEX
8
CONTOURS_MINEURES
10
64.332
20
53.997
0
VERTEX
8
CONTOURS_MINEURES
10
65.996
20
52.731
0
VERTEX
8
CONTOURS_MINEURES
10
67.731
20
52.731
0
VERTEX
8
CONTOURS_MINEURES
10
69.001
20
52.731
0
VERTEX
8
CONTOURS_MINEURES
10
71.409
20
51.001
0
VERTEX
8
CONTOURS_MINEURES
10
71.996
20
50.585
0
VERTEX
8
CONTOURS_MINEURES
10
74.309
20
48.697
0
VERTEX
8
CONTOURS_MINEURES
10
75.002
20
48.182
0
VERTEX
8
CONTOURS_MINEURES
10
77.821
20
48.182
0
VERTEX
8
CONTOURS_MINEURES
10
77.997
20
48.182
0
VERTEX
8
CONTOURS_MINEURES
10
78.074
20
48.082
0
VERTEX
8
CONTOURS_MINEURES
10
78.092
20
48.005
0
VERTEX
8
CONTOURS_MINEURES
10
78.092
20
47.910
0
VERTEX
8
CONTOURS_MINEURES
10
78.092
20
44.999
0
VERTEX
8
CONTOURS_MINEURES
10
78.640
20
42.643
0
VERTEX
8
CONTOURS_MINEURES
10
78.651
20
42.003
0
VERTEX
8
CONTOURS_MINEURES
10
78.839
20
39.838
0
VERTEX
8
CONTOURS_MINEURES
10
78.839
20
38.996
0
VERTEX
8
CONTOURS_MINEURES
10
78.839
20
38.158
0
VERTEX
8
CONTOURS_MINEURES
10
78.839
20
36.001
0
VERTEX
8
CONTOURS_MINEURES
10
77.997
20
33.005
0
VERTEX
8
CONTOURS_MINEURES
10
75.002
20
33.005
0
VERTEX
8
CONTOURS_MINEURES
10
75.002
20
29.998
0
VERTEX
8
CONTOURS_MINEURES
10
73.886
20
27.003
0
VERTEX
8
CONTOURS_MINEURES
10
73.345
20
25.654
0
VERTEX
8
CONTOURS_MINEURES
10
73.121
20
23.996
0
VERTEX
8
CONTOURS_MINEURES
10
73.121
20
22.875
0
VERTEX
8
CONTOURS_MINEURES
10
73.121
20
21.000
0
VERTEX
8
CONTOURS_MINEURES
10
73.188
20
19.192
0
VERTEX
8
CONTOURS_MINEURES
10
73.128
20
18.005
0
VERTEX
8
CONTOURS_MINEURES
10
72.877
20
15.879
0
VERTEX
8
CONTOURS_MINEURES
10
72.782
20
14.998
0
VERTEX
8
CONTOURS_MINEURES
10
72.782
20
12.785
0
VERTEX
8
CONTOURS_MINEURES
10
72.782
20
12.002
0
VERTEX
8
CONTOURS_MINEURES
10
72.575
20
11.424
0
VERTEX
8
CONTOURS_MINEURES
10
71.996
20
10.562
0
VERTEX
8
CONTOURS_MINEURES
10
71.037
20
9.959
0
VERTEX
8
CONTOURS_MINEURES
10
70.647
20
8.996
0
VERTEX
8
CONTOURS_MINEURES
10
69.501
20
6.499
0
VERTEX
8
CONTOURS_MINEURES
10
69.207
20
6.000
0
VERTEX
8
CONTOURS_MINEURES
10
69.207
20
5.795
0
VERTEX
8
CONTOURS_MINEURES
10
69.207
20
3.004
0
VERTEX
8
CONTOURS_MINEURES
10
69.173
20
2.833
0
VERTEX
8
CONTOURS_MINEURES
10
69.001
20
1.501
0
VERTEX
8
CONTOURS_MINEURES
10
67.498
20
1.501
0
VERTEX
8
CONTOURS_MINEURES
10
65.996
20
1.501
0
VERTEX
8
CONTOURS_MINEURES
10
65.786
20
-0.002
0
SEQEND
0
POLYLINE
8
CONTOURS_MINEURES
66
1
70
0
0
VERTEX
8
CONTOURS_MINEURES
10
44.307
20
87.004
0
VERTEX
8
CONTOURS_MINEURES
10
44.998
20
85.840
0
VERTEX
8
CONTOURS_MINEURES
10
45.686
20
84.685
0
VERTEX
8
CONTOURS_MINEURES
10
46.358
20
83.997
0
VERTEX
8
CONTOURS_MINEURES
10
48.004
20
82.135
0
VERTEX
8
CONTOURS_MINEURES
10
49.866
20
82.135
0
VERTEX
8
CONTOURS_MINEURES
10
50.999
20
82.135
0
VERTEX
8
CONTOURS_MINEURES
10
51.433
20
81.434
0
VERTEX
8
CONTOURS_MINEURES
10
51.955
20
81.001
0
VERTEX
8
CONTOURS_MINEURES
10
51.955
20
78.951
0
VERTEX
8
CONTOURS_MINEURES
10
51.955
20
77.995
0
VERTEX
8
CONTOURS_MINEURES
10
54.005
20
76.633
0
VERTEX
8
CONTOURS_MINEURES
10
56.251
20
74.999
0
VERTEX
8
CONTOURS_MINEURES
10
56.637
20
74.636
0
VERTEX
8
CONTOURS_MINEURES
10
57.000
20
74.437
0
VERTEX
8
CONTOURS_MINEURES
10
57.561
20
74.437
0
VERTEX
8
CONTOURS_MINEURES
10
59.995
20
74.437
0
VERTEX
8
CONTOURS_MINEURES
10
61.382
20
73.617
0
VERTEX
8
CONTOURS_MINEURES
10
63.001
20
72.611
0
VERTEX
8
CONTOURS_MINEURES
10
63.416
20
72.419
0
VERTEX
8
CONTOURS_MINEURES
10
63.976
20
72.004
0
VERTEX
8
CONTOURS_MINEURES
10
63.976
20
71.025
0
VERTEX
8
CONTOURS_MINEURES
10
63.976
20
68.997
0
VERTEX
8
CONTOURS_MINEURES
10
65.996
20
67.148
0
VERTEX
8
CONTOURS_MINEURES
10
67.147
20
67.148
0
VERTEX
8
CONTOURS_MINEURES
10
69.001
20
67.148
0
VERTEX
8
CONTOURS_MINEURES
10
69.844
20
66.001
0
VERTEX
8
CONTOURS_MINEURES
10
71.996
20
63.059
0
VERTEX
8
CONTOURS_MINEURES
10
72.050
20
62.995
0
VERTEX
8
CONTOURS_MINEURES
10
72.050
20
62.941
0
VERTEX
8
CONTOURS_MINEURES
10
72.050
20
59.999
0
VERTEX
8
CONTOURS_MINEURES
10
73.057
20
58.061
0
VERTEX
8
CONTOURS_MINEURES
10
74.814
20
57.003
0
VERTEX
8
CONTOURS_MINEURES
10
74.814
20
54.184
0
VERTEX
8
CONTOURS_MINEURES
10
74.814
20
53.997
0
VERTEX
8
CONTOURS_MINEURES
10
74.937
20
53.931
0
VERTEX
8
CONTOURS_MINEURES
10
75.002
20
53.886
0
VERTEX
8
CONTOURS_MINEURES
10
75.113
20
53.886
0
VERTEX
8
CONTOURS_MINEURES
10
77.997
20
53.886
0
VERTEX
8
CONTOURS_MINEURES
10
79.545
20
52.543
0
VERTEX
8
CONTOURS_MINEURES
10
80.366
20
51.001
0
VERTEX
8
CONTOURS_MINEURES
10
80.643
20
50.642
0
VERTEX
8
CONTOURS_MINEURES
10
81.003
20
49.095
0
VERTEX
8
CONTOURS_MINEURES
10
81.192
20
48.194
0
VERTEX
8
CONTOURS_MINEURES
10
81.193
20
48.005
0
VERTEX
8
CONTOURS_MINEURES
10
81.193
20
47.814
0
VERTEX
8
CONTOURS_MINEURES
10
81.193
20
44.999
0
VERTEX
8
CONTOURS_MINEURES
10
81.237
20
42.237
0
VERTEX
8
CONTOURS_MINEURES
10
81.208
20
42.003
0
VERTEX
8
CONTOURS_MINEURES
10
81.175
20
41.830
0
VERTEX
8
CONTOURS_MINEURES
10
81.175
20
38.996
0
VERTEX
8
CONTOURS_MINEURES
10
81.175
20
36.173
0
VERTEX
8
CONTOURS_MINEURES
10
81.175
20
36.001
0
VERTEX
8
CONTOURS_MINEURES
10
81.156
20
35.848
0
VERTEX
8
CONTOURS_MINEURES
10
81.003
20
35.567
0
VERTEX
8
CONTOURS_MINEURES
10
79.888
20
33.005
0
VERTEX
8
CONTOURS_MINEURES
10
79.888
20
31.114
0
VERTEX
8
CONTOURS_MINEURES
10
79.888
20
29.998
0
VERTEX
8
CONTOURS_MINEURES
10
79.391
20
28.392
0
VERTEX
8
CONTOURS_MINEURES
10
79.019
20
27.003
0
VERTEX
8
CONTOURS_MINEURES
10
77.997
20
24.109
0
VERTEX
8
CONTOURS_MINEURES
10
77.884
20
24.109
0
VERTEX
8
CONTOURS_MINEURES
10
75.002
20
24.109
0
VERTEX
8
CONTOURS_MINEURES
10
74.970
20
24.029
0
VERTEX
8
CONTOURS_MINEURES
10
74.965
20
23.996
0
VERTEX
8
CONTOURS_MINEURES
10
74.965
20
21.037
0
VERTEX
8
CONTOURS_MINEURES
10
74.965
20
21.000
0
VERTEX
8
CONTOURS_MINEURES
10
74.967
20
20.965
0
VERTEX
8
CONTOURS_MINEURES
10
74.817
20
18.005
0
VERTEX
8
CONTOURS_MINEURES
10
74.792
20
17.794
0
VERTEX
8
CONTOURS_MINEURES
10
74.490
20
14.998
0
VERTEX
8
CONTOURS_MINEURES
10
74.490
20
14.487
0
VERTEX
8
CONTOURS_MINEURES
10
74.490
20
12.002
0
VERTEX
8
CONTOURS_MINEURES
10
73.833
20
10.166
0
VERTEX
8
CONTOURS_MINEURES
10
73.047
20
8.996
0
VERTEX
8
CONTOURS_MINEURES
10
71.996
20
7.254
0
VERTEX
8
CONTOURS_MINEURES
10
71.258
20
6.000
0
VERTEX
8
CONTOURS_MINEURES
10
71.258
20
3.743
0
VERTEX
8
CONTOURS_MINEURES
10
71.258
20
3.004
0
VERTEX
8
CONTOURS_MINEURES
10
70.884
20
1.115
0
VERTEX
8
CONTOURS_MINEURES
10
70.740
20
-0.002
0
SEQEND
0
POLYLINE
8
CONTOURS_MINEURES
66
1
70
0
0
VERTEX
8
CONTOURS_MINEURES
10
52.638
20
87.004
0
VERTEX
8
CONTOURS_MINEURES
10
54.005
20
85.085
0
VERTEX
8
CONTOURS_MINEURES
10
54.444
20
84.438
0
VERTEX
8
CONTOURS_MINEURES
10
54.914
20
83.997
0
VERTEX
8
CONTOURS_MINEURES
10
57.000
20
82.017
0
VERTEX
8
CONTOURS_MINEURES
10
58.015
20
82.017
0
VERTEX
8
CONTOURS_MINEURES
10
59.995
20
82.017
0
VERTEX
8
CONTOURS_MINEURES
10
60.702
20
81.706
0
VERTEX
8
CONTOURS_MINEURES
10
61.816
20
81.001
0
VERTEX
8
CONTOURS_MINEURES
10
61.816
20
79.817
0
VERTEX
8
CONTOURS_MINEURES
10
61.816
20
77.995
0
VERTEX
8
CONTOURS_MINEURES
10
63.001
20
77.323
0
VERTEX
8
CONTOURS_MINEURES
10
64.664
20
76.663
0
VERTEX
8
CONTOURS_MINEURES
10
65.996
20
75.794
0
VERTEX
8
CONTOURS_MINEURES
10
68.204
20
75.794
0
VERTEX
8
CONTOURS_MINEURES
10
69.001
20
75.794
0
VERTEX
8
CONTOURS_MINEURES
10
69.501
20
75.498
0
VERTEX
8
CONTOURS_MINEURES
10
69.697
20
74.999
0
VERTEX
8
CONTOURS_MINEURES
10
71.435
20
72.565
0
VERTEX
8
CONTOURS_MINEURES
10
71.875
20
72.004
0
VERTEX
8
CONTOURS_MINEURES
10
71.875
20
71.882
0
VERTEX
8
CONTOURS_MINEURES
10
71.875
20
68.997
0
VERTEX
8
CONTOURS_MINEURES
10
71.996
20
68.839
0
VERTEX
8
CONTOURS_MINEURES
10
73.542
20
67.542
0
VERTEX
8
CONTOURS_MINEURES
10
74.349
20
66.001
0
VERTEX
8
CONTOURS_MINEURES
10
75.002
20
65.250
0
VERTEX
8
CONTOURS_MINEURES
10
77.249
20
65.250
0
VERTEX
8
CONTOURS_MINEURES
10
77.997
20
65.250
0
VERTEX
8
CONTOURS_MINEURES
10
79.589
20
64.586
0
VERTEX
8
CONTOURS_MINEURES
10
81.003
20
63.442
0
VERTEX
8
CONTOURS_MINEURES
10
81.702
20
62.995
0
VERTEX
8
CONTOURS_MINEURES
10
81.702
20
62.296
0
VERTEX
8
CONTOURS_MINEURES
10
81.702
20
59.999
0
VERTEX
8
CONTOURS_MINEURES
10
83.067
20
59.068
0
VERTEX
8
CONTOURS_MINEURES
10
83.096
20
57.003
0
VERTEX
8
CONTOURS_MINEURES
10
83.096
20
54.903
0
VERTEX
8
CONTOURS_MINEURES
10
83.096
20
53.997
0
VERTEX
8
CONTOURS_MINEURES
10
83.185
20
51.814
0
VERTEX
8
CONTOURS_MINEURES
10
83.456
20
51.001
0
VERTEX
8
CONTOURS_MINEURES
10
83.550
20
50.553
0
VERTEX
8
CONTOURS_MINEURES
10
83.570
20
48.005
0
VERTEX
8
CONTOURS_MINEURES
10
83.570
20
45.428
0
VERTEX
8
CONTOURS_MINEURES
10
83.570
20
44.999
0
VERTEX
8
CONTOURS_MINEURES
10
83.577
20
44.577
0
VERTEX
8
CONTOURS_MINEURES
10
83.260
20
42.003
0
VERTEX
8
CONTOURS_MINEURES
10
82.897
20
40.102
0
VERTEX
8
CONTOURS_MINEURES
10
82.897
20
38.996
0
VERTEX
8
CONTOURS_MINEURES
10
82.897
20
37.894
0
VERTEX
8
CONTOURS_MINEURES
10
82.897
20
36.001
0
VERTEX
8
CONTOURS_MINEURES
10
82.684
20
34.319
0
VERTEX
8
CONTOURS_MINEURES
10
81.970
20
33.005
0
VERTEX
8
CONTOURS_MINEURES
10
81.970
20
30.969
0
VERTEX
8
CONTOURS_MINEURES
10
81.970
20
29.998
0
VERTEX
8
CONTOURS_MINEURES
10
81.920
20
29.082
0
VERTEX
8
CONTOURS_MINEURES
10
81.035
20
27.003
0
VERTEX
8
CONTOURS_MINEURES
10
81.033
20
26.973
0
VERTEX
8
CONTOURS_MINEURES
10
81.003
20
26.936
0
VERTEX
8
CONTOURS_MINEURES
10
80.072
20
23.996
0
VERTEX
8
CONTOURS_MINEURES
10
80.072
20
21.929
0
VERTEX
8
CONTOURS_MINEURES
10
80.072
20
21.000
0
VERTEX
8
CONTOURS_MINEURES
10
80.009
20
20.009
0
VERTEX
8
CONTOURS_MINEURES
10
79.805
20
18.005
0
VERTEX
8
CONTOURS_MINEURES
10
79.628
20
16.630
0
VERTEX
8
CONTOURS_MINEURES
10
79.556
20
14.998
0
VERTEX
8
CONTOURS_MINEURES
10
79.556
20
13.445
0
VERTEX
8
CONTOURS_MINEURES
10
79.556
20
12.002
0
VERTEX
8
CONTOURS_MINEURES
10
78.290
20
9.288
0
VERTEX
8
CONTOURS_MINEURES
10
78.236
20
8.996
0
VERTEX
8
CONTOURS_MINEURES
10
77.997
20
8.640
0
VERTEX
8
CONTOURS_MINEURES
10
75.358
20
8.640
0
VERTEX
8
CONTOURS_MINEURES
10
75.002
20
8.640
0
VERTEX
8
CONTOURS_MINEURES
10
73.655
20
6.000
0
VERTEX
8
CONTOURS_MINEURES
10
73.655
20
4.347
0
VERTEX
8
CONTOURS_MINEURES
10
73.655
20
3.004
0
VERTEX
8
CONTOURS_MINEURES
10
73.206
20
1.207
0
VERTEX
8
CONTOURS_MINEURES
10
72.919
20
-0.002
0
SEQEND
0
POLYLINE
8
CONTOURS_MINEURES
66
1
70
0
0
VERTEX
8
CONTOURS_MINEURES
10
60.102
20
87.004
0
VERTEX
8
CONTOURS_MINEURES
10
63.001
20
85.694
0
VERTEX
8
CONTOURS_MINEURES
10
64.565
20
85.568
0
VERTEX
8
CONTOURS_MINEURES
10
65.996
20
85.222
0
VERTEX
8
CONTOURS_MINEURES
10
67.220
20
85.222
0
VERTEX
8
CONTOURS_MINEURES
10
69.001
20
85.222
0
VERTEX
8
CONTOURS_MINEURES
10
70.064
20
85.064
0
VERTEX
8
CONTOURS_MINEURES
10
71.996
20
84.070
0
VERTEX
8
CONTOURS_MINEURES
10
72.173
20
83.997
0
VERTEX
8
CONTOURS_MINEURES
10
74.059
20
83.057
0
VERTEX
8
CONTOURS_MINEURES
10
75.002
20
82.344
0
VERTEX
8
CONTOURS_MINEURES
10
76.655
20
82.344
0
VERTEX
8
CONTOURS_MINEURES
10
77.997
20
82.344
0
VERTEX
8
CONTOURS_MINEURES
10
78.974
20
81.975
0
VERTEX
8
CONTOURS_MINEURES
10
81.003
20
81.388
0
VERTEX
8
CONTOURS_MINEURES
10
81.269
20
81.268
0
VERTEX
8
CONTOURS_MINEURES
10
81.752
20
81.001
0
VERTEX
8
CONTOURS_MINEURES
10
81.752
20
80.250
0
VERTEX
8
CONTOURS_MINEURES
10
81.752
20
77.995
0
VERTEX
8
CONTOURS_MINEURES
10
82.909
20
76.905
0
VERTEX
8
CONTOURS_MINEURES
10
83.998
20
76.361
0
VERTEX
8
CONTOURS_MINEURES
10
85.638
20
76.361
0
VERTEX
8
CONTOURS_MINEURES
10
87.004
20
76.361
0
VERTEX
8
CONTOURS_MINEURES
10
87.772
20
75.767
0
VERTEX
8
CONTOURS_MINEURES
10
89.308
20
74.999
0
VERTEX
8
CONTOURS_MINEURES
10
89.999
20
74.571
0
VERTEX
8
CONTOURS_MINEURES
10
91.201
20
72.004
0
VERTEX
8
CONTOURS_MINEURES
10
91.201
20
70.801
0
VERTEX
8
CONTOURS_MINEURES
10
91.201
20
68.997
0
VERTEX
8
CONTOURS_MINEURES
10
91.674
20
67.671
0
VERTEX
8
CONTOURS_MINEURES
10
92.003
20
66.001
0
VERTEX
8
CONTOURS_MINEURES
10
92.492
20
63.508
0
VERTEX
8
CONTOURS_MINEURES
10
92.527
20
62.995
0
VERTEX
8
CONTOURS_MINEURES
10
92.527
20
60.475
0
VERTEX
8
CONTOURS_MINEURES
10
92.527
20
59.999
0
VERTEX
8
CONTOURS_MINEURES
10
92.326
20
59.322
0
VERTEX
8
CONTOURS_MINEURES
10
91.639
20
57.003
0
VERTEX
8
CONTOURS_MINEURES
10
91.639
20
55.363
0
VERTEX
8
CONTOURS_MINEURES
10
91.639
20
53.997
0
VERTEX
8
CONTOURS_MINEURES
10
91.534
20
52.467
0
VERTEX
8
CONTOURS_MINEURES
10
91.359
20
51.001
0
VERTEX
8
CONTOURS_MINEURES
10
91.319
20
49.320
0
VERTEX
8
CONTOURS_MINEURES
10
91.639
20
48.005
0
VERTEX
8
CONTOURS_MINEURES
10
91.639
20
46.639
0
VERTEX
8
CONTOURS_MINEURES
10
91.639
20
44.999
0
VERTEX
8
CONTOURS_MINEURES
10
91.545
20
43.458
0
VERTEX
8
CONTOURS_MINEURES
10
91.040
20
42.003
0
VERTEX
8
CONTOURS_MINEURES
10
89.999
20
40.411
0
VERTEX
8
CONTOURS_MINEURES
10
89.666
20
39.330
0
VERTEX
8
CONTOURS_MINEURES
10
89.455
20
38.996
0
VERTEX
8
CONTOURS_MINEURES
10
89.455
20
36.545
0
VERTEX
8
CONTOURS_MINEURES
10
89.455
20
36.001
0
VERTEX
8
CONTOURS_MINEURES
10
88.910
20
34.911
0
VERTEX
8
CONTOURS_MINEURES
10
88.314
20
33.005
0
VERTEX
8
CONTOURS_MINEURES
10
88.314
20
31.690
0
VERTEX
8
CONTOURS_MINEURES
10
88.314
20
29.998
0
VERTEX
8
CONTOURS_MINEURES
10
87.843
20
27.841
0
VERTEX
8
CONTOURS_MINEURES
10
87.727
20
27.003
0
VERTEX
8
CONTOURS_MINEURES
10
87.957
20
26.046
0
VERTEX
8
CONTOURS_MINEURES
10
87.004
20
24.372
0
VERTEX
8
CONTOURS_MINEURES
10
84.374
20
24.372
0
VERTEX
8
CONTOURS_MINEURES
10
83.998
20
24.372
0
VERTEX
8
CONTOURS_MINEURES
10
83.969
20
24.025
0
VERTEX
8
CONTOURS_MINEURES
10
83.946
20
23.996
0
VERTEX
8
CONTOURS_MINEURES
10
83.946
20
23.943
0
VERTEX
8
CONTOURS_MINEURES
10
83.946
20
21.000
0
VERTEX
8
CONTOURS_MINEURES
10
83.799
20
18.204
0
VERTEX
8
CONTOURS_MINEURES
10
83.732
20
18.005
0
VERTEX
8
CONTOURS_MINEURES
10
83.859
20
15.138
0
VERTEX
8
CONTOURS_MINEURES
10
83.836
20
14.998
0
VERTEX
8
CONTOURS_MINEURES
10
83.836
20
12.164
0
VERTEX
8
CONTOURS_MINEURES
10
83.836
20
12.002
0
VERTEX
8
CONTOURS_MINEURES
10
83.713
20
11.716
0
VERTEX
8
CONTOURS_MINEURES
10
83.279
20
8.996
0
VERTEX
8
CONTOURS_MINEURES
10
82.965
20
7.033
0
VERTEX
8
CONTOURS_MINEURES
10
82.002
20
6.000
0
VERTEX
8
CONTOURS_MINEURES
10
82.002
20
4.003
0
VERTEX
8
CONTOURS_MINEURES
10
82.002
20
3.004
0
VERTEX
8
CONTOURS_MINEURES
10
82.002
20
2.002
0
VERTEX
8
CONTOURS_MINEURES
10
81.275
20
-0.002
0
SEQEND
0
POLYLINE
8
CONTOURS_MINEURES
66
1
70
0
0
VERTEX
8
CONTOURS_MINEURES
10
90.119
20
87.004
0
VERTEX
8
CONTOURS_MINEURES
10
93.005
20
84.598
0
VERTEX
8
CONTOURS_MINEURES
10
95.401
20
84.598
0
VERTEX
8
CONTOURS_MINEURES
10
96.000
20
84.598
0
VERTEX
8
CONTOURS_MINEURES
10
96.428
20
83.997
0
VERTEX
8
CONTOURS_MINEURES
10
97.784
20
82.785
0
VERTEX
8
CONTOURS_MINEURES
10
98.995
20
82.388
0
VERTEX
8
CONTOURS_MINEURES
10
100.610
20
82.388
0
VERTEX
8
CONTOURS_MINEURES
10
102.001
20
82.388
0
VERTEX
8
CONTOURS_MINEURES
10
102.948
20
81.949
0
VERTEX
8
CONTOURS_MINEURES
10
104.996
20
81.285
0
VERTEX
8
CONTOURS_MINEURES
10
105.580
20
81.001
0
VERTEX
8
CONTOURS_MINEURES
10
105.580
20
78.579
0
VERTEX
8
CONTOURS_MINEURES
10
105.580
20
77.995
0
VERTEX
8
CONTOURS_MINEURES
10
108.002
20
76.973
0
SEQEND
0
POLYLINE
8
CONTOURS_MINEURES
66
1
70
0
0
VERTEX
8
CONTOURS_MINEURES
10
106.165
20
87.004
0
VERTEX
8
CONTOURS_MINEURES
10
106.799
20
85.801
0
VERTEX
8
CONTOURS_MINEURES
10
107.152
20
83.997
0
VERTEX
8
CONTOURS_MINEURES
10
108.002
20
83.534
0
SEQEND
0
POLYLINE
8
CONTOURS_MAJEURES
66
1
70
0
0
VERTEX
8
CONTOURS_MAJEURES
10
-0.003
20
48.664
0
VERTEX
8
CONTOURS_MAJEURES
10
0.315
20
48.322
0
VERTEX
8
CONTOURS_MAJEURES
10
0.686
20
48.005
0
VERTEX
8
CONTOURS_MAJEURES
10
0.686
20
45.688
0
VERTEX
8
CONTOURS_MAJEURES
10
0.686
20
44.999
0
VERTEX
8
CONTOURS_MAJEURES
10
2.201
20
42.802
0
VERTEX
8
CONTOURS_MAJEURES
10
2.686
20
42.003
0
VERTEX
8
CONTOURS_MAJEURES
10
2.898
20
41.898
0
VERTEX
8
CONTOURS_MAJEURES
10
3.003
20
41.855
0
VERTEX
8
CONTOURS_MAJEURES
10
3.751
20
41.251
0
VERTEX
8
CONTOURS_MAJEURES
10
5.998
20
39.535
0
VERTEX
8
CONTOURS_MAJEURES
10
6.536
20
39.535
0
VERTEX
8
CONTOURS_MAJEURES
10
9.003
20
39.535
0
VERTEX
8
CONTOURS_MAJEURES
10
9.426
20
38.996
0
VERTEX
8
CONTOURS_MAJEURES
10
9.426
20
36.424
0
VERTEX
8
CONTOURS_MAJEURES
10
9.426
20
36.001
0
VERTEX
8
CONTOURS_MAJEURES
10
10.632
20
34.634
0
VERTEX
8
CONTOURS_MAJEURES
10
11.998
20
33.544
0
VERTEX
8
CONTOURS_MAJEURES
10
12.578
20
33.005
0
VERTEX
8
CONTOURS_MAJEURES
10
12.578
20
30.578
0
VERTEX
8
CONTOURS_MAJEURES
10
12.578
20
29.998
0
VERTEX
8
CONTOURS_MAJEURES
10
13.892
20
28.889
0
VERTEX
8
CONTOURS_MAJEURES
10
15.004
20
28.105
0
VERTEX
8
CONTOURS_MAJEURES
10
16.106
20
28.105
0
VERTEX
8
CONTOURS_MAJEURES
10
17.999
20
28.105
0
VERTEX
8
CONTOURS_MAJEURES
10
19.831
20
27.003
0
VERTEX
8
CONTOURS_MAJEURES
10
21.005
20
25.557
0
VERTEX
8
CONTOURS_MAJEURES
10
21.790
20
24.784
0
VERTEX
8
CONTOURS_MAJEURES
10
22.656
20
23.996
0
VERTEX
8
CONTOURS_MAJEURES
10
22.656
20
22.345
0
VERTEX
8
CONTOURS_MAJEURES
10
22.656
20
21.000
0
VERTEX
8
CONTOURS_MAJEURES
10
22.083
20
19.922
0
VERTEX
8
CONTOURS_MAJEURES
10
21.478
20
18.005
0
VERTEX
8
CONTOURS_MAJEURES
10
21.005
20
17.707
0
VERTEX
8
CONTOURS_MAJEURES
10
19.328
20
16.675
0
VERTEX
8
CONTOURS_MAJEURES
10
17.999
20
15.948
0
VERTEX
8
CONTOURS_MAJEURES
10
15.950
20
15.948
0
VERTEX
8
CONTOURS_MAJEURES
10
15.004
20
15.948
0
VERTEX
8
CONTOURS_MAJEURES
10
13.595
20
14.998
0
VERTEX
8
CONTOURS_MAJEURES
10
13.595
20
13.407
0
VERTEX
8
CONTOURS_MAJEURES
10
13.595
20
12.002
0
VERTEX
8
CONTOURS_MAJEURES
10
11.998
20
10.980
0
VERTEX
8
CONTOURS_MAJEURES
10
10.747
20
10.252
0
VERTEX
8
CONTOURS_MAJEURES
10
9.003
20
9.208
0
VERTEX
8
CONTOURS_MAJEURES
10
8.791
20
9.208
0
VERTEX
8
CONTOURS_MAJEURES
10
5.998
20
9.208
0
VERTEX
8
CONTOURS_MAJEURES
10
5.718
20
8.996
0
VERTEX
8
CONTOURS_MAJEURES
10
3.377
20
6.375
0
VERTEX
8
CONTOURS_MAJEURES
10
3.045
20
6.000
0
VERTEX
8
CONTOURS_MAJEURES
10
3.045
20
3.047
0
VERTEX
8
CONTOURS_MAJEURES
10
3.045
20
3.004
0
VERTEX
8
CONTOURS_MAJEURES
10
3.026
20
2.981
0
VERTEX
8
CONTOURS_MAJEURES
10
3.003
20
2.954
0
VERTEX
8
CONTOURS_MAJEURES
10
1.619
20
1.382
0
VERTEX
8
CONTOURS_MAJEURES
10
0.647
20
-0.002
0
SEQEND
0
POLYLINE
8
CONTOURS_MAJEURES
66
1
70
0
0
VERTEX
8
CONTOURS_MAJEURES
10
-0.003
20
76.931
0
VERTEX
8
CONTOURS_MAJEURES
10
2.195
20
74.999
0
VERTEX
8
CONTOURS_MAJEURES
10
2.656
20
74.654
0
VERTEX
8
CONTOURS_MAJEURES
10
3.003
20
74.490
0
VERTEX
8
CONTOURS_MAJEURES
10
4.175
20
73.827
0
VERTEX
8
CONTOURS_MAJEURES
10
5.998
20
72.826
0
VERTEX
8
CONTOURS_MAJEURES
10
6.823
20
72.826
0
VERTEX
8
CONTOURS_MAJEURES
10
9.003
20
72.826
0
VERTEX
8
CONTOURS_MAJEURES
10
10.401
20
72.004
0
VERTEX
8
CONTOURS_MAJEURES
10
10.401
20
70.600
0
VERTEX
8
CONTOURS_MAJEURES
10
10.401
20
68.997
0
VERTEX
8
CONTOURS_MAJEURES
10
11.410
20
68.409
0
VERTEX
8
CONTOURS_MAJEURES
10
11.998
20
68.057
0
VERTEX
8
CONTOURS_MAJEURES
10
13.401
20
67.399
0
VERTEX
8
CONTOURS_MAJEURES
10
15.004
20
66.447
0
VERTEX
8
CONTOURS_MAJEURES
10
17.553
20
66.447
0
VERTEX
8
CONTOURS_MAJEURES
10
17.999
20
66.447
0
VERTEX
8
CONTOURS_MAJEURES
10
18.841
20
66.001
0
VERTEX
8
CONTOURS_MAJEURES
10
20.125
20
65.121
0
VERTEX
8
CONTOURS_MAJEURES
10
21.005
20
64.255
0
VERTEX
8
CONTOURS_MAJEURES
10
22.371
20
62.995
0
VERTEX
8
CONTOURS_MAJEURES
10
22.371
20
61.365
0
VERTEX
8
CONTOURS_MAJEURES
10
22.371
20
59.999
0
VERTEX
8
CONTOURS_MAJEURES
10
24.000
20
57.734
0
VERTEX
8
CONTOURS_MAJEURES
10
24.731
20
57.734
0
VERTEX
8
CONTOURS_MAJEURES
10
26.995
20
57.734
0
VERTEX
8
CONTOURS_MAJEURES
10
27.293
20
57.300
0
VERTEX
8
CONTOURS_MAJEURES
10
27.562
20
57.003
0
VERTEX
8
CONTOURS_MAJEURES
10
27.562
20
54.564
0
VERTEX
8
CONTOURS_MAJEURES
10
27.562
20
53.997
0
VERTEX
8
CONTOURS_MAJEURES
10
30.001
20
51.611
0
VERTEX
8
CONTOURS_MAJEURES
10
30.280
20
51.280
0
VERTEX
8
CONTOURS_MAJEURES
10
30.623
20
51.001
0
VERTEX
8
CONTOURS_MAJEURES
10
32.996
20
49.204
0
VERTEX
8
CONTOURS_MAJEURES
10
34.800
20
49.204
0
VERTEX
8
CONTOURS_MAJEURES
10
36.002
20
49.204
0
VERTEX
8
CONTOURS_MAJEURES
10
36.725
20
48.728
0
VERTEX
8
CONTOURS_MAJEURES
10
38.269
20
48.005
0
VERTEX
8
CONTOURS_MAJEURES
10
38.269
20
45.730
0
VERTEX
8
CONTOURS_MAJEURES
10
38.269
20
44.999
0
VERTEX
8
CONTOURS_MAJEURES
10
38.997
20
44.584
0
VERTEX
8
CONTOURS_MAJEURES
10
41.587
20
44.584
0
VERTEX
8
CONTOURS_MAJEURES
10
42.003
20
44.584
0
VERTEX
8
CONTOURS_MAJEURES
10
43.616
20
43.616
0
VERTEX
8
CONTOURS_MAJEURES
10
44.998
20
43.266
0
VERTEX
8
CONTOURS_MAJEURES
10
46.029
20
43.031
0
VERTEX
8
CONTOURS_MAJEURES
10
48.004
20
43.283
0
VERTEX
8
CONTOURS_MAJEURES
10
49.719
20
43.283
0
VERTEX
8
CONTOURS_MAJEURES
10
50.999
20
43.283
0
VERTEX
8
CONTOURS_MAJEURES
10
53.188
20
42.817
0
VERTEX
8
CONTOURS_MAJEURES
10
54.005
20
42.622
0
VERTEX
8
CONTOURS_MAJEURES
10
54.445
20
42.444
0
VERTEX
8
CONTOURS_MAJEURES
10
55.106
20
42.003
0
VERTEX
8
CONTOURS_MAJEURES
10
57.000
20
39.192
0
VERTEX
8
CONTOURS_MAJEURES
10
57.195
20
39.192
0
VERTEX
8
CONTOURS_MAJEURES
10
59.995
20
39.192
0
VERTEX
8
CONTOURS_MAJEURES
10
60.086
20
38.996
0
VERTEX
8
CONTOURS_MAJEURES
10
60.086
20
36.091
0
VERTEX
8
CONTOURS_MAJEURES
10
60.086
20
36.001
0
VERTEX
8
CONTOURS_MAJEURES
10
60.616
20
33.624
0
VERTEX
8
CONTOURS_MAJEURES
10
60.637
20
33.005
0
VERTEX
8
CONTOURS_MAJEURES
10
60.637
20
32.363
0
VERTEX
8
CONTOURS_MAJEURES
10
60.637
20
29.998
0
VERTEX
8
CONTOURS_MAJEURES
10
60.596
20
29.399
0
VERTEX
8
CONTOURS_MAJEURES
10
60.576
20
27.003
0
VERTEX
8
CONTOURS_MAJEURES
10
59.995
20
24.116
0
VERTEX
8
CONTOURS_MAJEURES
10
57.119
20
24.116
0
VERTEX
8
CONTOURS_MAJEURES
10
57.000
20
24.116
0
VERTEX
8
CONTOURS_MAJEURES
10
56.968
20
24.027
0
VERTEX
8
CONTOURS_MAJEURES
10
56.960
20
23.996
0
VERTEX
8
CONTOURS_MAJEURES
10
56.960
20
21.040
0
VERTEX
8
CONTOURS_MAJEURES
10
56.960
20
21.000
0
VERTEX
8
CONTOURS_MAJEURES
10
56.909
20
20.910
0
VERTEX
8
CONTOURS_MAJEURES
10
55.146
20
18.005
0
VERTEX
8
CONTOURS_MAJEURES
10
54.005
20
16.041
0
VERTEX
8
CONTOURS_MAJEURES
10
53.564
20
15.439
0
VERTEX
8
CONTOURS_MAJEURES
10
53.499
20
14.998
0
VERTEX
8
CONTOURS_MAJEURES
10
53.499
20
14.494
0
VERTEX
8
CONTOURS_MAJEURES
10
53.499
20
12.002
0
VERTEX
8
CONTOURS_MAJEURES
10
53.294
20
9.706
0
VERTEX
8
CONTOURS_MAJEURES
10
52.949
20
8.996
0
VERTEX
8
CONTOURS_MAJEURES
10
52.335
20
7.664
0
VERTEX
8
CONTOURS_MAJEURES
10
51.096
20
6.000
0
VERTEX
8
CONTOURS_MAJEURES
10
51.096
20
3.101
0
VERTEX
8
CONTOURS_MAJEURES
10
51.096
20
3.004
0
VERTEX
8
CONTOURS_MAJEURES
10
50.999
20
2.833
0
VERTEX
8
CONTOURS_MAJEURES
10
48.175
20
2.833
0
VERTEX
8
CONTOURS_MAJEURES
10
48.004
20
2.833
0
VERTEX
8
CONTOURS_MAJEURES
10
46.232
20
-0.002
0
SEQEND
0
POLYLINE
8
CONTOURS_MAJEURES
66
1
70
0
0
VERTEX
8
CONTOURS_MAJEURES
10
44.307
20
87.004
0
VERTEX
8
CONTOURS_MAJEURES
10
44.998
20
85.840
0
VERTEX
8
CONTOURS_MAJEURES
10
45.686
20
84.685
0
VERTEX
8
CONTOURS_MAJEURES
10
46.358
20
83.997
0
VERTEX
8
CONTOURS_MAJEURES
10
48.004
20
82.135
0
VERTEX
8
CONTOURS_MAJEURES
10
49.866
20
82.135
0
VERTEX
8
CONTOURS_MAJEURES
10
50.999
20
82.135
0
VERTEX
8
CONTOURS_MAJEURES
10
51.433
20
81.434
0
VERTEX
8
CONTOURS_MAJEURES
10
51.955
20
81.001
0
VERTEX
8
CONTOURS_MAJEURES
10
51.955
20
78.951
0
VERTEX
8
CONTOURS_MAJEURES
10
51.955
20
77.995
0
VERTEX
8
CONTOURS_MAJEURES
10
54.005
20
76.633
0
VERTEX
8
CONTOURS_MAJEURES
10
56.251
20
74.999
0
VERTEX
8
CONTOURS_MAJEURES
10
56.637
20
74.636
0
VERTEX
8
CONTOURS_MAJEURES
10
57.000
20
74.437
0
VERTEX
8
CONTOURS_MAJEURES
10
57.561
20
74.437
0
VERTEX
8
CONTOURS_MAJEURES
10
59.995
20
74.437
0
VERTEX
8
CONTOURS_MAJEURES
10
61.382
20
73.617
0
VERTEX
8
CONTOURS_MAJEURES
10
63.001
20
72.611
0
VERTEX
8
CONTOURS_MAJEURES
10
63.416
20
72.419
0
VERTEX
8
CONTOURS_MAJEURES
10
63.976
20
72.004
0
VERTEX
8
CONTOURS_MAJEURES
10
63.976
20
71.025
0
VERTEX
8
CONTOURS_MAJEURES
10
63.976
20
68.997
0
VERTEX
8
CONTOURS_MAJEURES
10
65.996
20
67.148
0
VERTEX
8
CONTOURS_MAJEURES
10
67.147
20
67.148
0
VERTEX
8
CONTOURS_MAJEURES
10
69.001
20
67.148
0
VERTEX
8
CONTOURS_MAJEURES
10
69.844
20
66.001
0
VERTEX
8
CONTOURS_MAJEURES
10
71.996
20
63.059
0
VERTEX
8
CONTOURS_MAJEURES
10
72.050
20
62.995
0
VERTEX
8
CONTOURS_MAJEURES
10
72.050
20
62.941
0
VERTEX
8
CONTOURS_MAJEURES
10
72.050
20
59.999
0
VERTEX
8
CONTOURS_MAJEURES
10
73.057
20
58.061
0
VERTEX
8
CONTOURS_MAJEURES
10
74.814
20
57.003
0
VERTEX
8
CONTOURS_MAJEURES
10
74.814
20
54.184
0
VERTEX
8
CONTOURS_MAJEURES
10
74.814
20
53.997
0
VERTEX
8
CONTOURS_MAJEURES
10
74.937
20
53.931
0
VERTEX
8
CONTOURS_MAJEURES
10
75.002
20
53.886
0
VERTEX
8
CONTOURS_MAJEURES
10
75.113
20
53.886
0
VERTEX
8
CONTOURS_MAJEURES
10
77.997
20
53.886
0
VERTEX
8
CONTOURS_MAJEURES
10
79.545
20
52.543
0
VERTEX
8
CONTOURS_MAJEURES
10
80.366
20
51.001
0
VERTEX
8
CONTOURS_MAJEURES
10
80.643
20
50.642
0
VERTEX
8
CONTOURS_MAJEURES
10
81.003
20
49.095
0
VERTEX
8
CONTOURS_MAJEURES
10
81.192
20
48.194
0
VERTEX
8
CONTOURS_MAJEURES
10
81.193
20
48.005
0
VERTEX
8
CONTOURS_MAJEURES
10
81.193
20
47.814
0
VERTEX
8
CONTOURS_MAJEURES
10
81.193
20
44.999
0
VERTEX
8
CONTOURS_MAJEURES
10
81.237
20
42.237
0
VERTEX
8
CONTOURS_MAJEURES
10
81.208
20
42.003
0
VERTEX
8
CONTOURS_MAJEURES
10
81.175
20
41.830
0
VERTEX
8
CONTOURS_MAJEURES
10
81.175
20
38.996
0
VERTEX
8
CONTOURS_MAJEURES
10
81.175
20
36.173
0
VERTEX
8
CONTOURS_MAJEURES
10
81.175
20
36.001
0
VERTEX
8
CONTOURS_MAJEURES
10
81.156
20
35.848
0
VERTEX
8
CONTOURS_MAJEURES
10
81.003
20
35.567
0
VERTEX
8
CONTOURS_MAJEURES
10
79.888
20
33.005
0
VERTEX
8
CONTOURS_MAJEURES
10
79.888
20
31.114
0
VERTEX
8
CONTOURS_MAJEURES
10
79.888
20
29.998
0
VERTEX
8
CONTOURS_MAJEURES
10
79.391
20
28.392
0
VERTEX
8
CONTOURS_MAJEURES
10
79.019
20
27.003
0
VERTEX
8
CONTOURS_MAJEURES
10
77.997
20
24.109
0
VERTEX
8
CONTOURS_MAJEURES
10
77.884
20
24.109
0
VERTEX
8
CONTOURS_MAJEURES
10
75.002
20
24.109
0
VERTEX
8
CONTOURS_MAJEURES
10
74.970
20
24.029
0
VERTEX
8
CONTOURS_MAJEURES
10
74.965
20
23.996
0
VERTEX
8
CONTOURS_MAJEURES
10
74.965
20
21.037
0
VERTEX
8
CONTOURS_MAJEURES
10
74.965
20
21.000
0
VERTEX
8
CONTOURS_MAJEURES
10
74.967
20
20.965
0
VERTEX
8
CONTOURS_MAJEURES
10
74.817
20
18.005
0
VERTEX
8
CONTOURS_MAJEURES
10
74.792
20
17.794
0
VERTEX
8
CONTOURS_MAJEURES
10
74.490
20
14.998
0
VERTEX
8
CONTOURS_MAJEURES
10
74.490
20
14.487
0
VERTEX
8
CONTOURS_MAJEURES
10
74.490
20
12.002
0
VERTEX
8
CONTOURS_MAJEURES
10
73.833
20
10.166
0
VERTEX
8
CONTOURS_MAJEURES
10
73.047
20
8.996
0
VERTEX
8
CONTOURS_MAJEURES
10
71.996
20
7.254
0
VERTEX
8
CONTOURS_MAJEURES
10
71.258
20
6.000
0
VERTEX
8
CONTOURS_MAJEURES
10
71.258
20
3.743
0
VERTEX
8
CONTOURS_MAJEURES
10
71.258
20
3.004
0
VERTEX
8
CONTOURS_MAJEURES
10
70.884
20
1.115
0
VERTEX
8
CONTOURS_MAJEURES
10
70.740
20
-0.002
0
SEQEND
0
POLYLINE
8
PARCELLE
66
1
70
1
0
VERTEX
8
PARCELLE
10
61.999
20
68.963
0
VERTEX
8
PARCELLE
10
88.197
20
58.639
0
VERTEX
8
PARCELLE
10
75.006
20
20.000
0
VERTEX
8
PARCELLE
10
20.000
20
41.668
0
VERTEX
8
PARCELLE
10
32.465
20
66.270
0
VERTEX
8
PARCELLE
10
54.966
20
54.970
0
VERTEX
8
PARCELLE
10
61.999
20
68.963
0
SEQEND
0
TEXT
8
POINTS_COTES
10
-0.003
20
-0.002
40
1.0
1
54.8
0
TEXT
8
POINTS_COTES
10
54.005
20
3.004
40
1.0
1
60.6
0
TEXT
8
POINTS_COTES
10
108.002
20
6.000
40
1.0
1
67.6
0
TEXT
8
POINTS_COTES
10
50.999
20
12.002
40
1.0
1
59.2
0
TEXT
8
POINTS_COTES
10
104.996
20
14.998
40
1.0
1
67.5
0
TEXT
8
POINTS_COTES
10
48.004
20
21.000
40
1.0
1
58.6
0
TEXT
8
POINTS_COTES
10
102.001
20
23.996
40
1.0
1
67.4
0
TEXT
8
POINTS_COTES
10
44.998
20
29.998
40
1.0
1
58.5
0
TEXT
8
POINTS_COTES
10
98.995
20
33.005
40
1.0
1
67.4
0
TEXT
8
POINTS_COTES
10
42.003
20
38.996
40
1.0
1
59.0
0
TEXT
8
POINTS_COTES
10
96.000
20
42.003
40
1.0
1
67.2
0
TEXT
8
POINTS_COTES
10
38.997
20
48.005
40
1.0
1
60.1
0
TEXT
8
POINTS_COTES
10
93.005
20
51.001
40
1.0
1
67.2
0
TEXT
8
POINTS_COTES
10
36.002
20
57.003
40
1.0
1
61.1
0
TEXT
8
POINTS_COTES
10
89.999
20
59.999
40
1.0
1
66.6
0
TEXT
8
POINTS_COTES
10
32.996
20
66.001
40
1.0
1
62.2
0
TEXT
8
POINTS_COTES
10
87.004
20
68.997
40
1.0
1
66.7
0
TEXT
8
POINTS_COTES
10
30.001
20
74.999
40
1.0
1
62.5
0
TEXT
8
POINTS_COTES
10
83.998
20
77.995
40
1.0
1
67.1
0
TEXT
8
POINTS_COTES
10
26.995
20
83.997
40
1.0
1
62.8
0
TEXT
8
POINTS_COTES
10
81.003
20
87.004
40
1.0
1
67.7
0
ENDSEC
0
EOF
