0
SECTION
2
HEADER
0
ENDSEC
0
SECTION
2
TABLES
0
TABLE
2
LAYER
70
4
0
LAYER
2
CONTOURS_MINEURES
70
0
62
8
6
CONTINUOUS
0
LAYER
2
CONTOURS_MAJEURES
70
0
62
3
6
CONTINUOUS
0
LAYER
2
PARCELLE
70
0
62
4
6
CONTINUOUS
0
LAYER
2
POINTS_COTES
70
0
62
7
6
CONTINUOUS
0
ENDTAB
0
ENDSEC
0
SECTION
2
ENTITIES
0
POLYLINE
8
CONTOURS_MINEURES
66
1
70
0
0
VERTEX
8
CONTOURS_MINEURES
10
188.421
20
0.001
0
VERTEX
8
CONTOURS_MINEURES
10
188.613
20
0.391
0
VERTEX
8
CONTOURS_MINEURES
10
189.004
20
1.138
0
VERTEX
8
CONTOURS_MINEURES
10
190.140
20
1.138
0
VERTEX
8
CONTOURS_MINEURES
10
191.997
20
1.138
0
VERTEX
8
CONTOURS_MINEURES
10
193.303
20
1.693
0
VERTEX
8
CONTOURS_MINEURES
10
195.000
20
2.229
0
VERTEX
8
CONTOURS_MINEURES
10
197.722
20
2.716
0
VERTEX
8
CONTOURS_MINEURES
10
198.003
20
2.724
0
SEQEND
0
POLYLINE
8
CONTOURS_MINEURES
66
1
70
0
0
VERTEX
8
CONTOURS_MINEURES
10
186.997
20
0.001
0
VERTEX
8
CONTOURS_MINEURES
10
187.660
20
1.342
0
VERTEX
8
CONTOURS_MINEURES
10
188.525
20
2.997
0
VERTEX
8
CONTOURS_MINEURES
10
188.525
20
5.524
0
VERTEX
8
CONTOURS_MINEURES
10
188.525
20
6.003
0
VERTEX
8
CONTOURS_MINEURES
10
188.674
20
6.333
0
VERTEX
8
CONTOURS_MINEURES
10
189.004
20
6.498
0
VERTEX
8
CONTOURS_MINEURES
10
189.498
20
6.498
0
VERTEX
8
CONTOURS_MINEURES
10
191.997
20
6.498
0
VERTEX
8
CONTOURS_MINEURES
10
192.594
20
6.599
0
VERTEX
8
CONTOURS_MINEURES
10
195.000
20
7.036
0
VERTEX
8
CONTOURS_MINEURES
10
196.783
20
7.220
0
VERTEX
8
CONTOURS_MINEURES
10
198.003
20
8.038
0
SEQEND
0
POLYLINE
8
CONTOURS_MINEURES
66
1
70
0
0
VERTEX
8
CONTOURS_MINEURES
10
185.584
20
0.001
0
VERTEX
8
CONTOURS_MINEURES
10
186.001
20
0.865
0
VERTEX
8
CONTOURS_MINEURES
10
186.706
20
2.293
0
VERTEX
8
CONTOURS_MINEURES
10
187.075
20
2.997
0
VERTEX
8
CONTOURS_MINEURES
10
187.075
20
4.072
0
VERTEX
8
CONTOURS_MINEURES
10
187.075
20
6.003
0
VERTEX
8
CONTOURS_MINEURES
10
187.673
20
7.331
0
VERTEX
8
CONTOURS_MINEURES
10
189.004
20
7.996
0
VERTEX
8
CONTOURS_MINEURES
10
190.994
20
7.996
0
VERTEX
8
CONTOURS_MINEURES
10
191.997
20
7.996
0
VERTEX
8
CONTOURS_MINEURES
10
194.403
20
8.404
0
VERTEX
8
CONTOURS_MINEURES
10
195.000
20
8.512
0
VERTEX
8
CONTOURS_MINEURES
10
195.442
20
8.558
0
VERTEX
8
CONTOURS_MINEURES
10
196.101
20
8.999
0
VERTEX
8
CONTOURS_MINEURES
10
196.101
20
10.097
0
VERTEX
8
CONTOURS_MINEURES
10
196.101
20
11.995
0
VERTEX
8
CONTOURS_MINEURES
10
197.052
20
12.947
0
VERTEX
8
CONTOURS_MINEURES
10
198.003
20
13.459
0
SEQEND
0
POLYLINE
8
CONTOURS_MINEURES
66
1
70
0
0
VERTEX
8
CONTOURS_MINEURES
10
184.193
20
0.001
0
VERTEX
8
CONTOURS_MINEURES
10
185.304
20
2.301
0
VERTEX
8
CONTOURS_MINEURES
10
185.547
20
2.997
0
VERTEX
8
CONTOURS_MINEURES
10
185.547
20
3.451
0
VERTEX
8
CONTOURS_MINEURES
10
185.547
20
6.003
0
VERTEX
8
CONTOURS_MINEURES
10
186.001
20
6.841
0
VERTEX
8
CONTOURS_MINEURES
10
186.672
20
8.330
0
VERTEX
8
CONTOURS_MINEURES
10
188.013
20
8.999
0
VERTEX
8
CONTOURS_MINEURES
10
188.013
20
11.006
0
VERTEX
8
CONTOURS_MINEURES
10
188.013
20
11.995
0
VERTEX
8
CONTOURS_MINEURES
10
187.852
20
13.148
0
VERTEX
8
CONTOURS_MINEURES
10
189.004
20
13.621
0
VERTEX
8
CONTOURS_MINEURES
10
190.623
20
13.621
0
VERTEX
8
CONTOURS_MINEURES
10
191.997
20
13.621
0
VERTEX
8
CONTOURS_MINEURES
10
193.766
20
13.766
0
VERTEX
8
CONTOURS_MINEURES
10
195.000
20
14.233
0
VERTEX
8
CONTOURS_MINEURES
10
195.384
20
14.617
0
VERTEX
8
CONTOURS_MINEURES
10
196.096
20
15.001
0
VERTEX
8
CONTOURS_MINEURES
10
198.003
20
16.111
0
SEQEND
0
POLYLINE
8
CONTOURS_MINEURES
66
1
70
0
0
VERTEX
8
CONTOURS_MINEURES
10
179.548
20
0.001
0
VERTEX
8
CONTOURS_MINEURES
10
180.005
20
0.700
0
VERTEX
8
CONTOURS_MINEURES
10
182.300
20
0.700
0
VERTEX
8
CONTOURS_MINEURES
10
182.998
20
0.700
0
VERTEX
8
CONTOURS_MINEURES
10
183.801
20
2.997
0
VERTEX
8
CONTOURS_MINEURES
10
183.801
20
5.199
0
VERTEX
8
CONTOURS_MINEURES
10
183.801
20
6.003
0
VERTEX
8
CONTOURS_MINEURES
10
184.746
20
7.748
0
VERTEX
8
CONTOURS_MINEURES
10
184.777
20
8.999
0
VERTEX
8
CONTOURS_MINEURES
10
184.777
20
10.220
0
VERTEX
8
CONTOURS_MINEURES
10
184.777
20
11.995
0
VERTEX
8
CONTOURS_MINEURES
10
184.515
20
13.514
0
VERTEX
8
CONTOURS_MINEURES
10
183.387
20
15.001
0
VERTEX
8
CONTOURS_MINEURES
10
182.998
20
15.618
0
VERTEX
8
CONTOURS_MINEURES
10
180.621
20
15.618
0
VERTEX
8
CONTOURS_MINEURES
10
180.005
20
15.618
0
VERTEX
8
CONTOURS_MINEURES
10
178.316
20
17.997
0
VERTEX
8
CONTOURS_MINEURES
10
178.316
20
19.688
0
VERTEX
8
CONTOURS_MINEURES
10
178.316
20
21.004
0
VERTEX
8
CONTOURS_MINEURES
10
179.104
20
23.101
0
VERTEX
8
CONTOURS_MINEURES
10
179.104
20
23.999
0
VERTEX
8
CONTOURS_MINEURES
10
179.475
20
24.528
0
VERTEX
8
CONTOURS_MINEURES
10
180.005
20
25.684
0
VERTEX
8
CONTOURS_MINEURES
10
181.314
20
25.684
0
VERTEX
8
CONTOURS_MINEURES
10
182.998
20
25.684
0
VERTEX
8
CONTOURS_MINEURES
10
183.487
20
26.995
0
VERTEX
8
CONTOURS_MINEURES
10
183.487
20
29.512
0
VERTEX
8
CONTOURS_MINEURES
10
183.487
20
30.002
0
VERTEX
8
CONTOURS_MINEURES
10
183.881
20
32.116
0
VERTEX
8
CONTOURS_MINEURES
10
184.183
20
32.997
0
VERTEX
8
CONTOURS_MINEURES
10
184.274
20
34.726
0
VERTEX
8
CONTOURS_MINEURES
10
186.001
20
35.302
0
VERTEX
8
CONTOURS_MINEURES
10
187.169
20
34.835
0
VERTEX
8
CONTOURS_MINEURES
10
189.004
20
33.766
0
VERTEX
8
CONTOURS_MINEURES
10
189.770
20
33.766
0
VERTEX
8
CONTOURS_MINEURES
10
191.997
20
33.766
0
VERTEX
8
CONTOURS_MINEURES
10
194.742
20
33.255
0
VERTEX
8
CONTOURS_MINEURES
10
195.000
20
33.223
0
VERTEX
8
CONTOURS_MINEURES
10
195.290
20
33.288
0
VERTEX
8
CONTOURS_MINEURES
10
198.003
20
33.845
0
SEQEND
0
POLYLINE
8
CONTOURS_MINEURES
66
1
70
0
0
VERTEX
8
CONTOURS_MINEURES
10
198.003
20
56.996
0
VERTEX
8
CONTOURS_MINEURES
10
195.000
20
59.902
0
VERTEX
8
CONTOURS_MINEURES
10
194.940
20
59.942
0
VERTEX
8
CONTOURS_MINEURES
10
194.896
20
60.002
0
VERTEX
8
CONTOURS_MINEURES
10
194.896
20
62.895
0
VERTEX
8
CONTOURS_MINEURES
10
194.896
20
62.998
0
VERTEX
8
CONTOURS_MINEURES
10
194.823
20
63.175
0
VERTEX
8
CONTOURS_MINEURES
10
193.261
20
66.005
0
VERTEX
8
CONTOURS_MINEURES
10
193.261
20
67.739
0
VERTEX
8
CONTOURS_MINEURES
10
193.261
20
69.000
0
VERTEX
8
CONTOURS_MINEURES
10
193.678
20
70.318
0
VERTEX
8
CONTOURS_MINEURES
10
193.498
20
71.996
0
VERTEX
8
CONTOURS_MINEURES
10
194.048
20
74.049
0
VERTEX
8
CONTOURS_MINEURES
10
194.589
20
75.002
0
VERTEX
8
CONTOURS_MINEURES
10
194.589
20
75.412
0
VERTEX
8
CONTOURS_MINEURES
10
194.589
20
77.998
0
VERTEX
8
CONTOURS_MINEURES
10
195.000
20
78.929
0
VERTEX
8
CONTOURS_MINEURES
10
195.990
20
80.014
0
VERTEX
8
CONTOURS_MINEURES
10
196.049
20
81.005
0
VERTEX
8
CONTOURS_MINEURES
10
196.361
20
82.362
0
VERTEX
8
CONTOURS_MINEURES
10
197.039
20
84.000
0
VERTEX
8
CONTOURS_MINEURES
10
197.039
20
84.962
0
VERTEX
8
CONTOURS_MINEURES
10
197.039
20
86.996
0
VERTEX
8
CONTOURS_MINEURES
10
197.370
20
87.630
0
VERTEX
8
CONTOURS_MINEURES
10
198.003
20
88.982
0
SEQEND
0
POLYLINE
8
CONTOURS_MINEURES
66
1
70
0
0
VERTEX
8
CONTOURS_MINEURES
10
171.356
20
0.001
0
VERTEX
8
CONTOURS_MINEURES
10
171.559
20
0.563
0
VERTEX
8
CONTOURS_MINEURES
10
170.996
20
1.798
0
VERTEX
8
CONTOURS_MINEURES
10
170.568
20
2.997
0
VERTEX
8
CONTOURS_MINEURES
10
170.568
20
5.574
0
VERTEX
8
CONTOURS_MINEURES
10
170.568
20
6.003
0
VERTEX
8
CONTOURS_MINEURES
10
170.497
20
6.503
0
VERTEX
8
CONTOURS_MINEURES
10
170.497
20
8.999
0
VERTEX
8
CONTOURS_MINEURES
10
170.497
20
11.495
0
VERTEX
8
CONTOURS_MINEURES
10
170.497
20
11.995
0
VERTEX
8
CONTOURS_MINEURES
10
170.397
20
12.596
0
VERTEX
8
CONTOURS_MINEURES
10
169.333
20
15.001
0
VERTEX
8
CONTOURS_MINEURES
10
168.617
20
15.616
0
VERTEX
8
CONTOURS_MINEURES
10
168.003
20
16.713
0
VERTEX
8
CONTOURS_MINEURES
10
166.287
20
16.713
0
VERTEX
8
CONTOURS_MINEURES
10
165.000
20
16.713
0
VERTEX
8
CONTOURS_MINEURES
10
163.713
20
17.997
0
VERTEX
8
CONTOURS_MINEURES
10
163.713
20
19.286
0
VERTEX
8
CONTOURS_MINEURES
10
163.713
20
21.004
0
VERTEX
8
CONTOURS_MINEURES
10
161.997
20
23.666
0
VERTEX
8
CONTOURS_MINEURES
10
161.900
20
23.903
0
VERTEX
8
CONTOURS_MINEURES
10
161.916
20
23.999
0
VERTEX
8
CONTOURS_MINEURES
10
161.911
20
24.085
0
VERTEX
8
CONTOURS_MINEURES
10
161.997
20
24.998
0
VERTEX
8
CONTOURS_MINEURES
10
162.197
20
26.995
0
VERTEX
8
CONTOURS_MINEURES
10
162.197
20
29.801
0
VERTEX
8
CONTOURS_MINEURES
10
162.197
20
30.002
0
VERTEX
8
CONTOURS_MINEURES
10
162.597
20
32.398
0
VERTEX
8
CONTOURS_MINEURES
10
162.550
20
32.997
0
VERTEX
8
CONTOURS_MINEURES
10
162.550
20
33.551
0
VERTEX
8
CONTOURS_MINEURES
10
163.589
20
36.004
0
VERTEX
8
CONTOURS_MINEURES
10
163.589
20
37.593
0
VERTEX
8
CONTOURS_MINEURES
10
163.589
20
39.000
0
VERTEX
8
CONTOURS_MINEURES
10
164.282
20
41.279
0
VERTEX
8
CONTOURS_MINEURES
10
164.559
20
41.995
0
VERTEX
8
CONTOURS_MINEURES
10
164.559
20
44.561
0
VERTEX
8
CONTOURS_MINEURES
10
164.559
20
45.002
0
VERTEX
8
CONTOURS_MINEURES
10
164.652
20
45.349
0
VERTEX
8
CONTOURS_MINEURES
10
165.000
20
46.269
0
VERTEX
8
CONTOURS_MINEURES
10
166.271
20
46.269
0
VERTEX
8
CONTOURS_MINEURES
10
168.003
20
46.269
0
VERTEX
8
CONTOURS_MINEURES
10
170.366
20
47.998
0
VERTEX
8
CONTOURS_MINEURES
10
170.689
20
48.306
0
VERTEX
8
CONTOURS_MINEURES
10
170.996
20
48.631
0
VERTEX
8
CONTOURS_MINEURES
10
173.141
20
51.004
0
VERTEX
8
CONTOURS_MINEURES
10
173.141
20
53.144
0
VERTEX
8
CONTOURS_MINEURES
10
173.141
20
54.000
0
VERTEX
8
CONTOURS_MINEURES
10
173.331
20
54.666
0
VERTEX
8
CONTOURS_MINEURES
10
173.999
20
55.198
0
VERTEX
8
CONTOURS_MINEURES
10
175.801
20
55.198
0
VERTEX
8
CONTOURS_MINEURES
10
177.002
20
55.198
0
VERTEX
8
CONTOURS_MINEURES
10
178.177
20
56.996
0
VERTEX
8
CONTOURS_MINEURES
10
180.005
20
59.000
0
VERTEX
8
CONTOURS_MINEURES
10
181.003
20
59.000
0
VERTEX
8
CONTOURS_MINEURES
10
182.998
20
59.000
0
VERTEX
8
CONTOURS_MINEURES
10
183.551
20
60.002
0
VERTEX
8
CONTOURS_MINEURES
10
183.551
20
60.554
0
VERTEX
8
CONTOURS_MINEURES
10
183.551
20
62.998
0
VERTEX
8
CONTOURS_MINEURES
10
182.998
20
64.106
0
VERTEX
8
CONTOURS_MINEURES
10
181.895
20
64.106
0
VERTEX
8
CONTOURS_MINEURES
10
180.005
20
64.106
0
VERTEX
8
CONTOURS_MINEURES
10
177.603
20
66.005
0
VERTEX
8
CONTOURS_MINEURES
10
177.603
20
66.604
0
VERTEX
8
CONTOURS_MINEURES
10
177.603
20
69.000
0
VERTEX
8
CONTOURS_MINEURES
10
177.212
20
69.209
0
VERTEX
8
CONTOURS_MINEURES
10
177.002
20
69.473
0
VERTEX
8
CONTOURS_MINEURES
10
176.528
20
69.473
0
VERTEX
8
CONTOURS_MINEURES
10
173.999
20
69.473
0
VERTEX
8
CONTOURS_MINEURES
10
172.586
20
70.586
0
VERTEX
8
CONTOURS_MINEURES
10
172.543
20
71.996
0
VERTEX
8
CONTOURS_MINEURES
10
173.215
20
74.218
0
VERTEX
8
CONTOURS_MINEURES
10
173.418
20
75.002
0
VERTEX
8
CONTOURS_MINEURES
10
173.418
20
75.582
0
VERTEX
8
CONTOURS_MINEURES
10
173.418
20
77.998
0
VERTEX
8
CONTOURS_MINEURES
10
173.999
20
78.562
0
VERTEX
8
CONTOURS_MINEURES
10
174.562
20
78.562
0
VERTEX
8
CONTOURS_MINEURES
10
177.002
20
78.562
0
VERTEX
8
CONTOURS_MINEURES
10
177.313
20
78.309
0
VERTEX
8
CONTOURS_MINEURES
10
180.005
20
78.162
0
VERTEX
8
CONTOURS_MINEURES
10
182.835
20
78.162
0
VERTEX
8
CONTOURS_MINEURES
10
182.998
20
78.162
0
VERTEX
8
CONTOURS_MINEURES
10
183.143
20
78.144
0
VERTEX
8
CONTOURS_MINEURES
10
184.285
20
77.998
0
VERTEX
8
CONTOURS_MINEURES
10
184.285
20
76.714
0
VERTEX
8
CONTOURS_MINEURES
10
184.285
20
75.002
0
VERTEX
8
CONTOURS_MINEURES
10
185.728
20
74.729
0
VERTEX
8
CONTOURS_MINEURES
10
186.001
20
74.771
0
VERTEX
8
CONTOURS_MINEURES
10
186.547
20
75.002
0
VERTEX
8
CONTOURS_MINEURES
10
186.547
20
77.453
0
VERTEX
8
CONTOURS_MINEURES
10
186.547
20
77.998
0
VERTEX
8
CONTOURS_MINEURES
10
188.302
20
78.701
0
VERTEX
8
CONTOURS_MINEURES
10
189.004
20
79.175
0
VERTEX
8
CONTOURS_MINEURES
10
190.826
20
79.175
0
VERTEX
8
CONTOURS_MINEURES
10
191.997
20
79.175
0
VERTEX
8
CONTOURS_MINEURES
10
192.846
20
81.005
0
VERTEX
8
CONTOURS_MINEURES
10
193.554
20
82.558
0
VERTEX
8
CONTOURS_MINEURES
10
193.972
20
84.000
0
VERTEX
8
CONTOURS_MINEURES
10
193.972
20
85.971
0
VERTEX
8
CONTOURS_MINEURES
10
193.972
20
86.996
0
VERTEX
8
CONTOURS_MINEURES
10
195.000
20
88.368
0
VERTEX
8
CONTOURS_MINEURES
10
195.561
20
89.441
0
VERTEX
8
CONTOURS_MINEURES
10
195.824
20
90.003
0
VERTEX
8
CONTOURS_MINEURES
10
196.389
20
91.389
0
VERTEX
8
CONTOURS_MINEURES
10
196.731
20
92.998
0
VERTEX
8
CONTOURS_MINEURES
10
196.731
20
94.272
0
VERTEX
8
CONTOURS_MINEURES
10
196.731
20
96.005
0
VERTEX
8
CONTOURS_MINEURES
10
198.003
20
98.206
0
SEQEND
0
POLYLINE
8
CONTOURS_MINEURES
66
1
70
0
0
VERTEX
8
CONTOURS_MINEURES
10
133.908
20
0.001
0
VERTEX
8
CONTOURS_MINEURES
10
135.000
20
0.480
0
VERTEX
8
CONTOURS_MINEURES
10
136.660
20
1.341
0
VERTEX
8
CONTOURS_MINEURES
10
138.003
20
2.038
0
VERTEX
8
CONTOURS_MINEURES
10
140.038
20
2.038
0
VERTEX
8
CONTOURS_MINEURES
10
140.996
20
2.038
0
VERTEX
8
CONTOURS_MINEURES
10
141.467
20
2.527
0
VERTEX
8
CONTOURS_MINEURES
10
141.797
20
2.997
0
VERTEX
8
CONTOURS_MINEURES
10
141.797
20
3.799
0
VERTEX
8
CONTOURS_MINEURES
10
141.797
20
6.003
0
VERTEX
8
CONTOURS_MINEURES
10
143.999
20
8.749
0
VERTEX
8
CONTOURS_MINEURES
10
144.145
20
8.999
0
VERTEX
8
CONTOURS_MINEURES
10
144.145
20
11.849
0
VERTEX
8
CONTOURS_MINEURES
10
144.145
20
11.995
0
VERTEX
8
CONTOURS_MINEURES
10
144.612
20
14.388
0
VERTEX
8
CONTOURS_MINEURES
10
145.000
20
15.001
0
VERTEX
8
CONTOURS_MINEURES
10
145.250
20
16.250
0
VERTEX
8
CONTOURS_MINEURES
10
145.688
20
17.997
0
VERTEX
8
CONTOURS_MINEURES
10
145.688
20
19.312
0
VERTEX
8
CONTOURS_MINEURES
10
145.688
20
21.004
0
VERTEX
8
CONTOURS_MINEURES
10
145.688
20
22.689
0
VERTEX
8
CONTOURS_MINEURES
10
145.385
20
23.999
0
VERTEX
8
CONTOURS_MINEURES
10
144.666
20
26.329
0
VERTEX
8
CONTOURS_MINEURES
10
144.666
20
26.995
0
VERTEX
8
CONTOURS_MINEURES
10
144.666
20
27.663
0
VERTEX
8
CONTOURS_MINEURES
10
144.666
20
30.002
0
VERTEX
8
CONTOURS_MINEURES
10
145.091
20
31.908
0
VERTEX
8
CONTOURS_MINEURES
10
145.601
20
32.997
0
VERTEX
8
CONTOURS_MINEURES
10
147.002
20
34.105
0
VERTEX
8
CONTOURS_MINEURES
10
148.899
20
34.105
0
VERTEX
8
CONTOURS_MINEURES
10
150.005
20
34.105
0
VERTEX
8
CONTOURS_MINEURES
10
151.031
20
34.973
0
VERTEX
8
CONTOURS_MINEURES
10
152.998
20
34.973
0
VERTEX
8
CONTOURS_MINEURES
10
155.465
20
35.467
0
VERTEX
8
CONTOURS_MINEURES
10
156.001
20
35.662
0
VERTEX
8
CONTOURS_MINEURES
10
158.663
20
35.662
0
VERTEX
8
CONTOURS_MINEURES
10
159.004
20
35.662
0
VERTEX
8
CONTOURS_MINEURES
10
159.157
20
35.851
0
VERTEX
8
CONTOURS_MINEURES
10
159.218
20
36.004
0
VERTEX
8
CONTOURS_MINEURES
10
159.218
20
36.218
0
VERTEX
8
CONTOURS_MINEURES
10
159.218
20
39.000
0
VERTEX
8
CONTOURS_MINEURES
10
159.991
20
41.007
0
VERTEX
8
CONTOURS_MINEURES
10
160.412
20
41.995
0
VERTEX
8
CONTOURS_MINEURES
10
160.412
20
43.587
0
VERTEX
8
CONTOURS_MINEURES
10
160.412
20
45.002
0
VERTEX
8
CONTOURS_MINEURES
10
160.999
20
46.999
0
VERTEX
8
CONTOURS_MINEURES
10
160.999
20
47.998
0
VERTEX
8
CONTOURS_MINEURES
10
160.829
20
49.171
0
VERTEX
8
CONTOURS_MINEURES
10
160.744
20
51.004
0
VERTEX
8
CONTOURS_MINEURES
10
160.744
20
52.258
0
VERTEX
8
CONTOURS_MINEURES
10
160.744
20
54.000
0
VERTEX
8
CONTOURS_MINEURES
10
160.531
20
55.528
0
VERTEX
8
CONTOURS_MINEURES
10
160.107
20
56.996
0
VERTEX
8
CONTOURS_MINEURES
10
159.820
20
59.182
0
VERTEX
8
CONTOURS_MINEURES
10
159.752
20
60.002
0
VERTEX
8
CONTOURS_MINEURES
10
159.752
20
62.249
0
VERTEX
8
CONTOURS_MINEURES
10
159.752
20
62.998
0
VERTEX
8
CONTOURS_MINEURES
10
160.278
20
64.725
0
VERTEX
8
CONTOURS_MINEURES
10
160.539
20
66.005
0
VERTEX
8
CONTOURS_MINEURES
10
160.539
20
67.541
0
VERTEX
8
CONTOURS_MINEURES
10
160.539
20
69.000
0
VERTEX
8
CONTOURS_MINEURES
10
160.705
20
70.294
0
VERTEX
8
CONTOURS_MINEURES
10
161.271
20
71.996
0
VERTEX
8
CONTOURS_MINEURES
10
161.224
20
72.772
0
VERTEX
8
CONTOURS_MINEURES
10
161.553
20
75.002
0
VERTEX
8
CONTOURS_MINEURES
10
161.553
20
77.554
0
VERTEX
8
CONTOURS_MINEURES
10
161.553
20
77.998
0
VERTEX
8
CONTOURS_MINEURES
10
160.667
20
79.334
0
VERTEX
8
CONTOURS_MINEURES
10
159.752
20
81.005
0
VERTEX
8
CONTOURS_MINEURES
10
159.939
20
81.941
0
VERTEX
8
CONTOURS_MINEURES
10
159.004
20
82.877
0
VERTEX
8
CONTOURS_MINEURES
10
157.127
20
82.877
0
VERTEX
8
CONTOURS_MINEURES
10
156.001
20
82.877
0
VERTEX
8
CONTOURS_MINEURES
10
155.655
20
83.655
0
VERTEX
8
CONTOURS_MINEURES
10
155.100
20
84.000
0
VERTEX
8
CONTOURS_MINEURES
10
155.100
20
86.097
0
VERTEX
8
CONTOURS_MINEURES
10
155.100
20
86.996
0
VERTEX
8
CONTOURS_MINEURES
10
156.001
20
87.447
0
VERTEX
8
CONTOURS_MINEURES
10
158.554
20
87.447
0
VERTEX
8
CONTOURS_MINEURES
10
159.004
20
87.447
0
VERTEX
8
CONTOURS_MINEURES
10
159.645
20
87.640
0
VERTEX
8
CONTOURS_MINEURES
10
161.997
20
88.499
0
VERTEX
8
CONTOURS_MINEURES
10
164.750
20
90.003
0
VERTEX
8
CONTOURS_MINEURES
10
164.919
20
90.084
0
VERTEX
8
CONTOURS_MINEURES
10
165.000
20
90.133
0
VERTEX
8
CONTOURS_MINEURES
10
165.131
20
90.133
0
VERTEX
8
CONTOURS_MINEURES
10
168.003
20
90.133
0
VERTEX
8
CONTOURS_MINEURES
10
169.609
20
92.998
0
VERTEX
8
CONTOURS_MINEURES
10
169.609
20
94.392
0
VERTEX
8
CONTOURS_MINEURES
10
169.609
20
96.005
0
VERTEX
8
CONTOURS_MINEURES
10
170.996
20
98.282
0
VERTEX
8
CONTOURS_MINEURES
10
171.329
20
99.001
0
VERTEX
8
CONTOURS_MINEURES
10
171.329
20
101.664
0
VERTEX
8
CONTOURS_MINEURES
10
171.329
20
101.996
0
VERTEX
8
CONTOURS_MINEURES
10
171.396
20
102.397
0
VERTEX
8
CONTOURS_MINEURES
10
171.507
20
105.003
0
VERTEX
8
CONTOURS_MINEURES
10
171.210
20
107.785
0
VERTEX
8
CONTOURS_MINEURES
10
171.269
20
107.999
0
VERTEX
8
CONTOURS_MINEURES
10
171.269
20
108.272
0
VERTEX
8
CONTOURS_MINEURES
10
171.269
20
111.005
0
VERTEX
8
CONTOURS_MINEURES
10
172.160
20
112.839
0
VERTEX
8
CONTOURS_MINEURES
10
173.034
20
114.001
0
VERTEX
8
CONTOURS_MINEURES
10
173.999
20
115.000
0
VERTEX
8
CONTOURS_MINEURES
10
175.000
20
115.000
0
VERTEX
8
CONTOURS_MINEURES
10
177.002
20
115.000
0
VERTEX
8
CONTOURS_MINEURES
10
177.918
20
116.083
0
VERTEX
8
CONTOURS_MINEURES
10
178.231
20
116.997
0
VERTEX
8
CONTOURS_MINEURES
10
178.231
20
118.773
0
VERTEX
8
CONTOURS_MINEURES
10
178.231
20
120.003
0
VERTEX
8
CONTOURS_MINEURES
10
179.164
20
122.160
0
VERTEX
8
CONTOURS_MINEURES
10
179.466
20
122.999
0
VERTEX
8
CONTOURS_MINEURES
10
179.466
20
123.537
0
VERTEX
8
CONTOURS_MINEURES
10
179.466
20
125.995
0
VERTEX
8
CONTOURS_MINEURES
10
179.567
20
126.433
0
VERTEX
8
CONTOURS_MINEURES
10
180.005
20
127.398
0
VERTEX
8
CONTOURS_MINEURES
10
181.402
20
127.398
0
VERTEX
8
CONTOURS_MINEURES
10
182.998
20
127.398
0
VERTEX
8
CONTOURS_MINEURES
10
183.684
20
128.314
0
VERTEX
8
CONTOURS_MINEURES
10
184.411
20
129.001
0
SEQEND
0
POLYLINE
8
CONTOURS_MINEURES
66
1
70
0
0
VERTEX
8
CONTOURS_MINEURES
10
198.003
20
122.625
0
VERTEX
8
CONTOURS_MINEURES
10
195.901
20
120.003
0
VERTEX
8
CONTOURS_MINEURES
10
195.901
20
117.899
0
VERTEX
8
CONTOURS_MINEURES
10
195.901
20
116.997
0
VERTEX
8
CONTOURS_MINEURES
10
198.003
20
115.090
0
SEQEND
0
POLYLINE
8
CONTOURS_MINEURES
66
1
70
0
0
VERTEX
8
CONTOURS_MINEURES
10
187.230
20
129.001
0
VERTEX
8
CONTOURS_MINEURES
10
188.028
20
128.024
0
VERTEX
8
CONTOURS_MINEURES
10
189.004
20
127.302
0
VERTEX
8
CONTOURS_MINEURES
10
190.696
20
127.302
0
VERTEX
8
CONTOURS_MINEURES
10
191.997
20
127.302
0
VERTEX
8
CONTOURS_MINEURES
10
192.965
20
126.964
0
VERTEX
8
CONTOURS_MINEURES
10
194.727
20
125.995
0
VERTEX
8
CONTOURS_MINEURES
10
194.727
20
125.722
0
VERTEX
8
CONTOURS_MINEURES
10
194.727
20
122.999
0
VERTEX
8
CONTOURS_MINEURES
10
194.875
20
122.874
0
VERTEX
8
CONTOURS_MINEURES
10
195.000
20
122.250
0
VERTEX
8
CONTOURS_MINEURES
10
196.501
20
122.999
0
VERTEX
8
CONTOURS_MINEURES
10
196.501
20
124.497
0
VERTEX
8
CONTOURS_MINEURES
10
196.501
20
125.995
0
VERTEX
8
CONTOURS_MINEURES
10
197.867
20
126.131
0
VERTEX
8
CONTOURS_MINEURES
10
198.003
20
126.209
0
SEQEND
0
POLYLINE
8
CONTOURS_MINEURES
66
1
70
0
0
VERTEX
8
CONTOURS_MINEURES
10
196.001
20
111.005
0
VERTEX
8
CONTOURS_MINEURES
10
196.668
20
112.670
0
VERTEX
8
CONTOURS_MINEURES
10
195.000
20
112.670
0
VERTEX
8
CONTOURS_MINEURES
10
194.117
20
111.886
0
VERTEX
8
CONTOURS_MINEURES
10
191.997
20
111.604
0
VERTEX
8
CONTOURS_MINEURES
10
191.398
20
111.604
0
VERTEX
8
CONTOURS_MINEURES
10
189.004
20
111.604
0
VERTEX
8
CONTOURS_MINEURES
10
188.704
20
111.005
0
VERTEX
8
CONTOURS_MINEURES
10
188.704
20
110.705
0
VERTEX
8
CONTOURS_MINEURES
10
188.704
20
107.999
0
VERTEX
8
CONTOURS_MINEURES
10
189.004
20
107.307
0
VERTEX
8
CONTOURS_MINEURES
10
189.695
20
107.307
0
VERTEX
8
CONTOURS_MINEURES
10
191.997
20
107.307
0
VERTEX
8
CONTOURS_MINEURES
10
193.999
20
107.000
0
VERTEX
8
CONTOURS_MINEURES
10
195.000
20
107.000
0
VERTEX
8
CONTOURS_MINEURES
10
196.001
20
107.999
0
VERTEX
8
CONTOURS_MINEURES
10
196.001
20
110.003
0
VERTEX
8
CONTOURS_MINEURES
10
196.001
20
111.005
0
SEQEND
0
POLYLINE
8
CONTOURS_MINEURES
66
1
70
0
0
VERTEX
8
CONTOURS_MINEURES
10
99.503
20
0.001
0
VERTEX
8
CONTOURS_MINEURES
10
100.501
20
1.499
0
VERTEX
8
CONTOURS_MINEURES
10
101.367
20
2.997
0
VERTEX
8
CONTOURS_MINEURES
10
101.367
20
3.630
0
VERTEX
8
CONTOURS_MINEURES
10
101.367
20
6.003
0
VERTEX
8
CONTOURS_MINEURES
10
101.367
20
8.368
0
VERTEX
8
CONTOURS_MINEURES
10
101.476
20
8.999
0
VERTEX
8
CONTOURS_MINEURES
10
101.476
20
9.520
0
VERTEX
8
CONTOURS_MINEURES
10
101.476
20
11.995
0
VERTEX
8
CONTOURS_MINEURES
10
101.997
20
13.498
0
VERTEX
8
CONTOURS_MINEURES
10
103.499
20
13.498
0
VERTEX
8
CONTOURS_MINEURES
10
105.000
20
13.498
0
VERTEX
8
CONTOURS_MINEURES
10
106.092
20
15.001
0
VERTEX
8
CONTOURS_MINEURES
10
107.385
20
15.618
0
VERTEX
8
CONTOURS_MINEURES
10
108.003
20
15.840
0
VERTEX
8
CONTOURS_MINEURES
10
109.200
20
16.799
0
VERTEX
8
CONTOURS_MINEURES
10
109.286
20
17.997
0
VERTEX
8
CONTOURS_MINEURES
10
109.286
20
19.715
0
VERTEX
8
CONTOURS_MINEURES
10
109.286
20
21.004
0
VERTEX
8
CONTOURS_MINEURES
10
110.996
20
23.999
0
VERTEX
8
CONTOURS_MINEURES
10
113.999
20
23.999
0
VERTEX
8
CONTOURS_MINEURES
10
116.201
20
26.995
0
VERTEX
8
CONTOURS_MINEURES
10
116.201
20
29.200
0
VERTEX
8
CONTOURS_MINEURES
10
116.201
20
30.002
0
VERTEX
8
CONTOURS_MINEURES
10
116.370
20
30.632
0
VERTEX
8
CONTOURS_MINEURES
10
117.002
20
31.384
0
VERTEX
8
CONTOURS_MINEURES
10
118.311
20
32.997
0
VERTEX
8
CONTOURS_MINEURES
10
118.498
20
34.501
0
VERTEX
8
CONTOURS_MINEURES
10
119.995
20
35.457
0
VERTEX
8
CONTOURS_MINEURES
10
122.452
20
35.457
0
VERTEX
8
CONTOURS_MINEURES
10
122.998
20
35.457
0
VERTEX
8
CONTOURS_MINEURES
10
123.362
20
35.640
0
VERTEX
8
CONTOURS_MINEURES
10
123.630
20
36.004
0
VERTEX
8
CONTOURS_MINEURES
10
123.630
20
38.369
0
VERTEX
8
CONTOURS_MINEURES
10
123.630
20
39.000
0
VERTEX
8
CONTOURS_MINEURES
10
123.705
20
39.704
0
VERTEX
8
CONTOURS_MINEURES
10
122.998
20
41.995
0
VERTEX
8
CONTOURS_MINEURES
10
122.998
20
45.002
0
VERTEX
8
CONTOURS_MINEURES
10
126.001
20
46.949
0
VERTEX
8
CONTOURS_MINEURES
10
126.658
20
47.342
0
VERTEX
8
CONTOURS_MINEURES
10
127.238
20
47.998
0
VERTEX
8
CONTOURS_MINEURES
10
129.004
20
49.580
0
VERTEX
8
CONTOURS_MINEURES
10
130.422
20
49.580
0
VERTEX
8
CONTOURS_MINEURES
10
131.997
20
49.580
0
VERTEX
8
CONTOURS_MINEURES
10
132.929
20
50.071
0
VERTEX
8
CONTOURS_MINEURES
10
133.927
20
51.004
0
VERTEX
8
CONTOURS_MINEURES
10
133.927
20
52.074
0
VERTEX
8
CONTOURS_MINEURES
10
133.927
20
54.000
0
VERTEX
8
CONTOURS_MINEURES
10
134.615
20
54.384
0
VERTEX
8
CONTOURS_MINEURES
10
135.000
20
55.362
0
VERTEX
8
CONTOURS_MINEURES
10
135.751
20
56.996
0
VERTEX
8
CONTOURS_MINEURES
10
136.139
20
58.862
0
VERTEX
8
CONTOURS_MINEURES
10
136.321
20
60.002
0
VERTEX
8
CONTOURS_MINEURES
10
136.321
20
61.320
0
VERTEX
8
CONTOURS_MINEURES
10
136.321
20
62.998
0
VERTEX
8
CONTOURS_MINEURES
10
135.751
20
63.750
0
VERTEX
8
CONTOURS_MINEURES
10
135.088
20
66.005
0
VERTEX
8
CONTOURS_MINEURES
10
135.088
20
68.912
0
VERTEX
8
CONTOURS_MINEURES
10
135.088
20
69.000
0
VERTEX
8
CONTOURS_MINEURES
10
135.063
20
69.063
0
VERTEX
8
CONTOURS_MINEURES
10
135.000
20
69.073
0
VERTEX
8
CONTOURS_MINEURES
10
132.597
20
71.996
0
VERTEX
8
CONTOURS_MINEURES
10
132.432
20
72.432
0
VERTEX
8
CONTOURS_MINEURES
10
131.997
20
72.712
0
VERTEX
8
CONTOURS_MINEURES
10
129.717
20
72.712
0
VERTEX
8
CONTOURS_MINEURES
10
129.004
20
72.712
0
VERTEX
8
CONTOURS_MINEURES
10
127.723
20
75.002
0
VERTEX
8
CONTOURS_MINEURES
10
127.723
20
76.720
0
VERTEX
8
CONTOURS_MINEURES
10
127.723
20
77.998
0
VERTEX
8
CONTOURS_MINEURES
10
127.770
20
79.769
0
VERTEX
8
CONTOURS_MINEURES
10
127.717
20
81.005
0
VERTEX
8
CONTOURS_MINEURES
10
127.717
20
82.289
0
VERTEX
8
CONTOURS_MINEURES
10
128.226
20
84.000
0
VERTEX
8
CONTOURS_MINEURES
10
128.226
20
86.219
0
VERTEX
8
CONTOURS_MINEURES
10
128.226
20
86.996
0
VERTEX
8
CONTOURS_MINEURES
10
128.163
20
87.838
0
VERTEX
8
CONTOURS_MINEURES
10
129.004
20
89.802
0
VERTEX
8
CONTOURS_MINEURES
10
131.797
20
89.802
0
VERTEX
8
CONTOURS_MINEURES
10
131.997
20
89.802
0
VERTEX
8
CONTOURS_MINEURES
10
132.080
20
90.003
0
VERTEX
8
CONTOURS_MINEURES
10
132.127
20
90.133
0
VERTEX
8
CONTOURS_MINEURES
10
132.357
20
92.998
0
VERTEX
8
CONTOURS_MINEURES
10
132.357
20
93.359
0
VERTEX
8
CONTOURS_MINEURES
10
132.357
20
96.005
0
VERTEX
8
CONTOURS_MINEURES
10
133.464
20
97.538
0
VERTEX
8
CONTOURS_MINEURES
10
134.333
20
99.001
0
VERTEX
8
CONTOURS_MINEURES
10
134.333
20
99.666
0
VERTEX
8
CONTOURS_MINEURES
10
134.333
20
101.996
0
VERTEX
8
CONTOURS_MINEURES
10
135.000
20
103.199
0
VERTEX
8
CONTOURS_MINEURES
10
135.751
20
104.251
0
VERTEX
8
CONTOURS_MINEURES
10
137.252
20
105.003
0
VERTEX
8
CONTOURS_MINEURES
10
137.473
20
105.532
0
VERTEX
8
CONTOURS_MINEURES
10
138.003
20
105.902
0
VERTEX
8
CONTOURS_MINEURES
10
140.098
20
105.902
0
VERTEX
8
CONTOURS_MINEURES
10
140.996
20
105.902
0
VERTEX
8
CONTOURS_MINEURES
10
141.329
20
105.336
0
VERTEX
8
CONTOURS_MINEURES
10
141.496
20
105.003
0
VERTEX
8
CONTOURS_MINEURES
10
143.999
20
103.978
0
VERTEX
8
CONTOURS_MINEURES
10
145.184
20
103.816
0
VERTEX
8
CONTOURS_MINEURES
10
147.002
20
104.092
0
VERTEX
8
CONTOURS_MINEURES
10
147.912
20
104.092
0
VERTEX
8
CONTOURS_MINEURES
10
150.005
20
104.092
0
VERTEX
8
CONTOURS_MINEURES
10
152.307
20
105.003
0
VERTEX
8
CONTOURS_MINEURES
10
152.624
20
105.378
0
VERTEX
8
CONTOURS_MINEURES
10
152.998
20
106.287
0
VERTEX
8
CONTOURS_MINEURES
10
153.341
20
107.999
0
VERTEX
8
CONTOURS_MINEURES
10
153.341
20
110.662
0
VERTEX
8
CONTOURS_MINEURES
10
153.341
20
111.005
0
VERTEX
8
CONTOURS_MINEURES
10
153.427
20
111.433
0
VERTEX
8
CONTOURS_MINEURES
10
153.817
20
114.001
0
VERTEX
8
CONTOURS_MINEURES
10
153.770
20
114.771
0
VERTEX
8
CONTOURS_MINEURES
10
152.998
20
116.997
0
VERTEX
8
CONTOURS_MINEURES
10
152.998
20
120.003
0
VERTEX
8
CONTOURS_MINEURES
10
151.697
20
122.999
0
VERTEX
8
CONTOURS_MINEURES
10
151.697
20
124.692
0
VERTEX
8
CONTOURS_MINEURES
10
151.697
20
125.995
0
VERTEX
8
CONTOURS_MINEURES
10
151.446
20
127.442
0
VERTEX
8
CONTOURS_MINEURES
10
151.553
20
129.001
0
SEQEND
0
POLYLINE
8
CONTOURS_MINEURES
66
1
70
0
0
VERTEX
8
CONTOURS_MINEURES
10
75.120
20
0.001
0
VERTEX
8
CONTOURS_MINEURES
10
78.003
20
2.398
0
VERTEX
8
CONTOURS_MINEURES
10
78.602
20
2.398
0
VERTEX
8
CONTOURS_MINEURES
10
80.996
20
2.398
0
VERTEX
8
CONTOURS_MINEURES
10
81.779
20
2.997
0
VERTEX
8
CONTOURS_MINEURES
10
81.779
20
5.219
0
VERTEX
8
CONTOURS_MINEURES
10
81.779
20
6.003
0
VERTEX
8
CONTOURS_MINEURES
10
82.978
20
7.022
0
VERTEX
8
CONTOURS_MINEURES
10
83.999
20
8.684
0
VERTEX
8
CONTOURS_MINEURES
10
84.139
20
8.860
0
VERTEX
8
CONTOURS_MINEURES
10
84.171
20
8.999
0
VERTEX
8
CONTOURS_MINEURES
10
84.171
20
9.170
0
VERTEX
8
CONTOURS_MINEURES
10
84.171
20
11.995
0
VERTEX
8
CONTOURS_MINEURES
10
84.087
20
14.913
0
VERTEX
8
CONTOURS_MINEURES
10
84.115
20
15.001
0
VERTEX
8
CONTOURS_MINEURES
10
84.230
20
15.232
0
VERTEX
8
CONTOURS_MINEURES
10
85.616
20
17.997
0
VERTEX
8
CONTOURS_MINEURES
10
85.616
20
19.385
0
VERTEX
8
CONTOURS_MINEURES
10
85.616
20
21.004
0
VERTEX
8
CONTOURS_MINEURES
10
85.973
20
22.031
0
VERTEX
8
CONTOURS_MINEURES
10
87.002
20
23.999
0
VERTEX
8
CONTOURS_MINEURES
10
89.995
20
23.999
0
VERTEX
8
CONTOURS_MINEURES
10
87.002
20
23.999
0
VERTEX
8
CONTOURS_MINEURES
10
85.973
20
25.968
0
VERTEX
8
CONTOURS_MINEURES
10
86.028
20
26.995
0
VERTEX
8
CONTOURS_MINEURES
10
86.028
20
29.027
0
VERTEX
8
CONTOURS_MINEURES
10
86.028
20
30.002
0
VERTEX
8
CONTOURS_MINEURES
10
86.502
20
32.498
0
VERTEX
8
CONTOURS_MINEURES
10
86.425
20
32.997
0
VERTEX
8
CONTOURS_MINEURES
10
86.627
20
33.373
0
VERTEX
8
CONTOURS_MINEURES
10
87.002
20
34.501
0
VERTEX
8
CONTOURS_MINEURES
10
88.499
20
34.501
0
VERTEX
8
CONTOURS_MINEURES
10
89.995
20
34.501
0
VERTEX
8
CONTOURS_MINEURES
10
90.380
20
35.619
0
VERTEX
8
CONTOURS_MINEURES
10
90.479
20
36.004
0
VERTEX
8
CONTOURS_MINEURES
10
90.479
20
38.516
0
VERTEX
8
CONTOURS_MINEURES
10
90.479
20
39.000
0
VERTEX
8
CONTOURS_MINEURES
10
92.998
20
41.995
0
VERTEX
8
CONTOURS_MINEURES
10
92.998
20
45.002
0
VERTEX
8
CONTOURS_MINEURES
10
94.628
20
46.371
0
VERTEX
8
CONTOURS_MINEURES
10
96.001
20
46.999
0
VERTEX
8
CONTOURS_MINEURES
10
98.003
20
46.999
0
VERTEX
8
CONTOURS_MINEURES
10
99.004
20
46.999
0
VERTEX
8
CONTOURS_MINEURES
10
99.651
20
47.350
0
VERTEX
8
CONTOURS_MINEURES
10
100.334
20
47.998
0
VERTEX
8
CONTOURS_MINEURES
10
100.696
20
49.305
0
VERTEX
8
CONTOURS_MINEURES
10
100.501
20
51.004
0
VERTEX
8
CONTOURS_MINEURES
10
100.501
20
52.502
0
VERTEX
8
CONTOURS_MINEURES
10
100.501
20
54.000
0
VERTEX
8
CONTOURS_MINEURES
10
100.916
20
55.082
0
VERTEX
8
CONTOURS_MINEURES
10
101.997
20
56.596
0
VERTEX
8
CONTOURS_MINEURES
10
104.600
20
56.596
0
VERTEX
8
CONTOURS_MINEURES
10
105.000
20
56.596
0
VERTEX
8
CONTOURS_MINEURES
10
105.231
20
56.765
0
VERTEX
8
CONTOURS_MINEURES
10
105.546
20
56.996
0
VERTEX
8
CONTOURS_MINEURES
10
106.581
20
58.420
0
VERTEX
8
CONTOURS_MINEURES
10
108.003
20
59.456
0
VERTEX
8
CONTOURS_MINEURES
10
108.431
20
59.573
0
VERTEX
8
CONTOURS_MINEURES
10
110.996
20
58.383
0
VERTEX
8
CONTOURS_MINEURES
10
112.382
20
58.383
0
VERTEX
8
CONTOURS_MINEURES
10
113.999
20
58.383
0
VERTEX
8
CONTOURS_MINEURES
10
115.556
20
58.443
0
VERTEX
8
CONTOURS_MINEURES
10
117.002
20
58.256
0
VERTEX
8
CONTOURS_MINEURES
10
118.634
20
58.362
0
VERTEX
8
CONTOURS_MINEURES
10
119.995
20
59.046
0
VERTEX
8
CONTOURS_MINEURES
10
120.950
20
59.046
0
VERTEX
8
CONTOURS_MINEURES
10
122.998
20
59.046
0
VERTEX
8
CONTOURS_MINEURES
10
123.999
20
60.002
0
VERTEX
8
CONTOURS_MINEURES
10
123.999
20
61.001
0
VERTEX
8
CONTOURS_MINEURES
10
123.999
20
62.998
0
VERTEX
8
CONTOURS_MINEURES
10
124.166
20
64.167
0
VERTEX
8
CONTOURS_MINEURES
10
124.862
20
66.005
0
VERTEX
8
CONTOURS_MINEURES
10
124.862
20
67.141
0
VERTEX
8
CONTOURS_MINEURES
10
124.862
20
69.000
0
VERTEX
8
CONTOURS_MINEURES
10
125.000
20
69.999
0
VERTEX
8
CONTOURS_MINEURES
10
124.534
20
71.996
0
VERTEX
8
CONTOURS_MINEURES
10
123.834
20
72.833
0
VERTEX
8
CONTOURS_MINEURES
10
122.998
20
74.358
0
VERTEX
8
CONTOURS_MINEURES
10
122.354
20
74.358
0
VERTEX
8
CONTOURS_MINEURES
10
119.995
20
74.358
0
VERTEX
8
CONTOURS_MINEURES
10
119.467
20
75.002
0
VERTEX
8
CONTOURS_MINEURES
10
119.467
20
75.531
0
VERTEX
8
CONTOURS_MINEURES
10
119.467
20
77.998
0
VERTEX
8
CONTOURS_MINEURES
10
117.002
20
81.005
0
VERTEX
8
CONTOURS_MINEURES
10
117.096
20
84.000
0
VERTEX
8
CONTOURS_MINEURES
10
117.096
20
84.094
0
VERTEX
8
CONTOURS_MINEURES
10
117.096
20
86.996
0
VERTEX
8
CONTOURS_MINEURES
10
117.553
20
89.449
0
VERTEX
8
CONTOURS_MINEURES
10
117.539
20
90.003
0
VERTEX
8
CONTOURS_MINEURES
10
117.526
20
90.527
0
VERTEX
8
CONTOURS_MINEURES
10
117.643
20
92.998
0
VERTEX
8
CONTOURS_MINEURES
10
117.643
20
93.643
0
VERTEX
8
CONTOURS_MINEURES
10
117.643
20
96.005
0
VERTEX
8
CONTOURS_MINEURES
10
117.002
20
97.289
0
VERTEX
8
CONTOURS_MINEURES
10
116.235
20
98.236
0
VERTEX
8
CONTOURS_MINEURES
10
115.715
20
99.001
0
VERTEX
8
CONTOURS_MINEURES
10
115.715
20
100.285
0
VERTEX
8
CONTOURS_MINEURES
10
115.715
20
101.996
0
VERTEX
8
CONTOURS_MINEURES
10
115.264
20
103.262
0
VERTEX
8
CONTOURS_MINEURES
10
113.999
20
104.402
0
VERTEX
8
CONTOURS_MINEURES
10
111.596
20
104.402
0
VERTEX
8
CONTOURS_MINEURES
10
110.996
20
104.402
0
VERTEX
8
CONTOURS_MINEURES
10
110.292
20
105.003
0
VERTEX
8
CONTOURS_MINEURES
10
110.996
20
106.334
0
VERTEX
8
CONTOURS_MINEURES
10
112.664
20
106.334
0
VERTEX
8
CONTOURS_MINEURES
10
113.999
20
106.334
0
VERTEX
8
CONTOURS_MINEURES
10
115.501
20
107.999
0
VERTEX
8
CONTOURS_MINEURES
10
115.501
20
109.502
0
VERTEX
8
CONTOURS_MINEURES
10
115.501
20
111.005
0
VERTEX
8
CONTOURS_MINEURES
10
116.402
20
111.604
0
VERTEX
8
CONTOURS_MINEURES
10
117.002
20
111.719
0
VERTEX
8
CONTOURS_MINEURES
10
118.665
20
112.670
0
VERTEX
8
CONTOURS_MINEURES
10
119.995
20
113.370
0
VERTEX
8
CONTOURS_MINEURES
10
120.627
20
113.370
0
VERTEX
8
CONTOURS_MINEURES
10
122.998
20
113.370
0
VERTEX
8
CONTOURS_MINEURES
10
123.922
20
114.001
0
VERTEX
8
CONTOURS_MINEURES
10
125.229
20
114.771
0
VERTEX
8
CONTOURS_MINEURES
10
125.787
20
116.997
0
VERTEX
8
CONTOURS_MINEURES
10
125.787
20
119.789
0
VERTEX
8
CONTOURS_MINEURES
10
125.787
20
120.003
0
VERTEX
8
CONTOURS_MINEURES
10
125.839
20
120.165
0
VERTEX
8
CONTOURS_MINEURES
10
126.001
20
122.000
0
VERTEX
8
CONTOURS_MINEURES
10
126.098
20
122.999
0
VERTEX
8
CONTOURS_MINEURES
10
126.098
20
125.898
0
VERTEX
8
CONTOURS_MINEURES
10
126.098
20
125.995
0
VERTEX
8
CONTOURS_MINEURES
10
126.274
20
128.728
0
VERTEX
8
CONTOURS_MINEURES
10
126.274
20
129.001
0
SEQEND
0
POLYLINE
8
CONTOURS_MINEURES
66
1
70
0
0
VERTEX
8
CONTOURS_MINEURES
10
19.001
20
0.001
0
VERTEX
8
CONTOURS_MINEURES
10
20.996
20
1.124
0
VERTEX
8
CONTOURS_MINEURES
10
22.331
20
1.665
0
VERTEX
8
CONTOURS_MINEURES
10
23.999
20
2.025
0
VERTEX
8
CONTOURS_MINEURES
10
24.973
20
2.025
0
VERTEX
8
CONTOURS_MINEURES
10
27.002
20
2.025
0
VERTEX
8
CONTOURS_MINEURES
10
29.496
20
2.497
0
VERTEX
8
CONTOURS_MINEURES
10
29.995
20
2.592
0
VERTEX
8
CONTOURS_MINEURES
10
30.329
20
2.664
0
VERTEX
8
CONTOURS_MINEURES
10
31.360
20
2.997
0
VERTEX
8
CONTOURS_MINEURES
10
31.360
20
4.637
0
VERTEX
8
CONTOURS_MINEURES
10
31.360
20
6.003
0
VERTEX
8
CONTOURS_MINEURES
10
32.998
20
6.902
0
VERTEX
8
CONTOURS_MINEURES
10
33.899
20
6.902
0
VERTEX
8
CONTOURS_MINEURES
10
36.001
20
6.902
0
VERTEX
8
CONTOURS_MINEURES
10
38.629
20
8.999
0
VERTEX
8
CONTOURS_MINEURES
10
38.629
20
9.374
0
VERTEX
8
CONTOURS_MINEURES
10
38.629
20
11.995
0
VERTEX
8
CONTOURS_MINEURES
10
39.005
20
12.157
0
VERTEX
8
CONTOURS_MINEURES
10
39.244
20
12.235
0
VERTEX
8
CONTOURS_MINEURES
10
41.997
20
12.532
0
VERTEX
8
CONTOURS_MINEURES
10
44.464
20
12.532
0
VERTEX
8
CONTOURS_MINEURES
10
45.000
20
12.532
0
VERTEX
8
CONTOURS_MINEURES
10
47.467
20
12.532
0
VERTEX
8
CONTOURS_MINEURES
10
48.003
20
12.711
0
VERTEX
8
CONTOURS_MINEURES
10
48.684
20
12.678
0
VERTEX
8
CONTOURS_MINEURES
10
50.996
20
12.678
0
VERTEX
8
CONTOURS_MINEURES
10
51.679
20
12.678
0
VERTEX
8
CONTOURS_MINEURES
10
53.999
20
12.678
0
VERTEX
8
CONTOURS_MINEURES
10
56.219
20
12.779
0
VERTEX
8
CONTOURS_MINEURES
10
57.002
20
12.779
0
VERTEX
8
CONTOURS_MINEURES
10
58.285
20
13.283
0
VERTEX
8
CONTOURS_MINEURES
10
59.995
20
13.498
0
VERTEX
8
CONTOURS_MINEURES
10
61.496
20
13.498
0
VERTEX
8
CONTOURS_MINEURES
10
62.998
20
13.498
0
VERTEX
8
CONTOURS_MINEURES
10
64.142
20
15.001
0
VERTEX
8
CONTOURS_MINEURES
10
64.227
20
16.772
0
VERTEX
8
CONTOURS_MINEURES
10
64.350
20
17.997
0
VERTEX
8
CONTOURS_MINEURES
10
64.350
20
19.350
0
VERTEX
8
CONTOURS_MINEURES
10
64.350
20
21.004
0
VERTEX
8
CONTOURS_MINEURES
10
64.862
20
22.140
0
VERTEX
8
CONTOURS_MINEURES
10
66.001
20
22.942
0
VERTEX
8
CONTOURS_MINEURES
10
67.803
20
23.999
0
VERTEX
8
CONTOURS_MINEURES
10
68.560
20
24.443
0
VERTEX
8
CONTOURS_MINEURES
10
69.004
20
24.479
0
VERTEX
8
CONTOURS_MINEURES
10
69.483
20
24.479
0
VERTEX
8
CONTOURS_MINEURES
10
71.997
20
24.479
0
VERTEX
8
CONTOURS_MINEURES
10
73.430
20
25.565
0
VERTEX
8
CONTOURS_MINEURES
10
75.000
20
26.755
0
VERTEX
8
CONTOURS_MINEURES
10
75.177
20
26.995
0
VERTEX
8
CONTOURS_MINEURES
10
75.177
20
29.825
0
VERTEX
8
CONTOURS_MINEURES
10
75.177
20
30.002
0
VERTEX
8
CONTOURS_MINEURES
10
76.287
20
31.713
0
VERTEX
8
CONTOURS_MINEURES
10
76.287
20
32.997
0
VERTEX
8
CONTOURS_MINEURES
10
77.403
20
35.403
0
VERTEX
8
CONTOURS_MINEURES
10
77.650
20
36.004
0
VERTEX
8
CONTOURS_MINEURES
10
77.650
20
36.356
0
VERTEX
8
CONTOURS_MINEURES
10
77.650
20
39.000
0
VERTEX
8
CONTOURS_MINEURES
10
78.003
20
39.326
0
VERTEX
8
CONTOURS_MINEURES
10
80.669
20
39.326
0
VERTEX
8
CONTOURS_MINEURES
10
80.996
20
39.326
0
VERTEX
8
CONTOURS_MINEURES
10
83.192
20
41.995
0
VERTEX
8
CONTOURS_MINEURES
10
83.192
20
44.194
0
VERTEX
8
CONTOURS_MINEURES
10
83.192
20
45.002
0
VERTEX
8
CONTOURS_MINEURES
10
83.999
20
46.588
0
VERTEX
8
CONTOURS_MINEURES
10
84.527
20
47.471
0
VERTEX
8
CONTOURS_MINEURES
10
84.623
20
47.998
0
VERTEX
8
CONTOURS_MINEURES
10
84.906
20
48.905
0
VERTEX
8
CONTOURS_MINEURES
10
85.559
20
51.004
0
VERTEX
8
CONTOURS_MINEURES
10
85.559
20
52.560
0
VERTEX
8
CONTOURS_MINEURES
10
85.559
20
54.000
0
VERTEX
8
CONTOURS_MINEURES
10
85.668
20
55.664
0
VERTEX
8
CONTOURS_MINEURES
10
84.958
20
56.996
0
VERTEX
8
CONTOURS_MINEURES
10
85.668
20
58.666
0
VERTEX
8
CONTOURS_MINEURES
10
84.750
20
60.002
0
VERTEX
8
CONTOURS_MINEURES
10
84.750
20
62.249
0
VERTEX
8
CONTOURS_MINEURES
10
84.750
20
62.998
0
VERTEX
8
CONTOURS_MINEURES
10
87.002
20
65.120
0
VERTEX
8
CONTOURS_MINEURES
10
87.882
20
65.120
0
VERTEX
8
CONTOURS_MINEURES
10
89.995
20
65.120
0
VERTEX
8
CONTOURS_MINEURES
10
90.595
20
66.005
0
VERTEX
8
CONTOURS_MINEURES
10
90.595
20
68.401
0
VERTEX
8
CONTOURS_MINEURES
10
90.595
20
69.000
0
VERTEX
8
CONTOURS_MINEURES
10
92.998
20
70.762
0
VERTEX
8
CONTOURS_MINEURES
10
93.607
20
71.388
0
VERTEX
8
CONTOURS_MINEURES
10
93.976
20
71.996
0
VERTEX
8
CONTOURS_MINEURES
10
96.001
20
74.418
0
VERTEX
8
CONTOURS_MINEURES
10
98.420
20
74.418
0
VERTEX
8
CONTOURS_MINEURES
10
99.004
20
74.418
0
VERTEX
8
CONTOURS_MINEURES
10
99.432
20
75.002
0
VERTEX
8
CONTOURS_MINEURES
10
99.432
20
77.570
0
VERTEX
8
CONTOURS_MINEURES
10
99.432
20
77.998
0
VERTEX
8
CONTOURS_MINEURES
10
100.501
20
79.501
0
VERTEX
8
CONTOURS_MINEURES
10
101.446
20
81.005
0
VERTEX
8
CONTOURS_MINEURES
10
101.275
20
81.728
0
VERTEX
8
CONTOURS_MINEURES
10
100.999
20
84.000
0
VERTEX
8
CONTOURS_MINEURES
10
100.999
20
85.998
0
VERTEX
8
CONTOURS_MINEURES
10
100.999
20
86.996
0
VERTEX
8
CONTOURS_MINEURES
10
99.004
20
88.942
0
VERTEX
8
CONTOURS_MINEURES
10
97.944
20
88.942
0
VERTEX
8
CONTOURS_MINEURES
10
96.001
20
88.942
0
VERTEX
8
CONTOURS_MINEURES
10
94.972
20
90.003
0
VERTEX
8
CONTOURS_MINEURES
10
93.971
20
90.973
0
VERTEX
8
CONTOURS_MINEURES
10
92.998
20
91.354
0
VERTEX
8
CONTOURS_MINEURES
10
90.725
20
92.998
0
VERTEX
8
CONTOURS_MINEURES
10
90.725
20
93.730
0
VERTEX
8
CONTOURS_MINEURES
10
90.725
20
96.005
0
VERTEX
8
CONTOURS_MINEURES
10
90.525
20
96.534
0
VERTEX
8
CONTOURS_MINEURES
10
89.995
20
96.579
0
VERTEX
8
CONTOURS_MINEURES
10
89.422
20
96.579
0
VERTEX
8
CONTOURS_MINEURES
10
87.002
20
96.579
0
VERTEX
8
CONTOURS_MINEURES
10
85.936
20
97.937
0
VERTEX
8
CONTOURS_MINEURES
10
83.999
20
98.437
0
VERTEX
8
CONTOURS_MINEURES
10
83.691
20
98.693
0
VERTEX
8
CONTOURS_MINEURES
10
83.271
20
99.001
0
VERTEX
8
CONTOURS_MINEURES
10
83.271
20
101.270
0
VERTEX
8
CONTOURS_MINEURES
10
83.271
20
101.996
0
VERTEX
8
CONTOURS_MINEURES
10
82.977
20
103.020
0
VERTEX
8
CONTOURS_MINEURES
10
82.574
20
105.003
0
VERTEX
8
CONTOURS_MINEURES
10
83.383
20
107.384
0
VERTEX
8
CONTOURS_MINEURES
10
83.629
20
107.999
0
VERTEX
8
CONTOURS_MINEURES
10
83.629
20
110.635
0
VERTEX
8
CONTOURS_MINEURES
10
83.629
20
111.005
0
VERTEX
8
CONTOURS_MINEURES
10
83.674
20
111.329
0
VERTEX
8
CONTOURS_MINEURES
10
83.999
20
112.503
0
VERTEX
8
CONTOURS_MINEURES
10
84.480
20
114.001
0
VERTEX
8
CONTOURS_MINEURES
10
84.069
20
116.927
0
VERTEX
8
CONTOURS_MINEURES
10
84.090
20
116.997
0
VERTEX
8
CONTOURS_MINEURES
10
84.090
20
117.088
0
VERTEX
8
CONTOURS_MINEURES
10
84.090
20
120.003
0
VERTEX
8
CONTOURS_MINEURES
10
84.249
20
120.253
0
VERTEX
8
CONTOURS_MINEURES
10
85.167
20
122.999
0
VERTEX
8
CONTOURS_MINEURES
10
85.167
20
124.830
0
VERTEX
8
CONTOURS_MINEURES
10
85.167
20
125.995
0
VERTEX
8
CONTOURS_MINEURES
10
86.109
20
126.888
0
VERTEX
8
CONTOURS_MINEURES
10
87.002
20
127.061
0
VERTEX
8
CONTOURS_MINEURES
10
88.064
20
127.061
0
VERTEX
8
CONTOURS_MINEURES
10
89.995
20
127.061
0
VERTEX
8
CONTOURS_MINEURES
10
92.060
20
128.062
0
VERTEX
8
CONTOURS_MINEURES
10
92.998
20
128.375
0
VERTEX
8
CONTOURS_MINEURES
10
93.415
20
128.584
0
VERTEX
8
CONTOURS_MINEURES
10
93.937
20
129.001
0
SEQEND
0
POLYLINE
8
CONTOURS_MINEURES
66
1
70
0
0
VERTEX
8
CONTOURS_MINEURES
10
-0.005
20
12.579
0
VERTEX
8
CONTOURS_MINEURES
10
2.414
20
12.579
0
VERTEX
8
CONTOURS_MINEURES
10
2.998
20
12.579
0
VERTEX
8
CONTOURS_MINEURES
10
4.235
20
13.233
0
VERTEX
8
CONTOURS_MINEURES
10
6.001
20
13.965
0
VERTEX
8
CONTOURS_MINEURES
10
8.482
20
14.478
0
VERTEX
8
CONTOURS_MINEURES
10
9.005
20
14.658
0
VERTEX
8
CONTOURS_MINEURES
10
9.347
20
14.658
0
VERTEX
8
CONTOURS_MINEURES
10
11.997
20
14.658
0
VERTEX
8
CONTOURS_MINEURES
10
13.089
20
15.001
0
VERTEX
8
CONTOURS_MINEURES
10
15.000
20
15.618
0
VERTEX
8
CONTOURS_MINEURES
10
17.385
20
15.618
0
VERTEX
8
CONTOURS_MINEURES
10
18.004
20
15.618
0
VERTEX
8
CONTOURS_MINEURES
10
20.130
20
15.869
0
VERTEX
8
CONTOURS_MINEURES
10
20.996
20
15.917
0
VERTEX
8
CONTOURS_MINEURES
10
22.267
20
16.269
0
VERTEX
8
CONTOURS_MINEURES
10
23.999
20
16.635
0
VERTEX
8
CONTOURS_MINEURES
10
25.364
20
16.635
0
VERTEX
8
CONTOURS_MINEURES
10
27.002
20
16.635
0
VERTEX
8
CONTOURS_MINEURES
10
29.496
20
17.997
0
VERTEX
8
CONTOURS_MINEURES
10
29.496
20
18.498
0
VERTEX
8
CONTOURS_MINEURES
10
29.496
20
21.004
0
VERTEX
8
CONTOURS_MINEURES
10
29.995
20
21.285
0
VERTEX
8
CONTOURS_MINEURES
10
31.608
20
22.391
0
VERTEX
8
CONTOURS_MINEURES
10
32.998
20
23.678
0
VERTEX
8
CONTOURS_MINEURES
10
33.320
20
23.678
0
VERTEX
8
CONTOURS_MINEURES
10
36.001
20
23.678
0
VERTEX
8
CONTOURS_MINEURES
10
37.503
20
23.999
0
VERTEX
8
CONTOURS_MINEURES
10
39.005
20
24.561
0
VERTEX
8
CONTOURS_MINEURES
10
40.183
20
25.815
0
VERTEX
8
CONTOURS_MINEURES
10
40.857
20
26.995
0
VERTEX
8
CONTOURS_MINEURES
10
40.857
20
28.856
0
VERTEX
8
CONTOURS_MINEURES
10
40.857
20
30.002
0
VERTEX
8
CONTOURS_MINEURES
10
41.997
20
32.180
0
VERTEX
8
CONTOURS_MINEURES
10
42.816
20
32.180
0
VERTEX
8
CONTOURS_MINEURES
10
45.000
20
32.180
0
VERTEX
8
CONTOURS_MINEURES
10
45.410
20
32.589
0
VERTEX
8
CONTOURS_MINEURES
10
45.751
20
32.997
0
VERTEX
8
CONTOURS_MINEURES
10
48.003
20
33.817
0
VERTEX
8
CONTOURS_MINEURES
10
49.945
20
34.054
0
VERTEX
8
CONTOURS_MINEURES
10
50.996
20
34.501
0
VERTEX
8
CONTOURS_MINEURES
10
52.498
20
34.501
0
VERTEX
8
CONTOURS_MINEURES
10
53.999
20
34.501
0
VERTEX
8
CONTOURS_MINEURES
10
57.002
20
36.004
0
VERTEX
8
CONTOURS_MINEURES
10
57.002
20
39.000
0
VERTEX
8
CONTOURS_MINEURES
10
58.427
20
41.995
0
VERTEX
8
CONTOURS_MINEURES
10
58.427
20
43.427
0
VERTEX
8
CONTOURS_MINEURES
10
58.427
20
45.002
0
VERTEX
8
CONTOURS_MINEURES
10
57.002
20
46.500
0
VERTEX
8
CONTOURS_MINEURES
10
56.304
20
47.301
0
VERTEX
8
CONTOURS_MINEURES
10
56.092
20
47.998
0
VERTEX
8
CONTOURS_MINEURES
10
53.999
20
50.559
0
VERTEX
8
CONTOURS_MINEURES
10
53.554
20
50.559
0
VERTEX
8
CONTOURS_MINEURES
10
50.996
20
50.559
0
VERTEX
8
CONTOURS_MINEURES
10
50.830
20
50.837
0
VERTEX
8
CONTOURS_MINEURES
10
50.747
20
51.004
0
VERTEX
8
CONTOURS_MINEURES
10
50.747
20
51.254
0
VERTEX
8
CONTOURS_MINEURES
10
50.747
20
54.000
0
VERTEX
8
CONTOURS_MINEURES
10
50.846
20
54.150
0
VERTEX
8
CONTOURS_MINEURES
10
50.996
20
54.998
0
VERTEX
8
CONTOURS_MINEURES
10
51.997
20
54.998
0
VERTEX
8
CONTOURS_MINEURES
10
53.999
20
54.998
0
VERTEX
8
CONTOURS_MINEURES
10
54.960
20
56.037
0
VERTEX
8
CONTOURS_MINEURES
10
55.200
20
56.996
0
VERTEX
8
CONTOURS_MINEURES
10
57.002
20
58.383
0
VERTEX
8
CONTOURS_MINEURES
10
58.399
20
60.002
0
VERTEX
8
CONTOURS_MINEURES
10
58.399
20
61.400
0
VERTEX
8
CONTOURS_MINEURES
10
58.399
20
62.998
0
VERTEX
8
CONTOURS_MINEURES
10
59.389
20
63.607
0
VERTEX
8
CONTOURS_MINEURES
10
59.995
20
63.923
0
VERTEX
8
CONTOURS_MINEURES
10
62.074
20
63.923
0
VERTEX
8
CONTOURS_MINEURES
10
62.998
20
63.923
0
VERTEX
8
CONTOURS_MINEURES
10
64.066
20
64.067
0
VERTEX
8
CONTOURS_MINEURES
10
66.001
20
64.359
0
VERTEX
8
CONTOURS_MINEURES
10
68.254
20
65.253
0
VERTEX
8
CONTOURS_MINEURES
10
69.004
20
65.002
0
VERTEX
8
CONTOURS_MINEURES
10
70.002
20
65.002
0
VERTEX
8
CONTOURS_MINEURES
10
71.997
20
65.002
0
VERTEX
8
CONTOURS_MINEURES
10
72.748
20
65.253
0
VERTEX
8
CONTOURS_MINEURES
10
72.748
20
66.005
0
VERTEX
8
CONTOURS_MINEURES
10
72.748
20
68.251
0
VERTEX
8
CONTOURS_MINEURES
10
72.748
20
69.000
0
VERTEX
8
CONTOURS_MINEURES
10
75.000
20
71.397
0
VERTEX
8
CONTOURS_MINEURES
10
75.601
20
71.996
0
VERTEX
8
CONTOURS_MINEURES
10
78.003
20
75.002
0
VERTEX
8
CONTOURS_MINEURES
10
80.996
20
75.002
0
VERTEX
8
CONTOURS_MINEURES
10
80.996
20
77.998
0
VERTEX
8
CONTOURS_MINEURES
10
83.460
20
78.538
0
VERTEX
8
CONTOURS_MINEURES
10
83.999
20
78.778
0
VERTEX
8
CONTOURS_MINEURES
10
85.819
20
81.005
0
VERTEX
8
CONTOURS_MINEURES
10
86.073
20
81.932
0
VERTEX
8
CONTOURS_MINEURES
10
86.561
20
84.000
0
VERTEX
8
CONTOURS_MINEURES
10
86.561
20
86.556
0
VERTEX
8
CONTOURS_MINEURES
10
86.561
20
86.996
0
VERTEX
8
CONTOURS_MINEURES
10
85.427
20
88.425
0
VERTEX
8
CONTOURS_MINEURES
10
85.401
20
90.003
0
VERTEX
8
CONTOURS_MINEURES
10
83.999
20
91.424
0
VERTEX
8
CONTOURS_MINEURES
10
83.104
20
92.105
0
VERTEX
8
CONTOURS_MINEURES
10
82.688
20
92.998
0
VERTEX
8
CONTOURS_MINEURES
10
82.688
20
94.311
0
VERTEX
8
CONTOURS_MINEURES
10
82.688
20
96.005
0
VERTEX
8
CONTOURS_MINEURES
10
81.766
20
96.773
0
VERTEX
8
CONTOURS_MINEURES
10
80.996
20
97.336
0
VERTEX
8
CONTOURS_MINEURES
10
79.333
20
97.336
0
VERTEX
8
CONTOURS_MINEURES
10
78.003
20
97.336
0
VERTEX
8
CONTOURS_MINEURES
10
75.946
20
99.001
0
VERTEX
8
CONTOURS_MINEURES
10
75.946
20
99.945
0
VERTEX
8
CONTOURS_MINEURES
10
75.946
20
101.996
0
VERTEX
8
CONTOURS_MINEURES
10
75.000
20
103.605
0
VERTEX
8
CONTOURS_MINEURES
10
73.570
20
105.003
0
VERTEX
8
CONTOURS_MINEURES
10
72.389
20
107.608
0
VERTEX
8
CONTOURS_MINEURES
10
72.816
20
107.999
0
VERTEX
8
CONTOURS_MINEURES
10
72.816
20
108.819
0
VERTEX
8
CONTOURS_MINEURES
10
72.816
20
111.005
0
VERTEX
8
CONTOURS_MINEURES
10
72.998
20
112.004
0
VERTEX
8
CONTOURS_MINEURES
10
71.997
20
114.001
0
VERTEX
8
CONTOURS_MINEURES
10
69.004
20
114.001
0
VERTEX
8
CONTOURS_MINEURES
10
66.001
20
113.370
0
VERTEX
8
CONTOURS_MINEURES
10
65.761
20
113.761
0
VERTEX
8
CONTOURS_MINEURES
10
62.998
20
113.937
0
VERTEX
8
CONTOURS_MINEURES
10
60.059
20
113.937
0
VERTEX
8
CONTOURS_MINEURES
10
59.995
20
113.937
0
VERTEX
8
CONTOURS_MINEURES
10
59.837
20
114.001
0
VERTEX
8
CONTOURS_MINEURES
10
58.541
20
115.542
0
VERTEX
8
CONTOURS_MINEURES
10
57.002
20
116.997
0
VERTEX
8
CONTOURS_MINEURES
10
57.002
20
120.003
0
VERTEX
8
CONTOURS_MINEURES
10
56.627
20
122.625
0
VERTEX
8
CONTOURS_MINEURES
10
53.999
20
121.401
0
VERTEX
8
CONTOURS_MINEURES
10
52.397
20
121.401
0
VERTEX
8
CONTOURS_MINEURES
10
50.996
20
121.401
0
VERTEX
8
CONTOURS_MINEURES
10
49.799
20
122.999
0
VERTEX
8
CONTOURS_MINEURES
10
49.799
20
124.796
0
VERTEX
8
CONTOURS_MINEURES
10
49.799
20
125.995
0
VERTEX
8
CONTOURS_MINEURES
10
50.141
20
126.854
0
VERTEX
8
CONTOURS_MINEURES
10
50.305
20
129.001
0
SEQEND
0
POLYLINE
8
CONTOURS_MINEURES
66
1
70
0
0
VERTEX
8
CONTOURS_MINEURES
10
-0.005
20
23.634
0
VERTEX
8
CONTOURS_MINEURES
10
2.632
20
23.634
0
VERTEX
8
CONTOURS_MINEURES
10
2.998
20
23.634
0
VERTEX
8
CONTOURS_MINEURES
10
3.999
20
23.999
0
VERTEX
8
CONTOURS_MINEURES
10
6.001
20
24.998
0
VERTEX
8
CONTOURS_MINEURES
10
7.466
20
25.534
0
VERTEX
8
CONTOURS_MINEURES
10
9.005
20
26.169
0
VERTEX
8
CONTOURS_MINEURES
10
11.172
20
26.169
0
VERTEX
8
CONTOURS_MINEURES
10
11.997
20
26.169
0
VERTEX
8
CONTOURS_MINEURES
10
12.569
20
26.424
0
VERTEX
8
CONTOURS_MINEURES
10
15.000
20
26.995
0
VERTEX
8
CONTOURS_MINEURES
10
18.004
20
26.995
0
VERTEX
8
CONTOURS_MINEURES
10
18.004
20
30.002
0
VERTEX
8
CONTOURS_MINEURES
10
20.536
20
30.463
0
VERTEX
8
CONTOURS_MINEURES
10
20.996
20
30.693
0
VERTEX
8
CONTOURS_MINEURES
10
22.798
20
31.799
0
VERTEX
8
CONTOURS_MINEURES
10
23.999
20
32.453
0
VERTEX
8
CONTOURS_MINEURES
10
26.456
20
32.453
0
VERTEX
8
CONTOURS_MINEURES
10
27.002
20
32.453
0
VERTEX
8
CONTOURS_MINEURES
10
27.275
20
32.725
0
VERTEX
8
CONTOURS_MINEURES
10
27.481
20
32.997
0
VERTEX
8
CONTOURS_MINEURES
10
28.763
20
34.235
0
VERTEX
8
CONTOURS_MINEURES
10
29.995
20
35.102
0
VERTEX
8
CONTOURS_MINEURES
10
30.453
20
35.545
0
VERTEX
8
CONTOURS_MINEURES
10
30.840
20
36.004
0
VERTEX
8
CONTOURS_MINEURES
10
30.840
20
36.847
0
VERTEX
8
CONTOURS_MINEURES
10
30.840
20
39.000
0
VERTEX
8
CONTOURS_MINEURES
10
32.998
20
40.722
0
VERTEX
8
CONTOURS_MINEURES
10
34.275
20
40.722
0
VERTEX
8
CONTOURS_MINEURES
10
36.001
20
40.722
0
VERTEX
8
CONTOURS_MINEURES
10
36.752
20
41.246
0
VERTEX
8
CONTOURS_MINEURES
10
37.703
20
41.995
0
VERTEX
8
CONTOURS_MINEURES
10
37.703
20
43.298
0
VERTEX
8
CONTOURS_MINEURES
10
37.703
20
45.002
0
VERTEX
8
CONTOURS_MINEURES
10
39.005
20
46.219
0
VERTEX
8
CONTOURS_MINEURES
10
40.165
20
46.836
0
VERTEX
8
CONTOURS_MINEURES
10
41.997
20
47.645
0
VERTEX
8
CONTOURS_MINEURES
10
44.647
20
47.645
0
VERTEX
8
CONTOURS_MINEURES
10
45.000
20
47.645
0
VERTEX
8
CONTOURS_MINEURES
10
45.334
20
47.998
0
VERTEX
8
CONTOURS_MINEURES
10
46.402
20
49.601
0
VERTEX
8
CONTOURS_MINEURES
10
46.001
20
51.004
0
VERTEX
8
CONTOURS_MINEURES
10
46.001
20
52.003
0
VERTEX
8
CONTOURS_MINEURES
10
46.001
20
54.000
0
VERTEX
8
CONTOURS_MINEURES
10
46.617
20
55.613
0
VERTEX
8
CONTOURS_MINEURES
10
47.124
20
56.996
0
VERTEX
8
CONTOURS_MINEURES
10
47.371
20
57.629
0
VERTEX
8
CONTOURS_MINEURES
10
48.003
20
58.308
0
VERTEX
8
CONTOURS_MINEURES
10
49.257
20
60.002
0
VERTEX
8
CONTOURS_MINEURES
10
49.257
20
61.743
0
VERTEX
8
CONTOURS_MINEURES
10
49.257
20
62.998
0
VERTEX
8
CONTOURS_MINEURES
10
50.996
20
65.307
0
VERTEX
8
CONTOURS_MINEURES
10
51.693
20
65.307
0
VERTEX
8
CONTOURS_MINEURES
10
53.999
20
65.307
0
VERTEX
8
CONTOURS_MINEURES
10
54.780
20
66.005
0
VERTEX
8
CONTOURS_MINEURES
10
54.780
20
68.221
0
VERTEX
8
CONTOURS_MINEURES
10
54.780
20
69.000
0
VERTEX
8
CONTOURS_MINEURES
10
57.002
20
70.879
0
VERTEX
8
CONTOURS_MINEURES
10
57.768
20
71.229
0
VERTEX
8
CONTOURS_MINEURES
10
58.883
20
71.996
0
VERTEX
8
CONTOURS_MINEURES
10
59.995
20
73.559
0
VERTEX
8
CONTOURS_MINEURES
10
61.436
20
73.559
0
VERTEX
8
CONTOURS_MINEURES
10
62.998
20
73.559
0
VERTEX
8
CONTOURS_MINEURES
10
64.440
20
75.002
0
VERTEX
8
CONTOURS_MINEURES
10
64.440
20
76.560
0
VERTEX
8
CONTOURS_MINEURES
10
64.440
20
77.998
0
VERTEX
8
CONTOURS_MINEURES
10
65.572
20
80.575
0
VERTEX
8
CONTOURS_MINEURES
10
65.873
20
81.005
0
VERTEX
8
CONTOURS_MINEURES
10
65.862
20
81.144
0
VERTEX
8
CONTOURS_MINEURES
10
66.001
20
81.320
0
VERTEX
8
CONTOURS_MINEURES
10
67.503
20
82.503
0
VERTEX
8
CONTOURS_MINEURES
10
69.004
20
83.779
0
VERTEX
8
CONTOURS_MINEURES
10
69.226
20
83.779
0
VERTEX
8
CONTOURS_MINEURES
10
71.997
20
83.779
0
VERTEX
8
CONTOURS_MINEURES
10
72.350
20
84.000
0
VERTEX
8
CONTOURS_MINEURES
10
72.350
20
86.644
0
VERTEX
8
CONTOURS_MINEURES
10
72.350
20
86.996
0
VERTEX
8
CONTOURS_MINEURES
10
73.042
20
88.957
0
VERTEX
8
CONTOURS_MINEURES
10
73.999
20
90.003
0
VERTEX
8
CONTOURS_MINEURES
10
74.199
20
90.802
0
VERTEX
8
CONTOURS_MINEURES
10
73.736
20
92.998
0
VERTEX
8
CONTOURS_MINEURES
10
73.736
20
94.739
0
VERTEX
8
CONTOURS_MINEURES
10
73.736
20
96.005
0
VERTEX
8
CONTOURS_MINEURES
10
72.372
20
96.380
0
VERTEX
8
CONTOURS_MINEURES
10
71.997
20
96.974
0
VERTEX
8
CONTOURS_MINEURES
10
69.973
20
96.974
0
VERTEX
8
CONTOURS_MINEURES
10
69.004
20
96.974
0
VERTEX
8
CONTOURS_MINEURES
10
67.565
20
99.001
0
VERTEX
8
CONTOURS_MINEURES
10
67.565
20
100.561
0
VERTEX
8
CONTOURS_MINEURES
10
67.565
20
101.996
0
VERTEX
8
CONTOURS_MINEURES
10
66.001
20
103.470
0
VERTEX
8
CONTOURS_MINEURES
10
64.946
20
103.947
0
VERTEX
8
CONTOURS_MINEURES
10
64.142
20
105.003
0
VERTEX
8
CONTOURS_MINEURES
10
63.474
20
105.478
0
VERTEX
8
CONTOURS_MINEURES
10
62.998
20
105.688
0
VERTEX
8
CONTOURS_MINEURES
10
60.681
20
105.688
0
VERTEX
8
CONTOURS_MINEURES
10
59.995
20
105.688
0
VERTEX
8
CONTOURS_MINEURES
10
58.450
20
106.549
0
VERTEX
8
CONTOURS_MINEURES
10
57.002
20
107.063
0
VERTEX
8
CONTOURS_MINEURES
10
56.064
20
107.063
0
VERTEX
8
CONTOURS_MINEURES
10
55.200
20
107.999
0
VERTEX
8
CONTOURS_MINEURES
10
55.200
20
109.201
0
VERTEX
8
CONTOURS_MINEURES
10
55.200
20
111.005
0
VERTEX
8
CONTOURS_MINEURES
10
54.326
20
111.331
0
VERTEX
8
CONTOURS_MINEURES
10
53.999
20
111.513
0
VERTEX
8
CONTOURS_MINEURES
10
53.490
20
111.513
0
VERTEX
8
CONTOURS_MINEURES
10
50.996
20
111.513
0
VERTEX
8
CONTOURS_MINEURES
10
49.421
20
112.582
0
VERTEX
8
CONTOURS_MINEURES
10
48.003
20
113.402
0
VERTEX
8
CONTOURS_MINEURES
10
47.553
20
113.552
0
VERTEX
8
CONTOURS_MINEURES
10
47.159
20
114.001
0
VERTEX
8
CONTOURS_MINEURES
10
45.000
20
115.603
0
VERTEX
8
CONTOURS_MINEURES
10
43.603
20
115.603
0
VERTEX
8
CONTOURS_MINEURES
10
41.997
20
115.603
0
VERTEX
8
CONTOURS_MINEURES
10
40.947
20
115.946
0
VERTEX
8
CONTOURS_MINEURES
10
39.780
20
116.997
0
VERTEX
8
CONTOURS_MINEURES
10
39.780
20
117.776
0
VERTEX
8
CONTOURS_MINEURES
10
39.780
20
120.003
0
VERTEX
8
CONTOURS_MINEURES
10
39.703
20
120.702
0
VERTEX
8
CONTOURS_MINEURES
10
39.129
20
122.999
0
VERTEX
8
CONTOURS_MINEURES
10
39.129
20
123.124
0
VERTEX
8
CONTOURS_MINEURES
10
39.129
20
125.995
0
VERTEX
8
CONTOURS_MINEURES
10
39.162
20
126.153
0
VERTEX
8
CONTOURS_MINEURES
10
39.005
20
127.498
0
VERTEX
8
CONTOURS_MINEURES
10
38.868
20
128.865
0
VERTEX
8
CONTOURS_MINEURES
10
38.754
20
129.001
0
SEQEND
0
POLYLINE
8
CONTOURS_MINEURES
66
1
70
0
0
VERTEX
8
CONTOURS_MINEURES
10
29.197
20
129.001
0
VERTEX
8
CONTOURS_MINEURES
10
28.222
20
127.776
0
VERTEX
8
CONTOURS_MINEURES
10
27.002
20
127.753
0
VERTEX
8
CONTOURS_MINEURES
10
25.756
20
127.753
0
VERTEX
8
CONTOURS_MINEURES
10
23.999
20
127.753
0
VERTEX
8
CONTOURS_MINEURES
10
23.137
20
126.858
0
VERTEX
8
CONTOURS_MINEURES
10
20.996
20
126.686
0
VERTEX
8
CONTOURS_MINEURES
10
18.518
20
126.512
0
VERTEX
8
CONTOURS_MINEURES
10
18.004
20
126.885
0
VERTEX
8
CONTOURS_MINEURES
10
17.114
20
126.885
0
VERTEX
8
CONTOURS_MINEURES
10
15.000
20
126.885
0
VERTEX
8
CONTOURS_MINEURES
10
13.221
20
127.776
0
VERTEX
8
CONTOURS_MINEURES
10
11.997
20
126.796
0
VERTEX
8
CONTOURS_MINEURES
10
9.803
20
126.796
0
VERTEX
8
CONTOURS_MINEURES
10
9.005
20
126.796
0
VERTEX
8
CONTOURS_MINEURES
10
8.372
20
126.628
0
VERTEX
8
CONTOURS_MINEURES
10
6.602
20
125.995
0
VERTEX
8
CONTOURS_MINEURES
10
6.602
20
123.598
0
VERTEX
8
CONTOURS_MINEURES
10
6.602
20
122.999
0
VERTEX
8
CONTOURS_MINEURES
10
6.001
20
122.823
0
VERTEX
8
CONTOURS_MINEURES
10
3.175
20
122.823
0
VERTEX
8
CONTOURS_MINEURES
10
2.998
20
122.799
0
VERTEX
8
CONTOURS_MINEURES
10
0.195
20
122.799
0
VERTEX
8
CONTOURS_MINEURES
10
-0.005
20
122.799
0
SEQEND
0
POLYLINE
8
CONTOURS_MINEURES
66
1
70
0
0
VERTEX
8
CONTOURS_MINEURES
10
-0.005
20
34.916
0
VERTEX
8
CONTOURS_MINEURES
10
1.081
20
34.916
0
VERTEX
8
CONTOURS_MINEURES
10
2.998
20
34.916
0
VERTEX
8
CONTOURS_MINEURES
10
5.126
20
36.004
0
VERTEX
8
CONTOURS_MINEURES
10
5.126
20
38.126
0
VERTEX
8
CONTOURS_MINEURES
10
5.126
20
39.000
0
VERTEX
8
CONTOURS_MINEURES
10
5.662
20
39.338
0
VERTEX
8
CONTOURS_MINEURES
10
6.001
20
39.551
0
VERTEX
8
CONTOURS_MINEURES
10
7.792
20
40.209
0
VERTEX
8
CONTOURS_MINEURES
10
9.005
20
40.906
0
VERTEX
8
CONTOURS_MINEURES
10
10.909
20
40.906
0
VERTEX
8
CONTOURS_MINEURES
10
11.997
20
40.906
0
VERTEX
8
CONTOURS_MINEURES
10
12.748
20
41.246
0
VERTEX
8
CONTOURS_MINEURES
10
13.894
20
41.995
0
VERTEX
8
CONTOURS_MINEURES
10
13.894
20
43.894
0
VERTEX
8
CONTOURS_MINEURES
10
13.894
20
45.002
0
VERTEX
8
CONTOURS_MINEURES
10
14.543
20
45.458
0
VERTEX
8
CONTOURS_MINEURES
10
15.000
20
45.841
0
VERTEX
8
CONTOURS_MINEURES
10
15.841
20
45.841
0
VERTEX
8
CONTOURS_MINEURES
10
18.004
20
45.841
0
VERTEX
8
CONTOURS_MINEURES
10
19.459
20
46.540
0
VERTEX
8
CONTOURS_MINEURES
10
20.996
20
47.589
0
VERTEX
8
CONTOURS_MINEURES
10
21.747
20
47.998
0
VERTEX
8
CONTOURS_MINEURES
10
23.999
20
49.501
0
VERTEX
8
CONTOURS_MINEURES
10
25.501
20
49.501
0
VERTEX
8
CONTOURS_MINEURES
10
27.002
20
49.501
0
VERTEX
8
CONTOURS_MINEURES
10
28.926
20
51.004
0
VERTEX
8
CONTOURS_MINEURES
10
28.926
20
52.930
0
VERTEX
8
CONTOURS_MINEURES
10
28.926
20
54.000
0
VERTEX
8
CONTOURS_MINEURES
10
29.512
20
54.483
0
VERTEX
8
CONTOURS_MINEURES
10
29.995
20
54.651
0
VERTEX
8
CONTOURS_MINEURES
10
31.224
20
55.770
0
VERTEX
8
CONTOURS_MINEURES
10
32.998
20
56.225
0
VERTEX
8
CONTOURS_MINEURES
10
35.229
20
56.225
0
VERTEX
8
CONTOURS_MINEURES
10
36.001
20
56.225
0
VERTEX
8
CONTOURS_MINEURES
10
36.493
20
56.505
0
VERTEX
8
CONTOURS_MINEURES
10
37.503
20
56.996
0
VERTEX
8
CONTOURS_MINEURES
10
39.005
20
57.584
0
VERTEX
8
CONTOURS_MINEURES
10
40.406
20
58.594
0
VERTEX
8
CONTOURS_MINEURES
10
41.360
20
60.002
0
VERTEX
8
CONTOURS_MINEURES
10
41.360
20
62.360
0
VERTEX
8
CONTOURS_MINEURES
10
41.360
20
62.998
0
VERTEX
8
CONTOURS_MINEURES
10
41.997
20
63.882
0
VERTEX
8
CONTOURS_MINEURES
10
44.117
20
63.882
0
VERTEX
8
CONTOURS_MINEURES
10
45.000
20
63.882
0
VERTEX
8
CONTOURS_MINEURES
10
45.775
20
65.229
0
VERTEX
8
CONTOURS_MINEURES
10
46.442
20
66.005
0
VERTEX
8
CONTOURS_MINEURES
10
46.442
20
67.442
0
VERTEX
8
CONTOURS_MINEURES
10
46.442
20
69.000
0
VERTEX
8
CONTOURS_MINEURES
10
46.802
20
70.198
0
VERTEX
8
CONTOURS_MINEURES
10
47.603
20
71.996
0
VERTEX
8
CONTOURS_MINEURES
10
48.003
20
73.198
0
VERTEX
8
CONTOURS_MINEURES
10
48.460
20
74.544
0
VERTEX
8
CONTOURS_MINEURES
10
48.796
20
75.002
0
VERTEX
8
CONTOURS_MINEURES
10
48.796
20
75.795
0
VERTEX
8
CONTOURS_MINEURES
10
48.796
20
77.998
0
VERTEX
8
CONTOURS_MINEURES
10
48.965
20
78.965
0
VERTEX
8
CONTOURS_MINEURES
10
48.003
20
81.005
0
VERTEX
8
CONTOURS_MINEURES
10
47.523
20
83.521
0
VERTEX
8
CONTOURS_MINEURES
10
47.203
20
84.000
0
VERTEX
8
CONTOURS_MINEURES
10
47.203
20
84.799
0
VERTEX
8
CONTOURS_MINEURES
10
47.203
20
86.996
0
VERTEX
8
CONTOURS_MINEURES
10
46.101
20
88.099
0
VERTEX
8
CONTOURS_MINEURES
10
45.000
20
89.358
0
VERTEX
8
CONTOURS_MINEURES
10
42.641
20
89.358
0
VERTEX
8
CONTOURS_MINEURES
10
41.997
20
89.358
0
VERTEX
8
CONTOURS_MINEURES
10
41.665
20
89.669
0
VERTEX
8
CONTOURS_MINEURES
10
41.498
20
90.003
0
VERTEX
8
CONTOURS_MINEURES
10
39.005
20
91.452
0
VERTEX
8
CONTOURS_MINEURES
10
36.355
20
92.646
0
VERTEX
8
CONTOURS_MINEURES
10
36.001
20
92.799
0
VERTEX
8
CONTOURS_MINEURES
10
35.801
20
92.799
0
VERTEX
8
CONTOURS_MINEURES
10
32.998
20
92.799
0
VERTEX
8
CONTOURS_MINEURES
10
32.862
20
92.862
0
VERTEX
8
CONTOURS_MINEURES
10
32.776
20
92.998
0
VERTEX
8
CONTOURS_MINEURES
10
32.776
20
93.221
0
VERTEX
8
CONTOURS_MINEURES
10
32.776
20
96.005
0
VERTEX
8
CONTOURS_MINEURES
10
31.360
20
97.367
0
VERTEX
8
CONTOURS_MINEURES
10
29.995
20
98.421
0
VERTEX
8
CONTOURS_MINEURES
10
29.396
20
99.001
0
VERTEX
8
CONTOURS_MINEURES
10
29.396
20
101.397
0
VERTEX
8
CONTOURS_MINEURES
10
29.396
20
101.996
0
VERTEX
8
CONTOURS_MINEURES
10
27.751
20
104.251
0
VERTEX
8
CONTOURS_MINEURES
10
27.224
20
105.003
0
VERTEX
8
CONTOURS_MINEURES
10
27.002
20
105.752
0
VERTEX
8
CONTOURS_MINEURES
10
24.750
20
105.752
0
VERTEX
8
CONTOURS_MINEURES
10
23.999
20
105.752
0
VERTEX
8
CONTOURS_MINEURES
10
20.996
20
107.999
0
VERTEX
8
CONTOURS_MINEURES
10
20.996
20
111.005
0
VERTEX
8
CONTOURS_MINEURES
10
20.996
20
107.999
0
VERTEX
8
CONTOURS_MINEURES
10
18.004
20
106.782
0
VERTEX
8
CONTOURS_MINEURES
10
16.220
20
106.782
0
VERTEX
8
CONTOURS_MINEURES
10
15.000
20
106.782
0
VERTEX
8
CONTOURS_MINEURES
10
14.095
20
105.906
0
VERTEX
8
CONTOURS_MINEURES
10
12.283
20
105.003
0
VERTEX
8
CONTOURS_MINEURES
10
12.140
20
104.860
0
VERTEX
8
CONTOURS_MINEURES
10
11.997
20
104.772
0
VERTEX
8
CONTOURS_MINEURES
10
11.767
20
104.772
0
VERTEX
8
CONTOURS_MINEURES
10
9.005
20
104.772
0
VERTEX
8
CONTOURS_MINEURES
10
7.670
20
103.333
0
VERTEX
8
CONTOURS_MINEURES
10
6.001
20
102.426
0
VERTEX
8
CONTOURS_MINEURES
10
4.333
20
101.996
0
VERTEX
8
CONTOURS_MINEURES
10
4.333
20
100.665
0
VERTEX
8
CONTOURS_MINEURES
10
4.333
20
99.001
0
VERTEX
8
CONTOURS_MINEURES
10
3.284
20
98.715
0
VERTEX
8
CONTOURS_MINEURES
10
2.998
20
98.456
0
VERTEX
8
CONTOURS_MINEURES
10
0.541
20
98.456
0
VERTEX
8
CONTOURS_MINEURES
10
-0.005
20
98.456
0
SEQEND
0
POLYLINE
8
CONTOURS_MINEURES
66
1
70
0
0
VERTEX
8
CONTOURS_MINEURES
10
-0.005
20
50.458
0
VERTEX
8
CONTOURS_MINEURES
10
2.452
20
50.458
0
VERTEX
8
CONTOURS_MINEURES
10
2.998
20
50.458
0
VERTEX
8
CONTOURS_MINEURES
10
3.291
20
50.711
0
VERTEX
8
CONTOURS_MINEURES
10
3.705
20
51.004
0
VERTEX
8
CONTOURS_MINEURES
10
3.705
20
51.709
0
VERTEX
8
CONTOURS_MINEURES
10
3.705
20
54.000
0
VERTEX
8
CONTOURS_MINEURES
10
4.917
20
55.082
0
VERTEX
8
CONTOURS_MINEURES
10
6.001
20
55.498
0
VERTEX
8
CONTOURS_MINEURES
10
7.776
20
56.996
0
VERTEX
8
CONTOURS_MINEURES
10
8.274
20
57.727
0
VERTEX
8
CONTOURS_MINEURES
10
9.005
20
58.687
0
VERTEX
8
CONTOURS_MINEURES
10
10.688
20
58.687
0
VERTEX
8
CONTOURS_MINEURES
10
11.997
20
58.687
0
VERTEX
8
CONTOURS_MINEURES
10
12.523
20
59.476
0
VERTEX
8
CONTOURS_MINEURES
10
12.838
20
60.002
0
VERTEX
8
CONTOURS_MINEURES
10
12.838
20
62.159
0
VERTEX
8
CONTOURS_MINEURES
10
12.838
20
62.998
0
VERTEX
8
CONTOURS_MINEURES
10
12.806
20
63.807
0
VERTEX
8
CONTOURS_MINEURES
10
12.806
20
66.005
0
VERTEX
8
CONTOURS_MINEURES
10
12.806
20
66.811
0
VERTEX
8
CONTOURS_MINEURES
10
12.806
20
69.000
0
VERTEX
8
CONTOURS_MINEURES
10
12.407
20
71.587
0
VERTEX
8
CONTOURS_MINEURES
10
12.331
20
71.996
0
VERTEX
8
CONTOURS_MINEURES
10
12.358
20
72.357
0
VERTEX
8
CONTOURS_MINEURES
10
12.641
20
75.002
0
VERTEX
8
CONTOURS_MINEURES
10
12.641
20
77.356
0
VERTEX
8
CONTOURS_MINEURES
10
12.641
20
77.998
0
VERTEX
8
CONTOURS_MINEURES
10
12.718
20
78.720
0
VERTEX
8
CONTOURS_MINEURES
10
12.519
20
81.005
0
VERTEX
8
CONTOURS_MINEURES
10
11.997
20
82.094
0
VERTEX
8
CONTOURS_MINEURES
10
10.093
20
82.094
0
VERTEX
8
CONTOURS_MINEURES
10
9.005
20
82.094
0
VERTEX
8
CONTOURS_MINEURES
10
7.803
20
82.203
0
VERTEX
8
CONTOURS_MINEURES
10
6.001
20
82.618
0
VERTEX
8
CONTOURS_MINEURES
10
3.999
20
82.003
0
VERTEX
8
CONTOURS_MINEURES
10
2.998
20
81.295
0
VERTEX
8
CONTOURS_MINEURES
10
0.286
20
81.295
0
VERTEX
8
CONTOURS_MINEURES
10
-0.005
20
81.295
0
SEQEND
0
POLYLINE
8
CONTOURS_MAJEURES
66
1
70
0
0
VERTEX
8
CONTOURS_MAJEURES
10
184.193
20
0.001
0
VERTEX
8
CONTOURS_MAJEURES
10
185.304
20
2.301
0
VERTEX
8
CONTOURS_MAJEURES
10
185.547
20
2.997
0
VERTEX
8
CONTOURS_MAJEURES
10
185.547
20
3.451
0
VERTEX
8
CONTOURS_MAJEURES
10
185.547
20
6.003
0
VERTEX
8
CONTOURS_MAJEURES
10
186.001
20
6.841
0
VERTEX
8
CONTOURS_MAJEURES
10
186.672
20
8.330
0
VERTEX
8
CONTOURS_MAJEURES
10
188.013
20
8.999
0
VERTEX
8
CONTOURS_MAJEURES
10
188.013
20
11.006
0
VERTEX
8
CONTOURS_MAJEURES
10
188.013
20
11.995
0
VERTEX
8
CONTOURS_MAJEURES
10
187.852
20
13.148
0
VERTEX
8
CONTOURS_MAJEURES
10
189.004
20
13.621
0
VERTEX
8
CONTOURS_MAJEURES
10
190.623
20
13.621
0
VERTEX
8
CONTOURS_MAJEURES
10
191.997
20
13.621
0
VERTEX
8
CONTOURS_MAJEURES
10
193.766
20
13.766
0
VERTEX
8
CONTOURS_MAJEURES
10
195.000
20
14.233
0
VERTEX
8
CONTOURS_MAJEURES
10
195.384
20
14.617
0
VERTEX
8
CONTOURS_MAJEURES
10
196.096
20
15.001
0
VERTEX
8
CONTOURS_MAJEURES
10
198.003
20
16.111
0
SEQEND
0
POLYLINE
8
CONTOURS_MAJEURES
66
1
70
0
0
VERTEX
8
CONTOURS_MAJEURES
10
75.120
20
0.001
0
VERTEX
8
CONTOURS_MAJEURES
10
78.003
20
2.398
0
VERTEX
8
CONTOURS_MAJEURES
10
78.602
20
2.398
0
VERTEX
8
CONTOURS_MAJEURES
10
80.996
20
2.398
0
VERTEX
8
CONTOURS_MAJEURES
10
81.779
20
2.997
0
VERTEX
8
CONTOURS_MAJEURES
10
81.779
20
5.219
0
VERTEX
8
CONTOURS_MAJEURES
10
81.779
20
6.003
0
VERTEX
8
CONTOURS_MAJEURES
10
82.978
20
7.022
0
VERTEX
8
CONTOURS_MAJEURES
10
83.999
20
8.684
0
VERTEX
8
CONTOURS_MAJEURES
10
84.139
20
8.860
0
VERTEX
8
CONTOURS_MAJEURES
10
84.171
20
8.999
0
VERTEX
8
CONTOURS_MAJEURES
10
84.171
20
9.170
0
VERTEX
8
CONTOURS_MAJEURES
10
84.171
20
11.995
0
VERTEX
8
CONTOURS_MAJEURES
10
84.087
20
14.913
0
VERTEX
8
CONTOURS_MAJEURES
10
84.115
20
15.001
0
VERTEX
8
CONTOURS_MAJEURES
10
84.230
20
15.232
0
VERTEX
8
CONTOURS_MAJEURES
10
85.616
20
17.997
0
VERTEX
8
CONTOURS_MAJEURES
10
85.616
20
19.385
0
VERTEX
8
CONTOURS_MAJEURES
10
85.616
20
21.004
0
VERTEX
8
CONTOURS_MAJEURES
10
85.973
20
22.031
0
VERTEX
8
CONTOURS_MAJEURES
10
87.002
20
23.999
0
VERTEX
8
CONTOURS_MAJEURES
10
89.995
20
23.999
0
VERTEX
8
CONTOURS_MAJEURES
10
87.002
20
23.999
0
VERTEX
8
CONTOURS_MAJEURES
10
85.973
20
25.968
0
VERTEX
8
CONTOURS_MAJEURES
10
86.028
20
26.995
0
VERTEX
8
CONTOURS_MAJEURES
10
86.028
20
29.027
0
VERTEX
8
CONTOURS_MAJEURES
10
86.028
20
30.002
0
VERTEX
8
CONTOURS_MAJEURES
10
86.502
20
32.498
0
VERTEX
8
CONTOURS_MAJEURES
10
86.425
20
32.997
0
VERTEX
8
CONTOURS_MAJEURES
10
86.627
20
33.373
0
VERTEX
8
CONTOURS_MAJEURES
10
87.002
20
34.501
0
VERTEX
8
CONTOURS_MAJEURES
10
88.499
20
34.501
0
VERTEX
8
CONTOURS_MAJEURES
10
89.995
20
34.501
0
VERTEX
8
CONTOURS_MAJEURES
10
90.380
20
35.619
0
VERTEX
8
CONTOURS_MAJEURES
10
90.479
20
36.004
0
VERTEX
8
CONTOURS_MAJEURES
10
90.479
20
38.516
0
VERTEX
8
CONTOURS_MAJEURES
10
90.479
20
39.000
0
VERTEX
8
CONTOURS_MAJEURES
10
92.998
20
41.995
0
VERTEX
8
CONTOURS_MAJEURES
10
92.998
20
45.002
0
VERTEX
8
CONTOURS_MAJEURES
10
94.628
20
46.371
0
VERTEX
8
CONTOURS_MAJEURES
10
96.001
20
46.999
0
VERTEX
8
CONTOURS_MAJEURES
10
98.003
20
46.999
0
VERTEX
8
CONTOURS_MAJEURES
10
99.004
20
46.999
0
VERTEX
8
CONTOURS_MAJEURES
10
99.651
20
47.350
0
VERTEX
8
CONTOURS_MAJEURES
10
100.334
20
47.998
0
VERTEX
8
CONTOURS_MAJEURES
10
100.696
20
49.305
0
VERTEX
8
CONTOURS_MAJEURES
10
100.501
20
51.004
0
VERTEX
8
CONTOURS_MAJEURES
10
100.501
20
52.502
0
VERTEX
8
CONTOURS_MAJEURES
10
100.501
20
54.000
0
VERTEX
8
CONTOURS_MAJEURES
10
100.916
20
55.082
0
VERTEX
8
CONTOURS_MAJEURES
10
101.997
20
56.596
0
VERTEX
8
CONTOURS_MAJEURES
10
104.600
20
56.596
0
VERTEX
8
CONTOURS_MAJEURES
10
105.000
20
56.596
0
VERTEX
8
CONTOURS_MAJEURES
10
105.231
20
56.765
0
VERTEX
8
CONTOURS_MAJEURES
10
105.546
20
56.996
0
VERTEX
8
CONTOURS_MAJEURES
10
106.581
20
58.420
0
VERTEX
8
CONTOURS_MAJEURES
10
108.003
20
59.456
0
VERTEX
8
CONTOURS_MAJEURES
10
108.431
20
59.573
0
VERTEX
8
CONTOURS_MAJEURES
10
110.996
20
58.383
0
VERTEX
8
CONTOURS_MAJEURES
10
112.382
20
58.383
0
VERTEX
8
CONTOURS_MAJEURES
10
113.999
20
58.383
0
VERTEX
8
CONTOURS_MAJEURES
10
115.556
20
58.443
0
VERTEX
8
CONTOURS_MAJEURES
10
117.002
20
58.256
0
VERTEX
8
CONTOURS_MAJEURES
10
118.634
20
58.362
0
VERTEX
8
CONTOURS_MAJEURES
10
119.995
20
59.046
0
VERTEX
8
CONTOURS_MAJEURES
10
120.950
20
59.046
0
VERTEX
8
CONTOURS_MAJEURES
10
122.998
20
59.046
0
VERTEX
8
CONTOURS_MAJEURES
10
123.999
20
60.002
0
VERTEX
8
CONTOURS_MAJEURES
10
123.999
20
61.001
0
VERTEX
8
CONTOURS_MAJEURES
10
123.999
20
62.998
0
VERTEX
8
CONTOURS_MAJEURES
10
124.166
20
64.167
0
VERTEX
8
CONTOURS_MAJEURES
10
124.862
20
66.005
0
VERTEX
8
CONTOURS_MAJEURES
10
124.862
20
67.141
0
VERTEX
8
CONTOURS_MAJEURES
10
124.862
20
69.000
0
VERTEX
8
CONTOURS_MAJEURES
10
125.000
20
69.999
0
VERTEX
8
CONTOURS_MAJEURES
10
124.534
20
71.996
0
VERTEX
8
CONTOURS_MAJEURES
10
123.834
20
72.833
0
VERTEX
8
CONTOURS_MAJEURES
10
122.998
20
74.358
0
VERTEX
8
CONTOURS_MAJEURES
10
122.354
20
74.358
0
VERTEX
8
CONTOURS_MAJEURES
10
119.995
20
74.358
0
VERTEX
8
CONTOURS_MAJEURES
10
119.467
20
75.002
0
VERTEX
8
CONTOURS_MAJEURES
10
119.467
20
75.531
0
VERTEX
8
CONTOURS_MAJEURES
10
119.467
20
77.998
0
VERTEX
8
CONTOURS_MAJEURES
10
117.002
20
81.005
0
VERTEX
8
CONTOURS_MAJEURES
10
117.096
20
84.000
0
VERTEX
8
CONTOURS_MAJEURES
10
117.096
20
84.094
0
VERTEX
8
CONTOURS_MAJEURES
10
117.096
20
86.996
0
VERTEX
8
CONTOURS_MAJEURES
10
117.553
20
89.449
0
VERTEX
8
CONTOURS_MAJEURES
10
117.539
20
90.003
0
VERTEX
8
CONTOURS_MAJEURES
10
117.526
20
90.527
0
VERTEX
8
CONTOURS_MAJEURES
10
117.643
20
92.998
0
VERTEX
8
CONTOURS_MAJEURES
10
117.643
20
93.643
0
VERTEX
8
CONTOURS_MAJEURES
10
117.643
20
96.005
0
VERTEX
8
CONTOURS_MAJEURES
10
117.002
20
97.289
0
VERTEX
8
CONTOURS_MAJEURES
10
116.235
20
98.236
0
VERTEX
8
CONTOURS_MAJEURES
10
115.715
20
99.001
0
VERTEX
8
CONTOURS_MAJEURES
10
115.715
20
100.285
0
VERTEX
8
CONTOURS_MAJEURES
10
115.715
20
101.996
0
VERTEX
8
CONTOURS_MAJEURES
10
115.264
20
103.262
0
VERTEX
8
CONTOURS_MAJEURES
10
113.999
20
104.402
0
VERTEX
8
CONTOURS_MAJEURES
10
111.596
20
104.402
0
VERTEX
8
CONTOURS_MAJEURES
10
110.996
20
104.402
0
VERTEX
8
CONTOURS_MAJEURES
10
110.292
20
105.003
0
VERTEX
8
CONTOURS_MAJEURES
10
110.996
20
106.334
0
VERTEX
8
CONTOURS_MAJEURES
10
112.664
20
106.334
0
VERTEX
8
CONTOURS_MAJEURES
10
113.999
20
106.334
0
VERTEX
8
CONTOURS_MAJEURES
10
115.501
20
107.999
0
VERTEX
8
CONTOURS_MAJEURES
10
115.501
20
109.502
0
VERTEX
8
CONTOURS_MAJEURES
10
115.501
20
111.005
0
VERTEX
8
CONTOURS_MAJEURES
10
116.402
20
111.604
0
VERTEX
8
CONTOURS_MAJEURES
10
117.002
20
111.719
0
VERTEX
8
CONTOURS_MAJEURES
10
118.665
20
112.670
0
VERTEX
8
CONTOURS_MAJEURES
10
119.995
20
113.370
0
VERTEX
8
CONTOURS_MAJEURES
10
120.627
20
113.370
0
VERTEX
8
CONTOURS_MAJEURES
10
122.998
20
113.370
0
VERTEX
8
CONTOURS_MAJEURES
10
123.922
20
114.001
0
VERTEX
8
CONTOURS_MAJEURES
10
125.229
20
114.771
0
VERTEX
8
CONTOURS_MAJEURES
10
125.787
20
116.997
0
VERTEX
8
CONTOURS_MAJEURES
10
125.787
20
119.789
0
VERTEX
8
CONTOURS_MAJEURES
10
125.787
20
120.003
0
VERTEX
8
CONTOURS_MAJEURES
10
125.839
20
120.165
0
VERTEX
8
CONTOURS_MAJEURES
10
126.001
20
122.000
0
VERTEX
8
CONTOURS_MAJEURES
10
126.098
20
122.999
0
VERTEX
8
CONTOURS_MAJEURES
10
126.098
20
125.898
0
VERTEX
8
CONTOURS_MAJEURES
10
126.098
20
125.995
0
VERTEX
8
CONTOURS_MAJEURES
10
126.274
20
128.728
0
VERTEX
8
CONTOURS_MAJEURES
10
126.274
20
129.001
0
SEQEND
0
POLYLINE
8
CONTOURS_MAJEURES
66
1
70
0
0
VERTEX
8
CONTOURS_MAJEURES
10
-0.005
20
50.458
0
VERTEX
8
CONTOURS_MAJEURES
10
2.452
20
50.458
0
VERTEX
8
CONTOURS_MAJEURES
10
2.998
20
50.458
0
VERTEX
8
CONTOURS_MAJEURES
10
3.291
20
50.711
0
VERTEX
8
CONTOURS_MAJEURES
10
3.705
20
51.004
0
VERTEX
8
CONTOURS_MAJEURES
10
3.705
20
51.709
0
VERTEX
8
CONTOURS_MAJEURES
10
3.705
20
54.000
0
VERTEX
8
CONTOURS_MAJEURES
10
4.917
20
55.082
0
VERTEX
8
CONTOURS_MAJEURES
10
6.001
20
55.498
0
VERTEX
8
CONTOURS_MAJEURES
10
7.776
20
56.996
0
VERTEX
8
CONTOURS_MAJEURES
10
8.274
20
57.727
0
VERTEX
8
CONTOURS_MAJEURES
10
9.005
20
58.687
0
VERTEX
8
CONTOURS_MAJEURES
10
10.688
20
58.687
0
VERTEX
8
CONTOURS_MAJEURES
10
11.997
20
58.687
0
VERTEX
8
CONTOURS_MAJEURES
10
12.523
20
59.476
0
VERTEX
8
CONTOURS_MAJEURES
10
12.838
20
60.002
0
VERTEX
8
CONTOURS_MAJEURES
10
12.838
20
62.159
0
VERTEX
8
CONTOURS_MAJEURES
10
12.838
20
62.998
0
VERTEX
8
CONTOURS_MAJEURES
10
12.806
20
63.807
0
VERTEX
8
CONTOURS_MAJEURES
10
12.806
20
66.005
0
VERTEX
8
CONTOURS_MAJEURES
10
12.806
20
66.811
0
VERTEX
8
CONTOURS_MAJEURES
10
12.806
20
69.000
0
VERTEX
8
CONTOURS_MAJEURES
10
12.407
20
71.587
0
VERTEX
8
CONTOURS_MAJEURES
10
12.331
20
71.996
0
VERTEX
8
CONTOURS_MAJEURES
10
12.358
20
72.357
0
VERTEX
8
CONTOURS_MAJEURES
10
12.641
20
75.002
0
VERTEX
8
CONTOURS_MAJEURES
10
12.641
20
77.356
0
VERTEX
8
CONTOURS_MAJEURES
10
12.641
20
77.998
0
VERTEX
8
CONTOURS_MAJEURES
10
12.718
20
78.720
0
VERTEX
8
CONTOURS_MAJEURES
10
12.519
20
81.005
0
VERTEX
8
CONTOURS_MAJEURES
10
11.997
20
82.094
0
VERTEX
8
CONTOURS_MAJEURES
10
10.093
20
82.094
0
VERTEX
8
CONTOURS_MAJEURES
10
9.005
20
82.094
0
VERTEX
8
CONTOURS_MAJEURES
10
7.803
20
82.203
0
VERTEX
8
CONTOURS_MAJEURES
10
6.001
20
82.618
0
VERTEX
8
CONTOURS_MAJEURES
10
3.999
20
82.003
0
VERTEX
8
CONTOURS_MAJEURES
10
2.998
20
81.295
0
VERTEX
8
CONTOURS_MAJEURES
10
0.286
20
81.295
0
VERTEX
8
CONTOURS_MAJEURES
10
-0.005
20
81.295
0
SEQEND
0
POLYLINE
8
PARCELLE
66
1
70
1
0
VERTEX
8
PARCELLE
10
58.812
20
77.129
0
VERTEX
8
PARCELLE
10
28.242
20
92.814
0
VERTEX
8
PARCELLE
10
26.466
20
93.286
0
VERTEX
8
PARCELLE
10
24.886
20
93.246
0
VERTEX
8
PARCELLE
10
23.462
20
92.607
0
VERTEX
8
PARCELLE
10
21.565
20
91.501
0
VERTEX
8
PARCELLE
10
20.000
20
90.872
0
VERTEX
8
PARCELLE
10
20.133
20
91.151
0
VERTEX
8
PARCELLE
10
25.753
20
103.091
0
VERTEX
8
PARCELLE
10
28.717
20
109.395
0
VERTEX
8
PARCELLE
10
28.652
20
108.716
0
VERTEX
8
PARCELLE
10
28.525
20
106.379
0
VERTEX
8
PARCELLE
10
29.211
20
104.186
0
VERTEX
8
PARCELLE
10
30.268
20
102.241
0
VERTEX
8
PARCELLE
10
31.629
20
101.062
0
VERTEX
8
PARCELLE
10
62.346
20
85.117
0
VERTEX
8
PARCELLE
10
97.379
20
67.103
0
VERTEX
8
PARCELLE
10
129.109
20
50.182
0
VERTEX
8
PARCELLE
10
157.653
20
35.381
0
VERTEX
8
PARCELLE
10
159.735
20
35.566
0
VERTEX
8
PARCELLE
10
161.827
20
35.901
0
VERTEX
8
PARCELLE
10
163.552
20
35.220
0
VERTEX
8
PARCELLE
10
165.264
20
34.040
0
VERTEX
8
PARCELLE
10
166.674
20
32.551
0
VERTEX
8
PARCELLE
10
167.785
20
31.375
0
VERTEX
8
PARCELLE
10
168.019
20
29.135
0
VERTEX
8
PARCELLE
10
179.712
20
23.930
0
VERTEX
8
PARCELLE
10
178.544
20
22.739
0
VERTEX
8
PARCELLE
10
168.558
20
27.353
0
VERTEX
8
PARCELLE
10
167.986
20
25.678
0
VERTEX
8
PARCELLE
10
167.203
20
23.806
0
VERTEX
8
PARCELLE
10
166.121
20
22.035
0
VERTEX
8
PARCELLE
10
164.383
20
20.937
0
VERTEX
8
PARCELLE
10
161.268
20
20.000
0
VERTEX
8
PARCELLE
10
158.531
20
20.378
0
VERTEX
8
PARCELLE
10
157.249
20
21.576
0
VERTEX
8
PARCELLE
10
156.355
20
22.432
0
VERTEX
8
PARCELLE
10
155.454
20
23.667
0
VERTEX
8
PARCELLE
10
154.658
20
25.750
0
VERTEX
8
PARCELLE
10
153.349
20
27.338
0
VERTEX
8
PARCELLE
10
125.622
20
41.834
0
VERTEX
8
PARCELLE
10
93.626
20
58.038
0
VERTEX
8
PARCELLE
10
58.812
20
77.129
0
SEQEND
0
TEXT
8
POINTS_COTES
10
-0.005
20
0.001
40
1.0
1
26.5
0
TEXT
8
POINTS_COTES
10
39.005
20
6.003
40
1.0
1
25.8
0
TEXT
8
POINTS_COTES
10
78.003
20
11.995
40
1.0
1
25.3
0
TEXT
8
POINTS_COTES
10
117.002
20
17.997
40
1.0
1
23.4
0
TEXT
8
POINTS_COTES
10
156.001
20
23.999
40
1.0
1
22.4
0
TEXT
8
POINTS_COTES
10
195.000
20
30.002
40
1.0
1
20.8
0
TEXT
8
POINTS_COTES
10
32.998
20
39.000
40
1.0
1
27.8
0
TEXT
8
POINTS_COTES
10
71.997
20
45.002
40
1.0
1
26.7
0
TEXT
8
POINTS_COTES
10
110.996
20
51.004
40
1.0
1
24.7
0
TEXT
8
POINTS_COTES
10
150.005
20
56.996
40
1.0
1
23.5
0
TEXT
8
POINTS_COTES
10
189.004
20
62.998
40
1.0
1
21.3
0
TEXT
8
POINTS_COTES
10
27.002
20
71.996
40
1.0
1
29.6
0
TEXT
8
POINTS_COTES
10
66.001
20
77.998
40
1.0
1
27.9
0
TEXT
8
POINTS_COTES
10
105.000
20
84.000
40
1.0
1
25.9
0
TEXT
8
POINTS_COTES
10
143.999
20
90.003
40
1.0
1
23.3
0
TEXT
8
POINTS_COTES
10
182.998
20
96.005
40
1.0
1
22.5
0
TEXT
8
POINTS_COTES
10
20.996
20
105.003
40
1.0
1
29.2
0
TEXT
8
POINTS_COTES
10
59.995
20
111.005
40
1.0
1
27.5
0
TEXT
8
POINTS_COTES
10
99.004
20
116.997
40
1.0
1
25.4
0
TEXT
8
POINTS_COTES
10
138.003
20
122.999
40
1.0
1
24.2
0
TEXT
8
POINTS_COTES
10
177.002
20
129.001
40
1.0
1
23.4
0
ENDSEC
0
EOF
