0
SECTION
2
HEADER
0
ENDSEC
0
SECTION
2
TABLES
0
TABLE
2
LAYER
70
4
0
LAYER
2
CONTOURS_MINEURES
70
0
62
8
6
CONTINUOUS
0
LAYER
2
CONTOURS_MAJEURES
70
0
62
3
6
CONTINUOUS
0
LAYER
2
PARCELLE
70
0
62
4
6
CONTINUOUS
0
LAYER
2
POINTS_COTES
70
0
62
7
6
CONTINUOUS
0
ENDTAB
0
ENDSEC
0
SECTION
2
ENTITIES
0
POLYLINE
8
CONTOURS_MINEURES
66
1
70
0
0
VERTEX
8
CONTOURS_MINEURES
10
-0.004
20
155.124
0
VERTEX
8
CONTOURS_MINEURES
10
0.027
20
155.035
0
VERTEX
8
CONTOURS_MINEURES
10
0.034
20
155.004
0
VERTEX
8
CONTOURS_MINEURES
10
0.037
20
154.962
0
VERTEX
8
CONTOURS_MINEURES
10
0.812
20
149.996
0
VERTEX
8
CONTOURS_MINEURES
10
1.272
20
146.275
0
VERTEX
8
CONTOURS_MINEURES
10
1.366
20
145.000
0
VERTEX
8
CONTOURS_MINEURES
10
1.918
20
143.079
0
VERTEX
8
CONTOURS_MINEURES
10
2.065
20
140.003
0
VERTEX
8
CONTOURS_MINEURES
10
1.008
20
136.010
0
VERTEX
8
CONTOURS_MINEURES
10
2.029
20
134.996
0
VERTEX
8
CONTOURS_MINEURES
10
0.818
20
134.174
0
VERTEX
8
CONTOURS_MINEURES
10
-0.004
20
134.246
0
SEQEND
0
POLYLINE
8
CONTOURS_MINEURES
66
1
70
0
0
VERTEX
8
CONTOURS_MINEURES
10
-0.004
20
162.145
0
VERTEX
8
CONTOURS_MINEURES
10
0.600
20
160.604
0
VERTEX
8
CONTOURS_MINEURES
10
1.096
20
160.000
0
VERTEX
8
CONTOURS_MINEURES
10
2.098
20
157.104
0
VERTEX
8
CONTOURS_MINEURES
10
2.566
20
155.004
0
VERTEX
8
CONTOURS_MINEURES
10
2.801
20
152.196
0
VERTEX
8
CONTOURS_MINEURES
10
3.144
20
149.996
0
VERTEX
8
CONTOURS_MINEURES
10
3.348
20
148.348
0
VERTEX
8
CONTOURS_MINEURES
10
3.594
20
145.000
0
VERTEX
8
CONTOURS_MINEURES
10
4.998
20
140.120
0
VERTEX
8
CONTOURS_MINEURES
10
5.089
20
140.003
0
VERTEX
8
CONTOURS_MINEURES
10
7.196
20
137.196
0
VERTEX
8
CONTOURS_MINEURES
10
8.825
20
134.996
0
VERTEX
8
CONTOURS_MINEURES
10
8.023
20
131.974
0
VERTEX
8
CONTOURS_MINEURES
10
4.998
20
131.490
0
VERTEX
8
CONTOURS_MINEURES
10
4.109
20
130.887
0
VERTEX
8
CONTOURS_MINEURES
10
-0.004
20
131.245
0
SEQEND
0
POLYLINE
8
CONTOURS_MINEURES
66
1
70
0
0
VERTEX
8
CONTOURS_MINEURES
10
-0.004
20
168.994
0
VERTEX
8
CONTOURS_MINEURES
10
1.007
20
164.996
0
VERTEX
8
CONTOURS_MINEURES
10
2.130
20
162.132
0
VERTEX
8
CONTOURS_MINEURES
10
3.883
20
160.000
0
VERTEX
8
CONTOURS_MINEURES
10
4.169
20
159.172
0
VERTEX
8
CONTOURS_MINEURES
10
4.998
20
155.458
0
VERTEX
8
CONTOURS_MINEURES
10
5.199
20
155.204
0
VERTEX
8
CONTOURS_MINEURES
10
5.237
20
155.004
0
VERTEX
8
CONTOURS_MINEURES
10
5.299
20
154.702
0
VERTEX
8
CONTOURS_MINEURES
10
6.233
20
149.996
0
VERTEX
8
CONTOURS_MINEURES
10
6.862
20
148.134
0
VERTEX
8
CONTOURS_MINEURES
10
7.586
20
145.000
0
VERTEX
8
CONTOURS_MINEURES
10
10.000
20
141.778
0
VERTEX
8
CONTOURS_MINEURES
10
11.712
20
140.003
0
VERTEX
8
CONTOURS_MINEURES
10
13.442
20
138.441
0
VERTEX
8
CONTOURS_MINEURES
10
14.911
20
134.996
0
VERTEX
8
CONTOURS_MINEURES
10
14.877
20
134.871
0
VERTEX
8
CONTOURS_MINEURES
10
15.002
20
134.831
0
VERTEX
8
CONTOURS_MINEURES
10
17.860
20
132.855
0
VERTEX
8
CONTOURS_MINEURES
10
20.004
20
131.205
0
VERTEX
8
CONTOURS_MINEURES
10
22.283
20
129.999
0
VERTEX
8
CONTOURS_MINEURES
10
20.004
20
128.221
0
VERTEX
8
CONTOURS_MINEURES
10
18.496
20
126.510
0
VERTEX
8
CONTOURS_MINEURES
10
15.002
20
126.425
0
VERTEX
8
CONTOURS_MINEURES
10
13.850
20
126.154
0
VERTEX
8
CONTOURS_MINEURES
10
10.000
20
125.968
0
VERTEX
8
CONTOURS_MINEURES
10
5.242
20
125.247
0
VERTEX
8
CONTOURS_MINEURES
10
4.998
20
125.200
0
VERTEX
8
CONTOURS_MINEURES
10
1.795
20
126.800
0
VERTEX
8
CONTOURS_MINEURES
10
-0.004
20
127.062
0
SEQEND
0
POLYLINE
8
CONTOURS_MINEURES
66
1
70
0
0
VERTEX
8
CONTOURS_MINEURES
10
1.756
20
170.004
0
VERTEX
8
CONTOURS_MINEURES
10
2.504
20
167.493
0
VERTEX
8
CONTOURS_MINEURES
10
3.135
20
164.996
0
VERTEX
8
CONTOURS_MINEURES
10
3.659
20
163.659
0
VERTEX
8
CONTOURS_MINEURES
10
4.998
20
162.032
0
VERTEX
8
CONTOURS_MINEURES
10
7.843
20
162.842
0
VERTEX
8
CONTOURS_MINEURES
10
10.000
20
160.450
0
VERTEX
8
CONTOURS_MINEURES
10
10.302
20
160.000
0
VERTEX
8
CONTOURS_MINEURES
10
11.133
20
156.135
0
VERTEX
8
CONTOURS_MINEURES
10
11.376
20
155.004
0
VERTEX
8
CONTOURS_MINEURES
10
12.279
20
152.722
0
VERTEX
8
CONTOURS_MINEURES
10
13.025
20
149.996
0
VERTEX
8
CONTOURS_MINEURES
10
13.640
20
148.636
0
VERTEX
8
CONTOURS_MINEURES
10
15.002
20
147.523
0
VERTEX
8
CONTOURS_MINEURES
10
19.634
20
145.000
0
VERTEX
8
CONTOURS_MINEURES
10
19.852
20
144.847
0
VERTEX
8
CONTOURS_MINEURES
10
20.004
20
144.783
0
VERTEX
8
CONTOURS_MINEURES
10
20.388
20
144.615
0
VERTEX
8
CONTOURS_MINEURES
10
24.996
20
142.204
0
VERTEX
8
CONTOURS_MINEURES
10
26.408
20
141.414
0
VERTEX
8
CONTOURS_MINEURES
10
29.361
20
140.003
0
VERTEX
8
CONTOURS_MINEURES
10
29.998
20
139.554
0
VERTEX
8
CONTOURS_MINEURES
10
32.112
20
137.112
0
VERTEX
8
CONTOURS_MINEURES
10
33.227
20
134.996
0
VERTEX
8
CONTOURS_MINEURES
10
34.437
20
130.562
0
VERTEX
8
CONTOURS_MINEURES
10
34.619
20
129.999
0
VERTEX
8
CONTOURS_MINEURES
10
34.307
20
129.308
0
VERTEX
8
CONTOURS_MINEURES
10
32.392
20
125.003
0
VERTEX
8
CONTOURS_MINEURES
10
31.572
20
123.428
0
VERTEX
8
CONTOURS_MINEURES
10
29.998
20
121.162
0
VERTEX
8
CONTOURS_MINEURES
10
28.765
20
119.996
0
VERTEX
8
CONTOURS_MINEURES
10
26.491
20
118.502
0
VERTEX
8
CONTOURS_MINEURES
10
24.996
20
117.736
0
VERTEX
8
CONTOURS_MINEURES
10
22.577
20
117.421
0
VERTEX
8
CONTOURS_MINEURES
10
20.004
20
117.134
0
VERTEX
8
CONTOURS_MINEURES
10
17.870
20
117.863
0
VERTEX
8
CONTOURS_MINEURES
10
15.002
20
118.778
0
VERTEX
8
CONTOURS_MINEURES
10
11.018
20
118.979
0
VERTEX
8
CONTOURS_MINEURES
10
10.000
20
119.268
0
VERTEX
8
CONTOURS_MINEURES
10
5.528
20
119.466
0
VERTEX
8
CONTOURS_MINEURES
10
4.998
20
119.584
0
VERTEX
8
CONTOURS_MINEURES
10
4.189
20
119.996
0
VERTEX
8
CONTOURS_MINEURES
10
-0.004
20
122.063
0
SEQEND
0
POLYLINE
8
CONTOURS_MINEURES
66
1
70
0
0
VERTEX
8
CONTOURS_MINEURES
10
3.757
20
170.004
0
VERTEX
8
CONTOURS_MINEURES
10
4.998
20
165.837
0
VERTEX
8
CONTOURS_MINEURES
10
7.660
20
167.339
0
VERTEX
8
CONTOURS_MINEURES
10
10.000
20
168.046
0
VERTEX
8
CONTOURS_MINEURES
10
11.748
20
166.746
0
VERTEX
8
CONTOURS_MINEURES
10
14.099
20
164.996
0
VERTEX
8
CONTOURS_MINEURES
10
15.002
20
163.569
0
VERTEX
8
CONTOURS_MINEURES
10
16.366
20
161.363
0
VERTEX
8
CONTOURS_MINEURES
10
17.016
20
160.000
0
VERTEX
8
CONTOURS_MINEURES
10
18.413
20
156.593
0
VERTEX
8
CONTOURS_MINEURES
10
18.837
20
155.004
0
VERTEX
8
CONTOURS_MINEURES
10
20.004
20
153.668
0
VERTEX
8
CONTOURS_MINEURES
10
22.188
20
152.187
0
VERTEX
8
CONTOURS_MINEURES
10
24.996
20
150.838
0
VERTEX
8
CONTOURS_MINEURES
10
25.548
20
150.549
0
VERTEX
8
CONTOURS_MINEURES
10
26.636
20
149.996
0
VERTEX
8
CONTOURS_MINEURES
10
29.998
20
148.275
0
VERTEX
8
CONTOURS_MINEURES
10
31.978
20
146.978
0
VERTEX
8
CONTOURS_MINEURES
10
35.000
20
145.162
0
VERTEX
8
CONTOURS_MINEURES
10
35.080
20
145.079
0
VERTEX
8
CONTOURS_MINEURES
10
35.187
20
145.000
0
VERTEX
8
CONTOURS_MINEURES
10
37.501
20
142.502
0
VERTEX
8
CONTOURS_MINEURES
10
38.933
20
140.003
0
VERTEX
8
CONTOURS_MINEURES
10
40.002
20
136.314
0
VERTEX
8
CONTOURS_MINEURES
10
40.367
20
134.996
0
VERTEX
8
CONTOURS_MINEURES
10
41.200
20
131.196
0
VERTEX
8
CONTOURS_MINEURES
10
41.354
20
129.999
0
VERTEX
8
CONTOURS_MINEURES
10
41.084
20
128.919
0
VERTEX
8
CONTOURS_MINEURES
10
40.002
20
125.125
0
VERTEX
8
CONTOURS_MINEURES
10
39.966
20
125.003
0
VERTEX
8
CONTOURS_MINEURES
10
38.698
20
121.301
0
VERTEX
8
CONTOURS_MINEURES
10
38.072
20
119.996
0
VERTEX
8
CONTOURS_MINEURES
10
35.000
20
116.059
0
VERTEX
8
CONTOURS_MINEURES
10
34.485
20
115.514
0
VERTEX
8
CONTOURS_MINEURES
10
33.939
20
114.999
0
VERTEX
8
CONTOURS_MINEURES
10
31.901
20
113.098
0
VERTEX
8
CONTOURS_MINEURES
10
29.998
20
112.366
0
VERTEX
8
CONTOURS_MINEURES
10
26.747
20
111.752
0
VERTEX
8
CONTOURS_MINEURES
10
24.996
20
111.175
0
VERTEX
8
CONTOURS_MINEURES
10
23.904
20
111.096
0
VERTEX
8
CONTOURS_MINEURES
10
20.004
20
110.991
0
VERTEX
8
CONTOURS_MINEURES
10
16.756
20
111.755
0
VERTEX
8
CONTOURS_MINEURES
10
15.002
20
112.122
0
VERTEX
8
CONTOURS_MINEURES
10
12.671
20
112.670
0
VERTEX
8
CONTOURS_MINEURES
10
10.000
20
113.299
0
VERTEX
8
CONTOURS_MINEURES
10
5.741
20
114.256
0
VERTEX
8
CONTOURS_MINEURES
10
4.998
20
114.452
0
VERTEX
8
CONTOURS_MINEURES
10
4.635
20
114.636
0
VERTEX
8
CONTOURS_MINEURES
10
3.960
20
114.999
0
VERTEX
8
CONTOURS_MINEURES
10
-0.004
20
117.087
0
SEQEND
0
POLYLINE
8
CONTOURS_MINEURES
66
1
70
0
0
VERTEX
8
CONTOURS_MINEURES
10
14.889
20
170.004
0
VERTEX
8
CONTOURS_MINEURES
10
14.954
20
169.956
0
VERTEX
8
CONTOURS_MINEURES
10
15.002
20
169.920
0
VERTEX
8
CONTOURS_MINEURES
10
17.806
20
167.803
0
VERTEX
8
CONTOURS_MINEURES
10
20.004
20
166.122
0
VERTEX
8
CONTOURS_MINEURES
10
21.483
20
164.996
0
VERTEX
8
CONTOURS_MINEURES
10
24.345
20
160.652
0
VERTEX
8
CONTOURS_MINEURES
10
24.740
20
160.000
0
VERTEX
8
CONTOURS_MINEURES
10
24.827
20
159.832
0
VERTEX
8
CONTOURS_MINEURES
10
24.996
20
159.720
0
VERTEX
8
CONTOURS_MINEURES
10
25.663
20
159.334
0
VERTEX
8
CONTOURS_MINEURES
10
29.998
20
156.588
0
VERTEX
8
CONTOURS_MINEURES
10
30.791
20
155.796
0
VERTEX
8
CONTOURS_MINEURES
10
32.073
20
155.004
0
VERTEX
8
CONTOURS_MINEURES
10
33.714
20
153.717
0
VERTEX
8
CONTOURS_MINEURES
10
35.000
20
152.979
0
VERTEX
8
CONTOURS_MINEURES
10
36.392
20
151.390
0
VERTEX
8
CONTOURS_MINEURES
10
38.165
20
149.996
0
VERTEX
8
CONTOURS_MINEURES
10
39.066
20
149.061
0
VERTEX
8
CONTOURS_MINEURES
10
40.002
20
148.365
0
VERTEX
8
CONTOURS_MINEURES
10
42.925
20
145.000
0
VERTEX
8
CONTOURS_MINEURES
10
45.004
20
141.552
0
VERTEX
8
CONTOURS_MINEURES
10
45.547
20
140.547
0
VERTEX
8
CONTOURS_MINEURES
10
45.942
20
140.003
0
VERTEX
8
CONTOURS_MINEURES
10
46.765
20
136.762
0
VERTEX
8
CONTOURS_MINEURES
10
47.417
20
134.996
0
VERTEX
8
CONTOURS_MINEURES
10
47.664
20
132.334
0
VERTEX
8
CONTOURS_MINEURES
10
47.948
20
129.999
0
VERTEX
8
CONTOURS_MINEURES
10
47.311
20
127.312
0
VERTEX
8
CONTOURS_MINEURES
10
46.731
20
125.003
0
VERTEX
8
CONTOURS_MINEURES
10
45.052
20
120.043
0
VERTEX
8
CONTOURS_MINEURES
10
45.036
20
119.996
0
VERTEX
8
CONTOURS_MINEURES
10
45.004
20
119.935
0
VERTEX
8
CONTOURS_MINEURES
10
42.032
20
114.999
0
VERTEX
8
CONTOURS_MINEURES
10
41.084
20
113.919
0
VERTEX
8
CONTOURS_MINEURES
10
40.002
20
112.229
0
VERTEX
8
CONTOURS_MINEURES
10
38.095
20
110.003
0
VERTEX
8
CONTOURS_MINEURES
10
36.309
20
108.693
0
VERTEX
8
CONTOURS_MINEURES
10
35.000
20
107.938
0
VERTEX
8
CONTOURS_MINEURES
10
32.234
20
107.233
0
VERTEX
8
CONTOURS_MINEURES
10
29.998
20
106.558
0
VERTEX
8
CONTOURS_MINEURES
10
26.057
20
106.058
0
VERTEX
8
CONTOURS_MINEURES
10
24.996
20
105.903
0
VERTEX
8
CONTOURS_MINEURES
10
24.113
20
105.880
0
VERTEX
8
CONTOURS_MINEURES
10
20.004
20
106.041
0
VERTEX
8
CONTOURS_MINEURES
10
16.939
20
106.934
0
VERTEX
8
CONTOURS_MINEURES
10
15.002
20
107.319
0
VERTEX
8
CONTOURS_MINEURES
10
12.876
20
107.875
0
VERTEX
8
CONTOURS_MINEURES
10
10.000
20
108.426
0
VERTEX
8
CONTOURS_MINEURES
10
5.575
20
109.425
0
VERTEX
8
CONTOURS_MINEURES
10
4.998
20
109.502
0
VERTEX
8
CONTOURS_MINEURES
10
3.968
20
110.003
0
VERTEX
8
CONTOURS_MINEURES
10
1.333
20
111.338
0
VERTEX
8
CONTOURS_MINEURES
10
-0.004
20
112.057
0
SEQEND
0
POLYLINE
8
CONTOURS_MINEURES
66
1
70
0
0
VERTEX
8
CONTOURS_MINEURES
10
22.385
20
170.004
0
VERTEX
8
CONTOURS_MINEURES
10
24.996
20
168.036
0
VERTEX
8
CONTOURS_MINEURES
10
29.231
20
164.996
0
VERTEX
8
CONTOURS_MINEURES
10
29.552
20
164.551
0
VERTEX
8
CONTOURS_MINEURES
10
29.998
20
164.293
0
VERTEX
8
CONTOURS_MINEURES
10
34.715
20
160.000
0
VERTEX
8
CONTOURS_MINEURES
10
34.858
20
159.858
0
VERTEX
8
CONTOURS_MINEURES
10
35.000
20
159.770
0
VERTEX
8
CONTOURS_MINEURES
10
39.680
20
155.004
0
VERTEX
8
CONTOURS_MINEURES
10
39.830
20
154.832
0
VERTEX
8
CONTOURS_MINEURES
10
40.002
20
154.696
0
VERTEX
8
CONTOURS_MINEURES
10
44.641
20
149.996
0
VERTEX
8
CONTOURS_MINEURES
10
45.004
20
149.577
0
VERTEX
8
CONTOURS_MINEURES
10
48.539
20
145.000
0
VERTEX
8
CONTOURS_MINEURES
10
49.050
20
144.053
0
VERTEX
8
CONTOURS_MINEURES
10
49.996
20
142.751
0
VERTEX
8
CONTOURS_MINEURES
10
51.743
20
140.003
0
VERTEX
8
CONTOURS_MINEURES
10
52.487
20
137.489
0
VERTEX
8
CONTOURS_MINEURES
10
53.242
20
134.996
0
VERTEX
8
CONTOURS_MINEURES
10
53.364
20
133.363
0
VERTEX
8
CONTOURS_MINEURES
10
53.818
20
129.999
0
VERTEX
8
CONTOURS_MINEURES
10
53.190
20
126.809
0
VERTEX
8
CONTOURS_MINEURES
10
52.772
20
125.003
0
VERTEX
8
CONTOURS_MINEURES
10
52.130
20
122.867
0
VERTEX
8
CONTOURS_MINEURES
10
51.290
20
119.996
0
VERTEX
8
CONTOURS_MINEURES
10
50.806
20
119.187
0
VERTEX
8
CONTOURS_MINEURES
10
49.996
20
117.604
0
VERTEX
8
CONTOURS_MINEURES
10
48.531
20
114.999
0
VERTEX
8
CONTOURS_MINEURES
10
45.004
20
110.127
0
VERTEX
8
CONTOURS_MINEURES
10
44.946
20
110.061
0
VERTEX
8
CONTOURS_MINEURES
10
44.909
20
110.003
0
VERTEX
8
CONTOURS_MINEURES
10
42.338
20
107.665
0
VERTEX
8
CONTOURS_MINEURES
10
40.002
20
105.182
0
VERTEX
8
CONTOURS_MINEURES
10
39.895
20
105.103
0
VERTEX
8
CONTOURS_MINEURES
10
39.708
20
104.995
0
VERTEX
8
CONTOURS_MINEURES
10
36.601
20
103.396
0
VERTEX
8
CONTOURS_MINEURES
10
35.000
20
103.077
0
VERTEX
8
CONTOURS_MINEURES
10
32.702
20
102.700
0
VERTEX
8
CONTOURS_MINEURES
10
29.998
20
102.222
0
VERTEX
8
CONTOURS_MINEURES
10
27.965
20
102.030
0
VERTEX
8
CONTOURS_MINEURES
10
24.996
20
101.331
0
VERTEX
8
CONTOURS_MINEURES
10
21.269
20
101.265
0
VERTEX
8
CONTOURS_MINEURES
10
20.004
20
101.313
0
VERTEX
8
CONTOURS_MINEURES
10
18.173
20
101.828
0
VERTEX
8
CONTOURS_MINEURES
10
15.002
20
102.654
0
VERTEX
8
CONTOURS_MINEURES
10
11.309
20
103.688
0
VERTEX
8
CONTOURS_MINEURES
10
10.000
20
104.001
0
VERTEX
8
CONTOURS_MINEURES
10
9.184
20
104.180
0
VERTEX
8
CONTOURS_MINEURES
10
4.998
20
104.735
0
VERTEX
8
CONTOURS_MINEURES
10
4.811
20
104.808
0
VERTEX
8
CONTOURS_MINEURES
10
4.358
20
104.995
0
VERTEX
8
CONTOURS_MINEURES
10
-0.004
20
106.931
0
SEQEND
0
POLYLINE
8
CONTOURS_MINEURES
66
1
70
0
0
VERTEX
8
CONTOURS_MINEURES
10
29.646
20
170.004
0
VERTEX
8
CONTOURS_MINEURES
10
29.998
20
169.742
0
VERTEX
8
CONTOURS_MINEURES
10
32.506
20
167.507
0
VERTEX
8
CONTOURS_MINEURES
10
35.000
20
165.691
0
VERTEX
8
CONTOURS_MINEURES
10
35.376
20
165.373
0
VERTEX
8
CONTOURS_MINEURES
10
35.839
20
164.996
0
VERTEX
8
CONTOURS_MINEURES
10
37.865
20
162.861
0
VERTEX
8
CONTOURS_MINEURES
10
40.002
20
160.739
0
VERTEX
8
CONTOURS_MINEURES
10
40.369
20
160.366
0
VERTEX
8
CONTOURS_MINEURES
10
40.742
20
160.000
0
VERTEX
8
CONTOURS_MINEURES
10
42.848
20
157.846
0
VERTEX
8
CONTOURS_MINEURES
10
45.004
20
155.743
0
VERTEX
8
CONTOURS_MINEURES
10
45.385
20
155.384
0
VERTEX
8
CONTOURS_MINEURES
10
45.770
20
155.004
0
VERTEX
8
CONTOURS_MINEURES
10
49.996
20
150.271
0
VERTEX
8
CONTOURS_MINEURES
10
50.118
20
150.119
0
VERTEX
8
CONTOURS_MINEURES
10
50.208
20
149.996
0
VERTEX
8
CONTOURS_MINEURES
10
52.229
20
147.231
0
VERTEX
8
CONTOURS_MINEURES
10
53.840
20
145.000
0
VERTEX
8
CONTOURS_MINEURES
10
54.998
20
143.183
0
VERTEX
8
CONTOURS_MINEURES
10
55.966
20
140.003
0
VERTEX
8
CONTOURS_MINEURES
10
56.155
20
138.845
0
VERTEX
8
CONTOURS_MINEURES
10
56.717
20
134.996
0
VERTEX
8
CONTOURS_MINEURES
10
56.907
20
131.906
0
VERTEX
8
CONTOURS_MINEURES
10
56.959
20
129.999
0
VERTEX
8
CONTOURS_MINEURES
10
56.670
20
126.673
0
VERTEX
8
CONTOURS_MINEURES
10
56.556
20
125.003
0
VERTEX
8
CONTOURS_MINEURES
10
56.359
20
123.640
0
VERTEX
8
CONTOURS_MINEURES
10
55.886
20
119.996
0
VERTEX
8
CONTOURS_MINEURES
10
55.680
20
119.315
0
VERTEX
8
CONTOURS_MINEURES
10
54.998
20
116.585
0
VERTEX
8
CONTOURS_MINEURES
10
54.404
20
115.592
0
VERTEX
8
CONTOURS_MINEURES
10
54.101
20
114.999
0
VERTEX
8
CONTOURS_MINEURES
10
52.148
20
112.850
0
VERTEX
8
CONTOURS_MINEURES
10
50.142
20
110.003
0
VERTEX
8
CONTOURS_MINEURES
10
50.078
20
109.921
0
VERTEX
8
CONTOURS_MINEURES
10
49.996
20
109.836
0
VERTEX
8
CONTOURS_MINEURES
10
45.587
20
104.995
0
VERTEX
8
CONTOURS_MINEURES
10
45.322
20
104.678
0
VERTEX
8
CONTOURS_MINEURES
10
45.004
20
104.346
0
VERTEX
8
CONTOURS_MINEURES
10
40.743
20
100.739
0
VERTEX
8
CONTOURS_MINEURES
10
40.002
20
100.100
0
VERTEX
8
CONTOURS_MINEURES
10
39.936
20
100.066
0
VERTEX
8
CONTOURS_MINEURES
10
39.602
20
99.999
0
VERTEX
8
CONTOURS_MINEURES
10
35.000
20
99.135
0
VERTEX
8
CONTOURS_MINEURES
10
31.415
20
98.583
0
VERTEX
8
CONTOURS_MINEURES
10
29.998
20
98.377
0
VERTEX
8
CONTOURS_MINEURES
10
27.875
20
97.878
0
VERTEX
8
CONTOURS_MINEURES
10
24.996
20
97.288
0
VERTEX
8
CONTOURS_MINEURES
10
22.748
20
97.253
0
VERTEX
8
CONTOURS_MINEURES
10
20.004
20
97.086
0
VERTEX
8
CONTOURS_MINEURES
10
17.643
20
97.640
0
VERTEX
8
CONTOURS_MINEURES
10
15.002
20
98.207
0
VERTEX
8
CONTOURS_MINEURES
10
11.054
20
98.946
0
VERTEX
8
CONTOURS_MINEURES
10
10.000
20
99.122
0
VERTEX
8
CONTOURS_MINEURES
10
9.232
20
99.232
0
VERTEX
8
CONTOURS_MINEURES
10
4.998
20
99.999
0
VERTEX
8
CONTOURS_MINEURES
10
1.408
20
101.409
0
VERTEX
8
CONTOURS_MINEURES
10
-0.004
20
101.993
0
SEQEND
0
POLYLINE
8
CONTOURS_MINEURES
66
1
70
0
0
VERTEX
8
CONTOURS_MINEURES
10
35.565
20
170.004
0
VERTEX
8
CONTOURS_MINEURES
10
37.968
20
167.967
0
VERTEX
8
CONTOURS_MINEURES
10
40.002
20
166.313
0
VERTEX
8
CONTOURS_MINEURES
10
41.631
20
164.996
0
VERTEX
8
CONTOURS_MINEURES
10
43.303
20
163.297
0
VERTEX
8
CONTOURS_MINEURES
10
45.004
20
161.627
0
VERTEX
8
CONTOURS_MINEURES
10
46.762
20
160.000
0
VERTEX
8
CONTOURS_MINEURES
10
48.428
20
158.431
0
VERTEX
8
CONTOURS_MINEURES
10
49.996
20
156.881
0
VERTEX
8
CONTOURS_MINEURES
10
51.709
20
155.004
0
VERTEX
8
CONTOURS_MINEURES
10
53.178
20
153.181
0
VERTEX
8
CONTOURS_MINEURES
10
54.998
20
150.686
0
VERTEX
8
CONTOURS_MINEURES
10
55.167
20
150.165
0
VERTEX
8
CONTOURS_MINEURES
10
55.226
20
149.996
0
VERTEX
8
CONTOURS_MINEURES
10
55.351
20
149.643
0
VERTEX
8
CONTOURS_MINEURES
10
56.920
20
145.000
0
VERTEX
8
CONTOURS_MINEURES
10
57.815
20
142.186
0
VERTEX
8
CONTOURS_MINEURES
10
58.479
20
140.003
0
VERTEX
8
CONTOURS_MINEURES
10
59.159
20
135.838
0
VERTEX
8
CONTOURS_MINEURES
10
59.282
20
134.996
0
VERTEX
8
CONTOURS_MINEURES
10
59.324
20
134.320
0
VERTEX
8
CONTOURS_MINEURES
10
59.442
20
129.999
0
VERTEX
8
CONTOURS_MINEURES
10
59.388
20
129.388
0
VERTEX
8
CONTOURS_MINEURES
10
59.088
20
125.003
0
VERTEX
8
CONTOURS_MINEURES
10
58.573
20
121.425
0
VERTEX
8
CONTOURS_MINEURES
10
58.387
20
119.996
0
VERTEX
8
CONTOURS_MINEURES
10
57.600
20
117.397
0
VERTEX
8
CONTOURS_MINEURES
10
57.001
20
114.999
0
VERTEX
8
CONTOURS_MINEURES
10
56.407
20
113.592
0
VERTEX
8
CONTOURS_MINEURES
10
54.998
20
110.003
0
VERTEX
8
CONTOURS_MINEURES
10
52.804
20
107.192
0
VERTEX
8
CONTOURS_MINEURES
10
50.691
20
104.995
0
VERTEX
8
CONTOURS_MINEURES
10
50.375
20
104.617
0
VERTEX
8
CONTOURS_MINEURES
10
49.996
20
104.208
0
VERTEX
8
CONTOURS_MINEURES
10
48.079
20
101.917
0
VERTEX
8
CONTOURS_MINEURES
10
46.246
20
99.999
0
VERTEX
8
CONTOURS_MINEURES
10
45.657
20
99.346
0
VERTEX
8
CONTOURS_MINEURES
10
45.004
20
98.686
0
VERTEX
8
CONTOURS_MINEURES
10
41.670
20
96.668
0
VERTEX
8
CONTOURS_MINEURES
10
40.002
20
95.527
0
VERTEX
8
CONTOURS_MINEURES
10
35.463
20
95.465
0
VERTEX
8
CONTOURS_MINEURES
10
35.000
20
95.378
0
VERTEX
8
CONTOURS_MINEURES
10
34.674
20
95.328
0
VERTEX
8
CONTOURS_MINEURES
10
32.435
20
95.002
0
VERTEX
8
CONTOURS_MINEURES
10
29.998
20
94.628
0
VERTEX
8
CONTOURS_MINEURES
10
26.290
20
93.707
0
VERTEX
8
CONTOURS_MINEURES
10
24.996
20
93.327
0
VERTEX
8
CONTOURS_MINEURES
10
23.480
20
93.482
0
VERTEX
8
CONTOURS_MINEURES
10
20.004
20
93.298
0
VERTEX
8
CONTOURS_MINEURES
10
15.862
20
94.142
0
VERTEX
8
CONTOURS_MINEURES
10
15.002
20
94.336
0
VERTEX
8
CONTOURS_MINEURES
10
14.371
20
94.370
0
VERTEX
8
CONTOURS_MINEURES
10
10.244
20
95.002
0
VERTEX
8
CONTOURS_MINEURES
10
10.000
20
95.043
0
VERTEX
8
CONTOURS_MINEURES
10
5.659
20
95.663
0
VERTEX
8
CONTOURS_MINEURES
10
4.998
20
95.783
0
VERTEX
8
CONTOURS_MINEURES
10
3.796
20
96.203
0
VERTEX
8
CONTOURS_MINEURES
10
-0.004
20
97.632
0
SEQEND
0
POLYLINE
8
CONTOURS_MINEURES
66
1
70
0
0
VERTEX
8
CONTOURS_MINEURES
10
121.820
20
0.004
0
VERTEX
8
CONTOURS_MINEURES
10
123.563
20
3.566
0
VERTEX
8
CONTOURS_MINEURES
10
124.310
20
5.001
0
VERTEX
8
CONTOURS_MINEURES
10
124.551
20
5.447
0
VERTEX
8
CONTOURS_MINEURES
10
124.996
20
6.666
0
SEQEND
0
POLYLINE
8
CONTOURS_MINEURES
66
1
70
0
0
VERTEX
8
CONTOURS_MINEURES
10
41.347
20
170.004
0
VERTEX
8
CONTOURS_MINEURES
10
45.004
20
167.089
0
VERTEX
8
CONTOURS_MINEURES
10
46.179
20
166.175
0
VERTEX
8
CONTOURS_MINEURES
10
47.515
20
164.996
0
VERTEX
8
CONTOURS_MINEURES
10
49.996
20
162.693
0
VERTEX
8
CONTOURS_MINEURES
10
51.351
20
161.354
0
VERTEX
8
CONTOURS_MINEURES
10
52.919
20
160.000
0
VERTEX
8
CONTOURS_MINEURES
10
54.998
20
157.702
0
VERTEX
8
CONTOURS_MINEURES
10
55.706
20
155.711
0
VERTEX
8
CONTOURS_MINEURES
10
55.949
20
155.004
0
VERTEX
8
CONTOURS_MINEURES
10
56.940
20
151.941
0
VERTEX
8
CONTOURS_MINEURES
10
57.625
20
149.996
0
VERTEX
8
CONTOURS_MINEURES
10
59.070
20
145.928
0
VERTEX
8
CONTOURS_MINEURES
10
59.384
20
145.000
0
VERTEX
8
CONTOURS_MINEURES
10
60.000
20
143.063
0
VERTEX
8
CONTOURS_MINEURES
10
61.173
20
141.175
0
VERTEX
8
CONTOURS_MINEURES
10
61.909
20
140.003
0
VERTEX
8
CONTOURS_MINEURES
10
62.648
20
137.647
0
VERTEX
8
CONTOURS_MINEURES
10
63.514
20
134.996
0
VERTEX
8
CONTOURS_MINEURES
10
63.620
20
131.380
0
VERTEX
8
CONTOURS_MINEURES
10
63.692
20
129.999
0
VERTEX
8
CONTOURS_MINEURES
10
63.053
20
126.950
0
VERTEX
8
CONTOURS_MINEURES
10
62.821
20
125.003
0
VERTEX
8
CONTOURS_MINEURES
10
62.089
20
122.087
0
VERTEX
8
CONTOURS_MINEURES
10
61.432
20
119.996
0
VERTEX
8
CONTOURS_MINEURES
10
60.957
20
119.039
0
VERTEX
8
CONTOURS_MINEURES
10
60.000
20
117.064
0
VERTEX
8
CONTOURS_MINEURES
10
59.520
20
115.479
0
VERTEX
8
CONTOURS_MINEURES
10
59.400
20
114.999
0
VERTEX
8
CONTOURS_MINEURES
10
58.094
20
111.907
0
VERTEX
8
CONTOURS_MINEURES
10
57.346
20
110.003
0
VERTEX
8
CONTOURS_MINEURES
10
55.734
20
105.732
0
VERTEX
8
CONTOURS_MINEURES
10
55.469
20
104.995
0
VERTEX
8
CONTOURS_MINEURES
10
54.998
20
103.746
0
VERTEX
8
CONTOURS_MINEURES
10
53.292
20
101.703
0
VERTEX
8
CONTOURS_MINEURES
10
51.710
20
99.999
0
VERTEX
8
CONTOURS_MINEURES
10
49.996
20
98.174
0
VERTEX
8
CONTOURS_MINEURES
10
48.493
20
96.507
0
VERTEX
8
CONTOURS_MINEURES
10
47.007
20
95.002
0
VERTEX
8
CONTOURS_MINEURES
10
45.004
20
93.251
0
VERTEX
8
CONTOURS_MINEURES
10
42.868
20
92.134
0
VERTEX
8
CONTOURS_MINEURES
10
40.002
20
90.992
0
VERTEX
8
CONTOURS_MINEURES
10
39.020
20
90.979
0
VERTEX
8
CONTOURS_MINEURES
10
35.000
20
90.830
0
VERTEX
8
CONTOURS_MINEURES
10
30.812
20
90.810
0
VERTEX
8
CONTOURS_MINEURES
10
29.998
20
90.685
0
VERTEX
8
CONTOURS_MINEURES
10
29.446
20
90.548
0
VERTEX
8
CONTOURS_MINEURES
10
27.566
20
89.995
0
VERTEX
8
CONTOURS_MINEURES
10
24.996
20
89.276
0
VERTEX
8
CONTOURS_MINEURES
10
20.262
20
89.737
0
VERTEX
8
CONTOURS_MINEURES
10
20.004
20
89.802
0
VERTEX
8
CONTOURS_MINEURES
10
19.832
20
89.823
0
VERTEX
8
CONTOURS_MINEURES
10
19.095
20
89.995
0
VERTEX
8
CONTOURS_MINEURES
10
15.002
20
90.918
0
VERTEX
8
CONTOURS_MINEURES
10
11.133
20
91.129
0
VERTEX
8
CONTOURS_MINEURES
10
10.000
20
91.303
0
VERTEX
8
CONTOURS_MINEURES
10
8.497
20
91.499
0
VERTEX
8
CONTOURS_MINEURES
10
4.998
20
91.899
0
VERTEX
8
CONTOURS_MINEURES
10
2.695
20
92.697
0
VERTEX
8
CONTOURS_MINEURES
10
-0.004
20
93.659
0
SEQEND
0
POLYLINE
8
CONTOURS_MINEURES
66
1
70
0
0
VERTEX
8
CONTOURS_MINEURES
10
116.346
20
0.004
0
VERTEX
8
CONTOURS_MINEURES
10
118.619
20
3.617
0
VERTEX
8
CONTOURS_MINEURES
10
119.574
20
5.001
0
VERTEX
8
CONTOURS_MINEURES
10
119.748
20
5.257
0
VERTEX
8
CONTOURS_MINEURES
10
120.005
20
5.790
0
VERTEX
8
CONTOURS_MINEURES
10
121.479
20
8.521
0
VERTEX
8
CONTOURS_MINEURES
10
122.018
20
9.997
0
VERTEX
8
CONTOURS_MINEURES
10
123.022
20
11.978
0
VERTEX
8
CONTOURS_MINEURES
10
124.390
20
15.005
0
VERTEX
8
CONTOURS_MINEURES
10
124.996
20
16.343
0
SEQEND
0
POLYLINE
8
CONTOURS_MINEURES
66
1
70
0
0
VERTEX
8
CONTOURS_MINEURES
10
47.660
20
170.004
0
VERTEX
8
CONTOURS_MINEURES
10
48.975
20
168.980
0
VERTEX
8
CONTOURS_MINEURES
10
49.996
20
168.080
0
VERTEX
8
CONTOURS_MINEURES
10
53.284
20
164.996
0
VERTEX
8
CONTOURS_MINEURES
10
54.146
20
164.145
0
VERTEX
8
CONTOURS_MINEURES
10
54.998
20
163.409
0
VERTEX
8
CONTOURS_MINEURES
10
56.154
20
161.154
0
VERTEX
8
CONTOURS_MINEURES
10
56.551
20
160.000
0
VERTEX
8
CONTOURS_MINEURES
10
57.455
20
157.458
0
VERTEX
8
CONTOURS_MINEURES
10
58.298
20
155.004
0
VERTEX
8
CONTOURS_MINEURES
10
58.714
20
153.716
0
VERTEX
8
CONTOURS_MINEURES
10
60.000
20
150.064
0
VERTEX
8
CONTOURS_MINEURES
10
60.049
20
149.996
0
VERTEX
8
CONTOURS_MINEURES
10
62.126
20
147.123
0
VERTEX
8
CONTOURS_MINEURES
10
63.607
20
145.000
0
VERTEX
8
CONTOURS_MINEURES
10
64.141
20
144.140
0
VERTEX
8
CONTOURS_MINEURES
10
65.002
20
142.771
0
VERTEX
8
CONTOURS_MINEURES
10
66.603
20
140.003
0
VERTEX
8
CONTOURS_MINEURES
10
67.383
20
137.380
0
VERTEX
8
CONTOURS_MINEURES
10
67.961
20
134.996
0
VERTEX
8
CONTOURS_MINEURES
10
68.012
20
133.006
0
VERTEX
8
CONTOURS_MINEURES
10
67.939
20
129.999
0
VERTEX
8
CONTOURS_MINEURES
10
67.396
20
127.608
0
VERTEX
8
CONTOURS_MINEURES
10
66.953
20
125.003
0
VERTEX
8
CONTOURS_MINEURES
10
65.638
20
120.632
0
VERTEX
8
CONTOURS_MINEURES
10
65.432
20
119.996
0
VERTEX
8
CONTOURS_MINEURES
10
65.002
20
119.061
0
VERTEX
8
CONTOURS_MINEURES
10
63.654
20
116.346
0
VERTEX
8
CONTOURS_MINEURES
10
63.001
20
114.999
0
VERTEX
8
CONTOURS_MINEURES
10
60.000
20
110.741
0
VERTEX
8
CONTOURS_MINEURES
10
59.781
20
110.222
0
VERTEX
8
CONTOURS_MINEURES
10
59.695
20
110.003
0
VERTEX
8
CONTOURS_MINEURES
10
59.509
20
109.511
0
VERTEX
8
CONTOURS_MINEURES
10
57.886
20
104.995
0
VERTEX
8
CONTOURS_MINEURES
10
56.607
20
101.606
0
VERTEX
8
CONTOURS_MINEURES
10
56.108
20
99.999
0
VERTEX
8
CONTOURS_MINEURES
10
55.786
20
99.212
0
VERTEX
8
CONTOURS_MINEURES
10
54.998
20
97.530
0
VERTEX
8
CONTOURS_MINEURES
10
52.623
20
95.002
0
VERTEX
8
CONTOURS_MINEURES
10
49.996
20
92.472
0
VERTEX
8
CONTOURS_MINEURES
10
47.126
20
89.995
0
VERTEX
8
CONTOURS_MINEURES
10
45.912
20
89.087
0
VERTEX
8
CONTOURS_MINEURES
10
45.004
20
88.999
0
VERTEX
8
CONTOURS_MINEURES
10
44.145
20
89.137
0
VERTEX
8
CONTOURS_MINEURES
10
40.002
20
88.385
0
VERTEX
8
CONTOURS_MINEURES
10
36.667
20
88.330
0
VERTEX
8
CONTOURS_MINEURES
10
35.000
20
86.717
0
VERTEX
8
CONTOURS_MINEURES
10
30.565
20
84.999
0
VERTEX
8
CONTOURS_MINEURES
10
29.998
20
84.782
0
VERTEX
8
CONTOURS_MINEURES
10
28.223
20
84.999
0
VERTEX
8
CONTOURS_MINEURES
10
25.537
20
85.539
0
VERTEX
8
CONTOURS_MINEURES
10
24.996
20
85.387
0
VERTEX
8
CONTOURS_MINEURES
10
24.565
20
85.429
0
VERTEX
8
CONTOURS_MINEURES
10
20.004
20
86.578
0
VERTEX
8
CONTOURS_MINEURES
10
16.966
20
86.960
0
VERTEX
8
CONTOURS_MINEURES
10
15.002
20
87.417
0
VERTEX
8
CONTOURS_MINEURES
10
12.435
20
87.562
0
VERTEX
8
CONTOURS_MINEURES
10
10.000
20
87.525
0
VERTEX
8
CONTOURS_MINEURES
10
7.788
20
87.786
0
VERTEX
8
CONTOURS_MINEURES
10
4.998
20
88.102
0
VERTEX
8
CONTOURS_MINEURES
10
0.256
20
89.735
0
VERTEX
8
CONTOURS_MINEURES
10
-0.004
20
89.820
0
SEQEND
0
POLYLINE
8
CONTOURS_MINEURES
66
1
70
0
0
VERTEX
8
CONTOURS_MINEURES
10
113.219
20
0.004
0
VERTEX
8
CONTOURS_MINEURES
10
113.723
20
1.283
0
VERTEX
8
CONTOURS_MINEURES
10
114.903
20
5.001
0
VERTEX
8
CONTOURS_MINEURES
10
115.003
20
5.318
0
VERTEX
8
CONTOURS_MINEURES
10
116.898
20
8.104
0
VERTEX
8
CONTOURS_MINEURES
10
117.810
20
9.997
0
VERTEX
8
CONTOURS_MINEURES
10
120.005
20
14.301
0
VERTEX
8
CONTOURS_MINEURES
10
120.241
20
14.768
0
VERTEX
8
CONTOURS_MINEURES
10
120.348
20
15.005
0
VERTEX
8
CONTOURS_MINEURES
10
120.633
20
15.634
0
VERTEX
8
CONTOURS_MINEURES
10
122.686
20
20.001
0
VERTEX
8
CONTOURS_MINEURES
10
123.387
20
21.612
0
VERTEX
8
CONTOURS_MINEURES
10
124.748
20
24.998
0
VERTEX
8
CONTOURS_MINEURES
10
124.816
20
25.178
0
VERTEX
8
CONTOURS_MINEURES
10
124.996
20
25.636
0
SEQEND
0
POLYLINE
8
CONTOURS_MINEURES
66
1
70
0
0
VERTEX
8
CONTOURS_MINEURES
10
53.585
20
170.004
0
VERTEX
8
CONTOURS_MINEURES
10
54.998
20
168.679
0
VERTEX
8
CONTOURS_MINEURES
10
56.852
20
164.996
0
VERTEX
8
CONTOURS_MINEURES
10
57.918
20
162.917
0
VERTEX
8
CONTOURS_MINEURES
10
58.922
20
160.000
0
VERTEX
8
CONTOURS_MINEURES
10
59.204
20
159.205
0
VERTEX
8
CONTOURS_MINEURES
10
60.000
20
156.886
0
VERTEX
8
CONTOURS_MINEURES
10
60.782
20
155.784
0
VERTEX
8
CONTOURS_MINEURES
10
61.349
20
155.004
0
VERTEX
8
CONTOURS_MINEURES
10
64.744
20
150.255
0
VERTEX
8
CONTOURS_MINEURES
10
64.929
20
149.996
0
VERTEX
8
CONTOURS_MINEURES
10
64.960
20
149.954
0
VERTEX
8
CONTOURS_MINEURES
10
65.002
20
149.893
0
VERTEX
8
CONTOURS_MINEURES
10
67.104
20
147.099
0
VERTEX
8
CONTOURS_MINEURES
10
68.590
20
145.000
0
VERTEX
8
CONTOURS_MINEURES
10
70.004
20
142.283
0
VERTEX
8
CONTOURS_MINEURES
10
71.101
20
140.003
0
VERTEX
8
CONTOURS_MINEURES
10
71.920
20
136.918
0
VERTEX
8
CONTOURS_MINEURES
10
72.232
20
134.996
0
VERTEX
8
CONTOURS_MINEURES
10
71.795
20
133.204
0
VERTEX
8
CONTOURS_MINEURES
10
71.727
20
129.999
0
VERTEX
8
CONTOURS_MINEURES
10
70.924
20
125.923
0
VERTEX
8
CONTOURS_MINEURES
10
70.772
20
125.003
0
VERTEX
8
CONTOURS_MINEURES
10
70.614
20
124.392
0
VERTEX
8
CONTOURS_MINEURES
10
70.004
20
122.586
0
VERTEX
8
CONTOURS_MINEURES
10
69.165
20
119.996
0
VERTEX
8
CONTOURS_MINEURES
10
68.452
20
118.445
0
VERTEX
8
CONTOURS_MINEURES
10
67.019
20
114.999
0
VERTEX
8
CONTOURS_MINEURES
10
66.305
20
113.698
0
VERTEX
8
CONTOURS_MINEURES
10
65.002
20
111.837
0
VERTEX
8
CONTOURS_MINEURES
10
63.752
20
110.003
0
VERTEX
8
CONTOURS_MINEURES
10
62.309
20
107.692
0
VERTEX
8
CONTOURS_MINEURES
10
60.549
20
104.995
0
VERTEX
8
CONTOURS_MINEURES
10
60.354
20
104.641
0
VERTEX
8
CONTOURS_MINEURES
10
60.000
20
103.918
0
VERTEX
8
CONTOURS_MINEURES
10
58.783
20
99.999
0
VERTEX
8
CONTOURS_MINEURES
10
57.684
20
97.316
0
VERTEX
8
CONTOURS_MINEURES
10
56.600
20
95.002
0
VERTEX
8
CONTOURS_MINEURES
10
56.065
20
93.934
0
VERTEX
8
CONTOURS_MINEURES
10
54.998
20
91.856
0
VERTEX
8
CONTOURS_MINEURES
10
53.065
20
89.995
0
VERTEX
8
CONTOURS_MINEURES
10
49.996
20
87.473
0
VERTEX
8
CONTOURS_MINEURES
10
48.581
20
86.415
0
VERTEX
8
CONTOURS_MINEURES
10
45.004
20
86.068
0
VERTEX
8
CONTOURS_MINEURES
10
41.619
20
86.614
0
VERTEX
8
CONTOURS_MINEURES
10
40.002
20
86.320
0
VERTEX
8
CONTOURS_MINEURES
10
38.701
20
86.299
0
VERTEX
8
CONTOURS_MINEURES
10
37.356
20
84.999
0
VERTEX
8
CONTOURS_MINEURES
10
35.000
20
83.137
0
VERTEX
8
CONTOURS_MINEURES
10
31.368
20
81.371
0
VERTEX
8
CONTOURS_MINEURES
10
29.998
20
80.848
0
VERTEX
8
CONTOURS_MINEURES
10
29.033
20
80.966
0
VERTEX
8
CONTOURS_MINEURES
10
24.996
20
82.069
0
VERTEX
8
CONTOURS_MINEURES
10
22.631
20
82.632
0
VERTEX
8
CONTOURS_MINEURES
10
20.004
20
83.311
0
VERTEX
8
CONTOURS_MINEURES
10
16.200
20
83.802
0
VERTEX
8
CONTOURS_MINEURES
10
15.002
20
83.824
0
VERTEX
8
CONTOURS_MINEURES
10
13.785
20
83.783
0
VERTEX
8
CONTOURS_MINEURES
10
10.000
20
83.726
0
VERTEX
8
CONTOURS_MINEURES
10
5.774
20
84.223
0
VERTEX
8
CONTOURS_MINEURES
10
4.998
20
84.317
0
VERTEX
8
CONTOURS_MINEURES
10
4.474
20
84.476
0
VERTEX
8
CONTOURS_MINEURES
10
2.854
20
84.999
0
VERTEX
8
CONTOURS_MINEURES
10
-0.004
20
85.932
0
SEQEND
0
POLYLINE
8
CONTOURS_MINEURES
66
1
70
0
0
VERTEX
8
CONTOURS_MINEURES
10
110.887
20
0.004
0
VERTEX
8
CONTOURS_MINEURES
10
112.050
20
2.954
0
VERTEX
8
CONTOURS_MINEURES
10
112.700
20
5.001
0
VERTEX
8
CONTOURS_MINEURES
10
113.928
20
8.924
0
VERTEX
8
CONTOURS_MINEURES
10
114.295
20
9.997
0
VERTEX
8
CONTOURS_MINEURES
10
114.458
20
10.542
0
VERTEX
8
CONTOURS_MINEURES
10
115.003
20
12.520
0
VERTEX
8
CONTOURS_MINEURES
10
116.328
20
15.005
0
VERTEX
8
CONTOURS_MINEURES
10
117.564
20
17.443
0
VERTEX
8
CONTOURS_MINEURES
10
118.769
20
20.001
0
VERTEX
8
CONTOURS_MINEURES
10
120.005
20
22.837
0
VERTEX
8
CONTOURS_MINEURES
10
120.659
20
24.342
0
VERTEX
8
CONTOURS_MINEURES
10
120.923
20
24.998
0
VERTEX
8
CONTOURS_MINEURES
10
122.051
20
27.952
0
VERTEX
8
CONTOURS_MINEURES
10
122.857
20
30.005
0
VERTEX
8
CONTOURS_MINEURES
10
124.593
20
34.598
0
VERTEX
8
CONTOURS_MINEURES
10
124.719
20
35.001
0
VERTEX
8
CONTOURS_MINEURES
10
124.996
20
35.971
0
SEQEND
0
POLYLINE
8
CONTOURS_MINEURES
66
1
70
0
0
VERTEX
8
CONTOURS_MINEURES
10
57.314
20
170.004
0
VERTEX
8
CONTOURS_MINEURES
10
59.032
20
165.966
0
VERTEX
8
CONTOURS_MINEURES
10
59.520
20
164.996
0
VERTEX
8
CONTOURS_MINEURES
10
59.683
20
164.679
0
VERTEX
8
CONTOURS_MINEURES
10
60.000
20
163.756
0
VERTEX
8
CONTOURS_MINEURES
10
62.647
20
160.000
0
VERTEX
8
CONTOURS_MINEURES
10
63.624
20
158.623
0
VERTEX
8
CONTOURS_MINEURES
10
65.002
20
156.725
0
VERTEX
8
CONTOURS_MINEURES
10
65.735
20
155.736
0
VERTEX
8
CONTOURS_MINEURES
10
66.284
20
155.004
0
VERTEX
8
CONTOURS_MINEURES
10
70.004
20
150.128
0
VERTEX
8
CONTOURS_MINEURES
10
70.105
20
149.996
0
VERTEX
8
CONTOURS_MINEURES
10
72.125
20
147.122
0
VERTEX
8
CONTOURS_MINEURES
10
73.635
20
145.000
0
VERTEX
8
CONTOURS_MINEURES
10
74.996
20
141.899
0
VERTEX
8
CONTOURS_MINEURES
10
75.535
20
140.542
0
VERTEX
8
CONTOURS_MINEURES
10
75.704
20
140.003
0
VERTEX
8
CONTOURS_MINEURES
10
75.813
20
139.185
0
VERTEX
8
CONTOURS_MINEURES
10
76.476
20
134.996
0
VERTEX
8
CONTOURS_MINEURES
10
75.379
20
130.382
0
VERTEX
8
CONTOURS_MINEURES
10
75.236
20
129.999
0
VERTEX
8
CONTOURS_MINEURES
10
75.209
20
129.787
0
VERTEX
8
CONTOURS_MINEURES
10
74.996
20
128.445
0
VERTEX
8
CONTOURS_MINEURES
10
74.429
20
125.003
0
VERTEX
8
CONTOURS_MINEURES
10
73.516
20
121.480
0
VERTEX
8
CONTOURS_MINEURES
10
73.015
20
119.996
0
VERTEX
8
CONTOURS_MINEURES
10
71.690
20
116.686
0
VERTEX
8
CONTOURS_MINEURES
10
70.991
20
114.999
0
VERTEX
8
CONTOURS_MINEURES
10
70.004
20
113.089
0
VERTEX
8
CONTOURS_MINEURES
10
68.910
20
111.096
0
VERTEX
8
CONTOURS_MINEURES
10
68.145
20
110.003
0
VERTEX
8
CONTOURS_MINEURES
10
66.876
20
108.127
0
VERTEX
8
CONTOURS_MINEURES
10
65.002
20
105.099
0
VERTEX
8
CONTOURS_MINEURES
10
64.963
20
105.035
0
VERTEX
8
CONTOURS_MINEURES
10
64.937
20
104.995
0
VERTEX
8
CONTOURS_MINEURES
10
63.189
20
101.811
0
VERTEX
8
CONTOURS_MINEURES
10
62.301
20
99.999
0
VERTEX
8
CONTOURS_MINEURES
10
60.000
20
96.439
0
VERTEX
8
CONTOURS_MINEURES
10
59.583
20
95.420
0
VERTEX
8
CONTOURS_MINEURES
10
59.387
20
95.002
0
VERTEX
8
CONTOURS_MINEURES
10
57.921
20
92.076
0
VERTEX
8
CONTOURS_MINEURES
10
56.853
20
89.995
0
VERTEX
8
CONTOURS_MINEURES
10
56.221
20
88.774
0
VERTEX
8
CONTOURS_MINEURES
10
54.998
20
86.613
0
VERTEX
8
CONTOURS_MINEURES
10
52.991
20
84.999
0
VERTEX
8
CONTOURS_MINEURES
10
51.220
20
83.776
0
VERTEX
8
CONTOURS_MINEURES
10
49.996
20
83.545
0
VERTEX
8
CONTOURS_MINEURES
10
48.758
20
83.759
0
VERTEX
8
CONTOURS_MINEURES
10
45.004
20
83.458
0
VERTEX
8
CONTOURS_MINEURES
10
41.011
20
83.991
0
VERTEX
8
CONTOURS_MINEURES
10
40.002
20
83.971
0
VERTEX
8
CONTOURS_MINEURES
10
35.140
20
80.002
0
VERTEX
8
CONTOURS_MINEURES
10
35.000
20
79.825
0
VERTEX
8
CONTOURS_MINEURES
10
32.092
20
77.906
0
VERTEX
8
CONTOURS_MINEURES
10
29.998
20
77.319
0
VERTEX
8
CONTOURS_MINEURES
10
28.005
20
78.007
0
VERTEX
8
CONTOURS_MINEURES
10
24.996
20
78.823
0
VERTEX
8
CONTOURS_MINEURES
10
20.004
20
80.002
0
VERTEX
8
CONTOURS_MINEURES
10
15.002
20
80.095
0
VERTEX
8
CONTOURS_MINEURES
10
12.223
20
80.002
0
VERTEX
8
CONTOURS_MINEURES
10
10.000
20
79.926
0
VERTEX
8
CONTOURS_MINEURES
10
9.375
20
80.002
0
VERTEX
8
CONTOURS_MINEURES
10
4.998
20
80.532
0
VERTEX
8
CONTOURS_MINEURES
10
1.566
20
81.571
0
VERTEX
8
CONTOURS_MINEURES
10
-0.004
20
82.078
0
SEQEND
0
POLYLINE
8
CONTOURS_MINEURES
66
1
70
0
0
VERTEX
8
CONTOURS_MINEURES
10
107.268
20
0.004
0
VERTEX
8
CONTOURS_MINEURES
10
110.000
20
3.670
0
VERTEX
8
CONTOURS_MINEURES
10
110.377
20
4.625
0
VERTEX
8
CONTOURS_MINEURES
10
110.496
20
5.001
0
VERTEX
8
CONTOURS_MINEURES
10
110.722
20
5.721
0
VERTEX
8
CONTOURS_MINEURES
10
112.185
20
9.997
0
VERTEX
8
CONTOURS_MINEURES
10
112.834
20
12.168
0
VERTEX
8
CONTOURS_MINEURES
10
113.615
20
15.005
0
VERTEX
8
CONTOURS_MINEURES
10
113.914
20
16.092
0
VERTEX
8
CONTOURS_MINEURES
10
114.921
20
20.001
0
VERTEX
8
CONTOURS_MINEURES
10
115.003
20
20.346
0
VERTEX
8
CONTOURS_MINEURES
10
117.080
20
24.998
0
VERTEX
8
CONTOURS_MINEURES
10
118.379
20
28.378
0
VERTEX
8
CONTOURS_MINEURES
10
118.981
20
30.005
0
VERTEX
8
CONTOURS_MINEURES
10
119.189
20
30.819
0
VERTEX
8
CONTOURS_MINEURES
10
120.005
20
33.564
0
VERTEX
8
CONTOURS_MINEURES
10
120.453
20
35.001
0
VERTEX
8
CONTOURS_MINEURES
10
120.632
20
35.630
0
VERTEX
8
CONTOURS_MINEURES
10
121.828
20
39.998
0
VERTEX
8
CONTOURS_MINEURES
10
123.042
20
41.958
0
VERTEX
8
CONTOURS_MINEURES
10
124.431
20
45.005
0
VERTEX
8
CONTOURS_MINEURES
10
124.996
20
47.046
0
SEQEND
0
POLYLINE
8
CONTOURS_MINEURES
66
1
70
0
0
VERTEX
8
CONTOURS_MINEURES
10
124.996
20
68.541
0
VERTEX
8
CONTOURS_MINEURES
10
124.851
20
69.998
0
VERTEX
8
CONTOURS_MINEURES
10
124.071
20
74.069
0
VERTEX
8
CONTOURS_MINEURES
10
123.889
20
74.995
0
VERTEX
8
CONTOURS_MINEURES
10
123.069
20
78.069
0
VERTEX
8
CONTOURS_MINEURES
10
122.553
20
80.002
0
VERTEX
8
CONTOURS_MINEURES
10
121.939
20
83.063
0
VERTEX
8
CONTOURS_MINEURES
10
121.929
20
84.999
0
VERTEX
8
CONTOURS_MINEURES
10
122.803
20
87.800
0
VERTEX
8
CONTOURS_MINEURES
10
122.717
20
89.995
0
VERTEX
8
CONTOURS_MINEURES
10
123.000
20
91.998
0
VERTEX
8
CONTOURS_MINEURES
10
124.996
20
94.029
0
SEQEND
0
POLYLINE
8
CONTOURS_MINEURES
66
1
70
0
0
VERTEX
8
CONTOURS_MINEURES
10
60.845
20
170.004
0
VERTEX
8
CONTOURS_MINEURES
10
62.810
20
167.809
0
VERTEX
8
CONTOURS_MINEURES
10
64.273
20
164.996
0
VERTEX
8
CONTOURS_MINEURES
10
65.002
20
163.928
0
VERTEX
8
CONTOURS_MINEURES
10
67.578
20
160.000
0
VERTEX
8
CONTOURS_MINEURES
10
68.610
20
158.607
0
VERTEX
8
CONTOURS_MINEURES
10
70.004
20
156.747
0
VERTEX
8
CONTOURS_MINEURES
10
71.309
20
155.004
0
VERTEX
8
CONTOURS_MINEURES
10
74.996
20
150.161
0
VERTEX
8
CONTOURS_MINEURES
10
75.070
20
150.071
0
VERTEX
8
CONTOURS_MINEURES
10
75.126
20
149.996
0
VERTEX
8
CONTOURS_MINEURES
10
75.317
20
149.676
0
VERTEX
8
CONTOURS_MINEURES
10
78.331
20
145.000
0
VERTEX
8
CONTOURS_MINEURES
10
78.805
20
143.808
0
VERTEX
8
CONTOURS_MINEURES
10
79.998
20
140.003
0
VERTEX
8
CONTOURS_MINEURES
10
80.524
20
135.522
0
VERTEX
8
CONTOURS_MINEURES
10
80.577
20
134.996
0
VERTEX
8
CONTOURS_MINEURES
10
80.391
20
134.604
0
VERTEX
8
CONTOURS_MINEURES
10
79.998
20
133.575
0
VERTEX
8
CONTOURS_MINEURES
10
78.662
20
129.999
0
VERTEX
8
CONTOURS_MINEURES
10
78.250
20
126.750
0
VERTEX
8
CONTOURS_MINEURES
10
77.973
20
125.003
0
VERTEX
8
CONTOURS_MINEURES
10
77.262
20
122.734
0
VERTEX
8
CONTOURS_MINEURES
10
76.619
20
119.996
0
VERTEX
8
CONTOURS_MINEURES
10
74.996
20
115.503
0
VERTEX
8
CONTOURS_MINEURES
10
74.787
20
114.999
0
VERTEX
8
CONTOURS_MINEURES
10
74.564
20
114.566
0
VERTEX
8
CONTOURS_MINEURES
10
72.321
20
110.003
0
VERTEX
8
CONTOURS_MINEURES
10
70.004
20
106.206
0
VERTEX
8
CONTOURS_MINEURES
10
69.516
20
105.484
0
VERTEX
8
CONTOURS_MINEURES
10
69.214
20
104.995
0
VERTEX
8
CONTOURS_MINEURES
10
67.503
20
102.497
0
VERTEX
8
CONTOURS_MINEURES
10
66.341
20
99.999
0
VERTEX
8
CONTOURS_MINEURES
10
65.002
20
97.617
0
VERTEX
8
CONTOURS_MINEURES
10
63.321
20
95.002
0
VERTEX
8
CONTOURS_MINEURES
10
61.908
20
93.093
0
VERTEX
8
CONTOURS_MINEURES
10
60.000
20
90.663
0
VERTEX
8
CONTOURS_MINEURES
10
59.777
20
90.218
0
VERTEX
8
CONTOURS_MINEURES
10
59.663
20
89.995
0
VERTEX
8
CONTOURS_MINEURES
10
58.073
20
86.923
0
VERTEX
8
CONTOURS_MINEURES
10
56.984
20
84.999
0
VERTEX
8
CONTOURS_MINEURES
10
56.267
20
83.731
0
VERTEX
8
CONTOURS_MINEURES
10
54.998
20
81.983
0
VERTEX
8
CONTOURS_MINEURES
10
53.826
20
81.173
0
VERTEX
8
CONTOURS_MINEURES
10
49.996
20
80.451
0
VERTEX
8
CONTOURS_MINEURES
10
46.124
20
81.123
0
VERTEX
8
CONTOURS_MINEURES
10
45.004
20
81.033
0
VERTEX
8
CONTOURS_MINEURES
10
43.813
20
81.192
0
VERTEX
8
CONTOURS_MINEURES
10
40.002
20
81.116
0
VERTEX
8
CONTOURS_MINEURES
10
38.638
20
80.002
0
VERTEX
8
CONTOURS_MINEURES
10
35.000
20
75.394
0
VERTEX
8
CONTOURS_MINEURES
10
34.760
20
75.235
0
VERTEX
8
CONTOURS_MINEURES
10
33.902
20
74.995
0
VERTEX
8
CONTOURS_MINEURES
10
29.998
20
73.983
0
VERTEX
8
CONTOURS_MINEURES
10
26.828
20
74.995
0
VERTEX
8
CONTOURS_MINEURES
10
25.465
20
75.465
0
VERTEX
8
CONTOURS_MINEURES
10
24.996
20
75.592
0
VERTEX
8
CONTOURS_MINEURES
10
24.216
20
75.777
0
VERTEX
8
CONTOURS_MINEURES
10
20.004
20
76.476
0
VERTEX
8
CONTOURS_MINEURES
10
18.498
20
76.502
0
VERTEX
8
CONTOURS_MINEURES
10
15.002
20
76.261
0
VERTEX
8
CONTOURS_MINEURES
10
11.147
20
76.143
0
VERTEX
8
CONTOURS_MINEURES
10
10.000
20
76.103
0
VERTEX
8
CONTOURS_MINEURES
10
8.739
20
76.258
0
VERTEX
8
CONTOURS_MINEURES
10
4.998
20
76.727
0
VERTEX
8
CONTOURS_MINEURES
10
2.406
20
77.408
0
VERTEX
8
CONTOURS_MINEURES
10
-0.004
20
78.174
0
SEQEND
0
POLYLINE
8
CONTOURS_MINEURES
66
1
70
0
0
VERTEX
8
CONTOURS_MINEURES
10
102.813
20
0.004
0
VERTEX
8
CONTOURS_MINEURES
10
103.770
20
1.231
0
VERTEX
8
CONTOURS_MINEURES
10
104.998
20
2.839
0
VERTEX
8
CONTOURS_MINEURES
10
106.615
20
5.001
0
VERTEX
8
CONTOURS_MINEURES
10
108.042
20
6.956
0
VERTEX
8
CONTOURS_MINEURES
10
110.000
20
9.781
0
VERTEX
8
CONTOURS_MINEURES
10
110.074
20
9.997
0
VERTEX
8
CONTOURS_MINEURES
10
111.210
20
13.793
0
VERTEX
8
CONTOURS_MINEURES
10
111.543
20
15.005
0
VERTEX
8
CONTOURS_MINEURES
10
112.290
20
17.714
0
VERTEX
8
CONTOURS_MINEURES
10
112.879
20
20.001
0
VERTEX
8
CONTOURS_MINEURES
10
113.772
20
23.768
0
VERTEX
8
CONTOURS_MINEURES
10
114.071
20
24.998
0
VERTEX
8
CONTOURS_MINEURES
10
114.199
20
25.802
0
VERTEX
8
CONTOURS_MINEURES
10
115.003
20
29.898
0
VERTEX
8
CONTOURS_MINEURES
10
115.042
20
30.005
0
VERTEX
8
CONTOURS_MINEURES
10
116.053
20
33.952
0
VERTEX
8
CONTOURS_MINEURES
10
116.365
20
35.001
0
VERTEX
8
CONTOURS_MINEURES
10
117.135
20
37.868
0
VERTEX
8
CONTOURS_MINEURES
10
117.674
20
39.998
0
VERTEX
8
CONTOURS_MINEURES
10
118.241
20
41.763
0
VERTEX
8
CONTOURS_MINEURES
10
120.005
20
44.060
0
VERTEX
8
CONTOURS_MINEURES
10
120.366
20
44.643
0
VERTEX
8
CONTOURS_MINEURES
10
120.531
20
45.005
0
VERTEX
8
CONTOURS_MINEURES
10
120.733
20
45.734
0
VERTEX
8
CONTOURS_MINEURES
10
121.803
20
50.002
0
VERTEX
8
CONTOURS_MINEURES
10
121.867
20
53.134
0
VERTEX
8
CONTOURS_MINEURES
10
121.920
20
54.998
0
VERTEX
8
CONTOURS_MINEURES
10
121.830
20
56.826
0
VERTEX
8
CONTOURS_MINEURES
10
121.459
20
59.994
0
VERTEX
8
CONTOURS_MINEURES
10
121.380
20
63.622
0
VERTEX
8
CONTOURS_MINEURES
10
121.268
20
65.002
0
VERTEX
8
CONTOURS_MINEURES
10
120.767
20
69.235
0
VERTEX
8
CONTOURS_MINEURES
10
120.691
20
69.998
0
VERTEX
8
CONTOURS_MINEURES
10
120.581
20
70.575
0
VERTEX
8
CONTOURS_MINEURES
10
120.005
20
73.506
0
VERTEX
8
CONTOURS_MINEURES
10
119.695
20
74.995
0
VERTEX
8
CONTOURS_MINEURES
10
119.670
20
75.330
0
VERTEX
8
CONTOURS_MINEURES
10
118.576
20
80.002
0
VERTEX
8
CONTOURS_MINEURES
10
118.498
20
81.507
0
VERTEX
8
CONTOURS_MINEURES
10
117.952
20
84.999
0
VERTEX
8
CONTOURS_MINEURES
10
117.904
20
87.897
0
VERTEX
8
CONTOURS_MINEURES
10
117.753
20
89.995
0
VERTEX
8
CONTOURS_MINEURES
10
117.934
20
92.930
0
VERTEX
8
CONTOURS_MINEURES
10
117.927
20
95.002
0
VERTEX
8
CONTOURS_MINEURES
10
117.679
20
97.326
0
VERTEX
8
CONTOURS_MINEURES
10
118.190
20
99.999
0
VERTEX
8
CONTOURS_MINEURES
10
119.715
20
104.706
0
VERTEX
8
CONTOURS_MINEURES
10
119.734
20
104.995
0
VERTEX
8
CONTOURS_MINEURES
10
119.748
20
105.252
0
VERTEX
8
CONTOURS_MINEURES
10
120.005
20
105.529
0
VERTEX
8
CONTOURS_MINEURES
10
122.913
20
107.085
0
VERTEX
8
CONTOURS_MINEURES
10
124.996
20
107.499
0
SEQEND
0
POLYLINE
8
CONTOURS_MINEURES
66
1
70
0
0
VERTEX
8
CONTOURS_MINEURES
10
66.939
20
170.004
0
VERTEX
8
CONTOURS_MINEURES
10
68.754
20
166.248
0
VERTEX
8
CONTOURS_MINEURES
10
69.392
20
164.996
0
VERTEX
8
CONTOURS_MINEURES
10
70.004
20
164.052
0
VERTEX
8
CONTOURS_MINEURES
10
71.601
20
161.598
0
VERTEX
8
CONTOURS_MINEURES
10
72.614
20
160.000
0
VERTEX
8
CONTOURS_MINEURES
10
74.996
20
156.805
0
VERTEX
8
CONTOURS_MINEURES
10
75.797
20
155.804
0
VERTEX
8
CONTOURS_MINEURES
10
76.437
20
155.004
0
VERTEX
8
CONTOURS_MINEURES
10
78.048
20
153.051
0
VERTEX
8
CONTOURS_MINEURES
10
79.998
20
150.448
0
VERTEX
8
CONTOURS_MINEURES
10
80.308
20
149.996
0
VERTEX
8
CONTOURS_MINEURES
10
80.506
20
149.489
0
VERTEX
8
CONTOURS_MINEURES
10
82.623
20
145.000
0
VERTEX
8
CONTOURS_MINEURES
10
83.174
20
143.176
0
VERTEX
8
CONTOURS_MINEURES
10
83.788
20
140.003
0
VERTEX
8
CONTOURS_MINEURES
10
83.915
20
138.917
0
VERTEX
8
CONTOURS_MINEURES
10
84.310
20
134.996
0
VERTEX
8
CONTOURS_MINEURES
10
82.923
20
132.074
0
VERTEX
8
CONTOURS_MINEURES
10
82.132
20
129.999
0
VERTEX
8
CONTOURS_MINEURES
10
81.706
20
126.709
0
VERTEX
8
CONTOURS_MINEURES
10
81.567
20
125.003
0
VERTEX
8
CONTOURS_MINEURES
10
79.998
20
120.221
0
VERTEX
8
CONTOURS_MINEURES
10
79.944
20
120.049
0
VERTEX
8
CONTOURS_MINEURES
10
79.932
20
119.996
0
VERTEX
8
CONTOURS_MINEURES
10
79.894
20
119.892
0
VERTEX
8
CONTOURS_MINEURES
10
78.126
20
114.999
0
VERTEX
8
CONTOURS_MINEURES
10
76.840
20
111.845
0
VERTEX
8
CONTOURS_MINEURES
10
76.242
20
110.003
0
VERTEX
8
CONTOURS_MINEURES
10
75.849
20
109.149
0
VERTEX
8
CONTOURS_MINEURES
10
74.996
20
107.421
0
VERTEX
8
CONTOURS_MINEURES
10
73.621
20
104.995
0
VERTEX
8
CONTOURS_MINEURES
10
70.235
20
100.230
0
VERTEX
8
CONTOURS_MINEURES
10
70.071
20
99.999
0
VERTEX
8
CONTOURS_MINEURES
10
70.040
20
99.964
0
VERTEX
8
CONTOURS_MINEURES
10
70.004
20
99.911
0
VERTEX
8
CONTOURS_MINEURES
10
67.097
20
95.002
0
VERTEX
8
CONTOURS_MINEURES
10
66.318
20
93.685
0
VERTEX
8
CONTOURS_MINEURES
10
65.002
20
91.520
0
VERTEX
8
CONTOURS_MINEURES
10
64.354
20
90.644
0
VERTEX
8
CONTOURS_MINEURES
10
63.845
20
89.995
0
VERTEX
8
CONTOURS_MINEURES
10
62.240
20
87.757
0
VERTEX
8
CONTOURS_MINEURES
10
60.000
20
85.216
0
VERTEX
8
CONTOURS_MINEURES
10
59.926
20
85.073
0
VERTEX
8
CONTOURS_MINEURES
10
59.884
20
84.999
0
VERTEX
8
CONTOURS_MINEURES
10
58.120
20
81.880
0
VERTEX
8
CONTOURS_MINEURES
10
56.756
20
80.002
0
VERTEX
8
CONTOURS_MINEURES
10
54.998
20
77.745
0
VERTEX
8
CONTOURS_MINEURES
10
52.800
20
77.195
0
VERTEX
8
CONTOURS_MINEURES
10
49.996
20
76.374
0
VERTEX
8
CONTOURS_MINEURES
10
48.193
20
76.803
0
VERTEX
8
CONTOURS_MINEURES
10
45.727
20
74.995
0
VERTEX
8
CONTOURS_MINEURES
10
45.366
20
74.633
0
VERTEX
8
CONTOURS_MINEURES
10
45.004
20
74.187
0
VERTEX
8
CONTOURS_MINEURES
10
43.694
20
73.686
0
VERTEX
8
CONTOURS_MINEURES
10
40.002
20
71.612
0
VERTEX
8
CONTOURS_MINEURES
10
39.274
20
70.726
0
VERTEX
8
CONTOURS_MINEURES
10
35.000
20
70.234
0
VERTEX
8
CONTOURS_MINEURES
10
31.109
20
71.109
0
VERTEX
8
CONTOURS_MINEURES
10
29.998
20
70.821
0
VERTEX
8
CONTOURS_MINEURES
10
28.788
20
71.207
0
VERTEX
8
CONTOURS_MINEURES
10
24.996
20
71.978
0
VERTEX
8
CONTOURS_MINEURES
10
22.284
20
72.280
0
VERTEX
8
CONTOURS_MINEURES
10
20.004
20
72.704
0
VERTEX
8
CONTOURS_MINEURES
10
17.476
20
72.524
0
VERTEX
8
CONTOURS_MINEURES
10
15.002
20
72.420
0
VERTEX
8
CONTOURS_MINEURES
10
12.650
20
72.347
0
VERTEX
8
CONTOURS_MINEURES
10
10.000
20
72.297
0
VERTEX
8
CONTOURS_MINEURES
10
7.632
20
72.630
0
VERTEX
8
CONTOURS_MINEURES
10
4.998
20
72.955
0
VERTEX
8
CONTOURS_MINEURES
10
3.105
20
73.104
0
VERTEX
8
CONTOURS_MINEURES
10
-0.004
20
74.082
0
SEQEND
0
POLYLINE
8
CONTOURS_MINEURES
66
1
70
0
0
VERTEX
8
CONTOURS_MINEURES
10
98.263
20
0.004
0
VERTEX
8
CONTOURS_MINEURES
10
99.996
20
2.170
0
VERTEX
8
CONTOURS_MINEURES
10
101.237
20
3.761
0
VERTEX
8
CONTOURS_MINEURES
10
102.185
20
5.001
0
VERTEX
8
CONTOURS_MINEURES
10
103.403
20
6.595
0
VERTEX
8
CONTOURS_MINEURES
10
104.998
20
8.771
0
VERTEX
8
CONTOURS_MINEURES
10
105.516
20
9.480
0
VERTEX
8
CONTOURS_MINEURES
10
105.875
20
9.997
0
VERTEX
8
CONTOURS_MINEURES
10
107.227
20
12.229
0
VERTEX
8
CONTOURS_MINEURES
10
108.946
20
15.005
0
VERTEX
8
CONTOURS_MINEURES
10
109.320
20
15.684
0
VERTEX
8
CONTOURS_MINEURES
10
110.000
20
16.921
0
VERTEX
8
CONTOURS_MINEURES
10
110.666
20
19.336
0
VERTEX
8
CONTOURS_MINEURES
10
110.837
20
20.001
0
VERTEX
8
CONTOURS_MINEURES
10
111.097
20
21.097
0
VERTEX
8
CONTOURS_MINEURES
10
112.046
20
24.998
0
VERTEX
8
CONTOURS_MINEURES
10
112.453
20
27.549
0
VERTEX
8
CONTOURS_MINEURES
10
112.935
20
30.005
0
VERTEX
8
CONTOURS_MINEURES
10
113.396
20
33.396
0
VERTEX
8
CONTOURS_MINEURES
10
113.590
20
35.001
0
VERTEX
8
CONTOURS_MINEURES
10
113.703
20
36.299
0
VERTEX
8
CONTOURS_MINEURES
10
114.251
20
39.998
0
VERTEX
8
CONTOURS_MINEURES
10
115.003
20
44.192
0
VERTEX
8
CONTOURS_MINEURES
10
115.200
20
44.807
0
VERTEX
8
CONTOURS_MINEURES
10
115.352
20
45.005
0
VERTEX
8
CONTOURS_MINEURES
10
116.353
20
48.652
0
VERTEX
8
CONTOURS_MINEURES
10
116.832
20
50.002
0
VERTEX
8
CONTOURS_MINEURES
10
116.886
20
51.883
0
VERTEX
8
CONTOURS_MINEURES
10
117.169
20
54.998
0
VERTEX
8
CONTOURS_MINEURES
10
116.162
20
58.836
0
VERTEX
8
CONTOURS_MINEURES
10
115.973
20
59.994
0
VERTEX
8
CONTOURS_MINEURES
10
115.944
20
60.937
0
VERTEX
8
CONTOURS_MINEURES
10
115.744
20
65.002
0
VERTEX
8
CONTOURS_MINEURES
10
115.631
20
65.630
0
VERTEX
8
CONTOURS_MINEURES
10
115.489
20
69.998
0
VERTEX
8
CONTOURS_MINEURES
10
115.338
20
74.660
0
VERTEX
8
CONTOURS_MINEURES
10
115.268
20
74.995
0
VERTEX
8
CONTOURS_MINEURES
10
115.003
20
78.529
0
VERTEX
8
CONTOURS_MINEURES
10
114.773
20
80.002
0
VERTEX
8
CONTOURS_MINEURES
10
114.230
20
84.227
0
VERTEX
8
CONTOURS_MINEURES
10
114.453
20
84.999
0
VERTEX
8
CONTOURS_MINEURES
10
114.554
20
85.446
0
VERTEX
8
CONTOURS_MINEURES
10
114.144
20
89.995
0
VERTEX
8
CONTOURS_MINEURES
10
114.245
20
90.754
0
VERTEX
8
CONTOURS_MINEURES
10
114.229
20
95.002
0
VERTEX
8
CONTOURS_MINEURES
10
114.298
20
95.706
0
VERTEX
8
CONTOURS_MINEURES
10
113.908
20
99.999
0
VERTEX
8
CONTOURS_MINEURES
10
114.034
20
104.028
0
VERTEX
8
CONTOURS_MINEURES
10
114.093
20
104.995
0
VERTEX
8
CONTOURS_MINEURES
10
114.195
20
109.194
0
VERTEX
8
CONTOURS_MINEURES
10
114.192
20
110.003
0
VERTEX
8
CONTOURS_MINEURES
10
114.136
20
110.869
0
VERTEX
8
CONTOURS_MINEURES
10
114.699
20
114.999
0
VERTEX
8
CONTOURS_MINEURES
10
115.003
20
116.332
0
VERTEX
8
CONTOURS_MINEURES
10
116.670
20
116.665
0
VERTEX
8
CONTOURS_MINEURES
10
120.005
20
118.069
0
VERTEX
8
CONTOURS_MINEURES
10
122.581
20
117.417
0
VERTEX
8
CONTOURS_MINEURES
10
124.996
20
116.238
0
SEQEND
0
POLYLINE
8
CONTOURS_MINEURES
66
1
70
0
0
VERTEX
8
CONTOURS_MINEURES
10
72.217
20
170.004
0
VERTEX
8
CONTOURS_MINEURES
10
73.098
20
168.100
0
VERTEX
8
CONTOURS_MINEURES
10
74.510
20
164.996
0
VERTEX
8
CONTOURS_MINEURES
10
74.701
20
164.702
0
VERTEX
8
CONTOURS_MINEURES
10
74.996
20
164.237
0
VERTEX
8
CONTOURS_MINEURES
10
76.787
20
161.789
0
VERTEX
8
CONTOURS_MINEURES
10
77.878
20
160.000
0
VERTEX
8
CONTOURS_MINEURES
10
78.819
20
158.823
0
VERTEX
8
CONTOURS_MINEURES
10
79.998
20
157.349
0
VERTEX
8
CONTOURS_MINEURES
10
81.104
20
156.109
0
VERTEX
8
CONTOURS_MINEURES
10
81.815
20
155.004
0
VERTEX
8
CONTOURS_MINEURES
10
85.000
20
150.117
0
VERTEX
8
CONTOURS_MINEURES
10
85.049
20
150.045
0
VERTEX
8
CONTOURS_MINEURES
10
85.075
20
149.996
0
VERTEX
8
CONTOURS_MINEURES
10
86.497
20
146.495
0
VERTEX
8
CONTOURS_MINEURES
10
86.810
20
145.000
0
VERTEX
8
CONTOURS_MINEURES
10
86.825
20
143.177
0
VERTEX
8
CONTOURS_MINEURES
10
87.396
20
140.003
0
VERTEX
8
CONTOURS_MINEURES
10
87.622
20
137.620
0
VERTEX
8
CONTOURS_MINEURES
10
87.614
20
134.996
0
VERTEX
8
CONTOURS_MINEURES
10
85.974
20
130.972
0
VERTEX
8
CONTOURS_MINEURES
10
85.701
20
129.999
0
VERTEX
8
CONTOURS_MINEURES
10
85.682
20
129.318
0
VERTEX
8
CONTOURS_MINEURES
10
85.290
20
125.003
0
VERTEX
8
CONTOURS_MINEURES
10
85.000
20
124.322
0
VERTEX
8
CONTOURS_MINEURES
10
83.438
20
119.996
0
VERTEX
8
CONTOURS_MINEURES
10
82.401
20
117.595
0
VERTEX
8
CONTOURS_MINEURES
10
81.454
20
114.999
0
VERTEX
8
CONTOURS_MINEURES
10
80.022
20
110.026
0
VERTEX
8
CONTOURS_MINEURES
10
80.019
20
110.003
0
VERTEX
8
CONTOURS_MINEURES
10
79.998
20
109.962
0
VERTEX
8
CONTOURS_MINEURES
10
78.434
20
106.561
0
VERTEX
8
CONTOURS_MINEURES
10
77.661
20
104.995
0
VERTEX
8
CONTOURS_MINEURES
10
76.757
20
103.236
0
VERTEX
8
CONTOURS_MINEURES
10
74.996
20
100.713
0
VERTEX
8
CONTOURS_MINEURES
10
74.488
20
99.999
0
VERTEX
8
CONTOURS_MINEURES
10
72.377
20
97.624
0
VERTEX
8
CONTOURS_MINEURES
10
70.628
20
95.002
0
VERTEX
8
CONTOURS_MINEURES
10
70.004
20
94.065
0
VERTEX
8
CONTOURS_MINEURES
10
68.493
20
91.508
0
VERTEX
8
CONTOURS_MINEURES
10
67.573
20
89.995
0
VERTEX
8
CONTOURS_MINEURES
10
66.791
20
88.208
0
VERTEX
8
CONTOURS_MINEURES
10
65.002
20
85.517
0
VERTEX
8
CONTOURS_MINEURES
10
64.786
20
85.215
0
VERTEX
8
CONTOURS_MINEURES
10
64.595
20
84.999
0
VERTEX
8
CONTOURS_MINEURES
10
60.000
20
80.079
0
VERTEX
8
CONTOURS_MINEURES
10
59.972
20
80.030
0
VERTEX
8
CONTOURS_MINEURES
10
59.952
20
80.002
0
VERTEX
8
CONTOURS_MINEURES
10
59.783
20
79.785
0
VERTEX
8
CONTOURS_MINEURES
10
56.362
20
74.995
0
VERTEX
8
CONTOURS_MINEURES
10
55.786
20
74.208
0
VERTEX
8
CONTOURS_MINEURES
10
54.998
20
72.782
0
VERTEX
8
CONTOURS_MINEURES
10
52.074
20
69.998
0
VERTEX
8
CONTOURS_MINEURES
10
50.854
20
69.141
0
VERTEX
8
CONTOURS_MINEURES
10
49.996
20
68.851
0
VERTEX
8
CONTOURS_MINEURES
10
48.351
20
68.351
0
VERTEX
8
CONTOURS_MINEURES
10
45.004
20
67.282
0
VERTEX
8
CONTOURS_MINEURES
10
42.927
20
67.077
0
VERTEX
8
CONTOURS_MINEURES
10
40.002
20
67.056
0
VERTEX
8
CONTOURS_MINEURES
10
38.092
20
66.910
0
VERTEX
8
CONTOURS_MINEURES
10
35.000
20
66.969
0
VERTEX
8
CONTOURS_MINEURES
10
31.928
20
66.930
0
VERTEX
8
CONTOURS_MINEURES
10
29.998
20
67.239
0
VERTEX
8
CONTOURS_MINEURES
10
26.571
20
66.575
0
VERTEX
8
CONTOURS_MINEURES
10
24.996
20
67.112
0
VERTEX
8
CONTOURS_MINEURES
10
22.405
20
67.595
0
VERTEX
8
CONTOURS_MINEURES
10
20.004
20
68.091
0
VERTEX
8
CONTOURS_MINEURES
10
18.482
20
68.478
0
VERTEX
8
CONTOURS_MINEURES
10
15.002
20
68.302
0
VERTEX
8
CONTOURS_MINEURES
10
11.772
20
68.228
0
VERTEX
8
CONTOURS_MINEURES
10
10.000
20
68.432
0
VERTEX
8
CONTOURS_MINEURES
10
8.725
20
68.725
0
VERTEX
8
CONTOURS_MINEURES
10
4.998
20
69.230
0
VERTEX
8
CONTOURS_MINEURES
10
0.412
20
69.582
0
VERTEX
8
CONTOURS_MINEURES
10
-0.004
20
69.443
0
SEQEND
0
POLYLINE
8
CONTOURS_MINEURES
66
1
70
0
0
VERTEX
8
CONTOURS_MINEURES
10
93.499
20
0.004
0
VERTEX
8
CONTOURS_MINEURES
10
94.189
20
0.819
0
VERTEX
8
CONTOURS_MINEURES
10
95.005
20
1.728
0
VERTEX
8
CONTOURS_MINEURES
10
97.617
20
5.001
0
VERTEX
8
CONTOURS_MINEURES
10
99.996
20
7.981
0
VERTEX
8
CONTOURS_MINEURES
10
100.870
20
9.124
0
VERTEX
8
CONTOURS_MINEURES
10
101.510
20
9.997
0
VERTEX
8
CONTOURS_MINEURES
10
104.421
20
14.427
0
VERTEX
8
CONTOURS_MINEURES
10
104.797
20
15.005
0
VERTEX
8
CONTOURS_MINEURES
10
104.864
20
15.139
0
VERTEX
8
CONTOURS_MINEURES
10
104.998
20
15.343
0
VERTEX
8
CONTOURS_MINEURES
10
106.652
20
18.349
0
VERTEX
8
CONTOURS_MINEURES
10
107.561
20
20.001
0
VERTEX
8
CONTOURS_MINEURES
10
110.000
20
24.914
0
VERTEX
8
CONTOURS_MINEURES
10
110.021
20
24.998
0
VERTEX
8
CONTOURS_MINEURES
10
110.708
20
29.297
0
VERTEX
8
CONTOURS_MINEURES
10
110.846
20
30.005
0
VERTEX
8
CONTOURS_MINEURES
10
110.979
20
30.983
0
VERTEX
8
CONTOURS_MINEURES
10
111.466
20
35.001
0
VERTEX
8
CONTOURS_MINEURES
10
111.749
20
38.251
0
VERTEX
8
CONTOURS_MINEURES
10
112.008
20
39.998
0
VERTEX
8
CONTOURS_MINEURES
10
112.447
20
42.447
0
VERTEX
8
CONTOURS_MINEURES
10
112.579
20
45.005
0
VERTEX
8
CONTOURS_MINEURES
10
112.972
20
47.973
0
VERTEX
8
CONTOURS_MINEURES
10
112.735
20
50.002
0
VERTEX
8
CONTOURS_MINEURES
10
112.899
20
52.897
0
VERTEX
8
CONTOURS_MINEURES
10
112.553
20
54.998
0
VERTEX
8
CONTOURS_MINEURES
10
112.125
20
57.120
0
VERTEX
8
CONTOURS_MINEURES
10
111.586
20
59.994
0
VERTEX
8
CONTOURS_MINEURES
10
110.000
20
63.980
0
VERTEX
8
CONTOURS_MINEURES
10
109.655
20
65.002
0
VERTEX
8
CONTOURS_MINEURES
10
108.668
20
68.668
0
VERTEX
8
CONTOURS_MINEURES
10
108.459
20
69.998
0
VERTEX
8
CONTOURS_MINEURES
10
108.136
20
71.860
0
VERTEX
8
CONTOURS_MINEURES
10
107.904
20
74.995
0
VERTEX
8
CONTOURS_MINEURES
10
107.851
20
77.146
0
VERTEX
8
CONTOURS_MINEURES
10
108.110
20
80.002
0
VERTEX
8
CONTOURS_MINEURES
10
108.872
20
83.872
0
VERTEX
8
CONTOURS_MINEURES
10
109.084
20
84.999
0
VERTEX
8
CONTOURS_MINEURES
10
109.080
20
85.918
0
VERTEX
8
CONTOURS_MINEURES
10
109.834
20
89.995
0
VERTEX
8
CONTOURS_MINEURES
10
110.000
20
91.126
0
VERTEX
8
CONTOURS_MINEURES
10
110.455
20
94.547
0
VERTEX
8
CONTOURS_MINEURES
10
110.453
20
95.002
0
VERTEX
8
CONTOURS_MINEURES
10
110.860
20
99.140
0
VERTEX
8
CONTOURS_MINEURES
10
110.782
20
99.999
0
VERTEX
8
CONTOURS_MINEURES
10
110.807
20
100.805
0
VERTEX
8
CONTOURS_MINEURES
10
111.061
20
104.995
0
VERTEX
8
CONTOURS_MINEURES
10
111.088
20
106.084
0
VERTEX
8
CONTOURS_MINEURES
10
111.076
20
110.003
0
VERTEX
8
CONTOURS_MINEURES
10
110.801
20
114.200
0
VERTEX
8
CONTOURS_MINEURES
10
110.910
20
114.999
0
VERTEX
8
CONTOURS_MINEURES
10
111.177
20
116.175
0
VERTEX
8
CONTOURS_MINEURES
10
111.287
20
119.996
0
VERTEX
8
CONTOURS_MINEURES
10
111.876
20
121.873
0
VERTEX
8
CONTOURS_MINEURES
10
112.670
20
125.003
0
VERTEX
8
CONTOURS_MINEURES
10
113.045
20
126.958
0
VERTEX
8
CONTOURS_MINEURES
10
114.864
20
129.999
0
VERTEX
8
CONTOURS_MINEURES
10
115.003
20
130.063
0
VERTEX
8
CONTOURS_MINEURES
10
115.064
20
130.061
0
VERTEX
8
CONTOURS_MINEURES
10
120.005
20
130.539
0
VERTEX
8
CONTOURS_MINEURES
10
124.429
20
129.999
0
VERTEX
8
CONTOURS_MINEURES
10
124.739
20
129.742
0
VERTEX
8
CONTOURS_MINEURES
10
124.996
20
128.530
0
SEQEND
0
POLYLINE
8
CONTOURS_MINEURES
66
1
70
0
0
VERTEX
8
CONTOURS_MINEURES
10
77.872
20
170.004
0
VERTEX
8
CONTOURS_MINEURES
10
79.998
20
165.638
0
VERTEX
8
CONTOURS_MINEURES
10
80.211
20
165.210
0
VERTEX
8
CONTOURS_MINEURES
10
80.325
20
164.996
0
VERTEX
8
CONTOURS_MINEURES
10
80.942
20
164.054
0
VERTEX
8
CONTOURS_MINEURES
10
83.697
20
160.000
0
VERTEX
8
CONTOURS_MINEURES
10
84.311
20
159.311
0
VERTEX
8
CONTOURS_MINEURES
10
85.000
20
158.239
0
VERTEX
8
CONTOURS_MINEURES
10
86.382
20
156.384
0
VERTEX
8
CONTOURS_MINEURES
10
87.148
20
155.004
0
VERTEX
8
CONTOURS_MINEURES
10
88.297
20
153.297
0
VERTEX
8
CONTOURS_MINEURES
10
90.002
20
150.043
0
VERTEX
8
CONTOURS_MINEURES
10
90.021
20
150.014
0
VERTEX
8
CONTOURS_MINEURES
10
90.030
20
149.996
0
VERTEX
8
CONTOURS_MINEURES
10
90.035
20
149.963
0
VERTEX
8
CONTOURS_MINEURES
10
91.247
20
145.000
0
VERTEX
8
CONTOURS_MINEURES
10
91.150
20
143.854
0
VERTEX
8
CONTOURS_MINEURES
10
91.185
20
140.003
0
VERTEX
8
CONTOURS_MINEURES
10
91.167
20
136.162
0
VERTEX
8
CONTOURS_MINEURES
10
91.173
20
134.996
0
VERTEX
8
CONTOURS_MINEURES
10
91.460
20
133.540
0
VERTEX
8
CONTOURS_MINEURES
10
90.002
20
131.457
0
VERTEX
8
CONTOURS_MINEURES
10
89.594
20
129.999
0
VERTEX
8
CONTOURS_MINEURES
10
89.472
20
125.533
0
VERTEX
8
CONTOURS_MINEURES
10
89.424
20
125.003
0
VERTEX
8
CONTOURS_MINEURES
10
88.995
20
123.994
0
VERTEX
8
CONTOURS_MINEURES
10
87.907
20
119.996
0
VERTEX
8
CONTOURS_MINEURES
10
87.120
20
117.879
0
VERTEX
8
CONTOURS_MINEURES
10
85.000
20
115.487
0
VERTEX
8
CONTOURS_MINEURES
10
84.853
20
115.146
0
VERTEX
8
CONTOURS_MINEURES
10
84.800
20
114.999
0
VERTEX
8
CONTOURS_MINEURES
10
84.718
20
114.718
0
VERTEX
8
CONTOURS_MINEURES
10
84.102
20
110.003
0
VERTEX
8
CONTOURS_MINEURES
10
83.211
20
108.211
0
VERTEX
8
CONTOURS_MINEURES
10
81.819
20
104.995
0
VERTEX
8
CONTOURS_MINEURES
10
79.998
20
102.028
0
VERTEX
8
CONTOURS_MINEURES
10
79.309
20
100.687
0
VERTEX
8
CONTOURS_MINEURES
10
78.829
20
99.999
0
VERTEX
8
CONTOURS_MINEURES
10
74.996
20
95.599
0
VERTEX
8
CONTOURS_MINEURES
10
74.715
20
95.283
0
VERTEX
8
CONTOURS_MINEURES
10
74.528
20
95.002
0
VERTEX
8
CONTOURS_MINEURES
10
73.587
20
93.589
0
VERTEX
8
CONTOURS_MINEURES
10
71.317
20
89.995
0
VERTEX
8
CONTOURS_MINEURES
10
70.004
20
87.557
0
VERTEX
8
CONTOURS_MINEURES
10
69.226
20
85.777
0
VERTEX
8
CONTOURS_MINEURES
10
68.708
20
84.999
0
VERTEX
8
CONTOURS_MINEURES
10
66.704
20
81.702
0
VERTEX
8
CONTOURS_MINEURES
10
65.876
20
80.002
0
VERTEX
8
CONTOURS_MINEURES
10
65.002
20
78.908
0
VERTEX
8
CONTOURS_MINEURES
10
60.846
20
74.995
0
VERTEX
8
CONTOURS_MINEURES
10
60.000
20
74.317
0
VERTEX
8
CONTOURS_MINEURES
10
58.174
20
71.823
0
VERTEX
8
CONTOURS_MINEURES
10
57.166
20
69.998
0
VERTEX
8
CONTOURS_MINEURES
10
54.998
20
67.104
0
VERTEX
8
CONTOURS_MINEURES
10
53.762
20
66.237
0
VERTEX
8
CONTOURS_MINEURES
10
50.111
20
65.002
0
VERTEX
8
CONTOURS_MINEURES
10
50.025
20
64.973
0
VERTEX
8
CONTOURS_MINEURES
10
49.996
20
64.965
0
VERTEX
8
CONTOURS_MINEURES
10
46.139
20
63.864
0
VERTEX
8
CONTOURS_MINEURES
10
45.004
20
63.639
0
VERTEX
8
CONTOURS_MINEURES
10
43.511
20
63.507
0
VERTEX
8
CONTOURS_MINEURES
10
40.002
20
63.481
0
VERTEX
8
CONTOURS_MINEURES
10
36.440
20
63.560
0
VERTEX
8
CONTOURS_MINEURES
10
35.000
20
63.181
0
VERTEX
8
CONTOURS_MINEURES
10
31.877
20
63.121
0
VERTEX
8
CONTOURS_MINEURES
10
29.998
20
62.331
0
VERTEX
8
CONTOURS_MINEURES
10
28.264
20
61.730
0
VERTEX
8
CONTOURS_MINEURES
10
24.996
20
61.429
0
VERTEX
8
CONTOURS_MINEURES
10
21.959
20
61.956
0
VERTEX
8
CONTOURS_MINEURES
10
20.004
20
62.320
0
VERTEX
8
CONTOURS_MINEURES
10
16.989
20
63.013
0
VERTEX
8
CONTOURS_MINEURES
10
15.002
20
63.526
0
VERTEX
8
CONTOURS_MINEURES
10
13.873
20
63.871
0
VERTEX
8
CONTOURS_MINEURES
10
10.000
20
64.385
0
VERTEX
8
CONTOURS_MINEURES
10
7.671
20
65.002
0
VERTEX
8
CONTOURS_MINEURES
10
5.498
20
65.502
0
VERTEX
8
CONTOURS_MINEURES
10
4.998
20
65.569
0
VERTEX
8
CONTOURS_MINEURES
10
4.382
20
65.617
0
VERTEX
8
CONTOURS_MINEURES
10
2.536
20
65.002
0
VERTEX
8
CONTOURS_MINEURES
10
-0.004
20
64.112
0
SEQEND
0
POLYLINE
8
CONTOURS_MINEURES
66
1
70
0
0
VERTEX
8
CONTOURS_MINEURES
10
-0.004
20
6.979
0
VERTEX
8
CONTOURS_MINEURES
10
0.234
20
5.239
0
VERTEX
8
CONTOURS_MINEURES
10
0.250
20
5.001
0
VERTEX
8
CONTOURS_MINEURES
10
0.259
20
4.738
0
VERTEX
8
CONTOURS_MINEURES
10
0.611
20
0.004
0
SEQEND
0
POLYLINE
8
CONTOURS_MINEURES
66
1
70
0
0
VERTEX
8
CONTOURS_MINEURES
10
88.252
20
0.004
0
VERTEX
8
CONTOURS_MINEURES
10
89.076
20
0.930
0
VERTEX
8
CONTOURS_MINEURES
10
90.002
20
1.901
0
VERTEX
8
CONTOURS_MINEURES
10
91.426
20
3.579
0
VERTEX
8
CONTOURS_MINEURES
10
92.700
20
5.001
0
VERTEX
8
CONTOURS_MINEURES
10
95.005
20
7.732
0
VERTEX
8
CONTOURS_MINEURES
10
96.791
20
9.997
0
VERTEX
8
CONTOURS_MINEURES
10
97.933
20
12.067
0
VERTEX
8
CONTOURS_MINEURES
10
99.996
20
14.490
0
VERTEX
8
CONTOURS_MINEURES
10
100.331
20
15.005
0
VERTEX
8
CONTOURS_MINEURES
10
101.877
20
18.122
0
VERTEX
8
CONTOURS_MINEURES
10
103.116
20
20.001
0
VERTEX
8
CONTOURS_MINEURES
10
103.788
20
21.210
0
VERTEX
8
CONTOURS_MINEURES
10
104.998
20
23.688
0
VERTEX
8
CONTOURS_MINEURES
10
105.598
20
24.998
0
VERTEX
8
CONTOURS_MINEURES
10
105.923
20
25.924
0
VERTEX
8
CONTOURS_MINEURES
10
107.520
20
30.005
0
VERTEX
8
CONTOURS_MINEURES
10
108.169
20
31.834
0
VERTEX
8
CONTOURS_MINEURES
10
108.843
20
35.001
0
VERTEX
8
CONTOURS_MINEURES
10
109.538
20
39.536
0
VERTEX
8
CONTOURS_MINEURES
10
109.627
20
39.998
0
VERTEX
8
CONTOURS_MINEURES
10
109.643
20
40.355
0
VERTEX
8
CONTOURS_MINEURES
10
109.982
20
45.005
0
VERTEX
8
CONTOURS_MINEURES
10
109.418
20
49.420
0
VERTEX
8
CONTOURS_MINEURES
10
109.348
20
50.002
0
VERTEX
8
CONTOURS_MINEURES
10
109.186
20
50.816
0
VERTEX
8
CONTOURS_MINEURES
10
108.544
20
54.998
0
VERTEX
8
CONTOURS_MINEURES
10
108.013
20
58.009
0
VERTEX
8
CONTOURS_MINEURES
10
107.715
20
59.994
0
VERTEX
8
CONTOURS_MINEURES
10
106.822
20
63.176
0
VERTEX
8
CONTOURS_MINEURES
10
106.206
20
65.002
0
VERTEX
8
CONTOURS_MINEURES
10
105.950
20
65.952
0
VERTEX
8
CONTOURS_MINEURES
10
105.313
20
69.998
0
VERTEX
8
CONTOURS_MINEURES
10
104.998
20
71.815
0
VERTEX
8
CONTOURS_MINEURES
10
104.479
20
74.476
0
VERTEX
8
CONTOURS_MINEURES
10
104.373
20
74.995
0
VERTEX
8
CONTOURS_MINEURES
10
104.266
20
79.269
0
VERTEX
8
CONTOURS_MINEURES
10
104.104
20
80.002
0
VERTEX
8
CONTOURS_MINEURES
10
104.003
20
80.997
0
VERTEX
8
CONTOURS_MINEURES
10
104.998
20
84.467
0
VERTEX
8
CONTOURS_MINEURES
10
105.098
20
84.999
0
VERTEX
8
CONTOURS_MINEURES
10
105.078
20
89.915
0
VERTEX
8
CONTOURS_MINEURES
10
105.093
20
89.995
0
VERTEX
8
CONTOURS_MINEURES
10
105.109
20
90.106
0
VERTEX
8
CONTOURS_MINEURES
10
105.190
20
95.002
0
VERTEX
8
CONTOURS_MINEURES
10
105.221
20
95.225
0
VERTEX
8
CONTOURS_MINEURES
10
104.998
20
98.889
0
VERTEX
8
CONTOURS_MINEURES
10
104.903
20
99.904
0
VERTEX
8
CONTOURS_MINEURES
10
104.826
20
99.999
0
VERTEX
8
CONTOURS_MINEURES
10
103.682
20
103.680
0
VERTEX
8
CONTOURS_MINEURES
10
101.548
20
104.995
0
VERTEX
8
CONTOURS_MINEURES
10
99.996
20
106.247
0
VERTEX
8
CONTOURS_MINEURES
10
98.447
20
106.549
0
VERTEX
8
CONTOURS_MINEURES
10
95.005
20
106.873
0
VERTEX
8
CONTOURS_MINEURES
10
90.002
20
104.995
0
VERTEX
8
CONTOURS_MINEURES
10
88.231
20
101.768
0
VERTEX
8
CONTOURS_MINEURES
10
85.854
20
99.999
0
VERTEX
8
CONTOURS_MINEURES
10
85.000
20
99.204
0
VERTEX
8
CONTOURS_MINEURES
10
83.989
20
96.013
0
VERTEX
8
CONTOURS_MINEURES
10
81.573
20
95.002
0
VERTEX
8
CONTOURS_MINEURES
10
80.662
20
94.337
0
VERTEX
8
CONTOURS_MINEURES
10
79.998
20
93.482
0
VERTEX
8
CONTOURS_MINEURES
10
77.129
20
89.995
0
VERTEX
8
CONTOURS_MINEURES
10
76.175
20
88.817
0
VERTEX
8
CONTOURS_MINEURES
10
74.996
20
87.800
0
VERTEX
8
CONTOURS_MINEURES
10
73.928
20
84.999
0
VERTEX
8
CONTOURS_MINEURES
10
72.667
20
82.334
0
VERTEX
8
CONTOURS_MINEURES
10
71.352
20
80.002
0
VERTEX
8
CONTOURS_MINEURES
10
70.718
20
79.287
0
VERTEX
8
CONTOURS_MINEURES
10
70.004
20
78.358
0
VERTEX
8
CONTOURS_MINEURES
10
67.387
20
74.995
0
VERTEX
8
CONTOURS_MINEURES
10
65.002
20
72.792
0
VERTEX
8
CONTOURS_MINEURES
10
61.557
20
69.998
0
VERTEX
8
CONTOURS_MINEURES
10
60.698
20
69.302
0
VERTEX
8
CONTOURS_MINEURES
10
60.000
20
68.858
0
VERTEX
8
CONTOURS_MINEURES
10
57.097
20
65.002
0
VERTEX
8
CONTOURS_MINEURES
10
56.207
20
63.792
0
VERTEX
8
CONTOURS_MINEURES
10
54.998
20
62.752
0
VERTEX
8
CONTOURS_MINEURES
10
52.942
20
62.053
0
VERTEX
8
CONTOURS_MINEURES
10
49.996
20
61.310
0
VERTEX
8
CONTOURS_MINEURES
10
48.975
20
61.019
0
VERTEX
8
CONTOURS_MINEURES
10
45.004
20
60.233
0
VERTEX
8
CONTOURS_MINEURES
10
42.311
20
59.994
0
VERTEX
8
CONTOURS_MINEURES
10
40.002
20
59.692
0
VERTEX
8
CONTOURS_MINEURES
10
39.436
20
59.429
0
VERTEX
8
CONTOURS_MINEURES
10
35.000
20
57.915
0
VERTEX
8
CONTOURS_MINEURES
10
32.402
20
57.399
0
VERTEX
8
CONTOURS_MINEURES
10
29.998
20
56.611
0
VERTEX
8
CONTOURS_MINEURES
10
28.514
20
56.480
0
VERTEX
8
CONTOURS_MINEURES
10
24.996
20
56.787
0
VERTEX
8
CONTOURS_MINEURES
10
22.258
20
57.254
0
VERTEX
8
CONTOURS_MINEURES
10
20.004
20
57.560
0
VERTEX
8
CONTOURS_MINEURES
10
18.048
20
58.040
0
VERTEX
8
CONTOURS_MINEURES
10
15.002
20
58.649
0
VERTEX
8
CONTOURS_MINEURES
10
10.214
20
59.781
0
VERTEX
8
CONTOURS_MINEURES
10
10.000
20
59.818
0
VERTEX
8
CONTOURS_MINEURES
10
9.069
20
59.994
0
VERTEX
8
CONTOURS_MINEURES
10
4.998
20
60.854
0
VERTEX
8
CONTOURS_MINEURES
10
2.985
20
59.994
0
VERTEX
8
CONTOURS_MINEURES
10
0.905
20
59.086
0
VERTEX
8
CONTOURS_MINEURES
10
-0.004
20
58.518
0
SEQEND
0
POLYLINE
8
CONTOURS_MINEURES
66
1
70
0
0
VERTEX
8
CONTOURS_MINEURES
10
84.204
20
170.004
0
VERTEX
8
CONTOURS_MINEURES
10
84.468
20
169.471
0
VERTEX
8
CONTOURS_MINEURES
10
85.000
20
168.477
0
VERTEX
8
CONTOURS_MINEURES
10
86.256
20
166.254
0
VERTEX
8
CONTOURS_MINEURES
10
86.852
20
164.996
0
VERTEX
8
CONTOURS_MINEURES
10
89.455
20
160.546
0
VERTEX
8
CONTOURS_MINEURES
10
89.789
20
160.000
0
VERTEX
8
CONTOURS_MINEURES
10
89.880
20
159.878
0
VERTEX
8
CONTOURS_MINEURES
10
90.002
20
159.657
0
VERTEX
8
CONTOURS_MINEURES
10
92.831
20
155.004
0
VERTEX
8
CONTOURS_MINEURES
10
93.672
20
153.670
0
VERTEX
8
CONTOURS_MINEURES
10
95.005
20
151.030
0
VERTEX
8
CONTOURS_MINEURES
10
95.613
20
149.996
0
VERTEX
8
CONTOURS_MINEURES
10
95.782
20
149.218
0
VERTEX
8
CONTOURS_MINEURES
10
96.614
20
145.000
0
VERTEX
8
CONTOURS_MINEURES
10
96.188
20
141.188
0
VERTEX
8
CONTOURS_MINEURES
10
96.511
20
140.003
0
VERTEX
8
CONTOURS_MINEURES
10
98.554
20
136.442
0
VERTEX
8
CONTOURS_MINEURES
10
98.585
20
134.996
0
VERTEX
8
CONTOURS_MINEURES
10
99.267
20
134.266
0
VERTEX
8
CONTOURS_MINEURES
10
99.996
20
133.643
0
VERTEX
8
CONTOURS_MINEURES
10
101.508
20
133.485
0
VERTEX
8
CONTOURS_MINEURES
10
104.998
20
132.025
0
VERTEX
8
CONTOURS_MINEURES
10
106.441
20
131.441
0
VERTEX
8
CONTOURS_MINEURES
10
110.000
20
132.237
0
VERTEX
8
CONTOURS_MINEURES
10
111.745
20
131.742
0
VERTEX
8
CONTOURS_MINEURES
10
115.003
20
133.225
0
VERTEX
8
CONTOURS_MINEURES
10
118.133
20
133.126
0
VERTEX
8
CONTOURS_MINEURES
10
120.005
20
133.307
0
VERTEX
8
CONTOURS_MINEURES
10
121.926
20
133.073
0
VERTEX
8
CONTOURS_MINEURES
10
124.996
20
132.891
0
SEQEND
0
POLYLINE
8
CONTOURS_MINEURES
66
1
70
0
0
VERTEX
8
CONTOURS_MINEURES
10
-0.004
20
25.641
0
VERTEX
8
CONTOURS_MINEURES
10
0.122
20
25.124
0
VERTEX
8
CONTOURS_MINEURES
10
0.137
20
24.998
0
VERTEX
8
CONTOURS_MINEURES
10
0.809
20
20.814
0
VERTEX
8
CONTOURS_MINEURES
10
0.911
20
20.001
0
VERTEX
8
CONTOURS_MINEURES
10
1.034
20
18.964
0
VERTEX
8
CONTOURS_MINEURES
10
1.599
20
15.005
0
VERTEX
8
CONTOURS_MINEURES
10
2.134
20
12.138
0
VERTEX
8
CONTOURS_MINEURES
10
2.433
20
9.997
0
VERTEX
8
CONTOURS_MINEURES
10
2.741
20
7.743
0
VERTEX
8
CONTOURS_MINEURES
10
2.933
20
5.001
0
VERTEX
8
CONTOURS_MINEURES
10
3.030
20
1.970
0
VERTEX
8
CONTOURS_MINEURES
10
3.176
20
0.004
0
SEQEND
0
POLYLINE
8
CONTOURS_MINEURES
66
1
70
0
0
VERTEX
8
CONTOURS_MINEURES
10
82.356
20
0.004
0
VERTEX
8
CONTOURS_MINEURES
10
83.648
20
1.355
0
VERTEX
8
CONTOURS_MINEURES
10
85.000
20
2.596
0
VERTEX
8
CONTOURS_MINEURES
10
86.133
20
3.869
0
VERTEX
8
CONTOURS_MINEURES
10
87.214
20
5.001
0
VERTEX
8
CONTOURS_MINEURES
10
88.401
20
6.600
0
VERTEX
8
CONTOURS_MINEURES
10
90.002
20
8.414
0
VERTEX
8
CONTOURS_MINEURES
10
91.311
20
9.997
0
VERTEX
8
CONTOURS_MINEURES
10
92.711
20
12.293
0
VERTEX
8
CONTOURS_MINEURES
10
94.578
20
15.005
0
VERTEX
8
CONTOURS_MINEURES
10
95.005
20
15.635
0
VERTEX
8
CONTOURS_MINEURES
10
97.836
20
20.001
0
VERTEX
8
CONTOURS_MINEURES
10
99.996
20
23.302
0
VERTEX
8
CONTOURS_MINEURES
10
100.601
20
24.393
0
VERTEX
8
CONTOURS_MINEURES
10
100.897
20
24.998
0
VERTEX
8
CONTOURS_MINEURES
10
101.621
20
26.624
0
VERTEX
8
CONTOURS_MINEURES
10
103.143
20
30.005
0
VERTEX
8
CONTOURS_MINEURES
10
103.572
20
31.430
0
VERTEX
8
CONTOURS_MINEURES
10
104.998
20
34.649
0
VERTEX
8
CONTOURS_MINEURES
10
105.091
20
34.909
0
VERTEX
8
CONTOURS_MINEURES
10
105.110
20
35.001
0
VERTEX
8
CONTOURS_MINEURES
10
105.130
20
35.133
0
VERTEX
8
CONTOURS_MINEURES
10
106.066
20
39.998
0
VERTEX
8
CONTOURS_MINEURES
10
106.240
20
43.762
0
VERTEX
8
CONTOURS_MINEURES
10
106.331
20
45.005
0
VERTEX
8
CONTOURS_MINEURES
10
106.180
20
46.186
0
VERTEX
8
CONTOURS_MINEURES
10
105.723
20
50.002
0
VERTEX
8
CONTOURS_MINEURES
10
104.998
20
53.635
0
VERTEX
8
CONTOURS_MINEURES
10
104.657
20
54.998
0
VERTEX
8
CONTOURS_MINEURES
10
103.940
20
58.938
0
VERTEX
8
CONTOURS_MINEURES
10
103.852
20
59.994
0
VERTEX
8
CONTOURS_MINEURES
10
102.934
20
62.935
0
VERTEX
8
CONTOURS_MINEURES
10
102.634
20
65.002
0
VERTEX
8
CONTOURS_MINEURES
10
102.195
20
67.802
0
VERTEX
8
CONTOURS_MINEURES
10
101.805
20
69.998
0
VERTEX
8
CONTOURS_MINEURES
10
101.510
20
71.511
0
VERTEX
8
CONTOURS_MINEURES
10
100.800
20
74.995
0
VERTEX
8
CONTOURS_MINEURES
10
100.780
20
75.780
0
VERTEX
8
CONTOURS_MINEURES
10
99.996
20
79.328
0
VERTEX
8
CONTOURS_MINEURES
10
99.719
20
80.002
0
VERTEX
8
CONTOURS_MINEURES
10
98.964
20
83.966
0
VERTEX
8
CONTOURS_MINEURES
10
98.508
20
84.999
0
VERTEX
8
CONTOURS_MINEURES
10
96.632
20
88.366
0
VERTEX
8
CONTOURS_MINEURES
10
96.044
20
89.995
0
VERTEX
8
CONTOURS_MINEURES
10
95.673
20
90.666
0
VERTEX
8
CONTOURS_MINEURES
10
95.005
20
91.068
0
VERTEX
8
CONTOURS_MINEURES
10
94.239
20
90.761
0
VERTEX
8
CONTOURS_MINEURES
10
90.002
20
90.804
0
VERTEX
8
CONTOURS_MINEURES
10
89.240
20
89.995
0
VERTEX
8
CONTOURS_MINEURES
10
87.487
20
87.511
0
VERTEX
8
CONTOURS_MINEURES
10
85.000
20
85.214
0
VERTEX
8
CONTOURS_MINEURES
10
84.818
20
84.999
0
VERTEX
8
CONTOURS_MINEURES
10
82.274
20
82.726
0
VERTEX
8
CONTOURS_MINEURES
10
79.998
20
80.622
0
VERTEX
8
CONTOURS_MINEURES
10
79.217
20
80.002
0
VERTEX
8
CONTOURS_MINEURES
10
74.996
20
77.205
0
VERTEX
8
CONTOURS_MINEURES
10
73.959
20
76.035
0
VERTEX
8
CONTOURS_MINEURES
10
73.160
20
74.995
0
VERTEX
8
CONTOURS_MINEURES
10
71.823
20
73.175
0
VERTEX
8
CONTOURS_MINEURES
10
70.004
20
71.723
0
VERTEX
8
CONTOURS_MINEURES
10
68.121
20
69.998
0
VERTEX
8
CONTOURS_MINEURES
10
66.603
20
68.399
0
VERTEX
8
CONTOURS_MINEURES
10
65.002
20
67.420
0
VERTEX
8
CONTOURS_MINEURES
10
63.666
20
66.336
0
VERTEX
8
CONTOURS_MINEURES
10
61.566
20
65.002
0
VERTEX
8
CONTOURS_MINEURES
10
60.735
20
64.266
0
VERTEX
8
CONTOURS_MINEURES
10
60.000
20
63.986
0
VERTEX
8
CONTOURS_MINEURES
10
58.308
20
61.688
0
VERTEX
8
CONTOURS_MINEURES
10
56.340
20
59.994
0
VERTEX
8
CONTOURS_MINEURES
10
54.998
20
58.604
0
VERTEX
8
CONTOURS_MINEURES
10
52.274
20
57.719
0
VERTEX
8
CONTOURS_MINEURES
10
49.996
20
57.152
0
VERTEX
8
CONTOURS_MINEURES
10
48.285
20
56.711
0
VERTEX
8
CONTOURS_MINEURES
10
45.004
20
56.040
0
VERTEX
8
CONTOURS_MINEURES
10
41.114
20
54.998
0
VERTEX
8
CONTOURS_MINEURES
10
40.377
20
54.624
0
VERTEX
8
CONTOURS_MINEURES
10
40.002
20
54.512
0
VERTEX
8
CONTOURS_MINEURES
10
39.316
20
54.312
0
VERTEX
8
CONTOURS_MINEURES
10
35.000
20
52.268
0
VERTEX
8
CONTOURS_MINEURES
10
33.052
20
51.947
0
VERTEX
8
CONTOURS_MINEURES
10
29.998
20
51.806
0
VERTEX
8
CONTOURS_MINEURES
10
27.110
20
52.113
0
VERTEX
8
CONTOURS_MINEURES
10
24.996
20
52.306
0
VERTEX
8
CONTOURS_MINEURES
10
22.195
20
52.805
0
VERTEX
8
CONTOURS_MINEURES
10
20.004
20
53.282
0
VERTEX
8
CONTOURS_MINEURES
10
18.646
20
53.642
0
VERTEX
8
CONTOURS_MINEURES
10
15.002
20
54.548
0
VERTEX
8
CONTOURS_MINEURES
10
12.376
20
54.998
0
VERTEX
8
CONTOURS_MINEURES
10
10.000
20
55.416
0
VERTEX
8
CONTOURS_MINEURES
10
9.483
20
55.514
0
VERTEX
8
CONTOURS_MINEURES
10
4.998
20
55.852
0
VERTEX
8
CONTOURS_MINEURES
10
4.403
20
55.592
0
VERTEX
8
CONTOURS_MINEURES
10
3.452
20
54.998
0
VERTEX
8
CONTOURS_MINEURES
10
-0.004
20
52.286
0
SEQEND
0
POLYLINE
8
CONTOURS_MINEURES
66
1
70
0
0
VERTEX
8
CONTOURS_MINEURES
10
121.120
20
170.004
0
VERTEX
8
CONTOURS_MINEURES
10
120.005
20
169.191
0
VERTEX
8
CONTOURS_MINEURES
10
116.727
20
170.004
0
SEQEND
0
POLYLINE
8
CONTOURS_MINEURES
66
1
70
0
0
VERTEX
8
CONTOURS_MINEURES
10
92.384
20
170.004
0
VERTEX
8
CONTOURS_MINEURES
10
93.791
20
168.789
0
VERTEX
8
CONTOURS_MINEURES
10
94.406
20
164.996
0
VERTEX
8
CONTOURS_MINEURES
10
94.666
20
164.659
0
VERTEX
8
CONTOURS_MINEURES
10
95.005
20
163.790
0
VERTEX
8
CONTOURS_MINEURES
10
97.588
20
160.000
0
VERTEX
8
CONTOURS_MINEURES
10
98.778
20
158.781
0
VERTEX
8
CONTOURS_MINEURES
10
99.996
20
155.547
0
VERTEX
8
CONTOURS_MINEURES
10
100.280
20
155.287
0
VERTEX
8
CONTOURS_MINEURES
10
100.294
20
155.004
0
VERTEX
8
CONTOURS_MINEURES
10
102.215
20
152.218
0
VERTEX
8
CONTOURS_MINEURES
10
102.667
20
149.996
0
VERTEX
8
CONTOURS_MINEURES
10
103.188
20
148.188
0
VERTEX
8
CONTOURS_MINEURES
10
104.998
20
145.491
0
VERTEX
8
CONTOURS_MINEURES
10
105.219
20
145.220
0
VERTEX
8
CONTOURS_MINEURES
10
105.498
20
145.000
0
VERTEX
8
CONTOURS_MINEURES
10
110.000
20
141.826
0
VERTEX
8
CONTOURS_MINEURES
10
112.248
20
142.248
0
VERTEX
8
CONTOURS_MINEURES
10
115.003
20
140.960
0
VERTEX
8
CONTOURS_MINEURES
10
115.419
20
140.420
0
VERTEX
8
CONTOURS_MINEURES
10
115.753
20
140.003
0
VERTEX
8
CONTOURS_MINEURES
10
120.005
20
138.024
0
VERTEX
8
CONTOURS_MINEURES
10
121.991
20
136.989
0
VERTEX
8
CONTOURS_MINEURES
10
124.996
20
136.646
0
SEQEND
0
POLYLINE
8
CONTOURS_MINEURES
66
1
70
0
0
VERTEX
8
CONTOURS_MINEURES
10
74.996
20
0.004
0
VERTEX
8
CONTOURS_MINEURES
10
79.998
20
4.201
0
VERTEX
8
CONTOURS_MINEURES
10
80.389
20
4.610
0
VERTEX
8
CONTOURS_MINEURES
10
80.815
20
5.001
0
VERTEX
8
CONTOURS_MINEURES
10
85.000
20
9.765
0
VERTEX
8
CONTOURS_MINEURES
10
85.099
20
9.898
0
VERTEX
8
CONTOURS_MINEURES
10
85.187
20
9.997
0
VERTEX
8
CONTOURS_MINEURES
10
85.536
20
10.534
0
VERTEX
8
CONTOURS_MINEURES
10
88.449
20
15.005
0
VERTEX
8
CONTOURS_MINEURES
10
89.051
20
15.955
0
VERTEX
8
CONTOURS_MINEURES
10
90.002
20
17.276
0
VERTEX
8
CONTOURS_MINEURES
10
91.844
20
20.001
0
VERTEX
8
CONTOURS_MINEURES
10
92.968
20
22.035
0
VERTEX
8
CONTOURS_MINEURES
10
95.005
20
24.811
0
VERTEX
8
CONTOURS_MINEURES
10
95.125
20
24.998
0
VERTEX
8
CONTOURS_MINEURES
10
96.418
20
28.587
0
VERTEX
8
CONTOURS_MINEURES
10
97.462
20
30.005
0
VERTEX
8
CONTOURS_MINEURES
10
99.845
20
34.850
0
VERTEX
8
CONTOURS_MINEURES
10
99.912
20
35.001
0
VERTEX
8
CONTOURS_MINEURES
10
99.949
20
35.049
0
VERTEX
8
CONTOURS_MINEURES
10
99.996
20
35.108
0
VERTEX
8
CONTOURS_MINEURES
10
101.980
20
39.998
0
VERTEX
8
CONTOURS_MINEURES
10
102.097
20
42.101
0
VERTEX
8
CONTOURS_MINEURES
10
101.409
20
45.005
0
VERTEX
8
CONTOURS_MINEURES
10
100.461
20
49.538
0
VERTEX
8
CONTOURS_MINEURES
10
100.372
20
50.002
0
VERTEX
8
CONTOURS_MINEURES
10
100.148
20
54.847
0
VERTEX
8
CONTOURS_MINEURES
10
100.110
20
54.998
0
VERTEX
8
CONTOURS_MINEURES
10
100.092
20
55.094
0
VERTEX
8
CONTOURS_MINEURES
10
99.996
20
56.247
0
VERTEX
8
CONTOURS_MINEURES
10
99.402
20
59.994
0
VERTEX
8
CONTOURS_MINEURES
10
99.173
20
60.820
0
VERTEX
8
CONTOURS_MINEURES
10
97.900
20
65.002
0
VERTEX
8
CONTOURS_MINEURES
10
97.185
20
67.184
0
VERTEX
8
CONTOURS_MINEURES
10
96.233
20
69.998
0
VERTEX
8
CONTOURS_MINEURES
10
95.005
20
72.905
0
VERTEX
8
CONTOURS_MINEURES
10
94.084
20
74.075
0
VERTEX
8
CONTOURS_MINEURES
10
92.834
20
74.995
0
VERTEX
8
CONTOURS_MINEURES
10
90.002
20
77.053
0
VERTEX
8
CONTOURS_MINEURES
10
86.885
20
76.882
0
VERTEX
8
CONTOURS_MINEURES
10
85.000
20
76.310
0
VERTEX
8
CONTOURS_MINEURES
10
84.384
20
75.612
0
VERTEX
8
CONTOURS_MINEURES
10
82.450
20
74.995
0
VERTEX
8
CONTOURS_MINEURES
10
79.998
20
73.652
0
VERTEX
8
CONTOURS_MINEURES
10
78.331
20
71.664
0
VERTEX
8
CONTOURS_MINEURES
10
75.523
20
69.998
0
VERTEX
8
CONTOURS_MINEURES
10
74.996
20
69.665
0
VERTEX
8
CONTOURS_MINEURES
10
71.668
20
66.667
0
VERTEX
8
CONTOURS_MINEURES
10
70.004
20
65.139
0
VERTEX
8
CONTOURS_MINEURES
10
69.938
20
65.069
0
VERTEX
8
CONTOURS_MINEURES
10
69.829
20
65.002
0
VERTEX
8
CONTOURS_MINEURES
10
65.002
20
61.280
0
VERTEX
8
CONTOURS_MINEURES
10
64.321
20
60.676
0
VERTEX
8
CONTOURS_MINEURES
10
62.534
20
59.994
0
VERTEX
8
CONTOURS_MINEURES
10
60.000
20
58.270
0
VERTEX
8
CONTOURS_MINEURES
10
56.941
20
54.998
0
VERTEX
8
CONTOURS_MINEURES
10
56.016
20
53.981
0
VERTEX
8
CONTOURS_MINEURES
10
54.998
20
52.202
0
VERTEX
8
CONTOURS_MINEURES
10
50.484
20
50.002
0
VERTEX
8
CONTOURS_MINEURES
10
49.996
20
49.831
0
VERTEX
8
CONTOURS_MINEURES
10
45.967
20
49.038
0
VERTEX
8
CONTOURS_MINEURES
10
45.004
20
48.887
0
VERTEX
8
CONTOURS_MINEURES
10
43.667
20
48.666
0
VERTEX
8
CONTOURS_MINEURES
10
40.002
20
47.573
0
VERTEX
8
CONTOURS_MINEURES
10
38.012
20
46.993
0
VERTEX
8
CONTOURS_MINEURES
10
35.000
20
46.690
0
VERTEX
8
CONTOURS_MINEURES
10
31.665
20
46.671
0
VERTEX
8
CONTOURS_MINEURES
10
29.998
20
46.577
0
VERTEX
8
CONTOURS_MINEURES
10
28.191
20
46.810
0
VERTEX
8
CONTOURS_MINEURES
10
24.996
20
46.967
0
VERTEX
8
CONTOURS_MINEURES
10
22.487
20
47.491
0
VERTEX
8
CONTOURS_MINEURES
10
20.004
20
48.336
0
VERTEX
8
CONTOURS_MINEURES
10
15.986
20
50.002
0
VERTEX
8
CONTOURS_MINEURES
10
15.208
20
50.208
0
VERTEX
8
CONTOURS_MINEURES
10
15.002
20
50.259
0
VERTEX
8
CONTOURS_MINEURES
10
14.691
20
50.312
0
VERTEX
8
CONTOURS_MINEURES
10
12.779
20
50.002
0
VERTEX
8
CONTOURS_MINEURES
10
10.000
20
49.314
0
VERTEX
8
CONTOURS_MINEURES
10
6.238
20
48.763
0
VERTEX
8
CONTOURS_MINEURES
10
4.998
20
48.354
0
VERTEX
8
CONTOURS_MINEURES
10
3.414
20
46.587
0
VERTEX
8
CONTOURS_MINEURES
10
2.415
20
45.005
0
VERTEX
8
CONTOURS_MINEURES
10
1.408
20
43.592
0
VERTEX
8
CONTOURS_MINEURES
10
0.920
20
39.998
0
VERTEX
8
CONTOURS_MINEURES
10
1.764
20
36.767
0
VERTEX
8
CONTOURS_MINEURES
10
1.573
20
35.001
0
VERTEX
8
CONTOURS_MINEURES
10
1.787
20
33.212
0
VERTEX
8
CONTOURS_MINEURES
10
2.427
20
30.005
0
VERTEX
8
CONTOURS_MINEURES
10
2.932
20
27.937
0
VERTEX
8
CONTOURS_MINEURES
10
3.283
20
24.998
0
VERTEX
8
CONTOURS_MINEURES
10
3.520
20
23.522
0
VERTEX
8
CONTOURS_MINEURES
10
3.961
20
20.001
0
VERTEX
8
CONTOURS_MINEURES
10
4.496
20
15.506
0
VERTEX
8
CONTOURS_MINEURES
10
4.567
20
15.005
0
VERTEX
8
CONTOURS_MINEURES
10
4.635
20
14.642
0
VERTEX
8
CONTOURS_MINEURES
10
4.998
20
12.041
0
VERTEX
8
CONTOURS_MINEURES
10
5.688
20
9.997
0
VERTEX
8
CONTOURS_MINEURES
10
5.853
20
9.143
0
VERTEX
8
CONTOURS_MINEURES
10
6.607
20
5.001
0
VERTEX
8
CONTOURS_MINEURES
10
6.870
20
1.874
0
VERTEX
8
CONTOURS_MINEURES
10
7.319
20
0.004
0
SEQEND
0
POLYLINE
8
CONTOURS_MINEURES
66
1
70
0
0
VERTEX
8
CONTOURS_MINEURES
10
124.996
20
161.370
0
VERTEX
8
CONTOURS_MINEURES
10
124.283
20
160.714
0
VERTEX
8
CONTOURS_MINEURES
10
120.005
20
160.000
0
VERTEX
8
CONTOURS_MINEURES
10
115.099
20
160.096
0
VERTEX
8
CONTOURS_MINEURES
10
115.003
20
160.103
0
VERTEX
8
CONTOURS_MINEURES
10
114.908
20
160.094
0
VERTEX
8
CONTOURS_MINEURES
10
114.844
20
160.000
0
VERTEX
8
CONTOURS_MINEURES
10
114.827
20
159.825
0
VERTEX
8
CONTOURS_MINEURES
10
114.586
20
155.004
0
VERTEX
8
CONTOURS_MINEURES
10
115.003
20
154.691
0
VERTEX
8
CONTOURS_MINEURES
10
119.634
20
154.633
0
VERTEX
8
CONTOURS_MINEURES
10
120.005
20
154.457
0
VERTEX
8
CONTOURS_MINEURES
10
122.500
20
152.500
0
VERTEX
8
CONTOURS_MINEURES
10
124.996
20
150.965
0
SEQEND
0
POLYLINE
8
CONTOURS_MINEURES
66
1
70
0
0
VERTEX
8
CONTOURS_MINEURES
10
63.369
20
0.004
0
VERTEX
8
CONTOURS_MINEURES
10
65.002
20
0.634
0
VERTEX
8
CONTOURS_MINEURES
10
67.711
20
2.295
0
VERTEX
8
CONTOURS_MINEURES
10
70.004
20
3.617
0
VERTEX
8
CONTOURS_MINEURES
10
70.766
20
4.239
0
VERTEX
8
CONTOURS_MINEURES
10
71.820
20
5.001
0
VERTEX
8
CONTOURS_MINEURES
10
74.996
20
7.539
0
VERTEX
8
CONTOURS_MINEURES
10
76.283
20
8.711
0
VERTEX
8
CONTOURS_MINEURES
10
77.560
20
9.997
0
VERTEX
8
CONTOURS_MINEURES
10
79.998
20
12.459
0
VERTEX
8
CONTOURS_MINEURES
10
81.180
20
13.822
0
VERTEX
8
CONTOURS_MINEURES
10
82.012
20
15.005
0
VERTEX
8
CONTOURS_MINEURES
10
83.138
20
16.865
0
VERTEX
8
CONTOURS_MINEURES
10
85.000
20
19.364
0
VERTEX
8
CONTOURS_MINEURES
10
85.248
20
19.754
0
VERTEX
8
CONTOURS_MINEURES
10
85.425
20
20.001
0
VERTEX
8
CONTOURS_MINEURES
10
87.048
20
22.953
0
VERTEX
8
CONTOURS_MINEURES
10
88.301
20
24.998
0
VERTEX
8
CONTOURS_MINEURES
10
90.002
20
29.102
0
VERTEX
8
CONTOURS_MINEURES
10
90.377
20
30.005
0
VERTEX
8
CONTOURS_MINEURES
10
91.139
20
33.866
0
VERTEX
8
CONTOURS_MINEURES
10
91.629
20
35.001
0
VERTEX
8
CONTOURS_MINEURES
10
95.005
20
39.509
0
VERTEX
8
CONTOURS_MINEURES
10
95.218
20
39.785
0
VERTEX
8
CONTOURS_MINEURES
10
95.389
20
39.998
0
VERTEX
8
CONTOURS_MINEURES
10
95.005
20
41.184
0
VERTEX
8
CONTOURS_MINEURES
10
93.494
20
43.493
0
VERTEX
8
CONTOURS_MINEURES
10
93.754
20
45.005
0
VERTEX
8
CONTOURS_MINEURES
10
93.214
20
46.794
0
VERTEX
8
CONTOURS_MINEURES
10
91.874
20
50.002
0
VERTEX
8
CONTOURS_MINEURES
10
91.929
20
51.926
0
VERTEX
8
CONTOURS_MINEURES
10
91.486
20
54.998
0
VERTEX
8
CONTOURS_MINEURES
10
90.680
20
59.318
0
VERTEX
8
CONTOURS_MINEURES
10
90.640
20
59.994
0
VERTEX
8
CONTOURS_MINEURES
10
90.002
20
61.410
0
VERTEX
8
CONTOURS_MINEURES
10
87.401
20
62.598
0
VERTEX
8
CONTOURS_MINEURES
10
85.000
20
63.966
0
VERTEX
8
CONTOURS_MINEURES
10
84.200
20
64.201
0
VERTEX
8
CONTOURS_MINEURES
10
79.998
20
63.795
0
VERTEX
8
CONTOURS_MINEURES
10
77.911
20
62.084
0
VERTEX
8
CONTOURS_MINEURES
10
74.996
20
61.360
0
VERTEX
8
CONTOURS_MINEURES
10
74.277
20
60.716
0
VERTEX
8
CONTOURS_MINEURES
10
73.442
20
59.994
0
VERTEX
8
CONTOURS_MINEURES
10
70.290
20
55.284
0
VERTEX
8
CONTOURS_MINEURES
10
70.107
20
54.998
0
VERTEX
8
CONTOURS_MINEURES
10
70.084
20
54.918
0
VERTEX
8
CONTOURS_MINEURES
10
70.004
20
54.834
0
VERTEX
8
CONTOURS_MINEURES
10
69.171
20
54.165
0
VERTEX
8
CONTOURS_MINEURES
10
65.002
20
50.478
0
VERTEX
8
CONTOURS_MINEURES
10
63.078
20
50.002
0
VERTEX
8
CONTOURS_MINEURES
10
60.000
20
49.261
0
VERTEX
8
CONTOURS_MINEURES
10
58.195
20
46.808
0
VERTEX
8
CONTOURS_MINEURES
10
55.963
20
45.005
0
VERTEX
8
CONTOURS_MINEURES
10
54.998
20
44.449
0
VERTEX
8
CONTOURS_MINEURES
10
54.288
20
44.295
0
VERTEX
8
CONTOURS_MINEURES
10
49.996
20
43.025
0
VERTEX
8
CONTOURS_MINEURES
10
47.218
20
42.784
0
VERTEX
8
CONTOURS_MINEURES
10
45.004
20
42.593
0
VERTEX
8
CONTOURS_MINEURES
10
42.628
20
42.376
0
VERTEX
8
CONTOURS_MINEURES
10
40.002
20
42.111
0
VERTEX
8
CONTOURS_MINEURES
10
36.770
20
41.770
0
VERTEX
8
CONTOURS_MINEURES
10
35.000
20
41.628
0
VERTEX
8
CONTOURS_MINEURES
10
33.380
20
41.620
0
VERTEX
8
CONTOURS_MINEURES
10
29.998
20
41.488
0
VERTEX
8
CONTOURS_MINEURES
10
28.449
20
41.548
0
VERTEX
8
CONTOURS_MINEURES
10
24.996
20
41.617
0
VERTEX
8
CONTOURS_MINEURES
10
21.778
20
41.778
0
VERTEX
8
CONTOURS_MINEURES
10
20.004
20
42.120
0
VERTEX
8
CONTOURS_MINEURES
10
17.599
20
42.405
0
VERTEX
8
CONTOURS_MINEURES
10
15.002
20
42.388
0
VERTEX
8
CONTOURS_MINEURES
10
12.946
20
42.056
0
VERTEX
8
CONTOURS_MINEURES
10
10.000
20
41.014
0
VERTEX
8
CONTOURS_MINEURES
10
8.246
20
39.998
0
VERTEX
8
CONTOURS_MINEURES
10
7.474
20
37.524
0
VERTEX
8
CONTOURS_MINEURES
10
6.505
20
35.001
0
VERTEX
8
CONTOURS_MINEURES
10
7.547
20
32.551
0
VERTEX
8
CONTOURS_MINEURES
10
7.676
20
30.005
0
VERTEX
8
CONTOURS_MINEURES
10
8.580
20
26.419
0
VERTEX
8
CONTOURS_MINEURES
10
9.062
20
24.998
0
VERTEX
8
CONTOURS_MINEURES
10
10.000
20
22.717
0
VERTEX
8
CONTOURS_MINEURES
10
11.374
20
20.001
0
VERTEX
8
CONTOURS_MINEURES
10
12.180
20
17.183
0
VERTEX
8
CONTOURS_MINEURES
10
12.714
20
15.005
0
VERTEX
8
CONTOURS_MINEURES
10
13.189
20
11.812
0
VERTEX
8
CONTOURS_MINEURES
10
13.607
20
9.997
0
VERTEX
8
CONTOURS_MINEURES
10
13.903
20
8.900
0
VERTEX
8
CONTOURS_MINEURES
10
14.771
20
5.001
0
VERTEX
8
CONTOURS_MINEURES
10
15.002
20
4.266
0
VERTEX
8
CONTOURS_MINEURES
10
16.371
20
1.371
0
VERTEX
8
CONTOURS_MINEURES
10
17.269
20
0.004
0
SEQEND
0
POLYLINE
8
CONTOURS_MINEURES
66
1
70
0
0
VERTEX
8
CONTOURS_MINEURES
10
60.000
20
7.022
0
VERTEX
8
CONTOURS_MINEURES
10
61.867
20
8.132
0
VERTEX
8
CONTOURS_MINEURES
10
65.002
20
8.319
0
VERTEX
8
CONTOURS_MINEURES
10
68.129
20
9.997
0
VERTEX
8
CONTOURS_MINEURES
10
70.004
20
11.163
0
VERTEX
8
CONTOURS_MINEURES
10
71.953
20
13.050
0
VERTEX
8
CONTOURS_MINEURES
10
74.360
20
15.005
0
VERTEX
8
CONTOURS_MINEURES
10
74.497
20
15.504
0
VERTEX
8
CONTOURS_MINEURES
10
74.996
20
16.070
0
VERTEX
8
CONTOURS_MINEURES
10
77.446
20
20.001
0
VERTEX
8
CONTOURS_MINEURES
10
77.896
20
22.100
0
VERTEX
8
CONTOURS_MINEURES
10
79.998
20
24.462
0
VERTEX
8
CONTOURS_MINEURES
10
80.273
20
24.998
0
VERTEX
8
CONTOURS_MINEURES
10
81.267
20
28.735
0
VERTEX
8
CONTOURS_MINEURES
10
82.302
20
30.005
0
VERTEX
8
CONTOURS_MINEURES
10
82.868
20
32.872
0
VERTEX
8
CONTOURS_MINEURES
10
83.488
20
35.001
0
VERTEX
8
CONTOURS_MINEURES
10
83.414
20
36.586
0
VERTEX
8
CONTOURS_MINEURES
10
83.294
20
39.998
0
VERTEX
8
CONTOURS_MINEURES
10
83.733
20
43.737
0
VERTEX
8
CONTOURS_MINEURES
10
79.998
20
43.593
0
VERTEX
8
CONTOURS_MINEURES
10
77.452
20
42.547
0
VERTEX
8
CONTOURS_MINEURES
10
74.996
20
42.733
0
VERTEX
8
CONTOURS_MINEURES
10
72.453
20
42.454
0
VERTEX
8
CONTOURS_MINEURES
10
70.004
20
42.132
0
VERTEX
8
CONTOURS_MINEURES
10
68.133
20
41.871
0
VERTEX
8
CONTOURS_MINEURES
10
65.002
20
41.520
0
VERTEX
8
CONTOURS_MINEURES
10
63.700
20
41.301
0
VERTEX
8
CONTOURS_MINEURES
10
60.000
20
40.939
0
VERTEX
8
CONTOURS_MINEURES
10
57.448
20
39.998
0
VERTEX
8
CONTOURS_MINEURES
10
55.943
20
39.054
0
VERTEX
8
CONTOURS_MINEURES
10
54.998
20
38.355
0
VERTEX
8
CONTOURS_MINEURES
10
52.885
20
37.112
0
VERTEX
8
CONTOURS_MINEURES
10
49.996
20
35.593
0
VERTEX
8
CONTOURS_MINEURES
10
45.504
20
35.001
0
VERTEX
8
CONTOURS_MINEURES
10
45.069
20
34.936
0
VERTEX
8
CONTOURS_MINEURES
10
45.004
20
34.917
0
VERTEX
8
CONTOURS_MINEURES
10
44.869
20
34.866
0
VERTEX
8
CONTOURS_MINEURES
10
40.002
20
33.752
0
VERTEX
8
CONTOURS_MINEURES
10
37.314
20
32.690
0
VERTEX
8
CONTOURS_MINEURES
10
35.000
20
31.840
0
VERTEX
8
CONTOURS_MINEURES
10
33.695
20
31.308
0
VERTEX
8
CONTOURS_MINEURES
10
30.261
20
30.005
0
VERTEX
8
CONTOURS_MINEURES
10
29.998
20
29.741
0
VERTEX
8
CONTOURS_MINEURES
10
27.952
20
27.046
0
VERTEX
8
CONTOURS_MINEURES
10
25.905
20
24.998
0
VERTEX
8
CONTOURS_MINEURES
10
24.996
20
22.499
0
VERTEX
8
CONTOURS_MINEURES
10
24.562
20
20.436
0
VERTEX
8
CONTOURS_MINEURES
10
24.626
20
20.001
0
VERTEX
8
CONTOURS_MINEURES
10
24.726
20
19.731
0
VERTEX
8
CONTOURS_MINEURES
10
24.996
20
18.891
0
VERTEX
8
CONTOURS_MINEURES
10
27.497
20
15.005
0
VERTEX
8
CONTOURS_MINEURES
10
28.937
20
13.943
0
VERTEX
8
CONTOURS_MINEURES
10
29.998
20
12.943
0
VERTEX
8
CONTOURS_MINEURES
10
31.694
20
11.695
0
VERTEX
8
CONTOURS_MINEURES
10
33.448
20
9.997
0
VERTEX
8
CONTOURS_MINEURES
10
35.000
20
9.040
0
VERTEX
8
CONTOURS_MINEURES
10
37.569
20
7.567
0
VERTEX
8
CONTOURS_MINEURES
10
40.002
20
6.326
0
VERTEX
8
CONTOURS_MINEURES
10
44.869
20
5.136
0
VERTEX
8
CONTOURS_MINEURES
10
45.004
20
5.099
0
VERTEX
8
CONTOURS_MINEURES
10
49.461
20
5.536
0
VERTEX
8
CONTOURS_MINEURES
10
49.996
20
5.462
0
VERTEX
8
CONTOURS_MINEURES
10
50.431
20
5.435
0
VERTEX
8
CONTOURS_MINEURES
10
54.998
20
5.744
0
VERTEX
8
CONTOURS_MINEURES
10
58.181
20
6.818
0
VERTEX
8
CONTOURS_MINEURES
10
60.000
20
7.022
0
SEQEND
0
POLYLINE
8
CONTOURS_MAJEURES
66
1
70
0
0
VERTEX
8
CONTOURS_MAJEURES
10
-0.004
20
162.145
0
VERTEX
8
CONTOURS_MAJEURES
10
0.600
20
160.604
0
VERTEX
8
CONTOURS_MAJEURES
10
1.096
20
160.000
0
VERTEX
8
CONTOURS_MAJEURES
10
2.098
20
157.104
0
VERTEX
8
CONTOURS_MAJEURES
10
2.566
20
155.004
0
VERTEX
8
CONTOURS_MAJEURES
10
2.801
20
152.196
0
VERTEX
8
CONTOURS_MAJEURES
10
3.144
20
149.996
0
VERTEX
8
CONTOURS_MAJEURES
10
3.348
20
148.348
0
VERTEX
8
CONTOURS_MAJEURES
10
3.594
20
145.000
0
VERTEX
8
CONTOURS_MAJEURES
10
4.998
20
140.120
0
VERTEX
8
CONTOURS_MAJEURES
10
5.089
20
140.003
0
VERTEX
8
CONTOURS_MAJEURES
10
7.196
20
137.196
0
VERTEX
8
CONTOURS_MAJEURES
10
8.825
20
134.996
0
VERTEX
8
CONTOURS_MAJEURES
10
8.023
20
131.974
0
VERTEX
8
CONTOURS_MAJEURES
10
4.998
20
131.490
0
VERTEX
8
CONTOURS_MAJEURES
10
4.109
20
130.887
0
VERTEX
8
CONTOURS_MAJEURES
10
-0.004
20
131.245
0
SEQEND
0
POLYLINE
8
CONTOURS_MAJEURES
66
1
70
0
0
VERTEX
8
CONTOURS_MAJEURES
10
22.385
20
170.004
0
VERTEX
8
CONTOURS_MAJEURES
10
24.996
20
168.036
0
VERTEX
8
CONTOURS_MAJEURES
10
29.231
20
164.996
0
VERTEX
8
CONTOURS_MAJEURES
10
29.552
20
164.551
0
VERTEX
8
CONTOURS_MAJEURES
10
29.998
20
164.293
0
VERTEX
8
CONTOURS_MAJEURES
10
34.715
20
160.000
0
VERTEX
8
CONTOURS_MAJEURES
10
34.858
20
159.858
0
VERTEX
8
CONTOURS_MAJEURES
10
35.000
20
159.770
0
VERTEX
8
CONTOURS_MAJEURES
10
39.680
20
155.004
0
VERTEX
8
CONTOURS_MAJEURES
10
39.830
20
154.832
0
VERTEX
8
CONTOURS_MAJEURES
10
40.002
20
154.696
0
VERTEX
8
CONTOURS_MAJEURES
10
44.641
20
149.996
0
VERTEX
8
CONTOURS_MAJEURES
10
45.004
20
149.577
0
VERTEX
8
CONTOURS_MAJEURES
10
48.539
20
145.000
0
VERTEX
8
CONTOURS_MAJEURES
10
49.050
20
144.053
0
VERTEX
8
CONTOURS_MAJEURES
10
49.996
20
142.751
0
VERTEX
8
CONTOURS_MAJEURES
10
51.743
20
140.003
0
VERTEX
8
CONTOURS_MAJEURES
10
52.487
20
137.489
0
VERTEX
8
CONTOURS_MAJEURES
10
53.242
20
134.996
0
VERTEX
8
CONTOURS_MAJEURES
10
53.364
20
133.363
0
VERTEX
8
CONTOURS_MAJEURES
10
53.818
20
129.999
0
VERTEX
8
CONTOURS_MAJEURES
10
53.190
20
126.809
0
VERTEX
8
CONTOURS_MAJEURES
10
52.772
20
125.003
0
VERTEX
8
CONTOURS_MAJEURES
10
52.130
20
122.867
0
VERTEX
8
CONTOURS_MAJEURES
10
51.290
20
119.996
0
VERTEX
8
CONTOURS_MAJEURES
10
50.806
20
119.187
0
VERTEX
8
CONTOURS_MAJEURES
10
49.996
20
117.604
0
VERTEX
8
CONTOURS_MAJEURES
10
48.531
20
114.999
0
VERTEX
8
CONTOURS_MAJEURES
10
45.004
20
110.127
0
VERTEX
8
CONTOURS_MAJEURES
10
44.946
20
110.061
0
VERTEX
8
CONTOURS_MAJEURES
10
44.909
20
110.003
0
VERTEX
8
CONTOURS_MAJEURES
10
42.338
20
107.665
0
VERTEX
8
CONTOURS_MAJEURES
10
40.002
20
105.182
0
VERTEX
8
CONTOURS_MAJEURES
10
39.895
20
105.103
0
VERTEX
8
CONTOURS_MAJEURES
10
39.708
20
104.995
0
VERTEX
8
CONTOURS_MAJEURES
10
36.601
20
103.396
0
VERTEX
8
CONTOURS_MAJEURES
10
35.000
20
103.077
0
VERTEX
8
CONTOURS_MAJEURES
10
32.702
20
102.700
0
VERTEX
8
CONTOURS_MAJEURES
10
29.998
20
102.222
0
VERTEX
8
CONTOURS_MAJEURES
10
27.965
20
102.030
0
VERTEX
8
CONTOURS_MAJEURES
10
24.996
20
101.331
0
VERTEX
8
CONTOURS_MAJEURES
10
21.269
20
101.265
0
VERTEX
8
CONTOURS_MAJEURES
10
20.004
20
101.313
0
VERTEX
8
CONTOURS_MAJEURES
10
18.173
20
101.828
0
VERTEX
8
CONTOURS_MAJEURES
10
15.002
20
102.654
0
VERTEX
8
CONTOURS_MAJEURES
10
11.309
20
103.688
0
VERTEX
8
CONTOURS_MAJEURES
10
10.000
20
104.001
0
VERTEX
8
CONTOURS_MAJEURES
10
9.184
20
104.180
0
VERTEX
8
CONTOURS_MAJEURES
10
4.998
20
104.735
0
VERTEX
8
CONTOURS_MAJEURES
10
4.811
20
104.808
0
VERTEX
8
CONTOURS_MAJEURES
10
4.358
20
104.995
0
VERTEX
8
CONTOURS_MAJEURES
10
-0.004
20
106.931
0
SEQEND
0
POLYLINE
8
CONTOURS_MAJEURES
66
1
70
0
0
VERTEX
8
CONTOURS_MAJEURES
10
113.219
20
0.004
0
VERTEX
8
CONTOURS_MAJEURES
10
113.723
20
1.283
0
VERTEX
8
CONTOURS_MAJEURES
10
114.903
20
5.001
0
VERTEX
8
CONTOURS_MAJEURES
10
115.003
20
5.318
0
VERTEX
8
CONTOURS_MAJEURES
10
116.898
20
8.104
0
VERTEX
8
CONTOURS_MAJEURES
10
117.810
20
9.997
0
VERTEX
8
CONTOURS_MAJEURES
10
120.005
20
14.301
0
VERTEX
8
CONTOURS_MAJEURES
10
120.241
20
14.768
0
VERTEX
8
CONTOURS_MAJEURES
10
120.348
20
15.005
0
VERTEX
8
CONTOURS_MAJEURES
10
120.633
20
15.634
0
VERTEX
8
CONTOURS_MAJEURES
10
122.686
20
20.001
0
VERTEX
8
CONTOURS_MAJEURES
10
123.387
20
21.612
0
VERTEX
8
CONTOURS_MAJEURES
10
124.748
20
24.998
0
VERTEX
8
CONTOURS_MAJEURES
10
124.816
20
25.178
0
VERTEX
8
CONTOURS_MAJEURES
10
124.996
20
25.636
0
SEQEND
0
POLYLINE
8
CONTOURS_MAJEURES
66
1
70
0
0
VERTEX
8
CONTOURS_MAJEURES
10
53.585
20
170.004
0
VERTEX
8
CONTOURS_MAJEURES
10
54.998
20
168.679
0
VERTEX
8
CONTOURS_MAJEURES
10
56.852
20
164.996
0
VERTEX
8
CONTOURS_MAJEURES
10
57.918
20
162.917
0
VERTEX
8
CONTOURS_MAJEURES
10
58.922
20
160.000
0
VERTEX
8
CONTOURS_MAJEURES
10
59.204
20
159.205
0
VERTEX
8
CONTOURS_MAJEURES
10
60.000
20
156.886
0
VERTEX
8
CONTOURS_MAJEURES
10
60.782
20
155.784
0
VERTEX
8
CONTOURS_MAJEURES
10
61.349
20
155.004
0
VERTEX
8
CONTOURS_MAJEURES
10
64.744
20
150.255
0
VERTEX
8
CONTOURS_MAJEURES
10
64.929
20
149.996
0
VERTEX
8
CONTOURS_MAJEURES
10
64.960
20
149.954
0
VERTEX
8
CONTOURS_MAJEURES
10
65.002
20
149.893
0
VERTEX
8
CONTOURS_MAJEURES
10
67.104
20
147.099
0
VERTEX
8
CONTOURS_MAJEURES
10
68.590
20
145.000
0
VERTEX
8
CONTOURS_MAJEURES
10
70.004
20
142.283
0
VERTEX
8
CONTOURS_MAJEURES
10
71.101
20
140.003
0
VERTEX
8
CONTOURS_MAJEURES
10
71.920
20
136.918
0
VERTEX
8
CONTOURS_MAJEURES
10
72.232
20
134.996
0
VERTEX
8
CONTOURS_MAJEURES
10
71.795
20
133.204
0
VERTEX
8
CONTOURS_MAJEURES
10
71.727
20
129.999
0
VERTEX
8
CONTOURS_MAJEURES
10
70.924
20
125.923
0
VERTEX
8
CONTOURS_MAJEURES
10
70.772
20
125.003
0
VERTEX
8
CONTOURS_MAJEURES
10
70.614
20
124.392
0
VERTEX
8
CONTOURS_MAJEURES
10
70.004
20
122.586
0
VERTEX
8
CONTOURS_MAJEURES
10
69.165
20
119.996
0
VERTEX
8
CONTOURS_MAJEURES
10
68.452
20
118.445
0
VERTEX
8
CONTOURS_MAJEURES
10
67.019
20
114.999
0
VERTEX
8
CONTOURS_MAJEURES
10
66.305
20
113.698
0
VERTEX
8
CONTOURS_MAJEURES
10
65.002
20
111.837
0
VERTEX
8
CONTOURS_MAJEURES
10
63.752
20
110.003
0
VERTEX
8
CONTOURS_MAJEURES
10
62.309
20
107.692
0
VERTEX
8
CONTOURS_MAJEURES
10
60.549
20
104.995
0
VERTEX
8
CONTOURS_MAJEURES
10
60.354
20
104.641
0
VERTEX
8
CONTOURS_MAJEURES
10
60.000
20
103.918
0
VERTEX
8
CONTOURS_MAJEURES
10
58.783
20
99.999
0
VERTEX
8
CONTOURS_MAJEURES
10
57.684
20
97.316
0
VERTEX
8
CONTOURS_MAJEURES
10
56.600
20
95.002
0
VERTEX
8
CONTOURS_MAJEURES
10
56.065
20
93.934
0
VERTEX
8
CONTOURS_MAJEURES
10
54.998
20
91.856
0
VERTEX
8
CONTOURS_MAJEURES
10
53.065
20
89.995
0
VERTEX
8
CONTOURS_MAJEURES
10
49.996
20
87.473
0
VERTEX
8
CONTOURS_MAJEURES
10
48.581
20
86.415
0
VERTEX
8
CONTOURS_MAJEURES
10
45.004
20
86.068
0
VERTEX
8
CONTOURS_MAJEURES
10
41.619
20
86.614
0
VERTEX
8
CONTOURS_MAJEURES
10
40.002
20
86.320
0
VERTEX
8
CONTOURS_MAJEURES
10
38.701
20
86.299
0
VERTEX
8
CONTOURS_MAJEURES
10
37.356
20
84.999
0
VERTEX
8
CONTOURS_MAJEURES
10
35.000
20
83.137
0
VERTEX
8
CONTOURS_MAJEURES
10
31.368
20
81.371
0
VERTEX
8
CONTOURS_MAJEURES
10
29.998
20
80.848
0
VERTEX
8
CONTOURS_MAJEURES
10
29.033
20
80.966
0
VERTEX
8
CONTOURS_MAJEURES
10
24.996
20
82.069
0
VERTEX
8
CONTOURS_MAJEURES
10
22.631
20
82.632
0
VERTEX
8
CONTOURS_MAJEURES
10
20.004
20
83.311
0
VERTEX
8
CONTOURS_MAJEURES
10
16.200
20
83.802
0
VERTEX
8
CONTOURS_MAJEURES
10
15.002
20
83.824
0
VERTEX
8
CONTOURS_MAJEURES
10
13.785
20
83.783
0
VERTEX
8
CONTOURS_MAJEURES
10
10.000
20
83.726
0
VERTEX
8
CONTOURS_MAJEURES
10
5.774
20
84.223
0
VERTEX
8
CONTOURS_MAJEURES
10
4.998
20
84.317
0
VERTEX
8
CONTOURS_MAJEURES
10
4.474
20
84.476
0
VERTEX
8
CONTOURS_MAJEURES
10
2.854
20
84.999
0
VERTEX
8
CONTOURS_MAJEURES
10
-0.004
20
85.932
0
SEQEND
0
POLYLINE
8
CONTOURS_MAJEURES
66
1
70
0
0
VERTEX
8
CONTOURS_MAJEURES
10
93.499
20
0.004
0
VERTEX
8
CONTOURS_MAJEURES
10
94.189
20
0.819
0
VERTEX
8
CONTOURS_MAJEURES
10
95.005
20
1.728
0
VERTEX
8
CONTOURS_MAJEURES
10
97.617
20
5.001
0
VERTEX
8
CONTOURS_MAJEURES
10
99.996
20
7.981
0
VERTEX
8
CONTOURS_MAJEURES
10
100.870
20
9.124
0
VERTEX
8
CONTOURS_MAJEURES
10
101.510
20
9.997
0
VERTEX
8
CONTOURS_MAJEURES
10
104.421
20
14.427
0
VERTEX
8
CONTOURS_MAJEURES
10
104.797
20
15.005
0
VERTEX
8
CONTOURS_MAJEURES
10
104.864
20
15.139
0
VERTEX
8
CONTOURS_MAJEURES
10
104.998
20
15.343
0
VERTEX
8
CONTOURS_MAJEURES
10
106.652
20
18.349
0
VERTEX
8
CONTOURS_MAJEURES
10
107.561
20
20.001
0
VERTEX
8
CONTOURS_MAJEURES
10
110.000
20
24.914
0
VERTEX
8
CONTOURS_MAJEURES
10
110.021
20
24.998
0
VERTEX
8
CONTOURS_MAJEURES
10
110.708
20
29.297
0
VERTEX
8
CONTOURS_MAJEURES
10
110.846
20
30.005
0
VERTEX
8
CONTOURS_MAJEURES
10
110.979
20
30.983
0
VERTEX
8
CONTOURS_MAJEURES
10
111.466
20
35.001
0
VERTEX
8
CONTOURS_MAJEURES
10
111.749
20
38.251
0
VERTEX
8
CONTOURS_MAJEURES
10
112.008
20
39.998
0
VERTEX
8
CONTOURS_MAJEURES
10
112.447
20
42.447
0
VERTEX
8
CONTOURS_MAJEURES
10
112.579
20
45.005
0
VERTEX
8
CONTOURS_MAJEURES
10
112.972
20
47.973
0
VERTEX
8
CONTOURS_MAJEURES
10
112.735
20
50.002
0
VERTEX
8
CONTOURS_MAJEURES
10
112.899
20
52.897
0
VERTEX
8
CONTOURS_MAJEURES
10
112.553
20
54.998
0
VERTEX
8
CONTOURS_MAJEURES
10
112.125
20
57.120
0
VERTEX
8
CONTOURS_MAJEURES
10
111.586
20
59.994
0
VERTEX
8
CONTOURS_MAJEURES
10
110.000
20
63.980
0
VERTEX
8
CONTOURS_MAJEURES
10
109.655
20
65.002
0
VERTEX
8
CONTOURS_MAJEURES
10
108.668
20
68.668
0
VERTEX
8
CONTOURS_MAJEURES
10
108.459
20
69.998
0
VERTEX
8
CONTOURS_MAJEURES
10
108.136
20
71.860
0
VERTEX
8
CONTOURS_MAJEURES
10
107.904
20
74.995
0
VERTEX
8
CONTOURS_MAJEURES
10
107.851
20
77.146
0
VERTEX
8
CONTOURS_MAJEURES
10
108.110
20
80.002
0
VERTEX
8
CONTOURS_MAJEURES
10
108.872
20
83.872
0
VERTEX
8
CONTOURS_MAJEURES
10
109.084
20
84.999
0
VERTEX
8
CONTOURS_MAJEURES
10
109.080
20
85.918
0
VERTEX
8
CONTOURS_MAJEURES
10
109.834
20
89.995
0
VERTEX
8
CONTOURS_MAJEURES
10
110.000
20
91.126
0
VERTEX
8
CONTOURS_MAJEURES
10
110.455
20
94.547
0
VERTEX
8
CONTOURS_MAJEURES
10
110.453
20
95.002
0
VERTEX
8
CONTOURS_MAJEURES
10
110.860
20
99.140
0
VERTEX
8
CONTOURS_MAJEURES
10
110.782
20
99.999
0
VERTEX
8
CONTOURS_MAJEURES
10
110.807
20
100.805
0
VERTEX
8
CONTOURS_MAJEURES
10
111.061
20
104.995
0
VERTEX
8
CONTOURS_MAJEURES
10
111.088
20
106.084
0
VERTEX
8
CONTOURS_MAJEURES
10
111.076
20
110.003
0
VERTEX
8
CONTOURS_MAJEURES
10
110.801
20
114.200
0
VERTEX
8
CONTOURS_MAJEURES
10
110.910
20
114.999
0
VERTEX
8
CONTOURS_MAJEURES
10
111.177
20
116.175
0
VERTEX
8
CONTOURS_MAJEURES
10
111.287
20
119.996
0
VERTEX
8
CONTOURS_MAJEURES
10
111.876
20
121.873
0
VERTEX
8
CONTOURS_MAJEURES
10
112.670
20
125.003
0
VERTEX
8
CONTOURS_MAJEURES
10
113.045
20
126.958
0
VERTEX
8
CONTOURS_MAJEURES
10
114.864
20
129.999
0
VERTEX
8
CONTOURS_MAJEURES
10
115.003
20
130.063
0
VERTEX
8
CONTOURS_MAJEURES
10
115.064
20
130.061
0
VERTEX
8
CONTOURS_MAJEURES
10
120.005
20
130.539
0
VERTEX
8
CONTOURS_MAJEURES
10
124.429
20
129.999
0
VERTEX
8
CONTOURS_MAJEURES
10
124.739
20
129.742
0
VERTEX
8
CONTOURS_MAJEURES
10
124.996
20
128.530
0
SEQEND
0
POLYLINE
8
CONTOURS_MAJEURES
66
1
70
0
0
VERTEX
8
CONTOURS_MAJEURES
10
77.872
20
170.004
0
VERTEX
8
CONTOURS_MAJEURES
10
79.998
20
165.638
0
VERTEX
8
CONTOURS_MAJEURES
10
80.211
20
165.210
0
VERTEX
8
CONTOURS_MAJEURES
10
80.325
20
164.996
0
VERTEX
8
CONTOURS_MAJEURES
10
80.942
20
164.054
0
VERTEX
8
CONTOURS_MAJEURES
10
83.697
20
160.000
0
VERTEX
8
CONTOURS_MAJEURES
10
84.311
20
159.311
0
VERTEX
8
CONTOURS_MAJEURES
10
85.000
20
158.239
0
VERTEX
8
CONTOURS_MAJEURES
10
86.382
20
156.384
0
VERTEX
8
CONTOURS_MAJEURES
10
87.148
20
155.004
0
VERTEX
8
CONTOURS_MAJEURES
10
88.297
20
153.297
0
VERTEX
8
CONTOURS_MAJEURES
10
90.002
20
150.043
0
VERTEX
8
CONTOURS_MAJEURES
10
90.021
20
150.014
0
VERTEX
8
CONTOURS_MAJEURES
10
90.030
20
149.996
0
VERTEX
8
CONTOURS_MAJEURES
10
90.035
20
149.963
0
VERTEX
8
CONTOURS_MAJEURES
10
91.247
20
145.000
0
VERTEX
8
CONTOURS_MAJEURES
10
91.150
20
143.854
0
VERTEX
8
CONTOURS_MAJEURES
10
91.185
20
140.003
0
VERTEX
8
CONTOURS_MAJEURES
10
91.167
20
136.162
0
VERTEX
8
CONTOURS_MAJEURES
10
91.173
20
134.996
0
VERTEX
8
CONTOURS_MAJEURES
10
91.460
20
133.540
0
VERTEX
8
CONTOURS_MAJEURES
10
90.002
20
131.457
0
VERTEX
8
CONTOURS_MAJEURES
10
89.594
20
129.999
0
VERTEX
8
CONTOURS_MAJEURES
10
89.472
20
125.533
0
VERTEX
8
CONTOURS_MAJEURES
10
89.424
20
125.003
0
VERTEX
8
CONTOURS_MAJEURES
10
88.995
20
123.994
0
VERTEX
8
CONTOURS_MAJEURES
10
87.907
20
119.996
0
VERTEX
8
CONTOURS_MAJEURES
10
87.120
20
117.879
0
VERTEX
8
CONTOURS_MAJEURES
10
85.000
20
115.487
0
VERTEX
8
CONTOURS_MAJEURES
10
84.853
20
115.146
0
VERTEX
8
CONTOURS_MAJEURES
10
84.800
20
114.999
0
VERTEX
8
CONTOURS_MAJEURES
10
84.718
20
114.718
0
VERTEX
8
CONTOURS_MAJEURES
10
84.102
20
110.003
0
VERTEX
8
CONTOURS_MAJEURES
10
83.211
20
108.211
0
VERTEX
8
CONTOURS_MAJEURES
10
81.819
20
104.995
0
VERTEX
8
CONTOURS_MAJEURES
10
79.998
20
102.028
0
VERTEX
8
CONTOURS_MAJEURES
10
79.309
20
100.687
0
VERTEX
8
CONTOURS_MAJEURES
10
78.829
20
99.999
0
VERTEX
8
CONTOURS_MAJEURES
10
74.996
20
95.599
0
VERTEX
8
CONTOURS_MAJEURES
10
74.715
20
95.283
0
VERTEX
8
CONTOURS_MAJEURES
10
74.528
20
95.002
0
VERTEX
8
CONTOURS_MAJEURES
10
73.587
20
93.589
0
VERTEX
8
CONTOURS_MAJEURES
10
71.317
20
89.995
0
VERTEX
8
CONTOURS_MAJEURES
10
70.004
20
87.557
0
VERTEX
8
CONTOURS_MAJEURES
10
69.226
20
85.777
0
VERTEX
8
CONTOURS_MAJEURES
10
68.708
20
84.999
0
VERTEX
8
CONTOURS_MAJEURES
10
66.704
20
81.702
0
VERTEX
8
CONTOURS_MAJEURES
10
65.876
20
80.002
0
VERTEX
8
CONTOURS_MAJEURES
10
65.002
20
78.908
0
VERTEX
8
CONTOURS_MAJEURES
10
60.846
20
74.995
0
VERTEX
8
CONTOURS_MAJEURES
10
60.000
20
74.317
0
VERTEX
8
CONTOURS_MAJEURES
10
58.174
20
71.823
0
VERTEX
8
CONTOURS_MAJEURES
10
57.166
20
69.998
0
VERTEX
8
CONTOURS_MAJEURES
10
54.998
20
67.104
0
VERTEX
8
CONTOURS_MAJEURES
10
53.762
20
66.237
0
VERTEX
8
CONTOURS_MAJEURES
10
50.111
20
65.002
0
VERTEX
8
CONTOURS_MAJEURES
10
50.025
20
64.973
0
VERTEX
8
CONTOURS_MAJEURES
10
49.996
20
64.965
0
VERTEX
8
CONTOURS_MAJEURES
10
46.139
20
63.864
0
VERTEX
8
CONTOURS_MAJEURES
10
45.004
20
63.639
0
VERTEX
8
CONTOURS_MAJEURES
10
43.511
20
63.507
0
VERTEX
8
CONTOURS_MAJEURES
10
40.002
20
63.481
0
VERTEX
8
CONTOURS_MAJEURES
10
36.440
20
63.560
0
VERTEX
8
CONTOURS_MAJEURES
10
35.000
20
63.181
0
VERTEX
8
CONTOURS_MAJEURES
10
31.877
20
63.121
0
VERTEX
8
CONTOURS_MAJEURES
10
29.998
20
62.331
0
VERTEX
8
CONTOURS_MAJEURES
10
28.264
20
61.730
0
VERTEX
8
CONTOURS_MAJEURES
10
24.996
20
61.429
0
VERTEX
8
CONTOURS_MAJEURES
10
21.959
20
61.956
0
VERTEX
8
CONTOURS_MAJEURES
10
20.004
20
62.320
0
VERTEX
8
CONTOURS_MAJEURES
10
16.989
20
63.013
0
VERTEX
8
CONTOURS_MAJEURES
10
15.002
20
63.526
0
VERTEX
8
CONTOURS_MAJEURES
10
13.873
20
63.871
0
VERTEX
8
CONTOURS_MAJEURES
10
10.000
20
64.385
0
VERTEX
8
CONTOURS_MAJEURES
10
7.671
20
65.002
0
VERTEX
8
CONTOURS_MAJEURES
10
5.498
20
65.502
0
VERTEX
8
CONTOURS_MAJEURES
10
4.998
20
65.569
0
VERTEX
8
CONTOURS_MAJEURES
10
4.382
20
65.617
0
VERTEX
8
CONTOURS_MAJEURES
10
2.536
20
65.002
0
VERTEX
8
CONTOURS_MAJEURES
10
-0.004
20
64.112
0
SEQEND
0
POLYLINE
8
CONTOURS_MAJEURES
66
1
70
0
0
VERTEX
8
CONTOURS_MAJEURES
10
60.000
20
7.022
0
VERTEX
8
CONTOURS_MAJEURES
10
61.867
20
8.132
0
VERTEX
8
CONTOURS_MAJEURES
10
65.002
20
8.319
0
VERTEX
8
CONTOURS_MAJEURES
10
68.129
20
9.997
0
VERTEX
8
CONTOURS_MAJEURES
10
70.004
20
11.163
0
VERTEX
8
CONTOURS_MAJEURES
10
71.953
20
13.050
0
VERTEX
8
CONTOURS_MAJEURES
10
74.360
20
15.005
0
VERTEX
8
CONTOURS_MAJEURES
10
74.497
20
15.504
0
VERTEX
8
CONTOURS_MAJEURES
10
74.996
20
16.070
0
VERTEX
8
CONTOURS_MAJEURES
10
77.446
20
20.001
0
VERTEX
8
CONTOURS_MAJEURES
10
77.896
20
22.100
0
VERTEX
8
CONTOURS_MAJEURES
10
79.998
20
24.462
0
VERTEX
8
CONTOURS_MAJEURES
10
80.273
20
24.998
0
VERTEX
8
CONTOURS_MAJEURES
10
81.267
20
28.735
0
VERTEX
8
CONTOURS_MAJEURES
10
82.302
20
30.005
0
VERTEX
8
CONTOURS_MAJEURES
10
82.868
20
32.872
0
VERTEX
8
CONTOURS_MAJEURES
10
83.488
20
35.001
0
VERTEX
8
CONTOURS_MAJEURES
10
83.414
20
36.586
0
VERTEX
8
CONTOURS_MAJEURES
10
83.294
20
39.998
0
VERTEX
8
CONTOURS_MAJEURES
10
83.733
20
43.737
0
VERTEX
8
CONTOURS_MAJEURES
10
79.998
20
43.593
0
VERTEX
8
CONTOURS_MAJEURES
10
77.452
20
42.547
0
VERTEX
8
CONTOURS_MAJEURES
10
74.996
20
42.733
0
VERTEX
8
CONTOURS_MAJEURES
10
72.453
20
42.454
0
VERTEX
8
CONTOURS_MAJEURES
10
70.004
20
42.132
0
VERTEX
8
CONTOURS_MAJEURES
10
68.133
20
41.871
0
VERTEX
8
CONTOURS_MAJEURES
10
65.002
20
41.520
0
VERTEX
8
CONTOURS_MAJEURES
10
63.700
20
41.301
0
VERTEX
8
CONTOURS_MAJEURES
10
60.000
20
40.939
0
VERTEX
8
CONTOURS_MAJEURES
10
57.448
20
39.998
0
VERTEX
8
CONTOURS_MAJEURES
10
55.943
20
39.054
0
VERTEX
8
CONTOURS_MAJEURES
10
54.998
20
38.355
0
VERTEX
8
CONTOURS_MAJEURES
10
52.885
20
37.112
0
VERTEX
8
CONTOURS_MAJEURES
10
49.996
20
35.593
0
VERTEX
8
CONTOURS_MAJEURES
10
45.504
20
35.001
0
VERTEX
8
CONTOURS_MAJEURES
10
45.069
20
34.936
0
VERTEX
8
CONTOURS_MAJEURES
10
45.004
20
34.917
0
VERTEX
8
CONTOURS_MAJEURES
10
44.869
20
34.866
0
VERTEX
8
CONTOURS_MAJEURES
10
40.002
20
33.752
0
VERTEX
8
CONTOURS_MAJEURES
10
37.314
20
32.690
0
VERTEX
8
CONTOURS_MAJEURES
10
35.000
20
31.840
0
VERTEX
8
CONTOURS_MAJEURES
10
33.695
20
31.308
0
VERTEX
8
CONTOURS_MAJEURES
10
30.261
20
30.005
0
VERTEX
8
CONTOURS_MAJEURES
10
29.998
20
29.741
0
VERTEX
8
CONTOURS_MAJEURES
10
27.952
20
27.046
0
VERTEX
8
CONTOURS_MAJEURES
10
25.905
20
24.998
0
VERTEX
8
CONTOURS_MAJEURES
10
24.996
20
22.499
0
VERTEX
8
CONTOURS_MAJEURES
10
24.562
20
20.436
0
VERTEX
8
CONTOURS_MAJEURES
10
24.626
20
20.001
0
VERTEX
8
CONTOURS_MAJEURES
10
24.726
20
19.731
0
VERTEX
8
CONTOURS_MAJEURES
10
24.996
20
18.891
0
VERTEX
8
CONTOURS_MAJEURES
10
27.497
20
15.005
0
VERTEX
8
CONTOURS_MAJEURES
10
28.937
20
13.943
0
VERTEX
8
CONTOURS_MAJEURES
10
29.998
20
12.943
0
VERTEX
8
CONTOURS_MAJEURES
10
31.694
20
11.695
0
VERTEX
8
CONTOURS_MAJEURES
10
33.448
20
9.997
0
VERTEX
8
CONTOURS_MAJEURES
10
35.000
20
9.040
0
VERTEX
8
CONTOURS_MAJEURES
10
37.569
20
7.567
0
VERTEX
8
CONTOURS_MAJEURES
10
40.002
20
6.326
0
VERTEX
8
CONTOURS_MAJEURES
10
44.869
20
5.136
0
VERTEX
8
CONTOURS_MAJEURES
10
45.004
20
5.099
0
VERTEX
8
CONTOURS_MAJEURES
10
49.461
20
5.536
0
VERTEX
8
CONTOURS_MAJEURES
10
49.996
20
5.462
0
VERTEX
8
CONTOURS_MAJEURES
10
50.431
20
5.435
0
VERTEX
8
CONTOURS_MAJEURES
10
54.998
20
5.744
0
VERTEX
8
CONTOURS_MAJEURES
10
58.181
20
6.818
0
VERTEX
8
CONTOURS_MAJEURES
10
60.000
20
7.022
0
SEQEND
0
POLYLINE
8
PARCELLE
66
1
70
1
0
VERTEX
8
PARCELLE
10
104.741
20
151.029
0
VERTEX
8
PARCELLE
10
104.797
20
145.204
0
VERTEX
8
PARCELLE
10
104.877
20
135.903
0
VERTEX
8
PARCELLE
10
104.953
20
127.311
0
VERTEX
8
PARCELLE
10
105.183
20
119.267
0
VERTEX
8
PARCELLE
10
105.348
20
113.142
0
VERTEX
8
PARCELLE
10
105.983
20
89.721
0
VERTEX
8
PARCELLE
10
107.986
20
28.467
0
VERTEX
8
PARCELLE
10
76.800
20
23.125
0
VERTEX
8
PARCELLE
10
56.410
20
20.000
0
VERTEX
8
PARCELLE
10
53.311
20
28.174
0
VERTEX
8
PARCELLE
10
33.778
20
82.226
0
VERTEX
8
PARCELLE
10
28.155
20
97.823
0
VERTEX
8
PARCELLE
10
23.706
20
109.844
0
VERTEX
8
PARCELLE
10
20.000
20
121.081
0
VERTEX
8
PARCELLE
10
104.741
20
151.029
0
SEQEND
0
TEXT
8
POINTS_COTES
10
-0.004
20
0.004
40
1.0
1
81.5
0
TEXT
8
POINTS_COTES
10
95.005
20
5.001
40
1.0
1
81.1
0
TEXT
8
POINTS_COTES
10
60.000
20
15.005
40
1.0
1
91.2
0
TEXT
8
POINTS_COTES
10
24.996
20
24.998
40
1.0
1
90.0
0
TEXT
8
POINTS_COTES
10
120.005
20
30.005
40
1.0
1
73.5
0
TEXT
8
POINTS_COTES
10
85.000
20
39.998
40
1.0
1
89.7
0
TEXT
8
POINTS_COTES
10
49.996
20
50.002
40
1.0
1
86.0
0
TEXT
8
POINTS_COTES
10
15.002
20
59.994
40
1.0
1
81.3
0
TEXT
8
POINTS_COTES
10
110.000
20
65.002
40
1.0
1
79.8
0
TEXT
8
POINTS_COTES
10
74.996
20
74.995
40
1.0
1
84.6
0
TEXT
8
POINTS_COTES
10
40.002
20
84.999
40
1.0
1
71.3
0
TEXT
8
POINTS_COTES
10
4.998
20
95.002
40
1.0
1
64.4
0
TEXT
8
POINTS_COTES
10
99.996
20
99.999
40
1.0
1
82.6
0
TEXT
8
POINTS_COTES
10
65.002
20
110.003
40
1.0
1
70.6
0
TEXT
8
POINTS_COTES
10
29.998
20
119.996
40
1.0
1
54.2
0
TEXT
8
POINTS_COTES
10
124.996
20
125.003
40
1.0
1
79.9
0
TEXT
8
POINTS_COTES
10
90.002
20
134.996
40
1.0
1
79.5
0
TEXT
8
POINTS_COTES
10
54.998
20
145.000
40
1.0
1
62.4
0
TEXT
8
POINTS_COTES
10
20.004
20
155.004
40
1.0
1
56.3
0
TEXT
8
POINTS_COTES
10
115.003
20
160.000
40
1.0
1
86.0
0
TEXT
8
POINTS_COTES
10
79.998
20
170.004
40
1.0
1
80.7
0
ENDSEC
0
EOF
