0
SECTION
2
HEADER
0
ENDSEC
0
SECTION
2
TABLES
0
TABLE
2
LAYER
70
4
0
LAYER
2
CONTOURS_MINEURES
70
0
62
8
6
CONTINUOUS
0
LAYER
2
CONTOURS_MAJEURES
70
0
62
3
6
CONTINUOUS
0
LAYER
2
PARCELLE
70
0
62
4
6
CONTINUOUS
0
LAYER
2
POINTS_COTES
70
0
62
7
6
CONTINUOUS
0
ENDTAB
0
ENDSEC
0
SECTION
2
ENTITIES
0
POLYLINE
8
CONTOURS_MINEURES
66
1
70
0
0
VERTEX
8
CONTOURS_MINEURES
10
155.996
20
86.346
0
VERTEX
8
CONTOURS_MINEURES
10
155.182
20
86.180
0
VERTEX
8
CONTOURS_MINEURES
10
153.002
20
85.841
0
VERTEX
8
CONTOURS_MINEURES
10
151.646
20
85.351
0
VERTEX
8
CONTOURS_MINEURES
10
149.997
20
84.431
0
VERTEX
8
CONTOURS_MINEURES
10
147.434
20
84.431
0
VERTEX
8
CONTOURS_MINEURES
10
147.003
20
84.431
0
VERTEX
8
CONTOURS_MINEURES
10
145.981
20
83.999
0
VERTEX
8
CONTOURS_MINEURES
10
144.642
20
83.357
0
VERTEX
8
CONTOURS_MINEURES
10
143.998
20
83.169
0
VERTEX
8
CONTOURS_MINEURES
10
143.410
20
83.411
0
VERTEX
8
CONTOURS_MINEURES
10
141.327
20
83.999
0
VERTEX
8
CONTOURS_MINEURES
10
141.004
20
84.087
0
VERTEX
8
CONTOURS_MINEURES
10
140.915
20
84.087
0
VERTEX
8
CONTOURS_MINEURES
10
137.999
20
84.087
0
VERTEX
8
CONTOURS_MINEURES
10
136.003
20
84.998
0
VERTEX
8
CONTOURS_MINEURES
10
135.005
20
85.344
0
VERTEX
8
CONTOURS_MINEURES
10
133.823
20
85.817
0
VERTEX
8
CONTOURS_MINEURES
10
132.000
20
86.415
0
VERTEX
8
CONTOURS_MINEURES
10
129.576
20
86.415
0
VERTEX
8
CONTOURS_MINEURES
10
128.995
20
86.415
0
VERTEX
8
CONTOURS_MINEURES
10
128.561
20
86.561
0
VERTEX
8
CONTOURS_MINEURES
10
127.042
20
86.995
0
VERTEX
8
CONTOURS_MINEURES
10
127.042
20
88.956
0
VERTEX
8
CONTOURS_MINEURES
10
127.042
20
90.002
0
SEQEND
0
POLYLINE
8
CONTOURS_MINEURES
66
1
70
0
0
VERTEX
8
CONTOURS_MINEURES
10
155.996
20
81.972
0
VERTEX
8
CONTOURS_MINEURES
10
155.205
20
81.795
0
VERTEX
8
CONTOURS_MINEURES
10
153.002
20
81.004
0
VERTEX
8
CONTOURS_MINEURES
10
153.002
20
77.997
0
VERTEX
8
CONTOURS_MINEURES
10
149.997
20
75.452
0
VERTEX
8
CONTOURS_MINEURES
10
149.546
20
75.452
0
VERTEX
8
CONTOURS_MINEURES
10
147.003
20
75.452
0
VERTEX
8
CONTOURS_MINEURES
10
144.108
20
75.111
0
VERTEX
8
CONTOURS_MINEURES
10
143.998
20
75.078
0
VERTEX
8
CONTOURS_MINEURES
10
142.153
20
76.151
0
VERTEX
8
CONTOURS_MINEURES
10
141.004
20
76.565
0
VERTEX
8
CONTOURS_MINEURES
10
139.435
20
76.565
0
VERTEX
8
CONTOURS_MINEURES
10
137.999
20
76.565
0
VERTEX
8
CONTOURS_MINEURES
10
135.137
20
77.997
0
VERTEX
8
CONTOURS_MINEURES
10
135.137
20
78.130
0
VERTEX
8
CONTOURS_MINEURES
10
135.137
20
81.004
0
VERTEX
8
CONTOURS_MINEURES
10
135.005
20
81.069
0
VERTEX
8
CONTOURS_MINEURES
10
133.050
20
82.051
0
VERTEX
8
CONTOURS_MINEURES
10
132.000
20
82.471
0
VERTEX
8
CONTOURS_MINEURES
10
130.528
20
82.471
0
VERTEX
8
CONTOURS_MINEURES
10
128.995
20
82.471
0
VERTEX
8
CONTOURS_MINEURES
10
127.955
20
82.959
0
VERTEX
8
CONTOURS_MINEURES
10
126.000
20
83.579
0
VERTEX
8
CONTOURS_MINEURES
10
124.133
20
83.999
0
VERTEX
8
CONTOURS_MINEURES
10
123.208
20
84.211
0
VERTEX
8
CONTOURS_MINEURES
10
122.996
20
84.295
0
VERTEX
8
CONTOURS_MINEURES
10
122.700
20
84.295
0
VERTEX
8
CONTOURS_MINEURES
10
120.001
20
84.295
0
VERTEX
8
CONTOURS_MINEURES
10
117.778
20
84.779
0
VERTEX
8
CONTOURS_MINEURES
10
116.996
20
85.225
0
VERTEX
8
CONTOURS_MINEURES
10
115.511
20
85.509
0
VERTEX
8
CONTOURS_MINEURES
10
114.002
20
86.038
0
VERTEX
8
CONTOURS_MINEURES
10
113.042
20
86.038
0
VERTEX
8
CONTOURS_MINEURES
10
110.997
20
86.038
0
VERTEX
8
CONTOURS_MINEURES
10
108.802
20
86.196
0
VERTEX
8
CONTOURS_MINEURES
10
108.003
20
86.329
0
VERTEX
8
CONTOURS_MINEURES
10
107.448
20
86.442
0
VERTEX
8
CONTOURS_MINEURES
10
104.998
20
86.737
0
VERTEX
8
CONTOURS_MINEURES
10
102.262
20
86.737
0
VERTEX
8
CONTOURS_MINEURES
10
102.004
20
86.737
0
VERTEX
8
CONTOURS_MINEURES
10
101.816
20
86.808
0
VERTEX
8
CONTOURS_MINEURES
10
101.542
20
86.995
0
VERTEX
8
CONTOURS_MINEURES
10
101.542
20
89.539
0
VERTEX
8
CONTOURS_MINEURES
10
101.542
20
90.002
0
SEQEND
0
POLYLINE
8
CONTOURS_MINEURES
66
1
70
0
0
VERTEX
8
CONTOURS_MINEURES
10
155.996
20
70.893
0
VERTEX
8
CONTOURS_MINEURES
10
154.788
20
70.208
0
VERTEX
8
CONTOURS_MINEURES
10
153.321
20
68.999
0
VERTEX
8
CONTOURS_MINEURES
10
153.002
20
68.741
0
VERTEX
8
CONTOURS_MINEURES
10
152.511
20
68.510
0
VERTEX
8
CONTOURS_MINEURES
10
149.997
20
67.062
0
VERTEX
8
CONTOURS_MINEURES
10
148.939
20
67.062
0
VERTEX
8
CONTOURS_MINEURES
10
147.003
20
67.062
0
VERTEX
8
CONTOURS_MINEURES
10
145.416
20
67.417
0
VERTEX
8
CONTOURS_MINEURES
10
143.998
20
67.468
0
VERTEX
8
CONTOURS_MINEURES
10
141.165
20
68.999
0
VERTEX
8
CONTOURS_MINEURES
10
141.063
20
69.059
0
VERTEX
8
CONTOURS_MINEURES
10
141.004
20
69.089
0
VERTEX
8
CONTOURS_MINEURES
10
138.089
20
69.089
0
VERTEX
8
CONTOURS_MINEURES
10
137.999
20
69.089
0
VERTEX
8
CONTOURS_MINEURES
10
137.785
20
69.213
0
VERTEX
8
CONTOURS_MINEURES
10
135.005
20
71.015
0
VERTEX
8
CONTOURS_MINEURES
10
133.166
20
71.995
0
VERTEX
8
CONTOURS_MINEURES
10
133.166
20
73.162
0
VERTEX
8
CONTOURS_MINEURES
10
133.166
20
75.001
0
VERTEX
8
CONTOURS_MINEURES
10
132.431
20
75.431
0
VERTEX
8
CONTOURS_MINEURES
10
132.000
20
75.615
0
VERTEX
8
CONTOURS_MINEURES
10
129.611
20
75.615
0
VERTEX
8
CONTOURS_MINEURES
10
128.995
20
75.615
0
VERTEX
8
CONTOURS_MINEURES
10
127.921
20
76.076
0
VERTEX
8
CONTOURS_MINEURES
10
126.000
20
77.067
0
VERTEX
8
CONTOURS_MINEURES
10
125.313
20
77.312
0
VERTEX
8
CONTOURS_MINEURES
10
122.996
20
77.800
0
VERTEX
8
CONTOURS_MINEURES
10
120.198
20
77.800
0
VERTEX
8
CONTOURS_MINEURES
10
120.001
20
77.800
0
VERTEX
8
CONTOURS_MINEURES
10
119.809
20
77.806
0
VERTEX
8
CONTOURS_MINEURES
10
116.996
20
77.858
0
VERTEX
8
CONTOURS_MINEURES
10
115.000
20
77.997
0
VERTEX
8
CONTOURS_MINEURES
10
115.000
20
80.001
0
VERTEX
8
CONTOURS_MINEURES
10
115.000
20
81.004
0
VERTEX
8
CONTOURS_MINEURES
10
114.096
20
81.097
0
VERTEX
8
CONTOURS_MINEURES
10
114.002
20
81.111
0
VERTEX
8
CONTOURS_MINEURES
10
113.894
20
81.111
0
VERTEX
8
CONTOURS_MINEURES
10
110.997
20
81.111
0
VERTEX
8
CONTOURS_MINEURES
10
108.566
20
81.567
0
VERTEX
8
CONTOURS_MINEURES
10
108.003
20
81.635
0
VERTEX
8
CONTOURS_MINEURES
10
107.258
20
81.747
0
VERTEX
8
CONTOURS_MINEURES
10
104.998
20
82.147
0
VERTEX
8
CONTOURS_MINEURES
10
103.856
20
82.147
0
VERTEX
8
CONTOURS_MINEURES
10
102.004
20
82.147
0
VERTEX
8
CONTOURS_MINEURES
10
100.390
20
82.612
0
VERTEX
8
CONTOURS_MINEURES
10
98.999
20
83.014
0
VERTEX
8
CONTOURS_MINEURES
10
98.312
20
83.312
0
VERTEX
8
CONTOURS_MINEURES
10
96.890
20
83.999
0
VERTEX
8
CONTOURS_MINEURES
10
96.384
20
84.378
0
VERTEX
8
CONTOURS_MINEURES
10
96.005
20
84.662
0
VERTEX
8
CONTOURS_MINEURES
10
93.664
20
84.662
0
VERTEX
8
CONTOURS_MINEURES
10
93.000
20
84.662
0
VERTEX
8
CONTOURS_MINEURES
10
91.738
20
85.258
0
VERTEX
8
CONTOURS_MINEURES
10
89.995
20
86.259
0
VERTEX
8
CONTOURS_MINEURES
10
89.536
20
86.535
0
VERTEX
8
CONTOURS_MINEURES
10
88.806
20
86.995
0
VERTEX
8
CONTOURS_MINEURES
10
88.806
20
88.807
0
VERTEX
8
CONTOURS_MINEURES
10
88.806
20
90.002
0
SEQEND
0
POLYLINE
8
CONTOURS_MINEURES
66
1
70
0
0
VERTEX
8
CONTOURS_MINEURES
10
155.996
20
62.699
0
VERTEX
8
CONTOURS_MINEURES
10
154.326
20
61.672
0
VERTEX
8
CONTOURS_MINEURES
10
153.002
20
60.715
0
VERTEX
8
CONTOURS_MINEURES
10
150.098
20
60.102
0
VERTEX
8
CONTOURS_MINEURES
10
149.997
20
60.075
0
VERTEX
8
CONTOURS_MINEURES
10
149.923
20
60.075
0
VERTEX
8
CONTOURS_MINEURES
10
147.003
20
60.075
0
VERTEX
8
CONTOURS_MINEURES
10
144.717
20
60.718
0
VERTEX
8
CONTOURS_MINEURES
10
143.998
20
60.820
0
VERTEX
8
CONTOURS_MINEURES
10
142.448
20
61.446
0
VERTEX
8
CONTOURS_MINEURES
10
141.004
20
62.148
0
VERTEX
8
CONTOURS_MINEURES
10
138.850
20
62.148
0
VERTEX
8
CONTOURS_MINEURES
10
137.999
20
62.148
0
VERTEX
8
CONTOURS_MINEURES
10
136.816
20
62.997
0
VERTEX
8
CONTOURS_MINEURES
10
136.816
20
64.815
0
VERTEX
8
CONTOURS_MINEURES
10
136.816
20
66.003
0
VERTEX
8
CONTOURS_MINEURES
10
135.833
20
66.832
0
VERTEX
8
CONTOURS_MINEURES
10
135.005
20
67.341
0
VERTEX
8
CONTOURS_MINEURES
10
134.073
20
68.070
0
VERTEX
8
CONTOURS_MINEURES
10
132.616
20
68.999
0
VERTEX
8
CONTOURS_MINEURES
10
132.000
20
69.375
0
VERTEX
8
CONTOURS_MINEURES
10
129.372
20
69.375
0
VERTEX
8
CONTOURS_MINEURES
10
128.995
20
69.375
0
VERTEX
8
CONTOURS_MINEURES
10
127.387
20
70.386
0
VERTEX
8
CONTOURS_MINEURES
10
126.000
20
71.024
0
VERTEX
8
CONTOURS_MINEURES
10
123.016
20
71.974
0
VERTEX
8
CONTOURS_MINEURES
10
122.996
20
71.981
0
VERTEX
8
CONTOURS_MINEURES
10
120.016
20
71.981
0
VERTEX
8
CONTOURS_MINEURES
10
120.001
20
71.981
0
VERTEX
8
CONTOURS_MINEURES
10
119.988
20
71.981
0
VERTEX
8
CONTOURS_MINEURES
10
119.501
20
71.995
0
VERTEX
8
CONTOURS_MINEURES
10
119.501
20
72.496
0
VERTEX
8
CONTOURS_MINEURES
10
119.501
20
75.001
0
VERTEX
8
CONTOURS_MINEURES
10
117.065
20
75.070
0
VERTEX
8
CONTOURS_MINEURES
10
116.996
20
75.071
0
VERTEX
8
CONTOURS_MINEURES
10
116.922
20
75.076
0
VERTEX
8
CONTOURS_MINEURES
10
114.002
20
75.293
0
VERTEX
8
CONTOURS_MINEURES
10
111.289
20
75.293
0
VERTEX
8
CONTOURS_MINEURES
10
110.997
20
75.293
0
VERTEX
8
CONTOURS_MINEURES
10
110.666
20
75.332
0
VERTEX
8
CONTOURS_MINEURES
10
108.003
20
75.503
0
VERTEX
8
CONTOURS_MINEURES
10
105.630
20
75.631
0
VERTEX
8
CONTOURS_MINEURES
10
104.998
20
75.722
0
VERTEX
8
CONTOURS_MINEURES
10
102.725
20
75.722
0
VERTEX
8
CONTOURS_MINEURES
10
102.004
20
75.722
0
VERTEX
8
CONTOURS_MINEURES
10
101.058
20
75.944
0
VERTEX
8
CONTOURS_MINEURES
10
98.999
20
76.410
0
VERTEX
8
CONTOURS_MINEURES
10
96.810
20
77.191
0
VERTEX
8
CONTOURS_MINEURES
10
96.005
20
77.455
0
VERTEX
8
CONTOURS_MINEURES
10
93.543
20
77.455
0
VERTEX
8
CONTOURS_MINEURES
10
93.000
20
77.455
0
VERTEX
8
CONTOURS_MINEURES
10
92.593
20
77.591
0
VERTEX
8
CONTOURS_MINEURES
10
91.543
20
77.997
0
VERTEX
8
CONTOURS_MINEURES
10
91.543
20
79.455
0
VERTEX
8
CONTOURS_MINEURES
10
91.543
20
81.004
0
VERTEX
8
CONTOURS_MINEURES
10
90.475
20
81.482
0
VERTEX
8
CONTOURS_MINEURES
10
89.995
20
81.706
0
VERTEX
8
CONTOURS_MINEURES
10
88.619
20
82.380
0
VERTEX
8
CONTOURS_MINEURES
10
87.001
20
83.048
0
VERTEX
8
CONTOURS_MINEURES
10
86.047
20
83.048
0
VERTEX
8
CONTOURS_MINEURES
10
83.996
20
83.048
0
VERTEX
8
CONTOURS_MINEURES
10
83.266
20
83.999
0
VERTEX
8
CONTOURS_MINEURES
10
82.328
20
85.326
0
VERTEX
8
CONTOURS_MINEURES
10
81.002
20
86.901
0
VERTEX
8
CONTOURS_MINEURES
10
78.091
20
86.901
0
VERTEX
8
CONTOURS_MINEURES
10
77.997
20
86.901
0
VERTEX
8
CONTOURS_MINEURES
10
77.940
20
86.995
0
VERTEX
8
CONTOURS_MINEURES
10
77.940
20
87.052
0
VERTEX
8
CONTOURS_MINEURES
10
77.940
20
90.002
0
SEQEND
0
POLYLINE
8
CONTOURS_MINEURES
66
1
70
0
0
VERTEX
8
CONTOURS_MINEURES
10
155.996
20
59.306
0
VERTEX
8
CONTOURS_MINEURES
10
154.646
20
58.651
0
VERTEX
8
CONTOURS_MINEURES
10
153.002
20
57.874
0
VERTEX
8
CONTOURS_MINEURES
10
152.236
20
57.769
0
VERTEX
8
CONTOURS_MINEURES
10
149.997
20
57.257
0
VERTEX
8
CONTOURS_MINEURES
10
147.255
20
57.257
0
VERTEX
8
CONTOURS_MINEURES
10
147.003
20
57.257
0
VERTEX
8
CONTOURS_MINEURES
10
146.681
20
57.326
0
VERTEX
8
CONTOURS_MINEURES
10
143.998
20
57.697
0
VERTEX
8
CONTOURS_MINEURES
10
142.884
20
58.120
0
VERTEX
8
CONTOURS_MINEURES
10
141.004
20
58.770
0
VERTEX
8
CONTOURS_MINEURES
10
139.769
20
58.770
0
VERTEX
8
CONTOURS_MINEURES
10
137.999
20
58.770
0
VERTEX
8
CONTOURS_MINEURES
10
137.186
20
59.188
0
VERTEX
8
CONTOURS_MINEURES
10
135.831
20
60.001
0
VERTEX
8
CONTOURS_MINEURES
10
135.005
20
60.565
0
VERTEX
8
CONTOURS_MINEURES
10
132.159
20
62.997
0
VERTEX
8
CONTOURS_MINEURES
10
132.159
20
63.156
0
VERTEX
8
CONTOURS_MINEURES
10
132.159
20
66.003
0
VERTEX
8
CONTOURS_MINEURES
10
132.070
20
66.073
0
VERTEX
8
CONTOURS_MINEURES
10
132.000
20
66.118
0
VERTEX
8
CONTOURS_MINEURES
10
129.110
20
66.118
0
VERTEX
8
CONTOURS_MINEURES
10
128.995
20
66.118
0
VERTEX
8
CONTOURS_MINEURES
10
128.662
20
66.336
0
VERTEX
8
CONTOURS_MINEURES
10
126.000
20
68.062
0
VERTEX
8
CONTOURS_MINEURES
10
125.316
20
68.317
0
VERTEX
8
CONTOURS_MINEURES
10
123.451
20
68.999
0
VERTEX
8
CONTOURS_MINEURES
10
122.996
20
69.141
0
VERTEX
8
CONTOURS_MINEURES
10
122.854
20
69.141
0
VERTEX
8
CONTOURS_MINEURES
10
120.001
20
69.141
0
VERTEX
8
CONTOURS_MINEURES
10
117.268
20
69.270
0
VERTEX
8
CONTOURS_MINEURES
10
116.996
20
69.278
0
VERTEX
8
CONTOURS_MINEURES
10
114.342
20
69.339
0
VERTEX
8
CONTOURS_MINEURES
10
114.002
20
69.366
0
VERTEX
8
CONTOURS_MINEURES
10
113.634
20
69.366
0
VERTEX
8
CONTOURS_MINEURES
10
110.997
20
69.366
0
VERTEX
8
CONTOURS_MINEURES
10
108.383
20
69.379
0
VERTEX
8
CONTOURS_MINEURES
10
108.003
20
69.405
0
VERTEX
8
CONTOURS_MINEURES
10
107.571
20
69.429
0
VERTEX
8
CONTOURS_MINEURES
10
104.998
20
69.471
0
VERTEX
8
CONTOURS_MINEURES
10
102.476
20
69.471
0
VERTEX
8
CONTOURS_MINEURES
10
102.004
20
69.471
0
VERTEX
8
CONTOURS_MINEURES
10
101.390
20
69.611
0
VERTEX
8
CONTOURS_MINEURES
10
98.999
20
70.071
0
VERTEX
8
CONTOURS_MINEURES
10
97.595
20
70.590
0
VERTEX
8
CONTOURS_MINEURES
10
96.005
20
71.094
0
VERTEX
8
CONTOURS_MINEURES
10
95.102
20
71.094
0
VERTEX
8
CONTOURS_MINEURES
10
93.000
20
71.094
0
VERTEX
8
CONTOURS_MINEURES
10
90.199
20
71.995
0
VERTEX
8
CONTOURS_MINEURES
10
90.199
20
74.798
0
VERTEX
8
CONTOURS_MINEURES
10
90.199
20
75.001
0
VERTEX
8
CONTOURS_MINEURES
10
90.046
20
75.052
0
VERTEX
8
CONTOURS_MINEURES
10
89.995
20
75.072
0
VERTEX
8
CONTOURS_MINEURES
10
87.446
20
75.447
0
VERTEX
8
CONTOURS_MINEURES
10
87.001
20
75.609
0
VERTEX
8
CONTOURS_MINEURES
10
86.391
20
75.609
0
VERTEX
8
CONTOURS_MINEURES
10
83.996
20
75.609
0
VERTEX
8
CONTOURS_MINEURES
10
82.131
20
76.131
0
VERTEX
8
CONTOURS_MINEURES
10
81.198
20
77.997
0
VERTEX
8
CONTOURS_MINEURES
10
81.198
20
80.807
0
VERTEX
8
CONTOURS_MINEURES
10
81.198
20
81.004
0
VERTEX
8
CONTOURS_MINEURES
10
81.002
20
81.289
0
VERTEX
8
CONTOURS_MINEURES
10
78.283
20
81.289
0
VERTEX
8
CONTOURS_MINEURES
10
77.997
20
81.289
0
VERTEX
8
CONTOURS_MINEURES
10
76.948
20
82.950
0
VERTEX
8
CONTOURS_MINEURES
10
76.805
20
83.999
0
VERTEX
8
CONTOURS_MINEURES
10
75.288
20
86.710
0
VERTEX
8
CONTOURS_MINEURES
10
75.116
20
86.995
0
VERTEX
8
CONTOURS_MINEURES
10
75.116
20
89.888
0
VERTEX
8
CONTOURS_MINEURES
10
75.116
20
90.002
0
SEQEND
0
POLYLINE
8
CONTOURS_MINEURES
66
1
70
0
0
VERTEX
8
CONTOURS_MINEURES
10
155.996
20
53.783
0
VERTEX
8
CONTOURS_MINEURES
10
155.671
20
53.674
0
VERTEX
8
CONTOURS_MINEURES
10
153.002
20
52.581
0
VERTEX
8
CONTOURS_MINEURES
10
151.654
20
52.347
0
VERTEX
8
CONTOURS_MINEURES
10
149.997
20
51.869
0
VERTEX
8
CONTOURS_MINEURES
10
147.868
20
51.869
0
VERTEX
8
CONTOURS_MINEURES
10
147.003
20
51.869
0
VERTEX
8
CONTOURS_MINEURES
10
144.743
20
51.746
0
VERTEX
8
CONTOURS_MINEURES
10
143.998
20
51.839
0
VERTEX
8
CONTOURS_MINEURES
10
142.192
20
52.192
0
VERTEX
8
CONTOURS_MINEURES
10
141.004
20
52.586
0
VERTEX
8
CONTOURS_MINEURES
10
139.416
20
52.586
0
VERTEX
8
CONTOURS_MINEURES
10
137.999
20
52.586
0
VERTEX
8
CONTOURS_MINEURES
10
137.053
20
53.052
0
VERTEX
8
CONTOURS_MINEURES
10
135.131
20
53.999
0
VERTEX
8
CONTOURS_MINEURES
10
135.131
20
56.879
0
VERTEX
8
CONTOURS_MINEURES
10
135.131
20
57.005
0
VERTEX
8
CONTOURS_MINEURES
10
135.047
20
57.048
0
VERTEX
8
CONTOURS_MINEURES
10
135.005
20
57.074
0
VERTEX
8
CONTOURS_MINEURES
10
134.731
20
57.278
0
VERTEX
8
CONTOURS_MINEURES
10
132.000
20
59.275
0
VERTEX
8
CONTOURS_MINEURES
10
129.723
20
59.275
0
VERTEX
8
CONTOURS_MINEURES
10
128.995
20
59.275
0
VERTEX
8
CONTOURS_MINEURES
10
127.886
20
60.001
0
VERTEX
8
CONTOURS_MINEURES
10
126.781
20
60.782
0
VERTEX
8
CONTOURS_MINEURES
10
126.000
20
61.406
0
VERTEX
8
CONTOURS_MINEURES
10
123.381
20
62.613
0
VERTEX
8
CONTOURS_MINEURES
10
122.996
20
62.813
0
VERTEX
8
CONTOURS_MINEURES
10
120.185
20
62.813
0
VERTEX
8
CONTOURS_MINEURES
10
120.001
20
62.813
0
VERTEX
8
CONTOURS_MINEURES
10
119.848
20
62.844
0
VERTEX
8
CONTOURS_MINEURES
10
118.499
20
62.997
0
VERTEX
8
CONTOURS_MINEURES
10
118.499
20
64.500
0
VERTEX
8
CONTOURS_MINEURES
10
118.499
20
66.003
0
VERTEX
8
CONTOURS_MINEURES
10
117.147
20
66.153
0
VERTEX
8
CONTOURS_MINEURES
10
116.996
20
66.161
0
VERTEX
8
CONTOURS_MINEURES
10
116.835
20
66.165
0
VERTEX
8
CONTOURS_MINEURES
10
114.002
20
66.196
0
VERTEX
8
CONTOURS_MINEURES
10
113.809
20
66.196
0
VERTEX
8
CONTOURS_MINEURES
10
110.997
20
66.196
0
VERTEX
8
CONTOURS_MINEURES
10
108.240
20
66.240
0
VERTEX
8
CONTOURS_MINEURES
10
108.003
20
66.241
0
VERTEX
8
CONTOURS_MINEURES
10
107.761
20
66.245
0
VERTEX
8
CONTOURS_MINEURES
10
104.998
20
66.274
0
VERTEX
8
CONTOURS_MINEURES
10
104.727
20
66.274
0
VERTEX
8
CONTOURS_MINEURES
10
102.004
20
66.274
0
VERTEX
8
CONTOURS_MINEURES
10
99.409
20
66.412
0
VERTEX
8
CONTOURS_MINEURES
10
98.999
20
66.497
0
VERTEX
8
CONTOURS_MINEURES
10
98.182
20
66.820
0
VERTEX
8
CONTOURS_MINEURES
10
96.005
20
67.580
0
VERTEX
8
CONTOURS_MINEURES
10
94.423
20
67.580
0
VERTEX
8
CONTOURS_MINEURES
10
93.000
20
67.580
0
VERTEX
8
CONTOURS_MINEURES
10
91.890
20
67.893
0
VERTEX
8
CONTOURS_MINEURES
10
89.995
20
68.306
0
VERTEX
8
CONTOURS_MINEURES
10
87.540
20
68.460
0
VERTEX
8
CONTOURS_MINEURES
10
87.001
20
68.509
0
VERTEX
8
CONTOURS_MINEURES
10
84.488
20
68.509
0
VERTEX
8
CONTOURS_MINEURES
10
83.996
20
68.509
0
VERTEX
8
CONTOURS_MINEURES
10
83.474
20
68.477
0
VERTEX
8
CONTOURS_MINEURES
10
81.002
20
68.648
0
VERTEX
8
CONTOURS_MINEURES
10
80.649
20
68.648
0
VERTEX
8
CONTOURS_MINEURES
10
77.997
20
68.648
0
VERTEX
8
CONTOURS_MINEURES
10
77.569
20
68.571
0
VERTEX
8
CONTOURS_MINEURES
10
75.003
20
68.859
0
VERTEX
8
CONTOURS_MINEURES
10
74.597
20
68.999
0
VERTEX
8
CONTOURS_MINEURES
10
71.998
20
71.662
0
VERTEX
8
CONTOURS_MINEURES
10
69.336
20
71.662
0
VERTEX
8
CONTOURS_MINEURES
10
69.004
20
71.662
0
VERTEX
8
CONTOURS_MINEURES
10
68.616
20
71.995
0
VERTEX
8
CONTOURS_MINEURES
10
68.616
20
74.613
0
VERTEX
8
CONTOURS_MINEURES
10
68.616
20
75.001
0
VERTEX
8
CONTOURS_MINEURES
10
65.999
20
77.997
0
VERTEX
8
CONTOURS_MINEURES
10
65.999
20
81.004
0
VERTEX
8
CONTOURS_MINEURES
10
64.580
20
82.580
0
VERTEX
8
CONTOURS_MINEURES
10
63.304
20
83.999
0
VERTEX
8
CONTOURS_MINEURES
10
63.304
20
86.695
0
VERTEX
8
CONTOURS_MINEURES
10
63.254
20
86.995
0
VERTEX
8
CONTOURS_MINEURES
10
63.254
20
89.751
0
VERTEX
8
CONTOURS_MINEURES
10
63.254
20
90.002
0
SEQEND
0
POLYLINE
8
CONTOURS_MINEURES
66
1
70
0
0
VERTEX
8
CONTOURS_MINEURES
10
13.980
20
90.002
0
VERTEX
8
CONTOURS_MINEURES
10
13.980
20
88.981
0
VERTEX
8
CONTOURS_MINEURES
10
13.980
20
86.995
0
VERTEX
8
CONTOURS_MINEURES
10
13.919
20
85.917
0
VERTEX
8
CONTOURS_MINEURES
10
13.572
20
83.999
0
VERTEX
8
CONTOURS_MINEURES
10
13.114
20
82.885
0
VERTEX
8
CONTOURS_MINEURES
10
12.997
20
81.004
0
VERTEX
8
CONTOURS_MINEURES
10
12.997
20
78.999
0
VERTEX
8
CONTOURS_MINEURES
10
12.997
20
77.997
0
VERTEX
8
CONTOURS_MINEURES
10
12.672
20
77.323
0
VERTEX
8
CONTOURS_MINEURES
10
11.996
20
76.024
0
VERTEX
8
CONTOURS_MINEURES
10
11.247
20
75.001
0
VERTEX
8
CONTOURS_MINEURES
10
11.247
20
74.250
0
VERTEX
8
CONTOURS_MINEURES
10
11.247
20
71.995
0
VERTEX
8
CONTOURS_MINEURES
10
9.863
20
71.133
0
VERTEX
8
CONTOURS_MINEURES
10
9.002
20
70.785
0
VERTEX
8
CONTOURS_MINEURES
10
7.788
20
70.785
0
VERTEX
8
CONTOURS_MINEURES
10
5.997
20
70.785
0
VERTEX
8
CONTOURS_MINEURES
10
4.437
20
70.560
0
VERTEX
8
CONTOURS_MINEURES
10
3.002
20
70.234
0
VERTEX
8
CONTOURS_MINEURES
10
1.237
20
70.234
0
VERTEX
8
CONTOURS_MINEURES
10
-0.002
20
70.234
0
SEQEND
0
POLYLINE
8
CONTOURS_MINEURES
66
1
70
0
0
VERTEX
8
CONTOURS_MINEURES
10
155.996
20
51.387
0
VERTEX
8
CONTOURS_MINEURES
10
154.855
20
51.003
0
VERTEX
8
CONTOURS_MINEURES
10
154.855
20
49.142
0
VERTEX
8
CONTOURS_MINEURES
10
154.855
20
47.996
0
VERTEX
8
CONTOURS_MINEURES
10
153.002
20
47.304
0
VERTEX
8
CONTOURS_MINEURES
10
151.263
20
46.734
0
VERTEX
8
CONTOURS_MINEURES
10
149.997
20
46.658
0
VERTEX
8
CONTOURS_MINEURES
10
148.341
20
46.658
0
VERTEX
8
CONTOURS_MINEURES
10
147.003
20
46.658
0
VERTEX
8
CONTOURS_MINEURES
10
145.419
20
46.580
0
VERTEX
8
CONTOURS_MINEURES
10
143.998
20
46.477
0
VERTEX
8
CONTOURS_MINEURES
10
142.258
20
46.742
0
VERTEX
8
CONTOURS_MINEURES
10
141.004
20
46.808
0
VERTEX
8
CONTOURS_MINEURES
10
139.811
20
46.808
0
VERTEX
8
CONTOURS_MINEURES
10
137.999
20
46.808
0
VERTEX
8
CONTOURS_MINEURES
10
135.064
20
47.937
0
VERTEX
8
CONTOURS_MINEURES
10
135.005
20
47.956
0
VERTEX
8
CONTOURS_MINEURES
10
134.973
20
47.965
0
VERTEX
8
CONTOURS_MINEURES
10
134.917
20
47.996
0
VERTEX
8
CONTOURS_MINEURES
10
134.917
20
48.084
0
VERTEX
8
CONTOURS_MINEURES
10
134.917
20
51.003
0
VERTEX
8
CONTOURS_MINEURES
10
132.000
20
52.715
0
VERTEX
8
CONTOURS_MINEURES
10
130.712
20
52.715
0
VERTEX
8
CONTOURS_MINEURES
10
128.995
20
52.715
0
VERTEX
8
CONTOURS_MINEURES
10
128.172
20
53.176
0
VERTEX
8
CONTOURS_MINEURES
10
126.953
20
53.999
0
VERTEX
8
CONTOURS_MINEURES
10
126.953
20
54.955
0
VERTEX
8
CONTOURS_MINEURES
10
126.953
20
57.005
0
VERTEX
8
CONTOURS_MINEURES
10
126.000
20
57.633
0
VERTEX
8
CONTOURS_MINEURES
10
124.414
20
58.419
0
VERTEX
8
CONTOURS_MINEURES
10
122.996
20
59.148
0
VERTEX
8
CONTOURS_MINEURES
10
122.143
20
59.148
0
VERTEX
8
CONTOURS_MINEURES
10
120.001
20
59.148
0
VERTEX
8
CONTOURS_MINEURES
10
117.315
20
59.683
0
VERTEX
8
CONTOURS_MINEURES
10
116.996
20
59.767
0
VERTEX
8
CONTOURS_MINEURES
10
114.141
20
59.863
0
VERTEX
8
CONTOURS_MINEURES
10
114.002
20
59.862
0
VERTEX
8
CONTOURS_MINEURES
10
113.862
20
59.862
0
VERTEX
8
CONTOURS_MINEURES
10
110.997
20
59.862
0
VERTEX
8
CONTOURS_MINEURES
10
110.866
20
59.870
0
VERTEX
8
CONTOURS_MINEURES
10
108.003
20
59.984
0
VERTEX
8
CONTOURS_MINEURES
10
107.001
20
60.001
0
VERTEX
8
CONTOURS_MINEURES
10
105.030
20
60.033
0
VERTEX
8
CONTOURS_MINEURES
10
104.998
20
60.033
0
VERTEX
8
CONTOURS_MINEURES
10
104.966
20
60.033
0
VERTEX
8
CONTOURS_MINEURES
10
102.004
20
60.033
0
VERTEX
8
CONTOURS_MINEURES
10
101.970
20
60.035
0
VERTEX
8
CONTOURS_MINEURES
10
98.999
20
60.102
0
VERTEX
8
CONTOURS_MINEURES
10
96.356
20
60.353
0
VERTEX
8
CONTOURS_MINEURES
10
96.005
20
60.483
0
VERTEX
8
CONTOURS_MINEURES
10
93.483
20
60.483
0
VERTEX
8
CONTOURS_MINEURES
10
93.000
20
60.483
0
VERTEX
8
CONTOURS_MINEURES
10
92.309
20
60.690
0
VERTEX
8
CONTOURS_MINEURES
10
89.995
20
61.361
0
VERTEX
8
CONTOURS_MINEURES
10
88.498
20
61.499
0
VERTEX
8
CONTOURS_MINEURES
10
87.001
20
61.661
0
VERTEX
8
CONTOURS_MINEURES
10
85.336
20
61.661
0
VERTEX
8
CONTOURS_MINEURES
10
83.996
20
61.661
0
VERTEX
8
CONTOURS_MINEURES
10
82.449
20
61.549
0
VERTEX
8
CONTOURS_MINEURES
10
81.002
20
61.121
0
VERTEX
8
CONTOURS_MINEURES
10
79.878
20
61.121
0
VERTEX
8
CONTOURS_MINEURES
10
77.997
20
61.121
0
VERTEX
8
CONTOURS_MINEURES
10
75.268
20
60.267
0
VERTEX
8
CONTOURS_MINEURES
10
75.003
20
60.201
0
VERTEX
8
CONTOURS_MINEURES
10
73.600
20
60.001
0
VERTEX
8
CONTOURS_MINEURES
10
72.149
20
59.850
0
VERTEX
8
CONTOURS_MINEURES
10
71.998
20
59.795
0
VERTEX
8
CONTOURS_MINEURES
10
71.791
20
59.795
0
VERTEX
8
CONTOURS_MINEURES
10
69.004
20
59.795
0
VERTEX
8
CONTOURS_MINEURES
10
66.182
20
59.819
0
VERTEX
8
CONTOURS_MINEURES
10
65.999
20
59.760
0
VERTEX
8
CONTOURS_MINEURES
10
65.773
20
59.776
0
VERTEX
8
CONTOURS_MINEURES
10
65.344
20
60.001
0
VERTEX
8
CONTOURS_MINEURES
10
63.004
20
61.784
0
VERTEX
8
CONTOURS_MINEURES
10
61.788
20
61.784
0
VERTEX
8
CONTOURS_MINEURES
10
59.999
20
61.784
0
VERTEX
8
CONTOURS_MINEURES
10
59.251
20
62.997
0
VERTEX
8
CONTOURS_MINEURES
10
59.251
20
65.252
0
VERTEX
8
CONTOURS_MINEURES
10
59.251
20
66.003
0
VERTEX
8
CONTOURS_MINEURES
10
58.322
20
67.320
0
VERTEX
8
CONTOURS_MINEURES
10
57.005
20
68.732
0
VERTEX
8
CONTOURS_MINEURES
10
56.881
20
68.875
0
VERTEX
8
CONTOURS_MINEURES
10
56.774
20
68.999
0
VERTEX
8
CONTOURS_MINEURES
10
54.000
20
71.114
0
VERTEX
8
CONTOURS_MINEURES
10
53.117
20
71.114
0
VERTEX
8
CONTOURS_MINEURES
10
50.995
20
71.114
0
VERTEX
8
CONTOURS_MINEURES
10
50.145
20
71.995
0
VERTEX
8
CONTOURS_MINEURES
10
50.145
20
74.147
0
VERTEX
8
CONTOURS_MINEURES
10
50.145
20
75.001
0
VERTEX
8
CONTOURS_MINEURES
10
49.104
20
76.105
0
VERTEX
8
CONTOURS_MINEURES
10
48.001
20
77.452
0
VERTEX
8
CONTOURS_MINEURES
10
47.783
20
77.780
0
VERTEX
8
CONTOURS_MINEURES
10
47.670
20
77.997
0
VERTEX
8
CONTOURS_MINEURES
10
47.670
20
78.328
0
VERTEX
8
CONTOURS_MINEURES
10
47.670
20
81.004
0
VERTEX
8
CONTOURS_MINEURES
10
46.765
20
82.767
0
VERTEX
8
CONTOURS_MINEURES
10
46.281
20
83.999
0
VERTEX
8
CONTOURS_MINEURES
10
45.865
20
84.866
0
VERTEX
8
CONTOURS_MINEURES
10
45.244
20
86.995
0
VERTEX
8
CONTOURS_MINEURES
10
45.244
20
87.242
0
VERTEX
8
CONTOURS_MINEURES
10
45.244
20
90.002
0
SEQEND
0
POLYLINE
8
CONTOURS_MINEURES
66
1
70
0
0
VERTEX
8
CONTOURS_MINEURES
10
28.376
20
90.002
0
VERTEX
8
CONTOURS_MINEURES
10
28.376
20
88.624
0
VERTEX
8
CONTOURS_MINEURES
10
28.376
20
86.995
0
VERTEX
8
CONTOURS_MINEURES
10
28.201
20
85.198
0
VERTEX
8
CONTOURS_MINEURES
10
28.148
20
83.999
0
VERTEX
8
CONTOURS_MINEURES
10
26.999
20
81.403
0
VERTEX
8
CONTOURS_MINEURES
10
26.600
20
81.403
0
VERTEX
8
CONTOURS_MINEURES
10
24.005
20
81.403
0
VERTEX
8
CONTOURS_MINEURES
10
23.849
20
81.004
0
VERTEX
8
CONTOURS_MINEURES
10
23.849
20
78.153
0
VERTEX
8
CONTOURS_MINEURES
10
23.849
20
77.997
0
VERTEX
8
CONTOURS_MINEURES
10
23.575
20
77.569
0
VERTEX
8
CONTOURS_MINEURES
10
21.961
20
75.001
0
VERTEX
8
CONTOURS_MINEURES
10
21.961
20
74.039
0
VERTEX
8
CONTOURS_MINEURES
10
21.961
20
71.995
0
VERTEX
8
CONTOURS_MINEURES
10
21.377
20
71.618
0
VERTEX
8
CONTOURS_MINEURES
10
21.000
20
71.168
0
VERTEX
8
CONTOURS_MINEURES
10
19.886
20
70.109
0
VERTEX
8
CONTOURS_MINEURES
10
19.088
20
68.999
0
VERTEX
8
CONTOURS_MINEURES
10
18.428
20
68.568
0
VERTEX
8
CONTOURS_MINEURES
10
17.995
20
68.212
0
VERTEX
8
CONTOURS_MINEURES
10
15.788
20
68.212
0
VERTEX
8
CONTOURS_MINEURES
10
15.001
20
68.212
0
VERTEX
8
CONTOURS_MINEURES
10
13.362
20
67.365
0
VERTEX
8
CONTOURS_MINEURES
10
11.996
20
66.717
0
VERTEX
8
CONTOURS_MINEURES
10
11.461
20
66.538
0
VERTEX
8
CONTOURS_MINEURES
10
9.002
20
66.297
0
VERTEX
8
CONTOURS_MINEURES
10
6.291
20
66.297
0
VERTEX
8
CONTOURS_MINEURES
10
5.997
20
66.297
0
VERTEX
8
CONTOURS_MINEURES
10
3.205
20
66.206
0
VERTEX
8
CONTOURS_MINEURES
10
3.002
20
66.180
0
VERTEX
8
CONTOURS_MINEURES
10
2.826
20
66.180
0
VERTEX
8
CONTOURS_MINEURES
10
-0.002
20
66.180
0
SEQEND
0
POLYLINE
8
CONTOURS_MINEURES
66
1
70
0
0
VERTEX
8
CONTOURS_MINEURES
10
155.996
20
43.372
0
VERTEX
8
CONTOURS_MINEURES
10
154.527
20
43.475
0
VERTEX
8
CONTOURS_MINEURES
10
153.002
20
44.176
0
VERTEX
8
CONTOURS_MINEURES
10
152.414
20
44.415
0
VERTEX
8
CONTOURS_MINEURES
10
149.997
20
44.150
0
VERTEX
8
CONTOURS_MINEURES
10
149.147
20
44.150
0
VERTEX
8
CONTOURS_MINEURES
10
147.003
20
44.150
0
VERTEX
8
CONTOURS_MINEURES
10
146.230
20
44.230
0
VERTEX
8
CONTOURS_MINEURES
10
143.998
20
43.997
0
VERTEX
8
CONTOURS_MINEURES
10
141.862
20
44.143
0
VERTEX
8
CONTOURS_MINEURES
10
141.004
20
44.266
0
VERTEX
8
CONTOURS_MINEURES
10
140.267
20
44.266
0
VERTEX
8
CONTOURS_MINEURES
10
137.999
20
44.266
0
VERTEX
8
CONTOURS_MINEURES
10
135.786
20
45.001
0
VERTEX
8
CONTOURS_MINEURES
10
135.005
20
45.245
0
VERTEX
8
CONTOURS_MINEURES
10
132.886
20
45.885
0
VERTEX
8
CONTOURS_MINEURES
10
132.000
20
46.377
0
VERTEX
8
CONTOURS_MINEURES
10
130.375
20
46.377
0
VERTEX
8
CONTOURS_MINEURES
10
128.995
20
46.377
0
VERTEX
8
CONTOURS_MINEURES
10
126.069
20
47.928
0
VERTEX
8
CONTOURS_MINEURES
10
126.000
20
47.961
0
VERTEX
8
CONTOURS_MINEURES
10
125.928
20
47.996
0
VERTEX
8
CONTOURS_MINEURES
10
125.928
20
50.931
0
VERTEX
8
CONTOURS_MINEURES
10
125.928
20
51.003
0
VERTEX
8
CONTOURS_MINEURES
10
123.985
20
51.990
0
VERTEX
8
CONTOURS_MINEURES
10
122.996
20
52.492
0
VERTEX
8
CONTOURS_MINEURES
10
121.508
20
52.492
0
VERTEX
8
CONTOURS_MINEURES
10
120.001
20
52.492
0
VERTEX
8
CONTOURS_MINEURES
10
118.906
20
52.907
0
VERTEX
8
CONTOURS_MINEURES
10
116.996
20
53.410
0
VERTEX
8
CONTOURS_MINEURES
10
114.604
20
53.396
0
VERTEX
8
CONTOURS_MINEURES
10
114.002
20
53.400
0
VERTEX
8
CONTOURS_MINEURES
10
113.401
20
53.400
0
VERTEX
8
CONTOURS_MINEURES
10
110.997
20
53.400
0
VERTEX
8
CONTOURS_MINEURES
10
108.446
20
53.556
0
VERTEX
8
CONTOURS_MINEURES
10
108.003
20
53.548
0
VERTEX
8
CONTOURS_MINEURES
10
107.590
20
53.587
0
VERTEX
8
CONTOURS_MINEURES
10
104.998
20
53.706
0
VERTEX
8
CONTOURS_MINEURES
10
102.297
20
53.706
0
VERTEX
8
CONTOURS_MINEURES
10
102.004
20
53.706
0
VERTEX
8
CONTOURS_MINEURES
10
99.196
20
53.803
0
VERTEX
8
CONTOURS_MINEURES
10
98.999
20
53.814
0
VERTEX
8
CONTOURS_MINEURES
10
97.567
20
53.999
0
VERTEX
8
CONTOURS_MINEURES
10
97.567
20
55.567
0
VERTEX
8
CONTOURS_MINEURES
10
97.567
20
57.005
0
VERTEX
8
CONTOURS_MINEURES
10
96.005
20
57.196
0
VERTEX
8
CONTOURS_MINEURES
10
95.814
20
57.196
0
VERTEX
8
CONTOURS_MINEURES
10
93.000
20
57.196
0
VERTEX
8
CONTOURS_MINEURES
10
90.467
20
57.476
0
VERTEX
8
CONTOURS_MINEURES
10
89.995
20
57.590
0
VERTEX
8
CONTOURS_MINEURES
10
89.362
20
57.639
0
VERTEX
8
CONTOURS_MINEURES
10
87.001
20
57.331
0
VERTEX
8
CONTOURS_MINEURES
10
84.323
20
57.331
0
VERTEX
8
CONTOURS_MINEURES
10
83.996
20
57.331
0
VERTEX
8
CONTOURS_MINEURES
10
83.735
20
57.267
0
VERTEX
8
CONTOURS_MINEURES
10
82.547
20
57.005
0
VERTEX
8
CONTOURS_MINEURES
10
82.547
20
55.551
0
VERTEX
8
CONTOURS_MINEURES
10
82.547
20
53.999
0
VERTEX
8
CONTOURS_MINEURES
10
81.002
20
53.524
0
VERTEX
8
CONTOURS_MINEURES
10
78.473
20
53.524
0
VERTEX
8
CONTOURS_MINEURES
10
77.997
20
53.524
0
VERTEX
8
CONTOURS_MINEURES
10
77.076
20
53.077
0
VERTEX
8
CONTOURS_MINEURES
10
75.003
20
52.272
0
VERTEX
8
CONTOURS_MINEURES
10
74.157
20
51.846
0
VERTEX
8
CONTOURS_MINEURES
10
72.544
20
51.003
0
VERTEX
8
CONTOURS_MINEURES
10
72.544
20
50.456
0
VERTEX
8
CONTOURS_MINEURES
10
72.544
20
47.996
0
VERTEX
8
CONTOURS_MINEURES
10
71.998
20
47.747
0
VERTEX
8
CONTOURS_MINEURES
10
69.253
20
47.747
0
VERTEX
8
CONTOURS_MINEURES
10
69.004
20
47.747
0
VERTEX
8
CONTOURS_MINEURES
10
68.679
20
47.673
0
VERTEX
8
CONTOURS_MINEURES
10
65.999
20
46.884
0
VERTEX
8
CONTOURS_MINEURES
10
65.086
20
47.084
0
VERTEX
8
CONTOURS_MINEURES
10
63.004
20
47.299
0
VERTEX
8
CONTOURS_MINEURES
10
60.699
20
47.299
0
VERTEX
8
CONTOURS_MINEURES
10
59.999
20
47.299
0
VERTEX
8
CONTOURS_MINEURES
10
58.203
20
47.996
0
VERTEX
8
CONTOURS_MINEURES
10
58.203
20
49.800
0
VERTEX
8
CONTOURS_MINEURES
10
58.203
20
51.003
0
VERTEX
8
CONTOURS_MINEURES
10
57.414
20
51.412
0
VERTEX
8
CONTOURS_MINEURES
10
57.005
20
51.609
0
VERTEX
8
CONTOURS_MINEURES
10
55.582
20
52.422
0
VERTEX
8
CONTOURS_MINEURES
10
54.000
20
53.268
0
VERTEX
8
CONTOURS_MINEURES
10
53.267
20
53.268
0
VERTEX
8
CONTOURS_MINEURES
10
50.995
20
53.268
0
VERTEX
8
CONTOURS_MINEURES
10
50.115
20
53.999
0
VERTEX
8
CONTOURS_MINEURES
10
50.115
20
54.883
0
VERTEX
8
CONTOURS_MINEURES
10
50.115
20
57.005
0
VERTEX
8
CONTOURS_MINEURES
10
49.410
20
58.415
0
VERTEX
8
CONTOURS_MINEURES
10
48.469
20
60.001
0
VERTEX
8
CONTOURS_MINEURES
10
48.320
20
60.320
0
VERTEX
8
CONTOURS_MINEURES
10
48.001
20
60.833
0
VERTEX
8
CONTOURS_MINEURES
10
46.916
20
62.997
0
VERTEX
8
CONTOURS_MINEURES
10
46.916
20
64.082
0
VERTEX
8
CONTOURS_MINEURES
10
46.916
20
66.003
0
VERTEX
8
CONTOURS_MINEURES
10
46.209
20
67.212
0
VERTEX
8
CONTOURS_MINEURES
10
45.382
20
68.999
0
VERTEX
8
CONTOURS_MINEURES
10
45.201
20
69.203
0
VERTEX
8
CONTOURS_MINEURES
10
44.996
20
69.965
0
VERTEX
8
CONTOURS_MINEURES
10
42.968
20
69.965
0
VERTEX
8
CONTOURS_MINEURES
10
42.002
20
69.965
0
VERTEX
8
CONTOURS_MINEURES
10
40.914
20
71.995
0
VERTEX
8
CONTOURS_MINEURES
10
40.914
20
73.913
0
VERTEX
8
CONTOURS_MINEURES
10
40.914
20
75.001
0
VERTEX
8
CONTOURS_MINEURES
10
38.997
20
77.411
0
VERTEX
8
CONTOURS_MINEURES
10
38.458
20
77.458
0
VERTEX
8
CONTOURS_MINEURES
10
36.003
20
76.862
0
VERTEX
8
CONTOURS_MINEURES
10
34.865
20
76.862
0
VERTEX
8
CONTOURS_MINEURES
10
32.998
20
76.862
0
VERTEX
8
CONTOURS_MINEURES
10
32.267
20
75.732
0
VERTEX
8
CONTOURS_MINEURES
10
31.692
20
75.001
0
VERTEX
8
CONTOURS_MINEURES
10
31.692
20
73.690
0
VERTEX
8
CONTOURS_MINEURES
10
31.692
20
71.995
0
VERTEX
8
CONTOURS_MINEURES
10
30.890
20
71.108
0
VERTEX
8
CONTOURS_MINEURES
10
30.004
20
70.900
0
VERTEX
8
CONTOURS_MINEURES
10
27.792
20
68.999
0
VERTEX
8
CONTOURS_MINEURES
10
27.421
20
68.578
0
VERTEX
8
CONTOURS_MINEURES
10
26.999
20
68.418
0
VERTEX
8
CONTOURS_MINEURES
10
26.418
20
68.418
0
VERTEX
8
CONTOURS_MINEURES
10
24.005
20
68.418
0
VERTEX
8
CONTOURS_MINEURES
10
22.502
20
67.501
0
VERTEX
8
CONTOURS_MINEURES
10
21.000
20
66.281
0
VERTEX
8
CONTOURS_MINEURES
10
20.832
20
66.171
0
VERTEX
8
CONTOURS_MINEURES
10
20.628
20
66.003
0
VERTEX
8
CONTOURS_MINEURES
10
20.628
20
63.369
0
VERTEX
8
CONTOURS_MINEURES
10
20.628
20
62.997
0
VERTEX
8
CONTOURS_MINEURES
10
17.995
20
61.419
0
VERTEX
8
CONTOURS_MINEURES
10
16.577
20
61.419
0
VERTEX
8
CONTOURS_MINEURES
10
15.001
20
61.419
0
VERTEX
8
CONTOURS_MINEURES
10
12.055
20
60.060
0
VERTEX
8
CONTOURS_MINEURES
10
11.996
20
60.036
0
VERTEX
8
CONTOURS_MINEURES
10
11.964
20
60.033
0
VERTEX
8
CONTOURS_MINEURES
10
11.535
20
60.001
0
VERTEX
8
CONTOURS_MINEURES
10
9.002
20
59.810
0
VERTEX
8
CONTOURS_MINEURES
10
8.809
20
59.810
0
VERTEX
8
CONTOURS_MINEURES
10
5.997
20
59.810
0
VERTEX
8
CONTOURS_MINEURES
10
3.252
20
60.001
0
VERTEX
8
CONTOURS_MINEURES
10
3.019
20
60.017
0
VERTEX
8
CONTOURS_MINEURES
10
3.002
20
60.017
0
VERTEX
8
CONTOURS_MINEURES
10
2.987
20
60.017
0
VERTEX
8
CONTOURS_MINEURES
10
-0.002
20
60.017
0
SEQEND
0
POLYLINE
8
CONTOURS_MINEURES
66
1
70
0
0
VERTEX
8
CONTOURS_MINEURES
10
155.996
20
29.172
0
VERTEX
8
CONTOURS_MINEURES
10
155.175
20
29.179
0
VERTEX
8
CONTOURS_MINEURES
10
153.002
20
29.145
0
VERTEX
8
CONTOURS_MINEURES
10
150.609
20
29.391
0
VERTEX
8
CONTOURS_MINEURES
10
149.997
20
29.363
0
VERTEX
8
CONTOURS_MINEURES
10
149.359
20
29.363
0
VERTEX
8
CONTOURS_MINEURES
10
147.003
20
29.363
0
VERTEX
8
CONTOURS_MINEURES
10
144.226
20
29.773
0
VERTEX
8
CONTOURS_MINEURES
10
143.998
20
29.754
0
VERTEX
8
CONTOURS_MINEURES
10
143.780
20
29.782
0
VERTEX
8
CONTOURS_MINEURES
10
143.552
20
30.001
0
VERTEX
8
CONTOURS_MINEURES
10
143.552
20
30.447
0
VERTEX
8
CONTOURS_MINEURES
10
143.552
20
32.996
0
VERTEX
8
CONTOURS_MINEURES
10
142.644
20
34.644
0
VERTEX
8
CONTOURS_MINEURES
10
141.802
20
36.003
0
VERTEX
8
CONTOURS_MINEURES
10
141.004
20
36.656
0
VERTEX
8
CONTOURS_MINEURES
10
140.348
20
36.656
0
VERTEX
8
CONTOURS_MINEURES
10
137.999
20
36.656
0
VERTEX
8
CONTOURS_MINEURES
10
136.736
20
37.736
0
VERTEX
8
CONTOURS_MINEURES
10
135.005
20
38.764
0
VERTEX
8
CONTOURS_MINEURES
10
134.853
20
38.847
0
VERTEX
8
CONTOURS_MINEURES
10
134.663
20
38.999
0
VERTEX
8
CONTOURS_MINEURES
10
134.663
20
39.340
0
VERTEX
8
CONTOURS_MINEURES
10
134.663
20
42.005
0
VERTEX
8
CONTOURS_MINEURES
10
132.530
20
42.534
0
VERTEX
8
CONTOURS_MINEURES
10
132.000
20
42.764
0
VERTEX
8
CONTOURS_MINEURES
10
131.239
20
42.764
0
VERTEX
8
CONTOURS_MINEURES
10
128.995
20
42.764
0
VERTEX
8
CONTOURS_MINEURES
10
127.417
20
43.584
0
VERTEX
8
CONTOURS_MINEURES
10
126.000
20
44.169
0
VERTEX
8
CONTOURS_MINEURES
10
125.347
20
44.350
0
VERTEX
8
CONTOURS_MINEURES
10
124.560
20
45.001
0
VERTEX
8
CONTOURS_MINEURES
10
122.996
20
45.726
0
VERTEX
8
CONTOURS_MINEURES
10
120.726
20
45.726
0
VERTEX
8
CONTOURS_MINEURES
10
120.001
20
45.726
0
VERTEX
8
CONTOURS_MINEURES
10
118.799
20
46.199
0
VERTEX
8
CONTOURS_MINEURES
10
116.996
20
46.794
0
VERTEX
8
CONTOURS_MINEURES
10
115.827
20
46.827
0
VERTEX
8
CONTOURS_MINEURES
10
114.002
20
46.840
0
VERTEX
8
CONTOURS_MINEURES
10
112.158
20
46.840
0
VERTEX
8
CONTOURS_MINEURES
10
110.997
20
46.840
0
VERTEX
8
CONTOURS_MINEURES
10
109.737
20
46.735
0
VERTEX
8
CONTOURS_MINEURES
10
108.003
20
46.697
0
VERTEX
8
CONTOURS_MINEURES
10
106.075
20
46.923
0
VERTEX
8
CONTOURS_MINEURES
10
104.998
20
46.896
0
VERTEX
8
CONTOURS_MINEURES
10
103.898
20
46.896
0
VERTEX
8
CONTOURS_MINEURES
10
102.004
20
46.896
0
VERTEX
8
CONTOURS_MINEURES
10
100.861
20
46.857
0
VERTEX
8
CONTOURS_MINEURES
10
98.999
20
47.037
0
VERTEX
8
CONTOURS_MINEURES
10
97.863
20
46.860
0
VERTEX
8
CONTOURS_MINEURES
10
96.005
20
46.950
0
VERTEX
8
CONTOURS_MINEURES
10
94.050
20
46.950
0
VERTEX
8
CONTOURS_MINEURES
10
93.000
20
46.950
0
VERTEX
8
CONTOURS_MINEURES
10
91.594
20
46.595
0
VERTEX
8
CONTOURS_MINEURES
10
89.995
20
46.337
0
VERTEX
8
CONTOURS_MINEURES
10
87.438
20
45.438
0
VERTEX
8
CONTOURS_MINEURES
10
87.001
20
45.263
0
VERTEX
8
CONTOURS_MINEURES
10
86.738
20
45.263
0
VERTEX
8
CONTOURS_MINEURES
10
83.996
20
45.263
0
VERTEX
8
CONTOURS_MINEURES
10
83.824
20
45.173
0
VERTEX
8
CONTOURS_MINEURES
10
83.341
20
45.001
0
VERTEX
8
CONTOURS_MINEURES
10
81.002
20
43.915
0
VERTEX
8
CONTOURS_MINEURES
10
79.913
20
43.915
0
VERTEX
8
CONTOURS_MINEURES
10
77.997
20
43.915
0
VERTEX
8
CONTOURS_MINEURES
10
76.810
20
43.193
0
VERTEX
8
CONTOURS_MINEURES
10
75.003
20
42.795
0
VERTEX
8
CONTOURS_MINEURES
10
74.472
20
42.534
0
VERTEX
8
CONTOURS_MINEURES
10
73.053
20
42.005
0
VERTEX
8
CONTOURS_MINEURES
10
73.053
20
40.055
0
VERTEX
8
CONTOURS_MINEURES
10
73.053
20
38.999
0
VERTEX
8
CONTOURS_MINEURES
10
72.409
20
38.589
0
VERTEX
8
CONTOURS_MINEURES
10
71.998
20
38.479
0
VERTEX
8
CONTOURS_MINEURES
10
71.479
20
38.479
0
VERTEX
8
CONTOURS_MINEURES
10
69.004
20
38.479
0
VERTEX
8
CONTOURS_MINEURES
10
66.910
20
38.090
0
VERTEX
8
CONTOURS_MINEURES
10
65.999
20
38.012
0
VERTEX
8
CONTOURS_MINEURES
10
63.254
20
38.749
0
VERTEX
8
CONTOURS_MINEURES
10
63.004
20
38.768
0
VERTEX
8
CONTOURS_MINEURES
10
62.773
20
38.768
0
VERTEX
8
CONTOURS_MINEURES
10
59.999
20
38.768
0
VERTEX
8
CONTOURS_MINEURES
10
59.821
20
38.820
0
VERTEX
8
CONTOURS_MINEURES
10
59.401
20
38.999
0
VERTEX
8
CONTOURS_MINEURES
10
59.401
20
39.600
0
VERTEX
8
CONTOURS_MINEURES
10
59.401
20
42.005
0
VERTEX
8
CONTOURS_MINEURES
10
57.462
20
42.463
0
VERTEX
8
CONTOURS_MINEURES
10
57.005
20
42.671
0
VERTEX
8
CONTOURS_MINEURES
10
55.470
20
43.470
0
VERTEX
8
CONTOURS_MINEURES
10
54.000
20
44.053
0
VERTEX
8
CONTOURS_MINEURES
10
51.946
20
44.053
0
VERTEX
8
CONTOURS_MINEURES
10
50.995
20
44.053
0
VERTEX
8
CONTOURS_MINEURES
10
50.459
20
44.464
0
VERTEX
8
CONTOURS_MINEURES
10
50.076
20
45.001
0
VERTEX
8
CONTOURS_MINEURES
10
49.009
20
46.009
0
VERTEX
8
CONTOURS_MINEURES
10
48.001
20
46.748
0
VERTEX
8
CONTOURS_MINEURES
10
47.242
20
47.240
0
VERTEX
8
CONTOURS_MINEURES
10
46.739
20
47.996
0
VERTEX
8
CONTOURS_MINEURES
10
46.739
20
49.260
0
VERTEX
8
CONTOURS_MINEURES
10
46.739
20
51.003
0
VERTEX
8
CONTOURS_MINEURES
10
44.996
20
52.354
0
VERTEX
8
CONTOURS_MINEURES
10
43.352
20
52.354
0
VERTEX
8
CONTOURS_MINEURES
10
42.002
20
52.354
0
VERTEX
8
CONTOURS_MINEURES
10
40.444
20
52.445
0
VERTEX
8
CONTOURS_MINEURES
10
38.997
20
53.187
0
VERTEX
8
CONTOURS_MINEURES
10
37.447
20
53.999
0
VERTEX
8
CONTOURS_MINEURES
10
37.447
20
55.556
0
VERTEX
8
CONTOURS_MINEURES
10
37.447
20
57.005
0
VERTEX
8
CONTOURS_MINEURES
10
36.965
20
57.968
0
VERTEX
8
CONTOURS_MINEURES
10
36.450
20
60.001
0
VERTEX
8
CONTOURS_MINEURES
10
36.003
20
61.665
0
VERTEX
8
CONTOURS_MINEURES
10
34.334
20
61.665
0
VERTEX
8
CONTOURS_MINEURES
10
32.998
20
61.665
0
VERTEX
8
CONTOURS_MINEURES
10
32.599
20
62.597
0
VERTEX
8
CONTOURS_MINEURES
10
30.603
20
62.997
0
VERTEX
8
CONTOURS_MINEURES
10
30.603
20
65.402
0
VERTEX
8
CONTOURS_MINEURES
10
30.603
20
66.003
0
VERTEX
8
CONTOURS_MINEURES
10
30.083
20
66.082
0
VERTEX
8
CONTOURS_MINEURES
10
30.004
20
66.058
0
VERTEX
8
CONTOURS_MINEURES
10
29.978
20
66.029
0
VERTEX
8
CONTOURS_MINEURES
10
29.911
20
66.003
0
VERTEX
8
CONTOURS_MINEURES
10
29.911
20
65.911
0
VERTEX
8
CONTOURS_MINEURES
10
29.911
20
62.997
0
VERTEX
8
CONTOURS_MINEURES
10
28.645
20
61.356
0
VERTEX
8
CONTOURS_MINEURES
10
26.999
20
61.327
0
VERTEX
8
CONTOURS_MINEURES
10
25.674
20
61.327
0
VERTEX
8
CONTOURS_MINEURES
10
24.005
20
61.327
0
VERTEX
8
CONTOURS_MINEURES
10
21.693
20
60.001
0
VERTEX
8
CONTOURS_MINEURES
10
21.000
20
59.647
0
VERTEX
8
CONTOURS_MINEURES
10
19.491
20
58.510
0
VERTEX
8
CONTOURS_MINEURES
10
17.995
20
58.101
0
VERTEX
8
CONTOURS_MINEURES
10
16.096
20
58.101
0
VERTEX
8
CONTOURS_MINEURES
10
15.001
20
58.101
0
VERTEX
8
CONTOURS_MINEURES
10
14.267
20
57.737
0
VERTEX
8
CONTOURS_MINEURES
10
12.684
20
57.005
0
VERTEX
8
CONTOURS_MINEURES
10
12.684
20
54.687
0
VERTEX
8
CONTOURS_MINEURES
10
12.684
20
53.999
0
VERTEX
8
CONTOURS_MINEURES
10
11.996
20
53.656
0
VERTEX
8
CONTOURS_MINEURES
10
11.598
20
53.601
0
VERTEX
8
CONTOURS_MINEURES
10
9.002
20
53.282
0
VERTEX
8
CONTOURS_MINEURES
10
6.716
20
53.282
0
VERTEX
8
CONTOURS_MINEURES
10
5.997
20
53.282
0
VERTEX
8
CONTOURS_MINEURES
10
5.302
20
53.303
0
VERTEX
8
CONTOURS_MINEURES
10
3.002
20
53.496
0
VERTEX
8
CONTOURS_MINEURES
10
0.502
20
53.496
0
VERTEX
8
CONTOURS_MINEURES
10
-0.002
20
53.496
0
SEQEND
0
POLYLINE
8
CONTOURS_MINEURES
66
1
70
0
0
VERTEX
8
CONTOURS_MINEURES
10
155.996
20
14.560
0
VERTEX
8
CONTOURS_MINEURES
10
153.693
20
15.000
0
VERTEX
8
CONTOURS_MINEURES
10
153.693
20
15.692
0
VERTEX
8
CONTOURS_MINEURES
10
153.693
20
17.996
0
VERTEX
8
CONTOURS_MINEURES
10
153.002
20
18.098
0
VERTEX
8
CONTOURS_MINEURES
10
150.522
20
18.521
0
VERTEX
8
CONTOURS_MINEURES
10
149.997
20
18.554
0
VERTEX
8
CONTOURS_MINEURES
10
147.558
20
18.554
0
VERTEX
8
CONTOURS_MINEURES
10
147.003
20
18.554
0
VERTEX
8
CONTOURS_MINEURES
10
145.041
20
19.040
0
VERTEX
8
CONTOURS_MINEURES
10
143.998
20
19.113
0
VERTEX
8
CONTOURS_MINEURES
10
142.552
20
19.447
0
VERTEX
8
CONTOURS_MINEURES
10
141.004
20
19.773
0
VERTEX
8
CONTOURS_MINEURES
10
139.774
20
19.773
0
VERTEX
8
CONTOURS_MINEURES
10
137.999
20
19.773
0
VERTEX
8
CONTOURS_MINEURES
10
136.970
20
19.970
0
VERTEX
8
CONTOURS_MINEURES
10
135.005
20
21.003
0
VERTEX
8
CONTOURS_MINEURES
10
135.005
20
23.998
0
VERTEX
8
CONTOURS_MINEURES
10
133.054
20
25.053
0
VERTEX
8
CONTOURS_MINEURES
10
132.000
20
25.604
0
VERTEX
8
CONTOURS_MINEURES
10
130.395
20
25.604
0
VERTEX
8
CONTOURS_MINEURES
10
128.995
20
25.604
0
VERTEX
8
CONTOURS_MINEURES
10
126.436
20
26.568
0
VERTEX
8
CONTOURS_MINEURES
10
126.000
20
26.757
0
VERTEX
8
CONTOURS_MINEURES
10
125.803
20
26.808
0
VERTEX
8
CONTOURS_MINEURES
10
125.076
20
27.005
0
VERTEX
8
CONTOURS_MINEURES
10
122.996
20
28.744
0
VERTEX
8
CONTOURS_MINEURES
10
121.257
20
28.744
0
VERTEX
8
CONTOURS_MINEURES
10
120.001
20
28.744
0
VERTEX
8
CONTOURS_MINEURES
10
119.316
20
29.317
0
VERTEX
8
CONTOURS_MINEURES
10
118.141
20
30.001
0
VERTEX
8
CONTOURS_MINEURES
10
118.141
20
31.855
0
VERTEX
8
CONTOURS_MINEURES
10
118.141
20
32.996
0
VERTEX
8
CONTOURS_MINEURES
10
117.597
20
33.598
0
VERTEX
8
CONTOURS_MINEURES
10
116.996
20
34.332
0
VERTEX
8
CONTOURS_MINEURES
10
115.998
20
35.001
0
VERTEX
8
CONTOURS_MINEURES
10
115.333
20
36.003
0
VERTEX
8
CONTOURS_MINEURES
10
114.002
20
36.431
0
VERTEX
8
CONTOURS_MINEURES
10
111.427
20
36.431
0
VERTEX
8
CONTOURS_MINEURES
10
110.997
20
36.431
0
VERTEX
8
CONTOURS_MINEURES
10
110.562
20
36.439
0
VERTEX
8
CONTOURS_MINEURES
10
108.003
20
36.832
0
VERTEX
8
CONTOURS_MINEURES
10
105.986
20
36.987
0
VERTEX
8
CONTOURS_MINEURES
10
104.998
20
36.875
0
VERTEX
8
CONTOURS_MINEURES
10
102.876
20
36.875
0
VERTEX
8
CONTOURS_MINEURES
10
102.004
20
36.875
0
VERTEX
8
CONTOURS_MINEURES
10
101.333
20
36.672
0
VERTEX
8
CONTOURS_MINEURES
10
98.999
20
36.111
0
VERTEX
8
CONTOURS_MINEURES
10
98.678
20
36.003
0
VERTEX
8
CONTOURS_MINEURES
10
97.139
20
34.864
0
VERTEX
8
CONTOURS_MINEURES
10
96.005
20
34.791
0
VERTEX
8
CONTOURS_MINEURES
10
94.793
20
34.791
0
VERTEX
8
CONTOURS_MINEURES
10
93.000
20
34.791
0
VERTEX
8
CONTOURS_MINEURES
10
91.817
20
34.180
0
VERTEX
8
CONTOURS_MINEURES
10
89.995
20
33.687
0
VERTEX
8
CONTOURS_MINEURES
10
87.409
20
33.406
0
VERTEX
8
CONTOURS_MINEURES
10
87.001
20
33.300
0
VERTEX
8
CONTOURS_MINEURES
10
84.300
20
33.300
0
VERTEX
8
CONTOURS_MINEURES
10
83.996
20
33.300
0
VERTEX
8
CONTOURS_MINEURES
10
82.199
20
32.996
0
VERTEX
8
CONTOURS_MINEURES
10
82.199
20
31.798
0
VERTEX
8
CONTOURS_MINEURES
10
82.199
20
30.001
0
VERTEX
8
CONTOURS_MINEURES
10
81.002
20
29.540
0
VERTEX
8
CONTOURS_MINEURES
10
78.459
20
29.540
0
VERTEX
8
CONTOURS_MINEURES
10
77.997
20
29.540
0
VERTEX
8
CONTOURS_MINEURES
10
76.377
20
28.626
0
VERTEX
8
CONTOURS_MINEURES
10
75.003
20
28.529
0
VERTEX
8
CONTOURS_MINEURES
10
73.320
20
28.323
0
VERTEX
8
CONTOURS_MINEURES
10
71.998
20
27.861
0
VERTEX
8
CONTOURS_MINEURES
10
69.859
20
27.861
0
VERTEX
8
CONTOURS_MINEURES
10
69.004
20
27.861
0
VERTEX
8
CONTOURS_MINEURES
10
66.708
20
27.712
0
VERTEX
8
CONTOURS_MINEURES
10
65.999
20
27.618
0
VERTEX
8
CONTOURS_MINEURES
10
64.243
20
27.005
0
VERTEX
8
CONTOURS_MINEURES
10
63.004
20
26.103
0
VERTEX
8
CONTOURS_MINEURES
10
60.901
20
26.103
0
VERTEX
8
CONTOURS_MINEURES
10
59.999
20
26.103
0
VERTEX
8
CONTOURS_MINEURES
10
59.281
20
26.283
0
VERTEX
8
CONTOURS_MINEURES
10
57.005
20
26.076
0
VERTEX
8
CONTOURS_MINEURES
10
55.275
20
25.729
0
VERTEX
8
CONTOURS_MINEURES
10
54.000
20
25.852
0
VERTEX
8
CONTOURS_MINEURES
10
52.148
20
25.852
0
VERTEX
8
CONTOURS_MINEURES
10
50.995
20
25.852
0
VERTEX
8
CONTOURS_MINEURES
10
49.547
20
25.453
0
VERTEX
8
CONTOURS_MINEURES
10
48.001
20
25.287
0
VERTEX
8
CONTOURS_MINEURES
10
45.970
20
24.972
0
VERTEX
8
CONTOURS_MINEURES
10
44.996
20
25.000
0
VERTEX
8
CONTOURS_MINEURES
10
43.998
20
25.000
0
VERTEX
8
CONTOURS_MINEURES
10
42.002
20
25.000
0
VERTEX
8
CONTOURS_MINEURES
10
39.773
20
24.774
0
VERTEX
8
CONTOURS_MINEURES
10
38.997
20
24.828
0
VERTEX
8
CONTOURS_MINEURES
10
37.956
20
25.044
0
VERTEX
8
CONTOURS_MINEURES
10
36.003
20
25.000
0
VERTEX
8
CONTOURS_MINEURES
10
34.000
20
25.000
0
VERTEX
8
CONTOURS_MINEURES
10
32.998
20
25.000
0
VERTEX
8
CONTOURS_MINEURES
10
30.276
20
27.005
0
VERTEX
8
CONTOURS_MINEURES
10
30.199
20
27.200
0
VERTEX
8
CONTOURS_MINEURES
10
30.004
20
27.379
0
VERTEX
8
CONTOURS_MINEURES
10
27.480
20
30.001
0
VERTEX
8
CONTOURS_MINEURES
10
27.480
20
30.480
0
VERTEX
8
CONTOURS_MINEURES
10
27.480
20
32.996
0
VERTEX
8
CONTOURS_MINEURES
10
26.999
20
33.519
0
VERTEX
8
CONTOURS_MINEURES
10
26.478
20
33.519
0
VERTEX
8
CONTOURS_MINEURES
10
24.005
20
33.519
0
VERTEX
8
CONTOURS_MINEURES
10
23.080
20
33.921
0
VERTEX
8
CONTOURS_MINEURES
10
21.000
20
32.996
0
VERTEX
8
CONTOURS_MINEURES
10
21.000
20
30.001
0
VERTEX
8
CONTOURS_MINEURES
10
19.664
20
27.005
0
VERTEX
8
CONTOURS_MINEURES
10
18.915
20
26.085
0
VERTEX
8
CONTOURS_MINEURES
10
17.995
20
25.044
0
VERTEX
8
CONTOURS_MINEURES
10
16.042
20
25.044
0
VERTEX
8
CONTOURS_MINEURES
10
15.001
20
25.044
0
VERTEX
8
CONTOURS_MINEURES
10
14.593
20
24.406
0
VERTEX
8
CONTOURS_MINEURES
10
14.454
20
23.998
0
VERTEX
8
CONTOURS_MINEURES
10
14.454
20
23.454
0
VERTEX
8
CONTOURS_MINEURES
10
14.454
20
21.003
0
VERTEX
8
CONTOURS_MINEURES
10
13.498
20
19.499
0
VERTEX
8
CONTOURS_MINEURES
10
12.425
20
17.996
0
VERTEX
8
CONTOURS_MINEURES
10
12.425
20
17.568
0
VERTEX
8
CONTOURS_MINEURES
10
12.425
20
15.000
0
VERTEX
8
CONTOURS_MINEURES
10
11.996
20
14.663
0
VERTEX
8
CONTOURS_MINEURES
10
10.567
20
13.434
0
VERTEX
8
CONTOURS_MINEURES
10
9.723
20
12.005
0
VERTEX
8
CONTOURS_MINEURES
10
9.002
20
11.403
0
VERTEX
8
CONTOURS_MINEURES
10
6.598
20
11.403
0
VERTEX
8
CONTOURS_MINEURES
10
5.997
20
11.403
0
VERTEX
8
CONTOURS_MINEURES
10
3.984
20
8.998
0
VERTEX
8
CONTOURS_MINEURES
10
3.984
20
8.016
0
VERTEX
8
CONTOURS_MINEURES
10
3.984
20
6.002
0
VERTEX
8
CONTOURS_MINEURES
10
3.495
20
5.508
0
VERTEX
8
CONTOURS_MINEURES
10
3.002
20
4.955
0
VERTEX
8
CONTOURS_MINEURES
10
1.956
20
4.955
0
VERTEX
8
CONTOURS_MINEURES
10
-0.002
20
4.955
0
SEQEND
0
POLYLINE
8
CONTOURS_MINEURES
66
1
70
0
0
VERTEX
8
CONTOURS_MINEURES
10
17.995
20
45.001
0
VERTEX
8
CONTOURS_MINEURES
10
15.001
20
45.001
0
VERTEX
8
CONTOURS_MINEURES
10
12.210
20
45.215
0
VERTEX
8
CONTOURS_MINEURES
10
11.996
20
45.056
0
VERTEX
8
CONTOURS_MINEURES
10
11.957
20
45.040
0
VERTEX
8
CONTOURS_MINEURES
10
11.497
20
45.001
0
VERTEX
8
CONTOURS_MINEURES
10
11.838
20
44.843
0
VERTEX
8
CONTOURS_MINEURES
10
11.996
20
44.881
0
VERTEX
8
CONTOURS_MINEURES
10
12.154
20
44.843
0
VERTEX
8
CONTOURS_MINEURES
10
15.001
20
45.001
0
VERTEX
8
CONTOURS_MINEURES
10
17.995
20
45.001
0
SEQEND
0
POLYLINE
8
CONTOURS_MINEURES
66
1
70
0
0
VERTEX
8
CONTOURS_MINEURES
10
32.181
20
-0.000
0
VERTEX
8
CONTOURS_MINEURES
10
31.145
20
1.141
0
VERTEX
8
CONTOURS_MINEURES
10
30.004
20
1.410
0
VERTEX
8
CONTOURS_MINEURES
10
28.453
20
1.546
0
VERTEX
8
CONTOURS_MINEURES
10
26.999
20
1.900
0
VERTEX
8
CONTOURS_MINEURES
10
25.904
20
1.900
0
VERTEX
8
CONTOURS_MINEURES
10
24.005
20
1.900
0
VERTEX
8
CONTOURS_MINEURES
10
23.254
20
2.247
0
VERTEX
8
CONTOURS_MINEURES
10
21.188
20
2.996
0
VERTEX
8
CONTOURS_MINEURES
10
21.000
20
3.077
0
VERTEX
8
CONTOURS_MINEURES
10
20.769
20
3.227
0
VERTEX
8
CONTOURS_MINEURES
10
17.995
20
5.077
0
VERTEX
8
CONTOURS_MINEURES
10
17.074
20
5.077
0
VERTEX
8
CONTOURS_MINEURES
10
15.001
20
5.077
0
VERTEX
8
CONTOURS_MINEURES
10
13.713
20
4.284
0
VERTEX
8
CONTOURS_MINEURES
10
11.996
20
4.478
0
VERTEX
8
CONTOURS_MINEURES
10
11.320
20
3.675
0
VERTEX
8
CONTOURS_MINEURES
10
9.163
20
2.996
0
VERTEX
8
CONTOURS_MINEURES
10
9.087
20
2.910
0
VERTEX
8
CONTOURS_MINEURES
10
9.002
20
2.911
0
VERTEX
8
CONTOURS_MINEURES
10
8.917
20
2.911
0
VERTEX
8
CONTOURS_MINEURES
10
5.997
20
2.911
0
VERTEX
8
CONTOURS_MINEURES
10
4.943
20
1.055
0
VERTEX
8
CONTOURS_MINEURES
10
3.002
20
0.239
0
VERTEX
8
CONTOURS_MINEURES
10
0.237
20
0.239
0
VERTEX
8
CONTOURS_MINEURES
10
-0.002
20
0.239
0
SEQEND
0
POLYLINE
8
CONTOURS_MINEURES
66
1
70
0
0
VERTEX
8
CONTOURS_MINEURES
10
50.568
20
-0.000
0
VERTEX
8
CONTOURS_MINEURES
10
48.706
20
0.705
0
VERTEX
8
CONTOURS_MINEURES
10
48.001
20
0.765
0
VERTEX
8
CONTOURS_MINEURES
10
47.410
20
0.589
0
VERTEX
8
CONTOURS_MINEURES
10
46.874
20
-0.000
0
SEQEND
0
POLYLINE
8
CONTOURS_MINEURES
66
1
70
0
0
VERTEX
8
CONTOURS_MINEURES
10
155.996
20
3.036
0
VERTEX
8
CONTOURS_MINEURES
10
153.507
20
3.502
0
VERTEX
8
CONTOURS_MINEURES
10
153.002
20
3.631
0
VERTEX
8
CONTOURS_MINEURES
10
152.100
20
3.898
0
VERTEX
8
CONTOURS_MINEURES
10
149.997
20
4.561
0
VERTEX
8
CONTOURS_MINEURES
10
148.561
20
4.561
0
VERTEX
8
CONTOURS_MINEURES
10
147.003
20
4.561
0
VERTEX
8
CONTOURS_MINEURES
10
145.884
20
4.883
0
VERTEX
8
CONTOURS_MINEURES
10
143.998
20
5.241
0
VERTEX
8
CONTOURS_MINEURES
10
141.474
20
5.530
0
VERTEX
8
CONTOURS_MINEURES
10
141.004
20
5.584
0
VERTEX
8
CONTOURS_MINEURES
10
140.585
20
5.584
0
VERTEX
8
CONTOURS_MINEURES
10
137.999
20
5.584
0
VERTEX
8
CONTOURS_MINEURES
10
135.284
20
5.722
0
VERTEX
8
CONTOURS_MINEURES
10
135.005
20
5.725
0
VERTEX
8
CONTOURS_MINEURES
10
134.751
20
5.749
0
VERTEX
8
CONTOURS_MINEURES
10
133.092
20
6.002
0
VERTEX
8
CONTOURS_MINEURES
10
133.092
20
7.909
0
VERTEX
8
CONTOURS_MINEURES
10
133.092
20
8.998
0
VERTEX
8
CONTOURS_MINEURES
10
132.179
20
9.177
0
VERTEX
8
CONTOURS_MINEURES
10
132.000
20
9.225
0
VERTEX
8
CONTOURS_MINEURES
10
129.221
20
9.225
0
VERTEX
8
CONTOURS_MINEURES
10
128.995
20
9.225
0
VERTEX
8
CONTOURS_MINEURES
10
128.246
20
9.750
0
VERTEX
8
CONTOURS_MINEURES
10
126.000
20
11.220
0
VERTEX
8
CONTOURS_MINEURES
10
125.500
20
11.504
0
VERTEX
8
CONTOURS_MINEURES
10
124.713
20
12.005
0
VERTEX
8
CONTOURS_MINEURES
10
122.996
20
13.070
0
VERTEX
8
CONTOURS_MINEURES
10
121.066
20
13.070
0
VERTEX
8
CONTOURS_MINEURES
10
120.001
20
13.070
0
VERTEX
8
CONTOURS_MINEURES
10
118.524
20
13.528
0
VERTEX
8
CONTOURS_MINEURES
10
116.996
20
13.917
0
VERTEX
8
CONTOURS_MINEURES
10
115.333
20
13.669
0
VERTEX
8
CONTOURS_MINEURES
10
114.002
20
13.437
0
VERTEX
8
CONTOURS_MINEURES
10
112.565
20
13.437
0
VERTEX
8
CONTOURS_MINEURES
10
110.997
20
13.437
0
VERTEX
8
CONTOURS_MINEURES
10
108.003
20
12.005
0
VERTEX
8
CONTOURS_MINEURES
10
105.390
20
11.612
0
VERTEX
8
CONTOURS_MINEURES
10
104.998
20
11.561
0
VERTEX
8
CONTOURS_MINEURES
10
102.446
20
11.561
0
VERTEX
8
CONTOURS_MINEURES
10
102.004
20
11.561
0
VERTEX
8
CONTOURS_MINEURES
10
101.600
20
11.601
0
VERTEX
8
CONTOURS_MINEURES
10
100.413
20
12.005
0
VERTEX
8
CONTOURS_MINEURES
10
99.649
20
12.652
0
VERTEX
8
CONTOURS_MINEURES
10
98.999
20
13.716
0
VERTEX
8
CONTOURS_MINEURES
10
98.538
20
14.539
0
VERTEX
8
CONTOURS_MINEURES
10
96.005
20
15.000
0
VERTEX
8
CONTOURS_MINEURES
10
96.005
20
17.996
0
VERTEX
8
CONTOURS_MINEURES
10
93.000
20
17.996
0
VERTEX
8
CONTOURS_MINEURES
10
93.000
20
15.000
0
VERTEX
8
CONTOURS_MINEURES
10
91.374
20
13.625
0
VERTEX
8
CONTOURS_MINEURES
10
89.995
20
13.356
0
VERTEX
8
CONTOURS_MINEURES
10
88.430
20
12.005
0
VERTEX
8
CONTOURS_MINEURES
10
87.684
20
11.318
0
VERTEX
8
CONTOURS_MINEURES
10
87.001
20
10.916
0
VERTEX
8
CONTOURS_MINEURES
10
85.084
20
10.916
0
VERTEX
8
CONTOURS_MINEURES
10
83.996
20
10.916
0
VERTEX
8
CONTOURS_MINEURES
10
82.817
20
10.181
0
VERTEX
8
CONTOURS_MINEURES
10
81.002
20
8.998
0
VERTEX
8
CONTOURS_MINEURES
10
77.997
20
8.998
0
VERTEX
8
CONTOURS_MINEURES
10
77.997
20
6.002
0
VERTEX
8
CONTOURS_MINEURES
10
76.046
20
4.955
0
VERTEX
8
CONTOURS_MINEURES
10
75.003
20
4.431
0
VERTEX
8
CONTOURS_MINEURES
10
72.699
20
3.697
0
VERTEX
8
CONTOURS_MINEURES
10
71.998
20
3.443
0
VERTEX
8
CONTOURS_MINEURES
10
71.552
20
3.443
0
VERTEX
8
CONTOURS_MINEURES
10
69.004
20
3.443
0
VERTEX
8
CONTOURS_MINEURES
10
68.162
20
2.996
0
VERTEX
8
CONTOURS_MINEURES
10
67.019
20
1.978
0
VERTEX
8
CONTOURS_MINEURES
10
65.999
20
1.613
0
VERTEX
8
CONTOURS_MINEURES
10
63.432
20
0.428
0
VERTEX
8
CONTOURS_MINEURES
10
63.004
20
0.300
0
VERTEX
8
CONTOURS_MINEURES
10
62.704
20
0.300
0
VERTEX
8
CONTOURS_MINEURES
10
59.999
20
0.300
0
VERTEX
8
CONTOURS_MINEURES
10
58.716
20
-0.000
0
SEQEND
0
POLYLINE
8
CONTOURS_MINEURES
66
1
70
0
0
VERTEX
8
CONTOURS_MINEURES
10
107.001
20
-0.000
0
VERTEX
8
CONTOURS_MINEURES
10
105.659
20
0.658
0
VERTEX
8
CONTOURS_MINEURES
10
104.998
20
0.856
0
VERTEX
8
CONTOURS_MINEURES
10
104.143
20
0.856
0
VERTEX
8
CONTOURS_MINEURES
10
102.004
20
0.856
0
VERTEX
8
CONTOURS_MINEURES
10
101.297
20
0.705
0
VERTEX
8
CONTOURS_MINEURES
10
98.999
20
0.214
0
VERTEX
8
CONTOURS_MINEURES
10
98.825
20
0.174
0
VERTEX
8
CONTOURS_MINEURES
10
98.625
20
-0.000
0
SEQEND
0
POLYLINE
8
CONTOURS_MAJEURES
66
1
70
0
0
VERTEX
8
CONTOURS_MAJEURES
10
155.996
20
81.972
0
VERTEX
8
CONTOURS_MAJEURES
10
155.205
20
81.795
0
VERTEX
8
CONTOURS_MAJEURES
10
153.002
20
81.004
0
VERTEX
8
CONTOURS_MAJEURES
10
153.002
20
77.997
0
VERTEX
8
CONTOURS_MAJEURES
10
149.997
20
75.452
0
VERTEX
8
CONTOURS_MAJEURES
10
149.546
20
75.452
0
VERTEX
8
CONTOURS_MAJEURES
10
147.003
20
75.452
0
VERTEX
8
CONTOURS_MAJEURES
10
144.108
20
75.111
0
VERTEX
8
CONTOURS_MAJEURES
10
143.998
20
75.078
0
VERTEX
8
CONTOURS_MAJEURES
10
142.153
20
76.151
0
VERTEX
8
CONTOURS_MAJEURES
10
141.004
20
76.565
0
VERTEX
8
CONTOURS_MAJEURES
10
139.435
20
76.565
0
VERTEX
8
CONTOURS_MAJEURES
10
137.999
20
76.565
0
VERTEX
8
CONTOURS_MAJEURES
10
135.137
20
77.997
0
VERTEX
8
CONTOURS_MAJEURES
10
135.137
20
78.130
0
VERTEX
8
CONTOURS_MAJEURES
10
135.137
20
81.004
0
VERTEX
8
CONTOURS_MAJEURES
10
135.005
20
81.069
0
VERTEX
8
CONTOURS_MAJEURES
10
133.050
20
82.051
0
VERTEX
8
CONTOURS_MAJEURES
10
132.000
20
82.471
0
VERTEX
8
CONTOURS_MAJEURES
10
130.528
20
82.471
0
VERTEX
8
CONTOURS_MAJEURES
10
128.995
20
82.471
0
VERTEX
8
CONTOURS_MAJEURES
10
127.955
20
82.959
0
VERTEX
8
CONTOURS_MAJEURES
10
126.000
20
83.579
0
VERTEX
8
CONTOURS_MAJEURES
10
124.133
20
83.999
0
VERTEX
8
CONTOURS_MAJEURES
10
123.208
20
84.211
0
VERTEX
8
CONTOURS_MAJEURES
10
122.996
20
84.295
0
VERTEX
8
CONTOURS_MAJEURES
10
122.700
20
84.295
0
VERTEX
8
CONTOURS_MAJEURES
10
120.001
20
84.295
0
VERTEX
8
CONTOURS_MAJEURES
10
117.778
20
84.779
0
VERTEX
8
CONTOURS_MAJEURES
10
116.996
20
85.225
0
VERTEX
8
CONTOURS_MAJEURES
10
115.511
20
85.509
0
VERTEX
8
CONTOURS_MAJEURES
10
114.002
20
86.038
0
VERTEX
8
CONTOURS_MAJEURES
10
113.042
20
86.038
0
VERTEX
8
CONTOURS_MAJEURES
10
110.997
20
86.038
0
VERTEX
8
CONTOURS_MAJEURES
10
108.802
20
86.196
0
VERTEX
8
CONTOURS_MAJEURES
10
108.003
20
86.329
0
VERTEX
8
CONTOURS_MAJEURES
10
107.448
20
86.442
0
VERTEX
8
CONTOURS_MAJEURES
10
104.998
20
86.737
0
VERTEX
8
CONTOURS_MAJEURES
10
102.262
20
86.737
0
VERTEX
8
CONTOURS_MAJEURES
10
102.004
20
86.737
0
VERTEX
8
CONTOURS_MAJEURES
10
101.816
20
86.808
0
VERTEX
8
CONTOURS_MAJEURES
10
101.542
20
86.995
0
VERTEX
8
CONTOURS_MAJEURES
10
101.542
20
89.539
0
VERTEX
8
CONTOURS_MAJEURES
10
101.542
20
90.002
0
SEQEND
0
POLYLINE
8
CONTOURS_MAJEURES
66
1
70
0
0
VERTEX
8
CONTOURS_MAJEURES
10
155.996
20
51.387
0
VERTEX
8
CONTOURS_MAJEURES
10
154.855
20
51.003
0
VERTEX
8
CONTOURS_MAJEURES
10
154.855
20
49.142
0
VERTEX
8
CONTOURS_MAJEURES
10
154.855
20
47.996
0
VERTEX
8
CONTOURS_MAJEURES
10
153.002
20
47.304
0
VERTEX
8
CONTOURS_MAJEURES
10
151.263
20
46.734
0
VERTEX
8
CONTOURS_MAJEURES
10
149.997
20
46.658
0
VERTEX
8
CONTOURS_MAJEURES
10
148.341
20
46.658
0
VERTEX
8
CONTOURS_MAJEURES
10
147.003
20
46.658
0
VERTEX
8
CONTOURS_MAJEURES
10
145.419
20
46.580
0
VERTEX
8
CONTOURS_MAJEURES
10
143.998
20
46.477
0
VERTEX
8
CONTOURS_MAJEURES
10
142.258
20
46.742
0
VERTEX
8
CONTOURS_MAJEURES
10
141.004
20
46.808
0
VERTEX
8
CONTOURS_MAJEURES
10
139.811
20
46.808
0
VERTEX
8
CONTOURS_MAJEURES
10
137.999
20
46.808
0
VERTEX
8
CONTOURS_MAJEURES
10
135.064
20
47.937
0
VERTEX
8
CONTOURS_MAJEURES
10
135.005
20
47.956
0
VERTEX
8
CONTOURS_MAJEURES
10
134.973
20
47.965
0
VERTEX
8
CONTOURS_MAJEURES
10
134.917
20
47.996
0
VERTEX
8
CONTOURS_MAJEURES
10
134.917
20
48.084
0
VERTEX
8
CONTOURS_MAJEURES
10
134.917
20
51.003
0
VERTEX
8
CONTOURS_MAJEURES
10
132.000
20
52.715
0
VERTEX
8
CONTOURS_MAJEURES
10
130.712
20
52.715
0
VERTEX
8
CONTOURS_MAJEURES
10
128.995
20
52.715
0
VERTEX
8
CONTOURS_MAJEURES
10
128.172
20
53.176
0
VERTEX
8
CONTOURS_MAJEURES
10
126.953
20
53.999
0
VERTEX
8
CONTOURS_MAJEURES
10
126.953
20
54.955
0
VERTEX
8
CONTOURS_MAJEURES
10
126.953
20
57.005
0
VERTEX
8
CONTOURS_MAJEURES
10
126.000
20
57.633
0
VERTEX
8
CONTOURS_MAJEURES
10
124.414
20
58.419
0
VERTEX
8
CONTOURS_MAJEURES
10
122.996
20
59.148
0
VERTEX
8
CONTOURS_MAJEURES
10
122.143
20
59.148
0
VERTEX
8
CONTOURS_MAJEURES
10
120.001
20
59.148
0
VERTEX
8
CONTOURS_MAJEURES
10
117.315
20
59.683
0
VERTEX
8
CONTOURS_MAJEURES
10
116.996
20
59.767
0
VERTEX
8
CONTOURS_MAJEURES
10
114.141
20
59.863
0
VERTEX
8
CONTOURS_MAJEURES
10
114.002
20
59.862
0
VERTEX
8
CONTOURS_MAJEURES
10
113.862
20
59.862
0
VERTEX
8
CONTOURS_MAJEURES
10
110.997
20
59.862
0
VERTEX
8
CONTOURS_MAJEURES
10
110.866
20
59.870
0
VERTEX
8
CONTOURS_MAJEURES
10
108.003
20
59.984
0
VERTEX
8
CONTOURS_MAJEURES
10
107.001
20
60.001
0
VERTEX
8
CONTOURS_MAJEURES
10
105.030
20
60.033
0
VERTEX
8
CONTOURS_MAJEURES
10
104.998
20
60.033
0
VERTEX
8
CONTOURS_MAJEURES
10
104.966
20
60.033
0
VERTEX
8
CONTOURS_MAJEURES
10
102.004
20
60.033
0
VERTEX
8
CONTOURS_MAJEURES
10
101.970
20
60.035
0
VERTEX
8
CONTOURS_MAJEURES
10
98.999
20
60.102
0
VERTEX
8
CONTOURS_MAJEURES
10
96.356
20
60.353
0
VERTEX
8
CONTOURS_MAJEURES
10
96.005
20
60.483
0
VERTEX
8
CONTOURS_MAJEURES
10
93.483
20
60.483
0
VERTEX
8
CONTOURS_MAJEURES
10
93.000
20
60.483
0
VERTEX
8
CONTOURS_MAJEURES
10
92.309
20
60.690
0
VERTEX
8
CONTOURS_MAJEURES
10
89.995
20
61.361
0
VERTEX
8
CONTOURS_MAJEURES
10
88.498
20
61.499
0
VERTEX
8
CONTOURS_MAJEURES
10
87.001
20
61.661
0
VERTEX
8
CONTOURS_MAJEURES
10
85.336
20
61.661
0
VERTEX
8
CONTOURS_MAJEURES
10
83.996
20
61.661
0
VERTEX
8
CONTOURS_MAJEURES
10
82.449
20
61.549
0
VERTEX
8
CONTOURS_MAJEURES
10
81.002
20
61.121
0
VERTEX
8
CONTOURS_MAJEURES
10
79.878
20
61.121
0
VERTEX
8
CONTOURS_MAJEURES
10
77.997
20
61.121
0
VERTEX
8
CONTOURS_MAJEURES
10
75.268
20
60.267
0
VERTEX
8
CONTOURS_MAJEURES
10
75.003
20
60.201
0
VERTEX
8
CONTOURS_MAJEURES
10
73.600
20
60.001
0
VERTEX
8
CONTOURS_MAJEURES
10
72.149
20
59.850
0
VERTEX
8
CONTOURS_MAJEURES
10
71.998
20
59.795
0
VERTEX
8
CONTOURS_MAJEURES
10
71.791
20
59.795
0
VERTEX
8
CONTOURS_MAJEURES
10
69.004
20
59.795
0
VERTEX
8
CONTOURS_MAJEURES
10
66.182
20
59.819
0
VERTEX
8
CONTOURS_MAJEURES
10
65.999
20
59.760
0
VERTEX
8
CONTOURS_MAJEURES
10
65.773
20
59.776
0
VERTEX
8
CONTOURS_MAJEURES
10
65.344
20
60.001
0
VERTEX
8
CONTOURS_MAJEURES
10
63.004
20
61.784
0
VERTEX
8
CONTOURS_MAJEURES
10
61.788
20
61.784
0
VERTEX
8
CONTOURS_MAJEURES
10
59.999
20
61.784
0
VERTEX
8
CONTOURS_MAJEURES
10
59.251
20
62.997
0
VERTEX
8
CONTOURS_MAJEURES
10
59.251
20
65.252
0
VERTEX
8
CONTOURS_MAJEURES
10
59.251
20
66.003
0
VERTEX
8
CONTOURS_MAJEURES
10
58.322
20
67.320
0
VERTEX
8
CONTOURS_MAJEURES
10
57.005
20
68.732
0
VERTEX
8
CONTOURS_MAJEURES
10
56.881
20
68.875
0
VERTEX
8
CONTOURS_MAJEURES
10
56.774
20
68.999
0
VERTEX
8
CONTOURS_MAJEURES
10
54.000
20
71.114
0
VERTEX
8
CONTOURS_MAJEURES
10
53.117
20
71.114
0
VERTEX
8
CONTOURS_MAJEURES
10
50.995
20
71.114
0
VERTEX
8
CONTOURS_MAJEURES
10
50.145
20
71.995
0
VERTEX
8
CONTOURS_MAJEURES
10
50.145
20
74.147
0
VERTEX
8
CONTOURS_MAJEURES
10
50.145
20
75.001
0
VERTEX
8
CONTOURS_MAJEURES
10
49.104
20
76.105
0
VERTEX
8
CONTOURS_MAJEURES
10
48.001
20
77.452
0
VERTEX
8
CONTOURS_MAJEURES
10
47.783
20
77.780
0
VERTEX
8
CONTOURS_MAJEURES
10
47.670
20
77.997
0
VERTEX
8
CONTOURS_MAJEURES
10
47.670
20
78.328
0
VERTEX
8
CONTOURS_MAJEURES
10
47.670
20
81.004
0
VERTEX
8
CONTOURS_MAJEURES
10
46.765
20
82.767
0
VERTEX
8
CONTOURS_MAJEURES
10
46.281
20
83.999
0
VERTEX
8
CONTOURS_MAJEURES
10
45.865
20
84.866
0
VERTEX
8
CONTOURS_MAJEURES
10
45.244
20
86.995
0
VERTEX
8
CONTOURS_MAJEURES
10
45.244
20
87.242
0
VERTEX
8
CONTOURS_MAJEURES
10
45.244
20
90.002
0
SEQEND
0
POLYLINE
8
CONTOURS_MAJEURES
66
1
70
0
0
VERTEX
8
CONTOURS_MAJEURES
10
28.376
20
90.002
0
VERTEX
8
CONTOURS_MAJEURES
10
28.376
20
88.624
0
VERTEX
8
CONTOURS_MAJEURES
10
28.376
20
86.995
0
VERTEX
8
CONTOURS_MAJEURES
10
28.201
20
85.198
0
VERTEX
8
CONTOURS_MAJEURES
10
28.148
20
83.999
0
VERTEX
8
CONTOURS_MAJEURES
10
26.999
20
81.403
0
VERTEX
8
CONTOURS_MAJEURES
10
26.600
20
81.403
0
VERTEX
8
CONTOURS_MAJEURES
10
24.005
20
81.403
0
VERTEX
8
CONTOURS_MAJEURES
10
23.849
20
81.004
0
VERTEX
8
CONTOURS_MAJEURES
10
23.849
20
78.153
0
VERTEX
8
CONTOURS_MAJEURES
10
23.849
20
77.997
0
VERTEX
8
CONTOURS_MAJEURES
10
23.575
20
77.569
0
VERTEX
8
CONTOURS_MAJEURES
10
21.961
20
75.001
0
VERTEX
8
CONTOURS_MAJEURES
10
21.961
20
74.039
0
VERTEX
8
CONTOURS_MAJEURES
10
21.961
20
71.995
0
VERTEX
8
CONTOURS_MAJEURES
10
21.377
20
71.618
0
VERTEX
8
CONTOURS_MAJEURES
10
21.000
20
71.168
0
VERTEX
8
CONTOURS_MAJEURES
10
19.886
20
70.109
0
VERTEX
8
CONTOURS_MAJEURES
10
19.088
20
68.999
0
VERTEX
8
CONTOURS_MAJEURES
10
18.428
20
68.568
0
VERTEX
8
CONTOURS_MAJEURES
10
17.995
20
68.212
0
VERTEX
8
CONTOURS_MAJEURES
10
15.788
20
68.212
0
VERTEX
8
CONTOURS_MAJEURES
10
15.001
20
68.212
0
VERTEX
8
CONTOURS_MAJEURES
10
13.362
20
67.365
0
VERTEX
8
CONTOURS_MAJEURES
10
11.996
20
66.717
0
VERTEX
8
CONTOURS_MAJEURES
10
11.461
20
66.538
0
VERTEX
8
CONTOURS_MAJEURES
10
9.002
20
66.297
0
VERTEX
8
CONTOURS_MAJEURES
10
6.291
20
66.297
0
VERTEX
8
CONTOURS_MAJEURES
10
5.997
20
66.297
0
VERTEX
8
CONTOURS_MAJEURES
10
3.205
20
66.206
0
VERTEX
8
CONTOURS_MAJEURES
10
3.002
20
66.180
0
VERTEX
8
CONTOURS_MAJEURES
10
2.826
20
66.180
0
VERTEX
8
CONTOURS_MAJEURES
10
-0.002
20
66.180
0
SEQEND
0
POLYLINE
8
CONTOURS_MAJEURES
66
1
70
0
0
VERTEX
8
CONTOURS_MAJEURES
10
107.001
20
-0.000
0
VERTEX
8
CONTOURS_MAJEURES
10
105.659
20
0.658
0
VERTEX
8
CONTOURS_MAJEURES
10
104.998
20
0.856
0
VERTEX
8
CONTOURS_MAJEURES
10
104.143
20
0.856
0
VERTEX
8
CONTOURS_MAJEURES
10
102.004
20
0.856
0
VERTEX
8
CONTOURS_MAJEURES
10
101.297
20
0.705
0
VERTEX
8
CONTOURS_MAJEURES
10
98.999
20
0.214
0
VERTEX
8
CONTOURS_MAJEURES
10
98.825
20
0.174
0
VERTEX
8
CONTOURS_MAJEURES
10
98.625
20
-0.000
0
SEQEND
0
POLYLINE
8
PARCELLE
66
1
70
1
0
VERTEX
8
PARCELLE
10
34.258
20
71.460
0
VERTEX
8
PARCELLE
10
75.014
20
60.081
0
VERTEX
8
PARCELLE
10
85.883
20
57.139
0
VERTEX
8
PARCELLE
10
117.770
20
48.488
0
VERTEX
8
PARCELLE
10
136.734
20
47.908
0
VERTEX
8
PARCELLE
10
109.601
20
36.805
0
VERTEX
8
PARCELLE
10
104.357
20
37.600
0
VERTEX
8
PARCELLE
10
95.128
20
37.734
0
VERTEX
8
PARCELLE
10
86.774
20
36.952
0
VERTEX
8
PARCELLE
10
77.331
20
34.849
0
VERTEX
8
PARCELLE
10
39.318
20
23.701
0
VERTEX
8
PARCELLE
10
28.234
20
20.000
0
VERTEX
8
PARCELLE
10
20.893
20
37.115
0
VERTEX
8
PARCELLE
10
20.000
20
45.393
0
VERTEX
8
PARCELLE
10
20.061
20
49.908
0
VERTEX
8
PARCELLE
10
20.604
20
53.371
0
VERTEX
8
PARCELLE
10
34.258
20
71.460
0
SEQEND
0
TEXT
8
POINTS_COTES
10
-0.002
20
-0.000
40
1.0
1
38.1
0
TEXT
8
POINTS_COTES
10
87.001
20
2.996
40
1.0
1
38.8
0
TEXT
8
POINTS_COTES
10
15.001
20
8.998
40
1.0
1
37.9
0
TEXT
8
POINTS_COTES
10
102.004
20
12.005
40
1.0
1
37.9
0
TEXT
8
POINTS_COTES
10
30.004
20
17.996
40
1.0
1
36.9
0
TEXT
8
POINTS_COTES
10
116.996
20
21.003
40
1.0
1
37.3
0
TEXT
8
POINTS_COTES
10
44.996
20
27.005
40
1.0
1
35.5
0
TEXT
8
POINTS_COTES
10
132.000
20
30.001
40
1.0
1
35.3
0
TEXT
8
POINTS_COTES
10
59.999
20
36.003
40
1.0
1
34.6
0
TEXT
8
POINTS_COTES
10
147.003
20
38.999
40
1.0
1
33.1
0
TEXT
8
POINTS_COTES
10
75.003
20
45.001
40
1.0
1
33.3
0
TEXT
8
POINTS_COTES
10
3.002
20
51.003
40
1.0
1
35.3
0
TEXT
8
POINTS_COTES
10
89.995
20
53.999
40
1.0
1
32.3
0
TEXT
8
POINTS_COTES
10
17.995
20
60.001
40
1.0
1
32.9
0
TEXT
8
POINTS_COTES
10
104.998
20
62.997
40
1.0
1
28.2
0
TEXT
8
POINTS_COTES
10
32.998
20
68.999
40
1.0
1
33.3
0
TEXT
8
POINTS_COTES
10
120.001
20
71.995
40
1.0
1
24.0
0
TEXT
8
POINTS_COTES
10
48.001
20
77.997
40
1.0
1
29.9
0
TEXT
8
POINTS_COTES
10
135.005
20
81.004
40
1.0
1
20.0
0
TEXT
8
POINTS_COTES
10
63.004
20
86.995
40
1.0
1
28.0
0
TEXT
8
POINTS_COTES
10
149.997
20
90.002
40
1.0
1
17.0
0
ENDSEC
0
EOF
