0
SECTION
2
HEADER
0
ENDSEC
0
SECTION
2
TABLES
0
TABLE
2
LAYER
70
4
0
LAYER
2
CONTOURS_MINEURES
70
0
62
8
6
CONTINUOUS
0
LAYER
2
CONTOURS_MAJEURES
70
0
62
3
6
CONTINUOUS
0
LAYER
2
PARCELLE
70
0
62
4
6
CONTINUOUS
0
LAYER
2
POINTS_COTES
70
0
62
7
6
CONTINUOUS
0
ENDTAB
0
ENDSEC
0
SECTION
2
ENTITIES
0
POLYLINE
8
CONTOURS_MINEURES
66
1
70
0
0
VERTEX
8
CONTOURS_MINEURES
10
0.004
20
46.369
0
VERTEX
8
CONTOURS_MINEURES
10
0.395
20
45.390
0
VERTEX
8
CONTOURS_MINEURES
10
0.614
20
45.000
0
VERTEX
8
CONTOURS_MINEURES
10
2.781
20
42.224
0
VERTEX
8
CONTOURS_MINEURES
10
3.790
20
40.003
0
VERTEX
8
CONTOURS_MINEURES
10
5.002
20
38.690
0
VERTEX
8
CONTOURS_MINEURES
10
6.453
20
36.450
0
VERTEX
8
CONTOURS_MINEURES
10
9.999
20
35.561
0
VERTEX
8
CONTOURS_MINEURES
10
10.813
20
34.996
0
VERTEX
8
CONTOURS_MINEURES
10
14.996
20
30.954
0
VERTEX
8
CONTOURS_MINEURES
10
15.553
20
30.555
0
VERTEX
8
CONTOURS_MINEURES
10
15.892
20
29.999
0
VERTEX
8
CONTOURS_MINEURES
10
20.004
20
25.621
0
VERTEX
8
CONTOURS_MINEURES
10
20.448
20
25.446
0
VERTEX
8
CONTOURS_MINEURES
10
20.779
20
25.003
0
VERTEX
8
CONTOURS_MINEURES
10
22.897
20
22.104
0
VERTEX
8
CONTOURS_MINEURES
10
23.950
20
19.996
0
VERTEX
8
CONTOURS_MINEURES
10
23.574
20
18.568
0
VERTEX
8
CONTOURS_MINEURES
10
21.024
20
14.999
0
VERTEX
8
CONTOURS_MINEURES
10
20.556
20
14.447
0
VERTEX
8
CONTOURS_MINEURES
10
20.004
20
12.728
0
VERTEX
8
CONTOURS_MINEURES
10
18.573
20
10.003
0
VERTEX
8
CONTOURS_MINEURES
10
18.126
20
8.125
0
VERTEX
8
CONTOURS_MINEURES
10
17.174
20
4.995
0
VERTEX
8
CONTOURS_MINEURES
10
15.269
20
0.271
0
VERTEX
8
CONTOURS_MINEURES
10
15.205
20
-0.001
0
SEQEND
0
POLYLINE
8
CONTOURS_MINEURES
66
1
70
0
0
VERTEX
8
CONTOURS_MINEURES
10
0.004
20
55.949
0
VERTEX
8
CONTOURS_MINEURES
10
0.858
20
55.857
0
VERTEX
8
CONTOURS_MINEURES
10
1.121
20
55.004
0
VERTEX
8
CONTOURS_MINEURES
10
1.846
20
53.159
0
VERTEX
8
CONTOURS_MINEURES
10
4.019
20
49.996
0
VERTEX
8
CONTOURS_MINEURES
10
4.299
20
49.294
0
VERTEX
8
CONTOURS_MINEURES
10
5.002
20
48.041
0
VERTEX
8
CONTOURS_MINEURES
10
9.827
20
45.000
0
VERTEX
8
CONTOURS_MINEURES
10
9.945
20
44.946
0
VERTEX
8
CONTOURS_MINEURES
10
9.999
20
44.891
0
VERTEX
8
CONTOURS_MINEURES
10
10.243
20
44.756
0
VERTEX
8
CONTOURS_MINEURES
10
14.996
20
44.875
0
VERTEX
8
CONTOURS_MINEURES
10
15.163
20
44.833
0
VERTEX
8
CONTOURS_MINEURES
10
20.004
20
43.537
0
VERTEX
8
CONTOURS_MINEURES
10
21.862
20
41.861
0
VERTEX
8
CONTOURS_MINEURES
10
25.002
20
40.986
0
VERTEX
8
CONTOURS_MINEURES
10
27.143
20
40.003
0
VERTEX
8
CONTOURS_MINEURES
10
29.999
20
37.949
0
VERTEX
8
CONTOURS_MINEURES
10
31.511
20
36.511
0
VERTEX
8
CONTOURS_MINEURES
10
32.393
20
34.996
0
VERTEX
8
CONTOURS_MINEURES
10
34.996
20
31.211
0
VERTEX
8
CONTOURS_MINEURES
10
35.389
20
30.391
0
VERTEX
8
CONTOURS_MINEURES
10
35.538
20
29.999
0
VERTEX
8
CONTOURS_MINEURES
10
35.473
20
29.524
0
VERTEX
8
CONTOURS_MINEURES
10
36.636
20
25.003
0
VERTEX
8
CONTOURS_MINEURES
10
34.996
20
23.392
0
VERTEX
8
CONTOURS_MINEURES
10
32.977
20
22.019
0
VERTEX
8
CONTOURS_MINEURES
10
32.794
20
19.996
0
VERTEX
8
CONTOURS_MINEURES
10
31.866
20
18.129
0
VERTEX
8
CONTOURS_MINEURES
10
29.999
20
15.539
0
VERTEX
8
CONTOURS_MINEURES
10
29.551
20
14.999
0
VERTEX
8
CONTOURS_MINEURES
10
27.450
20
12.551
0
VERTEX
8
CONTOURS_MINEURES
10
26.176
20
10.003
0
VERTEX
8
CONTOURS_MINEURES
10
25.824
20
9.179
0
VERTEX
8
CONTOURS_MINEURES
10
25.002
20
5.564
0
VERTEX
8
CONTOURS_MINEURES
10
24.864
20
5.134
0
VERTEX
8
CONTOURS_MINEURES
10
24.838
20
4.995
0
VERTEX
8
CONTOURS_MINEURES
10
24.776
20
0.225
0
VERTEX
8
CONTOURS_MINEURES
10
24.748
20
-0.001
0
SEQEND
0
POLYLINE
8
CONTOURS_MINEURES
66
1
70
0
0
VERTEX
8
CONTOURS_MINEURES
10
0.004
20
79.442
0
VERTEX
8
CONTOURS_MINEURES
10
0.718
20
79.283
0
VERTEX
8
CONTOURS_MINEURES
10
5.002
20
76.621
0
VERTEX
8
CONTOURS_MINEURES
10
6.201
20
76.199
0
VERTEX
8
CONTOURS_MINEURES
10
9.999
20
75.476
0
VERTEX
8
CONTOURS_MINEURES
10
11.051
20
75.000
0
VERTEX
8
CONTOURS_MINEURES
10
13.747
20
73.751
0
VERTEX
8
CONTOURS_MINEURES
10
14.996
20
73.586
0
VERTEX
8
CONTOURS_MINEURES
10
17.184
20
72.186
0
VERTEX
8
CONTOURS_MINEURES
10
20.004
20
71.901
0
VERTEX
8
CONTOURS_MINEURES
10
23.336
20
70.004
0
VERTEX
8
CONTOURS_MINEURES
10
24.281
20
69.282
0
VERTEX
8
CONTOURS_MINEURES
10
25.002
20
69.130
0
VERTEX
8
CONTOURS_MINEURES
10
28.659
20
64.996
0
VERTEX
8
CONTOURS_MINEURES
10
28.951
20
63.949
0
VERTEX
8
CONTOURS_MINEURES
10
29.579
20
60.000
0
VERTEX
8
CONTOURS_MINEURES
10
29.495
20
55.508
0
VERTEX
8
CONTOURS_MINEURES
10
29.420
20
55.004
0
VERTEX
8
CONTOURS_MINEURES
10
29.999
20
51.069
0
VERTEX
8
CONTOURS_MINEURES
10
30.112
20
50.109
0
VERTEX
8
CONTOURS_MINEURES
10
30.311
20
49.996
0
VERTEX
8
CONTOURS_MINEURES
10
34.996
20
48.413
0
VERTEX
8
CONTOURS_MINEURES
10
37.163
20
47.834
0
VERTEX
8
CONTOURS_MINEURES
10
40.004
20
46.842
0
VERTEX
8
CONTOURS_MINEURES
10
42.095
20
45.000
0
VERTEX
8
CONTOURS_MINEURES
10
42.660
20
42.659
0
VERTEX
8
CONTOURS_MINEURES
10
45.001
20
40.396
0
VERTEX
8
CONTOURS_MINEURES
10
45.386
20
40.003
0
VERTEX
8
CONTOURS_MINEURES
10
46.530
20
36.527
0
VERTEX
8
CONTOURS_MINEURES
10
47.890
20
34.996
0
VERTEX
8
CONTOURS_MINEURES
10
46.729
20
33.268
0
VERTEX
8
CONTOURS_MINEURES
10
47.155
20
29.999
0
VERTEX
8
CONTOURS_MINEURES
10
45.001
20
25.434
0
VERTEX
8
CONTOURS_MINEURES
10
44.808
20
25.003
0
VERTEX
8
CONTOURS_MINEURES
10
41.765
20
23.239
0
VERTEX
8
CONTOURS_MINEURES
10
40.004
20
21.610
0
VERTEX
8
CONTOURS_MINEURES
10
38.372
20
19.996
0
VERTEX
8
CONTOURS_MINEURES
10
36.827
20
16.826
0
VERTEX
8
CONTOURS_MINEURES
10
35.942
20
14.999
0
VERTEX
8
CONTOURS_MINEURES
10
34.996
20
13.702
0
VERTEX
8
CONTOURS_MINEURES
10
33.295
20
11.703
0
VERTEX
8
CONTOURS_MINEURES
10
32.145
20
10.003
0
VERTEX
8
CONTOURS_MINEURES
10
30.100
20
5.096
0
VERTEX
8
CONTOURS_MINEURES
10
30.057
20
4.995
0
VERTEX
8
CONTOURS_MINEURES
10
30.050
20
4.944
0
VERTEX
8
CONTOURS_MINEURES
10
30.124
20
-0.001
0
SEQEND
0
POLYLINE
8
CONTOURS_MINEURES
66
1
70
0
0
VERTEX
8
CONTOURS_MINEURES
10
0.004
20
100.175
0
VERTEX
8
CONTOURS_MINEURES
10
0.185
20
100.004
0
VERTEX
8
CONTOURS_MINEURES
10
3.061
20
98.060
0
VERTEX
8
CONTOURS_MINEURES
10
5.002
20
95.875
0
VERTEX
8
CONTOURS_MINEURES
10
6.350
20
94.997
0
VERTEX
8
CONTOURS_MINEURES
10
8.497
20
93.495
0
VERTEX
8
CONTOURS_MINEURES
10
9.999
20
92.194
0
VERTEX
8
CONTOURS_MINEURES
10
12.769
20
92.228
0
VERTEX
8
CONTOURS_MINEURES
10
14.996
20
92.499
0
VERTEX
8
CONTOURS_MINEURES
10
17.078
20
92.078
0
VERTEX
8
CONTOURS_MINEURES
10
20.004
20
90.517
0
VERTEX
8
CONTOURS_MINEURES
10
20.185
20
90.001
0
VERTEX
8
CONTOURS_MINEURES
10
21.670
20
86.670
0
VERTEX
8
CONTOURS_MINEURES
10
21.983
20
85.004
0
VERTEX
8
CONTOURS_MINEURES
10
23.128
20
81.874
0
VERTEX
8
CONTOURS_MINEURES
10
23.574
20
79.997
0
VERTEX
8
CONTOURS_MINEURES
10
23.796
20
78.792
0
VERTEX
8
CONTOURS_MINEURES
10
25.002
20
77.390
0
VERTEX
8
CONTOURS_MINEURES
10
27.588
20
75.000
0
VERTEX
8
CONTOURS_MINEURES
10
29.092
20
74.094
0
VERTEX
8
CONTOURS_MINEURES
10
29.999
20
73.720
0
VERTEX
8
CONTOURS_MINEURES
10
34.097
20
70.903
0
VERTEX
8
CONTOURS_MINEURES
10
34.996
20
70.233
0
VERTEX
8
CONTOURS_MINEURES
10
35.110
20
70.117
0
VERTEX
8
CONTOURS_MINEURES
10
35.191
20
70.004
0
VERTEX
8
CONTOURS_MINEURES
10
35.451
20
69.549
0
VERTEX
8
CONTOURS_MINEURES
10
36.938
20
64.996
0
VERTEX
8
CONTOURS_MINEURES
10
38.477
20
61.523
0
VERTEX
8
CONTOURS_MINEURES
10
38.496
20
60.000
0
VERTEX
8
CONTOURS_MINEURES
10
38.686
20
58.685
0
VERTEX
8
CONTOURS_MINEURES
10
39.865
20
55.004
0
VERTEX
8
CONTOURS_MINEURES
10
40.004
20
54.904
0
VERTEX
8
CONTOURS_MINEURES
10
41.670
20
53.334
0
VERTEX
8
CONTOURS_MINEURES
10
45.001
20
50.348
0
VERTEX
8
CONTOURS_MINEURES
10
45.137
20
50.131
0
VERTEX
8
CONTOURS_MINEURES
10
45.626
20
49.996
0
VERTEX
8
CONTOURS_MINEURES
10
49.040
20
49.038
0
VERTEX
8
CONTOURS_MINEURES
10
49.999
20
47.498
0
VERTEX
8
CONTOURS_MINEURES
10
54.824
20
45.172
0
VERTEX
8
CONTOURS_MINEURES
10
54.996
20
45.042
0
VERTEX
8
CONTOURS_MINEURES
10
55.012
20
45.015
0
VERTEX
8
CONTOURS_MINEURES
10
55.025
20
45.000
0
VERTEX
8
CONTOURS_MINEURES
10
55.025
20
44.971
0
VERTEX
8
CONTOURS_MINEURES
10
56.312
20
40.003
0
VERTEX
8
CONTOURS_MINEURES
10
56.600
20
36.600
0
VERTEX
8
CONTOURS_MINEURES
10
56.829
20
34.996
0
VERTEX
8
CONTOURS_MINEURES
10
56.334
20
33.661
0
VERTEX
8
CONTOURS_MINEURES
10
54.996
20
31.167
0
VERTEX
8
CONTOURS_MINEURES
10
54.190
20
29.999
0
VERTEX
8
CONTOURS_MINEURES
10
52.587
20
27.412
0
VERTEX
8
CONTOURS_MINEURES
10
50.910
20
25.003
0
VERTEX
8
CONTOURS_MINEURES
10
49.999
20
24.425
0
VERTEX
8
CONTOURS_MINEURES
10
47.546
20
22.545
0
VERTEX
8
CONTOURS_MINEURES
10
45.001
20
20.624
0
VERTEX
8
CONTOURS_MINEURES
10
44.604
20
20.394
0
VERTEX
8
CONTOURS_MINEURES
10
44.173
20
19.996
0
VERTEX
8
CONTOURS_MINEURES
10
43.295
20
18.289
0
VERTEX
8
CONTOURS_MINEURES
10
41.701
20
14.999
0
VERTEX
8
CONTOURS_MINEURES
10
41.395
20
13.608
0
VERTEX
8
CONTOURS_MINEURES
10
40.004
20
12.066
0
VERTEX
8
CONTOURS_MINEURES
10
38.654
20
10.003
0
VERTEX
8
CONTOURS_MINEURES
10
37.418
20
7.581
0
VERTEX
8
CONTOURS_MINEURES
10
36.069
20
4.995
0
VERTEX
8
CONTOURS_MINEURES
10
35.255
20
0.257
0
VERTEX
8
CONTOURS_MINEURES
10
35.163
20
-0.001
0
SEQEND
0
POLYLINE
8
CONTOURS_MINEURES
66
1
70
0
0
VERTEX
8
CONTOURS_MINEURES
10
0.004
20
113.223
0
VERTEX
8
CONTOURS_MINEURES
10
3.778
20
111.224
0
VERTEX
8
CONTOURS_MINEURES
10
5.002
20
110.564
0
VERTEX
8
CONTOURS_MINEURES
10
5.478
20
110.474
0
VERTEX
8
CONTOURS_MINEURES
10
6.201
20
109.997
0
VERTEX
8
CONTOURS_MINEURES
10
9.999
20
107.246
0
VERTEX
8
CONTOURS_MINEURES
10
11.238
20
106.240
0
VERTEX
8
CONTOURS_MINEURES
10
12.346
20
105.001
0
VERTEX
8
CONTOURS_MINEURES
10
14.996
20
103.198
0
VERTEX
8
CONTOURS_MINEURES
10
17.628
20
102.630
0
VERTEX
8
CONTOURS_MINEURES
10
20.004
20
102.410
0
VERTEX
8
CONTOURS_MINEURES
10
22.695
20
102.310
0
VERTEX
8
CONTOURS_MINEURES
10
25.002
20
102.669
0
VERTEX
8
CONTOURS_MINEURES
10
27.223
20
102.225
0
VERTEX
8
CONTOURS_MINEURES
10
28.158
20
100.004
0
VERTEX
8
CONTOURS_MINEURES
10
27.143
20
97.858
0
VERTEX
8
CONTOURS_MINEURES
10
27.987
20
94.997
0
VERTEX
8
CONTOURS_MINEURES
10
26.924
20
91.922
0
VERTEX
8
CONTOURS_MINEURES
10
26.267
20
90.001
0
VERTEX
8
CONTOURS_MINEURES
10
26.461
20
88.542
0
VERTEX
8
CONTOURS_MINEURES
10
27.229
20
85.004
0
VERTEX
8
CONTOURS_MINEURES
10
28.052
20
83.053
0
VERTEX
8
CONTOURS_MINEURES
10
29.633
20
79.997
0
VERTEX
8
CONTOURS_MINEURES
10
29.999
20
79.646
0
VERTEX
8
CONTOURS_MINEURES
10
32.692
20
77.693
0
VERTEX
8
CONTOURS_MINEURES
10
34.996
20
75.436
0
VERTEX
8
CONTOURS_MINEURES
10
35.322
20
75.000
0
VERTEX
8
CONTOURS_MINEURES
10
37.639
20
72.641
0
VERTEX
8
CONTOURS_MINEURES
10
39.527
20
70.004
0
VERTEX
8
CONTOURS_MINEURES
10
40.004
20
69.169
0
VERTEX
8
CONTOURS_MINEURES
10
41.711
20
66.707
0
VERTEX
8
CONTOURS_MINEURES
10
42.992
20
64.996
0
VERTEX
8
CONTOURS_MINEURES
10
45.001
20
62.174
0
VERTEX
8
CONTOURS_MINEURES
10
45.948
20
60.946
0
VERTEX
8
CONTOURS_MINEURES
10
46.677
20
60.000
0
VERTEX
8
CONTOURS_MINEURES
10
49.999
20
56.659
0
VERTEX
8
CONTOURS_MINEURES
10
51.840
20
55.004
0
VERTEX
8
CONTOURS_MINEURES
10
53.206
20
53.210
0
VERTEX
8
CONTOURS_MINEURES
10
54.996
20
52.303
0
VERTEX
8
CONTOURS_MINEURES
10
57.039
20
49.996
0
VERTEX
8
CONTOURS_MINEURES
10
58.142
20
48.138
0
VERTEX
8
CONTOURS_MINEURES
10
60.004
20
45.924
0
VERTEX
8
CONTOURS_MINEURES
10
60.863
20
45.000
0
VERTEX
8
CONTOURS_MINEURES
10
60.837
20
40.836
0
VERTEX
8
CONTOURS_MINEURES
10
61.241
20
40.003
0
VERTEX
8
CONTOURS_MINEURES
10
61.124
20
38.881
0
VERTEX
8
CONTOURS_MINEURES
10
61.962
20
34.996
0
VERTEX
8
CONTOURS_MINEURES
10
60.004
20
31.504
0
VERTEX
8
CONTOURS_MINEURES
10
59.596
20
30.406
0
VERTEX
8
CONTOURS_MINEURES
10
59.378
20
29.999
0
VERTEX
8
CONTOURS_MINEURES
10
58.800
20
28.798
0
VERTEX
8
CONTOURS_MINEURES
10
56.935
20
25.003
0
VERTEX
8
CONTOURS_MINEURES
10
56.293
20
23.706
0
VERTEX
8
CONTOURS_MINEURES
10
54.996
20
23.237
0
VERTEX
8
CONTOURS_MINEURES
10
50.405
20
20.403
0
VERTEX
8
CONTOURS_MINEURES
10
49.999
20
20.145
0
VERTEX
8
CONTOURS_MINEURES
10
49.803
20
19.996
0
VERTEX
8
CONTOURS_MINEURES
10
48.233
20
16.765
0
VERTEX
8
CONTOURS_MINEURES
10
47.513
20
14.999
0
VERTEX
8
CONTOURS_MINEURES
10
46.948
20
11.949
0
VERTEX
8
CONTOURS_MINEURES
10
47.778
20
10.003
0
VERTEX
8
CONTOURS_MINEURES
10
47.084
20
7.916
0
VERTEX
8
CONTOURS_MINEURES
10
45.001
20
6.151
0
VERTEX
8
CONTOURS_MINEURES
10
44.169
20
4.995
0
VERTEX
8
CONTOURS_MINEURES
10
42.957
20
2.951
0
VERTEX
8
CONTOURS_MINEURES
10
40.919
20
-0.001
0
SEQEND
0
POLYLINE
8
CONTOURS_MINEURES
66
1
70
0
0
VERTEX
8
CONTOURS_MINEURES
10
0.004
20
120.793
0
VERTEX
8
CONTOURS_MINEURES
10
0.760
20
120.001
0
VERTEX
8
CONTOURS_MINEURES
10
3.456
20
118.456
0
VERTEX
8
CONTOURS_MINEURES
10
5.002
20
117.963
0
VERTEX
8
CONTOURS_MINEURES
10
7.296
20
117.707
0
VERTEX
8
CONTOURS_MINEURES
10
9.999
20
117.366
0
VERTEX
8
CONTOURS_MINEURES
10
12.106
20
117.111
0
VERTEX
8
CONTOURS_MINEURES
10
14.996
20
116.316
0
VERTEX
8
CONTOURS_MINEURES
10
19.686
20
115.322
0
VERTEX
8
CONTOURS_MINEURES
10
20.004
20
115.268
0
VERTEX
8
CONTOURS_MINEURES
10
20.855
20
115.005
0
VERTEX
8
CONTOURS_MINEURES
10
25.002
20
112.652
0
VERTEX
8
CONTOURS_MINEURES
10
27.167
20
112.835
0
VERTEX
8
CONTOURS_MINEURES
10
29.999
20
112.384
0
VERTEX
8
CONTOURS_MINEURES
10
32.626
20
112.630
0
VERTEX
8
CONTOURS_MINEURES
10
34.996
20
112.013
0
VERTEX
8
CONTOURS_MINEURES
10
37.541
20
109.997
0
VERTEX
8
CONTOURS_MINEURES
10
38.573
20
108.570
0
VERTEX
8
CONTOURS_MINEURES
10
38.050
20
105.001
0
VERTEX
8
CONTOURS_MINEURES
10
37.036
20
102.040
0
VERTEX
8
CONTOURS_MINEURES
10
36.485
20
100.004
0
VERTEX
8
CONTOURS_MINEURES
10
36.433
20
98.568
0
VERTEX
8
CONTOURS_MINEURES
10
34.996
20
94.997
0
VERTEX
8
CONTOURS_MINEURES
10
34.785
20
90.212
0
VERTEX
8
CONTOURS_MINEURES
10
34.655
20
90.001
0
VERTEX
8
CONTOURS_MINEURES
10
34.721
20
89.726
0
VERTEX
8
CONTOURS_MINEURES
10
34.996
20
87.502
0
VERTEX
8
CONTOURS_MINEURES
10
35.285
20
85.004
0
VERTEX
8
CONTOURS_MINEURES
10
36.975
20
81.975
0
VERTEX
8
CONTOURS_MINEURES
10
37.269
20
79.997
0
VERTEX
8
CONTOURS_MINEURES
10
40.004
20
75.722
0
VERTEX
8
CONTOURS_MINEURES
10
40.315
20
75.311
0
VERTEX
8
CONTOURS_MINEURES
10
40.386
20
75.000
0
VERTEX
8
CONTOURS_MINEURES
10
42.603
20
72.402
0
VERTEX
8
CONTOURS_MINEURES
10
44.686
20
70.004
0
VERTEX
8
CONTOURS_MINEURES
10
44.815
20
69.817
0
VERTEX
8
CONTOURS_MINEURES
10
45.001
20
69.568
0
VERTEX
8
CONTOURS_MINEURES
10
47.150
20
67.150
0
VERTEX
8
CONTOURS_MINEURES
10
48.705
20
64.996
0
VERTEX
8
CONTOURS_MINEURES
10
49.268
20
64.266
0
VERTEX
8
CONTOURS_MINEURES
10
49.999
20
63.318
0
VERTEX
8
CONTOURS_MINEURES
10
51.690
20
61.691
0
VERTEX
8
CONTOURS_MINEURES
10
53.082
20
60.000
0
VERTEX
8
CONTOURS_MINEURES
10
54.996
20
58.292
0
VERTEX
8
CONTOURS_MINEURES
10
56.407
20
56.412
0
VERTEX
8
CONTOURS_MINEURES
10
57.311
20
55.004
0
VERTEX
8
CONTOURS_MINEURES
10
60.004
20
52.004
0
VERTEX
8
CONTOURS_MINEURES
10
62.385
20
49.996
0
VERTEX
8
CONTOURS_MINEURES
10
65.001
20
47.199
0
VERTEX
8
CONTOURS_MINEURES
10
67.035
20
45.000
0
VERTEX
8
CONTOURS_MINEURES
10
67.713
20
42.714
0
VERTEX
8
CONTOURS_MINEURES
10
69.999
20
40.644
0
VERTEX
8
CONTOURS_MINEURES
10
70.558
20
40.003
0
VERTEX
8
CONTOURS_MINEURES
10
70.808
20
35.807
0
VERTEX
8
CONTOURS_MINEURES
10
71.418
20
34.996
0
VERTEX
8
CONTOURS_MINEURES
10
69.999
20
32.049
0
VERTEX
8
CONTOURS_MINEURES
10
69.364
20
30.634
0
VERTEX
8
CONTOURS_MINEURES
10
68.518
20
29.999
0
VERTEX
8
CONTOURS_MINEURES
10
66.697
20
28.304
0
VERTEX
8
CONTOURS_MINEURES
10
65.001
20
26.986
0
VERTEX
8
CONTOURS_MINEURES
10
64.377
20
25.628
0
VERTEX
8
CONTOURS_MINEURES
10
63.752
20
25.003
0
VERTEX
8
CONTOURS_MINEURES
10
60.004
20
21.285
0
VERTEX
8
CONTOURS_MINEURES
10
59.577
20
20.422
0
VERTEX
8
CONTOURS_MINEURES
10
58.397
20
19.996
0
VERTEX
8
CONTOURS_MINEURES
10
54.996
20
16.427
0
VERTEX
8
CONTOURS_MINEURES
10
54.137
20
14.999
0
VERTEX
8
CONTOURS_MINEURES
10
54.364
20
14.367
0
VERTEX
8
CONTOURS_MINEURES
10
54.996
20
12.443
0
VERTEX
8
CONTOURS_MINEURES
10
56.219
20
11.223
0
VERTEX
8
CONTOURS_MINEURES
10
55.758
20
10.003
0
VERTEX
8
CONTOURS_MINEURES
10
56.072
20
6.071
0
VERTEX
8
CONTOURS_MINEURES
10
55.549
20
4.995
0
VERTEX
8
CONTOURS_MINEURES
10
55.476
20
4.517
0
VERTEX
8
CONTOURS_MINEURES
10
54.996
20
3.853
0
VERTEX
8
CONTOURS_MINEURES
10
51.979
20
1.979
0
VERTEX
8
CONTOURS_MINEURES
10
49.999
20
0.765
0
VERTEX
8
CONTOURS_MINEURES
10
49.482
20
0.516
0
VERTEX
8
CONTOURS_MINEURES
10
48.999
20
-0.001
0
SEQEND
0
POLYLINE
8
CONTOURS_MINEURES
66
1
70
0
0
VERTEX
8
CONTOURS_MINEURES
10
0.004
20
132.948
0
VERTEX
8
CONTOURS_MINEURES
10
1.427
20
131.428
0
VERTEX
8
CONTOURS_MINEURES
10
3.260
20
130.005
0
VERTEX
8
CONTOURS_MINEURES
10
5.002
20
128.260
0
VERTEX
8
CONTOURS_MINEURES
10
7.108
20
127.109
0
VERTEX
8
CONTOURS_MINEURES
10
9.999
20
126.217
0
VERTEX
8
CONTOURS_MINEURES
10
14.996
20
124.998
0
VERTEX
8
CONTOURS_MINEURES
10
18.799
20
123.795
0
VERTEX
8
CONTOURS_MINEURES
10
20.004
20
123.413
0
VERTEX
8
CONTOURS_MINEURES
10
22.324
20
122.678
0
VERTEX
8
CONTOURS_MINEURES
10
25.002
20
121.898
0
VERTEX
8
CONTOURS_MINEURES
10
29.687
20
120.001
0
VERTEX
8
CONTOURS_MINEURES
10
29.938
20
119.940
0
VERTEX
8
CONTOURS_MINEURES
10
29.999
20
119.933
0
VERTEX
8
CONTOURS_MINEURES
10
30.063
20
119.937
0
VERTEX
8
CONTOURS_MINEURES
10
34.996
20
119.186
0
VERTEX
8
CONTOURS_MINEURES
10
39.329
20
119.327
0
VERTEX
8
CONTOURS_MINEURES
10
40.004
20
119.212
0
VERTEX
8
CONTOURS_MINEURES
10
41.399
20
118.607
0
VERTEX
8
CONTOURS_MINEURES
10
45.001
20
118.042
0
VERTEX
8
CONTOURS_MINEURES
10
47.314
20
117.316
0
VERTEX
8
CONTOURS_MINEURES
10
48.974
20
115.005
0
VERTEX
8
CONTOURS_MINEURES
10
49.999
20
111.800
0
VERTEX
8
CONTOURS_MINEURES
10
51.284
20
109.997
0
VERTEX
8
CONTOURS_MINEURES
10
51.827
20
106.829
0
VERTEX
8
CONTOURS_MINEURES
10
52.025
20
105.001
0
VERTEX
8
CONTOURS_MINEURES
10
50.768
20
100.773
0
VERTEX
8
CONTOURS_MINEURES
10
50.539
20
100.004
0
VERTEX
8
CONTOURS_MINEURES
10
49.999
20
98.464
0
VERTEX
8
CONTOURS_MINEURES
10
49.285
20
95.712
0
VERTEX
8
CONTOURS_MINEURES
10
49.181
20
94.997
0
VERTEX
8
CONTOURS_MINEURES
10
48.928
20
93.926
0
VERTEX
8
CONTOURS_MINEURES
10
47.797
20
90.001
0
VERTEX
8
CONTOURS_MINEURES
10
46.905
20
86.908
0
VERTEX
8
CONTOURS_MINEURES
10
46.404
20
85.004
0
VERTEX
8
CONTOURS_MINEURES
10
45.446
20
80.442
0
VERTEX
8
CONTOURS_MINEURES
10
45.346
20
79.997
0
VERTEX
8
CONTOURS_MINEURES
10
45.379
20
79.620
0
VERTEX
8
CONTOURS_MINEURES
10
47.337
20
75.000
0
VERTEX
8
CONTOURS_MINEURES
10
49.999
20
72.015
0
VERTEX
8
CONTOURS_MINEURES
10
51.681
20
71.686
0
VERTEX
8
CONTOURS_MINEURES
10
52.389
20
70.004
0
VERTEX
8
CONTOURS_MINEURES
10
54.996
20
67.273
0
VERTEX
8
CONTOURS_MINEURES
10
56.117
20
66.117
0
VERTEX
8
CONTOURS_MINEURES
10
56.143
20
64.996
0
VERTEX
8
CONTOURS_MINEURES
10
56.577
20
63.419
0
VERTEX
8
CONTOURS_MINEURES
10
58.461
20
60.000
0
VERTEX
8
CONTOURS_MINEURES
10
59.122
20
59.120
0
VERTEX
8
CONTOURS_MINEURES
10
60.004
20
57.745
0
VERTEX
8
CONTOURS_MINEURES
10
62.029
20
57.028
0
VERTEX
8
CONTOURS_MINEURES
10
63.350
20
55.004
0
VERTEX
8
CONTOURS_MINEURES
10
65.001
20
53.702
0
VERTEX
8
CONTOURS_MINEURES
10
67.747
20
52.748
0
VERTEX
8
CONTOURS_MINEURES
10
69.268
20
49.996
0
VERTEX
8
CONTOURS_MINEURES
10
69.999
20
49.185
0
VERTEX
8
CONTOURS_MINEURES
10
72.781
20
47.782
0
VERTEX
8
CONTOURS_MINEURES
10
74.257
20
45.000
0
VERTEX
8
CONTOURS_MINEURES
10
74.996
20
44.133
0
VERTEX
8
CONTOURS_MINEURES
10
77.665
20
42.666
0
VERTEX
8
CONTOURS_MINEURES
10
80.004
20
40.206
0
VERTEX
8
CONTOURS_MINEURES
10
80.196
20
40.003
0
VERTEX
8
CONTOURS_MINEURES
10
82.398
20
37.395
0
VERTEX
8
CONTOURS_MINEURES
10
84.425
20
34.996
0
VERTEX
8
CONTOURS_MINEURES
10
83.559
20
31.442
0
VERTEX
8
CONTOURS_MINEURES
10
83.274
20
29.999
0
VERTEX
8
CONTOURS_MINEURES
10
80.004
20
25.185
0
VERTEX
8
CONTOURS_MINEURES
10
79.882
20
25.003
0
VERTEX
8
CONTOURS_MINEURES
10
76.417
20
23.582
0
VERTEX
8
CONTOURS_MINEURES
10
74.996
20
22.861
0
VERTEX
8
CONTOURS_MINEURES
10
72.701
20
22.295
0
VERTEX
8
CONTOURS_MINEURES
10
71.612
20
19.996
0
VERTEX
8
CONTOURS_MINEURES
10
69.999
20
17.132
0
VERTEX
8
CONTOURS_MINEURES
10
68.623
20
14.999
0
VERTEX
8
CONTOURS_MINEURES
10
67.033
20
12.968
0
VERTEX
8
CONTOURS_MINEURES
10
65.001
20
10.801
0
VERTEX
8
CONTOURS_MINEURES
10
64.070
20
10.003
0
VERTEX
8
CONTOURS_MINEURES
10
60.004
20
7.055
0
VERTEX
8
CONTOURS_MINEURES
10
59.002
20
4.995
0
VERTEX
8
CONTOURS_MINEURES
10
58.475
20
1.525
0
VERTEX
8
CONTOURS_MINEURES
10
57.371
20
-0.001
0
SEQEND
0
POLYLINE
8
CONTOURS_MINEURES
66
1
70
0
0
VERTEX
8
CONTOURS_MINEURES
10
0.004
20
142.800
0
VERTEX
8
CONTOURS_MINEURES
10
4.530
20
140.470
0
VERTEX
8
CONTOURS_MINEURES
10
5.002
20
140.299
0
VERTEX
8
CONTOURS_MINEURES
10
5.225
20
140.221
0
VERTEX
8
CONTOURS_MINEURES
10
6.924
20
139.998
0
VERTEX
8
CONTOURS_MINEURES
10
9.599
20
139.598
0
VERTEX
8
CONTOURS_MINEURES
10
9.999
20
139.504
0
VERTEX
8
CONTOURS_MINEURES
10
10.499
20
139.498
0
VERTEX
8
CONTOURS_MINEURES
10
14.996
20
139.863
0
VERTEX
8
CONTOURS_MINEURES
10
18.873
20
138.870
0
VERTEX
8
CONTOURS_MINEURES
10
20.004
20
138.477
0
VERTEX
8
CONTOURS_MINEURES
10
24.202
20
135.801
0
VERTEX
8
CONTOURS_MINEURES
10
25.002
20
135.287
0
VERTEX
8
CONTOURS_MINEURES
10
25.217
20
135.216
0
VERTEX
8
CONTOURS_MINEURES
10
25.715
20
135.001
0
VERTEX
8
CONTOURS_MINEURES
10
29.999
20
133.521
0
VERTEX
8
CONTOURS_MINEURES
10
33.559
20
133.565
0
VERTEX
8
CONTOURS_MINEURES
10
34.996
20
133.233
0
VERTEX
8
CONTOURS_MINEURES
10
36.768
20
133.233
0
VERTEX
8
CONTOURS_MINEURES
10
40.004
20
133.284
0
VERTEX
8
CONTOURS_MINEURES
10
42.389
20
132.390
0
VERTEX
8
CONTOURS_MINEURES
10
45.001
20
130.495
0
VERTEX
8
CONTOURS_MINEURES
10
46.923
20
130.005
0
VERTEX
8
CONTOURS_MINEURES
10
49.999
20
129.545
0
VERTEX
8
CONTOURS_MINEURES
10
50.443
20
129.560
0
VERTEX
8
CONTOURS_MINEURES
10
51.109
20
130.005
0
VERTEX
8
CONTOURS_MINEURES
10
54.996
20
132.191
0
VERTEX
8
CONTOURS_MINEURES
10
59.619
20
130.389
0
VERTEX
8
CONTOURS_MINEURES
10
60.004
20
130.354
0
VERTEX
8
CONTOURS_MINEURES
10
60.246
20
130.247
0
VERTEX
8
CONTOURS_MINEURES
10
60.685
20
130.005
0
VERTEX
8
CONTOURS_MINEURES
10
65.001
20
127.032
0
VERTEX
8
CONTOURS_MINEURES
10
67.600
20
124.998
0
VERTEX
8
CONTOURS_MINEURES
10
68.775
20
123.774
0
VERTEX
8
CONTOURS_MINEURES
10
69.999
20
122.000
0
VERTEX
8
CONTOURS_MINEURES
10
71.426
20
120.001
0
VERTEX
8
CONTOURS_MINEURES
10
73.273
20
118.278
0
VERTEX
8
CONTOURS_MINEURES
10
74.219
20
115.005
0
VERTEX
8
CONTOURS_MINEURES
10
72.287
20
112.712
0
VERTEX
8
CONTOURS_MINEURES
10
71.998
20
109.997
0
VERTEX
8
CONTOURS_MINEURES
10
71.033
20
108.964
0
VERTEX
8
CONTOURS_MINEURES
10
69.999
20
106.341
0
VERTEX
8
CONTOURS_MINEURES
10
69.381
20
105.618
0
VERTEX
8
CONTOURS_MINEURES
10
69.395
20
105.001
0
VERTEX
8
CONTOURS_MINEURES
10
68.921
20
101.082
0
VERTEX
8
CONTOURS_MINEURES
10
68.952
20
100.004
0
VERTEX
8
CONTOURS_MINEURES
10
68.999
20
99.003
0
VERTEX
8
CONTOURS_MINEURES
10
69.999
20
98.168
0
VERTEX
8
CONTOURS_MINEURES
10
71.178
20
94.997
0
VERTEX
8
CONTOURS_MINEURES
10
72.966
20
92.030
0
VERTEX
8
CONTOURS_MINEURES
10
73.709
20
90.001
0
VERTEX
8
CONTOURS_MINEURES
10
74.996
20
88.524
0
VERTEX
8
CONTOURS_MINEURES
10
75.948
20
85.954
0
VERTEX
8
CONTOURS_MINEURES
10
77.871
20
85.004
0
VERTEX
8
CONTOURS_MINEURES
10
80.004
20
82.579
0
VERTEX
8
CONTOURS_MINEURES
10
80.712
20
80.706
0
VERTEX
8
CONTOURS_MINEURES
10
81.902
20
79.997
0
VERTEX
8
CONTOURS_MINEURES
10
81.995
20
76.991
0
VERTEX
8
CONTOURS_MINEURES
10
85.001
20
76.720
0
VERTEX
8
CONTOURS_MINEURES
10
87.386
20
75.000
0
VERTEX
8
CONTOURS_MINEURES
10
87.325
20
72.328
0
VERTEX
8
CONTOURS_MINEURES
10
89.998
20
71.570
0
VERTEX
8
CONTOURS_MINEURES
10
90.368
20
70.373
0
VERTEX
8
CONTOURS_MINEURES
10
90.911
20
70.004
0
VERTEX
8
CONTOURS_MINEURES
10
94.996
20
65.101
0
VERTEX
8
CONTOURS_MINEURES
10
95.030
20
65.030
0
VERTEX
8
CONTOURS_MINEURES
10
95.084
20
64.996
0
VERTEX
8
CONTOURS_MINEURES
10
95.663
20
64.330
0
VERTEX
8
CONTOURS_MINEURES
10
95.935
20
60.000
0
VERTEX
8
CONTOURS_MINEURES
10
95.663
20
55.670
0
VERTEX
8
CONTOURS_MINEURES
10
95.830
20
55.004
0
VERTEX
8
CONTOURS_MINEURES
10
94.996
20
49.996
0
VERTEX
8
CONTOURS_MINEURES
10
96.922
20
46.921
0
VERTEX
8
CONTOURS_MINEURES
10
96.248
20
45.000
0
VERTEX
8
CONTOURS_MINEURES
10
96.561
20
43.438
0
VERTEX
8
CONTOURS_MINEURES
10
98.282
20
40.003
0
VERTEX
8
CONTOURS_MINEURES
10
98.494
20
38.494
0
VERTEX
8
CONTOURS_MINEURES
10
98.229
20
34.996
0
VERTEX
8
CONTOURS_MINEURES
10
96.794
20
33.201
0
VERTEX
8
CONTOURS_MINEURES
10
95.353
20
29.999
0
VERTEX
8
CONTOURS_MINEURES
10
94.996
20
29.615
0
VERTEX
8
CONTOURS_MINEURES
10
92.583
20
27.415
0
VERTEX
8
CONTOURS_MINEURES
10
90.383
20
25.003
0
VERTEX
8
CONTOURS_MINEURES
10
90.196
20
24.805
0
VERTEX
8
CONTOURS_MINEURES
10
89.998
20
24.653
0
VERTEX
8
CONTOURS_MINEURES
10
89.326
20
24.329
0
VERTEX
8
CONTOURS_MINEURES
10
85.001
20
21.508
0
VERTEX
8
CONTOURS_MINEURES
10
84.076
20
20.923
0
VERTEX
8
CONTOURS_MINEURES
10
80.004
20
20.046
0
VERTEX
8
CONTOURS_MINEURES
10
79.968
20
20.031
0
VERTEX
8
CONTOURS_MINEURES
10
79.898
20
19.996
0
VERTEX
8
CONTOURS_MINEURES
10
78.101
20
16.898
0
VERTEX
8
CONTOURS_MINEURES
10
74.996
20
15.349
0
VERTEX
8
CONTOURS_MINEURES
10
74.789
20
14.999
0
VERTEX
8
CONTOURS_MINEURES
10
73.173
20
11.825
0
VERTEX
8
CONTOURS_MINEURES
10
71.834
20
10.003
0
VERTEX
8
CONTOURS_MINEURES
10
69.999
20
5.967
0
VERTEX
8
CONTOURS_MINEURES
10
69.664
20
5.331
0
VERTEX
8
CONTOURS_MINEURES
10
68.142
20
4.995
0
VERTEX
8
CONTOURS_MINEURES
10
65.001
20
1.560
0
VERTEX
8
CONTOURS_MINEURES
10
64.673
20
0.328
0
VERTEX
8
CONTOURS_MINEURES
10
64.539
20
-0.001
0
SEQEND
0
POLYLINE
8
CONTOURS_MINEURES
66
1
70
0
0
VERTEX
8
CONTOURS_MINEURES
10
91.664
20
-0.001
0
VERTEX
8
CONTOURS_MINEURES
10
90.831
20
0.832
0
VERTEX
8
CONTOURS_MINEURES
10
89.998
20
0.936
0
VERTEX
8
CONTOURS_MINEURES
10
89.347
20
0.651
0
VERTEX
8
CONTOURS_MINEURES
10
87.500
20
-0.001
0
SEQEND
0
POLYLINE
8
CONTOURS_MINEURES
66
1
70
0
0
VERTEX
8
CONTOURS_MINEURES
10
0.004
20
153.532
0
VERTEX
8
CONTOURS_MINEURES
10
1.575
20
153.428
0
VERTEX
8
CONTOURS_MINEURES
10
5.002
20
152.963
0
VERTEX
8
CONTOURS_MINEURES
10
7.697
20
152.696
0
VERTEX
8
CONTOURS_MINEURES
10
9.999
20
150.640
0
VERTEX
8
CONTOURS_MINEURES
10
11.873
20
150.002
0
VERTEX
8
CONTOURS_MINEURES
10
14.511
20
149.517
0
VERTEX
8
CONTOURS_MINEURES
10
14.996
20
149.400
0
VERTEX
8
CONTOURS_MINEURES
10
15.579
20
149.421
0
VERTEX
8
CONTOURS_MINEURES
10
18.849
20
150.002
0
VERTEX
8
CONTOURS_MINEURES
10
20.004
20
150.256
0
VERTEX
8
CONTOURS_MINEURES
10
24.592
20
150.411
0
VERTEX
8
CONTOURS_MINEURES
10
25.002
20
150.286
0
VERTEX
8
CONTOURS_MINEURES
10
25.894
20
150.002
0
VERTEX
8
CONTOURS_MINEURES
10
29.999
20
148.360
0
VERTEX
8
CONTOURS_MINEURES
10
32.795
20
147.801
0
VERTEX
8
CONTOURS_MINEURES
10
34.996
20
147.158
0
VERTEX
8
CONTOURS_MINEURES
10
39.305
20
145.702
0
VERTEX
8
CONTOURS_MINEURES
10
40.004
20
145.410
0
VERTEX
8
CONTOURS_MINEURES
10
41.115
20
145.005
0
VERTEX
8
CONTOURS_MINEURES
10
44.127
20
144.129
0
VERTEX
8
CONTOURS_MINEURES
10
45.001
20
143.921
0
VERTEX
8
CONTOURS_MINEURES
10
46.095
20
143.910
0
VERTEX
8
CONTOURS_MINEURES
10
48.088
20
145.005
0
VERTEX
8
CONTOURS_MINEURES
10
49.999
20
145.849
0
VERTEX
8
CONTOURS_MINEURES
10
52.599
20
147.402
0
VERTEX
8
CONTOURS_MINEURES
10
54.503
20
150.002
0
VERTEX
8
CONTOURS_MINEURES
10
54.996
20
150.355
0
VERTEX
8
CONTOURS_MINEURES
10
59.469
20
150.535
0
VERTEX
8
CONTOURS_MINEURES
10
60.004
20
151.123
0
VERTEX
8
CONTOURS_MINEURES
10
64.232
20
150.002
0
VERTEX
8
CONTOURS_MINEURES
10
64.823
20
149.823
0
VERTEX
8
CONTOURS_MINEURES
10
65.001
20
149.724
0
VERTEX
8
CONTOURS_MINEURES
10
65.626
20
149.377
0
VERTEX
8
CONTOURS_MINEURES
10
69.999
20
147.337
0
VERTEX
8
CONTOURS_MINEURES
10
73.330
20
146.671
0
VERTEX
8
CONTOURS_MINEURES
10
74.996
20
146.057
0
VERTEX
8
CONTOURS_MINEURES
10
75.766
20
145.774
0
VERTEX
8
CONTOURS_MINEURES
10
79.002
20
145.005
0
VERTEX
8
CONTOURS_MINEURES
10
80.004
20
144.755
0
VERTEX
8
CONTOURS_MINEURES
10
80.438
20
144.570
0
VERTEX
8
CONTOURS_MINEURES
10
85.001
20
142.388
0
VERTEX
8
CONTOURS_MINEURES
10
86.347
20
141.346
0
VERTEX
8
CONTOURS_MINEURES
10
88.749
20
139.998
0
VERTEX
8
CONTOURS_MINEURES
10
89.998
20
136.112
0
VERTEX
8
CONTOURS_MINEURES
10
90.117
20
135.120
0
VERTEX
8
CONTOURS_MINEURES
10
90.079
20
135.001
0
VERTEX
8
CONTOURS_MINEURES
10
90.056
20
134.944
0
VERTEX
8
CONTOURS_MINEURES
10
89.998
20
134.645
0
VERTEX
8
CONTOURS_MINEURES
10
88.659
20
130.005
0
VERTEX
8
CONTOURS_MINEURES
10
88.317
20
126.682
0
VERTEX
8
CONTOURS_MINEURES
10
88.378
20
124.998
0
VERTEX
8
CONTOURS_MINEURES
10
88.448
20
123.447
0
VERTEX
8
CONTOURS_MINEURES
10
88.251
20
120.001
0
VERTEX
8
CONTOURS_MINEURES
10
87.850
20
117.853
0
VERTEX
8
CONTOURS_MINEURES
10
87.375
20
115.005
0
VERTEX
8
CONTOURS_MINEURES
10
85.001
20
111.298
0
VERTEX
8
CONTOURS_MINEURES
10
83.782
20
109.997
0
VERTEX
8
CONTOURS_MINEURES
10
81.882
20
108.120
0
VERTEX
8
CONTOURS_MINEURES
10
80.004
20
106.076
0
VERTEX
8
CONTOURS_MINEURES
10
79.169
20
105.001
0
VERTEX
8
CONTOURS_MINEURES
10
78.484
20
103.484
0
VERTEX
8
CONTOURS_MINEURES
10
76.558
20
100.004
0
VERTEX
8
CONTOURS_MINEURES
10
76.316
20
98.685
0
VERTEX
8
CONTOURS_MINEURES
10
77.069
20
94.997
0
VERTEX
8
CONTOURS_MINEURES
10
78.075
20
93.073
0
VERTEX
8
CONTOURS_MINEURES
10
78.657
20
90.001
0
VERTEX
8
CONTOURS_MINEURES
10
79.021
20
89.020
0
VERTEX
8
CONTOURS_MINEURES
10
80.004
20
88.534
0
VERTEX
8
CONTOURS_MINEURES
10
83.070
20
85.004
0
VERTEX
8
CONTOURS_MINEURES
10
83.600
20
83.600
0
VERTEX
8
CONTOURS_MINEURES
10
85.001
20
82.766
0
VERTEX
8
CONTOURS_MINEURES
10
88.592
20
79.997
0
VERTEX
8
CONTOURS_MINEURES
10
89.998
20
78.828
0
VERTEX
8
CONTOURS_MINEURES
10
92.607
20
77.609
0
VERTEX
8
CONTOURS_MINEURES
10
93.545
20
75.000
0
VERTEX
8
CONTOURS_MINEURES
10
93.887
20
73.892
0
VERTEX
8
CONTOURS_MINEURES
10
94.996
20
73.138
0
VERTEX
8
CONTOURS_MINEURES
10
96.912
20
71.916
0
VERTEX
8
CONTOURS_MINEURES
10
97.663
20
70.004
0
VERTEX
8
CONTOURS_MINEURES
10
98.425
20
68.425
0
VERTEX
8
CONTOURS_MINEURES
10
100.004
20
67.445
0
VERTEX
8
CONTOURS_MINEURES
10
101.598
20
66.594
0
VERTEX
8
CONTOURS_MINEURES
10
102.408
20
64.996
0
VERTEX
8
CONTOURS_MINEURES
10
105.001
20
61.961
0
VERTEX
8
CONTOURS_MINEURES
10
106.153
20
61.152
0
VERTEX
8
CONTOURS_MINEURES
10
106.752
20
60.000
0
VERTEX
8
CONTOURS_MINEURES
10
108.406
20
56.596
0
VERTEX
8
CONTOURS_MINEURES
10
109.098
20
55.004
0
VERTEX
8
CONTOURS_MINEURES
10
108.941
20
53.944
0
VERTEX
8
CONTOURS_MINEURES
10
109.575
20
49.996
0
VERTEX
8
CONTOURS_MINEURES
10
109.508
20
49.506
0
VERTEX
8
CONTOURS_MINEURES
10
109.741
20
45.000
0
VERTEX
8
CONTOURS_MINEURES
10
109.721
20
44.722
0
VERTEX
8
CONTOURS_MINEURES
10
109.165
20
40.003
0
VERTEX
8
CONTOURS_MINEURES
10
108.483
20
36.515
0
VERTEX
8
CONTOURS_MINEURES
10
108.254
20
34.996
0
VERTEX
8
CONTOURS_MINEURES
10
107.594
20
32.404
0
VERTEX
8
CONTOURS_MINEURES
10
106.145
20
29.999
0
VERTEX
8
CONTOURS_MINEURES
10
105.001
20
26.835
0
VERTEX
8
CONTOURS_MINEURES
10
104.543
20
25.461
0
VERTEX
8
CONTOURS_MINEURES
10
103.923
20
25.003
0
VERTEX
8
CONTOURS_MINEURES
10
101.518
20
23.486
0
VERTEX
8
CONTOURS_MINEURES
10
100.004
20
22.872
0
VERTEX
8
CONTOURS_MINEURES
10
98.413
20
21.586
0
VERTEX
8
CONTOURS_MINEURES
10
96.784
20
19.996
0
VERTEX
8
CONTOURS_MINEURES
10
96.513
20
18.482
0
VERTEX
8
CONTOURS_MINEURES
10
95.137
20
14.999
0
VERTEX
8
CONTOURS_MINEURES
10
95.334
20
10.340
0
VERTEX
8
CONTOURS_MINEURES
10
95.420
20
10.003
0
VERTEX
8
CONTOURS_MINEURES
10
95.830
20
9.168
0
VERTEX
8
CONTOURS_MINEURES
10
96.874
20
4.995
0
VERTEX
8
CONTOURS_MINEURES
10
95.965
20
0.966
0
VERTEX
8
CONTOURS_MINEURES
10
96.302
20
-0.001
0
SEQEND
0
POLYLINE
8
CONTOURS_MINEURES
66
1
70
0
0
VERTEX
8
CONTOURS_MINEURES
10
0.004
20
166.942
0
VERTEX
8
CONTOURS_MINEURES
10
1.759
20
166.756
0
VERTEX
8
CONTOURS_MINEURES
10
5.002
20
165.516
0
VERTEX
8
CONTOURS_MINEURES
10
5.462
20
165.462
0
VERTEX
8
CONTOURS_MINEURES
10
7.334
20
165.002
0
VERTEX
8
CONTOURS_MINEURES
10
9.999
20
164.513
0
VERTEX
8
CONTOURS_MINEURES
10
14.350
20
164.354
0
VERTEX
8
CONTOURS_MINEURES
10
14.996
20
164.361
0
VERTEX
8
CONTOURS_MINEURES
10
15.721
20
164.277
0
VERTEX
8
CONTOURS_MINEURES
10
20.004
20
163.779
0
VERTEX
8
CONTOURS_MINEURES
10
21.548
20
163.456
0
VERTEX
8
CONTOURS_MINEURES
10
25.002
20
164.898
0
VERTEX
8
CONTOURS_MINEURES
10
28.852
20
163.853
0
VERTEX
8
CONTOURS_MINEURES
10
29.999
20
163.444
0
VERTEX
8
CONTOURS_MINEURES
10
32.037
20
162.037
0
VERTEX
8
CONTOURS_MINEURES
10
34.996
20
161.368
0
VERTEX
8
CONTOURS_MINEURES
10
38.691
20
161.308
0
VERTEX
8
CONTOURS_MINEURES
10
40.004
20
160.984
0
VERTEX
8
CONTOURS_MINEURES
10
40.864
20
160.856
0
VERTEX
8
CONTOURS_MINEURES
10
42.860
20
159.994
0
VERTEX
8
CONTOURS_MINEURES
10
45.001
20
158.863
0
VERTEX
8
CONTOURS_MINEURES
10
46.429
20
158.567
0
VERTEX
8
CONTOURS_MINEURES
10
49.999
20
156.849
0
VERTEX
8
CONTOURS_MINEURES
10
53.485
20
158.484
0
VERTEX
8
CONTOURS_MINEURES
10
54.996
20
159.458
0
VERTEX
8
CONTOURS_MINEURES
10
55.539
20
159.994
0
VERTEX
8
CONTOURS_MINEURES
10
57.600
20
162.598
0
VERTEX
8
CONTOURS_MINEURES
10
59.575
20
165.002
0
VERTEX
8
CONTOURS_MINEURES
10
59.738
20
165.267
0
VERTEX
8
CONTOURS_MINEURES
10
60.004
20
165.368
0
VERTEX
8
CONTOURS_MINEURES
10
60.635
20
165.633
0
VERTEX
8
CONTOURS_MINEURES
10
65.001
20
166.543
0
VERTEX
8
CONTOURS_MINEURES
10
68.608
20
166.392
0
VERTEX
8
CONTOURS_MINEURES
10
69.999
20
166.667
0
VERTEX
8
CONTOURS_MINEURES
10
71.331
20
166.334
0
VERTEX
8
CONTOURS_MINEURES
10
74.996
20
165.557
0
VERTEX
8
CONTOURS_MINEURES
10
76.055
20
165.002
0
VERTEX
8
CONTOURS_MINEURES
10
78.249
20
163.247
0
VERTEX
8
CONTOURS_MINEURES
10
80.004
20
162.498
0
VERTEX
8
CONTOURS_MINEURES
10
81.370
20
161.363
0
VERTEX
8
CONTOURS_MINEURES
10
83.256
20
159.994
0
VERTEX
8
CONTOURS_MINEURES
10
84.129
20
159.122
0
VERTEX
8
CONTOURS_MINEURES
10
85.001
20
158.716
0
VERTEX
8
CONTOURS_MINEURES
10
88.055
20
156.941
0
VERTEX
8
CONTOURS_MINEURES
10
89.998
20
155.750
0
VERTEX
8
CONTOURS_MINEURES
10
91.553
20
154.998
0
VERTEX
8
CONTOURS_MINEURES
10
93.613
20
153.615
0
VERTEX
8
CONTOURS_MINEURES
10
94.996
20
152.328
0
VERTEX
8
CONTOURS_MINEURES
10
97.873
20
150.002
0
VERTEX
8
CONTOURS_MINEURES
10
100.004
20
147.226
0
VERTEX
8
CONTOURS_MINEURES
10
100.711
20
145.713
0
VERTEX
8
CONTOURS_MINEURES
10
100.820
20
145.005
0
VERTEX
8
CONTOURS_MINEURES
10
100.540
20
144.468
0
VERTEX
8
CONTOURS_MINEURES
10
100.004
20
140.788
0
VERTEX
8
CONTOURS_MINEURES
10
99.880
20
139.998
0
VERTEX
8
CONTOURS_MINEURES
10
98.297
20
136.704
0
VERTEX
8
CONTOURS_MINEURES
10
97.806
20
135.001
0
VERTEX
8
CONTOURS_MINEURES
10
96.571
20
131.577
0
VERTEX
8
CONTOURS_MINEURES
10
95.950
20
130.005
0
VERTEX
8
CONTOURS_MINEURES
10
95.821
20
129.180
0
VERTEX
8
CONTOURS_MINEURES
10
95.386
20
124.998
0
VERTEX
8
CONTOURS_MINEURES
10
95.099
20
120.104
0
VERTEX
8
CONTOURS_MINEURES
10
95.092
20
120.001
0
VERTEX
8
CONTOURS_MINEURES
10
95.072
20
119.925
0
VERTEX
8
CONTOURS_MINEURES
10
94.996
20
119.547
0
VERTEX
8
CONTOURS_MINEURES
10
94.098
20
115.005
0
VERTEX
8
CONTOURS_MINEURES
10
93.787
20
113.793
0
VERTEX
8
CONTOURS_MINEURES
10
93.913
20
109.997
0
VERTEX
8
CONTOURS_MINEURES
10
92.966
20
107.967
0
VERTEX
8
CONTOURS_MINEURES
10
94.996
20
105.186
0
VERTEX
8
CONTOURS_MINEURES
10
95.028
20
105.033
0
VERTEX
8
CONTOURS_MINEURES
10
95.067
20
105.001
0
VERTEX
8
CONTOURS_MINEURES
10
97.500
20
102.503
0
VERTEX
8
CONTOURS_MINEURES
10
99.753
20
100.004
0
VERTEX
8
CONTOURS_MINEURES
10
100.004
20
99.754
0
VERTEX
8
CONTOURS_MINEURES
10
102.641
20
94.997
0
VERTEX
8
CONTOURS_MINEURES
10
101.140
20
91.136
0
VERTEX
8
CONTOURS_MINEURES
10
100.288
20
90.001
0
VERTEX
8
CONTOURS_MINEURES
10
100.142
20
89.863
0
VERTEX
8
CONTOURS_MINEURES
10
100.004
20
88.686
0
VERTEX
8
CONTOURS_MINEURES
10
98.251
20
86.753
0
VERTEX
8
CONTOURS_MINEURES
10
98.373
20
85.004
0
VERTEX
8
CONTOURS_MINEURES
10
99.043
20
84.044
0
VERTEX
8
CONTOURS_MINEURES
10
99.613
20
79.997
0
VERTEX
8
CONTOURS_MINEURES
10
99.827
20
79.821
0
VERTEX
8
CONTOURS_MINEURES
10
100.004
20
79.262
0
VERTEX
8
CONTOURS_MINEURES
10
100.672
20
75.668
0
VERTEX
8
CONTOURS_MINEURES
10
101.145
20
75.000
0
VERTEX
8
CONTOURS_MINEURES
10
105.001
20
70.467
0
VERTEX
8
CONTOURS_MINEURES
10
105.343
20
70.004
0
VERTEX
8
CONTOURS_MINEURES
10
107.167
20
67.166
0
VERTEX
8
CONTOURS_MINEURES
10
109.683
20
64.996
0
VERTEX
8
CONTOURS_MINEURES
10
109.868
20
64.866
0
VERTEX
8
CONTOURS_MINEURES
10
109.998
20
64.616
0
VERTEX
8
CONTOURS_MINEURES
10
113.692
20
60.000
0
VERTEX
8
CONTOURS_MINEURES
10
114.250
20
59.254
0
VERTEX
8
CONTOURS_MINEURES
10
114.996
20
58.216
0
VERTEX
8
CONTOURS_MINEURES
10
115.990
20
55.996
0
VERTEX
8
CONTOURS_MINEURES
10
116.465
20
55.004
0
VERTEX
8
CONTOURS_MINEURES
10
117.142
20
52.858
0
VERTEX
8
CONTOURS_MINEURES
10
117.895
20
49.996
0
VERTEX
8
CONTOURS_MINEURES
10
118.011
20
48.009
0
VERTEX
8
CONTOURS_MINEURES
10
119.742
20
45.000
0
VERTEX
8
CONTOURS_MINEURES
10
120.004
20
44.118
0
VERTEX
8
CONTOURS_MINEURES
10
121.220
20
41.220
0
VERTEX
8
CONTOURS_MINEURES
10
122.548
20
40.003
0
VERTEX
8
CONTOURS_MINEURES
10
121.032
20
36.027
0
VERTEX
8
CONTOURS_MINEURES
10
121.132
20
34.996
0
VERTEX
8
CONTOURS_MINEURES
10
120.664
20
34.336
0
VERTEX
8
CONTOURS_MINEURES
10
120.004
20
29.999
0
VERTEX
8
CONTOURS_MINEURES
10
119.002
20
26.002
0
VERTEX
8
CONTOURS_MINEURES
10
118.818
20
25.003
0
VERTEX
8
CONTOURS_MINEURES
10
117.631
20
22.631
0
VERTEX
8
CONTOURS_MINEURES
10
115.732
20
19.996
0
VERTEX
8
CONTOURS_MINEURES
10
115.504
20
19.488
0
VERTEX
8
CONTOURS_MINEURES
10
114.996
20
18.242
0
VERTEX
8
CONTOURS_MINEURES
10
112.013
20
14.999
0
VERTEX
8
CONTOURS_MINEURES
10
111.085
20
13.913
0
VERTEX
8
CONTOURS_MINEURES
10
109.998
20
12.160
0
VERTEX
8
CONTOURS_MINEURES
10
108.881
20
11.120
0
VERTEX
8
CONTOURS_MINEURES
10
108.881
20
10.003
0
VERTEX
8
CONTOURS_MINEURES
10
109.458
20
5.537
0
VERTEX
8
CONTOURS_MINEURES
10
109.568
20
4.995
0
VERTEX
8
CONTOURS_MINEURES
10
109.725
20
4.722
0
VERTEX
8
CONTOURS_MINEURES
10
109.998
20
4.508
0
VERTEX
8
CONTOURS_MINEURES
10
113.186
20
-0.001
0
SEQEND
0
POLYLINE
8
CONTOURS_MINEURES
66
1
70
0
0
VERTEX
8
CONTOURS_MINEURES
10
0.004
20
183.853
0
VERTEX
8
CONTOURS_MINEURES
10
2.720
20
182.283
0
VERTEX
8
CONTOURS_MINEURES
10
5.002
20
181.062
0
VERTEX
8
CONTOURS_MINEURES
10
6.281
20
181.282
0
VERTEX
8
CONTOURS_MINEURES
10
9.999
20
180.880
0
VERTEX
8
CONTOURS_MINEURES
10
12.824
20
180.002
0
VERTEX
8
CONTOURS_MINEURES
10
14.312
20
179.316
0
VERTEX
8
CONTOURS_MINEURES
10
14.996
20
178.781
0
VERTEX
8
CONTOURS_MINEURES
10
16.723
20
178.276
0
VERTEX
8
CONTOURS_MINEURES
10
20.004
20
176.458
0
VERTEX
8
CONTOURS_MINEURES
10
21.148
20
176.141
0
VERTEX
8
CONTOURS_MINEURES
10
25.002
20
176.556
0
VERTEX
8
CONTOURS_MINEURES
10
28.902
20
176.094
0
VERTEX
8
CONTOURS_MINEURES
10
29.999
20
176.031
0
VERTEX
8
CONTOURS_MINEURES
10
30.926
20
175.924
0
VERTEX
8
CONTOURS_MINEURES
10
33.101
20
174.995
0
VERTEX
8
CONTOURS_MINEURES
10
34.534
20
174.533
0
VERTEX
8
CONTOURS_MINEURES
10
34.996
20
174.340
0
VERTEX
8
CONTOURS_MINEURES
10
35.818
20
174.174
0
VERTEX
8
CONTOURS_MINEURES
10
40.004
20
173.073
0
VERTEX
8
CONTOURS_MINEURES
10
42.654
20
172.345
0
VERTEX
8
CONTOURS_MINEURES
10
45.001
20
171.758
0
VERTEX
8
CONTOURS_MINEURES
10
46.582
20
171.579
0
VERTEX
8
CONTOURS_MINEURES
10
49.999
20
170.962
0
VERTEX
8
CONTOURS_MINEURES
10
50.974
20
170.973
0
VERTEX
8
CONTOURS_MINEURES
10
52.664
20
169.998
0
VERTEX
8
CONTOURS_MINEURES
10
54.996
20
169.185
0
VERTEX
8
CONTOURS_MINEURES
10
55.306
20
169.689
0
VERTEX
8
CONTOURS_MINEURES
10
56.127
20
169.998
0
VERTEX
8
CONTOURS_MINEURES
10
60.004
20
171.608
0
VERTEX
8
CONTOURS_MINEURES
10
62.319
20
172.680
0
VERTEX
8
CONTOURS_MINEURES
10
65.001
20
173.499
0
VERTEX
8
CONTOURS_MINEURES
10
69.642
20
174.638
0
VERTEX
8
CONTOURS_MINEURES
10
69.999
20
174.685
0
VERTEX
8
CONTOURS_MINEURES
10
70.370
20
174.623
0
VERTEX
8
CONTOURS_MINEURES
10
74.996
20
174.053
0
VERTEX
8
CONTOURS_MINEURES
10
77.933
20
172.928
0
VERTEX
8
CONTOURS_MINEURES
10
80.004
20
172.071
0
VERTEX
8
CONTOURS_MINEURES
10
84.309
20
169.998
0
VERTEX
8
CONTOURS_MINEURES
10
85.001
20
169.549
0
VERTEX
8
CONTOURS_MINEURES
10
86.978
20
166.979
0
VERTEX
8
CONTOURS_MINEURES
10
89.998
20
165.518
0
VERTEX
8
CONTOURS_MINEURES
10
90.986
20
165.002
0
VERTEX
8
CONTOURS_MINEURES
10
93.249
20
163.252
0
VERTEX
8
CONTOURS_MINEURES
10
94.996
20
162.555
0
VERTEX
8
CONTOURS_MINEURES
10
98.956
20
159.994
0
VERTEX
8
CONTOURS_MINEURES
10
99.522
20
159.514
0
VERTEX
8
CONTOURS_MINEURES
10
100.004
20
159.323
0
VERTEX
8
CONTOURS_MINEURES
10
103.915
20
156.084
0
VERTEX
8
CONTOURS_MINEURES
10
105.001
20
155.156
0
VERTEX
8
CONTOURS_MINEURES
10
105.076
20
155.073
0
VERTEX
8
CONTOURS_MINEURES
10
105.153
20
154.998
0
VERTEX
8
CONTOURS_MINEURES
10
106.087
20
153.912
0
VERTEX
8
CONTOURS_MINEURES
10
109.255
20
150.002
0
VERTEX
8
CONTOURS_MINEURES
10
109.998
20
146.900
0
VERTEX
8
CONTOURS_MINEURES
10
110.397
20
145.404
0
VERTEX
8
CONTOURS_MINEURES
10
110.537
20
145.005
0
VERTEX
8
CONTOURS_MINEURES
10
110.415
20
144.588
0
VERTEX
8
CONTOURS_MINEURES
10
109.998
20
143.904
0
VERTEX
8
CONTOURS_MINEURES
10
108.160
20
139.998
0
VERTEX
8
CONTOURS_MINEURES
10
105.762
20
135.762
0
VERTEX
8
CONTOURS_MINEURES
10
105.331
20
135.001
0
VERTEX
8
CONTOURS_MINEURES
10
105.001
20
134.463
0
VERTEX
8
CONTOURS_MINEURES
10
103.530
20
131.476
0
VERTEX
8
CONTOURS_MINEURES
10
102.916
20
130.005
0
VERTEX
8
CONTOURS_MINEURES
10
102.502
20
127.501
0
VERTEX
8
CONTOURS_MINEURES
10
102.045
20
124.998
0
VERTEX
8
CONTOURS_MINEURES
10
101.923
20
123.078
0
VERTEX
8
CONTOURS_MINEURES
10
101.681
20
120.001
0
VERTEX
8
CONTOURS_MINEURES
10
100.259
20
115.260
0
VERTEX
8
CONTOURS_MINEURES
10
100.223
20
115.005
0
VERTEX
8
CONTOURS_MINEURES
10
100.450
20
114.558
0
VERTEX
8
CONTOURS_MINEURES
10
102.400
20
109.997
0
VERTEX
8
CONTOURS_MINEURES
10
105.001
20
106.927
0
VERTEX
8
CONTOURS_MINEURES
10
106.380
20
105.001
0
VERTEX
8
CONTOURS_MINEURES
10
108.009
20
103.012
0
VERTEX
8
CONTOURS_MINEURES
10
109.567
20
100.004
0
VERTEX
8
CONTOURS_MINEURES
10
109.691
20
99.696
0
VERTEX
8
CONTOURS_MINEURES
10
109.998
20
99.121
0
VERTEX
8
CONTOURS_MINEURES
10
111.674
20
94.997
0
VERTEX
8
CONTOURS_MINEURES
10
109.998
20
90.625
0
VERTEX
8
CONTOURS_MINEURES
10
109.789
20
90.210
0
VERTEX
8
CONTOURS_MINEURES
10
109.679
20
90.001
0
VERTEX
8
CONTOURS_MINEURES
10
107.785
20
87.217
0
VERTEX
8
CONTOURS_MINEURES
10
106.026
20
85.004
0
VERTEX
8
CONTOURS_MINEURES
10
105.572
20
80.569
0
VERTEX
8
CONTOURS_MINEURES
10
105.481
20
79.997
0
VERTEX
8
CONTOURS_MINEURES
10
105.675
20
79.323
0
VERTEX
8
CONTOURS_MINEURES
10
107.849
20
75.000
0
VERTEX
8
CONTOURS_MINEURES
10
109.998
20
72.272
0
VERTEX
8
CONTOURS_MINEURES
10
111.486
20
71.491
0
VERTEX
8
CONTOURS_MINEURES
10
111.869
20
70.004
0
VERTEX
8
CONTOURS_MINEURES
10
114.996
20
65.717
0
VERTEX
8
CONTOURS_MINEURES
10
115.573
20
65.574
0
VERTEX
8
CONTOURS_MINEURES
10
115.773
20
64.996
0
VERTEX
8
CONTOURS_MINEURES
10
117.500
20
62.498
0
VERTEX
8
CONTOURS_MINEURES
10
119.524
20
60.000
0
VERTEX
8
CONTOURS_MINEURES
10
119.672
20
59.669
0
VERTEX
8
CONTOURS_MINEURES
10
120.004
20
58.978
0
VERTEX
8
CONTOURS_MINEURES
10
124.862
20
55.004
0
VERTEX
8
CONTOURS_MINEURES
10
124.924
20
54.927
0
VERTEX
8
CONTOURS_MINEURES
10
125.001
20
54.717
0
VERTEX
8
CONTOURS_MINEURES
10
127.999
20
49.996
0
VERTEX
8
CONTOURS_MINEURES
10
129.998
20
46.561
0
VERTEX
8
CONTOURS_MINEURES
10
130.566
20
45.568
0
VERTEX
8
CONTOURS_MINEURES
10
130.639
20
45.000
0
VERTEX
8
CONTOURS_MINEURES
10
130.702
20
44.296
0
VERTEX
8
CONTOURS_MINEURES
10
132.517
20
40.003
0
VERTEX
8
CONTOURS_MINEURES
10
132.517
20
37.520
0
VERTEX
8
CONTOURS_MINEURES
10
132.438
20
34.996
0
VERTEX
8
CONTOURS_MINEURES
10
132.457
20
32.537
0
VERTEX
8
CONTOURS_MINEURES
10
131.629
20
29.999
0
VERTEX
8
CONTOURS_MINEURES
10
130.491
20
25.496
0
VERTEX
8
CONTOURS_MINEURES
10
130.435
20
25.003
0
VERTEX
8
CONTOURS_MINEURES
10
130.447
20
24.554
0
VERTEX
8
CONTOURS_MINEURES
10
130.201
20
19.996
0
VERTEX
8
CONTOURS_MINEURES
10
129.998
20
19.790
0
VERTEX
8
CONTOURS_MINEURES
10
127.083
20
17.914
0
VERTEX
8
CONTOURS_MINEURES
10
125.001
20
17.250
0
VERTEX
8
CONTOURS_MINEURES
10
121.800
20
14.999
0
VERTEX
8
CONTOURS_MINEURES
10
120.004
20
11.517
0
VERTEX
8
CONTOURS_MINEURES
10
119.714
20
10.292
0
VERTEX
8
CONTOURS_MINEURES
10
119.586
20
10.003
0
VERTEX
8
CONTOURS_MINEURES
10
119.568
20
9.567
0
VERTEX
8
CONTOURS_MINEURES
10
120.004
20
7.057
0
VERTEX
8
CONTOURS_MINEURES
10
120.878
20
4.995
0
VERTEX
8
CONTOURS_MINEURES
10
124.376
20
0.623
0
VERTEX
8
CONTOURS_MINEURES
10
124.876
20
-0.001
0
SEQEND
0
POLYLINE
8
CONTOURS_MINEURES
66
1
70
0
0
VERTEX
8
CONTOURS_MINEURES
10
0.004
20
197.981
0
VERTEX
8
CONTOURS_MINEURES
10
1.785
20
196.783
0
VERTEX
8
CONTOURS_MINEURES
10
5.002
20
195.944
0
VERTEX
8
CONTOURS_MINEURES
10
6.667
20
195.003
0
VERTEX
8
CONTOURS_MINEURES
10
8.194
20
193.194
0
VERTEX
8
CONTOURS_MINEURES
10
9.999
20
193.116
0
VERTEX
8
CONTOURS_MINEURES
10
12.214
20
192.215
0
VERTEX
8
CONTOURS_MINEURES
10
14.996
20
191.397
0
VERTEX
8
CONTOURS_MINEURES
10
19.378
20
189.995
0
VERTEX
8
CONTOURS_MINEURES
10
20.004
20
189.825
0
VERTEX
8
CONTOURS_MINEURES
10
24.210
20
189.204
0
VERTEX
8
CONTOURS_MINEURES
10
25.002
20
188.885
0
VERTEX
8
CONTOURS_MINEURES
10
26.482
20
188.515
0
VERTEX
8
CONTOURS_MINEURES
10
29.999
20
187.433
0
VERTEX
8
CONTOURS_MINEURES
10
32.737
20
187.257
0
VERTEX
8
CONTOURS_MINEURES
10
34.996
20
186.894
0
VERTEX
8
CONTOURS_MINEURES
10
36.987
20
186.985
0
VERTEX
8
CONTOURS_MINEURES
10
40.004
20
186.833
0
VERTEX
8
CONTOURS_MINEURES
10
43.336
20
186.664
0
VERTEX
8
CONTOURS_MINEURES
10
45.001
20
186.710
0
VERTEX
8
CONTOURS_MINEURES
10
49.363
20
185.635
0
VERTEX
8
CONTOURS_MINEURES
10
49.999
20
185.436
0
VERTEX
8
CONTOURS_MINEURES
10
50.272
20
185.272
0
VERTEX
8
CONTOURS_MINEURES
10
51.059
20
184.999
0
VERTEX
8
CONTOURS_MINEURES
10
54.996
20
183.395
0
VERTEX
8
CONTOURS_MINEURES
10
58.126
20
183.125
0
VERTEX
8
CONTOURS_MINEURES
10
60.004
20
181.888
0
VERTEX
8
CONTOURS_MINEURES
10
61.319
20
181.317
0
VERTEX
8
CONTOURS_MINEURES
10
65.001
20
180.256
0
VERTEX
8
CONTOURS_MINEURES
10
65.153
20
180.154
0
VERTEX
8
CONTOURS_MINEURES
10
69.999
20
180.557
0
VERTEX
8
CONTOURS_MINEURES
10
71.998
20
180.002
0
VERTEX
8
CONTOURS_MINEURES
10
74.566
20
179.571
0
VERTEX
8
CONTOURS_MINEURES
10
74.996
20
179.533
0
VERTEX
8
CONTOURS_MINEURES
10
75.644
20
179.354
0
VERTEX
8
CONTOURS_MINEURES
10
80.004
20
177.880
0
VERTEX
8
CONTOURS_MINEURES
10
81.905
20
176.900
0
VERTEX
8
CONTOURS_MINEURES
10
85.001
20
175.598
0
VERTEX
8
CONTOURS_MINEURES
10
85.614
20
174.995
0
VERTEX
8
CONTOURS_MINEURES
10
89.998
20
171.198
0
VERTEX
8
CONTOURS_MINEURES
10
90.735
20
170.735
0
VERTEX
8
CONTOURS_MINEURES
10
91.813
20
169.998
0
VERTEX
8
CONTOURS_MINEURES
10
94.996
20
167.789
0
VERTEX
8
CONTOURS_MINEURES
10
99.473
20
165.002
0
VERTEX
8
CONTOURS_MINEURES
10
100.004
20
164.597
0
VERTEX
8
CONTOURS_MINEURES
10
102.397
20
162.393
0
VERTEX
8
CONTOURS_MINEURES
10
105.001
20
160.955
0
VERTEX
8
CONTOURS_MINEURES
10
106.343
20
159.994
0
VERTEX
8
CONTOURS_MINEURES
10
108.077
20
158.074
0
VERTEX
8
CONTOURS_MINEURES
10
109.998
20
156.210
0
VERTEX
8
CONTOURS_MINEURES
10
111.295
20
154.998
0
VERTEX
8
CONTOURS_MINEURES
10
114.996
20
151.921
0
VERTEX
8
CONTOURS_MINEURES
10
116.458
20
151.461
0
VERTEX
8
CONTOURS_MINEURES
10
117.238
20
150.002
0
VERTEX
8
CONTOURS_MINEURES
10
117.134
20
147.869
0
VERTEX
8
CONTOURS_MINEURES
10
117.633
20
145.005
0
VERTEX
8
CONTOURS_MINEURES
10
117.231
20
142.233
0
VERTEX
8
CONTOURS_MINEURES
10
116.907
20
139.998
0
VERTEX
8
CONTOURS_MINEURES
10
116.738
20
138.259
0
VERTEX
8
CONTOURS_MINEURES
10
116.241
20
135.001
0
VERTEX
8
CONTOURS_MINEURES
10
116.316
20
131.322
0
VERTEX
8
CONTOURS_MINEURES
10
116.125
20
130.005
0
VERTEX
8
CONTOURS_MINEURES
10
116.237
20
126.239
0
VERTEX
8
CONTOURS_MINEURES
10
116.529
20
124.998
0
VERTEX
8
CONTOURS_MINEURES
10
118.752
20
121.250
0
VERTEX
8
CONTOURS_MINEURES
10
118.650
20
120.001
0
VERTEX
8
CONTOURS_MINEURES
10
116.848
20
118.153
0
VERTEX
8
CONTOURS_MINEURES
10
116.513
20
115.005
0
VERTEX
8
CONTOURS_MINEURES
10
116.296
20
113.704
0
VERTEX
8
CONTOURS_MINEURES
10
116.011
20
109.997
0
VERTEX
8
CONTOURS_MINEURES
10
116.198
20
106.200
0
VERTEX
8
CONTOURS_MINEURES
10
116.372
20
105.001
0
VERTEX
8
CONTOURS_MINEURES
10
117.030
20
102.034
0
VERTEX
8
CONTOURS_MINEURES
10
117.195
20
100.004
0
VERTEX
8
CONTOURS_MINEURES
10
117.587
20
97.588
0
VERTEX
8
CONTOURS_MINEURES
10
120.004
20
95.386
0
VERTEX
8
CONTOURS_MINEURES
10
120.628
20
94.997
0
VERTEX
8
CONTOURS_MINEURES
10
122.086
20
92.082
0
VERTEX
8
CONTOURS_MINEURES
10
125.001
20
91.288
0
VERTEX
8
CONTOURS_MINEURES
10
128.035
20
90.001
0
VERTEX
8
CONTOURS_MINEURES
10
128.381
20
88.384
0
VERTEX
8
CONTOURS_MINEURES
10
129.998
20
88.660
0
VERTEX
8
CONTOURS_MINEURES
10
130.912
20
85.918
0
VERTEX
8
CONTOURS_MINEURES
10
134.995
20
85.319
0
VERTEX
8
CONTOURS_MINEURES
10
135.124
20
85.133
0
VERTEX
8
CONTOURS_MINEURES
10
135.277
20
85.004
0
VERTEX
8
CONTOURS_MINEURES
10
136.002
20
81.003
0
VERTEX
8
CONTOURS_MINEURES
10
140.003
20
80.249
0
VERTEX
8
CONTOURS_MINEURES
10
140.222
20
79.997
0
VERTEX
8
CONTOURS_MINEURES
10
140.186
20
79.814
0
VERTEX
8
CONTOURS_MINEURES
10
140.003
20
78.916
0
VERTEX
8
CONTOURS_MINEURES
10
137.456
20
75.000
0
VERTEX
8
CONTOURS_MINEURES
10
135.835
20
74.163
0
VERTEX
8
CONTOURS_MINEURES
10
134.995
20
71.821
0
VERTEX
8
CONTOURS_MINEURES
10
133.487
20
70.004
0
VERTEX
8
CONTOURS_MINEURES
10
132.030
20
67.968
0
VERTEX
8
CONTOURS_MINEURES
10
132.376
20
64.996
0
VERTEX
8
CONTOURS_MINEURES
10
133.026
20
63.027
0
VERTEX
8
CONTOURS_MINEURES
10
133.513
20
60.000
0
VERTEX
8
CONTOURS_MINEURES
10
134.024
20
59.028
0
VERTEX
8
CONTOURS_MINEURES
10
134.995
20
58.269
0
VERTEX
8
CONTOURS_MINEURES
10
136.852
20
55.004
0
VERTEX
8
CONTOURS_MINEURES
10
137.607
20
52.607
0
VERTEX
8
CONTOURS_MINEURES
10
140.003
20
51.054
0
VERTEX
8
CONTOURS_MINEURES
10
140.545
20
50.538
0
VERTEX
8
CONTOURS_MINEURES
10
141.166
20
49.996
0
VERTEX
8
CONTOURS_MINEURES
10
142.141
20
47.137
0
VERTEX
8
CONTOURS_MINEURES
10
143.701
20
45.000
0
VERTEX
8
CONTOURS_MINEURES
10
143.727
20
43.726
0
VERTEX
8
CONTOURS_MINEURES
10
145.001
20
41.831
0
VERTEX
8
CONTOURS_MINEURES
10
145.641
20
40.644
0
VERTEX
8
CONTOURS_MINEURES
10
146.596
20
40.003
0
VERTEX
8
CONTOURS_MINEURES
10
147.575
20
37.575
0
VERTEX
8
CONTOURS_MINEURES
10
149.593
20
34.996
0
VERTEX
8
CONTOURS_MINEURES
10
148.616
20
31.381
0
VERTEX
8
CONTOURS_MINEURES
10
147.758
20
29.999
0
VERTEX
8
CONTOURS_MINEURES
10
147.399
20
27.401
0
VERTEX
8
CONTOURS_MINEURES
10
148.749
20
25.003
0
VERTEX
8
CONTOURS_MINEURES
10
149.998
20
22.499
0
VERTEX
8
CONTOURS_MINEURES
10
150.687
20
20.686
0
VERTEX
8
CONTOURS_MINEURES
10
151.997
20
19.996
0
VERTEX
8
CONTOURS_MINEURES
10
150.738
20
19.255
0
VERTEX
8
CONTOURS_MINEURES
10
152.122
20
14.999
0
VERTEX
8
CONTOURS_MINEURES
10
149.998
20
10.529
0
VERTEX
8
CONTOURS_MINEURES
10
149.728
20
10.273
0
VERTEX
8
CONTOURS_MINEURES
10
149.781
20
10.003
0
VERTEX
8
CONTOURS_MINEURES
10
149.766
20
9.770
0
VERTEX
8
CONTOURS_MINEURES
10
147.411
20
4.995
0
VERTEX
8
CONTOURS_MINEURES
10
146.782
20
3.214
0
VERTEX
8
CONTOURS_MINEURES
10
146.300
20
-0.001
0
SEQEND
0
POLYLINE
8
CONTOURS_MINEURES
66
1
70
0
0
VERTEX
8
CONTOURS_MINEURES
10
170.616
20
-0.001
0
VERTEX
8
CONTOURS_MINEURES
10
170.792
20
0.793
0
VERTEX
8
CONTOURS_MINEURES
10
170.557
20
4.995
0
VERTEX
8
CONTOURS_MINEURES
10
169.998
20
9.708
0
VERTEX
8
CONTOURS_MINEURES
10
167.777
20
7.221
0
VERTEX
8
CONTOURS_MINEURES
10
165.001
20
8.361
0
VERTEX
8
CONTOURS_MINEURES
10
161.777
20
6.772
0
VERTEX
8
CONTOURS_MINEURES
10
160.003
20
5.750
0
VERTEX
8
CONTOURS_MINEURES
10
159.583
20
5.416
0
VERTEX
8
CONTOURS_MINEURES
10
159.269
20
4.995
0
VERTEX
8
CONTOURS_MINEURES
10
158.514
20
3.510
0
VERTEX
8
CONTOURS_MINEURES
10
156.583
20
-0.001
0
SEQEND
0
POLYLINE
8
CONTOURS_MINEURES
66
1
70
0
0
VERTEX
8
CONTOURS_MINEURES
10
45.611
20
199.999
0
VERTEX
8
CONTOURS_MINEURES
10
48.269
20
198.269
0
VERTEX
8
CONTOURS_MINEURES
10
49.999
20
197.429
0
VERTEX
8
CONTOURS_MINEURES
10
51.081
20
196.085
0
VERTEX
8
CONTOURS_MINEURES
10
52.879
20
195.003
0
VERTEX
8
CONTOURS_MINEURES
10
54.174
20
194.179
0
VERTEX
8
CONTOURS_MINEURES
10
54.996
20
193.799
0
VERTEX
8
CONTOURS_MINEURES
10
58.187
20
193.185
0
VERTEX
8
CONTOURS_MINEURES
10
60.004
20
192.703
0
VERTEX
8
CONTOURS_MINEURES
10
63.195
20
193.193
0
VERTEX
8
CONTOURS_MINEURES
10
65.001
20
193.696
0
VERTEX
8
CONTOURS_MINEURES
10
69.166
20
195.003
0
VERTEX
8
CONTOURS_MINEURES
10
69.665
20
195.336
0
VERTEX
8
CONTOURS_MINEURES
10
69.999
20
195.382
0
VERTEX
8
CONTOURS_MINEURES
10
70.237
20
195.240
0
VERTEX
8
CONTOURS_MINEURES
10
71.426
20
195.003
0
VERTEX
8
CONTOURS_MINEURES
10
74.996
20
193.077
0
VERTEX
8
CONTOURS_MINEURES
10
77.222
20
189.995
0
VERTEX
8
CONTOURS_MINEURES
10
78.194
20
188.189
0
VERTEX
8
CONTOURS_MINEURES
10
78.488
20
184.999
0
VERTEX
8
CONTOURS_MINEURES
10
80.004
20
184.141
0
VERTEX
8
CONTOURS_MINEURES
10
82.223
20
182.221
0
VERTEX
8
CONTOURS_MINEURES
10
85.001
20
180.108
0
VERTEX
8
CONTOURS_MINEURES
10
85.099
20
180.002
0
VERTEX
8
CONTOURS_MINEURES
10
89.998
20
175.218
0
VERTEX
8
CONTOURS_MINEURES
10
90.184
20
175.180
0
VERTEX
8
CONTOURS_MINEURES
10
90.217
20
174.995
0
VERTEX
8
CONTOURS_MINEURES
10
93.149
20
173.148
0
VERTEX
8
CONTOURS_MINEURES
10
94.996
20
171.887
0
VERTEX
8
CONTOURS_MINEURES
10
96.641
20
171.640
0
VERTEX
8
CONTOURS_MINEURES
10
97.818
20
169.998
0
VERTEX
8
CONTOURS_MINEURES
10
100.004
20
168.593
0
VERTEX
8
CONTOURS_MINEURES
10
102.601
20
167.599
0
VERTEX
8
CONTOURS_MINEURES
10
105.001
20
165.060
0
VERTEX
8
CONTOURS_MINEURES
10
105.058
20
165.059
0
VERTEX
8
CONTOURS_MINEURES
10
105.078
20
165.002
0
VERTEX
8
CONTOURS_MINEURES
10
109.998
20
161.797
0
VERTEX
8
CONTOURS_MINEURES
10
111.461
20
161.460
0
VERTEX
8
CONTOURS_MINEURES
10
111.882
20
159.994
0
VERTEX
8
CONTOURS_MINEURES
10
114.996
20
157.051
0
VERTEX
8
CONTOURS_MINEURES
10
116.835
20
156.833
0
VERTEX
8
CONTOURS_MINEURES
10
120.004
20
155.690
0
VERTEX
8
CONTOURS_MINEURES
10
123.110
20
154.998
0
VERTEX
8
CONTOURS_MINEURES
10
121.557
20
153.445
0
VERTEX
8
CONTOURS_MINEURES
10
123.418
20
150.002
0
VERTEX
8
CONTOURS_MINEURES
10
123.335
20
148.336
0
VERTEX
8
CONTOURS_MINEURES
10
122.163
20
145.005
0
VERTEX
8
CONTOURS_MINEURES
10
122.110
20
142.895
0
VERTEX
8
CONTOURS_MINEURES
10
121.701
20
139.998
0
VERTEX
8
CONTOURS_MINEURES
10
121.357
20
136.355
0
VERTEX
8
CONTOURS_MINEURES
10
121.957
20
135.001
0
VERTEX
8
CONTOURS_MINEURES
10
121.691
20
133.314
0
VERTEX
8
CONTOURS_MINEURES
10
120.753
20
130.005
0
VERTEX
8
CONTOURS_MINEURES
10
121.930
20
126.928
0
VERTEX
8
CONTOURS_MINEURES
10
121.780
20
124.998
0
VERTEX
8
CONTOURS_MINEURES
10
123.557
20
121.445
0
VERTEX
8
CONTOURS_MINEURES
10
124.370
20
120.001
0
VERTEX
8
CONTOURS_MINEURES
10
123.602
20
116.404
0
VERTEX
8
CONTOURS_MINEURES
10
123.036
20
115.005
0
VERTEX
8
CONTOURS_MINEURES
10
122.759
20
112.758
0
VERTEX
8
CONTOURS_MINEURES
10
123.235
20
109.997
0
VERTEX
8
CONTOURS_MINEURES
10
123.946
20
106.055
0
VERTEX
8
CONTOURS_MINEURES
10
124.103
20
105.001
0
VERTEX
8
CONTOURS_MINEURES
10
124.180
20
104.180
0
VERTEX
8
CONTOURS_MINEURES
10
125.001
20
102.389
0
VERTEX
8
CONTOURS_MINEURES
10
126.810
20
100.004
0
VERTEX
8
CONTOURS_MINEURES
10
129.015
20
99.019
0
VERTEX
8
CONTOURS_MINEURES
10
129.998
20
97.825
0
VERTEX
8
CONTOURS_MINEURES
10
131.619
20
96.621
0
VERTEX
8
CONTOURS_MINEURES
10
131.664
20
94.997
0
VERTEX
8
CONTOURS_MINEURES
10
133.312
20
93.314
0
VERTEX
8
CONTOURS_MINEURES
10
134.995
20
92.036
0
VERTEX
8
CONTOURS_MINEURES
10
136.592
20
90.001
0
VERTEX
8
CONTOURS_MINEURES
10
137.986
20
87.988
0
VERTEX
8
CONTOURS_MINEURES
10
140.003
20
86.293
0
VERTEX
8
CONTOURS_MINEURES
10
140.900
20
85.901
0
VERTEX
8
CONTOURS_MINEURES
10
141.279
20
85.004
0
VERTEX
8
CONTOURS_MINEURES
10
145.001
20
80.742
0
VERTEX
8
CONTOURS_MINEURES
10
145.535
20
80.532
0
VERTEX
8
CONTOURS_MINEURES
10
145.687
20
79.997
0
VERTEX
8
CONTOURS_MINEURES
10
145.001
20
76.527
0
VERTEX
8
CONTOURS_MINEURES
10
144.750
20
75.251
0
VERTEX
8
CONTOURS_MINEURES
10
144.699
20
75.000
0
VERTEX
8
CONTOURS_MINEURES
10
144.237
20
74.237
0
VERTEX
8
CONTOURS_MINEURES
10
142.404
20
70.004
0
VERTEX
8
CONTOURS_MINEURES
10
142.278
20
67.724
0
VERTEX
8
CONTOURS_MINEURES
10
140.992
20
64.996
0
VERTEX
8
CONTOURS_MINEURES
10
140.717
20
64.283
0
VERTEX
8
CONTOURS_MINEURES
10
140.003
20
62.427
0
VERTEX
8
CONTOURS_MINEURES
10
139.481
20
60.521
0
VERTEX
8
CONTOURS_MINEURES
10
139.536
20
60.000
0
VERTEX
8
CONTOURS_MINEURES
10
140.003
20
59.191
0
VERTEX
8
CONTOURS_MINEURES
10
143.261
20
55.004
0
VERTEX
8
CONTOURS_MINEURES
10
144.153
20
54.154
0
VERTEX
8
CONTOURS_MINEURES
10
145.001
20
53.413
0
VERTEX
8
CONTOURS_MINEURES
10
148.455
20
51.543
0
VERTEX
8
CONTOURS_MINEURES
10
149.998
20
51.115
0
VERTEX
8
CONTOURS_MINEURES
10
152.439
20
49.996
0
VERTEX
8
CONTOURS_MINEURES
10
154.995
20
48.775
0
VERTEX
8
CONTOURS_MINEURES
10
157.411
20
47.409
0
VERTEX
8
CONTOURS_MINEURES
10
160.003
20
46.555
0
VERTEX
8
CONTOURS_MINEURES
10
164.452
20
45.548
0
VERTEX
8
CONTOURS_MINEURES
10
165.001
20
45.424
0
VERTEX
8
CONTOURS_MINEURES
10
165.495
20
45.494
0
VERTEX
8
CONTOURS_MINEURES
10
169.998
20
46.131
0
VERTEX
8
CONTOURS_MINEURES
10
173.425
20
48.426
0
VERTEX
8
CONTOURS_MINEURES
10
174.995
20
48.033
0
SEQEND
0
POLYLINE
8
CONTOURS_MINEURES
66
1
70
0
0
VERTEX
8
CONTOURS_MINEURES
10
95.695
20
199.999
0
VERTEX
8
CONTOURS_MINEURES
10
97.131
20
197.133
0
VERTEX
8
CONTOURS_MINEURES
10
98.439
20
195.003
0
VERTEX
8
CONTOURS_MINEURES
10
100.004
20
193.311
0
VERTEX
8
CONTOURS_MINEURES
10
101.584
20
191.578
0
VERTEX
8
CONTOURS_MINEURES
10
104.624
20
189.995
0
VERTEX
8
CONTOURS_MINEURES
10
104.668
20
189.662
0
VERTEX
8
CONTOURS_MINEURES
10
105.001
20
189.611
0
VERTEX
8
CONTOURS_MINEURES
10
106.967
20
186.964
0
VERTEX
8
CONTOURS_MINEURES
10
109.998
20
186.298
0
VERTEX
8
CONTOURS_MINEURES
10
112.705
20
184.999
0
VERTEX
8
CONTOURS_MINEURES
10
113.425
20
183.428
0
VERTEX
8
CONTOURS_MINEURES
10
114.996
20
183.254
0
VERTEX
8
CONTOURS_MINEURES
10
118.662
20
180.002
0
VERTEX
8
CONTOURS_MINEURES
10
118.686
20
178.684
0
VERTEX
8
CONTOURS_MINEURES
10
120.004
20
178.333
0
VERTEX
8
CONTOURS_MINEURES
10
122.346
20
177.655
0
VERTEX
8
CONTOURS_MINEURES
10
125.001
20
176.161
0
VERTEX
8
CONTOURS_MINEURES
10
125.709
20
175.704
0
VERTEX
8
CONTOURS_MINEURES
10
129.046
20
174.995
0
VERTEX
8
CONTOURS_MINEURES
10
129.998
20
174.350
0
VERTEX
8
CONTOURS_MINEURES
10
133.549
20
173.548
0
VERTEX
8
CONTOURS_MINEURES
10
134.995
20
172.959
0
VERTEX
8
CONTOURS_MINEURES
10
136.567
20
171.566
0
VERTEX
8
CONTOURS_MINEURES
10
140.003
20
170.268
0
VERTEX
8
CONTOURS_MINEURES
10
143.647
20
171.352
0
VERTEX
8
CONTOURS_MINEURES
10
145.001
20
171.013
0
VERTEX
8
CONTOURS_MINEURES
10
145.576
20
170.573
0
VERTEX
8
CONTOURS_MINEURES
10
149.998
20
170.368
0
VERTEX
8
CONTOURS_MINEURES
10
150.423
20
169.998
0
VERTEX
8
CONTOURS_MINEURES
10
150.358
20
169.638
0
VERTEX
8
CONTOURS_MINEURES
10
149.998
20
169.183
0
VERTEX
8
CONTOURS_MINEURES
10
146.204
20
168.796
0
VERTEX
8
CONTOURS_MINEURES
10
145.001
20
165.002
0
VERTEX
8
CONTOURS_MINEURES
10
141.253
20
163.750
0
VERTEX
8
CONTOURS_MINEURES
10
140.803
20
159.994
0
VERTEX
8
CONTOURS_MINEURES
10
140.003
20
158.819
0
VERTEX
8
CONTOURS_MINEURES
10
136.748
20
158.246
0
VERTEX
8
CONTOURS_MINEURES
10
134.995
20
158.051
0
VERTEX
8
CONTOURS_MINEURES
10
134.398
20
155.595
0
VERTEX
8
CONTOURS_MINEURES
10
133.996
20
154.998
0
VERTEX
8
CONTOURS_MINEURES
10
130.767
20
150.770
0
VERTEX
8
CONTOURS_MINEURES
10
130.586
20
150.002
0
VERTEX
8
CONTOURS_MINEURES
10
130.665
20
149.335
0
VERTEX
8
CONTOURS_MINEURES
10
129.998
20
149.617
0
VERTEX
8
CONTOURS_MINEURES
10
128.666
20
145.005
0
VERTEX
8
CONTOURS_MINEURES
10
128.570
20
143.575
0
VERTEX
8
CONTOURS_MINEURES
10
129.998
20
142.649
0
VERTEX
8
CONTOURS_MINEURES
10
132.497
20
142.502
0
VERTEX
8
CONTOURS_MINEURES
10
134.995
20
143.246
0
VERTEX
8
CONTOURS_MINEURES
10
137.727
20
142.729
0
VERTEX
8
CONTOURS_MINEURES
10
137.352
20
139.998
0
VERTEX
8
CONTOURS_MINEURES
10
136.393
20
138.603
0
VERTEX
8
CONTOURS_MINEURES
10
136.023
20
135.001
0
VERTEX
8
CONTOURS_MINEURES
10
134.995
20
133.493
0
VERTEX
8
CONTOURS_MINEURES
10
133.251
20
131.749
0
VERTEX
8
CONTOURS_MINEURES
10
132.151
20
130.005
0
VERTEX
8
CONTOURS_MINEURES
10
130.887
20
125.888
0
VERTEX
8
CONTOURS_MINEURES
10
130.486
20
124.998
0
VERTEX
8
CONTOURS_MINEURES
10
130.553
20
124.442
0
VERTEX
8
CONTOURS_MINEURES
10
132.114
20
120.001
0
VERTEX
8
CONTOURS_MINEURES
10
131.833
20
118.166
0
VERTEX
8
CONTOURS_MINEURES
10
131.975
20
115.005
0
VERTEX
8
CONTOURS_MINEURES
10
132.807
20
112.812
0
VERTEX
8
CONTOURS_MINEURES
10
134.855
20
109.997
0
VERTEX
8
CONTOURS_MINEURES
10
134.887
20
109.889
0
VERTEX
8
CONTOURS_MINEURES
10
134.995
20
109.814
0
VERTEX
8
CONTOURS_MINEURES
10
136.873
20
108.124
0
VERTEX
8
CONTOURS_MINEURES
10
140.003
20
105.185
0
VERTEX
8
CONTOURS_MINEURES
10
140.235
20
105.001
0
VERTEX
8
CONTOURS_MINEURES
10
140.003
20
102.225
0
VERTEX
8
CONTOURS_MINEURES
10
139.811
20
100.004
0
VERTEX
8
CONTOURS_MINEURES
10
139.633
20
95.368
0
VERTEX
8
CONTOURS_MINEURES
10
139.646
20
94.997
0
VERTEX
8
CONTOURS_MINEURES
10
140.003
20
94.400
0
VERTEX
8
CONTOURS_MINEURES
10
143.556
20
90.001
0
VERTEX
8
CONTOURS_MINEURES
10
144.561
20
89.561
0
VERTEX
8
CONTOURS_MINEURES
10
145.001
20
88.520
0
VERTEX
8
CONTOURS_MINEURES
10
149.317
20
85.004
0
VERTEX
8
CONTOURS_MINEURES
10
149.806
20
84.812
0
VERTEX
8
CONTOURS_MINEURES
10
149.998
20
84.137
0
VERTEX
8
CONTOURS_MINEURES
10
153.835
20
79.997
0
VERTEX
8
CONTOURS_MINEURES
10
153.792
20
78.794
0
VERTEX
8
CONTOURS_MINEURES
10
154.452
20
75.000
0
VERTEX
8
CONTOURS_MINEURES
10
154.995
20
73.865
0
VERTEX
8
CONTOURS_MINEURES
10
158.573
20
75.000
0
VERTEX
8
CONTOURS_MINEURES
10
160.003
20
75.233
0
VERTEX
8
CONTOURS_MINEURES
10
165.001
20
75.000
0
VERTEX
8
CONTOURS_MINEURES
10
169.998
20
72.431
0
VERTEX
8
CONTOURS_MINEURES
10
171.912
20
73.087
0
VERTEX
8
CONTOURS_MINEURES
10
174.995
20
72.016
0
SEQEND
0
POLYLINE
8
CONTOURS_MINEURES
66
1
70
0
0
VERTEX
8
CONTOURS_MINEURES
10
115.188
20
199.999
0
VERTEX
8
CONTOURS_MINEURES
10
117.500
20
197.501
0
VERTEX
8
CONTOURS_MINEURES
10
119.740
20
195.003
0
VERTEX
8
CONTOURS_MINEURES
10
120.004
20
194.632
0
VERTEX
8
CONTOURS_MINEURES
10
122.235
20
189.995
0
VERTEX
8
CONTOURS_MINEURES
10
123.630
20
188.624
0
VERTEX
8
CONTOURS_MINEURES
10
125.001
20
187.179
0
VERTEX
8
CONTOURS_MINEURES
10
126.714
20
184.999
0
VERTEX
8
CONTOURS_MINEURES
10
129.998
20
183.391
0
VERTEX
8
CONTOURS_MINEURES
10
132.032
20
182.965
0
VERTEX
8
CONTOURS_MINEURES
10
134.995
20
182.031
0
VERTEX
8
CONTOURS_MINEURES
10
139.263
20
180.741
0
VERTEX
8
CONTOURS_MINEURES
10
140.003
20
180.505
0
VERTEX
8
CONTOURS_MINEURES
10
141.979
20
180.002
0
VERTEX
8
CONTOURS_MINEURES
10
144.321
20
179.321
0
VERTEX
8
CONTOURS_MINEURES
10
145.001
20
179.258
0
VERTEX
8
CONTOURS_MINEURES
10
146.032
20
178.969
0
VERTEX
8
CONTOURS_MINEURES
10
149.998
20
177.391
0
VERTEX
8
CONTOURS_MINEURES
10
152.013
20
177.014
0
VERTEX
8
CONTOURS_MINEURES
10
154.995
20
175.370
0
VERTEX
8
CONTOURS_MINEURES
10
155.381
20
175.380
0
VERTEX
8
CONTOURS_MINEURES
10
155.671
20
174.995
0
VERTEX
8
CONTOURS_MINEURES
10
157.984
20
172.981
0
VERTEX
8
CONTOURS_MINEURES
10
160.003
20
170.303
0
VERTEX
8
CONTOURS_MINEURES
10
160.427
20
169.998
0
VERTEX
8
CONTOURS_MINEURES
10
160.513
20
169.489
0
VERTEX
8
CONTOURS_MINEURES
10
162.217
20
165.002
0
VERTEX
8
CONTOURS_MINEURES
10
160.689
20
160.682
0
VERTEX
8
CONTOURS_MINEURES
10
160.364
20
159.994
0
VERTEX
8
CONTOURS_MINEURES
10
160.003
20
159.421
0
VERTEX
8
CONTOURS_MINEURES
10
156.705
20
154.998
0
VERTEX
8
CONTOURS_MINEURES
10
156.398
20
151.401
0
VERTEX
8
CONTOURS_MINEURES
10
156.058
20
150.002
0
VERTEX
8
CONTOURS_MINEURES
10
155.774
20
149.224
0
VERTEX
8
CONTOURS_MINEURES
10
154.995
20
146.617
0
VERTEX
8
CONTOURS_MINEURES
10
154.545
20
145.455
0
VERTEX
8
CONTOURS_MINEURES
10
154.281
20
145.005
0
VERTEX
8
CONTOURS_MINEURES
10
151.426
20
141.429
0
VERTEX
8
CONTOURS_MINEURES
10
150.268
20
139.998
0
VERTEX
8
CONTOURS_MINEURES
10
150.159
20
139.837
0
VERTEX
8
CONTOURS_MINEURES
10
149.998
20
139.641
0
VERTEX
8
CONTOURS_MINEURES
10
148.142
20
136.857
0
VERTEX
8
CONTOURS_MINEURES
10
147.142
20
135.001
0
VERTEX
8
CONTOURS_MINEURES
10
145.001
20
130.130
0
VERTEX
8
CONTOURS_MINEURES
10
144.965
20
130.041
0
VERTEX
8
CONTOURS_MINEURES
10
144.945
20
130.005
0
VERTEX
8
CONTOURS_MINEURES
10
144.903
20
129.907
0
VERTEX
8
CONTOURS_MINEURES
10
142.943
20
124.998
0
VERTEX
8
CONTOURS_MINEURES
10
142.943
20
122.058
0
VERTEX
8
CONTOURS_MINEURES
10
142.310
20
120.001
0
VERTEX
8
CONTOURS_MINEURES
10
140.142
20
115.143
0
VERTEX
8
CONTOURS_MINEURES
10
140.170
20
115.005
0
VERTEX
8
CONTOURS_MINEURES
10
145.001
20
112.212
0
VERTEX
8
CONTOURS_MINEURES
10
148.107
20
109.997
0
VERTEX
8
CONTOURS_MINEURES
10
149.998
20
108.509
0
VERTEX
8
CONTOURS_MINEURES
10
151.985
20
106.987
0
VERTEX
8
CONTOURS_MINEURES
10
153.434
20
105.001
0
VERTEX
8
CONTOURS_MINEURES
10
154.995
20
102.975
0
VERTEX
8
CONTOURS_MINEURES
10
157.619
20
100.004
0
VERTEX
8
CONTOURS_MINEURES
10
160.003
20
97.298
0
VERTEX
8
CONTOURS_MINEURES
10
161.271
20
94.997
0
VERTEX
8
CONTOURS_MINEURES
10
161.916
20
91.913
0
VERTEX
8
CONTOURS_MINEURES
10
162.543
20
90.001
0
VERTEX
8
CONTOURS_MINEURES
10
165.001
20
88.278
0
VERTEX
8
CONTOURS_MINEURES
10
167.478
20
87.481
0
VERTEX
8
CONTOURS_MINEURES
10
169.998
20
86.285
0
VERTEX
8
CONTOURS_MINEURES
10
173.567
20
85.004
0
VERTEX
8
CONTOURS_MINEURES
10
174.645
20
84.653
0
VERTEX
8
CONTOURS_MINEURES
10
174.995
20
84.516
0
SEQEND
0
POLYLINE
8
CONTOURS_MINEURES
66
1
70
0
0
VERTEX
8
CONTOURS_MINEURES
10
133.389
20
199.999
0
VERTEX
8
CONTOURS_MINEURES
10
133.068
20
198.072
0
VERTEX
8
CONTOURS_MINEURES
10
134.773
20
195.003
0
VERTEX
8
CONTOURS_MINEURES
10
134.842
20
194.848
0
VERTEX
8
CONTOURS_MINEURES
10
134.995
20
194.617
0
VERTEX
8
CONTOURS_MINEURES
10
137.927
20
192.926
0
VERTEX
8
CONTOURS_MINEURES
10
140.003
20
190.522
0
VERTEX
8
CONTOURS_MINEURES
10
140.267
20
190.259
0
VERTEX
8
CONTOURS_MINEURES
10
140.628
20
189.995
0
VERTEX
8
CONTOURS_MINEURES
10
143.872
20
188.867
0
VERTEX
8
CONTOURS_MINEURES
10
145.001
20
187.875
0
VERTEX
8
CONTOURS_MINEURES
10
147.111
20
187.108
0
VERTEX
8
CONTOURS_MINEURES
10
149.998
20
185.516
0
VERTEX
8
CONTOURS_MINEURES
10
150.998
20
184.999
0
VERTEX
8
CONTOURS_MINEURES
10
154.413
20
184.417
0
VERTEX
8
CONTOURS_MINEURES
10
154.995
20
184.062
0
VERTEX
8
CONTOURS_MINEURES
10
155.879
20
184.117
0
VERTEX
8
CONTOURS_MINEURES
10
160.003
20
184.589
0
VERTEX
8
CONTOURS_MINEURES
10
162.275
20
184.999
0
VERTEX
8
CONTOURS_MINEURES
10
164.492
20
185.507
0
VERTEX
8
CONTOURS_MINEURES
10
165.001
20
185.525
0
VERTEX
8
CONTOURS_MINEURES
10
165.750
20
185.748
0
VERTEX
8
CONTOURS_MINEURES
10
169.998
20
185.525
0
VERTEX
8
CONTOURS_MINEURES
10
170.272
20
184.999
0
VERTEX
8
CONTOURS_MINEURES
10
170.398
20
184.599
0
VERTEX
8
CONTOURS_MINEURES
10
170.206
20
180.002
0
VERTEX
8
CONTOURS_MINEURES
10
171.564
20
176.564
0
VERTEX
8
CONTOURS_MINEURES
10
171.691
20
174.995
0
VERTEX
8
CONTOURS_MINEURES
10
171.807
20
173.186
0
VERTEX
8
CONTOURS_MINEURES
10
173.128
20
169.998
0
VERTEX
8
CONTOURS_MINEURES
10
172.845
20
167.849
0
VERTEX
8
CONTOURS_MINEURES
10
171.882
20
165.002
0
VERTEX
8
CONTOURS_MINEURES
10
170.059
20
160.056
0
VERTEX
8
CONTOURS_MINEURES
10
170.024
20
159.994
0
VERTEX
8
CONTOURS_MINEURES
10
170.022
20
159.971
0
VERTEX
8
CONTOURS_MINEURES
10
169.998
20
159.897
0
VERTEX
8
CONTOURS_MINEURES
10
168.436
20
156.559
0
VERTEX
8
CONTOURS_MINEURES
10
167.747
20
154.998
0
VERTEX
8
CONTOURS_MINEURES
10
167.060
20
152.939
0
VERTEX
8
CONTOURS_MINEURES
10
165.777
20
150.002
0
VERTEX
8
CONTOURS_MINEURES
10
165.734
20
149.268
0
VERTEX
8
CONTOURS_MINEURES
10
165.001
20
147.423
0
VERTEX
8
CONTOURS_MINEURES
10
164.258
20
145.005
0
VERTEX
8
CONTOURS_MINEURES
10
164.176
20
140.824
0
VERTEX
8
CONTOURS_MINEURES
10
163.837
20
139.998
0
VERTEX
8
CONTOURS_MINEURES
10
162.502
20
137.500
0
VERTEX
8
CONTOURS_MINEURES
10
161.669
20
135.001
0
VERTEX
8
CONTOURS_MINEURES
10
160.003
20
130.531
0
VERTEX
8
CONTOURS_MINEURES
10
159.881
20
130.127
0
VERTEX
8
CONTOURS_MINEURES
10
159.834
20
130.005
0
VERTEX
8
CONTOURS_MINEURES
10
159.839
20
129.841
0
VERTEX
8
CONTOURS_MINEURES
10
160.003
20
128.336
0
VERTEX
8
CONTOURS_MINEURES
10
160.316
20
125.310
0
VERTEX
8
CONTOURS_MINEURES
10
160.331
20
124.998
0
VERTEX
8
CONTOURS_MINEURES
10
160.812
20
120.809
0
VERTEX
8
CONTOURS_MINEURES
10
161.103
20
120.001
0
VERTEX
8
CONTOURS_MINEURES
10
162.294
20
117.711
0
VERTEX
8
CONTOURS_MINEURES
10
164.254
20
115.005
0
VERTEX
8
CONTOURS_MINEURES
10
165.001
20
113.336
0
VERTEX
8
CONTOURS_MINEURES
10
166.605
20
111.605
0
VERTEX
8
CONTOURS_MINEURES
10
167.096
20
109.997
0
VERTEX
8
CONTOURS_MINEURES
10
168.766
20
108.765
0
VERTEX
8
CONTOURS_MINEURES
10
169.998
20
108.347
0
VERTEX
8
CONTOURS_MINEURES
10
174.051
20
105.001
0
VERTEX
8
CONTOURS_MINEURES
10
174.201
20
104.207
0
VERTEX
8
CONTOURS_MINEURES
10
174.995
20
103.511
0
SEQEND
0
POLYLINE
8
CONTOURS_MINEURES
66
1
70
0
0
VERTEX
8
CONTOURS_MINEURES
10
174.995
20
157.496
0
VERTEX
8
CONTOURS_MINEURES
10
174.781
20
155.212
0
VERTEX
8
CONTOURS_MINEURES
10
174.712
20
154.998
0
VERTEX
8
CONTOURS_MINEURES
10
174.627
20
154.629
0
VERTEX
8
CONTOURS_MINEURES
10
174.031
20
150.002
0
VERTEX
8
CONTOURS_MINEURES
10
173.988
20
148.995
0
VERTEX
8
CONTOURS_MINEURES
10
173.563
20
145.005
0
VERTEX
8
CONTOURS_MINEURES
10
174.276
20
140.719
0
VERTEX
8
CONTOURS_MINEURES
10
174.329
20
139.998
0
VERTEX
8
CONTOURS_MINEURES
10
174.995
20
137.500
0
SEQEND
0
POLYLINE
8
CONTOURS_MAJEURES
66
1
70
0
0
VERTEX
8
CONTOURS_MAJEURES
10
0.004
20
46.369
0
VERTEX
8
CONTOURS_MAJEURES
10
0.395
20
45.390
0
VERTEX
8
CONTOURS_MAJEURES
10
0.614
20
45.000
0
VERTEX
8
CONTOURS_MAJEURES
10
2.781
20
42.224
0
VERTEX
8
CONTOURS_MAJEURES
10
3.790
20
40.003
0
VERTEX
8
CONTOURS_MAJEURES
10
5.002
20
38.690
0
VERTEX
8
CONTOURS_MAJEURES
10
6.453
20
36.450
0
VERTEX
8
CONTOURS_MAJEURES
10
9.999
20
35.561
0
VERTEX
8
CONTOURS_MAJEURES
10
10.813
20
34.996
0
VERTEX
8
CONTOURS_MAJEURES
10
14.996
20
30.954
0
VERTEX
8
CONTOURS_MAJEURES
10
15.553
20
30.555
0
VERTEX
8
CONTOURS_MAJEURES
10
15.892
20
29.999
0
VERTEX
8
CONTOURS_MAJEURES
10
20.004
20
25.621
0
VERTEX
8
CONTOURS_MAJEURES
10
20.448
20
25.446
0
VERTEX
8
CONTOURS_MAJEURES
10
20.779
20
25.003
0
VERTEX
8
CONTOURS_MAJEURES
10
22.897
20
22.104
0
VERTEX
8
CONTOURS_MAJEURES
10
23.950
20
19.996
0
VERTEX
8
CONTOURS_MAJEURES
10
23.574
20
18.568
0
VERTEX
8
CONTOURS_MAJEURES
10
21.024
20
14.999
0
VERTEX
8
CONTOURS_MAJEURES
10
20.556
20
14.447
0
VERTEX
8
CONTOURS_MAJEURES
10
20.004
20
12.728
0
VERTEX
8
CONTOURS_MAJEURES
10
18.573
20
10.003
0
VERTEX
8
CONTOURS_MAJEURES
10
18.126
20
8.125
0
VERTEX
8
CONTOURS_MAJEURES
10
17.174
20
4.995
0
VERTEX
8
CONTOURS_MAJEURES
10
15.269
20
0.271
0
VERTEX
8
CONTOURS_MAJEURES
10
15.205
20
-0.001
0
SEQEND
0
POLYLINE
8
CONTOURS_MAJEURES
66
1
70
0
0
VERTEX
8
CONTOURS_MAJEURES
10
0.004
20
120.793
0
VERTEX
8
CONTOURS_MAJEURES
10
0.760
20
120.001
0
VERTEX
8
CONTOURS_MAJEURES
10
3.456
20
118.456
0
VERTEX
8
CONTOURS_MAJEURES
10
5.002
20
117.963
0
VERTEX
8
CONTOURS_MAJEURES
10
7.296
20
117.707
0
VERTEX
8
CONTOURS_MAJEURES
10
9.999
20
117.366
0
VERTEX
8
CONTOURS_MAJEURES
10
12.106
20
117.111
0
VERTEX
8
CONTOURS_MAJEURES
10
14.996
20
116.316
0
VERTEX
8
CONTOURS_MAJEURES
10
19.686
20
115.322
0
VERTEX
8
CONTOURS_MAJEURES
10
20.004
20
115.268
0
VERTEX
8
CONTOURS_MAJEURES
10
20.855
20
115.005
0
VERTEX
8
CONTOURS_MAJEURES
10
25.002
20
112.652
0
VERTEX
8
CONTOURS_MAJEURES
10
27.167
20
112.835
0
VERTEX
8
CONTOURS_MAJEURES
10
29.999
20
112.384
0
VERTEX
8
CONTOURS_MAJEURES
10
32.626
20
112.630
0
VERTEX
8
CONTOURS_MAJEURES
10
34.996
20
112.013
0
VERTEX
8
CONTOURS_MAJEURES
10
37.541
20
109.997
0
VERTEX
8
CONTOURS_MAJEURES
10
38.573
20
108.570
0
VERTEX
8
CONTOURS_MAJEURES
10
38.050
20
105.001
0
VERTEX
8
CONTOURS_MAJEURES
10
37.036
20
102.040
0
VERTEX
8
CONTOURS_MAJEURES
10
36.485
20
100.004
0
VERTEX
8
CONTOURS_MAJEURES
10
36.433
20
98.568
0
VERTEX
8
CONTOURS_MAJEURES
10
34.996
20
94.997
0
VERTEX
8
CONTOURS_MAJEURES
10
34.785
20
90.212
0
VERTEX
8
CONTOURS_MAJEURES
10
34.655
20
90.001
0
VERTEX
8
CONTOURS_MAJEURES
10
34.721
20
89.726
0
VERTEX
8
CONTOURS_MAJEURES
10
34.996
20
87.502
0
VERTEX
8
CONTOURS_MAJEURES
10
35.285
20
85.004
0
VERTEX
8
CONTOURS_MAJEURES
10
36.975
20
81.975
0
VERTEX
8
CONTOURS_MAJEURES
10
37.269
20
79.997
0
VERTEX
8
CONTOURS_MAJEURES
10
40.004
20
75.722
0
VERTEX
8
CONTOURS_MAJEURES
10
40.315
20
75.311
0
VERTEX
8
CONTOURS_MAJEURES
10
40.386
20
75.000
0
VERTEX
8
CONTOURS_MAJEURES
10
42.603
20
72.402
0
VERTEX
8
CONTOURS_MAJEURES
10
44.686
20
70.004
0
VERTEX
8
CONTOURS_MAJEURES
10
44.815
20
69.817
0
VERTEX
8
CONTOURS_MAJEURES
10
45.001
20
69.568
0
VERTEX
8
CONTOURS_MAJEURES
10
47.150
20
67.150
0
VERTEX
8
CONTOURS_MAJEURES
10
48.705
20
64.996
0
VERTEX
8
CONTOURS_MAJEURES
10
49.268
20
64.266
0
VERTEX
8
CONTOURS_MAJEURES
10
49.999
20
63.318
0
VERTEX
8
CONTOURS_MAJEURES
10
51.690
20
61.691
0
VERTEX
8
CONTOURS_MAJEURES
10
53.082
20
60.000
0
VERTEX
8
CONTOURS_MAJEURES
10
54.996
20
58.292
0
VERTEX
8
CONTOURS_MAJEURES
10
56.407
20
56.412
0
VERTEX
8
CONTOURS_MAJEURES
10
57.311
20
55.004
0
VERTEX
8
CONTOURS_MAJEURES
10
60.004
20
52.004
0
VERTEX
8
CONTOURS_MAJEURES
10
62.385
20
49.996
0
VERTEX
8
CONTOURS_MAJEURES
10
65.001
20
47.199
0
VERTEX
8
CONTOURS_MAJEURES
10
67.035
20
45.000
0
VERTEX
8
CONTOURS_MAJEURES
10
67.713
20
42.714
0
VERTEX
8
CONTOURS_MAJEURES
10
69.999
20
40.644
0
VERTEX
8
CONTOURS_MAJEURES
10
70.558
20
40.003
0
VERTEX
8
CONTOURS_MAJEURES
10
70.808
20
35.807
0
VERTEX
8
CONTOURS_MAJEURES
10
71.418
20
34.996
0
VERTEX
8
CONTOURS_MAJEURES
10
69.999
20
32.049
0
VERTEX
8
CONTOURS_MAJEURES
10
69.364
20
30.634
0
VERTEX
8
CONTOURS_MAJEURES
10
68.518
20
29.999
0
VERTEX
8
CONTOURS_MAJEURES
10
66.697
20
28.304
0
VERTEX
8
CONTOURS_MAJEURES
10
65.001
20
26.986
0
VERTEX
8
CONTOURS_MAJEURES
10
64.377
20
25.628
0
VERTEX
8
CONTOURS_MAJEURES
10
63.752
20
25.003
0
VERTEX
8
CONTOURS_MAJEURES
10
60.004
20
21.285
0
VERTEX
8
CONTOURS_MAJEURES
10
59.577
20
20.422
0
VERTEX
8
CONTOURS_MAJEURES
10
58.397
20
19.996
0
VERTEX
8
CONTOURS_MAJEURES
10
54.996
20
16.427
0
VERTEX
8
CONTOURS_MAJEURES
10
54.137
20
14.999
0
VERTEX
8
CONTOURS_MAJEURES
10
54.364
20
14.367
0
VERTEX
8
CONTOURS_MAJEURES
10
54.996
20
12.443
0
VERTEX
8
CONTOURS_MAJEURES
10
56.219
20
11.223
0
VERTEX
8
CONTOURS_MAJEURES
10
55.758
20
10.003
0
VERTEX
8
CONTOURS_MAJEURES
10
56.072
20
6.071
0
VERTEX
8
CONTOURS_MAJEURES
10
55.549
20
4.995
0
VERTEX
8
CONTOURS_MAJEURES
10
55.476
20
4.517
0
VERTEX
8
CONTOURS_MAJEURES
10
54.996
20
3.853
0
VERTEX
8
CONTOURS_MAJEURES
10
51.979
20
1.979
0
VERTEX
8
CONTOURS_MAJEURES
10
49.999
20
0.765
0
VERTEX
8
CONTOURS_MAJEURES
10
49.482
20
0.516
0
VERTEX
8
CONTOURS_MAJEURES
10
48.999
20
-0.001
0
SEQEND
0
POLYLINE
8
CONTOURS_MAJEURES
66
1
70
0
0
VERTEX
8
CONTOURS_MAJEURES
10
0.004
20
183.853
0
VERTEX
8
CONTOURS_MAJEURES
10
2.720
20
182.283
0
VERTEX
8
CONTOURS_MAJEURES
10
5.002
20
181.062
0
VERTEX
8
CONTOURS_MAJEURES
10
6.281
20
181.282
0
VERTEX
8
CONTOURS_MAJEURES
10
9.999
20
180.880
0
VERTEX
8
CONTOURS_MAJEURES
10
12.824
20
180.002
0
VERTEX
8
CONTOURS_MAJEURES
10
14.312
20
179.316
0
VERTEX
8
CONTOURS_MAJEURES
10
14.996
20
178.781
0
VERTEX
8
CONTOURS_MAJEURES
10
16.723
20
178.276
0
VERTEX
8
CONTOURS_MAJEURES
10
20.004
20
176.458
0
VERTEX
8
CONTOURS_MAJEURES
10
21.148
20
176.141
0
VERTEX
8
CONTOURS_MAJEURES
10
25.002
20
176.556
0
VERTEX
8
CONTOURS_MAJEURES
10
28.902
20
176.094
0
VERTEX
8
CONTOURS_MAJEURES
10
29.999
20
176.031
0
VERTEX
8
CONTOURS_MAJEURES
10
30.926
20
175.924
0
VERTEX
8
CONTOURS_MAJEURES
10
33.101
20
174.995
0
VERTEX
8
CONTOURS_MAJEURES
10
34.534
20
174.533
0
VERTEX
8
CONTOURS_MAJEURES
10
34.996
20
174.340
0
VERTEX
8
CONTOURS_MAJEURES
10
35.818
20
174.174
0
VERTEX
8
CONTOURS_MAJEURES
10
40.004
20
173.073
0
VERTEX
8
CONTOURS_MAJEURES
10
42.654
20
172.345
0
VERTEX
8
CONTOURS_MAJEURES
10
45.001
20
171.758
0
VERTEX
8
CONTOURS_MAJEURES
10
46.582
20
171.579
0
VERTEX
8
CONTOURS_MAJEURES
10
49.999
20
170.962
0
VERTEX
8
CONTOURS_MAJEURES
10
50.974
20
170.973
0
VERTEX
8
CONTOURS_MAJEURES
10
52.664
20
169.998
0
VERTEX
8
CONTOURS_MAJEURES
10
54.996
20
169.185
0
VERTEX
8
CONTOURS_MAJEURES
10
55.306
20
169.689
0
VERTEX
8
CONTOURS_MAJEURES
10
56.127
20
169.998
0
VERTEX
8
CONTOURS_MAJEURES
10
60.004
20
171.608
0
VERTEX
8
CONTOURS_MAJEURES
10
62.319
20
172.680
0
VERTEX
8
CONTOURS_MAJEURES
10
65.001
20
173.499
0
VERTEX
8
CONTOURS_MAJEURES
10
69.642
20
174.638
0
VERTEX
8
CONTOURS_MAJEURES
10
69.999
20
174.685
0
VERTEX
8
CONTOURS_MAJEURES
10
70.370
20
174.623
0
VERTEX
8
CONTOURS_MAJEURES
10
74.996
20
174.053
0
VERTEX
8
CONTOURS_MAJEURES
10
77.933
20
172.928
0
VERTEX
8
CONTOURS_MAJEURES
10
80.004
20
172.071
0
VERTEX
8
CONTOURS_MAJEURES
10
84.309
20
169.998
0
VERTEX
8
CONTOURS_MAJEURES
10
85.001
20
169.549
0
VERTEX
8
CONTOURS_MAJEURES
10
86.978
20
166.979
0
VERTEX
8
CONTOURS_MAJEURES
10
89.998
20
165.518
0
VERTEX
8
CONTOURS_MAJEURES
10
90.986
20
165.002
0
VERTEX
8
CONTOURS_MAJEURES
10
93.249
20
163.252
0
VERTEX
8
CONTOURS_MAJEURES
10
94.996
20
162.555
0
VERTEX
8
CONTOURS_MAJEURES
10
98.956
20
159.994
0
VERTEX
8
CONTOURS_MAJEURES
10
99.522
20
159.514
0
VERTEX
8
CONTOURS_MAJEURES
10
100.004
20
159.323
0
VERTEX
8
CONTOURS_MAJEURES
10
103.915
20
156.084
0
VERTEX
8
CONTOURS_MAJEURES
10
105.001
20
155.156
0
VERTEX
8
CONTOURS_MAJEURES
10
105.076
20
155.073
0
VERTEX
8
CONTOURS_MAJEURES
10
105.153
20
154.998
0
VERTEX
8
CONTOURS_MAJEURES
10
106.087
20
153.912
0
VERTEX
8
CONTOURS_MAJEURES
10
109.255
20
150.002
0
VERTEX
8
CONTOURS_MAJEURES
10
109.998
20
146.900
0
VERTEX
8
CONTOURS_MAJEURES
10
110.397
20
145.404
0
VERTEX
8
CONTOURS_MAJEURES
10
110.537
20
145.005
0
VERTEX
8
CONTOURS_MAJEURES
10
110.415
20
144.588
0
VERTEX
8
CONTOURS_MAJEURES
10
109.998
20
143.904
0
VERTEX
8
CONTOURS_MAJEURES
10
108.160
20
139.998
0
VERTEX
8
CONTOURS_MAJEURES
10
105.762
20
135.762
0
VERTEX
8
CONTOURS_MAJEURES
10
105.331
20
135.001
0
VERTEX
8
CONTOURS_MAJEURES
10
105.001
20
134.463
0
VERTEX
8
CONTOURS_MAJEURES
10
103.530
20
131.476
0
VERTEX
8
CONTOURS_MAJEURES
10
102.916
20
130.005
0
VERTEX
8
CONTOURS_MAJEURES
10
102.502
20
127.501
0
VERTEX
8
CONTOURS_MAJEURES
10
102.045
20
124.998
0
VERTEX
8
CONTOURS_MAJEURES
10
101.923
20
123.078
0
VERTEX
8
CONTOURS_MAJEURES
10
101.681
20
120.001
0
VERTEX
8
CONTOURS_MAJEURES
10
100.259
20
115.260
0
VERTEX
8
CONTOURS_MAJEURES
10
100.223
20
115.005
0
VERTEX
8
CONTOURS_MAJEURES
10
100.450
20
114.558
0
VERTEX
8
CONTOURS_MAJEURES
10
102.400
20
109.997
0
VERTEX
8
CONTOURS_MAJEURES
10
105.001
20
106.927
0
VERTEX
8
CONTOURS_MAJEURES
10
106.380
20
105.001
0
VERTEX
8
CONTOURS_MAJEURES
10
108.009
20
103.012
0
VERTEX
8
CONTOURS_MAJEURES
10
109.567
20
100.004
0
VERTEX
8
CONTOURS_MAJEURES
10
109.691
20
99.696
0
VERTEX
8
CONTOURS_MAJEURES
10
109.998
20
99.121
0
VERTEX
8
CONTOURS_MAJEURES
10
111.674
20
94.997
0
VERTEX
8
CONTOURS_MAJEURES
10
109.998
20
90.625
0
VERTEX
8
CONTOURS_MAJEURES
10
109.789
20
90.210
0
VERTEX
8
CONTOURS_MAJEURES
10
109.679
20
90.001
0
VERTEX
8
CONTOURS_MAJEURES
10
107.785
20
87.217
0
VERTEX
8
CONTOURS_MAJEURES
10
106.026
20
85.004
0
VERTEX
8
CONTOURS_MAJEURES
10
105.572
20
80.569
0
VERTEX
8
CONTOURS_MAJEURES
10
105.481
20
79.997
0
VERTEX
8
CONTOURS_MAJEURES
10
105.675
20
79.323
0
VERTEX
8
CONTOURS_MAJEURES
10
107.849
20
75.000
0
VERTEX
8
CONTOURS_MAJEURES
10
109.998
20
72.272
0
VERTEX
8
CONTOURS_MAJEURES
10
111.486
20
71.491
0
VERTEX
8
CONTOURS_MAJEURES
10
111.869
20
70.004
0
VERTEX
8
CONTOURS_MAJEURES
10
114.996
20
65.717
0
VERTEX
8
CONTOURS_MAJEURES
10
115.573
20
65.574
0
VERTEX
8
CONTOURS_MAJEURES
10
115.773
20
64.996
0
VERTEX
8
CONTOURS_MAJEURES
10
117.500
20
62.498
0
VERTEX
8
CONTOURS_MAJEURES
10
119.524
20
60.000
0
VERTEX
8
CONTOURS_MAJEURES
10
119.672
20
59.669
0
VERTEX
8
CONTOURS_MAJEURES
10
120.004
20
58.978
0
VERTEX
8
CONTOURS_MAJEURES
10
124.862
20
55.004
0
VERTEX
8
CONTOURS_MAJEURES
10
124.924
20
54.927
0
VERTEX
8
CONTOURS_MAJEURES
10
125.001
20
54.717
0
VERTEX
8
CONTOURS_MAJEURES
10
127.999
20
49.996
0
VERTEX
8
CONTOURS_MAJEURES
10
129.998
20
46.561
0
VERTEX
8
CONTOURS_MAJEURES
10
130.566
20
45.568
0
VERTEX
8
CONTOURS_MAJEURES
10
130.639
20
45.000
0
VERTEX
8
CONTOURS_MAJEURES
10
130.702
20
44.296
0
VERTEX
8
CONTOURS_MAJEURES
10
132.517
20
40.003
0
VERTEX
8
CONTOURS_MAJEURES
10
132.517
20
37.520
0
VERTEX
8
CONTOURS_MAJEURES
10
132.438
20
34.996
0
VERTEX
8
CONTOURS_MAJEURES
10
132.457
20
32.537
0
VERTEX
8
CONTOURS_MAJEURES
10
131.629
20
29.999
0
VERTEX
8
CONTOURS_MAJEURES
10
130.491
20
25.496
0
VERTEX
8
CONTOURS_MAJEURES
10
130.435
20
25.003
0
VERTEX
8
CONTOURS_MAJEURES
10
130.447
20
24.554
0
VERTEX
8
CONTOURS_MAJEURES
10
130.201
20
19.996
0
VERTEX
8
CONTOURS_MAJEURES
10
129.998
20
19.790
0
VERTEX
8
CONTOURS_MAJEURES
10
127.083
20
17.914
0
VERTEX
8
CONTOURS_MAJEURES
10
125.001
20
17.250
0
VERTEX
8
CONTOURS_MAJEURES
10
121.800
20
14.999
0
VERTEX
8
CONTOURS_MAJEURES
10
120.004
20
11.517
0
VERTEX
8
CONTOURS_MAJEURES
10
119.714
20
10.292
0
VERTEX
8
CONTOURS_MAJEURES
10
119.586
20
10.003
0
VERTEX
8
CONTOURS_MAJEURES
10
119.568
20
9.567
0
VERTEX
8
CONTOURS_MAJEURES
10
120.004
20
7.057
0
VERTEX
8
CONTOURS_MAJEURES
10
120.878
20
4.995
0
VERTEX
8
CONTOURS_MAJEURES
10
124.376
20
0.623
0
VERTEX
8
CONTOURS_MAJEURES
10
124.876
20
-0.001
0
SEQEND
0
POLYLINE
8
CONTOURS_MAJEURES
66
1
70
0
0
VERTEX
8
CONTOURS_MAJEURES
10
133.389
20
199.999
0
VERTEX
8
CONTOURS_MAJEURES
10
133.068
20
198.072
0
VERTEX
8
CONTOURS_MAJEURES
10
134.773
20
195.003
0
VERTEX
8
CONTOURS_MAJEURES
10
134.842
20
194.848
0
VERTEX
8
CONTOURS_MAJEURES
10
134.995
20
194.617
0
VERTEX
8
CONTOURS_MAJEURES
10
137.927
20
192.926
0
VERTEX
8
CONTOURS_MAJEURES
10
140.003
20
190.522
0
VERTEX
8
CONTOURS_MAJEURES
10
140.267
20
190.259
0
VERTEX
8
CONTOURS_MAJEURES
10
140.628
20
189.995
0
VERTEX
8
CONTOURS_MAJEURES
10
143.872
20
188.867
0
VERTEX
8
CONTOURS_MAJEURES
10
145.001
20
187.875
0
VERTEX
8
CONTOURS_MAJEURES
10
147.111
20
187.108
0
VERTEX
8
CONTOURS_MAJEURES
10
149.998
20
185.516
0
VERTEX
8
CONTOURS_MAJEURES
10
150.998
20
184.999
0
VERTEX
8
CONTOURS_MAJEURES
10
154.413
20
184.417
0
VERTEX
8
CONTOURS_MAJEURES
10
154.995
20
184.062
0
VERTEX
8
CONTOURS_MAJEURES
10
155.879
20
184.117
0
VERTEX
8
CONTOURS_MAJEURES
10
160.003
20
184.589
0
VERTEX
8
CONTOURS_MAJEURES
10
162.275
20
184.999
0
VERTEX
8
CONTOURS_MAJEURES
10
164.492
20
185.507
0
VERTEX
8
CONTOURS_MAJEURES
10
165.001
20
185.525
0
VERTEX
8
CONTOURS_MAJEURES
10
165.750
20
185.748
0
VERTEX
8
CONTOURS_MAJEURES
10
169.998
20
185.525
0
VERTEX
8
CONTOURS_MAJEURES
10
170.272
20
184.999
0
VERTEX
8
CONTOURS_MAJEURES
10
170.398
20
184.599
0
VERTEX
8
CONTOURS_MAJEURES
10
170.206
20
180.002
0
VERTEX
8
CONTOURS_MAJEURES
10
171.564
20
176.564
0
VERTEX
8
CONTOURS_MAJEURES
10
171.691
20
174.995
0
VERTEX
8
CONTOURS_MAJEURES
10
171.807
20
173.186
0
VERTEX
8
CONTOURS_MAJEURES
10
173.128
20
169.998
0
VERTEX
8
CONTOURS_MAJEURES
10
172.845
20
167.849
0
VERTEX
8
CONTOURS_MAJEURES
10
171.882
20
165.002
0
VERTEX
8
CONTOURS_MAJEURES
10
170.059
20
160.056
0
VERTEX
8
CONTOURS_MAJEURES
10
170.024
20
159.994
0
VERTEX
8
CONTOURS_MAJEURES
10
170.022
20
159.971
0
VERTEX
8
CONTOURS_MAJEURES
10
169.998
20
159.897
0
VERTEX
8
CONTOURS_MAJEURES
10
168.436
20
156.559
0
VERTEX
8
CONTOURS_MAJEURES
10
167.747
20
154.998
0
VERTEX
8
CONTOURS_MAJEURES
10
167.060
20
152.939
0
VERTEX
8
CONTOURS_MAJEURES
10
165.777
20
150.002
0
VERTEX
8
CONTOURS_MAJEURES
10
165.734
20
149.268
0
VERTEX
8
CONTOURS_MAJEURES
10
165.001
20
147.423
0
VERTEX
8
CONTOURS_MAJEURES
10
164.258
20
145.005
0
VERTEX
8
CONTOURS_MAJEURES
10
164.176
20
140.824
0
VERTEX
8
CONTOURS_MAJEURES
10
163.837
20
139.998
0
VERTEX
8
CONTOURS_MAJEURES
10
162.502
20
137.500
0
VERTEX
8
CONTOURS_MAJEURES
10
161.669
20
135.001
0
VERTEX
8
CONTOURS_MAJEURES
10
160.003
20
130.531
0
VERTEX
8
CONTOURS_MAJEURES
10
159.881
20
130.127
0
VERTEX
8
CONTOURS_MAJEURES
10
159.834
20
130.005
0
VERTEX
8
CONTOURS_MAJEURES
10
159.839
20
129.841
0
VERTEX
8
CONTOURS_MAJEURES
10
160.003
20
128.336
0
VERTEX
8
CONTOURS_MAJEURES
10
160.316
20
125.310
0
VERTEX
8
CONTOURS_MAJEURES
10
160.331
20
124.998
0
VERTEX
8
CONTOURS_MAJEURES
10
160.812
20
120.809
0
VERTEX
8
CONTOURS_MAJEURES
10
161.103
20
120.001
0
VERTEX
8
CONTOURS_MAJEURES
10
162.294
20
117.711
0
VERTEX
8
CONTOURS_MAJEURES
10
164.254
20
115.005
0
VERTEX
8
CONTOURS_MAJEURES
10
165.001
20
113.336
0
VERTEX
8
CONTOURS_MAJEURES
10
166.605
20
111.605
0
VERTEX
8
CONTOURS_MAJEURES
10
167.096
20
109.997
0
VERTEX
8
CONTOURS_MAJEURES
10
168.766
20
108.765
0
VERTEX
8
CONTOURS_MAJEURES
10
169.998
20
108.347
0
VERTEX
8
CONTOURS_MAJEURES
10
174.051
20
105.001
0
VERTEX
8
CONTOURS_MAJEURES
10
174.201
20
104.207
0
VERTEX
8
CONTOURS_MAJEURES
10
174.995
20
103.511
0
SEQEND
0
POLYLINE
8
PARCELLE
66
1
70
1
0
VERTEX
8
PARCELLE
10
159.828
20
89.894
0
VERTEX
8
PARCELLE
10
159.033
20
89.100
0
VERTEX
8
PARCELLE
10
157.503
20
87.460
0
VERTEX
8
PARCELLE
10
155.772
20
85.713
0
VERTEX
8
PARCELLE
10
155.390
20
85.316
0
VERTEX
8
PARCELLE
10
146.621
20
75.528
0
VERTEX
8
PARCELLE
10
135.647
20
63.436
0
VERTEX
8
PARCELLE
10
129.665
20
58.197
0
VERTEX
8
PARCELLE
10
123.121
20
52.472
0
VERTEX
8
PARCELLE
10
123.081
20
52.432
0
VERTEX
8
PARCELLE
10
121.736
20
51.611
0
VERTEX
8
PARCELLE
10
115.693
20
47.941
0
VERTEX
8
PARCELLE
10
113.003
20
46.219
0
VERTEX
8
PARCELLE
10
109.037
20
43.586
0
VERTEX
8
PARCELLE
10
102.364
20
38.142
0
VERTEX
8
PARCELLE
10
102.603
20
37.881
0
VERTEX
8
PARCELLE
10
102.553
20
37.831
0
VERTEX
8
PARCELLE
10
96.892
20
32.789
0
VERTEX
8
PARCELLE
10
96.731
20
32.641
0
VERTEX
8
PARCELLE
10
96.651
20
32.572
0
VERTEX
8
PARCELLE
10
91.496
20
30.045
0
VERTEX
8
PARCELLE
10
89.330
20
28.989
0
VERTEX
8
PARCELLE
10
82.990
20
24.213
0
VERTEX
8
PARCELLE
10
77.415
20
20.000
0
VERTEX
8
PARCELLE
10
75.091
20
22.692
0
VERTEX
8
PARCELLE
10
65.495
20
34.570
0
VERTEX
8
PARCELLE
10
60.651
20
40.565
0
VERTEX
8
PARCELLE
10
57.138
20
44.802
0
VERTEX
8
PARCELLE
10
47.006
20
36.122
0
VERTEX
8
PARCELLE
10
42.854
20
32.571
0
VERTEX
8
PARCELLE
10
38.752
20
28.958
0
VERTEX
8
PARCELLE
10
37.968
20
28.264
0
VERTEX
8
PARCELLE
10
36.088
20
26.617
0
VERTEX
8
PARCELLE
10
33.645
20
24.454
0
VERTEX
8
PARCELLE
10
33.635
20
24.404
0
VERTEX
8
PARCELLE
10
33.253
20
24.117
0
VERTEX
8
PARCELLE
10
33.203
20
24.077
0
VERTEX
8
PARCELLE
10
29.543
20
29.054
0
VERTEX
8
PARCELLE
10
29.593
20
29.094
0
VERTEX
8
PARCELLE
10
33.051
20
31.871
0
VERTEX
8
PARCELLE
10
37.644
20
35.730
0
VERTEX
8
PARCELLE
10
52.450
20
48.328
0
VERTEX
8
PARCELLE
10
48.371
20
53.379
0
VERTEX
8
PARCELLE
10
34.343
20
69.990
0
VERTEX
8
PARCELLE
10
20.040
20
87.172
0
VERTEX
8
PARCELLE
10
20.000
20
87.222
0
VERTEX
8
PARCELLE
10
22.254
20
89.576
0
VERTEX
8
PARCELLE
10
25.508
20
93.413
0
VERTEX
8
PARCELLE
10
29.180
20
97.187
0
VERTEX
8
PARCELLE
10
42.702
20
112.241
0
VERTEX
8
PARCELLE
10
43.840
20
113.673
0
VERTEX
8
PARCELLE
10
44.537
20
114.818
0
VERTEX
8
PARCELLE
10
45.215
20
116.242
0
VERTEX
8
PARCELLE
10
45.677
20
118.058
0
VERTEX
8
PARCELLE
10
45.753
20
118.957
0
VERTEX
8
PARCELLE
10
45.686
20
119.676
0
VERTEX
8
PARCELLE
10
45.160
20
121.787
0
VERTEX
8
PARCELLE
10
43.869
20
125.063
0
VERTEX
8
PARCELLE
10
43.615
20
125.764
0
VERTEX
8
PARCELLE
10
40.755
20
129.128
0
VERTEX
8
PARCELLE
10
39.248
20
131.235
0
VERTEX
8
PARCELLE
10
37.526
20
134.144
0
VERTEX
8
PARCELLE
10
36.022
20
136.940
0
VERTEX
8
PARCELLE
10
35.394
20
138.873
0
VERTEX
8
PARCELLE
10
35.144
20
140.272
0
VERTEX
8
PARCELLE
10
35.159
20
141.142
0
VERTEX
8
PARCELLE
10
35.314
20
141.950
0
VERTEX
8
PARCELLE
10
35.823
20
143.606
0
VERTEX
8
PARCELLE
10
36.462
20
144.940
0
VERTEX
8
PARCELLE
10
39.634
20
150.296
0
VERTEX
8
PARCELLE
10
44.527
20
157.360
0
VERTEX
8
PARCELLE
10
46.030
20
159.409
0
VERTEX
8
PARCELLE
10
48.085
20
161.954
0
VERTEX
8
PARCELLE
10
50.723
20
164.936
0
VERTEX
8
PARCELLE
10
52.304
20
166.584
0
VERTEX
8
PARCELLE
10
53.973
20
168.142
0
VERTEX
8
PARCELLE
10
59.513
20
173.134
0
VERTEX
8
PARCELLE
10
67.485
20
180.020
0
VERTEX
8
PARCELLE
10
70.398
20
182.269
0
VERTEX
8
PARCELLE
10
73.373
20
184.629
0
VERTEX
8
PARCELLE
10
122.005
20
133.158
0
VERTEX
8
PARCELLE
10
133.134
20
121.540
0
VERTEX
8
PARCELLE
10
145.983
20
106.984
0
VERTEX
8
PARCELLE
10
159.828
20
89.894
0
SEQEND
0
TEXT
8
POINTS_COTES
10
0.004
20
-0.001
40
1.0
1
8.4
0
TEXT
8
POINTS_COTES
10
5.002
20
10.003
40
1.0
1
9.0
0
TEXT
8
POINTS_COTES
10
9.999
20
19.996
40
1.0
1
9.3
0
TEXT
8
POINTS_COTES
10
14.996
20
29.999
40
1.0
1
9.8
0
TEXT
8
POINTS_COTES
10
20.004
20
40.003
40
1.0
1
11.7
0
TEXT
8
POINTS_COTES
10
25.002
20
49.996
40
1.0
1
13.2
0
TEXT
8
POINTS_COTES
10
29.999
20
60.000
40
1.0
1
14.1
0
TEXT
8
POINTS_COTES
10
34.996
20
70.004
40
1.0
1
15.9
0
TEXT
8
POINTS_COTES
10
40.004
20
79.997
40
1.0
1
20.8
0
TEXT
8
POINTS_COTES
10
45.001
20
90.001
40
1.0
1
21.7
0
TEXT
8
POINTS_COTES
10
49.999
20
100.004
40
1.0
1
22.0
0
TEXT
8
POINTS_COTES
10
54.996
20
109.997
40
1.0
1
22.3
0
TEXT
8
POINTS_COTES
10
60.004
20
120.001
40
1.0
1
23.4
0
TEXT
8
POINTS_COTES
10
65.001
20
130.005
40
1.0
1
24.2
0
TEXT
8
POINTS_COTES
10
69.999
20
139.998
40
1.0
1
25.4
0
TEXT
8
POINTS_COTES
10
74.996
20
150.002
40
1.0
1
26.3
0
TEXT
8
POINTS_COTES
10
80.004
20
159.994
40
1.0
1
27.6
0
TEXT
8
POINTS_COTES
10
85.001
20
169.998
40
1.0
1
30.1
0
TEXT
8
POINTS_COTES
10
89.998
20
180.002
40
1.0
1
35.5
0
TEXT
8
POINTS_COTES
10
94.996
20
189.995
40
1.0
1
35.3
0
TEXT
8
POINTS_COTES
10
100.004
20
199.999
40
1.0
1
36.7
0
ENDSEC
0
EOF
