0
SECTION
2
HEADER
0
ENDSEC
0
SECTION
2
TABLES
0
TABLE
2
LAYER
70
4
0
LAYER
2
CONTOURS_MINEURES
70
0
62
8
6
CONTINUOUS
0
LAYER
2
CONTOURS_MAJEURES
70
0
62
3
6
CONTINUOUS
0
LAYER
2
PARCELLE
70
0
62
4
6
CONTINUOUS
0
LAYER
2
POINTS_COTES
70
0
62
7
6
CONTINUOUS
0
ENDTAB
0
ENDSEC
0
SECTION
2
ENTITIES
0
POLYLINE
8
CONTOURS_MINEURES
66
1
70
0
0
VERTEX
8
CONTOURS_MINEURES
10
29.283
20
-0.004
0
VERTEX
8
CONTOURS_MINEURES
10
29.999
20
0.333
0
VERTEX
8
CONTOURS_MINEURES
10
31.665
20
0.333
0
VERTEX
8
CONTOURS_MINEURES
10
32.003
20
0.333
0
VERTEX
8
CONTOURS_MINEURES
10
32.340
20
0.333
0
VERTEX
8
CONTOURS_MINEURES
10
33.997
20
0.333
0
VERTEX
8
CONTOURS_MINEURES
10
34.498
20
0.496
0
VERTEX
8
CONTOURS_MINEURES
10
36.002
20
0.845
0
VERTEX
8
CONTOURS_MINEURES
10
37.149
20
0.845
0
VERTEX
8
CONTOURS_MINEURES
10
37.996
20
0.845
0
VERTEX
8
CONTOURS_MINEURES
10
39.191
20
1.188
0
VERTEX
8
CONTOURS_MINEURES
10
40.000
20
1.360
0
VERTEX
8
CONTOURS_MINEURES
10
40.638
20
1.360
0
VERTEX
8
CONTOURS_MINEURES
10
42.005
20
1.360
0
VERTEX
8
CONTOURS_MINEURES
10
43.956
20
1.953
0
VERTEX
8
CONTOURS_MINEURES
10
43.999
20
1.958
0
VERTEX
8
CONTOURS_MINEURES
10
44.038
20
1.958
0
VERTEX
8
CONTOURS_MINEURES
10
46.004
20
1.958
0
VERTEX
8
CONTOURS_MINEURES
10
46.109
20
1.996
0
VERTEX
8
CONTOURS_MINEURES
10
46.109
20
2.102
0
VERTEX
8
CONTOURS_MINEURES
10
46.109
20
3.997
0
VERTEX
8
CONTOURS_MINEURES
10
47.620
20
4.376
0
VERTEX
8
CONTOURS_MINEURES
10
47.998
20
4.664
0
VERTEX
8
CONTOURS_MINEURES
10
48.666
20
4.664
0
VERTEX
8
CONTOURS_MINEURES
10
50.002
20
4.664
0
VERTEX
8
CONTOURS_MINEURES
10
50.667
20
4.664
0
VERTEX
8
CONTOURS_MINEURES
10
51.996
20
4.664
0
VERTEX
8
CONTOURS_MINEURES
10
53.142
20
4.855
0
VERTEX
8
CONTOURS_MINEURES
10
54.001
20
5.315
0
VERTEX
8
CONTOURS_MINEURES
10
55.314
20
5.315
0
VERTEX
8
CONTOURS_MINEURES
10
55.995
20
5.315
0
VERTEX
8
CONTOURS_MINEURES
10
57.331
20
4.664
0
VERTEX
8
CONTOURS_MINEURES
10
57.999
20
4.315
0
SEQEND
0
POLYLINE
8
CONTOURS_MINEURES
66
1
70
0
0
VERTEX
8
CONTOURS_MINEURES
10
1.713
20
-0.004
0
VERTEX
8
CONTOURS_MINEURES
10
1.894
20
0.100
0
VERTEX
8
CONTOURS_MINEURES
10
1.998
20
0.107
0
VERTEX
8
CONTOURS_MINEURES
10
3.891
20
0.107
0
VERTEX
8
CONTOURS_MINEURES
10
4.002
20
0.107
0
VERTEX
8
CONTOURS_MINEURES
10
5.886
20
0.107
0
VERTEX
8
CONTOURS_MINEURES
10
5.996
20
0.107
0
VERTEX
8
CONTOURS_MINEURES
10
6.200
20
0.199
0
VERTEX
8
CONTOURS_MINEURES
10
8.001
20
0.848
0
VERTEX
8
CONTOURS_MINEURES
10
9.146
20
0.848
0
VERTEX
8
CONTOURS_MINEURES
10
9.995
20
0.848
0
VERTEX
8
CONTOURS_MINEURES
10
11.839
20
1.836
0
VERTEX
8
CONTOURS_MINEURES
10
12.000
20
1.822
0
VERTEX
8
CONTOURS_MINEURES
10
13.830
20
1.822
0
VERTEX
8
CONTOURS_MINEURES
10
14.004
20
1.822
0
VERTEX
8
CONTOURS_MINEURES
10
14.226
20
1.774
0
VERTEX
8
CONTOURS_MINEURES
10
15.998
20
1.451
0
VERTEX
8
CONTOURS_MINEURES
10
17.456
20
1.451
0
VERTEX
8
CONTOURS_MINEURES
10
18.003
20
1.451
0
VERTEX
8
CONTOURS_MINEURES
10
18.547
20
1.451
0
VERTEX
8
CONTOURS_MINEURES
10
19.997
20
1.451
0
VERTEX
8
CONTOURS_MINEURES
10
21.280
20
1.276
0
VERTEX
8
CONTOURS_MINEURES
10
22.001
20
1.415
0
VERTEX
8
CONTOURS_MINEURES
10
22.580
20
1.415
0
VERTEX
8
CONTOURS_MINEURES
10
23.995
20
1.415
0
VERTEX
8
CONTOURS_MINEURES
10
25.800
20
1.996
0
VERTEX
8
CONTOURS_MINEURES
10
25.800
20
2.196
0
VERTEX
8
CONTOURS_MINEURES
10
25.800
20
3.997
0
VERTEX
8
CONTOURS_MINEURES
10
26.000
20
4.092
0
VERTEX
8
CONTOURS_MINEURES
10
27.909
20
4.092
0
VERTEX
8
CONTOURS_MINEURES
10
28.005
20
4.092
0
VERTEX
8
CONTOURS_MINEURES
10
28.112
20
4.105
0
VERTEX
8
CONTOURS_MINEURES
10
29.999
20
4.937
0
VERTEX
8
CONTOURS_MINEURES
10
30.940
20
4.937
0
VERTEX
8
CONTOURS_MINEURES
10
32.003
20
4.937
0
VERTEX
8
CONTOURS_MINEURES
10
32.940
20
4.937
0
VERTEX
8
CONTOURS_MINEURES
10
33.997
20
4.937
0
VERTEX
8
CONTOURS_MINEURES
10
34.752
20
5.245
0
VERTEX
8
CONTOURS_MINEURES
10
36.002
20
5.632
0
VERTEX
8
CONTOURS_MINEURES
10
36.367
20
5.632
0
VERTEX
8
CONTOURS_MINEURES
10
37.996
20
5.632
0
VERTEX
8
CONTOURS_MINEURES
10
39.857
20
5.998
0
VERTEX
8
CONTOURS_MINEURES
10
39.857
20
6.141
0
VERTEX
8
CONTOURS_MINEURES
10
39.857
20
7.999
0
VERTEX
8
CONTOURS_MINEURES
10
39.857
20
8.142
0
VERTEX
8
CONTOURS_MINEURES
10
39.857
20
9.999
0
VERTEX
8
CONTOURS_MINEURES
10
40.000
20
10.040
0
VERTEX
8
CONTOURS_MINEURES
10
41.964
20
10.040
0
VERTEX
8
CONTOURS_MINEURES
10
42.005
20
10.040
0
VERTEX
8
CONTOURS_MINEURES
10
43.353
20
10.648
0
VERTEX
8
CONTOURS_MINEURES
10
43.999
20
10.836
0
VERTEX
8
CONTOURS_MINEURES
10
45.165
20
10.836
0
VERTEX
8
CONTOURS_MINEURES
10
46.004
20
10.836
0
VERTEX
8
CONTOURS_MINEURES
10
47.827
20
12.000
0
VERTEX
8
CONTOURS_MINEURES
10
47.827
20
13.829
0
VERTEX
8
CONTOURS_MINEURES
10
47.827
20
14.001
0
VERTEX
8
CONTOURS_MINEURES
10
47.930
20
14.068
0
VERTEX
8
CONTOURS_MINEURES
10
47.998
20
14.076
0
VERTEX
8
CONTOURS_MINEURES
10
48.073
20
14.076
0
VERTEX
8
CONTOURS_MINEURES
10
50.002
20
14.076
0
VERTEX
8
CONTOURS_MINEURES
10
51.921
20
14.076
0
VERTEX
8
CONTOURS_MINEURES
10
51.996
20
14.076
0
VERTEX
8
CONTOURS_MINEURES
10
53.555
20
14.446
0
VERTEX
8
CONTOURS_MINEURES
10
54.001
20
14.558
0
VERTEX
8
CONTOURS_MINEURES
10
54.556
20
14.558
0
VERTEX
8
CONTOURS_MINEURES
10
55.995
20
14.558
0
VERTEX
8
CONTOURS_MINEURES
10
57.759
20
14.001
0
VERTEX
8
CONTOURS_MINEURES
10
57.759
20
13.761
0
VERTEX
8
CONTOURS_MINEURES
10
57.759
20
12.000
0
VERTEX
8
CONTOURS_MINEURES
10
57.999
20
11.909
0
SEQEND
0
POLYLINE
8
CONTOURS_MINEURES
66
1
70
0
0
VERTEX
8
CONTOURS_MINEURES
10
0.004
20
1.361
0
VERTEX
8
CONTOURS_MINEURES
10
0.406
20
1.593
0
VERTEX
8
CONTOURS_MINEURES
10
1.998
20
1.695
0
VERTEX
8
CONTOURS_MINEURES
10
2.300
20
1.695
0
VERTEX
8
CONTOURS_MINEURES
10
4.002
20
1.695
0
VERTEX
8
CONTOURS_MINEURES
10
4.303
20
1.695
0
VERTEX
8
CONTOURS_MINEURES
10
5.996
20
1.695
0
VERTEX
8
CONTOURS_MINEURES
10
6.665
20
1.996
0
VERTEX
8
CONTOURS_MINEURES
10
6.665
20
3.330
0
VERTEX
8
CONTOURS_MINEURES
10
6.665
20
3.997
0
VERTEX
8
CONTOURS_MINEURES
10
8.001
20
4.797
0
VERTEX
8
CONTOURS_MINEURES
10
9.197
20
4.797
0
VERTEX
8
CONTOURS_MINEURES
10
9.995
20
4.797
0
VERTEX
8
CONTOURS_MINEURES
10
11.489
20
5.488
0
VERTEX
8
CONTOURS_MINEURES
10
12.000
20
5.759
0
VERTEX
8
CONTOURS_MINEURES
10
13.765
20
5.759
0
VERTEX
8
CONTOURS_MINEURES
10
14.004
20
5.759
0
VERTEX
8
CONTOURS_MINEURES
10
14.652
20
5.998
0
VERTEX
8
CONTOURS_MINEURES
10
14.652
20
7.348
0
VERTEX
8
CONTOURS_MINEURES
10
14.652
20
7.999
0
VERTEX
8
CONTOURS_MINEURES
10
14.652
20
9.349
0
VERTEX
8
CONTOURS_MINEURES
10
14.652
20
9.999
0
VERTEX
8
CONTOURS_MINEURES
10
15.998
20
10.593
0
VERTEX
8
CONTOURS_MINEURES
10
17.408
20
10.593
0
VERTEX
8
CONTOURS_MINEURES
10
18.003
20
10.593
0
VERTEX
8
CONTOURS_MINEURES
10
18.594
20
10.593
0
VERTEX
8
CONTOURS_MINEURES
10
19.997
20
10.593
0
VERTEX
8
CONTOURS_MINEURES
10
21.122
20
10.877
0
VERTEX
8
CONTOURS_MINEURES
10
22.001
20
11.299
0
VERTEX
8
CONTOURS_MINEURES
10
23.296
20
11.299
0
VERTEX
8
CONTOURS_MINEURES
10
23.995
20
11.299
0
VERTEX
8
CONTOURS_MINEURES
10
24.617
20
11.379
0
VERTEX
8
CONTOURS_MINEURES
10
25.147
20
12.000
0
VERTEX
8
CONTOURS_MINEURES
10
25.147
20
13.150
0
VERTEX
8
CONTOURS_MINEURES
10
25.147
20
14.001
0
VERTEX
8
CONTOURS_MINEURES
10
26.000
20
14.472
0
VERTEX
8
CONTOURS_MINEURES
10
27.533
20
14.472
0
VERTEX
8
CONTOURS_MINEURES
10
28.005
20
14.472
0
VERTEX
8
CONTOURS_MINEURES
10
29.082
20
15.082
0
VERTEX
8
CONTOURS_MINEURES
10
29.999
20
15.278
0
VERTEX
8
CONTOURS_MINEURES
10
31.278
20
15.278
0
VERTEX
8
CONTOURS_MINEURES
10
32.003
20
15.278
0
VERTEX
8
CONTOURS_MINEURES
10
33.276
20
15.278
0
VERTEX
8
CONTOURS_MINEURES
10
33.997
20
15.278
0
VERTEX
8
CONTOURS_MINEURES
10
34.918
20
16.002
0
VERTEX
8
CONTOURS_MINEURES
10
34.918
20
17.083
0
VERTEX
8
CONTOURS_MINEURES
10
34.918
20
18.003
0
VERTEX
8
CONTOURS_MINEURES
10
36.002
20
18.566
0
VERTEX
8
CONTOURS_MINEURES
10
37.434
20
18.566
0
VERTEX
8
CONTOURS_MINEURES
10
37.996
20
18.566
0
VERTEX
8
CONTOURS_MINEURES
10
39.290
20
18.712
0
VERTEX
8
CONTOURS_MINEURES
10
40.000
20
19.305
0
VERTEX
8
CONTOURS_MINEURES
10
40.700
20
19.305
0
VERTEX
8
CONTOURS_MINEURES
10
42.005
20
19.305
0
VERTEX
8
CONTOURS_MINEURES
10
42.985
20
18.985
0
VERTEX
8
CONTOURS_MINEURES
10
43.999
20
18.654
0
VERTEX
8
CONTOURS_MINEURES
10
45.351
20
18.654
0
VERTEX
8
CONTOURS_MINEURES
10
46.004
20
18.654
0
VERTEX
8
CONTOURS_MINEURES
10
46.611
20
18.611
0
VERTEX
8
CONTOURS_MINEURES
10
47.998
20
18.839
0
VERTEX
8
CONTOURS_MINEURES
10
48.836
20
18.839
0
VERTEX
8
CONTOURS_MINEURES
10
50.002
20
18.839
0
VERTEX
8
CONTOURS_MINEURES
10
50.836
20
18.839
0
VERTEX
8
CONTOURS_MINEURES
10
51.996
20
18.839
0
VERTEX
8
CONTOURS_MINEURES
10
53.422
20
20.003
0
VERTEX
8
CONTOURS_MINEURES
10
53.422
20
20.581
0
VERTEX
8
CONTOURS_MINEURES
10
53.422
20
22.004
0
VERTEX
8
CONTOURS_MINEURES
10
53.422
20
23.427
0
VERTEX
8
CONTOURS_MINEURES
10
53.422
20
24.005
0
VERTEX
8
CONTOURS_MINEURES
10
54.001
20
24.636
0
VERTEX
8
CONTOURS_MINEURES
10
55.363
20
24.636
0
VERTEX
8
CONTOURS_MINEURES
10
55.995
20
24.636
0
VERTEX
8
CONTOURS_MINEURES
10
57.554
20
25.995
0
VERTEX
8
CONTOURS_MINEURES
10
57.554
20
26.439
0
VERTEX
8
CONTOURS_MINEURES
10
57.554
20
27.995
0
VERTEX
8
CONTOURS_MINEURES
10
57.999
20
28.417
0
SEQEND
0
POLYLINE
8
CONTOURS_MINEURES
66
1
70
0
0
VERTEX
8
CONTOURS_MINEURES
10
0.004
20
18.285
0
VERTEX
8
CONTOURS_MINEURES
10
1.456
20
18.546
0
VERTEX
8
CONTOURS_MINEURES
10
1.998
20
18.912
0
VERTEX
8
CONTOURS_MINEURES
10
3.091
20
18.912
0
VERTEX
8
CONTOURS_MINEURES
10
4.002
20
18.912
0
VERTEX
8
CONTOURS_MINEURES
10
5.090
20
18.912
0
VERTEX
8
CONTOURS_MINEURES
10
5.996
20
18.912
0
VERTEX
8
CONTOURS_MINEURES
10
7.613
20
19.616
0
VERTEX
8
CONTOURS_MINEURES
10
8.001
20
19.542
0
VERTEX
8
CONTOURS_MINEURES
10
9.535
20
19.542
0
VERTEX
8
CONTOURS_MINEURES
10
9.995
20
19.542
0
VERTEX
8
CONTOURS_MINEURES
10
10.702
20
19.297
0
VERTEX
8
CONTOURS_MINEURES
10
12.000
20
18.452
0
VERTEX
8
CONTOURS_MINEURES
10
12.450
20
18.452
0
VERTEX
8
CONTOURS_MINEURES
10
14.004
20
18.452
0
VERTEX
8
CONTOURS_MINEURES
10
14.396
20
18.396
0
VERTEX
8
CONTOURS_MINEURES
10
15.998
20
18.088
0
VERTEX
8
CONTOURS_MINEURES
10
16.083
20
18.088
0
VERTEX
8
CONTOURS_MINEURES
10
18.003
20
18.088
0
VERTEX
8
CONTOURS_MINEURES
10
19.912
20
18.088
0
VERTEX
8
CONTOURS_MINEURES
10
19.997
20
18.088
0
VERTEX
8
CONTOURS_MINEURES
10
21.958
20
18.046
0
VERTEX
8
CONTOURS_MINEURES
10
22.001
20
18.043
0
VERTEX
8
CONTOURS_MINEURES
10
23.955
20
18.043
0
VERTEX
8
CONTOURS_MINEURES
10
23.995
20
18.043
0
VERTEX
8
CONTOURS_MINEURES
10
25.165
20
18.836
0
VERTEX
8
CONTOURS_MINEURES
10
26.000
20
18.867
0
VERTEX
8
CONTOURS_MINEURES
10
27.138
20
18.867
0
VERTEX
8
CONTOURS_MINEURES
10
28.005
20
18.867
0
VERTEX
8
CONTOURS_MINEURES
10
29.490
20
19.492
0
VERTEX
8
CONTOURS_MINEURES
10
29.999
20
19.751
0
VERTEX
8
CONTOURS_MINEURES
10
30.252
20
19.751
0
VERTEX
8
CONTOURS_MINEURES
10
32.003
20
19.751
0
VERTEX
8
CONTOURS_MINEURES
10
32.255
20
19.751
0
VERTEX
8
CONTOURS_MINEURES
10
33.997
20
19.751
0
VERTEX
8
CONTOURS_MINEURES
10
34.392
20
20.003
0
VERTEX
8
CONTOURS_MINEURES
10
34.392
20
21.610
0
VERTEX
8
CONTOURS_MINEURES
10
34.392
20
22.004
0
VERTEX
8
CONTOURS_MINEURES
10
34.392
20
22.398
0
VERTEX
8
CONTOURS_MINEURES
10
34.392
20
24.005
0
VERTEX
8
CONTOURS_MINEURES
10
35.176
20
24.824
0
VERTEX
8
CONTOURS_MINEURES
10
36.002
20
25.255
0
VERTEX
8
CONTOURS_MINEURES
10
37.254
20
25.255
0
VERTEX
8
CONTOURS_MINEURES
10
37.996
20
25.255
0
VERTEX
8
CONTOURS_MINEURES
10
39.207
20
25.995
0
VERTEX
8
CONTOURS_MINEURES
10
39.207
20
26.787
0
VERTEX
8
CONTOURS_MINEURES
10
39.207
20
27.995
0
VERTEX
8
CONTOURS_MINEURES
10
39.623
20
28.372
0
VERTEX
8
CONTOURS_MINEURES
10
40.000
20
28.571
0
VERTEX
8
CONTOURS_MINEURES
10
41.428
20
28.571
0
VERTEX
8
CONTOURS_MINEURES
10
42.005
20
28.571
0
VERTEX
8
CONTOURS_MINEURES
10
43.268
20
29.263
0
VERTEX
8
CONTOURS_MINEURES
10
43.999
20
29.589
0
VERTEX
8
CONTOURS_MINEURES
10
44.407
20
29.589
0
VERTEX
8
CONTOURS_MINEURES
10
46.004
20
29.589
0
VERTEX
8
CONTOURS_MINEURES
10
46.395
20
29.603
0
VERTEX
8
CONTOURS_MINEURES
10
46.613
20
29.996
0
VERTEX
8
CONTOURS_MINEURES
10
46.613
20
31.386
0
VERTEX
8
CONTOURS_MINEURES
10
46.613
20
31.997
0
VERTEX
8
CONTOURS_MINEURES
10
47.998
20
33.039
0
VERTEX
8
CONTOURS_MINEURES
10
49.042
20
33.039
0
VERTEX
8
CONTOURS_MINEURES
10
50.002
20
33.039
0
VERTEX
8
CONTOURS_MINEURES
10
50.958
20
33.039
0
VERTEX
8
CONTOURS_MINEURES
10
51.996
20
33.039
0
VERTEX
8
CONTOURS_MINEURES
10
52.695
20
33.300
0
VERTEX
8
CONTOURS_MINEURES
10
53.314
20
33.998
0
VERTEX
8
CONTOURS_MINEURES
10
53.314
20
35.312
0
VERTEX
8
CONTOURS_MINEURES
10
53.314
20
35.998
0
VERTEX
8
CONTOURS_MINEURES
10
53.314
20
37.313
0
VERTEX
8
CONTOURS_MINEURES
10
53.314
20
37.999
0
VERTEX
8
CONTOURS_MINEURES
10
54.001
20
38.420
0
VERTEX
8
CONTOURS_MINEURES
10
55.575
20
38.420
0
VERTEX
8
CONTOURS_MINEURES
10
55.995
20
38.420
0
VERTEX
8
CONTOURS_MINEURES
10
57.069
20
38.928
0
VERTEX
8
CONTOURS_MINEURES
10
57.999
20
39.733
0
SEQEND
0
POLYLINE
8
CONTOURS_MINEURES
66
1
70
0
0
VERTEX
8
CONTOURS_MINEURES
10
0.004
20
25.688
0
VERTEX
8
CONTOURS_MINEURES
10
1.320
20
25.318
0
VERTEX
8
CONTOURS_MINEURES
10
1.998
20
25.606
0
VERTEX
8
CONTOURS_MINEURES
10
3.611
20
25.606
0
VERTEX
8
CONTOURS_MINEURES
10
4.002
20
25.606
0
VERTEX
8
CONTOURS_MINEURES
10
4.392
20
25.606
0
VERTEX
8
CONTOURS_MINEURES
10
5.996
20
25.606
0
VERTEX
8
CONTOURS_MINEURES
10
6.303
20
25.690
0
VERTEX
8
CONTOURS_MINEURES
10
8.001
20
25.753
0
VERTEX
8
CONTOURS_MINEURES
10
9.753
20
25.753
0
VERTEX
8
CONTOURS_MINEURES
10
9.995
20
25.753
0
VERTEX
8
CONTOURS_MINEURES
10
11.693
20
25.690
0
VERTEX
8
CONTOURS_MINEURES
10
12.000
20
25.566
0
VERTEX
8
CONTOURS_MINEURES
10
12.431
20
25.566
0
VERTEX
8
CONTOURS_MINEURES
10
14.004
20
25.566
0
VERTEX
8
CONTOURS_MINEURES
10
15.796
20
25.793
0
VERTEX
8
CONTOURS_MINEURES
10
15.998
20
25.770
0
VERTEX
8
CONTOURS_MINEURES
10
16.225
20
25.770
0
VERTEX
8
CONTOURS_MINEURES
10
18.003
20
25.770
0
VERTEX
8
CONTOURS_MINEURES
10
19.772
20
25.770
0
VERTEX
8
CONTOURS_MINEURES
10
19.997
20
25.770
0
VERTEX
8
CONTOURS_MINEURES
10
21.693
20
25.688
0
VERTEX
8
CONTOURS_MINEURES
10
22.001
20
25.668
0
VERTEX
8
CONTOURS_MINEURES
10
22.328
20
25.668
0
VERTEX
8
CONTOURS_MINEURES
10
23.995
20
25.668
0
VERTEX
8
CONTOURS_MINEURES
10
24.309
20
25.684
0
VERTEX
8
CONTOURS_MINEURES
10
26.000
20
25.958
0
VERTEX
8
CONTOURS_MINEURES
10
27.968
20
25.958
0
VERTEX
8
CONTOURS_MINEURES
10
28.005
20
25.958
0
VERTEX
8
CONTOURS_MINEURES
10
28.027
20
25.972
0
VERTEX
8
CONTOURS_MINEURES
10
28.069
20
25.995
0
VERTEX
8
CONTOURS_MINEURES
10
28.069
20
27.931
0
VERTEX
8
CONTOURS_MINEURES
10
28.069
20
27.995
0
VERTEX
8
CONTOURS_MINEURES
10
29.999
20
29.013
0
VERTEX
8
CONTOURS_MINEURES
10
30.984
20
29.013
0
VERTEX
8
CONTOURS_MINEURES
10
32.003
20
29.013
0
VERTEX
8
CONTOURS_MINEURES
10
32.983
20
29.013
0
VERTEX
8
CONTOURS_MINEURES
10
33.997
20
29.013
0
VERTEX
8
CONTOURS_MINEURES
10
35.234
20
29.996
0
VERTEX
8
CONTOURS_MINEURES
10
35.234
20
30.762
0
VERTEX
8
CONTOURS_MINEURES
10
35.234
20
31.997
0
VERTEX
8
CONTOURS_MINEURES
10
36.002
20
32.490
0
VERTEX
8
CONTOURS_MINEURES
10
36.494
20
32.490
0
VERTEX
8
CONTOURS_MINEURES
10
37.996
20
32.490
0
VERTEX
8
CONTOURS_MINEURES
10
39.017
20
32.979
0
VERTEX
8
CONTOURS_MINEURES
10
39.865
20
33.998
0
VERTEX
8
CONTOURS_MINEURES
10
39.865
20
35.863
0
VERTEX
8
CONTOURS_MINEURES
10
39.865
20
35.998
0
VERTEX
8
CONTOURS_MINEURES
10
39.865
20
37.864
0
VERTEX
8
CONTOURS_MINEURES
10
39.865
20
37.999
0
VERTEX
8
CONTOURS_MINEURES
10
39.921
20
38.078
0
VERTEX
8
CONTOURS_MINEURES
10
40.000
20
38.170
0
VERTEX
8
CONTOURS_MINEURES
10
40.171
20
38.170
0
VERTEX
8
CONTOURS_MINEURES
10
42.005
20
38.170
0
VERTEX
8
CONTOURS_MINEURES
10
42.991
20
39.011
0
VERTEX
8
CONTOURS_MINEURES
10
43.791
20
40.000
0
VERTEX
8
CONTOURS_MINEURES
10
43.791
20
40.208
0
VERTEX
8
CONTOURS_MINEURES
10
43.791
20
42.001
0
VERTEX
8
CONTOURS_MINEURES
10
43.999
20
42.126
0
VERTEX
8
CONTOURS_MINEURES
10
45.878
20
42.126
0
VERTEX
8
CONTOURS_MINEURES
10
46.004
20
42.126
0
VERTEX
8
CONTOURS_MINEURES
10
46.211
20
42.209
0
VERTEX
8
CONTOURS_MINEURES
10
47.998
20
42.755
0
VERTEX
8
CONTOURS_MINEURES
10
49.247
20
42.755
0
VERTEX
8
CONTOURS_MINEURES
10
50.002
20
42.755
0
VERTEX
8
CONTOURS_MINEURES
10
50.754
20
42.755
0
VERTEX
8
CONTOURS_MINEURES
10
51.996
20
42.755
0
VERTEX
8
CONTOURS_MINEURES
10
53.267
20
43.270
0
VERTEX
8
CONTOURS_MINEURES
10
54.001
20
43.573
0
VERTEX
8
CONTOURS_MINEURES
10
54.428
20
43.573
0
VERTEX
8
CONTOURS_MINEURES
10
55.995
20
43.573
0
VERTEX
8
CONTOURS_MINEURES
10
56.271
20
43.726
0
VERTEX
8
CONTOURS_MINEURES
10
57.427
20
44.002
0
VERTEX
8
CONTOURS_MINEURES
10
57.427
20
45.431
0
VERTEX
8
CONTOURS_MINEURES
10
57.427
20
46.002
0
VERTEX
8
CONTOURS_MINEURES
10
57.427
20
46.574
0
VERTEX
8
CONTOURS_MINEURES
10
57.427
20
48.003
0
VERTEX
8
CONTOURS_MINEURES
10
57.999
20
48.126
0
SEQEND
0
POLYLINE
8
CONTOURS_MINEURES
66
1
70
0
0
VERTEX
8
CONTOURS_MINEURES
10
0.004
20
33.397
0
VERTEX
8
CONTOURS_MINEURES
10
0.602
20
33.397
0
VERTEX
8
CONTOURS_MINEURES
10
1.231
20
33.998
0
VERTEX
8
CONTOURS_MINEURES
10
1.231
20
35.229
0
VERTEX
8
CONTOURS_MINEURES
10
1.231
20
35.998
0
VERTEX
8
CONTOURS_MINEURES
10
1.231
20
37.230
0
VERTEX
8
CONTOURS_MINEURES
10
1.231
20
37.999
0
VERTEX
8
CONTOURS_MINEURES
10
1.769
20
38.228
0
VERTEX
8
CONTOURS_MINEURES
10
1.998
20
38.319
0
VERTEX
8
CONTOURS_MINEURES
10
2.318
20
38.319
0
VERTEX
8
CONTOURS_MINEURES
10
4.002
20
38.319
0
VERTEX
8
CONTOURS_MINEURES
10
4.321
20
38.319
0
VERTEX
8
CONTOURS_MINEURES
10
5.996
20
38.319
0
VERTEX
8
CONTOURS_MINEURES
10
7.549
20
38.450
0
VERTEX
8
CONTOURS_MINEURES
10
8.001
20
38.779
0
VERTEX
8
CONTOURS_MINEURES
10
9.218
20
38.779
0
VERTEX
8
CONTOURS_MINEURES
10
9.995
20
38.779
0
VERTEX
8
CONTOURS_MINEURES
10
11.410
20
38.588
0
VERTEX
8
CONTOURS_MINEURES
10
12.000
20
39.500
0
VERTEX
8
CONTOURS_MINEURES
10
12.501
20
39.500
0
VERTEX
8
CONTOURS_MINEURES
10
14.004
20
39.500
0
VERTEX
8
CONTOURS_MINEURES
10
15.500
20
39.500
0
VERTEX
8
CONTOURS_MINEURES
10
15.998
20
39.166
0
VERTEX
8
CONTOURS_MINEURES
10
17.168
20
39.166
0
VERTEX
8
CONTOURS_MINEURES
10
18.003
20
39.166
0
VERTEX
8
CONTOURS_MINEURES
10
18.834
20
39.166
0
VERTEX
8
CONTOURS_MINEURES
10
19.997
20
39.166
0
VERTEX
8
CONTOURS_MINEURES
10
20.435
20
38.437
0
VERTEX
8
CONTOURS_MINEURES
10
22.001
20
37.999
0
VERTEX
8
CONTOURS_MINEURES
10
22.001
20
35.998
0
VERTEX
8
CONTOURS_MINEURES
10
22.001
20
33.998
0
VERTEX
8
CONTOURS_MINEURES
10
23.995
20
33.998
0
VERTEX
8
CONTOURS_MINEURES
10
25.709
20
33.707
0
VERTEX
8
CONTOURS_MINEURES
10
26.000
20
33.687
0
VERTEX
8
CONTOURS_MINEURES
10
27.694
20
33.687
0
VERTEX
8
CONTOURS_MINEURES
10
28.005
20
33.687
0
VERTEX
8
CONTOURS_MINEURES
10
29.848
20
33.847
0
VERTEX
8
CONTOURS_MINEURES
10
29.999
20
33.891
0
VERTEX
8
CONTOURS_MINEURES
10
30.106
20
33.891
0
VERTEX
8
CONTOURS_MINEURES
10
32.003
20
33.891
0
VERTEX
8
CONTOURS_MINEURES
10
32.110
20
33.891
0
VERTEX
8
CONTOURS_MINEURES
10
33.997
20
33.891
0
VERTEX
8
CONTOURS_MINEURES
10
34.161
20
33.998
0
VERTEX
8
CONTOURS_MINEURES
10
34.161
20
34.161
0
VERTEX
8
CONTOURS_MINEURES
10
34.161
20
35.998
0
VERTEX
8
CONTOURS_MINEURES
10
34.161
20
37.836
0
VERTEX
8
CONTOURS_MINEURES
10
34.161
20
37.999
0
VERTEX
8
CONTOURS_MINEURES
10
35.143
20
39.143
0
VERTEX
8
CONTOURS_MINEURES
10
35.839
20
40.000
0
VERTEX
8
CONTOURS_MINEURES
10
35.839
20
40.162
0
VERTEX
8
CONTOURS_MINEURES
10
35.839
20
42.001
0
VERTEX
8
CONTOURS_MINEURES
10
35.893
20
42.110
0
VERTEX
8
CONTOURS_MINEURES
10
36.002
20
42.134
0
VERTEX
8
CONTOURS_MINEURES
10
37.863
20
42.134
0
VERTEX
8
CONTOURS_MINEURES
10
37.996
20
42.134
0
VERTEX
8
CONTOURS_MINEURES
10
38.846
20
43.153
0
VERTEX
8
CONTOURS_MINEURES
10
40.000
20
43.783
0
VERTEX
8
CONTOURS_MINEURES
10
41.786
20
43.783
0
VERTEX
8
CONTOURS_MINEURES
10
42.005
20
43.783
0
VERTEX
8
CONTOURS_MINEURES
10
42.441
20
44.002
0
VERTEX
8
CONTOURS_MINEURES
10
42.441
20
45.565
0
VERTEX
8
CONTOURS_MINEURES
10
42.441
20
46.002
0
VERTEX
8
CONTOURS_MINEURES
10
42.441
20
46.440
0
VERTEX
8
CONTOURS_MINEURES
10
42.441
20
48.003
0
VERTEX
8
CONTOURS_MINEURES
10
43.480
20
48.524
0
VERTEX
8
CONTOURS_MINEURES
10
43.999
20
48.585
0
VERTEX
8
CONTOURS_MINEURES
10
44.582
20
48.585
0
VERTEX
8
CONTOURS_MINEURES
10
46.004
20
48.585
0
VERTEX
8
CONTOURS_MINEURES
10
46.962
20
48.965
0
VERTEX
8
CONTOURS_MINEURES
10
47.998
20
49.361
0
VERTEX
8
CONTOURS_MINEURES
10
49.358
20
49.361
0
VERTEX
8
CONTOURS_MINEURES
10
50.002
20
49.361
0
VERTEX
8
CONTOURS_MINEURES
10
50.643
20
49.361
0
VERTEX
8
CONTOURS_MINEURES
10
51.996
20
49.361
0
VERTEX
8
CONTOURS_MINEURES
10
52.479
20
49.522
0
VERTEX
8
CONTOURS_MINEURES
10
53.349
20
50.004
0
VERTEX
8
CONTOURS_MINEURES
10
53.349
20
51.354
0
VERTEX
8
CONTOURS_MINEURES
10
53.349
20
52.005
0
VERTEX
8
CONTOURS_MINEURES
10
54.001
20
52.223
0
VERTEX
8
CONTOURS_MINEURES
10
54.219
20
52.223
0
VERTEX
8
CONTOURS_MINEURES
10
55.995
20
52.223
0
VERTEX
8
CONTOURS_MINEURES
10
57.859
20
52.145
0
VERTEX
8
CONTOURS_MINEURES
10
57.999
20
52.118
0
SEQEND
0
POLYLINE
8
CONTOURS_MINEURES
66
1
70
0
0
VERTEX
8
CONTOURS_MINEURES
10
0.004
20
39.652
0
VERTEX
8
CONTOURS_MINEURES
10
0.247
20
39.756
0
VERTEX
8
CONTOURS_MINEURES
10
0.866
20
40.000
0
VERTEX
8
CONTOURS_MINEURES
10
0.866
20
40.865
0
VERTEX
8
CONTOURS_MINEURES
10
0.866
20
42.001
0
VERTEX
8
CONTOURS_MINEURES
10
1.468
20
42.533
0
VERTEX
8
CONTOURS_MINEURES
10
1.998
20
42.914
0
VERTEX
8
CONTOURS_MINEURES
10
2.913
20
42.914
0
VERTEX
8
CONTOURS_MINEURES
10
4.002
20
42.914
0
VERTEX
8
CONTOURS_MINEURES
10
5.086
20
42.914
0
VERTEX
8
CONTOURS_MINEURES
10
5.996
20
42.914
0
VERTEX
8
CONTOURS_MINEURES
10
6.559
20
43.440
0
VERTEX
8
CONTOURS_MINEURES
10
7.281
20
44.002
0
VERTEX
8
CONTOURS_MINEURES
10
7.281
20
44.720
0
VERTEX
8
CONTOURS_MINEURES
10
7.281
20
46.002
0
VERTEX
8
CONTOURS_MINEURES
10
7.281
20
47.285
0
VERTEX
8
CONTOURS_MINEURES
10
7.281
20
48.003
0
VERTEX
8
CONTOURS_MINEURES
10
7.667
20
48.337
0
VERTEX
8
CONTOURS_MINEURES
10
8.001
20
48.362
0
VERTEX
8
CONTOURS_MINEURES
10
8.359
20
48.362
0
VERTEX
8
CONTOURS_MINEURES
10
9.995
20
48.362
0
VERTEX
8
CONTOURS_MINEURES
10
11.183
20
48.818
0
VERTEX
8
CONTOURS_MINEURES
10
12.000
20
48.940
0
VERTEX
8
CONTOURS_MINEURES
10
12.938
20
48.940
0
VERTEX
8
CONTOURS_MINEURES
10
14.004
20
48.940
0
VERTEX
8
CONTOURS_MINEURES
10
15.517
20
49.521
0
VERTEX
8
CONTOURS_MINEURES
10
15.998
20
49.625
0
VERTEX
8
CONTOURS_MINEURES
10
17.624
20
49.625
0
VERTEX
8
CONTOURS_MINEURES
10
18.003
20
49.625
0
VERTEX
8
CONTOURS_MINEURES
10
18.380
20
49.625
0
VERTEX
8
CONTOURS_MINEURES
10
19.997
20
49.625
0
VERTEX
8
CONTOURS_MINEURES
10
20.387
20
49.615
0
VERTEX
8
CONTOURS_MINEURES
10
21.272
20
50.004
0
VERTEX
8
CONTOURS_MINEURES
10
21.272
20
51.277
0
VERTEX
8
CONTOURS_MINEURES
10
21.272
20
52.005
0
VERTEX
8
CONTOURS_MINEURES
10
21.852
20
52.154
0
VERTEX
8
CONTOURS_MINEURES
10
22.001
20
52.197
0
VERTEX
8
CONTOURS_MINEURES
10
23.803
20
52.197
0
VERTEX
8
CONTOURS_MINEURES
10
23.995
20
52.197
0
VERTEX
8
CONTOURS_MINEURES
10
25.724
20
52.281
0
VERTEX
8
CONTOURS_MINEURES
10
26.000
20
52.343
0
VERTEX
8
CONTOURS_MINEURES
10
27.666
20
52.343
0
VERTEX
8
CONTOURS_MINEURES
10
28.005
20
52.343
0
VERTEX
8
CONTOURS_MINEURES
10
28.391
20
52.392
0
VERTEX
8
CONTOURS_MINEURES
10
29.999
20
52.418
0
VERTEX
8
CONTOURS_MINEURES
10
30.412
20
52.418
0
VERTEX
8
CONTOURS_MINEURES
10
32.003
20
52.418
0
VERTEX
8
CONTOURS_MINEURES
10
33.586
20
52.418
0
VERTEX
8
CONTOURS_MINEURES
10
33.997
20
52.418
0
VERTEX
8
CONTOURS_MINEURES
10
34.498
20
52.505
0
VERTEX
8
CONTOURS_MINEURES
10
36.002
20
52.786
0
VERTEX
8
CONTOURS_MINEURES
10
37.217
20
52.786
0
VERTEX
8
CONTOURS_MINEURES
10
37.996
20
52.786
0
VERTEX
8
CONTOURS_MINEURES
10
39.146
20
52.858
0
VERTEX
8
CONTOURS_MINEURES
10
40.000
20
53.041
0
VERTEX
8
CONTOURS_MINEURES
10
41.039
20
53.041
0
VERTEX
8
CONTOURS_MINEURES
10
42.005
20
53.041
0
VERTEX
8
CONTOURS_MINEURES
10
42.821
20
53.187
0
VERTEX
8
CONTOURS_MINEURES
10
43.999
20
53.350
0
VERTEX
8
CONTOURS_MINEURES
10
45.347
20
53.350
0
VERTEX
8
CONTOURS_MINEURES
10
46.004
20
53.350
0
VERTEX
8
CONTOURS_MINEURES
10
47.591
20
53.597
0
VERTEX
8
CONTOURS_MINEURES
10
47.998
20
53.764
0
VERTEX
8
CONTOURS_MINEURES
10
49.761
20
53.764
0
VERTEX
8
CONTOURS_MINEURES
10
50.002
20
53.764
0
VERTEX
8
CONTOURS_MINEURES
10
50.243
20
53.764
0
VERTEX
8
CONTOURS_MINEURES
10
51.996
20
53.764
0
VERTEX
8
CONTOURS_MINEURES
10
53.849
20
53.853
0
VERTEX
8
CONTOURS_MINEURES
10
54.001
20
53.905
0
VERTEX
8
CONTOURS_MINEURES
10
55.894
20
53.905
0
VERTEX
8
CONTOURS_MINEURES
10
55.995
20
53.905
0
VERTEX
8
CONTOURS_MINEURES
10
56.100
20
53.900
0
VERTEX
8
CONTOURS_MINEURES
10
57.999
20
53.537
0
SEQEND
0
POLYLINE
8
CONTOURS_MINEURES
66
1
70
0
0
VERTEX
8
CONTOURS_MINEURES
10
0.004
20
52.458
0
VERTEX
8
CONTOURS_MINEURES
10
1.318
20
52.687
0
VERTEX
8
CONTOURS_MINEURES
10
1.998
20
52.636
0
VERTEX
8
CONTOURS_MINEURES
10
3.369
20
52.636
0
VERTEX
8
CONTOURS_MINEURES
10
4.002
20
52.636
0
VERTEX
8
CONTOURS_MINEURES
10
4.632
20
52.636
0
VERTEX
8
CONTOURS_MINEURES
10
5.996
20
52.636
0
VERTEX
8
CONTOURS_MINEURES
10
6.696
20
52.703
0
VERTEX
8
CONTOURS_MINEURES
10
8.001
20
52.788
0
VERTEX
8
CONTOURS_MINEURES
10
8.781
20
52.788
0
VERTEX
8
CONTOURS_MINEURES
10
9.995
20
52.788
0
VERTEX
8
CONTOURS_MINEURES
10
11.054
20
52.948
0
VERTEX
8
CONTOURS_MINEURES
10
12.000
20
53.182
0
VERTEX
8
CONTOURS_MINEURES
10
13.179
20
53.182
0
VERTEX
8
CONTOURS_MINEURES
10
14.004
20
53.182
0
VERTEX
8
CONTOURS_MINEURES
10
14.581
20
53.427
0
VERTEX
8
CONTOURS_MINEURES
10
15.943
20
54.005
0
VERTEX
8
CONTOURS_MINEURES
10
15.943
20
55.940
0
VERTEX
8
CONTOURS_MINEURES
10
15.943
20
55.995
0
VERTEX
8
CONTOURS_MINEURES
10
15.978
20
56.016
0
VERTEX
8
CONTOURS_MINEURES
10
15.998
20
56.023
0
VERTEX
8
CONTOURS_MINEURES
10
16.026
20
56.023
0
VERTEX
8
CONTOURS_MINEURES
10
18.003
20
56.023
0
VERTEX
8
CONTOURS_MINEURES
10
19.969
20
56.023
0
VERTEX
8
CONTOURS_MINEURES
10
19.997
20
56.023
0
VERTEX
8
CONTOURS_MINEURES
10
20.036
20
56.034
0
VERTEX
8
CONTOURS_MINEURES
10
22.001
20
56.662
0
VERTEX
8
CONTOURS_MINEURES
10
23.331
20
56.662
0
VERTEX
8
CONTOURS_MINEURES
10
23.995
20
56.662
0
VERTEX
8
CONTOURS_MINEURES
10
24.941
20
56.939
0
VERTEX
8
CONTOURS_MINEURES
10
26.000
20
57.184
0
VERTEX
8
CONTOURS_MINEURES
10
26.814
20
57.184
0
VERTEX
8
CONTOURS_MINEURES
10
28.005
20
57.184
0
VERTEX
8
CONTOURS_MINEURES
10
29.302
20
57.297
0
VERTEX
8
CONTOURS_MINEURES
10
29.999
20
57.385
0
VERTEX
8
CONTOURS_MINEURES
10
31.391
20
57.385
0
VERTEX
8
CONTOURS_MINEURES
10
32.003
20
57.385
0
VERTEX
8
CONTOURS_MINEURES
10
32.613
20
57.385
0
VERTEX
8
CONTOURS_MINEURES
10
33.997
20
57.385
0
VERTEX
8
CONTOURS_MINEURES
10
34.529
20
57.466
0
VERTEX
8
CONTOURS_MINEURES
10
36.002
20
57.644
0
VERTEX
8
CONTOURS_MINEURES
10
37.645
20
57.644
0
VERTEX
8
CONTOURS_MINEURES
10
37.996
20
57.644
0
VERTEX
8
CONTOURS_MINEURES
10
38.894
20
57.996
0
VERTEX
8
CONTOURS_MINEURES
10
38.894
20
58.893
0
VERTEX
8
CONTOURS_MINEURES
10
38.894
20
59.997
0
VERTEX
8
CONTOURS_MINEURES
10
38.894
20
61.101
0
VERTEX
8
CONTOURS_MINEURES
10
38.894
20
61.997
0
VERTEX
8
CONTOURS_MINEURES
10
39.567
20
62.430
0
VERTEX
8
CONTOURS_MINEURES
10
40.000
20
63.998
0
VERTEX
8
CONTOURS_MINEURES
10
42.005
20
63.998
0
SEQEND
0
POLYLINE
8
CONTOURS_MINEURES
66
1
70
0
0
VERTEX
8
CONTOURS_MINEURES
10
0.004
20
56.909
0
VERTEX
8
CONTOURS_MINEURES
10
1.091
20
57.086
0
VERTEX
8
CONTOURS_MINEURES
10
1.998
20
56.996
0
VERTEX
8
CONTOURS_MINEURES
10
3.000
20
56.996
0
VERTEX
8
CONTOURS_MINEURES
10
4.002
20
56.996
0
VERTEX
8
CONTOURS_MINEURES
10
4.999
20
56.996
0
VERTEX
8
CONTOURS_MINEURES
10
5.996
20
56.996
0
VERTEX
8
CONTOURS_MINEURES
10
6.884
20
57.109
0
VERTEX
8
CONTOURS_MINEURES
10
8.001
20
57.540
0
VERTEX
8
CONTOURS_MINEURES
10
9.540
20
57.540
0
VERTEX
8
CONTOURS_MINEURES
10
9.995
20
57.540
0
VERTEX
8
CONTOURS_MINEURES
10
10.329
20
57.662
0
VERTEX
8
CONTOURS_MINEURES
10
11.528
20
57.996
0
VERTEX
8
CONTOURS_MINEURES
10
11.528
20
59.526
0
VERTEX
8
CONTOURS_MINEURES
10
11.528
20
59.997
0
VERTEX
8
CONTOURS_MINEURES
10
11.528
20
60.467
0
VERTEX
8
CONTOURS_MINEURES
10
11.528
20
61.997
0
VERTEX
8
CONTOURS_MINEURES
10
11.891
20
62.106
0
VERTEX
8
CONTOURS_MINEURES
10
12.000
20
62.110
0
VERTEX
8
CONTOURS_MINEURES
10
13.891
20
62.110
0
VERTEX
8
CONTOURS_MINEURES
10
14.004
20
62.110
0
VERTEX
8
CONTOURS_MINEURES
10
14.170
20
62.164
0
VERTEX
8
CONTOURS_MINEURES
10
15.998
20
62.776
0
VERTEX
8
CONTOURS_MINEURES
10
17.223
20
62.776
0
VERTEX
8
CONTOURS_MINEURES
10
18.003
20
62.776
0
VERTEX
8
CONTOURS_MINEURES
10
19.221
20
62.776
0
VERTEX
8
CONTOURS_MINEURES
10
19.997
20
62.776
0
VERTEX
8
CONTOURS_MINEURES
10
20.935
20
63.062
0
VERTEX
8
CONTOURS_MINEURES
10
22.001
20
63.469
0
VERTEX
8
CONTOURS_MINEURES
10
23.468
20
63.469
0
VERTEX
8
CONTOURS_MINEURES
10
23.995
20
63.469
0
VERTEX
8
CONTOURS_MINEURES
10
24.396
20
63.598
0
VERTEX
8
CONTOURS_MINEURES
10
26.000
20
63.971
0
VERTEX
8
CONTOURS_MINEURES
10
27.977
20
63.971
0
VERTEX
8
CONTOURS_MINEURES
10
28.005
20
63.971
0
VERTEX
8
CONTOURS_MINEURES
10
28.030
20
63.973
0
VERTEX
8
CONTOURS_MINEURES
10
28.254
20
63.998
0
SEQEND
0
POLYLINE
8
CONTOURS_MINEURES
66
1
70
0
0
VERTEX
8
CONTOURS_MINEURES
10
0.004
20
63.585
0
VERTEX
8
CONTOURS_MINEURES
10
0.964
20
63.998
0
SEQEND
0
POLYLINE
8
CONTOURS_MAJEURES
66
1
70
0
0
VERTEX
8
CONTOURS_MAJEURES
10
0.004
20
18.285
0
VERTEX
8
CONTOURS_MAJEURES
10
1.456
20
18.546
0
VERTEX
8
CONTOURS_MAJEURES
10
1.998
20
18.912
0
VERTEX
8
CONTOURS_MAJEURES
10
3.091
20
18.912
0
VERTEX
8
CONTOURS_MAJEURES
10
4.002
20
18.912
0
VERTEX
8
CONTOURS_MAJEURES
10
5.090
20
18.912
0
VERTEX
8
CONTOURS_MAJEURES
10
5.996
20
18.912
0
VERTEX
8
CONTOURS_MAJEURES
10
7.613
20
19.616
0
VERTEX
8
CONTOURS_MAJEURES
10
8.001
20
19.542
0
VERTEX
8
CONTOURS_MAJEURES
10
9.535
20
19.542
0
VERTEX
8
CONTOURS_MAJEURES
10
9.995
20
19.542
0
VERTEX
8
CONTOURS_MAJEURES
10
10.702
20
19.297
0
VERTEX
8
CONTOURS_MAJEURES
10
12.000
20
18.452
0
VERTEX
8
CONTOURS_MAJEURES
10
12.450
20
18.452
0
VERTEX
8
CONTOURS_MAJEURES
10
14.004
20
18.452
0
VERTEX
8
CONTOURS_MAJEURES
10
14.396
20
18.396
0
VERTEX
8
CONTOURS_MAJEURES
10
15.998
20
18.088
0
VERTEX
8
CONTOURS_MAJEURES
10
16.083
20
18.088
0
VERTEX
8
CONTOURS_MAJEURES
10
18.003
20
18.088
0
VERTEX
8
CONTOURS_MAJEURES
10
19.912
20
18.088
0
VERTEX
8
CONTOURS_MAJEURES
10
19.997
20
18.088
0
VERTEX
8
CONTOURS_MAJEURES
10
21.958
20
18.046
0
VERTEX
8
CONTOURS_MAJEURES
10
22.001
20
18.043
0
VERTEX
8
CONTOURS_MAJEURES
10
23.955
20
18.043
0
VERTEX
8
CONTOURS_MAJEURES
10
23.995
20
18.043
0
VERTEX
8
CONTOURS_MAJEURES
10
25.165
20
18.836
0
VERTEX
8
CONTOURS_MAJEURES
10
26.000
20
18.867
0
VERTEX
8
CONTOURS_MAJEURES
10
27.138
20
18.867
0
VERTEX
8
CONTOURS_MAJEURES
10
28.005
20
18.867
0
VERTEX
8
CONTOURS_MAJEURES
10
29.490
20
19.492
0
VERTEX
8
CONTOURS_MAJEURES
10
29.999
20
19.751
0
VERTEX
8
CONTOURS_MAJEURES
10
30.252
20
19.751
0
VERTEX
8
CONTOURS_MAJEURES
10
32.003
20
19.751
0
VERTEX
8
CONTOURS_MAJEURES
10
32.255
20
19.751
0
VERTEX
8
CONTOURS_MAJEURES
10
33.997
20
19.751
0
VERTEX
8
CONTOURS_MAJEURES
10
34.392
20
20.003
0
VERTEX
8
CONTOURS_MAJEURES
10
34.392
20
21.610
0
VERTEX
8
CONTOURS_MAJEURES
10
34.392
20
22.004
0
VERTEX
8
CONTOURS_MAJEURES
10
34.392
20
22.398
0
VERTEX
8
CONTOURS_MAJEURES
10
34.392
20
24.005
0
VERTEX
8
CONTOURS_MAJEURES
10
35.176
20
24.824
0
VERTEX
8
CONTOURS_MAJEURES
10
36.002
20
25.255
0
VERTEX
8
CONTOURS_MAJEURES
10
37.254
20
25.255
0
VERTEX
8
CONTOURS_MAJEURES
10
37.996
20
25.255
0
VERTEX
8
CONTOURS_MAJEURES
10
39.207
20
25.995
0
VERTEX
8
CONTOURS_MAJEURES
10
39.207
20
26.787
0
VERTEX
8
CONTOURS_MAJEURES
10
39.207
20
27.995
0
VERTEX
8
CONTOURS_MAJEURES
10
39.623
20
28.372
0
VERTEX
8
CONTOURS_MAJEURES
10
40.000
20
28.571
0
VERTEX
8
CONTOURS_MAJEURES
10
41.428
20
28.571
0
VERTEX
8
CONTOURS_MAJEURES
10
42.005
20
28.571
0
VERTEX
8
CONTOURS_MAJEURES
10
43.268
20
29.263
0
VERTEX
8
CONTOURS_MAJEURES
10
43.999
20
29.589
0
VERTEX
8
CONTOURS_MAJEURES
10
44.407
20
29.589
0
VERTEX
8
CONTOURS_MAJEURES
10
46.004
20
29.589
0
VERTEX
8
CONTOURS_MAJEURES
10
46.395
20
29.603
0
VERTEX
8
CONTOURS_MAJEURES
10
46.613
20
29.996
0
VERTEX
8
CONTOURS_MAJEURES
10
46.613
20
31.386
0
VERTEX
8
CONTOURS_MAJEURES
10
46.613
20
31.997
0
VERTEX
8
CONTOURS_MAJEURES
10
47.998
20
33.039
0
VERTEX
8
CONTOURS_MAJEURES
10
49.042
20
33.039
0
VERTEX
8
CONTOURS_MAJEURES
10
50.002
20
33.039
0
VERTEX
8
CONTOURS_MAJEURES
10
50.958
20
33.039
0
VERTEX
8
CONTOURS_MAJEURES
10
51.996
20
33.039
0
VERTEX
8
CONTOURS_MAJEURES
10
52.695
20
33.300
0
VERTEX
8
CONTOURS_MAJEURES
10
53.314
20
33.998
0
VERTEX
8
CONTOURS_MAJEURES
10
53.314
20
35.312
0
VERTEX
8
CONTOURS_MAJEURES
10
53.314
20
35.998
0
VERTEX
8
CONTOURS_MAJEURES
10
53.314
20
37.313
0
VERTEX
8
CONTOURS_MAJEURES
10
53.314
20
37.999
0
VERTEX
8
CONTOURS_MAJEURES
10
54.001
20
38.420
0
VERTEX
8
CONTOURS_MAJEURES
10
55.575
20
38.420
0
VERTEX
8
CONTOURS_MAJEURES
10
55.995
20
38.420
0
VERTEX
8
CONTOURS_MAJEURES
10
57.069
20
38.928
0
VERTEX
8
CONTOURS_MAJEURES
10
57.999
20
39.733
0
SEQEND
0
POLYLINE
8
CONTOURS_MAJEURES
66
1
70
0
0
VERTEX
8
CONTOURS_MAJEURES
10
0.004
20
56.909
0
VERTEX
8
CONTOURS_MAJEURES
10
1.091
20
57.086
0
VERTEX
8
CONTOURS_MAJEURES
10
1.998
20
56.996
0
VERTEX
8
CONTOURS_MAJEURES
10
3.000
20
56.996
0
VERTEX
8
CONTOURS_MAJEURES
10
4.002
20
56.996
0
VERTEX
8
CONTOURS_MAJEURES
10
4.999
20
56.996
0
VERTEX
8
CONTOURS_MAJEURES
10
5.996
20
56.996
0
VERTEX
8
CONTOURS_MAJEURES
10
6.884
20
57.109
0
VERTEX
8
CONTOURS_MAJEURES
10
8.001
20
57.540
0
VERTEX
8
CONTOURS_MAJEURES
10
9.540
20
57.540
0
VERTEX
8
CONTOURS_MAJEURES
10
9.995
20
57.540
0
VERTEX
8
CONTOURS_MAJEURES
10
10.329
20
57.662
0
VERTEX
8
CONTOURS_MAJEURES
10
11.528
20
57.996
0
VERTEX
8
CONTOURS_MAJEURES
10
11.528
20
59.526
0
VERTEX
8
CONTOURS_MAJEURES
10
11.528
20
59.997
0
VERTEX
8
CONTOURS_MAJEURES
10
11.528
20
60.467
0
VERTEX
8
CONTOURS_MAJEURES
10
11.528
20
61.997
0
VERTEX
8
CONTOURS_MAJEURES
10
11.891
20
62.106
0
VERTEX
8
CONTOURS_MAJEURES
10
12.000
20
62.110
0
VERTEX
8
CONTOURS_MAJEURES
10
13.891
20
62.110
0
VERTEX
8
CONTOURS_MAJEURES
10
14.004
20
62.110
0
VERTEX
8
CONTOURS_MAJEURES
10
14.170
20
62.164
0
VERTEX
8
CONTOURS_MAJEURES
10
15.998
20
62.776
0
VERTEX
8
CONTOURS_MAJEURES
10
17.223
20
62.776
0
VERTEX
8
CONTOURS_MAJEURES
10
18.003
20
62.776
0
VERTEX
8
CONTOURS_MAJEURES
10
19.221
20
62.776
0
VERTEX
8
CONTOURS_MAJEURES
10
19.997
20
62.776
0
VERTEX
8
CONTOURS_MAJEURES
10
20.935
20
63.062
0
VERTEX
8
CONTOURS_MAJEURES
10
22.001
20
63.469
0
VERTEX
8
CONTOURS_MAJEURES
10
23.468
20
63.469
0
VERTEX
8
CONTOURS_MAJEURES
10
23.995
20
63.469
0
VERTEX
8
CONTOURS_MAJEURES
10
24.396
20
63.598
0
VERTEX
8
CONTOURS_MAJEURES
10
26.000
20
63.971
0
VERTEX
8
CONTOURS_MAJEURES
10
27.977
20
63.971
0
VERTEX
8
CONTOURS_MAJEURES
10
28.005
20
63.971
0
VERTEX
8
CONTOURS_MAJEURES
10
28.030
20
63.973
0
VERTEX
8
CONTOURS_MAJEURES
10
28.254
20
63.998
0
SEQEND
0
POLYLINE
8
PARCELLE
66
1
70
1
0
VERTEX
8
PARCELLE
10
32.216
20
45.759
0
VERTEX
8
PARCELLE
10
39.997
20
25.141
0
VERTEX
8
PARCELLE
10
33.003
20
20.000
0
VERTEX
8
PARCELLE
10
20.000
20
35.790
0
VERTEX
8
PARCELLE
10
22.760
20
38.092
0
VERTEX
8
PARCELLE
10
29.587
20
43.605
0
VERTEX
8
PARCELLE
10
32.216
20
45.759
0
SEQEND
0
TEXT
8
POINTS_COTES
10
0.004
20
-0.004
40
1.0
1
53.4
0
TEXT
8
POINTS_COTES
10
37.996
20
1.996
40
1.0
1
52.4
0
TEXT
8
POINTS_COTES
10
15.998
20
5.998
40
1.0
1
53.7
0
TEXT
8
POINTS_COTES
10
54.001
20
7.999
40
1.0
1
52.1
0
TEXT
8
POINTS_COTES
10
32.003
20
12.000
40
1.0
1
53.7
0
TEXT
8
POINTS_COTES
10
9.995
20
16.002
40
1.0
1
54.8
0
TEXT
8
POINTS_COTES
10
47.998
20
18.003
40
1.0
1
53.8
0
TEXT
8
POINTS_COTES
10
26.000
20
22.004
40
1.0
1
55.5
0
TEXT
8
POINTS_COTES
10
4.002
20
25.995
40
1.0
1
56.2
0
TEXT
8
POINTS_COTES
10
42.005
20
27.995
40
1.0
1
54.8
0
TEXT
8
POINTS_COTES
10
19.997
20
31.997
40
1.0
1
56.5
0
TEXT
8
POINTS_COTES
10
57.999
20
33.998
40
1.0
1
54.6
0
TEXT
8
POINTS_COTES
10
36.002
20
37.999
40
1.0
1
56.5
0
TEXT
8
POINTS_COTES
10
14.004
20
42.001
40
1.0
1
57.0
0
TEXT
8
POINTS_COTES
10
51.996
20
44.002
40
1.0
1
56.4
0
TEXT
8
POINTS_COTES
10
29.999
20
48.003
40
1.0
1
57.5
0
TEXT
8
POINTS_COTES
10
8.001
20
52.005
40
1.0
1
58.6
0
TEXT
8
POINTS_COTES
10
46.004
20
54.005
40
1.0
1
58.2
0
TEXT
8
POINTS_COTES
10
23.995
20
57.996
40
1.0
1
59.5
0
TEXT
8
POINTS_COTES
10
1.998
20
61.997
40
1.0
1
60.4
0
TEXT
8
POINTS_COTES
10
40.000
20
63.998
40
1.0
1
59.0
0
ENDSEC
0
EOF
