0
SECTION
2
HEADER
0
ENDSEC
0
SECTION
2
TABLES
0
TABLE
2
LAYER
70
4
0
LAYER
2
CONTOURS_MINEURES
70
0
62
8
6
CONTINUOUS
0
LAYER
2
CONTOURS_MAJEURES
70
0
62
3
6
CONTINUOUS
0
LAYER
2
PARCELLE
70
0
62
4
6
CONTINUOUS
0
LAYER
2
POINTS_COTES
70
0
62
7
6
CONTINUOUS
0
ENDTAB
0
ENDSEC
0
SECTION
2
ENTITIES
0
POLYLINE
8
CONTOURS_MINEURES
66
1
70
0
0
VERTEX
8
CONTOURS_MINEURES
10
0.005
20
58.669
0
VERTEX
8
CONTOURS_MINEURES
10
0.198
20
58.196
0
VERTEX
8
CONTOURS_MINEURES
10
1.004
20
58.003
0
VERTEX
8
CONTOURS_MINEURES
10
1.004
20
57.002
0
VERTEX
8
CONTOURS_MINEURES
10
1.004
20
56.002
0
VERTEX
8
CONTOURS_MINEURES
10
1.337
20
55.335
0
VERTEX
8
CONTOURS_MINEURES
10
2.003
20
55.335
0
VERTEX
8
CONTOURS_MINEURES
10
3.336
20
55.335
0
VERTEX
8
CONTOURS_MINEURES
10
4.002
20
55.335
0
VERTEX
8
CONTOURS_MINEURES
10
4.708
20
54.707
0
VERTEX
8
CONTOURS_MINEURES
10
6.001
20
54.001
0
VERTEX
8
CONTOURS_MINEURES
10
6.001
20
52.000
0
VERTEX
8
CONTOURS_MINEURES
10
6.001
20
49.999
0
VERTEX
8
CONTOURS_MINEURES
10
7.999
20
49.999
0
VERTEX
8
CONTOURS_MINEURES
10
9.998
20
49.999
0
VERTEX
8
CONTOURS_MINEURES
10
11.270
20
47.999
0
VERTEX
8
CONTOURS_MINEURES
10
11.270
20
46.725
0
VERTEX
8
CONTOURS_MINEURES
10
11.270
20
45.998
0
VERTEX
8
CONTOURS_MINEURES
10
11.382
20
45.382
0
VERTEX
8
CONTOURS_MINEURES
10
11.997
20
45.270
0
VERTEX
8
CONTOURS_MINEURES
10
12.724
20
45.270
0
VERTEX
8
CONTOURS_MINEURES
10
13.995
20
45.270
0
VERTEX
8
CONTOURS_MINEURES
10
14.875
20
44.872
0
VERTEX
8
CONTOURS_MINEURES
10
15.077
20
43.997
0
VERTEX
8
CONTOURS_MINEURES
10
15.077
20
43.074
0
VERTEX
8
CONTOURS_MINEURES
10
15.077
20
41.996
0
VERTEX
8
CONTOURS_MINEURES
10
15.077
20
40.919
0
VERTEX
8
CONTOURS_MINEURES
10
15.077
20
39.996
0
VERTEX
8
CONTOURS_MINEURES
10
15.000
20
38.995
0
VERTEX
8
CONTOURS_MINEURES
10
15.335
20
37.995
0
VERTEX
8
CONTOURS_MINEURES
10
15.335
20
36.668
0
VERTEX
8
CONTOURS_MINEURES
10
15.335
20
36.005
0
VERTEX
8
CONTOURS_MINEURES
10
14.799
20
34.805
0
VERTEX
8
CONTOURS_MINEURES
10
16.005
20
34.805
0
VERTEX
8
CONTOURS_MINEURES
10
16.804
20
34.805
0
VERTEX
8
CONTOURS_MINEURES
10
18.003
20
34.805
0
VERTEX
8
CONTOURS_MINEURES
10
18.311
20
34.312
0
VERTEX
8
CONTOURS_MINEURES
10
18.575
20
34.004
0
VERTEX
8
CONTOURS_MINEURES
10
18.575
20
32.575
0
VERTEX
8
CONTOURS_MINEURES
10
18.575
20
32.004
0
VERTEX
8
CONTOURS_MINEURES
10
20.002
20
31.170
0
VERTEX
8
CONTOURS_MINEURES
10
20.835
20
31.170
0
VERTEX
8
CONTOURS_MINEURES
10
22.001
20
31.170
0
VERTEX
8
CONTOURS_MINEURES
10
22.824
20
30.827
0
VERTEX
8
CONTOURS_MINEURES
10
23.999
20
30.464
0
VERTEX
8
CONTOURS_MINEURES
10
25.537
20
30.464
0
VERTEX
8
CONTOURS_MINEURES
10
25.998
20
30.464
0
VERTEX
8
CONTOURS_MINEURES
10
27.536
20
30.464
0
VERTEX
8
CONTOURS_MINEURES
10
27.997
20
30.464
0
VERTEX
8
CONTOURS_MINEURES
10
28.349
20
30.356
0
VERTEX
8
CONTOURS_MINEURES
10
29.995
20
30.003
0
VERTEX
8
CONTOURS_MINEURES
10
29.995
20
28.002
0
VERTEX
8
CONTOURS_MINEURES
10
29.995
20
26.001
0
VERTEX
8
CONTOURS_MINEURES
10
29.995
20
24.000
0
VERTEX
8
CONTOURS_MINEURES
10
29.995
20
22.000
0
VERTEX
8
CONTOURS_MINEURES
10
32.005
20
22.000
0
VERTEX
8
CONTOURS_MINEURES
10
32.504
20
19.999
0
VERTEX
8
CONTOURS_MINEURES
10
32.504
20
18.498
0
VERTEX
8
CONTOURS_MINEURES
10
32.504
20
17.998
0
VERTEX
8
CONTOURS_MINEURES
10
34.003
20
15.997
0
VERTEX
8
CONTOURS_MINEURES
10
34.003
20
13.997
0
VERTEX
8
CONTOURS_MINEURES
10
34.003
20
11.996
0
VERTEX
8
CONTOURS_MINEURES
10
36.002
20
11.996
0
VERTEX
8
CONTOURS_MINEURES
10
36.573
20
9.995
0
VERTEX
8
CONTOURS_MINEURES
10
36.573
20
8.574
0
VERTEX
8
CONTOURS_MINEURES
10
36.573
20
8.005
0
VERTEX
8
CONTOURS_MINEURES
10
36.668
20
7.338
0
VERTEX
8
CONTOURS_MINEURES
10
36.002
20
7.434
0
VERTEX
8
CONTOURS_MINEURES
10
34.574
20
7.434
0
VERTEX
8
CONTOURS_MINEURES
10
34.003
20
7.434
0
VERTEX
8
CONTOURS_MINEURES
10
33.559
20
7.561
0
VERTEX
8
CONTOURS_MINEURES
10
32.005
20
7.405
0
VERTEX
8
CONTOURS_MINEURES
10
30.598
20
7.405
0
VERTEX
8
CONTOURS_MINEURES
10
29.995
20
7.405
0
VERTEX
8
CONTOURS_MINEURES
10
28.919
20
7.082
0
VERTEX
8
CONTOURS_MINEURES
10
27.997
20
6.005
0
VERTEX
8
CONTOURS_MINEURES
10
25.998
20
6.005
0
VERTEX
8
CONTOURS_MINEURES
10
23.999
20
6.005
0
VERTEX
8
CONTOURS_MINEURES
10
23.999
20
4.004
0
VERTEX
8
CONTOURS_MINEURES
10
23.999
20
2.003
0
VERTEX
8
CONTOURS_MINEURES
10
22.001
20
0.402
0
VERTEX
8
CONTOURS_MINEURES
10
21.601
20
0.402
0
VERTEX
8
CONTOURS_MINEURES
10
20.002
20
0.402
0
VERTEX
8
CONTOURS_MINEURES
10
18.003
20
2.003
0
VERTEX
8
CONTOURS_MINEURES
10
18.003
20
4.004
0
VERTEX
8
CONTOURS_MINEURES
10
18.003
20
6.005
0
VERTEX
8
CONTOURS_MINEURES
10
16.005
20
6.005
0
VERTEX
8
CONTOURS_MINEURES
10
15.754
20
7.755
0
VERTEX
8
CONTOURS_MINEURES
10
15.861
20
8.005
0
VERTEX
8
CONTOURS_MINEURES
10
15.861
20
9.853
0
VERTEX
8
CONTOURS_MINEURES
10
15.861
20
9.995
0
VERTEX
8
CONTOURS_MINEURES
10
15.887
20
10.113
0
VERTEX
8
CONTOURS_MINEURES
10
16.005
20
10.395
0
VERTEX
8
CONTOURS_MINEURES
10
16.405
20
10.395
0
VERTEX
8
CONTOURS_MINEURES
10
18.003
20
10.395
0
VERTEX
8
CONTOURS_MINEURES
10
19.146
20
11.996
0
VERTEX
8
CONTOURS_MINEURES
10
19.146
20
12.853
0
VERTEX
8
CONTOURS_MINEURES
10
19.146
20
13.997
0
VERTEX
8
CONTOURS_MINEURES
10
19.146
20
15.140
0
VERTEX
8
CONTOURS_MINEURES
10
19.146
20
15.997
0
VERTEX
8
CONTOURS_MINEURES
10
18.003
20
17.331
0
VERTEX
8
CONTOURS_MINEURES
10
17.337
20
17.331
0
VERTEX
8
CONTOURS_MINEURES
10
16.005
20
17.331
0
VERTEX
8
CONTOURS_MINEURES
10
15.335
20
17.998
0
VERTEX
8
CONTOURS_MINEURES
10
15.335
20
19.332
0
VERTEX
8
CONTOURS_MINEURES
10
15.335
20
19.999
0
VERTEX
8
CONTOURS_MINEURES
10
15.000
20
20.999
0
VERTEX
8
CONTOURS_MINEURES
10
13.995
20
20.888
0
VERTEX
8
CONTOURS_MINEURES
10
13.107
20
20.888
0
VERTEX
8
CONTOURS_MINEURES
10
11.997
20
20.888
0
VERTEX
8
CONTOURS_MINEURES
10
10.664
20
19.999
0
VERTEX
8
CONTOURS_MINEURES
10
10.664
20
18.665
0
VERTEX
8
CONTOURS_MINEURES
10
10.664
20
17.998
0
VERTEX
8
CONTOURS_MINEURES
10
10.220
20
17.776
0
VERTEX
8
CONTOURS_MINEURES
10
9.998
20
17.634
0
VERTEX
8
CONTOURS_MINEURES
10
9.635
20
17.634
0
VERTEX
8
CONTOURS_MINEURES
10
7.999
20
17.634
0
VERTEX
8
CONTOURS_MINEURES
10
6.364
20
17.634
0
VERTEX
8
CONTOURS_MINEURES
10
6.001
20
17.634
0
VERTEX
8
CONTOURS_MINEURES
10
5.101
20
15.997
0
VERTEX
8
CONTOURS_MINEURES
10
5.101
20
14.897
0
VERTEX
8
CONTOURS_MINEURES
10
5.101
20
13.997
0
VERTEX
8
CONTOURS_MINEURES
10
5.101
20
13.096
0
VERTEX
8
CONTOURS_MINEURES
10
5.101
20
11.996
0
VERTEX
8
CONTOURS_MINEURES
10
5.251
20
11.246
0
VERTEX
8
CONTOURS_MINEURES
10
5.501
20
9.995
0
VERTEX
8
CONTOURS_MINEURES
10
5.501
20
8.503
0
VERTEX
8
CONTOURS_MINEURES
10
5.501
20
8.005
0
VERTEX
8
CONTOURS_MINEURES
10
5.475
20
7.479
0
VERTEX
8
CONTOURS_MINEURES
10
6.001
20
6.576
0
VERTEX
8
CONTOURS_MINEURES
10
6.572
20
6.576
0
VERTEX
8
CONTOURS_MINEURES
10
7.999
20
6.576
0
VERTEX
8
CONTOURS_MINEURES
10
9.427
20
6.576
0
VERTEX
8
CONTOURS_MINEURES
10
9.998
20
6.576
0
VERTEX
8
CONTOURS_MINEURES
10
10.442
20
6.005
0
VERTEX
8
CONTOURS_MINEURES
10
10.442
20
4.448
0
VERTEX
8
CONTOURS_MINEURES
10
10.442
20
4.004
0
VERTEX
8
CONTOURS_MINEURES
10
10.442
20
3.559
0
VERTEX
8
CONTOURS_MINEURES
10
10.442
20
2.003
0
VERTEX
8
CONTOURS_MINEURES
10
11.459
20
1.464
0
VERTEX
8
CONTOURS_MINEURES
10
11.997
20
0.730
0
VERTEX
8
CONTOURS_MINEURES
10
13.269
20
0.730
0
VERTEX
8
CONTOURS_MINEURES
10
13.995
20
0.730
0
VERTEX
8
CONTOURS_MINEURES
10
16.005
20
2.003
0
VERTEX
8
CONTOURS_MINEURES
10
15.335
20
0.002
0
SEQEND
0
POLYLINE
8
CONTOURS_MINEURES
66
1
70
0
0
VERTEX
8
CONTOURS_MINEURES
10
9.998
20
34.004
0
VERTEX
8
CONTOURS_MINEURES
10
7.999
20
34.004
0
VERTEX
8
CONTOURS_MINEURES
10
6.001
20
34.004
0
VERTEX
8
CONTOURS_MINEURES
10
6.001
20
32.004
0
VERTEX
8
CONTOURS_MINEURES
10
7.999
20
32.004
0
VERTEX
8
CONTOURS_MINEURES
10
9.998
20
32.004
0
VERTEX
8
CONTOURS_MINEURES
10
9.998
20
34.004
0
SEQEND
0
POLYLINE
8
CONTOURS_MINEURES
66
1
70
0
0
VERTEX
8
CONTOURS_MINEURES
10
2.003
20
35.755
0
VERTEX
8
CONTOURS_MINEURES
10
2.253
20
35.755
0
VERTEX
8
CONTOURS_MINEURES
10
4.002
20
35.755
0
VERTEX
8
CONTOURS_MINEURES
10
4.402
20
36.005
0
VERTEX
8
CONTOURS_MINEURES
10
4.402
20
37.597
0
VERTEX
8
CONTOURS_MINEURES
10
4.402
20
37.995
0
VERTEX
8
CONTOURS_MINEURES
10
4.202
20
38.195
0
VERTEX
8
CONTOURS_MINEURES
10
4.716
20
39.996
0
VERTEX
8
CONTOURS_MINEURES
10
4.716
20
40.710
0
VERTEX
8
CONTOURS_MINEURES
10
4.716
20
41.996
0
VERTEX
8
CONTOURS_MINEURES
10
4.716
20
42.711
0
VERTEX
8
CONTOURS_MINEURES
10
4.716
20
43.997
0
VERTEX
8
CONTOURS_MINEURES
10
4.002
20
45.109
0
VERTEX
8
CONTOURS_MINEURES
10
2.892
20
45.109
0
VERTEX
8
CONTOURS_MINEURES
10
2.003
20
45.109
0
VERTEX
8
CONTOURS_MINEURES
10
0.893
20
45.109
0
VERTEX
8
CONTOURS_MINEURES
10
0.338
20
43.997
0
VERTEX
8
CONTOURS_MINEURES
10
0.338
20
42.330
0
VERTEX
8
CONTOURS_MINEURES
10
0.338
20
41.996
0
VERTEX
8
CONTOURS_MINEURES
10
0.338
20
41.663
0
VERTEX
8
CONTOURS_MINEURES
10
0.338
20
39.996
0
VERTEX
8
CONTOURS_MINEURES
10
1.004
20
38.995
0
VERTEX
8
CONTOURS_MINEURES
10
1.754
20
37.995
0
VERTEX
8
CONTOURS_MINEURES
10
1.754
20
37.746
0
VERTEX
8
CONTOURS_MINEURES
10
1.754
20
36.005
0
VERTEX
8
CONTOURS_MINEURES
10
2.003
20
35.755
0
SEQEND
0
POLYLINE
8
CONTOURS_MINEURES
66
1
70
0
0
VERTEX
8
CONTOURS_MINEURES
10
19.502
20
67.995
0
VERTEX
8
CONTOURS_MINEURES
10
19.502
20
66.495
0
VERTEX
8
CONTOURS_MINEURES
10
19.502
20
65.995
0
VERTEX
8
CONTOURS_MINEURES
10
19.502
20
65.497
0
VERTEX
8
CONTOURS_MINEURES
10
19.502
20
64.005
0
VERTEX
8
CONTOURS_MINEURES
10
20.002
20
63.389
0
VERTEX
8
CONTOURS_MINEURES
10
21.386
20
63.389
0
VERTEX
8
CONTOURS_MINEURES
10
22.001
20
63.389
0
VERTEX
8
CONTOURS_MINEURES
10
23.500
20
62.004
0
VERTEX
8
CONTOURS_MINEURES
10
23.500
20
61.504
0
VERTEX
8
CONTOURS_MINEURES
10
23.500
20
60.003
0
VERTEX
8
CONTOURS_MINEURES
10
23.999
20
59.458
0
VERTEX
8
CONTOURS_MINEURES
10
24.545
20
59.458
0
VERTEX
8
CONTOURS_MINEURES
10
25.998
20
59.458
0
VERTEX
8
CONTOURS_MINEURES
10
27.452
20
59.458
0
VERTEX
8
CONTOURS_MINEURES
10
27.997
20
59.458
0
VERTEX
8
CONTOURS_MINEURES
10
29.329
20
58.003
0
VERTEX
8
CONTOURS_MINEURES
10
29.329
20
57.336
0
VERTEX
8
CONTOURS_MINEURES
10
29.329
20
56.002
0
VERTEX
8
CONTOURS_MINEURES
10
29.995
20
55.113
0
VERTEX
8
CONTOURS_MINEURES
10
31.112
20
55.113
0
VERTEX
8
CONTOURS_MINEURES
10
32.005
20
55.113
0
VERTEX
8
CONTOURS_MINEURES
10
33.004
20
54.001
0
VERTEX
8
CONTOURS_MINEURES
10
33.004
20
53.001
0
VERTEX
8
CONTOURS_MINEURES
10
33.004
20
52.000
0
VERTEX
8
CONTOURS_MINEURES
10
33.004
20
51.000
0
VERTEX
8
CONTOURS_MINEURES
10
33.004
20
49.999
0
VERTEX
8
CONTOURS_MINEURES
10
33.504
20
49.499
0
VERTEX
8
CONTOURS_MINEURES
10
34.003
20
48.749
0
VERTEX
8
CONTOURS_MINEURES
10
35.253
20
48.749
0
VERTEX
8
CONTOURS_MINEURES
10
36.002
20
48.749
0
VERTEX
8
CONTOURS_MINEURES
10
36.263
20
48.260
0
VERTEX
8
CONTOURS_MINEURES
10
36.668
20
47.999
0
VERTEX
8
CONTOURS_MINEURES
10
36.668
20
47.332
0
VERTEX
8
CONTOURS_MINEURES
10
36.668
20
45.998
0
VERTEX
8
CONTOURS_MINEURES
10
37.295
20
45.292
0
VERTEX
8
CONTOURS_MINEURES
10
38.001
20
44.497
0
VERTEX
8
CONTOURS_MINEURES
10
39.500
20
44.497
0
VERTEX
8
CONTOURS_MINEURES
10
39.999
20
44.497
0
VERTEX
8
CONTOURS_MINEURES
10
41.498
20
44.497
0
VERTEX
8
CONTOURS_MINEURES
10
41.998
20
44.497
0
VERTEX
8
CONTOURS_MINEURES
10
42.569
20
43.997
0
VERTEX
8
CONTOURS_MINEURES
10
42.569
20
42.568
0
VERTEX
8
CONTOURS_MINEURES
10
42.569
20
41.996
0
VERTEX
8
CONTOURS_MINEURES
10
42.569
20
41.425
0
VERTEX
8
CONTOURS_MINEURES
10
42.569
20
39.996
0
VERTEX
8
CONTOURS_MINEURES
10
43.331
20
39.329
0
VERTEX
8
CONTOURS_MINEURES
10
43.997
20
39.329
0
VERTEX
8
CONTOURS_MINEURES
10
44.663
20
39.329
0
VERTEX
8
CONTOURS_MINEURES
10
45.995
20
39.329
0
VERTEX
8
CONTOURS_MINEURES
10
47.112
20
37.995
0
VERTEX
8
CONTOURS_MINEURES
10
47.112
20
37.110
0
VERTEX
8
CONTOURS_MINEURES
10
47.112
20
36.005
0
VERTEX
8
CONTOURS_MINEURES
10
46.586
20
35.417
0
VERTEX
8
CONTOURS_MINEURES
10
46.282
20
34.004
0
VERTEX
8
CONTOURS_MINEURES
10
46.282
20
32.289
0
VERTEX
8
CONTOURS_MINEURES
10
46.282
20
32.004
0
VERTEX
8
CONTOURS_MINEURES
10
46.263
20
31.737
0
VERTEX
8
CONTOURS_MINEURES
10
45.995
20
31.640
0
VERTEX
8
CONTOURS_MINEURES
10
45.632
20
31.640
0
VERTEX
8
CONTOURS_MINEURES
10
43.997
20
31.640
0
VERTEX
8
CONTOURS_MINEURES
10
43.097
20
30.903
0
VERTEX
8
CONTOURS_MINEURES
10
42.969
20
30.003
0
VERTEX
8
CONTOURS_MINEURES
10
42.969
20
28.974
0
VERTEX
8
CONTOURS_MINEURES
10
42.969
20
28.002
0
VERTEX
8
CONTOURS_MINEURES
10
42.969
20
27.030
0
VERTEX
8
CONTOURS_MINEURES
10
42.969
20
26.001
0
VERTEX
8
CONTOURS_MINEURES
10
43.050
20
25.053
0
VERTEX
8
CONTOURS_MINEURES
10
43.997
20
24.364
0
VERTEX
8
CONTOURS_MINEURES
10
44.360
20
24.364
0
VERTEX
8
CONTOURS_MINEURES
10
45.995
20
24.364
0
VERTEX
8
CONTOURS_MINEURES
10
46.263
20
24.267
0
VERTEX
8
CONTOURS_MINEURES
10
47.335
20
24.000
0
VERTEX
8
CONTOURS_MINEURES
10
47.335
20
22.667
0
VERTEX
8
CONTOURS_MINEURES
10
47.335
20
22.000
0
VERTEX
8
CONTOURS_MINEURES
10
47.866
20
21.862
0
VERTEX
8
CONTOURS_MINEURES
10
48.005
20
21.809
0
VERTEX
8
CONTOURS_MINEURES
10
48.195
20
21.809
0
VERTEX
8
CONTOURS_MINEURES
10
50.003
20
21.809
0
VERTEX
8
CONTOURS_MINEURES
10
50.289
20
21.714
0
VERTEX
8
CONTOURS_MINEURES
10
52.002
20
21.333
0
VERTEX
8
CONTOURS_MINEURES
10
52.668
20
21.333
0
VERTEX
8
CONTOURS_MINEURES
10
54.001
20
21.333
0
VERTEX
8
CONTOURS_MINEURES
10
54.750
20
21.249
0
VERTEX
8
CONTOURS_MINEURES
10
55.999
20
21.249
0
VERTEX
8
CONTOURS_MINEURES
10
57.249
20
21.249
0
VERTEX
8
CONTOURS_MINEURES
10
57.998
20
21.249
0
VERTEX
8
CONTOURS_MINEURES
10
59.247
20
21.249
0
VERTEX
8
CONTOURS_MINEURES
10
59.997
20
21.249
0
VERTEX
8
CONTOURS_MINEURES
10
60.746
20
21.249
0
VERTEX
8
CONTOURS_MINEURES
10
61.995
20
21.249
0
VERTEX
8
CONTOURS_MINEURES
10
62.749
20
21.249
0
VERTEX
8
CONTOURS_MINEURES
10
64.005
20
21.249
0
VERTEX
8
CONTOURS_MINEURES
10
64.804
20
20.799
0
VERTEX
8
CONTOURS_MINEURES
10
66.003
20
19.999
0
VERTEX
8
CONTOURS_MINEURES
10
66.003
20
17.998
0
SEQEND
0
POLYLINE
8
CONTOURS_MINEURES
66
1
70
0
0
VERTEX
8
CONTOURS_MINEURES
10
1.485
20
67.995
0
VERTEX
8
CONTOURS_MINEURES
10
1.485
20
67.477
0
VERTEX
8
CONTOURS_MINEURES
10
1.485
20
65.995
0
VERTEX
8
CONTOURS_MINEURES
10
1.485
20
64.521
0
VERTEX
8
CONTOURS_MINEURES
10
1.485
20
64.005
0
VERTEX
8
CONTOURS_MINEURES
10
1.729
20
63.730
0
VERTEX
8
CONTOURS_MINEURES
10
2.003
20
63.522
0
VERTEX
8
CONTOURS_MINEURES
10
2.486
20
63.522
0
VERTEX
8
CONTOURS_MINEURES
10
4.002
20
63.522
0
VERTEX
8
CONTOURS_MINEURES
10
5.761
20
63.765
0
VERTEX
8
CONTOURS_MINEURES
10
6.001
20
63.828
0
VERTEX
8
CONTOURS_MINEURES
10
6.177
20
63.828
0
VERTEX
8
CONTOURS_MINEURES
10
7.999
20
63.828
0
VERTEX
8
CONTOURS_MINEURES
10
9.822
20
63.828
0
VERTEX
8
CONTOURS_MINEURES
10
9.998
20
63.828
0
VERTEX
8
CONTOURS_MINEURES
10
10.198
20
63.805
0
VERTEX
8
CONTOURS_MINEURES
10
10.398
20
64.005
0
VERTEX
8
CONTOURS_MINEURES
10
10.398
20
64.403
0
VERTEX
8
CONTOURS_MINEURES
10
10.398
20
65.995
0
VERTEX
8
CONTOURS_MINEURES
10
10.398
20
67.595
0
VERTEX
8
CONTOURS_MINEURES
10
10.398
20
67.995
0
SEQEND
0
POLYLINE
8
CONTOURS_MINEURES
66
1
70
0
0
VERTEX
8
CONTOURS_MINEURES
10
42.284
20
67.995
0
VERTEX
8
CONTOURS_MINEURES
10
42.284
20
66.280
0
VERTEX
8
CONTOURS_MINEURES
10
42.284
20
65.995
0
VERTEX
8
CONTOURS_MINEURES
10
42.284
20
65.710
0
VERTEX
8
CONTOURS_MINEURES
10
42.284
20
64.005
0
VERTEX
8
CONTOURS_MINEURES
10
43.247
20
63.255
0
VERTEX
8
CONTOURS_MINEURES
10
43.664
20
62.004
0
VERTEX
8
CONTOURS_MINEURES
10
43.664
20
60.337
0
VERTEX
8
CONTOURS_MINEURES
10
43.664
20
60.003
0
VERTEX
8
CONTOURS_MINEURES
10
43.997
20
59.559
0
VERTEX
8
CONTOURS_MINEURES
10
45.551
20
59.559
0
VERTEX
8
CONTOURS_MINEURES
10
45.995
20
59.559
0
VERTEX
8
CONTOURS_MINEURES
10
46.330
20
59.670
0
VERTEX
8
CONTOURS_MINEURES
10
47.335
20
60.003
0
VERTEX
8
CONTOURS_MINEURES
10
47.335
20
60.670
0
VERTEX
8
CONTOURS_MINEURES
10
47.335
20
62.004
0
VERTEX
8
CONTOURS_MINEURES
10
48.005
20
62.404
0
VERTEX
8
CONTOURS_MINEURES
10
48.405
20
62.404
0
VERTEX
8
CONTOURS_MINEURES
10
50.003
20
62.404
0
VERTEX
8
CONTOURS_MINEURES
10
51.146
20
62.862
0
VERTEX
8
CONTOURS_MINEURES
10
52.002
20
62.550
0
VERTEX
8
CONTOURS_MINEURES
10
52.547
20
62.550
0
VERTEX
8
CONTOURS_MINEURES
10
54.001
20
62.550
0
VERTEX
8
CONTOURS_MINEURES
10
54.376
20
62.379
0
VERTEX
8
CONTOURS_MINEURES
10
54.429
20
62.004
0
VERTEX
8
CONTOURS_MINEURES
10
54.429
20
60.432
0
VERTEX
8
CONTOURS_MINEURES
10
54.429
20
60.003
0
VERTEX
8
CONTOURS_MINEURES
10
55.999
20
58.781
0
VERTEX
8
CONTOURS_MINEURES
10
57.221
20
58.781
0
VERTEX
8
CONTOURS_MINEURES
10
57.998
20
58.781
0
VERTEX
8
CONTOURS_MINEURES
10
58.775
20
58.781
0
VERTEX
8
CONTOURS_MINEURES
10
59.997
20
58.781
0
VERTEX
8
CONTOURS_MINEURES
10
60.871
20
58.878
0
VERTEX
8
CONTOURS_MINEURES
10
61.995
20
58.878
0
VERTEX
8
CONTOURS_MINEURES
10
63.126
20
58.878
0
VERTEX
8
CONTOURS_MINEURES
10
64.005
20
58.878
0
VERTEX
8
CONTOURS_MINEURES
10
65.277
20
58.003
0
VERTEX
8
CONTOURS_MINEURES
10
65.277
20
56.729
0
VERTEX
8
CONTOURS_MINEURES
10
65.277
20
56.002
0
VERTEX
8
CONTOURS_MINEURES
10
65.171
20
54.835
0
VERTEX
8
CONTOURS_MINEURES
10
64.893
20
54.001
0
VERTEX
8
CONTOURS_MINEURES
10
64.893
20
52.889
0
VERTEX
8
CONTOURS_MINEURES
10
64.893
20
52.000
0
VERTEX
8
CONTOURS_MINEURES
10
64.893
20
51.111
0
VERTEX
8
CONTOURS_MINEURES
10
64.893
20
49.999
0
VERTEX
8
CONTOURS_MINEURES
10
64.005
20
49.272
0
VERTEX
8
CONTOURS_MINEURES
10
63.274
20
49.272
0
VERTEX
8
CONTOURS_MINEURES
10
61.995
20
49.272
0
VERTEX
8
CONTOURS_MINEURES
10
61.457
20
47.999
0
VERTEX
8
CONTOURS_MINEURES
10
61.457
20
46.537
0
VERTEX
8
CONTOURS_MINEURES
10
61.457
20
45.998
0
VERTEX
8
CONTOURS_MINEURES
10
61.995
20
43.997
0
VERTEX
8
CONTOURS_MINEURES
10
61.995
20
41.996
0
VERTEX
8
CONTOURS_MINEURES
10
61.995
20
39.996
0
VERTEX
8
CONTOURS_MINEURES
10
59.997
20
38.828
0
VERTEX
8
CONTOURS_MINEURES
10
59.164
20
38.828
0
VERTEX
8
CONTOURS_MINEURES
10
57.998
20
38.828
0
VERTEX
8
CONTOURS_MINEURES
10
57.165
20
38.828
0
VERTEX
8
CONTOURS_MINEURES
10
55.999
20
38.828
0
VERTEX
8
CONTOURS_MINEURES
10
55.714
20
38.281
0
VERTEX
8
CONTOURS_MINEURES
10
55.000
20
37.995
0
VERTEX
8
CONTOURS_MINEURES
10
55.000
20
37.000
0
VERTEX
8
CONTOURS_MINEURES
10
55.000
20
36.005
0
VERTEX
8
CONTOURS_MINEURES
10
55.999
20
35.171
0
VERTEX
8
CONTOURS_MINEURES
10
57.165
20
35.171
0
VERTEX
8
CONTOURS_MINEURES
10
57.998
20
35.171
0
VERTEX
8
CONTOURS_MINEURES
10
58.831
20
35.171
0
VERTEX
8
CONTOURS_MINEURES
10
59.997
20
35.171
0
VERTEX
8
CONTOURS_MINEURES
10
60.996
20
35.005
0
VERTEX
8
CONTOURS_MINEURES
10
61.995
20
34.914
0
VERTEX
8
CONTOURS_MINEURES
10
62.909
20
34.914
0
VERTEX
8
CONTOURS_MINEURES
10
64.005
20
34.914
0
VERTEX
8
CONTOURS_MINEURES
10
65.115
20
35.116
0
VERTEX
8
CONTOURS_MINEURES
10
66.003
20
35.116
0
SEQEND
0
POLYLINE
8
PARCELLE
66
1
70
1
0
VERTEX
8
PARCELLE
10
20.000
20
29.603
0
VERTEX
8
PARCELLE
10
38.715
20
48.760
0
VERTEX
8
PARCELLE
10
39.138
20
49.197
0
VERTEX
8
PARCELLE
10
42.741
20
45.605
0
VERTEX
8
PARCELLE
10
42.378
20
45.118
0
VERTEX
8
PARCELLE
10
46.270
20
41.354
0
VERTEX
8
PARCELLE
10
25.961
20
20.000
0
VERTEX
8
PARCELLE
10
20.000
20
29.603
0
SEQEND
0
TEXT
8
POINTS_COTES
10
0.005
20
0.002
40
1.0
1
2.3
0
TEXT
8
POINTS_COTES
10
50.003
20
2.003
40
1.0
1
2.7
0
TEXT
8
POINTS_COTES
10
32.005
20
6.005
40
1.0
1
2.6
0
TEXT
8
POINTS_COTES
10
13.995
20
9.995
40
1.0
1
2.6
0
TEXT
8
POINTS_COTES
10
64.005
20
11.996
40
1.0
1
2.9
0
TEXT
8
POINTS_COTES
10
45.995
20
15.997
40
1.0
1
2.7
0
TEXT
8
POINTS_COTES
10
27.997
20
19.999
40
1.0
1
2.4
0
TEXT
8
POINTS_COTES
10
9.998
20
24.000
40
1.0
1
2.4
0
TEXT
8
POINTS_COTES
10
59.997
20
26.001
40
1.0
1
3.2
0
TEXT
8
POINTS_COTES
10
41.998
20
30.003
40
1.0
1
2.8
0
TEXT
8
POINTS_COTES
10
23.999
20
34.004
40
1.0
1
2.6
0
TEXT
8
POINTS_COTES
10
6.001
20
37.995
40
1.0
1
2.5
0
TEXT
8
POINTS_COTES
10
55.999
20
39.996
40
1.0
1
3.4
0
TEXT
8
POINTS_COTES
10
38.001
20
43.997
40
1.0
1
3.0
0
TEXT
8
POINTS_COTES
10
20.002
20
47.999
40
1.0
1
2.7
0
TEXT
8
POINTS_COTES
10
2.003
20
52.000
40
1.0
1
2.4
0
TEXT
8
POINTS_COTES
10
52.002
20
54.001
40
1.0
1
3.3
0
TEXT
8
POINTS_COTES
10
34.003
20
58.003
40
1.0
1
3.2
0
TEXT
8
POINTS_COTES
10
16.005
20
62.004
40
1.0
1
2.8
0
TEXT
8
POINTS_COTES
10
66.003
20
64.005
40
1.0
1
3.6
0
TEXT
8
POINTS_COTES
10
48.005
20
67.995
40
1.0
1
3.5
0
ENDSEC
0
EOF
