0
SECTION
2
HEADER
0
ENDSEC
0
SECTION
2
TABLES
0
TABLE
2
LAYER
70
4
0
LAYER
2
CONTOURS_MINEURES
70
0
62
8
6
CONTINUOUS
0
LAYER
2
CONTOURS_MAJEURES
70
0
62
3
6
CONTINUOUS
0
LAYER
2
PARCELLE
70
0
62
4
6
CONTINUOUS
0
LAYER
2
POINTS_COTES
70
0
62
7
6
CONTINUOUS
0
ENDTAB
0
ENDSEC
0
SECTION
2
ENTITIES
0
POLYLINE
8
CONTOURS_MINEURES
66
1
70
0
0
VERTEX
8
CONTOURS_MINEURES
10
155.002
20
66.793
0
VERTEX
8
CONTOURS_MINEURES
10
152.391
20
69.997
0
VERTEX
8
CONTOURS_MINEURES
10
152.047
20
72.048
0
VERTEX
8
CONTOURS_MINEURES
10
149.997
20
73.440
0
VERTEX
8
CONTOURS_MINEURES
10
148.869
20
75.005
0
VERTEX
8
CONTOURS_MINEURES
10
148.946
20
78.949
0
VERTEX
8
CONTOURS_MINEURES
10
147.838
20
80.001
0
VERTEX
8
CONTOURS_MINEURES
10
147.647
20
82.352
0
VERTEX
8
CONTOURS_MINEURES
10
149.997
20
84.101
0
VERTEX
8
CONTOURS_MINEURES
10
152.162
20
82.162
0
VERTEX
8
CONTOURS_MINEURES
10
155.002
20
83.107
0
SEQEND
0
POLYLINE
8
CONTOURS_MINEURES
66
1
70
0
0
VERTEX
8
CONTOURS_MINEURES
10
155.002
20
61.120
0
VERTEX
8
CONTOURS_MINEURES
10
153.209
20
63.211
0
VERTEX
8
CONTOURS_MINEURES
10
151.599
20
65.001
0
VERTEX
8
CONTOURS_MINEURES
10
149.997
20
66.846
0
VERTEX
8
CONTOURS_MINEURES
10
148.559
20
68.558
0
VERTEX
8
CONTOURS_MINEURES
10
147.218
20
69.997
0
VERTEX
8
CONTOURS_MINEURES
10
145.003
20
72.754
0
VERTEX
8
CONTOURS_MINEURES
10
144.078
20
74.080
0
VERTEX
8
CONTOURS_MINEURES
10
143.926
20
75.005
0
VERTEX
8
CONTOURS_MINEURES
10
143.245
20
78.247
0
VERTEX
8
CONTOURS_MINEURES
10
142.663
20
80.001
0
VERTEX
8
CONTOURS_MINEURES
10
142.617
20
82.616
0
VERTEX
8
CONTOURS_MINEURES
10
140.174
20
84.998
0
VERTEX
8
CONTOURS_MINEURES
10
140.378
20
85.378
0
VERTEX
8
CONTOURS_MINEURES
10
141.031
20
90.005
0
VERTEX
8
CONTOURS_MINEURES
10
144.132
20
94.132
0
VERTEX
8
CONTOURS_MINEURES
10
144.675
20
95.001
0
VERTEX
8
CONTOURS_MINEURES
10
142.778
20
97.222
0
VERTEX
8
CONTOURS_MINEURES
10
140.445
20
99.998
0
VERTEX
8
CONTOURS_MINEURES
10
140.408
20
100.408
0
VERTEX
8
CONTOURS_MINEURES
10
139.998
20
100.657
0
VERTEX
8
CONTOURS_MINEURES
10
138.948
20
105.005
0
VERTEX
8
CONTOURS_MINEURES
10
139.998
20
108.003
0
VERTEX
8
CONTOURS_MINEURES
10
141.409
20
108.592
0
VERTEX
8
CONTOURS_MINEURES
10
145.003
20
105.816
0
VERTEX
8
CONTOURS_MINEURES
10
146.050
20
105.005
0
VERTEX
8
CONTOURS_MINEURES
10
146.740
20
103.264
0
VERTEX
8
CONTOURS_MINEURES
10
146.636
20
99.998
0
VERTEX
8
CONTOURS_MINEURES
10
145.186
20
95.185
0
VERTEX
8
CONTOURS_MINEURES
10
146.335
20
95.001
0
VERTEX
8
CONTOURS_MINEURES
10
149.997
20
94.370
0
VERTEX
8
CONTOURS_MINEURES
10
152.969
20
92.972
0
VERTEX
8
CONTOURS_MINEURES
10
155.002
20
90.190
0
SEQEND
0
POLYLINE
8
CONTOURS_MINEURES
66
1
70
0
0
VERTEX
8
CONTOURS_MINEURES
10
129.816
20
125.002
0
VERTEX
8
CONTOURS_MINEURES
10
129.998
20
125.227
0
VERTEX
8
CONTOURS_MINEURES
10
130.103
20
125.107
0
VERTEX
8
CONTOURS_MINEURES
10
135.003
20
125.420
0
VERTEX
8
CONTOURS_MINEURES
10
135.216
20
125.002
0
VERTEX
8
CONTOURS_MINEURES
10
135.662
20
120.655
0
VERTEX
8
CONTOURS_MINEURES
10
135.671
20
119.994
0
VERTEX
8
CONTOURS_MINEURES
10
136.020
20
118.978
0
VERTEX
8
CONTOURS_MINEURES
10
135.620
20
114.998
0
VERTEX
8
CONTOURS_MINEURES
10
135.003
20
113.822
0
VERTEX
8
CONTOURS_MINEURES
10
134.435
20
114.431
0
VERTEX
8
CONTOURS_MINEURES
10
134.218
20
114.998
0
VERTEX
8
CONTOURS_MINEURES
10
133.573
20
116.426
0
VERTEX
8
CONTOURS_MINEURES
10
132.900
20
119.994
0
VERTEX
8
CONTOURS_MINEURES
10
129.998
20
124.763
0
VERTEX
8
CONTOURS_MINEURES
10
129.940
20
124.944
0
VERTEX
8
CONTOURS_MINEURES
10
129.816
20
125.002
0
SEQEND
0
POLYLINE
8
CONTOURS_MINEURES
66
1
70
0
0
VERTEX
8
CONTOURS_MINEURES
10
116.549
20
140.002
0
VERTEX
8
CONTOURS_MINEURES
10
117.418
20
137.581
0
VERTEX
8
CONTOURS_MINEURES
10
116.640
20
134.995
0
VERTEX
8
CONTOURS_MINEURES
10
115.004
20
134.050
0
VERTEX
8
CONTOURS_MINEURES
10
114.626
20
134.617
0
VERTEX
8
CONTOURS_MINEURES
10
113.674
20
134.995
0
VERTEX
8
CONTOURS_MINEURES
10
112.951
20
137.949
0
VERTEX
8
CONTOURS_MINEURES
10
112.449
20
140.002
0
VERTEX
8
CONTOURS_MINEURES
10
113.802
20
141.202
0
VERTEX
8
CONTOURS_MINEURES
10
115.004
20
141.623
0
VERTEX
8
CONTOURS_MINEURES
10
115.527
20
140.526
0
VERTEX
8
CONTOURS_MINEURES
10
116.549
20
140.002
0
SEQEND
0
POLYLINE
8
CONTOURS_MINEURES
66
1
70
0
0
VERTEX
8
CONTOURS_MINEURES
10
112.490
20
170.003
0
VERTEX
8
CONTOURS_MINEURES
10
114.188
20
174.185
0
VERTEX
8
CONTOURS_MINEURES
10
114.527
20
174.999
0
VERTEX
8
CONTOURS_MINEURES
10
114.700
20
175.303
0
VERTEX
8
CONTOURS_MINEURES
10
115.004
20
175.528
0
VERTEX
8
CONTOURS_MINEURES
10
115.260
20
175.255
0
VERTEX
8
CONTOURS_MINEURES
10
115.449
20
174.999
0
VERTEX
8
CONTOURS_MINEURES
10
115.486
20
174.517
0
VERTEX
8
CONTOURS_MINEURES
10
116.783
20
170.003
0
VERTEX
8
CONTOURS_MINEURES
10
116.203
20
168.801
0
VERTEX
8
CONTOURS_MINEURES
10
115.422
20
164.995
0
VERTEX
8
CONTOURS_MINEURES
10
115.334
20
164.666
0
VERTEX
8
CONTOURS_MINEURES
10
115.004
20
162.534
0
VERTEX
8
CONTOURS_MINEURES
10
113.703
20
164.995
0
VERTEX
8
CONTOURS_MINEURES
10
112.261
20
167.258
0
VERTEX
8
CONTOURS_MINEURES
10
112.490
20
170.003
0
SEQEND
0
POLYLINE
8
CONTOURS_MINEURES
66
1
70
0
0
VERTEX
8
CONTOURS_MINEURES
10
155.002
20
53.713
0
VERTEX
8
CONTOURS_MINEURES
10
154.214
20
54.997
0
VERTEX
8
CONTOURS_MINEURES
10
153.334
20
56.666
0
VERTEX
8
CONTOURS_MINEURES
10
151.608
20
60.004
0
VERTEX
8
CONTOURS_MINEURES
10
150.865
20
60.870
0
VERTEX
8
CONTOURS_MINEURES
10
149.997
20
61.835
0
VERTEX
8
CONTOURS_MINEURES
10
147.242
20
65.001
0
VERTEX
8
CONTOURS_MINEURES
10
146.219
20
66.218
0
VERTEX
8
CONTOURS_MINEURES
10
145.003
20
67.523
0
VERTEX
8
CONTOURS_MINEURES
10
143.001
20
69.997
0
VERTEX
8
CONTOURS_MINEURES
10
141.766
20
71.767
0
VERTEX
8
CONTOURS_MINEURES
10
141.235
20
75.005
0
VERTEX
8
CONTOURS_MINEURES
10
141.021
20
76.026
0
VERTEX
8
CONTOURS_MINEURES
10
139.998
20
79.109
0
VERTEX
8
CONTOURS_MINEURES
10
139.820
20
80.001
0
VERTEX
8
CONTOURS_MINEURES
10
139.603
20
80.396
0
VERTEX
8
CONTOURS_MINEURES
10
137.729
20
84.998
0
VERTEX
8
CONTOURS_MINEURES
10
137.814
20
87.816
0
VERTEX
8
CONTOURS_MINEURES
10
135.314
20
90.005
0
VERTEX
8
CONTOURS_MINEURES
10
135.390
20
90.392
0
VERTEX
8
CONTOURS_MINEURES
10
135.003
20
91.039
0
VERTEX
8
CONTOURS_MINEURES
10
134.471
20
94.471
0
VERTEX
8
CONTOURS_MINEURES
10
133.917
20
95.001
0
VERTEX
8
CONTOURS_MINEURES
10
133.348
20
98.346
0
VERTEX
8
CONTOURS_MINEURES
10
131.963
20
99.998
0
VERTEX
8
CONTOURS_MINEURES
10
132.054
20
102.055
0
VERTEX
8
CONTOURS_MINEURES
10
131.346
20
105.005
0
VERTEX
8
CONTOURS_MINEURES
10
131.984
20
108.019
0
VERTEX
8
CONTOURS_MINEURES
10
131.712
20
110.002
0
VERTEX
8
CONTOURS_MINEURES
10
130.885
20
110.888
0
VERTEX
8
CONTOURS_MINEURES
10
129.998
20
113.204
0
VERTEX
8
CONTOURS_MINEURES
10
129.583
20
114.998
0
VERTEX
8
CONTOURS_MINEURES
10
128.601
20
118.597
0
VERTEX
8
CONTOURS_MINEURES
10
127.684
20
119.994
0
VERTEX
8
CONTOURS_MINEURES
10
127.028
20
122.024
0
VERTEX
8
CONTOURS_MINEURES
10
125.004
20
122.982
0
VERTEX
8
CONTOURS_MINEURES
10
121.594
20
125.002
0
VERTEX
8
CONTOURS_MINEURES
10
121.366
20
126.367
0
VERTEX
8
CONTOURS_MINEURES
10
119.998
20
126.667
0
VERTEX
8
CONTOURS_MINEURES
10
117.285
20
127.716
0
VERTEX
8
CONTOURS_MINEURES
10
115.004
20
129.259
0
VERTEX
8
CONTOURS_MINEURES
10
114.391
20
129.998
0
VERTEX
8
CONTOURS_MINEURES
10
112.636
20
132.631
0
VERTEX
8
CONTOURS_MINEURES
10
109.999
20
133.676
0
VERTEX
8
CONTOURS_MINEURES
10
109.722
20
134.995
0
VERTEX
8
CONTOURS_MINEURES
10
109.627
20
139.630
0
VERTEX
8
CONTOURS_MINEURES
10
109.618
20
140.002
0
VERTEX
8
CONTOURS_MINEURES
10
109.999
20
144.037
0
VERTEX
8
CONTOURS_MINEURES
10
110.509
20
144.489
0
VERTEX
8
CONTOURS_MINEURES
10
111.963
20
144.999
0
VERTEX
8
CONTOURS_MINEURES
10
115.004
20
146.724
0
VERTEX
8
CONTOURS_MINEURES
10
115.434
20
145.428
0
VERTEX
8
CONTOURS_MINEURES
10
115.512
20
144.999
0
VERTEX
8
CONTOURS_MINEURES
10
116.960
20
141.959
0
VERTEX
8
CONTOURS_MINEURES
10
119.998
20
140.403
0
VERTEX
8
CONTOURS_MINEURES
10
120.614
20
140.002
0
VERTEX
8
CONTOURS_MINEURES
10
125.004
20
135.032
0
VERTEX
8
CONTOURS_MINEURES
10
125.025
20
135.016
0
VERTEX
8
CONTOURS_MINEURES
10
125.104
20
134.995
0
VERTEX
8
CONTOURS_MINEURES
10
129.998
20
132.709
0
VERTEX
8
CONTOURS_MINEURES
10
134.372
20
130.629
0
VERTEX
8
CONTOURS_MINEURES
10
135.003
20
130.210
0
VERTEX
8
CONTOURS_MINEURES
10
135.132
20
130.128
0
VERTEX
8
CONTOURS_MINEURES
10
135.241
20
129.998
0
VERTEX
8
CONTOURS_MINEURES
10
135.360
20
129.641
0
VERTEX
8
CONTOURS_MINEURES
10
137.719
20
125.002
0
VERTEX
8
CONTOURS_MINEURES
10
137.932
20
122.931
0
VERTEX
8
CONTOURS_MINEURES
10
137.972
20
119.994
0
VERTEX
8
CONTOURS_MINEURES
10
139.524
20
115.471
0
VERTEX
8
CONTOURS_MINEURES
10
139.477
20
114.998
0
VERTEX
8
CONTOURS_MINEURES
10
138.901
20
113.901
0
VERTEX
8
CONTOURS_MINEURES
10
139.998
20
114.340
0
VERTEX
8
CONTOURS_MINEURES
10
143.334
20
110.002
0
VERTEX
8
CONTOURS_MINEURES
10
145.003
20
108.713
0
VERTEX
8
CONTOURS_MINEURES
10
149.791
20
105.005
0
VERTEX
8
CONTOURS_MINEURES
10
149.997
20
104.486
0
VERTEX
8
CONTOURS_MINEURES
10
151.207
20
101.208
0
VERTEX
8
CONTOURS_MINEURES
10
153.299
20
99.998
0
VERTEX
8
CONTOURS_MINEURES
10
155.002
20
98.755
0
SEQEND
0
POLYLINE
8
CONTOURS_MINEURES
66
1
70
0
0
VERTEX
8
CONTOURS_MINEURES
10
109.999
20
174.531
0
VERTEX
8
CONTOURS_MINEURES
10
110.194
20
174.999
0
VERTEX
8
CONTOURS_MINEURES
10
111.934
20
178.063
0
VERTEX
8
CONTOURS_MINEURES
10
114.549
20
179.996
0
VERTEX
8
CONTOURS_MINEURES
10
115.004
20
180.306
0
VERTEX
8
CONTOURS_MINEURES
10
115.152
20
180.144
0
VERTEX
8
CONTOURS_MINEURES
10
115.320
20
179.996
0
VERTEX
8
CONTOURS_MINEURES
10
117.588
20
177.585
0
VERTEX
8
CONTOURS_MINEURES
10
119.493
20
174.999
0
VERTEX
8
CONTOURS_MINEURES
10
119.867
20
170.134
0
VERTEX
8
CONTOURS_MINEURES
10
119.905
20
170.003
0
VERTEX
8
CONTOURS_MINEURES
10
118.306
20
166.693
0
VERTEX
8
CONTOURS_MINEURES
10
117.958
20
164.995
0
VERTEX
8
CONTOURS_MINEURES
10
117.331
20
162.667
0
VERTEX
8
CONTOURS_MINEURES
10
116.919
20
159.999
0
VERTEX
8
CONTOURS_MINEURES
10
115.818
20
155.817
0
VERTEX
8
CONTOURS_MINEURES
10
115.592
20
155.003
0
VERTEX
8
CONTOURS_MINEURES
10
115.466
20
154.539
0
VERTEX
8
CONTOURS_MINEURES
10
115.004
20
153.182
0
VERTEX
8
CONTOURS_MINEURES
10
113.032
20
153.030
0
VERTEX
8
CONTOURS_MINEURES
10
109.999
20
151.930
0
VERTEX
8
CONTOURS_MINEURES
10
109.451
20
154.453
0
VERTEX
8
CONTOURS_MINEURES
10
109.413
20
155.003
0
VERTEX
8
CONTOURS_MINEURES
10
109.373
20
155.629
0
VERTEX
8
CONTOURS_MINEURES
10
109.313
20
159.999
0
VERTEX
8
CONTOURS_MINEURES
10
109.465
20
164.461
0
VERTEX
8
CONTOURS_MINEURES
10
109.446
20
164.995
0
VERTEX
8
CONTOURS_MINEURES
10
109.426
20
165.570
0
VERTEX
8
CONTOURS_MINEURES
10
109.519
20
170.003
0
VERTEX
8
CONTOURS_MINEURES
10
109.999
20
174.531
0
SEQEND
0
POLYLINE
8
CONTOURS_MINEURES
66
1
70
0
0
VERTEX
8
CONTOURS_MINEURES
10
155.002
20
48.703
0
VERTEX
8
CONTOURS_MINEURES
10
154.075
20
49.075
0
VERTEX
8
CONTOURS_MINEURES
10
153.266
20
50.001
0
VERTEX
8
CONTOURS_MINEURES
10
149.997
20
54.941
0
VERTEX
8
CONTOURS_MINEURES
10
149.974
20
54.974
0
VERTEX
8
CONTOURS_MINEURES
10
149.956
20
54.997
0
VERTEX
8
CONTOURS_MINEURES
10
148.283
20
58.285
0
VERTEX
8
CONTOURS_MINEURES
10
147.249
20
60.004
0
VERTEX
8
CONTOURS_MINEURES
10
145.003
20
62.591
0
VERTEX
8
CONTOURS_MINEURES
10
142.932
20
65.001
0
VERTEX
8
CONTOURS_MINEURES
10
139.998
20
68.714
0
VERTEX
8
CONTOURS_MINEURES
10
139.474
20
69.473
0
VERTEX
8
CONTOURS_MINEURES
10
139.471
20
69.997
0
VERTEX
8
CONTOURS_MINEURES
10
139.565
20
70.431
0
VERTEX
8
CONTOURS_MINEURES
10
139.103
20
75.005
0
VERTEX
8
CONTOURS_MINEURES
10
138.799
20
76.204
0
VERTEX
8
CONTOURS_MINEURES
10
138.043
20
80.001
0
VERTEX
8
CONTOURS_MINEURES
10
135.655
20
84.346
0
VERTEX
8
CONTOURS_MINEURES
10
135.389
20
84.998
0
VERTEX
8
CONTOURS_MINEURES
10
135.401
20
85.397
0
VERTEX
8
CONTOURS_MINEURES
10
135.003
20
85.745
0
VERTEX
8
CONTOURS_MINEURES
10
132.494
20
90.005
0
VERTEX
8
CONTOURS_MINEURES
10
132.160
20
92.163
0
VERTEX
8
CONTOURS_MINEURES
10
129.998
20
94.233
0
VERTEX
8
CONTOURS_MINEURES
10
129.532
20
95.001
0
VERTEX
8
CONTOURS_MINEURES
10
128.459
20
98.458
0
VERTEX
8
CONTOURS_MINEURES
10
126.964
20
99.998
0
VERTEX
8
CONTOURS_MINEURES
10
125.896
20
104.110
0
VERTEX
8
CONTOURS_MINEURES
10
125.787
20
105.005
0
VERTEX
8
CONTOURS_MINEURES
10
125.882
20
105.884
0
VERTEX
8
CONTOURS_MINEURES
10
127.432
20
110.002
0
VERTEX
8
CONTOURS_MINEURES
10
127.105
20
112.895
0
VERTEX
8
CONTOURS_MINEURES
10
126.619
20
114.998
0
VERTEX
8
CONTOURS_MINEURES
10
126.273
20
116.268
0
VERTEX
8
CONTOURS_MINEURES
10
125.004
20
118.202
0
VERTEX
8
CONTOURS_MINEURES
10
124.337
20
119.329
0
VERTEX
8
CONTOURS_MINEURES
10
123.405
20
119.994
0
VERTEX
8
CONTOURS_MINEURES
10
119.998
20
122.271
0
VERTEX
8
CONTOURS_MINEURES
10
118.308
20
123.307
0
VERTEX
8
CONTOURS_MINEURES
10
115.388
20
125.002
0
VERTEX
8
CONTOURS_MINEURES
10
115.004
20
125.262
0
VERTEX
8
CONTOURS_MINEURES
10
111.076
20
129.998
0
VERTEX
8
CONTOURS_MINEURES
10
110.646
20
130.644
0
VERTEX
8
CONTOURS_MINEURES
10
109.999
20
130.900
0
VERTEX
8
CONTOURS_MINEURES
10
109.139
20
134.995
0
VERTEX
8
CONTOURS_MINEURES
10
109.056
20
139.057
0
VERTEX
8
CONTOURS_MINEURES
10
109.032
20
140.002
0
VERTEX
8
CONTOURS_MINEURES
10
109.452
20
144.452
0
VERTEX
8
CONTOURS_MINEURES
10
109.174
20
144.999
0
VERTEX
8
CONTOURS_MINEURES
10
109.154
20
145.844
0
VERTEX
8
CONTOURS_MINEURES
10
109.368
20
149.995
0
VERTEX
8
CONTOURS_MINEURES
10
108.587
20
153.587
0
VERTEX
8
CONTOURS_MINEURES
10
108.489
20
155.003
0
VERTEX
8
CONTOURS_MINEURES
10
108.387
20
156.615
0
VERTEX
8
CONTOURS_MINEURES
10
108.340
20
159.999
0
VERTEX
8
CONTOURS_MINEURES
10
108.458
20
163.454
0
VERTEX
8
CONTOURS_MINEURES
10
108.402
20
164.995
0
VERTEX
8
CONTOURS_MINEURES
10
108.345
20
166.654
0
VERTEX
8
CONTOURS_MINEURES
10
108.415
20
170.003
0
VERTEX
8
CONTOURS_MINEURES
10
108.820
20
173.820
0
VERTEX
8
CONTOURS_MINEURES
10
108.917
20
174.999
0
VERTEX
8
CONTOURS_MINEURES
10
109.028
20
175.970
0
VERTEX
8
CONTOURS_MINEURES
10
109.647
20
179.996
0
VERTEX
8
CONTOURS_MINEURES
10
109.999
20
182.012
0
VERTEX
8
CONTOURS_MINEURES
10
114.170
20
184.168
0
VERTEX
8
CONTOURS_MINEURES
10
115.004
20
184.737
0
VERTEX
8
CONTOURS_MINEURES
10
117.273
20
182.271
0
VERTEX
8
CONTOURS_MINEURES
10
119.840
20
179.996
0
VERTEX
8
CONTOURS_MINEURES
10
119.917
20
179.914
0
VERTEX
8
CONTOURS_MINEURES
10
119.998
20
179.803
0
VERTEX
8
CONTOURS_MINEURES
10
121.483
20
176.481
0
VERTEX
8
CONTOURS_MINEURES
10
121.673
20
174.999
0
VERTEX
8
CONTOURS_MINEURES
10
121.790
20
171.791
0
VERTEX
8
CONTOURS_MINEURES
10
121.754
20
170.003
0
VERTEX
8
CONTOURS_MINEURES
10
120.489
20
165.486
0
VERTEX
8
CONTOURS_MINEURES
10
120.415
20
164.995
0
VERTEX
8
CONTOURS_MINEURES
10
119.998
20
163.157
0
VERTEX
8
CONTOURS_MINEURES
10
119.329
20
160.668
0
VERTEX
8
CONTOURS_MINEURES
10
119.226
20
159.999
0
VERTEX
8
CONTOURS_MINEURES
10
118.949
20
158.950
0
VERTEX
8
CONTOURS_MINEURES
10
117.851
20
155.003
0
VERTEX
8
CONTOURS_MINEURES
10
117.243
20
152.757
0
VERTEX
8
CONTOURS_MINEURES
10
116.303
20
149.995
0
VERTEX
8
CONTOURS_MINEURES
10
117.224
20
147.219
0
VERTEX
8
CONTOURS_MINEURES
10
117.628
20
144.999
0
VERTEX
8
CONTOURS_MINEURES
10
118.393
20
143.393
0
VERTEX
8
CONTOURS_MINEURES
10
119.998
20
142.571
0
VERTEX
8
CONTOURS_MINEURES
10
123.939
20
140.002
0
VERTEX
8
CONTOURS_MINEURES
10
125.004
20
138.797
0
VERTEX
8
CONTOURS_MINEURES
10
127.146
20
137.142
0
VERTEX
8
CONTOURS_MINEURES
10
129.998
20
136.381
0
VERTEX
8
CONTOURS_MINEURES
10
132.352
20
134.995
0
VERTEX
8
CONTOURS_MINEURES
10
135.003
20
133.238
0
VERTEX
8
CONTOURS_MINEURES
10
136.979
20
131.975
0
VERTEX
8
CONTOURS_MINEURES
10
138.639
20
129.998
0
VERTEX
8
CONTOURS_MINEURES
10
139.998
20
125.920
0
VERTEX
8
CONTOURS_MINEURES
10
140.155
20
125.159
0
VERTEX
8
CONTOURS_MINEURES
10
140.133
20
125.002
0
VERTEX
8
CONTOURS_MINEURES
10
140.128
20
124.872
0
VERTEX
8
CONTOURS_MINEURES
10
140.170
20
119.994
0
VERTEX
8
CONTOURS_MINEURES
10
141.020
20
116.019
0
VERTEX
8
CONTOURS_MINEURES
10
141.324
20
114.998
0
VERTEX
8
CONTOURS_MINEURES
10
145.003
20
110.940
0
VERTEX
8
CONTOURS_MINEURES
10
145.487
20
110.486
0
VERTEX
8
CONTOURS_MINEURES
10
146.648
20
110.002
0
VERTEX
8
CONTOURS_MINEURES
10
149.997
20
107.281
0
VERTEX
8
CONTOURS_MINEURES
10
151.473
20
106.478
0
VERTEX
8
CONTOURS_MINEURES
10
153.293
20
105.005
0
VERTEX
8
CONTOURS_MINEURES
10
153.754
20
103.757
0
VERTEX
8
CONTOURS_MINEURES
10
155.002
20
103.034
0
SEQEND
0
POLYLINE
8
CONTOURS_MINEURES
66
1
70
0
0
VERTEX
8
CONTOURS_MINEURES
10
155.002
20
45.911
0
VERTEX
8
CONTOURS_MINEURES
10
152.081
20
47.084
0
VERTEX
8
CONTOURS_MINEURES
10
149.997
20
49.467
0
VERTEX
8
CONTOURS_MINEURES
10
149.500
20
50.001
0
VERTEX
8
CONTOURS_MINEURES
10
147.640
20
52.639
0
VERTEX
8
CONTOURS_MINEURES
10
145.846
20
54.997
0
VERTEX
8
CONTOURS_MINEURES
10
145.561
20
55.556
0
VERTEX
8
CONTOURS_MINEURES
10
145.003
20
56.485
0
VERTEX
8
CONTOURS_MINEURES
10
143.748
20
58.749
0
VERTEX
8
CONTOURS_MINEURES
10
142.901
20
60.004
0
VERTEX
8
CONTOURS_MINEURES
10
139.998
20
63.386
0
VERTEX
8
CONTOURS_MINEURES
10
139.256
20
64.259
0
VERTEX
8
CONTOURS_MINEURES
10
138.791
20
65.001
0
VERTEX
8
CONTOURS_MINEURES
10
137.244
20
67.243
0
VERTEX
8
CONTOURS_MINEURES
10
137.232
20
69.997
0
VERTEX
8
CONTOURS_MINEURES
10
137.722
20
72.279
0
VERTEX
8
CONTOURS_MINEURES
10
137.447
20
75.005
0
VERTEX
8
CONTOURS_MINEURES
10
136.579
20
78.424
0
VERTEX
8
CONTOURS_MINEURES
10
136.265
20
80.001
0
VERTEX
8
CONTOURS_MINEURES
10
135.003
20
82.297
0
VERTEX
8
CONTOURS_MINEURES
10
133.240
20
84.998
0
VERTEX
8
CONTOURS_MINEURES
10
129.998
20
89.802
0
VERTEX
8
CONTOURS_MINEURES
10
129.912
20
89.919
0
VERTEX
8
CONTOURS_MINEURES
10
129.849
20
90.005
0
VERTEX
8
CONTOURS_MINEURES
10
129.544
20
90.459
0
VERTEX
8
CONTOURS_MINEURES
10
126.787
20
95.001
0
VERTEX
8
CONTOURS_MINEURES
10
126.365
20
96.363
0
VERTEX
8
CONTOURS_MINEURES
10
125.004
20
97.765
0
VERTEX
8
CONTOURS_MINEURES
10
123.911
20
99.998
0
VERTEX
8
CONTOURS_MINEURES
10
123.610
20
101.392
0
VERTEX
8
CONTOURS_MINEURES
10
123.093
20
105.005
0
VERTEX
8
CONTOURS_MINEURES
10
124.124
20
109.124
0
VERTEX
8
CONTOURS_MINEURES
10
124.232
20
110.002
0
VERTEX
8
CONTOURS_MINEURES
10
123.865
20
111.138
0
VERTEX
8
CONTOURS_MINEURES
10
123.422
20
114.998
0
VERTEX
8
CONTOURS_MINEURES
10
122.151
20
117.147
0
VERTEX
8
CONTOURS_MINEURES
10
119.998
20
118.685
0
VERTEX
8
CONTOURS_MINEURES
10
118.001
20
119.994
0
VERTEX
8
CONTOURS_MINEURES
10
116.142
20
121.135
0
VERTEX
8
CONTOURS_MINEURES
10
115.004
20
121.795
0
VERTEX
8
CONTOURS_MINEURES
10
111.697
20
125.002
0
VERTEX
8
CONTOURS_MINEURES
10
109.999
20
127.078
0
VERTEX
8
CONTOURS_MINEURES
10
109.447
20
129.447
0
VERTEX
8
CONTOURS_MINEURES
10
109.446
20
129.998
0
VERTEX
8
CONTOURS_MINEURES
10
109.500
20
130.497
0
VERTEX
8
CONTOURS_MINEURES
10
108.556
20
134.995
0
VERTEX
8
CONTOURS_MINEURES
10
108.484
20
138.484
0
VERTEX
8
CONTOURS_MINEURES
10
108.446
20
140.002
0
VERTEX
8
CONTOURS_MINEURES
10
108.805
20
143.805
0
VERTEX
8
CONTOURS_MINEURES
10
108.197
20
144.999
0
VERTEX
8
CONTOURS_MINEURES
10
108.154
20
146.844
0
VERTEX
8
CONTOURS_MINEURES
10
108.316
20
149.995
0
VERTEX
8
CONTOURS_MINEURES
10
107.724
20
152.722
0
VERTEX
8
CONTOURS_MINEURES
10
107.566
20
155.003
0
VERTEX
8
CONTOURS_MINEURES
10
107.400
20
157.602
0
VERTEX
8
CONTOURS_MINEURES
10
107.368
20
159.999
0
VERTEX
8
CONTOURS_MINEURES
10
107.451
20
162.447
0
VERTEX
8
CONTOURS_MINEURES
10
107.358
20
164.995
0
VERTEX
8
CONTOURS_MINEURES
10
107.264
20
167.737
0
VERTEX
8
CONTOURS_MINEURES
10
107.311
20
170.003
0
VERTEX
8
CONTOURS_MINEURES
10
107.585
20
172.584
0
VERTEX
8
CONTOURS_MINEURES
10
107.785
20
174.999
0
VERTEX
8
CONTOURS_MINEURES
10
108.012
20
176.987
0
VERTEX
8
CONTOURS_MINEURES
10
108.475
20
179.996
0
VERTEX
8
CONTOURS_MINEURES
10
109.210
20
184.212
0
VERTEX
8
CONTOURS_MINEURES
10
109.286
20
185.003
0
VERTEX
8
CONTOURS_MINEURES
10
109.999
20
188.802
0
VERTEX
8
CONTOURS_MINEURES
10
110.784
20
189.215
0
VERTEX
8
CONTOURS_MINEURES
10
115.004
20
189.123
0
VERTEX
8
CONTOURS_MINEURES
10
118.836
20
185.003
0
VERTEX
8
CONTOURS_MINEURES
10
119.394
20
184.397
0
VERTEX
8
CONTOURS_MINEURES
10
119.998
20
183.861
0
VERTEX
8
CONTOURS_MINEURES
10
122.366
20
179.996
0
VERTEX
8
CONTOURS_MINEURES
10
123.180
20
178.175
0
VERTEX
8
CONTOURS_MINEURES
10
123.587
20
174.999
0
VERTEX
8
CONTOURS_MINEURES
10
123.637
20
173.635
0
VERTEX
8
CONTOURS_MINEURES
10
123.564
20
170.003
0
VERTEX
8
CONTOURS_MINEURES
10
123.004
20
168.002
0
VERTEX
8
CONTOURS_MINEURES
10
122.554
20
164.995
0
VERTEX
8
CONTOURS_MINEURES
10
121.837
20
161.835
0
VERTEX
8
CONTOURS_MINEURES
10
121.498
20
159.999
0
VERTEX
8
CONTOURS_MINEURES
10
121.288
20
158.711
0
VERTEX
8
CONTOURS_MINEURES
10
120.126
20
155.003
0
VERTEX
8
CONTOURS_MINEURES
10
120.106
20
154.894
0
VERTEX
8
CONTOURS_MINEURES
10
119.998
20
154.585
0
VERTEX
8
CONTOURS_MINEURES
10
119.021
20
150.975
0
VERTEX
8
CONTOURS_MINEURES
10
118.687
20
149.995
0
VERTEX
8
CONTOURS_MINEURES
10
119.014
20
149.010
0
VERTEX
8
CONTOURS_MINEURES
10
119.744
20
144.999
0
VERTEX
8
CONTOURS_MINEURES
10
119.826
20
144.827
0
VERTEX
8
CONTOURS_MINEURES
10
119.998
20
144.739
0
VERTEX
8
CONTOURS_MINEURES
10
120.749
20
144.249
0
VERTEX
8
CONTOURS_MINEURES
10
125.004
20
141.152
0
VERTEX
8
CONTOURS_MINEURES
10
125.775
20
140.774
0
VERTEX
8
CONTOURS_MINEURES
10
128.317
20
140.002
0
VERTEX
8
CONTOURS_MINEURES
10
129.266
20
139.269
0
VERTEX
8
CONTOURS_MINEURES
10
129.998
20
139.073
0
VERTEX
8
CONTOURS_MINEURES
10
132.255
20
137.744
0
VERTEX
8
CONTOURS_MINEURES
10
135.003
20
136.068
0
VERTEX
8
CONTOURS_MINEURES
10
135.733
20
135.726
0
VERTEX
8
CONTOURS_MINEURES
10
136.992
20
134.995
0
VERTEX
8
CONTOURS_MINEURES
10
138.825
20
133.822
0
VERTEX
8
CONTOURS_MINEURES
10
139.998
20
132.426
0
VERTEX
8
CONTOURS_MINEURES
10
141.088
20
131.087
0
VERTEX
8
CONTOURS_MINEURES
10
141.265
20
129.998
0
VERTEX
8
CONTOURS_MINEURES
10
141.905
20
126.906
0
VERTEX
8
CONTOURS_MINEURES
10
141.636
20
125.002
0
VERTEX
8
CONTOURS_MINEURES
10
141.574
20
123.424
0
VERTEX
8
CONTOURS_MINEURES
10
141.604
20
119.994
0
VERTEX
8
CONTOURS_MINEURES
10
142.202
20
117.198
0
VERTEX
8
CONTOURS_MINEURES
10
142.857
20
114.998
0
VERTEX
8
CONTOURS_MINEURES
10
145.003
20
112.631
0
VERTEX
8
CONTOURS_MINEURES
10
146.359
20
111.359
0
VERTEX
8
CONTOURS_MINEURES
10
149.612
20
110.002
0
VERTEX
8
CONTOURS_MINEURES
10
149.997
20
109.689
0
VERTEX
8
CONTOURS_MINEURES
10
153.035
20
108.037
0
VERTEX
8
CONTOURS_MINEURES
10
155.002
20
106.445
0
SEQEND
0
POLYLINE
8
CONTOURS_MINEURES
66
1
70
0
0
VERTEX
8
CONTOURS_MINEURES
10
105.186
20
209.996
0
VERTEX
8
CONTOURS_MINEURES
10
106.522
20
206.518
0
VERTEX
8
CONTOURS_MINEURES
10
106.741
20
205.000
0
VERTEX
8
CONTOURS_MINEURES
10
108.044
20
201.959
0
VERTEX
8
CONTOURS_MINEURES
10
107.057
20
200.003
0
VERTEX
8
CONTOURS_MINEURES
10
108.609
20
196.389
0
VERTEX
8
CONTOURS_MINEURES
10
105.004
20
198.721
0
VERTEX
8
CONTOURS_MINEURES
10
104.315
20
200.003
0
VERTEX
8
CONTOURS_MINEURES
10
103.691
20
203.689
0
VERTEX
8
CONTOURS_MINEURES
10
101.497
20
205.000
0
VERTEX
8
CONTOURS_MINEURES
10
99.999
20
207.392
0
VERTEX
8
CONTOURS_MINEURES
10
99.313
20
209.310
0
VERTEX
8
CONTOURS_MINEURES
10
97.841
20
209.996
0
SEQEND
0
POLYLINE
8
CONTOURS_MINEURES
66
1
70
0
0
VERTEX
8
CONTOURS_MINEURES
10
155.002
20
37.236
0
VERTEX
8
CONTOURS_MINEURES
10
153.334
20
38.331
0
VERTEX
8
CONTOURS_MINEURES
10
152.187
20
39.997
0
VERTEX
8
CONTOURS_MINEURES
10
150.623
20
44.378
0
VERTEX
8
CONTOURS_MINEURES
10
150.310
20
45.004
0
VERTEX
8
CONTOURS_MINEURES
10
150.087
20
45.094
0
VERTEX
8
CONTOURS_MINEURES
10
149.997
20
45.196
0
VERTEX
8
CONTOURS_MINEURES
10
145.520
20
50.001
0
VERTEX
8
CONTOURS_MINEURES
10
145.306
20
50.304
0
VERTEX
8
CONTOURS_MINEURES
10
145.003
20
50.703
0
VERTEX
8
CONTOURS_MINEURES
10
141.807
20
54.997
0
VERTEX
8
CONTOURS_MINEURES
10
141.162
20
56.161
0
VERTEX
8
CONTOURS_MINEURES
10
139.998
20
57.886
0
VERTEX
8
CONTOURS_MINEURES
10
138.583
20
60.004
0
VERTEX
8
CONTOURS_MINEURES
10
136.938
20
61.940
0
VERTEX
8
CONTOURS_MINEURES
10
135.022
20
65.001
0
VERTEX
8
CONTOURS_MINEURES
10
135.014
20
65.012
0
VERTEX
8
CONTOURS_MINEURES
10
135.003
20
67.499
0
VERTEX
8
CONTOURS_MINEURES
10
134.992
20
69.986
0
VERTEX
8
CONTOURS_MINEURES
10
134.995
20
69.997
0
VERTEX
8
CONTOURS_MINEURES
10
134.996
20
70.005
0
VERTEX
8
CONTOURS_MINEURES
10
135.003
20
70.049
0
VERTEX
8
CONTOURS_MINEURES
10
135.879
20
74.127
0
VERTEX
8
CONTOURS_MINEURES
10
135.790
20
75.005
0
VERTEX
8
CONTOURS_MINEURES
10
135.003
20
78.107
0
VERTEX
8
CONTOURS_MINEURES
10
134.607
20
79.605
0
VERTEX
8
CONTOURS_MINEURES
10
134.435
20
80.001
0
VERTEX
8
CONTOURS_MINEURES
10
133.244
20
81.757
0
VERTEX
8
CONTOURS_MINEURES
10
131.128
20
84.998
0
VERTEX
8
CONTOURS_MINEURES
10
129.998
20
86.672
0
VERTEX
8
CONTOURS_MINEURES
10
128.587
20
88.590
0
VERTEX
8
CONTOURS_MINEURES
10
127.564
20
90.005
0
VERTEX
8
CONTOURS_MINEURES
10
125.004
20
93.812
0
VERTEX
8
CONTOURS_MINEURES
10
124.507
20
94.506
0
VERTEX
8
CONTOURS_MINEURES
10
124.222
20
95.001
0
VERTEX
8
CONTOURS_MINEURES
10
123.579
20
96.423
0
VERTEX
8
CONTOURS_MINEURES
10
121.830
20
99.998
0
VERTEX
8
CONTOURS_MINEURES
10
120.954
20
104.049
0
VERTEX
8
CONTOURS_MINEURES
10
120.817
20
105.005
0
VERTEX
8
CONTOURS_MINEURES
10
121.090
20
106.095
0
VERTEX
8
CONTOURS_MINEURES
10
121.569
20
110.002
0
VERTEX
8
CONTOURS_MINEURES
10
119.998
20
114.874
0
VERTEX
8
CONTOURS_MINEURES
10
119.965
20
114.964
0
VERTEX
8
CONTOURS_MINEURES
10
119.924
20
114.998
0
VERTEX
8
CONTOURS_MINEURES
10
115.004
20
118.374
0
VERTEX
8
CONTOURS_MINEURES
10
114.062
20
119.055
0
VERTEX
8
CONTOURS_MINEURES
10
112.872
20
119.994
0
VERTEX
8
CONTOURS_MINEURES
10
109.999
20
122.757
0
VERTEX
8
CONTOURS_MINEURES
10
109.486
20
124.487
0
VERTEX
8
CONTOURS_MINEURES
10
109.475
20
125.002
0
VERTEX
8
CONTOURS_MINEURES
10
108.631
20
128.630
0
VERTEX
8
CONTOURS_MINEURES
10
108.626
20
129.998
0
VERTEX
8
CONTOURS_MINEURES
10
108.762
20
131.235
0
VERTEX
8
CONTOURS_MINEURES
10
107.972
20
134.995
0
VERTEX
8
CONTOURS_MINEURES
10
107.913
20
137.911
0
VERTEX
8
CONTOURS_MINEURES
10
107.860
20
140.002
0
VERTEX
8
CONTOURS_MINEURES
10
108.158
20
143.157
0
VERTEX
8
CONTOURS_MINEURES
10
107.221
20
144.999
0
VERTEX
8
CONTOURS_MINEURES
10
107.154
20
147.844
0
VERTEX
8
CONTOURS_MINEURES
10
107.265
20
149.995
0
VERTEX
8
CONTOURS_MINEURES
10
106.861
20
151.856
0
VERTEX
8
CONTOURS_MINEURES
10
106.643
20
155.003
0
VERTEX
8
CONTOURS_MINEURES
10
106.414
20
158.588
0
VERTEX
8
CONTOURS_MINEURES
10
106.395
20
159.999
0
VERTEX
8
CONTOURS_MINEURES
10
106.444
20
161.439
0
VERTEX
8
CONTOURS_MINEURES
10
106.314
20
164.995
0
VERTEX
8
CONTOURS_MINEURES
10
106.183
20
168.821
0
VERTEX
8
CONTOURS_MINEURES
10
106.207
20
170.003
0
VERTEX
8
CONTOURS_MINEURES
10
106.350
20
171.349
0
VERTEX
8
CONTOURS_MINEURES
10
106.652
20
174.999
0
VERTEX
8
CONTOURS_MINEURES
10
106.996
20
178.003
0
VERTEX
8
CONTOURS_MINEURES
10
107.302
20
179.996
0
VERTEX
8
CONTOURS_MINEURES
10
107.789
20
182.788
0
VERTEX
8
CONTOURS_MINEURES
10
108.002
20
185.003
0
VERTEX
8
CONTOURS_MINEURES
10
108.695
20
188.695
0
VERTEX
8
CONTOURS_MINEURES
10
108.399
20
189.999
0
VERTEX
8
CONTOURS_MINEURES
10
105.998
20
194.001
0
VERTEX
8
CONTOURS_MINEURES
10
105.984
20
194.996
0
VERTEX
8
CONTOURS_MINEURES
10
105.004
20
195.630
0
VERTEX
8
CONTOURS_MINEURES
10
102.655
20
200.003
0
VERTEX
8
CONTOURS_MINEURES
10
102.271
20
202.271
0
VERTEX
8
CONTOURS_MINEURES
10
99.999
20
203.629
0
VERTEX
8
CONTOURS_MINEURES
10
98.688
20
205.000
0
VERTEX
8
CONTOURS_MINEURES
10
97.717
20
207.713
0
VERTEX
8
CONTOURS_MINEURES
10
95.005
20
208.978
0
VERTEX
8
CONTOURS_MINEURES
10
93.788
20
209.996
0
SEQEND
0
POLYLINE
8
CONTOURS_MINEURES
66
1
70
0
0
VERTEX
8
CONTOURS_MINEURES
10
107.456
20
209.996
0
VERTEX
8
CONTOURS_MINEURES
10
108.162
20
208.158
0
VERTEX
8
CONTOURS_MINEURES
10
108.619
20
205.000
0
VERTEX
8
CONTOURS_MINEURES
10
109.999
20
201.778
0
VERTEX
8
CONTOURS_MINEURES
10
112.471
20
200.003
0
VERTEX
8
CONTOURS_MINEURES
10
113.349
20
198.347
0
VERTEX
8
CONTOURS_MINEURES
10
115.004
20
196.119
0
VERTEX
8
CONTOURS_MINEURES
10
115.438
20
194.996
0
VERTEX
8
CONTOURS_MINEURES
10
116.104
20
193.896
0
VERTEX
8
CONTOURS_MINEURES
10
118.266
20
189.999
0
VERTEX
8
CONTOURS_MINEURES
10
119.998
20
188.137
0
VERTEX
8
CONTOURS_MINEURES
10
121.383
20
186.385
0
VERTEX
8
CONTOURS_MINEURES
10
122.256
20
185.003
0
VERTEX
8
CONTOURS_MINEURES
10
124.528
20
180.471
0
VERTEX
8
CONTOURS_MINEURES
10
124.820
20
179.996
0
VERTEX
8
CONTOURS_MINEURES
10
124.876
20
179.869
0
VERTEX
8
CONTOURS_MINEURES
10
125.004
20
178.877
0
VERTEX
8
CONTOURS_MINEURES
10
125.485
20
174.999
0
VERTEX
8
CONTOURS_MINEURES
10
125.391
20
170.391
0
VERTEX
8
CONTOURS_MINEURES
10
125.381
20
170.003
0
VERTEX
8
CONTOURS_MINEURES
10
125.369
20
169.636
0
VERTEX
8
CONTOURS_MINEURES
10
125.004
20
167.070
0
VERTEX
8
CONTOURS_MINEURES
10
124.693
20
164.995
0
VERTEX
8
CONTOURS_MINEURES
10
124.603
20
164.595
0
VERTEX
8
CONTOURS_MINEURES
10
123.752
20
159.999
0
VERTEX
8
CONTOURS_MINEURES
10
123.228
20
156.774
0
VERTEX
8
CONTOURS_MINEURES
10
122.673
20
155.003
0
VERTEX
8
CONTOURS_MINEURES
10
122.269
20
152.731
0
VERTEX
8
CONTOURS_MINEURES
10
121.312
20
149.995
0
VERTEX
8
CONTOURS_MINEURES
10
122.052
20
147.048
0
VERTEX
8
CONTOURS_MINEURES
10
122.042
20
144.999
0
VERTEX
8
CONTOURS_MINEURES
10
125.004
20
142.843
0
VERTEX
8
CONTOURS_MINEURES
10
126.911
20
141.910
0
VERTEX
8
CONTOURS_MINEURES
10
129.998
20
140.972
0
VERTEX
8
CONTOURS_MINEURES
10
132.741
20
140.002
0
VERTEX
8
CONTOURS_MINEURES
10
135.003
20
138.623
0
VERTEX
8
CONTOURS_MINEURES
10
137.470
20
137.468
0
VERTEX
8
CONTOURS_MINEURES
10
139.998
20
135.999
0
VERTEX
8
CONTOURS_MINEURES
10
141.200
20
134.995
0
VERTEX
8
CONTOURS_MINEURES
10
142.904
20
132.900
0
VERTEX
8
CONTOURS_MINEURES
10
143.377
20
129.998
0
VERTEX
8
CONTOURS_MINEURES
10
143.655
20
128.653
0
VERTEX
8
CONTOURS_MINEURES
10
143.139
20
125.002
0
VERTEX
8
CONTOURS_MINEURES
10
143.021
20
121.977
0
VERTEX
8
CONTOURS_MINEURES
10
143.038
20
119.994
0
VERTEX
8
CONTOURS_MINEURES
10
143.384
20
118.378
0
VERTEX
8
CONTOURS_MINEURES
10
144.390
20
114.998
0
VERTEX
8
CONTOURS_MINEURES
10
145.003
20
114.322
0
VERTEX
8
CONTOURS_MINEURES
10
147.232
20
112.232
0
VERTEX
8
CONTOURS_MINEURES
10
149.997
20
111.078
0
VERTEX
8
CONTOURS_MINEURES
10
150.957
20
110.960
0
VERTEX
8
CONTOURS_MINEURES
10
153.851
20
110.002
0
VERTEX
8
CONTOURS_MINEURES
10
154.596
20
109.596
0
VERTEX
8
CONTOURS_MINEURES
10
155.002
20
109.268
0
SEQEND
0
POLYLINE
8
CONTOURS_MINEURES
66
1
70
0
0
VERTEX
8
CONTOURS_MINEURES
10
152.396
20
0.003
0
VERTEX
8
CONTOURS_MINEURES
10
153.286
20
3.287
0
VERTEX
8
CONTOURS_MINEURES
10
153.777
20
5.000
0
VERTEX
8
CONTOURS_MINEURES
10
154.106
20
5.895
0
VERTEX
8
CONTOURS_MINEURES
10
155.002
20
7.141
0
SEQEND
0
POLYLINE
8
CONTOURS_MINEURES
66
1
70
0
0
VERTEX
8
CONTOURS_MINEURES
10
155.002
20
30.318
0
VERTEX
8
CONTOURS_MINEURES
10
154.407
20
30.599
0
VERTEX
8
CONTOURS_MINEURES
10
149.997
20
31.445
0
VERTEX
8
CONTOURS_MINEURES
10
147.921
20
32.923
0
VERTEX
8
CONTOURS_MINEURES
10
146.575
20
35.000
0
VERTEX
8
CONTOURS_MINEURES
10
145.003
20
38.267
0
VERTEX
8
CONTOURS_MINEURES
10
144.453
20
39.448
0
VERTEX
8
CONTOURS_MINEURES
10
144.364
20
39.997
0
VERTEX
8
CONTOURS_MINEURES
10
144.184
20
40.816
0
VERTEX
8
CONTOURS_MINEURES
10
143.263
20
45.004
0
VERTEX
8
CONTOURS_MINEURES
10
141.729
20
46.732
0
VERTEX
8
CONTOURS_MINEURES
10
140.670
20
50.001
0
VERTEX
8
CONTOURS_MINEURES
10
139.998
20
50.985
0
VERTEX
8
CONTOURS_MINEURES
10
138.083
20
53.082
0
VERTEX
8
CONTOURS_MINEURES
10
137.619
20
54.997
0
VERTEX
8
CONTOURS_MINEURES
10
135.003
20
58.931
0
VERTEX
8
CONTOURS_MINEURES
10
134.370
20
60.004
0
VERTEX
8
CONTOURS_MINEURES
10
132.671
20
62.672
0
VERTEX
8
CONTOURS_MINEURES
10
132.775
20
65.001
0
VERTEX
8
CONTOURS_MINEURES
10
132.763
20
67.761
0
VERTEX
8
CONTOURS_MINEURES
10
133.346
20
69.997
0
VERTEX
8
CONTOURS_MINEURES
10
133.513
20
71.488
0
VERTEX
8
CONTOURS_MINEURES
10
134.096
20
75.005
0
VERTEX
8
CONTOURS_MINEURES
10
133.239
20
78.240
0
VERTEX
8
CONTOURS_MINEURES
10
132.476
20
80.001
0
VERTEX
8
CONTOURS_MINEURES
10
129.998
20
83.655
0
VERTEX
8
CONTOURS_MINEURES
10
129.316
20
84.315
0
VERTEX
8
CONTOURS_MINEURES
10
128.928
20
84.998
0
VERTEX
8
CONTOURS_MINEURES
10
127.262
20
87.262
0
VERTEX
8
CONTOURS_MINEURES
10
125.278
20
90.005
0
VERTEX
8
CONTOURS_MINEURES
10
125.004
20
90.413
0
VERTEX
8
CONTOURS_MINEURES
10
123.089
20
93.091
0
VERTEX
8
CONTOURS_MINEURES
10
121.987
20
95.001
0
VERTEX
8
CONTOURS_MINEURES
10
119.998
20
99.404
0
VERTEX
8
CONTOURS_MINEURES
10
119.748
20
99.998
0
VERTEX
8
CONTOURS_MINEURES
10
118.902
20
103.906
0
VERTEX
8
CONTOURS_MINEURES
10
118.624
20
105.005
0
VERTEX
8
CONTOURS_MINEURES
10
118.271
20
106.734
0
VERTEX
8
CONTOURS_MINEURES
10
118.734
20
110.002
0
VERTEX
8
CONTOURS_MINEURES
10
117.720
20
112.719
0
VERTEX
8
CONTOURS_MINEURES
10
115.004
20
114.957
0
VERTEX
8
CONTOURS_MINEURES
10
114.957
20
114.998
0
VERTEX
8
CONTOURS_MINEURES
10
112.080
20
117.076
0
VERTEX
8
CONTOURS_MINEURES
10
109.999
20
118.719
0
VERTEX
8
CONTOURS_MINEURES
10
109.540
20
119.535
0
VERTEX
8
CONTOURS_MINEURES
10
109.538
20
119.994
0
VERTEX
8
CONTOURS_MINEURES
10
108.498
20
123.498
0
VERTEX
8
CONTOURS_MINEURES
10
108.468
20
125.002
0
VERTEX
8
CONTOURS_MINEURES
10
107.814
20
127.813
0
VERTEX
8
CONTOURS_MINEURES
10
107.807
20
129.998
0
VERTEX
8
CONTOURS_MINEURES
10
108.024
20
131.974
0
VERTEX
8
CONTOURS_MINEURES
10
107.389
20
134.995
0
VERTEX
8
CONTOURS_MINEURES
10
107.342
20
137.338
0
VERTEX
8
CONTOURS_MINEURES
10
107.275
20
140.002
0
VERTEX
8
CONTOURS_MINEURES
10
107.511
20
142.510
0
VERTEX
8
CONTOURS_MINEURES
10
106.244
20
144.999
0
VERTEX
8
CONTOURS_MINEURES
10
106.154
20
148.845
0
VERTEX
8
CONTOURS_MINEURES
10
106.214
20
149.995
0
VERTEX
8
CONTOURS_MINEURES
10
105.997
20
150.990
0
VERTEX
8
CONTOURS_MINEURES
10
105.720
20
155.003
0
VERTEX
8
CONTOURS_MINEURES
10
105.428
20
159.575
0
VERTEX
8
CONTOURS_MINEURES
10
105.423
20
159.999
0
VERTEX
8
CONTOURS_MINEURES
10
105.437
20
160.432
0
VERTEX
8
CONTOURS_MINEURES
10
105.270
20
164.995
0
VERTEX
8
CONTOURS_MINEURES
10
105.102
20
169.905
0
VERTEX
8
CONTOURS_MINEURES
10
105.104
20
170.003
0
VERTEX
8
CONTOURS_MINEURES
10
105.115
20
170.114
0
VERTEX
8
CONTOURS_MINEURES
10
105.520
20
174.999
0
VERTEX
8
CONTOURS_MINEURES
10
105.980
20
179.020
0
VERTEX
8
CONTOURS_MINEURES
10
106.130
20
179.996
0
VERTEX
8
CONTOURS_MINEURES
10
106.368
20
181.363
0
VERTEX
8
CONTOURS_MINEURES
10
106.718
20
185.003
0
VERTEX
8
CONTOURS_MINEURES
10
107.114
20
187.114
0
VERTEX
8
CONTOURS_MINEURES
10
106.459
20
189.999
0
VERTEX
8
CONTOURS_MINEURES
10
105.004
20
192.425
0
VERTEX
8
CONTOURS_MINEURES
10
103.749
20
193.743
0
VERTEX
8
CONTOURS_MINEURES
10
103.329
20
194.996
0
VERTEX
8
CONTOURS_MINEURES
10
102.152
20
197.850
0
VERTEX
8
CONTOURS_MINEURES
10
100.995
20
200.003
0
VERTEX
8
CONTOURS_MINEURES
10
100.851
20
200.854
0
VERTEX
8
CONTOURS_MINEURES
10
99.999
20
201.363
0
VERTEX
8
CONTOURS_MINEURES
10
96.521
20
205.000
0
VERTEX
8
CONTOURS_MINEURES
10
96.122
20
206.117
0
VERTEX
8
CONTOURS_MINEURES
10
95.005
20
206.638
0
VERTEX
8
CONTOURS_MINEURES
10
90.992
20
209.996
0
SEQEND
0
POLYLINE
8
CONTOURS_MINEURES
66
1
70
0
0
VERTEX
8
CONTOURS_MINEURES
10
109.726
20
209.996
0
VERTEX
8
CONTOURS_MINEURES
10
109.802
20
209.799
0
VERTEX
8
CONTOURS_MINEURES
10
109.999
20
208.439
0
VERTEX
8
CONTOURS_MINEURES
10
112.525
20
205.000
0
VERTEX
8
CONTOURS_MINEURES
10
115.004
20
203.462
0
VERTEX
8
CONTOURS_MINEURES
10
116.650
20
201.650
0
VERTEX
8
CONTOURS_MINEURES
10
116.926
20
200.003
0
VERTEX
8
CONTOURS_MINEURES
10
118.462
20
196.537
0
VERTEX
8
CONTOURS_MINEURES
10
119.057
20
194.996
0
VERTEX
8
CONTOURS_MINEURES
10
119.998
20
193.440
0
VERTEX
8
CONTOURS_MINEURES
10
121.990
20
189.999
0
VERTEX
8
CONTOURS_MINEURES
10
123.319
20
188.318
0
VERTEX
8
CONTOURS_MINEURES
10
125.004
20
185.653
0
VERTEX
8
CONTOURS_MINEURES
10
125.340
20
185.003
0
VERTEX
8
CONTOURS_MINEURES
10
125.397
20
184.609
0
VERTEX
8
CONTOURS_MINEURES
10
126.893
20
179.996
0
VERTEX
8
CONTOURS_MINEURES
10
126.961
20
178.037
0
VERTEX
8
CONTOURS_MINEURES
10
127.339
20
174.999
0
VERTEX
8
CONTOURS_MINEURES
10
127.283
20
172.283
0
VERTEX
8
CONTOURS_MINEURES
10
127.220
20
170.003
0
VERTEX
8
CONTOURS_MINEURES
10
127.153
20
167.848
0
VERTEX
8
CONTOURS_MINEURES
10
126.747
20
164.995
0
VERTEX
8
CONTOURS_MINEURES
10
126.093
20
161.089
0
VERTEX
8
CONTOURS_MINEURES
10
126.115
20
159.999
0
VERTEX
8
CONTOURS_MINEURES
10
126.132
20
158.870
0
VERTEX
8
CONTOURS_MINEURES
10
125.267
20
155.003
0
VERTEX
8
CONTOURS_MINEURES
10
125.004
20
153.786
0
VERTEX
8
CONTOURS_MINEURES
10
124.431
20
150.568
0
VERTEX
8
CONTOURS_MINEURES
10
124.230
20
149.995
0
VERTEX
8
CONTOURS_MINEURES
10
124.385
20
149.378
0
VERTEX
8
CONTOURS_MINEURES
10
124.365
20
144.999
0
VERTEX
8
CONTOURS_MINEURES
10
125.004
20
144.534
0
VERTEX
8
CONTOURS_MINEURES
10
128.046
20
143.045
0
VERTEX
8
CONTOURS_MINEURES
10
129.998
20
142.452
0
VERTEX
8
CONTOURS_MINEURES
10
133.947
20
141.057
0
VERTEX
8
CONTOURS_MINEURES
10
135.003
20
140.687
0
VERTEX
8
CONTOURS_MINEURES
10
137.514
20
140.002
0
VERTEX
8
CONTOURS_MINEURES
10
139.207
20
139.210
0
VERTEX
8
CONTOURS_MINEURES
10
139.998
20
138.750
0
VERTEX
8
CONTOURS_MINEURES
10
144.492
20
134.995
0
VERTEX
8
CONTOURS_MINEURES
10
144.721
20
134.714
0
VERTEX
8
CONTOURS_MINEURES
10
145.003
20
132.983
0
VERTEX
8
CONTOURS_MINEURES
10
145.639
20
129.998
0
VERTEX
8
CONTOURS_MINEURES
10
145.003
20
127.553
0
VERTEX
8
CONTOURS_MINEURES
10
144.642
20
125.002
0
VERTEX
8
CONTOURS_MINEURES
10
144.468
20
120.530
0
VERTEX
8
CONTOURS_MINEURES
10
144.472
20
119.994
0
VERTEX
8
CONTOURS_MINEURES
10
144.566
20
119.558
0
VERTEX
8
CONTOURS_MINEURES
10
145.003
20
118.089
0
VERTEX
8
CONTOURS_MINEURES
10
145.782
20
115.778
0
VERTEX
8
CONTOURS_MINEURES
10
146.085
20
114.998
0
VERTEX
8
CONTOURS_MINEURES
10
148.104
20
113.104
0
VERTEX
8
CONTOURS_MINEURES
10
149.997
20
112.314
0
VERTEX
8
CONTOURS_MINEURES
10
152.061
20
112.062
0
VERTEX
8
CONTOURS_MINEURES
10
155.002
20
111.088
0
SEQEND
0
POLYLINE
8
CONTOURS_MINEURES
66
1
70
0
0
VERTEX
8
CONTOURS_MINEURES
10
113.336
20
0.003
0
VERTEX
8
CONTOURS_MINEURES
10
114.154
20
0.852
0
VERTEX
8
CONTOURS_MINEURES
10
115.004
20
2.252
0
VERTEX
8
CONTOURS_MINEURES
10
117.117
20
5.000
0
VERTEX
8
CONTOURS_MINEURES
10
119.998
20
7.998
0
VERTEX
8
CONTOURS_MINEURES
10
121.190
20
8.807
0
VERTEX
8
CONTOURS_MINEURES
10
121.724
20
9.996
0
VERTEX
8
CONTOURS_MINEURES
10
125.004
20
13.394
0
VERTEX
8
CONTOURS_MINEURES
10
125.792
20
14.213
0
VERTEX
8
CONTOURS_MINEURES
10
126.025
20
15.004
0
VERTEX
8
CONTOURS_MINEURES
10
127.941
20
17.061
0
VERTEX
8
CONTOURS_MINEURES
10
129.998
20
19.070
0
VERTEX
8
CONTOURS_MINEURES
10
130.888
20
20.000
0
VERTEX
8
CONTOURS_MINEURES
10
132.501
20
22.498
0
VERTEX
8
CONTOURS_MINEURES
10
133.365
20
24.996
0
VERTEX
8
CONTOURS_MINEURES
10
133.573
20
26.427
0
VERTEX
8
CONTOURS_MINEURES
10
134.894
20
30.004
0
VERTEX
8
CONTOURS_MINEURES
10
135.003
20
30.298
0
VERTEX
8
CONTOURS_MINEURES
10
136.145
20
35.000
0
VERTEX
8
CONTOURS_MINEURES
10
135.862
20
35.860
0
VERTEX
8
CONTOURS_MINEURES
10
136.404
20
39.997
0
VERTEX
8
CONTOURS_MINEURES
10
136.089
20
41.085
0
VERTEX
8
CONTOURS_MINEURES
10
135.880
20
45.004
0
VERTEX
8
CONTOURS_MINEURES
10
135.003
20
47.502
0
VERTEX
8
CONTOURS_MINEURES
10
134.028
20
49.027
0
VERTEX
8
CONTOURS_MINEURES
10
134.090
20
50.001
0
VERTEX
8
CONTOURS_MINEURES
10
132.831
20
52.828
0
VERTEX
8
CONTOURS_MINEURES
10
132.782
20
54.997
0
VERTEX
8
CONTOURS_MINEURES
10
131.308
20
58.694
0
VERTEX
8
CONTOURS_MINEURES
10
130.535
20
60.004
0
VERTEX
8
CONTOURS_MINEURES
10
130.326
20
60.332
0
VERTEX
8
CONTOURS_MINEURES
10
130.535
20
65.001
0
VERTEX
8
CONTOURS_MINEURES
10
130.533
20
65.535
0
VERTEX
8
CONTOURS_MINEURES
10
131.697
20
69.997
0
VERTEX
8
CONTOURS_MINEURES
10
132.030
20
72.972
0
VERTEX
8
CONTOURS_MINEURES
10
132.367
20
75.005
0
VERTEX
8
CONTOURS_MINEURES
10
131.872
20
76.875
0
VERTEX
8
CONTOURS_MINEURES
10
130.517
20
80.001
0
VERTEX
8
CONTOURS_MINEURES
10
129.998
20
80.766
0
VERTEX
8
CONTOURS_MINEURES
10
127.849
20
82.848
0
VERTEX
8
CONTOURS_MINEURES
10
126.626
20
84.998
0
VERTEX
8
CONTOURS_MINEURES
10
125.938
20
85.934
0
VERTEX
8
CONTOURS_MINEURES
10
125.004
20
87.225
0
VERTEX
8
CONTOURS_MINEURES
10
123.530
20
88.531
0
VERTEX
8
CONTOURS_MINEURES
10
122.865
20
90.005
0
VERTEX
8
CONTOURS_MINEURES
10
121.672
20
91.675
0
VERTEX
8
CONTOURS_MINEURES
10
119.998
20
94.575
0
VERTEX
8
CONTOURS_MINEURES
10
119.758
20
94.761
0
VERTEX
8
CONTOURS_MINEURES
10
119.710
20
95.001
0
VERTEX
8
CONTOURS_MINEURES
10
119.602
20
95.398
0
VERTEX
8
CONTOURS_MINEURES
10
117.663
20
99.998
0
VERTEX
8
CONTOURS_MINEURES
10
117.188
20
102.188
0
VERTEX
8
CONTOURS_MINEURES
10
116.475
20
105.005
0
VERTEX
8
CONTOURS_MINEURES
10
115.571
20
109.435
0
VERTEX
8
CONTOURS_MINEURES
10
115.651
20
110.002
0
VERTEX
8
CONTOURS_MINEURES
10
115.475
20
110.473
0
VERTEX
8
CONTOURS_MINEURES
10
115.004
20
110.862
0
VERTEX
8
CONTOURS_MINEURES
10
110.235
20
114.998
0
VERTEX
8
CONTOURS_MINEURES
10
110.098
20
115.097
0
VERTEX
8
CONTOURS_MINEURES
10
109.999
20
115.175
0
VERTEX
8
CONTOURS_MINEURES
10
108.264
20
118.259
0
VERTEX
8
CONTOURS_MINEURES
10
108.257
20
119.994
0
VERTEX
8
CONTOURS_MINEURES
10
107.511
20
122.508
0
VERTEX
8
CONTOURS_MINEURES
10
107.461
20
125.002
0
VERTEX
8
CONTOURS_MINEURES
10
106.997
20
126.996
0
VERTEX
8
CONTOURS_MINEURES
10
106.987
20
129.998
0
VERTEX
8
CONTOURS_MINEURES
10
107.286
20
132.713
0
VERTEX
8
CONTOURS_MINEURES
10
106.806
20
134.995
0
VERTEX
8
CONTOURS_MINEURES
10
106.770
20
136.765
0
VERTEX
8
CONTOURS_MINEURES
10
106.689
20
140.002
0
VERTEX
8
CONTOURS_MINEURES
10
106.864
20
141.863
0
VERTEX
8
CONTOURS_MINEURES
10
105.268
20
144.999
0
VERTEX
8
CONTOURS_MINEURES
10
105.154
20
149.845
0
VERTEX
8
CONTOURS_MINEURES
10
105.162
20
149.995
0
VERTEX
8
CONTOURS_MINEURES
10
105.134
20
150.125
0
VERTEX
8
CONTOURS_MINEURES
10
105.004
20
151.998
0
VERTEX
8
CONTOURS_MINEURES
10
104.509
20
155.003
0
VERTEX
8
CONTOURS_MINEURES
10
104.425
20
155.580
0
VERTEX
8
CONTOURS_MINEURES
10
103.759
20
159.999
0
VERTEX
8
CONTOURS_MINEURES
10
103.492
20
163.485
0
VERTEX
8
CONTOURS_MINEURES
10
103.369
20
164.995
0
VERTEX
8
CONTOURS_MINEURES
10
103.237
20
166.763
0
VERTEX
8
CONTOURS_MINEURES
10
103.002
20
170.003
0
VERTEX
8
CONTOURS_MINEURES
10
103.576
20
173.574
0
VERTEX
8
CONTOURS_MINEURES
10
103.789
20
174.999
0
VERTEX
8
CONTOURS_MINEURES
10
103.983
20
176.019
0
VERTEX
8
CONTOURS_MINEURES
10
104.912
20
179.996
0
VERTEX
8
CONTOURS_MINEURES
10
105.004
20
180.530
0
VERTEX
8
CONTOURS_MINEURES
10
105.434
20
185.003
0
VERTEX
8
CONTOURS_MINEURES
10
105.534
20
185.533
0
VERTEX
8
CONTOURS_MINEURES
10
105.004
20
187.864
0
VERTEX
8
CONTOURS_MINEURES
10
104.486
20
189.482
0
VERTEX
8
CONTOURS_MINEURES
10
104.234
20
189.999
0
VERTEX
8
CONTOURS_MINEURES
10
102.170
20
192.167
0
VERTEX
8
CONTOURS_MINEURES
10
101.221
20
194.996
0
VERTEX
8
CONTOURS_MINEURES
10
99.999
20
197.959
0
VERTEX
8
CONTOURS_MINEURES
10
99.383
20
199.386
0
VERTEX
8
CONTOURS_MINEURES
10
99.190
20
200.003
0
VERTEX
8
CONTOURS_MINEURES
10
95.005
20
204.367
0
VERTEX
8
CONTOURS_MINEURES
10
94.591
20
204.587
0
VERTEX
8
CONTOURS_MINEURES
10
94.276
20
205.000
0
VERTEX
8
CONTOURS_MINEURES
10
90.000
20
208.656
0
VERTEX
8
CONTOURS_MINEURES
10
89.083
20
209.079
0
VERTEX
8
CONTOURS_MINEURES
10
87.961
20
209.996
0
SEQEND
0
POLYLINE
8
CONTOURS_MINEURES
66
1
70
0
0
VERTEX
8
CONTOURS_MINEURES
10
115.865
20
209.996
0
VERTEX
8
CONTOURS_MINEURES
10
117.762
20
207.759
0
VERTEX
8
CONTOURS_MINEURES
10
118.978
20
205.000
0
VERTEX
8
CONTOURS_MINEURES
10
119.464
20
204.465
0
VERTEX
8
CONTOURS_MINEURES
10
119.998
20
201.277
0
VERTEX
8
CONTOURS_MINEURES
10
120.164
20
200.169
0
VERTEX
8
CONTOURS_MINEURES
10
120.190
20
200.003
0
VERTEX
8
CONTOURS_MINEURES
10
121.561
20
196.559
0
VERTEX
8
CONTOURS_MINEURES
10
122.299
20
194.996
0
VERTEX
8
CONTOURS_MINEURES
10
125.004
20
190.649
0
VERTEX
8
CONTOURS_MINEURES
10
125.276
20
190.272
0
VERTEX
8
CONTOURS_MINEURES
10
125.447
20
189.999
0
VERTEX
8
CONTOURS_MINEURES
10
125.702
20
189.301
0
VERTEX
8
CONTOURS_MINEURES
10
127.928
20
185.003
0
VERTEX
8
CONTOURS_MINEURES
10
128.424
20
181.574
0
VERTEX
8
CONTOURS_MINEURES
10
128.936
20
179.996
0
VERTEX
8
CONTOURS_MINEURES
10
129.077
20
175.920
0
VERTEX
8
CONTOURS_MINEURES
10
129.192
20
174.999
0
VERTEX
8
CONTOURS_MINEURES
10
129.175
20
174.176
0
VERTEX
8
CONTOURS_MINEURES
10
129.060
20
170.003
0
VERTEX
8
CONTOURS_MINEURES
10
128.937
20
166.059
0
VERTEX
8
CONTOURS_MINEURES
10
128.785
20
164.995
0
VERTEX
8
CONTOURS_MINEURES
10
128.541
20
163.538
0
VERTEX
8
CONTOURS_MINEURES
10
128.612
20
159.999
0
VERTEX
8
CONTOURS_MINEURES
10
128.667
20
156.334
0
VERTEX
8
CONTOURS_MINEURES
10
128.369
20
155.003
0
VERTEX
8
CONTOURS_MINEURES
10
127.917
20
152.916
0
VERTEX
8
CONTOURS_MINEURES
10
127.535
20
149.995
0
VERTEX
8
CONTOURS_MINEURES
10
127.527
20
147.471
0
VERTEX
8
CONTOURS_MINEURES
10
127.509
20
144.999
0
VERTEX
8
CONTOURS_MINEURES
10
129.181
20
144.181
0
VERTEX
8
CONTOURS_MINEURES
10
129.998
20
143.933
0
VERTEX
8
CONTOURS_MINEURES
10
131.651
20
143.348
0
VERTEX
8
CONTOURS_MINEURES
10
135.003
20
142.177
0
VERTEX
8
CONTOURS_MINEURES
10
138.882
20
141.118
0
VERTEX
8
CONTOURS_MINEURES
10
139.998
20
140.838
0
VERTEX
8
CONTOURS_MINEURES
10
140.689
20
140.692
0
VERTEX
8
CONTOURS_MINEURES
10
142.280
20
140.002
0
VERTEX
8
CONTOURS_MINEURES
10
145.003
20
137.825
0
VERTEX
8
CONTOURS_MINEURES
10
146.291
20
136.287
0
VERTEX
8
CONTOURS_MINEURES
10
147.380
20
134.995
0
VERTEX
8
CONTOURS_MINEURES
10
147.975
20
132.022
0
VERTEX
8
CONTOURS_MINEURES
10
148.406
20
129.998
0
VERTEX
8
CONTOURS_MINEURES
10
147.846
20
127.846
0
VERTEX
8
CONTOURS_MINEURES
10
146.709
20
125.002
0
VERTEX
8
CONTOURS_MINEURES
10
146.266
20
123.735
0
VERTEX
8
CONTOURS_MINEURES
10
146.097
20
119.994
0
VERTEX
8
CONTOURS_MINEURES
10
147.081
20
117.077
0
VERTEX
8
CONTOURS_MINEURES
10
147.888
20
114.998
0
VERTEX
8
CONTOURS_MINEURES
10
148.977
20
113.977
0
VERTEX
8
CONTOURS_MINEURES
10
149.997
20
113.551
0
VERTEX
8
CONTOURS_MINEURES
10
153.165
20
113.164
0
VERTEX
8
CONTOURS_MINEURES
10
155.002
20
112.555
0
SEQEND
0
POLYLINE
8
CONTOURS_MINEURES
66
1
70
0
0
VERTEX
8
CONTOURS_MINEURES
10
121.194
20
209.996
0
VERTEX
8
CONTOURS_MINEURES
10
121.544
20
208.453
0
VERTEX
8
CONTOURS_MINEURES
10
122.376
20
205.000
0
VERTEX
8
CONTOURS_MINEURES
10
122.718
20
202.718
0
VERTEX
8
CONTOURS_MINEURES
10
123.143
20
200.003
0
VERTEX
8
CONTOURS_MINEURES
10
123.673
20
198.672
0
VERTEX
8
CONTOURS_MINEURES
10
125.004
20
195.852
0
VERTEX
8
CONTOURS_MINEURES
10
125.474
20
194.996
0
VERTEX
8
CONTOURS_MINEURES
10
127.375
20
192.372
0
VERTEX
8
CONTOURS_MINEURES
10
128.856
20
189.999
0
VERTEX
8
CONTOURS_MINEURES
10
129.998
20
186.871
0
VERTEX
8
CONTOURS_MINEURES
10
130.461
20
185.466
0
VERTEX
8
CONTOURS_MINEURES
10
130.510
20
185.003
0
VERTEX
8
CONTOURS_MINEURES
10
130.562
20
184.439
0
VERTEX
8
CONTOURS_MINEURES
10
131.167
20
179.996
0
VERTEX
8
CONTOURS_MINEURES
10
131.246
20
178.750
0
VERTEX
8
CONTOURS_MINEURES
10
131.405
20
174.999
0
VERTEX
8
CONTOURS_MINEURES
10
131.265
20
171.268
0
VERTEX
8
CONTOURS_MINEURES
10
131.246
20
170.003
0
VERTEX
8
CONTOURS_MINEURES
10
131.076
20
166.074
0
VERTEX
8
CONTOURS_MINEURES
10
131.073
20
164.995
0
VERTEX
8
CONTOURS_MINEURES
10
131.257
20
163.738
0
VERTEX
8
CONTOURS_MINEURES
10
131.348
20
159.999
0
VERTEX
8
CONTOURS_MINEURES
10
131.413
20
156.415
0
VERTEX
8
CONTOURS_MINEURES
10
131.632
20
155.003
0
VERTEX
8
CONTOURS_MINEURES
10
131.542
20
153.458
0
VERTEX
8
CONTOURS_MINEURES
10
131.055
20
149.995
0
VERTEX
8
CONTOURS_MINEURES
10
131.207
20
148.788
0
VERTEX
8
CONTOURS_MINEURES
10
131.191
20
144.999
0
VERTEX
8
CONTOURS_MINEURES
10
135.003
20
143.666
0
VERTEX
8
CONTOURS_MINEURES
10
136.835
20
143.166
0
VERTEX
8
CONTOURS_MINEURES
10
139.998
20
142.370
0
VERTEX
8
CONTOURS_MINEURES
10
141.958
20
141.959
0
VERTEX
8
CONTOURS_MINEURES
10
145.003
20
140.638
0
VERTEX
8
CONTOURS_MINEURES
10
145.538
20
140.538
0
VERTEX
8
CONTOURS_MINEURES
10
145.985
20
140.002
0
VERTEX
8
CONTOURS_MINEURES
10
147.816
20
137.816
0
VERTEX
8
CONTOURS_MINEURES
10
149.997
20
135.228
0
VERTEX
8
CONTOURS_MINEURES
10
150.202
20
134.995
0
VERTEX
8
CONTOURS_MINEURES
10
151.025
20
131.024
0
VERTEX
8
CONTOURS_MINEURES
10
151.223
20
129.998
0
VERTEX
8
CONTOURS_MINEURES
10
150.850
20
129.147
0
VERTEX
8
CONTOURS_MINEURES
10
149.997
20
127.612
0
VERTEX
8
CONTOURS_MINEURES
10
148.953
20
125.002
0
VERTEX
8
CONTOURS_MINEURES
10
147.928
20
122.069
0
VERTEX
8
CONTOURS_MINEURES
10
147.834
20
119.994
0
VERTEX
8
CONTOURS_MINEURES
10
148.380
20
118.377
0
VERTEX
8
CONTOURS_MINEURES
10
149.691
20
114.998
0
VERTEX
8
CONTOURS_MINEURES
10
149.849
20
114.850
0
VERTEX
8
CONTOURS_MINEURES
10
149.997
20
114.788
0
VERTEX
8
CONTOURS_MINEURES
10
154.269
20
114.265
0
VERTEX
8
CONTOURS_MINEURES
10
155.002
20
114.022
0
SEQEND
0
POLYLINE
8
CONTOURS_MINEURES
66
1
70
0
0
VERTEX
8
CONTOURS_MINEURES
10
81.877
20
0.003
0
VERTEX
8
CONTOURS_MINEURES
10
83.962
20
1.044
0
VERTEX
8
CONTOURS_MINEURES
10
85.005
20
2.274
0
VERTEX
8
CONTOURS_MINEURES
10
86.308
20
5.000
0
VERTEX
8
CONTOURS_MINEURES
10
87.929
20
7.071
0
VERTEX
8
CONTOURS_MINEURES
10
90.000
20
9.996
0
VERTEX
8
CONTOURS_MINEURES
10
91.384
20
13.619
0
VERTEX
8
CONTOURS_MINEURES
10
93.424
20
15.004
0
VERTEX
8
CONTOURS_MINEURES
10
94.272
20
15.735
0
VERTEX
8
CONTOURS_MINEURES
10
95.005
20
16.203
0
VERTEX
8
CONTOURS_MINEURES
10
97.113
20
17.890
0
VERTEX
8
CONTOURS_MINEURES
10
99.318
20
20.000
0
VERTEX
8
CONTOURS_MINEURES
10
99.999
20
21.249
0
VERTEX
8
CONTOURS_MINEURES
10
100.865
20
24.132
0
VERTEX
8
CONTOURS_MINEURES
10
101.732
20
24.996
0
VERTEX
8
CONTOURS_MINEURES
10
103.026
20
26.976
0
VERTEX
8
CONTOURS_MINEURES
10
105.004
20
27.361
0
VERTEX
8
CONTOURS_MINEURES
10
106.341
20
28.664
0
VERTEX
8
CONTOURS_MINEURES
10
107.161
20
30.004
0
VERTEX
8
CONTOURS_MINEURES
10
108.167
20
33.168
0
VERTEX
8
CONTOURS_MINEURES
10
109.083
20
35.000
0
VERTEX
8
CONTOURS_MINEURES
10
109.395
20
35.604
0
VERTEX
8
CONTOURS_MINEURES
10
109.999
20
37.199
0
VERTEX
8
CONTOURS_MINEURES
10
111.186
20
38.811
0
VERTEX
8
CONTOURS_MINEURES
10
111.893
20
39.997
0
VERTEX
8
CONTOURS_MINEURES
10
115.004
20
44.426
0
VERTEX
8
CONTOURS_MINEURES
10
115.361
20
45.004
0
VERTEX
8
CONTOURS_MINEURES
10
118.107
20
46.896
0
VERTEX
8
CONTOURS_MINEURES
10
119.998
20
48.199
0
VERTEX
8
CONTOURS_MINEURES
10
122.896
20
50.001
0
VERTEX
8
CONTOURS_MINEURES
10
125.004
20
53.998
0
VERTEX
8
CONTOURS_MINEURES
10
125.201
20
54.799
0
VERTEX
8
CONTOURS_MINEURES
10
125.194
20
54.997
0
VERTEX
8
CONTOURS_MINEURES
10
126.420
20
58.584
0
VERTEX
8
CONTOURS_MINEURES
10
125.946
20
60.004
0
VERTEX
8
CONTOURS_MINEURES
10
126.044
20
61.045
0
VERTEX
8
CONTOURS_MINEURES
10
127.398
20
65.001
0
VERTEX
8
CONTOURS_MINEURES
10
129.998
20
69.808
0
VERTEX
8
CONTOURS_MINEURES
10
130.047
20
69.997
0
VERTEX
8
CONTOURS_MINEURES
10
130.547
20
74.456
0
VERTEX
8
CONTOURS_MINEURES
10
130.638
20
75.005
0
VERTEX
8
CONTOURS_MINEURES
10
130.504
20
75.510
0
VERTEX
8
CONTOURS_MINEURES
10
129.998
20
76.678
0
VERTEX
8
CONTOURS_MINEURES
10
128.348
20
78.351
0
VERTEX
8
CONTOURS_MINEURES
10
127.806
20
80.001
0
VERTEX
8
CONTOURS_MINEURES
10
126.382
20
81.380
0
VERTEX
8
CONTOURS_MINEURES
10
125.004
20
83.804
0
VERTEX
8
CONTOURS_MINEURES
10
124.167
20
84.162
0
VERTEX
8
CONTOURS_MINEURES
10
123.953
20
84.998
0
VERTEX
8
CONTOURS_MINEURES
10
121.857
20
86.856
0
VERTEX
8
CONTOURS_MINEURES
10
120.436
20
90.005
0
VERTEX
8
CONTOURS_MINEURES
10
120.254
20
90.260
0
VERTEX
8
CONTOURS_MINEURES
10
119.998
20
90.702
0
VERTEX
8
CONTOURS_MINEURES
10
117.572
20
92.574
0
VERTEX
8
CONTOURS_MINEURES
10
117.088
20
95.001
0
VERTEX
8
CONTOURS_MINEURES
10
115.996
20
99.006
0
VERTEX
8
CONTOURS_MINEURES
10
115.577
20
99.998
0
VERTEX
8
CONTOURS_MINEURES
10
115.475
20
100.470
0
VERTEX
8
CONTOURS_MINEURES
10
115.004
20
102.332
0
VERTEX
8
CONTOURS_MINEURES
10
114.009
20
104.010
0
VERTEX
8
CONTOURS_MINEURES
10
113.874
20
105.005
0
VERTEX
8
CONTOURS_MINEURES
10
112.889
20
107.891
0
VERTEX
8
CONTOURS_MINEURES
10
111.695
20
110.002
0
VERTEX
8
CONTOURS_MINEURES
10
109.999
20
111.495
0
VERTEX
8
CONTOURS_MINEURES
10
108.153
20
113.151
0
VERTEX
8
CONTOURS_MINEURES
10
108.105
20
114.998
0
VERTEX
8
CONTOURS_MINEURES
10
106.988
20
116.983
0
VERTEX
8
CONTOURS_MINEURES
10
106.976
20
119.994
0
VERTEX
8
CONTOURS_MINEURES
10
106.524
20
121.518
0
VERTEX
8
CONTOURS_MINEURES
10
106.454
20
125.002
0
VERTEX
8
CONTOURS_MINEURES
10
106.180
20
126.179
0
VERTEX
8
CONTOURS_MINEURES
10
106.168
20
129.998
0
VERTEX
8
CONTOURS_MINEURES
10
106.547
20
133.451
0
VERTEX
8
CONTOURS_MINEURES
10
106.223
20
134.995
0
VERTEX
8
CONTOURS_MINEURES
10
106.199
20
136.192
0
VERTEX
8
CONTOURS_MINEURES
10
106.103
20
140.002
0
VERTEX
8
CONTOURS_MINEURES
10
106.217
20
141.216
0
VERTEX
8
CONTOURS_MINEURES
10
105.004
20
143.598
0
VERTEX
8
CONTOURS_MINEURES
10
103.429
20
144.999
0
VERTEX
8
CONTOURS_MINEURES
10
103.261
20
148.254
0
VERTEX
8
CONTOURS_MINEURES
10
102.998
20
149.995
0
VERTEX
8
CONTOURS_MINEURES
10
102.765
20
152.235
0
VERTEX
8
CONTOURS_MINEURES
10
102.309
20
155.003
0
VERTEX
8
CONTOURS_MINEURES
10
101.852
20
158.149
0
VERTEX
8
CONTOURS_MINEURES
10
101.573
20
159.999
0
VERTEX
8
CONTOURS_MINEURES
10
101.461
20
161.458
0
VERTEX
8
CONTOURS_MINEURES
10
101.174
20
164.995
0
VERTEX
8
CONTOURS_MINEURES
10
100.865
20
169.137
0
VERTEX
8
CONTOURS_MINEURES
10
100.802
20
170.003
0
VERTEX
8
CONTOURS_MINEURES
10
100.956
20
170.958
0
VERTEX
8
CONTOURS_MINEURES
10
101.560
20
174.999
0
VERTEX
8
CONTOURS_MINEURES
10
102.108
20
177.890
0
VERTEX
8
CONTOURS_MINEURES
10
102.600
20
179.996
0
VERTEX
8
CONTOURS_MINEURES
10
103.145
20
183.143
0
VERTEX
8
CONTOURS_MINEURES
10
103.186
20
185.003
0
VERTEX
8
CONTOURS_MINEURES
10
102.414
20
187.413
0
VERTEX
8
CONTOURS_MINEURES
10
101.154
20
189.999
0
VERTEX
8
CONTOURS_MINEURES
10
100.591
20
190.591
0
VERTEX
8
CONTOURS_MINEURES
10
99.999
20
192.356
0
VERTEX
8
CONTOURS_MINEURES
10
99.234
20
194.230
0
VERTEX
8
CONTOURS_MINEURES
10
99.073
20
194.996
0
VERTEX
8
CONTOURS_MINEURES
10
97.844
20
197.843
0
VERTEX
8
CONTOURS_MINEURES
10
97.168
20
200.003
0
VERTEX
8
CONTOURS_MINEURES
10
95.005
20
202.259
0
VERTEX
8
CONTOURS_MINEURES
10
93.212
20
203.210
0
VERTEX
8
CONTOURS_MINEURES
10
91.846
20
205.000
0
VERTEX
8
CONTOURS_MINEURES
10
90.000
20
206.579
0
VERTEX
8
CONTOURS_MINEURES
10
87.662
20
207.658
0
VERTEX
8
CONTOURS_MINEURES
10
85.005
20
209.828
0
VERTEX
8
CONTOURS_MINEURES
10
84.885
20
209.876
0
VERTEX
8
CONTOURS_MINEURES
10
84.744
20
209.996
0
SEQEND
0
POLYLINE
8
CONTOURS_MINEURES
66
1
70
0
0
VERTEX
8
CONTOURS_MINEURES
10
124.182
20
209.996
0
VERTEX
8
CONTOURS_MINEURES
10
125.004
20
206.380
0
VERTEX
8
CONTOURS_MINEURES
10
125.228
20
205.224
0
VERTEX
8
CONTOURS_MINEURES
10
125.314
20
205.000
0
VERTEX
8
CONTOURS_MINEURES
10
125.483
20
204.521
0
VERTEX
8
CONTOURS_MINEURES
10
126.362
20
200.003
0
VERTEX
8
CONTOURS_MINEURES
10
127.984
20
197.015
0
VERTEX
8
CONTOURS_MINEURES
10
129.093
20
194.996
0
VERTEX
8
CONTOURS_MINEURES
10
129.473
20
194.471
0
VERTEX
8
CONTOURS_MINEURES
10
129.998
20
193.631
0
VERTEX
8
CONTOURS_MINEURES
10
132.046
20
189.999
0
VERTEX
8
CONTOURS_MINEURES
10
132.779
20
187.779
0
VERTEX
8
CONTOURS_MINEURES
10
133.070
20
185.003
0
VERTEX
8
CONTOURS_MINEURES
10
133.382
20
181.618
0
VERTEX
8
CONTOURS_MINEURES
10
133.603
20
179.996
0
VERTEX
8
CONTOURS_MINEURES
10
133.846
20
176.154
0
VERTEX
8
CONTOURS_MINEURES
10
133.895
20
174.999
0
VERTEX
8
CONTOURS_MINEURES
10
133.852
20
173.850
0
VERTEX
8
CONTOURS_MINEURES
10
133.793
20
170.003
0
VERTEX
8
CONTOURS_MINEURES
10
133.739
20
168.738
0
VERTEX
8
CONTOURS_MINEURES
10
133.729
20
164.995
0
VERTEX
8
CONTOURS_MINEURES
10
134.366
20
160.635
0
VERTEX
8
CONTOURS_MINEURES
10
134.381
20
159.999
0
VERTEX
8
CONTOURS_MINEURES
10
134.392
20
159.389
0
VERTEX
8
CONTOURS_MINEURES
10
135.003
20
155.447
0
VERTEX
8
CONTOURS_MINEURES
10
135.074
20
155.003
0
VERTEX
8
CONTOURS_MINEURES
10
135.003
20
153.824
0
VERTEX
8
CONTOURS_MINEURES
10
134.792
20
150.206
0
VERTEX
8
CONTOURS_MINEURES
10
134.762
20
149.995
0
VERTEX
8
CONTOURS_MINEURES
10
135.003
20
148.085
0
VERTEX
8
CONTOURS_MINEURES
10
135.643
20
144.999
0
VERTEX
8
CONTOURS_MINEURES
10
139.998
20
143.903
0
VERTEX
8
CONTOURS_MINEURES
10
143.227
20
143.226
0
VERTEX
8
CONTOURS_MINEURES
10
145.003
20
142.455
0
VERTEX
8
CONTOURS_MINEURES
10
147.068
20
142.068
0
VERTEX
8
CONTOURS_MINEURES
10
148.791
20
140.002
0
VERTEX
8
CONTOURS_MINEURES
10
149.342
20
139.345
0
VERTEX
8
CONTOURS_MINEURES
10
149.997
20
138.567
0
VERTEX
8
CONTOURS_MINEURES
10
153.120
20
134.995
0
VERTEX
8
CONTOURS_MINEURES
10
153.443
20
133.438
0
VERTEX
8
CONTOURS_MINEURES
10
154.108
20
129.998
0
VERTEX
8
CONTOURS_MINEURES
10
152.856
20
127.145
0
VERTEX
8
CONTOURS_MINEURES
10
151.666
20
125.002
0
VERTEX
8
CONTOURS_MINEURES
10
149.997
20
121.567
0
VERTEX
8
CONTOURS_MINEURES
10
149.590
20
120.403
0
VERTEX
8
CONTOURS_MINEURES
10
149.572
20
119.994
0
VERTEX
8
CONTOURS_MINEURES
10
149.679
20
119.676
0
VERTEX
8
CONTOURS_MINEURES
10
149.997
20
118.856
0
VERTEX
8
CONTOURS_MINEURES
10
152.112
20
117.884
0
VERTEX
8
CONTOURS_MINEURES
10
155.002
20
115.928
0
SEQEND
0
POLYLINE
8
CONTOURS_MINEURES
66
1
70
0
0
VERTEX
8
CONTOURS_MINEURES
10
46.084
20
0.003
0
VERTEX
8
CONTOURS_MINEURES
10
47.220
20
2.224
0
VERTEX
8
CONTOURS_MINEURES
10
48.333
20
5.000
0
VERTEX
8
CONTOURS_MINEURES
10
48.903
20
6.095
0
VERTEX
8
CONTOURS_MINEURES
10
50.001
20
6.542
0
VERTEX
8
CONTOURS_MINEURES
10
52.976
20
9.996
0
VERTEX
8
CONTOURS_MINEURES
10
53.824
20
11.171
0
VERTEX
8
CONTOURS_MINEURES
10
54.995
20
14.637
0
VERTEX
8
CONTOURS_MINEURES
10
55.155
20
15.004
0
VERTEX
8
CONTOURS_MINEURES
10
54.995
20
16.669
0
VERTEX
8
CONTOURS_MINEURES
10
54.765
20
19.769
0
VERTEX
8
CONTOURS_MINEURES
10
54.639
20
20.000
0
VERTEX
8
CONTOURS_MINEURES
10
54.330
20
20.666
0
VERTEX
8
CONTOURS_MINEURES
10
54.995
20
22.725
0
VERTEX
8
CONTOURS_MINEURES
10
56.560
20
24.996
0
VERTEX
8
CONTOURS_MINEURES
10
59.225
20
25.772
0
VERTEX
8
CONTOURS_MINEURES
10
60.001
20
25.871
0
VERTEX
8
CONTOURS_MINEURES
10
62.886
20
27.111
0
VERTEX
8
CONTOURS_MINEURES
10
64.995
20
28.277
0
VERTEX
8
CONTOURS_MINEURES
10
66.278
20
28.720
0
VERTEX
8
CONTOURS_MINEURES
10
68.123
20
30.004
0
VERTEX
8
CONTOURS_MINEURES
10
70.000
20
31.253
0
VERTEX
8
CONTOURS_MINEURES
10
72.606
20
32.393
0
VERTEX
8
CONTOURS_MINEURES
10
74.995
20
33.512
0
VERTEX
8
CONTOURS_MINEURES
10
75.996
20
34.001
0
VERTEX
8
CONTOURS_MINEURES
10
78.041
20
35.000
0
VERTEX
8
CONTOURS_MINEURES
10
80.000
20
35.776
0
VERTEX
8
CONTOURS_MINEURES
10
82.819
20
37.183
0
VERTEX
8
CONTOURS_MINEURES
10
84.716
20
39.997
0
VERTEX
8
CONTOURS_MINEURES
10
85.005
20
40.316
0
VERTEX
8
CONTOURS_MINEURES
10
87.394
20
42.609
0
VERTEX
8
CONTOURS_MINEURES
10
88.386
20
45.004
0
VERTEX
8
CONTOURS_MINEURES
10
90.000
20
46.253
0
VERTEX
8
CONTOURS_MINEURES
10
92.102
20
47.103
0
VERTEX
8
CONTOURS_MINEURES
10
95.005
20
48.119
0
VERTEX
8
CONTOURS_MINEURES
10
96.453
20
48.552
0
VERTEX
8
CONTOURS_MINEURES
10
98.537
20
50.001
0
VERTEX
8
CONTOURS_MINEURES
10
99.231
20
50.769
0
VERTEX
8
CONTOURS_MINEURES
10
99.999
20
51.714
0
VERTEX
8
CONTOURS_MINEURES
10
101.692
20
53.307
0
VERTEX
8
CONTOURS_MINEURES
10
103.488
20
54.997
0
VERTEX
8
CONTOURS_MINEURES
10
104.328
20
55.674
0
VERTEX
8
CONTOURS_MINEURES
10
105.004
20
56.281
0
VERTEX
8
CONTOURS_MINEURES
10
106.529
20
58.476
0
VERTEX
8
CONTOURS_MINEURES
10
107.199
20
60.004
0
VERTEX
8
CONTOURS_MINEURES
10
108.272
20
61.732
0
VERTEX
8
CONTOURS_MINEURES
10
109.374
20
65.001
0
VERTEX
8
CONTOURS_MINEURES
10
109.999
20
66.042
0
VERTEX
8
CONTOURS_MINEURES
10
112.925
20
67.076
0
VERTEX
8
CONTOURS_MINEURES
10
115.004
20
66.708
0
VERTEX
8
CONTOURS_MINEURES
10
118.714
20
66.286
0
VERTEX
8
CONTOURS_MINEURES
10
119.998
20
66.047
0
VERTEX
8
CONTOURS_MINEURES
10
121.233
20
66.233
0
VERTEX
8
CONTOURS_MINEURES
10
125.004
20
67.608
0
VERTEX
8
CONTOURS_MINEURES
10
126.107
20
69.997
0
VERTEX
8
CONTOURS_MINEURES
10
126.680
20
73.324
0
VERTEX
8
CONTOURS_MINEURES
10
127.189
20
75.005
0
VERTEX
8
CONTOURS_MINEURES
10
126.103
20
76.105
0
VERTEX
8
CONTOURS_MINEURES
10
125.004
20
79.456
0
VERTEX
8
CONTOURS_MINEURES
10
124.437
20
80.001
0
VERTEX
8
CONTOURS_MINEURES
10
121.331
20
81.332
0
VERTEX
8
CONTOURS_MINEURES
10
120.390
20
84.998
0
VERTEX
8
CONTOURS_MINEURES
10
120.183
20
85.182
0
VERTEX
8
CONTOURS_MINEURES
10
119.998
20
85.590
0
VERTEX
8
CONTOURS_MINEURES
10
116.600
20
86.597
0
VERTEX
8
CONTOURS_MINEURES
10
115.882
20
90.005
0
VERTEX
8
CONTOURS_MINEURES
10
115.386
20
90.388
0
VERTEX
8
CONTOURS_MINEURES
10
115.004
20
92.306
0
VERTEX
8
CONTOURS_MINEURES
10
113.204
20
93.204
0
VERTEX
8
CONTOURS_MINEURES
10
113.138
20
95.001
0
VERTEX
8
CONTOURS_MINEURES
10
112.844
20
97.158
0
VERTEX
8
CONTOURS_MINEURES
10
111.357
20
99.998
0
VERTEX
8
CONTOURS_MINEURES
10
110.851
20
100.851
0
VERTEX
8
CONTOURS_MINEURES
10
110.286
20
105.005
0
VERTEX
8
CONTOURS_MINEURES
10
110.213
20
105.219
0
VERTEX
8
CONTOURS_MINEURES
10
109.999
20
105.597
0
VERTEX
8
CONTOURS_MINEURES
10
107.553
20
110.002
0
VERTEX
8
CONTOURS_MINEURES
10
106.209
20
111.207
0
VERTEX
8
CONTOURS_MINEURES
10
106.111
20
114.998
0
VERTEX
8
CONTOURS_MINEURES
10
105.712
20
115.706
0
VERTEX
8
CONTOURS_MINEURES
10
105.696
20
119.994
0
VERTEX
8
CONTOURS_MINEURES
10
105.537
20
120.529
0
VERTEX
8
CONTOURS_MINEURES
10
105.447
20
125.002
0
VERTEX
8
CONTOURS_MINEURES
10
105.364
20
125.361
0
VERTEX
8
CONTOURS_MINEURES
10
105.348
20
129.998
0
VERTEX
8
CONTOURS_MINEURES
10
105.809
20
134.190
0
VERTEX
8
CONTOURS_MINEURES
10
105.640
20
134.995
0
VERTEX
8
CONTOURS_MINEURES
10
105.627
20
135.619
0
VERTEX
8
CONTOURS_MINEURES
10
105.517
20
140.002
0
VERTEX
8
CONTOURS_MINEURES
10
105.570
20
140.569
0
VERTEX
8
CONTOURS_MINEURES
10
105.004
20
141.680
0
VERTEX
8
CONTOURS_MINEURES
10
101.272
20
144.999
0
VERTEX
8
CONTOURS_MINEURES
10
101.209
20
146.207
0
VERTEX
8
CONTOURS_MINEURES
10
100.637
20
149.995
0
VERTEX
8
CONTOURS_MINEURES
10
100.131
20
154.871
0
VERTEX
8
CONTOURS_MINEURES
10
100.109
20
155.003
0
VERTEX
8
CONTOURS_MINEURES
10
99.999
20
155.760
0
VERTEX
8
CONTOURS_MINEURES
10
99.333
20
159.333
0
VERTEX
8
CONTOURS_MINEURES
10
99.214
20
159.999
0
VERTEX
8
CONTOURS_MINEURES
10
99.191
20
160.808
0
VERTEX
8
CONTOURS_MINEURES
10
98.786
20
164.995
0
VERTEX
8
CONTOURS_MINEURES
10
98.478
20
168.478
0
VERTEX
8
CONTOURS_MINEURES
10
98.485
20
170.003
0
VERTEX
8
CONTOURS_MINEURES
10
98.644
20
171.359
0
VERTEX
8
CONTOURS_MINEURES
10
99.252
20
174.999
0
VERTEX
8
CONTOURS_MINEURES
10
99.999
20
178.526
0
VERTEX
8
CONTOURS_MINEURES
10
100.233
20
179.762
0
VERTEX
8
CONTOURS_MINEURES
10
100.288
20
179.996
0
VERTEX
8
CONTOURS_MINEURES
10
100.349
20
180.345
0
VERTEX
8
CONTOURS_MINEURES
10
100.450
20
185.003
0
VERTEX
8
CONTOURS_MINEURES
10
100.341
20
185.344
0
VERTEX
8
CONTOURS_MINEURES
10
99.999
20
186.047
0
VERTEX
8
CONTOURS_MINEURES
10
98.394
20
189.999
0
VERTEX
8
CONTOURS_MINEURES
10
97.411
20
192.406
0
VERTEX
8
CONTOURS_MINEURES
10
96.868
20
194.996
0
VERTEX
8
CONTOURS_MINEURES
10
96.305
20
196.300
0
VERTEX
8
CONTOURS_MINEURES
10
95.146
20
200.003
0
VERTEX
8
CONTOURS_MINEURES
10
95.005
20
200.151
0
VERTEX
8
CONTOURS_MINEURES
10
91.833
20
201.834
0
VERTEX
8
CONTOURS_MINEURES
10
90.000
20
204.236
0
VERTEX
8
CONTOURS_MINEURES
10
89.448
20
204.448
0
VERTEX
8
CONTOURS_MINEURES
10
88.920
20
205.000
0
VERTEX
8
CONTOURS_MINEURES
10
86.241
20
206.236
0
VERTEX
8
CONTOURS_MINEURES
10
85.005
20
207.246
0
VERTEX
8
CONTOURS_MINEURES
10
83.038
20
208.033
0
VERTEX
8
CONTOURS_MINEURES
10
80.724
20
209.996
0
SEQEND
0
POLYLINE
8
CONTOURS_MINEURES
66
1
70
0
0
VERTEX
8
CONTOURS_MINEURES
10
155.002
20
125.462
0
VERTEX
8
CONTOURS_MINEURES
10
154.862
20
125.142
0
VERTEX
8
CONTOURS_MINEURES
10
154.784
20
125.002
0
VERTEX
8
CONTOURS_MINEURES
10
154.578
20
124.577
0
VERTEX
8
CONTOURS_MINEURES
10
153.095
20
119.994
0
VERTEX
8
CONTOURS_MINEURES
10
155.002
20
118.704
0
SEQEND
0
POLYLINE
8
CONTOURS_MINEURES
66
1
70
0
0
VERTEX
8
CONTOURS_MINEURES
10
126.851
20
209.996
0
VERTEX
8
CONTOURS_MINEURES
10
127.362
20
207.359
0
VERTEX
8
CONTOURS_MINEURES
10
128.269
20
205.000
0
VERTEX
8
CONTOURS_MINEURES
10
129.998
20
200.087
0
VERTEX
8
CONTOURS_MINEURES
10
130.026
20
200.031
0
VERTEX
8
CONTOURS_MINEURES
10
130.038
20
200.003
0
VERTEX
8
CONTOURS_MINEURES
10
130.086
20
199.915
0
VERTEX
8
CONTOURS_MINEURES
10
132.864
20
194.996
0
VERTEX
8
CONTOURS_MINEURES
10
135.003
20
190.333
0
VERTEX
8
CONTOURS_MINEURES
10
135.100
20
190.097
0
VERTEX
8
CONTOURS_MINEURES
10
135.116
20
189.999
0
VERTEX
8
CONTOURS_MINEURES
10
135.128
20
189.875
0
VERTEX
8
CONTOURS_MINEURES
10
135.681
20
185.003
0
VERTEX
8
CONTOURS_MINEURES
10
136.073
20
181.068
0
VERTEX
8
CONTOURS_MINEURES
10
136.278
20
179.996
0
VERTEX
8
CONTOURS_MINEURES
10
136.547
20
176.544
0
VERTEX
8
CONTOURS_MINEURES
10
136.786
20
174.999
0
VERTEX
8
CONTOURS_MINEURES
10
136.786
20
173.216
0
VERTEX
8
CONTOURS_MINEURES
10
136.723
20
170.003
0
VERTEX
8
CONTOURS_MINEURES
10
136.712
20
166.708
0
VERTEX
8
CONTOURS_MINEURES
10
136.892
20
164.995
0
VERTEX
8
CONTOURS_MINEURES
10
137.410
20
162.406
0
VERTEX
8
CONTOURS_MINEURES
10
137.934
20
159.999
0
VERTEX
8
CONTOURS_MINEURES
10
138.340
20
156.661
0
VERTEX
8
CONTOURS_MINEURES
10
138.603
20
155.003
0
VERTEX
8
CONTOURS_MINEURES
10
138.514
20
153.515
0
VERTEX
8
CONTOURS_MINEURES
10
138.977
20
149.995
0
VERTEX
8
CONTOURS_MINEURES
10
139.998
20
147.711
0
VERTEX
8
CONTOURS_MINEURES
10
142.080
20
144.999
0
VERTEX
8
CONTOURS_MINEURES
10
144.495
20
144.492
0
VERTEX
8
CONTOURS_MINEURES
10
145.003
20
144.272
0
VERTEX
8
CONTOURS_MINEURES
10
148.598
20
143.598
0
VERTEX
8
CONTOURS_MINEURES
10
149.997
20
141.920
0
VERTEX
8
CONTOURS_MINEURES
10
152.126
20
140.002
0
VERTEX
8
CONTOURS_MINEURES
10
155.002
20
136.575
0
SEQEND
0
POLYLINE
8
CONTOURS_MINEURES
66
1
70
0
0
VERTEX
8
CONTOURS_MINEURES
10
11.112
20
0.003
0
VERTEX
8
CONTOURS_MINEURES
10
12.222
20
2.224
0
VERTEX
8
CONTOURS_MINEURES
10
13.862
20
5.000
0
VERTEX
8
CONTOURS_MINEURES
10
14.997
20
6.249
0
VERTEX
8
CONTOURS_MINEURES
10
16.828
20
8.168
0
VERTEX
8
CONTOURS_MINEURES
10
18.125
20
9.996
0
VERTEX
8
CONTOURS_MINEURES
10
20.002
20
12.368
0
VERTEX
8
CONTOURS_MINEURES
10
21.220
20
13.782
0
VERTEX
8
CONTOURS_MINEURES
10
21.786
20
15.004
0
VERTEX
8
CONTOURS_MINEURES
10
22.777
20
17.779
0
VERTEX
8
CONTOURS_MINEURES
10
23.972
20
20.000
0
VERTEX
8
CONTOURS_MINEURES
10
24.409
20
20.588
0
VERTEX
8
CONTOURS_MINEURES
10
24.997
20
21.537
0
VERTEX
8
CONTOURS_MINEURES
10
27.367
20
24.996
0
VERTEX
8
CONTOURS_MINEURES
10
28.361
20
26.638
0
VERTEX
8
CONTOURS_MINEURES
10
30.002
20
28.706
0
VERTEX
8
CONTOURS_MINEURES
10
30.701
20
29.303
0
VERTEX
8
CONTOURS_MINEURES
10
30.973
20
30.004
0
VERTEX
8
CONTOURS_MINEURES
10
34.372
20
34.376
0
VERTEX
8
CONTOURS_MINEURES
10
34.871
20
35.000
0
VERTEX
8
CONTOURS_MINEURES
10
34.925
20
35.072
0
VERTEX
8
CONTOURS_MINEURES
10
34.996
20
35.313
0
VERTEX
8
CONTOURS_MINEURES
10
37.025
20
39.997
0
VERTEX
8
CONTOURS_MINEURES
10
40.001
20
43.335
0
VERTEX
8
CONTOURS_MINEURES
10
41.058
20
43.945
0
VERTEX
8
CONTOURS_MINEURES
10
43.054
20
45.004
0
VERTEX
8
CONTOURS_MINEURES
10
44.996
20
45.368
0
VERTEX
8
CONTOURS_MINEURES
10
49.363
20
50.001
0
VERTEX
8
CONTOURS_MINEURES
10
49.508
20
50.493
0
VERTEX
8
CONTOURS_MINEURES
10
50.001
20
51.444
0
VERTEX
8
CONTOURS_MINEURES
10
54.702
20
50.294
0
VERTEX
8
CONTOURS_MINEURES
10
54.995
20
50.345
0
VERTEX
8
CONTOURS_MINEURES
10
55.431
20
50.001
0
VERTEX
8
CONTOURS_MINEURES
10
58.636
20
48.638
0
VERTEX
8
CONTOURS_MINEURES
10
60.001
20
48.908
0
VERTEX
8
CONTOURS_MINEURES
10
61.029
20
48.972
0
VERTEX
8
CONTOURS_MINEURES
10
64.995
20
48.717
0
VERTEX
8
CONTOURS_MINEURES
10
66.224
20
48.773
0
VERTEX
8
CONTOURS_MINEURES
10
70.000
20
48.807
0
VERTEX
8
CONTOURS_MINEURES
10
71.237
20
48.763
0
VERTEX
8
CONTOURS_MINEURES
10
74.214
20
50.001
0
VERTEX
8
CONTOURS_MINEURES
10
74.638
20
50.357
0
VERTEX
8
CONTOURS_MINEURES
10
74.995
20
50.714
0
VERTEX
8
CONTOURS_MINEURES
10
77.024
20
52.971
0
VERTEX
8
CONTOURS_MINEURES
10
77.939
20
54.997
0
VERTEX
8
CONTOURS_MINEURES
10
78.635
20
56.363
0
VERTEX
8
CONTOURS_MINEURES
10
80.000
20
58.753
0
VERTEX
8
CONTOURS_MINEURES
10
80.493
20
59.511
0
VERTEX
8
CONTOURS_MINEURES
10
80.604
20
60.004
0
VERTEX
8
CONTOURS_MINEURES
10
81.508
20
63.495
0
VERTEX
8
CONTOURS_MINEURES
10
82.561
20
65.001
0
VERTEX
8
CONTOURS_MINEURES
10
85.005
20
67.560
0
VERTEX
8
CONTOURS_MINEURES
10
86.392
20
68.609
0
VERTEX
8
CONTOURS_MINEURES
10
87.634
20
69.997
0
VERTEX
8
CONTOURS_MINEURES
10
90.000
20
71.915
0
VERTEX
8
CONTOURS_MINEURES
10
94.535
20
75.005
0
VERTEX
8
CONTOURS_MINEURES
10
94.663
20
75.345
0
VERTEX
8
CONTOURS_MINEURES
10
95.005
20
75.794
0
VERTEX
8
CONTOURS_MINEURES
10
96.075
20
76.075
0
VERTEX
8
CONTOURS_MINEURES
10
99.999
20
78.832
0
VERTEX
8
CONTOURS_MINEURES
10
100.671
20
79.331
0
VERTEX
8
CONTOURS_MINEURES
10
101.572
20
80.001
0
VERTEX
8
CONTOURS_MINEURES
10
103.238
20
83.234
0
VERTEX
8
CONTOURS_MINEURES
10
104.003
20
84.998
0
VERTEX
8
CONTOURS_MINEURES
10
103.532
20
88.532
0
VERTEX
8
CONTOURS_MINEURES
10
102.729
20
90.005
0
VERTEX
8
CONTOURS_MINEURES
10
99.999
20
92.860
0
VERTEX
8
CONTOURS_MINEURES
10
98.126
20
93.128
0
VERTEX
8
CONTOURS_MINEURES
10
95.504
20
95.001
0
VERTEX
8
CONTOURS_MINEURES
10
95.005
20
97.500
0
VERTEX
8
CONTOURS_MINEURES
10
94.805
20
99.798
0
VERTEX
8
CONTOURS_MINEURES
10
94.832
20
99.998
0
VERTEX
8
CONTOURS_MINEURES
10
95.005
20
100.832
0
VERTEX
8
CONTOURS_MINEURES
10
95.837
20
104.171
0
VERTEX
8
CONTOURS_MINEURES
10
95.761
20
105.005
0
VERTEX
8
CONTOURS_MINEURES
10
95.761
20
105.762
0
VERTEX
8
CONTOURS_MINEURES
10
95.886
20
110.002
0
VERTEX
8
CONTOURS_MINEURES
10
95.941
20
110.938
0
VERTEX
8
CONTOURS_MINEURES
10
96.670
20
114.998
0
VERTEX
8
CONTOURS_MINEURES
10
98.061
20
116.937
0
VERTEX
8
CONTOURS_MINEURES
10
99.999
20
117.449
0
VERTEX
8
CONTOURS_MINEURES
10
101.135
20
119.994
0
VERTEX
8
CONTOURS_MINEURES
10
100.971
20
120.967
0
VERTEX
8
CONTOURS_MINEURES
10
101.958
20
125.002
0
VERTEX
8
CONTOURS_MINEURES
10
101.916
20
126.915
0
VERTEX
8
CONTOURS_MINEURES
10
102.158
20
129.998
0
VERTEX
8
CONTOURS_MINEURES
10
105.004
20
134.324
0
VERTEX
8
CONTOURS_MINEURES
10
105.071
20
134.928
0
VERTEX
8
CONTOURS_MINEURES
10
105.057
20
134.995
0
VERTEX
8
CONTOURS_MINEURES
10
105.056
20
135.046
0
VERTEX
8
CONTOURS_MINEURES
10
105.004
20
137.091
0
VERTEX
8
CONTOURS_MINEURES
10
103.659
20
140.002
0
VERTEX
8
CONTOURS_MINEURES
10
99.999
20
142.267
0
VERTEX
8
CONTOURS_MINEURES
10
98.321
20
144.999
0
VERTEX
8
CONTOURS_MINEURES
10
98.436
20
146.562
0
VERTEX
8
CONTOURS_MINEURES
10
97.762
20
149.995
0
VERTEX
8
CONTOURS_MINEURES
10
97.434
20
152.431
0
VERTEX
8
CONTOURS_MINEURES
10
97.319
20
155.003
0
VERTEX
8
CONTOURS_MINEURES
10
96.955
20
156.953
0
VERTEX
8
CONTOURS_MINEURES
10
96.408
20
159.999
0
VERTEX
8
CONTOURS_MINEURES
10
96.304
20
163.696
0
VERTEX
8
CONTOURS_MINEURES
10
96.178
20
164.995
0
VERTEX
8
CONTOURS_MINEURES
10
96.083
20
166.076
0
VERTEX
8
CONTOURS_MINEURES
10
96.101
20
170.003
0
VERTEX
8
CONTOURS_MINEURES
10
96.509
20
173.494
0
VERTEX
8
CONTOURS_MINEURES
10
96.761
20
174.999
0
VERTEX
8
CONTOURS_MINEURES
10
97.233
20
177.229
0
VERTEX
8
CONTOURS_MINEURES
10
97.509
20
179.996
0
VERTEX
8
CONTOURS_MINEURES
10
97.326
20
182.675
0
VERTEX
8
CONTOURS_MINEURES
10
97.385
20
185.003
0
VERTEX
8
CONTOURS_MINEURES
10
96.388
20
188.615
0
VERTEX
8
CONTOURS_MINEURES
10
95.826
20
189.999
0
VERTEX
8
CONTOURS_MINEURES
10
95.588
20
190.583
0
VERTEX
8
CONTOURS_MINEURES
10
95.005
20
193.365
0
VERTEX
8
CONTOURS_MINEURES
10
94.389
20
194.996
0
VERTEX
8
CONTOURS_MINEURES
10
92.717
20
197.715
0
VERTEX
8
CONTOURS_MINEURES
10
91.310
20
200.003
0
VERTEX
8
CONTOURS_MINEURES
10
90.455
20
200.458
0
VERTEX
8
CONTOURS_MINEURES
10
90.000
20
201.054
0
VERTEX
8
CONTOURS_MINEURES
10
87.152
20
202.151
0
VERTEX
8
CONTOURS_MINEURES
10
85.005
20
204.390
0
VERTEX
8
CONTOURS_MINEURES
10
84.166
20
205.000
0
VERTEX
8
CONTOURS_MINEURES
10
81.191
20
206.189
0
VERTEX
8
CONTOURS_MINEURES
10
80.000
20
207.200
0
VERTEX
8
CONTOURS_MINEURES
10
76.200
20
209.996
0
SEQEND
0
POLYLINE
8
CONTOURS_MINEURES
66
1
70
0
0
VERTEX
8
CONTOURS_MINEURES
10
129.399
20
209.996
0
VERTEX
8
CONTOURS_MINEURES
10
129.496
20
209.494
0
VERTEX
8
CONTOURS_MINEURES
10
129.998
20
208.190
0
VERTEX
8
CONTOURS_MINEURES
10
131.701
20
205.000
0
VERTEX
8
CONTOURS_MINEURES
10
132.783
20
202.784
0
VERTEX
8
CONTOURS_MINEURES
10
133.994
20
200.003
0
VERTEX
8
CONTOURS_MINEURES
10
135.003
20
198.166
0
VERTEX
8
CONTOURS_MINEURES
10
136.172
20
196.168
0
VERTEX
8
CONTOURS_MINEURES
10
136.514
20
194.996
0
VERTEX
8
CONTOURS_MINEURES
10
137.531
20
192.528
0
VERTEX
8
CONTOURS_MINEURES
10
137.938
20
189.999
0
VERTEX
8
CONTOURS_MINEURES
10
138.250
20
186.752
0
VERTEX
8
CONTOURS_MINEURES
10
138.448
20
185.003
0
VERTEX
8
CONTOURS_MINEURES
10
138.589
20
183.590
0
VERTEX
8
CONTOURS_MINEURES
10
139.278
20
179.996
0
VERTEX
8
CONTOURS_MINEURES
10
139.330
20
179.328
0
VERTEX
8
CONTOURS_MINEURES
10
139.998
20
174.999
0
VERTEX
8
CONTOURS_MINEURES
10
139.998
20
170.003
0
VERTEX
8
CONTOURS_MINEURES
10
140.731
20
165.729
0
VERTEX
8
CONTOURS_MINEURES
10
141.020
20
164.995
0
VERTEX
8
CONTOURS_MINEURES
10
142.189
20
162.186
0
VERTEX
8
CONTOURS_MINEURES
10
143.189
20
159.999
0
VERTEX
8
CONTOURS_MINEURES
10
143.539
20
158.538
0
VERTEX
8
CONTOURS_MINEURES
10
144.692
20
155.003
0
VERTEX
8
CONTOURS_MINEURES
10
145.003
20
154.112
0
VERTEX
8
CONTOURS_MINEURES
10
148.189
20
149.995
0
VERTEX
8
CONTOURS_MINEURES
10
149.997
20
147.234
0
VERTEX
8
CONTOURS_MINEURES
10
150.800
20
145.800
0
VERTEX
8
CONTOURS_MINEURES
10
151.213
20
144.999
0
VERTEX
8
CONTOURS_MINEURES
10
155.002
20
142.324
0
SEQEND
0
POLYLINE
8
CONTOURS_MINEURES
66
1
70
0
0
VERTEX
8
CONTOURS_MINEURES
10
0.003
20
24.996
0
VERTEX
8
CONTOURS_MINEURES
10
4.997
20
25.998
0
VERTEX
8
CONTOURS_MINEURES
10
5.951
20
30.004
0
VERTEX
8
CONTOURS_MINEURES
10
6.303
20
33.697
0
VERTEX
8
CONTOURS_MINEURES
10
5.855
20
35.000
0
VERTEX
8
CONTOURS_MINEURES
10
6.110
20
36.111
0
VERTEX
8
CONTOURS_MINEURES
10
6.612
20
39.997
0
VERTEX
8
CONTOURS_MINEURES
10
8.126
20
41.874
0
VERTEX
8
CONTOURS_MINEURES
10
10.003
20
42.626
0
VERTEX
8
CONTOURS_MINEURES
10
11.639
20
45.004
0
VERTEX
8
CONTOURS_MINEURES
10
14.997
20
46.628
0
VERTEX
8
CONTOURS_MINEURES
10
17.454
20
47.548
0
VERTEX
8
CONTOURS_MINEURES
10
20.002
20
49.331
0
VERTEX
8
CONTOURS_MINEURES
10
21.327
20
50.001
0
VERTEX
8
CONTOURS_MINEURES
10
23.124
20
51.874
0
VERTEX
8
CONTOURS_MINEURES
10
23.748
20
54.997
0
VERTEX
8
CONTOURS_MINEURES
10
24.997
20
57.779
0
VERTEX
8
CONTOURS_MINEURES
10
28.478
20
60.004
0
VERTEX
8
CONTOURS_MINEURES
10
30.002
20
61.594
0
VERTEX
8
CONTOURS_MINEURES
10
31.744
20
63.258
0
VERTEX
8
CONTOURS_MINEURES
10
33.945
20
65.001
0
VERTEX
8
CONTOURS_MINEURES
10
34.509
20
65.488
0
VERTEX
8
CONTOURS_MINEURES
10
34.996
20
66.000
0
VERTEX
8
CONTOURS_MINEURES
10
40.001
20
69.997
0
VERTEX
8
CONTOURS_MINEURES
10
44.996
20
71.842
0
VERTEX
8
CONTOURS_MINEURES
10
47.141
20
72.859
0
VERTEX
8
CONTOURS_MINEURES
10
48.750
20
75.005
0
VERTEX
8
CONTOURS_MINEURES
10
50.001
20
79.002
0
VERTEX
8
CONTOURS_MINEURES
10
50.257
20
80.001
0
VERTEX
8
CONTOURS_MINEURES
10
50.796
20
84.203
0
VERTEX
8
CONTOURS_MINEURES
10
51.346
20
84.998
0
VERTEX
8
CONTOURS_MINEURES
10
52.839
20
87.160
0
VERTEX
8
CONTOURS_MINEURES
10
54.995
20
87.318
0
VERTEX
8
CONTOURS_MINEURES
10
59.783
20
90.005
0
VERTEX
8
CONTOURS_MINEURES
10
60.001
20
90.268
0
VERTEX
8
CONTOURS_MINEURES
10
61.606
20
93.395
0
VERTEX
8
CONTOURS_MINEURES
10
62.366
20
95.001
0
VERTEX
8
CONTOURS_MINEURES
10
63.746
20
98.749
0
VERTEX
8
CONTOURS_MINEURES
10
63.843
20
99.998
0
VERTEX
8
CONTOURS_MINEURES
10
64.163
20
104.171
0
VERTEX
8
CONTOURS_MINEURES
10
64.126
20
105.005
0
VERTEX
8
CONTOURS_MINEURES
10
63.164
20
108.170
0
VERTEX
8
CONTOURS_MINEURES
10
60.001
20
109.320
0
VERTEX
8
CONTOURS_MINEURES
10
58.749
20
108.753
0
VERTEX
8
CONTOURS_MINEURES
10
59.210
20
110.002
0
VERTEX
8
CONTOURS_MINEURES
10
59.758
20
110.243
0
VERTEX
8
CONTOURS_MINEURES
10
59.917
20
114.998
0
VERTEX
8
CONTOURS_MINEURES
10
60.001
20
115.109
0
VERTEX
8
CONTOURS_MINEURES
10
63.434
20
116.559
0
VERTEX
8
CONTOURS_MINEURES
10
63.603
20
119.994
0
VERTEX
8
CONTOURS_MINEURES
10
64.995
20
122.021
0
VERTEX
8
CONTOURS_MINEURES
10
66.709
20
123.287
0
VERTEX
8
CONTOURS_MINEURES
10
66.559
20
125.002
0
VERTEX
8
CONTOURS_MINEURES
10
67.715
20
127.717
0
VERTEX
8
CONTOURS_MINEURES
10
68.778
20
129.998
0
VERTEX
8
CONTOURS_MINEURES
10
69.045
20
130.952
0
VERTEX
8
CONTOURS_MINEURES
10
70.000
20
131.839
0
VERTEX
8
CONTOURS_MINEURES
10
72.091
20
134.995
0
VERTEX
8
CONTOURS_MINEURES
10
72.964
20
137.030
0
VERTEX
8
CONTOURS_MINEURES
10
74.995
20
139.466
0
VERTEX
8
CONTOURS_MINEURES
10
75.311
20
139.686
0
VERTEX
8
CONTOURS_MINEURES
10
75.395
20
140.002
0
VERTEX
8
CONTOURS_MINEURES
10
80.000
20
143.750
0
VERTEX
8
CONTOURS_MINEURES
10
84.111
20
144.106
0
VERTEX
8
CONTOURS_MINEURES
10
85.005
20
144.317
0
VERTEX
8
CONTOURS_MINEURES
10
88.751
20
144.999
0
VERTEX
8
CONTOURS_MINEURES
10
89.627
20
145.371
0
VERTEX
8
CONTOURS_MINEURES
10
90.000
20
145.415
0
VERTEX
8
CONTOURS_MINEURES
10
93.670
20
149.995
0
VERTEX
8
CONTOURS_MINEURES
10
94.033
20
150.967
0
VERTEX
8
CONTOURS_MINEURES
10
93.491
20
155.003
0
VERTEX
8
CONTOURS_MINEURES
10
93.147
20
156.857
0
VERTEX
8
CONTOURS_MINEURES
10
91.896
20
159.999
0
VERTEX
8
CONTOURS_MINEURES
10
91.785
20
161.781
0
VERTEX
8
CONTOURS_MINEURES
10
91.766
20
164.995
0
VERTEX
8
CONTOURS_MINEURES
10
91.747
20
168.255
0
VERTEX
8
CONTOURS_MINEURES
10
91.768
20
170.003
0
VERTEX
8
CONTOURS_MINEURES
10
92.502
20
172.501
0
VERTEX
8
CONTOURS_MINEURES
10
92.661
20
174.999
0
VERTEX
8
CONTOURS_MINEURES
10
92.910
20
177.090
0
VERTEX
8
CONTOURS_MINEURES
10
93.871
20
179.996
0
VERTEX
8
CONTOURS_MINEURES
10
93.157
20
183.154
0
VERTEX
8
CONTOURS_MINEURES
10
93.128
20
185.003
0
VERTEX
8
CONTOURS_MINEURES
10
91.853
20
186.854
0
VERTEX
8
CONTOURS_MINEURES
10
91.794
20
189.999
0
VERTEX
8
CONTOURS_MINEURES
10
90.669
20
194.328
0
VERTEX
8
CONTOURS_MINEURES
10
90.417
20
194.996
0
VERTEX
8
CONTOURS_MINEURES
10
90.258
20
195.254
0
VERTEX
8
CONTOURS_MINEURES
10
90.000
20
195.674
0
VERTEX
8
CONTOURS_MINEURES
10
86.915
20
198.089
0
VERTEX
8
CONTOURS_MINEURES
10
85.005
20
199.495
0
VERTEX
8
CONTOURS_MINEURES
10
84.640
20
199.638
0
VERTEX
8
CONTOURS_MINEURES
10
84.257
20
200.003
0
VERTEX
8
CONTOURS_MINEURES
10
80.000
20
202.553
0
VERTEX
8
CONTOURS_MINEURES
10
78.481
20
203.484
0
VERTEX
8
CONTOURS_MINEURES
10
77.820
20
205.000
0
VERTEX
8
CONTOURS_MINEURES
10
74.995
20
206.915
0
VERTEX
8
CONTOURS_MINEURES
10
72.193
20
207.803
0
VERTEX
8
CONTOURS_MINEURES
10
70.000
20
208.432
0
VERTEX
8
CONTOURS_MINEURES
10
66.862
20
208.132
0
VERTEX
8
CONTOURS_MINEURES
10
64.995
20
208.183
0
VERTEX
8
CONTOURS_MINEURES
10
63.404
20
208.404
0
VERTEX
8
CONTOURS_MINEURES
10
60.001
20
209.782
0
VERTEX
8
CONTOURS_MINEURES
10
59.862
20
209.857
0
VERTEX
8
CONTOURS_MINEURES
10
59.723
20
209.996
0
SEQEND
0
POLYLINE
8
CONTOURS_MINEURES
66
1
70
0
0
VERTEX
8
CONTOURS_MINEURES
10
133.495
20
209.996
0
VERTEX
8
CONTOURS_MINEURES
10
135.003
20
206.856
0
VERTEX
8
CONTOURS_MINEURES
10
135.861
20
205.858
0
VERTEX
8
CONTOURS_MINEURES
10
136.028
20
205.000
0
VERTEX
8
CONTOURS_MINEURES
10
136.537
20
203.465
0
VERTEX
8
CONTOURS_MINEURES
10
138.143
20
200.003
0
VERTEX
8
CONTOURS_MINEURES
10
138.829
20
198.831
0
VERTEX
8
CONTOURS_MINEURES
10
139.946
20
194.996
0
VERTEX
8
CONTOURS_MINEURES
10
139.961
20
194.959
0
VERTEX
8
CONTOURS_MINEURES
10
139.998
20
194.733
0
VERTEX
8
CONTOURS_MINEURES
10
141.413
20
189.999
0
VERTEX
8
CONTOURS_MINEURES
10
141.955
20
186.957
0
VERTEX
8
CONTOURS_MINEURES
10
142.146
20
185.003
0
VERTEX
8
CONTOURS_MINEURES
10
142.826
20
182.825
0
VERTEX
8
CONTOURS_MINEURES
10
143.235
20
179.996
0
VERTEX
8
CONTOURS_MINEURES
10
144.345
20
175.656
0
VERTEX
8
CONTOURS_MINEURES
10
144.487
20
174.999
0
VERTEX
8
CONTOURS_MINEURES
10
144.487
20
174.484
0
VERTEX
8
CONTOURS_MINEURES
10
145.003
20
172.871
0
VERTEX
8
CONTOURS_MINEURES
10
146.963
20
170.003
0
VERTEX
8
CONTOURS_MINEURES
10
149.997
20
165.196
0
VERTEX
8
CONTOURS_MINEURES
10
150.176
20
164.995
0
VERTEX
8
CONTOURS_MINEURES
10
150.368
20
164.625
0
VERTEX
8
CONTOURS_MINEURES
10
153.419
20
159.999
0
VERTEX
8
CONTOURS_MINEURES
10
154.163
20
159.161
0
VERTEX
8
CONTOURS_MINEURES
10
155.002
20
158.214
0
SEQEND
0
POLYLINE
8
CONTOURS_MINEURES
66
1
70
0
0
VERTEX
8
CONTOURS_MINEURES
10
0.003
20
49.096
0
VERTEX
8
CONTOURS_MINEURES
10
0.977
20
49.026
0
VERTEX
8
CONTOURS_MINEURES
10
2.985
20
50.001
0
VERTEX
8
CONTOURS_MINEURES
10
4.997
20
51.569
0
VERTEX
8
CONTOURS_MINEURES
10
7.757
20
52.242
0
VERTEX
8
CONTOURS_MINEURES
10
10.003
20
54.065
0
VERTEX
8
CONTOURS_MINEURES
10
10.425
20
54.574
0
VERTEX
8
CONTOURS_MINEURES
10
10.835
20
54.997
0
VERTEX
8
CONTOURS_MINEURES
10
10.494
20
59.512
0
VERTEX
8
CONTOURS_MINEURES
10
10.668
20
60.004
0
VERTEX
8
CONTOURS_MINEURES
10
10.003
20
61.878
0
VERTEX
8
CONTOURS_MINEURES
10
9.526
20
64.525
0
VERTEX
8
CONTOURS_MINEURES
10
9.288
20
65.001
0
VERTEX
8
CONTOURS_MINEURES
10
8.938
20
66.064
0
VERTEX
8
CONTOURS_MINEURES
10
8.629
20
69.997
0
VERTEX
8
CONTOURS_MINEURES
10
9.746
20
74.748
0
VERTEX
8
CONTOURS_MINEURES
10
9.877
20
75.005
0
VERTEX
8
CONTOURS_MINEURES
10
9.895
20
75.112
0
VERTEX
8
CONTOURS_MINEURES
10
10.003
20
75.504
0
VERTEX
8
CONTOURS_MINEURES
10
13.332
20
80.001
0
VERTEX
8
CONTOURS_MINEURES
10
13.927
20
81.072
0
VERTEX
8
CONTOURS_MINEURES
10
14.997
20
82.368
0
VERTEX
8
CONTOURS_MINEURES
10
17.812
20
82.812
0
VERTEX
8
CONTOURS_MINEURES
10
20.002
20
83.408
0
VERTEX
8
CONTOURS_MINEURES
10
20.616
20
84.384
0
VERTEX
8
CONTOURS_MINEURES
10
21.459
20
84.998
0
VERTEX
8
CONTOURS_MINEURES
10
21.964
20
88.038
0
VERTEX
8
CONTOURS_MINEURES
10
22.499
20
90.005
0
VERTEX
8
CONTOURS_MINEURES
10
24.997
20
94.585
0
VERTEX
8
CONTOURS_MINEURES
10
25.103
20
94.895
0
VERTEX
8
CONTOURS_MINEURES
10
25.309
20
95.001
0
VERTEX
8
CONTOURS_MINEURES
10
30.002
20
97.777
0
VERTEX
8
CONTOURS_MINEURES
10
31.714
20
98.285
0
VERTEX
8
CONTOURS_MINEURES
10
34.996
20
99.598
0
VERTEX
8
CONTOURS_MINEURES
10
38.333
20
99.998
0
VERTEX
8
CONTOURS_MINEURES
10
37.499
20
102.502
0
VERTEX
8
CONTOURS_MINEURES
10
39.231
20
105.005
0
VERTEX
8
CONTOURS_MINEURES
10
39.167
20
105.838
0
VERTEX
8
CONTOURS_MINEURES
10
40.001
20
110.002
0
VERTEX
8
CONTOURS_MINEURES
10
40.418
20
114.582
0
VERTEX
8
CONTOURS_MINEURES
10
40.239
20
114.998
0
VERTEX
8
CONTOURS_MINEURES
10
40.001
20
115.553
0
VERTEX
8
CONTOURS_MINEURES
10
38.260
20
118.257
0
VERTEX
8
CONTOURS_MINEURES
10
39.376
20
119.994
0
VERTEX
8
CONTOURS_MINEURES
10
39.656
20
120.340
0
VERTEX
8
CONTOURS_MINEURES
10
40.001
20
121.597
0
VERTEX
8
CONTOURS_MINEURES
10
41.574
20
125.002
0
VERTEX
8
CONTOURS_MINEURES
10
43.129
20
126.869
0
VERTEX
8
CONTOURS_MINEURES
10
43.872
20
129.998
0
VERTEX
8
CONTOURS_MINEURES
10
44.179
20
130.816
0
VERTEX
8
CONTOURS_MINEURES
10
44.996
20
133.100
0
VERTEX
8
CONTOURS_MINEURES
10
45.929
20
134.063
0
VERTEX
8
CONTOURS_MINEURES
10
45.805
20
134.995
0
VERTEX
8
CONTOURS_MINEURES
10
45.805
20
135.805
0
VERTEX
8
CONTOURS_MINEURES
10
47.359
20
140.002
0
VERTEX
8
CONTOURS_MINEURES
10
48.148
20
141.852
0
VERTEX
8
CONTOURS_MINEURES
10
50.001
20
143.167
0
VERTEX
8
CONTOURS_MINEURES
10
51.773
20
144.999
0
VERTEX
8
CONTOURS_MINEURES
10
52.537
20
147.535
0
VERTEX
8
CONTOURS_MINEURES
10
53.397
20
149.995
0
VERTEX
8
CONTOURS_MINEURES
10
53.543
20
151.452
0
VERTEX
8
CONTOURS_MINEURES
10
54.995
20
152.499
0
VERTEX
8
CONTOURS_MINEURES
10
56.681
20
155.003
0
VERTEX
8
CONTOURS_MINEURES
10
57.108
20
157.890
0
VERTEX
8
CONTOURS_MINEURES
10
58.770
20
159.999
0
VERTEX
8
CONTOURS_MINEURES
10
60.001
20
164.163
0
VERTEX
8
CONTOURS_MINEURES
10
60.169
20
164.827
0
VERTEX
8
CONTOURS_MINEURES
10
60.385
20
164.995
0
VERTEX
8
CONTOURS_MINEURES
10
62.141
20
167.141
0
VERTEX
8
CONTOURS_MINEURES
10
64.163
20
170.003
0
VERTEX
8
CONTOURS_MINEURES
10
64.469
20
170.529
0
VERTEX
8
CONTOURS_MINEURES
10
64.995
20
174.000
0
VERTEX
8
CONTOURS_MINEURES
10
65.102
20
174.893
0
VERTEX
8
CONTOURS_MINEURES
10
65.204
20
174.999
0
VERTEX
8
CONTOURS_MINEURES
10
70.000
20
179.787
0
VERTEX
8
CONTOURS_MINEURES
10
70.093
20
179.903
0
VERTEX
8
CONTOURS_MINEURES
10
70.192
20
179.996
0
VERTEX
8
CONTOURS_MINEURES
10
72.497
20
182.499
0
VERTEX
8
CONTOURS_MINEURES
10
74.717
20
185.003
0
VERTEX
8
CONTOURS_MINEURES
10
74.683
20
185.315
0
VERTEX
8
CONTOURS_MINEURES
10
74.995
20
189.999
0
VERTEX
8
CONTOURS_MINEURES
10
73.434
20
194.996
0
VERTEX
8
CONTOURS_MINEURES
10
71.145
20
196.143
0
VERTEX
8
CONTOURS_MINEURES
10
70.000
20
198.439
0
VERTEX
8
CONTOURS_MINEURES
10
67.498
20
200.003
0
VERTEX
8
CONTOURS_MINEURES
10
65.528
20
200.535
0
VERTEX
8
CONTOURS_MINEURES
10
64.995
20
200.628
0
VERTEX
8
CONTOURS_MINEURES
10
60.139
20
205.000
0
VERTEX
8
CONTOURS_MINEURES
10
60.018
20
205.017
0
VERTEX
8
CONTOURS_MINEURES
10
60.001
20
205.024
0
VERTEX
8
CONTOURS_MINEURES
10
56.772
20
206.773
0
VERTEX
8
CONTOURS_MINEURES
10
54.995
20
208.547
0
VERTEX
8
CONTOURS_MINEURES
10
53.491
20
209.996
0
SEQEND
0
POLYLINE
8
CONTOURS_MINEURES
66
1
70
0
0
VERTEX
8
CONTOURS_MINEURES
10
141.463
20
209.996
0
VERTEX
8
CONTOURS_MINEURES
10
143.142
20
208.139
0
VERTEX
8
CONTOURS_MINEURES
10
144.903
20
205.000
0
VERTEX
8
CONTOURS_MINEURES
10
144.959
20
204.956
0
VERTEX
8
CONTOURS_MINEURES
10
145.003
20
204.687
0
VERTEX
8
CONTOURS_MINEURES
10
147.419
20
200.003
0
VERTEX
8
CONTOURS_MINEURES
10
148.332
20
198.334
0
VERTEX
8
CONTOURS_MINEURES
10
149.997
20
197.142
0
VERTEX
8
CONTOURS_MINEURES
10
153.811
20
196.188
0
VERTEX
8
CONTOURS_MINEURES
10
155.002
20
195.578
0
SEQEND
0
POLYLINE
8
CONTOURS_MINEURES
66
1
70
0
0
VERTEX
8
CONTOURS_MINEURES
10
0.003
20
116.610
0
VERTEX
8
CONTOURS_MINEURES
10
2.188
20
117.809
0
VERTEX
8
CONTOURS_MINEURES
10
4.770
20
119.994
0
VERTEX
8
CONTOURS_MINEURES
10
4.997
20
120.187
0
VERTEX
8
CONTOURS_MINEURES
10
5.355
20
120.352
0
VERTEX
8
CONTOURS_MINEURES
10
10.003
20
122.968
0
VERTEX
8
CONTOURS_MINEURES
10
11.142
20
123.860
0
VERTEX
8
CONTOURS_MINEURES
10
11.711
20
125.002
0
VERTEX
8
CONTOURS_MINEURES
10
12.032
20
127.032
0
VERTEX
8
CONTOURS_MINEURES
10
12.840
20
129.998
0
VERTEX
8
CONTOURS_MINEURES
10
13.715
20
131.281
0
VERTEX
8
CONTOURS_MINEURES
10
14.997
20
134.313
0
VERTEX
8
CONTOURS_MINEURES
10
15.452
20
134.995
0
VERTEX
8
CONTOURS_MINEURES
10
16.070
20
136.068
0
VERTEX
8
CONTOURS_MINEURES
10
18.429
20
140.002
0
VERTEX
8
CONTOURS_MINEURES
10
20.002
20
141.668
0
VERTEX
8
CONTOURS_MINEURES
10
22.245
20
144.999
0
VERTEX
8
CONTOURS_MINEURES
10
24.997
20
149.650
0
VERTEX
8
CONTOURS_MINEURES
10
25.224
20
149.768
0
VERTEX
8
CONTOURS_MINEURES
10
25.432
20
149.995
0
VERTEX
8
CONTOURS_MINEURES
10
25.342
20
150.340
0
VERTEX
8
CONTOURS_MINEURES
10
28.098
20
155.003
0
VERTEX
8
CONTOURS_MINEURES
10
30.002
20
157.648
0
VERTEX
8
CONTOURS_MINEURES
10
31.500
20
158.500
0
VERTEX
8
CONTOURS_MINEURES
10
31.213
20
159.999
0
VERTEX
8
CONTOURS_MINEURES
10
33.075
20
163.074
0
VERTEX
8
CONTOURS_MINEURES
10
34.296
20
164.995
0
VERTEX
8
CONTOURS_MINEURES
10
34.415
20
165.578
0
VERTEX
8
CONTOURS_MINEURES
10
34.996
20
166.337
0
VERTEX
8
CONTOURS_MINEURES
10
36.951
20
170.003
0
VERTEX
8
CONTOURS_MINEURES
10
37.397
20
172.603
0
VERTEX
8
CONTOURS_MINEURES
10
38.642
20
174.999
0
VERTEX
8
CONTOURS_MINEURES
10
40.001
20
177.497
0
VERTEX
8
CONTOURS_MINEURES
10
41.375
20
179.996
0
VERTEX
8
CONTOURS_MINEURES
10
41.184
20
183.817
0
VERTEX
8
CONTOURS_MINEURES
10
41.451
20
185.003
0
VERTEX
8
CONTOURS_MINEURES
10
42.045
20
187.047
0
VERTEX
8
CONTOURS_MINEURES
10
41.286
20
189.999
0
VERTEX
8
CONTOURS_MINEURES
10
41.666
20
191.665
0
VERTEX
8
CONTOURS_MINEURES
10
40.264
20
194.996
0
VERTEX
8
CONTOURS_MINEURES
10
40.001
20
195.997
0
VERTEX
8
CONTOURS_MINEURES
10
39.356
20
200.003
0
VERTEX
8
CONTOURS_MINEURES
10
39.219
20
204.219
0
VERTEX
8
CONTOURS_MINEURES
10
39.167
20
205.000
0
VERTEX
8
CONTOURS_MINEURES
10
39.167
20
205.832
0
VERTEX
8
CONTOURS_MINEURES
10
40.001
20
208.569
0
VERTEX
8
CONTOURS_MINEURES
10
41.000
20
209.996
0
SEQEND
0
POLYLINE
8
CONTOURS_MINEURES
66
1
70
0
0
VERTEX
8
CONTOURS_MINEURES
10
0.003
20
150.152
0
VERTEX
8
CONTOURS_MINEURES
10
1.002
20
150.997
0
VERTEX
8
CONTOURS_MINEURES
10
4.997
20
153.948
0
VERTEX
8
CONTOURS_MINEURES
10
6.110
20
155.003
0
VERTEX
8
CONTOURS_MINEURES
10
8.872
20
156.131
0
VERTEX
8
CONTOURS_MINEURES
10
10.003
20
159.374
0
VERTEX
8
CONTOURS_MINEURES
10
10.220
20
159.999
0
VERTEX
8
CONTOURS_MINEURES
10
10.688
20
164.310
0
VERTEX
8
CONTOURS_MINEURES
10
10.855
20
164.995
0
VERTEX
8
CONTOURS_MINEURES
10
11.130
20
166.126
0
VERTEX
8
CONTOURS_MINEURES
10
12.143
20
170.003
0
VERTEX
8
CONTOURS_MINEURES
10
12.273
20
172.728
0
VERTEX
8
CONTOURS_MINEURES
10
12.041
20
174.999
0
VERTEX
8
CONTOURS_MINEURES
10
11.819
20
176.816
0
VERTEX
8
CONTOURS_MINEURES
10
11.699
20
179.996
0
VERTEX
8
CONTOURS_MINEURES
10
13.103
20
183.104
0
VERTEX
8
CONTOURS_MINEURES
10
14.152
20
185.003
0
VERTEX
8
CONTOURS_MINEURES
10
14.479
20
185.522
0
VERTEX
8
CONTOURS_MINEURES
10
14.997
20
186.060
0
VERTEX
8
CONTOURS_MINEURES
10
16.897
20
189.999
0
VERTEX
8
CONTOURS_MINEURES
10
18.597
20
193.593
0
VERTEX
8
CONTOURS_MINEURES
10
19.112
20
194.996
0
VERTEX
8
CONTOURS_MINEURES
10
19.037
20
195.961
0
VERTEX
8
CONTOURS_MINEURES
10
20.002
20
197.580
0
VERTEX
8
CONTOURS_MINEURES
10
20.927
20
200.003
0
VERTEX
8
CONTOURS_MINEURES
10
21.272
20
201.274
0
VERTEX
8
CONTOURS_MINEURES
10
21.208
20
205.000
0
VERTEX
8
CONTOURS_MINEURES
10
20.850
20
209.148
0
VERTEX
8
CONTOURS_MINEURES
10
21.047
20
209.996
0
SEQEND
0
POLYLINE
8
CONTOURS_MAJEURES
66
1
70
0
0
VERTEX
8
CONTOURS_MAJEURES
10
155.002
20
50.243
0
VERTEX
8
CONTOURS_MAJEURES
10
152.085
20
54.997
0
VERTEX
8
CONTOURS_MAJEURES
10
149.997
20
58.954
0
VERTEX
8
CONTOURS_MAJEURES
10
149.643
20
59.650
0
VERTEX
8
CONTOURS_MAJEURES
10
149.430
20
60.004
0
VERTEX
8
CONTOURS_MAJEURES
10
145.669
20
64.335
0
VERTEX
8
CONTOURS_MAJEURES
10
145.089
20
65.001
0
VERTEX
8
CONTOURS_MAJEURES
10
145.050
20
65.048
0
VERTEX
8
CONTOURS_MAJEURES
10
145.003
20
65.098
0
VERTEX
8
CONTOURS_MAJEURES
10
141.038
20
69.997
0
VERTEX
8
CONTOURS_MAJEURES
10
140.610
20
70.610
0
VERTEX
8
CONTOURS_MAJEURES
10
139.998
20
74.348
0
VERTEX
8
CONTOURS_MAJEURES
10
139.931
20
75.005
0
VERTEX
8
CONTOURS_MAJEURES
10
139.909
20
75.094
0
VERTEX
8
CONTOURS_MAJEURES
10
138.931
20
80.001
0
VERTEX
8
CONTOURS_MAJEURES
10
137.629
20
82.371
0
VERTEX
8
CONTOURS_MAJEURES
10
136.559
20
84.998
0
VERTEX
8
CONTOURS_MAJEURES
10
136.608
20
86.606
0
VERTEX
8
CONTOURS_MAJEURES
10
135.003
20
88.011
0
VERTEX
8
CONTOURS_MAJEURES
10
133.829
20
90.005
0
VERTEX
8
CONTOURS_MAJEURES
10
133.316
20
93.317
0
VERTEX
8
CONTOURS_MAJEURES
10
131.556
20
95.001
0
VERTEX
8
CONTOURS_MAJEURES
10
131.330
20
96.331
0
VERTEX
8
CONTOURS_MAJEURES
10
129.998
20
97.920
0
VERTEX
8
CONTOURS_MAJEURES
10
129.506
20
99.505
0
VERTEX
8
CONTOURS_MAJEURES
10
129.028
20
99.998
0
VERTEX
8
CONTOURS_MAJEURES
10
128.687
20
101.313
0
VERTEX
8
CONTOURS_MAJEURES
10
128.235
20
105.005
0
VERTEX
8
CONTOURS_MAJEURES
10
128.626
20
108.629
0
VERTEX
8
CONTOURS_MAJEURES
10
129.143
20
110.002
0
VERTEX
8
CONTOURS_MAJEURES
10
129.034
20
110.966
0
VERTEX
8
CONTOURS_MAJEURES
10
128.101
20
114.998
0
VERTEX
8
CONTOURS_MAJEURES
10
127.437
20
117.432
0
VERTEX
8
CONTOURS_MAJEURES
10
125.756
20
119.994
0
VERTEX
8
CONTOURS_MAJEURES
10
125.571
20
120.564
0
VERTEX
8
CONTOURS_MAJEURES
10
125.004
20
120.833
0
VERTEX
8
CONTOURS_MAJEURES
10
122.949
20
122.050
0
VERTEX
8
CONTOURS_MAJEURES
10
119.998
20
124.021
0
VERTEX
8
CONTOURS_MAJEURES
10
119.392
20
124.394
0
VERTEX
8
CONTOURS_MAJEURES
10
118.343
20
125.002
0
VERTEX
8
CONTOURS_MAJEURES
10
115.004
20
127.260
0
VERTEX
8
CONTOURS_MAJEURES
10
112.733
20
129.998
0
VERTEX
8
CONTOURS_MAJEURES
10
111.641
20
131.637
0
VERTEX
8
CONTOURS_MAJEURES
10
109.999
20
132.288
0
VERTEX
8
CONTOURS_MAJEURES
10
109.430
20
134.995
0
VERTEX
8
CONTOURS_MAJEURES
10
109.342
20
139.343
0
VERTEX
8
CONTOURS_MAJEURES
10
109.325
20
140.002
0
VERTEX
8
CONTOURS_MAJEURES
10
109.776
20
144.775
0
VERTEX
8
CONTOURS_MAJEURES
10
109.662
20
144.999
0
VERTEX
8
CONTOURS_MAJEURES
10
109.654
20
145.344
0
VERTEX
8
CONTOURS_MAJEURES
10
109.894
20
149.995
0
VERTEX
8
CONTOURS_MAJEURES
10
109.019
20
154.020
0
VERTEX
8
CONTOURS_MAJEURES
10
108.951
20
155.003
0
VERTEX
8
CONTOURS_MAJEURES
10
108.880
20
156.122
0
VERTEX
8
CONTOURS_MAJEURES
10
108.827
20
159.999
0
VERTEX
8
CONTOURS_MAJEURES
10
108.962
20
163.958
0
VERTEX
8
CONTOURS_MAJEURES
10
108.924
20
164.995
0
VERTEX
8
CONTOURS_MAJEURES
10
108.885
20
166.112
0
VERTEX
8
CONTOURS_MAJEURES
10
108.967
20
170.003
0
VERTEX
8
CONTOURS_MAJEURES
10
109.437
20
174.437
0
VERTEX
8
CONTOURS_MAJEURES
10
109.483
20
174.999
0
VERTEX
8
CONTOURS_MAJEURES
10
109.536
20
175.462
0
VERTEX
8
CONTOURS_MAJEURES
10
109.999
20
178.470
0
VERTEX
8
CONTOURS_MAJEURES
10
110.552
20
179.444
0
VERTEX
8
CONTOURS_MAJEURES
10
111.299
20
179.996
0
VERTEX
8
CONTOURS_MAJEURES
10
115.004
20
182.521
0
VERTEX
8
CONTOURS_MAJEURES
10
116.213
20
181.208
0
VERTEX
8
CONTOURS_MAJEURES
10
117.580
20
179.996
0
VERTEX
8
CONTOURS_MAJEURES
10
118.753
20
178.749
0
VERTEX
8
CONTOURS_MAJEURES
10
119.998
20
177.058
0
VERTEX
8
CONTOURS_MAJEURES
10
120.635
20
175.634
0
VERTEX
8
CONTOURS_MAJEURES
10
120.716
20
174.999
0
VERTEX
8
CONTOURS_MAJEURES
10
120.866
20
170.869
0
VERTEX
8
CONTOURS_MAJEURES
10
120.849
20
170.003
0
VERTEX
8
CONTOURS_MAJEURES
10
119.998
20
166.966
0
VERTEX
8
CONTOURS_MAJEURES
10
119.357
20
165.638
0
VERTEX
8
CONTOURS_MAJEURES
10
119.225
20
164.995
0
VERTEX
8
CONTOURS_MAJEURES
10
118.330
20
161.668
0
VERTEX
8
CONTOURS_MAJEURES
10
118.072
20
159.999
0
VERTEX
8
CONTOURS_MAJEURES
10
117.384
20
157.383
0
VERTEX
8
CONTOURS_MAJEURES
10
116.722
20
155.003
0
VERTEX
8
CONTOURS_MAJEURES
10
116.355
20
153.648
0
VERTEX
8
CONTOURS_MAJEURES
10
115.111
20
149.995
0
VERTEX
8
CONTOURS_MAJEURES
10
116.329
20
146.324
0
VERTEX
8
CONTOURS_MAJEURES
10
116.570
20
144.999
0
VERTEX
8
CONTOURS_MAJEURES
10
117.677
20
142.676
0
VERTEX
8
CONTOURS_MAJEURES
10
119.998
20
141.487
0
VERTEX
8
CONTOURS_MAJEURES
10
122.277
20
140.002
0
VERTEX
8
CONTOURS_MAJEURES
10
125.004
20
136.915
0
VERTEX
8
CONTOURS_MAJEURES
10
126.085
20
136.079
0
VERTEX
8
CONTOURS_MAJEURES
10
129.998
20
135.035
0
VERTEX
8
CONTOURS_MAJEURES
10
130.067
20
134.995
0
VERTEX
8
CONTOURS_MAJEURES
10
135.003
20
131.724
0
VERTEX
8
CONTOURS_MAJEURES
10
136.056
20
131.051
0
VERTEX
8
CONTOURS_MAJEURES
10
136.940
20
129.998
0
VERTEX
8
CONTOURS_MAJEURES
10
137.908
20
127.092
0
VERTEX
8
CONTOURS_MAJEURES
10
138.971
20
125.002
0
VERTEX
8
CONTOURS_MAJEURES
10
139.067
20
124.069
0
VERTEX
8
CONTOURS_MAJEURES
10
139.123
20
119.994
0
VERTEX
8
CONTOURS_MAJEURES
10
139.998
20
117.446
0
VERTEX
8
CONTOURS_MAJEURES
10
140.429
20
115.429
0
VERTEX
8
CONTOURS_MAJEURES
10
140.557
20
114.998
0
VERTEX
8
CONTOURS_MAJEURES
10
145.003
20
110.095
0
VERTEX
8
CONTOURS_MAJEURES
10
145.051
20
110.050
0
VERTEX
8
CONTOURS_MAJEURES
10
145.166
20
110.002
0
VERTEX
8
CONTOURS_MAJEURES
10
149.997
20
106.077
0
VERTEX
8
CONTOURS_MAJEURES
10
150.692
20
105.699
0
VERTEX
8
CONTOURS_MAJEURES
10
151.549
20
105.005
0
VERTEX
8
CONTOURS_MAJEURES
10
152.481
20
102.482
0
VERTEX
8
CONTOURS_MAJEURES
10
155.002
20
101.023
0
SEQEND
0
POLYLINE
8
CONTOURS_MAJEURES
66
1
70
0
0
VERTEX
8
CONTOURS_MAJEURES
10
98.032
20
0.003
0
VERTEX
8
CONTOURS_MAJEURES
10
98.797
20
1.206
0
VERTEX
8
CONTOURS_MAJEURES
10
99.999
20
3.824
0
VERTEX
8
CONTOURS_MAJEURES
10
100.833
20
5.000
0
VERTEX
8
CONTOURS_MAJEURES
10
105.004
20
9.344
0
VERTEX
8
CONTOURS_MAJEURES
10
105.258
20
9.742
0
VERTEX
8
CONTOURS_MAJEURES
10
105.361
20
9.996
0
VERTEX
8
CONTOURS_MAJEURES
10
107.216
20
12.786
0
VERTEX
8
CONTOURS_MAJEURES
10
109.999
20
15.004
0
VERTEX
8
CONTOURS_MAJEURES
10
115.004
20
17.145
0
VERTEX
8
CONTOURS_MAJEURES
10
117.858
20
20.000
0
VERTEX
8
CONTOURS_MAJEURES
10
118.286
20
21.713
0
VERTEX
8
CONTOURS_MAJEURES
10
119.998
20
23.156
0
VERTEX
8
CONTOURS_MAJEURES
10
121.166
20
24.996
0
VERTEX
8
CONTOURS_MAJEURES
10
121.974
20
28.027
0
VERTEX
8
CONTOURS_MAJEURES
10
123.411
20
30.004
0
VERTEX
8
CONTOURS_MAJEURES
10
123.950
20
33.948
0
VERTEX
8
CONTOURS_MAJEURES
10
124.358
20
35.000
0
VERTEX
8
CONTOURS_MAJEURES
10
124.578
20
35.426
0
VERTEX
8
CONTOURS_MAJEURES
10
125.004
20
36.052
0
VERTEX
8
CONTOURS_MAJEURES
10
127.207
20
39.997
0
VERTEX
8
CONTOURS_MAJEURES
10
128.749
20
43.752
0
VERTEX
8
CONTOURS_MAJEURES
10
129.304
20
45.004
0
VERTEX
8
CONTOURS_MAJEURES
10
129.717
20
45.285
0
VERTEX
8
CONTOURS_MAJEURES
10
129.998
20
48.127
0
VERTEX
8
CONTOURS_MAJEURES
10
130.117
20
50.001
0
VERTEX
8
CONTOURS_MAJEURES
10
130.081
20
50.083
0
VERTEX
8
CONTOURS_MAJEURES
10
129.998
20
53.748
0
VERTEX
8
CONTOURS_MAJEURES
10
129.950
20
54.997
0
VERTEX
8
CONTOURS_MAJEURES
10
129.963
20
55.032
0
VERTEX
8
CONTOURS_MAJEURES
10
128.302
20
60.004
0
VERTEX
8
CONTOURS_MAJEURES
10
128.645
20
63.648
0
VERTEX
8
CONTOURS_MAJEURES
10
129.109
20
65.001
0
VERTEX
8
CONTOURS_MAJEURES
10
129.998
20
66.645
0
VERTEX
8
CONTOURS_MAJEURES
10
130.872
20
69.997
0
VERTEX
8
CONTOURS_MAJEURES
10
131.288
20
73.714
0
VERTEX
8
CONTOURS_MAJEURES
10
131.502
20
75.005
0
VERTEX
8
CONTOURS_MAJEURES
10
131.188
20
76.192
0
VERTEX
8
CONTOURS_MAJEURES
10
129.998
20
78.939
0
VERTEX
8
CONTOURS_MAJEURES
10
129.471
20
79.473
0
VERTEX
8
CONTOURS_MAJEURES
10
129.297
20
80.001
0
VERTEX
8
CONTOURS_MAJEURES
10
127.116
20
82.114
0
VERTEX
8
CONTOURS_MAJEURES
10
125.475
20
84.998
0
VERTEX
8
CONTOURS_MAJEURES
10
125.275
20
85.270
0
VERTEX
8
CONTOURS_MAJEURES
10
125.004
20
85.645
0
VERTEX
8
CONTOURS_MAJEURES
10
122.693
20
87.694
0
VERTEX
8
CONTOURS_MAJEURES
10
121.651
20
90.005
0
VERTEX
8
CONTOURS_MAJEURES
10
120.963
20
90.967
0
VERTEX
8
CONTOURS_MAJEURES
10
119.998
20
92.639
0
VERTEX
8
CONTOURS_MAJEURES
10
118.665
20
93.668
0
VERTEX
8
CONTOURS_MAJEURES
10
118.399
20
95.001
0
VERTEX
8
CONTOURS_MAJEURES
10
117.799
20
97.202
0
VERTEX
8
CONTOURS_MAJEURES
10
116.620
20
99.998
0
VERTEX
8
CONTOURS_MAJEURES
10
116.332
20
101.329
0
VERTEX
8
CONTOURS_MAJEURES
10
115.401
20
105.005
0
VERTEX
8
CONTOURS_MAJEURES
10
115.004
20
106.951
0
VERTEX
8
CONTOURS_MAJEURES
10
114.228
20
109.227
0
VERTEX
8
CONTOURS_MAJEURES
10
113.789
20
110.002
0
VERTEX
8
CONTOURS_MAJEURES
10
109.999
20
113.339
0
VERTEX
8
CONTOURS_MAJEURES
10
109.124
20
114.123
0
VERTEX
8
CONTOURS_MAJEURES
10
109.102
20
114.998
0
VERTEX
8
CONTOURS_MAJEURES
10
107.626
20
117.621
0
VERTEX
8
CONTOURS_MAJEURES
10
107.617
20
119.994
0
VERTEX
8
CONTOURS_MAJEURES
10
107.018
20
122.013
0
VERTEX
8
CONTOURS_MAJEURES
10
106.958
20
125.002
0
VERTEX
8
CONTOURS_MAJEURES
10
106.589
20
126.587
0
VERTEX
8
CONTOURS_MAJEURES
10
106.578
20
129.998
0
VERTEX
8
CONTOURS_MAJEURES
10
106.916
20
133.082
0
VERTEX
8
CONTOURS_MAJEURES
10
106.515
20
134.995
0
VERTEX
8
CONTOURS_MAJEURES
10
106.484
20
136.479
0
VERTEX
8
CONTOURS_MAJEURES
10
106.396
20
140.002
0
VERTEX
8
CONTOURS_MAJEURES
10
106.541
20
141.539
0
VERTEX
8
CONTOURS_MAJEURES
10
105.004
20
144.557
0
VERTEX
8
CONTOURS_MAJEURES
10
104.508
20
144.999
0
VERTEX
8
CONTOURS_MAJEURES
10
104.286
20
149.278
0
VERTEX
8
CONTOURS_MAJEURES
10
104.178
20
149.995
0
VERTEX
8
CONTOURS_MAJEURES
10
104.082
20
150.917
0
VERTEX
8
CONTOURS_MAJEURES
10
103.409
20
155.003
0
VERTEX
8
CONTOURS_MAJEURES
10
103.139
20
156.865
0
VERTEX
8
CONTOURS_MAJEURES
10
102.666
20
159.999
0
VERTEX
8
CONTOURS_MAJEURES
10
102.476
20
162.472
0
VERTEX
8
CONTOURS_MAJEURES
10
102.271
20
164.995
0
VERTEX
8
CONTOURS_MAJEURES
10
102.051
20
167.950
0
VERTEX
8
CONTOURS_MAJEURES
10
101.902
20
170.003
0
VERTEX
8
CONTOURS_MAJEURES
10
102.266
20
172.266
0
VERTEX
8
CONTOURS_MAJEURES
10
102.675
20
174.999
0
VERTEX
8
CONTOURS_MAJEURES
10
103.045
20
176.955
0
VERTEX
8
CONTOURS_MAJEURES
10
103.756
20
179.996
0
VERTEX
8
CONTOURS_MAJEURES
10
104.543
20
184.541
0
VERTEX
8
CONTOURS_MAJEURES
10
104.553
20
185.003
0
VERTEX
8
CONTOURS_MAJEURES
10
103.450
20
188.448
0
VERTEX
8
CONTOURS_MAJEURES
10
102.694
20
189.999
0
VERTEX
8
CONTOURS_MAJEURES
10
101.381
20
191.379
0
VERTEX
8
CONTOURS_MAJEURES
10
100.168
20
194.996
0
VERTEX
8
CONTOURS_MAJEURES
10
99.999
20
195.405
0
VERTEX
8
CONTOURS_MAJEURES
10
98.614
20
198.615
0
VERTEX
8
CONTOURS_MAJEURES
10
98.179
20
200.003
0
VERTEX
8
CONTOURS_MAJEURES
10
95.005
20
203.313
0
VERTEX
8
CONTOURS_MAJEURES
10
93.902
20
203.899
0
VERTEX
8
CONTOURS_MAJEURES
10
93.061
20
205.000
0
VERTEX
8
CONTOURS_MAJEURES
10
90.000
20
207.617
0
VERTEX
8
CONTOURS_MAJEURES
10
88.373
20
208.369
0
VERTEX
8
CONTOURS_MAJEURES
10
86.380
20
209.996
0
SEQEND
0
POLYLINE
8
CONTOURS_MAJEURES
66
1
70
0
0
VERTEX
8
CONTOURS_MAJEURES
10
119.310
20
209.996
0
VERTEX
8
CONTOURS_MAJEURES
10
119.626
20
209.623
0
VERTEX
8
CONTOURS_MAJEURES
10
119.998
20
208.778
0
VERTEX
8
CONTOURS_MAJEURES
10
120.908
20
205.000
0
VERTEX
8
CONTOURS_MAJEURES
10
121.441
20
201.444
0
VERTEX
8
CONTOURS_MAJEURES
10
121.667
20
200.003
0
VERTEX
8
CONTOURS_MAJEURES
10
122.617
20
197.616
0
VERTEX
8
CONTOURS_MAJEURES
10
123.853
20
194.996
0
VERTEX
8
CONTOURS_MAJEURES
10
125.004
20
193.147
0
VERTEX
8
CONTOURS_MAJEURES
10
126.326
20
191.322
0
VERTEX
8
CONTOURS_MAJEURES
10
127.151
20
189.999
0
VERTEX
8
CONTOURS_MAJEURES
10
128.387
20
186.615
0
VERTEX
8
CONTOURS_MAJEURES
10
129.222
20
185.003
0
VERTEX
8
CONTOURS_MAJEURES
10
129.937
20
180.056
0
VERTEX
8
CONTOURS_MAJEURES
10
129.957
20
179.996
0
VERTEX
8
CONTOURS_MAJEURES
10
129.998
20
178.820
0
VERTEX
8
CONTOURS_MAJEURES
10
130.160
20
174.999
0
VERTEX
8
CONTOURS_MAJEURES
10
129.998
20
170.669
0
VERTEX
8
CONTOURS_MAJEURES
10
129.980
20
170.003
0
VERTEX
8
CONTOURS_MAJEURES
10
129.829
20
165.165
0
VERTEX
8
CONTOURS_MAJEURES
10
129.804
20
164.995
0
VERTEX
8
CONTOURS_MAJEURES
10
129.765
20
164.763
0
VERTEX
8
CONTOURS_MAJEURES
10
129.861
20
159.999
0
VERTEX
8
CONTOURS_MAJEURES
10
129.935
20
155.066
0
VERTEX
8
CONTOURS_MAJEURES
10
129.920
20
155.003
0
VERTEX
8
CONTOURS_MAJEURES
10
129.899
20
154.903
0
VERTEX
8
CONTOURS_MAJEURES
10
129.257
20
149.995
0
VERTEX
8
CONTOURS_MAJEURES
10
129.243
20
145.754
0
VERTEX
8
CONTOURS_MAJEURES
10
129.238
20
144.999
0
VERTEX
8
CONTOURS_MAJEURES
10
129.748
20
144.749
0
VERTEX
8
CONTOURS_MAJEURES
10
129.998
20
144.673
0
VERTEX
8
CONTOURS_MAJEURES
10
130.503
20
144.494
0
VERTEX
8
CONTOURS_MAJEURES
10
135.003
20
142.921
0
VERTEX
8
CONTOURS_MAJEURES
10
137.859
20
142.142
0
VERTEX
8
CONTOURS_MAJEURES
10
139.998
20
141.604
0
VERTEX
8
CONTOURS_MAJEURES
10
141.323
20
141.326
0
VERTEX
8
CONTOURS_MAJEURES
10
144.375
20
140.002
0
VERTEX
8
CONTOURS_MAJEURES
10
145.003
20
139.500
0
VERTEX
8
CONTOURS_MAJEURES
10
147.054
20
137.051
0
VERTEX
8
CONTOURS_MAJEURES
10
148.787
20
134.995
0
VERTEX
8
CONTOURS_MAJEURES
10
149.733
20
130.262
0
VERTEX
8
CONTOURS_MAJEURES
10
149.790
20
129.998
0
VERTEX
8
CONTOURS_MAJEURES
10
149.717
20
129.718
0
VERTEX
8
CONTOURS_MAJEURES
10
147.831
20
125.002
0
VERTEX
8
CONTOURS_MAJEURES
10
147.097
20
122.902
0
VERTEX
8
CONTOURS_MAJEURES
10
146.966
20
119.994
0
VERTEX
8
CONTOURS_MAJEURES
10
147.731
20
117.727
0
VERTEX
8
CONTOURS_MAJEURES
10
148.789
20
114.998
0
VERTEX
8
CONTOURS_MAJEURES
10
149.413
20
114.413
0
VERTEX
8
CONTOURS_MAJEURES
10
149.997
20
114.169
0
VERTEX
8
CONTOURS_MAJEURES
10
153.717
20
113.715
0
VERTEX
8
CONTOURS_MAJEURES
10
155.002
20
113.289
0
SEQEND
0
POLYLINE
8
CONTOURS_MAJEURES
66
1
70
0
0
VERTEX
8
CONTOURS_MAJEURES
10
136.395
20
209.996
0
VERTEX
8
CONTOURS_MAJEURES
10
138.061
20
208.059
0
VERTEX
8
CONTOURS_MAJEURES
10
138.657
20
205.000
0
VERTEX
8
CONTOURS_MAJEURES
10
139.998
20
200.955
0
VERTEX
8
CONTOURS_MAJEURES
10
140.529
20
200.534
0
VERTEX
8
CONTOURS_MAJEURES
10
140.617
20
200.003
0
VERTEX
8
CONTOURS_MAJEURES
10
140.748
20
199.252
0
VERTEX
8
CONTOURS_MAJEURES
10
142.940
20
194.996
0
VERTEX
8
CONTOURS_MAJEURES
10
143.621
20
191.379
0
VERTEX
8
CONTOURS_MAJEURES
10
144.033
20
189.999
0
VERTEX
8
CONTOURS_MAJEURES
10
144.180
20
189.178
0
VERTEX
8
CONTOURS_MAJEURES
10
144.588
20
185.003
0
VERTEX
8
CONTOURS_MAJEURES
10
144.687
20
184.687
0
VERTEX
8
CONTOURS_MAJEURES
10
145.003
20
182.499
0
VERTEX
8
CONTOURS_MAJEURES
10
146.736
20
179.996
0
VERTEX
8
CONTOURS_MAJEURES
10
148.531
20
178.529
0
VERTEX
8
CONTOURS_MAJEURES
10
149.997
20
175.427
0
VERTEX
8
CONTOURS_MAJEURES
10
150.403
20
175.404
0
VERTEX
8
CONTOURS_MAJEURES
10
150.712
20
174.999
0
VERTEX
8
CONTOURS_MAJEURES
10
155.002
20
172.354
0
SEQEND
0
POLYLINE
8
CONTOURS_MAJEURES
66
1
70
0
0
VERTEX
8
CONTOURS_MAJEURES
10
0.003
20
54.283
0
VERTEX
8
CONTOURS_MAJEURES
10
0.982
20
54.997
0
VERTEX
8
CONTOURS_MAJEURES
10
2.644
20
57.357
0
VERTEX
8
CONTOURS_MAJEURES
10
4.508
20
60.004
0
VERTEX
8
CONTOURS_MAJEURES
10
3.683
20
61.319
0
VERTEX
8
CONTOURS_MAJEURES
10
1.298
20
65.001
0
VERTEX
8
CONTOURS_MAJEURES
10
0.911
20
65.909
0
VERTEX
8
CONTOURS_MAJEURES
10
0.301
20
69.997
0
VERTEX
8
CONTOURS_MAJEURES
10
1.942
20
73.060
0
VERTEX
8
CONTOURS_MAJEURES
10
3.225
20
75.005
0
VERTEX
8
CONTOURS_MAJEURES
10
3.307
20
76.696
0
VERTEX
8
CONTOURS_MAJEURES
10
4.133
20
80.001
0
VERTEX
8
CONTOURS_MAJEURES
10
3.028
20
83.027
0
VERTEX
8
CONTOURS_MAJEURES
10
2.143
20
84.998
0
VERTEX
8
CONTOURS_MAJEURES
10
2.500
20
87.501
0
VERTEX
8
CONTOURS_MAJEURES
10
2.163
20
90.005
0
VERTEX
8
CONTOURS_MAJEURES
10
3.333
20
91.670
0
VERTEX
8
CONTOURS_MAJEURES
10
4.997
20
94.774
0
VERTEX
8
CONTOURS_MAJEURES
10
5.126
20
95.001
0
VERTEX
8
CONTOURS_MAJEURES
10
6.885
20
98.114
0
VERTEX
8
CONTOURS_MAJEURES
10
8.109
20
99.998
0
VERTEX
8
CONTOURS_MAJEURES
10
10.003
20
101.893
0
VERTEX
8
CONTOURS_MAJEURES
10
11.983
20
103.020
0
VERTEX
8
CONTOURS_MAJEURES
10
14.997
20
102.968
0
VERTEX
8
CONTOURS_MAJEURES
10
16.427
20
103.575
0
VERTEX
8
CONTOURS_MAJEURES
10
18.637
20
105.005
0
VERTEX
8
CONTOURS_MAJEURES
10
20.002
20
106.556
0
VERTEX
8
CONTOURS_MAJEURES
10
21.334
20
108.669
0
VERTEX
8
CONTOURS_MAJEURES
10
21.786
20
110.002
0
VERTEX
8
CONTOURS_MAJEURES
10
22.174
20
112.174
0
VERTEX
8
CONTOURS_MAJEURES
10
21.829
20
114.998
0
VERTEX
8
CONTOURS_MAJEURES
10
24.997
20
117.496
0
VERTEX
8
CONTOURS_MAJEURES
10
26.564
20
118.429
0
VERTEX
8
CONTOURS_MAJEURES
10
30.002
20
119.448
0
VERTEX
8
CONTOURS_MAJEURES
10
30.687
20
119.994
0
VERTEX
8
CONTOURS_MAJEURES
10
32.581
20
122.416
0
VERTEX
8
CONTOURS_MAJEURES
10
34.996
20
124.232
0
VERTEX
8
CONTOURS_MAJEURES
10
35.341
20
124.657
0
VERTEX
8
CONTOURS_MAJEURES
10
35.436
20
125.002
0
VERTEX
8
CONTOURS_MAJEURES
10
36.510
20
128.487
0
VERTEX
8
CONTOURS_MAJEURES
10
37.431
20
129.998
0
VERTEX
8
CONTOURS_MAJEURES
10
39.091
20
134.086
0
VERTEX
8
CONTOURS_MAJEURES
10
39.167
20
134.995
0
VERTEX
8
CONTOURS_MAJEURES
10
39.311
20
135.685
0
VERTEX
8
CONTOURS_MAJEURES
10
40.001
20
136.736
0
VERTEX
8
CONTOURS_MAJEURES
10
41.172
20
140.002
0
VERTEX
8
CONTOURS_MAJEURES
10
44.163
20
144.166
0
VERTEX
8
CONTOURS_MAJEURES
10
44.372
20
144.999
0
VERTEX
8
CONTOURS_MAJEURES
10
44.441
20
145.554
0
VERTEX
8
CONTOURS_MAJEURES
10
44.441
20
149.995
0
VERTEX
8
CONTOURS_MAJEURES
10
44.282
20
150.710
0
VERTEX
8
CONTOURS_MAJEURES
10
44.996
20
155.003
0
VERTEX
8
CONTOURS_MAJEURES
10
42.998
20
158.000
0
VERTEX
8
CONTOURS_MAJEURES
10
40.386
20
159.999
0
VERTEX
8
CONTOURS_MAJEURES
10
42.855
20
162.140
0
VERTEX
8
CONTOURS_MAJEURES
10
42.757
20
164.995
0
VERTEX
8
CONTOURS_MAJEURES
10
43.671
20
166.324
0
VERTEX
8
CONTOURS_MAJEURES
10
43.997
20
170.003
0
VERTEX
8
CONTOURS_MAJEURES
10
44.996
20
173.462
0
VERTEX
8
CONTOURS_MAJEURES
10
45.319
20
174.999
0
VERTEX
8
CONTOURS_MAJEURES
10
47.098
20
177.897
0
VERTEX
8
CONTOURS_MAJEURES
10
47.209
20
179.996
0
VERTEX
8
CONTOURS_MAJEURES
10
47.256
20
182.257
0
VERTEX
8
CONTOURS_MAJEURES
10
47.615
20
185.003
0
VERTEX
8
CONTOURS_MAJEURES
10
47.332
20
187.335
0
VERTEX
8
CONTOURS_MAJEURES
10
47.680
20
189.999
0
VERTEX
8
CONTOURS_MAJEURES
10
47.807
20
192.190
0
VERTEX
8
CONTOURS_MAJEURES
10
48.596
20
194.996
0
VERTEX
8
CONTOURS_MAJEURES
10
50.001
20
197.191
0
VERTEX
8
CONTOURS_MAJEURES
10
51.679
20
198.321
0
VERTEX
8
CONTOURS_MAJEURES
10
53.104
20
200.003
0
VERTEX
8
CONTOURS_MAJEURES
10
54.995
20
203.126
0
VERTEX
8
CONTOURS_MAJEURES
10
55.732
20
204.265
0
VERTEX
8
CONTOURS_MAJEURES
10
55.654
20
205.000
0
VERTEX
8
CONTOURS_MAJEURES
10
55.227
20
205.231
0
VERTEX
8
CONTOURS_MAJEURES
10
54.995
20
205.462
0
VERTEX
8
CONTOURS_MAJEURES
10
50.289
20
209.996
0
SEQEND
0
POLYLINE
8
PARCELLE
66
1
70
1
0
VERTEX
8
PARCELLE
10
139.342
20
101.333
0
VERTEX
8
PARCELLE
10
127.134
20
89.028
0
VERTEX
8
PARCELLE
10
58.637
20
20.000
0
VERTEX
8
PARCELLE
10
39.140
20
41.371
0
VERTEX
8
PARCELLE
10
32.335
20
48.830
0
VERTEX
8
PARCELLE
10
25.847
20
56.026
0
VERTEX
8
PARCELLE
10
22.543
20
61.508
0
VERTEX
8
PARCELLE
10
20.000
20
65.834
0
VERTEX
8
PARCELLE
10
31.555
20
81.193
0
VERTEX
8
PARCELLE
10
32.384
20
82.305
0
VERTEX
8
PARCELLE
10
95.455
20
167.251
0
VERTEX
8
PARCELLE
10
106.334
20
181.896
0
VERTEX
8
PARCELLE
10
113.563
20
191.635
0
VERTEX
8
PARCELLE
10
113.661
20
191.375
0
VERTEX
8
PARCELLE
10
113.650
20
191.215
0
VERTEX
8
PARCELLE
10
112.423
20
178.368
0
VERTEX
8
PARCELLE
10
111.014
20
164.025
0
VERTEX
8
PARCELLE
10
110.598
20
159.783
0
VERTEX
8
PARCELLE
10
110.653
20
156.756
0
VERTEX
8
PARCELLE
10
110.726
20
153.628
0
VERTEX
8
PARCELLE
10
113.291
20
145.844
0
VERTEX
8
PARCELLE
10
124.677
20
133.742
0
VERTEX
8
PARCELLE
10
126.452
20
129.702
0
VERTEX
8
PARCELLE
10
128.062
20
126.032
0
VERTEX
8
PARCELLE
10
131.582
20
116.663
0
VERTEX
8
PARCELLE
10
132.112
20
115.459
0
VERTEX
8
PARCELLE
10
136.665
20
105.162
0
VERTEX
8
PARCELLE
10
139.342
20
101.333
0
SEQEND
0
TEXT
8
POINTS_COTES
10
0.003
20
0.003
40
1.0
1
395.6
0
TEXT
8
POINTS_COTES
10
20.002
20
9.996
40
1.0
1
394.9
0
TEXT
8
POINTS_COTES
10
40.001
20
20.000
40
1.0
1
394.2
0
TEXT
8
POINTS_COTES
10
60.001
20
30.004
40
1.0
1
393.5
0
TEXT
8
POINTS_COTES
10
80.000
20
39.997
40
1.0
1
393.5
0
TEXT
8
POINTS_COTES
10
99.999
20
50.001
40
1.0
1
392.9
0
TEXT
8
POINTS_COTES
10
119.998
20
60.004
40
1.0
1
392.0
0
TEXT
8
POINTS_COTES
10
139.998
20
69.997
40
1.0
1
380.5
0
TEXT
8
POINTS_COTES
10
0.003
20
84.998
40
1.0
1
400.2
0
TEXT
8
POINTS_COTES
10
20.002
20
95.001
40
1.0
1
399.1
0
TEXT
8
POINTS_COTES
10
40.001
20
105.005
40
1.0
1
399.0
0
TEXT
8
POINTS_COTES
10
60.001
20
114.998
40
1.0
1
397.0
0
TEXT
8
POINTS_COTES
10
80.000
20
125.002
40
1.0
1
396.2
0
TEXT
8
POINTS_COTES
10
99.999
20
134.995
40
1.0
1
395.9
0
TEXT
8
POINTS_COTES
10
119.998
20
144.999
40
1.0
1
383.2
0
TEXT
8
POINTS_COTES
10
139.998
20
155.003
40
1.0
1
395.8
0
TEXT
8
POINTS_COTES
10
0.003
20
170.003
40
1.0
1
404.1
0
TEXT
8
POINTS_COTES
10
20.002
20
179.996
40
1.0
1
402.3
0
TEXT
8
POINTS_COTES
10
40.001
20
189.999
40
1.0
1
401.1
0
TEXT
8
POINTS_COTES
10
60.001
20
200.003
40
1.0
1
399.1
0
TEXT
8
POINTS_COTES
10
80.000
20
209.996
40
1.0
1
393.4
0
ENDSEC
0
EOF
