0
SECTION
2
HEADER
0
ENDSEC
0
SECTION
2
TABLES
0
TABLE
2
LAYER
70
4
0
LAYER
2
CONTOURS_MINEURES
70
0
62
8
6
CONTINUOUS
0
LAYER
2
CONTOURS_MAJEURES
70
0
62
3
6
CONTINUOUS
0
LAYER
2
PARCELLE
70
0
62
4
6
CONTINUOUS
0
LAYER
2
POINTS_COTES
70
0
62
7
6
CONTINUOUS
0
ENDTAB
0
ENDSEC
0
SECTION
2
ENTITIES
0
POLYLINE
8
CONTOURS_MINEURES
66
1
70
0
0
VERTEX
8
CONTOURS_MINEURES
10
64.542
20
-0.004
0
VERTEX
8
CONTOURS_MINEURES
10
66.002
20
0.487
0
VERTEX
8
CONTOURS_MINEURES
10
68.328
20
0.667
0
VERTEX
8
CONTOURS_MINEURES
10
68.996
20
0.718
0
VERTEX
8
CONTOURS_MINEURES
10
69.718
20
0.718
0
VERTEX
8
CONTOURS_MINEURES
10
72.001
20
0.718
0
VERTEX
8
CONTOURS_MINEURES
10
74.276
20
0.718
0
VERTEX
8
CONTOURS_MINEURES
10
74.995
20
0.617
0
VERTEX
8
CONTOURS_MINEURES
10
75.500
20
0.500
0
VERTEX
8
CONTOURS_MINEURES
10
78.000
20
0.199
0
VERTEX
8
CONTOURS_MINEURES
10
80.792
20
0.199
0
VERTEX
8
CONTOURS_MINEURES
10
80.995
20
0.199
0
VERTEX
8
CONTOURS_MINEURES
10
81.165
20
0.166
0
VERTEX
8
CONTOURS_MINEURES
10
81.654
20
-0.004
0
SEQEND
0
POLYLINE
8
CONTOURS_MINEURES
66
1
70
0
0
VERTEX
8
CONTOURS_MINEURES
10
44.952
20
-0.004
0
VERTEX
8
CONTOURS_MINEURES
10
44.977
20
0.018
0
VERTEX
8
CONTOURS_MINEURES
10
44.999
20
0.034
0
VERTEX
8
CONTOURS_MINEURES
10
47.966
20
0.034
0
VERTEX
8
CONTOURS_MINEURES
10
48.004
20
0.034
0
VERTEX
8
CONTOURS_MINEURES
10
48.068
20
0.060
0
VERTEX
8
CONTOURS_MINEURES
10
50.998
20
1.466
0
VERTEX
8
CONTOURS_MINEURES
10
52.409
20
1.591
0
VERTEX
8
CONTOURS_MINEURES
10
54.003
20
1.714
0
VERTEX
8
CONTOURS_MINEURES
10
55.286
20
1.714
0
VERTEX
8
CONTOURS_MINEURES
10
56.997
20
1.714
0
VERTEX
8
CONTOURS_MINEURES
10
59.602
20
2.601
0
VERTEX
8
CONTOURS_MINEURES
10
60.003
20
2.735
0
VERTEX
8
CONTOURS_MINEURES
10
60.269
20
2.735
0
VERTEX
8
CONTOURS_MINEURES
10
62.997
20
2.735
0
VERTEX
8
CONTOURS_MINEURES
10
64.142
20
3.002
0
VERTEX
8
CONTOURS_MINEURES
10
65.586
20
3.417
0
VERTEX
8
CONTOURS_MINEURES
10
66.002
20
3.421
0
VERTEX
8
CONTOURS_MINEURES
10
66.383
20
3.384
0
VERTEX
8
CONTOURS_MINEURES
10
68.996
20
3.574
0
VERTEX
8
CONTOURS_MINEURES
10
71.427
20
3.574
0
VERTEX
8
CONTOURS_MINEURES
10
72.001
20
3.574
0
VERTEX
8
CONTOURS_MINEURES
10
72.485
20
3.486
0
VERTEX
8
CONTOURS_MINEURES
10
74.995
20
3.108
0
VERTEX
8
CONTOURS_MINEURES
10
75.425
20
3.002
0
VERTEX
8
CONTOURS_MINEURES
10
77.516
20
2.518
0
VERTEX
8
CONTOURS_MINEURES
10
78.000
20
2.460
0
VERTEX
8
CONTOURS_MINEURES
10
78.541
20
2.460
0
VERTEX
8
CONTOURS_MINEURES
10
80.995
20
2.460
0
VERTEX
8
CONTOURS_MINEURES
10
83.055
20
2.057
0
VERTEX
8
CONTOURS_MINEURES
10
84.000
20
1.728
0
VERTEX
8
CONTOURS_MINEURES
10
85.458
20
1.543
0
VERTEX
8
CONTOURS_MINEURES
10
87.005
20
1.444
0
VERTEX
8
CONTOURS_MINEURES
10
88.447
20
1.444
0
VERTEX
8
CONTOURS_MINEURES
10
89.999
20
1.444
0
VERTEX
8
CONTOURS_MINEURES
10
92.314
20
0.686
0
VERTEX
8
CONTOURS_MINEURES
10
93.004
20
0.576
0
VERTEX
8
CONTOURS_MINEURES
10
93.399
20
0.392
0
VERTEX
8
CONTOURS_MINEURES
10
93.825
20
-0.004
0
SEQEND
0
POLYLINE
8
CONTOURS_MINEURES
66
1
70
0
0
VERTEX
8
CONTOURS_MINEURES
10
40.615
20
-0.004
0
VERTEX
8
CONTOURS_MINEURES
10
42.005
20
1.562
0
VERTEX
8
CONTOURS_MINEURES
10
42.759
20
2.245
0
VERTEX
8
CONTOURS_MINEURES
10
43.823
20
3.002
0
VERTEX
8
CONTOURS_MINEURES
10
44.999
20
3.930
0
VERTEX
8
CONTOURS_MINEURES
10
45.930
20
3.930
0
VERTEX
8
CONTOURS_MINEURES
10
48.004
20
3.930
0
VERTEX
8
CONTOURS_MINEURES
10
49.428
20
4.573
0
VERTEX
8
CONTOURS_MINEURES
10
50.998
20
5.791
0
VERTEX
8
CONTOURS_MINEURES
10
51.666
20
5.998
0
VERTEX
8
CONTOURS_MINEURES
10
51.666
20
8.336
0
VERTEX
8
CONTOURS_MINEURES
10
51.666
20
9.005
0
VERTEX
8
CONTOURS_MINEURES
10
53.496
20
9.510
0
VERTEX
8
CONTOURS_MINEURES
10
54.003
20
9.740
0
VERTEX
8
CONTOURS_MINEURES
10
56.262
20
9.740
0
VERTEX
8
CONTOURS_MINEURES
10
56.997
20
9.740
0
VERTEX
8
CONTOURS_MINEURES
10
57.517
20
9.522
0
VERTEX
8
CONTOURS_MINEURES
10
60.003
20
9.666
0
VERTEX
8
CONTOURS_MINEURES
10
62.335
20
9.666
0
VERTEX
8
CONTOURS_MINEURES
10
62.997
20
9.666
0
VERTEX
8
CONTOURS_MINEURES
10
65.311
20
9.693
0
VERTEX
8
CONTOURS_MINEURES
10
66.002
20
9.693
0
VERTEX
8
CONTOURS_MINEURES
10
66.583
20
9.586
0
VERTEX
8
CONTOURS_MINEURES
10
68.996
20
9.355
0
VERTEX
8
CONTOURS_MINEURES
10
71.649
20
9.355
0
VERTEX
8
CONTOURS_MINEURES
10
72.001
20
9.355
0
VERTEX
8
CONTOURS_MINEURES
10
72.309
20
9.313
0
VERTEX
8
CONTOURS_MINEURES
10
73.648
20
9.005
0
VERTEX
8
CONTOURS_MINEURES
10
73.648
20
7.351
0
VERTEX
8
CONTOURS_MINEURES
10
73.648
20
5.998
0
VERTEX
8
CONTOURS_MINEURES
10
74.788
20
5.791
0
VERTEX
8
CONTOURS_MINEURES
10
74.995
20
5.759
0
VERTEX
8
CONTOURS_MINEURES
10
75.314
20
5.681
0
VERTEX
8
CONTOURS_MINEURES
10
78.000
20
5.399
0
VERTEX
8
CONTOURS_MINEURES
10
80.396
20
5.399
0
VERTEX
8
CONTOURS_MINEURES
10
80.995
20
5.399
0
VERTEX
8
CONTOURS_MINEURES
10
81.822
20
5.173
0
VERTEX
8
CONTOURS_MINEURES
10
84.000
20
4.807
0
VERTEX
8
CONTOURS_MINEURES
10
85.651
20
4.648
0
VERTEX
8
CONTOURS_MINEURES
10
87.005
20
4.536
0
VERTEX
8
CONTOURS_MINEURES
10
88.466
20
4.536
0
VERTEX
8
CONTOURS_MINEURES
10
89.999
20
4.536
0
VERTEX
8
CONTOURS_MINEURES
10
91.759
20
4.243
0
VERTEX
8
CONTOURS_MINEURES
10
93.004
20
4.116
0
VERTEX
8
CONTOURS_MINEURES
10
95.122
20
3.002
0
VERTEX
8
CONTOURS_MINEURES
10
95.720
20
2.723
0
VERTEX
8
CONTOURS_MINEURES
10
95.998
20
2.464
0
VERTEX
8
CONTOURS_MINEURES
10
96.537
20
2.464
0
VERTEX
8
CONTOURS_MINEURES
10
99.003
20
2.464
0
VERTEX
8
CONTOURS_MINEURES
10
100.321
20
1.319
0
VERTEX
8
CONTOURS_MINEURES
10
101.703
20
-0.004
0
SEQEND
0
POLYLINE
8
CONTOURS_MINEURES
66
1
70
0
0
VERTEX
8
CONTOURS_MINEURES
10
33.410
20
-0.004
0
VERTEX
8
CONTOURS_MINEURES
10
34.164
20
1.838
0
VERTEX
8
CONTOURS_MINEURES
10
35.254
20
3.002
0
VERTEX
8
CONTOURS_MINEURES
10
36.005
20
3.441
0
VERTEX
8
CONTOURS_MINEURES
10
36.443
20
3.441
0
VERTEX
8
CONTOURS_MINEURES
10
39.000
20
3.441
0
VERTEX
8
CONTOURS_MINEURES
10
40.546
20
4.456
0
VERTEX
8
CONTOURS_MINEURES
10
42.005
20
5.537
0
VERTEX
8
CONTOURS_MINEURES
10
42.575
20
5.998
0
VERTEX
8
CONTOURS_MINEURES
10
42.575
20
6.571
0
VERTEX
8
CONTOURS_MINEURES
10
42.575
20
9.005
0
VERTEX
8
CONTOURS_MINEURES
10
44.999
20
10.702
0
VERTEX
8
CONTOURS_MINEURES
10
46.301
20
10.702
0
VERTEX
8
CONTOURS_MINEURES
10
48.004
20
10.702
0
VERTEX
8
CONTOURS_MINEURES
10
49.672
20
12.000
0
VERTEX
8
CONTOURS_MINEURES
10
50.465
20
12.534
0
VERTEX
8
CONTOURS_MINEURES
10
50.998
20
12.829
0
VERTEX
8
CONTOURS_MINEURES
10
52.240
20
13.238
0
VERTEX
8
CONTOURS_MINEURES
10
54.003
20
13.691
0
VERTEX
8
CONTOURS_MINEURES
10
55.308
20
13.691
0
VERTEX
8
CONTOURS_MINEURES
10
56.997
20
13.691
0
VERTEX
8
CONTOURS_MINEURES
10
58.715
20
13.284
0
VERTEX
8
CONTOURS_MINEURES
10
60.003
20
13.124
0
VERTEX
8
CONTOURS_MINEURES
10
61.125
20
13.124
0
VERTEX
8
CONTOURS_MINEURES
10
62.997
20
13.124
0
VERTEX
8
CONTOURS_MINEURES
10
64.875
20
13.124
0
VERTEX
8
CONTOURS_MINEURES
10
66.002
20
13.099
0
VERTEX
8
CONTOURS_MINEURES
10
67.031
20
13.030
0
VERTEX
8
CONTOURS_MINEURES
10
68.996
20
12.637
0
VERTEX
8
CONTOURS_MINEURES
10
69.635
20
12.637
0
VERTEX
8
CONTOURS_MINEURES
10
72.001
20
12.637
0
VERTEX
8
CONTOURS_MINEURES
10
74.817
20
12.179
0
VERTEX
8
CONTOURS_MINEURES
10
74.995
20
12.156
0
VERTEX
8
CONTOURS_MINEURES
10
75.158
20
12.162
0
VERTEX
8
CONTOURS_MINEURES
10
77.399
20
12.000
0
VERTEX
8
CONTOURS_MINEURES
10
78.000
20
11.964
0
VERTEX
8
CONTOURS_MINEURES
10
78.037
20
11.964
0
VERTEX
8
CONTOURS_MINEURES
10
80.995
20
11.964
0
VERTEX
8
CONTOURS_MINEURES
10
84.000
20
12.000
0
VERTEX
8
CONTOURS_MINEURES
10
87.005
20
12.041
0
VERTEX
8
CONTOURS_MINEURES
10
89.958
20
12.041
0
VERTEX
8
CONTOURS_MINEURES
10
89.999
20
12.041
0
VERTEX
8
CONTOURS_MINEURES
10
90.142
20
12.000
0
VERTEX
8
CONTOURS_MINEURES
10
92.243
20
11.242
0
VERTEX
8
CONTOURS_MINEURES
10
93.004
20
11.156
0
VERTEX
8
CONTOURS_MINEURES
10
94.501
20
10.502
0
VERTEX
8
CONTOURS_MINEURES
10
95.998
20
9.873
0
VERTEX
8
CONTOURS_MINEURES
10
96.869
20
9.873
0
VERTEX
8
CONTOURS_MINEURES
10
99.003
20
9.873
0
VERTEX
8
CONTOURS_MINEURES
10
100.133
20
9.005
0
VERTEX
8
CONTOURS_MINEURES
10
100.133
20
7.870
0
VERTEX
8
CONTOURS_MINEURES
10
100.133
20
5.998
0
VERTEX
8
CONTOURS_MINEURES
10
101.998
20
4.429
0
VERTEX
8
CONTOURS_MINEURES
10
104.046
20
3.002
0
VERTEX
8
CONTOURS_MINEURES
10
104.613
20
2.613
0
VERTEX
8
CONTOURS_MINEURES
10
105.003
20
2.323
0
VERTEX
8
CONTOURS_MINEURES
10
105.679
20
2.323
0
VERTEX
8
CONTOURS_MINEURES
10
107.997
20
2.323
0
VERTEX
8
CONTOURS_MINEURES
10
109.823
20
1.822
0
VERTEX
8
CONTOURS_MINEURES
10
111.002
20
0.931
0
VERTEX
8
CONTOURS_MINEURES
10
113.382
20
0.612
0
VERTEX
8
CONTOURS_MINEURES
10
113.996
20
0.518
0
VERTEX
8
CONTOURS_MINEURES
10
114.519
20
0.518
0
VERTEX
8
CONTOURS_MINEURES
10
117.001
20
0.518
0
VERTEX
8
CONTOURS_MINEURES
10
117.511
20
0.507
0
VERTEX
8
CONTOURS_MINEURES
10
119.995
20
0.453
0
VERTEX
8
CONTOURS_MINEURES
10
122.543
20
0.453
0
VERTEX
8
CONTOURS_MINEURES
10
123.001
20
0.453
0
VERTEX
8
CONTOURS_MINEURES
10
123.420
20
0.417
0
VERTEX
8
CONTOURS_MINEURES
10
125.097
20
-0.004
0
SEQEND
0
POLYLINE
8
CONTOURS_MINEURES
66
1
70
0
0
VERTEX
8
CONTOURS_MINEURES
10
134.538
20
-0.004
0
VERTEX
8
CONTOURS_MINEURES
10
134.849
20
0.146
0
VERTEX
8
CONTOURS_MINEURES
10
134.999
20
0.218
0
VERTEX
8
CONTOURS_MINEURES
10
135.667
20
0.664
0
VERTEX
8
CONTOURS_MINEURES
10
138.004
20
2.087
0
SEQEND
0
POLYLINE
8
CONTOURS_MINEURES
66
1
70
0
0
VERTEX
8
CONTOURS_MINEURES
10
23.996
20
-0.004
0
VERTEX
8
CONTOURS_MINEURES
10
25.498
20
3.002
0
VERTEX
8
CONTOURS_MINEURES
10
25.917
20
4.083
0
VERTEX
8
CONTOURS_MINEURES
10
26.854
20
5.998
0
VERTEX
8
CONTOURS_MINEURES
10
26.854
20
8.858
0
VERTEX
8
CONTOURS_MINEURES
10
26.854
20
9.005
0
VERTEX
8
CONTOURS_MINEURES
10
26.907
20
9.098
0
VERTEX
8
CONTOURS_MINEURES
10
27.001
20
9.181
0
VERTEX
8
CONTOURS_MINEURES
10
27.177
20
9.181
0
VERTEX
8
CONTOURS_MINEURES
10
29.995
20
9.181
0
VERTEX
8
CONTOURS_MINEURES
10
30.196
20
9.204
0
VERTEX
8
CONTOURS_MINEURES
10
33.000
20
10.050
0
VERTEX
8
CONTOURS_MINEURES
10
34.451
20
10.554
0
VERTEX
8
CONTOURS_MINEURES
10
36.005
20
10.346
0
VERTEX
8
CONTOURS_MINEURES
10
37.659
20
10.346
0
VERTEX
8
CONTOURS_MINEURES
10
39.000
20
10.346
0
VERTEX
8
CONTOURS_MINEURES
10
41.527
20
12.000
0
VERTEX
8
CONTOURS_MINEURES
10
42.005
20
12.313
0
VERTEX
8
CONTOURS_MINEURES
10
42.424
20
12.420
0
VERTEX
8
CONTOURS_MINEURES
10
44.999
20
13.757
0
VERTEX
8
CONTOURS_MINEURES
10
46.241
20
13.757
0
VERTEX
8
CONTOURS_MINEURES
10
48.004
20
13.757
0
VERTEX
8
CONTOURS_MINEURES
10
48.744
20
14.256
0
VERTEX
8
CONTOURS_MINEURES
10
50.081
20
14.996
0
VERTEX
8
CONTOURS_MINEURES
10
50.081
20
17.081
0
VERTEX
8
CONTOURS_MINEURES
10
50.081
20
18.003
0
VERTEX
8
CONTOURS_MINEURES
10
50.380
20
18.621
0
VERTEX
8
CONTOURS_MINEURES
10
50.998
20
18.816
0
VERTEX
8
CONTOURS_MINEURES
10
52.163
20
19.164
0
VERTEX
8
CONTOURS_MINEURES
10
54.003
20
19.953
0
VERTEX
8
CONTOURS_MINEURES
10
55.953
20
19.953
0
VERTEX
8
CONTOURS_MINEURES
10
56.997
20
19.953
0
VERTEX
8
CONTOURS_MINEURES
10
58.199
20
19.800
0
VERTEX
8
CONTOURS_MINEURES
10
60.003
20
20.249
0
VERTEX
8
CONTOURS_MINEURES
10
62.248
20
20.249
0
VERTEX
8
CONTOURS_MINEURES
10
62.997
20
20.249
0
VERTEX
8
CONTOURS_MINEURES
10
63.774
20
20.223
0
VERTEX
8
CONTOURS_MINEURES
10
66.002
20
20.015
0
VERTEX
8
CONTOURS_MINEURES
10
67.766
20
19.767
0
VERTEX
8
CONTOURS_MINEURES
10
68.996
20
19.657
0
VERTEX
8
CONTOURS_MINEURES
10
70.342
20
19.657
0
VERTEX
8
CONTOURS_MINEURES
10
72.001
20
19.657
0
VERTEX
8
CONTOURS_MINEURES
10
73.706
20
19.708
0
VERTEX
8
CONTOURS_MINEURES
10
74.995
20
19.473
0
VERTEX
8
CONTOURS_MINEURES
10
76.446
20
19.552
0
VERTEX
8
CONTOURS_MINEURES
10
78.000
20
19.667
0
VERTEX
8
CONTOURS_MINEURES
10
79.664
20
19.667
0
VERTEX
8
CONTOURS_MINEURES
10
80.995
20
19.667
0
VERTEX
8
CONTOURS_MINEURES
10
82.437
20
19.560
0
VERTEX
8
CONTOURS_MINEURES
10
84.000
20
19.393
0
VERTEX
8
CONTOURS_MINEURES
10
85.554
20
19.449
0
VERTEX
8
CONTOURS_MINEURES
10
87.005
20
19.293
0
VERTEX
8
CONTOURS_MINEURES
10
88.295
20
19.293
0
VERTEX
8
CONTOURS_MINEURES
10
89.999
20
19.293
0
VERTEX
8
CONTOURS_MINEURES
10
91.201
20
19.201
0
VERTEX
8
CONTOURS_MINEURES
10
93.004
20
19.092
0
VERTEX
8
CONTOURS_MINEURES
10
95.929
20
18.072
0
VERTEX
8
CONTOURS_MINEURES
10
95.998
20
18.071
0
VERTEX
8
CONTOURS_MINEURES
10
96.067
20
18.071
0
VERTEX
8
CONTOURS_MINEURES
10
99.003
20
18.071
0
VERTEX
8
CONTOURS_MINEURES
10
99.110
20
18.003
0
VERTEX
8
CONTOURS_MINEURES
10
99.110
20
15.103
0
VERTEX
8
CONTOURS_MINEURES
10
99.110
20
14.996
0
VERTEX
8
CONTOURS_MINEURES
10
100.961
20
13.959
0
VERTEX
8
CONTOURS_MINEURES
10
101.998
20
12.922
0
VERTEX
8
CONTOURS_MINEURES
10
102.782
20
12.782
0
VERTEX
8
CONTOURS_MINEURES
10
105.003
20
12.167
0
VERTEX
8
CONTOURS_MINEURES
10
107.831
20
12.167
0
VERTEX
8
CONTOURS_MINEURES
10
107.997
20
12.167
0
VERTEX
8
CONTOURS_MINEURES
10
108.999
20
12.000
0
VERTEX
8
CONTOURS_MINEURES
10
110.735
20
11.734
0
VERTEX
8
CONTOURS_MINEURES
10
111.002
20
11.658
0
VERTEX
8
CONTOURS_MINEURES
10
111.463
20
11.539
0
VERTEX
8
CONTOURS_MINEURES
10
113.996
20
11.445
0
VERTEX
8
CONTOURS_MINEURES
10
116.445
20
11.445
0
VERTEX
8
CONTOURS_MINEURES
10
117.001
20
11.445
0
VERTEX
8
CONTOURS_MINEURES
10
119.441
20
11.445
0
VERTEX
8
CONTOURS_MINEURES
10
119.995
20
11.584
0
VERTEX
8
CONTOURS_MINEURES
10
120.413
20
11.584
0
VERTEX
8
CONTOURS_MINEURES
10
123.001
20
11.584
0
VERTEX
8
CONTOURS_MINEURES
10
123.333
20
11.667
0
VERTEX
8
CONTOURS_MINEURES
10
123.624
20
12.000
0
VERTEX
8
CONTOURS_MINEURES
10
125.995
20
13.836
0
VERTEX
8
CONTOURS_MINEURES
10
126.650
20
14.342
0
VERTEX
8
CONTOURS_MINEURES
10
127.634
20
14.996
0
VERTEX
8
CONTOURS_MINEURES
10
127.634
20
16.636
0
VERTEX
8
CONTOURS_MINEURES
10
127.634
20
18.003
0
VERTEX
8
CONTOURS_MINEURES
10
128.507
20
18.494
0
VERTEX
8
CONTOURS_MINEURES
10
129.000
20
18.654
0
VERTEX
8
CONTOURS_MINEURES
10
131.352
20
18.654
0
VERTEX
8
CONTOURS_MINEURES
10
132.005
20
18.654
0
VERTEX
8
CONTOURS_MINEURES
10
133.074
20
19.072
0
VERTEX
8
CONTOURS_MINEURES
10
134.999
20
19.714
0
VERTEX
8
CONTOURS_MINEURES
10
135.965
20
20.035
0
VERTEX
8
CONTOURS_MINEURES
10
137.163
20
20.998
0
VERTEX
8
CONTOURS_MINEURES
10
137.163
20
23.163
0
VERTEX
8
CONTOURS_MINEURES
10
137.163
20
24.005
0
VERTEX
8
CONTOURS_MINEURES
10
137.566
20
24.442
0
VERTEX
8
CONTOURS_MINEURES
10
138.004
20
24.754
0
SEQEND
0
POLYLINE
8
CONTOURS_MINEURES
66
1
70
0
0
VERTEX
8
CONTOURS_MINEURES
10
-0.001
20
24.754
0
VERTEX
8
CONTOURS_MINEURES
10
2.102
20
24.005
0
VERTEX
8
CONTOURS_MINEURES
10
2.102
20
21.900
0
VERTEX
8
CONTOURS_MINEURES
10
2.102
20
20.998
0
VERTEX
8
CONTOURS_MINEURES
10
2.767
20
20.762
0
VERTEX
8
CONTOURS_MINEURES
10
3.004
20
20.708
0
VERTEX
8
CONTOURS_MINEURES
10
3.294
20
20.708
0
VERTEX
8
CONTOURS_MINEURES
10
5.998
20
20.708
0
VERTEX
8
CONTOURS_MINEURES
10
6.599
20
20.399
0
VERTEX
8
CONTOURS_MINEURES
10
9.003
20
19.286
0
VERTEX
8
CONTOURS_MINEURES
10
10.286
20
19.286
0
VERTEX
8
CONTOURS_MINEURES
10
11.997
20
19.286
0
VERTEX
8
CONTOURS_MINEURES
10
14.251
20
20.249
0
VERTEX
8
CONTOURS_MINEURES
10
15.002
20
20.000
0
VERTEX
8
CONTOURS_MINEURES
10
17.398
20
20.399
0
VERTEX
8
CONTOURS_MINEURES
10
17.997
20
20.249
0
VERTEX
8
CONTOURS_MINEURES
10
20.250
20
20.249
0
VERTEX
8
CONTOURS_MINEURES
10
21.002
20
20.249
0
VERTEX
8
CONTOURS_MINEURES
10
21.317
20
20.683
0
VERTEX
8
CONTOURS_MINEURES
10
22.998
20
20.998
0
VERTEX
8
CONTOURS_MINEURES
10
22.998
20
23.003
0
VERTEX
8
CONTOURS_MINEURES
10
22.998
20
24.005
0
VERTEX
8
CONTOURS_MINEURES
10
23.796
20
24.205
0
VERTEX
8
CONTOURS_MINEURES
10
23.996
20
24.235
0
VERTEX
8
CONTOURS_MINEURES
10
24.425
20
24.433
0
VERTEX
8
CONTOURS_MINEURES
10
27.001
20
25.717
0
VERTEX
8
CONTOURS_MINEURES
10
28.712
20
25.717
0
VERTEX
8
CONTOURS_MINEURES
10
29.995
20
25.717
0
VERTEX
8
CONTOURS_MINEURES
10
31.056
20
25.943
0
VERTEX
8
CONTOURS_MINEURES
10
31.056
20
27.000
0
VERTEX
8
CONTOURS_MINEURES
10
31.798
20
28.798
0
VERTEX
8
CONTOURS_MINEURES
10
31.798
20
29.996
0
VERTEX
8
CONTOURS_MINEURES
10
31.798
20
31.199
0
VERTEX
8
CONTOURS_MINEURES
10
31.798
20
33.003
0
VERTEX
8
CONTOURS_MINEURES
10
33.000
20
33.502
0
VERTEX
8
CONTOURS_MINEURES
10
33.388
20
33.389
0
VERTEX
8
CONTOURS_MINEURES
10
36.005
20
33.110
0
VERTEX
8
CONTOURS_MINEURES
10
38.893
20
33.110
0
VERTEX
8
CONTOURS_MINEURES
10
39.000
20
33.110
0
VERTEX
8
CONTOURS_MINEURES
10
40.502
20
33.003
0
VERTEX
8
CONTOURS_MINEURES
10
40.502
20
31.499
0
VERTEX
8
CONTOURS_MINEURES
10
40.502
20
29.996
0
VERTEX
8
CONTOURS_MINEURES
10
42.005
20
29.663
0
VERTEX
8
CONTOURS_MINEURES
10
44.666
20
29.663
0
VERTEX
8
CONTOURS_MINEURES
10
44.999
20
29.782
0
VERTEX
8
CONTOURS_MINEURES
10
45.214
20
29.782
0
VERTEX
8
CONTOURS_MINEURES
10
48.004
20
29.782
0
VERTEX
8
CONTOURS_MINEURES
10
50.437
20
29.434
0
VERTEX
8
CONTOURS_MINEURES
10
50.998
20
29.706
0
VERTEX
8
CONTOURS_MINEURES
10
53.473
20
29.467
0
VERTEX
8
CONTOURS_MINEURES
10
54.003
20
29.588
0
VERTEX
8
CONTOURS_MINEURES
10
54.412
20
29.588
0
VERTEX
8
CONTOURS_MINEURES
10
56.997
20
29.588
0
VERTEX
8
CONTOURS_MINEURES
10
59.925
20
29.919
0
VERTEX
8
CONTOURS_MINEURES
10
60.003
20
29.925
0
VERTEX
8
CONTOURS_MINEURES
10
60.074
20
29.925
0
VERTEX
8
CONTOURS_MINEURES
10
62.997
20
29.925
0
VERTEX
8
CONTOURS_MINEURES
10
63.598
20
29.996
0
VERTEX
8
CONTOURS_MINEURES
10
63.598
20
30.597
0
VERTEX
8
CONTOURS_MINEURES
10
63.598
20
33.003
0
VERTEX
8
CONTOURS_MINEURES
10
65.766
20
33.238
0
VERTEX
8
CONTOURS_MINEURES
10
66.002
20
33.302
0
VERTEX
8
CONTOURS_MINEURES
10
66.257
20
33.258
0
VERTEX
8
CONTOURS_MINEURES
10
67.000
20
33.003
0
VERTEX
8
CONTOURS_MINEURES
10
67.000
20
32.001
0
VERTEX
8
CONTOURS_MINEURES
10
67.000
20
29.996
0
VERTEX
8
CONTOURS_MINEURES
10
68.996
20
29.197
0
VERTEX
8
CONTOURS_MINEURES
10
71.200
20
29.197
0
VERTEX
8
CONTOURS_MINEURES
10
72.001
20
29.197
0
VERTEX
8
CONTOURS_MINEURES
10
72.600
20
29.397
0
VERTEX
8
CONTOURS_MINEURES
10
74.995
20
29.397
0
VERTEX
8
CONTOURS_MINEURES
10
77.285
20
29.283
0
VERTEX
8
CONTOURS_MINEURES
10
78.000
20
29.315
0
VERTEX
8
CONTOURS_MINEURES
10
80.314
20
29.315
0
VERTEX
8
CONTOURS_MINEURES
10
80.995
20
29.315
0
VERTEX
8
CONTOURS_MINEURES
10
81.964
20
29.030
0
VERTEX
8
CONTOURS_MINEURES
10
84.000
20
28.339
0
VERTEX
8
CONTOURS_MINEURES
10
86.232
20
27.771
0
VERTEX
8
CONTOURS_MINEURES
10
87.005
20
27.843
0
VERTEX
8
CONTOURS_MINEURES
10
89.157
20
27.843
0
VERTEX
8
CONTOURS_MINEURES
10
89.999
20
27.843
0
VERTEX
8
CONTOURS_MINEURES
10
91.228
20
28.226
0
VERTEX
8
CONTOURS_MINEURES
10
93.004
20
28.698
0
VERTEX
8
CONTOURS_MINEURES
10
94.446
20
28.554
0
VERTEX
8
CONTOURS_MINEURES
10
95.998
20
28.023
0
VERTEX
8
CONTOURS_MINEURES
10
97.024
20
28.023
0
VERTEX
8
CONTOURS_MINEURES
10
99.003
20
28.023
0
VERTEX
8
CONTOURS_MINEURES
10
101.611
20
27.387
0
VERTEX
8
CONTOURS_MINEURES
10
101.998
20
27.353
0
VERTEX
8
CONTOURS_MINEURES
10
102.665
20
27.666
0
VERTEX
8
CONTOURS_MINEURES
10
105.003
20
28.090
0
VERTEX
8
CONTOURS_MINEURES
10
106.908
20
28.090
0
VERTEX
8
CONTOURS_MINEURES
10
107.997
20
28.090
0
VERTEX
8
CONTOURS_MINEURES
10
109.448
20
29.996
0
VERTEX
8
CONTOURS_MINEURES
10
109.448
20
31.551
0
VERTEX
8
CONTOURS_MINEURES
10
109.448
20
33.003
0
VERTEX
8
CONTOURS_MINEURES
10
111.002
20
35.998
0
VERTEX
8
CONTOURS_MINEURES
10
113.506
20
36.490
0
VERTEX
8
CONTOURS_MINEURES
10
113.996
20
36.613
0
VERTEX
8
CONTOURS_MINEURES
10
114.611
20
36.613
0
VERTEX
8
CONTOURS_MINEURES
10
117.001
20
36.613
0
VERTEX
8
CONTOURS_MINEURES
10
118.926
20
35.998
0
VERTEX
8
CONTOURS_MINEURES
10
119.555
20
35.558
0
VERTEX
8
CONTOURS_MINEURES
10
119.995
20
35.444
0
VERTEX
8
CONTOURS_MINEURES
10
122.444
20
35.444
0
VERTEX
8
CONTOURS_MINEURES
10
123.001
20
35.444
0
VERTEX
8
CONTOURS_MINEURES
10
124.532
20
34.535
0
VERTEX
8
CONTOURS_MINEURES
10
125.995
20
34.201
0
VERTEX
8
CONTOURS_MINEURES
10
127.748
20
34.251
0
VERTEX
8
CONTOURS_MINEURES
10
129.000
20
34.608
0
VERTEX
8
CONTOURS_MINEURES
10
130.610
20
34.608
0
VERTEX
8
CONTOURS_MINEURES
10
132.005
20
34.608
0
VERTEX
8
CONTOURS_MINEURES
10
132.932
20
35.071
0
VERTEX
8
CONTOURS_MINEURES
10
134.999
20
35.998
0
VERTEX
8
CONTOURS_MINEURES
10
138.004
20
38.548
0
SEQEND
0
POLYLINE
8
CONTOURS_MINEURES
66
1
70
0
0
VERTEX
8
CONTOURS_MINEURES
10
-0.001
20
61.090
0
VERTEX
8
CONTOURS_MINEURES
10
2.670
20
59.997
0
VERTEX
8
CONTOURS_MINEURES
10
3.004
20
59.861
0
VERTEX
8
CONTOURS_MINEURES
10
5.862
20
59.861
0
VERTEX
8
CONTOURS_MINEURES
10
5.998
20
59.861
0
VERTEX
8
CONTOURS_MINEURES
10
6.299
20
59.697
0
VERTEX
8
CONTOURS_MINEURES
10
9.003
20
58.499
0
VERTEX
8
CONTOURS_MINEURES
10
10.500
20
58.499
0
VERTEX
8
CONTOURS_MINEURES
10
11.997
20
58.499
0
VERTEX
8
CONTOURS_MINEURES
10
13.588
20
57.001
0
VERTEX
8
CONTOURS_MINEURES
10
13.588
20
55.415
0
VERTEX
8
CONTOURS_MINEURES
10
13.588
20
54.005
0
VERTEX
8
CONTOURS_MINEURES
10
14.201
20
53.204
0
VERTEX
8
CONTOURS_MINEURES
10
15.002
20
52.912
0
VERTEX
8
CONTOURS_MINEURES
10
16.679
20
50.999
0
VERTEX
8
CONTOURS_MINEURES
10
17.997
20
49.566
0
VERTEX
8
CONTOURS_MINEURES
10
19.564
20
49.566
0
VERTEX
8
CONTOURS_MINEURES
10
21.002
20
49.566
0
VERTEX
8
CONTOURS_MINEURES
10
23.397
20
48.003
0
VERTEX
8
CONTOURS_MINEURES
10
23.397
20
47.402
0
VERTEX
8
CONTOURS_MINEURES
10
23.397
20
44.996
0
VERTEX
8
CONTOURS_MINEURES
10
23.760
20
44.760
0
VERTEX
8
CONTOURS_MINEURES
10
23.996
20
44.724
0
VERTEX
8
CONTOURS_MINEURES
10
24.640
20
44.996
0
VERTEX
8
CONTOURS_MINEURES
10
24.640
20
47.359
0
VERTEX
8
CONTOURS_MINEURES
10
24.640
20
48.003
0
VERTEX
8
CONTOURS_MINEURES
10
27.001
20
48.788
0
VERTEX
8
CONTOURS_MINEURES
10
29.211
20
48.788
0
VERTEX
8
CONTOURS_MINEURES
10
29.995
20
48.788
0
VERTEX
8
CONTOURS_MINEURES
10
30.746
20
48.752
0
VERTEX
8
CONTOURS_MINEURES
10
33.000
20
48.752
0
VERTEX
8
CONTOURS_MINEURES
10
35.755
20
48.003
0
VERTEX
8
CONTOURS_MINEURES
10
35.755
20
45.247
0
VERTEX
8
CONTOURS_MINEURES
10
35.755
20
44.996
0
VERTEX
8
CONTOURS_MINEURES
10
36.005
20
44.925
0
VERTEX
8
CONTOURS_MINEURES
10
38.928
20
44.925
0
VERTEX
8
CONTOURS_MINEURES
10
39.000
20
44.925
0
VERTEX
8
CONTOURS_MINEURES
10
41.415
20
44.409
0
VERTEX
8
CONTOURS_MINEURES
10
42.005
20
43.998
0
VERTEX
8
CONTOURS_MINEURES
10
43.819
20
43.816
0
VERTEX
8
CONTOURS_MINEURES
10
44.999
20
43.554
0
VERTEX
8
CONTOURS_MINEURES
10
46.557
20
43.554
0
VERTEX
8
CONTOURS_MINEURES
10
48.004
20
43.554
0
VERTEX
8
CONTOURS_MINEURES
10
49.116
20
43.884
0
VERTEX
8
CONTOURS_MINEURES
10
50.998
20
44.637
0
VERTEX
8
CONTOURS_MINEURES
10
54.003
20
44.996
0
VERTEX
8
CONTOURS_MINEURES
10
56.997
20
44.996
0
VERTEX
8
CONTOURS_MINEURES
10
59.729
20
44.724
0
VERTEX
8
CONTOURS_MINEURES
10
60.003
20
44.757
0
VERTEX
8
CONTOURS_MINEURES
10
60.242
20
44.757
0
VERTEX
8
CONTOURS_MINEURES
10
62.997
20
44.757
0
VERTEX
8
CONTOURS_MINEURES
10
64.199
20
44.996
0
VERTEX
8
CONTOURS_MINEURES
10
64.199
20
46.199
0
VERTEX
8
CONTOURS_MINEURES
10
64.199
20
48.003
0
VERTEX
8
CONTOURS_MINEURES
10
65.668
20
48.336
0
VERTEX
8
CONTOURS_MINEURES
10
66.002
20
48.240
0
VERTEX
8
CONTOURS_MINEURES
10
68.996
20
48.003
0
VERTEX
8
CONTOURS_MINEURES
10
68.996
20
44.996
0
VERTEX
8
CONTOURS_MINEURES
10
72.001
20
44.996
0
VERTEX
8
CONTOURS_MINEURES
10
74.710
20
44.711
0
VERTEX
8
CONTOURS_MINEURES
10
74.995
20
44.583
0
VERTEX
8
CONTOURS_MINEURES
10
75.568
20
44.426
0
VERTEX
8
CONTOURS_MINEURES
10
78.000
20
43.377
0
VERTEX
8
CONTOURS_MINEURES
10
79.376
20
43.377
0
VERTEX
8
CONTOURS_MINEURES
10
80.995
20
43.377
0
VERTEX
8
CONTOURS_MINEURES
10
82.305
20
43.307
0
VERTEX
8
CONTOURS_MINEURES
10
84.000
20
43.166
0
VERTEX
8
CONTOURS_MINEURES
10
85.202
20
43.798
0
VERTEX
8
CONTOURS_MINEURES
10
87.005
20
44.536
0
VERTEX
8
CONTOURS_MINEURES
10
87.465
20
44.536
0
VERTEX
8
CONTOURS_MINEURES
10
89.999
20
44.536
0
VERTEX
8
CONTOURS_MINEURES
10
92.253
20
44.996
0
VERTEX
8
CONTOURS_MINEURES
10
92.253
20
47.251
0
VERTEX
8
CONTOURS_MINEURES
10
92.253
20
48.003
0
VERTEX
8
CONTOURS_MINEURES
10
93.004
20
48.165
0
VERTEX
8
CONTOURS_MINEURES
10
93.109
20
48.108
0
VERTEX
8
CONTOURS_MINEURES
10
93.378
20
48.003
0
VERTEX
8
CONTOURS_MINEURES
10
93.378
20
47.627
0
VERTEX
8
CONTOURS_MINEURES
10
93.378
20
44.996
0
VERTEX
8
CONTOURS_MINEURES
10
95.087
20
44.085
0
VERTEX
8
CONTOURS_MINEURES
10
95.998
20
44.064
0
VERTEX
8
CONTOURS_MINEURES
10
96.933
20
44.064
0
VERTEX
8
CONTOURS_MINEURES
10
99.003
20
44.064
0
VERTEX
8
CONTOURS_MINEURES
10
100.788
20
43.787
0
VERTEX
8
CONTOURS_MINEURES
10
101.998
20
43.853
0
VERTEX
8
CONTOURS_MINEURES
10
102.954
20
44.043
0
VERTEX
8
CONTOURS_MINEURES
10
105.003
20
44.211
0
VERTEX
8
CONTOURS_MINEURES
10
105.788
20
44.211
0
VERTEX
8
CONTOURS_MINEURES
10
107.997
20
44.211
0
VERTEX
8
CONTOURS_MINEURES
10
110.214
20
44.211
0
VERTEX
8
CONTOURS_MINEURES
10
111.002
20
44.312
0
VERTEX
8
CONTOURS_MINEURES
10
111.593
20
44.405
0
VERTEX
8
CONTOURS_MINEURES
10
112.654
20
44.996
0
VERTEX
8
CONTOURS_MINEURES
10
112.654
20
46.655
0
VERTEX
8
CONTOURS_MINEURES
10
112.654
20
48.003
0
VERTEX
8
CONTOURS_MINEURES
10
113.131
20
48.869
0
VERTEX
8
CONTOURS_MINEURES
10
113.996
20
49.346
0
VERTEX
8
CONTOURS_MINEURES
10
115.343
20
49.346
0
VERTEX
8
CONTOURS_MINEURES
10
117.001
20
49.346
0
VERTEX
8
CONTOURS_MINEURES
10
118.053
20
49.056
0
VERTEX
8
CONTOURS_MINEURES
10
119.995
20
48.820
0
VERTEX
8
CONTOURS_MINEURES
10
122.181
20
48.820
0
VERTEX
8
CONTOURS_MINEURES
10
123.001
20
48.820
0
VERTEX
8
CONTOURS_MINEURES
10
124.284
20
49.287
0
VERTEX
8
CONTOURS_MINEURES
10
125.995
20
49.800
0
VERTEX
8
CONTOURS_MINEURES
10
127.798
20
50.999
0
VERTEX
8
CONTOURS_MINEURES
10
128.293
20
51.706
0
VERTEX
8
CONTOURS_MINEURES
10
129.000
20
52.144
0
VERTEX
8
CONTOURS_MINEURES
10
130.145
20
52.144
0
VERTEX
8
CONTOURS_MINEURES
10
132.005
20
52.144
0
VERTEX
8
CONTOURS_MINEURES
10
133.447
20
52.558
0
VERTEX
8
CONTOURS_MINEURES
10
134.999
20
53.103
0
VERTEX
8
CONTOURS_MINEURES
10
137.629
20
53.630
0
VERTEX
8
CONTOURS_MINEURES
10
138.004
20
53.774
0
SEQEND
0
POLYLINE
8
CONTOURS_MINEURES
66
1
70
0
0
VERTEX
8
CONTOURS_MINEURES
10
24.236
20
65.999
0
VERTEX
8
CONTOURS_MINEURES
10
24.236
20
65.759
0
VERTEX
8
CONTOURS_MINEURES
10
24.236
20
63.003
0
VERTEX
8
CONTOURS_MINEURES
10
25.530
20
61.532
0
VERTEX
8
CONTOURS_MINEURES
10
27.001
20
60.344
0
VERTEX
8
CONTOURS_MINEURES
10
27.346
20
60.344
0
VERTEX
8
CONTOURS_MINEURES
10
29.995
20
60.344
0
VERTEX
8
CONTOURS_MINEURES
10
30.205
20
60.206
0
VERTEX
8
CONTOURS_MINEURES
10
30.526
20
59.997
0
VERTEX
8
CONTOURS_MINEURES
10
33.000
20
58.921
0
VERTEX
8
CONTOURS_MINEURES
10
34.169
20
58.832
0
VERTEX
8
CONTOURS_MINEURES
10
36.005
20
59.536
0
VERTEX
8
CONTOURS_MINEURES
10
38.539
20
59.536
0
VERTEX
8
CONTOURS_MINEURES
10
39.000
20
59.536
0
VERTEX
8
CONTOURS_MINEURES
10
39.364
20
59.634
0
VERTEX
8
CONTOURS_MINEURES
10
42.005
20
59.483
0
VERTEX
8
CONTOURS_MINEURES
10
43.502
20
59.997
0
VERTEX
8
CONTOURS_MINEURES
10
44.513
20
60.484
0
VERTEX
8
CONTOURS_MINEURES
10
44.999
20
60.448
0
VERTEX
8
CONTOURS_MINEURES
10
45.450
20
60.448
0
VERTEX
8
CONTOURS_MINEURES
10
48.004
20
60.448
0
VERTEX
8
CONTOURS_MINEURES
10
48.503
20
60.498
0
VERTEX
8
CONTOURS_MINEURES
10
50.998
20
60.906
0
VERTEX
8
CONTOURS_MINEURES
10
52.182
20
61.181
0
VERTEX
8
CONTOURS_MINEURES
10
54.003
20
61.696
0
VERTEX
8
CONTOURS_MINEURES
10
55.305
20
61.696
0
VERTEX
8
CONTOURS_MINEURES
10
56.997
20
61.696
0
VERTEX
8
CONTOURS_MINEURES
10
58.951
20
61.951
0
VERTEX
8
CONTOURS_MINEURES
10
60.003
20
61.688
0
VERTEX
8
CONTOURS_MINEURES
10
61.312
20
61.688
0
VERTEX
8
CONTOURS_MINEURES
10
62.997
20
61.688
0
VERTEX
8
CONTOURS_MINEURES
10
65.077
20
62.078
0
VERTEX
8
CONTOURS_MINEURES
10
66.002
20
61.858
0
VERTEX
8
CONTOURS_MINEURES
10
68.663
20
60.331
0
VERTEX
8
CONTOURS_MINEURES
10
68.996
20
60.147
0
VERTEX
8
CONTOURS_MINEURES
10
71.851
20
60.147
0
VERTEX
8
CONTOURS_MINEURES
10
72.001
20
60.147
0
VERTEX
8
CONTOURS_MINEURES
10
72.104
20
60.100
0
VERTEX
8
CONTOURS_MINEURES
10
72.500
20
59.997
0
VERTEX
8
CONTOURS_MINEURES
10
74.995
20
59.462
0
VERTEX
8
CONTOURS_MINEURES
10
77.225
20
59.224
0
VERTEX
8
CONTOURS_MINEURES
10
78.000
20
59.349
0
VERTEX
8
CONTOURS_MINEURES
10
78.648
20
59.349
0
VERTEX
8
CONTOURS_MINEURES
10
80.995
20
59.349
0
VERTEX
8
CONTOURS_MINEURES
10
83.399
20
59.997
0
VERTEX
8
CONTOURS_MINEURES
10
83.769
20
60.228
0
VERTEX
8
CONTOURS_MINEURES
10
84.000
20
60.373
0
VERTEX
8
CONTOURS_MINEURES
10
84.400
20
60.398
0
VERTEX
8
CONTOURS_MINEURES
10
87.005
20
61.743
0
VERTEX
8
CONTOURS_MINEURES
10
88.260
20
61.743
0
VERTEX
8
CONTOURS_MINEURES
10
89.999
20
61.743
0
VERTEX
8
CONTOURS_MINEURES
10
91.502
20
61.500
0
VERTEX
8
CONTOURS_MINEURES
10
93.004
20
61.579
0
VERTEX
8
CONTOURS_MINEURES
10
94.422
20
61.579
0
VERTEX
8
CONTOURS_MINEURES
10
95.998
20
61.500
0
VERTEX
8
CONTOURS_MINEURES
10
97.501
20
61.500
0
VERTEX
8
CONTOURS_MINEURES
10
99.003
20
61.500
0
VERTEX
8
CONTOURS_MINEURES
10
100.539
20
61.539
0
VERTEX
8
CONTOURS_MINEURES
10
101.998
20
61.734
0
VERTEX
8
CONTOURS_MINEURES
10
103.951
20
61.951
0
VERTEX
8
CONTOURS_MINEURES
10
105.003
20
62.144
0
VERTEX
8
CONTOURS_MINEURES
10
105.858
20
62.144
0
VERTEX
8
CONTOURS_MINEURES
10
107.997
20
62.144
0
VERTEX
8
CONTOURS_MINEURES
10
108.855
20
62.144
0
VERTEX
8
CONTOURS_MINEURES
10
111.002
20
62.563
0
VERTEX
8
CONTOURS_MINEURES
10
113.141
20
62.144
0
VERTEX
8
CONTOURS_MINEURES
10
113.996
20
62.001
0
VERTEX
8
CONTOURS_MINEURES
10
116.000
20
62.001
0
VERTEX
8
CONTOURS_MINEURES
10
117.001
20
62.001
0
VERTEX
8
CONTOURS_MINEURES
10
117.807
20
62.194
0
VERTEX
8
CONTOURS_MINEURES
10
119.995
20
62.237
0
VERTEX
8
CONTOURS_MINEURES
10
122.235
20
62.237
0
VERTEX
8
CONTOURS_MINEURES
10
123.001
20
62.237
0
VERTEX
8
CONTOURS_MINEURES
10
125.596
20
63.003
0
VERTEX
8
CONTOURS_MINEURES
10
125.596
20
65.600
0
VERTEX
8
CONTOURS_MINEURES
10
125.596
20
65.999
0
SEQEND
0
POLYLINE
8
CONTOURS_MAJEURES
66
1
70
0
0
VERTEX
8
CONTOURS_MAJEURES
10
44.952
20
-0.004
0
VERTEX
8
CONTOURS_MAJEURES
10
44.977
20
0.018
0
VERTEX
8
CONTOURS_MAJEURES
10
44.999
20
0.034
0
VERTEX
8
CONTOURS_MAJEURES
10
47.966
20
0.034
0
VERTEX
8
CONTOURS_MAJEURES
10
48.004
20
0.034
0
VERTEX
8
CONTOURS_MAJEURES
10
48.068
20
0.060
0
VERTEX
8
CONTOURS_MAJEURES
10
50.998
20
1.466
0
VERTEX
8
CONTOURS_MAJEURES
10
52.409
20
1.591
0
VERTEX
8
CONTOURS_MAJEURES
10
54.003
20
1.714
0
VERTEX
8
CONTOURS_MAJEURES
10
55.286
20
1.714
0
VERTEX
8
CONTOURS_MAJEURES
10
56.997
20
1.714
0
VERTEX
8
CONTOURS_MAJEURES
10
59.602
20
2.601
0
VERTEX
8
CONTOURS_MAJEURES
10
60.003
20
2.735
0
VERTEX
8
CONTOURS_MAJEURES
10
60.269
20
2.735
0
VERTEX
8
CONTOURS_MAJEURES
10
62.997
20
2.735
0
VERTEX
8
CONTOURS_MAJEURES
10
64.142
20
3.002
0
VERTEX
8
CONTOURS_MAJEURES
10
65.586
20
3.417
0
VERTEX
8
CONTOURS_MAJEURES
10
66.002
20
3.421
0
VERTEX
8
CONTOURS_MAJEURES
10
66.383
20
3.384
0
VERTEX
8
CONTOURS_MAJEURES
10
68.996
20
3.574
0
VERTEX
8
CONTOURS_MAJEURES
10
71.427
20
3.574
0
VERTEX
8
CONTOURS_MAJEURES
10
72.001
20
3.574
0
VERTEX
8
CONTOURS_MAJEURES
10
72.485
20
3.486
0
VERTEX
8
CONTOURS_MAJEURES
10
74.995
20
3.108
0
VERTEX
8
CONTOURS_MAJEURES
10
75.425
20
3.002
0
VERTEX
8
CONTOURS_MAJEURES
10
77.516
20
2.518
0
VERTEX
8
CONTOURS_MAJEURES
10
78.000
20
2.460
0
VERTEX
8
CONTOURS_MAJEURES
10
78.541
20
2.460
0
VERTEX
8
CONTOURS_MAJEURES
10
80.995
20
2.460
0
VERTEX
8
CONTOURS_MAJEURES
10
83.055
20
2.057
0
VERTEX
8
CONTOURS_MAJEURES
10
84.000
20
1.728
0
VERTEX
8
CONTOURS_MAJEURES
10
85.458
20
1.543
0
VERTEX
8
CONTOURS_MAJEURES
10
87.005
20
1.444
0
VERTEX
8
CONTOURS_MAJEURES
10
88.447
20
1.444
0
VERTEX
8
CONTOURS_MAJEURES
10
89.999
20
1.444
0
VERTEX
8
CONTOURS_MAJEURES
10
92.314
20
0.686
0
VERTEX
8
CONTOURS_MAJEURES
10
93.004
20
0.576
0
VERTEX
8
CONTOURS_MAJEURES
10
93.399
20
0.392
0
VERTEX
8
CONTOURS_MAJEURES
10
93.825
20
-0.004
0
SEQEND
0
POLYLINE
8
CONTOURS_MAJEURES
66
1
70
0
0
VERTEX
8
CONTOURS_MAJEURES
10
-0.001
20
61.090
0
VERTEX
8
CONTOURS_MAJEURES
10
2.670
20
59.997
0
VERTEX
8
CONTOURS_MAJEURES
10
3.004
20
59.861
0
VERTEX
8
CONTOURS_MAJEURES
10
5.862
20
59.861
0
VERTEX
8
CONTOURS_MAJEURES
10
5.998
20
59.861
0
VERTEX
8
CONTOURS_MAJEURES
10
6.299
20
59.697
0
VERTEX
8
CONTOURS_MAJEURES
10
9.003
20
58.499
0
VERTEX
8
CONTOURS_MAJEURES
10
10.500
20
58.499
0
VERTEX
8
CONTOURS_MAJEURES
10
11.997
20
58.499
0
VERTEX
8
CONTOURS_MAJEURES
10
13.588
20
57.001
0
VERTEX
8
CONTOURS_MAJEURES
10
13.588
20
55.415
0
VERTEX
8
CONTOURS_MAJEURES
10
13.588
20
54.005
0
VERTEX
8
CONTOURS_MAJEURES
10
14.201
20
53.204
0
VERTEX
8
CONTOURS_MAJEURES
10
15.002
20
52.912
0
VERTEX
8
CONTOURS_MAJEURES
10
16.679
20
50.999
0
VERTEX
8
CONTOURS_MAJEURES
10
17.997
20
49.566
0
VERTEX
8
CONTOURS_MAJEURES
10
19.564
20
49.566
0
VERTEX
8
CONTOURS_MAJEURES
10
21.002
20
49.566
0
VERTEX
8
CONTOURS_MAJEURES
10
23.397
20
48.003
0
VERTEX
8
CONTOURS_MAJEURES
10
23.397
20
47.402
0
VERTEX
8
CONTOURS_MAJEURES
10
23.397
20
44.996
0
VERTEX
8
CONTOURS_MAJEURES
10
23.760
20
44.760
0
VERTEX
8
CONTOURS_MAJEURES
10
23.996
20
44.724
0
VERTEX
8
CONTOURS_MAJEURES
10
24.640
20
44.996
0
VERTEX
8
CONTOURS_MAJEURES
10
24.640
20
47.359
0
VERTEX
8
CONTOURS_MAJEURES
10
24.640
20
48.003
0
VERTEX
8
CONTOURS_MAJEURES
10
27.001
20
48.788
0
VERTEX
8
CONTOURS_MAJEURES
10
29.211
20
48.788
0
VERTEX
8
CONTOURS_MAJEURES
10
29.995
20
48.788
0
VERTEX
8
CONTOURS_MAJEURES
10
30.746
20
48.752
0
VERTEX
8
CONTOURS_MAJEURES
10
33.000
20
48.752
0
VERTEX
8
CONTOURS_MAJEURES
10
35.755
20
48.003
0
VERTEX
8
CONTOURS_MAJEURES
10
35.755
20
45.247
0
VERTEX
8
CONTOURS_MAJEURES
10
35.755
20
44.996
0
VERTEX
8
CONTOURS_MAJEURES
10
36.005
20
44.925
0
VERTEX
8
CONTOURS_MAJEURES
10
38.928
20
44.925
0
VERTEX
8
CONTOURS_MAJEURES
10
39.000
20
44.925
0
VERTEX
8
CONTOURS_MAJEURES
10
41.415
20
44.409
0
VERTEX
8
CONTOURS_MAJEURES
10
42.005
20
43.998
0
VERTEX
8
CONTOURS_MAJEURES
10
43.819
20
43.816
0
VERTEX
8
CONTOURS_MAJEURES
10
44.999
20
43.554
0
VERTEX
8
CONTOURS_MAJEURES
10
46.557
20
43.554
0
VERTEX
8
CONTOURS_MAJEURES
10
48.004
20
43.554
0
VERTEX
8
CONTOURS_MAJEURES
10
49.116
20
43.884
0
VERTEX
8
CONTOURS_MAJEURES
10
50.998
20
44.637
0
VERTEX
8
CONTOURS_MAJEURES
10
54.003
20
44.996
0
VERTEX
8
CONTOURS_MAJEURES
10
56.997
20
44.996
0
VERTEX
8
CONTOURS_MAJEURES
10
59.729
20
44.724
0
VERTEX
8
CONTOURS_MAJEURES
10
60.003
20
44.757
0
VERTEX
8
CONTOURS_MAJEURES
10
60.242
20
44.757
0
VERTEX
8
CONTOURS_MAJEURES
10
62.997
20
44.757
0
VERTEX
8
CONTOURS_MAJEURES
10
64.199
20
44.996
0
VERTEX
8
CONTOURS_MAJEURES
10
64.199
20
46.199
0
VERTEX
8
CONTOURS_MAJEURES
10
64.199
20
48.003
0
VERTEX
8
CONTOURS_MAJEURES
10
65.668
20
48.336
0
VERTEX
8
CONTOURS_MAJEURES
10
66.002
20
48.240
0
VERTEX
8
CONTOURS_MAJEURES
10
68.996
20
48.003
0
VERTEX
8
CONTOURS_MAJEURES
10
68.996
20
44.996
0
VERTEX
8
CONTOURS_MAJEURES
10
72.001
20
44.996
0
VERTEX
8
CONTOURS_MAJEURES
10
74.710
20
44.711
0
VERTEX
8
CONTOURS_MAJEURES
10
74.995
20
44.583
0
VERTEX
8
CONTOURS_MAJEURES
10
75.568
20
44.426
0
VERTEX
8
CONTOURS_MAJEURES
10
78.000
20
43.377
0
VERTEX
8
CONTOURS_MAJEURES
10
79.376
20
43.377
0
VERTEX
8
CONTOURS_MAJEURES
10
80.995
20
43.377
0
VERTEX
8
CONTOURS_MAJEURES
10
82.305
20
43.307
0
VERTEX
8
CONTOURS_MAJEURES
10
84.000
20
43.166
0
VERTEX
8
CONTOURS_MAJEURES
10
85.202
20
43.798
0
VERTEX
8
CONTOURS_MAJEURES
10
87.005
20
44.536
0
VERTEX
8
CONTOURS_MAJEURES
10
87.465
20
44.536
0
VERTEX
8
CONTOURS_MAJEURES
10
89.999
20
44.536
0
VERTEX
8
CONTOURS_MAJEURES
10
92.253
20
44.996
0
VERTEX
8
CONTOURS_MAJEURES
10
92.253
20
47.251
0
VERTEX
8
CONTOURS_MAJEURES
10
92.253
20
48.003
0
VERTEX
8
CONTOURS_MAJEURES
10
93.004
20
48.165
0
VERTEX
8
CONTOURS_MAJEURES
10
93.109
20
48.108
0
VERTEX
8
CONTOURS_MAJEURES
10
93.378
20
48.003
0
VERTEX
8
CONTOURS_MAJEURES
10
93.378
20
47.627
0
VERTEX
8
CONTOURS_MAJEURES
10
93.378
20
44.996
0
VERTEX
8
CONTOURS_MAJEURES
10
95.087
20
44.085
0
VERTEX
8
CONTOURS_MAJEURES
10
95.998
20
44.064
0
VERTEX
8
CONTOURS_MAJEURES
10
96.933
20
44.064
0
VERTEX
8
CONTOURS_MAJEURES
10
99.003
20
44.064
0
VERTEX
8
CONTOURS_MAJEURES
10
100.788
20
43.787
0
VERTEX
8
CONTOURS_MAJEURES
10
101.998
20
43.853
0
VERTEX
8
CONTOURS_MAJEURES
10
102.954
20
44.043
0
VERTEX
8
CONTOURS_MAJEURES
10
105.003
20
44.211
0
VERTEX
8
CONTOURS_MAJEURES
10
105.788
20
44.211
0
VERTEX
8
CONTOURS_MAJEURES
10
107.997
20
44.211
0
VERTEX
8
CONTOURS_MAJEURES
10
110.214
20
44.211
0
VERTEX
8
CONTOURS_MAJEURES
10
111.002
20
44.312
0
VERTEX
8
CONTOURS_MAJEURES
10
111.593
20
44.405
0
VERTEX
8
CONTOURS_MAJEURES
10
112.654
20
44.996
0
VERTEX
8
CONTOURS_MAJEURES
10
112.654
20
46.655
0
VERTEX
8
CONTOURS_MAJEURES
10
112.654
20
48.003
0
VERTEX
8
CONTOURS_MAJEURES
10
113.131
20
48.869
0
VERTEX
8
CONTOURS_MAJEURES
10
113.996
20
49.346
0
VERTEX
8
CONTOURS_MAJEURES
10
115.343
20
49.346
0
VERTEX
8
CONTOURS_MAJEURES
10
117.001
20
49.346
0
VERTEX
8
CONTOURS_MAJEURES
10
118.053
20
49.056
0
VERTEX
8
CONTOURS_MAJEURES
10
119.995
20
48.820
0
VERTEX
8
CONTOURS_MAJEURES
10
122.181
20
48.820
0
VERTEX
8
CONTOURS_MAJEURES
10
123.001
20
48.820
0
VERTEX
8
CONTOURS_MAJEURES
10
124.284
20
49.287
0
VERTEX
8
CONTOURS_MAJEURES
10
125.995
20
49.800
0
VERTEX
8
CONTOURS_MAJEURES
10
127.798
20
50.999
0
VERTEX
8
CONTOURS_MAJEURES
10
128.293
20
51.706
0
VERTEX
8
CONTOURS_MAJEURES
10
129.000
20
52.144
0
VERTEX
8
CONTOURS_MAJEURES
10
130.145
20
52.144
0
VERTEX
8
CONTOURS_MAJEURES
10
132.005
20
52.144
0
VERTEX
8
CONTOURS_MAJEURES
10
133.447
20
52.558
0
VERTEX
8
CONTOURS_MAJEURES
10
134.999
20
53.103
0
VERTEX
8
CONTOURS_MAJEURES
10
137.629
20
53.630
0
VERTEX
8
CONTOURS_MAJEURES
10
138.004
20
53.774
0
SEQEND
0
POLYLINE
8
PARCELLE
66
1
70
1
0
VERTEX
8
PARCELLE
10
120.588
20
44.622
0
VERTEX
8
PARCELLE
10
120.509
20
20.000
0
VERTEX
8
PARCELLE
10
73.618
20
21.374
0
VERTEX
8
PARCELLE
10
20.000
20
22.937
0
VERTEX
8
PARCELLE
10
20.238
20
47.468
0
VERTEX
8
PARCELLE
10
70.467
20
46.044
0
VERTEX
8
PARCELLE
10
94.013
20
45.377
0
VERTEX
8
PARCELLE
10
120.588
20
44.622
0
SEQEND
0
TEXT
8
POINTS_COTES
10
-0.001
20
-0.004
40
1.0
1
33.2
0
TEXT
8
POINTS_COTES
10
21.002
20
3.002
40
1.0
1
33.5
0
TEXT
8
POINTS_COTES
10
42.005
20
5.998
40
1.0
1
32.1
0
TEXT
8
POINTS_COTES
10
62.997
20
9.005
40
1.0
1
30.8
0
TEXT
8
POINTS_COTES
10
84.000
20
12.000
40
1.0
1
32.0
0
TEXT
8
POINTS_COTES
10
105.003
20
14.996
40
1.0
1
33.3
0
TEXT
8
POINTS_COTES
10
125.995
20
18.003
40
1.0
1
33.1
0
TEXT
8
POINTS_COTES
10
5.998
20
24.005
40
1.0
1
34.0
0
TEXT
8
POINTS_COTES
10
27.001
20
27.000
40
1.0
1
34.1
0
TEXT
8
POINTS_COTES
10
48.004
20
29.996
40
1.0
1
34.0
0
TEXT
8
POINTS_COTES
10
68.996
20
33.003
40
1.0
1
34.1
0
TEXT
8
POINTS_COTES
10
89.999
20
35.998
40
1.0
1
34.4
0
TEXT
8
POINTS_COTES
10
111.002
20
39.005
40
1.0
1
34.5
0
TEXT
8
POINTS_COTES
10
132.005
20
42.001
40
1.0
1
34.4
0
TEXT
8
POINTS_COTES
10
11.997
20
48.003
40
1.0
1
34.7
0
TEXT
8
POINTS_COTES
10
33.000
20
50.999
40
1.0
1
35.3
0
TEXT
8
POINTS_COTES
10
54.003
20
54.005
40
1.0
1
35.4
0
TEXT
8
POINTS_COTES
10
74.995
20
57.001
40
1.0
1
35.8
0
TEXT
8
POINTS_COTES
10
95.998
20
59.997
40
1.0
1
35.8
0
TEXT
8
POINTS_COTES
10
117.001
20
63.003
40
1.0
1
36.1
0
TEXT
8
POINTS_COTES
10
138.004
20
65.999
40
1.0
1
35.7
0
ENDSEC
0
EOF
