0
SECTION
2
HEADER
0
ENDSEC
0
SECTION
2
TABLES
0
TABLE
2
LAYER
70
4
0
LAYER
2
CONTOURS_MINEURES
70
0
62
8
6
CONTINUOUS
0
LAYER
2
CONTOURS_MAJEURES
70
0
62
3
6
CONTINUOUS
0
LAYER
2
PARCELLE
70
0
62
4
6
CONTINUOUS
0
LAYER
2
POINTS_COTES
70
0
62
7
6
CONTINUOUS
0
ENDTAB
0
ENDSEC
0
SECTION
2
ENTITIES
0
POLYLINE
8
CONTOURS_MINEURES
66
1
70
0
0
VERTEX
8
CONTOURS_MINEURES
10
33.106
20
-0.001
0
VERTEX
8
CONTOURS_MINEURES
10
33.106
20
0.892
0
VERTEX
8
CONTOURS_MINEURES
10
33.106
20
2.000
0
VERTEX
8
CONTOURS_MINEURES
10
33.652
20
3.654
0
VERTEX
8
CONTOURS_MINEURES
10
33.768
20
4.000
0
VERTEX
8
CONTOURS_MINEURES
10
33.768
20
4.231
0
VERTEX
8
CONTOURS_MINEURES
10
33.768
20
6.001
0
VERTEX
8
CONTOURS_MINEURES
10
33.998
20
7.002
0
VERTEX
8
CONTOURS_MINEURES
10
34.997
20
7.002
0
VERTEX
8
CONTOURS_MINEURES
10
35.997
20
7.002
0
VERTEX
8
CONTOURS_MINEURES
10
37.620
20
8.002
0
VERTEX
8
CONTOURS_MINEURES
10
37.620
20
9.628
0
VERTEX
8
CONTOURS_MINEURES
10
37.620
20
10.003
0
VERTEX
8
CONTOURS_MINEURES
10
37.620
20
10.378
0
VERTEX
8
CONTOURS_MINEURES
10
37.620
20
12.004
0
VERTEX
8
CONTOURS_MINEURES
10
37.745
20
12.254
0
VERTEX
8
CONTOURS_MINEURES
10
37.995
20
12.357
0
VERTEX
8
CONTOURS_MINEURES
10
39.649
20
12.357
0
VERTEX
8
CONTOURS_MINEURES
10
40.004
20
12.357
0
VERTEX
8
CONTOURS_MINEURES
10
40.191
20
12.191
0
VERTEX
8
CONTOURS_MINEURES
10
40.337
20
12.004
0
VERTEX
8
CONTOURS_MINEURES
10
40.337
20
11.670
0
VERTEX
8
CONTOURS_MINEURES
10
40.337
20
10.003
0
VERTEX
8
CONTOURS_MINEURES
10
40.337
20
9.669
0
VERTEX
8
CONTOURS_MINEURES
10
40.337
20
8.002
0
VERTEX
8
CONTOURS_MINEURES
10
41.289
20
7.287
0
VERTEX
8
CONTOURS_MINEURES
10
42.002
20
6.335
0
VERTEX
8
CONTOURS_MINEURES
10
42.335
20
6.335
0
VERTEX
8
CONTOURS_MINEURES
10
44.001
20
6.335
0
VERTEX
8
CONTOURS_MINEURES
10
45.666
20
6.335
0
VERTEX
8
CONTOURS_MINEURES
10
45.999
20
6.335
0
VERTEX
8
CONTOURS_MINEURES
10
46.299
20
6.301
0
VERTEX
8
CONTOURS_MINEURES
10
47.997
20
6.456
0
VERTEX
8
CONTOURS_MINEURES
10
49.542
20
6.456
0
VERTEX
8
CONTOURS_MINEURES
10
49.996
20
6.456
0
VERTEX
8
CONTOURS_MINEURES
10
50.241
20
6.245
0
VERTEX
8
CONTOURS_MINEURES
10
52.005
20
6.001
0
VERTEX
8
CONTOURS_MINEURES
10
52.005
20
4.000
0
VERTEX
8
CONTOURS_MINEURES
10
54.003
20
4.000
0
VERTEX
8
CONTOURS_MINEURES
10
56.002
20
2.857
0
VERTEX
8
CONTOURS_MINEURES
10
57.144
20
2.857
0
VERTEX
8
CONTOURS_MINEURES
10
58.000
20
2.857
0
VERTEX
8
CONTOURS_MINEURES
10
58.856
20
2.857
0
VERTEX
8
CONTOURS_MINEURES
10
59.998
20
2.857
0
VERTEX
8
CONTOURS_MINEURES
10
61.597
20
2.400
0
VERTEX
8
CONTOURS_MINEURES
10
61.997
20
2.266
0
VERTEX
8
CONTOURS_MINEURES
10
62.263
20
2.266
0
VERTEX
8
CONTOURS_MINEURES
10
63.995
20
2.266
0
SEQEND
0
POLYLINE
8
CONTOURS_MINEURES
66
1
70
0
0
VERTEX
8
CONTOURS_MINEURES
10
27.251
20
-0.001
0
VERTEX
8
CONTOURS_MINEURES
10
27.251
20
0.752
0
VERTEX
8
CONTOURS_MINEURES
10
27.251
20
2.000
0
VERTEX
8
CONTOURS_MINEURES
10
27.391
20
2.613
0
VERTEX
8
CONTOURS_MINEURES
10
28.003
20
4.000
0
VERTEX
8
CONTOURS_MINEURES
10
30.001
20
4.000
0
VERTEX
8
CONTOURS_MINEURES
10
32.000
20
4.000
0
VERTEX
8
CONTOURS_MINEURES
10
32.000
20
6.001
0
VERTEX
8
CONTOURS_MINEURES
10
32.000
20
8.002
0
VERTEX
8
CONTOURS_MINEURES
10
32.000
20
10.003
0
VERTEX
8
CONTOURS_MINEURES
10
32.000
20
12.004
0
VERTEX
8
CONTOURS_MINEURES
10
30.001
20
12.004
0
VERTEX
8
CONTOURS_MINEURES
10
28.003
20
12.004
0
VERTEX
8
CONTOURS_MINEURES
10
27.473
20
13.474
0
VERTEX
8
CONTOURS_MINEURES
10
27.204
20
14.004
0
VERTEX
8
CONTOURS_MINEURES
10
27.204
20
14.805
0
VERTEX
8
CONTOURS_MINEURES
10
27.204
20
16.005
0
VERTEX
8
CONTOURS_MINEURES
10
27.086
20
17.081
0
VERTEX
8
CONTOURS_MINEURES
10
26.255
20
17.995
0
VERTEX
8
CONTOURS_MINEURES
10
26.255
20
19.745
0
VERTEX
8
CONTOURS_MINEURES
10
26.255
20
19.996
0
VERTEX
8
CONTOURS_MINEURES
10
26.255
20
21.746
0
VERTEX
8
CONTOURS_MINEURES
10
26.671
20
21.996
0
VERTEX
8
CONTOURS_MINEURES
10
26.671
20
22.663
0
VERTEX
8
CONTOURS_MINEURES
10
26.671
20
23.997
0
VERTEX
8
CONTOURS_MINEURES
10
26.671
20
25.331
0
VERTEX
8
CONTOURS_MINEURES
10
26.671
20
25.998
0
VERTEX
8
CONTOURS_MINEURES
10
28.003
20
26.531
0
VERTEX
8
CONTOURS_MINEURES
10
28.536
20
26.531
0
VERTEX
8
CONTOURS_MINEURES
10
30.001
20
26.531
0
VERTEX
8
CONTOURS_MINEURES
10
31.467
20
26.531
0
VERTEX
8
CONTOURS_MINEURES
10
32.000
20
26.531
0
VERTEX
8
CONTOURS_MINEURES
10
32.888
20
26.887
0
VERTEX
8
CONTOURS_MINEURES
10
33.998
20
27.472
0
VERTEX
8
CONTOURS_MINEURES
10
34.524
20
27.472
0
VERTEX
8
CONTOURS_MINEURES
10
35.997
20
27.472
0
VERTEX
8
CONTOURS_MINEURES
10
37.033
20
27.035
0
VERTEX
8
CONTOURS_MINEURES
10
37.995
20
26.760
0
VERTEX
8
CONTOURS_MINEURES
10
38.760
20
26.760
0
VERTEX
8
CONTOURS_MINEURES
10
40.004
20
26.760
0
VERTEX
8
CONTOURS_MINEURES
10
40.619
20
26.614
0
VERTEX
8
CONTOURS_MINEURES
10
41.687
20
25.998
0
VERTEX
8
CONTOURS_MINEURES
10
41.687
20
25.682
0
VERTEX
8
CONTOURS_MINEURES
10
41.687
20
23.997
0
VERTEX
8
CONTOURS_MINEURES
10
41.687
20
22.312
0
VERTEX
8
CONTOURS_MINEURES
10
41.687
20
21.996
0
VERTEX
8
CONTOURS_MINEURES
10
41.909
20
21.903
0
VERTEX
8
CONTOURS_MINEURES
10
42.002
20
21.853
0
VERTEX
8
CONTOURS_MINEURES
10
42.145
20
21.853
0
VERTEX
8
CONTOURS_MINEURES
10
44.001
20
21.853
0
VERTEX
8
CONTOURS_MINEURES
10
44.143
20
21.853
0
VERTEX
8
CONTOURS_MINEURES
10
45.999
20
21.853
0
VERTEX
8
CONTOURS_MINEURES
10
46.272
20
21.724
0
VERTEX
8
CONTOURS_MINEURES
10
47.997
20
21.306
0
VERTEX
8
CONTOURS_MINEURES
10
49.307
20
21.306
0
VERTEX
8
CONTOURS_MINEURES
10
49.996
20
21.306
0
VERTEX
8
CONTOURS_MINEURES
10
51.541
20
20.457
0
VERTEX
8
CONTOURS_MINEURES
10
52.005
20
20.226
0
VERTEX
8
CONTOURS_MINEURES
10
52.235
20
20.226
0
VERTEX
8
CONTOURS_MINEURES
10
54.003
20
20.226
0
VERTEX
8
CONTOURS_MINEURES
10
54.126
20
20.118
0
VERTEX
8
CONTOURS_MINEURES
10
54.464
20
19.996
0
VERTEX
8
CONTOURS_MINEURES
10
54.464
20
19.534
0
VERTEX
8
CONTOURS_MINEURES
10
54.464
20
17.995
0
VERTEX
8
CONTOURS_MINEURES
10
56.002
20
17.000
0
VERTEX
8
CONTOURS_MINEURES
10
57.001
20
17.000
0
VERTEX
8
CONTOURS_MINEURES
10
58.000
20
17.000
0
VERTEX
8
CONTOURS_MINEURES
10
58.999
20
17.000
0
VERTEX
8
CONTOURS_MINEURES
10
59.998
20
17.000
0
VERTEX
8
CONTOURS_MINEURES
10
60.712
20
16.716
0
VERTEX
8
CONTOURS_MINEURES
10
61.426
20
16.005
0
VERTEX
8
CONTOURS_MINEURES
10
61.426
20
15.433
0
VERTEX
8
CONTOURS_MINEURES
10
61.426
20
14.004
0
VERTEX
8
CONTOURS_MINEURES
10
61.739
20
13.746
0
VERTEX
8
CONTOURS_MINEURES
10
61.997
20
13.004
0
VERTEX
8
CONTOURS_MINEURES
10
62.996
20
13.004
0
VERTEX
8
CONTOURS_MINEURES
10
63.995
20
13.004
0
SEQEND
0
POLYLINE
8
CONTOURS_MINEURES
66
1
70
0
0
VERTEX
8
CONTOURS_MINEURES
10
14.670
20
-0.001
0
VERTEX
8
CONTOURS_MINEURES
10
14.670
20
1.333
0
VERTEX
8
CONTOURS_MINEURES
10
14.670
20
2.000
0
VERTEX
8
CONTOURS_MINEURES
10
16.002
20
2.250
0
VERTEX
8
CONTOURS_MINEURES
10
17.751
20
2.250
0
VERTEX
8
CONTOURS_MINEURES
10
18.001
20
2.250
0
VERTEX
8
CONTOURS_MINEURES
10
19.000
20
3.000
0
VERTEX
8
CONTOURS_MINEURES
10
19.999
20
3.600
0
VERTEX
8
CONTOURS_MINEURES
10
20.399
20
3.600
0
VERTEX
8
CONTOURS_MINEURES
10
21.997
20
3.600
0
VERTEX
8
CONTOURS_MINEURES
10
22.247
20
4.000
0
VERTEX
8
CONTOURS_MINEURES
10
22.247
20
5.751
0
VERTEX
8
CONTOURS_MINEURES
10
22.247
20
6.001
0
VERTEX
8
CONTOURS_MINEURES
10
22.095
20
6.099
0
VERTEX
8
CONTOURS_MINEURES
10
21.997
20
6.168
0
VERTEX
8
CONTOURS_MINEURES
10
21.831
20
6.168
0
VERTEX
8
CONTOURS_MINEURES
10
19.999
20
6.168
0
VERTEX
8
CONTOURS_MINEURES
10
18.778
20
6.779
0
VERTEX
8
CONTOURS_MINEURES
10
18.001
20
7.557
0
VERTEX
8
CONTOURS_MINEURES
10
16.446
20
7.557
0
VERTEX
8
CONTOURS_MINEURES
10
16.002
20
7.557
0
VERTEX
8
CONTOURS_MINEURES
10
15.669
20
7.669
0
VERTEX
8
CONTOURS_MINEURES
10
15.682
20
8.002
0
VERTEX
8
CONTOURS_MINEURES
10
15.682
20
8.322
0
VERTEX
8
CONTOURS_MINEURES
10
15.682
20
10.003
0
VERTEX
8
CONTOURS_MINEURES
10
15.682
20
11.683
0
VERTEX
8
CONTOURS_MINEURES
10
15.682
20
12.004
0
VERTEX
8
CONTOURS_MINEURES
10
15.387
20
12.619
0
VERTEX
8
CONTOURS_MINEURES
10
14.533
20
14.004
0
VERTEX
8
CONTOURS_MINEURES
10
14.533
20
14.534
0
VERTEX
8
CONTOURS_MINEURES
10
14.533
20
16.005
0
VERTEX
8
CONTOURS_MINEURES
10
14.356
20
16.356
0
VERTEX
8
CONTOURS_MINEURES
10
14.004
20
17.383
0
VERTEX
8
CONTOURS_MINEURES
10
12.613
20
17.383
0
VERTEX
8
CONTOURS_MINEURES
10
11.995
20
17.383
0
VERTEX
8
CONTOURS_MINEURES
10
11.380
20
17.383
0
VERTEX
8
CONTOURS_MINEURES
10
9.996
20
17.383
0
VERTEX
8
CONTOURS_MINEURES
10
9.633
20
17.995
0
VERTEX
8
CONTOURS_MINEURES
10
9.633
20
19.632
0
VERTEX
8
CONTOURS_MINEURES
10
9.633
20
19.996
0
VERTEX
8
CONTOURS_MINEURES
10
8.835
20
20.833
0
VERTEX
8
CONTOURS_MINEURES
10
8.886
20
21.996
0
VERTEX
8
CONTOURS_MINEURES
10
8.886
20
22.886
0
VERTEX
8
CONTOURS_MINEURES
10
8.886
20
23.997
0
VERTEX
8
CONTOURS_MINEURES
10
8.886
20
25.109
0
VERTEX
8
CONTOURS_MINEURES
10
8.886
20
25.998
0
VERTEX
8
CONTOURS_MINEURES
10
9.135
20
26.860
0
VERTEX
8
CONTOURS_MINEURES
10
9.097
20
27.999
0
VERTEX
8
CONTOURS_MINEURES
10
9.097
20
29.099
0
VERTEX
8
CONTOURS_MINEURES
10
9.097
20
29.999
0
VERTEX
8
CONTOURS_MINEURES
10
9.267
20
30.729
0
VERTEX
8
CONTOURS_MINEURES
10
9.675
20
32.000
0
VERTEX
8
CONTOURS_MINEURES
10
9.675
20
33.679
0
VERTEX
8
CONTOURS_MINEURES
10
9.675
20
34.001
0
VERTEX
8
CONTOURS_MINEURES
10
9.996
20
34.531
0
VERTEX
8
CONTOURS_MINEURES
10
11.466
20
34.531
0
VERTEX
8
CONTOURS_MINEURES
10
11.995
20
34.531
0
VERTEX
8
CONTOURS_MINEURES
10
12.527
20
34.531
0
VERTEX
8
CONTOURS_MINEURES
10
14.004
20
34.531
0
VERTEX
8
CONTOURS_MINEURES
10
15.925
20
36.002
0
VERTEX
8
CONTOURS_MINEURES
10
15.925
20
37.926
0
VERTEX
8
CONTOURS_MINEURES
10
15.925
20
38.003
0
VERTEX
8
CONTOURS_MINEURES
10
15.925
20
38.079
0
VERTEX
8
CONTOURS_MINEURES
10
15.925
20
40.003
0
VERTEX
8
CONTOURS_MINEURES
10
15.963
20
40.043
0
VERTEX
8
CONTOURS_MINEURES
10
16.002
20
40.059
0
VERTEX
8
CONTOURS_MINEURES
10
16.058
20
40.059
0
VERTEX
8
CONTOURS_MINEURES
10
18.001
20
40.059
0
VERTEX
8
CONTOURS_MINEURES
10
19.458
20
40.545
0
VERTEX
8
CONTOURS_MINEURES
10
19.999
20
40.706
0
VERTEX
8
CONTOURS_MINEURES
10
20.701
20
40.706
0
VERTEX
8
CONTOURS_MINEURES
10
21.997
20
40.706
0
VERTEX
8
CONTOURS_MINEURES
10
22.854
20
41.147
0
VERTEX
8
CONTOURS_MINEURES
10
23.842
20
42.004
0
VERTEX
8
CONTOURS_MINEURES
10
23.842
20
42.158
0
VERTEX
8
CONTOURS_MINEURES
10
23.842
20
44.005
0
VERTEX
8
CONTOURS_MINEURES
10
23.903
20
44.097
0
VERTEX
8
CONTOURS_MINEURES
10
23.996
20
44.142
0
VERTEX
8
CONTOURS_MINEURES
10
24.134
20
44.142
0
VERTEX
8
CONTOURS_MINEURES
10
26.005
20
44.142
0
VERTEX
8
CONTOURS_MINEURES
10
27.463
20
44.543
0
VERTEX
8
CONTOURS_MINEURES
10
28.003
20
44.515
0
VERTEX
8
CONTOURS_MINEURES
10
29.489
20
44.515
0
VERTEX
8
CONTOURS_MINEURES
10
30.001
20
44.515
0
VERTEX
8
CONTOURS_MINEURES
10
30.514
20
44.515
0
VERTEX
8
CONTOURS_MINEURES
10
32.000
20
44.515
0
VERTEX
8
CONTOURS_MINEURES
10
33.052
20
44.005
0
VERTEX
8
CONTOURS_MINEURES
10
33.052
20
42.952
0
VERTEX
8
CONTOURS_MINEURES
10
33.052
20
42.004
0
VERTEX
8
CONTOURS_MINEURES
10
33.525
20
41.530
0
VERTEX
8
CONTOURS_MINEURES
10
33.998
20
41.458
0
VERTEX
8
CONTOURS_MINEURES
10
34.543
20
41.458
0
VERTEX
8
CONTOURS_MINEURES
10
35.997
20
41.458
0
VERTEX
8
CONTOURS_MINEURES
10
36.712
20
40.720
0
VERTEX
8
CONTOURS_MINEURES
10
37.995
20
40.248
0
VERTEX
8
CONTOURS_MINEURES
10
39.758
20
40.248
0
VERTEX
8
CONTOURS_MINEURES
10
40.004
20
40.248
0
VERTEX
8
CONTOURS_MINEURES
10
40.158
20
40.157
0
VERTEX
8
CONTOURS_MINEURES
10
40.525
20
40.003
0
VERTEX
8
CONTOURS_MINEURES
10
40.525
20
39.481
0
VERTEX
8
CONTOURS_MINEURES
10
40.525
20
38.003
0
VERTEX
8
CONTOURS_MINEURES
10
40.525
20
36.524
0
VERTEX
8
CONTOURS_MINEURES
10
40.525
20
36.002
0
VERTEX
8
CONTOURS_MINEURES
10
41.406
20
35.405
0
VERTEX
8
CONTOURS_MINEURES
10
42.002
20
35.278
0
VERTEX
8
CONTOURS_MINEURES
10
42.725
20
35.278
0
VERTEX
8
CONTOURS_MINEURES
10
44.001
20
35.278
0
VERTEX
8
CONTOURS_MINEURES
10
45.276
20
35.278
0
VERTEX
8
CONTOURS_MINEURES
10
45.999
20
35.278
0
VERTEX
8
CONTOURS_MINEURES
10
47.029
20
34.971
0
VERTEX
8
CONTOURS_MINEURES
10
47.997
20
34.668
0
VERTEX
8
CONTOURS_MINEURES
10
48.664
20
34.668
0
VERTEX
8
CONTOURS_MINEURES
10
49.996
20
34.668
0
VERTEX
8
CONTOURS_MINEURES
10
51.944
20
34.062
0
VERTEX
8
CONTOURS_MINEURES
10
52.005
20
34.045
0
VERTEX
8
CONTOURS_MINEURES
10
53.959
20
34.045
0
VERTEX
8
CONTOURS_MINEURES
10
54.003
20
34.045
0
VERTEX
8
CONTOURS_MINEURES
10
54.030
20
34.028
0
VERTEX
8
CONTOURS_MINEURES
10
54.072
20
34.001
0
VERTEX
8
CONTOURS_MINEURES
10
54.072
20
33.932
0
VERTEX
8
CONTOURS_MINEURES
10
54.072
20
32.000
0
VERTEX
8
CONTOURS_MINEURES
10
55.235
20
31.233
0
VERTEX
8
CONTOURS_MINEURES
10
56.002
20
30.782
0
VERTEX
8
CONTOURS_MINEURES
10
57.218
20
30.782
0
VERTEX
8
CONTOURS_MINEURES
10
58.000
20
30.782
0
VERTEX
8
CONTOURS_MINEURES
10
59.216
20
30.782
0
VERTEX
8
CONTOURS_MINEURES
10
59.998
20
30.782
0
VERTEX
8
CONTOURS_MINEURES
10
60.442
20
30.444
0
VERTEX
8
CONTOURS_MINEURES
10
61.239
20
29.999
0
VERTEX
8
CONTOURS_MINEURES
10
61.239
20
28.758
0
VERTEX
8
CONTOURS_MINEURES
10
61.239
20
27.999
0
VERTEX
8
CONTOURS_MINEURES
10
61.997
20
27.520
0
VERTEX
8
CONTOURS_MINEURES
10
63.517
20
27.520
0
VERTEX
8
CONTOURS_MINEURES
10
63.995
20
27.520
0
SEQEND
0
POLYLINE
8
CONTOURS_MINEURES
66
1
70
0
0
VERTEX
8
CONTOURS_MINEURES
10
0.005
20
6.354
0
VERTEX
8
CONTOURS_MINEURES
10
0.587
20
7.418
0
VERTEX
8
CONTOURS_MINEURES
10
0.564
20
8.002
0
VERTEX
8
CONTOURS_MINEURES
10
0.564
20
9.443
0
VERTEX
8
CONTOURS_MINEURES
10
0.564
20
10.003
0
VERTEX
8
CONTOURS_MINEURES
10
0.564
20
10.563
0
VERTEX
8
CONTOURS_MINEURES
10
0.564
20
12.004
0
VERTEX
8
CONTOURS_MINEURES
10
0.945
20
13.063
0
VERTEX
8
CONTOURS_MINEURES
10
0.931
20
14.004
0
VERTEX
8
CONTOURS_MINEURES
10
0.931
20
14.932
0
VERTEX
8
CONTOURS_MINEURES
10
0.931
20
16.005
0
VERTEX
8
CONTOURS_MINEURES
10
0.810
20
17.192
0
VERTEX
8
CONTOURS_MINEURES
10
0.718
20
17.995
0
VERTEX
8
CONTOURS_MINEURES
10
0.718
20
18.709
0
VERTEX
8
CONTOURS_MINEURES
10
0.718
20
19.996
0
VERTEX
8
CONTOURS_MINEURES
10
0.598
20
21.402
0
VERTEX
8
CONTOURS_MINEURES
10
0.779
20
21.996
0
VERTEX
8
CONTOURS_MINEURES
10
0.779
20
22.772
0
VERTEX
8
CONTOURS_MINEURES
10
0.779
20
23.997
0
VERTEX
8
CONTOURS_MINEURES
10
0.779
20
24.773
0
VERTEX
8
CONTOURS_MINEURES
10
0.779
20
25.998
0
VERTEX
8
CONTOURS_MINEURES
10
0.804
20
27.198
0
VERTEX
8
CONTOURS_MINEURES
10
1.180
20
27.999
0
VERTEX
8
CONTOURS_MINEURES
10
1.180
20
29.176
0
VERTEX
8
CONTOURS_MINEURES
10
1.180
20
29.999
0
VERTEX
8
CONTOURS_MINEURES
10
1.226
20
30.778
0
VERTEX
8
CONTOURS_MINEURES
10
1.226
20
32.000
0
VERTEX
8
CONTOURS_MINEURES
10
1.226
20
33.223
0
VERTEX
8
CONTOURS_MINEURES
10
1.226
20
34.001
0
VERTEX
8
CONTOURS_MINEURES
10
1.544
20
34.460
0
VERTEX
8
CONTOURS_MINEURES
10
1.846
20
36.002
0
VERTEX
8
CONTOURS_MINEURES
10
1.846
20
37.846
0
VERTEX
8
CONTOURS_MINEURES
10
1.846
20
38.003
0
VERTEX
8
CONTOURS_MINEURES
10
1.846
20
38.159
0
VERTEX
8
CONTOURS_MINEURES
10
1.846
20
40.003
0
VERTEX
8
CONTOURS_MINEURES
10
1.904
20
40.102
0
VERTEX
8
CONTOURS_MINEURES
10
2.003
20
40.226
0
VERTEX
8
CONTOURS_MINEURES
10
3.779
20
40.226
0
VERTEX
8
CONTOURS_MINEURES
10
4.001
20
40.226
0
VERTEX
8
CONTOURS_MINEURES
10
5.334
20
42.004
0
VERTEX
8
CONTOURS_MINEURES
10
5.334
20
42.671
0
VERTEX
8
CONTOURS_MINEURES
10
5.334
20
44.005
0
VERTEX
8
CONTOURS_MINEURES
10
5.529
20
44.473
0
VERTEX
8
CONTOURS_MINEURES
10
6.000
20
45.278
0
VERTEX
8
CONTOURS_MINEURES
10
6.719
20
45.278
0
VERTEX
8
CONTOURS_MINEURES
10
7.998
20
45.278
0
VERTEX
8
CONTOURS_MINEURES
10
8.358
20
45.995
0
VERTEX
8
CONTOURS_MINEURES
10
8.358
20
47.635
0
VERTEX
8
CONTOURS_MINEURES
10
8.358
20
47.995
0
VERTEX
8
CONTOURS_MINEURES
10
8.358
20
48.355
0
VERTEX
8
CONTOURS_MINEURES
10
8.358
20
49.996
0
VERTEX
8
CONTOURS_MINEURES
10
8.289
20
51.705
0
VERTEX
8
CONTOURS_MINEURES
10
8.387
20
51.997
0
VERTEX
8
CONTOURS_MINEURES
10
8.387
20
53.609
0
VERTEX
8
CONTOURS_MINEURES
10
8.387
20
53.998
0
VERTEX
8
CONTOURS_MINEURES
10
9.996
20
55.485
0
VERTEX
8
CONTOURS_MINEURES
10
10.509
20
55.485
0
VERTEX
8
CONTOURS_MINEURES
10
11.995
20
55.485
0
VERTEX
8
CONTOURS_MINEURES
10
12.510
20
55.485
0
VERTEX
8
CONTOURS_MINEURES
10
14.004
20
55.485
0
VERTEX
8
CONTOURS_MINEURES
10
15.708
20
55.704
0
VERTEX
8
CONTOURS_MINEURES
10
16.002
20
55.735
0
VERTEX
8
CONTOURS_MINEURES
10
17.738
20
55.735
0
VERTEX
8
CONTOURS_MINEURES
10
18.001
20
55.735
0
VERTEX
8
CONTOURS_MINEURES
10
18.264
20
55.735
0
VERTEX
8
CONTOURS_MINEURES
10
19.999
20
55.782
0
VERTEX
8
CONTOURS_MINEURES
10
20.215
20
55.782
0
VERTEX
8
CONTOURS_MINEURES
10
21.997
20
55.782
0
VERTEX
8
CONTOURS_MINEURES
10
23.196
20
55.198
0
VERTEX
8
CONTOURS_MINEURES
10
23.996
20
55.100
0
VERTEX
8
CONTOURS_MINEURES
10
25.103
20
55.100
0
VERTEX
8
CONTOURS_MINEURES
10
26.005
20
55.100
0
VERTEX
8
CONTOURS_MINEURES
10
27.051
20
54.950
0
VERTEX
8
CONTOURS_MINEURES
10
28.003
20
54.831
0
VERTEX
8
CONTOURS_MINEURES
10
29.169
20
54.831
0
VERTEX
8
CONTOURS_MINEURES
10
30.001
20
54.831
0
VERTEX
8
CONTOURS_MINEURES
10
30.834
20
54.831
0
VERTEX
8
CONTOURS_MINEURES
10
32.000
20
54.831
0
VERTEX
8
CONTOURS_MINEURES
10
33.865
20
54.131
0
VERTEX
8
CONTOURS_MINEURES
10
33.998
20
54.109
0
VERTEX
8
CONTOURS_MINEURES
10
35.886
20
54.109
0
VERTEX
8
CONTOURS_MINEURES
10
35.997
20
54.109
0
VERTEX
8
CONTOURS_MINEURES
10
36.105
20
53.998
0
VERTEX
8
CONTOURS_MINEURES
10
36.105
20
52.105
0
VERTEX
8
CONTOURS_MINEURES
10
36.105
20
51.997
0
VERTEX
8
CONTOURS_MINEURES
10
37.062
20
51.063
0
VERTEX
8
CONTOURS_MINEURES
10
37.995
20
50.052
0
VERTEX
8
CONTOURS_MINEURES
10
38.051
20
50.052
0
VERTEX
8
CONTOURS_MINEURES
10
40.004
20
50.052
0
VERTEX
8
CONTOURS_MINEURES
10
40.042
20
49.996
0
VERTEX
8
CONTOURS_MINEURES
10
40.042
20
49.958
0
VERTEX
8
CONTOURS_MINEURES
10
40.042
20
47.995
0
VERTEX
8
CONTOURS_MINEURES
10
40.042
20
46.033
0
VERTEX
8
CONTOURS_MINEURES
10
40.042
20
45.995
0
VERTEX
8
CONTOURS_MINEURES
10
41.059
20
45.055
0
VERTEX
8
CONTOURS_MINEURES
10
42.002
20
44.710
0
VERTEX
8
CONTOURS_MINEURES
10
43.292
20
44.710
0
VERTEX
8
CONTOURS_MINEURES
10
44.001
20
44.710
0
VERTEX
8
CONTOURS_MINEURES
10
44.709
20
44.710
0
VERTEX
8
CONTOURS_MINEURES
10
45.999
20
44.710
0
VERTEX
8
CONTOURS_MINEURES
10
47.543
20
44.457
0
VERTEX
8
CONTOURS_MINEURES
10
47.997
20
44.260
0
VERTEX
8
CONTOURS_MINEURES
10
48.254
20
44.260
0
VERTEX
8
CONTOURS_MINEURES
10
49.996
20
44.260
0
VERTEX
8
CONTOURS_MINEURES
10
50.651
20
44.005
0
VERTEX
8
CONTOURS_MINEURES
10
50.651
20
42.657
0
VERTEX
8
CONTOURS_MINEURES
10
50.651
20
42.004
0
VERTEX
8
CONTOURS_MINEURES
10
52.005
20
41.291
0
VERTEX
8
CONTOURS_MINEURES
10
52.717
20
41.291
0
VERTEX
8
CONTOURS_MINEURES
10
54.003
20
41.291
0
VERTEX
8
CONTOURS_MINEURES
10
54.871
20
40.872
0
VERTEX
8
CONTOURS_MINEURES
10
56.002
20
40.529
0
VERTEX
8
CONTOURS_MINEURES
10
57.475
20
40.529
0
VERTEX
8
CONTOURS_MINEURES
10
58.000
20
40.529
0
VERTEX
8
CONTOURS_MINEURES
10
58.525
20
40.529
0
VERTEX
8
CONTOURS_MINEURES
10
59.998
20
40.529
0
VERTEX
8
CONTOURS_MINEURES
10
60.407
20
40.413
0
VERTEX
8
CONTOURS_MINEURES
10
61.207
20
40.003
0
VERTEX
8
CONTOURS_MINEURES
10
61.207
20
38.794
0
VERTEX
8
CONTOURS_MINEURES
10
61.207
20
38.003
0
VERTEX
8
CONTOURS_MINEURES
10
61.207
20
36.793
0
VERTEX
8
CONTOURS_MINEURES
10
61.207
20
36.002
0
VERTEX
8
CONTOURS_MINEURES
10
61.997
20
35.372
0
VERTEX
8
CONTOURS_MINEURES
10
63.366
20
35.372
0
VERTEX
8
CONTOURS_MINEURES
10
63.995
20
35.372
0
SEQEND
0
POLYLINE
8
CONTOURS_MINEURES
66
1
70
0
0
VERTEX
8
CONTOURS_MINEURES
10
8.543
20
66.002
0
VERTEX
8
CONTOURS_MINEURES
10
9.189
20
65.194
0
VERTEX
8
CONTOURS_MINEURES
10
9.996
20
64.976
0
VERTEX
8
CONTOURS_MINEURES
10
11.021
20
64.976
0
VERTEX
8
CONTOURS_MINEURES
10
11.995
20
64.976
0
VERTEX
8
CONTOURS_MINEURES
10
12.974
20
64.976
0
VERTEX
8
CONTOURS_MINEURES
10
14.004
20
64.976
0
VERTEX
8
CONTOURS_MINEURES
10
15.114
20
64.891
0
VERTEX
8
CONTOURS_MINEURES
10
16.002
20
64.867
0
VERTEX
8
CONTOURS_MINEURES
10
16.866
20
64.867
0
VERTEX
8
CONTOURS_MINEURES
10
18.001
20
64.867
0
VERTEX
8
CONTOURS_MINEURES
10
18.988
20
65.014
0
VERTEX
8
CONTOURS_MINEURES
10
19.999
20
65.722
0
VERTEX
8
CONTOURS_MINEURES
10
21.718
20
65.722
0
VERTEX
8
CONTOURS_MINEURES
10
21.997
20
65.722
0
VERTEX
8
CONTOURS_MINEURES
10
22.338
20
65.661
0
VERTEX
8
CONTOURS_MINEURES
10
23.996
20
65.891
0
VERTEX
8
CONTOURS_MINEURES
10
25.893
20
65.891
0
VERTEX
8
CONTOURS_MINEURES
10
26.005
20
65.891
0
VERTEX
8
CONTOURS_MINEURES
10
26.130
20
65.877
0
VERTEX
8
CONTOURS_MINEURES
10
28.003
20
65.397
0
VERTEX
8
CONTOURS_MINEURES
10
29.397
20
65.397
0
VERTEX
8
CONTOURS_MINEURES
10
30.001
20
65.397
0
VERTEX
8
CONTOURS_MINEURES
10
31.396
20
65.397
0
VERTEX
8
CONTOURS_MINEURES
10
32.000
20
65.397
0
VERTEX
8
CONTOURS_MINEURES
10
32.742
20
65.259
0
VERTEX
8
CONTOURS_MINEURES
10
33.998
20
64.659
0
VERTEX
8
CONTOURS_MINEURES
10
34.654
20
64.659
0
VERTEX
8
CONTOURS_MINEURES
10
35.997
20
64.659
0
VERTEX
8
CONTOURS_MINEURES
10
37.415
20
64.002
0
VERTEX
8
CONTOURS_MINEURES
10
37.415
20
62.582
0
VERTEX
8
CONTOURS_MINEURES
10
37.415
20
62.001
0
VERTEX
8
CONTOURS_MINEURES
10
37.415
20
61.420
0
VERTEX
8
CONTOURS_MINEURES
10
37.415
20
60.000
0
VERTEX
8
CONTOURS_MINEURES
10
37.995
20
59.633
0
VERTEX
8
CONTOURS_MINEURES
10
38.364
20
59.633
0
VERTEX
8
CONTOURS_MINEURES
10
40.004
20
59.633
0
VERTEX
8
CONTOURS_MINEURES
10
40.731
20
58.727
0
VERTEX
8
CONTOURS_MINEURES
10
41.359
20
57.999
0
VERTEX
8
CONTOURS_MINEURES
10
41.359
20
56.643
0
VERTEX
8
CONTOURS_MINEURES
10
41.359
20
55.998
0
VERTEX
8
CONTOURS_MINEURES
10
41.550
20
55.546
0
VERTEX
8
CONTOURS_MINEURES
10
41.943
20
53.998
0
VERTEX
8
CONTOURS_MINEURES
10
41.943
20
52.057
0
VERTEX
8
CONTOURS_MINEURES
10
41.943
20
51.997
0
VERTEX
8
CONTOURS_MINEURES
10
42.002
20
51.918
0
VERTEX
8
CONTOURS_MINEURES
10
42.081
20
51.918
0
VERTEX
8
CONTOURS_MINEURES
10
44.001
20
51.918
0
VERTEX
8
CONTOURS_MINEURES
10
45.921
20
51.918
0
VERTEX
8
CONTOURS_MINEURES
10
45.999
20
51.918
0
VERTEX
8
CONTOURS_MINEURES
10
46.719
20
50.717
0
VERTEX
8
CONTOURS_MINEURES
10
47.919
20
49.996
0
VERTEX
8
CONTOURS_MINEURES
10
47.919
20
49.918
0
VERTEX
8
CONTOURS_MINEURES
10
47.919
20
47.995
0
VERTEX
8
CONTOURS_MINEURES
10
47.919
20
47.917
0
VERTEX
8
CONTOURS_MINEURES
10
47.919
20
45.995
0
VERTEX
8
CONTOURS_MINEURES
10
47.997
20
45.961
0
VERTEX
8
CONTOURS_MINEURES
10
49.962
20
45.961
0
VERTEX
8
CONTOURS_MINEURES
10
49.996
20
45.961
0
VERTEX
8
CONTOURS_MINEURES
10
50.052
20
45.939
0
VERTEX
8
CONTOURS_MINEURES
10
52.005
20
45.288
0
VERTEX
8
CONTOURS_MINEURES
10
53.294
20
45.288
0
VERTEX
8
CONTOURS_MINEURES
10
54.003
20
45.288
0
VERTEX
8
CONTOURS_MINEURES
10
55.172
20
44.831
0
VERTEX
8
CONTOURS_MINEURES
10
56.002
20
44.548
0
VERTEX
8
CONTOURS_MINEURES
10
57.455
20
44.548
0
VERTEX
8
CONTOURS_MINEURES
10
58.000
20
44.548
0
VERTEX
8
CONTOURS_MINEURES
10
58.545
20
44.548
0
VERTEX
8
CONTOURS_MINEURES
10
59.998
20
44.548
0
VERTEX
8
CONTOURS_MINEURES
10
61.925
20
44.005
0
VERTEX
8
CONTOURS_MINEURES
10
61.925
20
42.076
0
VERTEX
8
CONTOURS_MINEURES
10
61.925
20
42.004
0
VERTEX
8
CONTOURS_MINEURES
10
61.981
20
41.988
0
VERTEX
8
CONTOURS_MINEURES
10
61.997
20
41.980
0
VERTEX
8
CONTOURS_MINEURES
10
63.971
20
41.980
0
VERTEX
8
CONTOURS_MINEURES
10
63.995
20
41.980
0
SEQEND
0
POLYLINE
8
CONTOURS_MINEURES
66
1
70
0
0
VERTEX
8
CONTOURS_MINEURES
10
40.045
20
66.002
0
VERTEX
8
CONTOURS_MINEURES
10
42.002
20
64.771
0
VERTEX
8
CONTOURS_MINEURES
10
42.771
20
64.771
0
VERTEX
8
CONTOURS_MINEURES
10
44.001
20
64.771
0
VERTEX
8
CONTOURS_MINEURES
10
44.769
20
64.771
0
VERTEX
8
CONTOURS_MINEURES
10
45.999
20
64.771
0
VERTEX
8
CONTOURS_MINEURES
10
46.936
20
64.002
0
VERTEX
8
CONTOURS_MINEURES
10
46.936
20
62.939
0
VERTEX
8
CONTOURS_MINEURES
10
46.936
20
62.001
0
VERTEX
8
CONTOURS_MINEURES
10
46.936
20
60.938
0
VERTEX
8
CONTOURS_MINEURES
10
46.936
20
60.000
0
VERTEX
8
CONTOURS_MINEURES
10
47.407
20
59.408
0
VERTEX
8
CONTOURS_MINEURES
10
47.997
20
58.418
0
VERTEX
8
CONTOURS_MINEURES
10
48.416
20
58.418
0
VERTEX
8
CONTOURS_MINEURES
10
49.996
20
58.418
0
VERTEX
8
CONTOURS_MINEURES
10
50.153
20
58.156
0
VERTEX
8
CONTOURS_MINEURES
10
50.437
20
57.999
0
VERTEX
8
CONTOURS_MINEURES
10
50.437
20
57.560
0
VERTEX
8
CONTOURS_MINEURES
10
50.437
20
55.998
0
VERTEX
8
CONTOURS_MINEURES
10
50.576
20
54.576
0
VERTEX
8
CONTOURS_MINEURES
10
52.005
20
53.998
0
VERTEX
8
CONTOURS_MINEURES
10
52.005
20
51.997
0
VERTEX
8
CONTOURS_MINEURES
10
54.003
20
51.997
0
VERTEX
8
CONTOURS_MINEURES
10
56.002
20
51.330
0
VERTEX
8
CONTOURS_MINEURES
10
57.334
20
51.330
0
VERTEX
8
CONTOURS_MINEURES
10
58.000
20
51.330
0
VERTEX
8
CONTOURS_MINEURES
10
58.666
20
51.330
0
VERTEX
8
CONTOURS_MINEURES
10
59.998
20
51.330
0
VERTEX
8
CONTOURS_MINEURES
10
60.498
20
50.496
0
VERTEX
8
CONTOURS_MINEURES
10
61.997
20
50.170
0
VERTEX
8
CONTOURS_MINEURES
10
63.821
20
50.170
0
VERTEX
8
CONTOURS_MINEURES
10
63.995
20
50.170
0
SEQEND
0
POLYLINE
8
CONTOURS_MINEURES
66
1
70
0
0
VERTEX
8
CONTOURS_MINEURES
10
47.760
20
66.002
0
VERTEX
8
CONTOURS_MINEURES
10
47.997
20
65.810
0
VERTEX
8
CONTOURS_MINEURES
10
49.804
20
65.810
0
VERTEX
8
CONTOURS_MINEURES
10
49.996
20
65.810
0
VERTEX
8
CONTOURS_MINEURES
10
50.799
20
64.802
0
VERTEX
8
CONTOURS_MINEURES
10
51.837
20
64.002
0
VERTEX
8
CONTOURS_MINEURES
10
51.837
20
63.835
0
VERTEX
8
CONTOURS_MINEURES
10
51.837
20
62.001
0
VERTEX
8
CONTOURS_MINEURES
10
51.837
20
60.167
0
VERTEX
8
CONTOURS_MINEURES
10
51.837
20
60.000
0
VERTEX
8
CONTOURS_MINEURES
10
51.900
20
59.896
0
VERTEX
8
CONTOURS_MINEURES
10
52.005
20
59.838
0
VERTEX
8
CONTOURS_MINEURES
10
52.167
20
59.838
0
VERTEX
8
CONTOURS_MINEURES
10
54.003
20
59.838
0
VERTEX
8
CONTOURS_MINEURES
10
54.926
20
59.077
0
VERTEX
8
CONTOURS_MINEURES
10
56.002
20
58.134
0
VERTEX
8
CONTOURS_MINEURES
10
56.136
20
58.134
0
VERTEX
8
CONTOURS_MINEURES
10
58.000
20
58.134
0
VERTEX
8
CONTOURS_MINEURES
10
58.134
20
58.134
0
VERTEX
8
CONTOURS_MINEURES
10
59.998
20
58.134
0
VERTEX
8
CONTOURS_MINEURES
10
60.141
20
57.999
0
VERTEX
8
CONTOURS_MINEURES
10
60.141
20
56.141
0
VERTEX
8
CONTOURS_MINEURES
10
60.141
20
55.998
0
VERTEX
8
CONTOURS_MINEURES
10
60.969
20
54.970
0
VERTEX
8
CONTOURS_MINEURES
10
61.997
20
54.297
0
VERTEX
8
CONTOURS_MINEURES
10
63.696
20
54.297
0
VERTEX
8
CONTOURS_MINEURES
10
63.995
20
54.297
0
SEQEND
0
POLYLINE
8
CONTOURS_MINEURES
66
1
70
0
0
VERTEX
8
CONTOURS_MINEURES
10
54.025
20
66.002
0
VERTEX
8
CONTOURS_MINEURES
10
56.002
20
64.065
0
VERTEX
8
CONTOURS_MINEURES
10
56.065
20
64.065
0
VERTEX
8
CONTOURS_MINEURES
10
58.000
20
64.065
0
VERTEX
8
CONTOURS_MINEURES
10
59.935
20
64.065
0
VERTEX
8
CONTOURS_MINEURES
10
59.998
20
64.065
0
VERTEX
8
CONTOURS_MINEURES
10
60.029
20
64.032
0
VERTEX
8
CONTOURS_MINEURES
10
60.064
20
64.002
0
VERTEX
8
CONTOURS_MINEURES
10
60.064
20
63.936
0
VERTEX
8
CONTOURS_MINEURES
10
60.064
20
62.001
0
VERTEX
8
CONTOURS_MINEURES
10
60.064
20
60.065
0
VERTEX
8
CONTOURS_MINEURES
10
60.064
20
60.000
0
VERTEX
8
CONTOURS_MINEURES
10
61.997
20
58.183
0
VERTEX
8
CONTOURS_MINEURES
10
62.180
20
58.183
0
VERTEX
8
CONTOURS_MINEURES
10
63.995
20
58.183
0
SEQEND
0
POLYLINE
8
CONTOURS_MINEURES
66
1
70
0
0
VERTEX
8
CONTOURS_MINEURES
10
60.178
20
66.002
0
VERTEX
8
CONTOURS_MINEURES
10
61.059
20
65.064
0
VERTEX
8
CONTOURS_MINEURES
10
61.997
20
64.217
0
VERTEX
8
CONTOURS_MINEURES
10
62.212
20
64.217
0
VERTEX
8
CONTOURS_MINEURES
10
63.995
20
64.217
0
SEQEND
0
POLYLINE
8
CONTOURS_MAJEURES
66
1
70
0
0
VERTEX
8
CONTOURS_MAJEURES
10
0.005
20
6.354
0
VERTEX
8
CONTOURS_MAJEURES
10
0.587
20
7.418
0
VERTEX
8
CONTOURS_MAJEURES
10
0.564
20
8.002
0
VERTEX
8
CONTOURS_MAJEURES
10
0.564
20
9.443
0
VERTEX
8
CONTOURS_MAJEURES
10
0.564
20
10.003
0
VERTEX
8
CONTOURS_MAJEURES
10
0.564
20
10.563
0
VERTEX
8
CONTOURS_MAJEURES
10
0.564
20
12.004
0
VERTEX
8
CONTOURS_MAJEURES
10
0.945
20
13.063
0
VERTEX
8
CONTOURS_MAJEURES
10
0.931
20
14.004
0
VERTEX
8
CONTOURS_MAJEURES
10
0.931
20
14.932
0
VERTEX
8
CONTOURS_MAJEURES
10
0.931
20
16.005
0
VERTEX
8
CONTOURS_MAJEURES
10
0.810
20
17.192
0
VERTEX
8
CONTOURS_MAJEURES
10
0.718
20
17.995
0
VERTEX
8
CONTOURS_MAJEURES
10
0.718
20
18.709
0
VERTEX
8
CONTOURS_MAJEURES
10
0.718
20
19.996
0
VERTEX
8
CONTOURS_MAJEURES
10
0.598
20
21.402
0
VERTEX
8
CONTOURS_MAJEURES
10
0.779
20
21.996
0
VERTEX
8
CONTOURS_MAJEURES
10
0.779
20
22.772
0
VERTEX
8
CONTOURS_MAJEURES
10
0.779
20
23.997
0
VERTEX
8
CONTOURS_MAJEURES
10
0.779
20
24.773
0
VERTEX
8
CONTOURS_MAJEURES
10
0.779
20
25.998
0
VERTEX
8
CONTOURS_MAJEURES
10
0.804
20
27.198
0
VERTEX
8
CONTOURS_MAJEURES
10
1.180
20
27.999
0
VERTEX
8
CONTOURS_MAJEURES
10
1.180
20
29.176
0
VERTEX
8
CONTOURS_MAJEURES
10
1.180
20
29.999
0
VERTEX
8
CONTOURS_MAJEURES
10
1.226
20
30.778
0
VERTEX
8
CONTOURS_MAJEURES
10
1.226
20
32.000
0
VERTEX
8
CONTOURS_MAJEURES
10
1.226
20
33.223
0
VERTEX
8
CONTOURS_MAJEURES
10
1.226
20
34.001
0
VERTEX
8
CONTOURS_MAJEURES
10
1.544
20
34.460
0
VERTEX
8
CONTOURS_MAJEURES
10
1.846
20
36.002
0
VERTEX
8
CONTOURS_MAJEURES
10
1.846
20
37.846
0
VERTEX
8
CONTOURS_MAJEURES
10
1.846
20
38.003
0
VERTEX
8
CONTOURS_MAJEURES
10
1.846
20
38.159
0
VERTEX
8
CONTOURS_MAJEURES
10
1.846
20
40.003
0
VERTEX
8
CONTOURS_MAJEURES
10
1.904
20
40.102
0
VERTEX
8
CONTOURS_MAJEURES
10
2.003
20
40.226
0
VERTEX
8
CONTOURS_MAJEURES
10
3.779
20
40.226
0
VERTEX
8
CONTOURS_MAJEURES
10
4.001
20
40.226
0
VERTEX
8
CONTOURS_MAJEURES
10
5.334
20
42.004
0
VERTEX
8
CONTOURS_MAJEURES
10
5.334
20
42.671
0
VERTEX
8
CONTOURS_MAJEURES
10
5.334
20
44.005
0
VERTEX
8
CONTOURS_MAJEURES
10
5.529
20
44.473
0
VERTEX
8
CONTOURS_MAJEURES
10
6.000
20
45.278
0
VERTEX
8
CONTOURS_MAJEURES
10
6.719
20
45.278
0
VERTEX
8
CONTOURS_MAJEURES
10
7.998
20
45.278
0
VERTEX
8
CONTOURS_MAJEURES
10
8.358
20
45.995
0
VERTEX
8
CONTOURS_MAJEURES
10
8.358
20
47.635
0
VERTEX
8
CONTOURS_MAJEURES
10
8.358
20
47.995
0
VERTEX
8
CONTOURS_MAJEURES
10
8.358
20
48.355
0
VERTEX
8
CONTOURS_MAJEURES
10
8.358
20
49.996
0
VERTEX
8
CONTOURS_MAJEURES
10
8.289
20
51.705
0
VERTEX
8
CONTOURS_MAJEURES
10
8.387
20
51.997
0
VERTEX
8
CONTOURS_MAJEURES
10
8.387
20
53.609
0
VERTEX
8
CONTOURS_MAJEURES
10
8.387
20
53.998
0
VERTEX
8
CONTOURS_MAJEURES
10
9.996
20
55.485
0
VERTEX
8
CONTOURS_MAJEURES
10
10.509
20
55.485
0
VERTEX
8
CONTOURS_MAJEURES
10
11.995
20
55.485
0
VERTEX
8
CONTOURS_MAJEURES
10
12.510
20
55.485
0
VERTEX
8
CONTOURS_MAJEURES
10
14.004
20
55.485
0
VERTEX
8
CONTOURS_MAJEURES
10
15.708
20
55.704
0
VERTEX
8
CONTOURS_MAJEURES
10
16.002
20
55.735
0
VERTEX
8
CONTOURS_MAJEURES
10
17.738
20
55.735
0
VERTEX
8
CONTOURS_MAJEURES
10
18.001
20
55.735
0
VERTEX
8
CONTOURS_MAJEURES
10
18.264
20
55.735
0
VERTEX
8
CONTOURS_MAJEURES
10
19.999
20
55.782
0
VERTEX
8
CONTOURS_MAJEURES
10
20.215
20
55.782
0
VERTEX
8
CONTOURS_MAJEURES
10
21.997
20
55.782
0
VERTEX
8
CONTOURS_MAJEURES
10
23.196
20
55.198
0
VERTEX
8
CONTOURS_MAJEURES
10
23.996
20
55.100
0
VERTEX
8
CONTOURS_MAJEURES
10
25.103
20
55.100
0
VERTEX
8
CONTOURS_MAJEURES
10
26.005
20
55.100
0
VERTEX
8
CONTOURS_MAJEURES
10
27.051
20
54.950
0
VERTEX
8
CONTOURS_MAJEURES
10
28.003
20
54.831
0
VERTEX
8
CONTOURS_MAJEURES
10
29.169
20
54.831
0
VERTEX
8
CONTOURS_MAJEURES
10
30.001
20
54.831
0
VERTEX
8
CONTOURS_MAJEURES
10
30.834
20
54.831
0
VERTEX
8
CONTOURS_MAJEURES
10
32.000
20
54.831
0
VERTEX
8
CONTOURS_MAJEURES
10
33.865
20
54.131
0
VERTEX
8
CONTOURS_MAJEURES
10
33.998
20
54.109
0
VERTEX
8
CONTOURS_MAJEURES
10
35.886
20
54.109
0
VERTEX
8
CONTOURS_MAJEURES
10
35.997
20
54.109
0
VERTEX
8
CONTOURS_MAJEURES
10
36.105
20
53.998
0
VERTEX
8
CONTOURS_MAJEURES
10
36.105
20
52.105
0
VERTEX
8
CONTOURS_MAJEURES
10
36.105
20
51.997
0
VERTEX
8
CONTOURS_MAJEURES
10
37.062
20
51.063
0
VERTEX
8
CONTOURS_MAJEURES
10
37.995
20
50.052
0
VERTEX
8
CONTOURS_MAJEURES
10
38.051
20
50.052
0
VERTEX
8
CONTOURS_MAJEURES
10
40.004
20
50.052
0
VERTEX
8
CONTOURS_MAJEURES
10
40.042
20
49.996
0
VERTEX
8
CONTOURS_MAJEURES
10
40.042
20
49.958
0
VERTEX
8
CONTOURS_MAJEURES
10
40.042
20
47.995
0
VERTEX
8
CONTOURS_MAJEURES
10
40.042
20
46.033
0
VERTEX
8
CONTOURS_MAJEURES
10
40.042
20
45.995
0
VERTEX
8
CONTOURS_MAJEURES
10
41.059
20
45.055
0
VERTEX
8
CONTOURS_MAJEURES
10
42.002
20
44.710
0
VERTEX
8
CONTOURS_MAJEURES
10
43.292
20
44.710
0
VERTEX
8
CONTOURS_MAJEURES
10
44.001
20
44.710
0
VERTEX
8
CONTOURS_MAJEURES
10
44.709
20
44.710
0
VERTEX
8
CONTOURS_MAJEURES
10
45.999
20
44.710
0
VERTEX
8
CONTOURS_MAJEURES
10
47.543
20
44.457
0
VERTEX
8
CONTOURS_MAJEURES
10
47.997
20
44.260
0
VERTEX
8
CONTOURS_MAJEURES
10
48.254
20
44.260
0
VERTEX
8
CONTOURS_MAJEURES
10
49.996
20
44.260
0
VERTEX
8
CONTOURS_MAJEURES
10
50.651
20
44.005
0
VERTEX
8
CONTOURS_MAJEURES
10
50.651
20
42.657
0
VERTEX
8
CONTOURS_MAJEURES
10
50.651
20
42.004
0
VERTEX
8
CONTOURS_MAJEURES
10
52.005
20
41.291
0
VERTEX
8
CONTOURS_MAJEURES
10
52.717
20
41.291
0
VERTEX
8
CONTOURS_MAJEURES
10
54.003
20
41.291
0
VERTEX
8
CONTOURS_MAJEURES
10
54.871
20
40.872
0
VERTEX
8
CONTOURS_MAJEURES
10
56.002
20
40.529
0
VERTEX
8
CONTOURS_MAJEURES
10
57.475
20
40.529
0
VERTEX
8
CONTOURS_MAJEURES
10
58.000
20
40.529
0
VERTEX
8
CONTOURS_MAJEURES
10
58.525
20
40.529
0
VERTEX
8
CONTOURS_MAJEURES
10
59.998
20
40.529
0
VERTEX
8
CONTOURS_MAJEURES
10
60.407
20
40.413
0
VERTEX
8
CONTOURS_MAJEURES
10
61.207
20
40.003
0
VERTEX
8
CONTOURS_MAJEURES
10
61.207
20
38.794
0
VERTEX
8
CONTOURS_MAJEURES
10
61.207
20
38.003
0
VERTEX
8
CONTOURS_MAJEURES
10
61.207
20
36.793
0
VERTEX
8
CONTOURS_MAJEURES
10
61.207
20
36.002
0
VERTEX
8
CONTOURS_MAJEURES
10
61.997
20
35.372
0
VERTEX
8
CONTOURS_MAJEURES
10
63.366
20
35.372
0
VERTEX
8
CONTOURS_MAJEURES
10
63.995
20
35.372
0
SEQEND
0
POLYLINE
8
CONTOURS_MAJEURES
66
1
70
0
0
VERTEX
8
CONTOURS_MAJEURES
10
60.178
20
66.002
0
VERTEX
8
CONTOURS_MAJEURES
10
61.059
20
65.064
0
VERTEX
8
CONTOURS_MAJEURES
10
61.997
20
64.217
0
VERTEX
8
CONTOURS_MAJEURES
10
62.212
20
64.217
0
VERTEX
8
CONTOURS_MAJEURES
10
63.995
20
64.217
0
SEQEND
0
POLYLINE
8
PARCELLE
66
1
70
1
0
VERTEX
8
PARCELLE
10
30.861
20
20.692
0
VERTEX
8
PARCELLE
10
30.013
20
22.377
0
VERTEX
8
PARCELLE
10
29.245
20
23.881
0
VERTEX
8
PARCELLE
10
22.680
20
36.866
0
VERTEX
8
PARCELLE
10
20.000
20
42.171
0
VERTEX
8
PARCELLE
10
28.427
20
46.075
0
VERTEX
8
PARCELLE
10
29.671
20
46.646
0
VERTEX
8
PARCELLE
10
31.237
20
46.034
0
VERTEX
8
PARCELLE
10
33.691
20
44.078
0
VERTEX
8
PARCELLE
10
36.062
20
41.303
0
VERTEX
8
PARCELLE
10
38.535
20
37.728
0
VERTEX
8
PARCELLE
10
45.157
20
27.311
0
VERTEX
8
PARCELLE
10
45.296
20
27.090
0
VERTEX
8
PARCELLE
10
31.215
20
20.000
0
VERTEX
8
PARCELLE
10
30.861
20
20.692
0
SEQEND
0
TEXT
8
POINTS_COTES
10
0.005
20
-0.001
40
1.0
1
29.9
0
TEXT
8
POINTS_COTES
10
45.999
20
2.000
40
1.0
1
26.6
0
TEXT
8
POINTS_COTES
10
26.005
20
6.001
40
1.0
1
28.9
0
TEXT
8
POINTS_COTES
10
6.000
20
10.003
40
1.0
1
29.3
0
TEXT
8
POINTS_COTES
10
52.005
20
12.004
40
1.0
1
27.4
0
TEXT
8
POINTS_COTES
10
32.000
20
16.005
40
1.0
1
27.8
0
TEXT
8
POINTS_COTES
10
11.995
20
19.996
40
1.0
1
29.0
0
TEXT
8
POINTS_COTES
10
58.000
20
21.996
40
1.0
1
28.5
0
TEXT
8
POINTS_COTES
10
37.995
20
25.998
40
1.0
1
27.8
0
TEXT
8
POINTS_COTES
10
18.001
20
29.999
40
1.0
1
28.5
0
TEXT
8
POINTS_COTES
10
63.995
20
32.000
40
1.0
1
29.6
0
TEXT
8
POINTS_COTES
10
44.001
20
36.002
40
1.0
1
29.2
0
TEXT
8
POINTS_COTES
10
23.996
20
40.003
40
1.0
1
28.7
0
TEXT
8
POINTS_COTES
10
4.001
20
44.005
40
1.0
1
30.3
0
TEXT
8
POINTS_COTES
10
49.996
20
45.995
40
1.0
1
31.0
0
TEXT
8
POINTS_COTES
10
30.001
20
49.996
40
1.0
1
29.3
0
TEXT
8
POINTS_COTES
10
9.996
20
53.998
40
1.0
1
29.7
0
TEXT
8
POINTS_COTES
10
56.002
20
55.998
40
1.0
1
32.9
0
TEXT
8
POINTS_COTES
10
35.997
20
60.000
40
1.0
1
30.8
0
TEXT
8
POINTS_COTES
10
16.002
20
64.002
40
1.0
1
30.7
0
TEXT
8
POINTS_COTES
10
61.997
20
66.002
40
1.0
1
35.9
0
ENDSEC
0
EOF
