0
SECTION
2
HEADER
0
ENDSEC
0
SECTION
2
TABLES
0
TABLE
2
LAYER
70
4
0
LAYER
2
CONTOURS_MINEURES
70
0
62
8
6
CONTINUOUS
0
LAYER
2
CONTOURS_MAJEURES
70
0
62
3
6
CONTINUOUS
0
LAYER
2
PARCELLE
70
0
62
4
6
CONTINUOUS
0
LAYER
2
POINTS_COTES
70
0
62
7
6
CONTINUOUS
0
ENDTAB
0
ENDSEC
0
SECTION
2
ENTITIES
0
POLYLINE
8
CONTOURS_MINEURES
66
1
70
0
0
VERTEX
8
CONTOURS_MINEURES
10
0.001
20
10.914
0
VERTEX
8
CONTOURS_MINEURES
10
0.560
20
10.560
0
VERTEX
8
CONTOURS_MINEURES
10
1.045
20
10.002
0
VERTEX
8
CONTOURS_MINEURES
10
3.066
20
6.939
0
VERTEX
8
CONTOURS_MINEURES
10
4.356
20
5.005
0
VERTEX
8
CONTOURS_MINEURES
10
4.677
20
4.680
0
VERTEX
8
CONTOURS_MINEURES
10
5.001
20
4.254
0
VERTEX
8
CONTOURS_MINEURES
10
8.271
20
-0.002
0
SEQEND
0
POLYLINE
8
CONTOURS_MINEURES
66
1
70
0
0
VERTEX
8
CONTOURS_MINEURES
10
14.233
20
19.994
0
VERTEX
8
CONTOURS_MINEURES
10
15.003
20
20.819
0
VERTEX
8
CONTOURS_MINEURES
10
15.398
20
19.994
0
VERTEX
8
CONTOURS_MINEURES
10
15.003
20
14.998
0
VERTEX
8
CONTOURS_MINEURES
10
14.258
20
19.250
0
VERTEX
8
CONTOURS_MINEURES
10
14.233
20
19.994
0
SEQEND
0
POLYLINE
8
CONTOURS_MINEURES
66
1
70
0
0
VERTEX
8
CONTOURS_MINEURES
10
0.001
20
19.867
0
VERTEX
8
CONTOURS_MINEURES
10
0.289
20
19.706
0
VERTEX
8
CONTOURS_MINEURES
10
5.001
20
18.884
0
VERTEX
8
CONTOURS_MINEURES
10
5.512
20
19.994
0
VERTEX
8
CONTOURS_MINEURES
10
6.467
20
23.534
0
VERTEX
8
CONTOURS_MINEURES
10
7.454
20
25.002
0
VERTEX
8
CONTOURS_MINEURES
10
10.002
20
27.023
0
VERTEX
8
CONTOURS_MINEURES
10
11.886
20
28.116
0
VERTEX
8
CONTOURS_MINEURES
10
15.003
20
28.307
0
VERTEX
8
CONTOURS_MINEURES
10
18.089
20
28.086
0
VERTEX
8
CONTOURS_MINEURES
10
20.003
20
26.749
0
VERTEX
8
CONTOURS_MINEURES
10
20.942
20
25.940
0
VERTEX
8
CONTOURS_MINEURES
10
21.331
20
25.002
0
VERTEX
8
CONTOURS_MINEURES
10
21.189
20
21.182
0
VERTEX
8
CONTOURS_MINEURES
10
21.025
20
19.994
0
VERTEX
8
CONTOURS_MINEURES
10
20.868
20
19.131
0
VERTEX
8
CONTOURS_MINEURES
10
20.003
20
15.130
0
VERTEX
8
CONTOURS_MINEURES
10
19.978
20
14.998
0
VERTEX
8
CONTOURS_MINEURES
10
19.370
20
10.634
0
VERTEX
8
CONTOURS_MINEURES
10
19.080
20
10.002
0
VERTEX
8
CONTOURS_MINEURES
10
18.144
20
8.144
0
VERTEX
8
CONTOURS_MINEURES
10
16.791
20
5.005
0
VERTEX
8
CONTOURS_MINEURES
10
16.395
20
3.611
0
VERTEX
8
CONTOURS_MINEURES
10
16.979
20
-0.002
0
SEQEND
0
POLYLINE
8
CONTOURS_MINEURES
66
1
70
0
0
VERTEX
8
CONTOURS_MINEURES
10
0.001
20
31.214
0
VERTEX
8
CONTOURS_MINEURES
10
1.393
20
31.389
0
VERTEX
8
CONTOURS_MINEURES
10
5.001
20
32.284
0
VERTEX
8
CONTOURS_MINEURES
10
6.824
20
33.173
0
VERTEX
8
CONTOURS_MINEURES
10
10.002
20
33.761
0
VERTEX
8
CONTOURS_MINEURES
10
13.213
20
33.207
0
VERTEX
8
CONTOURS_MINEURES
10
15.003
20
33.313
0
VERTEX
8
CONTOURS_MINEURES
10
16.811
20
33.188
0
VERTEX
8
CONTOURS_MINEURES
10
20.003
20
32.476
0
VERTEX
8
CONTOURS_MINEURES
10
22.010
20
32.004
0
VERTEX
8
CONTOURS_MINEURES
10
25.004
20
30.361
0
VERTEX
8
CONTOURS_MINEURES
10
25.359
20
29.998
0
VERTEX
8
CONTOURS_MINEURES
10
25.483
20
29.519
0
VERTEX
8
CONTOURS_MINEURES
10
26.906
20
25.002
0
VERTEX
8
CONTOURS_MINEURES
10
26.493
20
21.486
0
VERTEX
8
CONTOURS_MINEURES
10
26.568
20
19.994
0
VERTEX
8
CONTOURS_MINEURES
10
26.363
20
18.636
0
VERTEX
8
CONTOURS_MINEURES
10
25.669
20
14.998
0
VERTEX
8
CONTOURS_MINEURES
10
25.646
20
14.356
0
VERTEX
8
CONTOURS_MINEURES
10
25.333
20
10.002
0
VERTEX
8
CONTOURS_MINEURES
10
25.004
20
7.966
0
VERTEX
8
CONTOURS_MINEURES
10
24.576
20
5.433
0
VERTEX
8
CONTOURS_MINEURES
10
24.379
20
5.005
0
VERTEX
8
CONTOURS_MINEURES
10
24.105
20
4.105
0
VERTEX
8
CONTOURS_MINEURES
10
22.574
20
-0.002
0
SEQEND
0
POLYLINE
8
CONTOURS_MINEURES
66
1
70
0
0
VERTEX
8
CONTOURS_MINEURES
10
0.001
20
39.917
0
VERTEX
8
CONTOURS_MINEURES
10
0.076
20
39.926
0
VERTEX
8
CONTOURS_MINEURES
10
1.668
20
40.002
0
VERTEX
8
CONTOURS_MINEURES
10
5.001
20
40.103
0
VERTEX
8
CONTOURS_MINEURES
10
5.085
20
40.086
0
VERTEX
8
CONTOURS_MINEURES
10
7.502
20
40.002
0
VERTEX
8
CONTOURS_MINEURES
10
9.853
20
39.853
0
VERTEX
8
CONTOURS_MINEURES
10
10.002
20
39.880
0
VERTEX
8
CONTOURS_MINEURES
10
10.149
20
39.855
0
VERTEX
8
CONTOURS_MINEURES
10
15.003
20
38.772
0
VERTEX
8
CONTOURS_MINEURES
10
17.522
20
37.518
0
VERTEX
8
CONTOURS_MINEURES
10
20.003
20
36.873
0
VERTEX
8
CONTOURS_MINEURES
10
24.308
20
35.691
0
VERTEX
8
CONTOURS_MINEURES
10
25.004
20
35.526
0
VERTEX
8
CONTOURS_MINEURES
10
25.455
20
35.446
0
VERTEX
8
CONTOURS_MINEURES
10
26.145
20
34.995
0
VERTEX
8
CONTOURS_MINEURES
10
30.005
20
30.964
0
VERTEX
8
CONTOURS_MINEURES
10
30.279
20
30.272
0
VERTEX
8
CONTOURS_MINEURES
10
30.300
20
29.998
0
VERTEX
8
CONTOURS_MINEURES
10
30.391
20
29.612
0
VERTEX
8
CONTOURS_MINEURES
10
31.259
20
25.002
0
VERTEX
8
CONTOURS_MINEURES
10
31.380
20
21.372
0
VERTEX
8
CONTOURS_MINEURES
10
31.892
20
19.994
0
VERTEX
8
CONTOURS_MINEURES
10
31.417
20
16.409
0
VERTEX
8
CONTOURS_MINEURES
10
31.475
20
14.998
0
VERTEX
8
CONTOURS_MINEURES
10
31.346
20
11.342
0
VERTEX
8
CONTOURS_MINEURES
10
31.330
20
10.002
0
VERTEX
8
CONTOURS_MINEURES
10
31.234
20
8.773
0
VERTEX
8
CONTOURS_MINEURES
10
30.938
20
5.005
0
VERTEX
8
CONTOURS_MINEURES
10
30.005
20
0.693
0
VERTEX
8
CONTOURS_MINEURES
10
29.872
20
0.130
0
VERTEX
8
CONTOURS_MINEURES
10
29.821
20
-0.002
0
SEQEND
0
POLYLINE
8
CONTOURS_MINEURES
66
1
70
0
0
VERTEX
8
CONTOURS_MINEURES
10
0.001
20
46.374
0
VERTEX
8
CONTOURS_MINEURES
10
4.779
20
45.221
0
VERTEX
8
CONTOURS_MINEURES
10
5.001
20
45.156
0
VERTEX
8
CONTOURS_MINEURES
10
5.733
20
44.999
0
VERTEX
8
CONTOURS_MINEURES
10
9.270
20
44.267
0
VERTEX
8
CONTOURS_MINEURES
10
10.002
20
44.242
0
VERTEX
8
CONTOURS_MINEURES
10
10.914
20
44.088
0
VERTEX
8
CONTOURS_MINEURES
10
15.003
20
44.459
0
VERTEX
8
CONTOURS_MINEURES
10
17.976
20
42.974
0
VERTEX
8
CONTOURS_MINEURES
10
20.003
20
41.978
0
VERTEX
8
CONTOURS_MINEURES
10
21.573
20
41.571
0
VERTEX
8
CONTOURS_MINEURES
10
25.004
20
40.655
0
VERTEX
8
CONTOURS_MINEURES
10
28.290
20
40.002
0
VERTEX
8
CONTOURS_MINEURES
10
29.747
20
39.744
0
VERTEX
8
CONTOURS_MINEURES
10
30.005
20
39.576
0
VERTEX
8
CONTOURS_MINEURES
10
33.733
20
38.729
0
VERTEX
8
CONTOURS_MINEURES
10
32.910
20
34.995
0
VERTEX
8
CONTOURS_MINEURES
10
33.505
20
33.496
0
VERTEX
8
CONTOURS_MINEURES
10
33.772
20
29.998
0
VERTEX
8
CONTOURS_MINEURES
10
34.937
20
25.070
0
VERTEX
8
CONTOURS_MINEURES
10
34.950
20
25.002
0
VERTEX
8
CONTOURS_MINEURES
10
34.952
20
24.948
0
VERTEX
8
CONTOURS_MINEURES
10
35.005
20
24.804
0
VERTEX
8
CONTOURS_MINEURES
10
36.510
20
19.994
0
VERTEX
8
CONTOURS_MINEURES
10
37.213
20
17.784
0
VERTEX
8
CONTOURS_MINEURES
10
37.326
20
14.998
0
VERTEX
8
CONTOURS_MINEURES
10
37.295
20
12.294
0
VERTEX
8
CONTOURS_MINEURES
10
37.378
20
10.002
0
VERTEX
8
CONTOURS_MINEURES
10
37.229
20
7.775
0
VERTEX
8
CONTOURS_MINEURES
10
37.007
20
5.005
0
VERTEX
8
CONTOURS_MINEURES
10
36.634
20
1.632
0
VERTEX
8
CONTOURS_MINEURES
10
36.528
20
-0.002
0
SEQEND
0
POLYLINE
8
CONTOURS_MINEURES
66
1
70
0
0
VERTEX
8
CONTOURS_MINEURES
10
0.001
20
52.688
0
VERTEX
8
CONTOURS_MINEURES
10
2.368
20
52.365
0
VERTEX
8
CONTOURS_MINEURES
10
5.001
20
50.794
0
VERTEX
8
CONTOURS_MINEURES
10
5.665
20
50.660
0
VERTEX
8
CONTOURS_MINEURES
10
6.831
20
49.995
0
VERTEX
8
CONTOURS_MINEURES
10
10.002
20
49.315
0
VERTEX
8
CONTOURS_MINEURES
10
14.645
20
49.995
0
VERTEX
8
CONTOURS_MINEURES
10
15.003
20
50.075
0
VERTEX
8
CONTOURS_MINEURES
10
15.129
20
49.995
0
VERTEX
8
CONTOURS_MINEURES
10
18.511
20
48.504
0
VERTEX
8
CONTOURS_MINEURES
10
20.003
20
47.732
0
VERTEX
8
CONTOURS_MINEURES
10
23.108
20
46.892
0
VERTEX
8
CONTOURS_MINEURES
10
25.004
20
46.476
0
VERTEX
8
CONTOURS_MINEURES
10
26.464
20
46.457
0
VERTEX
8
CONTOURS_MINEURES
10
30.005
20
46.120
0
VERTEX
8
CONTOURS_MINEURES
10
32.974
20
47.028
0
VERTEX
8
CONTOURS_MINEURES
10
35.005
20
47.843
0
VERTEX
8
CONTOURS_MINEURES
10
37.305
20
47.692
0
VERTEX
8
CONTOURS_MINEURES
10
39.995
20
47.920
0
VERTEX
8
CONTOURS_MINEURES
10
41.901
20
46.903
0
VERTEX
8
CONTOURS_MINEURES
10
42.995
20
44.999
0
VERTEX
8
CONTOURS_MINEURES
10
41.956
20
43.040
0
VERTEX
8
CONTOURS_MINEURES
10
41.830
20
40.002
0
VERTEX
8
CONTOURS_MINEURES
10
39.995
20
37.973
0
VERTEX
8
CONTOURS_MINEURES
10
38.157
20
36.840
0
VERTEX
8
CONTOURS_MINEURES
10
37.702
20
34.995
0
VERTEX
8
CONTOURS_MINEURES
10
37.931
20
32.928
0
VERTEX
8
CONTOURS_MINEURES
10
37.256
20
29.998
0
VERTEX
8
CONTOURS_MINEURES
10
37.782
20
27.782
0
VERTEX
8
CONTOURS_MINEURES
10
38.454
20
25.002
0
VERTEX
8
CONTOURS_MINEURES
10
39.995
20
21.299
0
VERTEX
8
CONTOURS_MINEURES
10
40.578
20
20.578
0
VERTEX
8
CONTOURS_MINEURES
10
41.169
20
19.994
0
VERTEX
8
CONTOURS_MINEURES
10
42.579
20
17.580
0
VERTEX
8
CONTOURS_MINEURES
10
43.853
20
14.998
0
VERTEX
8
CONTOURS_MINEURES
10
43.900
20
13.903
0
VERTEX
8
CONTOURS_MINEURES
10
43.954
20
10.002
0
VERTEX
8
CONTOURS_MINEURES
10
43.580
20
6.419
0
VERTEX
8
CONTOURS_MINEURES
10
43.475
20
5.005
0
VERTEX
8
CONTOURS_MINEURES
10
43.365
20
3.372
0
VERTEX
8
CONTOURS_MINEURES
10
43.137
20
-0.002
0
SEQEND
0
POLYLINE
8
CONTOURS_MINEURES
66
1
70
0
0
VERTEX
8
CONTOURS_MINEURES
10
0.001
20
61.884
0
VERTEX
8
CONTOURS_MINEURES
10
3.469
20
63.464
0
VERTEX
8
CONTOURS_MINEURES
10
5.001
20
63.464
0
VERTEX
8
CONTOURS_MINEURES
10
6.902
20
63.097
0
VERTEX
8
CONTOURS_MINEURES
10
10.002
20
62.180
0
VERTEX
8
CONTOURS_MINEURES
10
12.873
20
59.999
0
VERTEX
8
CONTOURS_MINEURES
10
14.082
20
59.080
0
VERTEX
8
CONTOURS_MINEURES
10
15.003
20
58.850
0
VERTEX
8
CONTOURS_MINEURES
10
18.568
20
55.002
0
VERTEX
8
CONTOURS_MINEURES
10
20.003
20
53.994
0
VERTEX
8
CONTOURS_MINEURES
10
23.401
20
53.398
0
VERTEX
8
CONTOURS_MINEURES
10
25.004
20
53.013
0
VERTEX
8
CONTOURS_MINEURES
10
28.338
20
53.333
0
VERTEX
8
CONTOURS_MINEURES
10
30.005
20
53.308
0
VERTEX
8
CONTOURS_MINEURES
10
31.194
20
53.812
0
VERTEX
8
CONTOURS_MINEURES
10
34.319
20
55.002
0
VERTEX
8
CONTOURS_MINEURES
10
35.005
20
55.254
0
VERTEX
8
CONTOURS_MINEURES
10
39.227
20
55.771
0
VERTEX
8
CONTOURS_MINEURES
10
39.995
20
55.871
0
VERTEX
8
CONTOURS_MINEURES
10
40.658
20
55.665
0
VERTEX
8
CONTOURS_MINEURES
10
42.218
20
55.002
0
VERTEX
8
CONTOURS_MINEURES
10
44.996
20
53.729
0
VERTEX
8
CONTOURS_MINEURES
10
46.909
20
51.911
0
VERTEX
8
CONTOURS_MINEURES
10
49.779
20
49.995
0
VERTEX
8
CONTOURS_MINEURES
10
49.996
20
49.662
0
VERTEX
8
CONTOURS_MINEURES
10
51.478
20
46.479
0
VERTEX
8
CONTOURS_MINEURES
10
52.184
20
44.999
0
VERTEX
8
CONTOURS_MINEURES
10
49.996
20
41.707
0
VERTEX
8
CONTOURS_MINEURES
10
49.204
20
40.794
0
VERTEX
8
CONTOURS_MINEURES
10
48.808
20
40.002
0
VERTEX
8
CONTOURS_MINEURES
10
44.996
20
36.185
0
VERTEX
8
CONTOURS_MINEURES
10
43.945
20
34.995
0
VERTEX
8
CONTOURS_MINEURES
10
42.461
20
32.530
0
VERTEX
8
CONTOURS_MINEURES
10
41.382
20
29.998
0
VERTEX
8
CONTOURS_MINEURES
10
42.752
20
27.244
0
VERTEX
8
CONTOURS_MINEURES
10
43.805
20
25.002
0
VERTEX
8
CONTOURS_MINEURES
10
44.338
20
24.343
0
VERTEX
8
CONTOURS_MINEURES
10
44.996
20
23.694
0
VERTEX
8
CONTOURS_MINEURES
10
49.066
20
20.926
0
VERTEX
8
CONTOURS_MINEURES
10
49.996
20
20.466
0
VERTEX
8
CONTOURS_MINEURES
10
50.260
20
20.258
0
VERTEX
8
CONTOURS_MINEURES
10
50.341
20
19.994
0
VERTEX
8
CONTOURS_MINEURES
10
51.467
20
16.468
0
VERTEX
8
CONTOURS_MINEURES
10
51.604
20
14.998
0
VERTEX
8
CONTOURS_MINEURES
10
51.478
20
11.482
0
VERTEX
8
CONTOURS_MINEURES
10
51.330
20
10.002
0
VERTEX
8
CONTOURS_MINEURES
10
50.451
20
5.459
0
VERTEX
8
CONTOURS_MINEURES
10
50.351
20
5.005
0
VERTEX
8
CONTOURS_MINEURES
10
49.996
20
2.802
0
VERTEX
8
CONTOURS_MINEURES
10
49.582
20
0.413
0
VERTEX
8
CONTOURS_MINEURES
10
49.556
20
-0.002
0
SEQEND
0
POLYLINE
8
CONTOURS_MINEURES
66
1
70
0
0
VERTEX
8
CONTOURS_MINEURES
10
0.001
20
66.434
0
VERTEX
8
CONTOURS_MINEURES
10
3.195
20
66.804
0
VERTEX
8
CONTOURS_MINEURES
10
5.001
20
67.046
0
VERTEX
8
CONTOURS_MINEURES
10
7.131
20
67.128
0
VERTEX
8
CONTOURS_MINEURES
10
10.002
20
66.978
0
VERTEX
8
CONTOURS_MINEURES
10
14.042
20
65.957
0
VERTEX
8
CONTOURS_MINEURES
10
15.003
20
65.827
0
VERTEX
8
CONTOURS_MINEURES
10
15.693
20
65.687
0
VERTEX
8
CONTOURS_MINEURES
10
17.304
20
64.995
0
VERTEX
8
CONTOURS_MINEURES
10
18.615
20
63.609
0
VERTEX
8
CONTOURS_MINEURES
10
20.003
20
62.066
0
VERTEX
8
CONTOURS_MINEURES
10
23.912
20
61.090
0
VERTEX
8
CONTOURS_MINEURES
10
25.004
20
60.862
0
VERTEX
8
CONTOURS_MINEURES
10
25.816
20
60.810
0
VERTEX
8
CONTOURS_MINEURES
10
30.005
20
61.014
0
VERTEX
8
CONTOURS_MINEURES
10
32.957
20
62.046
0
VERTEX
8
CONTOURS_MINEURES
10
35.005
20
62.295
0
VERTEX
8
CONTOURS_MINEURES
10
37.576
20
62.573
0
VERTEX
8
CONTOURS_MINEURES
10
39.995
20
62.864
0
VERTEX
8
CONTOURS_MINEURES
10
42.986
20
62.007
0
VERTEX
8
CONTOURS_MINEURES
10
44.996
20
61.512
0
VERTEX
8
CONTOURS_MINEURES
10
47.236
20
59.999
0
VERTEX
8
CONTOURS_MINEURES
10
49.996
20
57.613
0
VERTEX
8
CONTOURS_MINEURES
10
51.231
20
56.236
0
VERTEX
8
CONTOURS_MINEURES
10
52.039
20
55.002
0
VERTEX
8
CONTOURS_MINEURES
10
54.997
20
52.217
0
VERTEX
8
CONTOURS_MINEURES
10
57.743
20
49.995
0
VERTEX
8
CONTOURS_MINEURES
10
58.495
20
48.493
0
VERTEX
8
CONTOURS_MINEURES
10
59.411
20
44.999
0
VERTEX
8
CONTOURS_MINEURES
10
57.792
20
42.206
0
VERTEX
8
CONTOURS_MINEURES
10
56.562
20
40.002
0
VERTEX
8
CONTOURS_MINEURES
10
56.444
20
38.554
0
VERTEX
8
CONTOURS_MINEURES
10
55.168
20
34.995
0
VERTEX
8
CONTOURS_MINEURES
10
55.197
20
34.795
0
VERTEX
8
CONTOURS_MINEURES
10
55.633
20
29.998
0
VERTEX
8
CONTOURS_MINEURES
10
56.839
20
26.843
0
VERTEX
8
CONTOURS_MINEURES
10
57.255
20
25.002
0
VERTEX
8
CONTOURS_MINEURES
10
57.639
20
22.356
0
VERTEX
8
CONTOURS_MINEURES
10
58.237
20
19.994
0
VERTEX
8
CONTOURS_MINEURES
10
58.004
20
16.990
0
VERTEX
8
CONTOURS_MINEURES
10
58.160
20
14.998
0
VERTEX
8
CONTOURS_MINEURES
10
57.790
20
12.208
0
VERTEX
8
CONTOURS_MINEURES
10
57.599
20
10.002
0
VERTEX
8
CONTOURS_MINEURES
10
57.012
20
7.018
0
VERTEX
8
CONTOURS_MINEURES
10
56.597
20
5.005
0
VERTEX
8
CONTOURS_MINEURES
10
56.300
20
3.701
0
VERTEX
8
CONTOURS_MINEURES
10
55.835
20
-0.002
0
SEQEND
0
POLYLINE
8
CONTOURS_MINEURES
66
1
70
0
0
VERTEX
8
CONTOURS_MINEURES
10
0.001
20
68.664
0
VERTEX
8
CONTOURS_MINEURES
10
1.198
20
68.803
0
VERTEX
8
CONTOURS_MINEURES
10
5.001
20
69.312
0
VERTEX
8
CONTOURS_MINEURES
10
9.484
20
69.484
0
VERTEX
8
CONTOURS_MINEURES
10
10.002
20
69.457
0
VERTEX
8
CONTOURS_MINEURES
10
10.731
20
69.273
0
VERTEX
8
CONTOURS_MINEURES
10
15.003
20
68.697
0
VERTEX
8
CONTOURS_MINEURES
10
18.074
20
68.071
0
VERTEX
8
CONTOURS_MINEURES
10
20.003
20
67.244
0
VERTEX
8
CONTOURS_MINEURES
10
22.993
20
67.009
0
VERTEX
8
CONTOURS_MINEURES
10
25.004
20
66.871
0
VERTEX
8
CONTOURS_MINEURES
10
26.785
20
66.779
0
VERTEX
8
CONTOURS_MINEURES
10
30.005
20
66.704
0
VERTEX
8
CONTOURS_MINEURES
10
31.624
20
66.617
0
VERTEX
8
CONTOURS_MINEURES
10
35.005
20
66.800
0
VERTEX
8
CONTOURS_MINEURES
10
38.051
20
66.947
0
VERTEX
8
CONTOURS_MINEURES
10
39.995
20
66.958
0
VERTEX
8
CONTOURS_MINEURES
10
41.843
20
66.846
0
VERTEX
8
CONTOURS_MINEURES
10
44.996
20
66.514
0
VERTEX
8
CONTOURS_MINEURES
10
49.441
20
65.552
0
VERTEX
8
CONTOURS_MINEURES
10
49.996
20
65.433
0
VERTEX
8
CONTOURS_MINEURES
10
51.447
20
64.995
0
VERTEX
8
CONTOURS_MINEURES
10
53.368
20
63.368
0
VERTEX
8
CONTOURS_MINEURES
10
54.997
20
61.221
0
VERTEX
8
CONTOURS_MINEURES
10
55.504
20
60.505
0
VERTEX
8
CONTOURS_MINEURES
10
55.843
20
59.999
0
VERTEX
8
CONTOURS_MINEURES
10
57.530
20
57.533
0
VERTEX
8
CONTOURS_MINEURES
10
59.459
20
55.002
0
VERTEX
8
CONTOURS_MINEURES
10
59.998
20
54.562
0
VERTEX
8
CONTOURS_MINEURES
10
62.569
20
52.570
0
VERTEX
8
CONTOURS_MINEURES
10
64.998
20
49.995
0
VERTEX
8
CONTOURS_MINEURES
10
65.453
20
44.999
0
VERTEX
8
CONTOURS_MINEURES
10
65.361
20
44.636
0
VERTEX
8
CONTOURS_MINEURES
10
64.998
20
43.907
0
VERTEX
8
CONTOURS_MINEURES
10
63.644
20
41.356
0
VERTEX
8
CONTOURS_MINEURES
10
62.962
20
40.002
0
VERTEX
8
CONTOURS_MINEURES
10
62.603
20
37.393
0
VERTEX
8
CONTOURS_MINEURES
10
62.442
20
34.995
0
VERTEX
8
CONTOURS_MINEURES
10
62.665
20
32.663
0
VERTEX
8
CONTOURS_MINEURES
10
62.809
20
29.998
0
VERTEX
8
CONTOURS_MINEURES
10
63.289
20
26.710
0
VERTEX
8
CONTOURS_MINEURES
10
63.547
20
25.002
0
VERTEX
8
CONTOURS_MINEURES
10
63.675
20
23.676
0
VERTEX
8
CONTOURS_MINEURES
10
63.767
20
19.994
0
VERTEX
8
CONTOURS_MINEURES
10
63.273
20
16.722
0
VERTEX
8
CONTOURS_MINEURES
10
63.186
20
14.998
0
VERTEX
8
CONTOURS_MINEURES
10
62.983
20
12.984
0
VERTEX
8
CONTOURS_MINEURES
10
62.621
20
10.002
0
VERTEX
8
CONTOURS_MINEURES
10
62.222
20
7.779
0
VERTEX
8
CONTOURS_MINEURES
10
61.782
20
5.005
0
VERTEX
8
CONTOURS_MINEURES
10
61.094
20
1.096
0
VERTEX
8
CONTOURS_MINEURES
10
60.811
20
-0.002
0
SEQEND
0
POLYLINE
8
CONTOURS_MINEURES
66
1
70
0
0
VERTEX
8
CONTOURS_MINEURES
10
0.001
20
71.641
0
VERTEX
8
CONTOURS_MINEURES
10
2.707
20
72.295
0
VERTEX
8
CONTOURS_MINEURES
10
5.001
20
73.294
0
VERTEX
8
CONTOURS_MINEURES
10
8.820
20
73.819
0
VERTEX
8
CONTOURS_MINEURES
10
10.002
20
73.920
0
VERTEX
8
CONTOURS_MINEURES
10
13.532
20
73.530
0
VERTEX
8
CONTOURS_MINEURES
10
15.003
20
73.133
0
VERTEX
8
CONTOURS_MINEURES
10
18.158
20
71.846
0
VERTEX
8
CONTOURS_MINEURES
10
20.003
20
71.294
0
VERTEX
8
CONTOURS_MINEURES
10
21.184
20
71.182
0
VERTEX
8
CONTOURS_MINEURES
10
25.004
20
70.641
0
VERTEX
8
CONTOURS_MINEURES
10
29.885
20
70.122
0
VERTEX
8
CONTOURS_MINEURES
10
30.005
20
70.101
0
VERTEX
8
CONTOURS_MINEURES
10
30.942
20
70.003
0
VERTEX
8
CONTOURS_MINEURES
10
34.799
20
69.796
0
VERTEX
8
CONTOURS_MINEURES
10
35.005
20
69.807
0
VERTEX
8
CONTOURS_MINEURES
10
35.191
20
69.816
0
VERTEX
8
CONTOURS_MINEURES
10
39.995
20
69.844
0
VERTEX
8
CONTOURS_MINEURES
10
44.561
20
69.567
0
VERTEX
8
CONTOURS_MINEURES
10
44.996
20
69.522
0
VERTEX
8
CONTOURS_MINEURES
10
45.609
20
69.389
0
VERTEX
8
CONTOURS_MINEURES
10
49.996
20
68.449
0
VERTEX
8
CONTOURS_MINEURES
10
52.216
20
67.780
0
VERTEX
8
CONTOURS_MINEURES
10
54.997
20
66.983
0
VERTEX
8
CONTOURS_MINEURES
10
59.847
20
64.995
0
VERTEX
8
CONTOURS_MINEURES
10
59.910
20
64.907
0
VERTEX
8
CONTOURS_MINEURES
10
59.998
20
64.776
0
VERTEX
8
CONTOURS_MINEURES
10
63.173
20
59.999
0
VERTEX
8
CONTOURS_MINEURES
10
64.998
20
57.788
0
VERTEX
8
CONTOURS_MINEURES
10
66.289
20
56.293
0
VERTEX
8
CONTOURS_MINEURES
10
67.298
20
55.002
0
VERTEX
8
CONTOURS_MINEURES
10
69.144
20
50.852
0
VERTEX
8
CONTOURS_MINEURES
10
69.694
20
49.995
0
VERTEX
8
CONTOURS_MINEURES
10
69.999
20
47.171
0
VERTEX
8
CONTOURS_MINEURES
10
70.217
20
44.999
0
VERTEX
8
CONTOURS_MINEURES
10
69.999
20
44.056
0
VERTEX
8
CONTOURS_MINEURES
10
69.178
20
40.822
0
VERTEX
8
CONTOURS_MINEURES
10
68.770
20
40.002
0
VERTEX
8
CONTOURS_MINEURES
10
68.584
20
38.586
0
VERTEX
8
CONTOURS_MINEURES
10
67.945
20
34.995
0
VERTEX
8
CONTOURS_MINEURES
10
67.913
20
32.082
0
VERTEX
8
CONTOURS_MINEURES
10
68.019
20
29.998
0
VERTEX
8
CONTOURS_MINEURES
10
68.258
20
28.259
0
VERTEX
8
CONTOURS_MINEURES
10
68.442
20
25.002
0
VERTEX
8
CONTOURS_MINEURES
10
68.475
20
21.521
0
VERTEX
8
CONTOURS_MINEURES
10
68.510
20
19.994
0
VERTEX
8
CONTOURS_MINEURES
10
68.055
20
16.940
0
VERTEX
8
CONTOURS_MINEURES
10
67.787
20
14.998
0
VERTEX
8
CONTOURS_MINEURES
10
67.472
20
12.474
0
VERTEX
8
CONTOURS_MINEURES
10
67.016
20
10.002
0
VERTEX
8
CONTOURS_MINEURES
10
66.397
20
6.403
0
VERTEX
8
CONTOURS_MINEURES
10
66.061
20
5.005
0
VERTEX
8
CONTOURS_MINEURES
10
65.790
20
4.212
0
VERTEX
8
CONTOURS_MINEURES
10
64.998
20
0.845
0
VERTEX
8
CONTOURS_MINEURES
10
64.780
20
-0.002
0
SEQEND
0
POLYLINE
8
CONTOURS_MINEURES
66
1
70
0
0
VERTEX
8
CONTOURS_MINEURES
10
0.001
20
75.877
0
VERTEX
8
CONTOURS_MINEURES
10
1.819
20
76.816
0
VERTEX
8
CONTOURS_MINEURES
10
5.001
20
78.348
0
VERTEX
8
CONTOURS_MINEURES
10
6.433
20
78.565
0
VERTEX
8
CONTOURS_MINEURES
10
10.002
20
79.262
0
VERTEX
8
CONTOURS_MINEURES
10
10.835
20
79.163
0
VERTEX
8
CONTOURS_MINEURES
10
15.003
20
78.854
0
VERTEX
8
CONTOURS_MINEURES
10
18.519
20
78.512
0
VERTEX
8
CONTOURS_MINEURES
10
20.003
20
78.071
0
VERTEX
8
CONTOURS_MINEURES
10
22.939
20
77.933
0
VERTEX
8
CONTOURS_MINEURES
10
25.004
20
77.728
0
VERTEX
8
CONTOURS_MINEURES
10
27.192
20
77.185
0
VERTEX
8
CONTOURS_MINEURES
10
30.005
20
76.676
0
VERTEX
8
CONTOURS_MINEURES
10
31.401
20
76.395
0
VERTEX
8
CONTOURS_MINEURES
10
35.005
20
76.017
0
VERTEX
8
CONTOURS_MINEURES
10
38.883
20
76.113
0
VERTEX
8
CONTOURS_MINEURES
10
39.995
20
76.100
0
VERTEX
8
CONTOURS_MINEURES
10
44.674
20
75.320
0
VERTEX
8
CONTOURS_MINEURES
10
44.996
20
75.262
0
VERTEX
8
CONTOURS_MINEURES
10
45.588
20
74.999
0
VERTEX
8
CONTOURS_MINEURES
10
48.571
20
73.575
0
VERTEX
8
CONTOURS_MINEURES
10
49.996
20
72.958
0
VERTEX
8
CONTOURS_MINEURES
10
51.976
20
71.981
0
VERTEX
8
CONTOURS_MINEURES
10
54.997
20
70.134
0
VERTEX
8
CONTOURS_MINEURES
10
55.189
20
70.003
0
VERTEX
8
CONTOURS_MINEURES
10
59.998
20
68.311
0
VERTEX
8
CONTOURS_MINEURES
10
62.298
20
67.299
0
VERTEX
8
CONTOURS_MINEURES
10
64.998
20
65.815
0
VERTEX
8
CONTOURS_MINEURES
10
66.405
20
64.995
0
VERTEX
8
CONTOURS_MINEURES
10
67.829
20
62.827
0
VERTEX
8
CONTOURS_MINEURES
10
69.999
20
60.707
0
VERTEX
8
CONTOURS_MINEURES
10
70.921
20
59.999
0
VERTEX
8
CONTOURS_MINEURES
10
72.999
20
58.000
0
VERTEX
8
CONTOURS_MINEURES
10
74.117
20
55.002
0
VERTEX
8
CONTOURS_MINEURES
10
74.369
20
54.371
0
VERTEX
8
CONTOURS_MINEURES
10
74.651
20
49.995
0
VERTEX
8
CONTOURS_MINEURES
10
74.538
20
45.459
0
VERTEX
8
CONTOURS_MINEURES
10
74.585
20
44.999
0
VERTEX
8
CONTOURS_MINEURES
10
74.460
20
44.459
0
VERTEX
8
CONTOURS_MINEURES
10
73.774
20
40.002
0
VERTEX
8
CONTOURS_MINEURES
10
73.326
20
36.671
0
VERTEX
8
CONTOURS_MINEURES
10
73.054
20
34.995
0
VERTEX
8
CONTOURS_MINEURES
10
73.034
20
33.031
0
VERTEX
8
CONTOURS_MINEURES
10
72.946
20
29.998
0
VERTEX
8
CONTOURS_MINEURES
10
73.019
20
26.981
0
VERTEX
8
CONTOURS_MINEURES
10
73.130
20
25.002
0
VERTEX
8
CONTOURS_MINEURES
10
73.148
20
23.147
0
VERTEX
8
CONTOURS_MINEURES
10
73.133
20
19.994
0
VERTEX
8
CONTOURS_MINEURES
10
72.810
20
17.807
0
VERTEX
8
CONTOURS_MINEURES
10
72.612
20
14.998
0
VERTEX
8
CONTOURS_MINEURES
10
72.015
20
12.984
0
VERTEX
8
CONTOURS_MINEURES
10
71.418
20
10.002
0
VERTEX
8
CONTOURS_MINEURES
10
70.961
20
9.040
0
VERTEX
8
CONTOURS_MINEURES
10
69.999
20
5.005
0
VERTEX
8
CONTOURS_MINEURES
10
68.723
20
1.275
0
VERTEX
8
CONTOURS_MINEURES
10
68.423
20
-0.002
0
SEQEND
0
POLYLINE
8
CONTOURS_MINEURES
66
1
70
0
0
VERTEX
8
CONTOURS_MINEURES
10
0.001
20
80.948
0
VERTEX
8
CONTOURS_MINEURES
10
2.454
20
82.546
0
VERTEX
8
CONTOURS_MINEURES
10
5.001
20
83.807
0
VERTEX
8
CONTOURS_MINEURES
10
9.569
20
84.569
0
VERTEX
8
CONTOURS_MINEURES
10
10.002
20
84.653
0
VERTEX
8
CONTOURS_MINEURES
10
10.378
20
84.627
0
VERTEX
8
CONTOURS_MINEURES
10
15.003
20
84.681
0
VERTEX
8
CONTOURS_MINEURES
10
17.753
20
85.003
0
VERTEX
8
CONTOURS_MINEURES
10
20.003
20
85.286
0
VERTEX
8
CONTOURS_MINEURES
10
20.283
20
85.282
0
VERTEX
8
CONTOURS_MINEURES
10
25.004
20
85.100
0
VERTEX
8
CONTOURS_MINEURES
10
25.310
20
85.003
0
VERTEX
8
CONTOURS_MINEURES
10
30.005
20
83.436
0
VERTEX
8
CONTOURS_MINEURES
10
31.971
20
83.034
0
VERTEX
8
CONTOURS_MINEURES
10
35.005
20
82.275
0
VERTEX
8
CONTOURS_MINEURES
10
37.053
20
82.051
0
VERTEX
8
CONTOURS_MINEURES
10
39.995
20
82.016
0
VERTEX
8
CONTOURS_MINEURES
10
41.720
20
81.723
0
VERTEX
8
CONTOURS_MINEURES
10
44.996
20
81.122
0
VERTEX
8
CONTOURS_MINEURES
10
45.852
20
80.853
0
VERTEX
8
CONTOURS_MINEURES
10
47.750
20
79.996
0
VERTEX
8
CONTOURS_MINEURES
10
49.996
20
79.051
0
VERTEX
8
CONTOURS_MINEURES
10
51.864
20
78.129
0
VERTEX
8
CONTOURS_MINEURES
10
54.997
20
76.665
0
VERTEX
8
CONTOURS_MINEURES
10
56.148
20
76.149
0
VERTEX
8
CONTOURS_MINEURES
10
57.823
20
74.999
0
VERTEX
8
CONTOURS_MINEURES
10
59.998
20
73.572
0
VERTEX
8
CONTOURS_MINEURES
10
62.006
20
72.009
0
VERTEX
8
CONTOURS_MINEURES
10
63.844
20
70.003
0
VERTEX
8
CONTOURS_MINEURES
10
64.646
20
69.650
0
VERTEX
8
CONTOURS_MINEURES
10
64.998
20
69.457
0
VERTEX
8
CONTOURS_MINEURES
10
66.303
20
68.696
0
VERTEX
8
CONTOURS_MINEURES
10
69.999
20
66.468
0
VERTEX
8
CONTOURS_MINEURES
10
70.907
20
65.905
0
VERTEX
8
CONTOURS_MINEURES
10
72.971
20
64.995
0
VERTEX
8
CONTOURS_MINEURES
10
75.000
20
63.330
0
VERTEX
8
CONTOURS_MINEURES
10
76.638
20
61.636
0
VERTEX
8
CONTOURS_MINEURES
10
76.946
20
59.999
0
VERTEX
8
CONTOURS_MINEURES
10
76.681
20
58.319
0
VERTEX
8
CONTOURS_MINEURES
10
77.152
20
55.002
0
VERTEX
8
CONTOURS_MINEURES
10
76.979
20
53.020
0
VERTEX
8
CONTOURS_MINEURES
10
77.067
20
49.995
0
VERTEX
8
CONTOURS_MINEURES
10
77.034
20
47.031
0
VERTEX
8
CONTOURS_MINEURES
10
76.885
20
44.999
0
VERTEX
8
CONTOURS_MINEURES
10
76.806
20
43.194
0
VERTEX
8
CONTOURS_MINEURES
10
76.588
20
40.002
0
VERTEX
8
CONTOURS_MINEURES
10
76.372
20
36.369
0
VERTEX
8
CONTOURS_MINEURES
10
76.312
20
34.995
0
VERTEX
8
CONTOURS_MINEURES
10
76.359
20
33.636
0
VERTEX
8
CONTOURS_MINEURES
10
76.310
20
29.998
0
VERTEX
8
CONTOURS_MINEURES
10
76.351
20
26.352
0
VERTEX
8
CONTOURS_MINEURES
10
76.489
20
25.002
0
VERTEX
8
CONTOURS_MINEURES
10
76.604
20
23.395
0
VERTEX
8
CONTOURS_MINEURES
10
76.595
20
19.994
0
VERTEX
8
CONTOURS_MINEURES
10
76.462
20
16.459
0
VERTEX
8
CONTOURS_MINEURES
10
76.392
20
14.998
0
VERTEX
8
CONTOURS_MINEURES
10
76.196
20
13.803
0
VERTEX
8
CONTOURS_MINEURES
10
75.605
20
10.002
0
VERTEX
8
CONTOURS_MINEURES
10
75.464
20
9.537
0
VERTEX
8
CONTOURS_MINEURES
10
75.000
20
7.748
0
VERTEX
8
CONTOURS_MINEURES
10
74.116
20
5.888
0
VERTEX
8
CONTOURS_MINEURES
10
73.906
20
5.005
0
VERTEX
8
CONTOURS_MINEURES
10
73.343
20
3.346
0
VERTEX
8
CONTOURS_MINEURES
10
72.084
20
-0.002
0
SEQEND
0
POLYLINE
8
CONTOURS_MINEURES
66
1
70
0
0
VERTEX
8
CONTOURS_MINEURES
10
0.001
20
86.820
0
VERTEX
8
CONTOURS_MINEURES
10
2.157
20
87.845
0
VERTEX
8
CONTOURS_MINEURES
10
5.001
20
89.176
0
VERTEX
8
CONTOURS_MINEURES
10
9.430
20
89.999
0
VERTEX
8
CONTOURS_MINEURES
10
10.002
20
90.102
0
VERTEX
8
CONTOURS_MINEURES
10
14.529
20
90.473
0
VERTEX
8
CONTOURS_MINEURES
10
15.003
20
90.523
0
VERTEX
8
CONTOURS_MINEURES
10
15.738
20
90.734
0
VERTEX
8
CONTOURS_MINEURES
10
20.003
20
91.504
0
VERTEX
8
CONTOURS_MINEURES
10
23.540
20
91.462
0
VERTEX
8
CONTOURS_MINEURES
10
25.004
20
91.498
0
VERTEX
8
CONTOURS_MINEURES
10
26.210
20
91.205
0
VERTEX
8
CONTOURS_MINEURES
10
30.005
20
90.281
0
VERTEX
8
CONTOURS_MINEURES
10
30.854
20
89.999
0
VERTEX
8
CONTOURS_MINEURES
10
35.005
20
88.617
0
VERTEX
8
CONTOURS_MINEURES
10
37.933
20
87.935
0
VERTEX
8
CONTOURS_MINEURES
10
39.995
20
87.739
0
VERTEX
8
CONTOURS_MINEURES
10
42.695
20
87.301
0
VERTEX
8
CONTOURS_MINEURES
10
44.996
20
87.286
0
VERTEX
8
CONTOURS_MINEURES
10
46.967
20
86.973
0
VERTEX
8
CONTOURS_MINEURES
10
49.996
20
85.658
0
VERTEX
8
CONTOURS_MINEURES
10
51.287
20
85.003
0
VERTEX
8
CONTOURS_MINEURES
10
54.997
20
83.381
0
VERTEX
8
CONTOURS_MINEURES
10
57.261
20
82.263
0
VERTEX
8
CONTOURS_MINEURES
10
59.998
20
80.912
0
VERTEX
8
CONTOURS_MINEURES
10
61.298
20
79.996
0
VERTEX
8
CONTOURS_MINEURES
10
64.998
20
77.038
0
VERTEX
8
CONTOURS_MINEURES
10
65.866
20
75.866
0
VERTEX
8
CONTOURS_MINEURES
10
66.582
20
74.999
0
VERTEX
8
CONTOURS_MINEURES
10
69.635
20
70.366
0
VERTEX
8
CONTOURS_MINEURES
10
69.884
20
70.003
0
VERTEX
8
CONTOURS_MINEURES
10
69.999
20
69.933
0
VERTEX
8
CONTOURS_MINEURES
10
73.044
20
68.045
0
VERTEX
8
CONTOURS_MINEURES
10
75.000
20
67.183
0
VERTEX
8
CONTOURS_MINEURES
10
76.256
20
66.254
0
VERTEX
8
CONTOURS_MINEURES
10
78.945
20
64.995
0
VERTEX
8
CONTOURS_MINEURES
10
79.463
20
64.459
0
VERTEX
8
CONTOURS_MINEURES
10
80.000
20
61.605
0
VERTEX
8
CONTOURS_MINEURES
10
80.417
20
60.415
0
VERTEX
8
CONTOURS_MINEURES
10
80.406
20
59.999
0
VERTEX
8
CONTOURS_MINEURES
10
80.368
20
59.632
0
VERTEX
8
CONTOURS_MINEURES
10
80.000
20
58.085
0
VERTEX
8
CONTOURS_MINEURES
10
79.580
20
55.422
0
VERTEX
8
CONTOURS_MINEURES
10
79.640
20
55.002
0
VERTEX
8
CONTOURS_MINEURES
10
79.268
20
50.728
0
VERTEX
8
CONTOURS_MINEURES
10
79.289
20
49.995
0
VERTEX
8
CONTOURS_MINEURES
10
79.281
20
49.276
0
VERTEX
8
CONTOURS_MINEURES
10
78.969
20
44.999
0
VERTEX
8
CONTOURS_MINEURES
10
78.803
20
41.199
0
VERTEX
8
CONTOURS_MINEURES
10
78.721
20
40.002
0
VERTEX
8
CONTOURS_MINEURES
10
78.640
20
38.640
0
VERTEX
8
CONTOURS_MINEURES
10
78.482
20
34.995
0
VERTEX
8
CONTOURS_MINEURES
10
78.607
20
31.391
0
VERTEX
8
CONTOURS_MINEURES
10
78.588
20
29.998
0
VERTEX
8
CONTOURS_MINEURES
10
78.604
20
28.603
0
VERTEX
8
CONTOURS_MINEURES
10
78.970
20
25.002
0
VERTEX
8
CONTOURS_MINEURES
10
79.278
20
20.717
0
VERTEX
8
CONTOURS_MINEURES
10
79.276
20
19.994
0
VERTEX
8
CONTOURS_MINEURES
10
79.248
20
19.243
0
VERTEX
8
CONTOURS_MINEURES
10
79.045
20
14.998
0
VERTEX
8
CONTOURS_MINEURES
10
78.474
20
11.527
0
VERTEX
8
CONTOURS_MINEURES
10
78.237
20
10.002
0
VERTEX
8
CONTOURS_MINEURES
10
77.485
20
7.519
0
VERTEX
8
CONTOURS_MINEURES
10
76.832
20
5.005
0
VERTEX
8
CONTOURS_MINEURES
10
76.321
20
3.682
0
VERTEX
8
CONTOURS_MINEURES
10
75.474
20
-0.002
0
SEQEND
0
POLYLINE
8
CONTOURS_MINEURES
66
1
70
0
0
VERTEX
8
CONTOURS_MINEURES
10
0.001
20
91.714
0
VERTEX
8
CONTOURS_MINEURES
10
2.393
20
92.606
0
VERTEX
8
CONTOURS_MINEURES
10
5.001
20
93.927
0
VERTEX
8
CONTOURS_MINEURES
10
9.184
20
94.996
0
VERTEX
8
CONTOURS_MINEURES
10
9.839
20
95.159
0
VERTEX
8
CONTOURS_MINEURES
10
10.002
20
95.217
0
VERTEX
8
CONTOURS_MINEURES
10
10.271
20
95.266
0
VERTEX
8
CONTOURS_MINEURES
10
15.003
20
95.772
0
VERTEX
8
CONTOURS_MINEURES
10
16.345
20
96.340
0
VERTEX
8
CONTOURS_MINEURES
10
20.003
20
97.576
0
VERTEX
8
CONTOURS_MINEURES
10
22.369
20
97.635
0
VERTEX
8
CONTOURS_MINEURES
10
25.004
20
97.603
0
VERTEX
8
CONTOURS_MINEURES
10
27.140
20
97.135
0
VERTEX
8
CONTOURS_MINEURES
10
30.005
20
96.465
0
VERTEX
8
CONTOURS_MINEURES
10
34.717
20
94.996
0
VERTEX
8
CONTOURS_MINEURES
10
35.005
20
94.902
0
VERTEX
8
CONTOURS_MINEURES
10
35.128
20
94.873
0
VERTEX
8
CONTOURS_MINEURES
10
39.995
20
93.911
0
VERTEX
8
CONTOURS_MINEURES
10
43.834
20
93.835
0
VERTEX
8
CONTOURS_MINEURES
10
44.996
20
93.828
0
VERTEX
8
CONTOURS_MINEURES
10
46.381
20
93.612
0
VERTEX
8
CONTOURS_MINEURES
10
49.996
20
93.378
0
VERTEX
8
CONTOURS_MINEURES
10
52.761
20
92.762
0
VERTEX
8
CONTOURS_MINEURES
10
54.997
20
91.694
0
VERTEX
8
CONTOURS_MINEURES
10
56.008
20
91.009
0
VERTEX
8
CONTOURS_MINEURES
10
57.497
20
89.999
0
VERTEX
8
CONTOURS_MINEURES
10
59.998
20
88.415
0
VERTEX
8
CONTOURS_MINEURES
10
61.620
20
86.624
0
VERTEX
8
CONTOURS_MINEURES
10
63.748
20
85.003
0
VERTEX
8
CONTOURS_MINEURES
10
64.998
20
84.093
0
VERTEX
8
CONTOURS_MINEURES
10
68.727
20
79.996
0
VERTEX
8
CONTOURS_MINEURES
10
69.268
20
79.265
0
VERTEX
8
CONTOURS_MINEURES
10
69.999
20
78.380
0
VERTEX
8
CONTOURS_MINEURES
10
72.368
20
74.999
0
VERTEX
8
CONTOURS_MINEURES
10
73.310
20
73.311
0
VERTEX
8
CONTOURS_MINEURES
10
75.000
20
70.729
0
VERTEX
8
CONTOURS_MINEURES
10
75.354
20
70.003
0
VERTEX
8
CONTOURS_MINEURES
10
78.027
20
68.026
0
VERTEX
8
CONTOURS_MINEURES
10
80.000
20
67.102
0
VERTEX
8
CONTOURS_MINEURES
10
84.956
20
65.040
0
VERTEX
8
CONTOURS_MINEURES
10
85.001
20
65.027
0
VERTEX
8
CONTOURS_MINEURES
10
85.023
20
65.018
0
VERTEX
8
CONTOURS_MINEURES
10
85.058
20
64.995
0
VERTEX
8
CONTOURS_MINEURES
10
85.056
20
64.940
0
VERTEX
8
CONTOURS_MINEURES
10
85.001
20
63.330
0
VERTEX
8
CONTOURS_MINEURES
10
84.911
20
59.999
0
VERTEX
8
CONTOURS_MINEURES
10
84.450
20
55.553
0
VERTEX
8
CONTOURS_MINEURES
10
84.319
20
55.002
0
VERTEX
8
CONTOURS_MINEURES
10
84.173
20
54.173
0
VERTEX
8
CONTOURS_MINEURES
10
83.657
20
49.995
0
VERTEX
8
CONTOURS_MINEURES
10
83.345
20
48.341
0
VERTEX
8
CONTOURS_MINEURES
10
82.631
20
44.999
0
VERTEX
8
CONTOURS_MINEURES
10
82.087
20
42.913
0
VERTEX
8
CONTOURS_MINEURES
10
81.810
20
40.002
0
VERTEX
8
CONTOURS_MINEURES
10
81.627
20
38.374
0
VERTEX
8
CONTOURS_MINEURES
10
81.328
20
34.995
0
VERTEX
8
CONTOURS_MINEURES
10
81.571
20
31.567
0
VERTEX
8
CONTOURS_MINEURES
10
81.705
20
29.998
0
VERTEX
8
CONTOURS_MINEURES
10
82.216
20
27.216
0
VERTEX
8
CONTOURS_MINEURES
10
82.660
20
25.002
0
VERTEX
8
CONTOURS_MINEURES
10
83.269
20
21.729
0
VERTEX
8
CONTOURS_MINEURES
10
83.510
20
19.994
0
VERTEX
8
CONTOURS_MINEURES
10
83.245
20
16.752
0
VERTEX
8
CONTOURS_MINEURES
10
83.092
20
14.998
0
VERTEX
8
CONTOURS_MINEURES
10
82.311
20
12.689
0
VERTEX
8
CONTOURS_MINEURES
10
81.535
20
10.002
0
VERTEX
8
CONTOURS_MINEURES
10
80.000
20
7.134
0
VERTEX
8
CONTOURS_MINEURES
10
79.505
20
5.500
0
VERTEX
8
CONTOURS_MINEURES
10
79.377
20
5.005
0
VERTEX
8
CONTOURS_MINEURES
10
78.156
20
1.845
0
VERTEX
8
CONTOURS_MINEURES
10
77.731
20
-0.002
0
SEQEND
0
POLYLINE
8
CONTOURS_MINEURES
66
1
70
0
0
VERTEX
8
CONTOURS_MINEURES
10
0.001
20
95.984
0
VERTEX
8
CONTOURS_MINEURES
10
1.992
20
96.990
0
VERTEX
8
CONTOURS_MINEURES
10
5.001
20
98.470
0
VERTEX
8
CONTOURS_MINEURES
10
6.229
20
98.774
0
VERTEX
8
CONTOURS_MINEURES
10
9.659
20
100.003
0
VERTEX
8
CONTOURS_MINEURES
10
10.002
20
100.124
0
VERTEX
8
CONTOURS_MINEURES
10
14.142
20
100.863
0
VERTEX
8
CONTOURS_MINEURES
10
15.003
20
101.182
0
VERTEX
8
CONTOURS_MINEURES
10
17.649
20
102.356
0
VERTEX
8
CONTOURS_MINEURES
10
20.003
20
103.623
0
VERTEX
8
CONTOURS_MINEURES
10
23.441
20
103.438
0
VERTEX
8
CONTOURS_MINEURES
10
25.004
20
103.420
0
VERTEX
8
CONTOURS_MINEURES
10
27.011
20
102.994
0
VERTEX
8
CONTOURS_MINEURES
10
30.005
20
102.457
0
VERTEX
8
CONTOURS_MINEURES
10
32.065
20
102.062
0
VERTEX
8
CONTOURS_MINEURES
10
35.005
20
101.478
0
VERTEX
8
CONTOURS_MINEURES
10
39.004
20
100.996
0
VERTEX
8
CONTOURS_MINEURES
10
39.995
20
100.799
0
VERTEX
8
CONTOURS_MINEURES
10
44.604
20
100.395
0
VERTEX
8
CONTOURS_MINEURES
10
44.996
20
100.358
0
VERTEX
8
CONTOURS_MINEURES
10
49.996
20
100.003
0
VERTEX
8
CONTOURS_MINEURES
10
54.209
20
99.214
0
VERTEX
8
CONTOURS_MINEURES
10
54.997
20
99.054
0
VERTEX
8
CONTOURS_MINEURES
10
57.803
20
97.805
0
VERTEX
8
CONTOURS_MINEURES
10
59.998
20
96.607
0
VERTEX
8
CONTOURS_MINEURES
10
60.872
20
95.872
0
VERTEX
8
CONTOURS_MINEURES
10
61.531
20
94.996
0
VERTEX
8
CONTOURS_MINEURES
10
63.036
20
93.035
0
VERTEX
8
CONTOURS_MINEURES
10
64.998
20
90.968
0
VERTEX
8
CONTOURS_MINEURES
10
65.639
20
89.999
0
VERTEX
8
CONTOURS_MINEURES
10
67.603
20
87.397
0
VERTEX
8
CONTOURS_MINEURES
10
69.409
20
85.003
0
VERTEX
8
CONTOURS_MINEURES
10
69.999
20
84.363
0
VERTEX
8
CONTOURS_MINEURES
10
72.262
20
82.261
0
VERTEX
8
CONTOURS_MINEURES
10
73.774
20
79.996
0
VERTEX
8
CONTOURS_MINEURES
10
75.000
20
78.308
0
VERTEX
8
CONTOURS_MINEURES
10
76.859
20
74.999
0
VERTEX
8
CONTOURS_MINEURES
10
79.065
20
70.937
0
VERTEX
8
CONTOURS_MINEURES
10
79.521
20
70.003
0
VERTEX
8
CONTOURS_MINEURES
10
79.797
20
69.799
0
VERTEX
8
CONTOURS_MINEURES
10
80.000
20
69.704
0
VERTEX
8
CONTOURS_MINEURES
10
80.511
20
69.491
0
VERTEX
8
CONTOURS_MINEURES
10
85.001
20
68.186
0
VERTEX
8
CONTOURS_MINEURES
10
87.246
20
67.243
0
VERTEX
8
CONTOURS_MINEURES
10
90.002
20
65.503
0
VERTEX
8
CONTOURS_MINEURES
10
90.861
20
64.995
0
VERTEX
8
CONTOURS_MINEURES
10
90.647
20
60.644
0
VERTEX
8
CONTOURS_MINEURES
10
90.586
20
59.999
0
VERTEX
8
CONTOURS_MINEURES
10
90.469
20
59.532
0
VERTEX
8
CONTOURS_MINEURES
10
90.002
20
55.457
0
VERTEX
8
CONTOURS_MINEURES
10
89.944
20
55.002
0
VERTEX
8
CONTOURS_MINEURES
10
89.936
20
54.937
0
VERTEX
8
CONTOURS_MINEURES
10
88.714
20
49.995
0
VERTEX
8
CONTOURS_MINEURES
10
88.386
20
48.381
0
VERTEX
8
CONTOURS_MINEURES
10
87.402
20
44.999
0
VERTEX
8
CONTOURS_MINEURES
10
87.042
20
42.959
0
VERTEX
8
CONTOURS_MINEURES
10
86.361
20
40.002
0
VERTEX
8
CONTOURS_MINEURES
10
85.886
20
35.881
0
VERTEX
8
CONTOURS_MINEURES
10
85.799
20
34.995
0
VERTEX
8
CONTOURS_MINEURES
10
85.807
20
34.190
0
VERTEX
8
CONTOURS_MINEURES
10
86.153
20
29.998
0
VERTEX
8
CONTOURS_MINEURES
10
86.771
20
26.771
0
VERTEX
8
CONTOURS_MINEURES
10
87.030
20
25.002
0
VERTEX
8
CONTOURS_MINEURES
10
87.414
20
22.585
0
VERTEX
8
CONTOURS_MINEURES
10
87.853
20
19.994
0
VERTEX
8
CONTOURS_MINEURES
10
87.690
20
17.685
0
VERTEX
8
CONTOURS_MINEURES
10
87.512
20
14.998
0
VERTEX
8
CONTOURS_MINEURES
10
86.492
20
11.492
0
VERTEX
8
CONTOURS_MINEURES
10
85.956
20
10.002
0
VERTEX
8
CONTOURS_MINEURES
10
85.629
20
9.374
0
VERTEX
8
CONTOURS_MINEURES
10
85.001
20
8.026
0
VERTEX
8
CONTOURS_MINEURES
10
83.298
20
5.005
0
VERTEX
8
CONTOURS_MINEURES
10
80.000
20
0.031
0
VERTEX
8
CONTOURS_MINEURES
10
79.991
20
0.007
0
VERTEX
8
CONTOURS_MINEURES
10
79.989
20
-0.002
0
SEQEND
0
POLYLINE
8
CONTOURS_MINEURES
66
1
70
0
0
VERTEX
8
CONTOURS_MINEURES
10
0.001
20
100.389
0
VERTEX
8
CONTOURS_MINEURES
10
3.031
20
101.972
0
VERTEX
8
CONTOURS_MINEURES
10
5.001
20
102.961
0
VERTEX
8
CONTOURS_MINEURES
10
9.927
20
104.925
0
VERTEX
8
CONTOURS_MINEURES
10
10.002
20
104.951
0
VERTEX
8
CONTOURS_MINEURES
10
10.043
20
104.959
0
VERTEX
8
CONTOURS_MINEURES
10
10.153
20
105.000
0
VERTEX
8
CONTOURS_MINEURES
10
13.860
20
106.142
0
VERTEX
8
CONTOURS_MINEURES
10
15.003
20
106.522
0
VERTEX
8
CONTOURS_MINEURES
10
17.436
20
107.565
0
VERTEX
8
CONTOURS_MINEURES
10
20.003
20
108.681
0
VERTEX
8
CONTOURS_MINEURES
10
21.378
20
108.622
0
VERTEX
8
CONTOURS_MINEURES
10
25.004
20
108.586
0
VERTEX
8
CONTOURS_MINEURES
10
28.300
20
108.293
0
VERTEX
8
CONTOURS_MINEURES
10
30.005
20
108.024
0
VERTEX
8
CONTOURS_MINEURES
10
32.378
20
107.624
0
VERTEX
8
CONTOURS_MINEURES
10
35.005
20
107.229
0
VERTEX
8
CONTOURS_MINEURES
10
36.871
20
106.868
0
VERTEX
8
CONTOURS_MINEURES
10
39.995
20
106.262
0
VERTEX
8
CONTOURS_MINEURES
10
44.108
20
105.887
0
VERTEX
8
CONTOURS_MINEURES
10
44.996
20
105.810
0
VERTEX
8
CONTOURS_MINEURES
10
45.693
20
105.697
0
VERTEX
8
CONTOURS_MINEURES
10
49.996
20
105.420
0
VERTEX
8
CONTOURS_MINEURES
10
51.731
20
105.000
0
VERTEX
8
CONTOURS_MINEURES
10
54.307
20
104.311
0
VERTEX
8
CONTOURS_MINEURES
10
54.997
20
104.212
0
VERTEX
8
CONTOURS_MINEURES
10
56.182
20
103.815
0
VERTEX
8
CONTOURS_MINEURES
10
59.998
20
102.489
0
VERTEX
8
CONTOURS_MINEURES
10
64.290
20
100.003
0
VERTEX
8
CONTOURS_MINEURES
10
64.675
20
99.680
0
VERTEX
8
CONTOURS_MINEURES
10
64.998
20
99.250
0
VERTEX
8
CONTOURS_MINEURES
10
67.943
20
94.996
0
VERTEX
8
CONTOURS_MINEURES
10
69.999
20
91.545
0
VERTEX
8
CONTOURS_MINEURES
10
71.086
20
89.999
0
VERTEX
8
CONTOURS_MINEURES
10
73.105
20
88.106
0
VERTEX
8
CONTOURS_MINEURES
10
75.000
20
85.426
0
VERTEX
8
CONTOURS_MINEURES
10
75.226
20
85.229
0
VERTEX
8
CONTOURS_MINEURES
10
75.322
20
85.003
0
VERTEX
8
CONTOURS_MINEURES
10
77.534
20
82.533
0
VERTEX
8
CONTOURS_MINEURES
10
78.253
20
79.996
0
VERTEX
8
CONTOURS_MINEURES
10
80.000
20
76.395
0
VERTEX
8
CONTOURS_MINEURES
10
80.808
20
75.806
0
VERTEX
8
CONTOURS_MINEURES
10
81.632
20
74.999
0
VERTEX
8
CONTOURS_MINEURES
10
83.673
20
73.672
0
VERTEX
8
CONTOURS_MINEURES
10
85.001
20
72.853
0
VERTEX
8
CONTOURS_MINEURES
10
86.482
20
71.483
0
VERTEX
8
CONTOURS_MINEURES
10
88.197
20
70.003
0
VERTEX
8
CONTOURS_MINEURES
10
89.468
20
69.469
0
VERTEX
8
CONTOURS_MINEURES
10
90.002
20
69.132
0
VERTEX
8
CONTOURS_MINEURES
10
92.126
20
67.876
0
VERTEX
8
CONTOURS_MINEURES
10
95.002
20
66.233
0
VERTEX
8
CONTOURS_MINEURES
10
95.883
20
65.877
0
VERTEX
8
CONTOURS_MINEURES
10
97.086
20
64.995
0
VERTEX
8
CONTOURS_MINEURES
10
96.752
20
61.748
0
VERTEX
8
CONTOURS_MINEURES
10
96.410
20
59.999
0
VERTEX
8
CONTOURS_MINEURES
10
95.913
20
59.089
0
VERTEX
8
CONTOURS_MINEURES
10
95.135
20
55.002
0
VERTEX
8
CONTOURS_MINEURES
10
95.087
20
54.917
0
VERTEX
8
CONTOURS_MINEURES
10
95.002
20
54.696
0
VERTEX
8
CONTOURS_MINEURES
10
93.085
20
49.995
0
VERTEX
8
CONTOURS_MINEURES
10
92.358
20
47.353
0
VERTEX
8
CONTOURS_MINEURES
10
91.635
20
44.999
0
VERTEX
8
CONTOURS_MINEURES
10
90.997
20
40.997
0
VERTEX
8
CONTOURS_MINEURES
10
90.892
20
40.002
0
VERTEX
8
CONTOURS_MINEURES
10
90.859
20
39.144
0
VERTEX
8
CONTOURS_MINEURES
10
90.470
20
34.995
0
VERTEX
8
CONTOURS_MINEURES
10
90.511
20
30.507
0
VERTEX
8
CONTOURS_MINEURES
10
90.534
20
29.998
0
VERTEX
8
CONTOURS_MINEURES
10
90.601
20
29.400
0
VERTEX
8
CONTOURS_MINEURES
10
91.279
20
25.002
0
VERTEX
8
CONTOURS_MINEURES
10
91.813
20
21.808
0
VERTEX
8
CONTOURS_MINEURES
10
92.010
20
19.994
0
VERTEX
8
CONTOURS_MINEURES
10
91.760
20
18.237
0
VERTEX
8
CONTOURS_MINEURES
10
91.558
20
14.998
0
VERTEX
8
CONTOURS_MINEURES
10
91.046
20
13.954
0
VERTEX
8
CONTOURS_MINEURES
10
90.002
20
10.834
0
VERTEX
8
CONTOURS_MINEURES
10
89.702
20
10.002
0
VERTEX
8
CONTOURS_MINEURES
10
88.092
20
6.913
0
VERTEX
8
CONTOURS_MINEURES
10
87.203
20
5.005
0
VERTEX
8
CONTOURS_MINEURES
10
85.001
20
1.038
0
VERTEX
8
CONTOURS_MINEURES
10
84.308
20
-0.002
0
SEQEND
0
POLYLINE
8
CONTOURS_MINEURES
66
1
70
0
0
VERTEX
8
CONTOURS_MINEURES
10
0.001
20
104.932
0
VERTEX
8
CONTOURS_MINEURES
10
0.045
20
104.955
0
VERTEX
8
CONTOURS_MINEURES
10
0.135
20
105.000
0
VERTEX
8
CONTOURS_MINEURES
10
5.001
20
107.606
0
VERTEX
8
CONTOURS_MINEURES
10
6.679
20
108.319
0
VERTEX
8
CONTOURS_MINEURES
10
10.002
20
109.623
0
VERTEX
8
CONTOURS_MINEURES
10
10.288
20
109.711
0
VERTEX
8
CONTOURS_MINEURES
10
11.145
20
109.996
0
VERTEX
8
CONTOURS_MINEURES
10
15.003
20
111.044
0
VERTEX
8
CONTOURS_MINEURES
10
17.926
20
112.077
0
VERTEX
8
CONTOURS_MINEURES
10
20.003
20
113.209
0
VERTEX
8
CONTOURS_MINEURES
10
23.540
20
113.538
0
VERTEX
8
CONTOURS_MINEURES
10
25.004
20
113.524
0
VERTEX
8
CONTOURS_MINEURES
10
26.626
20
113.380
0
VERTEX
8
CONTOURS_MINEURES
10
30.005
20
113.206
0
VERTEX
8
CONTOURS_MINEURES
10
32.995
20
112.991
0
VERTEX
8
CONTOURS_MINEURES
10
35.005
20
112.680
0
VERTEX
8
CONTOURS_MINEURES
10
37.378
20
112.377
0
VERTEX
8
CONTOURS_MINEURES
10
39.995
20
111.814
0
VERTEX
8
CONTOURS_MINEURES
10
43.515
20
111.479
0
VERTEX
8
CONTOURS_MINEURES
10
44.996
20
111.214
0
VERTEX
8
CONTOURS_MINEURES
10
49.512
20
110.481
0
VERTEX
8
CONTOURS_MINEURES
10
49.996
20
110.342
0
VERTEX
8
CONTOURS_MINEURES
10
50.242
20
110.242
0
VERTEX
8
CONTOURS_MINEURES
10
51.150
20
109.996
0
VERTEX
8
CONTOURS_MINEURES
10
54.997
20
108.850
0
VERTEX
8
CONTOURS_MINEURES
10
57.742
20
107.743
0
VERTEX
8
CONTOURS_MINEURES
10
59.998
20
107.050
0
VERTEX
8
CONTOURS_MINEURES
10
61.541
20
106.542
0
VERTEX
8
CONTOURS_MINEURES
10
64.998
20
105.665
0
VERTEX
8
CONTOURS_MINEURES
10
65.500
20
105.501
0
VERTEX
8
CONTOURS_MINEURES
10
66.649
20
105.000
0
VERTEX
8
CONTOURS_MINEURES
10
68.659
20
103.661
0
VERTEX
8
CONTOURS_MINEURES
10
69.999
20
102.444
0
VERTEX
8
CONTOURS_MINEURES
10
71.327
20
101.330
0
VERTEX
8
CONTOURS_MINEURES
10
72.882
20
100.003
0
VERTEX
8
CONTOURS_MINEURES
10
73.694
20
98.696
0
VERTEX
8
CONTOURS_MINEURES
10
75.000
20
95.389
0
VERTEX
8
CONTOURS_MINEURES
10
75.152
20
94.996
0
VERTEX
8
CONTOURS_MINEURES
10
77.100
20
92.098
0
VERTEX
8
CONTOURS_MINEURES
10
79.466
20
89.999
0
VERTEX
8
CONTOURS_MINEURES
10
79.751
20
89.751
0
VERTEX
8
CONTOURS_MINEURES
10
80.000
20
89.167
0
VERTEX
8
CONTOURS_MINEURES
10
81.667
20
86.669
0
VERTEX
8
CONTOURS_MINEURES
10
82.958
20
85.003
0
VERTEX
8
CONTOURS_MINEURES
10
83.798
20
83.799
0
VERTEX
8
CONTOURS_MINEURES
10
85.001
20
82.532
0
VERTEX
8
CONTOURS_MINEURES
10
86.446
20
79.996
0
VERTEX
8
CONTOURS_MINEURES
10
89.758
20
75.243
0
VERTEX
8
CONTOURS_MINEURES
10
89.929
20
74.999
0
VERTEX
8
CONTOURS_MINEURES
10
89.967
20
74.964
0
VERTEX
8
CONTOURS_MINEURES
10
90.002
20
74.934
0
VERTEX
8
CONTOURS_MINEURES
10
92.502
20
72.501
0
VERTEX
8
CONTOURS_MINEURES
10
95.002
20
70.070
0
VERTEX
8
CONTOURS_MINEURES
10
95.097
20
70.003
0
VERTEX
8
CONTOURS_MINEURES
10
98.593
20
68.591
0
VERTEX
8
CONTOURS_MINEURES
10
100.003
20
67.558
0
VERTEX
8
CONTOURS_MINEURES
10
102.998
20
64.995
0
VERTEX
8
CONTOURS_MINEURES
10
102.537
20
62.531
0
VERTEX
8
CONTOURS_MINEURES
10
102.019
20
59.999
0
VERTEX
8
CONTOURS_MINEURES
10
101.217
20
58.786
0
VERTEX
8
CONTOURS_MINEURES
10
100.003
20
56.054
0
VERTEX
8
CONTOURS_MINEURES
10
99.631
20
55.374
0
VERTEX
8
CONTOURS_MINEURES
10
99.560
20
55.002
0
VERTEX
8
CONTOURS_MINEURES
10
97.929
20
52.072
0
VERTEX
8
CONTOURS_MINEURES
10
97.129
20
49.995
0
VERTEX
8
CONTOURS_MINEURES
10
95.878
20
45.874
0
VERTEX
8
CONTOURS_MINEURES
10
95.615
20
44.999
0
VERTEX
8
CONTOURS_MINEURES
10
95.579
20
44.423
0
VERTEX
8
CONTOURS_MINEURES
10
95.125
20
40.002
0
VERTEX
8
CONTOURS_MINEURES
10
95.002
20
36.664
0
VERTEX
8
CONTOURS_MINEURES
10
94.941
20
35.056
0
VERTEX
8
CONTOURS_MINEURES
10
94.935
20
34.995
0
VERTEX
8
CONTOURS_MINEURES
10
94.936
20
34.928
0
VERTEX
8
CONTOURS_MINEURES
10
95.002
20
33.496
0
VERTEX
8
CONTOURS_MINEURES
10
95.175
20
29.998
0
VERTEX
8
CONTOURS_MINEURES
10
95.685
20
25.684
0
VERTEX
8
CONTOURS_MINEURES
10
95.713
20
25.002
0
VERTEX
8
CONTOURS_MINEURES
10
95.785
20
24.218
0
VERTEX
8
CONTOURS_MINEURES
10
96.275
20
19.994
0
VERTEX
8
CONTOURS_MINEURES
10
95.608
20
15.603
0
VERTEX
8
CONTOURS_MINEURES
10
95.574
20
14.998
0
VERTEX
8
CONTOURS_MINEURES
10
95.002
20
14.086
0
VERTEX
8
CONTOURS_MINEURES
10
93.657
20
11.345
0
VERTEX
8
CONTOURS_MINEURES
10
93.208
20
10.002
0
VERTEX
8
CONTOURS_MINEURES
10
91.522
20
6.524
0
VERTEX
8
CONTOURS_MINEURES
10
90.829
20
5.005
0
VERTEX
8
CONTOURS_MINEURES
10
90.648
20
4.358
0
VERTEX
8
CONTOURS_MINEURES
10
90.002
20
3.231
0
VERTEX
8
CONTOURS_MINEURES
10
88.361
20
-0.002
0
SEQEND
0
POLYLINE
8
CONTOURS_MINEURES
66
1
70
0
0
VERTEX
8
CONTOURS_MINEURES
10
3.702
20
184.998
0
VERTEX
8
CONTOURS_MINEURES
10
2.823
20
182.178
0
VERTEX
8
CONTOURS_MINEURES
10
2.458
20
180.001
0
VERTEX
8
CONTOURS_MINEURES
10
2.198
20
177.201
0
VERTEX
8
CONTOURS_MINEURES
10
1.856
20
175.005
0
VERTEX
8
CONTOURS_MINEURES
10
1.469
20
173.534
0
VERTEX
8
CONTOURS_MINEURES
10
0.830
20
169.997
0
VERTEX
8
CONTOURS_MINEURES
10
0.001
20
167.987
0
SEQEND
0
POLYLINE
8
CONTOURS_MINEURES
66
1
70
0
0
VERTEX
8
CONTOURS_MINEURES
10
0.001
20
109.946
0
VERTEX
8
CONTOURS_MINEURES
10
0.099
20
109.996
0
VERTEX
8
CONTOURS_MINEURES
10
3.183
20
111.817
0
VERTEX
8
CONTOURS_MINEURES
10
5.001
20
112.646
0
VERTEX
8
CONTOURS_MINEURES
10
8.474
20
113.474
0
VERTEX
8
CONTOURS_MINEURES
10
10.002
20
114.037
0
VERTEX
8
CONTOURS_MINEURES
10
14.896
20
114.897
0
VERTEX
8
CONTOURS_MINEURES
10
15.003
20
114.926
0
VERTEX
8
CONTOURS_MINEURES
10
15.060
20
114.946
0
VERTEX
8
CONTOURS_MINEURES
10
15.165
20
115.004
0
VERTEX
8
CONTOURS_MINEURES
10
20.003
20
118.363
0
VERTEX
8
CONTOURS_MINEURES
10
21.468
20
118.536
0
VERTEX
8
CONTOURS_MINEURES
10
25.004
20
119.001
0
VERTEX
8
CONTOURS_MINEURES
10
28.893
20
118.890
0
VERTEX
8
CONTOURS_MINEURES
10
30.005
20
118.824
0
VERTEX
8
CONTOURS_MINEURES
10
31.287
20
118.719
0
VERTEX
8
CONTOURS_MINEURES
10
35.005
20
118.335
0
VERTEX
8
CONTOURS_MINEURES
10
36.922
20
118.081
0
VERTEX
8
CONTOURS_MINEURES
10
39.995
20
117.629
0
VERTEX
8
CONTOURS_MINEURES
10
42.035
20
117.042
0
VERTEX
8
CONTOURS_MINEURES
10
44.996
20
116.541
0
VERTEX
8
CONTOURS_MINEURES
10
49.835
20
115.004
0
VERTEX
8
CONTOURS_MINEURES
10
49.996
20
114.957
0
VERTEX
8
CONTOURS_MINEURES
10
53.521
20
113.526
0
VERTEX
8
CONTOURS_MINEURES
10
54.997
20
113.126
0
VERTEX
8
CONTOURS_MINEURES
10
57.958
20
112.039
0
VERTEX
8
CONTOURS_MINEURES
10
59.998
20
111.190
0
VERTEX
8
CONTOURS_MINEURES
10
60.799
20
110.798
0
VERTEX
8
CONTOURS_MINEURES
10
64.024
20
109.996
0
VERTEX
8
CONTOURS_MINEURES
10
64.757
20
109.755
0
VERTEX
8
CONTOURS_MINEURES
10
64.998
20
109.694
0
VERTEX
8
CONTOURS_MINEURES
10
68.540
20
108.538
0
VERTEX
8
CONTOURS_MINEURES
10
69.999
20
107.902
0
VERTEX
8
CONTOURS_MINEURES
10
74.033
20
105.965
0
VERTEX
8
CONTOURS_MINEURES
10
75.000
20
105.574
0
VERTEX
8
CONTOURS_MINEURES
10
75.471
20
105.000
0
VERTEX
8
CONTOURS_MINEURES
10
77.045
20
102.047
0
VERTEX
8
CONTOURS_MINEURES
10
78.135
20
100.003
0
VERTEX
8
CONTOURS_MINEURES
10
80.000
20
97.225
0
VERTEX
8
CONTOURS_MINEURES
10
81.217
20
96.214
0
VERTEX
8
CONTOURS_MINEURES
10
83.260
20
94.996
0
VERTEX
8
CONTOURS_MINEURES
10
85.001
20
93.485
0
VERTEX
8
CONTOURS_MINEURES
10
86.481
20
91.479
0
VERTEX
8
CONTOURS_MINEURES
10
87.544
20
89.999
0
VERTEX
8
CONTOURS_MINEURES
10
90.002
20
85.564
0
VERTEX
8
CONTOURS_MINEURES
10
90.363
20
85.003
0
VERTEX
8
CONTOURS_MINEURES
10
92.124
20
82.121
0
VERTEX
8
CONTOURS_MINEURES
10
93.564
20
79.996
0
VERTEX
8
CONTOURS_MINEURES
10
94.127
20
79.121
0
VERTEX
8
CONTOURS_MINEURES
10
95.002
20
77.810
0
VERTEX
8
CONTOURS_MINEURES
10
96.416
20
76.412
0
VERTEX
8
CONTOURS_MINEURES
10
98.295
20
74.999
0
VERTEX
8
CONTOURS_MINEURES
10
100.003
20
73.871
0
VERTEX
8
CONTOURS_MINEURES
10
104.709
20
70.003
0
VERTEX
8
CONTOURS_MINEURES
10
105.004
20
69.777
0
VERTEX
8
CONTOURS_MINEURES
10
108.364
20
64.995
0
VERTEX
8
CONTOURS_MINEURES
10
107.951
20
62.944
0
VERTEX
8
CONTOURS_MINEURES
10
107.358
20
59.999
0
VERTEX
8
CONTOURS_MINEURES
10
105.004
20
56.384
0
VERTEX
8
CONTOURS_MINEURES
10
104.453
20
55.552
0
VERTEX
8
CONTOURS_MINEURES
10
104.209
20
55.002
0
VERTEX
8
CONTOURS_MINEURES
10
103.071
20
53.068
0
VERTEX
8
CONTOURS_MINEURES
10
101.119
20
49.995
0
VERTEX
8
CONTOURS_MINEURES
10
100.852
20
49.147
0
VERTEX
8
CONTOURS_MINEURES
10
100.003
20
46.445
0
VERTEX
8
CONTOURS_MINEURES
10
99.568
20
44.999
0
VERTEX
8
CONTOURS_MINEURES
10
99.296
20
40.708
0
VERTEX
8
CONTOURS_MINEURES
10
99.224
20
40.002
0
VERTEX
8
CONTOURS_MINEURES
10
99.194
20
39.192
0
VERTEX
8
CONTOURS_MINEURES
10
99.928
20
34.995
0
VERTEX
8
CONTOURS_MINEURES
10
100.003
20
32.853
0
VERTEX
8
CONTOURS_MINEURES
10
100.116
20
29.998
0
VERTEX
8
CONTOURS_MINEURES
10
100.352
20
25.351
0
VERTEX
8
CONTOURS_MINEURES
10
100.317
20
25.002
0
VERTEX
8
CONTOURS_MINEURES
10
100.730
20
20.722
0
VERTEX
8
CONTOURS_MINEURES
10
100.760
20
19.994
0
VERTEX
8
CONTOURS_MINEURES
10
100.816
20
19.182
0
VERTEX
8
CONTOURS_MINEURES
10
100.576
20
14.998
0
VERTEX
8
CONTOURS_MINEURES
10
100.003
20
14.126
0
VERTEX
8
CONTOURS_MINEURES
10
97.415
20
10.002
0
VERTEX
8
CONTOURS_MINEURES
10
96.437
20
8.568
0
VERTEX
8
CONTOURS_MINEURES
10
95.002
20
6.093
0
VERTEX
8
CONTOURS_MINEURES
10
94.506
20
5.005
0
VERTEX
8
CONTOURS_MINEURES
10
93.522
20
1.480
0
VERTEX
8
CONTOURS_MINEURES
10
92.672
20
-0.002
0
SEQEND
0
POLYLINE
8
CONTOURS_MINEURES
66
1
70
0
0
VERTEX
8
CONTOURS_MINEURES
10
10.250
20
184.998
0
VERTEX
8
CONTOURS_MINEURES
10
10.157
20
184.843
0
VERTEX
8
CONTOURS_MINEURES
10
10.002
20
184.401
0
VERTEX
8
CONTOURS_MINEURES
10
8.277
20
180.001
0
VERTEX
8
CONTOURS_MINEURES
10
7.502
20
177.503
0
VERTEX
8
CONTOURS_MINEURES
10
7.130
20
175.005
0
VERTEX
8
CONTOURS_MINEURES
10
6.166
20
171.163
0
VERTEX
8
CONTOURS_MINEURES
10
5.747
20
169.997
0
VERTEX
8
CONTOURS_MINEURES
10
5.515
20
169.484
0
VERTEX
8
CONTOURS_MINEURES
10
5.001
20
168.379
0
VERTEX
8
CONTOURS_MINEURES
10
3.402
20
165.001
0
VERTEX
8
CONTOURS_MINEURES
10
1.554
20
161.557
0
VERTEX
8
CONTOURS_MINEURES
10
0.709
20
160.004
0
VERTEX
8
CONTOURS_MINEURES
10
0.307
20
159.697
0
VERTEX
8
CONTOURS_MINEURES
10
0.001
20
159.533
0
SEQEND
0
POLYLINE
8
CONTOURS_MINEURES
66
1
70
0
0
VERTEX
8
CONTOURS_MINEURES
10
0.001
20
115.761
0
VERTEX
8
CONTOURS_MINEURES
10
2.790
20
117.213
0
VERTEX
8
CONTOURS_MINEURES
10
5.001
20
118.726
0
VERTEX
8
CONTOURS_MINEURES
10
9.224
20
120.000
0
VERTEX
8
CONTOURS_MINEURES
10
9.816
20
120.186
0
VERTEX
8
CONTOURS_MINEURES
10
10.002
20
120.257
0
VERTEX
8
CONTOURS_MINEURES
10
13.959
20
121.042
0
VERTEX
8
CONTOURS_MINEURES
10
15.003
20
121.297
0
VERTEX
8
CONTOURS_MINEURES
10
17.032
20
122.969
0
VERTEX
8
CONTOURS_MINEURES
10
20.003
20
124.031
0
VERTEX
8
CONTOURS_MINEURES
10
23.948
20
123.942
0
VERTEX
8
CONTOURS_MINEURES
10
25.004
20
124.061
0
VERTEX
8
CONTOURS_MINEURES
10
25.964
20
124.038
0
VERTEX
8
CONTOURS_MINEURES
10
30.005
20
123.736
0
VERTEX
8
CONTOURS_MINEURES
10
33.192
20
123.185
0
VERTEX
8
CONTOURS_MINEURES
10
35.005
20
123.045
0
VERTEX
8
CONTOURS_MINEURES
10
37.509
20
122.507
0
VERTEX
8
CONTOURS_MINEURES
10
39.995
20
122.255
0
VERTEX
8
CONTOURS_MINEURES
10
43.418
20
121.577
0
VERTEX
8
CONTOURS_MINEURES
10
44.996
20
121.198
0
VERTEX
8
CONTOURS_MINEURES
10
45.909
20
120.912
0
VERTEX
8
CONTOURS_MINEURES
10
48.491
20
120.000
0
VERTEX
8
CONTOURS_MINEURES
10
49.996
20
119.381
0
VERTEX
8
CONTOURS_MINEURES
10
51.011
20
118.986
0
VERTEX
8
CONTOURS_MINEURES
10
54.997
20
117.193
0
VERTEX
8
CONTOURS_MINEURES
10
59.928
20
115.073
0
VERTEX
8
CONTOURS_MINEURES
10
59.998
20
115.041
0
VERTEX
8
CONTOURS_MINEURES
10
60.024
20
115.030
0
VERTEX
8
CONTOURS_MINEURES
10
60.076
20
115.004
0
VERTEX
8
CONTOURS_MINEURES
10
63.383
20
113.386
0
VERTEX
8
CONTOURS_MINEURES
10
64.998
20
112.984
0
VERTEX
8
CONTOURS_MINEURES
10
67.728
20
112.270
0
VERTEX
8
CONTOURS_MINEURES
10
69.999
20
111.823
0
VERTEX
8
CONTOURS_MINEURES
10
71.650
20
111.649
0
VERTEX
8
CONTOURS_MINEURES
10
75.000
20
110.488
0
VERTEX
8
CONTOURS_MINEURES
10
75.661
20
109.996
0
VERTEX
8
CONTOURS_MINEURES
10
77.614
20
107.384
0
VERTEX
8
CONTOURS_MINEURES
10
79.570
20
105.000
0
VERTEX
8
CONTOURS_MINEURES
10
79.720
20
104.719
0
VERTEX
8
CONTOURS_MINEURES
10
80.000
20
104.193
0
VERTEX
8
CONTOURS_MINEURES
10
84.008
20
100.003
0
VERTEX
8
CONTOURS_MINEURES
10
84.551
20
99.553
0
VERTEX
8
CONTOURS_MINEURES
10
85.001
20
99.284
0
VERTEX
8
CONTOURS_MINEURES
10
89.602
20
94.996
0
VERTEX
8
CONTOURS_MINEURES
10
89.771
20
94.766
0
VERTEX
8
CONTOURS_MINEURES
10
90.002
20
94.445
0
VERTEX
8
CONTOURS_MINEURES
10
93.695
20
89.999
0
VERTEX
8
CONTOURS_MINEURES
10
95.002
20
87.981
0
VERTEX
8
CONTOURS_MINEURES
10
96.206
20
86.206
0
VERTEX
8
CONTOURS_MINEURES
10
97.140
20
85.003
0
VERTEX
8
CONTOURS_MINEURES
10
98.336
20
83.334
0
VERTEX
8
CONTOURS_MINEURES
10
100.003
20
82.217
0
VERTEX
8
CONTOURS_MINEURES
10
101.074
20
81.069
0
VERTEX
8
CONTOURS_MINEURES
10
102.673
20
79.996
0
VERTEX
8
CONTOURS_MINEURES
10
105.004
20
78.151
0
VERTEX
8
CONTOURS_MINEURES
10
107.342
20
74.999
0
VERTEX
8
CONTOURS_MINEURES
10
108.954
20
71.052
0
VERTEX
8
CONTOURS_MINEURES
10
109.433
20
70.003
0
VERTEX
8
CONTOURS_MINEURES
10
110.004
20
69.235
0
VERTEX
8
CONTOURS_MINEURES
10
113.617
20
64.995
0
VERTEX
8
CONTOURS_MINEURES
10
113.273
20
63.265
0
VERTEX
8
CONTOURS_MINEURES
10
112.895
20
59.999
0
VERTEX
8
CONTOURS_MINEURES
10
111.729
20
58.276
0
VERTEX
8
CONTOURS_MINEURES
10
110.004
20
55.285
0
VERTEX
8
CONTOURS_MINEURES
10
109.830
20
55.002
0
VERTEX
8
CONTOURS_MINEURES
10
107.481
20
52.521
0
VERTEX
8
CONTOURS_MINEURES
10
105.335
20
49.995
0
VERTEX
8
CONTOURS_MINEURES
10
105.225
20
49.774
0
VERTEX
8
CONTOURS_MINEURES
10
105.004
20
49.206
0
VERTEX
8
CONTOURS_MINEURES
10
103.997
20
46.004
0
VERTEX
8
CONTOURS_MINEURES
10
103.681
20
44.999
0
VERTEX
8
CONTOURS_MINEURES
10
104.282
20
40.723
0
VERTEX
8
CONTOURS_MINEURES
10
104.222
20
40.002
0
VERTEX
8
CONTOURS_MINEURES
10
104.343
20
39.340
0
VERTEX
8
CONTOURS_MINEURES
10
105.004
20
37.944
0
VERTEX
8
CONTOURS_MINEURES
10
106.437
20
34.995
0
VERTEX
8
CONTOURS_MINEURES
10
106.011
20
31.005
0
VERTEX
8
CONTOURS_MINEURES
10
105.832
20
29.998
0
VERTEX
8
CONTOURS_MINEURES
10
105.675
20
29.327
0
VERTEX
8
CONTOURS_MINEURES
10
105.170
20
25.002
0
VERTEX
8
CONTOURS_MINEURES
10
105.400
20
20.392
0
VERTEX
8
CONTOURS_MINEURES
10
105.366
20
19.994
0
VERTEX
8
CONTOURS_MINEURES
10
105.679
20
15.673
0
VERTEX
8
CONTOURS_MINEURES
10
105.705
20
14.998
0
VERTEX
8
CONTOURS_MINEURES
10
105.708
20
14.294
0
VERTEX
8
CONTOURS_MINEURES
10
105.004
20
11.591
0
VERTEX
8
CONTOURS_MINEURES
10
104.367
20
10.002
0
VERTEX
8
CONTOURS_MINEURES
10
102.099
20
7.907
0
VERTEX
8
CONTOURS_MINEURES
10
100.003
20
6.501
0
VERTEX
8
CONTOURS_MINEURES
10
99.396
20
5.611
0
VERTEX
8
CONTOURS_MINEURES
10
99.045
20
5.005
0
VERTEX
8
CONTOURS_MINEURES
10
98.517
20
3.518
0
VERTEX
8
CONTOURS_MINEURES
10
97.357
20
-0.002
0
SEQEND
0
POLYLINE
8
CONTOURS_MINEURES
66
1
70
0
0
VERTEX
8
CONTOURS_MINEURES
10
15.696
20
184.998
0
VERTEX
8
CONTOURS_MINEURES
10
15.003
20
182.577
0
VERTEX
8
CONTOURS_MINEURES
10
14.033
20
180.969
0
VERTEX
8
CONTOURS_MINEURES
10
13.694
20
180.001
0
VERTEX
8
CONTOURS_MINEURES
10
13.191
20
178.191
0
VERTEX
8
CONTOURS_MINEURES
10
11.932
20
175.005
0
VERTEX
8
CONTOURS_MINEURES
10
11.242
20
173.763
0
VERTEX
8
CONTOURS_MINEURES
10
10.112
20
169.997
0
VERTEX
8
CONTOURS_MINEURES
10
10.002
20
169.706
0
VERTEX
8
CONTOURS_MINEURES
10
8.536
20
166.465
0
VERTEX
8
CONTOURS_MINEURES
10
7.856
20
165.001
0
VERTEX
8
CONTOURS_MINEURES
10
5.293
20
160.295
0
VERTEX
8
CONTOURS_MINEURES
10
5.137
20
160.004
0
VERTEX
8
CONTOURS_MINEURES
10
5.066
20
159.940
0
VERTEX
8
CONTOURS_MINEURES
10
5.001
20
159.903
0
VERTEX
8
CONTOURS_MINEURES
10
2.223
20
157.779
0
VERTEX
8
CONTOURS_MINEURES
10
0.001
20
156.588
0
SEQEND
0
POLYLINE
8
CONTOURS_MINEURES
66
1
70
0
0
VERTEX
8
CONTOURS_MINEURES
10
0.001
20
121.947
0
VERTEX
8
CONTOURS_MINEURES
10
4.160
20
124.996
0
VERTEX
8
CONTOURS_MINEURES
10
4.559
20
125.439
0
VERTEX
8
CONTOURS_MINEURES
10
5.001
20
125.570
0
VERTEX
8
CONTOURS_MINEURES
10
5.942
20
125.938
0
VERTEX
8
CONTOURS_MINEURES
10
10.002
20
127.320
0
VERTEX
8
CONTOURS_MINEURES
10
12.218
20
127.784
0
VERTEX
8
CONTOURS_MINEURES
10
15.003
20
128.261
0
VERTEX
8
CONTOURS_MINEURES
10
18.995
20
128.995
0
VERTEX
8
CONTOURS_MINEURES
10
20.003
20
129.326
0
VERTEX
8
CONTOURS_MINEURES
10
20.695
20
129.311
0
VERTEX
8
CONTOURS_MINEURES
10
25.004
20
128.769
0
VERTEX
8
CONTOURS_MINEURES
10
28.270
20
128.267
0
VERTEX
8
CONTOURS_MINEURES
10
30.005
20
128.148
0
VERTEX
8
CONTOURS_MINEURES
10
32.210
20
127.795
0
VERTEX
8
CONTOURS_MINEURES
10
35.005
20
127.224
0
VERTEX
8
CONTOURS_MINEURES
10
38.485
20
126.511
0
VERTEX
8
CONTOURS_MINEURES
10
39.995
20
126.040
0
VERTEX
8
CONTOURS_MINEURES
10
40.836
20
125.838
0
VERTEX
8
CONTOURS_MINEURES
10
44.534
20
124.996
0
VERTEX
8
CONTOURS_MINEURES
10
44.996
20
124.886
0
VERTEX
8
CONTOURS_MINEURES
10
48.718
20
123.719
0
VERTEX
8
CONTOURS_MINEURES
10
49.996
20
123.268
0
VERTEX
8
CONTOURS_MINEURES
10
52.419
20
122.421
0
VERTEX
8
CONTOURS_MINEURES
10
54.997
20
121.218
0
VERTEX
8
CONTOURS_MINEURES
10
57.396
20
120.000
0
VERTEX
8
CONTOURS_MINEURES
10
59.998
20
118.798
0
VERTEX
8
CONTOURS_MINEURES
10
62.635
20
117.639
0
VERTEX
8
CONTOURS_MINEURES
10
64.998
20
116.467
0
VERTEX
8
CONTOURS_MINEURES
10
69.524
20
115.478
0
VERTEX
8
CONTOURS_MINEURES
10
69.999
20
115.399
0
VERTEX
8
CONTOURS_MINEURES
10
73.166
20
115.004
0
VERTEX
8
CONTOURS_MINEURES
10
74.825
20
114.829
0
VERTEX
8
CONTOURS_MINEURES
10
75.000
20
114.768
0
VERTEX
8
CONTOURS_MINEURES
10
75.916
20
114.086
0
VERTEX
8
CONTOURS_MINEURES
10
80.000
20
111.248
0
VERTEX
8
CONTOURS_MINEURES
10
81.634
20
109.996
0
VERTEX
8
CONTOURS_MINEURES
10
83.197
20
108.194
0
VERTEX
8
CONTOURS_MINEURES
10
85.001
20
105.860
0
VERTEX
8
CONTOURS_MINEURES
10
85.598
20
105.000
0
VERTEX
8
CONTOURS_MINEURES
10
87.638
20
102.639
0
VERTEX
8
CONTOURS_MINEURES
10
90.002
20
100.249
0
VERTEX
8
CONTOURS_MINEURES
10
90.369
20
100.003
0
VERTEX
8
CONTOURS_MINEURES
10
93.242
20
98.241
0
VERTEX
8
CONTOURS_MINEURES
10
95.002
20
96.802
0
VERTEX
8
CONTOURS_MINEURES
10
96.829
20
94.996
0
VERTEX
8
CONTOURS_MINEURES
10
100.003
20
90.618
0
VERTEX
8
CONTOURS_MINEURES
10
100.422
20
89.999
0
VERTEX
8
CONTOURS_MINEURES
10
101.559
20
88.445
0
VERTEX
8
CONTOURS_MINEURES
10
103.984
20
85.003
0
VERTEX
8
CONTOURS_MINEURES
10
104.476
20
84.475
0
VERTEX
8
CONTOURS_MINEURES
10
105.004
20
84.121
0
VERTEX
8
CONTOURS_MINEURES
10
109.219
20
79.996
0
VERTEX
8
CONTOURS_MINEURES
10
110.004
20
78.871
0
VERTEX
8
CONTOURS_MINEURES
10
111.401
20
76.395
0
VERTEX
8
CONTOURS_MINEURES
10
112.062
20
74.999
0
VERTEX
8
CONTOURS_MINEURES
10
114.120
20
70.887
0
VERTEX
8
CONTOURS_MINEURES
10
114.492
20
70.003
0
VERTEX
8
CONTOURS_MINEURES
10
115.005
20
69.403
0
VERTEX
8
CONTOURS_MINEURES
10
117.077
20
67.075
0
VERTEX
8
CONTOURS_MINEURES
10
119.035
20
64.995
0
VERTEX
8
CONTOURS_MINEURES
10
118.927
20
61.068
0
VERTEX
8
CONTOURS_MINEURES
10
118.800
20
59.999
0
VERTEX
8
CONTOURS_MINEURES
10
116.003
20
56.002
0
VERTEX
8
CONTOURS_MINEURES
10
115.439
20
55.002
0
VERTEX
8
CONTOURS_MINEURES
10
115.230
20
54.777
0
VERTEX
8
CONTOURS_MINEURES
10
115.005
20
54.681
0
VERTEX
8
CONTOURS_MINEURES
10
110.880
20
49.995
0
VERTEX
8
CONTOURS_MINEURES
10
110.004
20
48.274
0
VERTEX
8
CONTOURS_MINEURES
10
108.915
20
46.086
0
VERTEX
8
CONTOURS_MINEURES
10
108.491
20
44.999
0
VERTEX
8
CONTOURS_MINEURES
10
108.716
20
43.711
0
VERTEX
8
CONTOURS_MINEURES
10
110.004
20
41.489
0
VERTEX
8
CONTOURS_MINEURES
10
110.981
20
40.002
0
VERTEX
8
CONTOURS_MINEURES
10
111.425
20
38.580
0
VERTEX
8
CONTOURS_MINEURES
10
112.985
20
34.995
0
VERTEX
8
CONTOURS_MINEURES
10
112.524
20
32.516
0
VERTEX
8
CONTOURS_MINEURES
10
111.980
20
29.998
0
VERTEX
8
CONTOURS_MINEURES
10
111.596
20
28.407
0
VERTEX
8
CONTOURS_MINEURES
10
110.802
20
25.002
0
VERTEX
8
CONTOURS_MINEURES
10
110.658
20
24.348
0
VERTEX
8
CONTOURS_MINEURES
10
110.225
20
19.994
0
VERTEX
8
CONTOURS_MINEURES
10
110.206
20
19.793
0
VERTEX
8
CONTOURS_MINEURES
10
110.393
20
14.998
0
VERTEX
8
CONTOURS_MINEURES
10
110.398
20
14.604
0
VERTEX
8
CONTOURS_MINEURES
10
110.421
20
10.002
0
VERTEX
8
CONTOURS_MINEURES
10
110.004
20
8.336
0
VERTEX
8
CONTOURS_MINEURES
10
108.321
20
5.005
0
VERTEX
8
CONTOURS_MINEURES
10
106.533
20
3.473
0
VERTEX
8
CONTOURS_MINEURES
10
105.004
20
2.209
0
VERTEX
8
CONTOURS_MINEURES
10
103.163
20
-0.002
0
SEQEND
0
POLYLINE
8
CONTOURS_MINEURES
66
1
70
0
0
VERTEX
8
CONTOURS_MINEURES
10
18.646
20
184.998
0
VERTEX
8
CONTOURS_MINEURES
10
18.102
20
183.098
0
VERTEX
8
CONTOURS_MINEURES
10
16.776
20
180.001
0
VERTEX
8
CONTOURS_MINEURES
10
16.437
20
178.568
0
VERTEX
8
CONTOURS_MINEURES
10
15.696
20
175.005
0
VERTEX
8
CONTOURS_MINEURES
10
15.578
20
174.428
0
VERTEX
8
CONTOURS_MINEURES
10
15.003
20
172.639
0
VERTEX
8
CONTOURS_MINEURES
10
14.059
20
170.942
0
VERTEX
8
CONTOURS_MINEURES
10
13.775
20
169.997
0
VERTEX
8
CONTOURS_MINEURES
10
13.032
20
168.028
0
VERTEX
8
CONTOURS_MINEURES
10
11.896
20
165.001
0
VERTEX
8
CONTOURS_MINEURES
10
11.316
20
163.688
0
VERTEX
8
CONTOURS_MINEURES
10
10.002
20
160.640
0
VERTEX
8
CONTOURS_MINEURES
10
9.663
20
160.004
0
VERTEX
8
CONTOURS_MINEURES
10
7.221
20
157.781
0
VERTEX
8
CONTOURS_MINEURES
10
5.001
20
156.520
0
VERTEX
8
CONTOURS_MINEURES
10
4.139
20
155.860
0
VERTEX
8
CONTOURS_MINEURES
10
2.528
20
154.997
0
VERTEX
8
CONTOURS_MINEURES
10
0.001
20
150.741
0
SEQEND
0
POLYLINE
8
CONTOURS_MINEURES
66
1
70
0
0
VERTEX
8
CONTOURS_MINEURES
10
0.001
20
130.361
0
VERTEX
8
CONTOURS_MINEURES
10
0.313
20
130.316
0
VERTEX
8
CONTOURS_MINEURES
10
5.001
20
132.347
0
VERTEX
8
CONTOURS_MINEURES
10
7.762
20
132.762
0
VERTEX
8
CONTOURS_MINEURES
10
10.002
20
133.666
0
VERTEX
8
CONTOURS_MINEURES
10
13.760
20
133.759
0
VERTEX
8
CONTOURS_MINEURES
10
15.003
20
133.941
0
VERTEX
8
CONTOURS_MINEURES
10
15.918
20
134.085
0
VERTEX
8
CONTOURS_MINEURES
10
18.903
20
135.000
0
VERTEX
8
CONTOURS_MINEURES
10
20.003
20
135.256
0
VERTEX
8
CONTOURS_MINEURES
10
24.793
20
135.211
0
VERTEX
8
CONTOURS_MINEURES
10
25.004
20
135.250
0
VERTEX
8
CONTOURS_MINEURES
10
25.235
20
135.231
0
VERTEX
8
CONTOURS_MINEURES
10
26.804
20
135.000
0
VERTEX
8
CONTOURS_MINEURES
10
29.514
20
134.510
0
VERTEX
8
CONTOURS_MINEURES
10
30.005
20
134.385
0
VERTEX
8
CONTOURS_MINEURES
10
31.005
20
134.001
0
VERTEX
8
CONTOURS_MINEURES
10
35.005
20
131.603
0
VERTEX
8
CONTOURS_MINEURES
10
36.080
20
131.081
0
VERTEX
8
CONTOURS_MINEURES
10
38.634
20
130.004
0
VERTEX
8
CONTOURS_MINEURES
10
39.995
20
129.579
0
VERTEX
8
CONTOURS_MINEURES
10
43.685
20
128.691
0
VERTEX
8
CONTOURS_MINEURES
10
44.996
20
128.393
0
VERTEX
8
CONTOURS_MINEURES
10
47.800
20
127.804
0
VERTEX
8
CONTOURS_MINEURES
10
49.996
20
127.088
0
VERTEX
8
CONTOURS_MINEURES
10
54.494
20
125.500
0
VERTEX
8
CONTOURS_MINEURES
10
54.997
20
125.336
0
VERTEX
8
CONTOURS_MINEURES
10
55.268
20
125.268
0
VERTEX
8
CONTOURS_MINEURES
10
55.921
20
124.996
0
VERTEX
8
CONTOURS_MINEURES
10
59.998
20
123.220
0
VERTEX
8
CONTOURS_MINEURES
10
62.327
20
122.327
0
VERTEX
8
CONTOURS_MINEURES
10
64.998
20
120.542
0
VERTEX
8
CONTOURS_MINEURES
10
67.374
20
120.000
0
VERTEX
8
CONTOURS_MINEURES
10
69.999
20
119.563
0
VERTEX
8
CONTOURS_MINEURES
10
70.499
20
119.500
0
VERTEX
8
CONTOURS_MINEURES
10
75.000
20
118.955
0
VERTEX
8
CONTOURS_MINEURES
10
77.520
20
117.522
0
VERTEX
8
CONTOURS_MINEURES
10
80.000
20
116.112
0
VERTEX
8
CONTOURS_MINEURES
10
80.803
20
115.806
0
VERTEX
8
CONTOURS_MINEURES
10
82.155
20
115.004
0
VERTEX
8
CONTOURS_MINEURES
10
85.001
20
112.930
0
VERTEX
8
CONTOURS_MINEURES
10
86.548
20
111.545
0
VERTEX
8
CONTOURS_MINEURES
10
87.751
20
109.996
0
VERTEX
8
CONTOURS_MINEURES
10
90.002
20
106.784
0
VERTEX
8
CONTOURS_MINEURES
10
91.909
20
105.000
0
VERTEX
8
CONTOURS_MINEURES
10
95.002
20
102.879
0
VERTEX
8
CONTOURS_MINEURES
10
96.698
20
101.697
0
VERTEX
8
CONTOURS_MINEURES
10
98.325
20
100.003
0
VERTEX
8
CONTOURS_MINEURES
10
100.003
20
98.345
0
VERTEX
8
CONTOURS_MINEURES
10
102.541
20
94.996
0
VERTEX
8
CONTOURS_MINEURES
10
105.004
20
91.619
0
VERTEX
8
CONTOURS_MINEURES
10
105.743
20
90.738
0
VERTEX
8
CONTOURS_MINEURES
10
106.437
20
89.999
0
VERTEX
8
CONTOURS_MINEURES
10
107.958
20
87.955
0
VERTEX
8
CONTOURS_MINEURES
10
110.004
20
85.763
0
VERTEX
8
CONTOURS_MINEURES
10
110.578
20
85.003
0
VERTEX
8
CONTOURS_MINEURES
10
111.726
20
83.279
0
VERTEX
8
CONTOURS_MINEURES
10
114.066
20
79.996
0
VERTEX
8
CONTOURS_MINEURES
10
114.404
20
79.395
0
VERTEX
8
CONTOURS_MINEURES
10
115.005
20
78.128
0
VERTEX
8
CONTOURS_MINEURES
10
116.793
20
74.999
0
VERTEX
8
CONTOURS_MINEURES
10
117.999
20
73.001
0
VERTEX
8
CONTOURS_MINEURES
10
119.808
20
70.003
0
VERTEX
8
CONTOURS_MINEURES
10
119.896
20
69.904
0
VERTEX
8
CONTOURS_MINEURES
10
119.995
20
69.799
0
VERTEX
8
CONTOURS_MINEURES
10
122.359
20
67.363
0
VERTEX
8
CONTOURS_MINEURES
10
124.141
20
64.995
0
VERTEX
8
CONTOURS_MINEURES
10
124.528
20
60.466
0
VERTEX
8
CONTOURS_MINEURES
10
124.515
20
59.999
0
VERTEX
8
CONTOURS_MINEURES
10
124.236
20
59.241
0
VERTEX
8
CONTOURS_MINEURES
10
123.765
20
55.002
0
VERTEX
8
CONTOURS_MINEURES
10
123.001
20
51.992
0
VERTEX
8
CONTOURS_MINEURES
10
119.995
20
50.557
0
VERTEX
8
CONTOURS_MINEURES
10
119.725
20
50.266
0
VERTEX
8
CONTOURS_MINEURES
10
119.087
20
49.995
0
VERTEX
8
CONTOURS_MINEURES
10
118.213
20
46.783
0
VERTEX
8
CONTOURS_MINEURES
10
116.513
20
44.999
0
VERTEX
8
CONTOURS_MINEURES
10
118.816
20
43.818
0
VERTEX
8
CONTOURS_MINEURES
10
119.944
20
40.002
0
VERTEX
8
CONTOURS_MINEURES
10
119.959
20
39.966
0
VERTEX
8
CONTOURS_MINEURES
10
119.959
20
34.995
0
VERTEX
8
CONTOURS_MINEURES
10
118.934
20
31.061
0
VERTEX
8
CONTOURS_MINEURES
10
118.666
20
29.998
0
VERTEX
8
CONTOURS_MINEURES
10
118.148
20
28.150
0
VERTEX
8
CONTOURS_MINEURES
10
117.250
20
25.002
0
VERTEX
8
CONTOURS_MINEURES
10
116.300
20
21.294
0
VERTEX
8
CONTOURS_MINEURES
10
115.909
20
19.994
0
VERTEX
8
CONTOURS_MINEURES
10
115.718
20
19.281
0
VERTEX
8
CONTOURS_MINEURES
10
115.295
20
14.998
0
VERTEX
8
CONTOURS_MINEURES
10
115.282
20
14.720
0
VERTEX
8
CONTOURS_MINEURES
10
115.359
20
10.002
0
VERTEX
8
CONTOURS_MINEURES
10
115.005
20
7.404
0
VERTEX
8
CONTOURS_MINEURES
10
114.668
20
5.005
0
VERTEX
8
CONTOURS_MINEURES
10
114.005
20
4.004
0
VERTEX
8
CONTOURS_MINEURES
10
111.514
20
-0.002
0
SEQEND
0
POLYLINE
8
CONTOURS_MINEURES
66
1
70
0
0
VERTEX
8
CONTOURS_MINEURES
10
22.226
20
184.998
0
VERTEX
8
CONTOURS_MINEURES
10
21.503
20
183.499
0
VERTEX
8
CONTOURS_MINEURES
10
20.003
20
182.016
0
VERTEX
8
CONTOURS_MINEURES
10
19.140
20
180.001
0
VERTEX
8
CONTOURS_MINEURES
10
18.349
20
176.657
0
VERTEX
8
CONTOURS_MINEURES
10
18.005
20
175.005
0
VERTEX
8
CONTOURS_MINEURES
10
17.498
20
172.506
0
VERTEX
8
CONTOURS_MINEURES
10
16.691
20
169.997
0
VERTEX
8
CONTOURS_MINEURES
10
15.533
20
165.531
0
VERTEX
8
CONTOURS_MINEURES
10
15.389
20
165.001
0
VERTEX
8
CONTOURS_MINEURES
10
15.003
20
163.710
0
VERTEX
8
CONTOURS_MINEURES
10
13.867
20
161.139
0
VERTEX
8
CONTOURS_MINEURES
10
13.378
20
160.004
0
VERTEX
8
CONTOURS_MINEURES
10
12.081
20
157.923
0
VERTEX
8
CONTOURS_MINEURES
10
10.002
20
156.192
0
VERTEX
8
CONTOURS_MINEURES
10
9.377
20
155.623
0
VERTEX
8
CONTOURS_MINEURES
10
8.276
20
154.997
0
VERTEX
8
CONTOURS_MINEURES
10
8.181
20
151.820
0
VERTEX
8
CONTOURS_MINEURES
10
7.189
20
150.001
0
VERTEX
8
CONTOURS_MINEURES
10
7.238
20
147.239
0
VERTEX
8
CONTOURS_MINEURES
10
8.357
20
145.004
0
VERTEX
8
CONTOURS_MINEURES
10
10.002
20
143.078
0
VERTEX
8
CONTOURS_MINEURES
10
11.318
20
141.314
0
VERTEX
8
CONTOURS_MINEURES
10
13.177
20
139.997
0
VERTEX
8
CONTOURS_MINEURES
10
15.003
20
139.372
0
VERTEX
8
CONTOURS_MINEURES
10
19.882
20
139.876
0
VERTEX
8
CONTOURS_MINEURES
10
20.003
20
139.904
0
VERTEX
8
CONTOURS_MINEURES
10
20.097
20
139.903
0
VERTEX
8
CONTOURS_MINEURES
10
20.609
20
139.997
0
VERTEX
8
CONTOURS_MINEURES
10
25.004
20
140.487
0
VERTEX
8
CONTOURS_MINEURES
10
29.755
20
140.246
0
VERTEX
8
CONTOURS_MINEURES
10
30.005
20
140.203
0
VERTEX
8
CONTOURS_MINEURES
10
30.165
20
140.157
0
VERTEX
8
CONTOURS_MINEURES
10
30.471
20
139.997
0
VERTEX
8
CONTOURS_MINEURES
10
35.005
20
136.599
0
VERTEX
8
CONTOURS_MINEURES
10
38.297
20
135.000
0
VERTEX
8
CONTOURS_MINEURES
10
39.441
20
134.445
0
VERTEX
8
CONTOURS_MINEURES
10
39.995
20
134.211
0
VERTEX
8
CONTOURS_MINEURES
10
41.165
20
133.831
0
VERTEX
8
CONTOURS_MINEURES
10
44.996
20
132.446
0
VERTEX
8
CONTOURS_MINEURES
10
48.505
20
131.493
0
VERTEX
8
CONTOURS_MINEURES
10
49.996
20
131.070
0
VERTEX
8
CONTOURS_MINEURES
10
50.821
20
130.828
0
VERTEX
8
CONTOURS_MINEURES
10
52.924
20
130.004
0
VERTEX
8
CONTOURS_MINEURES
10
54.997
20
129.326
0
VERTEX
8
CONTOURS_MINEURES
10
58.453
20
128.457
0
VERTEX
8
CONTOURS_MINEURES
10
59.998
20
127.816
0
VERTEX
8
CONTOURS_MINEURES
10
63.438
20
126.559
0
VERTEX
8
CONTOURS_MINEURES
10
64.998
20
126.181
0
VERTEX
8
CONTOURS_MINEURES
10
65.963
20
125.963
0
VERTEX
8
CONTOURS_MINEURES
10
68.999
20
124.996
0
VERTEX
8
CONTOURS_MINEURES
10
69.999
20
124.707
0
VERTEX
8
CONTOURS_MINEURES
10
73.760
20
123.758
0
VERTEX
8
CONTOURS_MINEURES
10
75.000
20
123.586
0
VERTEX
8
CONTOURS_MINEURES
10
79.041
20
120.958
0
VERTEX
8
CONTOURS_MINEURES
10
80.000
20
120.288
0
VERTEX
8
CONTOURS_MINEURES
10
80.770
20
120.000
0
VERTEX
8
CONTOURS_MINEURES
10
83.834
20
118.834
0
VERTEX
8
CONTOURS_MINEURES
10
85.001
20
118.141
0
VERTEX
8
CONTOURS_MINEURES
10
89.306
20
115.004
0
VERTEX
8
CONTOURS_MINEURES
10
89.673
20
114.675
0
VERTEX
8
CONTOURS_MINEURES
10
90.002
20
114.252
0
VERTEX
8
CONTOURS_MINEURES
10
93.917
20
109.996
0
VERTEX
8
CONTOURS_MINEURES
10
95.002
20
108.966
0
VERTEX
8
CONTOURS_MINEURES
10
97.337
20
107.333
0
VERTEX
8
CONTOURS_MINEURES
10
100.003
20
105.230
0
VERTEX
8
CONTOURS_MINEURES
10
100.187
20
105.000
0
VERTEX
8
CONTOURS_MINEURES
10
100.559
20
104.445
0
VERTEX
8
CONTOURS_MINEURES
10
103.644
20
100.003
0
VERTEX
8
CONTOURS_MINEURES
10
105.004
20
98.229
0
VERTEX
8
CONTOURS_MINEURES
10
106.457
20
96.451
0
VERTEX
8
CONTOURS_MINEURES
10
107.952
20
94.996
0
VERTEX
8
CONTOURS_MINEURES
10
108.888
20
93.880
0
VERTEX
8
CONTOURS_MINEURES
10
110.004
20
92.692
0
VERTEX
8
CONTOURS_MINEURES
10
111.301
20
91.295
0
VERTEX
8
CONTOURS_MINEURES
10
112.297
20
89.999
0
VERTEX
8
CONTOURS_MINEURES
10
115.005
20
86.399
0
VERTEX
8
CONTOURS_MINEURES
10
115.921
20
85.003
0
VERTEX
8
CONTOURS_MINEURES
10
117.432
20
82.431
0
VERTEX
8
CONTOURS_MINEURES
10
119.142
20
79.996
0
VERTEX
8
CONTOURS_MINEURES
10
119.995
20
78.536
0
VERTEX
8
CONTOURS_MINEURES
10
121.158
20
76.161
0
VERTEX
8
CONTOURS_MINEURES
10
122.146
20
74.999
0
VERTEX
8
CONTOURS_MINEURES
10
124.995
20
70.658
0
VERTEX
8
CONTOURS_MINEURES
10
125.206
20
70.213
0
VERTEX
8
CONTOURS_MINEURES
10
125.412
20
70.003
0
VERTEX
8
CONTOURS_MINEURES
10
126.662
20
68.334
0
VERTEX
8
CONTOURS_MINEURES
10
129.188
20
64.995
0
VERTEX
8
CONTOURS_MINEURES
10
129.252
20
64.252
0
VERTEX
8
CONTOURS_MINEURES
10
129.787
20
59.999
0
VERTEX
8
CONTOURS_MINEURES
10
129.996
20
56.668
0
VERTEX
8
CONTOURS_MINEURES
10
130.104
20
55.110
0
VERTEX
8
CONTOURS_MINEURES
10
130.117
20
55.002
0
VERTEX
8
CONTOURS_MINEURES
10
130.129
20
54.869
0
VERTEX
8
CONTOURS_MINEURES
10
130.376
20
49.995
0
VERTEX
8
CONTOURS_MINEURES
10
130.545
20
45.547
0
VERTEX
8
CONTOURS_MINEURES
10
130.600
20
44.999
0
VERTEX
8
CONTOURS_MINEURES
10
130.639
20
44.356
0
VERTEX
8
CONTOURS_MINEURES
10
130.608
20
40.002
0
VERTEX
8
CONTOURS_MINEURES
10
129.996
20
36.133
0
VERTEX
8
CONTOURS_MINEURES
10
129.769
20
34.995
0
VERTEX
8
CONTOURS_MINEURES
10
129.644
20
34.643
0
VERTEX
8
CONTOURS_MINEURES
10
127.657
20
29.998
0
VERTEX
8
CONTOURS_MINEURES
10
126.705
20
28.290
0
VERTEX
8
CONTOURS_MINEURES
10
125.326
20
25.002
0
VERTEX
8
CONTOURS_MINEURES
10
124.995
20
24.309
0
VERTEX
8
CONTOURS_MINEURES
10
123.431
20
21.561
0
VERTEX
8
CONTOURS_MINEURES
10
122.906
20
19.994
0
VERTEX
8
CONTOURS_MINEURES
10
122.016
20
17.018
0
VERTEX
8
CONTOURS_MINEURES
10
121.050
20
14.998
0
VERTEX
8
CONTOURS_MINEURES
10
120.867
20
10.873
0
VERTEX
8
CONTOURS_MINEURES
10
120.780
20
10.002
0
VERTEX
8
CONTOURS_MINEURES
10
120.768
20
9.229
0
VERTEX
8
CONTOURS_MINEURES
10
120.514
20
5.005
0
VERTEX
8
CONTOURS_MINEURES
10
119.995
20
3.801
0
VERTEX
8
CONTOURS_MINEURES
10
118.788
20
1.209
0
VERTEX
8
CONTOURS_MINEURES
10
117.985
20
-0.002
0
SEQEND
0
POLYLINE
8
CONTOURS_MINEURES
66
1
70
0
0
VERTEX
8
CONTOURS_MINEURES
10
26.733
20
184.998
0
VERTEX
8
CONTOURS_MINEURES
10
25.998
20
184.004
0
VERTEX
8
CONTOURS_MINEURES
10
25.004
20
182.222
0
VERTEX
8
CONTOURS_MINEURES
10
24.282
20
180.723
0
VERTEX
8
CONTOURS_MINEURES
10
23.551
20
180.001
0
VERTEX
8
CONTOURS_MINEURES
10
21.712
20
176.712
0
VERTEX
8
CONTOURS_MINEURES
10
20.741
20
175.005
0
VERTEX
8
CONTOURS_MINEURES
10
20.511
20
174.496
0
VERTEX
8
CONTOURS_MINEURES
10
20.003
20
173.468
0
VERTEX
8
CONTOURS_MINEURES
10
19.418
20
170.584
0
VERTEX
8
CONTOURS_MINEURES
10
19.229
20
169.997
0
VERTEX
8
CONTOURS_MINEURES
10
18.959
20
168.953
0
VERTEX
8
CONTOURS_MINEURES
10
17.883
20
165.001
0
VERTEX
8
CONTOURS_MINEURES
10
16.978
20
161.978
0
VERTEX
8
CONTOURS_MINEURES
10
16.448
20
160.004
0
VERTEX
8
CONTOURS_MINEURES
10
15.003
20
156.754
0
VERTEX
8
CONTOURS_MINEURES
10
14.328
20
155.672
0
VERTEX
8
CONTOURS_MINEURES
10
13.517
20
154.997
0
VERTEX
8
CONTOURS_MINEURES
10
13.480
20
153.475
0
VERTEX
8
CONTOURS_MINEURES
10
15.003
20
151.250
0
VERTEX
8
CONTOURS_MINEURES
10
15.483
20
150.001
0
VERTEX
8
CONTOURS_MINEURES
10
16.518
20
148.487
0
VERTEX
8
CONTOURS_MINEURES
10
18.287
20
145.004
0
VERTEX
8
CONTOURS_MINEURES
10
20.003
20
144.052
0
VERTEX
8
CONTOURS_MINEURES
10
23.730
20
143.728
0
VERTEX
8
CONTOURS_MINEURES
10
25.004
20
143.871
0
VERTEX
8
CONTOURS_MINEURES
10
26.196
20
143.810
0
VERTEX
8
CONTOURS_MINEURES
10
30.005
20
143.148
0
VERTEX
8
CONTOURS_MINEURES
10
32.453
20
142.449
0
VERTEX
8
CONTOURS_MINEURES
10
35.005
20
141.113
0
VERTEX
8
CONTOURS_MINEURES
10
37.303
20
139.997
0
VERTEX
8
CONTOURS_MINEURES
10
39.995
20
138.448
0
VERTEX
8
CONTOURS_MINEURES
10
42.613
20
137.616
0
VERTEX
8
CONTOURS_MINEURES
10
44.996
20
136.819
0
VERTEX
8
CONTOURS_MINEURES
10
49.339
20
135.657
0
VERTEX
8
CONTOURS_MINEURES
10
49.996
20
135.532
0
VERTEX
8
CONTOURS_MINEURES
10
51.739
20
135.000
0
VERTEX
8
CONTOURS_MINEURES
10
54.258
20
134.262
0
VERTEX
8
CONTOURS_MINEURES
10
54.997
20
133.972
0
VERTEX
8
CONTOURS_MINEURES
10
56.470
20
133.529
0
VERTEX
8
CONTOURS_MINEURES
10
59.998
20
132.502
0
VERTEX
8
CONTOURS_MINEURES
10
62.058
20
132.062
0
VERTEX
8
CONTOURS_MINEURES
10
64.998
20
131.417
0
VERTEX
8
CONTOURS_MINEURES
10
66.145
20
131.149
0
VERTEX
8
CONTOURS_MINEURES
10
69.999
20
130.383
0
VERTEX
8
CONTOURS_MINEURES
10
71.454
20
130.004
0
VERTEX
8
CONTOURS_MINEURES
10
75.000
20
128.919
0
VERTEX
8
CONTOURS_MINEURES
10
76.845
20
126.845
0
VERTEX
8
CONTOURS_MINEURES
10
79.147
20
124.996
0
VERTEX
8
CONTOURS_MINEURES
10
80.000
20
124.400
0
VERTEX
8
CONTOURS_MINEURES
10
80.954
20
124.043
0
VERTEX
8
CONTOURS_MINEURES
10
85.001
20
122.649
0
VERTEX
8
CONTOURS_MINEURES
10
87.072
20
122.069
0
VERTEX
8
CONTOURS_MINEURES
10
90.002
20
120.347
0
VERTEX
8
CONTOURS_MINEURES
10
90.463
20
120.000
0
VERTEX
8
CONTOURS_MINEURES
10
92.917
20
117.917
0
VERTEX
8
CONTOURS_MINEURES
10
95.002
20
115.649
0
VERTEX
8
CONTOURS_MINEURES
10
95.355
20
115.357
0
VERTEX
8
CONTOURS_MINEURES
10
95.821
20
115.004
0
VERTEX
8
CONTOURS_MINEURES
10
100.003
20
111.808
0
VERTEX
8
CONTOURS_MINEURES
10
100.996
20
110.990
0
VERTEX
8
CONTOURS_MINEURES
10
101.824
20
109.996
0
VERTEX
8
CONTOURS_MINEURES
10
105.004
20
105.751
0
VERTEX
8
CONTOURS_MINEURES
10
105.375
20
105.000
0
VERTEX
8
CONTOURS_MINEURES
10
107.026
20
102.024
0
VERTEX
8
CONTOURS_MINEURES
10
108.735
20
100.003
0
VERTEX
8
CONTOURS_MINEURES
10
109.306
20
99.304
0
VERTEX
8
CONTOURS_MINEURES
10
110.004
20
98.625
0
VERTEX
8
CONTOURS_MINEURES
10
113.890
20
94.996
0
VERTEX
8
CONTOURS_MINEURES
10
114.427
20
94.418
0
VERTEX
8
CONTOURS_MINEURES
10
115.005
20
93.666
0
VERTEX
8
CONTOURS_MINEURES
10
117.727
20
89.999
0
VERTEX
8
CONTOURS_MINEURES
10
119.995
20
86.338
0
VERTEX
8
CONTOURS_MINEURES
10
120.495
20
85.503
0
VERTEX
8
CONTOURS_MINEURES
10
120.716
20
85.003
0
VERTEX
8
CONTOURS_MINEURES
10
121.627
20
83.369
0
VERTEX
8
CONTOURS_MINEURES
10
123.610
20
79.996
0
VERTEX
8
CONTOURS_MINEURES
10
124.065
20
79.066
0
VERTEX
8
CONTOURS_MINEURES
10
124.995
20
77.972
0
VERTEX
8
CONTOURS_MINEURES
10
125.913
20
75.916
0
VERTEX
8
CONTOURS_MINEURES
10
126.817
20
74.999
0
VERTEX
8
CONTOURS_MINEURES
10
127.838
20
72.843
0
VERTEX
8
CONTOURS_MINEURES
10
129.996
20
70.641
0
VERTEX
8
CONTOURS_MINEURES
10
130.306
20
70.313
0
VERTEX
8
CONTOURS_MINEURES
10
130.648
20
70.003
0
VERTEX
8
CONTOURS_MINEURES
10
133.240
20
66.755
0
VERTEX
8
CONTOURS_MINEURES
10
134.638
20
64.995
0
VERTEX
8
CONTOURS_MINEURES
10
134.997
20
62.900
0
VERTEX
8
CONTOURS_MINEURES
10
135.385
20
60.387
0
VERTEX
8
CONTOURS_MINEURES
10
135.442
20
59.999
0
VERTEX
8
CONTOURS_MINEURES
10
135.494
20
59.502
0
VERTEX
8
CONTOURS_MINEURES
10
135.942
20
55.002
0
VERTEX
8
CONTOURS_MINEURES
10
136.241
20
51.241
0
VERTEX
8
CONTOURS_MINEURES
10
136.403
20
49.995
0
VERTEX
8
CONTOURS_MINEURES
10
136.664
20
46.664
0
VERTEX
8
CONTOURS_MINEURES
10
136.852
20
44.999
0
VERTEX
8
CONTOURS_MINEURES
10
136.957
20
43.040
0
VERTEX
8
CONTOURS_MINEURES
10
137.105
20
40.002
0
VERTEX
8
CONTOURS_MINEURES
10
136.890
20
38.106
0
VERTEX
8
CONTOURS_MINEURES
10
136.480
20
34.995
0
VERTEX
8
CONTOURS_MINEURES
10
134.997
20
30.177
0
VERTEX
8
CONTOURS_MINEURES
10
134.946
20
30.049
0
VERTEX
8
CONTOURS_MINEURES
10
134.927
20
29.998
0
VERTEX
8
CONTOURS_MINEURES
10
134.863
20
29.865
0
VERTEX
8
CONTOURS_MINEURES
10
132.398
20
25.002
0
VERTEX
8
CONTOURS_MINEURES
10
131.030
20
23.966
0
VERTEX
8
CONTOURS_MINEURES
10
129.996
20
21.487
0
VERTEX
8
CONTOURS_MINEURES
10
129.110
20
19.994
0
VERTEX
8
CONTOURS_MINEURES
10
128.254
20
18.254
0
VERTEX
8
CONTOURS_MINEURES
10
126.262
20
14.998
0
VERTEX
8
CONTOURS_MINEURES
10
126.256
20
13.738
0
VERTEX
8
CONTOURS_MINEURES
10
125.920
20
10.002
0
VERTEX
8
CONTOURS_MINEURES
10
125.956
20
9.042
0
VERTEX
8
CONTOURS_MINEURES
10
125.895
20
5.005
0
VERTEX
8
CONTOURS_MINEURES
10
124.995
20
2.232
0
VERTEX
8
CONTOURS_MINEURES
10
124.137
20
-0.002
0
SEQEND
0
POLYLINE
8
CONTOURS_MINEURES
66
1
70
0
0
VERTEX
8
CONTOURS_MINEURES
10
31.901
20
184.998
0
VERTEX
8
CONTOURS_MINEURES
10
30.005
20
182.230
0
VERTEX
8
CONTOURS_MINEURES
10
29.056
20
180.948
0
VERTEX
8
CONTOURS_MINEURES
10
28.528
20
180.001
0
VERTEX
8
CONTOURS_MINEURES
10
27.080
20
177.079
0
VERTEX
8
CONTOURS_MINEURES
10
25.986
20
175.005
0
VERTEX
8
CONTOURS_MINEURES
10
25.004
20
172.350
0
VERTEX
8
CONTOURS_MINEURES
10
24.271
20
170.731
0
VERTEX
8
CONTOURS_MINEURES
10
23.908
20
169.997
0
VERTEX
8
CONTOURS_MINEURES
10
22.177
20
167.173
0
VERTEX
8
CONTOURS_MINEURES
10
20.797
20
165.001
0
VERTEX
8
CONTOURS_MINEURES
10
20.003
20
163.546
0
VERTEX
8
CONTOURS_MINEURES
10
19.053
20
160.004
0
VERTEX
8
CONTOURS_MINEURES
10
18.289
20
158.288
0
VERTEX
8
CONTOURS_MINEURES
10
18.170
20
154.997
0
VERTEX
8
CONTOURS_MINEURES
10
20.003
20
150.645
0
VERTEX
8
CONTOURS_MINEURES
10
20.597
20
150.001
0
VERTEX
8
CONTOURS_MINEURES
10
23.172
20
148.171
0
VERTEX
8
CONTOURS_MINEURES
10
25.004
20
147.998
0
VERTEX
8
CONTOURS_MINEURES
10
27.734
20
147.272
0
VERTEX
8
CONTOURS_MINEURES
10
30.005
20
146.421
0
VERTEX
8
CONTOURS_MINEURES
10
33.819
20
145.004
0
VERTEX
8
CONTOURS_MINEURES
10
34.742
20
144.741
0
VERTEX
8
CONTOURS_MINEURES
10
35.005
20
144.603
0
VERTEX
8
CONTOURS_MINEURES
10
35.781
20
144.226
0
VERTEX
8
CONTOURS_MINEURES
10
39.995
20
142.672
0
VERTEX
8
CONTOURS_MINEURES
10
42.143
20
142.148
0
VERTEX
8
CONTOURS_MINEURES
10
44.996
20
141.120
0
VERTEX
8
CONTOURS_MINEURES
10
45.941
20
140.943
0
VERTEX
8
CONTOURS_MINEURES
10
49.996
20
140.161
0
VERTEX
8
CONTOURS_MINEURES
10
50.850
20
139.997
0
VERTEX
8
CONTOURS_MINEURES
10
54.997
20
139.107
0
VERTEX
8
CONTOURS_MINEURES
10
58.028
20
138.029
0
VERTEX
8
CONTOURS_MINEURES
10
59.998
20
137.436
0
VERTEX
8
CONTOURS_MINEURES
10
63.288
20
136.709
0
VERTEX
8
CONTOURS_MINEURES
10
64.998
20
136.204
0
VERTEX
8
CONTOURS_MINEURES
10
69.854
20
135.146
0
VERTEX
8
CONTOURS_MINEURES
10
69.999
20
135.116
0
VERTEX
8
CONTOURS_MINEURES
10
70.096
20
135.097
0
VERTEX
8
CONTOURS_MINEURES
10
70.555
20
135.000
0
VERTEX
8
CONTOURS_MINEURES
10
75.000
20
134.006
0
VERTEX
8
CONTOURS_MINEURES
10
77.048
20
132.051
0
VERTEX
8
CONTOURS_MINEURES
10
78.985
20
130.004
0
VERTEX
8
CONTOURS_MINEURES
10
79.464
20
129.466
0
VERTEX
8
CONTOURS_MINEURES
10
80.000
20
129.035
0
VERTEX
8
CONTOURS_MINEURES
10
82.870
20
127.870
0
VERTEX
8
CONTOURS_MINEURES
10
85.001
20
127.087
0
VERTEX
8
CONTOURS_MINEURES
10
86.656
20
126.653
0
VERTEX
8
CONTOURS_MINEURES
10
90.002
20
125.616
0
VERTEX
8
CONTOURS_MINEURES
10
91.315
20
124.996
0
VERTEX
8
CONTOURS_MINEURES
10
95.002
20
122.481
0
VERTEX
8
CONTOURS_MINEURES
10
96.252
20
121.249
0
VERTEX
8
CONTOURS_MINEURES
10
97.953
20
120.000
0
VERTEX
8
CONTOURS_MINEURES
10
99.073
20
119.071
0
VERTEX
8
CONTOURS_MINEURES
10
100.003
20
118.367
0
VERTEX
8
CONTOURS_MINEURES
10
101.976
20
116.975
0
VERTEX
8
CONTOURS_MINEURES
10
104.123
20
115.004
0
VERTEX
8
CONTOURS_MINEURES
10
104.606
20
114.606
0
VERTEX
8
CONTOURS_MINEURES
10
105.004
20
114.129
0
VERTEX
8
CONTOURS_MINEURES
10
106.835
20
111.830
0
VERTEX
8
CONTOURS_MINEURES
10
107.528
20
109.996
0
VERTEX
8
CONTOURS_MINEURES
10
109.487
20
105.517
0
VERTEX
8
CONTOURS_MINEURES
10
109.742
20
105.000
0
VERTEX
8
CONTOURS_MINEURES
10
109.836
20
104.831
0
VERTEX
8
CONTOURS_MINEURES
10
110.004
20
104.632
0
VERTEX
8
CONTOURS_MINEURES
10
112.265
20
102.262
0
VERTEX
8
CONTOURS_MINEURES
10
115.005
20
100.213
0
VERTEX
8
CONTOURS_MINEURES
10
115.453
20
100.003
0
VERTEX
8
CONTOURS_MINEURES
10
118.338
20
98.341
0
VERTEX
8
CONTOURS_MINEURES
10
119.995
20
96.213
0
VERTEX
8
CONTOURS_MINEURES
10
120.773
20
94.996
0
VERTEX
8
CONTOURS_MINEURES
10
122.241
20
92.244
0
VERTEX
8
CONTOURS_MINEURES
10
122.959
20
89.999
0
VERTEX
8
CONTOURS_MINEURES
10
123.721
20
88.726
0
VERTEX
8
CONTOURS_MINEURES
10
124.995
20
85.845
0
VERTEX
8
CONTOURS_MINEURES
10
125.300
20
85.307
0
VERTEX
8
CONTOURS_MINEURES
10
125.281
20
85.003
0
VERTEX
8
CONTOURS_MINEURES
10
125.337
20
84.661
0
VERTEX
8
CONTOURS_MINEURES
10
126.917
20
79.996
0
VERTEX
8
CONTOURS_MINEURES
10
127.867
20
77.868
0
VERTEX
8
CONTOURS_MINEURES
10
129.996
20
75.707
0
VERTEX
8
CONTOURS_MINEURES
10
130.901
20
74.999
0
VERTEX
8
CONTOURS_MINEURES
10
132.890
20
72.895
0
VERTEX
8
CONTOURS_MINEURES
10
134.997
20
70.987
0
VERTEX
8
CONTOURS_MINEURES
10
136.090
20
70.003
0
VERTEX
8
CONTOURS_MINEURES
10
138.701
20
66.294
0
VERTEX
8
CONTOURS_MINEURES
10
139.649
20
64.995
0
VERTEX
8
CONTOURS_MINEURES
10
139.696
20
64.694
0
VERTEX
8
CONTOURS_MINEURES
10
139.997
20
62.664
0
VERTEX
8
CONTOURS_MINEURES
10
140.116
20
59.999
0
VERTEX
8
CONTOURS_MINEURES
10
140.264
20
55.268
0
VERTEX
8
CONTOURS_MINEURES
10
140.270
20
55.002
0
VERTEX
8
CONTOURS_MINEURES
10
140.438
20
50.437
0
VERTEX
8
CONTOURS_MINEURES
10
140.465
20
49.995
0
VERTEX
8
CONTOURS_MINEURES
10
140.604
20
45.605
0
VERTEX
8
CONTOURS_MINEURES
10
140.644
20
44.999
0
VERTEX
8
CONTOURS_MINEURES
10
140.653
20
44.343
0
VERTEX
8
CONTOURS_MINEURES
10
140.721
20
40.002
0
VERTEX
8
CONTOURS_MINEURES
10
140.576
20
35.574
0
VERTEX
8
CONTOURS_MINEURES
10
140.532
20
34.995
0
VERTEX
8
CONTOURS_MINEURES
10
140.443
20
34.549
0
VERTEX
8
CONTOURS_MINEURES
10
140.064
20
29.998
0
VERTEX
8
CONTOURS_MINEURES
10
139.997
20
29.661
0
VERTEX
8
CONTOURS_MINEURES
10
137.943
20
27.054
0
VERTEX
8
CONTOURS_MINEURES
10
137.333
20
25.002
0
VERTEX
8
CONTOURS_MINEURES
10
134.997
20
21.987
0
VERTEX
8
CONTOURS_MINEURES
10
133.863
20
21.129
0
VERTEX
8
CONTOURS_MINEURES
10
133.390
20
19.994
0
VERTEX
8
CONTOURS_MINEURES
10
132.268
20
17.725
0
VERTEX
8
CONTOURS_MINEURES
10
130.621
20
14.998
0
VERTEX
8
CONTOURS_MINEURES
10
130.632
20
14.363
0
VERTEX
8
CONTOURS_MINEURES
10
130.613
20
10.002
0
VERTEX
8
CONTOURS_MINEURES
10
130.762
20
5.771
0
VERTEX
8
CONTOURS_MINEURES
10
130.743
20
5.005
0
VERTEX
8
CONTOURS_MINEURES
10
130.619
20
4.381
0
VERTEX
8
CONTOURS_MINEURES
10
129.996
20
1.400
0
VERTEX
8
CONTOURS_MINEURES
10
129.618
20
-0.002
0
SEQEND
0
POLYLINE
8
CONTOURS_MINEURES
66
1
70
0
0
VERTEX
8
CONTOURS_MINEURES
10
36.654
20
184.998
0
VERTEX
8
CONTOURS_MINEURES
10
35.005
20
182.823
0
VERTEX
8
CONTOURS_MINEURES
10
32.954
20
180.001
0
VERTEX
8
CONTOURS_MINEURES
10
31.825
20
178.182
0
VERTEX
8
CONTOURS_MINEURES
10
30.388
20
175.005
0
VERTEX
8
CONTOURS_MINEURES
10
30.268
20
174.741
0
VERTEX
8
CONTOURS_MINEURES
10
30.005
20
174.118
0
VERTEX
8
CONTOURS_MINEURES
10
28.174
20
169.997
0
VERTEX
8
CONTOURS_MINEURES
10
27.192
20
167.811
0
VERTEX
8
CONTOURS_MINEURES
10
25.831
20
165.001
0
VERTEX
8
CONTOURS_MINEURES
10
25.697
20
164.309
0
VERTEX
8
CONTOURS_MINEURES
10
25.004
20
162.867
0
VERTEX
8
CONTOURS_MINEURES
10
23.493
20
160.004
0
VERTEX
8
CONTOURS_MINEURES
10
25.004
20
155.256
0
VERTEX
8
CONTOURS_MINEURES
10
25.062
20
155.055
0
VERTEX
8
CONTOURS_MINEURES
10
25.120
20
154.997
0
VERTEX
8
CONTOURS_MINEURES
10
27.346
20
152.341
0
VERTEX
8
CONTOURS_MINEURES
10
30.005
20
150.468
0
VERTEX
8
CONTOURS_MINEURES
10
30.711
20
150.001
0
VERTEX
8
CONTOURS_MINEURES
10
35.005
20
148.459
0
VERTEX
8
CONTOURS_MINEURES
10
37.650
20
147.652
0
VERTEX
8
CONTOURS_MINEURES
10
39.995
20
146.838
0
VERTEX
8
CONTOURS_MINEURES
10
41.512
20
146.520
0
VERTEX
8
CONTOURS_MINEURES
10
44.996
20
145.703
0
VERTEX
8
CONTOURS_MINEURES
10
45.645
20
145.653
0
VERTEX
8
CONTOURS_MINEURES
10
49.246
20
145.004
0
VERTEX
8
CONTOURS_MINEURES
10
49.878
20
144.886
0
VERTEX
8
CONTOURS_MINEURES
10
49.996
20
144.863
0
VERTEX
8
CONTOURS_MINEURES
10
50.171
20
144.829
0
VERTEX
8
CONTOURS_MINEURES
10
54.997
20
143.845
0
VERTEX
8
CONTOURS_MINEURES
10
58.016
20
143.019
0
VERTEX
8
CONTOURS_MINEURES
10
59.998
20
142.367
0
VERTEX
8
CONTOURS_MINEURES
10
63.836
20
141.160
0
VERTEX
8
CONTOURS_MINEURES
10
64.998
20
140.866
0
VERTEX
8
CONTOURS_MINEURES
10
65.680
20
140.680
0
VERTEX
8
CONTOURS_MINEURES
10
68.749
20
139.997
0
VERTEX
8
CONTOURS_MINEURES
10
69.999
20
139.742
0
VERTEX
8
CONTOURS_MINEURES
10
73.988
20
138.986
0
VERTEX
8
CONTOURS_MINEURES
10
75.000
20
138.771
0
VERTEX
8
CONTOURS_MINEURES
10
77.036
20
137.034
0
VERTEX
8
CONTOURS_MINEURES
10
79.167
20
135.000
0
VERTEX
8
CONTOURS_MINEURES
10
79.593
20
134.593
0
VERTEX
8
CONTOURS_MINEURES
10
80.000
20
134.163
0
VERTEX
8
CONTOURS_MINEURES
10
81.524
20
133.478
0
VERTEX
8
CONTOURS_MINEURES
10
85.001
20
131.865
0
VERTEX
8
CONTOURS_MINEURES
10
89.426
20
130.579
0
VERTEX
8
CONTOURS_MINEURES
10
90.002
20
130.379
0
VERTEX
8
CONTOURS_MINEURES
10
90.287
20
130.289
0
VERTEX
8
CONTOURS_MINEURES
10
91.068
20
130.004
0
VERTEX
8
CONTOURS_MINEURES
10
95.002
20
128.415
0
VERTEX
8
CONTOURS_MINEURES
10
99.443
20
124.996
0
VERTEX
8
CONTOURS_MINEURES
10
99.725
20
124.719
0
VERTEX
8
CONTOURS_MINEURES
10
100.003
20
124.515
0
VERTEX
8
CONTOURS_MINEURES
10
101.382
20
123.618
0
VERTEX
8
CONTOURS_MINEURES
10
105.004
20
121.220
0
VERTEX
8
CONTOURS_MINEURES
10
105.779
20
120.774
0
VERTEX
8
CONTOURS_MINEURES
10
106.711
20
120.000
0
VERTEX
8
CONTOURS_MINEURES
10
108.440
20
118.437
0
VERTEX
8
CONTOURS_MINEURES
10
110.004
20
115.993
0
VERTEX
8
CONTOURS_MINEURES
10
110.625
20
115.004
0
VERTEX
8
CONTOURS_MINEURES
10
112.055
20
112.049
0
VERTEX
8
CONTOURS_MINEURES
10
112.583
20
109.996
0
VERTEX
8
CONTOURS_MINEURES
10
115.005
20
105.779
0
VERTEX
8
CONTOURS_MINEURES
10
115.396
20
105.391
0
VERTEX
8
CONTOURS_MINEURES
10
116.092
20
105.000
0
VERTEX
8
CONTOURS_MINEURES
10
119.995
20
103.307
0
VERTEX
8
CONTOURS_MINEURES
10
122.283
20
102.290
0
VERTEX
8
CONTOURS_MINEURES
10
124.572
20
100.003
0
VERTEX
8
CONTOURS_MINEURES
10
124.995
20
99.216
0
VERTEX
8
CONTOURS_MINEURES
10
126.135
20
96.137
0
VERTEX
8
CONTOURS_MINEURES
10
126.644
20
94.996
0
VERTEX
8
CONTOURS_MINEURES
10
127.779
20
92.215
0
VERTEX
8
CONTOURS_MINEURES
10
128.597
20
89.999
0
VERTEX
8
CONTOURS_MINEURES
10
129.102
20
89.107
0
VERTEX
8
CONTOURS_MINEURES
10
128.853
20
85.003
0
VERTEX
8
CONTOURS_MINEURES
10
129.611
20
80.381
0
VERTEX
8
CONTOURS_MINEURES
10
129.742
20
79.996
0
VERTEX
8
CONTOURS_MINEURES
10
129.820
20
79.820
0
VERTEX
8
CONTOURS_MINEURES
10
129.996
20
79.642
0
VERTEX
8
CONTOURS_MINEURES
10
131.633
20
78.360
0
VERTEX
8
CONTOURS_MINEURES
10
134.997
20
75.754
0
VERTEX
8
CONTOURS_MINEURES
10
136.013
20
74.999
0
VERTEX
8
CONTOURS_MINEURES
10
139.997
20
71.413
0
VERTEX
8
CONTOURS_MINEURES
10
140.762
20
70.003
0
VERTEX
8
CONTOURS_MINEURES
10
140.591
20
69.408
0
VERTEX
8
CONTOURS_MINEURES
10
141.525
20
64.995
0
VERTEX
8
CONTOURS_MINEURES
10
141.442
20
63.552
0
VERTEX
8
CONTOURS_MINEURES
10
141.600
20
59.999
0
VERTEX
8
CONTOURS_MINEURES
10
141.703
20
56.706
0
VERTEX
8
CONTOURS_MINEURES
10
141.745
20
55.002
0
VERTEX
8
CONTOURS_MINEURES
10
141.861
20
51.861
0
VERTEX
8
CONTOURS_MINEURES
10
141.973
20
49.995
0
VERTEX
8
CONTOURS_MINEURES
10
142.066
20
47.066
0
VERTEX
8
CONTOURS_MINEURES
10
142.202
20
44.999
0
VERTEX
8
CONTOURS_MINEURES
10
142.233
20
42.765
0
VERTEX
8
CONTOURS_MINEURES
10
142.276
20
40.002
0
VERTEX
8
CONTOURS_MINEURES
10
142.184
20
37.185
0
VERTEX
8
CONTOURS_MINEURES
10
142.018
20
34.995
0
VERTEX
8
CONTOURS_MINEURES
10
141.683
20
33.311
0
VERTEX
8
CONTOURS_MINEURES
10
141.407
20
29.998
0
VERTEX
8
CONTOURS_MINEURES
10
140.517
20
25.521
0
VERTEX
8
CONTOURS_MINEURES
10
140.406
20
25.002
0
VERTEX
8
CONTOURS_MINEURES
10
140.353
20
24.645
0
VERTEX
8
CONTOURS_MINEURES
10
139.997
20
23.714
0
VERTEX
8
CONTOURS_MINEURES
10
137.004
20
19.994
0
VERTEX
8
CONTOURS_MINEURES
10
136.641
20
18.352
0
VERTEX
8
CONTOURS_MINEURES
10
134.997
20
15.120
0
VERTEX
8
CONTOURS_MINEURES
10
134.956
20
15.038
0
VERTEX
8
CONTOURS_MINEURES
10
134.932
20
14.998
0
VERTEX
8
CONTOURS_MINEURES
10
134.997
20
11.251
0
VERTEX
8
CONTOURS_MINEURES
10
135.017
20
10.022
0
VERTEX
8
CONTOURS_MINEURES
10
135.016
20
10.002
0
VERTEX
8
CONTOURS_MINEURES
10
135.015
20
9.983
0
VERTEX
8
CONTOURS_MINEURES
10
134.997
20
9.169
0
VERTEX
8
CONTOURS_MINEURES
10
134.893
20
5.005
0
VERTEX
8
CONTOURS_MINEURES
10
134.080
20
0.916
0
VERTEX
8
CONTOURS_MINEURES
10
133.888
20
-0.002
0
SEQEND
0
POLYLINE
8
CONTOURS_MINEURES
66
1
70
0
0
VERTEX
8
CONTOURS_MINEURES
10
41.318
20
184.998
0
VERTEX
8
CONTOURS_MINEURES
10
40.614
20
184.379
0
VERTEX
8
CONTOURS_MINEURES
10
39.995
20
183.796
0
VERTEX
8
CONTOURS_MINEURES
10
36.986
20
180.001
0
VERTEX
8
CONTOURS_MINEURES
10
35.005
20
176.417
0
VERTEX
8
CONTOURS_MINEURES
10
34.464
20
175.545
0
VERTEX
8
CONTOURS_MINEURES
10
34.220
20
175.005
0
VERTEX
8
CONTOURS_MINEURES
10
32.900
20
172.106
0
VERTEX
8
CONTOURS_MINEURES
10
32.009
20
169.997
0
VERTEX
8
CONTOURS_MINEURES
10
31.547
20
168.457
0
VERTEX
8
CONTOURS_MINEURES
10
30.005
20
165.308
0
VERTEX
8
CONTOURS_MINEURES
10
29.909
20
165.096
0
VERTEX
8
CONTOURS_MINEURES
10
29.863
20
165.001
0
VERTEX
8
CONTOURS_MINEURES
10
29.075
20
160.933
0
VERTEX
8
CONTOURS_MINEURES
10
28.629
20
160.004
0
VERTEX
8
CONTOURS_MINEURES
10
28.939
20
158.937
0
VERTEX
8
CONTOURS_MINEURES
10
30.005
20
157.869
0
VERTEX
8
CONTOURS_MINEURES
10
32.851
20
154.997
0
VERTEX
8
CONTOURS_MINEURES
10
35.005
20
153.416
0
VERTEX
8
CONTOURS_MINEURES
10
37.124
20
152.122
0
VERTEX
8
CONTOURS_MINEURES
10
39.995
20
151.038
0
VERTEX
8
CONTOURS_MINEURES
10
44.130
20
150.001
0
VERTEX
8
CONTOURS_MINEURES
10
44.846
20
149.851
0
VERTEX
8
CONTOURS_MINEURES
10
44.996
20
149.816
0
VERTEX
8
CONTOURS_MINEURES
10
49.462
20
149.467
0
VERTEX
8
CONTOURS_MINEURES
10
49.996
20
149.370
0
VERTEX
8
CONTOURS_MINEURES
10
50.783
20
149.215
0
VERTEX
8
CONTOURS_MINEURES
10
54.997
20
148.335
0
VERTEX
8
CONTOURS_MINEURES
10
57.256
20
147.743
0
VERTEX
8
CONTOURS_MINEURES
10
59.998
20
146.990
0
VERTEX
8
CONTOURS_MINEURES
10
61.708
20
146.713
0
VERTEX
8
CONTOURS_MINEURES
10
64.998
20
145.990
0
VERTEX
8
CONTOURS_MINEURES
10
69.133
20
145.004
0
VERTEX
8
CONTOURS_MINEURES
10
69.813
20
144.818
0
VERTEX
8
CONTOURS_MINEURES
10
69.999
20
144.777
0
VERTEX
8
CONTOURS_MINEURES
10
70.286
20
144.717
0
VERTEX
8
CONTOURS_MINEURES
10
75.000
20
143.412
0
VERTEX
8
CONTOURS_MINEURES
10
79.089
20
139.997
0
VERTEX
8
CONTOURS_MINEURES
10
79.580
20
139.577
0
VERTEX
8
CONTOURS_MINEURES
10
80.000
20
139.176
0
VERTEX
8
CONTOURS_MINEURES
10
81.500
20
138.498
0
VERTEX
8
CONTOURS_MINEURES
10
85.001
20
137.004
0
VERTEX
8
CONTOURS_MINEURES
10
89.874
20
135.127
0
VERTEX
8
CONTOURS_MINEURES
10
90.002
20
135.081
0
VERTEX
8
CONTOURS_MINEURES
10
90.226
20
135.000
0
VERTEX
8
CONTOURS_MINEURES
10
93.859
20
133.858
0
VERTEX
8
CONTOURS_MINEURES
10
95.002
20
133.440
0
VERTEX
8
CONTOURS_MINEURES
10
97.213
20
132.212
0
VERTEX
8
CONTOURS_MINEURES
10
100.003
20
130.270
0
VERTEX
8
CONTOURS_MINEURES
10
100.150
20
130.150
0
VERTEX
8
CONTOURS_MINEURES
10
100.363
20
130.004
0
VERTEX
8
CONTOURS_MINEURES
10
102.943
20
127.940
0
VERTEX
8
CONTOURS_MINEURES
10
105.004
20
126.758
0
VERTEX
8
CONTOURS_MINEURES
10
108.539
20
124.996
0
VERTEX
8
CONTOURS_MINEURES
10
109.469
20
124.462
0
VERTEX
8
CONTOURS_MINEURES
10
110.004
20
124.017
0
VERTEX
8
CONTOURS_MINEURES
10
114.617
20
120.000
0
VERTEX
8
CONTOURS_MINEURES
10
115.005
20
119.276
0
VERTEX
8
CONTOURS_MINEURES
10
116.237
20
116.237
0
VERTEX
8
CONTOURS_MINEURES
10
117.008
20
115.004
0
VERTEX
8
CONTOURS_MINEURES
10
119.995
20
109.996
0
VERTEX
8
CONTOURS_MINEURES
10
124.995
20
106.786
0
VERTEX
8
CONTOURS_MINEURES
10
125.989
20
105.992
0
VERTEX
8
CONTOURS_MINEURES
10
126.899
20
105.000
0
VERTEX
8
CONTOURS_MINEURES
10
129.996
20
100.003
0
VERTEX
8
CONTOURS_MINEURES
10
131.511
20
96.513
0
VERTEX
8
CONTOURS_MINEURES
10
132.496
20
94.996
0
VERTEX
8
CONTOURS_MINEURES
10
133.735
20
91.260
0
VERTEX
8
CONTOURS_MINEURES
10
134.247
20
89.999
0
VERTEX
8
CONTOURS_MINEURES
10
134.168
20
89.172
0
VERTEX
8
CONTOURS_MINEURES
10
133.297
20
85.003
0
VERTEX
8
CONTOURS_MINEURES
10
133.608
20
83.612
0
VERTEX
8
CONTOURS_MINEURES
10
134.786
20
79.996
0
VERTEX
8
CONTOURS_MINEURES
10
134.997
20
79.832
0
VERTEX
8
CONTOURS_MINEURES
10
135.632
20
79.361
0
VERTEX
8
CONTOURS_MINEURES
10
139.997
20
76.401
0
VERTEX
8
CONTOURS_MINEURES
10
140.668
20
75.669
0
VERTEX
8
CONTOURS_MINEURES
10
140.890
20
74.999
0
VERTEX
8
CONTOURS_MINEURES
10
141.606
20
73.392
0
VERTEX
8
CONTOURS_MINEURES
10
143.443
20
70.003
0
VERTEX
8
CONTOURS_MINEURES
10
142.675
20
67.322
0
VERTEX
8
CONTOURS_MINEURES
10
143.167
20
64.995
0
VERTEX
8
CONTOURS_MINEURES
10
142.995
20
62.001
0
VERTEX
8
CONTOURS_MINEURES
10
143.084
20
59.999
0
VERTEX
8
CONTOURS_MINEURES
10
143.142
20
58.144
0
VERTEX
8
CONTOURS_MINEURES
10
143.220
20
55.002
0
VERTEX
8
CONTOURS_MINEURES
10
143.284
20
53.286
0
VERTEX
8
CONTOURS_MINEURES
10
143.482
20
49.995
0
VERTEX
8
CONTOURS_MINEURES
10
143.529
20
48.527
0
VERTEX
8
CONTOURS_MINEURES
10
143.760
20
44.999
0
VERTEX
8
CONTOURS_MINEURES
10
143.813
20
41.186
0
VERTEX
8
CONTOURS_MINEURES
10
143.831
20
40.002
0
VERTEX
8
CONTOURS_MINEURES
10
143.792
20
38.795
0
VERTEX
8
CONTOURS_MINEURES
10
143.504
20
34.995
0
VERTEX
8
CONTOURS_MINEURES
10
142.922
20
32.072
0
VERTEX
8
CONTOURS_MINEURES
10
142.749
20
29.998
0
VERTEX
8
CONTOURS_MINEURES
10
142.192
20
27.195
0
VERTEX
8
CONTOURS_MINEURES
10
141.726
20
25.002
0
VERTEX
8
CONTOURS_MINEURES
10
141.502
20
23.496
0
VERTEX
8
CONTOURS_MINEURES
10
140.164
20
19.994
0
VERTEX
8
CONTOURS_MINEURES
10
139.997
20
18.405
0
VERTEX
8
CONTOURS_MINEURES
10
139.381
20
15.614
0
VERTEX
8
CONTOURS_MINEURES
10
139.067
20
14.998
0
VERTEX
8
CONTOURS_MINEURES
10
139.083
20
14.084
0
VERTEX
8
CONTOURS_MINEURES
10
138.923
20
10.002
0
VERTEX
8
CONTOURS_MINEURES
10
138.733
20
6.268
0
VERTEX
8
CONTOURS_MINEURES
10
138.704
20
5.005
0
VERTEX
8
CONTOURS_MINEURES
10
138.416
20
3.421
0
VERTEX
8
CONTOURS_MINEURES
10
137.846
20
-0.002
0
SEQEND
0
POLYLINE
8
CONTOURS_MINEURES
66
1
70
0
0
VERTEX
8
CONTOURS_MINEURES
10
46.939
20
184.998
0
VERTEX
8
CONTOURS_MINEURES
10
44.996
20
183.580
0
VERTEX
8
CONTOURS_MINEURES
10
43.090
20
181.906
0
VERTEX
8
CONTOURS_MINEURES
10
41.067
20
180.001
0
VERTEX
8
CONTOURS_MINEURES
10
39.995
20
178.854
0
VERTEX
8
CONTOURS_MINEURES
10
37.650
20
175.005
0
VERTEX
8
CONTOURS_MINEURES
10
36.926
20
173.077
0
VERTEX
8
CONTOURS_MINEURES
10
35.684
20
169.997
0
VERTEX
8
CONTOURS_MINEURES
10
35.005
20
167.499
0
VERTEX
8
CONTOURS_MINEURES
10
34.429
20
165.577
0
VERTEX
8
CONTOURS_MINEURES
10
34.147
20
165.001
0
VERTEX
8
CONTOURS_MINEURES
10
33.924
20
163.921
0
VERTEX
8
CONTOURS_MINEURES
10
34.220
20
160.004
0
VERTEX
8
CONTOURS_MINEURES
10
35.005
20
159.214
0
VERTEX
8
CONTOURS_MINEURES
10
37.144
20
157.858
0
VERTEX
8
CONTOURS_MINEURES
10
39.995
20
155.868
0
VERTEX
8
CONTOURS_MINEURES
10
40.531
20
155.533
0
VERTEX
8
CONTOURS_MINEURES
10
43.392
20
154.997
0
VERTEX
8
CONTOURS_MINEURES
10
44.996
20
154.589
0
VERTEX
8
CONTOURS_MINEURES
10
45.446
20
154.548
0
VERTEX
8
CONTOURS_MINEURES
10
49.996
20
154.016
0
VERTEX
8
CONTOURS_MINEURES
10
53.304
20
153.306
0
VERTEX
8
CONTOURS_MINEURES
10
54.997
20
152.933
0
VERTEX
8
CONTOURS_MINEURES
10
57.321
20
152.322
0
VERTEX
8
CONTOURS_MINEURES
10
59.998
20
151.504
0
VERTEX
8
CONTOURS_MINEURES
10
64.259
20
150.740
0
VERTEX
8
CONTOURS_MINEURES
10
64.998
20
150.558
0
VERTEX
8
CONTOURS_MINEURES
10
65.445
20
150.447
0
VERTEX
8
CONTOURS_MINEURES
10
67.658
20
150.001
0
VERTEX
8
CONTOURS_MINEURES
10
69.999
20
149.485
0
VERTEX
8
CONTOURS_MINEURES
10
73.362
20
148.364
0
VERTEX
8
CONTOURS_MINEURES
10
75.000
20
147.926
0
VERTEX
8
CONTOURS_MINEURES
10
76.829
20
146.832
0
VERTEX
8
CONTOURS_MINEURES
10
79.199
20
145.004
0
VERTEX
8
CONTOURS_MINEURES
10
80.000
20
144.352
0
VERTEX
8
CONTOURS_MINEURES
10
83.152
20
143.152
0
VERTEX
8
CONTOURS_MINEURES
10
85.001
20
142.323
0
VERTEX
8
CONTOURS_MINEURES
10
89.226
20
140.774
0
VERTEX
8
CONTOURS_MINEURES
10
90.002
20
140.476
0
VERTEX
8
CONTOURS_MINEURES
10
90.313
20
140.309
0
VERTEX
8
CONTOURS_MINEURES
10
91.127
20
139.997
0
VERTEX
8
CONTOURS_MINEURES
10
95.002
20
138.432
0
VERTEX
8
CONTOURS_MINEURES
10
98.693
20
136.309
0
VERTEX
8
CONTOURS_MINEURES
10
100.003
20
135.558
0
VERTEX
8
CONTOURS_MINEURES
10
100.722
20
135.000
0
VERTEX
8
CONTOURS_MINEURES
10
103.082
20
133.081
0
VERTEX
8
CONTOURS_MINEURES
10
105.004
20
131.760
0
VERTEX
8
CONTOURS_MINEURES
10
108.118
20
130.004
0
VERTEX
8
CONTOURS_MINEURES
10
110.004
20
128.998
0
VERTEX
8
CONTOURS_MINEURES
10
112.121
20
127.116
0
VERTEX
8
CONTOURS_MINEURES
10
115.005
20
125.730
0
VERTEX
8
CONTOURS_MINEURES
10
116.061
20
124.996
0
VERTEX
8
CONTOURS_MINEURES
10
117.802
20
122.800
0
VERTEX
8
CONTOURS_MINEURES
10
119.995
20
120.591
0
VERTEX
8
CONTOURS_MINEURES
10
120.547
20
120.000
0
VERTEX
8
CONTOURS_MINEURES
10
122.046
20
117.053
0
VERTEX
8
CONTOURS_MINEURES
10
123.704
20
115.004
0
VERTEX
8
CONTOURS_MINEURES
10
124.995
20
113.535
0
VERTEX
8
CONTOURS_MINEURES
10
126.616
20
111.619
0
VERTEX
8
CONTOURS_MINEURES
10
128.556
20
109.996
0
VERTEX
8
CONTOURS_MINEURES
10
129.356
20
109.357
0
VERTEX
8
CONTOURS_MINEURES
10
129.996
20
108.659
0
VERTEX
8
CONTOURS_MINEURES
10
132.705
20
105.000
0
VERTEX
8
CONTOURS_MINEURES
10
133.469
20
103.473
0
VERTEX
8
CONTOURS_MINEURES
10
134.997
20
100.772
0
VERTEX
8
CONTOURS_MINEURES
10
135.572
20
100.003
0
VERTEX
8
CONTOURS_MINEURES
10
137.466
20
97.469
0
VERTEX
8
CONTOURS_MINEURES
10
138.945
20
94.996
0
VERTEX
8
CONTOURS_MINEURES
10
139.217
20
94.216
0
VERTEX
8
CONTOURS_MINEURES
10
139.648
20
89.999
0
VERTEX
8
CONTOURS_MINEURES
10
139.598
20
85.402
0
VERTEX
8
CONTOURS_MINEURES
10
139.480
20
85.003
0
VERTEX
8
CONTOURS_MINEURES
10
139.997
20
83.988
0
VERTEX
8
CONTOURS_MINEURES
10
140.943
20
80.943
0
VERTEX
8
CONTOURS_MINEURES
10
141.376
20
79.996
0
VERTEX
8
CONTOURS_MINEURES
10
143.108
20
78.107
0
VERTEX
8
CONTOURS_MINEURES
10
144.137
20
74.999
0
VERTEX
8
CONTOURS_MINEURES
10
144.998
20
73.066
0
VERTEX
8
CONTOURS_MINEURES
10
146.498
20
71.502
0
VERTEX
8
CONTOURS_MINEURES
10
146.756
20
70.003
0
VERTEX
8
CONTOURS_MINEURES
10
144.998
20
66.072
0
VERTEX
8
CONTOURS_MINEURES
10
144.758
20
65.235
0
VERTEX
8
CONTOURS_MINEURES
10
144.809
20
64.995
0
VERTEX
8
CONTOURS_MINEURES
10
144.548
20
60.449
0
VERTEX
8
CONTOURS_MINEURES
10
144.568
20
59.999
0
VERTEX
8
CONTOURS_MINEURES
10
144.581
20
59.582
0
VERTEX
8
CONTOURS_MINEURES
10
144.696
20
55.002
0
VERTEX
8
CONTOURS_MINEURES
10
144.706
20
54.710
0
VERTEX
8
CONTOURS_MINEURES
10
144.990
20
49.995
0
VERTEX
8
CONTOURS_MINEURES
10
144.991
20
49.988
0
VERTEX
8
CONTOURS_MINEURES
10
144.998
20
49.876
0
VERTEX
8
CONTOURS_MINEURES
10
145.625
20
45.625
0
VERTEX
8
CONTOURS_MINEURES
10
145.728
20
44.999
0
VERTEX
8
CONTOURS_MINEURES
10
145.649
20
44.348
0
VERTEX
8
CONTOURS_MINEURES
10
145.770
20
40.002
0
VERTEX
8
CONTOURS_MINEURES
10
145.568
20
39.432
0
VERTEX
8
CONTOURS_MINEURES
10
144.998
20
35.093
0
VERTEX
8
CONTOURS_MINEURES
10
144.991
20
34.995
0
VERTEX
8
CONTOURS_MINEURES
10
144.161
20
30.834
0
VERTEX
8
CONTOURS_MINEURES
10
144.092
20
29.998
0
VERTEX
8
CONTOURS_MINEURES
10
143.867
20
28.869
0
VERTEX
8
CONTOURS_MINEURES
10
143.045
20
25.002
0
VERTEX
8
CONTOURS_MINEURES
10
142.650
20
22.346
0
VERTEX
8
CONTOURS_MINEURES
10
141.752
20
19.994
0
VERTEX
8
CONTOURS_MINEURES
10
141.372
20
16.371
0
VERTEX
8
CONTOURS_MINEURES
10
141.300
20
14.998
0
VERTEX
8
CONTOURS_MINEURES
10
141.296
20
13.701
0
VERTEX
8
CONTOURS_MINEURES
10
141.233
20
10.002
0
VERTEX
8
CONTOURS_MINEURES
10
141.147
20
6.154
0
VERTEX
8
CONTOURS_MINEURES
10
141.145
20
5.005
0
VERTEX
8
CONTOURS_MINEURES
10
141.132
20
3.870
0
VERTEX
8
CONTOURS_MINEURES
10
140.823
20
-0.002
0
SEQEND
0
POLYLINE
8
CONTOURS_MINEURES
66
1
70
0
0
VERTEX
8
CONTOURS_MINEURES
10
149.999
20
69.036
0
VERTEX
8
CONTOURS_MINEURES
10
147.423
20
64.995
0
VERTEX
8
CONTOURS_MINEURES
10
147.377
20
62.618
0
VERTEX
8
CONTOURS_MINEURES
10
147.105
20
59.999
0
VERTEX
8
CONTOURS_MINEURES
10
147.244
20
57.247
0
VERTEX
8
CONTOURS_MINEURES
10
147.693
20
55.002
0
VERTEX
8
CONTOURS_MINEURES
10
148.243
20
51.753
0
VERTEX
8
CONTOURS_MINEURES
10
148.490
20
49.995
0
VERTEX
8
CONTOURS_MINEURES
10
148.683
20
48.681
0
VERTEX
8
CONTOURS_MINEURES
10
149.287
20
44.999
0
VERTEX
8
CONTOURS_MINEURES
10
148.824
20
41.176
0
VERTEX
8
CONTOURS_MINEURES
10
148.857
20
40.002
0
VERTEX
8
CONTOURS_MINEURES
10
147.846
20
37.151
0
VERTEX
8
CONTOURS_MINEURES
10
147.563
20
34.995
0
VERTEX
8
CONTOURS_MINEURES
10
146.278
20
31.277
0
VERTEX
8
CONTOURS_MINEURES
10
145.946
20
29.998
0
VERTEX
8
CONTOURS_MINEURES
10
145.763
20
29.234
0
VERTEX
8
CONTOURS_MINEURES
10
144.998
20
27.981
0
VERTEX
8
CONTOURS_MINEURES
10
144.365
20
25.002
0
VERTEX
8
CONTOURS_MINEURES
10
143.798
20
21.196
0
VERTEX
8
CONTOURS_MINEURES
10
143.339
20
19.994
0
VERTEX
8
CONTOURS_MINEURES
10
143.145
20
18.143
0
VERTEX
8
CONTOURS_MINEURES
10
142.981
20
14.998
0
VERTEX
8
CONTOURS_MINEURES
10
142.971
20
12.027
0
VERTEX
8
CONTOURS_MINEURES
10
142.936
20
10.002
0
VERTEX
8
CONTOURS_MINEURES
10
142.890
20
7.895
0
VERTEX
8
CONTOURS_MINEURES
10
142.885
20
5.005
0
VERTEX
8
CONTOURS_MINEURES
10
142.850
20
2.149
0
VERTEX
8
CONTOURS_MINEURES
10
142.679
20
-0.002
0
SEQEND
0
POLYLINE
8
CONTOURS_MINEURES
66
1
70
0
0
VERTEX
8
CONTOURS_MINEURES
10
53.997
20
184.998
0
VERTEX
8
CONTOURS_MINEURES
10
51.663
20
183.332
0
VERTEX
8
CONTOURS_MINEURES
10
49.996
20
182.234
0
VERTEX
8
CONTOURS_MINEURES
10
46.765
20
180.001
0
VERTEX
8
CONTOURS_MINEURES
10
45.792
20
179.206
0
VERTEX
8
CONTOURS_MINEURES
10
44.996
20
178.649
0
VERTEX
8
CONTOURS_MINEURES
10
41.607
20
175.005
0
VERTEX
8
CONTOURS_MINEURES
10
39.995
20
172.390
0
VERTEX
8
CONTOURS_MINEURES
10
39.343
20
170.652
0
VERTEX
8
CONTOURS_MINEURES
10
39.079
20
169.997
0
VERTEX
8
CONTOURS_MINEURES
10
38.736
20
168.736
0
VERTEX
8
CONTOURS_MINEURES
10
38.900
20
165.001
0
VERTEX
8
CONTOURS_MINEURES
10
39.995
20
161.962
0
VERTEX
8
CONTOURS_MINEURES
10
41.119
20
160.004
0
VERTEX
8
CONTOURS_MINEURES
10
43.507
20
158.514
0
VERTEX
8
CONTOURS_MINEURES
10
44.996
20
158.235
0
VERTEX
8
CONTOURS_MINEURES
10
47.289
20
157.294
0
VERTEX
8
CONTOURS_MINEURES
10
49.996
20
157.112
0
VERTEX
8
CONTOURS_MINEURES
10
51.642
20
156.645
0
VERTEX
8
CONTOURS_MINEURES
10
54.997
20
156.289
0
VERTEX
8
CONTOURS_MINEURES
10
59.257
20
155.739
0
VERTEX
8
CONTOURS_MINEURES
10
59.998
20
155.629
0
VERTEX
8
CONTOURS_MINEURES
10
60.533
20
155.533
0
VERTEX
8
CONTOURS_MINEURES
10
64.998
20
155.008
0
VERTEX
8
CONTOURS_MINEURES
10
65.088
20
154.997
0
VERTEX
8
CONTOURS_MINEURES
10
69.017
20
154.016
0
VERTEX
8
CONTOURS_MINEURES
10
69.999
20
153.818
0
VERTEX
8
CONTOURS_MINEURES
10
71.697
20
153.301
0
VERTEX
8
CONTOURS_MINEURES
10
75.000
20
152.285
0
VERTEX
8
CONTOURS_MINEURES
10
78.993
20
150.001
0
VERTEX
8
CONTOURS_MINEURES
10
79.623
20
149.624
0
VERTEX
8
CONTOURS_MINEURES
10
80.000
20
149.333
0
VERTEX
8
CONTOURS_MINEURES
10
81.047
20
148.955
0
VERTEX
8
CONTOURS_MINEURES
10
85.001
20
147.552
0
VERTEX
8
CONTOURS_MINEURES
10
86.766
20
146.768
0
VERTEX
8
CONTOURS_MINEURES
10
90.002
20
145.695
0
VERTEX
8
CONTOURS_MINEURES
10
91.487
20
145.004
0
VERTEX
8
CONTOURS_MINEURES
10
93.774
20
143.774
0
VERTEX
8
CONTOURS_MINEURES
10
95.002
20
143.303
0
VERTEX
8
CONTOURS_MINEURES
10
96.852
20
141.849
0
VERTEX
8
CONTOURS_MINEURES
10
100.003
20
140.478
0
VERTEX
8
CONTOURS_MINEURES
10
100.738
20
139.997
0
VERTEX
8
CONTOURS_MINEURES
10
105.004
20
136.611
0
VERTEX
8
CONTOURS_MINEURES
10
105.788
20
135.784
0
VERTEX
8
CONTOURS_MINEURES
10
106.987
20
135.000
0
VERTEX
8
CONTOURS_MINEURES
10
110.004
20
132.998
0
VERTEX
8
CONTOURS_MINEURES
10
111.647
20
131.645
0
VERTEX
8
CONTOURS_MINEURES
10
114.136
20
130.004
0
VERTEX
8
CONTOURS_MINEURES
10
114.596
20
129.595
0
VERTEX
8
CONTOURS_MINEURES
10
115.005
20
129.399
0
VERTEX
8
CONTOURS_MINEURES
10
116.965
20
128.037
0
VERTEX
8
CONTOURS_MINEURES
10
119.995
20
125.780
0
VERTEX
8
CONTOURS_MINEURES
10
120.483
20
125.486
0
VERTEX
8
CONTOURS_MINEURES
10
121.075
20
124.996
0
VERTEX
8
CONTOURS_MINEURES
10
124.995
20
120.870
0
VERTEX
8
CONTOURS_MINEURES
10
125.996
20
120.000
0
VERTEX
8
CONTOURS_MINEURES
10
127.535
20
117.541
0
VERTEX
8
CONTOURS_MINEURES
10
129.996
20
115.129
0
VERTEX
8
CONTOURS_MINEURES
10
130.057
20
115.065
0
VERTEX
8
CONTOURS_MINEURES
10
130.120
20
115.004
0
VERTEX
8
CONTOURS_MINEURES
10
131.049
20
113.949
0
VERTEX
8
CONTOURS_MINEURES
10
134.573
20
109.996
0
VERTEX
8
CONTOURS_MINEURES
10
134.997
20
109.406
0
VERTEX
8
CONTOURS_MINEURES
10
136.876
20
106.878
0
VERTEX
8
CONTOURS_MINEURES
10
138.454
20
105.000
0
VERTEX
8
CONTOURS_MINEURES
10
139.997
20
103.033
0
VERTEX
8
CONTOURS_MINEURES
10
141.358
20
100.003
0
VERTEX
8
CONTOURS_MINEURES
10
142.244
20
97.245
0
VERTEX
8
CONTOURS_MINEURES
10
142.274
20
94.996
0
VERTEX
8
CONTOURS_MINEURES
10
142.407
20
92.408
0
VERTEX
8
CONTOURS_MINEURES
10
142.566
20
89.999
0
VERTEX
8
CONTOURS_MINEURES
10
143.894
20
86.106
0
VERTEX
8
CONTOURS_MINEURES
10
143.884
20
85.003
0
VERTEX
8
CONTOURS_MINEURES
10
144.149
20
84.152
0
VERTEX
8
CONTOURS_MINEURES
10
144.998
20
82.295
0
VERTEX
8
CONTOURS_MINEURES
10
146.784
20
79.996
0
VERTEX
8
CONTOURS_MINEURES
10
149.999
20
75.234
0
SEQEND
0
POLYLINE
8
CONTOURS_MINEURES
66
1
70
0
0
VERTEX
8
CONTOURS_MINEURES
10
149.999
20
34.377
0
VERTEX
8
CONTOURS_MINEURES
10
148.861
20
29.998
0
VERTEX
8
CONTOURS_MINEURES
10
148.116
20
26.883
0
VERTEX
8
CONTOURS_MINEURES
10
146.968
20
25.002
0
VERTEX
8
CONTOURS_MINEURES
10
144.998
20
20.393
0
VERTEX
8
CONTOURS_MINEURES
10
144.946
20
20.046
0
VERTEX
8
CONTOURS_MINEURES
10
144.927
20
19.994
0
VERTEX
8
CONTOURS_MINEURES
10
144.918
20
19.915
0
VERTEX
8
CONTOURS_MINEURES
10
144.662
20
14.998
0
VERTEX
8
CONTOURS_MINEURES
10
144.646
20
10.353
0
VERTEX
8
CONTOURS_MINEURES
10
144.640
20
10.002
0
VERTEX
8
CONTOURS_MINEURES
10
144.632
20
9.636
0
VERTEX
8
CONTOURS_MINEURES
10
144.624
20
5.005
0
VERTEX
8
CONTOURS_MINEURES
10
144.568
20
0.428
0
VERTEX
8
CONTOURS_MINEURES
10
144.534
20
-0.002
0
SEQEND
0
POLYLINE
8
CONTOURS_MINEURES
66
1
70
0
0
VERTEX
8
CONTOURS_MINEURES
10
62.229
20
184.998
0
VERTEX
8
CONTOURS_MINEURES
10
60.927
20
184.069
0
VERTEX
8
CONTOURS_MINEURES
10
59.998
20
183.456
0
VERTEX
8
CONTOURS_MINEURES
10
55.603
20
180.607
0
VERTEX
8
CONTOURS_MINEURES
10
54.997
20
180.221
0
VERTEX
8
CONTOURS_MINEURES
10
54.869
20
180.129
0
VERTEX
8
CONTOURS_MINEURES
10
54.674
20
180.001
0
VERTEX
8
CONTOURS_MINEURES
10
49.996
20
176.356
0
VERTEX
8
CONTOURS_MINEURES
10
49.252
20
175.748
0
VERTEX
8
CONTOURS_MINEURES
10
48.189
20
175.005
0
VERTEX
8
CONTOURS_MINEURES
10
44.996
20
170.823
0
VERTEX
8
CONTOURS_MINEURES
10
44.530
20
169.997
0
VERTEX
8
CONTOURS_MINEURES
10
44.996
20
168.169
0
VERTEX
8
CONTOURS_MINEURES
10
46.088
20
165.001
0
VERTEX
8
CONTOURS_MINEURES
10
47.587
20
162.593
0
VERTEX
8
CONTOURS_MINEURES
10
49.307
20
160.004
0
VERTEX
8
CONTOURS_MINEURES
10
49.796
20
159.804
0
VERTEX
8
CONTOURS_MINEURES
10
49.996
20
159.790
0
VERTEX
8
CONTOURS_MINEURES
10
53.726
20
158.732
0
VERTEX
8
CONTOURS_MINEURES
10
54.997
20
158.597
0
VERTEX
8
CONTOURS_MINEURES
10
56.611
20
158.388
0
VERTEX
8
CONTOURS_MINEURES
10
59.998
20
157.884
0
VERTEX
8
CONTOURS_MINEURES
10
62.445
20
157.448
0
VERTEX
8
CONTOURS_MINEURES
10
64.998
20
157.148
0
VERTEX
8
CONTOURS_MINEURES
10
68.239
20
156.759
0
VERTEX
8
CONTOURS_MINEURES
10
69.999
20
156.470
0
VERTEX
8
CONTOURS_MINEURES
10
71.303
20
156.303
0
VERTEX
8
CONTOURS_MINEURES
10
75.000
20
155.752
0
VERTEX
8
CONTOURS_MINEURES
10
77.808
20
154.997
0
VERTEX
8
CONTOURS_MINEURES
10
80.000
20
153.759
0
VERTEX
8
CONTOURS_MINEURES
10
81.793
20
153.206
0
VERTEX
8
CONTOURS_MINEURES
10
85.001
20
152.246
0
VERTEX
8
CONTOURS_MINEURES
10
86.471
20
151.469
0
VERTEX
8
CONTOURS_MINEURES
10
90.002
20
150.252
0
VERTEX
8
CONTOURS_MINEURES
10
90.146
20
150.145
0
VERTEX
8
CONTOURS_MINEURES
10
90.400
20
150.001
0
VERTEX
8
CONTOURS_MINEURES
10
95.002
20
147.314
0
VERTEX
8
CONTOURS_MINEURES
10
98.936
20
145.004
0
VERTEX
8
CONTOURS_MINEURES
10
99.534
20
144.534
0
VERTEX
8
CONTOURS_MINEURES
10
100.003
20
144.330
0
VERTEX
8
CONTOURS_MINEURES
10
101.948
20
143.057
0
VERTEX
8
CONTOURS_MINEURES
10
105.004
20
140.950
0
VERTEX
8
CONTOURS_MINEURES
10
106.221
20
139.997
0
VERTEX
8
CONTOURS_MINEURES
10
108.061
20
138.055
0
VERTEX
8
CONTOURS_MINEURES
10
110.004
20
136.785
0
VERTEX
8
CONTOURS_MINEURES
10
112.204
20
135.000
0
VERTEX
8
CONTOURS_MINEURES
10
113.739
20
133.736
0
VERTEX
8
CONTOURS_MINEURES
10
115.005
20
132.901
0
VERTEX
8
CONTOURS_MINEURES
10
116.774
20
131.775
0
VERTEX
8
CONTOURS_MINEURES
10
118.448
20
130.004
0
VERTEX
8
CONTOURS_MINEURES
10
119.995
20
128.852
0
VERTEX
8
CONTOURS_MINEURES
10
122.399
20
127.404
0
VERTEX
8
CONTOURS_MINEURES
10
124.995
20
125.259
0
VERTEX
8
CONTOURS_MINEURES
10
125.189
20
125.191
0
VERTEX
8
CONTOURS_MINEURES
10
125.365
20
124.996
0
VERTEX
8
CONTOURS_MINEURES
10
129.996
20
120.948
0
VERTEX
8
CONTOURS_MINEURES
10
131.306
20
120.000
0
VERTEX
8
CONTOURS_MINEURES
10
133.106
20
118.111
0
VERTEX
8
CONTOURS_MINEURES
10
134.997
20
116.290
0
VERTEX
8
CONTOURS_MINEURES
10
135.631
20
115.637
0
VERTEX
8
CONTOURS_MINEURES
10
136.178
20
115.004
0
VERTEX
8
CONTOURS_MINEURES
10
137.852
20
112.855
0
VERTEX
8
CONTOURS_MINEURES
10
139.997
20
110.454
0
VERTEX
8
CONTOURS_MINEURES
10
140.211
20
109.996
0
VERTEX
8
CONTOURS_MINEURES
10
141.614
20
106.615
0
VERTEX
8
CONTOURS_MINEURES
10
142.657
20
105.000
0
VERTEX
8
CONTOURS_MINEURES
10
144.806
20
100.195
0
VERTEX
8
CONTOURS_MINEURES
10
144.892
20
100.003
0
VERTEX
8
CONTOURS_MINEURES
10
144.918
20
99.923
0
VERTEX
8
CONTOURS_MINEURES
10
144.984
20
94.996
0
VERTEX
8
CONTOURS_MINEURES
10
144.985
20
94.983
0
VERTEX
8
CONTOURS_MINEURES
10
144.998
20
94.788
0
VERTEX
8
CONTOURS_MINEURES
10
145.683
20
90.683
0
VERTEX
8
CONTOURS_MINEURES
10
146.063
20
89.999
0
VERTEX
8
CONTOURS_MINEURES
10
148.167
20
88.169
0
VERTEX
8
CONTOURS_MINEURES
10
149.999
20
85.753
0
SEQEND
0
POLYLINE
8
CONTOURS_MINEURES
66
1
70
0
0
VERTEX
8
CONTOURS_MINEURES
10
149.999
20
22.937
0
VERTEX
8
CONTOURS_MINEURES
10
148.849
20
19.994
0
VERTEX
8
CONTOURS_MINEURES
10
148.089
20
16.906
0
VERTEX
8
CONTOURS_MINEURES
10
147.876
20
14.998
0
VERTEX
8
CONTOURS_MINEURES
10
147.861
20
12.862
0
VERTEX
8
CONTOURS_MINEURES
10
147.667
20
10.002
0
VERTEX
8
CONTOURS_MINEURES
10
147.667
20
7.335
0
VERTEX
8
CONTOURS_MINEURES
10
147.659
20
5.005
0
VERTEX
8
CONTOURS_MINEURES
10
147.602
20
2.606
0
VERTEX
8
CONTOURS_MINEURES
10
147.602
20
-0.002
0
SEQEND
0
POLYLINE
8
CONTOURS_MINEURES
66
1
70
0
0
VERTEX
8
CONTOURS_MINEURES
10
69.323
20
184.998
0
VERTEX
8
CONTOURS_MINEURES
10
64.998
20
181.484
0
VERTEX
8
CONTOURS_MINEURES
10
64.133
20
180.866
0
VERTEX
8
CONTOURS_MINEURES
10
62.821
20
180.001
0
VERTEX
8
CONTOURS_MINEURES
10
61.230
20
178.770
0
VERTEX
8
CONTOURS_MINEURES
10
59.998
20
177.919
0
VERTEX
8
CONTOURS_MINEURES
10
58.308
20
176.693
0
VERTEX
8
CONTOURS_MINEURES
10
55.845
20
175.005
0
VERTEX
8
CONTOURS_MINEURES
10
54.997
20
173.737
0
VERTEX
8
CONTOURS_MINEURES
10
53.631
20
171.365
0
VERTEX
8
CONTOURS_MINEURES
10
52.637
20
169.997
0
VERTEX
8
CONTOURS_MINEURES
10
53.220
20
168.221
0
VERTEX
8
CONTOURS_MINEURES
10
54.455
20
165.001
0
VERTEX
8
CONTOURS_MINEURES
10
54.997
20
164.287
0
VERTEX
8
CONTOURS_MINEURES
10
56.928
20
161.934
0
VERTEX
8
CONTOURS_MINEURES
10
59.998
20
160.445
0
VERTEX
8
CONTOURS_MINEURES
10
60.757
20
160.004
0
VERTEX
8
CONTOURS_MINEURES
10
64.358
20
159.363
0
VERTEX
8
CONTOURS_MINEURES
10
64.998
20
159.288
0
VERTEX
8
CONTOURS_MINEURES
10
65.812
20
159.190
0
VERTEX
8
CONTOURS_MINEURES
10
69.999
20
158.501
0
VERTEX
8
CONTOURS_MINEURES
10
73.102
20
158.104
0
VERTEX
8
CONTOURS_MINEURES
10
75.000
20
157.821
0
VERTEX
8
CONTOURS_MINEURES
10
77.980
20
157.020
0
VERTEX
8
CONTOURS_MINEURES
10
80.000
20
156.387
0
VERTEX
8
CONTOURS_MINEURES
10
84.162
20
155.837
0
VERTEX
8
CONTOURS_MINEURES
10
85.001
20
155.714
0
VERTEX
8
CONTOURS_MINEURES
10
85.622
20
155.619
0
VERTEX
8
CONTOURS_MINEURES
10
88.126
20
154.997
0
VERTEX
8
CONTOURS_MINEURES
10
89.353
20
154.349
0
VERTEX
8
CONTOURS_MINEURES
10
90.002
20
154.126
0
VERTEX
8
CONTOURS_MINEURES
10
92.363
20
152.360
0
VERTEX
8
CONTOURS_MINEURES
10
95.002
20
150.868
0
VERTEX
8
CONTOURS_MINEURES
10
95.629
20
150.627
0
VERTEX
8
CONTOURS_MINEURES
10
96.265
20
150.001
0
VERTEX
8
CONTOURS_MINEURES
10
100.003
20
147.638
0
VERTEX
8
CONTOURS_MINEURES
10
101.991
20
146.991
0
VERTEX
8
CONTOURS_MINEURES
10
104.149
20
145.004
0
VERTEX
8
CONTOURS_MINEURES
10
105.004
20
144.415
0
VERTEX
8
CONTOURS_MINEURES
10
107.702
20
142.302
0
VERTEX
8
CONTOURS_MINEURES
10
110.004
20
140.753
0
VERTEX
8
CONTOURS_MINEURES
10
110.614
20
140.607
0
VERTEX
8
CONTOURS_MINEURES
10
110.894
20
139.997
0
VERTEX
8
CONTOURS_MINEURES
10
115.005
20
136.853
0
VERTEX
8
CONTOURS_MINEURES
10
117.159
20
135.000
0
VERTEX
8
CONTOURS_MINEURES
10
118.893
20
133.897
0
VERTEX
8
CONTOURS_MINEURES
10
119.995
20
132.731
0
VERTEX
8
CONTOURS_MINEURES
10
123.184
20
130.004
0
VERTEX
8
CONTOURS_MINEURES
10
124.315
20
129.323
0
VERTEX
8
CONTOURS_MINEURES
10
124.995
20
128.761
0
VERTEX
8
CONTOURS_MINEURES
10
127.774
20
127.778
0
VERTEX
8
CONTOURS_MINEURES
10
129.996
20
125.323
0
VERTEX
8
CONTOURS_MINEURES
10
130.469
20
124.996
0
VERTEX
8
CONTOURS_MINEURES
10
134.997
20
121.988
0
VERTEX
8
CONTOURS_MINEURES
10
137.206
20
120.000
0
VERTEX
8
CONTOURS_MINEURES
10
138.581
20
118.585
0
VERTEX
8
CONTOURS_MINEURES
10
139.997
20
116.945
0
VERTEX
8
CONTOURS_MINEURES
10
140.866
20
115.004
0
VERTEX
8
CONTOURS_MINEURES
10
141.740
20
113.258
0
VERTEX
8
CONTOURS_MINEURES
10
143.260
20
109.996
0
VERTEX
8
CONTOURS_MINEURES
10
143.769
20
108.769
0
VERTEX
8
CONTOURS_MINEURES
10
144.998
20
106.867
0
VERTEX
8
CONTOURS_MINEURES
10
146.998
20
105.000
0
VERTEX
8
CONTOURS_MINEURES
10
148.275
20
103.278
0
VERTEX
8
CONTOURS_MINEURES
10
149.999
20
100.822
0
SEQEND
0
POLYLINE
8
CONTOURS_MINEURES
66
1
70
0
0
VERTEX
8
CONTOURS_MINEURES
10
75.034
20
184.998
0
VERTEX
8
CONTOURS_MINEURES
10
75.026
20
184.971
0
VERTEX
8
CONTOURS_MINEURES
10
75.000
20
184.915
0
VERTEX
8
CONTOURS_MINEURES
10
72.506
20
182.492
0
VERTEX
8
CONTOURS_MINEURES
10
69.999
20
180.136
0
VERTEX
8
CONTOURS_MINEURES
10
69.833
20
180.001
0
VERTEX
8
CONTOURS_MINEURES
10
64.998
20
175.442
0
VERTEX
8
CONTOURS_MINEURES
10
64.752
20
175.251
0
VERTEX
8
CONTOURS_MINEURES
10
64.395
20
175.005
0
VERTEX
8
CONTOURS_MINEURES
10
63.443
20
173.447
0
VERTEX
8
CONTOURS_MINEURES
10
61.300
20
169.997
0
VERTEX
8
CONTOURS_MINEURES
10
62.315
20
167.316
0
VERTEX
8
CONTOURS_MINEURES
10
63.876
20
165.001
0
VERTEX
8
CONTOURS_MINEURES
10
64.998
20
164.292
0
VERTEX
8
CONTOURS_MINEURES
10
67.462
20
162.466
0
VERTEX
8
CONTOURS_MINEURES
10
69.999
20
161.379
0
VERTEX
8
CONTOURS_MINEURES
10
74.127
20
160.004
0
VERTEX
8
CONTOURS_MINEURES
10
74.901
20
159.905
0
VERTEX
8
CONTOURS_MINEURES
10
75.000
20
159.891
0
VERTEX
8
CONTOURS_MINEURES
10
75.155
20
159.849
0
VERTEX
8
CONTOURS_MINEURES
10
80.000
20
158.332
0
VERTEX
8
CONTOURS_MINEURES
10
81.924
20
158.078
0
VERTEX
8
CONTOURS_MINEURES
10
85.001
20
157.625
0
VERTEX
8
CONTOURS_MINEURES
10
87.278
20
157.277
0
VERTEX
8
CONTOURS_MINEURES
10
90.002
20
156.601
0
VERTEX
8
CONTOURS_MINEURES
10
94.018
20
154.997
0
VERTEX
8
CONTOURS_MINEURES
10
94.581
20
154.576
0
VERTEX
8
CONTOURS_MINEURES
10
95.002
20
154.338
0
VERTEX
8
CONTOURS_MINEURES
10
98.135
20
153.131
0
VERTEX
8
CONTOURS_MINEURES
10
100.003
20
151.293
0
VERTEX
8
CONTOURS_MINEURES
10
100.893
20
150.890
0
VERTEX
8
CONTOURS_MINEURES
10
102.552
20
150.001
0
VERTEX
8
CONTOURS_MINEURES
10
104.401
20
149.399
0
VERTEX
8
CONTOURS_MINEURES
10
105.004
20
148.844
0
VERTEX
8
CONTOURS_MINEURES
10
108.337
20
148.335
0
VERTEX
8
CONTOURS_MINEURES
10
110.004
20
146.545
0
VERTEX
8
CONTOURS_MINEURES
10
114.026
20
145.004
0
VERTEX
8
CONTOURS_MINEURES
10
114.816
20
144.815
0
VERTEX
8
CONTOURS_MINEURES
10
115.005
20
144.403
0
VERTEX
8
CONTOURS_MINEURES
10
119.338
20
144.345
0
VERTEX
8
CONTOURS_MINEURES
10
119.995
20
140.452
0
VERTEX
8
CONTOURS_MINEURES
10
120.828
20
139.997
0
VERTEX
8
CONTOURS_MINEURES
10
124.748
20
139.749
0
VERTEX
8
CONTOURS_MINEURES
10
124.995
20
138.609
0
VERTEX
8
CONTOURS_MINEURES
10
127.496
20
135.000
0
VERTEX
8
CONTOURS_MINEURES
10
129.996
20
133.416
0
VERTEX
8
CONTOURS_MINEURES
10
131.355
20
131.362
0
VERTEX
8
CONTOURS_MINEURES
10
132.410
20
130.004
0
VERTEX
8
CONTOURS_MINEURES
10
134.997
20
128.698
0
VERTEX
8
CONTOURS_MINEURES
10
136.732
20
126.734
0
VERTEX
8
CONTOURS_MINEURES
10
138.122
20
124.996
0
VERTEX
8
CONTOURS_MINEURES
10
139.997
20
123.352
0
VERTEX
8
CONTOURS_MINEURES
10
140.928
20
120.930
0
VERTEX
8
CONTOURS_MINEURES
10
141.294
20
120.000
0
VERTEX
8
CONTOURS_MINEURES
10
142.678
20
117.322
0
VERTEX
8
CONTOURS_MINEURES
10
143.716
20
115.004
0
VERTEX
8
CONTOURS_MINEURES
10
144.998
20
112.443
0
VERTEX
8
CONTOURS_MINEURES
10
146.394
20
111.394
0
VERTEX
8
CONTOURS_MINEURES
10
147.884
20
109.996
0
VERTEX
8
CONTOURS_MINEURES
10
149.999
20
108.041
0
SEQEND
0
POLYLINE
8
CONTOURS_MINEURES
66
1
70
0
0
VERTEX
8
CONTOURS_MINEURES
10
77.355
20
184.998
0
VERTEX
8
CONTOURS_MINEURES
10
76.806
20
183.193
0
VERTEX
8
CONTOURS_MINEURES
10
75.276
20
180.001
0
VERTEX
8
CONTOURS_MINEURES
10
75.000
20
179.224
0
VERTEX
8
CONTOURS_MINEURES
10
73.155
20
176.848
0
VERTEX
8
CONTOURS_MINEURES
10
71.298
20
175.005
0
VERTEX
8
CONTOURS_MINEURES
10
69.999
20
171.153
0
VERTEX
8
CONTOURS_MINEURES
10
69.696
20
170.301
0
VERTEX
8
CONTOURS_MINEURES
10
69.515
20
169.997
0
VERTEX
8
CONTOURS_MINEURES
10
69.999
20
169.198
0
VERTEX
8
CONTOURS_MINEURES
10
71.721
20
166.721
0
VERTEX
8
CONTOURS_MINEURES
10
73.499
20
165.001
0
VERTEX
8
CONTOURS_MINEURES
10
75.000
20
164.376
0
VERTEX
8
CONTOURS_MINEURES
10
77.357
20
162.359
0
VERTEX
8
CONTOURS_MINEURES
10
80.000
20
160.587
0
VERTEX
8
CONTOURS_MINEURES
10
81.819
20
160.004
0
VERTEX
8
CONTOURS_MINEURES
10
85.001
20
159.536
0
VERTEX
8
CONTOURS_MINEURES
10
88.934
20
158.935
0
VERTEX
8
CONTOURS_MINEURES
10
90.002
20
158.670
0
VERTEX
8
CONTOURS_MINEURES
10
92.218
20
157.785
0
VERTEX
8
CONTOURS_MINEURES
10
95.002
20
156.906
0
VERTEX
8
CONTOURS_MINEURES
10
96.505
20
156.502
0
VERTEX
8
CONTOURS_MINEURES
10
100.003
20
155.594
0
VERTEX
8
CONTOURS_MINEURES
10
102.805
20
154.997
0
VERTEX
8
CONTOURS_MINEURES
10
104.319
20
154.313
0
VERTEX
8
CONTOURS_MINEURES
10
105.004
20
153.945
0
VERTEX
8
CONTOURS_MINEURES
10
106.278
20
153.724
0
VERTEX
8
CONTOURS_MINEURES
10
110.004
20
152.758
0
VERTEX
8
CONTOURS_MINEURES
10
112.804
20
152.798
0
VERTEX
8
CONTOURS_MINEURES
10
115.005
20
152.839
0
VERTEX
8
CONTOURS_MINEURES
10
117.024
20
152.023
0
VERTEX
8
CONTOURS_MINEURES
10
119.995
20
151.739
0
VERTEX
8
CONTOURS_MINEURES
10
120.976
20
150.981
0
VERTEX
8
CONTOURS_MINEURES
10
123.021
20
150.001
0
VERTEX
8
CONTOURS_MINEURES
10
123.765
20
148.771
0
VERTEX
8
CONTOURS_MINEURES
10
124.995
20
148.611
0
VERTEX
8
CONTOURS_MINEURES
10
128.643
20
146.356
0
VERTEX
8
CONTOURS_MINEURES
10
129.996
20
145.369
0
VERTEX
8
CONTOURS_MINEURES
10
130.215
20
145.223
0
VERTEX
8
CONTOURS_MINEURES
10
130.379
20
145.004
0
VERTEX
8
CONTOURS_MINEURES
10
133.105
20
141.891
0
VERTEX
8
CONTOURS_MINEURES
10
134.612
20
139.997
0
VERTEX
8
CONTOURS_MINEURES
10
134.648
20
139.649
0
VERTEX
8
CONTOURS_MINEURES
10
134.997
20
139.493
0
VERTEX
8
CONTOURS_MINEURES
10
136.525
20
136.527
0
VERTEX
8
CONTOURS_MINEURES
10
138.219
20
135.000
0
VERTEX
8
CONTOURS_MINEURES
10
139.997
20
131.837
0
VERTEX
8
CONTOURS_MINEURES
10
140.387
20
130.393
0
VERTEX
8
CONTOURS_MINEURES
10
140.514
20
130.004
0
VERTEX
8
CONTOURS_MINEURES
10
140.675
20
129.325
0
VERTEX
8
CONTOURS_MINEURES
10
141.842
20
124.996
0
VERTEX
8
CONTOURS_MINEURES
10
142.717
20
122.717
0
VERTEX
8
CONTOURS_MINEURES
10
143.788
20
120.000
0
VERTEX
8
CONTOURS_MINEURES
10
144.998
20
117.659
0
VERTEX
8
CONTOURS_MINEURES
10
149.165
20
115.004
0
VERTEX
8
CONTOURS_MINEURES
10
149.641
20
114.646
0
VERTEX
8
CONTOURS_MINEURES
10
149.999
20
114.311
0
SEQEND
0
POLYLINE
8
CONTOURS_MINEURES
66
1
70
0
0
VERTEX
8
CONTOURS_MINEURES
10
79.675
20
184.998
0
VERTEX
8
CONTOURS_MINEURES
10
78.586
20
181.415
0
VERTEX
8
CONTOURS_MINEURES
10
77.908
20
180.001
0
VERTEX
8
CONTOURS_MINEURES
10
76.755
20
176.759
0
VERTEX
8
CONTOURS_MINEURES
10
76.720
20
175.005
0
VERTEX
8
CONTOURS_MINEURES
10
77.228
20
172.773
0
VERTEX
8
CONTOURS_MINEURES
10
77.139
20
169.997
0
VERTEX
8
CONTOURS_MINEURES
10
79.348
20
165.653
0
VERTEX
8
CONTOURS_MINEURES
10
79.676
20
165.001
0
VERTEX
8
CONTOURS_MINEURES
10
79.851
20
164.851
0
VERTEX
8
CONTOURS_MINEURES
10
80.000
20
164.751
0
VERTEX
8
CONTOURS_MINEURES
10
80.368
20
164.633
0
VERTEX
8
CONTOURS_MINEURES
10
85.001
20
163.434
0
VERTEX
8
CONTOURS_MINEURES
10
87.466
20
162.538
0
VERTEX
8
CONTOURS_MINEURES
10
90.002
20
161.514
0
VERTEX
8
CONTOURS_MINEURES
10
90.988
20
160.990
0
VERTEX
8
CONTOURS_MINEURES
10
92.651
20
160.004
0
VERTEX
8
CONTOURS_MINEURES
10
95.002
20
159.262
0
VERTEX
8
CONTOURS_MINEURES
10
98.361
20
158.360
0
VERTEX
8
CONTOURS_MINEURES
10
100.003
20
157.934
0
VERTEX
8
CONTOURS_MINEURES
10
102.629
20
157.374
0
VERTEX
8
CONTOURS_MINEURES
10
105.004
20
156.951
0
VERTEX
8
CONTOURS_MINEURES
10
108.525
20
156.478
0
VERTEX
8
CONTOURS_MINEURES
10
110.004
20
156.305
0
VERTEX
8
CONTOURS_MINEURES
10
111.052
20
156.046
0
VERTEX
8
CONTOURS_MINEURES
10
115.005
20
156.070
0
VERTEX
8
CONTOURS_MINEURES
10
115.833
20
155.828
0
VERTEX
8
CONTOURS_MINEURES
10
119.995
20
155.192
0
VERTEX
8
CONTOURS_MINEURES
10
120.516
20
154.997
0
VERTEX
8
CONTOURS_MINEURES
10
123.043
20
153.046
0
VERTEX
8
CONTOURS_MINEURES
10
124.995
20
152.109
0
VERTEX
8
CONTOURS_MINEURES
10
127.996
20
150.001
0
VERTEX
8
CONTOURS_MINEURES
10
129.996
20
148.541
0
VERTEX
8
CONTOURS_MINEURES
10
132.116
20
147.122
0
VERTEX
8
CONTOURS_MINEURES
10
133.713
20
145.004
0
VERTEX
8
CONTOURS_MINEURES
10
134.997
20
143.538
0
VERTEX
8
CONTOURS_MINEURES
10
138.442
20
139.997
0
VERTEX
8
CONTOURS_MINEURES
10
138.970
20
138.971
0
VERTEX
8
CONTOURS_MINEURES
10
139.997
20
138.045
0
VERTEX
8
CONTOURS_MINEURES
10
141.619
20
135.000
0
VERTEX
8
CONTOURS_MINEURES
10
142.337
20
132.341
0
VERTEX
8
CONTOURS_MINEURES
10
143.099
20
130.004
0
VERTEX
8
CONTOURS_MINEURES
10
144.066
20
125.930
0
VERTEX
8
CONTOURS_MINEURES
10
144.317
20
124.996
0
VERTEX
8
CONTOURS_MINEURES
10
144.506
20
124.505
0
VERTEX
8
CONTOURS_MINEURES
10
144.998
20
123.257
0
VERTEX
8
CONTOURS_MINEURES
10
146.913
20
121.913
0
VERTEX
8
CONTOURS_MINEURES
10
149.999
20
120.146
0
SEQEND
0
POLYLINE
8
CONTOURS_MINEURES
66
1
70
0
0
VERTEX
8
CONTOURS_MINEURES
10
93.386
20
184.998
0
VERTEX
8
CONTOURS_MINEURES
10
90.002
20
182.499
0
VERTEX
8
CONTOURS_MINEURES
10
87.959
20
182.042
0
VERTEX
8
CONTOURS_MINEURES
10
85.001
20
180.199
0
VERTEX
8
CONTOURS_MINEURES
10
84.556
20
180.001
0
VERTEX
8
CONTOURS_MINEURES
10
82.501
20
177.503
0
VERTEX
8
CONTOURS_MINEURES
10
82.338
20
175.005
0
VERTEX
8
CONTOURS_MINEURES
10
83.471
20
173.473
0
VERTEX
8
CONTOURS_MINEURES
10
85.001
20
170.728
0
VERTEX
8
CONTOURS_MINEURES
10
85.373
20
169.997
0
VERTEX
8
CONTOURS_MINEURES
10
88.006
20
168.003
0
VERTEX
8
CONTOURS_MINEURES
10
90.002
20
166.463
0
VERTEX
8
CONTOURS_MINEURES
10
91.442
20
165.001
0
VERTEX
8
CONTOURS_MINEURES
10
93.766
20
163.766
0
VERTEX
8
CONTOURS_MINEURES
10
95.002
20
163.033
0
VERTEX
8
CONTOURS_MINEURES
10
97.241
20
162.241
0
VERTEX
8
CONTOURS_MINEURES
10
100.003
20
160.603
0
VERTEX
8
CONTOURS_MINEURES
10
101.578
20
160.004
0
VERTEX
8
CONTOURS_MINEURES
10
105.004
20
159.394
0
VERTEX
8
CONTOURS_MINEURES
10
105.708
20
159.299
0
VERTEX
8
CONTOURS_MINEURES
10
110.004
20
158.796
0
VERTEX
8
CONTOURS_MINEURES
10
113.049
20
158.045
0
VERTEX
8
CONTOURS_MINEURES
10
115.005
20
158.057
0
VERTEX
8
CONTOURS_MINEURES
10
117.366
20
157.366
0
VERTEX
8
CONTOURS_MINEURES
10
119.995
20
156.965
0
VERTEX
8
CONTOURS_MINEURES
10
124.840
20
155.153
0
VERTEX
8
CONTOURS_MINEURES
10
124.995
20
155.126
0
VERTEX
8
CONTOURS_MINEURES
10
125.102
20
155.104
0
VERTEX
8
CONTOURS_MINEURES
10
125.357
20
154.997
0
VERTEX
8
CONTOURS_MINEURES
10
129.996
20
152.168
0
VERTEX
8
CONTOURS_MINEURES
10
131.388
20
151.391
0
VERTEX
8
CONTOURS_MINEURES
10
132.556
20
150.001
0
VERTEX
8
CONTOURS_MINEURES
10
134.017
20
149.022
0
VERTEX
8
CONTOURS_MINEURES
10
134.997
20
147.723
0
VERTEX
8
CONTOURS_MINEURES
10
137.447
20
145.004
0
VERTEX
8
CONTOURS_MINEURES
10
139.997
20
142.377
0
VERTEX
8
CONTOURS_MINEURES
10
140.981
20
140.981
0
VERTEX
8
CONTOURS_MINEURES
10
141.473
20
139.997
0
VERTEX
8
CONTOURS_MINEURES
10
143.067
20
136.930
0
VERTEX
8
CONTOURS_MINEURES
10
144.094
20
135.000
0
VERTEX
8
CONTOURS_MINEURES
10
144.286
20
134.289
0
VERTEX
8
CONTOURS_MINEURES
10
144.998
20
132.106
0
VERTEX
8
CONTOURS_MINEURES
10
146.624
20
130.004
0
VERTEX
8
CONTOURS_MINEURES
10
147.841
20
127.844
0
VERTEX
8
CONTOURS_MINEURES
10
149.999
20
126.179
0
SEQEND
0
POLYLINE
8
CONTOURS_MINEURES
66
1
70
0
0
VERTEX
8
CONTOURS_MINEURES
10
103.645
20
184.998
0
VERTEX
8
CONTOURS_MINEURES
10
101.569
20
183.433
0
VERTEX
8
CONTOURS_MINEURES
10
100.003
20
182.461
0
VERTEX
8
CONTOURS_MINEURES
10
96.686
20
180.001
0
VERTEX
8
CONTOURS_MINEURES
10
96.389
20
178.616
0
VERTEX
8
CONTOURS_MINEURES
10
95.171
20
175.005
0
VERTEX
8
CONTOURS_MINEURES
10
96.163
20
171.160
0
VERTEX
8
CONTOURS_MINEURES
10
96.532
20
169.997
0
VERTEX
8
CONTOURS_MINEURES
10
100.003
20
166.722
0
VERTEX
8
CONTOURS_MINEURES
10
100.869
20
165.866
0
VERTEX
8
CONTOURS_MINEURES
10
103.608
20
165.001
0
VERTEX
8
CONTOURS_MINEURES
10
105.004
20
164.631
0
VERTEX
8
CONTOURS_MINEURES
10
105.525
20
164.479
0
VERTEX
8
CONTOURS_MINEURES
10
110.004
20
163.068
0
VERTEX
8
CONTOURS_MINEURES
10
111.963
20
161.961
0
VERTEX
8
CONTOURS_MINEURES
10
115.005
20
160.126
0
VERTEX
8
CONTOURS_MINEURES
10
115.141
20
160.004
0
VERTEX
8
CONTOURS_MINEURES
10
118.899
20
158.904
0
VERTEX
8
CONTOURS_MINEURES
10
119.995
20
158.737
0
VERTEX
8
CONTOURS_MINEURES
10
122.015
20
157.982
0
VERTEX
8
CONTOURS_MINEURES
10
124.995
20
157.466
0
VERTEX
8
CONTOURS_MINEURES
10
127.044
20
157.049
0
VERTEX
8
CONTOURS_MINEURES
10
129.996
20
155.811
0
VERTEX
8
CONTOURS_MINEURES
10
130.568
20
155.570
0
VERTEX
8
CONTOURS_MINEURES
10
132.119
20
154.997
0
VERTEX
8
CONTOURS_MINEURES
10
133.966
20
153.967
0
VERTEX
8
CONTOURS_MINEURES
10
134.997
20
152.739
0
VERTEX
8
CONTOURS_MINEURES
10
136.329
20
151.332
0
VERTEX
8
CONTOURS_MINEURES
10
137.329
20
150.001
0
VERTEX
8
CONTOURS_MINEURES
10
139.997
20
146.970
0
VERTEX
8
CONTOURS_MINEURES
10
140.707
20
145.714
0
VERTEX
8
CONTOURS_MINEURES
10
141.038
20
145.004
0
VERTEX
8
CONTOURS_MINEURES
10
142.676
20
142.679
0
VERTEX
8
CONTOURS_MINEURES
10
144.018
20
139.997
0
VERTEX
8
CONTOURS_MINEURES
10
144.998
20
138.111
0
VERTEX
8
CONTOURS_MINEURES
10
146.441
20
136.442
0
VERTEX
8
CONTOURS_MINEURES
10
147.700
20
135.000
0
VERTEX
8
CONTOURS_MINEURES
10
149.999
20
132.275
0
SEQEND
0
POLYLINE
8
CONTOURS_MINEURES
66
1
70
0
0
VERTEX
8
CONTOURS_MINEURES
10
113.025
20
184.998
0
VERTEX
8
CONTOURS_MINEURES
10
110.004
20
182.363
0
VERTEX
8
CONTOURS_MINEURES
10
108.859
20
181.146
0
VERTEX
8
CONTOURS_MINEURES
10
107.528
20
180.001
0
VERTEX
8
CONTOURS_MINEURES
10
106.650
20
178.356
0
VERTEX
8
CONTOURS_MINEURES
10
105.541
20
175.005
0
VERTEX
8
CONTOURS_MINEURES
10
106.629
20
171.625
0
VERTEX
8
CONTOURS_MINEURES
10
107.480
20
169.997
0
VERTEX
8
CONTOURS_MINEURES
10
108.904
20
168.898
0
VERTEX
8
CONTOURS_MINEURES
10
110.004
20
168.589
0
VERTEX
8
CONTOURS_MINEURES
10
112.854
20
167.150
0
VERTEX
8
CONTOURS_MINEURES
10
115.005
20
165.953
0
VERTEX
8
CONTOURS_MINEURES
10
115.613
20
165.610
0
VERTEX
8
CONTOURS_MINEURES
10
116.215
20
165.001
0
VERTEX
8
CONTOURS_MINEURES
10
119.995
20
161.569
0
VERTEX
8
CONTOURS_MINEURES
10
120.945
20
160.954
0
VERTEX
8
CONTOURS_MINEURES
10
123.847
20
160.004
0
VERTEX
8
CONTOURS_MINEURES
10
124.995
20
159.806
0
VERTEX
8
CONTOURS_MINEURES
10
128.986
20
158.993
0
VERTEX
8
CONTOURS_MINEURES
10
129.996
20
158.570
0
VERTEX
8
CONTOURS_MINEURES
10
132.506
20
157.510
0
VERTEX
8
CONTOURS_MINEURES
10
134.997
20
156.591
0
VERTEX
8
CONTOURS_MINEURES
10
138.206
20
154.997
0
VERTEX
8
CONTOURS_MINEURES
10
139.077
20
154.077
0
VERTEX
8
CONTOURS_MINEURES
10
139.997
20
152.851
0
VERTEX
8
CONTOURS_MINEURES
10
141.371
20
150.001
0
VERTEX
8
CONTOURS_MINEURES
10
142.680
20
147.685
0
VERTEX
8
CONTOURS_MINEURES
10
143.928
20
145.004
0
VERTEX
8
CONTOURS_MINEURES
10
144.371
20
144.376
0
VERTEX
8
CONTOURS_MINEURES
10
144.998
20
143.123
0
VERTEX
8
CONTOURS_MINEURES
10
147.604
20
139.997
0
VERTEX
8
CONTOURS_MINEURES
10
148.714
20
138.714
0
VERTEX
8
CONTOURS_MINEURES
10
149.999
20
137.243
0
SEQEND
0
POLYLINE
8
CONTOURS_MINEURES
66
1
70
0
0
VERTEX
8
CONTOURS_MINEURES
10
120.524
20
184.998
0
VERTEX
8
CONTOURS_MINEURES
10
119.995
20
184.105
0
VERTEX
8
CONTOURS_MINEURES
10
118.187
20
181.811
0
VERTEX
8
CONTOURS_MINEURES
10
116.517
20
180.001
0
VERTEX
8
CONTOURS_MINEURES
10
116.222
20
178.782
0
VERTEX
8
CONTOURS_MINEURES
10
115.005
20
176.614
0
VERTEX
8
CONTOURS_MINEURES
10
114.149
20
175.005
0
VERTEX
8
CONTOURS_MINEURES
10
115.005
20
173.063
0
VERTEX
8
CONTOURS_MINEURES
10
115.977
20
170.973
0
VERTEX
8
CONTOURS_MINEURES
10
116.273
20
169.997
0
VERTEX
8
CONTOURS_MINEURES
10
118.656
20
168.657
0
VERTEX
8
CONTOURS_MINEURES
10
119.995
20
167.300
0
VERTEX
8
CONTOURS_MINEURES
10
123.173
20
165.001
0
VERTEX
8
CONTOURS_MINEURES
10
124.279
20
164.285
0
VERTEX
8
CONTOURS_MINEURES
10
124.995
20
164.050
0
VERTEX
8
CONTOURS_MINEURES
10
126.542
20
163.455
0
VERTEX
8
CONTOURS_MINEURES
10
129.996
20
161.970
0
VERTEX
8
CONTOURS_MINEURES
10
133.134
20
160.004
0
VERTEX
8
CONTOURS_MINEURES
10
134.444
20
159.451
0
VERTEX
8
CONTOURS_MINEURES
10
134.997
20
159.247
0
VERTEX
8
CONTOURS_MINEURES
10
136.497
20
158.502
0
VERTEX
8
CONTOURS_MINEURES
10
139.997
20
156.884
0
VERTEX
8
CONTOURS_MINEURES
10
140.996
20
155.997
0
VERTEX
8
CONTOURS_MINEURES
10
142.089
20
154.997
0
VERTEX
8
CONTOURS_MINEURES
10
143.956
20
151.041
0
VERTEX
8
CONTOURS_MINEURES
10
144.458
20
150.001
0
VERTEX
8
CONTOURS_MINEURES
10
144.653
20
149.656
0
VERTEX
8
CONTOURS_MINEURES
10
144.998
20
148.914
0
VERTEX
8
CONTOURS_MINEURES
10
148.280
20
145.004
0
VERTEX
8
CONTOURS_MINEURES
10
149.999
20
142.844
0
SEQEND
0
POLYLINE
8
CONTOURS_MINEURES
66
1
70
0
0
VERTEX
8
CONTOURS_MINEURES
10
126.627
20
184.998
0
VERTEX
8
CONTOURS_MINEURES
10
124.995
20
182.904
0
VERTEX
8
CONTOURS_MINEURES
10
123.571
20
180.001
0
VERTEX
8
CONTOURS_MINEURES
10
123.188
20
178.196
0
VERTEX
8
CONTOURS_MINEURES
10
123.243
20
175.005
0
VERTEX
8
CONTOURS_MINEURES
10
124.995
20
170.116
0
VERTEX
8
CONTOURS_MINEURES
10
125.027
20
170.029
0
VERTEX
8
CONTOURS_MINEURES
10
125.036
20
169.997
0
VERTEX
8
CONTOURS_MINEURES
10
127.809
20
167.812
0
VERTEX
8
CONTOURS_MINEURES
10
129.996
20
166.494
0
VERTEX
8
CONTOURS_MINEURES
10
130.902
20
165.906
0
VERTEX
8
CONTOURS_MINEURES
10
132.238
20
165.001
0
VERTEX
8
CONTOURS_MINEURES
10
134.997
20
163.456
0
VERTEX
8
CONTOURS_MINEURES
10
137.100
20
162.106
0
VERTEX
8
CONTOURS_MINEURES
10
139.384
20
160.004
0
VERTEX
8
CONTOURS_MINEURES
10
139.997
20
159.721
0
VERTEX
8
CONTOURS_MINEURES
10
142.498
20
157.501
0
VERTEX
8
CONTOURS_MINEURES
10
144.998
20
155.213
0
VERTEX
8
CONTOURS_MINEURES
10
145.628
20
154.997
0
VERTEX
8
CONTOURS_MINEURES
10
148.065
20
153.065
0
VERTEX
8
CONTOURS_MINEURES
10
149.999
20
151.000
0
SEQEND
0
POLYLINE
8
CONTOURS_MINEURES
66
1
70
0
0
VERTEX
8
CONTOURS_MINEURES
10
136.637
20
184.998
0
VERTEX
8
CONTOURS_MINEURES
10
135.855
20
184.140
0
VERTEX
8
CONTOURS_MINEURES
10
134.997
20
182.818
0
VERTEX
8
CONTOURS_MINEURES
10
133.594
20
181.402
0
VERTEX
8
CONTOURS_MINEURES
10
132.876
20
180.001
0
VERTEX
8
CONTOURS_MINEURES
10
132.177
20
177.184
0
VERTEX
8
CONTOURS_MINEURES
10
131.515
20
175.005
0
VERTEX
8
CONTOURS_MINEURES
10
132.694
20
172.303
0
VERTEX
8
CONTOURS_MINEURES
10
133.448
20
169.997
0
VERTEX
8
CONTOURS_MINEURES
10
134.387
20
169.388
0
VERTEX
8
CONTOURS_MINEURES
10
134.997
20
168.975
0
VERTEX
8
CONTOURS_MINEURES
10
139.603
20
165.395
0
VERTEX
8
CONTOURS_MINEURES
10
139.997
20
165.090
0
VERTEX
8
CONTOURS_MINEURES
10
140.040
20
165.044
0
VERTEX
8
CONTOURS_MINEURES
10
140.051
20
165.001
0
VERTEX
8
CONTOURS_MINEURES
10
140.108
20
164.891
0
VERTEX
8
CONTOURS_MINEURES
10
142.873
20
160.004
0
VERTEX
8
CONTOURS_MINEURES
10
143.999
20
159.004
0
VERTEX
8
CONTOURS_MINEURES
10
144.998
20
158.091
0
VERTEX
8
CONTOURS_MINEURES
10
147.902
20
157.096
0
VERTEX
8
CONTOURS_MINEURES
10
149.999
20
156.419
0
SEQEND
0
POLYLINE
8
CONTOURS_MINEURES
66
1
70
0
0
VERTEX
8
CONTOURS_MINEURES
10
143.970
20
184.998
0
VERTEX
8
CONTOURS_MINEURES
10
140.310
20
180.313
0
VERTEX
8
CONTOURS_MINEURES
10
140.087
20
180.001
0
VERTEX
8
CONTOURS_MINEURES
10
139.997
20
179.745
0
VERTEX
8
CONTOURS_MINEURES
10
138.992
20
176.009
0
VERTEX
8
CONTOURS_MINEURES
10
138.703
20
175.005
0
VERTEX
8
CONTOURS_MINEURES
10
139.081
20
174.088
0
VERTEX
8
CONTOURS_MINEURES
10
139.997
20
172.395
0
VERTEX
8
CONTOURS_MINEURES
10
140.937
20
169.997
0
VERTEX
8
CONTOURS_MINEURES
10
142.898
20
167.899
0
VERTEX
8
CONTOURS_MINEURES
10
143.623
20
165.001
0
VERTEX
8
CONTOURS_MINEURES
10
144.998
20
162.329
0
VERTEX
8
CONTOURS_MINEURES
10
148.072
20
160.004
0
VERTEX
8
CONTOURS_MINEURES
10
149.999
20
159.382
0
SEQEND
0
POLYLINE
8
CONTOURS_MINEURES
66
1
70
0
0
VERTEX
8
CONTOURS_MINEURES
10
149.999
20
177.919
0
VERTEX
8
CONTOURS_MINEURES
10
147.890
20
175.005
0
VERTEX
8
CONTOURS_MINEURES
10
148.010
20
173.013
0
VERTEX
8
CONTOURS_MINEURES
10
148.230
20
169.997
0
VERTEX
8
CONTOURS_MINEURES
10
149.045
20
169.044
0
VERTEX
8
CONTOURS_MINEURES
10
149.999
20
167.897
0
SEQEND
0
POLYLINE
8
CONTOURS_MAJEURES
66
1
70
0
0
VERTEX
8
CONTOURS_MAJEURES
10
0.001
20
10.914
0
VERTEX
8
CONTOURS_MAJEURES
10
0.560
20
10.560
0
VERTEX
8
CONTOURS_MAJEURES
10
1.045
20
10.002
0
VERTEX
8
CONTOURS_MAJEURES
10
3.066
20
6.939
0
VERTEX
8
CONTOURS_MAJEURES
10
4.356
20
5.005
0
VERTEX
8
CONTOURS_MAJEURES
10
4.677
20
4.680
0
VERTEX
8
CONTOURS_MAJEURES
10
5.001
20
4.254
0
VERTEX
8
CONTOURS_MAJEURES
10
8.271
20
-0.002
0
SEQEND
0
POLYLINE
8
CONTOURS_MAJEURES
66
1
70
0
0
VERTEX
8
CONTOURS_MAJEURES
10
14.233
20
19.994
0
VERTEX
8
CONTOURS_MAJEURES
10
15.003
20
20.819
0
VERTEX
8
CONTOURS_MAJEURES
10
15.398
20
19.994
0
VERTEX
8
CONTOURS_MAJEURES
10
15.003
20
14.998
0
VERTEX
8
CONTOURS_MAJEURES
10
14.258
20
19.250
0
VERTEX
8
CONTOURS_MAJEURES
10
14.233
20
19.994
0
SEQEND
0
POLYLINE
8
CONTOURS_MAJEURES
66
1
70
0
0
VERTEX
8
CONTOURS_MAJEURES
10
0.001
20
52.688
0
VERTEX
8
CONTOURS_MAJEURES
10
2.368
20
52.365
0
VERTEX
8
CONTOURS_MAJEURES
10
5.001
20
50.794
0
VERTEX
8
CONTOURS_MAJEURES
10
5.665
20
50.660
0
VERTEX
8
CONTOURS_MAJEURES
10
6.831
20
49.995
0
VERTEX
8
CONTOURS_MAJEURES
10
10.002
20
49.315
0
VERTEX
8
CONTOURS_MAJEURES
10
14.645
20
49.995
0
VERTEX
8
CONTOURS_MAJEURES
10
15.003
20
50.075
0
VERTEX
8
CONTOURS_MAJEURES
10
15.129
20
49.995
0
VERTEX
8
CONTOURS_MAJEURES
10
18.511
20
48.504
0
VERTEX
8
CONTOURS_MAJEURES
10
20.003
20
47.732
0
VERTEX
8
CONTOURS_MAJEURES
10
23.108
20
46.892
0
VERTEX
8
CONTOURS_MAJEURES
10
25.004
20
46.476
0
VERTEX
8
CONTOURS_MAJEURES
10
26.464
20
46.457
0
VERTEX
8
CONTOURS_MAJEURES
10
30.005
20
46.120
0
VERTEX
8
CONTOURS_MAJEURES
10
32.974
20
47.028
0
VERTEX
8
CONTOURS_MAJEURES
10
35.005
20
47.843
0
VERTEX
8
CONTOURS_MAJEURES
10
37.305
20
47.692
0
VERTEX
8
CONTOURS_MAJEURES
10
39.995
20
47.920
0
VERTEX
8
CONTOURS_MAJEURES
10
41.901
20
46.903
0
VERTEX
8
CONTOURS_MAJEURES
10
42.995
20
44.999
0
VERTEX
8
CONTOURS_MAJEURES
10
41.956
20
43.040
0
VERTEX
8
CONTOURS_MAJEURES
10
41.830
20
40.002
0
VERTEX
8
CONTOURS_MAJEURES
10
39.995
20
37.973
0
VERTEX
8
CONTOURS_MAJEURES
10
38.157
20
36.840
0
VERTEX
8
CONTOURS_MAJEURES
10
37.702
20
34.995
0
VERTEX
8
CONTOURS_MAJEURES
10
37.931
20
32.928
0
VERTEX
8
CONTOURS_MAJEURES
10
37.256
20
29.998
0
VERTEX
8
CONTOURS_MAJEURES
10
37.782
20
27.782
0
VERTEX
8
CONTOURS_MAJEURES
10
38.454
20
25.002
0
VERTEX
8
CONTOURS_MAJEURES
10
39.995
20
21.299
0
VERTEX
8
CONTOURS_MAJEURES
10
40.578
20
20.578
0
VERTEX
8
CONTOURS_MAJEURES
10
41.169
20
19.994
0
VERTEX
8
CONTOURS_MAJEURES
10
42.579
20
17.580
0
VERTEX
8
CONTOURS_MAJEURES
10
43.853
20
14.998
0
VERTEX
8
CONTOURS_MAJEURES
10
43.900
20
13.903
0
VERTEX
8
CONTOURS_MAJEURES
10
43.954
20
10.002
0
VERTEX
8
CONTOURS_MAJEURES
10
43.580
20
6.419
0
VERTEX
8
CONTOURS_MAJEURES
10
43.475
20
5.005
0
VERTEX
8
CONTOURS_MAJEURES
10
43.365
20
3.372
0
VERTEX
8
CONTOURS_MAJEURES
10
43.137
20
-0.002
0
SEQEND
0
POLYLINE
8
CONTOURS_MAJEURES
66
1
70
0
0
VERTEX
8
CONTOURS_MAJEURES
10
0.001
20
75.877
0
VERTEX
8
CONTOURS_MAJEURES
10
1.819
20
76.816
0
VERTEX
8
CONTOURS_MAJEURES
10
5.001
20
78.348
0
VERTEX
8
CONTOURS_MAJEURES
10
6.433
20
78.565
0
VERTEX
8
CONTOURS_MAJEURES
10
10.002
20
79.262
0
VERTEX
8
CONTOURS_MAJEURES
10
10.835
20
79.163
0
VERTEX
8
CONTOURS_MAJEURES
10
15.003
20
78.854
0
VERTEX
8
CONTOURS_MAJEURES
10
18.519
20
78.512
0
VERTEX
8
CONTOURS_MAJEURES
10
20.003
20
78.071
0
VERTEX
8
CONTOURS_MAJEURES
10
22.939
20
77.933
0
VERTEX
8
CONTOURS_MAJEURES
10
25.004
20
77.728
0
VERTEX
8
CONTOURS_MAJEURES
10
27.192
20
77.185
0
VERTEX
8
CONTOURS_MAJEURES
10
30.005
20
76.676
0
VERTEX
8
CONTOURS_MAJEURES
10
31.401
20
76.395
0
VERTEX
8
CONTOURS_MAJEURES
10
35.005
20
76.017
0
VERTEX
8
CONTOURS_MAJEURES
10
38.883
20
76.113
0
VERTEX
8
CONTOURS_MAJEURES
10
39.995
20
76.100
0
VERTEX
8
CONTOURS_MAJEURES
10
44.674
20
75.320
0
VERTEX
8
CONTOURS_MAJEURES
10
44.996
20
75.262
0
VERTEX
8
CONTOURS_MAJEURES
10
45.588
20
74.999
0
VERTEX
8
CONTOURS_MAJEURES
10
48.571
20
73.575
0
VERTEX
8
CONTOURS_MAJEURES
10
49.996
20
72.958
0
VERTEX
8
CONTOURS_MAJEURES
10
51.976
20
71.981
0
VERTEX
8
CONTOURS_MAJEURES
10
54.997
20
70.134
0
VERTEX
8
CONTOURS_MAJEURES
10
55.189
20
70.003
0
VERTEX
8
CONTOURS_MAJEURES
10
59.998
20
68.311
0
VERTEX
8
CONTOURS_MAJEURES
10
62.298
20
67.299
0
VERTEX
8
CONTOURS_MAJEURES
10
64.998
20
65.815
0
VERTEX
8
CONTOURS_MAJEURES
10
66.405
20
64.995
0
VERTEX
8
CONTOURS_MAJEURES
10
67.829
20
62.827
0
VERTEX
8
CONTOURS_MAJEURES
10
69.999
20
60.707
0
VERTEX
8
CONTOURS_MAJEURES
10
70.921
20
59.999
0
VERTEX
8
CONTOURS_MAJEURES
10
72.999
20
58.000
0
VERTEX
8
CONTOURS_MAJEURES
10
74.117
20
55.002
0
VERTEX
8
CONTOURS_MAJEURES
10
74.369
20
54.371
0
VERTEX
8
CONTOURS_MAJEURES
10
74.651
20
49.995
0
VERTEX
8
CONTOURS_MAJEURES
10
74.538
20
45.459
0
VERTEX
8
CONTOURS_MAJEURES
10
74.585
20
44.999
0
VERTEX
8
CONTOURS_MAJEURES
10
74.460
20
44.459
0
VERTEX
8
CONTOURS_MAJEURES
10
73.774
20
40.002
0
VERTEX
8
CONTOURS_MAJEURES
10
73.326
20
36.671
0
VERTEX
8
CONTOURS_MAJEURES
10
73.054
20
34.995
0
VERTEX
8
CONTOURS_MAJEURES
10
73.034
20
33.031
0
VERTEX
8
CONTOURS_MAJEURES
10
72.946
20
29.998
0
VERTEX
8
CONTOURS_MAJEURES
10
73.019
20
26.981
0
VERTEX
8
CONTOURS_MAJEURES
10
73.130
20
25.002
0
VERTEX
8
CONTOURS_MAJEURES
10
73.148
20
23.147
0
VERTEX
8
CONTOURS_MAJEURES
10
73.133
20
19.994
0
VERTEX
8
CONTOURS_MAJEURES
10
72.810
20
17.807
0
VERTEX
8
CONTOURS_MAJEURES
10
72.612
20
14.998
0
VERTEX
8
CONTOURS_MAJEURES
10
72.015
20
12.984
0
VERTEX
8
CONTOURS_MAJEURES
10
71.418
20
10.002
0
VERTEX
8
CONTOURS_MAJEURES
10
70.961
20
9.040
0
VERTEX
8
CONTOURS_MAJEURES
10
69.999
20
5.005
0
VERTEX
8
CONTOURS_MAJEURES
10
68.723
20
1.275
0
VERTEX
8
CONTOURS_MAJEURES
10
68.423
20
-0.002
0
SEQEND
0
POLYLINE
8
CONTOURS_MAJEURES
66
1
70
0
0
VERTEX
8
CONTOURS_MAJEURES
10
0.001
20
100.389
0
VERTEX
8
CONTOURS_MAJEURES
10
3.031
20
101.972
0
VERTEX
8
CONTOURS_MAJEURES
10
5.001
20
102.961
0
VERTEX
8
CONTOURS_MAJEURES
10
9.927
20
104.925
0
VERTEX
8
CONTOURS_MAJEURES
10
10.002
20
104.951
0
VERTEX
8
CONTOURS_MAJEURES
10
10.043
20
104.959
0
VERTEX
8
CONTOURS_MAJEURES
10
10.153
20
105.000
0
VERTEX
8
CONTOURS_MAJEURES
10
13.860
20
106.142
0
VERTEX
8
CONTOURS_MAJEURES
10
15.003
20
106.522
0
VERTEX
8
CONTOURS_MAJEURES
10
17.436
20
107.565
0
VERTEX
8
CONTOURS_MAJEURES
10
20.003
20
108.681
0
VERTEX
8
CONTOURS_MAJEURES
10
21.378
20
108.622
0
VERTEX
8
CONTOURS_MAJEURES
10
25.004
20
108.586
0
VERTEX
8
CONTOURS_MAJEURES
10
28.300
20
108.293
0
VERTEX
8
CONTOURS_MAJEURES
10
30.005
20
108.024
0
VERTEX
8
CONTOURS_MAJEURES
10
32.378
20
107.624
0
VERTEX
8
CONTOURS_MAJEURES
10
35.005
20
107.229
0
VERTEX
8
CONTOURS_MAJEURES
10
36.871
20
106.868
0
VERTEX
8
CONTOURS_MAJEURES
10
39.995
20
106.262
0
VERTEX
8
CONTOURS_MAJEURES
10
44.108
20
105.887
0
VERTEX
8
CONTOURS_MAJEURES
10
44.996
20
105.810
0
VERTEX
8
CONTOURS_MAJEURES
10
45.693
20
105.697
0
VERTEX
8
CONTOURS_MAJEURES
10
49.996
20
105.420
0
VERTEX
8
CONTOURS_MAJEURES
10
51.731
20
105.000
0
VERTEX
8
CONTOURS_MAJEURES
10
54.307
20
104.311
0
VERTEX
8
CONTOURS_MAJEURES
10
54.997
20
104.212
0
VERTEX
8
CONTOURS_MAJEURES
10
56.182
20
103.815
0
VERTEX
8
CONTOURS_MAJEURES
10
59.998
20
102.489
0
VERTEX
8
CONTOURS_MAJEURES
10
64.290
20
100.003
0
VERTEX
8
CONTOURS_MAJEURES
10
64.675
20
99.680
0
VERTEX
8
CONTOURS_MAJEURES
10
64.998
20
99.250
0
VERTEX
8
CONTOURS_MAJEURES
10
67.943
20
94.996
0
VERTEX
8
CONTOURS_MAJEURES
10
69.999
20
91.545
0
VERTEX
8
CONTOURS_MAJEURES
10
71.086
20
89.999
0
VERTEX
8
CONTOURS_MAJEURES
10
73.105
20
88.106
0
VERTEX
8
CONTOURS_MAJEURES
10
75.000
20
85.426
0
VERTEX
8
CONTOURS_MAJEURES
10
75.226
20
85.229
0
VERTEX
8
CONTOURS_MAJEURES
10
75.322
20
85.003
0
VERTEX
8
CONTOURS_MAJEURES
10
77.534
20
82.533
0
VERTEX
8
CONTOURS_MAJEURES
10
78.253
20
79.996
0
VERTEX
8
CONTOURS_MAJEURES
10
80.000
20
76.395
0
VERTEX
8
CONTOURS_MAJEURES
10
80.808
20
75.806
0
VERTEX
8
CONTOURS_MAJEURES
10
81.632
20
74.999
0
VERTEX
8
CONTOURS_MAJEURES
10
83.673
20
73.672
0
VERTEX
8
CONTOURS_MAJEURES
10
85.001
20
72.853
0
VERTEX
8
CONTOURS_MAJEURES
10
86.482
20
71.483
0
VERTEX
8
CONTOURS_MAJEURES
10
88.197
20
70.003
0
VERTEX
8
CONTOURS_MAJEURES
10
89.468
20
69.469
0
VERTEX
8
CONTOURS_MAJEURES
10
90.002
20
69.132
0
VERTEX
8
CONTOURS_MAJEURES
10
92.126
20
67.876
0
VERTEX
8
CONTOURS_MAJEURES
10
95.002
20
66.233
0
VERTEX
8
CONTOURS_MAJEURES
10
95.883
20
65.877
0
VERTEX
8
CONTOURS_MAJEURES
10
97.086
20
64.995
0
VERTEX
8
CONTOURS_MAJEURES
10
96.752
20
61.748
0
VERTEX
8
CONTOURS_MAJEURES
10
96.410
20
59.999
0
VERTEX
8
CONTOURS_MAJEURES
10
95.913
20
59.089
0
VERTEX
8
CONTOURS_MAJEURES
10
95.135
20
55.002
0
VERTEX
8
CONTOURS_MAJEURES
10
95.087
20
54.917
0
VERTEX
8
CONTOURS_MAJEURES
10
95.002
20
54.696
0
VERTEX
8
CONTOURS_MAJEURES
10
93.085
20
49.995
0
VERTEX
8
CONTOURS_MAJEURES
10
92.358
20
47.353
0
VERTEX
8
CONTOURS_MAJEURES
10
91.635
20
44.999
0
VERTEX
8
CONTOURS_MAJEURES
10
90.997
20
40.997
0
VERTEX
8
CONTOURS_MAJEURES
10
90.892
20
40.002
0
VERTEX
8
CONTOURS_MAJEURES
10
90.859
20
39.144
0
VERTEX
8
CONTOURS_MAJEURES
10
90.470
20
34.995
0
VERTEX
8
CONTOURS_MAJEURES
10
90.511
20
30.507
0
VERTEX
8
CONTOURS_MAJEURES
10
90.534
20
29.998
0
VERTEX
8
CONTOURS_MAJEURES
10
90.601
20
29.400
0
VERTEX
8
CONTOURS_MAJEURES
10
91.279
20
25.002
0
VERTEX
8
CONTOURS_MAJEURES
10
91.813
20
21.808
0
VERTEX
8
CONTOURS_MAJEURES
10
92.010
20
19.994
0
VERTEX
8
CONTOURS_MAJEURES
10
91.760
20
18.237
0
VERTEX
8
CONTOURS_MAJEURES
10
91.558
20
14.998
0
VERTEX
8
CONTOURS_MAJEURES
10
91.046
20
13.954
0
VERTEX
8
CONTOURS_MAJEURES
10
90.002
20
10.834
0
VERTEX
8
CONTOURS_MAJEURES
10
89.702
20
10.002
0
VERTEX
8
CONTOURS_MAJEURES
10
88.092
20
6.913
0
VERTEX
8
CONTOURS_MAJEURES
10
87.203
20
5.005
0
VERTEX
8
CONTOURS_MAJEURES
10
85.001
20
1.038
0
VERTEX
8
CONTOURS_MAJEURES
10
84.308
20
-0.002
0
SEQEND
0
POLYLINE
8
CONTOURS_MAJEURES
66
1
70
0
0
VERTEX
8
CONTOURS_MAJEURES
10
18.646
20
184.998
0
VERTEX
8
CONTOURS_MAJEURES
10
18.102
20
183.098
0
VERTEX
8
CONTOURS_MAJEURES
10
16.776
20
180.001
0
VERTEX
8
CONTOURS_MAJEURES
10
16.437
20
178.568
0
VERTEX
8
CONTOURS_MAJEURES
10
15.696
20
175.005
0
VERTEX
8
CONTOURS_MAJEURES
10
15.578
20
174.428
0
VERTEX
8
CONTOURS_MAJEURES
10
15.003
20
172.639
0
VERTEX
8
CONTOURS_MAJEURES
10
14.059
20
170.942
0
VERTEX
8
CONTOURS_MAJEURES
10
13.775
20
169.997
0
VERTEX
8
CONTOURS_MAJEURES
10
13.032
20
168.028
0
VERTEX
8
CONTOURS_MAJEURES
10
11.896
20
165.001
0
VERTEX
8
CONTOURS_MAJEURES
10
11.316
20
163.688
0
VERTEX
8
CONTOURS_MAJEURES
10
10.002
20
160.640
0
VERTEX
8
CONTOURS_MAJEURES
10
9.663
20
160.004
0
VERTEX
8
CONTOURS_MAJEURES
10
7.221
20
157.781
0
VERTEX
8
CONTOURS_MAJEURES
10
5.001
20
156.520
0
VERTEX
8
CONTOURS_MAJEURES
10
4.139
20
155.860
0
VERTEX
8
CONTOURS_MAJEURES
10
2.528
20
154.997
0
VERTEX
8
CONTOURS_MAJEURES
10
0.001
20
150.741
0
SEQEND
0
POLYLINE
8
CONTOURS_MAJEURES
66
1
70
0
0
VERTEX
8
CONTOURS_MAJEURES
10
0.001
20
130.361
0
VERTEX
8
CONTOURS_MAJEURES
10
0.313
20
130.316
0
VERTEX
8
CONTOURS_MAJEURES
10
5.001
20
132.347
0
VERTEX
8
CONTOURS_MAJEURES
10
7.762
20
132.762
0
VERTEX
8
CONTOURS_MAJEURES
10
10.002
20
133.666
0
VERTEX
8
CONTOURS_MAJEURES
10
13.760
20
133.759
0
VERTEX
8
CONTOURS_MAJEURES
10
15.003
20
133.941
0
VERTEX
8
CONTOURS_MAJEURES
10
15.918
20
134.085
0
VERTEX
8
CONTOURS_MAJEURES
10
18.903
20
135.000
0
VERTEX
8
CONTOURS_MAJEURES
10
20.003
20
135.256
0
VERTEX
8
CONTOURS_MAJEURES
10
24.793
20
135.211
0
VERTEX
8
CONTOURS_MAJEURES
10
25.004
20
135.250
0
VERTEX
8
CONTOURS_MAJEURES
10
25.235
20
135.231
0
VERTEX
8
CONTOURS_MAJEURES
10
26.804
20
135.000
0
VERTEX
8
CONTOURS_MAJEURES
10
29.514
20
134.510
0
VERTEX
8
CONTOURS_MAJEURES
10
30.005
20
134.385
0
VERTEX
8
CONTOURS_MAJEURES
10
31.005
20
134.001
0
VERTEX
8
CONTOURS_MAJEURES
10
35.005
20
131.603
0
VERTEX
8
CONTOURS_MAJEURES
10
36.080
20
131.081
0
VERTEX
8
CONTOURS_MAJEURES
10
38.634
20
130.004
0
VERTEX
8
CONTOURS_MAJEURES
10
39.995
20
129.579
0
VERTEX
8
CONTOURS_MAJEURES
10
43.685
20
128.691
0
VERTEX
8
CONTOURS_MAJEURES
10
44.996
20
128.393
0
VERTEX
8
CONTOURS_MAJEURES
10
47.800
20
127.804
0
VERTEX
8
CONTOURS_MAJEURES
10
49.996
20
127.088
0
VERTEX
8
CONTOURS_MAJEURES
10
54.494
20
125.500
0
VERTEX
8
CONTOURS_MAJEURES
10
54.997
20
125.336
0
VERTEX
8
CONTOURS_MAJEURES
10
55.268
20
125.268
0
VERTEX
8
CONTOURS_MAJEURES
10
55.921
20
124.996
0
VERTEX
8
CONTOURS_MAJEURES
10
59.998
20
123.220
0
VERTEX
8
CONTOURS_MAJEURES
10
62.327
20
122.327
0
VERTEX
8
CONTOURS_MAJEURES
10
64.998
20
120.542
0
VERTEX
8
CONTOURS_MAJEURES
10
67.374
20
120.000
0
VERTEX
8
CONTOURS_MAJEURES
10
69.999
20
119.563
0
VERTEX
8
CONTOURS_MAJEURES
10
70.499
20
119.500
0
VERTEX
8
CONTOURS_MAJEURES
10
75.000
20
118.955
0
VERTEX
8
CONTOURS_MAJEURES
10
77.520
20
117.522
0
VERTEX
8
CONTOURS_MAJEURES
10
80.000
20
116.112
0
VERTEX
8
CONTOURS_MAJEURES
10
80.803
20
115.806
0
VERTEX
8
CONTOURS_MAJEURES
10
82.155
20
115.004
0
VERTEX
8
CONTOURS_MAJEURES
10
85.001
20
112.930
0
VERTEX
8
CONTOURS_MAJEURES
10
86.548
20
111.545
0
VERTEX
8
CONTOURS_MAJEURES
10
87.751
20
109.996
0
VERTEX
8
CONTOURS_MAJEURES
10
90.002
20
106.784
0
VERTEX
8
CONTOURS_MAJEURES
10
91.909
20
105.000
0
VERTEX
8
CONTOURS_MAJEURES
10
95.002
20
102.879
0
VERTEX
8
CONTOURS_MAJEURES
10
96.698
20
101.697
0
VERTEX
8
CONTOURS_MAJEURES
10
98.325
20
100.003
0
VERTEX
8
CONTOURS_MAJEURES
10
100.003
20
98.345
0
VERTEX
8
CONTOURS_MAJEURES
10
102.541
20
94.996
0
VERTEX
8
CONTOURS_MAJEURES
10
105.004
20
91.619
0
VERTEX
8
CONTOURS_MAJEURES
10
105.743
20
90.738
0
VERTEX
8
CONTOURS_MAJEURES
10
106.437
20
89.999
0
VERTEX
8
CONTOURS_MAJEURES
10
107.958
20
87.955
0
VERTEX
8
CONTOURS_MAJEURES
10
110.004
20
85.763
0
VERTEX
8
CONTOURS_MAJEURES
10
110.578
20
85.003
0
VERTEX
8
CONTOURS_MAJEURES
10
111.726
20
83.279
0
VERTEX
8
CONTOURS_MAJEURES
10
114.066
20
79.996
0
VERTEX
8
CONTOURS_MAJEURES
10
114.404
20
79.395
0
VERTEX
8
CONTOURS_MAJEURES
10
115.005
20
78.128
0
VERTEX
8
CONTOURS_MAJEURES
10
116.793
20
74.999
0
VERTEX
8
CONTOURS_MAJEURES
10
117.999
20
73.001
0
VERTEX
8
CONTOURS_MAJEURES
10
119.808
20
70.003
0
VERTEX
8
CONTOURS_MAJEURES
10
119.896
20
69.904
0
VERTEX
8
CONTOURS_MAJEURES
10
119.995
20
69.799
0
VERTEX
8
CONTOURS_MAJEURES
10
122.359
20
67.363
0
VERTEX
8
CONTOURS_MAJEURES
10
124.141
20
64.995
0
VERTEX
8
CONTOURS_MAJEURES
10
124.528
20
60.466
0
VERTEX
8
CONTOURS_MAJEURES
10
124.515
20
59.999
0
VERTEX
8
CONTOURS_MAJEURES
10
124.236
20
59.241
0
VERTEX
8
CONTOURS_MAJEURES
10
123.765
20
55.002
0
VERTEX
8
CONTOURS_MAJEURES
10
123.001
20
51.992
0
VERTEX
8
CONTOURS_MAJEURES
10
119.995
20
50.557
0
VERTEX
8
CONTOURS_MAJEURES
10
119.725
20
50.266
0
VERTEX
8
CONTOURS_MAJEURES
10
119.087
20
49.995
0
VERTEX
8
CONTOURS_MAJEURES
10
118.213
20
46.783
0
VERTEX
8
CONTOURS_MAJEURES
10
116.513
20
44.999
0
VERTEX
8
CONTOURS_MAJEURES
10
118.816
20
43.818
0
VERTEX
8
CONTOURS_MAJEURES
10
119.944
20
40.002
0
VERTEX
8
CONTOURS_MAJEURES
10
119.959
20
39.966
0
VERTEX
8
CONTOURS_MAJEURES
10
119.959
20
34.995
0
VERTEX
8
CONTOURS_MAJEURES
10
118.934
20
31.061
0
VERTEX
8
CONTOURS_MAJEURES
10
118.666
20
29.998
0
VERTEX
8
CONTOURS_MAJEURES
10
118.148
20
28.150
0
VERTEX
8
CONTOURS_MAJEURES
10
117.250
20
25.002
0
VERTEX
8
CONTOURS_MAJEURES
10
116.300
20
21.294
0
VERTEX
8
CONTOURS_MAJEURES
10
115.909
20
19.994
0
VERTEX
8
CONTOURS_MAJEURES
10
115.718
20
19.281
0
VERTEX
8
CONTOURS_MAJEURES
10
115.295
20
14.998
0
VERTEX
8
CONTOURS_MAJEURES
10
115.282
20
14.720
0
VERTEX
8
CONTOURS_MAJEURES
10
115.359
20
10.002
0
VERTEX
8
CONTOURS_MAJEURES
10
115.005
20
7.404
0
VERTEX
8
CONTOURS_MAJEURES
10
114.668
20
5.005
0
VERTEX
8
CONTOURS_MAJEURES
10
114.005
20
4.004
0
VERTEX
8
CONTOURS_MAJEURES
10
111.514
20
-0.002
0
SEQEND
0
POLYLINE
8
CONTOURS_MAJEURES
66
1
70
0
0
VERTEX
8
CONTOURS_MAJEURES
10
41.318
20
184.998
0
VERTEX
8
CONTOURS_MAJEURES
10
40.614
20
184.379
0
VERTEX
8
CONTOURS_MAJEURES
10
39.995
20
183.796
0
VERTEX
8
CONTOURS_MAJEURES
10
36.986
20
180.001
0
VERTEX
8
CONTOURS_MAJEURES
10
35.005
20
176.417
0
VERTEX
8
CONTOURS_MAJEURES
10
34.464
20
175.545
0
VERTEX
8
CONTOURS_MAJEURES
10
34.220
20
175.005
0
VERTEX
8
CONTOURS_MAJEURES
10
32.900
20
172.106
0
VERTEX
8
CONTOURS_MAJEURES
10
32.009
20
169.997
0
VERTEX
8
CONTOURS_MAJEURES
10
31.547
20
168.457
0
VERTEX
8
CONTOURS_MAJEURES
10
30.005
20
165.308
0
VERTEX
8
CONTOURS_MAJEURES
10
29.909
20
165.096
0
VERTEX
8
CONTOURS_MAJEURES
10
29.863
20
165.001
0
VERTEX
8
CONTOURS_MAJEURES
10
29.075
20
160.933
0
VERTEX
8
CONTOURS_MAJEURES
10
28.629
20
160.004
0
VERTEX
8
CONTOURS_MAJEURES
10
28.939
20
158.937
0
VERTEX
8
CONTOURS_MAJEURES
10
30.005
20
157.869
0
VERTEX
8
CONTOURS_MAJEURES
10
32.851
20
154.997
0
VERTEX
8
CONTOURS_MAJEURES
10
35.005
20
153.416
0
VERTEX
8
CONTOURS_MAJEURES
10
37.124
20
152.122
0
VERTEX
8
CONTOURS_MAJEURES
10
39.995
20
151.038
0
VERTEX
8
CONTOURS_MAJEURES
10
44.130
20
150.001
0
VERTEX
8
CONTOURS_MAJEURES
10
44.846
20
149.851
0
VERTEX
8
CONTOURS_MAJEURES
10
44.996
20
149.816
0
VERTEX
8
CONTOURS_MAJEURES
10
49.462
20
149.467
0
VERTEX
8
CONTOURS_MAJEURES
10
49.996
20
149.370
0
VERTEX
8
CONTOURS_MAJEURES
10
50.783
20
149.215
0
VERTEX
8
CONTOURS_MAJEURES
10
54.997
20
148.335
0
VERTEX
8
CONTOURS_MAJEURES
10
57.256
20
147.743
0
VERTEX
8
CONTOURS_MAJEURES
10
59.998
20
146.990
0
VERTEX
8
CONTOURS_MAJEURES
10
61.708
20
146.713
0
VERTEX
8
CONTOURS_MAJEURES
10
64.998
20
145.990
0
VERTEX
8
CONTOURS_MAJEURES
10
69.133
20
145.004
0
VERTEX
8
CONTOURS_MAJEURES
10
69.813
20
144.818
0
VERTEX
8
CONTOURS_MAJEURES
10
69.999
20
144.777
0
VERTEX
8
CONTOURS_MAJEURES
10
70.286
20
144.717
0
VERTEX
8
CONTOURS_MAJEURES
10
75.000
20
143.412
0
VERTEX
8
CONTOURS_MAJEURES
10
79.089
20
139.997
0
VERTEX
8
CONTOURS_MAJEURES
10
79.580
20
139.577
0
VERTEX
8
CONTOURS_MAJEURES
10
80.000
20
139.176
0
VERTEX
8
CONTOURS_MAJEURES
10
81.500
20
138.498
0
VERTEX
8
CONTOURS_MAJEURES
10
85.001
20
137.004
0
VERTEX
8
CONTOURS_MAJEURES
10
89.874
20
135.127
0
VERTEX
8
CONTOURS_MAJEURES
10
90.002
20
135.081
0
VERTEX
8
CONTOURS_MAJEURES
10
90.226
20
135.000
0
VERTEX
8
CONTOURS_MAJEURES
10
93.859
20
133.858
0
VERTEX
8
CONTOURS_MAJEURES
10
95.002
20
133.440
0
VERTEX
8
CONTOURS_MAJEURES
10
97.213
20
132.212
0
VERTEX
8
CONTOURS_MAJEURES
10
100.003
20
130.270
0
VERTEX
8
CONTOURS_MAJEURES
10
100.150
20
130.150
0
VERTEX
8
CONTOURS_MAJEURES
10
100.363
20
130.004
0
VERTEX
8
CONTOURS_MAJEURES
10
102.943
20
127.940
0
VERTEX
8
CONTOURS_MAJEURES
10
105.004
20
126.758
0
VERTEX
8
CONTOURS_MAJEURES
10
108.539
20
124.996
0
VERTEX
8
CONTOURS_MAJEURES
10
109.469
20
124.462
0
VERTEX
8
CONTOURS_MAJEURES
10
110.004
20
124.017
0
VERTEX
8
CONTOURS_MAJEURES
10
114.617
20
120.000
0
VERTEX
8
CONTOURS_MAJEURES
10
115.005
20
119.276
0
VERTEX
8
CONTOURS_MAJEURES
10
116.237
20
116.237
0
VERTEX
8
CONTOURS_MAJEURES
10
117.008
20
115.004
0
VERTEX
8
CONTOURS_MAJEURES
10
119.995
20
109.996
0
VERTEX
8
CONTOURS_MAJEURES
10
124.995
20
106.786
0
VERTEX
8
CONTOURS_MAJEURES
10
125.989
20
105.992
0
VERTEX
8
CONTOURS_MAJEURES
10
126.899
20
105.000
0
VERTEX
8
CONTOURS_MAJEURES
10
129.996
20
100.003
0
VERTEX
8
CONTOURS_MAJEURES
10
131.511
20
96.513
0
VERTEX
8
CONTOURS_MAJEURES
10
132.496
20
94.996
0
VERTEX
8
CONTOURS_MAJEURES
10
133.735
20
91.260
0
VERTEX
8
CONTOURS_MAJEURES
10
134.247
20
89.999
0
VERTEX
8
CONTOURS_MAJEURES
10
134.168
20
89.172
0
VERTEX
8
CONTOURS_MAJEURES
10
133.297
20
85.003
0
VERTEX
8
CONTOURS_MAJEURES
10
133.608
20
83.612
0
VERTEX
8
CONTOURS_MAJEURES
10
134.786
20
79.996
0
VERTEX
8
CONTOURS_MAJEURES
10
134.997
20
79.832
0
VERTEX
8
CONTOURS_MAJEURES
10
135.632
20
79.361
0
VERTEX
8
CONTOURS_MAJEURES
10
139.997
20
76.401
0
VERTEX
8
CONTOURS_MAJEURES
10
140.668
20
75.669
0
VERTEX
8
CONTOURS_MAJEURES
10
140.890
20
74.999
0
VERTEX
8
CONTOURS_MAJEURES
10
141.606
20
73.392
0
VERTEX
8
CONTOURS_MAJEURES
10
143.443
20
70.003
0
VERTEX
8
CONTOURS_MAJEURES
10
142.675
20
67.322
0
VERTEX
8
CONTOURS_MAJEURES
10
143.167
20
64.995
0
VERTEX
8
CONTOURS_MAJEURES
10
142.995
20
62.001
0
VERTEX
8
CONTOURS_MAJEURES
10
143.084
20
59.999
0
VERTEX
8
CONTOURS_MAJEURES
10
143.142
20
58.144
0
VERTEX
8
CONTOURS_MAJEURES
10
143.220
20
55.002
0
VERTEX
8
CONTOURS_MAJEURES
10
143.284
20
53.286
0
VERTEX
8
CONTOURS_MAJEURES
10
143.482
20
49.995
0
VERTEX
8
CONTOURS_MAJEURES
10
143.529
20
48.527
0
VERTEX
8
CONTOURS_MAJEURES
10
143.760
20
44.999
0
VERTEX
8
CONTOURS_MAJEURES
10
143.813
20
41.186
0
VERTEX
8
CONTOURS_MAJEURES
10
143.831
20
40.002
0
VERTEX
8
CONTOURS_MAJEURES
10
143.792
20
38.795
0
VERTEX
8
CONTOURS_MAJEURES
10
143.504
20
34.995
0
VERTEX
8
CONTOURS_MAJEURES
10
142.922
20
32.072
0
VERTEX
8
CONTOURS_MAJEURES
10
142.749
20
29.998
0
VERTEX
8
CONTOURS_MAJEURES
10
142.192
20
27.195
0
VERTEX
8
CONTOURS_MAJEURES
10
141.726
20
25.002
0
VERTEX
8
CONTOURS_MAJEURES
10
141.502
20
23.496
0
VERTEX
8
CONTOURS_MAJEURES
10
140.164
20
19.994
0
VERTEX
8
CONTOURS_MAJEURES
10
139.997
20
18.405
0
VERTEX
8
CONTOURS_MAJEURES
10
139.381
20
15.614
0
VERTEX
8
CONTOURS_MAJEURES
10
139.067
20
14.998
0
VERTEX
8
CONTOURS_MAJEURES
10
139.083
20
14.084
0
VERTEX
8
CONTOURS_MAJEURES
10
138.923
20
10.002
0
VERTEX
8
CONTOURS_MAJEURES
10
138.733
20
6.268
0
VERTEX
8
CONTOURS_MAJEURES
10
138.704
20
5.005
0
VERTEX
8
CONTOURS_MAJEURES
10
138.416
20
3.421
0
VERTEX
8
CONTOURS_MAJEURES
10
137.846
20
-0.002
0
SEQEND
0
POLYLINE
8
CONTOURS_MAJEURES
66
1
70
0
0
VERTEX
8
CONTOURS_MAJEURES
10
75.034
20
184.998
0
VERTEX
8
CONTOURS_MAJEURES
10
75.026
20
184.971
0
VERTEX
8
CONTOURS_MAJEURES
10
75.000
20
184.915
0
VERTEX
8
CONTOURS_MAJEURES
10
72.506
20
182.492
0
VERTEX
8
CONTOURS_MAJEURES
10
69.999
20
180.136
0
VERTEX
8
CONTOURS_MAJEURES
10
69.833
20
180.001
0
VERTEX
8
CONTOURS_MAJEURES
10
64.998
20
175.442
0
VERTEX
8
CONTOURS_MAJEURES
10
64.752
20
175.251
0
VERTEX
8
CONTOURS_MAJEURES
10
64.395
20
175.005
0
VERTEX
8
CONTOURS_MAJEURES
10
63.443
20
173.447
0
VERTEX
8
CONTOURS_MAJEURES
10
61.300
20
169.997
0
VERTEX
8
CONTOURS_MAJEURES
10
62.315
20
167.316
0
VERTEX
8
CONTOURS_MAJEURES
10
63.876
20
165.001
0
VERTEX
8
CONTOURS_MAJEURES
10
64.998
20
164.292
0
VERTEX
8
CONTOURS_MAJEURES
10
67.462
20
162.466
0
VERTEX
8
CONTOURS_MAJEURES
10
69.999
20
161.379
0
VERTEX
8
CONTOURS_MAJEURES
10
74.127
20
160.004
0
VERTEX
8
CONTOURS_MAJEURES
10
74.901
20
159.905
0
VERTEX
8
CONTOURS_MAJEURES
10
75.000
20
159.891
0
VERTEX
8
CONTOURS_MAJEURES
10
75.155
20
159.849
0
VERTEX
8
CONTOURS_MAJEURES
10
80.000
20
158.332
0
VERTEX
8
CONTOURS_MAJEURES
10
81.924
20
158.078
0
VERTEX
8
CONTOURS_MAJEURES
10
85.001
20
157.625
0
VERTEX
8
CONTOURS_MAJEURES
10
87.278
20
157.277
0
VERTEX
8
CONTOURS_MAJEURES
10
90.002
20
156.601
0
VERTEX
8
CONTOURS_MAJEURES
10
94.018
20
154.997
0
VERTEX
8
CONTOURS_MAJEURES
10
94.581
20
154.576
0
VERTEX
8
CONTOURS_MAJEURES
10
95.002
20
154.338
0
VERTEX
8
CONTOURS_MAJEURES
10
98.135
20
153.131
0
VERTEX
8
CONTOURS_MAJEURES
10
100.003
20
151.293
0
VERTEX
8
CONTOURS_MAJEURES
10
100.893
20
150.890
0
VERTEX
8
CONTOURS_MAJEURES
10
102.552
20
150.001
0
VERTEX
8
CONTOURS_MAJEURES
10
104.401
20
149.399
0
VERTEX
8
CONTOURS_MAJEURES
10
105.004
20
148.844
0
VERTEX
8
CONTOURS_MAJEURES
10
108.337
20
148.335
0
VERTEX
8
CONTOURS_MAJEURES
10
110.004
20
146.545
0
VERTEX
8
CONTOURS_MAJEURES
10
114.026
20
145.004
0
VERTEX
8
CONTOURS_MAJEURES
10
114.816
20
144.815
0
VERTEX
8
CONTOURS_MAJEURES
10
115.005
20
144.403
0
VERTEX
8
CONTOURS_MAJEURES
10
119.338
20
144.345
0
VERTEX
8
CONTOURS_MAJEURES
10
119.995
20
140.452
0
VERTEX
8
CONTOURS_MAJEURES
10
120.828
20
139.997
0
VERTEX
8
CONTOURS_MAJEURES
10
124.748
20
139.749
0
VERTEX
8
CONTOURS_MAJEURES
10
124.995
20
138.609
0
VERTEX
8
CONTOURS_MAJEURES
10
127.496
20
135.000
0
VERTEX
8
CONTOURS_MAJEURES
10
129.996
20
133.416
0
VERTEX
8
CONTOURS_MAJEURES
10
131.355
20
131.362
0
VERTEX
8
CONTOURS_MAJEURES
10
132.410
20
130.004
0
VERTEX
8
CONTOURS_MAJEURES
10
134.997
20
128.698
0
VERTEX
8
CONTOURS_MAJEURES
10
136.732
20
126.734
0
VERTEX
8
CONTOURS_MAJEURES
10
138.122
20
124.996
0
VERTEX
8
CONTOURS_MAJEURES
10
139.997
20
123.352
0
VERTEX
8
CONTOURS_MAJEURES
10
140.928
20
120.930
0
VERTEX
8
CONTOURS_MAJEURES
10
141.294
20
120.000
0
VERTEX
8
CONTOURS_MAJEURES
10
142.678
20
117.322
0
VERTEX
8
CONTOURS_MAJEURES
10
143.716
20
115.004
0
VERTEX
8
CONTOURS_MAJEURES
10
144.998
20
112.443
0
VERTEX
8
CONTOURS_MAJEURES
10
146.394
20
111.394
0
VERTEX
8
CONTOURS_MAJEURES
10
147.884
20
109.996
0
VERTEX
8
CONTOURS_MAJEURES
10
149.999
20
108.041
0
SEQEND
0
POLYLINE
8
CONTOURS_MAJEURES
66
1
70
0
0
VERTEX
8
CONTOURS_MAJEURES
10
113.025
20
184.998
0
VERTEX
8
CONTOURS_MAJEURES
10
110.004
20
182.363
0
VERTEX
8
CONTOURS_MAJEURES
10
108.859
20
181.146
0
VERTEX
8
CONTOURS_MAJEURES
10
107.528
20
180.001
0
VERTEX
8
CONTOURS_MAJEURES
10
106.650
20
178.356
0
VERTEX
8
CONTOURS_MAJEURES
10
105.541
20
175.005
0
VERTEX
8
CONTOURS_MAJEURES
10
106.629
20
171.625
0
VERTEX
8
CONTOURS_MAJEURES
10
107.480
20
169.997
0
VERTEX
8
CONTOURS_MAJEURES
10
108.904
20
168.898
0
VERTEX
8
CONTOURS_MAJEURES
10
110.004
20
168.589
0
VERTEX
8
CONTOURS_MAJEURES
10
112.854
20
167.150
0
VERTEX
8
CONTOURS_MAJEURES
10
115.005
20
165.953
0
VERTEX
8
CONTOURS_MAJEURES
10
115.613
20
165.610
0
VERTEX
8
CONTOURS_MAJEURES
10
116.215
20
165.001
0
VERTEX
8
CONTOURS_MAJEURES
10
119.995
20
161.569
0
VERTEX
8
CONTOURS_MAJEURES
10
120.945
20
160.954
0
VERTEX
8
CONTOURS_MAJEURES
10
123.847
20
160.004
0
VERTEX
8
CONTOURS_MAJEURES
10
124.995
20
159.806
0
VERTEX
8
CONTOURS_MAJEURES
10
128.986
20
158.993
0
VERTEX
8
CONTOURS_MAJEURES
10
129.996
20
158.570
0
VERTEX
8
CONTOURS_MAJEURES
10
132.506
20
157.510
0
VERTEX
8
CONTOURS_MAJEURES
10
134.997
20
156.591
0
VERTEX
8
CONTOURS_MAJEURES
10
138.206
20
154.997
0
VERTEX
8
CONTOURS_MAJEURES
10
139.077
20
154.077
0
VERTEX
8
CONTOURS_MAJEURES
10
139.997
20
152.851
0
VERTEX
8
CONTOURS_MAJEURES
10
141.371
20
150.001
0
VERTEX
8
CONTOURS_MAJEURES
10
142.680
20
147.685
0
VERTEX
8
CONTOURS_MAJEURES
10
143.928
20
145.004
0
VERTEX
8
CONTOURS_MAJEURES
10
144.371
20
144.376
0
VERTEX
8
CONTOURS_MAJEURES
10
144.998
20
143.123
0
VERTEX
8
CONTOURS_MAJEURES
10
147.604
20
139.997
0
VERTEX
8
CONTOURS_MAJEURES
10
148.714
20
138.714
0
VERTEX
8
CONTOURS_MAJEURES
10
149.999
20
137.243
0
SEQEND
0
POLYLINE
8
CONTOURS_MAJEURES
66
1
70
0
0
VERTEX
8
CONTOURS_MAJEURES
10
149.999
20
177.919
0
VERTEX
8
CONTOURS_MAJEURES
10
147.890
20
175.005
0
VERTEX
8
CONTOURS_MAJEURES
10
148.010
20
173.013
0
VERTEX
8
CONTOURS_MAJEURES
10
148.230
20
169.997
0
VERTEX
8
CONTOURS_MAJEURES
10
149.045
20
169.044
0
VERTEX
8
CONTOURS_MAJEURES
10
149.999
20
167.897
0
SEQEND
0
POLYLINE
8
PARCELLE
66
1
70
1
0
VERTEX
8
PARCELLE
10
20.581
20
22.321
0
VERTEX
8
PARCELLE
10
22.739
20
27.565
0
VERTEX
8
PARCELLE
10
32.021
20
53.232
0
VERTEX
8
PARCELLE
10
32.995
20
55.939
0
VERTEX
8
PARCELLE
10
37.263
20
67.856
0
VERTEX
8
PARCELLE
10
37.878
20
69.589
0
VERTEX
8
PARCELLE
10
49.139
20
100.521
0
VERTEX
8
PARCELLE
10
69.018
20
156.753
0
VERTEX
8
PARCELLE
10
73.888
20
169.984
0
VERTEX
8
PARCELLE
10
101.242
20
142.284
0
VERTEX
8
PARCELLE
10
103.055
20
140.439
0
VERTEX
8
PARCELLE
10
121.338
20
121.952
0
VERTEX
8
PARCELLE
10
134.750
20
90.205
0
VERTEX
8
PARCELLE
10
123.873
20
83.593
0
VERTEX
8
PARCELLE
10
109.304
20
74.337
0
VERTEX
8
PARCELLE
10
82.854
20
57.938
0
VERTEX
8
PARCELLE
10
76.644
20
54.460
0
VERTEX
8
PARCELLE
10
74.043
20
53.025
0
VERTEX
8
PARCELLE
10
70.534
20
51.938
0
VERTEX
8
PARCELLE
10
63.103
20
49.300
0
VERTEX
8
PARCELLE
10
57.197
20
47.297
0
VERTEX
8
PARCELLE
10
54.916
20
46.169
0
VERTEX
8
PARCELLE
10
45.618
20
40.471
0
VERTEX
8
PARCELLE
10
36.502
20
34.002
0
VERTEX
8
PARCELLE
10
24.351
20
23.606
0
VERTEX
8
PARCELLE
10
20.000
20
20.000
0
VERTEX
8
PARCELLE
10
20.581
20
22.321
0
SEQEND
0
TEXT
8
POINTS_COTES
10
0.001
20
-0.002
40
1.0
1
58.3
0
TEXT
8
POINTS_COTES
10
134.997
20
5.005
40
1.0
1
108.0
0
TEXT
8
POINTS_COTES
10
115.005
20
14.998
40
1.0
1
99.9
0
TEXT
8
POINTS_COTES
10
95.002
20
25.002
40
1.0
1
91.7
0
TEXT
8
POINTS_COTES
10
75.000
20
34.995
40
1.0
1
80.8
0
TEXT
8
POINTS_COTES
10
54.997
20
44.999
40
1.0
1
72.7
0
TEXT
8
POINTS_COTES
10
35.005
20
55.002
40
1.0
1
71.9
0
TEXT
8
POINTS_COTES
10
15.003
20
64.995
40
1.0
1
73.4
0
TEXT
8
POINTS_COTES
10
149.999
20
70.003
40
1.0
1
113.5
0
TEXT
8
POINTS_COTES
10
129.996
20
79.996
40
1.0
1
108.2
0
TEXT
8
POINTS_COTES
10
110.004
20
89.999
40
1.0
1
101.2
0
TEXT
8
POINTS_COTES
10
90.002
20
100.003
40
1.0
1
97.9
0
TEXT
8
POINTS_COTES
10
69.999
20
109.996
40
1.0
1
95.0
0
TEXT
8
POINTS_COTES
10
49.996
20
120.000
40
1.0
1
96.3
0
TEXT
8
POINTS_COTES
10
30.005
20
130.004
40
1.0
1
98.9
0
TEXT
8
POINTS_COTES
10
10.002
20
139.997
40
1.0
1
101.6
0
TEXT
8
POINTS_COTES
10
144.998
20
145.004
40
1.0
1
130.7
0
TEXT
8
POINTS_COTES
10
124.995
20
154.997
40
1.0
1
125.9
0
TEXT
8
POINTS_COTES
10
105.004
20
165.001
40
1.0
1
128.1
0
TEXT
8
POINTS_COTES
10
85.001
20
175.005
40
1.0
1
126.4
0
TEXT
8
POINTS_COTES
10
64.998
20
184.998
40
1.0
1
116.7
0
ENDSEC
0
EOF
