0
SECTION
2
HEADER
0
ENDSEC
0
SECTION
2
TABLES
0
TABLE
2
LAYER
70
4
0
LAYER
2
CONTOURS_MINEURES
70
0
62
8
6
CONTINUOUS
0
LAYER
2
CONTOURS_MAJEURES
70
0
62
3
6
CONTINUOUS
0
LAYER
2
PARCELLE
70
0
62
4
6
CONTINUOUS
0
LAYER
2
POINTS_COTES
70
0
62
7
6
CONTINUOUS
0
ENDTAB
0
ENDSEC
0
SECTION
2
ENTITIES
0
POLYLINE
8
CONTOURS_MINEURES
66
1
70
0
0
VERTEX
8
CONTOURS_MINEURES
10
18.027
20
81.004
0
VERTEX
8
CONTOURS_MINEURES
10
18.027
20
80.976
0
VERTEX
8
CONTOURS_MINEURES
10
18.027
20
77.997
0
VERTEX
8
CONTOURS_MINEURES
10
18.106
20
75.108
0
VERTEX
8
CONTOURS_MINEURES
10
18.099
20
75.001
0
VERTEX
8
CONTOURS_MINEURES
10
18.110
20
74.890
0
VERTEX
8
CONTOURS_MINEURES
10
18.154
20
71.995
0
VERTEX
8
CONTOURS_MINEURES
10
18.154
20
69.153
0
VERTEX
8
CONTOURS_MINEURES
10
18.154
20
68.999
0
VERTEX
8
CONTOURS_MINEURES
10
18.171
20
66.175
0
VERTEX
8
CONTOURS_MINEURES
10
18.292
20
66.003
0
VERTEX
8
CONTOURS_MINEURES
10
18.292
20
65.710
0
VERTEX
8
CONTOURS_MINEURES
10
18.292
20
62.997
0
VERTEX
8
CONTOURS_MINEURES
10
17.999
20
61.272
0
VERTEX
8
CONTOURS_MINEURES
10
16.726
20
61.272
0
VERTEX
8
CONTOURS_MINEURES
10
14.997
20
61.272
0
VERTEX
8
CONTOURS_MINEURES
10
14.249
20
60.750
0
VERTEX
8
CONTOURS_MINEURES
10
13.865
20
60.001
0
VERTEX
8
CONTOURS_MINEURES
10
12.005
20
57.625
0
VERTEX
8
CONTOURS_MINEURES
10
11.163
20
59.161
0
VERTEX
8
CONTOURS_MINEURES
10
10.596
20
60.001
0
VERTEX
8
CONTOURS_MINEURES
10
10.151
20
61.146
0
VERTEX
8
CONTOURS_MINEURES
10
9.003
20
62.226
0
VERTEX
8
CONTOURS_MINEURES
10
6.772
20
62.226
0
VERTEX
8
CONTOURS_MINEURES
10
6.000
20
62.226
0
VERTEX
8
CONTOURS_MINEURES
10
5.341
20
62.997
0
VERTEX
8
CONTOURS_MINEURES
10
5.341
20
63.657
0
VERTEX
8
CONTOURS_MINEURES
10
5.341
20
66.003
0
VERTEX
8
CONTOURS_MINEURES
10
4.573
20
67.575
0
VERTEX
8
CONTOURS_MINEURES
10
3.279
20
68.999
0
VERTEX
8
CONTOURS_MINEURES
10
3.279
20
71.714
0
VERTEX
8
CONTOURS_MINEURES
10
3.279
20
71.995
0
VERTEX
8
CONTOURS_MINEURES
10
2.998
20
72.689
0
VERTEX
8
CONTOURS_MINEURES
10
2.372
20
74.375
0
VERTEX
8
CONTOURS_MINEURES
10
1.997
20
75.001
0
VERTEX
8
CONTOURS_MINEURES
10
1.797
20
76.200
0
VERTEX
8
CONTOURS_MINEURES
10
1.403
20
77.997
0
VERTEX
8
CONTOURS_MINEURES
10
1.403
20
79.406
0
VERTEX
8
CONTOURS_MINEURES
10
1.403
20
81.004
0
SEQEND
0
POLYLINE
8
CONTOURS_MINEURES
66
1
70
0
0
VERTEX
8
CONTOURS_MINEURES
10
18.939
20
81.004
0
VERTEX
8
CONTOURS_MINEURES
10
18.939
20
80.062
0
VERTEX
8
CONTOURS_MINEURES
10
18.939
20
77.997
0
VERTEX
8
CONTOURS_MINEURES
10
18.994
20
75.994
0
VERTEX
8
CONTOURS_MINEURES
10
18.926
20
75.001
0
VERTEX
8
CONTOURS_MINEURES
10
19.034
20
73.965
0
VERTEX
8
CONTOURS_MINEURES
10
19.064
20
71.995
0
VERTEX
8
CONTOURS_MINEURES
10
19.064
20
70.061
0
VERTEX
8
CONTOURS_MINEURES
10
19.064
20
68.999
0
VERTEX
8
CONTOURS_MINEURES
10
19.076
20
67.077
0
VERTEX
8
CONTOURS_MINEURES
10
19.832
20
66.003
0
VERTEX
8
CONTOURS_MINEURES
10
19.832
20
64.169
0
VERTEX
8
CONTOURS_MINEURES
10
19.832
20
62.997
0
VERTEX
8
CONTOURS_MINEURES
10
19.593
20
61.591
0
VERTEX
8
CONTOURS_MINEURES
10
19.793
20
60.001
0
VERTEX
8
CONTOURS_MINEURES
10
19.223
20
58.780
0
VERTEX
8
CONTOURS_MINEURES
10
18.159
20
57.005
0
VERTEX
8
CONTOURS_MINEURES
10
18.159
20
56.846
0
VERTEX
8
CONTOURS_MINEURES
10
18.159
20
53.999
0
VERTEX
8
CONTOURS_MINEURES
10
17.999
20
53.363
0
VERTEX
8
CONTOURS_MINEURES
10
17.363
20
53.363
0
VERTEX
8
CONTOURS_MINEURES
10
14.997
20
53.363
0
VERTEX
8
CONTOURS_MINEURES
10
14.211
20
51.003
0
VERTEX
8
CONTOURS_MINEURES
10
14.126
20
48.872
0
VERTEX
8
CONTOURS_MINEURES
10
13.889
20
47.996
0
VERTEX
8
CONTOURS_MINEURES
10
13.889
20
46.887
0
VERTEX
8
CONTOURS_MINEURES
10
13.889
20
45.001
0
VERTEX
8
CONTOURS_MINEURES
10
13.487
20
43.518
0
VERTEX
8
CONTOURS_MINEURES
10
12.836
20
42.005
0
VERTEX
8
CONTOURS_MINEURES
10
12.836
20
39.834
0
VERTEX
8
CONTOURS_MINEURES
10
12.836
20
38.999
0
VERTEX
8
CONTOURS_MINEURES
10
12.005
20
36.859
0
VERTEX
8
CONTOURS_MINEURES
10
9.781
20
38.999
0
VERTEX
8
CONTOURS_MINEURES
10
9.781
20
39.778
0
VERTEX
8
CONTOURS_MINEURES
10
9.781
20
42.005
0
VERTEX
8
CONTOURS_MINEURES
10
9.003
20
42.660
0
VERTEX
8
CONTOURS_MINEURES
10
8.346
20
42.660
0
VERTEX
8
CONTOURS_MINEURES
10
6.000
20
42.660
0
VERTEX
8
CONTOURS_MINEURES
10
5.147
20
44.150
0
VERTEX
8
CONTOURS_MINEURES
10
5.127
20
45.001
0
VERTEX
8
CONTOURS_MINEURES
10
5.127
20
45.872
0
VERTEX
8
CONTOURS_MINEURES
10
5.127
20
47.996
0
VERTEX
8
CONTOURS_MINEURES
10
4.986
20
49.012
0
VERTEX
8
CONTOURS_MINEURES
10
4.884
20
51.003
0
VERTEX
8
CONTOURS_MINEURES
10
4.632
20
52.634
0
VERTEX
8
CONTOURS_MINEURES
10
3.914
20
53.999
0
VERTEX
8
CONTOURS_MINEURES
10
3.914
20
56.088
0
VERTEX
8
CONTOURS_MINEURES
10
3.914
20
57.005
0
VERTEX
8
CONTOURS_MINEURES
10
3.585
20
57.592
0
VERTEX
8
CONTOURS_MINEURES
10
2.998
20
58.321
0
VERTEX
8
CONTOURS_MINEURES
10
1.588
20
60.001
0
VERTEX
8
CONTOURS_MINEURES
10
0.826
20
60.830
0
VERTEX
8
CONTOURS_MINEURES
10
-0.005
20
61.624
0
SEQEND
0
POLYLINE
8
CONTOURS_MINEURES
66
1
70
0
0
VERTEX
8
CONTOURS_MINEURES
10
19.852
20
81.004
0
VERTEX
8
CONTOURS_MINEURES
10
19.852
20
79.149
0
VERTEX
8
CONTOURS_MINEURES
10
19.852
20
77.997
0
VERTEX
8
CONTOURS_MINEURES
10
19.883
20
76.880
0
VERTEX
8
CONTOURS_MINEURES
10
19.753
20
75.001
0
VERTEX
8
CONTOURS_MINEURES
10
19.958
20
73.040
0
VERTEX
8
CONTOURS_MINEURES
10
19.974
20
71.995
0
VERTEX
8
CONTOURS_MINEURES
10
19.974
20
70.969
0
VERTEX
8
CONTOURS_MINEURES
10
19.974
20
68.999
0
VERTEX
8
CONTOURS_MINEURES
10
19.980
20
67.979
0
VERTEX
8
CONTOURS_MINEURES
10
21.002
20
66.528
0
VERTEX
8
CONTOURS_MINEURES
10
21.237
20
66.003
0
VERTEX
8
CONTOURS_MINEURES
10
21.237
20
63.233
0
VERTEX
8
CONTOURS_MINEURES
10
21.237
20
62.997
0
VERTEX
8
CONTOURS_MINEURES
10
21.391
20
60.389
0
VERTEX
8
CONTOURS_MINEURES
10
21.669
20
60.001
0
VERTEX
8
CONTOURS_MINEURES
10
21.662
20
59.342
0
VERTEX
8
CONTOURS_MINEURES
10
21.002
20
58.123
0
VERTEX
8
CONTOURS_MINEURES
10
20.646
20
57.360
0
VERTEX
8
CONTOURS_MINEURES
10
20.433
20
57.005
0
VERTEX
8
CONTOURS_MINEURES
10
20.433
20
54.568
0
VERTEX
8
CONTOURS_MINEURES
10
20.433
20
53.999
0
VERTEX
8
CONTOURS_MINEURES
10
20.244
20
53.242
0
VERTEX
8
CONTOURS_MINEURES
10
21.002
20
51.729
0
VERTEX
8
CONTOURS_MINEURES
10
21.340
20
51.003
0
VERTEX
8
CONTOURS_MINEURES
10
21.618
20
50.386
0
VERTEX
8
CONTOURS_MINEURES
10
22.594
20
47.996
0
VERTEX
8
CONTOURS_MINEURES
10
22.594
20
46.589
0
VERTEX
8
CONTOURS_MINEURES
10
22.594
20
45.001
0
VERTEX
8
CONTOURS_MINEURES
10
21.002
20
42.444
0
VERTEX
8
CONTOURS_MINEURES
10
20.668
20
42.005
0
VERTEX
8
CONTOURS_MINEURES
10
20.668
20
39.333
0
VERTEX
8
CONTOURS_MINEURES
10
20.668
20
38.999
0
VERTEX
8
CONTOURS_MINEURES
10
20.501
20
38.499
0
VERTEX
8
CONTOURS_MINEURES
10
19.200
20
36.003
0
VERTEX
8
CONTOURS_MINEURES
10
17.999
20
33.748
0
VERTEX
8
CONTOURS_MINEURES
10
15.748
20
33.748
0
VERTEX
8
CONTOURS_MINEURES
10
14.997
20
33.748
0
VERTEX
8
CONTOURS_MINEURES
10
14.704
20
33.291
0
VERTEX
8
CONTOURS_MINEURES
10
14.563
20
32.996
0
VERTEX
8
CONTOURS_MINEURES
10
14.563
20
30.435
0
VERTEX
8
CONTOURS_MINEURES
10
14.563
20
30.001
0
VERTEX
8
CONTOURS_MINEURES
10
13.595
20
28.408
0
VERTEX
8
CONTOURS_MINEURES
10
13.145
20
27.005
0
VERTEX
8
CONTOURS_MINEURES
10
12.742
20
24.739
0
VERTEX
8
CONTOURS_MINEURES
10
12.753
20
23.998
0
VERTEX
8
CONTOURS_MINEURES
10
12.753
20
21.752
0
VERTEX
8
CONTOURS_MINEURES
10
12.753
20
21.003
0
VERTEX
8
CONTOURS_MINEURES
10
12.570
20
20.435
0
VERTEX
8
CONTOURS_MINEURES
10
12.005
20
18.447
0
VERTEX
8
CONTOURS_MINEURES
10
11.255
20
17.996
0
VERTEX
8
CONTOURS_MINEURES
10
9.646
20
17.354
0
VERTEX
8
CONTOURS_MINEURES
10
9.753
20
15.000
0
VERTEX
8
CONTOURS_MINEURES
10
9.753
20
12.754
0
VERTEX
8
CONTOURS_MINEURES
10
9.753
20
12.005
0
VERTEX
8
CONTOURS_MINEURES
10
9.320
20
11.687
0
VERTEX
8
CONTOURS_MINEURES
10
9.003
20
11.060
0
VERTEX
8
CONTOURS_MINEURES
10
8.059
20
11.060
0
VERTEX
8
CONTOURS_MINEURES
10
6.000
20
11.060
0
VERTEX
8
CONTOURS_MINEURES
10
4.821
20
12.005
0
VERTEX
8
CONTOURS_MINEURES
10
4.821
20
13.823
0
VERTEX
8
CONTOURS_MINEURES
10
4.821
20
15.000
0
VERTEX
8
CONTOURS_MINEURES
10
5.500
20
15.500
0
VERTEX
8
CONTOURS_MINEURES
10
5.578
20
17.996
0
VERTEX
8
CONTOURS_MINEURES
10
5.619
20
20.621
0
VERTEX
8
CONTOURS_MINEURES
10
5.700
20
21.003
0
VERTEX
8
CONTOURS_MINEURES
10
5.700
20
23.699
0
VERTEX
8
CONTOURS_MINEURES
10
5.700
20
23.998
0
VERTEX
8
CONTOURS_MINEURES
10
4.956
20
25.044
0
VERTEX
8
CONTOURS_MINEURES
10
3.817
20
27.005
0
VERTEX
8
CONTOURS_MINEURES
10
3.590
20
27.596
0
VERTEX
8
CONTOURS_MINEURES
10
2.998
20
28.128
0
VERTEX
8
CONTOURS_MINEURES
10
2.407
20
29.411
0
VERTEX
8
CONTOURS_MINEURES
10
1.211
20
30.001
0
VERTEX
8
CONTOURS_MINEURES
10
1.211
20
31.213
0
VERTEX
8
CONTOURS_MINEURES
10
1.211
20
32.996
0
VERTEX
8
CONTOURS_MINEURES
10
-0.005
20
36.003
0
VERTEX
8
CONTOURS_MINEURES
10
0.608
20
38.387
0
VERTEX
8
CONTOURS_MINEURES
10
0.634
20
38.999
0
VERTEX
8
CONTOURS_MINEURES
10
0.634
20
39.638
0
VERTEX
8
CONTOURS_MINEURES
10
0.634
20
42.005
0
VERTEX
8
CONTOURS_MINEURES
10
1.049
20
43.950
0
VERTEX
8
CONTOURS_MINEURES
10
1.013
20
45.001
0
VERTEX
8
CONTOURS_MINEURES
10
1.013
20
46.016
0
VERTEX
8
CONTOURS_MINEURES
10
1.013
20
47.996
0
VERTEX
8
CONTOURS_MINEURES
10
0.841
20
48.843
0
VERTEX
8
CONTOURS_MINEURES
10
0.402
20
51.003
0
VERTEX
8
CONTOURS_MINEURES
10
0.262
20
51.269
0
VERTEX
8
CONTOURS_MINEURES
10
-0.005
20
51.618
0
SEQEND
0
POLYLINE
8
CONTOURS_MINEURES
66
1
70
0
0
VERTEX
8
CONTOURS_MINEURES
10
-0.005
20
16.476
0
VERTEX
8
CONTOURS_MINEURES
10
0.868
20
17.125
0
VERTEX
8
CONTOURS_MINEURES
10
1.287
20
17.996
0
VERTEX
8
CONTOURS_MINEURES
10
1.802
20
19.193
0
VERTEX
8
CONTOURS_MINEURES
10
2.122
20
21.003
0
VERTEX
8
CONTOURS_MINEURES
10
2.122
20
21.876
0
VERTEX
8
CONTOURS_MINEURES
10
2.122
20
23.998
0
VERTEX
8
CONTOURS_MINEURES
10
1.330
20
25.335
0
VERTEX
8
CONTOURS_MINEURES
10
0.064
20
27.005
0
VERTEX
8
CONTOURS_MINEURES
10
0.042
20
27.052
0
VERTEX
8
CONTOURS_MINEURES
10
-0.005
20
27.075
0
SEQEND
0
POLYLINE
8
CONTOURS_MINEURES
66
1
70
0
0
VERTEX
8
CONTOURS_MINEURES
10
1.420
20
-0.000
0
VERTEX
8
CONTOURS_MINEURES
10
0.482
20
2.510
0
VERTEX
8
CONTOURS_MINEURES
10
0.363
20
2.996
0
VERTEX
8
CONTOURS_MINEURES
10
-0.005
20
3.436
0
SEQEND
0
POLYLINE
8
CONTOURS_MINEURES
66
1
70
0
0
VERTEX
8
CONTOURS_MINEURES
10
20.765
20
81.004
0
VERTEX
8
CONTOURS_MINEURES
10
20.765
20
78.235
0
VERTEX
8
CONTOURS_MINEURES
10
20.765
20
77.997
0
VERTEX
8
CONTOURS_MINEURES
10
20.771
20
77.767
0
VERTEX
8
CONTOURS_MINEURES
10
20.580
20
75.001
0
VERTEX
8
CONTOURS_MINEURES
10
20.882
20
72.115
0
VERTEX
8
CONTOURS_MINEURES
10
20.884
20
71.995
0
VERTEX
8
CONTOURS_MINEURES
10
20.884
20
71.877
0
VERTEX
8
CONTOURS_MINEURES
10
20.884
20
68.999
0
VERTEX
8
CONTOURS_MINEURES
10
20.884
20
68.882
0
VERTEX
8
CONTOURS_MINEURES
10
21.002
20
68.715
0
VERTEX
8
CONTOURS_MINEURES
10
22.219
20
66.003
0
VERTEX
8
CONTOURS_MINEURES
10
22.219
20
64.215
0
VERTEX
8
CONTOURS_MINEURES
10
22.219
20
62.997
0
VERTEX
8
CONTOURS_MINEURES
10
22.318
20
61.314
0
VERTEX
8
CONTOURS_MINEURES
10
23.258
20
60.001
0
VERTEX
8
CONTOURS_MINEURES
10
23.234
20
57.774
0
VERTEX
8
CONTOURS_MINEURES
10
22.818
20
57.005
0
VERTEX
8
CONTOURS_MINEURES
10
22.818
20
55.817
0
VERTEX
8
CONTOURS_MINEURES
10
22.818
20
53.999
0
VERTEX
8
CONTOURS_MINEURES
10
24.004
20
52.292
0
VERTEX
8
CONTOURS_MINEURES
10
25.709
20
52.292
0
VERTEX
8
CONTOURS_MINEURES
10
26.996
20
52.292
0
VERTEX
8
CONTOURS_MINEURES
10
27.473
20
51.479
0
VERTEX
8
CONTOURS_MINEURES
10
27.554
20
51.003
0
VERTEX
8
CONTOURS_MINEURES
10
27.345
20
50.653
0
VERTEX
8
CONTOURS_MINEURES
10
27.588
20
47.996
0
VERTEX
8
CONTOURS_MINEURES
10
27.588
20
45.591
0
VERTEX
8
CONTOURS_MINEURES
10
27.588
20
45.001
0
VERTEX
8
CONTOURS_MINEURES
10
27.460
20
44.538
0
VERTEX
8
CONTOURS_MINEURES
10
27.081
20
42.005
0
VERTEX
8
CONTOURS_MINEURES
10
27.081
20
39.084
0
VERTEX
8
CONTOURS_MINEURES
10
27.081
20
38.999
0
VERTEX
8
CONTOURS_MINEURES
10
27.077
20
38.918
0
VERTEX
8
CONTOURS_MINEURES
10
26.996
20
38.449
0
VERTEX
8
CONTOURS_MINEURES
10
24.553
20
38.449
0
VERTEX
8
CONTOURS_MINEURES
10
24.004
20
38.449
0
VERTEX
8
CONTOURS_MINEURES
10
22.976
20
37.029
0
VERTEX
8
CONTOURS_MINEURES
10
22.590
20
36.003
0
VERTEX
8
CONTOURS_MINEURES
10
21.885
20
35.119
0
VERTEX
8
CONTOURS_MINEURES
10
21.002
20
33.419
0
VERTEX
8
CONTOURS_MINEURES
10
20.729
20
32.996
0
VERTEX
8
CONTOURS_MINEURES
10
20.729
20
30.273
0
VERTEX
8
CONTOURS_MINEURES
10
20.729
20
30.001
0
VERTEX
8
CONTOURS_MINEURES
10
20.528
20
29.528
0
VERTEX
8
CONTOURS_MINEURES
10
19.117
20
27.005
0
VERTEX
8
CONTOURS_MINEURES
10
19.131
20
25.132
0
VERTEX
8
CONTOURS_MINEURES
10
19.456
20
23.998
0
VERTEX
8
CONTOURS_MINEURES
10
19.456
20
22.456
0
VERTEX
8
CONTOURS_MINEURES
10
19.456
20
21.003
0
VERTEX
8
CONTOURS_MINEURES
10
19.456
20
19.544
0
VERTEX
8
CONTOURS_MINEURES
10
19.026
20
17.996
0
VERTEX
8
CONTOURS_MINEURES
10
18.583
20
17.414
0
VERTEX
8
CONTOURS_MINEURES
10
17.999
20
16.115
0
VERTEX
8
CONTOURS_MINEURES
10
16.114
20
16.115
0
VERTEX
8
CONTOURS_MINEURES
10
14.997
20
16.115
0
VERTEX
8
CONTOURS_MINEURES
10
14.573
20
15.424
0
VERTEX
8
CONTOURS_MINEURES
10
14.420
20
15.000
0
VERTEX
8
CONTOURS_MINEURES
10
14.420
20
12.582
0
VERTEX
8
CONTOURS_MINEURES
10
14.420
20
12.005
0
VERTEX
8
CONTOURS_MINEURES
10
12.916
20
9.913
0
VERTEX
8
CONTOURS_MINEURES
10
12.267
20
8.998
0
VERTEX
8
CONTOURS_MINEURES
10
12.267
20
8.736
0
VERTEX
8
CONTOURS_MINEURES
10
12.267
20
6.002
0
VERTEX
8
CONTOURS_MINEURES
10
12.005
20
5.345
0
VERTEX
8
CONTOURS_MINEURES
10
11.262
20
3.740
0
VERTEX
8
CONTOURS_MINEURES
10
10.991
20
2.996
0
VERTEX
8
CONTOURS_MINEURES
10
10.733
20
1.726
0
VERTEX
8
CONTOURS_MINEURES
10
10.401
20
-0.000
0
SEQEND
0
POLYLINE
8
CONTOURS_MINEURES
66
1
70
0
0
VERTEX
8
CONTOURS_MINEURES
10
21.639
20
81.004
0
VERTEX
8
CONTOURS_MINEURES
10
21.639
20
78.635
0
VERTEX
8
CONTOURS_MINEURES
10
21.639
20
77.997
0
VERTEX
8
CONTOURS_MINEURES
10
21.456
20
75.454
0
VERTEX
8
CONTOURS_MINEURES
10
21.379
20
75.001
0
VERTEX
8
CONTOURS_MINEURES
10
21.612
20
72.606
0
VERTEX
8
CONTOURS_MINEURES
10
21.728
20
71.995
0
VERTEX
8
CONTOURS_MINEURES
10
21.728
20
71.271
0
VERTEX
8
CONTOURS_MINEURES
10
21.728
20
68.999
0
VERTEX
8
CONTOURS_MINEURES
10
22.548
20
67.457
0
VERTEX
8
CONTOURS_MINEURES
10
23.200
20
66.003
0
VERTEX
8
CONTOURS_MINEURES
10
23.200
20
65.198
0
VERTEX
8
CONTOURS_MINEURES
10
23.200
20
62.997
0
VERTEX
8
CONTOURS_MINEURES
10
23.245
20
62.239
0
VERTEX
8
CONTOURS_MINEURES
10
24.004
20
61.177
0
VERTEX
8
CONTOURS_MINEURES
10
25.822
20
61.177
0
VERTEX
8
CONTOURS_MINEURES
10
26.996
20
61.177
0
VERTEX
8
CONTOURS_MINEURES
10
27.411
20
60.415
0
VERTEX
8
CONTOURS_MINEURES
10
27.665
20
60.001
0
VERTEX
8
CONTOURS_MINEURES
10
28.064
20
58.936
0
VERTEX
8
CONTOURS_MINEURES
10
28.038
20
57.005
0
VERTEX
8
CONTOURS_MINEURES
10
28.038
20
55.042
0
VERTEX
8
CONTOURS_MINEURES
10
28.038
20
53.999
0
VERTEX
8
CONTOURS_MINEURES
10
28.762
20
52.765
0
VERTEX
8
CONTOURS_MINEURES
10
29.063
20
51.003
0
VERTEX
8
CONTOURS_MINEURES
10
28.290
20
49.708
0
VERTEX
8
CONTOURS_MINEURES
10
28.446
20
47.996
0
VERTEX
8
CONTOURS_MINEURES
10
28.446
20
46.447
0
VERTEX
8
CONTOURS_MINEURES
10
28.446
20
45.001
0
VERTEX
8
CONTOURS_MINEURES
10
28.131
20
43.868
0
VERTEX
8
CONTOURS_MINEURES
10
27.853
20
42.005
0
VERTEX
8
CONTOURS_MINEURES
10
27.853
20
39.856
0
VERTEX
8
CONTOURS_MINEURES
10
27.853
20
38.999
0
VERTEX
8
CONTOURS_MINEURES
10
27.813
20
38.184
0
VERTEX
8
CONTOURS_MINEURES
10
27.436
20
36.003
0
VERTEX
8
CONTOURS_MINEURES
10
26.996
20
34.155
0
VERTEX
8
CONTOURS_MINEURES
10
25.843
20
34.155
0
VERTEX
8
CONTOURS_MINEURES
10
24.004
20
34.155
0
VERTEX
8
CONTOURS_MINEURES
10
23.491
20
33.511
0
VERTEX
8
CONTOURS_MINEURES
10
23.223
20
32.996
0
VERTEX
8
CONTOURS_MINEURES
10
23.223
20
32.217
0
VERTEX
8
CONTOURS_MINEURES
10
23.223
20
30.001
0
VERTEX
8
CONTOURS_MINEURES
10
22.396
20
28.610
0
VERTEX
8
CONTOURS_MINEURES
10
21.462
20
27.005
0
VERTEX
8
CONTOURS_MINEURES
10
21.434
20
26.572
0
VERTEX
8
CONTOURS_MINEURES
10
21.897
20
23.998
0
VERTEX
8
CONTOURS_MINEURES
10
21.897
20
21.896
0
VERTEX
8
CONTOURS_MINEURES
10
21.897
20
21.003
0
VERTEX
8
CONTOURS_MINEURES
10
21.726
20
20.277
0
VERTEX
8
CONTOURS_MINEURES
10
21.726
20
17.996
0
VERTEX
8
CONTOURS_MINEURES
10
21.002
20
15.599
0
VERTEX
8
CONTOURS_MINEURES
10
20.743
20
15.259
0
VERTEX
8
CONTOURS_MINEURES
10
20.627
20
15.000
0
VERTEX
8
CONTOURS_MINEURES
10
20.627
20
12.379
0
VERTEX
8
CONTOURS_MINEURES
10
20.627
20
12.005
0
VERTEX
8
CONTOURS_MINEURES
10
20.078
20
11.080
0
VERTEX
8
CONTOURS_MINEURES
10
18.810
20
8.998
0
VERTEX
8
CONTOURS_MINEURES
10
18.810
20
8.189
0
VERTEX
8
CONTOURS_MINEURES
10
18.810
20
6.002
0
VERTEX
8
CONTOURS_MINEURES
10
17.999
20
4.238
0
VERTEX
8
CONTOURS_MINEURES
10
16.759
20
4.238
0
VERTEX
8
CONTOURS_MINEURES
10
14.997
20
4.238
0
VERTEX
8
CONTOURS_MINEURES
10
14.392
20
2.996
0
VERTEX
8
CONTOURS_MINEURES
10
14.163
20
0.835
0
VERTEX
8
CONTOURS_MINEURES
10
14.033
20
-0.000
0
SEQEND
0
POLYLINE
8
CONTOURS_MINEURES
66
1
70
0
0
VERTEX
8
CONTOURS_MINEURES
10
22.499
20
81.004
0
VERTEX
8
CONTOURS_MINEURES
10
22.499
20
79.496
0
VERTEX
8
CONTOURS_MINEURES
10
22.499
20
77.997
0
VERTEX
8
CONTOURS_MINEURES
10
22.383
20
76.379
0
VERTEX
8
CONTOURS_MINEURES
10
22.149
20
75.001
0
VERTEX
8
CONTOURS_MINEURES
10
22.314
20
73.308
0
VERTEX
8
CONTOURS_MINEURES
10
22.562
20
71.995
0
VERTEX
8
CONTOURS_MINEURES
10
22.562
20
70.439
0
VERTEX
8
CONTOURS_MINEURES
10
22.562
20
68.999
0
VERTEX
8
CONTOURS_MINEURES
10
24.004
20
66.286
0
VERTEX
8
CONTOURS_MINEURES
10
24.286
20
66.286
0
VERTEX
8
CONTOURS_MINEURES
10
26.996
20
66.286
0
VERTEX
8
CONTOURS_MINEURES
10
27.213
20
66.003
0
VERTEX
8
CONTOURS_MINEURES
10
27.213
20
63.214
0
VERTEX
8
CONTOURS_MINEURES
10
27.213
20
62.997
0
VERTEX
8
CONTOURS_MINEURES
10
28.192
20
61.195
0
VERTEX
8
CONTOURS_MINEURES
10
28.926
20
60.001
0
VERTEX
8
CONTOURS_MINEURES
10
29.999
20
57.140
0
VERTEX
8
CONTOURS_MINEURES
10
30.134
20
57.140
0
VERTEX
8
CONTOURS_MINEURES
10
33.001
20
57.140
0
VERTEX
8
CONTOURS_MINEURES
10
33.054
20
57.005
0
VERTEX
8
CONTOURS_MINEURES
10
33.054
20
56.953
0
VERTEX
8
CONTOURS_MINEURES
10
33.054
20
53.999
0
VERTEX
8
CONTOURS_MINEURES
10
33.437
20
51.438
0
VERTEX
8
CONTOURS_MINEURES
10
33.370
20
51.003
0
VERTEX
8
CONTOURS_MINEURES
10
33.001
20
50.043
0
VERTEX
8
CONTOURS_MINEURES
10
30.957
20
50.043
0
VERTEX
8
CONTOURS_MINEURES
10
29.999
20
50.043
0
VERTEX
8
CONTOURS_MINEURES
10
29.234
20
48.762
0
VERTEX
8
CONTOURS_MINEURES
10
29.304
20
47.996
0
VERTEX
8
CONTOURS_MINEURES
10
29.304
20
47.303
0
VERTEX
8
CONTOURS_MINEURES
10
29.304
20
45.001
0
VERTEX
8
CONTOURS_MINEURES
10
28.803
20
43.198
0
VERTEX
8
CONTOURS_MINEURES
10
28.625
20
42.005
0
VERTEX
8
CONTOURS_MINEURES
10
28.625
20
40.629
0
VERTEX
8
CONTOURS_MINEURES
10
28.625
20
38.999
0
VERTEX
8
CONTOURS_MINEURES
10
28.549
20
37.449
0
VERTEX
8
CONTOURS_MINEURES
10
28.299
20
36.003
0
VERTEX
8
CONTOURS_MINEURES
10
27.767
20
33.768
0
VERTEX
8
CONTOURS_MINEURES
10
27.761
20
32.996
0
VERTEX
8
CONTOURS_MINEURES
10
27.761
20
32.233
0
VERTEX
8
CONTOURS_MINEURES
10
27.761
20
30.001
0
VERTEX
8
CONTOURS_MINEURES
10
26.996
20
27.210
0
VERTEX
8
CONTOURS_MINEURES
10
24.209
20
27.210
0
VERTEX
8
CONTOURS_MINEURES
10
24.004
20
27.210
0
VERTEX
8
CONTOURS_MINEURES
10
23.928
20
27.081
0
VERTEX
8
CONTOURS_MINEURES
10
23.883
20
27.005
0
VERTEX
8
CONTOURS_MINEURES
10
23.709
20
24.294
0
VERTEX
8
CONTOURS_MINEURES
10
23.762
20
23.998
0
VERTEX
8
CONTOURS_MINEURES
10
23.762
20
23.756
0
VERTEX
8
CONTOURS_MINEURES
10
23.762
20
21.003
0
VERTEX
8
CONTOURS_MINEURES
10
23.235
20
18.766
0
VERTEX
8
CONTOURS_MINEURES
10
23.235
20
17.996
0
VERTEX
8
CONTOURS_MINEURES
10
22.903
20
16.897
0
VERTEX
8
CONTOURS_MINEURES
10
22.323
20
15.000
0
VERTEX
8
CONTOURS_MINEURES
10
22.323
20
13.323
0
VERTEX
8
CONTOURS_MINEURES
10
22.323
20
12.005
0
VERTEX
8
CONTOURS_MINEURES
10
22.076
20
10.929
0
VERTEX
8
CONTOURS_MINEURES
10
21.440
20
8.998
0
VERTEX
8
CONTOURS_MINEURES
10
21.440
20
6.440
0
VERTEX
8
CONTOURS_MINEURES
10
21.440
20
6.002
0
VERTEX
8
CONTOURS_MINEURES
10
21.326
20
5.678
0
VERTEX
8
CONTOURS_MINEURES
10
21.002
20
4.626
0
VERTEX
8
CONTOURS_MINEURES
10
20.152
20
2.996
0
VERTEX
8
CONTOURS_MINEURES
10
20.069
20
2.065
0
VERTEX
8
CONTOURS_MINEURES
10
19.357
20
-0.000
0
SEQEND
0
POLYLINE
8
CONTOURS_MINEURES
66
1
70
0
0
VERTEX
8
CONTOURS_MINEURES
10
96.000
20
74.153
0
VERTEX
8
CONTOURS_MINEURES
10
93.880
20
74.117
0
VERTEX
8
CONTOURS_MINEURES
10
92.997
20
72.809
0
VERTEX
8
CONTOURS_MINEURES
10
92.184
20
72.809
0
VERTEX
8
CONTOURS_MINEURES
10
89.995
20
72.809
0
VERTEX
8
CONTOURS_MINEURES
10
88.883
20
73.111
0
VERTEX
8
CONTOURS_MINEURES
10
87.003
20
73.841
0
VERTEX
8
CONTOURS_MINEURES
10
85.844
20
73.841
0
VERTEX
8
CONTOURS_MINEURES
10
84.000
20
73.841
0
VERTEX
8
CONTOURS_MINEURES
10
81.235
20
74.764
0
VERTEX
8
CONTOURS_MINEURES
10
80.998
20
74.940
0
VERTEX
8
CONTOURS_MINEURES
10
80.355
20
75.001
0
VERTEX
8
CONTOURS_MINEURES
10
77.995
20
75.447
0
VERTEX
8
CONTOURS_MINEURES
10
77.551
20
75.447
0
VERTEX
8
CONTOURS_MINEURES
10
75.004
20
75.447
0
VERTEX
8
CONTOURS_MINEURES
10
73.414
20
76.411
0
VERTEX
8
CONTOURS_MINEURES
10
72.001
20
76.312
0
VERTEX
8
CONTOURS_MINEURES
10
70.576
20
76.423
0
VERTEX
8
CONTOURS_MINEURES
10
68.999
20
76.871
0
VERTEX
8
CONTOURS_MINEURES
10
67.871
20
76.871
0
VERTEX
8
CONTOURS_MINEURES
10
65.996
20
76.871
0
VERTEX
8
CONTOURS_MINEURES
10
63.407
20
77.594
0
VERTEX
8
CONTOURS_MINEURES
10
63.005
20
77.749
0
VERTEX
8
CONTOURS_MINEURES
10
62.147
20
77.997
0
VERTEX
8
CONTOURS_MINEURES
10
62.147
20
80.145
0
VERTEX
8
CONTOURS_MINEURES
10
62.147
20
81.004
0
SEQEND
0
POLYLINE
8
CONTOURS_MINEURES
66
1
70
0
0
VERTEX
8
CONTOURS_MINEURES
10
23.359
20
81.004
0
VERTEX
8
CONTOURS_MINEURES
10
23.359
20
80.358
0
VERTEX
8
CONTOURS_MINEURES
10
23.359
20
77.997
0
VERTEX
8
CONTOURS_MINEURES
10
23.309
20
77.304
0
VERTEX
8
CONTOURS_MINEURES
10
22.919
20
75.001
0
VERTEX
8
CONTOURS_MINEURES
10
23.015
20
74.011
0
VERTEX
8
CONTOURS_MINEURES
10
23.396
20
71.995
0
VERTEX
8
CONTOURS_MINEURES
10
23.396
20
69.607
0
VERTEX
8
CONTOURS_MINEURES
10
23.396
20
68.999
0
VERTEX
8
CONTOURS_MINEURES
10
24.004
20
67.854
0
VERTEX
8
CONTOURS_MINEURES
10
25.853
20
67.854
0
VERTEX
8
CONTOURS_MINEURES
10
26.996
20
67.854
0
VERTEX
8
CONTOURS_MINEURES
10
28.419
20
66.003
0
VERTEX
8
CONTOURS_MINEURES
10
28.419
20
64.422
0
VERTEX
8
CONTOURS_MINEURES
10
28.419
20
62.997
0
VERTEX
8
CONTOURS_MINEURES
10
28.974
20
61.975
0
VERTEX
8
CONTOURS_MINEURES
10
29.999
20
60.309
0
VERTEX
8
CONTOURS_MINEURES
10
32.693
20
60.309
0
VERTEX
8
CONTOURS_MINEURES
10
33.001
20
60.309
0
VERTEX
8
CONTOURS_MINEURES
10
33.250
20
60.001
0
VERTEX
8
CONTOURS_MINEURES
10
33.325
20
59.678
0
VERTEX
8
CONTOURS_MINEURES
10
34.371
20
57.005
0
VERTEX
8
CONTOURS_MINEURES
10
34.371
20
55.634
0
VERTEX
8
CONTOURS_MINEURES
10
34.371
20
53.999
0
VERTEX
8
CONTOURS_MINEURES
10
34.583
20
52.581
0
VERTEX
8
CONTOURS_MINEURES
10
34.342
20
51.003
0
VERTEX
8
CONTOURS_MINEURES
10
33.301
20
48.297
0
VERTEX
8
CONTOURS_MINEURES
10
33.184
20
47.996
0
VERTEX
8
CONTOURS_MINEURES
10
33.184
20
47.814
0
VERTEX
8
CONTOURS_MINEURES
10
33.184
20
45.001
0
VERTEX
8
CONTOURS_MINEURES
10
33.147
20
44.855
0
VERTEX
8
CONTOURS_MINEURES
10
33.001
20
44.414
0
VERTEX
8
CONTOURS_MINEURES
10
32.413
20
44.414
0
VERTEX
8
CONTOURS_MINEURES
10
29.999
20
44.414
0
VERTEX
8
CONTOURS_MINEURES
10
29.475
20
42.528
0
VERTEX
8
CONTOURS_MINEURES
10
29.397
20
42.005
0
VERTEX
8
CONTOURS_MINEURES
10
29.397
20
41.402
0
VERTEX
8
CONTOURS_MINEURES
10
29.397
20
38.999
0
VERTEX
8
CONTOURS_MINEURES
10
29.285
20
36.715
0
VERTEX
8
CONTOURS_MINEURES
10
29.162
20
36.003
0
VERTEX
8
CONTOURS_MINEURES
10
28.900
20
34.902
0
VERTEX
8
CONTOURS_MINEURES
10
28.885
20
32.996
0
VERTEX
8
CONTOURS_MINEURES
10
28.885
20
31.111
0
VERTEX
8
CONTOURS_MINEURES
10
28.885
20
30.001
0
VERTEX
8
CONTOURS_MINEURES
10
28.466
20
28.472
0
VERTEX
8
CONTOURS_MINEURES
10
28.137
20
27.005
0
VERTEX
8
CONTOURS_MINEURES
10
27.938
20
26.062
0
VERTEX
8
CONTOURS_MINEURES
10
27.882
20
23.998
0
VERTEX
8
CONTOURS_MINEURES
10
27.882
20
23.115
0
VERTEX
8
CONTOURS_MINEURES
10
27.882
20
21.003
0
VERTEX
8
CONTOURS_MINEURES
10
27.569
20
18.569
0
VERTEX
8
CONTOURS_MINEURES
10
27.442
20
17.996
0
VERTEX
8
CONTOURS_MINEURES
10
27.369
20
17.624
0
VERTEX
8
CONTOURS_MINEURES
10
26.996
20
15.590
0
VERTEX
8
CONTOURS_MINEURES
10
26.408
20
15.590
0
VERTEX
8
CONTOURS_MINEURES
10
24.004
20
15.590
0
VERTEX
8
CONTOURS_MINEURES
10
23.824
20
15.000
0
VERTEX
8
CONTOURS_MINEURES
10
23.824
20
14.821
0
VERTEX
8
CONTOURS_MINEURES
10
23.824
20
12.005
0
VERTEX
8
CONTOURS_MINEURES
10
23.296
20
9.707
0
VERTEX
8
CONTOURS_MINEURES
10
23.063
20
8.998
0
VERTEX
8
CONTOURS_MINEURES
10
23.063
20
8.059
0
VERTEX
8
CONTOURS_MINEURES
10
23.063
20
6.002
0
VERTEX
8
CONTOURS_MINEURES
10
22.527
20
4.475
0
VERTEX
8
CONTOURS_MINEURES
10
22.071
20
2.996
0
VERTEX
8
CONTOURS_MINEURES
10
21.787
20
2.212
0
VERTEX
8
CONTOURS_MINEURES
10
21.206
20
-0.000
0
SEQEND
0
POLYLINE
8
CONTOURS_MINEURES
66
1
70
0
0
VERTEX
8
CONTOURS_MINEURES
10
96.000
20
68.606
0
VERTEX
8
CONTOURS_MINEURES
10
95.359
20
68.360
0
VERTEX
8
CONTOURS_MINEURES
10
92.997
20
67.214
0
VERTEX
8
CONTOURS_MINEURES
10
91.784
20
67.214
0
VERTEX
8
CONTOURS_MINEURES
10
89.995
20
67.214
0
VERTEX
8
CONTOURS_MINEURES
10
88.571
20
67.429
0
VERTEX
8
CONTOURS_MINEURES
10
87.003
20
67.701
0
VERTEX
8
CONTOURS_MINEURES
10
85.302
20
67.701
0
VERTEX
8
CONTOURS_MINEURES
10
84.000
20
67.701
0
VERTEX
8
CONTOURS_MINEURES
10
83.278
20
68.278
0
VERTEX
8
CONTOURS_MINEURES
10
82.210
20
68.999
0
VERTEX
8
CONTOURS_MINEURES
10
82.210
20
70.785
0
VERTEX
8
CONTOURS_MINEURES
10
82.210
20
71.995
0
VERTEX
8
CONTOURS_MINEURES
10
80.998
20
72.895
0
VERTEX
8
CONTOURS_MINEURES
10
80.005
20
72.989
0
VERTEX
8
CONTOURS_MINEURES
10
77.995
20
73.455
0
VERTEX
8
CONTOURS_MINEURES
10
76.456
20
73.455
0
VERTEX
8
CONTOURS_MINEURES
10
75.004
20
73.455
0
VERTEX
8
CONTOURS_MINEURES
10
73.772
20
73.768
0
VERTEX
8
CONTOURS_MINEURES
10
72.001
20
74.232
0
VERTEX
8
CONTOURS_MINEURES
10
69.190
20
75.001
0
VERTEX
8
CONTOURS_MINEURES
10
68.999
20
75.056
0
VERTEX
8
CONTOURS_MINEURES
10
66.051
20
75.056
0
VERTEX
8
CONTOURS_MINEURES
10
65.996
20
75.056
0
VERTEX
8
CONTOURS_MINEURES
10
65.921
20
75.077
0
VERTEX
8
CONTOURS_MINEURES
10
63.005
20
76.197
0
VERTEX
8
CONTOURS_MINEURES
10
61.317
20
76.685
0
VERTEX
8
CONTOURS_MINEURES
10
60.002
20
77.089
0
VERTEX
8
CONTOURS_MINEURES
10
59.092
20
77.089
0
VERTEX
8
CONTOURS_MINEURES
10
57.000
20
77.089
0
VERTEX
8
CONTOURS_MINEURES
10
54.181
20
77.814
0
VERTEX
8
CONTOURS_MINEURES
10
53.997
20
77.807
0
VERTEX
8
CONTOURS_MINEURES
10
53.814
20
77.814
0
VERTEX
8
CONTOURS_MINEURES
10
51.005
20
77.954
0
VERTEX
8
CONTOURS_MINEURES
10
50.962
20
77.954
0
VERTEX
8
CONTOURS_MINEURES
10
48.003
20
77.954
0
VERTEX
8
CONTOURS_MINEURES
10
47.772
20
77.997
0
VERTEX
8
CONTOURS_MINEURES
10
47.772
20
80.772
0
VERTEX
8
CONTOURS_MINEURES
10
47.772
20
81.004
0
SEQEND
0
POLYLINE
8
CONTOURS_MINEURES
66
1
70
0
0
VERTEX
8
CONTOURS_MINEURES
10
27.561
20
81.004
0
VERTEX
8
CONTOURS_MINEURES
10
27.561
20
78.562
0
VERTEX
8
CONTOURS_MINEURES
10
27.561
20
77.997
0
VERTEX
8
CONTOURS_MINEURES
10
27.411
20
77.583
0
VERTEX
8
CONTOURS_MINEURES
10
26.996
20
76.862
0
VERTEX
8
CONTOURS_MINEURES
10
25.863
20
76.862
0
VERTEX
8
CONTOURS_MINEURES
10
24.004
20
76.862
0
VERTEX
8
CONTOURS_MINEURES
10
23.689
20
75.001
0
VERTEX
8
CONTOURS_MINEURES
10
23.717
20
74.713
0
VERTEX
8
CONTOURS_MINEURES
10
24.004
20
73.189
0
VERTEX
8
CONTOURS_MINEURES
10
25.808
20
73.189
0
VERTEX
8
CONTOURS_MINEURES
10
26.996
20
73.189
0
VERTEX
8
CONTOURS_MINEURES
10
27.439
20
72.438
0
VERTEX
8
CONTOURS_MINEURES
10
27.482
20
71.995
0
VERTEX
8
CONTOURS_MINEURES
10
27.482
20
71.510
0
VERTEX
8
CONTOURS_MINEURES
10
27.482
20
68.999
0
VERTEX
8
CONTOURS_MINEURES
10
28.394
20
67.605
0
VERTEX
8
CONTOURS_MINEURES
10
29.625
20
66.003
0
VERTEX
8
CONTOURS_MINEURES
10
29.625
20
65.629
0
VERTEX
8
CONTOURS_MINEURES
10
29.625
20
62.997
0
VERTEX
8
CONTOURS_MINEURES
10
29.756
20
62.755
0
VERTEX
8
CONTOURS_MINEURES
10
29.999
20
62.361
0
VERTEX
8
CONTOURS_MINEURES
10
30.636
20
62.361
0
VERTEX
8
CONTOURS_MINEURES
10
33.001
20
62.361
0
VERTEX
8
CONTOURS_MINEURES
10
34.909
20
60.001
0
VERTEX
8
CONTOURS_MINEURES
10
35.485
20
57.523
0
VERTEX
8
CONTOURS_MINEURES
10
35.688
20
57.005
0
VERTEX
8
CONTOURS_MINEURES
10
35.688
20
54.315
0
VERTEX
8
CONTOURS_MINEURES
10
35.688
20
53.999
0
VERTEX
8
CONTOURS_MINEURES
10
35.729
20
53.724
0
VERTEX
8
CONTOURS_MINEURES
10
35.314
20
51.003
0
VERTEX
8
CONTOURS_MINEURES
10
34.882
20
49.880
0
VERTEX
8
CONTOURS_MINEURES
10
34.146
20
47.996
0
VERTEX
8
CONTOURS_MINEURES
10
34.146
20
46.854
0
VERTEX
8
CONTOURS_MINEURES
10
34.146
20
45.001
0
VERTEX
8
CONTOURS_MINEURES
10
33.915
20
44.089
0
VERTEX
8
CONTOURS_MINEURES
10
33.226
20
42.005
0
VERTEX
8
CONTOURS_MINEURES
10
33.226
20
39.224
0
VERTEX
8
CONTOURS_MINEURES
10
33.226
20
38.999
0
VERTEX
8
CONTOURS_MINEURES
10
33.034
20
36.036
0
VERTEX
8
CONTOURS_MINEURES
10
33.032
20
36.003
0
VERTEX
8
CONTOURS_MINEURES
10
33.031
20
35.973
0
VERTEX
8
CONTOURS_MINEURES
10
33.011
20
32.996
0
VERTEX
8
CONTOURS_MINEURES
10
33.011
20
32.986
0
VERTEX
8
CONTOURS_MINEURES
10
33.011
20
30.001
0
VERTEX
8
CONTOURS_MINEURES
10
33.001
20
29.947
0
VERTEX
8
CONTOURS_MINEURES
10
30.052
20
29.947
0
VERTEX
8
CONTOURS_MINEURES
10
29.999
20
29.947
0
VERTEX
8
CONTOURS_MINEURES
10
29.338
20
27.005
0
VERTEX
8
CONTOURS_MINEURES
10
28.928
20
25.070
0
VERTEX
8
CONTOURS_MINEURES
10
28.899
20
23.998
0
VERTEX
8
CONTOURS_MINEURES
10
28.899
20
22.099
0
VERTEX
8
CONTOURS_MINEURES
10
28.899
20
21.003
0
VERTEX
8
CONTOURS_MINEURES
10
28.737
20
19.739
0
VERTEX
8
CONTOURS_MINEURES
10
28.352
20
17.996
0
VERTEX
8
CONTOURS_MINEURES
10
28.129
20
16.866
0
VERTEX
8
CONTOURS_MINEURES
10
27.787
20
15.000
0
VERTEX
8
CONTOURS_MINEURES
10
27.787
20
12.794
0
VERTEX
8
CONTOURS_MINEURES
10
27.787
20
12.005
0
VERTEX
8
CONTOURS_MINEURES
10
27.434
20
9.436
0
VERTEX
8
CONTOURS_MINEURES
10
27.425
20
8.998
0
VERTEX
8
CONTOURS_MINEURES
10
27.425
20
8.570
0
VERTEX
8
CONTOURS_MINEURES
10
27.425
20
6.002
0
VERTEX
8
CONTOURS_MINEURES
10
26.996
20
4.060
0
VERTEX
8
CONTOURS_MINEURES
10
25.938
20
4.060
0
VERTEX
8
CONTOURS_MINEURES
10
24.004
20
4.060
0
VERTEX
8
CONTOURS_MINEURES
10
23.728
20
3.272
0
VERTEX
8
CONTOURS_MINEURES
10
23.643
20
2.996
0
VERTEX
8
CONTOURS_MINEURES
10
22.942
20
1.060
0
VERTEX
8
CONTOURS_MINEURES
10
22.663
20
-0.000
0
SEQEND
0
POLYLINE
8
CONTOURS_MINEURES
66
1
70
0
0
VERTEX
8
CONTOURS_MINEURES
10
96.000
20
34.262
0
VERTEX
8
CONTOURS_MINEURES
10
93.174
20
32.996
0
VERTEX
8
CONTOURS_MINEURES
10
93.174
20
32.820
0
VERTEX
8
CONTOURS_MINEURES
10
93.174
20
30.001
0
VERTEX
8
CONTOURS_MINEURES
10
92.997
20
29.958
0
VERTEX
8
CONTOURS_MINEURES
10
90.037
20
29.958
0
VERTEX
8
CONTOURS_MINEURES
10
89.995
20
29.958
0
VERTEX
8
CONTOURS_MINEURES
10
89.947
20
29.953
0
VERTEX
8
CONTOURS_MINEURES
10
89.958
20
30.001
0
VERTEX
8
CONTOURS_MINEURES
10
89.958
20
30.037
0
VERTEX
8
CONTOURS_MINEURES
10
89.958
20
32.996
0
VERTEX
8
CONTOURS_MINEURES
10
89.995
20
33.112
0
VERTEX
8
CONTOURS_MINEURES
10
92.882
20
33.112
0
VERTEX
8
CONTOURS_MINEURES
10
92.997
20
33.112
0
VERTEX
8
CONTOURS_MINEURES
10
94.594
20
36.003
0
VERTEX
8
CONTOURS_MINEURES
10
94.753
20
37.246
0
VERTEX
8
CONTOURS_MINEURES
10
95.021
20
38.999
0
VERTEX
8
CONTOURS_MINEURES
10
95.021
20
41.025
0
VERTEX
8
CONTOURS_MINEURES
10
95.021
20
42.005
0
VERTEX
8
CONTOURS_MINEURES
10
94.749
20
43.253
0
VERTEX
8
CONTOURS_MINEURES
10
94.656
20
45.001
0
VERTEX
8
CONTOURS_MINEURES
10
94.656
20
46.656
0
VERTEX
8
CONTOURS_MINEURES
10
94.656
20
47.996
0
VERTEX
8
CONTOURS_MINEURES
10
96.000
20
49.700
0
SEQEND
0
POLYLINE
8
CONTOURS_MINEURES
66
1
70
0
0
VERTEX
8
CONTOURS_MINEURES
10
96.000
20
66.151
0
VERTEX
8
CONTOURS_MINEURES
10
95.616
20
66.003
0
VERTEX
8
CONTOURS_MINEURES
10
95.616
20
65.620
0
VERTEX
8
CONTOURS_MINEURES
10
95.616
20
62.997
0
VERTEX
8
CONTOURS_MINEURES
10
93.937
20
62.059
0
VERTEX
8
CONTOURS_MINEURES
10
92.997
20
62.219
0
VERTEX
8
CONTOURS_MINEURES
10
92.218
20
62.219
0
VERTEX
8
CONTOURS_MINEURES
10
89.995
20
62.219
0
VERTEX
8
CONTOURS_MINEURES
10
87.343
20
62.656
0
VERTEX
8
CONTOURS_MINEURES
10
87.003
20
62.709
0
VERTEX
8
CONTOURS_MINEURES
10
84.289
20
62.709
0
VERTEX
8
CONTOURS_MINEURES
10
84.000
20
62.709
0
VERTEX
8
CONTOURS_MINEURES
10
83.760
20
62.756
0
VERTEX
8
CONTOURS_MINEURES
10
83.625
20
62.997
0
VERTEX
8
CONTOURS_MINEURES
10
83.625
20
63.373
0
VERTEX
8
CONTOURS_MINEURES
10
83.625
20
66.003
0
VERTEX
8
CONTOURS_MINEURES
10
82.166
20
67.168
0
VERTEX
8
CONTOURS_MINEURES
10
80.998
20
67.957
0
VERTEX
8
CONTOURS_MINEURES
10
80.104
20
68.107
0
VERTEX
8
CONTOURS_MINEURES
10
77.995
20
68.675
0
VERTEX
8
CONTOURS_MINEURES
10
77.672
20
68.675
0
VERTEX
8
CONTOURS_MINEURES
10
75.004
20
68.675
0
VERTEX
8
CONTOURS_MINEURES
10
74.681
20
68.677
0
VERTEX
8
CONTOURS_MINEURES
10
73.912
20
68.999
0
VERTEX
8
CONTOURS_MINEURES
10
73.912
20
70.088
0
VERTEX
8
CONTOURS_MINEURES
10
73.912
20
71.995
0
VERTEX
8
CONTOURS_MINEURES
10
72.389
20
72.383
0
VERTEX
8
CONTOURS_MINEURES
10
72.001
20
72.484
0
VERTEX
8
CONTOURS_MINEURES
10
71.329
20
72.668
0
VERTEX
8
CONTOURS_MINEURES
10
68.999
20
72.873
0
VERTEX
8
CONTOURS_MINEURES
10
68.122
20
72.873
0
VERTEX
8
CONTOURS_MINEURES
10
65.996
20
72.873
0
VERTEX
8
CONTOURS_MINEURES
10
64.171
20
73.167
0
VERTEX
8
CONTOURS_MINEURES
10
63.005
20
74.188
0
VERTEX
8
CONTOURS_MINEURES
10
62.365
20
74.361
0
VERTEX
8
CONTOURS_MINEURES
10
61.872
20
75.001
0
VERTEX
8
CONTOURS_MINEURES
10
60.002
20
75.576
0
VERTEX
8
CONTOURS_MINEURES
10
57.576
20
75.576
0
VERTEX
8
CONTOURS_MINEURES
10
57.000
20
75.576
0
VERTEX
8
CONTOURS_MINEURES
10
56.223
20
75.776
0
VERTEX
8
CONTOURS_MINEURES
10
53.997
20
75.698
0
VERTEX
8
CONTOURS_MINEURES
10
51.779
20
75.776
0
VERTEX
8
CONTOURS_MINEURES
10
51.005
20
75.814
0
VERTEX
8
CONTOURS_MINEURES
10
48.818
20
75.814
0
VERTEX
8
CONTOURS_MINEURES
10
48.003
20
75.814
0
VERTEX
8
CONTOURS_MINEURES
10
47.002
20
76.000
0
VERTEX
8
CONTOURS_MINEURES
10
45.000
20
76.583
0
VERTEX
8
CONTOURS_MINEURES
10
42.037
20
77.997
0
VERTEX
8
CONTOURS_MINEURES
10
42.037
20
78.036
0
VERTEX
8
CONTOURS_MINEURES
10
42.037
20
81.004
0
SEQEND
0
POLYLINE
8
CONTOURS_MINEURES
66
1
70
0
0
VERTEX
8
CONTOURS_MINEURES
10
29.818
20
81.004
0
VERTEX
8
CONTOURS_MINEURES
10
29.818
20
80.823
0
VERTEX
8
CONTOURS_MINEURES
10
29.818
20
77.997
0
VERTEX
8
CONTOURS_MINEURES
10
29.070
20
75.928
0
VERTEX
8
CONTOURS_MINEURES
10
28.537
20
75.001
0
VERTEX
8
CONTOURS_MINEURES
10
29.080
20
74.081
0
VERTEX
8
CONTOURS_MINEURES
10
29.279
20
71.995
0
VERTEX
8
CONTOURS_MINEURES
10
29.279
20
69.717
0
VERTEX
8
CONTOURS_MINEURES
10
29.279
20
68.999
0
VERTEX
8
CONTOURS_MINEURES
10
29.999
20
67.900
0
VERTEX
8
CONTOURS_MINEURES
10
31.899
20
67.900
0
VERTEX
8
CONTOURS_MINEURES
10
33.001
20
67.900
0
VERTEX
8
CONTOURS_MINEURES
10
34.346
20
67.346
0
VERTEX
8
CONTOURS_MINEURES
10
34.919
20
66.003
0
VERTEX
8
CONTOURS_MINEURES
10
34.919
20
64.918
0
VERTEX
8
CONTOURS_MINEURES
10
34.919
20
62.997
0
VERTEX
8
CONTOURS_MINEURES
10
36.004
20
61.396
0
VERTEX
8
CONTOURS_MINEURES
10
36.677
20
60.676
0
VERTEX
8
CONTOURS_MINEURES
10
36.677
20
60.001
0
VERTEX
8
CONTOURS_MINEURES
10
37.182
20
58.185
0
VERTEX
8
CONTOURS_MINEURES
10
37.107
20
57.005
0
VERTEX
8
CONTOURS_MINEURES
10
37.107
20
55.108
0
VERTEX
8
CONTOURS_MINEURES
10
37.107
20
53.999
0
VERTEX
8
CONTOURS_MINEURES
10
36.955
20
53.046
0
VERTEX
8
CONTOURS_MINEURES
10
36.455
20
51.003
0
VERTEX
8
CONTOURS_MINEURES
10
36.347
20
50.659
0
VERTEX
8
CONTOURS_MINEURES
10
36.004
20
50.288
0
VERTEX
8
CONTOURS_MINEURES
10
35.109
20
47.996
0
VERTEX
8
CONTOURS_MINEURES
10
35.109
20
45.894
0
VERTEX
8
CONTOURS_MINEURES
10
35.109
20
45.001
0
VERTEX
8
CONTOURS_MINEURES
10
34.683
20
43.323
0
VERTEX
8
CONTOURS_MINEURES
10
34.247
20
42.005
0
VERTEX
8
CONTOURS_MINEURES
10
34.247
20
40.246
0
VERTEX
8
CONTOURS_MINEURES
10
34.247
20
38.999
0
VERTEX
8
CONTOURS_MINEURES
10
34.126
20
37.125
0
VERTEX
8
CONTOURS_MINEURES
10
34.068
20
36.003
0
VERTEX
8
CONTOURS_MINEURES
10
34.035
20
34.967
0
VERTEX
8
CONTOURS_MINEURES
10
34.022
20
32.996
0
VERTEX
8
CONTOURS_MINEURES
10
34.022
20
31.977
0
VERTEX
8
CONTOURS_MINEURES
10
34.022
20
30.001
0
VERTEX
8
CONTOURS_MINEURES
10
33.562
20
27.564
0
VERTEX
8
CONTOURS_MINEURES
10
33.474
20
27.005
0
VERTEX
8
CONTOURS_MINEURES
10
33.001
20
24.452
0
VERTEX
8
CONTOURS_MINEURES
10
32.548
20
24.452
0
VERTEX
8
CONTOURS_MINEURES
10
29.999
20
24.452
0
VERTEX
8
CONTOURS_MINEURES
10
29.919
20
24.078
0
VERTEX
8
CONTOURS_MINEURES
10
29.917
20
23.998
0
VERTEX
8
CONTOURS_MINEURES
10
29.917
20
21.084
0
VERTEX
8
CONTOURS_MINEURES
10
29.917
20
21.003
0
VERTEX
8
CONTOURS_MINEURES
10
29.905
20
20.909
0
VERTEX
8
CONTOURS_MINEURES
10
29.262
20
17.996
0
VERTEX
8
CONTOURS_MINEURES
10
28.889
20
16.108
0
VERTEX
8
CONTOURS_MINEURES
10
28.686
20
15.000
0
VERTEX
8
CONTOURS_MINEURES
10
28.686
20
13.691
0
VERTEX
8
CONTOURS_MINEURES
10
28.686
20
12.005
0
VERTEX
8
CONTOURS_MINEURES
10
28.477
20
10.480
0
VERTEX
8
CONTOURS_MINEURES
10
28.446
20
8.998
0
VERTEX
8
CONTOURS_MINEURES
10
28.446
20
7.551
0
VERTEX
8
CONTOURS_MINEURES
10
28.446
20
6.002
0
VERTEX
8
CONTOURS_MINEURES
10
28.006
20
4.007
0
VERTEX
8
CONTOURS_MINEURES
10
27.988
20
2.996
0
VERTEX
8
CONTOURS_MINEURES
10
27.885
20
2.108
0
VERTEX
8
CONTOURS_MINEURES
10
27.122
20
-0.000
0
SEQEND
0
POLYLINE
8
CONTOURS_MINEURES
66
1
70
0
0
VERTEX
8
CONTOURS_MINEURES
10
96.000
20
27.649
0
VERTEX
8
CONTOURS_MINEURES
10
94.697
20
27.005
0
VERTEX
8
CONTOURS_MINEURES
10
92.997
20
26.259
0
VERTEX
8
CONTOURS_MINEURES
10
90.739
20
26.259
0
VERTEX
8
CONTOURS_MINEURES
10
89.995
20
26.259
0
VERTEX
8
CONTOURS_MINEURES
10
87.693
20
24.692
0
VERTEX
8
CONTOURS_MINEURES
10
87.003
20
24.574
0
VERTEX
8
CONTOURS_MINEURES
10
86.428
20
24.574
0
VERTEX
8
CONTOURS_MINEURES
10
84.000
20
24.574
0
VERTEX
8
CONTOURS_MINEURES
10
83.069
20
23.998
0
VERTEX
8
CONTOURS_MINEURES
10
83.069
20
23.069
0
VERTEX
8
CONTOURS_MINEURES
10
83.069
20
21.003
0
VERTEX
8
CONTOURS_MINEURES
10
81.404
20
20.596
0
VERTEX
8
CONTOURS_MINEURES
10
80.998
20
20.144
0
VERTEX
8
CONTOURS_MINEURES
10
80.218
20
20.222
0
VERTEX
8
CONTOURS_MINEURES
10
80.476
20
21.003
0
VERTEX
8
CONTOURS_MINEURES
10
80.476
20
21.524
0
VERTEX
8
CONTOURS_MINEURES
10
80.476
20
23.998
0
VERTEX
8
CONTOURS_MINEURES
10
80.998
20
24.953
0
VERTEX
8
CONTOURS_MINEURES
10
82.592
20
27.005
0
VERTEX
8
CONTOURS_MINEURES
10
83.080
20
29.083
0
VERTEX
8
CONTOURS_MINEURES
10
83.321
20
30.001
0
VERTEX
8
CONTOURS_MINEURES
10
83.321
20
30.678
0
VERTEX
8
CONTOURS_MINEURES
10
83.321
20
32.996
0
VERTEX
8
CONTOURS_MINEURES
10
83.671
20
35.673
0
VERTEX
8
CONTOURS_MINEURES
10
83.556
20
36.003
0
VERTEX
8
CONTOURS_MINEURES
10
83.774
20
36.229
0
VERTEX
8
CONTOURS_MINEURES
10
83.535
20
38.999
0
VERTEX
8
CONTOURS_MINEURES
10
83.535
20
41.539
0
VERTEX
8
CONTOURS_MINEURES
10
83.535
20
42.005
0
VERTEX
8
CONTOURS_MINEURES
10
83.699
20
42.306
0
VERTEX
8
CONTOURS_MINEURES
10
84.000
20
43.353
0
VERTEX
8
CONTOURS_MINEURES
10
85.352
20
43.353
0
VERTEX
8
CONTOURS_MINEURES
10
87.003
20
43.353
0
VERTEX
8
CONTOURS_MINEURES
10
87.726
20
44.277
0
VERTEX
8
CONTOURS_MINEURES
10
87.655
20
45.001
0
VERTEX
8
CONTOURS_MINEURES
10
87.655
20
45.653
0
VERTEX
8
CONTOURS_MINEURES
10
87.655
20
47.996
0
VERTEX
8
CONTOURS_MINEURES
10
88.346
20
49.346
0
VERTEX
8
CONTOURS_MINEURES
10
88.985
20
51.003
0
VERTEX
8
CONTOURS_MINEURES
10
89.995
20
52.287
0
VERTEX
8
CONTOURS_MINEURES
10
91.710
20
52.287
0
VERTEX
8
CONTOURS_MINEURES
10
92.997
20
52.287
0
VERTEX
8
CONTOURS_MINEURES
10
93.876
20
53.122
0
VERTEX
8
CONTOURS_MINEURES
10
96.000
20
53.999
0
SEQEND
0
POLYLINE
8
CONTOURS_MINEURES
66
1
70
0
0
VERTEX
8
CONTOURS_MINEURES
10
96.000
20
57.005
0
VERTEX
8
CONTOURS_MINEURES
10
94.888
20
60.001
0
VERTEX
8
CONTOURS_MINEURES
10
92.997
20
60.323
0
VERTEX
8
CONTOURS_MINEURES
10
90.318
20
60.323
0
VERTEX
8
CONTOURS_MINEURES
10
89.995
20
60.323
0
VERTEX
8
CONTOURS_MINEURES
10
89.609
20
60.387
0
VERTEX
8
CONTOURS_MINEURES
10
87.003
20
60.788
0
VERTEX
8
CONTOURS_MINEURES
10
86.214
20
60.788
0
VERTEX
8
CONTOURS_MINEURES
10
84.000
20
60.788
0
VERTEX
8
CONTOURS_MINEURES
10
82.154
20
61.155
0
VERTEX
8
CONTOURS_MINEURES
10
81.123
20
62.997
0
VERTEX
8
CONTOURS_MINEURES
10
81.123
20
65.878
0
VERTEX
8
CONTOURS_MINEURES
10
81.123
20
66.003
0
VERTEX
8
CONTOURS_MINEURES
10
81.054
20
66.059
0
VERTEX
8
CONTOURS_MINEURES
10
80.998
20
66.096
0
VERTEX
8
CONTOURS_MINEURES
10
78.507
20
66.513
0
VERTEX
8
CONTOURS_MINEURES
10
77.995
20
66.651
0
VERTEX
8
CONTOURS_MINEURES
10
75.651
20
66.651
0
VERTEX
8
CONTOURS_MINEURES
10
75.004
20
66.651
0
VERTEX
8
CONTOURS_MINEURES
10
72.666
20
66.667
0
VERTEX
8
CONTOURS_MINEURES
10
72.001
20
66.945
0
VERTEX
8
CONTOURS_MINEURES
10
70.936
20
67.066
0
VERTEX
8
CONTOURS_MINEURES
10
68.999
20
66.885
0
VERTEX
8
CONTOURS_MINEURES
10
68.116
20
66.885
0
VERTEX
8
CONTOURS_MINEURES
10
65.996
20
66.885
0
VERTEX
8
CONTOURS_MINEURES
10
63.909
20
66.909
0
VERTEX
8
CONTOURS_MINEURES
10
63.005
20
67.220
0
VERTEX
8
CONTOURS_MINEURES
10
61.101
20
67.903
0
VERTEX
8
CONTOURS_MINEURES
10
60.002
20
68.043
0
VERTEX
8
CONTOURS_MINEURES
10
59.044
20
68.043
0
VERTEX
8
CONTOURS_MINEURES
10
57.000
20
68.043
0
VERTEX
8
CONTOURS_MINEURES
10
54.598
20
68.400
0
VERTEX
8
CONTOURS_MINEURES
10
53.997
20
68.478
0
VERTEX
8
CONTOURS_MINEURES
10
53.605
20
68.606
0
VERTEX
8
CONTOURS_MINEURES
10
52.589
20
68.999
0
VERTEX
8
CONTOURS_MINEURES
10
52.589
20
70.409
0
VERTEX
8
CONTOURS_MINEURES
10
52.589
20
71.995
0
VERTEX
8
CONTOURS_MINEURES
10
51.360
20
72.351
0
VERTEX
8
CONTOURS_MINEURES
10
51.005
20
72.376
0
VERTEX
8
CONTOURS_MINEURES
10
50.625
20
72.376
0
VERTEX
8
CONTOURS_MINEURES
10
48.003
20
72.376
0
VERTEX
8
CONTOURS_MINEURES
10
45.887
20
72.883
0
VERTEX
8
CONTOURS_MINEURES
10
45.000
20
73.901
0
VERTEX
8
CONTOURS_MINEURES
10
42.398
20
74.600
0
VERTEX
8
CONTOURS_MINEURES
10
41.998
20
74.294
0
VERTEX
8
CONTOURS_MINEURES
10
39.702
20
74.294
0
VERTEX
8
CONTOURS_MINEURES
10
38.995
20
74.294
0
VERTEX
8
CONTOURS_MINEURES
10
37.606
20
71.995
0
VERTEX
8
CONTOURS_MINEURES
10
37.606
20
70.604
0
VERTEX
8
CONTOURS_MINEURES
10
37.606
20
68.999
0
VERTEX
8
CONTOURS_MINEURES
10
37.406
20
67.595
0
VERTEX
8
CONTOURS_MINEURES
10
38.343
20
66.003
0
VERTEX
8
CONTOURS_MINEURES
10
38.343
20
65.348
0
VERTEX
8
CONTOURS_MINEURES
10
38.343
20
62.997
0
VERTEX
8
CONTOURS_MINEURES
10
38.659
20
62.659
0
VERTEX
8
CONTOURS_MINEURES
10
38.659
20
60.001
0
VERTEX
8
CONTOURS_MINEURES
10
38.732
20
59.737
0
VERTEX
8
CONTOURS_MINEURES
10
38.560
20
57.005
0
VERTEX
8
CONTOURS_MINEURES
10
38.560
20
56.568
0
VERTEX
8
CONTOURS_MINEURES
10
38.560
20
53.999
0
VERTEX
8
CONTOURS_MINEURES
10
38.207
20
51.793
0
VERTEX
8
CONTOURS_MINEURES
10
38.014
20
51.003
0
VERTEX
8
CONTOURS_MINEURES
10
37.529
20
49.470
0
VERTEX
8
CONTOURS_MINEURES
10
36.163
20
47.996
0
VERTEX
8
CONTOURS_MINEURES
10
36.163
20
45.161
0
VERTEX
8
CONTOURS_MINEURES
10
36.163
20
45.001
0
VERTEX
8
CONTOURS_MINEURES
10
36.004
20
44.735
0
VERTEX
8
CONTOURS_MINEURES
10
35.451
20
42.557
0
VERTEX
8
CONTOURS_MINEURES
10
35.268
20
42.005
0
VERTEX
8
CONTOURS_MINEURES
10
35.268
20
41.269
0
VERTEX
8
CONTOURS_MINEURES
10
35.268
20
38.999
0
VERTEX
8
CONTOURS_MINEURES
10
35.218
20
38.214
0
VERTEX
8
CONTOURS_MINEURES
10
35.103
20
36.003
0
VERTEX
8
CONTOURS_MINEURES
10
35.040
20
33.962
0
VERTEX
8
CONTOURS_MINEURES
10
35.033
20
32.996
0
VERTEX
8
CONTOURS_MINEURES
10
35.033
20
30.969
0
VERTEX
8
CONTOURS_MINEURES
10
35.033
20
30.001
0
VERTEX
8
CONTOURS_MINEURES
10
34.808
20
28.807
0
VERTEX
8
CONTOURS_MINEURES
10
34.523
20
27.005
0
VERTEX
8
CONTOURS_MINEURES
10
34.187
20
25.185
0
VERTEX
8
CONTOURS_MINEURES
10
34.059
20
23.998
0
VERTEX
8
CONTOURS_MINEURES
10
34.059
20
22.059
0
VERTEX
8
CONTOURS_MINEURES
10
34.059
20
21.003
0
VERTEX
8
CONTOURS_MINEURES
10
33.937
20
20.065
0
VERTEX
8
CONTOURS_MINEURES
10
33.258
20
17.996
0
VERTEX
8
CONTOURS_MINEURES
10
33.001
20
17.120
0
VERTEX
8
CONTOURS_MINEURES
10
30.876
20
17.120
0
VERTEX
8
CONTOURS_MINEURES
10
29.999
20
17.120
0
VERTEX
8
CONTOURS_MINEURES
10
29.649
20
15.349
0
VERTEX
8
CONTOURS_MINEURES
10
29.585
20
15.000
0
VERTEX
8
CONTOURS_MINEURES
10
29.585
20
14.588
0
VERTEX
8
CONTOURS_MINEURES
10
29.585
20
12.005
0
VERTEX
8
CONTOURS_MINEURES
10
29.519
20
11.524
0
VERTEX
8
CONTOURS_MINEURES
10
29.468
20
8.998
0
VERTEX
8
CONTOURS_MINEURES
10
29.468
20
6.532
0
VERTEX
8
CONTOURS_MINEURES
10
29.468
20
6.002
0
VERTEX
8
CONTOURS_MINEURES
10
29.317
20
5.320
0
VERTEX
8
CONTOURS_MINEURES
10
29.277
20
2.996
0
VERTEX
8
CONTOURS_MINEURES
10
29.040
20
0.956
0
VERTEX
8
CONTOURS_MINEURES
10
28.694
20
-0.000
0
SEQEND
0
POLYLINE
8
CONTOURS_MINEURES
66
1
70
0
0
VERTEX
8
CONTOURS_MINEURES
10
96.000
20
25.277
0
VERTEX
8
CONTOURS_MINEURES
10
93.407
20
23.998
0
VERTEX
8
CONTOURS_MINEURES
10
93.407
20
23.590
0
VERTEX
8
CONTOURS_MINEURES
10
93.407
20
21.003
0
VERTEX
8
CONTOURS_MINEURES
10
93.155
20
20.844
0
VERTEX
8
CONTOURS_MINEURES
10
92.997
20
20.763
0
VERTEX
8
CONTOURS_MINEURES
10
92.758
20
20.763
0
VERTEX
8
CONTOURS_MINEURES
10
89.995
20
20.763
0
VERTEX
8
CONTOURS_MINEURES
10
88.399
20
19.599
0
VERTEX
8
CONTOURS_MINEURES
10
87.003
20
18.703
0
VERTEX
8
CONTOURS_MINEURES
10
86.297
20
18.703
0
VERTEX
8
CONTOURS_MINEURES
10
84.000
20
18.703
0
VERTEX
8
CONTOURS_MINEURES
10
83.432
20
18.565
0
VERTEX
8
CONTOURS_MINEURES
10
82.923
20
17.996
0
VERTEX
8
CONTOURS_MINEURES
10
81.603
20
17.392
0
VERTEX
8
CONTOURS_MINEURES
10
80.998
20
16.778
0
VERTEX
8
CONTOURS_MINEURES
10
79.108
20
16.885
0
VERTEX
8
CONTOURS_MINEURES
10
78.828
20
15.000
0
VERTEX
8
CONTOURS_MINEURES
10
78.828
20
12.835
0
VERTEX
8
CONTOURS_MINEURES
10
78.828
20
12.005
0
VERTEX
8
CONTOURS_MINEURES
10
78.337
20
11.662
0
VERTEX
8
CONTOURS_MINEURES
10
77.995
20
11.232
0
VERTEX
8
CONTOURS_MINEURES
10
77.227
20
11.232
0
VERTEX
8
CONTOURS_MINEURES
10
75.004
20
11.232
0
VERTEX
8
CONTOURS_MINEURES
10
73.445
20
10.559
0
VERTEX
8
CONTOURS_MINEURES
10
73.202
20
8.998
0
VERTEX
8
CONTOURS_MINEURES
10
73.202
20
7.800
0
VERTEX
8
CONTOURS_MINEURES
10
73.202
20
6.002
0
VERTEX
8
CONTOURS_MINEURES
10
72.038
20
3.032
0
VERTEX
8
CONTOURS_MINEURES
10
72.019
20
2.996
0
VERTEX
8
CONTOURS_MINEURES
10
72.014
20
2.983
0
VERTEX
8
CONTOURS_MINEURES
10
72.001
20
2.946
0
VERTEX
8
CONTOURS_MINEURES
10
71.955
20
2.950
0
VERTEX
8
CONTOURS_MINEURES
10
71.913
20
2.996
0
VERTEX
8
CONTOURS_MINEURES
10
71.948
20
3.049
0
VERTEX
8
CONTOURS_MINEURES
10
70.514
20
6.002
0
VERTEX
8
CONTOURS_MINEURES
10
70.514
20
7.486
0
VERTEX
8
CONTOURS_MINEURES
10
70.514
20
8.998
0
VERTEX
8
CONTOURS_MINEURES
10
70.269
20
10.270
0
VERTEX
8
CONTOURS_MINEURES
10
70.714
20
12.005
0
VERTEX
8
CONTOURS_MINEURES
10
70.714
20
13.288
0
VERTEX
8
CONTOURS_MINEURES
10
70.714
20
15.000
0
VERTEX
8
CONTOURS_MINEURES
10
72.001
20
17.553
0
VERTEX
8
CONTOURS_MINEURES
10
72.953
20
17.046
0
VERTEX
8
CONTOURS_MINEURES
10
72.698
20
17.996
0
VERTEX
8
CONTOURS_MINEURES
10
73.686
20
19.315
0
VERTEX
8
CONTOURS_MINEURES
10
74.754
20
21.003
0
VERTEX
8
CONTOURS_MINEURES
10
74.754
20
23.749
0
VERTEX
8
CONTOURS_MINEURES
10
74.754
20
23.998
0
VERTEX
8
CONTOURS_MINEURES
10
74.769
20
24.233
0
VERTEX
8
CONTOURS_MINEURES
10
75.004
20
24.750
0
VERTEX
8
CONTOURS_MINEURES
10
77.248
20
24.750
0
VERTEX
8
CONTOURS_MINEURES
10
77.995
20
24.750
0
VERTEX
8
CONTOURS_MINEURES
10
78.621
20
27.005
0
VERTEX
8
CONTOURS_MINEURES
10
78.896
20
27.904
0
VERTEX
8
CONTOURS_MINEURES
10
78.762
20
30.001
0
VERTEX
8
CONTOURS_MINEURES
10
78.762
20
32.231
0
VERTEX
8
CONTOURS_MINEURES
10
78.762
20
32.996
0
VERTEX
8
CONTOURS_MINEURES
10
78.809
20
35.189
0
VERTEX
8
CONTOURS_MINEURES
10
78.578
20
36.003
0
VERTEX
8
CONTOURS_MINEURES
10
80.598
20
38.599
0
VERTEX
8
CONTOURS_MINEURES
10
80.919
20
38.999
0
VERTEX
8
CONTOURS_MINEURES
10
80.919
20
41.926
0
VERTEX
8
CONTOURS_MINEURES
10
80.919
20
42.005
0
VERTEX
8
CONTOURS_MINEURES
10
80.937
20
42.066
0
VERTEX
8
CONTOURS_MINEURES
10
80.998
20
42.100
0
VERTEX
8
CONTOURS_MINEURES
10
82.021
20
43.980
0
VERTEX
8
CONTOURS_MINEURES
10
82.316
20
45.001
0
VERTEX
8
CONTOURS_MINEURES
10
82.316
20
46.682
0
VERTEX
8
CONTOURS_MINEURES
10
82.316
20
47.996
0
VERTEX
8
CONTOURS_MINEURES
10
82.694
20
49.695
0
VERTEX
8
CONTOURS_MINEURES
10
82.483
20
51.003
0
VERTEX
8
CONTOURS_MINEURES
10
81.894
20
53.105
0
VERTEX
8
CONTOURS_MINEURES
10
82.578
20
53.999
0
VERTEX
8
CONTOURS_MINEURES
10
82.578
20
55.581
0
VERTEX
8
CONTOURS_MINEURES
10
82.578
20
57.005
0
VERTEX
8
CONTOURS_MINEURES
10
80.998
20
58.254
0
VERTEX
8
CONTOURS_MINEURES
10
79.568
20
58.432
0
VERTEX
8
CONTOURS_MINEURES
10
77.995
20
58.903
0
VERTEX
8
CONTOURS_MINEURES
10
76.101
20
58.903
0
VERTEX
8
CONTOURS_MINEURES
10
75.004
20
58.903
0
VERTEX
8
CONTOURS_MINEURES
10
74.086
20
59.086
0
VERTEX
8
CONTOURS_MINEURES
10
72.001
20
58.855
0
VERTEX
8
CONTOURS_MINEURES
10
71.155
20
59.157
0
VERTEX
8
CONTOURS_MINEURES
10
68.999
20
59.372
0
VERTEX
8
CONTOURS_MINEURES
10
68.368
20
59.372
0
VERTEX
8
CONTOURS_MINEURES
10
65.996
20
59.372
0
VERTEX
8
CONTOURS_MINEURES
10
63.370
20
59.635
0
VERTEX
8
CONTOURS_MINEURES
10
63.005
20
59.627
0
VERTEX
8
CONTOURS_MINEURES
10
60.407
20
59.597
0
VERTEX
8
CONTOURS_MINEURES
10
60.002
20
59.381
0
VERTEX
8
CONTOURS_MINEURES
10
59.381
20
59.381
0
VERTEX
8
CONTOURS_MINEURES
10
57.000
20
59.381
0
VERTEX
8
CONTOURS_MINEURES
10
55.908
20
58.912
0
VERTEX
8
CONTOURS_MINEURES
10
53.997
20
58.856
0
VERTEX
8
CONTOURS_MINEURES
10
52.344
20
58.661
0
VERTEX
8
CONTOURS_MINEURES
10
51.005
20
57.576
0
VERTEX
8
CONTOURS_MINEURES
10
48.575
20
57.576
0
VERTEX
8
CONTOURS_MINEURES
10
48.003
20
57.576
0
VERTEX
8
CONTOURS_MINEURES
10
47.079
20
57.005
0
VERTEX
8
CONTOURS_MINEURES
10
47.079
20
54.924
0
VERTEX
8
CONTOURS_MINEURES
10
47.079
20
53.999
0
VERTEX
8
CONTOURS_MINEURES
10
45.423
20
53.578
0
VERTEX
8
CONTOURS_MINEURES
10
45.000
20
53.270
0
VERTEX
8
CONTOURS_MINEURES
10
43.707
20
51.003
0
VERTEX
8
CONTOURS_MINEURES
10
42.839
20
50.160
0
VERTEX
8
CONTOURS_MINEURES
10
41.998
20
49.179
0
VERTEX
8
CONTOURS_MINEURES
10
40.817
20
49.179
0
VERTEX
8
CONTOURS_MINEURES
10
38.995
20
49.179
0
VERTEX
8
CONTOURS_MINEURES
10
38.712
20
48.282
0
VERTEX
8
CONTOURS_MINEURES
10
38.447
20
47.996
0
VERTEX
8
CONTOURS_MINEURES
10
38.447
20
47.448
0
VERTEX
8
CONTOURS_MINEURES
10
38.447
20
45.001
0
VERTEX
8
CONTOURS_MINEURES
10
37.615
20
43.618
0
VERTEX
8
CONTOURS_MINEURES
10
36.752
20
42.005
0
VERTEX
8
CONTOURS_MINEURES
10
36.752
20
41.254
0
VERTEX
8
CONTOURS_MINEURES
10
36.752
20
38.999
0
VERTEX
8
CONTOURS_MINEURES
10
36.548
20
38.454
0
VERTEX
8
CONTOURS_MINEURES
10
36.283
20
36.003
0
VERTEX
8
CONTOURS_MINEURES
10
36.238
20
35.767
0
VERTEX
8
CONTOURS_MINEURES
10
36.080
20
32.996
0
VERTEX
8
CONTOURS_MINEURES
10
36.080
20
30.077
0
VERTEX
8
CONTOURS_MINEURES
10
36.080
20
30.001
0
VERTEX
8
CONTOURS_MINEURES
10
36.067
20
29.937
0
VERTEX
8
CONTOURS_MINEURES
10
36.004
20
29.734
0
VERTEX
8
CONTOURS_MINEURES
10
35.573
20
27.005
0
VERTEX
8
CONTOURS_MINEURES
10
35.475
20
26.476
0
VERTEX
8
CONTOURS_MINEURES
10
35.210
20
23.998
0
VERTEX
8
CONTOURS_MINEURES
10
35.210
20
23.206
0
VERTEX
8
CONTOURS_MINEURES
10
35.210
20
21.003
0
VERTEX
8
CONTOURS_MINEURES
10
34.955
20
19.046
0
VERTEX
8
CONTOURS_MINEURES
10
34.611
20
17.996
0
VERTEX
8
CONTOURS_MINEURES
10
34.034
20
16.031
0
VERTEX
8
CONTOURS_MINEURES
10
33.688
20
15.000
0
VERTEX
8
CONTOURS_MINEURES
10
33.688
20
14.315
0
VERTEX
8
CONTOURS_MINEURES
10
33.688
20
12.005
0
VERTEX
8
CONTOURS_MINEURES
10
33.628
20
9.625
0
VERTEX
8
CONTOURS_MINEURES
10
33.607
20
8.998
0
VERTEX
8
CONTOURS_MINEURES
10
33.607
20
6.606
0
VERTEX
8
CONTOURS_MINEURES
10
33.607
20
6.002
0
VERTEX
8
CONTOURS_MINEURES
10
33.566
20
3.561
0
VERTEX
8
CONTOURS_MINEURES
10
33.618
20
2.996
0
VERTEX
8
CONTOURS_MINEURES
10
33.594
20
2.405
0
VERTEX
8
CONTOURS_MINEURES
10
33.262
20
-0.000
0
SEQEND
0
POLYLINE
8
CONTOURS_MINEURES
66
1
70
0
0
VERTEX
8
CONTOURS_MINEURES
10
65.432
20
-0.000
0
VERTEX
8
CONTOURS_MINEURES
10
65.093
20
2.092
0
VERTEX
8
CONTOURS_MINEURES
10
64.994
20
2.996
0
VERTEX
8
CONTOURS_MINEURES
10
64.767
20
4.232
0
VERTEX
8
CONTOURS_MINEURES
10
65.041
20
6.002
0
VERTEX
8
CONTOURS_MINEURES
10
65.041
20
8.042
0
VERTEX
8
CONTOURS_MINEURES
10
65.041
20
8.998
0
VERTEX
8
CONTOURS_MINEURES
10
64.805
20
10.195
0
VERTEX
8
CONTOURS_MINEURES
10
65.996
20
12.005
0
VERTEX
8
CONTOURS_MINEURES
10
68.999
20
12.005
0
VERTEX
8
CONTOURS_MINEURES
10
68.999
20
15.000
0
VERTEX
8
CONTOURS_MINEURES
10
69.560
20
17.996
0
VERTEX
8
CONTOURS_MINEURES
10
69.923
20
18.921
0
VERTEX
8
CONTOURS_MINEURES
10
69.064
20
21.003
0
VERTEX
8
CONTOURS_MINEURES
10
69.064
20
23.933
0
VERTEX
8
CONTOURS_MINEURES
10
69.064
20
23.998
0
VERTEX
8
CONTOURS_MINEURES
10
69.070
20
24.070
0
VERTEX
8
CONTOURS_MINEURES
10
70.500
20
27.005
0
VERTEX
8
CONTOURS_MINEURES
10
71.321
20
29.322
0
VERTEX
8
CONTOURS_MINEURES
10
71.637
20
30.001
0
VERTEX
8
CONTOURS_MINEURES
10
71.637
20
30.364
0
VERTEX
8
CONTOURS_MINEURES
10
71.637
20
32.996
0
VERTEX
8
CONTOURS_MINEURES
10
72.001
20
35.402
0
VERTEX
8
CONTOURS_MINEURES
10
72.100
20
35.904
0
VERTEX
8
CONTOURS_MINEURES
10
72.101
20
36.003
0
VERTEX
8
CONTOURS_MINEURES
10
72.312
20
36.313
0
VERTEX
8
CONTOURS_MINEURES
10
73.100
20
38.999
0
VERTEX
8
CONTOURS_MINEURES
10
73.100
20
40.905
0
VERTEX
8
CONTOURS_MINEURES
10
73.100
20
42.005
0
VERTEX
8
CONTOURS_MINEURES
10
74.503
20
44.502
0
VERTEX
8
CONTOURS_MINEURES
10
74.670
20
45.001
0
VERTEX
8
CONTOURS_MINEURES
10
74.670
20
45.334
0
VERTEX
8
CONTOURS_MINEURES
10
74.670
20
47.996
0
VERTEX
8
CONTOURS_MINEURES
10
73.803
20
49.800
0
VERTEX
8
CONTOURS_MINEURES
10
73.156
20
51.003
0
VERTEX
8
CONTOURS_MINEURES
10
72.418
20
51.419
0
VERTEX
8
CONTOURS_MINEURES
10
72.001
20
51.502
0
VERTEX
8
CONTOURS_MINEURES
10
71.033
20
51.969
0
VERTEX
8
CONTOURS_MINEURES
10
68.999
20
52.855
0
VERTEX
8
CONTOURS_MINEURES
10
67.852
20
52.855
0
VERTEX
8
CONTOURS_MINEURES
10
65.996
20
52.855
0
VERTEX
8
CONTOURS_MINEURES
10
64.212
20
52.790
0
VERTEX
8
CONTOURS_MINEURES
10
63.005
20
52.723
0
VERTEX
8
CONTOURS_MINEURES
10
61.024
20
51.003
0
VERTEX
8
CONTOURS_MINEURES
10
60.588
20
50.416
0
VERTEX
8
CONTOURS_MINEURES
10
60.002
20
50.274
0
VERTEX
8
CONTOURS_MINEURES
10
57.727
20
50.274
0
VERTEX
8
CONTOURS_MINEURES
10
57.000
20
50.274
0
VERTEX
8
CONTOURS_MINEURES
10
55.233
20
49.765
0
VERTEX
8
CONTOURS_MINEURES
10
53.997
20
49.636
0
VERTEX
8
CONTOURS_MINEURES
10
52.335
20
49.333
0
VERTEX
8
CONTOURS_MINEURES
10
51.005
20
49.150
0
VERTEX
8
CONTOURS_MINEURES
10
49.854
20
49.150
0
VERTEX
8
CONTOURS_MINEURES
10
48.003
20
49.150
0
VERTEX
8
CONTOURS_MINEURES
10
47.162
20
48.838
0
VERTEX
8
CONTOURS_MINEURES
10
45.455
20
47.996
0
VERTEX
8
CONTOURS_MINEURES
10
45.455
20
45.455
0
VERTEX
8
CONTOURS_MINEURES
10
45.455
20
45.001
0
VERTEX
8
CONTOURS_MINEURES
10
45.149
20
44.853
0
VERTEX
8
CONTOURS_MINEURES
10
45.000
20
44.718
0
VERTEX
8
CONTOURS_MINEURES
10
42.748
20
42.005
0
VERTEX
8
CONTOURS_MINEURES
10
42.748
20
41.254
0
VERTEX
8
CONTOURS_MINEURES
10
42.748
20
38.999
0
VERTEX
8
CONTOURS_MINEURES
10
41.998
20
37.857
0
VERTEX
8
CONTOURS_MINEURES
10
40.854
20
37.857
0
VERTEX
8
CONTOURS_MINEURES
10
38.995
20
37.857
0
VERTEX
8
CONTOURS_MINEURES
10
38.490
20
36.509
0
VERTEX
8
CONTOURS_MINEURES
10
38.436
20
36.003
0
VERTEX
8
CONTOURS_MINEURES
10
38.040
20
33.956
0
VERTEX
8
CONTOURS_MINEURES
10
37.985
20
32.996
0
VERTEX
8
CONTOURS_MINEURES
10
37.985
20
31.985
0
VERTEX
8
CONTOURS_MINEURES
10
37.985
20
30.001
0
VERTEX
8
CONTOURS_MINEURES
10
37.650
20
28.352
0
VERTEX
8
CONTOURS_MINEURES
10
37.229
20
27.005
0
VERTEX
8
CONTOURS_MINEURES
10
36.803
20
24.802
0
VERTEX
8
CONTOURS_MINEURES
10
36.706
20
23.998
0
VERTEX
8
CONTOURS_MINEURES
10
36.706
20
21.706
0
VERTEX
8
CONTOURS_MINEURES
10
36.706
20
21.003
0
VERTEX
8
CONTOURS_MINEURES
10
36.594
20
20.409
0
VERTEX
8
CONTOURS_MINEURES
10
36.004
20
18.261
0
VERTEX
8
CONTOURS_MINEURES
10
35.973
20
18.026
0
VERTEX
8
CONTOURS_MINEURES
10
35.963
20
17.996
0
VERTEX
8
CONTOURS_MINEURES
10
35.946
20
17.939
0
VERTEX
8
CONTOURS_MINEURES
10
34.960
20
15.000
0
VERTEX
8
CONTOURS_MINEURES
10
34.960
20
13.045
0
VERTEX
8
CONTOURS_MINEURES
10
34.960
20
12.005
0
VERTEX
8
CONTOURS_MINEURES
10
34.933
20
10.933
0
VERTEX
8
CONTOURS_MINEURES
10
34.868
20
8.998
0
VERTEX
8
CONTOURS_MINEURES
10
34.868
20
7.865
0
VERTEX
8
CONTOURS_MINEURES
10
34.868
20
6.002
0
VERTEX
8
CONTOURS_MINEURES
10
34.849
20
4.846
0
VERTEX
8
CONTOURS_MINEURES
10
35.021
20
2.996
0
VERTEX
8
CONTOURS_MINEURES
10
34.940
20
1.061
0
VERTEX
8
CONTOURS_MINEURES
10
34.793
20
-0.000
0
SEQEND
0
POLYLINE
8
CONTOURS_MINEURES
66
1
70
0
0
VERTEX
8
CONTOURS_MINEURES
10
96.000
20
19.771
0
VERTEX
8
CONTOURS_MINEURES
10
94.911
20
19.086
0
VERTEX
8
CONTOURS_MINEURES
10
92.997
20
18.102
0
VERTEX
8
CONTOURS_MINEURES
10
90.101
20
18.102
0
VERTEX
8
CONTOURS_MINEURES
10
89.995
20
18.102
0
VERTEX
8
CONTOURS_MINEURES
10
89.933
20
18.058
0
VERTEX
8
CONTOURS_MINEURES
10
89.837
20
17.996
0
VERTEX
8
CONTOURS_MINEURES
10
87.003
20
16.727
0
VERTEX
8
CONTOURS_MINEURES
10
85.272
20
16.727
0
VERTEX
8
CONTOURS_MINEURES
10
84.000
20
16.727
0
VERTEX
8
CONTOURS_MINEURES
10
82.814
20
16.184
0
VERTEX
8
CONTOURS_MINEURES
10
81.647
20
15.000
0
VERTEX
8
CONTOURS_MINEURES
10
81.647
20
14.353
0
VERTEX
8
CONTOURS_MINEURES
10
81.647
20
12.005
0
VERTEX
8
CONTOURS_MINEURES
10
80.998
20
11.445
0
VERTEX
8
CONTOURS_MINEURES
10
79.558
20
10.440
0
VERTEX
8
CONTOURS_MINEURES
10
78.412
20
8.998
0
VERTEX
8
CONTOURS_MINEURES
10
78.412
20
6.418
0
VERTEX
8
CONTOURS_MINEURES
10
78.412
20
6.002
0
VERTEX
8
CONTOURS_MINEURES
10
77.995
20
5.381
0
VERTEX
8
CONTOURS_MINEURES
10
75.622
20
5.381
0
VERTEX
8
CONTOURS_MINEURES
10
75.004
20
5.381
0
VERTEX
8
CONTOURS_MINEURES
10
73.744
20
2.996
0
VERTEX
8
CONTOURS_MINEURES
10
73.260
20
1.740
0
VERTEX
8
CONTOURS_MINEURES
10
72.681
20
-0.000
0
SEQEND
0
POLYLINE
8
CONTOURS_MINEURES
66
1
70
0
0
VERTEX
8
CONTOURS_MINEURES
10
63.866
20
-0.000
0
VERTEX
8
CONTOURS_MINEURES
10
63.746
20
0.742
0
VERTEX
8
CONTOURS_MINEURES
10
63.498
20
2.996
0
VERTEX
8
CONTOURS_MINEURES
10
63.005
20
5.677
0
VERTEX
8
CONTOURS_MINEURES
10
62.719
20
5.716
0
VERTEX
8
CONTOURS_MINEURES
10
60.002
20
5.653
0
VERTEX
8
CONTOURS_MINEURES
10
57.349
20
5.653
0
VERTEX
8
CONTOURS_MINEURES
10
57.000
20
5.653
0
VERTEX
8
CONTOURS_MINEURES
10
56.317
20
6.002
0
VERTEX
8
CONTOURS_MINEURES
10
56.317
20
8.317
0
VERTEX
8
CONTOURS_MINEURES
10
56.317
20
8.998
0
VERTEX
8
CONTOURS_MINEURES
10
55.415
20
10.418
0
VERTEX
8
CONTOURS_MINEURES
10
56.277
20
12.005
0
VERTEX
8
CONTOURS_MINEURES
10
56.277
20
12.725
0
VERTEX
8
CONTOURS_MINEURES
10
56.277
20
15.000
0
VERTEX
8
CONTOURS_MINEURES
10
57.000
20
17.996
0
VERTEX
8
CONTOURS_MINEURES
10
60.002
20
17.996
0
VERTEX
8
CONTOURS_MINEURES
10
62.553
20
21.003
0
VERTEX
8
CONTOURS_MINEURES
10
62.553
20
23.548
0
VERTEX
8
CONTOURS_MINEURES
10
62.553
20
23.998
0
VERTEX
8
CONTOURS_MINEURES
10
62.714
20
24.289
0
VERTEX
8
CONTOURS_MINEURES
10
63.005
20
24.431
0
VERTEX
8
CONTOURS_MINEURES
10
65.005
20
27.005
0
VERTEX
8
CONTOURS_MINEURES
10
64.893
20
28.110
0
VERTEX
8
CONTOURS_MINEURES
10
65.655
20
30.001
0
VERTEX
8
CONTOURS_MINEURES
10
65.655
20
30.342
0
VERTEX
8
CONTOURS_MINEURES
10
65.655
20
32.996
0
VERTEX
8
CONTOURS_MINEURES
10
65.802
20
35.808
0
VERTEX
8
CONTOURS_MINEURES
10
65.473
20
36.003
0
VERTEX
8
CONTOURS_MINEURES
10
65.044
20
36.956
0
VERTEX
8
CONTOURS_MINEURES
10
64.155
20
38.999
0
VERTEX
8
CONTOURS_MINEURES
10
64.155
20
40.155
0
VERTEX
8
CONTOURS_MINEURES
10
64.155
20
42.005
0
VERTEX
8
CONTOURS_MINEURES
10
63.005
20
42.922
0
VERTEX
8
CONTOURS_MINEURES
10
61.244
20
43.245
0
VERTEX
8
CONTOURS_MINEURES
10
60.002
20
42.977
0
VERTEX
8
CONTOURS_MINEURES
10
57.973
20
42.977
0
VERTEX
8
CONTOURS_MINEURES
10
57.000
20
42.977
0
VERTEX
8
CONTOURS_MINEURES
10
54.943
20
42.949
0
VERTEX
8
CONTOURS_MINEURES
10
53.997
20
42.856
0
VERTEX
8
CONTOURS_MINEURES
10
51.449
20
42.005
0
VERTEX
8
CONTOURS_MINEURES
10
51.449
20
41.560
0
VERTEX
8
CONTOURS_MINEURES
10
51.449
20
38.999
0
VERTEX
8
CONTOURS_MINEURES
10
51.235
20
38.768
0
VERTEX
8
CONTOURS_MINEURES
10
51.005
20
38.635
0
VERTEX
8
CONTOURS_MINEURES
10
50.641
20
38.635
0
VERTEX
8
CONTOURS_MINEURES
10
48.003
20
38.635
0
VERTEX
8
CONTOURS_MINEURES
10
46.928
20
37.075
0
VERTEX
8
CONTOURS_MINEURES
10
45.930
20
36.003
0
VERTEX
8
CONTOURS_MINEURES
10
45.000
20
35.362
0
VERTEX
8
CONTOURS_MINEURES
10
43.483
20
32.996
0
VERTEX
8
CONTOURS_MINEURES
10
43.483
20
31.514
0
VERTEX
8
CONTOURS_MINEURES
10
43.483
20
30.001
0
VERTEX
8
CONTOURS_MINEURES
10
42.713
20
27.718
0
VERTEX
8
CONTOURS_MINEURES
10
42.407
20
27.005
0
VERTEX
8
CONTOURS_MINEURES
10
41.998
20
24.186
0
VERTEX
8
CONTOURS_MINEURES
10
41.810
20
24.186
0
VERTEX
8
CONTOURS_MINEURES
10
38.995
20
24.186
0
VERTEX
8
CONTOURS_MINEURES
10
38.973
20
23.998
0
VERTEX
8
CONTOURS_MINEURES
10
38.973
20
23.976
0
VERTEX
8
CONTOURS_MINEURES
10
38.973
20
21.003
0
VERTEX
8
CONTOURS_MINEURES
10
38.500
20
18.494
0
VERTEX
8
CONTOURS_MINEURES
10
38.363
20
17.996
0
VERTEX
8
CONTOURS_MINEURES
10
37.228
20
16.226
0
VERTEX
8
CONTOURS_MINEURES
10
36.583
20
15.000
0
VERTEX
8
CONTOURS_MINEURES
10
36.583
20
14.420
0
VERTEX
8
CONTOURS_MINEURES
10
36.583
20
12.005
0
VERTEX
8
CONTOURS_MINEURES
10
36.498
20
11.508
0
VERTEX
8
CONTOURS_MINEURES
10
36.300
20
8.998
0
VERTEX
8
CONTOURS_MINEURES
10
36.300
20
8.701
0
VERTEX
8
CONTOURS_MINEURES
10
36.300
20
6.002
0
VERTEX
8
CONTOURS_MINEURES
10
36.745
20
3.741
0
VERTEX
8
CONTOURS_MINEURES
10
36.820
20
2.996
0
VERTEX
8
CONTOURS_MINEURES
10
37.185
20
1.813
0
VERTEX
8
CONTOURS_MINEURES
10
36.941
20
-0.000
0
SEQEND
0
POLYLINE
8
CONTOURS_MINEURES
66
1
70
0
0
VERTEX
8
CONTOURS_MINEURES
10
96.000
20
17.063
0
VERTEX
8
CONTOURS_MINEURES
10
94.746
20
16.745
0
VERTEX
8
CONTOURS_MINEURES
10
92.997
20
16.066
0
VERTEX
8
CONTOURS_MINEURES
10
91.929
20
16.066
0
VERTEX
8
CONTOURS_MINEURES
10
89.995
20
16.066
0
VERTEX
8
CONTOURS_MINEURES
10
87.112
20
15.000
0
VERTEX
8
CONTOURS_MINEURES
10
87.112
20
14.891
0
VERTEX
8
CONTOURS_MINEURES
10
87.112
20
12.005
0
VERTEX
8
CONTOURS_MINEURES
10
87.003
20
11.945
0
VERTEX
8
CONTOURS_MINEURES
10
84.060
20
11.945
0
VERTEX
8
CONTOURS_MINEURES
10
84.000
20
11.945
0
VERTEX
8
CONTOURS_MINEURES
10
83.700
20
11.704
0
VERTEX
8
CONTOURS_MINEURES
10
80.998
20
9.371
0
VERTEX
8
CONTOURS_MINEURES
10
80.778
20
9.218
0
VERTEX
8
CONTOURS_MINEURES
10
80.604
20
8.998
0
VERTEX
8
CONTOURS_MINEURES
10
80.604
20
8.604
0
VERTEX
8
CONTOURS_MINEURES
10
80.604
20
6.002
0
VERTEX
8
CONTOURS_MINEURES
10
79.797
20
4.800
0
VERTEX
8
CONTOURS_MINEURES
10
78.732
20
2.996
0
VERTEX
8
CONTOURS_MINEURES
10
78.540
20
2.453
0
VERTEX
8
CONTOURS_MINEURES
10
77.995
20
1.788
0
VERTEX
8
CONTOURS_MINEURES
10
76.790
20
1.788
0
VERTEX
8
CONTOURS_MINEURES
10
75.004
20
1.788
0
VERTEX
8
CONTOURS_MINEURES
10
74.505
20
0.497
0
VERTEX
8
CONTOURS_MINEURES
10
74.340
20
-0.000
0
SEQEND
0
POLYLINE
8
CONTOURS_MINEURES
66
1
70
0
0
VERTEX
8
CONTOURS_MINEURES
10
60.957
20
-0.000
0
VERTEX
8
CONTOURS_MINEURES
10
60.002
20
0.758
0
VERTEX
8
CONTOURS_MINEURES
10
57.759
20
0.758
0
VERTEX
8
CONTOURS_MINEURES
10
57.000
20
0.758
0
VERTEX
8
CONTOURS_MINEURES
10
55.138
20
1.138
0
VERTEX
8
CONTOURS_MINEURES
10
53.997
20
0.990
0
VERTEX
8
CONTOURS_MINEURES
10
52.761
20
-0.000
0
SEQEND
0
POLYLINE
8
CONTOURS_MINEURES
66
1
70
0
0
VERTEX
8
CONTOURS_MINEURES
10
96.000
20
11.253
0
VERTEX
8
CONTOURS_MINEURES
10
94.483
20
10.517
0
VERTEX
8
CONTOURS_MINEURES
10
92.997
20
9.831
0
VERTEX
8
CONTOURS_MINEURES
10
92.166
20
9.831
0
VERTEX
8
CONTOURS_MINEURES
10
89.995
20
9.831
0
VERTEX
8
CONTOURS_MINEURES
10
87.160
20
8.998
0
VERTEX
8
CONTOURS_MINEURES
10
87.160
20
8.840
0
VERTEX
8
CONTOURS_MINEURES
10
87.160
20
6.002
0
VERTEX
8
CONTOURS_MINEURES
10
87.036
20
5.969
0
VERTEX
8
CONTOURS_MINEURES
10
87.003
20
5.921
0
VERTEX
8
CONTOURS_MINEURES
10
86.922
20
5.921
0
VERTEX
8
CONTOURS_MINEURES
10
84.000
20
5.921
0
VERTEX
8
CONTOURS_MINEURES
10
83.084
20
3.913
0
VERTEX
8
CONTOURS_MINEURES
10
81.961
20
2.996
0
VERTEX
8
CONTOURS_MINEURES
10
80.998
20
1.690
0
VERTEX
8
CONTOURS_MINEURES
10
80.555
20
0.442
0
VERTEX
8
CONTOURS_MINEURES
10
80.192
20
-0.000
0
SEQEND
0
POLYLINE
8
CONTOURS_MINEURES
66
1
70
0
0
VERTEX
8
CONTOURS_MINEURES
10
53.032
20
12.005
0
VERTEX
8
CONTOURS_MINEURES
10
53.032
20
14.034
0
VERTEX
8
CONTOURS_MINEURES
10
53.032
20
15.000
0
VERTEX
8
CONTOURS_MINEURES
10
52.889
20
16.110
0
VERTEX
8
CONTOURS_MINEURES
10
53.997
20
17.066
0
VERTEX
8
CONTOURS_MINEURES
10
54.455
20
17.996
0
VERTEX
8
CONTOURS_MINEURES
10
57.000
20
20.657
0
VERTEX
8
CONTOURS_MINEURES
10
57.345
20
20.657
0
VERTEX
8
CONTOURS_MINEURES
10
60.002
20
20.657
0
VERTEX
8
CONTOURS_MINEURES
10
60.296
20
21.003
0
VERTEX
8
CONTOURS_MINEURES
10
60.296
20
21.295
0
VERTEX
8
CONTOURS_MINEURES
10
60.296
20
23.998
0
VERTEX
8
CONTOURS_MINEURES
10
61.264
20
25.741
0
VERTEX
8
CONTOURS_MINEURES
10
63.005
20
26.594
0
VERTEX
8
CONTOURS_MINEURES
10
63.324
20
27.005
0
VERTEX
8
CONTOURS_MINEURES
10
63.023
20
29.982
0
VERTEX
8
CONTOURS_MINEURES
10
63.031
20
30.001
0
VERTEX
8
CONTOURS_MINEURES
10
63.031
20
32.970
0
VERTEX
8
CONTOURS_MINEURES
10
63.031
20
32.996
0
VERTEX
8
CONTOURS_MINEURES
10
63.032
20
33.024
0
VERTEX
8
CONTOURS_MINEURES
10
63.005
20
33.040
0
VERTEX
8
CONTOURS_MINEURES
10
62.951
20
33.050
0
VERTEX
8
CONTOURS_MINEURES
10
60.002
20
34.102
0
VERTEX
8
CONTOURS_MINEURES
10
58.104
20
34.102
0
VERTEX
8
CONTOURS_MINEURES
10
57.000
20
34.102
0
VERTEX
8
CONTOURS_MINEURES
10
55.856
20
34.142
0
VERTEX
8
CONTOURS_MINEURES
10
53.997
20
33.861
0
VERTEX
8
CONTOURS_MINEURES
10
52.034
20
32.996
0
VERTEX
8
CONTOURS_MINEURES
10
52.034
20
31.966
0
VERTEX
8
CONTOURS_MINEURES
10
52.034
20
30.001
0
VERTEX
8
CONTOURS_MINEURES
10
51.005
20
29.543
0
VERTEX
8
CONTOURS_MINEURES
10
48.462
20
29.543
0
VERTEX
8
CONTOURS_MINEURES
10
48.003
20
29.543
0
VERTEX
8
CONTOURS_MINEURES
10
46.382
20
28.622
0
VERTEX
8
CONTOURS_MINEURES
10
45.228
20
27.005
0
VERTEX
8
CONTOURS_MINEURES
10
45.251
20
26.754
0
VERTEX
8
CONTOURS_MINEURES
10
45.296
20
23.998
0
VERTEX
8
CONTOURS_MINEURES
10
45.296
20
23.704
0
VERTEX
8
CONTOURS_MINEURES
10
45.296
20
21.003
0
VERTEX
8
CONTOURS_MINEURES
10
45.000
20
20.218
0
VERTEX
8
CONTOURS_MINEURES
10
44.439
20
17.996
0
VERTEX
8
CONTOURS_MINEURES
10
43.834
20
16.164
0
VERTEX
8
CONTOURS_MINEURES
10
43.040
20
15.000
0
VERTEX
8
CONTOURS_MINEURES
10
43.040
20
13.960
0
VERTEX
8
CONTOURS_MINEURES
10
43.040
20
12.005
0
VERTEX
8
CONTOURS_MINEURES
10
42.480
20
9.481
0
VERTEX
8
CONTOURS_MINEURES
10
42.999
20
8.998
0
VERTEX
8
CONTOURS_MINEURES
10
42.999
20
7.001
0
VERTEX
8
CONTOURS_MINEURES
10
42.999
20
6.002
0
VERTEX
8
CONTOURS_MINEURES
10
43.578
20
4.578
0
VERTEX
8
CONTOURS_MINEURES
10
45.000
20
4.311
0
VERTEX
8
CONTOURS_MINEURES
10
45.702
20
5.299
0
VERTEX
8
CONTOURS_MINEURES
10
47.574
20
6.002
0
VERTEX
8
CONTOURS_MINEURES
10
47.574
20
6.430
0
VERTEX
8
CONTOURS_MINEURES
10
47.574
20
8.998
0
VERTEX
8
CONTOURS_MINEURES
10
47.823
20
9.178
0
VERTEX
8
CONTOURS_MINEURES
10
48.003
20
9.102
0
VERTEX
8
CONTOURS_MINEURES
10
50.902
20
9.102
0
VERTEX
8
CONTOURS_MINEURES
10
51.005
20
9.102
0
VERTEX
8
CONTOURS_MINEURES
10
52.510
20
10.492
0
VERTEX
8
CONTOURS_MINEURES
10
53.032
20
12.005
0
SEQEND
0
POLYLINE
8
CONTOURS_MINEURES
66
1
70
0
0
VERTEX
8
CONTOURS_MINEURES
10
96.000
20
4.265
0
VERTEX
8
CONTOURS_MINEURES
10
95.049
20
3.948
0
VERTEX
8
CONTOURS_MINEURES
10
93.671
20
2.996
0
VERTEX
8
CONTOURS_MINEURES
10
92.997
20
2.688
0
VERTEX
8
CONTOURS_MINEURES
10
90.303
20
2.688
0
VERTEX
8
CONTOURS_MINEURES
10
89.995
20
2.688
0
VERTEX
8
CONTOURS_MINEURES
10
87.064
20
-0.000
0
SEQEND
0
POLYLINE
8
CONTOURS_MINEURES
66
1
70
0
0
VERTEX
8
CONTOURS_MINEURES
10
96.000
20
1.724
0
VERTEX
8
CONTOURS_MINEURES
10
93.134
20
-0.000
0
SEQEND
0
POLYLINE
8
CONTOURS_MAJEURES
66
1
70
0
0
VERTEX
8
CONTOURS_MAJEURES
10
18.939
20
81.004
0
VERTEX
8
CONTOURS_MAJEURES
10
18.939
20
80.062
0
VERTEX
8
CONTOURS_MAJEURES
10
18.939
20
77.997
0
VERTEX
8
CONTOURS_MAJEURES
10
18.994
20
75.994
0
VERTEX
8
CONTOURS_MAJEURES
10
18.926
20
75.001
0
VERTEX
8
CONTOURS_MAJEURES
10
19.034
20
73.965
0
VERTEX
8
CONTOURS_MAJEURES
10
19.064
20
71.995
0
VERTEX
8
CONTOURS_MAJEURES
10
19.064
20
70.061
0
VERTEX
8
CONTOURS_MAJEURES
10
19.064
20
68.999
0
VERTEX
8
CONTOURS_MAJEURES
10
19.076
20
67.077
0
VERTEX
8
CONTOURS_MAJEURES
10
19.832
20
66.003
0
VERTEX
8
CONTOURS_MAJEURES
10
19.832
20
64.169
0
VERTEX
8
CONTOURS_MAJEURES
10
19.832
20
62.997
0
VERTEX
8
CONTOURS_MAJEURES
10
19.593
20
61.591
0
VERTEX
8
CONTOURS_MAJEURES
10
19.793
20
60.001
0
VERTEX
8
CONTOURS_MAJEURES
10
19.223
20
58.780
0
VERTEX
8
CONTOURS_MAJEURES
10
18.159
20
57.005
0
VERTEX
8
CONTOURS_MAJEURES
10
18.159
20
56.846
0
VERTEX
8
CONTOURS_MAJEURES
10
18.159
20
53.999
0
VERTEX
8
CONTOURS_MAJEURES
10
17.999
20
53.363
0
VERTEX
8
CONTOURS_MAJEURES
10
17.363
20
53.363
0
VERTEX
8
CONTOURS_MAJEURES
10
14.997
20
53.363
0
VERTEX
8
CONTOURS_MAJEURES
10
14.211
20
51.003
0
VERTEX
8
CONTOURS_MAJEURES
10
14.126
20
48.872
0
VERTEX
8
CONTOURS_MAJEURES
10
13.889
20
47.996
0
VERTEX
8
CONTOURS_MAJEURES
10
13.889
20
46.887
0
VERTEX
8
CONTOURS_MAJEURES
10
13.889
20
45.001
0
VERTEX
8
CONTOURS_MAJEURES
10
13.487
20
43.518
0
VERTEX
8
CONTOURS_MAJEURES
10
12.836
20
42.005
0
VERTEX
8
CONTOURS_MAJEURES
10
12.836
20
39.834
0
VERTEX
8
CONTOURS_MAJEURES
10
12.836
20
38.999
0
VERTEX
8
CONTOURS_MAJEURES
10
12.005
20
36.859
0
VERTEX
8
CONTOURS_MAJEURES
10
9.781
20
38.999
0
VERTEX
8
CONTOURS_MAJEURES
10
9.781
20
39.778
0
VERTEX
8
CONTOURS_MAJEURES
10
9.781
20
42.005
0
VERTEX
8
CONTOURS_MAJEURES
10
9.003
20
42.660
0
VERTEX
8
CONTOURS_MAJEURES
10
8.346
20
42.660
0
VERTEX
8
CONTOURS_MAJEURES
10
6.000
20
42.660
0
VERTEX
8
CONTOURS_MAJEURES
10
5.147
20
44.150
0
VERTEX
8
CONTOURS_MAJEURES
10
5.127
20
45.001
0
VERTEX
8
CONTOURS_MAJEURES
10
5.127
20
45.872
0
VERTEX
8
CONTOURS_MAJEURES
10
5.127
20
47.996
0
VERTEX
8
CONTOURS_MAJEURES
10
4.986
20
49.012
0
VERTEX
8
CONTOURS_MAJEURES
10
4.884
20
51.003
0
VERTEX
8
CONTOURS_MAJEURES
10
4.632
20
52.634
0
VERTEX
8
CONTOURS_MAJEURES
10
3.914
20
53.999
0
VERTEX
8
CONTOURS_MAJEURES
10
3.914
20
56.088
0
VERTEX
8
CONTOURS_MAJEURES
10
3.914
20
57.005
0
VERTEX
8
CONTOURS_MAJEURES
10
3.585
20
57.592
0
VERTEX
8
CONTOURS_MAJEURES
10
2.998
20
58.321
0
VERTEX
8
CONTOURS_MAJEURES
10
1.588
20
60.001
0
VERTEX
8
CONTOURS_MAJEURES
10
0.826
20
60.830
0
VERTEX
8
CONTOURS_MAJEURES
10
-0.005
20
61.624
0
SEQEND
0
POLYLINE
8
CONTOURS_MAJEURES
66
1
70
0
0
VERTEX
8
CONTOURS_MAJEURES
10
96.000
20
74.153
0
VERTEX
8
CONTOURS_MAJEURES
10
93.880
20
74.117
0
VERTEX
8
CONTOURS_MAJEURES
10
92.997
20
72.809
0
VERTEX
8
CONTOURS_MAJEURES
10
92.184
20
72.809
0
VERTEX
8
CONTOURS_MAJEURES
10
89.995
20
72.809
0
VERTEX
8
CONTOURS_MAJEURES
10
88.883
20
73.111
0
VERTEX
8
CONTOURS_MAJEURES
10
87.003
20
73.841
0
VERTEX
8
CONTOURS_MAJEURES
10
85.844
20
73.841
0
VERTEX
8
CONTOURS_MAJEURES
10
84.000
20
73.841
0
VERTEX
8
CONTOURS_MAJEURES
10
81.235
20
74.764
0
VERTEX
8
CONTOURS_MAJEURES
10
80.998
20
74.940
0
VERTEX
8
CONTOURS_MAJEURES
10
80.355
20
75.001
0
VERTEX
8
CONTOURS_MAJEURES
10
77.995
20
75.447
0
VERTEX
8
CONTOURS_MAJEURES
10
77.551
20
75.447
0
VERTEX
8
CONTOURS_MAJEURES
10
75.004
20
75.447
0
VERTEX
8
CONTOURS_MAJEURES
10
73.414
20
76.411
0
VERTEX
8
CONTOURS_MAJEURES
10
72.001
20
76.312
0
VERTEX
8
CONTOURS_MAJEURES
10
70.576
20
76.423
0
VERTEX
8
CONTOURS_MAJEURES
10
68.999
20
76.871
0
VERTEX
8
CONTOURS_MAJEURES
10
67.871
20
76.871
0
VERTEX
8
CONTOURS_MAJEURES
10
65.996
20
76.871
0
VERTEX
8
CONTOURS_MAJEURES
10
63.407
20
77.594
0
VERTEX
8
CONTOURS_MAJEURES
10
63.005
20
77.749
0
VERTEX
8
CONTOURS_MAJEURES
10
62.147
20
77.997
0
VERTEX
8
CONTOURS_MAJEURES
10
62.147
20
80.145
0
VERTEX
8
CONTOURS_MAJEURES
10
62.147
20
81.004
0
SEQEND
0
POLYLINE
8
CONTOURS_MAJEURES
66
1
70
0
0
VERTEX
8
CONTOURS_MAJEURES
10
23.359
20
81.004
0
VERTEX
8
CONTOURS_MAJEURES
10
23.359
20
80.358
0
VERTEX
8
CONTOURS_MAJEURES
10
23.359
20
77.997
0
VERTEX
8
CONTOURS_MAJEURES
10
23.309
20
77.304
0
VERTEX
8
CONTOURS_MAJEURES
10
22.919
20
75.001
0
VERTEX
8
CONTOURS_MAJEURES
10
23.015
20
74.011
0
VERTEX
8
CONTOURS_MAJEURES
10
23.396
20
71.995
0
VERTEX
8
CONTOURS_MAJEURES
10
23.396
20
69.607
0
VERTEX
8
CONTOURS_MAJEURES
10
23.396
20
68.999
0
VERTEX
8
CONTOURS_MAJEURES
10
24.004
20
67.854
0
VERTEX
8
CONTOURS_MAJEURES
10
25.853
20
67.854
0
VERTEX
8
CONTOURS_MAJEURES
10
26.996
20
67.854
0
VERTEX
8
CONTOURS_MAJEURES
10
28.419
20
66.003
0
VERTEX
8
CONTOURS_MAJEURES
10
28.419
20
64.422
0
VERTEX
8
CONTOURS_MAJEURES
10
28.419
20
62.997
0
VERTEX
8
CONTOURS_MAJEURES
10
28.974
20
61.975
0
VERTEX
8
CONTOURS_MAJEURES
10
29.999
20
60.309
0
VERTEX
8
CONTOURS_MAJEURES
10
32.693
20
60.309
0
VERTEX
8
CONTOURS_MAJEURES
10
33.001
20
60.309
0
VERTEX
8
CONTOURS_MAJEURES
10
33.250
20
60.001
0
VERTEX
8
CONTOURS_MAJEURES
10
33.325
20
59.678
0
VERTEX
8
CONTOURS_MAJEURES
10
34.371
20
57.005
0
VERTEX
8
CONTOURS_MAJEURES
10
34.371
20
55.634
0
VERTEX
8
CONTOURS_MAJEURES
10
34.371
20
53.999
0
VERTEX
8
CONTOURS_MAJEURES
10
34.583
20
52.581
0
VERTEX
8
CONTOURS_MAJEURES
10
34.342
20
51.003
0
VERTEX
8
CONTOURS_MAJEURES
10
33.301
20
48.297
0
VERTEX
8
CONTOURS_MAJEURES
10
33.184
20
47.996
0
VERTEX
8
CONTOURS_MAJEURES
10
33.184
20
47.814
0
VERTEX
8
CONTOURS_MAJEURES
10
33.184
20
45.001
0
VERTEX
8
CONTOURS_MAJEURES
10
33.147
20
44.855
0
VERTEX
8
CONTOURS_MAJEURES
10
33.001
20
44.414
0
VERTEX
8
CONTOURS_MAJEURES
10
32.413
20
44.414
0
VERTEX
8
CONTOURS_MAJEURES
10
29.999
20
44.414
0
VERTEX
8
CONTOURS_MAJEURES
10
29.475
20
42.528
0
VERTEX
8
CONTOURS_MAJEURES
10
29.397
20
42.005
0
VERTEX
8
CONTOURS_MAJEURES
10
29.397
20
41.402
0
VERTEX
8
CONTOURS_MAJEURES
10
29.397
20
38.999
0
VERTEX
8
CONTOURS_MAJEURES
10
29.285
20
36.715
0
VERTEX
8
CONTOURS_MAJEURES
10
29.162
20
36.003
0
VERTEX
8
CONTOURS_MAJEURES
10
28.900
20
34.902
0
VERTEX
8
CONTOURS_MAJEURES
10
28.885
20
32.996
0
VERTEX
8
CONTOURS_MAJEURES
10
28.885
20
31.111
0
VERTEX
8
CONTOURS_MAJEURES
10
28.885
20
30.001
0
VERTEX
8
CONTOURS_MAJEURES
10
28.466
20
28.472
0
VERTEX
8
CONTOURS_MAJEURES
10
28.137
20
27.005
0
VERTEX
8
CONTOURS_MAJEURES
10
27.938
20
26.062
0
VERTEX
8
CONTOURS_MAJEURES
10
27.882
20
23.998
0
VERTEX
8
CONTOURS_MAJEURES
10
27.882
20
23.115
0
VERTEX
8
CONTOURS_MAJEURES
10
27.882
20
21.003
0
VERTEX
8
CONTOURS_MAJEURES
10
27.569
20
18.569
0
VERTEX
8
CONTOURS_MAJEURES
10
27.442
20
17.996
0
VERTEX
8
CONTOURS_MAJEURES
10
27.369
20
17.624
0
VERTEX
8
CONTOURS_MAJEURES
10
26.996
20
15.590
0
VERTEX
8
CONTOURS_MAJEURES
10
26.408
20
15.590
0
VERTEX
8
CONTOURS_MAJEURES
10
24.004
20
15.590
0
VERTEX
8
CONTOURS_MAJEURES
10
23.824
20
15.000
0
VERTEX
8
CONTOURS_MAJEURES
10
23.824
20
14.821
0
VERTEX
8
CONTOURS_MAJEURES
10
23.824
20
12.005
0
VERTEX
8
CONTOURS_MAJEURES
10
23.296
20
9.707
0
VERTEX
8
CONTOURS_MAJEURES
10
23.063
20
8.998
0
VERTEX
8
CONTOURS_MAJEURES
10
23.063
20
8.059
0
VERTEX
8
CONTOURS_MAJEURES
10
23.063
20
6.002
0
VERTEX
8
CONTOURS_MAJEURES
10
22.527
20
4.475
0
VERTEX
8
CONTOURS_MAJEURES
10
22.071
20
2.996
0
VERTEX
8
CONTOURS_MAJEURES
10
21.787
20
2.212
0
VERTEX
8
CONTOURS_MAJEURES
10
21.206
20
-0.000
0
SEQEND
0
POLYLINE
8
CONTOURS_MAJEURES
66
1
70
0
0
VERTEX
8
CONTOURS_MAJEURES
10
65.432
20
-0.000
0
VERTEX
8
CONTOURS_MAJEURES
10
65.093
20
2.092
0
VERTEX
8
CONTOURS_MAJEURES
10
64.994
20
2.996
0
VERTEX
8
CONTOURS_MAJEURES
10
64.767
20
4.232
0
VERTEX
8
CONTOURS_MAJEURES
10
65.041
20
6.002
0
VERTEX
8
CONTOURS_MAJEURES
10
65.041
20
8.042
0
VERTEX
8
CONTOURS_MAJEURES
10
65.041
20
8.998
0
VERTEX
8
CONTOURS_MAJEURES
10
64.805
20
10.195
0
VERTEX
8
CONTOURS_MAJEURES
10
65.996
20
12.005
0
VERTEX
8
CONTOURS_MAJEURES
10
68.999
20
12.005
0
VERTEX
8
CONTOURS_MAJEURES
10
68.999
20
15.000
0
VERTEX
8
CONTOURS_MAJEURES
10
69.560
20
17.996
0
VERTEX
8
CONTOURS_MAJEURES
10
69.923
20
18.921
0
VERTEX
8
CONTOURS_MAJEURES
10
69.064
20
21.003
0
VERTEX
8
CONTOURS_MAJEURES
10
69.064
20
23.933
0
VERTEX
8
CONTOURS_MAJEURES
10
69.064
20
23.998
0
VERTEX
8
CONTOURS_MAJEURES
10
69.070
20
24.070
0
VERTEX
8
CONTOURS_MAJEURES
10
70.500
20
27.005
0
VERTEX
8
CONTOURS_MAJEURES
10
71.321
20
29.322
0
VERTEX
8
CONTOURS_MAJEURES
10
71.637
20
30.001
0
VERTEX
8
CONTOURS_MAJEURES
10
71.637
20
30.364
0
VERTEX
8
CONTOURS_MAJEURES
10
71.637
20
32.996
0
VERTEX
8
CONTOURS_MAJEURES
10
72.001
20
35.402
0
VERTEX
8
CONTOURS_MAJEURES
10
72.100
20
35.904
0
VERTEX
8
CONTOURS_MAJEURES
10
72.101
20
36.003
0
VERTEX
8
CONTOURS_MAJEURES
10
72.312
20
36.313
0
VERTEX
8
CONTOURS_MAJEURES
10
73.100
20
38.999
0
VERTEX
8
CONTOURS_MAJEURES
10
73.100
20
40.905
0
VERTEX
8
CONTOURS_MAJEURES
10
73.100
20
42.005
0
VERTEX
8
CONTOURS_MAJEURES
10
74.503
20
44.502
0
VERTEX
8
CONTOURS_MAJEURES
10
74.670
20
45.001
0
VERTEX
8
CONTOURS_MAJEURES
10
74.670
20
45.334
0
VERTEX
8
CONTOURS_MAJEURES
10
74.670
20
47.996
0
VERTEX
8
CONTOURS_MAJEURES
10
73.803
20
49.800
0
VERTEX
8
CONTOURS_MAJEURES
10
73.156
20
51.003
0
VERTEX
8
CONTOURS_MAJEURES
10
72.418
20
51.419
0
VERTEX
8
CONTOURS_MAJEURES
10
72.001
20
51.502
0
VERTEX
8
CONTOURS_MAJEURES
10
71.033
20
51.969
0
VERTEX
8
CONTOURS_MAJEURES
10
68.999
20
52.855
0
VERTEX
8
CONTOURS_MAJEURES
10
67.852
20
52.855
0
VERTEX
8
CONTOURS_MAJEURES
10
65.996
20
52.855
0
VERTEX
8
CONTOURS_MAJEURES
10
64.212
20
52.790
0
VERTEX
8
CONTOURS_MAJEURES
10
63.005
20
52.723
0
VERTEX
8
CONTOURS_MAJEURES
10
61.024
20
51.003
0
VERTEX
8
CONTOURS_MAJEURES
10
60.588
20
50.416
0
VERTEX
8
CONTOURS_MAJEURES
10
60.002
20
50.274
0
VERTEX
8
CONTOURS_MAJEURES
10
57.727
20
50.274
0
VERTEX
8
CONTOURS_MAJEURES
10
57.000
20
50.274
0
VERTEX
8
CONTOURS_MAJEURES
10
55.233
20
49.765
0
VERTEX
8
CONTOURS_MAJEURES
10
53.997
20
49.636
0
VERTEX
8
CONTOURS_MAJEURES
10
52.335
20
49.333
0
VERTEX
8
CONTOURS_MAJEURES
10
51.005
20
49.150
0
VERTEX
8
CONTOURS_MAJEURES
10
49.854
20
49.150
0
VERTEX
8
CONTOURS_MAJEURES
10
48.003
20
49.150
0
VERTEX
8
CONTOURS_MAJEURES
10
47.162
20
48.838
0
VERTEX
8
CONTOURS_MAJEURES
10
45.455
20
47.996
0
VERTEX
8
CONTOURS_MAJEURES
10
45.455
20
45.455
0
VERTEX
8
CONTOURS_MAJEURES
10
45.455
20
45.001
0
VERTEX
8
CONTOURS_MAJEURES
10
45.149
20
44.853
0
VERTEX
8
CONTOURS_MAJEURES
10
45.000
20
44.718
0
VERTEX
8
CONTOURS_MAJEURES
10
42.748
20
42.005
0
VERTEX
8
CONTOURS_MAJEURES
10
42.748
20
41.254
0
VERTEX
8
CONTOURS_MAJEURES
10
42.748
20
38.999
0
VERTEX
8
CONTOURS_MAJEURES
10
41.998
20
37.857
0
VERTEX
8
CONTOURS_MAJEURES
10
40.854
20
37.857
0
VERTEX
8
CONTOURS_MAJEURES
10
38.995
20
37.857
0
VERTEX
8
CONTOURS_MAJEURES
10
38.490
20
36.509
0
VERTEX
8
CONTOURS_MAJEURES
10
38.436
20
36.003
0
VERTEX
8
CONTOURS_MAJEURES
10
38.040
20
33.956
0
VERTEX
8
CONTOURS_MAJEURES
10
37.985
20
32.996
0
VERTEX
8
CONTOURS_MAJEURES
10
37.985
20
31.985
0
VERTEX
8
CONTOURS_MAJEURES
10
37.985
20
30.001
0
VERTEX
8
CONTOURS_MAJEURES
10
37.650
20
28.352
0
VERTEX
8
CONTOURS_MAJEURES
10
37.229
20
27.005
0
VERTEX
8
CONTOURS_MAJEURES
10
36.803
20
24.802
0
VERTEX
8
CONTOURS_MAJEURES
10
36.706
20
23.998
0
VERTEX
8
CONTOURS_MAJEURES
10
36.706
20
21.706
0
VERTEX
8
CONTOURS_MAJEURES
10
36.706
20
21.003
0
VERTEX
8
CONTOURS_MAJEURES
10
36.594
20
20.409
0
VERTEX
8
CONTOURS_MAJEURES
10
36.004
20
18.261
0
VERTEX
8
CONTOURS_MAJEURES
10
35.973
20
18.026
0
VERTEX
8
CONTOURS_MAJEURES
10
35.963
20
17.996
0
VERTEX
8
CONTOURS_MAJEURES
10
35.946
20
17.939
0
VERTEX
8
CONTOURS_MAJEURES
10
34.960
20
15.000
0
VERTEX
8
CONTOURS_MAJEURES
10
34.960
20
13.045
0
VERTEX
8
CONTOURS_MAJEURES
10
34.960
20
12.005
0
VERTEX
8
CONTOURS_MAJEURES
10
34.933
20
10.933
0
VERTEX
8
CONTOURS_MAJEURES
10
34.868
20
8.998
0
VERTEX
8
CONTOURS_MAJEURES
10
34.868
20
7.865
0
VERTEX
8
CONTOURS_MAJEURES
10
34.868
20
6.002
0
VERTEX
8
CONTOURS_MAJEURES
10
34.849
20
4.846
0
VERTEX
8
CONTOURS_MAJEURES
10
35.021
20
2.996
0
VERTEX
8
CONTOURS_MAJEURES
10
34.940
20
1.061
0
VERTEX
8
CONTOURS_MAJEURES
10
34.793
20
-0.000
0
SEQEND
0
POLYLINE
8
CONTOURS_MAJEURES
66
1
70
0
0
VERTEX
8
CONTOURS_MAJEURES
10
96.000
20
19.771
0
VERTEX
8
CONTOURS_MAJEURES
10
94.911
20
19.086
0
VERTEX
8
CONTOURS_MAJEURES
10
92.997
20
18.102
0
VERTEX
8
CONTOURS_MAJEURES
10
90.101
20
18.102
0
VERTEX
8
CONTOURS_MAJEURES
10
89.995
20
18.102
0
VERTEX
8
CONTOURS_MAJEURES
10
89.933
20
18.058
0
VERTEX
8
CONTOURS_MAJEURES
10
89.837
20
17.996
0
VERTEX
8
CONTOURS_MAJEURES
10
87.003
20
16.727
0
VERTEX
8
CONTOURS_MAJEURES
10
85.272
20
16.727
0
VERTEX
8
CONTOURS_MAJEURES
10
84.000
20
16.727
0
VERTEX
8
CONTOURS_MAJEURES
10
82.814
20
16.184
0
VERTEX
8
CONTOURS_MAJEURES
10
81.647
20
15.000
0
VERTEX
8
CONTOURS_MAJEURES
10
81.647
20
14.353
0
VERTEX
8
CONTOURS_MAJEURES
10
81.647
20
12.005
0
VERTEX
8
CONTOURS_MAJEURES
10
80.998
20
11.445
0
VERTEX
8
CONTOURS_MAJEURES
10
79.558
20
10.440
0
VERTEX
8
CONTOURS_MAJEURES
10
78.412
20
8.998
0
VERTEX
8
CONTOURS_MAJEURES
10
78.412
20
6.418
0
VERTEX
8
CONTOURS_MAJEURES
10
78.412
20
6.002
0
VERTEX
8
CONTOURS_MAJEURES
10
77.995
20
5.381
0
VERTEX
8
CONTOURS_MAJEURES
10
75.622
20
5.381
0
VERTEX
8
CONTOURS_MAJEURES
10
75.004
20
5.381
0
VERTEX
8
CONTOURS_MAJEURES
10
73.744
20
2.996
0
VERTEX
8
CONTOURS_MAJEURES
10
73.260
20
1.740
0
VERTEX
8
CONTOURS_MAJEURES
10
72.681
20
-0.000
0
SEQEND
0
POLYLINE
8
PARCELLE
66
1
70
1
0
VERTEX
8
PARCELLE
10
53.180
20
48.624
0
VERTEX
8
PARCELLE
10
76.401
20
39.004
0
VERTEX
8
PARCELLE
10
69.644
20
32.310
0
VERTEX
8
PARCELLE
10
57.222
20
20.000
0
VERTEX
8
PARCELLE
10
30.501
20
31.628
0
VERTEX
8
PARCELLE
10
30.663
20
36.452
0
VERTEX
8
PARCELLE
10
26.067
20
49.607
0
VERTEX
8
PARCELLE
10
24.208
20
53.069
0
VERTEX
8
PARCELLE
10
21.808
20
57.565
0
VERTEX
8
PARCELLE
10
20.000
20
62.366
0
VERTEX
8
PARCELLE
10
45.103
20
51.970
0
VERTEX
8
PARCELLE
10
53.180
20
48.624
0
SEQEND
0
TEXT
8
POINTS_COTES
10
-0.005
20
-0.000
40
1.0
1
62.3
0
TEXT
8
POINTS_COTES
10
38.995
20
2.996
40
1.0
1
71.8
0
TEXT
8
POINTS_COTES
10
77.995
20
6.002
40
1.0
1
69.8
0
TEXT
8
POINTS_COTES
10
17.999
20
12.005
40
1.0
1
62.2
0
TEXT
8
POINTS_COTES
10
57.000
20
15.000
40
1.0
1
70.8
0
TEXT
8
POINTS_COTES
10
96.000
20
17.996
40
1.0
1
70.6
0
TEXT
8
POINTS_COTES
10
36.004
20
23.998
40
1.0
1
69.7
0
TEXT
8
POINTS_COTES
10
75.004
20
27.005
40
1.0
1
69.2
0
TEXT
8
POINTS_COTES
10
14.997
20
32.996
40
1.0
1
61.1
0
TEXT
8
POINTS_COTES
10
53.997
20
36.003
40
1.0
1
71.5
0
TEXT
8
POINTS_COTES
10
92.997
20
38.999
40
1.0
1
67.3
0
TEXT
8
POINTS_COTES
10
33.001
20
45.001
40
1.0
1
64.8
0
TEXT
8
POINTS_COTES
10
72.001
20
47.996
40
1.0
1
70.2
0
TEXT
8
POINTS_COTES
10
12.005
20
53.999
40
1.0
1
59.1
0
TEXT
8
POINTS_COTES
10
51.005
20
57.005
40
1.0
1
69.0
0
TEXT
8
POINTS_COTES
10
89.995
20
60.001
40
1.0
1
68.2
0
TEXT
8
POINTS_COTES
10
29.999
20
66.003
40
1.0
1
66.3
0
TEXT
8
POINTS_COTES
10
68.999
20
68.999
40
1.0
1
67.4
0
TEXT
8
POINTS_COTES
10
9.003
20
75.001
40
1.0
1
58.6
0
TEXT
8
POINTS_COTES
10
48.003
20
77.997
40
1.0
1
66.0
0
TEXT
8
POINTS_COTES
10
87.003
20
81.004
40
1.0
1
64.6
0
ENDSEC
0
EOF
