0
SECTION
2
HEADER
0
ENDSEC
0
SECTION
2
TABLES
0
TABLE
2
LAYER
70
4
0
LAYER
2
CONTOURS_MINEURES
70
0
62
8
6
CONTINUOUS
0
LAYER
2
CONTOURS_MAJEURES
70
0
62
3
6
CONTINUOUS
0
LAYER
2
PARCELLE
70
0
62
4
6
CONTINUOUS
0
LAYER
2
POINTS_COTES
70
0
62
7
6
CONTINUOUS
0
ENDTAB
0
ENDSEC
0
SECTION
2
ENTITIES
0
POLYLINE
8
CONTOURS_MINEURES
66
1
70
0
0
VERTEX
8
CONTOURS_MINEURES
10
92.693
20
-0.002
0
VERTEX
8
CONTOURS_MINEURES
10
92.693
20
2.693
0
VERTEX
8
CONTOURS_MINEURES
10
92.693
20
3.004
0
VERTEX
8
CONTOURS_MINEURES
10
92.772
20
3.235
0
VERTEX
8
CONTOURS_MINEURES
10
93.004
20
3.860
0
SEQEND
0
POLYLINE
8
CONTOURS_MINEURES
66
1
70
0
0
VERTEX
8
CONTOURS_MINEURES
10
93.004
20
16.802
0
VERTEX
8
CONTOURS_MINEURES
10
92.857
20
18.005
0
VERTEX
8
CONTOURS_MINEURES
10
92.857
20
20.854
0
VERTEX
8
CONTOURS_MINEURES
10
92.857
20
21.000
0
VERTEX
8
CONTOURS_MINEURES
10
92.832
20
21.172
0
VERTEX
8
CONTOURS_MINEURES
10
93.004
20
21.207
0
SEQEND
0
POLYLINE
8
CONTOURS_MINEURES
66
1
70
0
0
VERTEX
8
CONTOURS_MINEURES
10
78.200
20
-0.002
0
VERTEX
8
CONTOURS_MINEURES
10
78.200
20
2.804
0
VERTEX
8
CONTOURS_MINEURES
10
78.200
20
3.004
0
VERTEX
8
CONTOURS_MINEURES
10
78.400
20
3.404
0
VERTEX
8
CONTOURS_MINEURES
10
80.358
20
6.000
0
VERTEX
8
CONTOURS_MINEURES
10
80.448
20
6.549
0
VERTEX
8
CONTOURS_MINEURES
10
80.849
20
8.996
0
VERTEX
8
CONTOURS_MINEURES
10
80.849
20
9.144
0
VERTEX
8
CONTOURS_MINEURES
10
80.849
20
12.002
0
VERTEX
8
CONTOURS_MINEURES
10
80.997
20
12.901
0
VERTEX
8
CONTOURS_MINEURES
10
81.527
20
12.531
0
VERTEX
8
CONTOURS_MINEURES
10
81.899
20
12.002
0
VERTEX
8
CONTOURS_MINEURES
10
81.899
20
11.100
0
VERTEX
8
CONTOURS_MINEURES
10
81.899
20
8.996
0
VERTEX
8
CONTOURS_MINEURES
10
81.899
20
8.097
0
VERTEX
8
CONTOURS_MINEURES
10
82.951
20
6.000
0
VERTEX
8
CONTOURS_MINEURES
10
83.402
20
5.401
0
VERTEX
8
CONTOURS_MINEURES
10
84.004
20
4.387
0
VERTEX
8
CONTOURS_MINEURES
10
85.387
20
4.387
0
VERTEX
8
CONTOURS_MINEURES
10
87.000
20
4.387
0
VERTEX
8
CONTOURS_MINEURES
10
87.599
20
6.000
0
VERTEX
8
CONTOURS_MINEURES
10
87.599
20
8.397
0
VERTEX
8
CONTOURS_MINEURES
10
87.500
20
8.996
0
VERTEX
8
CONTOURS_MINEURES
10
87.500
20
9.497
0
VERTEX
8
CONTOURS_MINEURES
10
87.500
20
12.002
0
VERTEX
8
CONTOURS_MINEURES
10
87.856
20
14.142
0
VERTEX
8
CONTOURS_MINEURES
10
87.723
20
14.998
0
VERTEX
8
CONTOURS_MINEURES
10
87.306
20
17.698
0
VERTEX
8
CONTOURS_MINEURES
10
87.227
20
18.005
0
VERTEX
8
CONTOURS_MINEURES
10
87.227
20
18.232
0
VERTEX
8
CONTOURS_MINEURES
10
87.227
20
21.000
0
VERTEX
8
CONTOURS_MINEURES
10
87.208
20
21.208
0
VERTEX
8
CONTOURS_MINEURES
10
87.000
20
21.789
0
VERTEX
8
CONTOURS_MINEURES
10
84.792
20
21.789
0
VERTEX
8
CONTOURS_MINEURES
10
84.004
20
21.789
0
VERTEX
8
CONTOURS_MINEURES
10
82.552
20
22.550
0
VERTEX
8
CONTOURS_MINEURES
10
82.552
20
23.996
0
VERTEX
8
CONTOURS_MINEURES
10
83.047
20
26.046
0
VERTEX
8
CONTOURS_MINEURES
10
82.766
20
27.003
0
VERTEX
8
CONTOURS_MINEURES
10
82.766
20
28.236
0
VERTEX
8
CONTOURS_MINEURES
10
82.766
20
29.998
0
VERTEX
8
CONTOURS_MINEURES
10
84.004
20
30.724
0
VERTEX
8
CONTOURS_MINEURES
10
86.277
20
30.724
0
VERTEX
8
CONTOURS_MINEURES
10
87.000
20
30.724
0
VERTEX
8
CONTOURS_MINEURES
10
88.165
20
31.168
0
VERTEX
8
CONTOURS_MINEURES
10
89.997
20
31.903
0
VERTEX
8
CONTOURS_MINEURES
10
91.030
20
31.971
0
VERTEX
8
CONTOURS_MINEURES
10
93.004
20
32.868
0
SEQEND
0
POLYLINE
8
CONTOURS_MINEURES
66
1
70
0
0
VERTEX
8
CONTOURS_MINEURES
10
93.004
20
41.502
0
VERTEX
8
CONTOURS_MINEURES
10
92.837
20
41.836
0
VERTEX
8
CONTOURS_MINEURES
10
92.628
20
42.003
0
VERTEX
8
CONTOURS_MINEURES
10
92.628
20
44.624
0
VERTEX
8
CONTOURS_MINEURES
10
92.628
20
44.999
0
VERTEX
8
CONTOURS_MINEURES
10
89.997
20
48.005
0
VERTEX
8
CONTOURS_MINEURES
10
89.622
20
50.626
0
VERTEX
8
CONTOURS_MINEURES
10
89.468
20
51.001
0
VERTEX
8
CONTOURS_MINEURES
10
89.468
20
51.530
0
VERTEX
8
CONTOURS_MINEURES
10
89.468
20
53.997
0
VERTEX
8
CONTOURS_MINEURES
10
88.748
20
55.750
0
VERTEX
8
CONTOURS_MINEURES
10
87.999
20
57.003
0
VERTEX
8
CONTOURS_MINEURES
10
87.652
20
57.654
0
VERTEX
8
CONTOURS_MINEURES
10
87.000
20
58.365
0
VERTEX
8
CONTOURS_MINEURES
10
85.638
20
58.365
0
VERTEX
8
CONTOURS_MINEURES
10
84.004
20
58.365
0
VERTEX
8
CONTOURS_MINEURES
10
82.124
20
57.003
0
VERTEX
8
CONTOURS_MINEURES
10
80.997
20
54.748
0
VERTEX
8
CONTOURS_MINEURES
10
79.499
20
53.997
0
VERTEX
8
CONTOURS_MINEURES
10
79.499
20
52.499
0
VERTEX
8
CONTOURS_MINEURES
10
79.499
20
51.001
0
VERTEX
8
CONTOURS_MINEURES
10
78.000
20
50.835
0
VERTEX
8
CONTOURS_MINEURES
10
75.171
20
50.835
0
VERTEX
8
CONTOURS_MINEURES
10
75.004
20
50.835
0
VERTEX
8
CONTOURS_MINEURES
10
74.951
20
50.948
0
VERTEX
8
CONTOURS_MINEURES
10
74.918
20
51.001
0
VERTEX
8
CONTOURS_MINEURES
10
74.918
20
51.087
0
VERTEX
8
CONTOURS_MINEURES
10
74.918
20
53.997
0
VERTEX
8
CONTOURS_MINEURES
10
75.004
20
57.003
0
VERTEX
8
CONTOURS_MINEURES
10
78.000
20
57.003
0
VERTEX
8
CONTOURS_MINEURES
10
75.004
20
57.003
0
VERTEX
8
CONTOURS_MINEURES
10
74.575
20
59.571
0
VERTEX
8
CONTOURS_MINEURES
10
74.519
20
59.999
0
VERTEX
8
CONTOURS_MINEURES
10
74.519
20
62.511
0
VERTEX
8
CONTOURS_MINEURES
10
74.519
20
62.995
0
VERTEX
8
CONTOURS_MINEURES
10
73.751
20
64.247
0
VERTEX
8
CONTOURS_MINEURES
10
72.723
20
66.001
0
VERTEX
8
CONTOURS_MINEURES
10
72.723
20
66.724
0
VERTEX
8
CONTOURS_MINEURES
10
72.723
20
68.997
0
VERTEX
8
CONTOURS_MINEURES
10
72.799
20
71.202
0
VERTEX
8
CONTOURS_MINEURES
10
72.570
20
72.004
0
VERTEX
8
CONTOURS_MINEURES
10
71.997
20
73.202
0
VERTEX
8
CONTOURS_MINEURES
10
71.388
20
74.390
0
VERTEX
8
CONTOURS_MINEURES
10
71.051
20
74.999
0
VERTEX
8
CONTOURS_MINEURES
10
71.051
20
75.945
0
VERTEX
8
CONTOURS_MINEURES
10
71.051
20
77.995
0
SEQEND
0
POLYLINE
8
CONTOURS_MINEURES
66
1
70
0
0
VERTEX
8
CONTOURS_MINEURES
10
71.302
20
-0.002
0
VERTEX
8
CONTOURS_MINEURES
10
71.302
20
2.307
0
VERTEX
8
CONTOURS_MINEURES
10
71.302
20
3.004
0
VERTEX
8
CONTOURS_MINEURES
10
71.419
20
3.582
0
VERTEX
8
CONTOURS_MINEURES
10
71.997
20
4.716
0
VERTEX
8
CONTOURS_MINEURES
10
72.561
20
6.000
0
VERTEX
8
CONTOURS_MINEURES
10
73.247
20
7.750
0
VERTEX
8
CONTOURS_MINEURES
10
73.405
20
8.996
0
VERTEX
8
CONTOURS_MINEURES
10
73.405
20
10.594
0
VERTEX
8
CONTOURS_MINEURES
10
73.405
20
12.002
0
VERTEX
8
CONTOURS_MINEURES
10
73.481
20
13.480
0
VERTEX
8
CONTOURS_MINEURES
10
73.539
20
14.998
0
VERTEX
8
CONTOURS_MINEURES
10
73.539
20
16.463
0
VERTEX
8
CONTOURS_MINEURES
10
73.622
20
18.005
0
VERTEX
8
CONTOURS_MINEURES
10
73.622
20
19.624
0
VERTEX
8
CONTOURS_MINEURES
10
73.622
20
21.000
0
VERTEX
8
CONTOURS_MINEURES
10
73.464
20
22.462
0
VERTEX
8
CONTOURS_MINEURES
10
73.320
20
23.996
0
VERTEX
8
CONTOURS_MINEURES
10
71.997
20
26.416
0
VERTEX
8
CONTOURS_MINEURES
10
71.536
20
26.540
0
VERTEX
8
CONTOURS_MINEURES
10
71.271
20
27.003
0
VERTEX
8
CONTOURS_MINEURES
10
71.271
20
27.729
0
VERTEX
8
CONTOURS_MINEURES
10
71.271
20
29.998
0
VERTEX
8
CONTOURS_MINEURES
10
70.784
20
31.788
0
VERTEX
8
CONTOURS_MINEURES
10
70.499
20
33.005
0
VERTEX
8
CONTOURS_MINEURES
10
70.499
20
34.503
0
VERTEX
8
CONTOURS_MINEURES
10
70.499
20
36.001
0
VERTEX
8
CONTOURS_MINEURES
10
70.499
20
37.498
0
VERTEX
8
CONTOURS_MINEURES
10
70.178
20
38.996
0
VERTEX
8
CONTOURS_MINEURES
10
69.001
20
41.063
0
VERTEX
8
CONTOURS_MINEURES
10
66.941
20
41.063
0
VERTEX
8
CONTOURS_MINEURES
10
66.004
20
41.063
0
VERTEX
8
CONTOURS_MINEURES
10
65.403
20
41.402
0
VERTEX
8
CONTOURS_MINEURES
10
64.848
20
42.003
0
VERTEX
8
CONTOURS_MINEURES
10
64.848
20
43.846
0
VERTEX
8
CONTOURS_MINEURES
10
64.848
20
44.999
0
VERTEX
8
CONTOURS_MINEURES
10
62.997
20
46.044
0
VERTEX
8
CONTOURS_MINEURES
10
61.955
20
46.044
0
VERTEX
8
CONTOURS_MINEURES
10
60.001
20
46.044
0
VERTEX
8
CONTOURS_MINEURES
10
58.717
20
46.717
0
VERTEX
8
CONTOURS_MINEURES
10
57.005
20
47.862
0
VERTEX
8
CONTOURS_MINEURES
10
56.908
20
48.005
0
VERTEX
8
CONTOURS_MINEURES
10
56.436
20
50.434
0
VERTEX
8
CONTOURS_MINEURES
10
56.048
20
51.001
0
VERTEX
8
CONTOURS_MINEURES
10
56.048
20
51.954
0
VERTEX
8
CONTOURS_MINEURES
10
56.048
20
53.997
0
VERTEX
8
CONTOURS_MINEURES
10
54.900
20
56.101
0
VERTEX
8
CONTOURS_MINEURES
10
54.642
20
57.003
0
VERTEX
8
CONTOURS_MINEURES
10
54.642
20
57.645
0
VERTEX
8
CONTOURS_MINEURES
10
55.351
20
59.999
0
VERTEX
8
CONTOURS_MINEURES
10
55.351
20
61.646
0
VERTEX
8
CONTOURS_MINEURES
10
55.351
20
62.995
0
VERTEX
8
CONTOURS_MINEURES
10
56.079
20
65.076
0
VERTEX
8
CONTOURS_MINEURES
10
56.336
20
66.001
0
VERTEX
8
CONTOURS_MINEURES
10
56.336
20
68.331
0
VERTEX
8
CONTOURS_MINEURES
10
56.336
20
68.997
0
VERTEX
8
CONTOURS_MINEURES
10
55.501
20
70.500
0
VERTEX
8
CONTOURS_MINEURES
10
54.479
20
72.004
0
VERTEX
8
CONTOURS_MINEURES
10
54.212
20
72.218
0
VERTEX
8
CONTOURS_MINEURES
10
53.998
20
72.378
0
VERTEX
8
CONTOURS_MINEURES
10
51.376
20
72.378
0
VERTEX
8
CONTOURS_MINEURES
10
51.001
20
72.378
0
VERTEX
8
CONTOURS_MINEURES
10
48.295
20
74.999
0
VERTEX
8
CONTOURS_MINEURES
10
48.295
20
75.289
0
VERTEX
8
CONTOURS_MINEURES
10
48.295
20
77.995
0
SEQEND
0
POLYLINE
8
CONTOURS_MINEURES
66
1
70
0
0
VERTEX
8
CONTOURS_MINEURES
10
63.609
20
-0.002
0
VERTEX
8
CONTOURS_MINEURES
10
63.609
20
2.393
0
VERTEX
8
CONTOURS_MINEURES
10
63.609
20
3.004
0
VERTEX
8
CONTOURS_MINEURES
10
63.799
20
3.803
0
VERTEX
8
CONTOURS_MINEURES
10
63.697
20
6.000
0
VERTEX
8
CONTOURS_MINEURES
10
63.599
20
6.599
0
VERTEX
8
CONTOURS_MINEURES
10
62.997
20
7.427
0
VERTEX
8
CONTOURS_MINEURES
10
61.428
20
7.427
0
VERTEX
8
CONTOURS_MINEURES
10
60.001
20
7.427
0
VERTEX
8
CONTOURS_MINEURES
10
59.177
20
8.172
0
VERTEX
8
CONTOURS_MINEURES
10
58.780
20
8.996
0
VERTEX
8
CONTOURS_MINEURES
10
58.780
20
10.777
0
VERTEX
8
CONTOURS_MINEURES
10
58.780
20
12.002
0
VERTEX
8
CONTOURS_MINEURES
10
58.120
20
13.117
0
VERTEX
8
CONTOURS_MINEURES
10
57.689
20
14.998
0
VERTEX
8
CONTOURS_MINEURES
10
57.005
20
16.501
0
VERTEX
8
CONTOURS_MINEURES
10
56.203
20
18.005
0
VERTEX
8
CONTOURS_MINEURES
10
56.203
20
18.804
0
VERTEX
8
CONTOURS_MINEURES
10
56.203
20
21.000
0
VERTEX
8
CONTOURS_MINEURES
10
55.246
20
22.244
0
VERTEX
8
CONTOURS_MINEURES
10
53.998
20
23.441
0
VERTEX
8
CONTOURS_MINEURES
10
51.556
20
23.441
0
VERTEX
8
CONTOURS_MINEURES
10
51.001
20
23.441
0
VERTEX
8
CONTOURS_MINEURES
10
50.729
20
23.724
0
VERTEX
8
CONTOURS_MINEURES
10
50.425
20
23.996
0
VERTEX
8
CONTOURS_MINEURES
10
48.861
20
26.144
0
VERTEX
8
CONTOURS_MINEURES
10
48.245
20
27.003
0
VERTEX
8
CONTOURS_MINEURES
10
48.245
20
27.242
0
VERTEX
8
CONTOURS_MINEURES
10
48.245
20
29.998
0
VERTEX
8
CONTOURS_MINEURES
10
48.005
20
30.239
0
VERTEX
8
CONTOURS_MINEURES
10
47.146
20
30.857
0
VERTEX
8
CONTOURS_MINEURES
10
44.998
20
32.468
0
VERTEX
8
CONTOURS_MINEURES
10
44.463
20
32.468
0
VERTEX
8
CONTOURS_MINEURES
10
42.001
20
32.468
0
VERTEX
8
CONTOURS_MINEURES
10
41.003
20
33.005
0
VERTEX
8
CONTOURS_MINEURES
10
41.003
20
34.004
0
VERTEX
8
CONTOURS_MINEURES
10
41.003
20
36.001
0
VERTEX
8
CONTOURS_MINEURES
10
40.075
20
37.071
0
VERTEX
8
CONTOURS_MINEURES
10
39.005
20
37.763
0
VERTEX
8
CONTOURS_MINEURES
10
38.347
20
38.341
0
VERTEX
8
CONTOURS_MINEURES
10
35.998
20
38.140
0
VERTEX
8
CONTOURS_MINEURES
10
33.858
20
38.140
0
VERTEX
8
CONTOURS_MINEURES
10
33.002
20
38.140
0
VERTEX
8
CONTOURS_MINEURES
10
32.485
20
38.480
0
VERTEX
8
CONTOURS_MINEURES
10
30.005
20
38.320
0
VERTEX
8
CONTOURS_MINEURES
10
29.646
20
38.638
0
VERTEX
8
CONTOURS_MINEURES
10
29.459
20
38.996
0
VERTEX
8
CONTOURS_MINEURES
10
29.240
20
39.762
0
VERTEX
8
CONTOURS_MINEURES
10
28.895
20
42.003
0
VERTEX
8
CONTOURS_MINEURES
10
28.895
20
43.893
0
VERTEX
8
CONTOURS_MINEURES
10
28.895
20
44.999
0
VERTEX
8
CONTOURS_MINEURES
10
27.943
20
47.060
0
VERTEX
8
CONTOURS_MINEURES
10
27.660
20
48.005
0
VERTEX
8
CONTOURS_MINEURES
10
26.998
20
51.001
0
VERTEX
8
CONTOURS_MINEURES
10
26.998
20
53.997
0
VERTEX
8
CONTOURS_MINEURES
10
24.002
20
53.997
0
VERTEX
8
CONTOURS_MINEURES
10
21.854
20
57.003
0
VERTEX
8
CONTOURS_MINEURES
10
21.568
20
57.574
0
VERTEX
8
CONTOURS_MINEURES
10
20.995
20
59.182
0
VERTEX
8
CONTOURS_MINEURES
10
20.781
20
59.999
0
VERTEX
8
CONTOURS_MINEURES
10
20.781
20
62.781
0
VERTEX
8
CONTOURS_MINEURES
10
20.781
20
62.995
0
VERTEX
8
CONTOURS_MINEURES
10
20.539
20
65.544
0
VERTEX
8
CONTOURS_MINEURES
10
20.507
20
66.001
0
VERTEX
8
CONTOURS_MINEURES
10
20.507
20
66.489
0
VERTEX
8
CONTOURS_MINEURES
10
20.507
20
68.997
0
VERTEX
8
CONTOURS_MINEURES
10
19.684
20
70.688
0
VERTEX
8
CONTOURS_MINEURES
10
17.998
20
70.771
0
VERTEX
8
CONTOURS_MINEURES
10
16.230
20
70.771
0
VERTEX
8
CONTOURS_MINEURES
10
15.002
20
70.771
0
VERTEX
8
CONTOURS_MINEURES
10
12.960
20
71.039
0
VERTEX
8
CONTOURS_MINEURES
10
11.995
20
71.263
0
VERTEX
8
CONTOURS_MINEURES
10
11.257
20
71.263
0
VERTEX
8
CONTOURS_MINEURES
10
8.999
20
71.263
0
VERTEX
8
CONTOURS_MINEURES
10
6.486
20
71.519
0
VERTEX
8
CONTOURS_MINEURES
10
6.002
20
71.494
0
VERTEX
8
CONTOURS_MINEURES
10
5.349
20
71.350
0
VERTEX
8
CONTOURS_MINEURES
10
2.995
20
71.350
0
VERTEX
8
CONTOURS_MINEURES
10
0.650
20
71.350
0
VERTEX
8
CONTOURS_MINEURES
10
-0.001
20
71.350
0
SEQEND
0
POLYLINE
8
CONTOURS_MINEURES
66
1
70
0
0
VERTEX
8
CONTOURS_MINEURES
10
45.947
20
-0.002
0
VERTEX
8
CONTOURS_MINEURES
10
45.947
20
2.055
0
VERTEX
8
CONTOURS_MINEURES
10
45.947
20
3.004
0
VERTEX
8
CONTOURS_MINEURES
10
45.900
20
3.903
0
VERTEX
8
CONTOURS_MINEURES
10
46.416
20
6.000
0
VERTEX
8
CONTOURS_MINEURES
10
46.602
20
7.398
0
VERTEX
8
CONTOURS_MINEURES
10
46.686
20
8.996
0
VERTEX
8
CONTOURS_MINEURES
10
46.686
20
10.314
0
VERTEX
8
CONTOURS_MINEURES
10
46.686
20
12.002
0
VERTEX
8
CONTOURS_MINEURES
10
46.456
20
13.455
0
VERTEX
8
CONTOURS_MINEURES
10
44.998
20
14.907
0
VERTEX
8
CONTOURS_MINEURES
10
42.092
20
14.907
0
VERTEX
8
CONTOURS_MINEURES
10
42.001
20
14.907
0
VERTEX
8
CONTOURS_MINEURES
10
41.959
20
14.955
0
VERTEX
8
CONTOURS_MINEURES
10
41.890
20
14.998
0
VERTEX
8
CONTOURS_MINEURES
10
40.533
20
16.531
0
VERTEX
8
CONTOURS_MINEURES
10
39.418
20
18.005
0
VERTEX
8
CONTOURS_MINEURES
10
39.418
20
20.587
0
VERTEX
8
CONTOURS_MINEURES
10
39.418
20
21.000
0
VERTEX
8
CONTOURS_MINEURES
10
39.231
20
21.226
0
VERTEX
8
CONTOURS_MINEURES
10
39.005
20
21.705
0
VERTEX
8
CONTOURS_MINEURES
10
37.050
20
23.996
0
VERTEX
8
CONTOURS_MINEURES
10
35.998
20
24.806
0
VERTEX
8
CONTOURS_MINEURES
10
33.808
20
24.806
0
VERTEX
8
CONTOURS_MINEURES
10
33.002
20
24.806
0
VERTEX
8
CONTOURS_MINEURES
10
31.165
20
27.003
0
VERTEX
8
CONTOURS_MINEURES
10
31.165
20
28.839
0
VERTEX
8
CONTOURS_MINEURES
10
31.165
20
29.998
0
VERTEX
8
CONTOURS_MINEURES
10
30.419
20
30.413
0
VERTEX
8
CONTOURS_MINEURES
10
30.005
20
30.562
0
VERTEX
8
CONTOURS_MINEURES
10
27.162
20
33.005
0
VERTEX
8
CONTOURS_MINEURES
10
27.162
20
35.837
0
VERTEX
8
CONTOURS_MINEURES
10
27.162
20
36.001
0
VERTEX
8
CONTOURS_MINEURES
10
27.075
20
36.077
0
VERTEX
8
CONTOURS_MINEURES
10
26.998
20
36.225
0
VERTEX
8
CONTOURS_MINEURES
10
26.774
20
36.225
0
VERTEX
8
CONTOURS_MINEURES
10
24.002
20
36.225
0
VERTEX
8
CONTOURS_MINEURES
10
21.473
20
38.996
0
VERTEX
8
CONTOURS_MINEURES
10
20.995
20
39.748
0
VERTEX
8
CONTOURS_MINEURES
10
19.565
20
40.568
0
VERTEX
8
CONTOURS_MINEURES
10
17.998
20
41.227
0
VERTEX
8
CONTOURS_MINEURES
10
17.225
20
41.227
0
VERTEX
8
CONTOURS_MINEURES
10
15.002
20
41.227
0
VERTEX
8
CONTOURS_MINEURES
10
14.143
20
42.003
0
VERTEX
8
CONTOURS_MINEURES
10
14.143
20
42.859
0
VERTEX
8
CONTOURS_MINEURES
10
14.143
20
44.999
0
VERTEX
8
CONTOURS_MINEURES
10
11.995
20
46.397
0
VERTEX
8
CONTOURS_MINEURES
10
10.601
20
46.397
0
VERTEX
8
CONTOURS_MINEURES
10
8.999
20
46.397
0
VERTEX
8
CONTOURS_MINEURES
10
7.887
20
46.890
0
VERTEX
8
CONTOURS_MINEURES
10
6.002
20
47.930
0
VERTEX
8
CONTOURS_MINEURES
10
5.877
20
48.005
0
VERTEX
8
CONTOURS_MINEURES
10
4.093
20
49.099
0
VERTEX
8
CONTOURS_MINEURES
10
2.995
20
49.772
0
VERTEX
8
CONTOURS_MINEURES
10
1.228
20
49.772
0
VERTEX
8
CONTOURS_MINEURES
10
-0.001
20
49.772
0
SEQEND
0
POLYLINE
8
CONTOURS_MINEURES
66
1
70
0
0
VERTEX
8
CONTOURS_MINEURES
10
5.592
20
59.999
0
VERTEX
8
CONTOURS_MINEURES
10
6.002
20
58.202
0
VERTEX
8
CONTOURS_MINEURES
10
6.190
20
59.812
0
VERTEX
8
CONTOURS_MINEURES
10
6.312
20
59.999
0
VERTEX
8
CONTOURS_MINEURES
10
6.312
20
62.685
0
VERTEX
8
CONTOURS_MINEURES
10
6.312
20
62.995
0
VERTEX
8
CONTOURS_MINEURES
10
6.002
20
63.162
0
VERTEX
8
CONTOURS_MINEURES
10
5.592
20
62.995
0
VERTEX
8
CONTOURS_MINEURES
10
5.592
20
60.407
0
VERTEX
8
CONTOURS_MINEURES
10
5.592
20
59.999
0
SEQEND
0
POLYLINE
8
CONTOURS_MINEURES
66
1
70
0
0
VERTEX
8
CONTOURS_MINEURES
10
38.551
20
-0.002
0
VERTEX
8
CONTOURS_MINEURES
10
38.551
20
0.452
0
VERTEX
8
CONTOURS_MINEURES
10
38.551
20
3.004
0
VERTEX
8
CONTOURS_MINEURES
10
38.414
20
5.412
0
VERTEX
8
CONTOURS_MINEURES
10
38.178
20
6.000
0
VERTEX
8
CONTOURS_MINEURES
10
35.998
20
8.482
0
VERTEX
8
CONTOURS_MINEURES
10
35.484
20
8.482
0
VERTEX
8
CONTOURS_MINEURES
10
33.002
20
8.482
0
VERTEX
8
CONTOURS_MINEURES
10
32.422
20
8.996
0
VERTEX
8
CONTOURS_MINEURES
10
32.422
20
11.420
0
VERTEX
8
CONTOURS_MINEURES
10
32.422
20
12.002
0
VERTEX
8
CONTOURS_MINEURES
10
30.005
20
14.883
0
VERTEX
8
CONTOURS_MINEURES
10
29.943
20
14.936
0
VERTEX
8
CONTOURS_MINEURES
10
29.875
20
14.998
0
VERTEX
8
CONTOURS_MINEURES
10
26.998
20
16.739
0
VERTEX
8
CONTOURS_MINEURES
10
25.264
20
16.739
0
VERTEX
8
CONTOURS_MINEURES
10
24.002
20
16.739
0
VERTEX
8
CONTOURS_MINEURES
10
21.997
20
18.005
0
VERTEX
8
CONTOURS_MINEURES
10
21.997
20
20.002
0
VERTEX
8
CONTOURS_MINEURES
10
21.997
20
21.000
0
VERTEX
8
CONTOURS_MINEURES
10
21.542
20
21.545
0
VERTEX
8
CONTOURS_MINEURES
10
20.995
20
22.090
0
VERTEX
8
CONTOURS_MINEURES
10
18.373
20
23.996
0
VERTEX
8
CONTOURS_MINEURES
10
17.998
20
24.269
0
VERTEX
8
CONTOURS_MINEURES
10
15.275
20
24.269
0
VERTEX
8
CONTOURS_MINEURES
10
15.002
20
24.269
0
VERTEX
8
CONTOURS_MINEURES
10
13.570
20
25.571
0
VERTEX
8
CONTOURS_MINEURES
10
11.995
20
25.942
0
VERTEX
8
CONTOURS_MINEURES
10
10.056
20
25.942
0
VERTEX
8
CONTOURS_MINEURES
10
8.999
20
25.942
0
VERTEX
8
CONTOURS_MINEURES
10
8.513
20
26.515
0
VERTEX
8
CONTOURS_MINEURES
10
7.435
20
27.003
0
VERTEX
8
CONTOURS_MINEURES
10
7.435
20
28.566
0
VERTEX
8
CONTOURS_MINEURES
10
7.435
20
29.998
0
VERTEX
8
CONTOURS_MINEURES
10
6.769
20
30.767
0
VERTEX
8
CONTOURS_MINEURES
10
6.002
20
31.139
0
VERTEX
8
CONTOURS_MINEURES
10
3.246
20
32.754
0
VERTEX
8
CONTOURS_MINEURES
10
2.995
20
32.928
0
VERTEX
8
CONTOURS_MINEURES
10
2.918
20
32.928
0
VERTEX
8
CONTOURS_MINEURES
10
-0.001
20
32.928
0
SEQEND
0
POLYLINE
8
CONTOURS_MINEURES
66
1
70
0
0
VERTEX
8
CONTOURS_MINEURES
10
28.538
20
-0.002
0
VERTEX
8
CONTOURS_MINEURES
10
28.538
20
1.538
0
VERTEX
8
CONTOURS_MINEURES
10
28.538
20
3.004
0
VERTEX
8
CONTOURS_MINEURES
10
26.998
20
4.855
0
VERTEX
8
CONTOURS_MINEURES
10
25.853
20
4.855
0
VERTEX
8
CONTOURS_MINEURES
10
24.002
20
4.855
0
VERTEX
8
CONTOURS_MINEURES
10
23.488
20
5.488
0
VERTEX
8
CONTOURS_MINEURES
10
22.852
20
6.000
0
VERTEX
8
CONTOURS_MINEURES
10
21.848
20
6.850
0
VERTEX
8
CONTOURS_MINEURES
10
20.995
20
7.339
0
VERTEX
8
CONTOURS_MINEURES
10
18.308
20
8.996
0
VERTEX
8
CONTOURS_MINEURES
10
18.308
20
9.307
0
VERTEX
8
CONTOURS_MINEURES
10
18.308
20
12.002
0
VERTEX
8
CONTOURS_MINEURES
10
17.998
20
12.239
0
VERTEX
8
CONTOURS_MINEURES
10
15.239
20
12.239
0
VERTEX
8
CONTOURS_MINEURES
10
15.002
20
12.239
0
VERTEX
8
CONTOURS_MINEURES
10
13.670
20
13.671
0
VERTEX
8
CONTOURS_MINEURES
10
11.995
20
14.807
0
VERTEX
8
CONTOURS_MINEURES
10
11.804
20
14.807
0
VERTEX
8
CONTOURS_MINEURES
10
8.999
20
14.807
0
VERTEX
8
CONTOURS_MINEURES
10
8.734
20
14.998
0
VERTEX
8
CONTOURS_MINEURES
10
7.275
20
16.275
0
VERTEX
8
CONTOURS_MINEURES
10
6.002
20
17.451
0
VERTEX
8
CONTOURS_MINEURES
10
5.434
20
18.005
0
VERTEX
8
CONTOURS_MINEURES
10
5.434
20
18.571
0
VERTEX
8
CONTOURS_MINEURES
10
5.434
20
21.000
0
VERTEX
8
CONTOURS_MINEURES
10
4.322
20
22.322
0
VERTEX
8
CONTOURS_MINEURES
10
2.995
20
23.644
0
VERTEX
8
CONTOURS_MINEURES
10
0.352
20
23.644
0
VERTEX
8
CONTOURS_MINEURES
10
-0.001
20
23.644
0
SEQEND
0
POLYLINE
8
CONTOURS_MINEURES
66
1
70
0
0
VERTEX
8
CONTOURS_MINEURES
10
18.417
20
-0.002
0
VERTEX
8
CONTOURS_MINEURES
10
18.417
20
0.417
0
VERTEX
8
CONTOURS_MINEURES
10
18.417
20
3.004
0
VERTEX
8
CONTOURS_MINEURES
10
17.998
20
3.387
0
VERTEX
8
CONTOURS_MINEURES
10
17.616
20
3.387
0
VERTEX
8
CONTOURS_MINEURES
10
15.002
20
3.387
0
VERTEX
8
CONTOURS_MINEURES
10
13.534
20
4.538
0
VERTEX
8
CONTOURS_MINEURES
10
11.995
20
5.805
0
VERTEX
8
CONTOURS_MINEURES
10
11.800
20
5.805
0
VERTEX
8
CONTOURS_MINEURES
10
8.999
20
5.805
0
VERTEX
8
CONTOURS_MINEURES
10
8.835
20
6.000
0
VERTEX
8
CONTOURS_MINEURES
10
7.445
20
7.442
0
VERTEX
8
CONTOURS_MINEURES
10
6.002
20
8.640
0
VERTEX
8
CONTOURS_MINEURES
10
5.489
20
8.996
0
VERTEX
8
CONTOURS_MINEURES
10
5.489
20
11.489
0
VERTEX
8
CONTOURS_MINEURES
10
5.489
20
12.002
0
VERTEX
8
CONTOURS_MINEURES
10
3.988
20
12.991
0
VERTEX
8
CONTOURS_MINEURES
10
2.995
20
13.789
0
VERTEX
8
CONTOURS_MINEURES
10
1.208
20
13.789
0
VERTEX
8
CONTOURS_MINEURES
10
-0.001
20
13.789
0
SEQEND
0
POLYLINE
8
CONTOURS_MINEURES
66
1
70
0
0
VERTEX
8
CONTOURS_MINEURES
10
6.054
20
-0.002
0
VERTEX
8
CONTOURS_MINEURES
10
6.054
20
2.953
0
VERTEX
8
CONTOURS_MINEURES
10
6.054
20
3.004
0
VERTEX
8
CONTOURS_MINEURES
10
6.002
20
3.066
0
VERTEX
8
CONTOURS_MINEURES
10
4.499
20
4.502
0
VERTEX
8
CONTOURS_MINEURES
10
2.995
20
5.944
0
VERTEX
8
CONTOURS_MINEURES
10
0.056
20
5.944
0
VERTEX
8
CONTOURS_MINEURES
10
-0.001
20
5.944
0
SEQEND
0
POLYLINE
8
CONTOURS_MAJEURES
66
1
70
0
0
VERTEX
8
CONTOURS_MAJEURES
10
45.947
20
-0.002
0
VERTEX
8
CONTOURS_MAJEURES
10
45.947
20
2.055
0
VERTEX
8
CONTOURS_MAJEURES
10
45.947
20
3.004
0
VERTEX
8
CONTOURS_MAJEURES
10
45.900
20
3.903
0
VERTEX
8
CONTOURS_MAJEURES
10
46.416
20
6.000
0
VERTEX
8
CONTOURS_MAJEURES
10
46.602
20
7.398
0
VERTEX
8
CONTOURS_MAJEURES
10
46.686
20
8.996
0
VERTEX
8
CONTOURS_MAJEURES
10
46.686
20
10.314
0
VERTEX
8
CONTOURS_MAJEURES
10
46.686
20
12.002
0
VERTEX
8
CONTOURS_MAJEURES
10
46.456
20
13.455
0
VERTEX
8
CONTOURS_MAJEURES
10
44.998
20
14.907
0
VERTEX
8
CONTOURS_MAJEURES
10
42.092
20
14.907
0
VERTEX
8
CONTOURS_MAJEURES
10
42.001
20
14.907
0
VERTEX
8
CONTOURS_MAJEURES
10
41.959
20
14.955
0
VERTEX
8
CONTOURS_MAJEURES
10
41.890
20
14.998
0
VERTEX
8
CONTOURS_MAJEURES
10
40.533
20
16.531
0
VERTEX
8
CONTOURS_MAJEURES
10
39.418
20
18.005
0
VERTEX
8
CONTOURS_MAJEURES
10
39.418
20
20.587
0
VERTEX
8
CONTOURS_MAJEURES
10
39.418
20
21.000
0
VERTEX
8
CONTOURS_MAJEURES
10
39.231
20
21.226
0
VERTEX
8
CONTOURS_MAJEURES
10
39.005
20
21.705
0
VERTEX
8
CONTOURS_MAJEURES
10
37.050
20
23.996
0
VERTEX
8
CONTOURS_MAJEURES
10
35.998
20
24.806
0
VERTEX
8
CONTOURS_MAJEURES
10
33.808
20
24.806
0
VERTEX
8
CONTOURS_MAJEURES
10
33.002
20
24.806
0
VERTEX
8
CONTOURS_MAJEURES
10
31.165
20
27.003
0
VERTEX
8
CONTOURS_MAJEURES
10
31.165
20
28.839
0
VERTEX
8
CONTOURS_MAJEURES
10
31.165
20
29.998
0
VERTEX
8
CONTOURS_MAJEURES
10
30.419
20
30.413
0
VERTEX
8
CONTOURS_MAJEURES
10
30.005
20
30.562
0
VERTEX
8
CONTOURS_MAJEURES
10
27.162
20
33.005
0
VERTEX
8
CONTOURS_MAJEURES
10
27.162
20
35.837
0
VERTEX
8
CONTOURS_MAJEURES
10
27.162
20
36.001
0
VERTEX
8
CONTOURS_MAJEURES
10
27.075
20
36.077
0
VERTEX
8
CONTOURS_MAJEURES
10
26.998
20
36.225
0
VERTEX
8
CONTOURS_MAJEURES
10
26.774
20
36.225
0
VERTEX
8
CONTOURS_MAJEURES
10
24.002
20
36.225
0
VERTEX
8
CONTOURS_MAJEURES
10
21.473
20
38.996
0
VERTEX
8
CONTOURS_MAJEURES
10
20.995
20
39.748
0
VERTEX
8
CONTOURS_MAJEURES
10
19.565
20
40.568
0
VERTEX
8
CONTOURS_MAJEURES
10
17.998
20
41.227
0
VERTEX
8
CONTOURS_MAJEURES
10
17.225
20
41.227
0
VERTEX
8
CONTOURS_MAJEURES
10
15.002
20
41.227
0
VERTEX
8
CONTOURS_MAJEURES
10
14.143
20
42.003
0
VERTEX
8
CONTOURS_MAJEURES
10
14.143
20
42.859
0
VERTEX
8
CONTOURS_MAJEURES
10
14.143
20
44.999
0
VERTEX
8
CONTOURS_MAJEURES
10
11.995
20
46.397
0
VERTEX
8
CONTOURS_MAJEURES
10
10.601
20
46.397
0
VERTEX
8
CONTOURS_MAJEURES
10
8.999
20
46.397
0
VERTEX
8
CONTOURS_MAJEURES
10
7.887
20
46.890
0
VERTEX
8
CONTOURS_MAJEURES
10
6.002
20
47.930
0
VERTEX
8
CONTOURS_MAJEURES
10
5.877
20
48.005
0
VERTEX
8
CONTOURS_MAJEURES
10
4.093
20
49.099
0
VERTEX
8
CONTOURS_MAJEURES
10
2.995
20
49.772
0
VERTEX
8
CONTOURS_MAJEURES
10
1.228
20
49.772
0
VERTEX
8
CONTOURS_MAJEURES
10
-0.001
20
49.772
0
SEQEND
0
POLYLINE
8
CONTOURS_MAJEURES
66
1
70
0
0
VERTEX
8
CONTOURS_MAJEURES
10
5.592
20
59.999
0
VERTEX
8
CONTOURS_MAJEURES
10
6.002
20
58.202
0
VERTEX
8
CONTOURS_MAJEURES
10
6.190
20
59.812
0
VERTEX
8
CONTOURS_MAJEURES
10
6.312
20
59.999
0
VERTEX
8
CONTOURS_MAJEURES
10
6.312
20
62.685
0
VERTEX
8
CONTOURS_MAJEURES
10
6.312
20
62.995
0
VERTEX
8
CONTOURS_MAJEURES
10
6.002
20
63.162
0
VERTEX
8
CONTOURS_MAJEURES
10
5.592
20
62.995
0
VERTEX
8
CONTOURS_MAJEURES
10
5.592
20
60.407
0
VERTEX
8
CONTOURS_MAJEURES
10
5.592
20
59.999
0
SEQEND
0
POLYLINE
8
PARCELLE
66
1
70
1
0
VERTEX
8
PARCELLE
10
20.000
20
60.952
0
VERTEX
8
PARCELLE
10
70.862
20
59.573
0
VERTEX
8
PARCELLE
10
73.579
20
59.451
0
VERTEX
8
PARCELLE
10
73.710
20
54.794
0
VERTEX
8
PARCELLE
10
74.762
20
40.041
0
VERTEX
8
PARCELLE
10
75.639
20
28.235
0
VERTEX
8
PARCELLE
10
29.407
20
20.503
0
VERTEX
8
PARCELLE
10
25.224
20
20.000
0
VERTEX
8
PARCELLE
10
20.000
20
60.952
0
SEQEND
0
TEXT
8
POINTS_COTES
10
-0.001
20
-0.002
40
1.0
1
49.5
0
TEXT
8
POINTS_COTES
10
33.002
20
3.004
40
1.0
1
46.5
0
TEXT
8
POINTS_COTES
10
66.004
20
6.000
40
1.0
1
43.7
0
TEXT
8
POINTS_COTES
10
2.995
20
12.002
40
1.0
1
48.3
0
TEXT
8
POINTS_COTES
10
35.998
20
14.998
40
1.0
1
45.6
0
TEXT
8
POINTS_COTES
10
69.001
20
18.005
40
1.0
1
43.5
0
TEXT
8
POINTS_COTES
10
6.002
20
23.996
40
1.0
1
46.6
0
TEXT
8
POINTS_COTES
10
39.005
20
27.003
40
1.0
1
44.6
0
TEXT
8
POINTS_COTES
10
71.997
20
29.998
40
1.0
1
42.9
0
TEXT
8
POINTS_COTES
10
8.999
20
36.001
40
1.0
1
45.7
0
TEXT
8
POINTS_COTES
10
42.001
20
38.996
40
1.0
1
43.8
0
TEXT
8
POINTS_COTES
10
75.004
20
42.003
40
1.0
1
42.3
0
TEXT
8
POINTS_COTES
10
11.995
20
48.005
40
1.0
1
44.8
0
TEXT
8
POINTS_COTES
10
44.998
20
51.001
40
1.0
1
43.5
0
TEXT
8
POINTS_COTES
10
78.000
20
53.997
40
1.0
1
42.0
0
TEXT
8
POINTS_COTES
10
15.002
20
59.999
40
1.0
1
44.4
0
TEXT
8
POINTS_COTES
10
48.005
20
62.995
40
1.0
1
43.2
0
TEXT
8
POINTS_COTES
10
80.997
20
66.001
40
1.0
1
41.7
0
TEXT
8
POINTS_COTES
10
17.998
20
72.004
40
1.0
1
43.8
0
TEXT
8
POINTS_COTES
10
51.001
20
74.999
40
1.0
1
42.7
0
TEXT
8
POINTS_COTES
10
84.004
20
77.995
40
1.0
1
41.6
0
ENDSEC
0
EOF
