0
SECTION
2
HEADER
0
ENDSEC
0
SECTION
2
TABLES
0
TABLE
2
LAYER
70
4
0
LAYER
2
CONTOURS_MINEURES
70
0
62
8
6
CONTINUOUS
0
LAYER
2
CONTOURS_MAJEURES
70
0
62
3
6
CONTINUOUS
0
LAYER
2
PARCELLE
70
0
62
4
6
CONTINUOUS
0
LAYER
2
POINTS_COTES
70
0
62
7
6
CONTINUOUS
0
ENDTAB
0
ENDSEC
0
SECTION
2
ENTITIES
0
POLYLINE
8
CONTOURS_MINEURES
66
1
70
0
0
VERTEX
8
CONTOURS_MINEURES
10
225.005
20
260.283
0
VERTEX
8
CONTOURS_MINEURES
10
222.307
20
262.306
0
VERTEX
8
CONTOURS_MINEURES
10
219.995
20
264.774
0
VERTEX
8
CONTOURS_MINEURES
10
219.782
20
265.002
0
VERTEX
8
CONTOURS_MINEURES
10
217.078
20
267.084
0
VERTEX
8
CONTOURS_MINEURES
10
214.995
20
268.040
0
VERTEX
8
CONTOURS_MINEURES
10
211.700
20
269.998
0
VERTEX
8
CONTOURS_MINEURES
10
211.384
20
271.386
0
VERTEX
8
CONTOURS_MINEURES
10
209.995
20
272.024
0
VERTEX
8
CONTOURS_MINEURES
10
204.996
20
274.995
0
VERTEX
8
CONTOURS_MINEURES
10
208.433
20
280.002
0
VERTEX
8
CONTOURS_MINEURES
10
209.995
20
281.317
0
VERTEX
8
CONTOURS_MINEURES
10
211.995
20
283.000
0
VERTEX
8
CONTOURS_MINEURES
10
214.370
20
284.999
0
VERTEX
8
CONTOURS_MINEURES
10
214.995
20
285.453
0
VERTEX
8
CONTOURS_MINEURES
10
216.424
20
286.426
0
VERTEX
8
CONTOURS_MINEURES
10
219.995
20
288.909
0
VERTEX
8
CONTOURS_MINEURES
10
220.637
20
289.354
0
VERTEX
8
CONTOURS_MINEURES
10
221.665
20
289.995
0
VERTEX
8
CONTOURS_MINEURES
10
225.005
20
292.631
0
SEQEND
0
POLYLINE
8
CONTOURS_MINEURES
66
1
70
0
0
VERTEX
8
CONTOURS_MINEURES
10
225.005
20
299.999
0
VERTEX
8
CONTOURS_MINEURES
10
220.289
20
304.995
0
VERTEX
8
CONTOURS_MINEURES
10
220.151
20
305.152
0
VERTEX
8
CONTOURS_MINEURES
10
219.995
20
305.308
0
VERTEX
8
CONTOURS_MINEURES
10
215.308
20
310.003
0
VERTEX
8
CONTOURS_MINEURES
10
215.101
20
310.109
0
VERTEX
8
CONTOURS_MINEURES
10
214.995
20
310.164
0
VERTEX
8
CONTOURS_MINEURES
10
211.804
20
311.810
0
VERTEX
8
CONTOURS_MINEURES
10
209.995
20
312.834
0
VERTEX
8
CONTOURS_MINEURES
10
205.933
20
314.999
0
VERTEX
8
CONTOURS_MINEURES
10
205.464
20
315.468
0
VERTEX
8
CONTOURS_MINEURES
10
204.996
20
315.936
0
VERTEX
8
CONTOURS_MINEURES
10
200.933
20
319.996
0
VERTEX
8
CONTOURS_MINEURES
10
199.996
20
320.997
0
VERTEX
8
CONTOURS_MINEURES
10
198.121
20
323.125
0
VERTEX
8
CONTOURS_MINEURES
10
196.838
20
325.003
0
VERTEX
8
CONTOURS_MINEURES
10
198.282
20
326.716
0
VERTEX
8
CONTOURS_MINEURES
10
198.022
20
329.999
0
VERTEX
8
CONTOURS_MINEURES
10
199.035
20
330.960
0
VERTEX
8
CONTOURS_MINEURES
10
199.996
20
332.271
0
VERTEX
8
CONTOURS_MINEURES
10
201.521
20
333.472
0
VERTEX
8
CONTOURS_MINEURES
10
202.041
20
334.996
0
SEQEND
0
POLYLINE
8
CONTOURS_MINEURES
66
1
70
0
0
VERTEX
8
CONTOURS_MINEURES
10
225.005
20
223.832
0
VERTEX
8
CONTOURS_MINEURES
10
224.466
20
224.459
0
VERTEX
8
CONTOURS_MINEURES
10
224.057
20
224.998
0
VERTEX
8
CONTOURS_MINEURES
10
221.498
20
228.503
0
VERTEX
8
CONTOURS_MINEURES
10
220.390
20
230.005
0
VERTEX
8
CONTOURS_MINEURES
10
220.226
20
230.236
0
VERTEX
8
CONTOURS_MINEURES
10
219.995
20
230.560
0
VERTEX
8
CONTOURS_MINEURES
10
216.918
20
235.001
0
VERTEX
8
CONTOURS_MINEURES
10
216.131
20
236.137
0
VERTEX
8
CONTOURS_MINEURES
10
214.995
20
237.777
0
VERTEX
8
CONTOURS_MINEURES
10
214.072
20
239.075
0
VERTEX
8
CONTOURS_MINEURES
10
213.416
20
239.998
0
VERTEX
8
CONTOURS_MINEURES
10
211.995
20
242.001
0
VERTEX
8
CONTOURS_MINEURES
10
209.995
20
244.820
0
VERTEX
8
CONTOURS_MINEURES
10
209.867
20
245.005
0
VERTEX
8
CONTOURS_MINEURES
10
209.579
20
245.422
0
VERTEX
8
CONTOURS_MINEURES
10
206.406
20
250.002
0
VERTEX
8
CONTOURS_MINEURES
10
205.829
20
250.834
0
VERTEX
8
CONTOURS_MINEURES
10
204.996
20
252.037
0
VERTEX
8
CONTOURS_MINEURES
10
202.891
20
254.998
0
VERTEX
8
CONTOURS_MINEURES
10
199.996
20
259.069
0
VERTEX
8
CONTOURS_MINEURES
10
199.355
20
259.994
0
VERTEX
8
CONTOURS_MINEURES
10
197.572
20
262.574
0
VERTEX
8
CONTOURS_MINEURES
10
195.894
20
265.002
0
VERTEX
8
CONTOURS_MINEURES
10
195.394
20
265.399
0
VERTEX
8
CONTOURS_MINEURES
10
194.996
20
265.922
0
VERTEX
8
CONTOURS_MINEURES
10
193.194
20
269.998
0
VERTEX
8
CONTOURS_MINEURES
10
191.508
20
271.508
0
VERTEX
8
CONTOURS_MINEURES
10
189.997
20
273.815
0
VERTEX
8
CONTOURS_MINEURES
10
189.238
20
274.236
0
VERTEX
8
CONTOURS_MINEURES
10
188.506
20
274.995
0
VERTEX
8
CONTOURS_MINEURES
10
184.997
20
276.816
0
VERTEX
8
CONTOURS_MINEURES
10
182.837
20
277.839
0
VERTEX
8
CONTOURS_MINEURES
10
179.997
20
279.145
0
VERTEX
8
CONTOURS_MINEURES
10
178.387
20
280.002
0
VERTEX
8
CONTOURS_MINEURES
10
176.767
20
281.771
0
VERTEX
8
CONTOURS_MINEURES
10
174.998
20
282.273
0
VERTEX
8
CONTOURS_MINEURES
10
171.224
20
283.773
0
VERTEX
8
CONTOURS_MINEURES
10
169.998
20
284.429
0
VERTEX
8
CONTOURS_MINEURES
10
169.622
20
284.623
0
VERTEX
8
CONTOURS_MINEURES
10
168.644
20
284.999
0
VERTEX
8
CONTOURS_MINEURES
10
164.998
20
289.065
0
VERTEX
8
CONTOURS_MINEURES
10
164.602
20
289.599
0
VERTEX
8
CONTOURS_MINEURES
10
163.180
20
289.995
0
VERTEX
8
CONTOURS_MINEURES
10
164.998
20
292.352
0
VERTEX
8
CONTOURS_MINEURES
10
166.284
20
293.715
0
VERTEX
8
CONTOURS_MINEURES
10
167.811
20
295.003
0
VERTEX
8
CONTOURS_MINEURES
10
167.998
20
298.000
0
VERTEX
8
CONTOURS_MINEURES
10
168.123
20
299.999
0
VERTEX
8
CONTOURS_MINEURES
10
164.998
20
303.330
0
VERTEX
8
CONTOURS_MINEURES
10
163.436
20
304.995
0
VERTEX
8
CONTOURS_MINEURES
10
161.717
20
306.717
0
VERTEX
8
CONTOURS_MINEURES
10
159.999
20
309.586
0
VERTEX
8
CONTOURS_MINEURES
10
159.813
20
310.003
0
VERTEX
8
CONTOURS_MINEURES
10
159.999
20
310.241
0
VERTEX
8
CONTOURS_MINEURES
10
162.437
20
312.562
0
VERTEX
8
CONTOURS_MINEURES
10
164.998
20
314.772
0
VERTEX
8
CONTOURS_MINEURES
10
165.150
20
314.999
0
VERTEX
8
CONTOURS_MINEURES
10
164.998
20
319.996
0
VERTEX
8
CONTOURS_MINEURES
10
162.379
20
325.003
0
VERTEX
8
CONTOURS_MINEURES
10
161.922
20
326.925
0
VERTEX
8
CONTOURS_MINEURES
10
162.893
20
329.999
0
VERTEX
8
CONTOURS_MINEURES
10
163.094
20
331.903
0
VERTEX
8
CONTOURS_MINEURES
10
163.822
20
334.996
0
SEQEND
0
POLYLINE
8
CONTOURS_MINEURES
66
1
70
0
0
VERTEX
8
CONTOURS_MINEURES
10
225.005
20
52.500
0
VERTEX
8
CONTOURS_MINEURES
10
224.853
20
54.847
0
VERTEX
8
CONTOURS_MINEURES
10
224.844
20
54.998
0
VERTEX
8
CONTOURS_MINEURES
10
224.829
20
55.173
0
VERTEX
8
CONTOURS_MINEURES
10
224.440
20
59.994
0
VERTEX
8
CONTOURS_MINEURES
10
224.170
20
64.167
0
VERTEX
8
CONTOURS_MINEURES
10
224.116
20
65.002
0
VERTEX
8
CONTOURS_MINEURES
10
224.038
20
65.966
0
VERTEX
8
CONTOURS_MINEURES
10
223.712
20
69.998
0
VERTEX
8
CONTOURS_MINEURES
10
223.623
20
71.377
0
VERTEX
8
CONTOURS_MINEURES
10
223.389
20
74.995
0
VERTEX
8
CONTOURS_MINEURES
10
223.136
20
78.134
0
VERTEX
8
CONTOURS_MINEURES
10
222.985
20
80.002
0
VERTEX
8
CONTOURS_MINEURES
10
222.846
20
82.156
0
VERTEX
8
CONTOURS_MINEURES
10
222.662
20
84.999
0
VERTEX
8
CONTOURS_MINEURES
10
222.456
20
87.541
0
VERTEX
8
CONTOURS_MINEURES
10
222.258
20
89.995
0
VERTEX
8
CONTOURS_MINEURES
10
222.120
20
92.119
0
VERTEX
8
CONTOURS_MINEURES
10
221.934
20
95.002
0
VERTEX
8
CONTOURS_MINEURES
10
221.665
20
98.333
0
VERTEX
8
CONTOURS_MINEURES
10
221.530
20
99.999
0
VERTEX
8
CONTOURS_MINEURES
10
221.437
20
101.437
0
VERTEX
8
CONTOURS_MINEURES
10
221.207
20
104.995
0
VERTEX
8
CONTOURS_MINEURES
10
220.945
20
109.053
0
VERTEX
8
CONTOURS_MINEURES
10
220.870
20
110.003
0
VERTEX
8
CONTOURS_MINEURES
10
220.817
20
110.823
0
VERTEX
8
CONTOURS_MINEURES
10
220.480
20
114.999
0
VERTEX
8
CONTOURS_MINEURES
10
220.168
20
119.823
0
VERTEX
8
CONTOURS_MINEURES
10
220.154
20
119.996
0
VERTEX
8
CONTOURS_MINEURES
10
219.995
20
121.999
0
VERTEX
8
CONTOURS_MINEURES
10
219.771
20
124.779
0
VERTEX
8
CONTOURS_MINEURES
10
219.753
20
125.003
0
VERTEX
8
CONTOURS_MINEURES
10
219.712
20
125.286
0
VERTEX
8
CONTOURS_MINEURES
10
219.027
20
129.999
0
VERTEX
8
CONTOURS_MINEURES
10
218.960
20
131.033
0
VERTEX
8
CONTOURS_MINEURES
10
218.705
20
134.996
0
VERTEX
8
CONTOURS_MINEURES
10
218.428
20
138.434
0
VERTEX
8
CONTOURS_MINEURES
10
218.301
20
140.003
0
VERTEX
8
CONTOURS_MINEURES
10
218.185
20
141.812
0
VERTEX
8
CONTOURS_MINEURES
10
217.979
20
145.000
0
VERTEX
8
CONTOURS_MINEURES
10
217.756
20
147.759
0
VERTEX
8
CONTOURS_MINEURES
10
217.576
20
149.996
0
VERTEX
8
CONTOURS_MINEURES
10
217.419
20
152.424
0
VERTEX
8
CONTOURS_MINEURES
10
217.253
20
155.004
0
VERTEX
8
CONTOURS_MINEURES
10
217.012
20
157.984
0
VERTEX
8
CONTOURS_MINEURES
10
216.850
20
160.000
0
VERTEX
8
CONTOURS_MINEURES
10
216.737
20
161.741
0
VERTEX
8
CONTOURS_MINEURES
10
216.527
20
164.996
0
VERTEX
8
CONTOURS_MINEURES
10
216.223
20
168.774
0
VERTEX
8
CONTOURS_MINEURES
10
216.124
20
170.004
0
VERTEX
8
CONTOURS_MINEURES
10
216.056
20
171.064
0
VERTEX
8
CONTOURS_MINEURES
10
215.801
20
175.000
0
VERTEX
8
CONTOURS_MINEURES
10
215.741
20
175.746
0
VERTEX
8
CONTOURS_MINEURES
10
215.398
20
179.997
0
VERTEX
8
CONTOURS_MINEURES
10
215.081
20
184.918
0
VERTEX
8
CONTOURS_MINEURES
10
215.076
20
185.004
0
VERTEX
8
CONTOURS_MINEURES
10
215.070
20
185.079
0
VERTEX
8
CONTOURS_MINEURES
10
214.995
20
186.003
0
VERTEX
8
CONTOURS_MINEURES
10
214.673
20
190.001
0
VERTEX
8
CONTOURS_MINEURES
10
214.389
20
194.391
0
VERTEX
8
CONTOURS_MINEURES
10
214.350
20
194.997
0
VERTEX
8
CONTOURS_MINEURES
10
214.293
20
195.700
0
VERTEX
8
CONTOURS_MINEURES
10
213.947
20
200.004
0
VERTEX
8
CONTOURS_MINEURES
10
213.834
20
201.164
0
VERTEX
8
CONTOURS_MINEURES
10
213.578
20
205.001
0
VERTEX
8
CONTOURS_MINEURES
10
213.253
20
208.256
0
VERTEX
8
CONTOURS_MINEURES
10
212.495
20
209.997
0
VERTEX
8
CONTOURS_MINEURES
10
209.995
20
213.487
0
VERTEX
8
CONTOURS_MINEURES
10
208.607
20
215.005
0
VERTEX
8
CONTOURS_MINEURES
10
206.409
20
216.417
0
VERTEX
8
CONTOURS_MINEURES
10
204.996
20
217.410
0
VERTEX
8
CONTOURS_MINEURES
10
201.312
20
220.001
0
VERTEX
8
CONTOURS_MINEURES
10
200.765
20
220.770
0
VERTEX
8
CONTOURS_MINEURES
10
199.996
20
221.923
0
VERTEX
8
CONTOURS_MINEURES
10
198.765
20
223.768
0
VERTEX
8
CONTOURS_MINEURES
10
197.891
20
224.998
0
VERTEX
8
CONTOURS_MINEURES
10
196.689
20
226.692
0
VERTEX
8
CONTOURS_MINEURES
10
194.996
20
229.078
0
VERTEX
8
CONTOURS_MINEURES
10
194.672
20
230.005
0
VERTEX
8
CONTOURS_MINEURES
10
193.458
20
233.464
0
VERTEX
8
CONTOURS_MINEURES
10
192.919
20
235.001
0
VERTEX
8
CONTOURS_MINEURES
10
192.160
20
237.163
0
VERTEX
8
CONTOURS_MINEURES
10
191.165
20
239.998
0
VERTEX
8
CONTOURS_MINEURES
10
189.997
20
243.336
0
VERTEX
8
CONTOURS_MINEURES
10
189.304
20
244.312
0
VERTEX
8
CONTOURS_MINEURES
10
188.843
20
245.005
0
VERTEX
8
CONTOURS_MINEURES
10
186.247
20
248.753
0
VERTEX
8
CONTOURS_MINEURES
10
185.382
20
250.002
0
VERTEX
8
CONTOURS_MINEURES
10
185.224
20
250.229
0
VERTEX
8
CONTOURS_MINEURES
10
184.997
20
250.557
0
VERTEX
8
CONTOURS_MINEURES
10
183.151
20
253.153
0
VERTEX
8
CONTOURS_MINEURES
10
181.839
20
254.998
0
VERTEX
8
CONTOURS_MINEURES
10
181.074
20
256.074
0
VERTEX
8
CONTOURS_MINEURES
10
179.997
20
257.589
0
VERTEX
8
CONTOURS_MINEURES
10
178.331
20
259.994
0
VERTEX
8
CONTOURS_MINEURES
10
174.998
20
264.816
0
VERTEX
8
CONTOURS_MINEURES
10
174.921
20
264.925
0
VERTEX
8
CONTOURS_MINEURES
10
174.866
20
265.002
0
VERTEX
8
CONTOURS_MINEURES
10
174.543
20
265.456
0
VERTEX
8
CONTOURS_MINEURES
10
171.314
20
269.998
0
VERTEX
8
CONTOURS_MINEURES
10
169.998
20
271.721
0
VERTEX
8
CONTOURS_MINEURES
10
168.580
20
273.578
0
VERTEX
8
CONTOURS_MINEURES
10
167.623
20
274.995
0
VERTEX
8
CONTOURS_MINEURES
10
164.998
20
276.719
0
VERTEX
8
CONTOURS_MINEURES
10
161.295
20
280.002
0
VERTEX
8
CONTOURS_MINEURES
10
159.999
20
280.580
0
VERTEX
8
CONTOURS_MINEURES
10
156.852
20
281.854
0
VERTEX
8
CONTOURS_MINEURES
10
154.999
20
282.944
0
VERTEX
8
CONTOURS_MINEURES
10
153.542
20
283.543
0
VERTEX
8
CONTOURS_MINEURES
10
151.562
20
284.999
0
VERTEX
8
CONTOURS_MINEURES
10
150.574
20
285.573
0
VERTEX
8
CONTOURS_MINEURES
10
149.999
20
285.761
0
VERTEX
8
CONTOURS_MINEURES
10
147.094
20
287.091
0
VERTEX
8
CONTOURS_MINEURES
10
145.000
20
287.938
0
VERTEX
8
CONTOURS_MINEURES
10
140.555
20
289.995
0
VERTEX
8
CONTOURS_MINEURES
10
140.000
20
290.339
0
VERTEX
8
CONTOURS_MINEURES
10
137.173
20
292.171
0
VERTEX
8
CONTOURS_MINEURES
10
135.000
20
292.873
0
VERTEX
8
CONTOURS_MINEURES
10
133.364
20
295.003
0
VERTEX
8
CONTOURS_MINEURES
10
132.984
20
297.984
0
VERTEX
8
CONTOURS_MINEURES
10
133.280
20
299.999
0
VERTEX
8
CONTOURS_MINEURES
10
133.444
20
301.554
0
VERTEX
8
CONTOURS_MINEURES
10
133.934
20
304.995
0
VERTEX
8
CONTOURS_MINEURES
10
133.715
20
306.283
0
VERTEX
8
CONTOURS_MINEURES
10
134.114
20
310.003
0
VERTEX
8
CONTOURS_MINEURES
10
134.194
20
314.193
0
VERTEX
8
CONTOURS_MINEURES
10
133.547
20
314.999
0
VERTEX
8
CONTOURS_MINEURES
10
133.215
20
316.784
0
VERTEX
8
CONTOURS_MINEURES
10
133.261
20
319.996
0
VERTEX
8
CONTOURS_MINEURES
10
133.261
20
323.261
0
VERTEX
8
CONTOURS_MINEURES
10
133.096
20
325.003
0
VERTEX
8
CONTOURS_MINEURES
10
133.145
20
328.146
0
VERTEX
8
CONTOURS_MINEURES
10
133.115
20
329.999
0
VERTEX
8
CONTOURS_MINEURES
10
133.115
20
331.883
0
VERTEX
8
CONTOURS_MINEURES
10
133.167
20
334.996
0
SEQEND
0
POLYLINE
8
CONTOURS_MINEURES
66
1
70
0
0
VERTEX
8
CONTOURS_MINEURES
10
225.005
20
14.104
0
VERTEX
8
CONTOURS_MINEURES
10
224.555
20
14.555
0
VERTEX
8
CONTOURS_MINEURES
10
224.179
20
15.005
0
VERTEX
8
CONTOURS_MINEURES
10
222.314
20
17.317
0
VERTEX
8
CONTOURS_MINEURES
10
219.995
20
19.356
0
VERTEX
8
CONTOURS_MINEURES
10
219.254
20
20.001
0
VERTEX
8
CONTOURS_MINEURES
10
218.131
20
23.135
0
VERTEX
8
CONTOURS_MINEURES
10
217.333
20
24.998
0
VERTEX
8
CONTOURS_MINEURES
10
217.298
20
27.699
0
VERTEX
8
CONTOURS_MINEURES
10
217.239
20
30.005
0
VERTEX
8
CONTOURS_MINEURES
10
216.223
20
33.774
0
VERTEX
8
CONTOURS_MINEURES
10
215.941
20
35.001
0
VERTEX
8
CONTOURS_MINEURES
10
215.560
20
35.565
0
VERTEX
8
CONTOURS_MINEURES
10
214.995
20
36.250
0
VERTEX
8
CONTOURS_MINEURES
10
211.907
20
39.998
0
VERTEX
8
CONTOURS_MINEURES
10
211.378
20
41.383
0
VERTEX
8
CONTOURS_MINEURES
10
209.995
20
44.198
0
VERTEX
8
CONTOURS_MINEURES
10
209.599
20
45.005
0
VERTEX
8
CONTOURS_MINEURES
10
209.198
20
49.205
0
VERTEX
8
CONTOURS_MINEURES
10
209.108
20
50.002
0
VERTEX
8
CONTOURS_MINEURES
10
208.801
20
53.805
0
VERTEX
8
CONTOURS_MINEURES
10
208.705
20
54.998
0
VERTEX
8
CONTOURS_MINEURES
10
208.616
20
56.376
0
VERTEX
8
CONTOURS_MINEURES
10
208.383
20
59.994
0
VERTEX
8
CONTOURS_MINEURES
10
208.241
20
61.751
0
VERTEX
8
CONTOURS_MINEURES
10
207.979
20
65.002
0
VERTEX
8
CONTOURS_MINEURES
10
207.840
20
67.156
0
VERTEX
8
CONTOURS_MINEURES
10
207.657
20
69.998
0
VERTEX
8
CONTOURS_MINEURES
10
207.458
20
72.459
0
VERTEX
8
CONTOURS_MINEURES
10
207.254
20
74.995
0
VERTEX
8
CONTOURS_MINEURES
10
207.117
20
77.119
0
VERTEX
8
CONTOURS_MINEURES
10
206.931
20
80.002
0
VERTEX
8
CONTOURS_MINEURES
10
206.662
20
83.333
0
VERTEX
8
CONTOURS_MINEURES
10
206.528
20
84.999
0
VERTEX
8
CONTOURS_MINEURES
10
206.435
20
86.437
0
VERTEX
8
CONTOURS_MINEURES
10
206.205
20
89.995
0
VERTEX
8
CONTOURS_MINEURES
10
206.115
20
91.116
0
VERTEX
8
CONTOURS_MINEURES
10
205.802
20
95.002
0
VERTEX
8
CONTOURS_MINEURES
10
205.513
20
99.482
0
VERTEX
8
CONTOURS_MINEURES
10
205.480
20
99.999
0
VERTEX
8
CONTOURS_MINEURES
10
205.443
20
100.446
0
VERTEX
8
CONTOURS_MINEURES
10
205.076
20
104.995
0
VERTEX
8
CONTOURS_MINEURES
10
204.996
20
106.247
0
VERTEX
8
CONTOURS_MINEURES
10
204.772
20
109.779
0
VERTEX
8
CONTOURS_MINEURES
10
204.754
20
110.003
0
VERTEX
8
CONTOURS_MINEURES
10
204.399
20
114.403
0
VERTEX
8
CONTOURS_MINEURES
10
204.361
20
114.999
0
VERTEX
8
CONTOURS_MINEURES
10
204.306
20
115.688
0
VERTEX
8
CONTOURS_MINEURES
10
204.028
20
119.996
0
VERTEX
8
CONTOURS_MINEURES
10
203.961
20
121.032
0
VERTEX
8
CONTOURS_MINEURES
10
203.647
20
125.003
0
VERTEX
8
CONTOURS_MINEURES
10
203.422
20
126.576
0
VERTEX
8
CONTOURS_MINEURES
10
202.932
20
129.999
0
VERTEX
8
CONTOURS_MINEURES
10
202.757
20
132.759
0
VERTEX
8
CONTOURS_MINEURES
10
202.577
20
134.996
0
VERTEX
8
CONTOURS_MINEURES
10
202.384
20
137.387
0
VERTEX
8
CONTOURS_MINEURES
10
202.218
20
140.003
0
VERTEX
8
CONTOURS_MINEURES
10
202.085
20
142.091
0
VERTEX
8
CONTOURS_MINEURES
10
201.851
20
145.000
0
VERTEX
8
CONTOURS_MINEURES
10
201.634
20
148.359
0
VERTEX
8
CONTOURS_MINEURES
10
201.528
20
149.996
0
VERTEX
8
CONTOURS_MINEURES
10
201.224
20
153.774
0
VERTEX
8
CONTOURS_MINEURES
10
201.125
20
155.004
0
VERTEX
8
CONTOURS_MINEURES
10
200.858
20
159.139
0
VERTEX
8
CONTOURS_MINEURES
10
200.802
20
160.000
0
VERTEX
8
CONTOURS_MINEURES
10
200.742
20
160.746
0
VERTEX
8
CONTOURS_MINEURES
10
200.399
20
164.996
0
VERTEX
8
CONTOURS_MINEURES
10
200.082
20
169.918
0
VERTEX
8
CONTOURS_MINEURES
10
200.077
20
170.004
0
VERTEX
8
CONTOURS_MINEURES
10
199.996
20
171.003
0
VERTEX
8
CONTOURS_MINEURES
10
199.673
20
175.000
0
VERTEX
8
CONTOURS_MINEURES
10
199.390
20
179.391
0
VERTEX
8
CONTOURS_MINEURES
10
199.351
20
179.997
0
VERTEX
8
CONTOURS_MINEURES
10
199.026
20
184.033
0
VERTEX
8
CONTOURS_MINEURES
10
198.948
20
185.004
0
VERTEX
8
CONTOURS_MINEURES
10
198.708
20
188.714
0
VERTEX
8
CONTOURS_MINEURES
10
198.603
20
190.001
0
VERTEX
8
CONTOURS_MINEURES
10
197.923
20
192.072
0
VERTEX
8
CONTOURS_MINEURES
10
197.549
20
194.997
0
VERTEX
8
CONTOURS_MINEURES
10
196.787
20
196.791
0
VERTEX
8
CONTOURS_MINEURES
10
194.996
20
198.335
0
VERTEX
8
CONTOURS_MINEURES
10
194.163
20
200.004
0
VERTEX
8
CONTOURS_MINEURES
10
192.909
20
202.915
0
VERTEX
8
CONTOURS_MINEURES
10
192.168
20
205.001
0
VERTEX
8
CONTOURS_MINEURES
10
191.599
20
206.602
0
VERTEX
8
CONTOURS_MINEURES
10
190.391
20
209.997
0
VERTEX
8
CONTOURS_MINEURES
10
189.997
20
211.110
0
VERTEX
8
CONTOURS_MINEURES
10
188.406
20
213.411
0
VERTEX
8
CONTOURS_MINEURES
10
187.305
20
215.005
0
VERTEX
8
CONTOURS_MINEURES
10
185.975
20
215.982
0
VERTEX
8
CONTOURS_MINEURES
10
184.997
20
216.670
0
VERTEX
8
CONTOURS_MINEURES
10
180.260
20
220.001
0
VERTEX
8
CONTOURS_MINEURES
10
180.151
20
220.155
0
VERTEX
8
CONTOURS_MINEURES
10
179.997
20
220.371
0
VERTEX
8
CONTOURS_MINEURES
10
176.792
20
224.998
0
VERTEX
8
CONTOURS_MINEURES
10
176.074
20
226.076
0
VERTEX
8
CONTOURS_MINEURES
10
174.998
20
227.594
0
VERTEX
8
CONTOURS_MINEURES
10
173.287
20
230.005
0
VERTEX
8
CONTOURS_MINEURES
10
169.998
20
234.631
0
VERTEX
8
CONTOURS_MINEURES
10
169.846
20
234.850
0
VERTEX
8
CONTOURS_MINEURES
10
169.742
20
235.001
0
VERTEX
8
CONTOURS_MINEURES
10
167.801
20
237.802
0
VERTEX
8
CONTOURS_MINEURES
10
166.280
20
239.998
0
VERTEX
8
CONTOURS_MINEURES
10
164.998
20
241.852
0
VERTEX
8
CONTOURS_MINEURES
10
163.691
20
243.696
0
VERTEX
8
CONTOURS_MINEURES
10
162.762
20
245.005
0
VERTEX
8
CONTOURS_MINEURES
10
161.614
20
246.619
0
VERTEX
8
CONTOURS_MINEURES
10
159.999
20
248.891
0
VERTEX
8
CONTOURS_MINEURES
10
159.229
20
250.002
0
VERTEX
8
CONTOURS_MINEURES
10
157.499
20
252.500
0
VERTEX
8
CONTOURS_MINEURES
10
155.768
20
254.998
0
VERTEX
8
CONTOURS_MINEURES
10
154.999
20
256.108
0
VERTEX
8
CONTOURS_MINEURES
10
152.236
20
259.994
0
VERTEX
8
CONTOURS_MINEURES
10
151.307
20
261.304
0
VERTEX
8
CONTOURS_MINEURES
10
149.999
20
263.147
0
VERTEX
8
CONTOURS_MINEURES
10
148.717
20
265.002
0
VERTEX
8
CONTOURS_MINEURES
10
145.833
20
269.166
0
VERTEX
8
CONTOURS_MINEURES
10
145.263
20
269.998
0
VERTEX
8
CONTOURS_MINEURES
10
145.153
20
270.152
0
VERTEX
8
CONTOURS_MINEURES
10
145.000
20
270.368
0
VERTEX
8
CONTOURS_MINEURES
10
143.077
20
273.073
0
VERTEX
8
CONTOURS_MINEURES
10
141.710
20
274.995
0
VERTEX
8
CONTOURS_MINEURES
10
140.000
20
277.406
0
VERTEX
8
CONTOURS_MINEURES
10
138.939
20
278.940
0
VERTEX
8
CONTOURS_MINEURES
10
138.205
20
280.002
0
VERTEX
8
CONTOURS_MINEURES
10
135.000
20
283.289
0
VERTEX
8
CONTOURS_MINEURES
10
134.435
20
284.434
0
VERTEX
8
CONTOURS_MINEURES
10
134.253
20
284.999
0
VERTEX
8
CONTOURS_MINEURES
10
130.001
20
289.995
0
VERTEX
8
CONTOURS_MINEURES
10
127.092
20
292.090
0
VERTEX
8
CONTOURS_MINEURES
10
126.323
20
295.003
0
VERTEX
8
CONTOURS_MINEURES
10
126.798
20
296.799
0
VERTEX
8
CONTOURS_MINEURES
10
127.950
20
299.999
0
VERTEX
8
CONTOURS_MINEURES
10
128.460
20
301.538
0
VERTEX
8
CONTOURS_MINEURES
10
128.951
20
304.995
0
VERTEX
8
CONTOURS_MINEURES
10
128.233
20
308.232
0
VERTEX
8
CONTOURS_MINEURES
10
128.088
20
310.003
0
VERTEX
8
CONTOURS_MINEURES
10
126.112
20
313.889
0
VERTEX
8
CONTOURS_MINEURES
10
125.630
20
314.999
0
VERTEX
8
CONTOURS_MINEURES
10
125.572
20
315.570
0
VERTEX
8
CONTOURS_MINEURES
10
125.001
20
317.125
0
VERTEX
8
CONTOURS_MINEURES
10
124.141
20
319.136
0
VERTEX
8
CONTOURS_MINEURES
10
123.866
20
319.996
0
VERTEX
8
CONTOURS_MINEURES
10
123.334
20
321.665
0
VERTEX
8
CONTOURS_MINEURES
10
122.232
20
325.003
0
VERTEX
8
CONTOURS_MINEURES
10
121.766
20
326.767
0
VERTEX
8
CONTOURS_MINEURES
10
120.621
20
329.999
0
VERTEX
8
CONTOURS_MINEURES
10
120.001
20
331.793
0
VERTEX
8
CONTOURS_MINEURES
10
118.581
20
333.576
0
VERTEX
8
CONTOURS_MINEURES
10
117.450
20
334.996
0
SEQEND
0
POLYLINE
8
CONTOURS_MINEURES
66
1
70
0
0
VERTEX
8
CONTOURS_MINEURES
10
225.005
20
5.366
0
VERTEX
8
CONTOURS_MINEURES
10
223.961
20
6.042
0
VERTEX
8
CONTOURS_MINEURES
10
219.995
20
8.019
0
VERTEX
8
CONTOURS_MINEURES
10
218.984
20
8.987
0
VERTEX
8
CONTOURS_MINEURES
10
218.185
20
9.997
0
VERTEX
8
CONTOURS_MINEURES
10
214.995
20
13.352
0
VERTEX
8
CONTOURS_MINEURES
10
213.007
20
15.005
0
VERTEX
8
CONTOURS_MINEURES
10
211.377
20
16.385
0
VERTEX
8
CONTOURS_MINEURES
10
209.995
20
17.478
0
VERTEX
8
CONTOURS_MINEURES
10
206.886
20
20.001
0
VERTEX
8
CONTOURS_MINEURES
10
204.996
20
23.873
0
VERTEX
8
CONTOURS_MINEURES
10
204.624
20
24.626
0
VERTEX
8
CONTOURS_MINEURES
10
204.411
20
24.998
0
VERTEX
8
CONTOURS_MINEURES
10
204.396
20
25.598
0
VERTEX
8
CONTOURS_MINEURES
10
204.281
20
30.005
0
VERTEX
8
CONTOURS_MINEURES
10
203.169
20
33.176
0
VERTEX
8
CONTOURS_MINEURES
10
202.428
20
35.001
0
VERTEX
8
CONTOURS_MINEURES
10
199.996
20
37.535
0
VERTEX
8
CONTOURS_MINEURES
10
198.781
20
38.783
0
VERTEX
8
CONTOURS_MINEURES
10
197.496
20
39.998
0
VERTEX
8
CONTOURS_MINEURES
10
194.996
20
43.575
0
VERTEX
8
CONTOURS_MINEURES
10
194.628
20
44.636
0
VERTEX
8
CONTOURS_MINEURES
10
194.462
20
45.005
0
VERTEX
8
CONTOURS_MINEURES
10
194.116
20
49.122
0
VERTEX
8
CONTOURS_MINEURES
10
193.988
20
50.002
0
VERTEX
8
CONTOURS_MINEURES
10
193.955
20
51.043
0
VERTEX
8
CONTOURS_MINEURES
10
193.827
20
54.998
0
VERTEX
8
CONTOURS_MINEURES
10
193.679
20
58.678
0
VERTEX
8
CONTOURS_MINEURES
10
193.625
20
59.994
0
VERTEX
8
CONTOURS_MINEURES
10
193.512
20
63.515
0
VERTEX
8
CONTOURS_MINEURES
10
193.464
20
65.002
0
VERTEX
8
CONTOURS_MINEURES
10
193.330
20
68.333
0
VERTEX
8
CONTOURS_MINEURES
10
193.263
20
69.998
0
VERTEX
8
CONTOURS_MINEURES
10
193.205
20
71.789
0
VERTEX
8
CONTOURS_MINEURES
10
193.101
20
74.995
0
VERTEX
8
CONTOURS_MINEURES
10
193.022
20
76.972
0
VERTEX
8
CONTOURS_MINEURES
10
192.900
20
80.002
0
VERTEX
8
CONTOURS_MINEURES
10
192.830
20
82.167
0
VERTEX
8
CONTOURS_MINEURES
10
192.738
20
84.999
0
VERTEX
8
CONTOURS_MINEURES
10
192.632
20
87.632
0
VERTEX
8
CONTOURS_MINEURES
10
192.537
20
89.995
0
VERTEX
8
CONTOURS_MINEURES
10
192.455
20
92.540
0
VERTEX
8
CONTOURS_MINEURES
10
192.376
20
95.002
0
VERTEX
8
CONTOURS_MINEURES
10
192.283
20
97.288
0
VERTEX
8
CONTOURS_MINEURES
10
192.174
20
99.999
0
VERTEX
8
CONTOURS_MINEURES
10
192.106
20
102.107
0
VERTEX
8
CONTOURS_MINEURES
10
192.013
20
104.995
0
VERTEX
8
CONTOURS_MINEURES
10
191.935
20
106.936
0
VERTEX
8
CONTOURS_MINEURES
10
191.811
20
110.003
0
VERTEX
8
CONTOURS_MINEURES
10
191.705
20
113.292
0
VERTEX
8
CONTOURS_MINEURES
10
191.650
20
114.999
0
VERTEX
8
CONTOURS_MINEURES
10
191.509
20
118.484
0
VERTEX
8
CONTOURS_MINEURES
10
191.448
20
119.996
0
VERTEX
8
CONTOURS_MINEURES
10
191.403
20
121.404
0
VERTEX
8
CONTOURS_MINEURES
10
191.287
20
125.003
0
VERTEX
8
CONTOURS_MINEURES
10
191.200
20
126.205
0
VERTEX
8
CONTOURS_MINEURES
10
190.924
20
129.999
0
VERTEX
8
CONTOURS_MINEURES
10
190.753
20
134.240
0
VERTEX
8
CONTOURS_MINEURES
10
190.722
20
134.996
0
VERTEX
8
CONTOURS_MINEURES
10
190.700
20
135.700
0
VERTEX
8
CONTOURS_MINEURES
10
190.561
20
140.003
0
VERTEX
8
CONTOURS_MINEURES
10
190.413
20
144.583
0
VERTEX
8
CONTOURS_MINEURES
10
190.397
20
145.000
0
VERTEX
8
CONTOURS_MINEURES
10
190.384
20
145.387
0
VERTEX
8
CONTOURS_MINEURES
10
190.198
20
149.996
0
VERTEX
8
CONTOURS_MINEURES
10
190.190
20
150.190
0
VERTEX
8
CONTOURS_MINEURES
10
190.037
20
155.004
0
VERTEX
8
CONTOURS_MINEURES
10
189.997
20
156.003
0
VERTEX
8
CONTOURS_MINEURES
10
189.674
20
160.000
0
VERTEX
8
CONTOURS_MINEURES
10
189.391
20
164.391
0
VERTEX
8
CONTOURS_MINEURES
10
189.352
20
164.996
0
VERTEX
8
CONTOURS_MINEURES
10
189.295
20
165.699
0
VERTEX
8
CONTOURS_MINEURES
10
188.948
20
170.004
0
VERTEX
8
CONTOURS_MINEURES
10
188.856
20
171.143
0
VERTEX
8
CONTOURS_MINEURES
10
188.603
20
175.000
0
VERTEX
8
CONTOURS_MINEURES
10
188.280
20
178.282
0
VERTEX
8
CONTOURS_MINEURES
10
187.650
20
179.997
0
VERTEX
8
CONTOURS_MINEURES
10
184.997
20
183.423
0
VERTEX
8
CONTOURS_MINEURES
10
184.102
20
184.107
0
VERTEX
8
CONTOURS_MINEURES
10
183.122
20
185.004
0
VERTEX
8
CONTOURS_MINEURES
10
181.512
20
186.518
0
VERTEX
8
CONTOURS_MINEURES
10
179.997
20
188.450
0
VERTEX
8
CONTOURS_MINEURES
10
178.813
20
190.001
0
VERTEX
8
CONTOURS_MINEURES
10
177.228
20
192.230
0
VERTEX
8
CONTOURS_MINEURES
10
175.261
20
194.997
0
VERTEX
8
CONTOURS_MINEURES
10
175.151
20
195.151
0
VERTEX
8
CONTOURS_MINEURES
10
174.998
20
195.368
0
VERTEX
8
CONTOURS_MINEURES
10
171.708
20
200.004
0
VERTEX
8
CONTOURS_MINEURES
10
170.998
20
201.004
0
VERTEX
8
CONTOURS_MINEURES
10
169.998
20
202.503
0
VERTEX
8
CONTOURS_MINEURES
10
168.288
20
205.001
0
VERTEX
8
CONTOURS_MINEURES
10
166.921
20
206.923
0
VERTEX
8
CONTOURS_MINEURES
10
164.998
20
209.627
0
VERTEX
8
CONTOURS_MINEURES
10
164.844
20
209.844
0
VERTEX
8
CONTOURS_MINEURES
10
164.735
20
209.997
0
VERTEX
8
CONTOURS_MINEURES
10
162.768
20
212.771
0
VERTEX
8
CONTOURS_MINEURES
10
161.183
20
215.005
0
VERTEX
8
CONTOURS_MINEURES
10
160.488
20
215.493
0
VERTEX
8
CONTOURS_MINEURES
10
159.999
20
215.853
0
VERTEX
8
CONTOURS_MINEURES
10
157.607
20
217.612
0
VERTEX
8
CONTOURS_MINEURES
10
154.999
20
219.446
0
VERTEX
8
CONTOURS_MINEURES
10
154.209
20
220.001
0
VERTEX
8
CONTOURS_MINEURES
10
152.461
20
222.461
0
VERTEX
8
CONTOURS_MINEURES
10
150.768
20
224.998
0
VERTEX
8
CONTOURS_MINEURES
10
149.999
20
226.110
0
VERTEX
8
CONTOURS_MINEURES
10
148.384
20
228.387
0
VERTEX
8
CONTOURS_MINEURES
10
147.236
20
230.005
0
VERTEX
8
CONTOURS_MINEURES
10
145.000
20
233.151
0
VERTEX
8
CONTOURS_MINEURES
10
144.230
20
234.233
0
VERTEX
8
CONTOURS_MINEURES
10
143.718
20
235.001
0
VERTEX
8
CONTOURS_MINEURES
10
142.197
20
237.197
0
VERTEX
8
CONTOURS_MINEURES
10
140.256
20
239.998
0
VERTEX
8
CONTOURS_MINEURES
10
140.000
20
240.369
0
VERTEX
8
CONTOURS_MINEURES
10
138.077
20
243.079
0
VERTEX
8
CONTOURS_MINEURES
10
136.711
20
245.005
0
VERTEX
8
CONTOURS_MINEURES
10
135.000
20
247.411
0
VERTEX
8
CONTOURS_MINEURES
10
134.327
20
249.329
0
VERTEX
8
CONTOURS_MINEURES
10
134.091
20
250.002
0
VERTEX
8
CONTOURS_MINEURES
10
133.600
20
251.401
0
VERTEX
8
CONTOURS_MINEURES
10
132.338
20
254.998
0
VERTEX
8
CONTOURS_MINEURES
10
131.731
20
256.728
0
VERTEX
8
CONTOURS_MINEURES
10
130.585
20
259.994
0
VERTEX
8
CONTOURS_MINEURES
10
130.437
20
260.432
0
VERTEX
8
CONTOURS_MINEURES
10
130.001
20
261.664
0
VERTEX
8
CONTOURS_MINEURES
10
128.637
20
263.636
0
VERTEX
8
CONTOURS_MINEURES
10
127.693
20
265.002
0
VERTEX
8
CONTOURS_MINEURES
10
126.592
20
266.592
0
VERTEX
8
CONTOURS_MINEURES
10
125.001
20
268.888
0
VERTEX
8
CONTOURS_MINEURES
10
124.539
20
269.537
0
VERTEX
8
CONTOURS_MINEURES
10
124.211
20
269.998
0
VERTEX
8
CONTOURS_MINEURES
10
122.463
20
272.458
0
VERTEX
8
CONTOURS_MINEURES
10
120.659
20
274.995
0
VERTEX
8
CONTOURS_MINEURES
10
120.386
20
275.380
0
VERTEX
8
CONTOURS_MINEURES
10
120.001
20
275.996
0
VERTEX
8
CONTOURS_MINEURES
10
118.552
20
280.002
0
VERTEX
8
CONTOURS_MINEURES
10
117.694
20
282.693
0
VERTEX
8
CONTOURS_MINEURES
10
117.501
20
284.999
0
VERTEX
8
CONTOURS_MINEURES
10
117.040
20
287.036
0
VERTEX
8
CONTOURS_MINEURES
10
116.921
20
289.995
0
VERTEX
8
CONTOURS_MINEURES
10
117.023
20
292.019
0
VERTEX
8
CONTOURS_MINEURES
10
117.433
20
295.003
0
VERTEX
8
CONTOURS_MINEURES
10
118.218
20
296.785
0
VERTEX
8
CONTOURS_MINEURES
10
119.765
20
299.999
0
VERTEX
8
CONTOURS_MINEURES
10
120.001
20
300.756
0
VERTEX
8
CONTOURS_MINEURES
10
120.960
20
304.037
0
VERTEX
8
CONTOURS_MINEURES
10
121.401
20
304.995
0
VERTEX
8
CONTOURS_MINEURES
10
121.218
20
306.215
0
VERTEX
8
CONTOURS_MINEURES
10
120.113
20
310.003
0
VERTEX
8
CONTOURS_MINEURES
10
120.056
20
310.058
0
VERTEX
8
CONTOURS_MINEURES
10
120.001
20
310.142
0
VERTEX
8
CONTOURS_MINEURES
10
119.566
20
310.437
0
VERTEX
8
CONTOURS_MINEURES
10
115.001
20
313.637
0
VERTEX
8
CONTOURS_MINEURES
10
114.056
20
314.054
0
VERTEX
8
CONTOURS_MINEURES
10
111.820
20
314.999
0
VERTEX
8
CONTOURS_MINEURES
10
110.847
20
315.844
0
VERTEX
8
CONTOURS_MINEURES
10
110.002
20
316.537
0
VERTEX
8
CONTOURS_MINEURES
10
105.647
20
319.996
0
VERTEX
8
CONTOURS_MINEURES
10
105.288
20
320.282
0
VERTEX
8
CONTOURS_MINEURES
10
105.002
20
320.509
0
VERTEX
8
CONTOURS_MINEURES
10
102.502
20
322.499
0
VERTEX
8
CONTOURS_MINEURES
10
100.002
20
324.489
0
VERTEX
8
CONTOURS_MINEURES
10
99.713
20
324.713
0
VERTEX
8
CONTOURS_MINEURES
10
99.357
20
325.003
0
VERTEX
8
CONTOURS_MINEURES
10
95.003
20
328.462
0
VERTEX
8
CONTOURS_MINEURES
10
93.067
20
329.999
0
VERTEX
8
CONTOURS_MINEURES
10
91.360
20
331.356
0
VERTEX
8
CONTOURS_MINEURES
10
90.003
20
332.434
0
VERTEX
8
CONTOURS_MINEURES
10
86.777
20
334.996
0
SEQEND
0
POLYLINE
8
CONTOURS_MINEURES
66
1
70
0
0
VERTEX
8
CONTOURS_MINEURES
10
-0.002
20
8.498
0
VERTEX
8
CONTOURS_MINEURES
10
1.589
20
6.591
0
VERTEX
8
CONTOURS_MINEURES
10
2.820
20
5.001
0
VERTEX
8
CONTOURS_MINEURES
10
4.998
20
3.796
0
VERTEX
8
CONTOURS_MINEURES
10
6.929
20
1.935
0
VERTEX
8
CONTOURS_MINEURES
10
9.997
20
0.677
0
VERTEX
8
CONTOURS_MINEURES
10
11.058
20
1.064
0
VERTEX
8
CONTOURS_MINEURES
10
14.997
20
1.582
0
VERTEX
8
CONTOURS_MINEURES
10
19.429
20
0.572
0
VERTEX
8
CONTOURS_MINEURES
10
19.997
20
0.773
0
VERTEX
8
CONTOURS_MINEURES
10
20.311
20
0.319
0
VERTEX
8
CONTOURS_MINEURES
10
20.424
20
0.004
0
SEQEND
0
POLYLINE
8
CONTOURS_MINEURES
66
1
70
0
0
VERTEX
8
CONTOURS_MINEURES
10
219.783
20
0.004
0
VERTEX
8
CONTOURS_MINEURES
10
214.995
20
2.884
0
VERTEX
8
CONTOURS_MINEURES
10
213.799
20
3.806
0
VERTEX
8
CONTOURS_MINEURES
10
212.568
20
5.001
0
VERTEX
8
CONTOURS_MINEURES
10
209.995
20
7.788
0
VERTEX
8
CONTOURS_MINEURES
10
208.890
20
8.893
0
VERTEX
8
CONTOURS_MINEURES
10
207.465
20
9.997
0
VERTEX
8
CONTOURS_MINEURES
10
206.069
20
11.072
0
VERTEX
8
CONTOURS_MINEURES
10
204.996
20
11.898
0
VERTEX
8
CONTOURS_MINEURES
10
203.242
20
13.248
0
VERTEX
8
CONTOURS_MINEURES
10
200.911
20
15.005
0
VERTEX
8
CONTOURS_MINEURES
10
199.996
20
15.732
0
VERTEX
8
CONTOURS_MINEURES
10
197.631
20
17.637
0
VERTEX
8
CONTOURS_MINEURES
10
194.996
20
19.713
0
VERTEX
8
CONTOURS_MINEURES
10
194.812
20
20.001
0
VERTEX
8
CONTOURS_MINEURES
10
194.716
20
20.281
0
VERTEX
8
CONTOURS_MINEURES
10
193.255
20
24.998
0
VERTEX
8
CONTOURS_MINEURES
10
193.193
20
28.198
0
VERTEX
8
CONTOURS_MINEURES
10
193.146
20
30.005
0
VERTEX
8
CONTOURS_MINEURES
10
192.452
20
32.548
0
VERTEX
8
CONTOURS_MINEURES
10
191.880
20
35.001
0
VERTEX
8
CONTOURS_MINEURES
10
189.997
20
38.480
0
VERTEX
8
CONTOURS_MINEURES
10
189.207
20
39.209
0
VERTEX
8
CONTOURS_MINEURES
10
188.307
20
39.998
0
VERTEX
8
CONTOURS_MINEURES
10
184.997
20
43.734
0
VERTEX
8
CONTOURS_MINEURES
10
184.400
20
44.407
0
VERTEX
8
CONTOURS_MINEURES
10
183.803
20
45.005
0
VERTEX
8
CONTOURS_MINEURES
10
182.997
20
47.004
0
VERTEX
8
CONTOURS_MINEURES
10
181.902
20
50.002
0
VERTEX
8
CONTOURS_MINEURES
10
181.788
20
51.791
0
VERTEX
8
CONTOURS_MINEURES
10
181.529
20
54.998
0
VERTEX
8
CONTOURS_MINEURES
10
181.415
20
56.415
0
VERTEX
8
CONTOURS_MINEURES
10
181.188
20
59.994
0
VERTEX
8
CONTOURS_MINEURES
10
180.859
20
64.139
0
VERTEX
8
CONTOURS_MINEURES
10
180.804
20
65.002
0
VERTEX
8
CONTOURS_MINEURES
10
180.744
20
65.748
0
VERTEX
8
CONTOURS_MINEURES
10
180.473
20
69.998
0
VERTEX
8
CONTOURS_MINEURES
10
180.445
20
70.446
0
VERTEX
8
CONTOURS_MINEURES
10
180.078
20
74.995
0
VERTEX
8
CONTOURS_MINEURES
10
179.997
20
76.247
0
VERTEX
8
CONTOURS_MINEURES
10
179.755
20
80.002
0
VERTEX
8
CONTOURS_MINEURES
10
179.400
20
84.402
0
VERTEX
8
CONTOURS_MINEURES
10
179.352
20
84.999
0
VERTEX
8
CONTOURS_MINEURES
10
179.308
20
85.688
0
VERTEX
8
CONTOURS_MINEURES
10
179.030
20
89.995
0
VERTEX
8
CONTOURS_MINEURES
10
178.945
20
91.049
0
VERTEX
8
CONTOURS_MINEURES
10
178.626
20
95.002
0
VERTEX
8
CONTOURS_MINEURES
10
178.406
20
98.409
0
VERTEX
8
CONTOURS_MINEURES
10
178.304
20
99.999
0
VERTEX
8
CONTOURS_MINEURES
10
178.057
20
103.056
0
VERTEX
8
CONTOURS_MINEURES
10
177.901
20
104.995
0
VERTEX
8
CONTOURS_MINEURES
10
177.756
20
107.240
0
VERTEX
8
CONTOURS_MINEURES
10
177.578
20
110.003
0
VERTEX
8
CONTOURS_MINEURES
10
177.386
20
112.389
0
VERTEX
8
CONTOURS_MINEURES
10
177.175
20
114.999
0
VERTEX
8
CONTOURS_MINEURES
10
177.043
20
117.043
0
VERTEX
8
CONTOURS_MINEURES
10
176.852
20
119.996
0
VERTEX
8
CONTOURS_MINEURES
10
176.714
20
121.715
0
VERTEX
8
CONTOURS_MINEURES
10
176.449
20
125.003
0
VERTEX
8
CONTOURS_MINEURES
10
176.265
20
126.270
0
VERTEX
8
CONTOURS_MINEURES
10
175.723
20
129.999
0
VERTEX
8
CONTOURS_MINEURES
10
175.429
20
134.565
0
VERTEX
8
CONTOURS_MINEURES
10
175.401
20
134.996
0
VERTEX
8
CONTOURS_MINEURES
10
174.998
20
140.003
0
VERTEX
8
CONTOURS_MINEURES
10
174.699
20
144.701
0
VERTEX
8
CONTOURS_MINEURES
10
174.675
20
145.000
0
VERTEX
8
CONTOURS_MINEURES
10
174.653
20
145.344
0
VERTEX
8
CONTOURS_MINEURES
10
174.283
20
149.996
0
VERTEX
8
CONTOURS_MINEURES
10
174.222
20
150.773
0
VERTEX
8
CONTOURS_MINEURES
10
173.949
20
155.004
0
VERTEX
8
CONTOURS_MINEURES
10
173.857
20
156.143
0
VERTEX
8
CONTOURS_MINEURES
10
173.546
20
160.000
0
VERTEX
8
CONTOURS_MINEURES
10
173.281
20
163.281
0
VERTEX
8
CONTOURS_MINEURES
10
172.698
20
164.996
0
VERTEX
8
CONTOURS_MINEURES
10
172.013
20
167.014
0
VERTEX
8
CONTOURS_MINEURES
10
169.998
20
168.554
0
VERTEX
8
CONTOURS_MINEURES
10
168.102
20
170.004
0
VERTEX
8
CONTOURS_MINEURES
10
166.362
20
171.367
0
VERTEX
8
CONTOURS_MINEURES
10
164.998
20
172.905
0
VERTEX
8
CONTOURS_MINEURES
10
163.288
20
175.000
0
VERTEX
8
CONTOURS_MINEURES
10
161.892
20
176.893
0
VERTEX
8
CONTOURS_MINEURES
10
159.999
20
179.627
0
VERTEX
8
CONTOURS_MINEURES
10
159.845
20
179.843
0
VERTEX
8
CONTOURS_MINEURES
10
159.735
20
179.997
0
VERTEX
8
CONTOURS_MINEURES
10
157.768
20
182.770
0
VERTEX
8
CONTOURS_MINEURES
10
156.183
20
185.004
0
VERTEX
8
CONTOURS_MINEURES
10
154.999
20
186.670
0
VERTEX
8
CONTOURS_MINEURES
10
153.635
20
188.638
0
VERTEX
8
CONTOURS_MINEURES
10
152.691
20
190.001
0
VERTEX
8
CONTOURS_MINEURES
10
149.999
20
193.887
0
VERTEX
8
CONTOURS_MINEURES
10
149.210
20
194.997
0
VERTEX
8
CONTOURS_MINEURES
10
147.461
20
197.462
0
VERTEX
8
CONTOURS_MINEURES
10
145.657
20
200.004
0
VERTEX
8
CONTOURS_MINEURES
10
145.000
20
200.930
0
VERTEX
8
CONTOURS_MINEURES
10
143.333
20
203.335
0
VERTEX
8
CONTOURS_MINEURES
10
142.179
20
205.001
0
VERTEX
8
CONTOURS_MINEURES
10
140.000
20
208.147
0
VERTEX
8
CONTOURS_MINEURES
10
139.231
20
209.229
0
VERTEX
8
CONTOURS_MINEURES
10
138.684
20
209.997
0
VERTEX
8
CONTOURS_MINEURES
10
137.154
20
212.154
0
VERTEX
8
CONTOURS_MINEURES
10
135.132
20
215.005
0
VERTEX
8
CONTOURS_MINEURES
10
135.000
20
215.099
0
VERTEX
8
CONTOURS_MINEURES
10
133.000
20
218.003
0
VERTEX
8
CONTOURS_MINEURES
10
131.579
20
220.001
0
VERTEX
8
CONTOURS_MINEURES
10
130.001
20
224.442
0
VERTEX
8
CONTOURS_MINEURES
10
129.773
20
224.770
0
VERTEX
8
CONTOURS_MINEURES
10
129.616
20
224.998
0
VERTEX
8
CONTOURS_MINEURES
10
127.770
20
227.771
0
VERTEX
8
CONTOURS_MINEURES
10
126.185
20
230.005
0
VERTEX
8
CONTOURS_MINEURES
10
125.001
20
231.670
0
VERTEX
8
CONTOURS_MINEURES
10
123.616
20
233.618
0
VERTEX
8
CONTOURS_MINEURES
10
122.633
20
235.001
0
VERTEX
8
CONTOURS_MINEURES
10
120.001
20
238.845
0
VERTEX
8
CONTOURS_MINEURES
10
119.540
20
239.537
0
VERTEX
8
CONTOURS_MINEURES
10
119.212
20
239.998
0
VERTEX
8
CONTOURS_MINEURES
10
117.463
20
242.463
0
VERTEX
8
CONTOURS_MINEURES
10
115.659
20
245.005
0
VERTEX
8
CONTOURS_MINEURES
10
115.001
20
245.931
0
VERTEX
8
CONTOURS_MINEURES
10
113.335
20
248.336
0
VERTEX
8
CONTOURS_MINEURES
10
112.319
20
250.002
0
VERTEX
8
CONTOURS_MINEURES
10
110.002
20
254.748
0
VERTEX
8
CONTOURS_MINEURES
10
109.949
20
254.945
0
VERTEX
8
CONTOURS_MINEURES
10
109.944
20
254.998
0
VERTEX
8
CONTOURS_MINEURES
10
109.169
20
259.162
0
VERTEX
8
CONTOURS_MINEURES
10
109.107
20
259.994
0
VERTEX
8
CONTOURS_MINEURES
10
108.647
20
263.645
0
VERTEX
8
CONTOURS_MINEURES
10
108.566
20
265.002
0
VERTEX
8
CONTOURS_MINEURES
10
108.491
20
266.511
0
VERTEX
8
CONTOURS_MINEURES
10
108.223
20
269.998
0
VERTEX
8
CONTOURS_MINEURES
10
108.095
20
271.904
0
VERTEX
8
CONTOURS_MINEURES
10
107.915
20
274.995
0
VERTEX
8
CONTOURS_MINEURES
10
107.806
20
277.803
0
VERTEX
8
CONTOURS_MINEURES
10
107.475
20
280.002
0
VERTEX
8
CONTOURS_MINEURES
10
107.101
20
282.901
0
VERTEX
8
CONTOURS_MINEURES
10
106.956
20
284.999
0
VERTEX
8
CONTOURS_MINEURES
10
106.810
20
286.806
0
VERTEX
8
CONTOURS_MINEURES
10
106.631
20
289.995
0
VERTEX
8
CONTOURS_MINEURES
10
105.240
20
294.764
0
VERTEX
8
CONTOURS_MINEURES
10
105.270
20
295.003
0
VERTEX
8
CONTOURS_MINEURES
10
105.308
20
295.308
0
VERTEX
8
CONTOURS_MINEURES
10
105.108
20
299.999
0
VERTEX
8
CONTOURS_MINEURES
10
105.002
20
300.112
0
VERTEX
8
CONTOURS_MINEURES
10
102.715
20
302.710
0
VERTEX
8
CONTOURS_MINEURES
10
101.643
20
304.995
0
VERTEX
8
CONTOURS_MINEURES
10
100.002
20
306.589
0
VERTEX
8
CONTOURS_MINEURES
10
98.348
20
308.346
0
VERTEX
8
CONTOURS_MINEURES
10
96.834
20
310.003
0
VERTEX
8
CONTOURS_MINEURES
10
95.003
20
311.059
0
VERTEX
8
CONTOURS_MINEURES
10
92.614
20
312.612
0
VERTEX
8
CONTOURS_MINEURES
10
90.003
20
313.534
0
VERTEX
8
CONTOURS_MINEURES
10
87.146
20
314.999
0
VERTEX
8
CONTOURS_MINEURES
10
86.226
20
316.221
0
VERTEX
8
CONTOURS_MINEURES
10
85.003
20
317.227
0
VERTEX
8
CONTOURS_MINEURES
10
83.681
20
318.674
0
VERTEX
8
CONTOURS_MINEURES
10
82.375
20
319.996
0
VERTEX
8
CONTOURS_MINEURES
10
81.306
20
321.300
0
VERTEX
8
CONTOURS_MINEURES
10
80.004
20
322.466
0
VERTEX
8
CONTOURS_MINEURES
10
77.599
20
325.003
0
VERTEX
8
CONTOURS_MINEURES
10
76.389
20
326.387
0
VERTEX
8
CONTOURS_MINEURES
10
75.004
20
327.699
0
VERTEX
8
CONTOURS_MINEURES
10
72.817
20
329.999
0
VERTEX
8
CONTOURS_MINEURES
10
70.004
20
332.958
0
VERTEX
8
CONTOURS_MINEURES
10
68.985
20
334.996
0
SEQEND
0
POLYLINE
8
CONTOURS_MINEURES
66
1
70
0
0
VERTEX
8
CONTOURS_MINEURES
10
-0.002
20
24.175
0
VERTEX
8
CONTOURS_MINEURES
10
2.498
20
22.499
0
VERTEX
8
CONTOURS_MINEURES
10
4.998
20
20.887
0
VERTEX
8
CONTOURS_MINEURES
10
5.376
20
20.379
0
VERTEX
8
CONTOURS_MINEURES
10
5.524
20
20.001
0
VERTEX
8
CONTOURS_MINEURES
10
7.052
20
17.058
0
VERTEX
8
CONTOURS_MINEURES
10
9.366
20
15.005
0
VERTEX
8
CONTOURS_MINEURES
10
9.559
20
14.566
0
VERTEX
8
CONTOURS_MINEURES
10
9.997
20
13.539
0
VERTEX
8
CONTOURS_MINEURES
10
12.854
20
15.005
0
VERTEX
8
CONTOURS_MINEURES
10
14.646
20
15.356
0
VERTEX
8
CONTOURS_MINEURES
10
14.997
20
15.413
0
VERTEX
8
CONTOURS_MINEURES
10
15.410
20
15.417
0
VERTEX
8
CONTOURS_MINEURES
10
16.122
20
15.005
0
VERTEX
8
CONTOURS_MINEURES
10
19.997
20
13.371
0
VERTEX
8
CONTOURS_MINEURES
10
21.960
20
11.963
0
VERTEX
8
CONTOURS_MINEURES
10
24.047
20
9.997
0
VERTEX
8
CONTOURS_MINEURES
10
24.996
20
8.862
0
VERTEX
8
CONTOURS_MINEURES
10
26.731
20
6.734
0
VERTEX
8
CONTOURS_MINEURES
10
27.336
20
5.001
0
VERTEX
8
CONTOURS_MINEURES
10
28.442
20
1.557
0
VERTEX
8
CONTOURS_MINEURES
10
29.005
20
0.004
0
SEQEND
0
POLYLINE
8
CONTOURS_MINEURES
66
1
70
0
0
VERTEX
8
CONTOURS_MINEURES
10
207.815
20
0.004
0
VERTEX
8
CONTOURS_MINEURES
10
204.996
20
2.526
0
VERTEX
8
CONTOURS_MINEURES
10
203.613
20
3.619
0
VERTEX
8
CONTOURS_MINEURES
10
201.937
20
5.001
0
VERTEX
8
CONTOURS_MINEURES
10
199.996
20
6.514
0
VERTEX
8
CONTOURS_MINEURES
10
195.418
20
9.997
0
VERTEX
8
CONTOURS_MINEURES
10
195.179
20
10.180
0
VERTEX
8
CONTOURS_MINEURES
10
194.996
20
10.319
0
VERTEX
8
CONTOURS_MINEURES
10
191.906
20
15.005
0
VERTEX
8
CONTOURS_MINEURES
10
189.997
20
17.974
0
VERTEX
8
CONTOURS_MINEURES
10
188.859
20
18.864
0
VERTEX
8
CONTOURS_MINEURES
10
187.375
20
20.001
0
VERTEX
8
CONTOURS_MINEURES
10
184.997
20
23.249
0
VERTEX
8
CONTOURS_MINEURES
10
184.258
20
24.259
0
VERTEX
8
CONTOURS_MINEURES
10
183.651
20
24.998
0
VERTEX
8
CONTOURS_MINEURES
10
183.559
20
26.438
0
VERTEX
8
CONTOURS_MINEURES
10
183.330
20
30.005
0
VERTEX
8
CONTOURS_MINEURES
10
180.182
20
34.816
0
VERTEX
8
CONTOURS_MINEURES
10
180.066
20
35.001
0
VERTEX
8
CONTOURS_MINEURES
10
180.030
20
35.034
0
VERTEX
8
CONTOURS_MINEURES
10
179.997
20
35.062
0
VERTEX
8
CONTOURS_MINEURES
10
179.581
20
35.418
0
VERTEX
8
CONTOURS_MINEURES
10
174.998
20
39.343
0
VERTEX
8
CONTOURS_MINEURES
10
174.223
20
39.998
0
VERTEX
8
CONTOURS_MINEURES
10
172.141
20
42.144
0
VERTEX
8
CONTOURS_MINEURES
10
169.998
20
44.290
0
VERTEX
8
CONTOURS_MINEURES
10
169.273
20
45.005
0
VERTEX
8
CONTOURS_MINEURES
10
167.725
20
47.276
0
VERTEX
8
CONTOURS_MINEURES
10
165.951
20
50.002
0
VERTEX
8
CONTOURS_MINEURES
10
165.445
20
54.552
0
VERTEX
8
CONTOURS_MINEURES
10
165.401
20
54.998
0
VERTEX
8
CONTOURS_MINEURES
10
165.377
20
55.377
0
VERTEX
8
CONTOURS_MINEURES
10
165.079
20
59.994
0
VERTEX
8
CONTOURS_MINEURES
10
164.998
20
61.246
0
VERTEX
8
CONTOURS_MINEURES
10
164.771
20
64.774
0
VERTEX
8
CONTOURS_MINEURES
10
164.756
20
65.002
0
VERTEX
8
CONTOURS_MINEURES
10
164.735
20
65.265
0
VERTEX
8
CONTOURS_MINEURES
10
164.353
20
69.998
0
VERTEX
8
CONTOURS_MINEURES
10
164.309
20
70.688
0
VERTEX
8
CONTOURS_MINEURES
10
164.031
20
74.995
0
VERTEX
8
CONTOURS_MINEURES
10
163.946
20
76.049
0
VERTEX
8
CONTOURS_MINEURES
10
163.627
20
80.002
0
VERTEX
8
CONTOURS_MINEURES
10
163.533
20
81.467
0
VERTEX
8
CONTOURS_MINEURES
10
163.305
20
84.999
0
VERTEX
8
CONTOURS_MINEURES
10
163.156
20
86.839
0
VERTEX
8
CONTOURS_MINEURES
10
162.902
20
89.995
0
VERTEX
8
CONTOURS_MINEURES
10
162.726
20
92.726
0
VERTEX
8
CONTOURS_MINEURES
10
162.579
20
95.002
0
VERTEX
8
CONTOURS_MINEURES
10
162.386
20
97.389
0
VERTEX
8
CONTOURS_MINEURES
10
162.176
20
99.999
0
VERTEX
8
CONTOURS_MINEURES
10
161.981
20
103.014
0
VERTEX
8
CONTOURS_MINEURES
10
161.853
20
104.995
0
VERTEX
8
CONTOURS_MINEURES
10
161.577
20
108.421
0
VERTEX
8
CONTOURS_MINEURES
10
161.450
20
110.003
0
VERTEX
8
CONTOURS_MINEURES
10
161.362
20
111.365
0
VERTEX
8
CONTOURS_MINEURES
10
161.128
20
114.999
0
VERTEX
8
CONTOURS_MINEURES
10
160.788
20
119.207
0
VERTEX
8
CONTOURS_MINEURES
10
160.724
20
119.996
0
VERTEX
8
CONTOURS_MINEURES
10
160.430
20
124.571
0
VERTEX
8
CONTOURS_MINEURES
10
160.402
20
125.003
0
VERTEX
8
CONTOURS_MINEURES
10
160.351
20
125.355
0
VERTEX
8
CONTOURS_MINEURES
10
159.999
20
127.779
0
VERTEX
8
CONTOURS_MINEURES
10
159.676
20
129.999
0
VERTEX
8
CONTOURS_MINEURES
10
159.327
20
134.325
0
VERTEX
8
CONTOURS_MINEURES
10
159.273
20
134.996
0
VERTEX
8
CONTOURS_MINEURES
10
159.014
20
139.017
0
VERTEX
8
CONTOURS_MINEURES
10
158.950
20
140.003
0
VERTEX
8
CONTOURS_MINEURES
10
158.858
20
141.143
0
VERTEX
8
CONTOURS_MINEURES
10
158.547
20
145.000
0
VERTEX
8
CONTOURS_MINEURES
10
158.084
20
146.913
0
VERTEX
8
CONTOURS_MINEURES
10
157.787
20
149.996
0
VERTEX
8
CONTOURS_MINEURES
10
157.163
20
152.164
0
VERTEX
8
CONTOURS_MINEURES
10
154.999
20
153.627
0
VERTEX
8
CONTOURS_MINEURES
10
153.102
20
155.004
0
VERTEX
8
CONTOURS_MINEURES
10
149.999
20
157.649
0
VERTEX
8
CONTOURS_MINEURES
10
148.787
20
158.789
0
VERTEX
8
CONTOURS_MINEURES
10
147.837
20
160.000
0
VERTEX
8
CONTOURS_MINEURES
10
145.000
20
163.886
0
VERTEX
8
CONTOURS_MINEURES
10
144.538
20
164.535
0
VERTEX
8
CONTOURS_MINEURES
10
144.210
20
164.996
0
VERTEX
8
CONTOURS_MINEURES
10
142.461
20
167.462
0
VERTEX
8
CONTOURS_MINEURES
10
140.658
20
170.004
0
VERTEX
8
CONTOURS_MINEURES
10
140.000
20
170.929
0
VERTEX
8
CONTOURS_MINEURES
10
138.308
20
173.309
0
VERTEX
8
CONTOURS_MINEURES
10
137.180
20
175.000
0
VERTEX
8
CONTOURS_MINEURES
10
136.288
20
176.287
0
VERTEX
8
CONTOURS_MINEURES
10
135.000
20
178.146
0
VERTEX
8
CONTOURS_MINEURES
10
134.515
20
179.512
0
VERTEX
8
CONTOURS_MINEURES
10
134.342
20
179.997
0
VERTEX
8
CONTOURS_MINEURES
10
133.204
20
183.205
0
VERTEX
8
CONTOURS_MINEURES
10
132.566
20
185.004
0
VERTEX
8
CONTOURS_MINEURES
10
131.300
20
188.702
0
VERTEX
8
CONTOURS_MINEURES
10
130.845
20
190.001
0
VERTEX
8
CONTOURS_MINEURES
10
130.625
20
190.625
0
VERTEX
8
CONTOURS_MINEURES
10
130.001
20
192.406
0
VERTEX
8
CONTOURS_MINEURES
10
128.159
20
194.997
0
VERTEX
8
CONTOURS_MINEURES
10
126.847
20
196.846
0
VERTEX
8
CONTOURS_MINEURES
10
125.001
20
199.448
0
VERTEX
8
CONTOURS_MINEURES
10
124.770
20
199.773
0
VERTEX
8
CONTOURS_MINEURES
10
124.606
20
200.004
0
VERTEX
8
CONTOURS_MINEURES
10
122.693
20
202.695
0
VERTEX
8
CONTOURS_MINEURES
10
121.155
20
205.001
0
VERTEX
8
CONTOURS_MINEURES
10
120.001
20
206.666
0
VERTEX
8
CONTOURS_MINEURES
10
117.633
20
209.997
0
VERTEX
8
CONTOURS_MINEURES
10
116.540
20
211.538
0
VERTEX
8
CONTOURS_MINEURES
10
115.001
20
213.706
0
VERTEX
8
CONTOURS_MINEURES
10
114.463
20
214.465
0
VERTEX
8
CONTOURS_MINEURES
10
114.104
20
215.005
0
VERTEX
8
CONTOURS_MINEURES
10
110.002
20
217.966
0
VERTEX
8
CONTOURS_MINEURES
10
108.806
20
218.806
0
VERTEX
8
CONTOURS_MINEURES
10
107.107
20
220.001
0
VERTEX
8
CONTOURS_MINEURES
10
105.002
20
222.962
0
VERTEX
8
CONTOURS_MINEURES
10
104.205
20
224.201
0
VERTEX
8
CONTOURS_MINEURES
10
103.902
20
224.998
0
VERTEX
8
CONTOURS_MINEURES
10
103.555
20
226.447
0
VERTEX
8
CONTOURS_MINEURES
10
102.112
20
230.005
0
VERTEX
8
CONTOURS_MINEURES
10
101.536
20
231.538
0
VERTEX
8
CONTOURS_MINEURES
10
101.190
20
235.001
0
VERTEX
8
CONTOURS_MINEURES
10
100.952
20
235.951
0
VERTEX
8
CONTOURS_MINEURES
10
100.552
20
239.998
0
VERTEX
8
CONTOURS_MINEURES
10
100.002
20
245.005
0
VERTEX
8
CONTOURS_MINEURES
10
99.618
20
250.002
0
VERTEX
8
CONTOURS_MINEURES
10
99.572
20
250.431
0
VERTEX
8
CONTOURS_MINEURES
10
99.339
20
254.998
0
VERTEX
8
CONTOURS_MINEURES
10
99.129
20
259.121
0
VERTEX
8
CONTOURS_MINEURES
10
98.918
20
259.994
0
VERTEX
8
CONTOURS_MINEURES
10
98.304
20
261.695
0
VERTEX
8
CONTOURS_MINEURES
10
97.825
20
265.002
0
VERTEX
8
CONTOURS_MINEURES
10
97.190
20
267.188
0
VERTEX
8
CONTOURS_MINEURES
10
95.676
20
269.998
0
VERTEX
8
CONTOURS_MINEURES
10
95.111
20
274.886
0
VERTEX
8
CONTOURS_MINEURES
10
95.074
20
274.995
0
VERTEX
8
CONTOURS_MINEURES
10
95.063
20
275.055
0
VERTEX
8
CONTOURS_MINEURES
10
95.687
20
280.002
0
VERTEX
8
CONTOURS_MINEURES
10
95.741
20
280.740
0
VERTEX
8
CONTOURS_MINEURES
10
96.326
20
284.999
0
VERTEX
8
CONTOURS_MINEURES
10
96.264
20
286.259
0
VERTEX
8
CONTOURS_MINEURES
10
95.457
20
289.995
0
VERTEX
8
CONTOURS_MINEURES
10
95.003
20
290.522
0
VERTEX
8
CONTOURS_MINEURES
10
90.644
20
295.003
0
VERTEX
8
CONTOURS_MINEURES
10
90.434
20
295.433
0
VERTEX
8
CONTOURS_MINEURES
10
90.003
20
295.760
0
VERTEX
8
CONTOURS_MINEURES
10
88.072
20
298.069
0
VERTEX
8
CONTOURS_MINEURES
10
85.628
20
299.999
0
VERTEX
8
CONTOURS_MINEURES
10
85.003
20
301.997
0
VERTEX
8
CONTOURS_MINEURES
10
83.575
20
304.995
0
VERTEX
8
CONTOURS_MINEURES
10
83.871
20
306.129
0
VERTEX
8
CONTOURS_MINEURES
10
83.364
20
310.003
0
VERTEX
8
CONTOURS_MINEURES
10
80.004
20
311.616
0
VERTEX
8
CONTOURS_MINEURES
10
77.459
20
312.457
0
VERTEX
8
CONTOURS_MINEURES
10
75.004
20
314.715
0
VERTEX
8
CONTOURS_MINEURES
10
74.695
20
314.999
0
VERTEX
8
CONTOURS_MINEURES
10
70.004
20
319.867
0
VERTEX
8
CONTOURS_MINEURES
10
69.960
20
319.952
0
VERTEX
8
CONTOURS_MINEURES
10
69.943
20
319.996
0
VERTEX
8
CONTOURS_MINEURES
10
69.885
20
320.115
0
VERTEX
8
CONTOURS_MINEURES
10
67.551
20
325.003
0
VERTEX
8
CONTOURS_MINEURES
10
66.735
20
326.732
0
VERTEX
8
CONTOURS_MINEURES
10
65.130
20
329.999
0
VERTEX
8
CONTOURS_MINEURES
10
65.005
20
330.240
0
VERTEX
8
CONTOURS_MINEURES
10
62.456
20
332.449
0
VERTEX
8
CONTOURS_MINEURES
10
60.005
20
332.966
0
VERTEX
8
CONTOURS_MINEURES
10
57.438
20
332.565
0
VERTEX
8
CONTOURS_MINEURES
10
55.005
20
332.867
0
VERTEX
8
CONTOURS_MINEURES
10
52.871
20
332.867
0
VERTEX
8
CONTOURS_MINEURES
10
49.995
20
332.785
0
VERTEX
8
CONTOURS_MINEURES
10
47.073
20
332.919
0
VERTEX
8
CONTOURS_MINEURES
10
44.995
20
333.015
0
VERTEX
8
CONTOURS_MINEURES
10
41.775
20
333.218
0
VERTEX
8
CONTOURS_MINEURES
10
39.995
20
333.229
0
VERTEX
8
CONTOURS_MINEURES
10
38.100
20
333.102
0
VERTEX
8
CONTOURS_MINEURES
10
34.996
20
333.319
0
VERTEX
8
CONTOURS_MINEURES
10
31.503
20
333.490
0
VERTEX
8
CONTOURS_MINEURES
10
29.996
20
333.245
0
VERTEX
8
CONTOURS_MINEURES
10
28.592
20
333.593
0
VERTEX
8
CONTOURS_MINEURES
10
25.115
20
334.996
0
SEQEND
0
POLYLINE
8
CONTOURS_MINEURES
66
1
70
0
0
VERTEX
8
CONTOURS_MINEURES
10
-0.002
20
32.237
0
VERTEX
8
CONTOURS_MINEURES
10
1.928
20
31.933
0
VERTEX
8
CONTOURS_MINEURES
10
4.998
20
31.320
0
VERTEX
8
CONTOURS_MINEURES
10
6.771
20
31.777
0
VERTEX
8
CONTOURS_MINEURES
10
9.997
20
30.455
0
VERTEX
8
CONTOURS_MINEURES
10
14.547
20
30.455
0
VERTEX
8
CONTOURS_MINEURES
10
14.997
20
30.380
0
VERTEX
8
CONTOURS_MINEURES
10
16.181
20
30.005
0
VERTEX
8
CONTOURS_MINEURES
10
18.064
20
28.069
0
VERTEX
8
CONTOURS_MINEURES
10
19.997
20
28.255
0
VERTEX
8
CONTOURS_MINEURES
10
21.488
20
26.491
0
VERTEX
8
CONTOURS_MINEURES
10
24.996
20
25.075
0
VERTEX
8
CONTOURS_MINEURES
10
25.240
20
24.998
0
VERTEX
8
CONTOURS_MINEURES
10
27.805
20
22.808
0
VERTEX
8
CONTOURS_MINEURES
10
29.996
20
22.173
0
VERTEX
8
CONTOURS_MINEURES
10
31.347
20
20.001
0
VERTEX
8
CONTOURS_MINEURES
10
32.079
20
17.919
0
VERTEX
8
CONTOURS_MINEURES
10
32.957
20
15.005
0
VERTEX
8
CONTOURS_MINEURES
10
33.558
20
13.564
0
VERTEX
8
CONTOURS_MINEURES
10
34.996
20
10.433
0
VERTEX
8
CONTOURS_MINEURES
10
35.066
20
10.068
0
VERTEX
8
CONTOURS_MINEURES
10
35.140
20
9.997
0
VERTEX
8
CONTOURS_MINEURES
10
36.048
20
6.053
0
VERTEX
8
CONTOURS_MINEURES
10
36.760
20
5.001
0
VERTEX
8
CONTOURS_MINEURES
10
37.604
20
2.611
0
VERTEX
8
CONTOURS_MINEURES
10
38.239
20
0.004
0
SEQEND
0
POLYLINE
8
CONTOURS_MINEURES
66
1
70
0
0
VERTEX
8
CONTOURS_MINEURES
10
194.904
20
0.004
0
VERTEX
8
CONTOURS_MINEURES
10
194.863
20
0.138
0
VERTEX
8
CONTOURS_MINEURES
10
192.307
20
5.001
0
VERTEX
8
CONTOURS_MINEURES
10
191.369
20
6.372
0
VERTEX
8
CONTOURS_MINEURES
10
189.997
20
8.612
0
VERTEX
8
CONTOURS_MINEURES
10
188.289
20
9.997
0
VERTEX
8
CONTOURS_MINEURES
10
184.997
20
12.501
0
VERTEX
8
CONTOURS_MINEURES
10
183.583
20
13.589
0
VERTEX
8
CONTOURS_MINEURES
10
181.705
20
15.005
0
VERTEX
8
CONTOURS_MINEURES
10
179.997
20
16.312
0
VERTEX
8
CONTOURS_MINEURES
10
175.181
20
20.001
0
VERTEX
8
CONTOURS_MINEURES
10
174.998
20
20.225
0
VERTEX
8
CONTOURS_MINEURES
10
172.864
20
22.866
0
VERTEX
8
CONTOURS_MINEURES
10
170.895
20
24.998
0
VERTEX
8
CONTOURS_MINEURES
10
170.426
20
29.576
0
VERTEX
8
CONTOURS_MINEURES
10
170.388
20
30.005
0
VERTEX
8
CONTOURS_MINEURES
10
170.223
20
30.230
0
VERTEX
8
CONTOURS_MINEURES
10
169.998
20
30.505
0
VERTEX
8
CONTOURS_MINEURES
10
166.248
20
35.001
0
VERTEX
8
CONTOURS_MINEURES
10
165.568
20
35.571
0
VERTEX
8
CONTOURS_MINEURES
10
164.998
20
36.047
0
VERTEX
8
CONTOURS_MINEURES
10
162.847
20
37.847
0
VERTEX
8
CONTOURS_MINEURES
10
160.210
20
39.998
0
VERTEX
8
CONTOURS_MINEURES
10
160.103
20
40.102
0
VERTEX
8
CONTOURS_MINEURES
10
159.999
20
40.204
0
VERTEX
8
CONTOURS_MINEURES
10
155.069
20
45.005
0
VERTEX
8
CONTOURS_MINEURES
10
155.039
20
45.045
0
VERTEX
8
CONTOURS_MINEURES
10
154.999
20
45.089
0
VERTEX
8
CONTOURS_MINEURES
10
150.461
20
50.002
0
VERTEX
8
CONTOURS_MINEURES
10
149.999
20
52.143
0
VERTEX
8
CONTOURS_MINEURES
10
149.499
20
54.498
0
VERTEX
8
CONTOURS_MINEURES
10
149.354
20
54.998
0
VERTEX
8
CONTOURS_MINEURES
10
149.310
20
55.687
0
VERTEX
8
CONTOURS_MINEURES
10
148.968
20
59.994
0
VERTEX
8
CONTOURS_MINEURES
10
148.879
20
61.117
0
VERTEX
8
CONTOURS_MINEURES
10
148.628
20
65.002
0
VERTEX
8
CONTOURS_MINEURES
10
148.358
20
68.358
0
VERTEX
8
CONTOURS_MINEURES
10
148.253
20
69.998
0
VERTEX
8
CONTOURS_MINEURES
10
148.059
20
73.056
0
VERTEX
8
CONTOURS_MINEURES
10
147.903
20
74.995
0
VERTEX
8
CONTOURS_MINEURES
10
147.758
20
77.239
0
VERTEX
8
CONTOURS_MINEURES
10
147.539
20
80.002
0
VERTEX
8
CONTOURS_MINEURES
10
147.387
20
82.389
0
VERTEX
8
CONTOURS_MINEURES
10
147.177
20
84.999
0
VERTEX
8
CONTOURS_MINEURES
10
147.014
20
87.012
0
VERTEX
8
CONTOURS_MINEURES
10
146.825
20
89.995
0
VERTEX
8
CONTOURS_MINEURES
10
146.716
20
91.714
0
VERTEX
8
CONTOURS_MINEURES
10
146.451
20
95.002
0
VERTEX
8
CONTOURS_MINEURES
10
146.206
20
98.793
0
VERTEX
8
CONTOURS_MINEURES
10
146.111
20
99.999
0
VERTEX
8
CONTOURS_MINEURES
10
146.044
20
101.043
0
VERTEX
8
CONTOURS_MINEURES
10
145.725
20
104.995
0
VERTEX
8
CONTOURS_MINEURES
10
145.431
20
109.571
0
VERTEX
8
CONTOURS_MINEURES
10
145.396
20
110.003
0
VERTEX
8
CONTOURS_MINEURES
10
145.373
20
110.376
0
VERTEX
8
CONTOURS_MINEURES
10
145.000
20
114.999
0
VERTEX
8
CONTOURS_MINEURES
10
144.677
20
119.996
0
VERTEX
8
CONTOURS_MINEURES
10
144.328
20
124.330
0
VERTEX
8
CONTOURS_MINEURES
10
144.274
20
125.003
0
VERTEX
8
CONTOURS_MINEURES
10
144.151
20
125.851
0
VERTEX
8
CONTOURS_MINEURES
10
143.548
20
129.999
0
VERTEX
8
CONTOURS_MINEURES
10
143.163
20
131.835
0
VERTEX
8
CONTOURS_MINEURES
10
142.870
20
134.996
0
VERTEX
8
CONTOURS_MINEURES
10
142.313
20
137.313
0
VERTEX
8
CONTOURS_MINEURES
10
140.000
20
138.782
0
VERTEX
8
CONTOURS_MINEURES
10
138.148
20
140.003
0
VERTEX
8
CONTOURS_MINEURES
10
136.288
20
141.290
0
VERTEX
8
CONTOURS_MINEURES
10
135.000
20
142.430
0
VERTEX
8
CONTOURS_MINEURES
10
133.767
20
145.000
0
VERTEX
8
CONTOURS_MINEURES
10
132.645
20
147.642
0
VERTEX
8
CONTOURS_MINEURES
10
131.819
20
149.996
0
VERTEX
8
CONTOURS_MINEURES
10
130.100
20
154.903
0
VERTEX
8
CONTOURS_MINEURES
10
130.065
20
155.004
0
VERTEX
8
CONTOURS_MINEURES
10
130.049
20
155.052
0
VERTEX
8
CONTOURS_MINEURES
10
130.001
20
155.189
0
VERTEX
8
CONTOURS_MINEURES
10
128.001
20
158.001
0
VERTEX
8
CONTOURS_MINEURES
10
126.580
20
160.000
0
VERTEX
8
CONTOURS_MINEURES
10
125.924
20
160.922
0
VERTEX
8
CONTOURS_MINEURES
10
125.001
20
162.221
0
VERTEX
8
CONTOURS_MINEURES
10
123.865
20
163.861
0
VERTEX
8
CONTOURS_MINEURES
10
123.078
20
164.996
0
VERTEX
8
CONTOURS_MINEURES
10
120.001
20
169.448
0
VERTEX
8
CONTOURS_MINEURES
10
119.770
20
169.773
0
VERTEX
8
CONTOURS_MINEURES
10
119.606
20
170.004
0
VERTEX
8
CONTOURS_MINEURES
10
117.694
20
172.694
0
VERTEX
8
CONTOURS_MINEURES
10
116.054
20
175.000
0
VERTEX
8
CONTOURS_MINEURES
10
115.001
20
176.481
0
VERTEX
8
CONTOURS_MINEURES
10
113.562
20
178.558
0
VERTEX
8
CONTOURS_MINEURES
10
112.566
20
179.997
0
VERTEX
8
CONTOURS_MINEURES
10
110.002
20
183.706
0
VERTEX
8
CONTOURS_MINEURES
10
109.463
20
184.465
0
VERTEX
8
CONTOURS_MINEURES
10
109.081
20
185.004
0
VERTEX
8
CONTOURS_MINEURES
10
106.820
20
188.184
0
VERTEX
8
CONTOURS_MINEURES
10
105.528
20
190.001
0
VERTEX
8
CONTOURS_MINEURES
10
105.310
20
190.308
0
VERTEX
8
CONTOURS_MINEURES
10
105.002
20
190.741
0
VERTEX
8
CONTOURS_MINEURES
10
102.054
20
194.997
0
VERTEX
8
CONTOURS_MINEURES
10
100.002
20
197.964
0
VERTEX
8
CONTOURS_MINEURES
10
99.156
20
199.157
0
VERTEX
8
CONTOURS_MINEURES
10
98.555
20
200.004
0
VERTEX
8
CONTOURS_MINEURES
10
95.419
20
204.584
0
VERTEX
8
CONTOURS_MINEURES
10
95.131
20
205.001
0
VERTEX
8
CONTOURS_MINEURES
10
95.078
20
205.077
0
VERTEX
8
CONTOURS_MINEURES
10
95.003
20
205.218
0
VERTEX
8
CONTOURS_MINEURES
10
93.724
20
209.997
0
VERTEX
8
CONTOURS_MINEURES
10
93.050
20
213.049
0
VERTEX
8
CONTOURS_MINEURES
10
92.993
20
215.005
0
VERTEX
8
CONTOURS_MINEURES
10
92.472
20
217.534
0
VERTEX
8
CONTOURS_MINEURES
10
92.044
20
220.001
0
VERTEX
8
CONTOURS_MINEURES
10
91.908
20
221.905
0
VERTEX
8
CONTOURS_MINEURES
10
91.546
20
224.998
0
VERTEX
8
CONTOURS_MINEURES
10
91.397
20
226.394
0
VERTEX
8
CONTOURS_MINEURES
10
91.137
20
230.005
0
VERTEX
8
CONTOURS_MINEURES
10
91.031
20
231.032
0
VERTEX
8
CONTOURS_MINEURES
10
90.836
20
235.001
0
VERTEX
8
CONTOURS_MINEURES
10
90.482
20
239.519
0
VERTEX
8
CONTOURS_MINEURES
10
90.444
20
239.998
0
VERTEX
8
CONTOURS_MINEURES
10
90.424
20
240.419
0
VERTEX
8
CONTOURS_MINEURES
10
90.003
20
243.465
0
VERTEX
8
CONTOURS_MINEURES
10
89.633
20
245.005
0
VERTEX
8
CONTOURS_MINEURES
10
88.753
20
246.254
0
VERTEX
8
CONTOURS_MINEURES
10
86.582
20
250.002
0
VERTEX
8
CONTOURS_MINEURES
10
85.860
20
250.858
0
VERTEX
8
CONTOURS_MINEURES
10
85.003
20
251.819
0
VERTEX
8
CONTOURS_MINEURES
10
83.459
20
254.998
0
VERTEX
8
CONTOURS_MINEURES
10
82.835
20
257.827
0
VERTEX
8
CONTOURS_MINEURES
10
83.109
20
259.994
0
VERTEX
8
CONTOURS_MINEURES
10
83.367
20
261.633
0
VERTEX
8
CONTOURS_MINEURES
10
83.631
20
265.002
0
VERTEX
8
CONTOURS_MINEURES
10
83.817
20
266.188
0
VERTEX
8
CONTOURS_MINEURES
10
84.372
20
269.998
0
VERTEX
8
CONTOURS_MINEURES
10
85.003
20
274.329
0
VERTEX
8
CONTOURS_MINEURES
10
85.101
20
274.995
0
VERTEX
8
CONTOURS_MINEURES
10
85.766
20
279.238
0
VERTEX
8
CONTOURS_MINEURES
10
85.877
20
280.002
0
VERTEX
8
CONTOURS_MINEURES
10
85.992
20
280.991
0
VERTEX
8
CONTOURS_MINEURES
10
86.279
20
284.999
0
VERTEX
8
CONTOURS_MINEURES
10
85.003
20
287.448
0
VERTEX
8
CONTOURS_MINEURES
10
83.378
20
289.995
0
VERTEX
8
CONTOURS_MINEURES
10
80.004
20
293.176
0
VERTEX
8
CONTOURS_MINEURES
10
79.064
20
294.062
0
VERTEX
8
CONTOURS_MINEURES
10
78.042
20
295.003
0
VERTEX
8
CONTOURS_MINEURES
10
75.004
20
297.824
0
VERTEX
8
CONTOURS_MINEURES
10
73.883
20
298.879
0
VERTEX
8
CONTOURS_MINEURES
10
72.662
20
299.999
0
VERTEX
8
CONTOURS_MINEURES
10
70.004
20
302.497
0
VERTEX
8
CONTOURS_MINEURES
10
69.144
20
304.135
0
VERTEX
8
CONTOURS_MINEURES
10
68.675
20
304.995
0
VERTEX
8
CONTOURS_MINEURES
10
67.205
20
307.800
0
VERTEX
8
CONTOURS_MINEURES
10
66.465
20
310.003
0
VERTEX
8
CONTOURS_MINEURES
10
66.056
20
311.053
0
VERTEX
8
CONTOURS_MINEURES
10
65.844
20
314.999
0
VERTEX
8
CONTOURS_MINEURES
10
65.555
20
315.549
0
VERTEX
8
CONTOURS_MINEURES
10
65.005
20
316.951
0
VERTEX
8
CONTOURS_MINEURES
10
63.294
20
318.286
0
VERTEX
8
CONTOURS_MINEURES
10
62.597
20
319.996
0
VERTEX
8
CONTOURS_MINEURES
10
60.005
20
322.692
0
VERTEX
8
CONTOURS_MINEURES
10
57.434
20
325.003
0
VERTEX
8
CONTOURS_MINEURES
10
56.081
20
326.078
0
VERTEX
8
CONTOURS_MINEURES
10
55.005
20
326.243
0
VERTEX
8
CONTOURS_MINEURES
10
53.762
20
326.243
0
VERTEX
8
CONTOURS_MINEURES
10
49.995
20
326.918
0
VERTEX
8
CONTOURS_MINEURES
10
47.102
20
327.108
0
VERTEX
8
CONTOURS_MINEURES
10
44.995
20
327.207
0
VERTEX
8
CONTOURS_MINEURES
10
42.168
20
327.174
0
VERTEX
8
CONTOURS_MINEURES
10
39.995
20
327.187
0
VERTEX
8
CONTOURS_MINEURES
10
37.945
20
327.052
0
VERTEX
8
CONTOURS_MINEURES
10
34.996
20
326.721
0
VERTEX
8
CONTOURS_MINEURES
10
31.795
20
326.801
0
VERTEX
8
CONTOURS_MINEURES
10
29.996
20
326.614
0
VERTEX
8
CONTOURS_MINEURES
10
28.081
20
326.917
0
VERTEX
8
CONTOURS_MINEURES
10
24.996
20
327.890
0
VERTEX
8
CONTOURS_MINEURES
10
23.493
20
328.497
0
VERTEX
8
CONTOURS_MINEURES
10
19.997
20
329.763
0
VERTEX
8
CONTOURS_MINEURES
10
19.386
20
329.999
0
VERTEX
8
CONTOURS_MINEURES
10
17.023
20
332.024
0
VERTEX
8
CONTOURS_MINEURES
10
14.997
20
333.621
0
VERTEX
8
CONTOURS_MINEURES
10
14.243
20
334.243
0
VERTEX
8
CONTOURS_MINEURES
10
13.293
20
334.996
0
SEQEND
0
POLYLINE
8
CONTOURS_MINEURES
66
1
70
0
0
VERTEX
8
CONTOURS_MINEURES
10
-0.002
20
39.641
0
VERTEX
8
CONTOURS_MINEURES
10
0.520
20
39.476
0
VERTEX
8
CONTOURS_MINEURES
10
4.998
20
39.544
0
VERTEX
8
CONTOURS_MINEURES
10
5.259
20
39.737
0
VERTEX
8
CONTOURS_MINEURES
10
5.409
20
39.998
0
VERTEX
8
CONTOURS_MINEURES
10
9.997
20
42.619
0
VERTEX
8
CONTOURS_MINEURES
10
13.585
20
41.412
0
VERTEX
8
CONTOURS_MINEURES
10
14.997
20
40.634
0
VERTEX
8
CONTOURS_MINEURES
10
15.397
20
40.398
0
VERTEX
8
CONTOURS_MINEURES
10
15.879
20
39.998
0
VERTEX
8
CONTOURS_MINEURES
10
17.179
20
37.818
0
VERTEX
8
CONTOURS_MINEURES
10
18.705
20
35.001
0
VERTEX
8
CONTOURS_MINEURES
10
19.997
20
34.235
0
VERTEX
8
CONTOURS_MINEURES
10
22.644
20
32.650
0
VERTEX
8
CONTOURS_MINEURES
10
24.996
20
31.626
0
VERTEX
8
CONTOURS_MINEURES
10
26.456
20
31.464
0
VERTEX
8
CONTOURS_MINEURES
10
29.996
20
30.729
0
VERTEX
8
CONTOURS_MINEURES
10
31.398
20
30.005
0
VERTEX
8
CONTOURS_MINEURES
10
33.378
20
28.385
0
VERTEX
8
CONTOURS_MINEURES
10
34.875
20
24.998
0
VERTEX
8
CONTOURS_MINEURES
10
34.996
20
24.835
0
VERTEX
8
CONTOURS_MINEURES
10
36.681
20
20.001
0
VERTEX
8
CONTOURS_MINEURES
10
37.986
20
17.013
0
VERTEX
8
CONTOURS_MINEURES
10
38.315
20
15.005
0
VERTEX
8
CONTOURS_MINEURES
10
38.587
20
13.594
0
VERTEX
8
CONTOURS_MINEURES
10
39.995
20
12.242
0
VERTEX
8
CONTOURS_MINEURES
10
42.002
20
9.997
0
VERTEX
8
CONTOURS_MINEURES
10
44.995
20
5.708
0
VERTEX
8
CONTOURS_MINEURES
10
45.709
20
5.001
0
VERTEX
8
CONTOURS_MINEURES
10
46.707
20
1.716
0
VERTEX
8
CONTOURS_MINEURES
10
47.712
20
0.004
0
SEQEND
0
POLYLINE
8
CONTOURS_MINEURES
66
1
70
0
0
VERTEX
8
CONTOURS_MINEURES
10
180.697
20
0.004
0
VERTEX
8
CONTOURS_MINEURES
10
181.016
20
3.983
0
VERTEX
8
CONTOURS_MINEURES
10
180.831
20
5.001
0
VERTEX
8
CONTOURS_MINEURES
10
180.348
20
5.351
0
VERTEX
8
CONTOURS_MINEURES
10
179.997
20
5.744
0
VERTEX
8
CONTOURS_MINEURES
10
176.109
20
9.997
0
VERTEX
8
CONTOURS_MINEURES
10
174.998
20
10.840
0
VERTEX
8
CONTOURS_MINEURES
10
172.592
20
12.596
0
VERTEX
8
CONTOURS_MINEURES
10
169.998
20
14.710
0
VERTEX
8
CONTOURS_MINEURES
10
169.827
20
14.833
0
VERTEX
8
CONTOURS_MINEURES
10
169.632
20
15.005
0
VERTEX
8
CONTOURS_MINEURES
10
166.998
20
17.003
0
VERTEX
8
CONTOURS_MINEURES
10
164.998
20
18.521
0
VERTEX
8
CONTOURS_MINEURES
10
164.161
20
19.164
0
VERTEX
8
CONTOURS_MINEURES
10
163.047
20
20.001
0
VERTEX
8
CONTOURS_MINEURES
10
159.999
20
23.163
0
VERTEX
8
CONTOURS_MINEURES
10
159.104
20
24.103
0
VERTEX
8
CONTOURS_MINEURES
10
158.186
20
24.998
0
VERTEX
8
CONTOURS_MINEURES
10
157.801
20
27.804
0
VERTEX
8
CONTOURS_MINEURES
10
157.401
20
30.005
0
VERTEX
8
CONTOURS_MINEURES
10
156.257
20
31.263
0
VERTEX
8
CONTOURS_MINEURES
10
154.999
20
32.470
0
VERTEX
8
CONTOURS_MINEURES
10
153.749
20
33.752
0
VERTEX
8
CONTOURS_MINEURES
10
152.396
20
35.001
0
VERTEX
8
CONTOURS_MINEURES
10
151.086
20
36.088
0
VERTEX
8
CONTOURS_MINEURES
10
149.999
20
36.966
0
VERTEX
8
CONTOURS_MINEURES
10
148.322
20
38.322
0
VERTEX
8
CONTOURS_MINEURES
10
146.197
20
39.998
0
VERTEX
8
CONTOURS_MINEURES
10
145.000
20
41.148
0
VERTEX
8
CONTOURS_MINEURES
10
143.048
20
43.050
0
VERTEX
8
CONTOURS_MINEURES
10
140.986
20
45.005
0
VERTEX
8
CONTOURS_MINEURES
10
140.000
20
45.938
0
VERTEX
8
CONTOURS_MINEURES
10
137.925
20
47.928
0
VERTEX
8
CONTOURS_MINEURES
10
135.515
20
50.002
0
VERTEX
8
CONTOURS_MINEURES
10
135.000
20
51.208
0
VERTEX
8
CONTOURS_MINEURES
10
134.345
20
54.344
0
VERTEX
8
CONTOURS_MINEURES
10
134.120
20
54.998
0
VERTEX
8
CONTOURS_MINEURES
10
133.992
20
58.987
0
VERTEX
8
CONTOURS_MINEURES
10
133.952
20
59.994
0
VERTEX
8
CONTOURS_MINEURES
10
133.799
20
63.799
0
VERTEX
8
CONTOURS_MINEURES
10
133.760
20
65.002
0
VERTEX
8
CONTOURS_MINEURES
10
133.709
20
66.293
0
VERTEX
8
CONTOURS_MINEURES
10
133.589
20
69.998
0
VERTEX
8
CONTOURS_MINEURES
10
133.542
20
71.456
0
VERTEX
8
CONTOURS_MINEURES
10
133.400
20
74.995
0
VERTEX
8
CONTOURS_MINEURES
10
133.295
20
78.294
0
VERTEX
8
CONTOURS_MINEURES
10
133.226
20
80.002
0
VERTEX
8
CONTOURS_MINEURES
10
133.101
20
83.101
0
VERTEX
8
CONTOURS_MINEURES
10
133.040
20
84.999
0
VERTEX
8
CONTOURS_MINEURES
10
132.959
20
87.039
0
VERTEX
8
CONTOURS_MINEURES
10
132.863
20
89.995
0
VERTEX
8
CONTOURS_MINEURES
10
132.792
20
92.207
0
VERTEX
8
CONTOURS_MINEURES
10
132.680
20
95.002
0
VERTEX
8
CONTOURS_MINEURES
10
132.584
20
97.417
0
VERTEX
8
CONTOURS_MINEURES
10
132.500
20
99.999
0
VERTEX
8
CONTOURS_MINEURES
10
132.403
20
102.400
0
VERTEX
8
CONTOURS_MINEURES
10
132.320
20
104.995
0
VERTEX
8
CONTOURS_MINEURES
10
132.248
20
107.247
0
VERTEX
8
CONTOURS_MINEURES
10
132.137
20
110.003
0
VERTEX
8
CONTOURS_MINEURES
10
132.042
20
112.959
0
VERTEX
8
CONTOURS_MINEURES
10
131.960
20
114.999
0
VERTEX
8
CONTOURS_MINEURES
10
131.900
20
116.897
0
VERTEX
8
CONTOURS_MINEURES
10
131.775
20
119.996
0
VERTEX
8
CONTOURS_MINEURES
10
131.461
20
123.541
0
VERTEX
8
CONTOURS_MINEURES
10
131.399
20
125.003
0
VERTEX
8
CONTOURS_MINEURES
10
130.001
20
126.990
0
VERTEX
8
CONTOURS_MINEURES
10
127.728
20
127.728
0
VERTEX
8
CONTOURS_MINEURES
10
125.001
20
128.846
0
VERTEX
8
CONTOURS_MINEURES
10
122.189
20
129.999
0
VERTEX
8
CONTOURS_MINEURES
10
121.062
20
131.059
0
VERTEX
8
CONTOURS_MINEURES
10
120.001
20
132.412
0
VERTEX
8
CONTOURS_MINEURES
10
118.028
20
134.996
0
VERTEX
8
CONTOURS_MINEURES
10
115.001
20
139.426
0
VERTEX
8
CONTOURS_MINEURES
10
114.771
20
139.772
0
VERTEX
8
CONTOURS_MINEURES
10
114.607
20
140.003
0
VERTEX
8
CONTOURS_MINEURES
10
113.638
20
141.366
0
VERTEX
8
CONTOURS_MINEURES
10
111.054
20
145.000
0
VERTEX
8
CONTOURS_MINEURES
10
110.002
20
146.480
0
VERTEX
8
CONTOURS_MINEURES
10
107.566
20
149.996
0
VERTEX
8
CONTOURS_MINEURES
10
106.517
20
151.514
0
VERTEX
8
CONTOURS_MINEURES
10
105.002
20
153.705
0
VERTEX
8
CONTOURS_MINEURES
10
104.081
20
155.004
0
VERTEX
8
CONTOURS_MINEURES
10
101.820
20
158.183
0
VERTEX
8
CONTOURS_MINEURES
10
100.529
20
160.000
0
VERTEX
8
CONTOURS_MINEURES
10
100.310
20
160.307
0
VERTEX
8
CONTOURS_MINEURES
10
100.002
20
160.740
0
VERTEX
8
CONTOURS_MINEURES
10
97.054
20
164.996
0
VERTEX
8
CONTOURS_MINEURES
10
95.003
20
167.964
0
VERTEX
8
CONTOURS_MINEURES
10
93.555
20
170.004
0
VERTEX
8
CONTOURS_MINEURES
10
92.080
20
172.079
0
VERTEX
8
CONTOURS_MINEURES
10
90.003
20
175.000
0
VERTEX
8
CONTOURS_MINEURES
10
87.988
20
177.983
0
VERTEX
8
CONTOURS_MINEURES
10
86.935
20
179.997
0
VERTEX
8
CONTOURS_MINEURES
10
85.003
20
184.726
0
VERTEX
8
CONTOURS_MINEURES
10
84.957
20
184.958
0
VERTEX
8
CONTOURS_MINEURES
10
84.957
20
185.004
0
VERTEX
8
CONTOURS_MINEURES
10
84.957
20
185.051
0
VERTEX
8
CONTOURS_MINEURES
10
84.533
20
190.001
0
VERTEX
8
CONTOURS_MINEURES
10
84.494
20
190.509
0
VERTEX
8
CONTOURS_MINEURES
10
84.373
20
194.997
0
VERTEX
8
CONTOURS_MINEURES
10
84.334
20
199.334
0
VERTEX
8
CONTOURS_MINEURES
10
84.230
20
200.004
0
VERTEX
8
CONTOURS_MINEURES
10
84.089
20
200.918
0
VERTEX
8
CONTOURS_MINEURES
10
83.854
20
205.001
0
VERTEX
8
CONTOURS_MINEURES
10
83.387
20
208.382
0
VERTEX
8
CONTOURS_MINEURES
10
83.206
20
209.997
0
VERTEX
8
CONTOURS_MINEURES
10
82.771
20
212.768
0
VERTEX
8
CONTOURS_MINEURES
10
82.632
20
215.005
0
VERTEX
8
CONTOURS_MINEURES
10
82.092
20
217.914
0
VERTEX
8
CONTOURS_MINEURES
10
81.722
20
220.001
0
VERTEX
8
CONTOURS_MINEURES
10
81.621
20
221.618
0
VERTEX
8
CONTOURS_MINEURES
10
80.897
20
224.998
0
VERTEX
8
CONTOURS_MINEURES
10
80.004
20
228.127
0
VERTEX
8
CONTOURS_MINEURES
10
79.412
20
229.412
0
VERTEX
8
CONTOURS_MINEURES
10
78.788
20
230.005
0
VERTEX
8
CONTOURS_MINEURES
10
77.033
20
232.033
0
VERTEX
8
CONTOURS_MINEURES
10
75.004
20
233.417
0
VERTEX
8
CONTOURS_MINEURES
10
74.062
20
234.060
0
VERTEX
8
CONTOURS_MINEURES
10
73.294
20
235.001
0
VERTEX
8
CONTOURS_MINEURES
10
71.717
20
236.713
0
VERTEX
8
CONTOURS_MINEURES
10
70.936
20
239.998
0
VERTEX
8
CONTOURS_MINEURES
10
71.422
20
243.585
0
VERTEX
8
CONTOURS_MINEURES
10
71.072
20
245.005
0
VERTEX
8
CONTOURS_MINEURES
10
71.096
20
246.096
0
VERTEX
8
CONTOURS_MINEURES
10
71.671
20
250.002
0
VERTEX
8
CONTOURS_MINEURES
10
72.098
20
252.906
0
VERTEX
8
CONTOURS_MINEURES
10
72.406
20
254.998
0
VERTEX
8
CONTOURS_MINEURES
10
72.820
20
257.812
0
VERTEX
8
CONTOURS_MINEURES
10
73.141
20
259.994
0
VERTEX
8
CONTOURS_MINEURES
10
73.394
20
261.607
0
VERTEX
8
CONTOURS_MINEURES
10
73.888
20
265.002
0
VERTEX
8
CONTOURS_MINEURES
10
74.030
20
265.976
0
VERTEX
8
CONTOURS_MINEURES
10
74.616
20
269.998
0
VERTEX
8
CONTOURS_MINEURES
10
75.004
20
272.663
0
VERTEX
8
CONTOURS_MINEURES
10
75.303
20
274.696
0
VERTEX
8
CONTOURS_MINEURES
10
75.347
20
274.995
0
VERTEX
8
CONTOURS_MINEURES
10
75.406
20
275.398
0
VERTEX
8
CONTOURS_MINEURES
10
76.082
20
280.002
0
VERTEX
8
CONTOURS_MINEURES
10
75.510
20
284.493
0
VERTEX
8
CONTOURS_MINEURES
10
75.504
20
284.999
0
VERTEX
8
CONTOURS_MINEURES
10
75.294
20
285.289
0
VERTEX
8
CONTOURS_MINEURES
10
75.004
20
285.598
0
VERTEX
8
CONTOURS_MINEURES
10
70.879
20
289.995
0
VERTEX
8
CONTOURS_MINEURES
10
70.004
20
290.810
0
VERTEX
8
CONTOURS_MINEURES
10
68.535
20
293.531
0
VERTEX
8
CONTOURS_MINEURES
10
67.740
20
295.003
0
VERTEX
8
CONTOURS_MINEURES
10
65.140
20
299.864
0
VERTEX
8
CONTOURS_MINEURES
10
65.067
20
299.999
0
VERTEX
8
CONTOURS_MINEURES
10
65.046
20
300.040
0
VERTEX
8
CONTOURS_MINEURES
10
65.005
20
300.115
0
VERTEX
8
CONTOURS_MINEURES
10
63.576
20
301.426
0
VERTEX
8
CONTOURS_MINEURES
10
60.005
20
304.705
0
VERTEX
8
CONTOURS_MINEURES
10
59.854
20
304.845
0
VERTEX
8
CONTOURS_MINEURES
10
59.693
20
304.995
0
VERTEX
8
CONTOURS_MINEURES
10
57.278
20
307.271
0
VERTEX
8
CONTOURS_MINEURES
10
55.005
20
309.414
0
VERTEX
8
CONTOURS_MINEURES
10
54.371
20
310.003
0
VERTEX
8
CONTOURS_MINEURES
10
52.129
20
312.131
0
VERTEX
8
CONTOURS_MINEURES
10
49.995
20
312.696
0
VERTEX
8
CONTOURS_MINEURES
10
45.572
20
314.423
0
VERTEX
8
CONTOURS_MINEURES
10
44.995
20
314.715
0
VERTEX
8
CONTOURS_MINEURES
10
44.805
20
314.809
0
VERTEX
8
CONTOURS_MINEURES
10
44.333
20
314.999
0
VERTEX
8
CONTOURS_MINEURES
10
40.495
20
319.496
0
VERTEX
8
CONTOURS_MINEURES
10
40.245
20
319.996
0
VERTEX
8
CONTOURS_MINEURES
10
39.995
20
320.035
0
VERTEX
8
CONTOURS_MINEURES
10
36.002
20
321.003
0
VERTEX
8
CONTOURS_MINEURES
10
34.996
20
320.901
0
VERTEX
8
CONTOURS_MINEURES
10
31.844
20
321.846
0
VERTEX
8
CONTOURS_MINEURES
10
29.996
20
321.879
0
VERTEX
8
CONTOURS_MINEURES
10
27.540
20
322.543
0
VERTEX
8
CONTOURS_MINEURES
10
24.996
20
323.380
0
VERTEX
8
CONTOURS_MINEURES
10
21.151
20
325.003
0
VERTEX
8
CONTOURS_MINEURES
10
20.329
20
325.335
0
VERTEX
8
CONTOURS_MINEURES
10
19.997
20
325.455
0
VERTEX
8
CONTOURS_MINEURES
10
19.257
20
325.742
0
VERTEX
8
CONTOURS_MINEURES
10
14.997
20
327.301
0
VERTEX
8
CONTOURS_MINEURES
10
11.154
20
328.844
0
VERTEX
8
CONTOURS_MINEURES
10
9.997
20
329.244
0
VERTEX
8
CONTOURS_MINEURES
10
9.519
20
329.521
0
VERTEX
8
CONTOURS_MINEURES
10
9.096
20
329.999
0
VERTEX
8
CONTOURS_MINEURES
10
7.718
20
332.277
0
VERTEX
8
CONTOURS_MINEURES
10
6.031
20
334.996
0
SEQEND
0
POLYLINE
8
CONTOURS_MINEURES
66
1
70
0
0
VERTEX
8
CONTOURS_MINEURES
10
-0.002
20
58.391
0
VERTEX
8
CONTOURS_MINEURES
10
1.910
20
58.084
0
VERTEX
8
CONTOURS_MINEURES
10
4.998
20
56.335
0
VERTEX
8
CONTOURS_MINEURES
10
5.742
20
54.998
0
VERTEX
8
CONTOURS_MINEURES
10
6.674
20
51.676
0
VERTEX
8
CONTOURS_MINEURES
10
8.233
20
50.002
0
VERTEX
8
CONTOURS_MINEURES
10
9.997
20
48.393
0
VERTEX
8
CONTOURS_MINEURES
10
12.204
20
47.210
0
VERTEX
8
CONTOURS_MINEURES
10
14.997
20
45.834
0
VERTEX
8
CONTOURS_MINEURES
10
16.574
20
45.005
0
VERTEX
8
CONTOURS_MINEURES
10
18.730
20
43.737
0
VERTEX
8
CONTOURS_MINEURES
10
19.997
20
42.685
0
VERTEX
8
CONTOURS_MINEURES
10
23.162
20
39.998
0
VERTEX
8
CONTOURS_MINEURES
10
24.996
20
37.424
0
VERTEX
8
CONTOURS_MINEURES
10
28.442
20
36.554
0
VERTEX
8
CONTOURS_MINEURES
10
29.996
20
35.828
0
VERTEX
8
CONTOURS_MINEURES
10
30.608
20
35.613
0
VERTEX
8
CONTOURS_MINEURES
10
32.087
20
35.001
0
VERTEX
8
CONTOURS_MINEURES
10
34.996
20
33.970
0
VERTEX
8
CONTOURS_MINEURES
10
36.773
20
31.781
0
VERTEX
8
CONTOURS_MINEURES
10
37.299
20
30.005
0
VERTEX
8
CONTOURS_MINEURES
10
37.426
20
27.571
0
VERTEX
8
CONTOURS_MINEURES
10
38.002
20
24.998
0
VERTEX
8
CONTOURS_MINEURES
10
39.256
20
20.740
0
VERTEX
8
CONTOURS_MINEURES
10
39.514
20
20.001
0
VERTEX
8
CONTOURS_MINEURES
10
39.995
20
18.898
0
VERTEX
8
CONTOURS_MINEURES
10
41.760
20
16.768
0
VERTEX
8
CONTOURS_MINEURES
10
43.026
20
15.005
0
VERTEX
8
CONTOURS_MINEURES
10
44.995
20
12.847
0
VERTEX
8
CONTOURS_MINEURES
10
46.695
20
11.699
0
VERTEX
8
CONTOURS_MINEURES
10
48.754
20
9.997
0
VERTEX
8
CONTOURS_MINEURES
10
49.995
20
8.766
0
VERTEX
8
CONTOURS_MINEURES
10
52.079
20
7.079
0
VERTEX
8
CONTOURS_MINEURES
10
55.005
20
5.321
0
VERTEX
8
CONTOURS_MINEURES
10
55.175
20
5.171
0
VERTEX
8
CONTOURS_MINEURES
10
55.608
20
5.001
0
VERTEX
8
CONTOURS_MINEURES
10
55.931
20
4.076
0
VERTEX
8
CONTOURS_MINEURES
10
57.869
20
0.004
0
SEQEND
0
POLYLINE
8
CONTOURS_MINEURES
66
1
70
0
0
VERTEX
8
CONTOURS_MINEURES
10
161.077
20
0.004
0
VERTEX
8
CONTOURS_MINEURES
10
161.616
20
1.621
0
VERTEX
8
CONTOURS_MINEURES
10
162.744
20
5.001
0
VERTEX
8
CONTOURS_MINEURES
10
163.016
20
6.982
0
VERTEX
8
CONTOURS_MINEURES
10
162.650
20
9.997
0
VERTEX
8
CONTOURS_MINEURES
10
161.099
20
11.100
0
VERTEX
8
CONTOURS_MINEURES
10
159.999
20
12.303
0
VERTEX
8
CONTOURS_MINEURES
10
158.491
20
13.495
0
VERTEX
8
CONTOURS_MINEURES
10
157.468
20
15.005
0
VERTEX
8
CONTOURS_MINEURES
10
154.999
20
16.873
0
VERTEX
8
CONTOURS_MINEURES
10
153.198
20
18.201
0
VERTEX
8
CONTOURS_MINEURES
10
150.914
20
20.001
0
VERTEX
8
CONTOURS_MINEURES
10
149.999
20
20.883
0
VERTEX
8
CONTOURS_MINEURES
10
147.916
20
22.916
0
VERTEX
8
CONTOURS_MINEURES
10
145.625
20
24.998
0
VERTEX
8
CONTOURS_MINEURES
10
145.520
20
25.519
0
VERTEX
8
CONTOURS_MINEURES
10
145.000
20
27.633
0
VERTEX
8
CONTOURS_MINEURES
10
144.415
20
30.005
0
VERTEX
8
CONTOURS_MINEURES
10
142.112
20
32.115
0
VERTEX
8
CONTOURS_MINEURES
10
140.000
20
33.822
0
VERTEX
8
CONTOURS_MINEURES
10
138.521
20
35.001
0
VERTEX
8
CONTOURS_MINEURES
10
136.553
20
36.553
0
VERTEX
8
CONTOURS_MINEURES
10
135.000
20
37.777
0
VERTEX
8
CONTOURS_MINEURES
10
133.602
20
39.998
0
VERTEX
8
CONTOURS_MINEURES
10
132.102
20
42.901
0
VERTEX
8
CONTOURS_MINEURES
10
131.014
20
45.005
0
VERTEX
8
CONTOURS_MINEURES
10
130.001
20
46.751
0
VERTEX
8
CONTOURS_MINEURES
10
128.247
20
48.250
0
VERTEX
8
CONTOURS_MINEURES
10
126.144
20
50.002
0
VERTEX
8
CONTOURS_MINEURES
10
125.001
20
51.601
0
VERTEX
8
CONTOURS_MINEURES
10
122.345
20
54.998
0
VERTEX
8
CONTOURS_MINEURES
10
121.965
20
58.032
0
VERTEX
8
CONTOURS_MINEURES
10
121.775
20
59.994
0
VERTEX
8
CONTOURS_MINEURES
10
121.668
20
61.664
0
VERTEX
8
CONTOURS_MINEURES
10
121.453
20
65.002
0
VERTEX
8
CONTOURS_MINEURES
10
121.141
20
68.859
0
VERTEX
8
CONTOURS_MINEURES
10
121.049
20
69.998
0
VERTEX
8
CONTOURS_MINEURES
10
120.986
20
70.982
0
VERTEX
8
CONTOURS_MINEURES
10
120.727
20
74.995
0
VERTEX
8
CONTOURS_MINEURES
10
120.673
20
75.667
0
VERTEX
8
CONTOURS_MINEURES
10
120.324
20
80.002
0
VERTEX
8
CONTOURS_MINEURES
10
120.304
20
80.305
0
VERTEX
8
CONTOURS_MINEURES
10
120.001
20
84.999
0
VERTEX
8
CONTOURS_MINEURES
10
119.604
20
89.995
0
VERTEX
8
CONTOURS_MINEURES
10
119.570
20
90.427
0
VERTEX
8
CONTOURS_MINEURES
10
119.275
20
95.002
0
VERTEX
8
CONTOURS_MINEURES
10
118.956
20
98.955
0
VERTEX
8
CONTOURS_MINEURES
10
118.890
20
99.999
0
VERTEX
8
CONTOURS_MINEURES
10
118.658
20
103.653
0
VERTEX
8
CONTOURS_MINEURES
10
118.550
20
104.995
0
VERTEX
8
CONTOURS_MINEURES
10
118.285
20
108.284
0
VERTEX
8
CONTOURS_MINEURES
10
117.984
20
110.003
0
VERTEX
8
CONTOURS_MINEURES
10
115.001
20
114.359
0
VERTEX
8
CONTOURS_MINEURES
10
114.634
20
114.632
0
VERTEX
8
CONTOURS_MINEURES
10
113.752
20
114.999
0
VERTEX
8
CONTOURS_MINEURES
10
110.002
20
117.270
0
VERTEX
8
CONTOURS_MINEURES
10
107.002
20
119.996
0
VERTEX
8
CONTOURS_MINEURES
10
105.911
20
120.906
0
VERTEX
8
CONTOURS_MINEURES
10
105.002
20
121.934
0
VERTEX
8
CONTOURS_MINEURES
10
102.502
20
125.003
0
VERTEX
8
CONTOURS_MINEURES
10
101.035
20
126.035
0
VERTEX
8
CONTOURS_MINEURES
10
100.002
20
126.794
0
VERTEX
8
CONTOURS_MINEURES
10
95.529
20
129.999
0
VERTEX
8
CONTOURS_MINEURES
10
95.310
20
130.307
0
VERTEX
8
CONTOURS_MINEURES
10
95.003
20
130.740
0
VERTEX
8
CONTOURS_MINEURES
10
91.977
20
134.996
0
VERTEX
8
CONTOURS_MINEURES
10
90.003
20
137.778
0
VERTEX
8
CONTOURS_MINEURES
10
89.094
20
139.093
0
VERTEX
8
CONTOURS_MINEURES
10
88.465
20
140.003
0
VERTEX
8
CONTOURS_MINEURES
10
85.003
20
145.000
0
VERTEX
8
CONTOURS_MINEURES
10
81.451
20
149.996
0
VERTEX
8
CONTOURS_MINEURES
10
80.850
20
150.844
0
VERTEX
8
CONTOURS_MINEURES
10
80.004
20
152.115
0
VERTEX
8
CONTOURS_MINEURES
10
78.640
20
155.004
0
VERTEX
8
CONTOURS_MINEURES
10
77.473
20
157.471
0
VERTEX
8
CONTOURS_MINEURES
10
77.117
20
160.000
0
VERTEX
8
CONTOURS_MINEURES
10
77.033
20
162.969
0
VERTEX
8
CONTOURS_MINEURES
10
76.542
20
164.996
0
VERTEX
8
CONTOURS_MINEURES
10
76.300
20
166.295
0
VERTEX
8
CONTOURS_MINEURES
10
76.334
20
170.004
0
VERTEX
8
CONTOURS_MINEURES
10
76.368
20
173.638
0
VERTEX
8
CONTOURS_MINEURES
10
76.254
20
175.000
0
VERTEX
8
CONTOURS_MINEURES
10
76.223
20
176.219
0
VERTEX
8
CONTOURS_MINEURES
10
76.063
20
179.997
0
VERTEX
8
CONTOURS_MINEURES
10
75.575
20
184.432
0
VERTEX
8
CONTOURS_MINEURES
10
75.575
20
185.004
0
VERTEX
8
CONTOURS_MINEURES
10
75.004
20
188.531
0
VERTEX
8
CONTOURS_MINEURES
10
74.749
20
189.746
0
VERTEX
8
CONTOURS_MINEURES
10
74.729
20
190.001
0
VERTEX
8
CONTOURS_MINEURES
10
74.061
20
194.054
0
VERTEX
8
CONTOURS_MINEURES
10
74.004
20
194.997
0
VERTEX
8
CONTOURS_MINEURES
10
73.893
20
196.110
0
VERTEX
8
CONTOURS_MINEURES
10
73.539
20
200.004
0
VERTEX
8
CONTOURS_MINEURES
10
73.257
20
201.750
0
VERTEX
8
CONTOURS_MINEURES
10
73.072
20
205.001
0
VERTEX
8
CONTOURS_MINEURES
10
72.817
20
207.811
0
VERTEX
8
CONTOURS_MINEURES
10
72.166
20
209.997
0
VERTEX
8
CONTOURS_MINEURES
10
70.629
20
214.379
0
VERTEX
8
CONTOURS_MINEURES
10
70.488
20
215.005
0
VERTEX
8
CONTOURS_MINEURES
10
70.004
20
215.433
0
VERTEX
8
CONTOURS_MINEURES
10
65.719
20
219.287
0
VERTEX
8
CONTOURS_MINEURES
10
65.005
20
219.929
0
VERTEX
8
CONTOURS_MINEURES
10
64.956
20
219.953
0
VERTEX
8
CONTOURS_MINEURES
10
64.918
20
220.001
0
VERTEX
8
CONTOURS_MINEURES
10
64.930
20
220.076
0
VERTEX
8
CONTOURS_MINEURES
10
63.713
20
224.998
0
VERTEX
8
CONTOURS_MINEURES
10
63.899
20
226.105
0
VERTEX
8
CONTOURS_MINEURES
10
63.975
20
230.005
0
VERTEX
8
CONTOURS_MINEURES
10
64.607
20
234.604
0
VERTEX
8
CONTOURS_MINEURES
10
64.665
20
235.001
0
VERTEX
8
CONTOURS_MINEURES
10
65.005
20
237.187
0
VERTEX
8
CONTOURS_MINEURES
10
65.249
20
239.753
0
VERTEX
8
CONTOURS_MINEURES
10
65.232
20
239.998
0
VERTEX
8
CONTOURS_MINEURES
10
65.241
20
240.235
0
VERTEX
8
CONTOURS_MINEURES
10
65.590
20
245.005
0
VERTEX
8
CONTOURS_MINEURES
10
65.636
20
245.636
0
VERTEX
8
CONTOURS_MINEURES
10
65.956
20
250.002
0
VERTEX
8
CONTOURS_MINEURES
10
66.232
20
253.772
0
VERTEX
8
CONTOURS_MINEURES
10
66.322
20
254.998
0
VERTEX
8
CONTOURS_MINEURES
10
66.426
20
256.418
0
VERTEX
8
CONTOURS_MINEURES
10
66.704
20
259.994
0
VERTEX
8
CONTOURS_MINEURES
10
66.928
20
263.076
0
VERTEX
8
CONTOURS_MINEURES
10
67.078
20
265.002
0
VERTEX
8
CONTOURS_MINEURES
10
67.241
20
267.237
0
VERTEX
8
CONTOURS_MINEURES
10
67.444
20
269.998
0
VERTEX
8
CONTOURS_MINEURES
10
67.618
20
272.383
0
VERTEX
8
CONTOURS_MINEURES
10
67.809
20
274.995
0
VERTEX
8
CONTOURS_MINEURES
10
68.015
20
278.010
0
VERTEX
8
CONTOURS_MINEURES
10
68.046
20
280.002
0
VERTEX
8
CONTOURS_MINEURES
10
67.650
20
282.646
0
VERTEX
8
CONTOURS_MINEURES
10
66.784
20
284.999
0
VERTEX
8
CONTOURS_MINEURES
10
65.005
20
288.408
0
VERTEX
8
CONTOURS_MINEURES
10
64.187
20
289.177
0
VERTEX
8
CONTOURS_MINEURES
10
63.296
20
289.995
0
VERTEX
8
CONTOURS_MINEURES
10
60.005
20
293.058
0
VERTEX
8
CONTOURS_MINEURES
10
59.005
20
294.001
0
VERTEX
8
CONTOURS_MINEURES
10
57.917
20
295.003
0
VERTEX
8
CONTOURS_MINEURES
10
55.005
20
297.706
0
VERTEX
8
CONTOURS_MINEURES
10
53.821
20
298.818
0
VERTEX
8
CONTOURS_MINEURES
10
52.532
20
299.999
0
VERTEX
8
CONTOURS_MINEURES
10
49.995
20
302.350
0
VERTEX
8
CONTOURS_MINEURES
10
48.631
20
303.633
0
VERTEX
8
CONTOURS_MINEURES
10
47.147
20
304.995
0
VERTEX
8
CONTOURS_MINEURES
10
46.025
20
306.027
0
VERTEX
8
CONTOURS_MINEURES
10
44.995
20
306.998
0
VERTEX
8
CONTOURS_MINEURES
10
43.450
20
308.455
0
VERTEX
8
CONTOURS_MINEURES
10
41.768
20
310.003
0
VERTEX
8
CONTOURS_MINEURES
10
40.586
20
310.593
0
VERTEX
8
CONTOURS_MINEURES
10
39.995
20
310.831
0
VERTEX
8
CONTOURS_MINEURES
10
38.474
20
311.523
0
VERTEX
8
CONTOURS_MINEURES
10
34.996
20
313.140
0
VERTEX
8
CONTOURS_MINEURES
10
30.613
20
314.999
0
VERTEX
8
CONTOURS_MINEURES
10
30.250
20
315.253
0
VERTEX
8
CONTOURS_MINEURES
10
29.996
20
315.362
0
VERTEX
8
CONTOURS_MINEURES
10
26.854
20
316.856
0
VERTEX
8
CONTOURS_MINEURES
10
24.996
20
317.784
0
VERTEX
8
CONTOURS_MINEURES
10
20.175
20
319.996
0
VERTEX
8
CONTOURS_MINEURES
10
19.997
20
320.051
0
VERTEX
8
CONTOURS_MINEURES
10
16.156
20
321.156
0
VERTEX
8
CONTOURS_MINEURES
10
14.997
20
321.786
0
VERTEX
8
CONTOURS_MINEURES
10
11.622
20
323.376
0
VERTEX
8
CONTOURS_MINEURES
10
9.997
20
324.017
0
VERTEX
8
CONTOURS_MINEURES
10
9.447
20
324.451
0
VERTEX
8
CONTOURS_MINEURES
10
8.905
20
325.003
0
VERTEX
8
CONTOURS_MINEURES
10
6.433
20
326.437
0
VERTEX
8
CONTOURS_MINEURES
10
4.998
20
328.060
0
VERTEX
8
CONTOURS_MINEURES
10
1.116
20
329.999
0
VERTEX
8
CONTOURS_MINEURES
10
0.470
20
330.471
0
VERTEX
8
CONTOURS_MINEURES
10
-0.002
20
331.230
0
SEQEND
0
POLYLINE
8
CONTOURS_MINEURES
66
1
70
0
0
VERTEX
8
CONTOURS_MINEURES
10
-0.002
20
70.068
0
VERTEX
8
CONTOURS_MINEURES
10
0.047
20
70.047
0
VERTEX
8
CONTOURS_MINEURES
10
0.240
20
69.998
0
VERTEX
8
CONTOURS_MINEURES
10
3.154
20
68.156
0
VERTEX
8
CONTOURS_MINEURES
10
4.998
20
67.021
0
VERTEX
8
CONTOURS_MINEURES
10
5.543
20
65.002
0
VERTEX
8
CONTOURS_MINEURES
10
5.817
20
64.181
0
VERTEX
8
CONTOURS_MINEURES
10
6.468
20
59.994
0
VERTEX
8
CONTOURS_MINEURES
10
8.398
20
56.597
0
VERTEX
8
CONTOURS_MINEURES
10
9.288
20
54.998
0
VERTEX
8
CONTOURS_MINEURES
10
9.443
20
54.444
0
VERTEX
8
CONTOURS_MINEURES
10
9.997
20
53.849
0
VERTEX
8
CONTOURS_MINEURES
10
13.122
20
51.875
0
VERTEX
8
CONTOURS_MINEURES
10
14.997
20
50.775
0
VERTEX
8
CONTOURS_MINEURES
10
16.711
20
50.002
0
VERTEX
8
CONTOURS_MINEURES
10
19.997
20
48.650
0
VERTEX
8
CONTOURS_MINEURES
10
22.716
20
47.723
0
VERTEX
8
CONTOURS_MINEURES
10
24.996
20
45.878
0
VERTEX
8
CONTOURS_MINEURES
10
26.830
20
45.005
0
VERTEX
8
CONTOURS_MINEURES
10
28.980
20
43.988
0
VERTEX
8
CONTOURS_MINEURES
10
29.996
20
43.446
0
VERTEX
8
CONTOURS_MINEURES
10
32.796
20
42.802
0
VERTEX
8
CONTOURS_MINEURES
10
34.996
20
41.733
0
VERTEX
8
CONTOURS_MINEURES
10
36.211
20
39.998
0
VERTEX
8
CONTOURS_MINEURES
10
38.028
20
38.032
0
VERTEX
8
CONTOURS_MINEURES
10
39.393
20
35.001
0
VERTEX
8
CONTOURS_MINEURES
10
39.663
20
34.669
0
VERTEX
8
CONTOURS_MINEURES
10
39.995
20
33.547
0
VERTEX
8
CONTOURS_MINEURES
10
41.542
20
30.005
0
VERTEX
8
CONTOURS_MINEURES
10
42.101
20
27.897
0
VERTEX
8
CONTOURS_MINEURES
10
42.376
20
24.998
0
VERTEX
8
CONTOURS_MINEURES
10
43.411
20
23.414
0
VERTEX
8
CONTOURS_MINEURES
10
44.458
20
20.001
0
VERTEX
8
CONTOURS_MINEURES
10
44.701
20
19.707
0
VERTEX
8
CONTOURS_MINEURES
10
44.995
20
19.297
0
VERTEX
8
CONTOURS_MINEURES
10
47.942
20
17.949
0
VERTEX
8
CONTOURS_MINEURES
10
49.995
20
15.005
0
VERTEX
8
CONTOURS_MINEURES
10
52.913
20
12.914
0
VERTEX
8
CONTOURS_MINEURES
10
55.005
20
11.560
0
VERTEX
8
CONTOURS_MINEURES
10
56.962
20
9.997
0
VERTEX
8
CONTOURS_MINEURES
10
58.577
20
8.570
0
VERTEX
8
CONTOURS_MINEURES
10
60.005
20
8.008
0
VERTEX
8
CONTOURS_MINEURES
10
63.534
20
6.470
0
VERTEX
8
CONTOURS_MINEURES
10
65.005
20
5.715
0
VERTEX
8
CONTOURS_MINEURES
10
65.355
20
5.351
0
VERTEX
8
CONTOURS_MINEURES
10
65.858
20
5.001
0
VERTEX
8
CONTOURS_MINEURES
10
66.809
20
3.198
0
VERTEX
8
CONTOURS_MINEURES
10
67.708
20
0.004
0
SEQEND
0
POLYLINE
8
CONTOURS_MINEURES
66
1
70
0
0
VERTEX
8
CONTOURS_MINEURES
10
141.372
20
0.004
0
VERTEX
8
CONTOURS_MINEURES
10
142.121
20
2.124
0
VERTEX
8
CONTOURS_MINEURES
10
143.137
20
5.001
0
VERTEX
8
CONTOURS_MINEURES
10
145.000
20
9.747
0
VERTEX
8
CONTOURS_MINEURES
10
145.070
20
9.927
0
VERTEX
8
CONTOURS_MINEURES
10
145.098
20
9.997
0
VERTEX
8
CONTOURS_MINEURES
10
145.061
20
10.058
0
VERTEX
8
CONTOURS_MINEURES
10
145.000
20
10.623
0
VERTEX
8
CONTOURS_MINEURES
10
144.485
20
15.005
0
VERTEX
8
CONTOURS_MINEURES
10
141.871
20
16.875
0
VERTEX
8
CONTOURS_MINEURES
10
140.000
20
18.814
0
VERTEX
8
CONTOURS_MINEURES
10
139.326
20
19.328
0
VERTEX
8
CONTOURS_MINEURES
10
138.827
20
20.001
0
VERTEX
8
CONTOURS_MINEURES
10
136.802
20
21.802
0
VERTEX
8
CONTOURS_MINEURES
10
135.000
20
23.368
0
VERTEX
8
CONTOURS_MINEURES
10
134.393
20
24.391
0
VERTEX
8
CONTOURS_MINEURES
10
134.069
20
24.998
0
VERTEX
8
CONTOURS_MINEURES
10
133.828
20
26.171
0
VERTEX
8
CONTOURS_MINEURES
10
133.182
20
30.005
0
VERTEX
8
CONTOURS_MINEURES
10
131.976
20
31.979
0
VERTEX
8
CONTOURS_MINEURES
10
130.001
20
34.713
0
VERTEX
8
CONTOURS_MINEURES
10
129.584
20
35.001
0
VERTEX
8
CONTOURS_MINEURES
10
127.025
20
37.024
0
VERTEX
8
CONTOURS_MINEURES
10
125.001
20
38.586
0
VERTEX
8
CONTOURS_MINEURES
10
124.203
20
39.201
0
VERTEX
8
CONTOURS_MINEURES
10
123.170
20
39.998
0
VERTEX
8
CONTOURS_MINEURES
10
121.553
20
41.552
0
VERTEX
8
CONTOURS_MINEURES
10
120.001
20
43.085
0
VERTEX
8
CONTOURS_MINEURES
10
119.036
20
44.038
0
VERTEX
8
CONTOURS_MINEURES
10
118.057
20
45.005
0
VERTEX
8
CONTOURS_MINEURES
10
116.412
20
46.414
0
VERTEX
8
CONTOURS_MINEURES
10
115.001
20
47.592
0
VERTEX
8
CONTOURS_MINEURES
10
112.154
20
50.002
0
VERTEX
8
CONTOURS_MINEURES
10
111.133
20
51.132
0
VERTEX
8
CONTOURS_MINEURES
10
110.002
20
52.153
0
VERTEX
8
CONTOURS_MINEURES
10
106.848
20
54.998
0
VERTEX
8
CONTOURS_MINEURES
10
106.560
20
56.555
0
VERTEX
8
CONTOURS_MINEURES
10
105.728
20
59.994
0
VERTEX
8
CONTOURS_MINEURES
10
105.353
20
64.651
0
VERTEX
8
CONTOURS_MINEURES
10
105.325
20
65.002
0
VERTEX
8
CONTOURS_MINEURES
10
105.305
20
65.305
0
VERTEX
8
CONTOURS_MINEURES
10
105.002
20
69.998
0
VERTEX
8
CONTOURS_MINEURES
10
104.599
20
74.995
0
VERTEX
8
CONTOURS_MINEURES
10
104.571
20
75.426
0
VERTEX
8
CONTOURS_MINEURES
10
104.276
20
80.002
0
VERTEX
8
CONTOURS_MINEURES
10
104.213
20
80.791
0
VERTEX
8
CONTOURS_MINEURES
10
103.873
20
84.999
0
VERTEX
8
CONTOURS_MINEURES
10
103.639
20
88.632
0
VERTEX
8
CONTOURS_MINEURES
10
103.551
20
89.995
0
VERTEX
8
CONTOURS_MINEURES
10
103.286
20
93.284
0
VERTEX
8
CONTOURS_MINEURES
10
103.053
20
95.002
0
VERTEX
8
CONTOURS_MINEURES
10
100.002
20
99.864
0
VERTEX
8
CONTOURS_MINEURES
10
99.929
20
99.925
0
VERTEX
8
CONTOURS_MINEURES
10
99.690
20
99.999
0
VERTEX
8
CONTOURS_MINEURES
10
95.003
20
102.203
0
VERTEX
8
CONTOURS_MINEURES
10
93.563
20
103.557
0
VERTEX
8
CONTOURS_MINEURES
10
91.938
20
104.995
0
VERTEX
8
CONTOURS_MINEURES
10
90.003
20
106.763
0
VERTEX
8
CONTOURS_MINEURES
10
87.030
20
110.003
0
VERTEX
8
CONTOURS_MINEURES
10
86.157
20
111.156
0
VERTEX
8
CONTOURS_MINEURES
10
85.003
20
112.779
0
VERTEX
8
CONTOURS_MINEURES
10
83.465
20
114.999
0
VERTEX
8
CONTOURS_MINEURES
10
82.049
20
117.043
0
VERTEX
8
CONTOURS_MINEURES
10
80.004
20
119.996
0
VERTEX
8
CONTOURS_MINEURES
10
76.451
20
125.003
0
VERTEX
8
CONTOURS_MINEURES
10
75.602
20
125.600
0
VERTEX
8
CONTOURS_MINEURES
10
75.004
20
126.021
0
VERTEX
8
CONTOURS_MINEURES
10
72.667
20
127.664
0
VERTEX
8
CONTOURS_MINEURES
10
70.004
20
129.804
0
VERTEX
8
CONTOURS_MINEURES
10
69.954
20
129.999
0
VERTEX
8
CONTOURS_MINEURES
10
69.459
20
134.451
0
VERTEX
8
CONTOURS_MINEURES
10
69.464
20
134.996
0
VERTEX
8
CONTOURS_MINEURES
10
69.459
20
135.542
0
VERTEX
8
CONTOURS_MINEURES
10
69.157
20
140.003
0
VERTEX
8
CONTOURS_MINEURES
10
69.004
20
144.000
0
VERTEX
8
CONTOURS_MINEURES
10
68.966
20
145.000
0
VERTEX
8
CONTOURS_MINEURES
10
68.886
20
146.118
0
VERTEX
8
CONTOURS_MINEURES
10
68.851
20
149.996
0
VERTEX
8
CONTOURS_MINEURES
10
68.729
20
151.273
0
VERTEX
8
CONTOURS_MINEURES
10
68.748
20
155.004
0
VERTEX
8
CONTOURS_MINEURES
10
68.805
20
158.802
0
VERTEX
8
CONTOURS_MINEURES
10
68.677
20
160.000
0
VERTEX
8
CONTOURS_MINEURES
10
68.636
20
163.629
0
VERTEX
8
CONTOURS_MINEURES
10
68.555
20
164.996
0
VERTEX
8
CONTOURS_MINEURES
10
68.501
20
166.502
0
VERTEX
8
CONTOURS_MINEURES
10
68.318
20
170.004
0
VERTEX
8
CONTOURS_MINEURES
10
68.020
20
173.018
0
VERTEX
8
CONTOURS_MINEURES
10
67.933
20
175.000
0
VERTEX
8
CONTOURS_MINEURES
10
67.759
20
177.244
0
VERTEX
8
CONTOURS_MINEURES
10
67.478
20
179.997
0
VERTEX
8
CONTOURS_MINEURES
10
67.316
20
182.312
0
VERTEX
8
CONTOURS_MINEURES
10
66.999
20
185.004
0
VERTEX
8
CONTOURS_MINEURES
10
66.531
20
188.476
0
VERTEX
8
CONTOURS_MINEURES
10
66.464
20
190.001
0
VERTEX
8
CONTOURS_MINEURES
10
66.412
20
191.407
0
VERTEX
8
CONTOURS_MINEURES
10
65.749
20
194.997
0
VERTEX
8
CONTOURS_MINEURES
10
65.005
20
198.502
0
VERTEX
8
CONTOURS_MINEURES
10
64.380
20
199.379
0
VERTEX
8
CONTOURS_MINEURES
10
63.398
20
200.004
0
VERTEX
8
CONTOURS_MINEURES
10
61.466
20
201.465
0
VERTEX
8
CONTOURS_MINEURES
10
60.005
20
202.162
0
VERTEX
8
CONTOURS_MINEURES
10
56.099
20
205.001
0
VERTEX
8
CONTOURS_MINEURES
10
55.498
20
205.493
0
VERTEX
8
CONTOURS_MINEURES
10
55.005
20
206.061
0
VERTEX
8
CONTOURS_MINEURES
10
52.347
20
209.997
0
VERTEX
8
CONTOURS_MINEURES
10
51.491
20
211.493
0
VERTEX
8
CONTOURS_MINEURES
10
51.623
20
215.005
0
VERTEX
8
CONTOURS_MINEURES
10
52.523
20
217.480
0
VERTEX
8
CONTOURS_MINEURES
10
52.697
20
220.001
0
VERTEX
8
CONTOURS_MINEURES
10
53.162
20
223.160
0
VERTEX
8
CONTOURS_MINEURES
10
53.449
20
224.998
0
VERTEX
8
CONTOURS_MINEURES
10
53.647
20
226.355
0
VERTEX
8
CONTOURS_MINEURES
10
54.178
20
230.005
0
VERTEX
8
CONTOURS_MINEURES
10
54.283
20
230.725
0
VERTEX
8
CONTOURS_MINEURES
10
54.908
20
235.001
0
VERTEX
8
CONTOURS_MINEURES
10
55.005
20
235.626
0
VERTEX
8
CONTOURS_MINEURES
10
55.598
20
239.405
0
VERTEX
8
CONTOURS_MINEURES
10
55.685
20
239.998
0
VERTEX
8
CONTOURS_MINEURES
10
55.801
20
240.794
0
VERTEX
8
CONTOURS_MINEURES
10
56.413
20
245.005
0
VERTEX
8
CONTOURS_MINEURES
10
56.870
20
248.139
0
VERTEX
8
CONTOURS_MINEURES
10
57.162
20
250.002
0
VERTEX
8
CONTOURS_MINEURES
10
57.534
20
252.529
0
VERTEX
8
CONTOURS_MINEURES
10
57.897
20
254.998
0
VERTEX
8
CONTOURS_MINEURES
10
58.183
20
256.819
0
VERTEX
8
CONTOURS_MINEURES
10
58.646
20
259.994
0
VERTEX
8
CONTOURS_MINEURES
10
59.266
20
264.262
0
VERTEX
8
CONTOURS_MINEURES
10
59.374
20
265.002
0
VERTEX
8
CONTOURS_MINEURES
10
59.454
20
265.552
0
VERTEX
8
CONTOURS_MINEURES
10
60.005
20
269.062
0
VERTEX
8
CONTOURS_MINEURES
10
60.151
20
269.998
0
VERTEX
8
CONTOURS_MINEURES
10
60.768
20
274.233
0
VERTEX
8
CONTOURS_MINEURES
10
60.879
20
274.995
0
VERTEX
8
CONTOURS_MINEURES
10
60.905
20
275.896
0
VERTEX
8
CONTOURS_MINEURES
10
60.548
20
280.002
0
VERTEX
8
CONTOURS_MINEURES
10
60.005
20
280.696
0
VERTEX
8
CONTOURS_MINEURES
10
58.055
20
283.050
0
VERTEX
8
CONTOURS_MINEURES
10
56.081
20
284.999
0
VERTEX
8
CONTOURS_MINEURES
10
55.005
20
285.998
0
VERTEX
8
CONTOURS_MINEURES
10
52.940
20
287.936
0
VERTEX
8
CONTOURS_MINEURES
10
50.693
20
289.995
0
VERTEX
8
CONTOURS_MINEURES
10
49.995
20
290.643
0
VERTEX
8
CONTOURS_MINEURES
10
47.753
20
292.757
0
VERTEX
8
CONTOURS_MINEURES
10
45.312
20
295.003
0
VERTEX
8
CONTOURS_MINEURES
10
44.995
20
295.296
0
VERTEX
8
CONTOURS_MINEURES
10
40.829
20
299.166
0
VERTEX
8
CONTOURS_MINEURES
10
39.995
20
299.941
0
VERTEX
8
CONTOURS_MINEURES
10
39.965
20
299.969
0
VERTEX
8
CONTOURS_MINEURES
10
39.933
20
299.999
0
VERTEX
8
CONTOURS_MINEURES
10
34.996
20
304.589
0
VERTEX
8
CONTOURS_MINEURES
10
34.558
20
304.995
0
VERTEX
8
CONTOURS_MINEURES
10
32.208
20
307.211
0
VERTEX
8
CONTOURS_MINEURES
10
29.996
20
309.246
0
VERTEX
8
CONTOURS_MINEURES
10
29.184
20
310.003
0
VERTEX
8
CONTOURS_MINEURES
10
24.996
20
311.685
0
VERTEX
8
CONTOURS_MINEURES
10
22.597
20
312.601
0
VERTEX
8
CONTOURS_MINEURES
10
19.997
20
313.192
0
VERTEX
8
CONTOURS_MINEURES
10
18.591
20
313.594
0
VERTEX
8
CONTOURS_MINEURES
10
14.997
20
314.367
0
VERTEX
8
CONTOURS_MINEURES
10
12.113
20
314.999
0
VERTEX
8
CONTOURS_MINEURES
10
10.652
20
315.653
0
VERTEX
8
CONTOURS_MINEURES
10
9.997
20
315.947
0
VERTEX
8
CONTOURS_MINEURES
10
7.851
20
317.851
0
VERTEX
8
CONTOURS_MINEURES
10
5.478
20
319.996
0
VERTEX
8
CONTOURS_MINEURES
10
5.210
20
320.208
0
VERTEX
8
CONTOURS_MINEURES
10
4.998
20
320.424
0
VERTEX
8
CONTOURS_MINEURES
10
4.217
20
320.778
0
VERTEX
8
CONTOURS_MINEURES
10
-0.002
20
322.652
0
SEQEND
0
POLYLINE
8
CONTOURS_MINEURES
66
1
70
0
0
VERTEX
8
CONTOURS_MINEURES
10
-0.002
20
74.738
0
VERTEX
8
CONTOURS_MINEURES
10
3.304
20
73.302
0
VERTEX
8
CONTOURS_MINEURES
10
4.998
20
72.874
0
VERTEX
8
CONTOURS_MINEURES
10
6.769
20
69.998
0
VERTEX
8
CONTOURS_MINEURES
10
7.628
20
67.370
0
VERTEX
8
CONTOURS_MINEURES
10
8.267
20
65.002
0
VERTEX
8
CONTOURS_MINEURES
10
9.915
20
60.077
0
VERTEX
8
CONTOURS_MINEURES
10
9.928
20
59.994
0
VERTEX
8
CONTOURS_MINEURES
10
9.997
20
59.873
0
VERTEX
8
CONTOURS_MINEURES
10
13.373
20
58.371
0
VERTEX
8
CONTOURS_MINEURES
10
14.997
20
57.359
0
VERTEX
8
CONTOURS_MINEURES
10
16.935
20
56.935
0
VERTEX
8
CONTOURS_MINEURES
10
19.997
20
55.960
0
VERTEX
8
CONTOURS_MINEURES
10
20.809
20
55.810
0
VERTEX
8
CONTOURS_MINEURES
10
22.951
20
54.998
0
VERTEX
8
CONTOURS_MINEURES
10
24.996
20
54.209
0
VERTEX
8
CONTOURS_MINEURES
10
26.136
20
53.860
0
VERTEX
8
CONTOURS_MINEURES
10
29.996
20
53.049
0
VERTEX
8
CONTOURS_MINEURES
10
32.929
20
52.932
0
VERTEX
8
CONTOURS_MINEURES
10
34.996
20
52.760
0
VERTEX
8
CONTOURS_MINEURES
10
37.300
20
52.304
0
VERTEX
8
CONTOURS_MINEURES
10
39.995
20
50.975
0
VERTEX
8
CONTOURS_MINEURES
10
40.848
20
50.002
0
VERTEX
8
CONTOURS_MINEURES
10
41.979
20
46.987
0
VERTEX
8
CONTOURS_MINEURES
10
42.303
20
45.005
0
VERTEX
8
CONTOURS_MINEURES
10
43.091
20
43.098
0
VERTEX
8
CONTOURS_MINEURES
10
43.694
20
39.998
0
VERTEX
8
CONTOURS_MINEURES
10
44.995
20
36.001
0
VERTEX
8
CONTOURS_MINEURES
10
45.305
20
35.311
0
VERTEX
8
CONTOURS_MINEURES
10
45.380
20
35.001
0
VERTEX
8
CONTOURS_MINEURES
10
45.697
20
34.300
0
VERTEX
8
CONTOURS_MINEURES
10
48.019
20
30.005
0
VERTEX
8
CONTOURS_MINEURES
10
48.571
20
28.578
0
VERTEX
8
CONTOURS_MINEURES
10
49.995
20
27.118
0
VERTEX
8
CONTOURS_MINEURES
10
50.708
20
25.710
0
VERTEX
8
CONTOURS_MINEURES
10
51.056
20
24.998
0
VERTEX
8
CONTOURS_MINEURES
10
53.052
20
21.949
0
VERTEX
8
CONTOURS_MINEURES
10
54.170
20
20.001
0
VERTEX
8
CONTOURS_MINEURES
10
54.489
20
19.486
0
VERTEX
8
CONTOURS_MINEURES
10
55.005
20
18.896
0
VERTEX
8
CONTOURS_MINEURES
10
56.916
20
15.005
0
VERTEX
8
CONTOURS_MINEURES
10
60.005
20
12.349
0
VERTEX
8
CONTOURS_MINEURES
10
61.426
20
11.421
0
VERTEX
8
CONTOURS_MINEURES
10
64.608
20
9.997
0
VERTEX
8
CONTOURS_MINEURES
10
65.005
20
9.793
0
VERTEX
8
CONTOURS_MINEURES
10
67.355
20
7.349
0
VERTEX
8
CONTOURS_MINEURES
10
70.004
20
5.509
0
VERTEX
8
CONTOURS_MINEURES
10
72.463
20
5.001
0
VERTEX
8
CONTOURS_MINEURES
10
75.004
20
3.467
0
VERTEX
8
CONTOURS_MINEURES
10
77.738
20
2.737
0
VERTEX
8
CONTOURS_MINEURES
10
80.004
20
1.188
0
VERTEX
8
CONTOURS_MINEURES
10
80.373
20
0.373
0
VERTEX
8
CONTOURS_MINEURES
10
81.388
20
0.004
0
SEQEND
0
POLYLINE
8
CONTOURS_MINEURES
66
1
70
0
0
VERTEX
8
CONTOURS_MINEURES
10
126.667
20
0.004
0
VERTEX
8
CONTOURS_MINEURES
10
127.606
20
2.397
0
VERTEX
8
CONTOURS_MINEURES
10
128.628
20
5.001
0
VERTEX
8
CONTOURS_MINEURES
10
130.001
20
9.116
0
VERTEX
8
CONTOURS_MINEURES
10
130.127
20
9.871
0
VERTEX
8
CONTOURS_MINEURES
10
130.148
20
9.997
0
VERTEX
8
CONTOURS_MINEURES
10
130.186
20
10.183
0
VERTEX
8
CONTOURS_MINEURES
10
131.321
20
15.005
0
VERTEX
8
CONTOURS_MINEURES
10
130.895
20
19.107
0
VERTEX
8
CONTOURS_MINEURES
10
130.549
20
20.001
0
VERTEX
8
CONTOURS_MINEURES
10
130.345
20
20.345
0
VERTEX
8
CONTOURS_MINEURES
10
130.001
20
20.989
0
VERTEX
8
CONTOURS_MINEURES
10
125.742
20
24.998
0
VERTEX
8
CONTOURS_MINEURES
10
125.527
20
25.525
0
VERTEX
8
CONTOURS_MINEURES
10
125.001
20
26.579
0
VERTEX
8
CONTOURS_MINEURES
10
123.313
20
30.005
0
VERTEX
8
CONTOURS_MINEURES
10
120.001
20
32.240
0
VERTEX
8
CONTOURS_MINEURES
10
115.626
20
35.001
0
VERTEX
8
CONTOURS_MINEURES
10
115.276
20
35.276
0
VERTEX
8
CONTOURS_MINEURES
10
115.001
20
35.490
0
VERTEX
8
CONTOURS_MINEURES
10
112.859
20
37.143
0
VERTEX
8
CONTOURS_MINEURES
10
110.002
20
39.346
0
VERTEX
8
CONTOURS_MINEURES
10
109.157
20
39.998
0
VERTEX
8
CONTOURS_MINEURES
10
105.002
20
44.101
0
VERTEX
8
CONTOURS_MINEURES
10
104.551
20
44.553
0
VERTEX
8
CONTOURS_MINEURES
10
104.087
20
45.005
0
VERTEX
8
CONTOURS_MINEURES
10
100.002
20
48.539
0
VERTEX
8
CONTOURS_MINEURES
10
99.223
20
49.223
0
VERTEX
8
CONTOURS_MINEURES
10
98.359
20
50.002
0
VERTEX
8
CONTOURS_MINEURES
10
95.003
20
52.722
0
VERTEX
8
CONTOURS_MINEURES
10
91.988
20
54.998
0
VERTEX
8
CONTOURS_MINEURES
10
91.439
20
56.433
0
VERTEX
8
CONTOURS_MINEURES
10
90.003
20
59.214
0
VERTEX
8
CONTOURS_MINEURES
10
89.758
20
59.750
0
VERTEX
8
CONTOURS_MINEURES
10
89.606
20
59.994
0
VERTEX
8
CONTOURS_MINEURES
10
89.572
20
60.426
0
VERTEX
8
CONTOURS_MINEURES
10
89.277
20
65.002
0
VERTEX
8
CONTOURS_MINEURES
10
89.214
20
65.791
0
VERTEX
8
CONTOURS_MINEURES
10
88.874
20
69.998
0
VERTEX
8
CONTOURS_MINEURES
10
88.640
20
73.632
0
VERTEX
8
CONTOURS_MINEURES
10
88.552
20
74.995
0
VERTEX
8
CONTOURS_MINEURES
10
88.367
20
76.634
0
VERTEX
8
CONTOURS_MINEURES
10
88.087
20
80.002
0
VERTEX
8
CONTOURS_MINEURES
10
87.764
20
82.761
0
VERTEX
8
CONTOURS_MINEURES
10
85.592
20
84.999
0
VERTEX
8
CONTOURS_MINEURES
10
85.293
20
85.288
0
VERTEX
8
CONTOURS_MINEURES
10
85.003
20
85.356
0
VERTEX
8
CONTOURS_MINEURES
10
81.123
20
86.117
0
VERTEX
8
CONTOURS_MINEURES
10
80.004
20
87.080
0
VERTEX
8
CONTOURS_MINEURES
10
76.916
20
89.995
0
VERTEX
8
CONTOURS_MINEURES
10
75.004
20
91.754
0
VERTEX
8
CONTOURS_MINEURES
10
73.186
20
93.182
0
VERTEX
8
CONTOURS_MINEURES
10
71.576
20
95.002
0
VERTEX
8
CONTOURS_MINEURES
10
70.004
20
97.038
0
VERTEX
8
CONTOURS_MINEURES
10
69.235
20
99.230
0
VERTEX
8
CONTOURS_MINEURES
10
68.979
20
99.999
0
VERTEX
8
CONTOURS_MINEURES
10
68.495
20
101.507
0
VERTEX
8
CONTOURS_MINEURES
10
67.317
20
104.995
0
VERTEX
8
CONTOURS_MINEURES
10
66.734
20
106.727
0
VERTEX
8
CONTOURS_MINEURES
10
65.935
20
110.003
0
VERTEX
8
CONTOURS_MINEURES
10
65.713
20
110.710
0
VERTEX
8
CONTOURS_MINEURES
10
65.056
20
114.999
0
VERTEX
8
CONTOURS_MINEURES
10
65.005
20
115.554
0
VERTEX
8
CONTOURS_MINEURES
10
64.685
20
119.996
0
VERTEX
8
CONTOURS_MINEURES
10
64.611
20
124.609
0
VERTEX
8
CONTOURS_MINEURES
10
64.620
20
125.003
0
VERTEX
8
CONTOURS_MINEURES
10
64.605
20
125.403
0
VERTEX
8
CONTOURS_MINEURES
10
64.837
20
129.999
0
VERTEX
8
CONTOURS_MINEURES
10
64.919
20
134.910
0
VERTEX
8
CONTOURS_MINEURES
10
64.909
20
134.996
0
VERTEX
8
CONTOURS_MINEURES
10
64.816
20
139.814
0
VERTEX
8
CONTOURS_MINEURES
10
64.772
20
140.003
0
VERTEX
8
CONTOURS_MINEURES
10
64.320
20
144.316
0
VERTEX
8
CONTOURS_MINEURES
10
64.114
20
145.000
0
VERTEX
8
CONTOURS_MINEURES
10
63.338
20
148.331
0
VERTEX
8
CONTOURS_MINEURES
10
62.950
20
149.996
0
VERTEX
8
CONTOURS_MINEURES
10
62.292
20
152.287
0
VERTEX
8
CONTOURS_MINEURES
10
62.005
20
155.004
0
VERTEX
8
CONTOURS_MINEURES
10
61.777
20
158.229
0
VERTEX
8
CONTOURS_MINEURES
10
61.433
20
160.000
0
VERTEX
8
CONTOURS_MINEURES
10
61.028
20
163.974
0
VERTEX
8
CONTOURS_MINEURES
10
60.923
20
164.996
0
VERTEX
8
CONTOURS_MINEURES
10
60.870
20
165.863
0
VERTEX
8
CONTOURS_MINEURES
10
60.062
20
170.004
0
VERTEX
8
CONTOURS_MINEURES
10
60.005
20
170.231
0
VERTEX
8
CONTOURS_MINEURES
10
58.725
20
173.721
0
VERTEX
8
CONTOURS_MINEURES
10
58.163
20
175.000
0
VERTEX
8
CONTOURS_MINEURES
10
57.200
20
177.194
0
VERTEX
8
CONTOURS_MINEURES
10
55.666
20
179.997
0
VERTEX
8
CONTOURS_MINEURES
10
55.448
20
180.440
0
VERTEX
8
CONTOURS_MINEURES
10
55.005
20
180.970
0
VERTEX
8
CONTOURS_MINEURES
10
52.667
20
182.334
0
VERTEX
8
CONTOURS_MINEURES
10
49.995
20
184.133
0
VERTEX
8
CONTOURS_MINEURES
10
49.370
20
184.378
0
VERTEX
8
CONTOURS_MINEURES
10
48.395
20
185.004
0
VERTEX
8
CONTOURS_MINEURES
10
44.995
20
187.502
0
VERTEX
8
CONTOURS_MINEURES
10
43.815
20
188.821
0
VERTEX
8
CONTOURS_MINEURES
10
42.698
20
190.001
0
VERTEX
8
CONTOURS_MINEURES
10
41.424
20
191.428
0
VERTEX
8
CONTOURS_MINEURES
10
39.995
20
193.569
0
VERTEX
8
CONTOURS_MINEURES
10
39.476
20
194.478
0
VERTEX
8
CONTOURS_MINEURES
10
39.496
20
194.997
0
VERTEX
8
CONTOURS_MINEURES
10
39.231
20
199.239
0
VERTEX
8
CONTOURS_MINEURES
10
39.346
20
200.004
0
VERTEX
8
CONTOURS_MINEURES
10
39.995
20
205.001
0
VERTEX
8
CONTOURS_MINEURES
10
40.671
20
209.322
0
VERTEX
8
CONTOURS_MINEURES
10
40.724
20
209.997
0
VERTEX
8
CONTOURS_MINEURES
10
40.848
20
210.851
0
VERTEX
8
CONTOURS_MINEURES
10
41.452
20
215.005
0
VERTEX
8
CONTOURS_MINEURES
10
42.251
20
217.747
0
VERTEX
8
CONTOURS_MINEURES
10
42.936
20
220.001
0
VERTEX
8
CONTOURS_MINEURES
10
43.216
20
221.780
0
VERTEX
8
CONTOURS_MINEURES
10
43.685
20
224.998
0
VERTEX
8
CONTOURS_MINEURES
10
44.313
20
229.322
0
VERTEX
8
CONTOURS_MINEURES
10
44.413
20
230.005
0
VERTEX
8
CONTOURS_MINEURES
10
44.487
20
230.513
0
VERTEX
8
CONTOURS_MINEURES
10
44.995
20
233.752
0
VERTEX
8
CONTOURS_MINEURES
10
45.165
20
234.832
0
VERTEX
8
CONTOURS_MINEURES
10
45.189
20
235.001
0
VERTEX
8
CONTOURS_MINEURES
10
45.222
20
235.229
0
VERTEX
8
CONTOURS_MINEURES
10
45.917
20
239.998
0
VERTEX
8
CONTOURS_MINEURES
10
46.436
20
243.562
0
VERTEX
8
CONTOURS_MINEURES
10
46.662
20
245.005
0
VERTEX
8
CONTOURS_MINEURES
10
46.949
20
246.958
0
VERTEX
8
CONTOURS_MINEURES
10
47.397
20
250.002
0
VERTEX
8
CONTOURS_MINEURES
10
47.811
20
252.816
0
VERTEX
8
CONTOURS_MINEURES
10
48.150
20
254.998
0
VERTEX
8
CONTOURS_MINEURES
10
48.385
20
256.607
0
VERTEX
8
CONTOURS_MINEURES
10
48.878
20
259.994
0
VERTEX
8
CONTOURS_MINEURES
10
49.020
20
260.971
0
VERTEX
8
CONTOURS_MINEURES
10
49.607
20
265.002
0
VERTEX
8
CONTOURS_MINEURES
10
49.995
20
267.500
0
VERTEX
8
CONTOURS_MINEURES
10
50.384
20
269.998
0
VERTEX
8
CONTOURS_MINEURES
10
50.445
20
270.447
0
VERTEX
8
CONTOURS_MINEURES
10
50.947
20
274.995
0
VERTEX
8
CONTOURS_MINEURES
10
50.775
20
275.775
0
VERTEX
8
CONTOURS_MINEURES
10
49.995
20
277.434
0
VERTEX
8
CONTOURS_MINEURES
10
48.775
20
280.002
0
VERTEX
8
CONTOURS_MINEURES
10
44.995
20
283.647
0
VERTEX
8
CONTOURS_MINEURES
10
43.540
20
284.999
0
VERTEX
8
CONTOURS_MINEURES
10
41.692
20
286.694
0
VERTEX
8
CONTOURS_MINEURES
10
39.995
20
288.290
0
VERTEX
8
CONTOURS_MINEURES
10
38.160
20
289.995
0
VERTEX
8
CONTOURS_MINEURES
10
34.996
20
292.906
0
VERTEX
8
CONTOURS_MINEURES
10
33.912
20
293.917
0
VERTEX
8
CONTOURS_MINEURES
10
32.746
20
295.003
0
VERTEX
8
CONTOURS_MINEURES
10
31.329
20
296.335
0
VERTEX
8
CONTOURS_MINEURES
10
29.996
20
297.559
0
VERTEX
8
CONTOURS_MINEURES
10
28.731
20
298.735
0
VERTEX
8
CONTOURS_MINEURES
10
27.371
20
299.999
0
VERTEX
8
CONTOURS_MINEURES
10
26.148
20
301.150
0
VERTEX
8
CONTOURS_MINEURES
10
24.996
20
302.207
0
VERTEX
8
CONTOURS_MINEURES
10
21.997
20
304.995
0
VERTEX
8
CONTOURS_MINEURES
10
19.997
20
306.796
0
VERTEX
8
CONTOURS_MINEURES
10
18.290
20
308.294
0
VERTEX
8
CONTOURS_MINEURES
10
15.544
20
310.003
0
VERTEX
8
CONTOURS_MINEURES
10
15.119
20
310.124
0
VERTEX
8
CONTOURS_MINEURES
10
14.997
20
310.150
0
VERTEX
8
CONTOURS_MINEURES
10
14.808
20
310.192
0
VERTEX
8
CONTOURS_MINEURES
10
9.997
20
311.262
0
VERTEX
8
CONTOURS_MINEURES
10
7.775
20
312.223
0
VERTEX
8
CONTOURS_MINEURES
10
4.998
20
313.411
0
VERTEX
8
CONTOURS_MINEURES
10
3.691
20
313.694
0
VERTEX
8
CONTOURS_MINEURES
10
-0.002
20
314.491
0
SEQEND
0
POLYLINE
8
CONTOURS_MINEURES
66
1
70
0
0
VERTEX
8
CONTOURS_MINEURES
10
-0.002
20
80.043
0
VERTEX
8
CONTOURS_MINEURES
10
0.021
20
80.025
0
VERTEX
8
CONTOURS_MINEURES
10
0.041
20
80.002
0
VERTEX
8
CONTOURS_MINEURES
10
4.998
20
77.273
0
VERTEX
8
CONTOURS_MINEURES
10
6.141
20
76.139
0
VERTEX
8
CONTOURS_MINEURES
10
6.636
20
74.995
0
VERTEX
8
CONTOURS_MINEURES
10
8.135
20
71.860
0
VERTEX
8
CONTOURS_MINEURES
10
9.281
20
69.998
0
VERTEX
8
CONTOURS_MINEURES
10
9.997
20
67.808
0
VERTEX
8
CONTOURS_MINEURES
10
11.687
20
66.691
0
VERTEX
8
CONTOURS_MINEURES
10
14.291
20
65.002
0
VERTEX
8
CONTOURS_MINEURES
10
14.997
20
64.557
0
VERTEX
8
CONTOURS_MINEURES
10
18.572
20
63.575
0
VERTEX
8
CONTOURS_MINEURES
10
19.997
20
63.249
0
VERTEX
8
CONTOURS_MINEURES
10
22.771
20
62.773
0
VERTEX
8
CONTOURS_MINEURES
10
24.996
20
62.372
0
VERTEX
8
CONTOURS_MINEURES
10
28.376
20
61.617
0
VERTEX
8
CONTOURS_MINEURES
10
29.996
20
61.312
0
VERTEX
8
CONTOURS_MINEURES
10
31.171
20
61.171
0
VERTEX
8
CONTOURS_MINEURES
10
34.996
20
60.924
0
VERTEX
8
CONTOURS_MINEURES
10
39.281
20
60.710
0
VERTEX
8
CONTOURS_MINEURES
10
39.995
20
60.689
0
VERTEX
8
CONTOURS_MINEURES
10
40.669
20
60.669
0
VERTEX
8
CONTOURS_MINEURES
10
44.519
20
59.994
0
VERTEX
8
CONTOURS_MINEURES
10
44.995
20
59.877
0
VERTEX
8
CONTOURS_MINEURES
10
47.605
20
57.606
0
VERTEX
8
CONTOURS_MINEURES
10
49.658
20
54.998
0
VERTEX
8
CONTOURS_MINEURES
10
49.769
20
54.773
0
VERTEX
8
CONTOURS_MINEURES
10
49.995
20
54.301
0
VERTEX
8
CONTOURS_MINEURES
10
51.310
20
51.313
0
VERTEX
8
CONTOURS_MINEURES
10
51.727
20
50.002
0
VERTEX
8
CONTOURS_MINEURES
10
52.199
20
47.204
0
VERTEX
8
CONTOURS_MINEURES
10
52.272
20
45.005
0
VERTEX
8
CONTOURS_MINEURES
10
52.199
20
42.802
0
VERTEX
8
CONTOURS_MINEURES
10
52.651
20
39.998
0
VERTEX
8
CONTOURS_MINEURES
10
52.706
20
37.294
0
VERTEX
8
CONTOURS_MINEURES
10
53.042
20
35.001
0
VERTEX
8
CONTOURS_MINEURES
10
54.301
20
30.707
0
VERTEX
8
CONTOURS_MINEURES
10
54.498
20
30.005
0
VERTEX
8
CONTOURS_MINEURES
10
54.669
20
29.669
0
VERTEX
8
CONTOURS_MINEURES
10
55.005
20
28.979
0
VERTEX
8
CONTOURS_MINEURES
10
56.446
20
26.441
0
VERTEX
8
CONTOURS_MINEURES
10
56.706
20
24.998
0
VERTEX
8
CONTOURS_MINEURES
10
57.907
20
22.901
0
VERTEX
8
CONTOURS_MINEURES
10
58.755
20
20.001
0
VERTEX
8
CONTOURS_MINEURES
10
60.005
20
17.698
0
VERTEX
8
CONTOURS_MINEURES
10
62.148
20
15.005
0
VERTEX
8
CONTOURS_MINEURES
10
63.877
20
13.876
0
VERTEX
8
CONTOURS_MINEURES
10
65.005
20
13.371
0
VERTEX
8
CONTOURS_MINEURES
10
68.730
20
9.997
0
VERTEX
8
CONTOURS_MINEURES
10
69.354
20
9.348
0
VERTEX
8
CONTOURS_MINEURES
10
70.004
20
8.896
0
VERTEX
8
CONTOURS_MINEURES
10
71.393
20
8.609
0
VERTEX
8
CONTOURS_MINEURES
10
75.004
20
8.984
0
VERTEX
8
CONTOURS_MINEURES
10
76.166
20
8.836
0
VERTEX
8
CONTOURS_MINEURES
10
77.949
20
9.997
0
VERTEX
8
CONTOURS_MINEURES
10
78.976
20
11.026
0
VERTEX
8
CONTOURS_MINEURES
10
80.004
20
11.630
0
VERTEX
8
CONTOURS_MINEURES
10
80.828
20
9.997
0
VERTEX
8
CONTOURS_MINEURES
10
82.682
20
7.321
0
VERTEX
8
CONTOURS_MINEURES
10
84.230
20
5.001
0
VERTEX
8
CONTOURS_MINEURES
10
84.471
20
4.468
0
VERTEX
8
CONTOURS_MINEURES
10
85.003
20
4.275
0
VERTEX
8
CONTOURS_MINEURES
10
88.174
20
1.832
0
VERTEX
8
CONTOURS_MINEURES
10
90.003
20
0.360
0
VERTEX
8
CONTOURS_MINEURES
10
90.633
20
0.004
0
SEQEND
0
POLYLINE
8
CONTOURS_MINEURES
66
1
70
0
0
VERTEX
8
CONTOURS_MINEURES
10
-0.002
20
88.058
0
VERTEX
8
CONTOURS_MINEURES
10
4.028
20
84.999
0
VERTEX
8
CONTOURS_MINEURES
10
4.566
20
84.567
0
VERTEX
8
CONTOURS_MINEURES
10
4.998
20
84.086
0
VERTEX
8
CONTOURS_MINEURES
10
7.031
20
80.002
0
VERTEX
8
CONTOURS_MINEURES
10
8.521
20
78.524
0
VERTEX
8
CONTOURS_MINEURES
10
9.997
20
75.113
0
VERTEX
8
CONTOURS_MINEURES
10
10.170
20
74.995
0
VERTEX
8
CONTOURS_MINEURES
10
13.147
20
73.146
0
VERTEX
8
CONTOURS_MINEURES
10
14.997
20
72.018
0
VERTEX
8
CONTOURS_MINEURES
10
19.283
20
70.712
0
VERTEX
8
CONTOURS_MINEURES
10
19.997
20
70.456
0
VERTEX
8
CONTOURS_MINEURES
10
22.255
20
69.998
0
VERTEX
8
CONTOURS_MINEURES
10
24.996
20
69.408
0
VERTEX
8
CONTOURS_MINEURES
10
28.732
20
68.735
0
VERTEX
8
CONTOURS_MINEURES
10
29.996
20
68.517
0
VERTEX
8
CONTOURS_MINEURES
10
31.663
20
68.333
0
VERTEX
8
CONTOURS_MINEURES
10
34.996
20
67.848
0
VERTEX
8
CONTOURS_MINEURES
10
37.843
20
67.848
0
VERTEX
8
CONTOURS_MINEURES
10
39.995
20
67.789
0
VERTEX
8
CONTOURS_MINEURES
10
42.903
20
67.908
0
VERTEX
8
CONTOURS_MINEURES
10
44.995
20
67.847
0
VERTEX
8
CONTOURS_MINEURES
10
48.133
20
66.862
0
VERTEX
8
CONTOURS_MINEURES
10
49.995
20
66.606
0
VERTEX
8
CONTOURS_MINEURES
10
52.083
20
65.002
0
VERTEX
8
CONTOURS_MINEURES
10
53.586
20
63.584
0
VERTEX
8
CONTOURS_MINEURES
10
55.005
20
61.773
0
VERTEX
8
CONTOURS_MINEURES
10
56.112
20
61.103
0
VERTEX
8
CONTOURS_MINEURES
10
56.355
20
59.994
0
VERTEX
8
CONTOURS_MINEURES
10
57.845
20
57.836
0
VERTEX
8
CONTOURS_MINEURES
10
59.253
20
54.998
0
VERTEX
8
CONTOURS_MINEURES
10
60.005
20
52.258
0
VERTEX
8
CONTOURS_MINEURES
10
60.758
20
50.002
0
VERTEX
8
CONTOURS_MINEURES
10
61.672
20
48.336
0
VERTEX
8
CONTOURS_MINEURES
10
62.148
20
45.005
0
VERTEX
8
CONTOURS_MINEURES
10
62.412
20
42.409
0
VERTEX
8
CONTOURS_MINEURES
10
65.005
20
40.881
0
VERTEX
8
CONTOURS_MINEURES
10
65.270
20
39.998
0
VERTEX
8
CONTOURS_MINEURES
10
65.794
20
39.209
0
VERTEX
8
CONTOURS_MINEURES
10
66.195
20
35.001
0
VERTEX
8
CONTOURS_MINEURES
10
70.004
20
30.299
0
VERTEX
8
CONTOURS_MINEURES
10
70.067
20
30.068
0
VERTEX
8
CONTOURS_MINEURES
10
70.560
20
30.005
0
VERTEX
8
CONTOURS_MINEURES
10
71.526
20
26.522
0
VERTEX
8
CONTOURS_MINEURES
10
75.004
20
27.716
0
VERTEX
8
CONTOURS_MINEURES
10
75.646
20
25.640
0
VERTEX
8
CONTOURS_MINEURES
10
77.025
20
24.998
0
VERTEX
8
CONTOURS_MINEURES
10
78.162
20
23.157
0
VERTEX
8
CONTOURS_MINEURES
10
80.004
20
23.352
0
VERTEX
8
CONTOURS_MINEURES
10
81.329
20
21.326
0
VERTEX
8
CONTOURS_MINEURES
10
82.130
20
20.001
0
VERTEX
8
CONTOURS_MINEURES
10
83.753
20
16.254
0
VERTEX
8
CONTOURS_MINEURES
10
84.398
20
15.005
0
VERTEX
8
CONTOURS_MINEURES
10
85.003
20
13.585
0
VERTEX
8
CONTOURS_MINEURES
10
86.399
20
11.395
0
VERTEX
8
CONTOURS_MINEURES
10
86.625
20
9.997
0
VERTEX
8
CONTOURS_MINEURES
10
88.178
20
8.174
0
VERTEX
8
CONTOURS_MINEURES
10
90.003
20
5.193
0
VERTEX
8
CONTOURS_MINEURES
10
90.479
20
5.001
0
VERTEX
8
CONTOURS_MINEURES
10
95.003
20
3.584
0
VERTEX
8
CONTOURS_MINEURES
10
98.383
20
3.382
0
VERTEX
8
CONTOURS_MINEURES
10
100.002
20
2.389
0
VERTEX
8
CONTOURS_MINEURES
10
103.283
20
3.283
0
VERTEX
8
CONTOURS_MINEURES
10
105.002
20
3.199
0
VERTEX
8
CONTOURS_MINEURES
10
106.449
20
3.554
0
VERTEX
8
CONTOURS_MINEURES
10
107.822
20
5.001
0
VERTEX
8
CONTOURS_MINEURES
10
110.002
20
8.147
0
VERTEX
8
CONTOURS_MINEURES
10
110.963
20
9.997
0
VERTEX
8
CONTOURS_MINEURES
10
111.430
20
11.428
0
VERTEX
8
CONTOURS_MINEURES
10
112.451
20
15.005
0
VERTEX
8
CONTOURS_MINEURES
10
113.477
20
16.528
0
VERTEX
8
CONTOURS_MINEURES
10
115.001
20
19.168
0
VERTEX
8
CONTOURS_MINEURES
10
115.448
20
20.001
0
VERTEX
8
CONTOURS_MINEURES
10
115.001
20
20.736
0
VERTEX
8
CONTOURS_MINEURES
10
113.316
20
23.313
0
VERTEX
8
CONTOURS_MINEURES
10
113.068
20
24.998
0
VERTEX
8
CONTOURS_MINEURES
10
111.934
20
26.933
0
VERTEX
8
CONTOURS_MINEURES
10
110.199
20
30.005
0
VERTEX
8
CONTOURS_MINEURES
10
110.079
20
30.082
0
VERTEX
8
CONTOURS_MINEURES
10
110.002
20
30.127
0
VERTEX
8
CONTOURS_MINEURES
10
109.708
20
30.299
0
VERTEX
8
CONTOURS_MINEURES
10
105.002
20
33.113
0
VERTEX
8
CONTOURS_MINEURES
10
101.669
20
35.001
0
VERTEX
8
CONTOURS_MINEURES
10
100.730
20
35.728
0
VERTEX
8
CONTOURS_MINEURES
10
100.002
20
36.291
0
VERTEX
8
CONTOURS_MINEURES
10
97.899
20
37.896
0
VERTEX
8
CONTOURS_MINEURES
10
95.144
20
39.998
0
VERTEX
8
CONTOURS_MINEURES
10
95.003
20
40.137
0
VERTEX
8
CONTOURS_MINEURES
10
92.555
20
42.554
0
VERTEX
8
CONTOURS_MINEURES
10
90.073
20
45.005
0
VERTEX
8
CONTOURS_MINEURES
10
90.003
20
45.068
0
VERTEX
8
CONTOURS_MINEURES
10
87.405
20
47.405
0
VERTEX
8
CONTOURS_MINEURES
10
85.003
20
49.622
0
VERTEX
8
CONTOURS_MINEURES
10
84.587
20
50.002
0
VERTEX
8
CONTOURS_MINEURES
10
80.004
20
53.367
0
VERTEX
8
CONTOURS_MINEURES
10
79.063
20
54.058
0
VERTEX
8
CONTOURS_MINEURES
10
77.750
20
54.998
0
VERTEX
8
CONTOURS_MINEURES
10
76.643
20
56.636
0
VERTEX
8
CONTOURS_MINEURES
10
75.004
20
58.478
0
VERTEX
8
CONTOURS_MINEURES
10
74.340
20
59.331
0
VERTEX
8
CONTOURS_MINEURES
10
73.676
20
59.994
0
VERTEX
8
CONTOURS_MINEURES
10
73.361
20
63.357
0
VERTEX
8
CONTOURS_MINEURES
10
73.087
20
65.002
0
VERTEX
8
CONTOURS_MINEURES
10
71.295
20
68.709
0
VERTEX
8
CONTOURS_MINEURES
10
71.057
20
69.998
0
VERTEX
8
CONTOURS_MINEURES
10
70.004
20
70.676
0
VERTEX
8
CONTOURS_MINEURES
10
67.292
20
72.284
0
VERTEX
8
CONTOURS_MINEURES
10
66.020
20
74.995
0
VERTEX
8
CONTOURS_MINEURES
10
65.642
20
75.633
0
VERTEX
8
CONTOURS_MINEURES
10
65.005
20
76.754
0
VERTEX
8
CONTOURS_MINEURES
10
63.187
20
78.181
0
VERTEX
8
CONTOURS_MINEURES
10
61.255
20
80.002
0
VERTEX
8
CONTOURS_MINEURES
10
60.611
20
80.608
0
VERTEX
8
CONTOURS_MINEURES
10
60.005
20
81.483
0
VERTEX
8
CONTOURS_MINEURES
10
58.448
20
84.999
0
VERTEX
8
CONTOURS_MINEURES
10
57.476
20
87.467
0
VERTEX
8
CONTOURS_MINEURES
10
57.213
20
89.995
0
VERTEX
8
CONTOURS_MINEURES
10
57.139
20
92.866
0
VERTEX
8
CONTOURS_MINEURES
10
56.672
20
95.002
0
VERTEX
8
CONTOURS_MINEURES
10
56.447
20
96.443
0
VERTEX
8
CONTOURS_MINEURES
10
56.510
20
99.999
0
VERTEX
8
CONTOURS_MINEURES
10
56.410
20
101.403
0
VERTEX
8
CONTOURS_MINEURES
10
56.525
20
104.995
0
VERTEX
8
CONTOURS_MINEURES
10
56.633
20
108.372
0
VERTEX
8
CONTOURS_MINEURES
10
56.608
20
110.003
0
VERTEX
8
CONTOURS_MINEURES
10
56.633
20
111.630
0
VERTEX
8
CONTOURS_MINEURES
10
56.685
20
114.999
0
VERTEX
8
CONTOURS_MINEURES
10
56.737
20
116.730
0
VERTEX
8
CONTOURS_MINEURES
10
56.685
20
119.996
0
VERTEX
8
CONTOURS_MINEURES
10
56.397
20
123.610
0
VERTEX
8
CONTOURS_MINEURES
10
56.434
20
125.003
0
VERTEX
8
CONTOURS_MINEURES
10
56.373
20
126.370
0
VERTEX
8
CONTOURS_MINEURES
10
55.005
20
129.103
0
VERTEX
8
CONTOURS_MINEURES
10
54.686
20
129.682
0
VERTEX
8
CONTOURS_MINEURES
10
54.544
20
129.999
0
VERTEX
8
CONTOURS_MINEURES
10
54.504
20
130.499
0
VERTEX
8
CONTOURS_MINEURES
10
53.426
20
134.996
0
VERTEX
8
CONTOURS_MINEURES
10
53.255
20
136.745
0
VERTEX
8
CONTOURS_MINEURES
10
52.756
20
140.003
0
VERTEX
8
CONTOURS_MINEURES
10
52.547
20
142.549
0
VERTEX
8
CONTOURS_MINEURES
10
52.142
20
145.000
0
VERTEX
8
CONTOURS_MINEURES
10
52.009
20
147.009
0
VERTEX
8
CONTOURS_MINEURES
10
51.182
20
149.996
0
VERTEX
8
CONTOURS_MINEURES
10
49.995
20
153.602
0
VERTEX
8
CONTOURS_MINEURES
10
49.381
20
155.004
0
VERTEX
8
CONTOURS_MINEURES
10
48.081
20
158.088
0
VERTEX
8
CONTOURS_MINEURES
10
47.071
20
160.000
0
VERTEX
8
CONTOURS_MINEURES
10
46.387
20
161.391
0
VERTEX
8
CONTOURS_MINEURES
10
44.995
20
163.233
0
VERTEX
8
CONTOURS_MINEURES
10
44.113
20
164.115
0
VERTEX
8
CONTOURS_MINEURES
10
42.387
20
164.996
0
VERTEX
8
CONTOURS_MINEURES
10
39.995
20
166.168
0
VERTEX
8
CONTOURS_MINEURES
10
37.101
20
167.895
0
VERTEX
8
CONTOURS_MINEURES
10
34.996
20
168.891
0
VERTEX
8
CONTOURS_MINEURES
10
33.970
20
170.004
0
VERTEX
8
CONTOURS_MINEURES
10
32.149
20
172.155
0
VERTEX
8
CONTOURS_MINEURES
10
29.996
20
174.429
0
VERTEX
8
CONTOURS_MINEURES
10
29.520
20
175.000
0
VERTEX
8
CONTOURS_MINEURES
10
27.564
20
177.566
0
VERTEX
8
CONTOURS_MINEURES
10
27.425
20
179.997
0
VERTEX
8
CONTOURS_MINEURES
10
27.020
20
182.024
0
VERTEX
8
CONTOURS_MINEURES
10
27.392
20
185.004
0
VERTEX
8
CONTOURS_MINEURES
10
27.764
20
187.235
0
VERTEX
8
CONTOURS_MINEURES
10
28.006
20
190.001
0
VERTEX
8
CONTOURS_MINEURES
10
28.519
20
193.521
0
VERTEX
8
CONTOURS_MINEURES
10
28.734
20
194.997
0
VERTEX
8
CONTOURS_MINEURES
10
28.895
20
196.100
0
VERTEX
8
CONTOURS_MINEURES
10
29.462
20
200.004
0
VERTEX
8
CONTOURS_MINEURES
10
29.996
20
203.439
0
VERTEX
8
CONTOURS_MINEURES
10
30.208
20
204.789
0
VERTEX
8
CONTOURS_MINEURES
10
30.239
20
205.001
0
VERTEX
8
CONTOURS_MINEURES
10
30.280
20
205.285
0
VERTEX
8
CONTOURS_MINEURES
10
30.967
20
209.997
0
VERTEX
8
CONTOURS_MINEURES
10
31.479
20
213.519
0
VERTEX
8
CONTOURS_MINEURES
10
31.712
20
215.005
0
VERTEX
8
CONTOURS_MINEURES
10
32.427
20
217.434
0
VERTEX
8
CONTOURS_MINEURES
10
33.200
20
220.001
0
VERTEX
8
CONTOURS_MINEURES
10
33.746
20
223.748
0
VERTEX
8
CONTOURS_MINEURES
10
33.928
20
224.998
0
VERTEX
8
CONTOURS_MINEURES
10
34.064
20
225.931
0
VERTEX
8
CONTOURS_MINEURES
10
34.702
20
230.005
0
VERTEX
8
CONTOURS_MINEURES
10
34.739
20
230.261
0
VERTEX
8
CONTOURS_MINEURES
10
34.996
20
232.004
0
VERTEX
8
CONTOURS_MINEURES
10
35.433
20
235.001
0
VERTEX
8
CONTOURS_MINEURES
10
36.013
20
238.982
0
VERTEX
8
CONTOURS_MINEURES
10
36.161
20
239.998
0
VERTEX
8
CONTOURS_MINEURES
10
36.648
20
243.350
0
VERTEX
8
CONTOURS_MINEURES
10
36.907
20
245.005
0
VERTEX
8
CONTOURS_MINEURES
10
37.237
20
247.245
0
VERTEX
8
CONTOURS_MINEURES
10
37.643
20
250.002
0
VERTEX
8
CONTOURS_MINEURES
10
37.962
20
252.034
0
VERTEX
8
CONTOURS_MINEURES
10
38.394
20
254.998
0
VERTEX
8
CONTOURS_MINEURES
10
38.597
20
256.395
0
VERTEX
8
CONTOURS_MINEURES
10
39.122
20
259.994
0
VERTEX
8
CONTOURS_MINEURES
10
39.881
20
264.887
0
VERTEX
8
CONTOURS_MINEURES
10
39.897
20
265.002
0
VERTEX
8
CONTOURS_MINEURES
10
39.995
20
265.668
0
VERTEX
8
CONTOURS_MINEURES
10
40.546
20
269.448
0
VERTEX
8
CONTOURS_MINEURES
10
40.627
20
269.998
0
VERTEX
8
CONTOURS_MINEURES
10
40.666
20
270.668
0
VERTEX
8
CONTOURS_MINEURES
10
40.479
20
274.995
0
VERTEX
8
CONTOURS_MINEURES
10
40.302
20
275.301
0
VERTEX
8
CONTOURS_MINEURES
10
39.995
20
275.667
0
VERTEX
8
CONTOURS_MINEURES
10
36.325
20
280.002
0
VERTEX
8
CONTOURS_MINEURES
10
35.632
20
280.638
0
VERTEX
8
CONTOURS_MINEURES
10
34.996
20
281.237
0
VERTEX
8
CONTOURS_MINEURES
10
30.945
20
284.999
0
VERTEX
8
CONTOURS_MINEURES
10
29.996
20
285.880
0
VERTEX
8
CONTOURS_MINEURES
10
25.566
20
289.995
0
VERTEX
8
CONTOURS_MINEURES
10
25.269
20
290.268
0
VERTEX
8
CONTOURS_MINEURES
10
24.996
20
290.525
0
VERTEX
8
CONTOURS_MINEURES
10
20.187
20
295.003
0
VERTEX
8
CONTOURS_MINEURES
10
19.997
20
295.179
0
VERTEX
8
CONTOURS_MINEURES
10
17.497
20
297.501
0
VERTEX
8
CONTOURS_MINEURES
10
14.997
20
299.825
0
VERTEX
8
CONTOURS_MINEURES
10
14.906
20
299.908
0
VERTEX
8
CONTOURS_MINEURES
10
14.807
20
299.999
0
VERTEX
8
CONTOURS_MINEURES
10
9.997
20
303.796
0
VERTEX
8
CONTOURS_MINEURES
10
9.462
20
304.460
0
VERTEX
8
CONTOURS_MINEURES
10
8.855
20
304.995
0
VERTEX
8
CONTOURS_MINEURES
10
4.998
20
308.375
0
VERTEX
8
CONTOURS_MINEURES
10
1.174
20
310.003
0
VERTEX
8
CONTOURS_MINEURES
10
0.207
20
310.212
0
VERTEX
8
CONTOURS_MINEURES
10
-0.002
20
310.257
0
SEQEND
0
POLYLINE
8
CONTOURS_MINEURES
66
1
70
0
0
VERTEX
8
CONTOURS_MINEURES
10
-0.002
20
95.911
0
VERTEX
8
CONTOURS_MINEURES
10
0.514
20
95.519
0
VERTEX
8
CONTOURS_MINEURES
10
1.356
20
95.002
0
VERTEX
8
CONTOURS_MINEURES
10
3.586
20
93.589
0
VERTEX
8
CONTOURS_MINEURES
10
4.998
20
92.764
0
VERTEX
8
CONTOURS_MINEURES
10
5.979
20
90.978
0
VERTEX
8
CONTOURS_MINEURES
10
6.494
20
89.995
0
VERTEX
8
CONTOURS_MINEURES
10
7.569
20
87.568
0
VERTEX
8
CONTOURS_MINEURES
10
8.898
20
84.999
0
VERTEX
8
CONTOURS_MINEURES
10
9.997
20
82.992
0
VERTEX
8
CONTOURS_MINEURES
10
11.664
20
81.668
0
VERTEX
8
CONTOURS_MINEURES
10
13.797
20
80.002
0
VERTEX
8
CONTOURS_MINEURES
10
14.997
20
79.144
0
VERTEX
8
CONTOURS_MINEURES
10
17.826
20
77.828
0
VERTEX
8
CONTOURS_MINEURES
10
19.997
20
77.031
0
VERTEX
8
CONTOURS_MINEURES
10
23.473
20
76.520
0
VERTEX
8
CONTOURS_MINEURES
10
24.996
20
76.390
0
VERTEX
8
CONTOURS_MINEURES
10
26.246
20
76.247
0
VERTEX
8
CONTOURS_MINEURES
10
29.996
20
75.461
0
VERTEX
8
CONTOURS_MINEURES
10
30.347
20
75.346
0
VERTEX
8
CONTOURS_MINEURES
10
32.139
20
74.995
0
VERTEX
8
CONTOURS_MINEURES
10
34.533
20
74.533
0
VERTEX
8
CONTOURS_MINEURES
10
34.996
20
74.465
0
VERTEX
8
CONTOURS_MINEURES
10
39.526
20
74.525
0
VERTEX
8
CONTOURS_MINEURES
10
39.995
20
74.525
0
VERTEX
8
CONTOURS_MINEURES
10
40.447
20
74.543
0
VERTEX
8
CONTOURS_MINEURES
10
44.113
20
74.995
0
VERTEX
8
CONTOURS_MINEURES
10
44.995
20
75.185
0
VERTEX
8
CONTOURS_MINEURES
10
47.852
20
77.141
0
VERTEX
8
CONTOURS_MINEURES
10
48.059
20
80.002
0
VERTEX
8
CONTOURS_MINEURES
10
48.110
20
83.115
0
VERTEX
8
CONTOURS_MINEURES
10
48.279
20
84.999
0
VERTEX
8
CONTOURS_MINEURES
10
48.380
20
88.381
0
VERTEX
8
CONTOURS_MINEURES
10
48.392
20
89.995
0
VERTEX
8
CONTOURS_MINEURES
10
48.527
20
93.532
0
VERTEX
8
CONTOURS_MINEURES
10
48.503
20
95.002
0
VERTEX
8
CONTOURS_MINEURES
10
48.372
20
96.624
0
VERTEX
8
CONTOURS_MINEURES
10
48.463
20
99.999
0
VERTEX
8
CONTOURS_MINEURES
10
48.186
20
101.806
0
VERTEX
8
CONTOURS_MINEURES
10
48.186
20
104.995
0
VERTEX
8
CONTOURS_MINEURES
10
47.995
20
108.000
0
VERTEX
8
CONTOURS_MINEURES
10
47.431
20
110.003
0
VERTEX
8
CONTOURS_MINEURES
10
47.083
20
112.089
0
VERTEX
8
CONTOURS_MINEURES
10
45.980
20
114.999
0
VERTEX
8
CONTOURS_MINEURES
10
44.995
20
118.418
0
VERTEX
8
CONTOURS_MINEURES
10
44.679
20
119.996
0
VERTEX
8
CONTOURS_MINEURES
10
44.193
20
124.200
0
VERTEX
8
CONTOURS_MINEURES
10
44.091
20
125.003
0
VERTEX
8
CONTOURS_MINEURES
10
43.295
20
126.702
0
VERTEX
8
CONTOURS_MINEURES
10
42.458
20
129.999
0
VERTEX
8
CONTOURS_MINEURES
10
41.937
20
131.939
0
VERTEX
8
CONTOURS_MINEURES
10
40.662
20
134.996
0
VERTEX
8
CONTOURS_MINEURES
10
39.995
20
136.598
0
VERTEX
8
CONTOURS_MINEURES
10
38.959
20
138.965
0
VERTEX
8
CONTOURS_MINEURES
10
38.422
20
140.003
0
VERTEX
8
CONTOURS_MINEURES
10
35.948
20
144.048
0
VERTEX
8
CONTOURS_MINEURES
10
35.431
20
145.000
0
VERTEX
8
CONTOURS_MINEURES
10
35.266
20
145.270
0
VERTEX
8
CONTOURS_MINEURES
10
34.996
20
145.512
0
VERTEX
8
CONTOURS_MINEURES
10
32.304
20
147.306
0
VERTEX
8
CONTOURS_MINEURES
10
29.996
20
148.189
0
VERTEX
8
CONTOURS_MINEURES
10
25.523
20
149.996
0
VERTEX
8
CONTOURS_MINEURES
10
24.996
20
150.282
0
VERTEX
8
CONTOURS_MINEURES
10
22.705
20
152.709
0
VERTEX
8
CONTOURS_MINEURES
10
20.872
20
155.004
0
VERTEX
8
CONTOURS_MINEURES
10
19.997
20
156.032
0
VERTEX
8
CONTOURS_MINEURES
10
18.068
20
158.073
0
VERTEX
8
CONTOURS_MINEURES
10
16.247
20
160.000
0
VERTEX
8
CONTOURS_MINEURES
10
14.997
20
163.459
0
VERTEX
8
CONTOURS_MINEURES
10
14.791
20
164.996
0
VERTEX
8
CONTOURS_MINEURES
10
14.997
20
166.999
0
VERTEX
8
CONTOURS_MINEURES
10
15.327
20
170.004
0
VERTEX
8
CONTOURS_MINEURES
10
15.988
20
174.010
0
VERTEX
8
CONTOURS_MINEURES
10
16.026
20
175.000
0
VERTEX
8
CONTOURS_MINEURES
10
16.204
20
176.206
0
VERTEX
8
CONTOURS_MINEURES
10
16.762
20
179.997
0
VERTEX
8
CONTOURS_MINEURES
10
17.176
20
182.821
0
VERTEX
8
CONTOURS_MINEURES
10
17.497
20
185.004
0
VERTEX
8
CONTOURS_MINEURES
10
17.928
20
187.933
0
VERTEX
8
CONTOURS_MINEURES
10
18.249
20
190.001
0
VERTEX
8
CONTOURS_MINEURES
10
18.804
20
193.805
0
VERTEX
8
CONTOURS_MINEURES
10
18.977
20
194.997
0
VERTEX
8
CONTOURS_MINEURES
10
19.107
20
195.888
0
VERTEX
8
CONTOURS_MINEURES
10
19.752
20
200.004
0
VERTEX
8
CONTOURS_MINEURES
10
19.997
20
201.670
0
VERTEX
8
CONTOURS_MINEURES
10
20.420
20
204.577
0
VERTEX
8
CONTOURS_MINEURES
10
20.482
20
205.001
0
VERTEX
8
CONTOURS_MINEURES
10
20.565
20
205.569
0
VERTEX
8
CONTOURS_MINEURES
10
21.210
20
209.997
0
VERTEX
8
CONTOURS_MINEURES
10
21.692
20
213.307
0
VERTEX
8
CONTOURS_MINEURES
10
21.957
20
215.005
0
VERTEX
8
CONTOURS_MINEURES
10
22.774
20
217.781
0
VERTEX
8
CONTOURS_MINEURES
10
23.443
20
220.001
0
VERTEX
8
CONTOURS_MINEURES
10
23.641
20
221.356
0
VERTEX
8
CONTOURS_MINEURES
10
24.171
20
224.998
0
VERTEX
8
CONTOURS_MINEURES
10
24.939
20
229.947
0
VERTEX
8
CONTOURS_MINEURES
10
24.947
20
230.005
0
VERTEX
8
CONTOURS_MINEURES
10
24.954
20
230.048
0
VERTEX
8
CONTOURS_MINEURES
10
24.996
20
230.338
0
VERTEX
8
CONTOURS_MINEURES
10
25.676
20
235.001
0
VERTEX
8
CONTOURS_MINEURES
10
26.225
20
238.770
0
VERTEX
8
CONTOURS_MINEURES
10
26.418
20
239.998
0
VERTEX
8
CONTOURS_MINEURES
10
26.877
20
243.122
0
VERTEX
8
CONTOURS_MINEURES
10
27.153
20
245.005
0
VERTEX
8
CONTOURS_MINEURES
10
27.525
20
247.532
0
VERTEX
8
CONTOURS_MINEURES
10
27.909
20
250.002
0
VERTEX
8
CONTOURS_MINEURES
10
28.174
20
251.822
0
VERTEX
8
CONTOURS_MINEURES
10
28.637
20
254.998
0
VERTEX
8
CONTOURS_MINEURES
10
29.258
20
259.256
0
VERTEX
8
CONTOURS_MINEURES
10
29.365
20
259.994
0
VERTEX
8
CONTOURS_MINEURES
10
29.996
20
264.063
0
VERTEX
8
CONTOURS_MINEURES
10
30.123
20
264.875
0
VERTEX
8
CONTOURS_MINEURES
10
30.142
20
265.002
0
VERTEX
8
CONTOURS_MINEURES
10
30.686
20
269.309
0
VERTEX
8
CONTOURS_MINEURES
10
30.788
20
269.998
0
VERTEX
8
CONTOURS_MINEURES
10
29.996
20
272.421
0
VERTEX
8
CONTOURS_MINEURES
10
29.347
20
274.346
0
VERTEX
8
CONTOURS_MINEURES
10
28.960
20
274.995
0
VERTEX
8
CONTOURS_MINEURES
10
24.996
20
278.824
0
VERTEX
8
CONTOURS_MINEURES
10
23.747
20
280.002
0
VERTEX
8
CONTOURS_MINEURES
10
21.815
20
281.819
0
VERTEX
8
CONTOURS_MINEURES
10
19.997
20
283.488
0
VERTEX
8
CONTOURS_MINEURES
10
18.372
20
284.999
0
VERTEX
8
CONTOURS_MINEURES
10
16.633
20
286.634
0
VERTEX
8
CONTOURS_MINEURES
10
14.997
20
288.136
0
VERTEX
8
CONTOURS_MINEURES
10
12.997
20
289.995
0
VERTEX
8
CONTOURS_MINEURES
10
9.997
20
292.790
0
VERTEX
8
CONTOURS_MINEURES
10
9.222
20
294.226
0
VERTEX
8
CONTOURS_MINEURES
10
8.739
20
295.003
0
VERTEX
8
CONTOURS_MINEURES
10
4.998
20
299.999
0
VERTEX
8
CONTOURS_MINEURES
10
1.498
20
301.498
0
VERTEX
8
CONTOURS_MINEURES
10
-0.002
20
302.140
0
SEQEND
0
POLYLINE
8
CONTOURS_MINEURES
66
1
70
0
0
VERTEX
8
CONTOURS_MINEURES
10
88.600
20
23.595
0
VERTEX
8
CONTOURS_MINEURES
10
90.003
20
22.272
0
VERTEX
8
CONTOURS_MINEURES
10
92.781
20
22.777
0
VERTEX
8
CONTOURS_MINEURES
10
95.003
20
22.193
0
VERTEX
8
CONTOURS_MINEURES
10
97.003
20
22.999
0
VERTEX
8
CONTOURS_MINEURES
10
98.021
20
24.998
0
VERTEX
8
CONTOURS_MINEURES
10
97.081
20
27.079
0
VERTEX
8
CONTOURS_MINEURES
10
96.962
20
30.005
0
VERTEX
8
CONTOURS_MINEURES
10
95.710
20
30.712
0
VERTEX
8
CONTOURS_MINEURES
10
95.003
20
31.086
0
VERTEX
8
CONTOURS_MINEURES
10
92.664
20
32.342
0
VERTEX
8
CONTOURS_MINEURES
10
90.003
20
33.639
0
VERTEX
8
CONTOURS_MINEURES
10
88.128
20
33.128
0
VERTEX
8
CONTOURS_MINEURES
10
87.541
20
35.001
0
VERTEX
8
CONTOURS_MINEURES
10
85.003
20
36.910
0
VERTEX
8
CONTOURS_MINEURES
10
81.018
20
39.998
0
VERTEX
8
CONTOURS_MINEURES
10
80.500
20
40.495
0
VERTEX
8
CONTOURS_MINEURES
10
80.004
20
40.999
0
VERTEX
8
CONTOURS_MINEURES
10
75.825
20
45.005
0
VERTEX
8
CONTOURS_MINEURES
10
75.004
20
45.758
0
VERTEX
8
CONTOURS_MINEURES
10
70.084
20
50.002
0
VERTEX
8
CONTOURS_MINEURES
10
70.035
20
50.033
0
VERTEX
8
CONTOURS_MINEURES
10
70.004
20
50.057
0
VERTEX
8
CONTOURS_MINEURES
10
69.929
20
50.077
0
VERTEX
8
CONTOURS_MINEURES
10
69.963
20
50.002
0
VERTEX
8
CONTOURS_MINEURES
10
69.975
20
49.973
0
VERTEX
8
CONTOURS_MINEURES
10
70.004
20
49.617
0
VERTEX
8
CONTOURS_MINEURES
10
72.613
20
45.005
0
VERTEX
8
CONTOURS_MINEURES
10
74.475
20
44.476
0
VERTEX
8
CONTOURS_MINEURES
10
73.423
20
39.998
0
VERTEX
8
CONTOURS_MINEURES
10
75.004
20
37.500
0
VERTEX
8
CONTOURS_MINEURES
10
78.776
20
38.771
0
VERTEX
8
CONTOURS_MINEURES
10
77.533
20
35.001
0
VERTEX
8
CONTOURS_MINEURES
10
80.004
20
33.144
0
VERTEX
8
CONTOURS_MINEURES
10
83.384
20
33.383
0
VERTEX
8
CONTOURS_MINEURES
10
82.821
20
30.005
0
VERTEX
8
CONTOURS_MINEURES
10
85.003
20
27.166
0
VERTEX
8
CONTOURS_MINEURES
10
87.337
20
24.998
0
VERTEX
8
CONTOURS_MINEURES
10
88.600
20
23.595
0
SEQEND
0
POLYLINE
8
CONTOURS_MINEURES
66
1
70
0
0
VERTEX
8
CONTOURS_MINEURES
10
-0.002
20
104.426
0
VERTEX
8
CONTOURS_MINEURES
10
2.952
20
102.043
0
VERTEX
8
CONTOURS_MINEURES
10
4.998
20
100.359
0
VERTEX
8
CONTOURS_MINEURES
10
5.195
20
99.999
0
VERTEX
8
CONTOURS_MINEURES
10
6.956
20
96.959
0
VERTEX
8
CONTOURS_MINEURES
10
7.935
20
95.002
0
VERTEX
8
CONTOURS_MINEURES
10
8.667
20
93.670
0
VERTEX
8
CONTOURS_MINEURES
10
9.997
20
91.130
0
VERTEX
8
CONTOURS_MINEURES
10
11.405
20
89.995
0
VERTEX
8
CONTOURS_MINEURES
10
14.997
20
86.964
0
VERTEX
8
CONTOURS_MINEURES
10
18.475
20
84.999
0
VERTEX
8
CONTOURS_MINEURES
10
19.997
20
84.204
0
VERTEX
8
CONTOURS_MINEURES
10
23.824
20
83.827
0
VERTEX
8
CONTOURS_MINEURES
10
24.996
20
83.721
0
VERTEX
8
CONTOURS_MINEURES
10
28.609
20
83.613
0
VERTEX
8
CONTOURS_MINEURES
10
29.996
20
83.430
0
VERTEX
8
CONTOURS_MINEURES
10
32.401
20
82.595
0
VERTEX
8
CONTOURS_MINEURES
10
34.996
20
82.114
0
VERTEX
8
CONTOURS_MINEURES
10
39.763
20
84.766
0
VERTEX
8
CONTOURS_MINEURES
10
39.995
20
84.795
0
VERTEX
8
CONTOURS_MINEURES
10
40.075
20
84.919
0
VERTEX
8
CONTOURS_MINEURES
10
40.083
20
84.999
0
VERTEX
8
CONTOURS_MINEURES
10
39.995
20
85.998
0
VERTEX
8
CONTOURS_MINEURES
10
39.389
20
89.995
0
VERTEX
8
CONTOURS_MINEURES
10
38.368
20
93.372
0
VERTEX
8
CONTOURS_MINEURES
10
37.738
20
95.002
0
VERTEX
8
CONTOURS_MINEURES
10
36.952
20
98.044
0
VERTEX
8
CONTOURS_MINEURES
10
36.281
20
99.999
0
VERTEX
8
CONTOURS_MINEURES
10
35.953
20
100.956
0
VERTEX
8
CONTOURS_MINEURES
10
35.577
20
104.995
0
VERTEX
8
CONTOURS_MINEURES
10
35.061
20
109.938
0
VERTEX
8
CONTOURS_MINEURES
10
35.048
20
110.003
0
VERTEX
8
CONTOURS_MINEURES
10
34.996
20
110.336
0
VERTEX
8
CONTOURS_MINEURES
10
34.182
20
114.186
0
VERTEX
8
CONTOURS_MINEURES
10
33.848
20
114.999
0
VERTEX
8
CONTOURS_MINEURES
10
33.051
20
116.942
0
VERTEX
8
CONTOURS_MINEURES
10
31.926
20
119.996
0
VERTEX
8
CONTOURS_MINEURES
10
31.338
20
121.339
0
VERTEX
8
CONTOURS_MINEURES
10
29.996
20
124.586
0
VERTEX
8
CONTOURS_MINEURES
10
29.811
20
125.003
0
VERTEX
8
CONTOURS_MINEURES
10
24.996
20
128.768
0
VERTEX
8
CONTOURS_MINEURES
10
20.747
20
129.999
0
VERTEX
8
CONTOURS_MINEURES
10
20.235
20
130.237
0
VERTEX
8
CONTOURS_MINEURES
10
19.997
20
130.305
0
VERTEX
8
CONTOURS_MINEURES
10
19.441
20
130.555
0
VERTEX
8
CONTOURS_MINEURES
10
14.997
20
131.998
0
VERTEX
8
CONTOURS_MINEURES
10
11.920
20
134.996
0
VERTEX
8
CONTOURS_MINEURES
10
11.039
20
136.039
0
VERTEX
8
CONTOURS_MINEURES
10
9.997
20
137.343
0
VERTEX
8
CONTOURS_MINEURES
10
8.817
20
140.003
0
VERTEX
8
CONTOURS_MINEURES
10
7.592
20
142.596
0
VERTEX
8
CONTOURS_MINEURES
10
7.256
20
145.000
0
VERTEX
8
CONTOURS_MINEURES
10
7.546
20
147.450
0
VERTEX
8
CONTOURS_MINEURES
10
6.890
20
149.996
0
VERTEX
8
CONTOURS_MINEURES
10
6.566
20
151.567
0
VERTEX
8
CONTOURS_MINEURES
10
6.845
20
155.004
0
VERTEX
8
CONTOURS_MINEURES
10
7.083
20
157.916
0
VERTEX
8
CONTOURS_MINEURES
10
7.042
20
160.000
0
VERTEX
8
CONTOURS_MINEURES
10
7.182
20
162.183
0
VERTEX
8
CONTOURS_MINEURES
10
7.388
20
164.996
0
VERTEX
8
CONTOURS_MINEURES
10
7.566
20
167.432
0
VERTEX
8
CONTOURS_MINEURES
10
7.754
20
170.004
0
VERTEX
8
CONTOURS_MINEURES
10
7.987
20
172.991
0
VERTEX
8
CONTOURS_MINEURES
10
8.144
20
175.000
0
VERTEX
8
CONTOURS_MINEURES
10
8.270
20
176.726
0
VERTEX
8
CONTOURS_MINEURES
10
8.510
20
179.997
0
VERTEX
8
CONTOURS_MINEURES
10
8.611
20
181.385
0
VERTEX
8
CONTOURS_MINEURES
10
8.876
20
185.004
0
VERTEX
8
CONTOURS_MINEURES
10
9.182
20
189.185
0
VERTEX
8
CONTOURS_MINEURES
10
9.241
20
190.001
0
VERTEX
8
CONTOURS_MINEURES
10
9.296
20
190.701
0
VERTEX
8
CONTOURS_MINEURES
10
9.609
20
194.997
0
VERTEX
8
CONTOURS_MINEURES
10
9.997
20
200.004
0
VERTEX
8
CONTOURS_MINEURES
10
10.633
20
204.366
0
VERTEX
8
CONTOURS_MINEURES
10
10.726
20
205.001
0
VERTEX
8
CONTOURS_MINEURES
10
10.859
20
205.862
0
VERTEX
8
CONTOURS_MINEURES
10
11.468
20
209.997
0
VERTEX
8
CONTOURS_MINEURES
10
11.920
20
213.079
0
VERTEX
8
CONTOURS_MINEURES
10
12.203
20
215.005
0
VERTEX
8
CONTOURS_MINEURES
10
13.122
20
218.127
0
VERTEX
8
CONTOURS_MINEURES
10
13.686
20
220.001
0
VERTEX
8
CONTOURS_MINEURES
10
13.853
20
221.144
0
VERTEX
8
CONTOURS_MINEURES
10
14.458
20
224.998
0
VERTEX
8
CONTOURS_MINEURES
10
14.997
20
228.670
0
VERTEX
8
CONTOURS_MINEURES
10
15.167
20
229.835
0
VERTEX
8
CONTOURS_MINEURES
10
15.191
20
230.005
0
VERTEX
8
CONTOURS_MINEURES
10
15.802
20
234.197
0
VERTEX
8
CONTOURS_MINEURES
10
15.919
20
235.001
0
VERTEX
8
CONTOURS_MINEURES
10
16.438
20
238.558
0
VERTEX
8
CONTOURS_MINEURES
10
16.664
20
239.998
0
VERTEX
8
CONTOURS_MINEURES
10
17.116
20
242.883
0
VERTEX
8
CONTOURS_MINEURES
10
17.424
20
245.005
0
VERTEX
8
CONTOURS_MINEURES
10
17.838
20
247.844
0
VERTEX
8
CONTOURS_MINEURES
10
18.152
20
250.002
0
VERTEX
8
CONTOURS_MINEURES
10
18.690
20
253.692
0
VERTEX
8
CONTOURS_MINEURES
10
18.880
20
254.998
0
VERTEX
8
CONTOURS_MINEURES
10
19.022
20
255.972
0
VERTEX
8
CONTOURS_MINEURES
10
19.654
20
259.994
0
VERTEX
8
CONTOURS_MINEURES
10
19.997
20
262.331
0
VERTEX
8
CONTOURS_MINEURES
10
20.336
20
264.662
0
VERTEX
8
CONTOURS_MINEURES
10
20.385
20
265.002
0
VERTEX
8
CONTOURS_MINEURES
10
20.422
20
265.427
0
VERTEX
8
CONTOURS_MINEURES
10
20.422
20
269.998
0
VERTEX
8
CONTOURS_MINEURES
10
19.997
20
270.633
0
VERTEX
8
CONTOURS_MINEURES
10
18.211
20
273.210
0
VERTEX
8
CONTOURS_MINEURES
10
16.559
20
274.995
0
VERTEX
8
CONTOURS_MINEURES
10
15.755
20
275.753
0
VERTEX
8
CONTOURS_MINEURES
10
14.997
20
276.450
0
VERTEX
8
CONTOURS_MINEURES
10
11.185
20
280.002
0
VERTEX
8
CONTOURS_MINEURES
10
10.573
20
280.578
0
VERTEX
8
CONTOURS_MINEURES
10
9.997
20
281.106
0
VERTEX
8
CONTOURS_MINEURES
10
8.630
20
283.632
0
VERTEX
8
CONTOURS_MINEURES
10
7.904
20
284.999
0
VERTEX
8
CONTOURS_MINEURES
10
5.471
20
289.522
0
VERTEX
8
CONTOURS_MINEURES
10
5.218
20
289.995
0
VERTEX
8
CONTOURS_MINEURES
10
5.141
20
290.138
0
VERTEX
8
CONTOURS_MINEURES
10
4.998
20
290.368
0
VERTEX
8
CONTOURS_MINEURES
10
4.052
20
290.942
0
VERTEX
8
CONTOURS_MINEURES
10
-0.002
20
293.637
0
SEQEND
0
POLYLINE
8
CONTOURS_MINEURES
66
1
70
0
0
VERTEX
8
CONTOURS_MINEURES
10
-0.002
20
164.663
0
VERTEX
8
CONTOURS_MINEURES
10
0.047
20
164.996
0
VERTEX
8
CONTOURS_MINEURES
10
0.055
20
165.053
0
VERTEX
8
CONTOURS_MINEURES
10
0.775
20
170.004
0
VERTEX
8
CONTOURS_MINEURES
10
1.312
20
173.688
0
VERTEX
8
CONTOURS_MINEURES
10
1.518
20
175.000
0
VERTEX
8
CONTOURS_MINEURES
10
1.964
20
178.032
0
VERTEX
8
CONTOURS_MINEURES
10
2.253
20
179.997
0
VERTEX
8
CONTOURS_MINEURES
10
2.642
20
182.644
0
VERTEX
8
CONTOURS_MINEURES
10
3.008
20
185.004
0
VERTEX
8
CONTOURS_MINEURES
10
3.261
20
186.740
0
VERTEX
8
CONTOURS_MINEURES
10
3.736
20
190.001
0
VERTEX
8
CONTOURS_MINEURES
10
4.423
20
194.423
0
VERTEX
8
CONTOURS_MINEURES
10
4.508
20
194.997
0
VERTEX
8
CONTOURS_MINEURES
10
4.570
20
195.425
0
VERTEX
8
CONTOURS_MINEURES
10
4.998
20
198.335
0
VERTEX
8
CONTOURS_MINEURES
10
5.120
20
200.004
0
VERTEX
8
CONTOURS_MINEURES
10
5.129
20
200.136
0
VERTEX
8
CONTOURS_MINEURES
10
5.486
20
205.001
0
VERTEX
8
CONTOURS_MINEURES
10
5.793
20
209.202
0
VERTEX
8
CONTOURS_MINEURES
10
5.851
20
209.997
0
VERTEX
8
CONTOURS_MINEURES
10
5.919
20
210.920
0
VERTEX
8
CONTOURS_MINEURES
10
6.236
20
215.005
0
VERTEX
8
CONTOURS_MINEURES
10
6.455
20
216.461
0
VERTEX
8
CONTOURS_MINEURES
10
6.973
20
220.001
0
VERTEX
8
CONTOURS_MINEURES
10
7.129
20
222.131
0
VERTEX
8
CONTOURS_MINEURES
10
7.339
20
224.998
0
VERTEX
8
CONTOURS_MINEURES
10
7.532
20
227.467
0
VERTEX
8
CONTOURS_MINEURES
10
7.716
20
230.005
0
VERTEX
8
CONTOURS_MINEURES
10
7.945
20
232.950
0
VERTEX
8
CONTOURS_MINEURES
10
8.095
20
235.001
0
VERTEX
8
CONTOURS_MINEURES
10
8.225
20
236.773
0
VERTEX
8
CONTOURS_MINEURES
10
8.461
20
239.998
0
VERTEX
8
CONTOURS_MINEURES
10
8.734
20
243.740
0
VERTEX
8
CONTOURS_MINEURES
10
8.827
20
245.005
0
VERTEX
8
CONTOURS_MINEURES
10
9.129
20
249.134
0
VERTEX
8
CONTOURS_MINEURES
10
9.193
20
250.002
0
VERTEX
8
CONTOURS_MINEURES
10
9.251
20
250.748
0
VERTEX
8
CONTOURS_MINEURES
10
9.583
20
254.998
0
VERTEX
8
CONTOURS_MINEURES
10
9.945
20
259.942
0
VERTEX
8
CONTOURS_MINEURES
10
9.949
20
259.994
0
VERTEX
8
CONTOURS_MINEURES
10
9.997
20
260.710
0
VERTEX
8
CONTOURS_MINEURES
10
10.510
20
264.488
0
VERTEX
8
CONTOURS_MINEURES
10
10.586
20
265.002
0
VERTEX
8
CONTOURS_MINEURES
10
10.528
20
265.533
0
VERTEX
8
CONTOURS_MINEURES
10
9.997
20
267.223
0
VERTEX
8
CONTOURS_MINEURES
10
9.540
20
269.998
0
VERTEX
8
CONTOURS_MINEURES
10
9.048
20
270.947
0
VERTEX
8
CONTOURS_MINEURES
10
7.010
20
274.995
0
VERTEX
8
CONTOURS_MINEURES
10
6.304
20
276.303
0
VERTEX
8
CONTOURS_MINEURES
10
4.998
20
278.721
0
VERTEX
8
CONTOURS_MINEURES
10
3.623
20
280.002
0
VERTEX
8
CONTOURS_MINEURES
10
-0.002
20
283.372
0
SEQEND
0
POLYLINE
8
CONTOURS_MINEURES
66
1
70
0
0
VERTEX
8
CONTOURS_MINEURES
10
-0.002
20
113.363
0
VERTEX
8
CONTOURS_MINEURES
10
3.760
20
110.003
0
VERTEX
8
CONTOURS_MINEURES
10
4.998
20
108.854
0
VERTEX
8
CONTOURS_MINEURES
10
7.779
20
107.781
0
VERTEX
8
CONTOURS_MINEURES
10
7.454
20
104.995
0
VERTEX
8
CONTOURS_MINEURES
10
9.075
20
100.921
0
VERTEX
8
CONTOURS_MINEURES
10
9.581
20
99.999
0
VERTEX
8
CONTOURS_MINEURES
10
9.734
20
99.735
0
VERTEX
8
CONTOURS_MINEURES
10
9.997
20
99.208
0
VERTEX
8
CONTOURS_MINEURES
10
13.651
20
96.348
0
VERTEX
8
CONTOURS_MINEURES
10
14.997
20
95.469
0
VERTEX
8
CONTOURS_MINEURES
10
15.969
20
95.002
0
VERTEX
8
CONTOURS_MINEURES
10
19.997
20
93.253
0
VERTEX
8
CONTOURS_MINEURES
10
24.996
20
95.002
0
VERTEX
8
CONTOURS_MINEURES
10
22.897
20
97.900
0
VERTEX
8
CONTOURS_MINEURES
10
23.154
20
99.999
0
VERTEX
8
CONTOURS_MINEURES
10
22.219
20
102.220
0
VERTEX
8
CONTOURS_MINEURES
10
21.049
20
104.995
0
VERTEX
8
CONTOURS_MINEURES
10
19.997
20
107.399
0
VERTEX
8
CONTOURS_MINEURES
10
18.670
20
110.003
0
VERTEX
8
CONTOURS_MINEURES
10
17.365
20
112.369
0
VERTEX
8
CONTOURS_MINEURES
10
14.997
20
114.999
0
VERTEX
8
CONTOURS_MINEURES
10
9.997
20
117.289
0
VERTEX
8
CONTOURS_MINEURES
10
8.309
20
118.308
0
VERTEX
8
CONTOURS_MINEURES
10
7.345
20
119.996
0
VERTEX
8
CONTOURS_MINEURES
10
6.171
20
121.171
0
VERTEX
8
CONTOURS_MINEURES
10
4.998
20
123.595
0
VERTEX
8
CONTOURS_MINEURES
10
3.844
20
125.003
0
VERTEX
8
CONTOURS_MINEURES
10
-0.002
20
127.114
0
SEQEND
0
POLYLINE
8
CONTOURS_MINEURES
66
1
70
0
0
VERTEX
8
CONTOURS_MINEURES
10
-0.002
20
225.331
0
VERTEX
8
CONTOURS_MINEURES
10
0.591
20
229.411
0
VERTEX
8
CONTOURS_MINEURES
10
0.684
20
230.005
0
VERTEX
8
CONTOURS_MINEURES
10
1.237
20
233.763
0
VERTEX
8
CONTOURS_MINEURES
10
1.420
20
235.001
0
VERTEX
8
CONTOURS_MINEURES
10
1.665
20
236.667
0
VERTEX
8
CONTOURS_MINEURES
10
2.182
20
239.998
0
VERTEX
8
CONTOURS_MINEURES
10
2.540
20
242.459
0
VERTEX
8
CONTOURS_MINEURES
10
2.910
20
245.005
0
VERTEX
8
CONTOURS_MINEURES
10
3.407
20
248.412
0
VERTEX
8
CONTOURS_MINEURES
10
3.639
20
250.002
0
VERTEX
8
CONTOURS_MINEURES
10
4.308
20
254.309
0
VERTEX
8
CONTOURS_MINEURES
10
4.410
20
254.998
0
VERTEX
8
CONTOURS_MINEURES
10
4.485
20
255.511
0
VERTEX
8
CONTOURS_MINEURES
10
4.998
20
258.995
0
VERTEX
8
CONTOURS_MINEURES
10
5.071
20
259.994
0
VERTEX
8
CONTOURS_MINEURES
10
5.076
20
260.073
0
VERTEX
8
CONTOURS_MINEURES
10
5.177
20
265.002
0
VERTEX
8
CONTOURS_MINEURES
10
4.998
20
265.605
0
VERTEX
8
CONTOURS_MINEURES
10
3.298
20
268.300
0
VERTEX
8
CONTOURS_MINEURES
10
1.810
20
269.998
0
VERTEX
8
CONTOURS_MINEURES
10
0.877
20
270.877
0
VERTEX
8
CONTOURS_MINEURES
10
-0.002
20
271.683
0
SEQEND
0
POLYLINE
8
CONTOURS_MAJEURES
66
1
70
0
0
VERTEX
8
CONTOURS_MAJEURES
10
225.005
20
14.104
0
VERTEX
8
CONTOURS_MAJEURES
10
224.555
20
14.555
0
VERTEX
8
CONTOURS_MAJEURES
10
224.179
20
15.005
0
VERTEX
8
CONTOURS_MAJEURES
10
222.314
20
17.317
0
VERTEX
8
CONTOURS_MAJEURES
10
219.995
20
19.356
0
VERTEX
8
CONTOURS_MAJEURES
10
219.254
20
20.001
0
VERTEX
8
CONTOURS_MAJEURES
10
218.131
20
23.135
0
VERTEX
8
CONTOURS_MAJEURES
10
217.333
20
24.998
0
VERTEX
8
CONTOURS_MAJEURES
10
217.298
20
27.699
0
VERTEX
8
CONTOURS_MAJEURES
10
217.239
20
30.005
0
VERTEX
8
CONTOURS_MAJEURES
10
216.223
20
33.774
0
VERTEX
8
CONTOURS_MAJEURES
10
215.941
20
35.001
0
VERTEX
8
CONTOURS_MAJEURES
10
215.560
20
35.565
0
VERTEX
8
CONTOURS_MAJEURES
10
214.995
20
36.250
0
VERTEX
8
CONTOURS_MAJEURES
10
211.907
20
39.998
0
VERTEX
8
CONTOURS_MAJEURES
10
211.378
20
41.383
0
VERTEX
8
CONTOURS_MAJEURES
10
209.995
20
44.198
0
VERTEX
8
CONTOURS_MAJEURES
10
209.599
20
45.005
0
VERTEX
8
CONTOURS_MAJEURES
10
209.198
20
49.205
0
VERTEX
8
CONTOURS_MAJEURES
10
209.108
20
50.002
0
VERTEX
8
CONTOURS_MAJEURES
10
208.801
20
53.805
0
VERTEX
8
CONTOURS_MAJEURES
10
208.705
20
54.998
0
VERTEX
8
CONTOURS_MAJEURES
10
208.616
20
56.376
0
VERTEX
8
CONTOURS_MAJEURES
10
208.383
20
59.994
0
VERTEX
8
CONTOURS_MAJEURES
10
208.241
20
61.751
0
VERTEX
8
CONTOURS_MAJEURES
10
207.979
20
65.002
0
VERTEX
8
CONTOURS_MAJEURES
10
207.840
20
67.156
0
VERTEX
8
CONTOURS_MAJEURES
10
207.657
20
69.998
0
VERTEX
8
CONTOURS_MAJEURES
10
207.458
20
72.459
0
VERTEX
8
CONTOURS_MAJEURES
10
207.254
20
74.995
0
VERTEX
8
CONTOURS_MAJEURES
10
207.117
20
77.119
0
VERTEX
8
CONTOURS_MAJEURES
10
206.931
20
80.002
0
VERTEX
8
CONTOURS_MAJEURES
10
206.662
20
83.333
0
VERTEX
8
CONTOURS_MAJEURES
10
206.528
20
84.999
0
VERTEX
8
CONTOURS_MAJEURES
10
206.435
20
86.437
0
VERTEX
8
CONTOURS_MAJEURES
10
206.205
20
89.995
0
VERTEX
8
CONTOURS_MAJEURES
10
206.115
20
91.116
0
VERTEX
8
CONTOURS_MAJEURES
10
205.802
20
95.002
0
VERTEX
8
CONTOURS_MAJEURES
10
205.513
20
99.482
0
VERTEX
8
CONTOURS_MAJEURES
10
205.480
20
99.999
0
VERTEX
8
CONTOURS_MAJEURES
10
205.443
20
100.446
0
VERTEX
8
CONTOURS_MAJEURES
10
205.076
20
104.995
0
VERTEX
8
CONTOURS_MAJEURES
10
204.996
20
106.247
0
VERTEX
8
CONTOURS_MAJEURES
10
204.772
20
109.779
0
VERTEX
8
CONTOURS_MAJEURES
10
204.754
20
110.003
0
VERTEX
8
CONTOURS_MAJEURES
10
204.399
20
114.403
0
VERTEX
8
CONTOURS_MAJEURES
10
204.361
20
114.999
0
VERTEX
8
CONTOURS_MAJEURES
10
204.306
20
115.688
0
VERTEX
8
CONTOURS_MAJEURES
10
204.028
20
119.996
0
VERTEX
8
CONTOURS_MAJEURES
10
203.961
20
121.032
0
VERTEX
8
CONTOURS_MAJEURES
10
203.647
20
125.003
0
VERTEX
8
CONTOURS_MAJEURES
10
203.422
20
126.576
0
VERTEX
8
CONTOURS_MAJEURES
10
202.932
20
129.999
0
VERTEX
8
CONTOURS_MAJEURES
10
202.757
20
132.759
0
VERTEX
8
CONTOURS_MAJEURES
10
202.577
20
134.996
0
VERTEX
8
CONTOURS_MAJEURES
10
202.384
20
137.387
0
VERTEX
8
CONTOURS_MAJEURES
10
202.218
20
140.003
0
VERTEX
8
CONTOURS_MAJEURES
10
202.085
20
142.091
0
VERTEX
8
CONTOURS_MAJEURES
10
201.851
20
145.000
0
VERTEX
8
CONTOURS_MAJEURES
10
201.634
20
148.359
0
VERTEX
8
CONTOURS_MAJEURES
10
201.528
20
149.996
0
VERTEX
8
CONTOURS_MAJEURES
10
201.224
20
153.774
0
VERTEX
8
CONTOURS_MAJEURES
10
201.125
20
155.004
0
VERTEX
8
CONTOURS_MAJEURES
10
200.858
20
159.139
0
VERTEX
8
CONTOURS_MAJEURES
10
200.802
20
160.000
0
VERTEX
8
CONTOURS_MAJEURES
10
200.742
20
160.746
0
VERTEX
8
CONTOURS_MAJEURES
10
200.399
20
164.996
0
VERTEX
8
CONTOURS_MAJEURES
10
200.082
20
169.918
0
VERTEX
8
CONTOURS_MAJEURES
10
200.077
20
170.004
0
VERTEX
8
CONTOURS_MAJEURES
10
199.996
20
171.003
0
VERTEX
8
CONTOURS_MAJEURES
10
199.673
20
175.000
0
VERTEX
8
CONTOURS_MAJEURES
10
199.390
20
179.391
0
VERTEX
8
CONTOURS_MAJEURES
10
199.351
20
179.997
0
VERTEX
8
CONTOURS_MAJEURES
10
199.026
20
184.033
0
VERTEX
8
CONTOURS_MAJEURES
10
198.948
20
185.004
0
VERTEX
8
CONTOURS_MAJEURES
10
198.708
20
188.714
0
VERTEX
8
CONTOURS_MAJEURES
10
198.603
20
190.001
0
VERTEX
8
CONTOURS_MAJEURES
10
197.923
20
192.072
0
VERTEX
8
CONTOURS_MAJEURES
10
197.549
20
194.997
0
VERTEX
8
CONTOURS_MAJEURES
10
196.787
20
196.791
0
VERTEX
8
CONTOURS_MAJEURES
10
194.996
20
198.335
0
VERTEX
8
CONTOURS_MAJEURES
10
194.163
20
200.004
0
VERTEX
8
CONTOURS_MAJEURES
10
192.909
20
202.915
0
VERTEX
8
CONTOURS_MAJEURES
10
192.168
20
205.001
0
VERTEX
8
CONTOURS_MAJEURES
10
191.599
20
206.602
0
VERTEX
8
CONTOURS_MAJEURES
10
190.391
20
209.997
0
VERTEX
8
CONTOURS_MAJEURES
10
189.997
20
211.110
0
VERTEX
8
CONTOURS_MAJEURES
10
188.406
20
213.411
0
VERTEX
8
CONTOURS_MAJEURES
10
187.305
20
215.005
0
VERTEX
8
CONTOURS_MAJEURES
10
185.975
20
215.982
0
VERTEX
8
CONTOURS_MAJEURES
10
184.997
20
216.670
0
VERTEX
8
CONTOURS_MAJEURES
10
180.260
20
220.001
0
VERTEX
8
CONTOURS_MAJEURES
10
180.151
20
220.155
0
VERTEX
8
CONTOURS_MAJEURES
10
179.997
20
220.371
0
VERTEX
8
CONTOURS_MAJEURES
10
176.792
20
224.998
0
VERTEX
8
CONTOURS_MAJEURES
10
176.074
20
226.076
0
VERTEX
8
CONTOURS_MAJEURES
10
174.998
20
227.594
0
VERTEX
8
CONTOURS_MAJEURES
10
173.287
20
230.005
0
VERTEX
8
CONTOURS_MAJEURES
10
169.998
20
234.631
0
VERTEX
8
CONTOURS_MAJEURES
10
169.846
20
234.850
0
VERTEX
8
CONTOURS_MAJEURES
10
169.742
20
235.001
0
VERTEX
8
CONTOURS_MAJEURES
10
167.801
20
237.802
0
VERTEX
8
CONTOURS_MAJEURES
10
166.280
20
239.998
0
VERTEX
8
CONTOURS_MAJEURES
10
164.998
20
241.852
0
VERTEX
8
CONTOURS_MAJEURES
10
163.691
20
243.696
0
VERTEX
8
CONTOURS_MAJEURES
10
162.762
20
245.005
0
VERTEX
8
CONTOURS_MAJEURES
10
161.614
20
246.619
0
VERTEX
8
CONTOURS_MAJEURES
10
159.999
20
248.891
0
VERTEX
8
CONTOURS_MAJEURES
10
159.229
20
250.002
0
VERTEX
8
CONTOURS_MAJEURES
10
157.499
20
252.500
0
VERTEX
8
CONTOURS_MAJEURES
10
155.768
20
254.998
0
VERTEX
8
CONTOURS_MAJEURES
10
154.999
20
256.108
0
VERTEX
8
CONTOURS_MAJEURES
10
152.236
20
259.994
0
VERTEX
8
CONTOURS_MAJEURES
10
151.307
20
261.304
0
VERTEX
8
CONTOURS_MAJEURES
10
149.999
20
263.147
0
VERTEX
8
CONTOURS_MAJEURES
10
148.717
20
265.002
0
VERTEX
8
CONTOURS_MAJEURES
10
145.833
20
269.166
0
VERTEX
8
CONTOURS_MAJEURES
10
145.263
20
269.998
0
VERTEX
8
CONTOURS_MAJEURES
10
145.153
20
270.152
0
VERTEX
8
CONTOURS_MAJEURES
10
145.000
20
270.368
0
VERTEX
8
CONTOURS_MAJEURES
10
143.077
20
273.073
0
VERTEX
8
CONTOURS_MAJEURES
10
141.710
20
274.995
0
VERTEX
8
CONTOURS_MAJEURES
10
140.000
20
277.406
0
VERTEX
8
CONTOURS_MAJEURES
10
138.939
20
278.940
0
VERTEX
8
CONTOURS_MAJEURES
10
138.205
20
280.002
0
VERTEX
8
CONTOURS_MAJEURES
10
135.000
20
283.289
0
VERTEX
8
CONTOURS_MAJEURES
10
134.435
20
284.434
0
VERTEX
8
CONTOURS_MAJEURES
10
134.253
20
284.999
0
VERTEX
8
CONTOURS_MAJEURES
10
130.001
20
289.995
0
VERTEX
8
CONTOURS_MAJEURES
10
127.092
20
292.090
0
VERTEX
8
CONTOURS_MAJEURES
10
126.323
20
295.003
0
VERTEX
8
CONTOURS_MAJEURES
10
126.798
20
296.799
0
VERTEX
8
CONTOURS_MAJEURES
10
127.950
20
299.999
0
VERTEX
8
CONTOURS_MAJEURES
10
128.460
20
301.538
0
VERTEX
8
CONTOURS_MAJEURES
10
128.951
20
304.995
0
VERTEX
8
CONTOURS_MAJEURES
10
128.233
20
308.232
0
VERTEX
8
CONTOURS_MAJEURES
10
128.088
20
310.003
0
VERTEX
8
CONTOURS_MAJEURES
10
126.112
20
313.889
0
VERTEX
8
CONTOURS_MAJEURES
10
125.630
20
314.999
0
VERTEX
8
CONTOURS_MAJEURES
10
125.572
20
315.570
0
VERTEX
8
CONTOURS_MAJEURES
10
125.001
20
317.125
0
VERTEX
8
CONTOURS_MAJEURES
10
124.141
20
319.136
0
VERTEX
8
CONTOURS_MAJEURES
10
123.866
20
319.996
0
VERTEX
8
CONTOURS_MAJEURES
10
123.334
20
321.665
0
VERTEX
8
CONTOURS_MAJEURES
10
122.232
20
325.003
0
VERTEX
8
CONTOURS_MAJEURES
10
121.766
20
326.767
0
VERTEX
8
CONTOURS_MAJEURES
10
120.621
20
329.999
0
VERTEX
8
CONTOURS_MAJEURES
10
120.001
20
331.793
0
VERTEX
8
CONTOURS_MAJEURES
10
118.581
20
333.576
0
VERTEX
8
CONTOURS_MAJEURES
10
117.450
20
334.996
0
SEQEND
0
POLYLINE
8
CONTOURS_MAJEURES
66
1
70
0
0
VERTEX
8
CONTOURS_MAJEURES
10
180.697
20
0.004
0
VERTEX
8
CONTOURS_MAJEURES
10
181.016
20
3.983
0
VERTEX
8
CONTOURS_MAJEURES
10
180.831
20
5.001
0
VERTEX
8
CONTOURS_MAJEURES
10
180.348
20
5.351
0
VERTEX
8
CONTOURS_MAJEURES
10
179.997
20
5.744
0
VERTEX
8
CONTOURS_MAJEURES
10
176.109
20
9.997
0
VERTEX
8
CONTOURS_MAJEURES
10
174.998
20
10.840
0
VERTEX
8
CONTOURS_MAJEURES
10
172.592
20
12.596
0
VERTEX
8
CONTOURS_MAJEURES
10
169.998
20
14.710
0
VERTEX
8
CONTOURS_MAJEURES
10
169.827
20
14.833
0
VERTEX
8
CONTOURS_MAJEURES
10
169.632
20
15.005
0
VERTEX
8
CONTOURS_MAJEURES
10
166.998
20
17.003
0
VERTEX
8
CONTOURS_MAJEURES
10
164.998
20
18.521
0
VERTEX
8
CONTOURS_MAJEURES
10
164.161
20
19.164
0
VERTEX
8
CONTOURS_MAJEURES
10
163.047
20
20.001
0
VERTEX
8
CONTOURS_MAJEURES
10
159.999
20
23.163
0
VERTEX
8
CONTOURS_MAJEURES
10
159.104
20
24.103
0
VERTEX
8
CONTOURS_MAJEURES
10
158.186
20
24.998
0
VERTEX
8
CONTOURS_MAJEURES
10
157.801
20
27.804
0
VERTEX
8
CONTOURS_MAJEURES
10
157.401
20
30.005
0
VERTEX
8
CONTOURS_MAJEURES
10
156.257
20
31.263
0
VERTEX
8
CONTOURS_MAJEURES
10
154.999
20
32.470
0
VERTEX
8
CONTOURS_MAJEURES
10
153.749
20
33.752
0
VERTEX
8
CONTOURS_MAJEURES
10
152.396
20
35.001
0
VERTEX
8
CONTOURS_MAJEURES
10
151.086
20
36.088
0
VERTEX
8
CONTOURS_MAJEURES
10
149.999
20
36.966
0
VERTEX
8
CONTOURS_MAJEURES
10
148.322
20
38.322
0
VERTEX
8
CONTOURS_MAJEURES
10
146.197
20
39.998
0
VERTEX
8
CONTOURS_MAJEURES
10
145.000
20
41.148
0
VERTEX
8
CONTOURS_MAJEURES
10
143.048
20
43.050
0
VERTEX
8
CONTOURS_MAJEURES
10
140.986
20
45.005
0
VERTEX
8
CONTOURS_MAJEURES
10
140.000
20
45.938
0
VERTEX
8
CONTOURS_MAJEURES
10
137.925
20
47.928
0
VERTEX
8
CONTOURS_MAJEURES
10
135.515
20
50.002
0
VERTEX
8
CONTOURS_MAJEURES
10
135.000
20
51.208
0
VERTEX
8
CONTOURS_MAJEURES
10
134.345
20
54.344
0
VERTEX
8
CONTOURS_MAJEURES
10
134.120
20
54.998
0
VERTEX
8
CONTOURS_MAJEURES
10
133.992
20
58.987
0
VERTEX
8
CONTOURS_MAJEURES
10
133.952
20
59.994
0
VERTEX
8
CONTOURS_MAJEURES
10
133.799
20
63.799
0
VERTEX
8
CONTOURS_MAJEURES
10
133.760
20
65.002
0
VERTEX
8
CONTOURS_MAJEURES
10
133.709
20
66.293
0
VERTEX
8
CONTOURS_MAJEURES
10
133.589
20
69.998
0
VERTEX
8
CONTOURS_MAJEURES
10
133.542
20
71.456
0
VERTEX
8
CONTOURS_MAJEURES
10
133.400
20
74.995
0
VERTEX
8
CONTOURS_MAJEURES
10
133.295
20
78.294
0
VERTEX
8
CONTOURS_MAJEURES
10
133.226
20
80.002
0
VERTEX
8
CONTOURS_MAJEURES
10
133.101
20
83.101
0
VERTEX
8
CONTOURS_MAJEURES
10
133.040
20
84.999
0
VERTEX
8
CONTOURS_MAJEURES
10
132.959
20
87.039
0
VERTEX
8
CONTOURS_MAJEURES
10
132.863
20
89.995
0
VERTEX
8
CONTOURS_MAJEURES
10
132.792
20
92.207
0
VERTEX
8
CONTOURS_MAJEURES
10
132.680
20
95.002
0
VERTEX
8
CONTOURS_MAJEURES
10
132.584
20
97.417
0
VERTEX
8
CONTOURS_MAJEURES
10
132.500
20
99.999
0
VERTEX
8
CONTOURS_MAJEURES
10
132.403
20
102.400
0
VERTEX
8
CONTOURS_MAJEURES
10
132.320
20
104.995
0
VERTEX
8
CONTOURS_MAJEURES
10
132.248
20
107.247
0
VERTEX
8
CONTOURS_MAJEURES
10
132.137
20
110.003
0
VERTEX
8
CONTOURS_MAJEURES
10
132.042
20
112.959
0
VERTEX
8
CONTOURS_MAJEURES
10
131.960
20
114.999
0
VERTEX
8
CONTOURS_MAJEURES
10
131.900
20
116.897
0
VERTEX
8
CONTOURS_MAJEURES
10
131.775
20
119.996
0
VERTEX
8
CONTOURS_MAJEURES
10
131.461
20
123.541
0
VERTEX
8
CONTOURS_MAJEURES
10
131.399
20
125.003
0
VERTEX
8
CONTOURS_MAJEURES
10
130.001
20
126.990
0
VERTEX
8
CONTOURS_MAJEURES
10
127.728
20
127.728
0
VERTEX
8
CONTOURS_MAJEURES
10
125.001
20
128.846
0
VERTEX
8
CONTOURS_MAJEURES
10
122.189
20
129.999
0
VERTEX
8
CONTOURS_MAJEURES
10
121.062
20
131.059
0
VERTEX
8
CONTOURS_MAJEURES
10
120.001
20
132.412
0
VERTEX
8
CONTOURS_MAJEURES
10
118.028
20
134.996
0
VERTEX
8
CONTOURS_MAJEURES
10
115.001
20
139.426
0
VERTEX
8
CONTOURS_MAJEURES
10
114.771
20
139.772
0
VERTEX
8
CONTOURS_MAJEURES
10
114.607
20
140.003
0
VERTEX
8
CONTOURS_MAJEURES
10
113.638
20
141.366
0
VERTEX
8
CONTOURS_MAJEURES
10
111.054
20
145.000
0
VERTEX
8
CONTOURS_MAJEURES
10
110.002
20
146.480
0
VERTEX
8
CONTOURS_MAJEURES
10
107.566
20
149.996
0
VERTEX
8
CONTOURS_MAJEURES
10
106.517
20
151.514
0
VERTEX
8
CONTOURS_MAJEURES
10
105.002
20
153.705
0
VERTEX
8
CONTOURS_MAJEURES
10
104.081
20
155.004
0
VERTEX
8
CONTOURS_MAJEURES
10
101.820
20
158.183
0
VERTEX
8
CONTOURS_MAJEURES
10
100.529
20
160.000
0
VERTEX
8
CONTOURS_MAJEURES
10
100.310
20
160.307
0
VERTEX
8
CONTOURS_MAJEURES
10
100.002
20
160.740
0
VERTEX
8
CONTOURS_MAJEURES
10
97.054
20
164.996
0
VERTEX
8
CONTOURS_MAJEURES
10
95.003
20
167.964
0
VERTEX
8
CONTOURS_MAJEURES
10
93.555
20
170.004
0
VERTEX
8
CONTOURS_MAJEURES
10
92.080
20
172.079
0
VERTEX
8
CONTOURS_MAJEURES
10
90.003
20
175.000
0
VERTEX
8
CONTOURS_MAJEURES
10
87.988
20
177.983
0
VERTEX
8
CONTOURS_MAJEURES
10
86.935
20
179.997
0
VERTEX
8
CONTOURS_MAJEURES
10
85.003
20
184.726
0
VERTEX
8
CONTOURS_MAJEURES
10
84.957
20
184.958
0
VERTEX
8
CONTOURS_MAJEURES
10
84.957
20
185.004
0
VERTEX
8
CONTOURS_MAJEURES
10
84.957
20
185.051
0
VERTEX
8
CONTOURS_MAJEURES
10
84.533
20
190.001
0
VERTEX
8
CONTOURS_MAJEURES
10
84.494
20
190.509
0
VERTEX
8
CONTOURS_MAJEURES
10
84.373
20
194.997
0
VERTEX
8
CONTOURS_MAJEURES
10
84.334
20
199.334
0
VERTEX
8
CONTOURS_MAJEURES
10
84.230
20
200.004
0
VERTEX
8
CONTOURS_MAJEURES
10
84.089
20
200.918
0
VERTEX
8
CONTOURS_MAJEURES
10
83.854
20
205.001
0
VERTEX
8
CONTOURS_MAJEURES
10
83.387
20
208.382
0
VERTEX
8
CONTOURS_MAJEURES
10
83.206
20
209.997
0
VERTEX
8
CONTOURS_MAJEURES
10
82.771
20
212.768
0
VERTEX
8
CONTOURS_MAJEURES
10
82.632
20
215.005
0
VERTEX
8
CONTOURS_MAJEURES
10
82.092
20
217.914
0
VERTEX
8
CONTOURS_MAJEURES
10
81.722
20
220.001
0
VERTEX
8
CONTOURS_MAJEURES
10
81.621
20
221.618
0
VERTEX
8
CONTOURS_MAJEURES
10
80.897
20
224.998
0
VERTEX
8
CONTOURS_MAJEURES
10
80.004
20
228.127
0
VERTEX
8
CONTOURS_MAJEURES
10
79.412
20
229.412
0
VERTEX
8
CONTOURS_MAJEURES
10
78.788
20
230.005
0
VERTEX
8
CONTOURS_MAJEURES
10
77.033
20
232.033
0
VERTEX
8
CONTOURS_MAJEURES
10
75.004
20
233.417
0
VERTEX
8
CONTOURS_MAJEURES
10
74.062
20
234.060
0
VERTEX
8
CONTOURS_MAJEURES
10
73.294
20
235.001
0
VERTEX
8
CONTOURS_MAJEURES
10
71.717
20
236.713
0
VERTEX
8
CONTOURS_MAJEURES
10
70.936
20
239.998
0
VERTEX
8
CONTOURS_MAJEURES
10
71.422
20
243.585
0
VERTEX
8
CONTOURS_MAJEURES
10
71.072
20
245.005
0
VERTEX
8
CONTOURS_MAJEURES
10
71.096
20
246.096
0
VERTEX
8
CONTOURS_MAJEURES
10
71.671
20
250.002
0
VERTEX
8
CONTOURS_MAJEURES
10
72.098
20
252.906
0
VERTEX
8
CONTOURS_MAJEURES
10
72.406
20
254.998
0
VERTEX
8
CONTOURS_MAJEURES
10
72.820
20
257.812
0
VERTEX
8
CONTOURS_MAJEURES
10
73.141
20
259.994
0
VERTEX
8
CONTOURS_MAJEURES
10
73.394
20
261.607
0
VERTEX
8
CONTOURS_MAJEURES
10
73.888
20
265.002
0
VERTEX
8
CONTOURS_MAJEURES
10
74.030
20
265.976
0
VERTEX
8
CONTOURS_MAJEURES
10
74.616
20
269.998
0
VERTEX
8
CONTOURS_MAJEURES
10
75.004
20
272.663
0
VERTEX
8
CONTOURS_MAJEURES
10
75.303
20
274.696
0
VERTEX
8
CONTOURS_MAJEURES
10
75.347
20
274.995
0
VERTEX
8
CONTOURS_MAJEURES
10
75.406
20
275.398
0
VERTEX
8
CONTOURS_MAJEURES
10
76.082
20
280.002
0
VERTEX
8
CONTOURS_MAJEURES
10
75.510
20
284.493
0
VERTEX
8
CONTOURS_MAJEURES
10
75.504
20
284.999
0
VERTEX
8
CONTOURS_MAJEURES
10
75.294
20
285.289
0
VERTEX
8
CONTOURS_MAJEURES
10
75.004
20
285.598
0
VERTEX
8
CONTOURS_MAJEURES
10
70.879
20
289.995
0
VERTEX
8
CONTOURS_MAJEURES
10
70.004
20
290.810
0
VERTEX
8
CONTOURS_MAJEURES
10
68.535
20
293.531
0
VERTEX
8
CONTOURS_MAJEURES
10
67.740
20
295.003
0
VERTEX
8
CONTOURS_MAJEURES
10
65.140
20
299.864
0
VERTEX
8
CONTOURS_MAJEURES
10
65.067
20
299.999
0
VERTEX
8
CONTOURS_MAJEURES
10
65.046
20
300.040
0
VERTEX
8
CONTOURS_MAJEURES
10
65.005
20
300.115
0
VERTEX
8
CONTOURS_MAJEURES
10
63.576
20
301.426
0
VERTEX
8
CONTOURS_MAJEURES
10
60.005
20
304.705
0
VERTEX
8
CONTOURS_MAJEURES
10
59.854
20
304.845
0
VERTEX
8
CONTOURS_MAJEURES
10
59.693
20
304.995
0
VERTEX
8
CONTOURS_MAJEURES
10
57.278
20
307.271
0
VERTEX
8
CONTOURS_MAJEURES
10
55.005
20
309.414
0
VERTEX
8
CONTOURS_MAJEURES
10
54.371
20
310.003
0
VERTEX
8
CONTOURS_MAJEURES
10
52.129
20
312.131
0
VERTEX
8
CONTOURS_MAJEURES
10
49.995
20
312.696
0
VERTEX
8
CONTOURS_MAJEURES
10
45.572
20
314.423
0
VERTEX
8
CONTOURS_MAJEURES
10
44.995
20
314.715
0
VERTEX
8
CONTOURS_MAJEURES
10
44.805
20
314.809
0
VERTEX
8
CONTOURS_MAJEURES
10
44.333
20
314.999
0
VERTEX
8
CONTOURS_MAJEURES
10
40.495
20
319.496
0
VERTEX
8
CONTOURS_MAJEURES
10
40.245
20
319.996
0
VERTEX
8
CONTOURS_MAJEURES
10
39.995
20
320.035
0
VERTEX
8
CONTOURS_MAJEURES
10
36.002
20
321.003
0
VERTEX
8
CONTOURS_MAJEURES
10
34.996
20
320.901
0
VERTEX
8
CONTOURS_MAJEURES
10
31.844
20
321.846
0
VERTEX
8
CONTOURS_MAJEURES
10
29.996
20
321.879
0
VERTEX
8
CONTOURS_MAJEURES
10
27.540
20
322.543
0
VERTEX
8
CONTOURS_MAJEURES
10
24.996
20
323.380
0
VERTEX
8
CONTOURS_MAJEURES
10
21.151
20
325.003
0
VERTEX
8
CONTOURS_MAJEURES
10
20.329
20
325.335
0
VERTEX
8
CONTOURS_MAJEURES
10
19.997
20
325.455
0
VERTEX
8
CONTOURS_MAJEURES
10
19.257
20
325.742
0
VERTEX
8
CONTOURS_MAJEURES
10
14.997
20
327.301
0
VERTEX
8
CONTOURS_MAJEURES
10
11.154
20
328.844
0
VERTEX
8
CONTOURS_MAJEURES
10
9.997
20
329.244
0
VERTEX
8
CONTOURS_MAJEURES
10
9.519
20
329.521
0
VERTEX
8
CONTOURS_MAJEURES
10
9.096
20
329.999
0
VERTEX
8
CONTOURS_MAJEURES
10
7.718
20
332.277
0
VERTEX
8
CONTOURS_MAJEURES
10
6.031
20
334.996
0
SEQEND
0
POLYLINE
8
CONTOURS_MAJEURES
66
1
70
0
0
VERTEX
8
CONTOURS_MAJEURES
10
-0.002
20
58.391
0
VERTEX
8
CONTOURS_MAJEURES
10
1.910
20
58.084
0
VERTEX
8
CONTOURS_MAJEURES
10
4.998
20
56.335
0
VERTEX
8
CONTOURS_MAJEURES
10
5.742
20
54.998
0
VERTEX
8
CONTOURS_MAJEURES
10
6.674
20
51.676
0
VERTEX
8
CONTOURS_MAJEURES
10
8.233
20
50.002
0
VERTEX
8
CONTOURS_MAJEURES
10
9.997
20
48.393
0
VERTEX
8
CONTOURS_MAJEURES
10
12.204
20
47.210
0
VERTEX
8
CONTOURS_MAJEURES
10
14.997
20
45.834
0
VERTEX
8
CONTOURS_MAJEURES
10
16.574
20
45.005
0
VERTEX
8
CONTOURS_MAJEURES
10
18.730
20
43.737
0
VERTEX
8
CONTOURS_MAJEURES
10
19.997
20
42.685
0
VERTEX
8
CONTOURS_MAJEURES
10
23.162
20
39.998
0
VERTEX
8
CONTOURS_MAJEURES
10
24.996
20
37.424
0
VERTEX
8
CONTOURS_MAJEURES
10
28.442
20
36.554
0
VERTEX
8
CONTOURS_MAJEURES
10
29.996
20
35.828
0
VERTEX
8
CONTOURS_MAJEURES
10
30.608
20
35.613
0
VERTEX
8
CONTOURS_MAJEURES
10
32.087
20
35.001
0
VERTEX
8
CONTOURS_MAJEURES
10
34.996
20
33.970
0
VERTEX
8
CONTOURS_MAJEURES
10
36.773
20
31.781
0
VERTEX
8
CONTOURS_MAJEURES
10
37.299
20
30.005
0
VERTEX
8
CONTOURS_MAJEURES
10
37.426
20
27.571
0
VERTEX
8
CONTOURS_MAJEURES
10
38.002
20
24.998
0
VERTEX
8
CONTOURS_MAJEURES
10
39.256
20
20.740
0
VERTEX
8
CONTOURS_MAJEURES
10
39.514
20
20.001
0
VERTEX
8
CONTOURS_MAJEURES
10
39.995
20
18.898
0
VERTEX
8
CONTOURS_MAJEURES
10
41.760
20
16.768
0
VERTEX
8
CONTOURS_MAJEURES
10
43.026
20
15.005
0
VERTEX
8
CONTOURS_MAJEURES
10
44.995
20
12.847
0
VERTEX
8
CONTOURS_MAJEURES
10
46.695
20
11.699
0
VERTEX
8
CONTOURS_MAJEURES
10
48.754
20
9.997
0
VERTEX
8
CONTOURS_MAJEURES
10
49.995
20
8.766
0
VERTEX
8
CONTOURS_MAJEURES
10
52.079
20
7.079
0
VERTEX
8
CONTOURS_MAJEURES
10
55.005
20
5.321
0
VERTEX
8
CONTOURS_MAJEURES
10
55.175
20
5.171
0
VERTEX
8
CONTOURS_MAJEURES
10
55.608
20
5.001
0
VERTEX
8
CONTOURS_MAJEURES
10
55.931
20
4.076
0
VERTEX
8
CONTOURS_MAJEURES
10
57.869
20
0.004
0
SEQEND
0
POLYLINE
8
CONTOURS_MAJEURES
66
1
70
0
0
VERTEX
8
CONTOURS_MAJEURES
10
-0.002
20
95.911
0
VERTEX
8
CONTOURS_MAJEURES
10
0.514
20
95.519
0
VERTEX
8
CONTOURS_MAJEURES
10
1.356
20
95.002
0
VERTEX
8
CONTOURS_MAJEURES
10
3.586
20
93.589
0
VERTEX
8
CONTOURS_MAJEURES
10
4.998
20
92.764
0
VERTEX
8
CONTOURS_MAJEURES
10
5.979
20
90.978
0
VERTEX
8
CONTOURS_MAJEURES
10
6.494
20
89.995
0
VERTEX
8
CONTOURS_MAJEURES
10
7.569
20
87.568
0
VERTEX
8
CONTOURS_MAJEURES
10
8.898
20
84.999
0
VERTEX
8
CONTOURS_MAJEURES
10
9.997
20
82.992
0
VERTEX
8
CONTOURS_MAJEURES
10
11.664
20
81.668
0
VERTEX
8
CONTOURS_MAJEURES
10
13.797
20
80.002
0
VERTEX
8
CONTOURS_MAJEURES
10
14.997
20
79.144
0
VERTEX
8
CONTOURS_MAJEURES
10
17.826
20
77.828
0
VERTEX
8
CONTOURS_MAJEURES
10
19.997
20
77.031
0
VERTEX
8
CONTOURS_MAJEURES
10
23.473
20
76.520
0
VERTEX
8
CONTOURS_MAJEURES
10
24.996
20
76.390
0
VERTEX
8
CONTOURS_MAJEURES
10
26.246
20
76.247
0
VERTEX
8
CONTOURS_MAJEURES
10
29.996
20
75.461
0
VERTEX
8
CONTOURS_MAJEURES
10
30.347
20
75.346
0
VERTEX
8
CONTOURS_MAJEURES
10
32.139
20
74.995
0
VERTEX
8
CONTOURS_MAJEURES
10
34.533
20
74.533
0
VERTEX
8
CONTOURS_MAJEURES
10
34.996
20
74.465
0
VERTEX
8
CONTOURS_MAJEURES
10
39.526
20
74.525
0
VERTEX
8
CONTOURS_MAJEURES
10
39.995
20
74.525
0
VERTEX
8
CONTOURS_MAJEURES
10
40.447
20
74.543
0
VERTEX
8
CONTOURS_MAJEURES
10
44.113
20
74.995
0
VERTEX
8
CONTOURS_MAJEURES
10
44.995
20
75.185
0
VERTEX
8
CONTOURS_MAJEURES
10
47.852
20
77.141
0
VERTEX
8
CONTOURS_MAJEURES
10
48.059
20
80.002
0
VERTEX
8
CONTOURS_MAJEURES
10
48.110
20
83.115
0
VERTEX
8
CONTOURS_MAJEURES
10
48.279
20
84.999
0
VERTEX
8
CONTOURS_MAJEURES
10
48.380
20
88.381
0
VERTEX
8
CONTOURS_MAJEURES
10
48.392
20
89.995
0
VERTEX
8
CONTOURS_MAJEURES
10
48.527
20
93.532
0
VERTEX
8
CONTOURS_MAJEURES
10
48.503
20
95.002
0
VERTEX
8
CONTOURS_MAJEURES
10
48.372
20
96.624
0
VERTEX
8
CONTOURS_MAJEURES
10
48.463
20
99.999
0
VERTEX
8
CONTOURS_MAJEURES
10
48.186
20
101.806
0
VERTEX
8
CONTOURS_MAJEURES
10
48.186
20
104.995
0
VERTEX
8
CONTOURS_MAJEURES
10
47.995
20
108.000
0
VERTEX
8
CONTOURS_MAJEURES
10
47.431
20
110.003
0
VERTEX
8
CONTOURS_MAJEURES
10
47.083
20
112.089
0
VERTEX
8
CONTOURS_MAJEURES
10
45.980
20
114.999
0
VERTEX
8
CONTOURS_MAJEURES
10
44.995
20
118.418
0
VERTEX
8
CONTOURS_MAJEURES
10
44.679
20
119.996
0
VERTEX
8
CONTOURS_MAJEURES
10
44.193
20
124.200
0
VERTEX
8
CONTOURS_MAJEURES
10
44.091
20
125.003
0
VERTEX
8
CONTOURS_MAJEURES
10
43.295
20
126.702
0
VERTEX
8
CONTOURS_MAJEURES
10
42.458
20
129.999
0
VERTEX
8
CONTOURS_MAJEURES
10
41.937
20
131.939
0
VERTEX
8
CONTOURS_MAJEURES
10
40.662
20
134.996
0
VERTEX
8
CONTOURS_MAJEURES
10
39.995
20
136.598
0
VERTEX
8
CONTOURS_MAJEURES
10
38.959
20
138.965
0
VERTEX
8
CONTOURS_MAJEURES
10
38.422
20
140.003
0
VERTEX
8
CONTOURS_MAJEURES
10
35.948
20
144.048
0
VERTEX
8
CONTOURS_MAJEURES
10
35.431
20
145.000
0
VERTEX
8
CONTOURS_MAJEURES
10
35.266
20
145.270
0
VERTEX
8
CONTOURS_MAJEURES
10
34.996
20
145.512
0
VERTEX
8
CONTOURS_MAJEURES
10
32.304
20
147.306
0
VERTEX
8
CONTOURS_MAJEURES
10
29.996
20
148.189
0
VERTEX
8
CONTOURS_MAJEURES
10
25.523
20
149.996
0
VERTEX
8
CONTOURS_MAJEURES
10
24.996
20
150.282
0
VERTEX
8
CONTOURS_MAJEURES
10
22.705
20
152.709
0
VERTEX
8
CONTOURS_MAJEURES
10
20.872
20
155.004
0
VERTEX
8
CONTOURS_MAJEURES
10
19.997
20
156.032
0
VERTEX
8
CONTOURS_MAJEURES
10
18.068
20
158.073
0
VERTEX
8
CONTOURS_MAJEURES
10
16.247
20
160.000
0
VERTEX
8
CONTOURS_MAJEURES
10
14.997
20
163.459
0
VERTEX
8
CONTOURS_MAJEURES
10
14.791
20
164.996
0
VERTEX
8
CONTOURS_MAJEURES
10
14.997
20
166.999
0
VERTEX
8
CONTOURS_MAJEURES
10
15.327
20
170.004
0
VERTEX
8
CONTOURS_MAJEURES
10
15.988
20
174.010
0
VERTEX
8
CONTOURS_MAJEURES
10
16.026
20
175.000
0
VERTEX
8
CONTOURS_MAJEURES
10
16.204
20
176.206
0
VERTEX
8
CONTOURS_MAJEURES
10
16.762
20
179.997
0
VERTEX
8
CONTOURS_MAJEURES
10
17.176
20
182.821
0
VERTEX
8
CONTOURS_MAJEURES
10
17.497
20
185.004
0
VERTEX
8
CONTOURS_MAJEURES
10
17.928
20
187.933
0
VERTEX
8
CONTOURS_MAJEURES
10
18.249
20
190.001
0
VERTEX
8
CONTOURS_MAJEURES
10
18.804
20
193.805
0
VERTEX
8
CONTOURS_MAJEURES
10
18.977
20
194.997
0
VERTEX
8
CONTOURS_MAJEURES
10
19.107
20
195.888
0
VERTEX
8
CONTOURS_MAJEURES
10
19.752
20
200.004
0
VERTEX
8
CONTOURS_MAJEURES
10
19.997
20
201.670
0
VERTEX
8
CONTOURS_MAJEURES
10
20.420
20
204.577
0
VERTEX
8
CONTOURS_MAJEURES
10
20.482
20
205.001
0
VERTEX
8
CONTOURS_MAJEURES
10
20.565
20
205.569
0
VERTEX
8
CONTOURS_MAJEURES
10
21.210
20
209.997
0
VERTEX
8
CONTOURS_MAJEURES
10
21.692
20
213.307
0
VERTEX
8
CONTOURS_MAJEURES
10
21.957
20
215.005
0
VERTEX
8
CONTOURS_MAJEURES
10
22.774
20
217.781
0
VERTEX
8
CONTOURS_MAJEURES
10
23.443
20
220.001
0
VERTEX
8
CONTOURS_MAJEURES
10
23.641
20
221.356
0
VERTEX
8
CONTOURS_MAJEURES
10
24.171
20
224.998
0
VERTEX
8
CONTOURS_MAJEURES
10
24.939
20
229.947
0
VERTEX
8
CONTOURS_MAJEURES
10
24.947
20
230.005
0
VERTEX
8
CONTOURS_MAJEURES
10
24.954
20
230.048
0
VERTEX
8
CONTOURS_MAJEURES
10
24.996
20
230.338
0
VERTEX
8
CONTOURS_MAJEURES
10
25.676
20
235.001
0
VERTEX
8
CONTOURS_MAJEURES
10
26.225
20
238.770
0
VERTEX
8
CONTOURS_MAJEURES
10
26.418
20
239.998
0
VERTEX
8
CONTOURS_MAJEURES
10
26.877
20
243.122
0
VERTEX
8
CONTOURS_MAJEURES
10
27.153
20
245.005
0
VERTEX
8
CONTOURS_MAJEURES
10
27.525
20
247.532
0
VERTEX
8
CONTOURS_MAJEURES
10
27.909
20
250.002
0
VERTEX
8
CONTOURS_MAJEURES
10
28.174
20
251.822
0
VERTEX
8
CONTOURS_MAJEURES
10
28.637
20
254.998
0
VERTEX
8
CONTOURS_MAJEURES
10
29.258
20
259.256
0
VERTEX
8
CONTOURS_MAJEURES
10
29.365
20
259.994
0
VERTEX
8
CONTOURS_MAJEURES
10
29.996
20
264.063
0
VERTEX
8
CONTOURS_MAJEURES
10
30.123
20
264.875
0
VERTEX
8
CONTOURS_MAJEURES
10
30.142
20
265.002
0
VERTEX
8
CONTOURS_MAJEURES
10
30.686
20
269.309
0
VERTEX
8
CONTOURS_MAJEURES
10
30.788
20
269.998
0
VERTEX
8
CONTOURS_MAJEURES
10
29.996
20
272.421
0
VERTEX
8
CONTOURS_MAJEURES
10
29.347
20
274.346
0
VERTEX
8
CONTOURS_MAJEURES
10
28.960
20
274.995
0
VERTEX
8
CONTOURS_MAJEURES
10
24.996
20
278.824
0
VERTEX
8
CONTOURS_MAJEURES
10
23.747
20
280.002
0
VERTEX
8
CONTOURS_MAJEURES
10
21.815
20
281.819
0
VERTEX
8
CONTOURS_MAJEURES
10
19.997
20
283.488
0
VERTEX
8
CONTOURS_MAJEURES
10
18.372
20
284.999
0
VERTEX
8
CONTOURS_MAJEURES
10
16.633
20
286.634
0
VERTEX
8
CONTOURS_MAJEURES
10
14.997
20
288.136
0
VERTEX
8
CONTOURS_MAJEURES
10
12.997
20
289.995
0
VERTEX
8
CONTOURS_MAJEURES
10
9.997
20
292.790
0
VERTEX
8
CONTOURS_MAJEURES
10
9.222
20
294.226
0
VERTEX
8
CONTOURS_MAJEURES
10
8.739
20
295.003
0
VERTEX
8
CONTOURS_MAJEURES
10
4.998
20
299.999
0
VERTEX
8
CONTOURS_MAJEURES
10
1.498
20
301.498
0
VERTEX
8
CONTOURS_MAJEURES
10
-0.002
20
302.140
0
SEQEND
0
POLYLINE
8
CONTOURS_MAJEURES
66
1
70
0
0
VERTEX
8
CONTOURS_MAJEURES
10
88.600
20
23.595
0
VERTEX
8
CONTOURS_MAJEURES
10
90.003
20
22.272
0
VERTEX
8
CONTOURS_MAJEURES
10
92.781
20
22.777
0
VERTEX
8
CONTOURS_MAJEURES
10
95.003
20
22.193
0
VERTEX
8
CONTOURS_MAJEURES
10
97.003
20
22.999
0
VERTEX
8
CONTOURS_MAJEURES
10
98.021
20
24.998
0
VERTEX
8
CONTOURS_MAJEURES
10
97.081
20
27.079
0
VERTEX
8
CONTOURS_MAJEURES
10
96.962
20
30.005
0
VERTEX
8
CONTOURS_MAJEURES
10
95.710
20
30.712
0
VERTEX
8
CONTOURS_MAJEURES
10
95.003
20
31.086
0
VERTEX
8
CONTOURS_MAJEURES
10
92.664
20
32.342
0
VERTEX
8
CONTOURS_MAJEURES
10
90.003
20
33.639
0
VERTEX
8
CONTOURS_MAJEURES
10
88.128
20
33.128
0
VERTEX
8
CONTOURS_MAJEURES
10
87.541
20
35.001
0
VERTEX
8
CONTOURS_MAJEURES
10
85.003
20
36.910
0
VERTEX
8
CONTOURS_MAJEURES
10
81.018
20
39.998
0
VERTEX
8
CONTOURS_MAJEURES
10
80.500
20
40.495
0
VERTEX
8
CONTOURS_MAJEURES
10
80.004
20
40.999
0
VERTEX
8
CONTOURS_MAJEURES
10
75.825
20
45.005
0
VERTEX
8
CONTOURS_MAJEURES
10
75.004
20
45.758
0
VERTEX
8
CONTOURS_MAJEURES
10
70.084
20
50.002
0
VERTEX
8
CONTOURS_MAJEURES
10
70.035
20
50.033
0
VERTEX
8
CONTOURS_MAJEURES
10
70.004
20
50.057
0
VERTEX
8
CONTOURS_MAJEURES
10
69.929
20
50.077
0
VERTEX
8
CONTOURS_MAJEURES
10
69.963
20
50.002
0
VERTEX
8
CONTOURS_MAJEURES
10
69.975
20
49.973
0
VERTEX
8
CONTOURS_MAJEURES
10
70.004
20
49.617
0
VERTEX
8
CONTOURS_MAJEURES
10
72.613
20
45.005
0
VERTEX
8
CONTOURS_MAJEURES
10
74.475
20
44.476
0
VERTEX
8
CONTOURS_MAJEURES
10
73.423
20
39.998
0
VERTEX
8
CONTOURS_MAJEURES
10
75.004
20
37.500
0
VERTEX
8
CONTOURS_MAJEURES
10
78.776
20
38.771
0
VERTEX
8
CONTOURS_MAJEURES
10
77.533
20
35.001
0
VERTEX
8
CONTOURS_MAJEURES
10
80.004
20
33.144
0
VERTEX
8
CONTOURS_MAJEURES
10
83.384
20
33.383
0
VERTEX
8
CONTOURS_MAJEURES
10
82.821
20
30.005
0
VERTEX
8
CONTOURS_MAJEURES
10
85.003
20
27.166
0
VERTEX
8
CONTOURS_MAJEURES
10
87.337
20
24.998
0
VERTEX
8
CONTOURS_MAJEURES
10
88.600
20
23.595
0
SEQEND
0
POLYLINE
8
PARCELLE
66
1
70
1
0
VERTEX
8
PARCELLE
10
119.387
20
313.435
0
VERTEX
8
PARCELLE
10
121.761
20
309.647
0
VERTEX
8
PARCELLE
10
127.326
20
298.738
0
VERTEX
8
PARCELLE
10
127.728
20
297.914
0
VERTEX
8
PARCELLE
10
127.563
20
251.509
0
VERTEX
8
PARCELLE
10
127.496
20
228.438
0
VERTEX
8
PARCELLE
10
127.416
20
212.406
0
VERTEX
8
PARCELLE
10
127.652
20
210.886
0
VERTEX
8
PARCELLE
10
128.338
20
209.501
0
VERTEX
8
PARCELLE
10
129.408
20
208.392
0
VERTEX
8
PARCELLE
10
130.770
20
207.660
0
VERTEX
8
PARCELLE
10
150.895
20
200.569
0
VERTEX
8
PARCELLE
10
152.181
20
200.238
0
VERTEX
8
PARCELLE
10
153.500
20
200.116
0
VERTEX
8
PARCELLE
10
158.498
20
200.059
0
VERTEX
8
PARCELLE
10
189.131
20
199.772
0
VERTEX
8
PARCELLE
10
193.237
20
208.992
0
VERTEX
8
PARCELLE
10
197.129
20
204.092
0
VERTEX
8
PARCELLE
10
200.625
20
199.644
0
VERTEX
8
PARCELLE
10
207.778
20
190.578
0
VERTEX
8
PARCELLE
10
188.627
20
190.738
0
VERTEX
8
PARCELLE
10
162.531
20
190.992
0
VERTEX
8
PARCELLE
10
153.415
20
191.077
0
VERTEX
8
PARCELLE
10
150.619
20
191.333
0
VERTEX
8
PARCELLE
10
147.897
20
192.058
0
VERTEX
8
PARCELLE
10
138.522
20
195.362
0
VERTEX
8
PARCELLE
10
117.669
20
202.709
0
VERTEX
8
PARCELLE
10
116.122
20
202.993
0
VERTEX
8
PARCELLE
10
114.561
20
202.778
0
VERTEX
8
PARCELLE
10
113.809
20
202.485
0
VERTEX
8
PARCELLE
10
90.251
20
191.060
0
VERTEX
8
PARCELLE
10
86.977
20
189.472
0
VERTEX
8
PARCELLE
10
84.540
20
188.506
0
VERTEX
8
PARCELLE
10
81.985
20
187.930
0
VERTEX
8
PARCELLE
10
79.365
20
187.756
0
VERTEX
8
PARCELLE
10
70.120
20
187.842
0
VERTEX
8
PARCELLE
10
68.092
20
187.981
0
VERTEX
8
PARCELLE
10
66.106
20
188.369
0
VERTEX
8
PARCELLE
10
64.342
20
188.935
0
VERTEX
8
PARCELLE
10
62.660
20
189.710
0
VERTEX
8
PARCELLE
10
60.738
20
190.407
0
VERTEX
8
PARCELLE
10
58.700
20
190.565
0
VERTEX
8
PARCELLE
10
56.687
20
190.165
0
VERTEX
8
PARCELLE
10
54.859
20
189.243
0
VERTEX
8
PARCELLE
10
44.225
20
181.911
0
VERTEX
8
PARCELLE
10
42.794
20
180.647
0
VERTEX
8
PARCELLE
10
41.710
20
179.088
0
VERTEX
8
PARCELLE
10
41.013
20
177.317
0
VERTEX
8
PARCELLE
10
40.755
20
175.441
0
VERTEX
8
PARCELLE
10
40.387
20
159.524
0
VERTEX
8
PARCELLE
10
40.153
20
147.429
0
VERTEX
8
PARCELLE
10
38.034
20
147.469
0
VERTEX
8
PARCELLE
10
34.254
20
135.618
0
VERTEX
8
PARCELLE
10
34.451
20
109.597
0
VERTEX
8
PARCELLE
10
34.121
20
109.599
0
VERTEX
8
PARCELLE
10
33.731
20
91.444
0
VERTEX
8
PARCELLE
10
33.401
20
75.496
0
VERTEX
8
PARCELLE
10
32.933
20
53.266
0
VERTEX
8
PARCELLE
10
32.280
20
22.078
0
VERTEX
8
PARCELLE
10
31.232
20
20.000
0
VERTEX
8
PARCELLE
10
20.448
20
20.231
0
VERTEX
8
PARCELLE
10
20.047
20
28.635
0
VERTEX
8
PARCELLE
10
20.000
20
35.318
0
VERTEX
8
PARCELLE
10
20.880
20
42.901
0
VERTEX
8
PARCELLE
10
21.164
20
68.798
0
VERTEX
8
PARCELLE
10
21.278
20
83.180
0
VERTEX
8
PARCELLE
10
21.354
20
93.468
0
VERTEX
8
PARCELLE
10
21.839
20
124.867
0
VERTEX
8
PARCELLE
10
21.877
20
127.894
0
VERTEX
8
PARCELLE
10
22.717
20
178.038
0
VERTEX
8
PARCELLE
10
49.450
20
196.486
0
VERTEX
8
PARCELLE
10
50.931
20
197.790
0
VERTEX
8
PARCELLE
10
52.076
20
199.408
0
VERTEX
8
PARCELLE
10
52.813
20
201.238
0
VERTEX
8
PARCELLE
10
53.111
20
203.184
0
VERTEX
8
PARCELLE
10
53.138
20
222.052
0
VERTEX
8
PARCELLE
10
53.271
20
251.137
0
VERTEX
8
PARCELLE
10
53.384
20
279.223
0
VERTEX
8
PARCELLE
10
53.488
20
308.538
0
VERTEX
8
PARCELLE
10
64.294
20
308.497
0
VERTEX
8
PARCELLE
10
84.065
20
308.422
0
VERTEX
8
PARCELLE
10
85.796
20
308.606
0
VERTEX
8
PARCELLE
10
87.441
20
309.159
0
VERTEX
8
PARCELLE
10
88.938
20
310.044
0
VERTEX
8
PARCELLE
10
96.378
20
315.658
0
VERTEX
8
PARCELLE
10
99.575
20
317.626
0
VERTEX
8
PARCELLE
10
103.096
20
318.941
0
VERTEX
8
PARCELLE
10
106.790
20
319.556
0
VERTEX
8
PARCELLE
10
110.547
20
319.461
0
VERTEX
8
PARCELLE
10
114.218
20
318.657
0
VERTEX
8
PARCELLE
10
116.946
20
317.473
0
VERTEX
8
PARCELLE
10
119.387
20
313.435
0
SEQEND
0
TEXT
8
POINTS_COTES
10
-0.002
20
0.004
40
1.0
1
40.9
0
TEXT
8
POINTS_COTES
10
90.003
20
15.005
40
1.0
1
59.2
0
TEXT
8
POINTS_COTES
10
179.997
20
30.005
40
1.0
1
46.5
0
TEXT
8
POINTS_COTES
10
39.995
20
50.002
40
1.0
1
53.9
0
TEXT
8
POINTS_COTES
10
130.001
20
65.002
40
1.0
1
50.9
0
TEXT
8
POINTS_COTES
10
219.995
20
80.002
40
1.0
1
38.4
0
TEXT
8
POINTS_COTES
10
80.004
20
99.999
40
1.0
1
55.1
0
TEXT
8
POINTS_COTES
10
169.998
20
114.999
40
1.0
1
44.9
0
TEXT
8
POINTS_COTES
10
29.996
20
134.996
40
1.0
1
61.1
0
TEXT
8
POINTS_COTES
10
120.001
20
149.996
40
1.0
1
49.0
0
TEXT
8
POINTS_COTES
10
209.995
20
164.996
40
1.0
1
38.8
0
TEXT
8
POINTS_COTES
10
70.004
20
185.004
40
1.0
1
52.9
0
TEXT
8
POINTS_COTES
10
159.999
20
200.004
40
1.0
1
42.9
0
TEXT
8
POINTS_COTES
10
19.997
20
220.001
40
1.0
1
60.7
0
TEXT
8
POINTS_COTES
10
110.002
20
235.001
40
1.0
1
45.0
0
TEXT
8
POINTS_COTES
10
199.996
20
250.002
40
1.0
1
36.5
0
TEXT
8
POINTS_COTES
10
60.005
20
269.998
40
1.0
1
54.0
0
TEXT
8
POINTS_COTES
10
149.999
20
284.999
40
1.0
1
38.2
0
TEXT
8
POINTS_COTES
10
9.997
20
304.995
40
1.0
1
57.8
0
TEXT
8
POINTS_COTES
10
100.002
20
319.996
40
1.0
1
42.4
0
TEXT
8
POINTS_COTES
10
189.997
20
334.996
40
1.0
1
35.2
0
ENDSEC
0
EOF
