0
SECTION
2
HEADER
0
ENDSEC
0
SECTION
2
TABLES
0
TABLE
2
LAYER
70
4
0
LAYER
2
CONTOURS_MINEURES
70
0
62
8
6
CONTINUOUS
0
LAYER
2
CONTOURS_MAJEURES
70
0
62
3
6
CONTINUOUS
0
LAYER
2
PARCELLE
70
0
62
4
6
CONTINUOUS
0
LAYER
2
POINTS_COTES
70
0
62
7
6
CONTINUOUS
0
ENDTAB
0
ENDSEC
0
SECTION
2
ENTITIES
0
POLYLINE
8
CONTOURS_MINEURES
66
1
70
0
0
VERTEX
8
CONTOURS_MINEURES
10
-0.004
20
3.412
0
VERTEX
8
CONTOURS_MINEURES
10
1.344
20
3.657
0
VERTEX
8
CONTOURS_MINEURES
10
5.005
20
3.803
0
VERTEX
8
CONTOURS_MINEURES
10
8.589
20
3.588
0
VERTEX
8
CONTOURS_MINEURES
10
10.003
20
3.850
0
VERTEX
8
CONTOURS_MINEURES
10
10.977
20
4.030
0
VERTEX
8
CONTOURS_MINEURES
10
15.002
20
4.030
0
VERTEX
8
CONTOURS_MINEURES
10
19.247
20
4.251
0
VERTEX
8
CONTOURS_MINEURES
10
20.000
20
4.334
0
VERTEX
8
CONTOURS_MINEURES
10
24.492
20
4.498
0
VERTEX
8
CONTOURS_MINEURES
10
24.998
20
4.326
0
VERTEX
8
CONTOURS_MINEURES
10
28.861
20
3.867
0
VERTEX
8
CONTOURS_MINEURES
10
29.997
20
3.407
0
VERTEX
8
CONTOURS_MINEURES
10
33.405
20
1.591
0
VERTEX
8
CONTOURS_MINEURES
10
34.995
20
1.346
0
VERTEX
8
CONTOURS_MINEURES
10
36.126
20
1.129
0
VERTEX
8
CONTOURS_MINEURES
10
40.004
20
0.713
0
VERTEX
8
CONTOURS_MINEURES
10
42.003
20
-0.002
0
SEQEND
0
POLYLINE
8
CONTOURS_MINEURES
66
1
70
0
0
VERTEX
8
CONTOURS_MINEURES
10
-0.004
20
10.542
0
VERTEX
8
CONTOURS_MINEURES
10
3.175
20
11.827
0
VERTEX
8
CONTOURS_MINEURES
10
3.369
20
14.998
0
VERTEX
8
CONTOURS_MINEURES
10
3.097
20
16.906
0
VERTEX
8
CONTOURS_MINEURES
10
2.321
20
20.006
0
VERTEX
8
CONTOURS_MINEURES
10
4.066
20
24.065
0
VERTEX
8
CONTOURS_MINEURES
10
4.146
20
25.002
0
VERTEX
8
CONTOURS_MINEURES
10
4.556
20
25.449
0
VERTEX
8
CONTOURS_MINEURES
10
5.005
20
25.716
0
VERTEX
8
CONTOURS_MINEURES
10
7.004
20
27.000
0
VERTEX
8
CONTOURS_MINEURES
10
10.003
20
28.749
0
VERTEX
8
CONTOURS_MINEURES
10
10.981
20
29.021
0
VERTEX
8
CONTOURS_MINEURES
10
11.669
20
29.998
0
VERTEX
8
CONTOURS_MINEURES
10
12.371
20
32.365
0
VERTEX
8
CONTOURS_MINEURES
10
13.574
20
34.995
0
VERTEX
8
CONTOURS_MINEURES
10
13.982
20
36.017
0
VERTEX
8
CONTOURS_MINEURES
10
15.002
20
37.777
0
VERTEX
8
CONTOURS_MINEURES
10
16.601
20
40.002
0
VERTEX
8
CONTOURS_MINEURES
10
20.000
20
44.249
0
VERTEX
8
CONTOURS_MINEURES
10
20.882
20
44.999
0
VERTEX
8
CONTOURS_MINEURES
10
23.204
20
46.792
0
VERTEX
8
CONTOURS_MINEURES
10
24.628
20
49.995
0
VERTEX
8
CONTOURS_MINEURES
10
24.998
20
51.998
0
VERTEX
8
CONTOURS_MINEURES
10
26.664
20
49.995
0
VERTEX
8
CONTOURS_MINEURES
10
28.886
20
48.885
0
VERTEX
8
CONTOURS_MINEURES
10
29.997
20
47.996
0
VERTEX
8
CONTOURS_MINEURES
10
32.139
20
44.999
0
VERTEX
8
CONTOURS_MINEURES
10
34.995
20
41.001
0
VERTEX
8
CONTOURS_MINEURES
10
35.290
20
40.296
0
VERTEX
8
CONTOURS_MINEURES
10
35.299
20
40.002
0
VERTEX
8
CONTOURS_MINEURES
10
35.299
20
39.699
0
VERTEX
8
CONTOURS_MINEURES
10
35.807
20
34.995
0
VERTEX
8
CONTOURS_MINEURES
10
37.280
20
32.277
0
VERTEX
8
CONTOURS_MINEURES
10
39.065
20
29.998
0
VERTEX
8
CONTOURS_MINEURES
10
39.426
20
29.422
0
VERTEX
8
CONTOURS_MINEURES
10
40.004
20
28.999
0
VERTEX
8
CONTOURS_MINEURES
10
43.003
20
27.000
0
VERTEX
8
CONTOURS_MINEURES
10
45.003
20
25.542
0
VERTEX
8
CONTOURS_MINEURES
10
45.366
20
25.365
0
VERTEX
8
CONTOURS_MINEURES
10
46.055
20
25.002
0
VERTEX
8
CONTOURS_MINEURES
10
46.820
20
23.185
0
VERTEX
8
CONTOURS_MINEURES
10
47.502
20
20.006
0
VERTEX
8
CONTOURS_MINEURES
10
45.003
20
18.707
0
VERTEX
8
CONTOURS_MINEURES
10
42.876
20
17.129
0
VERTEX
8
CONTOURS_MINEURES
10
40.004
20
15.780
0
VERTEX
8
CONTOURS_MINEURES
10
39.513
20
15.489
0
VERTEX
8
CONTOURS_MINEURES
10
38.531
20
14.998
0
VERTEX
8
CONTOURS_MINEURES
10
34.995
20
13.749
0
VERTEX
8
CONTOURS_MINEURES
10
31.945
20
13.050
0
VERTEX
8
CONTOURS_MINEURES
10
29.997
20
12.553
0
VERTEX
8
CONTOURS_MINEURES
10
27.690
20
12.308
0
VERTEX
8
CONTOURS_MINEURES
10
24.998
20
11.745
0
VERTEX
8
CONTOURS_MINEURES
10
21.052
20
10.002
0
VERTEX
8
CONTOURS_MINEURES
10
21.666
20
8.336
0
VERTEX
8
CONTOURS_MINEURES
10
20.000
20
8.669
0
VERTEX
8
CONTOURS_MINEURES
10
18.948
20
8.950
0
VERTEX
8
CONTOURS_MINEURES
10
15.002
20
7.347
0
VERTEX
8
CONTOURS_MINEURES
10
12.346
20
7.347
0
VERTEX
8
CONTOURS_MINEURES
10
10.003
20
6.879
0
VERTEX
8
CONTOURS_MINEURES
10
7.798
20
7.210
0
VERTEX
8
CONTOURS_MINEURES
10
5.005
20
6.939
0
VERTEX
8
CONTOURS_MINEURES
10
2.121
20
7.125
0
VERTEX
8
CONTOURS_MINEURES
10
-0.004
20
8.891
0
SEQEND
0
POLYLINE
8
CONTOURS_MINEURES
66
1
70
0
0
VERTEX
8
CONTOURS_MINEURES
10
-0.004
20
40.668
0
VERTEX
8
CONTOURS_MINEURES
10
1.510
20
43.488
0
VERTEX
8
CONTOURS_MINEURES
10
2.601
20
44.999
0
VERTEX
8
CONTOURS_MINEURES
10
5.005
20
49.611
0
VERTEX
8
CONTOURS_MINEURES
10
5.255
20
49.995
0
VERTEX
8
CONTOURS_MINEURES
10
6.486
20
53.519
0
VERTEX
8
CONTOURS_MINEURES
10
6.671
20
55.002
0
VERTEX
8
CONTOURS_MINEURES
10
7.004
20
57.001
0
VERTEX
8
CONTOURS_MINEURES
10
7.861
20
59.999
0
VERTEX
8
CONTOURS_MINEURES
10
8.640
20
61.362
0
VERTEX
8
CONTOURS_MINEURES
10
10.003
20
63.155
0
VERTEX
8
CONTOURS_MINEURES
10
11.064
20
64.995
0
VERTEX
8
CONTOURS_MINEURES
10
11.299
20
66.294
0
VERTEX
8
CONTOURS_MINEURES
10
11.003
20
70.003
0
VERTEX
8
CONTOURS_MINEURES
10
11.045
20
71.044
0
VERTEX
8
CONTOURS_MINEURES
10
11.610
20
74.999
0
VERTEX
8
CONTOURS_MINEURES
10
12.685
20
77.315
0
VERTEX
8
CONTOURS_MINEURES
10
13.550
20
79.996
0
VERTEX
8
CONTOURS_MINEURES
10
13.786
20
81.214
0
VERTEX
8
CONTOURS_MINEURES
10
15.002
20
81.955
0
VERTEX
8
CONTOURS_MINEURES
10
19.118
20
85.003
0
VERTEX
8
CONTOURS_MINEURES
10
19.348
20
85.655
0
VERTEX
8
CONTOURS_MINEURES
10
20.000
20
85.580
0
VERTEX
8
CONTOURS_MINEURES
10
20.326
20
85.329
0
VERTEX
8
CONTOURS_MINEURES
10
21.153
20
85.003
0
VERTEX
8
CONTOURS_MINEURES
10
24.998
20
83.215
0
VERTEX
8
CONTOURS_MINEURES
10
27.366
20
82.368
0
VERTEX
8
CONTOURS_MINEURES
10
29.997
20
81.426
0
VERTEX
8
CONTOURS_MINEURES
10
30.813
20
80.813
0
VERTEX
8
CONTOURS_MINEURES
10
31.535
20
79.996
0
VERTEX
8
CONTOURS_MINEURES
10
34.995
20
76.085
0
VERTEX
8
CONTOURS_MINEURES
10
35.859
20
74.999
0
VERTEX
8
CONTOURS_MINEURES
10
37.208
20
72.210
0
VERTEX
8
CONTOURS_MINEURES
10
38.961
20
70.003
0
VERTEX
8
CONTOURS_MINEURES
10
38.167
20
66.831
0
VERTEX
8
CONTOURS_MINEURES
10
38.554
20
64.995
0
VERTEX
8
CONTOURS_MINEURES
10
39.020
20
64.014
0
VERTEX
8
CONTOURS_MINEURES
10
39.415
20
59.999
0
VERTEX
8
CONTOURS_MINEURES
10
40.004
20
59.000
0
VERTEX
8
CONTOURS_MINEURES
10
42.003
20
57.001
0
VERTEX
8
CONTOURS_MINEURES
10
45.003
20
55.502
0
VERTEX
8
CONTOURS_MINEURES
10
45.647
20
55.002
0
VERTEX
8
CONTOURS_MINEURES
10
47.302
20
52.298
0
VERTEX
8
CONTOURS_MINEURES
10
48.967
20
49.995
0
VERTEX
8
CONTOURS_MINEURES
10
50.001
20
47.270
0
VERTEX
8
CONTOURS_MINEURES
10
50.533
20
45.530
0
VERTEX
8
CONTOURS_MINEURES
10
50.962
20
44.999
0
VERTEX
8
CONTOURS_MINEURES
10
54.166
20
40.835
0
VERTEX
8
CONTOURS_MINEURES
10
54.749
20
40.002
0
VERTEX
8
CONTOURS_MINEURES
10
54.999
20
39.668
0
VERTEX
8
CONTOURS_MINEURES
10
58.042
20
34.995
0
VERTEX
8
CONTOURS_MINEURES
10
59.998
20
33.590
0
VERTEX
8
CONTOURS_MINEURES
10
61.688
20
31.688
0
VERTEX
8
CONTOURS_MINEURES
10
63.023
20
29.998
0
VERTEX
8
CONTOURS_MINEURES
10
63.590
20
26.407
0
VERTEX
8
CONTOURS_MINEURES
10
63.950
20
25.002
0
VERTEX
8
CONTOURS_MINEURES
10
63.330
20
23.336
0
VERTEX
8
CONTOURS_MINEURES
10
62.305
20
20.006
0
VERTEX
8
CONTOURS_MINEURES
10
64.996
20
16.719
0
VERTEX
8
CONTOURS_MINEURES
10
68.237
20
14.998
0
VERTEX
8
CONTOURS_MINEURES
10
68.969
20
13.964
0
VERTEX
8
CONTOURS_MINEURES
10
70.005
20
13.333
0
VERTEX
8
CONTOURS_MINEURES
10
73.004
20
10.002
0
VERTEX
8
CONTOURS_MINEURES
10
73.951
20
8.950
0
VERTEX
8
CONTOURS_MINEURES
10
75.003
20
8.336
0
VERTEX
8
CONTOURS_MINEURES
10
76.293
20
5.005
0
VERTEX
8
CONTOURS_MINEURES
10
76.808
20
1.806
0
VERTEX
8
CONTOURS_MINEURES
10
76.943
20
-0.002
0
SEQEND
0
POLYLINE
8
CONTOURS_MINEURES
66
1
70
0
0
VERTEX
8
CONTOURS_MINEURES
10
-0.004
20
115.151
0
VERTEX
8
CONTOURS_MINEURES
10
0.234
20
115.004
0
VERTEX
8
CONTOURS_MINEURES
10
5.005
20
111.550
0
VERTEX
8
CONTOURS_MINEURES
10
5.905
20
110.897
0
VERTEX
8
CONTOURS_MINEURES
10
7.504
20
109.996
0
VERTEX
8
CONTOURS_MINEURES
10
10.003
20
108.197
0
VERTEX
8
CONTOURS_MINEURES
10
13.464
20
106.537
0
VERTEX
8
CONTOURS_MINEURES
10
15.002
20
105.714
0
VERTEX
8
CONTOURS_MINEURES
10
15.590
20
105.588
0
VERTEX
8
CONTOURS_MINEURES
10
16.668
20
105.000
0
VERTEX
8
CONTOURS_MINEURES
10
20.000
20
103.621
0
VERTEX
8
CONTOURS_MINEURES
10
22.856
20
102.145
0
VERTEX
8
CONTOURS_MINEURES
10
24.998
20
101.431
0
VERTEX
8
CONTOURS_MINEURES
10
25.696
20
100.700
0
VERTEX
8
CONTOURS_MINEURES
10
26.998
20
100.003
0
VERTEX
8
CONTOURS_MINEURES
10
28.900
20
98.904
0
VERTEX
8
CONTOURS_MINEURES
10
29.997
20
98.270
0
VERTEX
8
CONTOURS_MINEURES
10
31.304
20
96.306
0
VERTEX
8
CONTOURS_MINEURES
10
33.144
20
94.996
0
VERTEX
8
CONTOURS_MINEURES
10
34.995
20
93.330
0
VERTEX
8
CONTOURS_MINEURES
10
36.121
20
91.122
0
VERTEX
8
CONTOURS_MINEURES
10
36.885
20
89.999
0
VERTEX
8
CONTOURS_MINEURES
10
38.207
20
88.207
0
VERTEX
8
CONTOURS_MINEURES
10
40.004
20
85.660
0
VERTEX
8
CONTOURS_MINEURES
10
40.309
20
85.308
0
VERTEX
8
CONTOURS_MINEURES
10
40.407
20
85.003
0
VERTEX
8
CONTOURS_MINEURES
10
40.866
20
84.140
0
VERTEX
8
CONTOURS_MINEURES
10
43.036
20
79.996
0
VERTEX
8
CONTOURS_MINEURES
10
43.803
20
78.796
0
VERTEX
8
CONTOURS_MINEURES
10
45.003
20
77.444
0
VERTEX
8
CONTOURS_MINEURES
10
46.388
20
76.384
0
VERTEX
8
CONTOURS_MINEURES
10
46.799
20
74.999
0
VERTEX
8
CONTOURS_MINEURES
10
48.196
20
71.807
0
VERTEX
8
CONTOURS_MINEURES
10
49.111
20
70.003
0
VERTEX
8
CONTOURS_MINEURES
10
49.157
20
69.157
0
VERTEX
8
CONTOURS_MINEURES
10
50.001
20
67.968
0
VERTEX
8
CONTOURS_MINEURES
10
51.900
20
64.995
0
VERTEX
8
CONTOURS_MINEURES
10
52.721
20
62.718
0
VERTEX
8
CONTOURS_MINEURES
10
54.021
20
59.999
0
VERTEX
8
CONTOURS_MINEURES
10
54.999
20
58.875
0
VERTEX
8
CONTOURS_MINEURES
10
59.077
20
55.002
0
VERTEX
8
CONTOURS_MINEURES
10
59.459
20
54.463
0
VERTEX
8
CONTOURS_MINEURES
10
59.998
20
53.542
0
VERTEX
8
CONTOURS_MINEURES
10
62.913
20
52.081
0
VERTEX
8
CONTOURS_MINEURES
10
64.996
20
51.468
0
VERTEX
8
CONTOURS_MINEURES
10
70.005
20
55.002
0
VERTEX
8
CONTOURS_MINEURES
10
73.754
20
49.995
0
VERTEX
8
CONTOURS_MINEURES
10
74.214
20
49.206
0
VERTEX
8
CONTOURS_MINEURES
10
75.003
20
49.314
0
VERTEX
8
CONTOURS_MINEURES
10
78.395
20
44.999
0
VERTEX
8
CONTOURS_MINEURES
10
77.503
20
42.500
0
VERTEX
8
CONTOURS_MINEURES
10
78.064
20
40.002
0
VERTEX
8
CONTOURS_MINEURES
10
78.102
20
38.099
0
VERTEX
8
CONTOURS_MINEURES
10
80.002
20
36.197
0
VERTEX
8
CONTOURS_MINEURES
10
83.001
20
37.999
0
VERTEX
8
CONTOURS_MINEURES
10
85.000
20
37.498
0
VERTEX
8
CONTOURS_MINEURES
10
87.222
20
37.777
0
VERTEX
8
CONTOURS_MINEURES
10
89.999
20
36.664
0
VERTEX
8
CONTOURS_MINEURES
10
90.960
20
35.958
0
VERTEX
8
CONTOURS_MINEURES
10
92.498
20
34.995
0
VERTEX
8
CONTOURS_MINEURES
10
94.997
20
32.913
0
VERTEX
8
CONTOURS_MINEURES
10
96.941
20
31.941
0
VERTEX
8
CONTOURS_MINEURES
10
99.995
20
30.415
0
VERTEX
8
CONTOURS_MINEURES
10
100.552
20
29.998
0
VERTEX
8
CONTOURS_MINEURES
10
103.463
20
28.461
0
VERTEX
8
CONTOURS_MINEURES
10
105.004
20
27.778
0
VERTEX
8
CONTOURS_MINEURES
10
106.617
20
26.614
0
VERTEX
8
CONTOURS_MINEURES
10
110.003
20
25.229
0
VERTEX
8
CONTOURS_MINEURES
10
110.457
20
25.002
0
VERTEX
8
CONTOURS_MINEURES
10
110.457
20
20.460
0
VERTEX
8
CONTOURS_MINEURES
10
110.502
20
20.006
0
VERTEX
8
CONTOURS_MINEURES
10
115.001
20
17.355
0
VERTEX
8
CONTOURS_MINEURES
10
116.539
20
16.539
0
VERTEX
8
CONTOURS_MINEURES
10
118.636
20
14.998
0
VERTEX
8
CONTOURS_MINEURES
10
118.333
20
11.667
0
VERTEX
8
CONTOURS_MINEURES
10
118.823
20
10.002
0
VERTEX
8
CONTOURS_MINEURES
10
119.166
20
9.169
0
VERTEX
8
CONTOURS_MINEURES
10
119.999
20
8.003
0
VERTEX
8
CONTOURS_MINEURES
10
121.499
20
6.504
0
VERTEX
8
CONTOURS_MINEURES
10
121.999
20
5.005
0
VERTEX
8
CONTOURS_MINEURES
10
123.498
20
3.503
0
VERTEX
8
CONTOURS_MINEURES
10
124.998
20
2.001
0
VERTEX
8
CONTOURS_MINEURES
10
126.762
20
-0.002
0
SEQEND
0
POLYLINE
8
CONTOURS_MINEURES
66
1
70
0
0
VERTEX
8
CONTOURS_MINEURES
10
230.594
20
74.999
0
VERTEX
8
CONTOURS_MINEURES
10
229.996
20
74.480
0
VERTEX
8
CONTOURS_MINEURES
10
229.179
20
74.183
0
VERTEX
8
CONTOURS_MINEURES
10
224.997
20
72.771
0
VERTEX
8
CONTOURS_MINEURES
10
222.498
20
74.999
0
VERTEX
8
CONTOURS_MINEURES
10
222.944
20
77.943
0
VERTEX
8
CONTOURS_MINEURES
10
222.123
20
79.996
0
VERTEX
8
CONTOURS_MINEURES
10
224.336
20
80.657
0
VERTEX
8
CONTOURS_MINEURES
10
224.997
20
81.082
0
VERTEX
8
CONTOURS_MINEURES
10
226.416
20
81.417
0
VERTEX
8
CONTOURS_MINEURES
10
229.103
20
79.996
0
VERTEX
8
CONTOURS_MINEURES
10
229.996
20
78.074
0
VERTEX
8
CONTOURS_MINEURES
10
230.594
20
74.999
0
SEQEND
0
POLYLINE
8
CONTOURS_MINEURES
66
1
70
0
0
VERTEX
8
CONTOURS_MINEURES
10
-0.004
20
155.712
0
VERTEX
8
CONTOURS_MINEURES
10
0.451
20
155.452
0
VERTEX
8
CONTOURS_MINEURES
10
5.005
20
157.223
0
VERTEX
8
CONTOURS_MINEURES
10
7.945
20
157.059
0
VERTEX
8
CONTOURS_MINEURES
10
10.003
20
155.998
0
VERTEX
8
CONTOURS_MINEURES
10
11.210
20
154.997
0
VERTEX
8
CONTOURS_MINEURES
10
13.891
20
151.111
0
VERTEX
8
CONTOURS_MINEURES
10
14.288
20
150.001
0
VERTEX
8
CONTOURS_MINEURES
10
14.288
20
149.287
0
VERTEX
8
CONTOURS_MINEURES
10
15.002
20
148.335
0
VERTEX
8
CONTOURS_MINEURES
10
15.668
20
145.670
0
VERTEX
8
CONTOURS_MINEURES
10
16.054
20
145.004
0
VERTEX
8
CONTOURS_MINEURES
10
17.116
20
142.115
0
VERTEX
8
CONTOURS_MINEURES
10
18.236
20
139.997
0
VERTEX
8
CONTOURS_MINEURES
10
18.750
20
138.748
0
VERTEX
8
CONTOURS_MINEURES
10
20.000
20
137.498
0
VERTEX
8
CONTOURS_MINEURES
10
20.417
20
135.417
0
VERTEX
8
CONTOURS_MINEURES
10
20.526
20
135.000
0
VERTEX
8
CONTOURS_MINEURES
10
20.967
20
134.033
0
VERTEX
8
CONTOURS_MINEURES
10
22.499
20
130.004
0
VERTEX
8
CONTOURS_MINEURES
10
23.133
20
128.135
0
VERTEX
8
CONTOURS_MINEURES
10
24.998
20
125.533
0
VERTEX
8
CONTOURS_MINEURES
10
25.311
20
124.996
0
VERTEX
8
CONTOURS_MINEURES
10
26.737
20
121.738
0
VERTEX
8
CONTOURS_MINEURES
10
27.788
20
120.000
0
VERTEX
8
CONTOURS_MINEURES
10
28.440
20
118.444
0
VERTEX
8
CONTOURS_MINEURES
10
29.997
20
116.203
0
VERTEX
8
CONTOURS_MINEURES
10
30.830
20
115.004
0
VERTEX
8
CONTOURS_MINEURES
10
32.652
20
112.656
0
VERTEX
8
CONTOURS_MINEURES
10
33.773
20
109.996
0
VERTEX
8
CONTOURS_MINEURES
10
34.995
20
107.882
0
VERTEX
8
CONTOURS_MINEURES
10
37.419
20
107.417
0
VERTEX
8
CONTOURS_MINEURES
10
37.500
20
105.000
0
VERTEX
8
CONTOURS_MINEURES
10
38.883
20
103.881
0
VERTEX
8
CONTOURS_MINEURES
10
40.004
20
100.316
0
VERTEX
8
CONTOURS_MINEURES
10
44.169
20
105.000
0
VERTEX
8
CONTOURS_MINEURES
10
44.213
20
105.789
0
VERTEX
8
CONTOURS_MINEURES
10
44.447
20
109.996
0
VERTEX
8
CONTOURS_MINEURES
10
44.447
20
114.447
0
VERTEX
8
CONTOURS_MINEURES
10
44.526
20
115.004
0
VERTEX
8
CONTOURS_MINEURES
10
44.447
20
115.559
0
VERTEX
8
CONTOURS_MINEURES
10
44.213
20
120.000
0
VERTEX
8
CONTOURS_MINEURES
10
44.253
20
120.749
0
VERTEX
8
CONTOURS_MINEURES
10
45.003
20
123.747
0
VERTEX
8
CONTOURS_MINEURES
10
45.280
20
124.719
0
VERTEX
8
CONTOURS_MINEURES
10
45.419
20
124.996
0
VERTEX
8
CONTOURS_MINEURES
10
48.105
20
126.896
0
VERTEX
8
CONTOURS_MINEURES
10
50.001
20
128.057
0
VERTEX
8
CONTOURS_MINEURES
10
51.591
20
128.411
0
VERTEX
8
CONTOURS_MINEURES
10
54.999
20
129.415
0
VERTEX
8
CONTOURS_MINEURES
10
57.498
20
130.004
0
VERTEX
8
CONTOURS_MINEURES
10
59.998
20
130.361
0
VERTEX
8
CONTOURS_MINEURES
10
64.479
20
130.521
0
VERTEX
8
CONTOURS_MINEURES
10
64.996
20
130.656
0
VERTEX
8
CONTOURS_MINEURES
10
65.679
20
130.685
0
VERTEX
8
CONTOURS_MINEURES
10
68.753
20
130.004
0
VERTEX
8
CONTOURS_MINEURES
10
70.005
20
129.726
0
VERTEX
8
CONTOURS_MINEURES
10
70.422
20
129.587
0
VERTEX
8
CONTOURS_MINEURES
10
75.003
20
128.669
0
VERTEX
8
CONTOURS_MINEURES
10
78.440
20
128.439
0
VERTEX
8
CONTOURS_MINEURES
10
80.002
20
126.874
0
VERTEX
8
CONTOURS_MINEURES
10
83.001
20
124.996
0
VERTEX
8
CONTOURS_MINEURES
10
83.572
20
123.569
0
VERTEX
8
CONTOURS_MINEURES
10
85.000
20
122.998
0
VERTEX
8
CONTOURS_MINEURES
10
86.875
20
121.874
0
VERTEX
8
CONTOURS_MINEURES
10
89.999
20
122.915
0
VERTEX
8
CONTOURS_MINEURES
10
92.498
20
122.498
0
VERTEX
8
CONTOURS_MINEURES
10
94.997
20
120.757
0
VERTEX
8
CONTOURS_MINEURES
10
95.443
20
120.446
0
VERTEX
8
CONTOURS_MINEURES
10
97.496
20
120.000
0
VERTEX
8
CONTOURS_MINEURES
10
99.354
20
119.359
0
VERTEX
8
CONTOURS_MINEURES
10
99.995
20
119.243
0
VERTEX
8
CONTOURS_MINEURES
10
101.084
20
118.914
0
VERTEX
8
CONTOURS_MINEURES
10
105.004
20
118.601
0
VERTEX
8
CONTOURS_MINEURES
10
108.892
20
116.114
0
VERTEX
8
CONTOURS_MINEURES
10
110.003
20
115.530
0
VERTEX
8
CONTOURS_MINEURES
10
110.297
20
115.298
0
VERTEX
8
CONTOURS_MINEURES
10
110.558
20
115.004
0
VERTEX
8
CONTOURS_MINEURES
10
115.001
20
109.996
0
VERTEX
8
CONTOURS_MINEURES
10
118.333
20
108.331
0
VERTEX
8
CONTOURS_MINEURES
10
119.999
20
107.629
0
VERTEX
8
CONTOURS_MINEURES
10
122.811
20
107.186
0
VERTEX
8
CONTOURS_MINEURES
10
124.998
20
106.943
0
VERTEX
8
CONTOURS_MINEURES
10
126.519
20
106.520
0
VERTEX
8
CONTOURS_MINEURES
10
129.996
20
105.294
0
VERTEX
8
CONTOURS_MINEURES
10
130.998
20
105.000
0
VERTEX
8
CONTOURS_MINEURES
10
135.005
20
102.145
0
VERTEX
8
CONTOURS_MINEURES
10
137.504
20
100.003
0
VERTEX
8
CONTOURS_MINEURES
10
138.337
20
98.334
0
VERTEX
8
CONTOURS_MINEURES
10
140.004
20
96.248
0
VERTEX
8
CONTOURS_MINEURES
10
140.559
20
95.552
0
VERTEX
8
CONTOURS_MINEURES
10
145.002
20
96.922
0
VERTEX
8
CONTOURS_MINEURES
10
149.001
20
95.997
0
VERTEX
8
CONTOURS_MINEURES
10
150.000
20
95.622
0
VERTEX
8
CONTOURS_MINEURES
10
150.556
20
94.996
0
VERTEX
8
CONTOURS_MINEURES
10
150.714
20
94.282
0
VERTEX
8
CONTOURS_MINEURES
10
150.714
20
89.999
0
VERTEX
8
CONTOURS_MINEURES
10
152.142
20
87.144
0
VERTEX
8
CONTOURS_MINEURES
10
154.999
20
85.717
0
VERTEX
8
CONTOURS_MINEURES
10
156.248
20
85.003
0
VERTEX
8
CONTOURS_MINEURES
10
158.331
20
81.665
0
VERTEX
8
CONTOURS_MINEURES
10
159.442
20
79.996
0
VERTEX
8
CONTOURS_MINEURES
10
159.997
20
78.330
0
VERTEX
8
CONTOURS_MINEURES
10
160.997
20
74.999
0
VERTEX
8
CONTOURS_MINEURES
10
159.997
20
73.889
0
VERTEX
8
CONTOURS_MINEURES
10
159.409
20
74.411
0
VERTEX
8
CONTOURS_MINEURES
10
154.999
20
74.687
0
VERTEX
8
CONTOURS_MINEURES
10
151.053
20
73.947
0
VERTEX
8
CONTOURS_MINEURES
10
150.000
20
73.462
0
VERTEX
8
CONTOURS_MINEURES
10
146.540
20
70.003
0
VERTEX
8
CONTOURS_MINEURES
10
146.113
20
68.890
0
VERTEX
8
CONTOURS_MINEURES
10
145.884
20
64.995
0
VERTEX
8
CONTOURS_MINEURES
10
148.001
20
61.997
0
VERTEX
8
CONTOURS_MINEURES
10
148.751
20
59.999
0
VERTEX
8
CONTOURS_MINEURES
10
149.001
20
59.000
0
VERTEX
8
CONTOURS_MINEURES
10
149.001
20
55.002
0
VERTEX
8
CONTOURS_MINEURES
10
149.334
20
54.335
0
VERTEX
8
CONTOURS_MINEURES
10
150.000
20
49.995
0
VERTEX
8
CONTOURS_MINEURES
10
148.824
20
46.174
0
VERTEX
8
CONTOURS_MINEURES
10
149.001
20
44.999
0
VERTEX
8
CONTOURS_MINEURES
10
148.890
20
43.888
0
VERTEX
8
CONTOURS_MINEURES
10
148.890
20
40.002
0
VERTEX
8
CONTOURS_MINEURES
10
148.890
20
36.108
0
VERTEX
8
CONTOURS_MINEURES
10
148.751
20
34.995
0
VERTEX
8
CONTOURS_MINEURES
10
146.716
20
33.282
0
VERTEX
8
CONTOURS_MINEURES
10
145.002
20
30.712
0
VERTEX
8
CONTOURS_MINEURES
10
144.632
20
30.368
0
VERTEX
8
CONTOURS_MINEURES
10
144.476
20
29.998
0
VERTEX
8
CONTOURS_MINEURES
10
144.502
20
29.499
0
VERTEX
8
CONTOURS_MINEURES
10
144.739
20
25.002
0
VERTEX
8
CONTOURS_MINEURES
10
145.002
20
24.003
0
VERTEX
8
CONTOURS_MINEURES
10
146.113
20
20.006
0
VERTEX
8
CONTOURS_MINEURES
10
145.911
20
19.095
0
VERTEX
8
CONTOURS_MINEURES
10
145.002
20
18.893
0
VERTEX
8
CONTOURS_MINEURES
10
142.410
20
14.998
0
VERTEX
8
CONTOURS_MINEURES
10
142.410
20
12.407
0
VERTEX
8
CONTOURS_MINEURES
10
141.973
20
10.002
0
VERTEX
8
CONTOURS_MINEURES
10
142.100
20
7.906
0
VERTEX
8
CONTOURS_MINEURES
10
142.100
20
5.005
0
VERTEX
8
CONTOURS_MINEURES
10
141.899
20
1.897
0
VERTEX
8
CONTOURS_MINEURES
10
143.669
20
-0.002
0
SEQEND
0
POLYLINE
8
CONTOURS_MINEURES
66
1
70
0
0
VERTEX
8
CONTOURS_MINEURES
10
-0.004
20
142.728
0
VERTEX
8
CONTOURS_MINEURES
10
4.289
20
144.289
0
VERTEX
8
CONTOURS_MINEURES
10
5.005
20
144.503
0
VERTEX
8
CONTOURS_MINEURES
10
5.232
20
144.777
0
VERTEX
8
CONTOURS_MINEURES
10
5.389
20
145.004
0
VERTEX
8
CONTOURS_MINEURES
10
5.389
20
145.388
0
VERTEX
8
CONTOURS_MINEURES
10
5.005
20
145.559
0
VERTEX
8
CONTOURS_MINEURES
10
1.362
20
150.001
0
VERTEX
8
CONTOURS_MINEURES
10
-0.004
20
153.748
0
SEQEND
0
POLYLINE
8
CONTOURS_MINEURES
66
1
70
0
0
VERTEX
8
CONTOURS_MINEURES
10
238.099
20
85.003
0
VERTEX
8
CONTOURS_MINEURES
10
238.254
20
81.748
0
VERTEX
8
CONTOURS_MINEURES
10
238.989
20
79.996
0
VERTEX
8
CONTOURS_MINEURES
10
238.731
20
78.724
0
VERTEX
8
CONTOURS_MINEURES
10
237.096
20
74.999
0
VERTEX
8
CONTOURS_MINEURES
10
236.112
20
73.892
0
VERTEX
8
CONTOURS_MINEURES
10
235.005
20
72.723
0
VERTEX
8
CONTOURS_MINEURES
10
231.937
20
70.003
0
VERTEX
8
CONTOURS_MINEURES
10
230.796
20
69.203
0
VERTEX
8
CONTOURS_MINEURES
10
229.996
20
68.940
0
VERTEX
8
CONTOURS_MINEURES
10
228.775
20
68.780
0
VERTEX
8
CONTOURS_MINEURES
10
224.997
20
68.097
0
VERTEX
8
CONTOURS_MINEURES
10
221.264
20
70.003
0
VERTEX
8
CONTOURS_MINEURES
10
219.999
20
71.151
0
VERTEX
8
CONTOURS_MINEURES
10
217.736
20
74.999
0
VERTEX
8
CONTOURS_MINEURES
10
217.469
20
77.467
0
VERTEX
8
CONTOURS_MINEURES
10
217.056
20
79.996
0
VERTEX
8
CONTOURS_MINEURES
10
218.372
20
81.625
0
VERTEX
8
CONTOURS_MINEURES
10
219.999
20
83.097
0
VERTEX
8
CONTOURS_MINEURES
10
221.464
20
83.535
0
VERTEX
8
CONTOURS_MINEURES
10
223.748
20
85.003
0
VERTEX
8
CONTOURS_MINEURES
10
224.649
20
85.351
0
VERTEX
8
CONTOURS_MINEURES
10
224.997
20
85.497
0
VERTEX
8
CONTOURS_MINEURES
10
228.930
20
86.068
0
VERTEX
8
CONTOURS_MINEURES
10
229.996
20
86.709
0
VERTEX
8
CONTOURS_MINEURES
10
232.593
20
87.594
0
VERTEX
8
CONTOURS_MINEURES
10
235.005
20
87.002
0
VERTEX
8
CONTOURS_MINEURES
10
238.099
20
85.003
0
SEQEND
0
POLYLINE
8
CONTOURS_MINEURES
66
1
70
0
0
VERTEX
8
CONTOURS_MINEURES
10
45.408
20
100.003
0
VERTEX
8
CONTOURS_MINEURES
10
45.408
20
100.408
0
VERTEX
8
CONTOURS_MINEURES
10
45.003
20
102.502
0
VERTEX
8
CONTOURS_MINEURES
10
41.254
20
100.003
0
VERTEX
8
CONTOURS_MINEURES
10
45.003
20
98.751
0
VERTEX
8
CONTOURS_MINEURES
10
45.408
20
100.003
0
SEQEND
0
POLYLINE
8
CONTOURS_MINEURES
66
1
70
0
0
VERTEX
8
CONTOURS_MINEURES
10
58.331
20
210.002
0
VERTEX
8
CONTOURS_MINEURES
10
59.998
20
209.617
0
VERTEX
8
CONTOURS_MINEURES
10
62.854
20
207.860
0
VERTEX
8
CONTOURS_MINEURES
10
64.996
20
206.790
0
VERTEX
8
CONTOURS_MINEURES
10
67.501
20
205.005
0
VERTEX
8
CONTOURS_MINEURES
10
67.083
20
202.919
0
VERTEX
8
CONTOURS_MINEURES
10
67.083
20
199.998
0
VERTEX
8
CONTOURS_MINEURES
10
66.499
20
196.500
0
VERTEX
8
CONTOURS_MINEURES
10
66.248
20
195.001
0
VERTEX
8
CONTOURS_MINEURES
10
66.666
20
193.336
0
VERTEX
8
CONTOURS_MINEURES
10
66.248
20
190.005
0
VERTEX
8
CONTOURS_MINEURES
10
67.501
20
187.501
0
VERTEX
8
CONTOURS_MINEURES
10
68.753
20
184.998
0
VERTEX
8
CONTOURS_MINEURES
10
69.170
20
184.165
0
VERTEX
8
CONTOURS_MINEURES
10
70.005
20
183.332
0
VERTEX
8
CONTOURS_MINEURES
10
72.004
20
180.001
0
VERTEX
8
CONTOURS_MINEURES
10
71.823
20
178.184
0
VERTEX
8
CONTOURS_MINEURES
10
70.005
20
177.146
0
VERTEX
8
CONTOURS_MINEURES
10
68.849
20
176.158
0
VERTEX
8
CONTOURS_MINEURES
10
64.996
20
175.459
0
VERTEX
8
CONTOURS_MINEURES
10
64.702
20
175.299
0
VERTEX
8
CONTOURS_MINEURES
10
64.579
20
175.005
0
VERTEX
8
CONTOURS_MINEURES
10
64.542
20
174.549
0
VERTEX
8
CONTOURS_MINEURES
10
64.996
20
169.997
0
VERTEX
8
CONTOURS_MINEURES
10
67.501
20
172.501
0
VERTEX
8
CONTOURS_MINEURES
10
70.005
20
171.249
0
VERTEX
8
CONTOURS_MINEURES
10
72.504
20
169.997
0
VERTEX
8
CONTOURS_MINEURES
10
74.740
20
169.734
0
VERTEX
8
CONTOURS_MINEURES
10
75.003
20
169.373
0
VERTEX
8
CONTOURS_MINEURES
10
76.003
20
165.001
0
VERTEX
8
CONTOURS_MINEURES
10
77.190
20
162.815
0
VERTEX
8
CONTOURS_MINEURES
10
77.503
20
160.004
0
VERTEX
8
CONTOURS_MINEURES
10
77.860
20
157.858
0
VERTEX
8
CONTOURS_MINEURES
10
79.002
20
154.997
0
VERTEX
8
CONTOURS_MINEURES
10
80.002
20
154.283
0
VERTEX
8
CONTOURS_MINEURES
10
81.073
20
153.926
0
VERTEX
8
CONTOURS_MINEURES
10
85.000
20
151.896
0
VERTEX
8
CONTOURS_MINEURES
10
89.284
20
150.714
0
VERTEX
8
CONTOURS_MINEURES
10
89.999
20
150.417
0
VERTEX
8
CONTOURS_MINEURES
10
90.311
20
150.313
0
VERTEX
8
CONTOURS_MINEURES
10
94.997
20
150.109
0
VERTEX
8
CONTOURS_MINEURES
10
99.995
20
150.001
0
VERTEX
8
CONTOURS_MINEURES
10
105.004
20
148.184
0
VERTEX
8
CONTOURS_MINEURES
10
109.378
20
145.004
0
VERTEX
8
CONTOURS_MINEURES
10
109.503
20
144.503
0
VERTEX
8
CONTOURS_MINEURES
10
109.094
20
139.997
0
VERTEX
8
CONTOURS_MINEURES
10
110.003
20
137.498
0
VERTEX
8
CONTOURS_MINEURES
10
111.252
20
135.000
0
VERTEX
8
CONTOURS_MINEURES
10
115.001
20
132.859
0
VERTEX
8
CONTOURS_MINEURES
10
116.601
20
131.603
0
VERTEX
8
CONTOURS_MINEURES
10
117.000
20
130.004
0
VERTEX
8
CONTOURS_MINEURES
10
118.775
20
128.778
0
VERTEX
8
CONTOURS_MINEURES
10
119.999
20
128.183
0
VERTEX
8
CONTOURS_MINEURES
10
123.156
20
126.841
0
VERTEX
8
CONTOURS_MINEURES
10
124.998
20
126.092
0
VERTEX
8
CONTOURS_MINEURES
10
127.904
20
127.093
0
VERTEX
8
CONTOURS_MINEURES
10
129.996
20
127.728
0
VERTEX
8
CONTOURS_MINEURES
10
132.680
20
130.004
0
VERTEX
8
CONTOURS_MINEURES
10
135.005
20
131.759
0
VERTEX
8
CONTOURS_MINEURES
10
137.732
20
132.275
0
VERTEX
8
CONTOURS_MINEURES
10
140.004
20
131.854
0
VERTEX
8
CONTOURS_MINEURES
10
143.472
20
131.533
0
VERTEX
8
CONTOURS_MINEURES
10
145.002
20
132.086
0
VERTEX
8
CONTOURS_MINEURES
10
148.572
20
133.573
0
VERTEX
8
CONTOURS_MINEURES
10
150.000
20
133.638
0
VERTEX
8
CONTOURS_MINEURES
10
153.199
20
133.202
0
VERTEX
8
CONTOURS_MINEURES
10
154.999
20
133.045
0
VERTEX
8
CONTOURS_MINEURES
10
156.554
20
131.558
0
VERTEX
8
CONTOURS_MINEURES
10
158.331
20
130.004
0
VERTEX
8
CONTOURS_MINEURES
10
158.747
20
128.752
0
VERTEX
8
CONTOURS_MINEURES
10
159.997
20
127.667
0
VERTEX
8
CONTOURS_MINEURES
10
161.049
20
124.996
0
VERTEX
8
CONTOURS_MINEURES
10
162.102
20
122.893
0
VERTEX
8
CONTOURS_MINEURES
10
163.378
20
120.000
0
VERTEX
8
CONTOURS_MINEURES
10
163.917
20
118.922
0
VERTEX
8
CONTOURS_MINEURES
10
164.995
20
117.252
0
VERTEX
8
CONTOURS_MINEURES
10
165.975
20
115.004
0
VERTEX
8
CONTOURS_MINEURES
10
166.916
20
111.916
0
VERTEX
8
CONTOURS_MINEURES
10
168.596
20
109.996
0
VERTEX
8
CONTOURS_MINEURES
10
170.004
20
106.998
0
VERTEX
8
CONTOURS_MINEURES
10
170.560
20
105.555
0
VERTEX
8
CONTOURS_MINEURES
10
170.861
20
105.000
0
VERTEX
8
CONTOURS_MINEURES
10
170.739
20
100.738
0
VERTEX
8
CONTOURS_MINEURES
10
171.195
20
100.003
0
VERTEX
8
CONTOURS_MINEURES
10
175.003
20
96.188
0
VERTEX
8
CONTOURS_MINEURES
10
175.493
20
95.487
0
VERTEX
8
CONTOURS_MINEURES
10
176.089
20
94.996
0
VERTEX
8
CONTOURS_MINEURES
10
180.001
20
91.665
0
VERTEX
8
CONTOURS_MINEURES
10
182.143
20
89.999
0
VERTEX
8
CONTOURS_MINEURES
10
183.723
20
88.724
0
VERTEX
8
CONTOURS_MINEURES
10
185.000
20
87.858
0
VERTEX
8
CONTOURS_MINEURES
10
186.289
20
85.003
0
VERTEX
8
CONTOURS_MINEURES
10
186.289
20
81.288
0
VERTEX
8
CONTOURS_MINEURES
10
188.477
20
79.996
0
VERTEX
8
CONTOURS_MINEURES
10
189.998
20
78.247
0
VERTEX
8
CONTOURS_MINEURES
10
192.823
20
74.999
0
VERTEX
8
CONTOURS_MINEURES
10
191.664
20
71.668
0
VERTEX
8
CONTOURS_MINEURES
10
191.468
20
70.003
0
VERTEX
8
CONTOURS_MINEURES
10
190.860
20
69.139
0
VERTEX
8
CONTOURS_MINEURES
10
189.998
20
67.916
0
VERTEX
8
CONTOURS_MINEURES
10
188.540
20
66.456
0
VERTEX
8
CONTOURS_MINEURES
10
185.000
20
65.746
0
VERTEX
8
CONTOURS_MINEURES
10
182.857
20
64.995
0
VERTEX
8
CONTOURS_MINEURES
10
180.953
20
64.044
0
VERTEX
8
CONTOURS_MINEURES
10
180.001
20
64.163
0
VERTEX
8
CONTOURS_MINEURES
10
175.241
20
59.999
0
VERTEX
8
CONTOURS_MINEURES
10
176.252
20
58.750
0
VERTEX
8
CONTOURS_MINEURES
10
178.127
20
55.002
0
VERTEX
8
CONTOURS_MINEURES
10
177.859
20
52.856
0
VERTEX
8
CONTOURS_MINEURES
10
180.001
20
49.995
0
VERTEX
8
CONTOURS_MINEURES
10
182.500
20
44.999
0
VERTEX
8
CONTOURS_MINEURES
10
180.001
20
41.001
0
VERTEX
8
CONTOURS_MINEURES
10
179.668
20
40.002
0
VERTEX
8
CONTOURS_MINEURES
10
177.502
20
37.498
0
VERTEX
8
CONTOURS_MINEURES
10
175.628
20
34.995
0
VERTEX
8
CONTOURS_MINEURES
10
175.003
20
32.996
0
VERTEX
8
CONTOURS_MINEURES
10
174.351
20
30.650
0
VERTEX
8
CONTOURS_MINEURES
10
174.289
20
29.998
0
VERTEX
8
CONTOURS_MINEURES
10
174.253
20
29.249
0
VERTEX
8
CONTOURS_MINEURES
10
175.003
20
27.000
0
VERTEX
8
CONTOURS_MINEURES
10
175.591
20
25.002
0
VERTEX
8
CONTOURS_MINEURES
10
175.003
20
23.892
0
VERTEX
8
CONTOURS_MINEURES
10
173.545
20
21.463
0
VERTEX
8
CONTOURS_MINEURES
10
173.059
20
20.006
0
VERTEX
8
CONTOURS_MINEURES
10
172.295
20
17.710
0
VERTEX
8
CONTOURS_MINEURES
10
170.004
20
15.768
0
VERTEX
8
CONTOURS_MINEURES
10
169.659
20
15.343
0
VERTEX
8
CONTOURS_MINEURES
10
169.448
20
14.998
0
VERTEX
8
CONTOURS_MINEURES
10
169.670
20
14.665
0
VERTEX
8
CONTOURS_MINEURES
10
170.004
20
13.888
0
VERTEX
8
CONTOURS_MINEURES
10
171.754
20
11.750
0
VERTEX
8
CONTOURS_MINEURES
10
173.185
20
10.002
0
VERTEX
8
CONTOURS_MINEURES
10
174.378
20
5.630
0
VERTEX
8
CONTOURS_MINEURES
10
174.548
20
5.005
0
VERTEX
8
CONTOURS_MINEURES
10
174.670
20
4.671
0
VERTEX
8
CONTOURS_MINEURES
10
175.003
20
4.171
0
VERTEX
8
CONTOURS_MINEURES
10
177.275
20
2.274
0
VERTEX
8
CONTOURS_MINEURES
10
178.573
20
-0.002
0
SEQEND
0
POLYLINE
8
CONTOURS_MINEURES
66
1
70
0
0
VERTEX
8
CONTOURS_MINEURES
10
242.402
20
87.401
0
VERTEX
8
CONTOURS_MINEURES
10
242.821
20
85.003
0
VERTEX
8
CONTOURS_MINEURES
10
242.850
20
82.848
0
VERTEX
8
CONTOURS_MINEURES
10
242.577
20
79.996
0
VERTEX
8
CONTOURS_MINEURES
10
241.864
20
78.135
0
VERTEX
8
CONTOURS_MINEURES
10
241.146
20
74.999
0
VERTEX
8
CONTOURS_MINEURES
10
240.003
20
72.530
0
VERTEX
8
CONTOURS_MINEURES
10
238.814
20
71.191
0
VERTEX
8
CONTOURS_MINEURES
10
237.688
20
70.003
0
VERTEX
8
CONTOURS_MINEURES
10
236.522
20
68.483
0
VERTEX
8
CONTOURS_MINEURES
10
235.005
20
67.763
0
VERTEX
8
CONTOURS_MINEURES
10
233.378
20
66.621
0
VERTEX
8
CONTOURS_MINEURES
10
229.996
20
65.510
0
VERTEX
8
CONTOURS_MINEURES
10
226.049
20
64.995
0
VERTEX
8
CONTOURS_MINEURES
10
225.170
20
64.823
0
VERTEX
8
CONTOURS_MINEURES
10
224.997
20
64.803
0
VERTEX
8
CONTOURS_MINEURES
10
224.801
20
64.799
0
VERTEX
8
CONTOURS_MINEURES
10
224.497
20
64.995
0
VERTEX
8
CONTOURS_MINEURES
10
219.999
20
66.549
0
VERTEX
8
CONTOURS_MINEURES
10
216.296
20
70.003
0
VERTEX
8
CONTOURS_MINEURES
10
215.000
20
72.979
0
VERTEX
8
CONTOURS_MINEURES
10
214.060
20
74.059
0
VERTEX
8
CONTOURS_MINEURES
10
214.167
20
74.999
0
VERTEX
8
CONTOURS_MINEURES
10
214.182
20
75.818
0
VERTEX
8
CONTOURS_MINEURES
10
213.490
20
79.996
0
VERTEX
8
CONTOURS_MINEURES
10
215.000
20
81.840
0
VERTEX
8
CONTOURS_MINEURES
10
216.412
20
83.589
0
VERTEX
8
CONTOURS_MINEURES
10
217.975
20
85.003
0
VERTEX
8
CONTOURS_MINEURES
10
219.999
20
86.394
0
VERTEX
8
CONTOURS_MINEURES
10
222.600
20
87.399
0
VERTEX
8
CONTOURS_MINEURES
10
224.997
20
88.402
0
VERTEX
8
CONTOURS_MINEURES
10
226.393
20
88.605
0
VERTEX
8
CONTOURS_MINEURES
10
228.712
20
89.999
0
VERTEX
8
CONTOURS_MINEURES
10
229.996
20
90.673
0
VERTEX
8
CONTOURS_MINEURES
10
233.335
20
91.665
0
VERTEX
8
CONTOURS_MINEURES
10
235.005
20
92.539
0
VERTEX
8
CONTOURS_MINEURES
10
237.591
20
92.410
0
VERTEX
8
CONTOURS_MINEURES
10
240.003
20
93.232
0
VERTEX
8
CONTOURS_MINEURES
10
241.886
20
89.999
0
VERTEX
8
CONTOURS_MINEURES
10
242.402
20
87.401
0
SEQEND
0
POLYLINE
8
CONTOURS_MINEURES
66
1
70
0
0
VERTEX
8
CONTOURS_MINEURES
10
90.177
20
210.002
0
VERTEX
8
CONTOURS_MINEURES
10
90.276
20
209.724
0
VERTEX
8
CONTOURS_MINEURES
10
91.850
20
205.005
0
VERTEX
8
CONTOURS_MINEURES
10
92.818
20
202.823
0
VERTEX
8
CONTOURS_MINEURES
10
94.071
20
199.998
0
VERTEX
8
CONTOURS_MINEURES
10
94.997
20
198.213
0
VERTEX
8
CONTOURS_MINEURES
10
97.139
20
195.001
0
VERTEX
8
CONTOURS_MINEURES
10
98.060
20
193.067
0
VERTEX
8
CONTOURS_MINEURES
10
99.995
20
191.254
0
VERTEX
8
CONTOURS_MINEURES
10
100.830
20
190.838
0
VERTEX
8
CONTOURS_MINEURES
10
101.108
20
190.005
0
VERTEX
8
CONTOURS_MINEURES
10
104.002
20
185.999
0
VERTEX
8
CONTOURS_MINEURES
10
104.796
20
184.998
0
VERTEX
8
CONTOURS_MINEURES
10
104.853
20
184.846
0
VERTEX
8
CONTOURS_MINEURES
10
105.004
20
184.770
0
VERTEX
8
CONTOURS_MINEURES
10
107.286
20
182.282
0
VERTEX
8
CONTOURS_MINEURES
10
110.003
20
181.094
0
VERTEX
8
CONTOURS_MINEURES
10
111.752
20
180.001
0
VERTEX
8
CONTOURS_MINEURES
10
115.001
20
178.033
0
VERTEX
8
CONTOURS_MINEURES
10
117.500
20
177.503
0
VERTEX
8
CONTOURS_MINEURES
10
119.999
20
176.432
0
VERTEX
8
CONTOURS_MINEURES
10
123.075
20
175.005
0
VERTEX
8
CONTOURS_MINEURES
10
122.665
20
172.334
0
VERTEX
8
CONTOURS_MINEURES
10
123.407
20
169.997
0
VERTEX
8
CONTOURS_MINEURES
10
123.831
20
168.831
0
VERTEX
8
CONTOURS_MINEURES
10
124.421
20
165.001
0
VERTEX
8
CONTOURS_MINEURES
10
124.998
20
164.376
0
VERTEX
8
CONTOURS_MINEURES
10
129.371
20
160.004
0
VERTEX
8
CONTOURS_MINEURES
10
129.655
20
159.663
0
VERTEX
8
CONTOURS_MINEURES
10
129.996
20
159.379
0
VERTEX
8
CONTOURS_MINEURES
10
131.909
20
156.909
0
VERTEX
8
CONTOURS_MINEURES
10
132.626
20
154.997
0
VERTEX
8
CONTOURS_MINEURES
10
133.830
20
153.825
0
VERTEX
8
CONTOURS_MINEURES
10
135.005
20
153.660
0
VERTEX
8
CONTOURS_MINEURES
10
136.513
20
153.490
0
VERTEX
8
CONTOURS_MINEURES
10
140.004
20
152.715
0
VERTEX
8
CONTOURS_MINEURES
10
142.503
20
152.499
0
VERTEX
8
CONTOURS_MINEURES
10
145.002
20
152.283
0
VERTEX
8
CONTOURS_MINEURES
10
147.934
20
152.066
0
VERTEX
8
CONTOURS_MINEURES
10
150.000
20
152.066
0
VERTEX
8
CONTOURS_MINEURES
10
153.859
20
151.140
0
VERTEX
8
CONTOURS_MINEURES
10
154.999
20
151.250
0
VERTEX
8
CONTOURS_MINEURES
10
157.319
20
150.001
0
VERTEX
8
CONTOURS_MINEURES
10
158.682
20
148.686
0
VERTEX
8
CONTOURS_MINEURES
10
159.997
20
147.003
0
VERTEX
8
CONTOURS_MINEURES
10
161.108
20
145.004
0
VERTEX
8
CONTOURS_MINEURES
10
162.663
20
142.667
0
VERTEX
8
CONTOURS_MINEURES
10
164.873
20
139.997
0
VERTEX
8
CONTOURS_MINEURES
10
164.995
20
139.841
0
VERTEX
8
CONTOURS_MINEURES
10
166.564
20
136.565
0
VERTEX
8
CONTOURS_MINEURES
10
167.182
20
135.000
0
VERTEX
8
CONTOURS_MINEURES
10
169.309
20
130.698
0
VERTEX
8
CONTOURS_MINEURES
10
169.587
20
130.004
0
VERTEX
8
CONTOURS_MINEURES
10
169.670
20
129.670
0
VERTEX
8
CONTOURS_MINEURES
10
170.004
20
129.002
0
VERTEX
8
CONTOURS_MINEURES
10
170.930
20
125.924
0
VERTEX
8
CONTOURS_MINEURES
10
171.433
20
124.996
0
VERTEX
8
CONTOURS_MINEURES
10
172.316
20
122.310
0
VERTEX
8
CONTOURS_MINEURES
10
173.416
20
120.000
0
VERTEX
8
CONTOURS_MINEURES
10
173.798
20
118.796
0
VERTEX
8
CONTOURS_MINEURES
10
175.003
20
116.554
0
VERTEX
8
CONTOURS_MINEURES
10
175.664
20
115.004
0
VERTEX
8
CONTOURS_MINEURES
10
177.344
20
112.342
0
VERTEX
8
CONTOURS_MINEURES
10
179.729
20
109.996
0
VERTEX
8
CONTOURS_MINEURES
10
180.001
20
109.497
0
VERTEX
8
CONTOURS_MINEURES
10
181.351
20
106.349
0
VERTEX
8
CONTOURS_MINEURES
10
182.250
20
105.000
0
VERTEX
8
CONTOURS_MINEURES
10
183.104
20
103.105
0
VERTEX
8
CONTOURS_MINEURES
10
185.000
20
100.003
0
VERTEX
8
CONTOURS_MINEURES
10
186.107
20
96.106
0
VERTEX
8
CONTOURS_MINEURES
10
186.666
20
94.996
0
VERTEX
8
CONTOURS_MINEURES
10
187.587
20
92.586
0
VERTEX
8
CONTOURS_MINEURES
10
189.581
20
89.999
0
VERTEX
8
CONTOURS_MINEURES
10
189.998
20
89.355
0
VERTEX
8
CONTOURS_MINEURES
10
192.247
20
87.251
0
VERTEX
8
CONTOURS_MINEURES
10
194.996
20
85.877
0
VERTEX
8
CONTOURS_MINEURES
10
196.590
20
85.003
0
VERTEX
8
CONTOURS_MINEURES
10
198.317
20
83.315
0
VERTEX
8
CONTOURS_MINEURES
10
200.005
20
82.540
0
VERTEX
8
CONTOURS_MINEURES
10
201.481
20
81.474
0
VERTEX
8
CONTOURS_MINEURES
10
204.193
20
79.996
0
VERTEX
8
CONTOURS_MINEURES
10
204.575
20
79.567
0
VERTEX
8
CONTOURS_MINEURES
10
205.004
20
78.885
0
VERTEX
8
CONTOURS_MINEURES
10
207.730
20
77.270
0
VERTEX
8
CONTOURS_MINEURES
10
208.336
20
79.996
0
VERTEX
8
CONTOURS_MINEURES
10
209.807
20
80.191
0
VERTEX
8
CONTOURS_MINEURES
10
210.002
20
80.186
0
VERTEX
8
CONTOURS_MINEURES
10
213.655
20
85.003
0
VERTEX
8
CONTOURS_MINEURES
10
214.304
20
85.699
0
VERTEX
8
CONTOURS_MINEURES
10
215.000
20
85.961
0
VERTEX
8
CONTOURS_MINEURES
10
217.545
20
87.547
0
VERTEX
8
CONTOURS_MINEURES
10
219.999
20
89.233
0
VERTEX
8
CONTOURS_MINEURES
10
220.552
20
89.447
0
VERTEX
8
CONTOURS_MINEURES
10
221.873
20
89.999
0
VERTEX
8
CONTOURS_MINEURES
10
224.997
20
91.488
0
VERTEX
8
CONTOURS_MINEURES
10
228.354
20
93.355
0
VERTEX
8
CONTOURS_MINEURES
10
229.996
20
94.216
0
VERTEX
8
CONTOURS_MINEURES
10
230.598
20
94.395
0
VERTEX
8
CONTOURS_MINEURES
10
231.745
20
94.996
0
VERTEX
8
CONTOURS_MINEURES
10
235.005
20
96.951
0
VERTEX
8
CONTOURS_MINEURES
10
237.388
20
97.383
0
VERTEX
8
CONTOURS_MINEURES
10
240.003
20
98.044
0
VERTEX
8
CONTOURS_MINEURES
10
243.502
20
94.996
0
VERTEX
8
CONTOURS_MINEURES
10
245.001
20
91.152
0
VERTEX
8
CONTOURS_MINEURES
10
245.386
20
90.384
0
VERTEX
8
CONTOURS_MINEURES
10
245.451
20
89.999
0
VERTEX
8
CONTOURS_MINEURES
10
245.531
20
89.470
0
VERTEX
8
CONTOURS_MINEURES
10
246.577
20
85.003
0
VERTEX
8
CONTOURS_MINEURES
10
246.001
20
80.997
0
VERTEX
8
CONTOURS_MINEURES
10
245.849
20
79.996
0
VERTEX
8
CONTOURS_MINEURES
10
245.001
20
78.512
0
VERTEX
8
CONTOURS_MINEURES
10
244.028
20
75.973
0
VERTEX
8
CONTOURS_MINEURES
10
243.805
20
74.999
0
VERTEX
8
CONTOURS_MINEURES
10
242.774
20
72.773
0
VERTEX
8
CONTOURS_MINEURES
10
241.720
20
70.003
0
VERTEX
8
CONTOURS_MINEURES
10
240.003
20
66.161
0
VERTEX
8
CONTOURS_MINEURES
10
239.497
20
65.502
0
VERTEX
8
CONTOURS_MINEURES
10
238.429
20
64.995
0
VERTEX
8
CONTOURS_MINEURES
10
235.005
20
62.277
0
VERTEX
8
CONTOURS_MINEURES
10
231.222
20
61.223
0
VERTEX
8
CONTOURS_MINEURES
10
229.996
20
60.617
0
VERTEX
8
CONTOURS_MINEURES
10
229.478
20
60.516
0
VERTEX
8
CONTOURS_MINEURES
10
224.997
20
59.999
0
VERTEX
8
CONTOURS_MINEURES
10
219.999
20
59.333
0
VERTEX
8
CONTOURS_MINEURES
10
216.177
20
55.002
0
VERTEX
8
CONTOURS_MINEURES
10
215.357
20
50.353
0
VERTEX
8
CONTOURS_MINEURES
10
215.357
20
49.995
0
VERTEX
8
CONTOURS_MINEURES
10
215.357
20
45.356
0
VERTEX
8
CONTOURS_MINEURES
10
215.334
20
44.999
0
VERTEX
8
CONTOURS_MINEURES
10
215.313
20
44.686
0
VERTEX
8
CONTOURS_MINEURES
10
215.313
20
40.002
0
VERTEX
8
CONTOURS_MINEURES
10
215.000
20
39.547
0
VERTEX
8
CONTOURS_MINEURES
10
210.002
20
34.995
0
VERTEX
8
CONTOURS_MINEURES
10
205.004
20
34.995
0
VERTEX
8
CONTOURS_MINEURES
10
210.002
20
34.995
0
VERTEX
8
CONTOURS_MINEURES
10
206.157
20
29.998
0
VERTEX
8
CONTOURS_MINEURES
10
207.146
20
27.857
0
VERTEX
8
CONTOURS_MINEURES
10
208.574
20
25.002
0
VERTEX
8
CONTOURS_MINEURES
10
208.336
20
23.336
0
VERTEX
8
CONTOURS_MINEURES
10
207.356
20
20.006
0
VERTEX
8
CONTOURS_MINEURES
10
208.451
20
18.451
0
VERTEX
8
CONTOURS_MINEURES
10
210.002
20
16.250
0
VERTEX
8
CONTOURS_MINEURES
10
211.876
20
14.998
0
VERTEX
8
CONTOURS_MINEURES
10
213.334
20
13.333
0
VERTEX
8
CONTOURS_MINEURES
10
212.942
20
10.002
0
VERTEX
8
CONTOURS_MINEURES
10
212.001
20
8.003
0
VERTEX
8
CONTOURS_MINEURES
10
210.002
20
5.005
0
VERTEX
8
CONTOURS_MINEURES
10
206.157
20
6.158
0
VERTEX
8
CONTOURS_MINEURES
10
205.004
20
5.582
0
VERTEX
8
CONTOURS_MINEURES
10
203.640
20
5.005
0
VERTEX
8
CONTOURS_MINEURES
10
204.122
20
4.122
0
VERTEX
8
CONTOURS_MINEURES
10
205.004
20
2.859
0
VERTEX
8
CONTOURS_MINEURES
10
205.837
20
4.171
0
VERTEX
8
CONTOURS_MINEURES
10
210.002
20
5.005
0
VERTEX
8
CONTOURS_MINEURES
10
212.501
20
2.502
0
VERTEX
8
CONTOURS_MINEURES
10
215.000
20
1.591
0
VERTEX
8
CONTOURS_MINEURES
10
217.059
20
-0.002
0
SEQEND
0
POLYLINE
8
CONTOURS_MINEURES
66
1
70
0
0
VERTEX
8
CONTOURS_MINEURES
10
124.061
20
210.002
0
VERTEX
8
CONTOURS_MINEURES
10
124.998
20
209.002
0
VERTEX
8
CONTOURS_MINEURES
10
126.933
20
206.939
0
VERTEX
8
CONTOURS_MINEURES
10
128.526
20
205.005
0
VERTEX
8
CONTOURS_MINEURES
10
129.996
20
203.079
0
VERTEX
8
CONTOURS_MINEURES
10
130.950
20
200.952
0
VERTEX
8
CONTOURS_MINEURES
10
131.378
20
199.998
0
VERTEX
8
CONTOURS_MINEURES
10
131.248
20
198.749
0
VERTEX
8
CONTOURS_MINEURES
10
131.756
20
195.001
0
VERTEX
8
CONTOURS_MINEURES
10
131.857
20
193.146
0
VERTEX
8
CONTOURS_MINEURES
10
131.332
20
190.005
0
VERTEX
8
CONTOURS_MINEURES
10
132.756
20
187.757
0
VERTEX
8
CONTOURS_MINEURES
10
135.005
20
188.038
0
VERTEX
8
CONTOURS_MINEURES
10
136.576
20
188.431
0
VERTEX
8
CONTOURS_MINEURES
10
140.004
20
188.119
0
VERTEX
8
CONTOURS_MINEURES
10
143.079
20
188.079
0
VERTEX
8
CONTOURS_MINEURES
10
145.002
20
188.298
0
VERTEX
8
CONTOURS_MINEURES
10
146.687
20
188.317
0
VERTEX
8
CONTOURS_MINEURES
10
150.000
20
188.600
0
VERTEX
8
CONTOURS_MINEURES
10
152.499
20
187.501
0
VERTEX
8
CONTOURS_MINEURES
10
154.999
20
187.244
0
VERTEX
8
CONTOURS_MINEURES
10
158.426
20
184.998
0
VERTEX
8
CONTOURS_MINEURES
10
159.997
20
183.828
0
VERTEX
8
CONTOURS_MINEURES
10
162.462
20
182.465
0
VERTEX
8
CONTOURS_MINEURES
10
164.995
20
182.701
0
VERTEX
8
CONTOURS_MINEURES
10
167.569
20
182.430
0
VERTEX
8
CONTOURS_MINEURES
10
170.004
20
182.095
0
VERTEX
8
CONTOURS_MINEURES
10
171.163
20
180.001
0
VERTEX
8
CONTOURS_MINEURES
10
171.446
20
176.445
0
VERTEX
8
CONTOURS_MINEURES
10
172.439
20
175.005
0
VERTEX
8
CONTOURS_MINEURES
10
172.269
20
172.266
0
VERTEX
8
CONTOURS_MINEURES
10
175.003
20
170.096
0
VERTEX
8
CONTOURS_MINEURES
10
175.031
20
169.997
0
VERTEX
8
CONTOURS_MINEURES
10
175.661
20
165.659
0
VERTEX
8
CONTOURS_MINEURES
10
175.950
20
165.001
0
VERTEX
8
CONTOURS_MINEURES
10
176.387
20
163.617
0
VERTEX
8
CONTOURS_MINEURES
10
176.529
20
160.004
0
VERTEX
8
CONTOURS_MINEURES
10
176.122
20
158.884
0
VERTEX
8
CONTOURS_MINEURES
10
175.003
20
157.771
0
VERTEX
8
CONTOURS_MINEURES
10
172.367
20
157.638
0
VERTEX
8
CONTOURS_MINEURES
10
170.131
20
154.997
0
VERTEX
8
CONTOURS_MINEURES
10
170.086
20
154.916
0
VERTEX
8
CONTOURS_MINEURES
10
170.004
20
154.652
0
VERTEX
8
CONTOURS_MINEURES
10
168.248
20
151.753
0
VERTEX
8
CONTOURS_MINEURES
10
167.986
20
150.001
0
VERTEX
8
CONTOURS_MINEURES
10
170.004
20
145.913
0
VERTEX
8
CONTOURS_MINEURES
10
170.241
20
145.240
0
VERTEX
8
CONTOURS_MINEURES
10
170.327
20
145.004
0
VERTEX
8
CONTOURS_MINEURES
10
170.480
20
144.527
0
VERTEX
8
CONTOURS_MINEURES
10
171.802
20
139.997
0
VERTEX
8
CONTOURS_MINEURES
10
172.568
20
137.563
0
VERTEX
8
CONTOURS_MINEURES
10
173.452
20
135.000
0
VERTEX
8
CONTOURS_MINEURES
10
175.003
20
131.541
0
VERTEX
8
CONTOURS_MINEURES
10
175.450
20
130.451
0
VERTEX
8
CONTOURS_MINEURES
10
175.641
20
130.004
0
VERTEX
8
CONTOURS_MINEURES
10
176.307
20
128.698
0
VERTEX
8
CONTOURS_MINEURES
10
177.978
20
124.996
0
VERTEX
8
CONTOURS_MINEURES
10
180.001
20
120.000
0
VERTEX
8
CONTOURS_MINEURES
10
183.015
20
115.004
0
VERTEX
8
CONTOURS_MINEURES
10
183.911
20
113.913
0
VERTEX
8
CONTOURS_MINEURES
10
185.000
20
112.500
0
VERTEX
8
CONTOURS_MINEURES
10
185.817
20
109.996
0
VERTEX
8
CONTOURS_MINEURES
10
186.106
20
108.890
0
VERTEX
8
CONTOURS_MINEURES
10
187.067
20
105.000
0
VERTEX
8
CONTOURS_MINEURES
10
187.563
20
102.566
0
VERTEX
8
CONTOURS_MINEURES
10
188.471
20
100.003
0
VERTEX
8
CONTOURS_MINEURES
10
188.809
20
98.812
0
VERTEX
8
CONTOURS_MINEURES
10
189.998
20
96.450
0
VERTEX
8
CONTOURS_MINEURES
10
191.382
20
94.996
0
VERTEX
8
CONTOURS_MINEURES
10
193.306
20
93.306
0
VERTEX
8
CONTOURS_MINEURES
10
194.996
20
92.097
0
VERTEX
8
CONTOURS_MINEURES
10
198.037
20
89.999
0
VERTEX
8
CONTOURS_MINEURES
10
200.005
20
88.805
0
VERTEX
8
CONTOURS_MINEURES
10
202.296
20
87.709
0
VERTEX
8
CONTOURS_MINEURES
10
205.004
20
86.587
0
VERTEX
8
CONTOURS_MINEURES
10
206.316
20
86.315
0
VERTEX
8
CONTOURS_MINEURES
10
210.002
20
86.239
0
VERTEX
8
CONTOURS_MINEURES
10
211.817
20
88.185
0
VERTEX
8
CONTOURS_MINEURES
10
215.000
20
89.383
0
VERTEX
8
CONTOURS_MINEURES
10
215.989
20
89.999
0
VERTEX
8
CONTOURS_MINEURES
10
218.398
20
91.599
0
VERTEX
8
CONTOURS_MINEURES
10
219.999
20
92.210
0
VERTEX
8
CONTOURS_MINEURES
10
224.618
20
94.616
0
VERTEX
8
CONTOURS_MINEURES
10
224.997
20
94.797
0
VERTEX
8
CONTOURS_MINEURES
10
225.354
20
94.996
0
VERTEX
8
CONTOURS_MINEURES
10
227.729
20
97.267
0
VERTEX
8
CONTOURS_MINEURES
10
229.996
20
99.064
0
VERTEX
8
CONTOURS_MINEURES
10
231.665
20
100.003
0
VERTEX
8
CONTOURS_MINEURES
10
233.066
20
101.937
0
VERTEX
8
CONTOURS_MINEURES
10
235.005
20
103.334
0
VERTEX
8
CONTOURS_MINEURES
10
236.237
20
103.768
0
VERTEX
8
CONTOURS_MINEURES
10
240.003
20
104.297
0
VERTEX
8
CONTOURS_MINEURES
10
243.092
20
103.091
0
VERTEX
8
CONTOURS_MINEURES
10
245.001
20
100.753
0
VERTEX
8
CONTOURS_MINEURES
10
245.751
20
100.003
0
VERTEX
8
CONTOURS_MINEURES
10
248.366
20
98.366
0
VERTEX
8
CONTOURS_MINEURES
10
249.487
20
94.996
0
VERTEX
8
CONTOURS_MINEURES
10
249.658
20
94.654
0
VERTEX
8
CONTOURS_MINEURES
10
250.000
20
92.645
0
VERTEX
8
CONTOURS_MINEURES
10
250.468
20
90.468
0
VERTEX
8
CONTOURS_MINEURES
10
250.494
20
89.999
0
VERTEX
8
CONTOURS_MINEURES
10
250.511
20
89.488
0
VERTEX
8
CONTOURS_MINEURES
10
251.164
20
85.003
0
VERTEX
8
CONTOURS_MINEURES
10
250.407
20
80.403
0
VERTEX
8
CONTOURS_MINEURES
10
250.364
20
79.996
0
VERTEX
8
CONTOURS_MINEURES
10
250.291
20
79.704
0
VERTEX
8
CONTOURS_MINEURES
10
250.000
20
79.182
0
VERTEX
8
CONTOURS_MINEURES
10
248.022
20
74.999
0
VERTEX
8
CONTOURS_MINEURES
10
247.166
20
72.835
0
VERTEX
8
CONTOURS_MINEURES
10
245.001
20
70.567
0
VERTEX
8
CONTOURS_MINEURES
10
244.787
20
70.003
0
VERTEX
8
CONTOURS_MINEURES
10
244.613
20
69.613
0
VERTEX
8
CONTOURS_MINEURES
10
243.740
20
64.995
0
VERTEX
8
CONTOURS_MINEURES
10
243.642
20
61.358
0
VERTEX
8
CONTOURS_MINEURES
10
242.879
20
59.999
0
VERTEX
8
CONTOURS_MINEURES
10
244.377
20
55.627
0
VERTEX
8
CONTOURS_MINEURES
10
243.967
20
55.002
0
VERTEX
8
CONTOURS_MINEURES
10
243.848
20
53.847
0
VERTEX
8
CONTOURS_MINEURES
10
245.001
20
50.710
0
VERTEX
8
CONTOURS_MINEURES
10
245.163
20
49.995
0
VERTEX
8
CONTOURS_MINEURES
10
245.279
20
49.717
0
VERTEX
8
CONTOURS_MINEURES
10
246.732
20
44.999
0
VERTEX
8
CONTOURS_MINEURES
10
246.137
20
41.138
0
VERTEX
8
CONTOURS_MINEURES
10
246.251
20
40.002
0
VERTEX
8
CONTOURS_MINEURES
10
245.001
20
38.529
0
VERTEX
8
CONTOURS_MINEURES
10
243.573
20
36.425
0
VERTEX
8
CONTOURS_MINEURES
10
243.380
20
34.995
0
VERTEX
8
CONTOURS_MINEURES
10
243.051
20
31.948
0
VERTEX
8
CONTOURS_MINEURES
10
242.336
20
29.998
0
VERTEX
8
CONTOURS_MINEURES
10
242.919
20
27.084
0
VERTEX
8
CONTOURS_MINEURES
10
243.079
20
25.002
0
VERTEX
8
CONTOURS_MINEURES
10
243.480
20
21.526
0
VERTEX
8
CONTOURS_MINEURES
10
244.056
20
20.006
0
VERTEX
8
CONTOURS_MINEURES
10
244.353
20
19.356
0
VERTEX
8
CONTOURS_MINEURES
10
245.001
20
17.669
0
VERTEX
8
CONTOURS_MINEURES
10
246.482
20
14.998
0
VERTEX
8
CONTOURS_MINEURES
10
246.725
20
11.725
0
VERTEX
8
CONTOURS_MINEURES
10
246.924
20
10.002
0
VERTEX
8
CONTOURS_MINEURES
10
248.334
20
6.671
0
VERTEX
8
CONTOURS_MINEURES
10
248.958
20
5.005
0
VERTEX
8
CONTOURS_MINEURES
10
249.375
20
4.379
0
VERTEX
8
CONTOURS_MINEURES
10
250.000
20
4.042
0
VERTEX
8
CONTOURS_MINEURES
10
252.441
20
2.443
0
VERTEX
8
CONTOURS_MINEURES
10
254.998
20
0.768
0
VERTEX
8
CONTOURS_MINEURES
10
257.497
20
-0.002
0
SEQEND
0
POLYLINE
8
CONTOURS_MINEURES
66
1
70
0
0
VERTEX
8
CONTOURS_MINEURES
10
142.237
20
210.002
0
VERTEX
8
CONTOURS_MINEURES
10
143.118
20
208.119
0
VERTEX
8
CONTOURS_MINEURES
10
144.577
20
205.005
0
VERTEX
8
CONTOURS_MINEURES
10
144.669
20
204.671
0
VERTEX
8
CONTOURS_MINEURES
10
145.002
20
204.134
0
VERTEX
8
CONTOURS_MINEURES
10
146.729
20
199.998
0
VERTEX
8
CONTOURS_MINEURES
10
146.729
20
196.727
0
VERTEX
8
CONTOURS_MINEURES
10
147.880
20
195.001
0
VERTEX
8
CONTOURS_MINEURES
10
149.167
20
194.169
0
VERTEX
8
CONTOURS_MINEURES
10
150.000
20
194.233
0
VERTEX
8
CONTOURS_MINEURES
10
152.711
20
192.714
0
VERTEX
8
CONTOURS_MINEURES
10
154.999
20
191.938
0
VERTEX
8
CONTOURS_MINEURES
10
157.008
20
190.005
0
VERTEX
8
CONTOURS_MINEURES
10
159.997
20
187.807
0
VERTEX
8
CONTOURS_MINEURES
10
163.502
20
186.494
0
VERTEX
8
CONTOURS_MINEURES
10
164.995
20
185.672
0
VERTEX
8
CONTOURS_MINEURES
10
165.487
20
185.489
0
VERTEX
8
CONTOURS_MINEURES
10
170.004
20
185.060
0
VERTEX
8
CONTOURS_MINEURES
10
170.062
20
184.998
0
VERTEX
8
CONTOURS_MINEURES
10
170.116
20
184.886
0
VERTEX
8
CONTOURS_MINEURES
10
172.818
20
180.001
0
VERTEX
8
CONTOURS_MINEURES
10
172.979
20
177.978
0
VERTEX
8
CONTOURS_MINEURES
10
175.003
20
175.042
0
VERTEX
8
CONTOURS_MINEURES
10
175.017
20
175.005
0
VERTEX
8
CONTOURS_MINEURES
10
175.022
20
174.985
0
VERTEX
8
CONTOURS_MINEURES
10
176.427
20
169.997
0
VERTEX
8
CONTOURS_MINEURES
10
176.880
20
166.878
0
VERTEX
8
CONTOURS_MINEURES
10
177.704
20
165.001
0
VERTEX
8
CONTOURS_MINEURES
10
178.950
20
161.055
0
VERTEX
8
CONTOURS_MINEURES
10
178.992
20
160.004
0
VERTEX
8
CONTOURS_MINEURES
10
177.926
20
157.076
0
VERTEX
8
CONTOURS_MINEURES
10
175.836
20
154.997
0
VERTEX
8
CONTOURS_MINEURES
10
175.003
20
152.385
0
VERTEX
8
CONTOURS_MINEURES
10
174.149
20
150.854
0
VERTEX
8
CONTOURS_MINEURES
10
173.886
20
150.001
0
VERTEX
8
CONTOURS_MINEURES
10
174.176
20
149.174
0
VERTEX
8
CONTOURS_MINEURES
10
175.003
20
146.915
0
VERTEX
8
CONTOURS_MINEURES
10
175.640
20
145.004
0
VERTEX
8
CONTOURS_MINEURES
10
176.631
20
141.628
0
VERTEX
8
CONTOURS_MINEURES
10
177.219
20
139.997
0
VERTEX
8
CONTOURS_MINEURES
10
178.309
20
136.691
0
VERTEX
8
CONTOURS_MINEURES
10
178.844
20
135.000
0
VERTEX
8
CONTOURS_MINEURES
10
179.181
20
134.180
0
VERTEX
8
CONTOURS_MINEURES
10
180.001
20
132.252
0
VERTEX
8
CONTOURS_MINEURES
10
180.653
20
130.656
0
VERTEX
8
CONTOURS_MINEURES
10
180.948
20
130.004
0
VERTEX
8
CONTOURS_MINEURES
10
182.308
20
127.308
0
VERTEX
8
CONTOURS_MINEURES
10
183.750
20
124.996
0
VERTEX
8
CONTOURS_MINEURES
10
185.000
20
122.753
0
VERTEX
8
CONTOURS_MINEURES
10
185.817
20
120.000
0
VERTEX
8
CONTOURS_MINEURES
10
186.729
20
116.732
0
VERTEX
8
CONTOURS_MINEURES
10
187.309
20
115.004
0
VERTEX
8
CONTOURS_MINEURES
10
188.287
20
111.710
0
VERTEX
8
CONTOURS_MINEURES
10
188.847
20
109.996
0
VERTEX
8
CONTOURS_MINEURES
10
189.998
20
105.581
0
VERTEX
8
CONTOURS_MINEURES
10
190.355
20
105.000
0
VERTEX
8
CONTOURS_MINEURES
10
192.311
20
102.316
0
VERTEX
8
CONTOURS_MINEURES
10
194.176
20
100.003
0
VERTEX
8
CONTOURS_MINEURES
10
194.996
20
99.143
0
VERTEX
8
CONTOURS_MINEURES
10
197.285
20
97.284
0
VERTEX
8
CONTOURS_MINEURES
10
200.005
20
95.431
0
VERTEX
8
CONTOURS_MINEURES
10
200.251
20
95.242
0
VERTEX
8
CONTOURS_MINEURES
10
200.703
20
94.996
0
VERTEX
8
CONTOURS_MINEURES
10
203.396
20
93.388
0
VERTEX
8
CONTOURS_MINEURES
10
205.004
20
92.714
0
VERTEX
8
CONTOURS_MINEURES
10
207.893
20
92.107
0
VERTEX
8
CONTOURS_MINEURES
10
210.002
20
91.450
0
VERTEX
8
CONTOURS_MINEURES
10
212.231
20
92.768
0
VERTEX
8
CONTOURS_MINEURES
10
215.000
20
92.990
0
VERTEX
8
CONTOURS_MINEURES
10
216.206
20
93.791
0
VERTEX
8
CONTOURS_MINEURES
10
219.364
20
94.996
0
VERTEX
8
CONTOURS_MINEURES
10
219.711
20
95.284
0
VERTEX
8
CONTOURS_MINEURES
10
219.999
20
95.484
0
VERTEX
8
CONTOURS_MINEURES
10
224.622
20
100.003
0
VERTEX
8
CONTOURS_MINEURES
10
224.759
20
100.241
0
VERTEX
8
CONTOURS_MINEURES
10
224.997
20
100.860
0
VERTEX
8
CONTOURS_MINEURES
10
227.010
20
105.000
0
VERTEX
8
CONTOURS_MINEURES
10
228.077
20
106.918
0
VERTEX
8
CONTOURS_MINEURES
10
228.872
20
109.996
0
VERTEX
8
CONTOURS_MINEURES
10
229.996
20
113.334
0
VERTEX
8
CONTOURS_MINEURES
10
230.778
20
114.221
0
VERTEX
8
CONTOURS_MINEURES
10
231.314
20
115.004
0
VERTEX
8
CONTOURS_MINEURES
10
232.778
20
117.224
0
VERTEX
8
CONTOURS_MINEURES
10
234.865
20
120.000
0
VERTEX
8
CONTOURS_MINEURES
10
235.005
20
120.294
0
VERTEX
8
CONTOURS_MINEURES
10
238.813
20
121.190
0
VERTEX
8
CONTOURS_MINEURES
10
240.003
20
121.561
0
VERTEX
8
CONTOURS_MINEURES
10
240.865
20
120.861
0
VERTEX
8
CONTOURS_MINEURES
10
242.275
20
120.000
0
VERTEX
8
CONTOURS_MINEURES
10
244.232
20
119.231
0
VERTEX
8
CONTOURS_MINEURES
10
245.001
20
118.335
0
VERTEX
8
CONTOURS_MINEURES
10
249.286
20
115.004
0
VERTEX
8
CONTOURS_MINEURES
10
250.000
20
114.503
0
VERTEX
8
CONTOURS_MINEURES
10
251.215
20
111.214
0
VERTEX
8
CONTOURS_MINEURES
10
251.697
20
109.996
0
VERTEX
8
CONTOURS_MINEURES
10
252.726
20
107.271
0
VERTEX
8
CONTOURS_MINEURES
10
253.583
20
105.000
0
VERTEX
8
CONTOURS_MINEURES
10
254.072
20
104.074
0
VERTEX
8
CONTOURS_MINEURES
10
254.998
20
101.252
0
VERTEX
8
CONTOURS_MINEURES
10
255.273
20
100.003
0
VERTEX
8
CONTOURS_MINEURES
10
255.654
20
95.653
0
VERTEX
8
CONTOURS_MINEURES
10
255.641
20
94.996
0
VERTEX
8
CONTOURS_MINEURES
10
255.704
20
94.290
0
VERTEX
8
CONTOURS_MINEURES
10
255.926
20
89.999
0
VERTEX
8
CONTOURS_MINEURES
10
255.965
20
89.032
0
VERTEX
8
CONTOURS_MINEURES
10
256.091
20
85.003
0
VERTEX
8
CONTOURS_MINEURES
10
255.637
20
80.636
0
VERTEX
8
CONTOURS_MINEURES
10
255.602
20
79.996
0
VERTEX
8
CONTOURS_MINEURES
10
254.998
20
77.706
0
VERTEX
8
CONTOURS_MINEURES
10
254.457
20
75.540
0
VERTEX
8
CONTOURS_MINEURES
10
254.154
20
74.999
0
VERTEX
8
CONTOURS_MINEURES
10
253.413
20
73.415
0
VERTEX
8
CONTOURS_MINEURES
10
252.455
20
70.003
0
VERTEX
8
CONTOURS_MINEURES
10
252.332
20
67.666
0
VERTEX
8
CONTOURS_MINEURES
10
252.142
20
64.995
0
VERTEX
8
CONTOURS_MINEURES
10
251.445
20
63.551
0
VERTEX
8
CONTOURS_MINEURES
10
251.168
20
59.999
0
VERTEX
8
CONTOURS_MINEURES
10
252.499
20
57.501
0
VERTEX
8
CONTOURS_MINEURES
10
254.681
20
55.002
0
VERTEX
8
CONTOURS_MINEURES
10
254.998
20
54.261
0
VERTEX
8
CONTOURS_MINEURES
10
256.335
20
51.334
0
VERTEX
8
CONTOURS_MINEURES
10
257.088
20
49.995
0
VERTEX
8
CONTOURS_MINEURES
10
259.788
20
45.207
0
VERTEX
8
CONTOURS_MINEURES
10
259.868
20
44.999
0
VERTEX
8
CONTOURS_MINEURES
10
259.900
20
44.903
0
VERTEX
8
CONTOURS_MINEURES
10
259.996
20
44.666
0
VERTEX
8
CONTOURS_MINEURES
10
260.996
20
43.999
0
VERTEX
8
CONTOURS_MINEURES
10
264.995
20
40.871
0
VERTEX
8
CONTOURS_MINEURES
10
265.440
20
40.446
0
VERTEX
8
CONTOURS_MINEURES
10
266.049
20
40.002
0
VERTEX
8
CONTOURS_MINEURES
10
266.664
20
38.333
0
VERTEX
8
CONTOURS_MINEURES
10
267.647
20
34.995
0
VERTEX
8
CONTOURS_MINEURES
10
268.825
20
33.819
0
VERTEX
8
CONTOURS_MINEURES
10
270.004
20
31.920
0
VERTEX
8
CONTOURS_MINEURES
10
270.739
20
30.733
0
VERTEX
8
CONTOURS_MINEURES
10
270.837
20
29.998
0
VERTEX
8
CONTOURS_MINEURES
10
270.494
20
29.508
0
VERTEX
8
CONTOURS_MINEURES
10
270.004
20
25.002
0
VERTEX
8
CONTOURS_MINEURES
10
273.058
20
20.006
0
VERTEX
8
CONTOURS_MINEURES
10
273.682
20
18.683
0
VERTEX
8
CONTOURS_MINEURES
10
275.002
20
17.588
0
SEQEND
0
POLYLINE
8
CONTOURS_MINEURES
66
1
70
0
0
VERTEX
8
CONTOURS_MINEURES
10
275.002
20
129.234
0
VERTEX
8
CONTOURS_MINEURES
10
272.253
20
127.751
0
VERTEX
8
CONTOURS_MINEURES
10
270.004
20
126.248
0
VERTEX
8
CONTOURS_MINEURES
10
268.501
20
124.996
0
VERTEX
8
CONTOURS_MINEURES
10
266.748
20
123.248
0
VERTEX
8
CONTOURS_MINEURES
10
264.995
20
122.498
0
VERTEX
8
CONTOURS_MINEURES
10
263.051
20
121.943
0
VERTEX
8
CONTOURS_MINEURES
10
261.496
20
120.000
0
VERTEX
8
CONTOURS_MINEURES
10
260.678
20
119.319
0
VERTEX
8
CONTOURS_MINEURES
10
260.472
20
115.004
0
VERTEX
8
CONTOURS_MINEURES
10
261.342
20
111.344
0
VERTEX
8
CONTOURS_MINEURES
10
261.663
20
109.996
0
VERTEX
8
CONTOURS_MINEURES
10
262.303
20
107.306
0
VERTEX
8
CONTOURS_MINEURES
10
263.745
20
105.000
0
VERTEX
8
CONTOURS_MINEURES
10
263.884
20
103.889
0
VERTEX
8
CONTOURS_MINEURES
10
263.177
20
100.003
0
VERTEX
8
CONTOURS_MINEURES
10
262.117
20
97.879
0
VERTEX
8
CONTOURS_MINEURES
10
261.931
20
94.996
0
VERTEX
8
CONTOURS_MINEURES
10
262.621
20
92.623
0
VERTEX
8
CONTOURS_MINEURES
10
262.688
20
89.999
0
VERTEX
8
CONTOURS_MINEURES
10
262.902
20
87.908
0
VERTEX
8
CONTOURS_MINEURES
10
262.902
20
85.003
0
VERTEX
8
CONTOURS_MINEURES
10
262.902
20
82.092
0
VERTEX
8
CONTOURS_MINEURES
10
262.627
20
79.996
0
VERTEX
8
CONTOURS_MINEURES
10
263.444
20
76.550
0
VERTEX
8
CONTOURS_MINEURES
10
262.853
20
74.999
0
VERTEX
8
CONTOURS_MINEURES
10
263.388
20
73.393
0
VERTEX
8
CONTOURS_MINEURES
10
264.995
20
71.252
0
VERTEX
8
CONTOURS_MINEURES
10
268.215
20
71.787
0
VERTEX
8
CONTOURS_MINEURES
10
270.004
20
73.572
0
VERTEX
8
CONTOURS_MINEURES
10
271.003
20
74.000
0
VERTEX
8
CONTOURS_MINEURES
10
275.002
20
74.999
0
SEQEND
0
POLYLINE
8
CONTOURS_MINEURES
66
1
70
0
0
VERTEX
8
CONTOURS_MINEURES
10
151.288
20
210.002
0
VERTEX
8
CONTOURS_MINEURES
10
151.848
20
208.155
0
VERTEX
8
CONTOURS_MINEURES
10
152.734
20
205.005
0
VERTEX
8
CONTOURS_MINEURES
10
153.440
20
203.444
0
VERTEX
8
CONTOURS_MINEURES
10
154.999
20
200.467
0
VERTEX
8
CONTOURS_MINEURES
10
155.143
20
200.142
0
VERTEX
8
CONTOURS_MINEURES
10
155.219
20
199.998
0
VERTEX
8
CONTOURS_MINEURES
10
156.748
20
196.750
0
VERTEX
8
CONTOURS_MINEURES
10
157.964
20
195.001
0
VERTEX
8
CONTOURS_MINEURES
10
159.997
20
193.098
0
VERTEX
8
CONTOURS_MINEURES
10
161.341
20
191.349
0
VERTEX
8
CONTOURS_MINEURES
10
161.836
20
190.005
0
VERTEX
8
CONTOURS_MINEURES
10
164.995
20
188.267
0
VERTEX
8
CONTOURS_MINEURES
10
167.377
20
187.378
0
VERTEX
8
CONTOURS_MINEURES
10
170.004
20
187.129
0
VERTEX
8
CONTOURS_MINEURES
10
171.985
20
184.998
0
VERTEX
8
CONTOURS_MINEURES
10
173.818
20
181.185
0
VERTEX
8
CONTOURS_MINEURES
10
174.473
20
180.001
0
VERTEX
8
CONTOURS_MINEURES
10
174.512
20
179.511
0
VERTEX
8
CONTOURS_MINEURES
10
175.003
20
178.799
0
VERTEX
8
CONTOURS_MINEURES
10
176.479
20
175.005
0
VERTEX
8
CONTOURS_MINEURES
10
176.967
20
173.037
0
VERTEX
8
CONTOURS_MINEURES
10
177.823
20
169.997
0
VERTEX
8
CONTOURS_MINEURES
10
178.099
20
168.096
0
VERTEX
8
CONTOURS_MINEURES
10
179.457
20
165.001
0
VERTEX
8
CONTOURS_MINEURES
10
180.001
20
163.280
0
VERTEX
8
CONTOURS_MINEURES
10
180.978
20
160.004
0
VERTEX
8
CONTOURS_MINEURES
10
180.001
20
156.012
0
VERTEX
8
CONTOURS_MINEURES
10
179.730
20
155.268
0
VERTEX
8
CONTOURS_MINEURES
10
179.458
20
154.997
0
VERTEX
8
CONTOURS_MINEURES
10
179.204
20
154.200
0
VERTEX
8
CONTOURS_MINEURES
10
178.763
20
150.001
0
VERTEX
8
CONTOURS_MINEURES
10
180.001
20
146.490
0
VERTEX
8
CONTOURS_MINEURES
10
180.411
20
145.414
0
VERTEX
8
CONTOURS_MINEURES
10
180.557
20
145.004
0
VERTEX
8
CONTOURS_MINEURES
10
180.847
20
144.157
0
VERTEX
8
CONTOURS_MINEURES
10
182.300
20
139.997
0
VERTEX
8
CONTOURS_MINEURES
10
183.485
20
136.514
0
VERTEX
8
CONTOURS_MINEURES
10
183.979
20
135.000
0
VERTEX
8
CONTOURS_MINEURES
10
184.275
20
134.276
0
VERTEX
8
CONTOURS_MINEURES
10
185.000
20
132.676
0
VERTEX
8
CONTOURS_MINEURES
10
185.692
20
130.004
0
VERTEX
8
CONTOURS_MINEURES
10
186.008
20
128.994
0
VERTEX
8
CONTOURS_MINEURES
10
187.306
20
124.996
0
VERTEX
8
CONTOURS_MINEURES
10
188.361
20
121.637
0
VERTEX
8
CONTOURS_MINEURES
10
188.847
20
120.000
0
VERTEX
8
CONTOURS_MINEURES
10
189.098
20
119.100
0
VERTEX
8
CONTOURS_MINEURES
10
189.998
20
116.418
0
VERTEX
8
CONTOURS_MINEURES
10
190.579
20
115.585
0
VERTEX
8
CONTOURS_MINEURES
10
190.935
20
115.004
0
VERTEX
8
CONTOURS_MINEURES
10
192.497
20
112.500
0
VERTEX
8
CONTOURS_MINEURES
10
194.023
20
109.996
0
VERTEX
8
CONTOURS_MINEURES
10
194.996
20
108.497
0
VERTEX
8
CONTOURS_MINEURES
10
196.508
20
106.507
0
VERTEX
8
CONTOURS_MINEURES
10
197.693
20
105.000
0
VERTEX
8
CONTOURS_MINEURES
10
200.005
20
102.763
0
VERTEX
8
CONTOURS_MINEURES
10
203.495
20
100.003
0
VERTEX
8
CONTOURS_MINEURES
10
204.348
20
99.347
0
VERTEX
8
CONTOURS_MINEURES
10
205.004
20
98.989
0
VERTEX
8
CONTOURS_MINEURES
10
206.603
20
98.401
0
VERTEX
8
CONTOURS_MINEURES
10
210.002
20
97.360
0
VERTEX
8
CONTOURS_MINEURES
10
212.617
20
97.615
0
VERTEX
8
CONTOURS_MINEURES
10
215.000
20
97.961
0
VERTEX
8
CONTOURS_MINEURES
10
216.115
20
98.887
0
VERTEX
8
CONTOURS_MINEURES
10
217.719
20
100.003
0
VERTEX
8
CONTOURS_MINEURES
10
219.999
20
102.827
0
VERTEX
8
CONTOURS_MINEURES
10
220.792
20
104.207
0
VERTEX
8
CONTOURS_MINEURES
10
221.097
20
105.000
0
VERTEX
8
CONTOURS_MINEURES
10
221.959
20
106.959
0
VERTEX
8
CONTOURS_MINEURES
10
223.535
20
109.996
0
VERTEX
8
CONTOURS_MINEURES
10
223.814
20
111.181
0
VERTEX
8
CONTOURS_MINEURES
10
224.997
20
114.431
0
VERTEX
8
CONTOURS_MINEURES
10
225.210
20
115.004
0
VERTEX
8
CONTOURS_MINEURES
10
225.287
20
115.293
0
VERTEX
8
CONTOURS_MINEURES
10
226.218
20
120.000
0
VERTEX
8
CONTOURS_MINEURES
10
226.425
20
123.569
0
VERTEX
8
CONTOURS_MINEURES
10
226.642
20
124.996
0
VERTEX
8
CONTOURS_MINEURES
10
226.753
20
126.756
0
VERTEX
8
CONTOURS_MINEURES
10
226.663
20
130.004
0
VERTEX
8
CONTOURS_MINEURES
10
226.788
20
131.794
0
VERTEX
8
CONTOURS_MINEURES
10
226.472
20
135.000
0
VERTEX
8
CONTOURS_MINEURES
10
226.633
20
136.635
0
VERTEX
8
CONTOURS_MINEURES
10
227.315
20
139.997
0
VERTEX
8
CONTOURS_MINEURES
10
227.427
20
142.570
0
VERTEX
8
CONTOURS_MINEURES
10
227.533
20
145.004
0
VERTEX
8
CONTOURS_MINEURES
10
227.817
20
147.182
0
VERTEX
8
CONTOURS_MINEURES
10
228.139
20
150.001
0
VERTEX
8
CONTOURS_MINEURES
10
229.070
20
154.072
0
VERTEX
8
CONTOURS_MINEURES
10
228.272
20
154.997
0
VERTEX
8
CONTOURS_MINEURES
10
228.434
20
156.562
0
VERTEX
8
CONTOURS_MINEURES
10
229.396
20
160.004
0
VERTEX
8
CONTOURS_MINEURES
10
229.996
20
161.157
0
VERTEX
8
CONTOURS_MINEURES
10
231.665
20
161.670
0
VERTEX
8
CONTOURS_MINEURES
10
235.005
20
162.503
0
VERTEX
8
CONTOURS_MINEURES
10
237.731
20
162.276
0
VERTEX
8
CONTOURS_MINEURES
10
240.003
20
162.086
0
VERTEX
8
CONTOURS_MINEURES
10
245.001
20
165.001
0
VERTEX
8
CONTOURS_MINEURES
10
249.091
20
160.004
0
VERTEX
8
CONTOURS_MINEURES
10
249.474
20
159.477
0
VERTEX
8
CONTOURS_MINEURES
10
250.000
20
158.001
0
VERTEX
8
CONTOURS_MINEURES
10
252.499
20
157.501
0
VERTEX
8
CONTOURS_MINEURES
10
253.748
20
154.997
0
VERTEX
8
CONTOURS_MINEURES
10
254.998
20
154.543
0
VERTEX
8
CONTOURS_MINEURES
10
258.122
20
153.123
0
VERTEX
8
CONTOURS_MINEURES
10
259.996
20
152.998
0
VERTEX
8
CONTOURS_MINEURES
10
263.329
20
151.666
0
VERTEX
8
CONTOURS_MINEURES
10
264.995
20
150.937
0
VERTEX
8
CONTOURS_MINEURES
10
265.496
20
150.500
0
VERTEX
8
CONTOURS_MINEURES
10
266.247
20
150.001
0
VERTEX
8
CONTOURS_MINEURES
10
267.499
20
147.502
0
VERTEX
8
CONTOURS_MINEURES
10
270.004
20
146.253
0
VERTEX
8
CONTOURS_MINEURES
10
270.718
20
145.718
0
VERTEX
8
CONTOURS_MINEURES
10
275.002
20
145.913
0
SEQEND
0
POLYLINE
8
CONTOURS_MINEURES
66
1
70
0
0
VERTEX
8
CONTOURS_MINEURES
10
267.499
20
210.002
0
VERTEX
8
CONTOURS_MINEURES
10
268.795
20
208.796
0
VERTEX
8
CONTOURS_MINEURES
10
270.004
20
207.816
0
VERTEX
8
CONTOURS_MINEURES
10
274.502
20
205.005
0
VERTEX
8
CONTOURS_MINEURES
10
274.764
20
204.767
0
VERTEX
8
CONTOURS_MINEURES
10
275.002
20
204.505
0
SEQEND
0
POLYLINE
8
CONTOURS_MINEURES
66
1
70
0
0
VERTEX
8
CONTOURS_MINEURES
10
158.539
20
210.002
0
VERTEX
8
CONTOURS_MINEURES
10
159.901
20
205.101
0
VERTEX
8
CONTOURS_MINEURES
10
159.928
20
205.005
0
VERTEX
8
CONTOURS_MINEURES
10
159.949
20
204.957
0
VERTEX
8
CONTOURS_MINEURES
10
159.997
20
204.866
0
VERTEX
8
CONTOURS_MINEURES
10
161.801
20
199.998
0
VERTEX
8
CONTOURS_MINEURES
10
162.750
20
197.753
0
VERTEX
8
CONTOURS_MINEURES
10
164.630
20
195.001
0
VERTEX
8
CONTOURS_MINEURES
10
164.789
20
194.795
0
VERTEX
8
CONTOURS_MINEURES
10
164.995
20
194.233
0
VERTEX
8
CONTOURS_MINEURES
10
167.291
20
190.005
0
VERTEX
8
CONTOURS_MINEURES
10
169.267
20
189.268
0
VERTEX
8
CONTOURS_MINEURES
10
170.004
20
189.198
0
VERTEX
8
CONTOURS_MINEURES
10
173.907
20
184.998
0
VERTEX
8
CONTOURS_MINEURES
10
175.003
20
182.719
0
VERTEX
8
CONTOURS_MINEURES
10
176.266
20
181.264
0
VERTEX
8
CONTOURS_MINEURES
10
176.315
20
180.001
0
VERTEX
8
CONTOURS_MINEURES
10
176.629
20
178.375
0
VERTEX
8
CONTOURS_MINEURES
10
177.940
20
175.005
0
VERTEX
8
CONTOURS_MINEURES
10
178.912
20
171.088
0
VERTEX
8
CONTOURS_MINEURES
10
179.219
20
169.997
0
VERTEX
8
CONTOURS_MINEURES
10
179.318
20
169.315
0
VERTEX
8
CONTOURS_MINEURES
10
180.001
20
167.759
0
VERTEX
8
CONTOURS_MINEURES
10
181.255
20
165.001
0
VERTEX
8
CONTOURS_MINEURES
10
181.628
20
163.375
0
VERTEX
8
CONTOURS_MINEURES
10
182.633
20
160.004
0
VERTEX
8
CONTOURS_MINEURES
10
181.865
20
156.864
0
VERTEX
8
CONTOURS_MINEURES
10
182.853
20
154.997
0
VERTEX
8
CONTOURS_MINEURES
10
183.935
20
151.065
0
VERTEX
8
CONTOURS_MINEURES
10
183.814
20
150.001
0
VERTEX
8
CONTOURS_MINEURES
10
184.142
20
149.143
0
VERTEX
8
CONTOURS_MINEURES
10
185.000
20
146.717
0
VERTEX
8
CONTOURS_MINEURES
10
185.281
20
145.286
0
VERTEX
8
CONTOURS_MINEURES
10
185.338
20
145.004
0
VERTEX
8
CONTOURS_MINEURES
10
185.422
20
144.581
0
VERTEX
8
CONTOURS_MINEURES
10
186.306
20
139.997
0
VERTEX
8
CONTOURS_MINEURES
10
186.904
20
136.904
0
VERTEX
8
CONTOURS_MINEURES
10
187.311
20
135.000
0
VERTEX
8
CONTOURS_MINEURES
10
188.251
20
131.751
0
VERTEX
8
CONTOURS_MINEURES
10
188.703
20
130.004
0
VERTEX
8
CONTOURS_MINEURES
10
189.998
20
125.863
0
VERTEX
8
CONTOURS_MINEURES
10
190.575
20
124.996
0
VERTEX
8
CONTOURS_MINEURES
10
192.364
20
122.365
0
VERTEX
8
CONTOURS_MINEURES
10
194.076
20
120.000
0
VERTEX
8
CONTOURS_MINEURES
10
194.454
20
119.458
0
VERTEX
8
CONTOURS_MINEURES
10
194.996
20
118.572
0
VERTEX
8
CONTOURS_MINEURES
10
196.605
20
116.608
0
VERTEX
8
CONTOURS_MINEURES
10
197.693
20
115.004
0
VERTEX
8
CONTOURS_MINEURES
10
198.699
20
113.697
0
VERTEX
8
CONTOURS_MINEURES
10
200.005
20
111.938
0
VERTEX
8
CONTOURS_MINEURES
10
202.214
20
109.996
0
VERTEX
8
CONTOURS_MINEURES
10
203.728
20
108.720
0
VERTEX
8
CONTOURS_MINEURES
10
205.004
20
107.445
0
VERTEX
8
CONTOURS_MINEURES
10
208.431
20
106.570
0
VERTEX
8
CONTOURS_MINEURES
10
210.002
20
106.057
0
VERTEX
8
CONTOURS_MINEURES
10
211.412
20
106.409
0
VERTEX
8
CONTOURS_MINEURES
10
215.000
20
106.955
0
VERTEX
8
CONTOURS_MINEURES
10
216.296
20
108.701
0
VERTEX
8
CONTOURS_MINEURES
10
217.641
20
109.996
0
VERTEX
8
CONTOURS_MINEURES
10
219.999
20
115.004
0
VERTEX
8
CONTOURS_MINEURES
10
220.674
20
119.325
0
VERTEX
8
CONTOURS_MINEURES
10
220.796
20
120.000
0
VERTEX
8
CONTOURS_MINEURES
10
220.841
20
120.842
0
VERTEX
8
CONTOURS_MINEURES
10
221.223
20
124.996
0
VERTEX
8
CONTOURS_MINEURES
10
221.184
20
128.817
0
VERTEX
8
CONTOURS_MINEURES
10
221.160
20
130.004
0
VERTEX
8
CONTOURS_MINEURES
10
221.273
20
133.727
0
VERTEX
8
CONTOURS_MINEURES
10
221.202
20
135.000
0
VERTEX
8
CONTOURS_MINEURES
10
221.553
20
138.443
0
VERTEX
8
CONTOURS_MINEURES
10
221.760
20
139.997
0
VERTEX
8
CONTOURS_MINEURES
10
222.278
20
142.721
0
VERTEX
8
CONTOURS_MINEURES
10
222.334
20
145.004
0
VERTEX
8
CONTOURS_MINEURES
10
222.573
20
147.428
0
VERTEX
8
CONTOURS_MINEURES
10
222.758
20
150.001
0
VERTEX
8
CONTOURS_MINEURES
10
222.298
20
152.299
0
VERTEX
8
CONTOURS_MINEURES
10
220.499
20
154.997
0
VERTEX
8
CONTOURS_MINEURES
10
219.999
20
157.648
0
VERTEX
8
CONTOURS_MINEURES
10
219.739
20
159.744
0
VERTEX
8
CONTOURS_MINEURES
10
219.713
20
160.004
0
VERTEX
8
CONTOURS_MINEURES
10
219.711
20
160.292
0
VERTEX
8
CONTOURS_MINEURES
10
219.579
20
165.001
0
VERTEX
8
CONTOURS_MINEURES
10
219.999
20
169.283
0
VERTEX
8
CONTOURS_MINEURES
10
220.148
20
169.997
0
VERTEX
8
CONTOURS_MINEURES
10
221.843
20
173.157
0
VERTEX
8
CONTOURS_MINEURES
10
222.260
20
175.005
0
VERTEX
8
CONTOURS_MINEURES
10
222.637
20
177.642
0
VERTEX
8
CONTOURS_MINEURES
10
222.873
20
180.001
0
VERTEX
8
CONTOURS_MINEURES
10
222.342
20
182.655
0
VERTEX
8
CONTOURS_MINEURES
10
222.457
20
184.998
0
VERTEX
8
CONTOURS_MINEURES
10
222.306
20
187.309
0
VERTEX
8
CONTOURS_MINEURES
10
221.110
20
190.005
0
VERTEX
8
CONTOURS_MINEURES
10
219.999
20
191.728
0
VERTEX
8
CONTOURS_MINEURES
10
219.274
20
194.277
0
VERTEX
8
CONTOURS_MINEURES
10
218.680
20
195.001
0
VERTEX
8
CONTOURS_MINEURES
10
218.840
20
198.839
0
VERTEX
8
CONTOURS_MINEURES
10
218.709
20
199.998
0
VERTEX
8
CONTOURS_MINEURES
10
219.999
20
201.600
0
VERTEX
8
CONTOURS_MINEURES
10
222.427
20
202.573
0
VERTEX
8
CONTOURS_MINEURES
10
223.398
20
205.005
0
VERTEX
8
CONTOURS_MINEURES
10
224.997
20
206.955
0
VERTEX
8
CONTOURS_MINEURES
10
227.903
20
210.002
0
SEQEND
0
POLYLINE
8
CONTOURS_MINEURES
66
1
70
0
0
VERTEX
8
CONTOURS_MINEURES
10
165.316
20
210.002
0
VERTEX
8
CONTOURS_MINEURES
10
165.986
20
205.994
0
VERTEX
8
CONTOURS_MINEURES
10
166.044
20
205.005
0
VERTEX
8
CONTOURS_MINEURES
10
166.166
20
203.835
0
VERTEX
8
CONTOURS_MINEURES
10
166.958
20
199.998
0
VERTEX
8
CONTOURS_MINEURES
10
168.073
20
198.071
0
VERTEX
8
CONTOURS_MINEURES
10
169.523
20
195.001
0
VERTEX
8
CONTOURS_MINEURES
10
170.004
20
194.298
0
VERTEX
8
CONTOURS_MINEURES
10
171.887
20
191.886
0
VERTEX
8
CONTOURS_MINEURES
10
173.023
20
190.005
0
VERTEX
8
CONTOURS_MINEURES
10
175.003
20
187.592
0
VERTEX
8
CONTOURS_MINEURES
10
176.305
20
186.303
0
VERTEX
8
CONTOURS_MINEURES
10
176.495
20
184.998
0
VERTEX
8
CONTOURS_MINEURES
10
178.124
20
183.122
0
VERTEX
8
CONTOURS_MINEURES
10
178.245
20
180.001
0
VERTEX
8
CONTOURS_MINEURES
10
179.021
20
175.985
0
VERTEX
8
CONTOURS_MINEURES
10
179.402
20
175.005
0
VERTEX
8
CONTOURS_MINEURES
10
180.001
20
172.589
0
VERTEX
8
CONTOURS_MINEURES
10
181.069
20
171.067
0
VERTEX
8
CONTOURS_MINEURES
10
181.153
20
169.997
0
VERTEX
8
CONTOURS_MINEURES
10
181.467
20
168.532
0
VERTEX
8
CONTOURS_MINEURES
10
183.073
20
165.001
0
VERTEX
8
CONTOURS_MINEURES
10
183.986
20
161.018
0
VERTEX
8
CONTOURS_MINEURES
10
184.288
20
160.004
0
VERTEX
8
CONTOURS_MINEURES
10
184.057
20
159.060
0
VERTEX
8
CONTOURS_MINEURES
10
185.000
20
157.279
0
VERTEX
8
CONTOURS_MINEURES
10
185.762
20
155.761
0
VERTEX
8
CONTOURS_MINEURES
10
185.922
20
154.997
0
VERTEX
8
CONTOURS_MINEURES
10
186.630
20
151.631
0
VERTEX
8
CONTOURS_MINEURES
10
187.162
20
150.001
0
VERTEX
8
CONTOURS_MINEURES
10
187.628
20
147.631
0
VERTEX
8
CONTOURS_MINEURES
10
188.162
20
145.004
0
VERTEX
8
CONTOURS_MINEURES
10
188.942
20
141.055
0
VERTEX
8
CONTOURS_MINEURES
10
189.146
20
139.997
0
VERTEX
8
CONTOURS_MINEURES
10
189.284
20
139.283
0
VERTEX
8
CONTOURS_MINEURES
10
189.998
20
135.946
0
VERTEX
8
CONTOURS_MINEURES
10
190.484
20
135.000
0
VERTEX
8
CONTOURS_MINEURES
10
191.664
20
133.335
0
VERTEX
8
CONTOURS_MINEURES
10
194.011
20
130.004
0
VERTEX
8
CONTOURS_MINEURES
10
194.996
20
128.446
0
VERTEX
8
CONTOURS_MINEURES
10
196.581
20
126.580
0
VERTEX
8
CONTOURS_MINEURES
10
197.820
20
124.996
0
VERTEX
8
CONTOURS_MINEURES
10
200.005
20
122.598
0
VERTEX
8
CONTOURS_MINEURES
10
201.761
20
121.756
0
VERTEX
8
CONTOURS_MINEURES
10
203.718
20
120.000
0
VERTEX
8
CONTOURS_MINEURES
10
205.004
20
118.876
0
VERTEX
8
CONTOURS_MINEURES
10
208.783
20
118.781
0
VERTEX
8
CONTOURS_MINEURES
10
210.002
20
118.335
0
VERTEX
8
CONTOURS_MINEURES
10
210.945
20
119.057
0
VERTEX
8
CONTOURS_MINEURES
10
211.564
20
120.000
0
VERTEX
8
CONTOURS_MINEURES
10
215.000
20
123.926
0
VERTEX
8
CONTOURS_MINEURES
10
215.366
20
124.996
0
VERTEX
8
CONTOURS_MINEURES
10
216.311
20
128.691
0
VERTEX
8
CONTOURS_MINEURES
10
216.298
20
130.004
0
VERTEX
8
CONTOURS_MINEURES
10
216.337
20
131.340
0
VERTEX
8
CONTOURS_MINEURES
10
216.916
20
135.000
0
VERTEX
8
CONTOURS_MINEURES
10
216.942
20
138.056
0
VERTEX
8
CONTOURS_MINEURES
10
217.136
20
139.997
0
VERTEX
8
CONTOURS_MINEURES
10
217.611
20
142.612
0
VERTEX
8
CONTOURS_MINEURES
10
218.177
20
145.004
0
VERTEX
8
CONTOURS_MINEURES
10
218.537
20
148.539
0
VERTEX
8
CONTOURS_MINEURES
10
218.842
20
150.001
0
VERTEX
8
CONTOURS_MINEURES
10
217.986
20
152.012
0
VERTEX
8
CONTOURS_MINEURES
10
216.679
20
154.997
0
VERTEX
8
CONTOURS_MINEURES
10
216.493
20
156.493
0
VERTEX
8
CONTOURS_MINEURES
10
216.143
20
160.004
0
VERTEX
8
CONTOURS_MINEURES
10
216.115
20
163.887
0
VERTEX
8
CONTOURS_MINEURES
10
216.084
20
165.001
0
VERTEX
8
CONTOURS_MINEURES
10
216.202
20
166.202
0
VERTEX
8
CONTOURS_MINEURES
10
216.449
20
169.997
0
VERTEX
8
CONTOURS_MINEURES
10
216.961
20
171.961
0
VERTEX
8
CONTOURS_MINEURES
10
217.686
20
175.005
0
VERTEX
8
CONTOURS_MINEURES
10
217.703
20
177.299
0
VERTEX
8
CONTOURS_MINEURES
10
217.873
20
180.001
0
VERTEX
8
CONTOURS_MINEURES
10
217.552
20
182.552
0
VERTEX
8
CONTOURS_MINEURES
10
217.177
20
184.998
0
VERTEX
8
CONTOURS_MINEURES
10
215.732
20
189.272
0
VERTEX
8
CONTOURS_MINEURES
10
215.588
20
190.005
0
VERTEX
8
CONTOURS_MINEURES
10
215.458
20
190.463
0
VERTEX
8
CONTOURS_MINEURES
10
215.000
20
191.021
0
VERTEX
8
CONTOURS_MINEURES
10
213.221
20
195.001
0
VERTEX
8
CONTOURS_MINEURES
10
213.059
20
198.057
0
VERTEX
8
CONTOURS_MINEURES
10
212.875
20
199.998
0
VERTEX
8
CONTOURS_MINEURES
10
213.587
20
201.414
0
VERTEX
8
CONTOURS_MINEURES
10
215.000
20
203.974
0
VERTEX
8
CONTOURS_MINEURES
10
215.875
20
205.005
0
VERTEX
8
CONTOURS_MINEURES
10
217.870
20
207.133
0
VERTEX
8
CONTOURS_MINEURES
10
219.999
20
209.784
0
VERTEX
8
CONTOURS_MINEURES
10
220.191
20
210.002
0
SEQEND
0
POLYLINE
8
CONTOURS_MINEURES
66
1
70
0
0
VERTEX
8
CONTOURS_MINEURES
10
171.828
20
210.002
0
VERTEX
8
CONTOURS_MINEURES
10
172.049
20
207.958
0
VERTEX
8
CONTOURS_MINEURES
10
172.257
20
205.005
0
VERTEX
8
CONTOURS_MINEURES
10
172.584
20
202.421
0
VERTEX
8
CONTOURS_MINEURES
10
172.891
20
199.998
0
VERTEX
8
CONTOURS_MINEURES
10
173.753
20
198.749
0
VERTEX
8
CONTOURS_MINEURES
10
174.948
20
195.001
0
VERTEX
8
CONTOURS_MINEURES
10
174.972
20
194.971
0
VERTEX
8
CONTOURS_MINEURES
10
175.003
20
194.919
0
VERTEX
8
CONTOURS_MINEURES
10
178.660
20
190.005
0
VERTEX
8
CONTOURS_MINEURES
10
179.335
20
189.337
0
VERTEX
8
CONTOURS_MINEURES
10
179.966
20
184.998
0
VERTEX
8
CONTOURS_MINEURES
10
179.983
20
184.979
0
VERTEX
8
CONTOURS_MINEURES
10
180.001
20
184.498
0
VERTEX
8
CONTOURS_MINEURES
10
180.557
20
180.556
0
VERTEX
8
CONTOURS_MINEURES
10
180.501
20
180.001
0
VERTEX
8
CONTOURS_MINEURES
10
180.635
20
179.368
0
VERTEX
8
CONTOURS_MINEURES
10
182.438
20
175.005
0
VERTEX
8
CONTOURS_MINEURES
10
183.495
20
173.498
0
VERTEX
8
CONTOURS_MINEURES
10
183.770
20
169.997
0
VERTEX
8
CONTOURS_MINEURES
10
184.800
20
165.201
0
VERTEX
8
CONTOURS_MINEURES
10
184.890
20
165.001
0
VERTEX
8
CONTOURS_MINEURES
10
185.000
20
164.525
0
VERTEX
8
CONTOURS_MINEURES
10
186.814
20
160.004
0
VERTEX
8
CONTOURS_MINEURES
10
187.880
20
157.883
0
VERTEX
8
CONTOURS_MINEURES
10
188.486
20
154.997
0
VERTEX
8
CONTOURS_MINEURES
10
188.748
20
153.748
0
VERTEX
8
CONTOURS_MINEURES
10
189.970
20
150.001
0
VERTEX
8
CONTOURS_MINEURES
10
189.974
20
149.977
0
VERTEX
8
CONTOURS_MINEURES
10
189.998
20
149.862
0
VERTEX
8
CONTOURS_MINEURES
10
192.649
20
145.004
0
VERTEX
8
CONTOURS_MINEURES
10
193.462
20
143.467
0
VERTEX
8
CONTOURS_MINEURES
10
194.996
20
140.153
0
VERTEX
8
CONTOURS_MINEURES
10
195.116
20
139.997
0
VERTEX
8
CONTOURS_MINEURES
10
197.303
20
137.301
0
VERTEX
8
CONTOURS_MINEURES
10
198.434
20
135.000
0
VERTEX
8
CONTOURS_MINEURES
10
199.220
20
134.217
0
VERTEX
8
CONTOURS_MINEURES
10
200.005
20
133.369
0
VERTEX
8
CONTOURS_MINEURES
10
202.504
20
132.502
0
VERTEX
8
CONTOURS_MINEURES
10
205.004
20
131.863
0
VERTEX
8
CONTOURS_MINEURES
10
207.703
20
132.302
0
VERTEX
8
CONTOURS_MINEURES
10
210.002
20
134.260
0
VERTEX
8
CONTOURS_MINEURES
10
210.262
20
134.741
0
VERTEX
8
CONTOURS_MINEURES
10
210.347
20
135.000
0
VERTEX
8
CONTOURS_MINEURES
10
210.353
20
135.351
0
VERTEX
8
CONTOURS_MINEURES
10
211.216
20
139.997
0
VERTEX
8
CONTOURS_MINEURES
10
212.269
20
142.733
0
VERTEX
8
CONTOURS_MINEURES
10
213.189
20
145.004
0
VERTEX
8
CONTOURS_MINEURES
10
215.000
20
149.465
0
VERTEX
8
CONTOURS_MINEURES
10
215.112
20
150.001
0
VERTEX
8
CONTOURS_MINEURES
10
215.000
20
150.264
0
VERTEX
8
CONTOURS_MINEURES
10
213.164
20
153.162
0
VERTEX
8
CONTOURS_MINEURES
10
213.177
20
154.997
0
VERTEX
8
CONTOURS_MINEURES
10
213.213
20
156.788
0
VERTEX
8
CONTOURS_MINEURES
10
212.940
20
160.004
0
VERTEX
8
CONTOURS_MINEURES
10
212.923
20
162.924
0
VERTEX
8
CONTOURS_MINEURES
10
212.972
20
165.001
0
VERTEX
8
CONTOURS_MINEURES
10
213.007
20
166.994
0
VERTEX
8
CONTOURS_MINEURES
10
213.172
20
169.997
0
VERTEX
8
CONTOURS_MINEURES
10
213.296
20
171.704
0
VERTEX
8
CONTOURS_MINEURES
10
214.029
20
175.005
0
VERTEX
8
CONTOURS_MINEURES
10
214.022
20
175.983
0
VERTEX
8
CONTOURS_MINEURES
10
214.050
20
180.001
0
VERTEX
8
CONTOURS_MINEURES
10
213.894
20
181.107
0
VERTEX
8
CONTOURS_MINEURES
10
213.370
20
184.998
0
VERTEX
8
CONTOURS_MINEURES
10
212.597
20
187.597
0
VERTEX
8
CONTOURS_MINEURES
10
211.617
20
190.005
0
VERTEX
8
CONTOURS_MINEURES
10
210.002
20
193.687
0
VERTEX
8
CONTOURS_MINEURES
10
209.421
20
195.001
0
VERTEX
8
CONTOURS_MINEURES
10
209.045
20
199.041
0
VERTEX
8
CONTOURS_MINEURES
10
209.142
20
199.998
0
VERTEX
8
CONTOURS_MINEURES
10
210.002
20
202.110
0
VERTEX
8
CONTOURS_MINEURES
10
210.970
20
204.035
0
VERTEX
8
CONTOURS_MINEURES
10
211.506
20
205.005
0
VERTEX
8
CONTOURS_MINEURES
10
213.855
20
208.857
0
VERTEX
8
CONTOURS_MINEURES
10
214.526
20
210.002
0
SEQEND
0
POLYLINE
8
CONTOURS_MINEURES
66
1
70
0
0
VERTEX
8
CONTOURS_MINEURES
10
178.682
20
210.002
0
VERTEX
8
CONTOURS_MINEURES
10
178.814
20
208.815
0
VERTEX
8
CONTOURS_MINEURES
10
179.487
20
205.005
0
VERTEX
8
CONTOURS_MINEURES
10
180.001
20
201.111
0
VERTEX
8
CONTOURS_MINEURES
10
180.133
20
200.130
0
VERTEX
8
CONTOURS_MINEURES
10
180.153
20
199.998
0
VERTEX
8
CONTOURS_MINEURES
10
180.218
20
199.781
0
VERTEX
8
CONTOURS_MINEURES
10
181.394
20
195.001
0
VERTEX
8
CONTOURS_MINEURES
10
185.000
20
191.720
0
VERTEX
8
CONTOURS_MINEURES
10
186.026
20
191.031
0
VERTEX
8
CONTOURS_MINEURES
10
186.473
20
190.005
0
VERTEX
8
CONTOURS_MINEURES
10
186.686
20
186.687
0
VERTEX
8
CONTOURS_MINEURES
10
186.332
20
184.998
0
VERTEX
8
CONTOURS_MINEURES
10
186.156
20
183.841
0
VERTEX
8
CONTOURS_MINEURES
10
185.847
20
180.001
0
VERTEX
8
CONTOURS_MINEURES
10
186.055
20
178.946
0
VERTEX
8
CONTOURS_MINEURES
10
186.742
20
175.005
0
VERTEX
8
CONTOURS_MINEURES
10
187.136
20
172.138
0
VERTEX
8
CONTOURS_MINEURES
10
187.547
20
169.997
0
VERTEX
8
CONTOURS_MINEURES
10
188.116
20
166.882
0
VERTEX
8
CONTOURS_MINEURES
10
188.728
20
165.001
0
VERTEX
8
CONTOURS_MINEURES
10
189.998
20
160.004
0
VERTEX
8
CONTOURS_MINEURES
10
193.151
20
154.997
0
VERTEX
8
CONTOURS_MINEURES
10
194.021
20
154.022
0
VERTEX
8
CONTOURS_MINEURES
10
194.996
20
152.929
0
VERTEX
8
CONTOURS_MINEURES
10
199.599
20
150.001
0
VERTEX
8
CONTOURS_MINEURES
10
199.797
20
149.792
0
VERTEX
8
CONTOURS_MINEURES
10
200.005
20
149.616
0
VERTEX
8
CONTOURS_MINEURES
10
200.561
20
149.445
0
VERTEX
8
CONTOURS_MINEURES
10
205.004
20
147.451
0
VERTEX
8
CONTOURS_MINEURES
10
208.909
20
150.001
0
VERTEX
8
CONTOURS_MINEURES
10
209.035
20
154.030
0
VERTEX
8
CONTOURS_MINEURES
10
209.533
20
154.997
0
VERTEX
8
CONTOURS_MINEURES
10
209.756
20
159.758
0
VERTEX
8
CONTOURS_MINEURES
10
209.802
20
160.004
0
VERTEX
8
CONTOURS_MINEURES
10
209.826
20
160.181
0
VERTEX
8
CONTOURS_MINEURES
10
210.002
20
163.752
0
VERTEX
8
CONTOURS_MINEURES
10
210.031
20
165.001
0
VERTEX
8
CONTOURS_MINEURES
10
210.118
20
169.882
0
VERTEX
8
CONTOURS_MINEURES
10
210.124
20
169.997
0
VERTEX
8
CONTOURS_MINEURES
10
210.456
20
174.549
0
VERTEX
8
CONTOURS_MINEURES
10
210.557
20
175.005
0
VERTEX
8
CONTOURS_MINEURES
10
210.526
20
179.477
0
VERTEX
8
CONTOURS_MINEURES
10
210.530
20
180.001
0
VERTEX
8
CONTOURS_MINEURES
10
210.002
20
183.748
0
VERTEX
8
CONTOURS_MINEURES
10
209.757
20
184.753
0
VERTEX
8
CONTOURS_MINEURES
10
209.721
20
184.998
0
VERTEX
8
CONTOURS_MINEURES
10
209.548
20
185.453
0
VERTEX
8
CONTOURS_MINEURES
10
207.318
20
190.005
0
VERTEX
8
CONTOURS_MINEURES
10
205.976
20
194.030
0
VERTEX
8
CONTOURS_MINEURES
10
205.546
20
195.001
0
VERTEX
8
CONTOURS_MINEURES
10
205.500
20
195.497
0
VERTEX
8
CONTOURS_MINEURES
10
205.959
20
199.998
0
VERTEX
8
CONTOURS_MINEURES
10
206.616
20
201.613
0
VERTEX
8
CONTOURS_MINEURES
10
207.503
20
205.005
0
VERTEX
8
CONTOURS_MINEURES
10
208.139
20
206.868
0
VERTEX
8
CONTOURS_MINEURES
10
210.002
20
209.634
0
VERTEX
8
CONTOURS_MINEURES
10
210.217
20
210.002
0
SEQEND
0
POLYLINE
8
CONTOURS_MINEURES
66
1
70
0
0
VERTEX
8
CONTOURS_MINEURES
10
185.588
20
210.002
0
VERTEX
8
CONTOURS_MINEURES
10
185.943
20
209.059
0
VERTEX
8
CONTOURS_MINEURES
10
186.883
20
205.005
0
VERTEX
8
CONTOURS_MINEURES
10
187.277
20
202.280
0
VERTEX
8
CONTOURS_MINEURES
10
188.460
20
199.998
0
VERTEX
8
CONTOURS_MINEURES
10
189.998
20
197.037
0
VERTEX
8
CONTOURS_MINEURES
10
193.330
20
196.667
0
VERTEX
8
CONTOURS_MINEURES
10
194.996
20
196.251
0
VERTEX
8
CONTOURS_MINEURES
10
197.401
20
197.600
0
VERTEX
8
CONTOURS_MINEURES
10
200.005
20
198.713
0
VERTEX
8
CONTOURS_MINEURES
10
200.479
20
199.524
0
VERTEX
8
CONTOURS_MINEURES
10
200.575
20
199.998
0
VERTEX
8
CONTOURS_MINEURES
10
201.987
20
203.020
0
VERTEX
8
CONTOURS_MINEURES
10
202.775
20
205.005
0
VERTEX
8
CONTOURS_MINEURES
10
203.512
20
206.496
0
VERTEX
8
CONTOURS_MINEURES
10
205.004
20
209.305
0
VERTEX
8
CONTOURS_MINEURES
10
205.181
20
209.824
0
VERTEX
8
CONTOURS_MINEURES
10
205.301
20
210.002
0
SEQEND
0
POLYLINE
8
CONTOURS_MINEURES
66
1
70
0
0
VERTEX
8
CONTOURS_MINEURES
10
191.942
20
180.001
0
VERTEX
8
CONTOURS_MINEURES
10
193.622
20
178.627
0
VERTEX
8
CONTOURS_MINEURES
10
194.390
20
175.005
0
VERTEX
8
CONTOURS_MINEURES
10
194.996
20
173.464
0
VERTEX
8
CONTOURS_MINEURES
10
198.002
20
169.997
0
VERTEX
8
CONTOURS_MINEURES
10
199.004
20
168.998
0
VERTEX
8
CONTOURS_MINEURES
10
200.005
20
167.999
0
VERTEX
8
CONTOURS_MINEURES
10
201.880
20
169.997
0
VERTEX
8
CONTOURS_MINEURES
10
203.004
20
172.000
0
VERTEX
8
CONTOURS_MINEURES
10
203.754
20
175.005
0
VERTEX
8
CONTOURS_MINEURES
10
203.688
20
176.320
0
VERTEX
8
CONTOURS_MINEURES
10
204.122
20
180.001
0
VERTEX
8
CONTOURS_MINEURES
10
203.504
20
181.500
0
VERTEX
8
CONTOURS_MINEURES
10
201.527
20
184.998
0
VERTEX
8
CONTOURS_MINEURES
10
200.619
20
185.612
0
VERTEX
8
CONTOURS_MINEURES
10
200.005
20
186.400
0
VERTEX
8
CONTOURS_MINEURES
10
198.874
20
186.128
0
VERTEX
8
CONTOURS_MINEURES
10
195.622
20
184.998
0
VERTEX
8
CONTOURS_MINEURES
10
194.996
20
184.581
0
VERTEX
8
CONTOURS_MINEURES
10
191.942
20
180.001
0
SEQEND
0
POLYLINE
8
CONTOURS_MAJEURES
66
1
70
0
0
VERTEX
8
CONTOURS_MAJEURES
10
-0.004
20
3.412
0
VERTEX
8
CONTOURS_MAJEURES
10
1.344
20
3.657
0
VERTEX
8
CONTOURS_MAJEURES
10
5.005
20
3.803
0
VERTEX
8
CONTOURS_MAJEURES
10
8.589
20
3.588
0
VERTEX
8
CONTOURS_MAJEURES
10
10.003
20
3.850
0
VERTEX
8
CONTOURS_MAJEURES
10
10.977
20
4.030
0
VERTEX
8
CONTOURS_MAJEURES
10
15.002
20
4.030
0
VERTEX
8
CONTOURS_MAJEURES
10
19.247
20
4.251
0
VERTEX
8
CONTOURS_MAJEURES
10
20.000
20
4.334
0
VERTEX
8
CONTOURS_MAJEURES
10
24.492
20
4.498
0
VERTEX
8
CONTOURS_MAJEURES
10
24.998
20
4.326
0
VERTEX
8
CONTOURS_MAJEURES
10
28.861
20
3.867
0
VERTEX
8
CONTOURS_MAJEURES
10
29.997
20
3.407
0
VERTEX
8
CONTOURS_MAJEURES
10
33.405
20
1.591
0
VERTEX
8
CONTOURS_MAJEURES
10
34.995
20
1.346
0
VERTEX
8
CONTOURS_MAJEURES
10
36.126
20
1.129
0
VERTEX
8
CONTOURS_MAJEURES
10
40.004
20
0.713
0
VERTEX
8
CONTOURS_MAJEURES
10
42.003
20
-0.002
0
SEQEND
0
POLYLINE
8
CONTOURS_MAJEURES
66
1
70
0
0
VERTEX
8
CONTOURS_MAJEURES
10
-0.004
20
10.542
0
VERTEX
8
CONTOURS_MAJEURES
10
3.175
20
11.827
0
VERTEX
8
CONTOURS_MAJEURES
10
3.369
20
14.998
0
VERTEX
8
CONTOURS_MAJEURES
10
3.097
20
16.906
0
VERTEX
8
CONTOURS_MAJEURES
10
2.321
20
20.006
0
VERTEX
8
CONTOURS_MAJEURES
10
4.066
20
24.065
0
VERTEX
8
CONTOURS_MAJEURES
10
4.146
20
25.002
0
VERTEX
8
CONTOURS_MAJEURES
10
4.556
20
25.449
0
VERTEX
8
CONTOURS_MAJEURES
10
5.005
20
25.716
0
VERTEX
8
CONTOURS_MAJEURES
10
7.004
20
27.000
0
VERTEX
8
CONTOURS_MAJEURES
10
10.003
20
28.749
0
VERTEX
8
CONTOURS_MAJEURES
10
10.981
20
29.021
0
VERTEX
8
CONTOURS_MAJEURES
10
11.669
20
29.998
0
VERTEX
8
CONTOURS_MAJEURES
10
12.371
20
32.365
0
VERTEX
8
CONTOURS_MAJEURES
10
13.574
20
34.995
0
VERTEX
8
CONTOURS_MAJEURES
10
13.982
20
36.017
0
VERTEX
8
CONTOURS_MAJEURES
10
15.002
20
37.777
0
VERTEX
8
CONTOURS_MAJEURES
10
16.601
20
40.002
0
VERTEX
8
CONTOURS_MAJEURES
10
20.000
20
44.249
0
VERTEX
8
CONTOURS_MAJEURES
10
20.882
20
44.999
0
VERTEX
8
CONTOURS_MAJEURES
10
23.204
20
46.792
0
VERTEX
8
CONTOURS_MAJEURES
10
24.628
20
49.995
0
VERTEX
8
CONTOURS_MAJEURES
10
24.998
20
51.998
0
VERTEX
8
CONTOURS_MAJEURES
10
26.664
20
49.995
0
VERTEX
8
CONTOURS_MAJEURES
10
28.886
20
48.885
0
VERTEX
8
CONTOURS_MAJEURES
10
29.997
20
47.996
0
VERTEX
8
CONTOURS_MAJEURES
10
32.139
20
44.999
0
VERTEX
8
CONTOURS_MAJEURES
10
34.995
20
41.001
0
VERTEX
8
CONTOURS_MAJEURES
10
35.290
20
40.296
0
VERTEX
8
CONTOURS_MAJEURES
10
35.299
20
40.002
0
VERTEX
8
CONTOURS_MAJEURES
10
35.299
20
39.699
0
VERTEX
8
CONTOURS_MAJEURES
10
35.807
20
34.995
0
VERTEX
8
CONTOURS_MAJEURES
10
37.280
20
32.277
0
VERTEX
8
CONTOURS_MAJEURES
10
39.065
20
29.998
0
VERTEX
8
CONTOURS_MAJEURES
10
39.426
20
29.422
0
VERTEX
8
CONTOURS_MAJEURES
10
40.004
20
28.999
0
VERTEX
8
CONTOURS_MAJEURES
10
43.003
20
27.000
0
VERTEX
8
CONTOURS_MAJEURES
10
45.003
20
25.542
0
VERTEX
8
CONTOURS_MAJEURES
10
45.366
20
25.365
0
VERTEX
8
CONTOURS_MAJEURES
10
46.055
20
25.002
0
VERTEX
8
CONTOURS_MAJEURES
10
46.820
20
23.185
0
VERTEX
8
CONTOURS_MAJEURES
10
47.502
20
20.006
0
VERTEX
8
CONTOURS_MAJEURES
10
45.003
20
18.707
0
VERTEX
8
CONTOURS_MAJEURES
10
42.876
20
17.129
0
VERTEX
8
CONTOURS_MAJEURES
10
40.004
20
15.780
0
VERTEX
8
CONTOURS_MAJEURES
10
39.513
20
15.489
0
VERTEX
8
CONTOURS_MAJEURES
10
38.531
20
14.998
0
VERTEX
8
CONTOURS_MAJEURES
10
34.995
20
13.749
0
VERTEX
8
CONTOURS_MAJEURES
10
31.945
20
13.050
0
VERTEX
8
CONTOURS_MAJEURES
10
29.997
20
12.553
0
VERTEX
8
CONTOURS_MAJEURES
10
27.690
20
12.308
0
VERTEX
8
CONTOURS_MAJEURES
10
24.998
20
11.745
0
VERTEX
8
CONTOURS_MAJEURES
10
21.052
20
10.002
0
VERTEX
8
CONTOURS_MAJEURES
10
21.666
20
8.336
0
VERTEX
8
CONTOURS_MAJEURES
10
20.000
20
8.669
0
VERTEX
8
CONTOURS_MAJEURES
10
18.948
20
8.950
0
VERTEX
8
CONTOURS_MAJEURES
10
15.002
20
7.347
0
VERTEX
8
CONTOURS_MAJEURES
10
12.346
20
7.347
0
VERTEX
8
CONTOURS_MAJEURES
10
10.003
20
6.879
0
VERTEX
8
CONTOURS_MAJEURES
10
7.798
20
7.210
0
VERTEX
8
CONTOURS_MAJEURES
10
5.005
20
6.939
0
VERTEX
8
CONTOURS_MAJEURES
10
2.121
20
7.125
0
VERTEX
8
CONTOURS_MAJEURES
10
-0.004
20
8.891
0
SEQEND
0
POLYLINE
8
CONTOURS_MAJEURES
66
1
70
0
0
VERTEX
8
CONTOURS_MAJEURES
10
90.177
20
210.002
0
VERTEX
8
CONTOURS_MAJEURES
10
90.276
20
209.724
0
VERTEX
8
CONTOURS_MAJEURES
10
91.850
20
205.005
0
VERTEX
8
CONTOURS_MAJEURES
10
92.818
20
202.823
0
VERTEX
8
CONTOURS_MAJEURES
10
94.071
20
199.998
0
VERTEX
8
CONTOURS_MAJEURES
10
94.997
20
198.213
0
VERTEX
8
CONTOURS_MAJEURES
10
97.139
20
195.001
0
VERTEX
8
CONTOURS_MAJEURES
10
98.060
20
193.067
0
VERTEX
8
CONTOURS_MAJEURES
10
99.995
20
191.254
0
VERTEX
8
CONTOURS_MAJEURES
10
100.830
20
190.838
0
VERTEX
8
CONTOURS_MAJEURES
10
101.108
20
190.005
0
VERTEX
8
CONTOURS_MAJEURES
10
104.002
20
185.999
0
VERTEX
8
CONTOURS_MAJEURES
10
104.796
20
184.998
0
VERTEX
8
CONTOURS_MAJEURES
10
104.853
20
184.846
0
VERTEX
8
CONTOURS_MAJEURES
10
105.004
20
184.770
0
VERTEX
8
CONTOURS_MAJEURES
10
107.286
20
182.282
0
VERTEX
8
CONTOURS_MAJEURES
10
110.003
20
181.094
0
VERTEX
8
CONTOURS_MAJEURES
10
111.752
20
180.001
0
VERTEX
8
CONTOURS_MAJEURES
10
115.001
20
178.033
0
VERTEX
8
CONTOURS_MAJEURES
10
117.500
20
177.503
0
VERTEX
8
CONTOURS_MAJEURES
10
119.999
20
176.432
0
VERTEX
8
CONTOURS_MAJEURES
10
123.075
20
175.005
0
VERTEX
8
CONTOURS_MAJEURES
10
122.665
20
172.334
0
VERTEX
8
CONTOURS_MAJEURES
10
123.407
20
169.997
0
VERTEX
8
CONTOURS_MAJEURES
10
123.831
20
168.831
0
VERTEX
8
CONTOURS_MAJEURES
10
124.421
20
165.001
0
VERTEX
8
CONTOURS_MAJEURES
10
124.998
20
164.376
0
VERTEX
8
CONTOURS_MAJEURES
10
129.371
20
160.004
0
VERTEX
8
CONTOURS_MAJEURES
10
129.655
20
159.663
0
VERTEX
8
CONTOURS_MAJEURES
10
129.996
20
159.379
0
VERTEX
8
CONTOURS_MAJEURES
10
131.909
20
156.909
0
VERTEX
8
CONTOURS_MAJEURES
10
132.626
20
154.997
0
VERTEX
8
CONTOURS_MAJEURES
10
133.830
20
153.825
0
VERTEX
8
CONTOURS_MAJEURES
10
135.005
20
153.660
0
VERTEX
8
CONTOURS_MAJEURES
10
136.513
20
153.490
0
VERTEX
8
CONTOURS_MAJEURES
10
140.004
20
152.715
0
VERTEX
8
CONTOURS_MAJEURES
10
142.503
20
152.499
0
VERTEX
8
CONTOURS_MAJEURES
10
145.002
20
152.283
0
VERTEX
8
CONTOURS_MAJEURES
10
147.934
20
152.066
0
VERTEX
8
CONTOURS_MAJEURES
10
150.000
20
152.066
0
VERTEX
8
CONTOURS_MAJEURES
10
153.859
20
151.140
0
VERTEX
8
CONTOURS_MAJEURES
10
154.999
20
151.250
0
VERTEX
8
CONTOURS_MAJEURES
10
157.319
20
150.001
0
VERTEX
8
CONTOURS_MAJEURES
10
158.682
20
148.686
0
VERTEX
8
CONTOURS_MAJEURES
10
159.997
20
147.003
0
VERTEX
8
CONTOURS_MAJEURES
10
161.108
20
145.004
0
VERTEX
8
CONTOURS_MAJEURES
10
162.663
20
142.667
0
VERTEX
8
CONTOURS_MAJEURES
10
164.873
20
139.997
0
VERTEX
8
CONTOURS_MAJEURES
10
164.995
20
139.841
0
VERTEX
8
CONTOURS_MAJEURES
10
166.564
20
136.565
0
VERTEX
8
CONTOURS_MAJEURES
10
167.182
20
135.000
0
VERTEX
8
CONTOURS_MAJEURES
10
169.309
20
130.698
0
VERTEX
8
CONTOURS_MAJEURES
10
169.587
20
130.004
0
VERTEX
8
CONTOURS_MAJEURES
10
169.670
20
129.670
0
VERTEX
8
CONTOURS_MAJEURES
10
170.004
20
129.002
0
VERTEX
8
CONTOURS_MAJEURES
10
170.930
20
125.924
0
VERTEX
8
CONTOURS_MAJEURES
10
171.433
20
124.996
0
VERTEX
8
CONTOURS_MAJEURES
10
172.316
20
122.310
0
VERTEX
8
CONTOURS_MAJEURES
10
173.416
20
120.000
0
VERTEX
8
CONTOURS_MAJEURES
10
173.798
20
118.796
0
VERTEX
8
CONTOURS_MAJEURES
10
175.003
20
116.554
0
VERTEX
8
CONTOURS_MAJEURES
10
175.664
20
115.004
0
VERTEX
8
CONTOURS_MAJEURES
10
177.344
20
112.342
0
VERTEX
8
CONTOURS_MAJEURES
10
179.729
20
109.996
0
VERTEX
8
CONTOURS_MAJEURES
10
180.001
20
109.497
0
VERTEX
8
CONTOURS_MAJEURES
10
181.351
20
106.349
0
VERTEX
8
CONTOURS_MAJEURES
10
182.250
20
105.000
0
VERTEX
8
CONTOURS_MAJEURES
10
183.104
20
103.105
0
VERTEX
8
CONTOURS_MAJEURES
10
185.000
20
100.003
0
VERTEX
8
CONTOURS_MAJEURES
10
186.107
20
96.106
0
VERTEX
8
CONTOURS_MAJEURES
10
186.666
20
94.996
0
VERTEX
8
CONTOURS_MAJEURES
10
187.587
20
92.586
0
VERTEX
8
CONTOURS_MAJEURES
10
189.581
20
89.999
0
VERTEX
8
CONTOURS_MAJEURES
10
189.998
20
89.355
0
VERTEX
8
CONTOURS_MAJEURES
10
192.247
20
87.251
0
VERTEX
8
CONTOURS_MAJEURES
10
194.996
20
85.877
0
VERTEX
8
CONTOURS_MAJEURES
10
196.590
20
85.003
0
VERTEX
8
CONTOURS_MAJEURES
10
198.317
20
83.315
0
VERTEX
8
CONTOURS_MAJEURES
10
200.005
20
82.540
0
VERTEX
8
CONTOURS_MAJEURES
10
201.481
20
81.474
0
VERTEX
8
CONTOURS_MAJEURES
10
204.193
20
79.996
0
VERTEX
8
CONTOURS_MAJEURES
10
204.575
20
79.567
0
VERTEX
8
CONTOURS_MAJEURES
10
205.004
20
78.885
0
VERTEX
8
CONTOURS_MAJEURES
10
207.730
20
77.270
0
VERTEX
8
CONTOURS_MAJEURES
10
208.336
20
79.996
0
VERTEX
8
CONTOURS_MAJEURES
10
209.807
20
80.191
0
VERTEX
8
CONTOURS_MAJEURES
10
210.002
20
80.186
0
VERTEX
8
CONTOURS_MAJEURES
10
213.655
20
85.003
0
VERTEX
8
CONTOURS_MAJEURES
10
214.304
20
85.699
0
VERTEX
8
CONTOURS_MAJEURES
10
215.000
20
85.961
0
VERTEX
8
CONTOURS_MAJEURES
10
217.545
20
87.547
0
VERTEX
8
CONTOURS_MAJEURES
10
219.999
20
89.233
0
VERTEX
8
CONTOURS_MAJEURES
10
220.552
20
89.447
0
VERTEX
8
CONTOURS_MAJEURES
10
221.873
20
89.999
0
VERTEX
8
CONTOURS_MAJEURES
10
224.997
20
91.488
0
VERTEX
8
CONTOURS_MAJEURES
10
228.354
20
93.355
0
VERTEX
8
CONTOURS_MAJEURES
10
229.996
20
94.216
0
VERTEX
8
CONTOURS_MAJEURES
10
230.598
20
94.395
0
VERTEX
8
CONTOURS_MAJEURES
10
231.745
20
94.996
0
VERTEX
8
CONTOURS_MAJEURES
10
235.005
20
96.951
0
VERTEX
8
CONTOURS_MAJEURES
10
237.388
20
97.383
0
VERTEX
8
CONTOURS_MAJEURES
10
240.003
20
98.044
0
VERTEX
8
CONTOURS_MAJEURES
10
243.502
20
94.996
0
VERTEX
8
CONTOURS_MAJEURES
10
245.001
20
91.152
0
VERTEX
8
CONTOURS_MAJEURES
10
245.386
20
90.384
0
VERTEX
8
CONTOURS_MAJEURES
10
245.451
20
89.999
0
VERTEX
8
CONTOURS_MAJEURES
10
245.531
20
89.470
0
VERTEX
8
CONTOURS_MAJEURES
10
246.577
20
85.003
0
VERTEX
8
CONTOURS_MAJEURES
10
246.001
20
80.997
0
VERTEX
8
CONTOURS_MAJEURES
10
245.849
20
79.996
0
VERTEX
8
CONTOURS_MAJEURES
10
245.001
20
78.512
0
VERTEX
8
CONTOURS_MAJEURES
10
244.028
20
75.973
0
VERTEX
8
CONTOURS_MAJEURES
10
243.805
20
74.999
0
VERTEX
8
CONTOURS_MAJEURES
10
242.774
20
72.773
0
VERTEX
8
CONTOURS_MAJEURES
10
241.720
20
70.003
0
VERTEX
8
CONTOURS_MAJEURES
10
240.003
20
66.161
0
VERTEX
8
CONTOURS_MAJEURES
10
239.497
20
65.502
0
VERTEX
8
CONTOURS_MAJEURES
10
238.429
20
64.995
0
VERTEX
8
CONTOURS_MAJEURES
10
235.005
20
62.277
0
VERTEX
8
CONTOURS_MAJEURES
10
231.222
20
61.223
0
VERTEX
8
CONTOURS_MAJEURES
10
229.996
20
60.617
0
VERTEX
8
CONTOURS_MAJEURES
10
229.478
20
60.516
0
VERTEX
8
CONTOURS_MAJEURES
10
224.997
20
59.999
0
VERTEX
8
CONTOURS_MAJEURES
10
219.999
20
59.333
0
VERTEX
8
CONTOURS_MAJEURES
10
216.177
20
55.002
0
VERTEX
8
CONTOURS_MAJEURES
10
215.357
20
50.353
0
VERTEX
8
CONTOURS_MAJEURES
10
215.357
20
49.995
0
VERTEX
8
CONTOURS_MAJEURES
10
215.357
20
45.356
0
VERTEX
8
CONTOURS_MAJEURES
10
215.334
20
44.999
0
VERTEX
8
CONTOURS_MAJEURES
10
215.313
20
44.686
0
VERTEX
8
CONTOURS_MAJEURES
10
215.313
20
40.002
0
VERTEX
8
CONTOURS_MAJEURES
10
215.000
20
39.547
0
VERTEX
8
CONTOURS_MAJEURES
10
210.002
20
34.995
0
VERTEX
8
CONTOURS_MAJEURES
10
205.004
20
34.995
0
VERTEX
8
CONTOURS_MAJEURES
10
210.002
20
34.995
0
VERTEX
8
CONTOURS_MAJEURES
10
206.157
20
29.998
0
VERTEX
8
CONTOURS_MAJEURES
10
207.146
20
27.857
0
VERTEX
8
CONTOURS_MAJEURES
10
208.574
20
25.002
0
VERTEX
8
CONTOURS_MAJEURES
10
208.336
20
23.336
0
VERTEX
8
CONTOURS_MAJEURES
10
207.356
20
20.006
0
VERTEX
8
CONTOURS_MAJEURES
10
208.451
20
18.451
0
VERTEX
8
CONTOURS_MAJEURES
10
210.002
20
16.250
0
VERTEX
8
CONTOURS_MAJEURES
10
211.876
20
14.998
0
VERTEX
8
CONTOURS_MAJEURES
10
213.334
20
13.333
0
VERTEX
8
CONTOURS_MAJEURES
10
212.942
20
10.002
0
VERTEX
8
CONTOURS_MAJEURES
10
212.001
20
8.003
0
VERTEX
8
CONTOURS_MAJEURES
10
210.002
20
5.005
0
VERTEX
8
CONTOURS_MAJEURES
10
206.157
20
6.158
0
VERTEX
8
CONTOURS_MAJEURES
10
205.004
20
5.582
0
VERTEX
8
CONTOURS_MAJEURES
10
203.640
20
5.005
0
VERTEX
8
CONTOURS_MAJEURES
10
204.122
20
4.122
0
VERTEX
8
CONTOURS_MAJEURES
10
205.004
20
2.859
0
VERTEX
8
CONTOURS_MAJEURES
10
205.837
20
4.171
0
VERTEX
8
CONTOURS_MAJEURES
10
210.002
20
5.005
0
VERTEX
8
CONTOURS_MAJEURES
10
212.501
20
2.502
0
VERTEX
8
CONTOURS_MAJEURES
10
215.000
20
1.591
0
VERTEX
8
CONTOURS_MAJEURES
10
217.059
20
-0.002
0
SEQEND
0
POLYLINE
8
CONTOURS_MAJEURES
66
1
70
0
0
VERTEX
8
CONTOURS_MAJEURES
10
165.316
20
210.002
0
VERTEX
8
CONTOURS_MAJEURES
10
165.986
20
205.994
0
VERTEX
8
CONTOURS_MAJEURES
10
166.044
20
205.005
0
VERTEX
8
CONTOURS_MAJEURES
10
166.166
20
203.835
0
VERTEX
8
CONTOURS_MAJEURES
10
166.958
20
199.998
0
VERTEX
8
CONTOURS_MAJEURES
10
168.073
20
198.071
0
VERTEX
8
CONTOURS_MAJEURES
10
169.523
20
195.001
0
VERTEX
8
CONTOURS_MAJEURES
10
170.004
20
194.298
0
VERTEX
8
CONTOURS_MAJEURES
10
171.887
20
191.886
0
VERTEX
8
CONTOURS_MAJEURES
10
173.023
20
190.005
0
VERTEX
8
CONTOURS_MAJEURES
10
175.003
20
187.592
0
VERTEX
8
CONTOURS_MAJEURES
10
176.305
20
186.303
0
VERTEX
8
CONTOURS_MAJEURES
10
176.495
20
184.998
0
VERTEX
8
CONTOURS_MAJEURES
10
178.124
20
183.122
0
VERTEX
8
CONTOURS_MAJEURES
10
178.245
20
180.001
0
VERTEX
8
CONTOURS_MAJEURES
10
179.021
20
175.985
0
VERTEX
8
CONTOURS_MAJEURES
10
179.402
20
175.005
0
VERTEX
8
CONTOURS_MAJEURES
10
180.001
20
172.589
0
VERTEX
8
CONTOURS_MAJEURES
10
181.069
20
171.067
0
VERTEX
8
CONTOURS_MAJEURES
10
181.153
20
169.997
0
VERTEX
8
CONTOURS_MAJEURES
10
181.467
20
168.532
0
VERTEX
8
CONTOURS_MAJEURES
10
183.073
20
165.001
0
VERTEX
8
CONTOURS_MAJEURES
10
183.986
20
161.018
0
VERTEX
8
CONTOURS_MAJEURES
10
184.288
20
160.004
0
VERTEX
8
CONTOURS_MAJEURES
10
184.057
20
159.060
0
VERTEX
8
CONTOURS_MAJEURES
10
185.000
20
157.279
0
VERTEX
8
CONTOURS_MAJEURES
10
185.762
20
155.761
0
VERTEX
8
CONTOURS_MAJEURES
10
185.922
20
154.997
0
VERTEX
8
CONTOURS_MAJEURES
10
186.630
20
151.631
0
VERTEX
8
CONTOURS_MAJEURES
10
187.162
20
150.001
0
VERTEX
8
CONTOURS_MAJEURES
10
187.628
20
147.631
0
VERTEX
8
CONTOURS_MAJEURES
10
188.162
20
145.004
0
VERTEX
8
CONTOURS_MAJEURES
10
188.942
20
141.055
0
VERTEX
8
CONTOURS_MAJEURES
10
189.146
20
139.997
0
VERTEX
8
CONTOURS_MAJEURES
10
189.284
20
139.283
0
VERTEX
8
CONTOURS_MAJEURES
10
189.998
20
135.946
0
VERTEX
8
CONTOURS_MAJEURES
10
190.484
20
135.000
0
VERTEX
8
CONTOURS_MAJEURES
10
191.664
20
133.335
0
VERTEX
8
CONTOURS_MAJEURES
10
194.011
20
130.004
0
VERTEX
8
CONTOURS_MAJEURES
10
194.996
20
128.446
0
VERTEX
8
CONTOURS_MAJEURES
10
196.581
20
126.580
0
VERTEX
8
CONTOURS_MAJEURES
10
197.820
20
124.996
0
VERTEX
8
CONTOURS_MAJEURES
10
200.005
20
122.598
0
VERTEX
8
CONTOURS_MAJEURES
10
201.761
20
121.756
0
VERTEX
8
CONTOURS_MAJEURES
10
203.718
20
120.000
0
VERTEX
8
CONTOURS_MAJEURES
10
205.004
20
118.876
0
VERTEX
8
CONTOURS_MAJEURES
10
208.783
20
118.781
0
VERTEX
8
CONTOURS_MAJEURES
10
210.002
20
118.335
0
VERTEX
8
CONTOURS_MAJEURES
10
210.945
20
119.057
0
VERTEX
8
CONTOURS_MAJEURES
10
211.564
20
120.000
0
VERTEX
8
CONTOURS_MAJEURES
10
215.000
20
123.926
0
VERTEX
8
CONTOURS_MAJEURES
10
215.366
20
124.996
0
VERTEX
8
CONTOURS_MAJEURES
10
216.311
20
128.691
0
VERTEX
8
CONTOURS_MAJEURES
10
216.298
20
130.004
0
VERTEX
8
CONTOURS_MAJEURES
10
216.337
20
131.340
0
VERTEX
8
CONTOURS_MAJEURES
10
216.916
20
135.000
0
VERTEX
8
CONTOURS_MAJEURES
10
216.942
20
138.056
0
VERTEX
8
CONTOURS_MAJEURES
10
217.136
20
139.997
0
VERTEX
8
CONTOURS_MAJEURES
10
217.611
20
142.612
0
VERTEX
8
CONTOURS_MAJEURES
10
218.177
20
145.004
0
VERTEX
8
CONTOURS_MAJEURES
10
218.537
20
148.539
0
VERTEX
8
CONTOURS_MAJEURES
10
218.842
20
150.001
0
VERTEX
8
CONTOURS_MAJEURES
10
217.986
20
152.012
0
VERTEX
8
CONTOURS_MAJEURES
10
216.679
20
154.997
0
VERTEX
8
CONTOURS_MAJEURES
10
216.493
20
156.493
0
VERTEX
8
CONTOURS_MAJEURES
10
216.143
20
160.004
0
VERTEX
8
CONTOURS_MAJEURES
10
216.115
20
163.887
0
VERTEX
8
CONTOURS_MAJEURES
10
216.084
20
165.001
0
VERTEX
8
CONTOURS_MAJEURES
10
216.202
20
166.202
0
VERTEX
8
CONTOURS_MAJEURES
10
216.449
20
169.997
0
VERTEX
8
CONTOURS_MAJEURES
10
216.961
20
171.961
0
VERTEX
8
CONTOURS_MAJEURES
10
217.686
20
175.005
0
VERTEX
8
CONTOURS_MAJEURES
10
217.703
20
177.299
0
VERTEX
8
CONTOURS_MAJEURES
10
217.873
20
180.001
0
VERTEX
8
CONTOURS_MAJEURES
10
217.552
20
182.552
0
VERTEX
8
CONTOURS_MAJEURES
10
217.177
20
184.998
0
VERTEX
8
CONTOURS_MAJEURES
10
215.732
20
189.272
0
VERTEX
8
CONTOURS_MAJEURES
10
215.588
20
190.005
0
VERTEX
8
CONTOURS_MAJEURES
10
215.458
20
190.463
0
VERTEX
8
CONTOURS_MAJEURES
10
215.000
20
191.021
0
VERTEX
8
CONTOURS_MAJEURES
10
213.221
20
195.001
0
VERTEX
8
CONTOURS_MAJEURES
10
213.059
20
198.057
0
VERTEX
8
CONTOURS_MAJEURES
10
212.875
20
199.998
0
VERTEX
8
CONTOURS_MAJEURES
10
213.587
20
201.414
0
VERTEX
8
CONTOURS_MAJEURES
10
215.000
20
203.974
0
VERTEX
8
CONTOURS_MAJEURES
10
215.875
20
205.005
0
VERTEX
8
CONTOURS_MAJEURES
10
217.870
20
207.133
0
VERTEX
8
CONTOURS_MAJEURES
10
219.999
20
209.784
0
VERTEX
8
CONTOURS_MAJEURES
10
220.191
20
210.002
0
SEQEND
0
POLYLINE
8
PARCELLE
66
1
70
1
0
VERTEX
8
PARCELLE
10
81.565
20
21.174
0
VERTEX
8
PARCELLE
10
79.062
20
27.297
0
VERTEX
8
PARCELLE
10
77.110
20
32.227
0
VERTEX
8
PARCELLE
10
75.227
20
36.956
0
VERTEX
8
PARCELLE
10
70.403
20
48.292
0
VERTEX
8
PARCELLE
10
63.668
20
64.585
0
VERTEX
8
PARCELLE
10
57.197
20
81.288
0
VERTEX
8
PARCELLE
10
52.037
20
94.254
0
VERTEX
8
PARCELLE
10
46.739
20
107.690
0
VERTEX
8
PARCELLE
10
39.860
20
124.596
0
VERTEX
8
PARCELLE
10
32.920
20
141.602
0
VERTEX
8
PARCELLE
10
24.977
20
162.080
0
VERTEX
8
PARCELLE
10
20.000
20
174.106
0
VERTEX
8
PARCELLE
10
87.717
20
180.444
0
VERTEX
8
PARCELLE
10
158.656
20
187.098
0
VERTEX
8
PARCELLE
10
242.762
20
194.969
0
VERTEX
8
PARCELLE
10
250.931
20
126.837
0
VERTEX
8
PARCELLE
10
257.292
20
70.676
0
VERTEX
8
PARCELLE
10
257.469
20
69.086
0
VERTEX
8
PARCELLE
10
227.492
20
66.058
0
VERTEX
8
PARCELLE
10
229.405
20
36.353
0
VERTEX
8
PARCELLE
10
229.405
20
36.333
0
VERTEX
8
PARCELLE
10
224.701
20
35.790
0
VERTEX
8
PARCELLE
10
199.926
20
33.201
0
VERTEX
8
PARCELLE
10
191.823
20
78.487
0
VERTEX
8
PARCELLE
10
154.229
20
70.551
0
VERTEX
8
PARCELLE
10
157.642
20
29.126
0
VERTEX
8
PARCELLE
10
150.537
20
28.341
0
VERTEX
8
PARCELLE
10
123.098
20
25.064
0
VERTEX
8
PARCELLE
10
90.615
20
21.304
0
VERTEX
8
PARCELLE
10
83.487
20
20.180
0
VERTEX
8
PARCELLE
10
82.166
20
20.000
0
VERTEX
8
PARCELLE
10
81.565
20
21.174
0
SEQEND
0
TEXT
8
POINTS_COTES
10
-0.004
20
-0.002
40
1.0
1
24.7
0
TEXT
8
POINTS_COTES
10
40.004
20
10.002
40
1.0
1
25.4
0
TEXT
8
POINTS_COTES
10
80.002
20
20.006
40
1.0
1
26.5
0
TEXT
8
POINTS_COTES
10
119.999
20
29.998
40
1.0
1
27.2
0
TEXT
8
POINTS_COTES
10
159.997
20
40.002
40
1.0
1
28.5
0
TEXT
8
POINTS_COTES
10
200.005
20
49.995
40
1.0
1
29.6
0
TEXT
8
POINTS_COTES
10
240.003
20
59.999
40
1.0
1
30.6
0
TEXT
8
POINTS_COTES
10
-0.004
20
74.999
40
1.0
1
26.6
0
TEXT
8
POINTS_COTES
10
40.004
20
85.003
40
1.0
1
26.9
0
TEXT
8
POINTS_COTES
10
80.002
20
94.996
40
1.0
1
27.4
0
TEXT
8
POINTS_COTES
10
119.999
20
105.000
40
1.0
1
27.9
0
TEXT
8
POINTS_COTES
10
159.997
20
115.004
40
1.0
1
28.6
0
TEXT
8
POINTS_COTES
10
200.005
20
124.996
40
1.0
1
35.2
0
TEXT
8
POINTS_COTES
10
240.003
20
135.000
40
1.0
1
32.4
0
TEXT
8
POINTS_COTES
10
-0.004
20
150.001
40
1.0
1
28.0
0
TEXT
8
POINTS_COTES
10
40.004
20
160.004
40
1.0
1
28.6
0
TEXT
8
POINTS_COTES
10
80.002
20
169.997
40
1.0
1
29.5
0
TEXT
8
POINTS_COTES
10
119.999
20
180.001
40
1.0
1
30.2
0
TEXT
8
POINTS_COTES
10
159.997
20
190.005
40
1.0
1
32.6
0
TEXT
8
POINTS_COTES
10
200.005
20
199.998
40
1.0
1
38.1
0
TEXT
8
POINTS_COTES
10
240.003
20
210.002
40
1.0
1
33.6
0
ENDSEC
0
EOF
