0
SECTION
2
HEADER
0
ENDSEC
0
SECTION
2
TABLES
0
TABLE
2
LAYER
70
4
0
LAYER
2
CONTOURS_MINEURES
70
0
62
8
6
CONTINUOUS
0
LAYER
2
CONTOURS_MAJEURES
70
0
62
3
6
CONTINUOUS
0
LAYER
2
PARCELLE
70
0
62
4
6
CONTINUOUS
0
LAYER
2
POINTS_COTES
70
0
62
7
6
CONTINUOUS
0
ENDTAB
0
ENDSEC
0
SECTION
2
ENTITIES
0
POLYLINE
8
CONTOURS_MINEURES
66
1
70
0
0
VERTEX
8
CONTOURS_MINEURES
10
0.005
20
175.963
0
VERTEX
8
CONTOURS_MINEURES
10
3.516
20
176.485
0
VERTEX
8
CONTOURS_MINEURES
10
4.996
20
176.650
0
VERTEX
8
CONTOURS_MINEURES
10
8.212
20
176.787
0
VERTEX
8
CONTOURS_MINEURES
10
9.999
20
176.914
0
VERTEX
8
CONTOURS_MINEURES
10
11.966
20
176.967
0
VERTEX
8
CONTOURS_MINEURES
10
15.001
20
177.001
0
VERTEX
8
CONTOURS_MINEURES
10
17.890
20
177.113
0
VERTEX
8
CONTOURS_MINEURES
10
20.003
20
177.058
0
VERTEX
8
CONTOURS_MINEURES
10
21.985
20
176.986
0
VERTEX
8
CONTOURS_MINEURES
10
24.995
20
177.074
0
VERTEX
8
CONTOURS_MINEURES
10
27.952
20
177.045
0
VERTEX
8
CONTOURS_MINEURES
10
29.997
20
177.086
0
VERTEX
8
CONTOURS_MINEURES
10
33.051
20
176.948
0
VERTEX
8
CONTOURS_MINEURES
10
34.999
20
177.190
0
VERTEX
8
CONTOURS_MINEURES
10
37.970
20
177.032
0
VERTEX
8
CONTOURS_MINEURES
10
40.002
20
177.580
0
VERTEX
8
CONTOURS_MINEURES
10
42.734
20
177.732
0
VERTEX
8
CONTOURS_MINEURES
10
45.004
20
176.825
0
VERTEX
8
CONTOURS_MINEURES
10
45.965
20
175.965
0
VERTEX
8
CONTOURS_MINEURES
10
46.262
20
175.003
0
VERTEX
8
CONTOURS_MINEURES
10
45.864
20
174.140
0
VERTEX
8
CONTOURS_MINEURES
10
45.004
20
173.947
0
VERTEX
8
CONTOURS_MINEURES
10
41.798
20
173.204
0
VERTEX
8
CONTOURS_MINEURES
10
40.002
20
172.661
0
VERTEX
8
CONTOURS_MINEURES
10
35.608
20
170.604
0
VERTEX
8
CONTOURS_MINEURES
10
34.999
20
170.538
0
VERTEX
8
CONTOURS_MINEURES
10
34.510
20
170.485
0
VERTEX
8
CONTOURS_MINEURES
10
34.134
20
169.995
0
VERTEX
8
CONTOURS_MINEURES
10
29.997
20
168.404
0
VERTEX
8
CONTOURS_MINEURES
10
27.659
20
167.660
0
VERTEX
8
CONTOURS_MINEURES
10
24.995
20
166.631
0
VERTEX
8
CONTOURS_MINEURES
10
23.548
20
166.447
0
VERTEX
8
CONTOURS_MINEURES
10
20.003
20
166.127
0
VERTEX
8
CONTOURS_MINEURES
10
18.916
20
166.085
0
VERTEX
8
CONTOURS_MINEURES
10
15.001
20
165.530
0
VERTEX
8
CONTOURS_MINEURES
10
14.565
20
165.434
0
VERTEX
8
CONTOURS_MINEURES
10
13.404
20
164.999
0
VERTEX
8
CONTOURS_MINEURES
10
9.999
20
162.500
0
VERTEX
8
CONTOURS_MINEURES
10
8.966
20
161.034
0
VERTEX
8
CONTOURS_MINEURES
10
4.996
20
160.121
0
VERTEX
8
CONTOURS_MINEURES
10
4.898
20
160.101
0
VERTEX
8
CONTOURS_MINEURES
10
3.844
20
160.002
0
VERTEX
8
CONTOURS_MINEURES
10
1.391
20
158.611
0
VERTEX
8
CONTOURS_MINEURES
10
0.005
20
156.873
0
SEQEND
0
POLYLINE
8
CONTOURS_MINEURES
66
1
70
0
0
VERTEX
8
CONTOURS_MINEURES
10
0.005
20
119.403
0
VERTEX
8
CONTOURS_MINEURES
10
0.613
20
119.388
0
VERTEX
8
CONTOURS_MINEURES
10
4.996
20
119.555
0
VERTEX
8
CONTOURS_MINEURES
10
8.562
20
118.563
0
VERTEX
8
CONTOURS_MINEURES
10
9.999
20
116.464
0
VERTEX
8
CONTOURS_MINEURES
10
10.749
20
115.751
0
VERTEX
8
CONTOURS_MINEURES
10
10.967
20
115.001
0
VERTEX
8
CONTOURS_MINEURES
10
11.818
20
113.185
0
VERTEX
8
CONTOURS_MINEURES
10
12.083
20
110.005
0
VERTEX
8
CONTOURS_MINEURES
10
15.001
20
105.225
0
VERTEX
8
CONTOURS_MINEURES
10
15.173
20
105.170
0
VERTEX
8
CONTOURS_MINEURES
10
15.557
20
104.998
0
VERTEX
8
CONTOURS_MINEURES
10
20.003
20
102.499
0
VERTEX
8
CONTOURS_MINEURES
10
22.665
20
102.666
0
VERTEX
8
CONTOURS_MINEURES
10
22.352
20
100.001
0
VERTEX
8
CONTOURS_MINEURES
10
22.000
20
98.003
0
VERTEX
8
CONTOURS_MINEURES
10
20.003
20
96.004
0
VERTEX
8
CONTOURS_MINEURES
10
18.753
20
95.005
0
VERTEX
8
CONTOURS_MINEURES
10
16.365
20
93.639
0
VERTEX
8
CONTOURS_MINEURES
10
15.001
20
92.859
0
VERTEX
8
CONTOURS_MINEURES
10
13.919
20
91.080
0
VERTEX
8
CONTOURS_MINEURES
10
12.500
20
89.997
0
VERTEX
8
CONTOURS_MINEURES
10
12.500
20
87.499
0
VERTEX
8
CONTOURS_MINEURES
10
12.142
20
85.001
0
VERTEX
8
CONTOURS_MINEURES
10
12.647
20
82.650
0
VERTEX
8
CONTOURS_MINEURES
10
12.500
20
80.004
0
VERTEX
8
CONTOURS_MINEURES
10
13.448
20
78.450
0
VERTEX
8
CONTOURS_MINEURES
10
15.001
20
75.498
0
VERTEX
8
CONTOURS_MINEURES
10
15.358
20
75.355
0
VERTEX
8
CONTOURS_MINEURES
10
16.001
20
74.997
0
VERTEX
8
CONTOURS_MINEURES
10
19.447
20
74.442
0
VERTEX
8
CONTOURS_MINEURES
10
20.003
20
74.228
0
VERTEX
8
CONTOURS_MINEURES
10
21.178
20
73.821
0
VERTEX
8
CONTOURS_MINEURES
10
24.995
20
74.331
0
VERTEX
8
CONTOURS_MINEURES
10
29.330
20
74.331
0
VERTEX
8
CONTOURS_MINEURES
10
29.997
20
72.499
0
VERTEX
8
CONTOURS_MINEURES
10
31.109
20
70.001
0
VERTEX
8
CONTOURS_MINEURES
10
31.498
20
66.503
0
VERTEX
8
CONTOURS_MINEURES
10
32.141
20
65.004
0
VERTEX
8
CONTOURS_MINEURES
10
32.998
20
62.000
0
VERTEX
8
CONTOURS_MINEURES
10
32.498
20
59.997
0
VERTEX
8
CONTOURS_MINEURES
10
33.749
20
58.748
0
VERTEX
8
CONTOURS_MINEURES
10
32.726
20
55.000
0
VERTEX
8
CONTOURS_MINEURES
10
34.285
20
50.718
0
VERTEX
8
CONTOURS_MINEURES
10
34.499
20
50.004
0
VERTEX
8
CONTOURS_MINEURES
10
34.999
20
49.447
0
VERTEX
8
CONTOURS_MINEURES
10
38.078
20
48.078
0
VERTEX
8
CONTOURS_MINEURES
10
40.002
20
47.500
0
VERTEX
8
CONTOURS_MINEURES
10
41.473
20
46.469
0
VERTEX
8
CONTOURS_MINEURES
10
42.503
20
44.996
0
VERTEX
8
CONTOURS_MINEURES
10
40.002
20
40.000
0
VERTEX
8
CONTOURS_MINEURES
10
37.353
20
35.004
0
VERTEX
8
CONTOURS_MINEURES
10
36.482
20
33.520
0
VERTEX
8
CONTOURS_MINEURES
10
34.999
20
30.553
0
VERTEX
8
CONTOURS_MINEURES
10
34.583
20
29.996
0
VERTEX
8
CONTOURS_MINEURES
10
29.997
20
26.070
0
VERTEX
8
CONTOURS_MINEURES
10
29.461
20
25.535
0
VERTEX
8
CONTOURS_MINEURES
10
29.059
20
25.000
0
VERTEX
8
CONTOURS_MINEURES
10
24.995
20
23.244
0
VERTEX
8
CONTOURS_MINEURES
10
20.203
20
20.003
0
VERTEX
8
CONTOURS_MINEURES
10
20.003
20
19.884
0
VERTEX
8
CONTOURS_MINEURES
10
15.730
20
19.273
0
VERTEX
8
CONTOURS_MINEURES
10
15.001
20
19.596
0
VERTEX
8
CONTOURS_MINEURES
10
10.240
20
19.762
0
VERTEX
8
CONTOURS_MINEURES
10
9.999
20
19.577
0
VERTEX
8
CONTOURS_MINEURES
10
7.011
20
14.996
0
VERTEX
8
CONTOURS_MINEURES
10
5.793
20
14.200
0
VERTEX
8
CONTOURS_MINEURES
10
6.172
20
9.999
0
VERTEX
8
CONTOURS_MINEURES
10
6.184
20
8.813
0
VERTEX
8
CONTOURS_MINEURES
10
6.784
20
5.003
0
VERTEX
8
CONTOURS_MINEURES
10
7.082
20
2.084
0
VERTEX
8
CONTOURS_MINEURES
10
9.389
20
-0.004
0
SEQEND
0
POLYLINE
8
CONTOURS_MINEURES
66
1
70
0
0
VERTEX
8
CONTOURS_MINEURES
10
37.501
20
-0.004
0
VERTEX
8
CONTOURS_MINEURES
10
40.002
20
2.647
0
VERTEX
8
CONTOURS_MINEURES
10
40.978
20
4.026
0
VERTEX
8
CONTOURS_MINEURES
10
41.821
20
5.003
0
VERTEX
8
CONTOURS_MINEURES
10
43.337
20
6.669
0
VERTEX
8
CONTOURS_MINEURES
10
45.004
20
8.501
0
VERTEX
8
CONTOURS_MINEURES
10
48.332
20
9.999
0
VERTEX
8
CONTOURS_MINEURES
10
49.496
20
10.499
0
VERTEX
8
CONTOURS_MINEURES
10
49.996
20
10.555
0
VERTEX
8
CONTOURS_MINEURES
10
50.380
20
10.384
0
VERTEX
8
CONTOURS_MINEURES
10
51.068
20
9.999
0
VERTEX
8
CONTOURS_MINEURES
10
53.656
20
8.659
0
VERTEX
8
CONTOURS_MINEURES
10
54.998
20
7.964
0
VERTEX
8
CONTOURS_MINEURES
10
56.832
20
8.167
0
VERTEX
8
CONTOURS_MINEURES
10
60.000
20
8.800
0
VERTEX
8
CONTOURS_MINEURES
10
62.309
20
9.999
0
VERTEX
8
CONTOURS_MINEURES
10
64.081
20
10.920
0
VERTEX
8
CONTOURS_MINEURES
10
65.003
20
10.794
0
VERTEX
8
CONTOURS_MINEURES
10
65.676
20
10.672
0
VERTEX
8
CONTOURS_MINEURES
10
67.504
20
9.999
0
VERTEX
8
CONTOURS_MINEURES
10
70.005
20
8.750
0
VERTEX
8
CONTOURS_MINEURES
10
72.021
20
7.021
0
VERTEX
8
CONTOURS_MINEURES
10
74.037
20
5.003
0
VERTEX
8
CONTOURS_MINEURES
10
72.501
20
2.499
0
VERTEX
8
CONTOURS_MINEURES
10
70.439
20
-0.004
0
SEQEND
0
POLYLINE
8
CONTOURS_MINEURES
66
1
70
0
0
VERTEX
8
CONTOURS_MINEURES
10
24.995
20
38.530
0
VERTEX
8
CONTOURS_MINEURES
10
26.558
20
38.439
0
VERTEX
8
CONTOURS_MINEURES
10
27.774
20
40.000
0
VERTEX
8
CONTOURS_MINEURES
10
27.496
20
42.498
0
VERTEX
8
CONTOURS_MINEURES
10
24.995
20
44.164
0
VERTEX
8
CONTOURS_MINEURES
10
24.035
20
40.961
0
VERTEX
8
CONTOURS_MINEURES
10
24.163
20
40.000
0
VERTEX
8
CONTOURS_MINEURES
10
24.282
20
39.286
0
VERTEX
8
CONTOURS_MINEURES
10
24.995
20
38.530
0
SEQEND
0
POLYLINE
8
CONTOURS_MINEURES
66
1
70
0
0
VERTEX
8
CONTOURS_MINEURES
10
74.996
20
190.527
0
VERTEX
8
CONTOURS_MINEURES
10
79.343
20
190.658
0
VERTEX
8
CONTOURS_MINEURES
10
79.999
20
190.940
0
VERTEX
8
CONTOURS_MINEURES
10
81.349
20
191.352
0
VERTEX
8
CONTOURS_MINEURES
10
84.092
20
190.003
0
VERTEX
8
CONTOURS_MINEURES
10
81.205
20
188.796
0
VERTEX
8
CONTOURS_MINEURES
10
79.999
20
187.749
0
VERTEX
8
CONTOURS_MINEURES
10
76.824
20
184.995
0
VERTEX
8
CONTOURS_MINEURES
10
74.996
20
183.996
0
VERTEX
8
CONTOURS_MINEURES
10
73.303
20
183.300
0
VERTEX
8
CONTOURS_MINEURES
10
70.005
20
182.100
0
VERTEX
8
CONTOURS_MINEURES
10
66.197
20
181.192
0
VERTEX
8
CONTOURS_MINEURES
10
65.003
20
181.566
0
VERTEX
8
CONTOURS_MINEURES
10
63.787
20
184.995
0
VERTEX
8
CONTOURS_MINEURES
10
64.475
20
185.523
0
VERTEX
8
CONTOURS_MINEURES
10
65.003
20
185.985
0
VERTEX
8
CONTOURS_MINEURES
10
66.865
20
186.860
0
VERTEX
8
CONTOURS_MINEURES
10
70.005
20
187.317
0
VERTEX
8
CONTOURS_MINEURES
10
73.781
20
186.215
0
VERTEX
8
CONTOURS_MINEURES
10
73.686
20
190.003
0
VERTEX
8
CONTOURS_MINEURES
10
74.996
20
190.527
0
SEQEND
0
POLYLINE
8
CONTOURS_MINEURES
66
1
70
0
0
VERTEX
8
CONTOURS_MINEURES
10
0.005
20
181.393
0
VERTEX
8
CONTOURS_MINEURES
10
1.508
20
181.504
0
VERTEX
8
CONTOURS_MINEURES
10
4.996
20
181.876
0
VERTEX
8
CONTOURS_MINEURES
10
7.926
20
182.069
0
VERTEX
8
CONTOURS_MINEURES
10
9.999
20
182.217
0
VERTEX
8
CONTOURS_MINEURES
10
12.277
20
182.275
0
VERTEX
8
CONTOURS_MINEURES
10
15.001
20
182.344
0
VERTEX
8
CONTOURS_MINEURES
10
17.725
20
182.275
0
VERTEX
8
CONTOURS_MINEURES
10
20.003
20
182.069
0
VERTEX
8
CONTOURS_MINEURES
10
23.028
20
181.968
0
VERTEX
8
CONTOURS_MINEURES
10
24.995
20
181.752
0
VERTEX
8
CONTOURS_MINEURES
10
26.758
20
181.760
0
VERTEX
8
CONTOURS_MINEURES
10
29.997
20
181.816
0
VERTEX
8
CONTOURS_MINEURES
10
32.915
20
182.081
0
VERTEX
8
CONTOURS_MINEURES
10
34.999
20
182.300
0
VERTEX
8
CONTOURS_MINEURES
10
37.549
20
182.546
0
VERTEX
8
CONTOURS_MINEURES
10
40.002
20
182.893
0
VERTEX
8
CONTOURS_MINEURES
10
42.047
20
182.952
0
VERTEX
8
CONTOURS_MINEURES
10
45.004
20
183.315
0
VERTEX
8
CONTOURS_MINEURES
10
49.030
20
184.029
0
VERTEX
8
CONTOURS_MINEURES
10
49.996
20
183.330
0
VERTEX
8
CONTOURS_MINEURES
10
51.746
20
183.247
0
VERTEX
8
CONTOURS_MINEURES
10
52.689
20
184.995
0
VERTEX
8
CONTOURS_MINEURES
10
54.458
20
185.536
0
VERTEX
8
CONTOURS_MINEURES
10
54.998
20
185.739
0
VERTEX
8
CONTOURS_MINEURES
10
56.180
20
186.178
0
VERTEX
8
CONTOURS_MINEURES
10
60.000
20
187.419
0
VERTEX
8
CONTOURS_MINEURES
10
61.462
20
188.540
0
VERTEX
8
CONTOURS_MINEURES
10
63.131
20
190.003
0
VERTEX
8
CONTOURS_MINEURES
10
64.270
20
190.735
0
VERTEX
8
CONTOURS_MINEURES
10
65.003
20
191.041
0
VERTEX
8
CONTOURS_MINEURES
10
66.554
20
191.552
0
VERTEX
8
CONTOURS_MINEURES
10
70.005
20
192.612
0
VERTEX
8
CONTOURS_MINEURES
10
74.298
20
194.999
0
VERTEX
8
CONTOURS_MINEURES
10
74.996
20
195.282
0
VERTEX
8
CONTOURS_MINEURES
10
79.040
20
195.957
0
VERTEX
8
CONTOURS_MINEURES
10
79.999
20
195.955
0
VERTEX
8
CONTOURS_MINEURES
10
81.300
20
196.299
0
VERTEX
8
CONTOURS_MINEURES
10
85.001
20
196.747
0
VERTEX
8
CONTOURS_MINEURES
10
89.761
20
199.996
0
VERTEX
8
CONTOURS_MINEURES
10
90.003
20
200.218
0
VERTEX
8
CONTOURS_MINEURES
10
93.392
20
201.603
0
VERTEX
8
CONTOURS_MINEURES
10
94.995
20
202.990
0
VERTEX
8
CONTOURS_MINEURES
10
96.818
20
203.178
0
VERTEX
8
CONTOURS_MINEURES
10
97.925
20
205.003
0
VERTEX
8
CONTOURS_MINEURES
10
99.616
20
205.383
0
VERTEX
8
CONTOURS_MINEURES
10
99.997
20
205.448
0
VERTEX
8
CONTOURS_MINEURES
10
100.497
20
205.502
0
VERTEX
8
CONTOURS_MINEURES
10
105.000
20
205.792
0
VERTEX
8
CONTOURS_MINEURES
10
105.968
20
205.971
0
VERTEX
8
CONTOURS_MINEURES
10
110.002
20
206.109
0
VERTEX
8
CONTOURS_MINEURES
10
114.004
20
206.002
0
VERTEX
8
CONTOURS_MINEURES
10
115.004
20
206.455
0
VERTEX
8
CONTOURS_MINEURES
10
117.964
20
207.966
0
VERTEX
8
CONTOURS_MINEURES
10
119.807
20
205.003
0
VERTEX
8
CONTOURS_MINEURES
10
119.484
20
204.489
0
VERTEX
8
CONTOURS_MINEURES
10
118.430
20
199.996
0
VERTEX
8
CONTOURS_MINEURES
10
117.734
20
197.263
0
VERTEX
8
CONTOURS_MINEURES
10
115.004
20
195.624
0
VERTEX
8
CONTOURS_MINEURES
10
113.080
20
194.999
0
VERTEX
8
CONTOURS_MINEURES
10
111.028
20
193.974
0
VERTEX
8
CONTOURS_MINEURES
10
110.002
20
193.519
0
VERTEX
8
CONTOURS_MINEURES
10
107.362
20
190.003
0
VERTEX
8
CONTOURS_MINEURES
10
106.635
20
188.366
0
VERTEX
8
CONTOURS_MINEURES
10
105.270
20
184.995
0
VERTEX
8
CONTOURS_MINEURES
10
105.000
20
184.638
0
VERTEX
8
CONTOURS_MINEURES
10
102.832
20
182.164
0
VERTEX
8
CONTOURS_MINEURES
10
99.997
20
181.134
0
VERTEX
8
CONTOURS_MINEURES
10
98.434
20
179.999
0
VERTEX
8
CONTOURS_MINEURES
10
96.191
20
178.804
0
VERTEX
8
CONTOURS_MINEURES
10
94.995
20
177.844
0
VERTEX
8
CONTOURS_MINEURES
10
91.915
20
175.003
0
VERTEX
8
CONTOURS_MINEURES
10
91.453
20
173.549
0
VERTEX
8
CONTOURS_MINEURES
10
90.114
20
169.995
0
VERTEX
8
CONTOURS_MINEURES
10
90.003
20
169.440
0
VERTEX
8
CONTOURS_MINEURES
10
88.860
20
166.141
0
VERTEX
8
CONTOURS_MINEURES
10
88.892
20
164.999
0
VERTEX
8
CONTOURS_MINEURES
10
88.712
20
163.709
0
VERTEX
8
CONTOURS_MINEURES
10
87.449
20
160.002
0
VERTEX
8
CONTOURS_MINEURES
10
87.821
20
157.817
0
VERTEX
8
CONTOURS_MINEURES
10
88.102
20
154.995
0
VERTEX
8
CONTOURS_MINEURES
10
88.525
20
151.475
0
VERTEX
8
CONTOURS_MINEURES
10
88.703
20
149.998
0
VERTEX
8
CONTOURS_MINEURES
10
88.491
20
148.488
0
VERTEX
8
CONTOURS_MINEURES
10
89.057
20
145.002
0
VERTEX
8
CONTOURS_MINEURES
10
89.415
20
140.584
0
VERTEX
8
CONTOURS_MINEURES
10
89.234
20
139.994
0
VERTEX
8
CONTOURS_MINEURES
10
89.477
20
139.469
0
VERTEX
8
CONTOURS_MINEURES
10
90.003
20
138.995
0
VERTEX
8
CONTOURS_MINEURES
10
92.580
20
137.577
0
VERTEX
8
CONTOURS_MINEURES
10
94.995
20
137.410
0
VERTEX
8
CONTOURS_MINEURES
10
98.121
20
136.872
0
VERTEX
8
CONTOURS_MINEURES
10
99.997
20
136.283
0
VERTEX
8
CONTOURS_MINEURES
10
101.729
20
134.998
0
VERTEX
8
CONTOURS_MINEURES
10
100.640
20
134.356
0
VERTEX
8
CONTOURS_MINEURES
10
99.997
20
132.000
0
VERTEX
8
CONTOURS_MINEURES
10
97.269
20
130.002
0
VERTEX
8
CONTOURS_MINEURES
10
94.995
20
127.226
0
VERTEX
8
CONTOURS_MINEURES
10
94.163
20
125.838
0
VERTEX
8
CONTOURS_MINEURES
10
94.044
20
125.005
0
VERTEX
8
CONTOURS_MINEURES
10
93.664
20
123.670
0
VERTEX
8
CONTOURS_MINEURES
10
91.572
20
119.998
0
VERTEX
8
CONTOURS_MINEURES
10
90.469
20
119.532
0
VERTEX
8
CONTOURS_MINEURES
10
90.003
20
116.563
0
VERTEX
8
CONTOURS_MINEURES
10
89.471
20
115.533
0
VERTEX
8
CONTOURS_MINEURES
10
89.557
20
115.001
0
VERTEX
8
CONTOURS_MINEURES
10
89.557
20
114.555
0
VERTEX
8
CONTOURS_MINEURES
10
89.253
20
110.005
0
VERTEX
8
CONTOURS_MINEURES
10
90.003
20
107.501
0
VERTEX
8
CONTOURS_MINEURES
10
90.384
20
105.379
0
VERTEX
8
CONTOURS_MINEURES
10
90.684
20
104.998
0
VERTEX
8
CONTOURS_MINEURES
10
91.608
20
101.607
0
VERTEX
8
CONTOURS_MINEURES
10
94.995
20
100.251
0
VERTEX
8
CONTOURS_MINEURES
10
95.120
20
100.126
0
VERTEX
8
CONTOURS_MINEURES
10
95.450
20
100.001
0
VERTEX
8
CONTOURS_MINEURES
10
96.804
20
96.812
0
VERTEX
8
CONTOURS_MINEURES
10
98.860
20
95.005
0
VERTEX
8
CONTOURS_MINEURES
10
98.145
20
91.852
0
VERTEX
8
CONTOURS_MINEURES
10
97.723
20
89.997
0
VERTEX
8
CONTOURS_MINEURES
10
98.997
20
86.000
0
VERTEX
8
CONTOURS_MINEURES
10
99.397
20
85.001
0
VERTEX
8
CONTOURS_MINEURES
10
99.568
20
84.573
0
VERTEX
8
CONTOURS_MINEURES
10
98.330
20
80.004
0
VERTEX
8
CONTOURS_MINEURES
10
96.359
20
76.363
0
VERTEX
8
CONTOURS_MINEURES
10
95.471
20
74.997
0
VERTEX
8
CONTOURS_MINEURES
10
95.561
20
74.431
0
VERTEX
8
CONTOURS_MINEURES
10
95.561
20
70.001
0
VERTEX
8
CONTOURS_MINEURES
10
96.686
20
66.693
0
VERTEX
8
CONTOURS_MINEURES
10
98.997
20
65.004
0
VERTEX
8
CONTOURS_MINEURES
10
99.186
20
64.192
0
VERTEX
8
CONTOURS_MINEURES
10
99.997
20
63.638
0
VERTEX
8
CONTOURS_MINEURES
10
102.351
20
59.997
0
VERTEX
8
CONTOURS_MINEURES
10
101.784
20
56.785
0
VERTEX
8
CONTOURS_MINEURES
10
102.630
20
55.000
0
VERTEX
8
CONTOURS_MINEURES
10
100.497
20
50.504
0
VERTEX
8
CONTOURS_MINEURES
10
100.712
20
50.004
0
VERTEX
8
CONTOURS_MINEURES
10
100.497
20
49.503
0
VERTEX
8
CONTOURS_MINEURES
10
100.497
20
44.996
0
VERTEX
8
CONTOURS_MINEURES
10
100.497
20
44.497
0
VERTEX
8
CONTOURS_MINEURES
10
101.536
20
40.000
0
VERTEX
8
CONTOURS_MINEURES
10
105.000
20
35.912
0
VERTEX
8
CONTOURS_MINEURES
10
105.667
20
35.670
0
VERTEX
8
CONTOURS_MINEURES
10
108.334
20
35.004
0
VERTEX
8
CONTOURS_MINEURES
10
110.002
20
34.378
0
VERTEX
8
CONTOURS_MINEURES
10
112.336
20
32.333
0
VERTEX
8
CONTOURS_MINEURES
10
114.379
20
29.996
0
VERTEX
8
CONTOURS_MINEURES
10
115.004
20
29.684
0
VERTEX
8
CONTOURS_MINEURES
10
115.102
20
29.898
0
VERTEX
8
CONTOURS_MINEURES
10
116.252
20
29.996
0
VERTEX
8
CONTOURS_MINEURES
10
118.634
20
31.362
0
VERTEX
8
CONTOURS_MINEURES
10
119.996
20
30.649
0
VERTEX
8
CONTOURS_MINEURES
10
120.678
20
30.679
0
VERTEX
8
CONTOURS_MINEURES
10
124.998
20
32.361
0
VERTEX
8
CONTOURS_MINEURES
10
127.316
20
32.683
0
VERTEX
8
CONTOURS_MINEURES
10
130.000
20
33.056
0
VERTEX
8
CONTOURS_MINEURES
10
132.896
20
32.895
0
VERTEX
8
CONTOURS_MINEURES
10
135.003
20
32.714
0
VERTEX
8
CONTOURS_MINEURES
10
137.763
20
32.241
0
VERTEX
8
CONTOURS_MINEURES
10
140.005
20
31.381
0
VERTEX
8
CONTOURS_MINEURES
10
141.386
20
31.381
0
VERTEX
8
CONTOURS_MINEURES
10
144.997
20
31.457
0
VERTEX
8
CONTOURS_MINEURES
10
148.862
20
31.134
0
VERTEX
8
CONTOURS_MINEURES
10
149.999
20
31.280
0
VERTEX
8
CONTOURS_MINEURES
10
150.649
20
30.646
0
VERTEX
8
CONTOURS_MINEURES
10
150.819
20
29.996
0
VERTEX
8
CONTOURS_MINEURES
10
155.001
20
25.886
0
VERTEX
8
CONTOURS_MINEURES
10
155.471
20
25.469
0
VERTEX
8
CONTOURS_MINEURES
10
156.899
20
25.000
0
VERTEX
8
CONTOURS_MINEURES
10
160.003
20
22.956
0
VERTEX
8
CONTOURS_MINEURES
10
161.884
20
21.886
0
VERTEX
8
CONTOURS_MINEURES
10
164.995
20
21.358
0
VERTEX
8
CONTOURS_MINEURES
10
166.477
20
21.484
0
VERTEX
8
CONTOURS_MINEURES
10
169.997
20
20.685
0
VERTEX
8
CONTOURS_MINEURES
10
173.653
20
21.349
0
VERTEX
8
CONTOURS_MINEURES
10
173.165
20
25.000
0
VERTEX
8
CONTOURS_MINEURES
10
175.000
20
29.580
0
VERTEX
8
CONTOURS_MINEURES
10
175.303
20
29.693
0
VERTEX
8
CONTOURS_MINEURES
10
176.250
20
29.996
0
VERTEX
8
CONTOURS_MINEURES
10
179.092
20
30.907
0
VERTEX
8
CONTOURS_MINEURES
10
180.002
20
31.109
0
VERTEX
8
CONTOURS_MINEURES
10
184.042
20
30.959
0
VERTEX
8
CONTOURS_MINEURES
10
185.004
20
30.804
0
VERTEX
8
CONTOURS_MINEURES
10
185.514
20
30.507
0
VERTEX
8
CONTOURS_MINEURES
10
186.193
20
29.996
0
VERTEX
8
CONTOURS_MINEURES
10
189.996
20
27.239
0
VERTEX
8
CONTOURS_MINEURES
10
193.634
20
26.362
0
VERTEX
8
CONTOURS_MINEURES
10
194.998
20
25.789
0
VERTEX
8
CONTOURS_MINEURES
10
195.343
20
25.344
0
VERTEX
8
CONTOURS_MINEURES
10
196.110
20
25.000
0
VERTEX
8
CONTOURS_MINEURES
10
198.000
20
22.002
0
VERTEX
8
CONTOURS_MINEURES
10
194.998
20
23.696
0
VERTEX
8
CONTOURS_MINEURES
10
193.634
20
23.637
0
VERTEX
8
CONTOURS_MINEURES
10
189.996
20
22.760
0
VERTEX
8
CONTOURS_MINEURES
10
188.221
20
21.780
0
VERTEX
8
CONTOURS_MINEURES
10
185.004
20
22.585
0
VERTEX
8
CONTOURS_MINEURES
10
182.503
20
22.502
0
VERTEX
8
CONTOURS_MINEURES
10
180.002
20
21.558
0
VERTEX
8
CONTOURS_MINEURES
10
177.501
20
20.003
0
VERTEX
8
CONTOURS_MINEURES
10
175.000
20
19.404
0
VERTEX
8
CONTOURS_MINEURES
10
170.273
20
19.728
0
VERTEX
8
CONTOURS_MINEURES
10
169.997
20
19.561
0
VERTEX
8
CONTOURS_MINEURES
10
166.021
20
18.976
0
VERTEX
8
CONTOURS_MINEURES
10
164.995
20
18.789
0
VERTEX
8
CONTOURS_MINEURES
10
161.711
20
18.290
0
VERTEX
8
CONTOURS_MINEURES
10
160.003
20
17.833
0
VERTEX
8
CONTOURS_MINEURES
10
156.391
20
16.387
0
VERTEX
8
CONTOURS_MINEURES
10
155.001
20
15.830
0
VERTEX
8
CONTOURS_MINEURES
10
154.384
20
15.614
0
VERTEX
8
CONTOURS_MINEURES
10
150.833
20
14.996
0
VERTEX
8
CONTOURS_MINEURES
10
149.999
20
14.863
0
VERTEX
8
CONTOURS_MINEURES
10
145.256
20
14.736
0
VERTEX
8
CONTOURS_MINEURES
10
144.997
20
14.698
0
VERTEX
8
CONTOURS_MINEURES
10
144.741
20
14.740
0
VERTEX
8
CONTOURS_MINEURES
10
140.005
20
14.154
0
VERTEX
8
CONTOURS_MINEURES
10
136.376
20
13.624
0
VERTEX
8
CONTOURS_MINEURES
10
135.003
20
13.225
0
VERTEX
8
CONTOURS_MINEURES
10
132.501
20
12.498
0
VERTEX
8
CONTOURS_MINEURES
10
130.000
20
10.096
0
VERTEX
8
CONTOURS_MINEURES
10
129.928
20
10.072
0
VERTEX
8
CONTOURS_MINEURES
10
129.643
20
9.999
0
VERTEX
8
CONTOURS_MINEURES
10
125.821
20
9.177
0
VERTEX
8
CONTOURS_MINEURES
10
124.998
20
8.797
0
VERTEX
8
CONTOURS_MINEURES
10
123.697
20
8.700
0
VERTEX
8
CONTOURS_MINEURES
10
119.996
20
9.111
0
VERTEX
8
CONTOURS_MINEURES
10
118.167
20
6.833
0
VERTEX
8
CONTOURS_MINEURES
10
115.004
20
5.154
0
VERTEX
8
CONTOURS_MINEURES
10
114.569
20
5.003
0
VERTEX
8
CONTOURS_MINEURES
10
113.754
20
3.751
0
VERTEX
8
CONTOURS_MINEURES
10
111.002
20
-0.004
0
SEQEND
0
POLYLINE
8
CONTOURS_MINEURES
66
1
70
0
0
VERTEX
8
CONTOURS_MINEURES
10
15.001
20
4.499
0
VERTEX
8
CONTOURS_MINEURES
10
15.498
20
4.506
0
VERTEX
8
CONTOURS_MINEURES
10
16.460
20
5.003
0
VERTEX
8
CONTOURS_MINEURES
10
15.762
20
5.763
0
VERTEX
8
CONTOURS_MINEURES
10
15.064
20
9.999
0
VERTEX
8
CONTOURS_MINEURES
10
15.032
20
10.031
0
VERTEX
8
CONTOURS_MINEURES
10
15.001
20
10.040
0
VERTEX
8
CONTOURS_MINEURES
10
14.897
20
9.999
0
VERTEX
8
CONTOURS_MINEURES
10
14.901
20
9.900
0
VERTEX
8
CONTOURS_MINEURES
10
13.889
20
5.003
0
VERTEX
8
CONTOURS_MINEURES
10
15.001
20
4.499
0
SEQEND
0
POLYLINE
8
CONTOURS_MINEURES
66
1
70
0
0
VERTEX
8
CONTOURS_MINEURES
10
118.828
20
95.005
0
VERTEX
8
CONTOURS_MINEURES
10
118.802
20
96.199
0
VERTEX
8
CONTOURS_MINEURES
10
118.802
20
100.001
0
VERTEX
8
CONTOURS_MINEURES
10
119.996
20
101.487
0
VERTEX
8
CONTOURS_MINEURES
10
123.168
20
101.829
0
VERTEX
8
CONTOURS_MINEURES
10
124.998
20
103.260
0
VERTEX
8
CONTOURS_MINEURES
10
129.412
20
104.410
0
VERTEX
8
CONTOURS_MINEURES
10
130.000
20
104.331
0
VERTEX
8
CONTOURS_MINEURES
10
133.826
20
103.822
0
VERTEX
8
CONTOURS_MINEURES
10
135.003
20
103.946
0
VERTEX
8
CONTOURS_MINEURES
10
138.952
20
100.001
0
VERTEX
8
CONTOURS_MINEURES
10
138.754
20
96.254
0
VERTEX
8
CONTOURS_MINEURES
10
135.003
20
95.837
0
VERTEX
8
CONTOURS_MINEURES
10
134.065
20
95.942
0
VERTEX
8
CONTOURS_MINEURES
10
130.000
20
95.005
0
VERTEX
8
CONTOURS_MINEURES
10
125.393
20
94.609
0
VERTEX
8
CONTOURS_MINEURES
10
124.998
20
94.692
0
VERTEX
8
CONTOURS_MINEURES
10
124.698
20
94.704
0
VERTEX
8
CONTOURS_MINEURES
10
119.996
20
94.055
0
VERTEX
8
CONTOURS_MINEURES
10
118.828
20
95.005
0
SEQEND
0
POLYLINE
8
CONTOURS_MINEURES
66
1
70
0
0
VERTEX
8
CONTOURS_MINEURES
10
160.003
20
214.917
0
VERTEX
8
CONTOURS_MINEURES
10
159.890
20
214.882
0
VERTEX
8
CONTOURS_MINEURES
10
155.001
20
214.882
0
VERTEX
8
CONTOURS_MINEURES
10
154.376
20
214.371
0
VERTEX
8
CONTOURS_MINEURES
10
149.999
20
212.057
0
VERTEX
8
CONTOURS_MINEURES
10
147.998
20
214.996
0
VERTEX
8
CONTOURS_MINEURES
10
149.999
20
215.378
0
VERTEX
8
CONTOURS_MINEURES
10
154.960
20
215.037
0
VERTEX
8
CONTOURS_MINEURES
10
155.001
20
215.065
0
VERTEX
8
CONTOURS_MINEURES
10
155.194
20
215.188
0
VERTEX
8
CONTOURS_MINEURES
10
160.003
20
215.188
0
VERTEX
8
CONTOURS_MINEURES
10
160.360
20
214.996
0
VERTEX
8
CONTOURS_MINEURES
10
160.042
20
214.957
0
VERTEX
8
CONTOURS_MINEURES
10
160.003
20
214.917
0
SEQEND
0
POLYLINE
8
CONTOURS_MINEURES
66
1
70
0
0
VERTEX
8
CONTOURS_MINEURES
10
169.997
20
221.202
0
VERTEX
8
CONTOURS_MINEURES
10
170.823
20
220.828
0
VERTEX
8
CONTOURS_MINEURES
10
171.266
20
220.003
0
VERTEX
8
CONTOURS_MINEURES
10
169.997
20
219.169
0
VERTEX
8
CONTOURS_MINEURES
10
165.829
20
219.169
0
VERTEX
8
CONTOURS_MINEURES
10
164.995
20
217.096
0
VERTEX
8
CONTOURS_MINEURES
10
162.906
20
220.003
0
VERTEX
8
CONTOURS_MINEURES
10
164.995
20
220.695
0
VERTEX
8
CONTOURS_MINEURES
10
169.305
20
220.695
0
VERTEX
8
CONTOURS_MINEURES
10
169.997
20
221.202
0
SEQEND
0
POLYLINE
8
CONTOURS_MINEURES
66
1
70
0
0
VERTEX
8
CONTOURS_MINEURES
10
143.728
20
213.726
0
VERTEX
8
CONTOURS_MINEURES
10
144.997
20
213.367
0
VERTEX
8
CONTOURS_MINEURES
10
149.077
20
209.999
0
VERTEX
8
CONTOURS_MINEURES
10
144.997
20
208.403
0
VERTEX
8
CONTOURS_MINEURES
10
142.002
20
208.001
0
VERTEX
8
CONTOURS_MINEURES
10
140.005
20
208.581
0
VERTEX
8
CONTOURS_MINEURES
10
138.703
20
208.699
0
VERTEX
8
CONTOURS_MINEURES
10
135.003
20
208.811
0
VERTEX
8
CONTOURS_MINEURES
10
130.599
20
209.401
0
VERTEX
8
CONTOURS_MINEURES
10
130.000
20
209.341
0
VERTEX
8
CONTOURS_MINEURES
10
129.000
20
209.000
0
VERTEX
8
CONTOURS_MINEURES
10
126.963
20
209.999
0
VERTEX
8
CONTOURS_MINEURES
10
129.711
20
210.288
0
VERTEX
8
CONTOURS_MINEURES
10
130.000
20
210.402
0
VERTEX
8
CONTOURS_MINEURES
10
130.608
20
210.606
0
VERTEX
8
CONTOURS_MINEURES
10
135.003
20
211.202
0
VERTEX
8
CONTOURS_MINEURES
10
138.687
20
211.316
0
VERTEX
8
CONTOURS_MINEURES
10
140.005
20
212.155
0
VERTEX
8
CONTOURS_MINEURES
10
143.728
20
213.726
0
SEQEND
0
POLYLINE
8
CONTOURS_MINEURES
66
1
70
0
0
VERTEX
8
CONTOURS_MINEURES
10
200.000
20
13.397
0
VERTEX
8
CONTOURS_MINEURES
10
198.577
20
13.574
0
VERTEX
8
CONTOURS_MINEURES
10
194.998
20
14.347
0
VERTEX
8
CONTOURS_MINEURES
10
191.303
20
13.691
0
VERTEX
8
CONTOURS_MINEURES
10
189.996
20
13.495
0
VERTEX
8
CONTOURS_MINEURES
10
186.804
20
13.195
0
VERTEX
8
CONTOURS_MINEURES
10
185.004
20
12.775
0
VERTEX
8
CONTOURS_MINEURES
10
182.020
20
12.980
0
VERTEX
8
CONTOURS_MINEURES
10
180.002
20
12.631
0
VERTEX
8
CONTOURS_MINEURES
10
176.992
20
11.990
0
VERTEX
8
CONTOURS_MINEURES
10
175.000
20
11.630
0
VERTEX
8
CONTOURS_MINEURES
10
173.729
20
11.269
0
VERTEX
8
CONTOURS_MINEURES
10
172.649
20
9.999
0
VERTEX
8
CONTOURS_MINEURES
10
169.997
20
8.222
0
VERTEX
8
CONTOURS_MINEURES
10
167.177
20
7.182
0
VERTEX
8
CONTOURS_MINEURES
10
164.995
20
6.669
0
VERTEX
8
CONTOURS_MINEURES
10
163.544
20
6.456
0
VERTEX
8
CONTOURS_MINEURES
10
160.003
20
5.149
0
VERTEX
8
CONTOURS_MINEURES
10
159.519
20
5.003
0
VERTEX
8
CONTOURS_MINEURES
10
155.001
20
4.087
0
VERTEX
8
CONTOURS_MINEURES
10
151.448
20
3.552
0
VERTEX
8
CONTOURS_MINEURES
10
149.999
20
3.068
0
VERTEX
8
CONTOURS_MINEURES
10
147.226
20
2.227
0
VERTEX
8
CONTOURS_MINEURES
10
144.997
20
1.932
0
VERTEX
8
CONTOURS_MINEURES
10
141.040
20
1.034
0
VERTEX
8
CONTOURS_MINEURES
10
140.005
20
1.247
0
VERTEX
8
CONTOURS_MINEURES
10
139.049
20
0.952
0
VERTEX
8
CONTOURS_MINEURES
10
136.462
20
-0.004
0
SEQEND
0
POLYLINE
8
CONTOURS_MINEURES
66
1
70
0
0
VERTEX
8
CONTOURS_MINEURES
10
200.000
20
157.498
0
VERTEX
8
CONTOURS_MINEURES
10
198.571
20
154.995
0
VERTEX
8
CONTOURS_MINEURES
10
200.000
20
153.842
0
SEQEND
0
POLYLINE
8
CONTOURS_MINEURES
66
1
70
0
0
VERTEX
8
CONTOURS_MINEURES
10
200.000
20
218.334
0
VERTEX
8
CONTOURS_MINEURES
10
198.000
20
218.000
0
VERTEX
8
CONTOURS_MINEURES
10
194.998
20
218.174
0
VERTEX
8
CONTOURS_MINEURES
10
192.606
20
217.391
0
VERTEX
8
CONTOURS_MINEURES
10
189.996
20
216.602
0
VERTEX
8
CONTOURS_MINEURES
10
186.732
20
214.996
0
VERTEX
8
CONTOURS_MINEURES
10
185.004
20
214.412
0
VERTEX
8
CONTOURS_MINEURES
10
181.424
20
213.576
0
VERTEX
8
CONTOURS_MINEURES
10
180.002
20
213.591
0
VERTEX
8
CONTOURS_MINEURES
10
178.740
20
213.735
0
VERTEX
8
CONTOURS_MINEURES
10
175.000
20
213.537
0
VERTEX
8
CONTOURS_MINEURES
10
172.893
20
212.103
0
VERTEX
8
CONTOURS_MINEURES
10
169.997
20
210.528
0
VERTEX
8
CONTOURS_MINEURES
10
169.223
20
209.999
0
VERTEX
8
CONTOURS_MINEURES
10
167.589
20
207.594
0
VERTEX
8
CONTOURS_MINEURES
10
167.913
20
205.003
0
VERTEX
8
CONTOURS_MINEURES
10
169.997
20
203.388
0
VERTEX
8
CONTOURS_MINEURES
10
170.888
20
199.996
0
VERTEX
8
CONTOURS_MINEURES
10
170.888
20
195.888
0
VERTEX
8
CONTOURS_MINEURES
10
171.139
20
194.999
0
VERTEX
8
CONTOURS_MINEURES
10
171.398
20
193.600
0
VERTEX
8
CONTOURS_MINEURES
10
171.195
20
190.003
0
VERTEX
8
CONTOURS_MINEURES
10
170.907
20
185.906
0
VERTEX
8
CONTOURS_MINEURES
10
170.809
20
184.995
0
VERTEX
8
CONTOURS_MINEURES
10
170.515
20
184.478
0
VERTEX
8
CONTOURS_MINEURES
10
169.997
20
183.232
0
VERTEX
8
CONTOURS_MINEURES
10
168.193
20
181.801
0
VERTEX
8
CONTOURS_MINEURES
10
167.552
20
179.999
0
VERTEX
8
CONTOURS_MINEURES
10
167.050
20
177.947
0
VERTEX
8
CONTOURS_MINEURES
10
165.765
20
175.003
0
VERTEX
8
CONTOURS_MINEURES
10
167.291
20
172.294
0
VERTEX
8
CONTOURS_MINEURES
10
169.825
20
169.995
0
VERTEX
8
CONTOURS_MINEURES
10
169.914
20
169.912
0
VERTEX
8
CONTOURS_MINEURES
10
169.997
20
169.867
0
VERTEX
8
CONTOURS_MINEURES
10
172.713
20
167.711
0
VERTEX
8
CONTOURS_MINEURES
10
175.000
20
167.374
0
VERTEX
8
CONTOURS_MINEURES
10
177.254
20
167.743
0
VERTEX
8
CONTOURS_MINEURES
10
180.002
20
168.819
0
VERTEX
8
CONTOURS_MINEURES
10
181.541
20
168.458
0
VERTEX
8
CONTOURS_MINEURES
10
182.072
20
169.995
0
VERTEX
8
CONTOURS_MINEURES
10
185.004
20
173.542
0
VERTEX
8
CONTOURS_MINEURES
10
186.063
20
173.940
0
VERTEX
8
CONTOURS_MINEURES
10
187.500
20
175.003
0
VERTEX
8
CONTOURS_MINEURES
10
188.157
20
176.843
0
VERTEX
8
CONTOURS_MINEURES
10
189.996
20
176.843
0
VERTEX
8
CONTOURS_MINEURES
10
190.942
20
175.003
0
VERTEX
8
CONTOURS_MINEURES
10
194.998
20
170.830
0
VERTEX
8
CONTOURS_MINEURES
10
195.475
20
170.472
0
VERTEX
8
CONTOURS_MINEURES
10
196.578
20
169.995
0
VERTEX
8
CONTOURS_MINEURES
10
200.000
20
167.171
0
SEQEND
0
POLYLINE
8
CONTOURS_MINEURES
66
1
70
0
0
VERTEX
8
CONTOURS_MINEURES
10
0.005
20
186.638
0
VERTEX
8
CONTOURS_MINEURES
10
1.742
20
186.738
0
VERTEX
8
CONTOURS_MINEURES
10
4.996
20
186.973
0
VERTEX
8
CONTOURS_MINEURES
10
7.821
20
187.176
0
VERTEX
8
CONTOURS_MINEURES
10
9.999
20
187.229
0
VERTEX
8
CONTOURS_MINEURES
10
12.156
20
187.155
0
VERTEX
8
CONTOURS_MINEURES
10
15.001
20
187.221
0
VERTEX
8
CONTOURS_MINEURES
10
18.048
20
186.953
0
VERTEX
8
CONTOURS_MINEURES
10
20.003
20
186.694
0
VERTEX
8
CONTOURS_MINEURES
10
21.481
20
186.478
0
VERTEX
8
CONTOURS_MINEURES
10
24.995
20
186.103
0
VERTEX
8
CONTOURS_MINEURES
10
28.874
20
186.120
0
VERTEX
8
CONTOURS_MINEURES
10
29.997
20
186.154
0
VERTEX
8
CONTOURS_MINEURES
10
31.278
20
186.277
0
VERTEX
8
CONTOURS_MINEURES
10
34.999
20
186.664
0
VERTEX
8
CONTOURS_MINEURES
10
36.888
20
186.885
0
VERTEX
8
CONTOURS_MINEURES
10
40.002
20
187.189
0
VERTEX
8
CONTOURS_MINEURES
10
42.513
20
187.489
0
VERTEX
8
CONTOURS_MINEURES
10
45.004
20
187.825
0
VERTEX
8
CONTOURS_MINEURES
10
46.852
20
188.149
0
VERTEX
8
CONTOURS_MINEURES
10
49.996
20
188.874
0
VERTEX
8
CONTOURS_MINEURES
10
50.859
20
189.138
0
VERTEX
8
CONTOURS_MINEURES
10
53.155
20
190.003
0
VERTEX
8
CONTOURS_MINEURES
10
54.526
20
190.474
0
VERTEX
8
CONTOURS_MINEURES
10
54.998
20
190.622
0
VERTEX
8
CONTOURS_MINEURES
10
58.288
20
191.713
0
VERTEX
8
CONTOURS_MINEURES
10
60.000
20
192.138
0
VERTEX
8
CONTOURS_MINEURES
10
61.743
20
193.258
0
VERTEX
8
CONTOURS_MINEURES
10
65.003
20
194.623
0
VERTEX
8
CONTOURS_MINEURES
10
66.144
20
194.999
0
VERTEX
8
CONTOURS_MINEURES
10
69.040
20
195.963
0
VERTEX
8
CONTOURS_MINEURES
10
70.005
20
196.158
0
VERTEX
8
CONTOURS_MINEURES
10
71.608
20
196.604
0
VERTEX
8
CONTOURS_MINEURES
10
74.996
20
197.975
0
VERTEX
8
CONTOURS_MINEURES
10
76.729
20
198.265
0
VERTEX
8
CONTOURS_MINEURES
10
79.999
20
198.257
0
VERTEX
8
CONTOURS_MINEURES
10
84.437
20
199.432
0
VERTEX
8
CONTOURS_MINEURES
10
85.001
20
199.500
0
VERTEX
8
CONTOURS_MINEURES
10
85.727
20
199.996
0
VERTEX
8
CONTOURS_MINEURES
10
90.003
20
203.927
0
VERTEX
8
CONTOURS_MINEURES
10
90.765
20
204.239
0
VERTEX
8
CONTOURS_MINEURES
10
91.648
20
205.003
0
VERTEX
8
CONTOURS_MINEURES
10
94.995
20
205.951
0
VERTEX
8
CONTOURS_MINEURES
10
98.304
20
206.695
0
VERTEX
8
CONTOURS_MINEURES
10
99.997
20
206.980
0
VERTEX
8
CONTOURS_MINEURES
10
102.219
20
207.222
0
VERTEX
8
CONTOURS_MINEURES
10
105.000
20
207.401
0
VERTEX
8
CONTOURS_MINEURES
10
107.946
20
207.946
0
VERTEX
8
CONTOURS_MINEURES
10
110.002
20
208.016
0
VERTEX
8
CONTOURS_MINEURES
10
112.042
20
207.962
0
VERTEX
8
CONTOURS_MINEURES
10
115.004
20
209.302
0
VERTEX
8
CONTOURS_MINEURES
10
116.371
20
209.999
0
VERTEX
8
CONTOURS_MINEURES
10
118.769
20
211.227
0
VERTEX
8
CONTOURS_MINEURES
10
119.996
20
212.081
0
VERTEX
8
CONTOURS_MINEURES
10
123.137
20
213.137
0
VERTEX
8
CONTOURS_MINEURES
10
124.998
20
213.550
0
VERTEX
8
CONTOURS_MINEURES
10
126.308
20
213.687
0
VERTEX
8
CONTOURS_MINEURES
10
129.639
20
214.996
0
VERTEX
8
CONTOURS_MINEURES
10
130.000
20
215.103
0
VERTEX
8
CONTOURS_MINEURES
10
133.905
20
216.094
0
VERTEX
8
CONTOURS_MINEURES
10
135.003
20
216.479
0
VERTEX
8
CONTOURS_MINEURES
10
137.131
20
217.126
0
VERTEX
8
CONTOURS_MINEURES
10
140.005
20
217.886
0
VERTEX
8
CONTOURS_MINEURES
10
141.801
20
218.201
0
VERTEX
8
CONTOURS_MINEURES
10
144.997
20
219.386
0
VERTEX
8
CONTOURS_MINEURES
10
146.235
20
220.003
0
VERTEX
8
CONTOURS_MINEURES
10
148.840
20
221.161
0
VERTEX
8
CONTOURS_MINEURES
10
149.999
20
221.697
0
VERTEX
8
CONTOURS_MINEURES
10
152.244
20
222.246
0
VERTEX
8
CONTOURS_MINEURES
10
155.001
20
222.855
0
VERTEX
8
CONTOURS_MINEURES
10
156.785
20
223.218
0
VERTEX
8
CONTOURS_MINEURES
10
160.003
20
224.730
0
VERTEX
8
CONTOURS_MINEURES
10
160.513
20
225.000
0
VERTEX
8
CONTOURS_MINEURES
10
164.995
20
226.564
0
VERTEX
8
CONTOURS_MINEURES
10
167.312
20
227.314
0
VERTEX
8
CONTOURS_MINEURES
10
169.997
20
227.916
0
VERTEX
8
CONTOURS_MINEURES
10
172.416
20
227.581
0
VERTEX
8
CONTOURS_MINEURES
10
174.722
20
229.996
0
SEQEND
0
POLYLINE
8
CONTOURS_MINEURES
66
1
70
0
0
VERTEX
8
CONTOURS_MINEURES
10
200.000
20
9.100
0
VERTEX
8
CONTOURS_MINEURES
10
195.406
20
9.592
0
VERTEX
8
CONTOURS_MINEURES
10
194.998
20
9.623
0
VERTEX
8
CONTOURS_MINEURES
10
194.528
20
9.529
0
VERTEX
8
CONTOURS_MINEURES
10
189.996
20
8.910
0
VERTEX
8
CONTOURS_MINEURES
10
188.516
20
8.518
0
VERTEX
8
CONTOURS_MINEURES
10
185.004
20
7.802
0
VERTEX
8
CONTOURS_MINEURES
10
182.503
20
7.501
0
VERTEX
8
CONTOURS_MINEURES
10
180.002
20
6.784
0
VERTEX
8
CONTOURS_MINEURES
10
178.479
20
6.525
0
VERTEX
8
CONTOURS_MINEURES
10
175.000
20
5.503
0
VERTEX
8
CONTOURS_MINEURES
10
174.297
20
5.003
0
VERTEX
8
CONTOURS_MINEURES
10
169.997
20
2.157
0
VERTEX
8
CONTOURS_MINEURES
10
168.337
20
1.658
0
VERTEX
8
CONTOURS_MINEURES
10
164.995
20
0.768
0
VERTEX
8
CONTOURS_MINEURES
10
162.100
20
-0.004
0
SEQEND
0
POLYLINE
8
CONTOURS_MINEURES
66
1
70
0
0
VERTEX
8
CONTOURS_MINEURES
10
0.005
20
191.952
0
VERTEX
8
CONTOURS_MINEURES
10
2.876
20
192.126
0
VERTEX
8
CONTOURS_MINEURES
10
4.996
20
192.137
0
VERTEX
8
CONTOURS_MINEURES
10
7.017
20
192.021
0
VERTEX
8
CONTOURS_MINEURES
10
9.999
20
192.093
0
VERTEX
8
CONTOURS_MINEURES
10
12.023
20
192.025
0
VERTEX
8
CONTOURS_MINEURES
10
15.001
20
191.924
0
VERTEX
8
CONTOURS_MINEURES
10
18.598
20
191.406
0
VERTEX
8
CONTOURS_MINEURES
10
20.003
20
191.265
0
VERTEX
8
CONTOURS_MINEURES
10
21.138
20
191.138
0
VERTEX
8
CONTOURS_MINEURES
10
24.995
20
190.457
0
VERTEX
8
CONTOURS_MINEURES
10
29.378
20
190.621
0
VERTEX
8
CONTOURS_MINEURES
10
29.997
20
190.585
0
VERTEX
8
CONTOURS_MINEURES
10
30.610
20
190.615
0
VERTEX
8
CONTOURS_MINEURES
10
34.999
20
191.057
0
VERTEX
8
CONTOURS_MINEURES
10
38.511
20
191.492
0
VERTEX
8
CONTOURS_MINEURES
10
40.002
20
191.661
0
VERTEX
8
CONTOURS_MINEURES
10
41.904
20
191.902
0
VERTEX
8
CONTOURS_MINEURES
10
45.004
20
192.321
0
VERTEX
8
CONTOURS_MINEURES
10
47.993
20
192.995
0
VERTEX
8
CONTOURS_MINEURES
10
49.996
20
193.439
0
VERTEX
8
CONTOURS_MINEURES
10
51.158
20
193.838
0
VERTEX
8
CONTOURS_MINEURES
10
54.857
20
194.999
0
VERTEX
8
CONTOURS_MINEURES
10
54.998
20
195.039
0
VERTEX
8
CONTOURS_MINEURES
10
59.013
20
195.986
0
VERTEX
8
CONTOURS_MINEURES
10
60.000
20
196.191
0
VERTEX
8
CONTOURS_MINEURES
10
61.951
20
196.947
0
VERTEX
8
CONTOURS_MINEURES
10
65.003
20
198.240
0
VERTEX
8
CONTOURS_MINEURES
10
66.321
20
198.679
0
VERTEX
8
CONTOURS_MINEURES
10
70.005
20
199.424
0
VERTEX
8
CONTOURS_MINEURES
10
72.060
20
199.996
0
VERTEX
8
CONTOURS_MINEURES
10
74.289
20
200.705
0
VERTEX
8
CONTOURS_MINEURES
10
74.996
20
200.816
0
VERTEX
8
CONTOURS_MINEURES
10
76.098
20
201.099
0
VERTEX
8
CONTOURS_MINEURES
10
79.999
20
201.081
0
VERTEX
8
CONTOURS_MINEURES
10
82.663
20
202.663
0
VERTEX
8
CONTOURS_MINEURES
10
85.001
20
203.963
0
VERTEX
8
CONTOURS_MINEURES
10
86.164
20
205.003
0
VERTEX
8
CONTOURS_MINEURES
10
89.075
20
205.930
0
VERTEX
8
CONTOURS_MINEURES
10
90.003
20
206.172
0
VERTEX
8
CONTOURS_MINEURES
10
91.593
20
206.594
0
VERTEX
8
CONTOURS_MINEURES
10
94.995
20
207.557
0
VERTEX
8
CONTOURS_MINEURES
10
96.991
20
208.006
0
VERTEX
8
CONTOURS_MINEURES
10
99.997
20
208.513
0
VERTEX
8
CONTOURS_MINEURES
10
103.941
20
208.942
0
VERTEX
8
CONTOURS_MINEURES
10
105.000
20
209.010
0
VERTEX
8
CONTOURS_MINEURES
10
109.923
20
209.920
0
VERTEX
8
CONTOURS_MINEURES
10
110.002
20
209.923
0
VERTEX
8
CONTOURS_MINEURES
10
110.080
20
209.921
0
VERTEX
8
CONTOURS_MINEURES
10
110.254
20
209.999
0
VERTEX
8
CONTOURS_MINEURES
10
115.004
20
212.155
0
VERTEX
8
CONTOURS_MINEURES
10
116.882
20
213.116
0
VERTEX
8
CONTOURS_MINEURES
10
119.582
20
214.996
0
VERTEX
8
CONTOURS_MINEURES
10
119.996
20
215.286
0
VERTEX
8
CONTOURS_MINEURES
10
123.519
20
216.476
0
VERTEX
8
CONTOURS_MINEURES
10
124.998
20
217.134
0
VERTEX
8
CONTOURS_MINEURES
10
128.121
20
218.122
0
VERTEX
8
CONTOURS_MINEURES
10
130.000
20
218.680
0
VERTEX
8
CONTOURS_MINEURES
10
131.055
20
218.948
0
VERTEX
8
CONTOURS_MINEURES
10
134.068
20
220.003
0
VERTEX
8
CONTOURS_MINEURES
10
135.003
20
220.311
0
VERTEX
8
CONTOURS_MINEURES
10
135.475
20
220.475
0
VERTEX
8
CONTOURS_MINEURES
10
140.005
20
221.855
0
VERTEX
8
CONTOURS_MINEURES
10
142.419
20
222.583
0
VERTEX
8
CONTOURS_MINEURES
10
144.997
20
223.687
0
VERTEX
8
CONTOURS_MINEURES
10
145.906
20
224.091
0
VERTEX
8
CONTOURS_MINEURES
10
147.868
20
225.000
0
VERTEX
8
CONTOURS_MINEURES
10
149.999
20
225.851
0
VERTEX
8
CONTOURS_MINEURES
10
151.161
20
226.161
0
VERTEX
8
CONTOURS_MINEURES
10
155.001
20
227.018
0
VERTEX
8
CONTOURS_MINEURES
10
157.224
20
227.776
0
VERTEX
8
CONTOURS_MINEURES
10
160.003
20
228.490
0
VERTEX
8
CONTOURS_MINEURES
10
164.602
20
229.996
0
SEQEND
0
POLYLINE
8
CONTOURS_MINEURES
66
1
70
0
0
VERTEX
8
CONTOURS_MINEURES
10
200.000
20
5.271
0
VERTEX
8
CONTOURS_MINEURES
10
199.700
20
5.303
0
VERTEX
8
CONTOURS_MINEURES
10
194.998
20
5.657
0
VERTEX
8
CONTOURS_MINEURES
10
191.697
20
5.003
0
VERTEX
8
CONTOURS_MINEURES
10
189.996
20
4.648
0
VERTEX
8
CONTOURS_MINEURES
10
186.310
20
3.693
0
VERTEX
8
CONTOURS_MINEURES
10
185.004
20
3.119
0
VERTEX
8
CONTOURS_MINEURES
10
182.202
20
2.197
0
VERTEX
8
CONTOURS_MINEURES
10
180.002
20
1.588
0
VERTEX
8
CONTOURS_MINEURES
10
178.736
20
1.263
0
VERTEX
8
CONTOURS_MINEURES
10
175.694
20
-0.004
0
SEQEND
0
POLYLINE
8
CONTOURS_MINEURES
66
1
70
0
0
VERTEX
8
CONTOURS_MINEURES
10
0.005
20
198.368
0
VERTEX
8
CONTOURS_MINEURES
10
3.069
20
198.066
0
VERTEX
8
CONTOURS_MINEURES
10
4.996
20
198.079
0
VERTEX
8
CONTOURS_MINEURES
10
7.071
20
197.923
0
VERTEX
8
CONTOURS_MINEURES
10
9.999
20
197.255
0
VERTEX
8
CONTOURS_MINEURES
10
12.857
20
197.141
0
VERTEX
8
CONTOURS_MINEURES
10
15.001
20
197.055
0
VERTEX
8
CONTOURS_MINEURES
10
16.838
20
196.835
0
VERTEX
8
CONTOURS_MINEURES
10
20.003
20
196.475
0
VERTEX
8
CONTOURS_MINEURES
10
24.022
20
195.973
0
VERTEX
8
CONTOURS_MINEURES
10
24.995
20
195.801
0
VERTEX
8
CONTOURS_MINEURES
10
25.723
20
195.727
0
VERTEX
8
CONTOURS_MINEURES
10
29.997
20
195.463
0
VERTEX
8
CONTOURS_MINEURES
10
30.445
20
195.447
0
VERTEX
8
CONTOURS_MINEURES
10
34.999
20
195.662
0
VERTEX
8
CONTOURS_MINEURES
10
38.878
20
196.121
0
VERTEX
8
CONTOURS_MINEURES
10
40.002
20
196.208
0
VERTEX
8
CONTOURS_MINEURES
10
41.375
20
196.371
0
VERTEX
8
CONTOURS_MINEURES
10
45.004
20
196.830
0
VERTEX
8
CONTOURS_MINEURES
10
47.583
20
197.414
0
VERTEX
8
CONTOURS_MINEURES
10
49.996
20
197.796
0
VERTEX
8
CONTOURS_MINEURES
10
53.577
20
198.576
0
VERTEX
8
CONTOURS_MINEURES
10
54.998
20
198.973
0
VERTEX
8
CONTOURS_MINEURES
10
55.826
20
199.168
0
VERTEX
8
CONTOURS_MINEURES
10
59.815
20
199.996
0
VERTEX
8
CONTOURS_MINEURES
10
60.000
20
200.033
0
VERTEX
8
CONTOURS_MINEURES
10
60.069
20
200.064
0
VERTEX
8
CONTOURS_MINEURES
10
65.003
20
202.084
0
VERTEX
8
CONTOURS_MINEURES
10
67.334
20
202.669
0
VERTEX
8
CONTOURS_MINEURES
10
70.005
20
203.079
0
VERTEX
8
CONTOURS_MINEURES
10
71.461
20
203.542
0
VERTEX
8
CONTOURS_MINEURES
10
74.996
20
204.100
0
VERTEX
8
CONTOURS_MINEURES
10
78.524
20
205.003
0
VERTEX
8
CONTOURS_MINEURES
10
79.999
20
205.219
0
VERTEX
8
CONTOURS_MINEURES
10
80.257
20
205.261
0
VERTEX
8
CONTOURS_MINEURES
10
85.001
20
206.356
0
VERTEX
8
CONTOURS_MINEURES
10
87.767
20
207.237
0
VERTEX
8
CONTOURS_MINEURES
10
90.003
20
207.818
0
VERTEX
8
CONTOURS_MINEURES
10
93.831
20
208.834
0
VERTEX
8
CONTOURS_MINEURES
10
94.995
20
209.164
0
VERTEX
8
CONTOURS_MINEURES
10
95.678
20
209.318
0
VERTEX
8
CONTOURS_MINEURES
10
99.724
20
209.999
0
VERTEX
8
CONTOURS_MINEURES
10
99.997
20
210.096
0
VERTEX
8
CONTOURS_MINEURES
10
100.132
20
210.134
0
VERTEX
8
CONTOURS_MINEURES
10
105.000
20
211.308
0
VERTEX
8
CONTOURS_MINEURES
10
107.654
20
212.345
0
VERTEX
8
CONTOURS_MINEURES
10
110.002
20
212.906
0
VERTEX
8
CONTOURS_MINEURES
10
114.968
20
214.996
0
VERTEX
8
CONTOURS_MINEURES
10
114.993
20
215.007
0
VERTEX
8
CONTOURS_MINEURES
10
115.004
20
215.011
0
VERTEX
8
CONTOURS_MINEURES
10
115.057
20
215.049
0
VERTEX
8
CONTOURS_MINEURES
10
119.996
20
218.506
0
VERTEX
8
CONTOURS_MINEURES
10
121.114
20
218.884
0
VERTEX
8
CONTOURS_MINEURES
10
123.630
20
220.003
0
VERTEX
8
CONTOURS_MINEURES
10
124.998
20
220.575
0
VERTEX
8
CONTOURS_MINEURES
10
128.413
20
221.589
0
VERTEX
8
CONTOURS_MINEURES
10
130.000
20
222.260
0
VERTEX
8
CONTOURS_MINEURES
10
133.407
20
223.406
0
VERTEX
8
CONTOURS_MINEURES
10
135.003
20
223.932
0
VERTEX
8
CONTOURS_MINEURES
10
138.077
20
225.000
0
VERTEX
8
CONTOURS_MINEURES
10
139.514
20
225.490
0
VERTEX
8
CONTOURS_MINEURES
10
140.005
20
225.708
0
VERTEX
8
CONTOURS_MINEURES
10
141.189
20
226.185
0
VERTEX
8
CONTOURS_MINEURES
10
144.997
20
227.683
0
VERTEX
8
CONTOURS_MINEURES
10
149.258
20
229.256
0
VERTEX
8
CONTOURS_MINEURES
10
149.999
20
229.552
0
VERTEX
8
CONTOURS_MINEURES
10
151.666
20
229.996
0
SEQEND
0
POLYLINE
8
CONTOURS_MINEURES
66
1
70
0
0
VERTEX
8
CONTOURS_MINEURES
10
200.000
20
1.867
0
VERTEX
8
CONTOURS_MINEURES
10
197.451
20
2.451
0
VERTEX
8
CONTOURS_MINEURES
10
194.998
20
2.586
0
VERTEX
8
CONTOURS_MINEURES
10
190.601
20
0.602
0
VERTEX
8
CONTOURS_MINEURES
10
189.996
20
0.475
0
VERTEX
8
CONTOURS_MINEURES
10
189.616
20
0.377
0
VERTEX
8
CONTOURS_MINEURES
10
188.748
20
-0.004
0
SEQEND
0
POLYLINE
8
CONTOURS_MINEURES
66
1
70
0
0
VERTEX
8
CONTOURS_MINEURES
10
0.005
20
207.546
0
VERTEX
8
CONTOURS_MINEURES
10
3.022
20
206.980
0
VERTEX
8
CONTOURS_MINEURES
10
4.996
20
206.061
0
VERTEX
8
CONTOURS_MINEURES
10
7.276
20
205.003
0
VERTEX
8
CONTOURS_MINEURES
10
8.848
20
203.852
0
VERTEX
8
CONTOURS_MINEURES
10
9.999
20
203.538
0
VERTEX
8
CONTOURS_MINEURES
10
12.796
20
202.795
0
VERTEX
8
CONTOURS_MINEURES
10
15.001
20
202.709
0
VERTEX
8
CONTOURS_MINEURES
10
17.597
20
202.404
0
VERTEX
8
CONTOURS_MINEURES
10
20.003
20
201.957
0
VERTEX
8
CONTOURS_MINEURES
10
21.697
20
201.695
0
VERTEX
8
CONTOURS_MINEURES
10
24.995
20
201.123
0
VERTEX
8
CONTOURS_MINEURES
10
29.299
20
200.694
0
VERTEX
8
CONTOURS_MINEURES
10
29.997
20
200.628
0
VERTEX
8
CONTOURS_MINEURES
10
34.535
20
200.461
0
VERTEX
8
CONTOURS_MINEURES
10
34.999
20
200.426
0
VERTEX
8
CONTOURS_MINEURES
10
35.429
20
200.426
0
VERTEX
8
CONTOURS_MINEURES
10
40.002
20
200.787
0
VERTEX
8
CONTOURS_MINEURES
10
43.759
20
201.242
0
VERTEX
8
CONTOURS_MINEURES
10
45.004
20
201.325
0
VERTEX
8
CONTOURS_MINEURES
10
46.391
20
201.387
0
VERTEX
8
CONTOURS_MINEURES
10
49.996
20
201.915
0
VERTEX
8
CONTOURS_MINEURES
10
52.563
20
202.433
0
VERTEX
8
CONTOURS_MINEURES
10
54.998
20
202.740
0
VERTEX
8
CONTOURS_MINEURES
10
58.425
20
203.427
0
VERTEX
8
CONTOURS_MINEURES
10
60.000
20
203.742
0
VERTEX
8
CONTOURS_MINEURES
10
62.743
20
205.003
0
VERTEX
8
CONTOURS_MINEURES
10
64.557
20
205.448
0
VERTEX
8
CONTOURS_MINEURES
10
65.003
20
205.515
0
VERTEX
8
CONTOURS_MINEURES
10
65.581
20
205.581
0
VERTEX
8
CONTOURS_MINEURES
10
70.005
20
205.926
0
VERTEX
8
CONTOURS_MINEURES
10
73.733
20
206.267
0
VERTEX
8
CONTOURS_MINEURES
10
74.996
20
206.424
0
VERTEX
8
CONTOURS_MINEURES
10
76.598
20
206.602
0
VERTEX
8
CONTOURS_MINEURES
10
79.999
20
207.101
0
VERTEX
8
CONTOURS_MINEURES
10
82.500
20
207.501
0
VERTEX
8
CONTOURS_MINEURES
10
85.001
20
208.078
0
VERTEX
8
CONTOURS_MINEURES
10
86.459
20
208.543
0
VERTEX
8
CONTOURS_MINEURES
10
90.003
20
209.464
0
VERTEX
8
CONTOURS_MINEURES
10
92.019
20
209.999
0
VERTEX
8
CONTOURS_MINEURES
10
94.046
20
210.949
0
VERTEX
8
CONTOURS_MINEURES
10
94.995
20
211.358
0
VERTEX
8
CONTOURS_MINEURES
10
97.408
20
212.410
0
VERTEX
8
CONTOURS_MINEURES
10
99.997
20
213.330
0
VERTEX
8
CONTOURS_MINEURES
10
104.618
20
214.615
0
VERTEX
8
CONTOURS_MINEURES
10
105.000
20
214.707
0
VERTEX
8
CONTOURS_MINEURES
10
105.207
20
214.788
0
VERTEX
8
CONTOURS_MINEURES
10
106.076
20
214.996
0
VERTEX
8
CONTOURS_MINEURES
10
109.269
20
215.730
0
VERTEX
8
CONTOURS_MINEURES
10
110.002
20
216.001
0
VERTEX
8
CONTOURS_MINEURES
10
112.760
20
217.243
0
VERTEX
8
CONTOURS_MINEURES
10
115.004
20
218.122
0
VERTEX
8
CONTOURS_MINEURES
10
117.653
20
220.003
0
VERTEX
8
CONTOURS_MINEURES
10
119.143
20
220.857
0
VERTEX
8
CONTOURS_MINEURES
10
119.996
20
221.585
0
VERTEX
8
CONTOURS_MINEURES
10
123.003
20
223.007
0
VERTEX
8
CONTOURS_MINEURES
10
124.998
20
223.840
0
VERTEX
8
CONTOURS_MINEURES
10
125.893
20
224.106
0
VERTEX
8
CONTOURS_MINEURES
10
128.008
20
225.000
0
VERTEX
8
CONTOURS_MINEURES
10
130.000
20
225.718
0
VERTEX
8
CONTOURS_MINEURES
10
133.327
20
226.673
0
VERTEX
8
CONTOURS_MINEURES
10
135.003
20
227.507
0
VERTEX
8
CONTOURS_MINEURES
10
136.860
20
228.141
0
VERTEX
8
CONTOURS_MINEURES
10
140.005
20
229.537
0
VERTEX
8
CONTOURS_MINEURES
10
141.146
20
229.996
0
SEQEND
0
POLYLINE
8
CONTOURS_MINEURES
66
1
70
0
0
VERTEX
8
CONTOURS_MINEURES
10
0.005
20
221.802
0
VERTEX
8
CONTOURS_MINEURES
10
1.648
20
220.003
0
VERTEX
8
CONTOURS_MINEURES
10
3.049
20
218.050
0
VERTEX
8
CONTOURS_MINEURES
10
4.996
20
215.953
0
VERTEX
8
CONTOURS_MINEURES
10
5.468
20
214.996
0
VERTEX
8
CONTOURS_MINEURES
10
6.725
20
211.726
0
VERTEX
8
CONTOURS_MINEURES
10
7.389
20
209.999
0
VERTEX
8
CONTOURS_MINEURES
10
9.999
20
208.429
0
VERTEX
8
CONTOURS_MINEURES
10
12.793
20
207.795
0
VERTEX
8
CONTOURS_MINEURES
10
15.001
20
207.439
0
VERTEX
8
CONTOURS_MINEURES
10
18.012
20
206.992
0
VERTEX
8
CONTOURS_MINEURES
10
20.003
20
206.669
0
VERTEX
8
CONTOURS_MINEURES
10
23.793
20
206.206
0
VERTEX
8
CONTOURS_MINEURES
10
24.995
20
205.969
0
VERTEX
8
CONTOURS_MINEURES
10
25.719
20
205.727
0
VERTEX
8
CONTOURS_MINEURES
10
29.997
20
205.501
0
VERTEX
8
CONTOURS_MINEURES
10
34.708
20
205.294
0
VERTEX
8
CONTOURS_MINEURES
10
34.999
20
205.251
0
VERTEX
8
CONTOURS_MINEURES
10
39.754
20
205.251
0
VERTEX
8
CONTOURS_MINEURES
10
40.002
20
205.240
0
VERTEX
8
CONTOURS_MINEURES
10
40.238
20
205.239
0
VERTEX
8
CONTOURS_MINEURES
10
45.004
20
205.410
0
VERTEX
8
CONTOURS_MINEURES
10
49.481
20
205.518
0
VERTEX
8
CONTOURS_MINEURES
10
49.996
20
205.504
0
VERTEX
8
CONTOURS_MINEURES
10
50.505
20
205.512
0
VERTEX
8
CONTOURS_MINEURES
10
54.998
20
205.839
0
VERTEX
8
CONTOURS_MINEURES
10
58.730
20
206.271
0
VERTEX
8
CONTOURS_MINEURES
10
60.000
20
206.309
0
VERTEX
8
CONTOURS_MINEURES
10
62.967
20
207.037
0
VERTEX
8
CONTOURS_MINEURES
10
65.003
20
207.341
0
VERTEX
8
CONTOURS_MINEURES
10
67.648
20
207.646
0
VERTEX
8
CONTOURS_MINEURES
10
70.005
20
207.830
0
VERTEX
8
CONTOURS_MINEURES
10
71.991
20
208.011
0
VERTEX
8
CONTOURS_MINEURES
10
74.996
20
208.383
0
VERTEX
8
CONTOURS_MINEURES
10
78.806
20
208.808
0
VERTEX
8
CONTOURS_MINEURES
10
79.999
20
208.983
0
VERTEX
8
CONTOURS_MINEURES
10
84.743
20
209.742
0
VERTEX
8
CONTOURS_MINEURES
10
85.001
20
209.801
0
VERTEX
8
CONTOURS_MINEURES
10
85.151
20
209.849
0
VERTEX
8
CONTOURS_MINEURES
10
85.729
20
209.999
0
VERTEX
8
CONTOURS_MINEURES
10
90.003
20
211.960
0
VERTEX
8
CONTOURS_MINEURES
10
92.069
20
212.928
0
VERTEX
8
CONTOURS_MINEURES
10
94.995
20
214.189
0
VERTEX
8
CONTOURS_MINEURES
10
96.846
20
214.996
0
VERTEX
8
CONTOURS_MINEURES
10
99.997
20
216.226
0
VERTEX
8
CONTOURS_MINEURES
10
103.096
20
216.901
0
VERTEX
8
CONTOURS_MINEURES
10
105.000
20
217.660
0
VERTEX
8
CONTOURS_MINEURES
10
106.903
20
218.097
0
VERTEX
8
CONTOURS_MINEURES
10
110.002
20
219.242
0
VERTEX
8
CONTOURS_MINEURES
10
110.527
20
219.478
0
VERTEX
8
CONTOURS_MINEURES
10
111.868
20
220.003
0
VERTEX
8
CONTOURS_MINEURES
10
114.263
20
220.744
0
VERTEX
8
CONTOURS_MINEURES
10
115.004
20
220.995
0
VERTEX
8
CONTOURS_MINEURES
10
117.548
20
222.454
0
VERTEX
8
CONTOURS_MINEURES
10
119.996
20
224.541
0
VERTEX
8
CONTOURS_MINEURES
10
120.965
20
225.000
0
VERTEX
8
CONTOURS_MINEURES
10
123.783
20
226.214
0
VERTEX
8
CONTOURS_MINEURES
10
124.998
20
226.766
0
VERTEX
8
CONTOURS_MINEURES
10
128.086
20
228.084
0
VERTEX
8
CONTOURS_MINEURES
10
130.000
20
228.774
0
VERTEX
8
CONTOURS_MINEURES
10
130.951
20
229.047
0
VERTEX
8
CONTOURS_MINEURES
10
132.859
20
229.996
0
SEQEND
0
POLYLINE
8
CONTOURS_MINEURES
66
1
70
0
0
VERTEX
8
CONTOURS_MINEURES
10
1.872
20
229.996
0
VERTEX
8
CONTOURS_MINEURES
10
3.179
20
228.177
0
VERTEX
8
CONTOURS_MINEURES
10
4.996
20
226.519
0
VERTEX
8
CONTOURS_MINEURES
10
6.207
20
225.000
0
VERTEX
8
CONTOURS_MINEURES
10
7.744
20
222.748
0
VERTEX
8
CONTOURS_MINEURES
10
9.999
20
220.529
0
VERTEX
8
CONTOURS_MINEURES
10
11.555
20
220.003
0
VERTEX
8
CONTOURS_MINEURES
10
13.538
20
218.539
0
VERTEX
8
CONTOURS_MINEURES
10
15.001
20
216.629
0
VERTEX
8
CONTOURS_MINEURES
10
16.597
20
214.996
0
VERTEX
8
CONTOURS_MINEURES
10
18.521
20
213.515
0
VERTEX
8
CONTOURS_MINEURES
10
20.003
20
212.645
0
VERTEX
8
CONTOURS_MINEURES
10
23.394
20
209.999
0
VERTEX
8
CONTOURS_MINEURES
10
24.995
20
209.684
0
VERTEX
8
CONTOURS_MINEURES
10
28.506
20
208.510
0
VERTEX
8
CONTOURS_MINEURES
10
29.997
20
208.432
0
VERTEX
8
CONTOURS_MINEURES
10
31.639
20
208.360
0
VERTEX
8
CONTOURS_MINEURES
10
34.999
20
207.860
0
VERTEX
8
CONTOURS_MINEURES
10
37.141
20
207.860
0
VERTEX
8
CONTOURS_MINEURES
10
40.002
20
207.739
0
VERTEX
8
CONTOURS_MINEURES
10
42.727
20
207.725
0
VERTEX
8
CONTOURS_MINEURES
10
45.004
20
207.807
0
VERTEX
8
CONTOURS_MINEURES
10
47.143
20
207.858
0
VERTEX
8
CONTOURS_MINEURES
10
49.996
20
207.780
0
VERTEX
8
CONTOURS_MINEURES
10
52.821
20
207.825
0
VERTEX
8
CONTOURS_MINEURES
10
54.998
20
207.984
0
VERTEX
8
CONTOURS_MINEURES
10
56.806
20
208.193
0
VERTEX
8
CONTOURS_MINEURES
10
60.000
20
208.288
0
VERTEX
8
CONTOURS_MINEURES
10
61.376
20
208.625
0
VERTEX
8
CONTOURS_MINEURES
10
65.003
20
209.168
0
VERTEX
8
CONTOURS_MINEURES
10
69.715
20
209.710
0
VERTEX
8
CONTOURS_MINEURES
10
70.005
20
209.733
0
VERTEX
8
CONTOURS_MINEURES
10
70.249
20
209.755
0
VERTEX
8
CONTOURS_MINEURES
10
72.223
20
209.999
0
VERTEX
8
CONTOURS_MINEURES
10
74.388
20
210.609
0
VERTEX
8
CONTOURS_MINEURES
10
74.996
20
210.731
0
VERTEX
8
CONTOURS_MINEURES
10
75.899
20
210.901
0
VERTEX
8
CONTOURS_MINEURES
10
79.999
20
211.831
0
VERTEX
8
CONTOURS_MINEURES
10
82.288
20
212.286
0
VERTEX
8
CONTOURS_MINEURES
10
85.001
20
213.092
0
VERTEX
8
CONTOURS_MINEURES
10
89.761
20
214.754
0
VERTEX
8
CONTOURS_MINEURES
10
90.003
20
214.865
0
VERTEX
8
CONTOURS_MINEURES
10
90.092
20
214.907
0
VERTEX
8
CONTOURS_MINEURES
10
90.299
20
214.996
0
VERTEX
8
CONTOURS_MINEURES
10
94.995
20
216.921
0
VERTEX
8
CONTOURS_MINEURES
10
97.963
20
217.967
0
VERTEX
8
CONTOURS_MINEURES
10
99.997
20
218.761
0
VERTEX
8
CONTOURS_MINEURES
10
101.016
20
218.983
0
VERTEX
8
CONTOURS_MINEURES
10
103.576
20
220.003
0
VERTEX
8
CONTOURS_MINEURES
10
105.000
20
220.482
0
VERTEX
8
CONTOURS_MINEURES
10
105.665
20
220.668
0
VERTEX
8
CONTOURS_MINEURES
10
110.002
20
221.882
0
VERTEX
8
CONTOURS_MINEURES
10
112.386
20
222.619
0
VERTEX
8
CONTOURS_MINEURES
10
115.004
20
223.506
0
VERTEX
8
CONTOURS_MINEURES
10
115.953
20
224.050
0
VERTEX
8
CONTOURS_MINEURES
10
117.067
20
225.000
0
VERTEX
8
CONTOURS_MINEURES
10
119.996
20
227.276
0
VERTEX
8
CONTOURS_MINEURES
10
121.899
20
228.095
0
VERTEX
8
CONTOURS_MINEURES
10
124.998
20
229.503
0
VERTEX
8
CONTOURS_MINEURES
10
126.152
20
229.996
0
SEQEND
0
POLYLINE
8
CONTOURS_MINEURES
66
1
70
0
0
VERTEX
8
CONTOURS_MINEURES
10
7.987
20
229.996
0
VERTEX
8
CONTOURS_MINEURES
10
9.999
20
227.578
0
VERTEX
8
CONTOURS_MINEURES
10
12.639
20
227.359
0
VERTEX
8
CONTOURS_MINEURES
10
15.001
20
227.235
0
VERTEX
8
CONTOURS_MINEURES
10
18.184
20
226.817
0
VERTEX
8
CONTOURS_MINEURES
10
20.003
20
226.998
0
VERTEX
8
CONTOURS_MINEURES
10
21.935
20
226.934
0
VERTEX
8
CONTOURS_MINEURES
10
24.524
20
225.000
0
VERTEX
8
CONTOURS_MINEURES
10
24.995
20
224.615
0
VERTEX
8
CONTOURS_MINEURES
10
27.051
20
222.057
0
VERTEX
8
CONTOURS_MINEURES
10
28.997
20
220.003
0
VERTEX
8
CONTOURS_MINEURES
10
29.997
20
218.171
0
VERTEX
8
CONTOURS_MINEURES
10
31.708
20
214.996
0
VERTEX
8
CONTOURS_MINEURES
10
33.250
20
213.249
0
VERTEX
8
CONTOURS_MINEURES
10
34.999
20
212.091
0
VERTEX
8
CONTOURS_MINEURES
10
36.395
20
211.394
0
VERTEX
8
CONTOURS_MINEURES
10
40.002
20
210.847
0
VERTEX
8
CONTOURS_MINEURES
10
44.231
20
210.772
0
VERTEX
8
CONTOURS_MINEURES
10
45.004
20
210.633
0
VERTEX
8
CONTOURS_MINEURES
10
45.528
20
210.524
0
VERTEX
8
CONTOURS_MINEURES
10
49.996
20
210.166
0
VERTEX
8
CONTOURS_MINEURES
10
54.616
20
210.381
0
VERTEX
8
CONTOURS_MINEURES
10
54.998
20
210.338
0
VERTEX
8
CONTOURS_MINEURES
10
55.351
20
210.352
0
VERTEX
8
CONTOURS_MINEURES
10
60.000
20
210.729
0
VERTEX
8
CONTOURS_MINEURES
10
62.960
20
212.039
0
VERTEX
8
CONTOURS_MINEURES
10
65.003
20
212.750
0
VERTEX
8
CONTOURS_MINEURES
10
66.708
20
213.292
0
VERTEX
8
CONTOURS_MINEURES
10
70.005
20
213.836
0
VERTEX
8
CONTOURS_MINEURES
10
70.909
20
214.091
0
VERTEX
8
CONTOURS_MINEURES
10
74.996
20
214.912
0
VERTEX
8
CONTOURS_MINEURES
10
75.441
20
214.996
0
VERTEX
8
CONTOURS_MINEURES
10
79.999
20
215.782
0
VERTEX
8
CONTOURS_MINEURES
10
83.537
20
216.461
0
VERTEX
8
CONTOURS_MINEURES
10
85.001
20
216.742
0
VERTEX
8
CONTOURS_MINEURES
10
87.357
20
217.645
0
VERTEX
8
CONTOURS_MINEURES
10
90.003
20
218.173
0
VERTEX
8
CONTOURS_MINEURES
10
94.337
20
219.343
0
VERTEX
8
CONTOURS_MINEURES
10
94.995
20
219.613
0
VERTEX
8
CONTOURS_MINEURES
10
96.102
20
220.003
0
VERTEX
8
CONTOURS_MINEURES
10
99.997
20
221.476
0
VERTEX
8
CONTOURS_MINEURES
10
101.887
20
221.891
0
VERTEX
8
CONTOURS_MINEURES
10
105.000
20
222.937
0
VERTEX
8
CONTOURS_MINEURES
10
109.080
20
224.079
0
VERTEX
8
CONTOURS_MINEURES
10
110.002
20
224.337
0
VERTEX
8
CONTOURS_MINEURES
10
110.509
20
224.494
0
VERTEX
8
CONTOURS_MINEURES
10
112.003
20
225.000
0
VERTEX
8
CONTOURS_MINEURES
10
115.004
20
226.068
0
VERTEX
8
CONTOURS_MINEURES
10
119.875
20
229.876
0
VERTEX
8
CONTOURS_MINEURES
10
119.996
20
229.969
0
VERTEX
8
CONTOURS_MINEURES
10
120.015
20
229.977
0
VERTEX
8
CONTOURS_MINEURES
10
120.056
20
229.996
0
SEQEND
0
POLYLINE
8
CONTOURS_MINEURES
66
1
70
0
0
VERTEX
8
CONTOURS_MINEURES
10
32.367
20
229.996
0
VERTEX
8
CONTOURS_MINEURES
10
34.999
20
226.873
0
VERTEX
8
CONTOURS_MINEURES
10
36.013
20
226.013
0
VERTEX
8
CONTOURS_MINEURES
10
37.113
20
225.000
0
VERTEX
8
CONTOURS_MINEURES
10
40.002
20
222.373
0
VERTEX
8
CONTOURS_MINEURES
10
42.849
20
220.003
0
VERTEX
8
CONTOURS_MINEURES
10
43.967
20
218.965
0
VERTEX
8
CONTOURS_MINEURES
10
45.004
20
218.740
0
VERTEX
8
CONTOURS_MINEURES
10
46.688
20
218.314
0
VERTEX
8
CONTOURS_MINEURES
10
49.996
20
217.164
0
VERTEX
8
CONTOURS_MINEURES
10
51.684
20
216.686
0
VERTEX
8
CONTOURS_MINEURES
10
54.998
20
216.221
0
VERTEX
8
CONTOURS_MINEURES
10
56.120
20
216.119
0
VERTEX
8
CONTOURS_MINEURES
10
60.000
20
216.286
0
VERTEX
8
CONTOURS_MINEURES
10
62.609
20
217.392
0
VERTEX
8
CONTOURS_MINEURES
10
65.003
20
217.643
0
VERTEX
8
CONTOURS_MINEURES
10
67.910
20
217.906
0
VERTEX
8
CONTOURS_MINEURES
10
70.005
20
218.246
0
VERTEX
8
CONTOURS_MINEURES
10
71.452
20
218.552
0
VERTEX
8
CONTOURS_MINEURES
10
74.996
20
219.102
0
VERTEX
8
CONTOURS_MINEURES
10
79.536
20
219.540
0
VERTEX
8
CONTOURS_MINEURES
10
79.999
20
219.620
0
VERTEX
8
CONTOURS_MINEURES
10
80.320
20
219.681
0
VERTEX
8
CONTOURS_MINEURES
10
82.000
20
220.003
0
VERTEX
8
CONTOURS_MINEURES
10
85.001
20
220.641
0
VERTEX
8
CONTOURS_MINEURES
10
88.477
20
221.528
0
VERTEX
8
CONTOURS_MINEURES
10
90.003
20
221.788
0
VERTEX
8
CONTOURS_MINEURES
10
92.184
20
222.186
0
VERTEX
8
CONTOURS_MINEURES
10
94.995
20
222.980
0
VERTEX
8
CONTOURS_MINEURES
10
98.974
20
223.977
0
VERTEX
8
CONTOURS_MINEURES
10
99.997
20
224.364
0
VERTEX
8
CONTOURS_MINEURES
10
102.893
20
225.000
0
VERTEX
8
CONTOURS_MINEURES
10
105.000
20
225.555
0
VERTEX
8
CONTOURS_MINEURES
10
108.185
20
226.814
0
VERTEX
8
CONTOURS_MINEURES
10
110.002
20
227.190
0
VERTEX
8
CONTOURS_MINEURES
10
112.995
20
227.989
0
VERTEX
8
CONTOURS_MINEURES
10
115.004
20
228.704
0
VERTEX
8
CONTOURS_MINEURES
10
116.657
20
229.996
0
SEQEND
0
POLYLINE
8
CONTOURS_MINEURES
66
1
70
0
0
VERTEX
8
CONTOURS_MINEURES
10
47.672
20
229.996
0
VERTEX
8
CONTOURS_MINEURES
10
49.996
20
228.069
0
VERTEX
8
CONTOURS_MINEURES
10
53.979
20
225.000
0
VERTEX
8
CONTOURS_MINEURES
10
54.998
20
224.466
0
VERTEX
8
CONTOURS_MINEURES
10
55.609
20
224.389
0
VERTEX
8
CONTOURS_MINEURES
10
60.000
20
222.726
0
VERTEX
8
CONTOURS_MINEURES
10
62.246
20
222.246
0
VERTEX
8
CONTOURS_MINEURES
10
65.003
20
222.552
0
VERTEX
8
CONTOURS_MINEURES
10
67.239
20
222.766
0
VERTEX
8
CONTOURS_MINEURES
10
70.005
20
222.957
0
VERTEX
8
CONTOURS_MINEURES
10
73.174
20
223.176
0
VERTEX
8
CONTOURS_MINEURES
10
74.996
20
223.474
0
VERTEX
8
CONTOURS_MINEURES
10
76.383
20
223.615
0
VERTEX
8
CONTOURS_MINEURES
10
79.999
20
223.983
0
VERTEX
8
CONTOURS_MINEURES
10
84.866
20
224.865
0
VERTEX
8
CONTOURS_MINEURES
10
85.001
20
224.893
0
VERTEX
8
CONTOURS_MINEURES
10
85.086
20
224.915
0
VERTEX
8
CONTOURS_MINEURES
10
85.583
20
225.000
0
VERTEX
8
CONTOURS_MINEURES
10
89.302
20
225.700
0
VERTEX
8
CONTOURS_MINEURES
10
90.003
20
225.775
0
VERTEX
8
CONTOURS_MINEURES
10
93.554
20
226.442
0
VERTEX
8
CONTOURS_MINEURES
10
94.995
20
226.727
0
VERTEX
8
CONTOURS_MINEURES
10
97.520
20
227.474
0
VERTEX
8
CONTOURS_MINEURES
10
99.997
20
227.941
0
VERTEX
8
CONTOURS_MINEURES
10
103.678
20
228.676
0
VERTEX
8
CONTOURS_MINEURES
10
105.000
20
229.025
0
VERTEX
8
CONTOURS_MINEURES
10
105.696
20
229.300
0
VERTEX
8
CONTOURS_MINEURES
10
109.059
20
229.996
0
SEQEND
0
POLYLINE
8
CONTOURS_MINEURES
66
1
70
0
0
VERTEX
8
CONTOURS_MINEURES
10
62.439
20
229.996
0
VERTEX
8
CONTOURS_MINEURES
10
65.003
20
228.574
0
VERTEX
8
CONTOURS_MINEURES
10
68.437
20
228.431
0
VERTEX
8
CONTOURS_MINEURES
10
70.005
20
228.564
0
VERTEX
8
CONTOURS_MINEURES
10
73.196
20
228.194
0
VERTEX
8
CONTOURS_MINEURES
10
74.996
20
228.322
0
VERTEX
8
CONTOURS_MINEURES
10
76.497
20
228.497
0
VERTEX
8
CONTOURS_MINEURES
10
79.999
20
228.886
0
VERTEX
8
CONTOURS_MINEURES
10
84.118
20
229.114
0
VERTEX
8
CONTOURS_MINEURES
10
85.001
20
229.273
0
VERTEX
8
CONTOURS_MINEURES
10
85.610
20
229.388
0
VERTEX
8
CONTOURS_MINEURES
10
90.003
20
229.853
0
VERTEX
8
CONTOURS_MINEURES
10
90.123
20
229.876
0
VERTEX
8
CONTOURS_MINEURES
10
90.731
20
229.996
0
SEQEND
0
POLYLINE
8
CONTOURS_MAJEURES
66
1
70
0
0
VERTEX
8
CONTOURS_MAJEURES
10
0.005
20
181.393
0
VERTEX
8
CONTOURS_MAJEURES
10
1.508
20
181.504
0
VERTEX
8
CONTOURS_MAJEURES
10
4.996
20
181.876
0
VERTEX
8
CONTOURS_MAJEURES
10
7.926
20
182.069
0
VERTEX
8
CONTOURS_MAJEURES
10
9.999
20
182.217
0
VERTEX
8
CONTOURS_MAJEURES
10
12.277
20
182.275
0
VERTEX
8
CONTOURS_MAJEURES
10
15.001
20
182.344
0
VERTEX
8
CONTOURS_MAJEURES
10
17.725
20
182.275
0
VERTEX
8
CONTOURS_MAJEURES
10
20.003
20
182.069
0
VERTEX
8
CONTOURS_MAJEURES
10
23.028
20
181.968
0
VERTEX
8
CONTOURS_MAJEURES
10
24.995
20
181.752
0
VERTEX
8
CONTOURS_MAJEURES
10
26.758
20
181.760
0
VERTEX
8
CONTOURS_MAJEURES
10
29.997
20
181.816
0
VERTEX
8
CONTOURS_MAJEURES
10
32.915
20
182.081
0
VERTEX
8
CONTOURS_MAJEURES
10
34.999
20
182.300
0
VERTEX
8
CONTOURS_MAJEURES
10
37.549
20
182.546
0
VERTEX
8
CONTOURS_MAJEURES
10
40.002
20
182.893
0
VERTEX
8
CONTOURS_MAJEURES
10
42.047
20
182.952
0
VERTEX
8
CONTOURS_MAJEURES
10
45.004
20
183.315
0
VERTEX
8
CONTOURS_MAJEURES
10
49.030
20
184.029
0
VERTEX
8
CONTOURS_MAJEURES
10
49.996
20
183.330
0
VERTEX
8
CONTOURS_MAJEURES
10
51.746
20
183.247
0
VERTEX
8
CONTOURS_MAJEURES
10
52.689
20
184.995
0
VERTEX
8
CONTOURS_MAJEURES
10
54.458
20
185.536
0
VERTEX
8
CONTOURS_MAJEURES
10
54.998
20
185.739
0
VERTEX
8
CONTOURS_MAJEURES
10
56.180
20
186.178
0
VERTEX
8
CONTOURS_MAJEURES
10
60.000
20
187.419
0
VERTEX
8
CONTOURS_MAJEURES
10
61.462
20
188.540
0
VERTEX
8
CONTOURS_MAJEURES
10
63.131
20
190.003
0
VERTEX
8
CONTOURS_MAJEURES
10
64.270
20
190.735
0
VERTEX
8
CONTOURS_MAJEURES
10
65.003
20
191.041
0
VERTEX
8
CONTOURS_MAJEURES
10
66.554
20
191.552
0
VERTEX
8
CONTOURS_MAJEURES
10
70.005
20
192.612
0
VERTEX
8
CONTOURS_MAJEURES
10
74.298
20
194.999
0
VERTEX
8
CONTOURS_MAJEURES
10
74.996
20
195.282
0
VERTEX
8
CONTOURS_MAJEURES
10
79.040
20
195.957
0
VERTEX
8
CONTOURS_MAJEURES
10
79.999
20
195.955
0
VERTEX
8
CONTOURS_MAJEURES
10
81.300
20
196.299
0
VERTEX
8
CONTOURS_MAJEURES
10
85.001
20
196.747
0
VERTEX
8
CONTOURS_MAJEURES
10
89.761
20
199.996
0
VERTEX
8
CONTOURS_MAJEURES
10
90.003
20
200.218
0
VERTEX
8
CONTOURS_MAJEURES
10
93.392
20
201.603
0
VERTEX
8
CONTOURS_MAJEURES
10
94.995
20
202.990
0
VERTEX
8
CONTOURS_MAJEURES
10
96.818
20
203.178
0
VERTEX
8
CONTOURS_MAJEURES
10
97.925
20
205.003
0
VERTEX
8
CONTOURS_MAJEURES
10
99.616
20
205.383
0
VERTEX
8
CONTOURS_MAJEURES
10
99.997
20
205.448
0
VERTEX
8
CONTOURS_MAJEURES
10
100.497
20
205.502
0
VERTEX
8
CONTOURS_MAJEURES
10
105.000
20
205.792
0
VERTEX
8
CONTOURS_MAJEURES
10
105.968
20
205.971
0
VERTEX
8
CONTOURS_MAJEURES
10
110.002
20
206.109
0
VERTEX
8
CONTOURS_MAJEURES
10
114.004
20
206.002
0
VERTEX
8
CONTOURS_MAJEURES
10
115.004
20
206.455
0
VERTEX
8
CONTOURS_MAJEURES
10
117.964
20
207.966
0
VERTEX
8
CONTOURS_MAJEURES
10
119.807
20
205.003
0
VERTEX
8
CONTOURS_MAJEURES
10
119.484
20
204.489
0
VERTEX
8
CONTOURS_MAJEURES
10
118.430
20
199.996
0
VERTEX
8
CONTOURS_MAJEURES
10
117.734
20
197.263
0
VERTEX
8
CONTOURS_MAJEURES
10
115.004
20
195.624
0
VERTEX
8
CONTOURS_MAJEURES
10
113.080
20
194.999
0
VERTEX
8
CONTOURS_MAJEURES
10
111.028
20
193.974
0
VERTEX
8
CONTOURS_MAJEURES
10
110.002
20
193.519
0
VERTEX
8
CONTOURS_MAJEURES
10
107.362
20
190.003
0
VERTEX
8
CONTOURS_MAJEURES
10
106.635
20
188.366
0
VERTEX
8
CONTOURS_MAJEURES
10
105.270
20
184.995
0
VERTEX
8
CONTOURS_MAJEURES
10
105.000
20
184.638
0
VERTEX
8
CONTOURS_MAJEURES
10
102.832
20
182.164
0
VERTEX
8
CONTOURS_MAJEURES
10
99.997
20
181.134
0
VERTEX
8
CONTOURS_MAJEURES
10
98.434
20
179.999
0
VERTEX
8
CONTOURS_MAJEURES
10
96.191
20
178.804
0
VERTEX
8
CONTOURS_MAJEURES
10
94.995
20
177.844
0
VERTEX
8
CONTOURS_MAJEURES
10
91.915
20
175.003
0
VERTEX
8
CONTOURS_MAJEURES
10
91.453
20
173.549
0
VERTEX
8
CONTOURS_MAJEURES
10
90.114
20
169.995
0
VERTEX
8
CONTOURS_MAJEURES
10
90.003
20
169.440
0
VERTEX
8
CONTOURS_MAJEURES
10
88.860
20
166.141
0
VERTEX
8
CONTOURS_MAJEURES
10
88.892
20
164.999
0
VERTEX
8
CONTOURS_MAJEURES
10
88.712
20
163.709
0
VERTEX
8
CONTOURS_MAJEURES
10
87.449
20
160.002
0
VERTEX
8
CONTOURS_MAJEURES
10
87.821
20
157.817
0
VERTEX
8
CONTOURS_MAJEURES
10
88.102
20
154.995
0
VERTEX
8
CONTOURS_MAJEURES
10
88.525
20
151.475
0
VERTEX
8
CONTOURS_MAJEURES
10
88.703
20
149.998
0
VERTEX
8
CONTOURS_MAJEURES
10
88.491
20
148.488
0
VERTEX
8
CONTOURS_MAJEURES
10
89.057
20
145.002
0
VERTEX
8
CONTOURS_MAJEURES
10
89.415
20
140.584
0
VERTEX
8
CONTOURS_MAJEURES
10
89.234
20
139.994
0
VERTEX
8
CONTOURS_MAJEURES
10
89.477
20
139.469
0
VERTEX
8
CONTOURS_MAJEURES
10
90.003
20
138.995
0
VERTEX
8
CONTOURS_MAJEURES
10
92.580
20
137.577
0
VERTEX
8
CONTOURS_MAJEURES
10
94.995
20
137.410
0
VERTEX
8
CONTOURS_MAJEURES
10
98.121
20
136.872
0
VERTEX
8
CONTOURS_MAJEURES
10
99.997
20
136.283
0
VERTEX
8
CONTOURS_MAJEURES
10
101.729
20
134.998
0
VERTEX
8
CONTOURS_MAJEURES
10
100.640
20
134.356
0
VERTEX
8
CONTOURS_MAJEURES
10
99.997
20
132.000
0
VERTEX
8
CONTOURS_MAJEURES
10
97.269
20
130.002
0
VERTEX
8
CONTOURS_MAJEURES
10
94.995
20
127.226
0
VERTEX
8
CONTOURS_MAJEURES
10
94.163
20
125.838
0
VERTEX
8
CONTOURS_MAJEURES
10
94.044
20
125.005
0
VERTEX
8
CONTOURS_MAJEURES
10
93.664
20
123.670
0
VERTEX
8
CONTOURS_MAJEURES
10
91.572
20
119.998
0
VERTEX
8
CONTOURS_MAJEURES
10
90.469
20
119.532
0
VERTEX
8
CONTOURS_MAJEURES
10
90.003
20
116.563
0
VERTEX
8
CONTOURS_MAJEURES
10
89.471
20
115.533
0
VERTEX
8
CONTOURS_MAJEURES
10
89.557
20
115.001
0
VERTEX
8
CONTOURS_MAJEURES
10
89.557
20
114.555
0
VERTEX
8
CONTOURS_MAJEURES
10
89.253
20
110.005
0
VERTEX
8
CONTOURS_MAJEURES
10
90.003
20
107.501
0
VERTEX
8
CONTOURS_MAJEURES
10
90.384
20
105.379
0
VERTEX
8
CONTOURS_MAJEURES
10
90.684
20
104.998
0
VERTEX
8
CONTOURS_MAJEURES
10
91.608
20
101.607
0
VERTEX
8
CONTOURS_MAJEURES
10
94.995
20
100.251
0
VERTEX
8
CONTOURS_MAJEURES
10
95.120
20
100.126
0
VERTEX
8
CONTOURS_MAJEURES
10
95.450
20
100.001
0
VERTEX
8
CONTOURS_MAJEURES
10
96.804
20
96.812
0
VERTEX
8
CONTOURS_MAJEURES
10
98.860
20
95.005
0
VERTEX
8
CONTOURS_MAJEURES
10
98.145
20
91.852
0
VERTEX
8
CONTOURS_MAJEURES
10
97.723
20
89.997
0
VERTEX
8
CONTOURS_MAJEURES
10
98.997
20
86.000
0
VERTEX
8
CONTOURS_MAJEURES
10
99.397
20
85.001
0
VERTEX
8
CONTOURS_MAJEURES
10
99.568
20
84.573
0
VERTEX
8
CONTOURS_MAJEURES
10
98.330
20
80.004
0
VERTEX
8
CONTOURS_MAJEURES
10
96.359
20
76.363
0
VERTEX
8
CONTOURS_MAJEURES
10
95.471
20
74.997
0
VERTEX
8
CONTOURS_MAJEURES
10
95.561
20
74.431
0
VERTEX
8
CONTOURS_MAJEURES
10
95.561
20
70.001
0
VERTEX
8
CONTOURS_MAJEURES
10
96.686
20
66.693
0
VERTEX
8
CONTOURS_MAJEURES
10
98.997
20
65.004
0
VERTEX
8
CONTOURS_MAJEURES
10
99.186
20
64.192
0
VERTEX
8
CONTOURS_MAJEURES
10
99.997
20
63.638
0
VERTEX
8
CONTOURS_MAJEURES
10
102.351
20
59.997
0
VERTEX
8
CONTOURS_MAJEURES
10
101.784
20
56.785
0
VERTEX
8
CONTOURS_MAJEURES
10
102.630
20
55.000
0
VERTEX
8
CONTOURS_MAJEURES
10
100.497
20
50.504
0
VERTEX
8
CONTOURS_MAJEURES
10
100.712
20
50.004
0
VERTEX
8
CONTOURS_MAJEURES
10
100.497
20
49.503
0
VERTEX
8
CONTOURS_MAJEURES
10
100.497
20
44.996
0
VERTEX
8
CONTOURS_MAJEURES
10
100.497
20
44.497
0
VERTEX
8
CONTOURS_MAJEURES
10
101.536
20
40.000
0
VERTEX
8
CONTOURS_MAJEURES
10
105.000
20
35.912
0
VERTEX
8
CONTOURS_MAJEURES
10
105.667
20
35.670
0
VERTEX
8
CONTOURS_MAJEURES
10
108.334
20
35.004
0
VERTEX
8
CONTOURS_MAJEURES
10
110.002
20
34.378
0
VERTEX
8
CONTOURS_MAJEURES
10
112.336
20
32.333
0
VERTEX
8
CONTOURS_MAJEURES
10
114.379
20
29.996
0
VERTEX
8
CONTOURS_MAJEURES
10
115.004
20
29.684
0
VERTEX
8
CONTOURS_MAJEURES
10
115.102
20
29.898
0
VERTEX
8
CONTOURS_MAJEURES
10
116.252
20
29.996
0
VERTEX
8
CONTOURS_MAJEURES
10
118.634
20
31.362
0
VERTEX
8
CONTOURS_MAJEURES
10
119.996
20
30.649
0
VERTEX
8
CONTOURS_MAJEURES
10
120.678
20
30.679
0
VERTEX
8
CONTOURS_MAJEURES
10
124.998
20
32.361
0
VERTEX
8
CONTOURS_MAJEURES
10
127.316
20
32.683
0
VERTEX
8
CONTOURS_MAJEURES
10
130.000
20
33.056
0
VERTEX
8
CONTOURS_MAJEURES
10
132.896
20
32.895
0
VERTEX
8
CONTOURS_MAJEURES
10
135.003
20
32.714
0
VERTEX
8
CONTOURS_MAJEURES
10
137.763
20
32.241
0
VERTEX
8
CONTOURS_MAJEURES
10
140.005
20
31.381
0
VERTEX
8
CONTOURS_MAJEURES
10
141.386
20
31.381
0
VERTEX
8
CONTOURS_MAJEURES
10
144.997
20
31.457
0
VERTEX
8
CONTOURS_MAJEURES
10
148.862
20
31.134
0
VERTEX
8
CONTOURS_MAJEURES
10
149.999
20
31.280
0
VERTEX
8
CONTOURS_MAJEURES
10
150.649
20
30.646
0
VERTEX
8
CONTOURS_MAJEURES
10
150.819
20
29.996
0
VERTEX
8
CONTOURS_MAJEURES
10
155.001
20
25.886
0
VERTEX
8
CONTOURS_MAJEURES
10
155.471
20
25.469
0
VERTEX
8
CONTOURS_MAJEURES
10
156.899
20
25.000
0
VERTEX
8
CONTOURS_MAJEURES
10
160.003
20
22.956
0
VERTEX
8
CONTOURS_MAJEURES
10
161.884
20
21.886
0
VERTEX
8
CONTOURS_MAJEURES
10
164.995
20
21.358
0
VERTEX
8
CONTOURS_MAJEURES
10
166.477
20
21.484
0
VERTEX
8
CONTOURS_MAJEURES
10
169.997
20
20.685
0
VERTEX
8
CONTOURS_MAJEURES
10
173.653
20
21.349
0
VERTEX
8
CONTOURS_MAJEURES
10
173.165
20
25.000
0
VERTEX
8
CONTOURS_MAJEURES
10
175.000
20
29.580
0
VERTEX
8
CONTOURS_MAJEURES
10
175.303
20
29.693
0
VERTEX
8
CONTOURS_MAJEURES
10
176.250
20
29.996
0
VERTEX
8
CONTOURS_MAJEURES
10
179.092
20
30.907
0
VERTEX
8
CONTOURS_MAJEURES
10
180.002
20
31.109
0
VERTEX
8
CONTOURS_MAJEURES
10
184.042
20
30.959
0
VERTEX
8
CONTOURS_MAJEURES
10
185.004
20
30.804
0
VERTEX
8
CONTOURS_MAJEURES
10
185.514
20
30.507
0
VERTEX
8
CONTOURS_MAJEURES
10
186.193
20
29.996
0
VERTEX
8
CONTOURS_MAJEURES
10
189.996
20
27.239
0
VERTEX
8
CONTOURS_MAJEURES
10
193.634
20
26.362
0
VERTEX
8
CONTOURS_MAJEURES
10
194.998
20
25.789
0
VERTEX
8
CONTOURS_MAJEURES
10
195.343
20
25.344
0
VERTEX
8
CONTOURS_MAJEURES
10
196.110
20
25.000
0
VERTEX
8
CONTOURS_MAJEURES
10
198.000
20
22.002
0
VERTEX
8
CONTOURS_MAJEURES
10
194.998
20
23.696
0
VERTEX
8
CONTOURS_MAJEURES
10
193.634
20
23.637
0
VERTEX
8
CONTOURS_MAJEURES
10
189.996
20
22.760
0
VERTEX
8
CONTOURS_MAJEURES
10
188.221
20
21.780
0
VERTEX
8
CONTOURS_MAJEURES
10
185.004
20
22.585
0
VERTEX
8
CONTOURS_MAJEURES
10
182.503
20
22.502
0
VERTEX
8
CONTOURS_MAJEURES
10
180.002
20
21.558
0
VERTEX
8
CONTOURS_MAJEURES
10
177.501
20
20.003
0
VERTEX
8
CONTOURS_MAJEURES
10
175.000
20
19.404
0
VERTEX
8
CONTOURS_MAJEURES
10
170.273
20
19.728
0
VERTEX
8
CONTOURS_MAJEURES
10
169.997
20
19.561
0
VERTEX
8
CONTOURS_MAJEURES
10
166.021
20
18.976
0
VERTEX
8
CONTOURS_MAJEURES
10
164.995
20
18.789
0
VERTEX
8
CONTOURS_MAJEURES
10
161.711
20
18.290
0
VERTEX
8
CONTOURS_MAJEURES
10
160.003
20
17.833
0
VERTEX
8
CONTOURS_MAJEURES
10
156.391
20
16.387
0
VERTEX
8
CONTOURS_MAJEURES
10
155.001
20
15.830
0
VERTEX
8
CONTOURS_MAJEURES
10
154.384
20
15.614
0
VERTEX
8
CONTOURS_MAJEURES
10
150.833
20
14.996
0
VERTEX
8
CONTOURS_MAJEURES
10
149.999
20
14.863
0
VERTEX
8
CONTOURS_MAJEURES
10
145.256
20
14.736
0
VERTEX
8
CONTOURS_MAJEURES
10
144.997
20
14.698
0
VERTEX
8
CONTOURS_MAJEURES
10
144.741
20
14.740
0
VERTEX
8
CONTOURS_MAJEURES
10
140.005
20
14.154
0
VERTEX
8
CONTOURS_MAJEURES
10
136.376
20
13.624
0
VERTEX
8
CONTOURS_MAJEURES
10
135.003
20
13.225
0
VERTEX
8
CONTOURS_MAJEURES
10
132.501
20
12.498
0
VERTEX
8
CONTOURS_MAJEURES
10
130.000
20
10.096
0
VERTEX
8
CONTOURS_MAJEURES
10
129.928
20
10.072
0
VERTEX
8
CONTOURS_MAJEURES
10
129.643
20
9.999
0
VERTEX
8
CONTOURS_MAJEURES
10
125.821
20
9.177
0
VERTEX
8
CONTOURS_MAJEURES
10
124.998
20
8.797
0
VERTEX
8
CONTOURS_MAJEURES
10
123.697
20
8.700
0
VERTEX
8
CONTOURS_MAJEURES
10
119.996
20
9.111
0
VERTEX
8
CONTOURS_MAJEURES
10
118.167
20
6.833
0
VERTEX
8
CONTOURS_MAJEURES
10
115.004
20
5.154
0
VERTEX
8
CONTOURS_MAJEURES
10
114.569
20
5.003
0
VERTEX
8
CONTOURS_MAJEURES
10
113.754
20
3.751
0
VERTEX
8
CONTOURS_MAJEURES
10
111.002
20
-0.004
0
SEQEND
0
POLYLINE
8
CONTOURS_MAJEURES
66
1
70
0
0
VERTEX
8
CONTOURS_MAJEURES
10
15.001
20
4.499
0
VERTEX
8
CONTOURS_MAJEURES
10
15.498
20
4.506
0
VERTEX
8
CONTOURS_MAJEURES
10
16.460
20
5.003
0
VERTEX
8
CONTOURS_MAJEURES
10
15.762
20
5.763
0
VERTEX
8
CONTOURS_MAJEURES
10
15.064
20
9.999
0
VERTEX
8
CONTOURS_MAJEURES
10
15.032
20
10.031
0
VERTEX
8
CONTOURS_MAJEURES
10
15.001
20
10.040
0
VERTEX
8
CONTOURS_MAJEURES
10
14.897
20
9.999
0
VERTEX
8
CONTOURS_MAJEURES
10
14.901
20
9.900
0
VERTEX
8
CONTOURS_MAJEURES
10
13.889
20
5.003
0
VERTEX
8
CONTOURS_MAJEURES
10
15.001
20
4.499
0
SEQEND
0
POLYLINE
8
CONTOURS_MAJEURES
66
1
70
0
0
VERTEX
8
CONTOURS_MAJEURES
10
118.828
20
95.005
0
VERTEX
8
CONTOURS_MAJEURES
10
118.802
20
96.199
0
VERTEX
8
CONTOURS_MAJEURES
10
118.802
20
100.001
0
VERTEX
8
CONTOURS_MAJEURES
10
119.996
20
101.487
0
VERTEX
8
CONTOURS_MAJEURES
10
123.168
20
101.829
0
VERTEX
8
CONTOURS_MAJEURES
10
124.998
20
103.260
0
VERTEX
8
CONTOURS_MAJEURES
10
129.412
20
104.410
0
VERTEX
8
CONTOURS_MAJEURES
10
130.000
20
104.331
0
VERTEX
8
CONTOURS_MAJEURES
10
133.826
20
103.822
0
VERTEX
8
CONTOURS_MAJEURES
10
135.003
20
103.946
0
VERTEX
8
CONTOURS_MAJEURES
10
138.952
20
100.001
0
VERTEX
8
CONTOURS_MAJEURES
10
138.754
20
96.254
0
VERTEX
8
CONTOURS_MAJEURES
10
135.003
20
95.837
0
VERTEX
8
CONTOURS_MAJEURES
10
134.065
20
95.942
0
VERTEX
8
CONTOURS_MAJEURES
10
130.000
20
95.005
0
VERTEX
8
CONTOURS_MAJEURES
10
125.393
20
94.609
0
VERTEX
8
CONTOURS_MAJEURES
10
124.998
20
94.692
0
VERTEX
8
CONTOURS_MAJEURES
10
124.698
20
94.704
0
VERTEX
8
CONTOURS_MAJEURES
10
119.996
20
94.055
0
VERTEX
8
CONTOURS_MAJEURES
10
118.828
20
95.005
0
SEQEND
0
POLYLINE
8
CONTOURS_MAJEURES
66
1
70
0
0
VERTEX
8
CONTOURS_MAJEURES
10
160.003
20
214.917
0
VERTEX
8
CONTOURS_MAJEURES
10
159.890
20
214.882
0
VERTEX
8
CONTOURS_MAJEURES
10
155.001
20
214.882
0
VERTEX
8
CONTOURS_MAJEURES
10
154.376
20
214.371
0
VERTEX
8
CONTOURS_MAJEURES
10
149.999
20
212.057
0
VERTEX
8
CONTOURS_MAJEURES
10
147.998
20
214.996
0
VERTEX
8
CONTOURS_MAJEURES
10
149.999
20
215.378
0
VERTEX
8
CONTOURS_MAJEURES
10
154.960
20
215.037
0
VERTEX
8
CONTOURS_MAJEURES
10
155.001
20
215.065
0
VERTEX
8
CONTOURS_MAJEURES
10
155.194
20
215.188
0
VERTEX
8
CONTOURS_MAJEURES
10
160.003
20
215.188
0
VERTEX
8
CONTOURS_MAJEURES
10
160.360
20
214.996
0
VERTEX
8
CONTOURS_MAJEURES
10
160.042
20
214.957
0
VERTEX
8
CONTOURS_MAJEURES
10
160.003
20
214.917
0
SEQEND
0
POLYLINE
8
CONTOURS_MAJEURES
66
1
70
0
0
VERTEX
8
CONTOURS_MAJEURES
10
169.997
20
221.202
0
VERTEX
8
CONTOURS_MAJEURES
10
170.823
20
220.828
0
VERTEX
8
CONTOURS_MAJEURES
10
171.266
20
220.003
0
VERTEX
8
CONTOURS_MAJEURES
10
169.997
20
219.169
0
VERTEX
8
CONTOURS_MAJEURES
10
165.829
20
219.169
0
VERTEX
8
CONTOURS_MAJEURES
10
164.995
20
217.096
0
VERTEX
8
CONTOURS_MAJEURES
10
162.906
20
220.003
0
VERTEX
8
CONTOURS_MAJEURES
10
164.995
20
220.695
0
VERTEX
8
CONTOURS_MAJEURES
10
169.305
20
220.695
0
VERTEX
8
CONTOURS_MAJEURES
10
169.997
20
221.202
0
SEQEND
0
POLYLINE
8
CONTOURS_MAJEURES
66
1
70
0
0
VERTEX
8
CONTOURS_MAJEURES
10
143.728
20
213.726
0
VERTEX
8
CONTOURS_MAJEURES
10
144.997
20
213.367
0
VERTEX
8
CONTOURS_MAJEURES
10
149.077
20
209.999
0
VERTEX
8
CONTOURS_MAJEURES
10
144.997
20
208.403
0
VERTEX
8
CONTOURS_MAJEURES
10
142.002
20
208.001
0
VERTEX
8
CONTOURS_MAJEURES
10
140.005
20
208.581
0
VERTEX
8
CONTOURS_MAJEURES
10
138.703
20
208.699
0
VERTEX
8
CONTOURS_MAJEURES
10
135.003
20
208.811
0
VERTEX
8
CONTOURS_MAJEURES
10
130.599
20
209.401
0
VERTEX
8
CONTOURS_MAJEURES
10
130.000
20
209.341
0
VERTEX
8
CONTOURS_MAJEURES
10
129.000
20
209.000
0
VERTEX
8
CONTOURS_MAJEURES
10
126.963
20
209.999
0
VERTEX
8
CONTOURS_MAJEURES
10
129.711
20
210.288
0
VERTEX
8
CONTOURS_MAJEURES
10
130.000
20
210.402
0
VERTEX
8
CONTOURS_MAJEURES
10
130.608
20
210.606
0
VERTEX
8
CONTOURS_MAJEURES
10
135.003
20
211.202
0
VERTEX
8
CONTOURS_MAJEURES
10
138.687
20
211.316
0
VERTEX
8
CONTOURS_MAJEURES
10
140.005
20
212.155
0
VERTEX
8
CONTOURS_MAJEURES
10
143.728
20
213.726
0
SEQEND
0
POLYLINE
8
CONTOURS_MAJEURES
66
1
70
0
0
VERTEX
8
CONTOURS_MAJEURES
10
0.005
20
221.802
0
VERTEX
8
CONTOURS_MAJEURES
10
1.648
20
220.003
0
VERTEX
8
CONTOURS_MAJEURES
10
3.049
20
218.050
0
VERTEX
8
CONTOURS_MAJEURES
10
4.996
20
215.953
0
VERTEX
8
CONTOURS_MAJEURES
10
5.468
20
214.996
0
VERTEX
8
CONTOURS_MAJEURES
10
6.725
20
211.726
0
VERTEX
8
CONTOURS_MAJEURES
10
7.389
20
209.999
0
VERTEX
8
CONTOURS_MAJEURES
10
9.999
20
208.429
0
VERTEX
8
CONTOURS_MAJEURES
10
12.793
20
207.795
0
VERTEX
8
CONTOURS_MAJEURES
10
15.001
20
207.439
0
VERTEX
8
CONTOURS_MAJEURES
10
18.012
20
206.992
0
VERTEX
8
CONTOURS_MAJEURES
10
20.003
20
206.669
0
VERTEX
8
CONTOURS_MAJEURES
10
23.793
20
206.206
0
VERTEX
8
CONTOURS_MAJEURES
10
24.995
20
205.969
0
VERTEX
8
CONTOURS_MAJEURES
10
25.719
20
205.727
0
VERTEX
8
CONTOURS_MAJEURES
10
29.997
20
205.501
0
VERTEX
8
CONTOURS_MAJEURES
10
34.708
20
205.294
0
VERTEX
8
CONTOURS_MAJEURES
10
34.999
20
205.251
0
VERTEX
8
CONTOURS_MAJEURES
10
39.754
20
205.251
0
VERTEX
8
CONTOURS_MAJEURES
10
40.002
20
205.240
0
VERTEX
8
CONTOURS_MAJEURES
10
40.238
20
205.239
0
VERTEX
8
CONTOURS_MAJEURES
10
45.004
20
205.410
0
VERTEX
8
CONTOURS_MAJEURES
10
49.481
20
205.518
0
VERTEX
8
CONTOURS_MAJEURES
10
49.996
20
205.504
0
VERTEX
8
CONTOURS_MAJEURES
10
50.505
20
205.512
0
VERTEX
8
CONTOURS_MAJEURES
10
54.998
20
205.839
0
VERTEX
8
CONTOURS_MAJEURES
10
58.730
20
206.271
0
VERTEX
8
CONTOURS_MAJEURES
10
60.000
20
206.309
0
VERTEX
8
CONTOURS_MAJEURES
10
62.967
20
207.037
0
VERTEX
8
CONTOURS_MAJEURES
10
65.003
20
207.341
0
VERTEX
8
CONTOURS_MAJEURES
10
67.648
20
207.646
0
VERTEX
8
CONTOURS_MAJEURES
10
70.005
20
207.830
0
VERTEX
8
CONTOURS_MAJEURES
10
71.991
20
208.011
0
VERTEX
8
CONTOURS_MAJEURES
10
74.996
20
208.383
0
VERTEX
8
CONTOURS_MAJEURES
10
78.806
20
208.808
0
VERTEX
8
CONTOURS_MAJEURES
10
79.999
20
208.983
0
VERTEX
8
CONTOURS_MAJEURES
10
84.743
20
209.742
0
VERTEX
8
CONTOURS_MAJEURES
10
85.001
20
209.801
0
VERTEX
8
CONTOURS_MAJEURES
10
85.151
20
209.849
0
VERTEX
8
CONTOURS_MAJEURES
10
85.729
20
209.999
0
VERTEX
8
CONTOURS_MAJEURES
10
90.003
20
211.960
0
VERTEX
8
CONTOURS_MAJEURES
10
92.069
20
212.928
0
VERTEX
8
CONTOURS_MAJEURES
10
94.995
20
214.189
0
VERTEX
8
CONTOURS_MAJEURES
10
96.846
20
214.996
0
VERTEX
8
CONTOURS_MAJEURES
10
99.997
20
216.226
0
VERTEX
8
CONTOURS_MAJEURES
10
103.096
20
216.901
0
VERTEX
8
CONTOURS_MAJEURES
10
105.000
20
217.660
0
VERTEX
8
CONTOURS_MAJEURES
10
106.903
20
218.097
0
VERTEX
8
CONTOURS_MAJEURES
10
110.002
20
219.242
0
VERTEX
8
CONTOURS_MAJEURES
10
110.527
20
219.478
0
VERTEX
8
CONTOURS_MAJEURES
10
111.868
20
220.003
0
VERTEX
8
CONTOURS_MAJEURES
10
114.263
20
220.744
0
VERTEX
8
CONTOURS_MAJEURES
10
115.004
20
220.995
0
VERTEX
8
CONTOURS_MAJEURES
10
117.548
20
222.454
0
VERTEX
8
CONTOURS_MAJEURES
10
119.996
20
224.541
0
VERTEX
8
CONTOURS_MAJEURES
10
120.965
20
225.000
0
VERTEX
8
CONTOURS_MAJEURES
10
123.783
20
226.214
0
VERTEX
8
CONTOURS_MAJEURES
10
124.998
20
226.766
0
VERTEX
8
CONTOURS_MAJEURES
10
128.086
20
228.084
0
VERTEX
8
CONTOURS_MAJEURES
10
130.000
20
228.774
0
VERTEX
8
CONTOURS_MAJEURES
10
130.951
20
229.047
0
VERTEX
8
CONTOURS_MAJEURES
10
132.859
20
229.996
0
SEQEND
0
POLYLINE
8
CONTOURS_MAJEURES
66
1
70
0
0
VERTEX
8
CONTOURS_MAJEURES
10
62.439
20
229.996
0
VERTEX
8
CONTOURS_MAJEURES
10
65.003
20
228.574
0
VERTEX
8
CONTOURS_MAJEURES
10
68.437
20
228.431
0
VERTEX
8
CONTOURS_MAJEURES
10
70.005
20
228.564
0
VERTEX
8
CONTOURS_MAJEURES
10
73.196
20
228.194
0
VERTEX
8
CONTOURS_MAJEURES
10
74.996
20
228.322
0
VERTEX
8
CONTOURS_MAJEURES
10
76.497
20
228.497
0
VERTEX
8
CONTOURS_MAJEURES
10
79.999
20
228.886
0
VERTEX
8
CONTOURS_MAJEURES
10
84.118
20
229.114
0
VERTEX
8
CONTOURS_MAJEURES
10
85.001
20
229.273
0
VERTEX
8
CONTOURS_MAJEURES
10
85.610
20
229.388
0
VERTEX
8
CONTOURS_MAJEURES
10
90.003
20
229.853
0
VERTEX
8
CONTOURS_MAJEURES
10
90.123
20
229.876
0
VERTEX
8
CONTOURS_MAJEURES
10
90.731
20
229.996
0
SEQEND
0
POLYLINE
8
PARCELLE
66
1
70
1
0
VERTEX
8
PARCELLE
10
173.801
20
168.015
0
VERTEX
8
PARCELLE
10
179.598
20
100.480
0
VERTEX
8
PARCELLE
10
183.146
20
53.131
0
VERTEX
8
PARCELLE
10
164.636
20
49.655
0
VERTEX
8
PARCELLE
10
113.229
20
41.228
0
VERTEX
8
PARCELLE
10
96.881
20
38.238
0
VERTEX
8
PARCELLE
10
93.728
20
37.668
0
VERTEX
8
PARCELLE
10
54.317
20
30.458
0
VERTEX
8
PARCELLE
10
37.666
20
26.741
0
VERTEX
8
PARCELLE
10
20.357
20
20.000
0
VERTEX
8
PARCELLE
10
20.000
20
40.584
0
VERTEX
8
PARCELLE
10
21.627
20
70.368
0
VERTEX
8
PARCELLE
10
23.895
20
88.558
0
VERTEX
8
PARCELLE
10
29.678
20
119.346
0
VERTEX
8
PARCELLE
10
33.417
20
132.631
0
VERTEX
8
PARCELLE
10
37.826
20
144.155
0
VERTEX
8
PARCELLE
10
40.213
20
148.817
0
VERTEX
8
PARCELLE
10
51.329
20
164.996
0
VERTEX
8
PARCELLE
10
55.294
20
169.169
0
VERTEX
8
PARCELLE
10
65.892
20
179.037
0
VERTEX
8
PARCELLE
10
85.049
20
187.097
0
VERTEX
8
PARCELLE
10
137.891
20
211.251
0
VERTEX
8
PARCELLE
10
158.078
20
190.988
0
VERTEX
8
PARCELLE
10
173.801
20
168.015
0
SEQEND
0
TEXT
8
POINTS_COTES
10
0.005
20
-0.004
40
1.0
1
6.7
0
TEXT
8
POINTS_COTES
10
70.005
20
9.999
40
1.0
1
8.1
0
TEXT
8
POINTS_COTES
10
140.005
20
20.003
40
1.0
1
9.2
0
TEXT
8
POINTS_COTES
10
4.996
20
35.004
40
1.0
1
7.5
0
TEXT
8
POINTS_COTES
10
74.996
20
44.996
40
1.0
1
8.8
0
TEXT
8
POINTS_COTES
10
144.997
20
55.000
40
1.0
1
10.3
0
TEXT
8
POINTS_COTES
10
9.999
20
70.001
40
1.0
1
7.5
0
TEXT
8
POINTS_COTES
10
79.999
20
80.004
40
1.0
1
9.1
0
TEXT
8
POINTS_COTES
10
149.999
20
89.997
40
1.0
1
10.3
0
TEXT
8
POINTS_COTES
10
15.001
20
104.998
40
1.0
1
8.0
0
TEXT
8
POINTS_COTES
10
85.001
20
115.001
40
1.0
1
9.5
0
TEXT
8
POINTS_COTES
10
155.001
20
125.005
40
1.0
1
10.4
0
TEXT
8
POINTS_COTES
10
20.003
20
139.994
40
1.0
1
9.1
0
TEXT
8
POINTS_COTES
10
90.003
20
149.998
40
1.0
1
10.1
0
TEXT
8
POINTS_COTES
10
160.003
20
160.002
40
1.0
1
11.1
0
TEXT
8
POINTS_COTES
10
24.995
20
175.003
40
1.0
1
7.2
0
TEXT
8
POINTS_COTES
10
94.995
20
184.995
40
1.0
1
9.3
0
TEXT
8
POINTS_COTES
10
164.995
20
194.999
40
1.0
1
11.6
0
TEXT
8
POINTS_COTES
10
29.997
20
209.999
40
1.0
1
23.1
0
TEXT
8
POINTS_COTES
10
99.997
20
220.003
40
1.0
1
23.0
0
TEXT
8
POINTS_COTES
10
169.997
20
229.996
40
1.0
1
13.0
0
ENDSEC
0
EOF
