0
SECTION
2
HEADER
0
ENDSEC
0
SECTION
2
TABLES
0
TABLE
2
LAYER
70
4
0
LAYER
2
CONTOURS_MINEURES
70
0
62
8
6
CONTINUOUS
0
LAYER
2
CONTOURS_MAJEURES
70
0
62
3
6
CONTINUOUS
0
LAYER
2
PARCELLE
70
0
62
4
6
CONTINUOUS
0
LAYER
2
POINTS_COTES
70
0
62
7
6
CONTINUOUS
0
ENDTAB
0
ENDSEC
0
SECTION
2
ENTITIES
0
POLYLINE
8
CONTOURS_MINEURES
66
1
70
0
0
VERTEX
8
CONTOURS_MINEURES
10
0.000
20
31.047
0
VERTEX
8
CONTOURS_MINEURES
10
0.666
20
30.671
0
VERTEX
8
CONTOURS_MINEURES
10
0.905
20
30.005
0
VERTEX
8
CONTOURS_MINEURES
10
0.905
20
29.097
0
VERTEX
8
CONTOURS_MINEURES
10
0.905
20
26.998
0
VERTEX
8
CONTOURS_MINEURES
10
0.813
20
26.186
0
VERTEX
8
CONTOURS_MINEURES
10
0.884
20
24.003
0
VERTEX
8
CONTOURS_MINEURES
10
0.000
20
21.838
0
SEQEND
0
POLYLINE
8
CONTOURS_MINEURES
66
1
70
0
0
VERTEX
8
CONTOURS_MINEURES
10
0.000
20
35.589
0
VERTEX
8
CONTOURS_MINEURES
10
0.600
20
35.397
0
VERTEX
8
CONTOURS_MINEURES
10
2.996
20
34.911
0
VERTEX
8
CONTOURS_MINEURES
10
4.914
20
34.911
0
VERTEX
8
CONTOURS_MINEURES
10
6.003
20
34.911
0
VERTEX
8
CONTOURS_MINEURES
10
7.321
20
34.319
0
VERTEX
8
CONTOURS_MINEURES
10
8.999
20
33.789
0
VERTEX
8
CONTOURS_MINEURES
10
9.969
20
33.967
0
VERTEX
8
CONTOURS_MINEURES
10
12.005
20
34.598
0
VERTEX
8
CONTOURS_MINEURES
10
13.403
20
34.598
0
VERTEX
8
CONTOURS_MINEURES
10
15.001
20
34.598
0
VERTEX
8
CONTOURS_MINEURES
10
17.055
20
35.055
0
VERTEX
8
CONTOURS_MINEURES
10
17.997
20
33.937
0
VERTEX
8
CONTOURS_MINEURES
10
18.373
20
33.001
0
VERTEX
8
CONTOURS_MINEURES
10
17.997
20
31.424
0
VERTEX
8
CONTOURS_MINEURES
10
17.524
20
30.478
0
VERTEX
8
CONTOURS_MINEURES
10
17.154
20
30.005
0
VERTEX
8
CONTOURS_MINEURES
10
17.154
20
27.844
0
VERTEX
8
CONTOURS_MINEURES
10
17.154
20
26.998
0
VERTEX
8
CONTOURS_MINEURES
10
15.001
20
26.041
0
VERTEX
8
CONTOURS_MINEURES
10
14.044
20
26.041
0
VERTEX
8
CONTOURS_MINEURES
10
12.005
20
26.041
0
VERTEX
8
CONTOURS_MINEURES
10
9.930
20
26.070
0
VERTEX
8
CONTOURS_MINEURES
10
8.999
20
24.939
0
VERTEX
8
CONTOURS_MINEURES
10
8.588
20
24.413
0
VERTEX
8
CONTOURS_MINEURES
10
8.552
20
24.003
0
VERTEX
8
CONTOURS_MINEURES
10
8.137
20
21.860
0
VERTEX
8
CONTOURS_MINEURES
10
8.115
20
20.996
0
VERTEX
8
CONTOURS_MINEURES
10
8.115
20
20.113
0
VERTEX
8
CONTOURS_MINEURES
10
8.115
20
18.000
0
VERTEX
8
CONTOURS_MINEURES
10
7.719
20
16.284
0
VERTEX
8
CONTOURS_MINEURES
10
6.385
20
15.005
0
VERTEX
8
CONTOURS_MINEURES
10
6.385
20
12.382
0
VERTEX
8
CONTOURS_MINEURES
10
6.385
20
11.998
0
VERTEX
8
CONTOURS_MINEURES
10
6.174
20
11.827
0
VERTEX
8
CONTOURS_MINEURES
10
6.003
20
11.807
0
VERTEX
8
CONTOURS_MINEURES
10
5.811
20
11.807
0
VERTEX
8
CONTOURS_MINEURES
10
2.996
20
11.807
0
VERTEX
8
CONTOURS_MINEURES
10
0.555
20
11.443
0
VERTEX
8
CONTOURS_MINEURES
10
0.000
20
11.117
0
SEQEND
0
POLYLINE
8
CONTOURS_MINEURES
66
1
70
0
0
VERTEX
8
CONTOURS_MINEURES
10
23.999
20
41.399
0
VERTEX
8
CONTOURS_MINEURES
10
23.400
20
41.399
0
VERTEX
8
CONTOURS_MINEURES
10
21.004
20
41.399
0
VERTEX
8
CONTOURS_MINEURES
10
20.959
20
41.999
0
VERTEX
8
CONTOURS_MINEURES
10
21.004
20
42.025
0
VERTEX
8
CONTOURS_MINEURES
10
23.973
20
42.025
0
VERTEX
8
CONTOURS_MINEURES
10
23.999
20
42.025
0
VERTEX
8
CONTOURS_MINEURES
10
24.039
20
41.999
0
VERTEX
8
CONTOURS_MINEURES
10
23.999
20
41.399
0
SEQEND
0
POLYLINE
8
CONTOURS_MINEURES
66
1
70
0
0
VERTEX
8
CONTOURS_MINEURES
10
0.000
20
41.723
0
VERTEX
8
CONTOURS_MINEURES
10
0.321
20
41.678
0
VERTEX
8
CONTOURS_MINEURES
10
2.996
20
41.710
0
VERTEX
8
CONTOURS_MINEURES
10
3.286
20
41.710
0
VERTEX
8
CONTOURS_MINEURES
10
6.003
20
41.710
0
VERTEX
8
CONTOURS_MINEURES
10
8.184
20
41.184
0
VERTEX
8
CONTOURS_MINEURES
10
8.999
20
40.834
0
VERTEX
8
CONTOURS_MINEURES
10
11.241
20
41.237
0
VERTEX
8
CONTOURS_MINEURES
10
12.005
20
41.383
0
VERTEX
8
CONTOURS_MINEURES
10
12.621
20
41.383
0
VERTEX
8
CONTOURS_MINEURES
10
15.001
20
41.383
0
VERTEX
8
CONTOURS_MINEURES
10
15.484
20
41.515
0
VERTEX
8
CONTOURS_MINEURES
10
15.937
20
41.999
0
VERTEX
8
CONTOURS_MINEURES
10
17.028
20
42.971
0
VERTEX
8
CONTOURS_MINEURES
10
17.997
20
43.089
0
VERTEX
8
CONTOURS_MINEURES
10
20.154
20
44.156
0
VERTEX
8
CONTOURS_MINEURES
10
21.004
20
44.662
0
VERTEX
8
CONTOURS_MINEURES
10
21.345
20
44.662
0
VERTEX
8
CONTOURS_MINEURES
10
23.999
20
44.662
0
VERTEX
8
CONTOURS_MINEURES
10
24.998
20
44.003
0
VERTEX
8
CONTOURS_MINEURES
10
26.434
20
45.005
0
VERTEX
8
CONTOURS_MINEURES
10
26.434
20
47.439
0
VERTEX
8
CONTOURS_MINEURES
10
26.434
20
48.001
0
VERTEX
8
CONTOURS_MINEURES
10
26.923
20
48.073
0
VERTEX
8
CONTOURS_MINEURES
10
26.995
20
48.105
0
VERTEX
8
CONTOURS_MINEURES
10
27.205
20
48.001
0
VERTEX
8
CONTOURS_MINEURES
10
27.205
20
45.214
0
VERTEX
8
CONTOURS_MINEURES
10
27.205
20
45.005
0
VERTEX
8
CONTOURS_MINEURES
10
28.180
20
43.183
0
VERTEX
8
CONTOURS_MINEURES
10
28.081
20
41.999
0
VERTEX
8
CONTOURS_MINEURES
10
27.845
20
41.152
0
VERTEX
8
CONTOURS_MINEURES
10
27.490
20
39.003
0
VERTEX
8
CONTOURS_MINEURES
10
27.490
20
36.491
0
VERTEX
8
CONTOURS_MINEURES
10
27.490
20
35.996
0
VERTEX
8
CONTOURS_MINEURES
10
27.361
20
35.632
0
VERTEX
8
CONTOURS_MINEURES
10
26.995
20
34.851
0
VERTEX
8
CONTOURS_MINEURES
10
25.762
20
33.001
0
VERTEX
8
CONTOURS_MINEURES
10
25.549
20
31.451
0
VERTEX
8
CONTOURS_MINEURES
10
25.089
20
30.005
0
VERTEX
8
CONTOURS_MINEURES
10
25.089
20
28.092
0
VERTEX
8
CONTOURS_MINEURES
10
25.089
20
26.998
0
VERTEX
8
CONTOURS_MINEURES
10
25.711
20
25.286
0
VERTEX
8
CONTOURS_MINEURES
10
25.872
20
24.003
0
VERTEX
8
CONTOURS_MINEURES
10
24.599
20
21.597
0
VERTEX
8
CONTOURS_MINEURES
10
24.136
20
20.996
0
VERTEX
8
CONTOURS_MINEURES
10
24.136
20
18.136
0
VERTEX
8
CONTOURS_MINEURES
10
24.136
20
18.000
0
VERTEX
8
CONTOURS_MINEURES
10
23.999
20
17.909
0
VERTEX
8
CONTOURS_MINEURES
10
21.095
20
17.909
0
VERTEX
8
CONTOURS_MINEURES
10
21.004
20
17.909
0
VERTEX
8
CONTOURS_MINEURES
10
18.583
20
17.416
0
VERTEX
8
CONTOURS_MINEURES
10
17.997
20
16.187
0
VERTEX
8
CONTOURS_MINEURES
10
16.874
20
15.005
0
VERTEX
8
CONTOURS_MINEURES
10
16.874
20
13.126
0
VERTEX
8
CONTOURS_MINEURES
10
16.874
20
11.998
0
VERTEX
8
CONTOURS_MINEURES
10
15.781
20
11.218
0
VERTEX
8
CONTOURS_MINEURES
10
15.001
20
10.370
0
VERTEX
8
CONTOURS_MINEURES
10
13.634
20
10.370
0
VERTEX
8
CONTOURS_MINEURES
10
12.005
20
10.370
0
VERTEX
8
CONTOURS_MINEURES
10
9.135
20
9.002
0
VERTEX
8
CONTOURS_MINEURES
10
8.999
20
8.966
0
VERTEX
8
CONTOURS_MINEURES
10
6.389
20
8.614
0
VERTEX
8
CONTOURS_MINEURES
10
6.003
20
8.515
0
VERTEX
8
CONTOURS_MINEURES
10
3.484
20
8.515
0
VERTEX
8
CONTOURS_MINEURES
10
2.996
20
8.515
0
VERTEX
8
CONTOURS_MINEURES
10
0.933
20
5.996
0
VERTEX
8
CONTOURS_MINEURES
10
0.933
20
3.932
0
VERTEX
8
CONTOURS_MINEURES
10
0.933
20
3.000
0
VERTEX
8
CONTOURS_MINEURES
10
0.831
20
2.170
0
VERTEX
8
CONTOURS_MINEURES
10
0.483
20
0.004
0
SEQEND
0
POLYLINE
8
CONTOURS_MINEURES
66
1
70
0
0
VERTEX
8
CONTOURS_MINEURES
10
0.000
20
44.973
0
VERTEX
8
CONTOURS_MINEURES
10
0.125
20
45.005
0
VERTEX
8
CONTOURS_MINEURES
10
0.125
20
45.130
0
VERTEX
8
CONTOURS_MINEURES
10
0.125
20
48.001
0
VERTEX
8
CONTOURS_MINEURES
10
1.744
20
49.254
0
VERTEX
8
CONTOURS_MINEURES
10
2.996
20
50.757
0
VERTEX
8
CONTOURS_MINEURES
10
5.762
20
50.757
0
VERTEX
8
CONTOURS_MINEURES
10
6.003
20
50.757
0
VERTEX
8
CONTOURS_MINEURES
10
7.201
20
50.997
0
VERTEX
8
CONTOURS_MINEURES
10
7.201
20
52.801
0
VERTEX
8
CONTOURS_MINEURES
10
7.201
20
54.003
0
VERTEX
8
CONTOURS_MINEURES
10
8.999
20
54.103
0
VERTEX
8
CONTOURS_MINEURES
10
9.082
20
54.086
0
VERTEX
8
CONTOURS_MINEURES
10
9.391
20
54.003
0
VERTEX
8
CONTOURS_MINEURES
10
9.391
20
51.389
0
VERTEX
8
CONTOURS_MINEURES
10
9.391
20
50.997
0
VERTEX
8
CONTOURS_MINEURES
10
12.005
20
49.822
0
VERTEX
8
CONTOURS_MINEURES
10
13.826
20
49.822
0
VERTEX
8
CONTOURS_MINEURES
10
15.001
20
49.822
0
VERTEX
8
CONTOURS_MINEURES
10
15.968
20
50.030
0
VERTEX
8
CONTOURS_MINEURES
10
17.997
20
49.481
0
VERTEX
8
CONTOURS_MINEURES
10
18.992
20
50.006
0
VERTEX
8
CONTOURS_MINEURES
10
21.004
20
50.414
0
VERTEX
8
CONTOURS_MINEURES
10
23.417
20
50.414
0
VERTEX
8
CONTOURS_MINEURES
10
23.999
20
50.414
0
VERTEX
8
CONTOURS_MINEURES
10
24.507
20
50.489
0
VERTEX
8
CONTOURS_MINEURES
10
25.655
20
50.997
0
VERTEX
8
CONTOURS_MINEURES
10
25.655
20
52.658
0
VERTEX
8
CONTOURS_MINEURES
10
25.655
20
54.003
0
VERTEX
8
CONTOURS_MINEURES
10
26.995
20
54.470
0
VERTEX
8
CONTOURS_MINEURES
10
29.685
20
54.003
0
VERTEX
8
CONTOURS_MINEURES
10
29.685
20
51.313
0
VERTEX
8
CONTOURS_MINEURES
10
29.685
20
50.997
0
VERTEX
8
CONTOURS_MINEURES
10
30.002
20
50.900
0
VERTEX
8
CONTOURS_MINEURES
10
32.901
20
50.900
0
VERTEX
8
CONTOURS_MINEURES
10
32.998
20
50.900
0
VERTEX
8
CONTOURS_MINEURES
10
33.180
20
50.815
0
VERTEX
8
CONTOURS_MINEURES
10
36.004
20
49.602
0
VERTEX
8
CONTOURS_MINEURES
10
36.962
20
48.958
0
VERTEX
8
CONTOURS_MINEURES
10
37.502
20
48.001
0
VERTEX
8
CONTOURS_MINEURES
10
37.502
20
46.503
0
VERTEX
8
CONTOURS_MINEURES
10
37.502
20
45.005
0
VERTEX
8
CONTOURS_MINEURES
10
36.735
20
42.732
0
VERTEX
8
CONTOURS_MINEURES
10
36.504
20
41.999
0
VERTEX
8
CONTOURS_MINEURES
10
36.004
20
41.166
0
VERTEX
8
CONTOURS_MINEURES
10
35.027
20
39.977
0
VERTEX
8
CONTOURS_MINEURES
10
34.701
20
39.003
0
VERTEX
8
CONTOURS_MINEURES
10
34.701
20
37.700
0
VERTEX
8
CONTOURS_MINEURES
10
34.701
20
35.996
0
VERTEX
8
CONTOURS_MINEURES
10
33.562
20
33.562
0
VERTEX
8
CONTOURS_MINEURES
10
33.293
20
33.001
0
VERTEX
8
CONTOURS_MINEURES
10
33.170
20
32.829
0
VERTEX
8
CONTOURS_MINEURES
10
32.998
20
31.943
0
VERTEX
8
CONTOURS_MINEURES
10
31.059
20
31.943
0
VERTEX
8
CONTOURS_MINEURES
10
30.002
20
31.943
0
VERTEX
8
CONTOURS_MINEURES
10
29.603
20
30.005
0
VERTEX
8
CONTOURS_MINEURES
10
29.603
20
27.397
0
VERTEX
8
CONTOURS_MINEURES
10
29.603
20
26.998
0
VERTEX
8
CONTOURS_MINEURES
10
29.668
20
26.665
0
VERTEX
8
CONTOURS_MINEURES
10
28.771
20
24.003
0
VERTEX
8
CONTOURS_MINEURES
10
28.102
20
22.896
0
VERTEX
8
CONTOURS_MINEURES
10
27.587
20
20.996
0
VERTEX
8
CONTOURS_MINEURES
10
27.587
20
18.590
0
VERTEX
8
CONTOURS_MINEURES
10
27.587
20
18.000
0
VERTEX
8
CONTOURS_MINEURES
10
26.995
20
17.114
0
VERTEX
8
CONTOURS_MINEURES
10
24.161
20
15.005
0
VERTEX
8
CONTOURS_MINEURES
10
24.161
20
14.843
0
VERTEX
8
CONTOURS_MINEURES
10
24.161
20
11.998
0
VERTEX
8
CONTOURS_MINEURES
10
24.095
20
11.903
0
VERTEX
8
CONTOURS_MINEURES
10
23.999
20
11.760
0
VERTEX
8
CONTOURS_MINEURES
10
23.762
20
11.760
0
VERTEX
8
CONTOURS_MINEURES
10
21.004
20
11.760
0
VERTEX
8
CONTOURS_MINEURES
10
18.999
20
9.002
0
VERTEX
8
CONTOURS_MINEURES
10
18.663
20
8.337
0
VERTEX
8
CONTOURS_MINEURES
10
17.997
20
7.388
0
VERTEX
8
CONTOURS_MINEURES
10
15.917
20
5.996
0
VERTEX
8
CONTOURS_MINEURES
10
15.917
20
5.080
0
VERTEX
8
CONTOURS_MINEURES
10
15.917
20
3.000
0
VERTEX
8
CONTOURS_MINEURES
10
15.001
20
2.529
0
VERTEX
8
CONTOURS_MINEURES
10
12.476
20
2.529
0
VERTEX
8
CONTOURS_MINEURES
10
12.005
20
2.529
0
VERTEX
8
CONTOURS_MINEURES
10
11.254
20
2.251
0
VERTEX
8
CONTOURS_MINEURES
10
8.999
20
1.905
0
VERTEX
8
CONTOURS_MINEURES
10
7.351
20
0.004
0
SEQEND
0
POLYLINE
8
CONTOURS_MINEURES
66
1
70
0
0
VERTEX
8
CONTOURS_MINEURES
10
0.000
20
58.276
0
VERTEX
8
CONTOURS_MINEURES
10
1.299
20
58.297
0
VERTEX
8
CONTOURS_MINEURES
10
2.996
20
58.325
0
VERTEX
8
CONTOURS_MINEURES
10
4.672
20
58.325
0
VERTEX
8
CONTOURS_MINEURES
10
6.003
20
58.325
0
VERTEX
8
CONTOURS_MINEURES
10
8.170
20
57.827
0
VERTEX
8
CONTOURS_MINEURES
10
8.999
20
57.659
0
VERTEX
8
CONTOURS_MINEURES
10
11.170
20
56.999
0
VERTEX
8
CONTOURS_MINEURES
10
11.866
20
56.860
0
VERTEX
8
CONTOURS_MINEURES
10
12.005
20
56.823
0
VERTEX
8
CONTOURS_MINEURES
10
12.182
20
56.823
0
VERTEX
8
CONTOURS_MINEURES
10
15.001
20
56.823
0
VERTEX
8
CONTOURS_MINEURES
10
17.694
20
56.696
0
VERTEX
8
CONTOURS_MINEURES
10
17.997
20
56.590
0
VERTEX
8
CONTOURS_MINEURES
10
18.305
20
56.692
0
VERTEX
8
CONTOURS_MINEURES
10
20.079
20
56.999
0
VERTEX
8
CONTOURS_MINEURES
10
21.004
20
57.221
0
VERTEX
8
CONTOURS_MINEURES
10
23.778
20
57.221
0
VERTEX
8
CONTOURS_MINEURES
10
23.999
20
57.221
0
VERTEX
8
CONTOURS_MINEURES
10
26.582
20
57.412
0
VERTEX
8
CONTOURS_MINEURES
10
26.995
20
57.314
0
VERTEX
8
CONTOURS_MINEURES
10
27.266
20
57.268
0
VERTEX
8
CONTOURS_MINEURES
10
30.002
20
57.268
0
VERTEX
8
CONTOURS_MINEURES
10
32.728
20
57.268
0
VERTEX
8
CONTOURS_MINEURES
10
32.998
20
57.268
0
VERTEX
8
CONTOURS_MINEURES
10
33.923
20
56.999
0
VERTEX
8
CONTOURS_MINEURES
10
35.538
20
56.534
0
VERTEX
8
CONTOURS_MINEURES
10
36.004
20
56.406
0
VERTEX
8
CONTOURS_MINEURES
10
37.041
20
55.962
0
VERTEX
8
CONTOURS_MINEURES
10
39.000
20
55.326
0
VERTEX
8
CONTOURS_MINEURES
10
40.673
20
55.326
0
VERTEX
8
CONTOURS_MINEURES
10
41.996
20
55.326
0
VERTEX
8
CONTOURS_MINEURES
10
44.319
20
54.003
0
VERTEX
8
CONTOURS_MINEURES
10
44.319
20
53.320
0
VERTEX
8
CONTOURS_MINEURES
10
44.319
20
50.997
0
VERTEX
8
CONTOURS_MINEURES
10
44.836
20
48.167
0
VERTEX
8
CONTOURS_MINEURES
10
44.918
20
48.001
0
VERTEX
8
CONTOURS_MINEURES
10
44.918
20
47.917
0
VERTEX
8
CONTOURS_MINEURES
10
44.918
20
45.005
0
VERTEX
8
CONTOURS_MINEURES
10
44.495
20
42.506
0
VERTEX
8
CONTOURS_MINEURES
10
44.345
20
41.999
0
VERTEX
8
CONTOURS_MINEURES
10
43.551
20
40.552
0
VERTEX
8
CONTOURS_MINEURES
10
42.679
20
39.003
0
VERTEX
8
CONTOURS_MINEURES
10
42.679
20
38.320
0
VERTEX
8
CONTOURS_MINEURES
10
42.679
20
35.996
0
VERTEX
8
CONTOURS_MINEURES
10
42.372
20
35.622
0
VERTEX
8
CONTOURS_MINEURES
10
41.996
20
34.635
0
VERTEX
8
CONTOURS_MINEURES
10
40.362
20
34.635
0
VERTEX
8
CONTOURS_MINEURES
10
39.000
20
34.635
0
VERTEX
8
CONTOURS_MINEURES
10
38.144
20
33.001
0
VERTEX
8
CONTOURS_MINEURES
10
37.033
20
31.972
0
VERTEX
8
CONTOURS_MINEURES
10
36.039
20
30.005
0
VERTEX
8
CONTOURS_MINEURES
10
36.039
20
27.033
0
VERTEX
8
CONTOURS_MINEURES
10
36.039
20
26.998
0
VERTEX
8
CONTOURS_MINEURES
10
36.022
20
26.981
0
VERTEX
8
CONTOURS_MINEURES
10
36.004
20
26.963
0
VERTEX
8
CONTOURS_MINEURES
10
33.951
20
24.003
0
VERTEX
8
CONTOURS_MINEURES
10
33.551
20
23.450
0
VERTEX
8
CONTOURS_MINEURES
10
32.998
20
22.700
0
VERTEX
8
CONTOURS_MINEURES
10
31.700
20
22.700
0
VERTEX
8
CONTOURS_MINEURES
10
30.002
20
22.700
0
VERTEX
8
CONTOURS_MINEURES
10
29.360
20
21.638
0
VERTEX
8
CONTOURS_MINEURES
10
29.186
20
20.996
0
VERTEX
8
CONTOURS_MINEURES
10
29.186
20
20.183
0
VERTEX
8
CONTOURS_MINEURES
10
29.186
20
18.000
0
VERTEX
8
CONTOURS_MINEURES
10
27.568
20
15.575
0
VERTEX
8
CONTOURS_MINEURES
10
27.299
20
15.005
0
VERTEX
8
CONTOURS_MINEURES
10
27.299
20
14.702
0
VERTEX
8
CONTOURS_MINEURES
10
27.299
20
11.998
0
VERTEX
8
CONTOURS_MINEURES
10
26.995
20
11.436
0
VERTEX
8
CONTOURS_MINEURES
10
26.003
20
9.995
0
VERTEX
8
CONTOURS_MINEURES
10
25.338
20
9.002
0
VERTEX
8
CONTOURS_MINEURES
10
23.999
20
6.132
0
VERTEX
8
CONTOURS_MINEURES
10
23.863
20
6.132
0
VERTEX
8
CONTOURS_MINEURES
10
21.004
20
6.132
0
VERTEX
8
CONTOURS_MINEURES
10
20.958
20
6.042
0
VERTEX
8
CONTOURS_MINEURES
10
20.926
20
5.996
0
VERTEX
8
CONTOURS_MINEURES
10
20.926
20
3.078
0
VERTEX
8
CONTOURS_MINEURES
10
20.926
20
3.000
0
VERTEX
8
CONTOURS_MINEURES
10
20.687
20
2.685
0
VERTEX
8
CONTOURS_MINEURES
10
18.835
20
0.004
0
SEQEND
0
POLYLINE
8
CONTOURS_MINEURES
66
1
70
0
0
VERTEX
8
CONTOURS_MINEURES
10
54.614
20
54.003
0
VERTEX
8
CONTOURS_MINEURES
10
54.614
20
53.388
0
VERTEX
8
CONTOURS_MINEURES
10
54.614
20
50.997
0
VERTEX
8
CONTOURS_MINEURES
10
54.001
20
50.547
0
VERTEX
8
CONTOURS_MINEURES
10
52.877
20
50.997
0
VERTEX
8
CONTOURS_MINEURES
10
52.877
20
52.876
0
VERTEX
8
CONTOURS_MINEURES
10
52.877
20
54.003
0
VERTEX
8
CONTOURS_MINEURES
10
53.646
20
54.358
0
VERTEX
8
CONTOURS_MINEURES
10
54.001
20
54.418
0
VERTEX
8
CONTOURS_MINEURES
10
54.297
20
54.299
0
VERTEX
8
CONTOURS_MINEURES
10
54.614
20
54.003
0
SEQEND
0
POLYLINE
8
CONTOURS_MINEURES
66
1
70
0
0
VERTEX
8
CONTOURS_MINEURES
10
0.000
20
66.340
0
VERTEX
8
CONTOURS_MINEURES
10
0.273
20
66.270
0
VERTEX
8
CONTOURS_MINEURES
10
2.996
20
66.498
0
VERTEX
8
CONTOURS_MINEURES
10
5.502
20
66.498
0
VERTEX
8
CONTOURS_MINEURES
10
6.003
20
66.498
0
VERTEX
8
CONTOURS_MINEURES
10
6.617
20
66.614
0
VERTEX
8
CONTOURS_MINEURES
10
8.999
20
66.977
0
VERTEX
8
CONTOURS_MINEURES
10
10.826
20
67.176
0
VERTEX
8
CONTOURS_MINEURES
10
12.005
20
67.937
0
VERTEX
8
CONTOURS_MINEURES
10
13.938
20
67.937
0
VERTEX
8
CONTOURS_MINEURES
10
15.001
20
67.937
0
VERTEX
8
CONTOURS_MINEURES
10
16.713
20
67.715
0
VERTEX
8
CONTOURS_MINEURES
10
17.997
20
67.393
0
VERTEX
8
CONTOURS_MINEURES
10
20.371
20
66.630
0
VERTEX
8
CONTOURS_MINEURES
10
21.004
20
66.498
0
VERTEX
8
CONTOURS_MINEURES
10
21.503
20
66.498
0
VERTEX
8
CONTOURS_MINEURES
10
23.999
20
66.498
0
VERTEX
8
CONTOURS_MINEURES
10
24.630
20
65.997
0
VERTEX
8
CONTOURS_MINEURES
10
26.304
20
65.305
0
VERTEX
8
CONTOURS_MINEURES
10
26.995
20
65.041
0
VERTEX
8
CONTOURS_MINEURES
10
28.322
20
64.675
0
VERTEX
8
CONTOURS_MINEURES
10
30.002
20
63.982
0
VERTEX
8
CONTOURS_MINEURES
10
30.983
20
63.982
0
VERTEX
8
CONTOURS_MINEURES
10
32.998
20
63.982
0
VERTEX
8
CONTOURS_MINEURES
10
35.114
20
63.001
0
VERTEX
8
CONTOURS_MINEURES
10
35.114
20
62.110
0
VERTEX
8
CONTOURS_MINEURES
10
35.114
20
59.994
0
VERTEX
8
CONTOURS_MINEURES
10
36.004
20
59.728
0
VERTEX
8
CONTOURS_MINEURES
10
38.279
20
59.273
0
VERTEX
8
CONTOURS_MINEURES
10
39.000
20
59.056
0
VERTEX
8
CONTOURS_MINEURES
10
39.939
20
59.056
0
VERTEX
8
CONTOURS_MINEURES
10
41.996
20
59.056
0
VERTEX
8
CONTOURS_MINEURES
10
43.367
20
58.628
0
VERTEX
8
CONTOURS_MINEURES
10
45.003
20
58.573
0
VERTEX
8
CONTOURS_MINEURES
10
46.378
20
58.619
0
VERTEX
8
CONTOURS_MINEURES
10
47.998
20
58.703
0
VERTEX
8
CONTOURS_MINEURES
10
49.709
20
58.703
0
VERTEX
8
CONTOURS_MINEURES
10
51.005
20
58.703
0
VERTEX
8
CONTOURS_MINEURES
10
52.306
20
58.300
0
VERTEX
8
CONTOURS_MINEURES
10
54.001
20
58.514
0
VERTEX
8
CONTOURS_MINEURES
10
55.293
20
58.291
0
VERTEX
8
CONTOURS_MINEURES
10
56.997
20
57.708
0
VERTEX
8
CONTOURS_MINEURES
10
57.709
20
57.708
0
VERTEX
8
CONTOURS_MINEURES
10
60.003
20
57.708
0
VERTEX
8
CONTOURS_MINEURES
10
61.082
20
56.999
0
VERTEX
8
CONTOURS_MINEURES
10
62.011
20
56.011
0
VERTEX
8
CONTOURS_MINEURES
10
61.513
20
54.003
0
VERTEX
8
CONTOURS_MINEURES
10
61.513
20
52.512
0
VERTEX
8
CONTOURS_MINEURES
10
61.513
20
50.997
0
VERTEX
8
CONTOURS_MINEURES
10
60.003
20
49.069
0
VERTEX
8
CONTOURS_MINEURES
10
58.932
20
49.069
0
VERTEX
8
CONTOURS_MINEURES
10
56.997
20
49.069
0
VERTEX
8
CONTOURS_MINEURES
10
55.728
20
48.001
0
VERTEX
8
CONTOURS_MINEURES
10
55.728
20
46.732
0
VERTEX
8
CONTOURS_MINEURES
10
55.728
20
45.005
0
VERTEX
8
CONTOURS_MINEURES
10
54.001
20
43.230
0
VERTEX
8
CONTOURS_MINEURES
10
52.972
20
43.031
0
VERTEX
8
CONTOURS_MINEURES
10
52.503
20
41.999
0
VERTEX
8
CONTOURS_MINEURES
10
51.005
20
39.784
0
VERTEX
8
CONTOURS_MINEURES
10
48.783
20
39.784
0
VERTEX
8
CONTOURS_MINEURES
10
47.998
20
39.784
0
VERTEX
8
CONTOURS_MINEURES
10
47.632
20
39.370
0
VERTEX
8
CONTOURS_MINEURES
10
47.409
20
39.003
0
VERTEX
8
CONTOURS_MINEURES
10
47.409
20
36.588
0
VERTEX
8
CONTOURS_MINEURES
10
47.409
20
35.996
0
VERTEX
8
CONTOURS_MINEURES
10
45.003
20
33.278
0
VERTEX
8
CONTOURS_MINEURES
10
44.877
20
33.125
0
VERTEX
8
CONTOURS_MINEURES
10
44.830
20
33.001
0
VERTEX
8
CONTOURS_MINEURES
10
44.211
20
32.212
0
VERTEX
8
CONTOURS_MINEURES
10
42.464
20
30.005
0
VERTEX
8
CONTOURS_MINEURES
10
42.464
20
27.466
0
VERTEX
8
CONTOURS_MINEURES
10
42.464
20
26.998
0
VERTEX
8
CONTOURS_MINEURES
10
42.253
20
26.743
0
VERTEX
8
CONTOURS_MINEURES
10
41.996
20
26.505
0
VERTEX
8
CONTOURS_MINEURES
10
39.494
20
26.505
0
VERTEX
8
CONTOURS_MINEURES
10
39.000
20
26.505
0
VERTEX
8
CONTOURS_MINEURES
10
37.764
20
25.239
0
VERTEX
8
CONTOURS_MINEURES
10
36.555
20
24.003
0
VERTEX
8
CONTOURS_MINEURES
10
36.004
20
23.462
0
VERTEX
8
CONTOURS_MINEURES
10
34.969
20
22.031
0
VERTEX
8
CONTOURS_MINEURES
10
34.205
20
20.996
0
VERTEX
8
CONTOURS_MINEURES
10
34.205
20
19.203
0
VERTEX
8
CONTOURS_MINEURES
10
34.205
20
18.000
0
VERTEX
8
CONTOURS_MINEURES
10
33.942
20
17.059
0
VERTEX
8
CONTOURS_MINEURES
10
32.998
20
15.379
0
VERTEX
8
CONTOURS_MINEURES
10
30.376
20
15.379
0
VERTEX
8
CONTOURS_MINEURES
10
30.002
20
15.379
0
VERTEX
8
CONTOURS_MINEURES
10
29.825
20
15.005
0
VERTEX
8
CONTOURS_MINEURES
10
29.825
20
12.175
0
VERTEX
8
CONTOURS_MINEURES
10
29.825
20
11.998
0
VERTEX
8
CONTOURS_MINEURES
10
29.619
20
11.617
0
VERTEX
8
CONTOURS_MINEURES
10
28.514
20
9.002
0
VERTEX
8
CONTOURS_MINEURES
10
28.272
20
7.725
0
VERTEX
8
CONTOURS_MINEURES
10
27.396
20
5.996
0
VERTEX
8
CONTOURS_MINEURES
10
27.396
20
3.399
0
VERTEX
8
CONTOURS_MINEURES
10
27.396
20
3.000
0
VERTEX
8
CONTOURS_MINEURES
10
27.465
20
2.532
0
VERTEX
8
CONTOURS_MINEURES
10
26.995
20
1.128
0
VERTEX
8
CONTOURS_MINEURES
10
26.705
20
0.004
0
SEQEND
0
POLYLINE
8
CONTOURS_MINEURES
66
1
70
0
0
VERTEX
8
CONTOURS_MINEURES
10
0.000
20
79.116
0
VERTEX
8
CONTOURS_MINEURES
10
1.371
20
79.626
0
VERTEX
8
CONTOURS_MINEURES
10
2.996
20
80.740
0
VERTEX
8
CONTOURS_MINEURES
10
5.745
20
80.740
0
VERTEX
8
CONTOURS_MINEURES
10
6.003
20
80.740
0
VERTEX
8
CONTOURS_MINEURES
10
8.182
20
80.180
0
VERTEX
8
CONTOURS_MINEURES
10
8.999
20
80.161
0
VERTEX
8
CONTOURS_MINEURES
10
10.940
20
79.936
0
VERTEX
8
CONTOURS_MINEURES
10
12.005
20
80.162
0
VERTEX
8
CONTOURS_MINEURES
10
12.840
20
80.162
0
VERTEX
8
CONTOURS_MINEURES
10
15.001
20
80.162
0
VERTEX
8
CONTOURS_MINEURES
10
16.736
20
79.736
0
VERTEX
8
CONTOURS_MINEURES
10
17.997
20
79.684
0
VERTEX
8
CONTOURS_MINEURES
10
19.641
20
79.639
0
VERTEX
8
CONTOURS_MINEURES
10
21.004
20
79.657
0
VERTEX
8
CONTOURS_MINEURES
10
22.344
20
79.657
0
VERTEX
8
CONTOURS_MINEURES
10
23.999
20
79.657
0
VERTEX
8
CONTOURS_MINEURES
10
26.368
20
78.628
0
VERTEX
8
CONTOURS_MINEURES
10
26.995
20
78.392
0
VERTEX
8
CONTOURS_MINEURES
10
27.361
20
78.366
0
VERTEX
8
CONTOURS_MINEURES
10
27.841
20
78.001
0
VERTEX
8
CONTOURS_MINEURES
10
27.841
20
77.156
0
VERTEX
8
CONTOURS_MINEURES
10
27.841
20
74.995
0
VERTEX
8
CONTOURS_MINEURES
10
29.104
20
74.100
0
VERTEX
8
CONTOURS_MINEURES
10
30.002
20
73.314
0
VERTEX
8
CONTOURS_MINEURES
10
31.683
20
73.314
0
VERTEX
8
CONTOURS_MINEURES
10
32.998
20
73.314
0
VERTEX
8
CONTOURS_MINEURES
10
35.002
20
71.999
0
VERTEX
8
CONTOURS_MINEURES
10
35.002
20
71.001
0
VERTEX
8
CONTOURS_MINEURES
10
35.002
20
69.003
0
VERTEX
8
CONTOURS_MINEURES
10
36.004
20
68.359
0
VERTEX
8
CONTOURS_MINEURES
10
37.680
20
67.679
0
VERTEX
8
CONTOURS_MINEURES
10
39.000
20
67.049
0
VERTEX
8
CONTOURS_MINEURES
10
40.948
20
67.049
0
VERTEX
8
CONTOURS_MINEURES
10
41.996
20
67.049
0
VERTEX
8
CONTOURS_MINEURES
10
42.709
20
66.710
0
VERTEX
8
CONTOURS_MINEURES
10
45.003
20
66.953
0
VERTEX
8
CONTOURS_MINEURES
10
47.410
20
66.587
0
VERTEX
8
CONTOURS_MINEURES
10
47.998
20
66.400
0
VERTEX
8
CONTOURS_MINEURES
10
48.402
20
66.400
0
VERTEX
8
CONTOURS_MINEURES
10
51.005
20
66.400
0
VERTEX
8
CONTOURS_MINEURES
10
51.277
20
66.270
0
VERTEX
8
CONTOURS_MINEURES
10
51.947
20
65.997
0
VERTEX
8
CONTOURS_MINEURES
10
53.275
20
65.271
0
VERTEX
8
CONTOURS_MINEURES
10
54.001
20
65.109
0
VERTEX
8
CONTOURS_MINEURES
10
56.190
20
65.190
0
VERTEX
8
CONTOURS_MINEURES
10
56.997
20
64.998
0
VERTEX
8
CONTOURS_MINEURES
10
59.001
20
64.998
0
VERTEX
8
CONTOURS_MINEURES
10
60.003
20
64.998
0
VERTEX
8
CONTOURS_MINEURES
10
60.865
20
65.135
0
VERTEX
8
CONTOURS_MINEURES
10
62.999
20
65.687
0
VERTEX
8
CONTOURS_MINEURES
10
65.685
20
65.687
0
VERTEX
8
CONTOURS_MINEURES
10
65.995
20
65.687
0
VERTEX
8
CONTOURS_MINEURES
10
66.617
20
65.377
0
VERTEX
8
CONTOURS_MINEURES
10
69.002
20
64.352
0
VERTEX
8
CONTOURS_MINEURES
10
69.920
20
63.920
0
VERTEX
8
CONTOURS_MINEURES
10
69.785
20
63.001
0
VERTEX
8
CONTOURS_MINEURES
10
69.785
20
60.780
0
VERTEX
8
CONTOURS_MINEURES
10
69.785
20
59.994
0
VERTEX
8
CONTOURS_MINEURES
10
69.571
20
59.425
0
VERTEX
8
CONTOURS_MINEURES
10
69.002
20
57.124
0
VERTEX
8
CONTOURS_MINEURES
10
68.945
20
57.055
0
VERTEX
8
CONTOURS_MINEURES
10
68.958
20
56.999
0
VERTEX
8
CONTOURS_MINEURES
10
68.920
20
56.918
0
VERTEX
8
CONTOURS_MINEURES
10
66.961
20
54.003
0
VERTEX
8
CONTOURS_MINEURES
10
66.961
20
51.963
0
VERTEX
8
CONTOURS_MINEURES
10
66.961
20
50.997
0
VERTEX
8
CONTOURS_MINEURES
10
66.544
20
50.449
0
VERTEX
8
CONTOURS_MINEURES
10
65.995
20
49.811
0
VERTEX
8
CONTOURS_MINEURES
10
64.810
20
49.811
0
VERTEX
8
CONTOURS_MINEURES
10
62.999
20
49.811
0
VERTEX
8
CONTOURS_MINEURES
10
61.615
20
48.001
0
VERTEX
8
CONTOURS_MINEURES
10
61.615
20
46.390
0
VERTEX
8
CONTOURS_MINEURES
10
61.615
20
45.005
0
VERTEX
8
CONTOURS_MINEURES
10
60.939
20
44.067
0
VERTEX
8
CONTOURS_MINEURES
10
60.003
20
42.958
0
VERTEX
8
CONTOURS_MINEURES
10
59.044
20
42.958
0
VERTEX
8
CONTOURS_MINEURES
10
56.997
20
42.958
0
VERTEX
8
CONTOURS_MINEURES
10
56.061
20
41.999
0
VERTEX
8
CONTOURS_MINEURES
10
55.192
20
40.808
0
VERTEX
8
CONTOURS_MINEURES
10
54.001
20
39.133
0
VERTEX
8
CONTOURS_MINEURES
10
53.902
20
39.003
0
VERTEX
8
CONTOURS_MINEURES
10
53.902
20
36.095
0
VERTEX
8
CONTOURS_MINEURES
10
53.902
20
35.996
0
VERTEX
8
CONTOURS_MINEURES
10
53.641
20
35.637
0
VERTEX
8
CONTOURS_MINEURES
10
51.763
20
33.001
0
VERTEX
8
CONTOURS_MINEURES
10
51.428
20
32.578
0
VERTEX
8
CONTOURS_MINEURES
10
51.005
20
32.098
0
VERTEX
8
CONTOURS_MINEURES
10
50.099
20
32.098
0
VERTEX
8
CONTOURS_MINEURES
10
47.998
20
32.098
0
VERTEX
8
CONTOURS_MINEURES
10
46.952
20
31.051
0
VERTEX
8
CONTOURS_MINEURES
10
45.961
20
30.005
0
VERTEX
8
CONTOURS_MINEURES
10
45.961
20
27.960
0
VERTEX
8
CONTOURS_MINEURES
10
45.961
20
26.998
0
VERTEX
8
CONTOURS_MINEURES
10
45.003
20
26.027
0
VERTEX
8
CONTOURS_MINEURES
10
44.086
20
24.916
0
VERTEX
8
CONTOURS_MINEURES
10
43.100
20
24.003
0
VERTEX
8
CONTOURS_MINEURES
10
41.996
20
22.596
0
VERTEX
8
CONTOURS_MINEURES
10
40.401
20
22.596
0
VERTEX
8
CONTOURS_MINEURES
10
39.000
20
22.596
0
VERTEX
8
CONTOURS_MINEURES
10
37.352
20
20.996
0
VERTEX
8
CONTOURS_MINEURES
10
37.352
20
19.648
0
VERTEX
8
CONTOURS_MINEURES
10
37.352
20
18.000
0
VERTEX
8
CONTOURS_MINEURES
10
36.004
20
15.621
0
VERTEX
8
CONTOURS_MINEURES
10
35.869
20
15.139
0
VERTEX
8
CONTOURS_MINEURES
10
35.794
20
15.005
0
VERTEX
8
CONTOURS_MINEURES
10
35.794
20
14.794
0
VERTEX
8
CONTOURS_MINEURES
10
35.794
20
11.998
0
VERTEX
8
CONTOURS_MINEURES
10
35.794
20
9.212
0
VERTEX
8
CONTOURS_MINEURES
10
35.654
20
9.002
0
VERTEX
8
CONTOURS_MINEURES
10
36.004
20
5.996
0
VERTEX
8
CONTOURS_MINEURES
10
36.004
20
3.000
0
VERTEX
8
CONTOURS_MINEURES
10
36.723
20
0.723
0
VERTEX
8
CONTOURS_MINEURES
10
36.549
20
0.004
0
SEQEND
0
POLYLINE
8
CONTOURS_MINEURES
66
1
70
0
0
VERTEX
8
CONTOURS_MINEURES
10
80.996
20
79.880
0
VERTEX
8
CONTOURS_MINEURES
10
80.109
20
78.001
0
VERTEX
8
CONTOURS_MINEURES
10
80.109
20
75.885
0
VERTEX
8
CONTOURS_MINEURES
10
80.109
20
74.995
0
VERTEX
8
CONTOURS_MINEURES
10
79.325
20
73.670
0
VERTEX
8
CONTOURS_MINEURES
10
78.000
20
72.761
0
VERTEX
8
CONTOURS_MINEURES
10
75.038
20
72.033
0
VERTEX
8
CONTOURS_MINEURES
10
75.004
20
72.047
0
VERTEX
8
CONTOURS_MINEURES
10
72.046
20
72.047
0
VERTEX
8
CONTOURS_MINEURES
10
71.998
20
72.047
0
VERTEX
8
CONTOURS_MINEURES
10
70.240
20
74.995
0
VERTEX
8
CONTOURS_MINEURES
10
70.240
20
76.238
0
VERTEX
8
CONTOURS_MINEURES
10
70.240
20
78.001
0
VERTEX
8
CONTOURS_MINEURES
10
71.998
20
80.813
0
VERTEX
8
CONTOURS_MINEURES
10
72.183
20
80.813
0
VERTEX
8
CONTOURS_MINEURES
10
75.004
20
80.813
0
VERTEX
8
CONTOURS_MINEURES
10
75.134
20
80.867
0
VERTEX
8
CONTOURS_MINEURES
10
75.259
20
80.997
0
VERTEX
8
CONTOURS_MINEURES
10
78.000
20
83.049
0
VERTEX
8
CONTOURS_MINEURES
10
79.427
20
82.572
0
VERTEX
8
CONTOURS_MINEURES
10
80.996
20
84.004
0
VERTEX
8
CONTOURS_MINEURES
10
84.002
20
84.004
0
VERTEX
8
CONTOURS_MINEURES
10
85.500
20
82.500
0
VERTEX
8
CONTOURS_MINEURES
10
84.487
20
80.997
0
VERTEX
8
CONTOURS_MINEURES
10
84.002
20
79.880
0
VERTEX
8
CONTOURS_MINEURES
10
82.117
20
79.880
0
VERTEX
8
CONTOURS_MINEURES
10
80.996
20
79.880
0
SEQEND
0
POLYLINE
8
CONTOURS_MINEURES
66
1
70
0
0
VERTEX
8
CONTOURS_MINEURES
10
0.000
20
89.323
0
VERTEX
8
CONTOURS_MINEURES
10
2.372
20
89.371
0
VERTEX
8
CONTOURS_MINEURES
10
2.996
20
89.512
0
VERTEX
8
CONTOURS_MINEURES
10
3.481
20
89.512
0
VERTEX
8
CONTOURS_MINEURES
10
6.003
20
89.512
0
VERTEX
8
CONTOURS_MINEURES
10
6.538
20
89.460
0
VERTEX
8
CONTOURS_MINEURES
10
8.999
20
89.505
0
VERTEX
8
CONTOURS_MINEURES
10
9.614
20
89.382
0
VERTEX
8
CONTOURS_MINEURES
10
12.005
20
89.055
0
VERTEX
8
CONTOURS_MINEURES
10
12.945
20
89.055
0
VERTEX
8
CONTOURS_MINEURES
10
15.001
20
89.055
0
VERTEX
8
CONTOURS_MINEURES
10
17.018
20
89.016
0
VERTEX
8
CONTOURS_MINEURES
10
17.997
20
88.838
0
VERTEX
8
CONTOURS_MINEURES
10
19.594
20
88.404
0
VERTEX
8
CONTOURS_MINEURES
10
21.004
20
88.152
0
VERTEX
8
CONTOURS_MINEURES
10
22.156
20
88.152
0
VERTEX
8
CONTOURS_MINEURES
10
23.999
20
88.152
0
VERTEX
8
CONTOURS_MINEURES
10
26.765
20
87.230
0
VERTEX
8
CONTOURS_MINEURES
10
26.995
20
87.260
0
VERTEX
8
CONTOURS_MINEURES
10
27.542
20
87.544
0
VERTEX
8
CONTOURS_MINEURES
10
30.002
20
88.711
0
VERTEX
8
CONTOURS_MINEURES
10
31.286
20
88.711
0
VERTEX
8
CONTOURS_MINEURES
10
32.998
20
88.711
0
VERTEX
8
CONTOURS_MINEURES
10
34.200
20
88.198
0
VERTEX
8
CONTOURS_MINEURES
10
36.004
20
88.198
0
VERTEX
8
CONTOURS_MINEURES
10
37.336
20
86.999
0
VERTEX
8
CONTOURS_MINEURES
10
37.336
20
85.335
0
VERTEX
8
CONTOURS_MINEURES
10
37.336
20
84.004
0
VERTEX
8
CONTOURS_MINEURES
10
38.044
20
83.044
0
VERTEX
8
CONTOURS_MINEURES
10
39.000
20
82.269
0
VERTEX
8
CONTOURS_MINEURES
10
40.729
20
82.269
0
VERTEX
8
CONTOURS_MINEURES
10
41.996
20
82.269
0
VERTEX
8
CONTOURS_MINEURES
10
42.645
20
81.646
0
VERTEX
8
CONTOURS_MINEURES
10
43.650
20
80.997
0
VERTEX
8
CONTOURS_MINEURES
10
44.492
20
80.488
0
VERTEX
8
CONTOURS_MINEURES
10
45.003
20
79.960
0
VERTEX
8
CONTOURS_MINEURES
10
46.064
20
79.062
0
VERTEX
8
CONTOURS_MINEURES
10
46.501
20
78.001
0
VERTEX
8
CONTOURS_MINEURES
10
46.501
20
76.498
0
VERTEX
8
CONTOURS_MINEURES
10
46.501
20
74.995
0
VERTEX
8
CONTOURS_MINEURES
10
47.998
20
73.888
0
VERTEX
8
CONTOURS_MINEURES
10
49.894
20
73.888
0
VERTEX
8
CONTOURS_MINEURES
10
51.005
20
73.888
0
VERTEX
8
CONTOURS_MINEURES
10
53.233
20
71.999
0
VERTEX
8
CONTOURS_MINEURES
10
53.233
20
71.231
0
VERTEX
8
CONTOURS_MINEURES
10
53.233
20
69.003
0
VERTEX
8
CONTOURS_MINEURES
10
53.753
20
68.755
0
VERTEX
8
CONTOURS_MINEURES
10
54.001
20
68.654
0
VERTEX
8
CONTOURS_MINEURES
10
54.338
20
68.666
0
VERTEX
8
CONTOURS_MINEURES
10
56.997
20
68.551
0
VERTEX
8
CONTOURS_MINEURES
10
57.449
20
68.551
0
VERTEX
8
CONTOURS_MINEURES
10
60.003
20
68.551
0
VERTEX
8
CONTOURS_MINEURES
10
61.401
20
69.003
0
VERTEX
8
CONTOURS_MINEURES
10
61.401
20
70.401
0
VERTEX
8
CONTOURS_MINEURES
10
61.401
20
71.999
0
VERTEX
8
CONTOURS_MINEURES
10
62.385
20
72.614
0
VERTEX
8
CONTOURS_MINEURES
10
62.999
20
73.168
0
VERTEX
8
CONTOURS_MINEURES
10
64.168
20
73.168
0
VERTEX
8
CONTOURS_MINEURES
10
65.995
20
73.168
0
VERTEX
8
CONTOURS_MINEURES
10
66.912
20
74.995
0
VERTEX
8
CONTOURS_MINEURES
10
66.912
20
77.085
0
VERTEX
8
CONTOURS_MINEURES
10
66.912
20
78.001
0
VERTEX
8
CONTOURS_MINEURES
10
67.594
20
79.595
0
VERTEX
8
CONTOURS_MINEURES
10
68.029
20
80.997
0
VERTEX
8
CONTOURS_MINEURES
10
68.164
20
81.834
0
VERTEX
8
CONTOURS_MINEURES
10
69.002
20
82.435
0
VERTEX
8
CONTOURS_MINEURES
10
69.601
20
83.402
0
VERTEX
8
CONTOURS_MINEURES
10
70.411
20
84.004
0
VERTEX
8
CONTOURS_MINEURES
10
70.411
20
85.413
0
VERTEX
8
CONTOURS_MINEURES
10
70.411
20
86.999
0
VERTEX
8
CONTOURS_MINEURES
10
71.057
20
87.940
0
VERTEX
8
CONTOURS_MINEURES
10
71.998
20
88.525
0
VERTEX
8
CONTOURS_MINEURES
10
73.529
20
88.525
0
VERTEX
8
CONTOURS_MINEURES
10
75.004
20
88.525
0
VERTEX
8
CONTOURS_MINEURES
10
75.739
20
89.260
0
VERTEX
8
CONTOURS_MINEURES
10
77.438
20
89.995
0
VERTEX
8
CONTOURS_MINEURES
10
78.000
20
90.277
0
VERTEX
8
CONTOURS_MINEURES
10
78.946
20
89.995
0
VERTEX
8
CONTOURS_MINEURES
10
80.577
20
89.576
0
VERTEX
8
CONTOURS_MINEURES
10
80.996
20
89.650
0
VERTEX
8
CONTOURS_MINEURES
10
83.656
20
89.650
0
VERTEX
8
CONTOURS_MINEURES
10
84.002
20
89.650
0
VERTEX
8
CONTOURS_MINEURES
10
84.430
20
89.567
0
VERTEX
8
CONTOURS_MINEURES
10
84.868
20
89.995
0
VERTEX
8
CONTOURS_MINEURES
10
86.998
20
91.154
0
VERTEX
8
CONTOURS_MINEURES
10
89.736
20
93.002
0
VERTEX
8
CONTOURS_MINEURES
10
89.736
20
93.269
0
VERTEX
8
CONTOURS_MINEURES
10
89.736
20
95.997
0
VERTEX
8
CONTOURS_MINEURES
10
90.005
20
96.126
0
VERTEX
8
CONTOURS_MINEURES
10
90.133
20
96.126
0
VERTEX
8
CONTOURS_MINEURES
10
93.001
20
96.126
0
VERTEX
8
CONTOURS_MINEURES
10
95.141
20
95.997
0
VERTEX
8
CONTOURS_MINEURES
10
95.141
20
93.858
0
VERTEX
8
CONTOURS_MINEURES
10
95.141
20
93.002
0
VERTEX
8
CONTOURS_MINEURES
10
95.860
20
92.865
0
VERTEX
8
CONTOURS_MINEURES
10
93.984
20
89.995
0
VERTEX
8
CONTOURS_MINEURES
10
93.940
20
89.056
0
VERTEX
8
CONTOURS_MINEURES
10
93.001
20
86.999
0
VERTEX
8
CONTOURS_MINEURES
10
90.005
20
86.999
0
VERTEX
8
CONTOURS_MINEURES
10
90.005
20
84.004
0
VERTEX
8
CONTOURS_MINEURES
10
88.627
20
82.375
0
VERTEX
8
CONTOURS_MINEURES
10
86.998
20
81.455
0
VERTEX
8
CONTOURS_MINEURES
10
86.690
20
80.997
0
VERTEX
8
CONTOURS_MINEURES
10
86.454
20
80.452
0
VERTEX
8
CONTOURS_MINEURES
10
85.616
20
78.001
0
VERTEX
8
CONTOURS_MINEURES
10
85.616
20
76.382
0
VERTEX
8
CONTOURS_MINEURES
10
85.616
20
74.995
0
VERTEX
8
CONTOURS_MINEURES
10
85.512
20
73.485
0
VERTEX
8
CONTOURS_MINEURES
10
84.002
20
72.444
0
VERTEX
8
CONTOURS_MINEURES
10
83.555
20
72.444
0
VERTEX
8
CONTOURS_MINEURES
10
80.996
20
72.444
0
VERTEX
8
CONTOURS_MINEURES
10
80.830
20
72.165
0
VERTEX
8
CONTOURS_MINEURES
10
80.589
20
71.999
0
VERTEX
8
CONTOURS_MINEURES
10
80.589
20
69.410
0
VERTEX
8
CONTOURS_MINEURES
10
80.589
20
69.003
0
VERTEX
8
CONTOURS_MINEURES
10
78.000
20
66.339
0
VERTEX
8
CONTOURS_MINEURES
10
77.750
20
66.247
0
VERTEX
8
CONTOURS_MINEURES
10
77.527
20
65.997
0
VERTEX
8
CONTOURS_MINEURES
10
76.657
20
64.344
0
VERTEX
8
CONTOURS_MINEURES
10
76.421
20
63.001
0
VERTEX
8
CONTOURS_MINEURES
10
76.421
20
61.417
0
VERTEX
8
CONTOURS_MINEURES
10
76.421
20
59.994
0
VERTEX
8
CONTOURS_MINEURES
10
75.940
20
59.058
0
VERTEX
8
CONTOURS_MINEURES
10
75.080
20
56.999
0
VERTEX
8
CONTOURS_MINEURES
10
75.051
20
56.952
0
VERTEX
8
CONTOURS_MINEURES
10
75.004
20
56.905
0
VERTEX
8
CONTOURS_MINEURES
10
72.091
20
56.905
0
VERTEX
8
CONTOURS_MINEURES
10
71.998
20
56.905
0
VERTEX
8
CONTOURS_MINEURES
10
69.838
20
54.003
0
VERTEX
8
CONTOURS_MINEURES
10
69.838
20
51.836
0
VERTEX
8
CONTOURS_MINEURES
10
69.838
20
50.997
0
VERTEX
8
CONTOURS_MINEURES
10
69.002
20
50.151
0
VERTEX
8
CONTOURS_MINEURES
10
68.071
20
48.928
0
VERTEX
8
CONTOURS_MINEURES
10
67.271
20
48.001
0
VERTEX
8
CONTOURS_MINEURES
10
67.271
20
46.277
0
VERTEX
8
CONTOURS_MINEURES
10
67.271
20
45.005
0
VERTEX
8
CONTOURS_MINEURES
10
66.773
20
44.228
0
VERTEX
8
CONTOURS_MINEURES
10
65.995
20
43.432
0
VERTEX
8
CONTOURS_MINEURES
10
64.427
20
43.432
0
VERTEX
8
CONTOURS_MINEURES
10
62.999
20
43.432
0
VERTEX
8
CONTOURS_MINEURES
10
62.400
20
42.600
0
VERTEX
8
CONTOURS_MINEURES
10
61.893
20
41.999
0
VERTEX
8
CONTOURS_MINEURES
10
60.003
20
39.003
0
VERTEX
8
CONTOURS_MINEURES
10
56.997
20
39.003
0
VERTEX
8
CONTOURS_MINEURES
10
56.997
20
35.996
0
VERTEX
8
CONTOURS_MINEURES
10
55.328
20
33.001
0
VERTEX
8
CONTOURS_MINEURES
10
54.001
20
31.481
0
VERTEX
8
CONTOURS_MINEURES
10
53.348
20
30.658
0
VERTEX
8
CONTOURS_MINEURES
10
52.774
20
30.005
0
VERTEX
8
CONTOURS_MINEURES
10
52.774
20
28.230
0
VERTEX
8
CONTOURS_MINEURES
10
52.774
20
26.998
0
VERTEX
8
CONTOURS_MINEURES
10
51.005
20
24.229
0
VERTEX
8
CONTOURS_MINEURES
10
50.778
20
24.229
0
VERTEX
8
CONTOURS_MINEURES
10
47.998
20
24.229
0
VERTEX
8
CONTOURS_MINEURES
10
47.777
20
24.003
0
VERTEX
8
CONTOURS_MINEURES
10
46.686
20
22.314
0
VERTEX
8
CONTOURS_MINEURES
10
45.149
20
20.996
0
VERTEX
8
CONTOURS_MINEURES
10
45.149
20
20.850
0
VERTEX
8
CONTOURS_MINEURES
10
45.149
20
18.000
0
VERTEX
8
CONTOURS_MINEURES
10
45.003
20
17.801
0
VERTEX
8
CONTOURS_MINEURES
10
44.116
20
15.888
0
VERTEX
8
CONTOURS_MINEURES
10
43.817
20
15.005
0
VERTEX
8
CONTOURS_MINEURES
10
43.817
20
13.819
0
VERTEX
8
CONTOURS_MINEURES
10
43.817
20
11.998
0
VERTEX
8
CONTOURS_MINEURES
10
44.024
20
11.023
0
VERTEX
8
CONTOURS_MINEURES
10
45.003
20
9.602
0
VERTEX
8
CONTOURS_MINEURES
10
45.286
20
9.286
0
VERTEX
8
CONTOURS_MINEURES
10
45.752
20
9.002
0
VERTEX
8
CONTOURS_MINEURES
10
47.212
20
8.213
0
VERTEX
8
CONTOURS_MINEURES
10
47.998
20
8.046
0
VERTEX
8
CONTOURS_MINEURES
10
48.955
20
8.046
0
VERTEX
8
CONTOURS_MINEURES
10
51.005
20
8.046
0
VERTEX
8
CONTOURS_MINEURES
10
52.520
20
7.516
0
VERTEX
8
CONTOURS_MINEURES
10
53.701
20
5.996
0
VERTEX
8
CONTOURS_MINEURES
10
53.701
20
3.300
0
VERTEX
8
CONTOURS_MINEURES
10
53.701
20
3.000
0
VERTEX
8
CONTOURS_MINEURES
10
53.017
20
0.988
0
VERTEX
8
CONTOURS_MINEURES
10
52.656
20
0.004
0
SEQEND
0
POLYLINE
8
CONTOURS_MINEURES
66
1
70
0
0
VERTEX
8
CONTOURS_MINEURES
10
89.403
20
0.004
0
VERTEX
8
CONTOURS_MINEURES
10
90.005
20
1.238
0
VERTEX
8
CONTOURS_MINEURES
10
91.767
20
1.238
0
VERTEX
8
CONTOURS_MINEURES
10
93.001
20
1.238
0
VERTEX
8
CONTOURS_MINEURES
10
95.098
20
2.101
0
VERTEX
8
CONTOURS_MINEURES
10
95.997
20
2.728
0
VERTEX
8
CONTOURS_MINEURES
10
96.372
20
2.626
0
VERTEX
8
CONTOURS_MINEURES
10
99.003
20
1.372
0
VERTEX
8
CONTOURS_MINEURES
10
100.371
20
1.372
0
VERTEX
8
CONTOURS_MINEURES
10
101.999
20
1.372
0
VERTEX
8
CONTOURS_MINEURES
10
104.734
20
0.004
0
SEQEND
0
POLYLINE
8
CONTOURS_MINEURES
66
1
70
0
0
VERTEX
8
CONTOURS_MINEURES
10
0.000
20
100.109
0
VERTEX
8
CONTOURS_MINEURES
10
1.891
20
100.109
0
VERTEX
8
CONTOURS_MINEURES
10
2.996
20
101.001
0
VERTEX
8
CONTOURS_MINEURES
10
5.001
20
101.001
0
VERTEX
8
CONTOURS_MINEURES
10
6.003
20
101.001
0
VERTEX
8
CONTOURS_MINEURES
10
7.358
20
100.645
0
VERTEX
8
CONTOURS_MINEURES
10
8.999
20
101.380
0
VERTEX
8
CONTOURS_MINEURES
10
11.383
20
101.380
0
VERTEX
8
CONTOURS_MINEURES
10
12.005
20
101.054
0
VERTEX
8
CONTOURS_MINEURES
10
12.951
20
101.054
0
VERTEX
8
CONTOURS_MINEURES
10
15.001
20
101.054
0
VERTEX
8
CONTOURS_MINEURES
10
17.435
20
101.438
0
VERTEX
8
CONTOURS_MINEURES
10
17.997
20
101.101
0
VERTEX
8
CONTOURS_MINEURES
10
18.472
20
101.527
0
VERTEX
8
CONTOURS_MINEURES
10
21.004
20
102.000
0
VERTEX
8
CONTOURS_MINEURES
10
23.999
20
102.000
0
VERTEX
8
CONTOURS_MINEURES
10
26.995
20
101.500
0
VERTEX
8
CONTOURS_MINEURES
10
27.628
20
101.369
0
VERTEX
8
CONTOURS_MINEURES
10
30.002
20
100.218
0
VERTEX
8
CONTOURS_MINEURES
10
31.216
20
100.218
0
VERTEX
8
CONTOURS_MINEURES
10
32.998
20
100.218
0
VERTEX
8
CONTOURS_MINEURES
10
35.874
20
99.134
0
VERTEX
8
CONTOURS_MINEURES
10
36.004
20
99.104
0
VERTEX
8
CONTOURS_MINEURES
10
36.753
20
99.004
0
VERTEX
8
CONTOURS_MINEURES
10
38.781
20
98.784
0
VERTEX
8
CONTOURS_MINEURES
10
39.000
20
98.812
0
VERTEX
8
CONTOURS_MINEURES
10
39.191
20
98.812
0
VERTEX
8
CONTOURS_MINEURES
10
41.996
20
98.812
0
VERTEX
8
CONTOURS_MINEURES
10
43.285
20
99.004
0
VERTEX
8
CONTOURS_MINEURES
10
44.716
20
99.289
0
VERTEX
8
CONTOURS_MINEURES
10
45.003
20
99.289
0
VERTEX
8
CONTOURS_MINEURES
10
45.524
20
99.525
0
VERTEX
8
CONTOURS_MINEURES
10
47.998
20
99.628
0
VERTEX
8
CONTOURS_MINEURES
10
50.379
20
99.628
0
VERTEX
8
CONTOURS_MINEURES
10
51.005
20
99.628
0
VERTEX
8
CONTOURS_MINEURES
10
51.604
20
99.603
0
VERTEX
8
CONTOURS_MINEURES
10
54.001
20
99.004
0
VERTEX
8
CONTOURS_MINEURES
10
56.997
20
98.184
0
VERTEX
8
CONTOURS_MINEURES
10
57.817
20
98.184
0
VERTEX
8
CONTOURS_MINEURES
10
60.003
20
98.184
0
VERTEX
8
CONTOURS_MINEURES
10
61.801
20
97.200
0
VERTEX
8
CONTOURS_MINEURES
10
62.999
20
97.200
0
VERTEX
8
CONTOURS_MINEURES
10
64.198
20
97.200
0
VERTEX
8
CONTOURS_MINEURES
10
65.995
20
97.200
0
VERTEX
8
CONTOURS_MINEURES
10
66.542
20
96.544
0
VERTEX
8
CONTOURS_MINEURES
10
69.002
20
97.200
0
VERTEX
8
CONTOURS_MINEURES
10
69.659
20
98.344
0
VERTEX
8
CONTOURS_MINEURES
10
71.998
20
98.464
0
VERTEX
8
CONTOURS_MINEURES
10
72.537
20
98.464
0
VERTEX
8
CONTOURS_MINEURES
10
75.004
20
98.464
0
VERTEX
8
CONTOURS_MINEURES
10
75.432
20
98.575
0
VERTEX
8
CONTOURS_MINEURES
10
76.617
20
99.004
0
VERTEX
8
CONTOURS_MINEURES
10
76.943
20
100.061
0
VERTEX
8
CONTOURS_MINEURES
10
78.000
20
99.860
0
VERTEX
8
CONTOURS_MINEURES
10
78.642
20
99.004
0
VERTEX
8
CONTOURS_MINEURES
10
80.996
20
97.429
0
VERTEX
8
CONTOURS_MINEURES
10
82.427
20
97.429
0
VERTEX
8
CONTOURS_MINEURES
10
84.002
20
97.429
0
VERTEX
8
CONTOURS_MINEURES
10
84.931
20
98.072
0
VERTEX
8
CONTOURS_MINEURES
10
86.998
20
97.988
0
VERTEX
8
CONTOURS_MINEURES
10
89.413
20
98.413
0
VERTEX
8
CONTOURS_MINEURES
10
90.005
20
98.696
0
VERTEX
8
CONTOURS_MINEURES
10
92.693
20
98.696
0
VERTEX
8
CONTOURS_MINEURES
10
93.001
20
98.696
0
VERTEX
8
CONTOURS_MINEURES
10
93.327
20
98.676
0
VERTEX
8
CONTOURS_MINEURES
10
94.798
20
99.004
0
VERTEX
8
CONTOURS_MINEURES
10
95.597
20
99.403
0
VERTEX
8
CONTOURS_MINEURES
10
95.997
20
99.397
0
VERTEX
8
CONTOURS_MINEURES
10
96.704
20
99.004
0
VERTEX
8
CONTOURS_MINEURES
10
99.003
20
96.947
0
VERTEX
8
CONTOURS_MINEURES
10
99.949
20
96.947
0
VERTEX
8
CONTOURS_MINEURES
10
101.999
20
96.947
0
VERTEX
8
CONTOURS_MINEURES
10
102.398
20
95.997
0
VERTEX
8
CONTOURS_MINEURES
10
102.398
20
93.401
0
VERTEX
8
CONTOURS_MINEURES
10
102.398
20
93.002
0
VERTEX
8
CONTOURS_MINEURES
10
101.999
20
92.346
0
VERTEX
8
CONTOURS_MINEURES
10
99.657
20
92.346
0
VERTEX
8
CONTOURS_MINEURES
10
99.003
20
92.346
0
VERTEX
8
CONTOURS_MINEURES
10
98.086
20
90.912
0
VERTEX
8
CONTOURS_MINEURES
10
96.735
20
89.995
0
VERTEX
8
CONTOURS_MINEURES
10
96.468
20
87.469
0
VERTEX
8
CONTOURS_MINEURES
10
96.569
20
86.999
0
VERTEX
8
CONTOURS_MINEURES
10
96.569
20
84.574
0
VERTEX
8
CONTOURS_MINEURES
10
96.569
20
84.004
0
VERTEX
8
CONTOURS_MINEURES
10
96.772
20
83.228
0
VERTEX
8
CONTOURS_MINEURES
10
96.237
20
80.997
0
VERTEX
8
CONTOURS_MINEURES
10
96.228
20
80.767
0
VERTEX
8
CONTOURS_MINEURES
10
95.997
20
79.999
0
VERTEX
8
CONTOURS_MINEURES
10
95.452
20
78.001
0
VERTEX
8
CONTOURS_MINEURES
10
95.452
20
77.455
0
VERTEX
8
CONTOURS_MINEURES
10
95.452
20
74.995
0
VERTEX
8
CONTOURS_MINEURES
10
93.843
20
74.152
0
VERTEX
8
CONTOURS_MINEURES
10
93.444
20
71.999
0
VERTEX
8
CONTOURS_MINEURES
10
93.444
20
69.447
0
VERTEX
8
CONTOURS_MINEURES
10
93.444
20
69.003
0
VERTEX
8
CONTOURS_MINEURES
10
93.353
20
68.650
0
VERTEX
8
CONTOURS_MINEURES
10
93.001
20
67.667
0
VERTEX
8
CONTOURS_MINEURES
10
91.669
20
67.667
0
VERTEX
8
CONTOURS_MINEURES
10
90.005
20
67.667
0
VERTEX
8
CONTOURS_MINEURES
10
89.378
20
66.623
0
VERTEX
8
CONTOURS_MINEURES
10
89.378
20
65.997
0
VERTEX
8
CONTOURS_MINEURES
10
86.998
20
63.625
0
VERTEX
8
CONTOURS_MINEURES
10
86.490
20
63.509
0
VERTEX
8
CONTOURS_MINEURES
10
86.142
20
63.001
0
VERTEX
8
CONTOURS_MINEURES
10
86.142
20
62.142
0
VERTEX
8
CONTOURS_MINEURES
10
86.142
20
59.994
0
VERTEX
8
CONTOURS_MINEURES
10
84.002
20
58.703
0
VERTEX
8
CONTOURS_MINEURES
10
82.706
20
58.703
0
VERTEX
8
CONTOURS_MINEURES
10
80.996
20
58.703
0
VERTEX
8
CONTOURS_MINEURES
10
79.944
20
58.051
0
VERTEX
8
CONTOURS_MINEURES
10
79.230
20
56.999
0
VERTEX
8
CONTOURS_MINEURES
10
78.000
20
55.621
0
VERTEX
8
CONTOURS_MINEURES
10
77.373
20
54.630
0
VERTEX
8
CONTOURS_MINEURES
10
76.755
20
54.003
0
VERTEX
8
CONTOURS_MINEURES
10
76.755
20
52.754
0
VERTEX
8
CONTOURS_MINEURES
10
76.755
20
50.997
0
VERTEX
8
CONTOURS_MINEURES
10
76.068
20
49.933
0
VERTEX
8
CONTOURS_MINEURES
10
75.004
20
49.437
0
VERTEX
8
CONTOURS_MINEURES
10
73.563
20
49.437
0
VERTEX
8
CONTOURS_MINEURES
10
71.998
20
49.437
0
VERTEX
8
CONTOURS_MINEURES
10
70.581
20
48.001
0
VERTEX
8
CONTOURS_MINEURES
10
70.581
20
46.584
0
VERTEX
8
CONTOURS_MINEURES
10
70.581
20
45.005
0
VERTEX
8
CONTOURS_MINEURES
10
70.018
20
43.986
0
VERTEX
8
CONTOURS_MINEURES
10
69.002
20
43.281
0
VERTEX
8
CONTOURS_MINEURES
10
68.501
20
42.500
0
VERTEX
8
CONTOURS_MINEURES
10
68.011
20
41.999
0
VERTEX
8
CONTOURS_MINEURES
10
67.381
20
40.618
0
VERTEX
8
CONTOURS_MINEURES
10
66.198
20
39.003
0
VERTEX
8
CONTOURS_MINEURES
10
66.198
20
36.199
0
VERTEX
8
CONTOURS_MINEURES
10
66.198
20
35.996
0
VERTEX
8
CONTOURS_MINEURES
10
66.166
20
35.826
0
VERTEX
8
CONTOURS_MINEURES
10
65.995
20
35.247
0
VERTEX
8
CONTOURS_MINEURES
10
63.748
20
35.247
0
VERTEX
8
CONTOURS_MINEURES
10
62.999
20
35.247
0
VERTEX
8
CONTOURS_MINEURES
10
62.608
20
33.391
0
VERTEX
8
CONTOURS_MINEURES
10
62.366
20
33.001
0
VERTEX
8
CONTOURS_MINEURES
10
62.507
20
30.497
0
VERTEX
8
CONTOURS_MINEURES
10
62.109
20
30.005
0
VERTEX
8
CONTOURS_MINEURES
10
62.109
20
29.111
0
VERTEX
8
CONTOURS_MINEURES
10
62.109
20
26.998
0
VERTEX
8
CONTOURS_MINEURES
10
62.109
20
26.108
0
VERTEX
8
CONTOURS_MINEURES
10
62.999
20
24.003
0
VERTEX
8
CONTOURS_MINEURES
10
62.999
20
20.996
0
VERTEX
8
CONTOURS_MINEURES
10
62.999
20
18.000
0
VERTEX
8
CONTOURS_MINEURES
10
60.003
20
15.005
0
VERTEX
8
CONTOURS_MINEURES
10
56.997
20
15.005
0
VERTEX
8
CONTOURS_MINEURES
10
56.997
20
11.998
0
VERTEX
8
CONTOURS_MINEURES
10
60.003
20
11.998
0
VERTEX
8
CONTOURS_MINEURES
10
62.666
20
9.002
0
VERTEX
8
CONTOURS_MINEURES
10
62.666
20
6.330
0
VERTEX
8
CONTOURS_MINEURES
10
62.760
20
5.996
0
VERTEX
8
CONTOURS_MINEURES
10
62.760
20
5.756
0
VERTEX
8
CONTOURS_MINEURES
10
62.760
20
3.000
0
VERTEX
8
CONTOURS_MINEURES
10
62.999
20
2.002
0
VERTEX
8
CONTOURS_MINEURES
10
64.996
20
2.002
0
VERTEX
8
CONTOURS_MINEURES
10
65.995
20
2.002
0
VERTEX
8
CONTOURS_MINEURES
10
66.410
20
0.004
0
SEQEND
0
POLYLINE
8
CONTOURS_MINEURES
66
1
70
0
0
VERTEX
8
CONTOURS_MINEURES
10
79.020
20
0.004
0
VERTEX
8
CONTOURS_MINEURES
10
79.997
20
2.002
0
VERTEX
8
CONTOURS_MINEURES
10
80.516
20
3.000
0
VERTEX
8
CONTOURS_MINEURES
10
80.516
20
3.479
0
VERTEX
8
CONTOURS_MINEURES
10
80.516
20
5.996
0
VERTEX
8
CONTOURS_MINEURES
10
80.677
20
8.683
0
VERTEX
8
CONTOURS_MINEURES
10
80.612
20
9.002
0
VERTEX
8
CONTOURS_MINEURES
10
80.282
20
9.716
0
VERTEX
8
CONTOURS_MINEURES
10
80.996
20
10.667
0
VERTEX
8
CONTOURS_MINEURES
10
82.666
20
10.667
0
VERTEX
8
CONTOURS_MINEURES
10
84.002
20
10.667
0
VERTEX
8
CONTOURS_MINEURES
10
84.668
20
11.998
0
VERTEX
8
CONTOURS_MINEURES
10
84.668
20
12.666
0
VERTEX
8
CONTOURS_MINEURES
10
84.668
20
15.005
0
VERTEX
8
CONTOURS_MINEURES
10
86.998
20
15.529
0
VERTEX
8
CONTOURS_MINEURES
10
89.510
20
15.498
0
VERTEX
8
CONTOURS_MINEURES
10
90.005
20
15.376
0
VERTEX
8
CONTOURS_MINEURES
10
92.630
20
15.376
0
VERTEX
8
CONTOURS_MINEURES
10
93.001
20
15.376
0
VERTEX
8
CONTOURS_MINEURES
10
93.928
20
15.005
0
VERTEX
8
CONTOURS_MINEURES
10
93.928
20
12.929
0
VERTEX
8
CONTOURS_MINEURES
10
93.928
20
11.998
0
VERTEX
8
CONTOURS_MINEURES
10
95.136
20
11.138
0
VERTEX
8
CONTOURS_MINEURES
10
95.997
20
10.976
0
VERTEX
8
CONTOURS_MINEURES
10
97.827
20
10.826
0
VERTEX
8
CONTOURS_MINEURES
10
99.003
20
10.286
0
VERTEX
8
CONTOURS_MINEURES
10
100.287
20
10.286
0
VERTEX
8
CONTOURS_MINEURES
10
101.999
20
10.286
0
VERTEX
8
CONTOURS_MINEURES
10
103.684
20
10.313
0
VERTEX
8
CONTOURS_MINEURES
10
104.995
20
10.909
0
VERTEX
8
CONTOURS_MINEURES
10
106.140
20
10.857
0
VERTEX
8
CONTOURS_MINEURES
10
107.086
20
11.998
0
VERTEX
8
CONTOURS_MINEURES
10
107.086
20
14.090
0
VERTEX
8
CONTOURS_MINEURES
10
107.086
20
15.005
0
VERTEX
8
CONTOURS_MINEURES
10
107.757
20
15.249
0
VERTEX
8
CONTOURS_MINEURES
10
108.001
20
15.958
0
VERTEX
8
CONTOURS_MINEURES
10
108.955
20
15.958
0
VERTEX
8
CONTOURS_MINEURES
10
110.997
20
15.958
0
VERTEX
8
CONTOURS_MINEURES
10
112.608
20
16.396
0
VERTEX
8
CONTOURS_MINEURES
10
114.004
20
16.859
0
VERTEX
8
CONTOURS_MINEURES
10
115.002
20
16.003
0
VERTEX
8
CONTOURS_MINEURES
10
117.000
20
15.116
0
VERTEX
8
CONTOURS_MINEURES
10
119.885
20
15.116
0
VERTEX
8
CONTOURS_MINEURES
10
119.996
20
15.116
0
VERTEX
8
CONTOURS_MINEURES
10
120.048
20
15.057
0
VERTEX
8
CONTOURS_MINEURES
10
120.087
20
15.005
0
VERTEX
8
CONTOURS_MINEURES
10
120.087
20
14.914
0
VERTEX
8
CONTOURS_MINEURES
10
120.087
20
11.998
0
VERTEX
8
CONTOURS_MINEURES
10
121.220
20
10.223
0
VERTEX
8
CONTOURS_MINEURES
10
123.002
20
9.093
0
VERTEX
8
CONTOURS_MINEURES
10
123.051
20
9.051
0
VERTEX
8
CONTOURS_MINEURES
10
123.160
20
9.002
0
VERTEX
8
CONTOURS_MINEURES
10
123.924
20
6.921
0
VERTEX
8
CONTOURS_MINEURES
10
125.998
20
6.296
0
VERTEX
8
CONTOURS_MINEURES
10
128.704
20
6.296
0
VERTEX
8
CONTOURS_MINEURES
10
129.005
20
6.296
0
VERTEX
8
CONTOURS_MINEURES
10
129.154
20
5.996
0
VERTEX
8
CONTOURS_MINEURES
10
129.154
20
3.150
0
VERTEX
8
CONTOURS_MINEURES
10
129.154
20
3.000
0
VERTEX
8
CONTOURS_MINEURES
10
129.290
20
0.290
0
VERTEX
8
CONTOURS_MINEURES
10
129.484
20
0.004
0
SEQEND
0
POLYLINE
8
CONTOURS_MINEURES
66
1
70
0
0
VERTEX
8
CONTOURS_MINEURES
10
134.996
20
90.779
0
VERTEX
8
CONTOURS_MINEURES
10
132.782
20
90.779
0
VERTEX
8
CONTOURS_MINEURES
10
132.000
20
90.779
0
VERTEX
8
CONTOURS_MINEURES
10
130.366
20
91.635
0
VERTEX
8
CONTOURS_MINEURES
10
130.366
20
89.995
0
VERTEX
8
CONTOURS_MINEURES
10
129.005
20
88.747
0
VERTEX
8
CONTOURS_MINEURES
10
127.752
20
88.747
0
VERTEX
8
CONTOURS_MINEURES
10
125.998
20
88.747
0
VERTEX
8
CONTOURS_MINEURES
10
124.250
20
88.747
0
VERTEX
8
CONTOURS_MINEURES
10
123.002
20
86.999
0
VERTEX
8
CONTOURS_MINEURES
10
123.002
20
84.004
0
VERTEX
8
CONTOURS_MINEURES
10
120.615
20
83.385
0
VERTEX
8
CONTOURS_MINEURES
10
119.996
20
83.162
0
VERTEX
8
CONTOURS_MINEURES
10
119.157
20
83.162
0
VERTEX
8
CONTOURS_MINEURES
10
117.000
20
83.162
0
VERTEX
8
CONTOURS_MINEURES
10
115.252
20
82.250
0
VERTEX
8
CONTOURS_MINEURES
10
114.004
20
82.667
0
VERTEX
8
CONTOURS_MINEURES
10
113.002
20
81.999
0
VERTEX
8
CONTOURS_MINEURES
10
112.847
20
80.997
0
VERTEX
8
CONTOURS_MINEURES
10
112.501
20
79.499
0
VERTEX
8
CONTOURS_MINEURES
10
111.624
20
78.001
0
VERTEX
8
CONTOURS_MINEURES
10
111.624
20
77.375
0
VERTEX
8
CONTOURS_MINEURES
10
111.624
20
74.995
0
VERTEX
8
CONTOURS_MINEURES
10
111.373
20
74.620
0
VERTEX
8
CONTOURS_MINEURES
10
110.997
20
74.246
0
VERTEX
8
CONTOURS_MINEURES
10
108.750
20
74.246
0
VERTEX
8
CONTOURS_MINEURES
10
108.001
20
74.246
0
VERTEX
8
CONTOURS_MINEURES
10
107.181
20
72.816
0
VERTEX
8
CONTOURS_MINEURES
10
105.746
20
71.999
0
VERTEX
8
CONTOURS_MINEURES
10
105.746
20
71.250
0
VERTEX
8
CONTOURS_MINEURES
10
105.746
20
69.003
0
VERTEX
8
CONTOURS_MINEURES
10
104.995
20
68.677
0
VERTEX
8
CONTOURS_MINEURES
10
103.633
20
67.637
0
VERTEX
8
CONTOURS_MINEURES
10
101.999
20
66.527
0
VERTEX
8
CONTOURS_MINEURES
10
101.470
20
66.527
0
VERTEX
8
CONTOURS_MINEURES
10
99.003
20
66.527
0
VERTEX
8
CONTOURS_MINEURES
10
98.611
20
65.997
0
VERTEX
8
CONTOURS_MINEURES
10
97.463
20
64.536
0
VERTEX
8
CONTOURS_MINEURES
10
96.133
20
63.001
0
VERTEX
8
CONTOURS_MINEURES
10
96.133
20
60.131
0
VERTEX
8
CONTOURS_MINEURES
10
96.133
20
59.994
0
VERTEX
8
CONTOURS_MINEURES
10
96.057
20
59.934
0
VERTEX
8
CONTOURS_MINEURES
10
95.997
20
59.875
0
VERTEX
8
CONTOURS_MINEURES
10
94.176
20
58.819
0
VERTEX
8
CONTOURS_MINEURES
10
93.001
20
57.976
0
VERTEX
8
CONTOURS_MINEURES
10
90.982
20
57.976
0
VERTEX
8
CONTOURS_MINEURES
10
90.005
20
57.976
0
VERTEX
8
CONTOURS_MINEURES
10
89.575
20
57.427
0
VERTEX
8
CONTOURS_MINEURES
10
88.931
20
56.999
0
VERTEX
8
CONTOURS_MINEURES
10
87.988
20
56.012
0
VERTEX
8
CONTOURS_MINEURES
10
86.998
20
54.548
0
VERTEX
8
CONTOURS_MINEURES
10
86.752
20
54.249
0
VERTEX
8
CONTOURS_MINEURES
10
86.378
20
54.003
0
VERTEX
8
CONTOURS_MINEURES
10
86.378
20
51.619
0
VERTEX
8
CONTOURS_MINEURES
10
86.378
20
50.997
0
VERTEX
8
CONTOURS_MINEURES
10
84.002
20
49.356
0
VERTEX
8
CONTOURS_MINEURES
10
82.642
20
49.356
0
VERTEX
8
CONTOURS_MINEURES
10
80.996
20
49.356
0
VERTEX
8
CONTOURS_MINEURES
10
79.857
20
48.001
0
VERTEX
8
CONTOURS_MINEURES
10
79.857
20
46.144
0
VERTEX
8
CONTOURS_MINEURES
10
79.857
20
45.005
0
VERTEX
8
CONTOURS_MINEURES
10
79.043
20
43.958
0
VERTEX
8
CONTOURS_MINEURES
10
78.000
20
42.786
0
VERTEX
8
CONTOURS_MINEURES
10
77.566
20
42.434
0
VERTEX
8
CONTOURS_MINEURES
10
77.058
20
41.999
0
VERTEX
8
CONTOURS_MINEURES
10
75.004
20
39.123
0
VERTEX
8
CONTOURS_MINEURES
10
74.884
20
39.123
0
VERTEX
8
CONTOURS_MINEURES
10
71.998
20
39.123
0
VERTEX
8
CONTOURS_MINEURES
10
71.904
20
39.003
0
VERTEX
8
CONTOURS_MINEURES
10
71.904
20
36.090
0
VERTEX
8
CONTOURS_MINEURES
10
71.904
20
35.996
0
VERTEX
8
CONTOURS_MINEURES
10
71.831
20
35.830
0
VERTEX
8
CONTOURS_MINEURES
10
70.457
20
33.001
0
VERTEX
8
CONTOURS_MINEURES
10
71.216
20
30.786
0
VERTEX
8
CONTOURS_MINEURES
10
71.623
20
30.005
0
VERTEX
8
CONTOURS_MINEURES
10
71.623
20
27.374
0
VERTEX
8
CONTOURS_MINEURES
10
71.623
20
26.998
0
VERTEX
8
CONTOURS_MINEURES
10
71.725
20
26.726
0
VERTEX
8
CONTOURS_MINEURES
10
71.998
20
26.181
0
VERTEX
8
CONTOURS_MINEURES
10
72.817
20
26.181
0
VERTEX
8
CONTOURS_MINEURES
10
75.004
20
26.181
0
VERTEX
8
CONTOURS_MINEURES
10
76.069
20
24.003
0
VERTEX
8
CONTOURS_MINEURES
10
75.931
20
21.927
0
VERTEX
8
CONTOURS_MINEURES
10
76.260
20
20.996
0
VERTEX
8
CONTOURS_MINEURES
10
76.260
20
19.257
0
VERTEX
8
CONTOURS_MINEURES
10
76.260
20
18.000
0
VERTEX
8
CONTOURS_MINEURES
10
76.347
20
16.657
0
VERTEX
8
CONTOURS_MINEURES
10
75.603
20
15.005
0
VERTEX
8
CONTOURS_MINEURES
10
75.603
20
14.403
0
VERTEX
8
CONTOURS_MINEURES
10
75.603
20
11.998
0
VERTEX
8
CONTOURS_MINEURES
10
75.319
20
11.683
0
VERTEX
8
CONTOURS_MINEURES
10
75.004
20
11.453
0
VERTEX
8
CONTOURS_MINEURES
10
72.544
20
11.453
0
VERTEX
8
CONTOURS_MINEURES
10
71.998
20
11.453
0
VERTEX
8
CONTOURS_MINEURES
10
71.193
20
9.807
0
VERTEX
8
CONTOURS_MINEURES
10
71.051
20
9.002
0
VERTEX
8
CONTOURS_MINEURES
10
70.960
20
7.962
0
VERTEX
8
CONTOURS_MINEURES
10
70.645
20
5.996
0
VERTEX
8
CONTOURS_MINEURES
10
70.645
20
4.353
0
VERTEX
8
CONTOURS_MINEURES
10
70.645
20
3.000
0
VERTEX
8
CONTOURS_MINEURES
10
71.548
20
0.454
0
VERTEX
8
CONTOURS_MINEURES
10
71.677
20
0.004
0
SEQEND
0
POLYLINE
8
CONTOURS_MINEURES
66
1
70
0
0
VERTEX
8
CONTOURS_MINEURES
10
95.050
20
117.000
0
VERTEX
8
CONTOURS_MINEURES
10
95.997
20
115.943
0
VERTEX
8
CONTOURS_MINEURES
10
96.633
20
114.638
0
VERTEX
8
CONTOURS_MINEURES
10
97.500
20
114.004
0
VERTEX
8
CONTOURS_MINEURES
10
99.003
20
112.264
0
VERTEX
8
CONTOURS_MINEURES
10
100.264
20
112.264
0
VERTEX
8
CONTOURS_MINEURES
10
101.999
20
112.264
0
VERTEX
8
CONTOURS_MINEURES
10
102.647
20
110.998
0
VERTEX
8
CONTOURS_MINEURES
10
102.647
20
108.650
0
VERTEX
8
CONTOURS_MINEURES
10
102.647
20
108.002
0
VERTEX
8
CONTOURS_MINEURES
10
104.995
20
105.926
0
VERTEX
8
CONTOURS_MINEURES
10
105.406
20
105.407
0
VERTEX
8
CONTOURS_MINEURES
10
105.925
20
104.995
0
VERTEX
8
CONTOURS_MINEURES
10
105.925
20
104.068
0
VERTEX
8
CONTOURS_MINEURES
10
105.925
20
102.000
0
VERTEX
8
CONTOURS_MINEURES
10
108.001
20
100.190
0
VERTEX
8
CONTOURS_MINEURES
10
109.187
20
100.190
0
VERTEX
8
CONTOURS_MINEURES
10
110.997
20
100.190
0
VERTEX
8
CONTOURS_MINEURES
10
111.677
20
99.682
0
VERTEX
8
CONTOURS_MINEURES
10
112.036
20
99.004
0
VERTEX
8
CONTOURS_MINEURES
10
111.882
20
96.882
0
VERTEX
8
CONTOURS_MINEURES
10
113.371
20
95.997
0
VERTEX
8
CONTOURS_MINEURES
10
113.371
20
93.632
0
VERTEX
8
CONTOURS_MINEURES
10
113.371
20
93.002
0
VERTEX
8
CONTOURS_MINEURES
10
114.004
20
92.200
0
VERTEX
8
CONTOURS_MINEURES
10
114.894
20
90.889
0
VERTEX
8
CONTOURS_MINEURES
10
117.000
20
90.396
0
VERTEX
8
CONTOURS_MINEURES
10
117.399
20
90.396
0
VERTEX
8
CONTOURS_MINEURES
10
119.996
20
90.396
0
VERTEX
8
CONTOURS_MINEURES
10
122.517
20
90.480
0
VERTEX
8
CONTOURS_MINEURES
10
123.002
20
91.498
0
VERTEX
8
CONTOURS_MINEURES
10
124.500
20
93.002
0
VERTEX
8
CONTOURS_MINEURES
10
124.500
20
94.500
0
VERTEX
8
CONTOURS_MINEURES
10
124.500
20
95.997
0
VERTEX
8
CONTOURS_MINEURES
10
125.117
20
96.882
0
VERTEX
8
CONTOURS_MINEURES
10
125.998
20
99.004
0
VERTEX
8
CONTOURS_MINEURES
10
129.005
20
99.004
0
VERTEX
8
CONTOURS_MINEURES
10
130.174
20
100.831
0
VERTEX
8
CONTOURS_MINEURES
10
131.527
20
102.000
0
VERTEX
8
CONTOURS_MINEURES
10
131.527
20
104.522
0
VERTEX
8
CONTOURS_MINEURES
10
131.527
20
104.995
0
VERTEX
8
CONTOURS_MINEURES
10
132.000
20
105.227
0
VERTEX
8
CONTOURS_MINEURES
10
134.766
20
105.227
0
VERTEX
8
CONTOURS_MINEURES
10
134.996
20
105.227
0
SEQEND
0
POLYLINE
8
CONTOURS_MINEURES
66
1
70
0
0
VERTEX
8
CONTOURS_MINEURES
10
71.665
20
117.000
0
VERTEX
8
CONTOURS_MINEURES
10
71.816
20
116.818
0
VERTEX
8
CONTOURS_MINEURES
10
71.998
20
116.807
0
VERTEX
8
CONTOURS_MINEURES
10
72.191
20
116.807
0
VERTEX
8
CONTOURS_MINEURES
10
75.004
20
116.807
0
VERTEX
8
CONTOURS_MINEURES
10
75.379
20
116.626
0
VERTEX
8
CONTOURS_MINEURES
10
78.000
20
115.617
0
VERTEX
8
CONTOURS_MINEURES
10
80.568
20
117.000
0
SEQEND
0
POLYLINE
8
CONTOURS_MINEURES
66
1
70
0
0
VERTEX
8
CONTOURS_MINEURES
10
0.000
20
106.437
0
VERTEX
8
CONTOURS_MINEURES
10
0.957
20
107.042
0
VERTEX
8
CONTOURS_MINEURES
10
2.996
20
107.895
0
VERTEX
8
CONTOURS_MINEURES
10
5.896
20
107.895
0
VERTEX
8
CONTOURS_MINEURES
10
6.003
20
107.895
0
VERTEX
8
CONTOURS_MINEURES
10
6.096
20
107.909
0
VERTEX
8
CONTOURS_MINEURES
10
6.302
20
108.002
0
VERTEX
8
CONTOURS_MINEURES
10
6.302
20
108.302
0
VERTEX
8
CONTOURS_MINEURES
10
6.302
20
110.998
0
VERTEX
8
CONTOURS_MINEURES
10
7.240
20
112.762
0
VERTEX
8
CONTOURS_MINEURES
10
8.999
20
113.385
0
VERTEX
8
CONTOURS_MINEURES
10
9.914
20
113.089
0
VERTEX
8
CONTOURS_MINEURES
10
12.005
20
111.631
0
VERTEX
8
CONTOURS_MINEURES
10
14.370
20
111.631
0
VERTEX
8
CONTOURS_MINEURES
10
15.001
20
111.631
0
VERTEX
8
CONTOURS_MINEURES
10
15.632
20
111.631
0
VERTEX
8
CONTOURS_MINEURES
10
17.997
20
112.318
0
VERTEX
8
CONTOURS_MINEURES
10
19.417
20
112.584
0
VERTEX
8
CONTOURS_MINEURES
10
21.004
20
112.898
0
VERTEX
8
CONTOURS_MINEURES
10
22.897
20
112.898
0
VERTEX
8
CONTOURS_MINEURES
10
23.999
20
112.898
0
VERTEX
8
CONTOURS_MINEURES
10
26.418
20
113.425
0
VERTEX
8
CONTOURS_MINEURES
10
26.995
20
113.438
0
VERTEX
8
CONTOURS_MINEURES
10
27.575
20
113.425
0
VERTEX
8
CONTOURS_MINEURES
10
30.002
20
113.757
0
VERTEX
8
CONTOURS_MINEURES
10
30.248
20
113.757
0
VERTEX
8
CONTOURS_MINEURES
10
32.998
20
113.757
0
VERTEX
8
CONTOURS_MINEURES
10
33.782
20
114.004
0
VERTEX
8
CONTOURS_MINEURES
10
35.410
20
114.596
0
VERTEX
8
CONTOURS_MINEURES
10
36.004
20
114.683
0
VERTEX
8
CONTOURS_MINEURES
10
38.551
20
116.551
0
VERTEX
8
CONTOURS_MINEURES
10
39.000
20
116.839
0
VERTEX
8
CONTOURS_MINEURES
10
39.161
20
116.839
0
VERTEX
8
CONTOURS_MINEURES
10
41.996
20
116.839
0
VERTEX
8
CONTOURS_MINEURES
10
42.157
20
116.839
0
VERTEX
8
CONTOURS_MINEURES
10
42.269
20
117.000
0
SEQEND
0
POLYLINE
8
CONTOURS_MINEURES
66
1
70
0
0
VERTEX
8
CONTOURS_MINEURES
10
134.996
20
73.625
0
VERTEX
8
CONTOURS_MINEURES
10
133.370
20
73.625
0
VERTEX
8
CONTOURS_MINEURES
10
132.000
20
73.625
0
VERTEX
8
CONTOURS_MINEURES
10
129.154
20
71.999
0
VERTEX
8
CONTOURS_MINEURES
10
129.154
20
71.849
0
VERTEX
8
CONTOURS_MINEURES
10
129.154
20
69.003
0
VERTEX
8
CONTOURS_MINEURES
10
129.066
20
68.942
0
VERTEX
8
CONTOURS_MINEURES
10
129.005
20
68.896
0
VERTEX
8
CONTOURS_MINEURES
10
126.105
20
68.896
0
VERTEX
8
CONTOURS_MINEURES
10
125.998
20
68.896
0
VERTEX
8
CONTOURS_MINEURES
10
123.470
20
65.997
0
VERTEX
8
CONTOURS_MINEURES
10
123.002
20
65.373
0
VERTEX
8
CONTOURS_MINEURES
10
121.882
20
64.117
0
VERTEX
8
CONTOURS_MINEURES
10
121.322
20
63.001
0
VERTEX
8
CONTOURS_MINEURES
10
121.322
20
61.321
0
VERTEX
8
CONTOURS_MINEURES
10
121.322
20
59.994
0
VERTEX
8
CONTOURS_MINEURES
10
119.996
20
58.197
0
VERTEX
8
CONTOURS_MINEURES
10
118.797
20
58.197
0
VERTEX
8
CONTOURS_MINEURES
10
117.000
20
58.197
0
VERTEX
8
CONTOURS_MINEURES
10
116.135
20
59.130
0
VERTEX
8
CONTOURS_MINEURES
10
114.004
20
59.172
0
VERTEX
8
CONTOURS_MINEURES
10
111.637
20
59.357
0
VERTEX
8
CONTOURS_MINEURES
10
110.997
20
59.534
0
VERTEX
8
CONTOURS_MINEURES
10
108.462
20
59.534
0
VERTEX
8
CONTOURS_MINEURES
10
108.001
20
59.534
0
VERTEX
8
CONTOURS_MINEURES
10
107.434
20
59.429
0
VERTEX
8
CONTOURS_MINEURES
10
104.995
20
59.076
0
VERTEX
8
CONTOURS_MINEURES
10
103.719
20
58.274
0
VERTEX
8
CONTOURS_MINEURES
10
102.194
20
56.999
0
VERTEX
8
CONTOURS_MINEURES
10
102.069
20
56.929
0
VERTEX
8
CONTOURS_MINEURES
10
101.999
20
56.870
0
VERTEX
8
CONTOURS_MINEURES
10
101.871
20
56.870
0
VERTEX
8
CONTOURS_MINEURES
10
99.003
20
56.870
0
VERTEX
8
CONTOURS_MINEURES
10
97.199
20
55.201
0
VERTEX
8
CONTOURS_MINEURES
10
95.997
20
54.114
0
VERTEX
8
CONTOURS_MINEURES
10
95.869
20
54.003
0
VERTEX
8
CONTOURS_MINEURES
10
95.869
20
53.875
0
VERTEX
8
CONTOURS_MINEURES
10
95.869
20
50.997
0
VERTEX
8
CONTOURS_MINEURES
10
94.297
20
49.700
0
VERTEX
8
CONTOURS_MINEURES
10
93.001
20
48.066
0
VERTEX
8
CONTOURS_MINEURES
10
90.070
20
48.066
0
VERTEX
8
CONTOURS_MINEURES
10
90.005
20
48.066
0
VERTEX
8
CONTOURS_MINEURES
10
89.973
20
48.032
0
VERTEX
8
CONTOURS_MINEURES
10
89.936
20
48.001
0
VERTEX
8
CONTOURS_MINEURES
10
89.936
20
47.933
0
VERTEX
8
CONTOURS_MINEURES
10
89.936
20
45.005
0
VERTEX
8
CONTOURS_MINEURES
10
89.227
20
42.776
0
VERTEX
8
CONTOURS_MINEURES
10
87.631
20
41.999
0
VERTEX
8
CONTOURS_MINEURES
10
87.315
20
41.683
0
VERTEX
8
CONTOURS_MINEURES
10
86.998
20
41.294
0
VERTEX
8
CONTOURS_MINEURES
10
86.290
20
39.711
0
VERTEX
8
CONTOURS_MINEURES
10
86.071
20
39.003
0
VERTEX
8
CONTOURS_MINEURES
10
86.071
20
36.927
0
VERTEX
8
CONTOURS_MINEURES
10
86.071
20
35.996
0
VERTEX
8
CONTOURS_MINEURES
10
86.092
20
35.091
0
VERTEX
8
CONTOURS_MINEURES
10
85.385
20
33.001
0
VERTEX
8
CONTOURS_MINEURES
10
84.958
20
32.045
0
VERTEX
8
CONTOURS_MINEURES
10
84.769
20
30.005
0
VERTEX
8
CONTOURS_MINEURES
10
84.769
20
27.767
0
VERTEX
8
CONTOURS_MINEURES
10
84.769
20
26.998
0
VERTEX
8
CONTOURS_MINEURES
10
85.032
20
25.969
0
VERTEX
8
CONTOURS_MINEURES
10
84.901
20
24.003
0
VERTEX
8
CONTOURS_MINEURES
10
85.535
20
22.534
0
VERTEX
8
CONTOURS_MINEURES
10
86.998
20
22.341
0
VERTEX
8
CONTOURS_MINEURES
10
89.524
20
21.477
0
VERTEX
8
CONTOURS_MINEURES
10
90.005
20
21.276
0
VERTEX
8
CONTOURS_MINEURES
10
92.722
20
21.276
0
VERTEX
8
CONTOURS_MINEURES
10
93.001
20
21.276
0
VERTEX
8
CONTOURS_MINEURES
10
93.283
20
21.279
0
VERTEX
8
CONTOURS_MINEURES
10
93.585
20
20.996
0
VERTEX
8
CONTOURS_MINEURES
10
93.585
20
20.411
0
VERTEX
8
CONTOURS_MINEURES
10
93.585
20
18.000
0
VERTEX
8
CONTOURS_MINEURES
10
95.997
20
17.050
0
VERTEX
8
CONTOURS_MINEURES
10
98.175
20
17.175
0
VERTEX
8
CONTOURS_MINEURES
10
99.003
20
17.112
0
VERTEX
8
CONTOURS_MINEURES
10
101.110
20
17.112
0
VERTEX
8
CONTOURS_MINEURES
10
101.999
20
17.112
0
VERTEX
8
CONTOURS_MINEURES
10
102.728
20
17.272
0
VERTEX
8
CONTOURS_MINEURES
10
103.684
20
18.000
0
VERTEX
8
CONTOURS_MINEURES
10
103.684
20
19.685
0
VERTEX
8
CONTOURS_MINEURES
10
103.684
20
20.996
0
VERTEX
8
CONTOURS_MINEURES
10
104.995
20
22.969
0
VERTEX
8
CONTOURS_MINEURES
10
105.339
20
23.658
0
VERTEX
8
CONTOURS_MINEURES
10
105.413
20
24.003
0
VERTEX
8
CONTOURS_MINEURES
10
105.481
20
24.487
0
VERTEX
8
CONTOURS_MINEURES
10
104.995
20
26.062
0
VERTEX
8
CONTOURS_MINEURES
10
104.808
20
26.998
0
VERTEX
8
CONTOURS_MINEURES
10
104.808
20
27.186
0
VERTEX
8
CONTOURS_MINEURES
10
104.808
20
30.005
0
VERTEX
8
CONTOURS_MINEURES
10
104.995
20
30.886
0
VERTEX
8
CONTOURS_MINEURES
10
105.518
20
32.480
0
VERTEX
8
CONTOURS_MINEURES
10
105.815
20
33.001
0
VERTEX
8
CONTOURS_MINEURES
10
108.001
20
34.170
0
VERTEX
8
CONTOURS_MINEURES
10
109.828
20
34.170
0
VERTEX
8
CONTOURS_MINEURES
10
110.997
20
34.170
0
VERTEX
8
CONTOURS_MINEURES
10
113.402
20
35.397
0
VERTEX
8
CONTOURS_MINEURES
10
114.004
20
35.526
0
VERTEX
8
CONTOURS_MINEURES
10
114.860
20
35.996
0
VERTEX
8
CONTOURS_MINEURES
10
114.860
20
38.144
0
VERTEX
8
CONTOURS_MINEURES
10
114.860
20
39.003
0
VERTEX
8
CONTOURS_MINEURES
10
117.000
20
40.429
0
VERTEX
8
CONTOURS_MINEURES
10
118.426
20
40.429
0
VERTEX
8
CONTOURS_MINEURES
10
119.996
20
40.429
0
VERTEX
8
CONTOURS_MINEURES
10
122.859
20
39.003
0
VERTEX
8
CONTOURS_MINEURES
10
122.859
20
38.860
0
VERTEX
8
CONTOURS_MINEURES
10
122.859
20
35.996
0
VERTEX
8
CONTOURS_MINEURES
10
122.934
20
35.928
0
VERTEX
8
CONTOURS_MINEURES
10
123.002
20
35.782
0
VERTEX
8
CONTOURS_MINEURES
10
123.685
20
33.684
0
VERTEX
8
CONTOURS_MINEURES
10
123.952
20
33.001
0
VERTEX
8
CONTOURS_MINEURES
10
123.105
20
30.108
0
VERTEX
8
CONTOURS_MINEURES
10
123.069
20
30.005
0
VERTEX
8
CONTOURS_MINEURES
10
123.069
20
27.065
0
VERTEX
8
CONTOURS_MINEURES
10
123.069
20
26.998
0
VERTEX
8
CONTOURS_MINEURES
10
123.105
20
26.895
0
VERTEX
8
CONTOURS_MINEURES
10
123.952
20
24.003
0
VERTEX
8
CONTOURS_MINEURES
10
125.998
20
21.372
0
VERTEX
8
CONTOURS_MINEURES
10
126.374
20
21.372
0
VERTEX
8
CONTOURS_MINEURES
10
129.005
20
21.372
0
VERTEX
8
CONTOURS_MINEURES
10
129.357
20
20.996
0
VERTEX
8
CONTOURS_MINEURES
10
129.357
20
18.353
0
VERTEX
8
CONTOURS_MINEURES
10
129.357
20
18.000
0
VERTEX
8
CONTOURS_MINEURES
10
130.716
20
16.716
0
VERTEX
8
CONTOURS_MINEURES
10
132.000
20
15.277
0
VERTEX
8
CONTOURS_MINEURES
10
134.724
20
15.277
0
VERTEX
8
CONTOURS_MINEURES
10
134.996
20
15.277
0
SEQEND
0
POLYLINE
8
CONTOURS_MINEURES
66
1
70
0
0
VERTEX
8
CONTOURS_MINEURES
10
123.812
20
117.000
0
VERTEX
8
CONTOURS_MINEURES
10
125.998
20
114.926
0
VERTEX
8
CONTOURS_MINEURES
10
126.923
20
114.926
0
VERTEX
8
CONTOURS_MINEURES
10
129.005
20
114.926
0
VERTEX
8
CONTOURS_MINEURES
10
130.591
20
115.414
0
VERTEX
8
CONTOURS_MINEURES
10
132.000
20
115.638
0
VERTEX
8
CONTOURS_MINEURES
10
133.634
20
115.638
0
VERTEX
8
CONTOURS_MINEURES
10
134.996
20
115.638
0
SEQEND
0
POLYLINE
8
CONTOURS_MINEURES
66
1
70
0
0
VERTEX
8
CONTOURS_MINEURES
10
134.996
20
55.052
0
VERTEX
8
CONTOURS_MINEURES
10
133.049
20
55.052
0
VERTEX
8
CONTOURS_MINEURES
10
132.000
20
55.052
0
VERTEX
8
CONTOURS_MINEURES
10
130.387
20
54.003
0
VERTEX
8
CONTOURS_MINEURES
10
130.387
20
52.616
0
VERTEX
8
CONTOURS_MINEURES
10
130.387
20
50.997
0
VERTEX
8
CONTOURS_MINEURES
10
129.670
20
48.667
0
VERTEX
8
CONTOURS_MINEURES
10
129.254
20
48.001
0
VERTEX
8
CONTOURS_MINEURES
10
129.254
20
47.751
0
VERTEX
8
CONTOURS_MINEURES
10
129.254
20
45.005
0
VERTEX
8
CONTOURS_MINEURES
10
130.682
20
43.682
0
VERTEX
8
CONTOURS_MINEURES
10
130.911
20
41.999
0
VERTEX
8
CONTOURS_MINEURES
10
131.335
20
41.333
0
VERTEX
8
CONTOURS_MINEURES
10
131.212
20
39.003
0
VERTEX
8
CONTOURS_MINEURES
10
131.212
20
36.787
0
VERTEX
8
CONTOURS_MINEURES
10
131.212
20
35.996
0
VERTEX
8
CONTOURS_MINEURES
10
131.349
20
35.345
0
VERTEX
8
CONTOURS_MINEURES
10
132.000
20
33.930
0
VERTEX
8
CONTOURS_MINEURES
10
134.067
20
33.930
0
VERTEX
8
CONTOURS_MINEURES
10
134.996
20
33.930
0
SEQEND
0
POLYLINE
8
CONTOURS_MINEURES
66
1
70
0
0
VERTEX
8
CONTOURS_MINEURES
10
101.999
20
49.427
0
VERTEX
8
CONTOURS_MINEURES
10
100.430
20
49.427
0
VERTEX
8
CONTOURS_MINEURES
10
99.003
20
49.427
0
VERTEX
8
CONTOURS_MINEURES
10
97.733
20
48.001
0
VERTEX
8
CONTOURS_MINEURES
10
97.733
20
46.271
0
VERTEX
8
CONTOURS_MINEURES
10
97.733
20
45.005
0
VERTEX
8
CONTOURS_MINEURES
10
97.308
20
43.694
0
VERTEX
8
CONTOURS_MINEURES
10
97.036
20
41.999
0
VERTEX
8
CONTOURS_MINEURES
10
96.302
20
39.308
0
VERTEX
8
CONTOURS_MINEURES
10
96.331
20
39.003
0
VERTEX
8
CONTOURS_MINEURES
10
96.331
20
36.330
0
VERTEX
8
CONTOURS_MINEURES
10
96.331
20
35.996
0
VERTEX
8
CONTOURS_MINEURES
10
99.003
20
33.001
0
VERTEX
8
CONTOURS_MINEURES
10
95.997
20
35.376
0
VERTEX
8
CONTOURS_MINEURES
10
93.700
20
33.001
0
VERTEX
8
CONTOURS_MINEURES
10
93.001
20
32.127
0
VERTEX
8
CONTOURS_MINEURES
10
92.127
20
32.127
0
VERTEX
8
CONTOURS_MINEURES
10
90.005
20
32.127
0
VERTEX
8
CONTOURS_MINEURES
10
89.381
20
30.626
0
VERTEX
8
CONTOURS_MINEURES
10
89.040
20
30.005
0
VERTEX
8
CONTOURS_MINEURES
10
89.040
20
29.041
0
VERTEX
8
CONTOURS_MINEURES
10
89.040
20
26.998
0
VERTEX
8
CONTOURS_MINEURES
10
89.323
20
26.319
0
VERTEX
8
CONTOURS_MINEURES
10
90.005
20
25.692
0
VERTEX
8
CONTOURS_MINEURES
10
91.695
20
25.692
0
VERTEX
8
CONTOURS_MINEURES
10
93.001
20
25.692
0
VERTEX
8
CONTOURS_MINEURES
10
94.274
20
25.725
0
VERTEX
8
CONTOURS_MINEURES
10
95.997
20
26.299
0
VERTEX
8
CONTOURS_MINEURES
10
96.464
20
26.532
0
VERTEX
8
CONTOURS_MINEURES
10
96.654
20
26.998
0
VERTEX
8
CONTOURS_MINEURES
10
96.654
20
27.656
0
VERTEX
8
CONTOURS_MINEURES
10
96.654
20
30.005
0
VERTEX
8
CONTOURS_MINEURES
10
97.437
20
31.565
0
VERTEX
8
CONTOURS_MINEURES
10
99.003
20
33.001
0
VERTEX
8
CONTOURS_MINEURES
10
101.999
20
33.001
0
VERTEX
8
CONTOURS_MINEURES
10
103.056
20
34.939
0
VERTEX
8
CONTOURS_MINEURES
10
104.995
20
35.611
0
VERTEX
8
CONTOURS_MINEURES
10
105.615
20
35.996
0
VERTEX
8
CONTOURS_MINEURES
10
105.615
20
36.617
0
VERTEX
8
CONTOURS_MINEURES
10
105.615
20
39.003
0
VERTEX
8
CONTOURS_MINEURES
10
106.871
20
40.129
0
VERTEX
8
CONTOURS_MINEURES
10
108.001
20
41.777
0
VERTEX
8
CONTOURS_MINEURES
10
110.775
20
41.777
0
VERTEX
8
CONTOURS_MINEURES
10
110.997
20
41.777
0
VERTEX
8
CONTOURS_MINEURES
10
111.123
20
41.874
0
VERTEX
8
CONTOURS_MINEURES
10
111.248
20
41.999
0
VERTEX
8
CONTOURS_MINEURES
10
112.263
20
43.739
0
VERTEX
8
CONTOURS_MINEURES
10
113.670
20
45.005
0
VERTEX
8
CONTOURS_MINEURES
10
113.670
20
47.668
0
VERTEX
8
CONTOURS_MINEURES
10
113.670
20
48.001
0
VERTEX
8
CONTOURS_MINEURES
10
113.670
20
48.334
0
VERTEX
8
CONTOURS_MINEURES
10
114.004
20
49.713
0
VERTEX
8
CONTOURS_MINEURES
10
114.195
20
50.805
0
VERTEX
8
CONTOURS_MINEURES
10
114.159
20
50.997
0
VERTEX
8
CONTOURS_MINEURES
10
114.159
20
53.848
0
VERTEX
8
CONTOURS_MINEURES
10
114.159
20
54.003
0
VERTEX
8
CONTOURS_MINEURES
10
114.004
20
54.139
0
VERTEX
8
CONTOURS_MINEURES
10
112.010
20
55.012
0
VERTEX
8
CONTOURS_MINEURES
10
110.997
20
55.248
0
VERTEX
8
CONTOURS_MINEURES
10
109.752
20
55.248
0
VERTEX
8
CONTOURS_MINEURES
10
108.001
20
55.248
0
VERTEX
8
CONTOURS_MINEURES
10
106.096
20
55.100
0
VERTEX
8
CONTOURS_MINEURES
10
104.995
20
54.942
0
VERTEX
8
CONTOURS_MINEURES
10
104.391
20
54.607
0
VERTEX
8
CONTOURS_MINEURES
10
103.675
20
54.003
0
VERTEX
8
CONTOURS_MINEURES
10
103.675
20
52.678
0
VERTEX
8
CONTOURS_MINEURES
10
103.675
20
50.997
0
VERTEX
8
CONTOURS_MINEURES
10
101.999
20
49.427
0
SEQEND
0
POLYLINE
8
CONTOURS_MAJEURES
66
1
70
0
0
VERTEX
8
CONTOURS_MAJEURES
10
0.000
20
44.973
0
VERTEX
8
CONTOURS_MAJEURES
10
0.125
20
45.005
0
VERTEX
8
CONTOURS_MAJEURES
10
0.125
20
45.130
0
VERTEX
8
CONTOURS_MAJEURES
10
0.125
20
48.001
0
VERTEX
8
CONTOURS_MAJEURES
10
1.744
20
49.254
0
VERTEX
8
CONTOURS_MAJEURES
10
2.996
20
50.757
0
VERTEX
8
CONTOURS_MAJEURES
10
5.762
20
50.757
0
VERTEX
8
CONTOURS_MAJEURES
10
6.003
20
50.757
0
VERTEX
8
CONTOURS_MAJEURES
10
7.201
20
50.997
0
VERTEX
8
CONTOURS_MAJEURES
10
7.201
20
52.801
0
VERTEX
8
CONTOURS_MAJEURES
10
7.201
20
54.003
0
VERTEX
8
CONTOURS_MAJEURES
10
8.999
20
54.103
0
VERTEX
8
CONTOURS_MAJEURES
10
9.082
20
54.086
0
VERTEX
8
CONTOURS_MAJEURES
10
9.391
20
54.003
0
VERTEX
8
CONTOURS_MAJEURES
10
9.391
20
51.389
0
VERTEX
8
CONTOURS_MAJEURES
10
9.391
20
50.997
0
VERTEX
8
CONTOURS_MAJEURES
10
12.005
20
49.822
0
VERTEX
8
CONTOURS_MAJEURES
10
13.826
20
49.822
0
VERTEX
8
CONTOURS_MAJEURES
10
15.001
20
49.822
0
VERTEX
8
CONTOURS_MAJEURES
10
15.968
20
50.030
0
VERTEX
8
CONTOURS_MAJEURES
10
17.997
20
49.481
0
VERTEX
8
CONTOURS_MAJEURES
10
18.992
20
50.006
0
VERTEX
8
CONTOURS_MAJEURES
10
21.004
20
50.414
0
VERTEX
8
CONTOURS_MAJEURES
10
23.417
20
50.414
0
VERTEX
8
CONTOURS_MAJEURES
10
23.999
20
50.414
0
VERTEX
8
CONTOURS_MAJEURES
10
24.507
20
50.489
0
VERTEX
8
CONTOURS_MAJEURES
10
25.655
20
50.997
0
VERTEX
8
CONTOURS_MAJEURES
10
25.655
20
52.658
0
VERTEX
8
CONTOURS_MAJEURES
10
25.655
20
54.003
0
VERTEX
8
CONTOURS_MAJEURES
10
26.995
20
54.470
0
VERTEX
8
CONTOURS_MAJEURES
10
29.685
20
54.003
0
VERTEX
8
CONTOURS_MAJEURES
10
29.685
20
51.313
0
VERTEX
8
CONTOURS_MAJEURES
10
29.685
20
50.997
0
VERTEX
8
CONTOURS_MAJEURES
10
30.002
20
50.900
0
VERTEX
8
CONTOURS_MAJEURES
10
32.901
20
50.900
0
VERTEX
8
CONTOURS_MAJEURES
10
32.998
20
50.900
0
VERTEX
8
CONTOURS_MAJEURES
10
33.180
20
50.815
0
VERTEX
8
CONTOURS_MAJEURES
10
36.004
20
49.602
0
VERTEX
8
CONTOURS_MAJEURES
10
36.962
20
48.958
0
VERTEX
8
CONTOURS_MAJEURES
10
37.502
20
48.001
0
VERTEX
8
CONTOURS_MAJEURES
10
37.502
20
46.503
0
VERTEX
8
CONTOURS_MAJEURES
10
37.502
20
45.005
0
VERTEX
8
CONTOURS_MAJEURES
10
36.735
20
42.732
0
VERTEX
8
CONTOURS_MAJEURES
10
36.504
20
41.999
0
VERTEX
8
CONTOURS_MAJEURES
10
36.004
20
41.166
0
VERTEX
8
CONTOURS_MAJEURES
10
35.027
20
39.977
0
VERTEX
8
CONTOURS_MAJEURES
10
34.701
20
39.003
0
VERTEX
8
CONTOURS_MAJEURES
10
34.701
20
37.700
0
VERTEX
8
CONTOURS_MAJEURES
10
34.701
20
35.996
0
VERTEX
8
CONTOURS_MAJEURES
10
33.562
20
33.562
0
VERTEX
8
CONTOURS_MAJEURES
10
33.293
20
33.001
0
VERTEX
8
CONTOURS_MAJEURES
10
33.170
20
32.829
0
VERTEX
8
CONTOURS_MAJEURES
10
32.998
20
31.943
0
VERTEX
8
CONTOURS_MAJEURES
10
31.059
20
31.943
0
VERTEX
8
CONTOURS_MAJEURES
10
30.002
20
31.943
0
VERTEX
8
CONTOURS_MAJEURES
10
29.603
20
30.005
0
VERTEX
8
CONTOURS_MAJEURES
10
29.603
20
27.397
0
VERTEX
8
CONTOURS_MAJEURES
10
29.603
20
26.998
0
VERTEX
8
CONTOURS_MAJEURES
10
29.668
20
26.665
0
VERTEX
8
CONTOURS_MAJEURES
10
28.771
20
24.003
0
VERTEX
8
CONTOURS_MAJEURES
10
28.102
20
22.896
0
VERTEX
8
CONTOURS_MAJEURES
10
27.587
20
20.996
0
VERTEX
8
CONTOURS_MAJEURES
10
27.587
20
18.590
0
VERTEX
8
CONTOURS_MAJEURES
10
27.587
20
18.000
0
VERTEX
8
CONTOURS_MAJEURES
10
26.995
20
17.114
0
VERTEX
8
CONTOURS_MAJEURES
10
24.161
20
15.005
0
VERTEX
8
CONTOURS_MAJEURES
10
24.161
20
14.843
0
VERTEX
8
CONTOURS_MAJEURES
10
24.161
20
11.998
0
VERTEX
8
CONTOURS_MAJEURES
10
24.095
20
11.903
0
VERTEX
8
CONTOURS_MAJEURES
10
23.999
20
11.760
0
VERTEX
8
CONTOURS_MAJEURES
10
23.762
20
11.760
0
VERTEX
8
CONTOURS_MAJEURES
10
21.004
20
11.760
0
VERTEX
8
CONTOURS_MAJEURES
10
18.999
20
9.002
0
VERTEX
8
CONTOURS_MAJEURES
10
18.663
20
8.337
0
VERTEX
8
CONTOURS_MAJEURES
10
17.997
20
7.388
0
VERTEX
8
CONTOURS_MAJEURES
10
15.917
20
5.996
0
VERTEX
8
CONTOURS_MAJEURES
10
15.917
20
5.080
0
VERTEX
8
CONTOURS_MAJEURES
10
15.917
20
3.000
0
VERTEX
8
CONTOURS_MAJEURES
10
15.001
20
2.529
0
VERTEX
8
CONTOURS_MAJEURES
10
12.476
20
2.529
0
VERTEX
8
CONTOURS_MAJEURES
10
12.005
20
2.529
0
VERTEX
8
CONTOURS_MAJEURES
10
11.254
20
2.251
0
VERTEX
8
CONTOURS_MAJEURES
10
8.999
20
1.905
0
VERTEX
8
CONTOURS_MAJEURES
10
7.351
20
0.004
0
SEQEND
0
POLYLINE
8
CONTOURS_MAJEURES
66
1
70
0
0
VERTEX
8
CONTOURS_MAJEURES
10
89.403
20
0.004
0
VERTEX
8
CONTOURS_MAJEURES
10
90.005
20
1.238
0
VERTEX
8
CONTOURS_MAJEURES
10
91.767
20
1.238
0
VERTEX
8
CONTOURS_MAJEURES
10
93.001
20
1.238
0
VERTEX
8
CONTOURS_MAJEURES
10
95.098
20
2.101
0
VERTEX
8
CONTOURS_MAJEURES
10
95.997
20
2.728
0
VERTEX
8
CONTOURS_MAJEURES
10
96.372
20
2.626
0
VERTEX
8
CONTOURS_MAJEURES
10
99.003
20
1.372
0
VERTEX
8
CONTOURS_MAJEURES
10
100.371
20
1.372
0
VERTEX
8
CONTOURS_MAJEURES
10
101.999
20
1.372
0
VERTEX
8
CONTOURS_MAJEURES
10
104.734
20
0.004
0
SEQEND
0
POLYLINE
8
CONTOURS_MAJEURES
66
1
70
0
0
VERTEX
8
CONTOURS_MAJEURES
10
0.000
20
100.109
0
VERTEX
8
CONTOURS_MAJEURES
10
1.891
20
100.109
0
VERTEX
8
CONTOURS_MAJEURES
10
2.996
20
101.001
0
VERTEX
8
CONTOURS_MAJEURES
10
5.001
20
101.001
0
VERTEX
8
CONTOURS_MAJEURES
10
6.003
20
101.001
0
VERTEX
8
CONTOURS_MAJEURES
10
7.358
20
100.645
0
VERTEX
8
CONTOURS_MAJEURES
10
8.999
20
101.380
0
VERTEX
8
CONTOURS_MAJEURES
10
11.383
20
101.380
0
VERTEX
8
CONTOURS_MAJEURES
10
12.005
20
101.054
0
VERTEX
8
CONTOURS_MAJEURES
10
12.951
20
101.054
0
VERTEX
8
CONTOURS_MAJEURES
10
15.001
20
101.054
0
VERTEX
8
CONTOURS_MAJEURES
10
17.435
20
101.438
0
VERTEX
8
CONTOURS_MAJEURES
10
17.997
20
101.101
0
VERTEX
8
CONTOURS_MAJEURES
10
18.472
20
101.527
0
VERTEX
8
CONTOURS_MAJEURES
10
21.004
20
102.000
0
VERTEX
8
CONTOURS_MAJEURES
10
23.999
20
102.000
0
VERTEX
8
CONTOURS_MAJEURES
10
26.995
20
101.500
0
VERTEX
8
CONTOURS_MAJEURES
10
27.628
20
101.369
0
VERTEX
8
CONTOURS_MAJEURES
10
30.002
20
100.218
0
VERTEX
8
CONTOURS_MAJEURES
10
31.216
20
100.218
0
VERTEX
8
CONTOURS_MAJEURES
10
32.998
20
100.218
0
VERTEX
8
CONTOURS_MAJEURES
10
35.874
20
99.134
0
VERTEX
8
CONTOURS_MAJEURES
10
36.004
20
99.104
0
VERTEX
8
CONTOURS_MAJEURES
10
36.753
20
99.004
0
VERTEX
8
CONTOURS_MAJEURES
10
38.781
20
98.784
0
VERTEX
8
CONTOURS_MAJEURES
10
39.000
20
98.812
0
VERTEX
8
CONTOURS_MAJEURES
10
39.191
20
98.812
0
VERTEX
8
CONTOURS_MAJEURES
10
41.996
20
98.812
0
VERTEX
8
CONTOURS_MAJEURES
10
43.285
20
99.004
0
VERTEX
8
CONTOURS_MAJEURES
10
44.716
20
99.289
0
VERTEX
8
CONTOURS_MAJEURES
10
45.003
20
99.289
0
VERTEX
8
CONTOURS_MAJEURES
10
45.524
20
99.525
0
VERTEX
8
CONTOURS_MAJEURES
10
47.998
20
99.628
0
VERTEX
8
CONTOURS_MAJEURES
10
50.379
20
99.628
0
VERTEX
8
CONTOURS_MAJEURES
10
51.005
20
99.628
0
VERTEX
8
CONTOURS_MAJEURES
10
51.604
20
99.603
0
VERTEX
8
CONTOURS_MAJEURES
10
54.001
20
99.004
0
VERTEX
8
CONTOURS_MAJEURES
10
56.997
20
98.184
0
VERTEX
8
CONTOURS_MAJEURES
10
57.817
20
98.184
0
VERTEX
8
CONTOURS_MAJEURES
10
60.003
20
98.184
0
VERTEX
8
CONTOURS_MAJEURES
10
61.801
20
97.200
0
VERTEX
8
CONTOURS_MAJEURES
10
62.999
20
97.200
0
VERTEX
8
CONTOURS_MAJEURES
10
64.198
20
97.200
0
VERTEX
8
CONTOURS_MAJEURES
10
65.995
20
97.200
0
VERTEX
8
CONTOURS_MAJEURES
10
66.542
20
96.544
0
VERTEX
8
CONTOURS_MAJEURES
10
69.002
20
97.200
0
VERTEX
8
CONTOURS_MAJEURES
10
69.659
20
98.344
0
VERTEX
8
CONTOURS_MAJEURES
10
71.998
20
98.464
0
VERTEX
8
CONTOURS_MAJEURES
10
72.537
20
98.464
0
VERTEX
8
CONTOURS_MAJEURES
10
75.004
20
98.464
0
VERTEX
8
CONTOURS_MAJEURES
10
75.432
20
98.575
0
VERTEX
8
CONTOURS_MAJEURES
10
76.617
20
99.004
0
VERTEX
8
CONTOURS_MAJEURES
10
76.943
20
100.061
0
VERTEX
8
CONTOURS_MAJEURES
10
78.000
20
99.860
0
VERTEX
8
CONTOURS_MAJEURES
10
78.642
20
99.004
0
VERTEX
8
CONTOURS_MAJEURES
10
80.996
20
97.429
0
VERTEX
8
CONTOURS_MAJEURES
10
82.427
20
97.429
0
VERTEX
8
CONTOURS_MAJEURES
10
84.002
20
97.429
0
VERTEX
8
CONTOURS_MAJEURES
10
84.931
20
98.072
0
VERTEX
8
CONTOURS_MAJEURES
10
86.998
20
97.988
0
VERTEX
8
CONTOURS_MAJEURES
10
89.413
20
98.413
0
VERTEX
8
CONTOURS_MAJEURES
10
90.005
20
98.696
0
VERTEX
8
CONTOURS_MAJEURES
10
92.693
20
98.696
0
VERTEX
8
CONTOURS_MAJEURES
10
93.001
20
98.696
0
VERTEX
8
CONTOURS_MAJEURES
10
93.327
20
98.676
0
VERTEX
8
CONTOURS_MAJEURES
10
94.798
20
99.004
0
VERTEX
8
CONTOURS_MAJEURES
10
95.597
20
99.403
0
VERTEX
8
CONTOURS_MAJEURES
10
95.997
20
99.397
0
VERTEX
8
CONTOURS_MAJEURES
10
96.704
20
99.004
0
VERTEX
8
CONTOURS_MAJEURES
10
99.003
20
96.947
0
VERTEX
8
CONTOURS_MAJEURES
10
99.949
20
96.947
0
VERTEX
8
CONTOURS_MAJEURES
10
101.999
20
96.947
0
VERTEX
8
CONTOURS_MAJEURES
10
102.398
20
95.997
0
VERTEX
8
CONTOURS_MAJEURES
10
102.398
20
93.401
0
VERTEX
8
CONTOURS_MAJEURES
10
102.398
20
93.002
0
VERTEX
8
CONTOURS_MAJEURES
10
101.999
20
92.346
0
VERTEX
8
CONTOURS_MAJEURES
10
99.657
20
92.346
0
VERTEX
8
CONTOURS_MAJEURES
10
99.003
20
92.346
0
VERTEX
8
CONTOURS_MAJEURES
10
98.086
20
90.912
0
VERTEX
8
CONTOURS_MAJEURES
10
96.735
20
89.995
0
VERTEX
8
CONTOURS_MAJEURES
10
96.468
20
87.469
0
VERTEX
8
CONTOURS_MAJEURES
10
96.569
20
86.999
0
VERTEX
8
CONTOURS_MAJEURES
10
96.569
20
84.574
0
VERTEX
8
CONTOURS_MAJEURES
10
96.569
20
84.004
0
VERTEX
8
CONTOURS_MAJEURES
10
96.772
20
83.228
0
VERTEX
8
CONTOURS_MAJEURES
10
96.237
20
80.997
0
VERTEX
8
CONTOURS_MAJEURES
10
96.228
20
80.767
0
VERTEX
8
CONTOURS_MAJEURES
10
95.997
20
79.999
0
VERTEX
8
CONTOURS_MAJEURES
10
95.452
20
78.001
0
VERTEX
8
CONTOURS_MAJEURES
10
95.452
20
77.455
0
VERTEX
8
CONTOURS_MAJEURES
10
95.452
20
74.995
0
VERTEX
8
CONTOURS_MAJEURES
10
93.843
20
74.152
0
VERTEX
8
CONTOURS_MAJEURES
10
93.444
20
71.999
0
VERTEX
8
CONTOURS_MAJEURES
10
93.444
20
69.447
0
VERTEX
8
CONTOURS_MAJEURES
10
93.444
20
69.003
0
VERTEX
8
CONTOURS_MAJEURES
10
93.353
20
68.650
0
VERTEX
8
CONTOURS_MAJEURES
10
93.001
20
67.667
0
VERTEX
8
CONTOURS_MAJEURES
10
91.669
20
67.667
0
VERTEX
8
CONTOURS_MAJEURES
10
90.005
20
67.667
0
VERTEX
8
CONTOURS_MAJEURES
10
89.378
20
66.623
0
VERTEX
8
CONTOURS_MAJEURES
10
89.378
20
65.997
0
VERTEX
8
CONTOURS_MAJEURES
10
86.998
20
63.625
0
VERTEX
8
CONTOURS_MAJEURES
10
86.490
20
63.509
0
VERTEX
8
CONTOURS_MAJEURES
10
86.142
20
63.001
0
VERTEX
8
CONTOURS_MAJEURES
10
86.142
20
62.142
0
VERTEX
8
CONTOURS_MAJEURES
10
86.142
20
59.994
0
VERTEX
8
CONTOURS_MAJEURES
10
84.002
20
58.703
0
VERTEX
8
CONTOURS_MAJEURES
10
82.706
20
58.703
0
VERTEX
8
CONTOURS_MAJEURES
10
80.996
20
58.703
0
VERTEX
8
CONTOURS_MAJEURES
10
79.944
20
58.051
0
VERTEX
8
CONTOURS_MAJEURES
10
79.230
20
56.999
0
VERTEX
8
CONTOURS_MAJEURES
10
78.000
20
55.621
0
VERTEX
8
CONTOURS_MAJEURES
10
77.373
20
54.630
0
VERTEX
8
CONTOURS_MAJEURES
10
76.755
20
54.003
0
VERTEX
8
CONTOURS_MAJEURES
10
76.755
20
52.754
0
VERTEX
8
CONTOURS_MAJEURES
10
76.755
20
50.997
0
VERTEX
8
CONTOURS_MAJEURES
10
76.068
20
49.933
0
VERTEX
8
CONTOURS_MAJEURES
10
75.004
20
49.437
0
VERTEX
8
CONTOURS_MAJEURES
10
73.563
20
49.437
0
VERTEX
8
CONTOURS_MAJEURES
10
71.998
20
49.437
0
VERTEX
8
CONTOURS_MAJEURES
10
70.581
20
48.001
0
VERTEX
8
CONTOURS_MAJEURES
10
70.581
20
46.584
0
VERTEX
8
CONTOURS_MAJEURES
10
70.581
20
45.005
0
VERTEX
8
CONTOURS_MAJEURES
10
70.018
20
43.986
0
VERTEX
8
CONTOURS_MAJEURES
10
69.002
20
43.281
0
VERTEX
8
CONTOURS_MAJEURES
10
68.501
20
42.500
0
VERTEX
8
CONTOURS_MAJEURES
10
68.011
20
41.999
0
VERTEX
8
CONTOURS_MAJEURES
10
67.381
20
40.618
0
VERTEX
8
CONTOURS_MAJEURES
10
66.198
20
39.003
0
VERTEX
8
CONTOURS_MAJEURES
10
66.198
20
36.199
0
VERTEX
8
CONTOURS_MAJEURES
10
66.198
20
35.996
0
VERTEX
8
CONTOURS_MAJEURES
10
66.166
20
35.826
0
VERTEX
8
CONTOURS_MAJEURES
10
65.995
20
35.247
0
VERTEX
8
CONTOURS_MAJEURES
10
63.748
20
35.247
0
VERTEX
8
CONTOURS_MAJEURES
10
62.999
20
35.247
0
VERTEX
8
CONTOURS_MAJEURES
10
62.608
20
33.391
0
VERTEX
8
CONTOURS_MAJEURES
10
62.366
20
33.001
0
VERTEX
8
CONTOURS_MAJEURES
10
62.507
20
30.497
0
VERTEX
8
CONTOURS_MAJEURES
10
62.109
20
30.005
0
VERTEX
8
CONTOURS_MAJEURES
10
62.109
20
29.111
0
VERTEX
8
CONTOURS_MAJEURES
10
62.109
20
26.998
0
VERTEX
8
CONTOURS_MAJEURES
10
62.109
20
26.108
0
VERTEX
8
CONTOURS_MAJEURES
10
62.999
20
24.003
0
VERTEX
8
CONTOURS_MAJEURES
10
62.999
20
20.996
0
VERTEX
8
CONTOURS_MAJEURES
10
62.999
20
18.000
0
VERTEX
8
CONTOURS_MAJEURES
10
60.003
20
15.005
0
VERTEX
8
CONTOURS_MAJEURES
10
56.997
20
15.005
0
VERTEX
8
CONTOURS_MAJEURES
10
56.997
20
11.998
0
VERTEX
8
CONTOURS_MAJEURES
10
60.003
20
11.998
0
VERTEX
8
CONTOURS_MAJEURES
10
62.666
20
9.002
0
VERTEX
8
CONTOURS_MAJEURES
10
62.666
20
6.330
0
VERTEX
8
CONTOURS_MAJEURES
10
62.760
20
5.996
0
VERTEX
8
CONTOURS_MAJEURES
10
62.760
20
5.756
0
VERTEX
8
CONTOURS_MAJEURES
10
62.760
20
3.000
0
VERTEX
8
CONTOURS_MAJEURES
10
62.999
20
2.002
0
VERTEX
8
CONTOURS_MAJEURES
10
64.996
20
2.002
0
VERTEX
8
CONTOURS_MAJEURES
10
65.995
20
2.002
0
VERTEX
8
CONTOURS_MAJEURES
10
66.410
20
0.004
0
SEQEND
0
POLYLINE
8
PARCELLE
66
1
70
1
0
VERTEX
8
PARCELLE
10
63.345
20
36.070
0
VERTEX
8
PARCELLE
10
59.824
20
34.163
0
VERTEX
8
PARCELLE
10
34.434
20
21.214
0
VERTEX
8
PARCELLE
10
32.086
20
20.000
0
VERTEX
8
PARCELLE
10
32.057
20
20.040
0
VERTEX
8
PARCELLE
10
30.532
20
22.307
0
VERTEX
8
PARCELLE
10
24.121
20
31.839
0
VERTEX
8
PARCELLE
10
20.030
20
38.019
0
VERTEX
8
PARCELLE
10
20.000
20
38.069
0
VERTEX
8
PARCELLE
10
20.865
20
38.813
0
VERTEX
8
PARCELLE
10
29.119
20
44.327
0
VERTEX
8
PARCELLE
10
33.637
20
47.226
0
VERTEX
8
PARCELLE
10
37.230
20
49.421
0
VERTEX
8
PARCELLE
10
39.709
20
50.784
0
VERTEX
8
PARCELLE
10
41.781
20
51.201
0
VERTEX
8
PARCELLE
10
48.193
20
51.641
0
VERTEX
8
PARCELLE
10
50.566
20
52.236
0
VERTEX
8
PARCELLE
10
55.271
20
54.554
0
VERTEX
8
PARCELLE
10
58.933
20
56.529
0
VERTEX
8
PARCELLE
10
60.863
20
57.986
0
VERTEX
8
PARCELLE
10
62.271
20
59.306
0
VERTEX
8
PARCELLE
10
63.536
20
61.906
0
VERTEX
8
PARCELLE
10
64.744
20
64.686
0
VERTEX
8
PARCELLE
10
65.533
20
66.119
0
VERTEX
8
PARCELLE
10
66.489
20
67.153
0
VERTEX
8
PARCELLE
10
70.145
20
69.807
0
VERTEX
8
PARCELLE
10
76.126
20
74.806
0
VERTEX
8
PARCELLE
10
76.247
20
74.904
0
VERTEX
8
PARCELLE
10
82.525
20
81.070
0
VERTEX
8
PARCELLE
10
84.025
20
82.609
0
VERTEX
8
PARCELLE
10
88.192
20
88.648
0
VERTEX
8
PARCELLE
10
90.149
20
91.313
0
VERTEX
8
PARCELLE
10
91.696
20
92.613
0
VERTEX
8
PARCELLE
10
92.772
20
93.374
0
VERTEX
8
PARCELLE
10
102.200
20
97.982
0
VERTEX
8
PARCELLE
10
103.273
20
95.367
0
VERTEX
8
PARCELLE
10
115.305
20
65.369
0
VERTEX
8
PARCELLE
10
115.867
20
64.017
0
VERTEX
8
PARCELLE
10
115.816
20
63.987
0
VERTEX
8
PARCELLE
10
101.194
20
55.586
0
VERTEX
8
PARCELLE
10
100.663
20
55.280
0
VERTEX
8
PARCELLE
10
98.465
20
54.044
0
VERTEX
8
PARCELLE
10
96.368
20
52.868
0
VERTEX
8
PARCELLE
10
94.120
20
51.603
0
VERTEX
8
PARCELLE
10
93.006
20
51.041
0
VERTEX
8
PARCELLE
10
89.736
20
49.373
0
VERTEX
8
PARCELLE
10
88.352
20
48.672
0
VERTEX
8
PARCELLE
10
68.520
20
38.605
0
VERTEX
8
PARCELLE
10
63.345
20
36.070
0
SEQEND
0
TEXT
8
POINTS_COTES
10
0.000
20
0.004
40
1.0
1
408.9
0
TEXT
8
POINTS_COTES
10
0.000
20
5.996
40
1.0
1
408.7
0
TEXT
8
POINTS_COTES
10
0.000
20
11.998
40
1.0
1
407.8
0
TEXT
8
POINTS_COTES
10
0.000
20
18.000
40
1.0
1
407.1
0
TEXT
8
POINTS_COTES
10
0.000
20
24.003
40
1.0
1
406.8
0
TEXT
8
POINTS_COTES
10
0.000
20
30.005
40
1.0
1
406.8
0
TEXT
8
POINTS_COTES
10
0.000
20
35.996
40
1.0
1
408.1
0
TEXT
8
POINTS_COTES
10
0.000
20
41.999
40
1.0
1
409.1
0
TEXT
8
POINTS_COTES
10
0.000
20
48.001
40
1.0
1
410.0
0
TEXT
8
POINTS_COTES
10
0.000
20
54.003
40
1.0
1
410.3
0
TEXT
8
POINTS_COTES
10
0.000
20
59.994
40
1.0
1
411.4
0
TEXT
8
POINTS_COTES
10
0.000
20
65.997
40
1.0
1
412.0
0
TEXT
8
POINTS_COTES
10
0.000
20
71.999
40
1.0
1
412.3
0
TEXT
8
POINTS_COTES
10
0.000
20
78.001
40
1.0
1
412.8
0
TEXT
8
POINTS_COTES
10
0.000
20
84.004
40
1.0
1
413.6
0
TEXT
8
POINTS_COTES
10
0.000
20
89.995
40
1.0
1
414.1
0
TEXT
8
POINTS_COTES
10
0.000
20
95.997
40
1.0
1
414.4
0
TEXT
8
POINTS_COTES
10
0.000
20
102.000
40
1.0
1
415.6
0
TEXT
8
POINTS_COTES
10
0.000
20
108.002
40
1.0
1
416.4
0
TEXT
8
POINTS_COTES
10
0.000
20
114.004
40
1.0
1
416.6
0
ENDSEC
0
EOF
