0
SECTION
2
HEADER
0
ENDSEC
0
SECTION
2
TABLES
0
TABLE
2
LAYER
70
4
0
LAYER
2
CONTOURS_MINEURES
70
0
62
8
6
CONTINUOUS
0
LAYER
2
CONTOURS_MAJEURES
70
0
62
3
6
CONTINUOUS
0
LAYER
2
PARCELLE
70
0
62
4
6
CONTINUOUS
0
LAYER
2
POINTS_COTES
70
0
62
7
6
CONTINUOUS
0
ENDTAB
0
ENDSEC
0
SECTION
2
ENTITIES
0
POLYLINE
8
CONTOURS_MINEURES
66
1
70
0
0
VERTEX
8
CONTOURS_MINEURES
10
1.387
20
0.002
0
VERTEX
8
CONTOURS_MINEURES
10
1.387
20
0.616
0
VERTEX
8
CONTOURS_MINEURES
10
1.387
20
2.003
0
VERTEX
8
CONTOURS_MINEURES
10
2.001
20
3.889
0
VERTEX
8
CONTOURS_MINEURES
10
3.888
20
3.889
0
VERTEX
8
CONTOURS_MINEURES
10
4.003
20
3.889
0
VERTEX
8
CONTOURS_MINEURES
10
4.118
20
3.889
0
VERTEX
8
CONTOURS_MINEURES
10
6.005
20
3.889
0
VERTEX
8
CONTOURS_MINEURES
10
6.095
20
3.913
0
VERTEX
8
CONTOURS_MINEURES
10
6.245
20
4.004
0
VERTEX
8
CONTOURS_MINEURES
10
6.245
20
4.245
0
VERTEX
8
CONTOURS_MINEURES
10
6.245
20
6.005
0
VERTEX
8
CONTOURS_MINEURES
10
7.739
20
6.262
0
VERTEX
8
CONTOURS_MINEURES
10
7.996
20
6.327
0
VERTEX
8
CONTOURS_MINEURES
10
8.319
20
6.327
0
VERTEX
8
CONTOURS_MINEURES
10
9.998
20
6.327
0
VERTEX
8
CONTOURS_MINEURES
10
10.274
20
6.280
0
VERTEX
8
CONTOURS_MINEURES
10
11.854
20
6.005
0
VERTEX
8
CONTOURS_MINEURES
10
11.854
20
4.149
0
VERTEX
8
CONTOURS_MINEURES
10
11.854
20
4.004
0
VERTEX
8
CONTOURS_MINEURES
10
11.999
20
3.911
0
VERTEX
8
CONTOURS_MINEURES
10
13.908
20
3.911
0
VERTEX
8
CONTOURS_MINEURES
10
14.001
20
3.911
0
VERTEX
8
CONTOURS_MINEURES
10
14.541
20
2.543
0
VERTEX
8
CONTOURS_MINEURES
10
15.095
20
2.003
0
VERTEX
8
CONTOURS_MINEURES
10
15.095
20
1.096
0
VERTEX
8
CONTOURS_MINEURES
10
15.095
20
0.002
0
SEQEND
0
POLYLINE
8
CONTOURS_MINEURES
66
1
70
0
0
VERTEX
8
CONTOURS_MINEURES
10
-0.000
20
6.406
0
VERTEX
8
CONTOURS_MINEURES
10
0.482
20
6.486
0
VERTEX
8
CONTOURS_MINEURES
10
2.001
20
7.147
0
VERTEX
8
CONTOURS_MINEURES
10
2.860
20
7.147
0
VERTEX
8
CONTOURS_MINEURES
10
4.003
20
7.147
0
VERTEX
8
CONTOURS_MINEURES
10
4.862
20
7.147
0
VERTEX
8
CONTOURS_MINEURES
10
6.005
20
7.147
0
VERTEX
8
CONTOURS_MINEURES
10
6.734
20
7.273
0
VERTEX
8
CONTOURS_MINEURES
10
7.996
20
7.594
0
VERTEX
8
CONTOURS_MINEURES
10
9.586
20
7.594
0
VERTEX
8
CONTOURS_MINEURES
10
9.998
20
7.594
0
VERTEX
8
CONTOURS_MINEURES
10
11.356
20
7.362
0
VERTEX
8
CONTOURS_MINEURES
10
11.999
20
7.249
0
VERTEX
8
CONTOURS_MINEURES
10
13.245
20
7.249
0
VERTEX
8
CONTOURS_MINEURES
10
14.001
20
7.249
0
VERTEX
8
CONTOURS_MINEURES
10
14.854
20
6.857
0
VERTEX
8
CONTOURS_MINEURES
10
15.801
20
6.005
0
VERTEX
8
CONTOURS_MINEURES
10
15.801
20
4.206
0
VERTEX
8
CONTOURS_MINEURES
10
15.801
20
4.004
0
VERTEX
8
CONTOURS_MINEURES
10
15.858
20
3.859
0
VERTEX
8
CONTOURS_MINEURES
10
16.003
20
3.718
0
VERTEX
8
CONTOURS_MINEURES
10
16.289
20
3.718
0
VERTEX
8
CONTOURS_MINEURES
10
18.005
20
3.718
0
VERTEX
8
CONTOURS_MINEURES
10
18.289
20
3.718
0
VERTEX
8
CONTOURS_MINEURES
10
19.996
20
3.718
0
VERTEX
8
CONTOURS_MINEURES
10
20.840
20
2.847
0
VERTEX
8
CONTOURS_MINEURES
10
21.746
20
2.003
0
VERTEX
8
CONTOURS_MINEURES
10
21.746
20
0.254
0
VERTEX
8
CONTOURS_MINEURES
10
21.746
20
0.002
0
SEQEND
0
POLYLINE
8
CONTOURS_MINEURES
66
1
70
0
0
VERTEX
8
CONTOURS_MINEURES
10
0.320
20
0.002
0
VERTEX
8
CONTOURS_MINEURES
10
0.320
20
1.683
0
VERTEX
8
CONTOURS_MINEURES
10
0.320
20
2.003
0
VERTEX
8
CONTOURS_MINEURES
10
0.474
20
2.477
0
VERTEX
8
CONTOURS_MINEURES
10
-0.000
20
3.135
0
SEQEND
0
POLYLINE
8
CONTOURS_MINEURES
66
1
70
0
0
VERTEX
8
CONTOURS_MINEURES
10
-0.000
20
12.082
0
VERTEX
8
CONTOURS_MINEURES
10
0.080
20
12.076
0
VERTEX
8
CONTOURS_MINEURES
10
2.001
20
12.233
0
VERTEX
8
CONTOURS_MINEURES
10
2.239
20
12.233
0
VERTEX
8
CONTOURS_MINEURES
10
4.003
20
12.233
0
VERTEX
8
CONTOURS_MINEURES
10
4.241
20
12.233
0
VERTEX
8
CONTOURS_MINEURES
10
6.005
20
12.233
0
VERTEX
8
CONTOURS_MINEURES
10
7.501
20
12.493
0
VERTEX
8
CONTOURS_MINEURES
10
7.996
20
12.707
0
VERTEX
8
CONTOURS_MINEURES
10
8.707
20
12.707
0
VERTEX
8
CONTOURS_MINEURES
10
9.998
20
12.707
0
VERTEX
8
CONTOURS_MINEURES
10
10.698
20
12.696
0
VERTEX
8
CONTOURS_MINEURES
10
11.999
20
12.484
0
VERTEX
8
CONTOURS_MINEURES
10
13.513
20
12.484
0
VERTEX
8
CONTOURS_MINEURES
10
14.001
20
12.484
0
VERTEX
8
CONTOURS_MINEURES
10
14.426
20
12.420
0
VERTEX
8
CONTOURS_MINEURES
10
15.119
20
11.996
0
VERTEX
8
CONTOURS_MINEURES
10
15.119
20
10.878
0
VERTEX
8
CONTOURS_MINEURES
10
15.119
20
9.995
0
VERTEX
8
CONTOURS_MINEURES
10
15.119
20
8.884
0
VERTEX
8
CONTOURS_MINEURES
10
15.119
20
8.005
0
VERTEX
8
CONTOURS_MINEURES
10
15.724
20
7.727
0
VERTEX
8
CONTOURS_MINEURES
10
16.003
20
7.476
0
VERTEX
8
CONTOURS_MINEURES
10
16.532
20
7.476
0
VERTEX
8
CONTOURS_MINEURES
10
18.005
20
7.476
0
VERTEX
8
CONTOURS_MINEURES
10
18.531
20
7.476
0
VERTEX
8
CONTOURS_MINEURES
10
19.996
20
7.476
0
VERTEX
8
CONTOURS_MINEURES
10
21.072
20
7.080
0
VERTEX
8
CONTOURS_MINEURES
10
21.997
20
6.226
0
VERTEX
8
CONTOURS_MINEURES
10
23.778
20
6.226
0
VERTEX
8
CONTOURS_MINEURES
10
23.999
20
6.226
0
VERTEX
8
CONTOURS_MINEURES
10
24.336
20
6.005
0
VERTEX
8
CONTOURS_MINEURES
10
24.336
20
5.668
0
VERTEX
8
CONTOURS_MINEURES
10
24.336
20
4.004
0
VERTEX
8
CONTOURS_MINEURES
10
25.317
20
3.320
0
VERTEX
8
CONTOURS_MINEURES
10
26.001
20
2.750
0
VERTEX
8
CONTOURS_MINEURES
10
27.255
20
2.750
0
VERTEX
8
CONTOURS_MINEURES
10
28.003
20
2.750
0
VERTEX
8
CONTOURS_MINEURES
10
29.903
20
2.104
0
VERTEX
8
CONTOURS_MINEURES
10
30.005
20
2.063
0
VERTEX
8
CONTOURS_MINEURES
10
31.936
20
2.063
0
VERTEX
8
CONTOURS_MINEURES
10
31.996
20
2.063
0
VERTEX
8
CONTOURS_MINEURES
10
33.937
20
2.063
0
VERTEX
8
CONTOURS_MINEURES
10
33.997
20
2.063
0
VERTEX
8
CONTOURS_MINEURES
10
34.038
20
2.043
0
VERTEX
8
CONTOURS_MINEURES
10
34.126
20
2.003
0
VERTEX
8
CONTOURS_MINEURES
10
34.126
20
1.875
0
VERTEX
8
CONTOURS_MINEURES
10
34.126
20
0.002
0
SEQEND
0
POLYLINE
8
CONTOURS_MINEURES
66
1
70
0
0
VERTEX
8
CONTOURS_MINEURES
10
-0.000
20
13.092
0
VERTEX
8
CONTOURS_MINEURES
10
1.022
20
13.017
0
VERTEX
8
CONTOURS_MINEURES
10
2.001
20
13.098
0
VERTEX
8
CONTOURS_MINEURES
10
3.104
20
13.098
0
VERTEX
8
CONTOURS_MINEURES
10
4.003
20
13.098
0
VERTEX
8
CONTOURS_MINEURES
10
5.106
20
13.098
0
VERTEX
8
CONTOURS_MINEURES
10
6.005
20
13.098
0
VERTEX
8
CONTOURS_MINEURES
10
6.767
20
13.230
0
VERTEX
8
CONTOURS_MINEURES
10
7.996
20
13.760
0
VERTEX
8
CONTOURS_MINEURES
10
9.761
20
13.760
0
VERTEX
8
CONTOURS_MINEURES
10
9.998
20
13.760
0
VERTEX
8
CONTOURS_MINEURES
10
11.735
20
13.732
0
VERTEX
8
CONTOURS_MINEURES
10
11.999
20
13.689
0
VERTEX
8
CONTOURS_MINEURES
10
12.307
20
13.689
0
VERTEX
8
CONTOURS_MINEURES
10
14.001
20
13.689
0
VERTEX
8
CONTOURS_MINEURES
10
15.474
20
13.468
0
VERTEX
8
CONTOURS_MINEURES
10
16.003
20
13.144
0
VERTEX
8
CONTOURS_MINEURES
10
17.152
20
13.144
0
VERTEX
8
CONTOURS_MINEURES
10
18.005
20
13.144
0
VERTEX
8
CONTOURS_MINEURES
10
18.853
20
13.144
0
VERTEX
8
CONTOURS_MINEURES
10
19.996
20
13.144
0
VERTEX
8
CONTOURS_MINEURES
10
21.362
20
12.631
0
VERTEX
8
CONTOURS_MINEURES
10
21.997
20
12.405
0
VERTEX
8
CONTOURS_MINEURES
10
23.590
20
12.405
0
VERTEX
8
CONTOURS_MINEURES
10
23.999
20
12.405
0
VERTEX
8
CONTOURS_MINEURES
10
24.277
20
12.273
0
VERTEX
8
CONTOURS_MINEURES
10
24.904
20
11.996
0
VERTEX
8
CONTOURS_MINEURES
10
24.904
20
10.899
0
VERTEX
8
CONTOURS_MINEURES
10
24.904
20
9.995
0
VERTEX
8
CONTOURS_MINEURES
10
24.904
20
9.096
0
VERTEX
8
CONTOURS_MINEURES
10
24.904
20
8.005
0
VERTEX
8
CONTOURS_MINEURES
10
26.001
20
7.306
0
VERTEX
8
CONTOURS_MINEURES
10
26.701
20
7.306
0
VERTEX
8
CONTOURS_MINEURES
10
28.003
20
7.306
0
VERTEX
8
CONTOURS_MINEURES
10
28.865
20
6.867
0
VERTEX
8
CONTOURS_MINEURES
10
30.005
20
6.432
0
VERTEX
8
CONTOURS_MINEURES
10
31.571
20
6.432
0
VERTEX
8
CONTOURS_MINEURES
10
31.996
20
6.432
0
VERTEX
8
CONTOURS_MINEURES
10
32.423
20
6.432
0
VERTEX
8
CONTOURS_MINEURES
10
33.997
20
6.432
0
VERTEX
8
CONTOURS_MINEURES
10
34.925
20
6.005
0
VERTEX
8
CONTOURS_MINEURES
10
34.925
20
5.077
0
VERTEX
8
CONTOURS_MINEURES
10
34.925
20
4.004
0
VERTEX
8
CONTOURS_MINEURES
10
35.645
20
3.650
0
VERTEX
8
CONTOURS_MINEURES
10
35.999
20
3.489
0
VERTEX
8
CONTOURS_MINEURES
10
37.486
20
3.489
0
VERTEX
8
CONTOURS_MINEURES
10
38.001
20
3.489
0
VERTEX
8
CONTOURS_MINEURES
10
39.018
20
3.019
0
VERTEX
8
CONTOURS_MINEURES
10
40.003
20
2.385
0
VERTEX
8
CONTOURS_MINEURES
10
41.622
20
2.385
0
VERTEX
8
CONTOURS_MINEURES
10
42.004
20
2.385
0
VERTEX
8
CONTOURS_MINEURES
10
43.137
20
2.003
0
VERTEX
8
CONTOURS_MINEURES
10
43.137
20
1.140
0
VERTEX
8
CONTOURS_MINEURES
10
43.137
20
0.002
0
SEQEND
0
POLYLINE
8
CONTOURS_MINEURES
66
1
70
0
0
VERTEX
8
CONTOURS_MINEURES
10
47.516
20
0.002
0
VERTEX
8
CONTOURS_MINEURES
10
47.516
20
1.520
0
VERTEX
8
CONTOURS_MINEURES
10
47.516
20
2.003
0
VERTEX
8
CONTOURS_MINEURES
10
47.903
20
2.099
0
VERTEX
8
CONTOURS_MINEURES
10
47.999
20
2.135
0
VERTEX
8
CONTOURS_MINEURES
10
48.131
20
2.135
0
VERTEX
8
CONTOURS_MINEURES
10
50.001
20
2.135
0
VERTEX
8
CONTOURS_MINEURES
10
50.133
20
2.135
0
VERTEX
8
CONTOURS_MINEURES
10
52.002
20
2.135
0
VERTEX
8
CONTOURS_MINEURES
10
52.187
20
2.187
0
VERTEX
8
CONTOURS_MINEURES
10
54.004
20
2.942
0
VERTEX
8
CONTOURS_MINEURES
10
54.939
20
2.942
0
VERTEX
8
CONTOURS_MINEURES
10
55.995
20
2.942
0
VERTEX
8
CONTOURS_MINEURES
10
56.929
20
3.071
0
VERTEX
8
CONTOURS_MINEURES
10
57.997
20
2.749
0
VERTEX
8
CONTOURS_MINEURES
10
59.253
20
2.749
0
VERTEX
8
CONTOURS_MINEURES
10
59.999
20
2.749
0
VERTEX
8
CONTOURS_MINEURES
10
61.728
20
2.276
0
VERTEX
8
CONTOURS_MINEURES
10
62.001
20
2.140
0
VERTEX
8
CONTOURS_MINEURES
10
62.138
20
2.140
0
VERTEX
8
CONTOURS_MINEURES
10
64.002
20
2.140
0
VERTEX
8
CONTOURS_MINEURES
10
64.139
20
2.140
0
VERTEX
8
CONTOURS_MINEURES
10
66.004
20
2.140
0
VERTEX
8
CONTOURS_MINEURES
10
66.431
20
2.003
0
VERTEX
8
CONTOURS_MINEURES
10
66.431
20
0.431
0
VERTEX
8
CONTOURS_MINEURES
10
66.431
20
0.002
0
SEQEND
0
POLYLINE
8
CONTOURS_MINEURES
66
1
70
0
0
VERTEX
8
CONTOURS_MINEURES
10
-0.000
20
16.172
0
VERTEX
8
CONTOURS_MINEURES
10
1.449
20
15.997
0
VERTEX
8
CONTOURS_MINEURES
10
1.449
20
15.445
0
VERTEX
8
CONTOURS_MINEURES
10
1.449
20
13.997
0
VERTEX
8
CONTOURS_MINEURES
10
1.964
20
13.959
0
VERTEX
8
CONTOURS_MINEURES
10
2.001
20
13.962
0
VERTEX
8
CONTOURS_MINEURES
10
3.968
20
13.962
0
VERTEX
8
CONTOURS_MINEURES
10
4.003
20
13.962
0
VERTEX
8
CONTOURS_MINEURES
10
5.970
20
13.962
0
VERTEX
8
CONTOURS_MINEURES
10
6.005
20
13.962
0
VERTEX
8
CONTOURS_MINEURES
10
6.034
20
13.967
0
VERTEX
8
CONTOURS_MINEURES
10
6.103
20
13.997
0
VERTEX
8
CONTOURS_MINEURES
10
6.103
20
14.095
0
VERTEX
8
CONTOURS_MINEURES
10
6.103
20
15.997
0
VERTEX
8
CONTOURS_MINEURES
10
7.996
20
16.849
0
VERTEX
8
CONTOURS_MINEURES
10
8.848
20
16.849
0
VERTEX
8
CONTOURS_MINEURES
10
9.998
20
16.849
0
VERTEX
8
CONTOURS_MINEURES
10
10.910
20
16.909
0
VERTEX
8
CONTOURS_MINEURES
10
11.999
20
16.890
0
VERTEX
8
CONTOURS_MINEURES
10
13.108
20
16.890
0
VERTEX
8
CONTOURS_MINEURES
10
14.001
20
16.890
0
VERTEX
8
CONTOURS_MINEURES
10
14.846
20
16.842
0
VERTEX
8
CONTOURS_MINEURES
10
16.003
20
16.651
0
VERTEX
8
CONTOURS_MINEURES
10
17.351
20
16.651
0
VERTEX
8
CONTOURS_MINEURES
10
18.005
20
16.651
0
VERTEX
8
CONTOURS_MINEURES
10
18.655
20
16.651
0
VERTEX
8
CONTOURS_MINEURES
10
19.996
20
16.651
0
VERTEX
8
CONTOURS_MINEURES
10
21.843
20
16.151
0
VERTEX
8
CONTOURS_MINEURES
10
21.997
20
16.099
0
VERTEX
8
CONTOURS_MINEURES
10
22.100
20
16.099
0
VERTEX
8
CONTOURS_MINEURES
10
23.999
20
16.099
0
VERTEX
8
CONTOURS_MINEURES
10
24.311
20
15.997
0
VERTEX
8
CONTOURS_MINEURES
10
24.311
20
15.685
0
VERTEX
8
CONTOURS_MINEURES
10
24.311
20
13.997
0
VERTEX
8
CONTOURS_MINEURES
10
25.458
20
13.454
0
VERTEX
8
CONTOURS_MINEURES
10
26.001
20
13.213
0
VERTEX
8
CONTOURS_MINEURES
10
26.785
20
13.213
0
VERTEX
8
CONTOURS_MINEURES
10
28.003
20
13.213
0
VERTEX
8
CONTOURS_MINEURES
10
28.900
20
12.893
0
VERTEX
8
CONTOURS_MINEURES
10
30.005
20
12.504
0
VERTEX
8
CONTOURS_MINEURES
10
31.489
20
12.504
0
VERTEX
8
CONTOURS_MINEURES
10
31.996
20
12.504
0
VERTEX
8
CONTOURS_MINEURES
10
32.504
20
12.504
0
VERTEX
8
CONTOURS_MINEURES
10
33.997
20
12.504
0
VERTEX
8
CONTOURS_MINEURES
10
35.378
20
11.996
0
VERTEX
8
CONTOURS_MINEURES
10
35.378
20
11.375
0
VERTEX
8
CONTOURS_MINEURES
10
35.378
20
9.995
0
VERTEX
8
CONTOURS_MINEURES
10
35.378
20
8.623
0
VERTEX
8
CONTOURS_MINEURES
10
35.378
20
8.005
0
VERTEX
8
CONTOURS_MINEURES
10
35.999
20
7.710
0
VERTEX
8
CONTOURS_MINEURES
10
37.706
20
7.710
0
VERTEX
8
CONTOURS_MINEURES
10
38.001
20
7.710
0
VERTEX
8
CONTOURS_MINEURES
10
38.521
20
7.486
0
VERTEX
8
CONTOURS_MINEURES
10
40.003
20
7.172
0
VERTEX
8
CONTOURS_MINEURES
10
41.170
20
7.172
0
VERTEX
8
CONTOURS_MINEURES
10
42.004
20
7.172
0
VERTEX
8
CONTOURS_MINEURES
10
43.437
20
7.444
0
VERTEX
8
CONTOURS_MINEURES
10
43.995
20
7.346
0
VERTEX
8
CONTOURS_MINEURES
10
44.655
20
7.346
0
VERTEX
8
CONTOURS_MINEURES
10
45.997
20
7.346
0
VERTEX
8
CONTOURS_MINEURES
10
47.324
20
7.331
0
VERTEX
8
CONTOURS_MINEURES
10
47.999
20
7.535
0
VERTEX
8
CONTOURS_MINEURES
10
48.469
20
7.535
0
VERTEX
8
CONTOURS_MINEURES
10
50.001
20
7.535
0
VERTEX
8
CONTOURS_MINEURES
10
51.532
20
7.535
0
VERTEX
8
CONTOURS_MINEURES
10
52.002
20
7.535
0
VERTEX
8
CONTOURS_MINEURES
10
52.386
20
7.622
0
VERTEX
8
CONTOURS_MINEURES
10
54.004
20
7.315
0
VERTEX
8
CONTOURS_MINEURES
10
55.308
20
7.315
0
VERTEX
8
CONTOURS_MINEURES
10
55.995
20
7.315
0
VERTEX
8
CONTOURS_MINEURES
10
57.011
20
6.990
0
VERTEX
8
CONTOURS_MINEURES
10
57.997
20
6.473
0
VERTEX
8
CONTOURS_MINEURES
10
59.530
20
6.473
0
VERTEX
8
CONTOURS_MINEURES
10
59.999
20
6.473
0
VERTEX
8
CONTOURS_MINEURES
10
60.875
20
6.005
0
VERTEX
8
CONTOURS_MINEURES
10
60.875
20
4.880
0
VERTEX
8
CONTOURS_MINEURES
10
60.875
20
4.004
0
VERTEX
8
CONTOURS_MINEURES
10
62.001
20
3.443
0
VERTEX
8
CONTOURS_MINEURES
10
63.442
20
3.443
0
VERTEX
8
CONTOURS_MINEURES
10
64.002
20
3.443
0
VERTEX
8
CONTOURS_MINEURES
10
65.443
20
3.443
0
VERTEX
8
CONTOURS_MINEURES
10
66.004
20
3.443
0
VERTEX
8
CONTOURS_MINEURES
10
66.823
20
3.180
0
VERTEX
8
CONTOURS_MINEURES
10
67.995
20
2.779
0
SEQEND
0
POLYLINE
8
CONTOURS_MINEURES
66
1
70
0
0
VERTEX
8
CONTOURS_MINEURES
10
-0.000
20
17.832
0
VERTEX
8
CONTOURS_MINEURES
10
0.188
20
17.809
0
VERTEX
8
CONTOURS_MINEURES
10
2.001
20
17.114
0
VERTEX
8
CONTOURS_MINEURES
10
3.119
20
17.114
0
VERTEX
8
CONTOURS_MINEURES
10
4.003
20
17.114
0
VERTEX
8
CONTOURS_MINEURES
10
4.888
20
17.114
0
VERTEX
8
CONTOURS_MINEURES
10
6.005
20
17.114
0
VERTEX
8
CONTOURS_MINEURES
10
7.907
20
17.909
0
VERTEX
8
CONTOURS_MINEURES
10
7.996
20
17.949
0
VERTEX
8
CONTOURS_MINEURES
10
9.948
20
17.949
0
VERTEX
8
CONTOURS_MINEURES
10
9.998
20
17.949
0
VERTEX
8
CONTOURS_MINEURES
10
10.748
20
17.998
0
VERTEX
8
CONTOURS_MINEURES
10
10.748
20
18.748
0
VERTEX
8
CONTOURS_MINEURES
10
10.748
20
19.999
0
VERTEX
8
CONTOURS_MINEURES
10
11.916
20
20.082
0
VERTEX
8
CONTOURS_MINEURES
10
11.999
20
20.070
0
VERTEX
8
CONTOURS_MINEURES
10
12.070
20
20.070
0
VERTEX
8
CONTOURS_MINEURES
10
14.001
20
20.070
0
VERTEX
8
CONTOURS_MINEURES
10
14.070
20
20.068
0
VERTEX
8
CONTOURS_MINEURES
10
15.581
20
19.999
0
VERTEX
8
CONTOURS_MINEURES
10
15.581
20
18.419
0
VERTEX
8
CONTOURS_MINEURES
10
15.581
20
17.998
0
VERTEX
8
CONTOURS_MINEURES
10
15.980
20
17.975
0
VERTEX
8
CONTOURS_MINEURES
10
16.003
20
17.972
0
VERTEX
8
CONTOURS_MINEURES
10
16.029
20
17.972
0
VERTEX
8
CONTOURS_MINEURES
10
18.005
20
17.972
0
VERTEX
8
CONTOURS_MINEURES
10
19.969
20
17.972
0
VERTEX
8
CONTOURS_MINEURES
10
19.996
20
17.972
0
VERTEX
8
CONTOURS_MINEURES
10
20.032
20
17.962
0
VERTEX
8
CONTOURS_MINEURES
10
21.997
20
17.301
0
VERTEX
8
CONTOURS_MINEURES
10
23.302
20
17.301
0
VERTEX
8
CONTOURS_MINEURES
10
23.999
20
17.301
0
VERTEX
8
CONTOURS_MINEURES
10
25.036
20
16.962
0
VERTEX
8
CONTOURS_MINEURES
10
26.001
20
16.652
0
VERTEX
8
CONTOURS_MINEURES
10
26.656
20
16.652
0
VERTEX
8
CONTOURS_MINEURES
10
28.003
20
16.652
0
VERTEX
8
CONTOURS_MINEURES
10
29.809
20
16.193
0
VERTEX
8
CONTOURS_MINEURES
10
30.005
20
16.180
0
VERTEX
8
CONTOURS_MINEURES
10
30.186
20
16.180
0
VERTEX
8
CONTOURS_MINEURES
10
31.996
20
16.180
0
VERTEX
8
CONTOURS_MINEURES
10
32.178
20
16.180
0
VERTEX
8
CONTOURS_MINEURES
10
33.997
20
16.180
0
VERTEX
8
CONTOURS_MINEURES
10
35.141
20
15.997
0
VERTEX
8
CONTOURS_MINEURES
10
35.141
20
15.140
0
VERTEX
8
CONTOURS_MINEURES
10
35.141
20
13.997
0
VERTEX
8
CONTOURS_MINEURES
10
35.999
20
13.808
0
VERTEX
8
CONTOURS_MINEURES
10
36.188
20
13.808
0
VERTEX
8
CONTOURS_MINEURES
10
38.001
20
13.808
0
VERTEX
8
CONTOURS_MINEURES
10
38.820
20
13.997
0
VERTEX
8
CONTOURS_MINEURES
10
38.820
20
15.179
0
VERTEX
8
CONTOURS_MINEURES
10
38.820
20
15.997
0
VERTEX
8
CONTOURS_MINEURES
10
39.764
20
16.236
0
VERTEX
8
CONTOURS_MINEURES
10
40.003
20
16.276
0
VERTEX
8
CONTOURS_MINEURES
10
40.281
20
16.276
0
VERTEX
8
CONTOURS_MINEURES
10
42.004
20
16.276
0
VERTEX
8
CONTOURS_MINEURES
10
43.583
20
16.411
0
VERTEX
8
CONTOURS_MINEURES
10
43.995
20
16.343
0
VERTEX
8
CONTOURS_MINEURES
10
44.341
20
16.343
0
VERTEX
8
CONTOURS_MINEURES
10
45.997
20
16.343
0
VERTEX
8
CONTOURS_MINEURES
10
46.255
20
16.255
0
VERTEX
8
CONTOURS_MINEURES
10
47.786
20
15.997
0
VERTEX
8
CONTOURS_MINEURES
10
47.786
20
14.209
0
VERTEX
8
CONTOURS_MINEURES
10
47.786
20
13.997
0
VERTEX
8
CONTOURS_MINEURES
10
47.942
20
13.939
0
VERTEX
8
CONTOURS_MINEURES
10
47.999
20
13.939
0
VERTEX
8
CONTOURS_MINEURES
10
48.056
20
13.939
0
VERTEX
8
CONTOURS_MINEURES
10
50.001
20
13.939
0
VERTEX
8
CONTOURS_MINEURES
10
51.945
20
13.939
0
VERTEX
8
CONTOURS_MINEURES
10
52.002
20
13.939
0
VERTEX
8
CONTOURS_MINEURES
10
53.356
20
13.348
0
VERTEX
8
CONTOURS_MINEURES
10
54.004
20
13.232
0
VERTEX
8
CONTOURS_MINEURES
10
54.765
20
13.232
0
VERTEX
8
CONTOURS_MINEURES
10
55.995
20
13.232
0
VERTEX
8
CONTOURS_MINEURES
10
57.743
20
11.996
0
VERTEX
8
CONTOURS_MINEURES
10
57.743
20
11.742
0
VERTEX
8
CONTOURS_MINEURES
10
57.743
20
9.995
0
VERTEX
8
CONTOURS_MINEURES
10
57.743
20
9.743
0
VERTEX
8
CONTOURS_MINEURES
10
57.743
20
8.005
0
VERTEX
8
CONTOURS_MINEURES
10
57.997
20
7.872
0
VERTEX
8
CONTOURS_MINEURES
10
58.130
20
7.872
0
VERTEX
8
CONTOURS_MINEURES
10
59.999
20
7.872
0
VERTEX
8
CONTOURS_MINEURES
10
60.285
20
7.719
0
VERTEX
8
CONTOURS_MINEURES
10
62.001
20
6.726
0
VERTEX
8
CONTOURS_MINEURES
10
62.723
20
6.726
0
VERTEX
8
CONTOURS_MINEURES
10
64.002
20
6.726
0
VERTEX
8
CONTOURS_MINEURES
10
65.282
20
6.726
0
VERTEX
8
CONTOURS_MINEURES
10
66.004
20
6.726
0
VERTEX
8
CONTOURS_MINEURES
10
67.938
20
6.062
0
VERTEX
8
CONTOURS_MINEURES
10
67.995
20
6.049
0
SEQEND
0
POLYLINE
8
CONTOURS_MINEURES
66
1
70
0
0
VERTEX
8
CONTOURS_MINEURES
10
-0.000
20
30.823
0
VERTEX
8
CONTOURS_MINEURES
10
0.323
20
30.003
0
VERTEX
8
CONTOURS_MINEURES
10
0.323
20
28.325
0
VERTEX
8
CONTOURS_MINEURES
10
0.323
20
28.002
0
VERTEX
8
CONTOURS_MINEURES
10
0.582
20
27.420
0
VERTEX
8
CONTOURS_MINEURES
10
0.931
20
26.001
0
VERTEX
8
CONTOURS_MINEURES
10
0.931
20
24.931
0
VERTEX
8
CONTOURS_MINEURES
10
0.931
20
24.000
0
VERTEX
8
CONTOURS_MINEURES
10
0.931
20
23.070
0
VERTEX
8
CONTOURS_MINEURES
10
0.931
20
22.000
0
VERTEX
8
CONTOURS_MINEURES
10
2.001
20
20.648
0
VERTEX
8
CONTOURS_MINEURES
10
3.354
20
20.648
0
VERTEX
8
CONTOURS_MINEURES
10
4.003
20
20.648
0
VERTEX
8
CONTOURS_MINEURES
10
4.652
20
20.648
0
VERTEX
8
CONTOURS_MINEURES
10
6.005
20
20.648
0
VERTEX
8
CONTOURS_MINEURES
10
6.497
20
20.494
0
VERTEX
8
CONTOURS_MINEURES
10
7.996
20
21.133
0
VERTEX
8
CONTOURS_MINEURES
10
8.863
20
21.133
0
VERTEX
8
CONTOURS_MINEURES
10
9.998
20
21.133
0
VERTEX
8
CONTOURS_MINEURES
10
10.807
20
21.190
0
VERTEX
8
CONTOURS_MINEURES
10
11.999
20
21.011
0
VERTEX
8
CONTOURS_MINEURES
10
13.012
20
21.011
0
VERTEX
8
CONTOURS_MINEURES
10
14.001
20
21.011
0
VERTEX
8
CONTOURS_MINEURES
10
14.993
20
20.990
0
VERTEX
8
CONTOURS_MINEURES
10
16.003
20
20.944
0
VERTEX
8
CONTOURS_MINEURES
10
17.059
20
20.944
0
VERTEX
8
CONTOURS_MINEURES
10
18.005
20
20.944
0
VERTEX
8
CONTOURS_MINEURES
10
19.055
20
20.944
0
VERTEX
8
CONTOURS_MINEURES
10
19.996
20
20.944
0
VERTEX
8
CONTOURS_MINEURES
10
21.443
20
20.554
0
VERTEX
8
CONTOURS_MINEURES
10
21.997
20
20.572
0
VERTEX
8
CONTOURS_MINEURES
10
22.571
20
20.572
0
VERTEX
8
CONTOURS_MINEURES
10
23.999
20
20.572
0
VERTEX
8
CONTOURS_MINEURES
10
24.485
20
20.485
0
VERTEX
8
CONTOURS_MINEURES
10
25.586
20
19.999
0
VERTEX
8
CONTOURS_MINEURES
10
25.586
20
19.584
0
VERTEX
8
CONTOURS_MINEURES
10
25.586
20
17.998
0
VERTEX
8
CONTOURS_MINEURES
10
26.001
20
17.865
0
VERTEX
8
CONTOURS_MINEURES
10
27.869
20
17.865
0
VERTEX
8
CONTOURS_MINEURES
10
28.003
20
17.865
0
VERTEX
8
CONTOURS_MINEURES
10
28.182
20
17.819
0
VERTEX
8
CONTOURS_MINEURES
10
30.005
20
17.701
0
VERTEX
8
CONTOURS_MINEURES
10
31.700
20
17.701
0
VERTEX
8
CONTOURS_MINEURES
10
31.996
20
17.701
0
VERTEX
8
CONTOURS_MINEURES
10
33.700
20
17.701
0
VERTEX
8
CONTOURS_MINEURES
10
33.997
20
17.701
0
VERTEX
8
CONTOURS_MINEURES
10
34.351
20
17.645
0
VERTEX
8
CONTOURS_MINEURES
10
35.658
20
17.998
0
VERTEX
8
CONTOURS_MINEURES
10
35.658
20
19.658
0
VERTEX
8
CONTOURS_MINEURES
10
35.658
20
19.999
0
VERTEX
8
CONTOURS_MINEURES
10
35.999
20
20.070
0
VERTEX
8
CONTOURS_MINEURES
10
36.070
20
20.070
0
VERTEX
8
CONTOURS_MINEURES
10
38.001
20
20.070
0
VERTEX
8
CONTOURS_MINEURES
10
38.058
20
20.056
0
VERTEX
8
CONTOURS_MINEURES
10
40.003
20
20.250
0
VERTEX
8
CONTOURS_MINEURES
10
41.753
20
20.250
0
VERTEX
8
CONTOURS_MINEURES
10
42.004
20
20.250
0
VERTEX
8
CONTOURS_MINEURES
10
43.946
20
19.999
0
VERTEX
8
CONTOURS_MINEURES
10
43.946
20
19.949
0
VERTEX
8
CONTOURS_MINEURES
10
43.946
20
17.998
0
VERTEX
8
CONTOURS_MINEURES
10
43.995
20
17.990
0
VERTEX
8
CONTOURS_MINEURES
10
45.989
20
17.990
0
VERTEX
8
CONTOURS_MINEURES
10
45.997
20
17.990
0
VERTEX
8
CONTOURS_MINEURES
10
47.483
20
17.483
0
VERTEX
8
CONTOURS_MINEURES
10
47.999
20
17.396
0
VERTEX
8
CONTOURS_MINEURES
10
48.602
20
17.396
0
VERTEX
8
CONTOURS_MINEURES
10
50.001
20
17.396
0
VERTEX
8
CONTOURS_MINEURES
10
51.400
20
17.396
0
VERTEX
8
CONTOURS_MINEURES
10
52.002
20
17.396
0
VERTEX
8
CONTOURS_MINEURES
10
52.831
20
17.170
0
VERTEX
8
CONTOURS_MINEURES
10
54.004
20
16.833
0
VERTEX
8
CONTOURS_MINEURES
10
54.836
20
16.833
0
VERTEX
8
CONTOURS_MINEURES
10
55.995
20
16.833
0
VERTEX
8
CONTOURS_MINEURES
10
57.242
20
15.997
0
VERTEX
8
CONTOURS_MINEURES
10
57.242
20
15.243
0
VERTEX
8
CONTOURS_MINEURES
10
57.242
20
13.997
0
VERTEX
8
CONTOURS_MINEURES
10
57.997
20
13.427
0
VERTEX
8
CONTOURS_MINEURES
10
59.429
20
13.427
0
VERTEX
8
CONTOURS_MINEURES
10
59.999
20
13.427
0
VERTEX
8
CONTOURS_MINEURES
10
61.979
20
11.996
0
VERTEX
8
CONTOURS_MINEURES
10
61.979
20
10.017
0
VERTEX
8
CONTOURS_MINEURES
10
61.979
20
9.995
0
VERTEX
8
CONTOURS_MINEURES
10
61.979
20
9.973
0
VERTEX
8
CONTOURS_MINEURES
10
61.979
20
8.005
0
VERTEX
8
CONTOURS_MINEURES
10
62.001
20
7.993
0
VERTEX
8
CONTOURS_MINEURES
10
63.990
20
7.993
0
VERTEX
8
CONTOURS_MINEURES
10
64.002
20
7.993
0
VERTEX
8
CONTOURS_MINEURES
10
64.015
20
7.993
0
VERTEX
8
CONTOURS_MINEURES
10
66.004
20
7.993
0
VERTEX
8
CONTOURS_MINEURES
10
66.023
20
7.986
0
VERTEX
8
CONTOURS_MINEURES
10
67.995
20
7.537
0
SEQEND
0
POLYLINE
8
CONTOURS_MINEURES
66
1
70
0
0
VERTEX
8
CONTOURS_MINEURES
10
-0.000
20
41.222
0
VERTEX
8
CONTOURS_MINEURES
10
0.326
20
40.322
0
VERTEX
8
CONTOURS_MINEURES
10
0.348
20
39.996
0
VERTEX
8
CONTOURS_MINEURES
10
0.348
20
39.647
0
VERTEX
8
CONTOURS_MINEURES
10
0.348
20
37.995
0
VERTEX
8
CONTOURS_MINEURES
10
0.348
20
36.352
0
VERTEX
8
CONTOURS_MINEURES
10
0.348
20
36.005
0
VERTEX
8
CONTOURS_MINEURES
10
0.509
20
35.496
0
VERTEX
8
CONTOURS_MINEURES
10
0.916
20
34.004
0
VERTEX
8
CONTOURS_MINEURES
10
0.916
20
33.088
0
VERTEX
8
CONTOURS_MINEURES
10
0.916
20
32.004
0
VERTEX
8
CONTOURS_MINEURES
10
1.832
20
30.172
0
VERTEX
8
CONTOURS_MINEURES
10
1.899
20
30.003
0
VERTEX
8
CONTOURS_MINEURES
10
1.899
20
29.900
0
VERTEX
8
CONTOURS_MINEURES
10
1.899
20
28.002
0
VERTEX
8
CONTOURS_MINEURES
10
2.001
20
27.772
0
VERTEX
8
CONTOURS_MINEURES
10
2.232
20
27.772
0
VERTEX
8
CONTOURS_MINEURES
10
4.003
20
27.772
0
VERTEX
8
CONTOURS_MINEURES
10
4.233
20
27.772
0
VERTEX
8
CONTOURS_MINEURES
10
6.005
20
27.772
0
VERTEX
8
CONTOURS_MINEURES
10
6.391
20
27.614
0
VERTEX
8
CONTOURS_MINEURES
10
7.996
20
26.406
0
VERTEX
8
CONTOURS_MINEURES
10
8.401
20
26.406
0
VERTEX
8
CONTOURS_MINEURES
10
9.998
20
26.406
0
VERTEX
8
CONTOURS_MINEURES
10
11.687
20
26.001
0
VERTEX
8
CONTOURS_MINEURES
10
11.687
20
24.313
0
VERTEX
8
CONTOURS_MINEURES
10
11.687
20
24.000
0
VERTEX
8
CONTOURS_MINEURES
10
11.687
20
23.688
0
VERTEX
8
CONTOURS_MINEURES
10
11.687
20
22.000
0
VERTEX
8
CONTOURS_MINEURES
10
11.999
20
21.953
0
VERTEX
8
CONTOURS_MINEURES
10
13.954
20
21.953
0
VERTEX
8
CONTOURS_MINEURES
10
14.001
20
21.953
0
VERTEX
8
CONTOURS_MINEURES
10
15.915
20
21.912
0
VERTEX
8
CONTOURS_MINEURES
10
16.003
20
21.908
0
VERTEX
8
CONTOURS_MINEURES
10
16.095
20
21.908
0
VERTEX
8
CONTOURS_MINEURES
10
18.005
20
21.908
0
VERTEX
8
CONTOURS_MINEURES
10
18.096
20
21.908
0
VERTEX
8
CONTOURS_MINEURES
10
19.996
20
21.908
0
VERTEX
8
CONTOURS_MINEURES
10
20.121
20
21.874
0
VERTEX
8
CONTOURS_MINEURES
10
21.997
20
21.938
0
VERTEX
8
CONTOURS_MINEURES
10
23.938
20
21.938
0
VERTEX
8
CONTOURS_MINEURES
10
23.999
20
21.938
0
VERTEX
8
CONTOURS_MINEURES
10
25.642
20
21.641
0
VERTEX
8
CONTOURS_MINEURES
10
26.001
20
21.483
0
VERTEX
8
CONTOURS_MINEURES
10
27.486
20
21.483
0
VERTEX
8
CONTOURS_MINEURES
10
28.003
20
21.483
0
VERTEX
8
CONTOURS_MINEURES
10
28.559
20
21.443
0
VERTEX
8
CONTOURS_MINEURES
10
30.005
20
21.809
0
VERTEX
8
CONTOURS_MINEURES
10
30.195
20
21.809
0
VERTEX
8
CONTOURS_MINEURES
10
31.996
20
21.809
0
VERTEX
8
CONTOURS_MINEURES
10
33.806
20
21.809
0
VERTEX
8
CONTOURS_MINEURES
10
33.997
20
21.809
0
VERTEX
8
CONTOURS_MINEURES
10
35.798
20
21.798
0
VERTEX
8
CONTOURS_MINEURES
10
35.999
20
21.840
0
VERTEX
8
CONTOURS_MINEURES
10
37.841
20
21.840
0
VERTEX
8
CONTOURS_MINEURES
10
38.001
20
21.840
0
VERTEX
8
CONTOURS_MINEURES
10
39.488
20
21.485
0
VERTEX
8
CONTOURS_MINEURES
10
40.003
20
21.536
0
VERTEX
8
CONTOURS_MINEURES
10
40.466
20
21.536
0
VERTEX
8
CONTOURS_MINEURES
10
42.004
20
21.536
0
VERTEX
8
CONTOURS_MINEURES
10
42.533
20
21.468
0
VERTEX
8
CONTOURS_MINEURES
10
43.995
20
21.146
0
VERTEX
8
CONTOURS_MINEURES
10
45.143
20
21.146
0
VERTEX
8
CONTOURS_MINEURES
10
45.997
20
21.146
0
VERTEX
8
CONTOURS_MINEURES
10
46.934
20
20.936
0
VERTEX
8
CONTOURS_MINEURES
10
47.999
20
20.678
0
VERTEX
8
CONTOURS_MINEURES
10
49.322
20
20.678
0
VERTEX
8
CONTOURS_MINEURES
10
50.001
20
20.678
0
VERTEX
8
CONTOURS_MINEURES
10
50.680
20
20.678
0
VERTEX
8
CONTOURS_MINEURES
10
52.002
20
20.678
0
VERTEX
8
CONTOURS_MINEURES
10
53.742
20
20.261
0
VERTEX
8
CONTOURS_MINEURES
10
54.004
20
20.210
0
VERTEX
8
CONTOURS_MINEURES
10
54.214
20
20.210
0
VERTEX
8
CONTOURS_MINEURES
10
55.995
20
20.210
0
VERTEX
8
CONTOURS_MINEURES
10
56.187
20
20.191
0
VERTEX
8
CONTOURS_MINEURES
10
56.423
20
19.999
0
VERTEX
8
CONTOURS_MINEURES
10
56.423
20
19.571
0
VERTEX
8
CONTOURS_MINEURES
10
56.423
20
17.998
0
VERTEX
8
CONTOURS_MINEURES
10
57.997
20
17.010
0
VERTEX
8
CONTOURS_MINEURES
10
59.010
20
17.010
0
VERTEX
8
CONTOURS_MINEURES
10
59.999
20
17.010
0
VERTEX
8
CONTOURS_MINEURES
10
61.463
20
15.997
0
VERTEX
8
CONTOURS_MINEURES
10
61.463
20
14.534
0
VERTEX
8
CONTOURS_MINEURES
10
61.463
20
13.997
0
VERTEX
8
CONTOURS_MINEURES
10
62.001
20
13.613
0
VERTEX
8
CONTOURS_MINEURES
10
62.385
20
13.613
0
VERTEX
8
CONTOURS_MINEURES
10
64.002
20
13.613
0
VERTEX
8
CONTOURS_MINEURES
10
64.386
20
13.613
0
VERTEX
8
CONTOURS_MINEURES
10
66.004
20
13.613
0
VERTEX
8
CONTOURS_MINEURES
10
67.613
20
13.613
0
VERTEX
8
CONTOURS_MINEURES
10
67.995
20
13.486
0
SEQEND
0
POLYLINE
8
CONTOURS_MINEURES
66
1
70
0
0
VERTEX
8
CONTOURS_MINEURES
10
-0.000
20
51.250
0
VERTEX
8
CONTOURS_MINEURES
10
0.466
20
50.466
0
VERTEX
8
CONTOURS_MINEURES
10
0.860
20
49.999
0
VERTEX
8
CONTOURS_MINEURES
10
0.860
20
49.139
0
VERTEX
8
CONTOURS_MINEURES
10
0.860
20
47.999
0
VERTEX
8
CONTOURS_MINEURES
10
0.860
20
46.858
0
VERTEX
8
CONTOURS_MINEURES
10
0.860
20
45.998
0
VERTEX
8
CONTOURS_MINEURES
10
0.931
20
45.067
0
VERTEX
8
CONTOURS_MINEURES
10
1.282
20
43.997
0
VERTEX
8
CONTOURS_MINEURES
10
1.282
20
42.715
0
VERTEX
8
CONTOURS_MINEURES
10
1.282
20
41.996
0
VERTEX
8
CONTOURS_MINEURES
10
1.474
20
41.469
0
VERTEX
8
CONTOURS_MINEURES
10
1.573
20
39.996
0
VERTEX
8
CONTOURS_MINEURES
10
1.573
20
38.423
0
VERTEX
8
CONTOURS_MINEURES
10
1.573
20
37.995
0
VERTEX
8
CONTOURS_MINEURES
10
1.573
20
37.569
0
VERTEX
8
CONTOURS_MINEURES
10
1.573
20
36.005
0
VERTEX
8
CONTOURS_MINEURES
10
2.001
20
34.645
0
VERTEX
8
CONTOURS_MINEURES
10
3.362
20
34.645
0
VERTEX
8
CONTOURS_MINEURES
10
4.003
20
34.645
0
VERTEX
8
CONTOURS_MINEURES
10
4.644
20
34.645
0
VERTEX
8
CONTOURS_MINEURES
10
6.005
20
34.645
0
VERTEX
8
CONTOURS_MINEURES
10
6.199
20
34.200
0
VERTEX
8
CONTOURS_MINEURES
10
6.292
20
34.004
0
VERTEX
8
CONTOURS_MINEURES
10
6.292
20
32.292
0
VERTEX
8
CONTOURS_MINEURES
10
6.292
20
32.004
0
VERTEX
8
CONTOURS_MINEURES
10
7.433
20
30.568
0
VERTEX
8
CONTOURS_MINEURES
10
7.866
20
30.003
0
VERTEX
8
CONTOURS_MINEURES
10
7.866
20
29.873
0
VERTEX
8
CONTOURS_MINEURES
10
7.866
20
28.002
0
VERTEX
8
CONTOURS_MINEURES
10
7.996
20
27.905
0
VERTEX
8
CONTOURS_MINEURES
10
9.900
20
27.905
0
VERTEX
8
CONTOURS_MINEURES
10
9.998
20
27.905
0
VERTEX
8
CONTOURS_MINEURES
10
10.126
20
27.874
0
VERTEX
8
CONTOURS_MINEURES
10
11.999
20
26.954
0
VERTEX
8
CONTOURS_MINEURES
10
12.953
20
26.954
0
VERTEX
8
CONTOURS_MINEURES
10
14.001
20
26.954
0
VERTEX
8
CONTOURS_MINEURES
10
15.067
20
27.066
0
VERTEX
8
CONTOURS_MINEURES
10
16.003
20
27.042
0
VERTEX
8
CONTOURS_MINEURES
10
16.964
20
27.042
0
VERTEX
8
CONTOURS_MINEURES
10
18.005
20
27.042
0
VERTEX
8
CONTOURS_MINEURES
10
18.960
20
27.042
0
VERTEX
8
CONTOURS_MINEURES
10
19.996
20
27.042
0
VERTEX
8
CONTOURS_MINEURES
10
21.701
20
28.002
0
VERTEX
8
CONTOURS_MINEURES
10
21.701
20
28.298
0
VERTEX
8
CONTOURS_MINEURES
10
21.701
20
30.003
0
VERTEX
8
CONTOURS_MINEURES
10
21.997
20
30.171
0
VERTEX
8
CONTOURS_MINEURES
10
23.830
20
30.171
0
VERTEX
8
CONTOURS_MINEURES
10
23.999
20
30.171
0
VERTEX
8
CONTOURS_MINEURES
10
24.384
20
30.387
0
VERTEX
8
CONTOURS_MINEURES
10
26.001
20
30.429
0
VERTEX
8
CONTOURS_MINEURES
10
26.427
20
30.429
0
VERTEX
8
CONTOURS_MINEURES
10
28.003
20
30.429
0
VERTEX
8
CONTOURS_MINEURES
10
29.456
20
30.551
0
VERTEX
8
CONTOURS_MINEURES
10
30.005
20
30.585
0
VERTEX
8
CONTOURS_MINEURES
10
31.416
20
30.585
0
VERTEX
8
CONTOURS_MINEURES
10
31.996
20
30.585
0
VERTEX
8
CONTOURS_MINEURES
10
32.578
20
30.585
0
VERTEX
8
CONTOURS_MINEURES
10
33.997
20
30.585
0
VERTEX
8
CONTOURS_MINEURES
10
35.459
20
30.003
0
VERTEX
8
CONTOURS_MINEURES
10
35.459
20
29.463
0
VERTEX
8
CONTOURS_MINEURES
10
35.459
20
28.002
0
VERTEX
8
CONTOURS_MINEURES
10
35.999
20
27.831
0
VERTEX
8
CONTOURS_MINEURES
10
37.830
20
27.831
0
VERTEX
8
CONTOURS_MINEURES
10
38.001
20
27.831
0
VERTEX
8
CONTOURS_MINEURES
10
38.236
20
27.767
0
VERTEX
8
CONTOURS_MINEURES
10
40.003
20
27.068
0
VERTEX
8
CONTOURS_MINEURES
10
41.070
20
27.068
0
VERTEX
8
CONTOURS_MINEURES
10
42.004
20
27.068
0
VERTEX
8
CONTOURS_MINEURES
10
43.364
20
26.636
0
VERTEX
8
CONTOURS_MINEURES
10
43.995
20
26.444
0
VERTEX
8
CONTOURS_MINEURES
10
44.438
20
26.444
0
VERTEX
8
CONTOURS_MINEURES
10
45.997
20
26.444
0
VERTEX
8
CONTOURS_MINEURES
10
47.332
20
26.001
0
VERTEX
8
CONTOURS_MINEURES
10
47.332
20
25.334
0
VERTEX
8
CONTOURS_MINEURES
10
47.332
20
24.000
0
VERTEX
8
CONTOURS_MINEURES
10
47.332
20
22.667
0
VERTEX
8
CONTOURS_MINEURES
10
47.332
20
22.000
0
VERTEX
8
CONTOURS_MINEURES
10
47.876
20
21.877
0
VERTEX
8
CONTOURS_MINEURES
10
47.999
20
21.848
0
VERTEX
8
CONTOURS_MINEURES
10
48.151
20
21.848
0
VERTEX
8
CONTOURS_MINEURES
10
50.001
20
21.848
0
VERTEX
8
CONTOURS_MINEURES
10
51.850
20
21.848
0
VERTEX
8
CONTOURS_MINEURES
10
52.002
20
21.848
0
VERTEX
8
CONTOURS_MINEURES
10
52.203
20
21.800
0
VERTEX
8
CONTOURS_MINEURES
10
54.004
20
21.453
0
VERTEX
8
CONTOURS_MINEURES
10
55.451
20
21.453
0
VERTEX
8
CONTOURS_MINEURES
10
55.995
20
21.453
0
VERTEX
8
CONTOURS_MINEURES
10
57.315
20
21.318
0
VERTEX
8
CONTOURS_MINEURES
10
57.997
20
20.764
0
VERTEX
8
CONTOURS_MINEURES
10
58.763
20
20.764
0
VERTEX
8
CONTOURS_MINEURES
10
59.999
20
20.764
0
VERTEX
8
CONTOURS_MINEURES
10
61.830
20
19.999
0
VERTEX
8
CONTOURS_MINEURES
10
61.830
20
19.828
0
VERTEX
8
CONTOURS_MINEURES
10
61.830
20
17.998
0
VERTEX
8
CONTOURS_MINEURES
10
62.001
20
17.911
0
VERTEX
8
CONTOURS_MINEURES
10
63.915
20
17.911
0
VERTEX
8
CONTOURS_MINEURES
10
64.002
20
17.911
0
VERTEX
8
CONTOURS_MINEURES
10
64.090
20
17.911
0
VERTEX
8
CONTOURS_MINEURES
10
66.004
20
17.911
0
VERTEX
8
CONTOURS_MINEURES
10
66.454
20
17.998
0
VERTEX
8
CONTOURS_MINEURES
10
66.454
20
19.547
0
VERTEX
8
CONTOURS_MINEURES
10
66.454
20
19.999
0
VERTEX
8
CONTOURS_MINEURES
10
67.995
20
20.538
0
SEQEND
0
POLYLINE
8
CONTOURS_MINEURES
66
1
70
0
0
VERTEX
8
CONTOURS_MINEURES
10
-0.000
20
55.710
0
VERTEX
8
CONTOURS_MINEURES
10
1.415
20
54.001
0
VERTEX
8
CONTOURS_MINEURES
10
1.415
20
53.415
0
VERTEX
8
CONTOURS_MINEURES
10
1.415
20
52.000
0
VERTEX
8
CONTOURS_MINEURES
10
1.634
20
51.633
0
VERTEX
8
CONTOURS_MINEURES
10
2.001
20
51.197
0
VERTEX
8
CONTOURS_MINEURES
10
3.200
20
51.197
0
VERTEX
8
CONTOURS_MINEURES
10
4.003
20
51.197
0
VERTEX
8
CONTOURS_MINEURES
10
5.202
20
51.197
0
VERTEX
8
CONTOURS_MINEURES
10
6.005
20
51.197
0
VERTEX
8
CONTOURS_MINEURES
10
6.922
20
49.999
0
VERTEX
8
CONTOURS_MINEURES
10
6.922
20
48.921
0
VERTEX
8
CONTOURS_MINEURES
10
6.922
20
47.999
0
VERTEX
8
CONTOURS_MINEURES
10
6.922
20
47.077
0
VERTEX
8
CONTOURS_MINEURES
10
6.922
20
45.998
0
VERTEX
8
CONTOURS_MINEURES
10
6.936
20
45.062
0
VERTEX
8
CONTOURS_MINEURES
10
7.005
20
43.997
0
VERTEX
8
CONTOURS_MINEURES
10
7.005
20
42.992
0
VERTEX
8
CONTOURS_MINEURES
10
7.005
20
41.996
0
VERTEX
8
CONTOURS_MINEURES
10
7.097
20
41.093
0
VERTEX
8
CONTOURS_MINEURES
10
7.106
20
39.996
0
VERTEX
8
CONTOURS_MINEURES
10
7.106
20
39.102
0
VERTEX
8
CONTOURS_MINEURES
10
7.106
20
37.995
0
VERTEX
8
CONTOURS_MINEURES
10
7.106
20
36.894
0
VERTEX
8
CONTOURS_MINEURES
10
7.106
20
36.005
0
VERTEX
8
CONTOURS_MINEURES
10
7.377
20
35.384
0
VERTEX
8
CONTOURS_MINEURES
10
7.996
20
34.078
0
VERTEX
8
CONTOURS_MINEURES
10
9.924
20
34.078
0
VERTEX
8
CONTOURS_MINEURES
10
9.998
20
34.078
0
VERTEX
8
CONTOURS_MINEURES
10
10.025
20
34.032
0
VERTEX
8
CONTOURS_MINEURES
10
10.034
20
34.004
0
VERTEX
8
CONTOURS_MINEURES
10
10.034
20
32.040
0
VERTEX
8
CONTOURS_MINEURES
10
10.034
20
32.004
0
VERTEX
8
CONTOURS_MINEURES
10
10.614
20
31.388
0
VERTEX
8
CONTOURS_MINEURES
10
11.907
20
30.003
0
VERTEX
8
CONTOURS_MINEURES
10
11.907
20
28.094
0
VERTEX
8
CONTOURS_MINEURES
10
11.907
20
28.002
0
VERTEX
8
CONTOURS_MINEURES
10
11.999
20
27.957
0
VERTEX
8
CONTOURS_MINEURES
10
13.956
20
27.957
0
VERTEX
8
CONTOURS_MINEURES
10
14.001
20
27.957
0
VERTEX
8
CONTOURS_MINEURES
10
14.430
20
28.002
0
VERTEX
8
CONTOURS_MINEURES
10
14.430
20
28.431
0
VERTEX
8
CONTOURS_MINEURES
10
14.430
20
30.003
0
VERTEX
8
CONTOURS_MINEURES
10
15.739
20
30.267
0
VERTEX
8
CONTOURS_MINEURES
10
16.003
20
30.191
0
VERTEX
8
CONTOURS_MINEURES
10
16.192
20
30.191
0
VERTEX
8
CONTOURS_MINEURES
10
18.005
20
30.191
0
VERTEX
8
CONTOURS_MINEURES
10
19.808
20
30.191
0
VERTEX
8
CONTOURS_MINEURES
10
19.996
20
30.191
0
VERTEX
8
CONTOURS_MINEURES
10
20.442
20
30.449
0
VERTEX
8
CONTOURS_MINEURES
10
21.997
20
31.335
0
VERTEX
8
CONTOURS_MINEURES
10
22.667
20
31.335
0
VERTEX
8
CONTOURS_MINEURES
10
23.999
20
31.335
0
VERTEX
8
CONTOURS_MINEURES
10
25.192
20
32.004
0
VERTEX
8
CONTOURS_MINEURES
10
25.192
20
33.196
0
VERTEX
8
CONTOURS_MINEURES
10
25.192
20
34.004
0
VERTEX
8
CONTOURS_MINEURES
10
25.570
20
34.435
0
VERTEX
8
CONTOURS_MINEURES
10
26.001
20
34.657
0
VERTEX
8
CONTOURS_MINEURES
10
26.654
20
34.657
0
VERTEX
8
CONTOURS_MINEURES
10
28.003
20
34.657
0
VERTEX
8
CONTOURS_MINEURES
10
29.297
20
34.711
0
VERTEX
8
CONTOURS_MINEURES
10
30.005
20
34.880
0
VERTEX
8
CONTOURS_MINEURES
10
30.876
20
34.880
0
VERTEX
8
CONTOURS_MINEURES
10
31.996
20
34.880
0
VERTEX
8
CONTOURS_MINEURES
10
33.121
20
34.880
0
VERTEX
8
CONTOURS_MINEURES
10
33.997
20
34.880
0
VERTEX
8
CONTOURS_MINEURES
10
34.852
20
34.859
0
VERTEX
8
CONTOURS_MINEURES
10
35.999
20
34.530
0
VERTEX
8
CONTOURS_MINEURES
10
36.525
20
34.530
0
VERTEX
8
CONTOURS_MINEURES
10
38.001
20
34.530
0
VERTEX
8
CONTOURS_MINEURES
10
38.565
20
34.568
0
VERTEX
8
CONTOURS_MINEURES
10
39.829
20
34.004
0
VERTEX
8
CONTOURS_MINEURES
10
39.829
20
32.178
0
VERTEX
8
CONTOURS_MINEURES
10
39.829
20
32.004
0
VERTEX
8
CONTOURS_MINEURES
10
39.960
20
31.961
0
VERTEX
8
CONTOURS_MINEURES
10
40.003
20
31.917
0
VERTEX
8
CONTOURS_MINEURES
10
41.917
20
31.917
0
VERTEX
8
CONTOURS_MINEURES
10
42.004
20
31.917
0
VERTEX
8
CONTOURS_MINEURES
10
42.384
20
31.622
0
VERTEX
8
CONTOURS_MINEURES
10
43.995
20
30.683
0
VERTEX
8
CONTOURS_MINEURES
10
44.676
20
30.683
0
VERTEX
8
CONTOURS_MINEURES
10
45.997
20
30.683
0
VERTEX
8
CONTOURS_MINEURES
10
46.627
20
30.633
0
VERTEX
8
CONTOURS_MINEURES
10
47.095
20
30.003
0
VERTEX
8
CONTOURS_MINEURES
10
47.095
20
29.099
0
VERTEX
8
CONTOURS_MINEURES
10
47.095
20
28.002
0
VERTEX
8
CONTOURS_MINEURES
10
47.999
20
27.853
0
VERTEX
8
CONTOURS_MINEURES
10
49.852
20
27.853
0
VERTEX
8
CONTOURS_MINEURES
10
50.001
20
27.853
0
VERTEX
8
CONTOURS_MINEURES
10
50.150
20
27.853
0
VERTEX
8
CONTOURS_MINEURES
10
52.002
20
27.853
0
VERTEX
8
CONTOURS_MINEURES
10
52.225
20
27.780
0
VERTEX
8
CONTOURS_MINEURES
10
54.004
20
27.625
0
VERTEX
8
CONTOURS_MINEURES
10
54.379
20
27.625
0
VERTEX
8
CONTOURS_MINEURES
10
55.995
20
27.625
0
VERTEX
8
CONTOURS_MINEURES
10
57.668
20
27.674
0
VERTEX
8
CONTOURS_MINEURES
10
57.997
20
27.566
0
VERTEX
8
CONTOURS_MINEURES
10
58.433
20
27.566
0
VERTEX
8
CONTOURS_MINEURES
10
59.999
20
27.566
0
VERTEX
8
CONTOURS_MINEURES
10
61.834
20
28.002
0
VERTEX
8
CONTOURS_MINEURES
10
61.834
20
28.169
0
VERTEX
8
CONTOURS_MINEURES
10
61.834
20
30.003
0
VERTEX
8
CONTOURS_MINEURES
10
61.929
20
30.074
0
VERTEX
8
CONTOURS_MINEURES
10
62.001
20
30.086
0
VERTEX
8
CONTOURS_MINEURES
10
63.919
20
30.086
0
VERTEX
8
CONTOURS_MINEURES
10
64.002
20
30.086
0
VERTEX
8
CONTOURS_MINEURES
10
64.086
20
30.086
0
VERTEX
8
CONTOURS_MINEURES
10
66.004
20
30.086
0
VERTEX
8
CONTOURS_MINEURES
10
67.121
20
30.881
0
VERTEX
8
CONTOURS_MINEURES
10
67.995
20
31.165
0
SEQEND
0
POLYLINE
8
CONTOURS_MINEURES
66
1
70
0
0
VERTEX
8
CONTOURS_MINEURES
10
-0.000
20
59.155
0
VERTEX
8
CONTOURS_MINEURES
10
0.703
20
58.706
0
VERTEX
8
CONTOURS_MINEURES
10
1.488
20
58.003
0
VERTEX
8
CONTOURS_MINEURES
10
1.488
20
57.490
0
VERTEX
8
CONTOURS_MINEURES
10
1.488
20
56.002
0
VERTEX
8
CONTOURS_MINEURES
10
2.001
20
55.392
0
VERTEX
8
CONTOURS_MINEURES
10
3.393
20
55.392
0
VERTEX
8
CONTOURS_MINEURES
10
4.003
20
55.392
0
VERTEX
8
CONTOURS_MINEURES
10
4.613
20
55.392
0
VERTEX
8
CONTOURS_MINEURES
10
6.005
20
55.392
0
VERTEX
8
CONTOURS_MINEURES
10
6.677
20
54.676
0
VERTEX
8
CONTOURS_MINEURES
10
7.342
20
54.001
0
VERTEX
8
CONTOURS_MINEURES
10
7.342
20
53.344
0
VERTEX
8
CONTOURS_MINEURES
10
7.342
20
52.000
0
VERTEX
8
CONTOURS_MINEURES
10
7.996
20
51.146
0
VERTEX
8
CONTOURS_MINEURES
10
9.143
20
51.146
0
VERTEX
8
CONTOURS_MINEURES
10
9.998
20
51.146
0
VERTEX
8
CONTOURS_MINEURES
10
10.540
20
50.542
0
VERTEX
8
CONTOURS_MINEURES
10
11.064
20
49.999
0
VERTEX
8
CONTOURS_MINEURES
10
11.064
20
48.934
0
VERTEX
8
CONTOURS_MINEURES
10
11.064
20
47.999
0
VERTEX
8
CONTOURS_MINEURES
10
11.064
20
47.063
0
VERTEX
8
CONTOURS_MINEURES
10
11.064
20
45.998
0
VERTEX
8
CONTOURS_MINEURES
10
11.080
20
45.079
0
VERTEX
8
CONTOURS_MINEURES
10
11.038
20
43.997
0
VERTEX
8
CONTOURS_MINEURES
10
11.038
20
42.958
0
VERTEX
8
CONTOURS_MINEURES
10
11.038
20
41.996
0
VERTEX
8
CONTOURS_MINEURES
10
11.048
20
41.046
0
VERTEX
8
CONTOURS_MINEURES
10
11.031
20
39.996
0
VERTEX
8
CONTOURS_MINEURES
10
11.031
20
39.028
0
VERTEX
8
CONTOURS_MINEURES
10
11.031
20
37.995
0
VERTEX
8
CONTOURS_MINEURES
10
11.031
20
36.968
0
VERTEX
8
CONTOURS_MINEURES
10
11.031
20
36.005
0
VERTEX
8
CONTOURS_MINEURES
10
11.391
20
35.397
0
VERTEX
8
CONTOURS_MINEURES
10
11.845
20
34.004
0
VERTEX
8
CONTOURS_MINEURES
10
11.845
20
33.850
0
VERTEX
8
CONTOURS_MINEURES
10
11.845
20
32.004
0
VERTEX
8
CONTOURS_MINEURES
10
11.999
20
31.840
0
VERTEX
8
CONTOURS_MINEURES
10
12.163
20
31.840
0
VERTEX
8
CONTOURS_MINEURES
10
14.001
20
31.840
0
VERTEX
8
CONTOURS_MINEURES
10
14.137
20
31.867
0
VERTEX
8
CONTOURS_MINEURES
10
16.003
20
31.335
0
VERTEX
8
CONTOURS_MINEURES
10
17.336
20
31.335
0
VERTEX
8
CONTOURS_MINEURES
10
18.005
20
31.335
0
VERTEX
8
CONTOURS_MINEURES
10
18.670
20
31.335
0
VERTEX
8
CONTOURS_MINEURES
10
19.996
20
31.335
0
VERTEX
8
CONTOURS_MINEURES
10
21.155
20
32.004
0
VERTEX
8
CONTOURS_MINEURES
10
21.155
20
32.845
0
VERTEX
8
CONTOURS_MINEURES
10
21.155
20
34.004
0
VERTEX
8
CONTOURS_MINEURES
10
21.997
20
35.011
0
VERTEX
8
CONTOURS_MINEURES
10
22.992
20
35.011
0
VERTEX
8
CONTOURS_MINEURES
10
23.999
20
35.011
0
VERTEX
8
CONTOURS_MINEURES
10
24.464
20
35.541
0
VERTEX
8
CONTOURS_MINEURES
10
25.366
20
36.005
0
VERTEX
8
CONTOURS_MINEURES
10
25.366
20
36.636
0
VERTEX
8
CONTOURS_MINEURES
10
25.366
20
37.995
0
VERTEX
8
CONTOURS_MINEURES
10
25.366
20
38.629
0
VERTEX
8
CONTOURS_MINEURES
10
25.366
20
39.996
0
VERTEX
8
CONTOURS_MINEURES
10
26.001
20
40.959
0
VERTEX
8
CONTOURS_MINEURES
10
27.039
20
40.959
0
VERTEX
8
CONTOURS_MINEURES
10
28.003
20
40.959
0
VERTEX
8
CONTOURS_MINEURES
10
29.955
20
41.946
0
VERTEX
8
CONTOURS_MINEURES
10
30.005
20
41.974
0
VERTEX
8
CONTOURS_MINEURES
10
31.973
20
41.974
0
VERTEX
8
CONTOURS_MINEURES
10
31.996
20
41.974
0
VERTEX
8
CONTOURS_MINEURES
10
33.975
20
41.974
0
VERTEX
8
CONTOURS_MINEURES
10
33.997
20
41.974
0
VERTEX
8
CONTOURS_MINEURES
10
34.021
20
41.972
0
VERTEX
8
CONTOURS_MINEURES
10
34.051
20
41.996
0
VERTEX
8
CONTOURS_MINEURES
10
34.051
20
42.050
0
VERTEX
8
CONTOURS_MINEURES
10
34.051
20
43.997
0
VERTEX
8
CONTOURS_MINEURES
10
35.999
20
45.712
0
VERTEX
8
CONTOURS_MINEURES
10
36.285
20
45.712
0
VERTEX
8
CONTOURS_MINEURES
10
38.001
20
45.712
0
VERTEX
8
CONTOURS_MINEURES
10
38.752
20
45.998
0
VERTEX
8
CONTOURS_MINEURES
10
38.752
20
47.248
0
VERTEX
8
CONTOURS_MINEURES
10
38.752
20
47.999
0
VERTEX
8
CONTOURS_MINEURES
10
38.752
20
49.249
0
VERTEX
8
CONTOURS_MINEURES
10
38.752
20
49.999
0
VERTEX
8
CONTOURS_MINEURES
10
40.003
20
50.266
0
VERTEX
8
CONTOURS_MINEURES
10
40.270
20
50.266
0
VERTEX
8
CONTOURS_MINEURES
10
42.004
20
50.266
0
VERTEX
8
CONTOURS_MINEURES
10
43.214
20
50.785
0
VERTEX
8
CONTOURS_MINEURES
10
43.995
20
51.200
0
VERTEX
8
CONTOURS_MINEURES
10
45.196
20
51.200
0
VERTEX
8
CONTOURS_MINEURES
10
45.997
20
51.200
0
VERTEX
8
CONTOURS_MINEURES
10
47.016
20
52.000
0
VERTEX
8
CONTOURS_MINEURES
10
47.016
20
52.982
0
VERTEX
8
CONTOURS_MINEURES
10
47.016
20
54.001
0
VERTEX
8
CONTOURS_MINEURES
10
47.629
20
54.371
0
VERTEX
8
CONTOURS_MINEURES
10
47.999
20
54.694
0
VERTEX
8
CONTOURS_MINEURES
10
48.692
20
54.694
0
VERTEX
8
CONTOURS_MINEURES
10
50.001
20
54.694
0
VERTEX
8
CONTOURS_MINEURES
10
51.310
20
54.694
0
VERTEX
8
CONTOURS_MINEURES
10
52.002
20
54.694
0
VERTEX
8
CONTOURS_MINEURES
10
53.346
20
56.002
0
VERTEX
8
CONTOURS_MINEURES
10
53.346
20
57.344
0
VERTEX
8
CONTOURS_MINEURES
10
53.346
20
58.003
0
VERTEX
8
CONTOURS_MINEURES
10
54.004
20
59.090
0
VERTEX
8
CONTOURS_MINEURES
10
54.913
20
59.090
0
VERTEX
8
CONTOURS_MINEURES
10
55.995
20
59.090
0
VERTEX
8
CONTOURS_MINEURES
10
56.502
20
60.003
0
VERTEX
8
CONTOURS_MINEURES
10
56.502
20
61.498
0
VERTEX
8
CONTOURS_MINEURES
10
56.502
20
62.004
0
VERTEX
8
CONTOURS_MINEURES
10
56.502
20
62.510
0
VERTEX
8
CONTOURS_MINEURES
10
56.502
20
64.005
0
VERTEX
8
CONTOURS_MINEURES
10
56.520
20
65.473
0
VERTEX
8
CONTOURS_MINEURES
10
56.616
20
65.995
0
VERTEX
8
CONTOURS_MINEURES
10
56.616
20
66.615
0
VERTEX
8
CONTOURS_MINEURES
10
56.616
20
67.995
0
VERTEX
8
CONTOURS_MINEURES
10
57.997
20
69.577
0
VERTEX
8
CONTOURS_MINEURES
10
59.579
20
69.577
0
VERTEX
8
CONTOURS_MINEURES
10
59.999
20
69.577
0
VERTEX
8
CONTOURS_MINEURES
10
60.519
20
69.996
0
VERTEX
8
CONTOURS_MINEURES
10
60.519
20
70.516
0
VERTEX
8
CONTOURS_MINEURES
10
60.519
20
71.997
0
VERTEX
8
CONTOURS_MINEURES
10
61.460
20
72.537
0
VERTEX
8
CONTOURS_MINEURES
10
62.001
20
72.709
0
VERTEX
8
CONTOURS_MINEURES
10
62.713
20
72.709
0
VERTEX
8
CONTOURS_MINEURES
10
64.002
20
72.709
0
VERTEX
8
CONTOURS_MINEURES
10
65.292
20
72.709
0
VERTEX
8
CONTOURS_MINEURES
10
66.004
20
72.709
0
VERTEX
8
CONTOURS_MINEURES
10
66.841
20
72.838
0
VERTEX
8
CONTOURS_MINEURES
10
67.995
20
73.078
0
SEQEND
0
POLYLINE
8
CONTOURS_MINEURES
66
1
70
0
0
VERTEX
8
CONTOURS_MINEURES
10
-0.000
20
64.421
0
VERTEX
8
CONTOURS_MINEURES
10
0.307
20
64.310
0
VERTEX
8
CONTOURS_MINEURES
10
0.746
20
64.005
0
VERTEX
8
CONTOURS_MINEURES
10
0.746
20
63.258
0
VERTEX
8
CONTOURS_MINEURES
10
0.746
20
62.004
0
VERTEX
8
CONTOURS_MINEURES
10
0.746
20
61.258
0
VERTEX
8
CONTOURS_MINEURES
10
0.746
20
60.003
0
VERTEX
8
CONTOURS_MINEURES
10
1.512
20
59.514
0
VERTEX
8
CONTOURS_MINEURES
10
2.001
20
59.076
0
VERTEX
8
CONTOURS_MINEURES
10
2.929
20
59.076
0
VERTEX
8
CONTOURS_MINEURES
10
4.003
20
59.076
0
VERTEX
8
CONTOURS_MINEURES
10
4.931
20
59.076
0
VERTEX
8
CONTOURS_MINEURES
10
6.005
20
59.076
0
VERTEX
8
CONTOURS_MINEURES
10
6.673
20
58.674
0
VERTEX
8
CONTOURS_MINEURES
10
7.339
20
58.003
0
VERTEX
8
CONTOURS_MINEURES
10
7.339
20
56.662
0
VERTEX
8
CONTOURS_MINEURES
10
7.339
20
56.002
0
VERTEX
8
CONTOURS_MINEURES
10
7.657
20
55.662
0
VERTEX
8
CONTOURS_MINEURES
10
7.996
20
55.318
0
VERTEX
8
CONTOURS_MINEURES
10
8.680
20
55.318
0
VERTEX
8
CONTOURS_MINEURES
10
9.998
20
55.318
0
VERTEX
8
CONTOURS_MINEURES
10
10.696
20
54.699
0
VERTEX
8
CONTOURS_MINEURES
10
11.519
20
54.001
0
VERTEX
8
CONTOURS_MINEURES
10
11.519
20
52.480
0
VERTEX
8
CONTOURS_MINEURES
10
11.519
20
52.000
0
VERTEX
8
CONTOURS_MINEURES
10
11.746
20
51.747
0
VERTEX
8
CONTOURS_MINEURES
10
11.999
20
51.485
0
VERTEX
8
CONTOURS_MINEURES
10
12.515
20
51.485
0
VERTEX
8
CONTOURS_MINEURES
10
14.001
20
51.485
0
VERTEX
8
CONTOURS_MINEURES
10
15.006
20
51.004
0
VERTEX
8
CONTOURS_MINEURES
10
16.003
20
50.181
0
VERTEX
8
CONTOURS_MINEURES
10
16.185
20
50.181
0
VERTEX
8
CONTOURS_MINEURES
10
18.005
20
50.181
0
VERTEX
8
CONTOURS_MINEURES
10
19.815
20
50.181
0
VERTEX
8
CONTOURS_MINEURES
10
19.996
20
50.181
0
VERTEX
8
CONTOURS_MINEURES
10
20.403
20
50.406
0
VERTEX
8
CONTOURS_MINEURES
10
21.997
20
51.021
0
VERTEX
8
CONTOURS_MINEURES
10
22.977
20
51.021
0
VERTEX
8
CONTOURS_MINEURES
10
23.999
20
51.021
0
VERTEX
8
CONTOURS_MINEURES
10
25.306
20
52.000
0
VERTEX
8
CONTOURS_MINEURES
10
25.306
20
52.695
0
VERTEX
8
CONTOURS_MINEURES
10
25.306
20
54.001
0
VERTEX
8
CONTOURS_MINEURES
10
26.001
20
54.468
0
VERTEX
8
CONTOURS_MINEURES
10
27.535
20
54.468
0
VERTEX
8
CONTOURS_MINEURES
10
28.003
20
54.468
0
VERTEX
8
CONTOURS_MINEURES
10
28.773
20
54.771
0
VERTEX
8
CONTOURS_MINEURES
10
30.005
20
55.261
0
VERTEX
8
CONTOURS_MINEURES
10
30.742
20
55.261
0
VERTEX
8
CONTOURS_MINEURES
10
31.996
20
55.261
0
VERTEX
8
CONTOURS_MINEURES
10
33.256
20
55.261
0
VERTEX
8
CONTOURS_MINEURES
10
33.997
20
55.261
0
VERTEX
8
CONTOURS_MINEURES
10
35.859
20
56.002
0
VERTEX
8
CONTOURS_MINEURES
10
35.859
20
56.141
0
VERTEX
8
CONTOURS_MINEURES
10
35.859
20
58.003
0
VERTEX
8
CONTOURS_MINEURES
10
35.956
20
58.046
0
VERTEX
8
CONTOURS_MINEURES
10
35.999
20
58.066
0
VERTEX
8
CONTOURS_MINEURES
10
37.937
20
58.066
0
VERTEX
8
CONTOURS_MINEURES
10
38.001
20
58.066
0
VERTEX
8
CONTOURS_MINEURES
10
38.137
20
58.139
0
VERTEX
8
CONTOURS_MINEURES
10
40.003
20
59.092
0
VERTEX
8
CONTOURS_MINEURES
10
41.092
20
59.092
0
VERTEX
8
CONTOURS_MINEURES
10
42.004
20
59.092
0
VERTEX
8
CONTOURS_MINEURES
10
42.674
20
59.331
0
VERTEX
8
CONTOURS_MINEURES
10
43.995
20
59.249
0
VERTEX
8
CONTOURS_MINEURES
10
44.750
20
59.249
0
VERTEX
8
CONTOURS_MINEURES
10
45.997
20
59.249
0
VERTEX
8
CONTOURS_MINEURES
10
46.493
20
59.508
0
VERTEX
8
CONTOURS_MINEURES
10
46.905
20
60.003
0
VERTEX
8
CONTOURS_MINEURES
10
46.905
20
61.096
0
VERTEX
8
CONTOURS_MINEURES
10
46.905
20
62.004
0
VERTEX
8
CONTOURS_MINEURES
10
46.905
20
62.912
0
VERTEX
8
CONTOURS_MINEURES
10
46.905
20
64.005
0
VERTEX
8
CONTOURS_MINEURES
10
47.062
20
64.937
0
VERTEX
8
CONTOURS_MINEURES
10
47.299
20
65.995
0
VERTEX
8
CONTOURS_MINEURES
10
47.299
20
66.694
0
VERTEX
8
CONTOURS_MINEURES
10
47.299
20
67.995
0
VERTEX
8
CONTOURS_MINEURES
10
47.312
20
69.310
0
VERTEX
8
CONTOURS_MINEURES
10
46.053
20
69.996
0
VERTEX
8
CONTOURS_MINEURES
10
46.053
20
71.941
0
VERTEX
8
CONTOURS_MINEURES
10
46.053
20
71.997
0
VERTEX
8
CONTOURS_MINEURES
10
47.535
20
72.461
0
VERTEX
8
CONTOURS_MINEURES
10
47.999
20
72.634
0
VERTEX
8
CONTOURS_MINEURES
10
48.636
20
72.634
0
VERTEX
8
CONTOURS_MINEURES
10
50.001
20
72.634
0
VERTEX
8
CONTOURS_MINEURES
10
51.366
20
72.634
0
VERTEX
8
CONTOURS_MINEURES
10
52.002
20
72.634
0
VERTEX
8
CONTOURS_MINEURES
10
53.671
20
73.664
0
VERTEX
8
CONTOURS_MINEURES
10
54.004
20
73.866
0
VERTEX
8
CONTOURS_MINEURES
10
55.864
20
73.866
0
VERTEX
8
CONTOURS_MINEURES
10
55.995
20
73.866
0
VERTEX
8
CONTOURS_MINEURES
10
56.067
20
73.925
0
VERTEX
8
CONTOURS_MINEURES
10
56.126
20
73.998
0
VERTEX
8
CONTOURS_MINEURES
10
56.126
20
74.129
0
VERTEX
8
CONTOURS_MINEURES
10
56.126
20
75.998
0
SEQEND
0
POLYLINE
8
CONTOURS_MINEURES
66
1
70
0
0
VERTEX
8
CONTOURS_MINEURES
10
-0.000
20
65.578
0
VERTEX
8
CONTOURS_MINEURES
10
1.160
20
65.159
0
VERTEX
8
CONTOURS_MINEURES
10
2.001
20
64.574
0
VERTEX
8
CONTOURS_MINEURES
10
2.574
20
64.574
0
VERTEX
8
CONTOURS_MINEURES
10
4.003
20
64.574
0
VERTEX
8
CONTOURS_MINEURES
10
5.432
20
64.574
0
VERTEX
8
CONTOURS_MINEURES
10
6.005
20
64.574
0
VERTEX
8
CONTOURS_MINEURES
10
6.479
20
64.478
0
VERTEX
8
CONTOURS_MINEURES
10
7.013
20
64.005
0
VERTEX
8
CONTOURS_MINEURES
10
7.013
20
62.992
0
VERTEX
8
CONTOURS_MINEURES
10
7.013
20
62.004
0
VERTEX
8
CONTOURS_MINEURES
10
7.013
20
61.017
0
VERTEX
8
CONTOURS_MINEURES
10
7.013
20
60.003
0
VERTEX
8
CONTOURS_MINEURES
10
7.628
20
59.634
0
VERTEX
8
CONTOURS_MINEURES
10
7.996
20
59.263
0
VERTEX
8
CONTOURS_MINEURES
10
9.257
20
59.263
0
VERTEX
8
CONTOURS_MINEURES
10
9.998
20
59.263
0
VERTEX
8
CONTOURS_MINEURES
10
11.463
20
58.003
0
VERTEX
8
CONTOURS_MINEURES
10
11.463
20
57.466
0
VERTEX
8
CONTOURS_MINEURES
10
11.463
20
56.002
0
VERTEX
8
CONTOURS_MINEURES
10
11.747
20
55.750
0
VERTEX
8
CONTOURS_MINEURES
10
11.999
20
55.536
0
VERTEX
8
CONTOURS_MINEURES
10
13.535
20
55.536
0
VERTEX
8
CONTOURS_MINEURES
10
14.001
20
55.536
0
VERTEX
8
CONTOURS_MINEURES
10
14.752
20
55.251
0
VERTEX
8
CONTOURS_MINEURES
10
16.003
20
55.082
0
VERTEX
8
CONTOURS_MINEURES
10
16.923
20
55.082
0
VERTEX
8
CONTOURS_MINEURES
10
18.005
20
55.082
0
VERTEX
8
CONTOURS_MINEURES
10
19.081
20
55.082
0
VERTEX
8
CONTOURS_MINEURES
10
19.996
20
55.082
0
VERTEX
8
CONTOURS_MINEURES
10
21.317
20
56.002
0
VERTEX
8
CONTOURS_MINEURES
10
21.317
20
56.682
0
VERTEX
8
CONTOURS_MINEURES
10
21.317
20
58.003
0
VERTEX
8
CONTOURS_MINEURES
10
21.997
20
58.645
0
VERTEX
8
CONTOURS_MINEURES
10
23.356
20
58.645
0
VERTEX
8
CONTOURS_MINEURES
10
23.999
20
58.645
0
VERTEX
8
CONTOURS_MINEURES
10
24.771
20
59.232
0
VERTEX
8
CONTOURS_MINEURES
10
25.898
20
60.003
0
VERTEX
8
CONTOURS_MINEURES
10
25.898
20
61.901
0
VERTEX
8
CONTOURS_MINEURES
10
25.898
20
62.004
0
VERTEX
8
CONTOURS_MINEURES
10
25.898
20
62.107
0
VERTEX
8
CONTOURS_MINEURES
10
25.898
20
64.005
0
VERTEX
8
CONTOURS_MINEURES
10
26.001
20
64.081
0
VERTEX
8
CONTOURS_MINEURES
10
26.078
20
64.081
0
VERTEX
8
CONTOURS_MINEURES
10
28.003
20
64.081
0
VERTEX
8
CONTOURS_MINEURES
10
29.216
20
64.789
0
VERTEX
8
CONTOURS_MINEURES
10
30.005
20
65.411
0
VERTEX
8
CONTOURS_MINEURES
10
30.589
20
65.411
0
VERTEX
8
CONTOURS_MINEURES
10
31.996
20
65.411
0
VERTEX
8
CONTOURS_MINEURES
10
32.583
20
65.411
0
VERTEX
8
CONTOURS_MINEURES
10
33.997
20
65.411
0
VERTEX
8
CONTOURS_MINEURES
10
34.395
20
65.600
0
VERTEX
8
CONTOURS_MINEURES
10
34.690
20
65.995
0
VERTEX
8
CONTOURS_MINEURES
10
34.690
20
67.303
0
VERTEX
8
CONTOURS_MINEURES
10
34.690
20
67.995
0
VERTEX
8
CONTOURS_MINEURES
10
35.332
20
68.662
0
VERTEX
8
CONTOURS_MINEURES
10
35.999
20
69.541
0
VERTEX
8
CONTOURS_MINEURES
10
37.546
20
69.541
0
VERTEX
8
CONTOURS_MINEURES
10
38.001
20
69.541
0
VERTEX
8
CONTOURS_MINEURES
10
38.239
20
69.996
0
VERTEX
8
CONTOURS_MINEURES
10
38.239
20
70.234
0
VERTEX
8
CONTOURS_MINEURES
10
38.239
20
71.997
0
VERTEX
8
CONTOURS_MINEURES
10
39.131
20
72.868
0
VERTEX
8
CONTOURS_MINEURES
10
40.003
20
73.654
0
VERTEX
8
CONTOURS_MINEURES
10
40.346
20
73.654
0
VERTEX
8
CONTOURS_MINEURES
10
42.004
20
73.654
0
VERTEX
8
CONTOURS_MINEURES
10
42.432
20
73.998
0
VERTEX
8
CONTOURS_MINEURES
10
42.432
20
75.568
0
VERTEX
8
CONTOURS_MINEURES
10
42.432
20
75.998
0
SEQEND
0
POLYLINE
8
CONTOURS_MINEURES
66
1
70
0
0
VERTEX
8
CONTOURS_MINEURES
10
-0.000
20
69.134
0
VERTEX
8
CONTOURS_MINEURES
10
1.941
20
68.055
0
VERTEX
8
CONTOURS_MINEURES
10
2.001
20
68.039
0
VERTEX
8
CONTOURS_MINEURES
10
2.045
20
68.039
0
VERTEX
8
CONTOURS_MINEURES
10
4.003
20
68.039
0
VERTEX
8
CONTOURS_MINEURES
10
5.961
20
68.039
0
VERTEX
8
CONTOURS_MINEURES
10
6.005
20
68.039
0
VERTEX
8
CONTOURS_MINEURES
10
6.111
20
67.995
0
VERTEX
8
CONTOURS_MINEURES
10
6.111
20
67.888
0
VERTEX
8
CONTOURS_MINEURES
10
6.111
20
65.995
0
VERTEX
8
CONTOURS_MINEURES
10
7.678
20
65.677
0
VERTEX
8
CONTOURS_MINEURES
10
7.996
20
65.395
0
VERTEX
8
CONTOURS_MINEURES
10
9.395
20
65.395
0
VERTEX
8
CONTOURS_MINEURES
10
9.998
20
65.395
0
VERTEX
8
CONTOURS_MINEURES
10
11.341
20
64.660
0
VERTEX
8
CONTOURS_MINEURES
10
11.999
20
64.555
0
VERTEX
8
CONTOURS_MINEURES
10
13.447
20
64.555
0
VERTEX
8
CONTOURS_MINEURES
10
14.001
20
64.555
0
VERTEX
8
CONTOURS_MINEURES
10
14.714
20
64.714
0
VERTEX
8
CONTOURS_MINEURES
10
16.003
20
65.040
0
VERTEX
8
CONTOURS_MINEURES
10
17.045
20
65.040
0
VERTEX
8
CONTOURS_MINEURES
10
18.005
20
65.040
0
VERTEX
8
CONTOURS_MINEURES
10
18.960
20
65.040
0
VERTEX
8
CONTOURS_MINEURES
10
19.996
20
65.040
0
VERTEX
8
CONTOURS_MINEURES
10
21.218
20
65.995
0
VERTEX
8
CONTOURS_MINEURES
10
21.218
20
67.216
0
VERTEX
8
CONTOURS_MINEURES
10
21.218
20
67.995
0
VERTEX
8
CONTOURS_MINEURES
10
21.997
20
68.573
0
VERTEX
8
CONTOURS_MINEURES
10
23.422
20
68.573
0
VERTEX
8
CONTOURS_MINEURES
10
23.999
20
68.573
0
VERTEX
8
CONTOURS_MINEURES
10
25.702
20
69.996
0
VERTEX
8
CONTOURS_MINEURES
10
25.702
20
70.295
0
VERTEX
8
CONTOURS_MINEURES
10
25.702
20
71.997
0
VERTEX
8
CONTOURS_MINEURES
10
26.001
20
72.229
0
VERTEX
8
CONTOURS_MINEURES
10
27.770
20
72.229
0
VERTEX
8
CONTOURS_MINEURES
10
28.003
20
72.229
0
VERTEX
8
CONTOURS_MINEURES
10
29.004
20
72.997
0
VERTEX
8
CONTOURS_MINEURES
10
30.005
20
73.763
0
VERTEX
8
CONTOURS_MINEURES
10
30.238
20
73.763
0
VERTEX
8
CONTOURS_MINEURES
10
31.996
20
73.763
0
VERTEX
8
CONTOURS_MINEURES
10
33.763
20
73.763
0
VERTEX
8
CONTOURS_MINEURES
10
33.997
20
73.763
0
VERTEX
8
CONTOURS_MINEURES
10
34.129
20
73.866
0
VERTEX
8
CONTOURS_MINEURES
10
34.374
20
73.998
0
VERTEX
8
CONTOURS_MINEURES
10
34.374
20
75.622
0
VERTEX
8
CONTOURS_MINEURES
10
34.374
20
75.998
0
SEQEND
0
POLYLINE
8
CONTOURS_MINEURES
66
1
70
0
0
VERTEX
8
CONTOURS_MINEURES
10
-0.000
20
73.501
0
VERTEX
8
CONTOURS_MINEURES
10
0.687
20
73.311
0
VERTEX
8
CONTOURS_MINEURES
10
2.001
20
73.138
0
VERTEX
8
CONTOURS_MINEURES
10
3.143
20
73.138
0
VERTEX
8
CONTOURS_MINEURES
10
4.003
20
73.138
0
VERTEX
8
CONTOURS_MINEURES
10
4.863
20
73.138
0
VERTEX
8
CONTOURS_MINEURES
10
6.005
20
73.138
0
VERTEX
8
CONTOURS_MINEURES
10
7.000
20
72.997
0
VERTEX
8
CONTOURS_MINEURES
10
7.996
20
72.931
0
VERTEX
8
CONTOURS_MINEURES
10
9.063
20
72.931
0
VERTEX
8
CONTOURS_MINEURES
10
9.998
20
72.931
0
VERTEX
8
CONTOURS_MINEURES
10
10.889
20
72.888
0
VERTEX
8
CONTOURS_MINEURES
10
11.999
20
72.813
0
VERTEX
8
CONTOURS_MINEURES
10
13.185
20
72.813
0
VERTEX
8
CONTOURS_MINEURES
10
14.001
20
72.813
0
VERTEX
8
CONTOURS_MINEURES
10
14.850
20
72.846
0
VERTEX
8
CONTOURS_MINEURES
10
16.003
20
72.951
0
VERTEX
8
CONTOURS_MINEURES
10
17.050
20
72.951
0
VERTEX
8
CONTOURS_MINEURES
10
18.005
20
72.951
0
VERTEX
8
CONTOURS_MINEURES
10
18.955
20
72.951
0
VERTEX
8
CONTOURS_MINEURES
10
19.996
20
72.951
0
VERTEX
8
CONTOURS_MINEURES
10
20.619
20
73.374
0
VERTEX
8
CONTOURS_MINEURES
10
21.724
20
73.998
0
VERTEX
8
CONTOURS_MINEURES
10
21.724
20
75.726
0
VERTEX
8
CONTOURS_MINEURES
10
21.724
20
75.998
0
SEQEND
0
POLYLINE
8
CONTOURS_MAJEURES
66
1
70
0
0
VERTEX
8
CONTOURS_MAJEURES
10
1.387
20
0.002
0
VERTEX
8
CONTOURS_MAJEURES
10
1.387
20
0.616
0
VERTEX
8
CONTOURS_MAJEURES
10
1.387
20
2.003
0
VERTEX
8
CONTOURS_MAJEURES
10
2.001
20
3.889
0
VERTEX
8
CONTOURS_MAJEURES
10
3.888
20
3.889
0
VERTEX
8
CONTOURS_MAJEURES
10
4.003
20
3.889
0
VERTEX
8
CONTOURS_MAJEURES
10
4.118
20
3.889
0
VERTEX
8
CONTOURS_MAJEURES
10
6.005
20
3.889
0
VERTEX
8
CONTOURS_MAJEURES
10
6.095
20
3.913
0
VERTEX
8
CONTOURS_MAJEURES
10
6.245
20
4.004
0
VERTEX
8
CONTOURS_MAJEURES
10
6.245
20
4.245
0
VERTEX
8
CONTOURS_MAJEURES
10
6.245
20
6.005
0
VERTEX
8
CONTOURS_MAJEURES
10
7.739
20
6.262
0
VERTEX
8
CONTOURS_MAJEURES
10
7.996
20
6.327
0
VERTEX
8
CONTOURS_MAJEURES
10
8.319
20
6.327
0
VERTEX
8
CONTOURS_MAJEURES
10
9.998
20
6.327
0
VERTEX
8
CONTOURS_MAJEURES
10
10.274
20
6.280
0
VERTEX
8
CONTOURS_MAJEURES
10
11.854
20
6.005
0
VERTEX
8
CONTOURS_MAJEURES
10
11.854
20
4.149
0
VERTEX
8
CONTOURS_MAJEURES
10
11.854
20
4.004
0
VERTEX
8
CONTOURS_MAJEURES
10
11.999
20
3.911
0
VERTEX
8
CONTOURS_MAJEURES
10
13.908
20
3.911
0
VERTEX
8
CONTOURS_MAJEURES
10
14.001
20
3.911
0
VERTEX
8
CONTOURS_MAJEURES
10
14.541
20
2.543
0
VERTEX
8
CONTOURS_MAJEURES
10
15.095
20
2.003
0
VERTEX
8
CONTOURS_MAJEURES
10
15.095
20
1.096
0
VERTEX
8
CONTOURS_MAJEURES
10
15.095
20
0.002
0
SEQEND
0
POLYLINE
8
CONTOURS_MAJEURES
66
1
70
0
0
VERTEX
8
CONTOURS_MAJEURES
10
-0.000
20
17.832
0
VERTEX
8
CONTOURS_MAJEURES
10
0.188
20
17.809
0
VERTEX
8
CONTOURS_MAJEURES
10
2.001
20
17.114
0
VERTEX
8
CONTOURS_MAJEURES
10
3.119
20
17.114
0
VERTEX
8
CONTOURS_MAJEURES
10
4.003
20
17.114
0
VERTEX
8
CONTOURS_MAJEURES
10
4.888
20
17.114
0
VERTEX
8
CONTOURS_MAJEURES
10
6.005
20
17.114
0
VERTEX
8
CONTOURS_MAJEURES
10
7.907
20
17.909
0
VERTEX
8
CONTOURS_MAJEURES
10
7.996
20
17.949
0
VERTEX
8
CONTOURS_MAJEURES
10
9.948
20
17.949
0
VERTEX
8
CONTOURS_MAJEURES
10
9.998
20
17.949
0
VERTEX
8
CONTOURS_MAJEURES
10
10.748
20
17.998
0
VERTEX
8
CONTOURS_MAJEURES
10
10.748
20
18.748
0
VERTEX
8
CONTOURS_MAJEURES
10
10.748
20
19.999
0
VERTEX
8
CONTOURS_MAJEURES
10
11.916
20
20.082
0
VERTEX
8
CONTOURS_MAJEURES
10
11.999
20
20.070
0
VERTEX
8
CONTOURS_MAJEURES
10
12.070
20
20.070
0
VERTEX
8
CONTOURS_MAJEURES
10
14.001
20
20.070
0
VERTEX
8
CONTOURS_MAJEURES
10
14.070
20
20.068
0
VERTEX
8
CONTOURS_MAJEURES
10
15.581
20
19.999
0
VERTEX
8
CONTOURS_MAJEURES
10
15.581
20
18.419
0
VERTEX
8
CONTOURS_MAJEURES
10
15.581
20
17.998
0
VERTEX
8
CONTOURS_MAJEURES
10
15.980
20
17.975
0
VERTEX
8
CONTOURS_MAJEURES
10
16.003
20
17.972
0
VERTEX
8
CONTOURS_MAJEURES
10
16.029
20
17.972
0
VERTEX
8
CONTOURS_MAJEURES
10
18.005
20
17.972
0
VERTEX
8
CONTOURS_MAJEURES
10
19.969
20
17.972
0
VERTEX
8
CONTOURS_MAJEURES
10
19.996
20
17.972
0
VERTEX
8
CONTOURS_MAJEURES
10
20.032
20
17.962
0
VERTEX
8
CONTOURS_MAJEURES
10
21.997
20
17.301
0
VERTEX
8
CONTOURS_MAJEURES
10
23.302
20
17.301
0
VERTEX
8
CONTOURS_MAJEURES
10
23.999
20
17.301
0
VERTEX
8
CONTOURS_MAJEURES
10
25.036
20
16.962
0
VERTEX
8
CONTOURS_MAJEURES
10
26.001
20
16.652
0
VERTEX
8
CONTOURS_MAJEURES
10
26.656
20
16.652
0
VERTEX
8
CONTOURS_MAJEURES
10
28.003
20
16.652
0
VERTEX
8
CONTOURS_MAJEURES
10
29.809
20
16.193
0
VERTEX
8
CONTOURS_MAJEURES
10
30.005
20
16.180
0
VERTEX
8
CONTOURS_MAJEURES
10
30.186
20
16.180
0
VERTEX
8
CONTOURS_MAJEURES
10
31.996
20
16.180
0
VERTEX
8
CONTOURS_MAJEURES
10
32.178
20
16.180
0
VERTEX
8
CONTOURS_MAJEURES
10
33.997
20
16.180
0
VERTEX
8
CONTOURS_MAJEURES
10
35.141
20
15.997
0
VERTEX
8
CONTOURS_MAJEURES
10
35.141
20
15.140
0
VERTEX
8
CONTOURS_MAJEURES
10
35.141
20
13.997
0
VERTEX
8
CONTOURS_MAJEURES
10
35.999
20
13.808
0
VERTEX
8
CONTOURS_MAJEURES
10
36.188
20
13.808
0
VERTEX
8
CONTOURS_MAJEURES
10
38.001
20
13.808
0
VERTEX
8
CONTOURS_MAJEURES
10
38.820
20
13.997
0
VERTEX
8
CONTOURS_MAJEURES
10
38.820
20
15.179
0
VERTEX
8
CONTOURS_MAJEURES
10
38.820
20
15.997
0
VERTEX
8
CONTOURS_MAJEURES
10
39.764
20
16.236
0
VERTEX
8
CONTOURS_MAJEURES
10
40.003
20
16.276
0
VERTEX
8
CONTOURS_MAJEURES
10
40.281
20
16.276
0
VERTEX
8
CONTOURS_MAJEURES
10
42.004
20
16.276
0
VERTEX
8
CONTOURS_MAJEURES
10
43.583
20
16.411
0
VERTEX
8
CONTOURS_MAJEURES
10
43.995
20
16.343
0
VERTEX
8
CONTOURS_MAJEURES
10
44.341
20
16.343
0
VERTEX
8
CONTOURS_MAJEURES
10
45.997
20
16.343
0
VERTEX
8
CONTOURS_MAJEURES
10
46.255
20
16.255
0
VERTEX
8
CONTOURS_MAJEURES
10
47.786
20
15.997
0
VERTEX
8
CONTOURS_MAJEURES
10
47.786
20
14.209
0
VERTEX
8
CONTOURS_MAJEURES
10
47.786
20
13.997
0
VERTEX
8
CONTOURS_MAJEURES
10
47.942
20
13.939
0
VERTEX
8
CONTOURS_MAJEURES
10
47.999
20
13.939
0
VERTEX
8
CONTOURS_MAJEURES
10
48.056
20
13.939
0
VERTEX
8
CONTOURS_MAJEURES
10
50.001
20
13.939
0
VERTEX
8
CONTOURS_MAJEURES
10
51.945
20
13.939
0
VERTEX
8
CONTOURS_MAJEURES
10
52.002
20
13.939
0
VERTEX
8
CONTOURS_MAJEURES
10
53.356
20
13.348
0
VERTEX
8
CONTOURS_MAJEURES
10
54.004
20
13.232
0
VERTEX
8
CONTOURS_MAJEURES
10
54.765
20
13.232
0
VERTEX
8
CONTOURS_MAJEURES
10
55.995
20
13.232
0
VERTEX
8
CONTOURS_MAJEURES
10
57.743
20
11.996
0
VERTEX
8
CONTOURS_MAJEURES
10
57.743
20
11.742
0
VERTEX
8
CONTOURS_MAJEURES
10
57.743
20
9.995
0
VERTEX
8
CONTOURS_MAJEURES
10
57.743
20
9.743
0
VERTEX
8
CONTOURS_MAJEURES
10
57.743
20
8.005
0
VERTEX
8
CONTOURS_MAJEURES
10
57.997
20
7.872
0
VERTEX
8
CONTOURS_MAJEURES
10
58.130
20
7.872
0
VERTEX
8
CONTOURS_MAJEURES
10
59.999
20
7.872
0
VERTEX
8
CONTOURS_MAJEURES
10
60.285
20
7.719
0
VERTEX
8
CONTOURS_MAJEURES
10
62.001
20
6.726
0
VERTEX
8
CONTOURS_MAJEURES
10
62.723
20
6.726
0
VERTEX
8
CONTOURS_MAJEURES
10
64.002
20
6.726
0
VERTEX
8
CONTOURS_MAJEURES
10
65.282
20
6.726
0
VERTEX
8
CONTOURS_MAJEURES
10
66.004
20
6.726
0
VERTEX
8
CONTOURS_MAJEURES
10
67.938
20
6.062
0
VERTEX
8
CONTOURS_MAJEURES
10
67.995
20
6.049
0
SEQEND
0
POLYLINE
8
CONTOURS_MAJEURES
66
1
70
0
0
VERTEX
8
CONTOURS_MAJEURES
10
-0.000
20
59.155
0
VERTEX
8
CONTOURS_MAJEURES
10
0.703
20
58.706
0
VERTEX
8
CONTOURS_MAJEURES
10
1.488
20
58.003
0
VERTEX
8
CONTOURS_MAJEURES
10
1.488
20
57.490
0
VERTEX
8
CONTOURS_MAJEURES
10
1.488
20
56.002
0
VERTEX
8
CONTOURS_MAJEURES
10
2.001
20
55.392
0
VERTEX
8
CONTOURS_MAJEURES
10
3.393
20
55.392
0
VERTEX
8
CONTOURS_MAJEURES
10
4.003
20
55.392
0
VERTEX
8
CONTOURS_MAJEURES
10
4.613
20
55.392
0
VERTEX
8
CONTOURS_MAJEURES
10
6.005
20
55.392
0
VERTEX
8
CONTOURS_MAJEURES
10
6.677
20
54.676
0
VERTEX
8
CONTOURS_MAJEURES
10
7.342
20
54.001
0
VERTEX
8
CONTOURS_MAJEURES
10
7.342
20
53.344
0
VERTEX
8
CONTOURS_MAJEURES
10
7.342
20
52.000
0
VERTEX
8
CONTOURS_MAJEURES
10
7.996
20
51.146
0
VERTEX
8
CONTOURS_MAJEURES
10
9.143
20
51.146
0
VERTEX
8
CONTOURS_MAJEURES
10
9.998
20
51.146
0
VERTEX
8
CONTOURS_MAJEURES
10
10.540
20
50.542
0
VERTEX
8
CONTOURS_MAJEURES
10
11.064
20
49.999
0
VERTEX
8
CONTOURS_MAJEURES
10
11.064
20
48.934
0
VERTEX
8
CONTOURS_MAJEURES
10
11.064
20
47.999
0
VERTEX
8
CONTOURS_MAJEURES
10
11.064
20
47.063
0
VERTEX
8
CONTOURS_MAJEURES
10
11.064
20
45.998
0
VERTEX
8
CONTOURS_MAJEURES
10
11.080
20
45.079
0
VERTEX
8
CONTOURS_MAJEURES
10
11.038
20
43.997
0
VERTEX
8
CONTOURS_MAJEURES
10
11.038
20
42.958
0
VERTEX
8
CONTOURS_MAJEURES
10
11.038
20
41.996
0
VERTEX
8
CONTOURS_MAJEURES
10
11.048
20
41.046
0
VERTEX
8
CONTOURS_MAJEURES
10
11.031
20
39.996
0
VERTEX
8
CONTOURS_MAJEURES
10
11.031
20
39.028
0
VERTEX
8
CONTOURS_MAJEURES
10
11.031
20
37.995
0
VERTEX
8
CONTOURS_MAJEURES
10
11.031
20
36.968
0
VERTEX
8
CONTOURS_MAJEURES
10
11.031
20
36.005
0
VERTEX
8
CONTOURS_MAJEURES
10
11.391
20
35.397
0
VERTEX
8
CONTOURS_MAJEURES
10
11.845
20
34.004
0
VERTEX
8
CONTOURS_MAJEURES
10
11.845
20
33.850
0
VERTEX
8
CONTOURS_MAJEURES
10
11.845
20
32.004
0
VERTEX
8
CONTOURS_MAJEURES
10
11.999
20
31.840
0
VERTEX
8
CONTOURS_MAJEURES
10
12.163
20
31.840
0
VERTEX
8
CONTOURS_MAJEURES
10
14.001
20
31.840
0
VERTEX
8
CONTOURS_MAJEURES
10
14.137
20
31.867
0
VERTEX
8
CONTOURS_MAJEURES
10
16.003
20
31.335
0
VERTEX
8
CONTOURS_MAJEURES
10
17.336
20
31.335
0
VERTEX
8
CONTOURS_MAJEURES
10
18.005
20
31.335
0
VERTEX
8
CONTOURS_MAJEURES
10
18.670
20
31.335
0
VERTEX
8
CONTOURS_MAJEURES
10
19.996
20
31.335
0
VERTEX
8
CONTOURS_MAJEURES
10
21.155
20
32.004
0
VERTEX
8
CONTOURS_MAJEURES
10
21.155
20
32.845
0
VERTEX
8
CONTOURS_MAJEURES
10
21.155
20
34.004
0
VERTEX
8
CONTOURS_MAJEURES
10
21.997
20
35.011
0
VERTEX
8
CONTOURS_MAJEURES
10
22.992
20
35.011
0
VERTEX
8
CONTOURS_MAJEURES
10
23.999
20
35.011
0
VERTEX
8
CONTOURS_MAJEURES
10
24.464
20
35.541
0
VERTEX
8
CONTOURS_MAJEURES
10
25.366
20
36.005
0
VERTEX
8
CONTOURS_MAJEURES
10
25.366
20
36.636
0
VERTEX
8
CONTOURS_MAJEURES
10
25.366
20
37.995
0
VERTEX
8
CONTOURS_MAJEURES
10
25.366
20
38.629
0
VERTEX
8
CONTOURS_MAJEURES
10
25.366
20
39.996
0
VERTEX
8
CONTOURS_MAJEURES
10
26.001
20
40.959
0
VERTEX
8
CONTOURS_MAJEURES
10
27.039
20
40.959
0
VERTEX
8
CONTOURS_MAJEURES
10
28.003
20
40.959
0
VERTEX
8
CONTOURS_MAJEURES
10
29.955
20
41.946
0
VERTEX
8
CONTOURS_MAJEURES
10
30.005
20
41.974
0
VERTEX
8
CONTOURS_MAJEURES
10
31.973
20
41.974
0
VERTEX
8
CONTOURS_MAJEURES
10
31.996
20
41.974
0
VERTEX
8
CONTOURS_MAJEURES
10
33.975
20
41.974
0
VERTEX
8
CONTOURS_MAJEURES
10
33.997
20
41.974
0
VERTEX
8
CONTOURS_MAJEURES
10
34.021
20
41.972
0
VERTEX
8
CONTOURS_MAJEURES
10
34.051
20
41.996
0
VERTEX
8
CONTOURS_MAJEURES
10
34.051
20
42.050
0
VERTEX
8
CONTOURS_MAJEURES
10
34.051
20
43.997
0
VERTEX
8
CONTOURS_MAJEURES
10
35.999
20
45.712
0
VERTEX
8
CONTOURS_MAJEURES
10
36.285
20
45.712
0
VERTEX
8
CONTOURS_MAJEURES
10
38.001
20
45.712
0
VERTEX
8
CONTOURS_MAJEURES
10
38.752
20
45.998
0
VERTEX
8
CONTOURS_MAJEURES
10
38.752
20
47.248
0
VERTEX
8
CONTOURS_MAJEURES
10
38.752
20
47.999
0
VERTEX
8
CONTOURS_MAJEURES
10
38.752
20
49.249
0
VERTEX
8
CONTOURS_MAJEURES
10
38.752
20
49.999
0
VERTEX
8
CONTOURS_MAJEURES
10
40.003
20
50.266
0
VERTEX
8
CONTOURS_MAJEURES
10
40.270
20
50.266
0
VERTEX
8
CONTOURS_MAJEURES
10
42.004
20
50.266
0
VERTEX
8
CONTOURS_MAJEURES
10
43.214
20
50.785
0
VERTEX
8
CONTOURS_MAJEURES
10
43.995
20
51.200
0
VERTEX
8
CONTOURS_MAJEURES
10
45.196
20
51.200
0
VERTEX
8
CONTOURS_MAJEURES
10
45.997
20
51.200
0
VERTEX
8
CONTOURS_MAJEURES
10
47.016
20
52.000
0
VERTEX
8
CONTOURS_MAJEURES
10
47.016
20
52.982
0
VERTEX
8
CONTOURS_MAJEURES
10
47.016
20
54.001
0
VERTEX
8
CONTOURS_MAJEURES
10
47.629
20
54.371
0
VERTEX
8
CONTOURS_MAJEURES
10
47.999
20
54.694
0
VERTEX
8
CONTOURS_MAJEURES
10
48.692
20
54.694
0
VERTEX
8
CONTOURS_MAJEURES
10
50.001
20
54.694
0
VERTEX
8
CONTOURS_MAJEURES
10
51.310
20
54.694
0
VERTEX
8
CONTOURS_MAJEURES
10
52.002
20
54.694
0
VERTEX
8
CONTOURS_MAJEURES
10
53.346
20
56.002
0
VERTEX
8
CONTOURS_MAJEURES
10
53.346
20
57.344
0
VERTEX
8
CONTOURS_MAJEURES
10
53.346
20
58.003
0
VERTEX
8
CONTOURS_MAJEURES
10
54.004
20
59.090
0
VERTEX
8
CONTOURS_MAJEURES
10
54.913
20
59.090
0
VERTEX
8
CONTOURS_MAJEURES
10
55.995
20
59.090
0
VERTEX
8
CONTOURS_MAJEURES
10
56.502
20
60.003
0
VERTEX
8
CONTOURS_MAJEURES
10
56.502
20
61.498
0
VERTEX
8
CONTOURS_MAJEURES
10
56.502
20
62.004
0
VERTEX
8
CONTOURS_MAJEURES
10
56.502
20
62.510
0
VERTEX
8
CONTOURS_MAJEURES
10
56.502
20
64.005
0
VERTEX
8
CONTOURS_MAJEURES
10
56.520
20
65.473
0
VERTEX
8
CONTOURS_MAJEURES
10
56.616
20
65.995
0
VERTEX
8
CONTOURS_MAJEURES
10
56.616
20
66.615
0
VERTEX
8
CONTOURS_MAJEURES
10
56.616
20
67.995
0
VERTEX
8
CONTOURS_MAJEURES
10
57.997
20
69.577
0
VERTEX
8
CONTOURS_MAJEURES
10
59.579
20
69.577
0
VERTEX
8
CONTOURS_MAJEURES
10
59.999
20
69.577
0
VERTEX
8
CONTOURS_MAJEURES
10
60.519
20
69.996
0
VERTEX
8
CONTOURS_MAJEURES
10
60.519
20
70.516
0
VERTEX
8
CONTOURS_MAJEURES
10
60.519
20
71.997
0
VERTEX
8
CONTOURS_MAJEURES
10
61.460
20
72.537
0
VERTEX
8
CONTOURS_MAJEURES
10
62.001
20
72.709
0
VERTEX
8
CONTOURS_MAJEURES
10
62.713
20
72.709
0
VERTEX
8
CONTOURS_MAJEURES
10
64.002
20
72.709
0
VERTEX
8
CONTOURS_MAJEURES
10
65.292
20
72.709
0
VERTEX
8
CONTOURS_MAJEURES
10
66.004
20
72.709
0
VERTEX
8
CONTOURS_MAJEURES
10
66.841
20
72.838
0
VERTEX
8
CONTOURS_MAJEURES
10
67.995
20
73.078
0
SEQEND
0
POLYLINE
8
PARCELLE
66
1
70
1
0
VERTEX
8
PARCELLE
10
20.000
20
43.507
0
VERTEX
8
PARCELLE
10
34.309
20
56.487
0
VERTEX
8
PARCELLE
10
48.623
20
33.596
0
VERTEX
8
PARCELLE
10
42.869
20
26.016
0
VERTEX
8
PARCELLE
10
34.686
20
23.200
0
VERTEX
8
PARCELLE
10
30.582
20
22.597
0
VERTEX
8
PARCELLE
10
26.881
20
21.210
0
VERTEX
8
PARCELLE
10
26.041
20
20.000
0
VERTEX
8
PARCELLE
10
20.000
20
43.507
0
SEQEND
0
TEXT
8
POINTS_COTES
10
-0.000
20
0.002
40
1.0
1
92.6
0
TEXT
8
POINTS_COTES
10
66.004
20
2.003
40
1.0
1
95.8
0
TEXT
8
POINTS_COTES
10
62.001
20
6.005
40
1.0
1
98.9
0
TEXT
8
POINTS_COTES
10
57.997
20
9.995
40
1.0
1
100.2
0
TEXT
8
POINTS_COTES
10
54.004
20
13.997
40
1.0
1
100.8
0
TEXT
8
POINTS_COTES
10
50.001
20
17.998
40
1.0
1
102.8
0
TEXT
8
POINTS_COTES
10
45.997
20
22.000
40
1.0
1
105.5
0
TEXT
8
POINTS_COTES
10
42.004
20
26.001
40
1.0
1
104.7
0
TEXT
8
POINTS_COTES
10
38.001
20
30.003
40
1.0
1
106.2
0
TEXT
8
POINTS_COTES
10
33.997
20
34.004
40
1.0
1
107.1
0
TEXT
8
POINTS_COTES
10
30.005
20
37.995
40
1.0
1
109.1
0
TEXT
8
POINTS_COTES
10
26.001
20
41.996
40
1.0
1
110.4
0
TEXT
8
POINTS_COTES
10
21.997
20
45.998
40
1.0
1
111.5
0
TEXT
8
POINTS_COTES
10
18.005
20
49.999
40
1.0
1
111.9
0
TEXT
8
POINTS_COTES
10
14.001
20
54.001
40
1.0
1
112.4
0
TEXT
8
POINTS_COTES
10
9.998
20
58.003
40
1.0
1
112.7
0
TEXT
8
POINTS_COTES
10
6.005
20
62.004
40
1.0
1
113.2
0
TEXT
8
POINTS_COTES
10
2.001
20
65.995
40
1.0
1
116.0
0
TEXT
8
POINTS_COTES
10
67.995
20
67.995
40
1.0
1
108.9
0
TEXT
8
POINTS_COTES
10
64.002
20
71.997
40
1.0
1
109.6
0
TEXT
8
POINTS_COTES
10
59.999
20
75.998
40
1.0
1
111.0
0
ENDSEC
0
EOF
