0
SECTION
2
HEADER
0
ENDSEC
0
SECTION
2
TABLES
0
TABLE
2
LAYER
70
4
0
LAYER
2
CONTOURS_MINEURES
70
0
62
8
6
CONTINUOUS
0
LAYER
2
CONTOURS_MAJEURES
70
0
62
3
6
CONTINUOUS
0
LAYER
2
PARCELLE
70
0
62
4
6
CONTINUOUS
0
LAYER
2
POINTS_COTES
70
0
62
7
6
CONTINUOUS
0
ENDTAB
0
ENDSEC
0
SECTION
2
ENTITIES
0
POLYLINE
8
CONTOURS_MINEURES
66
1
70
0
0
VERTEX
8
CONTOURS_MINEURES
10
50.004
20
41.387
0
VERTEX
8
CONTOURS_MINEURES
10
49.387
20
41.387
0
VERTEX
8
CONTOURS_MINEURES
10
48.000
20
41.387
0
VERTEX
8
CONTOURS_MINEURES
10
46.959
20
41.041
0
VERTEX
8
CONTOURS_MINEURES
10
45.996
20
40.753
0
VERTEX
8
CONTOURS_MINEURES
10
44.750
20
40.753
0
VERTEX
8
CONTOURS_MINEURES
10
44.002
20
40.753
0
VERTEX
8
CONTOURS_MINEURES
10
43.251
20
40.753
0
VERTEX
8
CONTOURS_MINEURES
10
41.998
20
40.753
0
VERTEX
8
CONTOURS_MINEURES
10
41.092
20
40.912
0
VERTEX
8
CONTOURS_MINEURES
10
40.424
20
40.002
0
VERTEX
8
CONTOURS_MINEURES
10
40.424
20
38.423
0
VERTEX
8
CONTOURS_MINEURES
10
40.424
20
38.001
0
VERTEX
8
CONTOURS_MINEURES
10
40.084
20
37.922
0
VERTEX
8
CONTOURS_MINEURES
10
40.005
20
37.850
0
VERTEX
8
CONTOURS_MINEURES
10
39.853
20
37.850
0
VERTEX
8
CONTOURS_MINEURES
10
38.000
20
37.850
0
VERTEX
8
CONTOURS_MINEURES
10
37.199
20
38.001
0
VERTEX
8
CONTOURS_MINEURES
10
37.199
20
38.802
0
VERTEX
8
CONTOURS_MINEURES
10
37.199
20
40.002
0
VERTEX
8
CONTOURS_MINEURES
10
36.497
20
40.502
0
VERTEX
8
CONTOURS_MINEURES
10
35.996
20
42.003
0
VERTEX
8
CONTOURS_MINEURES
10
35.996
20
44.004
0
VERTEX
8
CONTOURS_MINEURES
10
34.003
20
44.004
0
VERTEX
8
CONTOURS_MINEURES
10
31.998
20
45.004
0
VERTEX
8
CONTOURS_MINEURES
10
31.002
20
45.004
0
VERTEX
8
CONTOURS_MINEURES
10
30.005
20
45.004
0
VERTEX
8
CONTOURS_MINEURES
10
29.003
20
45.004
0
VERTEX
8
CONTOURS_MINEURES
10
28.001
20
45.004
0
VERTEX
8
CONTOURS_MINEURES
10
26.855
20
45.147
0
VERTEX
8
CONTOURS_MINEURES
10
26.219
20
44.004
0
VERTEX
8
CONTOURS_MINEURES
10
26.219
20
43.781
0
VERTEX
8
CONTOURS_MINEURES
10
26.219
20
42.003
0
VERTEX
8
CONTOURS_MINEURES
10
26.130
20
41.870
0
VERTEX
8
CONTOURS_MINEURES
10
25.997
20
41.878
0
VERTEX
8
CONTOURS_MINEURES
10
25.872
20
41.878
0
VERTEX
8
CONTOURS_MINEURES
10
24.003
20
41.878
0
VERTEX
8
CONTOURS_MINEURES
10
21.999
20
42.003
0
VERTEX
8
CONTOURS_MINEURES
10
21.999
20
44.004
0
VERTEX
8
CONTOURS_MINEURES
10
20.005
20
44.004
0
VERTEX
8
CONTOURS_MINEURES
10
19.671
20
46.005
0
VERTEX
8
CONTOURS_MINEURES
10
19.671
20
46.338
0
VERTEX
8
CONTOURS_MINEURES
10
19.671
20
48.005
0
VERTEX
8
CONTOURS_MINEURES
10
19.671
20
49.663
0
VERTEX
8
CONTOURS_MINEURES
10
19.671
20
49.995
0
VERTEX
8
CONTOURS_MINEURES
10
18.001
20
51.996
0
VERTEX
8
CONTOURS_MINEURES
10
18.001
20
53.997
0
VERTEX
8
CONTOURS_MINEURES
10
15.997
20
53.997
0
VERTEX
8
CONTOURS_MINEURES
10
14.003
20
53.997
0
VERTEX
8
CONTOURS_MINEURES
10
12.357
20
54.354
0
VERTEX
8
CONTOURS_MINEURES
10
11.999
20
55.247
0
VERTEX
8
CONTOURS_MINEURES
10
10.747
20
55.247
0
VERTEX
8
CONTOURS_MINEURES
10
9.995
20
55.247
0
VERTEX
8
CONTOURS_MINEURES
10
9.089
20
54.906
0
VERTEX
8
CONTOURS_MINEURES
10
8.002
20
55.197
0
VERTEX
8
CONTOURS_MINEURES
10
7.200
20
55.197
0
VERTEX
8
CONTOURS_MINEURES
10
5.997
20
55.197
0
VERTEX
8
CONTOURS_MINEURES
10
4.716
20
55.283
0
VERTEX
8
CONTOURS_MINEURES
10
4.004
20
55.613
0
VERTEX
8
CONTOURS_MINEURES
10
2.385
20
55.613
0
VERTEX
8
CONTOURS_MINEURES
10
2.000
20
55.613
0
VERTEX
8
CONTOURS_MINEURES
10
0.381
20
55.613
0
VERTEX
8
CONTOURS_MINEURES
10
-0.005
20
55.613
0
SEQEND
0
POLYLINE
8
CONTOURS_MINEURES
66
1
70
0
0
VERTEX
8
CONTOURS_MINEURES
10
50.004
20
36.129
0
VERTEX
8
CONTOURS_MINEURES
10
48.128
20
36.129
0
VERTEX
8
CONTOURS_MINEURES
10
48.000
20
36.129
0
VERTEX
8
CONTOURS_MINEURES
10
47.889
20
36.112
0
VERTEX
8
CONTOURS_MINEURES
10
46.747
20
36.001
0
VERTEX
8
CONTOURS_MINEURES
10
46.747
20
34.750
0
VERTEX
8
CONTOURS_MINEURES
10
46.747
20
34.000
0
VERTEX
8
CONTOURS_MINEURES
10
46.747
20
33.250
0
VERTEX
8
CONTOURS_MINEURES
10
46.747
20
31.999
0
VERTEX
8
CONTOURS_MINEURES
10
45.996
20
31.929
0
VERTEX
8
CONTOURS_MINEURES
10
44.073
20
31.929
0
VERTEX
8
CONTOURS_MINEURES
10
44.002
20
31.929
0
VERTEX
8
CONTOURS_MINEURES
10
42.069
20
31.929
0
VERTEX
8
CONTOURS_MINEURES
10
41.998
20
31.929
0
VERTEX
8
CONTOURS_MINEURES
10
41.624
20
31.624
0
VERTEX
8
CONTOURS_MINEURES
10
40.005
20
30.405
0
VERTEX
8
CONTOURS_MINEURES
10
39.597
20
30.405
0
VERTEX
8
CONTOURS_MINEURES
10
38.000
20
30.405
0
VERTEX
8
CONTOURS_MINEURES
10
37.160
20
29.998
0
VERTEX
8
CONTOURS_MINEURES
10
37.160
20
29.159
0
VERTEX
8
CONTOURS_MINEURES
10
37.160
20
27.998
0
VERTEX
8
CONTOURS_MINEURES
10
36.297
20
27.697
0
VERTEX
8
CONTOURS_MINEURES
10
35.996
20
27.444
0
VERTEX
8
CONTOURS_MINEURES
10
35.444
20
27.444
0
VERTEX
8
CONTOURS_MINEURES
10
34.003
20
27.444
0
VERTEX
8
CONTOURS_MINEURES
10
33.411
20
27.407
0
VERTEX
8
CONTOURS_MINEURES
10
31.998
20
27.620
0
VERTEX
8
CONTOURS_MINEURES
10
30.381
20
27.620
0
VERTEX
8
CONTOURS_MINEURES
10
30.005
20
27.620
0
VERTEX
8
CONTOURS_MINEURES
10
28.379
20
27.620
0
VERTEX
8
CONTOURS_MINEURES
10
28.001
20
27.620
0
VERTEX
8
CONTOURS_MINEURES
10
27.726
20
27.723
0
VERTEX
8
CONTOURS_MINEURES
10
25.997
20
27.966
0
VERTEX
8
CONTOURS_MINEURES
10
24.034
20
27.966
0
VERTEX
8
CONTOURS_MINEURES
10
24.003
20
27.966
0
VERTEX
8
CONTOURS_MINEURES
10
23.984
20
27.979
0
VERTEX
8
CONTOURS_MINEURES
10
23.753
20
27.998
0
VERTEX
8
CONTOURS_MINEURES
10
23.753
20
28.248
0
VERTEX
8
CONTOURS_MINEURES
10
23.753
20
29.998
0
VERTEX
8
CONTOURS_MINEURES
10
22.269
20
30.268
0
VERTEX
8
CONTOURS_MINEURES
10
21.999
20
30.232
0
VERTEX
8
CONTOURS_MINEURES
10
20.238
20
30.232
0
VERTEX
8
CONTOURS_MINEURES
10
20.005
20
30.232
0
VERTEX
8
CONTOURS_MINEURES
10
19.755
20
30.248
0
VERTEX
8
CONTOURS_MINEURES
10
18.001
20
30.599
0
VERTEX
8
CONTOURS_MINEURES
10
17.400
20
30.599
0
VERTEX
8
CONTOURS_MINEURES
10
15.997
20
30.599
0
VERTEX
8
CONTOURS_MINEURES
10
14.602
20
30.599
0
VERTEX
8
CONTOURS_MINEURES
10
14.003
20
30.599
0
VERTEX
8
CONTOURS_MINEURES
10
12.676
20
30.674
0
VERTEX
8
CONTOURS_MINEURES
10
11.999
20
30.768
0
VERTEX
8
CONTOURS_MINEURES
10
10.766
20
30.768
0
VERTEX
8
CONTOURS_MINEURES
10
9.995
20
30.768
0
VERTEX
8
CONTOURS_MINEURES
10
9.089
20
30.908
0
VERTEX
8
CONTOURS_MINEURES
10
8.002
20
30.460
0
VERTEX
8
CONTOURS_MINEURES
10
6.460
20
30.460
0
VERTEX
8
CONTOURS_MINEURES
10
5.997
20
30.460
0
VERTEX
8
CONTOURS_MINEURES
10
4.366
20
31.635
0
VERTEX
8
CONTOURS_MINEURES
10
4.004
20
31.599
0
VERTEX
8
CONTOURS_MINEURES
10
3.603
20
31.599
0
VERTEX
8
CONTOURS_MINEURES
10
2.000
20
31.599
0
VERTEX
8
CONTOURS_MINEURES
10
0.396
20
31.599
0
VERTEX
8
CONTOURS_MINEURES
10
-0.005
20
31.599
0
SEQEND
0
POLYLINE
8
CONTOURS_MINEURES
66
1
70
0
0
VERTEX
8
CONTOURS_MINEURES
10
50.004
20
30.287
0
VERTEX
8
CONTOURS_MINEURES
10
49.715
20
30.287
0
VERTEX
8
CONTOURS_MINEURES
10
48.000
20
30.287
0
VERTEX
8
CONTOURS_MINEURES
10
47.057
20
29.998
0
VERTEX
8
CONTOURS_MINEURES
10
47.057
20
28.939
0
VERTEX
8
CONTOURS_MINEURES
10
47.057
20
27.998
0
VERTEX
8
CONTOURS_MINEURES
10
45.996
20
27.618
0
VERTEX
8
CONTOURS_MINEURES
10
44.380
20
27.618
0
VERTEX
8
CONTOURS_MINEURES
10
44.002
20
27.618
0
VERTEX
8
CONTOURS_MINEURES
10
42.378
20
27.618
0
VERTEX
8
CONTOURS_MINEURES
10
41.998
20
27.618
0
VERTEX
8
CONTOURS_MINEURES
10
41.062
20
26.936
0
VERTEX
8
CONTOURS_MINEURES
10
40.005
20
26.042
0
VERTEX
8
CONTOURS_MINEURES
10
38.045
20
26.042
0
VERTEX
8
CONTOURS_MINEURES
10
38.000
20
26.042
0
VERTEX
8
CONTOURS_MINEURES
10
37.967
20
26.030
0
VERTEX
8
CONTOURS_MINEURES
10
37.927
20
25.997
0
VERTEX
8
CONTOURS_MINEURES
10
37.927
20
24.069
0
VERTEX
8
CONTOURS_MINEURES
10
37.927
20
23.996
0
VERTEX
8
CONTOURS_MINEURES
10
35.996
20
22.903
0
VERTEX
8
CONTOURS_MINEURES
10
35.092
20
22.903
0
VERTEX
8
CONTOURS_MINEURES
10
34.003
20
22.903
0
VERTEX
8
CONTOURS_MINEURES
10
32.370
20
21.995
0
VERTEX
8
CONTOURS_MINEURES
10
32.370
20
21.627
0
VERTEX
8
CONTOURS_MINEURES
10
32.370
20
20.006
0
VERTEX
8
CONTOURS_MINEURES
10
32.370
20
18.375
0
VERTEX
8
CONTOURS_MINEURES
10
32.370
20
18.005
0
VERTEX
8
CONTOURS_MINEURES
10
32.082
20
17.922
0
VERTEX
8
CONTOURS_MINEURES
10
31.998
20
17.885
0
VERTEX
8
CONTOURS_MINEURES
10
31.879
20
17.885
0
VERTEX
8
CONTOURS_MINEURES
10
30.005
20
17.885
0
VERTEX
8
CONTOURS_MINEURES
10
28.121
20
17.885
0
VERTEX
8
CONTOURS_MINEURES
10
28.001
20
17.885
0
VERTEX
8
CONTOURS_MINEURES
10
27.845
20
17.850
0
VERTEX
8
CONTOURS_MINEURES
10
25.997
20
17.988
0
VERTEX
8
CONTOURS_MINEURES
10
24.020
20
17.988
0
VERTEX
8
CONTOURS_MINEURES
10
24.003
20
17.988
0
VERTEX
8
CONTOURS_MINEURES
10
23.963
20
18.005
0
VERTEX
8
CONTOURS_MINEURES
10
23.963
20
19.966
0
VERTEX
8
CONTOURS_MINEURES
10
23.963
20
20.006
0
VERTEX
8
CONTOURS_MINEURES
10
23.963
20
20.045
0
VERTEX
8
CONTOURS_MINEURES
10
23.963
20
21.995
0
VERTEX
8
CONTOURS_MINEURES
10
23.141
20
23.135
0
VERTEX
8
CONTOURS_MINEURES
10
22.194
20
23.996
0
VERTEX
8
CONTOURS_MINEURES
10
22.194
20
25.802
0
VERTEX
8
CONTOURS_MINEURES
10
22.194
20
25.997
0
VERTEX
8
CONTOURS_MINEURES
10
22.075
20
26.073
0
VERTEX
8
CONTOURS_MINEURES
10
21.999
20
26.079
0
VERTEX
8
CONTOURS_MINEURES
10
21.917
20
26.079
0
VERTEX
8
CONTOURS_MINEURES
10
20.005
20
26.079
0
VERTEX
8
CONTOURS_MINEURES
10
18.263
20
26.259
0
VERTEX
8
CONTOURS_MINEURES
10
18.001
20
26.298
0
VERTEX
8
CONTOURS_MINEURES
10
16.299
20
26.298
0
VERTEX
8
CONTOURS_MINEURES
10
15.997
20
26.298
0
VERTEX
8
CONTOURS_MINEURES
10
14.304
20
26.298
0
VERTEX
8
CONTOURS_MINEURES
10
14.003
20
26.298
0
VERTEX
8
CONTOURS_MINEURES
10
13.001
20
25.997
0
VERTEX
8
CONTOURS_MINEURES
10
13.001
20
24.996
0
VERTEX
8
CONTOURS_MINEURES
10
13.001
20
23.996
0
VERTEX
8
CONTOURS_MINEURES
10
11.999
20
23.313
0
VERTEX
8
CONTOURS_MINEURES
10
10.679
20
23.313
0
VERTEX
8
CONTOURS_MINEURES
10
9.995
20
23.313
0
VERTEX
8
CONTOURS_MINEURES
10
8.500
20
21.995
0
VERTEX
8
CONTOURS_MINEURES
10
8.500
20
20.503
0
VERTEX
8
CONTOURS_MINEURES
10
8.500
20
20.006
0
VERTEX
8
CONTOURS_MINEURES
10
8.500
20
19.505
0
VERTEX
8
CONTOURS_MINEURES
10
8.500
20
18.005
0
VERTEX
8
CONTOURS_MINEURES
10
8.002
20
17.254
0
VERTEX
8
CONTOURS_MINEURES
10
7.250
20
17.254
0
VERTEX
8
CONTOURS_MINEURES
10
5.997
20
17.254
0
VERTEX
8
CONTOURS_MINEURES
10
5.250
20
16.754
0
VERTEX
8
CONTOURS_MINEURES
10
4.004
20
16.868
0
VERTEX
8
CONTOURS_MINEURES
10
3.138
20
16.868
0
VERTEX
8
CONTOURS_MINEURES
10
2.000
20
16.868
0
VERTEX
8
CONTOURS_MINEURES
10
1.134
20
16.868
0
VERTEX
8
CONTOURS_MINEURES
10
-0.005
20
16.868
0
SEQEND
0
POLYLINE
8
CONTOURS_MINEURES
66
1
70
0
0
VERTEX
8
CONTOURS_MINEURES
10
50.004
20
26.585
0
VERTEX
8
CONTOURS_MINEURES
10
48.589
20
26.585
0
VERTEX
8
CONTOURS_MINEURES
10
48.000
20
26.585
0
VERTEX
8
CONTOURS_MINEURES
10
46.790
20
25.997
0
VERTEX
8
CONTOURS_MINEURES
10
46.790
20
25.203
0
VERTEX
8
CONTOURS_MINEURES
10
46.790
20
23.996
0
VERTEX
8
CONTOURS_MINEURES
10
46.262
20
23.730
0
VERTEX
8
CONTOURS_MINEURES
10
45.996
20
23.570
0
VERTEX
8
CONTOURS_MINEURES
10
45.571
20
23.570
0
VERTEX
8
CONTOURS_MINEURES
10
44.002
20
23.570
0
VERTEX
8
CONTOURS_MINEURES
10
42.425
20
23.570
0
VERTEX
8
CONTOURS_MINEURES
10
41.998
20
23.570
0
VERTEX
8
CONTOURS_MINEURES
10
41.081
20
23.076
0
VERTEX
8
CONTOURS_MINEURES
10
40.005
20
22.427
0
VERTEX
8
CONTOURS_MINEURES
10
39.572
20
22.427
0
VERTEX
8
CONTOURS_MINEURES
10
38.000
20
22.427
0
VERTEX
8
CONTOURS_MINEURES
10
37.348
20
21.995
0
VERTEX
8
CONTOURS_MINEURES
10
37.348
20
20.653
0
VERTEX
8
CONTOURS_MINEURES
10
37.348
20
20.006
0
VERTEX
8
CONTOURS_MINEURES
10
37.348
20
19.355
0
VERTEX
8
CONTOURS_MINEURES
10
37.348
20
18.005
0
VERTEX
8
CONTOURS_MINEURES
10
36.484
20
17.518
0
VERTEX
8
CONTOURS_MINEURES
10
35.996
20
17.406
0
VERTEX
8
CONTOURS_MINEURES
10
35.399
20
17.406
0
VERTEX
8
CONTOURS_MINEURES
10
34.003
20
17.406
0
VERTEX
8
CONTOURS_MINEURES
10
32.913
20
17.092
0
VERTEX
8
CONTOURS_MINEURES
10
31.998
20
16.687
0
VERTEX
8
CONTOURS_MINEURES
10
30.685
20
16.687
0
VERTEX
8
CONTOURS_MINEURES
10
30.005
20
16.687
0
VERTEX
8
CONTOURS_MINEURES
10
29.321
20
16.687
0
VERTEX
8
CONTOURS_MINEURES
10
28.001
20
16.687
0
VERTEX
8
CONTOURS_MINEURES
10
26.292
20
16.299
0
VERTEX
8
CONTOURS_MINEURES
10
25.997
20
16.321
0
VERTEX
8
CONTOURS_MINEURES
10
25.681
20
16.321
0
VERTEX
8
CONTOURS_MINEURES
10
24.003
20
16.321
0
VERTEX
8
CONTOURS_MINEURES
10
23.459
20
16.547
0
VERTEX
8
CONTOURS_MINEURES
10
21.999
20
16.149
0
VERTEX
8
CONTOURS_MINEURES
10
20.150
20
16.149
0
VERTEX
8
CONTOURS_MINEURES
10
20.005
20
16.149
0
VERTEX
8
CONTOURS_MINEURES
10
19.848
20
16.161
0
VERTEX
8
CONTOURS_MINEURES
10
19.770
20
16.004
0
VERTEX
8
CONTOURS_MINEURES
10
19.770
20
15.769
0
VERTEX
8
CONTOURS_MINEURES
10
19.770
20
14.003
0
VERTEX
8
CONTOURS_MINEURES
10
18.001
20
12.238
0
VERTEX
8
CONTOURS_MINEURES
10
17.765
20
12.238
0
VERTEX
8
CONTOURS_MINEURES
10
15.997
20
12.238
0
VERTEX
8
CONTOURS_MINEURES
10
14.238
20
12.238
0
VERTEX
8
CONTOURS_MINEURES
10
14.003
20
12.238
0
VERTEX
8
CONTOURS_MINEURES
10
13.884
20
12.122
0
VERTEX
8
CONTOURS_MINEURES
10
13.825
20
12.002
0
VERTEX
8
CONTOURS_MINEURES
10
13.825
20
11.825
0
VERTEX
8
CONTOURS_MINEURES
10
13.825
20
10.002
0
VERTEX
8
CONTOURS_MINEURES
10
12.978
20
9.025
0
VERTEX
8
CONTOURS_MINEURES
10
12.492
20
8.001
0
VERTEX
8
CONTOURS_MINEURES
10
12.492
20
6.492
0
VERTEX
8
CONTOURS_MINEURES
10
12.492
20
6.000
0
VERTEX
8
CONTOURS_MINEURES
10
12.492
20
4.491
0
VERTEX
8
CONTOURS_MINEURES
10
12.492
20
3.999
0
VERTEX
8
CONTOURS_MINEURES
10
11.999
20
3.175
0
VERTEX
8
CONTOURS_MINEURES
10
11.174
20
3.175
0
VERTEX
8
CONTOURS_MINEURES
10
9.995
20
3.175
0
VERTEX
8
CONTOURS_MINEURES
10
8.666
20
3.332
0
VERTEX
8
CONTOURS_MINEURES
10
8.002
20
3.660
0
VERTEX
8
CONTOURS_MINEURES
10
7.662
20
3.660
0
VERTEX
8
CONTOURS_MINEURES
10
5.997
20
3.660
0
VERTEX
8
CONTOURS_MINEURES
10
5.870
20
3.871
0
VERTEX
8
CONTOURS_MINEURES
10
5.763
20
3.999
0
VERTEX
8
CONTOURS_MINEURES
10
5.763
20
5.765
0
VERTEX
8
CONTOURS_MINEURES
10
5.763
20
6.000
0
VERTEX
8
CONTOURS_MINEURES
10
5.763
20
6.235
0
VERTEX
8
CONTOURS_MINEURES
10
5.763
20
8.001
0
VERTEX
8
CONTOURS_MINEURES
10
4.004
20
9.580
0
VERTEX
8
CONTOURS_MINEURES
10
3.582
20
9.580
0
VERTEX
8
CONTOURS_MINEURES
10
2.000
20
9.580
0
VERTEX
8
CONTOURS_MINEURES
10
0.417
20
9.580
0
VERTEX
8
CONTOURS_MINEURES
10
-0.005
20
9.580
0
SEQEND
0
POLYLINE
8
CONTOURS_MINEURES
66
1
70
0
0
VERTEX
8
CONTOURS_MINEURES
10
4.949
20
-0.002
0
VERTEX
8
CONTOURS_MINEURES
10
4.949
20
0.947
0
VERTEX
8
CONTOURS_MINEURES
10
4.949
20
1.999
0
VERTEX
8
CONTOURS_MINEURES
10
4.592
20
2.589
0
VERTEX
8
CONTOURS_MINEURES
10
4.004
20
3.295
0
VERTEX
8
CONTOURS_MINEURES
10
3.298
20
3.295
0
VERTEX
8
CONTOURS_MINEURES
10
2.000
20
3.295
0
VERTEX
8
CONTOURS_MINEURES
10
1.294
20
3.295
0
VERTEX
8
CONTOURS_MINEURES
10
-0.005
20
3.295
0
SEQEND
0
POLYLINE
8
CONTOURS_MINEURES
66
1
70
0
0
VERTEX
8
CONTOURS_MINEURES
10
50.004
20
22.865
0
VERTEX
8
CONTOURS_MINEURES
10
48.871
20
22.865
0
VERTEX
8
CONTOURS_MINEURES
10
48.000
20
22.865
0
VERTEX
8
CONTOURS_MINEURES
10
47.421
20
22.574
0
VERTEX
8
CONTOURS_MINEURES
10
46.458
20
21.995
0
VERTEX
8
CONTOURS_MINEURES
10
46.458
20
20.465
0
VERTEX
8
CONTOURS_MINEURES
10
46.458
20
20.006
0
VERTEX
8
CONTOURS_MINEURES
10
46.458
20
19.544
0
VERTEX
8
CONTOURS_MINEURES
10
46.458
20
18.005
0
VERTEX
8
CONTOURS_MINEURES
10
45.996
20
17.679
0
VERTEX
8
CONTOURS_MINEURES
10
45.671
20
17.679
0
VERTEX
8
CONTOURS_MINEURES
10
44.002
20
17.679
0
VERTEX
8
CONTOURS_MINEURES
10
42.325
20
17.679
0
VERTEX
8
CONTOURS_MINEURES
10
41.998
20
17.679
0
VERTEX
8
CONTOURS_MINEURES
10
41.662
20
17.668
0
VERTEX
8
CONTOURS_MINEURES
10
40.005
20
17.011
0
VERTEX
8
CONTOURS_MINEURES
10
38.996
20
17.011
0
VERTEX
8
CONTOURS_MINEURES
10
38.000
20
17.011
0
VERTEX
8
CONTOURS_MINEURES
10
37.355
20
16.648
0
VERTEX
8
CONTOURS_MINEURES
10
35.996
20
16.336
0
VERTEX
8
CONTOURS_MINEURES
10
34.333
20
16.336
0
VERTEX
8
CONTOURS_MINEURES
10
34.003
20
16.336
0
VERTEX
8
CONTOURS_MINEURES
10
33.745
20
16.261
0
VERTEX
8
CONTOURS_MINEURES
10
33.163
20
16.004
0
VERTEX
8
CONTOURS_MINEURES
10
33.163
20
15.166
0
VERTEX
8
CONTOURS_MINEURES
10
33.163
20
14.003
0
VERTEX
8
CONTOURS_MINEURES
10
32.454
20
13.548
0
VERTEX
8
CONTOURS_MINEURES
10
31.998
20
13.315
0
VERTEX
8
CONTOURS_MINEURES
10
31.313
20
13.315
0
VERTEX
8
CONTOURS_MINEURES
10
30.005
20
13.315
0
VERTEX
8
CONTOURS_MINEURES
10
28.690
20
13.315
0
VERTEX
8
CONTOURS_MINEURES
10
28.001
20
13.315
0
VERTEX
8
CONTOURS_MINEURES
10
26.733
20
12.738
0
VERTEX
8
CONTOURS_MINEURES
10
25.997
20
12.474
0
VERTEX
8
CONTOURS_MINEURES
10
25.526
20
12.474
0
VERTEX
8
CONTOURS_MINEURES
10
24.003
20
12.474
0
VERTEX
8
CONTOURS_MINEURES
10
23.154
20
12.002
0
VERTEX
8
CONTOURS_MINEURES
10
23.154
20
10.849
0
VERTEX
8
CONTOURS_MINEURES
10
23.154
20
10.002
0
VERTEX
8
CONTOURS_MINEURES
10
21.999
20
8.584
0
VERTEX
8
CONTOURS_MINEURES
10
20.587
20
8.584
0
VERTEX
8
CONTOURS_MINEURES
10
20.005
20
8.584
0
VERTEX
8
CONTOURS_MINEURES
10
19.750
20
8.256
0
VERTEX
8
CONTOURS_MINEURES
10
19.610
20
8.001
0
VERTEX
8
CONTOURS_MINEURES
10
19.610
20
7.606
0
VERTEX
8
CONTOURS_MINEURES
10
19.610
20
6.000
0
VERTEX
8
CONTOURS_MINEURES
10
19.610
20
5.606
0
VERTEX
8
CONTOURS_MINEURES
10
19.610
20
3.999
0
VERTEX
8
CONTOURS_MINEURES
10
19.286
20
3.281
0
VERTEX
8
CONTOURS_MINEURES
10
18.669
20
1.999
0
VERTEX
8
CONTOURS_MINEURES
10
18.669
20
1.332
0
VERTEX
8
CONTOURS_MINEURES
10
18.669
20
-0.002
0
SEQEND
0
POLYLINE
8
CONTOURS_MINEURES
66
1
70
0
0
VERTEX
8
CONTOURS_MINEURES
10
50.004
20
16.671
0
VERTEX
8
CONTOURS_MINEURES
10
49.336
20
16.671
0
VERTEX
8
CONTOURS_MINEURES
10
48.000
20
16.671
0
VERTEX
8
CONTOURS_MINEURES
10
46.956
20
16.004
0
VERTEX
8
CONTOURS_MINEURES
10
46.956
20
14.962
0
VERTEX
8
CONTOURS_MINEURES
10
46.956
20
14.003
0
VERTEX
8
CONTOURS_MINEURES
10
46.427
20
13.573
0
VERTEX
8
CONTOURS_MINEURES
10
45.996
20
13.306
0
VERTEX
8
CONTOURS_MINEURES
10
45.301
20
13.306
0
VERTEX
8
CONTOURS_MINEURES
10
44.002
20
13.306
0
VERTEX
8
CONTOURS_MINEURES
10
43.304
20
13.306
0
VERTEX
8
CONTOURS_MINEURES
10
41.998
20
13.306
0
VERTEX
8
CONTOURS_MINEURES
10
40.756
20
13.249
0
VERTEX
8
CONTOURS_MINEURES
10
40.005
20
13.319
0
VERTEX
8
CONTOURS_MINEURES
10
38.686
20
13.319
0
VERTEX
8
CONTOURS_MINEURES
10
38.000
20
13.319
0
VERTEX
8
CONTOURS_MINEURES
10
37.277
20
13.281
0
VERTEX
8
CONTOURS_MINEURES
10
35.996
20
12.803
0
VERTEX
8
CONTOURS_MINEURES
10
34.800
20
12.803
0
VERTEX
8
CONTOURS_MINEURES
10
34.003
20
12.803
0
VERTEX
8
CONTOURS_MINEURES
10
33.515
20
12.489
0
VERTEX
8
CONTOURS_MINEURES
10
32.562
20
12.002
0
VERTEX
8
CONTOURS_MINEURES
10
32.562
20
10.564
0
VERTEX
8
CONTOURS_MINEURES
10
32.562
20
10.002
0
VERTEX
8
CONTOURS_MINEURES
10
32.444
20
9.557
0
VERTEX
8
CONTOURS_MINEURES
10
31.998
20
9.296
0
VERTEX
8
CONTOURS_MINEURES
10
31.295
20
9.296
0
VERTEX
8
CONTOURS_MINEURES
10
30.005
20
9.296
0
VERTEX
8
CONTOURS_MINEURES
10
29.298
20
9.296
0
VERTEX
8
CONTOURS_MINEURES
10
28.001
20
9.296
0
VERTEX
8
CONTOURS_MINEURES
10
27.388
20
8.612
0
VERTEX
8
CONTOURS_MINEURES
10
26.704
20
8.001
0
VERTEX
8
CONTOURS_MINEURES
10
26.704
20
7.295
0
VERTEX
8
CONTOURS_MINEURES
10
26.704
20
6.000
0
VERTEX
8
CONTOURS_MINEURES
10
26.704
20
4.705
0
VERTEX
8
CONTOURS_MINEURES
10
26.704
20
3.999
0
VERTEX
8
CONTOURS_MINEURES
10
26.327
20
3.669
0
VERTEX
8
CONTOURS_MINEURES
10
25.997
20
3.307
0
VERTEX
8
CONTOURS_MINEURES
10
25.306
20
3.307
0
VERTEX
8
CONTOURS_MINEURES
10
24.003
20
3.307
0
VERTEX
8
CONTOURS_MINEURES
10
23.435
20
2.565
0
VERTEX
8
CONTOURS_MINEURES
10
23.192
20
1.999
0
VERTEX
8
CONTOURS_MINEURES
10
23.192
20
1.189
0
VERTEX
8
CONTOURS_MINEURES
10
23.192
20
-0.002
0
SEQEND
0
POLYLINE
8
CONTOURS_MINEURES
66
1
70
0
0
VERTEX
8
CONTOURS_MINEURES
10
50.004
20
9.501
0
VERTEX
8
CONTOURS_MINEURES
10
48.501
20
9.501
0
VERTEX
8
CONTOURS_MINEURES
10
48.000
20
9.501
0
VERTEX
8
CONTOURS_MINEURES
10
46.894
20
8.898
0
VERTEX
8
CONTOURS_MINEURES
10
45.996
20
8.372
0
VERTEX
8
CONTOURS_MINEURES
10
44.372
20
8.372
0
VERTEX
8
CONTOURS_MINEURES
10
44.002
20
8.372
0
VERTEX
8
CONTOURS_MINEURES
10
43.630
20
8.372
0
VERTEX
8
CONTOURS_MINEURES
10
41.998
20
8.372
0
VERTEX
8
CONTOURS_MINEURES
10
41.072
20
8.001
0
VERTEX
8
CONTOURS_MINEURES
10
41.072
20
6.929
0
VERTEX
8
CONTOURS_MINEURES
10
41.072
20
6.000
0
VERTEX
8
CONTOURS_MINEURES
10
41.072
20
5.071
0
VERTEX
8
CONTOURS_MINEURES
10
41.072
20
3.999
0
VERTEX
8
CONTOURS_MINEURES
10
40.301
20
3.702
0
VERTEX
8
CONTOURS_MINEURES
10
40.005
20
3.604
0
VERTEX
8
CONTOURS_MINEURES
10
39.609
20
3.604
0
VERTEX
8
CONTOURS_MINEURES
10
38.000
20
3.604
0
VERTEX
8
CONTOURS_MINEURES
10
36.753
20
3.244
0
VERTEX
8
CONTOURS_MINEURES
10
35.996
20
2.745
0
VERTEX
8
CONTOURS_MINEURES
10
35.253
20
2.745
0
VERTEX
8
CONTOURS_MINEURES
10
34.003
20
2.745
0
VERTEX
8
CONTOURS_MINEURES
10
32.580
20
1.999
0
VERTEX
8
CONTOURS_MINEURES
10
32.580
20
1.418
0
VERTEX
8
CONTOURS_MINEURES
10
32.580
20
-0.002
0
SEQEND
0
POLYLINE
8
CONTOURS_MINEURES
66
1
70
0
0
VERTEX
8
CONTOURS_MINEURES
10
50.004
20
2.593
0
VERTEX
8
CONTOURS_MINEURES
10
48.596
20
2.593
0
VERTEX
8
CONTOURS_MINEURES
10
48.000
20
2.593
0
VERTEX
8
CONTOURS_MINEURES
10
47.595
20
2.402
0
VERTEX
8
CONTOURS_MINEURES
10
46.775
20
1.999
0
VERTEX
8
CONTOURS_MINEURES
10
46.775
20
0.776
0
VERTEX
8
CONTOURS_MINEURES
10
46.775
20
-0.002
0
SEQEND
0
POLYLINE
8
CONTOURS_MAJEURES
66
1
70
0
0
VERTEX
8
CONTOURS_MAJEURES
10
4.949
20
-0.002
0
VERTEX
8
CONTOURS_MAJEURES
10
4.949
20
0.947
0
VERTEX
8
CONTOURS_MAJEURES
10
4.949
20
1.999
0
VERTEX
8
CONTOURS_MAJEURES
10
4.592
20
2.589
0
VERTEX
8
CONTOURS_MAJEURES
10
4.004
20
3.295
0
VERTEX
8
CONTOURS_MAJEURES
10
3.298
20
3.295
0
VERTEX
8
CONTOURS_MAJEURES
10
2.000
20
3.295
0
VERTEX
8
CONTOURS_MAJEURES
10
1.294
20
3.295
0
VERTEX
8
CONTOURS_MAJEURES
10
-0.005
20
3.295
0
SEQEND
0
POLYLINE
8
CONTOURS_MAJEURES
66
1
70
0
0
VERTEX
8
CONTOURS_MAJEURES
10
50.004
20
22.865
0
VERTEX
8
CONTOURS_MAJEURES
10
48.871
20
22.865
0
VERTEX
8
CONTOURS_MAJEURES
10
48.000
20
22.865
0
VERTEX
8
CONTOURS_MAJEURES
10
47.421
20
22.574
0
VERTEX
8
CONTOURS_MAJEURES
10
46.458
20
21.995
0
VERTEX
8
CONTOURS_MAJEURES
10
46.458
20
20.465
0
VERTEX
8
CONTOURS_MAJEURES
10
46.458
20
20.006
0
VERTEX
8
CONTOURS_MAJEURES
10
46.458
20
19.544
0
VERTEX
8
CONTOURS_MAJEURES
10
46.458
20
18.005
0
VERTEX
8
CONTOURS_MAJEURES
10
45.996
20
17.679
0
VERTEX
8
CONTOURS_MAJEURES
10
45.671
20
17.679
0
VERTEX
8
CONTOURS_MAJEURES
10
44.002
20
17.679
0
VERTEX
8
CONTOURS_MAJEURES
10
42.325
20
17.679
0
VERTEX
8
CONTOURS_MAJEURES
10
41.998
20
17.679
0
VERTEX
8
CONTOURS_MAJEURES
10
41.662
20
17.668
0
VERTEX
8
CONTOURS_MAJEURES
10
40.005
20
17.011
0
VERTEX
8
CONTOURS_MAJEURES
10
38.996
20
17.011
0
VERTEX
8
CONTOURS_MAJEURES
10
38.000
20
17.011
0
VERTEX
8
CONTOURS_MAJEURES
10
37.355
20
16.648
0
VERTEX
8
CONTOURS_MAJEURES
10
35.996
20
16.336
0
VERTEX
8
CONTOURS_MAJEURES
10
34.333
20
16.336
0
VERTEX
8
CONTOURS_MAJEURES
10
34.003
20
16.336
0
VERTEX
8
CONTOURS_MAJEURES
10
33.745
20
16.261
0
VERTEX
8
CONTOURS_MAJEURES
10
33.163
20
16.004
0
VERTEX
8
CONTOURS_MAJEURES
10
33.163
20
15.166
0
VERTEX
8
CONTOURS_MAJEURES
10
33.163
20
14.003
0
VERTEX
8
CONTOURS_MAJEURES
10
32.454
20
13.548
0
VERTEX
8
CONTOURS_MAJEURES
10
31.998
20
13.315
0
VERTEX
8
CONTOURS_MAJEURES
10
31.313
20
13.315
0
VERTEX
8
CONTOURS_MAJEURES
10
30.005
20
13.315
0
VERTEX
8
CONTOURS_MAJEURES
10
28.690
20
13.315
0
VERTEX
8
CONTOURS_MAJEURES
10
28.001
20
13.315
0
VERTEX
8
CONTOURS_MAJEURES
10
26.733
20
12.738
0
VERTEX
8
CONTOURS_MAJEURES
10
25.997
20
12.474
0
VERTEX
8
CONTOURS_MAJEURES
10
25.526
20
12.474
0
VERTEX
8
CONTOURS_MAJEURES
10
24.003
20
12.474
0
VERTEX
8
CONTOURS_MAJEURES
10
23.154
20
12.002
0
VERTEX
8
CONTOURS_MAJEURES
10
23.154
20
10.849
0
VERTEX
8
CONTOURS_MAJEURES
10
23.154
20
10.002
0
VERTEX
8
CONTOURS_MAJEURES
10
21.999
20
8.584
0
VERTEX
8
CONTOURS_MAJEURES
10
20.587
20
8.584
0
VERTEX
8
CONTOURS_MAJEURES
10
20.005
20
8.584
0
VERTEX
8
CONTOURS_MAJEURES
10
19.750
20
8.256
0
VERTEX
8
CONTOURS_MAJEURES
10
19.610
20
8.001
0
VERTEX
8
CONTOURS_MAJEURES
10
19.610
20
7.606
0
VERTEX
8
CONTOURS_MAJEURES
10
19.610
20
6.000
0
VERTEX
8
CONTOURS_MAJEURES
10
19.610
20
5.606
0
VERTEX
8
CONTOURS_MAJEURES
10
19.610
20
3.999
0
VERTEX
8
CONTOURS_MAJEURES
10
19.286
20
3.281
0
VERTEX
8
CONTOURS_MAJEURES
10
18.669
20
1.999
0
VERTEX
8
CONTOURS_MAJEURES
10
18.669
20
1.332
0
VERTEX
8
CONTOURS_MAJEURES
10
18.669
20
-0.002
0
SEQEND
0
POLYLINE
8
PARCELLE
66
1
70
1
0
VERTEX
8
PARCELLE
10
27.277
20
20.000
0
VERTEX
8
PARCELLE
10
20.000
20
20.093
0
VERTEX
8
PARCELLE
10
20.746
20
23.164
0
VERTEX
8
PARCELLE
10
21.965
20
28.957
0
VERTEX
8
PARCELLE
10
22.924
20
33.514
0
VERTEX
8
PARCELLE
10
24.598
20
41.001
0
VERTEX
8
PARCELLE
10
25.940
20
38.972
0
VERTEX
8
PARCELLE
10
27.585
20
38.388
0
VERTEX
8
PARCELLE
10
30.535
20
37.344
0
VERTEX
8
PARCELLE
10
31.501
20
36.966
0
VERTEX
8
PARCELLE
10
26.194
20
26.662
0
VERTEX
8
PARCELLE
10
25.794
20
23.170
0
VERTEX
8
PARCELLE
10
27.536
20
22.306
0
VERTEX
8
PARCELLE
10
27.277
20
20.000
0
SEQEND
0
TEXT
8
POINTS_COTES
10
-0.005
20
-0.002
40
1.0
1
5.5
0
TEXT
8
POINTS_COTES
10
28.001
20
1.999
40
1.0
1
6.9
0
TEXT
8
POINTS_COTES
10
4.004
20
6.000
40
1.0
1
4.8
0
TEXT
8
POINTS_COTES
10
31.998
20
8.001
40
1.0
1
6.3
0
TEXT
8
POINTS_COTES
10
8.002
20
12.002
40
1.0
1
3.4
0
TEXT
8
POINTS_COTES
10
35.996
20
14.003
40
1.0
1
5.3
0
TEXT
8
POINTS_COTES
10
11.999
20
18.005
40
1.0
1
3.3
0
TEXT
8
POINTS_COTES
10
40.005
20
20.006
40
1.0
1
4.3
0
TEXT
8
POINTS_COTES
10
15.997
20
23.996
40
1.0
1
3.1
0
TEXT
8
POINTS_COTES
10
44.002
20
25.997
40
1.0
1
3.8
0
TEXT
8
POINTS_COTES
10
20.005
20
29.998
40
1.0
1
2.1
0
TEXT
8
POINTS_COTES
10
48.000
20
31.999
40
1.0
1
2.0
0
TEXT
8
POINTS_COTES
10
24.003
20
36.001
40
1.0
1
1.6
0
TEXT
8
POINTS_COTES
10
-0.005
20
40.002
40
1.0
1
1.8
0
TEXT
8
POINTS_COTES
10
28.001
20
42.003
40
1.0
1
1.1
0
TEXT
8
POINTS_COTES
10
4.004
20
46.005
40
1.0
1
1.3
0
TEXT
8
POINTS_COTES
10
31.998
20
48.005
40
1.0
1
0.9
0
TEXT
8
POINTS_COTES
10
8.002
20
51.996
40
1.0
1
1.1
0
TEXT
8
POINTS_COTES
10
35.996
20
53.997
40
1.0
1
0.7
0
TEXT
8
POINTS_COTES
10
11.999
20
57.998
40
1.0
1
1.0
0
TEXT
8
POINTS_COTES
10
40.005
20
59.999
40
1.0
1
0.2
0
ENDSEC
0
EOF
