0
SECTION
2
HEADER
0
ENDSEC
0
SECTION
2
TABLES
0
TABLE
2
LAYER
70
4
0
LAYER
2
CONTOURS_MINEURES
70
0
62
8
6
CONTINUOUS
0
LAYER
2
CONTOURS_MAJEURES
70
0
62
3
6
CONTINUOUS
0
LAYER
2
PARCELLE
70
0
62
4
6
CONTINUOUS
0
LAYER
2
POINTS_COTES
70
0
62
7
6
CONTINUOUS
0
ENDTAB
0
ENDSEC
0
SECTION
2
ENTITIES
0
POLYLINE
8
CONTOURS_MINEURES
66
1
70
0
0
VERTEX
8
CONTOURS_MINEURES
10
98.996
20
130.774
0
VERTEX
8
CONTOURS_MINEURES
10
96.928
20
131.072
0
VERTEX
8
CONTOURS_MINEURES
10
96.000
20
131.124
0
VERTEX
8
CONTOURS_MINEURES
10
95.124
20
131.124
0
VERTEX
8
CONTOURS_MINEURES
10
93.005
20
131.124
0
VERTEX
8
CONTOURS_MINEURES
10
92.327
20
131.326
0
VERTEX
8
CONTOURS_MINEURES
10
91.028
20
132.004
0
SEQEND
0
POLYLINE
8
CONTOURS_MINEURES
66
1
70
0
0
VERTEX
8
CONTOURS_MINEURES
10
98.996
20
129.113
0
VERTEX
8
CONTOURS_MINEURES
10
98.861
20
129.133
0
VERTEX
8
CONTOURS_MINEURES
10
96.000
20
129.290
0
VERTEX
8
CONTOURS_MINEURES
10
93.297
20
129.290
0
VERTEX
8
CONTOURS_MINEURES
10
93.005
20
129.290
0
VERTEX
8
CONTOURS_MINEURES
10
90.916
20
129.914
0
VERTEX
8
CONTOURS_MINEURES
10
89.998
20
130.393
0
VERTEX
8
CONTOURS_MINEURES
10
87.042
20
132.004
0
SEQEND
0
POLYLINE
8
CONTOURS_MINEURES
66
1
70
0
0
VERTEX
8
CONTOURS_MINEURES
10
98.996
20
124.874
0
VERTEX
8
CONTOURS_MINEURES
10
97.053
20
124.944
0
VERTEX
8
CONTOURS_MINEURES
10
96.000
20
124.879
0
VERTEX
8
CONTOURS_MINEURES
10
94.882
20
124.879
0
VERTEX
8
CONTOURS_MINEURES
10
93.005
20
124.879
0
VERTEX
8
CONTOURS_MINEURES
10
91.813
20
124.810
0
VERTEX
8
CONTOURS_MINEURES
10
89.998
20
125.356
0
VERTEX
8
CONTOURS_MINEURES
10
88.221
20
126.001
0
VERTEX
8
CONTOURS_MINEURES
10
88.221
20
127.220
0
VERTEX
8
CONTOURS_MINEURES
10
88.221
20
128.997
0
VERTEX
8
CONTOURS_MINEURES
10
87.002
20
129.584
0
VERTEX
8
CONTOURS_MINEURES
10
84.582
20
129.584
0
VERTEX
8
CONTOURS_MINEURES
10
83.996
20
129.584
0
VERTEX
8
CONTOURS_MINEURES
10
82.528
20
130.470
0
VERTEX
8
CONTOURS_MINEURES
10
81.000
20
131.237
0
VERTEX
8
CONTOURS_MINEURES
10
79.662
20
132.004
0
SEQEND
0
POLYLINE
8
CONTOURS_MINEURES
66
1
70
0
0
VERTEX
8
CONTOURS_MINEURES
10
98.996
20
123.661
0
VERTEX
8
CONTOURS_MINEURES
10
98.307
20
123.686
0
VERTEX
8
CONTOURS_MINEURES
10
96.000
20
123.542
0
VERTEX
8
CONTOURS_MINEURES
10
93.551
20
123.542
0
VERTEX
8
CONTOURS_MINEURES
10
93.005
20
123.542
0
VERTEX
8
CONTOURS_MINEURES
10
90.395
20
123.392
0
VERTEX
8
CONTOURS_MINEURES
10
89.998
20
123.511
0
VERTEX
8
CONTOURS_MINEURES
10
89.191
20
123.804
0
VERTEX
8
CONTOURS_MINEURES
10
87.002
20
124.128
0
VERTEX
8
CONTOURS_MINEURES
10
85.129
20
124.128
0
VERTEX
8
CONTOURS_MINEURES
10
83.996
20
124.128
0
VERTEX
8
CONTOURS_MINEURES
10
82.108
20
124.889
0
VERTEX
8
CONTOURS_MINEURES
10
81.000
20
125.147
0
VERTEX
8
CONTOURS_MINEURES
10
78.621
20
126.001
0
VERTEX
8
CONTOURS_MINEURES
10
78.621
20
126.618
0
VERTEX
8
CONTOURS_MINEURES
10
78.621
20
128.997
0
VERTEX
8
CONTOURS_MINEURES
10
78.004
20
129.274
0
VERTEX
8
CONTOURS_MINEURES
10
75.274
20
129.274
0
VERTEX
8
CONTOURS_MINEURES
10
74.998
20
129.274
0
VERTEX
8
CONTOURS_MINEURES
10
74.431
20
129.566
0
VERTEX
8
CONTOURS_MINEURES
10
72.002
20
130.876
0
VERTEX
8
CONTOURS_MINEURES
10
71.143
20
131.144
0
VERTEX
8
CONTOURS_MINEURES
10
68.995
20
131.816
0
VERTEX
8
CONTOURS_MINEURES
10
68.808
20
131.816
0
VERTEX
8
CONTOURS_MINEURES
10
65.999
20
131.816
0
VERTEX
8
CONTOURS_MINEURES
10
63.004
20
132.004
0
SEQEND
0
POLYLINE
8
CONTOURS_MINEURES
66
1
70
0
0
VERTEX
8
CONTOURS_MINEURES
10
98.996
20
122.534
0
VERTEX
8
CONTOURS_MINEURES
10
98.441
20
122.440
0
VERTEX
8
CONTOURS_MINEURES
10
96.000
20
122.307
0
VERTEX
8
CONTOURS_MINEURES
10
95.313
20
122.307
0
VERTEX
8
CONTOURS_MINEURES
10
93.005
20
122.307
0
VERTEX
8
CONTOURS_MINEURES
10
90.800
20
122.196
0
VERTEX
8
CONTOURS_MINEURES
10
89.998
20
121.937
0
VERTEX
8
CONTOURS_MINEURES
10
88.722
20
121.718
0
VERTEX
8
CONTOURS_MINEURES
10
87.002
20
121.923
0
VERTEX
8
CONTOURS_MINEURES
10
85.071
20
121.923
0
VERTEX
8
CONTOURS_MINEURES
10
83.996
20
121.923
0
VERTEX
8
CONTOURS_MINEURES
10
82.751
20
121.750
0
VERTEX
8
CONTOURS_MINEURES
10
81.000
20
122.107
0
VERTEX
8
CONTOURS_MINEURES
10
78.180
20
122.995
0
VERTEX
8
CONTOURS_MINEURES
10
78.004
20
123.058
0
VERTEX
8
CONTOURS_MINEURES
10
75.061
20
123.058
0
VERTEX
8
CONTOURS_MINEURES
10
74.998
20
123.058
0
VERTEX
8
CONTOURS_MINEURES
10
74.882
20
123.110
0
VERTEX
8
CONTOURS_MINEURES
10
72.002
20
124.349
0
VERTEX
8
CONTOURS_MINEURES
10
70.671
20
124.671
0
VERTEX
8
CONTOURS_MINEURES
10
68.995
20
125.147
0
VERTEX
8
CONTOURS_MINEURES
10
66.850
20
125.147
0
VERTEX
8
CONTOURS_MINEURES
10
65.999
20
125.147
0
VERTEX
8
CONTOURS_MINEURES
10
63.449
20
125.554
0
VERTEX
8
CONTOURS_MINEURES
10
63.004
20
125.638
0
VERTEX
8
CONTOURS_MINEURES
10
62.640
20
125.638
0
VERTEX
8
CONTOURS_MINEURES
10
59.997
20
125.638
0
VERTEX
8
CONTOURS_MINEURES
10
57.251
20
126.001
0
VERTEX
8
CONTOURS_MINEURES
10
57.251
20
126.251
0
VERTEX
8
CONTOURS_MINEURES
10
57.251
20
128.997
0
VERTEX
8
CONTOURS_MINEURES
10
57.031
20
129.027
0
VERTEX
8
CONTOURS_MINEURES
10
57.001
20
129.031
0
VERTEX
8
CONTOURS_MINEURES
10
56.946
20
129.053
0
VERTEX
8
CONTOURS_MINEURES
10
53.995
20
129.907
0
VERTEX
8
CONTOURS_MINEURES
10
53.088
20
129.907
0
VERTEX
8
CONTOURS_MINEURES
10
50.999
20
129.907
0
VERTEX
8
CONTOURS_MINEURES
10
49.501
20
130.500
0
VERTEX
8
CONTOURS_MINEURES
10
48.003
20
131.653
0
VERTEX
8
CONTOURS_MINEURES
10
47.684
20
132.004
0
SEQEND
0
POLYLINE
8
CONTOURS_MINEURES
66
1
70
0
0
VERTEX
8
CONTOURS_MINEURES
10
98.996
20
121.512
0
VERTEX
8
CONTOURS_MINEURES
10
97.209
20
121.207
0
VERTEX
8
CONTOURS_MINEURES
10
96.000
20
121.141
0
VERTEX
8
CONTOURS_MINEURES
10
94.147
20
121.141
0
VERTEX
8
CONTOURS_MINEURES
10
93.005
20
121.141
0
VERTEX
8
CONTOURS_MINEURES
10
91.913
20
121.086
0
VERTEX
8
CONTOURS_MINEURES
10
89.998
20
120.469
0
VERTEX
8
CONTOURS_MINEURES
10
87.259
20
119.999
0
VERTEX
8
CONTOURS_MINEURES
10
87.259
20
117.260
0
VERTEX
8
CONTOURS_MINEURES
10
87.259
20
117.003
0
VERTEX
8
CONTOURS_MINEURES
10
87.053
20
116.953
0
VERTEX
8
CONTOURS_MINEURES
10
87.002
20
116.931
0
VERTEX
8
CONTOURS_MINEURES
10
86.930
20
116.931
0
VERTEX
8
CONTOURS_MINEURES
10
83.996
20
116.931
0
VERTEX
8
CONTOURS_MINEURES
10
81.496
20
116.506
0
VERTEX
8
CONTOURS_MINEURES
10
81.000
20
116.353
0
VERTEX
8
CONTOURS_MINEURES
10
80.447
20
116.448
0
VERTEX
8
CONTOURS_MINEURES
10
78.337
20
117.003
0
VERTEX
8
CONTOURS_MINEURES
10
78.337
20
117.336
0
VERTEX
8
CONTOURS_MINEURES
10
78.337
20
119.999
0
VERTEX
8
CONTOURS_MINEURES
10
78.004
20
120.088
0
VERTEX
8
CONTOURS_MINEURES
10
77.915
20
120.088
0
VERTEX
8
CONTOURS_MINEURES
10
74.998
20
120.088
0
VERTEX
8
CONTOURS_MINEURES
10
73.066
20
121.063
0
VERTEX
8
CONTOURS_MINEURES
10
72.002
20
121.430
0
VERTEX
8
CONTOURS_MINEURES
10
70.218
20
121.777
0
VERTEX
8
CONTOURS_MINEURES
10
68.995
20
121.875
0
VERTEX
8
CONTOURS_MINEURES
10
67.876
20
121.875
0
VERTEX
8
CONTOURS_MINEURES
10
65.999
20
121.875
0
VERTEX
8
CONTOURS_MINEURES
10
63.734
20
122.264
0
VERTEX
8
CONTOURS_MINEURES
10
63.004
20
122.350
0
VERTEX
8
CONTOURS_MINEURES
10
62.357
20
122.350
0
VERTEX
8
CONTOURS_MINEURES
10
59.997
20
122.350
0
VERTEX
8
CONTOURS_MINEURES
10
57.394
20
122.602
0
VERTEX
8
CONTOURS_MINEURES
10
57.001
20
122.607
0
VERTEX
8
CONTOURS_MINEURES
10
54.353
20
122.638
0
VERTEX
8
CONTOURS_MINEURES
10
53.995
20
122.610
0
VERTEX
8
CONTOURS_MINEURES
10
53.611
20
122.610
0
VERTEX
8
CONTOURS_MINEURES
10
50.999
20
122.610
0
VERTEX
8
CONTOURS_MINEURES
10
50.680
20
122.676
0
VERTEX
8
CONTOURS_MINEURES
10
49.889
20
122.995
0
VERTEX
8
CONTOURS_MINEURES
10
48.003
20
123.793
0
VERTEX
8
CONTOURS_MINEURES
10
45.177
20
126.001
0
VERTEX
8
CONTOURS_MINEURES
10
45.177
20
128.817
0
VERTEX
8
CONTOURS_MINEURES
10
45.177
20
128.997
0
VERTEX
8
CONTOURS_MINEURES
10
44.997
20
129.202
0
VERTEX
8
CONTOURS_MINEURES
10
42.205
20
129.202
0
VERTEX
8
CONTOURS_MINEURES
10
42.001
20
129.202
0
VERTEX
8
CONTOURS_MINEURES
10
40.853
20
130.851
0
VERTEX
8
CONTOURS_MINEURES
10
40.406
20
132.004
0
SEQEND
0
POLYLINE
8
CONTOURS_MINEURES
66
1
70
0
0
VERTEX
8
CONTOURS_MINEURES
10
98.996
20
120.490
0
VERTEX
8
CONTOURS_MINEURES
10
96.120
20
119.999
0
VERTEX
8
CONTOURS_MINEURES
10
96.120
20
119.879
0
VERTEX
8
CONTOURS_MINEURES
10
96.120
20
117.003
0
VERTEX
8
CONTOURS_MINEURES
10
96.000
20
116.952
0
VERTEX
8
CONTOURS_MINEURES
10
93.056
20
116.952
0
VERTEX
8
CONTOURS_MINEURES
10
93.005
20
116.952
0
VERTEX
8
CONTOURS_MINEURES
10
92.927
20
116.925
0
VERTEX
8
CONTOURS_MINEURES
10
89.998
20
115.574
0
VERTEX
8
CONTOURS_MINEURES
10
88.736
20
115.263
0
VERTEX
8
CONTOURS_MINEURES
10
87.002
20
114.506
0
VERTEX
8
CONTOURS_MINEURES
10
84.505
20
114.506
0
VERTEX
8
CONTOURS_MINEURES
10
83.996
20
114.506
0
VERTEX
8
CONTOURS_MINEURES
10
83.562
20
114.432
0
VERTEX
8
CONTOURS_MINEURES
10
82.145
20
113.997
0
VERTEX
8
CONTOURS_MINEURES
10
82.145
20
112.146
0
VERTEX
8
CONTOURS_MINEURES
10
82.145
20
111.001
0
VERTEX
8
CONTOURS_MINEURES
10
81.280
20
110.721
0
VERTEX
8
CONTOURS_MINEURES
10
81.000
20
110.640
0
VERTEX
8
CONTOURS_MINEURES
10
78.950
20
111.001
0
VERTEX
8
CONTOURS_MINEURES
10
78.950
20
111.947
0
VERTEX
8
CONTOURS_MINEURES
10
78.950
20
113.997
0
VERTEX
8
CONTOURS_MINEURES
10
78.142
20
114.135
0
VERTEX
8
CONTOURS_MINEURES
10
78.004
20
114.172
0
VERTEX
8
CONTOURS_MINEURES
10
77.829
20
114.172
0
VERTEX
8
CONTOURS_MINEURES
10
74.998
20
114.172
0
VERTEX
8
CONTOURS_MINEURES
10
73.086
20
115.085
0
VERTEX
8
CONTOURS_MINEURES
10
72.002
20
115.634
0
VERTEX
8
CONTOURS_MINEURES
10
70.224
20
115.775
0
VERTEX
8
CONTOURS_MINEURES
10
68.995
20
115.825
0
VERTEX
8
CONTOURS_MINEURES
10
67.173
20
115.825
0
VERTEX
8
CONTOURS_MINEURES
10
65.999
20
115.825
0
VERTEX
8
CONTOURS_MINEURES
10
64.925
20
115.925
0
VERTEX
8
CONTOURS_MINEURES
10
63.004
20
116.149
0
VERTEX
8
CONTOURS_MINEURES
10
60.852
20
116.149
0
VERTEX
8
CONTOURS_MINEURES
10
59.997
20
116.149
0
VERTEX
8
CONTOURS_MINEURES
10
59.108
20
116.111
0
VERTEX
8
CONTOURS_MINEURES
10
57.001
20
116.135
0
VERTEX
8
CONTOURS_MINEURES
10
56.082
20
116.084
0
VERTEX
8
CONTOURS_MINEURES
10
53.995
20
115.946
0
VERTEX
8
CONTOURS_MINEURES
10
52.052
20
115.946
0
VERTEX
8
CONTOURS_MINEURES
10
50.999
20
115.946
0
VERTEX
8
CONTOURS_MINEURES
10
50.059
20
116.060
0
VERTEX
8
CONTOURS_MINEURES
10
48.003
20
116.444
0
VERTEX
8
CONTOURS_MINEURES
10
47.585
20
116.585
0
VERTEX
8
CONTOURS_MINEURES
10
46.344
20
117.003
0
VERTEX
8
CONTOURS_MINEURES
10
46.344
20
118.346
0
VERTEX
8
CONTOURS_MINEURES
10
46.344
20
119.999
0
VERTEX
8
CONTOURS_MINEURES
10
44.997
20
120.734
0
VERTEX
8
CONTOURS_MINEURES
10
44.262
20
120.734
0
VERTEX
8
CONTOURS_MINEURES
10
42.001
20
120.734
0
VERTEX
8
CONTOURS_MINEURES
10
40.814
20
121.808
0
VERTEX
8
CONTOURS_MINEURES
10
40.068
20
122.995
0
VERTEX
8
CONTOURS_MINEURES
10
39.559
20
123.550
0
VERTEX
8
CONTOURS_MINEURES
10
39.005
20
124.176
0
VERTEX
8
CONTOURS_MINEURES
10
37.180
20
126.001
0
VERTEX
8
CONTOURS_MINEURES
10
37.180
20
127.178
0
VERTEX
8
CONTOURS_MINEURES
10
37.180
20
128.997
0
VERTEX
8
CONTOURS_MINEURES
10
35.998
20
131.278
0
VERTEX
8
CONTOURS_MINEURES
10
33.726
20
131.278
0
VERTEX
8
CONTOURS_MINEURES
10
33.003
20
131.278
0
VERTEX
8
CONTOURS_MINEURES
10
32.718
20
131.719
0
VERTEX
8
CONTOURS_MINEURES
10
32.633
20
132.004
0
SEQEND
0
POLYLINE
8
CONTOURS_MINEURES
66
1
70
0
0
VERTEX
8
CONTOURS_MINEURES
10
98.996
20
115.391
0
VERTEX
8
CONTOURS_MINEURES
10
96.671
20
114.670
0
VERTEX
8
CONTOURS_MINEURES
10
96.000
20
114.382
0
VERTEX
8
CONTOURS_MINEURES
10
95.616
20
114.382
0
VERTEX
8
CONTOURS_MINEURES
10
93.005
20
114.382
0
VERTEX
8
CONTOURS_MINEURES
10
91.877
20
113.997
0
VERTEX
8
CONTOURS_MINEURES
10
91.877
20
112.124
0
VERTEX
8
CONTOURS_MINEURES
10
91.877
20
111.001
0
VERTEX
8
CONTOURS_MINEURES
10
89.998
20
109.989
0
VERTEX
8
CONTOURS_MINEURES
10
88.851
20
109.152
0
VERTEX
8
CONTOURS_MINEURES
10
87.002
20
108.747
0
VERTEX
8
CONTOURS_MINEURES
10
84.740
20
108.747
0
VERTEX
8
CONTOURS_MINEURES
10
83.996
20
108.747
0
VERTEX
8
CONTOURS_MINEURES
10
83.435
20
108.566
0
VERTEX
8
CONTOURS_MINEURES
10
81.483
20
108.005
0
VERTEX
8
CONTOURS_MINEURES
10
81.000
20
107.838
0
VERTEX
8
CONTOURS_MINEURES
10
78.073
20
107.936
0
VERTEX
8
CONTOURS_MINEURES
10
78.004
20
107.939
0
VERTEX
8
CONTOURS_MINEURES
10
77.937
20
107.939
0
VERTEX
8
CONTOURS_MINEURES
10
74.998
20
107.939
0
VERTEX
8
CONTOURS_MINEURES
10
74.776
20
108.005
0
VERTEX
8
CONTOURS_MINEURES
10
72.631
20
108.635
0
VERTEX
8
CONTOURS_MINEURES
10
72.002
20
109.075
0
VERTEX
8
CONTOURS_MINEURES
10
70.863
20
109.140
0
VERTEX
8
CONTOURS_MINEURES
10
68.995
20
109.446
0
VERTEX
8
CONTOURS_MINEURES
10
67.440
20
109.446
0
VERTEX
8
CONTOURS_MINEURES
10
65.999
20
109.446
0
VERTEX
8
CONTOURS_MINEURES
10
64.650
20
109.651
0
VERTEX
8
CONTOURS_MINEURES
10
63.004
20
109.832
0
VERTEX
8
CONTOURS_MINEURES
10
61.170
20
109.832
0
VERTEX
8
CONTOURS_MINEURES
10
59.997
20
109.832
0
VERTEX
8
CONTOURS_MINEURES
10
58.255
20
109.747
0
VERTEX
8
CONTOURS_MINEURES
10
57.001
20
109.933
0
VERTEX
8
CONTOURS_MINEURES
10
55.970
20
109.974
0
VERTEX
8
CONTOURS_MINEURES
10
53.995
20
109.884
0
VERTEX
8
CONTOURS_MINEURES
10
52.115
20
109.884
0
VERTEX
8
CONTOURS_MINEURES
10
50.999
20
109.884
0
VERTEX
8
CONTOURS_MINEURES
10
48.911
20
110.093
0
VERTEX
8
CONTOURS_MINEURES
10
48.003
20
110.128
0
VERTEX
8
CONTOURS_MINEURES
10
47.293
20
110.293
0
VERTEX
8
CONTOURS_MINEURES
10
44.997
20
110.970
0
VERTEX
8
CONTOURS_MINEURES
10
44.966
20
110.970
0
VERTEX
8
CONTOURS_MINEURES
10
42.001
20
110.970
0
VERTEX
8
CONTOURS_MINEURES
10
41.972
20
110.972
0
VERTEX
8
CONTOURS_MINEURES
10
41.890
20
111.001
0
VERTEX
8
CONTOURS_MINEURES
10
41.890
20
111.112
0
VERTEX
8
CONTOURS_MINEURES
10
41.890
20
113.997
0
VERTEX
8
CONTOURS_MINEURES
10
39.694
20
114.688
0
VERTEX
8
CONTOURS_MINEURES
10
39.005
20
115.199
0
VERTEX
8
CONTOURS_MINEURES
10
37.609
20
115.607
0
VERTEX
8
CONTOURS_MINEURES
10
36.340
20
117.003
0
VERTEX
8
CONTOURS_MINEURES
10
36.340
20
119.658
0
VERTEX
8
CONTOURS_MINEURES
10
36.340
20
119.999
0
VERTEX
8
CONTOURS_MINEURES
10
36.180
20
120.179
0
VERTEX
8
CONTOURS_MINEURES
10
35.998
20
120.373
0
VERTEX
8
CONTOURS_MINEURES
10
35.624
20
120.373
0
VERTEX
8
CONTOURS_MINEURES
10
33.003
20
120.373
0
VERTEX
8
CONTOURS_MINEURES
10
31.123
20
121.871
0
VERTEX
8
CONTOURS_MINEURES
10
29.996
20
122.803
0
VERTEX
8
CONTOURS_MINEURES
10
29.881
20
122.879
0
VERTEX
8
CONTOURS_MINEURES
10
29.760
20
122.995
0
VERTEX
8
CONTOURS_MINEURES
10
28.712
20
124.283
0
VERTEX
8
CONTOURS_MINEURES
10
27.324
20
126.001
0
VERTEX
8
CONTOURS_MINEURES
10
27.324
20
126.325
0
VERTEX
8
CONTOURS_MINEURES
10
27.324
20
128.997
0
VERTEX
8
CONTOURS_MINEURES
10
27.000
20
129.665
0
VERTEX
8
CONTOURS_MINEURES
10
24.670
20
129.665
0
VERTEX
8
CONTOURS_MINEURES
10
24.004
20
129.665
0
VERTEX
8
CONTOURS_MINEURES
10
22.978
20
130.977
0
VERTEX
8
CONTOURS_MINEURES
10
20.998
20
131.796
0
VERTEX
8
CONTOURS_MINEURES
10
20.827
20
131.832
0
VERTEX
8
CONTOURS_MINEURES
10
20.332
20
132.004
0
SEQEND
0
POLYLINE
8
CONTOURS_MINEURES
66
1
70
0
0
VERTEX
8
CONTOURS_MINEURES
10
7.501
20
132.004
0
VERTEX
8
CONTOURS_MINEURES
10
5.997
20
131.637
0
VERTEX
8
CONTOURS_MINEURES
10
4.000
20
131.001
0
VERTEX
8
CONTOURS_MINEURES
10
3.002
20
130.942
0
VERTEX
8
CONTOURS_MINEURES
10
1.940
20
130.942
0
VERTEX
8
CONTOURS_MINEURES
10
-0.005
20
130.942
0
SEQEND
0
POLYLINE
8
CONTOURS_MINEURES
66
1
70
0
0
VERTEX
8
CONTOURS_MINEURES
10
98.996
20
107.811
0
VERTEX
8
CONTOURS_MINEURES
10
98.622
20
107.629
0
VERTEX
8
CONTOURS_MINEURES
10
96.000
20
106.467
0
VERTEX
8
CONTOURS_MINEURES
10
94.468
20
106.467
0
VERTEX
8
CONTOURS_MINEURES
10
93.005
20
106.467
0
VERTEX
8
CONTOURS_MINEURES
10
91.647
20
106.356
0
VERTEX
8
CONTOURS_MINEURES
10
89.998
20
105.315
0
VERTEX
8
CONTOURS_MINEURES
10
89.773
20
105.224
0
VERTEX
8
CONTOURS_MINEURES
10
87.751
20
104.999
0
VERTEX
8
CONTOURS_MINEURES
10
87.751
20
102.752
0
VERTEX
8
CONTOURS_MINEURES
10
87.751
20
102.003
0
VERTEX
8
CONTOURS_MINEURES
10
87.062
20
101.943
0
VERTEX
8
CONTOURS_MINEURES
10
87.002
20
101.935
0
VERTEX
8
CONTOURS_MINEURES
10
86.935
20
101.935
0
VERTEX
8
CONTOURS_MINEURES
10
83.996
20
101.935
0
VERTEX
8
CONTOURS_MINEURES
10
83.925
20
101.932
0
VERTEX
8
CONTOURS_MINEURES
10
81.000
20
101.543
0
VERTEX
8
CONTOURS_MINEURES
10
78.383
20
101.623
0
VERTEX
8
CONTOURS_MINEURES
10
78.004
20
101.619
0
VERTEX
8
CONTOURS_MINEURES
10
77.620
20
101.619
0
VERTEX
8
CONTOURS_MINEURES
10
74.998
20
101.619
0
VERTEX
8
CONTOURS_MINEURES
10
73.714
20
102.003
0
VERTEX
8
CONTOURS_MINEURES
10
73.714
20
103.715
0
VERTEX
8
CONTOURS_MINEURES
10
73.714
20
104.999
0
VERTEX
8
CONTOURS_MINEURES
10
72.002
20
105.527
0
VERTEX
8
CONTOURS_MINEURES
10
69.988
20
105.992
0
VERTEX
8
CONTOURS_MINEURES
10
68.995
20
106.122
0
VERTEX
8
CONTOURS_MINEURES
10
67.119
20
106.122
0
VERTEX
8
CONTOURS_MINEURES
10
65.999
20
106.122
0
VERTEX
8
CONTOURS_MINEURES
10
64.725
20
106.277
0
VERTEX
8
CONTOURS_MINEURES
10
63.004
20
106.639
0
VERTEX
8
CONTOURS_MINEURES
10
61.637
20
106.639
0
VERTEX
8
CONTOURS_MINEURES
10
59.997
20
106.639
0
VERTEX
8
CONTOURS_MINEURES
10
58.105
20
106.898
0
VERTEX
8
CONTOURS_MINEURES
10
57.001
20
107.082
0
VERTEX
8
CONTOURS_MINEURES
10
54.842
20
107.158
0
VERTEX
8
CONTOURS_MINEURES
10
53.995
20
107.034
0
VERTEX
8
CONTOURS_MINEURES
10
53.027
20
107.034
0
VERTEX
8
CONTOURS_MINEURES
10
50.999
20
107.034
0
VERTEX
8
CONTOURS_MINEURES
10
48.882
20
107.123
0
VERTEX
8
CONTOURS_MINEURES
10
48.003
20
106.937
0
VERTEX
8
CONTOURS_MINEURES
10
46.843
20
106.846
0
VERTEX
8
CONTOURS_MINEURES
10
44.997
20
107.809
0
VERTEX
8
CONTOURS_MINEURES
10
42.196
20
107.809
0
VERTEX
8
CONTOURS_MINEURES
10
42.001
20
107.809
0
VERTEX
8
CONTOURS_MINEURES
10
40.203
20
108.005
0
VERTEX
8
CONTOURS_MINEURES
10
39.063
20
108.063
0
VERTEX
8
CONTOURS_MINEURES
10
39.005
20
108.084
0
VERTEX
8
CONTOURS_MINEURES
10
38.899
20
108.110
0
VERTEX
8
CONTOURS_MINEURES
10
38.337
20
108.005
0
VERTEX
8
CONTOURS_MINEURES
10
35.998
20
107.516
0
VERTEX
8
CONTOURS_MINEURES
10
33.490
20
107.516
0
VERTEX
8
CONTOURS_MINEURES
10
33.003
20
107.516
0
VERTEX
8
CONTOURS_MINEURES
10
32.573
20
107.576
0
VERTEX
8
CONTOURS_MINEURES
10
29.996
20
107.744
0
VERTEX
8
CONTOURS_MINEURES
10
28.498
20
108.005
0
VERTEX
8
CONTOURS_MINEURES
10
27.273
20
108.278
0
VERTEX
8
CONTOURS_MINEURES
10
27.000
20
108.449
0
VERTEX
8
CONTOURS_MINEURES
10
26.556
20
108.449
0
VERTEX
8
CONTOURS_MINEURES
10
24.004
20
108.449
0
VERTEX
8
CONTOURS_MINEURES
10
23.002
20
109.004
0
VERTEX
8
CONTOURS_MINEURES
10
20.998
20
110.252
0
VERTEX
8
CONTOURS_MINEURES
10
20.465
20
110.468
0
VERTEX
8
CONTOURS_MINEURES
10
19.736
20
111.001
0
VERTEX
8
CONTOURS_MINEURES
10
19.736
20
112.735
0
VERTEX
8
CONTOURS_MINEURES
10
19.736
20
113.997
0
VERTEX
8
CONTOURS_MINEURES
10
18.002
20
114.942
0
VERTEX
8
CONTOURS_MINEURES
10
17.057
20
114.942
0
VERTEX
8
CONTOURS_MINEURES
10
14.996
20
114.942
0
VERTEX
8
CONTOURS_MINEURES
10
13.498
20
115.500
0
VERTEX
8
CONTOURS_MINEURES
10
12.000
20
116.183
0
VERTEX
8
CONTOURS_MINEURES
10
9.821
20
116.183
0
VERTEX
8
CONTOURS_MINEURES
10
9.004
20
116.183
0
VERTEX
8
CONTOURS_MINEURES
10
7.412
20
117.003
0
VERTEX
8
CONTOURS_MINEURES
10
7.412
20
118.589
0
VERTEX
8
CONTOURS_MINEURES
10
7.412
20
119.999
0
VERTEX
8
CONTOURS_MINEURES
10
5.997
20
120.725
0
VERTEX
8
CONTOURS_MINEURES
10
3.973
20
120.970
0
VERTEX
8
CONTOURS_MINEURES
10
3.002
20
121.330
0
VERTEX
8
CONTOURS_MINEURES
10
1.665
20
121.330
0
VERTEX
8
CONTOURS_MINEURES
10
-0.005
20
121.330
0
SEQEND
0
POLYLINE
8
CONTOURS_MINEURES
66
1
70
0
0
VERTEX
8
CONTOURS_MINEURES
10
98.996
20
101.532
0
VERTEX
8
CONTOURS_MINEURES
10
98.313
20
101.317
0
VERTEX
8
CONTOURS_MINEURES
10
96.000
20
100.293
0
VERTEX
8
CONTOURS_MINEURES
10
94.297
20
100.293
0
VERTEX
8
CONTOURS_MINEURES
10
93.005
20
100.293
0
VERTEX
8
CONTOURS_MINEURES
10
90.065
20
98.996
0
VERTEX
8
CONTOURS_MINEURES
10
90.017
20
98.978
0
VERTEX
8
CONTOURS_MINEURES
10
89.998
20
98.974
0
VERTEX
8
CONTOURS_MINEURES
10
89.970
20
98.968
0
VERTEX
8
CONTOURS_MINEURES
10
87.002
20
98.669
0
VERTEX
8
CONTOURS_MINEURES
10
84.324
20
98.669
0
VERTEX
8
CONTOURS_MINEURES
10
83.996
20
98.669
0
VERTEX
8
CONTOURS_MINEURES
10
83.610
20
98.611
0
VERTEX
8
CONTOURS_MINEURES
10
81.000
20
98.511
0
VERTEX
8
CONTOURS_MINEURES
10
78.513
20
98.488
0
VERTEX
8
CONTOURS_MINEURES
10
78.004
20
98.506
0
VERTEX
8
CONTOURS_MINEURES
10
77.512
20
98.506
0
VERTEX
8
CONTOURS_MINEURES
10
74.998
20
98.506
0
VERTEX
8
CONTOURS_MINEURES
10
72.546
20
98.996
0
VERTEX
8
CONTOURS_MINEURES
10
72.002
20
99.133
0
VERTEX
8
CONTOURS_MINEURES
10
69.767
20
99.768
0
VERTEX
8
CONTOURS_MINEURES
10
68.995
20
99.944
0
VERTEX
8
CONTOURS_MINEURES
10
68.051
20
99.944
0
VERTEX
8
CONTOURS_MINEURES
10
65.999
20
99.944
0
VERTEX
8
CONTOURS_MINEURES
10
64.386
20
100.384
0
VERTEX
8
CONTOURS_MINEURES
10
63.004
20
100.724
0
VERTEX
8
CONTOURS_MINEURES
10
61.276
20
100.724
0
VERTEX
8
CONTOURS_MINEURES
10
59.997
20
100.724
0
VERTEX
8
CONTOURS_MINEURES
10
58.887
20
100.889
0
VERTEX
8
CONTOURS_MINEURES
10
57.001
20
101.294
0
VERTEX
8
CONTOURS_MINEURES
10
55.016
20
100.981
0
VERTEX
8
CONTOURS_MINEURES
10
53.995
20
100.654
0
VERTEX
8
CONTOURS_MINEURES
10
52.343
20
100.654
0
VERTEX
8
CONTOURS_MINEURES
10
50.999
20
100.654
0
VERTEX
8
CONTOURS_MINEURES
10
49.628
20
100.372
0
VERTEX
8
CONTOURS_MINEURES
10
48.003
20
99.530
0
VERTEX
8
CONTOURS_MINEURES
10
46.680
20
98.996
0
VERTEX
8
CONTOURS_MINEURES
10
45.426
20
98.568
0
VERTEX
8
CONTOURS_MINEURES
10
44.997
20
98.509
0
VERTEX
8
CONTOURS_MINEURES
10
42.488
20
98.509
0
VERTEX
8
CONTOURS_MINEURES
10
42.001
20
98.509
0
VERTEX
8
CONTOURS_MINEURES
10
41.434
20
98.430
0
VERTEX
8
CONTOURS_MINEURES
10
39.005
20
98.193
0
VERTEX
8
CONTOURS_MINEURES
10
38.270
20
98.264
0
VERTEX
8
CONTOURS_MINEURES
10
35.998
20
98.791
0
VERTEX
8
CONTOURS_MINEURES
10
33.208
20
98.791
0
VERTEX
8
CONTOURS_MINEURES
10
33.003
20
98.791
0
VERTEX
8
CONTOURS_MINEURES
10
31.332
20
98.996
0
VERTEX
8
CONTOURS_MINEURES
10
29.996
20
99.190
0
VERTEX
8
CONTOURS_MINEURES
10
27.000
20
98.996
0
VERTEX
8
CONTOURS_MINEURES
10
24.004
20
98.996
0
VERTEX
8
CONTOURS_MINEURES
10
21.262
20
99.260
0
VERTEX
8
CONTOURS_MINEURES
10
20.998
20
99.354
0
VERTEX
8
CONTOURS_MINEURES
10
20.650
20
99.346
0
VERTEX
8
CONTOURS_MINEURES
10
19.636
20
98.996
0
VERTEX
8
CONTOURS_MINEURES
10
18.002
20
98.663
0
VERTEX
8
CONTOURS_MINEURES
10
17.668
20
98.663
0
VERTEX
8
CONTOURS_MINEURES
10
14.996
20
98.663
0
VERTEX
8
CONTOURS_MINEURES
10
12.638
20
98.358
0
VERTEX
8
CONTOURS_MINEURES
10
12.000
20
98.046
0
VERTEX
8
CONTOURS_MINEURES
10
11.050
20
98.046
0
VERTEX
8
CONTOURS_MINEURES
10
9.004
20
98.046
0
VERTEX
8
CONTOURS_MINEURES
10
6.729
20
98.268
0
VERTEX
8
CONTOURS_MINEURES
10
5.997
20
98.354
0
VERTEX
8
CONTOURS_MINEURES
10
5.385
20
98.384
0
VERTEX
8
CONTOURS_MINEURES
10
3.002
20
98.622
0
VERTEX
8
CONTOURS_MINEURES
10
2.626
20
98.622
0
VERTEX
8
CONTOURS_MINEURES
10
-0.005
20
98.622
0
SEQEND
0
POLYLINE
8
CONTOURS_MINEURES
66
1
70
0
0
VERTEX
8
CONTOURS_MINEURES
10
98.996
20
98.079
0
VERTEX
8
CONTOURS_MINEURES
10
97.986
20
97.987
0
VERTEX
8
CONTOURS_MINEURES
10
96.000
20
97.538
0
VERTEX
8
CONTOURS_MINEURES
10
94.463
20
97.538
0
VERTEX
8
CONTOURS_MINEURES
10
93.005
20
97.538
0
VERTEX
8
CONTOURS_MINEURES
10
91.896
20
97.105
0
VERTEX
8
CONTOURS_MINEURES
10
89.998
20
96.738
0
VERTEX
8
CONTOURS_MINEURES
10
87.170
20
96.169
0
VERTEX
8
CONTOURS_MINEURES
10
87.002
20
96.152
0
VERTEX
8
CONTOURS_MINEURES
10
86.851
20
96.152
0
VERTEX
8
CONTOURS_MINEURES
10
83.996
20
96.152
0
VERTEX
8
CONTOURS_MINEURES
10
82.997
20
96.001
0
VERTEX
8
CONTOURS_MINEURES
10
82.997
20
94.004
0
VERTEX
8
CONTOURS_MINEURES
10
82.997
20
93.005
0
VERTEX
8
CONTOURS_MINEURES
10
81.216
20
92.788
0
VERTEX
8
CONTOURS_MINEURES
10
81.000
20
92.744
0
VERTEX
8
CONTOURS_MINEURES
10
80.719
20
92.723
0
VERTEX
8
CONTOURS_MINEURES
10
78.004
20
92.811
0
VERTEX
8
CONTOURS_MINEURES
10
77.810
20
92.811
0
VERTEX
8
CONTOURS_MINEURES
10
74.998
20
92.811
0
VERTEX
8
CONTOURS_MINEURES
10
74.815
20
92.821
0
VERTEX
8
CONTOURS_MINEURES
10
73.154
20
93.005
0
VERTEX
8
CONTOURS_MINEURES
10
73.154
20
94.157
0
VERTEX
8
CONTOURS_MINEURES
10
73.154
20
96.001
0
VERTEX
8
CONTOURS_MINEURES
10
72.002
20
96.149
0
VERTEX
8
CONTOURS_MINEURES
10
71.804
20
96.198
0
VERTEX
8
CONTOURS_MINEURES
10
68.995
20
96.826
0
VERTEX
8
CONTOURS_MINEURES
10
66.825
20
96.826
0
VERTEX
8
CONTOURS_MINEURES
10
65.999
20
96.826
0
VERTEX
8
CONTOURS_MINEURES
10
64.891
20
97.109
0
VERTEX
8
CONTOURS_MINEURES
10
63.004
20
97.576
0
VERTEX
8
CONTOURS_MINEURES
10
61.423
20
97.576
0
VERTEX
8
CONTOURS_MINEURES
10
59.997
20
97.576
0
VERTEX
8
CONTOURS_MINEURES
10
58.531
20
97.530
0
VERTEX
8
CONTOURS_MINEURES
10
57.001
20
97.798
0
VERTEX
8
CONTOURS_MINEURES
10
54.086
20
96.091
0
VERTEX
8
CONTOURS_MINEURES
10
53.995
20
96.052
0
VERTEX
8
CONTOURS_MINEURES
10
53.943
20
96.052
0
VERTEX
8
CONTOURS_MINEURES
10
50.999
20
96.052
0
VERTEX
8
CONTOURS_MINEURES
10
50.823
20
96.001
0
VERTEX
8
CONTOURS_MINEURES
10
50.823
20
93.181
0
VERTEX
8
CONTOURS_MINEURES
10
50.823
20
93.005
0
VERTEX
8
CONTOURS_MINEURES
10
48.536
20
92.471
0
VERTEX
8
CONTOURS_MINEURES
10
48.003
20
92.229
0
VERTEX
8
CONTOURS_MINEURES
10
46.134
20
91.867
0
VERTEX
8
CONTOURS_MINEURES
10
44.997
20
91.883
0
VERTEX
8
CONTOURS_MINEURES
10
43.119
20
91.883
0
VERTEX
8
CONTOURS_MINEURES
10
42.001
20
91.883
0
VERTEX
8
CONTOURS_MINEURES
10
40.382
20
91.623
0
VERTEX
8
CONTOURS_MINEURES
10
39.005
20
91.538
0
VERTEX
8
CONTOURS_MINEURES
10
37.335
20
91.335
0
VERTEX
8
CONTOURS_MINEURES
10
35.998
20
91.502
0
VERTEX
8
CONTOURS_MINEURES
10
34.500
20
91.502
0
VERTEX
8
CONTOURS_MINEURES
10
33.003
20
91.502
0
VERTEX
8
CONTOURS_MINEURES
10
31.187
20
91.814
0
VERTEX
8
CONTOURS_MINEURES
10
29.996
20
91.662
0
VERTEX
8
CONTOURS_MINEURES
10
28.340
20
91.343
0
VERTEX
8
CONTOURS_MINEURES
10
27.000
20
91.001
0
VERTEX
8
CONTOURS_MINEURES
10
26.002
20
91.001
0
VERTEX
8
CONTOURS_MINEURES
10
24.004
20
91.001
0
VERTEX
8
CONTOURS_MINEURES
10
21.875
20
90.875
0
VERTEX
8
CONTOURS_MINEURES
10
20.998
20
90.808
0
VERTEX
8
CONTOURS_MINEURES
10
20.362
20
90.636
0
VERTEX
8
CONTOURS_MINEURES
10
18.790
20
89.998
0
VERTEX
8
CONTOURS_MINEURES
10
18.790
20
89.210
0
VERTEX
8
CONTOURS_MINEURES
10
18.790
20
87.003
0
VERTEX
8
CONTOURS_MINEURES
10
18.002
20
86.702
0
VERTEX
8
CONTOURS_MINEURES
10
15.296
20
86.702
0
VERTEX
8
CONTOURS_MINEURES
10
14.996
20
86.702
0
VERTEX
8
CONTOURS_MINEURES
10
14.441
20
86.446
0
VERTEX
8
CONTOURS_MINEURES
10
12.000
20
85.374
0
VERTEX
8
CONTOURS_MINEURES
10
10.627
20
85.374
0
VERTEX
8
CONTOURS_MINEURES
10
9.004
20
85.374
0
VERTEX
8
CONTOURS_MINEURES
10
7.534
20
85.466
0
VERTEX
8
CONTOURS_MINEURES
10
5.997
20
85.394
0
VERTEX
8
CONTOURS_MINEURES
10
4.536
20
85.463
0
VERTEX
8
CONTOURS_MINEURES
10
3.002
20
85.146
0
VERTEX
8
CONTOURS_MINEURES
10
1.145
20
85.146
0
VERTEX
8
CONTOURS_MINEURES
10
-0.005
20
85.146
0
SEQEND
0
POLYLINE
8
CONTOURS_MINEURES
66
1
70
0
0
VERTEX
8
CONTOURS_MINEURES
10
98.996
20
92.223
0
VERTEX
8
CONTOURS_MINEURES
10
96.931
20
92.071
0
VERTEX
8
CONTOURS_MINEURES
10
96.000
20
92.112
0
VERTEX
8
CONTOURS_MINEURES
10
95.110
20
92.112
0
VERTEX
8
CONTOURS_MINEURES
10
93.005
20
92.112
0
VERTEX
8
CONTOURS_MINEURES
10
91.226
20
91.777
0
VERTEX
8
CONTOURS_MINEURES
10
89.998
20
91.653
0
VERTEX
8
CONTOURS_MINEURES
10
88.339
20
91.340
0
VERTEX
8
CONTOURS_MINEURES
10
87.002
20
91.095
0
VERTEX
8
CONTOURS_MINEURES
10
85.905
20
91.095
0
VERTEX
8
CONTOURS_MINEURES
10
83.996
20
91.095
0
VERTEX
8
CONTOURS_MINEURES
10
83.021
20
90.976
0
VERTEX
8
CONTOURS_MINEURES
10
81.000
20
90.565
0
VERTEX
8
CONTOURS_MINEURES
10
78.379
20
90.374
0
VERTEX
8
CONTOURS_MINEURES
10
78.004
20
90.386
0
VERTEX
8
CONTOURS_MINEURES
10
75.385
20
90.386
0
VERTEX
8
CONTOURS_MINEURES
10
74.998
20
90.386
0
VERTEX
8
CONTOURS_MINEURES
10
72.528
20
90.526
0
VERTEX
8
CONTOURS_MINEURES
10
72.002
20
90.584
0
VERTEX
8
CONTOURS_MINEURES
10
71.281
20
90.719
0
VERTEX
8
CONTOURS_MINEURES
10
68.995
20
91.249
0
VERTEX
8
CONTOURS_MINEURES
10
67.246
20
91.249
0
VERTEX
8
CONTOURS_MINEURES
10
65.999
20
91.249
0
VERTEX
8
CONTOURS_MINEURES
10
64.457
20
91.546
0
VERTEX
8
CONTOURS_MINEURES
10
63.004
20
91.690
0
VERTEX
8
CONTOURS_MINEURES
10
61.312
20
91.690
0
VERTEX
8
CONTOURS_MINEURES
10
59.997
20
91.690
0
VERTEX
8
CONTOURS_MINEURES
10
58.356
20
91.645
0
VERTEX
8
CONTOURS_MINEURES
10
57.001
20
91.075
0
VERTEX
8
CONTOURS_MINEURES
10
55.416
20
89.998
0
VERTEX
8
CONTOURS_MINEURES
10
55.416
20
88.582
0
VERTEX
8
CONTOURS_MINEURES
10
55.416
20
87.003
0
VERTEX
8
CONTOURS_MINEURES
10
53.995
20
85.655
0
VERTEX
8
CONTOURS_MINEURES
10
52.652
20
85.655
0
VERTEX
8
CONTOURS_MINEURES
10
50.999
20
85.655
0
VERTEX
8
CONTOURS_MINEURES
10
48.336
20
83.996
0
VERTEX
8
CONTOURS_MINEURES
10
48.003
20
83.736
0
VERTEX
8
CONTOURS_MINEURES
10
47.687
20
83.681
0
VERTEX
8
CONTOURS_MINEURES
10
44.997
20
83.315
0
VERTEX
8
CONTOURS_MINEURES
10
42.682
20
83.315
0
VERTEX
8
CONTOURS_MINEURES
10
42.001
20
83.315
0
VERTEX
8
CONTOURS_MINEURES
10
40.968
20
82.963
0
VERTEX
8
CONTOURS_MINEURES
10
39.005
20
82.627
0
VERTEX
8
CONTOURS_MINEURES
10
37.223
20
82.221
0
VERTEX
8
CONTOURS_MINEURES
10
35.998
20
81.749
0
VERTEX
8
CONTOURS_MINEURES
10
35.249
20
81.749
0
VERTEX
8
CONTOURS_MINEURES
10
33.003
20
81.749
0
VERTEX
8
CONTOURS_MINEURES
10
32.284
20
81.717
0
VERTEX
8
CONTOURS_MINEURES
10
29.996
20
81.940
0
VERTEX
8
CONTOURS_MINEURES
10
28.248
20
82.249
0
VERTEX
8
CONTOURS_MINEURES
10
27.000
20
82.784
0
VERTEX
8
CONTOURS_MINEURES
10
25.217
20
82.784
0
VERTEX
8
CONTOURS_MINEURES
10
24.004
20
82.784
0
VERTEX
8
CONTOURS_MINEURES
10
22.694
20
82.690
0
VERTEX
8
CONTOURS_MINEURES
10
20.998
20
82.433
0
VERTEX
8
CONTOURS_MINEURES
10
20.142
20
81.856
0
VERTEX
8
CONTOURS_MINEURES
10
18.557
20
81.000
0
VERTEX
8
CONTOURS_MINEURES
10
18.557
20
78.560
0
VERTEX
8
CONTOURS_MINEURES
10
18.557
20
78.005
0
VERTEX
8
CONTOURS_MINEURES
10
18.260
20
77.746
0
VERTEX
8
CONTOURS_MINEURES
10
18.002
20
77.468
0
VERTEX
8
CONTOURS_MINEURES
10
17.465
20
77.468
0
VERTEX
8
CONTOURS_MINEURES
10
14.996
20
77.468
0
VERTEX
8
CONTOURS_MINEURES
10
13.902
20
76.096
0
VERTEX
8
CONTOURS_MINEURES
10
13.027
20
74.998
0
VERTEX
8
CONTOURS_MINEURES
10
12.000
20
73.758
0
VERTEX
8
CONTOURS_MINEURES
10
10.244
20
73.758
0
VERTEX
8
CONTOURS_MINEURES
10
9.004
20
73.758
0
VERTEX
8
CONTOURS_MINEURES
10
7.000
20
73.001
0
VERTEX
8
CONTOURS_MINEURES
10
5.997
20
72.516
0
VERTEX
8
CONTOURS_MINEURES
10
5.512
20
72.488
0
VERTEX
8
CONTOURS_MINEURES
10
3.430
20
72.002
0
VERTEX
8
CONTOURS_MINEURES
10
3.430
20
69.425
0
VERTEX
8
CONTOURS_MINEURES
10
3.430
20
68.996
0
VERTEX
8
CONTOURS_MINEURES
10
3.063
20
68.935
0
VERTEX
8
CONTOURS_MINEURES
10
3.002
20
68.935
0
VERTEX
8
CONTOURS_MINEURES
10
2.940
20
68.935
0
VERTEX
8
CONTOURS_MINEURES
10
-0.005
20
68.935
0
SEQEND
0
POLYLINE
8
CONTOURS_MINEURES
66
1
70
0
0
VERTEX
8
CONTOURS_MINEURES
10
98.996
20
86.798
0
VERTEX
8
CONTOURS_MINEURES
10
96.072
20
86.931
0
VERTEX
8
CONTOURS_MINEURES
10
96.000
20
86.934
0
VERTEX
8
CONTOURS_MINEURES
10
95.932
20
86.934
0
VERTEX
8
CONTOURS_MINEURES
10
93.005
20
86.934
0
VERTEX
8
CONTOURS_MINEURES
10
90.369
20
86.632
0
VERTEX
8
CONTOURS_MINEURES
10
89.998
20
86.616
0
VERTEX
8
CONTOURS_MINEURES
10
87.823
20
86.179
0
VERTEX
8
CONTOURS_MINEURES
10
87.002
20
86.055
0
VERTEX
8
CONTOURS_MINEURES
10
86.055
20
86.055
0
VERTEX
8
CONTOURS_MINEURES
10
83.996
20
86.055
0
VERTEX
8
CONTOURS_MINEURES
10
82.274
20
85.724
0
VERTEX
8
CONTOURS_MINEURES
10
81.000
20
85.468
0
VERTEX
8
CONTOURS_MINEURES
10
79.628
20
85.373
0
VERTEX
8
CONTOURS_MINEURES
10
78.004
20
85.118
0
VERTEX
8
CONTOURS_MINEURES
10
76.119
20
85.118
0
VERTEX
8
CONTOURS_MINEURES
10
74.998
20
85.118
0
VERTEX
8
CONTOURS_MINEURES
10
73.818
20
85.180
0
VERTEX
8
CONTOURS_MINEURES
10
72.002
20
85.024
0
VERTEX
8
CONTOURS_MINEURES
10
70.150
20
85.151
0
VERTEX
8
CONTOURS_MINEURES
10
68.995
20
85.499
0
VERTEX
8
CONTOURS_MINEURES
10
67.497
20
85.499
0
VERTEX
8
CONTOURS_MINEURES
10
65.999
20
85.499
0
VERTEX
8
CONTOURS_MINEURES
10
64.288
20
85.285
0
VERTEX
8
CONTOURS_MINEURES
10
63.004
20
85.479
0
VERTEX
8
CONTOURS_MINEURES
10
61.480
20
85.479
0
VERTEX
8
CONTOURS_MINEURES
10
59.997
20
85.479
0
VERTEX
8
CONTOURS_MINEURES
10
58.989
20
85.008
0
VERTEX
8
CONTOURS_MINEURES
10
57.653
20
83.996
0
VERTEX
8
CONTOURS_MINEURES
10
57.284
20
83.713
0
VERTEX
8
CONTOURS_MINEURES
10
57.001
20
83.480
0
VERTEX
8
CONTOURS_MINEURES
10
54.555
20
81.000
0
VERTEX
8
CONTOURS_MINEURES
10
54.555
20
78.563
0
VERTEX
8
CONTOURS_MINEURES
10
54.555
20
78.005
0
VERTEX
8
CONTOURS_MINEURES
10
54.336
20
77.664
0
VERTEX
8
CONTOURS_MINEURES
10
53.995
20
77.480
0
VERTEX
8
CONTOURS_MINEURES
10
53.472
20
77.480
0
VERTEX
8
CONTOURS_MINEURES
10
50.999
20
77.480
0
VERTEX
8
CONTOURS_MINEURES
10
50.030
20
77.032
0
VERTEX
8
CONTOURS_MINEURES
10
48.003
20
75.852
0
VERTEX
8
CONTOURS_MINEURES
10
44.997
20
74.998
0
VERTEX
8
CONTOURS_MINEURES
10
42.001
20
74.998
0
VERTEX
8
CONTOURS_MINEURES
10
39.005
20
73.405
0
VERTEX
8
CONTOURS_MINEURES
10
37.884
20
73.119
0
VERTEX
8
CONTOURS_MINEURES
10
36.249
20
72.002
0
VERTEX
8
CONTOURS_MINEURES
10
36.249
20
71.752
0
VERTEX
8
CONTOURS_MINEURES
10
36.249
20
68.996
0
VERTEX
8
CONTOURS_MINEURES
10
35.998
20
68.863
0
VERTEX
8
CONTOURS_MINEURES
10
33.136
20
68.863
0
VERTEX
8
CONTOURS_MINEURES
10
33.003
20
68.863
0
VERTEX
8
CONTOURS_MINEURES
10
30.694
20
68.300
0
VERTEX
8
CONTOURS_MINEURES
10
29.996
20
68.090
0
VERTEX
8
CONTOURS_MINEURES
10
28.816
20
67.816
0
VERTEX
8
CONTOURS_MINEURES
10
27.000
20
67.664
0
VERTEX
8
CONTOURS_MINEURES
10
25.336
20
67.664
0
VERTEX
8
CONTOURS_MINEURES
10
24.004
20
67.664
0
VERTEX
8
CONTOURS_MINEURES
10
22.379
20
67.619
0
VERTEX
8
CONTOURS_MINEURES
10
20.998
20
67.404
0
VERTEX
8
CONTOURS_MINEURES
10
19.500
20
66.000
0
VERTEX
8
CONTOURS_MINEURES
10
18.715
20
65.287
0
VERTEX
8
CONTOURS_MINEURES
10
18.002
20
64.955
0
VERTEX
8
CONTOURS_MINEURES
10
16.953
20
64.955
0
VERTEX
8
CONTOURS_MINEURES
10
14.996
20
64.955
0
VERTEX
8
CONTOURS_MINEURES
10
13.920
20
64.080
0
VERTEX
8
CONTOURS_MINEURES
10
12.000
20
63.623
0
VERTEX
8
CONTOURS_MINEURES
10
9.622
20
63.623
0
VERTEX
8
CONTOURS_MINEURES
10
9.004
20
63.623
0
VERTEX
8
CONTOURS_MINEURES
10
8.403
20
63.604
0
VERTEX
8
CONTOURS_MINEURES
10
5.997
20
63.314
0
VERTEX
8
CONTOURS_MINEURES
10
3.637
20
63.640
0
VERTEX
8
CONTOURS_MINEURES
10
3.002
20
63.640
0
VERTEX
8
CONTOURS_MINEURES
10
2.364
20
63.640
0
VERTEX
8
CONTOURS_MINEURES
10
-0.005
20
63.640
0
SEQEND
0
POLYLINE
8
CONTOURS_MINEURES
66
1
70
0
0
VERTEX
8
CONTOURS_MINEURES
10
82.573
20
-0.003
0
VERTEX
8
CONTOURS_MINEURES
10
82.555
20
1.443
0
VERTEX
8
CONTOURS_MINEURES
10
82.660
20
3.003
0
VERTEX
8
CONTOURS_MINEURES
10
82.660
20
4.339
0
VERTEX
8
CONTOURS_MINEURES
10
82.660
20
5.999
0
VERTEX
8
CONTOURS_MINEURES
10
83.507
20
8.506
0
VERTEX
8
CONTOURS_MINEURES
10
83.596
20
8.995
0
VERTEX
8
CONTOURS_MINEURES
10
83.735
20
9.256
0
VERTEX
8
CONTOURS_MINEURES
10
83.996
20
9.476
0
VERTEX
8
CONTOURS_MINEURES
10
86.521
20
9.476
0
VERTEX
8
CONTOURS_MINEURES
10
87.002
20
9.476
0
VERTEX
8
CONTOURS_MINEURES
10
89.998
20
12.001
0
VERTEX
8
CONTOURS_MINEURES
10
89.998
20
14.997
0
VERTEX
8
CONTOURS_MINEURES
10
92.278
20
15.724
0
VERTEX
8
CONTOURS_MINEURES
10
93.005
20
15.804
0
VERTEX
8
CONTOURS_MINEURES
10
95.197
20
15.804
0
VERTEX
8
CONTOURS_MINEURES
10
96.000
20
15.804
0
VERTEX
8
CONTOURS_MINEURES
10
96.733
20
15.732
0
VERTEX
8
CONTOURS_MINEURES
10
98.996
20
15.598
0
SEQEND
0
POLYLINE
8
CONTOURS_MINEURES
66
1
70
0
0
VERTEX
8
CONTOURS_MINEURES
10
98.996
20
84.520
0
VERTEX
8
CONTOURS_MINEURES
10
98.449
20
84.545
0
VERTEX
8
CONTOURS_MINEURES
10
96.000
20
84.639
0
VERTEX
8
CONTOURS_MINEURES
10
93.645
20
84.639
0
VERTEX
8
CONTOURS_MINEURES
10
93.005
20
84.639
0
VERTEX
8
CONTOURS_MINEURES
10
92.428
20
84.573
0
VERTEX
8
CONTOURS_MINEURES
10
89.998
20
84.469
0
VERTEX
8
CONTOURS_MINEURES
10
89.606
20
84.390
0
VERTEX
8
CONTOURS_MINEURES
10
87.002
20
83.996
0
VERTEX
8
CONTOURS_MINEURES
10
83.996
20
83.996
0
VERTEX
8
CONTOURS_MINEURES
10
81.000
20
83.307
0
VERTEX
8
CONTOURS_MINEURES
10
79.023
20
82.977
0
VERTEX
8
CONTOURS_MINEURES
10
78.004
20
82.694
0
VERTEX
8
CONTOURS_MINEURES
10
76.305
20
82.694
0
VERTEX
8
CONTOURS_MINEURES
10
74.998
20
82.694
0
VERTEX
8
CONTOURS_MINEURES
10
73.315
20
82.313
0
VERTEX
8
CONTOURS_MINEURES
10
72.002
20
82.180
0
VERTEX
8
CONTOURS_MINEURES
10
70.713
20
82.284
0
VERTEX
8
CONTOURS_MINEURES
10
68.995
20
82.096
0
VERTEX
8
CONTOURS_MINEURES
10
67.095
20
82.096
0
VERTEX
8
CONTOURS_MINEURES
10
65.999
20
82.096
0
VERTEX
8
CONTOURS_MINEURES
10
63.356
20
81.000
0
VERTEX
8
CONTOURS_MINEURES
10
63.356
20
80.648
0
VERTEX
8
CONTOURS_MINEURES
10
63.356
20
78.005
0
VERTEX
8
CONTOURS_MINEURES
10
63.004
20
77.604
0
VERTEX
8
CONTOURS_MINEURES
10
62.603
20
77.604
0
VERTEX
8
CONTOURS_MINEURES
10
59.997
20
77.604
0
VERTEX
8
CONTOURS_MINEURES
10
58.050
20
74.998
0
VERTEX
8
CONTOURS_MINEURES
10
57.001
20
73.385
0
VERTEX
8
CONTOURS_MINEURES
10
56.400
20
72.602
0
VERTEX
8
CONTOURS_MINEURES
10
54.746
20
72.002
0
VERTEX
8
CONTOURS_MINEURES
10
54.746
20
69.747
0
VERTEX
8
CONTOURS_MINEURES
10
54.746
20
68.996
0
VERTEX
8
CONTOURS_MINEURES
10
54.281
20
68.710
0
VERTEX
8
CONTOURS_MINEURES
10
53.995
20
68.621
0
VERTEX
8
CONTOURS_MINEURES
10
51.373
20
68.621
0
VERTEX
8
CONTOURS_MINEURES
10
50.999
20
68.621
0
VERTEX
8
CONTOURS_MINEURES
10
50.368
20
68.365
0
VERTEX
8
CONTOURS_MINEURES
10
48.003
20
67.322
0
VERTEX
8
CONTOURS_MINEURES
10
46.548
20
66.000
0
VERTEX
8
CONTOURS_MINEURES
10
45.737
20
65.263
0
VERTEX
8
CONTOURS_MINEURES
10
44.997
20
64.771
0
VERTEX
8
CONTOURS_MINEURES
10
43.767
20
64.771
0
VERTEX
8
CONTOURS_MINEURES
10
42.001
20
64.771
0
VERTEX
8
CONTOURS_MINEURES
10
40.924
20
64.081
0
VERTEX
8
CONTOURS_MINEURES
10
39.778
20
63.004
0
VERTEX
8
CONTOURS_MINEURES
10
39.778
20
60.774
0
VERTEX
8
CONTOURS_MINEURES
10
39.778
20
59.998
0
VERTEX
8
CONTOURS_MINEURES
10
39.005
20
59.499
0
VERTEX
8
CONTOURS_MINEURES
10
37.236
20
58.764
0
VERTEX
8
CONTOURS_MINEURES
10
35.998
20
57.377
0
VERTEX
8
CONTOURS_MINEURES
10
33.377
20
57.377
0
VERTEX
8
CONTOURS_MINEURES
10
33.003
20
57.377
0
VERTEX
8
CONTOURS_MINEURES
10
32.757
20
57.247
0
VERTEX
8
CONTOURS_MINEURES
10
32.370
20
57.002
0
VERTEX
8
CONTOURS_MINEURES
10
32.370
20
54.628
0
VERTEX
8
CONTOURS_MINEURES
10
32.370
20
53.995
0
VERTEX
8
CONTOURS_MINEURES
10
29.996
20
52.198
0
VERTEX
8
CONTOURS_MINEURES
10
28.963
20
52.033
0
VERTEX
8
CONTOURS_MINEURES
10
27.000
20
51.806
0
VERTEX
8
CONTOURS_MINEURES
10
24.811
20
51.806
0
VERTEX
8
CONTOURS_MINEURES
10
24.004
20
51.806
0
VERTEX
8
CONTOURS_MINEURES
10
22.100
20
52.098
0
VERTEX
8
CONTOURS_MINEURES
10
20.998
20
52.220
0
VERTEX
8
CONTOURS_MINEURES
10
19.862
20
52.136
0
VERTEX
8
CONTOURS_MINEURES
10
18.002
20
52.647
0
VERTEX
8
CONTOURS_MINEURES
10
16.649
20
52.647
0
VERTEX
8
CONTOURS_MINEURES
10
14.996
20
52.647
0
VERTEX
8
CONTOURS_MINEURES
10
12.130
20
51.000
0
VERTEX
8
CONTOURS_MINEURES
10
12.000
20
50.912
0
VERTEX
8
CONTOURS_MINEURES
10
9.092
20
50.912
0
VERTEX
8
CONTOURS_MINEURES
10
9.004
20
50.912
0
VERTEX
8
CONTOURS_MINEURES
10
8.837
20
50.833
0
VERTEX
8
CONTOURS_MINEURES
10
5.997
20
49.310
0
VERTEX
8
CONTOURS_MINEURES
10
4.657
20
49.344
0
VERTEX
8
CONTOURS_MINEURES
10
3.002
20
49.716
0
VERTEX
8
CONTOURS_MINEURES
10
1.284
20
49.716
0
VERTEX
8
CONTOURS_MINEURES
10
-0.005
20
49.716
0
SEQEND
0
POLYLINE
8
CONTOURS_MINEURES
66
1
70
0
0
VERTEX
8
CONTOURS_MINEURES
10
71.701
20
-0.003
0
VERTEX
8
CONTOURS_MINEURES
10
71.844
20
2.845
0
VERTEX
8
CONTOURS_MINEURES
10
71.808
20
3.003
0
VERTEX
8
CONTOURS_MINEURES
10
71.808
20
5.806
0
VERTEX
8
CONTOURS_MINEURES
10
71.808
20
5.999
0
VERTEX
8
CONTOURS_MINEURES
10
71.871
20
6.129
0
VERTEX
8
CONTOURS_MINEURES
10
72.002
20
6.398
0
VERTEX
8
CONTOURS_MINEURES
10
73.345
20
8.995
0
VERTEX
8
CONTOURS_MINEURES
10
73.588
20
10.410
0
VERTEX
8
CONTOURS_MINEURES
10
74.698
20
12.001
0
VERTEX
8
CONTOURS_MINEURES
10
74.698
20
14.697
0
VERTEX
8
CONTOURS_MINEURES
10
74.698
20
14.997
0
VERTEX
8
CONTOURS_MINEURES
10
74.861
20
15.134
0
VERTEX
8
CONTOURS_MINEURES
10
74.998
20
15.426
0
VERTEX
8
CONTOURS_MINEURES
10
75.427
20
15.426
0
VERTEX
8
CONTOURS_MINEURES
10
78.004
20
15.426
0
VERTEX
8
CONTOURS_MINEURES
10
79.003
20
15.999
0
VERTEX
8
CONTOURS_MINEURES
10
81.000
20
17.402
0
VERTEX
8
CONTOURS_MINEURES
10
81.193
20
17.810
0
VERTEX
8
CONTOURS_MINEURES
10
81.705
20
18.004
0
VERTEX
8
CONTOURS_MINEURES
10
83.996
20
19.260
0
VERTEX
8
CONTOURS_MINEURES
10
85.257
20
19.260
0
VERTEX
8
CONTOURS_MINEURES
10
87.002
20
19.260
0
VERTEX
8
CONTOURS_MINEURES
10
88.103
20
19.899
0
VERTEX
8
CONTOURS_MINEURES
10
89.698
20
20.999
0
VERTEX
8
CONTOURS_MINEURES
10
89.698
20
23.695
0
VERTEX
8
CONTOURS_MINEURES
10
89.698
20
23.995
0
VERTEX
8
CONTOURS_MINEURES
10
89.998
20
24.195
0
VERTEX
8
CONTOURS_MINEURES
10
92.103
20
24.897
0
VERTEX
8
CONTOURS_MINEURES
10
93.005
20
25.894
0
VERTEX
8
CONTOURS_MINEURES
10
94.897
20
25.894
0
VERTEX
8
CONTOURS_MINEURES
10
96.000
20
25.894
0
VERTEX
8
CONTOURS_MINEURES
10
97.798
20
25.799
0
VERTEX
8
CONTOURS_MINEURES
10
98.996
20
24.997
0
SEQEND
0
POLYLINE
8
CONTOURS_MINEURES
66
1
70
0
0
VERTEX
8
CONTOURS_MINEURES
10
98.996
20
81.820
0
VERTEX
8
CONTOURS_MINEURES
10
96.973
20
81.973
0
VERTEX
8
CONTOURS_MINEURES
10
96.000
20
82.017
0
VERTEX
8
CONTOURS_MINEURES
10
94.983
20
82.017
0
VERTEX
8
CONTOURS_MINEURES
10
93.005
20
82.017
0
VERTEX
8
CONTOURS_MINEURES
10
91.072
20
82.070
0
VERTEX
8
CONTOURS_MINEURES
10
89.998
20
82.016
0
VERTEX
8
CONTOURS_MINEURES
10
87.684
20
81.683
0
VERTEX
8
CONTOURS_MINEURES
10
87.002
20
81.561
0
VERTEX
8
CONTOURS_MINEURES
10
86.440
20
81.561
0
VERTEX
8
CONTOURS_MINEURES
10
83.996
20
81.561
0
VERTEX
8
CONTOURS_MINEURES
10
81.346
20
81.000
0
VERTEX
8
CONTOURS_MINEURES
10
81.346
20
80.655
0
VERTEX
8
CONTOURS_MINEURES
10
81.346
20
78.005
0
VERTEX
8
CONTOURS_MINEURES
10
81.000
20
77.900
0
VERTEX
8
CONTOURS_MINEURES
10
78.893
20
77.113
0
VERTEX
8
CONTOURS_MINEURES
10
78.004
20
76.673
0
VERTEX
8
CONTOURS_MINEURES
10
76.330
20
76.673
0
VERTEX
8
CONTOURS_MINEURES
10
74.998
20
76.673
0
VERTEX
8
CONTOURS_MINEURES
10
72.164
20
75.161
0
VERTEX
8
CONTOURS_MINEURES
10
72.002
20
75.094
0
VERTEX
8
CONTOURS_MINEURES
10
71.918
20
75.082
0
VERTEX
8
CONTOURS_MINEURES
10
71.801
20
74.998
0
VERTEX
8
CONTOURS_MINEURES
10
70.498
20
73.500
0
VERTEX
8
CONTOURS_MINEURES
10
69.142
20
72.002
0
VERTEX
8
CONTOURS_MINEURES
10
69.142
20
71.856
0
VERTEX
8
CONTOURS_MINEURES
10
69.142
20
68.996
0
VERTEX
8
CONTOURS_MINEURES
10
69.099
20
68.892
0
VERTEX
8
CONTOURS_MINEURES
10
68.995
20
68.596
0
VERTEX
8
CONTOURS_MINEURES
10
66.399
20
68.596
0
VERTEX
8
CONTOURS_MINEURES
10
65.999
20
68.596
0
VERTEX
8
CONTOURS_MINEURES
10
64.887
20
66.000
0
VERTEX
8
CONTOURS_MINEURES
10
64.349
20
64.655
0
VERTEX
8
CONTOURS_MINEURES
10
63.620
20
63.004
0
VERTEX
8
CONTOURS_MINEURES
10
63.620
20
60.617
0
VERTEX
8
CONTOURS_MINEURES
10
63.620
20
59.998
0
VERTEX
8
CONTOURS_MINEURES
10
63.703
20
59.299
0
VERTEX
8
CONTOURS_MINEURES
10
63.004
20
58.091
0
VERTEX
8
CONTOURS_MINEURES
10
61.910
20
58.091
0
VERTEX
8
CONTOURS_MINEURES
10
59.997
20
58.091
0
VERTEX
8
CONTOURS_MINEURES
10
59.673
20
57.326
0
VERTEX
8
CONTOURS_MINEURES
10
58.799
20
57.002
0
VERTEX
8
CONTOURS_MINEURES
10
58.799
20
55.799
0
VERTEX
8
CONTOURS_MINEURES
10
58.799
20
53.995
0
VERTEX
8
CONTOURS_MINEURES
10
58.499
20
52.498
0
VERTEX
8
CONTOURS_MINEURES
10
58.363
20
51.000
0
VERTEX
8
CONTOURS_MINEURES
10
57.001
20
48.503
0
VERTEX
8
CONTOURS_MINEURES
10
55.498
20
49.502
0
VERTEX
8
CONTOURS_MINEURES
10
56.166
20
51.000
0
VERTEX
8
CONTOURS_MINEURES
10
56.052
20
53.049
0
VERTEX
8
CONTOURS_MINEURES
10
53.995
20
53.163
0
VERTEX
8
CONTOURS_MINEURES
10
51.831
20
53.163
0
VERTEX
8
CONTOURS_MINEURES
10
50.999
20
53.163
0
VERTEX
8
CONTOURS_MINEURES
10
50.749
20
53.746
0
VERTEX
8
CONTOURS_MINEURES
10
50.167
20
53.995
0
VERTEX
8
CONTOURS_MINEURES
10
50.167
20
54.831
0
VERTEX
8
CONTOURS_MINEURES
10
50.167
20
57.002
0
VERTEX
8
CONTOURS_MINEURES
10
48.003
20
57.611
0
VERTEX
8
CONTOURS_MINEURES
10
46.440
20
57.002
0
VERTEX
8
CONTOURS_MINEURES
10
46.440
20
55.559
0
VERTEX
8
CONTOURS_MINEURES
10
46.440
20
53.995
0
VERTEX
8
CONTOURS_MINEURES
10
45.535
20
53.459
0
VERTEX
8
CONTOURS_MINEURES
10
44.997
20
53.277
0
VERTEX
8
CONTOURS_MINEURES
10
42.720
20
53.277
0
VERTEX
8
CONTOURS_MINEURES
10
42.001
20
53.277
0
VERTEX
8
CONTOURS_MINEURES
10
39.968
20
51.000
0
VERTEX
8
CONTOURS_MINEURES
10
40.353
20
49.652
0
VERTEX
8
CONTOURS_MINEURES
10
40.062
20
48.004
0
VERTEX
8
CONTOURS_MINEURES
10
40.062
20
46.943
0
VERTEX
8
CONTOURS_MINEURES
10
40.062
20
44.998
0
VERTEX
8
CONTOURS_MINEURES
10
39.005
20
42.002
0
VERTEX
8
CONTOURS_MINEURES
10
37.729
20
40.271
0
VERTEX
8
CONTOURS_MINEURES
10
35.998
20
39.622
0
VERTEX
8
CONTOURS_MINEURES
10
35.374
20
39.622
0
VERTEX
8
CONTOURS_MINEURES
10
33.003
20
39.622
0
VERTEX
8
CONTOURS_MINEURES
10
32.251
20
38.995
0
VERTEX
8
CONTOURS_MINEURES
10
32.251
20
38.246
0
VERTEX
8
CONTOURS_MINEURES
10
32.251
20
36.000
0
VERTEX
8
CONTOURS_MINEURES
10
29.996
20
33.635
0
VERTEX
8
CONTOURS_MINEURES
10
29.568
20
33.432
0
VERTEX
8
CONTOURS_MINEURES
10
27.000
20
33.520
0
VERTEX
8
CONTOURS_MINEURES
10
26.484
20
33.520
0
VERTEX
8
CONTOURS_MINEURES
10
24.004
20
33.520
0
VERTEX
8
CONTOURS_MINEURES
10
21.857
20
33.004
0
VERTEX
8
CONTOURS_MINEURES
10
21.857
20
32.145
0
VERTEX
8
CONTOURS_MINEURES
10
21.857
20
29.997
0
VERTEX
8
CONTOURS_MINEURES
10
20.998
20
29.737
0
VERTEX
8
CONTOURS_MINEURES
10
20.767
20
29.767
0
VERTEX
8
CONTOURS_MINEURES
10
18.002
20
29.569
0
VERTEX
8
CONTOURS_MINEURES
10
17.573
20
29.569
0
VERTEX
8
CONTOURS_MINEURES
10
14.996
20
29.569
0
VERTEX
8
CONTOURS_MINEURES
10
14.074
20
29.997
0
VERTEX
8
CONTOURS_MINEURES
10
14.074
20
32.079
0
VERTEX
8
CONTOURS_MINEURES
10
14.074
20
33.004
0
VERTEX
8
CONTOURS_MINEURES
10
12.728
20
33.733
0
VERTEX
8
CONTOURS_MINEURES
10
12.000
20
34.002
0
VERTEX
8
CONTOURS_MINEURES
10
10.003
20
34.002
0
VERTEX
8
CONTOURS_MINEURES
10
9.004
20
34.002
0
VERTEX
8
CONTOURS_MINEURES
10
7.616
20
36.000
0
VERTEX
8
CONTOURS_MINEURES
10
7.616
20
37.613
0
VERTEX
8
CONTOURS_MINEURES
10
7.616
20
38.995
0
VERTEX
8
CONTOURS_MINEURES
10
5.997
20
40.284
0
VERTEX
8
CONTOURS_MINEURES
10
4.551
20
40.550
0
VERTEX
8
CONTOURS_MINEURES
10
3.002
20
41.369
0
VERTEX
8
CONTOURS_MINEURES
10
0.628
20
41.369
0
VERTEX
8
CONTOURS_MINEURES
10
-0.005
20
41.369
0
SEQEND
0
POLYLINE
8
CONTOURS_MINEURES
66
1
70
0
0
VERTEX
8
CONTOURS_MINEURES
10
57.800
20
-0.003
0
VERTEX
8
CONTOURS_MINEURES
10
57.572
20
0.569
0
VERTEX
8
CONTOURS_MINEURES
10
57.001
20
1.715
0
VERTEX
8
CONTOURS_MINEURES
10
56.561
20
2.563
0
VERTEX
8
CONTOURS_MINEURES
10
56.099
20
3.003
0
VERTEX
8
CONTOURS_MINEURES
10
56.099
20
3.902
0
VERTEX
8
CONTOURS_MINEURES
10
56.099
20
5.999
0
VERTEX
8
CONTOURS_MINEURES
10
55.874
20
7.122
0
VERTEX
8
CONTOURS_MINEURES
10
57.001
20
8.567
0
VERTEX
8
CONTOURS_MINEURES
10
57.131
20
8.995
0
VERTEX
8
CONTOURS_MINEURES
10
57.098
20
9.092
0
VERTEX
8
CONTOURS_MINEURES
10
57.001
20
9.268
0
VERTEX
8
CONTOURS_MINEURES
10
56.400
20
9.596
0
VERTEX
8
CONTOURS_MINEURES
10
53.995
20
11.142
0
VERTEX
8
CONTOURS_MINEURES
10
53.139
20
11.142
0
VERTEX
8
CONTOURS_MINEURES
10
50.999
20
11.142
0
VERTEX
8
CONTOURS_MINEURES
10
50.454
20
11.455
0
VERTEX
8
CONTOURS_MINEURES
10
49.287
20
12.001
0
VERTEX
8
CONTOURS_MINEURES
10
49.287
20
13.285
0
VERTEX
8
CONTOURS_MINEURES
10
49.287
20
14.997
0
VERTEX
8
CONTOURS_MINEURES
10
48.313
20
15.308
0
VERTEX
8
CONTOURS_MINEURES
10
48.003
20
15.528
0
VERTEX
8
CONTOURS_MINEURES
10
46.090
20
18.004
0
VERTEX
8
CONTOURS_MINEURES
10
44.997
20
18.709
0
VERTEX
8
CONTOURS_MINEURES
10
42.706
20
18.709
0
VERTEX
8
CONTOURS_MINEURES
10
42.001
20
18.709
0
VERTEX
8
CONTOURS_MINEURES
10
41.531
20
18.474
0
VERTEX
8
CONTOURS_MINEURES
10
39.822
20
18.004
0
VERTEX
8
CONTOURS_MINEURES
10
39.005
20
17.473
0
VERTEX
8
CONTOURS_MINEURES
10
38.554
20
17.553
0
VERTEX
8
CONTOURS_MINEURES
10
35.998
20
16.546
0
VERTEX
8
CONTOURS_MINEURES
10
34.455
20
16.546
0
VERTEX
8
CONTOURS_MINEURES
10
33.003
20
16.546
0
VERTEX
8
CONTOURS_MINEURES
10
31.583
20
16.417
0
VERTEX
8
CONTOURS_MINEURES
10
29.996
20
16.575
0
VERTEX
8
CONTOURS_MINEURES
10
28.702
20
16.705
0
VERTEX
8
CONTOURS_MINEURES
10
27.000
20
17.208
0
VERTEX
8
CONTOURS_MINEURES
10
26.207
20
17.208
0
VERTEX
8
CONTOURS_MINEURES
10
24.004
20
17.208
0
VERTEX
8
CONTOURS_MINEURES
10
21.656
20
17.346
0
VERTEX
8
CONTOURS_MINEURES
10
20.998
20
17.325
0
VERTEX
8
CONTOURS_MINEURES
10
18.944
20
17.059
0
VERTEX
8
CONTOURS_MINEURES
10
18.002
20
16.937
0
VERTEX
8
CONTOURS_MINEURES
10
16.935
20
16.937
0
VERTEX
8
CONTOURS_MINEURES
10
14.996
20
16.937
0
VERTEX
8
CONTOURS_MINEURES
10
14.026
20
17.031
0
VERTEX
8
CONTOURS_MINEURES
10
12.000
20
17.467
0
VERTEX
8
CONTOURS_MINEURES
10
9.539
20
17.467
0
VERTEX
8
CONTOURS_MINEURES
10
9.004
20
17.467
0
VERTEX
8
CONTOURS_MINEURES
10
6.699
20
17.302
0
VERTEX
8
CONTOURS_MINEURES
10
5.997
20
17.366
0
VERTEX
8
CONTOURS_MINEURES
10
5.221
20
17.224
0
VERTEX
8
CONTOURS_MINEURES
10
4.091
20
18.004
0
VERTEX
8
CONTOURS_MINEURES
10
3.002
20
18.327
0
VERTEX
8
CONTOURS_MINEURES
10
2.677
20
18.327
0
VERTEX
8
CONTOURS_MINEURES
10
-0.005
20
18.327
0
SEQEND
0
POLYLINE
8
CONTOURS_MINEURES
66
1
70
0
0
VERTEX
8
CONTOURS_MINEURES
10
98.996
20
75.232
0
VERTEX
8
CONTOURS_MINEURES
10
96.709
20
75.709
0
VERTEX
8
CONTOURS_MINEURES
10
96.000
20
75.776
0
VERTEX
8
CONTOURS_MINEURES
10
93.780
20
75.776
0
VERTEX
8
CONTOURS_MINEURES
10
93.005
20
75.776
0
VERTEX
8
CONTOURS_MINEURES
10
92.198
20
75.805
0
VERTEX
8
CONTOURS_MINEURES
10
89.998
20
75.692
0
VERTEX
8
CONTOURS_MINEURES
10
87.302
20
74.998
0
VERTEX
8
CONTOURS_MINEURES
10
87.117
20
74.883
0
VERTEX
8
CONTOURS_MINEURES
10
87.002
20
74.784
0
VERTEX
8
CONTOURS_MINEURES
10
86.787
20
74.784
0
VERTEX
8
CONTOURS_MINEURES
10
83.996
20
74.784
0
VERTEX
8
CONTOURS_MINEURES
10
82.184
20
73.814
0
VERTEX
8
CONTOURS_MINEURES
10
81.000
20
73.112
0
VERTEX
8
CONTOURS_MINEURES
10
79.930
20
72.002
0
VERTEX
8
CONTOURS_MINEURES
10
79.930
20
70.070
0
VERTEX
8
CONTOURS_MINEURES
10
79.930
20
68.996
0
VERTEX
8
CONTOURS_MINEURES
10
78.004
20
66.749
0
VERTEX
8
CONTOURS_MINEURES
10
75.749
20
66.749
0
VERTEX
8
CONTOURS_MINEURES
10
74.998
20
66.749
0
VERTEX
8
CONTOURS_MINEURES
10
74.729
20
66.268
0
VERTEX
8
CONTOURS_MINEURES
10
74.638
20
66.000
0
VERTEX
8
CONTOURS_MINEURES
10
74.615
20
65.618
0
VERTEX
8
CONTOURS_MINEURES
10
74.276
20
63.004
0
VERTEX
8
CONTOURS_MINEURES
10
74.276
20
60.722
0
VERTEX
8
CONTOURS_MINEURES
10
74.276
20
59.998
0
VERTEX
8
CONTOURS_MINEURES
10
74.457
20
59.457
0
VERTEX
8
CONTOURS_MINEURES
10
74.491
20
57.002
0
VERTEX
8
CONTOURS_MINEURES
10
74.491
20
54.504
0
VERTEX
8
CONTOURS_MINEURES
10
74.491
20
53.995
0
VERTEX
8
CONTOURS_MINEURES
10
74.554
20
53.552
0
VERTEX
8
CONTOURS_MINEURES
10
74.998
20
52.797
0
VERTEX
8
CONTOURS_MINEURES
10
76.200
20
52.797
0
VERTEX
8
CONTOURS_MINEURES
10
78.004
20
52.797
0
VERTEX
8
CONTOURS_MINEURES
10
78.610
20
51.606
0
VERTEX
8
CONTOURS_MINEURES
10
78.809
20
51.000
0
VERTEX
8
CONTOURS_MINEURES
10
79.590
20
49.414
0
VERTEX
8
CONTOURS_MINEURES
10
80.214
20
48.004
0
VERTEX
8
CONTOURS_MINEURES
10
80.214
20
47.216
0
VERTEX
8
CONTOURS_MINEURES
10
80.214
20
44.998
0
VERTEX
8
CONTOURS_MINEURES
10
81.000
20
42.601
0
VERTEX
8
CONTOURS_MINEURES
10
81.226
20
42.228
0
VERTEX
8
CONTOURS_MINEURES
10
81.461
20
42.002
0
VERTEX
8
CONTOURS_MINEURES
10
83.996
20
39.639
0
VERTEX
8
CONTOURS_MINEURES
10
86.358
20
39.639
0
VERTEX
8
CONTOURS_MINEURES
10
87.002
20
39.639
0
VERTEX
8
CONTOURS_MINEURES
10
87.402
20
39.396
0
VERTEX
8
CONTOURS_MINEURES
10
87.901
20
38.995
0
VERTEX
8
CONTOURS_MINEURES
10
87.901
20
36.898
0
VERTEX
8
CONTOURS_MINEURES
10
87.901
20
36.000
0
VERTEX
8
CONTOURS_MINEURES
10
89.998
20
34.835
0
VERTEX
8
CONTOURS_MINEURES
10
91.652
20
34.652
0
VERTEX
8
CONTOURS_MINEURES
10
93.005
20
34.921
0
VERTEX
8
CONTOURS_MINEURES
10
94.083
20
34.921
0
VERTEX
8
CONTOURS_MINEURES
10
96.000
20
34.921
0
VERTEX
8
CONTOURS_MINEURES
10
97.184
20
34.187
0
VERTEX
8
CONTOURS_MINEURES
10
98.996
20
33.872
0
SEQEND
0
POLYLINE
8
CONTOURS_MINEURES
66
1
70
0
0
VERTEX
8
CONTOURS_MINEURES
10
27.500
20
-0.003
0
VERTEX
8
CONTOURS_MINEURES
10
27.150
20
0.147
0
VERTEX
8
CONTOURS_MINEURES
10
27.000
20
0.137
0
VERTEX
8
CONTOURS_MINEURES
10
26.861
20
0.137
0
VERTEX
8
CONTOURS_MINEURES
10
24.004
20
0.137
0
VERTEX
8
CONTOURS_MINEURES
10
21.679
20
0.677
0
VERTEX
8
CONTOURS_MINEURES
10
20.998
20
0.899
0
VERTEX
8
CONTOURS_MINEURES
10
19.999
20
0.999
0
VERTEX
8
CONTOURS_MINEURES
10
18.002
20
1.363
0
VERTEX
8
CONTOURS_MINEURES
10
16.362
20
1.363
0
VERTEX
8
CONTOURS_MINEURES
10
14.996
20
1.363
0
VERTEX
8
CONTOURS_MINEURES
10
13.376
20
1.622
0
VERTEX
8
CONTOURS_MINEURES
10
12.000
20
2.020
0
VERTEX
8
CONTOURS_MINEURES
10
11.020
20
2.020
0
VERTEX
8
CONTOURS_MINEURES
10
9.004
20
2.020
0
VERTEX
8
CONTOURS_MINEURES
10
6.716
20
2.284
0
VERTEX
8
CONTOURS_MINEURES
10
5.997
20
2.452
0
VERTEX
8
CONTOURS_MINEURES
10
5.107
20
2.109
0
VERTEX
8
CONTOURS_MINEURES
10
3.002
20
1.734
0
VERTEX
8
CONTOURS_MINEURES
10
1.264
20
1.734
0
VERTEX
8
CONTOURS_MINEURES
10
-0.005
20
1.734
0
SEQEND
0
POLYLINE
8
CONTOURS_MINEURES
66
1
70
0
0
VERTEX
8
CONTOURS_MINEURES
10
98.996
20
63.640
0
VERTEX
8
CONTOURS_MINEURES
10
98.220
20
63.781
0
VERTEX
8
CONTOURS_MINEURES
10
96.375
20
63.004
0
VERTEX
8
CONTOURS_MINEURES
10
96.375
20
60.374
0
VERTEX
8
CONTOURS_MINEURES
10
96.375
20
59.998
0
VERTEX
8
CONTOURS_MINEURES
10
96.000
20
59.878
0
VERTEX
8
CONTOURS_MINEURES
10
93.124
20
59.878
0
VERTEX
8
CONTOURS_MINEURES
10
93.005
20
59.878
0
VERTEX
8
CONTOURS_MINEURES
10
90.599
20
57.002
0
VERTEX
8
CONTOURS_MINEURES
10
90.599
20
56.401
0
VERTEX
8
CONTOURS_MINEURES
10
90.599
20
53.995
0
VERTEX
8
CONTOURS_MINEURES
10
90.486
20
53.510
0
VERTEX
8
CONTOURS_MINEURES
10
90.837
20
51.000
0
VERTEX
8
CONTOURS_MINEURES
10
92.403
20
48.603
0
VERTEX
8
CONTOURS_MINEURES
10
92.704
20
48.004
0
VERTEX
8
CONTOURS_MINEURES
10
92.704
20
47.704
0
VERTEX
8
CONTOURS_MINEURES
10
92.704
20
44.998
0
VERTEX
8
CONTOURS_MINEURES
10
93.005
20
44.784
0
VERTEX
8
CONTOURS_MINEURES
10
95.786
20
44.784
0
VERTEX
8
CONTOURS_MINEURES
10
96.000
20
44.784
0
VERTEX
8
CONTOURS_MINEURES
10
97.646
20
43.647
0
VERTEX
8
CONTOURS_MINEURES
10
98.921
20
42.002
0
VERTEX
8
CONTOURS_MINEURES
10
98.996
20
41.944
0
SEQEND
0
POLYLINE
8
CONTOURS_MAJEURES
66
1
70
0
0
VERTEX
8
CONTOURS_MAJEURES
10
98.996
20
122.534
0
VERTEX
8
CONTOURS_MAJEURES
10
98.441
20
122.440
0
VERTEX
8
CONTOURS_MAJEURES
10
96.000
20
122.307
0
VERTEX
8
CONTOURS_MAJEURES
10
95.313
20
122.307
0
VERTEX
8
CONTOURS_MAJEURES
10
93.005
20
122.307
0
VERTEX
8
CONTOURS_MAJEURES
10
90.800
20
122.196
0
VERTEX
8
CONTOURS_MAJEURES
10
89.998
20
121.937
0
VERTEX
8
CONTOURS_MAJEURES
10
88.722
20
121.718
0
VERTEX
8
CONTOURS_MAJEURES
10
87.002
20
121.923
0
VERTEX
8
CONTOURS_MAJEURES
10
85.071
20
121.923
0
VERTEX
8
CONTOURS_MAJEURES
10
83.996
20
121.923
0
VERTEX
8
CONTOURS_MAJEURES
10
82.751
20
121.750
0
VERTEX
8
CONTOURS_MAJEURES
10
81.000
20
122.107
0
VERTEX
8
CONTOURS_MAJEURES
10
78.180
20
122.995
0
VERTEX
8
CONTOURS_MAJEURES
10
78.004
20
123.058
0
VERTEX
8
CONTOURS_MAJEURES
10
75.061
20
123.058
0
VERTEX
8
CONTOURS_MAJEURES
10
74.998
20
123.058
0
VERTEX
8
CONTOURS_MAJEURES
10
74.882
20
123.110
0
VERTEX
8
CONTOURS_MAJEURES
10
72.002
20
124.349
0
VERTEX
8
CONTOURS_MAJEURES
10
70.671
20
124.671
0
VERTEX
8
CONTOURS_MAJEURES
10
68.995
20
125.147
0
VERTEX
8
CONTOURS_MAJEURES
10
66.850
20
125.147
0
VERTEX
8
CONTOURS_MAJEURES
10
65.999
20
125.147
0
VERTEX
8
CONTOURS_MAJEURES
10
63.449
20
125.554
0
VERTEX
8
CONTOURS_MAJEURES
10
63.004
20
125.638
0
VERTEX
8
CONTOURS_MAJEURES
10
62.640
20
125.638
0
VERTEX
8
CONTOURS_MAJEURES
10
59.997
20
125.638
0
VERTEX
8
CONTOURS_MAJEURES
10
57.251
20
126.001
0
VERTEX
8
CONTOURS_MAJEURES
10
57.251
20
126.251
0
VERTEX
8
CONTOURS_MAJEURES
10
57.251
20
128.997
0
VERTEX
8
CONTOURS_MAJEURES
10
57.031
20
129.027
0
VERTEX
8
CONTOURS_MAJEURES
10
57.001
20
129.031
0
VERTEX
8
CONTOURS_MAJEURES
10
56.946
20
129.053
0
VERTEX
8
CONTOURS_MAJEURES
10
53.995
20
129.907
0
VERTEX
8
CONTOURS_MAJEURES
10
53.088
20
129.907
0
VERTEX
8
CONTOURS_MAJEURES
10
50.999
20
129.907
0
VERTEX
8
CONTOURS_MAJEURES
10
49.501
20
130.500
0
VERTEX
8
CONTOURS_MAJEURES
10
48.003
20
131.653
0
VERTEX
8
CONTOURS_MAJEURES
10
47.684
20
132.004
0
SEQEND
0
POLYLINE
8
CONTOURS_MAJEURES
66
1
70
0
0
VERTEX
8
CONTOURS_MAJEURES
10
98.996
20
101.532
0
VERTEX
8
CONTOURS_MAJEURES
10
98.313
20
101.317
0
VERTEX
8
CONTOURS_MAJEURES
10
96.000
20
100.293
0
VERTEX
8
CONTOURS_MAJEURES
10
94.297
20
100.293
0
VERTEX
8
CONTOURS_MAJEURES
10
93.005
20
100.293
0
VERTEX
8
CONTOURS_MAJEURES
10
90.065
20
98.996
0
VERTEX
8
CONTOURS_MAJEURES
10
90.017
20
98.978
0
VERTEX
8
CONTOURS_MAJEURES
10
89.998
20
98.974
0
VERTEX
8
CONTOURS_MAJEURES
10
89.970
20
98.968
0
VERTEX
8
CONTOURS_MAJEURES
10
87.002
20
98.669
0
VERTEX
8
CONTOURS_MAJEURES
10
84.324
20
98.669
0
VERTEX
8
CONTOURS_MAJEURES
10
83.996
20
98.669
0
VERTEX
8
CONTOURS_MAJEURES
10
83.610
20
98.611
0
VERTEX
8
CONTOURS_MAJEURES
10
81.000
20
98.511
0
VERTEX
8
CONTOURS_MAJEURES
10
78.513
20
98.488
0
VERTEX
8
CONTOURS_MAJEURES
10
78.004
20
98.506
0
VERTEX
8
CONTOURS_MAJEURES
10
77.512
20
98.506
0
VERTEX
8
CONTOURS_MAJEURES
10
74.998
20
98.506
0
VERTEX
8
CONTOURS_MAJEURES
10
72.546
20
98.996
0
VERTEX
8
CONTOURS_MAJEURES
10
72.002
20
99.133
0
VERTEX
8
CONTOURS_MAJEURES
10
69.767
20
99.768
0
VERTEX
8
CONTOURS_MAJEURES
10
68.995
20
99.944
0
VERTEX
8
CONTOURS_MAJEURES
10
68.051
20
99.944
0
VERTEX
8
CONTOURS_MAJEURES
10
65.999
20
99.944
0
VERTEX
8
CONTOURS_MAJEURES
10
64.386
20
100.384
0
VERTEX
8
CONTOURS_MAJEURES
10
63.004
20
100.724
0
VERTEX
8
CONTOURS_MAJEURES
10
61.276
20
100.724
0
VERTEX
8
CONTOURS_MAJEURES
10
59.997
20
100.724
0
VERTEX
8
CONTOURS_MAJEURES
10
58.887
20
100.889
0
VERTEX
8
CONTOURS_MAJEURES
10
57.001
20
101.294
0
VERTEX
8
CONTOURS_MAJEURES
10
55.016
20
100.981
0
VERTEX
8
CONTOURS_MAJEURES
10
53.995
20
100.654
0
VERTEX
8
CONTOURS_MAJEURES
10
52.343
20
100.654
0
VERTEX
8
CONTOURS_MAJEURES
10
50.999
20
100.654
0
VERTEX
8
CONTOURS_MAJEURES
10
49.628
20
100.372
0
VERTEX
8
CONTOURS_MAJEURES
10
48.003
20
99.530
0
VERTEX
8
CONTOURS_MAJEURES
10
46.680
20
98.996
0
VERTEX
8
CONTOURS_MAJEURES
10
45.426
20
98.568
0
VERTEX
8
CONTOURS_MAJEURES
10
44.997
20
98.509
0
VERTEX
8
CONTOURS_MAJEURES
10
42.488
20
98.509
0
VERTEX
8
CONTOURS_MAJEURES
10
42.001
20
98.509
0
VERTEX
8
CONTOURS_MAJEURES
10
41.434
20
98.430
0
VERTEX
8
CONTOURS_MAJEURES
10
39.005
20
98.193
0
VERTEX
8
CONTOURS_MAJEURES
10
38.270
20
98.264
0
VERTEX
8
CONTOURS_MAJEURES
10
35.998
20
98.791
0
VERTEX
8
CONTOURS_MAJEURES
10
33.208
20
98.791
0
VERTEX
8
CONTOURS_MAJEURES
10
33.003
20
98.791
0
VERTEX
8
CONTOURS_MAJEURES
10
31.332
20
98.996
0
VERTEX
8
CONTOURS_MAJEURES
10
29.996
20
99.190
0
VERTEX
8
CONTOURS_MAJEURES
10
27.000
20
98.996
0
VERTEX
8
CONTOURS_MAJEURES
10
24.004
20
98.996
0
VERTEX
8
CONTOURS_MAJEURES
10
21.262
20
99.260
0
VERTEX
8
CONTOURS_MAJEURES
10
20.998
20
99.354
0
VERTEX
8
CONTOURS_MAJEURES
10
20.650
20
99.346
0
VERTEX
8
CONTOURS_MAJEURES
10
19.636
20
98.996
0
VERTEX
8
CONTOURS_MAJEURES
10
18.002
20
98.663
0
VERTEX
8
CONTOURS_MAJEURES
10
17.668
20
98.663
0
VERTEX
8
CONTOURS_MAJEURES
10
14.996
20
98.663
0
VERTEX
8
CONTOURS_MAJEURES
10
12.638
20
98.358
0
VERTEX
8
CONTOURS_MAJEURES
10
12.000
20
98.046
0
VERTEX
8
CONTOURS_MAJEURES
10
11.050
20
98.046
0
VERTEX
8
CONTOURS_MAJEURES
10
9.004
20
98.046
0
VERTEX
8
CONTOURS_MAJEURES
10
6.729
20
98.268
0
VERTEX
8
CONTOURS_MAJEURES
10
5.997
20
98.354
0
VERTEX
8
CONTOURS_MAJEURES
10
5.385
20
98.384
0
VERTEX
8
CONTOURS_MAJEURES
10
3.002
20
98.622
0
VERTEX
8
CONTOURS_MAJEURES
10
2.626
20
98.622
0
VERTEX
8
CONTOURS_MAJEURES
10
-0.005
20
98.622
0
SEQEND
0
POLYLINE
8
CONTOURS_MAJEURES
66
1
70
0
0
VERTEX
8
CONTOURS_MAJEURES
10
71.701
20
-0.003
0
VERTEX
8
CONTOURS_MAJEURES
10
71.844
20
2.845
0
VERTEX
8
CONTOURS_MAJEURES
10
71.808
20
3.003
0
VERTEX
8
CONTOURS_MAJEURES
10
71.808
20
5.806
0
VERTEX
8
CONTOURS_MAJEURES
10
71.808
20
5.999
0
VERTEX
8
CONTOURS_MAJEURES
10
71.871
20
6.129
0
VERTEX
8
CONTOURS_MAJEURES
10
72.002
20
6.398
0
VERTEX
8
CONTOURS_MAJEURES
10
73.345
20
8.995
0
VERTEX
8
CONTOURS_MAJEURES
10
73.588
20
10.410
0
VERTEX
8
CONTOURS_MAJEURES
10
74.698
20
12.001
0
VERTEX
8
CONTOURS_MAJEURES
10
74.698
20
14.697
0
VERTEX
8
CONTOURS_MAJEURES
10
74.698
20
14.997
0
VERTEX
8
CONTOURS_MAJEURES
10
74.861
20
15.134
0
VERTEX
8
CONTOURS_MAJEURES
10
74.998
20
15.426
0
VERTEX
8
CONTOURS_MAJEURES
10
75.427
20
15.426
0
VERTEX
8
CONTOURS_MAJEURES
10
78.004
20
15.426
0
VERTEX
8
CONTOURS_MAJEURES
10
79.003
20
15.999
0
VERTEX
8
CONTOURS_MAJEURES
10
81.000
20
17.402
0
VERTEX
8
CONTOURS_MAJEURES
10
81.193
20
17.810
0
VERTEX
8
CONTOURS_MAJEURES
10
81.705
20
18.004
0
VERTEX
8
CONTOURS_MAJEURES
10
83.996
20
19.260
0
VERTEX
8
CONTOURS_MAJEURES
10
85.257
20
19.260
0
VERTEX
8
CONTOURS_MAJEURES
10
87.002
20
19.260
0
VERTEX
8
CONTOURS_MAJEURES
10
88.103
20
19.899
0
VERTEX
8
CONTOURS_MAJEURES
10
89.698
20
20.999
0
VERTEX
8
CONTOURS_MAJEURES
10
89.698
20
23.695
0
VERTEX
8
CONTOURS_MAJEURES
10
89.698
20
23.995
0
VERTEX
8
CONTOURS_MAJEURES
10
89.998
20
24.195
0
VERTEX
8
CONTOURS_MAJEURES
10
92.103
20
24.897
0
VERTEX
8
CONTOURS_MAJEURES
10
93.005
20
25.894
0
VERTEX
8
CONTOURS_MAJEURES
10
94.897
20
25.894
0
VERTEX
8
CONTOURS_MAJEURES
10
96.000
20
25.894
0
VERTEX
8
CONTOURS_MAJEURES
10
97.798
20
25.799
0
VERTEX
8
CONTOURS_MAJEURES
10
98.996
20
24.997
0
SEQEND
0
POLYLINE
8
CONTOURS_MAJEURES
66
1
70
0
0
VERTEX
8
CONTOURS_MAJEURES
10
98.996
20
81.820
0
VERTEX
8
CONTOURS_MAJEURES
10
96.973
20
81.973
0
VERTEX
8
CONTOURS_MAJEURES
10
96.000
20
82.017
0
VERTEX
8
CONTOURS_MAJEURES
10
94.983
20
82.017
0
VERTEX
8
CONTOURS_MAJEURES
10
93.005
20
82.017
0
VERTEX
8
CONTOURS_MAJEURES
10
91.072
20
82.070
0
VERTEX
8
CONTOURS_MAJEURES
10
89.998
20
82.016
0
VERTEX
8
CONTOURS_MAJEURES
10
87.684
20
81.683
0
VERTEX
8
CONTOURS_MAJEURES
10
87.002
20
81.561
0
VERTEX
8
CONTOURS_MAJEURES
10
86.440
20
81.561
0
VERTEX
8
CONTOURS_MAJEURES
10
83.996
20
81.561
0
VERTEX
8
CONTOURS_MAJEURES
10
81.346
20
81.000
0
VERTEX
8
CONTOURS_MAJEURES
10
81.346
20
80.655
0
VERTEX
8
CONTOURS_MAJEURES
10
81.346
20
78.005
0
VERTEX
8
CONTOURS_MAJEURES
10
81.000
20
77.900
0
VERTEX
8
CONTOURS_MAJEURES
10
78.893
20
77.113
0
VERTEX
8
CONTOURS_MAJEURES
10
78.004
20
76.673
0
VERTEX
8
CONTOURS_MAJEURES
10
76.330
20
76.673
0
VERTEX
8
CONTOURS_MAJEURES
10
74.998
20
76.673
0
VERTEX
8
CONTOURS_MAJEURES
10
72.164
20
75.161
0
VERTEX
8
CONTOURS_MAJEURES
10
72.002
20
75.094
0
VERTEX
8
CONTOURS_MAJEURES
10
71.918
20
75.082
0
VERTEX
8
CONTOURS_MAJEURES
10
71.801
20
74.998
0
VERTEX
8
CONTOURS_MAJEURES
10
70.498
20
73.500
0
VERTEX
8
CONTOURS_MAJEURES
10
69.142
20
72.002
0
VERTEX
8
CONTOURS_MAJEURES
10
69.142
20
71.856
0
VERTEX
8
CONTOURS_MAJEURES
10
69.142
20
68.996
0
VERTEX
8
CONTOURS_MAJEURES
10
69.099
20
68.892
0
VERTEX
8
CONTOURS_MAJEURES
10
68.995
20
68.596
0
VERTEX
8
CONTOURS_MAJEURES
10
66.399
20
68.596
0
VERTEX
8
CONTOURS_MAJEURES
10
65.999
20
68.596
0
VERTEX
8
CONTOURS_MAJEURES
10
64.887
20
66.000
0
VERTEX
8
CONTOURS_MAJEURES
10
64.349
20
64.655
0
VERTEX
8
CONTOURS_MAJEURES
10
63.620
20
63.004
0
VERTEX
8
CONTOURS_MAJEURES
10
63.620
20
60.617
0
VERTEX
8
CONTOURS_MAJEURES
10
63.620
20
59.998
0
VERTEX
8
CONTOURS_MAJEURES
10
63.703
20
59.299
0
VERTEX
8
CONTOURS_MAJEURES
10
63.004
20
58.091
0
VERTEX
8
CONTOURS_MAJEURES
10
61.910
20
58.091
0
VERTEX
8
CONTOURS_MAJEURES
10
59.997
20
58.091
0
VERTEX
8
CONTOURS_MAJEURES
10
59.673
20
57.326
0
VERTEX
8
CONTOURS_MAJEURES
10
58.799
20
57.002
0
VERTEX
8
CONTOURS_MAJEURES
10
58.799
20
55.799
0
VERTEX
8
CONTOURS_MAJEURES
10
58.799
20
53.995
0
VERTEX
8
CONTOURS_MAJEURES
10
58.499
20
52.498
0
VERTEX
8
CONTOURS_MAJEURES
10
58.363
20
51.000
0
VERTEX
8
CONTOURS_MAJEURES
10
57.001
20
48.503
0
VERTEX
8
CONTOURS_MAJEURES
10
55.498
20
49.502
0
VERTEX
8
CONTOURS_MAJEURES
10
56.166
20
51.000
0
VERTEX
8
CONTOURS_MAJEURES
10
56.052
20
53.049
0
VERTEX
8
CONTOURS_MAJEURES
10
53.995
20
53.163
0
VERTEX
8
CONTOURS_MAJEURES
10
51.831
20
53.163
0
VERTEX
8
CONTOURS_MAJEURES
10
50.999
20
53.163
0
VERTEX
8
CONTOURS_MAJEURES
10
50.749
20
53.746
0
VERTEX
8
CONTOURS_MAJEURES
10
50.167
20
53.995
0
VERTEX
8
CONTOURS_MAJEURES
10
50.167
20
54.831
0
VERTEX
8
CONTOURS_MAJEURES
10
50.167
20
57.002
0
VERTEX
8
CONTOURS_MAJEURES
10
48.003
20
57.611
0
VERTEX
8
CONTOURS_MAJEURES
10
46.440
20
57.002
0
VERTEX
8
CONTOURS_MAJEURES
10
46.440
20
55.559
0
VERTEX
8
CONTOURS_MAJEURES
10
46.440
20
53.995
0
VERTEX
8
CONTOURS_MAJEURES
10
45.535
20
53.459
0
VERTEX
8
CONTOURS_MAJEURES
10
44.997
20
53.277
0
VERTEX
8
CONTOURS_MAJEURES
10
42.720
20
53.277
0
VERTEX
8
CONTOURS_MAJEURES
10
42.001
20
53.277
0
VERTEX
8
CONTOURS_MAJEURES
10
39.968
20
51.000
0
VERTEX
8
CONTOURS_MAJEURES
10
40.353
20
49.652
0
VERTEX
8
CONTOURS_MAJEURES
10
40.062
20
48.004
0
VERTEX
8
CONTOURS_MAJEURES
10
40.062
20
46.943
0
VERTEX
8
CONTOURS_MAJEURES
10
40.062
20
44.998
0
VERTEX
8
CONTOURS_MAJEURES
10
39.005
20
42.002
0
VERTEX
8
CONTOURS_MAJEURES
10
37.729
20
40.271
0
VERTEX
8
CONTOURS_MAJEURES
10
35.998
20
39.622
0
VERTEX
8
CONTOURS_MAJEURES
10
35.374
20
39.622
0
VERTEX
8
CONTOURS_MAJEURES
10
33.003
20
39.622
0
VERTEX
8
CONTOURS_MAJEURES
10
32.251
20
38.995
0
VERTEX
8
CONTOURS_MAJEURES
10
32.251
20
38.246
0
VERTEX
8
CONTOURS_MAJEURES
10
32.251
20
36.000
0
VERTEX
8
CONTOURS_MAJEURES
10
29.996
20
33.635
0
VERTEX
8
CONTOURS_MAJEURES
10
29.568
20
33.432
0
VERTEX
8
CONTOURS_MAJEURES
10
27.000
20
33.520
0
VERTEX
8
CONTOURS_MAJEURES
10
26.484
20
33.520
0
VERTEX
8
CONTOURS_MAJEURES
10
24.004
20
33.520
0
VERTEX
8
CONTOURS_MAJEURES
10
21.857
20
33.004
0
VERTEX
8
CONTOURS_MAJEURES
10
21.857
20
32.145
0
VERTEX
8
CONTOURS_MAJEURES
10
21.857
20
29.997
0
VERTEX
8
CONTOURS_MAJEURES
10
20.998
20
29.737
0
VERTEX
8
CONTOURS_MAJEURES
10
20.767
20
29.767
0
VERTEX
8
CONTOURS_MAJEURES
10
18.002
20
29.569
0
VERTEX
8
CONTOURS_MAJEURES
10
17.573
20
29.569
0
VERTEX
8
CONTOURS_MAJEURES
10
14.996
20
29.569
0
VERTEX
8
CONTOURS_MAJEURES
10
14.074
20
29.997
0
VERTEX
8
CONTOURS_MAJEURES
10
14.074
20
32.079
0
VERTEX
8
CONTOURS_MAJEURES
10
14.074
20
33.004
0
VERTEX
8
CONTOURS_MAJEURES
10
12.728
20
33.733
0
VERTEX
8
CONTOURS_MAJEURES
10
12.000
20
34.002
0
VERTEX
8
CONTOURS_MAJEURES
10
10.003
20
34.002
0
VERTEX
8
CONTOURS_MAJEURES
10
9.004
20
34.002
0
VERTEX
8
CONTOURS_MAJEURES
10
7.616
20
36.000
0
VERTEX
8
CONTOURS_MAJEURES
10
7.616
20
37.613
0
VERTEX
8
CONTOURS_MAJEURES
10
7.616
20
38.995
0
VERTEX
8
CONTOURS_MAJEURES
10
5.997
20
40.284
0
VERTEX
8
CONTOURS_MAJEURES
10
4.551
20
40.550
0
VERTEX
8
CONTOURS_MAJEURES
10
3.002
20
41.369
0
VERTEX
8
CONTOURS_MAJEURES
10
0.628
20
41.369
0
VERTEX
8
CONTOURS_MAJEURES
10
-0.005
20
41.369
0
SEQEND
0
POLYLINE
8
PARCELLE
66
1
70
1
0
VERTEX
8
PARCELLE
10
28.058
20
113.665
0
VERTEX
8
PARCELLE
10
75.626
20
108.596
0
VERTEX
8
PARCELLE
10
80.559
20
65.468
0
VERTEX
8
PARCELLE
10
42.042
20
66.401
0
VERTEX
8
PARCELLE
10
41.209
20
63.813
0
VERTEX
8
PARCELLE
10
33.410
20
20.000
0
VERTEX
8
PARCELLE
10
20.000
20
20.569
0
VERTEX
8
PARCELLE
10
20.454
20
24.420
0
VERTEX
8
PARCELLE
10
27.914
20
112.038
0
VERTEX
8
PARCELLE
10
28.058
20
113.665
0
SEQEND
0
TEXT
8
POINTS_COTES
10
-0.005
20
-0.003
40
1.0
1
47.3
0
TEXT
8
POINTS_COTES
10
24.004
20
5.999
40
1.0
1
46.6
0
TEXT
8
POINTS_COTES
10
48.003
20
12.001
40
1.0
1
46.0
0
TEXT
8
POINTS_COTES
10
72.002
20
18.004
40
1.0
1
45.4
0
TEXT
8
POINTS_COTES
10
96.000
20
23.995
40
1.0
1
44.9
0
TEXT
8
POINTS_COTES
10
18.002
20
33.004
40
1.0
1
45.0
0
TEXT
8
POINTS_COTES
10
42.001
20
38.995
40
1.0
1
45.2
0
TEXT
8
POINTS_COTES
10
65.999
20
44.998
40
1.0
1
45.2
0
TEXT
8
POINTS_COTES
10
89.998
20
51.000
40
1.0
1
46.9
0
TEXT
8
POINTS_COTES
10
12.000
20
59.998
40
1.0
1
43.1
0
TEXT
8
POINTS_COTES
10
35.998
20
66.000
40
1.0
1
43.4
0
TEXT
8
POINTS_COTES
10
59.997
20
72.002
40
1.0
1
44.5
0
TEXT
8
POINTS_COTES
10
83.996
20
78.005
40
1.0
1
45.2
0
TEXT
8
POINTS_COTES
10
5.997
20
87.003
40
1.0
1
40.8
0
TEXT
8
POINTS_COTES
10
29.996
20
93.005
40
1.0
1
40.8
0
TEXT
8
POINTS_COTES
10
53.995
20
98.996
40
1.0
1
40.4
0
TEXT
8
POINTS_COTES
10
78.004
20
104.999
40
1.0
1
38.9
0
TEXT
8
POINTS_COTES
10
-0.005
20
113.997
40
1.0
1
39.2
0
TEXT
8
POINTS_COTES
10
24.004
20
119.999
40
1.0
1
38.8
0
TEXT
8
POINTS_COTES
10
48.003
20
126.001
40
1.0
1
35.5
0
TEXT
8
POINTS_COTES
10
72.002
20
132.004
40
1.0
1
33.7
0
ENDSEC
0
EOF
