0
SECTION
2
HEADER
0
ENDSEC
0
SECTION
2
TABLES
0
TABLE
2
LAYER
70
4
0
LAYER
2
CONTOURS_MINEURES
70
0
62
8
6
CONTINUOUS
0
LAYER
2
CONTOURS_MAJEURES
70
0
62
3
6
CONTINUOUS
0
LAYER
2
PARCELLE
70
0
62
4
6
CONTINUOUS
0
LAYER
2
POINTS_COTES
70
0
62
7
6
CONTINUOUS
0
ENDTAB
0
ENDSEC
0
SECTION
2
ENTITIES
0
POLYLINE
8
CONTOURS_MINEURES
66
1
70
0
0
VERTEX
8
CONTOURS_MINEURES
10
84.005
20
53.665
0
VERTEX
8
CONTOURS_MINEURES
10
83.668
20
53.665
0
VERTEX
8
CONTOURS_MINEURES
10
80.999
20
53.665
0
VERTEX
8
CONTOURS_MINEURES
10
79.296
20
54.002
0
VERTEX
8
CONTOURS_MINEURES
10
79.030
20
55.029
0
VERTEX
8
CONTOURS_MINEURES
10
80.387
20
56.998
0
VERTEX
8
CONTOURS_MINEURES
10
80.387
20
59.390
0
VERTEX
8
CONTOURS_MINEURES
10
80.387
20
60.004
0
VERTEX
8
CONTOURS_MINEURES
10
80.529
20
60.474
0
VERTEX
8
CONTOURS_MINEURES
10
80.999
20
61.021
0
VERTEX
8
CONTOURS_MINEURES
10
82.985
20
61.021
0
VERTEX
8
CONTOURS_MINEURES
10
84.005
20
61.021
0
SEQEND
0
POLYLINE
8
CONTOURS_MINEURES
66
1
70
0
0
VERTEX
8
CONTOURS_MINEURES
10
60.241
20
78.000
0
VERTEX
8
CONTOURS_MINEURES
10
59.998
20
77.547
0
VERTEX
8
CONTOURS_MINEURES
10
58.213
20
76.790
0
VERTEX
8
CONTOURS_MINEURES
10
57.002
20
76.714
0
VERTEX
8
CONTOURS_MINEURES
10
55.287
20
76.714
0
VERTEX
8
CONTOURS_MINEURES
10
53.996
20
76.714
0
VERTEX
8
CONTOURS_MINEURES
10
53.302
20
77.306
0
VERTEX
8
CONTOURS_MINEURES
10
52.442
20
78.000
0
VERTEX
8
CONTOURS_MINEURES
10
52.060
20
79.936
0
VERTEX
8
CONTOURS_MINEURES
10
52.396
20
80.996
0
VERTEX
8
CONTOURS_MINEURES
10
52.396
20
82.397
0
VERTEX
8
CONTOURS_MINEURES
10
52.396
20
84.003
0
VERTEX
8
CONTOURS_MINEURES
10
53.384
20
84.615
0
VERTEX
8
CONTOURS_MINEURES
10
53.996
20
84.571
0
VERTEX
8
CONTOURS_MINEURES
10
54.567
20
84.571
0
VERTEX
8
CONTOURS_MINEURES
10
57.002
20
84.571
0
VERTEX
8
CONTOURS_MINEURES
10
57.304
20
84.304
0
VERTEX
8
CONTOURS_MINEURES
10
57.765
20
84.003
0
VERTEX
8
CONTOURS_MINEURES
10
57.765
20
83.238
0
VERTEX
8
CONTOURS_MINEURES
10
57.765
20
80.996
0
VERTEX
8
CONTOURS_MINEURES
10
58.057
20
79.055
0
VERTEX
8
CONTOURS_MINEURES
10
59.998
20
78.375
0
VERTEX
8
CONTOURS_MINEURES
10
60.135
20
78.137
0
VERTEX
8
CONTOURS_MINEURES
10
60.241
20
78.000
0
SEQEND
0
POLYLINE
8
CONTOURS_MINEURES
66
1
70
0
0
VERTEX
8
CONTOURS_MINEURES
10
84.005
20
52.811
0
VERTEX
8
CONTOURS_MINEURES
10
82.814
20
52.811
0
VERTEX
8
CONTOURS_MINEURES
10
80.999
20
52.811
0
VERTEX
8
CONTOURS_MINEURES
10
78.746
20
53.257
0
VERTEX
8
CONTOURS_MINEURES
10
78.003
20
52.089
0
VERTEX
8
CONTOURS_MINEURES
10
77.218
20
54.002
0
VERTEX
8
CONTOURS_MINEURES
10
77.488
20
54.515
0
VERTEX
8
CONTOURS_MINEURES
10
78.003
20
55.083
0
VERTEX
8
CONTOURS_MINEURES
10
79.323
20
56.998
0
VERTEX
8
CONTOURS_MINEURES
10
79.323
20
58.322
0
VERTEX
8
CONTOURS_MINEURES
10
79.323
20
60.004
0
VERTEX
8
CONTOURS_MINEURES
10
79.712
20
61.292
0
VERTEX
8
CONTOURS_MINEURES
10
80.999
20
62.788
0
VERTEX
8
CONTOURS_MINEURES
10
81.212
20
62.788
0
VERTEX
8
CONTOURS_MINEURES
10
84.005
20
62.788
0
SEQEND
0
POLYLINE
8
CONTOURS_MINEURES
66
1
70
0
0
VERTEX
8
CONTOURS_MINEURES
10
50.207
20
84.796
0
VERTEX
8
CONTOURS_MINEURES
10
51.001
20
85.443
0
VERTEX
8
CONTOURS_MINEURES
10
51.961
20
86.038
0
VERTEX
8
CONTOURS_MINEURES
10
53.996
20
85.894
0
VERTEX
8
CONTOURS_MINEURES
10
55.894
20
85.894
0
VERTEX
8
CONTOURS_MINEURES
10
57.002
20
85.894
0
VERTEX
8
CONTOURS_MINEURES
10
58.006
20
85.006
0
VERTEX
8
CONTOURS_MINEURES
10
59.537
20
84.003
0
VERTEX
8
CONTOURS_MINEURES
10
59.537
20
81.459
0
VERTEX
8
CONTOURS_MINEURES
10
59.537
20
80.996
0
VERTEX
8
CONTOURS_MINEURES
10
59.598
20
80.596
0
VERTEX
8
CONTOURS_MINEURES
10
59.998
20
80.455
0
VERTEX
8
CONTOURS_MINEURES
10
60.895
20
78.894
0
VERTEX
8
CONTOURS_MINEURES
10
61.589
20
78.000
0
VERTEX
8
CONTOURS_MINEURES
10
59.998
20
75.030
0
VERTEX
8
CONTOURS_MINEURES
10
59.980
20
75.022
0
VERTEX
8
CONTOURS_MINEURES
10
59.698
20
75.005
0
VERTEX
8
CONTOURS_MINEURES
10
59.698
20
74.704
0
VERTEX
8
CONTOURS_MINEURES
10
59.698
20
71.998
0
VERTEX
8
CONTOURS_MINEURES
10
57.120
20
71.880
0
VERTEX
8
CONTOURS_MINEURES
10
57.002
20
71.863
0
VERTEX
8
CONTOURS_MINEURES
10
54.131
20
71.863
0
VERTEX
8
CONTOURS_MINEURES
10
53.996
20
71.863
0
VERTEX
8
CONTOURS_MINEURES
10
53.896
20
71.897
0
VERTEX
8
CONTOURS_MINEURES
10
53.798
20
71.998
0
VERTEX
8
CONTOURS_MINEURES
10
53.798
20
72.197
0
VERTEX
8
CONTOURS_MINEURES
10
53.798
20
75.005
0
VERTEX
8
CONTOURS_MINEURES
10
52.288
20
76.292
0
VERTEX
8
CONTOURS_MINEURES
10
51.001
20
77.332
0
VERTEX
8
CONTOURS_MINEURES
10
50.220
20
78.000
0
VERTEX
8
CONTOURS_MINEURES
10
49.873
20
79.868
0
VERTEX
8
CONTOURS_MINEURES
10
49.619
20
80.996
0
VERTEX
8
CONTOURS_MINEURES
10
49.619
20
82.616
0
VERTEX
8
CONTOURS_MINEURES
10
49.619
20
84.003
0
VERTEX
8
CONTOURS_MINEURES
10
50.207
20
84.796
0
SEQEND
0
POLYLINE
8
CONTOURS_MINEURES
66
1
70
0
0
VERTEX
8
CONTOURS_MINEURES
10
84.005
20
51.956
0
VERTEX
8
CONTOURS_MINEURES
10
81.960
20
51.956
0
VERTEX
8
CONTOURS_MINEURES
10
80.999
20
51.956
0
VERTEX
8
CONTOURS_MINEURES
10
79.806
20
52.193
0
VERTEX
8
CONTOURS_MINEURES
10
79.045
20
50.995
0
VERTEX
8
CONTOURS_MINEURES
10
79.045
20
49.042
0
VERTEX
8
CONTOURS_MINEURES
10
79.045
20
48.000
0
VERTEX
8
CONTOURS_MINEURES
10
78.369
20
47.634
0
VERTEX
8
CONTOURS_MINEURES
10
78.003
20
47.615
0
VERTEX
8
CONTOURS_MINEURES
10
75.394
20
47.604
0
VERTEX
8
CONTOURS_MINEURES
10
74.997
20
47.582
0
VERTEX
8
CONTOURS_MINEURES
10
72.419
20
47.582
0
VERTEX
8
CONTOURS_MINEURES
10
72.002
20
47.582
0
VERTEX
8
CONTOURS_MINEURES
10
71.610
20
47.610
0
VERTEX
8
CONTOURS_MINEURES
10
71.043
20
48.000
0
VERTEX
8
CONTOURS_MINEURES
10
71.043
20
48.955
0
VERTEX
8
CONTOURS_MINEURES
10
71.043
20
50.995
0
VERTEX
8
CONTOURS_MINEURES
10
72.002
20
52.161
0
VERTEX
8
CONTOURS_MINEURES
10
73.836
20
52.161
0
VERTEX
8
CONTOURS_MINEURES
10
74.997
20
52.161
0
VERTEX
8
CONTOURS_MINEURES
10
76.862
20
52.137
0
VERTEX
8
CONTOURS_MINEURES
10
76.096
20
54.002
0
VERTEX
8
CONTOURS_MINEURES
10
76.752
20
55.249
0
VERTEX
8
CONTOURS_MINEURES
10
78.003
20
56.627
0
VERTEX
8
CONTOURS_MINEURES
10
78.259
20
56.998
0
VERTEX
8
CONTOURS_MINEURES
10
78.259
20
57.254
0
VERTEX
8
CONTOURS_MINEURES
10
78.259
20
60.004
0
VERTEX
8
CONTOURS_MINEURES
10
78.894
20
62.109
0
VERTEX
8
CONTOURS_MINEURES
10
79.661
20
63.000
0
VERTEX
8
CONTOURS_MINEURES
10
80.262
20
63.737
0
VERTEX
8
CONTOURS_MINEURES
10
80.999
20
63.964
0
VERTEX
8
CONTOURS_MINEURES
10
81.966
20
63.964
0
VERTEX
8
CONTOURS_MINEURES
10
84.005
20
63.964
0
SEQEND
0
POLYLINE
8
CONTOURS_MINEURES
66
1
70
0
0
VERTEX
8
CONTOURS_MINEURES
10
45.807
20
84.807
0
VERTEX
8
CONTOURS_MINEURES
10
48.005
20
84.807
0
VERTEX
8
CONTOURS_MINEURES
10
48.938
20
86.065
0
VERTEX
8
CONTOURS_MINEURES
10
50.082
20
86.998
0
VERTEX
8
CONTOURS_MINEURES
10
51.001
20
87.549
0
VERTEX
8
CONTOURS_MINEURES
10
51.347
20
87.345
0
VERTEX
8
CONTOURS_MINEURES
10
53.996
20
87.185
0
VERTEX
8
CONTOURS_MINEURES
10
54.183
20
87.185
0
VERTEX
8
CONTOURS_MINEURES
10
57.002
20
87.185
0
VERTEX
8
CONTOURS_MINEURES
10
57.249
20
86.998
0
VERTEX
8
CONTOURS_MINEURES
10
58.707
20
85.707
0
VERTEX
8
CONTOURS_MINEURES
10
59.998
20
84.862
0
VERTEX
8
CONTOURS_MINEURES
10
60.883
20
84.003
0
VERTEX
8
CONTOURS_MINEURES
10
60.883
20
81.881
0
VERTEX
8
CONTOURS_MINEURES
10
60.883
20
80.996
0
VERTEX
8
CONTOURS_MINEURES
10
61.655
20
79.652
0
VERTEX
8
CONTOURS_MINEURES
10
62.937
20
78.000
0
VERTEX
8
CONTOURS_MINEURES
10
62.860
20
77.856
0
VERTEX
8
CONTOURS_MINEURES
10
63.004
20
77.584
0
VERTEX
8
CONTOURS_MINEURES
10
65.584
20
77.584
0
VERTEX
8
CONTOURS_MINEURES
10
66.000
20
77.584
0
VERTEX
8
CONTOURS_MINEURES
10
66.308
20
75.313
0
VERTEX
8
CONTOURS_MINEURES
10
66.561
20
75.005
0
VERTEX
8
CONTOURS_MINEURES
10
66.561
20
74.442
0
VERTEX
8
CONTOURS_MINEURES
10
66.561
20
71.998
0
VERTEX
8
CONTOURS_MINEURES
10
66.417
20
71.581
0
VERTEX
8
CONTOURS_MINEURES
10
66.000
20
71.491
0
VERTEX
8
CONTOURS_MINEURES
10
63.512
20
71.491
0
VERTEX
8
CONTOURS_MINEURES
10
63.004
20
71.491
0
VERTEX
8
CONTOURS_MINEURES
10
62.385
20
71.381
0
VERTEX
8
CONTOURS_MINEURES
10
59.998
20
70.641
0
VERTEX
8
CONTOURS_MINEURES
10
58.431
20
70.569
0
VERTEX
8
CONTOURS_MINEURES
10
57.002
20
70.365
0
VERTEX
8
CONTOURS_MINEURES
10
55.635
20
70.365
0
VERTEX
8
CONTOURS_MINEURES
10
53.996
20
70.365
0
VERTEX
8
CONTOURS_MINEURES
10
52.778
20
70.780
0
VERTEX
8
CONTOURS_MINEURES
10
51.595
20
71.998
0
VERTEX
8
CONTOURS_MINEURES
10
51.595
20
74.408
0
VERTEX
8
CONTOURS_MINEURES
10
51.595
20
75.005
0
VERTEX
8
CONTOURS_MINEURES
10
51.274
20
75.278
0
VERTEX
8
CONTOURS_MINEURES
10
51.001
20
75.499
0
VERTEX
8
CONTOURS_MINEURES
10
48.080
20
78.000
0
VERTEX
8
CONTOURS_MINEURES
10
48.068
20
78.063
0
VERTEX
8
CONTOURS_MINEURES
10
48.005
20
78.344
0
VERTEX
8
CONTOURS_MINEURES
10
47.660
20
78.344
0
VERTEX
8
CONTOURS_MINEURES
10
44.999
20
78.344
0
VERTEX
8
CONTOURS_MINEURES
10
44.458
20
80.455
0
VERTEX
8
CONTOURS_MINEURES
10
44.404
20
80.996
0
VERTEX
8
CONTOURS_MINEURES
10
44.404
20
83.406
0
VERTEX
8
CONTOURS_MINEURES
10
44.404
20
84.003
0
VERTEX
8
CONTOURS_MINEURES
10
44.654
20
84.348
0
VERTEX
8
CONTOURS_MINEURES
10
44.999
20
84.807
0
VERTEX
8
CONTOURS_MINEURES
10
45.807
20
84.807
0
SEQEND
0
POLYLINE
8
CONTOURS_MINEURES
66
1
70
0
0
VERTEX
8
CONTOURS_MINEURES
10
84.005
20
51.102
0
VERTEX
8
CONTOURS_MINEURES
10
81.106
20
51.102
0
VERTEX
8
CONTOURS_MINEURES
10
80.999
20
51.102
0
VERTEX
8
CONTOURS_MINEURES
10
80.866
20
51.128
0
VERTEX
8
CONTOURS_MINEURES
10
80.782
20
50.995
0
VERTEX
8
CONTOURS_MINEURES
10
80.782
20
50.778
0
VERTEX
8
CONTOURS_MINEURES
10
80.782
20
48.000
0
VERTEX
8
CONTOURS_MINEURES
10
78.978
20
47.026
0
VERTEX
8
CONTOURS_MINEURES
10
78.003
20
46.975
0
VERTEX
8
CONTOURS_MINEURES
10
76.034
20
46.966
0
VERTEX
8
CONTOURS_MINEURES
10
74.997
20
46.909
0
VERTEX
8
CONTOURS_MINEURES
10
73.092
20
46.909
0
VERTEX
8
CONTOURS_MINEURES
10
72.002
20
46.909
0
VERTEX
8
CONTOURS_MINEURES
10
70.980
20
46.981
0
VERTEX
8
CONTOURS_MINEURES
10
69.498
20
48.000
0
VERTEX
8
CONTOURS_MINEURES
10
69.498
20
50.495
0
VERTEX
8
CONTOURS_MINEURES
10
69.498
20
50.995
0
VERTEX
8
CONTOURS_MINEURES
10
71.827
20
53.828
0
VERTEX
8
CONTOURS_MINEURES
10
71.974
20
54.002
0
VERTEX
8
CONTOURS_MINEURES
10
71.978
20
54.025
0
VERTEX
8
CONTOURS_MINEURES
10
72.002
20
54.045
0
VERTEX
8
CONTOURS_MINEURES
10
72.044
20
54.045
0
VERTEX
8
CONTOURS_MINEURES
10
74.997
20
54.045
0
VERTEX
8
CONTOURS_MINEURES
10
76.016
20
55.982
0
VERTEX
8
CONTOURS_MINEURES
10
76.938
20
56.998
0
VERTEX
8
CONTOURS_MINEURES
10
76.938
20
58.939
0
VERTEX
8
CONTOURS_MINEURES
10
76.938
20
60.004
0
VERTEX
8
CONTOURS_MINEURES
10
77.067
20
60.937
0
VERTEX
8
CONTOURS_MINEURES
10
78.003
20
62.683
0
VERTEX
8
CONTOURS_MINEURES
10
78.077
20
62.926
0
VERTEX
8
CONTOURS_MINEURES
10
78.140
20
63.000
0
VERTEX
8
CONTOURS_MINEURES
10
79.424
20
64.575
0
VERTEX
8
CONTOURS_MINEURES
10
80.999
20
65.059
0
VERTEX
8
CONTOURS_MINEURES
10
83.065
20
65.059
0
VERTEX
8
CONTOURS_MINEURES
10
84.005
20
65.059
0
SEQEND
0
POLYLINE
8
CONTOURS_MINEURES
66
1
70
0
0
VERTEX
8
CONTOURS_MINEURES
10
48.005
20
87.716
0
VERTEX
8
CONTOURS_MINEURES
10
49.115
20
88.113
0
VERTEX
8
CONTOURS_MINEURES
10
51.001
20
89.243
0
VERTEX
8
CONTOURS_MINEURES
10
52.411
20
88.414
0
VERTEX
8
CONTOURS_MINEURES
10
53.996
20
88.318
0
VERTEX
8
CONTOURS_MINEURES
10
55.315
20
88.318
0
VERTEX
8
CONTOURS_MINEURES
10
57.002
20
88.318
0
VERTEX
8
CONTOURS_MINEURES
10
58.743
20
86.998
0
VERTEX
8
CONTOURS_MINEURES
10
59.409
20
86.409
0
VERTEX
8
CONTOURS_MINEURES
10
59.998
20
86.023
0
VERTEX
8
CONTOURS_MINEURES
10
62.078
20
84.003
0
VERTEX
8
CONTOURS_MINEURES
10
62.078
20
83.076
0
VERTEX
8
CONTOURS_MINEURES
10
62.078
20
80.996
0
VERTEX
8
CONTOURS_MINEURES
10
62.415
20
80.409
0
VERTEX
8
CONTOURS_MINEURES
10
63.004
20
79.650
0
VERTEX
8
CONTOURS_MINEURES
10
64.654
20
79.650
0
VERTEX
8
CONTOURS_MINEURES
10
66.000
20
79.650
0
VERTEX
8
CONTOURS_MINEURES
10
67.072
20
78.000
0
VERTEX
8
CONTOURS_MINEURES
10
67.301
20
76.306
0
VERTEX
8
CONTOURS_MINEURES
10
68.371
20
75.005
0
VERTEX
8
CONTOURS_MINEURES
10
68.371
20
72.625
0
VERTEX
8
CONTOURS_MINEURES
10
68.371
20
71.998
0
VERTEX
8
CONTOURS_MINEURES
10
67.763
20
70.234
0
VERTEX
8
CONTOURS_MINEURES
10
66.000
20
69.854
0
VERTEX
8
CONTOURS_MINEURES
10
65.149
20
69.854
0
VERTEX
8
CONTOURS_MINEURES
10
63.004
20
69.854
0
VERTEX
8
CONTOURS_MINEURES
10
60.388
20
69.391
0
VERTEX
8
CONTOURS_MINEURES
10
59.998
20
69.270
0
VERTEX
8
CONTOURS_MINEURES
10
59.742
20
69.258
0
VERTEX
8
CONTOURS_MINEURES
10
57.948
20
69.002
0
VERTEX
8
CONTOURS_MINEURES
10
57.948
20
68.053
0
VERTEX
8
CONTOURS_MINEURES
10
57.948
20
65.996
0
VERTEX
8
CONTOURS_MINEURES
10
57.113
20
65.885
0
VERTEX
8
CONTOURS_MINEURES
10
57.002
20
65.871
0
VERTEX
8
CONTOURS_MINEURES
10
54.121
20
65.871
0
VERTEX
8
CONTOURS_MINEURES
10
53.996
20
65.871
0
VERTEX
8
CONTOURS_MINEURES
10
53.600
20
65.996
0
VERTEX
8
CONTOURS_MINEURES
10
53.600
20
68.604
0
VERTEX
8
CONTOURS_MINEURES
10
53.600
20
69.002
0
VERTEX
8
CONTOURS_MINEURES
10
51.660
20
69.662
0
VERTEX
8
CONTOURS_MINEURES
10
51.001
20
70.341
0
VERTEX
8
CONTOURS_MINEURES
10
50.404
20
71.401
0
VERTEX
8
CONTOURS_MINEURES
10
49.871
20
71.998
0
VERTEX
8
CONTOURS_MINEURES
10
49.871
20
73.132
0
VERTEX
8
CONTOURS_MINEURES
10
49.871
20
75.005
0
VERTEX
8
CONTOURS_MINEURES
10
48.005
20
76.668
0
VERTEX
8
CONTOURS_MINEURES
10
46.668
20
76.668
0
VERTEX
8
CONTOURS_MINEURES
10
44.999
20
76.668
0
VERTEX
8
CONTOURS_MINEURES
10
42.570
20
78.000
0
VERTEX
8
CONTOURS_MINEURES
10
42.454
20
78.451
0
VERTEX
8
CONTOURS_MINEURES
10
42.202
20
80.996
0
VERTEX
8
CONTOURS_MINEURES
10
42.202
20
81.195
0
VERTEX
8
CONTOURS_MINEURES
10
42.202
20
84.003
0
VERTEX
8
CONTOURS_MINEURES
10
43.377
20
85.625
0
VERTEX
8
CONTOURS_MINEURES
10
44.406
20
86.998
0
VERTEX
8
CONTOURS_MINEURES
10
44.999
20
87.716
0
VERTEX
8
CONTOURS_MINEURES
10
47.287
20
87.716
0
VERTEX
8
CONTOURS_MINEURES
10
48.005
20
87.716
0
SEQEND
0
POLYLINE
8
CONTOURS_MINEURES
66
1
70
0
0
VERTEX
8
CONTOURS_MINEURES
10
84.005
20
47.179
0
VERTEX
8
CONTOURS_MINEURES
10
83.182
20
47.179
0
VERTEX
8
CONTOURS_MINEURES
10
80.999
20
47.179
0
VERTEX
8
CONTOURS_MINEURES
10
79.586
20
46.417
0
VERTEX
8
CONTOURS_MINEURES
10
78.003
20
46.334
0
VERTEX
8
CONTOURS_MINEURES
10
76.675
20
46.328
0
VERTEX
8
CONTOURS_MINEURES
10
74.997
20
46.236
0
VERTEX
8
CONTOURS_MINEURES
10
73.765
20
46.236
0
VERTEX
8
CONTOURS_MINEURES
10
72.002
20
46.236
0
VERTEX
8
CONTOURS_MINEURES
10
70.349
20
46.353
0
VERTEX
8
CONTOURS_MINEURES
10
68.995
20
47.283
0
VERTEX
8
CONTOURS_MINEURES
10
68.402
20
47.407
0
VERTEX
8
CONTOURS_MINEURES
10
68.122
20
48.000
0
VERTEX
8
CONTOURS_MINEURES
10
68.122
20
48.873
0
VERTEX
8
CONTOURS_MINEURES
10
68.122
20
50.995
0
VERTEX
8
CONTOURS_MINEURES
10
68.353
20
51.640
0
VERTEX
8
CONTOURS_MINEURES
10
68.995
20
52.104
0
VERTEX
8
CONTOURS_MINEURES
10
70.592
20
54.002
0
VERTEX
8
CONTOURS_MINEURES
10
70.824
20
55.175
0
VERTEX
8
CONTOURS_MINEURES
10
72.002
20
56.177
0
VERTEX
8
CONTOURS_MINEURES
10
74.176
20
56.177
0
VERTEX
8
CONTOURS_MINEURES
10
74.997
20
56.177
0
VERTEX
8
CONTOURS_MINEURES
10
75.280
20
56.715
0
VERTEX
8
CONTOURS_MINEURES
10
75.537
20
56.998
0
VERTEX
8
CONTOURS_MINEURES
10
75.537
20
57.537
0
VERTEX
8
CONTOURS_MINEURES
10
75.537
20
60.004
0
VERTEX
8
CONTOURS_MINEURES
10
75.835
20
62.165
0
VERTEX
8
CONTOURS_MINEURES
10
76.283
20
63.000
0
VERTEX
8
CONTOURS_MINEURES
10
78.003
20
64.699
0
VERTEX
8
CONTOURS_MINEURES
10
78.586
20
65.413
0
VERTEX
8
CONTOURS_MINEURES
10
80.482
20
65.996
0
VERTEX
8
CONTOURS_MINEURES
10
80.482
20
66.515
0
VERTEX
8
CONTOURS_MINEURES
10
80.482
20
69.002
0
VERTEX
8
CONTOURS_MINEURES
10
80.999
20
69.202
0
VERTEX
8
CONTOURS_MINEURES
10
83.805
20
69.202
0
VERTEX
8
CONTOURS_MINEURES
10
84.005
20
69.202
0
SEQEND
0
POLYLINE
8
CONTOURS_MINEURES
66
1
70
0
0
VERTEX
8
CONTOURS_MINEURES
10
45.445
20
93.445
0
VERTEX
8
CONTOURS_MINEURES
10
48.005
20
93.445
0
VERTEX
8
CONTOURS_MINEURES
10
48.361
20
93.356
0
VERTEX
8
CONTOURS_MINEURES
10
51.001
20
93.970
0
VERTEX
8
CONTOURS_MINEURES
10
52.585
20
93.001
0
VERTEX
8
CONTOURS_MINEURES
10
52.585
20
91.589
0
VERTEX
8
CONTOURS_MINEURES
10
52.585
20
90.005
0
VERTEX
8
CONTOURS_MINEURES
10
53.475
20
89.482
0
VERTEX
8
CONTOURS_MINEURES
10
53.996
20
89.450
0
VERTEX
8
CONTOURS_MINEURES
10
56.448
20
89.450
0
VERTEX
8
CONTOURS_MINEURES
10
57.002
20
89.450
0
VERTEX
8
CONTOURS_MINEURES
10
59.261
20
87.738
0
VERTEX
8
CONTOURS_MINEURES
10
59.998
20
87.226
0
VERTEX
8
CONTOURS_MINEURES
10
60.155
20
87.156
0
VERTEX
8
CONTOURS_MINEURES
10
60.235
20
86.998
0
VERTEX
8
CONTOURS_MINEURES
10
63.004
20
84.324
0
VERTEX
8
CONTOURS_MINEURES
10
63.326
20
84.324
0
VERTEX
8
CONTOURS_MINEURES
10
66.000
20
84.324
0
VERTEX
8
CONTOURS_MINEURES
10
66.209
20
84.212
0
VERTEX
8
CONTOURS_MINEURES
10
66.306
20
84.003
0
VERTEX
8
CONTOURS_MINEURES
10
66.306
20
81.303
0
VERTEX
8
CONTOURS_MINEURES
10
66.306
20
80.996
0
VERTEX
8
CONTOURS_MINEURES
10
66.725
20
80.271
0
VERTEX
8
CONTOURS_MINEURES
10
68.200
20
78.000
0
VERTEX
8
CONTOURS_MINEURES
10
68.295
20
77.300
0
VERTEX
8
CONTOURS_MINEURES
10
68.995
20
76.447
0
VERTEX
8
CONTOURS_MINEURES
10
69.975
20
75.005
0
VERTEX
8
CONTOURS_MINEURES
10
69.975
20
72.978
0
VERTEX
8
CONTOURS_MINEURES
10
69.975
20
71.998
0
VERTEX
8
CONTOURS_MINEURES
10
69.173
20
69.179
0
VERTEX
8
CONTOURS_MINEURES
10
69.363
20
69.002
0
VERTEX
8
CONTOURS_MINEURES
10
69.363
20
68.635
0
VERTEX
8
CONTOURS_MINEURES
10
69.363
20
65.996
0
VERTEX
8
CONTOURS_MINEURES
10
69.329
20
65.663
0
VERTEX
8
CONTOURS_MINEURES
10
68.995
20
65.816
0
VERTEX
8
CONTOURS_MINEURES
10
66.792
20
65.203
0
VERTEX
8
CONTOURS_MINEURES
10
66.000
20
65.262
0
VERTEX
8
CONTOURS_MINEURES
10
65.266
20
65.262
0
VERTEX
8
CONTOURS_MINEURES
10
63.004
20
65.262
0
VERTEX
8
CONTOURS_MINEURES
10
62.218
20
65.212
0
VERTEX
8
CONTOURS_MINEURES
10
59.998
20
64.879
0
VERTEX
8
CONTOURS_MINEURES
10
58.338
20
64.660
0
VERTEX
8
CONTOURS_MINEURES
10
57.002
20
64.491
0
VERTEX
8
CONTOURS_MINEURES
10
55.506
20
64.491
0
VERTEX
8
CONTOURS_MINEURES
10
53.996
20
64.491
0
VERTEX
8
CONTOURS_MINEURES
10
51.825
20
65.171
0
VERTEX
8
CONTOURS_MINEURES
10
51.001
20
65.193
0
VERTEX
8
CONTOURS_MINEURES
10
50.623
20
65.618
0
VERTEX
8
CONTOURS_MINEURES
10
50.477
20
65.996
0
VERTEX
8
CONTOURS_MINEURES
10
50.477
20
66.521
0
VERTEX
8
CONTOURS_MINEURES
10
50.477
20
69.002
0
VERTEX
8
CONTOURS_MINEURES
10
49.587
20
70.584
0
VERTEX
8
CONTOURS_MINEURES
10
48.322
20
71.998
0
VERTEX
8
CONTOURS_MINEURES
10
48.322
20
74.686
0
VERTEX
8
CONTOURS_MINEURES
10
48.322
20
75.005
0
VERTEX
8
CONTOURS_MINEURES
10
48.005
20
75.288
0
VERTEX
8
CONTOURS_MINEURES
10
45.283
20
75.288
0
VERTEX
8
CONTOURS_MINEURES
10
44.999
20
75.288
0
VERTEX
8
CONTOURS_MINEURES
10
44.372
20
75.631
0
VERTEX
8
CONTOURS_MINEURES
10
42.003
20
76.959
0
VERTEX
8
CONTOURS_MINEURES
10
40.045
20
78.000
0
VERTEX
8
CONTOURS_MINEURES
10
40.117
20
79.880
0
VERTEX
8
CONTOURS_MINEURES
10
40.006
20
80.996
0
VERTEX
8
CONTOURS_MINEURES
10
40.006
20
82.006
0
VERTEX
8
CONTOURS_MINEURES
10
40.006
20
84.003
0
VERTEX
8
CONTOURS_MINEURES
10
42.003
20
86.770
0
VERTEX
8
CONTOURS_MINEURES
10
42.099
20
86.902
0
VERTEX
8
CONTOURS_MINEURES
10
42.171
20
86.998
0
VERTEX
8
CONTOURS_MINEURES
10
42.980
20
87.979
0
VERTEX
8
CONTOURS_MINEURES
10
44.604
20
90.005
0
VERTEX
8
CONTOURS_MINEURES
10
44.604
20
92.605
0
VERTEX
8
CONTOURS_MINEURES
10
44.604
20
93.001
0
VERTEX
8
CONTOURS_MINEURES
10
44.701
20
93.298
0
VERTEX
8
CONTOURS_MINEURES
10
44.999
20
93.445
0
VERTEX
8
CONTOURS_MINEURES
10
45.445
20
93.445
0
SEQEND
0
POLYLINE
8
CONTOURS_MINEURES
66
1
70
0
0
VERTEX
8
CONTOURS_MINEURES
10
84.005
20
46.242
0
VERTEX
8
CONTOURS_MINEURES
10
82.241
20
46.242
0
VERTEX
8
CONTOURS_MINEURES
10
80.999
20
46.242
0
VERTEX
8
CONTOURS_MINEURES
10
80.195
20
45.808
0
VERTEX
8
CONTOURS_MINEURES
10
78.003
20
45.693
0
VERTEX
8
CONTOURS_MINEURES
10
77.315
20
45.690
0
VERTEX
8
CONTOURS_MINEURES
10
74.997
20
45.563
0
VERTEX
8
CONTOURS_MINEURES
10
74.438
20
45.563
0
VERTEX
8
CONTOURS_MINEURES
10
72.002
20
45.563
0
VERTEX
8
CONTOURS_MINEURES
10
69.718
20
45.724
0
VERTEX
8
CONTOURS_MINEURES
10
68.995
20
46.220
0
VERTEX
8
CONTOURS_MINEURES
10
67.524
20
46.528
0
VERTEX
8
CONTOURS_MINEURES
10
66.828
20
48.000
0
VERTEX
8
CONTOURS_MINEURES
10
66.828
20
50.167
0
VERTEX
8
CONTOURS_MINEURES
10
66.828
20
50.995
0
VERTEX
8
CONTOURS_MINEURES
10
67.402
20
52.594
0
VERTEX
8
CONTOURS_MINEURES
10
68.995
20
53.747
0
VERTEX
8
CONTOURS_MINEURES
10
69.210
20
54.002
0
VERTEX
8
CONTOURS_MINEURES
10
69.670
20
56.325
0
VERTEX
8
CONTOURS_MINEURES
10
70.461
20
56.998
0
VERTEX
8
CONTOURS_MINEURES
10
70.461
20
58.463
0
VERTEX
8
CONTOURS_MINEURES
10
70.461
20
60.004
0
VERTEX
8
CONTOURS_MINEURES
10
70.055
20
61.944
0
VERTEX
8
CONTOURS_MINEURES
10
70.533
20
63.000
0
VERTEX
8
CONTOURS_MINEURES
10
68.995
20
63.707
0
VERTEX
8
CONTOURS_MINEURES
10
68.442
20
63.553
0
VERTEX
8
CONTOURS_MINEURES
10
66.000
20
63.734
0
VERTEX
8
CONTOURS_MINEURES
10
63.738
20
63.734
0
VERTEX
8
CONTOURS_MINEURES
10
63.004
20
63.734
0
VERTEX
8
CONTOURS_MINEURES
10
60.580
20
63.580
0
VERTEX
8
CONTOURS_MINEURES
10
59.998
20
63.492
0
VERTEX
8
CONTOURS_MINEURES
10
59.563
20
63.435
0
VERTEX
8
CONTOURS_MINEURES
10
57.002
20
63.110
0
VERTEX
8
CONTOURS_MINEURES
10
56.892
20
63.110
0
VERTEX
8
CONTOURS_MINEURES
10
53.996
20
63.110
0
VERTEX
8
CONTOURS_MINEURES
10
53.835
20
63.161
0
VERTEX
8
CONTOURS_MINEURES
10
51.001
20
63.235
0
VERTEX
8
CONTOURS_MINEURES
10
49.703
20
64.698
0
VERTEX
8
CONTOURS_MINEURES
10
49.200
20
65.996
0
VERTEX
8
CONTOURS_MINEURES
10
49.200
20
67.804
0
VERTEX
8
CONTOURS_MINEURES
10
49.200
20
69.002
0
VERTEX
8
CONTOURS_MINEURES
10
48.769
20
69.767
0
VERTEX
8
CONTOURS_MINEURES
10
48.005
20
70.621
0
VERTEX
8
CONTOURS_MINEURES
10
46.380
20
70.621
0
VERTEX
8
CONTOURS_MINEURES
10
44.999
20
70.621
0
VERTEX
8
CONTOURS_MINEURES
10
43.094
20
71.998
0
VERTEX
8
CONTOURS_MINEURES
10
43.094
20
73.092
0
VERTEX
8
CONTOURS_MINEURES
10
43.094
20
75.005
0
VERTEX
8
CONTOURS_MINEURES
10
42.003
20
75.616
0
VERTEX
8
CONTOURS_MINEURES
10
40.688
20
76.315
0
VERTEX
8
CONTOURS_MINEURES
10
38.997
20
77.164
0
VERTEX
8
CONTOURS_MINEURES
10
38.161
20
77.164
0
VERTEX
8
CONTOURS_MINEURES
10
36.002
20
77.164
0
VERTEX
8
CONTOURS_MINEURES
10
35.426
20
77.427
0
VERTEX
8
CONTOURS_MINEURES
10
34.542
20
78.000
0
VERTEX
8
CONTOURS_MINEURES
10
34.602
20
79.601
0
VERTEX
8
CONTOURS_MINEURES
10
34.817
20
80.996
0
VERTEX
8
CONTOURS_MINEURES
10
34.817
20
82.181
0
VERTEX
8
CONTOURS_MINEURES
10
34.817
20
84.003
0
VERTEX
8
CONTOURS_MINEURES
10
35.259
20
84.743
0
VERTEX
8
CONTOURS_MINEURES
10
36.002
20
85.653
0
VERTEX
8
CONTOURS_MINEURES
10
37.652
20
85.653
0
VERTEX
8
CONTOURS_MINEURES
10
38.997
20
85.653
0
VERTEX
8
CONTOURS_MINEURES
10
39.966
20
86.998
0
VERTEX
8
CONTOURS_MINEURES
10
40.599
20
88.403
0
VERTEX
8
CONTOURS_MINEURES
10
42.003
20
89.941
0
VERTEX
8
CONTOURS_MINEURES
10
42.054
20
90.005
0
VERTEX
8
CONTOURS_MINEURES
10
42.054
20
90.056
0
VERTEX
8
CONTOURS_MINEURES
10
42.054
20
93.001
0
VERTEX
8
CONTOURS_MINEURES
10
42.781
20
95.219
0
VERTEX
8
CONTOURS_MINEURES
10
44.359
20
95.996
0
VERTEX
8
CONTOURS_MINEURES
10
44.359
20
96.638
0
VERTEX
8
CONTOURS_MINEURES
10
44.359
20
99.003
0
VERTEX
8
CONTOURS_MINEURES
10
44.999
20
99.727
0
VERTEX
8
CONTOURS_MINEURES
10
47.278
20
99.727
0
VERTEX
8
CONTOURS_MINEURES
10
48.005
20
99.727
0
VERTEX
8
CONTOURS_MINEURES
10
48.382
20
99.380
0
VERTEX
8
CONTOURS_MINEURES
10
49.272
20
99.003
0
VERTEX
8
CONTOURS_MINEURES
10
49.272
20
97.731
0
VERTEX
8
CONTOURS_MINEURES
10
49.272
20
95.996
0
VERTEX
8
CONTOURS_MINEURES
10
50.656
20
95.652
0
VERTEX
8
CONTOURS_MINEURES
10
51.001
20
95.732
0
VERTEX
8
CONTOURS_MINEURES
10
51.681
20
95.315
0
VERTEX
8
CONTOURS_MINEURES
10
53.996
20
94.036
0
VERTEX
8
CONTOURS_MINEURES
10
55.963
20
94.036
0
VERTEX
8
CONTOURS_MINEURES
10
57.002
20
94.036
0
VERTEX
8
CONTOURS_MINEURES
10
57.692
20
93.690
0
VERTEX
8
CONTOURS_MINEURES
10
58.049
20
93.001
0
VERTEX
8
CONTOURS_MINEURES
10
58.049
20
91.051
0
VERTEX
8
CONTOURS_MINEURES
10
58.049
20
90.005
0
VERTEX
8
CONTOURS_MINEURES
10
59.998
20
88.651
0
VERTEX
8
CONTOURS_MINEURES
10
61.138
20
88.138
0
VERTEX
8
CONTOURS_MINEURES
10
61.716
20
86.998
0
VERTEX
8
CONTOURS_MINEURES
10
63.004
20
85.754
0
VERTEX
8
CONTOURS_MINEURES
10
64.756
20
85.754
0
VERTEX
8
CONTOURS_MINEURES
10
66.000
20
85.754
0
VERTEX
8
CONTOURS_MINEURES
10
67.138
20
85.141
0
VERTEX
8
CONTOURS_MINEURES
10
67.668
20
84.003
0
VERTEX
8
CONTOURS_MINEURES
10
67.668
20
82.670
0
VERTEX
8
CONTOURS_MINEURES
10
67.668
20
80.996
0
VERTEX
8
CONTOURS_MINEURES
10
68.995
20
78.696
0
VERTEX
8
CONTOURS_MINEURES
10
69.553
20
78.000
0
VERTEX
8
CONTOURS_MINEURES
10
70.360
20
76.641
0
VERTEX
8
CONTOURS_MINEURES
10
71.471
20
75.005
0
VERTEX
8
CONTOURS_MINEURES
10
71.471
20
74.474
0
VERTEX
8
CONTOURS_MINEURES
10
71.471
20
71.998
0
VERTEX
8
CONTOURS_MINEURES
10
71.260
20
71.260
0
VERTEX
8
CONTOURS_MINEURES
10
72.002
20
70.571
0
VERTEX
8
CONTOURS_MINEURES
10
73.570
20
70.571
0
VERTEX
8
CONTOURS_MINEURES
10
74.997
20
70.571
0
VERTEX
8
CONTOURS_MINEURES
10
75.795
20
69.797
0
VERTEX
8
CONTOURS_MINEURES
10
78.003
20
69.662
0
VERTEX
8
CONTOURS_MINEURES
10
78.688
20
69.687
0
VERTEX
8
CONTOURS_MINEURES
10
80.999
20
70.579
0
VERTEX
8
CONTOURS_MINEURES
10
82.423
20
70.579
0
VERTEX
8
CONTOURS_MINEURES
10
84.005
20
70.579
0
SEQEND
0
POLYLINE
8
CONTOURS_MINEURES
66
1
70
0
0
VERTEX
8
CONTOURS_MINEURES
10
84.005
20
45.304
0
VERTEX
8
CONTOURS_MINEURES
10
81.300
20
45.304
0
VERTEX
8
CONTOURS_MINEURES
10
80.999
20
45.304
0
VERTEX
8
CONTOURS_MINEURES
10
80.804
20
45.199
0
VERTEX
8
CONTOURS_MINEURES
10
78.003
20
45.052
0
VERTEX
8
CONTOURS_MINEURES
10
77.955
20
45.052
0
VERTEX
8
CONTOURS_MINEURES
10
77.083
20
45.004
0
VERTEX
8
CONTOURS_MINEURES
10
74.997
20
44.751
0
VERTEX
8
CONTOURS_MINEURES
10
72.254
20
44.751
0
VERTEX
8
CONTOURS_MINEURES
10
72.002
20
44.751
0
VERTEX
8
CONTOURS_MINEURES
10
71.770
20
44.773
0
VERTEX
8
CONTOURS_MINEURES
10
70.379
20
45.004
0
VERTEX
8
CONTOURS_MINEURES
10
69.087
20
45.095
0
VERTEX
8
CONTOURS_MINEURES
10
68.995
20
45.158
0
VERTEX
8
CONTOURS_MINEURES
10
66.645
20
45.650
0
VERTEX
8
CONTOURS_MINEURES
10
66.000
20
47.015
0
VERTEX
8
CONTOURS_MINEURES
10
63.989
20
47.015
0
VERTEX
8
CONTOURS_MINEURES
10
63.004
20
47.015
0
VERTEX
8
CONTOURS_MINEURES
10
62.467
20
47.465
0
VERTEX
8
CONTOURS_MINEURES
10
62.338
20
48.000
0
VERTEX
8
CONTOURS_MINEURES
10
62.338
20
50.332
0
VERTEX
8
CONTOURS_MINEURES
10
62.338
20
50.995
0
VERTEX
8
CONTOURS_MINEURES
10
63.004
20
52.292
0
VERTEX
8
CONTOURS_MINEURES
10
64.296
20
52.292
0
VERTEX
8
CONTOURS_MINEURES
10
66.000
20
52.292
0
VERTEX
8
CONTOURS_MINEURES
10
66.451
20
53.549
0
VERTEX
8
CONTOURS_MINEURES
10
67.078
20
54.002
0
VERTEX
8
CONTOURS_MINEURES
10
67.599
20
55.601
0
VERTEX
8
CONTOURS_MINEURES
10
67.281
20
56.998
0
VERTEX
8
CONTOURS_MINEURES
10
67.281
20
58.719
0
VERTEX
8
CONTOURS_MINEURES
10
67.281
20
60.004
0
VERTEX
8
CONTOURS_MINEURES
10
66.000
20
61.123
0
VERTEX
8
CONTOURS_MINEURES
10
64.123
20
61.123
0
VERTEX
8
CONTOURS_MINEURES
10
63.004
20
61.123
0
VERTEX
8
CONTOURS_MINEURES
10
62.028
20
60.977
0
VERTEX
8
CONTOURS_MINEURES
10
59.998
20
61.569
0
VERTEX
8
CONTOURS_MINEURES
10
58.755
20
61.757
0
VERTEX
8
CONTOURS_MINEURES
10
57.002
20
61.494
0
VERTEX
8
CONTOURS_MINEURES
10
55.491
20
61.494
0
VERTEX
8
CONTOURS_MINEURES
10
53.996
20
61.494
0
VERTEX
8
CONTOURS_MINEURES
10
52.473
20
61.527
0
VERTEX
8
CONTOURS_MINEURES
10
51.001
20
61.548
0
VERTEX
8
CONTOURS_MINEURES
10
49.473
20
63.000
0
VERTEX
8
CONTOURS_MINEURES
10
48.783
20
63.778
0
VERTEX
8
CONTOURS_MINEURES
10
48.005
20
65.782
0
VERTEX
8
CONTOURS_MINEURES
10
45.214
20
65.782
0
VERTEX
8
CONTOURS_MINEURES
10
44.999
20
65.782
0
VERTEX
8
CONTOURS_MINEURES
10
44.912
20
65.909
0
VERTEX
8
CONTOURS_MINEURES
10
44.872
20
65.996
0
VERTEX
8
CONTOURS_MINEURES
10
44.872
20
66.123
0
VERTEX
8
CONTOURS_MINEURES
10
44.872
20
69.002
0
VERTEX
8
CONTOURS_MINEURES
10
42.003
20
71.186
0
VERTEX
8
CONTOURS_MINEURES
10
41.380
20
71.377
0
VERTEX
8
CONTOURS_MINEURES
10
40.450
20
71.998
0
VERTEX
8
CONTOURS_MINEURES
10
40.450
20
73.551
0
VERTEX
8
CONTOURS_MINEURES
10
40.450
20
75.005
0
VERTEX
8
CONTOURS_MINEURES
10
38.997
20
75.734
0
VERTEX
8
CONTOURS_MINEURES
10
36.731
20
75.734
0
VERTEX
8
CONTOURS_MINEURES
10
36.002
20
75.734
0
VERTEX
8
CONTOURS_MINEURES
10
34.442
20
76.446
0
VERTEX
8
CONTOURS_MINEURES
10
32.995
20
77.385
0
VERTEX
8
CONTOURS_MINEURES
10
32.066
20
78.000
0
VERTEX
8
CONTOURS_MINEURES
10
32.494
20
80.494
0
VERTEX
8
CONTOURS_MINEURES
10
32.605
20
80.996
0
VERTEX
8
CONTOURS_MINEURES
10
32.605
20
83.611
0
VERTEX
8
CONTOURS_MINEURES
10
32.605
20
84.003
0
VERTEX
8
CONTOURS_MINEURES
10
32.685
20
84.313
0
VERTEX
8
CONTOURS_MINEURES
10
32.995
20
84.628
0
VERTEX
8
CONTOURS_MINEURES
10
33.883
20
86.114
0
VERTEX
8
CONTOURS_MINEURES
10
34.604
20
86.998
0
VERTEX
8
CONTOURS_MINEURES
10
34.676
20
88.324
0
VERTEX
8
CONTOURS_MINEURES
10
36.002
20
89.736
0
VERTEX
8
CONTOURS_MINEURES
10
36.269
20
89.736
0
VERTEX
8
CONTOURS_MINEURES
10
38.997
20
89.736
0
VERTEX
8
CONTOURS_MINEURES
10
39.081
20
89.921
0
VERTEX
8
CONTOURS_MINEURES
10
39.157
20
90.005
0
VERTEX
8
CONTOURS_MINEURES
10
39.157
20
92.841
0
VERTEX
8
CONTOURS_MINEURES
10
39.157
20
93.001
0
VERTEX
8
CONTOURS_MINEURES
10
39.251
20
93.254
0
VERTEX
8
CONTOURS_MINEURES
10
38.997
20
94.268
0
VERTEX
8
CONTOURS_MINEURES
10
37.730
20
94.268
0
VERTEX
8
CONTOURS_MINEURES
10
36.002
20
94.268
0
VERTEX
8
CONTOURS_MINEURES
10
35.714
20
95.710
0
VERTEX
8
CONTOURS_MINEURES
10
35.489
20
95.996
0
VERTEX
8
CONTOURS_MINEURES
10
35.489
20
96.509
0
VERTEX
8
CONTOURS_MINEURES
10
35.489
20
99.003
0
VERTEX
8
CONTOURS_MINEURES
10
34.541
20
100.543
0
VERTEX
8
CONTOURS_MINEURES
10
33.308
20
101.999
0
SEQEND
0
POLYLINE
8
CONTOURS_MINEURES
66
1
70
0
0
VERTEX
8
CONTOURS_MINEURES
10
52.214
20
101.999
0
VERTEX
8
CONTOURS_MINEURES
10
53.996
20
99.279
0
VERTEX
8
CONTOURS_MINEURES
10
54.273
20
99.279
0
VERTEX
8
CONTOURS_MINEURES
10
57.002
20
99.279
0
VERTEX
8
CONTOURS_MINEURES
10
57.090
20
99.090
0
VERTEX
8
CONTOURS_MINEURES
10
57.144
20
99.003
0
VERTEX
8
CONTOURS_MINEURES
10
57.144
20
96.138
0
VERTEX
8
CONTOURS_MINEURES
10
57.144
20
95.996
0
VERTEX
8
CONTOURS_MINEURES
10
59.045
20
95.043
0
VERTEX
8
CONTOURS_MINEURES
10
59.998
20
93.199
0
VERTEX
8
CONTOURS_MINEURES
10
60.109
20
93.111
0
VERTEX
8
CONTOURS_MINEURES
10
60.156
20
93.001
0
VERTEX
8
CONTOURS_MINEURES
10
60.156
20
92.843
0
VERTEX
8
CONTOURS_MINEURES
10
60.156
20
90.005
0
VERTEX
8
CONTOURS_MINEURES
10
62.120
20
89.121
0
VERTEX
8
CONTOURS_MINEURES
10
63.004
20
87.378
0
VERTEX
8
CONTOURS_MINEURES
10
63.382
20
87.378
0
VERTEX
8
CONTOURS_MINEURES
10
66.000
20
87.378
0
VERTEX
8
CONTOURS_MINEURES
10
66.344
20
86.998
0
VERTEX
8
CONTOURS_MINEURES
10
68.066
20
86.069
0
VERTEX
8
CONTOURS_MINEURES
10
68.995
20
84.076
0
VERTEX
8
CONTOURS_MINEURES
10
69.052
20
84.059
0
VERTEX
8
CONTOURS_MINEURES
10
69.069
20
84.003
0
VERTEX
8
CONTOURS_MINEURES
10
69.069
20
81.069
0
VERTEX
8
CONTOURS_MINEURES
10
69.069
20
80.996
0
VERTEX
8
CONTOURS_MINEURES
10
69.230
20
80.762
0
VERTEX
8
CONTOURS_MINEURES
10
71.444
20
78.000
0
VERTEX
8
CONTOURS_MINEURES
10
72.002
20
77.060
0
VERTEX
8
CONTOURS_MINEURES
10
74.057
20
77.060
0
VERTEX
8
CONTOURS_MINEURES
10
74.997
20
77.060
0
VERTEX
8
CONTOURS_MINEURES
10
77.672
20
75.005
0
VERTEX
8
CONTOURS_MINEURES
10
77.672
20
72.330
0
VERTEX
8
CONTOURS_MINEURES
10
77.672
20
71.998
0
VERTEX
8
CONTOURS_MINEURES
10
77.840
20
71.835
0
VERTEX
8
CONTOURS_MINEURES
10
78.003
20
71.825
0
VERTEX
8
CONTOURS_MINEURES
10
80.932
20
71.931
0
VERTEX
8
CONTOURS_MINEURES
10
80.999
20
71.957
0
VERTEX
8
CONTOURS_MINEURES
10
81.040
20
71.957
0
VERTEX
8
CONTOURS_MINEURES
10
84.005
20
71.957
0
SEQEND
0
POLYLINE
8
CONTOURS_MINEURES
66
1
70
0
0
VERTEX
8
CONTOURS_MINEURES
10
84.005
20
43.401
0
VERTEX
8
CONTOURS_MINEURES
10
82.602
20
43.401
0
VERTEX
8
CONTOURS_MINEURES
10
80.999
20
43.401
0
VERTEX
8
CONTOURS_MINEURES
10
79.549
20
43.549
0
VERTEX
8
CONTOURS_MINEURES
10
78.003
20
43.319
0
VERTEX
8
CONTOURS_MINEURES
10
76.437
20
43.437
0
VERTEX
8
CONTOURS_MINEURES
10
74.997
20
43.263
0
VERTEX
8
CONTOURS_MINEURES
10
73.737
20
43.263
0
VERTEX
8
CONTOURS_MINEURES
10
72.002
20
43.263
0
VERTEX
8
CONTOURS_MINEURES
10
70.410
20
43.412
0
VERTEX
8
CONTOURS_MINEURES
10
68.995
20
43.648
0
VERTEX
8
CONTOURS_MINEURES
10
66.608
20
44.394
0
VERTEX
8
CONTOURS_MINEURES
10
66.000
20
44.429
0
VERTEX
8
CONTOURS_MINEURES
10
65.427
20
44.429
0
VERTEX
8
CONTOURS_MINEURES
10
63.004
20
44.429
0
VERTEX
8
CONTOURS_MINEURES
10
62.138
20
45.004
0
VERTEX
8
CONTOURS_MINEURES
10
60.975
20
45.978
0
VERTEX
8
CONTOURS_MINEURES
10
60.488
20
48.000
0
VERTEX
8
CONTOURS_MINEURES
10
60.488
20
48.488
0
VERTEX
8
CONTOURS_MINEURES
10
60.488
20
50.995
0
VERTEX
8
CONTOURS_MINEURES
10
61.006
20
52.004
0
VERTEX
8
CONTOURS_MINEURES
10
60.649
20
54.002
0
VERTEX
8
CONTOURS_MINEURES
10
59.998
20
54.989
0
VERTEX
8
CONTOURS_MINEURES
10
59.011
20
56.010
0
VERTEX
8
CONTOURS_MINEURES
10
57.002
20
56.607
0
VERTEX
8
CONTOURS_MINEURES
10
56.610
20
56.607
0
VERTEX
8
CONTOURS_MINEURES
10
53.996
20
56.607
0
VERTEX
8
CONTOURS_MINEURES
10
53.751
20
56.753
0
VERTEX
8
CONTOURS_MINEURES
10
51.001
20
56.817
0
VERTEX
8
CONTOURS_MINEURES
10
50.744
20
56.998
0
VERTEX
8
CONTOURS_MINEURES
10
50.744
20
59.747
0
VERTEX
8
CONTOURS_MINEURES
10
50.744
20
60.004
0
VERTEX
8
CONTOURS_MINEURES
10
48.005
20
62.454
0
VERTEX
8
CONTOURS_MINEURES
10
47.457
20
62.454
0
VERTEX
8
CONTOURS_MINEURES
10
44.999
20
62.454
0
VERTEX
8
CONTOURS_MINEURES
10
44.652
20
63.000
0
VERTEX
8
CONTOURS_MINEURES
10
43.581
20
64.578
0
VERTEX
8
CONTOURS_MINEURES
10
42.914
20
65.996
0
VERTEX
8
CONTOURS_MINEURES
10
42.914
20
68.089
0
VERTEX
8
CONTOURS_MINEURES
10
42.914
20
69.002
0
VERTEX
8
CONTOURS_MINEURES
10
42.003
20
69.695
0
VERTEX
8
CONTOURS_MINEURES
10
40.237
20
70.238
0
VERTEX
8
CONTOURS_MINEURES
10
38.997
20
71.066
0
VERTEX
8
CONTOURS_MINEURES
10
38.065
20
71.066
0
VERTEX
8
CONTOURS_MINEURES
10
36.002
20
71.066
0
VERTEX
8
CONTOURS_MINEURES
10
34.467
20
71.998
0
VERTEX
8
CONTOURS_MINEURES
10
34.467
20
73.533
0
VERTEX
8
CONTOURS_MINEURES
10
34.467
20
75.005
0
VERTEX
8
CONTOURS_MINEURES
10
33.458
20
75.466
0
VERTEX
8
CONTOURS_MINEURES
10
32.995
20
75.766
0
VERTEX
8
CONTOURS_MINEURES
10
30.743
20
77.257
0
VERTEX
8
CONTOURS_MINEURES
10
30.000
20
77.673
0
VERTEX
8
CONTOURS_MINEURES
10
27.331
20
77.673
0
VERTEX
8
CONTOURS_MINEURES
10
27.004
20
77.673
0
VERTEX
8
CONTOURS_MINEURES
10
26.608
20
78.000
0
VERTEX
8
CONTOURS_MINEURES
10
27.004
20
79.601
0
VERTEX
8
CONTOURS_MINEURES
10
28.399
20
79.601
0
VERTEX
8
CONTOURS_MINEURES
10
30.000
20
79.601
0
VERTEX
8
CONTOURS_MINEURES
10
30.310
20
80.996
0
VERTEX
8
CONTOURS_MINEURES
10
30.310
20
81.307
0
VERTEX
8
CONTOURS_MINEURES
10
30.310
20
84.003
0
VERTEX
8
CONTOURS_MINEURES
10
30.858
20
86.140
0
VERTEX
8
CONTOURS_MINEURES
10
31.706
20
86.998
0
VERTEX
8
CONTOURS_MINEURES
10
31.852
20
88.858
0
VERTEX
8
CONTOURS_MINEURES
10
31.166
20
90.005
0
VERTEX
8
CONTOURS_MINEURES
10
31.166
20
91.834
0
VERTEX
8
CONTOURS_MINEURES
10
31.166
20
93.001
0
VERTEX
8
CONTOURS_MINEURES
10
30.676
20
93.676
0
VERTEX
8
CONTOURS_MINEURES
10
30.000
20
94.440
0
VERTEX
8
CONTOURS_MINEURES
10
28.560
20
94.440
0
VERTEX
8
CONTOURS_MINEURES
10
27.004
20
94.440
0
VERTEX
8
CONTOURS_MINEURES
10
25.482
20
95.996
0
VERTEX
8
CONTOURS_MINEURES
10
25.482
20
97.481
0
VERTEX
8
CONTOURS_MINEURES
10
25.482
20
99.003
0
VERTEX
8
CONTOURS_MINEURES
10
23.998
20
99.875
0
VERTEX
8
CONTOURS_MINEURES
10
21.874
20
99.875
0
VERTEX
8
CONTOURS_MINEURES
10
21.002
20
99.875
0
VERTEX
8
CONTOURS_MINEURES
10
19.742
20
100.259
0
VERTEX
8
CONTOURS_MINEURES
10
17.996
20
100.941
0
VERTEX
8
CONTOURS_MINEURES
10
17.098
20
101.100
0
VERTEX
8
CONTOURS_MINEURES
10
15.001
20
101.820
0
VERTEX
8
CONTOURS_MINEURES
10
12.184
20
101.820
0
VERTEX
8
CONTOURS_MINEURES
10
12.005
20
101.820
0
VERTEX
8
CONTOURS_MINEURES
10
11.788
20
101.783
0
VERTEX
8
CONTOURS_MINEURES
10
11.651
20
101.999
0
SEQEND
0
POLYLINE
8
CONTOURS_MINEURES
66
1
70
0
0
VERTEX
8
CONTOURS_MINEURES
10
59.395
20
101.999
0
VERTEX
8
CONTOURS_MINEURES
10
59.586
20
101.587
0
VERTEX
8
CONTOURS_MINEURES
10
59.998
20
100.924
0
VERTEX
8
CONTOURS_MINEURES
10
61.464
20
99.003
0
VERTEX
8
CONTOURS_MINEURES
10
61.464
20
97.462
0
VERTEX
8
CONTOURS_MINEURES
10
61.464
20
95.996
0
VERTEX
8
CONTOURS_MINEURES
10
62.319
20
95.313
0
VERTEX
8
CONTOURS_MINEURES
10
63.004
20
93.731
0
VERTEX
8
CONTOURS_MINEURES
10
63.735
20
93.731
0
VERTEX
8
CONTOURS_MINEURES
10
66.000
20
93.731
0
VERTEX
8
CONTOURS_MINEURES
10
66.389
20
93.390
0
VERTEX
8
CONTOURS_MINEURES
10
66.611
20
93.001
0
VERTEX
8
CONTOURS_MINEURES
10
66.611
20
90.616
0
VERTEX
8
CONTOURS_MINEURES
10
66.611
20
90.005
0
VERTEX
8
CONTOURS_MINEURES
10
68.995
20
86.998
0
VERTEX
8
CONTOURS_MINEURES
10
71.330
20
86.329
0
VERTEX
8
CONTOURS_MINEURES
10
72.002
20
84.003
0
VERTEX
8
CONTOURS_MINEURES
10
72.002
20
80.996
0
VERTEX
8
CONTOURS_MINEURES
10
74.997
20
80.996
0
VERTEX
8
CONTOURS_MINEURES
10
77.491
20
80.485
0
VERTEX
8
CONTOURS_MINEURES
10
78.003
20
79.962
0
VERTEX
8
CONTOURS_MINEURES
10
80.500
20
80.497
0
VERTEX
8
CONTOURS_MINEURES
10
80.999
20
80.081
0
VERTEX
8
CONTOURS_MINEURES
10
81.917
20
80.081
0
VERTEX
8
CONTOURS_MINEURES
10
84.005
20
80.081
0
SEQEND
0
POLYLINE
8
CONTOURS_MINEURES
66
1
70
0
0
VERTEX
8
CONTOURS_MINEURES
10
84.005
20
10.998
0
VERTEX
8
CONTOURS_MINEURES
10
82.001
20
10.998
0
VERTEX
8
CONTOURS_MINEURES
10
80.999
20
10.998
0
VERTEX
8
CONTOURS_MINEURES
10
80.837
20
11.835
0
VERTEX
8
CONTOURS_MINEURES
10
80.759
20
11.997
0
VERTEX
8
CONTOURS_MINEURES
10
80.699
20
12.298
0
VERTEX
8
CONTOURS_MINEURES
10
80.160
20
15.004
0
VERTEX
8
CONTOURS_MINEURES
10
80.160
20
15.842
0
VERTEX
8
CONTOURS_MINEURES
10
80.160
20
17.999
0
VERTEX
8
CONTOURS_MINEURES
10
79.743
20
19.739
0
VERTEX
8
CONTOURS_MINEURES
10
79.743
20
20.995
0
VERTEX
8
CONTOURS_MINEURES
10
79.801
20
22.799
0
VERTEX
8
CONTOURS_MINEURES
10
79.668
20
24.002
0
VERTEX
8
CONTOURS_MINEURES
10
79.668
20
25.333
0
VERTEX
8
CONTOURS_MINEURES
10
79.668
20
26.997
0
VERTEX
8
CONTOURS_MINEURES
10
79.501
20
28.501
0
VERTEX
8
CONTOURS_MINEURES
10
78.356
20
30.004
0
VERTEX
8
CONTOURS_MINEURES
10
78.175
20
30.175
0
VERTEX
8
CONTOURS_MINEURES
10
78.003
20
30.549
0
VERTEX
8
CONTOURS_MINEURES
10
76.715
20
33.000
0
VERTEX
8
CONTOURS_MINEURES
10
76.715
20
34.711
0
VERTEX
8
CONTOURS_MINEURES
10
76.715
20
35.995
0
VERTEX
8
CONTOURS_MINEURES
10
75.536
20
36.534
0
VERTEX
8
CONTOURS_MINEURES
10
74.997
20
36.854
0
VERTEX
8
CONTOURS_MINEURES
10
74.141
20
36.854
0
VERTEX
8
CONTOURS_MINEURES
10
72.002
20
36.854
0
VERTEX
8
CONTOURS_MINEURES
10
69.628
20
39.002
0
VERTEX
8
CONTOURS_MINEURES
10
69.628
20
39.632
0
VERTEX
8
CONTOURS_MINEURES
10
69.628
20
41.997
0
VERTEX
8
CONTOURS_MINEURES
10
69.050
20
42.052
0
VERTEX
8
CONTOURS_MINEURES
10
68.995
20
42.061
0
VERTEX
8
CONTOURS_MINEURES
10
68.904
20
42.090
0
VERTEX
8
CONTOURS_MINEURES
10
66.000
20
42.258
0
VERTEX
8
CONTOURS_MINEURES
10
63.264
20
42.258
0
VERTEX
8
CONTOURS_MINEURES
10
63.004
20
42.258
0
VERTEX
8
CONTOURS_MINEURES
10
62.228
20
42.773
0
VERTEX
8
CONTOURS_MINEURES
10
59.998
20
43.344
0
VERTEX
8
CONTOURS_MINEURES
10
58.522
20
45.004
0
VERTEX
8
CONTOURS_MINEURES
10
57.978
20
45.980
0
VERTEX
8
CONTOURS_MINEURES
10
57.002
20
47.696
0
VERTEX
8
CONTOURS_MINEURES
10
54.301
20
47.696
0
VERTEX
8
CONTOURS_MINEURES
10
53.996
20
47.696
0
VERTEX
8
CONTOURS_MINEURES
10
53.689
20
48.000
0
VERTEX
8
CONTOURS_MINEURES
10
53.689
20
50.688
0
VERTEX
8
CONTOURS_MINEURES
10
53.689
20
50.995
0
VERTEX
8
CONTOURS_MINEURES
10
51.600
20
53.401
0
VERTEX
8
CONTOURS_MINEURES
10
51.074
20
54.002
0
VERTEX
8
CONTOURS_MINEURES
10
51.028
20
54.029
0
VERTEX
8
CONTOURS_MINEURES
10
51.001
20
54.030
0
VERTEX
8
CONTOURS_MINEURES
10
50.906
20
54.097
0
VERTEX
8
CONTOURS_MINEURES
10
48.005
20
55.654
0
VERTEX
8
CONTOURS_MINEURES
10
46.657
20
55.654
0
VERTEX
8
CONTOURS_MINEURES
10
44.999
20
55.654
0
VERTEX
8
CONTOURS_MINEURES
10
44.085
20
56.084
0
VERTEX
8
CONTOURS_MINEURES
10
43.905
20
56.998
0
VERTEX
8
CONTOURS_MINEURES
10
43.905
20
58.906
0
VERTEX
8
CONTOURS_MINEURES
10
43.905
20
60.004
0
VERTEX
8
CONTOURS_MINEURES
10
43.134
20
61.869
0
VERTEX
8
CONTOURS_MINEURES
10
42.417
20
63.000
0
VERTEX
8
CONTOURS_MINEURES
10
42.250
20
63.246
0
VERTEX
8
CONTOURS_MINEURES
10
42.003
20
63.770
0
VERTEX
8
CONTOURS_MINEURES
10
39.409
20
65.996
0
VERTEX
8
CONTOURS_MINEURES
10
39.409
20
66.408
0
VERTEX
8
CONTOURS_MINEURES
10
39.409
20
69.002
0
VERTEX
8
CONTOURS_MINEURES
10
39.094
20
69.099
0
VERTEX
8
CONTOURS_MINEURES
10
38.997
20
69.164
0
VERTEX
8
CONTOURS_MINEURES
10
36.163
20
69.164
0
VERTEX
8
CONTOURS_MINEURES
10
36.002
20
69.164
0
VERTEX
8
CONTOURS_MINEURES
10
35.586
20
69.416
0
VERTEX
8
CONTOURS_MINEURES
10
32.995
20
70.541
0
VERTEX
8
CONTOURS_MINEURES
10
30.998
20
71.998
0
VERTEX
8
CONTOURS_MINEURES
10
30.998
20
73.000
0
VERTEX
8
CONTOURS_MINEURES
10
30.998
20
75.005
0
VERTEX
8
CONTOURS_MINEURES
10
30.000
20
75.564
0
VERTEX
8
CONTOURS_MINEURES
10
29.441
20
75.564
0
VERTEX
8
CONTOURS_MINEURES
10
27.004
20
75.564
0
VERTEX
8
CONTOURS_MINEURES
10
24.049
20
78.000
0
VERTEX
8
CONTOURS_MINEURES
10
24.066
20
78.068
0
VERTEX
8
CONTOURS_MINEURES
10
24.404
20
80.996
0
VERTEX
8
CONTOURS_MINEURES
10
24.404
20
83.597
0
VERTEX
8
CONTOURS_MINEURES
10
24.404
20
84.003
0
VERTEX
8
CONTOURS_MINEURES
10
24.099
20
86.898
0
VERTEX
8
CONTOURS_MINEURES
10
24.159
20
86.998
0
VERTEX
8
CONTOURS_MINEURES
10
24.105
20
87.105
0
VERTEX
8
CONTOURS_MINEURES
10
23.998
20
87.224
0
VERTEX
8
CONTOURS_MINEURES
10
23.773
20
87.224
0
VERTEX
8
CONTOURS_MINEURES
10
21.002
20
87.224
0
VERTEX
8
CONTOURS_MINEURES
10
19.724
20
88.726
0
VERTEX
8
CONTOURS_MINEURES
10
18.354
20
90.005
0
VERTEX
8
CONTOURS_MINEURES
10
18.354
20
92.644
0
VERTEX
8
CONTOURS_MINEURES
10
18.354
20
93.001
0
VERTEX
8
CONTOURS_MINEURES
10
18.172
20
93.176
0
VERTEX
8
CONTOURS_MINEURES
10
17.996
20
93.270
0
VERTEX
8
CONTOURS_MINEURES
10
17.640
20
93.357
0
VERTEX
8
CONTOURS_MINEURES
10
15.001
20
94.366
0
VERTEX
8
CONTOURS_MINEURES
10
13.371
20
94.366
0
VERTEX
8
CONTOURS_MINEURES
10
12.005
20
94.366
0
VERTEX
8
CONTOURS_MINEURES
10
10.522
20
94.518
0
VERTEX
8
CONTOURS_MINEURES
10
8.999
20
94.317
0
VERTEX
8
CONTOURS_MINEURES
10
7.491
20
94.508
0
VERTEX
8
CONTOURS_MINEURES
10
6.003
20
94.862
0
VERTEX
8
CONTOURS_MINEURES
10
4.136
20
94.862
0
VERTEX
8
CONTOURS_MINEURES
10
2.997
20
94.862
0
VERTEX
8
CONTOURS_MINEURES
10
2.195
20
95.194
0
VERTEX
8
CONTOURS_MINEURES
10
1.009
20
95.996
0
VERTEX
8
CONTOURS_MINEURES
10
1.009
20
97.992
0
VERTEX
8
CONTOURS_MINEURES
10
1.009
20
99.003
0
VERTEX
8
CONTOURS_MINEURES
10
1.056
20
100.057
0
VERTEX
8
CONTOURS_MINEURES
10
0.125
20
101.999
0
SEQEND
0
POLYLINE
8
CONTOURS_MINEURES
66
1
70
0
0
VERTEX
8
CONTOURS_MINEURES
10
80.454
20
101.999
0
VERTEX
8
CONTOURS_MINEURES
10
80.856
20
101.856
0
VERTEX
8
CONTOURS_MINEURES
10
80.999
20
101.768
0
VERTEX
8
CONTOURS_MINEURES
10
81.230
20
101.768
0
VERTEX
8
CONTOURS_MINEURES
10
84.005
20
101.768
0
SEQEND
0
POLYLINE
8
CONTOURS_MINEURES
66
1
70
0
0
VERTEX
8
CONTOURS_MINEURES
10
53.903
20
0.003
0
VERTEX
8
CONTOURS_MINEURES
10
53.903
20
0.097
0
VERTEX
8
CONTOURS_MINEURES
10
53.903
20
2.999
0
VERTEX
8
CONTOURS_MINEURES
10
53.266
20
5.264
0
VERTEX
8
CONTOURS_MINEURES
10
52.963
20
5.995
0
VERTEX
8
CONTOURS_MINEURES
10
52.963
20
7.031
0
VERTEX
8
CONTOURS_MINEURES
10
52.963
20
9.001
0
VERTEX
8
CONTOURS_MINEURES
10
52.460
20
10.461
0
VERTEX
8
CONTOURS_MINEURES
10
51.999
20
11.997
0
VERTEX
8
CONTOURS_MINEURES
10
51.692
20
14.310
0
VERTEX
8
CONTOURS_MINEURES
10
51.439
20
15.004
0
VERTEX
8
CONTOURS_MINEURES
10
51.439
20
15.442
0
VERTEX
8
CONTOURS_MINEURES
10
51.439
20
17.999
0
VERTEX
8
CONTOURS_MINEURES
10
51.334
20
18.332
0
VERTEX
8
CONTOURS_MINEURES
10
51.062
20
20.995
0
VERTEX
8
CONTOURS_MINEURES
10
51.177
20
23.825
0
VERTEX
8
CONTOURS_MINEURES
10
51.173
20
24.002
0
VERTEX
8
CONTOURS_MINEURES
10
51.173
20
26.824
0
VERTEX
8
CONTOURS_MINEURES
10
51.173
20
26.997
0
VERTEX
8
CONTOURS_MINEURES
10
51.184
20
27.181
0
VERTEX
8
CONTOURS_MINEURES
10
51.001
20
27.749
0
VERTEX
8
CONTOURS_MINEURES
10
49.316
20
30.004
0
VERTEX
8
CONTOURS_MINEURES
10
48.754
20
30.753
0
VERTEX
8
CONTOURS_MINEURES
10
48.266
20
33.000
0
VERTEX
8
CONTOURS_MINEURES
10
48.266
20
33.260
0
VERTEX
8
CONTOURS_MINEURES
10
48.266
20
35.995
0
VERTEX
8
CONTOURS_MINEURES
10
48.005
20
36.596
0
VERTEX
8
CONTOURS_MINEURES
10
45.600
20
36.596
0
VERTEX
8
CONTOURS_MINEURES
10
44.999
20
36.596
0
VERTEX
8
CONTOURS_MINEURES
10
43.957
20
37.956
0
VERTEX
8
CONTOURS_MINEURES
10
43.002
20
39.002
0
VERTEX
8
CONTOURS_MINEURES
10
43.002
20
40.999
0
VERTEX
8
CONTOURS_MINEURES
10
43.002
20
41.997
0
VERTEX
8
CONTOURS_MINEURES
10
42.378
20
42.373
0
VERTEX
8
CONTOURS_MINEURES
10
42.003
20
42.857
0
VERTEX
8
CONTOURS_MINEURES
10
40.890
20
45.004
0
VERTEX
8
CONTOURS_MINEURES
10
39.944
20
45.947
0
VERTEX
8
CONTOURS_MINEURES
10
39.223
20
48.000
0
VERTEX
8
CONTOURS_MINEURES
10
39.223
20
50.771
0
VERTEX
8
CONTOURS_MINEURES
10
39.223
20
50.995
0
VERTEX
8
CONTOURS_MINEURES
10
39.138
20
51.136
0
VERTEX
8
CONTOURS_MINEURES
10
38.997
20
51.998
0
VERTEX
8
CONTOURS_MINEURES
10
37.000
20
51.998
0
VERTEX
8
CONTOURS_MINEURES
10
36.002
20
51.998
0
VERTEX
8
CONTOURS_MINEURES
10
35.582
20
54.002
0
VERTEX
8
CONTOURS_MINEURES
10
35.527
20
54.475
0
VERTEX
8
CONTOURS_MINEURES
10
34.919
20
56.998
0
VERTEX
8
CONTOURS_MINEURES
10
34.919
20
58.922
0
VERTEX
8
CONTOURS_MINEURES
10
34.919
20
60.004
0
VERTEX
8
CONTOURS_MINEURES
10
32.995
20
62.342
0
VERTEX
8
CONTOURS_MINEURES
10
32.621
20
62.626
0
VERTEX
8
CONTOURS_MINEURES
10
32.496
20
63.000
0
VERTEX
8
CONTOURS_MINEURES
10
30.000
20
65.544
0
VERTEX
8
CONTOURS_MINEURES
10
29.548
20
65.544
0
VERTEX
8
CONTOURS_MINEURES
10
27.004
20
65.544
0
VERTEX
8
CONTOURS_MINEURES
10
26.597
20
65.996
0
VERTEX
8
CONTOURS_MINEURES
10
26.597
20
68.595
0
VERTEX
8
CONTOURS_MINEURES
10
26.597
20
69.002
0
VERTEX
8
CONTOURS_MINEURES
10
23.998
20
70.961
0
VERTEX
8
CONTOURS_MINEURES
10
22.961
20
70.961
0
VERTEX
8
CONTOURS_MINEURES
10
21.002
20
70.961
0
VERTEX
8
CONTOURS_MINEURES
10
19.975
20
71.998
0
VERTEX
8
CONTOURS_MINEURES
10
19.975
20
73.026
0
VERTEX
8
CONTOURS_MINEURES
10
19.975
20
75.005
0
VERTEX
8
CONTOURS_MINEURES
10
17.996
20
77.330
0
VERTEX
8
CONTOURS_MINEURES
10
17.397
20
78.000
0
VERTEX
8
CONTOURS_MINEURES
10
16.780
20
79.780
0
VERTEX
8
CONTOURS_MINEURES
10
16.266
20
80.996
0
VERTEX
8
CONTOURS_MINEURES
10
16.266
20
82.266
0
VERTEX
8
CONTOURS_MINEURES
10
16.266
20
84.003
0
VERTEX
8
CONTOURS_MINEURES
10
15.692
20
84.694
0
VERTEX
8
CONTOURS_MINEURES
10
15.001
20
85.452
0
VERTEX
8
CONTOURS_MINEURES
10
13.551
20
85.452
0
VERTEX
8
CONTOURS_MINEURES
10
12.005
20
85.452
0
VERTEX
8
CONTOURS_MINEURES
10
10.428
20
86.998
0
VERTEX
8
CONTOURS_MINEURES
10
9.521
20
87.520
0
VERTEX
8
CONTOURS_MINEURES
10
8.999
20
87.568
0
VERTEX
8
CONTOURS_MINEURES
10
7.391
20
88.391
0
VERTEX
8
CONTOURS_MINEURES
10
6.003
20
88.747
0
VERTEX
8
CONTOURS_MINEURES
10
4.255
20
88.747
0
VERTEX
8
CONTOURS_MINEURES
10
2.997
20
88.747
0
VERTEX
8
CONTOURS_MINEURES
10
1.877
20
88.881
0
VERTEX
8
CONTOURS_MINEURES
10
0.184
20
90.005
0
VERTEX
8
CONTOURS_MINEURES
10
0.184
20
92.818
0
VERTEX
8
CONTOURS_MINEURES
10
0.184
20
93.001
0
VERTEX
8
CONTOURS_MINEURES
10
0.055
20
93.054
0
VERTEX
8
CONTOURS_MINEURES
10
0.002
20
93.090
0
SEQEND
0
POLYLINE
8
CONTOURS_MINEURES
66
1
70
0
0
VERTEX
8
CONTOURS_MINEURES
10
20.762
20
0.003
0
VERTEX
8
CONTOURS_MINEURES
10
20.762
20
0.243
0
VERTEX
8
CONTOURS_MINEURES
10
20.762
20
2.999
0
VERTEX
8
CONTOURS_MINEURES
10
19.865
20
4.861
0
VERTEX
8
CONTOURS_MINEURES
10
18.787
20
5.995
0
VERTEX
8
CONTOURS_MINEURES
10
18.787
20
8.210
0
VERTEX
8
CONTOURS_MINEURES
10
18.787
20
9.001
0
VERTEX
8
CONTOURS_MINEURES
10
17.996
20
9.625
0
VERTEX
8
CONTOURS_MINEURES
10
16.980
20
10.981
0
VERTEX
8
CONTOURS_MINEURES
10
16.573
20
11.997
0
VERTEX
8
CONTOURS_MINEURES
10
16.641
20
13.357
0
VERTEX
8
CONTOURS_MINEURES
10
16.209
20
15.004
0
VERTEX
8
CONTOURS_MINEURES
10
16.209
20
16.212
0
VERTEX
8
CONTOURS_MINEURES
10
16.209
20
17.999
0
VERTEX
8
CONTOURS_MINEURES
10
15.782
20
20.213
0
VERTEX
8
CONTOURS_MINEURES
10
15.734
20
20.995
0
VERTEX
8
CONTOURS_MINEURES
10
15.899
20
21.897
0
VERTEX
8
CONTOURS_MINEURES
10
15.455
20
24.002
0
VERTEX
8
CONTOURS_MINEURES
10
15.455
20
26.543
0
VERTEX
8
CONTOURS_MINEURES
10
15.455
20
26.997
0
VERTEX
8
CONTOURS_MINEURES
10
15.577
20
27.575
0
VERTEX
8
CONTOURS_MINEURES
10
16.146
20
30.004
0
VERTEX
8
CONTOURS_MINEURES
10
15.666
20
32.334
0
VERTEX
8
CONTOURS_MINEURES
10
15.514
20
33.000
0
VERTEX
8
CONTOURS_MINEURES
10
15.514
20
33.513
0
VERTEX
8
CONTOURS_MINEURES
10
15.514
20
35.995
0
VERTEX
8
CONTOURS_MINEURES
10
15.001
20
37.198
0
VERTEX
8
CONTOURS_MINEURES
10
13.203
20
37.198
0
VERTEX
8
CONTOURS_MINEURES
10
12.005
20
37.198
0
VERTEX
8
CONTOURS_MINEURES
10
10.878
20
39.002
0
VERTEX
8
CONTOURS_MINEURES
10
10.878
20
40.125
0
VERTEX
8
CONTOURS_MINEURES
10
10.878
20
41.997
0
VERTEX
8
CONTOURS_MINEURES
10
10.652
20
43.350
0
VERTEX
8
CONTOURS_MINEURES
10
9.847
20
45.004
0
VERTEX
8
CONTOURS_MINEURES
10
8.999
20
47.750
0
VERTEX
8
CONTOURS_MINEURES
10
8.926
20
47.927
0
VERTEX
8
CONTOURS_MINEURES
10
8.892
20
48.000
0
VERTEX
8
CONTOURS_MINEURES
10
8.892
20
48.107
0
VERTEX
8
CONTOURS_MINEURES
10
8.892
20
50.995
0
VERTEX
8
CONTOURS_MINEURES
10
8.999
20
54.002
0
VERTEX
8
CONTOURS_MINEURES
10
6.483
20
56.998
0
VERTEX
8
CONTOURS_MINEURES
10
6.483
20
59.523
0
VERTEX
8
CONTOURS_MINEURES
10
6.483
20
60.004
0
VERTEX
8
CONTOURS_MINEURES
10
6.003
20
61.094
0
VERTEX
8
CONTOURS_MINEURES
10
4.090
20
61.094
0
VERTEX
8
CONTOURS_MINEURES
10
2.997
20
61.094
0
VERTEX
8
CONTOURS_MINEURES
10
1.687
20
63.000
0
VERTEX
8
CONTOURS_MINEURES
10
0.588
20
63.586
0
VERTEX
8
CONTOURS_MINEURES
10
0.002
20
64.172
0
SEQEND
0
POLYLINE
8
CONTOURS_MAJEURES
66
1
70
0
0
VERTEX
8
CONTOURS_MAJEURES
10
84.005
20
52.383
0
VERTEX
8
CONTOURS_MAJEURES
10
82.387
20
52.383
0
VERTEX
8
CONTOURS_MAJEURES
10
80.999
20
52.383
0
VERTEX
8
CONTOURS_MAJEURES
10
79.276
20
52.725
0
VERTEX
8
CONTOURS_MAJEURES
10
78.177
20
50.995
0
VERTEX
8
CONTOURS_MAJEURES
10
78.177
20
48.173
0
VERTEX
8
CONTOURS_MAJEURES
10
78.177
20
48.000
0
VERTEX
8
CONTOURS_MAJEURES
10
78.064
20
47.939
0
VERTEX
8
CONTOURS_MAJEURES
10
78.003
20
47.936
0
VERTEX
8
CONTOURS_MAJEURES
10
75.074
20
47.923
0
VERTEX
8
CONTOURS_MAJEURES
10
74.997
20
47.919
0
VERTEX
8
CONTOURS_MAJEURES
10
72.082
20
47.919
0
VERTEX
8
CONTOURS_MAJEURES
10
72.002
20
47.919
0
VERTEX
8
CONTOURS_MAJEURES
10
71.926
20
47.924
0
VERTEX
8
CONTOURS_MAJEURES
10
71.816
20
48.000
0
VERTEX
8
CONTOURS_MAJEURES
10
71.816
20
48.185
0
VERTEX
8
CONTOURS_MAJEURES
10
71.816
20
50.995
0
VERTEX
8
CONTOURS_MAJEURES
10
72.002
20
51.221
0
VERTEX
8
CONTOURS_MAJEURES
10
74.772
20
51.221
0
VERTEX
8
CONTOURS_MAJEURES
10
74.997
20
51.221
0
VERTEX
8
CONTOURS_MAJEURES
10
77.813
20
51.186
0
VERTEX
8
CONTOURS_MAJEURES
10
76.657
20
54.002
0
VERTEX
8
CONTOURS_MAJEURES
10
77.120
20
54.882
0
VERTEX
8
CONTOURS_MAJEURES
10
78.003
20
55.855
0
VERTEX
8
CONTOURS_MAJEURES
10
78.791
20
56.998
0
VERTEX
8
CONTOURS_MAJEURES
10
78.791
20
57.788
0
VERTEX
8
CONTOURS_MAJEURES
10
78.791
20
60.004
0
VERTEX
8
CONTOURS_MAJEURES
10
79.303
20
61.700
0
VERTEX
8
CONTOURS_MAJEURES
10
80.421
20
63.000
0
VERTEX
8
CONTOURS_MAJEURES
10
80.680
20
63.318
0
VERTEX
8
CONTOURS_MAJEURES
10
80.999
20
63.416
0
VERTEX
8
CONTOURS_MAJEURES
10
81.417
20
63.416
0
VERTEX
8
CONTOURS_MAJEURES
10
84.005
20
63.416
0
SEQEND
0
POLYLINE
8
CONTOURS_MAJEURES
66
1
70
0
0
VERTEX
8
CONTOURS_MAJEURES
10
49.573
20
85.431
0
VERTEX
8
CONTOURS_MAJEURES
10
51.001
20
86.595
0
VERTEX
8
CONTOURS_MAJEURES
10
51.250
20
86.749
0
VERTEX
8
CONTOURS_MAJEURES
10
53.996
20
86.555
0
VERTEX
8
CONTOURS_MAJEURES
10
56.558
20
86.555
0
VERTEX
8
CONTOURS_MAJEURES
10
57.002
20
86.555
0
VERTEX
8
CONTOURS_MAJEURES
10
58.356
20
85.357
0
VERTEX
8
CONTOURS_MAJEURES
10
59.998
20
84.281
0
VERTEX
8
CONTOURS_MAJEURES
10
60.285
20
84.003
0
VERTEX
8
CONTOURS_MAJEURES
10
60.285
20
81.283
0
VERTEX
8
CONTOURS_MAJEURES
10
60.285
20
80.996
0
VERTEX
8
CONTOURS_MAJEURES
10
61.275
20
79.273
0
VERTEX
8
CONTOURS_MAJEURES
10
62.263
20
78.000
0
VERTEX
8
CONTOURS_MAJEURES
10
61.414
20
76.416
0
VERTEX
8
CONTOURS_MAJEURES
10
62.164
20
75.005
0
VERTEX
8
CONTOURS_MAJEURES
10
62.164
20
72.838
0
VERTEX
8
CONTOURS_MAJEURES
10
62.164
20
71.998
0
VERTEX
8
CONTOURS_MAJEURES
10
59.998
20
71.326
0
VERTEX
8
CONTOURS_MAJEURES
10
57.776
20
71.225
0
VERTEX
8
CONTOURS_MAJEURES
10
57.002
20
71.114
0
VERTEX
8
CONTOURS_MAJEURES
10
54.883
20
71.114
0
VERTEX
8
CONTOURS_MAJEURES
10
53.996
20
71.114
0
VERTEX
8
CONTOURS_MAJEURES
10
53.337
20
71.339
0
VERTEX
8
CONTOURS_MAJEURES
10
52.697
20
71.998
0
VERTEX
8
CONTOURS_MAJEURES
10
52.697
20
73.302
0
VERTEX
8
CONTOURS_MAJEURES
10
52.697
20
75.005
0
VERTEX
8
CONTOURS_MAJEURES
10
51.781
20
75.785
0
VERTEX
8
CONTOURS_MAJEURES
10
51.001
20
76.415
0
VERTEX
8
CONTOURS_MAJEURES
10
49.150
20
78.000
0
VERTEX
8
CONTOURS_MAJEURES
10
48.971
20
78.966
0
VERTEX
8
CONTOURS_MAJEURES
10
48.514
20
80.996
0
VERTEX
8
CONTOURS_MAJEURES
10
48.514
20
81.506
0
VERTEX
8
CONTOURS_MAJEURES
10
48.514
20
84.003
0
VERTEX
8
CONTOURS_MAJEURES
10
49.573
20
85.431
0
SEQEND
0
POLYLINE
8
CONTOURS_MAJEURES
66
1
70
0
0
VERTEX
8
CONTOURS_MAJEURES
10
84.005
20
44.580
0
VERTEX
8
CONTOURS_MAJEURES
10
81.423
20
44.580
0
VERTEX
8
CONTOURS_MAJEURES
10
80.999
20
44.580
0
VERTEX
8
CONTOURS_MAJEURES
10
80.615
20
44.619
0
VERTEX
8
CONTOURS_MAJEURES
10
78.003
20
44.230
0
VERTEX
8
CONTOURS_MAJEURES
10
77.284
20
44.284
0
VERTEX
8
CONTOURS_MAJEURES
10
74.997
20
44.007
0
VERTEX
8
CONTOURS_MAJEURES
10
72.995
20
44.007
0
VERTEX
8
CONTOURS_MAJEURES
10
72.002
20
44.007
0
VERTEX
8
CONTOURS_MAJEURES
10
71.090
20
44.093
0
VERTEX
8
CONTOURS_MAJEURES
10
68.995
20
44.441
0
VERTEX
8
CONTOURS_MAJEURES
10
67.193
20
45.004
0
VERTEX
8
CONTOURS_MAJEURES
10
66.206
20
45.211
0
VERTEX
8
CONTOURS_MAJEURES
10
66.000
20
45.647
0
VERTEX
8
CONTOURS_MAJEURES
10
65.357
20
45.647
0
VERTEX
8
CONTOURS_MAJEURES
10
63.004
20
45.647
0
VERTEX
8
CONTOURS_MAJEURES
10
61.721
20
46.721
0
VERTEX
8
CONTOURS_MAJEURES
10
61.413
20
48.000
0
VERTEX
8
CONTOURS_MAJEURES
10
61.413
20
49.410
0
VERTEX
8
CONTOURS_MAJEURES
10
61.413
20
50.995
0
VERTEX
8
CONTOURS_MAJEURES
10
62.909
20
53.907
0
VERTEX
8
CONTOURS_MAJEURES
10
62.892
20
54.002
0
VERTEX
8
CONTOURS_MAJEURES
10
62.677
20
54.328
0
VERTEX
8
CONTOURS_MAJEURES
10
61.558
20
56.998
0
VERTEX
8
CONTOURS_MAJEURES
10
61.558
20
58.558
0
VERTEX
8
CONTOURS_MAJEURES
10
61.558
20
60.004
0
VERTEX
8
CONTOURS_MAJEURES
10
59.998
20
60.459
0
VERTEX
8
CONTOURS_MAJEURES
10
57.792
20
60.794
0
VERTEX
8
CONTOURS_MAJEURES
10
57.002
20
60.676
0
VERTEX
8
CONTOURS_MAJEURES
10
54.670
20
60.676
0
VERTEX
8
CONTOURS_MAJEURES
10
53.996
20
60.676
0
VERTEX
8
CONTOURS_MAJEURES
10
53.310
20
60.691
0
VERTEX
8
CONTOURS_MAJEURES
10
51.001
20
60.722
0
VERTEX
8
CONTOURS_MAJEURES
10
48.604
20
63.000
0
VERTEX
8
CONTOURS_MAJEURES
10
48.323
20
63.318
0
VERTEX
8
CONTOURS_MAJEURES
10
48.005
20
64.136
0
VERTEX
8
CONTOURS_MAJEURES
10
46.865
20
64.136
0
VERTEX
8
CONTOURS_MAJEURES
10
44.999
20
64.136
0
VERTEX
8
CONTOURS_MAJEURES
10
44.247
20
65.243
0
VERTEX
8
CONTOURS_MAJEURES
10
43.893
20
65.996
0
VERTEX
8
CONTOURS_MAJEURES
10
43.893
20
67.106
0
VERTEX
8
CONTOURS_MAJEURES
10
43.893
20
69.002
0
VERTEX
8
CONTOURS_MAJEURES
10
42.003
20
70.441
0
VERTEX
8
CONTOURS_MAJEURES
10
40.809
20
70.808
0
VERTEX
8
CONTOURS_MAJEURES
10
39.026
20
71.998
0
VERTEX
8
CONTOURS_MAJEURES
10
39.026
20
74.976
0
VERTEX
8
CONTOURS_MAJEURES
10
39.026
20
75.005
0
VERTEX
8
CONTOURS_MAJEURES
10
38.997
20
75.019
0
VERTEX
8
CONTOURS_MAJEURES
10
36.016
20
75.019
0
VERTEX
8
CONTOURS_MAJEURES
10
36.002
20
75.019
0
VERTEX
8
CONTOURS_MAJEURES
10
33.950
20
75.956
0
VERTEX
8
CONTOURS_MAJEURES
10
32.995
20
76.575
0
VERTEX
8
CONTOURS_MAJEURES
10
30.843
20
78.000
0
VERTEX
8
CONTOURS_MAJEURES
10
31.018
20
79.019
0
VERTEX
8
CONTOURS_MAJEURES
10
31.457
20
80.996
0
VERTEX
8
CONTOURS_MAJEURES
10
31.457
20
82.459
0
VERTEX
8
CONTOURS_MAJEURES
10
31.457
20
84.003
0
VERTEX
8
CONTOURS_MAJEURES
10
31.772
20
85.226
0
VERTEX
8
CONTOURS_MAJEURES
10
32.995
20
86.465
0
VERTEX
8
CONTOURS_MAJEURES
10
33.195
20
86.799
0
VERTEX
8
CONTOURS_MAJEURES
10
33.357
20
86.998
0
VERTEX
8
CONTOURS_MAJEURES
10
33.492
20
89.508
0
VERTEX
8
CONTOURS_MAJEURES
10
33.959
20
90.005
0
VERTEX
8
CONTOURS_MAJEURES
10
33.959
20
90.965
0
VERTEX
8
CONTOURS_MAJEURES
10
33.959
20
93.001
0
VERTEX
8
CONTOURS_MAJEURES
10
33.800
20
93.802
0
VERTEX
8
CONTOURS_MAJEURES
10
32.995
20
94.824
0
VERTEX
8
CONTOURS_MAJEURES
10
32.502
20
95.503
0
VERTEX
8
CONTOURS_MAJEURES
10
32.066
20
95.996
0
VERTEX
8
CONTOURS_MAJEURES
10
32.066
20
98.070
0
VERTEX
8
CONTOURS_MAJEURES
10
32.066
20
99.003
0
VERTEX
8
CONTOURS_MAJEURES
10
30.000
20
100.978
0
VERTEX
8
CONTOURS_MAJEURES
10
28.979
20
100.978
0
VERTEX
8
CONTOURS_MAJEURES
10
27.004
20
100.978
0
VERTEX
8
CONTOURS_MAJEURES
10
24.416
20
101.999
0
SEQEND
0
POLYLINE
8
CONTOURS_MAJEURES
66
1
70
0
0
VERTEX
8
CONTOURS_MAJEURES
10
57.569
20
101.999
0
VERTEX
8
CONTOURS_MAJEURES
10
58.338
20
100.338
0
VERTEX
8
CONTOURS_MAJEURES
10
59.168
20
99.003
0
VERTEX
8
CONTOURS_MAJEURES
10
59.168
20
98.170
0
VERTEX
8
CONTOURS_MAJEURES
10
59.168
20
95.996
0
VERTEX
8
CONTOURS_MAJEURES
10
59.721
20
95.719
0
VERTEX
8
CONTOURS_MAJEURES
10
59.998
20
95.183
0
VERTEX
8
CONTOURS_MAJEURES
10
61.214
20
94.212
0
VERTEX
8
CONTOURS_MAJEURES
10
61.738
20
93.001
0
VERTEX
8
CONTOURS_MAJEURES
10
61.738
20
91.266
0
VERTEX
8
CONTOURS_MAJEURES
10
61.738
20
90.005
0
VERTEX
8
CONTOURS_MAJEURES
10
62.611
20
89.612
0
VERTEX
8
CONTOURS_MAJEURES
10
63.004
20
88.837
0
VERTEX
8
CONTOURS_MAJEURES
10
64.836
20
88.837
0
VERTEX
8
CONTOURS_MAJEURES
10
66.000
20
88.837
0
VERTEX
8
CONTOURS_MAJEURES
10
67.670
20
86.998
0
VERTEX
8
CONTOURS_MAJEURES
10
68.531
20
86.534
0
VERTEX
8
CONTOURS_MAJEURES
10
68.995
20
85.537
0
VERTEX
8
CONTOURS_MAJEURES
10
70.191
20
85.194
0
VERTEX
8
CONTOURS_MAJEURES
10
70.535
20
84.003
0
VERTEX
8
CONTOURS_MAJEURES
10
70.535
20
82.536
0
VERTEX
8
CONTOURS_MAJEURES
10
70.535
20
80.996
0
VERTEX
8
CONTOURS_MAJEURES
10
72.002
20
78.871
0
VERTEX
8
CONTOURS_MAJEURES
10
72.873
20
78.871
0
VERTEX
8
CONTOURS_MAJEURES
10
74.997
20
78.871
0
VERTEX
8
CONTOURS_MAJEURES
10
75.722
20
78.723
0
VERTEX
8
CONTOURS_MAJEURES
10
76.430
20
78.000
0
VERTEX
8
CONTOURS_MAJEURES
10
78.003
20
76.955
0
VERTEX
8
CONTOURS_MAJEURES
10
78.973
20
77.031
0
VERTEX
8
CONTOURS_MAJEURES
10
80.999
20
76.671
0
VERTEX
8
CONTOURS_MAJEURES
10
82.671
20
76.671
0
VERTEX
8
CONTOURS_MAJEURES
10
84.005
20
76.671
0
SEQEND
0
POLYLINE
8
PARCELLE
66
1
70
1
0
VERTEX
8
PARCELLE
10
20.000
20
33.746
0
VERTEX
8
PARCELLE
10
37.588
20
64.727
0
VERTEX
8
PARCELLE
10
47.455
20
82.114
0
VERTEX
8
PARCELLE
10
51.599
20
75.292
0
VERTEX
8
PARCELLE
10
53.243
20
73.072
0
VERTEX
8
PARCELLE
10
56.013
20
70.097
0
VERTEX
8
PARCELLE
10
58.218
20
67.924
0
VERTEX
8
PARCELLE
10
61.173
20
65.766
0
VERTEX
8
PARCELLE
10
64.907
20
63.612
0
VERTEX
8
PARCELLE
10
64.887
20
63.563
0
VERTEX
8
PARCELLE
10
59.261
20
47.865
0
VERTEX
8
PARCELLE
10
49.233
20
20.000
0
VERTEX
8
PARCELLE
10
20.000
20
33.746
0
SEQEND
0
TEXT
8
POINTS_COTES
10
0.002
20
0.003
40
1.0
1
148.4
0
TEXT
8
POINTS_COTES
10
63.004
20
2.999
40
1.0
1
144.4
0
TEXT
8
POINTS_COTES
10
38.997
20
9.001
40
1.0
1
146.1
0
TEXT
8
POINTS_COTES
10
15.001
20
15.004
40
1.0
1
147.2
0
TEXT
8
POINTS_COTES
10
78.003
20
17.999
40
1.0
1
143.2
0
TEXT
8
POINTS_COTES
10
53.996
20
24.002
40
1.0
1
144.5
0
TEXT
8
POINTS_COTES
10
30.000
20
30.004
40
1.0
1
146.1
0
TEXT
8
POINTS_COTES
10
6.003
20
35.995
40
1.0
1
147.4
0
TEXT
8
POINTS_COTES
10
68.995
20
39.002
40
1.0
1
143.1
0
TEXT
8
POINTS_COTES
10
44.999
20
45.004
40
1.0
1
144.7
0
TEXT
8
POINTS_COTES
10
21.002
20
50.995
40
1.0
1
146.0
0
TEXT
8
POINTS_COTES
10
84.005
20
54.002
40
1.0
1
126.2
0
TEXT
8
POINTS_COTES
10
59.998
20
60.004
40
1.0
1
140.4
0
TEXT
8
POINTS_COTES
10
36.002
20
65.996
40
1.0
1
143.2
0
TEXT
8
POINTS_COTES
10
12.005
20
71.998
40
1.0
1
145.9
0
TEXT
8
POINTS_COTES
10
74.997
20
75.005
40
1.0
1
137.7
0
TEXT
8
POINTS_COTES
10
51.001
20
80.996
40
1.0
1
127.8
0
TEXT
8
POINTS_COTES
10
27.004
20
86.998
40
1.0
1
141.9
0
TEXT
8
POINTS_COTES
10
2.997
20
93.001
40
1.0
1
144.2
0
TEXT
8
POINTS_COTES
10
66.000
20
95.996
40
1.0
1
141.6
0
TEXT
8
POINTS_COTES
10
42.003
20
101.999
40
1.0
1
137.7
0
ENDSEC
0
EOF
