0
SECTION
2
HEADER
0
ENDSEC
0
SECTION
2
TABLES
0
TABLE
2
LAYER
70
4
0
LAYER
2
CONTOURS_MINEURES
70
0
62
8
6
CONTINUOUS
0
LAYER
2
CONTOURS_MAJEURES
70
0
62
3
6
CONTINUOUS
0
LAYER
2
PARCELLE
70
0
62
4
6
CONTINUOUS
0
LAYER
2
POINTS_COTES
70
0
62
7
6
CONTINUOUS
0
ENDTAB
0
ENDSEC
0
SECTION
2
ENTITIES
0
POLYLINE
8
CONTOURS_MINEURES
66
1
70
0
0
VERTEX
8
CONTOURS_MINEURES
10
0.004
20
5.199
0
VERTEX
8
CONTOURS_MINEURES
10
1.861
20
4.863
0
VERTEX
8
CONTOURS_MINEURES
10
2.997
20
4.424
0
VERTEX
8
CONTOURS_MINEURES
10
3.947
20
3.949
0
VERTEX
8
CONTOURS_MINEURES
10
4.762
20
2.998
0
VERTEX
8
CONTOURS_MINEURES
10
4.762
20
1.762
0
VERTEX
8
CONTOURS_MINEURES
10
4.762
20
0.002
0
SEQEND
0
POLYLINE
8
CONTOURS_MINEURES
66
1
70
0
0
VERTEX
8
CONTOURS_MINEURES
10
0.004
20
13.355
0
VERTEX
8
CONTOURS_MINEURES
10
2.826
20
11.996
0
VERTEX
8
CONTOURS_MINEURES
10
2.826
20
9.171
0
VERTEX
8
CONTOURS_MINEURES
10
2.826
20
9.000
0
VERTEX
8
CONTOURS_MINEURES
10
2.958
20
8.961
0
VERTEX
8
CONTOURS_MINEURES
10
2.997
20
8.950
0
VERTEX
8
CONTOURS_MINEURES
10
4.935
20
7.936
0
VERTEX
8
CONTOURS_MINEURES
10
6.002
20
7.146
0
VERTEX
8
CONTOURS_MINEURES
10
7.855
20
7.146
0
VERTEX
8
CONTOURS_MINEURES
10
8.995
20
7.146
0
VERTEX
8
CONTOURS_MINEURES
10
10.173
20
6.005
0
VERTEX
8
CONTOURS_MINEURES
10
11.112
20
5.117
0
VERTEX
8
CONTOURS_MINEURES
10
11.999
20
3.910
0
VERTEX
8
CONTOURS_MINEURES
10
12.750
20
2.998
0
VERTEX
8
CONTOURS_MINEURES
10
12.750
20
2.249
0
VERTEX
8
CONTOURS_MINEURES
10
12.750
20
0.002
0
SEQEND
0
POLYLINE
8
CONTOURS_MINEURES
66
1
70
0
0
VERTEX
8
CONTOURS_MINEURES
10
0.004
20
27.461
0
VERTEX
8
CONTOURS_MINEURES
10
0.305
20
27.298
0
VERTEX
8
CONTOURS_MINEURES
10
1.020
20
26.996
0
VERTEX
8
CONTOURS_MINEURES
10
1.020
20
25.017
0
VERTEX
8
CONTOURS_MINEURES
10
1.020
20
24.000
0
VERTEX
8
CONTOURS_MINEURES
10
2.997
20
22.542
0
VERTEX
8
CONTOURS_MINEURES
10
5.544
20
21.005
0
VERTEX
8
CONTOURS_MINEURES
10
5.544
20
18.456
0
VERTEX
8
CONTOURS_MINEURES
10
5.544
20
17.998
0
VERTEX
8
CONTOURS_MINEURES
10
5.817
20
17.814
0
VERTEX
8
CONTOURS_MINEURES
10
6.002
20
17.602
0
VERTEX
8
CONTOURS_MINEURES
10
8.599
20
17.602
0
VERTEX
8
CONTOURS_MINEURES
10
8.995
20
17.602
0
VERTEX
8
CONTOURS_MINEURES
10
11.260
20
15.002
0
VERTEX
8
CONTOURS_MINEURES
10
11.698
20
14.702
0
VERTEX
8
CONTOURS_MINEURES
10
11.999
20
14.417
0
VERTEX
8
CONTOURS_MINEURES
10
14.660
20
11.996
0
VERTEX
8
CONTOURS_MINEURES
10
14.660
20
11.653
0
VERTEX
8
CONTOURS_MINEURES
10
14.660
20
9.000
0
VERTEX
8
CONTOURS_MINEURES
10
14.838
20
8.836
0
VERTEX
8
CONTOURS_MINEURES
10
15.003
20
8.548
0
VERTEX
8
CONTOURS_MINEURES
10
15.455
20
8.548
0
VERTEX
8
CONTOURS_MINEURES
10
17.996
20
8.548
0
VERTEX
8
CONTOURS_MINEURES
10
19.348
20
7.353
0
VERTEX
8
CONTOURS_MINEURES
10
21.000
20
6.299
0
VERTEX
8
CONTOURS_MINEURES
10
21.301
20
6.005
0
VERTEX
8
CONTOURS_MINEURES
10
22.445
20
4.443
0
VERTEX
8
CONTOURS_MINEURES
10
22.951
20
2.998
0
VERTEX
8
CONTOURS_MINEURES
10
22.951
20
1.053
0
VERTEX
8
CONTOURS_MINEURES
10
22.951
20
0.002
0
SEQEND
0
POLYLINE
8
CONTOURS_MINEURES
66
1
70
0
0
VERTEX
8
CONTOURS_MINEURES
10
0.004
20
65.860
0
VERTEX
8
CONTOURS_MINEURES
10
0.151
20
65.847
0
VERTEX
8
CONTOURS_MINEURES
10
2.997
20
65.714
0
VERTEX
8
CONTOURS_MINEURES
10
5.572
20
65.995
0
VERTEX
8
CONTOURS_MINEURES
10
5.572
20
68.572
0
VERTEX
8
CONTOURS_MINEURES
10
5.572
20
69.001
0
VERTEX
8
CONTOURS_MINEURES
10
5.965
20
69.037
0
VERTEX
8
CONTOURS_MINEURES
10
6.002
20
69.040
0
VERTEX
8
CONTOURS_MINEURES
10
6.040
20
69.040
0
VERTEX
8
CONTOURS_MINEURES
10
8.995
20
69.040
0
VERTEX
8
CONTOURS_MINEURES
10
9.370
20
69.001
0
VERTEX
8
CONTOURS_MINEURES
10
9.370
20
68.625
0
VERTEX
8
CONTOURS_MINEURES
10
9.370
20
65.995
0
VERTEX
8
CONTOURS_MINEURES
10
11.999
20
65.599
0
VERTEX
8
CONTOURS_MINEURES
10
13.748
20
64.743
0
VERTEX
8
CONTOURS_MINEURES
10
15.003
20
63.087
0
VERTEX
8
CONTOURS_MINEURES
10
17.908
20
63.087
0
VERTEX
8
CONTOURS_MINEURES
10
17.996
20
63.087
0
VERTEX
8
CONTOURS_MINEURES
10
18.034
20
63.037
0
VERTEX
8
CONTOURS_MINEURES
10
18.047
20
62.999
0
VERTEX
8
CONTOURS_MINEURES
10
18.037
20
62.958
0
VERTEX
8
CONTOURS_MINEURES
10
18.617
20
60.003
0
VERTEX
8
CONTOURS_MINEURES
10
18.617
20
57.618
0
VERTEX
8
CONTOURS_MINEURES
10
18.617
20
56.997
0
VERTEX
8
CONTOURS_MINEURES
10
18.435
20
56.559
0
VERTEX
8
CONTOURS_MINEURES
10
17.996
20
56.064
0
VERTEX
8
CONTOURS_MINEURES
10
17.064
20
56.064
0
VERTEX
8
CONTOURS_MINEURES
10
15.003
20
56.064
0
VERTEX
8
CONTOURS_MINEURES
10
13.886
20
55.114
0
VERTEX
8
CONTOURS_MINEURES
10
12.428
20
54.001
0
VERTEX
8
CONTOURS_MINEURES
10
12.428
20
51.433
0
VERTEX
8
CONTOURS_MINEURES
10
12.428
20
51.005
0
VERTEX
8
CONTOURS_MINEURES
10
11.999
20
50.766
0
VERTEX
8
CONTOURS_MINEURES
10
11.703
20
50.709
0
VERTEX
8
CONTOURS_MINEURES
10
8.995
20
50.113
0
VERTEX
8
CONTOURS_MINEURES
10
8.107
20
50.113
0
VERTEX
8
CONTOURS_MINEURES
10
6.002
20
50.113
0
VERTEX
8
CONTOURS_MINEURES
10
3.889
20
50.113
0
VERTEX
8
CONTOURS_MINEURES
10
2.997
20
49.829
0
VERTEX
8
CONTOURS_MINEURES
10
0.688
20
48.686
0
VERTEX
8
CONTOURS_MINEURES
10
0.004
20
48.545
0
SEQEND
0
POLYLINE
8
CONTOURS_MINEURES
66
1
70
0
0
VERTEX
8
CONTOURS_MINEURES
10
0.004
20
36.070
0
VERTEX
8
CONTOURS_MINEURES
10
0.041
20
36.042
0
VERTEX
8
CONTOURS_MINEURES
10
0.053
20
36.005
0
VERTEX
8
CONTOURS_MINEURES
10
0.053
20
35.956
0
VERTEX
8
CONTOURS_MINEURES
10
0.053
20
32.998
0
VERTEX
8
CONTOURS_MINEURES
10
2.997
20
31.001
0
VERTEX
8
CONTOURS_MINEURES
10
5.536
20
30.467
0
VERTEX
8
CONTOURS_MINEURES
10
6.002
20
30.357
0
VERTEX
8
CONTOURS_MINEURES
10
6.356
20
30.357
0
VERTEX
8
CONTOURS_MINEURES
10
8.995
20
30.357
0
VERTEX
8
CONTOURS_MINEURES
10
9.325
20
30.332
0
VERTEX
8
CONTOURS_MINEURES
10
11.999
20
30.278
0
VERTEX
8
CONTOURS_MINEURES
10
12.900
20
30.003
0
VERTEX
8
CONTOURS_MINEURES
10
15.003
20
28.833
0
VERTEX
8
CONTOURS_MINEURES
10
16.832
20
28.833
0
VERTEX
8
CONTOURS_MINEURES
10
17.996
20
28.833
0
VERTEX
8
CONTOURS_MINEURES
10
19.149
20
28.150
0
VERTEX
8
CONTOURS_MINEURES
10
20.199
20
26.996
0
VERTEX
8
CONTOURS_MINEURES
10
20.199
20
24.799
0
VERTEX
8
CONTOURS_MINEURES
10
20.199
20
24.000
0
VERTEX
8
CONTOURS_MINEURES
10
20.632
20
23.634
0
VERTEX
8
CONTOURS_MINEURES
10
21.000
20
23.281
0
VERTEX
8
CONTOURS_MINEURES
10
22.288
20
22.717
0
VERTEX
8
CONTOURS_MINEURES
10
24.004
20
22.070
0
VERTEX
8
CONTOURS_MINEURES
10
25.933
20
22.070
0
VERTEX
8
CONTOURS_MINEURES
10
26.998
20
22.070
0
VERTEX
8
CONTOURS_MINEURES
10
29.352
20
21.653
0
VERTEX
8
CONTOURS_MINEURES
10
30.002
20
21.494
0
VERTEX
8
CONTOURS_MINEURES
10
30.750
20
21.005
0
VERTEX
8
CONTOURS_MINEURES
10
30.750
20
18.750
0
VERTEX
8
CONTOURS_MINEURES
10
30.750
20
17.998
0
VERTEX
8
CONTOURS_MINEURES
10
31.983
20
16.986
0
VERTEX
8
CONTOURS_MINEURES
10
32.995
20
16.055
0
VERTEX
8
CONTOURS_MINEURES
10
34.050
20
16.055
0
VERTEX
8
CONTOURS_MINEURES
10
35.999
20
16.055
0
VERTEX
8
CONTOURS_MINEURES
10
36.423
20
15.426
0
VERTEX
8
CONTOURS_MINEURES
10
36.684
20
15.002
0
VERTEX
8
CONTOURS_MINEURES
10
36.905
20
12.903
0
VERTEX
8
CONTOURS_MINEURES
10
37.000
20
11.996
0
VERTEX
8
CONTOURS_MINEURES
10
37.000
20
10.997
0
VERTEX
8
CONTOURS_MINEURES
10
37.000
20
9.000
0
VERTEX
8
CONTOURS_MINEURES
10
37.132
20
7.134
0
VERTEX
8
CONTOURS_MINEURES
10
37.354
20
6.005
0
VERTEX
8
CONTOURS_MINEURES
10
39.003
20
3.102
0
VERTEX
8
CONTOURS_MINEURES
10
39.039
20
3.034
0
VERTEX
8
CONTOURS_MINEURES
10
39.053
20
2.998
0
VERTEX
8
CONTOURS_MINEURES
10
39.053
20
2.948
0
VERTEX
8
CONTOURS_MINEURES
10
39.053
20
0.002
0
SEQEND
0
POLYLINE
8
CONTOURS_MINEURES
66
1
70
0
0
VERTEX
8
CONTOURS_MINEURES
10
74.937
20
0.002
0
VERTEX
8
CONTOURS_MINEURES
10
74.937
20
0.063
0
VERTEX
8
CONTOURS_MINEURES
10
74.937
20
2.998
0
VERTEX
8
CONTOURS_MINEURES
10
74.998
20
3.017
0
VERTEX
8
CONTOURS_MINEURES
10
77.983
20
3.017
0
VERTEX
8
CONTOURS_MINEURES
10
78.002
20
3.017
0
VERTEX
8
CONTOURS_MINEURES
10
78.178
20
2.998
0
VERTEX
8
CONTOURS_MINEURES
10
78.178
20
0.178
0
VERTEX
8
CONTOURS_MINEURES
10
78.178
20
0.002
0
SEQEND
0
POLYLINE
8
CONTOURS_MINEURES
66
1
70
0
0
VERTEX
8
CONTOURS_MINEURES
10
29.033
20
77.999
0
VERTEX
8
CONTOURS_MINEURES
10
29.033
20
77.033
0
VERTEX
8
CONTOURS_MINEURES
10
29.033
20
75.004
0
VERTEX
8
CONTOURS_MINEURES
10
28.518
20
73.482
0
VERTEX
8
CONTOURS_MINEURES
10
28.443
20
71.997
0
VERTEX
8
CONTOURS_MINEURES
10
28.618
20
70.617
0
VERTEX
8
CONTOURS_MINEURES
10
28.655
20
69.001
0
VERTEX
8
CONTOURS_MINEURES
10
28.655
20
67.342
0
VERTEX
8
CONTOURS_MINEURES
10
28.655
20
65.995
0
VERTEX
8
CONTOURS_MINEURES
10
28.778
20
64.219
0
VERTEX
8
CONTOURS_MINEURES
10
28.947
20
62.999
0
VERTEX
8
CONTOURS_MINEURES
10
28.522
20
61.523
0
VERTEX
8
CONTOURS_MINEURES
10
28.096
20
60.003
0
VERTEX
8
CONTOURS_MINEURES
10
28.096
20
58.096
0
VERTEX
8
CONTOURS_MINEURES
10
28.096
20
56.997
0
VERTEX
8
CONTOURS_MINEURES
10
27.395
20
54.397
0
VERTEX
8
CONTOURS_MINEURES
10
27.291
20
54.001
0
VERTEX
8
CONTOURS_MINEURES
10
27.291
20
53.708
0
VERTEX
8
CONTOURS_MINEURES
10
27.291
20
51.005
0
VERTEX
8
CONTOURS_MINEURES
10
27.233
20
50.770
0
VERTEX
8
CONTOURS_MINEURES
10
26.998
20
50.039
0
VERTEX
8
CONTOURS_MINEURES
10
26.035
20
50.039
0
VERTEX
8
CONTOURS_MINEURES
10
24.004
20
50.039
0
VERTEX
8
CONTOURS_MINEURES
10
23.476
20
48.528
0
VERTEX
8
CONTOURS_MINEURES
10
23.084
20
47.999
0
VERTEX
8
CONTOURS_MINEURES
10
22.678
20
46.326
0
VERTEX
8
CONTOURS_MINEURES
10
22.502
20
45.003
0
VERTEX
8
CONTOURS_MINEURES
10
22.502
20
43.500
0
VERTEX
8
CONTOURS_MINEURES
10
22.502
20
41.996
0
VERTEX
8
CONTOURS_MINEURES
10
23.173
20
39.829
0
VERTEX
8
CONTOURS_MINEURES
10
23.342
20
39.001
0
VERTEX
8
CONTOURS_MINEURES
10
24.004
20
38.318
0
VERTEX
8
CONTOURS_MINEURES
10
26.315
20
38.318
0
VERTEX
8
CONTOURS_MINEURES
10
26.998
20
38.318
0
VERTEX
8
CONTOURS_MINEURES
10
28.082
20
37.919
0
VERTEX
8
CONTOURS_MINEURES
10
30.002
20
36.900
0
VERTEX
8
CONTOURS_MINEURES
10
31.914
20
36.005
0
VERTEX
8
CONTOURS_MINEURES
10
31.914
20
34.919
0
VERTEX
8
CONTOURS_MINEURES
10
31.914
20
32.998
0
VERTEX
8
CONTOURS_MINEURES
10
32.671
20
32.674
0
VERTEX
8
CONTOURS_MINEURES
10
32.995
20
32.561
0
VERTEX
8
CONTOURS_MINEURES
10
33.434
20
32.561
0
VERTEX
8
CONTOURS_MINEURES
10
35.999
20
32.561
0
VERTEX
8
CONTOURS_MINEURES
10
37.482
20
31.481
0
VERTEX
8
CONTOURS_MINEURES
10
39.003
20
30.431
0
VERTEX
8
CONTOURS_MINEURES
10
39.602
20
30.003
0
VERTEX
8
CONTOURS_MINEURES
10
41.996
20
27.560
0
VERTEX
8
CONTOURS_MINEURES
10
42.560
20
27.560
0
VERTEX
8
CONTOURS_MINEURES
10
45.000
20
27.560
0
VERTEX
8
CONTOURS_MINEURES
10
45.601
20
26.996
0
VERTEX
8
CONTOURS_MINEURES
10
45.601
20
24.600
0
VERTEX
8
CONTOURS_MINEURES
10
45.601
20
24.000
0
VERTEX
8
CONTOURS_MINEURES
10
47.253
20
21.754
0
VERTEX
8
CONTOURS_MINEURES
10
47.786
20
21.005
0
VERTEX
8
CONTOURS_MINEURES
10
47.786
20
18.217
0
VERTEX
8
CONTOURS_MINEURES
10
47.786
20
17.998
0
VERTEX
8
CONTOURS_MINEURES
10
47.840
20
17.834
0
VERTEX
8
CONTOURS_MINEURES
10
48.004
20
17.142
0
VERTEX
8
CONTOURS_MINEURES
10
48.628
20
15.002
0
VERTEX
8
CONTOURS_MINEURES
10
49.396
20
13.393
0
VERTEX
8
CONTOURS_MINEURES
10
50.062
20
11.996
0
VERTEX
8
CONTOURS_MINEURES
10
50.062
20
9.936
0
VERTEX
8
CONTOURS_MINEURES
10
50.062
20
9.000
0
VERTEX
8
CONTOURS_MINEURES
10
50.998
20
7.551
0
VERTEX
8
CONTOURS_MINEURES
10
52.451
20
7.551
0
VERTEX
8
CONTOURS_MINEURES
10
54.002
20
7.551
0
VERTEX
8
CONTOURS_MINEURES
10
54.572
20
6.575
0
VERTEX
8
CONTOURS_MINEURES
10
55.021
20
6.005
0
VERTEX
8
CONTOURS_MINEURES
10
56.995
20
4.102
0
VERTEX
8
CONTOURS_MINEURES
10
58.896
20
4.102
0
VERTEX
8
CONTOURS_MINEURES
10
59.999
20
4.102
0
VERTEX
8
CONTOURS_MINEURES
10
60.581
20
3.580
0
VERTEX
8
CONTOURS_MINEURES
10
62.457
20
2.998
0
VERTEX
8
CONTOURS_MINEURES
10
62.457
20
2.453
0
VERTEX
8
CONTOURS_MINEURES
10
62.457
20
0.002
0
SEQEND
0
POLYLINE
8
CONTOURS_MINEURES
66
1
70
0
0
VERTEX
8
CONTOURS_MINEURES
10
41.173
20
77.999
0
VERTEX
8
CONTOURS_MINEURES
10
41.173
20
75.827
0
VERTEX
8
CONTOURS_MINEURES
10
41.173
20
75.004
0
VERTEX
8
CONTOURS_MINEURES
10
41.849
20
72.145
0
VERTEX
8
CONTOURS_MINEURES
10
41.809
20
71.997
0
VERTEX
8
CONTOURS_MINEURES
10
41.830
20
71.830
0
VERTEX
8
CONTOURS_MINEURES
10
41.996
20
70.200
0
VERTEX
8
CONTOURS_MINEURES
10
43.799
20
70.200
0
VERTEX
8
CONTOURS_MINEURES
10
45.000
20
70.200
0
VERTEX
8
CONTOURS_MINEURES
10
45.334
20
69.001
0
VERTEX
8
CONTOURS_MINEURES
10
45.334
20
66.329
0
VERTEX
8
CONTOURS_MINEURES
10
45.334
20
65.995
0
VERTEX
8
CONTOURS_MINEURES
10
45.820
20
63.816
0
VERTEX
8
CONTOURS_MINEURES
10
46.387
20
62.999
0
VERTEX
8
CONTOURS_MINEURES
10
45.000
20
61.202
0
VERTEX
8
CONTOURS_MINEURES
10
43.799
20
61.202
0
VERTEX
8
CONTOURS_MINEURES
10
41.996
20
61.202
0
VERTEX
8
CONTOURS_MINEURES
10
40.999
20
60.003
0
VERTEX
8
CONTOURS_MINEURES
10
40.999
20
59.001
0
VERTEX
8
CONTOURS_MINEURES
10
40.999
20
56.997
0
VERTEX
8
CONTOURS_MINEURES
10
39.535
20
56.464
0
VERTEX
8
CONTOURS_MINEURES
10
39.003
20
55.907
0
VERTEX
8
CONTOURS_MINEURES
10
38.210
20
54.001
0
VERTEX
8
CONTOURS_MINEURES
10
38.210
20
51.797
0
VERTEX
8
CONTOURS_MINEURES
10
38.210
20
51.005
0
VERTEX
8
CONTOURS_MINEURES
10
38.169
20
48.834
0
VERTEX
8
CONTOURS_MINEURES
10
38.044
20
47.999
0
VERTEX
8
CONTOURS_MINEURES
10
38.264
20
47.262
0
VERTEX
8
CONTOURS_MINEURES
10
39.003
20
46.677
0
VERTEX
8
CONTOURS_MINEURES
10
41.476
20
45.003
0
VERTEX
8
CONTOURS_MINEURES
10
41.476
20
42.519
0
VERTEX
8
CONTOURS_MINEURES
10
41.476
20
41.996
0
VERTEX
8
CONTOURS_MINEURES
10
41.825
20
41.825
0
VERTEX
8
CONTOURS_MINEURES
10
41.996
20
41.568
0
VERTEX
8
CONTOURS_MINEURES
10
42.426
20
41.568
0
VERTEX
8
CONTOURS_MINEURES
10
45.000
20
41.568
0
VERTEX
8
CONTOURS_MINEURES
10
46.145
20
40.142
0
VERTEX
8
CONTOURS_MINEURES
10
46.949
20
39.001
0
VERTEX
8
CONTOURS_MINEURES
10
48.004
20
38.329
0
VERTEX
8
CONTOURS_MINEURES
10
50.870
20
36.005
0
VERTEX
8
CONTOURS_MINEURES
10
50.870
20
35.877
0
VERTEX
8
CONTOURS_MINEURES
10
50.870
20
32.998
0
VERTEX
8
CONTOURS_MINEURES
10
50.998
20
32.868
0
VERTEX
8
CONTOURS_MINEURES
10
53.871
20
32.868
0
VERTEX
8
CONTOURS_MINEURES
10
54.002
20
32.868
0
VERTEX
8
CONTOURS_MINEURES
10
56.690
20
30.003
0
VERTEX
8
CONTOURS_MINEURES
10
56.995
20
29.627
0
VERTEX
8
CONTOURS_MINEURES
10
59.624
20
29.627
0
VERTEX
8
CONTOURS_MINEURES
10
59.999
20
29.627
0
VERTEX
8
CONTOURS_MINEURES
10
62.285
20
26.996
0
VERTEX
8
CONTOURS_MINEURES
10
62.285
20
24.717
0
VERTEX
8
CONTOURS_MINEURES
10
62.285
20
24.000
0
VERTEX
8
CONTOURS_MINEURES
10
62.580
20
23.578
0
VERTEX
8
CONTOURS_MINEURES
10
63.003
20
22.824
0
VERTEX
8
CONTOURS_MINEURES
10
64.001
20
21.005
0
VERTEX
8
CONTOURS_MINEURES
10
64.001
20
19.000
0
VERTEX
8
CONTOURS_MINEURES
10
64.001
20
17.998
0
VERTEX
8
CONTOURS_MINEURES
10
65.547
20
15.452
0
VERTEX
8
CONTOURS_MINEURES
10
65.824
20
15.002
0
VERTEX
8
CONTOURS_MINEURES
10
65.996
20
14.721
0
VERTEX
8
CONTOURS_MINEURES
10
68.719
20
14.721
0
VERTEX
8
CONTOURS_MINEURES
10
69.001
20
14.721
0
VERTEX
8
CONTOURS_MINEURES
10
70.178
20
13.174
0
VERTEX
8
CONTOURS_MINEURES
10
70.936
20
11.996
0
VERTEX
8
CONTOURS_MINEURES
10
70.936
20
10.931
0
VERTEX
8
CONTOURS_MINEURES
10
70.936
20
9.000
0
VERTEX
8
CONTOURS_MINEURES
10
72.005
20
8.042
0
VERTEX
8
CONTOURS_MINEURES
10
72.790
20
8.214
0
VERTEX
8
CONTOURS_MINEURES
10
74.998
20
7.648
0
VERTEX
8
CONTOURS_MINEURES
10
76.646
20
7.648
0
VERTEX
8
CONTOURS_MINEURES
10
78.002
20
7.648
0
VERTEX
8
CONTOURS_MINEURES
10
79.568
20
7.572
0
VERTEX
8
CONTOURS_MINEURES
10
80.995
20
7.707
0
VERTEX
8
CONTOURS_MINEURES
10
83.217
20
6.005
0
VERTEX
8
CONTOURS_MINEURES
10
83.718
20
5.723
0
VERTEX
8
CONTOURS_MINEURES
10
83.999
20
5.384
0
VERTEX
8
CONTOURS_MINEURES
10
84.620
20
5.384
0
VERTEX
8
CONTOURS_MINEURES
10
87.003
20
5.384
0
VERTEX
8
CONTOURS_MINEURES
10
89.125
20
2.998
0
VERTEX
8
CONTOURS_MINEURES
10
89.125
20
0.875
0
VERTEX
8
CONTOURS_MINEURES
10
89.125
20
0.002
0
SEQEND
0
POLYLINE
8
CONTOURS_MINEURES
66
1
70
0
0
VERTEX
8
CONTOURS_MINEURES
10
64.454
20
77.999
0
VERTEX
8
CONTOURS_MINEURES
10
64.454
20
76.547
0
VERTEX
8
CONTOURS_MINEURES
10
64.454
20
75.004
0
VERTEX
8
CONTOURS_MINEURES
10
65.054
20
74.057
0
VERTEX
8
CONTOURS_MINEURES
10
65.996
20
73.038
0
VERTEX
8
CONTOURS_MINEURES
10
67.961
20
73.038
0
VERTEX
8
CONTOURS_MINEURES
10
69.001
20
73.038
0
VERTEX
8
CONTOURS_MINEURES
10
69.873
20
71.997
0
VERTEX
8
CONTOURS_MINEURES
10
70.288
20
70.713
0
VERTEX
8
CONTOURS_MINEURES
10
70.437
20
69.001
0
VERTEX
8
CONTOURS_MINEURES
10
70.437
20
67.433
0
VERTEX
8
CONTOURS_MINEURES
10
70.437
20
65.995
0
VERTEX
8
CONTOURS_MINEURES
10
69.894
20
65.104
0
VERTEX
8
CONTOURS_MINEURES
10
69.001
20
64.164
0
VERTEX
8
CONTOURS_MINEURES
10
67.165
20
64.164
0
VERTEX
8
CONTOURS_MINEURES
10
65.996
20
64.164
0
VERTEX
8
CONTOURS_MINEURES
10
65.485
20
63.510
0
VERTEX
8
CONTOURS_MINEURES
10
65.191
20
62.999
0
VERTEX
8
CONTOURS_MINEURES
10
64.687
20
61.688
0
VERTEX
8
CONTOURS_MINEURES
10
63.445
20
60.003
0
VERTEX
8
CONTOURS_MINEURES
10
63.445
20
59.560
0
VERTEX
8
CONTOURS_MINEURES
10
63.445
20
56.997
0
VERTEX
8
CONTOURS_MINEURES
10
63.773
20
54.771
0
VERTEX
8
CONTOURS_MINEURES
10
63.712
20
54.001
0
VERTEX
8
CONTOURS_MINEURES
10
63.712
20
53.292
0
VERTEX
8
CONTOURS_MINEURES
10
63.712
20
51.005
0
VERTEX
8
CONTOURS_MINEURES
10
63.618
20
48.616
0
VERTEX
8
CONTOURS_MINEURES
10
63.705
20
47.999
0
VERTEX
8
CONTOURS_MINEURES
10
63.668
20
45.669
0
VERTEX
8
CONTOURS_MINEURES
10
63.585
20
45.003
0
VERTEX
8
CONTOURS_MINEURES
10
63.585
20
44.418
0
VERTEX
8
CONTOURS_MINEURES
10
63.585
20
41.996
0
VERTEX
8
CONTOURS_MINEURES
10
64.150
20
40.148
0
VERTEX
8
CONTOURS_MINEURES
10
64.421
20
39.001
0
VERTEX
8
CONTOURS_MINEURES
10
64.908
20
37.911
0
VERTEX
8
CONTOURS_MINEURES
10
65.996
20
36.005
0
VERTEX
8
CONTOURS_MINEURES
10
65.996
20
32.998
0
VERTEX
8
CONTOURS_MINEURES
10
69.001
20
32.998
0
VERTEX
8
CONTOURS_MINEURES
10
72.005
20
30.052
0
VERTEX
8
CONTOURS_MINEURES
10
72.030
20
30.029
0
VERTEX
8
CONTOURS_MINEURES
10
72.051
20
30.003
0
VERTEX
8
CONTOURS_MINEURES
10
74.998
20
27.330
0
VERTEX
8
CONTOURS_MINEURES
10
75.332
20
27.330
0
VERTEX
8
CONTOURS_MINEURES
10
78.002
20
27.330
0
VERTEX
8
CONTOURS_MINEURES
10
78.197
20
27.192
0
VERTEX
8
CONTOURS_MINEURES
10
78.471
20
26.996
0
VERTEX
8
CONTOURS_MINEURES
10
78.471
20
26.526
0
VERTEX
8
CONTOURS_MINEURES
10
78.471
20
24.000
0
VERTEX
8
CONTOURS_MINEURES
10
80.020
20
23.025
0
VERTEX
8
CONTOURS_MINEURES
10
80.995
20
22.686
0
VERTEX
8
CONTOURS_MINEURES
10
83.618
20
21.005
0
VERTEX
8
CONTOURS_MINEURES
10
83.618
20
18.380
0
VERTEX
8
CONTOURS_MINEURES
10
83.618
20
17.998
0
VERTEX
8
CONTOURS_MINEURES
10
83.801
20
17.800
0
VERTEX
8
CONTOURS_MINEURES
10
83.999
20
17.761
0
VERTEX
8
CONTOURS_MINEURES
10
84.237
20
17.761
0
VERTEX
8
CONTOURS_MINEURES
10
87.003
20
17.761
0
VERTEX
8
CONTOURS_MINEURES
10
88.533
20
16.533
0
VERTEX
8
CONTOURS_MINEURES
10
89.997
20
15.700
0
VERTEX
8
CONTOURS_MINEURES
10
91.050
20
15.002
0
VERTEX
8
CONTOURS_MINEURES
10
92.085
20
14.086
0
VERTEX
8
CONTOURS_MINEURES
10
93.001
20
12.943
0
VERTEX
8
CONTOURS_MINEURES
10
95.058
20
12.943
0
VERTEX
8
CONTOURS_MINEURES
10
96.005
20
12.943
0
VERTEX
8
CONTOURS_MINEURES
10
96.476
20
12.469
0
VERTEX
8
CONTOURS_MINEURES
10
97.098
20
11.996
0
VERTEX
8
CONTOURS_MINEURES
10
97.098
20
10.902
0
VERTEX
8
CONTOURS_MINEURES
10
97.098
20
9.000
0
VERTEX
8
CONTOURS_MINEURES
10
98.017
20
8.018
0
VERTEX
8
CONTOURS_MINEURES
10
98.998
20
6.898
0
VERTEX
8
CONTOURS_MINEURES
10
99.413
20
6.419
0
VERTEX
8
CONTOURS_MINEURES
10
99.707
20
6.005
0
VERTEX
8
CONTOURS_MINEURES
10
100.540
20
4.541
0
VERTEX
8
CONTOURS_MINEURES
10
101.149
20
2.998
0
VERTEX
8
CONTOURS_MINEURES
10
101.149
20
2.147
0
VERTEX
8
CONTOURS_MINEURES
10
101.149
20
0.002
0
SEQEND
0
POLYLINE
8
CONTOURS_MINEURES
66
1
70
0
0
VERTEX
8
CONTOURS_MINEURES
10
81.773
20
77.999
0
VERTEX
8
CONTOURS_MINEURES
10
81.773
20
75.779
0
VERTEX
8
CONTOURS_MINEURES
10
81.773
20
75.004
0
VERTEX
8
CONTOURS_MINEURES
10
81.904
20
74.094
0
VERTEX
8
CONTOURS_MINEURES
10
81.868
20
71.997
0
VERTEX
8
CONTOURS_MINEURES
10
82.139
20
70.141
0
VERTEX
8
CONTOURS_MINEURES
10
82.497
20
69.001
0
VERTEX
8
CONTOURS_MINEURES
10
82.497
20
67.498
0
VERTEX
8
CONTOURS_MINEURES
10
82.497
20
65.995
0
VERTEX
8
CONTOURS_MINEURES
10
82.667
20
64.666
0
VERTEX
8
CONTOURS_MINEURES
10
83.999
20
63.165
0
VERTEX
8
CONTOURS_MINEURES
10
84.166
20
63.165
0
VERTEX
8
CONTOURS_MINEURES
10
87.003
20
63.165
0
VERTEX
8
CONTOURS_MINEURES
10
87.313
20
62.999
0
VERTEX
8
CONTOURS_MINEURES
10
88.187
20
61.188
0
VERTEX
8
CONTOURS_MINEURES
10
89.997
20
60.114
0
VERTEX
8
CONTOURS_MINEURES
10
90.039
20
60.046
0
VERTEX
8
CONTOURS_MINEURES
10
90.042
20
60.003
0
VERTEX
8
CONTOURS_MINEURES
10
90.042
20
57.042
0
VERTEX
8
CONTOURS_MINEURES
10
90.042
20
56.997
0
VERTEX
8
CONTOURS_MINEURES
10
90.050
20
56.943
0
VERTEX
8
CONTOURS_MINEURES
10
89.997
20
56.820
0
VERTEX
8
CONTOURS_MINEURES
10
89.248
20
56.248
0
VERTEX
8
CONTOURS_MINEURES
10
87.003
20
54.450
0
VERTEX
8
CONTOURS_MINEURES
10
84.450
20
54.450
0
VERTEX
8
CONTOURS_MINEURES
10
83.999
20
54.450
0
VERTEX
8
CONTOURS_MINEURES
10
83.823
20
54.177
0
VERTEX
8
CONTOURS_MINEURES
10
83.718
20
54.001
0
VERTEX
8
CONTOURS_MINEURES
10
83.718
20
53.720
0
VERTEX
8
CONTOURS_MINEURES
10
83.718
20
51.005
0
VERTEX
8
CONTOURS_MINEURES
10
83.799
20
50.805
0
VERTEX
8
CONTOURS_MINEURES
10
83.999
20
50.361
0
VERTEX
8
CONTOURS_MINEURES
10
84.643
20
50.361
0
VERTEX
8
CONTOURS_MINEURES
10
87.003
20
50.361
0
VERTEX
8
CONTOURS_MINEURES
10
88.223
20
49.224
0
VERTEX
8
CONTOURS_MINEURES
10
87.972
20
47.999
0
VERTEX
8
CONTOURS_MINEURES
10
87.944
20
47.057
0
VERTEX
8
CONTOURS_MINEURES
10
88.106
20
45.003
0
VERTEX
8
CONTOURS_MINEURES
10
88.106
20
43.104
0
VERTEX
8
CONTOURS_MINEURES
10
88.106
20
41.996
0
VERTEX
8
CONTOURS_MINEURES
10
88.001
20
40.998
0
VERTEX
8
CONTOURS_MINEURES
10
87.532
20
39.001
0
VERTEX
8
CONTOURS_MINEURES
10
87.952
20
36.955
0
VERTEX
8
CONTOURS_MINEURES
10
87.888
20
36.005
0
VERTEX
8
CONTOURS_MINEURES
10
87.888
20
33.887
0
VERTEX
8
CONTOURS_MINEURES
10
87.888
20
32.998
0
VERTEX
8
CONTOURS_MINEURES
10
88.792
20
31.792
0
VERTEX
8
CONTOURS_MINEURES
10
89.872
20
30.003
0
VERTEX
8
CONTOURS_MINEURES
10
89.997
20
29.821
0
VERTEX
8
CONTOURS_MINEURES
10
91.327
20
28.328
0
VERTEX
8
CONTOURS_MINEURES
10
92.066
20
26.996
0
VERTEX
8
CONTOURS_MINEURES
10
92.066
20
24.932
0
VERTEX
8
CONTOURS_MINEURES
10
92.066
20
24.000
0
VERTEX
8
CONTOURS_MINEURES
10
92.664
20
23.665
0
VERTEX
8
CONTOURS_MINEURES
10
93.001
20
23.265
0
VERTEX
8
CONTOURS_MINEURES
10
95.267
20
23.265
0
VERTEX
8
CONTOURS_MINEURES
10
96.005
20
23.265
0
VERTEX
8
CONTOURS_MINEURES
10
97.374
20
22.375
0
VERTEX
8
CONTOURS_MINEURES
10
98.930
20
21.005
0
VERTEX
8
CONTOURS_MINEURES
10
98.930
20
18.066
0
VERTEX
8
CONTOURS_MINEURES
10
98.930
20
17.998
0
VERTEX
8
CONTOURS_MINEURES
10
98.998
20
17.960
0
VERTEX
8
CONTOURS_MINEURES
10
101.288
20
17.286
0
VERTEX
8
CONTOURS_MINEURES
10
102.002
20
16.642
0
VERTEX
8
CONTOURS_MINEURES
10
103.358
20
16.642
0
VERTEX
8
CONTOURS_MINEURES
10
104.995
20
16.642
0
VERTEX
8
CONTOURS_MINEURES
10
105.867
20
15.871
0
VERTEX
8
CONTOURS_MINEURES
10
107.173
20
15.002
0
VERTEX
8
CONTOURS_MINEURES
10
107.999
20
14.084
0
VERTEX
8
CONTOURS_MINEURES
10
108.917
20
14.084
0
VERTEX
8
CONTOURS_MINEURES
10
111.003
20
14.084
0
VERTEX
8
CONTOURS_MINEURES
10
111.775
20
12.771
0
VERTEX
8
CONTOURS_MINEURES
10
112.230
20
11.996
0
VERTEX
8
CONTOURS_MINEURES
10
112.230
20
10.768
0
VERTEX
8
CONTOURS_MINEURES
10
112.230
20
9.000
0
VERTEX
8
CONTOURS_MINEURES
10
113.676
20
6.325
0
VERTEX
8
CONTOURS_MINEURES
10
113.854
20
6.005
0
VERTEX
8
CONTOURS_MINEURES
10
113.877
20
5.884
0
VERTEX
8
CONTOURS_MINEURES
10
113.997
20
5.670
0
VERTEX
8
CONTOURS_MINEURES
10
115.123
20
2.998
0
VERTEX
8
CONTOURS_MINEURES
10
115.123
20
1.874
0
VERTEX
8
CONTOURS_MINEURES
10
115.123
20
0.002
0
SEQEND
0
POLYLINE
8
CONTOURS_MINEURES
66
1
70
0
0
VERTEX
8
CONTOURS_MINEURES
10
97.086
20
77.999
0
VERTEX
8
CONTOURS_MINEURES
10
97.086
20
76.085
0
VERTEX
8
CONTOURS_MINEURES
10
97.086
20
75.004
0
VERTEX
8
CONTOURS_MINEURES
10
98.998
20
73.532
0
VERTEX
8
CONTOURS_MINEURES
10
101.301
20
72.698
0
VERTEX
8
CONTOURS_MINEURES
10
102.002
20
72.418
0
VERTEX
8
CONTOURS_MINEURES
10
102.421
20
72.418
0
VERTEX
8
CONTOURS_MINEURES
10
104.995
20
72.418
0
VERTEX
8
CONTOURS_MINEURES
10
105.255
20
72.257
0
VERTEX
8
CONTOURS_MINEURES
10
105.416
20
71.997
0
VERTEX
8
CONTOURS_MINEURES
10
107.624
20
69.376
0
VERTEX
8
CONTOURS_MINEURES
10
107.948
20
69.001
0
VERTEX
8
CONTOURS_MINEURES
10
107.948
20
68.949
0
VERTEX
8
CONTOURS_MINEURES
10
107.948
20
65.995
0
VERTEX
8
CONTOURS_MINEURES
10
107.999
20
65.695
0
VERTEX
8
CONTOURS_MINEURES
10
110.703
20
65.695
0
VERTEX
8
CONTOURS_MINEURES
10
111.003
20
65.695
0
VERTEX
8
CONTOURS_MINEURES
10
111.244
20
63.240
0
VERTEX
8
CONTOURS_MINEURES
10
111.278
20
62.999
0
VERTEX
8
CONTOURS_MINEURES
10
111.368
20
62.635
0
VERTEX
8
CONTOURS_MINEURES
10
111.003
20
61.202
0
VERTEX
8
CONTOURS_MINEURES
10
109.802
20
61.202
0
VERTEX
8
CONTOURS_MINEURES
10
107.999
20
61.202
0
VERTEX
8
CONTOURS_MINEURES
10
106.197
20
60.003
0
VERTEX
8
CONTOURS_MINEURES
10
106.197
20
58.801
0
VERTEX
8
CONTOURS_MINEURES
10
106.197
20
56.997
0
VERTEX
8
CONTOURS_MINEURES
10
107.999
20
55.000
0
VERTEX
8
CONTOURS_MINEURES
10
109.001
20
55.000
0
VERTEX
8
CONTOURS_MINEURES
10
111.003
20
55.000
0
VERTEX
8
CONTOURS_MINEURES
10
111.136
20
54.133
0
VERTEX
8
CONTOURS_MINEURES
10
111.324
20
54.001
0
VERTEX
8
CONTOURS_MINEURES
10
111.324
20
51.326
0
VERTEX
8
CONTOURS_MINEURES
10
111.324
20
51.005
0
VERTEX
8
CONTOURS_MINEURES
10
112.334
20
49.335
0
VERTEX
8
CONTOURS_MINEURES
10
113.398
20
47.999
0
VERTEX
8
CONTOURS_MINEURES
10
113.346
20
47.347
0
VERTEX
8
CONTOURS_MINEURES
10
113.997
20
45.859
0
VERTEX
8
CONTOURS_MINEURES
10
115.499
20
46.501
0
VERTEX
8
CONTOURS_MINEURES
10
117.001
20
46.365
0
VERTEX
8
CONTOURS_MINEURES
10
118.639
20
46.365
0
VERTEX
8
CONTOURS_MINEURES
10
120.005
20
46.365
0
VERTEX
8
CONTOURS_MINEURES
10
120.421
20
45.003
0
VERTEX
8
CONTOURS_MINEURES
10
120.421
20
42.414
0
VERTEX
8
CONTOURS_MINEURES
10
120.421
20
41.996
0
VERTEX
8
CONTOURS_MINEURES
10
121.003
20
40.998
0
VERTEX
8
CONTOURS_MINEURES
10
122.063
20
39.001
0
VERTEX
8
CONTOURS_MINEURES
10
122.998
20
36.504
0
VERTEX
8
CONTOURS_MINEURES
10
123.074
20
36.081
0
VERTEX
8
CONTOURS_MINEURES
10
123.091
20
36.005
0
VERTEX
8
CONTOURS_MINEURES
10
123.091
20
35.913
0
VERTEX
8
CONTOURS_MINEURES
10
123.091
20
32.998
0
VERTEX
8
CONTOURS_MINEURES
10
123.138
20
32.859
0
VERTEX
8
CONTOURS_MINEURES
10
123.763
20
30.003
0
VERTEX
8
CONTOURS_MINEURES
10
123.874
20
29.126
0
VERTEX
8
CONTOURS_MINEURES
10
124.178
20
26.996
0
VERTEX
8
CONTOURS_MINEURES
10
124.178
20
25.819
0
VERTEX
8
CONTOURS_MINEURES
10
124.178
20
24.000
0
VERTEX
8
CONTOURS_MINEURES
10
122.998
20
21.466
0
VERTEX
8
CONTOURS_MINEURES
10
122.784
20
21.219
0
VERTEX
8
CONTOURS_MINEURES
10
122.738
20
21.005
0
VERTEX
8
CONTOURS_MINEURES
10
122.738
20
18.260
0
VERTEX
8
CONTOURS_MINEURES
10
122.738
20
17.998
0
VERTEX
8
CONTOURS_MINEURES
10
122.788
20
17.788
0
VERTEX
8
CONTOURS_MINEURES
10
122.304
20
15.002
0
VERTEX
8
CONTOURS_MINEURES
10
122.529
20
14.531
0
VERTEX
8
CONTOURS_MINEURES
10
122.930
20
11.996
0
VERTEX
8
CONTOURS_MINEURES
10
122.930
20
9.068
0
VERTEX
8
CONTOURS_MINEURES
10
122.930
20
9.000
0
VERTEX
8
CONTOURS_MINEURES
10
122.954
20
8.956
0
VERTEX
8
CONTOURS_MINEURES
10
122.998
20
8.572
0
VERTEX
8
CONTOURS_MINEURES
10
123.280
20
6.005
0
VERTEX
8
CONTOURS_MINEURES
10
122.998
20
3.750
0
VERTEX
8
CONTOURS_MINEURES
10
122.911
20
3.085
0
VERTEX
8
CONTOURS_MINEURES
10
122.925
20
2.998
0
VERTEX
8
CONTOURS_MINEURES
10
122.925
20
0.075
0
VERTEX
8
CONTOURS_MINEURES
10
122.925
20
0.002
0
SEQEND
0
POLYLINE
8
CONTOURS_MINEURES
66
1
70
0
0
VERTEX
8
CONTOURS_MINEURES
10
116.159
20
77.999
0
VERTEX
8
CONTOURS_MINEURES
10
116.159
20
77.159
0
VERTEX
8
CONTOURS_MINEURES
10
116.159
20
75.004
0
VERTEX
8
CONTOURS_MINEURES
10
116.357
20
72.641
0
VERTEX
8
CONTOURS_MINEURES
10
116.350
20
71.997
0
VERTEX
8
CONTOURS_MINEURES
10
117.001
20
69.750
0
VERTEX
8
CONTOURS_MINEURES
10
119.254
20
69.750
0
VERTEX
8
CONTOURS_MINEURES
10
120.005
20
69.750
0
VERTEX
8
CONTOURS_MINEURES
10
120.174
20
69.170
0
VERTEX
8
CONTOURS_MINEURES
10
120.216
20
69.001
0
VERTEX
8
CONTOURS_MINEURES
10
120.216
20
68.789
0
VERTEX
8
CONTOURS_MINEURES
10
120.216
20
65.995
0
VERTEX
8
CONTOURS_MINEURES
10
120.624
20
63.619
0
VERTEX
8
CONTOURS_MINEURES
10
120.976
20
62.999
0
VERTEX
8
CONTOURS_MINEURES
10
121.486
20
61.486
0
VERTEX
8
CONTOURS_MINEURES
10
122.014
20
60.003
0
VERTEX
8
CONTOURS_MINEURES
10
122.014
20
57.985
0
VERTEX
8
CONTOURS_MINEURES
10
122.014
20
56.997
0
VERTEX
8
CONTOURS_MINEURES
10
122.565
20
56.564
0
VERTEX
8
CONTOURS_MINEURES
10
122.998
20
56.051
0
VERTEX
8
CONTOURS_MINEURES
10
124.356
20
54.001
0
VERTEX
8
CONTOURS_MINEURES
10
124.356
20
52.360
0
VERTEX
8
CONTOURS_MINEURES
10
124.356
20
51.005
0
VERTEX
8
CONTOURS_MINEURES
10
126.002
20
48.924
0
VERTEX
8
CONTOURS_MINEURES
10
126.923
20
48.924
0
VERTEX
8
CONTOURS_MINEURES
10
128.995
20
48.924
0
SEQEND
0
POLYLINE
8
CONTOURS_MINEURES
66
1
70
0
0
VERTEX
8
CONTOURS_MINEURES
10
124.947
20
77.999
0
VERTEX
8
CONTOURS_MINEURES
10
124.947
20
76.056
0
VERTEX
8
CONTOURS_MINEURES
10
124.947
20
75.004
0
VERTEX
8
CONTOURS_MINEURES
10
125.042
20
74.042
0
VERTEX
8
CONTOURS_MINEURES
10
125.738
20
71.997
0
VERTEX
8
CONTOURS_MINEURES
10
126.002
20
70.908
0
VERTEX
8
CONTOURS_MINEURES
10
127.091
20
70.908
0
VERTEX
8
CONTOURS_MINEURES
10
128.995
20
70.908
0
SEQEND
0
POLYLINE
8
CONTOURS_MAJEURES
66
1
70
0
0
VERTEX
8
CONTOURS_MAJEURES
10
0.004
20
17.855
0
VERTEX
8
CONTOURS_MAJEURES
10
0.902
20
17.099
0
VERTEX
8
CONTOURS_MAJEURES
10
2.997
20
15.311
0
VERTEX
8
CONTOURS_MAJEURES
10
3.182
20
15.186
0
VERTEX
8
CONTOURS_MAJEURES
10
3.342
20
15.002
0
VERTEX
8
CONTOURS_MAJEURES
10
4.934
20
13.934
0
VERTEX
8
CONTOURS_MAJEURES
10
6.002
20
13.178
0
VERTEX
8
CONTOURS_MAJEURES
10
7.818
20
13.178
0
VERTEX
8
CONTOURS_MAJEURES
10
8.995
20
13.178
0
VERTEX
8
CONTOURS_MAJEURES
10
9.696
20
12.697
0
VERTEX
8
CONTOURS_MAJEURES
10
10.435
20
11.996
0
VERTEX
8
CONTOURS_MAJEURES
10
10.435
20
10.436
0
VERTEX
8
CONTOURS_MAJEURES
10
10.435
20
9.000
0
VERTEX
8
CONTOURS_MAJEURES
10
11.999
20
7.502
0
VERTEX
8
CONTOURS_MAJEURES
10
12.781
20
6.784
0
VERTEX
8
CONTOURS_MAJEURES
10
13.226
20
6.005
0
VERTEX
8
CONTOURS_MAJEURES
10
15.003
20
3.770
0
VERTEX
8
CONTOURS_MAJEURES
10
15.771
20
3.770
0
VERTEX
8
CONTOURS_MAJEURES
10
17.996
20
3.770
0
VERTEX
8
CONTOURS_MAJEURES
10
18.823
20
2.998
0
VERTEX
8
CONTOURS_MAJEURES
10
18.823
20
2.173
0
VERTEX
8
CONTOURS_MAJEURES
10
18.823
20
0.002
0
SEQEND
0
POLYLINE
8
CONTOURS_MAJEURES
66
1
70
0
0
VERTEX
8
CONTOURS_MAJEURES
10
78.687
20
77.999
0
VERTEX
8
CONTOURS_MAJEURES
10
78.687
20
75.689
0
VERTEX
8
CONTOURS_MAJEURES
10
78.687
20
75.004
0
VERTEX
8
CONTOURS_MAJEURES
10
78.671
20
74.332
0
VERTEX
8
CONTOURS_MAJEURES
10
79.077
20
71.997
0
VERTEX
8
CONTOURS_MAJEURES
10
79.290
20
70.708
0
VERTEX
8
CONTOURS_MAJEURES
10
79.514
20
69.001
0
VERTEX
8
CONTOURS_MAJEURES
10
79.514
20
67.513
0
VERTEX
8
CONTOURS_MAJEURES
10
79.514
20
65.995
0
VERTEX
8
CONTOURS_MAJEURES
10
79.742
20
64.253
0
VERTEX
8
CONTOURS_MAJEURES
10
79.456
20
62.999
0
VERTEX
8
CONTOURS_MAJEURES
10
78.002
20
60.785
0
VERTEX
8
CONTOURS_MAJEURES
10
77.218
20
60.785
0
VERTEX
8
CONTOURS_MAJEURES
10
74.998
20
60.785
0
VERTEX
8
CONTOURS_MAJEURES
10
73.759
20
60.003
0
VERTEX
8
CONTOURS_MAJEURES
10
73.759
20
58.241
0
VERTEX
8
CONTOURS_MAJEURES
10
73.759
20
56.997
0
VERTEX
8
CONTOURS_MAJEURES
10
73.065
20
55.936
0
VERTEX
8
CONTOURS_MAJEURES
10
72.005
20
54.572
0
VERTEX
8
CONTOURS_MAJEURES
10
71.743
20
54.001
0
VERTEX
8
CONTOURS_MAJEURES
10
71.743
20
53.741
0
VERTEX
8
CONTOURS_MAJEURES
10
71.743
20
51.005
0
VERTEX
8
CONTOURS_MAJEURES
10
71.804
20
48.199
0
VERTEX
8
CONTOURS_MAJEURES
10
71.838
20
47.999
0
VERTEX
8
CONTOURS_MAJEURES
10
71.512
20
45.494
0
VERTEX
8
CONTOURS_MAJEURES
10
71.427
20
45.003
0
VERTEX
8
CONTOURS_MAJEURES
10
71.427
20
44.425
0
VERTEX
8
CONTOURS_MAJEURES
10
71.427
20
41.996
0
VERTEX
8
CONTOURS_MAJEURES
10
71.575
20
41.568
0
VERTEX
8
CONTOURS_MAJEURES
10
72.005
20
39.999
0
VERTEX
8
CONTOURS_MAJEURES
10
72.432
20
39.001
0
VERTEX
8
CONTOURS_MAJEURES
10
72.753
20
38.252
0
VERTEX
8
CONTOURS_MAJEURES
10
74.182
20
36.005
0
VERTEX
8
CONTOURS_MAJEURES
10
74.182
20
33.818
0
VERTEX
8
CONTOURS_MAJEURES
10
74.182
20
32.998
0
VERTEX
8
CONTOURS_MAJEURES
10
74.611
20
32.611
0
VERTEX
8
CONTOURS_MAJEURES
10
74.998
20
32.117
0
VERTEX
8
CONTOURS_MAJEURES
10
75.881
20
32.117
0
VERTEX
8
CONTOURS_MAJEURES
10
78.002
20
32.117
0
VERTEX
8
CONTOURS_MAJEURES
10
80.115
20
30.003
0
VERTEX
8
CONTOURS_MAJEURES
10
80.630
20
29.636
0
VERTEX
8
CONTOURS_MAJEURES
10
80.995
20
29.376
0
VERTEX
8
CONTOURS_MAJEURES
10
83.646
20
27.350
0
VERTEX
8
CONTOURS_MAJEURES
10
83.999
20
27.103
0
VERTEX
8
CONTOURS_MAJEURES
10
84.107
20
27.103
0
VERTEX
8
CONTOURS_MAJEURES
10
87.003
20
27.103
0
VERTEX
8
CONTOURS_MAJEURES
10
87.088
20
26.996
0
VERTEX
8
CONTOURS_MAJEURES
10
87.088
20
24.085
0
VERTEX
8
CONTOURS_MAJEURES
10
87.088
20
24.000
0
VERTEX
8
CONTOURS_MAJEURES
10
89.997
20
21.417
0
VERTEX
8
CONTOURS_MAJEURES
10
90.261
20
21.268
0
VERTEX
8
CONTOURS_MAJEURES
10
90.483
20
21.005
0
VERTEX
8
CONTOURS_MAJEURES
10
90.483
20
20.518
0
VERTEX
8
CONTOURS_MAJEURES
10
90.483
20
17.998
0
VERTEX
8
CONTOURS_MAJEURES
10
93.001
20
16.402
0
VERTEX
8
CONTOURS_MAJEURES
10
94.601
20
16.402
0
VERTEX
8
CONTOURS_MAJEURES
10
96.005
20
16.402
0
VERTEX
8
CONTOURS_MAJEURES
10
98.055
20
15.002
0
VERTEX
8
CONTOURS_MAJEURES
10
98.526
20
14.529
0
VERTEX
8
CONTOURS_MAJEURES
10
98.998
20
14.169
0
VERTEX
8
CONTOURS_MAJEURES
10
101.729
20
11.996
0
VERTEX
8
CONTOURS_MAJEURES
10
101.729
20
9.272
0
VERTEX
8
CONTOURS_MAJEURES
10
101.729
20
9.000
0
VERTEX
8
CONTOURS_MAJEURES
10
101.856
20
8.854
0
VERTEX
8
CONTOURS_MAJEURES
10
102.002
20
8.648
0
VERTEX
8
CONTOURS_MAJEURES
10
102.354
20
8.648
0
VERTEX
8
CONTOURS_MAJEURES
10
104.995
20
8.648
0
VERTEX
8
CONTOURS_MAJEURES
10
106.122
20
7.128
0
VERTEX
8
CONTOURS_MAJEURES
10
106.586
20
6.005
0
VERTEX
8
CONTOURS_MAJEURES
10
106.972
20
4.977
0
VERTEX
8
CONTOURS_MAJEURES
10
107.198
20
2.998
0
VERTEX
8
CONTOURS_MAJEURES
10
107.198
20
0.801
0
VERTEX
8
CONTOURS_MAJEURES
10
107.198
20
0.002
0
SEQEND
0
POLYLINE
8
PARCELLE
66
1
70
1
0
VERTEX
8
PARCELLE
10
23.187
20
58.184
0
VERTEX
8
PARCELLE
10
109.297
20
50.083
0
VERTEX
8
PARCELLE
10
97.625
20
20.000
0
VERTEX
8
PARCELLE
10
72.988
20
29.556
0
VERTEX
8
PARCELLE
10
20.000
20
50.391
0
VERTEX
8
PARCELLE
10
23.187
20
58.184
0
SEQEND
0
TEXT
8
POINTS_COTES
10
0.004
20
0.002
40
1.0
1
165.7
0
TEXT
8
POINTS_COTES
10
45.000
20
2.998
40
1.0
1
173.6
0
TEXT
8
POINTS_COTES
10
89.997
20
6.005
40
1.0
1
177.6
0
TEXT
8
POINTS_COTES
10
2.997
20
11.996
40
1.0
1
169.0
0
TEXT
8
POINTS_COTES
10
48.004
20
15.002
40
1.0
1
174.9
0
TEXT
8
POINTS_COTES
10
93.001
20
17.998
40
1.0
1
180.6
0
TEXT
8
POINTS_COTES
10
6.002
20
24.000
40
1.0
1
171.8
0
TEXT
8
POINTS_COTES
10
50.998
20
26.996
40
1.0
1
176.0
0
TEXT
8
POINTS_COTES
10
96.005
20
30.003
40
1.0
1
181.4
0
TEXT
8
POINTS_COTES
10
8.995
20
36.005
40
1.0
1
173.8
0
TEXT
8
POINTS_COTES
10
54.002
20
39.001
40
1.0
1
177.6
0
TEXT
8
POINTS_COTES
10
98.998
20
41.996
40
1.0
1
182.1
0
TEXT
8
POINTS_COTES
10
11.999
20
47.999
40
1.0
1
173.8
0
TEXT
8
POINTS_COTES
10
56.995
20
51.005
40
1.0
1
177.8
0
TEXT
8
POINTS_COTES
10
102.002
20
54.001
40
1.0
1
182.6
0
TEXT
8
POINTS_COTES
10
15.003
20
60.003
40
1.0
1
172.8
0
TEXT
8
POINTS_COTES
10
59.999
20
62.999
40
1.0
1
178.3
0
TEXT
8
POINTS_COTES
10
104.995
20
65.995
40
1.0
1
182.4
0
TEXT
8
POINTS_COTES
10
17.996
20
71.997
40
1.0
1
173.7
0
TEXT
8
POINTS_COTES
10
63.003
20
75.004
40
1.0
1
178.8
0
TEXT
8
POINTS_COTES
10
107.999
20
77.999
40
1.0
1
183.7
0
ENDSEC
0
EOF
