0
SECTION
2
HEADER
0
ENDSEC
0
SECTION
2
TABLES
0
TABLE
2
LAYER
70
4
0
LAYER
2
CONTOURS_MINEURES
70
0
62
8
6
CONTINUOUS
0
LAYER
2
CONTOURS_MAJEURES
70
0
62
3
6
CONTINUOUS
0
LAYER
2
PARCELLE
70
0
62
4
6
CONTINUOUS
0
LAYER
2
POINTS_COTES
70
0
62
7
6
CONTINUOUS
0
ENDTAB
0
ENDSEC
0
SECTION
2
ENTITIES
0
POLYLINE
8
CONTOURS_MINEURES
66
1
70
0
0
VERTEX
8
CONTOURS_MINEURES
10
-0.003
20
1.388
0
VERTEX
8
CONTOURS_MINEURES
10
1.389
20
1.388
0
VERTEX
8
CONTOURS_MINEURES
10
3.002
20
1.388
0
VERTEX
8
CONTOURS_MINEURES
10
4.351
20
1.647
0
VERTEX
8
CONTOURS_MINEURES
10
5.996
20
1.963
0
VERTEX
8
CONTOURS_MINEURES
10
7.962
20
1.963
0
VERTEX
8
CONTOURS_MINEURES
10
9.001
20
1.963
0
VERTEX
8
CONTOURS_MINEURES
10
9.854
20
2.146
0
VERTEX
8
CONTOURS_MINEURES
10
11.995
20
2.548
0
VERTEX
8
CONTOURS_MINEURES
10
13.954
20
1.956
0
VERTEX
8
CONTOURS_MINEURES
10
15.000
20
1.620
0
VERTEX
8
CONTOURS_MINEURES
10
16.382
20
1.620
0
VERTEX
8
CONTOURS_MINEURES
10
18.005
20
1.620
0
VERTEX
8
CONTOURS_MINEURES
10
19.041
20
1.035
0
VERTEX
8
CONTOURS_MINEURES
10
21.000
20
0.038
0
VERTEX
8
CONTOURS_MINEURES
10
21.079
20
-0.004
0
SEQEND
0
POLYLINE
8
CONTOURS_MINEURES
66
1
70
0
0
VERTEX
8
CONTOURS_MINEURES
10
-0.003
20
5.779
0
VERTEX
8
CONTOURS_MINEURES
10
0.216
20
5.779
0
VERTEX
8
CONTOURS_MINEURES
10
3.002
20
5.779
0
VERTEX
8
CONTOURS_MINEURES
10
3.185
20
5.814
0
VERTEX
8
CONTOURS_MINEURES
10
4.153
20
5.998
0
VERTEX
8
CONTOURS_MINEURES
10
4.153
20
7.154
0
VERTEX
8
CONTOURS_MINEURES
10
4.153
20
9.005
0
VERTEX
8
CONTOURS_MINEURES
10
5.996
20
9.461
0
VERTEX
8
CONTOURS_MINEURES
10
8.543
20
9.461
0
VERTEX
8
CONTOURS_MINEURES
10
9.001
20
9.461
0
VERTEX
8
CONTOURS_MINEURES
10
10.878
20
10.123
0
VERTEX
8
CONTOURS_MINEURES
10
11.995
20
10.435
0
VERTEX
8
CONTOURS_MINEURES
10
13.125
20
10.131
0
VERTEX
8
CONTOURS_MINEURES
10
15.000
20
9.441
0
VERTEX
8
CONTOURS_MINEURES
10
17.568
20
9.441
0
VERTEX
8
CONTOURS_MINEURES
10
18.005
20
9.441
0
VERTEX
8
CONTOURS_MINEURES
10
18.260
20
9.260
0
VERTEX
8
CONTOURS_MINEURES
10
18.528
20
9.005
0
VERTEX
8
CONTOURS_MINEURES
10
18.528
20
6.522
0
VERTEX
8
CONTOURS_MINEURES
10
18.528
20
5.998
0
VERTEX
8
CONTOURS_MINEURES
10
21.000
20
4.374
0
VERTEX
8
CONTOURS_MINEURES
10
23.282
20
3.002
0
VERTEX
8
CONTOURS_MINEURES
10
24.005
20
2.608
0
VERTEX
8
CONTOURS_MINEURES
10
26.606
20
2.608
0
VERTEX
8
CONTOURS_MINEURES
10
26.999
20
2.608
0
VERTEX
8
CONTOURS_MINEURES
10
27.633
20
2.368
0
VERTEX
8
CONTOURS_MINEURES
10
30.004
20
1.322
0
VERTEX
8
CONTOURS_MINEURES
10
31.067
20
1.063
0
VERTEX
8
CONTOURS_MINEURES
10
32.998
20
0.786
0
VERTEX
8
CONTOURS_MINEURES
10
35.213
20
0.786
0
VERTEX
8
CONTOURS_MINEURES
10
36.003
20
0.786
0
VERTEX
8
CONTOURS_MINEURES
10
38.344
20
0.652
0
VERTEX
8
CONTOURS_MINEURES
10
38.997
20
0.578
0
VERTEX
8
CONTOURS_MINEURES
10
41.746
20
0.252
0
VERTEX
8
CONTOURS_MINEURES
10
42.002
20
0.215
0
VERTEX
8
CONTOURS_MINEURES
10
42.221
20
0.215
0
VERTEX
8
CONTOURS_MINEURES
10
44.997
20
0.215
0
VERTEX
8
CONTOURS_MINEURES
10
45.129
20
0.128
0
VERTEX
8
CONTOURS_MINEURES
10
45.272
20
-0.004
0
SEQEND
0
POLYLINE
8
CONTOURS_MINEURES
66
1
70
0
0
VERTEX
8
CONTOURS_MINEURES
10
-0.003
20
24.647
0
VERTEX
8
CONTOURS_MINEURES
10
2.358
20
24.647
0
VERTEX
8
CONTOURS_MINEURES
10
3.002
20
24.647
0
VERTEX
8
CONTOURS_MINEURES
10
4.349
20
24.005
0
VERTEX
8
CONTOURS_MINEURES
10
4.349
20
22.351
0
VERTEX
8
CONTOURS_MINEURES
10
4.349
20
20.998
0
VERTEX
8
CONTOURS_MINEURES
10
5.996
20
20.339
0
VERTEX
8
CONTOURS_MINEURES
10
8.340
20
20.339
0
VERTEX
8
CONTOURS_MINEURES
10
9.001
20
20.339
0
VERTEX
8
CONTOURS_MINEURES
10
10.359
20
19.361
0
VERTEX
8
CONTOURS_MINEURES
10
11.995
20
19.096
0
VERTEX
8
CONTOURS_MINEURES
10
14.700
20
18.003
0
VERTEX
8
CONTOURS_MINEURES
10
14.700
20
15.297
0
VERTEX
8
CONTOURS_MINEURES
10
14.700
20
14.996
0
VERTEX
8
CONTOURS_MINEURES
10
15.000
20
14.918
0
VERTEX
8
CONTOURS_MINEURES
10
17.927
20
14.918
0
VERTEX
8
CONTOURS_MINEURES
10
18.005
20
14.918
0
VERTEX
8
CONTOURS_MINEURES
10
20.088
20
14.084
0
VERTEX
8
CONTOURS_MINEURES
10
21.000
20
13.328
0
VERTEX
8
CONTOURS_MINEURES
10
22.195
20
12.000
0
VERTEX
8
CONTOURS_MINEURES
10
23.061
20
11.060
0
VERTEX
8
CONTOURS_MINEURES
10
24.005
20
10.250
0
VERTEX
8
CONTOURS_MINEURES
10
25.754
20
10.250
0
VERTEX
8
CONTOURS_MINEURES
10
26.999
20
10.250
0
VERTEX
8
CONTOURS_MINEURES
10
28.557
20
9.005
0
VERTEX
8
CONTOURS_MINEURES
10
28.557
20
7.557
0
VERTEX
8
CONTOURS_MINEURES
10
28.557
20
5.998
0
VERTEX
8
CONTOURS_MINEURES
10
29.471
20
5.467
0
VERTEX
8
CONTOURS_MINEURES
10
30.004
20
5.214
0
VERTEX
8
CONTOURS_MINEURES
10
31.065
20
4.936
0
VERTEX
8
CONTOURS_MINEURES
10
32.998
20
4.246
0
VERTEX
8
CONTOURS_MINEURES
10
34.246
20
4.246
0
VERTEX
8
CONTOURS_MINEURES
10
36.003
20
4.246
0
VERTEX
8
CONTOURS_MINEURES
10
37.066
20
4.066
0
VERTEX
8
CONTOURS_MINEURES
10
38.997
20
3.839
0
VERTEX
8
CONTOURS_MINEURES
10
41.565
20
3.439
0
VERTEX
8
CONTOURS_MINEURES
10
42.002
20
3.353
0
VERTEX
8
CONTOURS_MINEURES
10
42.353
20
3.353
0
VERTEX
8
CONTOURS_MINEURES
10
44.997
20
3.353
0
VERTEX
8
CONTOURS_MINEURES
10
45.517
20
3.002
0
VERTEX
8
CONTOURS_MINEURES
10
47.013
20
2.013
0
VERTEX
8
CONTOURS_MINEURES
10
48.002
20
1.100
0
VERTEX
8
CONTOURS_MINEURES
10
48.867
20
-0.004
0
SEQEND
0
POLYLINE
8
CONTOURS_MINEURES
66
1
70
0
0
VERTEX
8
CONTOURS_MINEURES
10
-0.003
20
42.711
0
VERTEX
8
CONTOURS_MINEURES
10
0.709
20
42.711
0
VERTEX
8
CONTOURS_MINEURES
10
3.002
20
42.711
0
VERTEX
8
CONTOURS_MINEURES
10
3.852
20
42.851
0
VERTEX
8
CONTOURS_MINEURES
10
5.996
20
43.276
0
VERTEX
8
CONTOURS_MINEURES
10
7.275
20
43.276
0
VERTEX
8
CONTOURS_MINEURES
10
9.001
20
43.276
0
VERTEX
8
CONTOURS_MINEURES
10
10.328
20
43.329
0
VERTEX
8
CONTOURS_MINEURES
10
11.995
20
42.999
0
VERTEX
8
CONTOURS_MINEURES
10
14.454
20
42.001
0
VERTEX
8
CONTOURS_MINEURES
10
14.454
20
41.456
0
VERTEX
8
CONTOURS_MINEURES
10
14.454
20
39.005
0
VERTEX
8
CONTOURS_MINEURES
10
15.000
20
38.423
0
VERTEX
8
CONTOURS_MINEURES
10
15.582
20
38.423
0
VERTEX
8
CONTOURS_MINEURES
10
18.005
20
38.423
0
VERTEX
8
CONTOURS_MINEURES
10
19.877
20
37.878
0
VERTEX
8
CONTOURS_MINEURES
10
21.000
20
37.502
0
VERTEX
8
CONTOURS_MINEURES
10
21.979
20
36.979
0
VERTEX
8
CONTOURS_MINEURES
10
24.005
20
37.103
0
VERTEX
8
CONTOURS_MINEURES
10
25.899
20
37.103
0
VERTEX
8
CONTOURS_MINEURES
10
26.999
20
37.103
0
VERTEX
8
CONTOURS_MINEURES
10
27.794
20
36.794
0
VERTEX
8
CONTOURS_MINEURES
10
30.004
20
36.761
0
VERTEX
8
CONTOURS_MINEURES
10
32.428
20
35.998
0
VERTEX
8
CONTOURS_MINEURES
10
32.537
20
35.538
0
VERTEX
8
CONTOURS_MINEURES
10
31.224
20
33.003
0
VERTEX
8
CONTOURS_MINEURES
10
31.224
20
31.778
0
VERTEX
8
CONTOURS_MINEURES
10
31.224
20
29.996
0
VERTEX
8
CONTOURS_MINEURES
10
30.004
20
28.113
0
VERTEX
8
CONTOURS_MINEURES
10
29.002
20
27.000
0
VERTEX
8
CONTOURS_MINEURES
10
28.735
20
25.270
0
VERTEX
8
CONTOURS_MINEURES
10
28.906
20
24.005
0
VERTEX
8
CONTOURS_MINEURES
10
28.906
20
22.097
0
VERTEX
8
CONTOURS_MINEURES
10
28.906
20
20.998
0
VERTEX
8
CONTOURS_MINEURES
10
28.943
20
19.060
0
VERTEX
8
CONTOURS_MINEURES
10
29.396
20
18.003
0
VERTEX
8
CONTOURS_MINEURES
10
29.396
20
17.394
0
VERTEX
8
CONTOURS_MINEURES
10
29.396
20
14.996
0
VERTEX
8
CONTOURS_MINEURES
10
29.664
20
14.657
0
VERTEX
8
CONTOURS_MINEURES
10
30.004
20
14.112
0
VERTEX
8
CONTOURS_MINEURES
10
31.451
20
12.000
0
VERTEX
8
CONTOURS_MINEURES
10
32.333
20
11.335
0
VERTEX
8
CONTOURS_MINEURES
10
32.998
20
11.056
0
VERTEX
8
CONTOURS_MINEURES
10
33.945
20
11.056
0
VERTEX
8
CONTOURS_MINEURES
10
36.003
20
11.056
0
VERTEX
8
CONTOURS_MINEURES
10
37.180
20
10.822
0
VERTEX
8
CONTOURS_MINEURES
10
38.997
20
10.220
0
VERTEX
8
CONTOURS_MINEURES
10
40.009
20
10.013
0
VERTEX
8
CONTOURS_MINEURES
10
42.002
20
9.590
0
VERTEX
8
CONTOURS_MINEURES
10
42.588
20
9.590
0
VERTEX
8
CONTOURS_MINEURES
10
44.997
20
9.590
0
VERTEX
8
CONTOURS_MINEURES
10
45.410
20
9.417
0
VERTEX
8
CONTOURS_MINEURES
10
45.893
20
9.005
0
VERTEX
8
CONTOURS_MINEURES
10
45.893
20
8.108
0
VERTEX
8
CONTOURS_MINEURES
10
45.893
20
5.998
0
VERTEX
8
CONTOURS_MINEURES
10
48.002
20
4.628
0
VERTEX
8
CONTOURS_MINEURES
10
48.760
20
3.761
0
VERTEX
8
CONTOURS_MINEURES
10
49.376
20
3.002
0
VERTEX
8
CONTOURS_MINEURES
10
50.996
20
0.924
0
VERTEX
8
CONTOURS_MINEURES
10
53.074
20
0.924
0
VERTEX
8
CONTOURS_MINEURES
10
54.001
20
0.924
0
VERTEX
8
CONTOURS_MINEURES
10
54.429
20
0.425
0
VERTEX
8
CONTOURS_MINEURES
10
54.777
20
-0.004
0
SEQEND
0
POLYLINE
8
CONTOURS_MINEURES
66
1
70
0
0
VERTEX
8
CONTOURS_MINEURES
10
-0.003
20
51.153
0
VERTEX
8
CONTOURS_MINEURES
10
0.151
20
51.153
0
VERTEX
8
CONTOURS_MINEURES
10
3.002
20
51.153
0
VERTEX
8
CONTOURS_MINEURES
10
3.124
20
51.121
0
VERTEX
8
CONTOURS_MINEURES
10
5.179
20
50.999
0
VERTEX
8
CONTOURS_MINEURES
10
5.179
20
50.182
0
VERTEX
8
CONTOURS_MINEURES
10
5.179
20
48.003
0
VERTEX
8
CONTOURS_MINEURES
10
5.996
20
47.941
0
VERTEX
8
CONTOURS_MINEURES
10
8.939
20
47.941
0
VERTEX
8
CONTOURS_MINEURES
10
9.001
20
47.941
0
VERTEX
8
CONTOURS_MINEURES
10
9.061
20
47.943
0
VERTEX
8
CONTOURS_MINEURES
10
11.247
20
48.003
0
VERTEX
8
CONTOURS_MINEURES
10
11.247
20
48.752
0
VERTEX
8
CONTOURS_MINEURES
10
11.247
20
50.999
0
VERTEX
8
CONTOURS_MINEURES
10
11.995
20
51.015
0
VERTEX
8
CONTOURS_MINEURES
10
12.013
20
51.016
0
VERTEX
8
CONTOURS_MINEURES
10
15.000
20
51.033
0
VERTEX
8
CONTOURS_MINEURES
10
15.035
20
51.033
0
VERTEX
8
CONTOURS_MINEURES
10
18.005
20
51.033
0
VERTEX
8
CONTOURS_MINEURES
10
20.789
20
51.210
0
VERTEX
8
CONTOURS_MINEURES
10
21.000
20
51.290
0
VERTEX
8
CONTOURS_MINEURES
10
21.542
20
51.542
0
VERTEX
8
CONTOURS_MINEURES
10
24.005
20
51.671
0
VERTEX
8
CONTOURS_MINEURES
10
26.329
20
51.671
0
VERTEX
8
CONTOURS_MINEURES
10
26.999
20
51.671
0
VERTEX
8
CONTOURS_MINEURES
10
27.981
20
51.982
0
VERTEX
8
CONTOURS_MINEURES
10
30.004
20
51.901
0
VERTEX
8
CONTOURS_MINEURES
10
32.143
20
53.146
0
VERTEX
8
CONTOURS_MINEURES
10
32.998
20
53.337
0
VERTEX
8
CONTOURS_MINEURES
10
35.335
20
53.337
0
VERTEX
8
CONTOURS_MINEURES
10
36.003
20
53.337
0
VERTEX
8
CONTOURS_MINEURES
10
36.284
20
53.724
0
VERTEX
8
CONTOURS_MINEURES
10
36.253
20
54.005
0
VERTEX
8
CONTOURS_MINEURES
10
36.253
20
54.255
0
VERTEX
8
CONTOURS_MINEURES
10
36.253
20
57.001
0
VERTEX
8
CONTOURS_MINEURES
10
36.330
20
57.328
0
VERTEX
8
CONTOURS_MINEURES
10
37.403
20
59.997
0
VERTEX
8
CONTOURS_MINEURES
10
38.302
20
60.695
0
VERTEX
8
CONTOURS_MINEURES
10
38.997
20
61.324
0
VERTEX
8
CONTOURS_MINEURES
10
41.942
20
62.943
0
VERTEX
8
CONTOURS_MINEURES
10
42.002
20
62.960
0
VERTEX
8
CONTOURS_MINEURES
10
42.046
20
62.960
0
VERTEX
8
CONTOURS_MINEURES
10
44.997
20
62.960
0
VERTEX
8
CONTOURS_MINEURES
10
46.581
20
61.582
0
VERTEX
8
CONTOURS_MINEURES
10
48.002
20
60.182
0
VERTEX
8
CONTOURS_MINEURES
10
48.133
20
59.997
0
VERTEX
8
CONTOURS_MINEURES
10
48.115
20
59.884
0
VERTEX
8
CONTOURS_MINEURES
10
48.002
20
57.001
0
VERTEX
8
CONTOURS_MINEURES
10
48.002
20
54.005
0
VERTEX
8
CONTOURS_MINEURES
10
46.604
20
50.999
0
VERTEX
8
CONTOURS_MINEURES
10
46.604
20
49.396
0
VERTEX
8
CONTOURS_MINEURES
10
46.604
20
48.003
0
VERTEX
8
CONTOURS_MINEURES
10
46.031
20
46.031
0
VERTEX
8
CONTOURS_MINEURES
10
45.523
20
44.996
0
VERTEX
8
CONTOURS_MINEURES
10
44.997
20
44.029
0
VERTEX
8
CONTOURS_MINEURES
10
44.029
20
44.029
0
VERTEX
8
CONTOURS_MINEURES
10
42.002
20
44.029
0
VERTEX
8
CONTOURS_MINEURES
10
40.800
20
43.199
0
VERTEX
8
CONTOURS_MINEURES
10
40.910
20
42.001
0
VERTEX
8
CONTOURS_MINEURES
10
40.910
20
40.911
0
VERTEX
8
CONTOURS_MINEURES
10
40.910
20
39.005
0
VERTEX
8
CONTOURS_MINEURES
10
40.327
20
37.675
0
VERTEX
8
CONTOURS_MINEURES
10
40.192
20
35.998
0
VERTEX
8
CONTOURS_MINEURES
10
40.246
20
34.754
0
VERTEX
8
CONTOURS_MINEURES
10
39.325
20
33.003
0
VERTEX
8
CONTOURS_MINEURES
10
39.325
20
32.675
0
VERTEX
8
CONTOURS_MINEURES
10
39.325
20
29.996
0
VERTEX
8
CONTOURS_MINEURES
10
39.671
20
27.672
0
VERTEX
8
CONTOURS_MINEURES
10
40.696
20
27.000
0
VERTEX
8
CONTOURS_MINEURES
10
41.312
20
26.312
0
VERTEX
8
CONTOURS_MINEURES
10
42.002
20
25.826
0
VERTEX
8
CONTOURS_MINEURES
10
43.177
20
25.826
0
VERTEX
8
CONTOURS_MINEURES
10
44.997
20
25.826
0
VERTEX
8
CONTOURS_MINEURES
10
45.844
20
24.849
0
VERTEX
8
CONTOURS_MINEURES
10
46.660
20
24.005
0
VERTEX
8
CONTOURS_MINEURES
10
46.660
20
22.340
0
VERTEX
8
CONTOURS_MINEURES
10
46.660
20
20.998
0
VERTEX
8
CONTOURS_MINEURES
10
46.499
20
19.500
0
VERTEX
8
CONTOURS_MINEURES
10
47.027
20
18.003
0
VERTEX
8
CONTOURS_MINEURES
10
47.027
20
15.971
0
VERTEX
8
CONTOURS_MINEURES
10
47.027
20
14.996
0
VERTEX
8
CONTOURS_MINEURES
10
46.974
20
13.025
0
VERTEX
8
CONTOURS_MINEURES
10
47.467
20
12.000
0
VERTEX
8
CONTOURS_MINEURES
10
47.844
20
11.843
0
VERTEX
8
CONTOURS_MINEURES
10
48.002
20
11.707
0
VERTEX
8
CONTOURS_MINEURES
10
49.798
20
9.005
0
VERTEX
8
CONTOURS_MINEURES
10
49.798
20
7.201
0
VERTEX
8
CONTOURS_MINEURES
10
49.798
20
5.998
0
VERTEX
8
CONTOURS_MINEURES
10
50.357
20
5.359
0
VERTEX
8
CONTOURS_MINEURES
10
50.996
20
4.571
0
VERTEX
8
CONTOURS_MINEURES
10
52.427
20
4.571
0
VERTEX
8
CONTOURS_MINEURES
10
54.001
20
4.571
0
VERTEX
8
CONTOURS_MINEURES
10
55.403
20
3.002
0
VERTEX
8
CONTOURS_MINEURES
10
56.140
20
2.143
0
VERTEX
8
CONTOURS_MINEURES
10
56.995
20
1.087
0
VERTEX
8
CONTOURS_MINEURES
10
58.059
20
-0.004
0
SEQEND
0
POLYLINE
8
CONTOURS_MINEURES
66
1
70
0
0
VERTEX
8
CONTOURS_MINEURES
10
71.082
20
87.002
0
VERTEX
8
CONTOURS_MINEURES
10
71.999
20
86.224
0
VERTEX
8
CONTOURS_MINEURES
10
72.487
20
84.483
0
VERTEX
8
CONTOURS_MINEURES
10
72.554
20
83.995
0
VERTEX
8
CONTOURS_MINEURES
10
72.589
20
83.407
0
VERTEX
8
CONTOURS_MINEURES
10
72.684
20
80.999
0
VERTEX
8
CONTOURS_MINEURES
10
72.684
20
78.687
0
VERTEX
8
CONTOURS_MINEURES
10
72.684
20
78.004
0
VERTEX
8
CONTOURS_MINEURES
10
71.999
20
75.862
0
VERTEX
8
CONTOURS_MINEURES
10
71.427
20
75.571
0
VERTEX
8
CONTOURS_MINEURES
10
69.005
20
75.095
0
VERTEX
8
CONTOURS_MINEURES
10
66.098
20
75.095
0
VERTEX
8
CONTOURS_MINEURES
10
66.000
20
75.095
0
VERTEX
8
CONTOURS_MINEURES
10
64.398
20
76.401
0
VERTEX
8
CONTOURS_MINEURES
10
63.124
20
78.004
0
VERTEX
8
CONTOURS_MINEURES
10
63.124
20
80.870
0
VERTEX
8
CONTOURS_MINEURES
10
63.124
20
80.999
0
VERTEX
8
CONTOURS_MINEURES
10
62.995
20
81.221
0
VERTEX
8
CONTOURS_MINEURES
10
60.222
20
81.221
0
VERTEX
8
CONTOURS_MINEURES
10
60.000
20
81.221
0
VERTEX
8
CONTOURS_MINEURES
10
58.385
20
83.995
0
VERTEX
8
CONTOURS_MINEURES
10
59.480
20
86.481
0
VERTEX
8
CONTOURS_MINEURES
10
59.719
20
87.002
0
SEQEND
0
POLYLINE
8
CONTOURS_MINEURES
66
1
70
0
0
VERTEX
8
CONTOURS_MINEURES
10
-0.003
20
57.939
0
VERTEX
8
CONTOURS_MINEURES
10
0.938
20
57.939
0
VERTEX
8
CONTOURS_MINEURES
10
3.002
20
57.939
0
VERTEX
8
CONTOURS_MINEURES
10
3.886
20
57.886
0
VERTEX
8
CONTOURS_MINEURES
10
5.996
20
57.265
0
VERTEX
8
CONTOURS_MINEURES
10
8.736
20
57.265
0
VERTEX
8
CONTOURS_MINEURES
10
9.001
20
57.265
0
VERTEX
8
CONTOURS_MINEURES
10
11.731
20
57.265
0
VERTEX
8
CONTOURS_MINEURES
10
11.995
20
57.256
0
VERTEX
8
CONTOURS_MINEURES
10
12.270
20
57.275
0
VERTEX
8
CONTOURS_MINEURES
10
15.000
20
57.572
0
VERTEX
8
CONTOURS_MINEURES
10
17.433
20
57.572
0
VERTEX
8
CONTOURS_MINEURES
10
18.005
20
57.572
0
VERTEX
8
CONTOURS_MINEURES
10
18.754
20
57.750
0
VERTEX
8
CONTOURS_MINEURES
10
21.000
20
58.453
0
VERTEX
8
CONTOURS_MINEURES
10
22.121
20
58.878
0
VERTEX
8
CONTOURS_MINEURES
10
24.005
20
59.658
0
VERTEX
8
CONTOURS_MINEURES
10
26.660
20
59.658
0
VERTEX
8
CONTOURS_MINEURES
10
26.999
20
59.658
0
VERTEX
8
CONTOURS_MINEURES
10
27.294
20
59.702
0
VERTEX
8
CONTOURS_MINEURES
10
27.635
20
59.997
0
VERTEX
8
CONTOURS_MINEURES
10
30.004
20
61.675
0
VERTEX
8
CONTOURS_MINEURES
10
31.748
20
63.003
0
VERTEX
8
CONTOURS_MINEURES
10
31.748
20
64.254
0
VERTEX
8
CONTOURS_MINEURES
10
31.748
20
65.999
0
VERTEX
8
CONTOURS_MINEURES
10
32.998
20
66.881
0
VERTEX
8
CONTOURS_MINEURES
10
33.883
20
66.881
0
VERTEX
8
CONTOURS_MINEURES
10
36.003
20
66.881
0
VERTEX
8
CONTOURS_MINEURES
10
38.274
20
68.995
0
VERTEX
8
CONTOURS_MINEURES
10
38.640
20
69.353
0
VERTEX
8
CONTOURS_MINEURES
10
38.997
20
69.746
0
VERTEX
8
CONTOURS_MINEURES
10
40.381
20
70.617
0
VERTEX
8
CONTOURS_MINEURES
10
41.586
20
72.001
0
VERTEX
8
CONTOURS_MINEURES
10
41.586
20
72.417
0
VERTEX
8
CONTOURS_MINEURES
10
41.586
20
74.997
0
VERTEX
8
CONTOURS_MINEURES
10
42.002
20
75.296
0
VERTEX
8
CONTOURS_MINEURES
10
44.699
20
75.296
0
VERTEX
8
CONTOURS_MINEURES
10
44.997
20
75.296
0
VERTEX
8
CONTOURS_MINEURES
10
47.593
20
75.406
0
VERTEX
8
CONTOURS_MINEURES
10
48.002
20
75.581
0
VERTEX
8
CONTOURS_MINEURES
10
49.034
20
76.034
0
VERTEX
8
CONTOURS_MINEURES
10
49.462
20
74.997
0
VERTEX
8
CONTOURS_MINEURES
10
49.462
20
73.536
0
VERTEX
8
CONTOURS_MINEURES
10
49.462
20
72.001
0
VERTEX
8
CONTOURS_MINEURES
10
50.334
20
71.337
0
VERTEX
8
CONTOURS_MINEURES
10
50.464
20
68.995
0
VERTEX
8
CONTOURS_MINEURES
10
50.996
20
68.196
0
VERTEX
8
CONTOURS_MINEURES
10
53.200
20
68.196
0
VERTEX
8
CONTOURS_MINEURES
10
54.001
20
68.196
0
VERTEX
8
CONTOURS_MINEURES
10
55.047
20
65.999
0
VERTEX
8
CONTOURS_MINEURES
10
55.047
20
64.953
0
VERTEX
8
CONTOURS_MINEURES
10
55.047
20
63.003
0
VERTEX
8
CONTOURS_MINEURES
10
56.060
20
60.936
0
VERTEX
8
CONTOURS_MINEURES
10
56.545
20
59.997
0
VERTEX
8
CONTOURS_MINEURES
10
56.488
20
59.489
0
VERTEX
8
CONTOURS_MINEURES
10
55.506
20
57.001
0
VERTEX
8
CONTOURS_MINEURES
10
55.506
20
55.496
0
VERTEX
8
CONTOURS_MINEURES
10
55.506
20
54.005
0
VERTEX
8
CONTOURS_MINEURES
10
54.825
20
53.178
0
VERTEX
8
CONTOURS_MINEURES
10
54.001
20
51.721
0
VERTEX
8
CONTOURS_MINEURES
10
51.718
20
51.721
0
VERTEX
8
CONTOURS_MINEURES
10
50.996
20
51.721
0
VERTEX
8
CONTOURS_MINEURES
10
50.594
20
51.402
0
VERTEX
8
CONTOURS_MINEURES
10
50.510
20
50.999
0
VERTEX
8
CONTOURS_MINEURES
10
50.510
20
50.513
0
VERTEX
8
CONTOURS_MINEURES
10
50.510
20
48.003
0
VERTEX
8
CONTOURS_MINEURES
10
49.911
20
46.086
0
VERTEX
8
CONTOURS_MINEURES
10
49.577
20
44.996
0
VERTEX
8
CONTOURS_MINEURES
10
49.022
20
43.021
0
VERTEX
8
CONTOURS_MINEURES
10
49.395
20
42.001
0
VERTEX
8
CONTOURS_MINEURES
10
49.395
20
40.399
0
VERTEX
8
CONTOURS_MINEURES
10
49.395
20
39.005
0
VERTEX
8
CONTOURS_MINEURES
10
49.276
20
37.278
0
VERTEX
8
CONTOURS_MINEURES
10
50.996
20
36.106
0
VERTEX
8
CONTOURS_MINEURES
10
51.103
20
36.106
0
VERTEX
8
CONTOURS_MINEURES
10
54.001
20
36.106
0
VERTEX
8
CONTOURS_MINEURES
10
54.116
20
35.998
0
VERTEX
8
CONTOURS_MINEURES
10
54.999
20
34.001
0
VERTEX
8
CONTOURS_MINEURES
10
55.102
20
33.003
0
VERTEX
8
CONTOURS_MINEURES
10
55.102
20
31.102
0
VERTEX
8
CONTOURS_MINEURES
10
55.102
20
29.996
0
VERTEX
8
CONTOURS_MINEURES
10
55.873
20
28.124
0
VERTEX
8
CONTOURS_MINEURES
10
56.354
20
27.000
0
VERTEX
8
CONTOURS_MINEURES
10
56.612
20
26.616
0
VERTEX
8
CONTOURS_MINEURES
10
56.995
20
24.357
0
VERTEX
8
CONTOURS_MINEURES
10
57.042
20
24.051
0
VERTEX
8
CONTOURS_MINEURES
10
57.024
20
24.005
0
VERTEX
8
CONTOURS_MINEURES
10
57.024
20
21.026
0
VERTEX
8
CONTOURS_MINEURES
10
57.024
20
20.998
0
VERTEX
8
CONTOURS_MINEURES
10
57.013
20
20.980
0
VERTEX
8
CONTOURS_MINEURES
10
56.995
20
20.945
0
VERTEX
8
CONTOURS_MINEURES
10
55.196
20
18.003
0
VERTEX
8
CONTOURS_MINEURES
10
55.196
20
16.803
0
VERTEX
8
CONTOURS_MINEURES
10
55.196
20
14.996
0
VERTEX
8
CONTOURS_MINEURES
10
54.131
20
12.130
0
VERTEX
8
CONTOURS_MINEURES
10
54.080
20
12.000
0
VERTEX
8
CONTOURS_MINEURES
10
54.235
20
11.766
0
VERTEX
8
CONTOURS_MINEURES
10
56.008
20
9.005
0
VERTEX
8
CONTOURS_MINEURES
10
56.008
20
6.989
0
VERTEX
8
CONTOURS_MINEURES
10
56.008
20
5.998
0
VERTEX
8
CONTOURS_MINEURES
10
56.995
20
4.886
0
VERTEX
8
CONTOURS_MINEURES
10
57.943
20
3.947
0
VERTEX
8
CONTOURS_MINEURES
10
58.874
20
3.002
0
VERTEX
8
CONTOURS_MINEURES
10
60.000
20
1.846
0
VERTEX
8
CONTOURS_MINEURES
10
61.843
20
1.846
0
VERTEX
8
CONTOURS_MINEURES
10
62.995
20
1.846
0
VERTEX
8
CONTOURS_MINEURES
10
65.460
20
-0.004
0
SEQEND
0
POLYLINE
8
CONTOURS_MINEURES
66
1
70
0
0
VERTEX
8
CONTOURS_MINEURES
10
71.625
20
-0.004
0
VERTEX
8
CONTOURS_MINEURES
10
71.957
20
0.038
0
VERTEX
8
CONTOURS_MINEURES
10
71.999
20
0.032
0
VERTEX
8
CONTOURS_MINEURES
10
72.033
20
0.030
0
VERTEX
8
CONTOURS_MINEURES
10
72.119
20
-0.004
0
SEQEND
0
POLYLINE
8
CONTOURS_MINEURES
66
1
70
0
0
VERTEX
8
CONTOURS_MINEURES
10
74.685
20
87.002
0
VERTEX
8
CONTOURS_MINEURES
10
74.755
20
86.752
0
VERTEX
8
CONTOURS_MINEURES
10
75.004
20
84.935
0
VERTEX
8
CONTOURS_MINEURES
10
77.063
20
84.935
0
VERTEX
8
CONTOURS_MINEURES
10
77.998
20
84.935
0
VERTEX
8
CONTOURS_MINEURES
10
78.108
20
84.104
0
VERTEX
8
CONTOURS_MINEURES
10
78.123
20
83.995
0
VERTEX
8
CONTOURS_MINEURES
10
78.152
20
83.842
0
VERTEX
8
CONTOURS_MINEURES
10
78.342
20
80.999
0
VERTEX
8
CONTOURS_MINEURES
10
78.342
20
80.657
0
VERTEX
8
CONTOURS_MINEURES
10
78.342
20
78.004
0
VERTEX
8
CONTOURS_MINEURES
10
78.416
20
75.415
0
VERTEX
8
CONTOURS_MINEURES
10
78.548
20
74.997
0
VERTEX
8
CONTOURS_MINEURES
10
78.548
20
74.449
0
VERTEX
8
CONTOURS_MINEURES
10
78.548
20
72.001
0
VERTEX
8
CONTOURS_MINEURES
10
78.410
20
71.589
0
VERTEX
8
CONTOURS_MINEURES
10
77.998
20
70.799
0
VERTEX
8
CONTOURS_MINEURES
10
76.801
20
70.799
0
VERTEX
8
CONTOURS_MINEURES
10
75.004
20
70.799
0
VERTEX
8
CONTOURS_MINEURES
10
74.400
20
69.599
0
VERTEX
8
CONTOURS_MINEURES
10
73.838
20
68.995
0
VERTEX
8
CONTOURS_MINEURES
10
71.999
20
67.129
0
VERTEX
8
CONTOURS_MINEURES
10
71.105
20
66.894
0
VERTEX
8
CONTOURS_MINEURES
10
69.523
20
65.999
0
VERTEX
8
CONTOURS_MINEURES
10
69.523
20
63.522
0
VERTEX
8
CONTOURS_MINEURES
10
69.523
20
63.003
0
VERTEX
8
CONTOURS_MINEURES
10
69.005
20
62.628
0
VERTEX
8
CONTOURS_MINEURES
10
66.375
20
62.628
0
VERTEX
8
CONTOURS_MINEURES
10
66.000
20
62.628
0
VERTEX
8
CONTOURS_MINEURES
10
64.048
20
59.997
0
VERTEX
8
CONTOURS_MINEURES
10
63.618
20
59.376
0
VERTEX
8
CONTOURS_MINEURES
10
62.995
20
58.839
0
VERTEX
8
CONTOURS_MINEURES
10
61.838
20
58.839
0
VERTEX
8
CONTOURS_MINEURES
10
60.000
20
58.839
0
VERTEX
8
CONTOURS_MINEURES
10
58.967
20
57.001
0
VERTEX
8
CONTOURS_MINEURES
10
58.967
20
55.971
0
VERTEX
8
CONTOURS_MINEURES
10
58.967
20
54.005
0
VERTEX
8
CONTOURS_MINEURES
10
56.995
20
52.082
0
VERTEX
8
CONTOURS_MINEURES
10
56.508
20
51.489
0
VERTEX
8
CONTOURS_MINEURES
10
56.230
20
50.999
0
VERTEX
8
CONTOURS_MINEURES
10
56.230
20
50.233
0
VERTEX
8
CONTOURS_MINEURES
10
56.230
20
48.003
0
VERTEX
8
CONTOURS_MINEURES
10
56.583
20
45.411
0
VERTEX
8
CONTOURS_MINEURES
10
56.401
20
44.996
0
VERTEX
8
CONTOURS_MINEURES
10
56.995
20
44.299
0
VERTEX
8
CONTOURS_MINEURES
10
59.893
20
42.108
0
VERTEX
8
CONTOURS_MINEURES
10
60.000
20
42.034
0
VERTEX
8
CONTOURS_MINEURES
10
62.961
20
42.034
0
VERTEX
8
CONTOURS_MINEURES
10
62.995
20
42.034
0
VERTEX
8
CONTOURS_MINEURES
10
63.012
20
42.018
0
VERTEX
8
CONTOURS_MINEURES
10
63.021
20
42.001
0
VERTEX
8
CONTOURS_MINEURES
10
63.021
20
41.975
0
VERTEX
8
CONTOURS_MINEURES
10
63.021
20
39.005
0
VERTEX
8
CONTOURS_MINEURES
10
63.936
20
36.940
0
VERTEX
8
CONTOURS_MINEURES
10
64.135
20
35.998
0
VERTEX
8
CONTOURS_MINEURES
10
64.319
20
34.678
0
VERTEX
8
CONTOURS_MINEURES
10
64.438
20
33.003
0
VERTEX
8
CONTOURS_MINEURES
10
64.438
20
31.440
0
VERTEX
8
CONTOURS_MINEURES
10
64.438
20
29.996
0
VERTEX
8
CONTOURS_MINEURES
10
64.563
20
28.563
0
VERTEX
8
CONTOURS_MINEURES
10
64.158
20
27.000
0
VERTEX
8
CONTOURS_MINEURES
10
62.995
20
24.402
0
VERTEX
8
CONTOURS_MINEURES
10
62.598
20
24.402
0
VERTEX
8
CONTOURS_MINEURES
10
60.000
20
24.402
0
VERTEX
8
CONTOURS_MINEURES
10
59.845
20
24.005
0
VERTEX
8
CONTOURS_MINEURES
10
59.845
20
23.850
0
VERTEX
8
CONTOURS_MINEURES
10
59.845
20
20.998
0
VERTEX
8
CONTOURS_MINEURES
10
58.818
20
19.181
0
VERTEX
8
CONTOURS_MINEURES
10
58.219
20
18.003
0
VERTEX
8
CONTOURS_MINEURES
10
58.219
20
16.220
0
VERTEX
8
CONTOURS_MINEURES
10
58.219
20
14.996
0
VERTEX
8
CONTOURS_MINEURES
10
58.219
20
13.776
0
VERTEX
8
CONTOURS_MINEURES
10
57.304
20
12.000
0
VERTEX
8
CONTOURS_MINEURES
10
58.404
20
10.596
0
VERTEX
8
CONTOURS_MINEURES
10
59.677
20
9.005
0
VERTEX
8
CONTOURS_MINEURES
10
59.677
20
6.321
0
VERTEX
8
CONTOURS_MINEURES
10
59.677
20
5.998
0
VERTEX
8
CONTOURS_MINEURES
10
59.839
20
5.837
0
VERTEX
8
CONTOURS_MINEURES
10
60.000
20
5.674
0
VERTEX
8
CONTOURS_MINEURES
10
60.325
20
5.674
0
VERTEX
8
CONTOURS_MINEURES
10
62.995
20
5.674
0
VERTEX
8
CONTOURS_MINEURES
10
65.818
20
3.002
0
VERTEX
8
CONTOURS_MINEURES
10
66.000
20
2.858
0
VERTEX
8
CONTOURS_MINEURES
10
68.861
20
2.858
0
VERTEX
8
CONTOURS_MINEURES
10
69.005
20
2.858
0
VERTEX
8
CONTOURS_MINEURES
10
69.132
20
2.875
0
VERTEX
8
CONTOURS_MINEURES
10
71.999
20
2.467
0
VERTEX
8
CONTOURS_MINEURES
10
74.301
20
2.299
0
VERTEX
8
CONTOURS_MINEURES
10
75.004
20
2.021
0
VERTEX
8
CONTOURS_MINEURES
10
75.981
20
2.021
0
VERTEX
8
CONTOURS_MINEURES
10
77.998
20
2.021
0
VERTEX
8
CONTOURS_MINEURES
10
80.766
20
-0.004
0
SEQEND
0
POLYLINE
8
CONTOURS_MINEURES
66
1
70
0
0
VERTEX
8
CONTOURS_MINEURES
10
-0.003
20
61.818
0
VERTEX
8
CONTOURS_MINEURES
10
1.182
20
61.818
0
VERTEX
8
CONTOURS_MINEURES
10
3.002
20
61.818
0
VERTEX
8
CONTOURS_MINEURES
10
4.272
20
61.728
0
VERTEX
8
CONTOURS_MINEURES
10
5.996
20
61.768
0
VERTEX
8
CONTOURS_MINEURES
10
7.766
20
61.768
0
VERTEX
8
CONTOURS_MINEURES
10
9.001
20
61.768
0
VERTEX
8
CONTOURS_MINEURES
10
10.807
20
61.810
0
VERTEX
8
CONTOURS_MINEURES
10
11.995
20
61.761
0
VERTEX
8
CONTOURS_MINEURES
10
13.142
20
61.856
0
VERTEX
8
CONTOURS_MINEURES
10
15.000
20
62.061
0
VERTEX
8
CONTOURS_MINEURES
10
15.942
20
62.061
0
VERTEX
8
CONTOURS_MINEURES
10
18.005
20
62.061
0
VERTEX
8
CONTOURS_MINEURES
10
20.670
20
62.673
0
VERTEX
8
CONTOURS_MINEURES
10
21.000
20
62.765
0
VERTEX
8
CONTOURS_MINEURES
10
21.156
20
62.847
0
VERTEX
8
CONTOURS_MINEURES
10
21.441
20
63.003
0
VERTEX
8
CONTOURS_MINEURES
10
21.441
20
65.558
0
VERTEX
8
CONTOURS_MINEURES
10
21.441
20
65.999
0
VERTEX
8
CONTOURS_MINEURES
10
24.005
20
67.550
0
VERTEX
8
CONTOURS_MINEURES
10
25.448
20
67.550
0
VERTEX
8
CONTOURS_MINEURES
10
26.999
20
67.550
0
VERTEX
8
CONTOURS_MINEURES
10
27.806
20
68.190
0
VERTEX
8
CONTOURS_MINEURES
10
29.253
20
68.995
0
VERTEX
8
CONTOURS_MINEURES
10
29.744
20
69.255
0
VERTEX
8
CONTOURS_MINEURES
10
30.004
20
69.390
0
VERTEX
8
CONTOURS_MINEURES
10
31.688
20
70.686
0
VERTEX
8
CONTOURS_MINEURES
10
32.998
20
71.659
0
VERTEX
8
CONTOURS_MINEURES
10
35.661
20
71.659
0
VERTEX
8
CONTOURS_MINEURES
10
36.003
20
71.659
0
VERTEX
8
CONTOURS_MINEURES
10
36.176
20
71.828
0
VERTEX
8
CONTOURS_MINEURES
10
36.333
20
72.001
0
VERTEX
8
CONTOURS_MINEURES
10
36.333
20
72.332
0
VERTEX
8
CONTOURS_MINEURES
10
36.333
20
74.997
0
VERTEX
8
CONTOURS_MINEURES
10
38.997
20
77.324
0
VERTEX
8
CONTOURS_MINEURES
10
39.933
20
78.004
0
VERTEX
8
CONTOURS_MINEURES
10
39.933
20
80.067
0
VERTEX
8
CONTOURS_MINEURES
10
39.933
20
80.999
0
VERTEX
8
CONTOURS_MINEURES
10
42.002
20
82.104
0
VERTEX
8
CONTOURS_MINEURES
10
43.106
20
82.104
0
VERTEX
8
CONTOURS_MINEURES
10
44.997
20
82.104
0
VERTEX
8
CONTOURS_MINEURES
10
46.549
20
82.448
0
VERTEX
8
CONTOURS_MINEURES
10
48.002
20
82.864
0
VERTEX
8
CONTOURS_MINEURES
10
50.046
20
83.995
0
VERTEX
8
CONTOURS_MINEURES
10
50.619
20
84.374
0
VERTEX
8
CONTOURS_MINEURES
10
50.996
20
85.110
0
VERTEX
8
CONTOURS_MINEURES
10
52.110
20
85.110
0
VERTEX
8
CONTOURS_MINEURES
10
54.001
20
85.110
0
VERTEX
8
CONTOURS_MINEURES
10
54.788
20
86.211
0
VERTEX
8
CONTOURS_MINEURES
10
54.993
20
87.002
0
SEQEND
0
POLYLINE
8
CONTOURS_MINEURES
66
1
70
0
0
VERTEX
8
CONTOURS_MINEURES
10
80.200
20
87.002
0
VERTEX
8
CONTOURS_MINEURES
10
80.293
20
86.291
0
VERTEX
8
CONTOURS_MINEURES
10
80.606
20
83.995
0
VERTEX
8
CONTOURS_MINEURES
10
81.003
20
81.911
0
VERTEX
8
CONTOURS_MINEURES
10
81.283
20
80.999
0
VERTEX
8
CONTOURS_MINEURES
10
81.283
20
78.283
0
VERTEX
8
CONTOURS_MINEURES
10
81.283
20
78.004
0
VERTEX
8
CONTOURS_MINEURES
10
81.440
20
77.565
0
VERTEX
8
CONTOURS_MINEURES
10
82.339
20
74.997
0
VERTEX
8
CONTOURS_MINEURES
10
82.339
20
73.337
0
VERTEX
8
CONTOURS_MINEURES
10
82.339
20
72.001
0
VERTEX
8
CONTOURS_MINEURES
10
81.358
20
69.350
0
VERTEX
8
CONTOURS_MINEURES
10
81.255
20
68.995
0
VERTEX
8
CONTOURS_MINEURES
10
81.147
20
68.851
0
VERTEX
8
CONTOURS_MINEURES
10
81.003
20
68.743
0
VERTEX
8
CONTOURS_MINEURES
10
78.352
20
65.999
0
VERTEX
8
CONTOURS_MINEURES
10
78.352
20
63.356
0
VERTEX
8
CONTOURS_MINEURES
10
78.352
20
63.003
0
VERTEX
8
CONTOURS_MINEURES
10
78.239
20
62.763
0
VERTEX
8
CONTOURS_MINEURES
10
77.998
20
62.507
0
VERTEX
8
CONTOURS_MINEURES
10
75.498
20
62.507
0
VERTEX
8
CONTOURS_MINEURES
10
75.004
20
62.507
0
VERTEX
8
CONTOURS_MINEURES
10
73.009
20
59.997
0
VERTEX
8
CONTOURS_MINEURES
10
71.999
20
57.842
0
VERTEX
8
CONTOURS_MINEURES
10
71.686
20
57.314
0
VERTEX
8
CONTOURS_MINEURES
10
71.442
20
57.001
0
VERTEX
8
CONTOURS_MINEURES
10
71.442
20
54.563
0
VERTEX
8
CONTOURS_MINEURES
10
71.442
20
54.005
0
VERTEX
8
CONTOURS_MINEURES
10
70.876
20
52.126
0
VERTEX
8
CONTOURS_MINEURES
10
70.122
20
50.999
0
VERTEX
8
CONTOURS_MINEURES
10
70.122
20
49.121
0
VERTEX
8
CONTOURS_MINEURES
10
70.122
20
48.003
0
VERTEX
8
CONTOURS_MINEURES
10
69.990
20
47.014
0
VERTEX
8
CONTOURS_MINEURES
10
69.963
20
44.996
0
VERTEX
8
CONTOURS_MINEURES
10
70.884
20
43.881
0
VERTEX
8
CONTOURS_MINEURES
10
71.017
20
42.001
0
VERTEX
8
CONTOURS_MINEURES
10
71.017
20
39.988
0
VERTEX
8
CONTOURS_MINEURES
10
71.017
20
39.005
0
VERTEX
8
CONTOURS_MINEURES
10
71.198
20
38.201
0
VERTEX
8
CONTOURS_MINEURES
10
70.866
20
35.998
0
VERTEX
8
CONTOURS_MINEURES
10
70.693
20
34.310
0
VERTEX
8
CONTOURS_MINEURES
10
70.804
20
33.003
0
VERTEX
8
CONTOURS_MINEURES
10
70.804
20
31.196
0
VERTEX
8
CONTOURS_MINEURES
10
70.804
20
29.996
0
VERTEX
8
CONTOURS_MINEURES
10
70.263
20
28.738
0
VERTEX
8
CONTOURS_MINEURES
10
69.955
20
27.000
0
VERTEX
8
CONTOURS_MINEURES
10
69.690
20
26.315
0
VERTEX
8
CONTOURS_MINEURES
10
69.005
20
25.338
0
VERTEX
8
CONTOURS_MINEURES
10
67.337
20
25.338
0
VERTEX
8
CONTOURS_MINEURES
10
66.000
20
25.338
0
VERTEX
8
CONTOURS_MINEURES
10
65.196
20
24.005
0
VERTEX
8
CONTOURS_MINEURES
10
65.196
20
21.802
0
VERTEX
8
CONTOURS_MINEURES
10
65.196
20
20.998
0
VERTEX
8
CONTOURS_MINEURES
10
64.875
20
19.123
0
VERTEX
8
CONTOURS_MINEURES
10
64.134
20
18.003
0
VERTEX
8
CONTOURS_MINEURES
10
64.134
20
16.863
0
VERTEX
8
CONTOURS_MINEURES
10
64.134
20
14.996
0
VERTEX
8
CONTOURS_MINEURES
10
64.134
20
13.136
0
VERTEX
8
CONTOURS_MINEURES
10
64.566
20
12.000
0
VERTEX
8
CONTOURS_MINEURES
10
66.000
20
9.993
0
VERTEX
8
CONTOURS_MINEURES
10
66.991
20
9.993
0
VERTEX
8
CONTOURS_MINEURES
10
69.005
20
9.993
0
VERTEX
8
CONTOURS_MINEURES
10
69.962
20
9.005
0
VERTEX
8
CONTOURS_MINEURES
10
69.962
20
8.044
0
VERTEX
8
CONTOURS_MINEURES
10
69.962
20
5.998
0
VERTEX
8
CONTOURS_MINEURES
10
71.230
20
5.229
0
VERTEX
8
CONTOURS_MINEURES
10
71.999
20
5.107
0
VERTEX
8
CONTOURS_MINEURES
10
72.971
20
5.029
0
VERTEX
8
CONTOURS_MINEURES
10
75.004
20
5.155
0
VERTEX
8
CONTOURS_MINEURES
10
77.156
20
5.155
0
VERTEX
8
CONTOURS_MINEURES
10
77.998
20
5.155
0
VERTEX
8
CONTOURS_MINEURES
10
79.762
20
4.240
0
VERTEX
8
CONTOURS_MINEURES
10
81.003
20
3.885
0
VERTEX
8
CONTOURS_MINEURES
10
81.742
20
3.741
0
VERTEX
8
CONTOURS_MINEURES
10
83.589
20
3.002
0
VERTEX
8
CONTOURS_MINEURES
10
83.906
20
2.910
0
VERTEX
8
CONTOURS_MINEURES
10
83.998
20
2.795
0
VERTEX
8
CONTOURS_MINEURES
10
84.205
20
2.795
0
VERTEX
8
CONTOURS_MINEURES
10
87.003
20
2.795
0
VERTEX
8
CONTOURS_MINEURES
10
87.288
20
2.716
0
VERTEX
8
CONTOURS_MINEURES
10
89.997
20
2.900
0
VERTEX
8
CONTOURS_MINEURES
10
91.499
20
3.002
0
VERTEX
8
CONTOURS_MINEURES
10
92.952
20
3.052
0
VERTEX
8
CONTOURS_MINEURES
10
93.002
20
3.049
0
VERTEX
8
CONTOURS_MINEURES
10
93.049
20
3.049
0
VERTEX
8
CONTOURS_MINEURES
10
95.996
20
3.049
0
VERTEX
8
CONTOURS_MINEURES
10
98.738
20
3.265
0
VERTEX
8
CONTOURS_MINEURES
10
99.001
20
3.242
0
SEQEND
0
POLYLINE
8
CONTOURS_MINEURES
66
1
70
0
0
VERTEX
8
CONTOURS_MINEURES
10
-0.003
20
69.348
0
VERTEX
8
CONTOURS_MINEURES
10
2.648
20
69.348
0
VERTEX
8
CONTOURS_MINEURES
10
3.002
20
69.348
0
VERTEX
8
CONTOURS_MINEURES
10
3.421
20
69.416
0
VERTEX
8
CONTOURS_MINEURES
10
5.996
20
69.753
0
VERTEX
8
CONTOURS_MINEURES
10
8.243
20
69.753
0
VERTEX
8
CONTOURS_MINEURES
10
9.001
20
69.753
0
VERTEX
8
CONTOURS_MINEURES
10
10.967
20
70.027
0
VERTEX
8
CONTOURS_MINEURES
10
11.995
20
70.192
0
VERTEX
8
CONTOURS_MINEURES
10
13.481
20
70.481
0
VERTEX
8
CONTOURS_MINEURES
10
15.000
20
70.645
0
VERTEX
8
CONTOURS_MINEURES
10
16.650
20
70.645
0
VERTEX
8
CONTOURS_MINEURES
10
18.005
20
70.645
0
VERTEX
8
CONTOURS_MINEURES
10
19.107
20
70.895
0
VERTEX
8
CONTOURS_MINEURES
10
21.000
20
71.154
0
VERTEX
8
CONTOURS_MINEURES
10
21.526
20
71.475
0
VERTEX
8
CONTOURS_MINEURES
10
23.272
20
72.001
0
VERTEX
8
CONTOURS_MINEURES
10
23.272
20
74.266
0
VERTEX
8
CONTOURS_MINEURES
10
23.272
20
74.997
0
VERTEX
8
CONTOURS_MINEURES
10
24.005
20
75.245
0
VERTEX
8
CONTOURS_MINEURES
10
24.252
20
75.245
0
VERTEX
8
CONTOURS_MINEURES
10
26.999
20
75.245
0
VERTEX
8
CONTOURS_MINEURES
10
28.736
20
76.265
0
VERTEX
8
CONTOURS_MINEURES
10
30.004
20
76.856
0
VERTEX
8
CONTOURS_MINEURES
10
31.597
20
78.004
0
VERTEX
8
CONTOURS_MINEURES
10
31.597
20
79.406
0
VERTEX
8
CONTOURS_MINEURES
10
31.597
20
80.999
0
VERTEX
8
CONTOURS_MINEURES
10
32.998
20
81.896
0
VERTEX
8
CONTOURS_MINEURES
10
35.104
20
81.896
0
VERTEX
8
CONTOURS_MINEURES
10
36.003
20
81.896
0
VERTEX
8
CONTOURS_MINEURES
10
38.940
20
83.995
0
VERTEX
8
CONTOURS_MINEURES
10
38.997
20
84.034
0
VERTEX
8
CONTOURS_MINEURES
10
41.001
20
84.997
0
VERTEX
8
CONTOURS_MINEURES
10
42.002
20
85.234
0
VERTEX
8
CONTOURS_MINEURES
10
43.763
20
85.234
0
VERTEX
8
CONTOURS_MINEURES
10
44.997
20
85.234
0
VERTEX
8
CONTOURS_MINEURES
10
47.164
20
86.163
0
VERTEX
8
CONTOURS_MINEURES
10
48.002
20
86.450
0
VERTEX
8
CONTOURS_MINEURES
10
48.333
20
86.669
0
VERTEX
8
CONTOURS_MINEURES
10
48.504
20
87.002
0
SEQEND
0
POLYLINE
8
CONTOURS_MINEURES
66
1
70
0
0
VERTEX
8
CONTOURS_MINEURES
10
83.025
20
87.002
0
VERTEX
8
CONTOURS_MINEURES
10
83.162
20
86.163
0
VERTEX
8
CONTOURS_MINEURES
10
83.928
20
83.995
0
VERTEX
8
CONTOURS_MINEURES
10
83.998
20
83.819
0
VERTEX
8
CONTOURS_MINEURES
10
84.174
20
83.819
0
VERTEX
8
CONTOURS_MINEURES
10
87.003
20
83.819
0
VERTEX
8
CONTOURS_MINEURES
10
88.352
20
80.999
0
VERTEX
8
CONTOURS_MINEURES
10
88.352
20
79.354
0
VERTEX
8
CONTOURS_MINEURES
10
88.352
20
78.004
0
VERTEX
8
CONTOURS_MINEURES
10
88.805
20
76.807
0
VERTEX
8
CONTOURS_MINEURES
10
89.526
20
74.997
0
VERTEX
8
CONTOURS_MINEURES
10
89.526
20
72.472
0
VERTEX
8
CONTOURS_MINEURES
10
89.526
20
72.001
0
VERTEX
8
CONTOURS_MINEURES
10
89.351
20
71.353
0
VERTEX
8
CONTOURS_MINEURES
10
88.950
20
68.995
0
VERTEX
8
CONTOURS_MINEURES
10
88.117
20
67.880
0
VERTEX
8
CONTOURS_MINEURES
10
87.003
20
66.574
0
VERTEX
8
CONTOURS_MINEURES
10
84.574
20
66.574
0
VERTEX
8
CONTOURS_MINEURES
10
83.998
20
66.574
0
VERTEX
8
CONTOURS_MINEURES
10
83.750
20
66.246
0
VERTEX
8
CONTOURS_MINEURES
10
83.423
20
65.999
0
VERTEX
8
CONTOURS_MINEURES
10
83.423
20
65.424
0
VERTEX
8
CONTOURS_MINEURES
10
83.423
20
63.003
0
VERTEX
8
CONTOURS_MINEURES
10
82.372
20
61.371
0
VERTEX
8
CONTOURS_MINEURES
10
81.469
20
59.997
0
VERTEX
8
CONTOURS_MINEURES
10
81.284
20
59.716
0
VERTEX
8
CONTOURS_MINEURES
10
81.003
20
58.855
0
VERTEX
8
CONTOURS_MINEURES
10
80.465
20
57.538
0
VERTEX
8
CONTOURS_MINEURES
10
80.245
20
57.001
0
VERTEX
8
CONTOURS_MINEURES
10
80.245
20
54.762
0
VERTEX
8
CONTOURS_MINEURES
10
80.245
20
54.005
0
VERTEX
8
CONTOURS_MINEURES
10
80.206
20
53.208
0
VERTEX
8
CONTOURS_MINEURES
10
79.716
20
50.999
0
VERTEX
8
CONTOURS_MINEURES
10
79.716
20
49.287
0
VERTEX
8
CONTOURS_MINEURES
10
79.716
20
48.003
0
VERTEX
8
CONTOURS_MINEURES
10
79.441
20
46.560
0
VERTEX
8
CONTOURS_MINEURES
10
79.329
20
44.996
0
VERTEX
8
CONTOURS_MINEURES
10
78.834
20
44.164
0
VERTEX
8
CONTOURS_MINEURES
10
78.223
20
42.001
0
VERTEX
8
CONTOURS_MINEURES
10
78.223
20
39.229
0
VERTEX
8
CONTOURS_MINEURES
10
78.223
20
39.005
0
VERTEX
8
CONTOURS_MINEURES
10
78.132
20
38.871
0
VERTEX
8
CONTOURS_MINEURES
10
77.998
20
38.528
0
VERTEX
8
CONTOURS_MINEURES
10
77.524
20
38.528
0
VERTEX
8
CONTOURS_MINEURES
10
75.004
20
38.528
0
VERTEX
8
CONTOURS_MINEURES
10
74.091
20
36.912
0
VERTEX
8
CONTOURS_MINEURES
10
73.962
20
35.998
0
VERTEX
8
CONTOURS_MINEURES
10
73.852
20
34.850
0
VERTEX
8
CONTOURS_MINEURES
10
73.161
20
33.003
0
VERTEX
8
CONTOURS_MINEURES
10
73.161
20
31.840
0
VERTEX
8
CONTOURS_MINEURES
10
73.161
20
29.996
0
VERTEX
8
CONTOURS_MINEURES
10
72.933
20
29.065
0
VERTEX
8
CONTOURS_MINEURES
10
72.172
20
27.000
0
VERTEX
8
CONTOURS_MINEURES
10
71.999
20
26.573
0
VERTEX
8
CONTOURS_MINEURES
10
71.282
20
24.722
0
VERTEX
8
CONTOURS_MINEURES
10
70.780
20
24.005
0
VERTEX
8
CONTOURS_MINEURES
10
70.780
20
22.780
0
VERTEX
8
CONTOURS_MINEURES
10
70.780
20
20.998
0
VERTEX
8
CONTOURS_MINEURES
10
71.058
20
18.944
0
VERTEX
8
CONTOURS_MINEURES
10
70.777
20
18.003
0
VERTEX
8
CONTOURS_MINEURES
10
70.777
20
16.223
0
VERTEX
8
CONTOURS_MINEURES
10
70.777
20
14.996
0
VERTEX
8
CONTOURS_MINEURES
10
71.087
20
14.083
0
VERTEX
8
CONTOURS_MINEURES
10
71.999
20
12.353
0
VERTEX
8
CONTOURS_MINEURES
10
72.522
20
12.000
0
VERTEX
8
CONTOURS_MINEURES
10
74.340
20
11.338
0
VERTEX
8
CONTOURS_MINEURES
10
75.004
20
11.382
0
VERTEX
8
CONTOURS_MINEURES
10
75.622
20
11.382
0
VERTEX
8
CONTOURS_MINEURES
10
77.998
20
11.382
0
VERTEX
8
CONTOURS_MINEURES
10
78.775
20
11.226
0
VERTEX
8
CONTOURS_MINEURES
10
81.003
20
11.071
0
VERTEX
8
CONTOURS_MINEURES
10
82.777
20
10.779
0
VERTEX
8
CONTOURS_MINEURES
10
83.998
20
10.587
0
VERTEX
8
CONTOURS_MINEURES
10
85.585
20
10.587
0
VERTEX
8
CONTOURS_MINEURES
10
87.003
20
10.587
0
VERTEX
8
CONTOURS_MINEURES
10
88.392
20
10.395
0
VERTEX
8
CONTOURS_MINEURES
10
89.997
20
10.377
0
VERTEX
8
CONTOURS_MINEURES
10
91.692
20
10.311
0
VERTEX
8
CONTOURS_MINEURES
10
93.002
20
10.226
0
VERTEX
8
CONTOURS_MINEURES
10
94.776
20
10.226
0
VERTEX
8
CONTOURS_MINEURES
10
95.996
20
10.226
0
VERTEX
8
CONTOURS_MINEURES
10
97.221
20
10.226
0
VERTEX
8
CONTOURS_MINEURES
10
99.001
20
10.091
0
SEQEND
0
POLYLINE
8
CONTOURS_MINEURES
66
1
70
0
0
VERTEX
8
CONTOURS_MINEURES
10
-0.003
20
76.940
0
VERTEX
8
CONTOURS_MINEURES
10
1.939
20
76.940
0
VERTEX
8
CONTOURS_MINEURES
10
3.002
20
76.940
0
VERTEX
8
CONTOURS_MINEURES
10
3.940
20
77.062
0
VERTEX
8
CONTOURS_MINEURES
10
5.996
20
77.902
0
VERTEX
8
CONTOURS_MINEURES
10
8.899
20
77.902
0
VERTEX
8
CONTOURS_MINEURES
10
9.001
20
77.902
0
VERTEX
8
CONTOURS_MINEURES
10
9.089
20
77.915
0
VERTEX
8
CONTOURS_MINEURES
10
9.286
20
78.004
0
VERTEX
8
CONTOURS_MINEURES
10
9.286
20
78.289
0
VERTEX
8
CONTOURS_MINEURES
10
9.286
20
80.999
0
VERTEX
8
CONTOURS_MINEURES
10
11.995
20
82.603
0
VERTEX
8
CONTOURS_MINEURES
10
12.997
20
82.996
0
VERTEX
8
CONTOURS_MINEURES
10
15.000
20
83.502
0
VERTEX
8
CONTOURS_MINEURES
10
15.495
20
83.502
0
VERTEX
8
CONTOURS_MINEURES
10
18.005
20
83.502
0
VERTEX
8
CONTOURS_MINEURES
10
20.438
20
83.995
0
VERTEX
8
CONTOURS_MINEURES
10
21.000
20
84.172
0
VERTEX
8
CONTOURS_MINEURES
10
23.404
20
84.596
0
VERTEX
8
CONTOURS_MINEURES
10
24.005
20
84.651
0
VERTEX
8
CONTOURS_MINEURES
10
24.658
20
84.651
0
VERTEX
8
CONTOURS_MINEURES
10
26.999
20
84.651
0
VERTEX
8
CONTOURS_MINEURES
10
28.537
20
85.462
0
VERTEX
8
CONTOURS_MINEURES
10
30.004
20
85.555
0
VERTEX
8
CONTOURS_MINEURES
10
32.196
20
86.196
0
VERTEX
8
CONTOURS_MINEURES
10
32.998
20
86.599
0
VERTEX
8
CONTOURS_MINEURES
10
33.401
20
86.599
0
VERTEX
8
CONTOURS_MINEURES
10
36.003
20
86.599
0
VERTEX
8
CONTOURS_MINEURES
10
36.694
20
87.002
0
SEQEND
0
POLYLINE
8
CONTOURS_MINEURES
66
1
70
0
0
VERTEX
8
CONTOURS_MINEURES
10
89.628
20
87.002
0
VERTEX
8
CONTOURS_MINEURES
10
89.732
20
86.736
0
VERTEX
8
CONTOURS_MINEURES
10
89.997
20
86.186
0
VERTEX
8
CONTOURS_MINEURES
10
90.825
20
83.995
0
VERTEX
8
CONTOURS_MINEURES
10
91.429
20
82.427
0
VERTEX
8
CONTOURS_MINEURES
10
92.219
20
80.999
0
VERTEX
8
CONTOURS_MINEURES
10
92.219
20
78.784
0
VERTEX
8
CONTOURS_MINEURES
10
92.219
20
78.004
0
VERTEX
8
CONTOURS_MINEURES
10
92.417
20
77.419
0
VERTEX
8
CONTOURS_MINEURES
10
93.002
20
76.325
0
VERTEX
8
CONTOURS_MINEURES
10
94.674
20
76.325
0
VERTEX
8
CONTOURS_MINEURES
10
95.996
20
76.325
0
VERTEX
8
CONTOURS_MINEURES
10
96.461
20
75.462
0
VERTEX
8
CONTOURS_MINEURES
10
96.691
20
74.997
0
VERTEX
8
CONTOURS_MINEURES
10
96.691
20
72.694
0
VERTEX
8
CONTOURS_MINEURES
10
96.691
20
72.001
0
VERTEX
8
CONTOURS_MINEURES
10
96.241
20
69.239
0
VERTEX
8
CONTOURS_MINEURES
10
96.184
20
68.995
0
VERTEX
8
CONTOURS_MINEURES
10
96.144
20
68.848
0
VERTEX
8
CONTOURS_MINEURES
10
95.996
20
68.590
0
VERTEX
8
CONTOURS_MINEURES
10
95.592
20
68.590
0
VERTEX
8
CONTOURS_MINEURES
10
93.002
20
68.590
0
VERTEX
8
CONTOURS_MINEURES
10
91.511
20
65.999
0
VERTEX
8
CONTOURS_MINEURES
10
91.511
20
64.490
0
VERTEX
8
CONTOURS_MINEURES
10
91.511
20
63.003
0
VERTEX
8
CONTOURS_MINEURES
10
89.997
20
60.432
0
VERTEX
8
CONTOURS_MINEURES
10
89.825
20
60.169
0
VERTEX
8
CONTOURS_MINEURES
10
89.731
20
59.997
0
VERTEX
8
CONTOURS_MINEURES
10
88.424
20
58.574
0
VERTEX
8
CONTOURS_MINEURES
10
87.795
20
57.001
0
VERTEX
8
CONTOURS_MINEURES
10
87.795
20
54.798
0
VERTEX
8
CONTOURS_MINEURES
10
87.795
20
54.005
0
VERTEX
8
CONTOURS_MINEURES
10
87.455
20
53.551
0
VERTEX
8
CONTOURS_MINEURES
10
87.003
20
52.519
0
VERTEX
8
CONTOURS_MINEURES
10
85.517
20
52.519
0
VERTEX
8
CONTOURS_MINEURES
10
83.998
20
52.519
0
VERTEX
8
CONTOURS_MINEURES
10
83.280
20
50.999
0
VERTEX
8
CONTOURS_MINEURES
10
83.280
20
48.721
0
VERTEX
8
CONTOURS_MINEURES
10
83.280
20
48.003
0
VERTEX
8
CONTOURS_MINEURES
10
82.773
20
46.226
0
VERTEX
8
CONTOURS_MINEURES
10
82.642
20
44.996
0
VERTEX
8
CONTOURS_MINEURES
10
81.838
20
42.835
0
VERTEX
8
CONTOURS_MINEURES
10
81.507
20
42.001
0
VERTEX
8
CONTOURS_MINEURES
10
81.507
20
39.509
0
VERTEX
8
CONTOURS_MINEURES
10
81.507
20
39.005
0
VERTEX
8
CONTOURS_MINEURES
10
81.384
20
38.623
0
VERTEX
8
CONTOURS_MINEURES
10
81.003
20
38.011
0
VERTEX
8
CONTOURS_MINEURES
10
80.190
20
36.812
0
VERTEX
8
CONTOURS_MINEURES
10
79.873
20
35.998
0
VERTEX
8
CONTOURS_MINEURES
10
78.699
20
33.701
0
VERTEX
8
CONTOURS_MINEURES
10
78.364
20
33.003
0
VERTEX
8
CONTOURS_MINEURES
10
78.364
20
32.637
0
VERTEX
8
CONTOURS_MINEURES
10
78.364
20
29.996
0
VERTEX
8
CONTOURS_MINEURES
10
77.998
20
28.969
0
VERTEX
8
CONTOURS_MINEURES
10
76.972
20
28.969
0
VERTEX
8
CONTOURS_MINEURES
10
75.004
20
28.969
0
VERTEX
8
CONTOURS_MINEURES
10
74.617
20
27.386
0
VERTEX
8
CONTOURS_MINEURES
10
74.474
20
27.000
0
VERTEX
8
CONTOURS_MINEURES
10
74.118
20
26.117
0
VERTEX
8
CONTOURS_MINEURES
10
74.484
20
24.005
0
VERTEX
8
CONTOURS_MINEURES
10
74.484
20
21.518
0
VERTEX
8
CONTOURS_MINEURES
10
74.484
20
20.998
0
VERTEX
8
CONTOURS_MINEURES
10
74.580
20
20.575
0
VERTEX
8
CONTOURS_MINEURES
10
75.004
20
20.197
0
VERTEX
8
CONTOURS_MINEURES
10
75.805
20
20.197
0
VERTEX
8
CONTOURS_MINEURES
10
77.998
20
20.197
0
VERTEX
8
CONTOURS_MINEURES
10
79.112
20
19.113
0
VERTEX
8
CONTOURS_MINEURES
10
81.003
20
18.282
0
VERTEX
8
CONTOURS_MINEURES
10
81.164
20
18.163
0
VERTEX
8
CONTOURS_MINEURES
10
81.562
20
18.003
0
VERTEX
8
CONTOURS_MINEURES
10
81.562
20
17.442
0
VERTEX
8
CONTOURS_MINEURES
10
81.562
20
14.996
0
VERTEX
8
CONTOURS_MINEURES
10
83.275
20
14.273
0
VERTEX
8
CONTOURS_MINEURES
10
83.998
20
14.165
0
VERTEX
8
CONTOURS_MINEURES
10
86.169
20
14.165
0
VERTEX
8
CONTOURS_MINEURES
10
87.003
20
14.165
0
VERTEX
8
CONTOURS_MINEURES
10
87.955
20
14.044
0
VERTEX
8
CONTOURS_MINEURES
10
89.997
20
13.633
0
VERTEX
8
CONTOURS_MINEURES
10
91.485
20
13.484
0
VERTEX
8
CONTOURS_MINEURES
10
93.002
20
13.391
0
VERTEX
8
CONTOURS_MINEURES
10
94.606
20
13.391
0
VERTEX
8
CONTOURS_MINEURES
10
95.996
20
13.391
0
VERTEX
8
CONTOURS_MINEURES
10
97.577
20
13.576
0
VERTEX
8
CONTOURS_MINEURES
10
99.001
20
13.576
0
SEQEND
0
POLYLINE
8
CONTOURS_MINEURES
66
1
70
0
0
VERTEX
8
CONTOURS_MINEURES
10
99.001
20
62.635
0
VERTEX
8
CONTOURS_MINEURES
10
98.279
20
60.719
0
VERTEX
8
CONTOURS_MINEURES
10
97.827
20
59.997
0
VERTEX
8
CONTOURS_MINEURES
10
96.860
20
59.135
0
VERTEX
8
CONTOURS_MINEURES
10
95.996
20
58.416
0
VERTEX
8
CONTOURS_MINEURES
10
94.417
20
58.416
0
VERTEX
8
CONTOURS_MINEURES
10
93.002
20
58.416
0
VERTEX
8
CONTOURS_MINEURES
10
91.666
20
57.001
0
VERTEX
8
CONTOURS_MINEURES
10
91.666
20
55.337
0
VERTEX
8
CONTOURS_MINEURES
10
91.666
20
54.005
0
VERTEX
8
CONTOURS_MINEURES
10
89.997
20
52.244
0
VERTEX
8
CONTOURS_MINEURES
10
89.464
20
51.533
0
VERTEX
8
CONTOURS_MINEURES
10
89.230
20
50.999
0
VERTEX
8
CONTOURS_MINEURES
10
89.230
20
50.232
0
VERTEX
8
CONTOURS_MINEURES
10
89.230
20
48.003
0
VERTEX
8
CONTOURS_MINEURES
10
88.550
20
46.449
0
VERTEX
8
CONTOURS_MINEURES
10
88.223
20
44.996
0
VERTEX
8
CONTOURS_MINEURES
10
88.004
20
43.994
0
VERTEX
8
CONTOURS_MINEURES
10
87.105
20
42.001
0
VERTEX
8
CONTOURS_MINEURES
10
87.105
20
39.108
0
VERTEX
8
CONTOURS_MINEURES
10
87.105
20
39.005
0
VERTEX
8
CONTOURS_MINEURES
10
87.100
20
38.908
0
VERTEX
8
CONTOURS_MINEURES
10
87.003
20
38.725
0
VERTEX
8
CONTOURS_MINEURES
10
86.722
20
38.725
0
VERTEX
8
CONTOURS_MINEURES
10
83.998
20
38.725
0
VERTEX
8
CONTOURS_MINEURES
10
83.334
20
36.664
0
VERTEX
8
CONTOURS_MINEURES
10
82.920
20
35.998
0
VERTEX
8
CONTOURS_MINEURES
10
82.621
20
34.380
0
VERTEX
8
CONTOURS_MINEURES
10
81.625
20
33.003
0
VERTEX
8
CONTOURS_MINEURES
10
81.625
20
32.378
0
VERTEX
8
CONTOURS_MINEURES
10
81.625
20
29.996
0
VERTEX
8
CONTOURS_MINEURES
10
81.706
20
29.293
0
VERTEX
8
CONTOURS_MINEURES
10
81.195
20
27.000
0
VERTEX
8
CONTOURS_MINEURES
10
82.542
20
25.544
0
VERTEX
8
CONTOURS_MINEURES
10
83.998
20
24.196
0
VERTEX
8
CONTOURS_MINEURES
10
86.811
20
24.196
0
VERTEX
8
CONTOURS_MINEURES
10
87.003
20
24.196
0
VERTEX
8
CONTOURS_MINEURES
10
87.112
20
24.114
0
VERTEX
8
CONTOURS_MINEURES
10
87.377
20
24.005
0
VERTEX
8
CONTOURS_MINEURES
10
87.377
20
23.629
0
VERTEX
8
CONTOURS_MINEURES
10
87.377
20
20.998
0
VERTEX
8
CONTOURS_MINEURES
10
89.997
20
20.192
0
VERTEX
8
CONTOURS_MINEURES
10
92.138
20
20.137
0
VERTEX
8
CONTOURS_MINEURES
10
93.002
20
20.021
0
VERTEX
8
CONTOURS_MINEURES
10
93.979
20
20.021
0
VERTEX
8
CONTOURS_MINEURES
10
95.996
20
20.021
0
VERTEX
8
CONTOURS_MINEURES
10
98.143
20
20.142
0
VERTEX
8
CONTOURS_MINEURES
10
99.001
20
20.268
0
SEQEND
0
POLYLINE
8
CONTOURS_MINEURES
66
1
70
0
0
VERTEX
8
CONTOURS_MINEURES
10
96.038
20
87.002
0
VERTEX
8
CONTOURS_MINEURES
10
96.060
20
86.938
0
VERTEX
8
CONTOURS_MINEURES
10
97.252
20
83.995
0
VERTEX
8
CONTOURS_MINEURES
10
97.891
20
82.888
0
VERTEX
8
CONTOURS_MINEURES
10
99.001
20
81.395
0
SEQEND
0
POLYLINE
8
CONTOURS_MINEURES
66
1
70
0
0
VERTEX
8
CONTOURS_MINEURES
10
99.001
20
53.194
0
VERTEX
8
CONTOURS_MINEURES
10
97.810
20
52.191
0
VERTEX
8
CONTOURS_MINEURES
10
96.393
20
50.999
0
VERTEX
8
CONTOURS_MINEURES
10
96.393
20
50.603
0
VERTEX
8
CONTOURS_MINEURES
10
96.393
20
48.003
0
VERTEX
8
CONTOURS_MINEURES
10
95.996
20
47.535
0
VERTEX
8
CONTOURS_MINEURES
10
93.468
20
47.535
0
VERTEX
8
CONTOURS_MINEURES
10
93.002
20
47.535
0
VERTEX
8
CONTOURS_MINEURES
10
91.272
20
44.996
0
VERTEX
8
CONTOURS_MINEURES
10
90.111
20
42.115
0
VERTEX
8
CONTOURS_MINEURES
10
90.082
20
42.001
0
VERTEX
8
CONTOURS_MINEURES
10
90.082
20
39.090
0
VERTEX
8
CONTOURS_MINEURES
10
90.082
20
39.005
0
VERTEX
8
CONTOURS_MINEURES
10
90.101
20
38.901
0
VERTEX
8
CONTOURS_MINEURES
10
89.997
20
38.253
0
VERTEX
8
CONTOURS_MINEURES
10
89.872
20
36.124
0
VERTEX
8
CONTOURS_MINEURES
10
89.806
20
35.998
0
VERTEX
8
CONTOURS_MINEURES
10
89.952
20
33.048
0
VERTEX
8
CONTOURS_MINEURES
10
89.936
20
33.003
0
VERTEX
8
CONTOURS_MINEURES
10
89.936
20
30.057
0
VERTEX
8
CONTOURS_MINEURES
10
89.936
20
29.996
0
VERTEX
8
CONTOURS_MINEURES
10
89.944
20
29.944
0
VERTEX
8
CONTOURS_MINEURES
10
89.997
20
29.857
0
VERTEX
8
CONTOURS_MINEURES
10
90.228
20
29.766
0
VERTEX
8
CONTOURS_MINEURES
10
93.002
20
27.922
0
VERTEX
8
CONTOURS_MINEURES
10
93.923
20
27.922
0
VERTEX
8
CONTOURS_MINEURES
10
95.996
20
27.922
0
VERTEX
8
CONTOURS_MINEURES
10
98.160
20
27.839
0
VERTEX
8
CONTOURS_MINEURES
10
99.001
20
27.623
0
SEQEND
0
POLYLINE
8
CONTOURS_MAJEURES
66
1
70
0
0
VERTEX
8
CONTOURS_MAJEURES
10
-0.003
20
51.153
0
VERTEX
8
CONTOURS_MAJEURES
10
0.151
20
51.153
0
VERTEX
8
CONTOURS_MAJEURES
10
3.002
20
51.153
0
VERTEX
8
CONTOURS_MAJEURES
10
3.124
20
51.121
0
VERTEX
8
CONTOURS_MAJEURES
10
5.179
20
50.999
0
VERTEX
8
CONTOURS_MAJEURES
10
5.179
20
50.182
0
VERTEX
8
CONTOURS_MAJEURES
10
5.179
20
48.003
0
VERTEX
8
CONTOURS_MAJEURES
10
5.996
20
47.941
0
VERTEX
8
CONTOURS_MAJEURES
10
8.939
20
47.941
0
VERTEX
8
CONTOURS_MAJEURES
10
9.001
20
47.941
0
VERTEX
8
CONTOURS_MAJEURES
10
9.061
20
47.943
0
VERTEX
8
CONTOURS_MAJEURES
10
11.247
20
48.003
0
VERTEX
8
CONTOURS_MAJEURES
10
11.247
20
48.752
0
VERTEX
8
CONTOURS_MAJEURES
10
11.247
20
50.999
0
VERTEX
8
CONTOURS_MAJEURES
10
11.995
20
51.015
0
VERTEX
8
CONTOURS_MAJEURES
10
12.013
20
51.016
0
VERTEX
8
CONTOURS_MAJEURES
10
15.000
20
51.033
0
VERTEX
8
CONTOURS_MAJEURES
10
15.035
20
51.033
0
VERTEX
8
CONTOURS_MAJEURES
10
18.005
20
51.033
0
VERTEX
8
CONTOURS_MAJEURES
10
20.789
20
51.210
0
VERTEX
8
CONTOURS_MAJEURES
10
21.000
20
51.290
0
VERTEX
8
CONTOURS_MAJEURES
10
21.542
20
51.542
0
VERTEX
8
CONTOURS_MAJEURES
10
24.005
20
51.671
0
VERTEX
8
CONTOURS_MAJEURES
10
26.329
20
51.671
0
VERTEX
8
CONTOURS_MAJEURES
10
26.999
20
51.671
0
VERTEX
8
CONTOURS_MAJEURES
10
27.981
20
51.982
0
VERTEX
8
CONTOURS_MAJEURES
10
30.004
20
51.901
0
VERTEX
8
CONTOURS_MAJEURES
10
32.143
20
53.146
0
VERTEX
8
CONTOURS_MAJEURES
10
32.998
20
53.337
0
VERTEX
8
CONTOURS_MAJEURES
10
35.335
20
53.337
0
VERTEX
8
CONTOURS_MAJEURES
10
36.003
20
53.337
0
VERTEX
8
CONTOURS_MAJEURES
10
36.284
20
53.724
0
VERTEX
8
CONTOURS_MAJEURES
10
36.253
20
54.005
0
VERTEX
8
CONTOURS_MAJEURES
10
36.253
20
54.255
0
VERTEX
8
CONTOURS_MAJEURES
10
36.253
20
57.001
0
VERTEX
8
CONTOURS_MAJEURES
10
36.330
20
57.328
0
VERTEX
8
CONTOURS_MAJEURES
10
37.403
20
59.997
0
VERTEX
8
CONTOURS_MAJEURES
10
38.302
20
60.695
0
VERTEX
8
CONTOURS_MAJEURES
10
38.997
20
61.324
0
VERTEX
8
CONTOURS_MAJEURES
10
41.942
20
62.943
0
VERTEX
8
CONTOURS_MAJEURES
10
42.002
20
62.960
0
VERTEX
8
CONTOURS_MAJEURES
10
42.046
20
62.960
0
VERTEX
8
CONTOURS_MAJEURES
10
44.997
20
62.960
0
VERTEX
8
CONTOURS_MAJEURES
10
46.581
20
61.582
0
VERTEX
8
CONTOURS_MAJEURES
10
48.002
20
60.182
0
VERTEX
8
CONTOURS_MAJEURES
10
48.133
20
59.997
0
VERTEX
8
CONTOURS_MAJEURES
10
48.115
20
59.884
0
VERTEX
8
CONTOURS_MAJEURES
10
48.002
20
57.001
0
VERTEX
8
CONTOURS_MAJEURES
10
48.002
20
54.005
0
VERTEX
8
CONTOURS_MAJEURES
10
46.604
20
50.999
0
VERTEX
8
CONTOURS_MAJEURES
10
46.604
20
49.396
0
VERTEX
8
CONTOURS_MAJEURES
10
46.604
20
48.003
0
VERTEX
8
CONTOURS_MAJEURES
10
46.031
20
46.031
0
VERTEX
8
CONTOURS_MAJEURES
10
45.523
20
44.996
0
VERTEX
8
CONTOURS_MAJEURES
10
44.997
20
44.029
0
VERTEX
8
CONTOURS_MAJEURES
10
44.029
20
44.029
0
VERTEX
8
CONTOURS_MAJEURES
10
42.002
20
44.029
0
VERTEX
8
CONTOURS_MAJEURES
10
40.800
20
43.199
0
VERTEX
8
CONTOURS_MAJEURES
10
40.910
20
42.001
0
VERTEX
8
CONTOURS_MAJEURES
10
40.910
20
40.911
0
VERTEX
8
CONTOURS_MAJEURES
10
40.910
20
39.005
0
VERTEX
8
CONTOURS_MAJEURES
10
40.327
20
37.675
0
VERTEX
8
CONTOURS_MAJEURES
10
40.192
20
35.998
0
VERTEX
8
CONTOURS_MAJEURES
10
40.246
20
34.754
0
VERTEX
8
CONTOURS_MAJEURES
10
39.325
20
33.003
0
VERTEX
8
CONTOURS_MAJEURES
10
39.325
20
32.675
0
VERTEX
8
CONTOURS_MAJEURES
10
39.325
20
29.996
0
VERTEX
8
CONTOURS_MAJEURES
10
39.671
20
27.672
0
VERTEX
8
CONTOURS_MAJEURES
10
40.696
20
27.000
0
VERTEX
8
CONTOURS_MAJEURES
10
41.312
20
26.312
0
VERTEX
8
CONTOURS_MAJEURES
10
42.002
20
25.826
0
VERTEX
8
CONTOURS_MAJEURES
10
43.177
20
25.826
0
VERTEX
8
CONTOURS_MAJEURES
10
44.997
20
25.826
0
VERTEX
8
CONTOURS_MAJEURES
10
45.844
20
24.849
0
VERTEX
8
CONTOURS_MAJEURES
10
46.660
20
24.005
0
VERTEX
8
CONTOURS_MAJEURES
10
46.660
20
22.340
0
VERTEX
8
CONTOURS_MAJEURES
10
46.660
20
20.998
0
VERTEX
8
CONTOURS_MAJEURES
10
46.499
20
19.500
0
VERTEX
8
CONTOURS_MAJEURES
10
47.027
20
18.003
0
VERTEX
8
CONTOURS_MAJEURES
10
47.027
20
15.971
0
VERTEX
8
CONTOURS_MAJEURES
10
47.027
20
14.996
0
VERTEX
8
CONTOURS_MAJEURES
10
46.974
20
13.025
0
VERTEX
8
CONTOURS_MAJEURES
10
47.467
20
12.000
0
VERTEX
8
CONTOURS_MAJEURES
10
47.844
20
11.843
0
VERTEX
8
CONTOURS_MAJEURES
10
48.002
20
11.707
0
VERTEX
8
CONTOURS_MAJEURES
10
49.798
20
9.005
0
VERTEX
8
CONTOURS_MAJEURES
10
49.798
20
7.201
0
VERTEX
8
CONTOURS_MAJEURES
10
49.798
20
5.998
0
VERTEX
8
CONTOURS_MAJEURES
10
50.357
20
5.359
0
VERTEX
8
CONTOURS_MAJEURES
10
50.996
20
4.571
0
VERTEX
8
CONTOURS_MAJEURES
10
52.427
20
4.571
0
VERTEX
8
CONTOURS_MAJEURES
10
54.001
20
4.571
0
VERTEX
8
CONTOURS_MAJEURES
10
55.403
20
3.002
0
VERTEX
8
CONTOURS_MAJEURES
10
56.140
20
2.143
0
VERTEX
8
CONTOURS_MAJEURES
10
56.995
20
1.087
0
VERTEX
8
CONTOURS_MAJEURES
10
58.059
20
-0.004
0
SEQEND
0
POLYLINE
8
CONTOURS_MAJEURES
66
1
70
0
0
VERTEX
8
CONTOURS_MAJEURES
10
89.628
20
87.002
0
VERTEX
8
CONTOURS_MAJEURES
10
89.732
20
86.736
0
VERTEX
8
CONTOURS_MAJEURES
10
89.997
20
86.186
0
VERTEX
8
CONTOURS_MAJEURES
10
90.825
20
83.995
0
VERTEX
8
CONTOURS_MAJEURES
10
91.429
20
82.427
0
VERTEX
8
CONTOURS_MAJEURES
10
92.219
20
80.999
0
VERTEX
8
CONTOURS_MAJEURES
10
92.219
20
78.784
0
VERTEX
8
CONTOURS_MAJEURES
10
92.219
20
78.004
0
VERTEX
8
CONTOURS_MAJEURES
10
92.417
20
77.419
0
VERTEX
8
CONTOURS_MAJEURES
10
93.002
20
76.325
0
VERTEX
8
CONTOURS_MAJEURES
10
94.674
20
76.325
0
VERTEX
8
CONTOURS_MAJEURES
10
95.996
20
76.325
0
VERTEX
8
CONTOURS_MAJEURES
10
96.461
20
75.462
0
VERTEX
8
CONTOURS_MAJEURES
10
96.691
20
74.997
0
VERTEX
8
CONTOURS_MAJEURES
10
96.691
20
72.694
0
VERTEX
8
CONTOURS_MAJEURES
10
96.691
20
72.001
0
VERTEX
8
CONTOURS_MAJEURES
10
96.241
20
69.239
0
VERTEX
8
CONTOURS_MAJEURES
10
96.184
20
68.995
0
VERTEX
8
CONTOURS_MAJEURES
10
96.144
20
68.848
0
VERTEX
8
CONTOURS_MAJEURES
10
95.996
20
68.590
0
VERTEX
8
CONTOURS_MAJEURES
10
95.592
20
68.590
0
VERTEX
8
CONTOURS_MAJEURES
10
93.002
20
68.590
0
VERTEX
8
CONTOURS_MAJEURES
10
91.511
20
65.999
0
VERTEX
8
CONTOURS_MAJEURES
10
91.511
20
64.490
0
VERTEX
8
CONTOURS_MAJEURES
10
91.511
20
63.003
0
VERTEX
8
CONTOURS_MAJEURES
10
89.997
20
60.432
0
VERTEX
8
CONTOURS_MAJEURES
10
89.825
20
60.169
0
VERTEX
8
CONTOURS_MAJEURES
10
89.731
20
59.997
0
VERTEX
8
CONTOURS_MAJEURES
10
88.424
20
58.574
0
VERTEX
8
CONTOURS_MAJEURES
10
87.795
20
57.001
0
VERTEX
8
CONTOURS_MAJEURES
10
87.795
20
54.798
0
VERTEX
8
CONTOURS_MAJEURES
10
87.795
20
54.005
0
VERTEX
8
CONTOURS_MAJEURES
10
87.455
20
53.551
0
VERTEX
8
CONTOURS_MAJEURES
10
87.003
20
52.519
0
VERTEX
8
CONTOURS_MAJEURES
10
85.517
20
52.519
0
VERTEX
8
CONTOURS_MAJEURES
10
83.998
20
52.519
0
VERTEX
8
CONTOURS_MAJEURES
10
83.280
20
50.999
0
VERTEX
8
CONTOURS_MAJEURES
10
83.280
20
48.721
0
VERTEX
8
CONTOURS_MAJEURES
10
83.280
20
48.003
0
VERTEX
8
CONTOURS_MAJEURES
10
82.773
20
46.226
0
VERTEX
8
CONTOURS_MAJEURES
10
82.642
20
44.996
0
VERTEX
8
CONTOURS_MAJEURES
10
81.838
20
42.835
0
VERTEX
8
CONTOURS_MAJEURES
10
81.507
20
42.001
0
VERTEX
8
CONTOURS_MAJEURES
10
81.507
20
39.509
0
VERTEX
8
CONTOURS_MAJEURES
10
81.507
20
39.005
0
VERTEX
8
CONTOURS_MAJEURES
10
81.384
20
38.623
0
VERTEX
8
CONTOURS_MAJEURES
10
81.003
20
38.011
0
VERTEX
8
CONTOURS_MAJEURES
10
80.190
20
36.812
0
VERTEX
8
CONTOURS_MAJEURES
10
79.873
20
35.998
0
VERTEX
8
CONTOURS_MAJEURES
10
78.699
20
33.701
0
VERTEX
8
CONTOURS_MAJEURES
10
78.364
20
33.003
0
VERTEX
8
CONTOURS_MAJEURES
10
78.364
20
32.637
0
VERTEX
8
CONTOURS_MAJEURES
10
78.364
20
29.996
0
VERTEX
8
CONTOURS_MAJEURES
10
77.998
20
28.969
0
VERTEX
8
CONTOURS_MAJEURES
10
76.972
20
28.969
0
VERTEX
8
CONTOURS_MAJEURES
10
75.004
20
28.969
0
VERTEX
8
CONTOURS_MAJEURES
10
74.617
20
27.386
0
VERTEX
8
CONTOURS_MAJEURES
10
74.474
20
27.000
0
VERTEX
8
CONTOURS_MAJEURES
10
74.118
20
26.117
0
VERTEX
8
CONTOURS_MAJEURES
10
74.484
20
24.005
0
VERTEX
8
CONTOURS_MAJEURES
10
74.484
20
21.518
0
VERTEX
8
CONTOURS_MAJEURES
10
74.484
20
20.998
0
VERTEX
8
CONTOURS_MAJEURES
10
74.580
20
20.575
0
VERTEX
8
CONTOURS_MAJEURES
10
75.004
20
20.197
0
VERTEX
8
CONTOURS_MAJEURES
10
75.805
20
20.197
0
VERTEX
8
CONTOURS_MAJEURES
10
77.998
20
20.197
0
VERTEX
8
CONTOURS_MAJEURES
10
79.112
20
19.113
0
VERTEX
8
CONTOURS_MAJEURES
10
81.003
20
18.282
0
VERTEX
8
CONTOURS_MAJEURES
10
81.164
20
18.163
0
VERTEX
8
CONTOURS_MAJEURES
10
81.562
20
18.003
0
VERTEX
8
CONTOURS_MAJEURES
10
81.562
20
17.442
0
VERTEX
8
CONTOURS_MAJEURES
10
81.562
20
14.996
0
VERTEX
8
CONTOURS_MAJEURES
10
83.275
20
14.273
0
VERTEX
8
CONTOURS_MAJEURES
10
83.998
20
14.165
0
VERTEX
8
CONTOURS_MAJEURES
10
86.169
20
14.165
0
VERTEX
8
CONTOURS_MAJEURES
10
87.003
20
14.165
0
VERTEX
8
CONTOURS_MAJEURES
10
87.955
20
14.044
0
VERTEX
8
CONTOURS_MAJEURES
10
89.997
20
13.633
0
VERTEX
8
CONTOURS_MAJEURES
10
91.485
20
13.484
0
VERTEX
8
CONTOURS_MAJEURES
10
93.002
20
13.391
0
VERTEX
8
CONTOURS_MAJEURES
10
94.606
20
13.391
0
VERTEX
8
CONTOURS_MAJEURES
10
95.996
20
13.391
0
VERTEX
8
CONTOURS_MAJEURES
10
97.577
20
13.576
0
VERTEX
8
CONTOURS_MAJEURES
10
99.001
20
13.576
0
SEQEND
0
POLYLINE
8
PARCELLE
66
1
70
1
0
VERTEX
8
PARCELLE
10
63.323
20
67.530
0
VERTEX
8
PARCELLE
10
80.407
20
48.714
0
VERTEX
8
PARCELLE
10
63.951
20
35.769
0
VERTEX
8
PARCELLE
10
59.844
20
32.518
0
VERTEX
8
PARCELLE
10
56.464
20
30.038
0
VERTEX
8
PARCELLE
10
52.085
20
27.579
0
VERTEX
8
PARCELLE
10
46.767
20
25.336
0
VERTEX
8
PARCELLE
10
41.675
20
23.742
0
VERTEX
8
PARCELLE
10
36.506
20
22.497
0
VERTEX
8
PARCELLE
10
40.192
20
27.970
0
VERTEX
8
PARCELLE
10
36.838
20
29.677
0
VERTEX
8
PARCELLE
10
31.777
20
24.715
0
VERTEX
8
PARCELLE
10
32.241
20
21.724
0
VERTEX
8
PARCELLE
10
31.580
20
21.609
0
VERTEX
8
PARCELLE
10
20.000
20
20.000
0
VERTEX
8
PARCELLE
10
20.093
20
22.628
0
VERTEX
8
PARCELLE
10
20.828
20
24.479
0
VERTEX
8
PARCELLE
10
22.198
20
25.756
0
VERTEX
8
PARCELLE
10
24.352
20
27.446
0
VERTEX
8
PARCELLE
10
36.019
20
36.916
0
VERTEX
8
PARCELLE
10
47.468
20
46.468
0
VERTEX
8
PARCELLE
10
51.297
20
50.002
0
VERTEX
8
PARCELLE
10
53.414
20
52.122
0
VERTEX
8
PARCELLE
10
56.952
20
56.726
0
VERTEX
8
PARCELLE
10
61.520
20
63.690
0
VERTEX
8
PARCELLE
10
63.323
20
67.530
0
SEQEND
0
TEXT
8
POINTS_COTES
10
-0.003
20
-0.004
40
1.0
1
121.4
0
TEXT
8
POINTS_COTES
10
50.996
20
3.002
40
1.0
1
129.1
0
TEXT
8
POINTS_COTES
10
-0.003
20
9.005
40
1.0
1
124.1
0
TEXT
8
POINTS_COTES
10
50.996
20
12.000
40
1.0
1
131.9
0
TEXT
8
POINTS_COTES
10
-0.003
20
18.003
40
1.0
1
125.4
0
TEXT
8
POINTS_COTES
10
50.996
20
20.998
40
1.0
1
131.0
0
TEXT
8
POINTS_COTES
10
-0.003
20
27.000
40
1.0
1
126.3
0
TEXT
8
POINTS_COTES
10
50.996
20
29.996
40
1.0
1
131.8
0
TEXT
8
POINTS_COTES
10
-0.003
20
35.998
40
1.0
1
127.1
0
TEXT
8
POINTS_COTES
10
50.996
20
39.005
40
1.0
1
132.5
0
TEXT
8
POINTS_COTES
10
-0.003
20
44.996
40
1.0
1
128.7
0
TEXT
8
POINTS_COTES
10
50.996
20
48.003
40
1.0
1
132.3
0
TEXT
8
POINTS_COTES
10
-0.003
20
54.005
40
1.0
1
131.5
0
TEXT
8
POINTS_COTES
10
50.996
20
57.001
40
1.0
1
131.0
0
TEXT
8
POINTS_COTES
10
-0.003
20
63.003
40
1.0
1
134.6
0
TEXT
8
POINTS_COTES
10
50.996
20
65.999
40
1.0
1
131.6
0
TEXT
8
POINTS_COTES
10
-0.003
20
72.001
40
1.0
1
137.1
0
TEXT
8
POINTS_COTES
10
50.996
20
74.997
40
1.0
1
132.2
0
TEXT
8
POINTS_COTES
10
-0.003
20
80.999
40
1.0
1
138.5
0
TEXT
8
POINTS_COTES
10
50.996
20
83.995
40
1.0
1
133.7
0
ENDSEC
0
EOF
