0
SECTION
2
HEADER
0
ENDSEC
0
SECTION
2
TABLES
0
TABLE
2
LAYER
70
4
0
LAYER
2
CONTOURS_MINEURES
70
0
62
8
6
CONTINUOUS
0
LAYER
2
CONTOURS_MAJEURES
70
0
62
3
6
CONTINUOUS
0
LAYER
2
PARCELLE
70
0
62
4
6
CONTINUOUS
0
LAYER
2
POINTS_COTES
70
0
62
7
6
CONTINUOUS
0
ENDTAB
0
ENDSEC
0
SECTION
2
ENTITIES
0
POLYLINE
8
CONTOURS_MINEURES
66
1
70
0
0
VERTEX
8
CONTOURS_MINEURES
10
30.573
20
101.996
0
VERTEX
8
CONTOURS_MINEURES
10
31.302
20
100.299
0
VERTEX
8
CONTOURS_MINEURES
10
33.005
20
99.571
0
VERTEX
8
CONTOURS_MINEURES
10
35.428
20
99.571
0
VERTEX
8
CONTOURS_MINEURES
10
35.998
20
99.571
0
VERTEX
8
CONTOURS_MINEURES
10
36.201
20
99.204
0
VERTEX
8
CONTOURS_MINEURES
10
36.999
20
99.001
0
VERTEX
8
CONTOURS_MINEURES
10
36.999
20
98.002
0
VERTEX
8
CONTOURS_MINEURES
10
36.999
20
96.005
0
VERTEX
8
CONTOURS_MINEURES
10
35.998
20
94.669
0
VERTEX
8
CONTOURS_MINEURES
10
34.335
20
94.669
0
VERTEX
8
CONTOURS_MINEURES
10
33.005
20
94.669
0
VERTEX
8
CONTOURS_MINEURES
10
32.725
20
95.725
0
VERTEX
8
CONTOURS_MINEURES
10
30.001
20
95.253
0
VERTEX
8
CONTOURS_MINEURES
10
27.748
20
95.253
0
VERTEX
8
CONTOURS_MINEURES
10
26.997
20
95.253
0
VERTEX
8
CONTOURS_MINEURES
10
26.795
20
95.803
0
VERTEX
8
CONTOURS_MINEURES
10
26.643
20
96.005
0
VERTEX
8
CONTOURS_MINEURES
10
26.643
20
98.647
0
VERTEX
8
CONTOURS_MINEURES
10
26.643
20
99.001
0
VERTEX
8
CONTOURS_MINEURES
10
26.132
20
99.866
0
VERTEX
8
CONTOURS_MINEURES
10
26.664
20
101.996
0
SEQEND
0
POLYLINE
8
CONTOURS_MINEURES
66
1
70
0
0
VERTEX
8
CONTOURS_MINEURES
10
41.892
20
86.996
0
VERTEX
8
CONTOURS_MINEURES
10
41.892
20
89.899
0
VERTEX
8
CONTOURS_MINEURES
10
41.892
20
90.003
0
VERTEX
8
CONTOURS_MINEURES
10
41.247
20
90.752
0
VERTEX
8
CONTOURS_MINEURES
10
41.995
20
91.001
0
VERTEX
8
CONTOURS_MINEURES
10
42.996
20
91.001
0
VERTEX
8
CONTOURS_MINEURES
10
44.999
20
91.001
0
VERTEX
8
CONTOURS_MINEURES
10
48.003
20
90.003
0
VERTEX
8
CONTOURS_MINEURES
10
48.003
20
86.996
0
VERTEX
8
CONTOURS_MINEURES
10
44.999
20
86.952
0
VERTEX
8
CONTOURS_MINEURES
10
42.039
20
86.952
0
VERTEX
8
CONTOURS_MINEURES
10
41.995
20
86.952
0
VERTEX
8
CONTOURS_MINEURES
10
41.892
20
86.996
0
SEQEND
0
POLYLINE
8
CONTOURS_MINEURES
66
1
70
0
0
VERTEX
8
CONTOURS_MINEURES
10
53.777
20
83.779
0
VERTEX
8
CONTOURS_MINEURES
10
50.996
20
83.779
0
VERTEX
8
CONTOURS_MINEURES
10
50.946
20
83.951
0
VERTEX
8
CONTOURS_MINEURES
10
50.871
20
84.000
0
VERTEX
8
CONTOURS_MINEURES
10
50.996
20
84.353
0
VERTEX
8
CONTOURS_MINEURES
10
51.349
20
84.353
0
VERTEX
8
CONTOURS_MINEURES
10
54.000
20
84.353
0
VERTEX
8
CONTOURS_MINEURES
10
54.353
20
84.000
0
VERTEX
8
CONTOURS_MINEURES
10
54.375
20
83.626
0
VERTEX
8
CONTOURS_MINEURES
10
54.000
20
83.779
0
VERTEX
8
CONTOURS_MINEURES
10
53.777
20
83.779
0
SEQEND
0
POLYLINE
8
CONTOURS_MINEURES
66
1
70
0
0
VERTEX
8
CONTOURS_MINEURES
10
81.003
20
59.039
0
VERTEX
8
CONTOURS_MINEURES
10
80.041
20
59.039
0
VERTEX
8
CONTOURS_MINEURES
10
77.999
20
59.039
0
VERTEX
8
CONTOURS_MINEURES
10
75.466
20
59.531
0
VERTEX
8
CONTOURS_MINEURES
10
74.995
20
59.682
0
VERTEX
8
CONTOURS_MINEURES
10
74.698
20
59.704
0
VERTEX
8
CONTOURS_MINEURES
10
72.002
20
59.604
0
VERTEX
8
CONTOURS_MINEURES
10
71.604
20
59.604
0
VERTEX
8
CONTOURS_MINEURES
10
68.998
20
59.604
0
VERTEX
8
CONTOURS_MINEURES
10
67.459
20
60.002
0
VERTEX
8
CONTOURS_MINEURES
10
66.618
20
60.616
0
VERTEX
8
CONTOURS_MINEURES
10
66.005
20
60.774
0
VERTEX
8
CONTOURS_MINEURES
10
63.684
20
62.317
0
VERTEX
8
CONTOURS_MINEURES
10
63.001
20
62.793
0
VERTEX
8
CONTOURS_MINEURES
10
60.203
20
62.793
0
VERTEX
8
CONTOURS_MINEURES
10
59.997
20
62.793
0
VERTEX
8
CONTOURS_MINEURES
10
59.872
20
62.873
0
VERTEX
8
CONTOURS_MINEURES
10
59.770
20
62.998
0
VERTEX
8
CONTOURS_MINEURES
10
59.770
20
63.226
0
VERTEX
8
CONTOURS_MINEURES
10
59.770
20
66.005
0
VERTEX
8
CONTOURS_MINEURES
10
57.004
20
68.653
0
VERTEX
8
CONTOURS_MINEURES
10
56.679
20
69.000
0
VERTEX
8
CONTOURS_MINEURES
10
55.549
20
70.545
0
VERTEX
8
CONTOURS_MINEURES
10
54.000
20
71.825
0
VERTEX
8
CONTOURS_MINEURES
10
51.168
20
71.825
0
VERTEX
8
CONTOURS_MINEURES
10
50.996
20
71.825
0
VERTEX
8
CONTOURS_MINEURES
10
50.886
20
71.886
0
VERTEX
8
CONTOURS_MINEURES
10
50.860
20
71.996
0
VERTEX
8
CONTOURS_MINEURES
10
50.860
20
74.866
0
VERTEX
8
CONTOURS_MINEURES
10
50.860
20
75.002
0
VERTEX
8
CONTOURS_MINEURES
10
50.475
20
75.523
0
VERTEX
8
CONTOURS_MINEURES
10
48.608
20
77.998
0
VERTEX
8
CONTOURS_MINEURES
10
48.608
20
80.397
0
VERTEX
8
CONTOURS_MINEURES
10
48.608
20
81.005
0
VERTEX
8
CONTOURS_MINEURES
10
48.473
20
81.475
0
VERTEX
8
CONTOURS_MINEURES
10
48.003
20
81.785
0
VERTEX
8
CONTOURS_MINEURES
10
46.905
20
82.099
0
VERTEX
8
CONTOURS_MINEURES
10
44.999
20
83.148
0
VERTEX
8
CONTOURS_MINEURES
10
44.144
20
83.148
0
VERTEX
8
CONTOURS_MINEURES
10
41.995
20
83.148
0
VERTEX
8
CONTOURS_MINEURES
10
41.294
20
83.299
0
VERTEX
8
CONTOURS_MINEURES
10
39.002
20
83.893
0
VERTEX
8
CONTOURS_MINEURES
10
38.883
20
83.882
0
VERTEX
8
CONTOURS_MINEURES
10
38.501
20
84.000
0
VERTEX
8
CONTOURS_MINEURES
10
35.998
20
84.937
0
VERTEX
8
CONTOURS_MINEURES
10
33.940
20
84.937
0
VERTEX
8
CONTOURS_MINEURES
10
33.005
20
84.937
0
VERTEX
8
CONTOURS_MINEURES
10
30.511
20
86.996
0
VERTEX
8
CONTOURS_MINEURES
10
30.511
20
87.507
0
VERTEX
8
CONTOURS_MINEURES
10
30.511
20
90.003
0
VERTEX
8
CONTOURS_MINEURES
10
30.001
20
90.388
0
VERTEX
8
CONTOURS_MINEURES
10
27.383
20
90.388
0
VERTEX
8
CONTOURS_MINEURES
10
26.997
20
90.388
0
VERTEX
8
CONTOURS_MINEURES
10
26.170
20
92.172
0
VERTEX
8
CONTOURS_MINEURES
10
25.702
20
92.998
0
VERTEX
8
CONTOURS_MINEURES
10
25.244
20
94.245
0
VERTEX
8
CONTOURS_MINEURES
10
24.003
20
95.896
0
VERTEX
8
CONTOURS_MINEURES
10
23.967
20
96.005
0
VERTEX
8
CONTOURS_MINEURES
10
23.967
20
98.965
0
VERTEX
8
CONTOURS_MINEURES
10
23.967
20
99.001
0
VERTEX
8
CONTOURS_MINEURES
10
23.353
20
101.348
0
VERTEX
8
CONTOURS_MINEURES
10
23.100
20
101.996
0
SEQEND
0
POLYLINE
8
CONTOURS_MINEURES
66
1
70
0
0
VERTEX
8
CONTOURS_MINEURES
10
39.971
20
101.996
0
VERTEX
8
CONTOURS_MINEURES
10
40.482
20
100.482
0
VERTEX
8
CONTOURS_MINEURES
10
41.995
20
100.027
0
VERTEX
8
CONTOURS_MINEURES
10
43.970
20
100.027
0
VERTEX
8
CONTOURS_MINEURES
10
44.999
20
100.027
0
VERTEX
8
CONTOURS_MINEURES
10
46.268
20
99.001
0
VERTEX
8
CONTOURS_MINEURES
10
46.268
20
97.270
0
VERTEX
8
CONTOURS_MINEURES
10
46.268
20
96.005
0
VERTEX
8
CONTOURS_MINEURES
10
46.783
20
94.784
0
VERTEX
8
CONTOURS_MINEURES
10
48.003
20
94.556
0
VERTEX
8
CONTOURS_MINEURES
10
50.320
20
92.998
0
VERTEX
8
CONTOURS_MINEURES
10
50.996
20
92.405
0
VERTEX
8
CONTOURS_MINEURES
10
53.405
20
92.405
0
VERTEX
8
CONTOURS_MINEURES
10
54.000
20
92.405
0
VERTEX
8
CONTOURS_MINEURES
10
56.628
20
90.377
0
VERTEX
8
CONTOURS_MINEURES
10
57.004
20
90.057
0
VERTEX
8
CONTOURS_MINEURES
10
57.046
20
90.045
0
VERTEX
8
CONTOURS_MINEURES
10
57.066
20
90.003
0
VERTEX
8
CONTOURS_MINEURES
10
57.066
20
89.940
0
VERTEX
8
CONTOURS_MINEURES
10
57.066
20
86.996
0
VERTEX
8
CONTOURS_MINEURES
10
58.130
20
85.127
0
VERTEX
8
CONTOURS_MINEURES
10
59.142
20
84.000
0
VERTEX
8
CONTOURS_MINEURES
10
59.149
20
83.152
0
VERTEX
8
CONTOURS_MINEURES
10
59.713
20
81.005
0
VERTEX
8
CONTOURS_MINEURES
10
59.713
20
80.720
0
VERTEX
8
CONTOURS_MINEURES
10
59.713
20
77.998
0
VERTEX
8
CONTOURS_MINEURES
10
59.802
20
75.198
0
VERTEX
8
CONTOURS_MINEURES
10
59.733
20
75.002
0
VERTEX
8
CONTOURS_MINEURES
10
59.733
20
74.737
0
VERTEX
8
CONTOURS_MINEURES
10
59.733
20
71.996
0
VERTEX
8
CONTOURS_MINEURES
10
58.714
20
70.712
0
VERTEX
8
CONTOURS_MINEURES
10
59.997
20
69.749
0
VERTEX
8
CONTOURS_MINEURES
10
62.250
20
69.749
0
VERTEX
8
CONTOURS_MINEURES
10
63.001
20
69.749
0
VERTEX
8
CONTOURS_MINEURES
10
63.223
20
69.000
0
VERTEX
8
CONTOURS_MINEURES
10
66.005
20
67.988
0
VERTEX
8
CONTOURS_MINEURES
10
68.100
20
68.101
0
VERTEX
8
CONTOURS_MINEURES
10
68.998
20
68.277
0
VERTEX
8
CONTOURS_MINEURES
10
71.277
20
68.277
0
VERTEX
8
CONTOURS_MINEURES
10
72.002
20
68.277
0
VERTEX
8
CONTOURS_MINEURES
10
72.969
20
68.032
0
VERTEX
8
CONTOURS_MINEURES
10
74.995
20
67.502
0
VERTEX
8
CONTOURS_MINEURES
10
75.738
20
66.745
0
VERTEX
8
CONTOURS_MINEURES
10
77.398
20
66.005
0
VERTEX
8
CONTOURS_MINEURES
10
77.398
20
63.599
0
VERTEX
8
CONTOURS_MINEURES
10
77.398
20
62.998
0
VERTEX
8
CONTOURS_MINEURES
10
76.622
20
61.625
0
VERTEX
8
CONTOURS_MINEURES
10
77.999
20
62.249
0
VERTEX
8
CONTOURS_MINEURES
10
78.750
20
62.249
0
VERTEX
8
CONTOURS_MINEURES
10
81.003
20
62.249
0
SEQEND
0
POLYLINE
8
CONTOURS_MINEURES
66
1
70
0
0
VERTEX
8
CONTOURS_MINEURES
10
81.003
20
52.833
0
VERTEX
8
CONTOURS_MINEURES
10
79.833
20
52.833
0
VERTEX
8
CONTOURS_MINEURES
10
77.999
20
52.833
0
VERTEX
8
CONTOURS_MINEURES
10
75.688
20
54.000
0
VERTEX
8
CONTOURS_MINEURES
10
75.688
20
54.691
0
VERTEX
8
CONTOURS_MINEURES
10
75.688
20
56.996
0
VERTEX
8
CONTOURS_MINEURES
10
74.995
20
57.217
0
VERTEX
8
CONTOURS_MINEURES
10
72.413
20
57.409
0
VERTEX
8
CONTOURS_MINEURES
10
72.002
20
57.393
0
VERTEX
8
CONTOURS_MINEURES
10
69.396
20
57.393
0
VERTEX
8
CONTOURS_MINEURES
10
68.998
20
57.393
0
VERTEX
8
CONTOURS_MINEURES
10
68.465
20
57.531
0
VERTEX
8
CONTOURS_MINEURES
10
66.005
20
57.556
0
VERTEX
8
CONTOURS_MINEURES
10
64.026
20
58.022
0
VERTEX
8
CONTOURS_MINEURES
10
63.001
20
58.719
0
VERTEX
8
CONTOURS_MINEURES
10
61.279
20
58.719
0
VERTEX
8
CONTOURS_MINEURES
10
59.997
20
58.719
0
VERTEX
8
CONTOURS_MINEURES
10
57.959
20
60.002
0
VERTEX
8
CONTOURS_MINEURES
10
57.378
20
60.377
0
VERTEX
8
CONTOURS_MINEURES
10
57.004
20
60.834
0
VERTEX
8
CONTOURS_MINEURES
10
54.511
20
62.998
0
VERTEX
8
CONTOURS_MINEURES
10
54.511
20
63.510
0
VERTEX
8
CONTOURS_MINEURES
10
54.511
20
66.005
0
VERTEX
8
CONTOURS_MINEURES
10
54.000
20
66.575
0
VERTEX
8
CONTOURS_MINEURES
10
51.568
20
66.575
0
VERTEX
8
CONTOURS_MINEURES
10
50.996
20
66.575
0
VERTEX
8
CONTOURS_MINEURES
10
48.386
20
69.000
0
VERTEX
8
CONTOURS_MINEURES
10
48.140
20
69.138
0
VERTEX
8
CONTOURS_MINEURES
10
48.003
20
69.713
0
VERTEX
8
CONTOURS_MINEURES
10
47.096
20
71.996
0
VERTEX
8
CONTOURS_MINEURES
10
47.096
20
72.903
0
VERTEX
8
CONTOURS_MINEURES
10
47.096
20
75.002
0
VERTEX
8
CONTOURS_MINEURES
10
44.999
20
77.055
0
VERTEX
8
CONTOURS_MINEURES
10
44.053
20
77.055
0
VERTEX
8
CONTOURS_MINEURES
10
41.995
20
77.055
0
VERTEX
8
CONTOURS_MINEURES
10
41.016
20
77.019
0
VERTEX
8
CONTOURS_MINEURES
10
39.960
20
77.998
0
VERTEX
8
CONTOURS_MINEURES
10
39.960
20
78.960
0
VERTEX
8
CONTOURS_MINEURES
10
39.960
20
81.005
0
VERTEX
8
CONTOURS_MINEURES
10
39.171
20
81.175
0
VERTEX
8
CONTOURS_MINEURES
10
39.002
20
81.219
0
VERTEX
8
CONTOURS_MINEURES
10
36.817
20
81.005
0
VERTEX
8
CONTOURS_MINEURES
10
36.817
20
78.818
0
VERTEX
8
CONTOURS_MINEURES
10
36.817
20
77.998
0
VERTEX
8
CONTOURS_MINEURES
10
36.235
20
77.762
0
VERTEX
8
CONTOURS_MINEURES
10
35.998
20
77.639
0
VERTEX
8
CONTOURS_MINEURES
10
33.364
20
77.639
0
VERTEX
8
CONTOURS_MINEURES
10
33.005
20
77.639
0
VERTEX
8
CONTOURS_MINEURES
10
32.785
20
77.779
0
VERTEX
8
CONTOURS_MINEURES
10
32.595
20
77.998
0
VERTEX
8
CONTOURS_MINEURES
10
32.595
20
78.408
0
VERTEX
8
CONTOURS_MINEURES
10
32.595
20
81.005
0
VERTEX
8
CONTOURS_MINEURES
10
30.577
20
81.580
0
VERTEX
8
CONTOURS_MINEURES
10
30.001
20
82.099
0
VERTEX
8
CONTOURS_MINEURES
10
28.903
20
82.099
0
VERTEX
8
CONTOURS_MINEURES
10
26.997
20
82.099
0
VERTEX
8
CONTOURS_MINEURES
10
26.200
20
83.203
0
VERTEX
8
CONTOURS_MINEURES
10
26.160
20
84.000
0
VERTEX
8
CONTOURS_MINEURES
10
25.935
20
85.063
0
VERTEX
8
CONTOURS_MINEURES
10
25.193
20
86.996
0
VERTEX
8
CONTOURS_MINEURES
10
25.193
20
88.191
0
VERTEX
8
CONTOURS_MINEURES
10
25.193
20
90.003
0
VERTEX
8
CONTOURS_MINEURES
10
24.816
20
90.816
0
VERTEX
8
CONTOURS_MINEURES
10
24.003
20
92.249
0
VERTEX
8
CONTOURS_MINEURES
10
23.801
20
92.797
0
VERTEX
8
CONTOURS_MINEURES
10
23.760
20
92.998
0
VERTEX
8
CONTOURS_MINEURES
10
23.642
20
93.361
0
VERTEX
8
CONTOURS_MINEURES
10
22.761
20
96.005
0
VERTEX
8
CONTOURS_MINEURES
10
22.761
20
97.762
0
VERTEX
8
CONTOURS_MINEURES
10
22.761
20
99.001
0
VERTEX
8
CONTOURS_MINEURES
10
22.396
20
100.394
0
VERTEX
8
CONTOURS_MINEURES
10
21.770
20
101.996
0
SEQEND
0
POLYLINE
8
CONTOURS_MINEURES
66
1
70
0
0
VERTEX
8
CONTOURS_MINEURES
10
45.170
20
101.996
0
VERTEX
8
CONTOURS_MINEURES
10
48.003
20
99.750
0
VERTEX
8
CONTOURS_MINEURES
10
48.689
20
99.687
0
VERTEX
8
CONTOURS_MINEURES
10
49.032
20
99.001
0
VERTEX
8
CONTOURS_MINEURES
10
49.032
20
97.971
0
VERTEX
8
CONTOURS_MINEURES
10
49.032
20
96.005
0
VERTEX
8
CONTOURS_MINEURES
10
50.996
20
94.671
0
VERTEX
8
CONTOURS_MINEURES
10
52.667
20
94.671
0
VERTEX
8
CONTOURS_MINEURES
10
54.000
20
94.671
0
VERTEX
8
CONTOURS_MINEURES
10
55.683
20
92.998
0
VERTEX
8
CONTOURS_MINEURES
10
57.004
20
91.873
0
VERTEX
8
CONTOURS_MINEURES
10
58.438
20
91.438
0
VERTEX
8
CONTOURS_MINEURES
10
59.145
20
90.003
0
VERTEX
8
CONTOURS_MINEURES
10
59.145
20
87.852
0
VERTEX
8
CONTOURS_MINEURES
10
59.145
20
86.996
0
VERTEX
8
CONTOURS_MINEURES
10
59.454
20
86.453
0
VERTEX
8
CONTOURS_MINEURES
10
59.997
20
85.848
0
VERTEX
8
CONTOURS_MINEURES
10
61.148
20
85.848
0
VERTEX
8
CONTOURS_MINEURES
10
63.001
20
85.848
0
VERTEX
8
CONTOURS_MINEURES
10
64.084
20
85.081
0
VERTEX
8
CONTOURS_MINEURES
10
64.427
20
84.000
0
VERTEX
8
CONTOURS_MINEURES
10
65.229
20
81.779
0
VERTEX
8
CONTOURS_MINEURES
10
65.399
20
81.005
0
VERTEX
8
CONTOURS_MINEURES
10
65.399
20
80.398
0
VERTEX
8
CONTOURS_MINEURES
10
65.399
20
77.998
0
VERTEX
8
CONTOURS_MINEURES
10
66.005
20
75.242
0
VERTEX
8
CONTOURS_MINEURES
10
66.059
20
75.057
0
VERTEX
8
CONTOURS_MINEURES
10
66.227
20
75.002
0
VERTEX
8
CONTOURS_MINEURES
10
66.227
20
74.780
0
VERTEX
8
CONTOURS_MINEURES
10
66.227
20
71.996
0
VERTEX
8
CONTOURS_MINEURES
10
68.998
20
71.276
0
VERTEX
8
CONTOURS_MINEURES
10
71.280
20
71.276
0
VERTEX
8
CONTOURS_MINEURES
10
72.002
20
71.276
0
VERTEX
8
CONTOURS_MINEURES
10
72.926
20
71.071
0
VERTEX
8
CONTOURS_MINEURES
10
74.995
20
70.824
0
VERTEX
8
CONTOURS_MINEURES
10
76.864
20
69.000
0
VERTEX
8
CONTOURS_MINEURES
10
77.425
20
68.428
0
VERTEX
8
CONTOURS_MINEURES
10
77.999
20
68.172
0
VERTEX
8
CONTOURS_MINEURES
10
78.830
20
68.172
0
VERTEX
8
CONTOURS_MINEURES
10
81.003
20
68.172
0
SEQEND
0
POLYLINE
8
CONTOURS_MINEURES
66
1
70
0
0
VERTEX
8
CONTOURS_MINEURES
10
81.003
20
43.749
0
VERTEX
8
CONTOURS_MINEURES
10
79.251
20
43.749
0
VERTEX
8
CONTOURS_MINEURES
10
77.999
20
43.749
0
VERTEX
8
CONTOURS_MINEURES
10
76.892
20
43.103
0
VERTEX
8
CONTOURS_MINEURES
10
74.995
20
42.425
0
VERTEX
8
CONTOURS_MINEURES
10
74.643
20
41.995
0
VERTEX
8
CONTOURS_MINEURES
10
74.643
20
41.643
0
VERTEX
8
CONTOURS_MINEURES
10
74.643
20
39.000
0
VERTEX
8
CONTOURS_MINEURES
10
74.365
20
36.635
0
VERTEX
8
CONTOURS_MINEURES
10
73.998
20
36.004
0
VERTEX
8
CONTOURS_MINEURES
10
73.411
20
34.589
0
VERTEX
8
CONTOURS_MINEURES
10
72.002
20
33.331
0
VERTEX
8
CONTOURS_MINEURES
10
69.332
20
33.331
0
VERTEX
8
CONTOURS_MINEURES
10
68.998
20
33.331
0
VERTEX
8
CONTOURS_MINEURES
10
68.822
20
32.997
0
VERTEX
8
CONTOURS_MINEURES
10
68.822
20
30.178
0
VERTEX
8
CONTOURS_MINEURES
10
68.822
20
30.002
0
VERTEX
8
CONTOURS_MINEURES
10
66.892
20
29.111
0
VERTEX
8
CONTOURS_MINEURES
10
66.082
20
26.995
0
VERTEX
8
CONTOURS_MINEURES
10
66.080
20
26.920
0
VERTEX
8
CONTOURS_MINEURES
10
66.005
20
25.996
0
VERTEX
8
CONTOURS_MINEURES
10
65.543
20
24.460
0
VERTEX
8
CONTOURS_MINEURES
10
63.001
20
24.460
0
VERTEX
8
CONTOURS_MINEURES
10
60.459
20
24.460
0
VERTEX
8
CONTOURS_MINEURES
10
59.997
20
24.460
0
VERTEX
8
CONTOURS_MINEURES
10
59.249
20
24.748
0
VERTEX
8
CONTOURS_MINEURES
10
57.004
20
26.415
0
VERTEX
8
CONTOURS_MINEURES
10
56.636
20
26.628
0
VERTEX
8
CONTOURS_MINEURES
10
56.003
20
26.995
0
VERTEX
8
CONTOURS_MINEURES
10
54.000
20
28.799
0
VERTEX
8
CONTOURS_MINEURES
10
52.798
20
28.799
0
VERTEX
8
CONTOURS_MINEURES
10
50.996
20
28.799
0
VERTEX
8
CONTOURS_MINEURES
10
49.799
20
30.002
0
VERTEX
8
CONTOURS_MINEURES
10
49.799
20
31.799
0
VERTEX
8
CONTOURS_MINEURES
10
49.799
20
32.997
0
VERTEX
8
CONTOURS_MINEURES
10
49.587
20
34.412
0
VERTEX
8
CONTOURS_MINEURES
10
49.499
20
36.004
0
VERTEX
8
CONTOURS_MINEURES
10
49.312
20
37.689
0
VERTEX
8
CONTOURS_MINEURES
10
49.312
20
39.000
0
VERTEX
8
CONTOURS_MINEURES
10
49.312
20
40.685
0
VERTEX
8
CONTOURS_MINEURES
10
49.312
20
41.995
0
VERTEX
8
CONTOURS_MINEURES
10
49.050
20
43.048
0
VERTEX
8
CONTOURS_MINEURES
10
48.003
20
44.626
0
VERTEX
8
CONTOURS_MINEURES
10
47.252
20
45.002
0
VERTEX
8
CONTOURS_MINEURES
10
47.252
20
45.751
0
VERTEX
8
CONTOURS_MINEURES
10
47.252
20
47.998
0
VERTEX
8
CONTOURS_MINEURES
10
45.499
20
48.499
0
VERTEX
8
CONTOURS_MINEURES
10
44.999
20
48.320
0
VERTEX
8
CONTOURS_MINEURES
10
42.317
20
48.320
0
VERTEX
8
CONTOURS_MINEURES
10
41.995
20
48.320
0
VERTEX
8
CONTOURS_MINEURES
10
40.872
20
47.998
0
VERTEX
8
CONTOURS_MINEURES
10
40.872
20
46.125
0
VERTEX
8
CONTOURS_MINEURES
10
40.872
20
45.002
0
VERTEX
8
CONTOURS_MINEURES
10
39.002
20
44.376
0
VERTEX
8
CONTOURS_MINEURES
10
37.371
20
43.627
0
VERTEX
8
CONTOURS_MINEURES
10
35.998
20
43.284
0
VERTEX
8
CONTOURS_MINEURES
10
34.287
20
43.284
0
VERTEX
8
CONTOURS_MINEURES
10
33.005
20
43.284
0
VERTEX
8
CONTOURS_MINEURES
10
31.002
20
44.000
0
VERTEX
8
CONTOURS_MINEURES
10
30.001
20
44.250
0
VERTEX
8
CONTOURS_MINEURES
10
27.748
20
44.250
0
VERTEX
8
CONTOURS_MINEURES
10
26.997
20
44.250
0
VERTEX
8
CONTOURS_MINEURES
10
26.452
20
44.455
0
VERTEX
8
CONTOURS_MINEURES
10
24.003
20
44.895
0
VERTEX
8
CONTOURS_MINEURES
10
23.574
20
45.002
0
VERTEX
8
CONTOURS_MINEURES
10
23.574
20
47.570
0
VERTEX
8
CONTOURS_MINEURES
10
23.574
20
47.998
0
VERTEX
8
CONTOURS_MINEURES
10
21.783
20
48.782
0
VERTEX
8
CONTOURS_MINEURES
10
21.000
20
49.125
0
VERTEX
8
CONTOURS_MINEURES
10
19.873
20
49.125
0
VERTEX
8
CONTOURS_MINEURES
10
17.996
20
49.125
0
VERTEX
8
CONTOURS_MINEURES
10
17.397
20
50.403
0
VERTEX
8
CONTOURS_MINEURES
10
17.528
20
51.004
0
VERTEX
8
CONTOURS_MINEURES
10
17.659
20
51.341
0
VERTEX
8
CONTOURS_MINEURES
10
17.573
20
54.000
0
VERTEX
8
CONTOURS_MINEURES
10
17.573
20
56.572
0
VERTEX
8
CONTOURS_MINEURES
10
17.573
20
56.996
0
VERTEX
8
CONTOURS_MINEURES
10
17.648
20
57.345
0
VERTEX
8
CONTOURS_MINEURES
10
17.721
20
60.002
0
VERTEX
8
CONTOURS_MINEURES
10
17.760
20
60.238
0
VERTEX
8
CONTOURS_MINEURES
10
17.996
20
61.364
0
VERTEX
8
CONTOURS_MINEURES
10
19.361
20
61.364
0
VERTEX
8
CONTOURS_MINEURES
10
21.000
20
61.364
0
VERTEX
8
CONTOURS_MINEURES
10
21.530
20
62.469
0
VERTEX
8
CONTOURS_MINEURES
10
21.621
20
62.998
0
VERTEX
8
CONTOURS_MINEURES
10
21.621
20
65.382
0
VERTEX
8
CONTOURS_MINEURES
10
21.621
20
66.005
0
VERTEX
8
CONTOURS_MINEURES
10
22.243
20
67.244
0
VERTEX
8
CONTOURS_MINEURES
10
23.180
20
69.000
0
VERTEX
8
CONTOURS_MINEURES
10
23.816
20
71.809
0
VERTEX
8
CONTOURS_MINEURES
10
23.856
20
71.996
0
VERTEX
8
CONTOURS_MINEURES
10
23.856
20
74.855
0
VERTEX
8
CONTOURS_MINEURES
10
23.856
20
75.002
0
VERTEX
8
CONTOURS_MINEURES
10
23.885
20
75.121
0
VERTEX
8
CONTOURS_MINEURES
10
23.674
20
77.998
0
VERTEX
8
CONTOURS_MINEURES
10
23.674
20
80.675
0
VERTEX
8
CONTOURS_MINEURES
10
23.674
20
81.005
0
VERTEX
8
CONTOURS_MINEURES
10
23.789
20
81.219
0
VERTEX
8
CONTOURS_MINEURES
10
23.662
20
84.000
0
VERTEX
8
CONTOURS_MINEURES
10
23.238
20
86.233
0
VERTEX
8
CONTOURS_MINEURES
10
23.450
20
86.996
0
VERTEX
8
CONTOURS_MINEURES
10
23.450
20
87.550
0
VERTEX
8
CONTOURS_MINEURES
10
23.450
20
90.003
0
VERTEX
8
CONTOURS_MINEURES
10
22.790
20
91.788
0
VERTEX
8
CONTOURS_MINEURES
10
22.544
20
92.998
0
VERTEX
8
CONTOURS_MINEURES
10
21.832
20
95.172
0
VERTEX
8
CONTOURS_MINEURES
10
21.554
20
96.005
0
VERTEX
8
CONTOURS_MINEURES
10
21.554
20
96.559
0
VERTEX
8
CONTOURS_MINEURES
10
21.554
20
99.001
0
VERTEX
8
CONTOURS_MINEURES
10
21.440
20
99.440
0
VERTEX
8
CONTOURS_MINEURES
10
21.000
20
100.567
0
VERTEX
8
CONTOURS_MINEURES
10
19.429
20
100.567
0
VERTEX
8
CONTOURS_MINEURES
10
17.996
20
100.567
0
VERTEX
8
CONTOURS_MINEURES
10
17.633
20
101.634
0
VERTEX
8
CONTOURS_MINEURES
10
17.523
20
101.996
0
SEQEND
0
POLYLINE
8
CONTOURS_MINEURES
66
1
70
0
0
VERTEX
8
CONTOURS_MINEURES
10
66.718
20
101.996
0
VERTEX
8
CONTOURS_MINEURES
10
66.005
20
101.115
0
VERTEX
8
CONTOURS_MINEURES
10
63.752
20
101.247
0
VERTEX
8
CONTOURS_MINEURES
10
63.001
20
101.140
0
VERTEX
8
CONTOURS_MINEURES
10
60.855
20
101.140
0
VERTEX
8
CONTOURS_MINEURES
10
59.997
20
101.140
0
VERTEX
8
CONTOURS_MINEURES
10
58.999
20
100.998
0
VERTEX
8
CONTOURS_MINEURES
10
58.667
20
101.996
0
SEQEND
0
POLYLINE
8
CONTOURS_MINEURES
66
1
70
0
0
VERTEX
8
CONTOURS_MINEURES
10
48.252
20
101.996
0
VERTEX
8
CONTOURS_MINEURES
10
50.767
20
101.768
0
VERTEX
8
CONTOURS_MINEURES
10
50.996
20
101.310
0
VERTEX
8
CONTOURS_MINEURES
10
51.684
20
101.310
0
VERTEX
8
CONTOURS_MINEURES
10
54.000
20
101.310
0
VERTEX
8
CONTOURS_MINEURES
10
56.470
20
99.001
0
VERTEX
8
CONTOURS_MINEURES
10
56.470
20
98.468
0
VERTEX
8
CONTOURS_MINEURES
10
56.470
20
96.005
0
VERTEX
8
CONTOURS_MINEURES
10
57.004
20
95.482
0
VERTEX
8
CONTOURS_MINEURES
10
59.373
20
95.379
0
VERTEX
8
CONTOURS_MINEURES
10
59.279
20
92.998
0
VERTEX
8
CONTOURS_MINEURES
10
59.830
20
92.831
0
VERTEX
8
CONTOURS_MINEURES
10
59.997
20
92.492
0
VERTEX
8
CONTOURS_MINEURES
10
60.505
20
92.492
0
VERTEX
8
CONTOURS_MINEURES
10
63.001
20
92.492
0
VERTEX
8
CONTOURS_MINEURES
10
65.244
20
92.240
0
VERTEX
8
CONTOURS_MINEURES
10
65.333
20
90.003
0
VERTEX
8
CONTOURS_MINEURES
10
65.333
20
87.669
0
VERTEX
8
CONTOURS_MINEURES
10
65.333
20
86.996
0
VERTEX
8
CONTOURS_MINEURES
10
65.726
20
86.718
0
VERTEX
8
CONTOURS_MINEURES
10
66.005
20
85.839
0
VERTEX
8
CONTOURS_MINEURES
10
67.176
20
85.173
0
VERTEX
8
CONTOURS_MINEURES
10
67.112
20
84.000
0
VERTEX
8
CONTOURS_MINEURES
10
67.879
20
82.880
0
VERTEX
8
CONTOURS_MINEURES
10
68.716
20
81.005
0
VERTEX
8
CONTOURS_MINEURES
10
68.716
20
78.281
0
VERTEX
8
CONTOURS_MINEURES
10
68.716
20
77.998
0
VERTEX
8
CONTOURS_MINEURES
10
68.780
20
77.780
0
VERTEX
8
CONTOURS_MINEURES
10
68.998
20
77.709
0
VERTEX
8
CONTOURS_MINEURES
10
69.288
20
77.709
0
VERTEX
8
CONTOURS_MINEURES
10
72.002
20
77.709
0
VERTEX
8
CONTOURS_MINEURES
10
72.335
20
77.665
0
VERTEX
8
CONTOURS_MINEURES
10
74.995
20
77.086
0
VERTEX
8
CONTOURS_MINEURES
10
76.653
20
76.655
0
VERTEX
8
CONTOURS_MINEURES
10
77.629
20
75.002
0
VERTEX
8
CONTOURS_MINEURES
10
77.629
20
72.366
0
VERTEX
8
CONTOURS_MINEURES
10
77.629
20
71.996
0
VERTEX
8
CONTOURS_MINEURES
10
77.999
20
71.636
0
VERTEX
8
CONTOURS_MINEURES
10
80.643
20
71.636
0
VERTEX
8
CONTOURS_MINEURES
10
81.003
20
71.636
0
SEQEND
0
POLYLINE
8
CONTOURS_MINEURES
66
1
70
0
0
VERTEX
8
CONTOURS_MINEURES
10
47.866
20
0.001
0
VERTEX
8
CONTOURS_MINEURES
10
47.335
20
2.331
0
VERTEX
8
CONTOURS_MINEURES
10
46.616
20
2.997
0
VERTEX
8
CONTOURS_MINEURES
10
44.999
20
5.628
0
VERTEX
8
CONTOURS_MINEURES
10
44.623
20
5.628
0
VERTEX
8
CONTOURS_MINEURES
10
41.995
20
5.628
0
VERTEX
8
CONTOURS_MINEURES
10
41.765
20
6.003
0
VERTEX
8
CONTOURS_MINEURES
10
41.765
20
8.769
0
VERTEX
8
CONTOURS_MINEURES
10
41.765
20
8.999
0
VERTEX
8
CONTOURS_MINEURES
10
41.396
20
11.396
0
VERTEX
8
CONTOURS_MINEURES
10
40.712
20
11.995
0
VERTEX
8
CONTOURS_MINEURES
10
40.712
20
13.713
0
VERTEX
8
CONTOURS_MINEURES
10
40.712
20
15.001
0
VERTEX
8
CONTOURS_MINEURES
10
39.002
20
16.000
0
VERTEX
8
CONTOURS_MINEURES
10
37.957
20
16.955
0
VERTEX
8
CONTOURS_MINEURES
10
37.909
20
17.997
0
VERTEX
8
CONTOURS_MINEURES
10
37.285
20
19.715
0
VERTEX
8
CONTOURS_MINEURES
10
36.781
20
21.004
0
VERTEX
8
CONTOURS_MINEURES
10
36.781
20
23.218
0
VERTEX
8
CONTOURS_MINEURES
10
36.781
20
23.999
0
VERTEX
8
CONTOURS_MINEURES
10
36.407
20
24.408
0
VERTEX
8
CONTOURS_MINEURES
10
35.998
20
24.748
0
VERTEX
8
CONTOURS_MINEURES
10
35.249
20
24.748
0
VERTEX
8
CONTOURS_MINEURES
10
33.005
20
24.748
0
VERTEX
8
CONTOURS_MINEURES
10
31.803
20
25.797
0
VERTEX
8
CONTOURS_MINEURES
10
30.752
20
26.995
0
VERTEX
8
CONTOURS_MINEURES
10
30.001
20
27.435
0
VERTEX
8
CONTOURS_MINEURES
10
27.436
20
27.435
0
VERTEX
8
CONTOURS_MINEURES
10
26.997
20
27.435
0
VERTEX
8
CONTOURS_MINEURES
10
26.355
20
27.639
0
VERTEX
8
CONTOURS_MINEURES
10
24.003
20
28.112
0
VERTEX
8
CONTOURS_MINEURES
10
22.309
20
28.306
0
VERTEX
8
CONTOURS_MINEURES
10
21.000
20
29.217
0
VERTEX
8
CONTOURS_MINEURES
10
20.216
20
29.217
0
VERTEX
8
CONTOURS_MINEURES
10
17.996
20
29.217
0
VERTEX
8
CONTOURS_MINEURES
10
15.317
20
29.685
0
VERTEX
8
CONTOURS_MINEURES
10
15.169
20
26.995
0
VERTEX
8
CONTOURS_MINEURES
10
15.002
20
26.765
0
VERTEX
8
CONTOURS_MINEURES
10
12.428
20
26.567
0
VERTEX
8
CONTOURS_MINEURES
10
11.998
20
26.802
0
VERTEX
8
CONTOURS_MINEURES
10
9.198
20
26.802
0
VERTEX
8
CONTOURS_MINEURES
10
9.005
20
26.802
0
VERTEX
8
CONTOURS_MINEURES
10
8.958
20
26.995
0
VERTEX
8
CONTOURS_MINEURES
10
8.784
20
29.781
0
VERTEX
8
CONTOURS_MINEURES
10
8.459
20
30.002
0
VERTEX
8
CONTOURS_MINEURES
10
8.459
20
30.546
0
VERTEX
8
CONTOURS_MINEURES
10
8.459
20
32.997
0
VERTEX
8
CONTOURS_MINEURES
10
8.415
20
35.413
0
VERTEX
8
CONTOURS_MINEURES
10
7.169
20
36.004
0
VERTEX
8
CONTOURS_MINEURES
10
7.169
20
37.169
0
VERTEX
8
CONTOURS_MINEURES
10
7.781
20
39.000
0
VERTEX
8
CONTOURS_MINEURES
10
7.781
20
40.775
0
VERTEX
8
CONTOURS_MINEURES
10
7.781
20
41.995
0
VERTEX
8
CONTOURS_MINEURES
10
8.582
20
42.419
0
VERTEX
8
CONTOURS_MINEURES
10
8.918
20
45.002
0
VERTEX
8
CONTOURS_MINEURES
10
8.918
20
47.911
0
VERTEX
8
CONTOURS_MINEURES
10
8.918
20
47.998
0
VERTEX
8
CONTOURS_MINEURES
10
8.964
20
48.039
0
VERTEX
8
CONTOURS_MINEURES
10
9.005
20
48.118
0
VERTEX
8
CONTOURS_MINEURES
10
9.125
20
48.118
0
VERTEX
8
CONTOURS_MINEURES
10
11.998
20
48.118
0
VERTEX
8
CONTOURS_MINEURES
10
13.334
20
49.668
0
VERTEX
8
CONTOURS_MINEURES
10
13.532
20
51.004
0
VERTEX
8
CONTOURS_MINEURES
10
14.259
20
51.745
0
VERTEX
8
CONTOURS_MINEURES
10
14.611
20
54.000
0
VERTEX
8
CONTOURS_MINEURES
10
14.611
20
56.605
0
VERTEX
8
CONTOURS_MINEURES
10
14.611
20
56.996
0
VERTEX
8
CONTOURS_MINEURES
10
14.981
20
59.981
0
VERTEX
8
CONTOURS_MINEURES
10
14.985
20
60.002
0
VERTEX
8
CONTOURS_MINEURES
10
15.002
20
60.169
0
VERTEX
8
CONTOURS_MINEURES
10
15.403
20
62.597
0
VERTEX
8
CONTOURS_MINEURES
10
15.487
20
62.998
0
VERTEX
8
CONTOURS_MINEURES
10
15.487
20
63.485
0
VERTEX
8
CONTOURS_MINEURES
10
15.487
20
66.005
0
VERTEX
8
CONTOURS_MINEURES
10
15.922
20
68.080
0
VERTEX
8
CONTOURS_MINEURES
10
16.244
20
69.000
0
VERTEX
8
CONTOURS_MINEURES
10
16.444
20
70.443
0
VERTEX
8
CONTOURS_MINEURES
10
16.863
20
71.996
0
VERTEX
8
CONTOURS_MINEURES
10
16.863
20
73.865
0
VERTEX
8
CONTOURS_MINEURES
10
16.863
20
75.002
0
VERTEX
8
CONTOURS_MINEURES
10
17.154
20
77.156
0
VERTEX
8
CONTOURS_MINEURES
10
17.392
20
77.998
0
VERTEX
8
CONTOURS_MINEURES
10
17.392
20
78.604
0
VERTEX
8
CONTOURS_MINEURES
10
17.392
20
81.005
0
VERTEX
8
CONTOURS_MINEURES
10
17.996
20
82.843
0
VERTEX
8
CONTOURS_MINEURES
10
19.839
20
82.843
0
VERTEX
8
CONTOURS_MINEURES
10
21.000
20
82.843
0
VERTEX
8
CONTOURS_MINEURES
10
21.405
20
83.596
0
VERTEX
8
CONTOURS_MINEURES
10
21.386
20
84.000
0
VERTEX
8
CONTOURS_MINEURES
10
21.325
20
84.325
0
VERTEX
8
CONTOURS_MINEURES
10
22.065
20
86.996
0
VERTEX
8
CONTOURS_MINEURES
10
22.065
20
88.936
0
VERTEX
8
CONTOURS_MINEURES
10
22.065
20
90.003
0
VERTEX
8
CONTOURS_MINEURES
10
21.778
20
90.779
0
VERTEX
8
CONTOURS_MINEURES
10
21.328
20
92.998
0
VERTEX
8
CONTOURS_MINEURES
10
21.000
20
94.001
0
VERTEX
8
CONTOURS_MINEURES
10
18.997
20
94.001
0
VERTEX
8
CONTOURS_MINEURES
10
17.996
20
94.001
0
VERTEX
8
CONTOURS_MINEURES
10
17.372
20
96.005
0
VERTEX
8
CONTOURS_MINEURES
10
17.372
20
98.376
0
VERTEX
8
CONTOURS_MINEURES
10
17.372
20
99.001
0
VERTEX
8
CONTOURS_MINEURES
10
16.771
20
100.770
0
VERTEX
8
CONTOURS_MINEURES
10
16.398
20
101.996
0
SEQEND
0
POLYLINE
8
CONTOURS_MINEURES
66
1
70
0
0
VERTEX
8
CONTOURS_MINEURES
10
22.757
20
0.001
0
VERTEX
8
CONTOURS_MINEURES
10
21.000
20
2.581
0
VERTEX
8
CONTOURS_MINEURES
10
18.413
20
2.581
0
VERTEX
8
CONTOURS_MINEURES
10
17.996
20
2.581
0
VERTEX
8
CONTOURS_MINEURES
10
17.854
20
2.855
0
VERTEX
8
CONTOURS_MINEURES
10
17.315
20
2.997
0
VERTEX
8
CONTOURS_MINEURES
10
15.002
20
4.158
0
VERTEX
8
CONTOURS_MINEURES
10
14.091
20
6.003
0
VERTEX
8
CONTOURS_MINEURES
10
14.091
20
6.912
0
VERTEX
8
CONTOURS_MINEURES
10
14.091
20
8.999
0
VERTEX
8
CONTOURS_MINEURES
10
13.807
20
10.802
0
VERTEX
8
CONTOURS_MINEURES
10
11.998
20
11.995
0
VERTEX
8
CONTOURS_MINEURES
10
11.998
20
15.001
0
VERTEX
8
CONTOURS_MINEURES
10
9.005
20
15.001
0
VERTEX
8
CONTOURS_MINEURES
10
8.383
20
17.997
0
VERTEX
8
CONTOURS_MINEURES
10
8.053
20
20.051
0
VERTEX
8
CONTOURS_MINEURES
10
7.758
20
21.004
0
VERTEX
8
CONTOURS_MINEURES
10
7.758
20
22.248
0
VERTEX
8
CONTOURS_MINEURES
10
7.758
20
23.999
0
VERTEX
8
CONTOURS_MINEURES
10
6.806
20
26.192
0
VERTEX
8
CONTOURS_MINEURES
10
6.611
20
26.995
0
VERTEX
8
CONTOURS_MINEURES
10
6.576
20
27.570
0
VERTEX
8
CONTOURS_MINEURES
10
6.001
20
27.960
0
VERTEX
8
CONTOURS_MINEURES
10
5.150
20
30.002
0
VERTEX
8
CONTOURS_MINEURES
10
5.150
20
32.148
0
VERTEX
8
CONTOURS_MINEURES
10
5.150
20
32.997
0
VERTEX
8
CONTOURS_MINEURES
10
3.248
20
35.753
0
VERTEX
8
CONTOURS_MINEURES
10
3.151
20
36.004
0
VERTEX
8
CONTOURS_MINEURES
10
3.166
20
36.172
0
VERTEX
8
CONTOURS_MINEURES
10
4.045
20
39.000
0
VERTEX
8
CONTOURS_MINEURES
10
4.045
20
40.950
0
VERTEX
8
CONTOURS_MINEURES
10
4.045
20
41.995
0
VERTEX
8
CONTOURS_MINEURES
10
4.666
20
43.332
0
VERTEX
8
CONTOURS_MINEURES
10
5.283
20
45.002
0
VERTEX
8
CONTOURS_MINEURES
10
5.283
20
45.718
0
VERTEX
8
CONTOURS_MINEURES
10
5.283
20
47.998
0
VERTEX
8
CONTOURS_MINEURES
10
6.001
20
49.321
0
VERTEX
8
CONTOURS_MINEURES
10
6.877
20
50.127
0
VERTEX
8
CONTOURS_MINEURES
10
7.343
20
51.004
0
VERTEX
8
CONTOURS_MINEURES
10
9.005
20
52.697
0
VERTEX
8
CONTOURS_MINEURES
10
10.307
20
52.697
0
VERTEX
8
CONTOURS_MINEURES
10
11.998
20
52.697
0
VERTEX
8
CONTOURS_MINEURES
10
12.644
20
53.356
0
VERTEX
8
CONTOURS_MINEURES
10
12.745
20
54.000
0
VERTEX
8
CONTOURS_MINEURES
10
12.745
20
54.744
0
VERTEX
8
CONTOURS_MINEURES
10
12.745
20
56.996
0
VERTEX
8
CONTOURS_MINEURES
10
12.851
20
57.848
0
VERTEX
8
CONTOURS_MINEURES
10
13.238
20
60.002
0
VERTEX
8
CONTOURS_MINEURES
10
13.383
20
61.383
0
VERTEX
8
CONTOURS_MINEURES
10
13.234
20
62.998
0
VERTEX
8
CONTOURS_MINEURES
10
13.234
20
64.768
0
VERTEX
8
CONTOURS_MINEURES
10
13.234
20
66.005
0
VERTEX
8
CONTOURS_MINEURES
10
13.463
20
67.465
0
VERTEX
8
CONTOURS_MINEURES
10
13.635
20
69.000
0
VERTEX
8
CONTOURS_MINEURES
10
13.955
20
70.044
0
VERTEX
8
CONTOURS_MINEURES
10
14.360
20
71.996
0
VERTEX
8
CONTOURS_MINEURES
10
14.360
20
72.639
0
VERTEX
8
CONTOURS_MINEURES
10
14.360
20
75.002
0
VERTEX
8
CONTOURS_MINEURES
10
14.550
20
75.453
0
VERTEX
8
CONTOURS_MINEURES
10
15.002
20
77.446
0
VERTEX
8
CONTOURS_MINEURES
10
15.159
20
77.998
0
VERTEX
8
CONTOURS_MINEURES
10
15.159
20
80.848
0
VERTEX
8
CONTOURS_MINEURES
10
15.159
20
81.005
0
VERTEX
8
CONTOURS_MINEURES
10
15.235
20
81.238
0
VERTEX
8
CONTOURS_MINEURES
10
16.517
20
84.000
0
VERTEX
8
CONTOURS_MINEURES
10
17.092
20
84.905
0
VERTEX
8
CONTOURS_MINEURES
10
17.675
20
86.996
0
VERTEX
8
CONTOURS_MINEURES
10
17.675
20
87.318
0
VERTEX
8
CONTOURS_MINEURES
10
17.675
20
90.003
0
VERTEX
8
CONTOURS_MINEURES
10
17.665
20
90.334
0
VERTEX
8
CONTOURS_MINEURES
10
17.149
20
92.998
0
VERTEX
8
CONTOURS_MINEURES
10
16.768
20
94.231
0
VERTEX
8
CONTOURS_MINEURES
10
16.216
20
96.005
0
VERTEX
8
CONTOURS_MINEURES
10
16.216
20
97.220
0
VERTEX
8
CONTOURS_MINEURES
10
16.216
20
99.001
0
VERTEX
8
CONTOURS_MINEURES
10
15.908
20
99.907
0
VERTEX
8
CONTOURS_MINEURES
10
15.272
20
101.996
0
SEQEND
0
POLYLINE
8
CONTOURS_MINEURES
66
1
70
0
0
VERTEX
8
CONTOURS_MINEURES
10
0.004
20
44.751
0
VERTEX
8
CONTOURS_MINEURES
10
2.748
20
44.751
0
VERTEX
8
CONTOURS_MINEURES
10
2.997
20
44.751
0
VERTEX
8
CONTOURS_MINEURES
10
3.077
20
44.922
0
VERTEX
8
CONTOURS_MINEURES
10
3.106
20
45.002
0
VERTEX
8
CONTOURS_MINEURES
10
3.106
20
47.889
0
VERTEX
8
CONTOURS_MINEURES
10
3.106
20
47.998
0
VERTEX
8
CONTOURS_MINEURES
10
3.236
20
48.236
0
VERTEX
8
CONTOURS_MINEURES
10
4.205
20
51.004
0
VERTEX
8
CONTOURS_MINEURES
10
4.982
20
52.020
0
VERTEX
8
CONTOURS_MINEURES
10
6.001
20
52.584
0
VERTEX
8
CONTOURS_MINEURES
10
7.396
20
54.000
0
VERTEX
8
CONTOURS_MINEURES
10
7.396
20
55.605
0
VERTEX
8
CONTOURS_MINEURES
10
7.396
20
56.996
0
VERTEX
8
CONTOURS_MINEURES
10
7.939
20
58.063
0
VERTEX
8
CONTOURS_MINEURES
10
8.374
20
60.002
0
VERTEX
8
CONTOURS_MINEURES
10
8.170
20
62.165
0
VERTEX
8
CONTOURS_MINEURES
10
8.104
20
62.998
0
VERTEX
8
CONTOURS_MINEURES
10
8.104
20
65.103
0
VERTEX
8
CONTOURS_MINEURES
10
8.104
20
66.005
0
VERTEX
8
CONTOURS_MINEURES
10
8.186
20
66.822
0
VERTEX
8
CONTOURS_MINEURES
10
8.422
20
69.000
0
VERTEX
8
CONTOURS_MINEURES
10
8.572
20
69.433
0
VERTEX
8
CONTOURS_MINEURES
10
9.005
20
70.973
0
VERTEX
8
CONTOURS_MINEURES
10
10.027
20
70.973
0
VERTEX
8
CONTOURS_MINEURES
10
11.998
20
70.973
0
VERTEX
8
CONTOURS_MINEURES
10
12.239
20
71.756
0
VERTEX
8
CONTOURS_MINEURES
10
12.288
20
71.996
0
VERTEX
8
CONTOURS_MINEURES
10
12.288
20
74.712
0
VERTEX
8
CONTOURS_MINEURES
10
12.288
20
75.002
0
VERTEX
8
CONTOURS_MINEURES
10
13.092
20
76.907
0
VERTEX
8
CONTOURS_MINEURES
10
13.339
20
77.998
0
VERTEX
8
CONTOURS_MINEURES
10
13.339
20
79.340
0
VERTEX
8
CONTOURS_MINEURES
10
13.339
20
81.005
0
VERTEX
8
CONTOURS_MINEURES
10
13.987
20
82.018
0
VERTEX
8
CONTOURS_MINEURES
10
14.774
20
84.000
0
VERTEX
8
CONTOURS_MINEURES
10
15.002
20
84.420
0
VERTEX
8
CONTOURS_MINEURES
10
16.004
20
85.994
0
VERTEX
8
CONTOURS_MINEURES
10
16.283
20
86.996
0
VERTEX
8
CONTOURS_MINEURES
10
16.283
20
88.716
0
VERTEX
8
CONTOURS_MINEURES
10
16.283
20
90.003
0
VERTEX
8
CONTOURS_MINEURES
10
16.226
20
91.774
0
VERTEX
8
CONTOURS_MINEURES
10
15.989
20
92.998
0
VERTEX
8
CONTOURS_MINEURES
10
15.086
20
95.921
0
VERTEX
8
CONTOURS_MINEURES
10
15.060
20
96.005
0
VERTEX
8
CONTOURS_MINEURES
10
15.060
20
96.063
0
VERTEX
8
CONTOURS_MINEURES
10
15.060
20
99.001
0
VERTEX
8
CONTOURS_MINEURES
10
15.046
20
99.044
0
VERTEX
8
CONTOURS_MINEURES
10
15.002
20
99.186
0
VERTEX
8
CONTOURS_MINEURES
10
14.193
20
101.996
0
SEQEND
0
POLYLINE
8
CONTOURS_MINEURES
66
1
70
0
0
VERTEX
8
CONTOURS_MINEURES
10
15.045
20
0.001
0
VERTEX
8
CONTOURS_MINEURES
10
15.031
20
0.029
0
VERTEX
8
CONTOURS_MINEURES
10
15.002
20
0.037
0
VERTEX
8
CONTOURS_MINEURES
10
13.928
20
1.925
0
VERTEX
8
CONTOURS_MINEURES
10
13.283
20
2.997
0
VERTEX
8
CONTOURS_MINEURES
10
11.998
20
4.861
0
VERTEX
8
CONTOURS_MINEURES
10
10.861
20
4.861
0
VERTEX
8
CONTOURS_MINEURES
10
9.005
20
4.861
0
VERTEX
8
CONTOURS_MINEURES
10
8.618
20
6.003
0
VERTEX
8
CONTOURS_MINEURES
10
8.618
20
8.613
0
VERTEX
8
CONTOURS_MINEURES
10
8.618
20
8.999
0
VERTEX
8
CONTOURS_MINEURES
10
8.338
20
9.665
0
VERTEX
8
CONTOURS_MINEURES
10
7.716
20
11.995
0
VERTEX
8
CONTOURS_MINEURES
10
7.716
20
13.711
0
VERTEX
8
CONTOURS_MINEURES
10
7.716
20
15.001
0
VERTEX
8
CONTOURS_MINEURES
10
7.042
20
16.959
0
VERTEX
8
CONTOURS_MINEURES
10
6.826
20
17.997
0
VERTEX
8
CONTOURS_MINEURES
10
6.712
20
18.708
0
VERTEX
8
CONTOURS_MINEURES
10
6.001
20
21.004
0
VERTEX
8
CONTOURS_MINEURES
10
6.001
20
23.999
0
VERTEX
8
CONTOURS_MINEURES
10
5.472
20
26.467
0
VERTEX
8
CONTOURS_MINEURES
10
5.248
20
26.995
0
VERTEX
8
CONTOURS_MINEURES
10
4.034
20
28.964
0
VERTEX
8
CONTOURS_MINEURES
10
3.601
20
30.002
0
VERTEX
8
CONTOURS_MINEURES
10
3.601
20
30.604
0
VERTEX
8
CONTOURS_MINEURES
10
3.601
20
32.997
0
VERTEX
8
CONTOURS_MINEURES
10
2.997
20
33.872
0
VERTEX
8
CONTOURS_MINEURES
10
0.875
20
33.872
0
VERTEX
8
CONTOURS_MINEURES
10
0.004
20
33.872
0
SEQEND
0
POLYLINE
8
CONTOURS_MINEURES
66
1
70
0
0
VERTEX
8
CONTOURS_MINEURES
10
0.004
20
53.474
0
VERTEX
8
CONTOURS_MINEURES
10
0.530
20
53.474
0
VERTEX
8
CONTOURS_MINEURES
10
2.997
20
53.474
0
VERTEX
8
CONTOURS_MINEURES
10
3.226
20
53.772
0
VERTEX
8
CONTOURS_MINEURES
10
3.638
20
54.000
0
VERTEX
8
CONTOURS_MINEURES
10
3.638
20
54.638
0
VERTEX
8
CONTOURS_MINEURES
10
3.638
20
56.996
0
VERTEX
8
CONTOURS_MINEURES
10
6.001
20
59.527
0
VERTEX
8
CONTOURS_MINEURES
10
6.161
20
59.842
0
VERTEX
8
CONTOURS_MINEURES
10
6.197
20
60.002
0
VERTEX
8
CONTOURS_MINEURES
10
6.180
20
60.181
0
VERTEX
8
CONTOURS_MINEURES
10
6.001
20
62.453
0
VERTEX
8
CONTOURS_MINEURES
10
5.958
20
62.998
0
VERTEX
8
CONTOURS_MINEURES
10
5.958
20
65.962
0
VERTEX
8
CONTOURS_MINEURES
10
5.958
20
66.005
0
VERTEX
8
CONTOURS_MINEURES
10
5.962
20
66.043
0
VERTEX
8
CONTOURS_MINEURES
10
6.001
20
66.432
0
VERTEX
8
CONTOURS_MINEURES
10
6.235
20
68.767
0
VERTEX
8
CONTOURS_MINEURES
10
6.261
20
69.000
0
VERTEX
8
CONTOURS_MINEURES
10
6.965
20
71.035
0
VERTEX
8
CONTOURS_MINEURES
10
7.236
20
71.996
0
VERTEX
8
CONTOURS_MINEURES
10
7.236
20
73.767
0
VERTEX
8
CONTOURS_MINEURES
10
7.236
20
75.002
0
VERTEX
8
CONTOURS_MINEURES
10
8.122
20
77.117
0
VERTEX
8
CONTOURS_MINEURES
10
8.571
20
77.998
0
VERTEX
8
CONTOURS_MINEURES
10
8.571
20
80.570
0
VERTEX
8
CONTOURS_MINEURES
10
8.571
20
81.005
0
VERTEX
8
CONTOURS_MINEURES
10
8.747
20
81.262
0
VERTEX
8
CONTOURS_MINEURES
10
9.005
20
81.705
0
VERTEX
8
CONTOURS_MINEURES
10
9.705
20
81.705
0
VERTEX
8
CONTOURS_MINEURES
10
11.998
20
81.705
0
VERTEX
8
CONTOURS_MINEURES
10
12.894
20
83.107
0
VERTEX
8
CONTOURS_MINEURES
10
13.249
20
84.000
0
VERTEX
8
CONTOURS_MINEURES
10
14.735
20
86.730
0
VERTEX
8
CONTOURS_MINEURES
10
14.887
20
86.996
0
VERTEX
8
CONTOURS_MINEURES
10
14.887
20
87.112
0
VERTEX
8
CONTOURS_MINEURES
10
14.887
20
90.003
0
VERTEX
8
CONTOURS_MINEURES
10
14.793
20
92.789
0
VERTEX
8
CONTOURS_MINEURES
10
14.820
20
92.998
0
VERTEX
8
CONTOURS_MINEURES
10
14.130
20
95.132
0
VERTEX
8
CONTOURS_MINEURES
10
13.870
20
96.005
0
VERTEX
8
CONTOURS_MINEURES
10
13.870
20
97.134
0
VERTEX
8
CONTOURS_MINEURES
10
13.870
20
99.001
0
VERTEX
8
CONTOURS_MINEURES
10
13.583
20
100.417
0
VERTEX
8
CONTOURS_MINEURES
10
13.128
20
101.996
0
SEQEND
0
POLYLINE
8
CONTOURS_MINEURES
66
1
70
0
0
VERTEX
8
CONTOURS_MINEURES
10
12.993
20
0.001
0
VERTEX
8
CONTOURS_MINEURES
10
12.633
20
0.634
0
VERTEX
8
CONTOURS_MINEURES
10
11.998
20
1.688
0
VERTEX
8
CONTOURS_MINEURES
10
10.313
20
1.688
0
VERTEX
8
CONTOURS_MINEURES
10
9.005
20
1.688
0
VERTEX
8
CONTOURS_MINEURES
10
8.658
20
2.651
0
VERTEX
8
CONTOURS_MINEURES
10
8.579
20
2.997
0
VERTEX
8
CONTOURS_MINEURES
10
8.420
20
3.583
0
VERTEX
8
CONTOURS_MINEURES
10
7.600
20
6.003
0
VERTEX
8
CONTOURS_MINEURES
10
7.600
20
7.598
0
VERTEX
8
CONTOURS_MINEURES
10
7.600
20
8.999
0
VERTEX
8
CONTOURS_MINEURES
10
6.581
20
11.417
0
VERTEX
8
CONTOURS_MINEURES
10
6.427
20
11.995
0
VERTEX
8
CONTOURS_MINEURES
10
6.427
20
12.421
0
VERTEX
8
CONTOURS_MINEURES
10
6.427
20
15.001
0
VERTEX
8
CONTOURS_MINEURES
10
6.001
20
16.237
0
VERTEX
8
CONTOURS_MINEURES
10
5.634
20
17.630
0
VERTEX
8
CONTOURS_MINEURES
10
5.588
20
17.997
0
VERTEX
8
CONTOURS_MINEURES
10
5.519
20
18.479
0
VERTEX
8
CONTOURS_MINEURES
10
5.133
20
21.004
0
VERTEX
8
CONTOURS_MINEURES
10
5.133
20
21.869
0
VERTEX
8
CONTOURS_MINEURES
10
5.133
20
23.999
0
VERTEX
8
CONTOURS_MINEURES
10
4.757
20
25.754
0
VERTEX
8
CONTOURS_MINEURES
10
4.229
20
26.995
0
VERTEX
8
CONTOURS_MINEURES
10
2.997
20
28.994
0
VERTEX
8
CONTOURS_MINEURES
10
1.994
20
28.994
0
VERTEX
8
CONTOURS_MINEURES
10
0.004
20
28.994
0
SEQEND
0
POLYLINE
8
CONTOURS_MINEURES
66
1
70
0
0
VERTEX
8
CONTOURS_MINEURES
10
0.004
20
59.560
0
VERTEX
8
CONTOURS_MINEURES
10
2.557
20
59.560
0
VERTEX
8
CONTOURS_MINEURES
10
2.997
20
59.560
0
VERTEX
8
CONTOURS_MINEURES
10
3.422
20
60.002
0
VERTEX
8
CONTOURS_MINEURES
10
3.882
20
62.115
0
VERTEX
8
CONTOURS_MINEURES
10
3.813
20
62.998
0
VERTEX
8
CONTOURS_MINEURES
10
3.813
20
63.814
0
VERTEX
8
CONTOURS_MINEURES
10
3.813
20
66.005
0
VERTEX
8
CONTOURS_MINEURES
10
4.012
20
67.989
0
VERTEX
8
CONTOURS_MINEURES
10
4.113
20
69.000
0
VERTEX
8
CONTOURS_MINEURES
10
4.695
20
70.693
0
VERTEX
8
CONTOURS_MINEURES
10
5.216
20
71.996
0
VERTEX
8
CONTOURS_MINEURES
10
5.216
20
74.216
0
VERTEX
8
CONTOURS_MINEURES
10
5.216
20
75.002
0
VERTEX
8
CONTOURS_MINEURES
10
5.539
20
75.463
0
VERTEX
8
CONTOURS_MINEURES
10
6.001
20
76.364
0
VERTEX
8
CONTOURS_MINEURES
10
6.835
20
77.998
0
VERTEX
8
CONTOURS_MINEURES
10
6.835
20
78.832
0
VERTEX
8
CONTOURS_MINEURES
10
6.835
20
81.005
0
VERTEX
8
CONTOURS_MINEURES
10
7.715
20
82.292
0
VERTEX
8
CONTOURS_MINEURES
10
8.711
20
84.000
0
VERTEX
8
CONTOURS_MINEURES
10
8.827
20
84.178
0
VERTEX
8
CONTOURS_MINEURES
10
9.005
20
84.457
0
VERTEX
8
CONTOURS_MINEURES
10
11.542
20
84.457
0
VERTEX
8
CONTOURS_MINEURES
10
11.998
20
84.457
0
VERTEX
8
CONTOURS_MINEURES
10
13.443
20
86.996
0
VERTEX
8
CONTOURS_MINEURES
10
13.443
20
88.557
0
VERTEX
8
CONTOURS_MINEURES
10
13.443
20
90.003
0
VERTEX
8
CONTOURS_MINEURES
10
13.396
20
91.396
0
VERTEX
8
CONTOURS_MINEURES
10
13.604
20
92.998
0
VERTEX
8
CONTOURS_MINEURES
10
13.211
20
94.212
0
VERTEX
8
CONTOURS_MINEURES
10
12.678
20
96.005
0
VERTEX
8
CONTOURS_MINEURES
10
12.678
20
98.323
0
VERTEX
8
CONTOURS_MINEURES
10
12.678
20
99.001
0
VERTEX
8
CONTOURS_MINEURES
10
12.088
20
101.907
0
VERTEX
8
CONTOURS_MINEURES
10
12.062
20
101.996
0
SEQEND
0
POLYLINE
8
CONTOURS_MINEURES
66
1
70
0
0
VERTEX
8
CONTOURS_MINEURES
10
8.372
20
0.001
0
VERTEX
8
CONTOURS_MINEURES
10
7.745
20
1.740
0
VERTEX
8
CONTOURS_MINEURES
10
7.458
20
2.997
0
VERTEX
8
CONTOURS_MINEURES
10
6.879
20
5.125
0
VERTEX
8
CONTOURS_MINEURES
10
6.582
20
6.003
0
VERTEX
8
CONTOURS_MINEURES
10
6.582
20
6.582
0
VERTEX
8
CONTOURS_MINEURES
10
6.582
20
8.999
0
VERTEX
8
CONTOURS_MINEURES
10
6.001
20
10.376
0
VERTEX
8
CONTOURS_MINEURES
10
5.339
20
11.995
0
VERTEX
8
CONTOURS_MINEURES
10
5.339
20
14.339
0
VERTEX
8
CONTOURS_MINEURES
10
5.339
20
15.001
0
VERTEX
8
CONTOURS_MINEURES
10
4.851
20
16.850
0
VERTEX
8
CONTOURS_MINEURES
10
4.710
20
17.997
0
VERTEX
8
CONTOURS_MINEURES
10
4.494
20
19.505
0
VERTEX
8
CONTOURS_MINEURES
10
4.265
20
21.004
0
VERTEX
8
CONTOURS_MINEURES
10
4.265
20
22.735
0
VERTEX
8
CONTOURS_MINEURES
10
4.265
20
23.999
0
VERTEX
8
CONTOURS_MINEURES
10
4.042
20
25.041
0
VERTEX
8
CONTOURS_MINEURES
10
3.211
20
26.995
0
VERTEX
8
CONTOURS_MINEURES
10
2.997
20
27.342
0
VERTEX
8
CONTOURS_MINEURES
10
0.350
20
27.342
0
VERTEX
8
CONTOURS_MINEURES
10
0.004
20
27.342
0
SEQEND
0
POLYLINE
8
CONTOURS_MINEURES
66
1
70
0
0
VERTEX
8
CONTOURS_MINEURES
10
0.004
20
71.357
0
VERTEX
8
CONTOURS_MINEURES
10
2.359
20
71.357
0
VERTEX
8
CONTOURS_MINEURES
10
2.997
20
71.357
0
VERTEX
8
CONTOURS_MINEURES
10
3.253
20
71.996
0
VERTEX
8
CONTOURS_MINEURES
10
3.253
20
72.251
0
VERTEX
8
CONTOURS_MINEURES
10
3.253
20
75.002
0
VERTEX
8
CONTOURS_MINEURES
10
4.384
20
76.616
0
VERTEX
8
CONTOURS_MINEURES
10
5.093
20
77.998
0
VERTEX
8
CONTOURS_MINEURES
10
5.093
20
78.907
0
VERTEX
8
CONTOURS_MINEURES
10
5.093
20
81.005
0
VERTEX
8
CONTOURS_MINEURES
10
6.001
20
82.325
0
VERTEX
8
CONTOURS_MINEURES
10
6.683
20
83.321
0
VERTEX
8
CONTOURS_MINEURES
10
7.079
20
84.000
0
VERTEX
8
CONTOURS_MINEURES
10
7.839
20
85.163
0
VERTEX
8
CONTOURS_MINEURES
10
9.005
20
86.996
0
VERTEX
8
CONTOURS_MINEURES
10
11.998
20
86.996
0
VERTEX
8
CONTOURS_MINEURES
10
11.998
20
90.003
0
VERTEX
8
CONTOURS_MINEURES
10
12.388
20
92.998
0
VERTEX
8
CONTOURS_MINEURES
10
12.292
20
93.293
0
VERTEX
8
CONTOURS_MINEURES
10
11.998
20
94.281
0
VERTEX
8
CONTOURS_MINEURES
10
10.721
20
94.281
0
VERTEX
8
CONTOURS_MINEURES
10
9.005
20
94.281
0
VERTEX
8
CONTOURS_MINEURES
10
8.493
20
96.005
0
VERTEX
8
CONTOURS_MINEURES
10
8.493
20
98.490
0
VERTEX
8
CONTOURS_MINEURES
10
8.493
20
99.001
0
VERTEX
8
CONTOURS_MINEURES
10
8.073
20
101.067
0
VERTEX
8
CONTOURS_MINEURES
10
7.956
20
101.996
0
SEQEND
0
POLYLINE
8
CONTOURS_MINEURES
66
1
70
0
0
VERTEX
8
CONTOURS_MINEURES
10
7.131
20
0.001
0
VERTEX
8
CONTOURS_MINEURES
10
6.832
20
0.830
0
VERTEX
8
CONTOURS_MINEURES
10
6.338
20
2.997
0
VERTEX
8
CONTOURS_MINEURES
10
6.001
20
4.232
0
VERTEX
8
CONTOURS_MINEURES
10
5.516
20
6.003
0
VERTEX
8
CONTOURS_MINEURES
10
5.516
20
8.515
0
VERTEX
8
CONTOURS_MINEURES
10
5.516
20
8.999
0
VERTEX
8
CONTOURS_MINEURES
10
5.284
20
9.715
0
VERTEX
8
CONTOURS_MINEURES
10
4.351
20
11.995
0
VERTEX
8
CONTOURS_MINEURES
10
4.351
20
13.350
0
VERTEX
8
CONTOURS_MINEURES
10
4.351
20
15.001
0
VERTEX
8
CONTOURS_MINEURES
10
4.069
20
16.070
0
VERTEX
8
CONTOURS_MINEURES
10
3.832
20
17.997
0
VERTEX
8
CONTOURS_MINEURES
10
3.469
20
20.532
0
VERTEX
8
CONTOURS_MINEURES
10
3.397
20
21.004
0
VERTEX
8
CONTOURS_MINEURES
10
3.397
20
23.601
0
VERTEX
8
CONTOURS_MINEURES
10
3.397
20
23.999
0
VERTEX
8
CONTOURS_MINEURES
10
3.326
20
24.327
0
VERTEX
8
CONTOURS_MINEURES
10
2.997
20
25.102
0
VERTEX
8
CONTOURS_MINEURES
10
1.896
20
25.102
0
VERTEX
8
CONTOURS_MINEURES
10
0.004
20
25.102
0
SEQEND
0
POLYLINE
8
CONTOURS_MINEURES
66
1
70
0
0
VERTEX
8
CONTOURS_MINEURES
10
0.004
20
77.438
0
VERTEX
8
CONTOURS_MINEURES
10
2.438
20
77.438
0
VERTEX
8
CONTOURS_MINEURES
10
2.997
20
77.438
0
VERTEX
8
CONTOURS_MINEURES
10
3.228
20
77.768
0
VERTEX
8
CONTOURS_MINEURES
10
3.347
20
77.998
0
VERTEX
8
CONTOURS_MINEURES
10
3.347
20
80.655
0
VERTEX
8
CONTOURS_MINEURES
10
3.347
20
81.005
0
VERTEX
8
CONTOURS_MINEURES
10
4.110
20
82.114
0
VERTEX
8
CONTOURS_MINEURES
10
5.414
20
84.000
0
VERTEX
8
CONTOURS_MINEURES
10
5.653
20
84.348
0
VERTEX
8
CONTOURS_MINEURES
10
6.001
20
84.849
0
VERTEX
8
CONTOURS_MINEURES
10
6.851
20
86.149
0
VERTEX
8
CONTOURS_MINEURES
10
7.390
20
86.996
0
VERTEX
8
CONTOURS_MINEURES
10
7.390
20
88.613
0
VERTEX
8
CONTOURS_MINEURES
10
7.390
20
90.003
0
VERTEX
8
CONTOURS_MINEURES
10
7.679
20
91.676
0
VERTEX
8
CONTOURS_MINEURES
10
8.113
20
92.998
0
VERTEX
8
CONTOURS_MINEURES
10
7.851
20
94.154
0
VERTEX
8
CONTOURS_MINEURES
10
7.301
20
96.005
0
VERTEX
8
CONTOURS_MINEURES
10
7.301
20
97.301
0
VERTEX
8
CONTOURS_MINEURES
10
7.301
20
99.001
0
VERTEX
8
CONTOURS_MINEURES
10
7.082
20
100.078
0
VERTEX
8
CONTOURS_MINEURES
10
6.839
20
101.996
0
SEQEND
0
POLYLINE
8
CONTOURS_MINEURES
66
1
70
0
0
VERTEX
8
CONTOURS_MINEURES
10
5.891
20
0.001
0
VERTEX
8
CONTOURS_MINEURES
10
5.835
20
0.167
0
VERTEX
8
CONTOURS_MINEURES
10
5.063
20
2.997
0
VERTEX
8
CONTOURS_MINEURES
10
4.912
20
4.087
0
VERTEX
8
CONTOURS_MINEURES
10
4.386
20
6.003
0
VERTEX
8
CONTOURS_MINEURES
10
4.386
20
7.389
0
VERTEX
8
CONTOURS_MINEURES
10
4.386
20
8.999
0
VERTEX
8
CONTOURS_MINEURES
10
3.615
20
11.379
0
VERTEX
8
CONTOURS_MINEURES
10
3.363
20
11.995
0
VERTEX
8
CONTOURS_MINEURES
10
3.363
20
12.361
0
VERTEX
8
CONTOURS_MINEURES
10
3.363
20
15.001
0
VERTEX
8
CONTOURS_MINEURES
10
3.287
20
15.290
0
VERTEX
8
CONTOURS_MINEURES
10
2.997
20
17.640
0
VERTEX
8
CONTOURS_MINEURES
10
2.641
20
17.640
0
VERTEX
8
CONTOURS_MINEURES
10
0.004
20
17.640
0
SEQEND
0
POLYLINE
8
CONTOURS_MINEURES
66
1
70
0
0
VERTEX
8
CONTOURS_MINEURES
10
0.004
20
83.002
0
VERTEX
8
CONTOURS_MINEURES
10
1.002
20
83.002
0
VERTEX
8
CONTOURS_MINEURES
10
2.997
20
83.002
0
VERTEX
8
CONTOURS_MINEURES
10
3.688
20
84.000
0
VERTEX
8
CONTOURS_MINEURES
10
4.627
20
85.370
0
VERTEX
8
CONTOURS_MINEURES
10
5.758
20
86.996
0
VERTEX
8
CONTOURS_MINEURES
10
5.758
20
89.759
0
VERTEX
8
CONTOURS_MINEURES
10
5.758
20
90.003
0
VERTEX
8
CONTOURS_MINEURES
10
6.001
20
90.562
0
VERTEX
8
CONTOURS_MINEURES
10
6.801
20
92.998
0
VERTEX
8
CONTOURS_MINEURES
10
6.154
20
95.852
0
VERTEX
8
CONTOURS_MINEURES
10
6.109
20
96.005
0
VERTEX
8
CONTOURS_MINEURES
10
6.109
20
96.112
0
VERTEX
8
CONTOURS_MINEURES
10
6.109
20
99.001
0
VERTEX
8
CONTOURS_MINEURES
10
6.091
20
99.090
0
VERTEX
8
CONTOURS_MINEURES
10
6.001
20
99.794
0
VERTEX
8
CONTOURS_MINEURES
10
5.715
20
101.996
0
SEQEND
0
POLYLINE
8
CONTOURS_MINEURES
66
1
70
0
0
VERTEX
8
CONTOURS_MINEURES
10
4.670
20
0.001
0
VERTEX
8
CONTOURS_MINEURES
10
3.993
20
2.004
0
VERTEX
8
CONTOURS_MINEURES
10
3.722
20
2.997
0
VERTEX
8
CONTOURS_MINEURES
10
3.355
20
5.645
0
VERTEX
8
CONTOURS_MINEURES
10
3.257
20
6.003
0
VERTEX
8
CONTOURS_MINEURES
10
3.257
20
6.262
0
VERTEX
8
CONTOURS_MINEURES
10
3.257
20
8.999
0
VERTEX
8
CONTOURS_MINEURES
10
2.997
20
9.800
0
VERTEX
8
CONTOURS_MINEURES
10
0.805
20
9.800
0
VERTEX
8
CONTOURS_MINEURES
10
0.004
20
9.800
0
SEQEND
0
POLYLINE
8
CONTOURS_MINEURES
66
1
70
0
0
VERTEX
8
CONTOURS_MINEURES
10
0.004
20
85.511
0
VERTEX
8
CONTOURS_MINEURES
10
1.513
20
85.511
0
VERTEX
8
CONTOURS_MINEURES
10
2.997
20
85.511
0
VERTEX
8
CONTOURS_MINEURES
10
3.602
20
86.393
0
VERTEX
8
CONTOURS_MINEURES
10
4.022
20
86.996
0
VERTEX
8
CONTOURS_MINEURES
10
4.022
20
88.021
0
VERTEX
8
CONTOURS_MINEURES
10
4.022
20
90.003
0
VERTEX
8
CONTOURS_MINEURES
10
4.806
20
91.806
0
VERTEX
8
CONTOURS_MINEURES
10
5.430
20
92.998
0
VERTEX
8
CONTOURS_MINEURES
10
4.938
20
94.940
0
VERTEX
8
CONTOURS_MINEURES
10
4.925
20
96.005
0
VERTEX
8
CONTOURS_MINEURES
10
4.925
20
97.078
0
VERTEX
8
CONTOURS_MINEURES
10
4.925
20
99.001
0
VERTEX
8
CONTOURS_MINEURES
10
4.802
20
100.196
0
VERTEX
8
CONTOURS_MINEURES
10
4.568
20
101.996
0
SEQEND
0
POLYLINE
8
CONTOURS_MINEURES
66
1
70
0
0
VERTEX
8
CONTOURS_MINEURES
10
3.449
20
0.001
0
VERTEX
8
CONTOURS_MINEURES
10
2.997
20
1.337
0
VERTEX
8
CONTOURS_MINEURES
10
1.663
20
1.337
0
VERTEX
8
CONTOURS_MINEURES
10
0.004
20
1.337
0
SEQEND
0
POLYLINE
8
CONTOURS_MINEURES
66
1
70
0
0
VERTEX
8
CONTOURS_MINEURES
10
0.004
20
91.151
0
VERTEX
8
CONTOURS_MINEURES
10
1.151
20
91.151
0
VERTEX
8
CONTOURS_MINEURES
10
2.997
20
91.151
0
VERTEX
8
CONTOURS_MINEURES
10
3.964
20
92.998
0
VERTEX
8
CONTOURS_MINEURES
10
3.769
20
93.771
0
VERTEX
8
CONTOURS_MINEURES
10
3.742
20
96.005
0
VERTEX
8
CONTOURS_MINEURES
10
3.742
20
98.258
0
VERTEX
8
CONTOURS_MINEURES
10
3.742
20
99.001
0
VERTEX
8
CONTOURS_MINEURES
10
3.485
20
101.510
0
VERTEX
8
CONTOURS_MINEURES
10
3.422
20
101.996
0
SEQEND
0
POLYLINE
8
CONTOURS_MAJEURES
66
1
70
0
0
VERTEX
8
CONTOURS_MAJEURES
10
81.003
20
59.039
0
VERTEX
8
CONTOURS_MAJEURES
10
80.041
20
59.039
0
VERTEX
8
CONTOURS_MAJEURES
10
77.999
20
59.039
0
VERTEX
8
CONTOURS_MAJEURES
10
75.466
20
59.531
0
VERTEX
8
CONTOURS_MAJEURES
10
74.995
20
59.682
0
VERTEX
8
CONTOURS_MAJEURES
10
74.698
20
59.704
0
VERTEX
8
CONTOURS_MAJEURES
10
72.002
20
59.604
0
VERTEX
8
CONTOURS_MAJEURES
10
71.604
20
59.604
0
VERTEX
8
CONTOURS_MAJEURES
10
68.998
20
59.604
0
VERTEX
8
CONTOURS_MAJEURES
10
67.459
20
60.002
0
VERTEX
8
CONTOURS_MAJEURES
10
66.618
20
60.616
0
VERTEX
8
CONTOURS_MAJEURES
10
66.005
20
60.774
0
VERTEX
8
CONTOURS_MAJEURES
10
63.684
20
62.317
0
VERTEX
8
CONTOURS_MAJEURES
10
63.001
20
62.793
0
VERTEX
8
CONTOURS_MAJEURES
10
60.203
20
62.793
0
VERTEX
8
CONTOURS_MAJEURES
10
59.997
20
62.793
0
VERTEX
8
CONTOURS_MAJEURES
10
59.872
20
62.873
0
VERTEX
8
CONTOURS_MAJEURES
10
59.770
20
62.998
0
VERTEX
8
CONTOURS_MAJEURES
10
59.770
20
63.226
0
VERTEX
8
CONTOURS_MAJEURES
10
59.770
20
66.005
0
VERTEX
8
CONTOURS_MAJEURES
10
57.004
20
68.653
0
VERTEX
8
CONTOURS_MAJEURES
10
56.679
20
69.000
0
VERTEX
8
CONTOURS_MAJEURES
10
55.549
20
70.545
0
VERTEX
8
CONTOURS_MAJEURES
10
54.000
20
71.825
0
VERTEX
8
CONTOURS_MAJEURES
10
51.168
20
71.825
0
VERTEX
8
CONTOURS_MAJEURES
10
50.996
20
71.825
0
VERTEX
8
CONTOURS_MAJEURES
10
50.886
20
71.886
0
VERTEX
8
CONTOURS_MAJEURES
10
50.860
20
71.996
0
VERTEX
8
CONTOURS_MAJEURES
10
50.860
20
74.866
0
VERTEX
8
CONTOURS_MAJEURES
10
50.860
20
75.002
0
VERTEX
8
CONTOURS_MAJEURES
10
50.475
20
75.523
0
VERTEX
8
CONTOURS_MAJEURES
10
48.608
20
77.998
0
VERTEX
8
CONTOURS_MAJEURES
10
48.608
20
80.397
0
VERTEX
8
CONTOURS_MAJEURES
10
48.608
20
81.005
0
VERTEX
8
CONTOURS_MAJEURES
10
48.473
20
81.475
0
VERTEX
8
CONTOURS_MAJEURES
10
48.003
20
81.785
0
VERTEX
8
CONTOURS_MAJEURES
10
46.905
20
82.099
0
VERTEX
8
CONTOURS_MAJEURES
10
44.999
20
83.148
0
VERTEX
8
CONTOURS_MAJEURES
10
44.144
20
83.148
0
VERTEX
8
CONTOURS_MAJEURES
10
41.995
20
83.148
0
VERTEX
8
CONTOURS_MAJEURES
10
41.294
20
83.299
0
VERTEX
8
CONTOURS_MAJEURES
10
39.002
20
83.893
0
VERTEX
8
CONTOURS_MAJEURES
10
38.883
20
83.882
0
VERTEX
8
CONTOURS_MAJEURES
10
38.501
20
84.000
0
VERTEX
8
CONTOURS_MAJEURES
10
35.998
20
84.937
0
VERTEX
8
CONTOURS_MAJEURES
10
33.940
20
84.937
0
VERTEX
8
CONTOURS_MAJEURES
10
33.005
20
84.937
0
VERTEX
8
CONTOURS_MAJEURES
10
30.511
20
86.996
0
VERTEX
8
CONTOURS_MAJEURES
10
30.511
20
87.507
0
VERTEX
8
CONTOURS_MAJEURES
10
30.511
20
90.003
0
VERTEX
8
CONTOURS_MAJEURES
10
30.001
20
90.388
0
VERTEX
8
CONTOURS_MAJEURES
10
27.383
20
90.388
0
VERTEX
8
CONTOURS_MAJEURES
10
26.997
20
90.388
0
VERTEX
8
CONTOURS_MAJEURES
10
26.170
20
92.172
0
VERTEX
8
CONTOURS_MAJEURES
10
25.702
20
92.998
0
VERTEX
8
CONTOURS_MAJEURES
10
25.244
20
94.245
0
VERTEX
8
CONTOURS_MAJEURES
10
24.003
20
95.896
0
VERTEX
8
CONTOURS_MAJEURES
10
23.967
20
96.005
0
VERTEX
8
CONTOURS_MAJEURES
10
23.967
20
98.965
0
VERTEX
8
CONTOURS_MAJEURES
10
23.967
20
99.001
0
VERTEX
8
CONTOURS_MAJEURES
10
23.353
20
101.348
0
VERTEX
8
CONTOURS_MAJEURES
10
23.100
20
101.996
0
SEQEND
0
POLYLINE
8
CONTOURS_MAJEURES
66
1
70
0
0
VERTEX
8
CONTOURS_MAJEURES
10
39.971
20
101.996
0
VERTEX
8
CONTOURS_MAJEURES
10
40.482
20
100.482
0
VERTEX
8
CONTOURS_MAJEURES
10
41.995
20
100.027
0
VERTEX
8
CONTOURS_MAJEURES
10
43.970
20
100.027
0
VERTEX
8
CONTOURS_MAJEURES
10
44.999
20
100.027
0
VERTEX
8
CONTOURS_MAJEURES
10
46.268
20
99.001
0
VERTEX
8
CONTOURS_MAJEURES
10
46.268
20
97.270
0
VERTEX
8
CONTOURS_MAJEURES
10
46.268
20
96.005
0
VERTEX
8
CONTOURS_MAJEURES
10
46.783
20
94.784
0
VERTEX
8
CONTOURS_MAJEURES
10
48.003
20
94.556
0
VERTEX
8
CONTOURS_MAJEURES
10
50.320
20
92.998
0
VERTEX
8
CONTOURS_MAJEURES
10
50.996
20
92.405
0
VERTEX
8
CONTOURS_MAJEURES
10
53.405
20
92.405
0
VERTEX
8
CONTOURS_MAJEURES
10
54.000
20
92.405
0
VERTEX
8
CONTOURS_MAJEURES
10
56.628
20
90.377
0
VERTEX
8
CONTOURS_MAJEURES
10
57.004
20
90.057
0
VERTEX
8
CONTOURS_MAJEURES
10
57.046
20
90.045
0
VERTEX
8
CONTOURS_MAJEURES
10
57.066
20
90.003
0
VERTEX
8
CONTOURS_MAJEURES
10
57.066
20
89.940
0
VERTEX
8
CONTOURS_MAJEURES
10
57.066
20
86.996
0
VERTEX
8
CONTOURS_MAJEURES
10
58.130
20
85.127
0
VERTEX
8
CONTOURS_MAJEURES
10
59.142
20
84.000
0
VERTEX
8
CONTOURS_MAJEURES
10
59.149
20
83.152
0
VERTEX
8
CONTOURS_MAJEURES
10
59.713
20
81.005
0
VERTEX
8
CONTOURS_MAJEURES
10
59.713
20
80.720
0
VERTEX
8
CONTOURS_MAJEURES
10
59.713
20
77.998
0
VERTEX
8
CONTOURS_MAJEURES
10
59.802
20
75.198
0
VERTEX
8
CONTOURS_MAJEURES
10
59.733
20
75.002
0
VERTEX
8
CONTOURS_MAJEURES
10
59.733
20
74.737
0
VERTEX
8
CONTOURS_MAJEURES
10
59.733
20
71.996
0
VERTEX
8
CONTOURS_MAJEURES
10
58.714
20
70.712
0
VERTEX
8
CONTOURS_MAJEURES
10
59.997
20
69.749
0
VERTEX
8
CONTOURS_MAJEURES
10
62.250
20
69.749
0
VERTEX
8
CONTOURS_MAJEURES
10
63.001
20
69.749
0
VERTEX
8
CONTOURS_MAJEURES
10
63.223
20
69.000
0
VERTEX
8
CONTOURS_MAJEURES
10
66.005
20
67.988
0
VERTEX
8
CONTOURS_MAJEURES
10
68.100
20
68.101
0
VERTEX
8
CONTOURS_MAJEURES
10
68.998
20
68.277
0
VERTEX
8
CONTOURS_MAJEURES
10
71.277
20
68.277
0
VERTEX
8
CONTOURS_MAJEURES
10
72.002
20
68.277
0
VERTEX
8
CONTOURS_MAJEURES
10
72.969
20
68.032
0
VERTEX
8
CONTOURS_MAJEURES
10
74.995
20
67.502
0
VERTEX
8
CONTOURS_MAJEURES
10
75.738
20
66.745
0
VERTEX
8
CONTOURS_MAJEURES
10
77.398
20
66.005
0
VERTEX
8
CONTOURS_MAJEURES
10
77.398
20
63.599
0
VERTEX
8
CONTOURS_MAJEURES
10
77.398
20
62.998
0
VERTEX
8
CONTOURS_MAJEURES
10
76.622
20
61.625
0
VERTEX
8
CONTOURS_MAJEURES
10
77.999
20
62.249
0
VERTEX
8
CONTOURS_MAJEURES
10
78.750
20
62.249
0
VERTEX
8
CONTOURS_MAJEURES
10
81.003
20
62.249
0
SEQEND
0
POLYLINE
8
CONTOURS_MAJEURES
66
1
70
0
0
VERTEX
8
CONTOURS_MAJEURES
10
0.004
20
44.751
0
VERTEX
8
CONTOURS_MAJEURES
10
2.748
20
44.751
0
VERTEX
8
CONTOURS_MAJEURES
10
2.997
20
44.751
0
VERTEX
8
CONTOURS_MAJEURES
10
3.077
20
44.922
0
VERTEX
8
CONTOURS_MAJEURES
10
3.106
20
45.002
0
VERTEX
8
CONTOURS_MAJEURES
10
3.106
20
47.889
0
VERTEX
8
CONTOURS_MAJEURES
10
3.106
20
47.998
0
VERTEX
8
CONTOURS_MAJEURES
10
3.236
20
48.236
0
VERTEX
8
CONTOURS_MAJEURES
10
4.205
20
51.004
0
VERTEX
8
CONTOURS_MAJEURES
10
4.982
20
52.020
0
VERTEX
8
CONTOURS_MAJEURES
10
6.001
20
52.584
0
VERTEX
8
CONTOURS_MAJEURES
10
7.396
20
54.000
0
VERTEX
8
CONTOURS_MAJEURES
10
7.396
20
55.605
0
VERTEX
8
CONTOURS_MAJEURES
10
7.396
20
56.996
0
VERTEX
8
CONTOURS_MAJEURES
10
7.939
20
58.063
0
VERTEX
8
CONTOURS_MAJEURES
10
8.374
20
60.002
0
VERTEX
8
CONTOURS_MAJEURES
10
8.170
20
62.165
0
VERTEX
8
CONTOURS_MAJEURES
10
8.104
20
62.998
0
VERTEX
8
CONTOURS_MAJEURES
10
8.104
20
65.103
0
VERTEX
8
CONTOURS_MAJEURES
10
8.104
20
66.005
0
VERTEX
8
CONTOURS_MAJEURES
10
8.186
20
66.822
0
VERTEX
8
CONTOURS_MAJEURES
10
8.422
20
69.000
0
VERTEX
8
CONTOURS_MAJEURES
10
8.572
20
69.433
0
VERTEX
8
CONTOURS_MAJEURES
10
9.005
20
70.973
0
VERTEX
8
CONTOURS_MAJEURES
10
10.027
20
70.973
0
VERTEX
8
CONTOURS_MAJEURES
10
11.998
20
70.973
0
VERTEX
8
CONTOURS_MAJEURES
10
12.239
20
71.756
0
VERTEX
8
CONTOURS_MAJEURES
10
12.288
20
71.996
0
VERTEX
8
CONTOURS_MAJEURES
10
12.288
20
74.712
0
VERTEX
8
CONTOURS_MAJEURES
10
12.288
20
75.002
0
VERTEX
8
CONTOURS_MAJEURES
10
13.092
20
76.907
0
VERTEX
8
CONTOURS_MAJEURES
10
13.339
20
77.998
0
VERTEX
8
CONTOURS_MAJEURES
10
13.339
20
79.340
0
VERTEX
8
CONTOURS_MAJEURES
10
13.339
20
81.005
0
VERTEX
8
CONTOURS_MAJEURES
10
13.987
20
82.018
0
VERTEX
8
CONTOURS_MAJEURES
10
14.774
20
84.000
0
VERTEX
8
CONTOURS_MAJEURES
10
15.002
20
84.420
0
VERTEX
8
CONTOURS_MAJEURES
10
16.004
20
85.994
0
VERTEX
8
CONTOURS_MAJEURES
10
16.283
20
86.996
0
VERTEX
8
CONTOURS_MAJEURES
10
16.283
20
88.716
0
VERTEX
8
CONTOURS_MAJEURES
10
16.283
20
90.003
0
VERTEX
8
CONTOURS_MAJEURES
10
16.226
20
91.774
0
VERTEX
8
CONTOURS_MAJEURES
10
15.989
20
92.998
0
VERTEX
8
CONTOURS_MAJEURES
10
15.086
20
95.921
0
VERTEX
8
CONTOURS_MAJEURES
10
15.060
20
96.005
0
VERTEX
8
CONTOURS_MAJEURES
10
15.060
20
96.063
0
VERTEX
8
CONTOURS_MAJEURES
10
15.060
20
99.001
0
VERTEX
8
CONTOURS_MAJEURES
10
15.046
20
99.044
0
VERTEX
8
CONTOURS_MAJEURES
10
15.002
20
99.186
0
VERTEX
8
CONTOURS_MAJEURES
10
14.193
20
101.996
0
SEQEND
0
POLYLINE
8
CONTOURS_MAJEURES
66
1
70
0
0
VERTEX
8
CONTOURS_MAJEURES
10
15.045
20
0.001
0
VERTEX
8
CONTOURS_MAJEURES
10
15.031
20
0.029
0
VERTEX
8
CONTOURS_MAJEURES
10
15.002
20
0.037
0
VERTEX
8
CONTOURS_MAJEURES
10
13.928
20
1.925
0
VERTEX
8
CONTOURS_MAJEURES
10
13.283
20
2.997
0
VERTEX
8
CONTOURS_MAJEURES
10
11.998
20
4.861
0
VERTEX
8
CONTOURS_MAJEURES
10
10.861
20
4.861
0
VERTEX
8
CONTOURS_MAJEURES
10
9.005
20
4.861
0
VERTEX
8
CONTOURS_MAJEURES
10
8.618
20
6.003
0
VERTEX
8
CONTOURS_MAJEURES
10
8.618
20
8.613
0
VERTEX
8
CONTOURS_MAJEURES
10
8.618
20
8.999
0
VERTEX
8
CONTOURS_MAJEURES
10
8.338
20
9.665
0
VERTEX
8
CONTOURS_MAJEURES
10
7.716
20
11.995
0
VERTEX
8
CONTOURS_MAJEURES
10
7.716
20
13.711
0
VERTEX
8
CONTOURS_MAJEURES
10
7.716
20
15.001
0
VERTEX
8
CONTOURS_MAJEURES
10
7.042
20
16.959
0
VERTEX
8
CONTOURS_MAJEURES
10
6.826
20
17.997
0
VERTEX
8
CONTOURS_MAJEURES
10
6.712
20
18.708
0
VERTEX
8
CONTOURS_MAJEURES
10
6.001
20
21.004
0
VERTEX
8
CONTOURS_MAJEURES
10
6.001
20
23.999
0
VERTEX
8
CONTOURS_MAJEURES
10
5.472
20
26.467
0
VERTEX
8
CONTOURS_MAJEURES
10
5.248
20
26.995
0
VERTEX
8
CONTOURS_MAJEURES
10
4.034
20
28.964
0
VERTEX
8
CONTOURS_MAJEURES
10
3.601
20
30.002
0
VERTEX
8
CONTOURS_MAJEURES
10
3.601
20
30.604
0
VERTEX
8
CONTOURS_MAJEURES
10
3.601
20
32.997
0
VERTEX
8
CONTOURS_MAJEURES
10
2.997
20
33.872
0
VERTEX
8
CONTOURS_MAJEURES
10
0.875
20
33.872
0
VERTEX
8
CONTOURS_MAJEURES
10
0.004
20
33.872
0
SEQEND
0
POLYLINE
8
CONTOURS_MAJEURES
66
1
70
0
0
VERTEX
8
CONTOURS_MAJEURES
10
0.004
20
83.002
0
VERTEX
8
CONTOURS_MAJEURES
10
1.002
20
83.002
0
VERTEX
8
CONTOURS_MAJEURES
10
2.997
20
83.002
0
VERTEX
8
CONTOURS_MAJEURES
10
3.688
20
84.000
0
VERTEX
8
CONTOURS_MAJEURES
10
4.627
20
85.370
0
VERTEX
8
CONTOURS_MAJEURES
10
5.758
20
86.996
0
VERTEX
8
CONTOURS_MAJEURES
10
5.758
20
89.759
0
VERTEX
8
CONTOURS_MAJEURES
10
5.758
20
90.003
0
VERTEX
8
CONTOURS_MAJEURES
10
6.001
20
90.562
0
VERTEX
8
CONTOURS_MAJEURES
10
6.801
20
92.998
0
VERTEX
8
CONTOURS_MAJEURES
10
6.154
20
95.852
0
VERTEX
8
CONTOURS_MAJEURES
10
6.109
20
96.005
0
VERTEX
8
CONTOURS_MAJEURES
10
6.109
20
96.112
0
VERTEX
8
CONTOURS_MAJEURES
10
6.109
20
99.001
0
VERTEX
8
CONTOURS_MAJEURES
10
6.091
20
99.090
0
VERTEX
8
CONTOURS_MAJEURES
10
6.001
20
99.794
0
VERTEX
8
CONTOURS_MAJEURES
10
5.715
20
101.996
0
SEQEND
0
POLYLINE
8
CONTOURS_MAJEURES
66
1
70
0
0
VERTEX
8
CONTOURS_MAJEURES
10
4.670
20
0.001
0
VERTEX
8
CONTOURS_MAJEURES
10
3.993
20
2.004
0
VERTEX
8
CONTOURS_MAJEURES
10
3.722
20
2.997
0
VERTEX
8
CONTOURS_MAJEURES
10
3.355
20
5.645
0
VERTEX
8
CONTOURS_MAJEURES
10
3.257
20
6.003
0
VERTEX
8
CONTOURS_MAJEURES
10
3.257
20
6.262
0
VERTEX
8
CONTOURS_MAJEURES
10
3.257
20
8.999
0
VERTEX
8
CONTOURS_MAJEURES
10
2.997
20
9.800
0
VERTEX
8
CONTOURS_MAJEURES
10
0.805
20
9.800
0
VERTEX
8
CONTOURS_MAJEURES
10
0.004
20
9.800
0
SEQEND
0
POLYLINE
8
PARCELLE
66
1
70
1
0
VERTEX
8
PARCELLE
10
62.997
20
59.692
0
VERTEX
8
PARCELLE
10
49.782
20
43.745
0
VERTEX
8
PARCELLE
10
30.104
20
20.000
0
VERTEX
8
PARCELLE
10
20.000
20
62.557
0
VERTEX
8
PARCELLE
10
31.547
20
83.251
0
VERTEX
8
PARCELLE
10
35.314
20
79.609
0
VERTEX
8
PARCELLE
10
39.942
20
73.613
0
VERTEX
8
PARCELLE
10
44.404
20
69.478
0
VERTEX
8
PARCELLE
10
51.710
20
65.922
0
VERTEX
8
PARCELLE
10
62.997
20
59.692
0
SEQEND
0
TEXT
8
POINTS_COTES
10
0.004
20
0.001
40
1.0
1
21.4
0
TEXT
8
POINTS_COTES
10
63.001
20
2.997
40
1.0
1
12.6
0
TEXT
8
POINTS_COTES
10
41.995
20
8.999
40
1.0
1
13.0
0
TEXT
8
POINTS_COTES
10
21.000
20
15.001
40
1.0
1
13.5
0
TEXT
8
POINTS_COTES
10
0.004
20
21.004
40
1.0
1
18.5
0
TEXT
8
POINTS_COTES
10
63.001
20
23.999
40
1.0
1
12.0
0
TEXT
8
POINTS_COTES
10
41.995
20
30.002
40
1.0
1
12.2
0
TEXT
8
POINTS_COTES
10
21.000
20
36.004
40
1.0
1
12.7
0
TEXT
8
POINTS_COTES
10
0.004
20
41.995
40
1.0
1
14.4
0
TEXT
8
POINTS_COTES
10
63.001
20
45.002
40
1.0
1
11.7
0
TEXT
8
POINTS_COTES
10
41.995
20
51.004
40
1.0
1
11.8
0
TEXT
8
POINTS_COTES
10
21.000
20
56.996
40
1.0
1
11.9
0
TEXT
8
POINTS_COTES
10
0.004
20
62.998
40
1.0
1
17.4
0
TEXT
8
POINTS_COTES
10
63.001
20
66.005
40
1.0
1
9.9
0
TEXT
8
POINTS_COTES
10
41.995
20
71.996
40
1.0
1
11.4
0
TEXT
8
POINTS_COTES
10
21.000
20
77.998
40
1.0
1
12.7
0
TEXT
8
POINTS_COTES
10
0.004
20
84.000
40
1.0
1
20.4
0
TEXT
8
POINTS_COTES
10
63.001
20
86.996
40
1.0
1
11.4
0
TEXT
8
POINTS_COTES
10
41.995
20
92.998
40
1.0
1
9.0
0
TEXT
8
POINTS_COTES
10
21.000
20
99.001
40
1.0
1
12.5
0
ENDSEC
0
EOF
