0
SECTION
2
HEADER
0
ENDSEC
0
SECTION
2
TABLES
0
TABLE
2
LAYER
70
4
0
LAYER
2
CONTOURS_MINEURES
70
0
62
8
6
CONTINUOUS
0
LAYER
2
CONTOURS_MAJEURES
70
0
62
3
6
CONTINUOUS
0
LAYER
2
PARCELLE
70
0
62
4
6
CONTINUOUS
0
LAYER
2
POINTS_COTES
70
0
62
7
6
CONTINUOUS
0
ENDTAB
0
ENDSEC
0
SECTION
2
ENTITIES
0
POLYLINE
8
CONTOURS_MINEURES
66
1
70
0
0
VERTEX
8
CONTOURS_MINEURES
10
-0.002
20
12.438
0
VERTEX
8
CONTOURS_MINEURES
10
0.433
20
12.438
0
VERTEX
8
CONTOURS_MINEURES
10
3.001
20
12.438
0
VERTEX
8
CONTOURS_MINEURES
10
3.287
20
12.289
0
VERTEX
8
CONTOURS_MINEURES
10
3.368
20
12.004
0
VERTEX
8
CONTOURS_MINEURES
10
3.368
20
11.637
0
VERTEX
8
CONTOURS_MINEURES
10
3.368
20
8.997
0
VERTEX
8
CONTOURS_MINEURES
10
4.503
20
7.499
0
VERTEX
8
CONTOURS_MINEURES
10
5.671
20
6.001
0
VERTEX
8
CONTOURS_MINEURES
10
6.005
20
5.526
0
VERTEX
8
CONTOURS_MINEURES
10
7.549
20
2.995
0
VERTEX
8
CONTOURS_MINEURES
10
7.549
20
1.545
0
VERTEX
8
CONTOURS_MINEURES
10
7.549
20
-0.001
0
SEQEND
0
POLYLINE
8
CONTOURS_MINEURES
66
1
70
0
0
VERTEX
8
CONTOURS_MINEURES
10
100.058
20
-0.001
0
VERTEX
8
CONTOURS_MINEURES
10
100.058
20
1.053
0
VERTEX
8
CONTOURS_MINEURES
10
100.058
20
2.995
0
VERTEX
8
CONTOURS_MINEURES
10
100.058
20
4.943
0
VERTEX
8
CONTOURS_MINEURES
10
100.393
20
6.001
0
VERTEX
8
CONTOURS_MINEURES
10
100.536
20
7.466
0
VERTEX
8
CONTOURS_MINEURES
10
101.880
20
8.997
0
VERTEX
8
CONTOURS_MINEURES
10
101.880
20
11.878
0
VERTEX
8
CONTOURS_MINEURES
10
101.880
20
12.004
0
VERTEX
8
CONTOURS_MINEURES
10
101.938
20
12.070
0
VERTEX
8
CONTOURS_MINEURES
10
102.005
20
12.170
0
SEQEND
0
POLYLINE
8
CONTOURS_MINEURES
66
1
70
0
0
VERTEX
8
CONTOURS_MINEURES
10
-0.002
20
22.250
0
VERTEX
8
CONTOURS_MINEURES
10
1.249
20
22.250
0
VERTEX
8
CONTOURS_MINEURES
10
3.001
20
22.250
0
VERTEX
8
CONTOURS_MINEURES
10
3.684
20
21.682
0
VERTEX
8
CONTOURS_MINEURES
10
4.503
20
21.001
0
VERTEX
8
CONTOURS_MINEURES
10
5.416
20
20.412
0
VERTEX
8
CONTOURS_MINEURES
10
6.005
20
18.997
0
VERTEX
8
CONTOURS_MINEURES
10
6.836
20
17.995
0
VERTEX
8
CONTOURS_MINEURES
10
6.836
20
15.831
0
VERTEX
8
CONTOURS_MINEURES
10
6.836
20
14.999
0
VERTEX
8
CONTOURS_MINEURES
10
8.048
20
14.049
0
VERTEX
8
CONTOURS_MINEURES
10
8.399
20
12.004
0
VERTEX
8
CONTOURS_MINEURES
10
8.399
20
9.598
0
VERTEX
8
CONTOURS_MINEURES
10
8.399
20
8.997
0
VERTEX
8
CONTOURS_MINEURES
10
8.784
20
8.783
0
VERTEX
8
CONTOURS_MINEURES
10
8.997
20
8.190
0
VERTEX
8
CONTOURS_MINEURES
10
11.192
20
8.190
0
VERTEX
8
CONTOURS_MINEURES
10
12.001
20
8.190
0
VERTEX
8
CONTOURS_MINEURES
10
13.912
20
7.091
0
VERTEX
8
CONTOURS_MINEURES
10
15.004
20
6.923
0
VERTEX
8
CONTOURS_MINEURES
10
15.925
20
6.923
0
VERTEX
8
CONTOURS_MINEURES
10
17.997
20
6.923
0
VERTEX
8
CONTOURS_MINEURES
10
19.799
20
7.199
0
VERTEX
8
CONTOURS_MINEURES
10
21.000
20
7.635
0
VERTEX
8
CONTOURS_MINEURES
10
22.638
20
7.635
0
VERTEX
8
CONTOURS_MINEURES
10
24.003
20
7.635
0
VERTEX
8
CONTOURS_MINEURES
10
25.364
20
7.635
0
VERTEX
8
CONTOURS_MINEURES
10
26.996
20
7.635
0
VERTEX
8
CONTOURS_MINEURES
10
29.249
20
6.001
0
VERTEX
8
CONTOURS_MINEURES
10
29.999
20
5.801
0
VERTEX
8
CONTOURS_MINEURES
10
31.293
20
4.290
0
VERTEX
8
CONTOURS_MINEURES
10
33.003
20
4.235
0
VERTEX
8
CONTOURS_MINEURES
10
34.760
20
4.235
0
VERTEX
8
CONTOURS_MINEURES
10
35.995
20
4.235
0
VERTEX
8
CONTOURS_MINEURES
10
38.174
20
3.820
0
VERTEX
8
CONTOURS_MINEURES
10
38.999
20
3.490
0
VERTEX
8
CONTOURS_MINEURES
10
42.002
20
2.995
0
VERTEX
8
CONTOURS_MINEURES
10
42.002
20
-0.001
0
SEQEND
0
POLYLINE
8
CONTOURS_MINEURES
66
1
70
0
0
VERTEX
8
CONTOURS_MINEURES
10
90.251
20
-0.001
0
VERTEX
8
CONTOURS_MINEURES
10
90.251
20
2.745
0
VERTEX
8
CONTOURS_MINEURES
10
90.251
20
2.995
0
VERTEX
8
CONTOURS_MINEURES
10
91.000
20
3.997
0
VERTEX
8
CONTOURS_MINEURES
10
92.723
20
6.001
0
VERTEX
8
CONTOURS_MINEURES
10
92.995
20
7.333
0
VERTEX
8
CONTOURS_MINEURES
10
94.329
20
7.333
0
VERTEX
8
CONTOURS_MINEURES
10
95.998
20
7.333
0
VERTEX
8
CONTOURS_MINEURES
10
96.181
20
8.997
0
VERTEX
8
CONTOURS_MINEURES
10
96.181
20
11.820
0
VERTEX
8
CONTOURS_MINEURES
10
96.181
20
12.004
0
VERTEX
8
CONTOURS_MINEURES
10
96.665
20
14.333
0
VERTEX
8
CONTOURS_MINEURES
10
96.845
20
14.999
0
VERTEX
8
CONTOURS_MINEURES
10
96.845
20
15.844
0
VERTEX
8
CONTOURS_MINEURES
10
96.845
20
17.995
0
VERTEX
8
CONTOURS_MINEURES
10
97.068
20
19.930
0
VERTEX
8
CONTOURS_MINEURES
10
97.367
20
21.001
0
VERTEX
8
CONTOURS_MINEURES
10
97.500
20
22.499
0
VERTEX
8
CONTOURS_MINEURES
10
98.582
20
23.997
0
VERTEX
8
CONTOURS_MINEURES
10
98.582
20
26.584
0
VERTEX
8
CONTOURS_MINEURES
10
98.582
20
27.004
0
VERTEX
8
CONTOURS_MINEURES
10
98.724
20
27.280
0
VERTEX
8
CONTOURS_MINEURES
10
99.001
20
29.001
0
VERTEX
8
CONTOURS_MINEURES
10
99.134
20
29.999
0
VERTEX
8
CONTOURS_MINEURES
10
100.128
20
31.123
0
VERTEX
8
CONTOURS_MINEURES
10
99.001
20
32.246
0
VERTEX
8
CONTOURS_MINEURES
10
98.965
20
32.995
0
VERTEX
8
CONTOURS_MINEURES
10
98.965
20
35.965
0
VERTEX
8
CONTOURS_MINEURES
10
98.965
20
36.002
0
VERTEX
8
CONTOURS_MINEURES
10
99.001
20
36.093
0
VERTEX
8
CONTOURS_MINEURES
10
99.025
20
36.025
0
VERTEX
8
CONTOURS_MINEURES
10
102.005
20
36.114
0
SEQEND
0
POLYLINE
8
CONTOURS_MINEURES
66
1
70
0
0
VERTEX
8
CONTOURS_MINEURES
10
-0.002
20
51.628
0
VERTEX
8
CONTOURS_MINEURES
10
2.374
20
51.628
0
VERTEX
8
CONTOURS_MINEURES
10
3.001
20
51.628
0
VERTEX
8
CONTOURS_MINEURES
10
3.602
20
51.601
0
VERTEX
8
CONTOURS_MINEURES
10
5.104
20
51.002
0
VERTEX
8
CONTOURS_MINEURES
10
5.104
20
48.897
0
VERTEX
8
CONTOURS_MINEURES
10
5.104
20
47.995
0
VERTEX
8
CONTOURS_MINEURES
10
5.699
20
47.691
0
VERTEX
8
CONTOURS_MINEURES
10
6.005
20
47.330
0
VERTEX
8
CONTOURS_MINEURES
10
7.314
20
46.310
0
VERTEX
8
CONTOURS_MINEURES
10
7.800
20
45.000
0
VERTEX
8
CONTOURS_MINEURES
10
8.125
20
44.126
0
VERTEX
8
CONTOURS_MINEURES
10
8.217
20
42.004
0
VERTEX
8
CONTOURS_MINEURES
10
8.217
20
39.782
0
VERTEX
8
CONTOURS_MINEURES
10
8.217
20
38.997
0
VERTEX
8
CONTOURS_MINEURES
10
8.912
20
36.087
0
VERTEX
8
CONTOURS_MINEURES
10
8.840
20
36.002
0
VERTEX
8
CONTOURS_MINEURES
10
8.840
20
35.844
0
VERTEX
8
CONTOURS_MINEURES
10
8.840
20
32.995
0
VERTEX
8
CONTOURS_MINEURES
10
8.997
20
32.870
0
VERTEX
8
CONTOURS_MINEURES
10
11.876
20
32.870
0
VERTEX
8
CONTOURS_MINEURES
10
12.001
20
32.870
0
VERTEX
8
CONTOURS_MINEURES
10
12.251
20
32.745
0
VERTEX
8
CONTOURS_MINEURES
10
15.004
20
30.969
0
VERTEX
8
CONTOURS_MINEURES
10
15.972
20
30.969
0
VERTEX
8
CONTOURS_MINEURES
10
17.997
20
30.969
0
VERTEX
8
CONTOURS_MINEURES
10
18.632
20
30.633
0
VERTEX
8
CONTOURS_MINEURES
10
20.750
20
29.999
0
VERTEX
8
CONTOURS_MINEURES
10
20.959
20
29.959
0
VERTEX
8
CONTOURS_MINEURES
10
21.000
20
29.960
0
VERTEX
8
CONTOURS_MINEURES
10
22.868
20
28.867
0
VERTEX
8
CONTOURS_MINEURES
10
24.003
20
27.356
0
VERTEX
8
CONTOURS_MINEURES
10
26.644
20
27.356
0
VERTEX
8
CONTOURS_MINEURES
10
26.996
20
27.356
0
VERTEX
8
CONTOURS_MINEURES
10
27.194
20
27.004
0
VERTEX
8
CONTOURS_MINEURES
10
27.194
20
24.195
0
VERTEX
8
CONTOURS_MINEURES
10
27.194
20
23.997
0
VERTEX
8
CONTOURS_MINEURES
10
28.227
20
22.229
0
VERTEX
8
CONTOURS_MINEURES
10
28.684
20
21.001
0
VERTEX
8
CONTOURS_MINEURES
10
29.999
20
19.026
0
VERTEX
8
CONTOURS_MINEURES
10
30.783
20
17.995
0
VERTEX
8
CONTOURS_MINEURES
10
30.783
20
17.213
0
VERTEX
8
CONTOURS_MINEURES
10
30.783
20
14.999
0
VERTEX
8
CONTOURS_MINEURES
10
32.669
20
12.336
0
VERTEX
8
CONTOURS_MINEURES
10
32.894
20
12.004
0
VERTEX
8
CONTOURS_MINEURES
10
32.894
20
11.895
0
VERTEX
8
CONTOURS_MINEURES
10
32.894
20
8.997
0
VERTEX
8
CONTOURS_MINEURES
10
33.003
20
8.861
0
VERTEX
8
CONTOURS_MINEURES
10
35.859
20
8.861
0
VERTEX
8
CONTOURS_MINEURES
10
35.995
20
8.861
0
VERTEX
8
CONTOURS_MINEURES
10
37.670
20
7.671
0
VERTEX
8
CONTOURS_MINEURES
10
38.999
20
7.101
0
VERTEX
8
CONTOURS_MINEURES
10
40.048
20
7.048
0
VERTEX
8
CONTOURS_MINEURES
10
42.002
20
7.379
0
VERTEX
8
CONTOURS_MINEURES
10
43.618
20
7.379
0
VERTEX
8
CONTOURS_MINEURES
10
44.995
20
7.379
0
VERTEX
8
CONTOURS_MINEURES
10
46.601
20
7.604
0
VERTEX
8
CONTOURS_MINEURES
10
47.998
20
7.898
0
VERTEX
8
CONTOURS_MINEURES
10
49.290
20
7.708
0
VERTEX
8
CONTOURS_MINEURES
10
51.001
20
7.382
0
VERTEX
8
CONTOURS_MINEURES
10
52.621
20
7.382
0
VERTEX
8
CONTOURS_MINEURES
10
54.005
20
7.382
0
VERTEX
8
CONTOURS_MINEURES
10
54.901
20
6.898
0
VERTEX
8
CONTOURS_MINEURES
10
56.997
20
6.225
0
VERTEX
8
CONTOURS_MINEURES
10
57.150
20
6.153
0
VERTEX
8
CONTOURS_MINEURES
10
57.278
20
6.001
0
VERTEX
8
CONTOURS_MINEURES
10
57.935
20
3.933
0
VERTEX
8
CONTOURS_MINEURES
10
58.670
20
2.995
0
VERTEX
8
CONTOURS_MINEURES
10
58.670
20
1.326
0
VERTEX
8
CONTOURS_MINEURES
10
58.670
20
-0.001
0
SEQEND
0
POLYLINE
8
CONTOURS_MINEURES
66
1
70
0
0
VERTEX
8
CONTOURS_MINEURES
10
80.627
20
-0.001
0
VERTEX
8
CONTOURS_MINEURES
10
80.627
20
2.620
0
VERTEX
8
CONTOURS_MINEURES
10
80.627
20
2.995
0
VERTEX
8
CONTOURS_MINEURES
10
80.799
20
3.198
0
VERTEX
8
CONTOURS_MINEURES
10
81.003
20
3.405
0
VERTEX
8
CONTOURS_MINEURES
10
83.549
20
6.001
0
VERTEX
8
CONTOURS_MINEURES
10
83.995
20
6.448
0
VERTEX
8
CONTOURS_MINEURES
10
86.550
20
6.448
0
VERTEX
8
CONTOURS_MINEURES
10
86.999
20
6.448
0
VERTEX
8
CONTOURS_MINEURES
10
88.462
20
7.537
0
VERTEX
8
CONTOURS_MINEURES
10
89.805
20
8.997
0
VERTEX
8
CONTOURS_MINEURES
10
89.805
20
11.806
0
VERTEX
8
CONTOURS_MINEURES
10
89.805
20
12.004
0
VERTEX
8
CONTOURS_MINEURES
10
89.924
20
12.082
0
VERTEX
8
CONTOURS_MINEURES
10
90.002
20
12.143
0
VERTEX
8
CONTOURS_MINEURES
10
91.536
20
14.999
0
VERTEX
8
CONTOURS_MINEURES
10
91.536
20
16.460
0
VERTEX
8
CONTOURS_MINEURES
10
91.536
20
17.995
0
VERTEX
8
CONTOURS_MINEURES
10
91.668
20
19.327
0
VERTEX
8
CONTOURS_MINEURES
10
91.758
20
21.001
0
VERTEX
8
CONTOURS_MINEURES
10
91.824
20
22.825
0
VERTEX
8
CONTOURS_MINEURES
10
91.462
20
23.997
0
VERTEX
8
CONTOURS_MINEURES
10
91.462
20
25.537
0
VERTEX
8
CONTOURS_MINEURES
10
91.462
20
27.004
0
VERTEX
8
CONTOURS_MINEURES
10
90.301
20
29.700
0
VERTEX
8
CONTOURS_MINEURES
10
90.438
20
29.999
0
VERTEX
8
CONTOURS_MINEURES
10
90.635
20
32.361
0
VERTEX
8
CONTOURS_MINEURES
10
91.099
20
32.995
0
VERTEX
8
CONTOURS_MINEURES
10
91.099
20
34.899
0
VERTEX
8
CONTOURS_MINEURES
10
91.099
20
36.002
0
VERTEX
8
CONTOURS_MINEURES
10
91.099
20
37.100
0
VERTEX
8
CONTOURS_MINEURES
10
91.857
20
38.997
0
VERTEX
8
CONTOURS_MINEURES
10
91.857
20
40.140
0
VERTEX
8
CONTOURS_MINEURES
10
91.857
20
42.004
0
VERTEX
8
CONTOURS_MINEURES
10
91.979
20
43.020
0
VERTEX
8
CONTOURS_MINEURES
10
92.131
20
45.000
0
VERTEX
8
CONTOURS_MINEURES
10
92.178
20
45.817
0
VERTEX
8
CONTOURS_MINEURES
10
92.995
20
45.478
0
VERTEX
8
CONTOURS_MINEURES
10
93.474
20
45.478
0
VERTEX
8
CONTOURS_MINEURES
10
95.998
20
45.478
0
VERTEX
8
CONTOURS_MINEURES
10
96.633
20
45.000
0
VERTEX
8
CONTOURS_MINEURES
10
96.759
20
42.763
0
VERTEX
8
CONTOURS_MINEURES
10
99.001
20
43.647
0
VERTEX
8
CONTOURS_MINEURES
10
99.956
20
42.956
0
VERTEX
8
CONTOURS_MINEURES
10
101.129
20
42.004
0
VERTEX
8
CONTOURS_MINEURES
10
101.129
20
39.874
0
VERTEX
8
CONTOURS_MINEURES
10
101.129
20
38.997
0
VERTEX
8
CONTOURS_MINEURES
10
101.353
20
38.347
0
VERTEX
8
CONTOURS_MINEURES
10
102.005
20
38.367
0
SEQEND
0
POLYLINE
8
CONTOURS_MINEURES
66
1
70
0
0
VERTEX
8
CONTOURS_MINEURES
10
-0.002
20
55.641
0
VERTEX
8
CONTOURS_MINEURES
10
1.639
20
55.641
0
VERTEX
8
CONTOURS_MINEURES
10
3.001
20
55.641
0
VERTEX
8
CONTOURS_MINEURES
10
4.413
20
55.592
0
VERTEX
8
CONTOURS_MINEURES
10
6.005
20
55.694
0
VERTEX
8
CONTOURS_MINEURES
10
7.672
20
55.672
0
VERTEX
8
CONTOURS_MINEURES
10
8.997
20
55.360
0
VERTEX
8
CONTOURS_MINEURES
10
10.640
20
55.360
0
VERTEX
8
CONTOURS_MINEURES
10
12.001
20
55.360
0
VERTEX
8
CONTOURS_MINEURES
10
14.146
20
54.857
0
VERTEX
8
CONTOURS_MINEURES
10
15.004
20
54.677
0
VERTEX
8
CONTOURS_MINEURES
10
17.321
20
54.677
0
VERTEX
8
CONTOURS_MINEURES
10
17.997
20
54.677
0
VERTEX
8
CONTOURS_MINEURES
10
19.022
20
53.998
0
VERTEX
8
CONTOURS_MINEURES
10
19.889
20
52.890
0
VERTEX
8
CONTOURS_MINEURES
10
21.000
20
51.547
0
VERTEX
8
CONTOURS_MINEURES
10
21.601
20
51.002
0
VERTEX
8
CONTOURS_MINEURES
10
21.601
20
50.401
0
VERTEX
8
CONTOURS_MINEURES
10
21.601
20
47.995
0
VERTEX
8
CONTOURS_MINEURES
10
22.001
20
46.997
0
VERTEX
8
CONTOURS_MINEURES
10
22.761
20
45.000
0
VERTEX
8
CONTOURS_MINEURES
10
23.268
20
44.266
0
VERTEX
8
CONTOURS_MINEURES
10
24.003
20
43.108
0
VERTEX
8
CONTOURS_MINEURES
10
25.106
20
43.108
0
VERTEX
8
CONTOURS_MINEURES
10
26.996
20
43.108
0
VERTEX
8
CONTOURS_MINEURES
10
27.310
20
42.004
0
VERTEX
8
CONTOURS_MINEURES
10
27.310
20
41.690
0
VERTEX
8
CONTOURS_MINEURES
10
27.310
20
38.997
0
VERTEX
8
CONTOURS_MINEURES
10
28.142
20
37.144
0
VERTEX
8
CONTOURS_MINEURES
10
29.093
20
36.002
0
VERTEX
8
CONTOURS_MINEURES
10
29.093
20
35.094
0
VERTEX
8
CONTOURS_MINEURES
10
29.093
20
32.995
0
VERTEX
8
CONTOURS_MINEURES
10
29.323
20
32.320
0
VERTEX
8
CONTOURS_MINEURES
10
29.999
20
30.998
0
VERTEX
8
CONTOURS_MINEURES
10
30.453
20
30.452
0
VERTEX
8
CONTOURS_MINEURES
10
31.201
20
29.999
0
VERTEX
8
CONTOURS_MINEURES
10
31.668
20
28.668
0
VERTEX
8
CONTOURS_MINEURES
10
31.365
20
27.004
0
VERTEX
8
CONTOURS_MINEURES
10
31.365
20
25.637
0
VERTEX
8
CONTOURS_MINEURES
10
31.365
20
23.997
0
VERTEX
8
CONTOURS_MINEURES
10
32.252
20
23.248
0
VERTEX
8
CONTOURS_MINEURES
10
32.702
20
21.001
0
VERTEX
8
CONTOURS_MINEURES
10
33.003
20
20.527
0
VERTEX
8
CONTOURS_MINEURES
10
33.475
20
20.527
0
VERTEX
8
CONTOURS_MINEURES
10
35.995
20
20.527
0
VERTEX
8
CONTOURS_MINEURES
10
37.880
20
19.881
0
VERTEX
8
CONTOURS_MINEURES
10
38.999
20
18.961
0
VERTEX
8
CONTOURS_MINEURES
10
40.227
20
19.225
0
VERTEX
8
CONTOURS_MINEURES
10
42.002
20
19.047
0
VERTEX
8
CONTOURS_MINEURES
10
43.947
20
19.047
0
VERTEX
8
CONTOURS_MINEURES
10
44.995
20
19.047
0
VERTEX
8
CONTOURS_MINEURES
10
45.720
20
18.721
0
VERTEX
8
CONTOURS_MINEURES
10
45.996
20
17.995
0
VERTEX
8
CONTOURS_MINEURES
10
45.996
20
15.998
0
VERTEX
8
CONTOURS_MINEURES
10
45.996
20
14.999
0
VERTEX
8
CONTOURS_MINEURES
10
47.297
20
14.300
0
VERTEX
8
CONTOURS_MINEURES
10
47.998
20
14.432
0
VERTEX
8
CONTOURS_MINEURES
10
48.807
20
14.193
0
VERTEX
8
CONTOURS_MINEURES
10
51.001
20
13.501
0
VERTEX
8
CONTOURS_MINEURES
10
52.503
20
13.501
0
VERTEX
8
CONTOURS_MINEURES
10
54.005
20
13.501
0
VERTEX
8
CONTOURS_MINEURES
10
55.839
20
12.004
0
VERTEX
8
CONTOURS_MINEURES
10
55.839
20
10.840
0
VERTEX
8
CONTOURS_MINEURES
10
55.839
20
8.997
0
VERTEX
8
CONTOURS_MINEURES
10
56.592
20
8.591
0
VERTEX
8
CONTOURS_MINEURES
10
56.997
20
8.460
0
VERTEX
8
CONTOURS_MINEURES
10
58.674
20
7.674
0
VERTEX
8
CONTOURS_MINEURES
10
60.001
20
6.101
0
VERTEX
8
CONTOURS_MINEURES
10
62.904
20
6.101
0
VERTEX
8
CONTOURS_MINEURES
10
63.004
20
6.101
0
VERTEX
8
CONTOURS_MINEURES
10
63.066
20
6.064
0
VERTEX
8
CONTOURS_MINEURES
10
63.096
20
6.001
0
VERTEX
8
CONTOURS_MINEURES
10
63.229
20
5.776
0
VERTEX
8
CONTOURS_MINEURES
10
64.911
20
2.995
0
VERTEX
8
CONTOURS_MINEURES
10
64.911
20
1.908
0
VERTEX
8
CONTOURS_MINEURES
10
64.911
20
-0.001
0
SEQEND
0
POLYLINE
8
CONTOURS_MINEURES
66
1
70
0
0
VERTEX
8
CONTOURS_MINEURES
10
-0.002
20
62.687
0
VERTEX
8
CONTOURS_MINEURES
10
2.692
20
62.687
0
VERTEX
8
CONTOURS_MINEURES
10
3.001
20
62.687
0
VERTEX
8
CONTOURS_MINEURES
10
3.289
20
62.708
0
VERTEX
8
CONTOURS_MINEURES
10
6.005
20
62.824
0
VERTEX
8
CONTOURS_MINEURES
10
8.909
20
62.908
0
VERTEX
8
CONTOURS_MINEURES
10
8.997
20
62.906
0
VERTEX
8
CONTOURS_MINEURES
10
9.087
20
62.906
0
VERTEX
8
CONTOURS_MINEURES
10
12.001
20
62.906
0
VERTEX
8
CONTOURS_MINEURES
10
14.872
20
62.863
0
VERTEX
8
CONTOURS_MINEURES
10
15.004
20
62.832
0
VERTEX
8
CONTOURS_MINEURES
10
15.167
20
62.832
0
VERTEX
8
CONTOURS_MINEURES
10
17.997
20
62.832
0
VERTEX
8
CONTOURS_MINEURES
10
20.166
20
62.164
0
VERTEX
8
CONTOURS_MINEURES
10
21.000
20
61.634
0
VERTEX
8
CONTOURS_MINEURES
10
23.860
20
60.143
0
VERTEX
8
CONTOURS_MINEURES
10
24.003
20
60.097
0
VERTEX
8
CONTOURS_MINEURES
10
24.100
20
60.097
0
VERTEX
8
CONTOURS_MINEURES
10
26.996
20
60.097
0
VERTEX
8
CONTOURS_MINEURES
10
27.184
20
60.000
0
VERTEX
8
CONTOURS_MINEURES
10
27.184
20
57.192
0
VERTEX
8
CONTOURS_MINEURES
10
27.184
20
57.004
0
VERTEX
8
CONTOURS_MINEURES
10
29.999
20
55.956
0
VERTEX
8
CONTOURS_MINEURES
10
31.751
20
55.752
0
VERTEX
8
CONTOURS_MINEURES
10
33.003
20
55.182
0
VERTEX
8
CONTOURS_MINEURES
10
34.816
20
55.182
0
VERTEX
8
CONTOURS_MINEURES
10
35.995
20
55.182
0
VERTEX
8
CONTOURS_MINEURES
10
38.856
20
54.141
0
VERTEX
8
CONTOURS_MINEURES
10
38.999
20
54.156
0
VERTEX
8
CONTOURS_MINEURES
10
39.124
20
54.123
0
VERTEX
8
CONTOURS_MINEURES
10
39.299
20
53.998
0
VERTEX
8
CONTOURS_MINEURES
10
42.002
20
52.714
0
VERTEX
8
CONTOURS_MINEURES
10
43.285
20
52.714
0
VERTEX
8
CONTOURS_MINEURES
10
44.995
20
52.714
0
VERTEX
8
CONTOURS_MINEURES
10
46.157
20
52.162
0
VERTEX
8
CONTOURS_MINEURES
10
47.998
20
51.721
0
VERTEX
8
CONTOURS_MINEURES
10
48.946
20
51.948
0
VERTEX
8
CONTOURS_MINEURES
10
51.001
20
51.564
0
VERTEX
8
CONTOURS_MINEURES
10
53.442
20
51.564
0
VERTEX
8
CONTOURS_MINEURES
10
54.005
20
51.564
0
VERTEX
8
CONTOURS_MINEURES
10
56.166
20
51.834
0
VERTEX
8
CONTOURS_MINEURES
10
56.997
20
52.666
0
VERTEX
8
CONTOURS_MINEURES
10
57.921
20
53.076
0
VERTEX
8
CONTOURS_MINEURES
10
60.001
20
53.076
0
VERTEX
8
CONTOURS_MINEURES
10
62.080
20
53.076
0
VERTEX
8
CONTOURS_MINEURES
10
63.004
20
53.076
0
VERTEX
8
CONTOURS_MINEURES
10
63.634
20
53.367
0
VERTEX
8
CONTOURS_MINEURES
10
65.997
20
53.367
0
VERTEX
8
CONTOURS_MINEURES
10
67.874
20
52.874
0
VERTEX
8
CONTOURS_MINEURES
10
69.000
20
52.825
0
VERTEX
8
CONTOURS_MINEURES
10
70.828
20
52.825
0
VERTEX
8
CONTOURS_MINEURES
10
72.003
20
52.825
0
VERTEX
8
CONTOURS_MINEURES
10
74.248
20
51.751
0
VERTEX
8
CONTOURS_MINEURES
10
74.996
20
51.601
0
VERTEX
8
CONTOURS_MINEURES
10
75.597
20
51.601
0
VERTEX
8
CONTOURS_MINEURES
10
77.999
20
51.601
0
VERTEX
8
CONTOURS_MINEURES
10
79.801
20
52.200
0
VERTEX
8
CONTOURS_MINEURES
10
81.003
20
52.846
0
VERTEX
8
CONTOURS_MINEURES
10
81.626
20
53.998
0
VERTEX
8
CONTOURS_MINEURES
10
82.272
20
55.729
0
VERTEX
8
CONTOURS_MINEURES
10
83.995
20
55.678
0
VERTEX
8
CONTOURS_MINEURES
10
85.674
20
55.678
0
VERTEX
8
CONTOURS_MINEURES
10
86.999
20
55.678
0
VERTEX
8
CONTOURS_MINEURES
10
88.324
20
55.678
0
VERTEX
8
CONTOURS_MINEURES
10
90.002
20
54.670
0
VERTEX
8
CONTOURS_MINEURES
10
90.397
20
54.394
0
VERTEX
8
CONTOURS_MINEURES
10
90.594
20
53.998
0
VERTEX
8
CONTOURS_MINEURES
10
92.995
20
51.644
0
VERTEX
8
CONTOURS_MINEURES
10
95.354
20
51.644
0
VERTEX
8
CONTOURS_MINEURES
10
95.998
20
51.644
0
VERTEX
8
CONTOURS_MINEURES
10
96.312
20
51.315
0
VERTEX
8
CONTOURS_MINEURES
10
96.469
20
51.002
0
VERTEX
8
CONTOURS_MINEURES
10
96.469
20
48.467
0
VERTEX
8
CONTOURS_MINEURES
10
96.469
20
47.995
0
VERTEX
8
CONTOURS_MINEURES
10
99.001
20
45.839
0
VERTEX
8
CONTOURS_MINEURES
10
100.470
20
45.000
0
VERTEX
8
CONTOURS_MINEURES
10
101.359
20
44.356
0
VERTEX
8
CONTOURS_MINEURES
10
102.005
20
43.832
0
SEQEND
0
POLYLINE
8
CONTOURS_MINEURES
66
1
70
0
0
VERTEX
8
CONTOURS_MINEURES
10
79.839
20
7.162
0
VERTEX
8
CONTOURS_MINEURES
10
81.003
20
8.079
0
VERTEX
8
CONTOURS_MINEURES
10
81.920
20
8.997
0
VERTEX
8
CONTOURS_MINEURES
10
81.920
20
11.082
0
VERTEX
8
CONTOURS_MINEURES
10
81.920
20
12.004
0
VERTEX
8
CONTOURS_MINEURES
10
82.876
20
13.124
0
VERTEX
8
CONTOURS_MINEURES
10
83.995
20
13.404
0
VERTEX
8
CONTOURS_MINEURES
10
85.399
20
13.404
0
VERTEX
8
CONTOURS_MINEURES
10
86.999
20
13.404
0
VERTEX
8
CONTOURS_MINEURES
10
87.961
20
14.040
0
VERTEX
8
CONTOURS_MINEURES
10
89.195
20
14.999
0
VERTEX
8
CONTOURS_MINEURES
10
89.195
20
17.190
0
VERTEX
8
CONTOURS_MINEURES
10
89.195
20
17.995
0
VERTEX
8
CONTOURS_MINEURES
10
89.884
20
20.884
0
VERTEX
8
CONTOURS_MINEURES
10
89.921
20
21.001
0
VERTEX
8
CONTOURS_MINEURES
10
89.874
20
21.129
0
VERTEX
8
CONTOURS_MINEURES
10
88.589
20
23.997
0
VERTEX
8
CONTOURS_MINEURES
10
88.589
20
25.589
0
VERTEX
8
CONTOURS_MINEURES
10
88.589
20
27.004
0
VERTEX
8
CONTOURS_MINEURES
10
87.978
20
27.981
0
VERTEX
8
CONTOURS_MINEURES
10
86.999
20
28.825
0
VERTEX
8
CONTOURS_MINEURES
10
85.172
20
28.825
0
VERTEX
8
CONTOURS_MINEURES
10
83.995
20
28.825
0
VERTEX
8
CONTOURS_MINEURES
10
81.302
20
29.700
0
VERTEX
8
CONTOURS_MINEURES
10
81.003
20
29.605
0
VERTEX
8
CONTOURS_MINEURES
10
78.698
20
29.303
0
VERTEX
8
CONTOURS_MINEURES
10
77.999
20
28.237
0
VERTEX
8
CONTOURS_MINEURES
10
76.763
20
28.237
0
VERTEX
8
CONTOURS_MINEURES
10
74.996
20
28.237
0
VERTEX
8
CONTOURS_MINEURES
10
74.320
20
27.680
0
VERTEX
8
CONTOURS_MINEURES
10
74.430
20
27.004
0
VERTEX
8
CONTOURS_MINEURES
10
74.430
20
24.566
0
VERTEX
8
CONTOURS_MINEURES
10
74.430
20
23.997
0
VERTEX
8
CONTOURS_MINEURES
10
72.835
20
23.165
0
VERTEX
8
CONTOURS_MINEURES
10
72.003
20
22.043
0
VERTEX
8
CONTOURS_MINEURES
10
70.045
20
22.043
0
VERTEX
8
CONTOURS_MINEURES
10
69.000
20
22.043
0
VERTEX
8
CONTOURS_MINEURES
10
67.799
20
21.001
0
VERTEX
8
CONTOURS_MINEURES
10
66.703
20
20.294
0
VERTEX
8
CONTOURS_MINEURES
10
65.997
20
19.985
0
VERTEX
8
CONTOURS_MINEURES
10
63.343
20
17.995
0
VERTEX
8
CONTOURS_MINEURES
10
63.343
20
17.656
0
VERTEX
8
CONTOURS_MINEURES
10
63.343
20
14.999
0
VERTEX
8
CONTOURS_MINEURES
10
63.386
20
14.617
0
VERTEX
8
CONTOURS_MINEURES
10
63.725
20
12.004
0
VERTEX
8
CONTOURS_MINEURES
10
63.725
20
9.721
0
VERTEX
8
CONTOURS_MINEURES
10
63.725
20
8.997
0
VERTEX
8
CONTOURS_MINEURES
10
65.145
20
8.144
0
VERTEX
8
CONTOURS_MINEURES
10
65.997
20
6.327
0
VERTEX
8
CONTOURS_MINEURES
10
66.192
20
6.196
0
VERTEX
8
CONTOURS_MINEURES
10
66.354
20
6.001
0
VERTEX
8
CONTOURS_MINEURES
10
67.889
20
4.889
0
VERTEX
8
CONTOURS_MINEURES
10
69.000
20
4.207
0
VERTEX
8
CONTOURS_MINEURES
10
70.211
20
4.207
0
VERTEX
8
CONTOURS_MINEURES
10
72.003
20
4.207
0
VERTEX
8
CONTOURS_MINEURES
10
73.500
20
4.498
0
VERTEX
8
CONTOURS_MINEURES
10
74.996
20
4.818
0
VERTEX
8
CONTOURS_MINEURES
10
76.178
20
4.818
0
VERTEX
8
CONTOURS_MINEURES
10
77.999
20
4.818
0
VERTEX
8
CONTOURS_MINEURES
10
78.541
20
5.459
0
VERTEX
8
CONTOURS_MINEURES
10
79.075
20
6.001
0
VERTEX
8
CONTOURS_MINEURES
10
79.839
20
7.162
0
SEQEND
0
POLYLINE
8
CONTOURS_MINEURES
66
1
70
0
0
VERTEX
8
CONTOURS_MINEURES
10
-0.002
20
80.593
0
VERTEX
8
CONTOURS_MINEURES
10
0.408
20
80.593
0
VERTEX
8
CONTOURS_MINEURES
10
3.001
20
80.593
0
VERTEX
8
CONTOURS_MINEURES
10
4.609
20
79.605
0
VERTEX
8
CONTOURS_MINEURES
10
6.005
20
79.262
0
VERTEX
8
CONTOURS_MINEURES
10
7.757
20
77.996
0
VERTEX
8
CONTOURS_MINEURES
10
8.310
20
77.308
0
VERTEX
8
CONTOURS_MINEURES
10
8.997
20
77.017
0
VERTEX
8
CONTOURS_MINEURES
10
9.979
20
77.017
0
VERTEX
8
CONTOURS_MINEURES
10
12.001
20
77.017
0
VERTEX
8
CONTOURS_MINEURES
10
13.421
20
76.417
0
VERTEX
8
CONTOURS_MINEURES
10
15.004
20
75.400
0
VERTEX
8
CONTOURS_MINEURES
10
17.598
20
75.400
0
VERTEX
8
CONTOURS_MINEURES
10
17.997
20
75.400
0
VERTEX
8
CONTOURS_MINEURES
10
19.799
20
75.000
0
VERTEX
8
CONTOURS_MINEURES
10
19.799
20
73.802
0
VERTEX
8
CONTOURS_MINEURES
10
19.799
20
72.005
0
VERTEX
8
CONTOURS_MINEURES
10
20.744
20
71.749
0
VERTEX
8
CONTOURS_MINEURES
10
21.000
20
71.688
0
VERTEX
8
CONTOURS_MINEURES
10
23.918
20
71.919
0
VERTEX
8
CONTOURS_MINEURES
10
24.003
20
71.919
0
VERTEX
8
CONTOURS_MINEURES
10
26.911
20
71.919
0
VERTEX
8
CONTOURS_MINEURES
10
26.996
20
71.919
0
VERTEX
8
CONTOURS_MINEURES
10
27.093
20
71.908
0
VERTEX
8
CONTOURS_MINEURES
10
27.597
20
72.005
0
VERTEX
8
CONTOURS_MINEURES
10
27.597
20
72.604
0
VERTEX
8
CONTOURS_MINEURES
10
27.597
20
75.000
0
VERTEX
8
CONTOURS_MINEURES
10
29.635
20
75.363
0
VERTEX
8
CONTOURS_MINEURES
10
29.999
20
75.428
0
VERTEX
8
CONTOURS_MINEURES
10
30.343
20
75.343
0
VERTEX
8
CONTOURS_MINEURES
10
33.003
20
75.000
0
VERTEX
8
CONTOURS_MINEURES
10
33.003
20
72.005
0
VERTEX
8
CONTOURS_MINEURES
10
35.995
20
72.005
0
VERTEX
8
CONTOURS_MINEURES
10
35.995
20
75.000
0
VERTEX
8
CONTOURS_MINEURES
10
38.999
20
75.341
0
VERTEX
8
CONTOURS_MINEURES
10
39.258
20
75.259
0
VERTEX
8
CONTOURS_MINEURES
10
42.002
20
75.350
0
VERTEX
8
CONTOURS_MINEURES
10
44.646
20
75.350
0
VERTEX
8
CONTOURS_MINEURES
10
44.995
20
75.350
0
VERTEX
8
CONTOURS_MINEURES
10
45.304
20
75.309
0
VERTEX
8
CONTOURS_MINEURES
10
45.803
20
75.000
0
VERTEX
8
CONTOURS_MINEURES
10
45.803
20
72.811
0
VERTEX
8
CONTOURS_MINEURES
10
45.803
20
72.005
0
VERTEX
8
CONTOURS_MINEURES
10
47.998
20
70.885
0
VERTEX
8
CONTOURS_MINEURES
10
50.281
20
69.720
0
VERTEX
8
CONTOURS_MINEURES
10
51.001
20
69.408
0
VERTEX
8
CONTOURS_MINEURES
10
51.411
20
69.408
0
VERTEX
8
CONTOURS_MINEURES
10
54.005
20
69.408
0
VERTEX
8
CONTOURS_MINEURES
10
56.249
20
68.998
0
VERTEX
8
CONTOURS_MINEURES
10
56.249
20
66.751
0
VERTEX
8
CONTOURS_MINEURES
10
56.249
20
66.002
0
VERTEX
8
CONTOURS_MINEURES
10
56.997
20
65.825
0
VERTEX
8
CONTOURS_MINEURES
10
59.910
20
65.911
0
VERTEX
8
CONTOURS_MINEURES
10
60.001
20
65.872
0
VERTEX
8
CONTOURS_MINEURES
10
62.873
20
65.872
0
VERTEX
8
CONTOURS_MINEURES
10
63.004
20
65.872
0
VERTEX
8
CONTOURS_MINEURES
10
63.111
20
65.895
0
VERTEX
8
CONTOURS_MINEURES
10
63.752
20
66.002
0
VERTEX
8
CONTOURS_MINEURES
10
63.752
20
66.751
0
VERTEX
8
CONTOURS_MINEURES
10
63.752
20
68.998
0
VERTEX
8
CONTOURS_MINEURES
10
65.498
20
69.499
0
VERTEX
8
CONTOURS_MINEURES
10
65.997
20
69.408
0
VERTEX
8
CONTOURS_MINEURES
10
66.222
20
68.998
0
VERTEX
8
CONTOURS_MINEURES
10
66.222
20
66.227
0
VERTEX
8
CONTOURS_MINEURES
10
66.222
20
66.002
0
VERTEX
8
CONTOURS_MINEURES
10
67.264
20
64.264
0
VERTEX
8
CONTOURS_MINEURES
10
69.000
20
64.366
0
VERTEX
8
CONTOURS_MINEURES
10
70.634
20
64.366
0
VERTEX
8
CONTOURS_MINEURES
10
72.003
20
64.366
0
VERTEX
8
CONTOURS_MINEURES
10
74.093
20
63.903
0
VERTEX
8
CONTOURS_MINEURES
10
74.996
20
63.673
0
VERTEX
8
CONTOURS_MINEURES
10
75.673
20
63.673
0
VERTEX
8
CONTOURS_MINEURES
10
77.999
20
63.673
0
VERTEX
8
CONTOURS_MINEURES
10
79.603
20
64.397
0
VERTEX
8
CONTOURS_MINEURES
10
81.003
20
65.251
0
VERTEX
8
CONTOURS_MINEURES
10
82.776
20
64.221
0
VERTEX
8
CONTOURS_MINEURES
10
83.995
20
63.802
0
VERTEX
8
CONTOURS_MINEURES
10
86.193
20
63.802
0
VERTEX
8
CONTOURS_MINEURES
10
86.999
20
63.802
0
VERTEX
8
CONTOURS_MINEURES
10
87.336
20
63.333
0
VERTEX
8
CONTOURS_MINEURES
10
87.733
20
62.996
0
VERTEX
8
CONTOURS_MINEURES
10
89.144
20
62.140
0
VERTEX
8
CONTOURS_MINEURES
10
90.002
20
61.498
0
VERTEX
8
CONTOURS_MINEURES
10
91.727
20
60.000
0
VERTEX
8
CONTOURS_MINEURES
10
91.727
20
58.731
0
VERTEX
8
CONTOURS_MINEURES
10
91.727
20
57.004
0
VERTEX
8
CONTOURS_MINEURES
10
92.475
20
56.482
0
VERTEX
8
CONTOURS_MINEURES
10
92.995
20
55.438
0
VERTEX
8
CONTOURS_MINEURES
10
94.434
20
55.438
0
VERTEX
8
CONTOURS_MINEURES
10
95.998
20
55.438
0
VERTEX
8
CONTOURS_MINEURES
10
96.669
20
53.998
0
VERTEX
8
CONTOURS_MINEURES
10
97.806
20
52.805
0
VERTEX
8
CONTOURS_MINEURES
10
98.710
20
51.002
0
VERTEX
8
CONTOURS_MINEURES
10
98.710
20
50.710
0
VERTEX
8
CONTOURS_MINEURES
10
98.710
20
47.995
0
VERTEX
8
CONTOURS_MINEURES
10
99.001
20
47.747
0
VERTEX
8
CONTOURS_MINEURES
10
99.584
20
47.414
0
VERTEX
8
CONTOURS_MINEURES
10
102.005
20
47.567
0
SEQEND
0
POLYLINE
8
CONTOURS_MINEURES
66
1
70
0
0
VERTEX
8
CONTOURS_MINEURES
10
66.343
20
83.998
0
VERTEX
8
CONTOURS_MINEURES
10
66.343
20
81.348
0
VERTEX
8
CONTOURS_MINEURES
10
66.343
20
81.003
0
VERTEX
8
CONTOURS_MINEURES
10
69.000
20
78.441
0
VERTEX
8
CONTOURS_MINEURES
10
71.558
20
78.441
0
VERTEX
8
CONTOURS_MINEURES
10
72.003
20
78.441
0
VERTEX
8
CONTOURS_MINEURES
10
72.174
20
77.996
0
VERTEX
8
CONTOURS_MINEURES
10
73.150
20
76.148
0
VERTEX
8
CONTOURS_MINEURES
10
74.996
20
75.288
0
VERTEX
8
CONTOURS_MINEURES
10
77.711
20
75.288
0
VERTEX
8
CONTOURS_MINEURES
10
77.999
20
75.288
0
VERTEX
8
CONTOURS_MINEURES
10
80.627
20
75.000
0
VERTEX
8
CONTOURS_MINEURES
10
80.627
20
72.379
0
VERTEX
8
CONTOURS_MINEURES
10
80.627
20
72.005
0
VERTEX
8
CONTOURS_MINEURES
10
80.937
20
71.939
0
VERTEX
8
CONTOURS_MINEURES
10
81.003
20
71.969
0
VERTEX
8
CONTOURS_MINEURES
10
81.045
20
71.962
0
VERTEX
8
CONTOURS_MINEURES
10
83.995
20
71.881
0
VERTEX
8
CONTOURS_MINEURES
10
86.875
20
71.881
0
VERTEX
8
CONTOURS_MINEURES
10
86.999
20
71.881
0
VERTEX
8
CONTOURS_MINEURES
10
87.562
20
71.441
0
VERTEX
8
CONTOURS_MINEURES
10
90.002
20
70.148
0
VERTEX
8
CONTOURS_MINEURES
10
92.596
20
68.998
0
VERTEX
8
CONTOURS_MINEURES
10
92.596
20
68.599
0
VERTEX
8
CONTOURS_MINEURES
10
92.596
20
66.002
0
VERTEX
8
CONTOURS_MINEURES
10
92.995
20
65.862
0
VERTEX
8
CONTOURS_MINEURES
10
95.858
20
65.862
0
VERTEX
8
CONTOURS_MINEURES
10
95.998
20
65.862
0
VERTEX
8
CONTOURS_MINEURES
10
97.685
20
62.996
0
VERTEX
8
CONTOURS_MINEURES
10
99.001
20
60.333
0
VERTEX
8
CONTOURS_MINEURES
10
100.963
20
61.039
0
VERTEX
8
CONTOURS_MINEURES
10
102.005
20
61.886
0
SEQEND
0
POLYLINE
8
CONTOURS_MINEURES
66
1
70
0
0
VERTEX
8
CONTOURS_MINEURES
10
47.291
20
83.998
0
VERTEX
8
CONTOURS_MINEURES
10
47.291
20
81.707
0
VERTEX
8
CONTOURS_MINEURES
10
47.291
20
81.003
0
VERTEX
8
CONTOURS_MINEURES
10
47.998
20
80.723
0
VERTEX
8
CONTOURS_MINEURES
10
49.625
20
79.625
0
VERTEX
8
CONTOURS_MINEURES
10
51.001
20
79.585
0
VERTEX
8
CONTOURS_MINEURES
10
52.417
20
79.585
0
VERTEX
8
CONTOURS_MINEURES
10
54.005
20
79.585
0
VERTEX
8
CONTOURS_MINEURES
10
55.982
20
79.982
0
VERTEX
8
CONTOURS_MINEURES
10
56.997
20
79.787
0
VERTEX
8
CONTOURS_MINEURES
10
58.074
20
79.925
0
VERTEX
8
CONTOURS_MINEURES
10
59.851
20
81.003
0
VERTEX
8
CONTOURS_MINEURES
10
59.851
20
81.152
0
VERTEX
8
CONTOURS_MINEURES
10
59.851
20
83.998
0
SEQEND
0
POLYLINE
8
CONTOURS_MINEURES
66
1
70
0
0
VERTEX
8
CONTOURS_MINEURES
10
80.502
20
83.998
0
VERTEX
8
CONTOURS_MINEURES
10
80.502
20
83.499
0
VERTEX
8
CONTOURS_MINEURES
10
80.502
20
81.003
0
VERTEX
8
CONTOURS_MINEURES
10
81.003
20
80.533
0
VERTEX
8
CONTOURS_MINEURES
10
83.696
20
80.702
0
VERTEX
8
CONTOURS_MINEURES
10
83.995
20
80.729
0
VERTEX
8
CONTOURS_MINEURES
10
84.268
20
80.729
0
VERTEX
8
CONTOURS_MINEURES
10
86.999
20
80.729
0
VERTEX
8
CONTOURS_MINEURES
10
87.157
20
80.844
0
VERTEX
8
CONTOURS_MINEURES
10
87.359
20
81.003
0
VERTEX
8
CONTOURS_MINEURES
10
87.359
20
81.362
0
VERTEX
8
CONTOURS_MINEURES
10
87.359
20
83.998
0
SEQEND
0
POLYLINE
8
CONTOURS_MAJEURES
66
1
70
0
0
VERTEX
8
CONTOURS_MAJEURES
10
80.627
20
-0.001
0
VERTEX
8
CONTOURS_MAJEURES
10
80.627
20
2.620
0
VERTEX
8
CONTOURS_MAJEURES
10
80.627
20
2.995
0
VERTEX
8
CONTOURS_MAJEURES
10
80.799
20
3.198
0
VERTEX
8
CONTOURS_MAJEURES
10
81.003
20
3.405
0
VERTEX
8
CONTOURS_MAJEURES
10
83.549
20
6.001
0
VERTEX
8
CONTOURS_MAJEURES
10
83.995
20
6.448
0
VERTEX
8
CONTOURS_MAJEURES
10
86.550
20
6.448
0
VERTEX
8
CONTOURS_MAJEURES
10
86.999
20
6.448
0
VERTEX
8
CONTOURS_MAJEURES
10
88.462
20
7.537
0
VERTEX
8
CONTOURS_MAJEURES
10
89.805
20
8.997
0
VERTEX
8
CONTOURS_MAJEURES
10
89.805
20
11.806
0
VERTEX
8
CONTOURS_MAJEURES
10
89.805
20
12.004
0
VERTEX
8
CONTOURS_MAJEURES
10
89.924
20
12.082
0
VERTEX
8
CONTOURS_MAJEURES
10
90.002
20
12.143
0
VERTEX
8
CONTOURS_MAJEURES
10
91.536
20
14.999
0
VERTEX
8
CONTOURS_MAJEURES
10
91.536
20
16.460
0
VERTEX
8
CONTOURS_MAJEURES
10
91.536
20
17.995
0
VERTEX
8
CONTOURS_MAJEURES
10
91.668
20
19.327
0
VERTEX
8
CONTOURS_MAJEURES
10
91.758
20
21.001
0
VERTEX
8
CONTOURS_MAJEURES
10
91.824
20
22.825
0
VERTEX
8
CONTOURS_MAJEURES
10
91.462
20
23.997
0
VERTEX
8
CONTOURS_MAJEURES
10
91.462
20
25.537
0
VERTEX
8
CONTOURS_MAJEURES
10
91.462
20
27.004
0
VERTEX
8
CONTOURS_MAJEURES
10
90.301
20
29.700
0
VERTEX
8
CONTOURS_MAJEURES
10
90.438
20
29.999
0
VERTEX
8
CONTOURS_MAJEURES
10
90.635
20
32.361
0
VERTEX
8
CONTOURS_MAJEURES
10
91.099
20
32.995
0
VERTEX
8
CONTOURS_MAJEURES
10
91.099
20
34.899
0
VERTEX
8
CONTOURS_MAJEURES
10
91.099
20
36.002
0
VERTEX
8
CONTOURS_MAJEURES
10
91.099
20
37.100
0
VERTEX
8
CONTOURS_MAJEURES
10
91.857
20
38.997
0
VERTEX
8
CONTOURS_MAJEURES
10
91.857
20
40.140
0
VERTEX
8
CONTOURS_MAJEURES
10
91.857
20
42.004
0
VERTEX
8
CONTOURS_MAJEURES
10
91.979
20
43.020
0
VERTEX
8
CONTOURS_MAJEURES
10
92.131
20
45.000
0
VERTEX
8
CONTOURS_MAJEURES
10
92.178
20
45.817
0
VERTEX
8
CONTOURS_MAJEURES
10
92.995
20
45.478
0
VERTEX
8
CONTOURS_MAJEURES
10
93.474
20
45.478
0
VERTEX
8
CONTOURS_MAJEURES
10
95.998
20
45.478
0
VERTEX
8
CONTOURS_MAJEURES
10
96.633
20
45.000
0
VERTEX
8
CONTOURS_MAJEURES
10
96.759
20
42.763
0
VERTEX
8
CONTOURS_MAJEURES
10
99.001
20
43.647
0
VERTEX
8
CONTOURS_MAJEURES
10
99.956
20
42.956
0
VERTEX
8
CONTOURS_MAJEURES
10
101.129
20
42.004
0
VERTEX
8
CONTOURS_MAJEURES
10
101.129
20
39.874
0
VERTEX
8
CONTOURS_MAJEURES
10
101.129
20
38.997
0
VERTEX
8
CONTOURS_MAJEURES
10
101.353
20
38.347
0
VERTEX
8
CONTOURS_MAJEURES
10
102.005
20
38.367
0
SEQEND
0
POLYLINE
8
CONTOURS_MAJEURES
66
1
70
0
0
VERTEX
8
CONTOURS_MAJEURES
10
-0.002
20
55.641
0
VERTEX
8
CONTOURS_MAJEURES
10
1.639
20
55.641
0
VERTEX
8
CONTOURS_MAJEURES
10
3.001
20
55.641
0
VERTEX
8
CONTOURS_MAJEURES
10
4.413
20
55.592
0
VERTEX
8
CONTOURS_MAJEURES
10
6.005
20
55.694
0
VERTEX
8
CONTOURS_MAJEURES
10
7.672
20
55.672
0
VERTEX
8
CONTOURS_MAJEURES
10
8.997
20
55.360
0
VERTEX
8
CONTOURS_MAJEURES
10
10.640
20
55.360
0
VERTEX
8
CONTOURS_MAJEURES
10
12.001
20
55.360
0
VERTEX
8
CONTOURS_MAJEURES
10
14.146
20
54.857
0
VERTEX
8
CONTOURS_MAJEURES
10
15.004
20
54.677
0
VERTEX
8
CONTOURS_MAJEURES
10
17.321
20
54.677
0
VERTEX
8
CONTOURS_MAJEURES
10
17.997
20
54.677
0
VERTEX
8
CONTOURS_MAJEURES
10
19.022
20
53.998
0
VERTEX
8
CONTOURS_MAJEURES
10
19.889
20
52.890
0
VERTEX
8
CONTOURS_MAJEURES
10
21.000
20
51.547
0
VERTEX
8
CONTOURS_MAJEURES
10
21.601
20
51.002
0
VERTEX
8
CONTOURS_MAJEURES
10
21.601
20
50.401
0
VERTEX
8
CONTOURS_MAJEURES
10
21.601
20
47.995
0
VERTEX
8
CONTOURS_MAJEURES
10
22.001
20
46.997
0
VERTEX
8
CONTOURS_MAJEURES
10
22.761
20
45.000
0
VERTEX
8
CONTOURS_MAJEURES
10
23.268
20
44.266
0
VERTEX
8
CONTOURS_MAJEURES
10
24.003
20
43.108
0
VERTEX
8
CONTOURS_MAJEURES
10
25.106
20
43.108
0
VERTEX
8
CONTOURS_MAJEURES
10
26.996
20
43.108
0
VERTEX
8
CONTOURS_MAJEURES
10
27.310
20
42.004
0
VERTEX
8
CONTOURS_MAJEURES
10
27.310
20
41.690
0
VERTEX
8
CONTOURS_MAJEURES
10
27.310
20
38.997
0
VERTEX
8
CONTOURS_MAJEURES
10
28.142
20
37.144
0
VERTEX
8
CONTOURS_MAJEURES
10
29.093
20
36.002
0
VERTEX
8
CONTOURS_MAJEURES
10
29.093
20
35.094
0
VERTEX
8
CONTOURS_MAJEURES
10
29.093
20
32.995
0
VERTEX
8
CONTOURS_MAJEURES
10
29.323
20
32.320
0
VERTEX
8
CONTOURS_MAJEURES
10
29.999
20
30.998
0
VERTEX
8
CONTOURS_MAJEURES
10
30.453
20
30.452
0
VERTEX
8
CONTOURS_MAJEURES
10
31.201
20
29.999
0
VERTEX
8
CONTOURS_MAJEURES
10
31.668
20
28.668
0
VERTEX
8
CONTOURS_MAJEURES
10
31.365
20
27.004
0
VERTEX
8
CONTOURS_MAJEURES
10
31.365
20
25.637
0
VERTEX
8
CONTOURS_MAJEURES
10
31.365
20
23.997
0
VERTEX
8
CONTOURS_MAJEURES
10
32.252
20
23.248
0
VERTEX
8
CONTOURS_MAJEURES
10
32.702
20
21.001
0
VERTEX
8
CONTOURS_MAJEURES
10
33.003
20
20.527
0
VERTEX
8
CONTOURS_MAJEURES
10
33.475
20
20.527
0
VERTEX
8
CONTOURS_MAJEURES
10
35.995
20
20.527
0
VERTEX
8
CONTOURS_MAJEURES
10
37.880
20
19.881
0
VERTEX
8
CONTOURS_MAJEURES
10
38.999
20
18.961
0
VERTEX
8
CONTOURS_MAJEURES
10
40.227
20
19.225
0
VERTEX
8
CONTOURS_MAJEURES
10
42.002
20
19.047
0
VERTEX
8
CONTOURS_MAJEURES
10
43.947
20
19.047
0
VERTEX
8
CONTOURS_MAJEURES
10
44.995
20
19.047
0
VERTEX
8
CONTOURS_MAJEURES
10
45.720
20
18.721
0
VERTEX
8
CONTOURS_MAJEURES
10
45.996
20
17.995
0
VERTEX
8
CONTOURS_MAJEURES
10
45.996
20
15.998
0
VERTEX
8
CONTOURS_MAJEURES
10
45.996
20
14.999
0
VERTEX
8
CONTOURS_MAJEURES
10
47.297
20
14.300
0
VERTEX
8
CONTOURS_MAJEURES
10
47.998
20
14.432
0
VERTEX
8
CONTOURS_MAJEURES
10
48.807
20
14.193
0
VERTEX
8
CONTOURS_MAJEURES
10
51.001
20
13.501
0
VERTEX
8
CONTOURS_MAJEURES
10
52.503
20
13.501
0
VERTEX
8
CONTOURS_MAJEURES
10
54.005
20
13.501
0
VERTEX
8
CONTOURS_MAJEURES
10
55.839
20
12.004
0
VERTEX
8
CONTOURS_MAJEURES
10
55.839
20
10.840
0
VERTEX
8
CONTOURS_MAJEURES
10
55.839
20
8.997
0
VERTEX
8
CONTOURS_MAJEURES
10
56.592
20
8.591
0
VERTEX
8
CONTOURS_MAJEURES
10
56.997
20
8.460
0
VERTEX
8
CONTOURS_MAJEURES
10
58.674
20
7.674
0
VERTEX
8
CONTOURS_MAJEURES
10
60.001
20
6.101
0
VERTEX
8
CONTOURS_MAJEURES
10
62.904
20
6.101
0
VERTEX
8
CONTOURS_MAJEURES
10
63.004
20
6.101
0
VERTEX
8
CONTOURS_MAJEURES
10
63.066
20
6.064
0
VERTEX
8
CONTOURS_MAJEURES
10
63.096
20
6.001
0
VERTEX
8
CONTOURS_MAJEURES
10
63.229
20
5.776
0
VERTEX
8
CONTOURS_MAJEURES
10
64.911
20
2.995
0
VERTEX
8
CONTOURS_MAJEURES
10
64.911
20
1.908
0
VERTEX
8
CONTOURS_MAJEURES
10
64.911
20
-0.001
0
SEQEND
0
POLYLINE
8
PARCELLE
66
1
70
1
0
VERTEX
8
PARCELLE
10
48.452
20
64.199
0
VERTEX
8
PARCELLE
10
48.828
20
63.577
0
VERTEX
8
PARCELLE
10
49.344
20
63.044
0
VERTEX
8
PARCELLE
10
50.692
20
61.685
0
VERTEX
8
PARCELLE
10
79.235
20
38.227
0
VERTEX
8
PARCELLE
10
83.028
20
34.949
0
VERTEX
8
PARCELLE
10
60.272
20
23.745
0
VERTEX
8
PARCELLE
10
52.674
20
20.000
0
VERTEX
8
PARCELLE
10
42.359
20
42.581
0
VERTEX
8
PARCELLE
10
23.338
20
40.536
0
VERTEX
8
PARCELLE
10
20.000
20
46.947
0
VERTEX
8
PARCELLE
10
22.512
20
49.714
0
VERTEX
8
PARCELLE
10
29.300
20
54.545
0
VERTEX
8
PARCELLE
10
48.452
20
64.199
0
SEQEND
0
TEXT
8
POINTS_COTES
10
-0.002
20
-0.001
40
1.0
1
26.1
0
TEXT
8
POINTS_COTES
10
44.995
20
2.995
40
1.0
1
28.0
0
TEXT
8
POINTS_COTES
10
90.002
20
6.001
40
1.0
1
29.4
0
TEXT
8
POINTS_COTES
10
29.999
20
12.004
40
1.0
1
28.2
0
TEXT
8
POINTS_COTES
10
74.996
20
14.999
40
1.0
1
31.9
0
TEXT
8
POINTS_COTES
10
15.004
20
21.001
40
1.0
1
28.2
0
TEXT
8
POINTS_COTES
10
60.001
20
23.997
40
1.0
1
30.6
0
TEXT
8
POINTS_COTES
10
-0.002
20
29.999
40
1.0
1
28.4
0
TEXT
8
POINTS_COTES
10
44.995
20
32.995
40
1.0
1
30.4
0
TEXT
8
POINTS_COTES
10
90.002
20
36.002
40
1.0
1
30.1
0
TEXT
8
POINTS_COTES
10
29.999
20
42.004
40
1.0
1
30.6
0
TEXT
8
POINTS_COTES
10
74.996
20
45.000
40
1.0
1
30.8
0
TEXT
8
POINTS_COTES
10
15.004
20
51.002
40
1.0
1
29.5
0
TEXT
8
POINTS_COTES
10
60.001
20
53.998
40
1.0
1
31.0
0
TEXT
8
POINTS_COTES
10
-0.002
20
60.000
40
1.0
1
30.4
0
TEXT
8
POINTS_COTES
10
44.995
20
62.996
40
1.0
1
31.4
0
TEXT
8
POINTS_COTES
10
90.002
20
66.002
40
1.0
1
32.9
0
TEXT
8
POINTS_COTES
10
29.999
20
72.005
40
1.0
1
32.0
0
TEXT
8
POINTS_COTES
10
74.996
20
75.000
40
1.0
1
32.9
0
TEXT
8
POINTS_COTES
10
15.004
20
81.003
40
1.0
1
32.7
0
TEXT
8
POINTS_COTES
10
60.001
20
83.998
40
1.0
1
33.0
0
ENDSEC
0
EOF
