0
SECTION
2
HEADER
0
ENDSEC
0
SECTION
2
TABLES
0
TABLE
2
LAYER
70
4
0
LAYER
2
CONTOURS_MINEURES
70
0
62
8
6
CONTINUOUS
0
LAYER
2
CONTOURS_MAJEURES
70
0
62
3
6
CONTINUOUS
0
LAYER
2
PARCELLE
70
0
62
4
6
CONTINUOUS
0
LAYER
2
POINTS_COTES
70
0
62
7
6
CONTINUOUS
0
ENDTAB
0
ENDSEC
0
SECTION
2
ENTITIES
0
POLYLINE
8
CONTOURS_MINEURES
66
1
70
0
0
VERTEX
8
CONTOURS_MINEURES
10
0.003
20
2.031
0
VERTEX
8
CONTOURS_MINEURES
10
0.108
20
2.110
0
VERTEX
8
CONTOURS_MINEURES
10
1.997
20
2.562
0
VERTEX
8
CONTOURS_MINEURES
10
3.441
20
2.562
0
VERTEX
8
CONTOURS_MINEURES
10
4.002
20
2.562
0
VERTEX
8
CONTOURS_MINEURES
10
4.561
20
2.562
0
VERTEX
8
CONTOURS_MINEURES
10
5.996
20
2.562
0
VERTEX
8
CONTOURS_MINEURES
10
6.283
20
2.005
0
VERTEX
8
CONTOURS_MINEURES
10
6.283
20
0.290
0
VERTEX
8
CONTOURS_MINEURES
10
6.283
20
0.004
0
SEQEND
0
POLYLINE
8
CONTOURS_MINEURES
66
1
70
0
0
VERTEX
8
CONTOURS_MINEURES
10
0.003
20
6.309
0
VERTEX
8
CONTOURS_MINEURES
10
1.838
20
7.836
0
VERTEX
8
CONTOURS_MINEURES
10
1.997
20
7.949
0
VERTEX
8
CONTOURS_MINEURES
10
2.045
20
7.949
0
VERTEX
8
CONTOURS_MINEURES
10
4.002
20
7.949
0
VERTEX
8
CONTOURS_MINEURES
10
5.949
20
7.949
0
VERTEX
8
CONTOURS_MINEURES
10
5.996
20
7.949
0
VERTEX
8
CONTOURS_MINEURES
10
7.214
20
5.996
0
VERTEX
8
CONTOURS_MINEURES
10
7.214
20
5.210
0
VERTEX
8
CONTOURS_MINEURES
10
7.214
20
3.995
0
VERTEX
8
CONTOURS_MINEURES
10
8.001
20
3.045
0
VERTEX
8
CONTOURS_MINEURES
10
9.043
20
3.045
0
VERTEX
8
CONTOURS_MINEURES
10
9.995
20
3.045
0
VERTEX
8
CONTOURS_MINEURES
10
10.424
20
2.005
0
VERTEX
8
CONTOURS_MINEURES
10
10.424
20
0.433
0
VERTEX
8
CONTOURS_MINEURES
10
10.424
20
0.004
0
SEQEND
0
POLYLINE
8
CONTOURS_MINEURES
66
1
70
0
0
VERTEX
8
CONTOURS_MINEURES
10
0.003
20
7.670
0
VERTEX
8
CONTOURS_MINEURES
10
0.396
20
7.996
0
VERTEX
8
CONTOURS_MINEURES
10
0.396
20
9.604
0
VERTEX
8
CONTOURS_MINEURES
10
0.396
20
9.997
0
VERTEX
8
CONTOURS_MINEURES
10
0.396
20
10.391
0
VERTEX
8
CONTOURS_MINEURES
10
0.396
20
11.998
0
VERTEX
8
CONTOURS_MINEURES
10
0.906
20
13.093
0
VERTEX
8
CONTOURS_MINEURES
10
1.997
20
13.314
0
VERTEX
8
CONTOURS_MINEURES
10
3.316
20
13.314
0
VERTEX
8
CONTOURS_MINEURES
10
4.002
20
13.314
0
VERTEX
8
CONTOURS_MINEURES
10
4.685
20
13.314
0
VERTEX
8
CONTOURS_MINEURES
10
5.996
20
13.314
0
VERTEX
8
CONTOURS_MINEURES
10
6.755
20
12.755
0
VERTEX
8
CONTOURS_MINEURES
10
7.152
20
11.998
0
VERTEX
8
CONTOURS_MINEURES
10
7.152
20
10.845
0
VERTEX
8
CONTOURS_MINEURES
10
7.152
20
9.997
0
VERTEX
8
CONTOURS_MINEURES
10
7.152
20
9.150
0
VERTEX
8
CONTOURS_MINEURES
10
7.152
20
7.996
0
VERTEX
8
CONTOURS_MINEURES
10
8.001
20
6.786
0
VERTEX
8
CONTOURS_MINEURES
10
8.789
20
6.786
0
VERTEX
8
CONTOURS_MINEURES
10
9.995
20
6.786
0
VERTEX
8
CONTOURS_MINEURES
10
10.427
20
5.996
0
VERTEX
8
CONTOURS_MINEURES
10
10.427
20
4.426
0
VERTEX
8
CONTOURS_MINEURES
10
10.427
20
3.995
0
VERTEX
8
CONTOURS_MINEURES
10
10.584
20
3.410
0
VERTEX
8
CONTOURS_MINEURES
10
11.164
20
2.005
0
VERTEX
8
CONTOURS_MINEURES
10
11.164
20
1.171
0
VERTEX
8
CONTOURS_MINEURES
10
11.164
20
0.004
0
SEQEND
0
POLYLINE
8
CONTOURS_MINEURES
66
1
70
0
0
VERTEX
8
CONTOURS_MINEURES
10
0.003
20
22.785
0
VERTEX
8
CONTOURS_MINEURES
10
0.313
20
22.002
0
VERTEX
8
CONTOURS_MINEURES
10
0.313
20
20.312
0
VERTEX
8
CONTOURS_MINEURES
10
0.313
20
20.001
0
VERTEX
8
CONTOURS_MINEURES
10
0.313
20
18.311
0
VERTEX
8
CONTOURS_MINEURES
10
0.313
20
18.000
0
VERTEX
8
CONTOURS_MINEURES
10
1.997
20
17.000
0
VERTEX
8
CONTOURS_MINEURES
10
3.000
20
17.000
0
VERTEX
8
CONTOURS_MINEURES
10
4.002
20
17.000
0
VERTEX
8
CONTOURS_MINEURES
10
4.999
20
17.000
0
VERTEX
8
CONTOURS_MINEURES
10
5.996
20
17.000
0
VERTEX
8
CONTOURS_MINEURES
10
6.495
20
16.497
0
VERTEX
8
CONTOURS_MINEURES
10
6.889
20
16.000
0
VERTEX
8
CONTOURS_MINEURES
10
6.889
20
15.108
0
VERTEX
8
CONTOURS_MINEURES
10
6.889
20
13.999
0
VERTEX
8
CONTOURS_MINEURES
10
7.529
20
13.528
0
VERTEX
8
CONTOURS_MINEURES
10
8.001
20
12.627
0
VERTEX
8
CONTOURS_MINEURES
10
9.368
20
12.627
0
VERTEX
8
CONTOURS_MINEURES
10
9.995
20
12.627
0
VERTEX
8
CONTOURS_MINEURES
10
10.350
20
12.353
0
VERTEX
8
CONTOURS_MINEURES
10
10.467
20
11.998
0
VERTEX
8
CONTOURS_MINEURES
10
10.467
20
11.527
0
VERTEX
8
CONTOURS_MINEURES
10
10.467
20
9.997
0
VERTEX
8
CONTOURS_MINEURES
10
10.467
20
8.467
0
VERTEX
8
CONTOURS_MINEURES
10
10.467
20
7.996
0
VERTEX
8
CONTOURS_MINEURES
10
10.562
20
7.431
0
VERTEX
8
CONTOURS_MINEURES
10
11.347
20
5.996
0
VERTEX
8
CONTOURS_MINEURES
10
11.347
20
5.344
0
VERTEX
8
CONTOURS_MINEURES
10
11.347
20
3.995
0
VERTEX
8
CONTOURS_MINEURES
10
11.837
20
2.167
0
VERTEX
8
CONTOURS_MINEURES
10
11.904
20
2.005
0
VERTEX
8
CONTOURS_MINEURES
10
11.904
20
1.909
0
VERTEX
8
CONTOURS_MINEURES
10
11.904
20
0.004
0
SEQEND
0
POLYLINE
8
CONTOURS_MINEURES
66
1
70
0
0
VERTEX
8
CONTOURS_MINEURES
10
0.003
20
27.724
0
VERTEX
8
CONTOURS_MINEURES
10
1.457
20
27.462
0
VERTEX
8
CONTOURS_MINEURES
10
1.997
20
26.319
0
VERTEX
8
CONTOURS_MINEURES
10
3.686
20
26.319
0
VERTEX
8
CONTOURS_MINEURES
10
4.002
20
26.319
0
VERTEX
8
CONTOURS_MINEURES
10
4.317
20
26.319
0
VERTEX
8
CONTOURS_MINEURES
10
5.996
20
26.319
0
VERTEX
8
CONTOURS_MINEURES
10
6.171
20
26.177
0
VERTEX
8
CONTOURS_MINEURES
10
6.166
20
26.003
0
VERTEX
8
CONTOURS_MINEURES
10
6.166
20
24.172
0
VERTEX
8
CONTOURS_MINEURES
10
6.166
20
24.003
0
VERTEX
8
CONTOURS_MINEURES
10
6.878
20
22.882
0
VERTEX
8
CONTOURS_MINEURES
10
7.029
20
22.002
0
VERTEX
8
CONTOURS_MINEURES
10
7.029
20
20.971
0
VERTEX
8
CONTOURS_MINEURES
10
7.029
20
20.001
0
VERTEX
8
CONTOURS_MINEURES
10
7.029
20
18.970
0
VERTEX
8
CONTOURS_MINEURES
10
7.029
20
18.000
0
VERTEX
8
CONTOURS_MINEURES
10
7.513
20
17.513
0
VERTEX
8
CONTOURS_MINEURES
10
8.001
20
16.896
0
VERTEX
8
CONTOURS_MINEURES
10
9.101
20
16.896
0
VERTEX
8
CONTOURS_MINEURES
10
9.995
20
16.896
0
VERTEX
8
CONTOURS_MINEURES
10
10.647
20
16.650
0
VERTEX
8
CONTOURS_MINEURES
10
11.128
20
16.000
0
VERTEX
8
CONTOURS_MINEURES
10
11.128
20
14.869
0
VERTEX
8
CONTOURS_MINEURES
10
11.128
20
13.999
0
VERTEX
8
CONTOURS_MINEURES
10
11.619
20
13.619
0
VERTEX
8
CONTOURS_MINEURES
10
12.000
20
12.460
0
VERTEX
8
CONTOURS_MINEURES
10
12.463
20
12.460
0
VERTEX
8
CONTOURS_MINEURES
10
14.005
20
12.460
0
VERTEX
8
CONTOURS_MINEURES
10
14.949
20
11.998
0
VERTEX
8
CONTOURS_MINEURES
10
14.949
20
10.945
0
VERTEX
8
CONTOURS_MINEURES
10
14.949
20
9.997
0
VERTEX
8
CONTOURS_MINEURES
10
14.949
20
9.050
0
VERTEX
8
CONTOURS_MINEURES
10
14.949
20
7.996
0
VERTEX
8
CONTOURS_MINEURES
10
15.999
20
6.329
0
VERTEX
8
CONTOURS_MINEURES
10
16.333
20
6.329
0
VERTEX
8
CONTOURS_MINEURES
10
18.004
20
6.329
0
VERTEX
8
CONTOURS_MINEURES
10
19.666
20
6.329
0
VERTEX
8
CONTOURS_MINEURES
10
19.998
20
6.329
0
VERTEX
8
CONTOURS_MINEURES
10
20.031
20
6.029
0
VERTEX
8
CONTOURS_MINEURES
10
20.076
20
5.996
0
VERTEX
8
CONTOURS_MINEURES
10
20.076
20
5.917
0
VERTEX
8
CONTOURS_MINEURES
10
20.076
20
3.995
0
VERTEX
8
CONTOURS_MINEURES
10
20.675
20
2.677
0
VERTEX
8
CONTOURS_MINEURES
10
22.003
20
2.422
0
VERTEX
8
CONTOURS_MINEURES
10
23.579
20
2.422
0
VERTEX
8
CONTOURS_MINEURES
10
23.997
20
2.422
0
VERTEX
8
CONTOURS_MINEURES
10
24.392
20
2.397
0
VERTEX
8
CONTOURS_MINEURES
10
24.721
20
2.005
0
VERTEX
8
CONTOURS_MINEURES
10
24.721
20
0.727
0
VERTEX
8
CONTOURS_MINEURES
10
24.721
20
0.004
0
SEQEND
0
POLYLINE
8
CONTOURS_MINEURES
66
1
70
0
0
VERTEX
8
CONTOURS_MINEURES
10
0.003
20
31.408
0
VERTEX
8
CONTOURS_MINEURES
10
0.694
20
31.306
0
VERTEX
8
CONTOURS_MINEURES
10
1.997
20
31.386
0
VERTEX
8
CONTOURS_MINEURES
10
3.389
20
31.386
0
VERTEX
8
CONTOURS_MINEURES
10
4.002
20
31.386
0
VERTEX
8
CONTOURS_MINEURES
10
4.613
20
31.386
0
VERTEX
8
CONTOURS_MINEURES
10
5.996
20
31.386
0
VERTEX
8
CONTOURS_MINEURES
10
7.225
20
31.224
0
VERTEX
8
CONTOURS_MINEURES
10
8.001
20
30.925
0
VERTEX
8
CONTOURS_MINEURES
10
9.073
20
30.925
0
VERTEX
8
CONTOURS_MINEURES
10
9.995
20
30.925
0
VERTEX
8
CONTOURS_MINEURES
10
10.922
20
30.925
0
VERTEX
8
CONTOURS_MINEURES
10
12.000
20
30.736
0
VERTEX
8
CONTOURS_MINEURES
10
13.268
20
30.736
0
VERTEX
8
CONTOURS_MINEURES
10
14.005
20
30.736
0
VERTEX
8
CONTOURS_MINEURES
10
14.598
20
30.597
0
VERTEX
8
CONTOURS_MINEURES
10
15.999
20
30.318
0
VERTEX
8
CONTOURS_MINEURES
10
17.689
20
30.318
0
VERTEX
8
CONTOURS_MINEURES
10
18.004
20
30.318
0
VERTEX
8
CONTOURS_MINEURES
10
18.317
20
30.318
0
VERTEX
8
CONTOURS_MINEURES
10
19.998
20
30.318
0
VERTEX
8
CONTOURS_MINEURES
10
20.159
20
30.165
0
VERTEX
8
CONTOURS_MINEURES
10
20.322
20
30.005
0
VERTEX
8
CONTOURS_MINEURES
10
20.322
20
29.681
0
VERTEX
8
CONTOURS_MINEURES
10
20.322
20
28.004
0
VERTEX
8
CONTOURS_MINEURES
10
20.758
20
27.245
0
VERTEX
8
CONTOURS_MINEURES
10
20.666
20
26.003
0
VERTEX
8
CONTOURS_MINEURES
10
20.666
20
24.670
0
VERTEX
8
CONTOURS_MINEURES
10
20.666
20
24.003
0
VERTEX
8
CONTOURS_MINEURES
10
20.839
20
22.841
0
VERTEX
8
CONTOURS_MINEURES
10
21.183
20
22.002
0
VERTEX
8
CONTOURS_MINEURES
10
21.183
20
21.183
0
VERTEX
8
CONTOURS_MINEURES
10
21.183
20
20.001
0
VERTEX
8
CONTOURS_MINEURES
10
21.183
20
18.819
0
VERTEX
8
CONTOURS_MINEURES
10
21.183
20
18.000
0
VERTEX
8
CONTOURS_MINEURES
10
22.003
20
17.438
0
VERTEX
8
CONTOURS_MINEURES
10
23.436
20
17.438
0
VERTEX
8
CONTOURS_MINEURES
10
23.997
20
17.438
0
VERTEX
8
CONTOURS_MINEURES
10
24.851
20
16.000
0
VERTEX
8
CONTOURS_MINEURES
10
24.851
20
15.147
0
VERTEX
8
CONTOURS_MINEURES
10
24.851
20
13.999
0
VERTEX
8
CONTOURS_MINEURES
10
24.765
20
13.232
0
VERTEX
8
CONTOURS_MINEURES
10
23.997
20
12.876
0
VERTEX
8
CONTOURS_MINEURES
10
22.878
20
12.876
0
VERTEX
8
CONTOURS_MINEURES
10
22.003
20
12.876
0
VERTEX
8
CONTOURS_MINEURES
10
21.573
20
12.427
0
VERTEX
8
CONTOURS_MINEURES
10
21.669
20
11.998
0
VERTEX
8
CONTOURS_MINEURES
10
21.669
20
11.665
0
VERTEX
8
CONTOURS_MINEURES
10
21.669
20
9.997
0
VERTEX
8
CONTOURS_MINEURES
10
21.669
20
8.330
0
VERTEX
8
CONTOURS_MINEURES
10
21.669
20
7.996
0
VERTEX
8
CONTOURS_MINEURES
10
21.702
20
7.696
0
VERTEX
8
CONTOURS_MINEURES
10
22.003
20
7.475
0
VERTEX
8
CONTOURS_MINEURES
10
22.523
20
7.475
0
VERTEX
8
CONTOURS_MINEURES
10
23.997
20
7.475
0
VERTEX
8
CONTOURS_MINEURES
10
25.159
20
7.155
0
VERTEX
8
CONTOURS_MINEURES
10
26.002
20
7.115
0
VERTEX
8
CONTOURS_MINEURES
10
27.117
20
7.115
0
VERTEX
8
CONTOURS_MINEURES
10
27.996
20
7.115
0
VERTEX
8
CONTOURS_MINEURES
10
29.402
20
5.996
0
VERTEX
8
CONTOURS_MINEURES
10
29.402
20
4.592
0
VERTEX
8
CONTOURS_MINEURES
10
29.402
20
3.995
0
VERTEX
8
CONTOURS_MINEURES
10
30.000
20
2.890
0
VERTEX
8
CONTOURS_MINEURES
10
30.892
20
2.890
0
VERTEX
8
CONTOURS_MINEURES
10
32.005
20
2.890
0
VERTEX
8
CONTOURS_MINEURES
10
33.113
20
2.890
0
VERTEX
8
CONTOURS_MINEURES
10
33.999
20
2.890
0
VERTEX
8
CONTOURS_MINEURES
10
34.712
20
2.005
0
VERTEX
8
CONTOURS_MINEURES
10
34.712
20
0.716
0
VERTEX
8
CONTOURS_MINEURES
10
34.712
20
0.004
0
SEQEND
0
POLYLINE
8
CONTOURS_MINEURES
66
1
70
0
0
VERTEX
8
CONTOURS_MINEURES
10
0.003
20
37.521
0
VERTEX
8
CONTOURS_MINEURES
10
1.967
20
37.966
0
VERTEX
8
CONTOURS_MINEURES
10
1.997
20
37.969
0
VERTEX
8
CONTOURS_MINEURES
10
3.974
20
37.969
0
VERTEX
8
CONTOURS_MINEURES
10
4.002
20
37.969
0
VERTEX
8
CONTOURS_MINEURES
10
4.030
20
37.969
0
VERTEX
8
CONTOURS_MINEURES
10
5.996
20
37.969
0
VERTEX
8
CONTOURS_MINEURES
10
6.031
20
37.963
0
VERTEX
8
CONTOURS_MINEURES
10
8.001
20
37.422
0
VERTEX
8
CONTOURS_MINEURES
10
9.422
20
37.422
0
VERTEX
8
CONTOURS_MINEURES
10
9.995
20
37.422
0
VERTEX
8
CONTOURS_MINEURES
10
10.572
20
37.422
0
VERTEX
8
CONTOURS_MINEURES
10
12.000
20
37.082
0
VERTEX
8
CONTOURS_MINEURES
10
12.917
20
37.082
0
VERTEX
8
CONTOURS_MINEURES
10
14.005
20
37.082
0
VERTEX
8
CONTOURS_MINEURES
10
14.929
20
36.923
0
VERTEX
8
CONTOURS_MINEURES
10
15.999
20
36.763
0
VERTEX
8
CONTOURS_MINEURES
10
17.236
20
36.763
0
VERTEX
8
CONTOURS_MINEURES
10
18.004
20
36.763
0
VERTEX
8
CONTOURS_MINEURES
10
18.768
20
36.763
0
VERTEX
8
CONTOURS_MINEURES
10
19.998
20
36.763
0
VERTEX
8
CONTOURS_MINEURES
10
20.635
20
36.632
0
VERTEX
8
CONTOURS_MINEURES
10
21.225
20
35.996
0
VERTEX
8
CONTOURS_MINEURES
10
21.225
20
35.220
0
VERTEX
8
CONTOURS_MINEURES
10
21.225
20
33.995
0
VERTEX
8
CONTOURS_MINEURES
10
21.225
20
32.771
0
VERTEX
8
CONTOURS_MINEURES
10
21.225
20
31.995
0
VERTEX
8
CONTOURS_MINEURES
10
21.622
20
31.617
0
VERTEX
8
CONTOURS_MINEURES
10
22.003
20
31.245
0
VERTEX
8
CONTOURS_MINEURES
10
23.245
20
31.245
0
VERTEX
8
CONTOURS_MINEURES
10
23.997
20
31.245
0
VERTEX
8
CONTOURS_MINEURES
10
24.780
20
30.005
0
VERTEX
8
CONTOURS_MINEURES
10
24.780
20
28.786
0
VERTEX
8
CONTOURS_MINEURES
10
24.780
20
28.004
0
VERTEX
8
CONTOURS_MINEURES
10
25.100
20
27.105
0
VERTEX
8
CONTOURS_MINEURES
10
26.002
20
26.061
0
VERTEX
8
CONTOURS_MINEURES
10
26.059
20
26.061
0
VERTEX
8
CONTOURS_MINEURES
10
27.996
20
26.061
0
VERTEX
8
CONTOURS_MINEURES
10
28.062
20
26.003
0
VERTEX
8
CONTOURS_MINEURES
10
28.062
20
24.069
0
VERTEX
8
CONTOURS_MINEURES
10
28.062
20
24.003
0
VERTEX
8
CONTOURS_MINEURES
10
28.218
20
23.780
0
VERTEX
8
CONTOURS_MINEURES
10
29.507
20
22.002
0
VERTEX
8
CONTOURS_MINEURES
10
29.507
20
21.509
0
VERTEX
8
CONTOURS_MINEURES
10
29.507
20
20.001
0
VERTEX
8
CONTOURS_MINEURES
10
29.507
20
19.509
0
VERTEX
8
CONTOURS_MINEURES
10
29.507
20
18.000
0
VERTEX
8
CONTOURS_MINEURES
10
30.000
20
16.857
0
VERTEX
8
CONTOURS_MINEURES
10
31.146
20
16.857
0
VERTEX
8
CONTOURS_MINEURES
10
32.005
20
16.857
0
VERTEX
8
CONTOURS_MINEURES
10
32.860
20
16.857
0
VERTEX
8
CONTOURS_MINEURES
10
33.999
20
16.857
0
VERTEX
8
CONTOURS_MINEURES
10
34.279
20
16.279
0
VERTEX
8
CONTOURS_MINEURES
10
34.312
20
16.000
0
VERTEX
8
CONTOURS_MINEURES
10
34.312
20
14.311
0
VERTEX
8
CONTOURS_MINEURES
10
34.312
20
13.999
0
VERTEX
8
CONTOURS_MINEURES
10
34.701
20
12.698
0
VERTEX
8
CONTOURS_MINEURES
10
34.815
20
11.998
0
VERTEX
8
CONTOURS_MINEURES
10
34.815
20
11.184
0
VERTEX
8
CONTOURS_MINEURES
10
34.815
20
9.997
0
VERTEX
8
CONTOURS_MINEURES
10
34.815
20
9.183
0
VERTEX
8
CONTOURS_MINEURES
10
34.815
20
7.996
0
VERTEX
8
CONTOURS_MINEURES
10
35.224
20
7.218
0
VERTEX
8
CONTOURS_MINEURES
10
35.843
20
5.996
0
VERTEX
8
CONTOURS_MINEURES
10
35.843
20
5.835
0
VERTEX
8
CONTOURS_MINEURES
10
35.843
20
3.995
0
VERTEX
8
CONTOURS_MINEURES
10
36.004
20
3.816
0
VERTEX
8
CONTOURS_MINEURES
10
36.183
20
3.816
0
VERTEX
8
CONTOURS_MINEURES
10
37.998
20
3.816
0
VERTEX
8
CONTOURS_MINEURES
10
39.146
20
3.144
0
VERTEX
8
CONTOURS_MINEURES
10
40.003
20
2.397
0
VERTEX
8
CONTOURS_MINEURES
10
40.396
20
2.397
0
VERTEX
8
CONTOURS_MINEURES
10
41.997
20
2.397
0
VERTEX
8
CONTOURS_MINEURES
10
42.498
20
2.005
0
VERTEX
8
CONTOURS_MINEURES
10
42.498
20
0.505
0
VERTEX
8
CONTOURS_MINEURES
10
42.498
20
0.004
0
SEQEND
0
POLYLINE
8
CONTOURS_MINEURES
66
1
70
0
0
VERTEX
8
CONTOURS_MINEURES
10
66.001
20
16.138
0
VERTEX
8
CONTOURS_MINEURES
10
64.135
20
16.138
0
VERTEX
8
CONTOURS_MINEURES
10
63.996
20
16.138
0
VERTEX
8
CONTOURS_MINEURES
10
63.859
20
16.138
0
VERTEX
8
CONTOURS_MINEURES
10
62.002
20
16.138
0
VERTEX
8
CONTOURS_MINEURES
10
61.299
20
17.299
0
VERTEX
8
CONTOURS_MINEURES
10
61.182
20
18.000
0
VERTEX
8
CONTOURS_MINEURES
10
61.182
20
19.183
0
VERTEX
8
CONTOURS_MINEURES
10
61.182
20
20.001
0
VERTEX
8
CONTOURS_MINEURES
10
61.182
20
21.183
0
VERTEX
8
CONTOURS_MINEURES
10
61.182
20
22.002
0
VERTEX
8
CONTOURS_MINEURES
10
60.795
20
22.798
0
VERTEX
8
CONTOURS_MINEURES
10
60.382
20
24.003
0
VERTEX
8
CONTOURS_MINEURES
10
60.382
20
25.620
0
VERTEX
8
CONTOURS_MINEURES
10
60.382
20
26.003
0
VERTEX
8
CONTOURS_MINEURES
10
60.340
20
26.345
0
VERTEX
8
CONTOURS_MINEURES
10
59.998
20
27.081
0
VERTEX
8
CONTOURS_MINEURES
10
58.924
20
27.081
0
VERTEX
8
CONTOURS_MINEURES
10
58.004
20
27.081
0
VERTEX
8
CONTOURS_MINEURES
10
57.748
20
27.749
0
VERTEX
8
CONTOURS_MINEURES
10
57.695
20
28.004
0
VERTEX
8
CONTOURS_MINEURES
10
57.695
20
29.697
0
VERTEX
8
CONTOURS_MINEURES
10
57.695
20
30.005
0
VERTEX
8
CONTOURS_MINEURES
10
57.224
20
31.221
0
VERTEX
8
CONTOURS_MINEURES
10
56.850
20
31.995
0
VERTEX
8
CONTOURS_MINEURES
10
56.850
20
32.844
0
VERTEX
8
CONTOURS_MINEURES
10
56.850
20
33.995
0
VERTEX
8
CONTOURS_MINEURES
10
56.850
20
34.845
0
VERTEX
8
CONTOURS_MINEURES
10
56.850
20
35.996
0
VERTEX
8
CONTOURS_MINEURES
10
55.999
20
37.587
0
VERTEX
8
CONTOURS_MINEURES
10
54.414
20
37.587
0
VERTEX
8
CONTOURS_MINEURES
10
54.005
20
37.587
0
VERTEX
8
CONTOURS_MINEURES
10
53.864
20
37.857
0
VERTEX
8
CONTOURS_MINEURES
10
53.876
20
37.997
0
VERTEX
8
CONTOURS_MINEURES
10
53.876
20
39.870
0
VERTEX
8
CONTOURS_MINEURES
10
53.876
20
39.998
0
VERTEX
8
CONTOURS_MINEURES
10
53.902
20
40.100
0
VERTEX
8
CONTOURS_MINEURES
10
54.005
20
40.318
0
VERTEX
8
CONTOURS_MINEURES
10
55.680
20
40.318
0
VERTEX
8
CONTOURS_MINEURES
10
55.999
20
40.318
0
VERTEX
8
CONTOURS_MINEURES
10
57.152
20
41.999
0
VERTEX
8
CONTOURS_MINEURES
10
57.152
20
43.150
0
VERTEX
8
CONTOURS_MINEURES
10
57.152
20
43.999
0
VERTEX
8
CONTOURS_MINEURES
10
58.004
20
44.602
0
VERTEX
8
CONTOURS_MINEURES
10
59.397
20
44.602
0
VERTEX
8
CONTOURS_MINEURES
10
59.998
20
44.602
0
VERTEX
8
CONTOURS_MINEURES
10
61.152
20
44.848
0
VERTEX
8
CONTOURS_MINEURES
10
61.872
20
46.000
0
VERTEX
8
CONTOURS_MINEURES
10
61.872
20
46.130
0
VERTEX
8
CONTOURS_MINEURES
10
61.872
20
48.001
0
VERTEX
8
CONTOURS_MINEURES
10
61.872
20
49.872
0
VERTEX
8
CONTOURS_MINEURES
10
61.872
20
50.002
0
VERTEX
8
CONTOURS_MINEURES
10
61.939
20
50.065
0
VERTEX
8
CONTOURS_MINEURES
10
62.002
20
50.084
0
VERTEX
8
CONTOURS_MINEURES
10
62.084
20
50.084
0
VERTEX
8
CONTOURS_MINEURES
10
63.996
20
50.084
0
VERTEX
8
CONTOURS_MINEURES
10
65.919
20
50.084
0
VERTEX
8
CONTOURS_MINEURES
10
66.001
20
50.084
0
SEQEND
0
POLYLINE
8
CONTOURS_MINEURES
66
1
70
0
0
VERTEX
8
CONTOURS_MINEURES
10
0.003
20
44.281
0
VERTEX
8
CONTOURS_MINEURES
10
1.309
20
44.690
0
VERTEX
8
CONTOURS_MINEURES
10
1.997
20
44.763
0
VERTEX
8
CONTOURS_MINEURES
10
2.762
20
44.763
0
VERTEX
8
CONTOURS_MINEURES
10
4.002
20
44.763
0
VERTEX
8
CONTOURS_MINEURES
10
5.235
20
44.763
0
VERTEX
8
CONTOURS_MINEURES
10
5.996
20
44.763
0
VERTEX
8
CONTOURS_MINEURES
10
6.697
20
44.698
0
VERTEX
8
CONTOURS_MINEURES
10
8.001
20
44.363
0
VERTEX
8
CONTOURS_MINEURES
10
9.633
20
44.363
0
VERTEX
8
CONTOURS_MINEURES
10
9.995
20
44.363
0
VERTEX
8
CONTOURS_MINEURES
10
10.403
20
44.406
0
VERTEX
8
CONTOURS_MINEURES
10
11.141
20
43.999
0
VERTEX
8
CONTOURS_MINEURES
10
11.141
20
42.856
0
VERTEX
8
CONTOURS_MINEURES
10
11.141
20
41.999
0
VERTEX
8
CONTOURS_MINEURES
10
11.790
20
41.789
0
VERTEX
8
CONTOURS_MINEURES
10
12.000
20
41.703
0
VERTEX
8
CONTOURS_MINEURES
10
13.709
20
41.703
0
VERTEX
8
CONTOURS_MINEURES
10
14.005
20
41.703
0
VERTEX
8
CONTOURS_MINEURES
10
15.406
20
41.404
0
VERTEX
8
CONTOURS_MINEURES
10
15.999
20
41.213
0
VERTEX
8
CONTOURS_MINEURES
10
17.216
20
41.213
0
VERTEX
8
CONTOURS_MINEURES
10
18.004
20
41.213
0
VERTEX
8
CONTOURS_MINEURES
10
18.787
20
41.213
0
VERTEX
8
CONTOURS_MINEURES
10
19.998
20
41.213
0
VERTEX
8
CONTOURS_MINEURES
10
20.932
20
40.930
0
VERTEX
8
CONTOURS_MINEURES
10
22.003
20
40.469
0
VERTEX
8
CONTOURS_MINEURES
10
22.472
20
40.469
0
VERTEX
8
CONTOURS_MINEURES
10
23.997
20
40.469
0
VERTEX
8
CONTOURS_MINEURES
10
24.922
20
39.998
0
VERTEX
8
CONTOURS_MINEURES
10
24.922
20
38.920
0
VERTEX
8
CONTOURS_MINEURES
10
24.922
20
37.997
0
VERTEX
8
CONTOURS_MINEURES
10
26.002
20
36.877
0
VERTEX
8
CONTOURS_MINEURES
10
26.879
20
36.877
0
VERTEX
8
CONTOURS_MINEURES
10
27.996
20
36.877
0
VERTEX
8
CONTOURS_MINEURES
10
29.867
20
36.130
0
VERTEX
8
CONTOURS_MINEURES
10
30.000
20
36.114
0
VERTEX
8
CONTOURS_MINEURES
10
31.887
20
36.114
0
VERTEX
8
CONTOURS_MINEURES
10
32.005
20
36.114
0
VERTEX
8
CONTOURS_MINEURES
10
32.123
20
36.114
0
VERTEX
8
CONTOURS_MINEURES
10
33.999
20
36.114
0
VERTEX
8
CONTOURS_MINEURES
10
34.117
20
36.114
0
VERTEX
8
CONTOURS_MINEURES
10
34.668
20
35.996
0
VERTEX
8
CONTOURS_MINEURES
10
34.668
20
34.662
0
VERTEX
8
CONTOURS_MINEURES
10
34.668
20
33.995
0
VERTEX
8
CONTOURS_MINEURES
10
34.668
20
33.329
0
VERTEX
8
CONTOURS_MINEURES
10
34.668
20
31.995
0
VERTEX
8
CONTOURS_MINEURES
10
34.400
20
31.597
0
VERTEX
8
CONTOURS_MINEURES
10
35.202
20
30.005
0
VERTEX
8
CONTOURS_MINEURES
10
35.202
20
29.205
0
VERTEX
8
CONTOURS_MINEURES
10
35.202
20
28.004
0
VERTEX
8
CONTOURS_MINEURES
10
36.004
20
27.277
0
VERTEX
8
CONTOURS_MINEURES
10
37.273
20
27.277
0
VERTEX
8
CONTOURS_MINEURES
10
37.998
20
27.277
0
VERTEX
8
CONTOURS_MINEURES
10
38.824
20
26.827
0
VERTEX
8
CONTOURS_MINEURES
10
40.003
20
26.827
0
VERTEX
8
CONTOURS_MINEURES
10
41.176
20
26.827
0
VERTEX
8
CONTOURS_MINEURES
10
41.997
20
26.827
0
VERTEX
8
CONTOURS_MINEURES
10
43.052
20
26.951
0
VERTEX
8
CONTOURS_MINEURES
10
44.002
20
26.604
0
VERTEX
8
CONTOURS_MINEURES
10
44.600
20
26.604
0
VERTEX
8
CONTOURS_MINEURES
10
45.996
20
26.604
0
VERTEX
8
CONTOURS_MINEURES
10
47.800
20
27.804
0
VERTEX
8
CONTOURS_MINEURES
10
48.001
20
27.504
0
VERTEX
8
CONTOURS_MINEURES
10
48.499
20
27.504
0
VERTEX
8
CONTOURS_MINEURES
10
49.995
20
27.504
0
VERTEX
8
CONTOURS_MINEURES
10
51.499
20
27.504
0
VERTEX
8
CONTOURS_MINEURES
10
52.000
20
27.504
0
VERTEX
8
CONTOURS_MINEURES
10
52.057
20
28.004
0
VERTEX
8
CONTOURS_MINEURES
10
52.057
20
29.948
0
VERTEX
8
CONTOURS_MINEURES
10
52.057
20
30.005
0
VERTEX
8
CONTOURS_MINEURES
10
52.028
20
30.033
0
VERTEX
8
CONTOURS_MINEURES
10
52.160
20
31.995
0
VERTEX
8
CONTOURS_MINEURES
10
52.160
20
33.835
0
VERTEX
8
CONTOURS_MINEURES
10
52.160
20
33.995
0
VERTEX
8
CONTOURS_MINEURES
10
52.160
20
34.156
0
VERTEX
8
CONTOURS_MINEURES
10
52.160
20
35.996
0
VERTEX
8
CONTOURS_MINEURES
10
52.105
20
36.102
0
VERTEX
8
CONTOURS_MINEURES
10
52.272
20
37.997
0
VERTEX
8
CONTOURS_MINEURES
10
52.272
20
38.269
0
VERTEX
8
CONTOURS_MINEURES
10
52.272
20
39.998
0
VERTEX
8
CONTOURS_MINEURES
10
52.626
20
41.374
0
VERTEX
8
CONTOURS_MINEURES
10
52.918
20
41.999
0
VERTEX
8
CONTOURS_MINEURES
10
52.918
20
43.083
0
VERTEX
8
CONTOURS_MINEURES
10
52.918
20
43.999
0
VERTEX
8
CONTOURS_MINEURES
10
54.005
20
45.105
0
VERTEX
8
CONTOURS_MINEURES
10
55.106
20
45.105
0
VERTEX
8
CONTOURS_MINEURES
10
55.999
20
45.105
0
VERTEX
8
CONTOURS_MINEURES
10
57.255
20
46.000
0
VERTEX
8
CONTOURS_MINEURES
10
57.255
20
46.747
0
VERTEX
8
CONTOURS_MINEURES
10
57.255
20
48.001
0
VERTEX
8
CONTOURS_MINEURES
10
57.255
20
49.255
0
VERTEX
8
CONTOURS_MINEURES
10
57.255
20
50.002
0
VERTEX
8
CONTOURS_MINEURES
10
58.004
20
50.702
0
VERTEX
8
CONTOURS_MINEURES
10
59.300
20
50.702
0
VERTEX
8
CONTOURS_MINEURES
10
59.998
20
50.702
0
VERTEX
8
CONTOURS_MINEURES
10
60.662
20
51.340
0
VERTEX
8
CONTOURS_MINEURES
10
62.002
20
51.724
0
VERTEX
8
CONTOURS_MINEURES
10
63.719
20
51.724
0
VERTEX
8
CONTOURS_MINEURES
10
63.996
20
51.724
0
VERTEX
8
CONTOURS_MINEURES
10
64.276
20
51.724
0
VERTEX
8
CONTOURS_MINEURES
10
66.001
20
51.724
0
SEQEND
0
POLYLINE
8
CONTOURS_MINEURES
66
1
70
0
0
VERTEX
8
CONTOURS_MINEURES
10
0.003
20
51.218
0
VERTEX
8
CONTOURS_MINEURES
10
0.709
20
51.295
0
VERTEX
8
CONTOURS_MINEURES
10
1.997
20
51.685
0
VERTEX
8
CONTOURS_MINEURES
10
3.684
20
51.685
0
VERTEX
8
CONTOURS_MINEURES
10
4.002
20
51.685
0
VERTEX
8
CONTOURS_MINEURES
10
4.319
20
51.685
0
VERTEX
8
CONTOURS_MINEURES
10
5.996
20
51.685
0
VERTEX
8
CONTOURS_MINEURES
10
7.894
20
51.895
0
VERTEX
8
CONTOURS_MINEURES
10
8.001
20
51.880
0
VERTEX
8
CONTOURS_MINEURES
10
8.123
20
51.880
0
VERTEX
8
CONTOURS_MINEURES
10
9.995
20
51.880
0
VERTEX
8
CONTOURS_MINEURES
10
10.854
20
52.002
0
VERTEX
8
CONTOURS_MINEURES
10
10.854
20
52.860
0
VERTEX
8
CONTOURS_MINEURES
10
10.854
20
54.003
0
VERTEX
8
CONTOURS_MINEURES
10
11.840
20
54.163
0
VERTEX
8
CONTOURS_MINEURES
10
12.000
20
54.181
0
VERTEX
8
CONTOURS_MINEURES
10
12.178
20
54.181
0
VERTEX
8
CONTOURS_MINEURES
10
14.005
20
54.181
0
VERTEX
8
CONTOURS_MINEURES
10
14.190
20
54.189
0
VERTEX
8
CONTOURS_MINEURES
10
15.999
20
54.003
0
VERTEX
8
CONTOURS_MINEURES
10
15.999
20
52.002
0
VERTEX
8
CONTOURS_MINEURES
10
18.004
20
52.002
0
VERTEX
8
CONTOURS_MINEURES
10
19.998
20
52.002
0
VERTEX
8
CONTOURS_MINEURES
10
21.118
20
51.120
0
VERTEX
8
CONTOURS_MINEURES
10
22.003
20
50.607
0
VERTEX
8
CONTOURS_MINEURES
10
23.394
20
50.607
0
VERTEX
8
CONTOURS_MINEURES
10
23.997
20
50.607
0
VERTEX
8
CONTOURS_MINEURES
10
24.683
20
50.686
0
VERTEX
8
CONTOURS_MINEURES
10
26.002
20
50.531
0
VERTEX
8
CONTOURS_MINEURES
10
27.468
20
50.531
0
VERTEX
8
CONTOURS_MINEURES
10
27.996
20
50.531
0
VERTEX
8
CONTOURS_MINEURES
10
29.315
20
50.686
0
VERTEX
8
CONTOURS_MINEURES
10
30.000
20
51.302
0
VERTEX
8
CONTOURS_MINEURES
10
31.304
20
51.302
0
VERTEX
8
CONTOURS_MINEURES
10
32.005
20
51.302
0
VERTEX
8
CONTOURS_MINEURES
10
33.301
20
51.302
0
VERTEX
8
CONTOURS_MINEURES
10
33.999
20
51.302
0
VERTEX
8
CONTOURS_MINEURES
10
34.610
20
51.394
0
VERTEX
8
CONTOURS_MINEURES
10
36.004
20
51.233
0
VERTEX
8
CONTOURS_MINEURES
10
37.231
20
51.233
0
VERTEX
8
CONTOURS_MINEURES
10
37.998
20
51.233
0
VERTEX
8
CONTOURS_MINEURES
10
39.001
20
51.002
0
VERTEX
8
CONTOURS_MINEURES
10
40.003
20
50.627
0
VERTEX
8
CONTOURS_MINEURES
10
40.626
20
50.627
0
VERTEX
8
CONTOURS_MINEURES
10
41.997
20
50.627
0
VERTEX
8
CONTOURS_MINEURES
10
42.475
20
50.478
0
VERTEX
8
CONTOURS_MINEURES
10
43.000
20
50.002
0
VERTEX
8
CONTOURS_MINEURES
10
43.000
20
49.001
0
VERTEX
8
CONTOURS_MINEURES
10
43.000
20
48.001
0
VERTEX
8
CONTOURS_MINEURES
10
43.000
20
47.001
0
VERTEX
8
CONTOURS_MINEURES
10
43.000
20
46.000
0
VERTEX
8
CONTOURS_MINEURES
10
43.429
20
44.571
0
VERTEX
8
CONTOURS_MINEURES
10
43.637
20
43.999
0
VERTEX
8
CONTOURS_MINEURES
10
43.637
20
42.362
0
VERTEX
8
CONTOURS_MINEURES
10
43.637
20
41.999
0
VERTEX
8
CONTOURS_MINEURES
10
43.861
20
41.858
0
VERTEX
8
CONTOURS_MINEURES
10
44.002
20
41.782
0
VERTEX
8
CONTOURS_MINEURES
10
44.218
20
41.782
0
VERTEX
8
CONTOURS_MINEURES
10
45.996
20
41.782
0
VERTEX
8
CONTOURS_MINEURES
10
46.088
20
41.907
0
VERTEX
8
CONTOURS_MINEURES
10
46.142
20
41.999
0
VERTEX
8
CONTOURS_MINEURES
10
46.142
20
43.854
0
VERTEX
8
CONTOURS_MINEURES
10
46.142
20
43.999
0
VERTEX
8
CONTOURS_MINEURES
10
46.887
20
44.889
0
VERTEX
8
CONTOURS_MINEURES
10
47.333
20
46.000
0
VERTEX
8
CONTOURS_MINEURES
10
47.333
20
46.667
0
VERTEX
8
CONTOURS_MINEURES
10
47.333
20
48.001
0
VERTEX
8
CONTOURS_MINEURES
10
47.333
20
48.668
0
VERTEX
8
CONTOURS_MINEURES
10
47.333
20
50.002
0
VERTEX
8
CONTOURS_MINEURES
10
48.001
20
50.437
0
VERTEX
8
CONTOURS_MINEURES
10
48.434
20
50.437
0
VERTEX
8
CONTOURS_MINEURES
10
49.995
20
50.437
0
VERTEX
8
CONTOURS_MINEURES
10
51.564
20
50.437
0
VERTEX
8
CONTOURS_MINEURES
10
52.000
20
50.437
0
VERTEX
8
CONTOURS_MINEURES
10
52.508
20
51.495
0
VERTEX
8
CONTOURS_MINEURES
10
53.203
20
52.002
0
VERTEX
8
CONTOURS_MINEURES
10
53.203
20
52.803
0
VERTEX
8
CONTOURS_MINEURES
10
53.203
20
54.003
0
VERTEX
8
CONTOURS_MINEURES
10
54.005
20
54.670
0
VERTEX
8
CONTOURS_MINEURES
10
55.334
20
54.670
0
VERTEX
8
CONTOURS_MINEURES
10
55.999
20
54.670
0
VERTEX
8
CONTOURS_MINEURES
10
56.667
20
55.337
0
VERTEX
8
CONTOURS_MINEURES
10
57.045
20
56.004
0
VERTEX
8
CONTOURS_MINEURES
10
57.045
20
57.048
0
VERTEX
8
CONTOURS_MINEURES
10
57.045
20
58.005
0
VERTEX
8
CONTOURS_MINEURES
10
57.268
20
58.734
0
VERTEX
8
CONTOURS_MINEURES
10
57.493
20
59.994
0
VERTEX
8
CONTOURS_MINEURES
10
57.493
20
61.485
0
VERTEX
8
CONTOURS_MINEURES
10
57.493
20
61.995
0
VERTEX
8
CONTOURS_MINEURES
10
57.493
20
62.505
0
VERTEX
8
CONTOURS_MINEURES
10
57.493
20
63.996
0
SEQEND
0
POLYLINE
8
CONTOURS_MINEURES
66
1
70
0
0
VERTEX
8
CONTOURS_MINEURES
10
39.232
20
63.996
0
VERTEX
8
CONTOURS_MINEURES
10
39.232
20
63.226
0
VERTEX
8
CONTOURS_MINEURES
10
39.232
20
61.995
0
VERTEX
8
CONTOURS_MINEURES
10
39.232
20
61.226
0
VERTEX
8
CONTOURS_MINEURES
10
39.232
20
59.994
0
VERTEX
8
CONTOURS_MINEURES
10
40.003
20
59.752
0
VERTEX
8
CONTOURS_MINEURES
10
41.754
20
59.752
0
VERTEX
8
CONTOURS_MINEURES
10
41.997
20
59.752
0
VERTEX
8
CONTOURS_MINEURES
10
42.225
20
59.768
0
VERTEX
8
CONTOURS_MINEURES
10
42.433
20
59.994
0
VERTEX
8
CONTOURS_MINEURES
10
42.433
20
60.429
0
VERTEX
8
CONTOURS_MINEURES
10
42.433
20
61.995
0
VERTEX
8
CONTOURS_MINEURES
10
42.433
20
62.430
0
VERTEX
8
CONTOURS_MINEURES
10
42.433
20
63.996
0
SEQEND
0
POLYLINE
8
CONTOURS_MINEURES
66
1
70
0
0
VERTEX
8
CONTOURS_MINEURES
10
0.003
20
58.077
0
VERTEX
8
CONTOURS_MINEURES
10
0.238
20
58.239
0
VERTEX
8
CONTOURS_MINEURES
10
1.997
20
59.359
0
VERTEX
8
CONTOURS_MINEURES
10
2.637
20
59.359
0
VERTEX
8
CONTOURS_MINEURES
10
4.002
20
59.359
0
VERTEX
8
CONTOURS_MINEURES
10
5.360
20
59.359
0
VERTEX
8
CONTOURS_MINEURES
10
5.996
20
59.359
0
VERTEX
8
CONTOURS_MINEURES
10
6.432
20
59.562
0
VERTEX
8
CONTOURS_MINEURES
10
7.428
20
59.994
0
VERTEX
8
CONTOURS_MINEURES
10
7.428
20
61.424
0
VERTEX
8
CONTOURS_MINEURES
10
7.428
20
61.995
0
VERTEX
8
CONTOURS_MINEURES
10
7.428
20
62.567
0
VERTEX
8
CONTOURS_MINEURES
10
7.428
20
63.996
0
SEQEND
0
POLYLINE
8
CONTOURS_MAJEURES
66
1
70
0
0
VERTEX
8
CONTOURS_MAJEURES
10
0.003
20
6.309
0
VERTEX
8
CONTOURS_MAJEURES
10
1.838
20
7.836
0
VERTEX
8
CONTOURS_MAJEURES
10
1.997
20
7.949
0
VERTEX
8
CONTOURS_MAJEURES
10
2.045
20
7.949
0
VERTEX
8
CONTOURS_MAJEURES
10
4.002
20
7.949
0
VERTEX
8
CONTOURS_MAJEURES
10
5.949
20
7.949
0
VERTEX
8
CONTOURS_MAJEURES
10
5.996
20
7.949
0
VERTEX
8
CONTOURS_MAJEURES
10
7.214
20
5.996
0
VERTEX
8
CONTOURS_MAJEURES
10
7.214
20
5.210
0
VERTEX
8
CONTOURS_MAJEURES
10
7.214
20
3.995
0
VERTEX
8
CONTOURS_MAJEURES
10
8.001
20
3.045
0
VERTEX
8
CONTOURS_MAJEURES
10
9.043
20
3.045
0
VERTEX
8
CONTOURS_MAJEURES
10
9.995
20
3.045
0
VERTEX
8
CONTOURS_MAJEURES
10
10.424
20
2.005
0
VERTEX
8
CONTOURS_MAJEURES
10
10.424
20
0.433
0
VERTEX
8
CONTOURS_MAJEURES
10
10.424
20
0.004
0
SEQEND
0
POLYLINE
8
CONTOURS_MAJEURES
66
1
70
0
0
VERTEX
8
CONTOURS_MAJEURES
10
0.003
20
37.521
0
VERTEX
8
CONTOURS_MAJEURES
10
1.967
20
37.966
0
VERTEX
8
CONTOURS_MAJEURES
10
1.997
20
37.969
0
VERTEX
8
CONTOURS_MAJEURES
10
3.974
20
37.969
0
VERTEX
8
CONTOURS_MAJEURES
10
4.002
20
37.969
0
VERTEX
8
CONTOURS_MAJEURES
10
4.030
20
37.969
0
VERTEX
8
CONTOURS_MAJEURES
10
5.996
20
37.969
0
VERTEX
8
CONTOURS_MAJEURES
10
6.031
20
37.963
0
VERTEX
8
CONTOURS_MAJEURES
10
8.001
20
37.422
0
VERTEX
8
CONTOURS_MAJEURES
10
9.422
20
37.422
0
VERTEX
8
CONTOURS_MAJEURES
10
9.995
20
37.422
0
VERTEX
8
CONTOURS_MAJEURES
10
10.572
20
37.422
0
VERTEX
8
CONTOURS_MAJEURES
10
12.000
20
37.082
0
VERTEX
8
CONTOURS_MAJEURES
10
12.917
20
37.082
0
VERTEX
8
CONTOURS_MAJEURES
10
14.005
20
37.082
0
VERTEX
8
CONTOURS_MAJEURES
10
14.929
20
36.923
0
VERTEX
8
CONTOURS_MAJEURES
10
15.999
20
36.763
0
VERTEX
8
CONTOURS_MAJEURES
10
17.236
20
36.763
0
VERTEX
8
CONTOURS_MAJEURES
10
18.004
20
36.763
0
VERTEX
8
CONTOURS_MAJEURES
10
18.768
20
36.763
0
VERTEX
8
CONTOURS_MAJEURES
10
19.998
20
36.763
0
VERTEX
8
CONTOURS_MAJEURES
10
20.635
20
36.632
0
VERTEX
8
CONTOURS_MAJEURES
10
21.225
20
35.996
0
VERTEX
8
CONTOURS_MAJEURES
10
21.225
20
35.220
0
VERTEX
8
CONTOURS_MAJEURES
10
21.225
20
33.995
0
VERTEX
8
CONTOURS_MAJEURES
10
21.225
20
32.771
0
VERTEX
8
CONTOURS_MAJEURES
10
21.225
20
31.995
0
VERTEX
8
CONTOURS_MAJEURES
10
21.622
20
31.617
0
VERTEX
8
CONTOURS_MAJEURES
10
22.003
20
31.245
0
VERTEX
8
CONTOURS_MAJEURES
10
23.245
20
31.245
0
VERTEX
8
CONTOURS_MAJEURES
10
23.997
20
31.245
0
VERTEX
8
CONTOURS_MAJEURES
10
24.780
20
30.005
0
VERTEX
8
CONTOURS_MAJEURES
10
24.780
20
28.786
0
VERTEX
8
CONTOURS_MAJEURES
10
24.780
20
28.004
0
VERTEX
8
CONTOURS_MAJEURES
10
25.100
20
27.105
0
VERTEX
8
CONTOURS_MAJEURES
10
26.002
20
26.061
0
VERTEX
8
CONTOURS_MAJEURES
10
26.059
20
26.061
0
VERTEX
8
CONTOURS_MAJEURES
10
27.996
20
26.061
0
VERTEX
8
CONTOURS_MAJEURES
10
28.062
20
26.003
0
VERTEX
8
CONTOURS_MAJEURES
10
28.062
20
24.069
0
VERTEX
8
CONTOURS_MAJEURES
10
28.062
20
24.003
0
VERTEX
8
CONTOURS_MAJEURES
10
28.218
20
23.780
0
VERTEX
8
CONTOURS_MAJEURES
10
29.507
20
22.002
0
VERTEX
8
CONTOURS_MAJEURES
10
29.507
20
21.509
0
VERTEX
8
CONTOURS_MAJEURES
10
29.507
20
20.001
0
VERTEX
8
CONTOURS_MAJEURES
10
29.507
20
19.509
0
VERTEX
8
CONTOURS_MAJEURES
10
29.507
20
18.000
0
VERTEX
8
CONTOURS_MAJEURES
10
30.000
20
16.857
0
VERTEX
8
CONTOURS_MAJEURES
10
31.146
20
16.857
0
VERTEX
8
CONTOURS_MAJEURES
10
32.005
20
16.857
0
VERTEX
8
CONTOURS_MAJEURES
10
32.860
20
16.857
0
VERTEX
8
CONTOURS_MAJEURES
10
33.999
20
16.857
0
VERTEX
8
CONTOURS_MAJEURES
10
34.279
20
16.279
0
VERTEX
8
CONTOURS_MAJEURES
10
34.312
20
16.000
0
VERTEX
8
CONTOURS_MAJEURES
10
34.312
20
14.311
0
VERTEX
8
CONTOURS_MAJEURES
10
34.312
20
13.999
0
VERTEX
8
CONTOURS_MAJEURES
10
34.701
20
12.698
0
VERTEX
8
CONTOURS_MAJEURES
10
34.815
20
11.998
0
VERTEX
8
CONTOURS_MAJEURES
10
34.815
20
11.184
0
VERTEX
8
CONTOURS_MAJEURES
10
34.815
20
9.997
0
VERTEX
8
CONTOURS_MAJEURES
10
34.815
20
9.183
0
VERTEX
8
CONTOURS_MAJEURES
10
34.815
20
7.996
0
VERTEX
8
CONTOURS_MAJEURES
10
35.224
20
7.218
0
VERTEX
8
CONTOURS_MAJEURES
10
35.843
20
5.996
0
VERTEX
8
CONTOURS_MAJEURES
10
35.843
20
5.835
0
VERTEX
8
CONTOURS_MAJEURES
10
35.843
20
3.995
0
VERTEX
8
CONTOURS_MAJEURES
10
36.004
20
3.816
0
VERTEX
8
CONTOURS_MAJEURES
10
36.183
20
3.816
0
VERTEX
8
CONTOURS_MAJEURES
10
37.998
20
3.816
0
VERTEX
8
CONTOURS_MAJEURES
10
39.146
20
3.144
0
VERTEX
8
CONTOURS_MAJEURES
10
40.003
20
2.397
0
VERTEX
8
CONTOURS_MAJEURES
10
40.396
20
2.397
0
VERTEX
8
CONTOURS_MAJEURES
10
41.997
20
2.397
0
VERTEX
8
CONTOURS_MAJEURES
10
42.498
20
2.005
0
VERTEX
8
CONTOURS_MAJEURES
10
42.498
20
0.505
0
VERTEX
8
CONTOURS_MAJEURES
10
42.498
20
0.004
0
SEQEND
0
POLYLINE
8
CONTOURS_MAJEURES
66
1
70
0
0
VERTEX
8
CONTOURS_MAJEURES
10
66.001
20
16.138
0
VERTEX
8
CONTOURS_MAJEURES
10
64.135
20
16.138
0
VERTEX
8
CONTOURS_MAJEURES
10
63.996
20
16.138
0
VERTEX
8
CONTOURS_MAJEURES
10
63.859
20
16.138
0
VERTEX
8
CONTOURS_MAJEURES
10
62.002
20
16.138
0
VERTEX
8
CONTOURS_MAJEURES
10
61.299
20
17.299
0
VERTEX
8
CONTOURS_MAJEURES
10
61.182
20
18.000
0
VERTEX
8
CONTOURS_MAJEURES
10
61.182
20
19.183
0
VERTEX
8
CONTOURS_MAJEURES
10
61.182
20
20.001
0
VERTEX
8
CONTOURS_MAJEURES
10
61.182
20
21.183
0
VERTEX
8
CONTOURS_MAJEURES
10
61.182
20
22.002
0
VERTEX
8
CONTOURS_MAJEURES
10
60.795
20
22.798
0
VERTEX
8
CONTOURS_MAJEURES
10
60.382
20
24.003
0
VERTEX
8
CONTOURS_MAJEURES
10
60.382
20
25.620
0
VERTEX
8
CONTOURS_MAJEURES
10
60.382
20
26.003
0
VERTEX
8
CONTOURS_MAJEURES
10
60.340
20
26.345
0
VERTEX
8
CONTOURS_MAJEURES
10
59.998
20
27.081
0
VERTEX
8
CONTOURS_MAJEURES
10
58.924
20
27.081
0
VERTEX
8
CONTOURS_MAJEURES
10
58.004
20
27.081
0
VERTEX
8
CONTOURS_MAJEURES
10
57.748
20
27.749
0
VERTEX
8
CONTOURS_MAJEURES
10
57.695
20
28.004
0
VERTEX
8
CONTOURS_MAJEURES
10
57.695
20
29.697
0
VERTEX
8
CONTOURS_MAJEURES
10
57.695
20
30.005
0
VERTEX
8
CONTOURS_MAJEURES
10
57.224
20
31.221
0
VERTEX
8
CONTOURS_MAJEURES
10
56.850
20
31.995
0
VERTEX
8
CONTOURS_MAJEURES
10
56.850
20
32.844
0
VERTEX
8
CONTOURS_MAJEURES
10
56.850
20
33.995
0
VERTEX
8
CONTOURS_MAJEURES
10
56.850
20
34.845
0
VERTEX
8
CONTOURS_MAJEURES
10
56.850
20
35.996
0
VERTEX
8
CONTOURS_MAJEURES
10
55.999
20
37.587
0
VERTEX
8
CONTOURS_MAJEURES
10
54.414
20
37.587
0
VERTEX
8
CONTOURS_MAJEURES
10
54.005
20
37.587
0
VERTEX
8
CONTOURS_MAJEURES
10
53.864
20
37.857
0
VERTEX
8
CONTOURS_MAJEURES
10
53.876
20
37.997
0
VERTEX
8
CONTOURS_MAJEURES
10
53.876
20
39.870
0
VERTEX
8
CONTOURS_MAJEURES
10
53.876
20
39.998
0
VERTEX
8
CONTOURS_MAJEURES
10
53.902
20
40.100
0
VERTEX
8
CONTOURS_MAJEURES
10
54.005
20
40.318
0
VERTEX
8
CONTOURS_MAJEURES
10
55.680
20
40.318
0
VERTEX
8
CONTOURS_MAJEURES
10
55.999
20
40.318
0
VERTEX
8
CONTOURS_MAJEURES
10
57.152
20
41.999
0
VERTEX
8
CONTOURS_MAJEURES
10
57.152
20
43.150
0
VERTEX
8
CONTOURS_MAJEURES
10
57.152
20
43.999
0
VERTEX
8
CONTOURS_MAJEURES
10
58.004
20
44.602
0
VERTEX
8
CONTOURS_MAJEURES
10
59.397
20
44.602
0
VERTEX
8
CONTOURS_MAJEURES
10
59.998
20
44.602
0
VERTEX
8
CONTOURS_MAJEURES
10
61.152
20
44.848
0
VERTEX
8
CONTOURS_MAJEURES
10
61.872
20
46.000
0
VERTEX
8
CONTOURS_MAJEURES
10
61.872
20
46.130
0
VERTEX
8
CONTOURS_MAJEURES
10
61.872
20
48.001
0
VERTEX
8
CONTOURS_MAJEURES
10
61.872
20
49.872
0
VERTEX
8
CONTOURS_MAJEURES
10
61.872
20
50.002
0
VERTEX
8
CONTOURS_MAJEURES
10
61.939
20
50.065
0
VERTEX
8
CONTOURS_MAJEURES
10
62.002
20
50.084
0
VERTEX
8
CONTOURS_MAJEURES
10
62.084
20
50.084
0
VERTEX
8
CONTOURS_MAJEURES
10
63.996
20
50.084
0
VERTEX
8
CONTOURS_MAJEURES
10
65.919
20
50.084
0
VERTEX
8
CONTOURS_MAJEURES
10
66.001
20
50.084
0
SEQEND
0
POLYLINE
8
PARCELLE
66
1
70
1
0
VERTEX
8
PARCELLE
10
46.948
20
26.708
0
VERTEX
8
PARCELLE
10
28.204
20
20.000
0
VERTEX
8
PARCELLE
10
25.240
20
22.685
0
VERTEX
8
PARCELLE
10
20.000
20
37.466
0
VERTEX
8
PARCELLE
10
20.070
20
37.486
0
VERTEX
8
PARCELLE
10
21.274
20
37.924
0
VERTEX
8
PARCELLE
10
26.921
20
39.989
0
VERTEX
8
PARCELLE
10
40.171
20
44.990
0
VERTEX
8
PARCELLE
10
40.924
20
45.283
0
VERTEX
8
PARCELLE
10
45.625
20
30.696
0
VERTEX
8
PARCELLE
10
46.948
20
26.708
0
SEQEND
0
TEXT
8
POINTS_COTES
10
0.003
20
0.004
40
1.0
1
19.0
0
TEXT
8
POINTS_COTES
10
44.002
20
2.005
40
1.0
1
25.4
0
TEXT
8
POINTS_COTES
10
19.998
20
5.996
40
1.0
1
23.0
0
TEXT
8
POINTS_COTES
10
63.996
20
7.996
40
1.0
1
25.3
0
TEXT
8
POINTS_COTES
10
40.003
20
11.998
40
1.0
1
25.7
0
TEXT
8
POINTS_COTES
10
15.999
20
16.000
40
1.0
1
23.3
0
TEXT
8
POINTS_COTES
10
59.998
20
18.000
40
1.0
1
25.4
0
TEXT
8
POINTS_COTES
10
36.004
20
22.002
40
1.0
1
25.7
0
TEXT
8
POINTS_COTES
10
12.000
20
26.003
40
1.0
1
23.8
0
TEXT
8
POINTS_COTES
10
55.999
20
28.004
40
1.0
1
25.7
0
TEXT
8
POINTS_COTES
10
32.005
20
31.995
40
1.0
1
26.0
0
TEXT
8
POINTS_COTES
10
8.001
20
35.996
40
1.0
1
24.4
0
TEXT
8
POINTS_COTES
10
52.000
20
37.997
40
1.0
1
26.2
0
TEXT
8
POINTS_COTES
10
27.996
20
41.999
40
1.0
1
26.6
0
TEXT
8
POINTS_COTES
10
4.002
20
46.000
40
1.0
1
26.5
0
TEXT
8
POINTS_COTES
10
48.001
20
48.001
40
1.0
1
26.9
0
TEXT
8
POINTS_COTES
10
23.997
20
52.002
40
1.0
1
27.3
0
TEXT
8
POINTS_COTES
10
0.003
20
56.004
40
1.0
1
28.0
0
TEXT
8
POINTS_COTES
10
44.002
20
58.005
40
1.0
1
27.6
0
TEXT
8
POINTS_COTES
10
19.998
20
61.995
40
1.0
1
27.7
0
TEXT
8
POINTS_COTES
10
63.996
20
63.996
40
1.0
1
26.7
0
ENDSEC
0
EOF
