0
SECTION
2
HEADER
0
ENDSEC
0
SECTION
2
TABLES
0
TABLE
2
LAYER
70
4
0
LAYER
2
CONTOURS_MINEURES
70
0
62
8
6
CONTINUOUS
0
LAYER
2
CONTOURS_MAJEURES
70
0
62
3
6
CONTINUOUS
0
LAYER
2
PARCELLE
70
0
62
4
6
CONTINUOUS
0
LAYER
2
POINTS_COTES
70
0
62
7
6
CONTINUOUS
0
ENDTAB
0
ENDSEC
0
SECTION
2
ENTITIES
0
POLYLINE
8
CONTOURS_MINEURES
66
1
70
0
0
VERTEX
8
CONTOURS_MINEURES
10
85.988
20
145.003
0
VERTEX
8
CONTOURS_MINEURES
10
85.000
20
144.702
0
VERTEX
8
CONTOURS_MINEURES
10
84.577
20
145.003
0
SEQEND
0
POLYLINE
8
CONTOURS_MINEURES
66
1
70
0
0
VERTEX
8
CONTOURS_MINEURES
10
25.822
20
145.003
0
VERTEX
8
CONTOURS_MINEURES
10
25.431
20
144.570
0
VERTEX
8
CONTOURS_MINEURES
10
24.998
20
143.943
0
VERTEX
8
CONTOURS_MINEURES
10
20.572
20
139.996
0
VERTEX
8
CONTOURS_MINEURES
10
20.264
20
139.730
0
VERTEX
8
CONTOURS_MINEURES
10
19.998
20
139.153
0
VERTEX
8
CONTOURS_MINEURES
10
15.069
20
134.999
0
VERTEX
8
CONTOURS_MINEURES
10
15.021
20
134.976
0
VERTEX
8
CONTOURS_MINEURES
10
14.998
20
134.955
0
VERTEX
8
CONTOURS_MINEURES
10
14.896
20
134.897
0
VERTEX
8
CONTOURS_MINEURES
10
9.997
20
132.554
0
VERTEX
8
CONTOURS_MINEURES
10
8.295
20
131.704
0
VERTEX
8
CONTOURS_MINEURES
10
5.930
20
130.003
0
VERTEX
8
CONTOURS_MINEURES
10
4.997
20
129.457
0
VERTEX
8
CONTOURS_MINEURES
10
4.124
20
129.128
0
VERTEX
8
CONTOURS_MINEURES
10
-0.003
20
128.467
0
SEQEND
0
POLYLINE
8
CONTOURS_MINEURES
66
1
70
0
0
VERTEX
8
CONTOURS_MINEURES
10
93.444
20
145.003
0
VERTEX
8
CONTOURS_MINEURES
10
91.924
20
143.077
0
VERTEX
8
CONTOURS_MINEURES
10
90.000
20
141.388
0
VERTEX
8
CONTOURS_MINEURES
10
86.352
20
141.349
0
VERTEX
8
CONTOURS_MINEURES
10
85.000
20
140.937
0
VERTEX
8
CONTOURS_MINEURES
10
81.753
20
143.247
0
VERTEX
8
CONTOURS_MINEURES
10
80.000
20
142.822
0
VERTEX
8
CONTOURS_MINEURES
10
76.429
20
139.996
0
VERTEX
8
CONTOURS_MINEURES
10
76.014
20
138.982
0
VERTEX
8
CONTOURS_MINEURES
10
75.000
20
136.954
0
VERTEX
8
CONTOURS_MINEURES
10
74.408
20
135.591
0
VERTEX
8
CONTOURS_MINEURES
10
73.448
20
134.999
0
VERTEX
8
CONTOURS_MINEURES
10
70.000
20
133.149
0
VERTEX
8
CONTOURS_MINEURES
10
67.820
20
132.181
0
VERTEX
8
CONTOURS_MINEURES
10
65.000
20
131.903
0
VERTEX
8
CONTOURS_MINEURES
10
63.616
20
133.617
0
VERTEX
8
CONTOURS_MINEURES
10
60.510
20
134.999
0
VERTEX
8
CONTOURS_MINEURES
10
60.219
20
135.218
0
VERTEX
8
CONTOURS_MINEURES
10
59.999
20
135.233
0
VERTEX
8
CONTOURS_MINEURES
10
59.478
20
135.520
0
VERTEX
8
CONTOURS_MINEURES
10
54.999
20
138.427
0
VERTEX
8
CONTOURS_MINEURES
10
52.712
20
139.996
0
VERTEX
8
CONTOURS_MINEURES
10
51.268
20
141.266
0
VERTEX
8
CONTOURS_MINEURES
10
49.999
20
142.160
0
VERTEX
8
CONTOURS_MINEURES
10
46.011
20
145.003
0
SEQEND
0
POLYLINE
8
CONTOURS_MINEURES
66
1
70
0
0
VERTEX
8
CONTOURS_MINEURES
10
40.951
20
145.003
0
VERTEX
8
CONTOURS_MINEURES
10
39.999
20
144.832
0
VERTEX
8
CONTOURS_MINEURES
10
35.874
20
144.126
0
VERTEX
8
CONTOURS_MINEURES
10
34.998
20
144.079
0
VERTEX
8
CONTOURS_MINEURES
10
34.075
20
144.079
0
VERTEX
8
CONTOURS_MINEURES
10
29.998
20
143.334
0
VERTEX
8
CONTOURS_MINEURES
10
28.416
20
141.580
0
VERTEX
8
CONTOURS_MINEURES
10
27.321
20
139.996
0
VERTEX
8
CONTOURS_MINEURES
10
24.998
20
136.736
0
VERTEX
8
CONTOURS_MINEURES
10
24.066
20
135.930
0
VERTEX
8
CONTOURS_MINEURES
10
23.637
20
134.999
0
VERTEX
8
CONTOURS_MINEURES
10
19.998
20
130.454
0
VERTEX
8
CONTOURS_MINEURES
10
19.694
20
130.306
0
VERTEX
8
CONTOURS_MINEURES
10
19.354
20
130.003
0
VERTEX
8
CONTOURS_MINEURES
10
14.998
20
126.613
0
VERTEX
8
CONTOURS_MINEURES
10
13.915
20
126.079
0
VERTEX
8
CONTOURS_MINEURES
10
11.998
20
124.995
0
VERTEX
8
CONTOURS_MINEURES
10
9.997
20
122.702
0
VERTEX
8
CONTOURS_MINEURES
10
6.630
20
119.999
0
VERTEX
8
CONTOURS_MINEURES
10
5.608
20
119.389
0
VERTEX
8
CONTOURS_MINEURES
10
4.997
20
119.080
0
VERTEX
8
CONTOURS_MINEURES
10
3.179
20
118.182
0
VERTEX
8
CONTOURS_MINEURES
10
-0.003
20
116.491
0
SEQEND
0
POLYLINE
8
CONTOURS_MINEURES
66
1
70
0
0
VERTEX
8
CONTOURS_MINEURES
10
125.002
20
128.689
0
VERTEX
8
CONTOURS_MINEURES
10
123.831
20
128.830
0
VERTEX
8
CONTOURS_MINEURES
10
120.002
20
129.370
0
VERTEX
8
CONTOURS_MINEURES
10
116.098
20
128.904
0
VERTEX
8
CONTOURS_MINEURES
10
115.001
20
128.590
0
VERTEX
8
CONTOURS_MINEURES
10
111.289
20
128.713
0
VERTEX
8
CONTOURS_MINEURES
10
110.001
20
128.214
0
VERTEX
8
CONTOURS_MINEURES
10
107.918
20
127.916
0
VERTEX
8
CONTOURS_MINEURES
10
105.001
20
129.001
0
VERTEX
8
CONTOURS_MINEURES
10
102.718
20
130.003
0
VERTEX
8
CONTOURS_MINEURES
10
105.001
20
134.772
0
VERTEX
8
CONTOURS_MINEURES
10
105.083
20
134.917
0
VERTEX
8
CONTOURS_MINEURES
10
105.101
20
134.999
0
VERTEX
8
CONTOURS_MINEURES
10
110.001
20
136.483
0
VERTEX
8
CONTOURS_MINEURES
10
112.674
20
137.325
0
VERTEX
8
CONTOURS_MINEURES
10
115.001
20
137.712
0
VERTEX
8
CONTOURS_MINEURES
10
118.368
20
138.363
0
VERTEX
8
CONTOURS_MINEURES
10
120.002
20
138.693
0
VERTEX
8
CONTOURS_MINEURES
10
122.771
20
137.766
0
VERTEX
8
CONTOURS_MINEURES
10
125.002
20
137.343
0
SEQEND
0
POLYLINE
8
CONTOURS_MINEURES
66
1
70
0
0
VERTEX
8
CONTOURS_MINEURES
10
98.621
20
145.003
0
VERTEX
8
CONTOURS_MINEURES
10
95.001
20
140.512
0
VERTEX
8
CONTOURS_MINEURES
10
94.773
20
140.224
0
VERTEX
8
CONTOURS_MINEURES
10
94.513
20
139.996
0
VERTEX
8
CONTOURS_MINEURES
10
90.000
20
135.459
0
VERTEX
8
CONTOURS_MINEURES
10
86.250
20
134.999
0
VERTEX
8
CONTOURS_MINEURES
10
85.317
20
134.683
0
VERTEX
8
CONTOURS_MINEURES
10
85.000
20
134.285
0
VERTEX
8
CONTOURS_MINEURES
10
83.994
20
130.003
0
VERTEX
8
CONTOURS_MINEURES
10
84.542
20
125.454
0
VERTEX
8
CONTOURS_MINEURES
10
84.565
20
124.995
0
VERTEX
8
CONTOURS_MINEURES
10
84.565
20
124.561
0
VERTEX
8
CONTOURS_MINEURES
10
84.091
20
119.999
0
VERTEX
8
CONTOURS_MINEURES
10
82.958
20
117.043
0
VERTEX
8
CONTOURS_MINEURES
10
82.100
20
115.002
0
VERTEX
8
CONTOURS_MINEURES
10
81.507
20
113.493
0
VERTEX
8
CONTOURS_MINEURES
10
80.000
20
111.059
0
VERTEX
8
CONTOURS_MINEURES
10
79.303
20
110.693
0
VERTEX
8
CONTOURS_MINEURES
10
77.763
20
109.995
0
VERTEX
8
CONTOURS_MINEURES
10
75.929
20
109.066
0
VERTEX
8
CONTOURS_MINEURES
10
75.000
20
108.842
0
VERTEX
8
CONTOURS_MINEURES
10
74.037
20
109.032
0
VERTEX
8
CONTOURS_MINEURES
10
70.000
20
109.726
0
VERTEX
8
CONTOURS_MINEURES
10
69.390
20
109.995
0
VERTEX
8
CONTOURS_MINEURES
10
66.417
20
111.414
0
VERTEX
8
CONTOURS_MINEURES
10
65.000
20
114.287
0
VERTEX
8
CONTOURS_MINEURES
10
64.693
20
115.002
0
VERTEX
8
CONTOURS_MINEURES
10
63.407
20
118.407
0
VERTEX
8
CONTOURS_MINEURES
10
62.828
20
119.999
0
VERTEX
8
CONTOURS_MINEURES
10
59.999
20
124.371
0
VERTEX
8
CONTOURS_MINEURES
10
59.738
20
124.734
0
VERTEX
8
CONTOURS_MINEURES
10
59.591
20
124.995
0
VERTEX
8
CONTOURS_MINEURES
10
58.918
20
126.078
0
VERTEX
8
CONTOURS_MINEURES
10
56.271
20
130.003
0
VERTEX
8
CONTOURS_MINEURES
10
54.999
20
131.076
0
VERTEX
8
CONTOURS_MINEURES
10
52.165
20
132.167
0
VERTEX
8
CONTOURS_MINEURES
10
49.999
20
133.069
0
VERTEX
8
CONTOURS_MINEURES
10
47.891
20
132.893
0
VERTEX
8
CONTOURS_MINEURES
10
44.999
20
134.268
0
VERTEX
8
CONTOURS_MINEURES
10
40.568
20
134.430
0
VERTEX
8
CONTOURS_MINEURES
10
39.999
20
134.042
0
VERTEX
8
CONTOURS_MINEURES
10
38.749
20
133.750
0
VERTEX
8
CONTOURS_MINEURES
10
34.998
20
133.140
0
VERTEX
8
CONTOURS_MINEURES
10
32.186
20
132.813
0
VERTEX
8
CONTOURS_MINEURES
10
29.998
20
131.252
0
VERTEX
8
CONTOURS_MINEURES
10
29.777
20
130.224
0
VERTEX
8
CONTOURS_MINEURES
10
29.549
20
130.003
0
VERTEX
8
CONTOURS_MINEURES
10
28.332
20
128.334
0
VERTEX
8
CONTOURS_MINEURES
10
25.684
20
124.995
0
VERTEX
8
CONTOURS_MINEURES
10
24.998
20
124.310
0
VERTEX
8
CONTOURS_MINEURES
10
22.363
20
122.632
0
VERTEX
8
CONTOURS_MINEURES
10
19.998
20
120.406
0
VERTEX
8
CONTOURS_MINEURES
10
19.786
20
120.211
0
VERTEX
8
CONTOURS_MINEURES
10
19.655
20
119.999
0
VERTEX
8
CONTOURS_MINEURES
10
17.666
20
117.332
0
VERTEX
8
CONTOURS_MINEURES
10
15.629
20
115.002
0
VERTEX
8
CONTOURS_MINEURES
10
15.400
20
114.599
0
VERTEX
8
CONTOURS_MINEURES
10
14.998
20
114.049
0
VERTEX
8
CONTOURS_MINEURES
10
13.123
20
111.873
0
VERTEX
8
CONTOURS_MINEURES
10
9.997
20
110.110
0
VERTEX
8
CONTOURS_MINEURES
10
9.703
20
109.995
0
VERTEX
8
CONTOURS_MINEURES
10
6.452
20
108.542
0
VERTEX
8
CONTOURS_MINEURES
10
4.997
20
107.535
0
VERTEX
8
CONTOURS_MINEURES
10
0.973
20
104.999
0
VERTEX
8
CONTOURS_MINEURES
10
0.342
20
104.654
0
VERTEX
8
CONTOURS_MINEURES
10
-0.003
20
104.402
0
SEQEND
0
POLYLINE
8
CONTOURS_MINEURES
66
1
70
0
0
VERTEX
8
CONTOURS_MINEURES
10
125.002
20
125.137
0
VERTEX
8
CONTOURS_MINEURES
10
120.666
20
125.661
0
VERTEX
8
CONTOURS_MINEURES
10
120.002
20
125.755
0
VERTEX
8
CONTOURS_MINEURES
10
119.324
20
125.674
0
VERTEX
8
CONTOURS_MINEURES
10
116.958
20
124.995
0
VERTEX
8
CONTOURS_MINEURES
10
115.001
20
124.470
0
VERTEX
8
CONTOURS_MINEURES
10
114.234
20
124.229
0
VERTEX
8
CONTOURS_MINEURES
10
110.001
20
123.088
0
VERTEX
8
CONTOURS_MINEURES
10
107.190
20
122.808
0
VERTEX
8
CONTOURS_MINEURES
10
105.001
20
121.775
0
VERTEX
8
CONTOURS_MINEURES
10
100.494
20
119.999
0
VERTEX
8
CONTOURS_MINEURES
10
100.001
20
119.444
0
VERTEX
8
CONTOURS_MINEURES
10
97.648
20
117.354
0
VERTEX
8
CONTOURS_MINEURES
10
95.001
20
115.081
0
VERTEX
8
CONTOURS_MINEURES
10
94.899
20
115.002
0
VERTEX
8
CONTOURS_MINEURES
10
90.000
20
111.247
0
VERTEX
8
CONTOURS_MINEURES
10
89.380
20
110.616
0
VERTEX
8
CONTOURS_MINEURES
10
88.858
20
109.995
0
VERTEX
8
CONTOURS_MINEURES
10
85.000
20
105.572
0
VERTEX
8
CONTOURS_MINEURES
10
84.696
20
104.999
0
VERTEX
8
CONTOURS_MINEURES
10
84.167
20
104.166
0
VERTEX
8
CONTOURS_MINEURES
10
81.522
20
100.002
0
VERTEX
8
CONTOURS_MINEURES
10
80.738
20
99.263
0
VERTEX
8
CONTOURS_MINEURES
10
80.000
20
97.811
0
VERTEX
8
CONTOURS_MINEURES
10
78.056
20
98.055
0
VERTEX
8
CONTOURS_MINEURES
10
75.000
20
98.055
0
VERTEX
8
CONTOURS_MINEURES
10
71.646
20
98.353
0
VERTEX
8
CONTOURS_MINEURES
10
70.000
20
98.175
0
VERTEX
8
CONTOURS_MINEURES
10
66.948
20
98.051
0
VERTEX
8
CONTOURS_MINEURES
10
65.000
20
98.214
0
VERTEX
8
CONTOURS_MINEURES
10
63.076
20
98.076
0
VERTEX
8
CONTOURS_MINEURES
10
59.999
20
98.076
0
VERTEX
8
CONTOURS_MINEURES
10
56.153
20
100.002
0
VERTEX
8
CONTOURS_MINEURES
10
55.522
20
100.525
0
VERTEX
8
CONTOURS_MINEURES
10
54.999
20
102.144
0
VERTEX
8
CONTOURS_MINEURES
10
54.317
20
104.999
0
VERTEX
8
CONTOURS_MINEURES
10
54.220
20
105.777
0
VERTEX
8
CONTOURS_MINEURES
10
54.062
20
109.995
0
VERTEX
8
CONTOURS_MINEURES
10
53.963
20
113.964
0
VERTEX
8
CONTOURS_MINEURES
10
53.558
20
115.002
0
VERTEX
8
CONTOURS_MINEURES
10
52.164
20
117.166
0
VERTEX
8
CONTOURS_MINEURES
10
50.564
20
119.999
0
VERTEX
8
CONTOURS_MINEURES
10
49.999
20
120.776
0
VERTEX
8
CONTOURS_MINEURES
10
49.053
20
120.944
0
VERTEX
8
CONTOURS_MINEURES
10
44.999
20
123.292
0
VERTEX
8
CONTOURS_MINEURES
10
43.468
20
123.466
0
VERTEX
8
CONTOURS_MINEURES
10
39.999
20
122.903
0
VERTEX
8
CONTOURS_MINEURES
10
37.446
20
122.445
0
VERTEX
8
CONTOURS_MINEURES
10
34.998
20
122.077
0
VERTEX
8
CONTOURS_MINEURES
10
30.539
20
120.539
0
VERTEX
8
CONTOURS_MINEURES
10
29.998
20
120.332
0
VERTEX
8
CONTOURS_MINEURES
10
29.665
20
119.999
0
VERTEX
8
CONTOURS_MINEURES
10
27.591
20
117.408
0
VERTEX
8
CONTOURS_MINEURES
10
25.904
20
115.002
0
VERTEX
8
CONTOURS_MINEURES
10
25.675
20
114.325
0
VERTEX
8
CONTOURS_MINEURES
10
24.998
20
112.946
0
VERTEX
8
CONTOURS_MINEURES
10
23.279
20
109.995
0
VERTEX
8
CONTOURS_MINEURES
10
22.201
20
107.794
0
VERTEX
8
CONTOURS_MINEURES
10
20.697
20
104.999
0
VERTEX
8
CONTOURS_MINEURES
10
20.462
20
104.535
0
VERTEX
8
CONTOURS_MINEURES
10
19.998
20
103.750
0
VERTEX
8
CONTOURS_MINEURES
10
16.516
20
100.002
0
VERTEX
8
CONTOURS_MINEURES
10
15.614
20
99.385
0
VERTEX
8
CONTOURS_MINEURES
10
14.998
20
98.964
0
VERTEX
8
CONTOURS_MINEURES
10
12.096
20
97.901
0
VERTEX
8
CONTOURS_MINEURES
10
9.997
20
96.325
0
VERTEX
8
CONTOURS_MINEURES
10
8.423
20
94.995
0
VERTEX
8
CONTOURS_MINEURES
10
6.282
20
93.711
0
VERTEX
8
CONTOURS_MINEURES
10
4.997
20
92.712
0
VERTEX
8
CONTOURS_MINEURES
10
1.505
20
89.998
0
VERTEX
8
CONTOURS_MINEURES
10
-0.003
20
88.765
0
SEQEND
0
POLYLINE
8
CONTOURS_MINEURES
66
1
70
0
0
VERTEX
8
CONTOURS_MINEURES
10
115.974
20
145.003
0
VERTEX
8
CONTOURS_MINEURES
10
118.995
20
143.995
0
VERTEX
8
CONTOURS_MINEURES
10
120.002
20
144.196
0
VERTEX
8
CONTOURS_MINEURES
10
121.241
20
143.762
0
VERTEX
8
CONTOURS_MINEURES
10
125.002
20
141.928
0
SEQEND
0
POLYLINE
8
CONTOURS_MINEURES
66
1
70
0
0
VERTEX
8
CONTOURS_MINEURES
10
125.002
20
121.969
0
VERTEX
8
CONTOURS_MINEURES
10
122.793
20
122.206
0
VERTEX
8
CONTOURS_MINEURES
10
120.002
20
121.959
0
VERTEX
8
CONTOURS_MINEURES
10
115.799
20
120.796
0
VERTEX
8
CONTOURS_MINEURES
10
115.001
20
120.582
0
VERTEX
8
CONTOURS_MINEURES
10
113.149
20
119.999
0
VERTEX
8
CONTOURS_MINEURES
10
110.001
20
117.992
0
VERTEX
8
CONTOURS_MINEURES
10
108.209
20
116.794
0
VERTEX
8
CONTOURS_MINEURES
10
106.668
20
115.002
0
VERTEX
8
CONTOURS_MINEURES
10
105.001
20
111.722
0
VERTEX
8
CONTOURS_MINEURES
10
103.902
20
109.995
0
VERTEX
8
CONTOURS_MINEURES
10
101.995
20
108.002
0
VERTEX
8
CONTOURS_MINEURES
10
100.001
20
106.375
0
VERTEX
8
CONTOURS_MINEURES
10
98.292
20
104.999
0
VERTEX
8
CONTOURS_MINEURES
10
96.470
20
103.531
0
VERTEX
8
CONTOURS_MINEURES
10
95.001
20
102.292
0
VERTEX
8
CONTOURS_MINEURES
10
92.318
20
100.002
0
VERTEX
8
CONTOURS_MINEURES
10
91.086
20
98.915
0
VERTEX
8
CONTOURS_MINEURES
10
90.000
20
98.376
0
VERTEX
8
CONTOURS_MINEURES
10
88.015
20
96.983
0
VERTEX
8
CONTOURS_MINEURES
10
85.000
20
95.077
0
VERTEX
8
CONTOURS_MINEURES
10
84.958
20
95.037
0
VERTEX
8
CONTOURS_MINEURES
10
84.937
20
94.995
0
VERTEX
8
CONTOURS_MINEURES
10
84.842
20
94.836
0
VERTEX
8
CONTOURS_MINEURES
10
81.525
20
89.998
0
VERTEX
8
CONTOURS_MINEURES
10
80.000
20
86.951
0
VERTEX
8
CONTOURS_MINEURES
10
77.000
20
85.002
0
VERTEX
8
CONTOURS_MINEURES
10
75.000
20
83.796
0
VERTEX
8
CONTOURS_MINEURES
10
71.720
20
83.279
0
VERTEX
8
CONTOURS_MINEURES
10
70.000
20
82.805
0
VERTEX
8
CONTOURS_MINEURES
10
66.839
20
83.160
0
VERTEX
8
CONTOURS_MINEURES
10
65.000
20
82.999
0
VERTEX
8
CONTOURS_MINEURES
10
63.584
20
83.584
0
VERTEX
8
CONTOURS_MINEURES
10
59.999
20
84.941
0
VERTEX
8
CONTOURS_MINEURES
10
59.877
20
85.002
0
VERTEX
8
CONTOURS_MINEURES
10
54.999
20
87.564
0
VERTEX
8
CONTOURS_MINEURES
10
53.560
20
88.560
0
VERTEX
8
CONTOURS_MINEURES
10
50.365
20
89.998
0
VERTEX
8
CONTOURS_MINEURES
10
49.999
20
90.181
0
VERTEX
8
CONTOURS_MINEURES
10
46.307
20
91.306
0
VERTEX
8
CONTOURS_MINEURES
10
44.999
20
92.219
0
VERTEX
8
CONTOURS_MINEURES
10
43.137
20
93.134
0
VERTEX
8
CONTOURS_MINEURES
10
41.758
20
94.995
0
VERTEX
8
CONTOURS_MINEURES
10
39.999
20
98.519
0
VERTEX
8
CONTOURS_MINEURES
10
39.364
20
99.366
0
VERTEX
8
CONTOURS_MINEURES
10
38.887
20
100.002
0
VERTEX
8
CONTOURS_MINEURES
10
34.998
20
104.515
0
VERTEX
8
CONTOURS_MINEURES
10
34.421
20
104.422
0
VERTEX
8
CONTOURS_MINEURES
10
29.998
20
103.833
0
VERTEX
8
CONTOURS_MINEURES
10
29.194
20
100.806
0
VERTEX
8
CONTOURS_MINEURES
10
28.800
20
100.002
0
VERTEX
8
CONTOURS_MINEURES
10
24.998
20
94.995
0
VERTEX
8
CONTOURS_MINEURES
10
22.780
20
92.215
0
VERTEX
8
CONTOURS_MINEURES
10
19.998
20
90.609
0
VERTEX
8
CONTOURS_MINEURES
10
18.919
20
89.998
0
VERTEX
8
CONTOURS_MINEURES
10
14.998
20
87.753
0
VERTEX
8
CONTOURS_MINEURES
10
10.286
20
85.002
0
VERTEX
8
CONTOURS_MINEURES
10
10.108
20
84.891
0
VERTEX
8
CONTOURS_MINEURES
10
9.997
20
84.790
0
VERTEX
8
CONTOURS_MINEURES
10
8.497
20
83.500
0
VERTEX
8
CONTOURS_MINEURES
10
4.997
20
80.438
0
VERTEX
8
CONTOURS_MINEURES
10
4.762
20
80.230
0
VERTEX
8
CONTOURS_MINEURES
10
4.543
20
79.994
0
VERTEX
8
CONTOURS_MINEURES
10
-0.003
20
76.234
0
SEQEND
0
POLYLINE
8
CONTOURS_MINEURES
66
1
70
0
0
VERTEX
8
CONTOURS_MINEURES
10
125.002
20
117.894
0
VERTEX
8
CONTOURS_MINEURES
10
122.439
20
117.563
0
VERTEX
8
CONTOURS_MINEURES
10
120.002
20
116.622
0
VERTEX
8
CONTOURS_MINEURES
10
118.919
20
116.085
0
VERTEX
8
CONTOURS_MINEURES
10
116.782
20
115.002
0
VERTEX
8
CONTOURS_MINEURES
10
115.780
20
114.223
0
VERTEX
8
CONTOURS_MINEURES
10
115.001
20
113.059
0
VERTEX
8
CONTOURS_MINEURES
10
113.759
20
111.239
0
VERTEX
8
CONTOURS_MINEURES
10
113.154
20
109.995
0
VERTEX
8
CONTOURS_MINEURES
10
110.818
20
105.814
0
VERTEX
8
CONTOURS_MINEURES
10
110.390
20
104.999
0
VERTEX
8
CONTOURS_MINEURES
10
110.193
20
104.807
0
VERTEX
8
CONTOURS_MINEURES
10
110.001
20
104.595
0
VERTEX
8
CONTOURS_MINEURES
10
106.365
20
101.365
0
VERTEX
8
CONTOURS_MINEURES
10
105.001
20
100.158
0
VERTEX
8
CONTOURS_MINEURES
10
104.916
20
100.087
0
VERTEX
8
CONTOURS_MINEURES
10
104.809
20
100.002
0
VERTEX
8
CONTOURS_MINEURES
10
101.914
20
98.086
0
VERTEX
8
CONTOURS_MINEURES
10
100.001
20
95.734
0
VERTEX
8
CONTOURS_MINEURES
10
99.146
20
94.995
0
VERTEX
8
CONTOURS_MINEURES
10
96.407
20
93.590
0
VERTEX
8
CONTOURS_MINEURES
10
95.001
20
92.592
0
VERTEX
8
CONTOURS_MINEURES
10
90.685
20
90.683
0
VERTEX
8
CONTOURS_MINEURES
10
90.000
20
90.380
0
VERTEX
8
CONTOURS_MINEURES
10
89.760
20
90.239
0
VERTEX
8
CONTOURS_MINEURES
10
89.296
20
89.998
0
VERTEX
8
CONTOURS_MINEURES
10
86.374
20
88.625
0
VERTEX
8
CONTOURS_MINEURES
10
85.000
20
87.228
0
VERTEX
8
CONTOURS_MINEURES
10
83.834
20
85.002
0
VERTEX
8
CONTOURS_MINEURES
10
82.524
20
82.475
0
VERTEX
8
CONTOURS_MINEURES
10
81.184
20
79.994
0
VERTEX
8
CONTOURS_MINEURES
10
80.780
20
79.215
0
VERTEX
8
CONTOURS_MINEURES
10
80.000
20
77.920
0
VERTEX
8
CONTOURS_MINEURES
10
78.155
20
76.842
0
VERTEX
8
CONTOURS_MINEURES
10
75.000
20
75.562
0
VERTEX
8
CONTOURS_MINEURES
10
73.026
20
74.998
0
VERTEX
8
CONTOURS_MINEURES
10
70.680
20
74.318
0
VERTEX
8
CONTOURS_MINEURES
10
70.000
20
74.232
0
VERTEX
8
CONTOURS_MINEURES
10
69.354
20
74.352
0
VERTEX
8
CONTOURS_MINEURES
10
65.000
20
74.427
0
VERTEX
8
CONTOURS_MINEURES
10
61.296
20
74.998
0
VERTEX
8
CONTOURS_MINEURES
10
59.999
20
75.276
0
VERTEX
8
CONTOURS_MINEURES
10
56.783
20
76.781
0
VERTEX
8
CONTOURS_MINEURES
10
54.999
20
77.679
0
VERTEX
8
CONTOURS_MINEURES
10
53.389
20
78.385
0
VERTEX
8
CONTOURS_MINEURES
10
50.249
20
79.994
0
VERTEX
8
CONTOURS_MINEURES
10
49.999
20
80.132
0
VERTEX
8
CONTOURS_MINEURES
10
49.811
20
80.182
0
VERTEX
8
CONTOURS_MINEURES
10
44.999
20
81.990
0
VERTEX
8
CONTOURS_MINEURES
10
42.734
20
82.734
0
VERTEX
8
CONTOURS_MINEURES
10
39.999
20
83.369
0
VERTEX
8
CONTOURS_MINEURES
10
36.528
20
83.470
0
VERTEX
8
CONTOURS_MINEURES
10
34.998
20
83.633
0
VERTEX
8
CONTOURS_MINEURES
10
31.613
20
83.385
0
VERTEX
8
CONTOURS_MINEURES
10
29.998
20
83.014
0
VERTEX
8
CONTOURS_MINEURES
10
27.261
20
82.261
0
VERTEX
8
CONTOURS_MINEURES
10
24.998
20
82.414
0
VERTEX
8
CONTOURS_MINEURES
10
19.998
20
79.994
0
VERTEX
8
CONTOURS_MINEURES
10
17.118
20
77.876
0
VERTEX
8
CONTOURS_MINEURES
10
14.998
20
75.647
0
VERTEX
8
CONTOURS_MINEURES
10
14.240
20
74.998
0
VERTEX
8
CONTOURS_MINEURES
10
11.770
20
73.227
0
VERTEX
8
CONTOURS_MINEURES
10
9.997
20
72.333
0
VERTEX
8
CONTOURS_MINEURES
10
5.170
20
70.174
0
VERTEX
8
CONTOURS_MINEURES
10
4.997
20
70.086
0
VERTEX
8
CONTOURS_MINEURES
10
4.941
20
70.057
0
VERTEX
8
CONTOURS_MINEURES
10
4.775
20
70.002
0
VERTEX
8
CONTOURS_MINEURES
10
-0.003
20
68.362
0
SEQEND
0
POLYLINE
8
CONTOURS_MINEURES
66
1
70
0
0
VERTEX
8
CONTOURS_MINEURES
10
125.002
20
110.886
0
VERTEX
8
CONTOURS_MINEURES
10
123.689
20
109.995
0
VERTEX
8
CONTOURS_MINEURES
10
120.002
20
106.443
0
VERTEX
8
CONTOURS_MINEURES
10
119.346
20
105.654
0
VERTEX
8
CONTOURS_MINEURES
10
119.071
20
104.999
0
VERTEX
8
CONTOURS_MINEURES
10
115.001
20
100.049
0
VERTEX
8
CONTOURS_MINEURES
10
114.977
20
100.026
0
VERTEX
8
CONTOURS_MINEURES
10
114.956
20
100.002
0
VERTEX
8
CONTOURS_MINEURES
10
112.027
20
97.973
0
VERTEX
8
CONTOURS_MINEURES
10
110.001
20
96.654
0
VERTEX
8
CONTOURS_MINEURES
10
107.971
20
94.995
0
VERTEX
8
CONTOURS_MINEURES
10
106.275
20
93.721
0
VERTEX
8
CONTOURS_MINEURES
10
105.001
20
92.917
0
VERTEX
8
CONTOURS_MINEURES
10
101.301
20
89.998
0
VERTEX
8
CONTOURS_MINEURES
10
100.001
20
89.155
0
VERTEX
8
CONTOURS_MINEURES
10
97.038
20
87.963
0
VERTEX
8
CONTOURS_MINEURES
10
95.001
20
86.667
0
VERTEX
8
CONTOURS_MINEURES
10
91.858
20
85.002
0
VERTEX
8
CONTOURS_MINEURES
10
90.780
20
84.221
0
VERTEX
8
CONTOURS_MINEURES
10
90.000
20
83.522
0
VERTEX
8
CONTOURS_MINEURES
10
86.556
20
79.994
0
VERTEX
8
CONTOURS_MINEURES
10
85.000
20
78.033
0
VERTEX
8
CONTOURS_MINEURES
10
83.965
20
76.032
0
VERTEX
8
CONTOURS_MINEURES
10
83.342
20
74.998
0
VERTEX
8
CONTOURS_MINEURES
10
80.000
20
70.002
0
VERTEX
8
CONTOURS_MINEURES
10
76.205
20
68.797
0
VERTEX
8
CONTOURS_MINEURES
10
75.000
20
68.396
0
VERTEX
8
CONTOURS_MINEURES
10
73.439
20
68.442
0
VERTEX
8
CONTOURS_MINEURES
10
70.000
20
68.102
0
VERTEX
8
CONTOURS_MINEURES
10
68.333
20
68.336
0
VERTEX
8
CONTOURS_MINEURES
10
65.000
20
68.824
0
VERTEX
8
CONTOURS_MINEURES
10
63.928
20
68.931
0
VERTEX
8
CONTOURS_MINEURES
10
59.999
20
69.462
0
VERTEX
8
CONTOURS_MINEURES
10
57.777
20
70.002
0
VERTEX
8
CONTOURS_MINEURES
10
55.573
20
70.575
0
VERTEX
8
CONTOURS_MINEURES
10
54.999
20
70.787
0
VERTEX
8
CONTOURS_MINEURES
10
51.235
20
71.237
0
VERTEX
8
CONTOURS_MINEURES
10
49.999
20
71.775
0
VERTEX
8
CONTOURS_MINEURES
10
47.441
20
72.558
0
VERTEX
8
CONTOURS_MINEURES
10
44.999
20
72.878
0
VERTEX
8
CONTOURS_MINEURES
10
41.499
20
74.998
0
VERTEX
8
CONTOURS_MINEURES
10
40.538
20
75.537
0
VERTEX
8
CONTOURS_MINEURES
10
39.999
20
75.718
0
VERTEX
8
CONTOURS_MINEURES
10
39.173
20
75.823
0
VERTEX
8
CONTOURS_MINEURES
10
34.998
20
76.576
0
VERTEX
8
CONTOURS_MINEURES
10
33.710
20
76.285
0
VERTEX
8
CONTOURS_MINEURES
10
29.998
20
75.271
0
VERTEX
8
CONTOURS_MINEURES
10
29.785
20
75.211
0
VERTEX
8
CONTOURS_MINEURES
10
29.498
20
74.998
0
VERTEX
8
CONTOURS_MINEURES
10
24.998
20
71.112
0
VERTEX
8
CONTOURS_MINEURES
10
23.419
20
70.002
0
VERTEX
8
CONTOURS_MINEURES
10
21.166
20
68.835
0
VERTEX
8
CONTOURS_MINEURES
10
19.998
20
68.745
0
VERTEX
8
CONTOURS_MINEURES
10
18.302
20
68.307
0
VERTEX
8
CONTOURS_MINEURES
10
14.998
20
67.188
0
VERTEX
8
CONTOURS_MINEURES
10
13.324
20
66.678
0
VERTEX
8
CONTOURS_MINEURES
10
9.997
20
65.196
0
VERTEX
8
CONTOURS_MINEURES
10
9.556
20
65.005
0
VERTEX
8
CONTOURS_MINEURES
10
4.997
20
63.241
0
VERTEX
8
CONTOURS_MINEURES
10
2.475
20
62.524
0
VERTEX
8
CONTOURS_MINEURES
10
-0.003
20
61.924
0
SEQEND
0
POLYLINE
8
CONTOURS_MINEURES
66
1
70
0
0
VERTEX
8
CONTOURS_MINEURES
10
125.002
20
102.260
0
VERTEX
8
CONTOURS_MINEURES
10
123.948
20
101.055
0
VERTEX
8
CONTOURS_MINEURES
10
122.785
20
100.002
0
VERTEX
8
CONTOURS_MINEURES
10
121.538
20
98.463
0
VERTEX
8
CONTOURS_MINEURES
10
120.002
20
97.540
0
VERTEX
8
CONTOURS_MINEURES
10
116.982
20
94.995
0
VERTEX
8
CONTOURS_MINEURES
10
115.968
20
94.029
0
VERTEX
8
CONTOURS_MINEURES
10
115.001
20
93.557
0
VERTEX
8
CONTOURS_MINEURES
10
112.184
20
92.180
0
VERTEX
8
CONTOURS_MINEURES
10
110.001
20
90.873
0
VERTEX
8
CONTOURS_MINEURES
10
109.501
20
90.498
0
VERTEX
8
CONTOURS_MINEURES
10
108.709
20
89.998
0
VERTEX
8
CONTOURS_MINEURES
10
105.001
20
87.633
0
VERTEX
8
CONTOURS_MINEURES
10
100.375
20
85.002
0
VERTEX
8
CONTOURS_MINEURES
10
100.001
20
84.745
0
VERTEX
8
CONTOURS_MINEURES
10
97.377
20
82.623
0
VERTEX
8
CONTOURS_MINEURES
10
95.001
20
80.374
0
VERTEX
8
CONTOURS_MINEURES
10
94.781
20
80.215
0
VERTEX
8
CONTOURS_MINEURES
10
94.535
20
79.994
0
VERTEX
8
CONTOURS_MINEURES
10
91.765
20
76.762
0
VERTEX
8
CONTOURS_MINEURES
10
90.229
20
74.998
0
VERTEX
8
CONTOURS_MINEURES
10
90.135
20
74.864
0
VERTEX
8
CONTOURS_MINEURES
10
90.000
20
74.692
0
VERTEX
8
CONTOURS_MINEURES
10
87.974
20
72.027
0
VERTEX
8
CONTOURS_MINEURES
10
85.446
20
70.002
0
VERTEX
8
CONTOURS_MINEURES
10
85.000
20
69.726
0
VERTEX
8
CONTOURS_MINEURES
10
80.815
20
65.005
0
VERTEX
8
CONTOURS_MINEURES
10
80.455
20
64.550
0
VERTEX
8
CONTOURS_MINEURES
10
80.000
20
64.243
0
VERTEX
8
CONTOURS_MINEURES
10
78.987
20
63.990
0
VERTEX
8
CONTOURS_MINEURES
10
75.000
20
62.894
0
VERTEX
8
CONTOURS_MINEURES
10
72.035
20
62.967
0
VERTEX
8
CONTOURS_MINEURES
10
70.000
20
63.027
0
VERTEX
8
CONTOURS_MINEURES
10
68.183
20
63.186
0
VERTEX
8
CONTOURS_MINEURES
10
65.000
20
63.626
0
VERTEX
8
CONTOURS_MINEURES
10
60.988
20
64.015
0
VERTEX
8
CONTOURS_MINEURES
10
59.999
20
64.129
0
VERTEX
8
CONTOURS_MINEURES
10
55.285
20
64.719
0
VERTEX
8
CONTOURS_MINEURES
10
54.999
20
64.746
0
VERTEX
8
CONTOURS_MINEURES
10
50.183
20
64.821
0
VERTEX
8
CONTOURS_MINEURES
10
49.999
20
64.823
0
VERTEX
8
CONTOURS_MINEURES
10
49.719
20
64.725
0
VERTEX
8
CONTOURS_MINEURES
10
44.999
20
63.937
0
VERTEX
8
CONTOURS_MINEURES
10
40.082
20
64.922
0
VERTEX
8
CONTOURS_MINEURES
10
39.999
20
64.870
0
VERTEX
8
CONTOURS_MINEURES
10
39.472
20
65.005
0
VERTEX
8
CONTOURS_MINEURES
10
35.922
20
65.929
0
VERTEX
8
CONTOURS_MINEURES
10
34.998
20
66.273
0
VERTEX
8
CONTOURS_MINEURES
10
34.173
20
65.830
0
VERTEX
8
CONTOURS_MINEURES
10
33.022
20
65.005
0
VERTEX
8
CONTOURS_MINEURES
10
29.998
20
63.649
0
VERTEX
8
CONTOURS_MINEURES
10
29.102
20
64.107
0
VERTEX
8
CONTOURS_MINEURES
10
24.998
20
63.118
0
VERTEX
8
CONTOURS_MINEURES
10
22.067
20
62.933
0
VERTEX
8
CONTOURS_MINEURES
10
19.998
20
62.560
0
VERTEX
8
CONTOURS_MINEURES
10
17.922
20
62.076
0
VERTEX
8
CONTOURS_MINEURES
10
14.998
20
61.124
0
VERTEX
8
CONTOURS_MINEURES
10
12.185
20
59.998
0
VERTEX
8
CONTOURS_MINEURES
10
10.374
20
59.622
0
VERTEX
8
CONTOURS_MINEURES
10
9.997
20
59.548
0
VERTEX
8
CONTOURS_MINEURES
10
6.163
20
58.833
0
VERTEX
8
CONTOURS_MINEURES
10
4.997
20
58.589
0
VERTEX
8
CONTOURS_MINEURES
10
3.428
20
58.430
0
VERTEX
8
CONTOURS_MINEURES
10
-0.003
20
57.955
0
SEQEND
0
POLYLINE
8
CONTOURS_MINEURES
66
1
70
0
0
VERTEX
8
CONTOURS_MINEURES
10
125.002
20
91.613
0
VERTEX
8
CONTOURS_MINEURES
10
122.540
20
89.998
0
VERTEX
8
CONTOURS_MINEURES
10
120.990
20
89.011
0
VERTEX
8
CONTOURS_MINEURES
10
120.002
20
88.166
0
VERTEX
8
CONTOURS_MINEURES
10
118.198
20
86.804
0
VERTEX
8
CONTOURS_MINEURES
10
115.478
20
85.002
0
VERTEX
8
CONTOURS_MINEURES
10
115.001
20
84.661
0
VERTEX
8
CONTOURS_MINEURES
10
111.871
20
83.129
0
VERTEX
8
CONTOURS_MINEURES
10
110.001
20
82.419
0
VERTEX
8
CONTOURS_MINEURES
10
106.550
20
81.546
0
VERTEX
8
CONTOURS_MINEURES
10
105.001
20
80.890
0
VERTEX
8
CONTOURS_MINEURES
10
103.514
20
79.994
0
VERTEX
8
CONTOURS_MINEURES
10
101.794
20
78.203
0
VERTEX
8
CONTOURS_MINEURES
10
100.001
20
77.139
0
VERTEX
8
CONTOURS_MINEURES
10
98.290
20
74.998
0
VERTEX
8
CONTOURS_MINEURES
10
96.866
20
73.134
0
VERTEX
8
CONTOURS_MINEURES
10
95.001
20
70.925
0
VERTEX
8
CONTOURS_MINEURES
10
94.619
20
70.383
0
VERTEX
8
CONTOURS_MINEURES
10
94.321
20
70.002
0
VERTEX
8
CONTOURS_MINEURES
10
92.584
20
67.420
0
VERTEX
8
CONTOURS_MINEURES
10
90.000
20
65.579
0
VERTEX
8
CONTOURS_MINEURES
10
88.834
20
65.005
0
VERTEX
8
CONTOURS_MINEURES
10
86.186
20
63.818
0
VERTEX
8
CONTOURS_MINEURES
10
85.000
20
63.428
0
VERTEX
8
CONTOURS_MINEURES
10
83.485
20
61.515
0
VERTEX
8
CONTOURS_MINEURES
10
81.241
20
59.998
0
VERTEX
8
CONTOURS_MINEURES
10
80.395
20
59.603
0
VERTEX
8
CONTOURS_MINEURES
10
80.000
20
59.565
0
VERTEX
8
CONTOURS_MINEURES
10
79.542
20
59.540
0
VERTEX
8
CONTOURS_MINEURES
10
75.000
20
58.996
0
VERTEX
8
CONTOURS_MINEURES
10
70.943
20
59.056
0
VERTEX
8
CONTOURS_MINEURES
10
70.000
20
59.074
0
VERTEX
8
CONTOURS_MINEURES
10
69.114
20
59.113
0
VERTEX
8
CONTOURS_MINEURES
10
65.000
20
59.293
0
VERTEX
8
CONTOURS_MINEURES
10
60.450
20
59.547
0
VERTEX
8
CONTOURS_MINEURES
10
59.999
20
59.571
0
VERTEX
8
CONTOURS_MINEURES
10
59.584
20
59.582
0
VERTEX
8
CONTOURS_MINEURES
10
54.999
20
59.787
0
VERTEX
8
CONTOURS_MINEURES
10
50.186
20
59.811
0
VERTEX
8
CONTOURS_MINEURES
10
49.999
20
59.800
0
VERTEX
8
CONTOURS_MINEURES
10
49.753
20
59.752
0
VERTEX
8
CONTOURS_MINEURES
10
44.999
20
58.896
0
VERTEX
8
CONTOURS_MINEURES
10
41.530
20
58.468
0
VERTEX
8
CONTOURS_MINEURES
10
39.999
20
58.024
0
VERTEX
8
CONTOURS_MINEURES
10
38.149
20
58.149
0
VERTEX
8
CONTOURS_MINEURES
10
34.998
20
58.044
0
VERTEX
8
CONTOURS_MINEURES
10
31.866
20
58.131
0
VERTEX
8
CONTOURS_MINEURES
10
29.998
20
58.353
0
VERTEX
8
CONTOURS_MINEURES
10
26.169
20
58.828
0
VERTEX
8
CONTOURS_MINEURES
10
24.998
20
58.411
0
VERTEX
8
CONTOURS_MINEURES
10
23.352
20
58.353
0
VERTEX
8
CONTOURS_MINEURES
10
19.998
20
57.978
0
VERTEX
8
CONTOURS_MINEURES
10
17.490
20
57.507
0
VERTEX
8
CONTOURS_MINEURES
10
14.998
20
57.337
0
VERTEX
8
CONTOURS_MINEURES
10
13.062
20
56.935
0
VERTEX
8
CONTOURS_MINEURES
10
9.997
20
56.335
0
VERTEX
8
CONTOURS_MINEURES
10
8.873
20
56.125
0
VERTEX
8
CONTOURS_MINEURES
10
4.997
20
55.313
0
VERTEX
8
CONTOURS_MINEURES
10
1.933
20
55.001
0
VERTEX
8
CONTOURS_MINEURES
10
0.296
20
54.703
0
VERTEX
8
CONTOURS_MINEURES
10
-0.003
20
54.686
0
SEQEND
0
POLYLINE
8
CONTOURS_MINEURES
66
1
70
0
0
VERTEX
8
CONTOURS_MINEURES
10
125.002
20
81.559
0
VERTEX
8
CONTOURS_MINEURES
10
123.150
20
79.994
0
VERTEX
8
CONTOURS_MINEURES
10
121.442
20
78.555
0
VERTEX
8
CONTOURS_MINEURES
10
120.002
20
77.066
0
VERTEX
8
CONTOURS_MINEURES
10
118.833
20
76.166
0
VERTEX
8
CONTOURS_MINEURES
10
117.274
20
74.998
0
VERTEX
8
CONTOURS_MINEURES
10
115.001
20
73.437
0
VERTEX
8
CONTOURS_MINEURES
10
112.620
20
72.619
0
VERTEX
8
CONTOURS_MINEURES
10
110.001
20
71.667
0
VERTEX
8
CONTOURS_MINEURES
10
108.823
20
71.179
0
VERTEX
8
CONTOURS_MINEURES
10
106.828
20
70.002
0
VERTEX
8
CONTOURS_MINEURES
10
105.001
20
68.815
0
VERTEX
8
CONTOURS_MINEURES
10
102.742
20
67.263
0
VERTEX
8
CONTOURS_MINEURES
10
100.235
20
65.005
0
VERTEX
8
CONTOURS_MINEURES
10
100.001
20
64.822
0
VERTEX
8
CONTOURS_MINEURES
10
98.334
20
63.336
0
VERTEX
8
CONTOURS_MINEURES
10
95.001
20
60.284
0
VERTEX
8
CONTOURS_MINEURES
10
94.844
20
60.154
0
VERTEX
8
CONTOURS_MINEURES
10
94.483
20
59.998
0
VERTEX
8
CONTOURS_MINEURES
10
90.000
20
58.950
0
VERTEX
8
CONTOURS_MINEURES
10
86.690
20
58.310
0
VERTEX
8
CONTOURS_MINEURES
10
85.000
20
58.245
0
VERTEX
8
CONTOURS_MINEURES
10
82.787
20
57.213
0
VERTEX
8
CONTOURS_MINEURES
10
80.000
20
56.942
0
VERTEX
8
CONTOURS_MINEURES
10
76.764
20
56.764
0
VERTEX
8
CONTOURS_MINEURES
10
75.000
20
56.553
0
VERTEX
8
CONTOURS_MINEURES
10
73.424
20
56.576
0
VERTEX
8
CONTOURS_MINEURES
10
70.000
20
56.643
0
VERTEX
8
CONTOURS_MINEURES
10
66.783
20
56.783
0
VERTEX
8
CONTOURS_MINEURES
10
65.000
20
56.861
0
VERTEX
8
CONTOURS_MINEURES
10
63.028
20
56.972
0
VERTEX
8
CONTOURS_MINEURES
10
59.999
20
57.134
0
VERTEX
8
CONTOURS_MINEURES
10
57.208
20
57.209
0
VERTEX
8
CONTOURS_MINEURES
10
54.999
20
57.307
0
VERTEX
8
CONTOURS_MINEURES
10
52.680
20
57.319
0
VERTEX
8
CONTOURS_MINEURES
10
49.999
20
57.163
0
VERTEX
8
CONTOURS_MINEURES
10
46.474
20
56.476
0
VERTEX
8
CONTOURS_MINEURES
10
44.999
20
56.210
0
VERTEX
8
CONTOURS_MINEURES
10
43.922
20
56.077
0
VERTEX
8
CONTOURS_MINEURES
10
40.211
20
55.001
0
VERTEX
8
CONTOURS_MINEURES
10
39.999
20
54.873
0
VERTEX
8
CONTOURS_MINEURES
10
39.089
20
55.001
0
VERTEX
8
CONTOURS_MINEURES
10
35.259
20
55.261
0
VERTEX
8
CONTOURS_MINEURES
10
34.998
20
55.253
0
VERTEX
8
CONTOURS_MINEURES
10
34.740
20
55.260
0
VERTEX
8
CONTOURS_MINEURES
10
29.998
20
55.824
0
VERTEX
8
CONTOURS_MINEURES
10
29.059
20
55.940
0
VERTEX
8
CONTOURS_MINEURES
10
26.427
20
55.001
0
VERTEX
8
CONTOURS_MINEURES
10
25.535
20
54.465
0
VERTEX
8
CONTOURS_MINEURES
10
24.998
20
54.158
0
VERTEX
8
CONTOURS_MINEURES
10
21.072
20
53.929
0
VERTEX
8
CONTOURS_MINEURES
10
19.998
20
53.828
0
VERTEX
8
CONTOURS_MINEURES
10
18.662
20
53.666
0
VERTEX
8
CONTOURS_MINEURES
10
14.998
20
53.161
0
VERTEX
8
CONTOURS_MINEURES
10
12.019
20
52.025
0
VERTEX
8
CONTOURS_MINEURES
10
9.997
20
51.230
0
VERTEX
8
CONTOURS_MINEURES
10
6.120
20
50.005
0
VERTEX
8
CONTOURS_MINEURES
10
5.229
20
49.773
0
VERTEX
8
CONTOURS_MINEURES
10
4.997
20
49.736
0
VERTEX
8
CONTOURS_MINEURES
10
4.726
20
49.734
0
VERTEX
8
CONTOURS_MINEURES
10
-0.003
20
49.490
0
SEQEND
0
POLYLINE
8
CONTOURS_MINEURES
66
1
70
0
0
VERTEX
8
CONTOURS_MINEURES
10
125.002
20
70.543
0
VERTEX
8
CONTOURS_MINEURES
10
124.518
20
70.002
0
VERTEX
8
CONTOURS_MINEURES
10
122.694
20
67.311
0
VERTEX
8
CONTOURS_MINEURES
10
120.002
20
65.064
0
VERTEX
8
CONTOURS_MINEURES
10
119.915
20
65.005
0
VERTEX
8
CONTOURS_MINEURES
10
117.263
20
62.740
0
VERTEX
8
CONTOURS_MINEURES
10
115.001
20
60.681
0
VERTEX
8
CONTOURS_MINEURES
10
113.785
20
59.998
0
VERTEX
8
CONTOURS_MINEURES
10
110.626
20
59.373
0
VERTEX
8
CONTOURS_MINEURES
10
110.001
20
59.189
0
VERTEX
8
CONTOURS_MINEURES
10
108.916
20
58.913
0
VERTEX
8
CONTOURS_MINEURES
10
105.001
20
58.216
0
VERTEX
8
CONTOURS_MINEURES
10
102.608
20
57.606
0
VERTEX
8
CONTOURS_MINEURES
10
100.001
20
56.676
0
VERTEX
8
CONTOURS_MINEURES
10
95.857
20
55.857
0
VERTEX
8
CONTOURS_MINEURES
10
95.001
20
55.572
0
VERTEX
8
CONTOURS_MINEURES
10
90.690
20
55.001
0
VERTEX
8
CONTOURS_MINEURES
10
90.125
20
54.877
0
VERTEX
8
CONTOURS_MINEURES
10
90.000
20
54.851
0
VERTEX
8
CONTOURS_MINEURES
10
89.849
20
54.850
0
VERTEX
8
CONTOURS_MINEURES
10
85.000
20
54.477
0
VERTEX
8
CONTOURS_MINEURES
10
84.490
20
54.492
0
VERTEX
8
CONTOURS_MINEURES
10
80.000
20
53.589
0
VERTEX
8
CONTOURS_MINEURES
10
76.780
20
53.222
0
VERTEX
8
CONTOURS_MINEURES
10
75.000
20
53.265
0
VERTEX
8
CONTOURS_MINEURES
10
73.341
20
53.343
0
VERTEX
8
CONTOURS_MINEURES
10
70.000
20
53.469
0
VERTEX
8
CONTOURS_MINEURES
10
66.211
20
53.791
0
VERTEX
8
CONTOURS_MINEURES
10
65.000
20
53.899
0
VERTEX
8
CONTOURS_MINEURES
10
63.991
20
53.994
0
VERTEX
8
CONTOURS_MINEURES
10
59.999
20
54.409
0
VERTEX
8
CONTOURS_MINEURES
10
59.348
20
54.351
0
VERTEX
8
CONTOURS_MINEURES
10
54.999
20
54.615
0
VERTEX
8
CONTOURS_MINEURES
10
50.886
20
54.115
0
VERTEX
8
CONTOURS_MINEURES
10
49.999
20
53.833
0
VERTEX
8
CONTOURS_MINEURES
10
47.411
20
52.591
0
VERTEX
8
CONTOURS_MINEURES
10
44.999
20
51.501
0
VERTEX
8
CONTOURS_MINEURES
10
42.525
20
50.005
0
VERTEX
8
CONTOURS_MINEURES
10
41.007
20
48.995
0
VERTEX
8
CONTOURS_MINEURES
10
39.999
20
48.512
0
VERTEX
8
CONTOURS_MINEURES
10
38.480
20
48.484
0
VERTEX
8
CONTOURS_MINEURES
10
34.998
20
48.960
0
VERTEX
8
CONTOURS_MINEURES
10
34.243
20
49.249
0
VERTEX
8
CONTOURS_MINEURES
10
31.776
20
50.005
0
VERTEX
8
CONTOURS_MINEURES
10
30.402
20
50.409
0
VERTEX
8
CONTOURS_MINEURES
10
29.998
20
50.534
0
VERTEX
8
CONTOURS_MINEURES
10
29.668
20
50.335
0
VERTEX
8
CONTOURS_MINEURES
10
29.089
20
50.005
0
VERTEX
8
CONTOURS_MINEURES
10
26.530
20
48.471
0
VERTEX
8
CONTOURS_MINEURES
10
24.998
20
47.779
0
VERTEX
8
CONTOURS_MINEURES
10
22.441
20
47.558
0
VERTEX
8
CONTOURS_MINEURES
10
19.998
20
47.262
0
VERTEX
8
CONTOURS_MINEURES
10
16.970
20
46.972
0
VERTEX
8
CONTOURS_MINEURES
10
14.998
20
46.750
0
VERTEX
8
CONTOURS_MINEURES
10
10.998
20
45.999
0
VERTEX
8
CONTOURS_MINEURES
10
9.997
20
45.690
0
VERTEX
8
CONTOURS_MINEURES
10
9.449
20
45.547
0
VERTEX
8
CONTOURS_MINEURES
10
5.935
20
44.998
0
VERTEX
8
CONTOURS_MINEURES
10
4.997
20
44.853
0
VERTEX
8
CONTOURS_MINEURES
10
0.188
20
44.807
0
VERTEX
8
CONTOURS_MINEURES
10
-0.003
20
44.797
0
SEQEND
0
POLYLINE
8
CONTOURS_MINEURES
66
1
70
0
0
VERTEX
8
CONTOURS_MINEURES
10
125.002
20
57.888
0
VERTEX
8
CONTOURS_MINEURES
10
122.926
20
57.076
0
VERTEX
8
CONTOURS_MINEURES
10
120.002
20
56.236
0
VERTEX
8
CONTOURS_MINEURES
10
119.083
20
55.920
0
VERTEX
8
CONTOURS_MINEURES
10
115.427
20
55.001
0
VERTEX
8
CONTOURS_MINEURES
10
115.111
20
54.892
0
VERTEX
8
CONTOURS_MINEURES
10
115.001
20
54.856
0
VERTEX
8
CONTOURS_MINEURES
10
114.754
20
54.755
0
VERTEX
8
CONTOURS_MINEURES
10
110.001
20
52.920
0
VERTEX
8
CONTOURS_MINEURES
10
106.520
20
51.523
0
VERTEX
8
CONTOURS_MINEURES
10
105.001
20
50.980
0
VERTEX
8
CONTOURS_MINEURES
10
104.265
20
50.741
0
VERTEX
8
CONTOURS_MINEURES
10
101.251
20
50.005
0
VERTEX
8
CONTOURS_MINEURES
10
100.001
20
49.715
0
VERTEX
8
CONTOURS_MINEURES
10
96.243
20
48.760
0
VERTEX
8
CONTOURS_MINEURES
10
95.001
20
48.634
0
VERTEX
8
CONTOURS_MINEURES
10
93.613
20
48.616
0
VERTEX
8
CONTOURS_MINEURES
10
90.000
20
48.062
0
VERTEX
8
CONTOURS_MINEURES
10
88.180
20
48.182
0
VERTEX
8
CONTOURS_MINEURES
10
85.000
20
48.166
0
VERTEX
8
CONTOURS_MINEURES
10
81.771
20
48.232
0
VERTEX
8
CONTOURS_MINEURES
10
80.000
20
48.429
0
VERTEX
8
CONTOURS_MINEURES
10
78.522
20
48.525
0
VERTEX
8
CONTOURS_MINEURES
10
75.000
20
48.603
0
VERTEX
8
CONTOURS_MINEURES
10
71.232
20
48.771
0
VERTEX
8
CONTOURS_MINEURES
10
70.000
20
48.836
0
VERTEX
8
CONTOURS_MINEURES
10
68.900
20
48.904
0
VERTEX
8
CONTOURS_MINEURES
10
65.000
20
49.238
0
VERTEX
8
CONTOURS_MINEURES
10
64.223
20
49.228
0
VERTEX
8
CONTOURS_MINEURES
10
59.999
20
49.653
0
VERTEX
8
CONTOURS_MINEURES
10
59.548
20
49.553
0
VERTEX
8
CONTOURS_MINEURES
10
54.999
20
49.055
0
VERTEX
8
CONTOURS_MINEURES
10
51.838
20
48.164
0
VERTEX
8
CONTOURS_MINEURES
10
49.999
20
47.486
0
VERTEX
8
CONTOURS_MINEURES
10
45.548
20
44.998
0
VERTEX
8
CONTOURS_MINEURES
10
45.212
20
44.785
0
VERTEX
8
CONTOURS_MINEURES
10
44.999
20
44.675
0
VERTEX
8
CONTOURS_MINEURES
10
44.411
20
44.410
0
VERTEX
8
CONTOURS_MINEURES
10
39.999
20
42.314
0
VERTEX
8
CONTOURS_MINEURES
10
37.039
20
42.040
0
VERTEX
8
CONTOURS_MINEURES
10
34.998
20
42.000
0
VERTEX
8
CONTOURS_MINEURES
10
31.906
20
43.092
0
VERTEX
8
CONTOURS_MINEURES
10
29.998
20
43.863
0
VERTEX
8
CONTOURS_MINEURES
10
27.943
20
42.943
0
VERTEX
8
CONTOURS_MINEURES
10
24.998
20
41.626
0
VERTEX
8
CONTOURS_MINEURES
10
20.954
20
40.956
0
VERTEX
8
CONTOURS_MINEURES
10
19.998
20
40.839
0
VERTEX
8
CONTOURS_MINEURES
10
19.233
20
40.765
0
VERTEX
8
CONTOURS_MINEURES
10
14.998
20
40.863
0
VERTEX
8
CONTOURS_MINEURES
10
10.686
20
40.689
0
VERTEX
8
CONTOURS_MINEURES
10
9.997
20
40.584
0
VERTEX
8
CONTOURS_MINEURES
10
5.054
20
40.058
0
VERTEX
8
CONTOURS_MINEURES
10
4.997
20
40.049
0
VERTEX
8
CONTOURS_MINEURES
10
4.950
20
40.049
0
VERTEX
8
CONTOURS_MINEURES
10
4.088
20
40.001
0
VERTEX
8
CONTOURS_MINEURES
10
-0.003
20
39.795
0
SEQEND
0
POLYLINE
8
CONTOURS_MINEURES
66
1
70
0
0
VERTEX
8
CONTOURS_MINEURES
10
125.002
20
50.619
0
VERTEX
8
CONTOURS_MINEURES
10
122.918
20
50.005
0
VERTEX
8
CONTOURS_MINEURES
10
120.002
20
49.226
0
VERTEX
8
CONTOURS_MINEURES
10
116.852
20
48.151
0
VERTEX
8
CONTOURS_MINEURES
10
115.001
20
47.556
0
VERTEX
8
CONTOURS_MINEURES
10
113.188
20
46.814
0
VERTEX
8
CONTOURS_MINEURES
10
110.001
20
45.476
0
VERTEX
8
CONTOURS_MINEURES
10
109.657
20
45.342
0
VERTEX
8
CONTOURS_MINEURES
10
108.861
20
44.998
0
VERTEX
8
CONTOURS_MINEURES
10
106.135
20
43.864
0
VERTEX
8
CONTOURS_MINEURES
10
105.001
20
43.427
0
VERTEX
8
CONTOURS_MINEURES
10
102.109
20
42.891
0
VERTEX
8
CONTOURS_MINEURES
10
100.001
20
42.726
0
VERTEX
8
CONTOURS_MINEURES
10
97.867
20
42.865
0
VERTEX
8
CONTOURS_MINEURES
10
95.001
20
42.610
0
VERTEX
8
CONTOURS_MINEURES
10
92.913
20
42.912
0
VERTEX
8
CONTOURS_MINEURES
10
90.000
20
42.884
0
VERTEX
8
CONTOURS_MINEURES
10
86.939
20
43.060
0
VERTEX
8
CONTOURS_MINEURES
10
85.000
20
43.189
0
VERTEX
8
CONTOURS_MINEURES
10
83.288
20
43.287
0
VERTEX
8
CONTOURS_MINEURES
10
80.000
20
43.685
0
VERTEX
8
CONTOURS_MINEURES
10
76.033
20
43.966
0
VERTEX
8
CONTOURS_MINEURES
10
75.000
20
44.034
0
VERTEX
8
CONTOURS_MINEURES
10
74.082
20
44.080
0
VERTEX
8
CONTOURS_MINEURES
10
70.000
20
44.331
0
VERTEX
8
CONTOURS_MINEURES
10
69.343
20
44.341
0
VERTEX
8
CONTOURS_MINEURES
10
65.000
20
44.672
0
VERTEX
8
CONTOURS_MINEURES
10
60.400
20
44.597
0
VERTEX
8
CONTOURS_MINEURES
10
59.999
20
44.520
0
VERTEX
8
CONTOURS_MINEURES
10
56.467
20
43.531
0
VERTEX
8
CONTOURS_MINEURES
10
54.999
20
42.978
0
VERTEX
8
CONTOURS_MINEURES
10
51.487
20
41.488
0
VERTEX
8
CONTOURS_MINEURES
10
49.999
20
40.869
0
VERTEX
8
CONTOURS_MINEURES
10
49.467
20
40.533
0
VERTEX
8
CONTOURS_MINEURES
10
48.436
20
40.001
0
VERTEX
8
CONTOURS_MINEURES
10
44.999
20
37.785
0
VERTEX
8
CONTOURS_MINEURES
10
40.207
20
35.005
0
VERTEX
8
CONTOURS_MINEURES
10
40.071
20
34.932
0
VERTEX
8
CONTOURS_MINEURES
10
39.999
20
34.898
0
VERTEX
8
CONTOURS_MINEURES
10
39.907
20
34.913
0
VERTEX
8
CONTOURS_MINEURES
10
39.061
20
35.005
0
VERTEX
8
CONTOURS_MINEURES
10
34.998
20
35.429
0
VERTEX
8
CONTOURS_MINEURES
10
31.901
20
36.906
0
VERTEX
8
CONTOURS_MINEURES
10
29.998
20
37.690
0
VERTEX
8
CONTOURS_MINEURES
10
28.153
20
36.849
0
VERTEX
8
CONTOURS_MINEURES
10
24.998
20
36.329
0
VERTEX
8
CONTOURS_MINEURES
10
20.597
20
35.603
0
VERTEX
8
CONTOURS_MINEURES
10
19.998
20
35.520
0
VERTEX
8
CONTOURS_MINEURES
10
19.472
20
35.531
0
VERTEX
8
CONTOURS_MINEURES
10
14.998
20
35.410
0
VERTEX
8
CONTOURS_MINEURES
10
14.607
20
35.395
0
VERTEX
8
CONTOURS_MINEURES
10
9.997
20
35.371
0
VERTEX
8
CONTOURS_MINEURES
10
9.667
20
35.335
0
VERTEX
8
CONTOURS_MINEURES
10
4.997
20
35.378
0
VERTEX
8
CONTOURS_MINEURES
10
0.215
20
35.222
0
VERTEX
8
CONTOURS_MINEURES
10
-0.003
20
35.211
0
SEQEND
0
POLYLINE
8
CONTOURS_MINEURES
66
1
70
0
0
VERTEX
8
CONTOURS_MINEURES
10
125.002
20
42.479
0
VERTEX
8
CONTOURS_MINEURES
10
122.927
20
42.074
0
VERTEX
8
CONTOURS_MINEURES
10
120.002
20
41.641
0
VERTEX
8
CONTOURS_MINEURES
10
115.378
20
40.377
0
VERTEX
8
CONTOURS_MINEURES
10
115.001
20
40.256
0
VERTEX
8
CONTOURS_MINEURES
10
114.387
20
40.001
0
VERTEX
8
CONTOURS_MINEURES
10
111.283
20
38.720
0
VERTEX
8
CONTOURS_MINEURES
10
110.001
20
38.440
0
VERTEX
8
CONTOURS_MINEURES
10
107.985
20
37.986
0
VERTEX
8
CONTOURS_MINEURES
10
105.001
20
37.082
0
VERTEX
8
CONTOURS_MINEURES
10
103.054
20
36.951
0
VERTEX
8
CONTOURS_MINEURES
10
100.001
20
36.781
0
VERTEX
8
CONTOURS_MINEURES
10
97.614
20
37.616
0
VERTEX
8
CONTOURS_MINEURES
10
95.001
20
37.728
0
VERTEX
8
CONTOURS_MINEURES
10
91.933
20
38.070
0
VERTEX
8
CONTOURS_MINEURES
10
90.000
20
38.594
0
VERTEX
8
CONTOURS_MINEURES
10
88.502
20
38.504
0
VERTEX
8
CONTOURS_MINEURES
10
85.000
20
38.698
0
VERTEX
8
CONTOURS_MINEURES
10
81.120
20
38.882
0
VERTEX
8
CONTOURS_MINEURES
10
80.000
20
38.414
0
VERTEX
8
CONTOURS_MINEURES
10
78.393
20
38.395
0
VERTEX
8
CONTOURS_MINEURES
10
75.000
20
38.679
0
VERTEX
8
CONTOURS_MINEURES
10
71.069
20
38.933
0
VERTEX
8
CONTOURS_MINEURES
10
70.000
20
38.845
0
VERTEX
8
CONTOURS_MINEURES
10
68.729
20
38.732
0
VERTEX
8
CONTOURS_MINEURES
10
65.000
20
38.825
0
VERTEX
8
CONTOURS_MINEURES
10
61.946
20
38.056
0
VERTEX
8
CONTOURS_MINEURES
10
59.999
20
37.664
0
VERTEX
8
CONTOURS_MINEURES
10
55.734
20
35.739
0
VERTEX
8
CONTOURS_MINEURES
10
54.999
20
35.411
0
VERTEX
8
CONTOURS_MINEURES
10
54.729
20
35.275
0
VERTEX
8
CONTOURS_MINEURES
10
54.205
20
35.005
0
VERTEX
8
CONTOURS_MINEURES
10
51.379
20
33.622
0
VERTEX
8
CONTOURS_MINEURES
10
49.999
20
32.947
0
VERTEX
8
CONTOURS_MINEURES
10
48.163
20
31.836
0
VERTEX
8
CONTOURS_MINEURES
10
44.999
20
30.109
0
VERTEX
8
CONTOURS_MINEURES
10
44.926
20
30.070
0
VERTEX
8
CONTOURS_MINEURES
10
44.768
20
29.997
0
VERTEX
8
CONTOURS_MINEURES
10
39.999
20
27.959
0
VERTEX
8
CONTOURS_MINEURES
10
36.510
20
28.487
0
VERTEX
8
CONTOURS_MINEURES
10
34.998
20
28.890
0
VERTEX
8
CONTOURS_MINEURES
10
34.161
20
29.161
0
VERTEX
8
CONTOURS_MINEURES
10
31.693
20
29.997
0
VERTEX
8
CONTOURS_MINEURES
10
29.998
20
30.745
0
VERTEX
8
CONTOURS_MINEURES
10
26.950
20
31.952
0
VERTEX
8
CONTOURS_MINEURES
10
24.998
20
31.659
0
VERTEX
8
CONTOURS_MINEURES
10
23.555
20
31.442
0
VERTEX
8
CONTOURS_MINEURES
10
19.998
20
31.016
0
VERTEX
8
CONTOURS_MINEURES
10
15.869
20
30.870
0
VERTEX
8
CONTOURS_MINEURES
10
14.998
20
30.851
0
VERTEX
8
CONTOURS_MINEURES
10
11.061
20
31.063
0
VERTEX
8
CONTOURS_MINEURES
10
9.997
20
31.058
0
VERTEX
8
CONTOURS_MINEURES
10
8.929
20
31.067
0
VERTEX
8
CONTOURS_MINEURES
10
4.997
20
30.798
0
VERTEX
8
CONTOURS_MINEURES
10
0.872
20
30.873
0
VERTEX
8
CONTOURS_MINEURES
10
-0.003
20
30.846
0
SEQEND
0
POLYLINE
8
CONTOURS_MINEURES
66
1
70
0
0
VERTEX
8
CONTOURS_MINEURES
10
125.002
20
34.884
0
VERTEX
8
CONTOURS_MINEURES
10
120.890
20
34.115
0
VERTEX
8
CONTOURS_MINEURES
10
120.002
20
33.770
0
VERTEX
8
CONTOURS_MINEURES
10
118.453
20
33.454
0
VERTEX
8
CONTOURS_MINEURES
10
115.001
20
32.934
0
VERTEX
8
CONTOURS_MINEURES
10
112.853
20
32.853
0
VERTEX
8
CONTOURS_MINEURES
10
110.001
20
32.240
0
VERTEX
8
CONTOURS_MINEURES
10
108.167
20
31.834
0
VERTEX
8
CONTOURS_MINEURES
10
105.001
20
31.420
0
VERTEX
8
CONTOURS_MINEURES
10
101.520
20
31.519
0
VERTEX
8
CONTOURS_MINEURES
10
100.001
20
31.439
0
VERTEX
8
CONTOURS_MINEURES
10
97.852
20
32.149
0
VERTEX
8
CONTOURS_MINEURES
10
95.001
20
33.351
0
VERTEX
8
CONTOURS_MINEURES
10
93.908
20
33.910
0
VERTEX
8
CONTOURS_MINEURES
10
90.260
20
35.005
0
VERTEX
8
CONTOURS_MINEURES
10
90.000
20
35.075
0
VERTEX
8
CONTOURS_MINEURES
10
88.824
20
35.005
0
VERTEX
8
CONTOURS_MINEURES
10
85.237
20
34.767
0
VERTEX
8
CONTOURS_MINEURES
10
85.000
20
34.744
0
VERTEX
8
CONTOURS_MINEURES
10
84.357
20
34.360
0
VERTEX
8
CONTOURS_MINEURES
10
80.000
20
32.559
0
VERTEX
8
CONTOURS_MINEURES
10
77.143
20
32.143
0
VERTEX
8
CONTOURS_MINEURES
10
75.000
20
32.114
0
VERTEX
8
CONTOURS_MINEURES
10
73.031
20
31.969
0
VERTEX
8
CONTOURS_MINEURES
10
70.000
20
31.210
0
VERTEX
8
CONTOURS_MINEURES
10
68.893
20
31.106
0
VERTEX
8
CONTOURS_MINEURES
10
65.000
20
30.340
0
VERTEX
8
CONTOURS_MINEURES
10
63.181
20
29.997
0
VERTEX
8
CONTOURS_MINEURES
10
60.442
20
29.555
0
VERTEX
8
CONTOURS_MINEURES
10
59.999
20
29.429
0
VERTEX
8
CONTOURS_MINEURES
10
56.793
20
28.204
0
VERTEX
8
CONTOURS_MINEURES
10
54.999
20
27.227
0
VERTEX
8
CONTOURS_MINEURES
10
50.846
20
25.001
0
VERTEX
8
CONTOURS_MINEURES
10
50.262
20
24.738
0
VERTEX
8
CONTOURS_MINEURES
10
49.999
20
24.625
0
VERTEX
8
CONTOURS_MINEURES
10
49.332
20
24.335
0
VERTEX
8
CONTOURS_MINEURES
10
44.999
20
22.392
0
VERTEX
8
CONTOURS_MINEURES
10
42.369
20
22.373
0
VERTEX
8
CONTOURS_MINEURES
10
39.999
20
21.842
0
VERTEX
8
CONTOURS_MINEURES
10
37.678
20
22.682
0
VERTEX
8
CONTOURS_MINEURES
10
34.998
20
23.344
0
VERTEX
8
CONTOURS_MINEURES
10
30.224
20
24.775
0
VERTEX
8
CONTOURS_MINEURES
10
29.998
20
24.844
0
VERTEX
8
CONTOURS_MINEURES
10
29.894
20
24.897
0
VERTEX
8
CONTOURS_MINEURES
10
29.748
20
25.001
0
VERTEX
8
CONTOURS_MINEURES
10
24.998
20
27.364
0
VERTEX
8
CONTOURS_MINEURES
10
22.584
20
27.585
0
VERTEX
8
CONTOURS_MINEURES
10
19.998
20
27.344
0
VERTEX
8
CONTOURS_MINEURES
10
17.343
20
27.344
0
VERTEX
8
CONTOURS_MINEURES
10
14.998
20
27.281
0
VERTEX
8
CONTOURS_MINEURES
10
12.620
20
27.377
0
VERTEX
8
CONTOURS_MINEURES
10
9.997
20
27.377
0
VERTEX
8
CONTOURS_MINEURES
10
6.247
20
26.250
0
VERTEX
8
CONTOURS_MINEURES
10
4.997
20
26.163
0
VERTEX
8
CONTOURS_MINEURES
10
3.812
20
26.185
0
VERTEX
8
CONTOURS_MINEURES
10
-0.003
20
25.122
0
SEQEND
0
POLYLINE
8
CONTOURS_MINEURES
66
1
70
0
0
VERTEX
8
CONTOURS_MINEURES
10
125.002
20
28.780
0
VERTEX
8
CONTOURS_MINEURES
10
122.434
20
27.432
0
VERTEX
8
CONTOURS_MINEURES
10
120.002
20
26.395
0
VERTEX
8
CONTOURS_MINEURES
10
118.862
20
26.139
0
VERTEX
8
CONTOURS_MINEURES
10
115.001
20
25.041
0
VERTEX
8
CONTOURS_MINEURES
10
114.962
20
25.040
0
VERTEX
8
CONTOURS_MINEURES
10
110.001
20
25.331
0
VERTEX
8
CONTOURS_MINEURES
10
105.297
20
25.297
0
VERTEX
8
CONTOURS_MINEURES
10
105.001
20
25.254
0
VERTEX
8
CONTOURS_MINEURES
10
104.740
20
25.262
0
VERTEX
8
CONTOURS_MINEURES
10
100.001
20
25.834
0
VERTEX
8
CONTOURS_MINEURES
10
98.211
20
26.790
0
VERTEX
8
CONTOURS_MINEURES
10
95.001
20
28.608
0
VERTEX
8
CONTOURS_MINEURES
10
94.198
20
29.195
0
VERTEX
8
CONTOURS_MINEURES
10
92.700
20
29.997
0
VERTEX
8
CONTOURS_MINEURES
10
90.914
20
30.912
0
VERTEX
8
CONTOURS_MINEURES
10
90.000
20
31.186
0
VERTEX
8
CONTOURS_MINEURES
10
88.887
20
31.112
0
VERTEX
8
CONTOURS_MINEURES
10
85.000
20
30.738
0
VERTEX
8
CONTOURS_MINEURES
10
83.759
20
29.997
0
VERTEX
8
CONTOURS_MINEURES
10
81.429
20
28.570
0
VERTEX
8
CONTOURS_MINEURES
10
80.000
20
26.989
0
VERTEX
8
CONTOURS_MINEURES
10
75.757
20
25.758
0
VERTEX
8
CONTOURS_MINEURES
10
75.000
20
25.637
0
VERTEX
8
CONTOURS_MINEURES
10
74.471
20
25.530
0
VERTEX
8
CONTOURS_MINEURES
10
72.727
20
25.001
0
VERTEX
8
CONTOURS_MINEURES
10
70.000
20
24.251
0
VERTEX
8
CONTOURS_MINEURES
10
68.938
20
23.940
0
VERTEX
8
CONTOURS_MINEURES
10
65.000
20
23.071
0
VERTEX
8
CONTOURS_MINEURES
10
62.083
20
22.086
0
VERTEX
8
CONTOURS_MINEURES
10
59.999
20
21.530
0
VERTEX
8
CONTOURS_MINEURES
10
56.666
20
20.004
0
VERTEX
8
CONTOURS_MINEURES
10
55.504
20
19.499
0
VERTEX
8
CONTOURS_MINEURES
10
54.999
20
19.332
0
VERTEX
8
CONTOURS_MINEURES
10
53.888
20
18.892
0
VERTEX
8
CONTOURS_MINEURES
10
49.999
20
17.381
0
VERTEX
8
CONTOURS_MINEURES
10
48.292
20
16.707
0
VERTEX
8
CONTOURS_MINEURES
10
44.999
20
15.586
0
VERTEX
8
CONTOURS_MINEURES
10
44.414
20
15.582
0
VERTEX
8
CONTOURS_MINEURES
10
39.999
20
16.439
0
VERTEX
8
CONTOURS_MINEURES
10
37.117
20
17.119
0
VERTEX
8
CONTOURS_MINEURES
10
34.998
20
17.891
0
VERTEX
8
CONTOURS_MINEURES
10
30.650
20
19.351
0
VERTEX
8
CONTOURS_MINEURES
10
29.998
20
19.552
0
VERTEX
8
CONTOURS_MINEURES
10
29.225
20
20.004
0
VERTEX
8
CONTOURS_MINEURES
10
26.422
20
21.427
0
VERTEX
8
CONTOURS_MINEURES
10
24.998
20
22.443
0
VERTEX
8
CONTOURS_MINEURES
10
22.190
20
22.811
0
VERTEX
8
CONTOURS_MINEURES
10
19.998
20
23.214
0
VERTEX
8
CONTOURS_MINEURES
10
16.785
20
23.214
0
VERTEX
8
CONTOURS_MINEURES
10
14.998
20
22.990
0
VERTEX
8
CONTOURS_MINEURES
10
12.517
20
22.522
0
VERTEX
8
CONTOURS_MINEURES
10
9.997
20
22.522
0
VERTEX
8
CONTOURS_MINEURES
10
8.486
20
21.515
0
VERTEX
8
CONTOURS_MINEURES
10
6.128
20
20.004
0
VERTEX
8
CONTOURS_MINEURES
10
5.644
20
19.357
0
VERTEX
8
CONTOURS_MINEURES
10
4.997
20
18.736
0
VERTEX
8
CONTOURS_MINEURES
10
1.664
20
14.997
0
VERTEX
8
CONTOURS_MINEURES
10
1.100
20
13.895
0
VERTEX
8
CONTOURS_MINEURES
10
0.906
20
10.001
0
VERTEX
8
CONTOURS_MINEURES
10
0.648
20
9.350
0
VERTEX
8
CONTOURS_MINEURES
10
-0.003
20
5.929
0
SEQEND
0
POLYLINE
8
CONTOURS_MINEURES
66
1
70
0
0
VERTEX
8
CONTOURS_MINEURES
10
125.002
20
21.775
0
VERTEX
8
CONTOURS_MINEURES
10
123.925
20
21.080
0
VERTEX
8
CONTOURS_MINEURES
10
122.474
20
20.004
0
VERTEX
8
CONTOURS_MINEURES
10
120.002
20
18.506
0
VERTEX
8
CONTOURS_MINEURES
10
116.842
20
18.161
0
VERTEX
8
CONTOURS_MINEURES
10
115.001
20
17.988
0
VERTEX
8
CONTOURS_MINEURES
10
111.753
20
18.250
0
VERTEX
8
CONTOURS_MINEURES
10
110.001
20
18.483
0
VERTEX
8
CONTOURS_MINEURES
10
108.682
20
18.684
0
VERTEX
8
CONTOURS_MINEURES
10
105.001
20
18.876
0
VERTEX
8
CONTOURS_MINEURES
10
100.283
20
19.722
0
VERTEX
8
CONTOURS_MINEURES
10
100.001
20
19.788
0
VERTEX
8
CONTOURS_MINEURES
10
99.637
20
20.004
0
VERTEX
8
CONTOURS_MINEURES
10
96.869
20
21.871
0
VERTEX
8
CONTOURS_MINEURES
10
95.001
20
23.056
0
VERTEX
8
CONTOURS_MINEURES
10
92.628
20
25.001
0
VERTEX
8
CONTOURS_MINEURES
10
91.112
20
26.111
0
VERTEX
8
CONTOURS_MINEURES
10
90.000
20
26.706
0
VERTEX
8
CONTOURS_MINEURES
10
88.468
20
26.532
0
VERTEX
8
CONTOURS_MINEURES
10
85.000
20
26.646
0
VERTEX
8
CONTOURS_MINEURES
10
83.980
20
26.021
0
VERTEX
8
CONTOURS_MINEURES
10
83.058
20
25.001
0
VERTEX
8
CONTOURS_MINEURES
10
81.703
20
23.299
0
VERTEX
8
CONTOURS_MINEURES
10
80.000
20
21.383
0
VERTEX
8
CONTOURS_MINEURES
10
78.947
20
21.056
0
VERTEX
8
CONTOURS_MINEURES
10
75.636
20
20.004
0
VERTEX
8
CONTOURS_MINEURES
10
75.155
20
19.849
0
VERTEX
8
CONTOURS_MINEURES
10
75.000
20
19.809
0
VERTEX
8
CONTOURS_MINEURES
10
74.690
20
19.694
0
VERTEX
8
CONTOURS_MINEURES
10
70.000
20
18.119
0
VERTEX
8
CONTOURS_MINEURES
10
66.831
20
16.831
0
VERTEX
8
CONTOURS_MINEURES
10
65.000
20
16.249
0
VERTEX
8
CONTOURS_MINEURES
10
64.060
20
15.937
0
VERTEX
8
CONTOURS_MINEURES
10
61.864
20
14.997
0
VERTEX
8
CONTOURS_MINEURES
10
59.999
20
14.212
0
VERTEX
8
CONTOURS_MINEURES
10
58.450
20
13.449
0
VERTEX
8
CONTOURS_MINEURES
10
54.999
20
12.041
0
VERTEX
8
CONTOURS_MINEURES
10
53.630
20
11.368
0
VERTEX
8
CONTOURS_MINEURES
10
50.846
20
10.001
0
VERTEX
8
CONTOURS_MINEURES
10
49.999
20
9.658
0
VERTEX
8
CONTOURS_MINEURES
10
49.740
20
9.742
0
VERTEX
8
CONTOURS_MINEURES
10
44.999
20
9.508
0
VERTEX
8
CONTOURS_MINEURES
10
42.871
20
10.001
0
VERTEX
8
CONTOURS_MINEURES
10
40.645
20
10.646
0
VERTEX
8
CONTOURS_MINEURES
10
39.999
20
10.785
0
VERTEX
8
CONTOURS_MINEURES
10
38.936
20
11.063
0
VERTEX
8
CONTOURS_MINEURES
10
34.998
20
12.109
0
VERTEX
8
CONTOURS_MINEURES
10
32.815
20
12.815
0
VERTEX
8
CONTOURS_MINEURES
10
29.998
20
13.622
0
VERTEX
8
CONTOURS_MINEURES
10
28.715
20
13.715
0
VERTEX
8
CONTOURS_MINEURES
10
26.595
20
14.997
0
VERTEX
8
CONTOURS_MINEURES
10
24.998
20
15.814
0
VERTEX
8
CONTOURS_MINEURES
10
21.011
20
16.012
0
VERTEX
8
CONTOURS_MINEURES
10
19.998
20
16.303
0
VERTEX
8
CONTOURS_MINEURES
10
16.509
20
14.997
0
VERTEX
8
CONTOURS_MINEURES
10
14.998
20
13.998
0
VERTEX
8
CONTOURS_MINEURES
10
12.901
20
12.096
0
VERTEX
8
CONTOURS_MINEURES
10
10.664
20
10.001
0
VERTEX
8
CONTOURS_MINEURES
10
9.997
20
9.001
0
VERTEX
8
CONTOURS_MINEURES
10
8.115
20
5.004
0
VERTEX
8
CONTOURS_MINEURES
10
7.942
20
2.055
0
VERTEX
8
CONTOURS_MINEURES
10
8.070
20
-0.003
0
SEQEND
0
POLYLINE
8
CONTOURS_MINEURES
66
1
70
0
0
VERTEX
8
CONTOURS_MINEURES
10
125.002
20
14.327
0
VERTEX
8
CONTOURS_MINEURES
10
121.926
20
13.074
0
VERTEX
8
CONTOURS_MINEURES
10
120.002
20
12.228
0
VERTEX
8
CONTOURS_MINEURES
10
116.872
20
11.870
0
VERTEX
8
CONTOURS_MINEURES
10
115.001
20
11.715
0
VERTEX
8
CONTOURS_MINEURES
10
113.042
20
11.959
0
VERTEX
8
CONTOURS_MINEURES
10
110.001
20
12.566
0
VERTEX
8
CONTOURS_MINEURES
10
107.051
20
12.949
0
VERTEX
8
CONTOURS_MINEURES
10
105.001
20
13.531
0
VERTEX
8
CONTOURS_MINEURES
10
103.855
20
13.852
0
VERTEX
8
CONTOURS_MINEURES
10
100.001
20
14.528
0
VERTEX
8
CONTOURS_MINEURES
10
99.572
20
14.568
0
VERTEX
8
CONTOURS_MINEURES
10
98.447
20
14.997
0
VERTEX
8
CONTOURS_MINEURES
10
95.001
20
16.711
0
VERTEX
8
CONTOURS_MINEURES
10
92.832
20
17.833
0
VERTEX
8
CONTOURS_MINEURES
10
91.112
20
20.004
0
VERTEX
8
CONTOURS_MINEURES
10
90.000
20
20.901
0
VERTEX
8
CONTOURS_MINEURES
10
86.279
20
21.283
0
VERTEX
8
CONTOURS_MINEURES
10
85.000
20
21.345
0
VERTEX
8
CONTOURS_MINEURES
10
84.406
20
20.599
0
VERTEX
8
CONTOURS_MINEURES
10
83.878
20
20.004
0
VERTEX
8
CONTOURS_MINEURES
10
80.000
20
15.527
0
VERTEX
8
CONTOURS_MINEURES
10
79.600
20
15.398
0
VERTEX
8
CONTOURS_MINEURES
10
78.043
20
14.997
0
VERTEX
8
CONTOURS_MINEURES
10
75.000
20
14.064
0
VERTEX
8
CONTOURS_MINEURES
10
73.353
20
13.351
0
VERTEX
8
CONTOURS_MINEURES
10
70.000
20
11.887
0
VERTEX
8
CONTOURS_MINEURES
10
68.704
20
11.295
0
VERTEX
8
CONTOURS_MINEURES
10
66.148
20
10.001
0
VERTEX
8
CONTOURS_MINEURES
10
65.000
20
9.385
0
VERTEX
8
CONTOURS_MINEURES
10
62.019
20
7.982
0
VERTEX
8
CONTOURS_MINEURES
10
59.999
20
6.849
0
VERTEX
8
CONTOURS_MINEURES
10
58.793
20
6.209
0
VERTEX
8
CONTOURS_MINEURES
10
57.241
20
5.004
0
VERTEX
8
CONTOURS_MINEURES
10
54.999
20
3.478
0
VERTEX
8
CONTOURS_MINEURES
10
53.716
20
3.719
0
VERTEX
8
CONTOURS_MINEURES
10
49.999
20
3.194
0
VERTEX
8
CONTOURS_MINEURES
10
45.653
20
4.349
0
VERTEX
8
CONTOURS_MINEURES
10
44.999
20
4.523
0
VERTEX
8
CONTOURS_MINEURES
10
42.762
20
5.004
0
VERTEX
8
CONTOURS_MINEURES
10
39.999
20
5.545
0
VERTEX
8
CONTOURS_MINEURES
10
36.067
20
6.072
0
VERTEX
8
CONTOURS_MINEURES
10
34.998
20
6.354
0
VERTEX
8
CONTOURS_MINEURES
10
33.007
20
6.994
0
VERTEX
8
CONTOURS_MINEURES
10
29.998
20
7.620
0
VERTEX
8
CONTOURS_MINEURES
10
27.130
20
7.870
0
VERTEX
8
CONTOURS_MINEURES
10
24.998
20
5.171
0
VERTEX
8
CONTOURS_MINEURES
10
24.813
20
5.004
0
VERTEX
8
CONTOURS_MINEURES
10
19.998
20
1.230
0
VERTEX
8
CONTOURS_MINEURES
10
19.318
20
0.678
0
VERTEX
8
CONTOURS_MINEURES
10
19.032
20
-0.003
0
SEQEND
0
POLYLINE
8
CONTOURS_MINEURES
66
1
70
0
0
VERTEX
8
CONTOURS_MINEURES
10
125.002
20
9.031
0
VERTEX
8
CONTOURS_MINEURES
10
121.976
20
8.028
0
VERTEX
8
CONTOURS_MINEURES
10
120.002
20
7.638
0
VERTEX
8
CONTOURS_MINEURES
10
117.555
20
7.448
0
VERTEX
8
CONTOURS_MINEURES
10
115.001
20
7.421
0
VERTEX
8
CONTOURS_MINEURES
10
112.823
20
7.824
0
VERTEX
8
CONTOURS_MINEURES
10
110.001
20
8.185
0
VERTEX
8
CONTOURS_MINEURES
10
108.443
20
8.444
0
VERTEX
8
CONTOURS_MINEURES
10
105.001
20
9.250
0
VERTEX
8
CONTOURS_MINEURES
10
101.747
20
10.001
0
VERTEX
8
CONTOURS_MINEURES
10
100.383
20
10.382
0
VERTEX
8
CONTOURS_MINEURES
10
100.001
20
10.449
0
VERTEX
8
CONTOURS_MINEURES
10
95.840
20
10.840
0
VERTEX
8
CONTOURS_MINEURES
10
95.001
20
11.160
0
VERTEX
8
CONTOURS_MINEURES
10
93.077
20
11.922
0
VERTEX
8
CONTOURS_MINEURES
10
90.000
20
12.186
0
VERTEX
8
CONTOURS_MINEURES
10
86.897
20
11.896
0
VERTEX
8
CONTOURS_MINEURES
10
85.000
20
12.075
0
VERTEX
8
CONTOURS_MINEURES
10
84.027
20
10.973
0
VERTEX
8
CONTOURS_MINEURES
10
81.986
20
10.001
0
VERTEX
8
CONTOURS_MINEURES
10
80.000
20
8.994
0
VERTEX
8
CONTOURS_MINEURES
10
77.021
20
7.981
0
VERTEX
8
CONTOURS_MINEURES
10
75.000
20
6.908
0
VERTEX
8
CONTOURS_MINEURES
10
73.743
20
6.260
0
VERTEX
8
CONTOURS_MINEURES
10
71.363
20
5.004
0
VERTEX
8
CONTOURS_MINEURES
10
70.342
20
4.661
0
VERTEX
8
CONTOURS_MINEURES
10
70.000
20
4.391
0
VERTEX
8
CONTOURS_MINEURES
10
68.593
20
3.596
0
VERTEX
8
CONTOURS_MINEURES
10
65.000
20
1.839
0
VERTEX
8
CONTOURS_MINEURES
10
63.838
20
1.160
0
VERTEX
8
CONTOURS_MINEURES
10
62.228
20
-0.003
0
SEQEND
0
POLYLINE
8
CONTOURS_MINEURES
66
1
70
0
0
VERTEX
8
CONTOURS_MINEURES
10
36.051
20
-0.003
0
VERTEX
8
CONTOURS_MINEURES
10
34.998
20
0.124
0
VERTEX
8
CONTOURS_MINEURES
10
34.198
20
-0.003
0
SEQEND
0
POLYLINE
8
CONTOURS_MINEURES
66
1
70
0
0
VERTEX
8
CONTOURS_MINEURES
10
125.002
20
4.755
0
VERTEX
8
CONTOURS_MINEURES
10
124.780
20
4.782
0
VERTEX
8
CONTOURS_MINEURES
10
120.002
20
4.073
0
VERTEX
8
CONTOURS_MINEURES
10
115.967
20
4.037
0
VERTEX
8
CONTOURS_MINEURES
10
115.001
20
4.148
0
VERTEX
8
CONTOURS_MINEURES
10
114.196
20
4.198
0
VERTEX
8
CONTOURS_MINEURES
10
110.001
20
4.785
0
VERTEX
8
CONTOURS_MINEURES
10
108.334
20
5.004
0
VERTEX
8
CONTOURS_MINEURES
10
105.476
20
5.479
0
VERTEX
8
CONTOURS_MINEURES
10
105.001
20
5.590
0
VERTEX
8
CONTOURS_MINEURES
10
104.239
20
5.766
0
VERTEX
8
CONTOURS_MINEURES
10
100.001
20
6.471
0
VERTEX
8
CONTOURS_MINEURES
10
98.385
20
6.619
0
VERTEX
8
CONTOURS_MINEURES
10
95.001
20
6.865
0
VERTEX
8
CONTOURS_MINEURES
10
91.837
20
6.840
0
VERTEX
8
CONTOURS_MINEURES
10
90.000
20
6.926
0
VERTEX
8
CONTOURS_MINEURES
10
88.171
20
6.832
0
VERTEX
8
CONTOURS_MINEURES
10
85.000
20
6.003
0
VERTEX
8
CONTOURS_MINEURES
10
83.428
20
5.004
0
VERTEX
8
CONTOURS_MINEURES
10
80.000
20
2.799
0
VERTEX
8
CONTOURS_MINEURES
10
77.923
20
2.077
0
VERTEX
8
CONTOURS_MINEURES
10
75.000
20
1.141
0
VERTEX
8
CONTOURS_MINEURES
10
74.144
20
0.853
0
VERTEX
8
CONTOURS_MINEURES
10
73.060
20
-0.003
0
SEQEND
0
POLYLINE
8
CONTOURS_MINEURES
66
1
70
0
0
VERTEX
8
CONTOURS_MINEURES
10
125.002
20
0.918
0
VERTEX
8
CONTOURS_MINEURES
10
121.367
20
1.364
0
VERTEX
8
CONTOURS_MINEURES
10
120.002
20
1.161
0
VERTEX
8
CONTOURS_MINEURES
10
118.849
20
1.151
0
VERTEX
8
CONTOURS_MINEURES
10
115.001
20
1.593
0
VERTEX
8
CONTOURS_MINEURES
10
111.792
20
1.790
0
VERTEX
8
CONTOURS_MINEURES
10
110.001
20
2.041
0
VERTEX
8
CONTOURS_MINEURES
10
107.651
20
2.350
0
VERTEX
8
CONTOURS_MINEURES
10
105.001
20
2.628
0
VERTEX
8
CONTOURS_MINEURES
10
102.737
20
2.737
0
VERTEX
8
CONTOURS_MINEURES
10
100.001
20
3.086
0
VERTEX
8
CONTOURS_MINEURES
10
97.806
20
2.806
0
VERTEX
8
CONTOURS_MINEURES
10
95.001
20
2.994
0
VERTEX
8
CONTOURS_MINEURES
10
92.030
20
2.972
0
VERTEX
8
CONTOURS_MINEURES
10
90.000
20
2.680
0
VERTEX
8
CONTOURS_MINEURES
10
86.727
20
1.725
0
VERTEX
8
CONTOURS_MINEURES
10
85.000
20
1.323
0
VERTEX
8
CONTOURS_MINEURES
10
83.067
20
-0.003
0
SEQEND
0
POLYLINE
8
CONTOURS_MINEURES
66
1
70
0
0
VERTEX
8
CONTOURS_MINEURES
10
100.883
20
-0.003
0
VERTEX
8
CONTOURS_MINEURES
10
100.041
20
0.037
0
VERTEX
8
CONTOURS_MINEURES
10
100.001
20
0.042
0
VERTEX
8
CONTOURS_MINEURES
10
99.644
20
-0.003
0
SEQEND
0
POLYLINE
8
CONTOURS_MAJEURES
66
1
70
0
0
VERTEX
8
CONTOURS_MAJEURES
10
125.002
20
126.913
0
VERTEX
8
CONTOURS_MAJEURES
10
122.248
20
127.246
0
VERTEX
8
CONTOURS_MAJEURES
10
120.002
20
127.562
0
VERTEX
8
CONTOURS_MAJEURES
10
117.711
20
127.289
0
VERTEX
8
CONTOURS_MAJEURES
10
115.001
20
126.512
0
VERTEX
8
CONTOURS_MAJEURES
10
113.435
20
126.564
0
VERTEX
8
CONTOURS_MAJEURES
10
110.001
20
125.234
0
VERTEX
8
CONTOURS_MAJEURES
10
108.334
20
124.995
0
VERTEX
8
CONTOURS_MAJEURES
10
105.303
20
124.694
0
VERTEX
8
CONTOURS_MAJEURES
10
105.001
20
124.551
0
VERTEX
8
CONTOURS_MAJEURES
10
104.267
20
124.262
0
VERTEX
8
CONTOURS_MAJEURES
10
101.001
20
124.995
0
VERTEX
8
CONTOURS_MAJEURES
10
100.001
20
125.249
0
VERTEX
8
CONTOURS_MAJEURES
10
95.787
20
125.783
0
VERTEX
8
CONTOURS_MAJEURES
10
95.001
20
126.519
0
VERTEX
8
CONTOURS_MAJEURES
10
93.410
20
124.995
0
VERTEX
8
CONTOURS_MAJEURES
10
92.239
20
122.758
0
VERTEX
8
CONTOURS_MAJEURES
10
91.637
20
119.999
0
VERTEX
8
CONTOURS_MAJEURES
10
90.000
20
118.714
0
VERTEX
8
CONTOURS_MAJEURES
10
87.904
20
117.098
0
VERTEX
8
CONTOURS_MAJEURES
10
86.000
20
115.002
0
VERTEX
8
CONTOURS_MAJEURES
10
85.504
20
114.498
0
VERTEX
8
CONTOURS_MAJEURES
10
85.000
20
113.899
0
VERTEX
8
CONTOURS_MAJEURES
10
83.900
20
111.097
0
VERTEX
8
CONTOURS_MAJEURES
10
83.217
20
109.995
0
VERTEX
8
CONTOURS_MAJEURES
10
80.741
20
105.739
0
VERTEX
8
CONTOURS_MAJEURES
10
80.348
20
104.999
0
VERTEX
8
CONTOURS_MAJEURES
10
80.000
20
104.451
0
VERTEX
8
CONTOURS_MAJEURES
10
76.579
20
103.421
0
VERTEX
8
CONTOURS_MAJEURES
10
75.000
20
103.421
0
VERTEX
8
CONTOURS_MAJEURES
10
70.779
20
104.220
0
VERTEX
8
CONTOURS_MAJEURES
10
70.000
20
104.293
0
VERTEX
8
CONTOURS_MAJEURES
10
65.320
20
104.678
0
VERTEX
8
CONTOURS_MAJEURES
10
65.000
20
104.666
0
VERTEX
8
CONTOURS_MAJEURES
10
64.666
20
104.666
0
VERTEX
8
CONTOURS_MAJEURES
10
64.107
20
104.999
0
VERTEX
8
CONTOURS_MAJEURES
10
61.321
20
106.320
0
VERTEX
8
CONTOURS_MAJEURES
10
60.362
20
109.995
0
VERTEX
8
CONTOURS_MAJEURES
10
59.999
20
111.921
0
VERTEX
8
CONTOURS_MAJEURES
10
59.569
20
114.572
0
VERTEX
8
CONTOURS_MAJEURES
10
59.560
20
115.002
0
VERTEX
8
CONTOURS_MAJEURES
10
59.245
20
115.757
0
VERTEX
8
CONTOURS_MAJEURES
10
57.527
20
119.999
0
VERTEX
8
CONTOURS_MAJEURES
10
56.470
20
121.468
0
VERTEX
8
CONTOURS_MAJEURES
10
54.999
20
124.087
0
VERTEX
8
CONTOURS_MAJEURES
10
54.305
20
124.995
0
VERTEX
8
CONTOURS_MAJEURES
10
49.999
20
128.828
0
VERTEX
8
CONTOURS_MAJEURES
10
46.629
20
128.370
0
VERTEX
8
CONTOURS_MAJEURES
10
44.999
20
128.501
0
VERTEX
8
CONTOURS_MAJEURES
10
43.147
20
128.148
0
VERTEX
8
CONTOURS_MAJEURES
10
39.999
20
127.255
0
VERTEX
8
CONTOURS_MAJEURES
10
37.942
20
127.055
0
VERTEX
8
CONTOURS_MAJEURES
10
34.998
20
126.586
0
VERTEX
8
CONTOURS_MAJEURES
10
33.660
20
126.336
0
VERTEX
8
CONTOURS_MAJEURES
10
31.303
20
124.995
0
VERTEX
8
CONTOURS_MAJEURES
10
29.998
20
124.496
0
VERTEX
8
CONTOURS_MAJEURES
10
25.498
20
119.999
0
VERTEX
8
CONTOURS_MAJEURES
10
25.276
20
119.721
0
VERTEX
8
CONTOURS_MAJEURES
10
24.998
20
119.325
0
VERTEX
8
CONTOURS_MAJEURES
10
20.902
20
115.002
0
VERTEX
8
CONTOURS_MAJEURES
10
19.998
20
113.426
0
VERTEX
8
CONTOURS_MAJEURES
10
18.756
20
111.238
0
VERTEX
8
CONTOURS_MAJEURES
10
17.847
20
109.995
0
VERTEX
8
CONTOURS_MAJEURES
10
14.998
20
106.498
0
VERTEX
8
CONTOURS_MAJEURES
10
14.115
20
105.880
0
VERTEX
8
CONTOURS_MAJEURES
10
12.556
20
104.999
0
VERTEX
8
CONTOURS_MAJEURES
10
9.997
20
103.533
0
VERTEX
8
CONTOURS_MAJEURES
10
6.331
20
101.335
0
VERTEX
8
CONTOURS_MAJEURES
10
4.997
20
100.535
0
VERTEX
8
CONTOURS_MAJEURES
10
4.652
20
100.347
0
VERTEX
8
CONTOURS_MAJEURES
10
4.181
20
100.002
0
VERTEX
8
CONTOURS_MAJEURES
10
1.968
20
98.028
0
VERTEX
8
CONTOURS_MAJEURES
10
-0.003
20
96.200
0
SEQEND
0
POLYLINE
8
CONTOURS_MAJEURES
66
1
70
0
0
VERTEX
8
CONTOURS_MAJEURES
10
102.099
20
145.003
0
VERTEX
8
CONTOURS_MAJEURES
10
100.001
20
141.437
0
VERTEX
8
CONTOURS_MAJEURES
10
99.078
20
139.996
0
VERTEX
8
CONTOURS_MAJEURES
10
100.001
20
138.713
0
VERTEX
8
CONTOURS_MAJEURES
10
100.806
20
139.191
0
VERTEX
8
CONTOURS_MAJEURES
10
105.001
20
138.804
0
VERTEX
8
CONTOURS_MAJEURES
10
109.305
20
139.300
0
VERTEX
8
CONTOURS_MAJEURES
10
110.001
20
139.511
0
VERTEX
8
CONTOURS_MAJEURES
10
110.370
20
139.627
0
VERTEX
8
CONTOURS_MAJEURES
10
112.582
20
139.996
0
VERTEX
8
CONTOURS_MAJEURES
10
114.280
20
140.718
0
VERTEX
8
CONTOURS_MAJEURES
10
115.001
20
140.691
0
VERTEX
8
CONTOURS_MAJEURES
10
115.522
20
140.517
0
VERTEX
8
CONTOURS_MAJEURES
10
120.002
20
141.414
0
VERTEX
8
CONTOURS_MAJEURES
10
124.049
20
139.996
0
VERTEX
8
CONTOURS_MAJEURES
10
124.763
20
139.757
0
VERTEX
8
CONTOURS_MAJEURES
10
125.002
20
139.711
0
SEQEND
0
POLYLINE
8
CONTOURS_MAJEURES
66
1
70
0
0
VERTEX
8
CONTOURS_MAJEURES
10
125.002
20
96.916
0
VERTEX
8
CONTOURS_MAJEURES
10
124.142
20
95.855
0
VERTEX
8
CONTOURS_MAJEURES
10
122.710
20
94.995
0
VERTEX
8
CONTOURS_MAJEURES
10
120.002
20
93.156
0
VERTEX
8
CONTOURS_MAJEURES
10
118.383
20
91.616
0
VERTEX
8
CONTOURS_MAJEURES
10
115.075
20
89.998
0
VERTEX
8
CONTOURS_MAJEURES
10
115.033
20
89.967
0
VERTEX
8
CONTOURS_MAJEURES
10
115.001
20
89.946
0
VERTEX
8
CONTOURS_MAJEURES
10
112.118
20
87.883
0
VERTEX
8
CONTOURS_MAJEURES
10
110.001
20
87.125
0
VERTEX
8
CONTOURS_MAJEURES
10
105.097
20
85.002
0
VERTEX
8
CONTOURS_MAJEURES
10
105.001
20
84.961
0
VERTEX
8
CONTOURS_MAJEURES
10
104.899
20
84.900
0
VERTEX
8
CONTOURS_MAJEURES
10
100.001
20
81.535
0
VERTEX
8
CONTOURS_MAJEURES
10
99.150
20
80.847
0
VERTEX
8
CONTOURS_MAJEURES
10
98.249
20
79.994
0
VERTEX
8
CONTOURS_MAJEURES
10
95.001
20
76.094
0
VERTEX
8
CONTOURS_MAJEURES
10
94.046
20
74.998
0
VERTEX
8
CONTOURS_MAJEURES
10
92.377
20
72.623
0
VERTEX
8
CONTOURS_MAJEURES
10
90.320
20
70.002
0
VERTEX
8
CONTOURS_MAJEURES
10
90.192
20
69.810
0
VERTEX
8
CONTOURS_MAJEURES
10
90.000
20
69.674
0
VERTEX
8
CONTOURS_MAJEURES
10
89.355
20
69.357
0
VERTEX
8
CONTOURS_MAJEURES
10
85.000
20
66.661
0
VERTEX
8
CONTOURS_MAJEURES
10
83.533
20
65.005
0
VERTEX
8
CONTOURS_MAJEURES
10
81.970
20
63.033
0
VERTEX
8
CONTOURS_MAJEURES
10
80.000
20
61.701
0
VERTEX
8
CONTOURS_MAJEURES
10
75.608
20
60.607
0
VERTEX
8
CONTOURS_MAJEURES
10
75.000
20
60.440
0
VERTEX
8
CONTOURS_MAJEURES
10
74.548
20
60.451
0
VERTEX
8
CONTOURS_MAJEURES
10
70.000
20
60.584
0
VERTEX
8
CONTOURS_MAJEURES
10
65.941
20
60.941
0
VERTEX
8
CONTOURS_MAJEURES
10
65.000
20
61.071
0
VERTEX
8
CONTOURS_MAJEURES
10
63.813
20
61.186
0
VERTEX
8
CONTOURS_MAJEURES
10
59.999
20
61.625
0
VERTEX
8
CONTOURS_MAJEURES
10
58.142
20
61.858
0
VERTEX
8
CONTOURS_MAJEURES
10
54.999
20
62.151
0
VERTEX
8
CONTOURS_MAJEURES
10
52.815
20
62.185
0
VERTEX
8
CONTOURS_MAJEURES
10
49.999
20
62.215
0
VERTEX
8
CONTOURS_MAJEURES
10
45.719
20
60.719
0
VERTEX
8
CONTOURS_MAJEURES
10
44.999
20
60.599
0
VERTEX
8
CONTOURS_MAJEURES
10
44.249
20
60.749
0
VERTEX
8
CONTOURS_MAJEURES
10
43.042
20
59.998
0
VERTEX
8
CONTOURS_MAJEURES
10
40.334
20
59.663
0
VERTEX
8
CONTOURS_MAJEURES
10
39.999
20
59.566
0
VERTEX
8
CONTOURS_MAJEURES
10
39.594
20
59.593
0
VERTEX
8
CONTOURS_MAJEURES
10
34.998
20
59.440
0
VERTEX
8
CONTOURS_MAJEURES
10
30.429
20
59.567
0
VERTEX
8
CONTOURS_MAJEURES
10
29.998
20
59.618
0
VERTEX
8
CONTOURS_MAJEURES
10
26.937
20
59.998
0
VERTEX
8
CONTOURS_MAJEURES
10
25.653
20
60.654
0
VERTEX
8
CONTOURS_MAJEURES
10
24.998
20
60.496
0
VERTEX
8
CONTOURS_MAJEURES
10
24.530
20
60.466
0
VERTEX
8
CONTOURS_MAJEURES
10
21.933
20
59.998
0
VERTEX
8
CONTOURS_MAJEURES
10
19.998
20
59.781
0
VERTEX
8
CONTOURS_MAJEURES
10
15.970
20
59.026
0
VERTEX
8
CONTOURS_MAJEURES
10
14.998
20
58.960
0
VERTEX
8
CONTOURS_MAJEURES
10
11.718
20
58.279
0
VERTEX
8
CONTOURS_MAJEURES
10
9.997
20
57.941
0
VERTEX
8
CONTOURS_MAJEURES
10
7.518
20
57.479
0
VERTEX
8
CONTOURS_MAJEURES
10
4.997
20
56.951
0
VERTEX
8
CONTOURS_MAJEURES
10
1.603
20
56.606
0
VERTEX
8
CONTOURS_MAJEURES
10
-0.003
20
56.384
0
SEQEND
0
POLYLINE
8
CONTOURS_MAJEURES
66
1
70
0
0
VERTEX
8
CONTOURS_MAJEURES
10
125.002
20
46.545
0
VERTEX
8
CONTOURS_MAJEURES
10
120.709
20
45.706
0
VERTEX
8
CONTOURS_MAJEURES
10
120.002
20
45.517
0
VERTEX
8
CONTOURS_MAJEURES
10
119.615
20
45.385
0
VERTEX
8
CONTOURS_MAJEURES
10
118.411
20
44.998
0
VERTEX
8
CONTOURS_MAJEURES
10
115.001
20
43.903
0
VERTEX
8
CONTOURS_MAJEURES
10
113.126
20
43.124
0
VERTEX
8
CONTOURS_MAJEURES
10
110.001
20
41.825
0
VERTEX
8
CONTOURS_MAJEURES
10
108.712
20
41.289
0
VERTEX
8
CONTOURS_MAJEURES
10
105.371
20
40.001
0
VERTEX
8
CONTOURS_MAJEURES
10
105.001
20
39.889
0
VERTEX
8
CONTOURS_MAJEURES
10
100.422
20
39.580
0
VERTEX
8
CONTOURS_MAJEURES
10
100.001
20
39.557
0
VERTEX
8
CONTOURS_MAJEURES
10
99.672
20
39.672
0
VERTEX
8
CONTOURS_MAJEURES
10
95.001
20
39.872
0
VERTEX
8
CONTOURS_MAJEURES
10
93.847
20
40.001
0
VERTEX
8
CONTOURS_MAJEURES
10
90.486
20
40.486
0
VERTEX
8
CONTOURS_MAJEURES
10
90.000
20
40.482
0
VERTEX
8
CONTOURS_MAJEURES
10
89.490
20
40.511
0
VERTEX
8
CONTOURS_MAJEURES
10
85.000
20
40.810
0
VERTEX
8
CONTOURS_MAJEURES
10
81.036
20
41.036
0
VERTEX
8
CONTOURS_MAJEURES
10
80.000
20
41.162
0
VERTEX
8
CONTOURS_MAJEURES
10
78.750
20
41.250
0
VERTEX
8
CONTOURS_MAJEURES
10
75.000
20
41.497
0
VERTEX
8
CONTOURS_MAJEURES
10
71.666
20
41.667
0
VERTEX
8
CONTOURS_MAJEURES
10
70.000
20
41.769
0
VERTEX
8
CONTOURS_MAJEURES
10
66.818
20
41.818
0
VERTEX
8
CONTOURS_MAJEURES
10
65.000
20
41.956
0
VERTEX
8
CONTOURS_MAJEURES
10
63.074
20
41.925
0
VERTEX
8
CONTOURS_MAJEURES
10
59.999
20
41.338
0
VERTEX
8
CONTOURS_MAJEURES
10
58.955
20
41.045
0
VERTEX
8
CONTOURS_MAJEURES
10
56.181
20
40.001
0
VERTEX
8
CONTOURS_MAJEURES
10
54.999
20
39.473
0
VERTEX
8
CONTOURS_MAJEURES
10
52.026
20
37.976
0
VERTEX
8
CONTOURS_MAJEURES
10
49.999
20
36.930
0
VERTEX
8
CONTOURS_MAJEURES
10
46.986
20
35.005
0
VERTEX
8
CONTOURS_MAJEURES
10
45.748
20
34.255
0
VERTEX
8
CONTOURS_MAJEURES
10
44.999
20
33.846
0
VERTEX
8
CONTOURS_MAJEURES
10
42.499
20
32.501
0
VERTEX
8
CONTOURS_MAJEURES
10
39.999
20
31.347
0
VERTEX
8
CONTOURS_MAJEURES
10
36.858
20
31.860
0
VERTEX
8
CONTOURS_MAJEURES
10
34.998
20
32.061
0
VERTEX
8
CONTOURS_MAJEURES
10
30.932
20
34.070
0
VERTEX
8
CONTOURS_MAJEURES
10
29.998
20
34.482
0
VERTEX
8
CONTOURS_MAJEURES
10
29.624
20
34.630
0
VERTEX
8
CONTOURS_MAJEURES
10
24.998
20
33.935
0
VERTEX
8
CONTOURS_MAJEURES
10
21.579
20
33.421
0
VERTEX
8
CONTOURS_MAJEURES
10
19.998
20
33.232
0
VERTEX
8
CONTOURS_MAJEURES
10
18.163
20
33.167
0
VERTEX
8
CONTOURS_MAJEURES
10
14.998
20
33.096
0
VERTEX
8
CONTOURS_MAJEURES
10
13.189
20
33.193
0
VERTEX
8
CONTOURS_MAJEURES
10
9.997
20
33.180
0
VERTEX
8
CONTOURS_MAJEURES
10
6.792
20
33.207
0
VERTEX
8
CONTOURS_MAJEURES
10
4.997
20
33.084
0
VERTEX
8
CONTOURS_MAJEURES
10
3.114
20
33.118
0
VERTEX
8
CONTOURS_MAJEURES
10
-0.003
20
33.023
0
SEQEND
0
POLYLINE
8
CONTOURS_MAJEURES
66
1
70
0
0
VERTEX
8
CONTOURS_MAJEURES
10
52.707
20
-0.003
0
VERTEX
8
CONTOURS_MAJEURES
10
50.427
20
0.425
0
VERTEX
8
CONTOURS_MAJEURES
10
49.999
20
0.364
0
VERTEX
8
CONTOURS_MAJEURES
10
49.499
20
0.497
0
VERTEX
8
CONTOURS_MAJEURES
10
44.999
20
1.694
0
VERTEX
8
CONTOURS_MAJEURES
10
42.840
20
2.158
0
VERTEX
8
CONTOURS_MAJEURES
10
39.999
20
2.592
0
VERTEX
8
CONTOURS_MAJEURES
10
36.919
20
3.081
0
VERTEX
8
CONTOURS_MAJEURES
10
34.998
20
3.314
0
VERTEX
8
CONTOURS_MAJEURES
10
32.991
20
2.994
0
VERTEX
8
CONTOURS_MAJEURES
10
29.998
20
3.913
0
VERTEX
8
CONTOURS_MAJEURES
10
25.967
20
-0.003
0
SEQEND
0
POLYLINE
8
CONTOURS_MAJEURES
66
1
70
0
0
VERTEX
8
CONTOURS_MAJEURES
10
125.002
20
11.536
0
VERTEX
8
CONTOURS_MAJEURES
10
123.910
20
11.091
0
VERTEX
8
CONTOURS_MAJEURES
10
121.430
20
10.001
0
VERTEX
8
CONTOURS_MAJEURES
10
120.358
20
9.645
0
VERTEX
8
CONTOURS_MAJEURES
10
120.002
20
9.575
0
VERTEX
8
CONTOURS_MAJEURES
10
115.757
20
9.246
0
VERTEX
8
CONTOURS_MAJEURES
10
115.001
20
9.237
0
VERTEX
8
CONTOURS_MAJEURES
10
114.357
20
9.357
0
VERTEX
8
CONTOURS_MAJEURES
10
110.001
20
9.914
0
VERTEX
8
CONTOURS_MAJEURES
10
109.927
20
9.926
0
VERTEX
8
CONTOURS_MAJEURES
10
109.611
20
10.001
0
VERTEX
8
CONTOURS_MAJEURES
10
105.001
20
11.311
0
VERTEX
8
CONTOURS_MAJEURES
10
102.119
20
12.117
0
VERTEX
8
CONTOURS_MAJEURES
10
100.001
20
12.489
0
VERTEX
8
CONTOURS_MAJEURES
10
97.706
20
12.704
0
VERTEX
8
CONTOURS_MAJEURES
10
95.001
20
13.735
0
VERTEX
8
CONTOURS_MAJEURES
10
91.819
20
14.997
0
VERTEX
8
CONTOURS_MAJEURES
10
90.620
20
15.617
0
VERTEX
8
CONTOURS_MAJEURES
10
90.000
20
16.399
0
VERTEX
8
CONTOURS_MAJEURES
10
88.334
20
16.666
0
VERTEX
8
CONTOURS_MAJEURES
10
85.000
20
17.021
0
VERTEX
8
CONTOURS_MAJEURES
10
83.417
20
14.997
0
VERTEX
8
CONTOURS_MAJEURES
10
81.814
20
13.184
0
VERTEX
8
CONTOURS_MAJEURES
10
80.000
20
12.319
0
VERTEX
8
CONTOURS_MAJEURES
10
76.058
20
11.057
0
VERTEX
8
CONTOURS_MAJEURES
10
75.000
20
10.733
0
VERTEX
8
CONTOURS_MAJEURES
10
73.308
20
10.001
0
VERTEX
8
CONTOURS_MAJEURES
10
71.125
20
8.876
0
VERTEX
8
CONTOURS_MAJEURES
10
70.000
20
8.282
0
VERTEX
8
CONTOURS_MAJEURES
10
66.640
20
6.644
0
VERTEX
8
CONTOURS_MAJEURES
10
65.000
20
5.764
0
VERTEX
8
CONTOURS_MAJEURES
10
64.482
20
5.521
0
VERTEX
8
CONTOURS_MAJEURES
10
63.561
20
5.004
0
VERTEX
8
CONTOURS_MAJEURES
10
61.313
20
3.689
0
VERTEX
8
CONTOURS_MAJEURES
10
59.999
20
2.740
0
VERTEX
8
CONTOURS_MAJEURES
10
55.742
20
-0.003
0
SEQEND
0
POLYLINE
8
PARCELLE
66
1
70
1
0
VERTEX
8
PARCELLE
10
63.684
20
128.599
0
VERTEX
8
PARCELLE
10
101.022
20
98.384
0
VERTEX
8
PARCELLE
10
107.916
20
57.020
0
VERTEX
8
PARCELLE
10
105.254
20
55.038
0
VERTEX
8
PARCELLE
10
57.958
20
20.000
0
VERTEX
8
PARCELLE
10
29.590
20
38.632
0
VERTEX
8
PARCELLE
10
20.000
20
45.233
0
VERTEX
8
PARCELLE
10
42.465
20
88.111
0
VERTEX
8
PARCELLE
10
63.684
20
128.599
0
SEQEND
0
TEXT
8
POINTS_COTES
10
-0.003
20
-0.003
40
1.0
1
135.2
0
TEXT
8
POINTS_COTES
10
65.000
20
5.004
40
1.0
1
140.2
0
TEXT
8
POINTS_COTES
10
-0.003
20
14.997
40
1.0
1
134.7
0
TEXT
8
POINTS_COTES
10
65.000
20
20.004
40
1.0
1
135.9
0
TEXT
8
POINTS_COTES
10
-0.003
20
29.997
40
1.0
1
131.4
0
TEXT
8
POINTS_COTES
10
65.000
20
35.005
40
1.0
1
131.9
0
TEXT
8
POINTS_COTES
10
-0.003
20
44.998
40
1.0
1
124.9
0
TEXT
8
POINTS_COTES
10
65.000
20
50.005
40
1.0
1
126.7
0
TEXT
8
POINTS_COTES
10
-0.003
20
59.998
40
1.0
1
117.7
0
TEXT
8
POINTS_COTES
10
65.000
20
65.005
40
1.0
1
118.5
0
TEXT
8
POINTS_COTES
10
-0.003
20
74.998
40
1.0
1
113.2
0
TEXT
8
POINTS_COTES
10
65.000
20
79.994
40
1.0
1
113.5
0
TEXT
8
POINTS_COTES
10
-0.003
20
89.998
40
1.0
1
110.8
0
TEXT
8
POINTS_COTES
10
65.000
20
94.995
40
1.0
1
111.5
0
TEXT
8
POINTS_COTES
10
-0.003
20
104.999
40
1.0
1
108.9
0
TEXT
8
POINTS_COTES
10
65.000
20
109.995
40
1.0
1
109.4
0
TEXT
8
POINTS_COTES
10
-0.003
20
119.999
40
1.0
1
106.3
0
TEXT
8
POINTS_COTES
10
65.000
20
124.995
40
1.0
1
108.0
0
TEXT
8
POINTS_COTES
10
-0.003
20
134.999
40
1.0
1
104.0
0
TEXT
8
POINTS_COTES
10
65.000
20
139.996
40
1.0
1
105.9
0
ENDSEC
0
EOF
