0
SECTION
2
HEADER
0
ENDSEC
0
SECTION
2
TABLES
0
TABLE
2
LAYER
70
4
0
LAYER
2
CONTOURS_MINEURES
70
0
62
8
6
CONTINUOUS
0
LAYER
2
CONTOURS_MAJEURES
70
0
62
3
6
CONTINUOUS
0
LAYER
2
PARCELLE
70
0
62
4
6
CONTINUOUS
0
LAYER
2
POINTS_COTES
70
0
62
7
6
CONTINUOUS
0
ENDTAB
0
ENDSEC
0
SECTION
2
ENTITIES
0
POLYLINE
8
CONTOURS_MINEURES
66
1
70
0
0
VERTEX
8
CONTOURS_MINEURES
10
-0.000
20
7.319
0
VERTEX
8
CONTOURS_MINEURES
10
1.678
20
7.319
0
VERTEX
8
CONTOURS_MINEURES
10
2.996
20
7.319
0
VERTEX
8
CONTOURS_MINEURES
10
3.431
20
6.431
0
VERTEX
8
CONTOURS_MINEURES
10
3.678
20
5.996
0
VERTEX
8
CONTOURS_MINEURES
10
3.678
20
5.316
0
VERTEX
8
CONTOURS_MINEURES
10
3.678
20
3.000
0
VERTEX
8
CONTOURS_MINEURES
10
4.369
20
1.372
0
VERTEX
8
CONTOURS_MINEURES
10
4.766
20
0.004
0
SEQEND
0
POLYLINE
8
CONTOURS_MINEURES
66
1
70
0
0
VERTEX
8
CONTOURS_MINEURES
10
-0.000
20
17.489
0
VERTEX
8
CONTOURS_MINEURES
10
2.484
20
17.489
0
VERTEX
8
CONTOURS_MINEURES
10
2.996
20
17.489
0
VERTEX
8
CONTOURS_MINEURES
10
3.905
20
15.005
0
VERTEX
8
CONTOURS_MINEURES
10
4.435
20
13.436
0
VERTEX
8
CONTOURS_MINEURES
10
5.119
20
11.998
0
VERTEX
8
CONTOURS_MINEURES
10
5.119
20
9.883
0
VERTEX
8
CONTOURS_MINEURES
10
5.119
20
9.002
0
VERTEX
8
CONTOURS_MINEURES
10
5.409
20
8.409
0
VERTEX
8
CONTOURS_MINEURES
10
6.003
20
7.362
0
VERTEX
8
CONTOURS_MINEURES
10
6.544
20
6.538
0
VERTEX
8
CONTOURS_MINEURES
10
6.845
20
5.996
0
VERTEX
8
CONTOURS_MINEURES
10
6.845
20
3.842
0
VERTEX
8
CONTOURS_MINEURES
10
6.845
20
3.000
0
VERTEX
8
CONTOURS_MINEURES
10
6.982
20
2.021
0
VERTEX
8
CONTOURS_MINEURES
10
7.564
20
0.004
0
SEQEND
0
POLYLINE
8
CONTOURS_MINEURES
66
1
70
0
0
VERTEX
8
CONTOURS_MINEURES
10
-0.000
20
34.011
0
VERTEX
8
CONTOURS_MINEURES
10
1.010
20
34.011
0
VERTEX
8
CONTOURS_MINEURES
10
2.996
20
34.011
0
VERTEX
8
CONTOURS_MINEURES
10
3.285
20
33.001
0
VERTEX
8
CONTOURS_MINEURES
10
3.379
20
32.619
0
VERTEX
8
CONTOURS_MINEURES
10
3.956
20
30.005
0
VERTEX
8
CONTOURS_MINEURES
10
3.956
20
27.958
0
VERTEX
8
CONTOURS_MINEURES
10
3.956
20
26.998
0
VERTEX
8
CONTOURS_MINEURES
10
4.152
20
25.155
0
VERTEX
8
CONTOURS_MINEURES
10
4.280
20
24.003
0
VERTEX
8
CONTOURS_MINEURES
10
4.895
20
22.104
0
VERTEX
8
CONTOURS_MINEURES
10
5.181
20
20.996
0
VERTEX
8
CONTOURS_MINEURES
10
5.181
20
20.177
0
VERTEX
8
CONTOURS_MINEURES
10
5.181
20
18.000
0
VERTEX
8
CONTOURS_MINEURES
10
6.003
20
16.145
0
VERTEX
8
CONTOURS_MINEURES
10
6.727
20
15.005
0
VERTEX
8
CONTOURS_MINEURES
10
7.528
20
13.529
0
VERTEX
8
CONTOURS_MINEURES
10
8.515
20
11.998
0
VERTEX
8
CONTOURS_MINEURES
10
8.515
20
11.514
0
VERTEX
8
CONTOURS_MINEURES
10
8.515
20
9.002
0
VERTEX
8
CONTOURS_MINEURES
10
8.707
20
8.709
0
VERTEX
8
CONTOURS_MINEURES
10
8.999
20
8.182
0
VERTEX
8
CONTOURS_MINEURES
10
9.816
20
8.182
0
VERTEX
8
CONTOURS_MINEURES
10
11.996
20
8.182
0
VERTEX
8
CONTOURS_MINEURES
10
13.262
20
5.996
0
VERTEX
8
CONTOURS_MINEURES
10
13.262
20
4.261
0
VERTEX
8
CONTOURS_MINEURES
10
13.262
20
3.000
0
VERTEX
8
CONTOURS_MINEURES
10
13.366
20
1.635
0
VERTEX
8
CONTOURS_MINEURES
10
13.589
20
0.004
0
SEQEND
0
POLYLINE
8
CONTOURS_MINEURES
66
1
70
0
0
VERTEX
8
CONTOURS_MINEURES
10
-0.000
20
64.060
0
VERTEX
8
CONTOURS_MINEURES
10
1.058
20
64.060
0
VERTEX
8
CONTOURS_MINEURES
10
2.996
20
64.060
0
VERTEX
8
CONTOURS_MINEURES
10
3.338
20
63.001
0
VERTEX
8
CONTOURS_MINEURES
10
3.338
20
60.337
0
VERTEX
8
CONTOURS_MINEURES
10
3.338
20
59.994
0
VERTEX
8
CONTOURS_MINEURES
10
3.446
20
59.546
0
VERTEX
8
CONTOURS_MINEURES
10
4.011
20
56.999
0
VERTEX
8
CONTOURS_MINEURES
10
4.182
20
55.185
0
VERTEX
8
CONTOURS_MINEURES
10
4.285
20
54.003
0
VERTEX
8
CONTOURS_MINEURES
10
4.285
20
52.285
0
VERTEX
8
CONTOURS_MINEURES
10
4.285
20
50.997
0
VERTEX
8
CONTOURS_MINEURES
10
4.180
20
49.817
0
VERTEX
8
CONTOURS_MINEURES
10
3.842
20
48.001
0
VERTEX
8
CONTOURS_MINEURES
10
3.849
20
47.151
0
VERTEX
8
CONTOURS_MINEURES
10
3.872
20
45.005
0
VERTEX
8
CONTOURS_MINEURES
10
3.872
20
42.875
0
VERTEX
8
CONTOURS_MINEURES
10
3.872
20
41.999
0
VERTEX
8
CONTOURS_MINEURES
10
4.146
20
40.853
0
VERTEX
8
CONTOURS_MINEURES
10
4.354
20
39.003
0
VERTEX
8
CONTOURS_MINEURES
10
4.354
20
37.354
0
VERTEX
8
CONTOURS_MINEURES
10
4.354
20
35.996
0
VERTEX
8
CONTOURS_MINEURES
10
5.092
20
33.908
0
VERTEX
8
CONTOURS_MINEURES
10
5.352
20
33.001
0
VERTEX
8
CONTOURS_MINEURES
10
6.003
20
30.343
0
VERTEX
8
CONTOURS_MINEURES
10
6.078
20
30.005
0
VERTEX
8
CONTOURS_MINEURES
10
6.078
20
29.929
0
VERTEX
8
CONTOURS_MINEURES
10
6.078
20
26.998
0
VERTEX
8
CONTOURS_MINEURES
10
6.338
20
24.337
0
VERTEX
8
CONTOURS_MINEURES
10
6.416
20
24.003
0
VERTEX
8
CONTOURS_MINEURES
10
7.019
20
22.983
0
VERTEX
8
CONTOURS_MINEURES
10
7.894
20
20.996
0
VERTEX
8
CONTOURS_MINEURES
10
7.894
20
19.891
0
VERTEX
8
CONTOURS_MINEURES
10
7.894
20
18.000
0
VERTEX
8
CONTOURS_MINEURES
10
8.999
20
16.386
0
VERTEX
8
CONTOURS_MINEURES
10
10.381
20
16.386
0
VERTEX
8
CONTOURS_MINEURES
10
11.996
20
16.386
0
VERTEX
8
CONTOURS_MINEURES
10
12.616
20
15.623
0
VERTEX
8
CONTOURS_MINEURES
10
13.152
20
15.005
0
VERTEX
8
CONTOURS_MINEURES
10
13.874
20
13.876
0
VERTEX
8
CONTOURS_MINEURES
10
15.003
20
12.332
0
VERTEX
8
CONTOURS_MINEURES
10
17.666
20
12.332
0
VERTEX
8
CONTOURS_MINEURES
10
17.999
20
12.332
0
VERTEX
8
CONTOURS_MINEURES
10
18.152
20
12.152
0
VERTEX
8
CONTOURS_MINEURES
10
18.242
20
11.998
0
VERTEX
8
CONTOURS_MINEURES
10
18.242
20
11.755
0
VERTEX
8
CONTOURS_MINEURES
10
18.242
20
9.002
0
VERTEX
8
CONTOURS_MINEURES
10
19.219
20
7.220
0
VERTEX
8
CONTOURS_MINEURES
10
19.575
20
5.996
0
VERTEX
8
CONTOURS_MINEURES
10
19.575
20
4.576
0
VERTEX
8
CONTOURS_MINEURES
10
19.575
20
3.000
0
VERTEX
8
CONTOURS_MINEURES
10
19.769
20
1.231
0
VERTEX
8
CONTOURS_MINEURES
10
19.855
20
0.004
0
SEQEND
0
POLYLINE
8
CONTOURS_MINEURES
66
1
70
0
0
VERTEX
8
CONTOURS_MINEURES
10
-0.000
20
68.001
0
VERTEX
8
CONTOURS_MINEURES
10
0.998
20
68.001
0
VERTEX
8
CONTOURS_MINEURES
10
2.996
20
68.001
0
VERTEX
8
CONTOURS_MINEURES
10
3.877
20
65.997
0
VERTEX
8
CONTOURS_MINEURES
10
4.220
20
64.777
0
VERTEX
8
CONTOURS_MINEURES
10
4.794
20
63.001
0
VERTEX
8
CONTOURS_MINEURES
10
4.794
20
61.793
0
VERTEX
8
CONTOURS_MINEURES
10
4.794
20
59.994
0
VERTEX
8
CONTOURS_MINEURES
10
5.361
20
57.638
0
VERTEX
8
CONTOURS_MINEURES
10
5.503
20
56.999
0
VERTEX
8
CONTOURS_MINEURES
10
5.546
20
56.544
0
VERTEX
8
CONTOURS_MINEURES
10
5.766
20
54.003
0
VERTEX
8
CONTOURS_MINEURES
10
5.766
20
53.766
0
VERTEX
8
CONTOURS_MINEURES
10
5.766
20
50.997
0
VERTEX
8
CONTOURS_MINEURES
10
5.540
20
48.462
0
VERTEX
8
CONTOURS_MINEURES
10
5.455
20
48.001
0
VERTEX
8
CONTOURS_MINEURES
10
5.475
20
45.532
0
VERTEX
8
CONTOURS_MINEURES
10
5.480
20
45.005
0
VERTEX
8
CONTOURS_MINEURES
10
5.480
20
44.483
0
VERTEX
8
CONTOURS_MINEURES
10
5.480
20
41.999
0
VERTEX
8
CONTOURS_MINEURES
10
6.003
20
39.811
0
VERTEX
8
CONTOURS_MINEURES
10
6.178
20
39.178
0
VERTEX
8
CONTOURS_MINEURES
10
6.237
20
39.003
0
VERTEX
8
CONTOURS_MINEURES
10
6.237
20
38.768
0
VERTEX
8
CONTOURS_MINEURES
10
6.237
20
35.996
0
VERTEX
8
CONTOURS_MINEURES
10
6.980
20
33.978
0
VERTEX
8
CONTOURS_MINEURES
10
7.414
20
33.001
0
VERTEX
8
CONTOURS_MINEURES
10
7.665
20
31.339
0
VERTEX
8
CONTOURS_MINEURES
10
7.963
20
30.005
0
VERTEX
8
CONTOURS_MINEURES
10
7.963
20
28.038
0
VERTEX
8
CONTOURS_MINEURES
10
7.963
20
26.998
0
VERTEX
8
CONTOURS_MINEURES
10
8.055
20
26.054
0
VERTEX
8
CONTOURS_MINEURES
10
8.533
20
24.003
0
VERTEX
8
CONTOURS_MINEURES
10
8.999
20
23.215
0
VERTEX
8
CONTOURS_MINEURES
10
9.784
20
23.215
0
VERTEX
8
CONTOURS_MINEURES
10
11.996
20
23.215
0
VERTEX
8
CONTOURS_MINEURES
10
12.987
20
21.988
0
VERTEX
8
CONTOURS_MINEURES
10
14.138
20
20.996
0
VERTEX
8
CONTOURS_MINEURES
10
14.138
20
18.861
0
VERTEX
8
CONTOURS_MINEURES
10
14.138
20
18.000
0
VERTEX
8
CONTOURS_MINEURES
10
14.525
20
17.525
0
VERTEX
8
CONTOURS_MINEURES
10
15.003
20
16.974
0
VERTEX
8
CONTOURS_MINEURES
10
16.973
20
16.974
0
VERTEX
8
CONTOURS_MINEURES
10
17.999
20
16.974
0
VERTEX
8
CONTOURS_MINEURES
10
20.098
20
15.005
0
VERTEX
8
CONTOURS_MINEURES
10
20.512
20
14.519
0
VERTEX
8
CONTOURS_MINEURES
10
20.995
20
13.693
0
VERTEX
8
CONTOURS_MINEURES
10
22.167
20
11.998
0
VERTEX
8
CONTOURS_MINEURES
10
22.167
20
10.170
0
VERTEX
8
CONTOURS_MINEURES
10
22.167
20
9.002
0
VERTEX
8
CONTOURS_MINEURES
10
22.381
20
7.617
0
VERTEX
8
CONTOURS_MINEURES
10
22.912
20
5.996
0
VERTEX
8
CONTOURS_MINEURES
10
22.912
20
4.086
0
VERTEX
8
CONTOURS_MINEURES
10
22.912
20
3.000
0
VERTEX
8
CONTOURS_MINEURES
10
23.031
20
2.033
0
VERTEX
8
CONTOURS_MINEURES
10
23.000
20
0.004
0
SEQEND
0
POLYLINE
8
CONTOURS_MINEURES
66
1
70
0
0
VERTEX
8
CONTOURS_MINEURES
10
3.246
20
86.999
0
VERTEX
8
CONTOURS_MINEURES
10
3.246
20
84.253
0
VERTEX
8
CONTOURS_MINEURES
10
3.246
20
84.004
0
VERTEX
8
CONTOURS_MINEURES
10
3.217
20
83.783
0
VERTEX
8
CONTOURS_MINEURES
10
3.261
20
80.997
0
VERTEX
8
CONTOURS_MINEURES
10
3.475
20
78.479
0
VERTEX
8
CONTOURS_MINEURES
10
3.491
20
78.001
0
VERTEX
8
CONTOURS_MINEURES
10
3.491
20
75.490
0
VERTEX
8
CONTOURS_MINEURES
10
3.491
20
74.995
0
VERTEX
8
CONTOURS_MINEURES
10
3.728
20
74.266
0
VERTEX
8
CONTOURS_MINEURES
10
4.365
20
71.999
0
VERTEX
8
CONTOURS_MINEURES
10
4.365
20
70.368
0
VERTEX
8
CONTOURS_MINEURES
10
4.365
20
69.003
0
VERTEX
8
CONTOURS_MINEURES
10
4.968
20
67.031
0
VERTEX
8
CONTOURS_MINEURES
10
5.423
20
65.997
0
VERTEX
8
CONTOURS_MINEURES
10
6.003
20
63.936
0
VERTEX
8
CONTOURS_MINEURES
10
6.242
20
63.240
0
VERTEX
8
CONTOURS_MINEURES
10
6.272
20
63.001
0
VERTEX
8
CONTOURS_MINEURES
10
6.272
20
62.731
0
VERTEX
8
CONTOURS_MINEURES
10
6.272
20
59.994
0
VERTEX
8
CONTOURS_MINEURES
10
6.837
20
57.832
0
VERTEX
8
CONTOURS_MINEURES
10
6.928
20
56.999
0
VERTEX
8
CONTOURS_MINEURES
10
6.959
20
56.043
0
VERTEX
8
CONTOURS_MINEURES
10
7.117
20
54.003
0
VERTEX
8
CONTOURS_MINEURES
10
7.117
20
52.114
0
VERTEX
8
CONTOURS_MINEURES
10
7.117
20
50.997
0
VERTEX
8
CONTOURS_MINEURES
10
6.954
20
48.951
0
VERTEX
8
CONTOURS_MINEURES
10
7.087
20
48.001
0
VERTEX
8
CONTOURS_MINEURES
10
7.243
20
46.761
0
VERTEX
8
CONTOURS_MINEURES
10
7.259
20
45.005
0
VERTEX
8
CONTOURS_MINEURES
10
7.259
20
43.259
0
VERTEX
8
CONTOURS_MINEURES
10
7.259
20
41.999
0
VERTEX
8
CONTOURS_MINEURES
10
7.636
20
40.636
0
VERTEX
8
CONTOURS_MINEURES
10
8.189
20
39.003
0
VERTEX
8
CONTOURS_MINEURES
10
8.189
20
36.809
0
VERTEX
8
CONTOURS_MINEURES
10
8.189
20
35.996
0
VERTEX
8
CONTOURS_MINEURES
10
8.407
20
35.404
0
VERTEX
8
CONTOURS_MINEURES
10
8.999
20
34.069
0
VERTEX
8
CONTOURS_MINEURES
10
10.927
20
34.069
0
VERTEX
8
CONTOURS_MINEURES
10
11.996
20
34.069
0
VERTEX
8
CONTOURS_MINEURES
10
12.337
20
33.341
0
VERTEX
8
CONTOURS_MINEURES
10
12.499
20
33.001
0
VERTEX
8
CONTOURS_MINEURES
10
12.698
20
32.301
0
VERTEX
8
CONTOURS_MINEURES
10
13.119
20
30.005
0
VERTEX
8
CONTOURS_MINEURES
10
13.119
20
28.882
0
VERTEX
8
CONTOURS_MINEURES
10
13.119
20
26.998
0
VERTEX
8
CONTOURS_MINEURES
10
13.524
20
25.525
0
VERTEX
8
CONTOURS_MINEURES
10
14.251
20
24.003
0
VERTEX
8
CONTOURS_MINEURES
10
14.587
20
23.587
0
VERTEX
8
CONTOURS_MINEURES
10
15.003
20
23.229
0
VERTEX
8
CONTOURS_MINEURES
10
15.774
20
23.229
0
VERTEX
8
CONTOURS_MINEURES
10
17.999
20
23.229
0
VERTEX
8
CONTOURS_MINEURES
10
19.922
20
22.072
0
VERTEX
8
CONTOURS_MINEURES
10
20.995
20
21.610
0
VERTEX
8
CONTOURS_MINEURES
10
21.459
20
21.460
0
VERTEX
8
CONTOURS_MINEURES
10
22.473
20
20.996
0
VERTEX
8
CONTOURS_MINEURES
10
22.473
20
19.524
0
VERTEX
8
CONTOURS_MINEURES
10
22.473
20
18.000
0
VERTEX
8
CONTOURS_MINEURES
10
23.525
20
17.525
0
VERTEX
8
CONTOURS_MINEURES
10
24.002
20
16.918
0
VERTEX
8
CONTOURS_MINEURES
10
25.085
20
16.918
0
VERTEX
8
CONTOURS_MINEURES
10
26.999
20
16.918
0
VERTEX
8
CONTOURS_MINEURES
10
28.141
20
16.147
0
VERTEX
8
CONTOURS_MINEURES
10
29.995
20
15.615
0
VERTEX
8
CONTOURS_MINEURES
10
30.792
20
15.005
0
VERTEX
8
CONTOURS_MINEURES
10
30.508
20
14.492
0
VERTEX
8
CONTOURS_MINEURES
10
30.687
20
11.998
0
VERTEX
8
CONTOURS_MINEURES
10
30.687
20
9.692
0
VERTEX
8
CONTOURS_MINEURES
10
30.687
20
9.002
0
VERTEX
8
CONTOURS_MINEURES
10
30.509
20
8.488
0
VERTEX
8
CONTOURS_MINEURES
10
30.260
20
5.996
0
VERTEX
8
CONTOURS_MINEURES
10
30.260
20
3.264
0
VERTEX
8
CONTOURS_MINEURES
10
30.260
20
3.000
0
VERTEX
8
CONTOURS_MINEURES
10
30.231
20
2.765
0
VERTEX
8
CONTOURS_MINEURES
10
29.995
20
2.225
0
VERTEX
8
CONTOURS_MINEURES
10
29.283
20
0.716
0
VERTEX
8
CONTOURS_MINEURES
10
29.271
20
0.004
0
SEQEND
0
POLYLINE
8
CONTOURS_MINEURES
66
1
70
0
0
VERTEX
8
CONTOURS_MINEURES
10
5.417
20
86.999
0
VERTEX
8
CONTOURS_MINEURES
10
5.417
20
86.415
0
VERTEX
8
CONTOURS_MINEURES
10
5.417
20
84.004
0
VERTEX
8
CONTOURS_MINEURES
10
5.138
20
81.862
0
VERTEX
8
CONTOURS_MINEURES
10
5.152
20
80.997
0
VERTEX
8
CONTOURS_MINEURES
10
5.219
20
80.216
0
VERTEX
8
CONTOURS_MINEURES
10
5.292
20
78.001
0
VERTEX
8
CONTOURS_MINEURES
10
5.292
20
77.290
0
VERTEX
8
CONTOURS_MINEURES
10
5.292
20
74.995
0
VERTEX
8
CONTOURS_MINEURES
10
6.003
20
72.804
0
VERTEX
8
CONTOURS_MINEURES
10
6.272
20
72.268
0
VERTEX
8
CONTOURS_MINEURES
10
6.352
20
71.999
0
VERTEX
8
CONTOURS_MINEURES
10
6.352
20
71.650
0
VERTEX
8
CONTOURS_MINEURES
10
6.352
20
69.003
0
VERTEX
8
CONTOURS_MINEURES
10
6.394
20
68.611
0
VERTEX
8
CONTOURS_MINEURES
10
7.181
20
65.997
0
VERTEX
8
CONTOURS_MINEURES
10
7.645
20
64.643
0
VERTEX
8
CONTOURS_MINEURES
10
7.853
20
63.001
0
VERTEX
8
CONTOURS_MINEURES
10
7.853
20
61.145
0
VERTEX
8
CONTOURS_MINEURES
10
7.853
20
59.994
0
VERTEX
8
CONTOURS_MINEURES
10
8.090
20
59.086
0
VERTEX
8
CONTOURS_MINEURES
10
8.318
20
56.999
0
VERTEX
8
CONTOURS_MINEURES
10
8.396
20
54.607
0
VERTEX
8
CONTOURS_MINEURES
10
8.442
20
54.003
0
VERTEX
8
CONTOURS_MINEURES
10
8.442
20
53.444
0
VERTEX
8
CONTOURS_MINEURES
10
8.442
20
50.997
0
VERTEX
8
CONTOURS_MINEURES
10
8.394
20
50.392
0
VERTEX
8
CONTOURS_MINEURES
10
8.728
20
48.001
0
VERTEX
8
CONTOURS_MINEURES
10
8.999
20
45.852
0
VERTEX
8
CONTOURS_MINEURES
10
9.846
20
45.852
0
VERTEX
8
CONTOURS_MINEURES
10
11.996
20
45.852
0
VERTEX
8
CONTOURS_MINEURES
10
12.147
20
45.005
0
VERTEX
8
CONTOURS_MINEURES
10
12.147
20
42.149
0
VERTEX
8
CONTOURS_MINEURES
10
12.147
20
41.999
0
VERTEX
8
CONTOURS_MINEURES
10
12.965
20
39.968
0
VERTEX
8
CONTOURS_MINEURES
10
13.270
20
39.003
0
VERTEX
8
CONTOURS_MINEURES
10
13.270
20
37.728
0
VERTEX
8
CONTOURS_MINEURES
10
13.270
20
35.996
0
VERTEX
8
CONTOURS_MINEURES
10
13.822
20
34.820
0
VERTEX
8
CONTOURS_MINEURES
10
14.685
20
33.001
0
VERTEX
8
CONTOURS_MINEURES
10
15.003
20
31.887
0
VERTEX
8
CONTOURS_MINEURES
10
16.885
20
31.887
0
VERTEX
8
CONTOURS_MINEURES
10
17.999
20
31.887
0
VERTEX
8
CONTOURS_MINEURES
10
19.686
20
30.005
0
VERTEX
8
CONTOURS_MINEURES
10
19.686
20
28.692
0
VERTEX
8
CONTOURS_MINEURES
10
19.686
20
26.998
0
VERTEX
8
CONTOURS_MINEURES
10
20.995
20
26.088
0
VERTEX
8
CONTOURS_MINEURES
10
22.409
20
25.411
0
VERTEX
8
CONTOURS_MINEURES
10
24.002
20
24.886
0
VERTEX
8
CONTOURS_MINEURES
10
26.115
20
24.886
0
VERTEX
8
CONTOURS_MINEURES
10
26.999
20
24.886
0
VERTEX
8
CONTOURS_MINEURES
10
27.428
20
24.432
0
VERTEX
8
CONTOURS_MINEURES
10
27.936
20
24.003
0
VERTEX
8
CONTOURS_MINEURES
10
28.958
20
22.962
0
VERTEX
8
CONTOURS_MINEURES
10
29.995
20
22.676
0
VERTEX
8
CONTOURS_MINEURES
10
30.947
20
21.948
0
VERTEX
8
CONTOURS_MINEURES
10
32.950
20
20.996
0
VERTEX
8
CONTOURS_MINEURES
10
32.950
20
20.944
0
VERTEX
8
CONTOURS_MINEURES
10
32.950
20
18.000
0
VERTEX
8
CONTOURS_MINEURES
10
33.002
20
17.958
0
VERTEX
8
CONTOURS_MINEURES
10
33.044
20
17.958
0
VERTEX
8
CONTOURS_MINEURES
10
35.998
20
17.958
0
VERTEX
8
CONTOURS_MINEURES
10
37.460
20
16.461
0
VERTEX
8
CONTOURS_MINEURES
10
39.005
20
15.178
0
VERTEX
8
CONTOURS_MINEURES
10
39.118
20
15.005
0
VERTEX
8
CONTOURS_MINEURES
10
39.005
20
14.416
0
VERTEX
8
CONTOURS_MINEURES
10
38.149
20
11.998
0
VERTEX
8
CONTOURS_MINEURES
10
38.149
20
9.855
0
VERTEX
8
CONTOURS_MINEURES
10
38.149
20
9.002
0
VERTEX
8
CONTOURS_MINEURES
10
37.470
20
7.531
0
VERTEX
8
CONTOURS_MINEURES
10
36.951
20
5.996
0
VERTEX
8
CONTOURS_MINEURES
10
36.951
20
3.949
0
VERTEX
8
CONTOURS_MINEURES
10
36.951
20
3.000
0
VERTEX
8
CONTOURS_MINEURES
10
36.938
20
2.064
0
VERTEX
8
CONTOURS_MINEURES
10
36.585
20
0.004
0
SEQEND
0
POLYLINE
8
CONTOURS_MINEURES
66
1
70
0
0
VERTEX
8
CONTOURS_MINEURES
10
8.169
20
86.999
0
VERTEX
8
CONTOURS_MINEURES
10
8.169
20
84.834
0
VERTEX
8
CONTOURS_MINEURES
10
8.169
20
84.004
0
VERTEX
8
CONTOURS_MINEURES
10
7.988
20
82.989
0
VERTEX
8
CONTOURS_MINEURES
10
7.494
20
80.997
0
VERTEX
8
CONTOURS_MINEURES
10
7.619
20
79.382
0
VERTEX
8
CONTOURS_MINEURES
10
7.689
20
78.001
0
VERTEX
8
CONTOURS_MINEURES
10
7.689
20
76.309
0
VERTEX
8
CONTOURS_MINEURES
10
7.689
20
74.995
0
VERTEX
8
CONTOURS_MINEURES
10
8.127
20
74.123
0
VERTEX
8
CONTOURS_MINEURES
10
8.759
20
71.999
0
VERTEX
8
CONTOURS_MINEURES
10
8.759
20
69.244
0
VERTEX
8
CONTOURS_MINEURES
10
8.759
20
69.003
0
VERTEX
8
CONTOURS_MINEURES
10
8.999
20
66.776
0
VERTEX
8
CONTOURS_MINEURES
10
9.776
20
66.776
0
VERTEX
8
CONTOURS_MINEURES
10
11.996
20
66.776
0
VERTEX
8
CONTOURS_MINEURES
10
12.117
20
66.118
0
VERTEX
8
CONTOURS_MINEURES
10
12.111
20
65.997
0
VERTEX
8
CONTOURS_MINEURES
10
12.715
20
63.718
0
VERTEX
8
CONTOURS_MINEURES
10
12.654
20
63.001
0
VERTEX
8
CONTOURS_MINEURES
10
12.654
20
62.342
0
VERTEX
8
CONTOURS_MINEURES
10
12.654
20
59.994
0
VERTEX
8
CONTOURS_MINEURES
10
13.025
20
58.024
0
VERTEX
8
CONTOURS_MINEURES
10
12.963
20
56.999
0
VERTEX
8
CONTOURS_MINEURES
10
12.934
20
56.064
0
VERTEX
8
CONTOURS_MINEURES
10
13.018
20
54.003
0
VERTEX
8
CONTOURS_MINEURES
10
13.018
20
52.019
0
VERTEX
8
CONTOURS_MINEURES
10
13.018
20
50.997
0
VERTEX
8
CONTOURS_MINEURES
10
13.277
20
49.277
0
VERTEX
8
CONTOURS_MINEURES
10
13.675
20
48.001
0
VERTEX
8
CONTOURS_MINEURES
10
14.353
20
45.652
0
VERTEX
8
CONTOURS_MINEURES
10
14.469
20
45.005
0
VERTEX
8
CONTOURS_MINEURES
10
14.469
20
44.471
0
VERTEX
8
CONTOURS_MINEURES
10
14.469
20
41.999
0
VERTEX
8
CONTOURS_MINEURES
10
14.622
20
41.619
0
VERTEX
8
CONTOURS_MINEURES
10
15.003
20
40.415
0
VERTEX
8
CONTOURS_MINEURES
10
16.587
20
40.415
0
VERTEX
8
CONTOURS_MINEURES
10
17.999
20
40.415
0
VERTEX
8
CONTOURS_MINEURES
10
19.395
20
39.003
0
VERTEX
8
CONTOURS_MINEURES
10
19.395
20
37.602
0
VERTEX
8
CONTOURS_MINEURES
10
19.395
20
35.996
0
VERTEX
8
CONTOURS_MINEURES
10
20.349
20
35.350
0
VERTEX
8
CONTOURS_MINEURES
10
20.995
20
34.693
0
VERTEX
8
CONTOURS_MINEURES
10
23.616
20
33.001
0
VERTEX
8
CONTOURS_MINEURES
10
23.844
20
32.843
0
VERTEX
8
CONTOURS_MINEURES
10
24.002
20
32.758
0
VERTEX
8
CONTOURS_MINEURES
10
24.245
20
32.758
0
VERTEX
8
CONTOURS_MINEURES
10
26.999
20
32.758
0
VERTEX
8
CONTOURS_MINEURES
10
28.090
20
31.096
0
VERTEX
8
CONTOURS_MINEURES
10
29.078
20
30.005
0
VERTEX
8
CONTOURS_MINEURES
10
29.078
20
27.919
0
VERTEX
8
CONTOURS_MINEURES
10
29.078
20
26.998
0
VERTEX
8
CONTOURS_MINEURES
10
29.523
20
26.527
0
VERTEX
8
CONTOURS_MINEURES
10
29.995
20
26.129
0
VERTEX
8
CONTOURS_MINEURES
10
32.115
20
24.003
0
VERTEX
8
CONTOURS_MINEURES
10
32.618
20
23.618
0
VERTEX
8
CONTOURS_MINEURES
10
33.002
20
23.436
0
VERTEX
8
CONTOURS_MINEURES
10
33.567
20
23.436
0
VERTEX
8
CONTOURS_MINEURES
10
35.998
20
23.436
0
VERTEX
8
CONTOURS_MINEURES
10
37.395
20
22.606
0
VERTEX
8
CONTOURS_MINEURES
10
39.005
20
21.698
0
VERTEX
8
CONTOURS_MINEURES
10
39.420
20
21.412
0
VERTEX
8
CONTOURS_MINEURES
10
39.643
20
20.996
0
VERTEX
8
CONTOURS_MINEURES
10
39.643
20
20.358
0
VERTEX
8
CONTOURS_MINEURES
10
39.643
20
18.000
0
VERTEX
8
CONTOURS_MINEURES
10
40.896
20
16.110
0
VERTEX
8
CONTOURS_MINEURES
10
41.614
20
15.005
0
VERTEX
8
CONTOURS_MINEURES
10
41.523
20
14.524
0
VERTEX
8
CONTOURS_MINEURES
10
42.001
20
12.552
0
VERTEX
8
CONTOURS_MINEURES
10
44.446
20
12.552
0
VERTEX
8
CONTOURS_MINEURES
10
44.998
20
12.552
0
VERTEX
8
CONTOURS_MINEURES
10
45.118
20
11.998
0
VERTEX
8
CONTOURS_MINEURES
10
45.118
20
9.122
0
VERTEX
8
CONTOURS_MINEURES
10
45.118
20
9.002
0
VERTEX
8
CONTOURS_MINEURES
10
45.103
20
8.897
0
VERTEX
8
CONTOURS_MINEURES
10
44.998
20
8.573
0
VERTEX
8
CONTOURS_MINEURES
10
44.570
20
8.573
0
VERTEX
8
CONTOURS_MINEURES
10
42.001
20
8.573
0
VERTEX
8
CONTOURS_MINEURES
10
41.388
20
6.612
0
VERTEX
8
CONTOURS_MINEURES
10
41.134
20
5.996
0
VERTEX
8
CONTOURS_MINEURES
10
41.134
20
5.128
0
VERTEX
8
CONTOURS_MINEURES
10
41.134
20
3.000
0
VERTEX
8
CONTOURS_MINEURES
10
41.121
20
2.120
0
VERTEX
8
CONTOURS_MINEURES
10
41.092
20
0.004
0
SEQEND
0
POLYLINE
8
CONTOURS_MINEURES
66
1
70
0
0
VERTEX
8
CONTOURS_MINEURES
10
97.586
20
86.999
0
VERTEX
8
CONTOURS_MINEURES
10
97.586
20
85.590
0
VERTEX
8
CONTOURS_MINEURES
10
97.586
20
84.004
0
VERTEX
8
CONTOURS_MINEURES
10
98.311
20
81.684
0
VERTEX
8
CONTOURS_MINEURES
10
97.894
20
80.997
0
VERTEX
8
CONTOURS_MINEURES
10
96.844
20
80.152
0
VERTEX
8
CONTOURS_MINEURES
10
95.999
20
80.165
0
VERTEX
8
CONTOURS_MINEURES
10
95.167
20
80.165
0
VERTEX
8
CONTOURS_MINEURES
10
93.003
20
80.165
0
VERTEX
8
CONTOURS_MINEURES
10
92.251
20
80.248
0
VERTEX
8
CONTOURS_MINEURES
10
91.262
20
80.997
0
VERTEX
8
CONTOURS_MINEURES
10
89.996
20
81.651
0
VERTEX
8
CONTOURS_MINEURES
10
88.228
20
82.229
0
VERTEX
8
CONTOURS_MINEURES
10
87.000
20
83.442
0
VERTEX
8
CONTOURS_MINEURES
10
84.564
20
83.442
0
VERTEX
8
CONTOURS_MINEURES
10
84.003
20
83.442
0
VERTEX
8
CONTOURS_MINEURES
10
83.305
20
83.305
0
VERTEX
8
CONTOURS_MINEURES
10
80.996
20
83.750
0
VERTEX
8
CONTOURS_MINEURES
10
80.744
20
83.750
0
VERTEX
8
CONTOURS_MINEURES
10
78.000
20
83.750
0
VERTEX
8
CONTOURS_MINEURES
10
75.498
20
83.508
0
VERTEX
8
CONTOURS_MINEURES
10
75.004
20
83.651
0
VERTEX
8
CONTOURS_MINEURES
10
74.136
20
84.004
0
VERTEX
8
CONTOURS_MINEURES
10
74.136
20
86.135
0
VERTEX
8
CONTOURS_MINEURES
10
74.136
20
86.999
0
SEQEND
0
POLYLINE
8
CONTOURS_MINEURES
66
1
70
0
0
VERTEX
8
CONTOURS_MINEURES
10
21.210
20
86.999
0
VERTEX
8
CONTOURS_MINEURES
10
21.210
20
86.785
0
VERTEX
8
CONTOURS_MINEURES
10
21.210
20
84.004
0
VERTEX
8
CONTOURS_MINEURES
10
20.995
20
82.500
0
VERTEX
8
CONTOURS_MINEURES
10
20.770
20
80.997
0
VERTEX
8
CONTOURS_MINEURES
10
20.759
20
80.761
0
VERTEX
8
CONTOURS_MINEURES
10
20.995
20
78.750
0
VERTEX
8
CONTOURS_MINEURES
10
21.058
20
78.064
0
VERTEX
8
CONTOURS_MINEURES
10
21.048
20
78.001
0
VERTEX
8
CONTOURS_MINEURES
10
21.048
20
75.048
0
VERTEX
8
CONTOURS_MINEURES
10
21.048
20
74.995
0
VERTEX
8
CONTOURS_MINEURES
10
21.049
20
74.941
0
VERTEX
8
CONTOURS_MINEURES
10
20.995
20
74.567
0
VERTEX
8
CONTOURS_MINEURES
10
20.546
20
71.999
0
VERTEX
8
CONTOURS_MINEURES
10
20.546
20
69.453
0
VERTEX
8
CONTOURS_MINEURES
10
20.546
20
69.003
0
VERTEX
8
CONTOURS_MINEURES
10
20.214
20
66.781
0
VERTEX
8
CONTOURS_MINEURES
10
20.023
20
65.997
0
VERTEX
8
CONTOURS_MINEURES
10
18.748
20
63.750
0
VERTEX
8
CONTOURS_MINEURES
10
18.412
20
63.001
0
VERTEX
8
CONTOURS_MINEURES
10
18.412
20
62.586
0
VERTEX
8
CONTOURS_MINEURES
10
18.412
20
59.994
0
VERTEX
8
CONTOURS_MINEURES
10
17.999
20
59.364
0
VERTEX
8
CONTOURS_MINEURES
10
15.633
20
59.364
0
VERTEX
8
CONTOURS_MINEURES
10
15.003
20
59.364
0
VERTEX
8
CONTOURS_MINEURES
10
14.860
20
56.999
0
VERTEX
8
CONTOURS_MINEURES
10
14.773
20
54.232
0
VERTEX
8
CONTOURS_MINEURES
10
14.782
20
54.003
0
VERTEX
8
CONTOURS_MINEURES
10
14.782
20
53.783
0
VERTEX
8
CONTOURS_MINEURES
10
14.782
20
50.997
0
VERTEX
8
CONTOURS_MINEURES
10
14.811
20
50.805
0
VERTEX
8
CONTOURS_MINEURES
10
15.003
20
50.191
0
VERTEX
8
CONTOURS_MINEURES
10
15.808
20
50.191
0
VERTEX
8
CONTOURS_MINEURES
10
17.999
20
50.191
0
VERTEX
8
CONTOURS_MINEURES
10
19.112
20
49.114
0
VERTEX
8
CONTOURS_MINEURES
10
19.366
20
48.001
0
VERTEX
8
CONTOURS_MINEURES
10
20.995
20
45.622
0
VERTEX
8
CONTOURS_MINEURES
10
21.321
20
45.330
0
VERTEX
8
CONTOURS_MINEURES
10
21.608
20
45.005
0
VERTEX
8
CONTOURS_MINEURES
10
21.608
20
42.612
0
VERTEX
8
CONTOURS_MINEURES
10
21.608
20
41.999
0
VERTEX
8
CONTOURS_MINEURES
10
22.953
20
40.953
0
VERTEX
8
CONTOURS_MINEURES
10
24.002
20
40.219
0
VERTEX
8
CONTOURS_MINEURES
10
25.218
20
40.219
0
VERTEX
8
CONTOURS_MINEURES
10
26.999
20
40.219
0
VERTEX
8
CONTOURS_MINEURES
10
28.289
20
39.003
0
VERTEX
8
CONTOURS_MINEURES
10
28.289
20
37.708
0
VERTEX
8
CONTOURS_MINEURES
10
28.289
20
35.996
0
VERTEX
8
CONTOURS_MINEURES
10
29.158
20
35.160
0
VERTEX
8
CONTOURS_MINEURES
10
29.995
20
33.687
0
VERTEX
8
CONTOURS_MINEURES
10
30.782
20
33.001
0
VERTEX
8
CONTOURS_MINEURES
10
33.002
20
30.053
0
VERTEX
8
CONTOURS_MINEURES
10
35.951
20
30.053
0
VERTEX
8
CONTOURS_MINEURES
10
35.998
20
30.053
0
VERTEX
8
CONTOURS_MINEURES
10
36.030
20
30.005
0
VERTEX
8
CONTOURS_MINEURES
10
36.030
20
29.973
0
VERTEX
8
CONTOURS_MINEURES
10
36.030
20
26.998
0
VERTEX
8
CONTOURS_MINEURES
10
37.881
20
25.878
0
VERTEX
8
CONTOURS_MINEURES
10
39.005
20
24.663
0
VERTEX
8
CONTOURS_MINEURES
10
39.505
20
24.003
0
VERTEX
8
CONTOURS_MINEURES
10
40.984
20
22.982
0
VERTEX
8
CONTOURS_MINEURES
10
42.001
20
21.086
0
VERTEX
8
CONTOURS_MINEURES
10
44.908
20
21.086
0
VERTEX
8
CONTOURS_MINEURES
10
44.998
20
21.086
0
VERTEX
8
CONTOURS_MINEURES
10
45.046
20
21.044
0
VERTEX
8
CONTOURS_MINEURES
10
45.075
20
20.996
0
VERTEX
8
CONTOURS_MINEURES
10
45.075
20
20.919
0
VERTEX
8
CONTOURS_MINEURES
10
45.075
20
18.000
0
VERTEX
8
CONTOURS_MINEURES
10
46.586
20
16.587
0
VERTEX
8
CONTOURS_MINEURES
10
47.902
20
15.005
0
VERTEX
8
CONTOURS_MINEURES
10
48.005
20
14.530
0
VERTEX
8
CONTOURS_MINEURES
10
48.680
20
12.676
0
VERTEX
8
CONTOURS_MINEURES
10
48.945
20
11.998
0
VERTEX
8
CONTOURS_MINEURES
10
48.945
20
11.058
0
VERTEX
8
CONTOURS_MINEURES
10
48.945
20
9.002
0
VERTEX
8
CONTOURS_MINEURES
10
48.700
20
8.305
0
VERTEX
8
CONTOURS_MINEURES
10
48.190
20
5.996
0
VERTEX
8
CONTOURS_MINEURES
10
48.190
20
3.186
0
VERTEX
8
CONTOURS_MINEURES
10
48.190
20
3.000
0
VERTEX
8
CONTOURS_MINEURES
10
48.186
20
2.819
0
VERTEX
8
CONTOURS_MINEURES
10
48.059
20
0.004
0
SEQEND
0
POLYLINE
8
CONTOURS_MINEURES
66
1
70
0
0
VERTEX
8
CONTOURS_MINEURES
10
113.999
20
57.832
0
VERTEX
8
CONTOURS_MINEURES
10
113.165
20
57.832
0
VERTEX
8
CONTOURS_MINEURES
10
111.002
20
57.832
0
VERTEX
8
CONTOURS_MINEURES
10
108.956
20
57.956
0
VERTEX
8
CONTOURS_MINEURES
10
107.995
20
57.877
0
VERTEX
8
CONTOURS_MINEURES
10
106.169
20
58.824
0
VERTEX
8
CONTOURS_MINEURES
10
104.999
20
59.260
0
VERTEX
8
CONTOURS_MINEURES
10
104.265
20
59.260
0
VERTEX
8
CONTOURS_MINEURES
10
102.003
20
59.260
0
VERTEX
8
CONTOURS_MINEURES
10
100.973
20
59.994
0
VERTEX
8
CONTOURS_MINEURES
10
100.973
20
61.024
0
VERTEX
8
CONTOURS_MINEURES
10
100.973
20
63.001
0
VERTEX
8
CONTOURS_MINEURES
10
99.855
20
65.141
0
VERTEX
8
CONTOURS_MINEURES
10
99.250
20
65.997
0
VERTEX
8
CONTOURS_MINEURES
10
99.193
20
66.195
0
VERTEX
8
CONTOURS_MINEURES
10
98.996
20
66.665
0
VERTEX
8
CONTOURS_MINEURES
10
97.233
20
67.765
0
VERTEX
8
CONTOURS_MINEURES
10
95.999
20
68.278
0
VERTEX
8
CONTOURS_MINEURES
10
95.276
20
68.278
0
VERTEX
8
CONTOURS_MINEURES
10
93.003
20
68.278
0
VERTEX
8
CONTOURS_MINEURES
10
90.936
20
68.064
0
VERTEX
8
CONTOURS_MINEURES
10
89.996
20
67.421
0
VERTEX
8
CONTOURS_MINEURES
10
87.272
20
69.003
0
VERTEX
8
CONTOURS_MINEURES
10
87.272
20
71.727
0
VERTEX
8
CONTOURS_MINEURES
10
87.272
20
71.999
0
VERTEX
8
CONTOURS_MINEURES
10
87.083
20
72.082
0
VERTEX
8
CONTOURS_MINEURES
10
87.000
20
72.080
0
VERTEX
8
CONTOURS_MINEURES
10
84.084
20
72.080
0
VERTEX
8
CONTOURS_MINEURES
10
84.003
20
72.080
0
VERTEX
8
CONTOURS_MINEURES
10
83.903
20
72.099
0
VERTEX
8
CONTOURS_MINEURES
10
80.996
20
73.386
0
VERTEX
8
CONTOURS_MINEURES
10
79.609
20
73.386
0
VERTEX
8
CONTOURS_MINEURES
10
78.000
20
73.386
0
VERTEX
8
CONTOURS_MINEURES
10
77.045
20
74.040
0
VERTEX
8
CONTOURS_MINEURES
10
75.931
20
74.995
0
VERTEX
8
CONTOURS_MINEURES
10
75.931
20
77.071
0
VERTEX
8
CONTOURS_MINEURES
10
75.931
20
78.001
0
VERTEX
8
CONTOURS_MINEURES
10
75.288
20
78.286
0
VERTEX
8
CONTOURS_MINEURES
10
75.004
20
78.391
0
VERTEX
8
CONTOURS_MINEURES
10
73.500
20
79.499
0
VERTEX
8
CONTOURS_MINEURES
10
71.997
20
80.337
0
VERTEX
8
CONTOURS_MINEURES
10
71.336
20
80.337
0
VERTEX
8
CONTOURS_MINEURES
10
69.000
20
80.337
0
VERTEX
8
CONTOURS_MINEURES
10
67.783
20
80.997
0
VERTEX
8
CONTOURS_MINEURES
10
66.004
20
81.769
0
VERTEX
8
CONTOURS_MINEURES
10
63.911
20
81.911
0
VERTEX
8
CONTOURS_MINEURES
10
62.997
20
82.947
0
VERTEX
8
CONTOURS_MINEURES
10
61.944
20
82.947
0
VERTEX
8
CONTOURS_MINEURES
10
60.001
20
82.947
0
VERTEX
8
CONTOURS_MINEURES
10
58.533
20
82.470
0
VERTEX
8
CONTOURS_MINEURES
10
57.004
20
81.856
0
VERTEX
8
CONTOURS_MINEURES
10
55.334
20
82.333
0
VERTEX
8
CONTOURS_MINEURES
10
53.997
20
82.580
0
VERTEX
8
CONTOURS_MINEURES
10
52.420
20
82.580
0
VERTEX
8
CONTOURS_MINEURES
10
51.001
20
82.580
0
VERTEX
8
CONTOURS_MINEURES
10
49.686
20
82.684
0
VERTEX
8
CONTOURS_MINEURES
10
48.005
20
82.468
0
VERTEX
8
CONTOURS_MINEURES
10
46.791
20
82.210
0
VERTEX
8
CONTOURS_MINEURES
10
44.998
20
81.917
0
VERTEX
8
CONTOURS_MINEURES
10
42.919
20
81.917
0
VERTEX
8
CONTOURS_MINEURES
10
42.001
20
81.917
0
VERTEX
8
CONTOURS_MINEURES
10
39.172
20
81.164
0
VERTEX
8
CONTOURS_MINEURES
10
39.005
20
81.113
0
VERTEX
8
CONTOURS_MINEURES
10
38.926
20
81.076
0
VERTEX
8
CONTOURS_MINEURES
10
38.817
20
80.997
0
VERTEX
8
CONTOURS_MINEURES
10
38.774
20
80.767
0
VERTEX
8
CONTOURS_MINEURES
10
38.003
20
78.001
0
VERTEX
8
CONTOURS_MINEURES
10
38.003
20
75.997
0
VERTEX
8
CONTOURS_MINEURES
10
38.003
20
74.995
0
VERTEX
8
CONTOURS_MINEURES
10
37.669
20
73.663
0
VERTEX
8
CONTOURS_MINEURES
10
37.325
20
71.999
0
VERTEX
8
CONTOURS_MINEURES
10
37.325
20
70.678
0
VERTEX
8
CONTOURS_MINEURES
10
37.325
20
69.003
0
VERTEX
8
CONTOURS_MINEURES
10
35.998
20
67.594
0
VERTEX
8
CONTOURS_MINEURES
10
34.406
20
67.594
0
VERTEX
8
CONTOURS_MINEURES
10
33.002
20
67.594
0
VERTEX
8
CONTOURS_MINEURES
10
32.250
20
65.997
0
VERTEX
8
CONTOURS_MINEURES
10
32.177
20
65.175
0
VERTEX
8
CONTOURS_MINEURES
10
31.376
20
63.001
0
VERTEX
8
CONTOURS_MINEURES
10
31.376
20
61.621
0
VERTEX
8
CONTOURS_MINEURES
10
31.376
20
59.994
0
VERTEX
8
CONTOURS_MINEURES
10
30.835
20
59.157
0
VERTEX
8
CONTOURS_MINEURES
10
29.995
20
58.288
0
VERTEX
8
CONTOURS_MINEURES
10
29.475
20
57.518
0
VERTEX
8
CONTOURS_MINEURES
10
29.211
20
56.999
0
VERTEX
8
CONTOURS_MINEURES
10
26.999
20
54.336
0
VERTEX
8
CONTOURS_MINEURES
10
26.666
20
54.336
0
VERTEX
8
CONTOURS_MINEURES
10
24.002
20
54.336
0
VERTEX
8
CONTOURS_MINEURES
10
23.630
20
54.003
0
VERTEX
8
CONTOURS_MINEURES
10
23.630
20
53.631
0
VERTEX
8
CONTOURS_MINEURES
10
23.630
20
50.997
0
VERTEX
8
CONTOURS_MINEURES
10
24.002
20
50.075
0
VERTEX
8
CONTOURS_MINEURES
10
26.077
20
50.075
0
VERTEX
8
CONTOURS_MINEURES
10
26.999
20
50.075
0
VERTEX
8
CONTOURS_MINEURES
10
27.816
20
48.001
0
VERTEX
8
CONTOURS_MINEURES
10
29.995
20
45.463
0
VERTEX
8
CONTOURS_MINEURES
10
30.553
20
45.005
0
VERTEX
8
CONTOURS_MINEURES
10
30.553
20
42.557
0
VERTEX
8
CONTOURS_MINEURES
10
30.553
20
41.999
0
VERTEX
8
CONTOURS_MINEURES
10
33.002
20
40.576
0
VERTEX
8
CONTOURS_MINEURES
10
34.575
20
40.576
0
VERTEX
8
CONTOURS_MINEURES
10
35.998
20
40.576
0
VERTEX
8
CONTOURS_MINEURES
10
37.305
20
40.304
0
VERTEX
8
CONTOURS_MINEURES
10
37.893
20
39.003
0
VERTEX
8
CONTOURS_MINEURES
10
37.893
20
37.109
0
VERTEX
8
CONTOURS_MINEURES
10
37.893
20
35.996
0
VERTEX
8
CONTOURS_MINEURES
10
38.369
20
35.363
0
VERTEX
8
CONTOURS_MINEURES
10
39.005
20
34.366
0
VERTEX
8
CONTOURS_MINEURES
10
39.873
20
33.001
0
VERTEX
8
CONTOURS_MINEURES
10
40.764
20
31.763
0
VERTEX
8
CONTOURS_MINEURES
10
41.921
20
30.005
0
VERTEX
8
CONTOURS_MINEURES
10
41.921
20
29.924
0
VERTEX
8
CONTOURS_MINEURES
10
41.921
20
26.998
0
VERTEX
8
CONTOURS_MINEURES
10
42.001
20
26.875
0
VERTEX
8
CONTOURS_MINEURES
10
44.875
20
26.875
0
VERTEX
8
CONTOURS_MINEURES
10
44.998
20
26.875
0
VERTEX
8
CONTOURS_MINEURES
10
46.782
20
24.003
0
VERTEX
8
CONTOURS_MINEURES
10
47.432
20
23.430
0
VERTEX
8
CONTOURS_MINEURES
10
48.005
20
22.515
0
VERTEX
8
CONTOURS_MINEURES
10
50.016
20
20.996
0
VERTEX
8
CONTOURS_MINEURES
10
50.016
20
20.011
0
VERTEX
8
CONTOURS_MINEURES
10
50.016
20
18.000
0
VERTEX
8
CONTOURS_MINEURES
10
51.001
20
17.370
0
VERTEX
8
CONTOURS_MINEURES
10
51.632
20
17.370
0
VERTEX
8
CONTOURS_MINEURES
10
53.997
20
17.370
0
VERTEX
8
CONTOURS_MINEURES
10
55.848
20
16.157
0
VERTEX
8
CONTOURS_MINEURES
10
57.004
20
15.478
0
VERTEX
8
CONTOURS_MINEURES
10
57.596
20
15.005
0
VERTEX
8
CONTOURS_MINEURES
10
58.136
20
13.133
0
VERTEX
8
CONTOURS_MINEURES
10
57.960
20
11.998
0
VERTEX
8
CONTOURS_MINEURES
10
57.960
20
9.958
0
VERTEX
8
CONTOURS_MINEURES
10
57.960
20
9.002
0
VERTEX
8
CONTOURS_MINEURES
10
57.604
20
8.401
0
VERTEX
8
CONTOURS_MINEURES
10
57.004
20
6.942
0
VERTEX
8
CONTOURS_MINEURES
10
56.544
20
5.996
0
VERTEX
8
CONTOURS_MINEURES
10
56.544
20
5.537
0
VERTEX
8
CONTOURS_MINEURES
10
56.544
20
3.000
0
VERTEX
8
CONTOURS_MINEURES
10
56.277
20
0.729
0
VERTEX
8
CONTOURS_MINEURES
10
56.259
20
0.004
0
SEQEND
0
POLYLINE
8
CONTOURS_MINEURES
66
1
70
0
0
VERTEX
8
CONTOURS_MINEURES
10
110.077
20
86.999
0
VERTEX
8
CONTOURS_MINEURES
10
110.077
20
86.078
0
VERTEX
8
CONTOURS_MINEURES
10
110.077
20
84.004
0
VERTEX
8
CONTOURS_MINEURES
10
111.002
20
83.650
0
VERTEX
8
CONTOURS_MINEURES
10
113.646
20
83.650
0
VERTEX
8
CONTOURS_MINEURES
10
113.999
20
83.650
0
SEQEND
0
POLYLINE
8
CONTOURS_MINEURES
66
1
70
0
0
VERTEX
8
CONTOURS_MINEURES
10
113.999
20
49.044
0
VERTEX
8
CONTOURS_MINEURES
10
112.046
20
49.044
0
VERTEX
8
CONTOURS_MINEURES
10
111.002
20
49.044
0
VERTEX
8
CONTOURS_MINEURES
10
109.837
20
49.162
0
VERTEX
8
CONTOURS_MINEURES
10
107.995
20
49.184
0
VERTEX
8
CONTOURS_MINEURES
10
105.984
20
48.986
0
VERTEX
8
CONTOURS_MINEURES
10
104.999
20
49.043
0
VERTEX
8
CONTOURS_MINEURES
10
103.957
20
49.043
0
VERTEX
8
CONTOURS_MINEURES
10
102.003
20
49.043
0
VERTEX
8
CONTOURS_MINEURES
10
100.941
20
49.058
0
VERTEX
8
CONTOURS_MINEURES
10
98.996
20
48.969
0
VERTEX
8
CONTOURS_MINEURES
10
96.260
20
48.001
0
VERTEX
8
CONTOURS_MINEURES
10
96.080
20
47.920
0
VERTEX
8
CONTOURS_MINEURES
10
95.999
20
47.843
0
VERTEX
8
CONTOURS_MINEURES
10
95.842
20
47.843
0
VERTEX
8
CONTOURS_MINEURES
10
93.003
20
47.843
0
VERTEX
8
CONTOURS_MINEURES
10
90.921
20
47.079
0
VERTEX
8
CONTOURS_MINEURES
10
89.996
20
46.548
0
VERTEX
8
CONTOURS_MINEURES
10
88.811
20
46.190
0
VERTEX
8
CONTOURS_MINEURES
10
87.449
20
45.005
0
VERTEX
8
CONTOURS_MINEURES
10
87.449
20
44.554
0
VERTEX
8
CONTOURS_MINEURES
10
87.449
20
41.999
0
VERTEX
8
CONTOURS_MINEURES
10
87.000
20
41.526
0
VERTEX
8
CONTOURS_MINEURES
10
84.476
20
41.526
0
VERTEX
8
CONTOURS_MINEURES
10
84.003
20
41.526
0
VERTEX
8
CONTOURS_MINEURES
10
82.500
20
40.501
0
VERTEX
8
CONTOURS_MINEURES
10
81.912
20
39.003
0
VERTEX
8
CONTOURS_MINEURES
10
81.912
20
36.911
0
VERTEX
8
CONTOURS_MINEURES
10
81.912
20
35.996
0
VERTEX
8
CONTOURS_MINEURES
10
80.996
20
33.001
0
VERTEX
8
CONTOURS_MINEURES
10
78.000
20
33.001
0
VERTEX
8
CONTOURS_MINEURES
10
76.377
20
30.005
0
VERTEX
8
CONTOURS_MINEURES
10
76.377
20
28.627
0
VERTEX
8
CONTOURS_MINEURES
10
76.377
20
26.998
0
VERTEX
8
CONTOURS_MINEURES
10
75.426
20
26.576
0
VERTEX
8
CONTOURS_MINEURES
10
75.004
20
25.625
0
VERTEX
8
CONTOURS_MINEURES
10
73.947
20
25.055
0
VERTEX
8
CONTOURS_MINEURES
10
73.500
20
24.003
0
VERTEX
8
CONTOURS_MINEURES
10
73.887
20
22.886
0
VERTEX
8
CONTOURS_MINEURES
10
73.572
20
20.996
0
VERTEX
8
CONTOURS_MINEURES
10
73.572
20
19.427
0
VERTEX
8
CONTOURS_MINEURES
10
73.572
20
18.000
0
VERTEX
8
CONTOURS_MINEURES
10
73.500
20
16.503
0
VERTEX
8
CONTOURS_MINEURES
10
73.052
20
15.005
0
VERTEX
8
CONTOURS_MINEURES
10
72.409
20
14.593
0
VERTEX
8
CONTOURS_MINEURES
10
71.997
20
14.314
0
VERTEX
8
CONTOURS_MINEURES
10
69.689
20
14.314
0
VERTEX
8
CONTOURS_MINEURES
10
69.000
20
14.314
0
VERTEX
8
CONTOURS_MINEURES
10
66.491
20
11.998
0
VERTEX
8
CONTOURS_MINEURES
10
66.491
20
9.489
0
VERTEX
8
CONTOURS_MINEURES
10
66.491
20
9.002
0
VERTEX
8
CONTOURS_MINEURES
10
66.229
20
8.776
0
VERTEX
8
CONTOURS_MINEURES
10
66.004
20
8.563
0
VERTEX
8
CONTOURS_MINEURES
10
64.219
20
5.996
0
VERTEX
8
CONTOURS_MINEURES
10
64.219
20
4.217
0
VERTEX
8
CONTOURS_MINEURES
10
64.219
20
3.000
0
VERTEX
8
CONTOURS_MINEURES
10
63.968
20
2.033
0
VERTEX
8
CONTOURS_MINEURES
10
63.250
20
0.004
0
SEQEND
0
POLYLINE
8
CONTOURS_MINEURES
66
1
70
0
0
VERTEX
8
CONTOURS_MINEURES
10
113.999
20
33.078
0
VERTEX
8
CONTOURS_MINEURES
10
113.921
20
33.078
0
VERTEX
8
CONTOURS_MINEURES
10
111.002
20
33.078
0
VERTEX
8
CONTOURS_MINEURES
10
108.317
20
33.322
0
VERTEX
8
CONTOURS_MINEURES
10
107.995
20
33.370
0
VERTEX
8
CONTOURS_MINEURES
10
106.069
20
33.001
0
VERTEX
8
CONTOURS_MINEURES
10
105.219
20
32.780
0
VERTEX
8
CONTOURS_MINEURES
10
104.999
20
32.644
0
VERTEX
8
CONTOURS_MINEURES
10
104.642
20
32.644
0
VERTEX
8
CONTOURS_MINEURES
10
102.003
20
32.644
0
VERTEX
8
CONTOURS_MINEURES
10
100.519
20
31.483
0
VERTEX
8
CONTOURS_MINEURES
10
99.474
20
30.005
0
VERTEX
8
CONTOURS_MINEURES
10
99.474
20
27.477
0
VERTEX
8
CONTOURS_MINEURES
10
99.474
20
26.998
0
VERTEX
8
CONTOURS_MINEURES
10
99.206
20
26.789
0
VERTEX
8
CONTOURS_MINEURES
10
98.996
20
26.699
0
VERTEX
8
CONTOURS_MINEURES
10
97.647
20
25.351
0
VERTEX
8
CONTOURS_MINEURES
10
96.299
20
24.003
0
VERTEX
8
CONTOURS_MINEURES
10
95.999
20
23.749
0
VERTEX
8
CONTOURS_MINEURES
10
93.256
20
23.749
0
VERTEX
8
CONTOURS_MINEURES
10
93.003
20
23.749
0
VERTEX
8
CONTOURS_MINEURES
10
91.335
20
22.664
0
VERTEX
8
CONTOURS_MINEURES
10
89.996
20
22.092
0
VERTEX
8
CONTOURS_MINEURES
10
87.499
20
20.996
0
VERTEX
8
CONTOURS_MINEURES
10
87.499
20
20.497
0
VERTEX
8
CONTOURS_MINEURES
10
87.499
20
18.000
0
VERTEX
8
CONTOURS_MINEURES
10
87.238
20
17.762
0
VERTEX
8
CONTOURS_MINEURES
10
87.000
20
17.301
0
VERTEX
8
CONTOURS_MINEURES
10
86.301
20
17.301
0
VERTEX
8
CONTOURS_MINEURES
10
84.003
20
17.301
0
VERTEX
8
CONTOURS_MINEURES
10
83.332
20
15.674
0
VERTEX
8
CONTOURS_MINEURES
10
83.325
20
15.005
0
VERTEX
8
CONTOURS_MINEURES
10
83.010
20
12.992
0
VERTEX
8
CONTOURS_MINEURES
10
82.460
20
11.998
0
VERTEX
8
CONTOURS_MINEURES
10
82.460
20
10.461
0
VERTEX
8
CONTOURS_MINEURES
10
82.460
20
9.002
0
VERTEX
8
CONTOURS_MINEURES
10
80.996
20
7.678
0
VERTEX
8
CONTOURS_MINEURES
10
79.320
20
7.678
0
VERTEX
8
CONTOURS_MINEURES
10
78.000
20
7.678
0
VERTEX
8
CONTOURS_MINEURES
10
75.826
20
6.821
0
VERTEX
8
CONTOURS_MINEURES
10
75.004
20
6.474
0
VERTEX
8
CONTOURS_MINEURES
10
74.717
20
6.282
0
VERTEX
8
CONTOURS_MINEURES
10
74.224
20
5.996
0
VERTEX
8
CONTOURS_MINEURES
10
74.224
20
5.219
0
VERTEX
8
CONTOURS_MINEURES
10
74.224
20
3.000
0
VERTEX
8
CONTOURS_MINEURES
10
73.304
20
1.698
0
VERTEX
8
CONTOURS_MINEURES
10
72.053
20
0.004
0
SEQEND
0
POLYLINE
8
CONTOURS_MINEURES
66
1
70
0
0
VERTEX
8
CONTOURS_MINEURES
10
113.999
20
14.542
0
VERTEX
8
CONTOURS_MINEURES
10
111.463
20
14.542
0
VERTEX
8
CONTOURS_MINEURES
10
111.002
20
14.542
0
VERTEX
8
CONTOURS_MINEURES
10
110.250
20
12.750
0
VERTEX
8
CONTOURS_MINEURES
10
107.995
20
11.998
0
VERTEX
8
CONTOURS_MINEURES
10
107.995
20
9.002
0
VERTEX
8
CONTOURS_MINEURES
10
104.999
20
6.979
0
VERTEX
8
CONTOURS_MINEURES
10
102.982
20
6.979
0
VERTEX
8
CONTOURS_MINEURES
10
102.003
20
6.979
0
VERTEX
8
CONTOURS_MINEURES
10
101.121
20
6.877
0
VERTEX
8
CONTOURS_MINEURES
10
98.996
20
5.996
0
VERTEX
8
CONTOURS_MINEURES
10
98.996
20
3.000
0
VERTEX
8
CONTOURS_MINEURES
10
95.999
20
1.169
0
VERTEX
8
CONTOURS_MINEURES
10
94.834
20
1.169
0
VERTEX
8
CONTOURS_MINEURES
10
93.003
20
1.169
0
VERTEX
8
CONTOURS_MINEURES
10
90.664
20
0.004
0
SEQEND
0
POLYLINE
8
CONTOURS_MAJEURES
66
1
70
0
0
VERTEX
8
CONTOURS_MAJEURES
10
-0.000
20
26.000
0
VERTEX
8
CONTOURS_MAJEURES
10
0.998
20
26.000
0
VERTEX
8
CONTOURS_MAJEURES
10
2.996
20
26.000
0
VERTEX
8
CONTOURS_MAJEURES
10
3.189
20
24.195
0
VERTEX
8
CONTOURS_MAJEURES
10
3.210
20
24.003
0
VERTEX
8
CONTOURS_MAJEURES
10
3.312
20
23.686
0
VERTEX
8
CONTOURS_MAJEURES
10
4.006
20
20.996
0
VERTEX
8
CONTOURS_MAJEURES
10
4.006
20
19.007
0
VERTEX
8
CONTOURS_MAJEURES
10
4.006
20
18.000
0
VERTEX
8
CONTOURS_MAJEURES
10
4.804
20
16.199
0
VERTEX
8
CONTOURS_MAJEURES
10
5.241
20
15.005
0
VERTEX
8
CONTOURS_MAJEURES
10
5.434
20
14.435
0
VERTEX
8
CONTOURS_MAJEURES
10
6.003
20
13.238
0
VERTEX
8
CONTOURS_MAJEURES
10
6.439
20
12.435
0
VERTEX
8
CONTOURS_MAJEURES
10
6.721
20
11.998
0
VERTEX
8
CONTOURS_MAJEURES
10
6.721
20
9.720
0
VERTEX
8
CONTOURS_MAJEURES
10
6.721
20
9.002
0
VERTEX
8
CONTOURS_MAJEURES
10
7.625
20
7.624
0
VERTEX
8
CONTOURS_MAJEURES
10
8.528
20
5.996
0
VERTEX
8
CONTOURS_MAJEURES
10
8.528
20
5.524
0
VERTEX
8
CONTOURS_MAJEURES
10
8.528
20
3.000
0
VERTEX
8
CONTOURS_MAJEURES
10
8.941
20
0.063
0
VERTEX
8
CONTOURS_MAJEURES
10
8.957
20
0.004
0
SEQEND
0
POLYLINE
8
CONTOURS_MAJEURES
66
1
70
0
0
VERTEX
8
CONTOURS_MAJEURES
10
6.685
20
86.999
0
VERTEX
8
CONTOURS_MAJEURES
10
6.685
20
86.317
0
VERTEX
8
CONTOURS_MAJEURES
10
6.685
20
84.004
0
VERTEX
8
CONTOURS_MAJEURES
10
6.183
20
81.178
0
VERTEX
8
CONTOURS_MAJEURES
10
6.139
20
80.997
0
VERTEX
8
CONTOURS_MAJEURES
10
6.150
20
80.850
0
VERTEX
8
CONTOURS_MAJEURES
10
6.296
20
78.001
0
VERTEX
8
CONTOURS_MAJEURES
10
6.296
20
77.708
0
VERTEX
8
CONTOURS_MAJEURES
10
6.296
20
74.995
0
VERTEX
8
CONTOURS_MAJEURES
10
7.200
20
73.196
0
VERTEX
8
CONTOURS_MAJEURES
10
7.555
20
71.999
0
VERTEX
8
CONTOURS_MAJEURES
10
7.555
20
70.447
0
VERTEX
8
CONTOURS_MAJEURES
10
7.555
20
69.003
0
VERTEX
8
CONTOURS_MAJEURES
10
7.744
20
67.256
0
VERTEX
8
CONTOURS_MAJEURES
10
8.123
20
65.997
0
VERTEX
8
CONTOURS_MAJEURES
10
8.347
20
65.344
0
VERTEX
8
CONTOURS_MAJEURES
10
8.643
20
63.001
0
VERTEX
8
CONTOURS_MAJEURES
10
8.643
20
60.351
0
VERTEX
8
CONTOURS_MAJEURES
10
8.643
20
59.994
0
VERTEX
8
CONTOURS_MAJEURES
10
8.717
20
59.712
0
VERTEX
8
CONTOURS_MAJEURES
10
8.999
20
57.126
0
VERTEX
8
CONTOURS_MAJEURES
10
11.868
20
57.126
0
VERTEX
8
CONTOURS_MAJEURES
10
11.996
20
57.126
0
VERTEX
8
CONTOURS_MAJEURES
10
12.016
20
57.019
0
VERTEX
8
CONTOURS_MAJEURES
10
12.015
20
56.999
0
VERTEX
8
CONTOURS_MAJEURES
10
12.014
20
56.981
0
VERTEX
8
CONTOURS_MAJEURES
10
12.137
20
54.003
0
VERTEX
8
CONTOURS_MAJEURES
10
12.137
20
51.138
0
VERTEX
8
CONTOURS_MAJEURES
10
12.137
20
50.997
0
VERTEX
8
CONTOURS_MAJEURES
10
12.510
20
48.513
0
VERTEX
8
CONTOURS_MAJEURES
10
12.669
20
48.001
0
VERTEX
8
CONTOURS_MAJEURES
10
12.941
20
47.059
0
VERTEX
8
CONTOURS_MAJEURES
10
13.308
20
45.005
0
VERTEX
8
CONTOURS_MAJEURES
10
13.308
20
43.310
0
VERTEX
8
CONTOURS_MAJEURES
10
13.308
20
41.999
0
VERTEX
8
CONTOURS_MAJEURES
10
13.793
20
40.794
0
VERTEX
8
CONTOURS_MAJEURES
10
14.360
20
39.003
0
VERTEX
8
CONTOURS_MAJEURES
10
14.360
20
36.639
0
VERTEX
8
CONTOURS_MAJEURES
10
14.360
20
35.996
0
VERTEX
8
CONTOURS_MAJEURES
10
14.565
20
35.560
0
VERTEX
8
CONTOURS_MAJEURES
10
15.003
20
34.637
0
VERTEX
8
CONTOURS_MAJEURES
10
16.362
20
34.637
0
VERTEX
8
CONTOURS_MAJEURES
10
17.999
20
34.637
0
VERTEX
8
CONTOURS_MAJEURES
10
18.975
20
33.976
0
VERTEX
8
CONTOURS_MAJEURES
10
19.933
20
33.001
0
VERTEX
8
CONTOURS_MAJEURES
10
20.995
20
31.844
0
VERTEX
8
CONTOURS_MAJEURES
10
22.085
20
31.091
0
VERTEX
8
CONTOURS_MAJEURES
10
24.002
20
30.059
0
VERTEX
8
CONTOURS_MAJEURES
10
26.945
20
30.059
0
VERTEX
8
CONTOURS_MAJEURES
10
26.999
20
30.059
0
VERTEX
8
CONTOURS_MAJEURES
10
27.020
20
30.026
0
VERTEX
8
CONTOURS_MAJEURES
10
27.039
20
30.005
0
VERTEX
8
CONTOURS_MAJEURES
10
27.039
20
29.964
0
VERTEX
8
CONTOURS_MAJEURES
10
27.039
20
26.998
0
VERTEX
8
CONTOURS_MAJEURES
10
28.476
20
25.480
0
VERTEX
8
CONTOURS_MAJEURES
10
29.995
20
24.196
0
VERTEX
8
CONTOURS_MAJEURES
10
30.188
20
24.003
0
VERTEX
8
CONTOURS_MAJEURES
10
31.782
20
22.783
0
VERTEX
8
CONTOURS_MAJEURES
10
33.002
20
22.204
0
VERTEX
8
CONTOURS_MAJEURES
10
34.795
20
22.204
0
VERTEX
8
CONTOURS_MAJEURES
10
35.998
20
22.204
0
VERTEX
8
CONTOURS_MAJEURES
10
38.030
20
20.996
0
VERTEX
8
CONTOURS_MAJEURES
10
38.030
20
20.025
0
VERTEX
8
CONTOURS_MAJEURES
10
38.030
20
18.000
0
VERTEX
8
CONTOURS_MAJEURES
10
38.511
20
17.508
0
VERTEX
8
CONTOURS_MAJEURES
10
39.005
20
17.098
0
VERTEX
8
CONTOURS_MAJEURES
10
40.366
20
15.005
0
VERTEX
8
CONTOURS_MAJEURES
10
39.978
20
12.974
0
VERTEX
8
CONTOURS_MAJEURES
10
40.215
20
11.998
0
VERTEX
8
CONTOURS_MAJEURES
10
40.215
20
10.788
0
VERTEX
8
CONTOURS_MAJEURES
10
40.215
20
9.002
0
VERTEX
8
CONTOURS_MAJEURES
10
39.926
20
8.078
0
VERTEX
8
CONTOURS_MAJEURES
10
39.067
20
5.996
0
VERTEX
8
CONTOURS_MAJEURES
10
39.067
20
3.062
0
VERTEX
8
CONTOURS_MAJEURES
10
39.067
20
3.000
0
VERTEX
8
CONTOURS_MAJEURES
10
39.026
20
0.025
0
VERTEX
8
CONTOURS_MAJEURES
10
39.026
20
0.004
0
SEQEND
0
POLYLINE
8
CONTOURS_MAJEURES
66
1
70
0
0
VERTEX
8
CONTOURS_MAJEURES
10
113.999
20
26.268
0
VERTEX
8
CONTOURS_MAJEURES
10
113.268
20
26.268
0
VERTEX
8
CONTOURS_MAJEURES
10
111.002
20
26.268
0
VERTEX
8
CONTOURS_MAJEURES
10
109.631
20
25.368
0
VERTEX
8
CONTOURS_MAJEURES
10
107.995
20
24.295
0
VERTEX
8
CONTOURS_MAJEURES
10
106.906
20
24.003
0
VERTEX
8
CONTOURS_MAJEURES
10
105.445
20
23.555
0
VERTEX
8
CONTOURS_MAJEURES
10
104.999
20
23.365
0
VERTEX
8
CONTOURS_MAJEURES
10
104.363
20
23.365
0
VERTEX
8
CONTOURS_MAJEURES
10
102.003
20
23.365
0
VERTEX
8
CONTOURS_MAJEURES
10
101.087
20
23.088
0
VERTEX
8
CONTOURS_MAJEURES
10
98.996
20
21.904
0
VERTEX
8
CONTOURS_MAJEURES
10
97.797
20
20.996
0
VERTEX
8
CONTOURS_MAJEURES
10
97.797
20
19.199
0
VERTEX
8
CONTOURS_MAJEURES
10
97.797
20
18.000
0
VERTEX
8
CONTOURS_MAJEURES
10
95.999
20
16.203
0
VERTEX
8
CONTOURS_MAJEURES
10
94.801
20
16.203
0
VERTEX
8
CONTOURS_MAJEURES
10
93.003
20
16.203
0
VERTEX
8
CONTOURS_MAJEURES
10
91.628
20
15.005
0
VERTEX
8
CONTOURS_MAJEURES
10
89.996
20
12.720
0
VERTEX
8
CONTOURS_MAJEURES
10
89.779
20
12.215
0
VERTEX
8
CONTOURS_MAJEURES
10
89.728
20
11.998
0
VERTEX
8
CONTOURS_MAJEURES
10
89.728
20
9.271
0
VERTEX
8
CONTOURS_MAJEURES
10
89.728
20
9.002
0
VERTEX
8
CONTOURS_MAJEURES
10
89.050
20
8.053
0
VERTEX
8
CONTOURS_MAJEURES
10
88.498
20
5.996
0
VERTEX
8
CONTOURS_MAJEURES
10
88.498
20
4.498
0
VERTEX
8
CONTOURS_MAJEURES
10
88.498
20
3.000
0
VERTEX
8
CONTOURS_MAJEURES
10
87.000
20
2.392
0
VERTEX
8
CONTOURS_MAJEURES
10
84.612
20
2.392
0
VERTEX
8
CONTOURS_MAJEURES
10
84.003
20
2.392
0
VERTEX
8
CONTOURS_MAJEURES
10
82.529
20
1.473
0
VERTEX
8
CONTOURS_MAJEURES
10
81.313
20
0.004
0
SEQEND
0
POLYLINE
8
PARCELLE
66
1
70
1
0
VERTEX
8
PARCELLE
10
20.000
20
46.914
0
VERTEX
8
PARCELLE
10
28.718
20
51.486
0
VERTEX
8
PARCELLE
10
37.395
20
54.199
0
VERTEX
8
PARCELLE
10
38.357
20
54.412
0
VERTEX
8
PARCELLE
10
41.413
20
55.502
0
VERTEX
8
PARCELLE
10
55.390
20
59.961
0
VERTEX
8
PARCELLE
10
62.093
20
62.127
0
VERTEX
8
PARCELLE
10
72.905
20
67.364
0
VERTEX
8
PARCELLE
10
74.089
20
67.916
0
VERTEX
8
PARCELLE
10
78.301
20
69.858
0
VERTEX
8
PARCELLE
10
78.501
20
69.956
0
VERTEX
8
PARCELLE
10
84.923
20
57.598
0
VERTEX
8
PARCELLE
10
87.658
20
52.046
0
VERTEX
8
PARCELLE
10
90.384
20
46.803
0
VERTEX
8
PARCELLE
10
93.237
20
40.840
0
VERTEX
8
PARCELLE
10
96.632
20
33.625
0
VERTEX
8
PARCELLE
10
94.010
20
28.577
0
VERTEX
8
PARCELLE
10
92.692
20
25.677
0
VERTEX
8
PARCELLE
10
91.976
20
24.623
0
VERTEX
8
PARCELLE
10
91.270
20
23.918
0
VERTEX
8
PARCELLE
10
90.426
20
23.194
0
VERTEX
8
PARCELLE
10
89.554
20
22.739
0
VERTEX
8
PARCELLE
10
88.541
20
22.296
0
VERTEX
8
PARCELLE
10
87.630
20
22.152
0
VERTEX
8
PARCELLE
10
86.459
20
22.000
0
VERTEX
8
PARCELLE
10
83.648
20
21.768
0
VERTEX
8
PARCELLE
10
79.896
20
21.422
0
VERTEX
8
PARCELLE
10
75.053
20
20.932
0
VERTEX
8
PARCELLE
10
68.791
20
20.452
0
VERTEX
8
PARCELLE
10
64.418
20
20.000
0
VERTEX
8
PARCELLE
10
45.957
20
21.185
0
VERTEX
8
PARCELLE
10
45.354
20
22.398
0
VERTEX
8
PARCELLE
10
41.719
20
24.668
0
VERTEX
8
PARCELLE
10
40.426
20
25.786
0
VERTEX
8
PARCELLE
10
36.088
20
33.986
0
VERTEX
8
PARCELLE
10
34.814
20
36.501
0
VERTEX
8
PARCELLE
10
32.258
20
41.912
0
VERTEX
8
PARCELLE
10
20.000
20
46.914
0
SEQEND
0
TEXT
8
POINTS_COTES
10
-0.000
20
0.004
40
1.0
1
295.7
0
TEXT
8
POINTS_COTES
10
57.004
20
3.000
40
1.0
1
315.2
0
TEXT
8
POINTS_COTES
10
113.999
20
5.996
40
1.0
1
321.3
0
TEXT
8
POINTS_COTES
10
53.997
20
11.998
40
1.0
1
313.7
0
TEXT
8
POINTS_COTES
10
111.002
20
15.005
40
1.0
1
321.0
0
TEXT
8
POINTS_COTES
10
51.001
20
20.996
40
1.0
1
315.2
0
TEXT
8
POINTS_COTES
10
107.995
20
24.003
40
1.0
1
320.0
0
TEXT
8
POINTS_COTES
10
48.005
20
30.005
40
1.0
1
315.9
0
TEXT
8
POINTS_COTES
10
104.999
20
33.001
40
1.0
1
318.9
0
TEXT
8
POINTS_COTES
10
44.998
20
39.003
40
1.0
1
315.9
0
TEXT
8
POINTS_COTES
10
102.003
20
41.999
40
1.0
1
317.8
0
TEXT
8
POINTS_COTES
10
42.001
20
48.001
40
1.0
1
315.9
0
TEXT
8
POINTS_COTES
10
98.996
20
50.997
40
1.0
1
316.6
0
TEXT
8
POINTS_COTES
10
39.005
20
56.999
40
1.0
1
316.1
0
TEXT
8
POINTS_COTES
10
95.999
20
59.994
40
1.0
1
315.6
0
TEXT
8
POINTS_COTES
10
35.998
20
65.997
40
1.0
1
315.2
0
TEXT
8
POINTS_COTES
10
93.003
20
69.003
40
1.0
1
314.9
0
TEXT
8
POINTS_COTES
10
33.002
20
74.995
40
1.0
1
314.8
0
TEXT
8
POINTS_COTES
10
89.996
20
78.001
40
1.0
1
314.6
0
TEXT
8
POINTS_COTES
10
29.995
20
84.004
40
1.0
1
313.9
0
TEXT
8
POINTS_COTES
10
87.000
20
86.999
40
1.0
1
312.8
0
ENDSEC
0
EOF
