0
SECTION
2
HEADER
0
ENDSEC
0
SECTION
2
TABLES
0
TABLE
2
LAYER
70
4
0
LAYER
2
CONTOURS_MINEURES
70
0
62
8
6
CONTINUOUS
0
LAYER
2
CONTOURS_MAJEURES
70
0
62
3
6
CONTINUOUS
0
LAYER
2
PARCELLE
70
0
62
4
6
CONTINUOUS
0
LAYER
2
POINTS_COTES
70
0
62
7
6
CONTINUOUS
0
ENDTAB
0
ENDSEC
0
SECTION
2
ENTITIES
0
POLYLINE
8
CONTOURS_MINEURES
66
1
70
0
0
VERTEX
8
CONTOURS_MINEURES
10
61.580
20
125.000
0
VERTEX
8
CONTOURS_MINEURES
10
60.707
20
124.289
0
VERTEX
8
CONTOURS_MINEURES
10
59.995
20
124.044
0
VERTEX
8
CONTOURS_MINEURES
10
58.934
20
123.939
0
VERTEX
8
CONTOURS_MINEURES
10
54.997
20
123.076
0
VERTEX
8
CONTOURS_MINEURES
10
53.161
20
123.164
0
VERTEX
8
CONTOURS_MINEURES
10
49.999
20
123.197
0
VERTEX
8
CONTOURS_MINEURES
10
46.960
20
123.040
0
VERTEX
8
CONTOURS_MINEURES
10
45.000
20
123.001
0
VERTEX
8
CONTOURS_MINEURES
10
42.754
20
122.754
0
VERTEX
8
CONTOURS_MINEURES
10
40.002
20
122.404
0
VERTEX
8
CONTOURS_MINEURES
10
37.844
20
122.160
0
VERTEX
8
CONTOURS_MINEURES
10
35.004
20
122.057
0
VERTEX
8
CONTOURS_MINEURES
10
32.533
20
122.530
0
VERTEX
8
CONTOURS_MINEURES
10
30.005
20
123.029
0
VERTEX
8
CONTOURS_MINEURES
10
25.863
20
125.000
0
SEQEND
0
POLYLINE
8
CONTOURS_MINEURES
66
1
70
0
0
VERTEX
8
CONTOURS_MINEURES
10
118.372
20
0.001
0
VERTEX
8
CONTOURS_MINEURES
10
118.541
20
1.456
0
VERTEX
8
CONTOURS_MINEURES
10
118.859
20
4.998
0
VERTEX
8
CONTOURS_MINEURES
10
119.000
20
5.996
0
VERTEX
8
CONTOURS_MINEURES
10
119.997
20
9.235
0
SEQEND
0
POLYLINE
8
CONTOURS_MINEURES
66
1
70
0
0
VERTEX
8
CONTOURS_MINEURES
10
71.622
20
125.000
0
VERTEX
8
CONTOURS_MINEURES
10
70.919
20
124.084
0
VERTEX
8
CONTOURS_MINEURES
10
70.003
20
123.438
0
VERTEX
8
CONTOURS_MINEURES
10
65.726
20
120.003
0
VERTEX
8
CONTOURS_MINEURES
10
65.339
20
119.668
0
VERTEX
8
CONTOURS_MINEURES
10
65.004
20
119.560
0
VERTEX
8
CONTOURS_MINEURES
10
64.396
20
119.395
0
VERTEX
8
CONTOURS_MINEURES
10
59.995
20
117.884
0
VERTEX
8
CONTOURS_MINEURES
10
57.798
20
117.803
0
VERTEX
8
CONTOURS_MINEURES
10
54.997
20
117.543
0
VERTEX
8
CONTOURS_MINEURES
10
52.315
20
117.683
0
VERTEX
8
CONTOURS_MINEURES
10
49.999
20
117.957
0
VERTEX
8
CONTOURS_MINEURES
10
48.050
20
118.052
0
VERTEX
8
CONTOURS_MINEURES
10
45.000
20
117.990
0
VERTEX
8
CONTOURS_MINEURES
10
42.827
20
117.826
0
VERTEX
8
CONTOURS_MINEURES
10
40.002
20
117.524
0
VERTEX
8
CONTOURS_MINEURES
10
37.573
20
117.429
0
VERTEX
8
CONTOURS_MINEURES
10
35.004
20
117.393
0
VERTEX
8
CONTOURS_MINEURES
10
32.016
20
117.988
0
VERTEX
8
CONTOURS_MINEURES
10
30.005
20
118.434
0
VERTEX
8
CONTOURS_MINEURES
10
28.835
20
118.833
0
VERTEX
8
CONTOURS_MINEURES
10
26.045
20
120.003
0
VERTEX
8
CONTOURS_MINEURES
10
24.996
20
120.453
0
VERTEX
8
CONTOURS_MINEURES
10
24.171
20
120.828
0
VERTEX
8
CONTOURS_MINEURES
10
19.998
20
122.703
0
VERTEX
8
CONTOURS_MINEURES
10
18.319
20
123.322
0
VERTEX
8
CONTOURS_MINEURES
10
15.000
20
124.167
0
VERTEX
8
CONTOURS_MINEURES
10
14.333
20
124.334
0
VERTEX
8
CONTOURS_MINEURES
10
10.611
20
125.000
0
SEQEND
0
POLYLINE
8
CONTOURS_MINEURES
66
1
70
0
0
VERTEX
8
CONTOURS_MINEURES
10
114.700
20
0.001
0
VERTEX
8
CONTOURS_MINEURES
10
114.998
20
1.364
0
VERTEX
8
CONTOURS_MINEURES
10
115.378
20
4.618
0
VERTEX
8
CONTOURS_MINEURES
10
115.412
20
4.998
0
VERTEX
8
CONTOURS_MINEURES
10
115.980
20
9.022
0
VERTEX
8
CONTOURS_MINEURES
10
116.282
20
10.005
0
VERTEX
8
CONTOURS_MINEURES
10
117.136
20
12.142
0
VERTEX
8
CONTOURS_MINEURES
10
117.393
20
15.001
0
VERTEX
8
CONTOURS_MINEURES
10
119.997
20
19.529
0
SEQEND
0
POLYLINE
8
CONTOURS_MINEURES
66
1
70
0
0
VERTEX
8
CONTOURS_MINEURES
10
79.884
20
125.000
0
VERTEX
8
CONTOURS_MINEURES
10
79.680
20
124.681
0
VERTEX
8
CONTOURS_MINEURES
10
77.076
20
120.003
0
VERTEX
8
CONTOURS_MINEURES
10
76.069
20
118.934
0
VERTEX
8
CONTOURS_MINEURES
10
75.001
20
117.659
0
VERTEX
8
CONTOURS_MINEURES
10
71.379
20
114.996
0
VERTEX
8
CONTOURS_MINEURES
10
70.405
20
114.594
0
VERTEX
8
CONTOURS_MINEURES
10
70.003
20
114.477
0
VERTEX
8
CONTOURS_MINEURES
10
69.218
20
114.211
0
VERTEX
8
CONTOURS_MINEURES
10
65.004
20
113.033
0
VERTEX
8
CONTOURS_MINEURES
10
62.548
20
112.450
0
VERTEX
8
CONTOURS_MINEURES
10
59.995
20
111.824
0
VERTEX
8
CONTOURS_MINEURES
10
56.841
20
111.843
0
VERTEX
8
CONTOURS_MINEURES
10
54.997
20
111.780
0
VERTEX
8
CONTOURS_MINEURES
10
52.081
20
112.081
0
VERTEX
8
CONTOURS_MINEURES
10
49.999
20
112.351
0
VERTEX
8
CONTOURS_MINEURES
10
47.515
20
112.482
0
VERTEX
8
CONTOURS_MINEURES
10
45.000
20
112.899
0
VERTEX
8
CONTOURS_MINEURES
10
42.309
20
112.690
0
VERTEX
8
CONTOURS_MINEURES
10
40.002
20
112.549
0
VERTEX
8
CONTOURS_MINEURES
10
37.291
20
112.286
0
VERTEX
8
CONTOURS_MINEURES
10
35.004
20
112.248
0
VERTEX
8
CONTOURS_MINEURES
10
32.833
20
112.826
0
VERTEX
8
CONTOURS_MINEURES
10
30.005
20
113.580
0
VERTEX
8
CONTOURS_MINEURES
10
29.011
20
114.004
0
VERTEX
8
CONTOURS_MINEURES
10
26.553
20
114.996
0
VERTEX
8
CONTOURS_MINEURES
10
25.392
20
115.392
0
VERTEX
8
CONTOURS_MINEURES
10
24.996
20
115.558
0
VERTEX
8
CONTOURS_MINEURES
10
24.005
20
115.989
0
VERTEX
8
CONTOURS_MINEURES
10
19.998
20
117.526
0
VERTEX
8
CONTOURS_MINEURES
10
18.344
20
118.346
0
VERTEX
8
CONTOURS_MINEURES
10
15.000
20
119.522
0
VERTEX
8
CONTOURS_MINEURES
10
14.661
20
119.664
0
VERTEX
8
CONTOURS_MINEURES
10
13.148
20
120.003
0
VERTEX
8
CONTOURS_MINEURES
10
10.631
20
120.633
0
VERTEX
8
CONTOURS_MINEURES
10
10.001
20
120.745
0
VERTEX
8
CONTOURS_MINEURES
10
5.669
20
120.670
0
VERTEX
8
CONTOURS_MINEURES
10
5.003
20
120.721
0
VERTEX
8
CONTOURS_MINEURES
10
4.230
20
120.776
0
VERTEX
8
CONTOURS_MINEURES
10
0.005
20
120.963
0
SEQEND
0
POLYLINE
8
CONTOURS_MINEURES
66
1
70
0
0
VERTEX
8
CONTOURS_MINEURES
10
108.041
20
0.001
0
VERTEX
8
CONTOURS_MINEURES
10
107.973
20
2.028
0
VERTEX
8
CONTOURS_MINEURES
10
108.080
20
4.998
0
VERTEX
8
CONTOURS_MINEURES
10
108.302
20
6.699
0
VERTEX
8
CONTOURS_MINEURES
10
109.440
20
10.005
0
VERTEX
8
CONTOURS_MINEURES
10
109.858
20
14.860
0
VERTEX
8
CONTOURS_MINEURES
10
109.899
20
15.001
0
VERTEX
8
CONTOURS_MINEURES
10
109.921
20
15.080
0
VERTEX
8
CONTOURS_MINEURES
10
109.770
20
19.998
0
VERTEX
8
CONTOURS_MINEURES
10
109.794
20
20.205
0
VERTEX
8
CONTOURS_MINEURES
10
110.000
20
20.670
0
VERTEX
8
CONTOURS_MINEURES
10
111.895
20
23.107
0
VERTEX
8
CONTOURS_MINEURES
10
112.787
20
25.005
0
VERTEX
8
CONTOURS_MINEURES
10
113.735
20
26.268
0
VERTEX
8
CONTOURS_MINEURES
10
114.926
20
30.002
0
VERTEX
8
CONTOURS_MINEURES
10
114.998
20
30.096
0
VERTEX
8
CONTOURS_MINEURES
10
119.598
20
34.998
0
VERTEX
8
CONTOURS_MINEURES
10
119.815
20
35.179
0
VERTEX
8
CONTOURS_MINEURES
10
119.997
20
35.443
0
SEQEND
0
POLYLINE
8
CONTOURS_MINEURES
66
1
70
0
0
VERTEX
8
CONTOURS_MINEURES
10
86.632
20
125.000
0
VERTEX
8
CONTOURS_MINEURES
10
84.998
20
120.188
0
VERTEX
8
CONTOURS_MINEURES
10
84.947
20
120.054
0
VERTEX
8
CONTOURS_MINEURES
10
84.926
20
120.003
0
VERTEX
8
CONTOURS_MINEURES
10
84.748
20
119.753
0
VERTEX
8
CONTOURS_MINEURES
10
81.556
20
114.996
0
VERTEX
8
CONTOURS_MINEURES
10
80.753
20
114.242
0
VERTEX
8
CONTOURS_MINEURES
10
79.999
20
113.738
0
VERTEX
8
CONTOURS_MINEURES
10
76.546
20
111.544
0
VERTEX
8
CONTOURS_MINEURES
10
75.001
20
110.508
0
VERTEX
8
CONTOURS_MINEURES
10
74.641
20
110.359
0
VERTEX
8
CONTOURS_MINEURES
10
73.398
20
109.999
0
VERTEX
8
CONTOURS_MINEURES
10
70.003
20
108.767
0
VERTEX
8
CONTOURS_MINEURES
10
68.352
20
108.349
0
VERTEX
8
CONTOURS_MINEURES
10
65.004
20
107.136
0
VERTEX
8
CONTOURS_MINEURES
10
61.753
20
106.757
0
VERTEX
8
CONTOURS_MINEURES
10
59.995
20
106.382
0
VERTEX
8
CONTOURS_MINEURES
10
56.300
20
106.305
0
VERTEX
8
CONTOURS_MINEURES
10
54.997
20
106.312
0
VERTEX
8
CONTOURS_MINEURES
10
53.548
20
106.452
0
VERTEX
8
CONTOURS_MINEURES
10
49.999
20
106.827
0
VERTEX
8
CONTOURS_MINEURES
10
47.115
20
107.117
0
VERTEX
8
CONTOURS_MINEURES
10
45.000
20
107.501
0
VERTEX
8
CONTOURS_MINEURES
10
42.661
20
107.342
0
VERTEX
8
CONTOURS_MINEURES
10
40.002
20
107.239
0
VERTEX
8
CONTOURS_MINEURES
10
37.129
20
107.128
0
VERTEX
8
CONTOURS_MINEURES
10
35.004
20
106.919
0
VERTEX
8
CONTOURS_MINEURES
10
32.453
20
107.553
0
VERTEX
8
CONTOURS_MINEURES
10
30.005
20
108.018
0
VERTEX
8
CONTOURS_MINEURES
10
25.386
20
109.999
0
VERTEX
8
CONTOURS_MINEURES
10
25.113
20
110.116
0
VERTEX
8
CONTOURS_MINEURES
10
24.996
20
110.163
0
VERTEX
8
CONTOURS_MINEURES
10
21.513
20
111.514
0
VERTEX
8
CONTOURS_MINEURES
10
19.998
20
112.113
0
VERTEX
8
CONTOURS_MINEURES
10
15.673
20
114.322
0
VERTEX
8
CONTOURS_MINEURES
10
15.000
20
114.685
0
VERTEX
8
CONTOURS_MINEURES
10
14.792
20
114.788
0
VERTEX
8
CONTOURS_MINEURES
10
14.310
20
114.996
0
VERTEX
8
CONTOURS_MINEURES
10
11.272
20
116.269
0
VERTEX
8
CONTOURS_MINEURES
10
10.001
20
116.554
0
VERTEX
8
CONTOURS_MINEURES
10
8.471
20
116.529
0
VERTEX
8
CONTOURS_MINEURES
10
5.003
20
116.803
0
VERTEX
8
CONTOURS_MINEURES
10
1.946
20
116.941
0
VERTEX
8
CONTOURS_MINEURES
10
0.005
20
117.006
0
SEQEND
0
POLYLINE
8
CONTOURS_MINEURES
66
1
70
0
0
VERTEX
8
CONTOURS_MINEURES
10
100.568
20
0.001
0
VERTEX
8
CONTOURS_MINEURES
10
100.546
20
0.543
0
VERTEX
8
CONTOURS_MINEURES
10
100.744
20
4.998
0
VERTEX
8
CONTOURS_MINEURES
10
100.858
20
5.853
0
VERTEX
8
CONTOURS_MINEURES
10
100.961
20
10.005
0
VERTEX
8
CONTOURS_MINEURES
10
102.367
20
12.639
0
VERTEX
8
CONTOURS_MINEURES
10
103.066
20
15.001
0
VERTEX
8
CONTOURS_MINEURES
10
103.620
20
16.382
0
VERTEX
8
CONTOURS_MINEURES
10
104.588
20
19.998
0
VERTEX
8
CONTOURS_MINEURES
10
104.580
20
20.420
0
VERTEX
8
CONTOURS_MINEURES
10
105.002
20
22.957
0
VERTEX
8
CONTOURS_MINEURES
10
105.208
20
24.799
0
VERTEX
8
CONTOURS_MINEURES
10
105.300
20
25.005
0
VERTEX
8
CONTOURS_MINEURES
10
105.618
20
25.621
0
VERTEX
8
CONTOURS_MINEURES
10
107.266
20
30.002
0
VERTEX
8
CONTOURS_MINEURES
10
108.416
20
31.585
0
VERTEX
8
CONTOURS_MINEURES
10
110.000
20
34.049
0
VERTEX
8
CONTOURS_MINEURES
10
110.675
20
34.998
0
VERTEX
8
CONTOURS_MINEURES
10
114.998
20
38.551
0
VERTEX
8
CONTOURS_MINEURES
10
115.784
20
39.209
0
VERTEX
8
CONTOURS_MINEURES
10
116.324
20
39.994
0
VERTEX
8
CONTOURS_MINEURES
10
117.912
20
42.083
0
VERTEX
8
CONTOURS_MINEURES
10
119.287
20
45.002
0
VERTEX
8
CONTOURS_MINEURES
10
119.572
20
45.427
0
VERTEX
8
CONTOURS_MINEURES
10
119.997
20
46.290
0
SEQEND
0
POLYLINE
8
CONTOURS_MINEURES
66
1
70
0
0
VERTEX
8
CONTOURS_MINEURES
10
92.528
20
125.000
0
VERTEX
8
CONTOURS_MINEURES
10
91.174
20
121.179
0
VERTEX
8
CONTOURS_MINEURES
10
90.648
20
120.003
0
VERTEX
8
CONTOURS_MINEURES
10
90.463
20
119.536
0
VERTEX
8
CONTOURS_MINEURES
10
89.996
20
118.158
0
VERTEX
8
CONTOURS_MINEURES
10
89.021
20
115.973
0
VERTEX
8
CONTOURS_MINEURES
10
88.533
20
114.996
0
VERTEX
8
CONTOURS_MINEURES
10
84.998
20
110.538
0
VERTEX
8
CONTOURS_MINEURES
10
84.720
20
110.277
0
VERTEX
8
CONTOURS_MINEURES
10
84.305
20
109.999
0
VERTEX
8
CONTOURS_MINEURES
10
79.999
20
107.530
0
VERTEX
8
CONTOURS_MINEURES
10
78.364
20
106.638
0
VERTEX
8
CONTOURS_MINEURES
10
76.292
20
105.003
0
VERTEX
8
CONTOURS_MINEURES
10
75.001
20
104.101
0
VERTEX
8
CONTOURS_MINEURES
10
73.642
20
103.641
0
VERTEX
8
CONTOURS_MINEURES
10
70.003
20
102.398
0
VERTEX
8
CONTOURS_MINEURES
10
68.027
20
101.975
0
VERTEX
8
CONTOURS_MINEURES
10
65.004
20
101.547
0
VERTEX
8
CONTOURS_MINEURES
10
63.605
20
101.395
0
VERTEX
8
CONTOURS_MINEURES
10
59.995
20
101.531
0
VERTEX
8
CONTOURS_MINEURES
10
58.491
20
101.502
0
VERTEX
8
CONTOURS_MINEURES
10
54.997
20
101.687
0
VERTEX
8
CONTOURS_MINEURES
10
51.687
20
101.687
0
VERTEX
8
CONTOURS_MINEURES
10
49.999
20
101.849
0
VERTEX
8
CONTOURS_MINEURES
10
47.009
20
102.008
0
VERTEX
8
CONTOURS_MINEURES
10
45.000
20
102.199
0
VERTEX
8
CONTOURS_MINEURES
10
42.875
20
102.124
0
VERTEX
8
CONTOURS_MINEURES
10
40.002
20
101.963
0
VERTEX
8
CONTOURS_MINEURES
10
36.936
20
101.931
0
VERTEX
8
CONTOURS_MINEURES
10
35.004
20
101.864
0
VERTEX
8
CONTOURS_MINEURES
10
32.289
20
102.283
0
VERTEX
8
CONTOURS_MINEURES
10
30.005
20
102.676
0
VERTEX
8
CONTOURS_MINEURES
10
25.983
20
104.017
0
VERTEX
8
CONTOURS_MINEURES
10
24.996
20
104.219
0
VERTEX
8
CONTOURS_MINEURES
10
23.166
20
105.003
0
VERTEX
8
CONTOURS_MINEURES
10
20.939
20
105.944
0
VERTEX
8
CONTOURS_MINEURES
10
19.998
20
106.341
0
VERTEX
8
CONTOURS_MINEURES
10
16.483
20
108.516
0
VERTEX
8
CONTOURS_MINEURES
10
15.000
20
109.395
0
VERTEX
8
CONTOURS_MINEURES
10
14.010
20
109.999
0
VERTEX
8
CONTOURS_MINEURES
10
11.333
20
111.331
0
VERTEX
8
CONTOURS_MINEURES
10
10.001
20
111.904
0
VERTEX
8
CONTOURS_MINEURES
10
7.875
20
112.125
0
VERTEX
8
CONTOURS_MINEURES
10
5.003
20
112.766
0
VERTEX
8
CONTOURS_MINEURES
10
2.907
20
112.901
0
VERTEX
8
CONTOURS_MINEURES
10
0.005
20
113.048
0
SEQEND
0
POLYLINE
8
CONTOURS_MINEURES
66
1
70
0
0
VERTEX
8
CONTOURS_MINEURES
10
93.804
20
0.001
0
VERTEX
8
CONTOURS_MINEURES
10
93.656
20
1.346
0
VERTEX
8
CONTOURS_MINEURES
10
93.324
20
4.998
0
VERTEX
8
CONTOURS_MINEURES
10
93.574
20
8.574
0
VERTEX
8
CONTOURS_MINEURES
10
93.674
20
10.005
0
VERTEX
8
CONTOURS_MINEURES
10
95.005
20
13.117
0
VERTEX
8
CONTOURS_MINEURES
10
95.580
20
14.427
0
VERTEX
8
CONTOURS_MINEURES
10
95.850
20
15.001
0
VERTEX
8
CONTOURS_MINEURES
10
96.460
20
16.456
0
VERTEX
8
CONTOURS_MINEURES
10
97.899
20
19.998
0
VERTEX
8
CONTOURS_MINEURES
10
97.835
20
22.833
0
VERTEX
8
CONTOURS_MINEURES
10
97.969
20
25.005
0
VERTEX
8
CONTOURS_MINEURES
10
98.289
20
26.719
0
VERTEX
8
CONTOURS_MINEURES
10
98.874
20
30.002
0
VERTEX
8
CONTOURS_MINEURES
10
99.218
20
30.787
0
VERTEX
8
CONTOURS_MINEURES
10
100.003
20
31.897
0
VERTEX
8
CONTOURS_MINEURES
10
101.346
20
33.656
0
VERTEX
8
CONTOURS_MINEURES
10
102.330
20
34.998
0
VERTEX
8
CONTOURS_MINEURES
10
103.606
20
36.393
0
VERTEX
8
CONTOURS_MINEURES
10
105.002
20
38.096
0
VERTEX
8
CONTOURS_MINEURES
10
105.853
20
39.143
0
VERTEX
8
CONTOURS_MINEURES
10
106.713
20
39.994
0
VERTEX
8
CONTOURS_MINEURES
10
108.486
20
41.511
0
VERTEX
8
CONTOURS_MINEURES
10
110.000
20
42.966
0
VERTEX
8
CONTOURS_MINEURES
10
112.524
20
45.002
0
VERTEX
8
CONTOURS_MINEURES
10
114.998
20
47.077
0
VERTEX
8
CONTOURS_MINEURES
10
116.171
20
48.826
0
VERTEX
8
CONTOURS_MINEURES
10
116.749
20
49.998
0
VERTEX
8
CONTOURS_MINEURES
10
119.997
20
54.771
0
SEQEND
0
POLYLINE
8
CONTOURS_MINEURES
66
1
70
0
0
VERTEX
8
CONTOURS_MINEURES
10
98.737
20
125.000
0
VERTEX
8
CONTOURS_MINEURES
10
96.305
20
121.302
0
VERTEX
8
CONTOURS_MINEURES
10
95.421
20
120.003
0
VERTEX
8
CONTOURS_MINEURES
10
95.260
20
119.748
0
VERTEX
8
CONTOURS_MINEURES
10
95.005
20
119.237
0
VERTEX
8
CONTOURS_MINEURES
10
93.803
20
116.198
0
VERTEX
8
CONTOURS_MINEURES
10
93.395
20
114.996
0
VERTEX
8
CONTOURS_MINEURES
10
91.603
20
111.602
0
VERTEX
8
CONTOURS_MINEURES
10
90.677
20
109.999
0
VERTEX
8
CONTOURS_MINEURES
10
90.422
20
109.575
0
VERTEX
8
CONTOURS_MINEURES
10
89.996
20
108.924
0
VERTEX
8
CONTOURS_MINEURES
10
87.997
20
107.002
0
VERTEX
8
CONTOURS_MINEURES
10
85.439
20
105.003
0
VERTEX
8
CONTOURS_MINEURES
10
85.210
20
104.790
0
VERTEX
8
CONTOURS_MINEURES
10
84.998
20
104.558
0
VERTEX
8
CONTOURS_MINEURES
10
83.233
20
103.236
0
VERTEX
8
CONTOURS_MINEURES
10
79.999
20
100.824
0
VERTEX
8
CONTOURS_MINEURES
10
78.642
20
99.996
0
VERTEX
8
CONTOURS_MINEURES
10
75.922
20
99.074
0
VERTEX
8
CONTOURS_MINEURES
10
75.001
20
98.896
0
VERTEX
8
CONTOURS_MINEURES
10
71.796
20
98.202
0
VERTEX
8
CONTOURS_MINEURES
10
70.003
20
97.619
0
VERTEX
8
CONTOURS_MINEURES
10
67.064
20
97.058
0
VERTEX
8
CONTOURS_MINEURES
10
65.004
20
96.820
0
VERTEX
8
CONTOURS_MINEURES
10
61.943
20
96.942
0
VERTEX
8
CONTOURS_MINEURES
10
59.995
20
97.011
0
VERTEX
8
CONTOURS_MINEURES
10
57.870
20
97.124
0
VERTEX
8
CONTOURS_MINEURES
10
54.997
20
97.456
0
VERTEX
8
CONTOURS_MINEURES
10
52.508
20
97.507
0
VERTEX
8
CONTOURS_MINEURES
10
49.999
20
97.507
0
VERTEX
8
CONTOURS_MINEURES
10
47.372
20
97.624
0
VERTEX
8
CONTOURS_MINEURES
10
45.000
20
97.475
0
VERTEX
8
CONTOURS_MINEURES
10
42.022
20
97.019
0
VERTEX
8
CONTOURS_MINEURES
10
40.002
20
96.907
0
VERTEX
8
CONTOURS_MINEURES
10
38.112
20
96.888
0
VERTEX
8
CONTOURS_MINEURES
10
35.004
20
96.873
0
VERTEX
8
CONTOURS_MINEURES
10
32.214
20
97.207
0
VERTEX
8
CONTOURS_MINEURES
10
30.005
20
97.562
0
VERTEX
8
CONTOURS_MINEURES
10
26.886
20
98.110
0
VERTEX
8
CONTOURS_MINEURES
10
24.996
20
98.348
0
VERTEX
8
CONTOURS_MINEURES
10
23.709
20
98.709
0
VERTEX
8
CONTOURS_MINEURES
10
20.382
20
99.996
0
VERTEX
8
CONTOURS_MINEURES
10
19.998
20
100.152
0
VERTEX
8
CONTOURS_MINEURES
10
16.585
20
101.584
0
VERTEX
8
CONTOURS_MINEURES
10
15.000
20
102.686
0
VERTEX
8
CONTOURS_MINEURES
10
10.081
20
105.003
0
VERTEX
8
CONTOURS_MINEURES
10
10.001
20
105.043
0
VERTEX
8
CONTOURS_MINEURES
10
6.447
20
106.447
0
VERTEX
8
CONTOURS_MINEURES
10
5.003
20
107.068
0
VERTEX
8
CONTOURS_MINEURES
10
2.645
20
107.360
0
VERTEX
8
CONTOURS_MINEURES
10
0.005
20
107.987
0
SEQEND
0
POLYLINE
8
CONTOURS_MINEURES
66
1
70
0
0
VERTEX
8
CONTOURS_MINEURES
10
86.626
20
0.001
0
VERTEX
8
CONTOURS_MINEURES
10
86.289
20
3.707
0
VERTEX
8
CONTOURS_MINEURES
10
86.137
20
4.998
0
VERTEX
8
CONTOURS_MINEURES
10
86.632
20
8.368
0
VERTEX
8
CONTOURS_MINEURES
10
86.744
20
10.005
0
VERTEX
8
CONTOURS_MINEURES
10
88.145
20
13.151
0
VERTEX
8
CONTOURS_MINEURES
10
88.893
20
15.001
0
VERTEX
8
CONTOURS_MINEURES
10
89.996
20
17.586
0
VERTEX
8
CONTOURS_MINEURES
10
90.680
20
19.315
0
VERTEX
8
CONTOURS_MINEURES
10
90.925
20
19.998
0
VERTEX
8
CONTOURS_MINEURES
10
91.081
20
23.921
0
VERTEX
8
CONTOURS_MINEURES
10
91.147
20
25.005
0
VERTEX
8
CONTOURS_MINEURES
10
91.685
20
28.317
0
VERTEX
8
CONTOURS_MINEURES
10
92.000
20
30.002
0
VERTEX
8
CONTOURS_MINEURES
10
93.583
20
33.579
0
VERTEX
8
CONTOURS_MINEURES
10
94.271
20
34.998
0
VERTEX
8
CONTOURS_MINEURES
10
94.517
20
35.485
0
VERTEX
8
CONTOURS_MINEURES
10
95.005
20
36.275
0
VERTEX
8
CONTOURS_MINEURES
10
98.135
20
39.994
0
VERTEX
8
CONTOURS_MINEURES
10
99.111
20
40.889
0
VERTEX
8
CONTOURS_MINEURES
10
100.003
20
41.767
0
VERTEX
8
CONTOURS_MINEURES
10
103.478
20
45.002
0
VERTEX
8
CONTOURS_MINEURES
10
104.221
20
45.782
0
VERTEX
8
CONTOURS_MINEURES
10
105.002
20
46.357
0
VERTEX
8
CONTOURS_MINEURES
10
108.945
20
49.998
0
VERTEX
8
CONTOURS_MINEURES
10
110.000
20
50.948
0
VERTEX
8
CONTOURS_MINEURES
10
112.139
20
52.857
0
VERTEX
8
CONTOURS_MINEURES
10
114.335
20
54.995
0
VERTEX
8
CONTOURS_MINEURES
10
114.998
20
55.710
0
VERTEX
8
CONTOURS_MINEURES
10
116.582
20
58.415
0
VERTEX
8
CONTOURS_MINEURES
10
117.900
20
60.002
0
VERTEX
8
CONTOURS_MINEURES
10
118.722
20
61.276
0
VERTEX
8
CONTOURS_MINEURES
10
119.997
20
62.982
0
SEQEND
0
POLYLINE
8
CONTOURS_MINEURES
66
1
70
0
0
VERTEX
8
CONTOURS_MINEURES
10
105.185
20
125.000
0
VERTEX
8
CONTOURS_MINEURES
10
105.002
20
124.611
0
VERTEX
8
CONTOURS_MINEURES
10
103.315
20
121.689
0
VERTEX
8
CONTOURS_MINEURES
10
102.038
20
120.003
0
VERTEX
8
CONTOURS_MINEURES
10
100.003
20
117.120
0
VERTEX
8
CONTOURS_MINEURES
10
99.180
20
115.821
0
VERTEX
8
CONTOURS_MINEURES
10
98.768
20
114.996
0
VERTEX
8
CONTOURS_MINEURES
10
97.004
20
112.997
0
VERTEX
8
CONTOURS_MINEURES
10
95.005
20
110.555
0
VERTEX
8
CONTOURS_MINEURES
10
94.684
20
109.999
0
VERTEX
8
CONTOURS_MINEURES
10
92.926
20
107.077
0
VERTEX
8
CONTOURS_MINEURES
10
91.569
20
105.003
0
VERTEX
8
CONTOURS_MINEURES
10
91.099
20
103.900
0
VERTEX
8
CONTOURS_MINEURES
10
89.996
20
102.396
0
VERTEX
8
CONTOURS_MINEURES
10
88.755
20
101.239
0
VERTEX
8
CONTOURS_MINEURES
10
87.616
20
99.996
0
VERTEX
8
CONTOURS_MINEURES
10
86.259
20
98.734
0
VERTEX
8
CONTOURS_MINEURES
10
84.998
20
97.893
0
VERTEX
8
CONTOURS_MINEURES
10
83.132
20
96.864
0
VERTEX
8
CONTOURS_MINEURES
10
79.999
20
96.274
0
VERTEX
8
CONTOURS_MINEURES
10
79.046
20
95.952
0
VERTEX
8
CONTOURS_MINEURES
10
75.001
20
95.167
0
VERTEX
8
CONTOURS_MINEURES
10
74.863
20
95.137
0
VERTEX
8
CONTOURS_MINEURES
10
74.439
20
94.999
0
VERTEX
8
CONTOURS_MINEURES
10
70.988
20
94.014
0
VERTEX
8
CONTOURS_MINEURES
10
70.003
20
93.817
0
VERTEX
8
CONTOURS_MINEURES
10
68.542
20
93.539
0
VERTEX
8
CONTOURS_MINEURES
10
65.004
20
92.966
0
VERTEX
8
CONTOURS_MINEURES
10
61.938
20
93.061
0
VERTEX
8
CONTOURS_MINEURES
10
59.995
20
92.888
0
VERTEX
8
CONTOURS_MINEURES
10
56.757
20
93.240
0
VERTEX
8
CONTOURS_MINEURES
10
54.997
20
93.216
0
VERTEX
8
CONTOURS_MINEURES
10
53.205
20
93.208
0
VERTEX
8
CONTOURS_MINEURES
10
49.999
20
93.281
0
VERTEX
8
CONTOURS_MINEURES
10
46.914
20
93.086
0
VERTEX
8
CONTOURS_MINEURES
10
45.000
20
92.827
0
VERTEX
8
CONTOURS_MINEURES
10
42.574
20
92.428
0
VERTEX
8
CONTOURS_MINEURES
10
40.002
20
92.006
0
VERTEX
8
CONTOURS_MINEURES
10
36.633
20
91.632
0
VERTEX
8
CONTOURS_MINEURES
10
35.004
20
91.623
0
VERTEX
8
CONTOURS_MINEURES
10
33.141
20
91.865
0
VERTEX
8
CONTOURS_MINEURES
10
30.005
20
92.116
0
VERTEX
8
CONTOURS_MINEURES
10
27.608
20
92.608
0
VERTEX
8
CONTOURS_MINEURES
10
24.996
20
92.926
0
VERTEX
8
CONTOURS_MINEURES
10
20.983
20
94.014
0
VERTEX
8
CONTOURS_MINEURES
10
19.998
20
94.201
0
VERTEX
8
CONTOURS_MINEURES
10
19.302
20
94.304
0
VERTEX
8
CONTOURS_MINEURES
10
17.403
20
94.999
0
VERTEX
8
CONTOURS_MINEURES
10
15.000
20
95.816
0
VERTEX
8
CONTOURS_MINEURES
10
11.596
20
96.594
0
VERTEX
8
CONTOURS_MINEURES
10
10.001
20
97.011
0
VERTEX
8
CONTOURS_MINEURES
10
7.799
20
97.794
0
VERTEX
8
CONTOURS_MINEURES
10
5.003
20
98.840
0
VERTEX
8
CONTOURS_MINEURES
10
1.535
20
99.996
0
VERTEX
8
CONTOURS_MINEURES
10
0.459
20
100.451
0
VERTEX
8
CONTOURS_MINEURES
10
0.005
20
100.565
0
SEQEND
0
POLYLINE
8
CONTOURS_MINEURES
66
1
70
0
0
VERTEX
8
CONTOURS_MINEURES
10
79.399
20
0.001
0
VERTEX
8
CONTOURS_MINEURES
10
79.184
20
0.816
0
VERTEX
8
CONTOURS_MINEURES
10
77.984
20
4.998
0
VERTEX
8
CONTOURS_MINEURES
10
78.000
20
7.000
0
VERTEX
8
CONTOURS_MINEURES
10
78.391
20
10.005
0
VERTEX
8
CONTOURS_MINEURES
10
79.999
20
14.206
0
VERTEX
8
CONTOURS_MINEURES
10
80.224
20
14.777
0
VERTEX
8
CONTOURS_MINEURES
10
80.346
20
15.001
0
VERTEX
8
CONTOURS_MINEURES
10
82.079
20
17.919
0
VERTEX
8
CONTOURS_MINEURES
10
83.348
20
19.998
0
VERTEX
8
CONTOURS_MINEURES
10
83.219
20
23.224
0
VERTEX
8
CONTOURS_MINEURES
10
83.456
20
25.005
0
VERTEX
8
CONTOURS_MINEURES
10
83.628
20
26.375
0
VERTEX
8
CONTOURS_MINEURES
10
83.982
20
30.002
0
VERTEX
8
CONTOURS_MINEURES
10
84.998
20
31.866
0
VERTEX
8
CONTOURS_MINEURES
10
86.941
20
34.998
0
VERTEX
8
CONTOURS_MINEURES
10
88.278
20
36.716
0
VERTEX
8
CONTOURS_MINEURES
10
89.996
20
39.172
0
VERTEX
8
CONTOURS_MINEURES
10
90.272
20
39.719
0
VERTEX
8
CONTOURS_MINEURES
10
90.442
20
39.994
0
VERTEX
8
CONTOURS_MINEURES
10
92.241
20
42.239
0
VERTEX
8
CONTOURS_MINEURES
10
94.364
20
45.002
0
VERTEX
8
CONTOURS_MINEURES
10
94.671
20
45.335
0
VERTEX
8
CONTOURS_MINEURES
10
95.005
20
45.674
0
VERTEX
8
CONTOURS_MINEURES
10
98.965
20
49.998
0
VERTEX
8
CONTOURS_MINEURES
10
99.505
20
50.496
0
VERTEX
8
CONTOURS_MINEURES
10
100.003
20
51.151
0
VERTEX
8
CONTOURS_MINEURES
10
104.502
20
54.995
0
VERTEX
8
CONTOURS_MINEURES
10
104.806
20
55.191
0
VERTEX
8
CONTOURS_MINEURES
10
105.002
20
55.476
0
VERTEX
8
CONTOURS_MINEURES
10
107.399
20
57.601
0
VERTEX
8
CONTOURS_MINEURES
10
109.563
20
60.002
0
VERTEX
8
CONTOURS_MINEURES
10
109.821
20
60.181
0
VERTEX
8
CONTOURS_MINEURES
10
110.000
20
60.411
0
VERTEX
8
CONTOURS_MINEURES
10
114.548
20
64.999
0
VERTEX
8
CONTOURS_MINEURES
10
114.998
20
65.339
0
VERTEX
8
CONTOURS_MINEURES
10
117.335
20
67.659
0
VERTEX
8
CONTOURS_MINEURES
10
118.439
20
69.995
0
VERTEX
8
CONTOURS_MINEURES
10
119.997
20
72.421
0
SEQEND
0
POLYLINE
8
CONTOURS_MINEURES
66
1
70
0
0
VERTEX
8
CONTOURS_MINEURES
10
110.404
20
125.000
0
VERTEX
8
CONTOURS_MINEURES
10
110.276
20
124.724
0
VERTEX
8
CONTOURS_MINEURES
10
110.000
20
124.037
0
VERTEX
8
CONTOURS_MINEURES
10
108.180
20
120.003
0
VERTEX
8
CONTOURS_MINEURES
10
106.852
20
118.149
0
VERTEX
8
CONTOURS_MINEURES
10
105.027
20
114.996
0
VERTEX
8
CONTOURS_MINEURES
10
105.002
20
114.964
0
VERTEX
8
CONTOURS_MINEURES
10
100.247
20
109.999
0
VERTEX
8
CONTOURS_MINEURES
10
100.128
20
109.875
0
VERTEX
8
CONTOURS_MINEURES
10
100.003
20
109.753
0
VERTEX
8
CONTOURS_MINEURES
10
95.909
20
105.003
0
VERTEX
8
CONTOURS_MINEURES
10
95.005
20
103.350
0
VERTEX
8
CONTOURS_MINEURES
10
94.003
20
100.997
0
VERTEX
8
CONTOURS_MINEURES
10
93.268
20
99.996
0
VERTEX
8
CONTOURS_MINEURES
10
89.996
20
95.885
0
VERTEX
8
CONTOURS_MINEURES
10
89.537
20
95.458
0
VERTEX
8
CONTOURS_MINEURES
10
88.849
20
94.999
0
VERTEX
8
CONTOURS_MINEURES
10
84.998
20
93.563
0
VERTEX
8
CONTOURS_MINEURES
10
81.867
20
93.132
0
VERTEX
8
CONTOURS_MINEURES
10
79.999
20
92.676
0
VERTEX
8
CONTOURS_MINEURES
10
76.952
20
91.953
0
VERTEX
8
CONTOURS_MINEURES
10
75.001
20
91.591
0
VERTEX
8
CONTOURS_MINEURES
10
73.765
20
91.238
0
VERTEX
8
CONTOURS_MINEURES
10
70.003
20
90.486
0
VERTEX
8
CONTOURS_MINEURES
10
67.460
20
90.003
0
VERTEX
8
CONTOURS_MINEURES
10
65.187
20
89.820
0
VERTEX
8
CONTOURS_MINEURES
10
65.004
20
89.800
0
VERTEX
8
CONTOURS_MINEURES
10
60.353
20
89.645
0
VERTEX
8
CONTOURS_MINEURES
10
59.995
20
89.596
0
VERTEX
8
CONTOURS_MINEURES
10
55.425
20
89.574
0
VERTEX
8
CONTOURS_MINEURES
10
54.997
20
89.457
0
VERTEX
8
CONTOURS_MINEURES
10
54.332
20
89.337
0
VERTEX
8
CONTOURS_MINEURES
10
49.999
20
89.326
0
VERTEX
8
CONTOURS_MINEURES
10
45.954
20
89.047
0
VERTEX
8
CONTOURS_MINEURES
10
45.000
20
88.894
0
VERTEX
8
CONTOURS_MINEURES
10
43.832
20
88.832
0
VERTEX
8
CONTOURS_MINEURES
10
40.002
20
88.497
0
VERTEX
8
CONTOURS_MINEURES
10
36.702
20
88.301
0
VERTEX
8
CONTOURS_MINEURES
10
35.004
20
88.276
0
VERTEX
8
CONTOURS_MINEURES
10
31.612
20
88.393
0
VERTEX
8
CONTOURS_MINEURES
10
30.005
20
88.437
0
VERTEX
8
CONTOURS_MINEURES
10
28.551
20
88.549
0
VERTEX
8
CONTOURS_MINEURES
10
24.996
20
88.870
0
VERTEX
8
CONTOURS_MINEURES
10
20.790
20
89.209
0
VERTEX
8
CONTOURS_MINEURES
10
19.998
20
89.258
0
VERTEX
8
CONTOURS_MINEURES
10
15.451
20
89.550
0
VERTEX
8
CONTOURS_MINEURES
10
15.000
20
89.599
0
VERTEX
8
CONTOURS_MINEURES
10
11.633
20
90.003
0
VERTEX
8
CONTOURS_MINEURES
10
10.420
20
90.421
0
VERTEX
8
CONTOURS_MINEURES
10
10.001
20
90.515
0
VERTEX
8
CONTOURS_MINEURES
10
9.225
20
90.779
0
VERTEX
8
CONTOURS_MINEURES
10
5.003
20
92.412
0
VERTEX
8
CONTOURS_MINEURES
10
3.008
20
93.005
0
VERTEX
8
CONTOURS_MINEURES
10
0.005
20
93.743
0
SEQEND
0
POLYLINE
8
CONTOURS_MINEURES
66
1
70
0
0
VERTEX
8
CONTOURS_MINEURES
10
0.005
20
2.602
0
VERTEX
8
CONTOURS_MINEURES
10
0.979
20
0.975
0
VERTEX
8
CONTOURS_MINEURES
10
1.822
20
0.001
0
SEQEND
0
POLYLINE
8
CONTOURS_MINEURES
66
1
70
0
0
VERTEX
8
CONTOURS_MINEURES
10
72.154
20
0.001
0
VERTEX
8
CONTOURS_MINEURES
10
71.782
20
1.780
0
VERTEX
8
CONTOURS_MINEURES
10
71.468
20
4.998
0
VERTEX
8
CONTOURS_MINEURES
10
71.476
20
6.474
0
VERTEX
8
CONTOURS_MINEURES
10
71.791
20
10.005
0
VERTEX
8
CONTOURS_MINEURES
10
72.254
20
12.751
0
VERTEX
8
CONTOURS_MINEURES
10
72.606
20
15.001
0
VERTEX
8
CONTOURS_MINEURES
10
73.651
20
18.648
0
VERTEX
8
CONTOURS_MINEURES
10
73.919
20
19.998
0
VERTEX
8
CONTOURS_MINEURES
10
74.094
20
20.906
0
VERTEX
8
CONTOURS_MINEURES
10
74.971
20
25.005
0
VERTEX
8
CONTOURS_MINEURES
10
74.979
20
25.027
0
VERTEX
8
CONTOURS_MINEURES
10
75.001
20
25.137
0
VERTEX
8
CONTOURS_MINEURES
10
76.331
20
30.002
0
VERTEX
8
CONTOURS_MINEURES
10
77.548
20
32.452
0
VERTEX
8
CONTOURS_MINEURES
10
78.759
20
34.998
0
VERTEX
8
CONTOURS_MINEURES
10
79.999
20
36.858
0
VERTEX
8
CONTOURS_MINEURES
10
82.217
20
39.994
0
VERTEX
8
CONTOURS_MINEURES
10
83.309
20
41.686
0
VERTEX
8
CONTOURS_MINEURES
10
84.998
20
44.303
0
VERTEX
8
CONTOURS_MINEURES
10
85.580
20
45.002
0
VERTEX
8
CONTOURS_MINEURES
10
88.060
20
46.937
0
VERTEX
8
CONTOURS_MINEURES
10
89.996
20
48.956
0
VERTEX
8
CONTOURS_MINEURES
10
90.497
20
49.499
0
VERTEX
8
CONTOURS_MINEURES
10
90.989
20
49.998
0
VERTEX
8
CONTOURS_MINEURES
10
95.005
20
53.436
0
VERTEX
8
CONTOURS_MINEURES
10
95.816
20
54.184
0
VERTEX
8
CONTOURS_MINEURES
10
96.433
20
54.995
0
VERTEX
8
CONTOURS_MINEURES
10
100.003
20
58.548
0
VERTEX
8
CONTOURS_MINEURES
10
100.885
20
59.119
0
VERTEX
8
CONTOURS_MINEURES
10
101.493
20
60.002
0
VERTEX
8
CONTOURS_MINEURES
10
103.457
20
61.546
0
VERTEX
8
CONTOURS_MINEURES
10
105.002
20
63.581
0
VERTEX
8
CONTOURS_MINEURES
10
105.838
20
64.163
0
VERTEX
8
CONTOURS_MINEURES
10
106.490
20
64.999
0
VERTEX
8
CONTOURS_MINEURES
10
110.000
20
67.961
0
VERTEX
8
CONTOURS_MINEURES
10
112.594
20
69.995
0
VERTEX
8
CONTOURS_MINEURES
10
114.020
20
70.975
0
VERTEX
8
CONTOURS_MINEURES
10
114.998
20
71.787
0
VERTEX
8
CONTOURS_MINEURES
10
117.285
20
75.002
0
VERTEX
8
CONTOURS_MINEURES
10
119.997
20
79.012
0
SEQEND
0
POLYLINE
8
CONTOURS_MINEURES
66
1
70
0
0
VERTEX
8
CONTOURS_MINEURES
10
115.137
20
125.000
0
VERTEX
8
CONTOURS_MINEURES
10
114.998
20
124.022
0
VERTEX
8
CONTOURS_MINEURES
10
113.723
20
121.278
0
VERTEX
8
CONTOURS_MINEURES
10
113.211
20
120.003
0
VERTEX
8
CONTOURS_MINEURES
10
110.067
20
115.063
0
VERTEX
8
CONTOURS_MINEURES
10
110.022
20
114.996
0
VERTEX
8
CONTOURS_MINEURES
10
110.014
20
114.982
0
VERTEX
8
CONTOURS_MINEURES
10
110.000
20
114.965
0
VERTEX
8
CONTOURS_MINEURES
10
106.080
20
109.999
0
VERTEX
8
CONTOURS_MINEURES
10
105.670
20
109.331
0
VERTEX
8
CONTOURS_MINEURES
10
105.002
20
108.599
0
VERTEX
8
CONTOURS_MINEURES
10
103.242
20
106.762
0
VERTEX
8
CONTOURS_MINEURES
10
101.449
20
105.003
0
VERTEX
8
CONTOURS_MINEURES
10
100.745
20
104.260
0
VERTEX
8
CONTOURS_MINEURES
10
100.003
20
103.203
0
VERTEX
8
CONTOURS_MINEURES
10
98.079
20
99.996
0
VERTEX
8
CONTOURS_MINEURES
10
96.920
20
98.082
0
VERTEX
8
CONTOURS_MINEURES
10
95.005
20
95.513
0
VERTEX
8
CONTOURS_MINEURES
10
94.603
20
94.999
0
VERTEX
8
CONTOURS_MINEURES
10
92.028
20
92.972
0
VERTEX
8
CONTOURS_MINEURES
10
89.996
20
92.076
0
VERTEX
8
CONTOURS_MINEURES
10
85.802
20
90.807
0
VERTEX
8
CONTOURS_MINEURES
10
84.998
20
90.507
0
VERTEX
8
CONTOURS_MINEURES
10
84.554
20
90.446
0
VERTEX
8
CONTOURS_MINEURES
10
82.738
20
90.003
0
VERTEX
8
CONTOURS_MINEURES
10
79.999
20
89.718
0
VERTEX
8
CONTOURS_MINEURES
10
75.717
20
89.286
0
VERTEX
8
CONTOURS_MINEURES
10
75.001
20
89.225
0
VERTEX
8
CONTOURS_MINEURES
10
74.149
20
89.149
0
VERTEX
8
CONTOURS_MINEURES
10
70.003
20
88.798
0
VERTEX
8
CONTOURS_MINEURES
10
66.488
20
88.516
0
VERTEX
8
CONTOURS_MINEURES
10
65.004
20
88.351
0
VERTEX
8
CONTOURS_MINEURES
10
61.756
20
88.242
0
VERTEX
8
CONTOURS_MINEURES
10
59.995
20
88.001
0
VERTEX
8
CONTOURS_MINEURES
10
57.009
20
87.987
0
VERTEX
8
CONTOURS_MINEURES
10
54.997
20
87.433
0
VERTEX
8
CONTOURS_MINEURES
10
51.870
20
86.870
0
VERTEX
8
CONTOURS_MINEURES
10
49.999
20
86.865
0
VERTEX
8
CONTOURS_MINEURES
10
48.252
20
86.745
0
VERTEX
8
CONTOURS_MINEURES
10
45.000
20
86.224
0
VERTEX
8
CONTOURS_MINEURES
10
41.016
20
86.011
0
VERTEX
8
CONTOURS_MINEURES
10
40.002
20
85.922
0
VERTEX
8
CONTOURS_MINEURES
10
39.128
20
85.870
0
VERTEX
8
CONTOURS_MINEURES
10
35.004
20
85.809
0
VERTEX
8
CONTOURS_MINEURES
10
34.162
20
85.838
0
VERTEX
8
CONTOURS_MINEURES
10
30.005
20
85.952
0
VERTEX
8
CONTOURS_MINEURES
10
26.243
20
86.241
0
VERTEX
8
CONTOURS_MINEURES
10
24.996
20
86.354
0
VERTEX
8
CONTOURS_MINEURES
10
23.521
20
86.473
0
VERTEX
8
CONTOURS_MINEURES
10
19.998
20
86.690
0
VERTEX
8
CONTOURS_MINEURES
10
18.190
20
86.806
0
VERTEX
8
CONTOURS_MINEURES
10
15.000
20
87.150
0
VERTEX
8
CONTOURS_MINEURES
10
12.556
20
87.443
0
VERTEX
8
CONTOURS_MINEURES
10
10.001
20
87.777
0
VERTEX
8
CONTOURS_MINEURES
10
8.081
20
88.079
0
VERTEX
8
CONTOURS_MINEURES
10
5.003
20
88.563
0
VERTEX
8
CONTOURS_MINEURES
10
3.813
20
88.811
0
VERTEX
8
CONTOURS_MINEURES
10
0.005
20
89.235
0
SEQEND
0
POLYLINE
8
CONTOURS_MINEURES
66
1
70
0
0
VERTEX
8
CONTOURS_MINEURES
10
0.005
20
8.717
0
VERTEX
8
CONTOURS_MINEURES
10
1.570
20
6.566
0
VERTEX
8
CONTOURS_MINEURES
10
2.668
20
4.998
0
VERTEX
8
CONTOURS_MINEURES
10
3.542
20
3.537
0
VERTEX
8
CONTOURS_MINEURES
10
5.003
20
1.851
0
VERTEX
8
CONTOURS_MINEURES
10
6.561
20
0.001
0
SEQEND
0
POLYLINE
8
CONTOURS_MINEURES
66
1
70
0
0
VERTEX
8
CONTOURS_MINEURES
10
66.846
20
0.001
0
VERTEX
8
CONTOURS_MINEURES
10
66.670
20
3.332
0
VERTEX
8
CONTOURS_MINEURES
10
66.539
20
4.998
0
VERTEX
8
CONTOURS_MINEURES
10
67.059
20
7.947
0
VERTEX
8
CONTOURS_MINEURES
10
67.207
20
10.005
0
VERTEX
8
CONTOURS_MINEURES
10
67.552
20
12.552
0
VERTEX
8
CONTOURS_MINEURES
10
68.080
20
15.001
0
VERTEX
8
CONTOURS_MINEURES
10
68.374
20
16.629
0
VERTEX
8
CONTOURS_MINEURES
10
68.794
20
19.998
0
VERTEX
8
CONTOURS_MINEURES
10
68.988
20
21.015
0
VERTEX
8
CONTOURS_MINEURES
10
69.438
20
25.005
0
VERTEX
8
CONTOURS_MINEURES
10
69.549
20
25.458
0
VERTEX
8
CONTOURS_MINEURES
10
70.003
20
27.542
0
VERTEX
8
CONTOURS_MINEURES
10
70.689
20
29.315
0
VERTEX
8
CONTOURS_MINEURES
10
70.823
20
30.002
0
VERTEX
8
CONTOURS_MINEURES
10
72.027
20
32.974
0
VERTEX
8
CONTOURS_MINEURES
10
72.709
20
34.998
0
VERTEX
8
CONTOURS_MINEURES
10
75.001
20
39.695
0
VERTEX
8
CONTOURS_MINEURES
10
75.205
20
39.994
0
VERTEX
8
CONTOURS_MINEURES
10
77.111
20
42.888
0
VERTEX
8
CONTOURS_MINEURES
10
78.259
20
45.002
0
VERTEX
8
CONTOURS_MINEURES
10
79.156
20
45.845
0
VERTEX
8
CONTOURS_MINEURES
10
79.999
20
46.897
0
VERTEX
8
CONTOURS_MINEURES
10
83.080
20
49.998
0
VERTEX
8
CONTOURS_MINEURES
10
84.193
20
50.802
0
VERTEX
8
CONTOURS_MINEURES
10
84.998
20
51.694
0
VERTEX
8
CONTOURS_MINEURES
10
88.889
20
54.995
0
VERTEX
8
CONTOURS_MINEURES
10
89.552
20
55.440
0
VERTEX
8
CONTOURS_MINEURES
10
89.996
20
55.843
0
VERTEX
8
CONTOURS_MINEURES
10
92.468
20
57.531
0
VERTEX
8
CONTOURS_MINEURES
10
95.005
20
59.217
0
VERTEX
8
CONTOURS_MINEURES
10
95.793
20
60.002
0
VERTEX
8
CONTOURS_MINEURES
10
100.003
20
64.036
0
VERTEX
8
CONTOURS_MINEURES
10
100.542
20
64.460
0
VERTEX
8
CONTOURS_MINEURES
10
100.952
20
64.999
0
VERTEX
8
CONTOURS_MINEURES
10
105.002
20
68.539
0
VERTEX
8
CONTOURS_MINEURES
10
106.651
20
69.995
0
VERTEX
8
CONTOURS_MINEURES
10
110.000
20
73.456
0
VERTEX
8
CONTOURS_MINEURES
10
110.916
20
74.085
0
VERTEX
8
CONTOURS_MINEURES
10
112.020
20
75.002
0
VERTEX
8
CONTOURS_MINEURES
10
114.998
20
77.605
0
VERTEX
8
CONTOURS_MINEURES
10
116.617
20
79.999
0
VERTEX
8
CONTOURS_MINEURES
10
117.990
20
82.005
0
VERTEX
8
CONTOURS_MINEURES
10
119.591
20
84.995
0
VERTEX
8
CONTOURS_MINEURES
10
119.997
20
85.321
0
SEQEND
0
POLYLINE
8
CONTOURS_MINEURES
66
1
70
0
0
VERTEX
8
CONTOURS_MINEURES
10
116.682
20
125.000
0
VERTEX
8
CONTOURS_MINEURES
10
116.133
20
121.138
0
VERTEX
8
CONTOURS_MINEURES
10
116.058
20
120.003
0
VERTEX
8
CONTOURS_MINEURES
10
115.995
20
119.005
0
VERTEX
8
CONTOURS_MINEURES
10
114.998
20
115.825
0
VERTEX
8
CONTOURS_MINEURES
10
114.445
20
114.996
0
VERTEX
8
CONTOURS_MINEURES
10
112.730
20
112.267
0
VERTEX
8
CONTOURS_MINEURES
10
110.966
20
109.999
0
VERTEX
8
CONTOURS_MINEURES
10
110.000
20
108.401
0
VERTEX
8
CONTOURS_MINEURES
10
108.709
20
106.294
0
VERTEX
8
CONTOURS_MINEURES
10
107.530
20
105.003
0
VERTEX
8
CONTOURS_MINEURES
10
105.002
20
102.118
0
VERTEX
8
CONTOURS_MINEURES
10
103.970
20
101.029
0
VERTEX
8
CONTOURS_MINEURES
10
103.244
20
99.996
0
VERTEX
8
CONTOURS_MINEURES
10
101.900
20
98.100
0
VERTEX
8
CONTOURS_MINEURES
10
100.003
20
95.425
0
VERTEX
8
CONTOURS_MINEURES
10
99.843
20
95.160
0
VERTEX
8
CONTOURS_MINEURES
10
99.723
20
94.999
0
VERTEX
8
CONTOURS_MINEURES
10
95.005
20
91.099
0
VERTEX
8
CONTOURS_MINEURES
10
94.391
20
90.616
0
VERTEX
8
CONTOURS_MINEURES
10
93.001
20
90.003
0
VERTEX
8
CONTOURS_MINEURES
10
90.610
20
89.389
0
VERTEX
8
CONTOURS_MINEURES
10
89.996
20
89.346
0
VERTEX
8
CONTOURS_MINEURES
10
86.218
20
88.780
0
VERTEX
8
CONTOURS_MINEURES
10
84.998
20
88.680
0
VERTEX
8
CONTOURS_MINEURES
10
83.675
20
88.677
0
VERTEX
8
CONTOURS_MINEURES
10
79.999
20
88.296
0
VERTEX
8
CONTOURS_MINEURES
10
77.007
20
87.993
0
VERTEX
8
CONTOURS_MINEURES
10
75.001
20
87.825
0
VERTEX
8
CONTOURS_MINEURES
10
72.613
20
87.611
0
VERTEX
8
CONTOURS_MINEURES
10
70.003
20
87.390
0
VERTEX
8
CONTOURS_MINEURES
10
67.790
20
87.212
0
VERTEX
8
CONTOURS_MINEURES
10
65.004
20
86.901
0
VERTEX
8
CONTOURS_MINEURES
10
63.159
20
86.840
0
VERTEX
8
CONTOURS_MINEURES
10
59.995
20
86.407
0
VERTEX
8
CONTOURS_MINEURES
10
58.593
20
86.400
0
VERTEX
8
CONTOURS_MINEURES
10
54.997
20
85.410
0
VERTEX
8
CONTOURS_MINEURES
10
52.694
20
84.995
0
VERTEX
8
CONTOURS_MINEURES
10
50.606
20
84.388
0
VERTEX
8
CONTOURS_MINEURES
10
49.999
20
84.201
0
VERTEX
8
CONTOURS_MINEURES
10
48.999
20
83.996
0
VERTEX
8
CONTOURS_MINEURES
10
45.000
20
83.197
0
VERTEX
8
CONTOURS_MINEURES
10
42.001
20
82.997
0
VERTEX
8
CONTOURS_MINEURES
10
40.002
20
82.686
0
VERTEX
8
CONTOURS_MINEURES
10
37.291
20
82.285
0
VERTEX
8
CONTOURS_MINEURES
10
35.004
20
82.229
0
VERTEX
8
CONTOURS_MINEURES
10
32.667
20
82.335
0
VERTEX
8
CONTOURS_MINEURES
10
30.005
20
82.566
0
VERTEX
8
CONTOURS_MINEURES
10
27.072
20
82.925
0
VERTEX
8
CONTOURS_MINEURES
10
24.996
20
83.221
0
VERTEX
8
CONTOURS_MINEURES
10
23.383
20
83.382
0
VERTEX
8
CONTOURS_MINEURES
10
19.998
20
83.694
0
VERTEX
8
CONTOURS_MINEURES
10
18.857
20
83.855
0
VERTEX
8
CONTOURS_MINEURES
10
15.000
20
84.523
0
VERTEX
8
CONTOURS_MINEURES
10
12.778
20
84.995
0
VERTEX
8
CONTOURS_MINEURES
10
10.001
20
85.358
0
VERTEX
8
CONTOURS_MINEURES
10
5.994
20
85.988
0
VERTEX
8
CONTOURS_MINEURES
10
5.003
20
86.144
0
VERTEX
8
CONTOURS_MINEURES
10
1.814
20
86.808
0
VERTEX
8
CONTOURS_MINEURES
10
0.005
20
87.009
0
SEQEND
0
POLYLINE
8
CONTOURS_MINEURES
66
1
70
0
0
VERTEX
8
CONTOURS_MINEURES
10
0.005
20
16.849
0
VERTEX
8
CONTOURS_MINEURES
10
0.594
20
15.001
0
VERTEX
8
CONTOURS_MINEURES
10
1.210
20
13.797
0
VERTEX
8
CONTOURS_MINEURES
10
3.233
20
10.005
0
VERTEX
8
CONTOURS_MINEURES
10
3.979
20
8.979
0
VERTEX
8
CONTOURS_MINEURES
10
5.003
20
7.516
0
VERTEX
8
CONTOURS_MINEURES
10
6.772
20
4.998
0
VERTEX
8
CONTOURS_MINEURES
10
10.001
20
1.244
0
VERTEX
8
CONTOURS_MINEURES
10
10.629
20
0.629
0
VERTEX
8
CONTOURS_MINEURES
10
11.257
20
0.001
0
SEQEND
0
POLYLINE
8
CONTOURS_MINEURES
66
1
70
0
0
VERTEX
8
CONTOURS_MINEURES
10
59.877
20
0.001
0
VERTEX
8
CONTOURS_MINEURES
10
59.871
20
0.125
0
VERTEX
8
CONTOURS_MINEURES
10
59.995
20
1.818
0
VERTEX
8
CONTOURS_MINEURES
10
60.469
20
4.998
0
VERTEX
8
CONTOURS_MINEURES
10
61.472
20
8.529
0
VERTEX
8
CONTOURS_MINEURES
10
61.841
20
10.005
0
VERTEX
8
CONTOURS_MINEURES
10
62.917
20
12.920
0
VERTEX
8
CONTOURS_MINEURES
10
63.593
20
15.001
0
VERTEX
8
CONTOURS_MINEURES
10
65.004
20
19.254
0
VERTEX
8
CONTOURS_MINEURES
10
65.118
20
19.884
0
VERTEX
8
CONTOURS_MINEURES
10
65.132
20
19.998
0
VERTEX
8
CONTOURS_MINEURES
10
65.912
20
24.096
0
VERTEX
8
CONTOURS_MINEURES
10
66.014
20
25.005
0
VERTEX
8
CONTOURS_MINEURES
10
66.803
20
28.204
0
VERTEX
8
CONTOURS_MINEURES
10
67.194
20
30.002
0
VERTEX
8
CONTOURS_MINEURES
10
67.981
20
32.977
0
VERTEX
8
CONTOURS_MINEURES
10
68.436
20
34.998
0
VERTEX
8
CONTOURS_MINEURES
10
68.706
20
36.295
0
VERTEX
8
CONTOURS_MINEURES
10
70.003
20
39.885
0
VERTEX
8
CONTOURS_MINEURES
10
70.054
20
39.994
0
VERTEX
8
CONTOURS_MINEURES
10
71.832
20
43.169
0
VERTEX
8
CONTOURS_MINEURES
10
72.681
20
45.002
0
VERTEX
8
CONTOURS_MINEURES
10
75.001
20
47.887
0
VERTEX
8
CONTOURS_MINEURES
10
76.090
20
48.910
0
VERTEX
8
CONTOURS_MINEURES
10
76.962
20
49.998
0
VERTEX
8
CONTOURS_MINEURES
10
78.575
20
51.422
0
VERTEX
8
CONTOURS_MINEURES
10
79.999
20
52.719
0
VERTEX
8
CONTOURS_MINEURES
10
81.321
20
53.674
0
VERTEX
8
CONTOURS_MINEURES
10
82.512
20
54.995
0
VERTEX
8
CONTOURS_MINEURES
10
84.998
20
57.175
0
VERTEX
8
CONTOURS_MINEURES
10
86.688
20
58.309
0
VERTEX
8
CONTOURS_MINEURES
10
88.551
20
60.002
0
VERTEX
8
CONTOURS_MINEURES
10
89.996
20
61.063
0
VERTEX
8
CONTOURS_MINEURES
10
92.551
20
62.450
0
VERTEX
8
CONTOURS_MINEURES
10
95.005
20
64.475
0
VERTEX
8
CONTOURS_MINEURES
10
95.551
20
64.999
0
VERTEX
8
CONTOURS_MINEURES
10
98.026
20
66.975
0
VERTEX
8
CONTOURS_MINEURES
10
100.003
20
68.060
0
VERTEX
8
CONTOURS_MINEURES
10
102.166
20
69.995
0
VERTEX
8
CONTOURS_MINEURES
10
103.461
20
71.538
0
VERTEX
8
CONTOURS_MINEURES
10
105.002
20
73.013
0
VERTEX
8
CONTOURS_MINEURES
10
106.936
20
75.002
0
VERTEX
8
CONTOURS_MINEURES
10
108.285
20
76.717
0
VERTEX
8
CONTOURS_MINEURES
10
110.000
20
78.456
0
VERTEX
8
CONTOURS_MINEURES
10
111.721
20
79.999
0
VERTEX
8
CONTOURS_MINEURES
10
113.250
20
81.747
0
VERTEX
8
CONTOURS_MINEURES
10
114.998
20
83.547
0
VERTEX
8
CONTOURS_MINEURES
10
115.587
20
84.407
0
VERTEX
8
CONTOURS_MINEURES
10
115.902
20
84.995
0
VERTEX
8
CONTOURS_MINEURES
10
119.997
20
88.284
0
SEQEND
0
POLYLINE
8
CONTOURS_MINEURES
66
1
70
0
0
VERTEX
8
CONTOURS_MINEURES
10
118.227
20
125.000
0
VERTEX
8
CONTOURS_MINEURES
10
117.934
20
122.938
0
VERTEX
8
CONTOURS_MINEURES
10
117.741
20
120.003
0
VERTEX
8
CONTOURS_MINEURES
10
117.576
20
117.420
0
VERTEX
8
CONTOURS_MINEURES
10
116.817
20
114.996
0
VERTEX
8
CONTOURS_MINEURES
10
115.485
20
110.486
0
VERTEX
8
CONTOURS_MINEURES
10
115.420
20
109.999
0
VERTEX
8
CONTOURS_MINEURES
10
115.396
20
109.602
0
VERTEX
8
CONTOURS_MINEURES
10
114.998
20
108.334
0
VERTEX
8
CONTOURS_MINEURES
10
113.176
20
105.003
0
VERTEX
8
CONTOURS_MINEURES
10
112.153
20
102.846
0
VERTEX
8
CONTOURS_MINEURES
10
110.128
20
99.996
0
VERTEX
8
CONTOURS_MINEURES
10
110.000
20
99.850
0
VERTEX
8
CONTOURS_MINEURES
10
105.252
20
94.999
0
VERTEX
8
CONTOURS_MINEURES
10
105.124
20
94.877
0
VERTEX
8
CONTOURS_MINEURES
10
105.002
20
94.779
0
VERTEX
8
CONTOURS_MINEURES
10
100.131
20
90.003
0
VERTEX
8
CONTOURS_MINEURES
10
100.063
20
89.943
0
VERTEX
8
CONTOURS_MINEURES
10
100.003
20
89.947
0
VERTEX
8
CONTOURS_MINEURES
10
99.948
20
89.947
0
VERTEX
8
CONTOURS_MINEURES
10
95.005
20
88.538
0
VERTEX
8
CONTOURS_MINEURES
10
92.185
20
87.814
0
VERTEX
8
CONTOURS_MINEURES
10
89.996
20
87.663
0
VERTEX
8
CONTOURS_MINEURES
10
87.679
20
87.316
0
VERTEX
8
CONTOURS_MINEURES
10
84.998
20
87.095
0
VERTEX
8
CONTOURS_MINEURES
10
82.090
20
87.090
0
VERTEX
8
CONTOURS_MINEURES
10
79.999
20
86.873
0
VERTEX
8
CONTOURS_MINEURES
10
78.297
20
86.701
0
VERTEX
8
CONTOURS_MINEURES
10
75.001
20
86.424
0
VERTEX
8
CONTOURS_MINEURES
10
71.077
20
86.072
0
VERTEX
8
CONTOURS_MINEURES
10
70.003
20
85.981
0
VERTEX
8
CONTOURS_MINEURES
10
69.091
20
85.908
0
VERTEX
8
CONTOURS_MINEURES
10
65.004
20
85.452
0
VERTEX
8
CONTOURS_MINEURES
10
64.562
20
85.437
0
VERTEX
8
CONTOURS_MINEURES
10
61.335
20
84.995
0
VERTEX
8
CONTOURS_MINEURES
10
59.995
20
84.615
0
VERTEX
8
CONTOURS_MINEURES
10
59.319
20
84.319
0
VERTEX
8
CONTOURS_MINEURES
10
54.997
20
82.399
0
VERTEX
8
CONTOURS_MINEURES
10
53.137
20
81.858
0
VERTEX
8
CONTOURS_MINEURES
10
49.999
20
80.892
0
VERTEX
8
CONTOURS_MINEURES
10
45.645
20
79.999
0
VERTEX
8
CONTOURS_MINEURES
10
45.000
20
79.869
0
VERTEX
8
CONTOURS_MINEURES
10
40.730
20
79.271
0
VERTEX
8
CONTOURS_MINEURES
10
40.002
20
79.172
0
VERTEX
8
CONTOURS_MINEURES
10
36.321
20
78.682
0
VERTEX
8
CONTOURS_MINEURES
10
35.004
20
78.369
0
VERTEX
8
CONTOURS_MINEURES
10
33.562
20
78.558
0
VERTEX
8
CONTOURS_MINEURES
10
30.005
20
78.821
0
VERTEX
8
CONTOURS_MINEURES
10
28.916
20
78.913
0
VERTEX
8
CONTOURS_MINEURES
10
24.996
20
79.420
0
VERTEX
8
CONTOURS_MINEURES
10
24.392
20
79.395
0
VERTEX
8
CONTOURS_MINEURES
10
19.998
20
79.857
0
VERTEX
8
CONTOURS_MINEURES
10
19.052
20
79.999
0
VERTEX
8
CONTOURS_MINEURES
10
15.503
20
80.502
0
VERTEX
8
CONTOURS_MINEURES
10
15.000
20
80.589
0
VERTEX
8
CONTOURS_MINEURES
10
14.250
20
80.748
0
VERTEX
8
CONTOURS_MINEURES
10
10.001
20
81.134
0
VERTEX
8
CONTOURS_MINEURES
10
6.533
20
81.528
0
VERTEX
8
CONTOURS_MINEURES
10
5.003
20
82.081
0
VERTEX
8
CONTOURS_MINEURES
10
1.015
20
83.985
0
VERTEX
8
CONTOURS_MINEURES
10
0.005
20
84.327
0
SEQEND
0
POLYLINE
8
CONTOURS_MINEURES
66
1
70
0
0
VERTEX
8
CONTOURS_MINEURES
10
0.005
20
46.689
0
VERTEX
8
CONTOURS_MINEURES
10
0.700
20
45.002
0
VERTEX
8
CONTOURS_MINEURES
10
1.884
20
41.877
0
VERTEX
8
CONTOURS_MINEURES
10
1.834
20
39.994
0
VERTEX
8
CONTOURS_MINEURES
10
1.676
20
38.323
0
VERTEX
8
CONTOURS_MINEURES
10
1.931
20
34.998
0
VERTEX
8
CONTOURS_MINEURES
10
1.744
20
31.740
0
VERTEX
8
CONTOURS_MINEURES
10
1.506
20
30.002
0
VERTEX
8
CONTOURS_MINEURES
10
1.555
20
28.452
0
VERTEX
8
CONTOURS_MINEURES
10
1.779
20
25.005
0
VERTEX
8
CONTOURS_MINEURES
10
2.014
20
22.011
0
VERTEX
8
CONTOURS_MINEURES
10
2.687
20
19.998
0
VERTEX
8
CONTOURS_MINEURES
10
4.939
20
15.065
0
VERTEX
8
CONTOURS_MINEURES
10
4.959
20
15.001
0
VERTEX
8
CONTOURS_MINEURES
10
5.003
20
14.916
0
VERTEX
8
CONTOURS_MINEURES
10
6.766
20
11.768
0
VERTEX
8
CONTOURS_MINEURES
10
7.546
20
10.005
0
VERTEX
8
CONTOURS_MINEURES
10
10.001
20
6.396
0
VERTEX
8
CONTOURS_MINEURES
10
10.615
20
5.613
0
VERTEX
8
CONTOURS_MINEURES
10
11.050
20
4.998
0
VERTEX
8
CONTOURS_MINEURES
10
13.044
20
3.042
0
VERTEX
8
CONTOURS_MINEURES
10
15.000
20
1.087
0
VERTEX
8
CONTOURS_MINEURES
10
16.013
20
0.001
0
SEQEND
0
POLYLINE
8
CONTOURS_MINEURES
66
1
70
0
0
VERTEX
8
CONTOURS_MINEURES
10
56.910
20
0.001
0
VERTEX
8
CONTOURS_MINEURES
10
56.776
20
3.219
0
VERTEX
8
CONTOURS_MINEURES
10
56.907
20
4.998
0
VERTEX
8
CONTOURS_MINEURES
10
57.216
20
7.221
0
VERTEX
8
CONTOURS_MINEURES
10
57.057
20
10.005
0
VERTEX
8
CONTOURS_MINEURES
10
57.057
20
12.942
0
VERTEX
8
CONTOURS_MINEURES
10
57.534
20
15.001
0
VERTEX
8
CONTOURS_MINEURES
10
57.663
20
17.333
0
VERTEX
8
CONTOURS_MINEURES
10
58.632
20
19.998
0
VERTEX
8
CONTOURS_MINEURES
10
58.907
20
21.087
0
VERTEX
8
CONTOURS_MINEURES
10
59.995
20
23.046
0
VERTEX
8
CONTOURS_MINEURES
10
60.610
20
24.391
0
VERTEX
8
CONTOURS_MINEURES
10
60.800
20
25.005
0
VERTEX
8
CONTOURS_MINEURES
10
61.986
20
28.016
0
VERTEX
8
CONTOURS_MINEURES
10
62.871
20
30.002
0
VERTEX
8
CONTOURS_MINEURES
10
64.749
20
34.743
0
VERTEX
8
CONTOURS_MINEURES
10
64.847
20
34.998
0
VERTEX
8
CONTOURS_MINEURES
10
65.004
20
35.421
0
VERTEX
8
CONTOURS_MINEURES
10
65.791
20
39.208
0
VERTEX
8
CONTOURS_MINEURES
10
66.075
20
39.994
0
VERTEX
8
CONTOURS_MINEURES
10
66.905
20
41.899
0
VERTEX
8
CONTOURS_MINEURES
10
68.082
20
45.002
0
VERTEX
8
CONTOURS_MINEURES
10
70.003
20
47.604
0
VERTEX
8
CONTOURS_MINEURES
10
71.931
20
49.998
0
VERTEX
8
CONTOURS_MINEURES
10
75.001
20
53.142
0
VERTEX
8
CONTOURS_MINEURES
10
75.985
20
54.011
0
VERTEX
8
CONTOURS_MINEURES
10
77.065
20
54.995
0
VERTEX
8
CONTOURS_MINEURES
10
79.999
20
57.633
0
VERTEX
8
CONTOURS_MINEURES
10
82.708
20
60.002
0
VERTEX
8
CONTOURS_MINEURES
10
83.579
20
61.420
0
VERTEX
8
CONTOURS_MINEURES
10
84.998
20
61.972
0
VERTEX
8
CONTOURS_MINEURES
10
89.253
20
64.999
0
VERTEX
8
CONTOURS_MINEURES
10
89.530
20
65.464
0
VERTEX
8
CONTOURS_MINEURES
10
89.996
20
65.603
0
VERTEX
8
CONTOURS_MINEURES
10
91.548
20
66.547
0
VERTEX
8
CONTOURS_MINEURES
10
95.005
20
68.926
0
VERTEX
8
CONTOURS_MINEURES
10
95.599
20
69.401
0
VERTEX
8
CONTOURS_MINEURES
10
96.682
20
69.995
0
VERTEX
8
CONTOURS_MINEURES
10
100.003
20
72.424
0
VERTEX
8
CONTOURS_MINEURES
10
101.179
20
73.825
0
VERTEX
8
CONTOURS_MINEURES
10
102.409
20
75.002
0
VERTEX
8
CONTOURS_MINEURES
10
105.002
20
78.067
0
VERTEX
8
CONTOURS_MINEURES
10
105.853
20
79.148
0
VERTEX
8
CONTOURS_MINEURES
10
106.692
20
79.999
0
VERTEX
8
CONTOURS_MINEURES
10
110.000
20
84.277
0
VERTEX
8
CONTOURS_MINEURES
10
110.335
20
84.660
0
VERTEX
8
CONTOURS_MINEURES
10
110.661
20
84.995
0
VERTEX
8
CONTOURS_MINEURES
10
114.998
20
88.159
0
VERTEX
8
CONTOURS_MINEURES
10
117.556
20
90.003
0
VERTEX
8
CONTOURS_MINEURES
10
116.691
20
93.307
0
VERTEX
8
CONTOURS_MINEURES
10
119.997
20
92.284
0
SEQEND
0
POLYLINE
8
CONTOURS_MINEURES
66
1
70
0
0
VERTEX
8
CONTOURS_MINEURES
10
119.773
20
125.000
0
VERTEX
8
CONTOURS_MINEURES
10
119.735
20
124.739
0
VERTEX
8
CONTOURS_MINEURES
10
119.424
20
120.003
0
VERTEX
8
CONTOURS_MINEURES
10
119.158
20
115.836
0
VERTEX
8
CONTOURS_MINEURES
10
118.895
20
114.996
0
VERTEX
8
CONTOURS_MINEURES
10
118.434
20
113.434
0
VERTEX
8
CONTOURS_MINEURES
10
117.977
20
109.999
0
VERTEX
8
CONTOURS_MINEURES
10
117.805
20
107.194
0
VERTEX
8
CONTOURS_MINEURES
10
117.118
20
105.003
0
VERTEX
8
CONTOURS_MINEURES
10
116.041
20
101.041
0
VERTEX
8
CONTOURS_MINEURES
10
116.130
20
99.996
0
VERTEX
8
CONTOURS_MINEURES
10
116.619
20
98.375
0
VERTEX
8
CONTOURS_MINEURES
10
114.998
20
97.360
0
VERTEX
8
CONTOURS_MINEURES
10
113.044
20
94.999
0
VERTEX
8
CONTOURS_MINEURES
10
110.000
20
92.722
0
VERTEX
8
CONTOURS_MINEURES
10
108.607
20
91.395
0
VERTEX
8
CONTOURS_MINEURES
10
106.876
20
90.003
0
VERTEX
8
CONTOURS_MINEURES
10
108.381
20
86.617
0
VERTEX
8
CONTOURS_MINEURES
10
105.002
20
88.652
0
VERTEX
8
CONTOURS_MINEURES
10
103.056
20
86.944
0
VERTEX
8
CONTOURS_MINEURES
10
100.003
20
87.157
0
VERTEX
8
CONTOURS_MINEURES
10
97.187
20
87.181
0
VERTEX
8
CONTOURS_MINEURES
10
95.005
20
86.559
0
VERTEX
8
CONTOURS_MINEURES
10
93.761
20
86.239
0
VERTEX
8
CONTOURS_MINEURES
10
89.996
20
85.980
0
VERTEX
8
CONTOURS_MINEURES
10
89.141
20
85.852
0
VERTEX
8
CONTOURS_MINEURES
10
84.998
20
85.510
0
VERTEX
8
CONTOURS_MINEURES
10
80.506
20
85.503
0
VERTEX
8
CONTOURS_MINEURES
10
79.999
20
85.451
0
VERTEX
8
CONTOURS_MINEURES
10
79.586
20
85.409
0
VERTEX
8
CONTOURS_MINEURES
10
75.001
20
85.023
0
VERTEX
8
CONTOURS_MINEURES
10
74.689
20
84.995
0
VERTEX
8
CONTOURS_MINEURES
10
71.030
20
83.969
0
VERTEX
8
CONTOURS_MINEURES
10
70.003
20
83.905
0
VERTEX
8
CONTOURS_MINEURES
10
68.670
20
83.663
0
VERTEX
8
CONTOURS_MINEURES
10
65.004
20
82.729
0
VERTEX
8
CONTOURS_MINEURES
10
61.827
20
81.826
0
VERTEX
8
CONTOURS_MINEURES
10
59.995
20
81.306
0
VERTEX
8
CONTOURS_MINEURES
10
57.004
20
79.999
0
VERTEX
8
CONTOURS_MINEURES
10
55.923
20
79.073
0
VERTEX
8
CONTOURS_MINEURES
10
54.997
20
79.000
0
VERTEX
8
CONTOURS_MINEURES
10
53.711
20
78.713
0
VERTEX
8
CONTOURS_MINEURES
10
49.999
20
77.559
0
VERTEX
8
CONTOURS_MINEURES
10
47.020
20
77.021
0
VERTEX
8
CONTOURS_MINEURES
10
45.000
20
76.614
0
VERTEX
8
CONTOURS_MINEURES
10
43.586
20
76.416
0
VERTEX
8
CONTOURS_MINEURES
10
40.002
20
75.927
0
VERTEX
8
CONTOURS_MINEURES
10
39.186
20
75.819
0
VERTEX
8
CONTOURS_MINEURES
10
35.750
20
75.002
0
VERTEX
8
CONTOURS_MINEURES
10
35.178
20
74.827
0
VERTEX
8
CONTOURS_MINEURES
10
35.004
20
74.804
0
VERTEX
8
CONTOURS_MINEURES
10
34.808
20
74.807
0
VERTEX
8
CONTOURS_MINEURES
10
33.653
20
75.002
0
VERTEX
8
CONTOURS_MINEURES
10
30.428
20
75.425
0
VERTEX
8
CONTOURS_MINEURES
10
30.005
20
75.457
0
VERTEX
8
CONTOURS_MINEURES
10
25.805
20
75.809
0
VERTEX
8
CONTOURS_MINEURES
10
24.996
20
75.914
0
VERTEX
8
CONTOURS_MINEURES
10
20.730
20
75.735
0
VERTEX
8
CONTOURS_MINEURES
10
19.998
20
75.812
0
VERTEX
8
CONTOURS_MINEURES
10
19.046
20
75.954
0
VERTEX
8
CONTOURS_MINEURES
10
15.000
20
76.338
0
VERTEX
8
CONTOURS_MINEURES
10
11.102
20
76.103
0
VERTEX
8
CONTOURS_MINEURES
10
10.001
20
76.214
0
VERTEX
8
CONTOURS_MINEURES
10
8.614
20
76.389
0
VERTEX
8
CONTOURS_MINEURES
10
5.003
20
75.721
0
VERTEX
8
CONTOURS_MINEURES
10
0.270
20
75.267
0
VERTEX
8
CONTOURS_MINEURES
10
0.005
20
75.419
0
SEQEND
0
POLYLINE
8
CONTOURS_MINEURES
66
1
70
0
0
VERTEX
8
CONTOURS_MINEURES
10
52.180
20
0.001
0
VERTEX
8
CONTOURS_MINEURES
10
51.962
20
1.964
0
VERTEX
8
CONTOURS_MINEURES
10
52.202
20
4.998
0
VERTEX
8
CONTOURS_MINEURES
10
52.453
20
7.546
0
VERTEX
8
CONTOURS_MINEURES
10
52.263
20
10.005
0
VERTEX
8
CONTOURS_MINEURES
10
52.263
20
12.269
0
VERTEX
8
CONTOURS_MINEURES
10
52.263
20
15.001
0
VERTEX
8
CONTOURS_MINEURES
10
52.571
20
17.426
0
VERTEX
8
CONTOURS_MINEURES
10
52.718
20
19.998
0
VERTEX
8
CONTOURS_MINEURES
10
53.406
20
23.412
0
VERTEX
8
CONTOURS_MINEURES
10
53.772
20
25.005
0
VERTEX
8
CONTOURS_MINEURES
10
53.701
20
26.301
0
VERTEX
8
CONTOURS_MINEURES
10
53.781
20
30.002
0
VERTEX
8
CONTOURS_MINEURES
10
54.265
20
34.267
0
VERTEX
8
CONTOURS_MINEURES
10
54.202
20
34.998
0
VERTEX
8
CONTOURS_MINEURES
10
54.186
20
35.808
0
VERTEX
8
CONTOURS_MINEURES
10
54.997
20
37.663
0
VERTEX
8
CONTOURS_MINEURES
10
59.370
20
39.994
0
VERTEX
8
CONTOURS_MINEURES
10
59.803
20
40.187
0
VERTEX
8
CONTOURS_MINEURES
10
59.995
20
40.380
0
VERTEX
8
CONTOURS_MINEURES
10
60.986
20
44.011
0
VERTEX
8
CONTOURS_MINEURES
10
61.893
20
45.002
0
VERTEX
8
CONTOURS_MINEURES
10
62.242
20
47.757
0
VERTEX
8
CONTOURS_MINEURES
10
65.004
20
49.337
0
VERTEX
8
CONTOURS_MINEURES
10
65.356
20
49.998
0
VERTEX
8
CONTOURS_MINEURES
10
70.003
20
54.832
0
VERTEX
8
CONTOURS_MINEURES
10
70.159
20
54.995
0
VERTEX
8
CONTOURS_MINEURES
10
71.499
20
58.503
0
VERTEX
8
CONTOURS_MINEURES
10
75.001
20
59.699
0
VERTEX
8
CONTOURS_MINEURES
10
75.361
20
60.002
0
VERTEX
8
CONTOURS_MINEURES
10
79.999
20
64.681
0
VERTEX
8
CONTOURS_MINEURES
10
80.120
20
64.878
0
VERTEX
8
CONTOURS_MINEURES
10
80.431
20
64.999
0
VERTEX
8
CONTOURS_MINEURES
10
81.753
20
68.242
0
VERTEX
8
CONTOURS_MINEURES
10
84.998
20
69.200
0
VERTEX
8
CONTOURS_MINEURES
10
85.294
20
69.699
0
VERTEX
8
CONTOURS_MINEURES
10
86.293
20
69.995
0
VERTEX
8
CONTOURS_MINEURES
10
87.098
20
72.898
0
VERTEX
8
CONTOURS_MINEURES
10
89.996
20
73.448
0
VERTEX
8
CONTOURS_MINEURES
10
92.572
20
75.002
0
VERTEX
8
CONTOURS_MINEURES
10
95.005
20
79.721
0
VERTEX
8
CONTOURS_MINEURES
10
95.056
20
79.948
0
VERTEX
8
CONTOURS_MINEURES
10
95.152
20
79.999
0
VERTEX
8
CONTOURS_MINEURES
10
95.005
20
80.115
0
VERTEX
8
CONTOURS_MINEURES
10
91.439
20
81.439
0
VERTEX
8
CONTOURS_MINEURES
10
89.996
20
80.848
0
VERTEX
8
CONTOURS_MINEURES
10
86.190
20
81.191
0
VERTEX
8
CONTOURS_MINEURES
10
84.998
20
80.806
0
VERTEX
8
CONTOURS_MINEURES
10
81.207
20
81.206
0
VERTEX
8
CONTOURS_MINEURES
10
79.999
20
81.199
0
VERTEX
8
CONTOURS_MINEURES
10
79.100
20
80.898
0
VERTEX
8
CONTOURS_MINEURES
10
75.001
20
80.700
0
VERTEX
8
CONTOURS_MINEURES
10
74.453
20
80.546
0
VERTEX
8
CONTOURS_MINEURES
10
70.003
20
80.271
0
VERTEX
8
CONTOURS_MINEURES
10
68.503
20
79.999
0
VERTEX
8
CONTOURS_MINEURES
10
67.138
20
77.866
0
VERTEX
8
CONTOURS_MINEURES
10
65.004
20
77.813
0
VERTEX
8
CONTOURS_MINEURES
10
63.646
20
76.357
0
VERTEX
8
CONTOURS_MINEURES
10
59.995
20
76.073
0
VERTEX
8
CONTOURS_MINEURES
10
59.418
20
75.579
0
VERTEX
8
CONTOURS_MINEURES
10
54.997
20
75.229
0
VERTEX
8
CONTOURS_MINEURES
10
53.980
20
75.002
0
VERTEX
8
CONTOURS_MINEURES
10
51.289
20
73.709
0
VERTEX
8
CONTOURS_MINEURES
10
49.999
20
73.680
0
VERTEX
8
CONTOURS_MINEURES
10
47.176
20
72.823
0
VERTEX
8
CONTOURS_MINEURES
10
45.000
20
72.547
0
VERTEX
8
CONTOURS_MINEURES
10
42.148
20
72.145
0
VERTEX
8
CONTOURS_MINEURES
10
40.002
20
71.733
0
VERTEX
8
CONTOURS_MINEURES
10
38.674
20
71.326
0
VERTEX
8
CONTOURS_MINEURES
10
35.004
20
70.830
0
VERTEX
8
CONTOURS_MINEURES
10
30.903
20
70.895
0
VERTEX
8
CONTOURS_MINEURES
10
30.005
20
71.047
0
VERTEX
8
CONTOURS_MINEURES
10
25.757
20
70.756
0
VERTEX
8
CONTOURS_MINEURES
10
24.996
20
70.862
0
VERTEX
8
CONTOURS_MINEURES
10
24.185
20
70.808
0
VERTEX
8
CONTOURS_MINEURES
10
21.393
20
69.995
0
VERTEX
8
CONTOURS_MINEURES
10
19.998
20
67.597
0
VERTEX
8
CONTOURS_MINEURES
10
17.902
20
64.999
0
VERTEX
8
CONTOURS_MINEURES
10
15.749
20
64.249
0
VERTEX
8
CONTOURS_MINEURES
10
15.000
20
63.333
0
VERTEX
8
CONTOURS_MINEURES
10
12.955
20
62.046
0
VERTEX
8
CONTOURS_MINEURES
10
11.786
20
60.002
0
VERTEX
8
CONTOURS_MINEURES
10
10.001
20
58.937
0
VERTEX
8
CONTOURS_MINEURES
10
7.321
20
57.680
0
VERTEX
8
CONTOURS_MINEURES
10
6.728
20
54.995
0
VERTEX
8
CONTOURS_MINEURES
10
5.910
20
54.088
0
VERTEX
8
CONTOURS_MINEURES
10
5.668
20
49.998
0
VERTEX
8
CONTOURS_MINEURES
10
5.910
20
45.908
0
VERTEX
8
CONTOURS_MINEURES
10
5.815
20
45.002
0
VERTEX
8
CONTOURS_MINEURES
10
5.764
20
44.239
0
VERTEX
8
CONTOURS_MINEURES
10
5.645
20
39.994
0
VERTEX
8
CONTOURS_MINEURES
10
5.159
20
35.154
0
VERTEX
8
CONTOURS_MINEURES
10
5.138
20
34.998
0
VERTEX
8
CONTOURS_MINEURES
10
5.132
20
34.869
0
VERTEX
8
CONTOURS_MINEURES
10
5.003
20
34.254
0
VERTEX
8
CONTOURS_MINEURES
10
4.420
20
30.002
0
VERTEX
8
CONTOURS_MINEURES
10
4.566
20
25.442
0
VERTEX
8
CONTOURS_MINEURES
10
4.595
20
25.005
0
VERTEX
8
CONTOURS_MINEURES
10
4.624
20
24.626
0
VERTEX
8
CONTOURS_MINEURES
10
5.003
20
23.493
0
VERTEX
8
CONTOURS_MINEURES
10
6.694
20
19.998
0
VERTEX
8
CONTOURS_MINEURES
10
8.011
20
18.008
0
VERTEX
8
CONTOURS_MINEURES
10
9.738
20
15.001
0
VERTEX
8
CONTOURS_MINEURES
10
9.833
20
14.833
0
VERTEX
8
CONTOURS_MINEURES
10
10.001
20
14.452
0
VERTEX
8
CONTOURS_MINEURES
10
12.271
20
10.005
0
VERTEX
8
CONTOURS_MINEURES
10
13.471
20
8.474
0
VERTEX
8
CONTOURS_MINEURES
10
15.000
20
6.310
0
VERTEX
8
CONTOURS_MINEURES
10
15.949
20
4.998
0
VERTEX
8
CONTOURS_MINEURES
10
19.998
20
0.622
0
VERTEX
8
CONTOURS_MINEURES
10
20.304
20
0.307
0
VERTEX
8
CONTOURS_MINEURES
10
20.540
20
0.001
0
SEQEND
0
POLYLINE
8
CONTOURS_MINEURES
66
1
70
0
0
VERTEX
8
CONTOURS_MINEURES
10
44.879
20
0.001
0
VERTEX
8
CONTOURS_MINEURES
10
45.000
20
0.455
0
VERTEX
8
CONTOURS_MINEURES
10
45.857
20
4.141
0
VERTEX
8
CONTOURS_MINEURES
10
45.920
20
4.998
0
VERTEX
8
CONTOURS_MINEURES
10
46.013
20
6.013
0
VERTEX
8
CONTOURS_MINEURES
10
46.589
20
10.005
0
VERTEX
8
CONTOURS_MINEURES
10
46.722
20
13.280
0
VERTEX
8
CONTOURS_MINEURES
10
46.722
20
15.001
0
VERTEX
8
CONTOURS_MINEURES
10
46.974
20
16.974
0
VERTEX
8
CONTOURS_MINEURES
10
47.238
20
19.998
0
VERTEX
8
CONTOURS_MINEURES
10
47.671
20
22.330
0
VERTEX
8
CONTOURS_MINEURES
10
48.448
20
25.005
0
VERTEX
8
CONTOURS_MINEURES
10
48.224
20
28.228
0
VERTEX
8
CONTOURS_MINEURES
10
48.597
20
30.002
0
VERTEX
8
CONTOURS_MINEURES
10
48.896
20
31.104
0
VERTEX
8
CONTOURS_MINEURES
10
48.718
20
34.998
0
VERTEX
8
CONTOURS_MINEURES
10
48.680
20
38.676
0
VERTEX
8
CONTOURS_MINEURES
10
48.822
20
39.994
0
VERTEX
8
CONTOURS_MINEURES
10
48.576
20
41.420
0
VERTEX
8
CONTOURS_MINEURES
10
48.644
20
45.002
0
VERTEX
8
CONTOURS_MINEURES
10
47.464
20
47.536
0
VERTEX
8
CONTOURS_MINEURES
10
47.737
20
49.998
0
VERTEX
8
CONTOURS_MINEURES
10
45.000
20
54.418
0
VERTEX
8
CONTOURS_MINEURES
10
44.783
20
54.995
0
VERTEX
8
CONTOURS_MINEURES
10
40.002
20
59.543
0
VERTEX
8
CONTOURS_MINEURES
10
38.651
20
60.002
0
VERTEX
8
CONTOURS_MINEURES
10
37.574
20
62.572
0
VERTEX
8
CONTOURS_MINEURES
10
35.004
20
62.110
0
VERTEX
8
CONTOURS_MINEURES
10
33.378
20
61.628
0
VERTEX
8
CONTOURS_MINEURES
10
30.005
20
61.192
0
VERTEX
8
CONTOURS_MINEURES
10
29.063
20
60.942
0
VERTEX
8
CONTOURS_MINEURES
10
27.636
20
60.002
0
VERTEX
8
CONTOURS_MINEURES
10
25.365
20
59.634
0
VERTEX
8
CONTOURS_MINEURES
10
24.996
20
59.495
0
VERTEX
8
CONTOURS_MINEURES
10
21.101
20
58.897
0
VERTEX
8
CONTOURS_MINEURES
10
19.998
20
58.129
0
VERTEX
8
CONTOURS_MINEURES
10
16.230
20
56.227
0
VERTEX
8
CONTOURS_MINEURES
10
15.000
20
55.812
0
VERTEX
8
CONTOURS_MINEURES
10
13.987
20
54.995
0
VERTEX
8
CONTOURS_MINEURES
10
12.143
20
52.140
0
VERTEX
8
CONTOURS_MINEURES
10
10.497
20
49.998
0
VERTEX
8
CONTOURS_MINEURES
10
10.421
20
49.579
0
VERTEX
8
CONTOURS_MINEURES
10
10.001
20
45.202
0
VERTEX
8
CONTOURS_MINEURES
10
9.980
20
45.002
0
VERTEX
8
CONTOURS_MINEURES
10
9.669
20
40.327
0
VERTEX
8
CONTOURS_MINEURES
10
9.660
20
39.994
0
VERTEX
8
CONTOURS_MINEURES
10
9.622
20
39.615
0
VERTEX
8
CONTOURS_MINEURES
10
9.013
20
34.998
0
VERTEX
8
CONTOURS_MINEURES
10
8.821
20
31.182
0
VERTEX
8
CONTOURS_MINEURES
10
8.573
20
30.002
0
VERTEX
8
CONTOURS_MINEURES
10
8.640
20
28.641
0
VERTEX
8
CONTOURS_MINEURES
10
9.478
20
25.005
0
VERTEX
8
CONTOURS_MINEURES
10
10.001
20
23.880
0
VERTEX
8
CONTOURS_MINEURES
10
11.170
20
21.169
0
VERTEX
8
CONTOURS_MINEURES
10
11.836
20
19.998
0
VERTEX
8
CONTOURS_MINEURES
10
13.068
20
18.067
0
VERTEX
8
CONTOURS_MINEURES
10
14.655
20
15.001
0
VERTEX
8
CONTOURS_MINEURES
10
15.000
20
14.348
0
VERTEX
8
CONTOURS_MINEURES
10
16.485
20
11.490
0
VERTEX
8
CONTOURS_MINEURES
10
17.408
20
10.005
0
VERTEX
8
CONTOURS_MINEURES
10
19.998
20
6.376
0
VERTEX
8
CONTOURS_MINEURES
10
20.992
20
4.998
0
VERTEX
8
CONTOURS_MINEURES
10
22.962
20
2.964
0
VERTEX
8
CONTOURS_MINEURES
10
24.996
20
0.336
0
VERTEX
8
CONTOURS_MINEURES
10
25.203
20
0.207
0
VERTEX
8
CONTOURS_MINEURES
10
25.347
20
0.001
0
SEQEND
0
POLYLINE
8
CONTOURS_MINEURES
66
1
70
0
0
VERTEX
8
CONTOURS_MINEURES
10
49.999
20
60.456
0
VERTEX
8
CONTOURS_MINEURES
10
49.705
20
60.296
0
VERTEX
8
CONTOURS_MINEURES
10
49.443
20
60.002
0
VERTEX
8
CONTOURS_MINEURES
10
49.999
20
59.501
0
VERTEX
8
CONTOURS_MINEURES
10
50.713
20
60.002
0
VERTEX
8
CONTOURS_MINEURES
10
49.999
20
60.456
0
SEQEND
0
POLYLINE
8
CONTOURS_MINEURES
66
1
70
0
0
VERTEX
8
CONTOURS_MINEURES
10
43.151
20
49.998
0
VERTEX
8
CONTOURS_MINEURES
10
40.002
20
54.950
0
VERTEX
8
CONTOURS_MINEURES
10
39.983
20
54.976
0
VERTEX
8
CONTOURS_MINEURES
10
39.965
20
54.995
0
VERTEX
8
CONTOURS_MINEURES
10
35.004
20
58.232
0
VERTEX
8
CONTOURS_MINEURES
10
33.334
20
58.329
0
VERTEX
8
CONTOURS_MINEURES
10
30.005
20
58.190
0
VERTEX
8
CONTOURS_MINEURES
10
27.255
20
57.744
0
VERTEX
8
CONTOURS_MINEURES
10
24.996
20
56.894
0
VERTEX
8
CONTOURS_MINEURES
10
23.353
20
56.641
0
VERTEX
8
CONTOURS_MINEURES
10
20.987
20
54.995
0
VERTEX
8
CONTOURS_MINEURES
10
20.341
20
54.651
0
VERTEX
8
CONTOURS_MINEURES
10
19.998
20
54.352
0
VERTEX
8
CONTOURS_MINEURES
10
16.666
20
51.664
0
VERTEX
8
CONTOURS_MINEURES
10
15.000
20
50.482
0
VERTEX
8
CONTOURS_MINEURES
10
14.628
20
49.998
0
VERTEX
8
CONTOURS_MINEURES
10
13.916
20
46.085
0
VERTEX
8
CONTOURS_MINEURES
10
13.812
20
45.002
0
VERTEX
8
CONTOURS_MINEURES
10
13.396
20
41.601
0
VERTEX
8
CONTOURS_MINEURES
10
13.303
20
39.994
0
VERTEX
8
CONTOURS_MINEURES
10
13.066
20
38.062
0
VERTEX
8
CONTOURS_MINEURES
10
12.680
20
34.998
0
VERTEX
8
CONTOURS_MINEURES
10
12.844
20
32.157
0
VERTEX
8
CONTOURS_MINEURES
10
12.731
20
30.002
0
VERTEX
8
CONTOURS_MINEURES
10
13.072
20
28.075
0
VERTEX
8
CONTOURS_MINEURES
10
14.369
20
25.005
0
VERTEX
8
CONTOURS_MINEURES
10
14.559
20
24.564
0
VERTEX
8
CONTOURS_MINEURES
10
15.000
20
23.788
0
VERTEX
8
CONTOURS_MINEURES
10
16.223
20
21.223
0
VERTEX
8
CONTOURS_MINEURES
10
16.831
20
19.998
0
VERTEX
8
CONTOURS_MINEURES
10
19.008
20
15.991
0
VERTEX
8
CONTOURS_MINEURES
10
19.513
20
15.001
0
VERTEX
8
CONTOURS_MINEURES
10
19.678
20
14.682
0
VERTEX
8
CONTOURS_MINEURES
10
19.998
20
14.169
0
VERTEX
8
CONTOURS_MINEURES
10
22.657
20
10.005
0
VERTEX
8
CONTOURS_MINEURES
10
24.996
20
6.741
0
VERTEX
8
CONTOURS_MINEURES
10
27.282
20
4.998
0
VERTEX
8
CONTOURS_MINEURES
10
28.955
20
3.950
0
VERTEX
8
CONTOURS_MINEURES
10
30.005
20
2.454
0
VERTEX
8
CONTOURS_MINEURES
10
34.749
20
0.255
0
VERTEX
8
CONTOURS_MINEURES
10
35.004
20
0.198
0
VERTEX
8
CONTOURS_MINEURES
10
37.404
20
2.598
0
VERTEX
8
CONTOURS_MINEURES
10
39.103
20
4.998
0
VERTEX
8
CONTOURS_MINEURES
10
40.002
20
7.354
0
VERTEX
8
CONTOURS_MINEURES
10
40.480
20
9.526
0
VERTEX
8
CONTOURS_MINEURES
10
40.554
20
10.005
0
VERTEX
8
CONTOURS_MINEURES
10
40.579
20
10.581
0
VERTEX
8
CONTOURS_MINEURES
10
40.919
20
15.001
0
VERTEX
8
CONTOURS_MINEURES
10
41.008
20
16.007
0
VERTEX
8
CONTOURS_MINEURES
10
41.205
20
19.998
0
VERTEX
8
CONTOURS_MINEURES
10
41.501
20
21.500
0
VERTEX
8
CONTOURS_MINEURES
10
42.309
20
25.005
0
VERTEX
8
CONTOURS_MINEURES
10
43.128
20
26.876
0
VERTEX
8
CONTOURS_MINEURES
10
43.839
20
30.002
0
VERTEX
8
CONTOURS_MINEURES
10
45.000
20
33.964
0
VERTEX
8
CONTOURS_MINEURES
10
45.221
20
34.778
0
VERTEX
8
CONTOURS_MINEURES
10
45.211
20
34.998
0
VERTEX
8
CONTOURS_MINEURES
10
45.208
20
35.206
0
VERTEX
8
CONTOURS_MINEURES
10
45.728
20
39.994
0
VERTEX
8
CONTOURS_MINEURES
10
45.000
20
44.197
0
VERTEX
8
CONTOURS_MINEURES
10
44.872
20
45.002
0
VERTEX
8
CONTOURS_MINEURES
10
43.616
20
48.615
0
VERTEX
8
CONTOURS_MINEURES
10
43.151
20
49.998
0
SEQEND
0
POLYLINE
8
CONTOURS_MINEURES
66
1
70
0
0
VERTEX
8
CONTOURS_MINEURES
10
40.327
20
49.998
0
VERTEX
8
CONTOURS_MINEURES
10
40.002
20
50.509
0
VERTEX
8
CONTOURS_MINEURES
10
38.136
20
53.129
0
VERTEX
8
CONTOURS_MINEURES
10
36.249
20
54.995
0
VERTEX
8
CONTOURS_MINEURES
10
35.004
20
55.807
0
VERTEX
8
CONTOURS_MINEURES
10
31.046
20
56.037
0
VERTEX
8
CONTOURS_MINEURES
10
30.005
20
55.994
0
VERTEX
8
CONTOURS_MINEURES
10
29.145
20
55.855
0
VERTEX
8
CONTOURS_MINEURES
10
26.862
20
54.995
0
VERTEX
8
CONTOURS_MINEURES
10
24.996
20
54.206
0
VERTEX
8
CONTOURS_MINEURES
10
22.249
20
52.744
0
VERTEX
8
CONTOURS_MINEURES
10
19.998
20
50.783
0
VERTEX
8
CONTOURS_MINEURES
10
19.025
20
49.998
0
VERTEX
8
CONTOURS_MINEURES
10
17.963
20
47.036
0
VERTEX
8
CONTOURS_MINEURES
10
17.622
20
45.002
0
VERTEX
8
CONTOURS_MINEURES
10
17.330
20
42.667
0
VERTEX
8
CONTOURS_MINEURES
10
17.006
20
39.994
0
VERTEX
8
CONTOURS_MINEURES
10
16.549
20
36.547
0
VERTEX
8
CONTOURS_MINEURES
10
16.386
20
34.998
0
VERTEX
8
CONTOURS_MINEURES
10
16.642
20
33.356
0
VERTEX
8
CONTOURS_MINEURES
10
16.874
20
30.002
0
VERTEX
8
CONTOURS_MINEURES
10
17.726
20
27.731
0
VERTEX
8
CONTOURS_MINEURES
10
18.882
20
25.005
0
VERTEX
8
CONTOURS_MINEURES
10
19.243
20
24.249
0
VERTEX
8
CONTOURS_MINEURES
10
19.998
20
22.729
0
VERTEX
8
CONTOURS_MINEURES
10
21.872
20
19.998
0
VERTEX
8
CONTOURS_MINEURES
10
23.211
20
18.213
0
VERTEX
8
CONTOURS_MINEURES
10
24.996
20
15.239
0
VERTEX
8
CONTOURS_MINEURES
10
25.192
20
15.197
0
VERTEX
8
CONTOURS_MINEURES
10
25.443
20
15.001
0
VERTEX
8
CONTOURS_MINEURES
10
30.005
20
11.816
0
VERTEX
8
CONTOURS_MINEURES
10
33.359
20
15.001
0
VERTEX
8
CONTOURS_MINEURES
10
34.159
20
15.845
0
VERTEX
8
CONTOURS_MINEURES
10
35.004
20
18.570
0
VERTEX
8
CONTOURS_MINEURES
10
35.296
20
19.998
0
VERTEX
8
CONTOURS_MINEURES
10
35.382
20
20.377
0
VERTEX
8
CONTOURS_MINEURES
10
36.826
20
25.005
0
VERTEX
8
CONTOURS_MINEURES
10
37.847
20
27.159
0
VERTEX
8
CONTOURS_MINEURES
10
38.854
20
30.002
0
VERTEX
8
CONTOURS_MINEURES
10
39.197
20
30.806
0
VERTEX
8
CONTOURS_MINEURES
10
40.002
20
32.449
0
VERTEX
8
CONTOURS_MINEURES
10
41.052
20
34.998
0
VERTEX
8
CONTOURS_MINEURES
10
42.118
20
37.879
0
VERTEX
8
CONTOURS_MINEURES
10
42.372
20
39.994
0
VERTEX
8
CONTOURS_MINEURES
10
42.408
20
42.592
0
VERTEX
8
CONTOURS_MINEURES
10
42.024
20
45.002
0
VERTEX
8
CONTOURS_MINEURES
10
41.502
20
46.502
0
VERTEX
8
CONTOURS_MINEURES
10
40.327
20
49.998
0
SEQEND
0
POLYLINE
8
CONTOURS_MINEURES
66
1
70
0
0
VERTEX
8
CONTOURS_MINEURES
10
37.578
20
47.575
0
VERTEX
8
CONTOURS_MINEURES
10
37.202
20
49.998
0
VERTEX
8
CONTOURS_MINEURES
10
36.288
20
51.282
0
VERTEX
8
CONTOURS_MINEURES
10
35.004
20
52.552
0
VERTEX
8
CONTOURS_MINEURES
10
32.202
20
52.799
0
VERTEX
8
CONTOURS_MINEURES
10
30.005
20
53.238
0
VERTEX
8
CONTOURS_MINEURES
10
27.234
20
52.230
0
VERTEX
8
CONTOURS_MINEURES
10
24.996
20
51.284
0
VERTEX
8
CONTOURS_MINEURES
10
24.157
20
50.837
0
VERTEX
8
CONTOURS_MINEURES
10
23.193
20
49.998
0
VERTEX
8
CONTOURS_MINEURES
10
22.298
20
47.301
0
VERTEX
8
CONTOURS_MINEURES
10
21.541
20
45.002
0
VERTEX
8
CONTOURS_MINEURES
10
21.434
20
43.563
0
VERTEX
8
CONTOURS_MINEURES
10
20.919
20
39.994
0
VERTEX
8
CONTOURS_MINEURES
10
20.371
20
35.371
0
VERTEX
8
CONTOURS_MINEURES
10
20.410
20
34.998
0
VERTEX
8
CONTOURS_MINEURES
10
21.236
20
31.240
0
VERTEX
8
CONTOURS_MINEURES
10
21.783
20
30.002
0
VERTEX
8
CONTOURS_MINEURES
10
24.996
20
25.005
0
VERTEX
8
CONTOURS_MINEURES
10
29.314
20
24.315
0
VERTEX
8
CONTOURS_MINEURES
10
30.005
20
24.144
0
VERTEX
8
CONTOURS_MINEURES
10
30.393
20
24.616
0
VERTEX
8
CONTOURS_MINEURES
10
30.553
20
25.005
0
VERTEX
8
CONTOURS_MINEURES
10
31.459
20
26.459
0
VERTEX
8
CONTOURS_MINEURES
10
33.738
20
30.002
0
VERTEX
8
CONTOURS_MINEURES
10
34.188
20
30.817
0
VERTEX
8
CONTOURS_MINEURES
10
35.004
20
32.191
0
VERTEX
8
CONTOURS_MINEURES
10
35.842
20
34.160
0
VERTEX
8
CONTOURS_MINEURES
10
36.253
20
34.998
0
VERTEX
8
CONTOURS_MINEURES
10
37.235
20
37.229
0
VERTEX
8
CONTOURS_MINEURES
10
38.547
20
39.994
0
VERTEX
8
CONTOURS_MINEURES
10
38.762
20
41.236
0
VERTEX
8
CONTOURS_MINEURES
10
38.823
20
45.002
0
VERTEX
8
CONTOURS_MINEURES
10
37.578
20
47.575
0
SEQEND
0
POLYLINE
8
CONTOURS_MINEURES
66
1
70
0
0
VERTEX
8
CONTOURS_MINEURES
10
32.871
20
47.867
0
VERTEX
8
CONTOURS_MINEURES
10
30.086
20
49.998
0
VERTEX
8
CONTOURS_MINEURES
10
30.005
20
50.014
0
VERTEX
8
CONTOURS_MINEURES
10
29.961
20
49.998
0
VERTEX
8
CONTOURS_MINEURES
10
27.888
20
47.114
0
VERTEX
8
CONTOURS_MINEURES
10
26.402
20
45.002
0
VERTEX
8
CONTOURS_MINEURES
10
25.727
20
40.725
0
VERTEX
8
CONTOURS_MINEURES
10
25.802
20
39.994
0
VERTEX
8
CONTOURS_MINEURES
10
30.005
20
34.998
0
VERTEX
8
CONTOURS_MINEURES
10
31.641
20
38.359
0
VERTEX
8
CONTOURS_MINEURES
10
32.996
20
39.994
0
VERTEX
8
CONTOURS_MINEURES
10
34.298
20
44.295
0
VERTEX
8
CONTOURS_MINEURES
10
34.365
20
45.002
0
VERTEX
8
CONTOURS_MINEURES
10
32.871
20
47.867
0
SEQEND
0
POLYLINE
8
CONTOURS_MAJEURES
66
1
70
0
0
VERTEX
8
CONTOURS_MAJEURES
10
118.372
20
0.001
0
VERTEX
8
CONTOURS_MAJEURES
10
118.541
20
1.456
0
VERTEX
8
CONTOURS_MAJEURES
10
118.859
20
4.998
0
VERTEX
8
CONTOURS_MAJEURES
10
119.000
20
5.996
0
VERTEX
8
CONTOURS_MAJEURES
10
119.997
20
9.235
0
SEQEND
0
POLYLINE
8
CONTOURS_MAJEURES
66
1
70
0
0
VERTEX
8
CONTOURS_MAJEURES
10
71.622
20
125.000
0
VERTEX
8
CONTOURS_MAJEURES
10
70.919
20
124.084
0
VERTEX
8
CONTOURS_MAJEURES
10
70.003
20
123.438
0
VERTEX
8
CONTOURS_MAJEURES
10
65.726
20
120.003
0
VERTEX
8
CONTOURS_MAJEURES
10
65.339
20
119.668
0
VERTEX
8
CONTOURS_MAJEURES
10
65.004
20
119.560
0
VERTEX
8
CONTOURS_MAJEURES
10
64.396
20
119.395
0
VERTEX
8
CONTOURS_MAJEURES
10
59.995
20
117.884
0
VERTEX
8
CONTOURS_MAJEURES
10
57.798
20
117.803
0
VERTEX
8
CONTOURS_MAJEURES
10
54.997
20
117.543
0
VERTEX
8
CONTOURS_MAJEURES
10
52.315
20
117.683
0
VERTEX
8
CONTOURS_MAJEURES
10
49.999
20
117.957
0
VERTEX
8
CONTOURS_MAJEURES
10
48.050
20
118.052
0
VERTEX
8
CONTOURS_MAJEURES
10
45.000
20
117.990
0
VERTEX
8
CONTOURS_MAJEURES
10
42.827
20
117.826
0
VERTEX
8
CONTOURS_MAJEURES
10
40.002
20
117.524
0
VERTEX
8
CONTOURS_MAJEURES
10
37.573
20
117.429
0
VERTEX
8
CONTOURS_MAJEURES
10
35.004
20
117.393
0
VERTEX
8
CONTOURS_MAJEURES
10
32.016
20
117.988
0
VERTEX
8
CONTOURS_MAJEURES
10
30.005
20
118.434
0
VERTEX
8
CONTOURS_MAJEURES
10
28.835
20
118.833
0
VERTEX
8
CONTOURS_MAJEURES
10
26.045
20
120.003
0
VERTEX
8
CONTOURS_MAJEURES
10
24.996
20
120.453
0
VERTEX
8
CONTOURS_MAJEURES
10
24.171
20
120.828
0
VERTEX
8
CONTOURS_MAJEURES
10
19.998
20
122.703
0
VERTEX
8
CONTOURS_MAJEURES
10
18.319
20
123.322
0
VERTEX
8
CONTOURS_MAJEURES
10
15.000
20
124.167
0
VERTEX
8
CONTOURS_MAJEURES
10
14.333
20
124.334
0
VERTEX
8
CONTOURS_MAJEURES
10
10.611
20
125.000
0
SEQEND
0
POLYLINE
8
CONTOURS_MAJEURES
66
1
70
0
0
VERTEX
8
CONTOURS_MAJEURES
10
86.626
20
0.001
0
VERTEX
8
CONTOURS_MAJEURES
10
86.289
20
3.707
0
VERTEX
8
CONTOURS_MAJEURES
10
86.137
20
4.998
0
VERTEX
8
CONTOURS_MAJEURES
10
86.632
20
8.368
0
VERTEX
8
CONTOURS_MAJEURES
10
86.744
20
10.005
0
VERTEX
8
CONTOURS_MAJEURES
10
88.145
20
13.151
0
VERTEX
8
CONTOURS_MAJEURES
10
88.893
20
15.001
0
VERTEX
8
CONTOURS_MAJEURES
10
89.996
20
17.586
0
VERTEX
8
CONTOURS_MAJEURES
10
90.680
20
19.315
0
VERTEX
8
CONTOURS_MAJEURES
10
90.925
20
19.998
0
VERTEX
8
CONTOURS_MAJEURES
10
91.081
20
23.921
0
VERTEX
8
CONTOURS_MAJEURES
10
91.147
20
25.005
0
VERTEX
8
CONTOURS_MAJEURES
10
91.685
20
28.317
0
VERTEX
8
CONTOURS_MAJEURES
10
92.000
20
30.002
0
VERTEX
8
CONTOURS_MAJEURES
10
93.583
20
33.579
0
VERTEX
8
CONTOURS_MAJEURES
10
94.271
20
34.998
0
VERTEX
8
CONTOURS_MAJEURES
10
94.517
20
35.485
0
VERTEX
8
CONTOURS_MAJEURES
10
95.005
20
36.275
0
VERTEX
8
CONTOURS_MAJEURES
10
98.135
20
39.994
0
VERTEX
8
CONTOURS_MAJEURES
10
99.111
20
40.889
0
VERTEX
8
CONTOURS_MAJEURES
10
100.003
20
41.767
0
VERTEX
8
CONTOURS_MAJEURES
10
103.478
20
45.002
0
VERTEX
8
CONTOURS_MAJEURES
10
104.221
20
45.782
0
VERTEX
8
CONTOURS_MAJEURES
10
105.002
20
46.357
0
VERTEX
8
CONTOURS_MAJEURES
10
108.945
20
49.998
0
VERTEX
8
CONTOURS_MAJEURES
10
110.000
20
50.948
0
VERTEX
8
CONTOURS_MAJEURES
10
112.139
20
52.857
0
VERTEX
8
CONTOURS_MAJEURES
10
114.335
20
54.995
0
VERTEX
8
CONTOURS_MAJEURES
10
114.998
20
55.710
0
VERTEX
8
CONTOURS_MAJEURES
10
116.582
20
58.415
0
VERTEX
8
CONTOURS_MAJEURES
10
117.900
20
60.002
0
VERTEX
8
CONTOURS_MAJEURES
10
118.722
20
61.276
0
VERTEX
8
CONTOURS_MAJEURES
10
119.997
20
62.982
0
SEQEND
0
POLYLINE
8
CONTOURS_MAJEURES
66
1
70
0
0
VERTEX
8
CONTOURS_MAJEURES
10
105.185
20
125.000
0
VERTEX
8
CONTOURS_MAJEURES
10
105.002
20
124.611
0
VERTEX
8
CONTOURS_MAJEURES
10
103.315
20
121.689
0
VERTEX
8
CONTOURS_MAJEURES
10
102.038
20
120.003
0
VERTEX
8
CONTOURS_MAJEURES
10
100.003
20
117.120
0
VERTEX
8
CONTOURS_MAJEURES
10
99.180
20
115.821
0
VERTEX
8
CONTOURS_MAJEURES
10
98.768
20
114.996
0
VERTEX
8
CONTOURS_MAJEURES
10
97.004
20
112.997
0
VERTEX
8
CONTOURS_MAJEURES
10
95.005
20
110.555
0
VERTEX
8
CONTOURS_MAJEURES
10
94.684
20
109.999
0
VERTEX
8
CONTOURS_MAJEURES
10
92.926
20
107.077
0
VERTEX
8
CONTOURS_MAJEURES
10
91.569
20
105.003
0
VERTEX
8
CONTOURS_MAJEURES
10
91.099
20
103.900
0
VERTEX
8
CONTOURS_MAJEURES
10
89.996
20
102.396
0
VERTEX
8
CONTOURS_MAJEURES
10
88.755
20
101.239
0
VERTEX
8
CONTOURS_MAJEURES
10
87.616
20
99.996
0
VERTEX
8
CONTOURS_MAJEURES
10
86.259
20
98.734
0
VERTEX
8
CONTOURS_MAJEURES
10
84.998
20
97.893
0
VERTEX
8
CONTOURS_MAJEURES
10
83.132
20
96.864
0
VERTEX
8
CONTOURS_MAJEURES
10
79.999
20
96.274
0
VERTEX
8
CONTOURS_MAJEURES
10
79.046
20
95.952
0
VERTEX
8
CONTOURS_MAJEURES
10
75.001
20
95.167
0
VERTEX
8
CONTOURS_MAJEURES
10
74.863
20
95.137
0
VERTEX
8
CONTOURS_MAJEURES
10
74.439
20
94.999
0
VERTEX
8
CONTOURS_MAJEURES
10
70.988
20
94.014
0
VERTEX
8
CONTOURS_MAJEURES
10
70.003
20
93.817
0
VERTEX
8
CONTOURS_MAJEURES
10
68.542
20
93.539
0
VERTEX
8
CONTOURS_MAJEURES
10
65.004
20
92.966
0
VERTEX
8
CONTOURS_MAJEURES
10
61.938
20
93.061
0
VERTEX
8
CONTOURS_MAJEURES
10
59.995
20
92.888
0
VERTEX
8
CONTOURS_MAJEURES
10
56.757
20
93.240
0
VERTEX
8
CONTOURS_MAJEURES
10
54.997
20
93.216
0
VERTEX
8
CONTOURS_MAJEURES
10
53.205
20
93.208
0
VERTEX
8
CONTOURS_MAJEURES
10
49.999
20
93.281
0
VERTEX
8
CONTOURS_MAJEURES
10
46.914
20
93.086
0
VERTEX
8
CONTOURS_MAJEURES
10
45.000
20
92.827
0
VERTEX
8
CONTOURS_MAJEURES
10
42.574
20
92.428
0
VERTEX
8
CONTOURS_MAJEURES
10
40.002
20
92.006
0
VERTEX
8
CONTOURS_MAJEURES
10
36.633
20
91.632
0
VERTEX
8
CONTOURS_MAJEURES
10
35.004
20
91.623
0
VERTEX
8
CONTOURS_MAJEURES
10
33.141
20
91.865
0
VERTEX
8
CONTOURS_MAJEURES
10
30.005
20
92.116
0
VERTEX
8
CONTOURS_MAJEURES
10
27.608
20
92.608
0
VERTEX
8
CONTOURS_MAJEURES
10
24.996
20
92.926
0
VERTEX
8
CONTOURS_MAJEURES
10
20.983
20
94.014
0
VERTEX
8
CONTOURS_MAJEURES
10
19.998
20
94.201
0
VERTEX
8
CONTOURS_MAJEURES
10
19.302
20
94.304
0
VERTEX
8
CONTOURS_MAJEURES
10
17.403
20
94.999
0
VERTEX
8
CONTOURS_MAJEURES
10
15.000
20
95.816
0
VERTEX
8
CONTOURS_MAJEURES
10
11.596
20
96.594
0
VERTEX
8
CONTOURS_MAJEURES
10
10.001
20
97.011
0
VERTEX
8
CONTOURS_MAJEURES
10
7.799
20
97.794
0
VERTEX
8
CONTOURS_MAJEURES
10
5.003
20
98.840
0
VERTEX
8
CONTOURS_MAJEURES
10
1.535
20
99.996
0
VERTEX
8
CONTOURS_MAJEURES
10
0.459
20
100.451
0
VERTEX
8
CONTOURS_MAJEURES
10
0.005
20
100.565
0
SEQEND
0
POLYLINE
8
CONTOURS_MAJEURES
66
1
70
0
0
VERTEX
8
CONTOURS_MAJEURES
10
0.005
20
46.689
0
VERTEX
8
CONTOURS_MAJEURES
10
0.700
20
45.002
0
VERTEX
8
CONTOURS_MAJEURES
10
1.884
20
41.877
0
VERTEX
8
CONTOURS_MAJEURES
10
1.834
20
39.994
0
VERTEX
8
CONTOURS_MAJEURES
10
1.676
20
38.323
0
VERTEX
8
CONTOURS_MAJEURES
10
1.931
20
34.998
0
VERTEX
8
CONTOURS_MAJEURES
10
1.744
20
31.740
0
VERTEX
8
CONTOURS_MAJEURES
10
1.506
20
30.002
0
VERTEX
8
CONTOURS_MAJEURES
10
1.555
20
28.452
0
VERTEX
8
CONTOURS_MAJEURES
10
1.779
20
25.005
0
VERTEX
8
CONTOURS_MAJEURES
10
2.014
20
22.011
0
VERTEX
8
CONTOURS_MAJEURES
10
2.687
20
19.998
0
VERTEX
8
CONTOURS_MAJEURES
10
4.939
20
15.065
0
VERTEX
8
CONTOURS_MAJEURES
10
4.959
20
15.001
0
VERTEX
8
CONTOURS_MAJEURES
10
5.003
20
14.916
0
VERTEX
8
CONTOURS_MAJEURES
10
6.766
20
11.768
0
VERTEX
8
CONTOURS_MAJEURES
10
7.546
20
10.005
0
VERTEX
8
CONTOURS_MAJEURES
10
10.001
20
6.396
0
VERTEX
8
CONTOURS_MAJEURES
10
10.615
20
5.613
0
VERTEX
8
CONTOURS_MAJEURES
10
11.050
20
4.998
0
VERTEX
8
CONTOURS_MAJEURES
10
13.044
20
3.042
0
VERTEX
8
CONTOURS_MAJEURES
10
15.000
20
1.087
0
VERTEX
8
CONTOURS_MAJEURES
10
16.013
20
0.001
0
SEQEND
0
POLYLINE
8
CONTOURS_MAJEURES
66
1
70
0
0
VERTEX
8
CONTOURS_MAJEURES
10
56.910
20
0.001
0
VERTEX
8
CONTOURS_MAJEURES
10
56.776
20
3.219
0
VERTEX
8
CONTOURS_MAJEURES
10
56.907
20
4.998
0
VERTEX
8
CONTOURS_MAJEURES
10
57.216
20
7.221
0
VERTEX
8
CONTOURS_MAJEURES
10
57.057
20
10.005
0
VERTEX
8
CONTOURS_MAJEURES
10
57.057
20
12.942
0
VERTEX
8
CONTOURS_MAJEURES
10
57.534
20
15.001
0
VERTEX
8
CONTOURS_MAJEURES
10
57.663
20
17.333
0
VERTEX
8
CONTOURS_MAJEURES
10
58.632
20
19.998
0
VERTEX
8
CONTOURS_MAJEURES
10
58.907
20
21.087
0
VERTEX
8
CONTOURS_MAJEURES
10
59.995
20
23.046
0
VERTEX
8
CONTOURS_MAJEURES
10
60.610
20
24.391
0
VERTEX
8
CONTOURS_MAJEURES
10
60.800
20
25.005
0
VERTEX
8
CONTOURS_MAJEURES
10
61.986
20
28.016
0
VERTEX
8
CONTOURS_MAJEURES
10
62.871
20
30.002
0
VERTEX
8
CONTOURS_MAJEURES
10
64.749
20
34.743
0
VERTEX
8
CONTOURS_MAJEURES
10
64.847
20
34.998
0
VERTEX
8
CONTOURS_MAJEURES
10
65.004
20
35.421
0
VERTEX
8
CONTOURS_MAJEURES
10
65.791
20
39.208
0
VERTEX
8
CONTOURS_MAJEURES
10
66.075
20
39.994
0
VERTEX
8
CONTOURS_MAJEURES
10
66.905
20
41.899
0
VERTEX
8
CONTOURS_MAJEURES
10
68.082
20
45.002
0
VERTEX
8
CONTOURS_MAJEURES
10
70.003
20
47.604
0
VERTEX
8
CONTOURS_MAJEURES
10
71.931
20
49.998
0
VERTEX
8
CONTOURS_MAJEURES
10
75.001
20
53.142
0
VERTEX
8
CONTOURS_MAJEURES
10
75.985
20
54.011
0
VERTEX
8
CONTOURS_MAJEURES
10
77.065
20
54.995
0
VERTEX
8
CONTOURS_MAJEURES
10
79.999
20
57.633
0
VERTEX
8
CONTOURS_MAJEURES
10
82.708
20
60.002
0
VERTEX
8
CONTOURS_MAJEURES
10
83.579
20
61.420
0
VERTEX
8
CONTOURS_MAJEURES
10
84.998
20
61.972
0
VERTEX
8
CONTOURS_MAJEURES
10
89.253
20
64.999
0
VERTEX
8
CONTOURS_MAJEURES
10
89.530
20
65.464
0
VERTEX
8
CONTOURS_MAJEURES
10
89.996
20
65.603
0
VERTEX
8
CONTOURS_MAJEURES
10
91.548
20
66.547
0
VERTEX
8
CONTOURS_MAJEURES
10
95.005
20
68.926
0
VERTEX
8
CONTOURS_MAJEURES
10
95.599
20
69.401
0
VERTEX
8
CONTOURS_MAJEURES
10
96.682
20
69.995
0
VERTEX
8
CONTOURS_MAJEURES
10
100.003
20
72.424
0
VERTEX
8
CONTOURS_MAJEURES
10
101.179
20
73.825
0
VERTEX
8
CONTOURS_MAJEURES
10
102.409
20
75.002
0
VERTEX
8
CONTOURS_MAJEURES
10
105.002
20
78.067
0
VERTEX
8
CONTOURS_MAJEURES
10
105.853
20
79.148
0
VERTEX
8
CONTOURS_MAJEURES
10
106.692
20
79.999
0
VERTEX
8
CONTOURS_MAJEURES
10
110.000
20
84.277
0
VERTEX
8
CONTOURS_MAJEURES
10
110.335
20
84.660
0
VERTEX
8
CONTOURS_MAJEURES
10
110.661
20
84.995
0
VERTEX
8
CONTOURS_MAJEURES
10
114.998
20
88.159
0
VERTEX
8
CONTOURS_MAJEURES
10
117.556
20
90.003
0
VERTEX
8
CONTOURS_MAJEURES
10
116.691
20
93.307
0
VERTEX
8
CONTOURS_MAJEURES
10
119.997
20
92.284
0
SEQEND
0
POLYLINE
8
CONTOURS_MAJEURES
66
1
70
0
0
VERTEX
8
CONTOURS_MAJEURES
10
119.773
20
125.000
0
VERTEX
8
CONTOURS_MAJEURES
10
119.735
20
124.739
0
VERTEX
8
CONTOURS_MAJEURES
10
119.424
20
120.003
0
VERTEX
8
CONTOURS_MAJEURES
10
119.158
20
115.836
0
VERTEX
8
CONTOURS_MAJEURES
10
118.895
20
114.996
0
VERTEX
8
CONTOURS_MAJEURES
10
118.434
20
113.434
0
VERTEX
8
CONTOURS_MAJEURES
10
117.977
20
109.999
0
VERTEX
8
CONTOURS_MAJEURES
10
117.805
20
107.194
0
VERTEX
8
CONTOURS_MAJEURES
10
117.118
20
105.003
0
VERTEX
8
CONTOURS_MAJEURES
10
116.041
20
101.041
0
VERTEX
8
CONTOURS_MAJEURES
10
116.130
20
99.996
0
VERTEX
8
CONTOURS_MAJEURES
10
116.619
20
98.375
0
VERTEX
8
CONTOURS_MAJEURES
10
114.998
20
97.360
0
VERTEX
8
CONTOURS_MAJEURES
10
113.044
20
94.999
0
VERTEX
8
CONTOURS_MAJEURES
10
110.000
20
92.722
0
VERTEX
8
CONTOURS_MAJEURES
10
108.607
20
91.395
0
VERTEX
8
CONTOURS_MAJEURES
10
106.876
20
90.003
0
VERTEX
8
CONTOURS_MAJEURES
10
108.381
20
86.617
0
VERTEX
8
CONTOURS_MAJEURES
10
105.002
20
88.652
0
VERTEX
8
CONTOURS_MAJEURES
10
103.056
20
86.944
0
VERTEX
8
CONTOURS_MAJEURES
10
100.003
20
87.157
0
VERTEX
8
CONTOURS_MAJEURES
10
97.187
20
87.181
0
VERTEX
8
CONTOURS_MAJEURES
10
95.005
20
86.559
0
VERTEX
8
CONTOURS_MAJEURES
10
93.761
20
86.239
0
VERTEX
8
CONTOURS_MAJEURES
10
89.996
20
85.980
0
VERTEX
8
CONTOURS_MAJEURES
10
89.141
20
85.852
0
VERTEX
8
CONTOURS_MAJEURES
10
84.998
20
85.510
0
VERTEX
8
CONTOURS_MAJEURES
10
80.506
20
85.503
0
VERTEX
8
CONTOURS_MAJEURES
10
79.999
20
85.451
0
VERTEX
8
CONTOURS_MAJEURES
10
79.586
20
85.409
0
VERTEX
8
CONTOURS_MAJEURES
10
75.001
20
85.023
0
VERTEX
8
CONTOURS_MAJEURES
10
74.689
20
84.995
0
VERTEX
8
CONTOURS_MAJEURES
10
71.030
20
83.969
0
VERTEX
8
CONTOURS_MAJEURES
10
70.003
20
83.905
0
VERTEX
8
CONTOURS_MAJEURES
10
68.670
20
83.663
0
VERTEX
8
CONTOURS_MAJEURES
10
65.004
20
82.729
0
VERTEX
8
CONTOURS_MAJEURES
10
61.827
20
81.826
0
VERTEX
8
CONTOURS_MAJEURES
10
59.995
20
81.306
0
VERTEX
8
CONTOURS_MAJEURES
10
57.004
20
79.999
0
VERTEX
8
CONTOURS_MAJEURES
10
55.923
20
79.073
0
VERTEX
8
CONTOURS_MAJEURES
10
54.997
20
79.000
0
VERTEX
8
CONTOURS_MAJEURES
10
53.711
20
78.713
0
VERTEX
8
CONTOURS_MAJEURES
10
49.999
20
77.559
0
VERTEX
8
CONTOURS_MAJEURES
10
47.020
20
77.021
0
VERTEX
8
CONTOURS_MAJEURES
10
45.000
20
76.614
0
VERTEX
8
CONTOURS_MAJEURES
10
43.586
20
76.416
0
VERTEX
8
CONTOURS_MAJEURES
10
40.002
20
75.927
0
VERTEX
8
CONTOURS_MAJEURES
10
39.186
20
75.819
0
VERTEX
8
CONTOURS_MAJEURES
10
35.750
20
75.002
0
VERTEX
8
CONTOURS_MAJEURES
10
35.178
20
74.827
0
VERTEX
8
CONTOURS_MAJEURES
10
35.004
20
74.804
0
VERTEX
8
CONTOURS_MAJEURES
10
34.808
20
74.807
0
VERTEX
8
CONTOURS_MAJEURES
10
33.653
20
75.002
0
VERTEX
8
CONTOURS_MAJEURES
10
30.428
20
75.425
0
VERTEX
8
CONTOURS_MAJEURES
10
30.005
20
75.457
0
VERTEX
8
CONTOURS_MAJEURES
10
25.805
20
75.809
0
VERTEX
8
CONTOURS_MAJEURES
10
24.996
20
75.914
0
VERTEX
8
CONTOURS_MAJEURES
10
20.730
20
75.735
0
VERTEX
8
CONTOURS_MAJEURES
10
19.998
20
75.812
0
VERTEX
8
CONTOURS_MAJEURES
10
19.046
20
75.954
0
VERTEX
8
CONTOURS_MAJEURES
10
15.000
20
76.338
0
VERTEX
8
CONTOURS_MAJEURES
10
11.102
20
76.103
0
VERTEX
8
CONTOURS_MAJEURES
10
10.001
20
76.214
0
VERTEX
8
CONTOURS_MAJEURES
10
8.614
20
76.389
0
VERTEX
8
CONTOURS_MAJEURES
10
5.003
20
75.721
0
VERTEX
8
CONTOURS_MAJEURES
10
0.270
20
75.267
0
VERTEX
8
CONTOURS_MAJEURES
10
0.005
20
75.419
0
SEQEND
0
POLYLINE
8
CONTOURS_MAJEURES
66
1
70
0
0
VERTEX
8
CONTOURS_MAJEURES
10
37.578
20
47.575
0
VERTEX
8
CONTOURS_MAJEURES
10
37.202
20
49.998
0
VERTEX
8
CONTOURS_MAJEURES
10
36.288
20
51.282
0
VERTEX
8
CONTOURS_MAJEURES
10
35.004
20
52.552
0
VERTEX
8
CONTOURS_MAJEURES
10
32.202
20
52.799
0
VERTEX
8
CONTOURS_MAJEURES
10
30.005
20
53.238
0
VERTEX
8
CONTOURS_MAJEURES
10
27.234
20
52.230
0
VERTEX
8
CONTOURS_MAJEURES
10
24.996
20
51.284
0
VERTEX
8
CONTOURS_MAJEURES
10
24.157
20
50.837
0
VERTEX
8
CONTOURS_MAJEURES
10
23.193
20
49.998
0
VERTEX
8
CONTOURS_MAJEURES
10
22.298
20
47.301
0
VERTEX
8
CONTOURS_MAJEURES
10
21.541
20
45.002
0
VERTEX
8
CONTOURS_MAJEURES
10
21.434
20
43.563
0
VERTEX
8
CONTOURS_MAJEURES
10
20.919
20
39.994
0
VERTEX
8
CONTOURS_MAJEURES
10
20.371
20
35.371
0
VERTEX
8
CONTOURS_MAJEURES
10
20.410
20
34.998
0
VERTEX
8
CONTOURS_MAJEURES
10
21.236
20
31.240
0
VERTEX
8
CONTOURS_MAJEURES
10
21.783
20
30.002
0
VERTEX
8
CONTOURS_MAJEURES
10
24.996
20
25.005
0
VERTEX
8
CONTOURS_MAJEURES
10
29.314
20
24.315
0
VERTEX
8
CONTOURS_MAJEURES
10
30.005
20
24.144
0
VERTEX
8
CONTOURS_MAJEURES
10
30.393
20
24.616
0
VERTEX
8
CONTOURS_MAJEURES
10
30.553
20
25.005
0
VERTEX
8
CONTOURS_MAJEURES
10
31.459
20
26.459
0
VERTEX
8
CONTOURS_MAJEURES
10
33.738
20
30.002
0
VERTEX
8
CONTOURS_MAJEURES
10
34.188
20
30.817
0
VERTEX
8
CONTOURS_MAJEURES
10
35.004
20
32.191
0
VERTEX
8
CONTOURS_MAJEURES
10
35.842
20
34.160
0
VERTEX
8
CONTOURS_MAJEURES
10
36.253
20
34.998
0
VERTEX
8
CONTOURS_MAJEURES
10
37.235
20
37.229
0
VERTEX
8
CONTOURS_MAJEURES
10
38.547
20
39.994
0
VERTEX
8
CONTOURS_MAJEURES
10
38.762
20
41.236
0
VERTEX
8
CONTOURS_MAJEURES
10
38.823
20
45.002
0
VERTEX
8
CONTOURS_MAJEURES
10
37.578
20
47.575
0
SEQEND
0
POLYLINE
8
PARCELLE
66
1
70
1
0
VERTEX
8
PARCELLE
10
24.790
20
21.563
0
VERTEX
8
PARCELLE
10
20.000
20
41.844
0
VERTEX
8
PARCELLE
10
46.066
20
105.031
0
VERTEX
8
PARCELLE
10
102.281
20
81.027
0
VERTEX
8
PARCELLE
10
90.461
20
30.874
0
VERTEX
8
PARCELLE
10
87.911
20
20.000
0
VERTEX
8
PARCELLE
10
51.610
20
28.027
0
VERTEX
8
PARCELLE
10
45.323
20
28.115
0
VERTEX
8
PARCELLE
10
24.790
20
21.563
0
SEQEND
0
TEXT
8
POINTS_COTES
10
0.005
20
0.001
40
1.0
1
83.2
0
TEXT
8
POINTS_COTES
10
35.004
20
4.998
40
1.0
1
96.7
0
TEXT
8
POINTS_COTES
10
70.003
20
10.005
40
1.0
1
84.7
0
TEXT
8
POINTS_COTES
10
105.002
20
15.001
40
1.0
1
75.5
0
TEXT
8
POINTS_COTES
10
15.000
20
25.005
40
1.0
1
96.3
0
TEXT
8
POINTS_COTES
10
49.999
20
30.002
40
1.0
1
93.4
0
TEXT
8
POINTS_COTES
10
84.998
20
34.998
40
1.0
1
82.4
0
TEXT
8
POINTS_COTES
10
119.997
20
39.994
40
1.0
1
74.9
0
TEXT
8
POINTS_COTES
10
30.005
20
49.998
40
1.0
1
102.0
0
TEXT
8
POINTS_COTES
10
65.004
20
54.995
40
1.0
1
92.4
0
TEXT
8
POINTS_COTES
10
100.003
20
60.002
40
1.0
1
84.5
0
TEXT
8
POINTS_COTES
10
10.001
20
69.995
40
1.0
1
91.2
0
TEXT
8
POINTS_COTES
10
45.000
20
75.002
40
1.0
1
91.0
0
TEXT
8
POINTS_COTES
10
79.999
20
79.999
40
1.0
1
92.4
0
TEXT
8
POINTS_COTES
10
114.998
20
84.995
40
1.0
1
88.5
0
TEXT
8
POINTS_COTES
10
24.996
20
94.999
40
1.0
1
79.2
0
TEXT
8
POINTS_COTES
10
59.995
20
99.996
40
1.0
1
76.7
0
TEXT
8
POINTS_COTES
10
95.005
20
105.003
40
1.0
1
81.7
0
TEXT
8
POINTS_COTES
10
5.003
20
114.996
40
1.0
1
75.0
0
TEXT
8
POINTS_COTES
10
40.002
20
120.003
40
1.0
1
69.0
0
TEXT
8
POINTS_COTES
10
75.001
20
125.000
40
1.0
1
70.7
0
ENDSEC
0
EOF
